<svg xmlns="http://www.w3.org/2000/svg" width="300" height="300" viewBox="0 0 300 300">
<path d="M 153.93 81.05 L 153.50 80.19 C 153.05 79.30 151.95 78.94 151.06 79.39 C 150.16 79.84 149.80 80.93 150.25 81.82 L 150.68 82.68 C 151.14 83.58 152.23 83.94 153.12 83.49 C 154.02 83.03 154.38 81.94 153.93 81.05 Z M 153.51 80.15 L 153.07 79.30 C 152.59 78.39 151.48 78.04 150.57 78.52 C 149.67 78.99 149.32 80.11 149.79 81.01 L 150.24 81.87 C 150.71 82.77 151.83 83.12 152.73 82.65 C 153.64 82.18 153.99 81.06 153.51 80.15 Z M 153.07 79.23 L 152.59 78.38 C 152.08 77.47 150.93 77.15 150.03 77.66 C 149.12 78.17 148.80 79.32 149.31 80.23 L 149.78 81.08 C 150.30 81.99 151.45 82.31 152.35 81.80 C 153.26 81.29 153.58 80.14 153.07 79.23 Z M 152.58 78.29 L 152.06 77.45 C 151.50 76.54 150.31 76.27 149.41 76.83 C 148.51 77.39 148.23 78.58 148.79 79.48 L 149.32 80.32 C 149.88 81.22 151.07 81.50 151.97 80.94 C 152.87 80.38 153.14 79.19 152.58 78.29 Z M 152.03 77.33 L 151.44 76.50 C 150.81 75.61 149.59 75.40 148.71 76.02 C 147.82 76.65 147.61 77.87 148.23 78.75 L 148.82 79.59 C 149.45 80.47 150.67 80.68 151.55 80.06 C 152.44 79.44 152.65 78.22 152.03 77.33 Z M 151.39 76.37 L 150.72 75.54 C 150.03 74.69 148.77 74.55 147.91 75.25 C 147.06 75.94 146.92 77.19 147.62 78.05 L 148.28 78.88 C 148.98 79.73 150.23 79.87 151.09 79.18 C 151.94 78.48 152.08 77.23 151.39 76.37 Z M 150.64 75.41 L 149.81 74.53 C 149.05 73.72 147.77 73.68 146.96 74.45 C 146.14 75.21 146.11 76.49 146.87 77.30 L 147.70 78.18 C 148.46 78.99 149.74 79.03 150.55 78.27 C 151.36 77.50 151.40 76.23 150.64 75.41 Z M 149.69 74.40 L 148.79 73.59 C 147.95 72.84 146.67 72.91 145.92 73.75 C 145.17 74.58 145.24 75.87 146.08 76.61 L 146.98 77.43 C 147.82 78.18 149.10 78.11 149.85 77.27 C 150.60 76.44 150.53 75.15 149.69 74.40 Z M 148.62 73.44 L 147.72 72.80 C 146.80 72.14 145.52 72.36 144.87 73.27 C 144.22 74.19 144.43 75.46 145.34 76.12 L 146.25 76.76 C 147.16 77.42 148.44 77.21 149.09 76.29 C 149.75 75.37 149.53 74.10 148.62 73.44 Z M 147.40 72.60 L 146.57 72.21 C 145.55 71.73 144.33 72.17 143.85 73.20 C 143.36 74.22 143.80 75.44 144.83 75.92 L 145.66 76.31 C 146.68 76.79 147.90 76.36 148.38 75.33 C 148.87 74.31 148.43 73.09 147.40 72.60 Z M 145.85 72.02 L 145.16 71.96 C 144.03 71.88 143.04 72.73 142.96 73.86 C 142.87 75.00 143.73 75.99 144.86 76.07 L 145.55 76.12 C 146.68 76.21 147.67 75.35 147.75 74.22 C 147.84 73.09 146.99 72.10 145.85 72.02 Z M 143.78 72.36 L 143.32 72.70 C 142.41 73.38 142.21 74.67 142.89 75.59 C 143.57 76.50 144.87 76.70 145.78 76.02 L 146.24 75.68 C 147.16 75.00 147.35 73.70 146.67 72.79 C 145.99 71.87 144.70 71.68 143.78 72.36 Z M 142.61 73.65 L 142.40 74.23 C 142.01 75.30 142.56 76.48 143.63 76.87 C 144.70 77.27 145.89 76.72 146.28 75.65 L 146.49 75.07 C 146.88 74.00 146.34 72.81 145.26 72.42 C 144.19 72.03 143.01 72.58 142.61 73.65 Z M 142.30 74.71 L 142.21 75.52 C 142.08 76.65 142.90 77.66 144.03 77.79 C 145.16 77.91 146.17 77.09 146.30 75.96 L 146.39 75.16 C 146.51 74.03 145.69 73.02 144.56 72.89 C 143.43 72.77 142.42 73.58 142.30 74.71 Z M 142.20 75.77 L 142.22 76.75 C 142.23 77.88 143.16 78.78 144.29 78.77 C 145.42 78.75 146.33 77.83 146.31 76.69 L 146.30 75.72 C 146.29 74.59 145.36 73.68 144.23 73.69 C 143.10 73.71 142.19 74.64 142.20 75.77 Z M 142.23 76.88 L 142.32 77.98 C 142.41 79.10 143.39 79.94 144.51 79.85 C 145.64 79.77 146.47 78.78 146.39 77.66 L 146.30 76.56 C 146.21 75.44 145.23 74.60 144.10 74.69 C 142.98 74.77 142.14 75.76 142.23 76.88 Z M 142.33 78.06 L 142.47 79.22 C 142.60 80.34 143.61 81.14 144.72 81.01 C 145.84 80.88 146.64 79.87 146.51 78.75 L 146.37 77.58 C 146.24 76.47 145.23 75.67 144.12 75.80 C 143.00 75.93 142.20 76.94 142.33 78.06 Z M 142.48 79.26 L 142.64 80.44 C 142.79 81.55 143.81 82.33 144.92 82.18 C 146.03 82.03 146.81 81.01 146.66 79.90 L 146.49 78.71 C 146.34 77.61 145.32 76.83 144.21 76.98 C 143.11 77.13 142.33 78.15 142.48 79.26 Z M 142.65 80.45 L 142.81 81.60 C 142.97 82.70 143.99 83.47 145.09 83.32 C 146.19 83.16 146.96 82.14 146.81 81.04 L 146.65 79.89 C 146.49 78.79 145.47 78.02 144.37 78.17 C 143.27 78.33 142.50 79.35 142.65 80.45 Z M 142.84 81.58 L 142.98 82.63 C 143.12 83.72 144.12 84.48 145.20 84.34 C 146.29 84.20 147.06 83.20 146.92 82.11 L 146.78 81.06 C 146.64 79.97 145.64 79.21 144.55 79.35 C 143.46 79.49 142.70 80.49 142.84 81.58 Z M 143.03 82.59 L 143.14 83.59 C 143.27 84.65 144.23 85.40 145.29 85.28 C 146.35 85.16 147.11 84.20 146.98 83.14 L 146.87 82.15 C 146.74 81.09 145.78 80.33 144.72 80.45 C 143.66 80.57 142.90 81.53 143.03 82.59 Z M 143.19 83.55 L 143.29 84.50 C 143.39 85.54 144.31 86.29 145.35 86.19 C 146.38 86.08 147.13 85.16 147.03 84.13 L 146.93 83.17 C 146.83 82.14 145.91 81.39 144.88 81.49 C 143.84 81.60 143.09 82.52 143.19 83.55 Z M 143.34 84.47 L 143.42 85.41 C 143.50 86.41 144.38 87.16 145.39 87.08 C 146.39 86.99 147.14 86.11 147.05 85.11 L 146.98 84.17 C 146.89 83.16 146.01 82.42 145.01 82.50 C 144.00 82.58 143.26 83.46 143.34 84.47 Z M 143.47 85.37 L 143.53 86.33 C 143.60 87.30 144.44 88.04 145.41 87.98 C 146.39 87.92 147.13 87.07 147.07 86.10 L 147.00 85.14 C 146.94 84.17 146.10 83.43 145.12 83.49 C 144.14 83.56 143.41 84.40 143.47 85.37 Z M 143.58 86.30 L 143.63 87.29 C 143.68 88.23 144.49 88.96 145.43 88.92 C 146.38 88.87 147.11 88.06 147.06 87.12 L 147.01 86.13 C 146.97 85.18 146.16 84.45 145.21 84.50 C 144.27 84.54 143.54 85.35 143.58 86.30 Z M 143.69 87.26 L 143.72 88.31 C 143.76 89.23 144.53 89.95 145.45 89.91 C 146.36 89.88 147.08 89.11 147.05 88.19 L 147.01 87.14 C 146.98 86.22 146.21 85.51 145.29 85.54 C 144.37 85.57 143.65 86.34 143.69 87.26 Z M 143.76 88.29 L 143.79 89.24 C 143.81 90.13 144.56 90.84 145.45 90.82 C 146.35 90.79 147.06 90.05 147.03 89.15 L 147.01 88.21 C 146.99 87.31 146.24 86.60 145.34 86.63 C 144.45 86.65 143.74 87.40 143.76 88.29 Z M 143.80 89.23 L 143.82 90.11 C 143.84 91.00 144.57 91.71 145.46 91.69 C 146.35 91.67 147.05 90.94 147.04 90.05 L 147.02 89.16 C 147.00 88.27 146.27 87.57 145.38 87.58 C 144.49 87.60 143.78 88.34 143.80 89.23 Z M 143.82 90.10 L 143.84 91.03 C 143.85 91.92 144.58 92.62 145.46 92.61 C 146.35 92.60 147.06 91.87 147.05 90.98 L 147.03 90.05 C 147.02 89.17 146.29 88.46 145.40 88.47 C 144.52 88.49 143.81 89.22 143.82 90.10 Z M 143.84 91.02 L 143.85 91.99 C 143.86 92.87 144.59 93.58 145.47 93.57 C 146.35 93.56 147.06 92.84 147.05 91.95 L 147.04 90.99 C 147.03 90.10 146.31 89.40 145.42 89.41 C 144.54 89.42 143.83 90.14 143.84 91.02 Z M 143.86 91.98 L 143.87 92.98 C 143.87 93.86 144.59 94.57 145.47 94.56 C 146.35 94.55 147.06 93.84 147.05 92.96 L 147.05 91.96 C 147.04 91.08 146.32 90.37 145.44 90.38 C 144.56 90.38 143.85 91.10 143.86 91.98 Z M 143.87 92.98 L 143.88 94.00 C 143.88 94.88 144.60 95.59 145.47 95.58 C 146.35 95.58 147.06 94.86 147.05 93.98 L 147.05 92.96 C 147.04 92.08 146.33 91.37 145.45 91.38 C 144.57 91.38 143.87 92.10 143.87 92.98 Z M 143.88 94.00 L 143.88 95.04 C 143.89 95.92 144.60 96.62 145.47 96.62 C 146.35 96.62 147.05 95.91 147.05 95.03 L 147.05 93.99 C 147.04 93.11 146.33 92.41 145.46 92.41 C 144.59 92.41 143.88 93.12 143.88 94.00 Z M 143.89 95.04 L 143.89 96.11 C 143.89 96.98 144.60 97.68 145.47 97.68 C 146.34 97.68 147.05 96.97 147.05 96.10 L 147.05 95.04 C 147.04 94.17 146.34 93.46 145.47 93.46 C 144.59 93.46 143.89 94.17 143.89 95.04 Z M 143.90 96.10 L 143.90 97.18 C 143.90 98.05 144.60 98.75 145.47 98.75 C 146.34 98.75 147.04 98.05 147.04 97.18 L 147.04 96.10 C 147.04 95.23 146.34 94.53 145.47 94.53 C 144.60 94.53 143.90 95.24 143.90 96.10 Z M 143.90 97.18 L 143.90 98.26 C 143.90 99.13 144.61 99.83 145.47 99.83 C 146.34 99.83 147.04 99.13 147.04 98.26 L 147.04 97.18 C 147.04 96.31 146.34 95.61 145.47 95.61 C 144.60 95.61 143.90 96.31 143.90 97.18 Z M 143.91 98.26 L 143.91 98.62 C 143.91 99.48 144.61 100.18 145.47 100.18 C 146.33 100.18 147.03 99.48 147.03 98.62 L 147.03 98.26 C 147.03 97.40 146.33 96.70 145.47 96.70 C 144.61 96.70 143.91 97.40 143.91 98.26 Z"
      fill="black"
      fill-rule="nonzero" /><path d="M 123.03 133.01 L 122.02 133.11 C 121.04 133.20 120.33 134.07 120.42 135.05 C 120.52 136.03 121.39 136.74 122.37 136.65 L 123.37 136.55 C 124.35 136.46 125.07 135.59 124.97 134.61 C 124.88 133.63 124.01 132.92 123.03 133.01 Z M 122.01 133.10 L 121.01 133.20 C 120.03 133.30 119.31 134.18 119.41 135.16 C 119.51 136.14 120.39 136.86 121.37 136.76 L 122.37 136.66 C 123.35 136.56 124.07 135.68 123.97 134.70 C 123.87 133.72 123.00 133.00 122.01 133.10 Z M 120.99 133.20 L 119.99 133.31 C 119.01 133.41 118.30 134.30 118.40 135.28 C 118.51 136.27 119.40 136.98 120.38 136.87 L 121.38 136.77 C 122.37 136.66 123.08 135.77 122.97 134.79 C 122.87 133.80 121.98 133.09 120.99 133.20 Z M 119.97 133.30 L 118.98 133.42 C 117.99 133.54 117.28 134.44 117.40 135.42 C 117.52 136.41 118.42 137.12 119.41 137.00 L 120.40 136.88 C 121.39 136.76 122.10 135.86 121.98 134.88 C 121.86 133.89 120.96 133.18 119.97 133.30 Z M 118.95 133.41 L 117.96 133.55 C 116.97 133.68 116.28 134.59 116.41 135.59 C 116.54 136.58 117.46 137.27 118.45 137.14 L 119.43 137.00 C 120.43 136.87 121.12 135.96 120.99 134.97 C 120.85 133.98 119.94 133.28 118.95 133.41 Z M 117.93 133.55 L 116.95 133.70 C 115.96 133.85 115.28 134.78 115.43 135.77 C 115.59 136.77 116.52 137.45 117.51 137.29 L 118.48 137.14 C 119.48 136.99 120.16 136.06 120.00 135.06 C 119.85 134.07 118.92 133.39 117.93 133.55 Z M 116.90 133.69 L 115.83 133.89 C 114.84 134.07 114.18 135.02 114.36 136.01 C 114.54 137.01 115.49 137.67 116.48 137.49 L 117.55 137.29 C 118.55 137.11 119.21 136.16 119.03 135.17 C 118.85 134.18 117.90 133.52 116.90 133.69 Z M 115.77 133.89 L 114.38 134.19 C 113.38 134.40 112.75 135.39 112.97 136.38 C 113.18 137.38 114.16 138.01 115.16 137.79 L 116.55 137.49 C 117.54 137.27 118.17 136.29 117.96 135.30 C 117.74 134.30 116.76 133.67 115.77 133.89 Z M 114.28 134.19 L 113.10 134.51 C 112.11 134.78 111.52 135.80 111.79 136.79 C 112.06 137.78 113.08 138.37 114.07 138.10 L 115.25 137.79 C 116.24 137.52 116.83 136.50 116.56 135.50 C 116.30 134.51 115.27 133.93 114.28 134.19 Z M 112.94 134.54 L 112.12 134.85 C 111.15 135.20 110.65 136.28 111.01 137.26 C 111.36 138.23 112.44 138.73 113.42 138.37 L 114.24 138.07 C 115.21 137.71 115.71 136.63 115.35 135.66 C 114.99 134.68 113.91 134.19 112.94 134.54 Z M 111.58 135.13 L 111.26 135.39 C 110.45 136.04 110.32 137.24 110.98 138.05 C 111.63 138.87 112.83 139.00 113.65 138.34 L 113.96 138.09 C 114.78 137.43 114.90 136.24 114.25 135.42 C 113.59 134.60 112.39 134.47 111.58 135.13 Z M 111.41 138.46 L 111.64 138.61 C 112.52 139.19 113.71 138.95 114.29 138.07 C 114.87 137.19 114.62 136.00 113.74 135.42 L 113.50 135.27 C 112.62 134.69 111.44 134.93 110.86 135.81 C 110.28 136.69 110.53 137.88 111.41 138.46 Z M 112.44 138.91 L 113.08 139.00 C 114.13 139.13 115.09 138.40 115.23 137.35 C 115.36 136.30 114.63 135.34 113.58 135.21 L 112.94 135.12 C 111.89 134.99 110.93 135.72 110.80 136.77 C 110.66 137.82 111.40 138.78 112.44 138.91 Z M 113.30 139.01 L 114.26 139.03 C 115.32 139.05 116.19 138.21 116.20 137.15 C 116.22 136.10 115.38 135.23 114.33 135.21 L 113.36 135.19 C 112.31 135.17 111.44 136.01 111.42 137.07 C 111.40 138.13 112.25 138.99 113.30 139.01 Z M 114.38 139.03 L 115.58 138.97 C 116.64 138.92 117.45 138.03 117.41 136.98 C 117.36 135.92 116.46 135.11 115.41 135.15 L 114.21 135.21 C 113.15 135.26 112.34 136.15 112.39 137.21 C 112.43 138.26 113.33 139.08 114.38 139.03 Z M 115.68 138.97 L 117.04 138.83 C 118.09 138.73 118.86 137.80 118.76 136.75 C 118.66 135.70 117.72 134.93 116.67 135.03 L 115.31 135.16 C 114.26 135.26 113.49 136.20 113.59 137.25 C 113.70 138.30 114.63 139.07 115.68 138.97 Z M 117.13 138.82 L 118.39 138.64 C 119.43 138.49 120.16 137.52 120.01 136.48 C 119.86 135.44 118.89 134.71 117.85 134.86 L 116.59 135.04 C 115.54 135.19 114.82 136.16 114.97 137.20 C 115.12 138.25 116.08 138.97 117.13 138.82 Z M 118.46 138.63 L 119.40 138.46 C 120.43 138.27 121.12 137.27 120.93 136.24 C 120.74 135.20 119.75 134.51 118.71 134.70 L 117.77 134.88 C 116.74 135.06 116.05 136.06 116.24 137.09 C 116.43 138.13 117.42 138.82 118.46 138.63 Z M 119.45 138.44 L 120.40 138.24 C 121.42 138.02 122.08 137.01 121.86 135.99 C 121.64 134.96 120.63 134.30 119.61 134.52 L 118.66 134.72 C 117.63 134.94 116.98 135.95 117.19 136.97 C 117.41 138.00 118.42 138.66 119.45 138.44 Z M 120.44 138.23 L 121.39 138.00 C 122.41 137.76 123.04 136.74 122.80 135.72 C 122.56 134.70 121.54 134.07 120.52 134.31 L 119.56 134.53 C 118.54 134.77 117.91 135.80 118.15 136.82 C 118.40 137.84 119.42 138.47 120.44 138.23 Z M 121.43 137.99 L 122.39 137.74 C 123.41 137.48 124.02 136.45 123.76 135.43 C 123.50 134.42 122.46 133.81 121.45 134.07 L 120.49 134.32 C 119.47 134.58 118.86 135.61 119.12 136.62 C 119.38 137.64 120.42 138.25 121.43 137.99 Z M 122.42 137.73 L 123.39 137.46 C 124.40 137.19 124.99 136.15 124.72 135.14 C 124.44 134.14 123.41 133.54 122.40 133.82 L 121.42 134.08 C 120.42 134.36 119.83 135.40 120.10 136.40 C 120.38 137.41 121.41 138.00 122.42 137.73 Z M 123.41 137.45 L 124.40 137.17 C 125.40 136.88 125.98 135.84 125.69 134.84 C 125.41 133.84 124.36 133.26 123.36 133.55 L 122.38 133.83 C 121.38 134.11 120.80 135.16 121.09 136.16 C 121.37 137.16 122.41 137.74 123.41 137.45 Z M 124.41 137.16 L 125.40 136.87 C 126.40 136.58 126.97 135.53 126.68 134.54 C 126.38 133.54 125.34 132.97 124.34 133.26 L 123.35 133.56 C 122.36 133.85 121.79 134.89 122.08 135.89 C 122.37 136.88 123.41 137.45 124.41 137.16 Z M 125.41 136.86 L 126.41 136.56 C 127.40 136.27 127.97 135.23 127.67 134.23 C 127.38 133.24 126.33 132.68 125.34 132.97 L 124.34 133.27 C 123.35 133.57 122.78 134.61 123.08 135.60 C 123.37 136.59 124.42 137.16 125.41 136.86 Z M 126.41 136.56 L 127.36 136.28 C 128.34 135.98 128.91 134.94 128.61 133.95 C 128.32 132.96 127.27 132.40 126.29 132.70 L 125.34 132.98 C 124.35 133.27 123.79 134.32 124.09 135.30 C 124.38 136.29 125.42 136.85 126.41 136.56 Z M 127.36 136.27 L 128.30 135.99 C 129.29 135.69 129.85 134.65 129.55 133.67 C 129.26 132.68 128.22 132.12 127.23 132.42 L 126.29 132.70 C 125.30 133.00 124.74 134.04 125.04 135.02 C 125.33 136.01 126.37 136.57 127.36 136.27 Z M 128.30 135.98 L 129.25 135.70 C 130.24 135.40 130.79 134.36 130.50 133.38 C 130.20 132.40 129.16 131.84 128.18 132.14 L 127.23 132.42 C 126.25 132.72 125.69 133.76 125.99 134.74 C 126.28 135.72 127.32 136.28 128.30 135.98 Z M 129.26 135.69 L 130.21 135.40 C 131.19 135.10 131.74 134.07 131.45 133.09 C 131.15 132.11 130.11 131.56 129.13 131.85 L 128.18 132.14 C 127.20 132.44 126.65 133.48 126.94 134.46 C 127.24 135.43 128.28 135.99 129.26 135.69 Z M 130.21 135.39 L 131.17 135.10 C 132.15 134.80 132.70 133.77 132.40 132.79 C 132.10 131.81 131.07 131.27 130.09 131.57 L 129.13 131.86 C 128.15 132.16 127.61 133.19 127.91 134.17 C 128.20 135.14 129.24 135.69 130.21 135.39 Z M 131.18 135.09 L 132.14 134.79 C 133.11 134.49 133.65 133.46 133.35 132.49 C 133.05 131.52 132.02 130.97 131.05 131.27 L 130.09 131.57 C 129.11 131.87 128.57 132.91 128.87 133.88 C 129.17 134.85 130.21 135.39 131.18 135.09 Z M 132.14 134.79 L 133.11 134.48 C 134.07 134.18 134.61 133.15 134.31 132.18 C 134.00 131.21 132.97 130.67 132.00 130.98 L 131.04 131.28 C 130.07 131.59 129.53 132.62 129.84 133.59 C 130.14 134.55 131.18 135.09 132.14 134.79 Z M 133.11 134.48 L 134.07 134.17 C 135.04 133.86 135.57 132.83 135.26 131.87 C 134.95 130.90 133.92 130.37 132.96 130.68 L 132.00 130.99 C 131.03 131.29 130.50 132.32 130.81 133.29 C 131.12 134.25 132.15 134.79 133.11 134.48 Z M 134.08 134.16 L 135.04 133.85 C 136.00 133.54 136.53 132.51 136.22 131.55 C 135.90 130.59 134.87 130.06 133.91 130.37 L 132.95 130.69 C 131.99 131.00 131.47 132.03 131.78 132.99 C 132.09 133.95 133.12 134.47 134.08 134.16 Z M 135.05 133.84 L 136.03 133.52 C 136.99 133.20 137.50 132.17 137.19 131.21 C 136.87 130.26 135.84 129.74 134.89 130.06 L 133.90 130.38 C 132.95 130.70 132.43 131.73 132.75 132.68 C 133.06 133.64 134.10 134.16 135.05 133.84 Z M 136.04 133.51 L 137.02 133.18 C 137.97 132.86 138.48 131.83 138.16 130.88 C 137.84 129.93 136.81 129.42 135.86 129.74 L 134.88 130.07 C 133.93 130.39 133.42 131.42 133.74 132.37 C 134.06 133.32 135.09 133.83 136.04 133.51 Z M 137.02 133.17 L 138.00 132.83 C 138.94 132.51 139.45 131.48 139.12 130.54 C 138.80 129.59 137.77 129.09 136.83 129.41 L 135.85 129.75 C 134.91 130.07 134.40 131.10 134.73 132.04 C 135.05 132.99 136.08 133.49 137.02 133.17 Z M 138.00 132.83 L 138.97 132.49 C 139.91 132.16 140.40 131.14 140.08 130.20 C 139.75 129.26 138.73 128.76 137.79 129.09 L 136.82 129.42 C 135.88 129.75 135.38 130.77 135.71 131.71 C 136.04 132.65 137.06 133.15 138.00 132.83 Z M 138.97 132.48 L 139.92 132.15 C 140.86 131.82 141.35 130.80 141.02 129.86 C 140.69 128.93 139.67 128.43 138.73 128.76 L 137.78 129.10 C 136.85 129.42 136.35 130.45 136.68 131.38 C 137.01 132.32 138.03 132.81 138.97 132.48 Z M 139.92 132.14 L 140.86 131.81 C 141.79 131.48 142.28 130.46 141.95 129.53 C 141.62 128.60 140.60 128.11 139.67 128.44 L 138.73 128.77 C 137.80 129.10 137.31 130.12 137.64 131.05 C 137.97 131.98 138.99 132.47 139.92 132.14 Z M 140.86 131.80 L 141.79 131.47 C 142.71 131.14 143.20 130.13 142.87 129.20 C 142.54 128.27 141.52 127.79 140.59 128.12 L 139.67 128.44 C 138.74 128.77 138.26 129.79 138.59 130.72 C 138.92 131.65 139.94 132.13 140.86 131.80 Z M 141.79 131.47 L 142.69 131.14 C 143.61 130.81 144.10 129.80 143.77 128.88 C 143.44 127.95 142.42 127.47 141.50 127.80 L 140.59 128.12 C 139.67 128.45 139.19 129.47 139.52 130.39 C 139.85 131.31 140.86 131.80 141.79 131.47 Z M 142.69 131.14 L 143.58 130.82 C 144.49 130.49 144.97 129.48 144.65 128.56 C 144.32 127.64 143.31 127.16 142.39 127.49 L 141.50 127.81 C 140.58 128.14 140.10 129.15 140.43 130.07 C 140.76 130.99 141.77 131.47 142.69 131.14 Z M 143.57 130.81 L 144.60 130.45 C 145.51 130.12 145.99 129.11 145.66 128.20 C 145.34 127.28 144.33 126.81 143.41 127.13 L 142.39 127.50 C 141.47 127.82 141.00 128.83 141.32 129.75 C 141.65 130.66 142.66 131.14 143.57 130.81 Z M 144.59 130.44 L 145.59 130.09 C 146.50 129.76 146.98 128.76 146.65 127.85 C 146.33 126.93 145.32 126.46 144.41 126.78 L 143.42 127.14 C 142.50 127.46 142.03 128.47 142.35 129.38 C 142.68 130.29 143.68 130.77 144.59 130.44 Z M 145.59 130.08 L 146.55 129.73 C 147.46 129.41 147.93 128.41 147.61 127.50 C 147.29 126.60 146.29 126.12 145.38 126.45 L 144.41 126.79 C 143.51 127.12 143.03 128.11 143.36 129.02 C 143.68 129.93 144.68 130.40 145.59 130.08 Z M 146.55 129.73 L 147.49 129.39 C 148.40 129.07 148.87 128.07 148.55 127.17 C 148.22 126.27 147.23 125.79 146.32 126.12 L 145.38 126.45 C 144.48 126.78 144.01 127.77 144.33 128.67 C 144.65 129.58 145.65 130.05 146.55 129.73 Z M 147.49 129.38 L 148.41 129.05 C 149.31 128.73 149.78 127.74 149.46 126.84 C 149.13 125.94 148.14 125.47 147.24 125.80 L 146.33 126.13 C 145.43 126.45 144.96 127.44 145.28 128.34 C 145.60 129.24 146.59 129.71 147.49 129.38 Z M 148.41 129.05 L 149.31 128.73 C 150.20 128.40 150.67 127.42 150.34 126.52 C 150.02 125.63 149.04 125.16 148.14 125.48 L 147.24 125.80 C 146.35 126.13 145.88 127.11 146.21 128.01 C 146.53 128.90 147.51 129.37 148.41 129.05 Z M 149.30 128.72 L 150.18 128.40 C 151.07 128.08 151.54 127.10 151.21 126.21 C 150.89 125.31 149.91 124.85 149.02 125.17 L 148.14 125.49 C 147.25 125.81 146.79 126.79 147.11 127.69 C 147.43 128.58 148.41 129.04 149.30 128.72 Z M 150.18 128.39 L 151.07 128.07 C 151.95 127.75 152.41 126.77 152.09 125.89 C 151.77 125.00 150.79 124.54 149.90 124.86 L 149.02 125.18 C 148.13 125.50 147.67 126.48 148.00 127.37 C 148.32 128.26 149.30 128.71 150.18 128.39 Z M 151.06 128.07 L 151.95 127.75 C 152.83 127.43 153.29 126.45 152.97 125.57 C 152.65 124.69 151.68 124.23 150.80 124.55 L 149.91 124.87 C 149.02 125.19 148.57 126.16 148.89 127.04 C 149.20 127.93 150.18 128.39 151.06 128.07 Z M 151.94 127.74 L 152.83 127.43 C 153.71 127.12 154.17 126.15 153.86 125.27 C 153.55 124.39 152.59 123.92 151.70 124.24 L 150.81 124.55 C 149.93 124.86 149.47 125.83 149.78 126.71 C 150.09 127.59 151.06 128.05 151.94 127.74 Z M 152.81 127.43 L 153.72 127.12 C 154.60 126.82 155.07 125.86 154.77 124.98 C 154.47 124.10 153.52 123.63 152.64 123.93 L 151.73 124.24 C 150.84 124.54 150.37 125.49 150.67 126.37 C 150.97 127.25 151.93 127.73 152.81 127.43 Z M 153.69 127.12 L 154.63 126.82 C 155.52 126.53 156.00 125.59 155.72 124.71 C 155.43 123.82 154.49 123.34 153.61 123.62 L 152.67 123.93 C 151.78 124.21 151.30 125.15 151.58 126.04 C 151.87 126.92 152.81 127.40 153.69 127.12 Z M 154.60 126.82 L 155.59 126.52 C 156.47 126.26 156.97 125.33 156.71 124.44 C 156.44 123.56 155.51 123.06 154.63 123.32 L 153.64 123.62 C 152.76 123.88 152.26 124.82 152.52 125.70 C 152.79 126.58 153.72 127.08 154.60 126.82 Z M 155.55 126.53 L 156.59 126.24 C 157.48 125.99 158.00 125.08 157.75 124.19 C 157.51 123.31 156.60 122.79 155.71 123.03 L 154.67 123.32 C 153.78 123.57 153.26 124.48 153.51 125.37 C 153.75 126.25 154.66 126.77 155.55 126.53 Z M 156.56 126.25 L 157.63 125.98 C 158.52 125.75 159.06 124.85 158.83 123.96 C 158.61 123.08 157.71 122.53 156.82 122.76 L 155.75 123.03 C 154.86 123.25 154.32 124.15 154.54 125.04 C 154.77 125.93 155.67 126.47 156.56 126.25 Z M 157.59 126.00 L 158.67 125.75 C 159.57 125.55 160.13 124.66 159.93 123.76 C 159.73 122.86 158.84 122.30 157.94 122.50 L 156.86 122.74 C 155.96 122.94 155.39 123.83 155.60 124.73 C 155.80 125.63 156.69 126.20 157.59 126.00 Z M 158.62 125.78 L 159.72 125.57 C 160.63 125.39 161.23 124.51 161.06 123.60 C 160.88 122.68 160.00 122.09 159.08 122.26 L 157.98 122.47 C 157.07 122.65 156.47 123.53 156.65 124.44 C 156.83 125.36 157.71 125.95 158.62 125.78 Z M 159.66 125.59 L 160.75 125.43 C 161.67 125.29 162.31 124.42 162.17 123.49 C 162.03 122.57 161.16 121.93 160.24 122.07 L 159.15 122.24 C 158.22 122.38 157.58 123.24 157.72 124.17 C 157.87 125.10 158.73 125.73 159.66 125.59 Z M 160.66 125.45 L 161.71 125.35 C 162.65 125.25 163.34 124.41 163.24 123.47 C 163.15 122.53 162.31 121.85 161.37 121.94 L 160.32 122.05 C 159.38 122.14 158.70 122.98 158.79 123.92 C 158.88 124.86 159.72 125.55 160.66 125.45 Z M 161.59 125.37 L 162.57 125.34 C 163.52 125.31 164.27 124.52 164.25 123.56 C 164.22 122.61 163.42 121.86 162.47 121.89 L 161.49 121.92 C 160.54 121.95 159.79 122.74 159.82 123.69 C 159.84 124.65 160.64 125.40 161.59 125.37 Z M 162.39 125.35 L 163.27 125.41 C 164.23 125.48 165.06 124.76 165.13 123.80 C 165.20 122.85 164.48 122.01 163.52 121.94 L 162.65 121.88 C 161.69 121.81 160.85 122.53 160.78 123.49 C 160.71 124.45 161.44 125.28 162.39 125.35 Z M 163.00 125.39 L 163.75 125.56 C 164.69 125.78 165.63 125.19 165.85 124.24 C 166.07 123.30 165.48 122.36 164.53 122.14 L 163.79 121.97 C 162.84 121.75 161.90 122.34 161.69 123.29 C 161.47 124.23 162.06 125.17 163.00 125.39 Z M 163.27 125.39 L 164.02 125.81 C 164.88 126.29 165.95 125.99 166.43 125.14 C 166.91 124.29 166.61 123.21 165.76 122.73 L 165.01 122.31 C 164.16 121.83 163.08 122.13 162.60 122.98 C 162.12 123.83 162.42 124.91 163.27 125.39 Z M 163.45 125.32 L 163.94 126.00 C 164.52 126.80 165.63 126.98 166.43 126.40 C 167.23 125.82 167.41 124.71 166.83 123.91 L 166.34 123.23 C 165.76 122.43 164.65 122.25 163.85 122.83 C 163.05 123.41 162.87 124.52 163.45 125.32 Z M 163.64 125.37 L 163.85 126.24 C 164.08 127.21 165.05 127.80 166.01 127.57 C 166.98 127.34 167.57 126.37 167.34 125.41 L 167.13 124.54 C 166.90 123.57 165.93 122.98 164.97 123.21 C 164.01 123.44 163.41 124.41 163.64 125.37 Z M 163.79 125.77 L 163.76 126.79 C 163.73 127.79 164.51 128.62 165.51 128.65 C 166.50 128.68 167.34 127.90 167.37 126.90 L 167.40 125.88 C 167.43 124.89 166.65 124.05 165.65 124.02 C 164.65 123.99 163.82 124.77 163.79 125.77 Z M 163.78 126.48 L 163.55 127.60 C 163.35 128.58 163.99 129.54 164.98 129.74 C 165.96 129.94 166.92 129.31 167.12 128.32 L 167.35 127.21 C 167.55 126.22 166.91 125.26 165.92 125.06 C 164.94 124.86 163.98 125.50 163.78 126.48 Z M 163.59 127.41 L 163.28 128.40 C 162.98 129.36 163.52 130.39 164.48 130.69 C 165.44 131.00 166.47 130.46 166.77 129.50 L 167.08 128.51 C 167.38 127.54 166.85 126.52 165.88 126.22 C 164.92 125.91 163.89 126.45 163.59 127.41 Z M 163.32 128.29 L 163.00 129.12 C 162.63 130.06 163.10 131.12 164.05 131.49 C 164.99 131.85 166.05 131.38 166.42 130.44 L 166.74 129.61 C 167.10 128.66 166.63 127.60 165.69 127.24 C 164.74 126.87 163.68 127.34 163.32 128.29 Z M 163.03 129.04 L 162.65 129.89 C 162.25 130.82 162.67 131.90 163.60 132.31 C 164.52 132.72 165.61 132.29 166.01 131.37 L 166.39 130.52 C 166.79 129.59 166.37 128.51 165.44 128.10 C 164.52 127.69 163.43 128.11 163.03 129.04 Z M 162.68 129.83 L 162.26 130.70 C 161.82 131.61 162.20 132.71 163.12 133.15 C 164.03 133.59 165.13 133.21 165.57 132.30 L 165.99 131.43 C 166.43 130.51 166.05 129.41 165.13 128.97 C 164.22 128.53 163.12 128.92 162.68 129.83 Z M 162.28 130.65 L 161.82 131.55 C 161.35 132.45 161.71 133.56 162.61 134.03 C 163.51 134.49 164.62 134.14 165.09 133.24 L 165.55 132.34 C 166.01 131.44 165.66 130.33 164.76 129.86 C 163.86 129.40 162.75 129.75 162.28 130.65 Z M 161.83 131.52 L 161.34 132.44 C 160.85 133.33 161.18 134.45 162.08 134.93 C 162.97 135.42 164.09 135.08 164.57 134.19 L 165.07 133.27 C 165.55 132.37 165.22 131.26 164.33 130.77 C 163.43 130.29 162.32 130.62 161.83 131.52 Z M 161.34 132.42 L 160.82 133.37 C 160.32 134.26 160.64 135.38 161.53 135.87 C 162.42 136.37 163.54 136.05 164.04 135.16 L 164.56 134.21 C 165.06 133.32 164.74 132.20 163.85 131.70 C 162.96 131.21 161.84 131.53 161.34 132.42 Z M 160.82 133.36 L 160.27 134.34 C 159.77 135.23 160.08 136.35 160.97 136.85 C 161.85 137.35 162.98 137.04 163.48 136.15 L 164.03 135.17 C 164.53 134.28 164.22 133.16 163.33 132.66 C 162.44 132.16 161.32 132.47 160.82 133.36 Z M 160.27 134.34 L 159.76 135.23 C 159.26 136.12 159.57 137.24 160.46 137.74 C 161.35 138.25 162.47 137.93 162.97 137.05 L 163.48 136.15 C 163.98 135.27 163.67 134.14 162.78 133.64 C 161.89 133.14 160.77 133.45 160.27 134.34 Z M 159.76 135.23 L 159.25 136.13 C 158.75 137.02 159.07 138.14 159.95 138.64 C 160.84 139.14 161.97 138.83 162.47 137.94 L 162.97 137.05 C 163.48 136.16 163.16 135.03 162.28 134.53 C 161.39 134.03 160.26 134.34 159.76 135.23 Z M 159.25 136.13 L 158.74 137.04 C 158.24 137.92 158.55 139.05 159.44 139.55 C 160.33 140.05 161.45 139.74 161.96 138.85 L 162.47 137.94 C 162.97 137.06 162.66 135.93 161.77 135.43 C 160.88 134.93 159.75 135.24 159.25 136.13 Z M 158.74 137.04 L 158.23 137.94 C 157.73 138.83 158.04 139.96 158.93 140.46 C 159.82 140.96 160.94 140.65 161.44 139.76 L 161.96 138.85 C 162.46 137.96 162.14 136.84 161.26 136.34 C 160.37 135.83 159.24 136.15 158.74 137.04 Z M 158.23 137.94 L 157.72 138.84 C 157.22 139.73 157.53 140.85 158.42 141.36 C 159.31 141.86 160.43 141.54 160.94 140.66 L 161.44 139.76 C 161.94 138.87 161.63 137.74 160.74 137.24 C 159.86 136.74 158.73 137.05 158.23 137.94 Z M 157.72 138.84 L 157.22 139.72 C 156.72 140.61 157.04 141.73 157.92 142.24 C 158.81 142.74 159.94 142.42 160.44 141.54 L 160.94 140.66 C 161.44 139.77 161.12 138.64 160.24 138.14 C 159.35 137.64 158.22 137.95 157.72 138.84 Z M 157.22 139.72 L 156.74 140.57 C 156.24 141.46 156.55 142.59 157.44 143.09 C 158.33 143.59 159.45 143.28 159.96 142.39 L 160.44 141.54 C 160.94 140.65 160.63 139.52 159.74 139.02 C 158.85 138.52 157.73 138.83 157.22 139.72 Z M 156.74 140.57 L 156.28 141.39 C 155.78 142.28 156.09 143.40 156.98 143.91 C 157.86 144.41 158.99 144.10 159.49 143.21 L 159.96 142.39 C 160.46 141.50 160.15 140.38 159.26 139.87 C 158.37 139.37 157.24 139.68 156.74 140.57 Z M 156.28 141.39 L 155.81 142.22 C 155.31 143.10 155.62 144.23 156.51 144.73 C 157.39 145.24 158.52 144.92 159.02 144.04 L 159.49 143.21 C 160.00 142.32 159.68 141.20 158.80 140.69 C 157.91 140.19 156.78 140.50 156.28 141.39 Z M 155.81 142.22 L 155.24 143.22 C 154.74 144.11 155.05 145.24 155.94 145.74 C 156.82 146.24 157.95 145.93 158.45 145.04 L 159.02 144.04 C 159.52 143.15 159.21 142.03 158.33 141.52 C 157.44 141.02 156.32 141.33 155.81 142.22 Z M 155.25 143.22 L 154.72 144.15 C 154.22 145.03 154.53 146.16 155.41 146.66 C 156.30 147.16 157.42 146.85 157.92 145.97 L 158.45 145.04 C 158.95 144.16 158.64 143.03 157.76 142.53 C 156.87 142.03 155.75 142.34 155.25 143.22 Z M 154.72 144.15 L 154.23 145.01 C 153.73 145.89 154.04 147.01 154.92 147.52 C 155.80 148.02 156.93 147.71 157.43 146.83 L 157.92 145.97 C 158.42 145.08 158.11 143.96 157.23 143.46 C 156.35 142.96 155.23 143.27 154.72 144.15 Z M 154.24 145.01 L 153.77 145.83 C 153.27 146.71 153.58 147.83 154.46 148.33 C 155.34 148.83 156.46 148.52 156.96 147.64 L 157.43 146.83 C 157.93 145.95 157.62 144.82 156.74 144.32 C 155.86 143.82 154.74 144.13 154.24 145.01 Z M 153.77 145.83 L 153.32 146.62 C 152.82 147.50 153.13 148.62 154.01 149.12 C 154.89 149.62 156.01 149.31 156.51 148.43 L 156.96 147.64 C 157.46 146.76 157.15 145.64 156.27 145.14 C 155.39 144.64 154.27 144.95 153.77 145.83 Z M 153.33 146.62 L 152.88 147.40 C 152.38 148.28 152.69 149.40 153.57 149.90 C 154.45 150.40 155.56 150.09 156.06 149.21 L 156.51 148.43 C 157.01 147.55 156.70 146.43 155.82 145.93 C 154.94 145.44 153.83 145.74 153.33 146.62 Z M 152.88 147.41 L 152.40 148.25 C 151.91 149.13 152.21 150.24 153.09 150.74 C 153.97 151.24 155.08 150.93 155.58 150.05 L 156.06 149.21 C 156.56 148.33 156.25 147.22 155.37 146.72 C 154.50 146.22 153.38 146.53 152.88 147.41 Z M 152.41 148.25 L 151.92 149.11 C 151.43 149.98 151.73 151.10 152.61 151.59 C 153.48 152.09 154.59 151.78 155.09 150.91 L 155.58 150.05 C 156.07 149.18 155.77 148.06 154.89 147.57 C 154.02 147.07 152.90 147.38 152.41 148.25 Z M 151.93 149.11 L 151.43 149.98 C 150.94 150.85 151.24 151.96 152.12 152.46 C 152.99 152.95 154.10 152.65 154.59 151.77 L 155.09 150.91 C 155.58 150.03 155.28 148.92 154.40 148.43 C 153.53 147.93 152.42 148.24 151.93 149.11 Z M 151.44 149.98 L 150.94 150.85 C 150.44 151.72 150.75 152.83 151.62 153.33 C 152.49 153.82 153.60 153.52 154.09 152.65 L 154.59 151.77 C 155.09 150.90 154.78 149.79 153.91 149.30 C 153.04 148.80 151.93 149.11 151.44 149.98 Z M 150.94 150.85 L 150.44 151.74 C 149.94 152.61 150.25 153.71 151.11 154.21 C 151.98 154.70 153.09 154.40 153.58 153.53 L 154.09 152.65 C 154.58 151.78 154.28 150.68 153.41 150.18 C 152.55 149.69 151.44 149.99 150.94 150.85 Z M 150.44 151.74 L 149.94 152.62 C 149.44 153.48 149.74 154.59 150.61 155.08 C 151.47 155.58 152.57 155.28 153.07 154.42 L 153.58 153.53 C 154.07 152.67 153.77 151.57 152.91 151.07 C 152.04 150.57 150.94 150.87 150.44 151.74 Z M 149.94 152.62 L 149.46 153.46 C 148.96 154.33 149.26 155.43 150.12 155.92 C 150.98 156.42 152.08 156.12 152.58 155.26 L 153.06 154.42 C 153.56 153.55 153.27 152.45 152.40 151.96 C 151.54 151.46 150.44 151.76 149.94 152.62 Z M 149.46 153.46 L 148.97 154.32 C 148.47 155.18 148.77 156.27 149.62 156.77 C 150.48 157.27 151.58 156.97 152.08 156.12 L 152.57 155.26 C 153.07 154.40 152.78 153.31 151.92 152.81 C 151.06 152.31 149.96 152.60 149.46 153.46 Z M 148.97 154.32 L 148.47 155.18 C 147.98 156.03 148.27 157.13 149.13 157.63 C 149.98 158.12 151.08 157.83 151.58 156.98 L 152.07 156.12 C 152.57 155.26 152.28 154.16 151.42 153.67 C 150.57 153.17 149.47 153.46 148.97 154.32 Z M 148.48 155.18 L 147.97 156.05 C 147.48 156.90 147.77 158.00 148.62 158.49 C 149.48 158.99 150.57 158.70 151.07 157.84 L 151.57 156.97 C 152.07 156.12 151.78 155.03 150.92 154.53 C 150.07 154.03 148.97 154.32 148.48 155.18 Z M 147.98 156.05 L 147.47 156.93 C 146.97 157.78 147.26 158.87 148.11 159.37 C 148.97 159.86 150.06 159.57 150.55 158.72 L 151.06 157.84 C 151.56 156.99 151.27 155.90 150.42 155.40 C 149.56 154.91 148.47 155.20 147.98 156.05 Z M 147.47 156.93 L 146.95 157.82 C 146.46 158.67 146.75 159.76 147.60 160.25 C 148.45 160.75 149.54 160.46 150.03 159.61 L 150.55 158.72 C 151.04 157.87 150.75 156.78 149.90 156.29 C 149.05 155.79 147.96 156.08 147.47 156.93 Z M 146.96 157.82 L 146.47 158.67 C 145.97 159.52 146.26 160.61 147.11 161.10 C 147.96 161.59 149.05 161.30 149.54 160.45 L 150.03 159.60 C 150.52 158.75 150.23 157.67 149.38 157.18 C 148.54 156.69 147.45 156.97 146.96 157.82 Z M 146.47 158.68 L 145.97 159.53 C 145.49 160.38 145.77 161.46 146.62 161.95 C 147.47 162.44 148.55 162.15 149.04 161.31 L 149.53 160.45 C 150.02 159.60 149.73 158.52 148.89 158.03 C 148.04 157.54 146.96 157.83 146.47 158.68 Z M 145.98 159.54 L 145.48 160.40 C 144.99 161.24 145.28 162.32 146.12 162.81 C 146.97 163.30 148.05 163.01 148.53 162.17 L 149.03 161.30 C 149.52 160.46 149.23 159.38 148.39 158.89 C 147.55 158.40 146.47 158.69 145.98 159.54 Z M 145.48 160.40 L 144.98 161.27 C 144.50 162.12 144.78 163.19 145.62 163.68 C 146.47 164.16 147.54 163.87 148.03 163.03 L 148.53 162.16 C 149.02 161.32 148.73 160.25 147.89 159.76 C 147.04 159.27 145.97 159.56 145.48 160.40 Z M 144.99 161.28 L 144.48 162.15 C 144.00 162.99 144.28 164.06 145.12 164.55 C 145.96 165.03 147.03 164.74 147.52 163.90 L 148.02 163.03 C 148.51 162.19 148.22 161.12 147.38 160.64 C 146.54 160.15 145.47 160.44 144.99 161.28 Z M 144.49 162.15 L 143.98 163.03 C 143.50 163.87 143.78 164.93 144.62 165.42 C 145.46 165.90 146.53 165.61 147.01 164.78 L 147.51 163.90 C 148.00 163.06 147.71 162.00 146.87 161.51 C 146.04 161.03 144.97 161.32 144.49 162.15 Z M 143.98 163.03 L 143.49 163.90 C 143.01 164.73 143.29 165.80 144.12 166.28 C 144.96 166.76 146.02 166.47 146.50 165.64 L 147.00 164.77 C 147.48 163.94 147.20 162.88 146.36 162.39 C 145.53 161.91 144.47 162.20 143.98 163.03 Z M 143.49 163.90 L 143.00 164.75 C 142.52 165.58 142.81 166.65 143.64 167.12 C 144.47 167.60 145.53 167.32 146.01 166.49 L 146.50 165.64 C 146.98 164.80 146.69 163.74 145.86 163.26 C 145.03 162.78 143.97 163.07 143.49 163.90 Z M 143.00 164.76 L 142.51 165.61 C 142.03 166.44 142.32 167.50 143.15 167.98 C 143.98 168.45 145.03 168.17 145.51 167.34 L 146.00 166.48 C 146.48 165.66 146.20 164.60 145.37 164.12 C 144.54 163.64 143.48 163.93 143.00 164.76 Z M 142.51 165.62 L 142.02 166.48 C 141.54 167.30 141.83 168.36 142.66 168.83 C 143.48 169.31 144.54 169.02 145.01 168.20 L 145.51 167.34 C 145.98 166.51 145.70 165.45 144.87 164.98 C 144.04 164.50 142.99 164.79 142.51 165.62 Z M 142.02 166.48 L 141.53 167.35 C 141.05 168.18 141.34 169.23 142.16 169.70 C 142.99 170.17 144.04 169.89 144.51 169.06 L 145.01 168.19 C 145.48 167.37 145.20 166.32 144.37 165.84 C 143.55 165.37 142.49 165.66 142.02 166.48 Z M 141.53 167.36 L 141.03 168.24 C 140.56 169.06 140.85 170.11 141.67 170.58 C 142.49 171.05 143.54 170.76 144.01 169.93 L 144.51 169.06 C 144.98 168.23 144.69 167.18 143.87 166.72 C 143.04 166.25 142.00 166.53 141.53 167.36 Z M 141.03 168.24 L 140.53 169.13 C 140.06 169.96 140.35 171.00 141.17 171.47 C 141.99 171.93 143.04 171.64 143.50 170.82 L 144.01 169.93 C 144.47 169.11 144.18 168.06 143.36 167.60 C 142.54 167.13 141.50 167.42 141.03 168.24 Z M 140.53 169.14 L 140.03 170.02 C 139.57 170.84 139.86 171.88 140.68 172.34 C 141.50 172.81 142.54 172.51 143.01 171.69 L 143.50 170.81 C 143.96 169.99 143.67 168.95 142.85 168.49 C 142.03 168.03 140.99 168.32 140.53 169.14 Z M 140.04 170.03 L 139.54 170.91 C 139.08 171.73 139.37 172.77 140.19 173.22 C 141.01 173.68 142.05 173.39 142.51 172.57 L 143.00 171.69 C 143.46 170.87 143.17 169.83 142.35 169.37 C 141.53 168.92 140.49 169.21 140.04 170.03 Z M 139.54 170.91 L 139.05 171.80 C 138.59 172.62 138.88 173.65 139.70 174.11 C 140.52 174.56 141.55 174.27 142.01 173.46 L 142.50 172.57 C 142.96 171.75 142.67 170.72 141.85 170.26 C 141.03 169.80 140.00 170.10 139.54 170.91 Z M 139.05 171.80 L 138.56 172.69 C 138.10 173.50 138.39 174.53 139.21 174.99 C 140.02 175.44 141.05 175.15 141.51 174.34 L 142.00 173.45 C 142.46 172.64 142.17 171.61 141.35 171.15 C 140.54 170.70 139.51 170.99 139.05 171.80 Z M 138.56 172.69 L 138.07 173.56 C 137.62 174.37 137.90 175.40 138.71 175.86 C 139.52 176.31 140.55 176.02 141.01 175.21 L 141.50 174.34 C 141.96 173.53 141.67 172.50 140.86 172.04 C 140.05 171.59 139.02 171.87 138.56 172.69 Z M 138.08 173.56 L 137.59 174.42 C 137.13 175.23 137.42 176.25 138.22 176.71 C 139.03 177.17 140.06 176.88 140.51 176.08 L 141.00 175.21 C 141.46 174.41 141.17 173.38 140.37 172.93 C 139.56 172.47 138.54 172.75 138.08 173.56 Z M 137.60 174.42 L 137.12 175.26 C 136.66 176.06 136.94 177.08 137.74 177.54 C 138.54 178.00 139.57 177.72 140.03 176.92 L 140.51 176.08 C 140.97 175.28 140.69 174.25 139.88 173.79 C 139.08 173.34 138.06 173.61 137.60 174.42 Z M 137.13 175.25 L 136.60 176.16 C 136.14 176.96 136.41 177.98 137.21 178.44 C 138.00 178.90 139.03 178.63 139.49 177.83 L 140.02 176.93 C 140.48 176.13 140.21 175.11 139.41 174.64 C 138.61 174.18 137.59 174.45 137.13 175.25 Z M 136.61 176.15 L 136.08 177.05 C 135.62 177.84 135.88 178.86 136.67 179.33 C 137.46 179.79 138.48 179.53 138.95 178.74 L 139.48 177.84 C 139.95 177.05 139.68 176.03 138.89 175.56 C 138.10 175.10 137.08 175.36 136.61 176.15 Z M 136.09 177.04 L 135.57 177.91 C 135.10 178.69 135.36 179.71 136.14 180.18 C 136.93 180.65 137.95 180.40 138.42 179.61 L 138.94 178.75 C 139.41 177.96 139.16 176.94 138.37 176.47 C 137.58 176.00 136.56 176.25 136.09 177.04 Z M 135.58 177.90 L 135.07 178.74 C 134.60 179.52 134.84 180.54 135.62 181.02 C 136.40 181.49 137.42 181.24 137.90 180.46 L 138.41 179.62 C 138.88 178.84 138.64 177.82 137.86 177.35 C 137.08 176.87 136.06 177.12 135.58 177.90 Z M 135.08 178.74 L 134.57 179.56 C 134.09 180.33 134.33 181.35 135.11 181.83 C 135.88 182.31 136.90 182.07 137.38 181.29 L 137.88 180.47 C 138.36 179.70 138.12 178.68 137.35 178.20 C 136.58 177.72 135.56 177.96 135.08 178.74 Z M 134.58 179.55 L 134.08 180.36 C 133.59 181.12 133.82 182.14 134.59 182.62 C 135.36 183.10 136.38 182.87 136.86 182.11 L 137.36 181.30 C 137.85 180.53 137.62 179.52 136.85 179.03 C 136.08 178.55 135.07 178.78 134.58 179.55 Z M 134.09 180.35 L 133.59 181.12 C 133.11 181.89 133.33 182.90 134.09 183.38 C 134.85 183.87 135.87 183.65 136.35 182.89 L 136.85 182.11 C 137.33 181.35 137.11 180.34 136.35 179.85 C 135.59 179.36 134.57 179.59 134.09 180.35 Z M 133.60 181.11 L 133.11 181.88 C 132.62 182.64 132.83 183.65 133.59 184.14 C 134.34 184.63 135.35 184.42 135.85 183.66 L 136.34 182.89 C 136.83 182.14 136.62 181.13 135.86 180.64 C 135.11 180.14 134.10 180.36 133.60 181.11 Z M 133.12 181.87 L 132.60 182.65 C 132.11 183.40 132.31 184.41 133.06 184.90 C 133.81 185.40 134.82 185.20 135.32 184.45 L 135.83 183.67 C 136.33 182.92 136.13 181.91 135.38 181.41 C 134.63 180.92 133.62 181.12 133.12 181.87 Z M 132.62 182.63 L 132.07 183.44 C 131.56 184.18 131.76 185.19 132.50 185.70 C 133.24 186.20 134.25 186.01 134.75 185.27 L 135.30 184.46 C 135.81 183.72 135.61 182.71 134.87 182.21 C 134.13 181.70 133.12 181.89 132.62 182.63 Z M 132.08 183.43 L 131.49 184.27 C 130.98 185.01 131.16 186.02 131.90 186.53 C 132.63 187.04 133.64 186.86 134.15 186.12 L 134.74 185.28 C 135.25 184.55 135.07 183.54 134.34 183.02 C 133.60 182.51 132.60 182.69 132.08 183.43 Z M 131.51 184.26 L 130.86 185.16 C 130.35 185.89 130.51 186.89 131.24 187.41 C 131.96 187.93 132.97 187.76 133.49 187.04 L 134.13 186.14 C 134.65 185.41 134.49 184.40 133.76 183.89 C 133.03 183.37 132.03 183.53 131.51 184.26 Z M 130.88 185.15 L 130.25 186.01 C 129.73 186.72 129.89 187.73 130.60 188.25 C 131.32 188.78 132.33 188.62 132.85 187.90 L 133.48 187.05 C 134.00 186.33 133.85 185.32 133.13 184.80 C 132.41 184.27 131.40 184.43 130.88 185.15 Z M 130.26 186.00 L 129.72 186.73 C 129.19 187.44 129.34 188.45 130.05 188.98 C 130.76 189.50 131.77 189.36 132.30 188.64 L 132.84 187.91 C 133.37 187.20 133.22 186.19 132.51 185.66 C 131.80 185.14 130.79 185.28 130.26 186.00 Z M 129.73 186.72 L 129.16 187.48 C 128.62 188.18 128.76 189.19 129.47 189.72 C 130.17 190.26 131.18 190.12 131.71 189.41 L 132.29 188.65 C 132.82 187.95 132.69 186.94 131.98 186.41 C 131.27 185.87 130.27 186.01 129.73 186.72 Z M 129.17 187.46 L 128.56 188.25 C 128.02 188.95 128.15 189.95 128.85 190.49 C 129.55 191.03 130.56 190.91 131.10 190.21 L 131.70 189.43 C 132.24 188.73 132.11 187.72 131.42 187.18 C 130.72 186.64 129.71 186.77 129.17 187.46 Z M 128.58 188.23 L 127.95 189.03 C 127.40 189.72 127.51 190.72 128.21 191.27 C 128.90 191.82 129.90 191.71 130.45 191.01 L 131.08 190.22 C 131.63 189.53 131.52 188.52 130.82 187.97 C 130.13 187.43 129.13 187.54 128.58 188.23 Z M 127.96 189.01 L 127.31 189.81 C 126.75 190.49 126.85 191.50 127.54 192.06 C 128.22 192.62 129.23 192.51 129.78 191.83 L 130.44 191.03 C 130.99 190.35 130.89 189.34 130.21 188.78 C 129.53 188.23 128.52 188.33 127.96 189.01 Z M 127.33 189.79 L 126.66 190.59 C 126.09 191.27 126.17 192.27 126.85 192.84 C 127.52 193.41 128.53 193.32 129.09 192.65 L 129.77 191.85 C 130.33 191.17 130.25 190.17 129.57 189.60 C 128.90 189.04 127.90 189.12 127.33 189.79 Z M 126.68 190.57 L 125.99 191.36 C 125.41 192.02 125.48 193.03 126.14 193.61 C 126.80 194.18 127.81 194.12 128.38 193.45 L 129.07 192.67 C 129.65 192.00 129.58 191.00 128.92 190.42 C 128.26 189.84 127.25 189.91 126.68 190.57 Z M 126.01 191.34 L 125.31 192.11 C 124.72 192.76 124.77 193.76 125.41 194.35 C 126.06 194.94 127.07 194.90 127.66 194.25 L 128.36 193.48 C 128.95 192.83 128.90 191.82 128.25 191.23 C 127.61 190.64 126.60 190.69 126.01 191.34 Z M 125.34 192.09 L 124.60 192.86 C 124.00 193.49 124.02 194.49 124.65 195.10 C 125.29 195.70 126.29 195.68 126.90 195.04 L 127.63 194.27 C 128.23 193.64 128.21 192.64 127.58 192.03 C 126.94 191.43 125.94 191.45 125.34 192.09 Z M 124.63 192.83 L 123.87 193.58 C 123.25 194.20 123.25 195.20 123.87 195.82 C 124.48 196.44 125.48 196.44 126.10 195.83 L 126.86 195.07 C 127.48 194.46 127.49 193.45 126.87 192.83 C 126.26 192.21 125.25 192.21 124.63 192.83 Z M 123.91 193.55 L 123.14 194.27 C 122.50 194.87 122.47 195.87 123.07 196.51 C 123.66 197.14 124.66 197.17 125.30 196.58 L 126.07 195.86 C 126.70 195.26 126.74 194.26 126.14 193.62 C 125.54 192.99 124.54 192.96 123.91 193.55 Z M 123.18 194.24 L 122.40 194.92 C 121.75 195.50 121.69 196.50 122.26 197.15 C 122.84 197.80 123.84 197.86 124.49 197.29 L 125.26 196.61 C 125.92 196.03 125.98 195.04 125.40 194.38 C 124.83 193.73 123.83 193.67 123.18 194.24 Z M 122.45 194.89 L 121.67 195.53 C 121.00 196.09 120.90 197.08 121.46 197.75 C 122.01 198.42 123.00 198.51 123.67 197.96 L 124.45 197.32 C 125.12 196.77 125.21 195.78 124.66 195.11 C 124.11 194.43 123.12 194.34 122.45 194.89 Z M 121.72 195.50 L 120.94 196.10 C 120.25 196.62 120.12 197.61 120.64 198.30 C 121.17 198.99 122.16 199.12 122.85 198.59 L 123.63 197.99 C 124.31 197.47 124.44 196.48 123.92 195.79 C 123.39 195.10 122.40 194.97 121.72 195.50 Z M 120.99 196.06 L 120.21 196.61 C 119.50 197.11 119.33 198.09 119.83 198.80 C 120.33 199.51 121.31 199.68 122.01 199.18 L 122.79 198.63 C 123.50 198.13 123.67 197.15 123.17 196.44 C 122.67 195.73 121.69 195.56 120.99 196.06 Z M 120.26 196.58 L 119.48 197.08 C 118.76 197.55 118.55 198.52 119.01 199.24 C 119.48 199.97 120.45 200.18 121.18 199.71 L 121.96 199.21 C 122.68 198.74 122.89 197.78 122.43 197.05 C 121.96 196.32 120.99 196.11 120.26 196.58 Z M 119.55 197.04 L 118.74 197.51 C 117.99 197.94 117.73 198.90 118.16 199.65 C 118.59 200.39 119.55 200.65 120.30 200.22 L 121.11 199.75 C 121.86 199.32 122.11 198.36 121.68 197.62 C 121.25 196.87 120.30 196.61 119.55 197.04 Z M 118.81 197.47 L 117.87 197.95 C 117.10 198.34 116.79 199.28 117.18 200.05 C 117.57 200.82 118.51 201.12 119.28 200.74 L 120.22 200.26 C 120.99 199.87 121.30 198.93 120.91 198.16 C 120.52 197.39 119.58 197.08 118.81 197.47 Z M 117.95 197.91 L 117.01 198.32 C 116.22 198.67 115.86 199.59 116.21 200.38 C 116.55 201.17 117.47 201.53 118.26 201.18 L 119.20 200.77 C 119.99 200.43 120.35 199.51 120.00 198.72 C 119.66 197.93 118.74 197.57 117.95 197.91 Z M 117.08 198.29 L 116.14 198.65 C 115.34 198.96 114.94 199.86 115.24 200.67 C 115.55 201.47 116.45 201.88 117.26 201.57 L 118.19 201.21 C 119.00 200.90 119.40 200.00 119.09 199.20 C 118.79 198.39 117.88 197.99 117.08 198.29 Z M 116.20 198.63 L 115.27 198.95 C 114.45 199.22 114.01 200.11 114.29 200.92 C 114.57 201.74 115.45 202.18 116.27 201.90 L 117.20 201.59 C 118.02 201.31 118.46 200.43 118.18 199.61 C 117.90 198.79 117.02 198.36 116.20 198.63 Z M 115.31 198.93 L 114.38 199.22 C 113.56 199.47 113.09 200.34 113.35 201.16 C 113.60 201.99 114.47 202.45 115.29 202.20 L 116.22 201.92 C 117.05 201.67 117.51 200.79 117.26 199.97 C 117.01 199.14 116.14 198.68 115.31 198.93 Z M 114.41 199.21 L 113.48 199.47 C 112.65 199.71 112.17 200.57 112.41 201.40 C 112.64 202.23 113.51 202.71 114.34 202.47 L 115.27 202.21 C 116.10 201.97 116.58 201.11 116.34 200.28 C 116.10 199.45 115.24 198.97 114.41 199.21 Z M 113.49 199.47 L 112.86 199.64 C 112.03 199.87 111.55 200.73 111.78 201.56 C 112.01 202.39 112.87 202.88 113.70 202.65 L 114.33 202.48 C 115.16 202.25 115.64 201.39 115.41 200.56 C 115.18 199.73 114.32 199.24 113.49 199.47 Z"
      fill="black"
      fill-rule="nonzero" /><path d="M 78.33 179.39 L 79.33 179.73 C 80.22 180.04 81.19 179.56 81.50 178.67 C 81.81 177.78 81.33 176.81 80.44 176.51 L 79.44 176.16 C 78.55 175.86 77.58 176.33 77.27 177.22 C 76.96 178.11 77.44 179.08 78.33 179.39 Z M 79.32 179.78 L 80.31 180.12 C 81.23 180.43 82.23 179.95 82.54 179.03 C 82.86 178.11 82.37 177.12 81.45 176.80 L 80.45 176.46 C 79.54 176.15 78.54 176.63 78.23 177.55 C 77.91 178.47 78.40 179.46 79.32 179.78 Z M 80.30 180.17 L 81.28 180.50 C 82.22 180.83 83.25 180.33 83.57 179.38 C 83.89 178.44 83.39 177.42 82.45 177.09 L 81.47 176.76 C 80.53 176.43 79.50 176.94 79.18 177.88 C 78.85 178.82 79.36 179.84 80.30 180.17 Z M 81.27 180.55 L 82.23 180.88 C 83.20 181.21 84.25 180.70 84.58 179.73 C 84.92 178.77 84.40 177.71 83.43 177.38 L 82.47 177.05 C 81.50 176.72 80.45 177.23 80.12 178.20 C 79.79 179.16 80.30 180.22 81.27 180.55 Z M 82.22 180.93 L 83.16 181.25 C 84.15 181.59 85.23 181.06 85.57 180.07 C 85.91 179.08 85.39 178.00 84.39 177.66 L 83.45 177.34 C 82.46 177.00 81.38 177.52 81.04 178.51 C 80.70 179.51 81.23 180.59 82.22 180.93 Z M 83.15 181.30 L 84.06 181.61 C 85.08 181.96 86.18 181.42 86.53 180.40 C 86.88 179.39 86.34 178.28 85.33 177.93 L 84.41 177.61 C 83.39 177.27 82.29 177.81 81.94 178.82 C 81.59 179.84 82.13 180.95 83.15 181.30 Z M 84.04 181.66 L 84.92 181.96 C 85.97 182.32 87.10 181.76 87.46 180.72 C 87.82 179.68 87.26 178.55 86.22 178.19 L 85.34 177.88 C 84.30 177.53 83.17 178.08 82.81 179.12 C 82.45 180.16 83.00 181.30 84.04 181.66 Z M 84.91 182.00 L 85.81 182.31 C 86.87 182.67 88.03 182.11 88.39 181.05 C 88.76 179.98 88.20 178.82 87.13 178.46 L 86.24 178.15 C 85.17 177.78 84.02 178.35 83.65 179.41 C 83.28 180.47 83.85 181.63 84.91 182.00 Z M 85.80 182.32 L 86.78 182.66 C 87.85 183.03 89.02 182.46 89.39 181.39 C 89.76 180.32 89.19 179.15 88.12 178.78 L 87.14 178.44 C 86.07 178.07 84.90 178.64 84.53 179.71 C 84.16 180.78 84.73 181.95 85.80 182.32 Z M 86.78 182.66 L 87.71 182.99 C 88.78 183.36 89.96 182.79 90.33 181.71 C 90.70 180.64 90.13 179.47 89.05 179.10 L 88.12 178.77 C 87.04 178.40 85.87 178.97 85.50 180.05 C 85.13 181.12 85.70 182.29 86.78 182.66 Z M 87.71 182.99 L 88.63 183.30 C 89.70 183.67 90.88 183.10 91.25 182.03 C 91.62 180.95 91.04 179.78 89.97 179.41 L 89.05 179.09 C 87.97 178.72 86.80 179.30 86.43 180.37 C 86.06 181.45 86.64 182.62 87.71 182.99 Z M 88.63 183.31 L 89.55 183.62 C 90.62 183.99 91.80 183.41 92.17 182.34 C 92.54 181.26 91.96 180.08 90.88 179.71 L 89.96 179.40 C 88.88 179.03 87.71 179.61 87.34 180.69 C 86.97 181.77 87.55 182.94 88.63 183.31 Z M 89.55 183.63 L 90.49 183.94 C 91.57 184.31 92.74 183.73 93.11 182.65 C 93.48 181.57 92.90 180.39 91.81 180.03 L 90.88 179.71 C 89.79 179.34 88.62 179.92 88.25 181.01 C 87.89 182.09 88.47 183.26 89.55 183.63 Z M 90.49 183.95 L 91.46 184.27 C 92.55 184.64 93.72 184.05 94.08 182.97 C 94.45 181.88 93.86 180.71 92.78 180.35 L 91.81 180.02 C 90.72 179.66 89.55 180.24 89.19 181.33 C 88.82 182.41 89.41 183.59 90.49 183.95 Z M 91.47 184.28 L 92.30 184.56 C 93.39 184.92 94.56 184.33 94.92 183.24 C 95.28 182.15 94.69 180.98 93.61 180.62 L 92.77 180.34 C 91.69 179.98 90.51 180.57 90.15 181.66 C 89.79 182.75 90.38 183.92 91.47 184.28 Z M 92.31 184.56 L 93.18 184.85 C 94.27 185.20 95.44 184.61 95.80 183.52 C 96.16 182.43 95.56 181.26 94.47 180.90 L 93.60 180.61 C 92.51 180.26 91.34 180.85 90.98 181.94 C 90.63 183.03 91.22 184.20 92.31 184.56 Z M 93.19 184.85 L 94.10 185.14 C 95.19 185.50 96.36 184.90 96.71 183.81 C 97.07 182.71 96.47 181.54 95.38 181.19 L 94.47 180.90 C 93.37 180.54 92.20 181.14 91.85 182.23 C 91.50 183.33 92.10 184.50 93.19 184.85 Z M 94.11 185.15 L 95.05 185.45 C 96.15 185.80 97.32 185.19 97.67 184.10 C 98.01 183.00 97.41 181.83 96.31 181.49 L 95.37 181.19 C 94.27 180.84 93.10 181.44 92.76 182.54 C 92.41 183.63 93.01 184.80 94.11 185.15 Z M 95.06 185.45 L 96.05 185.76 C 97.14 186.10 98.31 185.49 98.65 184.39 C 98.99 183.30 98.38 182.13 97.29 181.79 L 96.30 181.48 C 95.21 181.14 94.04 181.75 93.70 182.85 C 93.36 183.95 93.97 185.11 95.06 185.45 Z M 96.06 185.77 L 97.07 186.08 C 98.17 186.41 99.34 185.79 99.67 184.69 C 100.01 183.59 99.39 182.43 98.29 182.09 L 97.27 181.78 C 96.17 181.45 95.01 182.07 94.67 183.17 C 94.34 184.27 94.96 185.43 96.06 185.77 Z M 97.08 186.08 L 98.13 186.39 C 99.23 186.72 100.39 186.10 100.72 184.99 C 101.05 183.89 100.43 182.73 99.32 182.40 L 98.28 182.09 C 97.17 181.76 96.01 182.38 95.68 183.49 C 95.35 184.59 95.98 185.75 97.08 186.08 Z M 98.14 186.40 L 99.15 186.69 C 100.26 187.02 101.42 186.38 101.74 185.27 C 102.06 184.17 101.43 183.01 100.32 182.69 L 99.31 182.39 C 98.20 182.07 97.05 182.71 96.72 183.81 C 96.40 184.92 97.04 186.08 98.14 186.40 Z M 99.17 186.70 L 100.05 186.95 C 101.16 187.27 102.32 186.62 102.63 185.51 C 102.95 184.41 102.31 183.25 101.20 182.94 L 100.31 182.68 C 99.20 182.37 98.05 183.01 97.73 184.12 C 97.41 185.23 98.06 186.38 99.17 186.70 Z M 100.06 186.95 L 100.97 187.21 C 102.08 187.52 103.24 186.87 103.55 185.76 C 103.86 184.65 103.21 183.50 102.10 183.19 L 101.19 182.93 C 100.08 182.62 98.93 183.27 98.62 184.38 C 98.31 185.49 98.95 186.64 100.06 186.95 Z M 100.98 187.21 L 101.91 187.47 C 103.02 187.77 104.17 187.12 104.48 186.01 C 104.78 184.89 104.13 183.74 103.02 183.44 L 102.09 183.18 C 100.98 182.88 99.83 183.53 99.52 184.64 C 99.22 185.76 99.87 186.91 100.98 187.21 Z M 101.92 187.47 L 102.86 187.73 C 103.98 188.03 105.12 187.37 105.43 186.25 C 105.73 185.14 105.07 183.99 103.96 183.69 L 103.01 183.44 C 101.89 183.13 100.75 183.79 100.45 184.91 C 100.14 186.02 100.80 187.17 101.92 187.47 Z M 102.87 187.73 L 103.83 187.99 C 104.95 188.28 106.09 187.62 106.39 186.51 C 106.69 185.39 106.03 184.25 104.92 183.95 L 103.95 183.69 C 102.83 183.39 101.69 184.05 101.39 185.17 C 101.09 186.28 101.75 187.43 102.87 187.73 Z M 103.84 187.99 L 104.82 188.25 C 105.94 188.55 107.08 187.88 107.38 186.76 C 107.68 185.65 107.01 184.50 105.90 184.21 L 104.91 183.95 C 103.79 183.65 102.65 184.32 102.35 185.43 C 102.06 186.55 102.72 187.69 103.84 187.99 Z M 104.83 188.25 L 105.83 188.52 C 106.95 188.81 108.09 188.14 108.39 187.03 C 108.68 185.91 108.01 184.76 106.90 184.47 L 105.89 184.21 C 104.78 183.91 103.63 184.58 103.34 185.70 C 103.04 186.81 103.71 187.96 104.83 188.25 Z M 105.83 188.52 L 106.86 188.78 C 107.97 189.08 109.12 188.41 109.41 187.29 C 109.70 186.17 109.03 185.03 107.92 184.74 L 106.89 184.47 C 105.78 184.18 104.63 184.84 104.34 185.96 C 104.05 187.08 104.72 188.22 105.83 188.52 Z M 106.86 188.79 L 107.90 189.06 C 109.02 189.35 110.16 188.68 110.45 187.56 C 110.75 186.44 110.08 185.30 108.96 185.01 L 107.92 184.74 C 106.80 184.44 105.65 185.11 105.36 186.23 C 105.07 187.35 105.74 188.49 106.86 188.79 Z M 107.90 189.06 L 108.85 189.31 C 109.97 189.60 111.12 188.93 111.41 187.81 C 111.70 186.69 111.03 185.55 109.91 185.26 L 108.96 185.01 C 107.84 184.72 106.70 185.39 106.40 186.51 C 106.11 187.62 106.78 188.77 107.90 189.06 Z M 108.85 189.31 L 109.78 189.55 C 110.90 189.84 112.04 189.17 112.33 188.05 C 112.63 186.93 111.95 185.79 110.84 185.50 L 109.91 185.26 C 108.79 184.96 107.65 185.64 107.36 186.75 C 107.06 187.87 107.74 189.02 108.85 189.31 Z M 109.78 189.55 L 110.72 189.79 C 111.84 190.08 112.98 189.41 113.27 188.29 C 113.56 187.18 112.89 186.03 111.77 185.74 L 110.84 185.50 C 109.72 185.21 108.57 185.88 108.28 187.00 C 107.99 188.11 108.66 189.26 109.78 189.55 Z M 110.72 189.79 L 111.67 190.04 C 112.79 190.33 113.93 189.66 114.22 188.54 C 114.51 187.42 113.84 186.28 112.72 185.99 L 111.77 185.74 C 110.65 185.45 109.51 186.12 109.22 187.24 C 108.93 188.36 109.60 189.50 110.72 189.79 Z M 111.67 190.04 L 112.63 190.29 C 113.75 190.58 114.89 189.91 115.18 188.79 C 115.47 187.67 114.80 186.53 113.68 186.24 L 112.72 185.99 C 111.60 185.70 110.46 186.37 110.17 187.49 C 109.88 188.61 110.55 189.75 111.67 190.04 Z M 112.63 190.29 L 113.60 190.54 C 114.72 190.83 115.86 190.16 116.15 189.04 C 116.44 187.92 115.77 186.78 114.65 186.49 L 113.68 186.24 C 112.56 185.95 111.42 186.62 111.13 187.74 C 110.84 188.86 111.51 190.00 112.63 190.29 Z M 113.60 190.54 L 114.58 190.80 C 115.70 191.08 116.84 190.41 117.13 189.29 C 117.42 188.17 116.75 187.03 115.63 186.74 L 114.65 186.49 C 113.53 186.20 112.39 186.87 112.10 187.99 C 111.81 189.11 112.48 190.25 113.60 190.54 Z M 114.58 190.80 L 115.57 191.05 C 116.69 191.34 117.83 190.67 118.12 189.55 C 118.41 188.42 117.73 187.28 116.61 186.99 L 115.63 186.74 C 114.51 186.45 113.36 187.12 113.08 188.24 C 112.79 189.36 113.46 190.51 114.58 190.80 Z M 115.57 191.05 L 116.56 191.31 C 117.68 191.59 118.82 190.92 119.11 189.80 C 119.40 188.68 118.73 187.54 117.61 187.25 L 116.61 186.99 C 115.49 186.71 114.35 187.38 114.06 188.50 C 113.77 189.62 114.45 190.76 115.57 191.05 Z M 116.56 191.31 L 117.56 191.56 C 118.68 191.85 119.82 191.17 120.11 190.05 C 120.40 188.93 119.72 187.79 118.60 187.50 L 117.60 187.25 C 116.48 186.96 115.34 187.64 115.05 188.76 C 114.77 189.88 115.44 191.02 116.56 191.31 Z M 117.56 191.56 L 118.57 191.82 C 119.69 192.11 120.83 191.43 121.12 190.31 C 121.40 189.19 120.73 188.05 119.61 187.76 L 118.60 187.50 C 117.48 187.22 116.34 187.89 116.05 189.01 C 115.77 190.14 116.44 191.28 117.56 191.56 Z M 118.57 191.82 L 119.55 192.07 C 120.67 192.36 121.81 191.68 122.09 190.56 C 122.38 189.44 121.70 188.29 120.58 188.01 L 119.60 187.76 C 118.48 187.47 117.34 188.15 117.06 189.27 C 116.77 190.39 117.45 191.53 118.57 191.82 Z M 119.55 192.07 L 120.50 192.31 C 121.62 192.60 122.76 191.92 123.05 190.80 C 123.33 189.68 122.65 188.54 121.53 188.25 L 120.58 188.01 C 119.46 187.72 118.32 188.40 118.03 189.52 C 117.75 190.64 118.43 191.78 119.55 192.07 Z M 120.50 192.31 L 121.46 192.55 C 122.58 192.84 123.72 192.16 124.01 191.04 C 124.29 189.92 123.61 188.78 122.49 188.49 L 121.53 188.25 C 120.41 187.97 119.27 188.65 118.99 189.77 C 118.70 190.89 119.38 192.03 120.50 192.31 Z M 121.46 192.55 L 122.42 192.80 C 123.55 193.08 124.68 192.40 124.97 191.28 C 125.25 190.16 124.57 189.02 123.45 188.74 L 122.49 188.49 C 121.37 188.21 120.23 188.89 119.95 190.01 C 119.66 191.13 120.34 192.27 121.46 192.55 Z M 122.43 192.80 L 123.39 193.04 C 124.51 193.32 125.65 192.64 125.93 191.52 C 126.21 190.40 125.53 189.26 124.41 188.98 L 123.45 188.74 C 122.33 188.45 121.19 189.14 120.91 190.26 C 120.62 191.38 121.30 192.51 122.43 192.80 Z M 123.39 193.04 L 124.36 193.28 C 125.48 193.56 126.62 192.88 126.90 191.76 C 127.18 190.64 126.50 189.50 125.38 189.22 L 124.41 188.98 C 123.29 188.70 122.15 189.38 121.87 190.50 C 121.59 191.62 122.27 192.76 123.39 193.04 Z M 124.36 193.28 L 125.33 193.52 C 126.45 193.80 127.59 193.12 127.87 192.00 C 128.15 190.88 127.47 189.74 126.35 189.46 L 125.38 189.22 C 124.25 188.94 123.12 189.62 122.84 190.74 C 122.56 191.87 123.24 193.00 124.36 193.28 Z M 125.33 193.52 L 126.31 193.77 C 127.43 194.05 128.56 193.36 128.84 192.24 C 129.12 191.12 128.44 189.99 127.32 189.71 L 126.34 189.46 C 125.22 189.19 124.09 189.87 123.81 190.99 C 123.53 192.11 124.21 193.25 125.33 193.52 Z M 126.31 193.77 L 127.29 194.01 C 128.41 194.29 129.54 193.60 129.82 192.48 C 130.10 191.36 129.41 190.23 128.29 189.95 L 127.32 189.71 C 126.20 189.43 125.06 190.11 124.78 191.23 C 124.50 192.35 125.19 193.49 126.31 193.77 Z M 127.29 194.01 L 128.27 194.25 C 129.39 194.53 130.52 193.85 130.80 192.72 C 131.08 191.60 130.39 190.47 129.27 190.19 L 128.29 189.95 C 127.17 189.67 126.04 190.36 125.76 191.48 C 125.48 192.60 126.17 193.73 127.29 194.01 Z M 128.27 194.25 L 129.25 194.49 C 130.37 194.77 131.51 194.09 131.78 192.97 C 132.06 191.84 131.37 190.71 130.25 190.43 L 129.27 190.19 C 128.15 189.92 127.02 190.60 126.74 191.72 C 126.46 192.84 127.15 193.98 128.27 194.25 Z M 129.25 194.49 L 130.24 194.74 C 131.36 195.01 132.49 194.33 132.77 193.21 C 133.04 192.09 132.36 190.95 131.24 190.68 L 130.25 190.43 C 129.13 190.16 128.00 190.84 127.72 191.97 C 127.45 193.09 128.13 194.22 129.25 194.49 Z M 130.24 194.74 L 131.24 194.98 C 132.36 195.25 133.49 194.57 133.76 193.45 C 134.04 192.33 133.35 191.20 132.23 190.92 L 131.24 190.68 C 130.12 190.40 128.98 191.09 128.71 192.21 C 128.44 193.33 129.12 194.46 130.24 194.74 Z M 131.24 194.98 L 132.23 195.22 C 133.36 195.50 134.49 194.81 134.76 193.69 C 135.03 192.57 134.35 191.44 133.23 191.17 L 132.23 190.92 C 131.11 190.65 129.98 191.33 129.70 192.46 C 129.43 193.58 130.12 194.71 131.24 194.98 Z M 132.24 195.22 L 133.23 195.47 C 134.35 195.74 135.48 195.05 135.76 193.93 C 136.03 192.81 135.34 191.68 134.22 191.41 L 133.22 191.17 C 132.10 190.89 130.97 191.58 130.70 192.70 C 130.43 193.82 131.12 194.95 132.24 195.22 Z M 133.24 195.46 L 134.23 195.71 C 135.35 195.98 136.48 195.29 136.75 194.17 C 137.02 193.05 136.33 191.92 135.21 191.65 L 134.22 191.41 C 133.10 191.14 131.97 191.83 131.70 192.95 C 131.43 194.07 132.12 195.19 133.24 195.46 Z M 134.23 195.71 L 135.23 195.94 C 136.35 196.21 137.47 195.53 137.74 194.41 C 138.01 193.29 137.32 192.16 136.20 191.89 L 135.21 191.65 C 134.09 191.38 132.97 192.07 132.70 193.19 C 132.43 194.31 133.12 195.44 134.23 195.71 Z M 135.23 195.94 L 136.22 196.18 C 137.34 196.45 138.46 195.76 138.73 194.64 C 139.00 193.52 138.31 192.39 137.19 192.13 L 136.20 191.89 C 135.08 191.62 133.96 192.31 133.69 193.43 C 133.42 194.55 134.11 195.68 135.23 195.94 Z M 136.22 196.18 L 137.20 196.41 C 138.32 196.68 139.44 195.99 139.71 194.87 C 139.98 193.75 139.29 192.63 138.17 192.36 L 137.19 192.13 C 136.07 191.86 134.94 192.55 134.68 193.67 C 134.41 194.79 135.10 195.91 136.22 196.18 Z M 137.20 196.41 L 138.18 196.64 C 139.29 196.91 140.42 196.22 140.68 195.10 C 140.95 193.98 140.25 192.85 139.13 192.59 L 138.16 192.36 C 137.04 192.10 135.92 192.79 135.66 193.91 C 135.39 195.03 136.08 196.15 137.20 196.41 Z M 138.18 196.64 L 139.14 196.87 C 140.26 197.13 141.38 196.44 141.64 195.32 C 141.90 194.20 141.21 193.08 140.09 192.82 L 139.13 192.59 C 138.01 192.33 136.89 193.02 136.63 194.14 C 136.37 195.26 137.06 196.38 138.18 196.64 Z M 139.14 196.87 L 140.09 197.09 C 141.21 197.35 142.33 196.65 142.59 195.53 C 142.85 194.42 142.15 193.30 141.04 193.04 L 140.09 192.82 C 138.97 192.56 137.85 193.25 137.59 194.37 C 137.33 195.49 138.02 196.61 139.14 196.87 Z M 140.10 197.09 L 141.03 197.30 C 142.15 197.56 143.27 196.86 143.53 195.75 C 143.78 194.63 143.08 193.51 141.97 193.25 L 141.03 193.04 C 139.91 192.78 138.80 193.48 138.54 194.60 C 138.28 195.71 138.98 196.83 140.10 197.09 Z M 141.04 197.30 L 141.96 197.51 C 143.07 197.77 144.19 197.07 144.44 195.95 C 144.70 194.83 144.00 193.72 142.88 193.46 L 141.96 193.25 C 140.84 193.00 139.73 193.70 139.47 194.82 C 139.22 195.94 139.92 197.05 141.04 197.30 Z M 141.96 197.51 L 143.01 197.75 C 144.13 198.00 145.24 197.30 145.49 196.18 C 145.75 195.06 145.04 193.95 143.92 193.70 L 142.87 193.46 C 141.75 193.21 140.64 193.91 140.39 195.03 C 140.14 196.15 140.84 197.26 141.96 197.51 Z M 143.02 197.75 L 144.05 197.98 C 145.17 198.23 146.27 197.52 146.52 196.40 C 146.77 195.28 146.07 194.18 144.95 193.93 L 143.92 193.70 C 142.80 193.45 141.69 194.16 141.44 195.27 C 141.19 196.39 141.90 197.50 143.02 197.75 Z M 144.06 197.98 L 145.06 198.20 C 146.18 198.44 147.29 197.73 147.53 196.62 C 147.78 195.50 147.07 194.39 145.95 194.15 L 144.94 193.93 C 143.82 193.68 142.72 194.39 142.47 195.51 C 142.23 196.63 142.94 197.73 144.06 197.98 Z M 145.07 198.20 L 146.06 198.41 C 147.18 198.65 148.28 197.94 148.52 196.82 C 148.76 195.70 148.05 194.60 146.93 194.36 L 145.94 194.15 C 144.82 193.91 143.72 194.62 143.48 195.74 C 143.24 196.86 143.95 197.96 145.07 198.20 Z M 146.07 198.41 L 147.05 198.62 C 148.17 198.85 149.26 198.14 149.50 197.02 C 149.74 195.90 149.02 194.81 147.90 194.57 L 146.93 194.36 C 145.81 194.13 144.71 194.84 144.48 195.96 C 144.24 197.08 144.96 198.17 146.07 198.41 Z M 147.06 198.62 L 148.02 198.82 C 149.14 199.05 150.23 198.33 150.46 197.21 C 150.70 196.09 149.98 195.00 148.86 194.77 L 147.90 194.57 C 146.78 194.34 145.69 195.06 145.45 196.17 C 145.22 197.29 145.94 198.38 147.06 198.62 Z M 148.03 198.82 L 148.98 199.01 C 150.10 199.24 151.19 198.51 151.42 197.40 C 151.64 196.28 150.92 195.19 149.80 194.96 L 148.85 194.77 C 147.73 194.54 146.65 195.27 146.42 196.38 C 146.19 197.50 146.91 198.59 148.03 198.82 Z M 148.99 199.01 L 149.94 199.20 C 151.05 199.42 152.14 198.69 152.36 197.58 C 152.58 196.46 151.86 195.37 150.74 195.15 L 149.80 194.96 C 148.68 194.74 147.59 195.47 147.37 196.58 C 147.15 197.70 147.87 198.79 148.99 199.01 Z M 149.94 199.20 L 150.88 199.38 C 152.00 199.60 153.08 198.87 153.30 197.75 C 153.51 196.63 152.79 195.55 151.67 195.34 L 150.73 195.15 C 149.62 194.94 148.53 195.66 148.32 196.78 C 148.10 197.90 148.83 198.98 149.94 199.20 Z M 150.89 199.38 L 151.82 199.56 C 152.94 199.77 154.02 199.04 154.23 197.92 C 154.44 196.80 153.71 195.73 152.59 195.51 L 151.66 195.34 C 150.54 195.12 149.47 195.86 149.25 196.97 C 149.04 198.09 149.77 199.16 150.89 199.38 Z M 151.83 199.55 L 152.83 199.74 C 153.94 199.95 155.01 199.21 155.22 198.10 C 155.43 196.98 154.69 195.91 153.58 195.70 L 152.58 195.52 C 151.47 195.31 150.40 196.04 150.19 197.16 C 149.98 198.27 150.72 199.35 151.83 199.55 Z M 152.84 199.74 L 153.83 199.92 C 154.94 200.12 156.01 199.38 156.21 198.27 C 156.42 197.15 155.68 196.08 154.56 195.88 L 153.57 195.70 C 152.45 195.50 151.39 196.24 151.18 197.35 C 150.98 198.47 151.72 199.54 152.84 199.74 Z M 153.84 199.92 L 154.83 200.09 C 155.95 200.29 157.01 199.54 157.21 198.43 C 157.40 197.32 156.66 196.26 155.54 196.06 L 154.55 195.88 C 153.44 195.69 152.38 196.43 152.18 197.54 C 151.98 198.66 152.73 199.72 153.84 199.92 Z M 154.84 200.09 L 155.83 200.26 C 156.95 200.45 158.00 199.70 158.19 198.59 C 158.38 197.48 157.64 196.42 156.52 196.23 L 155.53 196.06 C 154.42 195.87 153.36 196.62 153.17 197.73 C 152.98 198.84 153.73 199.90 154.84 200.09 Z M 155.85 200.26 L 156.83 200.42 C 157.95 200.60 159.00 199.85 159.18 198.74 C 159.36 197.63 158.61 196.58 157.50 196.39 L 156.51 196.23 C 155.40 196.05 154.35 196.80 154.17 197.91 C 153.98 199.02 154.73 200.07 155.85 200.26 Z M 156.85 200.42 L 157.83 200.58 C 158.94 200.75 159.99 200.00 160.16 198.88 C 160.34 197.77 159.58 196.73 158.47 196.55 L 157.49 196.40 C 156.38 196.22 155.33 196.98 155.16 198.09 C 154.98 199.20 155.74 200.24 156.85 200.42 Z M 157.84 200.57 L 158.83 200.72 C 159.94 200.89 160.97 200.13 161.14 199.02 C 161.31 197.91 160.55 196.87 159.44 196.71 L 158.46 196.55 C 157.35 196.39 156.31 197.15 156.14 198.26 C 155.97 199.37 156.73 200.40 157.84 200.57 Z M 158.84 200.72 L 159.82 200.87 C 160.93 201.03 161.96 200.26 162.12 199.15 C 162.28 198.04 161.52 197.01 160.41 196.85 L 159.43 196.71 C 158.32 196.54 157.29 197.31 157.13 198.42 C 156.96 199.53 157.73 200.56 158.84 200.72 Z M 159.83 200.86 L 160.81 201.00 C 161.92 201.16 162.94 200.38 163.10 199.27 C 163.25 198.17 162.48 197.14 161.37 196.99 L 160.39 196.85 C 159.29 196.70 158.26 197.47 158.11 198.58 C 157.95 199.69 158.73 200.71 159.83 200.86 Z M 160.83 201.00 L 161.81 201.13 C 162.92 201.28 163.94 200.50 164.08 199.39 C 164.23 198.28 163.45 197.27 162.34 197.12 L 161.36 196.99 C 160.25 196.84 159.23 197.62 159.09 198.73 C 158.94 199.84 159.72 200.85 160.83 201.00 Z M 161.83 201.13 L 162.82 201.25 C 163.93 201.39 164.93 200.60 165.07 199.50 C 165.21 198.39 164.43 197.38 163.32 197.25 L 162.33 197.12 C 161.22 196.98 160.21 197.77 160.08 198.87 C 159.94 199.98 160.72 200.99 161.83 201.13 Z M 162.83 201.25 L 163.82 201.36 C 164.93 201.49 165.93 200.70 166.06 199.60 C 166.19 198.50 165.40 197.50 164.30 197.37 L 163.31 197.25 C 162.20 197.12 161.20 197.91 161.07 199.01 C 160.94 200.12 161.73 201.12 162.83 201.25 Z M 163.84 201.36 L 164.83 201.47 C 165.93 201.59 166.92 200.80 167.05 199.70 C 167.17 198.60 166.38 197.60 165.27 197.48 L 164.28 197.37 C 163.18 197.25 162.19 198.04 162.07 199.14 C 161.94 200.24 162.74 201.24 163.84 201.36 Z M 164.84 201.47 L 165.83 201.57 C 166.93 201.69 167.92 200.89 168.03 199.79 C 168.15 198.69 167.35 197.71 166.25 197.59 L 165.26 197.49 C 164.16 197.37 163.18 198.17 163.06 199.27 C 162.94 200.36 163.74 201.35 164.84 201.47 Z M 165.84 201.57 L 166.83 201.67 C 167.93 201.78 168.91 200.98 169.02 199.88 C 169.13 198.78 168.33 197.80 167.23 197.69 L 166.24 197.59 C 165.14 197.48 164.17 198.28 164.06 199.38 C 163.95 200.48 164.75 201.46 165.84 201.57 Z M 166.85 201.66 L 167.84 201.76 C 168.93 201.86 169.91 201.06 170.01 199.96 C 170.12 198.87 169.31 197.90 168.22 197.79 L 167.22 197.70 C 166.13 197.59 165.16 198.40 165.05 199.49 C 164.95 200.59 165.75 201.56 166.85 201.66 Z M 167.85 201.75 L 168.85 201.84 C 169.94 201.94 170.90 201.14 171.00 200.05 C 171.10 198.95 170.30 197.99 169.21 197.89 L 168.21 197.80 C 167.12 197.70 166.15 198.50 166.05 199.60 C 165.95 200.69 166.76 201.65 167.85 201.75 Z M 168.85 201.84 L 169.85 201.93 C 170.95 202.02 171.91 201.22 172.00 200.13 C 172.10 199.04 171.29 198.07 170.20 197.98 L 169.20 197.89 C 168.11 197.80 167.15 198.60 167.05 199.69 C 166.96 200.78 167.76 201.74 168.85 201.84 Z M 169.86 201.92 L 170.86 202.01 C 171.95 202.10 172.90 201.29 172.99 200.20 C 173.08 199.11 172.28 198.16 171.19 198.07 L 170.19 197.98 C 169.10 197.89 168.15 198.70 168.06 199.79 C 167.97 200.88 168.77 201.83 169.86 201.92 Z M 170.87 202.00 L 171.85 202.08 C 172.94 202.17 173.89 201.36 173.97 200.28 C 174.06 199.19 173.25 198.24 172.17 198.15 L 171.18 198.07 C 170.10 197.99 169.15 198.79 169.06 199.88 C 168.97 200.96 169.78 201.91 170.87 202.00 Z M 171.86 202.07 L 172.85 202.15 C 173.93 202.24 174.87 201.43 174.96 200.35 C 175.04 199.26 174.23 198.32 173.15 198.24 L 172.16 198.16 C 171.08 198.07 170.14 198.88 170.05 199.96 C 169.97 201.05 170.78 201.99 171.86 202.07 Z M 172.86 202.15 L 173.85 202.22 C 174.93 202.30 175.87 201.49 175.95 200.41 C 176.03 199.33 175.22 198.39 174.14 198.32 L 173.15 198.24 C 172.07 198.16 171.13 198.97 171.05 200.05 C 170.97 201.13 171.78 202.07 172.86 202.15 Z M 173.86 202.21 L 174.85 202.28 C 175.93 202.36 176.86 201.55 176.94 200.47 C 177.01 199.40 176.20 198.47 175.13 198.39 L 174.13 198.32 C 173.06 198.25 172.12 199.05 172.05 200.13 C 171.97 201.20 172.78 202.14 173.86 202.21 Z M 174.86 202.28 L 175.86 202.34 C 176.93 202.42 177.86 201.61 177.93 200.53 C 178.00 199.46 177.19 198.54 176.12 198.46 L 175.12 198.40 C 174.05 198.33 173.12 199.14 173.05 200.21 C 172.98 201.28 173.79 202.21 174.86 202.28 Z M 175.87 202.34 L 176.87 202.40 C 177.94 202.47 178.86 201.66 178.93 200.59 C 179.00 199.52 178.18 198.60 177.12 198.53 L 176.11 198.47 C 175.05 198.40 174.12 199.21 174.06 200.28 C 173.99 201.35 174.80 202.27 175.87 202.34 Z M 176.88 202.40 L 177.89 202.45 C 178.95 202.52 179.86 201.70 179.93 200.64 C 179.99 199.57 179.18 198.66 178.11 198.60 L 177.11 198.54 C 176.04 198.48 175.13 199.29 175.07 200.35 C 175.00 201.42 175.82 202.33 176.88 202.40 Z M 177.89 202.45 L 178.90 202.50 C 179.96 202.56 180.87 201.75 180.93 200.68 C 180.98 199.62 180.17 198.71 179.11 198.66 L 178.10 198.60 C 177.04 198.55 176.13 199.36 176.08 200.42 C 176.02 201.48 176.83 202.39 177.89 202.45 Z M 178.91 202.50 L 179.91 202.55 C 180.97 202.60 181.87 201.78 181.93 200.72 C 181.98 199.67 181.16 198.76 180.10 198.71 L 179.10 198.66 C 178.04 198.61 177.14 199.43 177.09 200.49 C 177.03 201.54 177.85 202.44 178.91 202.50 Z M 179.92 202.54 L 180.91 202.58 C 181.96 202.63 182.86 201.81 182.91 200.76 C 182.95 199.70 182.14 198.81 181.08 198.76 L 180.09 198.72 C 179.04 198.67 178.14 199.49 178.10 200.54 C 178.05 201.60 178.87 202.49 179.92 202.54 Z M 180.92 202.58 L 181.90 202.62 C 182.96 202.66 183.84 201.84 183.88 200.79 C 183.93 199.74 183.11 198.85 182.06 198.81 L 181.07 198.77 C 180.02 198.73 179.13 199.55 179.09 200.60 C 179.05 201.65 179.87 202.54 180.92 202.58 Z M 181.91 202.61 L 182.90 202.64 C 183.95 202.68 184.83 201.86 184.86 200.81 C 184.90 199.77 184.08 198.89 183.03 198.85 L 182.05 198.82 C 181.00 198.78 180.12 199.60 180.08 200.65 C 180.05 201.69 180.86 202.57 181.91 202.61 Z M 182.91 202.64 L 183.90 202.67 C 184.94 202.70 185.81 201.88 185.85 200.84 C 185.88 199.79 185.06 198.92 184.02 198.89 L 183.03 198.86 C 181.98 198.82 181.11 199.64 181.08 200.69 C 181.04 201.73 181.86 202.61 182.91 202.64 Z M 183.91 202.66 L 184.90 202.69 C 185.94 202.72 186.81 201.90 186.83 200.86 C 186.86 199.82 186.04 198.95 185.00 198.92 L 184.01 198.90 C 182.97 198.87 182.10 199.69 182.07 200.73 C 182.05 201.77 182.87 202.63 183.91 202.66 Z M 184.91 202.68 L 185.91 202.71 C 186.94 202.73 187.80 201.91 187.83 200.87 C 187.85 199.84 187.03 198.98 185.99 198.95 L 185.00 198.93 C 183.96 198.91 183.10 199.73 183.08 200.76 C 183.05 201.80 183.87 202.66 184.91 202.68 Z M 185.91 202.70 L 186.92 202.72 C 187.95 202.74 188.80 201.92 188.82 200.89 C 188.84 199.86 188.02 199.00 186.99 198.98 L 185.99 198.96 C 184.96 198.94 184.10 199.76 184.08 200.79 C 184.06 201.82 184.88 202.68 185.91 202.70 Z M 186.92 202.71 L 187.93 202.73 C 188.96 202.75 189.81 201.93 189.83 200.90 C 189.85 199.87 189.03 199.02 188.00 199.01 L 186.99 198.99 C 185.96 198.97 185.11 199.79 185.09 200.82 C 185.08 201.85 185.89 202.69 186.92 202.71 Z M 187.94 202.72 L 188.96 202.74 C 189.98 202.75 190.83 201.93 190.84 200.91 C 190.85 199.88 190.04 199.04 189.01 199.03 L 187.99 199.01 C 186.97 199.00 186.13 199.82 186.11 200.84 C 186.10 201.86 186.92 202.71 187.94 202.72 Z M 188.96 202.73 L 189.99 202.74 C 191.01 202.75 191.85 201.94 191.86 200.92 C 191.87 199.89 191.05 199.06 190.03 199.05 L 189.01 199.03 C 187.99 199.02 187.15 199.84 187.14 200.86 C 187.13 201.88 187.94 202.72 188.96 202.73 Z M 189.99 202.73 L 191.02 202.74 C 192.03 202.75 192.87 201.94 192.88 200.92 C 192.89 199.90 192.07 199.07 191.05 199.06 L 190.03 199.05 C 189.01 199.04 188.18 199.86 188.17 200.88 C 188.16 201.89 188.98 202.72 189.99 202.73 Z M 191.02 202.74 L 192.05 202.74 C 193.06 202.75 193.89 201.94 193.90 200.92 C 193.91 199.91 193.09 199.08 192.08 199.08 L 191.05 199.07 C 190.04 199.06 189.21 199.88 189.20 200.89 C 189.19 201.90 190.01 202.73 191.02 202.74 Z M 192.05 202.74 L 193.08 202.74 C 194.09 202.75 194.92 201.94 194.92 200.93 C 194.93 199.92 194.11 199.09 193.10 199.09 L 192.07 199.08 C 191.07 199.08 190.24 199.89 190.24 200.90 C 190.23 201.91 191.04 202.73 192.05 202.74 Z M 193.09 202.74 L 194.11 202.74 C 195.12 202.75 195.93 201.93 195.94 200.93 C 195.94 199.92 195.13 199.10 194.13 199.10 L 193.10 199.10 C 192.10 199.09 191.28 199.90 191.27 200.91 C 191.27 201.91 192.08 202.73 193.09 202.74 Z M 194.11 202.74 L 195.13 202.74 C 196.13 202.74 196.95 201.93 196.95 200.93 C 196.95 199.93 196.14 199.11 195.14 199.11 L 194.12 199.11 C 193.12 199.10 192.31 199.91 192.30 200.92 C 192.30 201.92 193.11 202.73 194.11 202.74 Z M 195.13 202.73 L 196.14 202.73 C 197.13 202.74 197.95 201.93 197.95 200.93 C 197.95 199.93 197.14 199.12 196.14 199.12 L 195.14 199.12 C 194.14 199.11 193.33 199.92 193.33 200.92 C 193.32 201.92 194.13 202.73 195.13 202.73 Z M 196.14 202.73 L 197.13 202.73 C 198.12 202.73 198.93 201.92 198.93 200.93 C 198.93 199.93 198.12 199.13 197.13 199.12 L 196.14 199.12 C 195.15 199.12 194.34 199.93 194.34 200.92 C 194.34 201.92 195.14 202.73 196.14 202.73 Z M 197.13 202.72 L 198.09 202.72 C 199.09 202.72 199.89 201.92 199.89 200.93 C 199.89 199.94 199.09 199.13 198.10 199.13 L 197.13 199.13 C 196.14 199.13 195.33 199.93 195.33 200.93 C 195.33 201.92 196.14 202.72 197.13 202.72 Z M 198.10 202.72 L 199.04 202.72 C 200.03 202.72 200.83 201.92 200.83 200.93 C 200.83 199.94 200.03 199.14 199.04 199.14 L 198.10 199.14 C 197.11 199.14 196.31 199.94 196.31 200.93 C 196.31 201.91 197.11 202.72 198.10 202.72 Z M 199.04 202.71 L 200.07 202.71 C 201.06 202.71 201.86 201.91 201.86 200.93 C 201.86 199.94 201.06 199.14 200.07 199.14 L 199.04 199.14 C 198.05 199.14 197.26 199.94 197.26 200.93 C 197.26 201.91 198.05 202.71 199.04 202.71 Z M 200.07 202.71 L 201.16 202.71 C 202.15 202.71 202.94 201.91 202.94 200.93 C 202.94 199.94 202.14 199.15 201.16 199.15 L 200.07 199.15 C 199.09 199.15 198.29 199.94 198.29 200.93 C 198.29 201.91 199.09 202.71 200.07 202.71 Z M 201.16 202.70 L 202.21 202.70 C 203.20 202.70 203.99 201.91 203.99 200.92 C 203.99 199.94 203.19 199.15 202.21 199.15 L 201.16 199.15 C 200.18 199.15 199.38 199.95 199.38 200.93 C 199.39 201.91 200.18 202.71 201.16 202.70 Z M 202.22 202.70 L 203.23 202.70 C 204.21 202.70 205.01 201.90 205.00 200.92 C 205.00 199.94 204.20 199.15 203.22 199.15 L 202.21 199.15 C 201.23 199.15 200.43 199.95 200.44 200.93 C 200.44 201.91 201.24 202.70 202.22 202.70 Z M 203.23 202.70 L 204.22 202.69 C 205.20 202.69 205.99 201.89 205.99 200.91 C 205.98 199.93 205.19 199.14 204.21 199.15 L 203.22 199.15 C 202.24 199.15 201.45 199.95 201.45 200.93 C 201.46 201.91 202.25 202.70 203.23 202.70 Z M 204.22 202.69 L 205.18 202.69 C 206.16 202.68 206.95 201.88 206.94 200.90 C 206.94 199.93 206.14 199.14 205.16 199.14 L 204.20 199.15 C 203.22 199.15 202.44 199.95 202.44 200.93 C 202.45 201.91 203.25 202.70 204.22 202.69 Z M 205.19 202.68 L 206.13 202.67 C 207.10 202.67 207.89 201.87 207.88 200.89 C 207.87 199.91 207.07 199.13 206.09 199.14 L 205.16 199.15 C 204.18 199.15 203.39 199.95 203.40 200.93 C 203.41 201.91 204.21 202.69 205.19 202.68 Z M 206.13 202.67 L 207.05 202.66 C 208.03 202.65 208.81 201.85 208.80 200.87 C 208.79 199.90 207.99 199.12 207.01 199.13 L 206.09 199.14 C 205.11 199.15 204.33 199.95 204.34 200.93 C 204.36 201.90 205.16 202.68 206.13 202.67 Z M 207.06 202.66 L 208.07 202.64 C 209.04 202.62 209.82 201.82 209.80 200.85 C 209.79 199.87 208.98 199.10 208.01 199.11 L 207.00 199.13 C 206.03 199.15 205.25 199.95 205.27 200.92 C 205.28 201.90 206.09 202.67 207.06 202.66 Z M 208.08 202.63 L 209.12 202.61 C 210.09 202.59 210.86 201.78 210.84 200.81 C 210.81 199.84 210.01 199.07 209.04 199.10 L 208.00 199.12 C 207.03 199.14 206.26 199.95 206.28 200.92 C 206.31 201.89 207.11 202.66 208.08 202.63 Z M 209.14 202.60 L 210.16 202.57 C 211.13 202.53 211.88 201.72 211.85 200.76 C 211.82 199.79 211.01 199.03 210.04 199.07 L 209.02 199.10 C 208.05 199.14 207.30 199.95 207.33 200.91 C 207.36 201.88 208.17 202.64 209.14 202.60 Z M 210.19 202.56 L 211.19 202.51 C 212.15 202.46 212.89 201.64 212.85 200.68 C 212.80 199.72 211.98 198.98 211.02 199.03 L 210.02 199.08 C 209.05 199.12 208.31 199.94 208.36 200.90 C 208.41 201.87 209.23 202.61 210.19 202.56 Z M 211.22 202.50 L 212.21 202.43 C 213.17 202.37 213.89 201.54 213.82 200.58 C 213.76 199.62 212.93 198.90 211.97 198.97 L 210.99 199.03 C 210.03 199.10 209.31 199.93 209.37 200.89 C 209.44 201.84 210.27 202.57 211.22 202.50 Z M 212.25 202.42 L 213.21 202.34 C 214.16 202.25 214.86 201.40 214.78 200.45 C 214.69 199.50 213.85 198.80 212.89 198.89 L 211.93 198.98 C 210.98 199.07 210.28 199.91 210.37 200.86 C 210.45 201.81 211.30 202.51 212.25 202.42 Z M 213.26 202.32 L 214.20 202.21 C 215.15 202.10 215.82 201.24 215.71 200.29 C 215.59 199.35 214.73 198.67 213.79 198.79 L 212.85 198.90 C 211.90 199.01 211.23 199.87 211.34 200.82 C 211.46 201.76 212.32 202.44 213.26 202.32 Z M 214.26 202.19 L 215.28 202.03 C 216.22 201.89 216.86 201.01 216.72 200.07 C 216.57 199.14 215.69 198.50 214.75 198.64 L 213.73 198.80 C 212.79 198.95 212.15 199.83 212.30 200.76 C 212.44 201.70 213.32 202.34 214.26 202.19 Z M 215.35 202.01 L 216.35 201.82 C 217.28 201.64 217.88 200.74 217.70 199.82 C 217.52 198.89 216.63 198.29 215.70 198.47 L 214.69 198.66 C 213.77 198.84 213.16 199.74 213.34 200.66 C 213.52 201.59 214.42 202.19 215.35 202.01 Z M 216.41 201.80 L 217.39 201.57 C 218.30 201.36 218.87 200.45 218.66 199.53 C 218.45 198.62 217.54 198.05 216.63 198.26 L 215.64 198.49 C 214.73 198.70 214.16 199.61 214.37 200.52 C 214.58 201.44 215.50 202.01 216.41 201.80 Z M 217.44 201.55 L 218.40 201.29 C 219.30 201.05 219.84 200.13 219.60 199.22 C 219.36 198.32 218.43 197.79 217.53 198.03 L 216.57 198.28 C 215.67 198.52 215.14 199.45 215.38 200.35 C 215.62 201.25 216.54 201.79 217.44 201.55 Z M 218.45 201.27 L 219.38 200.99 C 220.27 200.72 220.77 199.79 220.51 198.90 C 220.24 198.01 219.30 197.50 218.42 197.77 L 217.48 198.05 C 216.59 198.32 216.09 199.25 216.36 200.14 C 216.62 201.03 217.56 201.53 218.45 201.27 Z M 219.42 200.97 L 220.34 200.66 C 221.21 200.38 221.69 199.43 221.40 198.55 C 221.11 197.68 220.16 197.20 219.29 197.49 L 218.37 197.79 C 217.50 198.08 217.02 199.03 217.31 199.90 C 217.60 200.78 218.55 201.26 219.42 200.97 Z M 220.37 200.64 L 221.34 200.29 C 222.20 199.98 222.65 199.03 222.34 198.17 C 222.03 197.31 221.08 196.86 220.22 197.17 L 219.25 197.52 C 218.39 197.83 217.94 198.78 218.25 199.64 C 218.56 200.50 219.51 200.95 220.37 200.64 Z M 221.37 200.27 L 222.32 199.90 C 223.17 199.57 223.60 198.62 223.27 197.77 C 222.94 196.92 221.98 196.49 221.13 196.82 L 220.18 197.19 C 219.33 197.52 218.91 198.48 219.24 199.33 C 219.57 200.18 220.52 200.60 221.37 200.27 Z M 222.36 199.88 L 223.29 199.49 C 224.12 199.15 224.52 198.19 224.17 197.35 C 223.82 196.51 222.86 196.11 222.03 196.46 L 221.10 196.85 C 220.26 197.19 219.86 198.15 220.21 198.99 C 220.56 199.83 221.52 200.23 222.36 199.88 Z M 223.31 199.47 L 224.22 199.07 C 225.05 198.71 225.42 197.74 225.06 196.92 C 224.69 196.09 223.73 195.72 222.91 196.08 L 222.00 196.48 C 221.17 196.85 220.80 197.81 221.16 198.64 C 221.53 199.46 222.49 199.83 223.31 199.47 Z M 224.25 199.05 L 225.13 198.64 C 225.94 198.26 226.30 197.30 225.92 196.48 C 225.54 195.67 224.58 195.32 223.76 195.70 L 222.88 196.11 C 222.07 196.48 221.71 197.45 222.09 198.26 C 222.47 199.07 223.43 199.43 224.25 199.05 Z M 225.15 198.62 L 225.99 198.21 C 226.79 197.82 227.13 196.85 226.74 196.05 C 226.35 195.25 225.38 194.92 224.58 195.31 L 223.74 195.72 C 222.94 196.11 222.61 197.07 223.00 197.87 C 223.39 198.67 224.35 199.01 225.15 198.62 Z M 226.02 198.19 L 226.81 197.78 C 227.60 197.38 227.91 196.41 227.50 195.62 C 227.10 194.83 226.13 194.52 225.34 194.92 L 224.55 195.33 C 223.76 195.73 223.45 196.70 223.86 197.49 C 224.26 198.28 225.23 198.59 226.02 198.19 Z M 226.85 197.76 L 227.64 197.32 C 228.42 196.89 228.70 195.92 228.27 195.14 C 227.85 194.37 226.87 194.09 226.10 194.51 L 225.30 194.95 C 224.53 195.38 224.25 196.35 224.67 197.13 C 225.10 197.90 226.07 198.18 226.85 197.76 Z M 227.69 197.28 L 228.51 196.79 C 229.27 196.33 229.51 195.35 229.06 194.60 C 228.60 193.84 227.62 193.60 226.87 194.05 L 226.05 194.55 C 225.29 195.00 225.05 195.98 225.50 196.74 C 225.96 197.49 226.94 197.74 227.69 197.28 Z M 228.57 196.75 L 229.43 196.18 C 230.16 195.70 230.37 194.71 229.88 193.98 C 229.40 193.24 228.41 193.04 227.68 193.52 L 226.82 194.09 C 226.08 194.58 225.88 195.56 226.36 196.30 C 226.85 197.03 227.83 197.23 228.57 196.75 Z M 229.48 196.14 L 230.40 195.48 C 231.11 194.97 231.28 193.98 230.77 193.26 C 230.25 192.55 229.26 192.39 228.55 192.90 L 227.63 193.56 C 226.92 194.08 226.76 195.07 227.27 195.78 C 227.78 196.49 228.77 196.65 229.48 196.14 Z M 230.44 195.44 L 231.27 194.81 C 231.96 194.27 232.09 193.28 231.55 192.59 C 231.02 191.90 230.03 191.77 229.33 192.30 L 228.51 192.94 C 227.82 193.47 227.69 194.46 228.23 195.15 C 228.76 195.85 229.75 195.97 230.44 195.44 Z M 231.29 194.78 L 231.97 194.23 C 232.65 193.69 232.75 192.69 232.20 192.01 C 231.65 191.34 230.66 191.23 229.98 191.78 L 229.31 192.33 C 228.63 192.88 228.53 193.87 229.07 194.55 C 229.62 195.22 230.62 195.33 231.29 194.78 Z M 231.99 194.22 L 232.69 193.63 C 233.36 193.07 233.45 192.07 232.89 191.41 C 232.33 190.74 231.34 190.65 230.67 191.21 L 229.96 191.80 C 229.30 192.36 229.21 193.35 229.77 194.02 C 230.32 194.69 231.32 194.77 231.99 194.22 Z M 232.71 193.61 L 233.44 192.99 C 234.10 192.42 234.17 191.43 233.61 190.77 C 233.04 190.11 232.05 190.03 231.39 190.60 L 230.66 191.22 C 230.00 191.79 229.92 192.78 230.49 193.44 C 231.05 194.10 232.05 194.18 232.71 193.61 Z M 233.45 192.97 L 234.20 192.31 C 234.85 191.74 234.92 190.75 234.35 190.10 C 233.78 189.44 232.78 189.38 232.13 189.95 L 231.38 190.61 C 230.72 191.18 230.66 192.17 231.23 192.83 C 231.80 193.48 232.79 193.55 233.45 192.97 Z M 234.21 192.31 L 234.98 191.62 C 235.63 191.04 235.69 190.05 235.11 189.40 C 234.54 188.76 233.54 188.70 232.90 189.27 L 232.12 189.96 C 231.48 190.53 231.42 191.53 231.99 192.17 C 232.57 192.82 233.56 192.88 234.21 192.31 Z M 234.99 191.61 L 235.77 190.91 C 236.42 190.33 236.47 189.34 235.89 188.69 C 235.31 188.05 234.32 187.99 233.68 188.57 L 232.89 189.28 C 232.25 189.86 232.19 190.85 232.77 191.49 C 233.35 192.14 234.34 192.19 234.99 191.61 Z M 235.78 190.90 L 236.57 190.18 C 237.22 189.60 237.26 188.61 236.68 187.97 C 236.10 187.33 235.11 187.28 234.47 187.86 L 233.67 188.58 C 233.03 189.16 232.98 190.15 233.56 190.79 C 234.14 191.43 235.14 191.48 235.78 190.90 Z M 236.58 190.17 L 237.38 189.44 C 238.02 188.86 238.07 187.87 237.49 187.23 C 236.90 186.59 235.92 186.55 235.28 187.13 L 234.47 187.86 C 233.83 188.44 233.79 189.43 234.37 190.07 C 234.95 190.71 235.94 190.75 236.58 190.17 Z M 237.38 189.44 L 238.02 188.85 C 238.66 188.27 238.71 187.28 238.13 186.65 C 237.55 186.01 236.56 185.96 235.92 186.54 L 235.28 187.13 C 234.64 187.71 234.59 188.70 235.17 189.34 C 235.76 189.97 236.74 190.02 237.38 189.44 Z"
      fill="black"
      fill-rule="nonzero" /></svg>