<svg xmlns="http://www.w3.org/2000/svg" width="300" height="300" viewBox="0 0 300 300">
<path d="M 155.90 68.23 L 154.89 67.49 C 154.00 66.85 152.76 67.04 152.12 67.93 C 151.47 68.81 151.67 70.05 152.56 70.70 L 153.56 71.43 C 154.45 72.08 155.69 71.88 156.33 71.00 C 156.98 70.11 156.78 68.87 155.90 68.23 Z M 154.89 67.46 L 153.89 66.75 C 152.99 66.11 151.74 66.32 151.09 67.22 C 150.45 68.12 150.66 69.37 151.56 70.02 L 152.56 70.73 C 153.46 71.37 154.71 71.16 155.35 70.26 C 156.00 69.36 155.79 68.11 154.89 67.46 Z M 153.87 66.71 L 152.91 66.05 C 151.98 65.41 150.72 65.65 150.08 66.57 C 149.45 67.50 149.68 68.76 150.61 69.40 L 151.58 70.06 C 152.50 70.69 153.77 70.46 154.40 69.53 C 155.04 68.61 154.80 67.34 153.87 66.71 Z M 152.87 65.99 L 151.94 65.40 C 150.99 64.79 149.71 65.07 149.10 66.02 C 148.49 66.98 148.77 68.25 149.73 68.86 L 150.65 69.45 C 151.61 70.07 152.88 69.79 153.49 68.83 C 154.10 67.87 153.82 66.60 152.87 65.99 Z M 151.87 65.32 L 151.00 64.83 C 150.00 64.26 148.73 64.61 148.16 65.61 C 147.59 66.60 147.94 67.87 148.94 68.44 L 149.80 68.94 C 150.80 69.51 152.07 69.16 152.64 68.16 C 153.21 67.16 152.86 65.89 151.87 65.32 Z M 150.87 64.73 L 150.07 64.36 C 149.02 63.86 147.76 64.31 147.27 65.37 C 146.77 66.42 147.22 67.67 148.28 68.17 L 149.07 68.54 C 150.12 69.04 151.38 68.59 151.87 67.53 C 152.37 66.48 151.92 65.23 150.87 64.73 Z M 149.83 64.24 L 149.12 64.01 C 148.00 63.64 146.80 64.25 146.44 65.37 C 146.07 66.49 146.69 67.69 147.81 68.06 L 148.51 68.29 C 149.63 68.65 150.84 68.04 151.20 66.92 C 151.56 65.80 150.95 64.60 149.83 64.24 Z M 148.68 63.89 L 148.08 63.83 C 146.89 63.70 145.83 64.57 145.71 65.75 C 145.59 66.93 146.45 67.99 147.64 68.11 L 148.24 68.18 C 149.43 68.30 150.49 67.44 150.61 66.25 C 150.73 65.07 149.87 64.01 148.68 63.89 Z M 147.18 63.91 L 146.53 64.12 C 145.39 64.49 144.77 65.72 145.14 66.86 C 145.52 67.99 146.74 68.61 147.88 68.24 L 148.53 68.03 C 149.67 67.66 150.29 66.43 149.92 65.30 C 149.54 64.16 148.32 63.54 147.18 63.91 Z M 145.56 64.77 L 145.10 65.31 C 144.32 66.22 144.42 67.59 145.33 68.37 C 146.24 69.15 147.61 69.04 148.39 68.13 L 148.85 67.59 C 149.63 66.68 149.53 65.31 148.62 64.54 C 147.71 63.76 146.34 63.86 145.56 64.77 Z M 144.69 66.01 L 144.41 66.83 C 144.02 67.96 144.62 69.20 145.75 69.59 C 146.89 69.98 148.12 69.38 148.51 68.24 L 148.79 67.43 C 149.18 66.30 148.58 65.06 147.45 64.67 C 146.32 64.28 145.08 64.88 144.69 66.01 Z M 144.31 67.28 L 144.19 68.33 C 144.05 69.52 144.90 70.60 146.08 70.74 C 147.27 70.88 148.35 70.03 148.49 68.84 L 148.61 67.79 C 148.75 66.60 147.90 65.52 146.71 65.38 C 145.53 65.24 144.45 66.10 144.31 67.28 Z M 144.17 68.61 L 144.19 69.84 C 144.20 71.03 145.18 71.99 146.38 71.98 C 147.58 71.96 148.53 70.98 148.52 69.79 L 148.51 68.56 C 148.49 67.36 147.51 66.40 146.31 66.42 C 145.12 66.43 144.16 67.41 144.17 68.61 Z M 144.20 70.02 L 144.32 71.32 C 144.43 72.51 145.49 73.39 146.68 73.27 C 147.87 73.16 148.75 72.10 148.63 70.91 L 148.51 69.61 C 148.40 68.42 147.34 67.54 146.15 67.65 C 144.96 67.77 144.08 68.82 144.20 70.02 Z M 144.34 71.43 L 144.48 72.39 C 144.65 73.56 145.75 74.38 146.93 74.21 C 148.10 74.04 148.92 72.94 148.75 71.77 L 148.61 70.81 C 148.44 69.63 147.35 68.81 146.17 68.98 C 144.99 69.15 144.17 70.25 144.34 71.43 Z M 144.51 72.45 L 144.68 73.44 C 144.89 74.60 146.00 75.38 147.17 75.17 C 148.33 74.96 149.11 73.85 148.90 72.69 L 148.72 71.70 C 148.52 70.54 147.41 69.76 146.24 69.97 C 145.08 70.18 144.30 71.29 144.51 72.45 Z M 144.71 73.49 L 144.92 74.49 C 145.15 75.64 146.27 76.38 147.42 76.15 C 148.57 75.91 149.31 74.79 149.08 73.64 L 148.87 72.64 C 148.64 71.49 147.52 70.75 146.37 70.98 C 145.22 71.22 144.48 72.34 144.71 73.49 Z M 144.94 74.53 L 145.17 75.54 C 145.42 76.68 146.55 77.39 147.69 77.14 C 148.82 76.88 149.54 75.75 149.28 74.62 L 149.05 73.61 C 148.80 72.47 147.67 71.76 146.53 72.01 C 145.40 72.27 144.68 73.40 144.94 74.53 Z M 145.19 75.57 L 145.44 76.58 C 145.71 77.70 146.84 78.39 147.96 78.12 C 149.08 77.85 149.77 76.72 149.50 75.59 L 149.26 74.59 C 148.98 73.46 147.85 72.78 146.73 73.05 C 145.61 73.32 144.92 74.45 145.19 75.57 Z M 145.46 76.60 L 145.71 77.59 C 145.99 78.70 147.12 79.37 148.23 79.09 C 149.34 78.80 150.01 77.67 149.73 76.56 L 149.48 75.57 C 149.19 74.46 148.06 73.79 146.95 74.08 C 145.84 74.36 145.17 75.49 145.46 76.60 Z M 145.73 77.60 L 145.99 78.57 C 146.28 79.67 147.41 80.32 148.50 80.03 C 149.60 79.74 150.26 78.61 149.97 77.51 L 149.71 76.55 C 149.42 75.45 148.29 74.80 147.19 75.09 C 146.09 75.38 145.44 76.51 145.73 77.60 Z M 146.01 78.58 L 146.26 79.50 C 146.55 80.59 147.68 81.23 148.76 80.94 C 149.85 80.64 150.49 79.52 150.20 78.43 L 149.95 77.51 C 149.65 76.42 148.53 75.78 147.44 76.07 C 146.35 76.37 145.71 77.49 146.01 78.58 Z M 146.28 79.50 L 146.56 80.50 C 146.85 81.58 147.96 82.21 149.04 81.91 C 150.12 81.62 150.75 80.51 150.45 79.43 L 150.18 78.43 C 149.88 77.36 148.77 76.72 147.69 77.02 C 146.62 77.32 145.98 78.43 146.28 79.50 Z M 146.59 80.49 L 146.89 81.59 C 147.18 82.65 148.27 83.27 149.33 82.98 C 150.39 82.69 151.01 81.59 150.72 80.53 L 150.42 79.44 C 150.13 78.38 149.03 77.76 147.98 78.05 C 146.92 78.34 146.30 79.44 146.59 80.49 Z M 146.93 81.57 L 147.20 82.59 C 147.49 83.63 148.56 84.24 149.59 83.96 C 150.63 83.67 151.24 82.60 150.96 81.57 L 150.68 80.55 C 150.40 79.51 149.33 78.90 148.29 79.18 C 147.26 79.46 146.64 80.54 146.93 81.57 Z M 147.24 82.57 L 147.49 83.53 C 147.76 84.54 148.81 85.15 149.83 84.88 C 150.85 84.61 151.45 83.56 151.18 82.54 L 150.93 81.59 C 150.65 80.57 149.61 79.96 148.59 80.23 C 147.57 80.51 146.97 81.55 147.24 82.57 Z M 147.53 83.50 L 147.76 84.41 C 148.02 85.41 149.03 86.01 150.03 85.76 C 151.03 85.50 151.64 84.48 151.38 83.48 L 151.15 82.57 C 150.89 81.57 149.87 80.97 148.87 81.22 C 147.87 81.48 147.27 82.50 147.53 83.50 Z M 147.79 84.38 L 148.01 85.26 C 148.25 86.24 149.23 86.84 150.22 86.61 C 151.20 86.37 151.80 85.38 151.56 84.40 L 151.35 83.51 C 151.11 82.53 150.12 81.93 149.14 82.17 C 148.16 82.41 147.56 83.40 147.79 84.38 Z M 148.04 85.22 L 148.24 86.09 C 148.45 87.06 149.41 87.66 150.38 87.45 C 151.34 87.23 151.94 86.27 151.73 85.31 L 151.53 84.44 C 151.31 83.47 150.35 82.87 149.39 83.08 C 148.43 83.30 147.82 84.26 148.04 85.22 Z M 148.26 86.06 L 148.46 87.02 C 148.65 87.97 149.58 88.58 150.53 88.38 C 151.49 88.19 152.10 87.26 151.90 86.31 L 151.70 85.35 C 151.51 84.39 150.58 83.78 149.63 83.98 C 148.68 84.17 148.06 85.10 148.26 86.06 Z M 148.47 86.98 L 148.65 87.95 C 148.83 88.89 149.74 89.52 150.68 89.34 C 151.62 89.16 152.24 88.26 152.07 87.31 L 151.89 86.34 C 151.71 85.40 150.80 84.78 149.86 84.95 C 148.92 85.13 148.30 86.04 148.47 86.98 Z M 148.67 87.92 L 148.84 88.90 C 148.99 89.83 149.88 90.46 150.82 90.30 C 151.75 90.15 152.38 89.26 152.22 88.32 L 152.05 87.34 C 151.89 86.41 151.01 85.78 150.07 85.94 C 149.14 86.10 148.51 86.99 148.67 87.92 Z M 148.85 88.87 L 149.01 89.86 C 149.15 90.79 150.02 91.42 150.94 91.28 C 151.87 91.13 152.50 90.27 152.36 89.34 L 152.20 88.35 C 152.06 87.43 151.19 86.79 150.27 86.94 C 149.34 87.08 148.71 87.95 148.85 88.87 Z M 149.02 89.84 L 149.17 90.84 C 149.30 91.76 150.15 92.39 151.06 92.26 C 151.98 92.13 152.61 91.28 152.48 90.37 L 152.34 89.37 C 152.21 88.45 151.36 87.81 150.44 87.94 C 149.53 88.08 148.89 88.92 149.02 89.84 Z M 149.18 90.82 L 149.32 91.83 C 149.44 92.74 150.27 93.38 151.18 93.25 C 152.09 93.13 152.72 92.30 152.60 91.39 L 152.47 90.38 C 152.35 89.48 151.51 88.84 150.61 88.96 C 149.70 89.08 149.06 89.91 149.18 90.82 Z M 149.30 91.82 L 149.43 92.80 C 149.54 93.72 150.37 94.36 151.29 94.25 C 152.20 94.14 152.85 93.30 152.74 92.39 L 152.61 91.41 C 152.50 90.49 151.67 89.84 150.75 89.96 C 149.84 90.07 149.19 90.90 149.30 91.82 Z M 149.39 92.79 L 149.51 93.78 C 149.61 94.72 150.46 95.39 151.39 95.28 C 152.33 95.17 153.00 94.33 152.89 93.39 L 152.77 92.40 C 152.66 91.47 151.82 90.80 150.89 90.90 C 149.95 91.01 149.28 91.86 149.39 92.79 Z M 149.47 93.77 L 149.57 94.77 C 149.67 95.72 150.53 96.41 151.48 96.31 C 152.44 96.21 153.13 95.36 153.03 94.40 L 152.92 93.41 C 152.82 92.45 151.97 91.76 151.02 91.86 C 150.06 91.96 149.37 92.81 149.47 93.77 Z M 149.54 94.75 L 149.63 95.75 C 149.72 96.72 150.58 97.44 151.56 97.35 C 152.53 97.26 153.25 96.40 153.16 95.42 L 153.07 94.42 C 152.97 93.45 152.11 92.73 151.14 92.82 C 150.16 92.91 149.45 93.77 149.54 94.75 Z M 149.59 95.73 L 149.67 96.73 C 149.75 97.72 150.62 98.47 151.61 98.39 C 152.61 98.31 153.35 97.44 153.27 96.45 L 153.19 95.44 C 153.12 94.45 152.25 93.71 151.25 93.78 C 150.26 93.86 149.51 94.73 149.59 95.73 Z M 149.63 96.70 L 149.70 97.70 C 149.76 98.71 150.64 99.49 151.65 99.42 C 152.66 99.36 153.44 98.48 153.37 97.47 L 153.31 96.47 C 153.25 95.46 152.37 94.69 151.36 94.75 C 150.34 94.81 149.57 95.69 149.63 96.70 Z M 149.69 97.67 L 149.73 98.68 C 149.78 99.70 150.65 100.49 151.67 100.44 C 152.69 100.39 153.47 99.53 153.43 98.51 L 153.38 97.50 C 153.33 96.48 152.47 95.69 151.45 95.74 C 150.43 95.79 149.64 96.65 149.69 97.67 Z M 149.75 98.65 L 149.79 99.65 C 149.82 100.66 150.66 101.45 151.67 101.42 C 152.68 101.39 153.47 100.55 153.44 99.54 L 153.41 98.54 C 153.38 97.53 152.53 96.74 151.52 96.77 C 150.52 96.80 149.72 97.64 149.75 98.65 Z M 149.81 99.63 L 149.82 100.63 C 149.84 101.63 150.67 102.42 151.66 102.40 C 152.66 102.38 153.46 101.56 153.44 100.56 L 153.42 99.56 C 153.40 98.57 152.58 97.77 151.58 97.79 C 150.58 97.81 149.79 98.63 149.81 99.63 Z M 149.85 100.61 L 149.85 101.61 C 149.86 102.60 150.67 103.39 151.66 103.38 C 152.64 103.37 153.44 102.56 153.43 101.58 L 153.42 100.58 C 153.41 99.59 152.60 98.80 151.61 98.81 C 150.63 98.82 149.84 99.63 149.85 100.61 Z M 149.88 101.60 L 149.88 102.59 C 149.88 103.57 150.68 104.36 151.65 104.35 C 152.62 104.35 153.41 103.56 153.41 102.58 L 153.40 101.59 C 153.40 100.61 152.61 99.83 151.63 99.83 C 150.66 99.83 149.87 100.63 149.88 101.60 Z M 149.90 102.59 L 149.90 103.57 C 149.90 104.53 150.68 105.31 151.65 105.31 C 152.61 105.31 153.39 104.53 153.39 103.56 L 153.39 102.59 C 153.39 101.62 152.61 100.84 151.64 100.84 C 150.68 100.84 149.90 101.63 149.90 102.59 Z"
      fill="black"
      fill-rule="nonzero" /><path d="M 119.50 126.09 L 118.44 125.44 C 117.61 124.92 116.52 125.18 116.01 126.02 C 115.49 126.85 115.75 127.94 116.59 128.45 L 117.64 129.11 C 118.48 129.62 119.57 129.36 120.08 128.53 C 120.59 127.69 120.33 126.60 119.50 126.09 Z M 118.59 125.48 L 117.69 124.83 C 116.89 124.24 115.75 124.41 115.16 125.22 C 114.57 126.03 114.74 127.16 115.55 127.76 L 116.44 128.41 C 117.25 129.00 118.39 128.83 118.98 128.02 C 119.57 127.21 119.40 126.07 118.59 125.48 Z M 118.03 125.08 L 117.47 124.42 C 116.80 123.64 115.63 123.55 114.85 124.22 C 114.07 124.89 113.98 126.06 114.64 126.84 L 115.21 127.50 C 115.88 128.28 117.05 128.37 117.83 127.70 C 118.61 127.04 118.70 125.86 118.03 125.08 Z M 117.94 125.42 L 117.87 124.75 C 117.76 123.71 116.82 122.96 115.77 123.07 C 114.73 123.19 113.98 124.12 114.09 125.17 L 114.17 125.84 C 114.28 126.88 115.22 127.63 116.26 127.52 C 117.31 127.40 118.06 126.47 117.94 125.42 Z M 117.58 126.03 L 117.91 125.54 C 118.50 124.66 118.27 123.46 117.38 122.87 C 116.50 122.28 115.31 122.51 114.72 123.40 L 114.39 123.89 C 113.79 124.77 114.03 125.96 114.91 126.56 C 115.79 127.15 116.99 126.91 117.58 126.03 Z M 117.51 125.97 L 118.12 125.49 C 118.95 124.83 119.09 123.62 118.42 122.79 C 117.76 121.95 116.55 121.82 115.72 122.48 L 115.11 122.96 C 114.28 123.63 114.15 124.84 114.81 125.67 C 115.47 126.50 116.68 126.64 117.51 125.97 Z M 117.89 125.65 L 118.72 125.16 C 119.64 124.63 119.95 123.45 119.42 122.53 C 118.88 121.61 117.70 121.30 116.78 121.84 L 115.95 122.32 C 115.03 122.86 114.72 124.03 115.25 124.95 C 115.79 125.87 116.97 126.18 117.89 125.65 Z M 118.59 125.23 L 119.60 124.75 C 120.55 124.29 120.96 123.14 120.50 122.18 C 120.04 121.22 118.89 120.82 117.93 121.28 L 116.92 121.76 C 115.96 122.23 115.56 123.38 116.02 124.33 C 116.48 125.29 117.63 125.70 118.59 125.23 Z M 119.52 124.79 L 120.65 124.30 C 121.63 123.89 122.08 122.76 121.67 121.78 C 121.25 120.80 120.12 120.34 119.14 120.76 L 118.01 121.24 C 117.03 121.66 116.57 122.79 116.99 123.77 C 117.41 124.75 118.54 125.20 119.52 124.79 Z M 120.61 124.32 L 121.75 123.86 C 122.74 123.47 123.22 122.35 122.83 121.36 C 122.44 120.38 121.32 119.89 120.33 120.29 L 119.18 120.74 C 118.20 121.14 117.71 122.25 118.11 123.24 C 118.50 124.23 119.62 124.71 120.61 124.32 Z M 121.73 123.87 L 122.57 123.55 C 123.56 123.17 124.05 122.06 123.67 121.06 C 123.29 120.07 122.17 119.58 121.18 119.96 L 120.35 120.28 C 119.36 120.66 118.86 121.78 119.25 122.77 C 119.63 123.76 120.74 124.25 121.73 123.87 Z M 122.55 123.56 L 123.40 123.23 C 124.40 122.86 124.90 121.75 124.52 120.76 C 124.15 119.76 123.04 119.26 122.05 119.63 L 121.20 119.96 C 120.20 120.33 119.70 121.44 120.07 122.43 C 120.45 123.43 121.56 123.93 122.55 123.56 Z M 123.39 123.24 L 124.27 122.91 C 125.26 122.54 125.77 121.44 125.40 120.44 C 125.03 119.45 123.93 118.94 122.93 119.31 L 122.06 119.63 C 121.06 120.00 120.55 121.11 120.92 122.10 C 121.29 123.10 122.40 123.61 123.39 123.24 Z M 124.26 122.92 L 125.16 122.59 C 126.16 122.22 126.67 121.12 126.31 120.12 C 125.94 119.13 124.84 118.61 123.84 118.98 L 122.94 119.31 C 121.94 119.67 121.43 120.77 121.79 121.77 C 122.16 122.77 123.26 123.28 124.26 122.92 Z M 125.15 122.59 L 126.09 122.25 C 127.09 121.89 127.60 120.79 127.24 119.79 C 126.88 118.79 125.78 118.28 124.78 118.64 L 123.85 118.98 C 122.85 119.34 122.33 120.44 122.69 121.43 C 123.06 122.43 124.16 122.95 125.15 122.59 Z M 126.08 122.25 L 127.06 121.90 C 128.06 121.54 128.58 120.44 128.22 119.45 C 127.86 118.45 126.76 117.93 125.76 118.29 L 124.79 118.64 C 123.79 118.99 123.27 120.09 123.63 121.09 C 123.99 122.09 125.09 122.61 126.08 122.25 Z M 127.06 121.90 L 128.08 121.54 C 129.07 121.18 129.59 120.08 129.24 119.09 C 128.88 118.09 127.78 117.57 126.79 117.92 L 125.77 118.29 C 124.77 118.64 124.25 119.74 124.61 120.74 C 124.96 121.74 126.06 122.26 127.06 121.90 Z M 128.07 121.54 L 129.14 121.15 C 130.14 120.80 130.66 119.70 130.31 118.71 C 129.95 117.71 128.85 117.19 127.86 117.54 L 126.79 117.93 C 125.79 118.28 125.27 119.38 125.63 120.37 C 125.98 121.37 127.08 121.89 128.07 121.54 Z M 129.14 121.15 L 130.13 120.80 C 131.12 120.45 131.64 119.35 131.29 118.36 C 130.93 117.36 129.84 116.84 128.84 117.20 L 127.86 117.55 C 126.86 117.90 126.34 119.00 126.70 119.99 C 127.05 120.99 128.15 121.51 129.14 121.15 Z M 130.13 120.80 L 131.04 120.48 C 132.04 120.12 132.55 119.03 132.20 118.03 C 131.84 117.03 130.75 116.52 129.75 116.87 L 128.84 117.20 C 127.84 117.55 127.33 118.65 127.68 119.64 C 128.04 120.64 129.13 121.16 130.13 120.80 Z M 131.04 120.47 L 131.98 120.14 C 132.97 119.78 133.49 118.69 133.14 117.69 C 132.78 116.70 131.69 116.18 130.69 116.54 L 129.75 116.87 C 128.76 117.23 128.24 118.32 128.60 119.32 C 128.95 120.31 130.05 120.83 131.04 120.47 Z M 131.98 120.14 L 132.94 119.79 C 133.93 119.44 134.45 118.35 134.09 117.35 C 133.74 116.36 132.64 115.84 131.65 116.20 L 130.69 116.54 C 129.70 116.89 129.18 117.99 129.54 118.98 C 129.89 119.97 130.99 120.49 131.98 120.14 Z M 132.94 119.79 L 133.91 119.45 C 134.90 119.09 135.42 118.00 135.06 117.00 C 134.71 116.01 133.61 115.50 132.62 115.85 L 131.65 116.20 C 130.66 116.55 130.14 117.65 130.50 118.64 C 130.85 119.63 131.95 120.15 132.94 119.79 Z M 133.91 119.44 L 134.88 119.10 C 135.87 118.74 136.39 117.65 136.03 116.66 C 135.68 115.66 134.59 115.15 133.59 115.50 L 132.62 115.85 C 131.63 116.21 131.11 117.30 131.47 118.29 C 131.82 119.28 132.91 119.80 133.91 119.44 Z M 134.88 119.09 L 135.85 118.75 C 136.84 118.39 137.36 117.30 137.00 116.31 C 136.65 115.32 135.56 114.80 134.57 115.16 L 133.59 115.50 C 132.60 115.86 132.09 116.95 132.44 117.94 C 132.80 118.93 133.89 119.45 134.88 119.09 Z M 135.85 118.74 L 136.82 118.40 C 137.81 118.04 138.32 116.95 137.97 115.96 C 137.61 114.97 136.52 114.46 135.53 114.81 L 134.57 115.16 C 133.58 115.51 133.06 116.60 133.42 117.59 C 133.77 118.58 134.86 119.10 135.85 118.74 Z M 136.82 118.40 L 137.77 118.06 C 138.75 117.70 139.27 116.61 138.91 115.62 C 138.56 114.63 137.47 114.12 136.48 114.47 L 135.53 114.81 C 134.54 115.17 134.03 116.26 134.38 117.25 C 134.74 118.24 135.83 118.75 136.82 118.40 Z M 137.77 118.05 L 138.69 117.72 C 139.68 117.36 140.19 116.28 139.84 115.29 C 139.48 114.30 138.39 113.79 137.40 114.14 L 136.48 114.47 C 135.49 114.83 134.98 115.92 135.33 116.91 C 135.69 117.90 136.78 118.41 137.77 118.05 Z M 138.69 117.72 L 139.59 117.40 C 140.58 117.04 141.09 115.95 140.73 114.96 C 140.38 113.98 139.29 113.46 138.30 113.82 L 137.40 114.14 C 136.42 114.50 135.90 115.59 136.26 116.57 C 136.62 117.56 137.70 118.07 138.69 117.72 Z M 139.59 117.39 L 140.62 117.02 C 141.60 116.67 142.11 115.58 141.76 114.59 C 141.40 113.61 140.32 113.10 139.33 113.45 L 138.30 113.82 C 137.32 114.18 136.81 115.26 137.16 116.25 C 137.52 117.24 138.60 117.75 139.59 117.39 Z M 140.61 117.02 L 141.66 116.64 C 142.65 116.28 143.16 115.20 142.80 114.22 C 142.45 113.23 141.36 112.72 140.38 113.08 L 139.33 113.46 C 138.35 113.81 137.84 114.90 138.19 115.88 C 138.55 116.86 139.63 117.37 140.61 117.02 Z M 141.66 116.64 L 142.66 116.28 C 143.64 115.92 144.15 114.84 143.80 113.86 C 143.44 112.88 142.36 112.37 141.38 112.72 L 140.38 113.08 C 139.40 113.44 138.89 114.52 139.25 115.50 C 139.60 116.48 140.68 116.99 141.66 116.64 Z M 142.66 116.27 L 143.61 115.93 C 144.59 115.58 145.10 114.50 144.75 113.52 C 144.40 112.54 143.32 112.03 142.34 112.38 L 141.39 112.73 C 140.41 113.08 139.90 114.16 140.25 115.13 C 140.60 116.11 141.68 116.62 142.66 116.27 Z M 143.61 115.92 L 144.53 115.60 C 145.51 115.25 146.02 114.17 145.67 113.20 C 145.32 112.22 144.25 111.71 143.27 112.06 L 142.35 112.39 C 141.37 112.73 140.86 113.81 141.21 114.78 C 141.56 115.76 142.63 116.27 143.61 115.92 Z M 144.53 115.59 L 145.42 115.28 C 146.40 114.93 146.91 113.86 146.57 112.89 C 146.22 111.91 145.15 111.40 144.18 111.75 L 143.28 112.06 C 142.31 112.40 141.79 113.47 142.14 114.45 C 142.48 115.42 143.55 115.94 144.53 115.59 Z M 145.41 115.27 L 146.29 114.97 C 147.26 114.63 147.78 113.57 147.44 112.59 C 147.10 111.62 146.04 111.10 145.06 111.44 L 144.19 111.75 C 143.21 112.09 142.70 113.15 143.04 114.12 C 143.37 115.10 144.44 115.61 145.41 115.27 Z M 146.28 114.97 L 147.14 114.67 C 148.11 114.34 148.63 113.28 148.30 112.31 C 147.97 111.34 146.91 110.82 145.94 111.15 L 145.07 111.45 C 144.10 111.78 143.58 112.84 143.91 113.81 C 144.25 114.78 145.30 115.30 146.28 114.97 Z M 147.13 114.67 L 148.01 114.38 C 148.99 114.05 149.51 113.00 149.18 112.02 C 148.86 111.05 147.80 110.53 146.83 110.85 L 145.95 111.15 C 144.98 111.48 144.45 112.53 144.78 113.50 C 145.10 114.47 146.16 115.00 147.13 114.67 Z M 148.00 114.37 L 149.00 114.05 C 149.98 113.73 150.51 112.68 150.19 111.71 C 149.87 110.74 148.82 110.21 147.85 110.53 L 146.85 110.85 C 145.88 111.17 145.35 112.22 145.66 113.19 C 145.98 114.16 147.03 114.69 148.00 114.37 Z M 148.99 114.05 L 149.98 113.73 C 150.96 113.42 151.49 112.38 151.19 111.41 C 150.88 110.44 149.84 109.90 148.87 110.21 L 147.87 110.53 C 146.90 110.83 146.36 111.87 146.67 112.85 C 146.97 113.82 148.01 114.36 148.99 114.05 Z M 149.96 113.73 L 150.95 113.43 C 151.92 113.13 152.47 112.10 152.17 111.13 C 151.88 110.15 150.85 109.61 149.87 109.91 L 148.89 110.21 C 147.91 110.51 147.36 111.54 147.66 112.51 C 147.96 113.48 148.99 114.03 149.96 113.73 Z M 150.93 113.43 L 151.90 113.15 C 152.87 112.86 153.43 111.84 153.15 110.87 C 152.86 109.89 151.84 109.33 150.86 109.62 L 149.89 109.90 C 148.92 110.19 148.36 111.21 148.65 112.19 C 148.93 113.16 149.95 113.72 150.93 113.43 Z M 151.87 113.15 L 152.82 112.89 C 153.80 112.62 154.37 111.60 154.10 110.63 C 153.82 109.65 152.81 109.08 151.84 109.35 L 150.89 109.62 C 149.91 109.89 149.34 110.90 149.61 111.88 C 149.89 112.85 150.90 113.42 151.87 113.15 Z M 152.79 112.89 L 153.71 112.65 C 154.69 112.40 155.28 111.40 155.02 110.42 C 154.77 109.44 153.77 108.85 152.79 109.11 L 151.87 109.35 C 150.89 109.60 150.30 110.60 150.56 111.58 C 150.81 112.56 151.81 113.15 152.79 112.89 Z M 153.68 112.66 L 154.56 112.44 C 155.55 112.21 156.15 111.22 155.91 110.24 C 155.68 109.26 154.69 108.66 153.71 108.89 L 152.82 109.10 C 151.84 109.34 151.24 110.33 151.47 111.31 C 151.71 112.29 152.70 112.89 153.68 112.66 Z M 154.52 112.45 L 155.57 112.22 C 156.56 112.01 157.19 111.04 156.98 110.06 C 156.76 109.07 155.80 108.45 154.81 108.66 L 153.76 108.88 C 152.77 109.09 152.14 110.06 152.35 111.05 C 152.57 112.03 153.53 112.66 154.52 112.45 Z M 155.52 112.23 L 156.54 112.05 C 157.53 111.87 158.18 110.92 158.00 109.93 C 157.82 108.94 156.88 108.28 155.89 108.46 L 154.87 108.65 C 153.88 108.83 153.22 109.78 153.40 110.77 C 153.58 111.76 154.53 112.41 155.52 112.23 Z M 156.48 112.06 L 157.46 111.91 C 158.46 111.76 159.14 110.84 159.00 109.84 C 158.85 108.85 157.92 108.16 156.93 108.31 L 155.95 108.45 C 154.95 108.60 154.26 109.53 154.41 110.52 C 154.56 111.52 155.48 112.20 156.48 112.06 Z M 157.40 111.92 L 158.36 111.81 C 159.36 111.69 160.08 110.79 159.96 109.80 C 159.85 108.80 158.95 108.08 157.95 108.19 L 156.99 108.30 C 155.99 108.42 155.27 109.32 155.39 110.31 C 155.50 111.31 156.40 112.03 157.40 111.92 Z M 158.30 111.81 L 159.25 111.74 C 160.25 111.66 161.00 110.78 160.92 109.78 C 160.84 108.78 159.96 108.03 158.96 108.11 L 158.01 108.19 C 157.01 108.27 156.26 109.15 156.34 110.15 C 156.43 111.15 157.30 111.89 158.30 111.81 Z M 159.20 111.74 L 160.17 111.69 C 161.18 111.64 161.95 110.79 161.90 109.79 C 161.85 108.79 161.00 108.01 160.00 108.06 L 159.02 108.11 C 158.02 108.16 157.24 109.01 157.29 110.01 C 157.34 111.01 158.19 111.79 159.20 111.74 Z M 160.10 111.70 L 161.19 111.69 C 162.19 111.68 163.00 110.85 162.99 109.85 C 162.98 108.84 162.16 108.04 161.15 108.05 L 160.07 108.06 C 159.06 108.07 158.26 108.89 158.27 109.89 C 158.28 110.90 159.10 111.71 160.10 111.70 Z M 161.06 111.69 L 162.12 111.75 C 163.12 111.81 163.99 111.04 164.05 110.03 C 164.10 109.03 163.34 108.16 162.33 108.11 L 161.28 108.04 C 160.27 107.99 159.41 108.75 159.35 109.76 C 159.29 110.77 160.06 111.63 161.06 111.69 Z M 161.92 111.73 L 162.91 111.90 C 163.91 112.06 164.85 111.39 165.02 110.39 C 165.18 109.40 164.51 108.45 163.51 108.29 L 162.53 108.12 C 161.53 107.96 160.59 108.63 160.42 109.63 C 160.25 110.62 160.93 111.57 161.92 111.73 Z M 162.62 111.83 L 163.50 112.13 C 164.46 112.46 165.50 111.94 165.83 110.98 C 166.16 110.02 165.64 108.98 164.68 108.65 L 163.80 108.35 C 162.84 108.03 161.80 108.54 161.47 109.50 C 161.15 110.46 161.66 111.50 162.62 111.83 Z M 163.11 111.95 L 163.85 112.42 C 164.71 112.96 165.84 112.71 166.39 111.85 C 166.93 110.99 166.68 109.85 165.82 109.31 L 165.08 108.84 C 164.22 108.29 163.08 108.55 162.54 109.41 C 161.99 110.27 162.25 111.40 163.11 111.95 Z M 163.43 112.07 L 164.02 112.75 C 164.69 113.52 165.86 113.60 166.63 112.94 C 167.40 112.27 167.48 111.10 166.82 110.33 L 166.23 109.65 C 165.56 108.88 164.39 108.79 163.62 109.46 C 162.85 110.13 162.77 111.30 163.43 112.07 Z M 163.76 112.38 L 164.18 113.22 C 164.65 114.13 165.76 114.50 166.68 114.04 C 167.60 113.57 167.96 112.46 167.50 111.54 L 167.08 110.70 C 166.61 109.78 165.50 109.42 164.58 109.88 C 163.66 110.34 163.30 111.46 163.76 112.38 Z M 164.05 112.92 L 164.35 113.88 C 164.65 114.87 165.69 115.43 166.68 115.13 C 167.66 114.83 168.22 113.79 167.92 112.80 L 167.63 111.84 C 167.33 110.85 166.29 110.29 165.30 110.59 C 164.31 110.89 163.76 111.93 164.05 112.92 Z M 164.29 113.67 L 164.47 114.72 C 164.66 115.74 165.63 116.42 166.65 116.24 C 167.67 116.06 168.35 115.08 168.17 114.06 L 167.98 113.01 C 167.80 111.99 166.83 111.31 165.80 111.49 C 164.78 111.68 164.10 112.65 164.29 113.67 Z M 164.44 114.58 L 164.55 115.64 C 164.66 116.68 165.58 117.44 166.62 117.33 C 167.66 117.23 168.41 116.30 168.31 115.26 L 168.20 114.20 C 168.09 113.16 167.17 112.41 166.13 112.51 C 165.09 112.62 164.34 113.54 164.44 114.58 Z M 164.54 115.55 L 164.59 116.50 C 164.64 117.54 165.53 118.34 166.57 118.29 C 167.62 118.24 168.42 117.35 168.37 116.30 L 168.32 115.36 C 168.27 114.31 167.38 113.51 166.33 113.56 C 165.29 113.61 164.49 114.50 164.54 115.55 Z M 164.58 116.40 L 164.58 117.36 C 164.58 118.41 165.43 119.26 166.48 119.26 C 167.52 119.26 168.37 118.41 168.37 117.36 L 168.37 116.40 C 168.38 115.35 167.53 114.50 166.48 114.50 C 165.43 114.50 164.58 115.35 164.58 116.40 Z M 164.58 117.25 L 164.52 118.23 C 164.46 119.28 165.26 120.18 166.31 120.24 C 167.36 120.30 168.26 119.50 168.32 118.45 L 168.37 117.47 C 168.43 116.42 167.63 115.52 166.59 115.46 C 165.54 115.40 164.64 116.20 164.58 117.25 Z M 164.53 118.12 L 164.41 119.12 C 164.29 120.17 165.04 121.11 166.08 121.24 C 167.12 121.36 168.07 120.61 168.19 119.57 L 168.31 118.56 C 168.44 117.52 167.69 116.57 166.64 116.45 C 165.60 116.33 164.65 117.07 164.53 118.12 Z M 164.42 119.01 L 164.24 120.04 C 164.05 121.08 164.74 122.07 165.77 122.26 C 166.81 122.45 167.80 121.76 167.99 120.72 L 168.18 119.69 C 168.37 118.65 167.68 117.66 166.64 117.47 C 165.61 117.28 164.61 117.97 164.42 119.01 Z M 164.26 119.93 L 164.02 120.90 C 163.77 121.92 164.40 122.96 165.43 123.21 C 166.46 123.45 167.49 122.82 167.74 121.80 L 167.97 120.83 C 168.22 119.81 167.59 118.77 166.57 118.52 C 165.54 118.28 164.51 118.91 164.26 119.93 Z M 164.05 120.81 L 163.79 121.66 C 163.50 122.68 164.08 123.74 165.09 124.04 C 166.10 124.34 167.17 123.76 167.46 122.74 L 167.72 121.89 C 168.01 120.87 167.43 119.81 166.42 119.51 C 165.41 119.21 164.34 119.79 164.05 120.81 Z M 163.81 121.60 L 163.52 122.48 C 163.18 123.48 163.72 124.57 164.73 124.90 C 165.73 125.24 166.81 124.70 167.15 123.69 L 167.44 122.81 C 167.78 121.81 167.24 120.73 166.24 120.39 C 165.23 120.05 164.15 120.59 163.81 121.60 Z M 163.54 122.42 L 163.20 123.33 C 162.84 124.32 163.34 125.42 164.33 125.79 C 165.33 126.16 166.43 125.65 166.79 124.66 L 167.13 123.75 C 167.50 122.76 166.99 121.66 166.00 121.29 C 165.00 120.92 163.90 121.43 163.54 122.42 Z M 163.22 123.29 L 162.85 124.22 C 162.45 125.21 162.93 126.32 163.92 126.71 C 164.90 127.10 166.01 126.62 166.40 125.64 L 166.78 124.70 C 167.17 123.72 166.69 122.61 165.71 122.22 C 164.72 121.82 163.61 122.30 163.22 123.29 Z M 162.86 124.19 L 162.45 125.15 C 162.04 126.13 162.50 127.25 163.47 127.66 C 164.45 128.07 165.57 127.62 165.98 126.64 L 166.39 125.68 C 166.80 124.70 166.34 123.58 165.37 123.17 C 164.39 122.76 163.27 123.21 162.86 124.19 Z M 162.46 125.13 L 162.03 126.12 C 161.60 127.09 162.04 128.22 163.01 128.65 C 163.98 129.07 165.11 128.63 165.54 127.66 L 165.97 126.67 C 166.40 125.70 165.96 124.57 164.99 124.14 C 164.02 123.72 162.89 124.16 162.46 125.13 Z M 162.03 126.10 L 161.57 127.13 C 161.14 128.09 161.56 129.23 162.53 129.66 C 163.49 130.10 164.63 129.67 165.07 128.71 L 165.53 127.68 C 165.96 126.72 165.54 125.58 164.57 125.15 C 163.61 124.71 162.47 125.14 162.03 126.10 Z M 161.58 127.11 L 161.16 128.02 C 160.71 128.99 161.13 130.13 162.09 130.57 C 163.06 131.01 164.20 130.59 164.64 129.63 L 165.06 128.72 C 165.50 127.76 165.08 126.62 164.12 126.17 C 163.16 125.73 162.02 126.15 161.58 127.11 Z M 161.16 128.02 L 160.73 128.94 C 160.28 129.90 160.69 131.04 161.65 131.49 C 162.61 131.94 163.75 131.53 164.20 130.57 L 164.64 129.64 C 165.08 128.68 164.67 127.54 163.71 127.09 C 162.75 126.64 161.61 127.06 161.16 128.02 Z M 160.73 128.93 L 160.29 129.87 C 159.83 130.83 160.24 131.97 161.20 132.42 C 162.16 132.88 163.30 132.47 163.75 131.51 L 164.20 130.58 C 164.65 129.62 164.24 128.48 163.29 128.02 C 162.33 127.57 161.18 127.98 160.73 128.93 Z M 160.29 129.86 L 159.84 130.79 C 159.39 131.75 159.79 132.90 160.75 133.35 C 161.70 133.81 162.85 133.41 163.30 132.45 L 163.75 131.52 C 164.21 130.56 163.81 129.42 162.85 128.96 C 161.89 128.50 160.75 128.91 160.29 129.86 Z M 159.85 130.79 L 159.40 131.71 C 158.94 132.67 159.34 133.81 160.29 134.27 C 161.25 134.73 162.39 134.34 162.85 133.38 L 163.30 132.46 C 163.76 131.51 163.36 130.36 162.41 129.90 C 161.46 129.44 160.31 129.83 159.85 130.79 Z M 159.40 131.71 L 158.96 132.61 C 158.50 133.56 158.89 134.71 159.84 135.18 C 160.80 135.64 161.94 135.24 162.41 134.29 L 162.85 133.39 C 163.32 132.44 162.92 131.29 161.97 130.82 C 161.02 130.36 159.87 130.75 159.40 131.71 Z M 158.97 132.60 L 158.53 133.48 C 158.07 134.43 158.46 135.58 159.41 136.05 C 160.36 136.52 161.51 136.13 161.97 135.18 L 162.41 134.30 C 162.87 133.35 162.48 132.20 161.53 131.73 C 160.58 131.26 159.43 131.65 158.97 132.60 Z M 158.54 133.48 L 158.12 134.32 C 157.65 135.27 158.03 136.42 158.98 136.89 C 159.93 137.36 161.08 136.97 161.55 136.03 L 161.97 135.18 C 162.44 134.23 162.05 133.08 161.11 132.61 C 160.16 132.14 159.01 132.53 158.54 133.48 Z M 158.12 134.32 L 157.66 135.23 C 157.19 136.18 157.57 137.33 158.52 137.80 C 159.47 138.28 160.62 137.89 161.09 136.95 L 161.55 136.03 C 162.02 135.08 161.64 133.93 160.69 133.46 C 159.75 132.98 158.59 133.37 158.12 134.32 Z M 157.67 135.23 L 157.17 136.21 C 156.69 137.16 157.07 138.31 158.02 138.78 C 158.96 139.26 160.11 138.88 160.59 137.94 L 161.09 136.95 C 161.56 136.01 161.18 134.86 160.24 134.38 C 159.29 133.90 158.14 134.28 157.67 135.23 Z M 157.18 136.21 L 156.71 137.13 C 156.23 138.07 156.61 139.23 157.55 139.70 C 158.49 140.18 159.64 139.80 160.12 138.86 L 160.59 137.94 C 161.06 137.00 160.69 135.85 159.75 135.37 C 158.80 134.89 157.65 135.27 157.18 136.21 Z M 156.71 137.13 L 156.27 138.01 C 155.79 138.95 156.16 140.10 157.10 140.58 C 158.04 141.05 159.19 140.68 159.67 139.74 L 160.12 138.86 C 160.59 137.92 160.22 136.77 159.28 136.29 C 158.34 135.82 157.19 136.19 156.71 137.13 Z M 156.27 138.01 L 155.84 138.86 C 155.36 139.80 155.74 140.95 156.68 141.42 C 157.62 141.90 158.77 141.52 159.24 140.58 L 159.67 139.73 C 160.14 138.79 159.77 137.65 158.83 137.17 C 157.89 136.70 156.74 137.07 156.27 138.01 Z M 155.84 138.87 L 155.42 139.70 C 154.95 140.64 155.33 141.78 156.27 142.25 C 157.21 142.72 158.35 142.34 158.83 141.40 L 159.24 140.57 C 159.71 139.63 159.33 138.49 158.39 138.02 C 157.45 137.55 156.31 137.93 155.84 138.87 Z M 155.42 139.71 L 155.01 140.54 C 154.54 141.48 154.93 142.62 155.87 143.09 C 156.81 143.55 157.95 143.16 158.42 142.22 L 158.83 141.39 C 159.29 140.45 158.91 139.31 157.97 138.85 C 157.02 138.38 155.89 138.77 155.42 139.71 Z M 155.01 140.55 L 154.59 141.41 C 154.13 142.35 154.53 143.49 155.47 143.94 C 156.41 144.40 157.55 144.01 158.01 143.07 L 158.42 142.21 C 158.88 141.27 158.48 140.13 157.54 139.67 C 156.60 139.22 155.46 139.61 155.01 140.55 Z M 154.59 141.42 L 154.17 142.29 C 153.72 143.24 154.12 144.37 155.06 144.82 C 156.01 145.27 157.14 144.87 157.59 143.93 L 158.01 143.05 C 158.46 142.11 158.06 140.98 157.11 140.53 C 156.17 140.08 155.04 140.48 154.59 141.42 Z M 154.17 142.30 L 153.75 143.19 C 153.31 144.14 153.71 145.26 154.65 145.71 C 155.60 146.16 156.73 145.75 157.17 144.81 L 157.59 143.92 C 158.04 142.97 157.63 141.84 156.69 141.40 C 155.74 140.95 154.62 141.36 154.17 142.30 Z M 153.75 143.20 L 153.33 144.11 C 152.88 145.05 153.29 146.18 154.24 146.62 C 155.18 147.06 156.30 146.65 156.75 145.71 L 157.17 144.80 C 157.61 143.86 157.21 142.73 156.26 142.29 C 155.32 141.85 154.19 142.26 153.75 143.20 Z M 153.33 144.11 L 152.90 145.04 C 152.46 145.99 152.87 147.11 153.81 147.55 C 154.75 147.99 155.87 147.58 156.31 146.63 L 156.74 145.70 C 157.18 144.76 156.77 143.64 155.83 143.20 C 154.89 142.76 153.77 143.17 153.33 144.11 Z M 152.90 145.05 L 152.46 145.99 C 152.02 146.94 152.43 148.06 153.37 148.49 C 154.31 148.93 155.43 148.52 155.87 147.58 L 156.31 146.63 C 156.75 145.69 156.34 144.57 155.40 144.13 C 154.45 143.69 153.33 144.10 152.90 145.05 Z M 152.46 146.00 L 152.04 146.91 C 151.60 147.85 152.01 148.96 152.95 149.40 C 153.89 149.84 155.01 149.43 155.44 148.49 L 155.87 147.58 C 156.30 146.64 155.90 145.52 154.95 145.08 C 154.01 144.65 152.90 145.05 152.46 146.00 Z M 152.04 146.91 L 151.63 147.80 C 151.19 148.74 151.60 149.85 152.53 150.29 C 153.47 150.73 154.59 150.32 155.03 149.38 L 155.44 148.49 C 155.88 147.55 155.47 146.43 154.53 146.00 C 153.59 145.56 152.48 145.97 152.04 146.91 Z M 151.63 147.80 L 151.21 148.70 C 150.77 149.64 151.18 150.75 152.11 151.19 C 153.05 151.62 154.16 151.22 154.60 150.28 L 155.02 149.38 C 155.46 148.44 155.05 147.33 154.12 146.89 C 153.18 146.45 152.07 146.86 151.63 147.80 Z M 151.21 148.70 L 150.79 149.61 C 150.35 150.54 150.75 151.65 151.68 152.09 C 152.62 152.53 153.73 152.13 154.17 151.19 L 154.60 150.28 C 155.03 149.35 154.63 148.24 153.70 147.80 C 152.76 147.36 151.65 147.76 151.21 148.70 Z M 150.79 149.60 L 150.36 150.52 C 149.92 151.45 150.32 152.56 151.25 153.00 C 152.18 153.44 153.29 153.04 153.73 152.11 L 154.16 151.20 C 154.60 150.26 154.21 149.15 153.27 148.71 C 152.34 148.27 151.23 148.67 150.79 149.60 Z M 150.36 150.52 L 149.93 151.43 C 149.49 152.36 149.88 153.47 150.81 153.91 C 151.74 154.35 152.85 153.96 153.29 153.03 L 153.73 152.11 C 154.17 151.18 153.77 150.07 152.85 149.63 C 151.92 149.19 150.81 149.59 150.36 150.52 Z M 149.94 151.43 L 149.50 152.34 C 149.06 153.26 149.45 154.37 150.37 154.82 C 151.30 155.26 152.41 154.87 152.85 153.94 L 153.29 153.03 C 153.73 152.11 153.34 151.00 152.41 150.55 C 151.49 150.11 150.38 150.50 149.94 151.43 Z M 149.51 152.33 L 149.06 153.25 C 148.62 154.17 149.01 155.28 149.93 155.72 C 150.85 156.17 151.96 155.78 152.41 154.86 L 152.85 153.95 C 153.29 153.02 152.91 151.92 151.98 151.47 C 151.06 151.02 149.95 151.41 149.51 152.33 Z M 149.07 153.24 L 148.63 154.15 C 148.18 155.07 148.56 156.18 149.48 156.63 C 150.40 157.07 151.51 156.69 151.95 155.78 L 152.40 154.86 C 152.85 153.95 152.47 152.84 151.55 152.39 C 150.63 151.94 149.52 152.32 149.07 153.24 Z M 148.64 154.15 L 148.19 155.05 C 147.74 155.96 148.11 157.07 149.03 157.52 C 149.94 157.97 151.05 157.60 151.50 156.68 L 151.95 155.78 C 152.40 154.87 152.02 153.76 151.11 153.31 C 150.19 152.86 149.09 153.23 148.64 154.15 Z M 148.20 155.04 L 147.75 155.94 C 147.30 156.85 147.67 157.95 148.58 158.41 C 149.48 158.86 150.59 158.49 151.04 157.58 L 151.49 156.69 C 151.95 155.78 151.58 154.67 150.67 154.22 C 149.76 153.76 148.65 154.13 148.20 155.04 Z M 147.76 155.93 L 147.31 156.82 C 146.85 157.72 147.22 158.83 148.12 159.29 C 149.02 159.74 150.13 159.38 150.59 158.48 L 151.04 157.59 C 151.49 156.68 151.13 155.58 150.23 155.12 C 149.32 154.66 148.22 155.03 147.76 155.93 Z M 147.32 156.81 L 146.87 157.70 C 146.41 158.59 146.76 159.70 147.66 160.16 C 148.56 160.62 149.66 160.27 150.13 159.37 L 150.58 158.48 C 151.04 157.58 150.68 156.48 149.78 156.02 C 148.88 155.56 147.78 155.91 147.32 156.81 Z M 146.88 157.69 L 146.42 158.56 C 145.95 159.46 146.30 160.56 147.20 161.03 C 148.09 161.49 149.19 161.14 149.66 160.25 L 150.12 159.37 C 150.58 158.48 150.23 157.38 149.34 156.91 C 148.44 156.45 147.34 156.79 146.88 157.69 Z M 146.43 158.56 L 145.97 159.43 C 145.50 160.32 145.84 161.42 146.73 161.89 C 147.62 162.36 148.72 162.02 149.19 161.13 L 149.65 160.26 C 150.12 159.37 149.78 158.27 148.89 157.80 C 148.00 157.33 146.90 157.67 146.43 158.56 Z M 145.98 159.43 L 145.51 160.30 C 145.03 161.18 145.37 162.29 146.25 162.76 C 147.13 163.23 148.23 162.90 148.71 162.02 L 149.18 161.14 C 149.65 160.26 149.32 159.16 148.44 158.68 C 147.55 158.21 146.45 158.54 145.98 159.43 Z M 145.52 160.29 L 145.04 161.17 C 144.56 162.04 144.89 163.14 145.77 163.62 C 146.65 164.10 147.74 163.78 148.22 162.90 L 148.70 162.02 C 149.18 161.15 148.85 160.05 147.97 159.57 C 147.10 159.09 146.00 159.42 145.52 160.29 Z M 145.05 161.16 L 144.57 162.03 C 144.09 162.90 144.41 164.00 145.28 164.48 C 146.15 164.97 147.25 164.65 147.73 163.78 L 148.21 162.90 C 148.69 162.03 148.38 160.93 147.51 160.45 C 146.63 159.97 145.53 160.29 145.05 161.16 Z M 144.58 162.02 L 144.09 162.90 C 143.61 163.76 143.92 164.86 144.78 165.35 C 145.65 165.83 146.75 165.52 147.23 164.66 L 147.72 163.78 C 148.21 162.92 147.90 161.82 147.03 161.33 C 146.16 160.85 145.07 161.16 144.58 162.02 Z M 144.10 162.89 L 143.61 163.76 C 143.12 164.62 143.42 165.72 144.28 166.21 C 145.14 166.70 146.24 166.40 146.73 165.54 L 147.22 164.66 C 147.71 163.80 147.41 162.71 146.55 162.22 C 145.69 161.73 144.59 162.03 144.10 162.89 Z M 143.62 163.76 L 143.11 164.63 C 142.62 165.49 142.91 166.58 143.77 167.08 C 144.63 167.57 145.72 167.27 146.21 166.42 L 146.72 165.54 C 147.21 164.69 146.92 163.59 146.06 163.10 C 145.20 162.61 144.11 162.90 143.62 163.76 Z M 143.12 164.63 L 142.62 165.49 C 142.12 166.34 142.41 167.43 143.26 167.93 C 144.11 168.43 145.20 168.14 145.70 167.29 L 146.20 166.42 C 146.70 165.57 146.41 164.48 145.56 163.99 C 144.71 163.49 143.62 163.78 143.12 164.63 Z M 142.63 165.49 L 142.12 166.34 C 141.62 167.19 141.90 168.28 142.75 168.78 C 143.59 169.28 144.68 169.00 145.18 168.15 L 145.69 167.29 C 146.19 166.45 145.91 165.36 145.06 164.86 C 144.22 164.36 143.13 164.64 142.63 165.49 Z M 142.13 166.34 L 141.62 167.20 C 141.12 168.04 141.39 169.13 142.23 169.63 C 143.07 170.13 144.16 169.86 144.66 169.02 L 145.17 168.16 C 145.67 167.32 145.40 166.23 144.56 165.73 C 143.72 165.23 142.63 165.50 142.13 166.34 Z M 141.63 167.20 L 141.11 168.06 C 140.60 168.89 140.87 169.97 141.71 170.48 C 142.54 170.98 143.62 170.71 144.13 169.88 L 144.65 169.02 C 145.15 168.19 144.88 167.10 144.05 166.60 C 143.22 166.09 142.13 166.36 141.63 167.20 Z M 141.12 168.05 L 140.59 168.91 C 140.09 169.74 140.35 170.82 141.18 171.32 C 142.01 171.83 143.09 171.57 143.59 170.74 L 144.12 169.88 C 144.62 169.06 144.36 167.97 143.53 167.47 C 142.71 166.96 141.62 167.22 141.12 168.05 Z M 140.60 168.91 L 140.08 169.76 C 139.57 170.58 139.83 171.66 140.65 172.17 C 141.47 172.67 142.55 172.42 143.06 171.60 L 143.58 170.74 C 144.09 169.92 143.84 168.84 143.01 168.34 C 142.19 167.83 141.11 168.08 140.60 168.91 Z M 140.09 169.75 L 139.56 170.60 C 139.05 171.42 139.30 172.49 140.12 173.00 C 140.93 173.51 142.01 173.26 142.52 172.45 L 143.05 171.60 C 143.56 170.78 143.31 169.71 142.49 169.20 C 141.67 168.69 140.60 168.94 140.09 169.75 Z M 139.57 170.60 L 139.04 171.45 C 138.52 172.26 138.77 173.33 139.58 173.84 C 140.39 174.35 141.46 174.11 141.97 173.30 L 142.51 172.45 C 143.02 171.64 142.78 170.57 141.97 170.05 C 141.15 169.54 140.08 169.79 139.57 170.60 Z M 139.05 171.44 L 138.51 172.29 C 137.99 173.10 138.23 174.17 139.03 174.68 C 139.84 175.19 140.91 174.96 141.42 174.15 L 141.96 173.30 C 142.48 172.50 142.24 171.43 141.44 170.91 C 140.63 170.40 139.56 170.64 139.05 171.44 Z M 138.52 172.28 L 137.97 173.12 C 137.46 173.92 137.69 174.99 138.49 175.51 C 139.29 176.02 140.35 175.79 140.87 174.99 L 141.41 174.15 C 141.93 173.35 141.70 172.29 140.90 171.77 C 140.10 171.26 139.03 171.49 138.52 172.28 Z M 137.98 173.12 L 137.44 173.95 C 136.92 174.75 137.14 175.81 137.94 176.33 C 138.73 176.85 139.79 176.63 140.31 175.83 L 140.86 175.00 C 141.38 174.21 141.16 173.14 140.36 172.62 C 139.57 172.10 138.50 172.33 137.98 173.12 Z M 137.45 173.95 L 136.90 174.78 C 136.38 175.57 136.59 176.63 137.38 177.15 C 138.17 177.67 139.23 177.46 139.75 176.67 L 140.30 175.84 C 140.82 175.05 140.61 173.99 139.82 173.47 C 139.03 172.95 137.97 173.16 137.45 173.95 Z M 136.91 174.77 L 136.36 175.60 C 135.83 176.38 136.04 177.44 136.82 177.96 C 137.60 178.49 138.66 178.28 139.18 177.50 L 139.74 176.68 C 140.27 175.89 140.06 174.84 139.28 174.31 C 138.50 173.78 137.44 173.99 136.91 174.77 Z M 136.37 175.59 L 135.80 176.42 C 135.28 177.19 135.47 178.25 136.25 178.78 C 137.02 179.31 138.08 179.11 138.61 178.33 L 139.17 177.51 C 139.70 176.73 139.50 175.68 138.73 175.15 C 137.95 174.62 136.90 174.82 136.37 175.59 Z M 135.82 176.41 L 135.26 177.22 C 134.72 177.99 134.91 179.04 135.68 179.57 C 136.45 180.11 137.50 179.91 138.04 179.15 L 138.60 178.34 C 139.13 177.57 138.94 176.52 138.17 175.99 C 137.40 175.45 136.35 175.64 135.82 176.41 Z M 135.27 177.21 L 134.71 178.01 C 134.17 178.77 134.35 179.82 135.11 180.36 C 135.87 180.90 136.92 180.71 137.46 179.95 L 138.02 179.15 C 138.56 178.39 138.38 177.34 137.62 176.81 C 136.86 176.27 135.80 176.45 135.27 177.21 Z M 134.72 178.01 L 134.14 178.81 C 133.61 179.56 133.78 180.61 134.53 181.15 C 135.29 181.69 136.34 181.51 136.88 180.76 L 137.45 179.96 C 137.99 179.20 137.81 178.16 137.06 177.62 C 136.30 177.08 135.26 177.25 134.72 178.01 Z M 134.16 178.80 L 133.57 179.61 C 133.03 180.35 133.20 181.40 133.95 181.94 C 134.69 182.48 135.74 182.32 136.28 181.57 L 136.86 180.76 C 137.41 180.02 137.24 178.97 136.49 178.43 C 135.74 177.89 134.70 178.05 134.16 178.80 Z M 133.58 179.60 L 132.99 180.41 C 132.45 181.15 132.61 182.20 133.35 182.74 C 134.09 183.28 135.13 183.12 135.68 182.38 L 136.27 181.57 C 136.82 180.83 136.66 179.79 135.91 179.24 C 135.17 178.70 134.13 178.86 133.58 179.60 Z M 133.00 180.41 L 132.40 181.22 C 131.85 181.96 132.00 183.00 132.74 183.54 C 133.48 184.09 134.52 183.94 135.06 183.20 L 135.67 182.39 C 136.21 181.65 136.06 180.61 135.32 180.06 C 134.59 179.52 133.55 179.67 133.00 180.41 Z M 132.41 181.22 L 131.79 182.04 C 131.24 182.77 131.39 183.81 132.12 184.35 C 132.85 184.90 133.89 184.75 134.43 184.02 L 135.05 183.20 C 135.60 182.47 135.45 181.44 134.72 180.89 C 133.99 180.34 132.96 180.49 132.41 181.22 Z M 131.80 182.04 L 131.18 182.85 C 130.63 183.57 130.77 184.61 131.50 185.16 C 132.22 185.71 133.26 185.57 133.81 184.84 L 134.42 184.03 C 134.98 183.30 134.83 182.27 134.11 181.72 C 133.38 181.17 132.35 181.31 131.80 182.04 Z M 131.19 182.84 L 130.58 183.65 C 130.03 184.37 130.16 185.40 130.88 185.95 C 131.60 186.50 132.63 186.36 133.18 185.64 L 133.80 184.84 C 134.35 184.12 134.22 183.09 133.50 182.54 C 132.78 181.99 131.74 182.12 131.19 182.84 Z M 130.59 183.64 L 129.96 184.44 C 129.41 185.16 129.54 186.19 130.25 186.74 C 130.97 187.30 132.00 187.17 132.55 186.45 L 133.17 185.65 C 133.73 184.93 133.60 183.91 132.88 183.35 C 132.17 182.80 131.14 182.93 130.59 183.64 Z M 129.98 184.44 L 129.35 185.24 C 128.79 185.94 128.91 186.97 129.62 187.53 C 130.33 188.09 131.36 187.96 131.91 187.25 L 132.54 186.46 C 133.10 185.75 132.98 184.72 132.27 184.16 C 131.56 183.61 130.53 183.73 129.98 184.44 Z M 129.36 185.23 L 128.73 186.02 C 128.17 186.72 128.28 187.75 128.98 188.31 C 129.69 188.87 130.71 188.75 131.27 188.05 L 131.90 187.26 C 132.46 186.56 132.35 185.53 131.65 184.97 C 130.94 184.41 129.92 184.53 129.36 185.23 Z M 128.74 186.01 L 128.11 186.79 C 127.55 187.48 127.65 188.51 128.35 189.07 C 129.04 189.64 130.06 189.53 130.63 188.83 L 131.26 188.06 C 131.82 187.36 131.72 186.34 131.02 185.78 C 130.33 185.21 129.31 185.32 128.74 186.01 Z M 128.12 186.78 L 127.50 187.54 C 126.93 188.23 127.02 189.24 127.71 189.81 C 128.40 190.38 129.42 190.29 129.99 189.60 L 130.62 188.84 C 131.18 188.15 131.09 187.14 130.40 186.57 C 129.71 186.00 128.69 186.09 128.12 186.78 Z M 127.51 187.53 L 126.89 188.26 C 126.31 188.94 126.40 189.96 127.08 190.54 C 127.76 191.11 128.77 191.03 129.35 190.35 L 129.97 189.61 C 130.55 188.93 130.46 187.91 129.78 187.34 C 129.10 186.76 128.09 186.85 127.51 187.53 Z M 126.91 188.25 L 126.20 189.06 C 125.62 189.73 125.69 190.74 126.36 191.32 C 127.03 191.91 128.05 191.84 128.63 191.17 L 129.33 190.36 C 129.91 189.69 129.84 188.67 129.17 188.09 C 128.50 187.51 127.49 187.58 126.91 188.25 Z M 126.22 189.04 L 125.53 189.82 C 124.94 190.48 124.99 191.49 125.65 192.08 C 126.31 192.67 127.33 192.61 127.92 191.95 L 128.61 191.18 C 129.20 190.52 129.15 189.51 128.49 188.92 C 127.83 188.33 126.81 188.38 126.22 189.04 Z M 125.55 189.80 L 124.86 190.55 C 124.26 191.19 124.31 192.21 124.95 192.81 C 125.60 193.40 126.62 193.36 127.21 192.71 L 127.90 191.97 C 128.50 191.32 128.46 190.31 127.81 189.71 C 127.16 189.11 126.15 189.15 125.55 189.80 Z M 124.88 190.53 L 124.20 191.25 C 123.59 191.89 123.62 192.90 124.26 193.50 C 124.90 194.11 125.91 194.08 126.52 193.44 L 127.20 192.73 C 127.80 192.09 127.77 191.08 127.14 190.47 C 126.50 189.87 125.49 189.89 124.88 190.53 Z M 124.22 191.24 L 123.54 191.93 C 122.93 192.56 122.94 193.57 123.57 194.18 C 124.20 194.79 125.21 194.78 125.82 194.15 L 126.50 193.46 C 127.11 192.83 127.10 191.82 126.47 191.21 C 125.84 190.59 124.83 190.61 124.22 191.24 Z M 123.56 191.92 L 122.89 192.59 C 122.27 193.21 122.27 194.22 122.89 194.84 C 123.51 195.46 124.51 195.46 125.13 194.84 L 125.80 194.16 C 126.42 193.54 126.42 192.54 125.80 191.92 C 125.18 191.30 124.18 191.30 123.56 191.92 Z M 122.90 192.58 L 122.20 193.27 C 121.57 193.88 121.56 194.88 122.17 195.51 C 122.78 196.13 123.78 196.14 124.41 195.53 L 125.11 194.85 C 125.74 194.24 125.75 193.24 125.14 192.61 C 124.53 191.98 123.53 191.97 122.90 192.58 Z M 122.22 193.26 L 121.48 193.96 C 120.84 194.56 120.82 195.56 121.42 196.19 C 122.02 196.82 123.02 196.85 123.65 196.25 L 124.39 195.55 C 125.03 194.95 125.05 193.95 124.45 193.31 C 123.85 192.68 122.85 192.66 122.22 193.26 Z M 121.50 193.95 L 120.75 194.63 C 120.11 195.22 120.07 196.22 120.66 196.86 C 121.26 197.50 122.25 197.54 122.89 196.95 L 123.63 196.26 C 124.27 195.67 124.31 194.67 123.72 194.03 C 123.13 193.40 122.13 193.36 121.50 193.95 Z M 120.77 194.62 L 120.03 195.28 C 119.38 195.86 119.33 196.86 119.91 197.50 C 120.49 198.15 121.48 198.21 122.13 197.63 L 122.87 196.96 C 123.52 196.38 123.58 195.39 123.00 194.74 C 122.42 194.09 121.42 194.04 120.77 194.62 Z M 120.05 195.27 L 119.30 195.91 C 118.65 196.48 118.58 197.48 119.14 198.13 C 119.71 198.79 120.70 198.86 121.36 198.29 L 122.11 197.64 C 122.76 197.07 122.83 196.08 122.27 195.43 C 121.70 194.77 120.71 194.70 120.05 195.27 Z M 119.33 195.90 L 118.57 196.53 C 117.91 197.08 117.82 198.07 118.38 198.74 C 118.93 199.40 119.92 199.49 120.58 198.93 L 121.34 198.31 C 122.00 197.75 122.09 196.76 121.53 196.10 C 120.98 195.43 119.99 195.34 119.33 195.90 Z M 118.60 196.51 L 117.86 197.10 C 117.19 197.64 117.08 198.63 117.63 199.30 C 118.17 199.98 119.16 200.08 119.83 199.54 L 120.56 198.95 C 121.23 198.41 121.34 197.42 120.80 196.75 C 120.26 196.08 119.27 195.97 118.60 196.51 Z M 117.89 197.08 L 117.17 197.64 C 116.49 198.17 116.36 199.15 116.89 199.83 C 117.42 200.52 118.40 200.64 119.08 200.12 L 119.80 199.56 C 120.49 199.03 120.61 198.05 120.09 197.36 C 119.56 196.68 118.57 196.55 117.89 197.08 Z M 117.20 197.62 L 116.45 198.17 C 115.76 198.68 115.61 199.66 116.12 200.35 C 116.63 201.05 117.61 201.20 118.31 200.69 L 119.05 200.14 C 119.75 199.62 119.90 198.65 119.39 197.95 C 118.88 197.25 117.90 197.10 117.20 197.62 Z M 116.49 198.14 L 115.70 198.69 C 114.99 199.19 114.81 200.16 115.31 200.87 C 115.80 201.58 116.78 201.75 117.48 201.26 L 118.27 200.71 C 118.98 200.22 119.16 199.24 118.66 198.53 C 118.17 197.82 117.20 197.65 116.49 198.14 Z M 115.73 198.67 L 114.88 199.23 C 114.16 199.70 113.96 200.67 114.44 201.39 C 114.91 202.11 115.88 202.31 116.60 201.84 L 117.45 201.28 C 118.17 200.81 118.37 199.84 117.90 199.12 C 117.42 198.40 116.45 198.19 115.73 198.67 Z M 114.92 199.20 L 114.00 199.78 C 113.27 200.23 113.04 201.19 113.49 201.93 C 113.95 202.66 114.91 202.89 115.65 202.43 L 116.57 201.86 C 117.30 201.41 117.53 200.44 117.07 199.71 C 116.62 198.98 115.65 198.75 114.92 199.20 Z M 114.03 199.76 L 113.05 200.33 C 112.31 200.77 112.06 201.73 112.49 202.47 C 112.93 203.22 113.89 203.46 114.63 203.03 L 115.61 202.45 C 116.36 202.01 116.61 201.06 116.17 200.31 C 115.73 199.57 114.78 199.32 114.03 199.76 Z M 113.08 200.32 L 112.31 200.75 C 111.56 201.17 111.29 202.12 111.72 202.87 C 112.14 203.63 113.09 203.89 113.84 203.47 L 114.61 203.04 C 115.36 202.62 115.63 201.67 115.20 200.91 C 114.78 200.16 113.83 199.90 113.08 200.32 Z M 112.33 200.74 L 111.52 201.18 C 110.77 201.59 110.49 202.54 110.90 203.30 C 111.31 204.05 112.26 204.33 113.02 203.92 L 113.83 203.48 C 114.58 203.07 114.86 202.12 114.45 201.36 C 114.04 200.60 113.09 200.32 112.33 200.74 Z M 111.54 201.17 L 110.69 201.62 C 109.93 202.03 109.64 202.97 110.05 203.73 C 110.45 204.50 111.40 204.78 112.16 204.38 L 113.01 203.93 C 113.77 203.52 114.06 202.58 113.65 201.81 C 113.24 201.05 112.30 200.77 111.54 201.17 Z M 110.70 201.62 L 109.82 202.08 C 109.06 202.47 108.76 203.42 109.16 204.18 C 109.56 204.95 110.51 205.24 111.27 204.84 L 112.15 204.38 C 112.91 203.98 113.21 203.04 112.81 202.28 C 112.41 201.51 111.47 201.22 110.70 201.62 Z M 109.83 202.07 L 108.93 202.54 C 108.16 202.93 107.86 203.87 108.25 204.64 C 108.65 205.41 109.59 205.71 110.36 205.31 L 111.26 204.85 C 112.03 204.45 112.33 203.51 111.94 202.74 C 111.54 201.98 110.60 201.68 109.83 202.07 Z M 108.93 202.53 L 108.01 203.01 C 107.24 203.40 106.93 204.34 107.32 205.11 C 107.71 205.87 108.65 206.18 109.42 205.79 L 110.35 205.32 C 111.12 204.93 111.42 203.99 111.03 203.22 C 110.64 202.45 109.70 202.14 108.93 202.53 Z M 108.01 203.00 L 107.07 203.48 C 106.30 203.87 105.99 204.81 106.38 205.58 C 106.76 206.35 107.70 206.66 108.47 206.27 L 109.42 205.79 C 110.19 205.40 110.50 204.46 110.11 203.69 C 109.72 202.93 108.78 202.62 108.01 203.00 Z M 107.07 203.48 L 106.11 203.96 C 105.34 204.35 105.03 205.28 105.42 206.05 C 105.80 206.83 106.74 207.14 107.51 206.75 L 108.47 206.27 C 109.24 205.88 109.55 204.95 109.16 204.17 C 108.78 203.40 107.84 203.09 107.07 203.48 Z M 106.11 203.96 L 105.15 204.44 C 104.38 204.83 104.07 205.76 104.45 206.53 C 104.84 207.31 105.78 207.62 106.55 207.23 L 107.51 206.75 C 108.28 206.36 108.59 205.43 108.21 204.66 C 107.82 203.89 106.89 203.57 106.11 203.96 Z M 105.15 204.44 L 105.09 204.47 C 104.31 204.86 104.00 205.80 104.39 206.57 C 104.77 207.34 105.71 207.65 106.48 207.27 L 106.55 207.23 C 107.32 206.85 107.63 205.91 107.25 205.14 C 106.86 204.37 105.92 204.05 105.15 204.44 Z"
      fill="black"
      fill-rule="nonzero" /><path d="M 76.02 197.23 L 77.07 197.23 C 78.02 197.23 78.79 196.46 78.79 195.51 C 78.79 194.56 78.02 193.79 77.07 193.79 L 76.02 193.79 C 75.07 193.79 74.30 194.56 74.30 195.51 C 74.30 196.46 75.07 197.23 76.02 197.23 Z M 77.07 197.28 L 78.11 197.28 C 79.09 197.28 79.89 196.49 79.89 195.51 C 79.89 194.53 79.09 193.73 78.11 193.73 L 77.07 193.73 C 76.09 193.73 75.29 194.53 75.29 195.51 C 75.29 196.49 76.09 197.28 77.07 197.28 Z M 78.11 197.34 L 79.15 197.34 C 80.16 197.34 80.98 196.52 80.98 195.51 C 80.98 194.50 80.16 193.68 79.15 193.68 L 78.11 193.68 C 77.10 193.68 76.29 194.50 76.29 195.51 C 76.29 196.52 77.10 197.34 78.11 197.34 Z M 79.15 197.39 L 80.17 197.39 C 81.21 197.39 82.05 196.55 82.05 195.51 C 82.05 194.47 81.21 193.62 80.17 193.62 L 79.15 193.62 C 78.11 193.62 77.27 194.47 77.27 195.51 C 77.27 196.55 78.11 197.39 79.15 197.39 Z M 80.17 197.44 L 81.17 197.44 C 82.24 197.44 83.11 196.58 83.11 195.51 C 83.11 194.44 82.24 193.57 81.17 193.57 L 80.17 193.57 C 79.10 193.57 78.23 194.44 78.23 195.51 C 78.23 196.58 79.10 197.44 80.17 197.44 Z M 81.17 197.50 L 82.14 197.50 C 83.24 197.50 84.13 196.61 84.13 195.51 C 84.13 194.41 83.24 193.52 82.14 193.52 L 81.17 193.52 C 80.07 193.52 79.18 194.41 79.18 195.51 C 79.18 196.61 80.07 197.50 81.17 197.50 Z M 82.14 197.55 L 83.08 197.55 C 84.21 197.55 85.13 196.64 85.13 195.51 C 85.13 194.38 84.21 193.46 83.08 193.46 L 82.14 193.46 C 81.01 193.46 80.10 194.38 80.10 195.51 C 80.10 196.64 81.01 197.55 82.14 197.55 Z M 83.08 197.60 L 84.03 197.60 C 85.19 197.60 86.12 196.66 86.12 195.51 C 86.12 194.35 85.19 193.41 84.03 193.41 L 83.08 193.41 C 81.93 193.41 80.99 194.35 80.99 195.51 C 80.99 196.66 81.93 197.60 83.08 197.60 Z M 84.03 197.62 L 85.06 197.62 C 86.22 197.62 87.17 196.67 87.17 195.51 C 87.17 194.34 86.22 193.39 85.06 193.39 L 84.03 193.39 C 82.86 193.39 81.92 194.34 81.92 195.51 C 81.92 196.67 82.86 197.62 84.03 197.62 Z M 85.06 197.62 L 86.05 197.62 C 87.21 197.62 88.16 196.68 88.16 195.51 C 88.16 194.34 87.21 193.39 86.05 193.39 L 85.06 193.39 C 83.89 193.39 82.94 194.34 82.94 195.51 C 82.94 196.68 83.89 197.62 85.06 197.62 Z M 86.05 197.62 L 87.02 197.62 C 88.19 197.62 89.13 196.68 89.13 195.51 C 89.13 194.34 88.19 193.39 87.02 193.39 L 86.05 193.39 C 84.88 193.39 83.93 194.34 83.93 195.51 C 83.93 196.68 84.88 197.62 86.05 197.62 Z M 87.02 197.62 L 87.99 197.62 C 89.16 197.62 90.11 196.68 90.11 195.51 C 90.11 194.34 89.16 193.39 87.99 193.39 L 87.02 193.39 C 85.85 193.39 84.90 194.34 84.90 195.51 C 84.90 196.68 85.85 197.62 87.02 197.62 Z M 87.99 197.63 L 88.98 197.63 C 90.15 197.63 91.10 196.68 91.10 195.51 C 91.10 194.34 90.15 193.39 88.98 193.39 L 87.99 193.39 C 86.82 193.39 85.87 194.34 85.87 195.51 C 85.87 196.68 86.82 197.63 87.99 197.63 Z M 88.98 197.63 L 90.00 197.63 C 91.17 197.63 92.12 196.68 92.12 195.51 C 92.12 194.34 91.17 193.39 90.00 193.39 L 88.98 193.39 C 87.81 193.39 86.86 194.34 86.86 195.51 C 86.86 196.68 87.81 197.63 88.98 197.63 Z M 90.00 197.63 L 90.92 197.63 C 92.10 197.63 93.05 196.68 93.05 195.51 C 93.05 194.34 92.10 193.39 90.92 193.39 L 90.00 193.39 C 88.83 193.39 87.88 194.34 87.88 195.51 C 87.88 196.68 88.83 197.63 90.00 197.63 Z M 90.92 197.63 L 91.82 197.63 C 92.99 197.63 93.94 196.68 93.95 195.51 C 93.95 194.34 93.00 193.39 91.82 193.39 L 90.93 193.39 C 89.75 193.38 88.80 194.33 88.80 195.51 C 88.80 196.68 89.75 197.63 90.92 197.63 Z M 91.82 197.63 L 92.76 197.63 C 93.93 197.63 94.88 196.68 94.88 195.51 C 94.88 194.34 93.93 193.39 92.76 193.39 L 91.83 193.39 C 90.65 193.38 89.70 194.33 89.70 195.51 C 89.70 196.68 90.65 197.63 91.82 197.63 Z M 92.75 197.63 L 93.73 197.63 C 94.90 197.64 95.85 196.69 95.85 195.52 C 95.85 194.34 94.91 193.39 93.73 193.39 L 92.76 193.39 C 91.59 193.38 90.64 194.33 90.64 195.50 C 90.63 196.68 91.58 197.63 92.75 197.63 Z M 93.72 197.63 L 94.73 197.64 C 95.90 197.64 96.85 196.69 96.86 195.52 C 96.86 194.35 95.92 193.40 94.74 193.39 L 93.74 193.39 C 92.56 193.38 91.61 194.33 91.61 195.50 C 91.60 196.68 92.55 197.63 93.72 197.63 Z M 94.72 197.64 L 95.77 197.64 C 96.94 197.65 97.89 196.70 97.90 195.53 C 97.91 194.36 96.96 193.40 95.79 193.40 L 94.75 193.39 C 93.57 193.38 92.62 194.33 92.61 195.50 C 92.61 196.68 93.55 197.63 94.72 197.64 Z M 95.76 197.64 L 96.84 197.65 C 98.01 197.66 98.97 196.72 98.98 195.54 C 98.98 194.37 98.04 193.41 96.87 193.40 L 95.79 193.40 C 94.62 193.39 93.66 194.33 93.65 195.50 C 93.64 196.68 94.59 197.63 95.76 197.64 Z M 96.83 197.65 L 97.94 197.66 C 99.11 197.67 100.07 196.73 100.09 195.56 C 100.10 194.39 99.16 193.43 97.98 193.41 L 96.87 193.40 C 95.70 193.39 94.74 194.33 94.73 195.51 C 94.72 196.68 95.66 197.64 96.83 197.65 Z M 97.94 197.66 L 98.95 197.67 C 100.12 197.69 101.08 196.75 101.10 195.58 C 101.11 194.40 100.17 193.44 99.00 193.43 L 97.99 193.41 C 96.81 193.40 95.85 194.34 95.84 195.51 C 95.82 196.69 96.76 197.65 97.94 197.66 Z M 98.94 197.67 L 99.88 197.69 C 101.05 197.70 102.02 196.77 102.03 195.59 C 102.05 194.42 101.11 193.46 99.94 193.44 L 99.00 193.43 C 97.83 193.41 96.86 194.35 96.85 195.52 C 96.83 196.69 97.77 197.66 98.94 197.67 Z M 99.88 197.69 L 100.83 197.70 C 102.01 197.72 102.97 196.79 102.99 195.61 C 103.01 194.44 102.08 193.47 100.90 193.45 L 99.94 193.44 C 98.77 193.42 97.81 194.36 97.79 195.53 C 97.77 196.70 98.70 197.67 99.88 197.69 Z M 100.83 197.70 L 101.81 197.72 C 102.98 197.74 103.95 196.81 103.97 195.63 C 103.99 194.46 103.06 193.49 101.88 193.47 L 100.91 193.46 C 99.73 193.43 98.77 194.37 98.74 195.54 C 98.72 196.71 99.66 197.68 100.83 197.70 Z M 101.80 197.72 L 102.79 197.74 C 103.97 197.76 104.94 196.83 104.96 195.66 C 104.98 194.49 104.05 193.52 102.88 193.49 L 101.89 193.47 C 100.71 193.45 99.74 194.38 99.72 195.55 C 99.70 196.73 100.63 197.70 101.80 197.72 Z M 102.79 197.74 L 103.80 197.76 C 104.97 197.79 105.94 196.86 105.97 195.68 C 105.99 194.51 105.06 193.54 103.89 193.51 L 102.88 193.49 C 101.71 193.47 100.74 194.40 100.71 195.57 C 100.69 196.74 101.62 197.71 102.79 197.74 Z M 103.79 197.76 L 104.81 197.79 C 105.98 197.81 106.96 196.89 106.99 195.71 C 107.01 194.54 106.08 193.57 104.91 193.54 L 103.89 193.51 C 102.72 193.49 101.75 194.42 101.72 195.59 C 101.69 196.76 102.62 197.73 103.79 197.76 Z M 104.81 197.79 L 105.84 197.81 C 107.01 197.84 107.99 196.92 108.02 195.74 C 108.05 194.57 107.12 193.59 105.95 193.57 L 104.92 193.54 C 103.74 193.51 102.77 194.44 102.74 195.61 C 102.71 196.78 103.64 197.76 104.81 197.79 Z M 105.84 197.81 L 106.88 197.84 C 108.05 197.87 109.03 196.95 109.06 195.77 C 109.09 194.60 108.17 193.63 106.99 193.59 L 105.95 193.57 C 104.78 193.53 103.80 194.46 103.77 195.63 C 103.74 196.80 104.66 197.78 105.84 197.81 Z M 106.87 197.84 L 107.92 197.87 C 109.10 197.90 110.07 196.98 110.11 195.81 C 110.14 194.64 109.22 193.66 108.05 193.62 L 107.00 193.59 C 105.82 193.56 104.85 194.48 104.81 195.66 C 104.78 196.83 105.70 197.81 106.87 197.84 Z M 107.92 197.87 L 108.94 197.90 C 110.11 197.94 111.09 197.02 111.13 195.84 C 111.16 194.67 110.24 193.69 109.07 193.66 L 108.05 193.62 C 106.88 193.59 105.90 194.51 105.86 195.68 C 105.83 196.85 106.75 197.83 107.92 197.87 Z M 108.93 197.90 L 109.91 197.93 C 111.08 197.97 112.06 197.05 112.10 195.88 C 112.14 194.71 111.22 193.73 110.05 193.69 L 109.07 193.66 C 107.90 193.62 106.92 194.54 106.88 195.71 C 106.84 196.88 107.76 197.86 108.93 197.90 Z M 109.91 197.93 L 110.89 197.97 C 112.06 198.01 113.05 197.09 113.09 195.92 C 113.12 194.74 112.21 193.76 111.04 193.72 L 110.05 193.69 C 108.88 193.65 107.90 194.57 107.86 195.74 C 107.82 196.91 108.74 197.89 109.91 197.93 Z M 110.89 197.97 L 111.88 198.00 C 113.05 198.04 114.03 197.12 114.07 195.95 C 114.11 194.78 113.20 193.80 112.03 193.76 L 111.04 193.72 C 109.87 193.68 108.88 194.60 108.84 195.77 C 108.80 196.94 109.72 197.92 110.89 197.97 Z M 111.87 198.00 L 112.87 198.04 C 114.04 198.08 115.02 197.16 115.07 195.99 C 115.11 194.82 114.19 193.84 113.02 193.79 L 112.03 193.76 C 110.86 193.72 109.87 194.63 109.83 195.80 C 109.79 196.97 110.70 197.96 111.87 198.00 Z M 112.87 198.04 L 113.86 198.07 C 115.03 198.12 116.02 197.20 116.06 196.03 C 116.11 194.86 115.19 193.87 114.02 193.83 L 113.02 193.79 C 111.85 193.75 110.87 194.66 110.82 195.84 C 110.78 197.01 111.69 197.99 112.87 198.04 Z M 113.86 198.07 L 114.86 198.11 C 116.03 198.15 117.02 197.24 117.06 196.07 C 117.11 194.90 116.20 193.91 115.02 193.87 L 114.02 193.83 C 112.85 193.79 111.87 194.70 111.82 195.87 C 111.78 197.04 112.69 198.03 113.86 198.07 Z M 114.86 198.11 L 115.87 198.15 C 117.04 198.19 118.03 197.28 118.07 196.11 C 118.12 194.94 117.20 193.95 116.03 193.91 L 115.03 193.87 C 113.86 193.82 112.87 194.74 112.82 195.91 C 112.78 197.08 113.69 198.06 114.86 198.11 Z M 115.87 198.15 L 116.88 198.19 C 118.05 198.23 119.04 197.32 119.08 196.15 C 119.13 194.98 118.22 193.99 117.04 193.95 L 116.03 193.91 C 114.86 193.86 113.88 194.78 113.83 195.95 C 113.79 197.12 114.70 198.10 115.87 198.15 Z M 116.88 198.19 L 117.89 198.23 C 119.06 198.27 120.05 197.36 120.10 196.19 C 120.14 195.02 119.23 194.03 118.06 193.99 L 117.05 193.95 C 115.87 193.90 114.89 194.81 114.84 195.98 C 114.80 197.16 115.71 198.14 116.88 198.19 Z M 117.89 198.23 L 118.91 198.27 C 120.08 198.31 121.07 197.40 121.11 196.23 C 121.16 195.06 120.25 194.07 119.08 194.03 L 118.06 193.99 C 116.89 193.94 115.90 194.85 115.86 196.02 C 115.81 197.19 116.72 198.18 117.89 198.23 Z M 118.91 198.27 L 119.92 198.31 C 121.09 198.35 122.08 197.44 122.12 196.27 C 122.17 195.10 121.26 194.11 120.09 194.07 L 119.08 194.03 C 117.91 193.98 116.92 194.89 116.88 196.06 C 116.83 197.23 117.74 198.22 118.91 198.27 Z M 119.92 198.30 L 120.92 198.34 C 122.09 198.39 123.07 197.48 123.12 196.31 C 123.16 195.14 122.25 194.15 121.08 194.11 L 120.09 194.07 C 118.92 194.02 117.93 194.93 117.89 196.10 C 117.84 197.27 118.75 198.26 119.92 198.30 Z M 120.92 198.34 L 121.91 198.38 C 123.08 198.43 124.07 197.52 124.11 196.35 C 124.16 195.18 123.25 194.19 122.08 194.15 L 121.08 194.11 C 119.91 194.06 118.93 194.97 118.88 196.14 C 118.84 197.31 119.75 198.30 120.92 198.34 Z M 121.91 198.38 L 122.91 198.42 C 124.08 198.47 125.07 197.56 125.11 196.39 C 125.16 195.22 124.25 194.24 123.08 194.19 L 122.08 194.15 C 120.91 194.10 119.93 195.01 119.88 196.18 C 119.84 197.35 120.75 198.33 121.91 198.38 Z M 122.91 198.42 L 123.91 198.46 C 125.08 198.51 126.07 197.60 126.11 196.43 C 126.16 195.26 125.25 194.28 124.08 194.23 L 123.08 194.19 C 121.91 194.14 120.93 195.05 120.88 196.22 C 120.84 197.39 121.75 198.37 122.91 198.42 Z M 123.91 198.46 L 124.92 198.50 C 126.08 198.55 127.07 197.64 127.12 196.47 C 127.16 195.30 126.26 194.32 125.09 194.27 L 124.09 194.23 C 122.92 194.18 121.93 195.09 121.89 196.26 C 121.84 197.43 122.75 198.41 123.91 198.46 Z M 124.91 198.50 L 125.92 198.54 C 127.08 198.59 128.07 197.68 128.12 196.52 C 128.17 195.35 127.26 194.36 126.09 194.31 L 125.09 194.27 C 123.92 194.22 122.94 195.13 122.89 196.30 C 122.84 197.47 123.75 198.45 124.91 198.50 Z M 125.91 198.54 L 126.92 198.58 C 128.08 198.63 129.07 197.73 129.12 196.56 C 129.17 195.39 128.26 194.41 127.10 194.36 L 126.09 194.32 C 124.93 194.27 123.94 195.17 123.89 196.34 C 123.84 197.50 124.75 198.49 125.91 198.54 Z M 126.91 198.58 L 127.91 198.63 C 129.08 198.68 130.07 197.77 130.12 196.61 C 130.17 195.44 129.26 194.45 128.10 194.40 L 127.10 194.36 C 125.93 194.31 124.95 195.21 124.89 196.38 C 124.84 197.54 125.75 198.53 126.91 198.58 Z M 127.91 198.62 L 128.91 198.67 C 130.08 198.72 131.06 197.82 131.12 196.65 C 131.17 195.49 130.27 194.50 129.10 194.45 L 128.10 194.40 C 126.94 194.35 125.95 195.25 125.90 196.42 C 125.84 197.58 126.75 198.57 127.91 198.62 Z M 128.91 198.67 L 129.90 198.71 C 131.07 198.77 132.06 197.87 132.11 196.70 C 132.17 195.54 131.27 194.55 130.10 194.50 L 129.10 194.45 C 127.94 194.40 126.95 195.30 126.90 196.46 C 126.84 197.63 127.74 198.61 128.91 198.67 Z M 129.90 198.71 L 130.90 198.76 C 132.06 198.82 133.05 197.92 133.11 196.76 C 133.16 195.59 132.27 194.60 131.10 194.55 L 130.10 194.50 C 128.94 194.44 127.95 195.34 127.89 196.50 C 127.84 197.67 128.74 198.66 129.90 198.71 Z M 130.89 198.76 L 131.91 198.81 C 133.08 198.87 134.07 197.97 134.13 196.81 C 134.18 195.65 133.29 194.66 132.13 194.60 L 131.11 194.55 C 129.94 194.49 128.95 195.38 128.89 196.55 C 128.84 197.71 129.73 198.70 130.89 198.76 Z M 131.91 198.81 L 132.93 198.86 C 134.09 198.92 135.08 198.03 135.14 196.87 C 135.20 195.70 134.31 194.71 133.14 194.65 L 132.13 194.60 C 130.97 194.54 129.98 195.43 129.92 196.60 C 129.85 197.76 130.75 198.75 131.91 198.81 Z M 132.92 198.86 L 133.94 198.91 C 135.10 198.98 136.09 198.08 136.15 196.92 C 136.21 195.76 135.32 194.77 134.16 194.71 L 133.15 194.65 C 131.99 194.59 130.99 195.48 130.93 196.65 C 130.87 197.81 131.76 198.80 132.92 198.86 Z M 133.93 198.91 L 134.94 198.97 C 136.10 199.03 137.09 198.14 137.16 196.98 C 137.22 195.82 136.33 194.83 135.17 194.76 L 134.16 194.71 C 133.00 194.65 132.01 195.54 131.95 196.70 C 131.88 197.86 132.77 198.85 133.93 198.91 Z M 134.94 198.97 L 135.94 199.02 C 137.10 199.08 138.09 198.20 138.16 197.04 C 138.22 195.88 137.33 194.88 136.17 194.82 L 135.17 194.77 C 134.01 194.70 133.02 195.59 132.95 196.75 C 132.89 197.91 133.78 198.90 134.94 198.97 Z M 135.94 199.02 L 136.94 199.07 C 138.10 199.14 139.09 198.25 139.16 197.09 C 139.22 195.93 138.33 194.94 137.17 194.88 L 136.17 194.82 C 135.01 194.76 134.02 195.65 133.96 196.81 C 133.90 197.96 134.78 198.96 135.94 199.02 Z M 136.94 199.07 L 137.94 199.13 C 139.09 199.19 140.08 198.30 140.15 197.15 C 140.21 195.99 139.32 195.00 138.17 194.93 L 137.17 194.88 C 136.01 194.81 135.02 195.70 134.96 196.86 C 134.90 198.02 135.78 199.01 136.94 199.07 Z M 137.94 199.13 L 138.92 199.18 C 140.08 199.24 141.07 198.36 141.14 197.20 C 141.20 196.04 140.31 195.05 139.16 194.99 L 138.17 194.94 C 137.01 194.87 136.02 195.76 135.96 196.92 C 135.89 198.07 136.78 199.06 137.94 199.13 Z M 138.93 199.18 L 139.91 199.23 C 141.07 199.30 142.06 198.41 142.12 197.25 C 142.18 196.10 141.29 195.11 140.14 195.04 L 139.15 194.99 C 138.00 194.93 137.01 195.81 136.95 196.97 C 136.88 198.13 137.77 199.12 138.93 199.18 Z M 139.91 199.23 L 140.89 199.28 C 142.05 199.35 143.03 198.46 143.10 197.30 C 143.16 196.15 142.27 195.16 141.11 195.10 L 140.14 195.05 C 138.98 194.98 137.99 195.87 137.93 197.03 C 137.87 198.18 138.76 199.17 139.91 199.23 Z M 140.89 199.28 L 141.88 199.33 C 143.03 199.39 144.02 198.51 144.08 197.35 C 144.14 196.20 143.25 195.21 142.09 195.15 L 141.11 195.10 C 139.96 195.04 138.97 195.93 138.91 197.08 C 138.85 198.24 139.74 199.22 140.89 199.28 Z M 141.88 199.33 L 142.90 199.38 C 144.05 199.44 145.04 198.55 145.09 197.40 C 145.15 196.25 144.26 195.26 143.11 195.20 L 142.09 195.15 C 140.94 195.09 139.95 195.98 139.90 197.14 C 139.84 198.29 140.73 199.27 141.88 199.33 Z M 142.90 199.38 L 143.92 199.43 C 145.07 199.49 146.05 198.60 146.11 197.45 C 146.16 196.29 145.27 195.31 144.12 195.26 L 143.11 195.21 C 141.95 195.15 140.97 196.04 140.92 197.19 C 140.86 198.34 141.75 199.32 142.90 199.38 Z M 143.92 199.43 L 144.93 199.48 C 146.08 199.53 147.06 198.64 147.11 197.49 C 147.17 196.34 146.28 195.36 145.13 195.31 L 144.12 195.26 C 142.97 195.20 141.99 196.09 141.93 197.24 C 141.88 198.39 142.77 199.37 143.92 199.43 Z M 144.93 199.47 L 145.93 199.52 C 147.08 199.57 148.06 198.68 148.11 197.53 C 148.17 196.39 147.28 195.41 146.13 195.36 L 145.12 195.31 C 143.97 195.26 143.00 196.14 142.95 197.29 C 142.89 198.44 143.78 199.42 144.93 199.47 Z M 145.94 199.52 L 146.94 199.56 C 148.08 199.61 149.06 198.73 149.11 197.58 C 149.16 196.43 148.27 195.46 147.13 195.40 L 146.13 195.36 C 144.98 195.31 144.00 196.20 143.95 197.34 C 143.90 198.49 144.79 199.46 145.94 199.52 Z M 146.94 199.56 L 147.93 199.60 C 149.08 199.66 150.05 198.77 150.10 197.62 C 150.15 196.47 149.27 195.50 148.12 195.45 L 147.12 195.41 C 145.98 195.36 145.01 196.24 144.96 197.39 C 144.90 198.54 145.79 199.51 146.94 199.56 Z M 147.94 199.60 L 148.93 199.64 C 150.07 199.70 151.04 198.81 151.09 197.66 C 151.14 196.52 150.25 195.55 149.11 195.50 L 148.12 195.45 C 146.97 195.40 146.00 196.29 145.95 197.44 C 145.90 198.58 146.79 199.55 147.94 199.60 Z M 148.93 199.64 L 149.92 199.69 C 151.06 199.73 152.03 198.85 152.08 197.70 C 152.13 196.56 151.24 195.59 150.10 195.54 L 149.11 195.50 C 147.96 195.45 147.00 196.34 146.95 197.48 C 146.90 198.63 147.78 199.59 148.93 199.64 Z M 149.92 199.68 L 150.90 199.72 C 152.05 199.77 153.01 198.89 153.06 197.75 C 153.11 196.60 152.22 195.64 151.08 195.59 L 150.10 195.55 C 148.95 195.50 147.99 196.38 147.94 197.53 C 147.89 198.67 148.78 199.63 149.92 199.68 Z M 150.90 199.72 L 151.89 199.76 C 153.03 199.81 153.99 198.93 154.04 197.79 C 154.09 196.65 153.21 195.68 152.06 195.63 L 151.08 195.59 C 149.94 195.54 148.98 196.43 148.93 197.57 C 148.88 198.71 149.76 199.67 150.90 199.72 Z M 151.89 199.76 L 152.87 199.80 C 154.01 199.85 154.97 198.97 155.02 197.83 C 155.07 196.69 154.19 195.73 153.05 195.68 L 152.06 195.64 C 150.93 195.59 149.96 196.47 149.91 197.61 C 149.86 198.75 150.75 199.71 151.89 199.76 Z M 152.87 199.80 L 153.86 199.84 C 155.00 199.89 155.96 199.01 156.01 197.87 C 156.06 196.74 155.17 195.77 154.04 195.73 L 153.05 195.68 C 151.91 195.63 150.95 196.52 150.90 197.65 C 150.86 198.79 151.74 199.75 152.87 199.80 Z M 153.86 199.84 L 154.85 199.88 C 155.98 199.93 156.94 199.05 156.99 197.91 C 157.04 196.78 156.16 195.82 155.02 195.77 L 154.04 195.73 C 152.90 195.68 151.94 196.56 151.89 197.70 C 151.85 198.83 152.73 199.79 153.86 199.84 Z M 154.85 199.88 L 155.84 199.92 C 156.97 199.97 157.93 199.09 157.97 197.95 C 158.02 196.82 157.14 195.86 156.01 195.82 L 155.02 195.78 C 153.89 195.73 152.93 196.61 152.89 197.74 C 152.84 198.87 153.72 199.83 154.85 199.88 Z M 155.84 199.91 L 156.83 199.95 C 157.96 200.00 158.91 199.12 158.96 197.99 C 159.01 196.86 158.13 195.91 157.00 195.86 L 156.01 195.82 C 154.88 195.77 153.92 196.65 153.88 197.78 C 153.83 198.91 154.71 199.87 155.84 199.91 Z M 156.83 199.95 L 157.83 199.99 C 158.95 200.04 159.91 199.16 159.95 198.03 C 160.00 196.90 159.12 195.95 157.99 195.91 L 157.00 195.87 C 155.87 195.82 154.92 196.70 154.87 197.83 C 154.83 198.95 155.70 199.91 156.83 199.95 Z M 157.83 199.99 L 158.83 200.03 C 159.95 200.07 160.90 199.19 160.95 198.07 C 160.99 196.94 160.11 195.99 158.99 195.95 L 157.99 195.91 C 156.86 195.87 155.91 196.74 155.87 197.87 C 155.83 199.00 156.70 199.94 157.83 199.99 Z M 158.83 200.02 L 159.84 200.06 C 160.96 200.10 161.90 199.22 161.95 198.10 C 161.99 196.98 161.11 196.03 159.99 195.99 L 158.98 195.95 C 157.86 195.91 156.91 196.79 156.87 197.91 C 156.83 199.03 157.71 199.98 158.83 200.02 Z M 159.84 200.06 L 160.85 200.09 C 161.97 200.13 162.91 199.25 162.95 198.13 C 162.99 197.01 162.12 196.07 161.00 196.03 L 159.98 195.99 C 158.86 195.95 157.92 196.83 157.88 197.95 C 157.84 199.07 158.72 200.02 159.84 200.06 Z M 160.86 200.09 L 161.88 200.12 C 163.00 200.16 163.93 199.28 163.97 198.16 C 164.01 197.04 163.13 196.10 162.01 196.07 L 160.99 196.03 C 159.87 196.00 158.93 196.87 158.90 197.99 C 158.86 199.11 159.74 200.05 160.86 200.09 Z M 161.88 200.12 L 162.90 200.15 C 164.01 200.18 164.95 199.31 164.98 198.19 C 165.02 197.07 164.14 196.14 163.02 196.10 L 162.01 196.07 C 160.89 196.04 159.96 196.91 159.92 198.03 C 159.89 199.15 160.76 200.08 161.88 200.12 Z M 162.90 200.14 L 163.90 200.17 C 165.02 200.21 165.95 199.33 165.98 198.21 C 166.01 197.10 165.13 196.17 164.02 196.14 L 163.02 196.11 C 161.90 196.08 160.97 196.95 160.94 198.07 C 160.91 199.18 161.79 200.11 162.90 200.14 Z M 163.91 200.17 L 164.91 200.20 C 166.02 200.23 166.95 199.35 166.98 198.24 C 167.01 197.13 166.13 196.20 165.02 196.17 L 164.02 196.14 C 162.90 196.11 161.98 196.99 161.95 198.10 C 161.92 199.21 162.79 200.14 163.91 200.17 Z M 164.92 200.19 L 165.93 200.22 C 167.03 200.25 167.96 199.37 167.99 198.26 C 168.01 197.15 167.14 196.23 166.03 196.20 L 165.02 196.17 C 163.91 196.15 162.99 197.02 162.96 198.13 C 162.93 199.24 163.81 200.16 164.92 200.19 Z M 165.93 200.21 L 166.94 200.24 C 168.05 200.26 168.97 199.39 168.99 198.28 C 169.02 197.18 168.15 196.26 167.04 196.23 L 166.03 196.21 C 164.92 196.18 164.00 197.05 163.97 198.16 C 163.95 199.27 164.82 200.19 165.93 200.21 Z M 166.94 200.23 L 167.95 200.26 C 169.06 200.28 169.97 199.41 170.00 198.30 C 170.03 197.20 169.15 196.28 168.05 196.26 L 167.04 196.23 C 165.93 196.21 165.02 197.08 164.99 198.19 C 164.96 199.29 165.84 200.21 166.94 200.23 Z M 167.96 200.25 L 168.97 200.27 C 170.07 200.30 170.98 199.43 171.00 198.32 C 171.03 197.22 170.16 196.31 169.06 196.29 L 168.05 196.26 C 166.95 196.24 166.03 197.11 166.01 198.21 C 165.98 199.31 166.86 200.23 167.96 200.25 Z M 168.97 200.27 L 169.97 200.29 C 171.07 200.31 171.98 199.44 172.00 198.34 C 172.03 197.25 171.16 196.34 170.06 196.31 L 169.05 196.29 C 167.96 196.27 167.05 197.14 167.02 198.24 C 167.00 199.34 167.87 200.24 168.97 200.27 Z M 169.97 200.29 L 170.97 200.31 C 172.07 200.33 172.97 199.46 173.00 198.37 C 173.02 197.27 172.15 196.36 171.05 196.34 L 170.06 196.32 C 168.96 196.29 168.05 197.16 168.03 198.26 C 168.01 199.36 168.88 200.26 169.97 200.29 Z M 170.97 200.30 L 171.96 200.32 C 173.05 200.35 173.96 199.48 173.98 198.39 C 174.00 197.29 173.13 196.39 172.04 196.36 L 171.05 196.34 C 169.96 196.32 169.06 197.19 169.03 198.28 C 169.01 199.37 169.88 200.28 170.97 200.30 Z M 171.96 200.32 L 172.93 200.34 C 174.02 200.36 174.93 199.50 174.95 198.41 C 174.97 197.32 174.11 196.41 173.02 196.39 L 172.04 196.37 C 170.95 196.35 170.05 197.21 170.02 198.30 C 170.00 199.39 170.87 200.29 171.96 200.32 Z M 172.93 200.33 L 173.95 200.35 C 175.03 200.38 175.93 199.52 175.96 198.43 C 175.98 197.34 175.12 196.44 174.03 196.42 L 173.02 196.40 C 171.93 196.37 171.03 197.24 171.01 198.32 C 170.98 199.41 171.85 200.31 172.93 200.33 Z M 173.95 200.35 L 174.98 200.37 C 176.07 200.39 176.96 199.53 176.99 198.45 C 177.01 197.37 176.15 196.47 175.07 196.45 L 174.03 196.42 C 172.95 196.40 172.05 197.26 172.03 198.34 C 172.00 199.43 172.86 200.33 173.95 200.35 Z M 174.98 200.36 L 176.01 200.39 C 177.09 200.41 177.98 199.55 178.00 198.47 C 178.03 197.39 177.17 196.50 176.09 196.47 L 175.07 196.45 C 173.99 196.43 173.09 197.28 173.07 198.37 C 173.05 199.45 173.90 200.34 174.98 200.36 Z M 176.00 200.38 L 177.01 200.40 C 178.09 200.43 178.98 199.57 179.01 198.50 C 179.03 197.42 178.18 196.53 177.10 196.50 L 176.09 196.48 C 175.01 196.46 174.12 197.31 174.10 198.39 C 174.07 199.46 174.93 200.36 176.00 200.38 Z M 177.01 200.40 L 178.01 200.42 C 179.09 200.44 179.98 199.59 180.00 198.52 C 180.02 197.45 179.17 196.56 178.10 196.53 L 177.10 196.51 C 176.03 196.49 175.14 197.34 175.11 198.41 C 175.09 199.48 175.94 200.37 177.01 200.40 Z M 178.01 200.41 L 179.00 200.44 C 180.07 200.46 180.96 199.61 180.98 198.54 C 181.01 197.47 180.16 196.59 179.09 196.56 L 178.10 196.54 C 177.03 196.51 176.14 197.36 176.12 198.43 C 176.10 199.50 176.94 200.39 178.01 200.41 Z M 179.00 200.43 L 179.99 200.45 C 181.05 200.48 181.94 199.63 181.96 198.56 C 181.99 197.50 181.14 196.61 180.07 196.59 L 179.09 196.57 C 178.02 196.54 177.14 197.39 177.12 198.45 C 177.09 199.52 177.94 200.40 179.00 200.43 Z M 179.99 200.45 L 180.97 200.47 C 182.03 200.49 182.91 199.65 182.93 198.59 C 182.96 197.52 182.12 196.64 181.05 196.62 L 180.07 196.60 C 179.01 196.57 178.13 197.41 178.11 198.48 C 178.08 199.54 178.92 200.42 179.99 200.45 Z M 180.97 200.46 L 181.94 200.48 C 183.00 200.51 183.88 199.67 183.90 198.61 C 183.93 197.55 183.09 196.67 182.03 196.65 L 181.05 196.62 C 179.99 196.60 179.12 197.44 179.09 198.50 C 179.07 199.56 179.91 200.44 180.97 200.46 Z M 181.94 200.48 L 182.92 200.50 C 183.97 200.52 184.85 199.69 184.87 198.63 C 184.90 197.58 184.06 196.70 183.01 196.68 L 182.03 196.65 C 180.97 196.63 180.10 197.47 180.07 198.52 C 180.05 199.58 180.89 200.45 181.94 200.48 Z M 182.92 200.49 L 183.92 200.52 C 184.97 200.54 185.84 199.71 185.87 198.65 C 185.89 197.60 185.06 196.73 184.01 196.71 L 183.01 196.68 C 181.95 196.66 181.08 197.49 181.06 198.54 C 181.03 199.60 181.87 200.47 182.92 200.49 Z M 183.92 200.51 L 184.93 200.53 C 185.98 200.56 186.85 199.73 186.87 198.68 C 186.89 197.63 186.06 196.76 185.02 196.74 L 184.01 196.71 C 182.96 196.69 182.09 197.52 182.06 198.57 C 182.04 199.62 182.87 200.49 183.92 200.51 Z M 184.93 200.53 L 185.94 200.55 C 186.98 200.57 187.85 199.75 187.87 198.70 C 187.90 197.66 187.07 196.79 186.03 196.77 L 185.02 196.74 C 183.97 196.72 183.11 197.55 183.08 198.59 C 183.06 199.63 183.88 200.50 184.93 200.53 Z M 185.94 200.54 L 186.94 200.57 C 187.98 200.59 188.85 199.77 188.87 198.73 C 188.90 197.69 188.08 196.82 187.04 196.80 L 186.03 196.77 C 184.99 196.75 184.12 197.57 184.10 198.61 C 184.07 199.65 184.90 200.52 185.94 200.54 Z M 186.94 200.56 L 187.95 200.58 C 188.98 200.61 189.85 199.79 189.87 198.76 C 189.90 197.72 189.08 196.86 188.04 196.83 L 187.04 196.81 C 186.00 196.78 185.14 197.60 185.11 198.64 C 185.09 199.67 185.91 200.53 186.94 200.56 Z M 187.95 200.58 L 188.95 200.60 C 189.98 200.63 190.84 199.82 190.87 198.78 C 190.90 197.75 190.08 196.89 189.05 196.87 L 188.05 196.84 C 187.01 196.81 186.15 197.63 186.13 198.66 C 186.10 199.69 186.91 200.55 187.95 200.58 Z M 188.95 200.60 L 189.94 200.62 C 190.97 200.65 191.83 199.84 191.86 198.82 C 191.89 197.79 191.08 196.93 190.05 196.90 L 189.05 196.87 C 188.02 196.84 187.17 197.65 187.14 198.68 C 187.11 199.71 187.92 200.57 188.95 200.60 Z M 189.94 200.62 L 190.93 200.65 C 191.96 200.68 192.81 199.87 192.84 198.85 C 192.87 197.82 192.07 196.97 191.04 196.94 L 190.05 196.91 C 189.03 196.88 188.17 197.68 188.14 198.71 C 188.11 199.73 188.92 200.59 189.94 200.62 Z M 190.93 200.64 L 191.91 200.67 C 192.93 200.70 193.79 199.90 193.82 198.88 C 193.85 197.86 193.05 197.01 192.03 196.98 L 191.05 196.95 C 190.03 196.91 189.17 197.71 189.14 198.73 C 189.11 199.75 189.91 200.61 190.93 200.64 Z M 191.91 200.66 L 192.90 200.70 C 193.91 200.73 194.77 199.94 194.80 198.92 C 194.84 197.91 194.04 197.06 193.03 197.02 L 192.04 196.99 C 191.02 196.95 190.17 197.74 190.13 198.76 C 190.10 199.78 190.89 200.63 191.91 200.66 Z M 192.89 200.69 L 193.93 200.73 C 194.94 200.77 195.79 199.98 195.83 198.97 C 195.87 197.96 195.08 197.10 194.07 197.07 L 193.03 197.03 C 192.02 196.99 191.17 197.78 191.13 198.79 C 191.09 199.80 191.88 200.65 192.89 200.69 Z M 193.93 200.72 L 194.95 200.77 C 195.96 200.81 196.81 200.02 196.85 199.01 C 196.89 198.01 196.11 197.16 195.10 197.11 L 194.07 197.07 C 193.07 197.03 192.21 197.82 192.17 198.82 C 192.13 199.83 192.92 200.68 193.93 200.72 Z M 194.95 200.76 L 195.96 200.80 C 196.97 200.85 197.82 200.07 197.86 199.06 C 197.90 198.06 197.12 197.21 196.12 197.16 L 195.10 197.12 C 194.10 197.08 193.25 197.86 193.21 198.86 C 193.16 199.87 193.94 200.72 194.95 200.76 Z M 195.96 200.80 L 196.96 200.84 C 197.96 200.89 198.81 200.11 198.86 199.11 C 198.90 198.11 198.13 197.26 197.13 197.22 L 196.12 197.17 C 195.12 197.13 194.27 197.90 194.23 198.90 C 194.18 199.90 194.96 200.75 195.96 200.80 Z M 196.96 200.84 L 197.95 200.88 C 198.95 200.93 199.80 200.16 199.85 199.16 C 199.89 198.16 199.12 197.32 198.13 197.27 L 197.13 197.22 C 196.13 197.18 195.29 197.95 195.24 198.94 C 195.19 199.94 195.96 200.79 196.96 200.84 Z M 197.95 200.88 L 198.94 200.92 C 199.93 200.97 200.78 200.21 200.83 199.21 C 200.87 198.22 200.11 197.37 199.11 197.33 L 198.13 197.28 C 197.13 197.23 196.29 197.99 196.24 198.99 C 196.19 199.98 196.96 200.83 197.95 200.88 Z M 198.94 200.92 L 199.91 200.97 C 200.90 201.02 201.75 200.25 201.79 199.26 C 201.84 198.27 201.08 197.43 200.09 197.38 L 199.12 197.33 C 198.13 197.28 197.28 198.04 197.23 199.03 C 197.18 200.03 197.95 200.87 198.94 200.92 Z M 199.91 200.96 L 200.88 201.01 C 201.86 201.06 202.71 200.30 202.76 199.31 C 202.81 198.33 202.05 197.49 201.06 197.44 L 200.09 197.39 C 199.11 197.34 198.27 198.10 198.22 199.08 C 198.17 200.07 198.92 200.91 199.91 200.96 Z M 200.88 201.00 L 201.87 201.06 C 202.85 201.11 203.69 200.35 203.74 199.37 C 203.79 198.38 203.04 197.55 202.05 197.49 L 201.06 197.44 C 200.08 197.39 199.24 198.15 199.19 199.13 C 199.14 200.11 199.89 200.95 200.88 201.00 Z M 201.87 201.05 L 202.91 201.11 C 203.89 201.16 204.72 200.40 204.78 199.42 C 204.83 198.44 204.07 197.60 203.09 197.55 L 202.05 197.50 C 201.07 197.45 200.24 198.20 200.18 199.18 C 200.13 200.16 200.89 201.00 201.87 201.05 Z M 202.90 201.10 L 203.93 201.16 C 204.91 201.21 205.75 200.46 205.80 199.48 C 205.85 198.50 205.10 197.66 204.12 197.61 L 203.09 197.56 C 202.12 197.50 201.28 198.25 201.23 199.23 C 201.17 200.21 201.92 201.05 202.90 201.10 Z M 203.93 201.16 L 204.95 201.21 C 205.92 201.27 206.76 200.52 206.81 199.54 C 206.87 198.56 206.12 197.72 205.14 197.67 L 204.13 197.61 C 203.15 197.56 202.31 198.31 202.26 199.29 C 202.20 200.26 202.95 201.10 203.93 201.16 Z M 204.94 201.21 L 205.95 201.27 C 206.92 201.32 207.76 200.58 207.81 199.60 C 207.87 198.62 207.12 197.79 206.15 197.73 L 205.14 197.67 C 204.17 197.62 203.33 198.36 203.28 199.34 C 203.22 200.32 203.97 201.15 204.94 201.21 Z M 205.94 201.26 L 206.93 201.32 C 207.90 201.38 208.74 200.64 208.80 199.66 C 208.86 198.69 208.12 197.85 207.14 197.79 L 206.15 197.73 C 205.18 197.68 204.34 198.42 204.28 199.39 C 204.22 200.37 204.97 201.20 205.94 201.26 Z M 206.92 201.32 L 207.90 201.38 C 208.87 201.44 209.71 200.70 209.77 199.73 C 209.83 198.76 209.09 197.92 208.12 197.86 L 207.15 197.80 C 206.17 197.74 205.34 198.47 205.27 199.45 C 205.21 200.42 205.95 201.26 206.92 201.32 Z M 207.89 201.38 L 208.85 201.44 C 209.82 201.51 210.66 200.77 210.73 199.80 C 210.79 198.83 210.06 197.99 209.09 197.93 L 208.13 197.86 C 207.16 197.80 206.32 198.53 206.25 199.50 C 206.19 200.47 206.92 201.31 207.89 201.38 Z M 208.84 201.44 L 209.80 201.51 C 210.76 201.57 211.61 200.85 211.67 199.88 C 211.74 198.91 211.01 198.07 210.05 198.00 L 209.10 197.93 C 208.13 197.86 207.29 198.59 207.22 199.56 C 207.15 200.53 207.88 201.37 208.84 201.44 Z M 209.79 201.50 L 210.75 201.57 C 211.71 201.65 212.55 200.92 212.63 199.96 C 212.70 198.99 211.98 198.15 211.01 198.08 L 210.05 198.00 C 209.09 197.93 208.25 198.65 208.17 199.62 C 208.10 200.58 208.82 201.43 209.79 201.50 Z M 210.74 201.56 L 211.69 201.64 C 212.65 201.72 213.50 201.00 213.57 200.04 C 213.65 199.08 212.93 198.24 211.97 198.16 L 211.02 198.08 C 210.06 198.01 209.22 198.72 209.14 199.69 C 209.06 200.65 209.78 201.49 210.74 201.56 Z M 211.69 201.63 L 212.65 201.71 C 213.60 201.79 214.44 201.08 214.52 200.12 C 214.60 199.16 213.89 198.32 212.93 198.25 L 211.97 198.17 C 211.02 198.09 210.18 198.80 210.10 199.76 C 210.02 200.71 210.73 201.55 211.69 201.63 Z M 212.64 201.70 L 213.61 201.78 C 214.57 201.86 215.40 201.15 215.48 200.20 C 215.56 199.25 214.85 198.41 213.90 198.33 L 212.93 198.25 C 211.98 198.17 211.14 198.88 211.06 199.84 C 210.98 200.79 211.69 201.62 212.64 201.70 Z M 213.62 201.78 L 214.61 201.86 C 215.56 201.94 216.39 201.23 216.47 200.28 C 216.55 199.33 215.84 198.50 214.89 198.42 L 213.90 198.34 C 212.95 198.26 212.12 198.97 212.04 199.92 C 211.96 200.87 212.67 201.70 213.62 201.78 Z M 214.61 201.85 L 215.64 201.94 C 216.58 202.01 217.41 201.31 217.49 200.36 C 217.56 199.42 216.86 198.59 215.91 198.51 L 214.89 198.43 C 213.94 198.35 213.12 199.06 213.04 200.00 C 212.96 200.95 213.67 201.78 214.61 201.85 Z M 215.64 201.93 L 216.71 202.01 C 217.65 202.09 218.47 201.38 218.55 200.44 C 218.62 199.50 217.92 198.68 216.98 198.60 L 215.91 198.52 C 214.97 198.45 214.14 199.15 214.07 200.09 C 214.00 201.03 214.70 201.85 215.64 201.93 Z M 216.71 202.01 L 217.76 202.08 C 218.70 202.16 219.52 201.45 219.59 200.51 C 219.66 199.58 218.95 198.76 218.02 198.69 L 216.97 198.61 C 216.03 198.54 215.21 199.24 215.14 200.18 C 215.07 201.12 215.78 201.93 216.71 202.01 Z M 217.77 202.08 L 218.75 202.15 C 219.69 202.22 220.50 201.51 220.57 200.58 C 220.64 199.65 219.93 198.83 219.00 198.77 L 218.01 198.69 C 217.08 198.63 216.26 199.33 216.20 200.26 C 216.13 201.20 216.83 202.01 217.77 202.08 Z M 218.76 202.14 L 219.77 202.21 C 220.71 202.28 221.51 201.58 221.58 200.64 C 221.64 199.71 220.94 198.91 220.01 198.84 L 218.99 198.77 C 218.06 198.71 217.25 199.41 217.19 200.34 C 217.13 201.27 217.83 202.08 218.76 202.14 Z M 219.78 202.21 L 220.81 202.28 C 221.74 202.34 222.54 201.64 222.60 200.71 C 222.66 199.78 221.96 198.98 221.03 198.92 L 220.00 198.85 C 219.07 198.79 218.27 199.49 218.21 200.42 C 218.15 201.35 218.85 202.15 219.78 202.21 Z M 220.82 202.27 L 221.85 202.34 C 222.78 202.39 223.57 201.69 223.63 200.77 C 223.69 199.84 222.99 199.04 222.06 198.99 L 221.03 198.92 C 220.10 198.86 219.30 199.57 219.25 200.49 C 219.19 201.42 219.89 202.21 220.82 202.27 Z M 221.86 202.33 L 222.89 202.39 C 223.81 202.45 224.60 201.74 224.66 200.82 C 224.71 199.90 224.01 199.11 223.09 199.05 L 222.06 198.99 C 221.13 198.94 220.34 199.64 220.29 200.56 C 220.23 201.48 220.94 202.28 221.86 202.33 Z M 222.90 202.39 L 223.91 202.44 C 224.83 202.49 225.62 201.79 225.67 200.87 C 225.72 199.95 225.02 199.17 224.10 199.12 L 223.08 199.06 C 222.16 199.01 221.38 199.71 221.33 200.63 C 221.27 201.55 221.98 202.34 222.90 202.39 Z M 223.92 202.44 L 224.91 202.49 C 225.83 202.54 226.61 201.83 226.66 200.92 C 226.71 200.00 226.00 199.22 225.09 199.17 L 224.09 199.12 C 223.18 199.07 222.40 199.78 222.35 200.69 C 222.30 201.61 223.01 202.39 223.92 202.44 Z M 224.92 202.48 L 225.88 202.53 C 226.79 202.57 227.57 201.87 227.61 200.95 C 227.65 200.04 226.95 199.27 226.04 199.22 L 225.08 199.18 C 224.17 199.14 223.39 199.84 223.35 200.75 C 223.30 201.67 224.01 202.44 224.92 202.48 Z M 225.89 202.52 L 226.86 202.56 C 227.77 202.60 228.53 201.90 228.57 200.99 C 228.61 200.08 227.90 199.31 226.99 199.27 L 226.03 199.23 C 225.12 199.19 224.35 199.90 224.31 200.81 C 224.27 201.72 224.98 202.49 225.89 202.52 Z M 226.87 202.56 L 228.03 202.60 C 228.94 202.63 229.70 201.92 229.73 201.01 C 229.76 200.11 229.05 199.35 228.15 199.32 L 226.98 199.28 C 226.08 199.25 225.32 199.96 225.29 200.86 C 225.25 201.77 225.96 202.52 226.87 202.56 Z M 228.05 202.59 L 229.13 202.61 C 230.03 202.64 230.78 201.93 230.80 201.03 C 230.82 200.13 230.11 199.38 229.21 199.36 L 228.13 199.33 C 227.23 199.30 226.48 200.01 226.46 200.91 C 226.44 201.81 227.15 202.56 228.05 202.59 Z M 229.14 202.60 L 230.15 202.62 C 231.05 202.64 231.79 201.93 231.80 201.03 C 231.82 200.14 231.10 199.40 230.21 199.38 L 229.20 199.36 C 228.30 199.35 227.57 200.06 227.55 200.96 C 227.53 201.85 228.25 202.59 229.14 202.60 Z M 230.16 202.61 L 231.12 202.62 C 232.01 202.63 232.74 201.92 232.75 201.03 C 232.76 200.14 232.04 199.41 231.15 199.40 L 230.20 199.39 C 229.31 199.38 228.58 200.10 228.57 200.99 C 228.56 201.87 229.27 202.60 230.16 202.61 Z M 231.13 202.61 L 232.05 202.62 C 232.93 202.62 233.65 201.91 233.66 201.03 C 233.66 200.14 232.95 199.42 232.06 199.42 L 231.15 199.41 C 230.26 199.41 229.54 200.12 229.54 201.00 C 229.53 201.89 230.25 202.61 231.13 202.61 Z M 232.05 202.61 L 232.95 202.61 C 233.83 202.61 234.54 201.90 234.54 201.02 C 234.54 200.14 233.83 199.43 232.95 199.43 L 232.06 199.43 C 231.18 199.43 230.47 200.14 230.46 201.02 C 230.46 201.89 231.17 202.61 232.05 202.61 Z M 232.95 202.60 L 233.44 202.60 C 234.32 202.60 235.03 201.89 235.03 201.02 C 235.03 200.14 234.32 199.44 233.44 199.44 L 232.95 199.44 C 232.08 199.44 231.37 200.14 231.37 201.02 C 231.37 201.89 232.08 202.60 232.95 202.60 Z"
      fill="black"
      fill-rule="nonzero" /></svg>