<svg xmlns="http://www.w3.org/2000/svg" width="300" height="300" viewBox="0 0 300 300">
<path d="M 121.44 98.91 L 120.69 99.57 C 120.00 100.17 119.93 101.22 120.54 101.92 C 121.14 102.61 122.19 102.68 122.88 102.07 L 123.64 101.42 C 124.33 100.81 124.40 99.76 123.79 99.07 C 123.19 98.38 122.14 98.31 121.44 98.91 Z M 120.66 99.56 L 119.92 100.23 C 119.22 100.85 119.17 101.92 119.79 102.61 C 120.41 103.31 121.48 103.37 122.18 102.74 L 122.92 102.08 C 123.61 101.46 123.67 100.39 123.05 99.69 C 122.42 99.00 121.36 98.94 120.66 99.56 Z M 119.87 100.24 L 119.15 100.92 C 118.46 101.57 118.43 102.66 119.08 103.35 C 119.73 104.04 120.82 104.07 121.50 103.42 L 122.23 102.73 C 122.92 102.08 122.95 100.99 122.29 100.31 C 121.64 99.62 120.56 99.59 119.87 100.24 Z M 119.08 100.95 L 118.38 101.67 C 117.71 102.35 117.73 103.46 118.41 104.13 C 119.10 104.80 120.21 104.79 120.88 104.10 L 121.57 103.39 C 122.24 102.70 122.23 101.59 121.54 100.92 C 120.85 100.25 119.75 100.27 119.08 100.95 Z M 118.30 101.72 L 117.65 102.47 C 117.00 103.20 117.07 104.32 117.81 104.96 C 118.54 105.60 119.66 105.53 120.30 104.80 L 120.96 104.05 C 121.60 103.31 121.53 102.20 120.80 101.55 C 120.06 100.91 118.95 100.98 118.30 101.72 Z M 117.55 102.54 L 116.94 103.34 C 116.34 104.12 116.49 105.25 117.27 105.85 C 118.06 106.45 119.18 106.30 119.79 105.52 L 120.40 104.72 C 121.00 103.94 120.85 102.81 120.06 102.21 C 119.28 101.61 118.15 101.75 117.55 102.54 Z M 116.84 103.44 L 116.30 104.28 C 115.75 105.12 115.99 106.24 116.83 106.79 C 117.67 107.33 118.79 107.10 119.34 106.26 L 119.88 105.42 C 120.43 104.58 120.19 103.45 119.35 102.91 C 118.51 102.36 117.39 102.60 116.84 103.44 Z M 116.21 104.39 L 115.75 105.25 C 115.26 106.13 115.59 107.24 116.47 107.73 C 117.36 108.21 118.47 107.88 118.95 107.00 L 119.42 106.14 C 119.90 105.26 119.58 104.15 118.69 103.66 C 117.81 103.18 116.70 103.51 116.21 104.39 Z M 115.69 105.35 L 115.27 106.25 C 114.84 107.16 115.24 108.25 116.15 108.68 C 117.07 109.11 118.15 108.71 118.58 107.80 L 119.00 106.90 C 119.43 105.98 119.04 104.90 118.12 104.47 C 117.21 104.04 116.12 104.43 115.69 105.35 Z M 115.23 106.33 L 114.85 107.26 C 114.47 108.20 114.92 109.27 115.85 109.65 C 116.79 110.03 117.86 109.58 118.24 108.65 L 118.62 107.72 C 119.00 106.78 118.55 105.71 117.62 105.33 C 116.68 104.95 115.61 105.40 115.23 106.33 Z M 114.82 107.33 L 114.48 108.28 C 114.13 109.23 114.62 110.29 115.57 110.63 C 116.53 110.98 117.58 110.49 117.92 109.53 L 118.27 108.58 C 118.61 107.63 118.12 106.58 117.17 106.23 C 116.22 105.89 115.17 106.38 114.82 107.33 Z M 114.46 108.33 L 114.14 109.30 C 113.82 110.26 114.34 111.30 115.31 111.61 C 116.27 111.93 117.31 111.41 117.63 110.45 L 117.94 109.48 C 118.26 108.52 117.74 107.48 116.78 107.17 C 115.81 106.85 114.78 107.37 114.46 108.33 Z M 114.13 109.33 L 113.83 110.29 C 113.53 111.26 114.07 112.29 115.04 112.59 C 116.01 112.89 117.04 112.34 117.34 111.37 L 117.64 110.41 C 117.94 109.44 117.39 108.41 116.42 108.11 C 115.45 107.82 114.43 108.36 114.13 109.33 Z M 113.82 110.31 L 113.54 111.25 C 113.25 112.23 113.81 113.25 114.78 113.54 C 115.75 113.83 116.78 113.28 117.07 112.30 L 117.35 111.36 C 117.64 110.38 117.08 109.36 116.11 109.07 C 115.14 108.78 114.11 109.33 113.82 110.31 Z M 113.54 111.26 L 113.27 112.16 C 112.99 113.13 113.54 114.16 114.52 114.44 C 115.49 114.73 116.52 114.17 116.81 113.20 L 117.07 112.30 C 117.36 111.32 116.80 110.30 115.83 110.01 C 114.85 109.72 113.83 110.28 113.54 111.26 Z M 113.28 112.15 L 113.01 113.04 C 112.72 114.02 113.27 115.04 114.25 115.33 C 115.22 115.63 116.25 115.07 116.54 114.10 L 116.80 113.20 C 117.09 112.23 116.54 111.20 115.57 110.91 C 114.59 110.62 113.57 111.18 113.28 112.15 Z M 113.01 113.03 L 112.74 113.93 C 112.44 114.90 112.99 115.93 113.96 116.23 C 114.93 116.53 115.96 115.98 116.26 115.01 L 116.53 114.11 C 116.83 113.14 116.28 112.11 115.31 111.81 C 114.34 111.51 113.31 112.06 113.01 113.03 Z M 112.74 113.91 L 112.45 114.83 C 112.14 115.80 112.68 116.84 113.65 117.14 C 114.61 117.45 115.65 116.92 115.96 115.95 L 116.25 115.03 C 116.56 114.06 116.03 113.03 115.06 112.72 C 114.09 112.41 113.05 112.94 112.74 113.91 Z M 112.46 114.80 L 112.14 115.76 C 111.82 116.72 112.34 117.76 113.30 118.09 C 114.26 118.41 115.31 117.89 115.63 116.93 L 115.95 115.98 C 116.27 115.01 115.75 113.97 114.79 113.64 C 113.83 113.32 112.78 113.84 112.46 114.80 Z M 112.15 115.73 L 111.80 116.72 C 111.46 117.68 111.96 118.73 112.92 119.07 C 113.88 119.41 114.93 118.91 115.27 117.95 L 115.62 116.96 C 115.96 116.00 115.46 114.94 114.50 114.60 C 113.54 114.27 112.49 114.77 112.15 115.73 Z M 111.81 116.69 L 111.41 117.74 C 111.06 118.69 111.54 119.75 112.49 120.11 C 113.44 120.47 114.51 119.99 114.86 119.03 L 115.26 117.98 C 115.61 117.03 115.13 115.97 114.18 115.61 C 113.23 115.25 112.17 115.74 111.81 116.69 Z M 111.43 117.71 L 111.06 118.63 C 110.69 119.57 111.16 120.64 112.10 121.01 C 113.05 121.39 114.12 120.92 114.49 119.98 L 114.85 119.06 C 115.22 118.12 114.76 117.05 113.81 116.67 C 112.87 116.30 111.80 116.76 111.43 117.71 Z M 111.07 118.60 L 110.71 119.48 C 110.33 120.42 110.78 121.50 111.72 121.88 C 112.66 122.27 113.73 121.82 114.12 120.88 L 114.48 120.00 C 114.87 119.06 114.42 117.99 113.48 117.60 C 112.54 117.21 111.46 117.66 111.07 118.60 Z M 110.72 119.46 L 110.34 120.37 C 109.94 121.30 110.38 122.38 111.31 122.78 C 112.25 123.18 113.33 122.74 113.73 121.80 L 114.11 120.90 C 114.51 119.96 114.07 118.88 113.14 118.49 C 112.20 118.09 111.12 118.53 110.72 119.46 Z M 110.35 120.35 L 109.94 121.27 C 109.54 122.20 109.96 123.29 110.89 123.70 C 111.82 124.10 112.91 123.68 113.31 122.75 L 113.72 121.82 C 114.12 120.89 113.70 119.81 112.77 119.40 C 111.84 118.99 110.75 119.42 110.35 120.35 Z M 109.95 121.26 L 109.53 122.19 C 109.11 123.12 109.53 124.21 110.45 124.62 C 111.38 125.04 112.47 124.63 112.88 123.70 L 113.30 122.76 C 113.72 121.84 113.31 120.75 112.38 120.33 C 111.46 119.92 110.37 120.33 109.95 121.26 Z M 109.54 122.18 L 109.10 123.12 C 108.68 124.04 109.08 125.13 110.00 125.56 C 110.92 125.98 112.01 125.58 112.44 124.66 L 112.87 123.72 C 113.30 122.80 112.90 121.70 111.98 121.28 C 111.06 120.85 109.96 121.25 109.54 122.18 Z M 109.11 123.10 L 108.67 124.04 C 108.23 124.95 108.62 126.05 109.54 126.48 C 110.46 126.92 111.55 126.53 111.99 125.61 L 112.43 124.68 C 112.87 123.76 112.48 122.66 111.56 122.23 C 110.64 121.79 109.55 122.18 109.11 123.10 Z M 108.68 124.02 L 108.23 124.94 C 107.78 125.85 108.16 126.95 109.07 127.40 C 109.98 127.84 111.08 127.46 111.53 126.55 L 111.98 125.63 C 112.42 124.72 112.04 123.62 111.13 123.17 C 110.22 122.73 109.12 123.11 108.68 124.02 Z M 108.24 124.92 L 107.78 125.83 C 107.33 126.73 107.69 127.84 108.60 128.29 C 109.51 128.75 110.61 128.38 111.06 127.47 L 111.52 126.57 C 111.97 125.66 111.61 124.56 110.70 124.11 C 109.79 123.65 108.69 124.02 108.24 124.92 Z M 107.79 125.81 L 107.34 126.68 C 106.88 127.58 107.23 128.69 108.13 129.16 C 109.03 129.62 110.14 129.27 110.60 128.37 L 111.05 127.49 C 111.52 126.59 111.17 125.49 110.27 125.02 C 109.37 124.56 108.26 124.91 107.79 125.81 Z M 107.36 126.66 L 106.85 127.61 C 106.37 128.50 106.71 129.61 107.60 130.09 C 108.49 130.57 109.60 130.23 110.08 129.34 L 110.59 128.39 C 111.06 127.50 110.73 126.39 109.84 125.91 C 108.94 125.43 107.83 125.77 107.36 126.66 Z M 106.87 127.59 L 106.36 128.51 C 105.87 129.39 106.18 130.50 107.06 130.99 C 107.95 131.48 109.06 131.16 109.55 130.28 L 110.06 129.36 C 110.55 128.48 110.23 127.37 109.35 126.88 C 108.47 126.39 107.36 126.71 106.87 127.59 Z M 106.38 128.48 L 105.87 129.36 C 105.36 130.23 105.66 131.35 106.53 131.85 C 107.40 132.35 108.52 132.06 109.02 131.19 L 109.53 130.31 C 110.03 129.43 109.73 128.32 108.86 127.82 C 107.99 127.32 106.88 127.61 106.38 128.48 Z M 105.89 129.34 L 105.38 130.19 C 104.86 131.05 105.14 132.17 106.00 132.68 C 106.86 133.20 107.97 132.92 108.49 132.06 L 109.00 131.21 C 109.51 130.35 109.24 129.24 108.38 128.72 C 107.52 128.20 106.40 128.48 105.89 129.34 Z M 105.40 130.17 L 104.88 131.00 C 104.35 131.85 104.61 132.96 105.46 133.49 C 106.30 134.02 107.42 133.76 107.95 132.91 L 108.46 132.08 C 108.99 131.24 108.74 130.12 107.89 129.59 C 107.04 129.06 105.93 129.32 105.40 130.17 Z M 104.90 130.98 L 104.38 131.79 C 103.84 132.62 104.08 133.74 104.91 134.28 C 105.75 134.82 106.86 134.58 107.40 133.75 L 107.93 132.93 C 108.47 132.10 108.23 130.98 107.39 130.44 C 106.56 129.90 105.44 130.14 104.90 130.98 Z M 104.40 131.77 L 103.86 132.57 C 103.31 133.39 103.53 134.51 104.36 135.06 C 105.18 135.61 106.30 135.39 106.85 134.57 L 107.38 133.76 C 107.93 132.94 107.71 131.82 106.89 131.27 C 106.06 130.72 104.95 130.94 104.40 131.77 Z M 103.88 132.55 L 103.33 133.35 C 102.77 134.16 102.98 135.28 103.79 135.84 C 104.60 136.40 105.72 136.19 106.28 135.38 L 106.83 134.58 C 107.39 133.77 107.18 132.65 106.37 132.09 C 105.56 131.53 104.44 131.74 103.88 132.55 Z M 103.35 133.33 L 102.78 134.13 C 102.21 134.94 102.40 136.05 103.21 136.62 C 104.01 137.19 105.13 137.00 105.70 136.20 L 106.26 135.39 C 106.83 134.59 106.64 133.48 105.84 132.91 C 105.03 132.34 103.92 132.53 103.35 133.33 Z M 102.80 134.12 L 102.22 134.93 C 101.64 135.72 101.82 136.83 102.61 137.41 C 103.40 137.99 104.52 137.81 105.09 137.01 L 105.68 136.21 C 106.25 135.41 106.08 134.30 105.28 133.73 C 104.49 133.15 103.38 133.33 102.80 134.12 Z M 102.24 134.92 L 101.63 135.73 C 101.05 136.51 101.22 137.62 102.00 138.20 C 102.78 138.78 103.89 138.62 104.47 137.83 L 105.07 137.03 C 105.65 136.24 105.49 135.14 104.71 134.55 C 103.92 133.97 102.82 134.13 102.24 134.92 Z M 101.66 135.71 L 101.04 136.52 C 100.45 137.29 100.60 138.39 101.37 138.98 C 102.14 139.57 103.25 139.42 103.84 138.65 L 104.45 137.85 C 105.04 137.07 104.89 135.97 104.12 135.38 C 103.35 134.79 102.24 134.94 101.66 135.71 Z M 101.06 136.51 L 100.44 137.30 C 99.84 138.06 99.97 139.16 100.73 139.76 C 101.49 140.35 102.59 140.22 103.19 139.46 L 103.82 138.66 C 104.41 137.90 104.28 136.80 103.52 136.21 C 102.76 135.61 101.66 135.75 101.06 136.51 Z M 100.46 137.29 L 99.82 138.08 C 99.22 138.82 99.34 139.92 100.09 140.52 C 100.84 141.13 101.93 141.01 102.53 140.26 L 103.17 139.47 C 103.77 138.73 103.65 137.63 102.91 137.03 C 102.16 136.42 101.06 136.54 100.46 137.29 Z M 99.85 138.06 L 99.21 138.83 C 98.60 139.57 98.70 140.66 99.43 141.27 C 100.17 141.88 101.26 141.78 101.87 141.05 L 102.51 140.27 C 103.12 139.54 103.02 138.45 102.29 137.84 C 101.55 137.23 100.46 137.33 99.85 138.06 Z M 99.23 138.82 L 98.59 139.57 C 97.97 140.29 98.05 141.38 98.77 142.00 C 99.49 142.62 100.58 142.54 101.20 141.81 L 101.85 141.06 C 102.47 140.34 102.38 139.25 101.66 138.63 C 100.94 138.01 99.85 138.10 99.23 138.82 Z M 98.61 139.55 L 97.96 140.28 C 97.34 140.99 97.40 142.07 98.11 142.70 C 98.82 143.33 99.90 143.27 100.53 142.56 L 101.17 141.83 C 101.80 141.12 101.74 140.04 101.03 139.41 C 100.32 138.78 99.24 138.85 98.61 139.55 Z M 97.99 140.26 L 97.27 141.05 C 96.63 141.74 96.67 142.81 97.37 143.45 C 98.06 144.09 99.14 144.05 99.77 143.36 L 100.50 142.58 C 101.14 141.89 101.09 140.81 100.40 140.17 C 99.71 139.53 98.63 139.57 97.99 140.26 Z M 97.30 141.03 L 96.57 141.78 C 95.92 142.46 95.94 143.53 96.61 144.18 C 97.29 144.83 98.36 144.81 99.01 144.14 L 99.74 143.38 C 100.39 142.71 100.37 141.63 99.70 140.98 C 99.03 140.33 97.95 140.35 97.30 141.03 Z M 96.60 141.76 L 95.87 142.49 C 95.21 143.15 95.21 144.21 95.86 144.87 C 96.52 145.54 97.59 145.54 98.25 144.88 L 98.98 144.16 C 99.64 143.50 99.64 142.43 98.99 141.77 C 98.33 141.11 97.26 141.11 96.60 141.76 Z M 95.90 142.47 L 95.17 143.16 C 94.50 143.80 94.48 144.86 95.11 145.54 C 95.75 146.21 96.81 146.23 97.48 145.60 L 98.21 144.90 C 98.89 144.26 98.91 143.20 98.27 142.53 C 97.64 141.86 96.58 141.83 95.90 142.47 Z M 95.21 143.15 L 94.48 143.81 C 93.80 144.43 93.75 145.48 94.37 146.17 C 94.99 146.85 96.04 146.90 96.72 146.28 L 97.45 145.61 C 98.13 144.99 98.18 143.94 97.56 143.26 C 96.94 142.58 95.89 142.53 95.21 143.15 Z M 94.51 143.79 L 93.79 144.43 C 93.10 145.03 93.02 146.07 93.63 146.76 C 94.23 147.46 95.28 147.53 95.97 146.92 L 96.69 146.29 C 97.38 145.69 97.45 144.64 96.85 143.95 C 96.25 143.26 95.20 143.19 94.51 143.79 Z M 93.82 144.41 L 93.10 145.01 C 92.40 145.60 92.30 146.64 92.89 147.34 C 93.47 148.03 94.51 148.13 95.21 147.54 L 95.93 146.94 C 96.63 146.36 96.73 145.32 96.14 144.62 C 95.56 143.92 94.52 143.83 93.82 144.41 Z M 93.13 145.00 L 92.38 145.60 C 91.67 146.17 91.55 147.20 92.12 147.91 C 92.68 148.61 93.72 148.73 94.42 148.16 L 95.18 147.56 C 95.89 146.99 96.00 145.96 95.43 145.25 C 94.87 144.55 93.84 144.43 93.13 145.00 Z M 92.41 145.58 L 91.60 146.20 C 90.88 146.75 90.74 147.77 91.29 148.49 C 91.83 149.21 92.85 149.35 93.57 148.80 L 94.39 148.18 C 95.10 147.64 95.24 146.61 94.70 145.90 C 94.15 145.18 93.13 145.04 92.41 145.58 Z M 91.64 146.18 L 90.82 146.76 C 90.09 147.28 89.92 148.30 90.44 149.03 C 90.96 149.76 91.98 149.93 92.71 149.41 L 93.53 148.82 C 94.26 148.30 94.43 147.29 93.91 146.56 C 93.39 145.83 92.37 145.66 91.64 146.18 Z M 90.88 146.74 L 90.05 147.29 C 89.30 147.78 89.10 148.78 89.59 149.52 C 90.08 150.27 91.08 150.47 91.83 149.98 L 92.65 149.43 C 93.40 148.94 93.60 147.94 93.11 147.20 C 92.62 146.45 91.62 146.25 90.88 146.74 Z M 90.11 147.26 L 89.26 147.77 C 88.50 148.22 88.26 149.21 88.72 149.97 C 89.17 150.73 90.16 150.97 90.92 150.52 L 91.77 150.01 C 92.52 149.55 92.77 148.56 92.31 147.80 C 91.85 147.04 90.87 146.80 90.11 147.26 Z M 89.33 147.74 L 88.46 148.21 C 87.69 148.63 87.40 149.60 87.82 150.37 C 88.24 151.15 89.21 151.44 89.99 151.01 L 90.85 150.54 C 91.63 150.12 91.92 149.15 91.50 148.38 C 91.08 147.60 90.11 147.32 89.33 147.74 Z M 88.54 148.18 L 87.64 148.61 C 86.85 148.99 86.52 149.94 86.90 150.73 C 87.28 151.52 88.23 151.85 89.02 151.47 L 89.92 151.04 C 90.71 150.66 91.04 149.71 90.66 148.92 C 90.28 148.13 89.33 147.80 88.54 148.18 Z M 87.72 148.58 L 86.82 148.96 C 86.02 149.30 85.64 150.23 85.98 151.04 C 86.32 151.84 87.25 152.22 88.05 151.88 L 88.95 151.50 C 89.75 151.16 90.13 150.23 89.79 149.43 C 89.45 148.62 88.52 148.24 87.72 148.58 Z M 86.89 148.94 L 85.97 149.28 C 85.15 149.59 84.74 150.50 85.04 151.31 C 85.35 152.13 86.26 152.55 87.07 152.24 L 87.99 151.90 C 88.81 151.59 89.22 150.69 88.92 149.87 C 88.61 149.05 87.70 148.64 86.89 148.94 Z M 86.02 149.27 L 85.08 149.58 C 84.26 149.86 83.81 150.75 84.09 151.57 C 84.36 152.40 85.26 152.85 86.08 152.57 L 87.02 152.26 C 87.85 151.98 88.29 151.09 88.02 150.26 C 87.74 149.44 86.85 148.99 86.02 149.27 Z M 85.13 149.57 L 84.17 149.86 C 83.34 150.12 82.87 150.99 83.12 151.82 C 83.37 152.66 84.25 153.12 85.08 152.87 L 86.04 152.58 C 86.87 152.33 87.34 151.45 87.09 150.62 C 86.83 149.79 85.96 149.32 85.13 149.57 Z M 84.20 149.86 L 83.22 150.13 C 82.39 150.37 81.90 151.23 82.14 152.07 C 82.38 152.90 83.24 153.39 84.08 153.15 L 85.05 152.88 C 85.88 152.64 86.37 151.78 86.13 150.94 C 85.90 150.11 85.03 149.62 84.20 149.86 Z M 83.25 150.13 L 82.26 150.39 C 81.43 150.62 80.93 151.47 81.15 152.31 C 81.38 153.14 82.24 153.64 83.07 153.42 L 84.05 153.15 C 84.89 152.93 85.39 152.07 85.16 151.24 C 84.94 150.40 84.08 149.91 83.25 150.13 Z M 82.27 150.39 L 81.28 150.65 C 80.45 150.87 79.95 151.72 80.16 152.55 C 80.38 153.39 81.23 153.89 82.07 153.67 L 83.06 153.42 C 83.89 153.20 84.40 152.35 84.18 151.51 C 83.96 150.68 83.11 150.17 82.27 150.39 Z M 81.29 150.65 L 81.14 150.69 C 80.30 150.90 79.80 151.75 80.02 152.59 C 80.23 153.42 81.08 153.93 81.92 153.71 L 82.07 153.67 C 82.90 153.46 83.40 152.61 83.19 151.77 C 82.97 150.94 82.12 150.43 81.29 150.65 Z"
      fill="black"
      fill-rule="nonzero" /><path d="M 145.17 84.26 L 146.03 84.80 C 146.86 85.33 147.96 85.08 148.49 84.25 C 149.02 83.41 148.78 82.31 147.94 81.78 L 147.09 81.24 C 146.26 80.71 145.15 80.95 144.62 81.79 C 144.09 82.62 144.34 83.73 145.17 84.26 Z M 146.01 84.83 L 146.86 85.37 C 147.71 85.91 148.84 85.65 149.38 84.80 C 149.92 83.95 149.66 82.82 148.81 82.28 L 147.96 81.74 C 147.11 81.21 145.98 81.46 145.44 82.31 C 144.90 83.17 145.16 84.29 146.01 84.83 Z M 146.85 85.41 L 147.70 85.94 C 148.58 86.49 149.73 86.22 150.27 85.34 C 150.82 84.47 150.55 83.32 149.67 82.77 L 148.82 82.24 C 147.95 81.70 146.80 81.97 146.25 82.84 C 145.71 83.71 145.98 84.86 146.85 85.41 Z M 147.70 85.98 L 148.55 86.50 C 149.45 87.05 150.62 86.77 151.17 85.87 C 151.71 84.97 151.43 83.80 150.53 83.25 L 149.68 82.73 C 148.78 82.18 147.61 82.47 147.06 83.37 C 146.52 84.26 146.80 85.43 147.70 85.98 Z M 148.55 86.55 L 149.40 87.05 C 150.32 87.60 151.52 87.30 152.06 86.37 C 152.61 85.45 152.31 84.26 151.38 83.71 L 150.53 83.21 C 149.61 82.66 148.42 82.96 147.87 83.89 C 147.32 84.81 147.63 86.00 148.55 86.55 Z M 149.41 87.10 L 150.26 87.58 C 151.21 88.12 152.41 87.80 152.95 86.85 C 153.50 85.90 153.17 84.70 152.22 84.16 L 151.37 83.67 C 150.43 83.13 149.22 83.46 148.68 84.40 C 148.14 85.35 148.47 86.55 149.41 87.10 Z M 150.29 87.61 L 151.13 88.07 C 152.09 88.60 153.29 88.24 153.82 87.28 C 154.35 86.32 154.00 85.12 153.04 84.59 L 152.19 84.13 C 151.23 83.60 150.03 83.96 149.50 84.92 C 148.98 85.88 149.33 87.08 150.29 87.61 Z M 151.17 88.08 L 152.02 88.53 C 152.99 89.04 154.18 88.66 154.69 87.70 C 155.20 86.73 154.82 85.53 153.86 85.03 L 153.00 84.58 C 152.03 84.07 150.84 84.45 150.33 85.41 C 149.83 86.38 150.20 87.58 151.17 88.08 Z M 152.06 88.54 L 152.94 88.98 C 153.91 89.47 155.09 89.07 155.58 88.10 C 156.07 87.12 155.67 85.94 154.70 85.45 L 153.82 85.02 C 152.84 84.53 151.66 84.92 151.18 85.90 C 150.69 86.87 151.08 88.06 152.06 88.54 Z M 152.97 88.99 L 153.89 89.43 C 154.87 89.89 156.04 89.48 156.50 88.50 C 156.97 87.52 156.55 86.34 155.57 85.88 L 154.66 85.44 C 153.68 84.98 152.51 85.39 152.04 86.37 C 151.58 87.35 151.99 88.53 152.97 88.99 Z M 153.92 89.44 L 154.88 89.87 C 155.86 90.32 157.02 89.88 157.47 88.90 C 157.92 87.91 157.48 86.75 156.50 86.30 L 155.54 85.87 C 154.55 85.42 153.39 85.86 152.95 86.84 C 152.50 87.83 152.94 88.99 153.92 89.44 Z M 154.91 89.88 L 155.76 90.25 C 156.75 90.68 157.90 90.23 158.33 89.24 C 158.76 88.25 158.31 87.10 157.32 86.67 L 156.47 86.30 C 155.48 85.87 154.33 86.32 153.90 87.31 C 153.47 88.30 153.92 89.45 154.91 89.88 Z M 155.79 90.25 L 156.54 90.57 C 157.53 90.99 158.67 90.52 159.09 89.53 C 159.51 88.54 159.04 87.40 158.05 86.98 L 157.30 86.66 C 156.30 86.25 155.16 86.71 154.75 87.70 C 154.33 88.70 154.80 89.84 155.79 90.25 Z M 156.56 90.57 L 157.36 90.90 C 158.35 91.30 159.48 90.82 159.89 89.83 C 160.29 88.84 159.82 87.70 158.82 87.30 L 158.03 86.98 C 157.03 86.57 155.90 87.05 155.50 88.04 C 155.09 89.04 155.57 90.17 156.56 90.57 Z M 157.38 90.90 L 158.23 91.23 C 159.22 91.63 160.35 91.14 160.74 90.14 C 161.13 89.15 160.64 88.03 159.65 87.63 L 158.80 87.30 C 157.81 86.91 156.68 87.39 156.29 88.39 C 155.90 89.38 156.39 90.51 157.38 90.90 Z M 158.25 91.24 L 159.15 91.58 C 160.15 91.96 161.27 91.47 161.65 90.47 C 162.03 89.48 161.53 88.36 160.54 87.98 L 159.63 87.63 C 158.63 87.25 157.52 87.75 157.14 88.74 C 156.75 89.74 157.25 90.85 158.25 91.24 Z M 159.17 91.58 L 160.15 91.95 C 161.14 92.32 162.25 91.81 162.62 90.82 C 163.00 89.82 162.49 88.71 161.49 88.34 L 160.52 87.98 C 159.52 87.61 158.41 88.11 158.04 89.11 C 157.67 90.10 158.18 91.21 159.17 91.58 Z M 160.17 91.95 L 161.22 92.33 C 162.21 92.69 163.32 92.18 163.68 91.18 C 164.04 90.19 163.53 89.09 162.53 88.73 L 161.48 88.34 C 160.48 87.98 159.38 88.49 159.02 89.49 C 158.66 90.48 159.17 91.59 160.17 91.95 Z M 161.23 92.33 L 162.37 92.74 C 163.37 93.09 164.46 92.57 164.82 91.57 C 165.17 90.58 164.65 89.49 163.65 89.13 L 162.52 88.73 C 161.52 88.37 160.43 88.89 160.07 89.89 C 159.72 90.88 160.24 91.98 161.23 92.33 Z M 162.39 92.73 L 163.48 93.12 C 164.47 93.46 165.56 92.94 165.91 91.94 C 166.25 90.95 165.73 89.86 164.73 89.51 L 163.64 89.13 C 162.65 88.79 161.56 89.31 161.21 90.30 C 160.87 91.30 161.39 92.39 162.39 92.73 Z M 163.48 93.11 L 164.40 93.43 C 165.39 93.77 166.48 93.24 166.82 92.25 C 167.16 91.25 166.63 90.17 165.64 89.83 L 164.72 89.52 C 163.73 89.17 162.65 89.70 162.31 90.69 C 161.96 91.69 162.49 92.77 163.48 93.11 Z M 164.41 93.42 L 165.36 93.75 C 166.35 94.09 167.43 93.56 167.77 92.57 C 168.10 91.57 167.57 90.50 166.58 90.16 L 165.63 89.83 C 164.64 89.49 163.56 90.02 163.22 91.02 C 162.88 92.01 163.41 93.09 164.41 93.42 Z M 165.36 93.75 L 166.34 94.08 C 167.33 94.41 168.40 93.88 168.74 92.89 C 169.07 91.90 168.54 90.83 167.55 90.49 L 166.58 90.16 C 165.59 89.83 164.51 90.36 164.18 91.35 C 163.84 92.34 164.37 93.41 165.36 93.75 Z M 166.35 94.07 L 167.34 94.41 C 168.33 94.74 169.40 94.21 169.73 93.22 C 170.06 92.23 169.53 91.16 168.54 90.83 L 167.55 90.49 C 166.56 90.16 165.49 90.69 165.16 91.68 C 164.83 92.67 165.36 93.74 166.35 94.07 Z M 167.35 94.40 L 168.35 94.74 C 169.33 95.07 170.40 94.53 170.73 93.55 C 171.06 92.56 170.53 91.50 169.54 91.17 L 168.54 90.83 C 167.55 90.50 166.49 91.04 166.16 92.02 C 165.83 93.01 166.36 94.07 167.35 94.40 Z M 168.35 94.73 L 169.35 95.07 C 170.34 95.39 171.40 94.86 171.73 93.88 C 172.05 92.89 171.52 91.83 170.54 91.50 L 169.54 91.17 C 168.55 90.84 167.49 91.38 167.16 92.36 C 166.84 93.34 167.37 94.41 168.35 94.73 Z M 169.36 95.06 L 170.34 95.39 C 171.33 95.71 172.39 95.18 172.71 94.20 C 173.04 93.22 172.50 92.16 171.52 91.84 L 170.53 91.51 C 169.55 91.18 168.49 91.71 168.17 92.70 C 167.84 93.68 168.37 94.74 169.36 95.06 Z M 170.35 95.39 L 171.32 95.71 C 172.30 96.03 173.35 95.50 173.68 94.52 C 174.00 93.54 173.47 92.48 172.49 92.16 L 171.52 91.84 C 170.54 91.52 169.48 92.05 169.16 93.03 C 168.84 94.01 169.37 95.06 170.35 95.39 Z M 171.32 95.70 L 172.26 96.01 C 173.23 96.33 174.29 95.80 174.61 94.82 C 174.93 93.85 174.40 92.80 173.42 92.47 L 172.49 92.16 C 171.51 91.84 170.46 92.37 170.13 93.35 C 169.81 94.33 170.34 95.38 171.32 95.70 Z M 172.26 96.01 L 173.16 96.30 C 174.13 96.62 175.18 96.09 175.50 95.12 C 175.82 94.14 175.29 93.09 174.32 92.77 L 173.42 92.48 C 172.45 92.16 171.40 92.69 171.08 93.66 C 170.76 94.64 171.29 95.68 172.26 96.01 Z M 173.16 96.30 L 174.01 96.58 C 174.98 96.90 176.03 96.37 176.35 95.40 C 176.67 94.42 176.14 93.38 175.17 93.06 L 174.32 92.78 C 173.35 92.46 172.30 92.99 171.98 93.96 C 171.66 94.93 172.19 95.98 173.16 96.30 Z M 174.01 96.57 L 175.11 96.93 C 176.08 97.25 177.12 96.72 177.44 95.76 C 177.76 94.79 177.23 93.75 176.26 93.43 L 175.17 93.07 C 174.20 92.75 173.16 93.27 172.84 94.24 C 172.52 95.21 173.04 96.25 174.01 96.57 Z M 175.11 96.92 L 176.18 97.27 C 177.14 97.59 178.18 97.07 178.50 96.11 C 178.81 95.15 178.29 94.11 177.33 93.79 L 176.26 93.44 C 175.30 93.12 174.27 93.64 173.95 94.60 C 173.63 95.57 174.15 96.60 175.11 96.92 Z M 176.18 97.26 L 177.16 97.58 C 178.11 97.90 179.14 97.38 179.46 96.43 C 179.78 95.48 179.26 94.45 178.31 94.13 L 177.33 93.81 C 176.38 93.49 175.35 94.01 175.03 94.96 C 174.72 95.91 175.23 96.94 176.18 97.26 Z M 177.16 97.57 L 178.07 97.87 C 179.02 98.19 180.04 97.68 180.36 96.73 C 180.67 95.79 180.16 94.76 179.22 94.45 L 178.31 94.14 C 177.36 93.83 176.34 94.34 176.02 95.29 C 175.71 96.23 176.22 97.25 177.16 97.57 Z M 178.07 97.86 L 178.94 98.15 C 179.88 98.47 180.90 97.96 181.21 97.02 C 181.53 96.08 181.02 95.07 180.08 94.75 L 179.21 94.46 C 178.28 94.15 177.26 94.65 176.95 95.59 C 176.63 96.53 177.14 97.54 178.07 97.86 Z M 178.94 98.14 L 179.80 98.43 C 180.73 98.74 181.74 98.24 182.05 97.31 C 182.37 96.38 181.87 95.37 180.94 95.06 L 180.08 94.77 C 179.15 94.45 178.14 94.95 177.83 95.88 C 177.51 96.81 178.01 97.82 178.94 98.14 Z M 179.80 98.41 L 180.67 98.71 C 181.59 99.02 182.59 98.53 182.91 97.61 C 183.22 96.68 182.73 95.68 181.81 95.37 L 180.94 95.07 C 180.02 94.76 179.01 95.25 178.70 96.17 C 178.38 97.10 178.88 98.10 179.80 98.41 Z M 180.67 98.70 L 181.56 99.00 C 182.48 99.32 183.47 98.83 183.79 97.91 C 184.10 97.00 183.61 96.00 182.70 95.69 L 181.81 95.38 C 180.89 95.07 179.89 95.55 179.58 96.47 C 179.26 97.38 179.75 98.38 180.67 98.70 Z M 181.56 98.99 L 182.43 99.29 C 183.34 99.61 184.33 99.12 184.64 98.21 C 184.96 97.30 184.48 96.31 183.56 95.99 L 182.70 95.69 C 181.79 95.38 180.79 95.86 180.48 96.77 C 180.16 97.69 180.65 98.68 181.56 98.99 Z M 182.42 99.29 L 183.33 99.60 C 184.24 99.92 185.23 99.44 185.55 98.53 C 185.86 97.62 185.38 96.63 184.47 96.31 L 183.57 96.00 C 182.66 95.68 181.67 96.16 181.35 97.07 C 181.03 97.98 181.51 98.97 182.42 99.29 Z M 183.32 99.60 L 184.26 99.93 C 185.17 100.24 186.16 99.77 186.48 98.86 C 186.79 97.96 186.32 96.97 185.41 96.65 L 184.48 96.32 C 183.57 96.00 182.58 96.48 182.26 97.38 C 181.94 98.29 182.42 99.28 183.32 99.60 Z M 184.26 99.92 L 185.21 100.26 C 186.12 100.58 187.11 100.11 187.43 99.21 C 187.75 98.31 187.28 97.31 186.38 96.99 L 185.42 96.65 C 184.52 96.33 183.52 96.80 183.20 97.71 C 182.88 98.61 183.35 99.60 184.26 99.92 Z M 185.21 100.25 L 186.18 100.60 C 187.08 100.93 188.07 100.46 188.39 99.56 C 188.72 98.66 188.25 97.67 187.35 97.35 L 186.38 97.00 C 185.48 96.68 184.49 97.14 184.17 98.04 C 183.84 98.94 184.31 99.93 185.21 100.25 Z M 186.17 100.60 L 187.15 100.95 C 188.04 101.28 189.03 100.82 189.36 99.93 C 189.69 99.03 189.23 98.04 188.33 97.71 L 187.36 97.36 C 186.46 97.03 185.47 97.49 185.14 98.38 C 184.82 99.28 185.28 100.27 186.17 100.60 Z M 187.14 100.95 L 188.11 101.31 C 189.00 101.64 189.99 101.19 190.32 100.30 C 190.66 99.41 190.20 98.42 189.31 98.08 L 188.34 97.72 C 187.45 97.39 186.46 97.84 186.13 98.73 C 185.79 99.62 186.25 100.61 187.14 100.95 Z M 188.10 101.30 L 189.05 101.67 C 189.94 102.01 190.93 101.56 191.27 100.67 C 191.61 99.79 191.17 98.79 190.28 98.46 L 189.32 98.09 C 188.44 97.75 187.44 98.20 187.10 99.08 C 186.77 99.97 187.21 100.96 188.10 101.30 Z M 189.04 101.66 L 190.02 102.04 C 190.90 102.38 191.89 101.95 192.24 101.07 C 192.58 100.19 192.15 99.19 191.26 98.85 L 190.29 98.47 C 189.41 98.12 188.42 98.56 188.07 99.44 C 187.73 100.32 188.16 101.31 189.04 101.66 Z M 190.00 102.02 L 190.96 102.41 C 191.84 102.77 192.83 102.34 193.18 101.47 C 193.54 100.60 193.12 99.60 192.24 99.25 L 191.28 98.86 C 190.41 98.51 189.41 98.93 189.06 99.80 C 188.71 100.68 189.13 101.67 190.00 102.02 Z M 190.94 102.40 L 191.88 102.79 C 192.75 103.16 193.74 102.75 194.11 101.88 C 194.47 101.02 194.06 100.02 193.20 99.66 L 192.26 99.26 C 191.40 98.90 190.40 99.31 190.04 100.17 C 189.67 101.04 190.08 102.03 190.94 102.40 Z M 191.86 102.77 L 192.78 103.18 C 193.63 103.55 194.63 103.16 195.01 102.31 C 195.38 101.45 194.99 100.45 194.14 100.08 L 193.22 99.68 C 192.37 99.30 191.37 99.69 190.99 100.55 C 190.62 101.40 191.01 102.40 191.86 102.77 Z M 192.75 103.16 L 193.65 103.57 C 194.49 103.96 195.49 103.59 195.88 102.75 C 196.27 101.90 195.90 100.90 195.06 100.51 L 194.16 100.10 C 193.32 99.71 192.32 100.08 191.93 100.92 C 191.54 101.77 191.91 102.77 192.75 103.16 Z M 193.62 103.55 L 194.50 103.98 C 195.33 104.38 196.34 104.04 196.74 103.20 C 197.15 102.37 196.80 101.37 195.97 100.96 L 195.09 100.53 C 194.26 100.13 193.25 100.48 192.85 101.31 C 192.44 102.14 192.79 103.14 193.62 103.55 Z M 194.47 103.95 L 195.33 104.40 C 196.15 104.82 197.16 104.50 197.58 103.68 C 198.00 102.86 197.68 101.85 196.86 101.43 L 196.00 100.99 C 195.18 100.56 194.17 100.89 193.75 101.71 C 193.33 102.52 193.65 103.53 194.47 103.95 Z M 195.30 104.37 L 196.15 104.84 C 196.96 105.28 197.97 104.98 198.41 104.18 C 198.85 103.37 198.55 102.36 197.75 101.92 L 196.90 101.46 C 196.09 101.02 195.08 101.31 194.64 102.12 C 194.20 102.92 194.50 103.93 195.30 104.37 Z M 196.12 104.81 L 197.02 105.34 C 197.81 105.80 198.82 105.53 199.28 104.74 C 199.75 103.96 199.48 102.94 198.69 102.48 L 197.78 101.95 C 197.00 101.49 195.98 101.76 195.52 102.55 C 195.06 103.34 195.33 104.35 196.12 104.81 Z M 196.98 105.31 L 197.89 105.88 C 198.66 106.36 199.68 106.13 200.16 105.36 C 200.64 104.59 200.41 103.57 199.64 103.09 L 198.73 102.52 C 197.96 102.03 196.95 102.26 196.46 103.03 C 195.98 103.80 196.21 104.82 196.98 105.31 Z M 197.84 105.84 L 198.72 106.43 C 199.46 106.94 200.48 106.75 200.99 106.00 C 201.50 105.25 201.31 104.23 200.56 103.72 L 199.69 103.13 C 198.94 102.62 197.92 102.81 197.41 103.56 C 196.90 104.31 197.09 105.33 197.84 105.84 Z M 198.66 106.39 L 199.49 107.00 C 200.21 107.54 201.23 107.40 201.77 106.67 C 202.31 105.95 202.17 104.93 201.44 104.39 L 200.62 103.77 C 199.90 103.23 198.87 103.38 198.33 104.10 C 197.79 104.82 197.94 105.84 198.66 106.39 Z M 199.42 106.94 L 200.19 107.58 C 200.88 108.16 201.90 108.06 202.48 107.37 C 203.05 106.68 202.96 105.66 202.27 105.08 L 201.51 104.45 C 200.82 103.87 199.79 103.96 199.22 104.65 C 198.64 105.34 198.73 106.37 199.42 106.94 Z M 200.12 107.51 L 200.80 108.16 C 201.45 108.77 202.48 108.75 203.09 108.10 C 203.71 107.45 203.68 106.42 203.03 105.81 L 202.34 105.16 C 201.69 104.54 200.67 104.57 200.05 105.22 C 199.44 105.87 199.47 106.89 200.12 107.51 Z M 200.72 108.07 L 201.32 108.73 C 201.92 109.39 202.94 109.44 203.60 108.85 C 204.26 108.25 204.31 107.23 203.72 106.57 L 203.11 105.90 C 202.52 105.24 201.50 105.19 200.84 105.79 C 200.18 106.39 200.13 107.41 200.72 108.07 Z M 201.22 108.59 L 201.80 109.39 C 202.33 110.11 203.33 110.27 204.05 109.75 C 204.76 109.22 204.92 108.22 204.40 107.50 L 203.82 106.71 C 203.29 105.99 202.29 105.83 201.57 106.35 C 200.86 106.87 200.70 107.88 201.22 108.59 Z M 201.70 109.21 L 202.20 110.13 C 202.62 110.90 203.59 111.19 204.36 110.77 C 205.14 110.35 205.42 109.38 205.00 108.60 L 204.50 107.69 C 204.08 106.91 203.11 106.63 202.34 107.05 C 201.56 107.47 201.28 108.44 201.70 109.21 Z M 202.12 109.94 L 202.48 110.87 C 202.80 111.69 203.72 112.09 204.54 111.77 C 205.36 111.45 205.76 110.53 205.44 109.71 L 205.08 108.79 C 204.76 107.97 203.84 107.57 203.02 107.88 C 202.20 108.20 201.80 109.13 202.12 109.94 Z M 202.44 110.72 L 202.70 111.65 C 202.94 112.49 203.81 112.98 204.65 112.75 C 205.49 112.51 205.98 111.64 205.75 110.80 L 205.48 109.86 C 205.25 109.02 204.38 108.53 203.53 108.77 C 202.69 109.00 202.20 109.88 202.44 110.72 Z M 202.68 111.55 L 202.88 112.49 C 203.06 113.34 203.89 113.88 204.74 113.70 C 205.59 113.53 206.14 112.69 205.96 111.84 L 205.76 110.90 C 205.58 110.05 204.75 109.51 203.90 109.69 C 203.05 109.86 202.51 110.70 202.68 111.55 Z M 202.88 112.44 L 203.02 113.23 C 203.17 114.08 203.98 114.65 204.84 114.49 C 205.69 114.34 206.25 113.53 206.10 112.68 L 205.96 111.89 C 205.81 111.04 205.00 110.47 204.15 110.62 C 203.29 110.78 202.73 111.59 202.88 112.44 Z"
      fill="black"
      fill-rule="nonzero" /><path d="M 115.72 148.20 L 116.53 147.71 C 117.36 147.22 117.63 146.14 117.14 145.31 C 116.64 144.47 115.56 144.20 114.73 144.70 L 113.92 145.18 C 113.09 145.68 112.82 146.75 113.31 147.59 C 113.81 148.42 114.89 148.69 115.72 148.20 Z M 116.52 147.75 L 117.35 147.28 C 118.20 146.79 118.49 145.70 118.00 144.84 C 117.51 143.99 116.42 143.69 115.56 144.18 L 114.74 144.66 C 113.88 145.15 113.59 146.24 114.08 147.10 C 114.57 147.95 115.67 148.25 116.52 147.75 Z M 117.31 147.33 L 118.17 146.87 C 119.06 146.40 119.39 145.30 118.91 144.41 C 118.44 143.53 117.34 143.20 116.45 143.67 L 115.59 144.13 C 114.71 144.61 114.38 145.71 114.85 146.59 C 115.33 147.47 116.43 147.81 117.31 147.33 Z M 118.12 146.93 L 119.03 146.49 C 119.95 146.05 120.33 144.94 119.89 144.02 C 119.44 143.11 118.34 142.72 117.42 143.17 L 116.51 143.61 C 115.59 144.05 115.21 145.16 115.65 146.08 C 116.10 146.99 117.20 147.38 118.12 146.93 Z M 118.95 146.56 L 119.94 146.14 C 120.89 145.74 121.34 144.64 120.93 143.68 C 120.53 142.73 119.43 142.28 118.47 142.69 L 117.49 143.10 C 116.54 143.50 116.09 144.61 116.50 145.56 C 116.90 146.51 118.00 146.96 118.95 146.56 Z M 119.85 146.20 L 120.78 145.86 C 121.77 145.51 122.28 144.42 121.92 143.43 C 121.56 142.45 120.47 141.94 119.49 142.29 L 118.56 142.63 C 117.57 142.99 117.06 144.07 117.42 145.06 C 117.78 146.05 118.86 146.56 119.85 146.20 Z M 120.71 145.90 L 121.57 145.62 C 122.57 145.31 123.13 144.24 122.81 143.24 C 122.50 142.23 121.43 141.68 120.42 141.99 L 119.56 142.26 C 118.56 142.58 118.00 143.65 118.32 144.65 C 118.63 145.65 119.70 146.21 120.71 145.90 Z M 121.51 145.64 L 122.42 145.38 C 123.43 145.10 124.02 144.04 123.74 143.03 C 123.45 142.02 122.40 141.44 121.39 141.72 L 120.48 141.98 C 119.47 142.26 118.88 143.31 119.17 144.32 C 119.45 145.34 120.50 145.92 121.51 145.64 Z M 122.38 145.39 L 123.34 145.14 C 124.35 144.88 124.96 143.84 124.70 142.83 C 124.43 141.81 123.40 141.20 122.38 141.46 L 121.43 141.71 C 120.41 141.98 119.80 143.01 120.07 144.03 C 120.33 145.04 121.37 145.65 122.38 145.39 Z M 123.31 145.15 L 124.30 144.90 C 125.32 144.65 125.94 143.63 125.69 142.61 C 125.44 141.59 124.42 140.97 123.40 141.22 L 122.41 141.46 C 121.39 141.71 120.77 142.74 121.02 143.75 C 121.27 144.77 122.29 145.39 123.31 145.15 Z M 124.29 144.90 L 125.31 144.66 C 126.33 144.42 126.96 143.40 126.72 142.38 C 126.48 141.36 125.46 140.73 124.44 140.97 L 123.41 141.22 C 122.39 141.46 121.76 142.48 122.01 143.50 C 122.25 144.51 123.27 145.14 124.29 144.90 Z M 125.31 144.66 L 126.36 144.41 C 127.38 144.17 128.01 143.15 127.77 142.14 C 127.53 141.12 126.51 140.49 125.50 140.73 L 124.44 140.98 C 123.42 141.21 122.79 142.23 123.03 143.25 C 123.27 144.27 124.29 144.90 125.31 144.66 Z M 126.37 144.41 L 127.40 144.16 C 128.41 143.92 129.04 142.90 128.80 141.89 C 128.55 140.87 127.54 140.24 126.52 140.49 L 125.49 140.73 C 124.48 140.97 123.85 141.99 124.09 143.01 C 124.33 144.02 125.35 144.65 126.37 144.41 Z M 127.41 144.15 L 128.33 143.93 C 129.35 143.68 129.97 142.66 129.72 141.65 C 129.47 140.64 128.45 140.02 127.44 140.27 L 126.51 140.49 C 125.50 140.74 124.88 141.76 125.13 142.77 C 125.37 143.78 126.39 144.40 127.41 144.15 Z M 128.34 143.92 L 129.28 143.69 C 130.29 143.44 130.90 142.42 130.65 141.41 C 130.40 140.40 129.39 139.79 128.38 140.04 L 127.44 140.27 C 126.43 140.52 125.81 141.54 126.06 142.55 C 126.31 143.56 127.33 144.17 128.34 143.92 Z M 129.29 143.68 L 130.24 143.44 C 131.25 143.19 131.86 142.17 131.60 141.16 C 131.35 140.16 130.33 139.55 129.33 139.81 L 128.37 140.05 C 127.37 140.30 126.76 141.32 127.01 142.32 C 127.27 143.32 128.29 143.93 129.29 143.68 Z M 130.25 143.43 L 131.22 143.19 C 132.21 142.93 132.82 141.91 132.56 140.91 C 132.31 139.92 131.29 139.31 130.29 139.57 L 129.33 139.81 C 128.33 140.07 127.72 141.08 127.98 142.08 C 128.23 143.08 129.25 143.69 130.25 143.43 Z M 131.22 143.18 L 132.20 142.93 C 133.19 142.67 133.79 141.66 133.54 140.66 C 133.28 139.67 132.27 139.07 131.27 139.32 L 130.29 139.57 C 129.30 139.83 128.69 140.84 128.95 141.84 C 129.21 142.83 130.22 143.44 131.22 143.18 Z M 132.20 142.92 L 133.18 142.67 C 134.18 142.41 134.77 141.40 134.52 140.41 C 134.26 139.41 133.25 138.82 132.26 139.07 L 131.27 139.33 C 130.28 139.58 129.68 140.60 129.93 141.59 C 130.19 142.58 131.20 143.18 132.20 142.92 Z M 133.18 142.66 L 134.18 142.41 C 135.17 142.15 135.76 141.14 135.51 140.15 C 135.25 139.16 134.24 138.57 133.25 138.82 L 132.26 139.08 C 131.27 139.33 130.67 140.34 130.93 141.33 C 131.18 142.32 132.19 142.92 133.18 142.66 Z M 134.18 142.40 L 135.18 142.14 C 136.17 141.89 136.76 140.88 136.51 139.90 C 136.25 138.91 135.25 138.31 134.26 138.57 L 133.26 138.83 C 132.27 139.08 131.67 140.09 131.93 141.07 C 132.18 142.06 133.19 142.65 134.18 142.40 Z M 135.17 142.14 L 136.16 141.88 C 137.14 141.63 137.74 140.63 137.49 139.65 C 137.23 138.66 136.23 138.07 135.25 138.32 L 134.26 138.57 C 133.28 138.83 132.69 139.83 132.94 140.81 C 133.19 141.80 134.19 142.39 135.17 142.14 Z M 136.16 141.88 L 137.14 141.63 C 138.12 141.38 138.71 140.38 138.46 139.40 C 138.21 138.42 137.21 137.83 136.23 138.08 L 135.25 138.33 C 134.27 138.58 133.68 139.58 133.93 140.56 C 134.18 141.53 135.18 142.13 136.16 141.88 Z M 137.14 141.62 L 138.12 141.37 C 139.09 141.12 139.68 140.13 139.43 139.15 C 139.18 138.18 138.19 137.59 137.22 137.84 L 136.24 138.09 C 135.26 138.34 134.67 139.33 134.92 140.30 C 135.17 141.28 136.16 141.87 137.14 141.62 Z M 138.12 141.36 L 139.10 141.11 C 140.07 140.86 140.65 139.87 140.40 138.90 C 140.16 137.93 139.17 137.35 138.20 137.60 L 137.22 137.85 C 136.25 138.09 135.67 139.08 135.91 140.05 C 136.16 141.02 137.15 141.60 138.12 141.36 Z M 139.10 141.10 L 140.07 140.85 C 141.04 140.60 141.62 139.62 141.37 138.65 C 141.13 137.69 140.14 137.11 139.18 137.36 L 138.20 137.61 C 137.24 137.85 136.66 138.84 136.90 139.80 C 137.15 140.76 138.13 141.34 139.10 141.10 Z M 140.07 140.84 L 141.05 140.59 C 142.00 140.34 142.58 139.36 142.33 138.40 C 142.09 137.44 141.11 136.87 140.15 137.11 L 139.18 137.37 C 138.22 137.61 137.64 138.59 137.89 139.55 C 138.14 140.51 139.12 141.09 140.07 140.84 Z M 141.05 140.58 L 142.01 140.33 C 142.96 140.08 143.53 139.10 143.28 138.15 C 143.04 137.20 142.06 136.63 141.11 136.87 L 140.15 137.12 C 139.19 137.37 138.62 138.35 138.87 139.30 C 139.12 140.25 140.09 140.83 141.05 140.58 Z M 142.01 140.32 L 142.96 140.07 C 143.91 139.82 144.47 138.85 144.22 137.90 C 143.97 136.95 143.00 136.38 142.06 136.63 L 141.11 136.88 C 140.16 137.13 139.59 138.11 139.84 139.05 C 140.09 140.00 141.06 140.57 142.01 140.32 Z M 142.96 140.06 L 143.90 139.81 C 144.84 139.55 145.40 138.59 145.15 137.64 C 144.90 136.70 143.93 136.14 142.99 136.39 L 142.05 136.65 C 141.11 136.90 140.55 137.87 140.80 138.81 C 141.05 139.75 142.02 140.31 142.96 140.06 Z M 143.90 139.79 L 144.88 139.53 C 145.81 139.27 146.36 138.31 146.11 137.37 C 145.85 136.44 144.89 135.89 143.95 136.14 L 142.98 136.41 C 142.05 136.66 141.50 137.63 141.75 138.56 C 142.00 139.50 142.97 140.05 143.90 139.79 Z M 144.88 139.52 L 145.84 139.25 C 146.77 138.99 147.31 138.03 147.05 137.11 C 146.80 136.18 145.84 135.63 144.91 135.89 L 143.95 136.16 C 143.02 136.41 142.48 137.37 142.73 138.30 C 142.99 139.23 143.95 139.77 144.88 139.52 Z M 145.84 139.24 L 146.79 138.97 C 147.71 138.72 148.25 137.76 147.99 136.84 C 147.74 135.92 146.78 135.38 145.86 135.64 L 144.91 135.90 C 143.99 136.16 143.45 137.11 143.71 138.04 C 143.96 138.96 144.92 139.50 145.84 139.24 Z M 146.79 138.96 L 147.74 138.70 C 148.65 138.44 149.19 137.49 148.93 136.58 C 148.67 135.66 147.72 135.13 146.81 135.38 L 145.86 135.65 C 144.95 135.90 144.41 136.85 144.67 137.77 C 144.93 138.68 145.87 139.22 146.79 138.96 Z M 147.73 138.68 L 148.68 138.42 C 149.59 138.17 150.12 137.22 149.87 136.31 C 149.62 135.41 148.67 134.87 147.76 135.13 L 146.81 135.39 C 145.91 135.65 145.37 136.59 145.63 137.50 C 145.88 138.41 146.82 138.94 147.73 138.68 Z M 148.68 138.41 L 149.63 138.14 C 150.54 137.89 151.07 136.96 150.82 136.06 C 150.57 135.15 149.63 134.62 148.73 134.87 L 147.77 135.14 C 146.87 135.39 146.34 136.32 146.59 137.23 C 146.84 138.13 147.77 138.66 148.68 138.41 Z M 149.63 138.13 L 150.60 137.87 C 151.49 137.62 152.02 136.70 151.78 135.80 C 151.53 134.90 150.60 134.37 149.71 134.62 L 148.74 134.88 C 147.84 135.13 147.31 136.06 147.56 136.95 C 147.80 137.85 148.73 138.38 149.63 138.13 Z M 150.59 137.86 L 151.57 137.59 C 152.47 137.35 153.00 136.44 152.76 135.54 C 152.52 134.65 151.60 134.12 150.71 134.36 L 149.72 134.63 C 148.83 134.87 148.30 135.78 148.54 136.68 C 148.78 137.57 149.69 138.10 150.59 137.86 Z M 151.56 137.59 L 152.55 137.33 C 153.44 137.09 153.97 136.18 153.74 135.30 C 153.51 134.41 152.60 133.88 151.71 134.11 L 150.72 134.37 C 149.83 134.60 149.30 135.51 149.53 136.40 C 149.77 137.29 150.67 137.82 151.56 137.59 Z M 152.54 137.32 L 153.54 137.06 C 154.42 136.84 154.96 135.94 154.73 135.05 C 154.50 134.17 153.60 133.63 152.72 133.86 L 151.72 134.12 C 150.84 134.34 150.30 135.24 150.53 136.13 C 150.76 137.01 151.66 137.55 152.54 137.32 Z M 153.53 137.06 L 154.54 136.80 C 155.42 136.58 155.95 135.69 155.73 134.81 C 155.51 133.93 154.62 133.39 153.74 133.61 L 152.73 133.87 C 151.85 134.09 151.31 134.98 151.53 135.86 C 151.75 136.74 152.65 137.28 153.53 137.06 Z M 154.53 136.80 L 155.53 136.55 C 156.41 136.33 156.95 135.45 156.73 134.57 C 156.52 133.69 155.63 133.16 154.75 133.37 L 153.74 133.62 C 152.87 133.84 152.33 134.72 152.55 135.60 C 152.76 136.48 153.65 137.01 154.53 136.80 Z M 155.53 136.54 L 156.53 136.30 C 157.40 136.09 157.94 135.21 157.72 134.34 C 157.51 133.46 156.63 132.93 155.76 133.14 L 154.76 133.38 C 153.89 133.59 153.35 134.47 153.56 135.34 C 153.77 136.22 154.65 136.75 155.53 136.54 Z M 156.52 136.29 L 157.50 136.06 C 158.37 135.85 158.91 134.98 158.70 134.11 C 158.49 133.24 157.62 132.71 156.75 132.91 L 155.77 133.15 C 154.90 133.35 154.36 134.22 154.57 135.09 C 154.78 135.96 155.65 136.50 156.52 136.29 Z M 157.49 136.05 L 158.45 135.83 C 159.32 135.63 159.85 134.76 159.65 133.90 C 159.45 133.03 158.58 132.49 157.72 132.70 L 156.76 132.92 C 155.90 133.12 155.36 133.99 155.56 134.85 C 155.76 135.72 156.63 136.26 157.49 136.05 Z M 158.44 135.82 L 159.37 135.61 C 160.23 135.41 160.77 134.55 160.57 133.69 C 160.37 132.83 159.51 132.29 158.65 132.49 L 157.73 132.70 C 156.87 132.90 156.33 133.76 156.53 134.62 C 156.72 135.48 157.58 136.02 158.44 135.82 Z M 159.36 135.60 L 160.26 135.40 C 161.12 135.21 161.66 134.35 161.46 133.50 C 161.27 132.64 160.42 132.10 159.56 132.29 L 158.66 132.50 C 157.80 132.69 157.26 133.54 157.46 134.40 C 157.65 135.26 158.50 135.80 159.36 135.60 Z M 160.25 135.39 L 161.38 135.15 C 162.23 134.96 162.78 134.11 162.59 133.26 C 162.40 132.40 161.55 131.86 160.70 132.05 L 159.57 132.30 C 158.71 132.49 158.17 133.33 158.36 134.19 C 158.55 135.04 159.40 135.58 160.25 135.39 Z M 161.37 135.14 L 162.42 134.92 C 163.27 134.73 163.82 133.89 163.63 133.04 C 163.45 132.19 162.61 131.64 161.75 131.83 L 160.71 132.05 C 159.85 132.24 159.31 133.08 159.49 133.93 C 159.68 134.78 160.52 135.33 161.37 135.14 Z M 162.41 134.92 L 163.39 134.71 C 164.25 134.53 164.79 133.69 164.61 132.84 C 164.43 131.99 163.60 131.44 162.75 131.62 L 161.76 131.83 C 160.91 132.01 160.36 132.84 160.54 133.70 C 160.72 134.55 161.56 135.09 162.41 134.92 Z M 163.39 134.71 L 164.32 134.51 C 165.17 134.34 165.72 133.51 165.55 132.66 C 165.37 131.81 164.54 131.26 163.69 131.43 L 162.75 131.62 C 161.90 131.80 161.36 132.63 161.53 133.48 C 161.71 134.33 162.54 134.88 163.39 134.71 Z M 164.32 134.51 L 165.22 134.33 C 166.07 134.16 166.62 133.33 166.45 132.48 C 166.27 131.63 165.45 131.08 164.60 131.25 L 163.70 131.44 C 162.85 131.61 162.30 132.44 162.47 133.28 C 162.64 134.13 163.47 134.68 164.32 134.51 Z M 165.22 134.32 L 166.10 134.15 C 166.95 133.98 167.49 133.15 167.33 132.31 C 167.16 131.46 166.33 130.91 165.48 131.08 L 164.60 131.26 C 163.75 131.43 163.21 132.25 163.37 133.10 C 163.54 133.94 164.37 134.49 165.22 134.32 Z M 166.10 134.14 L 166.28 134.11 C 167.13 133.94 167.68 133.12 167.51 132.27 C 167.34 131.42 166.52 130.88 165.67 131.05 L 165.49 131.08 C 164.64 131.25 164.09 132.07 164.26 132.92 C 164.43 133.76 165.25 134.31 166.10 134.14 Z"
      fill="black"
      fill-rule="nonzero" /><path d="M 147.73 139.45 L 146.87 139.93 C 146.04 140.38 145.74 141.42 146.19 142.25 C 146.65 143.08 147.69 143.38 148.52 142.93 L 149.38 142.46 C 150.21 142.00 150.51 140.96 150.06 140.13 C 149.60 139.30 148.56 139.00 147.73 139.45 Z M 146.84 139.94 L 145.99 140.43 C 145.16 140.90 144.88 141.94 145.35 142.77 C 145.82 143.59 146.86 143.88 147.69 143.41 L 148.54 142.92 C 149.37 142.45 149.65 141.40 149.18 140.58 C 148.72 139.76 147.67 139.47 146.84 139.94 Z M 145.94 140.45 L 145.09 140.97 C 144.28 141.47 144.03 142.53 144.53 143.34 C 145.03 144.15 146.08 144.40 146.89 143.90 L 147.74 143.38 C 148.55 142.89 148.80 141.83 148.30 141.02 C 147.81 140.21 146.75 139.95 145.94 140.45 Z M 145.02 141.01 L 144.20 141.58 C 143.41 142.11 143.21 143.18 143.74 143.97 C 144.28 144.76 145.35 144.96 146.14 144.42 L 146.97 143.86 C 147.75 143.32 147.95 142.25 147.42 141.46 C 146.88 140.68 145.81 140.48 145.02 141.01 Z M 144.11 141.64 L 143.31 142.26 C 142.55 142.85 142.42 143.93 143.00 144.68 C 143.59 145.44 144.68 145.57 145.43 144.99 L 146.23 144.36 C 146.98 143.78 147.12 142.69 146.53 141.94 C 145.95 141.19 144.86 141.05 144.11 141.64 Z M 143.21 142.34 L 142.47 143.01 C 141.76 143.65 141.70 144.74 142.34 145.45 C 142.98 146.16 144.08 146.22 144.79 145.58 L 145.53 144.91 C 146.24 144.27 146.29 143.17 145.65 142.46 C 145.01 141.75 143.92 141.70 143.21 142.34 Z M 142.38 143.09 L 141.71 143.78 C 141.05 144.47 141.07 145.57 141.76 146.23 C 142.45 146.89 143.55 146.87 144.22 146.18 L 144.88 145.49 C 145.54 144.80 145.52 143.70 144.83 143.04 C 144.14 142.38 143.04 142.40 142.38 143.09 Z M 141.65 143.84 L 141.01 144.59 C 140.38 145.31 140.46 146.41 141.19 147.04 C 141.92 147.67 143.02 147.58 143.64 146.86 L 144.28 146.11 C 144.91 145.39 144.83 144.29 144.10 143.66 C 143.37 143.04 142.27 143.12 141.65 143.84 Z M 140.96 144.64 L 140.34 145.43 C 139.74 146.18 139.87 147.28 140.63 147.88 C 141.38 148.47 142.48 148.34 143.07 147.59 L 143.69 146.80 C 144.29 146.05 144.16 144.95 143.40 144.35 C 142.65 143.76 141.55 143.89 140.96 144.64 Z M 140.30 145.47 L 139.70 146.29 C 139.12 147.07 139.29 148.16 140.07 148.73 C 140.84 149.31 141.94 149.14 142.51 148.36 L 143.11 147.54 C 143.68 146.77 143.52 145.67 142.74 145.10 C 141.96 144.53 140.87 144.70 140.30 145.47 Z M 139.67 146.32 L 139.08 147.17 C 138.52 147.96 138.71 149.05 139.50 149.61 C 140.30 150.16 141.39 149.97 141.94 149.18 L 142.53 148.33 C 143.09 147.54 142.90 146.45 142.11 145.90 C 141.31 145.34 140.22 145.53 139.67 146.32 Z M 139.06 147.19 L 138.48 148.04 C 137.94 148.84 138.15 149.93 138.95 150.47 C 139.75 151.02 140.84 150.81 141.38 150.01 L 141.96 149.16 C 142.50 148.36 142.30 147.27 141.49 146.72 C 140.69 146.18 139.60 146.39 139.06 147.19 Z M 138.47 148.05 L 137.94 148.85 C 137.40 149.66 137.62 150.75 138.42 151.29 C 139.23 151.82 140.32 151.61 140.86 150.80 L 141.39 150.00 C 141.93 149.19 141.71 148.10 140.91 147.56 C 140.10 147.02 139.01 147.24 138.47 148.05 Z M 137.93 148.86 L 137.40 149.67 C 136.86 150.48 137.09 151.57 137.90 152.10 C 138.71 152.64 139.80 152.41 140.33 151.60 L 140.86 150.79 C 141.40 149.98 141.17 148.89 140.36 148.36 C 139.55 147.82 138.46 148.05 137.93 148.86 Z M 137.39 149.68 L 136.86 150.50 C 136.33 151.31 136.56 152.40 137.37 152.93 C 138.19 153.46 139.28 153.23 139.81 152.41 L 140.34 151.59 C 140.87 150.78 140.64 149.69 139.82 149.16 C 139.01 148.63 137.92 148.86 137.39 149.68 Z M 136.85 150.50 L 136.31 151.34 C 135.79 152.16 136.02 153.25 136.84 153.77 C 137.66 154.30 138.75 154.06 139.27 153.24 L 139.81 152.41 C 140.34 151.59 140.10 150.50 139.28 149.97 C 138.46 149.45 137.37 149.69 136.85 150.50 Z M 136.31 151.35 L 135.76 152.20 C 135.24 153.03 135.48 154.12 136.30 154.64 C 137.12 155.16 138.21 154.92 138.73 154.10 L 139.28 153.24 C 139.80 152.42 139.56 151.33 138.74 150.81 C 137.92 150.28 136.83 150.53 136.31 151.35 Z M 135.76 152.21 L 135.20 153.09 C 134.68 153.91 134.93 155.00 135.75 155.52 C 136.58 156.04 137.67 155.79 138.18 154.97 L 138.74 154.09 C 139.26 153.27 139.01 152.18 138.19 151.66 C 137.36 151.14 136.27 151.39 135.76 152.21 Z M 135.20 153.09 L 134.68 153.91 C 134.17 154.74 134.42 155.83 135.24 156.35 C 136.07 156.86 137.16 156.61 137.68 155.79 L 138.19 154.97 C 138.71 154.14 138.46 153.05 137.63 152.53 C 136.80 152.02 135.71 152.27 135.20 153.09 Z M 134.68 153.92 L 134.26 154.59 C 133.74 155.42 134.00 156.51 134.82 157.03 C 135.65 157.54 136.74 157.29 137.26 156.46 L 137.68 155.78 C 138.19 154.96 137.94 153.87 137.11 153.35 C 136.29 152.84 135.20 153.09 134.68 153.92 Z M 134.26 154.60 L 133.82 155.30 C 133.31 156.13 133.56 157.22 134.39 157.73 C 135.22 158.25 136.31 157.99 136.82 157.16 L 137.26 156.46 C 137.77 155.63 137.52 154.54 136.69 154.03 C 135.86 153.51 134.77 153.77 134.26 154.60 Z M 133.82 155.30 L 133.36 156.04 C 132.85 156.87 133.10 157.96 133.93 158.47 C 134.76 158.98 135.85 158.73 136.37 157.90 L 136.82 157.16 C 137.34 156.33 137.08 155.24 136.25 154.73 C 135.42 154.21 134.33 154.47 133.82 155.30 Z M 133.36 156.04 L 132.88 156.82 C 132.36 157.65 132.62 158.74 133.45 159.25 C 134.28 159.76 135.37 159.51 135.89 158.68 L 136.37 157.90 C 136.88 157.07 136.63 155.98 135.80 155.46 C 134.96 154.95 133.87 155.21 133.36 156.04 Z M 132.88 156.82 L 132.36 157.65 C 131.85 158.48 132.11 159.57 132.94 160.08 C 133.77 160.60 134.86 160.34 135.37 159.51 L 135.89 158.68 C 136.40 157.85 136.14 156.76 135.31 156.24 C 134.48 155.73 133.39 155.99 132.88 156.82 Z M 132.36 157.64 L 131.81 158.53 C 131.30 159.36 131.56 160.46 132.39 160.97 C 133.22 161.48 134.31 161.23 134.82 160.40 L 135.37 159.51 C 135.89 158.68 135.63 157.59 134.80 157.07 C 133.97 156.56 132.88 156.81 132.36 157.64 Z M 131.81 158.53 L 131.22 159.49 C 130.71 160.32 130.96 161.41 131.79 161.92 C 132.63 162.44 133.72 162.18 134.23 161.35 L 134.82 160.40 C 135.34 159.57 135.08 158.47 134.25 157.96 C 133.42 157.44 132.33 157.70 131.81 158.53 Z M 131.22 159.49 L 130.58 160.51 C 130.07 161.35 130.32 162.44 131.15 162.95 C 131.99 163.47 133.08 163.21 133.59 162.38 L 134.23 161.35 C 134.75 160.52 134.49 159.43 133.66 158.91 C 132.83 158.40 131.74 158.65 131.22 159.49 Z M 130.58 160.51 L 129.89 161.63 C 129.37 162.46 129.63 163.55 130.46 164.07 C 131.29 164.58 132.38 164.33 132.90 163.50 L 133.59 162.39 C 134.11 161.55 133.86 160.46 133.02 159.94 C 132.19 159.43 131.10 159.68 130.58 160.51 Z M 129.89 161.62 L 129.42 162.37 C 128.91 163.21 129.16 164.30 129.99 164.82 C 130.82 165.34 131.92 165.08 132.43 164.25 L 132.90 163.50 C 133.42 162.67 133.17 161.57 132.33 161.06 C 131.50 160.54 130.41 160.79 129.89 161.62 Z M 129.42 162.37 L 128.94 163.16 C 128.42 163.99 128.67 165.08 129.50 165.60 C 130.34 166.12 131.43 165.86 131.95 165.03 L 132.44 164.25 C 132.95 163.42 132.70 162.32 131.87 161.81 C 131.04 161.29 129.94 161.54 129.42 162.37 Z M 128.94 163.16 L 128.43 163.97 C 127.91 164.80 128.17 165.89 129.00 166.41 C 129.83 166.93 130.92 166.68 131.44 165.84 L 131.95 165.03 C 132.47 164.20 132.21 163.11 131.38 162.59 C 130.55 162.07 129.45 162.32 128.94 163.16 Z M 128.43 163.97 L 127.91 164.80 C 127.39 165.63 127.65 166.73 128.48 167.25 C 129.31 167.77 130.41 167.51 130.92 166.68 L 131.44 165.84 C 131.96 165.01 131.71 163.92 130.88 163.40 C 130.04 162.88 128.95 163.13 128.43 163.97 Z M 127.91 164.80 L 127.38 165.66 C 126.86 166.49 127.11 167.59 127.95 168.10 C 128.78 168.62 129.88 168.37 130.39 167.53 L 130.93 166.68 C 131.44 165.84 131.19 164.75 130.36 164.23 C 129.52 163.71 128.43 163.97 127.91 164.80 Z M 127.37 165.66 L 126.83 166.53 C 126.32 167.36 126.57 168.46 127.41 168.98 C 128.24 169.49 129.34 169.24 129.86 168.40 L 130.40 167.53 C 130.91 166.70 130.66 165.60 129.82 165.08 C 128.99 164.57 127.89 164.82 127.37 165.66 Z M 126.83 166.53 L 126.29 167.41 C 125.77 168.25 126.03 169.34 126.86 169.86 C 127.70 170.38 128.79 170.12 129.31 169.28 L 129.86 168.40 C 130.37 167.57 130.12 166.47 129.28 165.95 C 128.45 165.44 127.35 165.69 126.83 166.53 Z M 126.28 167.41 L 125.73 168.30 C 125.22 169.14 125.48 170.24 126.31 170.75 C 127.15 171.27 128.25 171.01 128.76 170.17 L 129.31 169.28 C 129.83 168.45 129.57 167.35 128.73 166.83 C 127.90 166.32 126.80 166.58 126.28 167.41 Z M 125.73 168.31 L 125.18 169.20 C 124.67 170.04 124.93 171.13 125.77 171.65 C 126.60 172.16 127.70 171.90 128.22 171.06 L 128.77 170.17 C 129.28 169.33 129.02 168.24 128.18 167.72 C 127.34 167.21 126.25 167.47 125.73 168.31 Z M 125.18 169.20 L 124.63 170.09 C 124.12 170.93 124.38 172.03 125.22 172.54 C 126.06 173.06 127.16 172.79 127.67 171.96 L 128.22 171.06 C 128.73 170.22 128.47 169.13 127.63 168.61 C 126.79 168.10 125.69 168.36 125.18 169.20 Z M 124.63 170.10 L 124.09 170.99 C 123.58 171.83 123.84 172.92 124.68 173.43 C 125.52 173.95 126.62 173.68 127.13 172.84 L 127.67 171.95 C 128.19 171.11 127.92 170.02 127.08 169.50 C 126.24 168.99 125.14 169.26 124.63 170.10 Z M 124.09 170.99 L 123.55 171.87 C 123.04 172.71 123.31 173.81 124.15 174.32 C 125.00 174.83 126.09 174.56 126.60 173.72 L 127.14 172.84 C 127.65 172.00 127.38 170.90 126.53 170.39 C 125.69 169.88 124.60 170.15 124.09 170.99 Z M 123.55 171.87 L 123.03 172.74 C 122.52 173.58 122.79 174.68 123.64 175.19 C 124.48 175.69 125.58 175.42 126.08 174.58 L 126.61 173.71 C 127.11 172.87 126.84 171.77 126.00 171.26 C 125.15 170.76 124.06 171.03 123.55 171.87 Z M 123.02 172.74 L 122.52 173.59 C 122.01 174.44 122.29 175.53 123.13 176.04 C 123.98 176.55 125.07 176.27 125.58 175.42 L 126.09 174.57 C 126.59 173.73 126.32 172.63 125.47 172.13 C 124.63 171.62 123.53 171.90 123.02 172.74 Z M 122.51 173.60 L 121.94 174.57 C 121.44 175.41 121.72 176.51 122.57 177.01 C 123.41 177.51 124.51 177.23 125.01 176.38 L 125.59 175.42 C 126.09 174.57 125.81 173.47 124.96 172.97 C 124.11 172.47 123.01 172.75 122.51 173.60 Z M 121.93 174.57 L 121.16 175.90 C 120.66 176.76 120.95 177.85 121.80 178.35 C 122.66 178.85 123.75 178.56 124.25 177.70 L 125.02 176.38 C 125.52 175.52 125.23 174.43 124.38 173.93 C 123.52 173.43 122.43 173.72 121.93 174.57 Z M 121.14 175.92 L 120.44 177.15 C 119.95 178.02 120.25 179.11 121.11 179.60 C 121.97 180.09 123.07 179.79 123.56 178.93 L 124.26 177.69 C 124.75 176.83 124.45 175.73 123.59 175.24 C 122.73 174.75 121.63 175.05 121.14 175.92 Z M 120.42 177.17 L 119.80 178.31 C 119.32 179.18 119.64 180.27 120.51 180.75 C 121.38 181.23 122.47 180.91 122.95 180.04 L 123.58 178.91 C 124.05 178.04 123.74 176.94 122.87 176.46 C 121.99 175.99 120.90 176.30 120.42 177.17 Z M 119.78 178.34 L 119.25 179.36 C 118.78 180.24 119.12 181.33 120.01 181.79 C 120.89 182.25 121.98 181.91 122.44 181.03 L 122.97 180.01 C 123.44 179.13 123.09 178.04 122.21 177.58 C 121.33 177.12 120.24 177.46 119.78 178.34 Z M 119.22 179.40 L 118.79 180.28 C 118.35 181.18 118.73 182.26 119.62 182.70 C 120.52 183.14 121.60 182.76 122.04 181.86 L 122.47 180.98 C 122.91 180.08 122.53 179.00 121.63 178.57 C 120.74 178.13 119.65 178.50 119.22 179.40 Z M 118.75 180.36 L 118.43 181.09 C 118.04 182.01 118.47 183.08 119.39 183.47 C 120.31 183.87 121.37 183.44 121.77 182.52 L 122.08 181.79 C 122.48 180.87 122.05 179.80 121.13 179.41 C 120.21 179.01 119.14 179.44 118.75 180.36 Z M 118.38 181.23 L 118.19 181.80 C 117.87 182.75 118.39 183.78 119.34 184.10 C 120.29 184.41 121.32 183.90 121.64 182.94 L 121.83 182.38 C 122.14 181.42 121.63 180.40 120.67 180.08 C 119.72 179.76 118.69 180.28 118.38 181.23 Z M 118.11 182.14 L 118.06 182.53 C 117.93 183.52 118.63 184.44 119.63 184.57 C 120.63 184.70 121.54 183.99 121.67 183.00 L 121.72 182.61 C 121.85 181.61 121.15 180.70 120.15 180.57 C 119.15 180.44 118.24 181.14 118.11 182.14 Z M 118.36 183.80 L 118.50 184.00 C 119.07 184.83 120.21 185.05 121.04 184.47 C 121.87 183.90 122.08 182.76 121.51 181.93 L 121.37 181.72 C 120.80 180.89 119.66 180.68 118.83 181.26 C 118.00 181.83 117.79 182.96 118.36 183.80 Z M 120.47 184.74 L 120.93 184.62 C 121.90 184.36 122.48 183.36 122.23 182.38 C 121.97 181.41 120.97 180.82 119.99 181.08 L 119.54 181.20 C 118.56 181.46 117.98 182.46 118.24 183.44 C 118.50 184.41 119.50 184.99 120.47 184.74 Z M 121.45 184.39 L 122.14 183.94 C 122.99 183.40 123.24 182.27 122.69 181.42 C 122.15 180.57 121.02 180.32 120.17 180.86 L 119.47 181.31 C 118.62 181.85 118.37 182.99 118.92 183.84 C 119.46 184.69 120.60 184.93 121.45 184.39 Z M 122.29 183.84 L 123.15 183.16 C 123.94 182.53 124.08 181.38 123.45 180.59 C 122.82 179.79 121.67 179.66 120.88 180.29 L 120.02 180.97 C 119.22 181.60 119.09 182.75 119.72 183.54 C 120.34 184.33 121.49 184.47 122.29 183.84 Z M 123.21 183.11 L 124.18 182.27 C 124.94 181.61 125.02 180.46 124.36 179.69 C 123.70 178.93 122.54 178.84 121.78 179.51 L 120.82 180.34 C 120.05 181.00 119.97 182.16 120.63 182.92 C 121.29 183.69 122.45 183.77 123.21 183.11 Z M 124.21 182.25 L 125.20 181.35 C 125.95 180.67 126.00 179.51 125.33 178.76 C 124.65 178.01 123.49 177.96 122.74 178.64 L 121.75 179.53 C 121.00 180.21 120.94 181.37 121.62 182.12 C 122.30 182.87 123.46 182.93 124.21 182.25 Z M 125.21 181.34 L 126.10 180.53 C 126.84 179.84 126.89 178.68 126.20 177.93 C 125.52 177.19 124.35 177.14 123.61 177.83 L 122.72 178.65 C 121.98 179.33 121.93 180.49 122.62 181.24 C 123.30 181.98 124.46 182.03 125.21 181.34 Z M 126.10 180.52 L 126.90 179.78 C 127.64 179.09 127.68 177.93 126.99 177.19 C 126.30 176.45 125.14 176.41 124.40 177.09 L 123.61 177.83 C 122.86 178.52 122.82 179.68 123.51 180.42 C 124.20 181.17 125.36 181.21 126.10 180.52 Z M 126.90 179.78 L 127.65 179.08 C 128.39 178.39 128.44 177.23 127.75 176.49 C 127.06 175.75 125.90 175.70 125.15 176.39 L 124.40 177.10 C 123.66 177.79 123.62 178.95 124.31 179.69 C 125.00 180.43 126.16 180.47 126.90 179.78 Z M 127.65 179.08 L 128.38 178.41 C 129.12 177.72 129.16 176.56 128.47 175.81 C 127.78 175.07 126.62 175.03 125.88 175.72 L 125.15 176.39 C 124.41 177.08 124.37 178.24 125.06 178.99 C 125.75 179.73 126.91 179.77 127.65 179.08 Z M 128.37 178.41 L 129.07 177.76 C 129.82 177.07 129.86 175.91 129.17 175.17 C 128.48 174.42 127.32 174.38 126.58 175.07 L 125.88 175.72 C 125.14 176.41 125.09 177.57 125.78 178.31 C 126.47 179.05 127.63 179.10 128.37 178.41 Z M 129.07 177.77 L 129.76 177.13 C 130.50 176.45 130.55 175.29 129.86 174.54 C 129.18 173.79 128.02 173.75 127.27 174.43 L 126.58 175.06 C 125.84 175.75 125.79 176.91 126.48 177.66 C 127.16 178.40 128.32 178.45 129.07 177.77 Z M 129.75 177.14 L 130.43 176.52 C 131.18 175.84 131.24 174.68 130.56 173.93 C 129.87 173.18 128.71 173.12 127.96 173.80 L 127.28 174.42 C 126.53 175.11 126.47 176.27 127.16 177.02 C 127.84 177.77 129.00 177.82 129.75 177.14 Z M 130.42 176.53 L 131.16 175.87 C 131.92 175.19 131.98 174.03 131.31 173.28 C 130.63 172.52 129.47 172.46 128.72 173.13 L 127.97 173.79 C 127.22 174.47 127.15 175.63 127.83 176.38 C 128.51 177.14 129.67 177.20 130.42 176.53 Z M 131.15 175.88 L 131.90 175.22 C 132.66 174.55 132.73 173.39 132.06 172.63 C 131.40 171.87 130.24 171.79 129.48 172.46 L 128.73 173.12 C 127.97 173.79 127.89 174.95 128.56 175.71 C 129.23 176.47 130.39 176.55 131.15 175.88 Z M 131.88 175.23 L 132.64 174.58 C 133.41 173.92 133.49 172.76 132.83 171.99 C 132.17 171.23 131.01 171.14 130.24 171.80 L 129.49 172.45 C 128.72 173.11 128.63 174.27 129.30 175.04 C 129.96 175.81 131.12 175.89 131.88 175.23 Z M 132.63 174.59 L 133.39 173.95 C 134.16 173.29 134.26 172.14 133.61 171.36 C 132.95 170.59 131.80 170.49 131.02 171.14 L 130.26 171.79 C 129.48 172.44 129.39 173.60 130.04 174.37 C 130.69 175.15 131.85 175.25 132.63 174.59 Z M 133.37 173.96 L 134.15 173.32 C 134.93 172.68 135.04 171.52 134.39 170.74 C 133.75 169.96 132.59 169.85 131.81 170.49 L 131.04 171.13 C 130.26 171.78 130.15 172.93 130.79 173.71 C 131.44 174.50 132.59 174.61 133.37 173.96 Z M 134.13 173.33 L 134.92 172.70 C 135.71 172.06 135.83 170.91 135.19 170.12 C 134.56 169.33 133.40 169.21 132.61 169.85 L 131.83 170.48 C 131.04 171.12 130.92 172.27 131.55 173.06 C 132.19 173.85 133.34 173.97 134.13 173.33 Z M 134.90 172.71 L 135.69 172.09 C 136.49 171.46 136.63 170.31 136.00 169.51 C 135.37 168.72 134.22 168.58 133.42 169.21 L 132.63 169.83 C 131.83 170.46 131.70 171.61 132.32 172.41 C 132.95 173.20 134.10 173.34 134.90 172.71 Z M 135.68 172.10 L 136.48 171.48 C 137.28 170.86 137.43 169.71 136.81 168.91 C 136.19 168.11 135.04 167.96 134.24 168.58 L 133.44 169.19 C 132.64 169.81 132.49 170.96 133.11 171.77 C 133.72 172.57 134.88 172.72 135.68 172.10 Z M 136.46 171.49 L 137.27 170.88 C 138.08 170.27 138.24 169.12 137.63 168.32 C 137.02 167.51 135.87 167.35 135.06 167.96 L 134.26 168.57 C 133.45 169.18 133.29 170.33 133.90 171.13 C 134.51 171.94 135.66 172.10 136.46 171.49 Z M 137.26 170.89 L 138.06 170.30 C 138.88 169.69 139.05 168.55 138.45 167.73 C 137.84 166.92 136.70 166.75 135.88 167.35 L 135.08 167.95 C 134.26 168.55 134.09 169.70 134.69 170.51 C 135.29 171.33 136.44 171.50 137.26 170.89 Z M 138.05 170.31 L 138.85 169.72 C 139.67 169.13 139.85 167.98 139.26 167.16 C 138.66 166.34 137.52 166.16 136.70 166.76 L 135.90 167.34 C 135.08 167.94 134.90 169.08 135.49 169.90 C 136.09 170.72 137.23 170.90 138.05 170.31 Z M 138.84 169.73 L 139.64 169.16 C 140.46 168.57 140.65 167.43 140.07 166.61 C 139.48 165.78 138.33 165.59 137.51 166.18 L 136.71 166.75 C 135.89 167.34 135.70 168.48 136.29 169.30 C 136.87 170.13 138.02 170.32 138.84 169.73 Z M 139.63 169.17 L 140.47 168.58 C 141.30 168.00 141.50 166.86 140.92 166.03 C 140.34 165.20 139.19 165.00 138.37 165.58 L 137.52 166.17 C 136.69 166.75 136.49 167.89 137.07 168.72 C 137.65 169.55 138.80 169.75 139.63 169.17 Z M 140.45 168.59 L 141.30 168.00 C 142.14 167.43 142.35 166.29 141.78 165.46 C 141.20 164.62 140.06 164.41 139.23 164.99 L 138.38 165.57 C 137.55 166.14 137.33 167.28 137.91 168.12 C 138.48 168.95 139.62 169.16 140.45 168.59 Z M 141.29 168.01 L 142.13 167.45 C 142.97 166.89 143.19 165.75 142.62 164.91 C 142.06 164.07 140.92 163.85 140.08 164.41 L 139.25 164.98 C 138.41 165.54 138.18 166.68 138.75 167.52 C 139.31 168.35 140.45 168.58 141.29 168.01 Z M 142.11 167.46 L 142.94 166.92 C 143.78 166.37 144.02 165.23 143.46 164.39 C 142.91 163.54 141.78 163.31 140.93 163.86 L 140.10 164.40 C 139.26 164.95 139.02 166.09 139.58 166.93 C 140.13 167.78 141.26 168.02 142.11 167.46 Z M 142.92 166.93 L 143.73 166.41 C 144.59 165.87 144.84 164.74 144.29 163.89 C 143.75 163.03 142.62 162.78 141.77 163.33 L 140.95 163.85 C 140.10 164.39 139.85 165.52 140.39 166.37 C 140.93 167.22 142.06 167.47 142.92 166.93 Z M 143.71 166.42 L 144.52 165.92 C 145.38 165.39 145.65 164.27 145.12 163.41 C 144.59 162.55 143.46 162.28 142.60 162.81 L 141.79 163.31 C 140.93 163.84 140.67 164.97 141.20 165.83 C 141.73 166.69 142.85 166.95 143.71 166.42 Z M 144.50 165.94 L 145.31 165.45 C 146.18 164.94 146.47 163.81 145.95 162.95 C 145.44 162.08 144.31 161.80 143.45 162.31 L 142.63 162.80 C 141.76 163.31 141.48 164.43 141.99 165.30 C 142.51 166.17 143.63 166.45 144.50 165.94 Z M 145.28 165.47 L 146.11 165.00 C 146.99 164.50 147.30 163.39 146.80 162.51 C 146.30 161.63 145.19 161.33 144.31 161.82 L 143.48 162.29 C 142.60 162.79 142.30 163.90 142.79 164.78 C 143.29 165.66 144.40 165.97 145.28 165.47 Z M 146.07 165.02 L 146.93 164.56 C 147.82 164.08 148.15 162.98 147.68 162.09 C 147.20 161.20 146.10 160.87 145.21 161.34 L 144.35 161.80 C 143.46 162.28 143.13 163.38 143.60 164.27 C 144.08 165.16 145.18 165.50 146.07 165.02 Z M 146.89 164.58 L 147.79 164.13 C 148.69 163.67 149.06 162.58 148.60 161.68 C 148.15 160.78 147.05 160.41 146.15 160.87 L 145.25 161.32 C 144.35 161.77 143.99 162.87 144.44 163.77 C 144.89 164.67 145.99 165.03 146.89 164.58 Z M 147.75 164.15 L 148.72 163.69 C 149.63 163.26 150.02 162.18 149.59 161.27 C 149.16 160.36 148.08 159.96 147.17 160.39 L 146.20 160.85 C 145.29 161.27 144.90 162.36 145.32 163.27 C 145.75 164.18 146.84 164.57 147.75 164.15 Z M 148.68 163.71 L 149.55 163.32 C 150.48 162.92 150.89 161.84 150.49 160.92 C 150.08 160.00 149.01 159.58 148.08 159.99 L 147.21 160.37 C 146.29 160.78 145.87 161.86 146.27 162.78 C 146.68 163.70 147.76 164.11 148.68 163.71 Z M 149.52 163.34 L 150.34 162.99 C 151.27 162.61 151.71 161.55 151.33 160.62 C 150.94 159.69 149.88 159.24 148.95 159.63 L 148.12 159.97 C 147.19 160.36 146.75 161.42 147.14 162.35 C 147.52 163.28 148.59 163.72 149.52 163.34 Z M 150.30 163.01 L 151.17 162.68 C 152.11 162.32 152.58 161.26 152.22 160.32 C 151.86 159.39 150.81 158.92 149.87 159.28 L 148.99 159.61 C 148.06 159.97 147.59 161.03 147.95 161.96 C 148.31 162.90 149.36 163.37 150.30 163.01 Z M 151.12 162.69 L 152.04 162.37 C 152.99 162.04 153.49 161.00 153.16 160.05 C 152.83 159.10 151.79 158.60 150.84 158.94 L 149.92 159.26 C 148.97 159.59 148.47 160.63 148.80 161.58 C 149.14 162.53 150.17 163.03 151.12 162.69 Z M 151.99 162.39 L 152.96 162.09 C 153.92 161.79 154.45 160.77 154.15 159.81 C 153.85 158.85 152.83 158.32 151.87 158.61 L 150.90 158.92 C 149.94 159.22 149.41 160.24 149.71 161.20 C 150.01 162.15 151.03 162.69 151.99 162.39 Z M 152.89 162.10 L 153.91 161.83 C 154.88 161.56 155.45 160.56 155.19 159.60 C 154.93 158.63 153.93 158.06 152.96 158.32 L 151.94 158.60 C 150.97 158.86 150.40 159.86 150.66 160.83 C 150.93 161.80 151.92 162.37 152.89 162.10 Z M 153.84 161.84 L 154.91 161.60 C 155.89 161.37 156.50 160.40 156.27 159.42 C 156.05 158.44 155.07 157.83 154.10 158.06 L 153.03 158.30 C 152.05 158.53 151.44 159.50 151.67 160.48 C 151.89 161.46 152.86 162.07 153.84 161.84 Z M 154.83 161.61 L 155.92 161.41 C 156.90 161.23 157.55 160.28 157.37 159.30 C 157.19 158.31 156.24 157.66 155.26 157.84 L 154.17 158.04 C 153.19 158.23 152.54 159.17 152.72 160.16 C 152.90 161.14 153.85 161.79 154.83 161.61 Z M 155.85 161.42 L 156.84 161.28 C 157.84 161.13 158.52 160.22 158.38 159.23 C 158.24 158.24 157.32 157.55 156.33 157.69 L 155.33 157.83 C 154.34 157.98 153.65 158.89 153.79 159.88 C 153.94 160.87 154.86 161.56 155.85 161.42 Z M 156.78 161.28 L 157.80 161.17 C 158.79 161.07 159.51 160.18 159.41 159.18 C 159.30 158.19 158.41 157.47 157.42 157.58 L 156.40 157.69 C 155.40 157.79 154.69 158.68 154.79 159.67 C 154.90 160.67 155.79 161.39 156.78 161.28 Z M 157.73 161.17 L 158.77 161.10 C 159.76 161.03 160.51 160.17 160.44 159.18 C 160.37 158.19 159.51 157.44 158.52 157.51 L 157.48 157.58 C 156.49 157.65 155.74 158.51 155.81 159.50 C 155.88 160.49 156.74 161.24 157.73 161.17 Z M 158.70 161.10 L 159.73 161.07 C 160.73 161.03 161.50 160.20 161.47 159.21 C 161.44 158.22 160.61 157.44 159.62 157.47 L 158.58 157.51 C 157.59 157.54 156.81 158.37 156.85 159.36 C 156.88 160.35 157.71 161.13 158.70 161.10 Z M 159.66 161.06 L 160.69 161.07 C 161.68 161.08 162.48 160.28 162.49 159.29 C 162.50 158.30 161.70 157.49 160.71 157.48 L 159.69 157.48 C 158.70 157.47 157.89 158.27 157.88 159.26 C 157.88 160.25 158.67 161.06 159.66 161.06 Z M 160.61 161.06 L 161.61 161.11 C 162.60 161.16 163.44 160.40 163.48 159.41 C 163.53 158.43 162.77 157.59 161.79 157.54 L 160.79 157.49 C 159.80 157.44 158.96 158.20 158.91 159.19 C 158.86 160.18 159.62 161.01 160.61 161.06 Z M 161.53 161.10 L 162.49 161.19 C 163.47 161.29 164.35 160.57 164.44 159.59 C 164.53 158.61 163.82 157.74 162.84 157.65 L 161.87 157.55 C 160.89 157.46 160.02 158.18 159.92 159.16 C 159.83 160.14 160.55 161.01 161.53 161.10 Z M 162.40 161.18 L 163.32 161.32 C 164.29 161.46 165.20 160.79 165.35 159.82 C 165.49 158.85 164.82 157.95 163.85 157.80 L 162.93 157.66 C 161.96 157.52 161.05 158.18 160.91 159.16 C 160.76 160.13 161.43 161.03 162.40 161.18 Z M 163.21 161.29 L 164.21 161.51 C 165.17 161.73 166.12 161.12 166.33 160.16 C 166.54 159.21 165.94 158.26 164.98 158.05 L 163.97 157.83 C 163.01 157.61 162.06 158.22 161.85 159.18 C 161.64 160.13 162.25 161.08 163.21 161.29 Z M 164.07 161.48 L 165.08 161.79 C 166.01 162.08 167.01 161.56 167.30 160.62 C 167.59 159.68 167.07 158.69 166.13 158.40 L 165.12 158.09 C 164.19 157.79 163.19 158.32 162.90 159.25 C 162.61 160.19 163.13 161.19 164.07 161.48 Z M 164.93 161.74 L 165.86 162.12 C 166.76 162.50 167.80 162.07 168.18 161.16 C 168.55 160.25 168.12 159.21 167.22 158.84 L 166.28 158.45 C 165.38 158.08 164.34 158.51 163.96 159.42 C 163.59 160.32 164.02 161.36 164.93 161.74 Z M 165.71 162.05 L 166.58 162.51 C 167.44 162.96 168.52 162.63 168.98 161.76 C 169.43 160.89 169.10 159.81 168.23 159.36 L 167.36 158.90 C 166.49 158.45 165.42 158.78 164.96 159.65 C 164.51 160.52 164.84 161.60 165.71 162.05 Z M 166.44 162.43 L 167.25 162.95 C 168.08 163.48 169.18 163.24 169.71 162.41 C 170.24 161.58 170.00 160.48 169.17 159.95 L 168.36 159.43 C 167.53 158.90 166.43 159.15 165.90 159.97 C 165.37 160.80 165.61 161.90 166.44 162.43 Z M 167.14 162.87 L 167.90 163.45 C 168.69 164.04 169.80 163.89 170.40 163.10 C 170.99 162.32 170.83 161.20 170.05 160.61 L 169.28 160.03 C 168.50 159.44 167.38 159.59 166.79 160.38 C 166.20 161.16 166.35 162.28 167.14 162.87 Z M 167.81 163.38 L 168.54 164.01 C 169.29 164.66 170.41 164.58 171.06 163.83 C 171.70 163.09 171.62 161.96 170.88 161.32 L 170.14 160.68 C 169.40 160.04 168.27 160.12 167.63 160.86 C 166.98 161.61 167.06 162.73 167.81 163.38 Z M 168.47 163.95 L 169.09 164.55 C 169.80 165.23 170.93 165.21 171.61 164.50 C 172.30 163.79 172.28 162.66 171.57 161.98 L 170.95 161.38 C 170.24 160.70 169.11 160.72 168.42 161.43 C 167.74 162.14 167.76 163.27 168.47 163.95 Z M 169.03 164.49 L 169.63 165.12 C 170.31 165.84 171.44 165.87 172.16 165.19 C 172.87 164.51 172.90 163.38 172.22 162.66 L 171.63 162.03 C 170.95 161.32 169.82 161.29 169.10 161.97 C 168.38 162.64 168.35 163.78 169.03 164.49 Z M 169.58 165.07 L 170.17 165.75 C 170.82 166.49 171.95 166.57 172.69 165.93 C 173.44 165.28 173.52 164.15 172.87 163.40 L 172.28 162.72 C 171.63 161.97 170.50 161.89 169.75 162.54 C 169.01 163.19 168.93 164.32 169.58 165.07 Z M 170.12 165.69 L 170.71 166.43 C 171.33 167.21 172.45 167.33 173.23 166.72 C 174.00 166.10 174.13 164.97 173.51 164.19 L 172.92 163.46 C 172.30 162.68 171.17 162.55 170.40 163.17 C 169.63 163.79 169.50 164.92 170.12 165.69 Z M 170.66 166.38 L 171.26 167.18 C 171.85 167.98 172.97 168.15 173.77 167.56 C 174.57 166.97 174.74 165.85 174.15 165.05 L 173.55 164.25 C 172.97 163.45 171.84 163.28 171.04 163.87 C 170.24 164.46 170.07 165.58 170.66 166.38 Z M 171.22 167.14 L 171.82 168.01 C 172.38 168.83 173.50 169.04 174.32 168.48 C 175.14 167.91 175.35 166.79 174.79 165.97 L 174.19 165.10 C 173.62 164.28 172.50 164.07 171.68 164.63 C 170.86 165.20 170.66 166.32 171.22 167.14 Z M 171.79 167.97 L 172.40 168.92 C 172.94 169.76 174.06 170.00 174.89 169.46 C 175.73 168.92 175.97 167.81 175.43 166.97 L 174.82 166.02 C 174.28 165.18 173.17 164.94 172.33 165.48 C 171.49 166.02 171.25 167.13 171.79 167.97 Z M 172.37 168.88 L 173.00 169.92 C 173.52 170.77 174.63 171.04 175.48 170.53 C 176.34 170.01 176.61 168.90 176.09 168.05 L 175.46 167.01 C 174.94 166.16 173.83 165.88 172.98 166.40 C 172.13 166.92 171.86 168.03 172.37 168.88 Z M 172.98 169.89 L 173.45 170.70 C 173.95 171.57 175.06 171.86 175.93 171.36 C 176.79 170.86 177.08 169.75 176.58 168.88 L 176.11 168.07 C 175.61 167.21 174.50 166.92 173.64 167.42 C 172.77 167.92 172.48 169.03 172.98 169.89 Z M 173.43 170.68 L 173.90 171.52 C 174.39 172.39 175.50 172.70 176.37 172.21 C 177.25 171.72 177.56 170.62 177.07 169.74 L 176.60 168.91 C 176.11 168.03 175.00 167.72 174.13 168.21 C 173.26 168.70 172.94 169.81 173.43 170.68 Z M 173.89 171.50 L 174.36 172.37 C 174.84 173.25 175.95 173.58 176.83 173.10 C 177.71 172.62 178.04 171.52 177.56 170.63 L 177.08 169.76 C 176.61 168.88 175.50 168.55 174.62 169.03 C 173.74 169.51 173.41 170.62 173.89 171.50 Z M 174.35 172.35 L 174.82 173.25 C 175.29 174.14 176.39 174.48 177.28 174.01 C 178.17 173.54 178.52 172.44 178.05 171.55 L 177.57 170.65 C 177.10 169.76 176.00 169.42 175.11 169.89 C 174.22 170.36 173.88 171.46 174.35 172.35 Z M 174.81 173.23 L 175.27 174.15 C 175.73 175.05 176.83 175.40 177.73 174.94 C 178.63 174.48 178.99 173.38 178.53 172.48 L 178.06 171.57 C 177.60 170.67 176.50 170.31 175.60 170.77 C 174.70 171.23 174.35 172.33 174.81 173.23 Z M 175.26 174.13 L 175.72 175.06 C 176.17 175.97 177.27 176.34 178.18 175.89 C 179.08 175.44 179.45 174.34 179.00 173.43 L 178.54 172.50 C 178.09 171.60 176.99 171.22 176.09 171.67 C 175.18 172.12 174.81 173.22 175.26 174.13 Z M 175.71 175.04 L 176.16 175.98 C 176.60 176.89 177.69 177.28 178.61 176.84 C 179.52 176.40 179.91 175.30 179.47 174.39 L 179.02 173.45 C 178.58 172.54 177.48 172.15 176.57 172.59 C 175.65 173.03 175.27 174.13 175.71 175.04 Z M 176.14 175.96 L 176.58 176.89 C 177.01 177.82 178.10 178.22 179.02 177.79 C 179.94 177.36 180.35 176.26 179.92 175.34 L 179.48 174.41 C 179.05 173.48 177.96 173.08 177.04 173.51 C 176.11 173.94 175.71 175.04 176.14 175.96 Z M 176.56 176.87 L 176.98 177.80 C 177.39 178.73 178.49 179.15 179.42 178.73 C 180.35 178.31 180.76 177.22 180.35 176.29 L 179.93 175.36 C 179.51 174.43 178.42 174.02 177.49 174.43 C 176.56 174.85 176.15 175.94 176.56 176.87 Z M 176.96 177.78 L 177.36 178.69 C 177.76 179.63 178.85 180.06 179.79 179.66 C 180.72 179.25 181.16 178.17 180.75 177.23 L 180.36 176.31 C 179.96 175.38 178.87 174.94 177.93 175.35 C 176.99 175.75 176.56 176.84 176.96 177.78 Z M 177.34 178.66 L 177.71 179.56 C 178.10 180.50 179.18 180.96 180.13 180.57 C 181.07 180.18 181.53 179.09 181.14 178.15 L 180.77 177.25 C 180.38 176.31 179.30 175.85 178.35 176.24 C 177.40 176.63 176.95 177.72 177.34 178.66 Z M 177.69 179.52 L 178.09 180.57 C 178.46 181.52 179.54 182.00 180.50 181.63 C 181.45 181.26 181.93 180.18 181.56 179.23 L 181.16 178.18 C 180.79 177.22 179.71 176.75 178.75 177.12 C 177.79 177.49 177.32 178.56 177.69 179.52 Z M 178.07 180.53 L 178.44 181.56 C 178.79 182.52 179.86 183.03 180.83 182.68 C 181.79 182.33 182.30 181.26 181.95 180.29 L 181.58 179.27 C 181.23 178.30 180.16 177.79 179.20 178.14 C 178.23 178.49 177.72 179.56 178.07 180.53 Z M 178.42 181.51 L 178.75 182.51 C 179.08 183.49 180.13 184.02 181.11 183.69 C 182.09 183.37 182.62 182.31 182.30 181.33 L 181.97 180.34 C 181.65 179.36 180.59 178.83 179.61 179.15 C 178.63 179.48 178.10 180.53 178.42 181.51 Z M 178.73 182.46 L 179.03 183.43 C 179.32 184.42 180.37 184.98 181.36 184.68 C 182.35 184.38 182.91 183.34 182.61 182.35 L 182.32 181.38 C 182.02 180.39 180.97 179.83 179.98 180.13 C 178.99 180.43 178.43 181.47 178.73 182.46 Z M 179.01 183.38 L 179.27 184.33 C 179.54 185.33 180.57 185.92 181.57 185.64 C 182.57 185.37 183.16 184.34 182.89 183.34 L 182.63 182.39 C 182.35 181.39 181.32 180.80 180.32 181.08 C 179.32 181.35 178.73 182.38 179.01 183.38 Z M 179.25 184.28 L 179.48 185.21 C 179.73 186.22 180.75 186.84 181.75 186.59 C 182.76 186.34 183.38 185.32 183.13 184.31 L 182.90 183.38 C 182.66 182.37 181.64 181.76 180.63 182.01 C 179.62 182.25 179.00 183.27 179.25 184.28 Z M 179.46 185.17 L 179.66 186.08 C 179.89 187.10 180.89 187.74 181.91 187.52 C 182.93 187.30 183.57 186.29 183.35 185.27 L 183.15 184.36 C 182.92 183.34 181.92 182.70 180.90 182.92 C 179.88 183.14 179.24 184.15 179.46 185.17 Z M 179.65 186.04 L 179.83 186.95 C 180.03 187.98 181.02 188.64 182.05 188.44 C 183.07 188.24 183.74 187.25 183.54 186.23 L 183.36 185.31 C 183.16 184.29 182.17 183.62 181.14 183.82 C 180.12 184.02 179.45 185.02 179.65 186.04 Z M 179.82 186.91 L 179.97 187.82 C 180.15 188.85 181.13 189.54 182.17 189.37 C 183.20 189.19 183.89 188.21 183.71 187.17 L 183.55 186.26 C 183.37 185.23 182.39 184.54 181.36 184.72 C 180.33 184.90 179.64 185.88 179.82 186.91 Z M 179.96 187.79 L 180.11 188.71 C 180.27 189.74 181.24 190.46 182.27 190.30 C 183.31 190.14 184.02 189.17 183.86 188.13 L 183.72 187.21 C 183.56 186.17 182.59 185.46 181.55 185.62 C 180.52 185.78 179.81 186.75 179.96 187.79 Z M 180.10 188.67 L 180.22 189.60 C 180.36 190.64 181.32 191.37 182.36 191.23 C 183.40 191.09 184.14 190.14 184.00 189.09 L 183.87 188.16 C 183.73 187.12 182.77 186.39 181.73 186.53 C 180.69 186.67 179.96 187.63 180.10 188.67 Z M 180.21 189.57 L 180.32 190.51 C 180.45 191.56 181.39 192.31 182.44 192.19 C 183.49 192.06 184.23 191.12 184.11 190.07 L 184.00 189.13 C 183.88 188.08 182.93 187.33 181.89 187.45 C 180.84 187.58 180.09 188.52 180.21 189.57 Z M 180.32 190.48 L 180.41 191.44 C 180.52 192.49 181.45 193.26 182.50 193.15 C 183.55 193.05 184.32 192.11 184.22 191.06 L 184.12 190.10 C 184.02 189.05 183.08 188.29 182.03 188.39 C 180.98 188.49 180.21 189.43 180.32 190.48 Z M 180.41 191.41 L 180.49 192.39 C 180.57 193.44 181.50 194.23 182.55 194.14 C 183.60 194.06 184.39 193.13 184.30 192.08 L 184.22 191.10 C 184.14 190.04 183.21 189.26 182.16 189.34 C 181.10 189.43 180.32 190.35 180.41 191.41 Z M 180.48 192.36 L 180.55 193.37 C 180.62 194.43 181.53 195.23 182.59 195.16 C 183.65 195.09 184.45 194.17 184.38 193.12 L 184.31 192.11 C 184.24 191.05 183.32 190.25 182.27 190.32 C 181.21 190.39 180.41 191.30 180.48 192.36 Z M 180.54 193.34 L 180.60 194.38 C 180.65 195.44 181.55 196.26 182.62 196.20 C 183.68 196.14 184.49 195.24 184.44 194.18 L 184.38 193.14 C 184.33 192.08 183.42 191.27 182.36 191.32 C 181.30 191.38 180.49 192.28 180.54 193.34 Z M 180.59 194.36 L 180.63 195.43 C 180.67 196.49 181.57 197.32 182.63 197.28 C 183.69 197.24 184.52 196.34 184.48 195.28 L 184.44 194.21 C 184.40 193.14 183.50 192.31 182.44 192.36 C 181.38 192.40 180.55 193.29 180.59 194.36 Z M 180.63 195.40 L 180.66 196.51 C 180.69 197.57 181.57 198.41 182.64 198.38 C 183.70 198.35 184.55 197.47 184.52 196.40 L 184.49 195.30 C 184.46 194.23 183.57 193.39 182.50 193.42 C 181.44 193.45 180.60 194.34 180.63 195.40 Z M 180.65 196.49 L 180.67 197.48 C 180.69 198.55 181.57 199.40 182.64 199.38 C 183.70 199.36 184.56 198.48 184.54 197.41 L 184.52 196.42 C 184.50 195.35 183.62 194.50 182.55 194.52 C 181.49 194.54 180.63 195.42 180.65 196.49 Z M 180.66 197.46 L 180.67 198.47 C 180.68 199.54 181.55 200.41 182.62 200.40 C 183.69 200.39 184.56 199.52 184.55 198.45 L 184.54 197.43 C 184.54 196.36 183.66 195.50 182.59 195.51 C 181.52 195.51 180.66 196.39 180.66 197.46 Z M 180.67 198.45 L 180.66 199.48 C 180.66 200.55 181.52 201.43 182.59 201.43 C 183.67 201.44 184.54 200.57 184.55 199.50 L 184.55 198.47 C 184.56 197.40 183.69 196.52 182.62 196.52 C 181.55 196.51 180.67 197.38 180.67 198.45 Z M 180.66 199.45 L 180.64 200.49 C 180.62 201.57 181.48 202.45 182.55 202.47 C 183.63 202.49 184.51 201.64 184.53 200.56 L 184.55 199.52 C 184.57 198.45 183.71 197.56 182.64 197.54 C 181.56 197.52 180.68 198.38 180.66 199.45 Z M 180.63 200.46 L 180.60 201.50 C 180.57 202.58 181.41 203.48 182.49 203.51 C 183.57 203.55 184.47 202.70 184.50 201.62 L 184.54 200.59 C 184.57 199.51 183.73 198.61 182.65 198.57 C 181.57 198.54 180.67 199.39 180.63 200.46 Z M 180.60 201.47 L 180.55 202.49 C 180.50 203.57 181.33 204.49 182.41 204.54 C 183.49 204.60 184.41 203.76 184.46 202.68 L 184.51 201.66 C 184.56 200.58 183.73 199.66 182.65 199.61 C 181.57 199.55 180.65 200.39 180.60 201.47 Z M 180.55 202.46 L 180.48 203.47 C 180.41 204.55 181.22 205.48 182.30 205.56 C 183.38 205.63 184.32 204.81 184.39 203.73 L 184.46 202.72 C 184.53 201.64 183.72 200.70 182.63 200.63 C 181.55 200.56 180.62 201.38 180.55 202.46 Z M 180.48 203.43 L 180.39 204.41 C 180.29 205.49 181.09 206.45 182.17 206.54 C 183.25 206.64 184.21 205.84 184.31 204.76 L 184.39 203.77 C 184.49 202.69 183.69 201.74 182.61 201.64 C 181.53 201.55 180.57 202.34 180.48 203.43 Z M 180.39 204.36 L 180.28 205.32 C 180.16 206.40 180.93 207.37 182.01 207.50 C 183.09 207.62 184.07 206.85 184.20 205.76 L 184.30 204.81 C 184.43 203.73 183.65 202.75 182.57 202.63 C 181.49 202.50 180.51 203.28 180.39 204.36 Z M 180.28 205.26 L 180.15 206.17 C 179.99 207.25 180.74 208.25 181.82 208.41 C 182.90 208.56 183.90 207.82 184.06 206.74 L 184.19 205.82 C 184.35 204.74 183.60 203.74 182.52 203.59 C 181.44 203.43 180.44 204.18 180.28 205.26 Z M 180.16 206.09 L 179.97 207.12 C 179.77 208.19 180.48 209.22 181.56 209.42 C 182.63 209.62 183.66 208.91 183.86 207.84 L 184.05 206.81 C 184.25 205.74 183.54 204.71 182.46 204.51 C 181.39 204.31 180.36 205.02 180.16 206.09 Z M 179.99 207.02 L 179.75 208.03 C 179.50 209.09 180.16 210.16 181.23 210.41 C 182.29 210.66 183.36 210.00 183.61 208.94 L 183.85 207.93 C 184.10 206.86 183.44 205.80 182.37 205.55 C 181.31 205.30 180.24 205.96 179.99 207.02 Z M 179.77 207.92 L 179.50 208.88 C 179.19 209.93 179.79 211.03 180.84 211.34 C 181.90 211.65 183.00 211.04 183.31 209.99 L 183.59 209.04 C 183.89 207.99 183.29 206.88 182.24 206.58 C 181.18 206.27 180.08 206.87 179.77 207.92 Z M 179.53 208.77 L 179.21 209.68 C 178.84 210.72 179.38 211.85 180.42 212.22 C 181.45 212.58 182.59 212.04 182.96 211.01 L 183.28 210.09 C 183.64 209.06 183.10 207.92 182.06 207.56 C 181.03 207.19 179.89 207.74 179.53 208.77 Z M 179.24 209.58 L 178.88 210.47 C 178.45 211.48 178.94 212.65 179.95 213.07 C 180.97 213.49 182.13 213.01 182.55 211.99 L 182.92 211.11 C 183.34 210.09 182.86 208.93 181.84 208.51 C 180.83 208.09 179.66 208.57 179.24 209.58 Z M 178.91 210.38 L 178.50 211.25 C 178.03 212.24 178.45 213.43 179.45 213.90 C 180.44 214.37 181.63 213.95 182.10 212.95 L 182.52 212.08 C 182.99 211.09 182.56 209.90 181.57 209.43 C 180.57 208.96 179.38 209.38 178.91 210.38 Z M 178.54 211.17 L 178.08 212.03 C 177.56 213.01 177.94 214.22 178.91 214.73 C 179.88 215.25 181.09 214.88 181.61 213.90 L 182.07 213.03 C 182.58 212.06 182.21 210.85 181.24 210.33 C 180.26 209.82 179.05 210.19 178.54 211.17 Z M 178.11 211.97 L 177.60 212.85 C 177.05 213.80 177.38 215.03 178.33 215.58 C 179.29 216.13 180.51 215.80 181.07 214.85 L 181.57 213.97 C 182.13 213.01 181.80 211.79 180.84 211.24 C 179.89 210.68 178.66 211.01 178.11 211.97 Z M 177.63 212.80 L 177.10 213.65 C 176.52 214.59 176.82 215.83 177.76 216.41 C 178.70 216.99 179.93 216.70 180.51 215.75 L 181.04 214.90 C 181.62 213.96 181.33 212.72 180.39 212.14 C 179.44 211.56 178.21 211.86 177.63 212.80 Z M 177.12 213.61 L 176.59 214.44 C 175.99 215.37 176.25 216.61 177.18 217.21 C 178.11 217.82 179.35 217.55 179.96 216.62 L 180.49 215.79 C 181.09 214.86 180.83 213.62 179.90 213.02 C 178.97 212.42 177.73 212.68 177.12 213.61 Z M 176.61 214.41 L 176.04 215.25 C 175.42 216.16 175.66 217.41 176.58 218.03 C 177.50 218.65 178.75 218.41 179.37 217.49 L 179.94 216.65 C 180.56 215.74 180.31 214.49 179.40 213.87 C 178.48 213.25 177.23 213.49 176.61 214.41 Z M 176.06 215.21 L 175.47 216.06 C 174.83 216.96 175.05 218.22 175.96 218.86 C 176.86 219.49 178.12 219.28 178.76 218.37 L 179.35 217.53 C 179.99 216.62 179.77 215.36 178.86 214.73 C 177.95 214.09 176.70 214.30 176.06 215.21 Z M 175.49 216.02 L 174.88 216.86 C 174.22 217.76 174.42 219.02 175.31 219.67 C 176.21 220.33 177.47 220.13 178.13 219.24 L 178.74 218.40 C 179.39 217.50 179.20 216.24 178.30 215.59 C 177.40 214.93 176.14 215.13 175.49 216.02 Z M 174.90 216.83 L 174.27 217.65 C 173.60 218.54 173.77 219.80 174.66 220.48 C 175.54 221.15 176.81 220.98 177.48 220.09 L 178.11 219.27 C 178.78 218.38 178.61 217.12 177.72 216.44 C 176.83 215.77 175.57 215.94 174.90 216.83 Z M 174.29 217.62 L 173.66 218.42 C 172.97 219.29 173.12 220.56 173.99 221.26 C 174.86 221.95 176.13 221.80 176.82 220.92 L 177.46 220.12 C 178.15 219.25 178.00 217.98 177.13 217.29 C 176.25 216.60 174.98 216.75 174.29 217.62 Z M 173.68 218.39 L 173.05 219.16 C 172.34 220.02 172.46 221.29 173.32 222.00 C 174.18 222.71 175.45 222.59 176.16 221.73 L 176.80 220.96 C 177.51 220.10 177.39 218.83 176.53 218.12 C 175.67 217.41 174.39 217.53 173.68 218.39 Z M 173.08 219.12 L 172.45 219.85 C 171.72 220.69 171.81 221.97 172.65 222.70 C 173.50 223.43 174.77 223.34 175.51 222.49 L 176.14 221.77 C 176.87 220.92 176.77 219.64 175.93 218.91 C 175.08 218.18 173.81 218.27 173.08 219.12 Z M 172.48 219.81 L 171.82 220.53 C 171.06 221.36 171.12 222.64 171.95 223.39 C 172.77 224.14 174.05 224.09 174.81 223.26 L 175.47 222.54 C 176.22 221.71 176.17 220.43 175.34 219.68 C 174.52 218.92 173.24 218.98 172.48 219.81 Z M 171.87 220.48 L 171.05 221.31 C 170.27 222.10 170.28 223.39 171.08 224.17 C 171.88 224.96 173.16 224.95 173.94 224.15 L 174.76 223.32 C 175.54 222.52 175.53 221.23 174.73 220.45 C 173.94 219.67 172.65 219.68 171.87 220.48 Z M 171.11 221.24 L 170.32 221.99 C 169.50 222.75 169.46 224.03 170.22 224.85 C 170.99 225.67 172.27 225.71 173.09 224.95 L 173.88 224.21 C 174.70 223.44 174.74 222.16 173.98 221.34 C 173.21 220.52 171.93 220.48 171.11 221.24 Z M 170.38 221.93 L 169.61 222.59 C 168.76 223.32 168.66 224.60 169.39 225.45 C 170.12 226.30 171.40 226.40 172.25 225.67 L 173.02 225.01 C 173.87 224.28 173.97 223.00 173.25 222.15 C 172.52 221.30 171.24 221.20 170.38 221.93 Z M 169.68 222.53 L 168.92 223.12 C 168.03 223.82 167.88 225.09 168.57 225.98 C 169.26 226.86 170.54 227.02 171.42 226.32 L 172.18 225.73 C 173.06 225.04 173.22 223.76 172.53 222.88 C 171.84 222.00 170.56 221.84 169.68 222.53 Z M 168.98 223.07 L 168.24 223.61 C 167.32 224.26 167.12 225.53 167.77 226.45 C 168.42 227.36 169.69 227.57 170.61 226.91 L 171.35 226.38 C 172.27 225.72 172.48 224.45 171.82 223.54 C 171.17 222.63 169.90 222.42 168.98 223.07 Z M 168.30 223.56 L 167.56 224.06 C 166.62 224.68 166.36 225.94 166.98 226.87 C 167.60 227.81 168.86 228.07 169.80 227.45 L 170.54 226.96 C 171.48 226.34 171.74 225.08 171.12 224.14 C 170.50 223.20 169.24 222.95 168.30 223.56 Z M 167.61 224.02 L 166.83 224.50 C 165.87 225.09 165.57 226.34 166.16 227.30 C 166.75 228.26 168.00 228.56 168.96 227.97 L 169.75 227.49 C 170.70 226.90 171.00 225.64 170.41 224.69 C 169.82 223.73 168.57 223.43 167.61 224.02 Z M 166.88 224.47 L 166.00 224.97 C 165.02 225.53 164.68 226.78 165.24 227.75 C 165.80 228.73 167.04 229.07 168.02 228.51 L 168.90 228.00 C 169.88 227.45 170.22 226.20 169.66 225.22 C 169.10 224.25 167.86 223.91 166.88 224.47 Z M 166.06 224.94 L 165.17 225.41 C 164.17 225.93 163.79 227.17 164.31 228.16 C 164.84 229.16 166.07 229.54 167.07 229.01 L 167.96 228.54 C 168.95 228.02 169.33 226.79 168.81 225.79 C 168.28 224.80 167.05 224.41 166.06 224.94 Z M 165.23 225.38 L 164.33 225.81 C 163.32 226.30 162.90 227.52 163.39 228.54 C 163.88 229.55 165.10 229.97 166.11 229.48 L 167.01 229.05 C 168.02 228.55 168.44 227.33 167.95 226.32 C 167.46 225.31 166.24 224.89 165.23 225.38 Z M 164.39 225.78 L 163.49 226.18 C 162.46 226.64 162.00 227.85 162.46 228.88 C 162.91 229.91 164.12 230.37 165.15 229.91 L 166.05 229.51 C 167.08 229.05 167.54 227.85 167.09 226.82 C 166.63 225.79 165.42 225.32 164.39 225.78 Z M 163.55 226.16 L 162.64 226.53 C 161.59 226.95 161.09 228.15 161.52 229.19 C 161.94 230.23 163.13 230.74 164.18 230.31 L 165.09 229.94 C 166.13 229.51 166.64 228.32 166.21 227.28 C 165.79 226.23 164.59 225.73 163.55 226.16 Z M 162.69 226.51 L 161.82 226.83 C 160.76 227.22 160.23 228.40 160.62 229.46 C 161.01 230.51 162.19 231.05 163.25 230.66 L 164.12 230.33 C 165.18 229.94 165.71 228.76 165.32 227.71 C 164.93 226.65 163.75 226.11 162.69 226.51 Z M 161.88 226.81 L 161.03 227.10 C 159.96 227.46 159.38 228.61 159.74 229.68 C 160.10 230.75 161.26 231.33 162.33 230.97 L 163.18 230.68 C 164.25 230.32 164.83 229.16 164.47 228.09 C 164.11 227.02 162.95 226.45 161.88 226.81 Z M 161.10 227.07 L 160.21 227.34 C 159.12 227.66 158.51 228.79 158.82 229.87 C 159.14 230.96 160.28 231.58 161.36 231.26 L 162.25 230.99 C 163.34 230.67 163.95 229.54 163.64 228.45 C 163.32 227.37 162.18 226.75 161.10 227.07 Z M 160.29 227.32 L 159.34 227.55 C 158.25 227.83 157.59 228.94 157.86 230.03 C 158.14 231.13 159.25 231.79 160.34 231.51 L 161.28 231.28 C 162.38 231.00 163.04 229.89 162.76 228.80 C 162.49 227.70 161.38 227.04 160.29 227.32 Z M 159.43 227.53 L 158.42 227.74 C 157.32 227.97 156.61 229.05 156.83 230.16 C 157.06 231.26 158.15 231.97 159.25 231.74 L 160.26 231.53 C 161.36 231.30 162.07 230.22 161.84 229.12 C 161.61 228.01 160.53 227.30 159.43 227.53 Z M 158.50 227.73 L 157.42 227.90 C 156.30 228.09 155.55 229.14 155.73 230.25 C 155.92 231.37 156.97 232.12 158.08 231.94 L 159.17 231.76 C 160.28 231.57 161.03 230.52 160.85 229.41 C 160.67 228.30 159.62 227.54 158.50 227.73 Z M 157.50 227.89 L 156.39 228.03 C 155.27 228.17 154.48 229.19 154.62 230.31 C 154.76 231.43 155.78 232.23 156.90 232.09 L 158.01 231.95 C 159.13 231.81 159.92 230.79 159.78 229.67 C 159.64 228.55 158.61 227.75 157.50 227.89 Z M 156.46 228.03 L 155.50 228.12 C 154.37 228.22 153.55 229.22 153.66 230.34 C 153.76 231.47 154.76 232.29 155.88 232.18 L 156.84 232.09 C 157.97 231.99 158.79 230.99 158.68 229.87 C 158.58 228.74 157.58 227.92 156.46 228.03 Z M 155.55 228.11 L 154.55 228.18 C 153.42 228.26 152.57 229.23 152.65 230.36 C 152.73 231.49 153.70 232.34 154.83 232.26 L 155.83 232.19 C 156.96 232.11 157.81 231.14 157.73 230.01 C 157.65 228.88 156.67 228.03 155.55 228.11 Z M 154.60 228.18 L 153.57 228.22 C 152.44 228.27 151.57 229.23 151.62 230.36 C 151.67 231.48 152.62 232.36 153.75 232.31 L 154.78 232.26 C 155.91 232.21 156.78 231.26 156.73 230.13 C 156.68 229.00 155.73 228.13 154.60 228.18 Z M 153.62 228.22 L 152.58 228.24 C 151.45 228.26 150.56 229.20 150.58 230.32 C 150.60 231.45 151.53 232.35 152.66 232.33 L 153.70 232.31 C 154.83 232.29 155.72 231.35 155.70 230.23 C 155.68 229.10 154.75 228.20 153.62 228.22 Z M 152.64 228.24 L 151.60 228.23 C 150.47 228.23 149.55 229.13 149.54 230.26 C 149.53 231.39 150.44 232.31 151.57 232.32 L 152.61 232.33 C 153.73 232.34 154.65 231.43 154.66 230.30 C 154.67 229.17 153.76 228.25 152.64 228.24 Z M 151.66 228.24 L 150.64 228.20 C 149.51 228.16 148.57 229.04 148.53 230.17 C 148.48 231.29 149.37 232.24 150.49 232.28 L 151.51 232.32 C 152.64 232.36 153.58 231.48 153.63 230.35 C 153.67 229.22 152.79 228.28 151.66 228.24 Z M 150.71 228.20 L 149.72 228.13 C 148.60 228.06 147.62 228.91 147.55 230.03 C 147.47 231.16 148.32 232.13 149.44 232.21 L 150.43 232.28 C 151.55 232.36 152.53 231.51 152.60 230.38 C 152.68 229.26 151.83 228.28 150.71 228.20 Z M 149.80 228.14 L 148.87 228.04 C 147.75 227.92 146.74 228.73 146.62 229.85 C 146.50 230.97 147.31 231.98 148.43 232.10 L 149.36 232.20 C 150.48 232.32 151.49 231.51 151.61 230.39 C 151.73 229.27 150.92 228.26 149.80 228.14 Z M 148.98 228.06 L 147.84 227.87 C 146.73 227.69 145.68 228.45 145.50 229.56 C 145.32 230.67 146.07 231.71 147.18 231.90 L 148.32 232.08 C 149.43 232.26 150.48 231.51 150.66 230.40 C 150.84 229.29 150.09 228.24 148.98 228.06 Z M 147.97 227.91 L 146.92 227.67 C 145.83 227.42 144.74 228.10 144.49 229.19 C 144.24 230.28 144.92 231.37 146.01 231.62 L 147.06 231.86 C 148.15 232.11 149.24 231.43 149.49 230.34 C 149.74 229.25 149.06 228.16 147.97 227.91 Z M 147.04 227.71 L 146.08 227.42 C 145.01 227.10 143.88 227.71 143.57 228.78 C 143.25 229.85 143.86 230.97 144.92 231.29 L 145.89 231.58 C 146.96 231.90 148.08 231.29 148.40 230.22 C 148.72 229.15 148.11 228.03 147.04 227.71 Z M 146.19 227.47 L 145.29 227.14 C 144.24 226.76 143.09 227.30 142.71 228.34 C 142.33 229.38 142.87 230.54 143.91 230.92 L 144.81 231.24 C 145.86 231.62 147.01 231.09 147.39 230.04 C 147.77 229.00 147.23 227.85 146.19 227.47 Z M 145.38 227.19 L 144.53 226.82 C 143.51 226.39 142.33 226.87 141.90 227.89 C 141.47 228.90 141.95 230.08 142.97 230.51 L 143.82 230.87 C 144.84 231.30 146.01 230.83 146.44 229.81 C 146.87 228.79 146.40 227.62 145.38 227.19 Z M 144.60 226.87 L 143.77 226.48 C 142.78 226.01 141.59 226.44 141.12 227.43 C 140.65 228.43 141.08 229.61 142.08 230.08 L 142.90 230.47 C 143.89 230.94 145.08 230.51 145.55 229.52 C 146.02 228.52 145.59 227.33 144.60 226.87 Z M 143.82 226.51 L 143.02 226.11 C 142.04 225.62 140.85 226.01 140.36 226.98 C 139.87 227.96 140.26 229.15 141.23 229.65 L 142.03 230.05 C 143.01 230.54 144.20 230.15 144.69 229.17 C 145.19 228.20 144.79 227.00 143.82 226.51 Z M 143.05 226.14 L 142.26 225.72 C 141.30 225.21 140.11 225.57 139.60 226.53 C 139.09 227.49 139.45 228.68 140.41 229.19 L 141.20 229.61 C 142.16 230.12 143.36 229.76 143.87 228.80 C 144.38 227.84 144.01 226.65 143.05 226.14 Z M 142.28 225.75 L 141.47 225.30 C 140.53 224.77 139.34 225.12 138.82 226.06 C 138.29 227.00 138.63 228.19 139.58 228.72 L 140.39 229.16 C 141.33 229.69 142.52 229.35 143.04 228.40 C 143.57 227.46 143.23 226.27 142.28 225.75 Z M 141.49 225.32 L 140.65 224.84 C 139.72 224.31 138.53 224.63 138.00 225.56 C 137.47 226.49 137.79 227.67 138.72 228.21 L 139.56 228.69 C 140.49 229.22 141.67 228.90 142.21 227.97 C 142.74 227.04 142.42 225.86 141.49 225.32 Z M 140.66 224.86 L 139.77 224.34 C 138.85 223.80 137.67 224.10 137.13 225.02 C 136.59 225.94 136.90 227.12 137.81 227.66 L 138.71 228.18 C 139.62 228.72 140.80 228.42 141.34 227.50 C 141.88 226.58 141.58 225.40 140.66 224.86 Z M 139.78 224.36 L 138.82 223.79 C 137.91 223.24 136.74 223.54 136.20 224.44 C 135.65 225.35 135.95 226.52 136.85 227.07 L 137.81 227.64 C 138.72 228.18 139.89 227.89 140.43 226.98 C 140.98 226.08 140.68 224.90 139.78 224.36 Z M 138.82 223.80 L 137.88 223.23 C 136.98 222.69 135.82 222.98 135.27 223.87 C 134.73 224.77 135.02 225.94 135.91 226.48 L 136.85 227.05 C 137.75 227.59 138.92 227.31 139.46 226.41 C 140.00 225.51 139.72 224.35 138.82 223.80 Z M 137.88 223.25 L 137.09 222.77 C 136.20 222.23 135.04 222.51 134.50 223.40 C 133.96 224.29 134.25 225.45 135.13 225.99 L 135.92 226.46 C 136.81 227.01 137.96 226.72 138.51 225.83 C 139.05 224.95 138.76 223.79 137.88 223.25 Z M 137.09 222.78 L 136.27 222.28 C 135.39 221.75 134.24 222.02 133.70 222.90 C 133.16 223.79 133.44 224.94 134.32 225.47 L 135.14 225.97 C 136.02 226.51 137.17 226.23 137.71 225.35 C 138.25 224.47 137.97 223.32 137.09 222.78 Z M 136.26 222.30 L 135.41 221.78 C 134.54 221.24 133.40 221.52 132.86 222.39 C 132.33 223.26 132.60 224.40 133.48 224.94 L 134.32 225.46 C 135.20 225.99 136.34 225.72 136.87 224.85 C 137.41 223.97 137.13 222.83 136.26 222.30 Z M 135.41 221.79 L 134.54 221.26 C 133.67 220.73 132.54 221.00 132.01 221.86 C 131.48 222.73 131.75 223.86 132.61 224.39 L 133.48 224.93 C 134.35 225.46 135.48 225.19 136.01 224.32 C 136.54 223.46 136.27 222.32 135.41 221.79 Z M 134.53 221.27 L 133.65 220.73 C 132.79 220.20 131.67 220.47 131.14 221.33 C 130.61 222.18 130.88 223.31 131.74 223.84 L 132.62 224.38 C 133.48 224.91 134.60 224.64 135.13 223.78 C 135.66 222.92 135.39 221.80 134.53 221.27 Z M 133.65 220.74 L 132.76 220.20 C 131.91 219.67 130.80 219.94 130.27 220.79 C 129.75 221.64 130.01 222.75 130.86 223.27 L 131.74 223.82 C 132.59 224.35 133.71 224.08 134.23 223.23 C 134.76 222.38 134.50 221.27 133.65 220.74 Z M 132.75 220.21 L 131.87 219.66 C 131.03 219.14 129.92 219.40 129.40 220.25 C 128.88 221.09 129.14 222.19 129.98 222.71 L 130.86 223.26 C 131.71 223.78 132.81 223.52 133.33 222.68 C 133.86 221.84 133.60 220.73 132.75 220.21 Z M 131.87 219.68 L 131.00 219.14 C 130.16 218.62 129.06 218.88 128.55 219.71 C 128.03 220.54 128.28 221.64 129.12 222.16 L 129.99 222.70 C 130.82 223.22 131.92 222.96 132.44 222.13 C 132.96 221.29 132.70 220.20 131.87 219.68 Z M 130.99 219.15 L 130.11 218.60 C 129.28 218.09 128.19 218.34 127.68 219.17 C 127.16 219.99 127.42 221.08 128.24 221.60 L 129.12 222.15 C 129.95 222.66 131.04 222.41 131.55 221.58 C 132.07 220.75 131.82 219.67 130.99 219.15 Z M 130.10 218.62 L 129.18 218.05 C 128.37 217.54 127.29 217.79 126.78 218.60 C 126.27 219.42 126.52 220.49 127.33 221.00 L 128.25 221.58 C 129.07 222.09 130.14 221.84 130.65 221.02 C 131.16 220.21 130.92 219.13 130.10 218.62 Z M 129.17 218.07 L 128.29 217.51 C 127.48 217.00 126.42 217.25 125.91 218.05 C 125.41 218.86 125.65 219.92 126.45 220.42 L 127.34 220.98 C 128.15 221.49 129.21 221.25 129.71 220.44 C 130.22 219.64 129.98 218.58 129.17 218.07 Z M 128.28 217.53 L 127.42 216.98 C 126.62 216.48 125.57 216.72 125.07 217.51 C 124.57 218.30 124.80 219.35 125.60 219.86 L 126.46 220.40 C 127.25 220.90 128.30 220.67 128.80 219.88 C 129.31 219.08 129.07 218.03 128.28 217.53 Z M 127.41 217.01 L 126.57 216.47 C 125.79 215.97 124.75 216.20 124.25 216.98 C 123.75 217.76 123.98 218.80 124.76 219.30 L 125.60 219.83 C 126.38 220.33 127.42 220.10 127.92 219.32 C 128.42 218.54 128.19 217.51 127.41 217.01 Z M 126.56 216.49 L 125.75 215.96 C 124.98 215.47 123.95 215.69 123.46 216.46 C 122.96 217.22 123.18 218.25 123.95 218.74 L 124.77 219.27 C 125.53 219.77 126.56 219.55 127.06 218.78 C 127.55 218.01 127.33 216.99 126.56 216.49 Z M 125.74 215.99 L 124.94 215.46 C 124.19 214.97 123.18 215.18 122.68 215.94 C 122.19 216.69 122.40 217.70 123.15 218.20 L 123.95 218.72 C 124.71 219.21 125.72 219.00 126.21 218.25 C 126.71 217.49 126.50 216.48 125.74 215.99 Z M 124.94 215.49 L 124.16 214.97 C 123.42 214.48 122.42 214.68 121.92 215.42 C 121.43 216.16 121.63 217.16 122.37 217.65 L 123.16 218.17 C 123.90 218.66 124.90 218.46 125.39 217.72 C 125.88 216.98 125.68 215.98 124.94 215.49 Z M 124.16 214.99 L 123.37 214.46 C 122.64 213.97 121.65 214.16 121.16 214.89 C 120.67 215.61 120.86 216.60 121.58 217.09 L 122.37 217.63 C 123.10 218.12 124.09 217.93 124.58 217.20 C 125.08 216.47 124.88 215.48 124.16 214.99 Z M 123.37 214.47 L 122.53 213.89 C 121.81 213.40 120.82 213.58 120.33 214.30 C 119.84 215.02 120.02 216.00 120.74 216.50 L 121.58 217.08 C 122.30 217.57 123.28 217.39 123.78 216.67 C 124.27 215.95 124.09 214.97 123.37 214.47 Z M 122.54 213.90 L 121.71 213.32 C 120.99 212.82 120.01 213.00 119.51 213.71 C 119.01 214.43 119.18 215.41 119.90 215.91 L 120.73 216.49 C 121.44 216.99 122.43 216.81 122.92 216.10 C 123.42 215.39 123.25 214.40 122.54 213.90 Z M 121.71 213.33 L 120.90 212.75 C 120.19 212.25 119.20 212.42 118.70 213.12 C 118.20 213.83 118.37 214.82 119.07 215.32 L 119.89 215.90 C 120.60 216.40 121.58 216.24 122.09 215.53 C 122.59 214.82 122.42 213.84 121.71 213.33 Z M 120.90 212.76 L 120.09 212.18 C 119.39 211.67 118.41 211.83 117.90 212.54 C 117.39 213.24 117.56 214.23 118.26 214.73 L 119.07 215.31 C 119.77 215.82 120.76 215.66 121.26 214.95 C 121.77 214.25 121.61 213.27 120.90 212.76 Z M 120.10 212.19 L 119.30 211.60 C 118.59 211.10 117.61 211.25 117.11 211.96 C 116.60 212.66 116.75 213.64 117.46 214.15 L 118.26 214.73 C 118.96 215.23 119.94 215.08 120.45 214.38 C 120.96 213.67 120.80 212.69 120.10 212.19 Z M 119.30 211.61 L 118.50 211.03 C 117.80 210.52 116.82 210.67 116.31 211.37 C 115.80 212.07 115.96 213.05 116.66 213.56 L 117.45 214.14 C 118.15 214.65 119.13 214.50 119.64 213.80 C 120.15 213.10 120.00 212.12 119.30 211.61 Z M 118.50 211.03 L 117.73 210.47 C 117.03 209.96 116.05 210.11 115.55 210.81 C 115.04 211.51 115.19 212.48 115.89 212.99 L 116.66 213.56 C 117.35 214.07 118.33 213.91 118.84 213.22 C 119.35 212.52 119.20 211.54 118.50 211.03 Z"
      fill="black"
      fill-rule="nonzero" /></svg>