<svg xmlns="http://www.w3.org/2000/svg" width="300" height="300" viewBox="0 0 300 300">
<path d="M 201.65 73.00 L 200.66 72.74 C 199.58 72.45 198.47 73.10 198.18 74.18 C 197.89 75.26 198.54 76.37 199.62 76.66 L 200.60 76.92 C 201.69 77.21 202.80 76.56 203.08 75.48 C 203.37 74.40 202.73 73.29 201.65 73.00 Z M 200.65 72.63 L 199.67 72.39 C 198.52 72.11 197.37 72.81 197.09 73.95 C 196.81 75.09 197.51 76.25 198.65 76.53 L 199.63 76.77 C 200.78 77.05 201.93 76.35 202.21 75.21 C 202.49 74.06 201.79 72.91 200.65 72.63 Z M 199.61 72.26 L 198.64 72.07 C 197.43 71.82 196.24 72.60 196.00 73.82 C 195.75 75.03 196.53 76.21 197.75 76.46 L 198.71 76.65 C 199.93 76.90 201.11 76.12 201.35 74.90 C 201.60 73.69 200.82 72.51 199.61 72.26 Z M 198.51 71.96 L 197.52 71.82 C 196.25 71.65 195.07 72.54 194.90 73.81 C 194.73 75.09 195.62 76.26 196.89 76.43 L 197.88 76.57 C 199.15 76.74 200.32 75.85 200.50 74.58 C 200.67 73.30 199.78 72.13 198.51 71.96 Z M 197.33 71.75 L 196.32 71.70 C 195.01 71.63 193.89 72.64 193.83 73.95 C 193.76 75.27 194.77 76.39 196.08 76.45 L 197.08 76.50 C 198.40 76.57 199.52 75.56 199.58 74.25 C 199.65 72.93 198.64 71.82 197.33 71.75 Z M 196.10 71.66 L 195.11 71.71 C 193.78 71.76 192.74 72.89 192.80 74.23 C 192.86 75.56 193.99 76.59 195.32 76.53 L 196.31 76.49 C 197.64 76.43 198.68 75.30 198.62 73.97 C 198.56 72.64 197.43 71.60 196.10 71.66 Z M 194.87 71.69 L 193.92 71.83 C 192.58 72.02 191.65 73.26 191.84 74.60 C 192.03 75.94 193.27 76.87 194.61 76.68 L 195.56 76.54 C 196.90 76.35 197.83 75.11 197.64 73.77 C 197.45 72.43 196.21 71.50 194.87 71.69 Z M 193.70 71.85 L 192.81 72.06 C 191.48 72.37 190.66 73.70 190.97 75.03 C 191.28 76.36 192.61 77.18 193.94 76.87 L 194.83 76.66 C 196.16 76.35 196.98 75.02 196.67 73.69 C 196.35 72.36 195.02 71.54 193.70 71.85 Z M 192.64 72.09 L 191.71 72.38 C 190.39 72.79 189.66 74.18 190.07 75.49 C 190.47 76.80 191.86 77.53 193.17 77.13 L 194.11 76.84 C 195.42 76.43 196.15 75.04 195.75 73.73 C 195.34 72.42 193.95 71.69 192.64 72.09 Z M 191.59 72.41 L 190.57 72.78 C 189.27 73.25 188.61 74.68 189.08 75.98 C 189.55 77.27 190.98 77.94 192.28 77.47 L 193.29 77.10 C 194.59 76.63 195.26 75.20 194.79 73.90 C 194.32 72.60 192.88 71.94 191.59 72.41 Z M 190.50 72.79 L 189.55 73.17 C 188.27 73.67 187.63 75.13 188.14 76.42 C 188.65 77.71 190.11 78.34 191.40 77.83 L 192.34 77.46 C 193.63 76.95 194.26 75.49 193.76 74.20 C 193.25 72.91 191.79 72.28 190.50 72.79 Z M 189.52 73.17 L 188.60 73.55 C 187.32 74.08 186.70 75.54 187.23 76.83 C 187.76 78.11 189.23 78.73 190.51 78.20 L 191.43 77.82 C 192.71 77.30 193.33 75.83 192.80 74.54 C 192.27 73.26 190.81 72.65 189.52 73.17 Z M 188.59 73.55 L 187.64 73.94 C 186.36 74.48 185.75 75.95 186.29 77.24 C 186.82 78.52 188.29 79.13 189.58 78.59 L 190.53 78.20 C 191.81 77.66 192.42 76.19 191.88 74.91 C 191.35 73.62 189.87 73.01 188.59 73.55 Z M 187.64 73.94 L 186.69 74.34 C 185.40 74.87 184.80 76.35 185.33 77.64 C 185.87 78.92 187.35 79.53 188.63 78.99 L 189.58 78.60 C 190.87 78.06 191.48 76.58 190.94 75.30 C 190.40 74.01 188.92 73.40 187.64 73.94 Z M 186.70 74.33 L 185.78 74.71 C 184.49 75.24 183.87 76.72 184.40 78.01 C 184.94 79.30 186.41 79.91 187.70 79.38 L 188.63 79.00 C 189.92 78.47 190.53 76.99 190.00 75.70 C 189.47 74.41 187.99 73.80 186.70 74.33 Z M 185.80 74.70 L 184.83 75.08 C 183.54 75.60 182.91 77.07 183.43 78.37 C 183.95 79.67 185.42 80.30 186.72 79.78 L 187.68 79.39 C 188.98 78.87 189.61 77.40 189.09 76.10 C 188.57 74.81 187.10 74.18 185.80 74.70 Z M 184.86 75.07 L 183.93 75.43 C 182.63 75.93 181.98 77.40 182.49 78.70 C 182.99 80.01 184.45 80.66 185.76 80.15 L 186.69 79.79 C 187.99 79.29 188.64 77.82 188.14 76.52 C 187.63 75.21 186.17 74.57 184.86 75.07 Z M 183.96 75.42 L 183.05 75.76 C 181.74 76.25 181.07 77.71 181.56 79.02 C 182.05 80.33 183.51 80.99 184.82 80.50 L 185.73 80.16 C 187.04 79.67 187.71 78.21 187.22 76.90 C 186.73 75.59 185.27 74.93 183.96 75.42 Z M 183.07 75.75 L 182.14 76.09 C 180.83 76.57 180.15 78.03 180.63 79.34 C 181.11 80.65 182.57 81.33 183.88 80.85 L 184.80 80.51 C 186.12 80.03 186.79 78.58 186.31 77.26 C 185.83 75.95 184.38 75.27 183.07 75.75 Z M 182.15 76.09 L 181.25 76.41 C 179.94 76.88 179.26 78.34 179.73 79.65 C 180.20 80.97 181.65 81.65 182.97 81.18 L 183.87 80.85 C 185.18 80.38 185.87 78.93 185.39 77.61 C 184.92 76.30 183.47 75.61 182.15 76.09 Z M 181.26 76.41 L 180.35 76.73 C 179.03 77.20 178.35 78.65 178.82 79.97 C 179.29 81.29 180.74 81.97 182.05 81.50 L 182.96 81.18 C 184.28 80.71 184.97 79.26 184.50 77.94 C 184.03 76.63 182.58 75.94 181.26 76.41 Z M 180.36 76.73 L 179.41 77.07 C 178.10 77.53 177.41 78.98 177.87 80.30 C 178.34 81.62 179.79 82.31 181.11 81.84 L 182.05 81.50 C 183.37 81.04 184.06 79.59 183.59 78.27 C 183.12 76.95 181.67 76.26 180.36 76.73 Z M 179.42 77.06 L 178.45 77.41 C 177.13 77.87 176.44 79.32 176.90 80.64 C 177.37 81.96 178.81 82.65 180.13 82.18 L 181.10 81.84 C 182.42 81.37 183.11 79.93 182.65 78.61 C 182.18 77.29 180.74 76.60 179.42 77.06 Z M 178.45 77.41 L 177.46 77.76 C 176.14 78.22 175.44 79.67 175.91 80.99 C 176.37 82.31 177.82 83.00 179.14 82.53 L 180.13 82.18 C 181.45 81.72 182.14 80.27 181.68 78.95 C 181.21 77.63 179.77 76.94 178.45 77.41 Z M 177.46 77.76 L 176.55 78.08 C 175.23 78.54 174.54 79.99 175.00 81.31 C 175.46 82.62 176.91 83.32 178.23 82.85 L 179.14 82.53 C 180.46 82.07 181.15 80.62 180.68 79.30 C 180.22 77.99 178.77 77.29 177.46 77.76 Z M 176.55 78.08 L 175.62 78.40 C 174.31 78.87 173.61 80.31 174.08 81.63 C 174.54 82.95 175.99 83.64 177.31 83.18 L 178.23 82.85 C 179.55 82.39 180.24 80.94 179.78 79.62 C 179.31 78.30 177.87 77.61 176.55 78.08 Z M 175.62 78.40 L 174.68 78.74 C 173.36 79.20 172.67 80.65 173.14 81.97 C 173.60 83.28 175.05 83.97 176.37 83.51 L 177.31 83.18 C 178.63 82.71 179.32 81.26 178.85 79.95 C 178.39 78.63 176.94 77.94 175.62 78.40 Z M 174.68 78.74 L 173.72 79.08 C 172.40 79.54 171.72 80.99 172.18 82.31 C 172.65 83.63 174.10 84.31 175.41 83.85 L 176.37 83.51 C 177.69 83.04 178.38 81.59 177.91 80.28 C 177.44 78.96 176.00 78.27 174.68 78.74 Z M 173.72 79.08 L 172.74 79.43 C 171.42 79.90 170.74 81.35 171.21 82.66 C 171.68 83.98 173.13 84.66 174.44 84.19 L 175.42 83.85 C 176.74 83.38 177.42 81.93 176.95 80.61 C 176.48 79.29 175.03 78.61 173.72 79.08 Z M 172.74 79.43 L 171.82 79.76 C 170.50 80.23 169.82 81.68 170.29 83.00 C 170.76 84.31 172.21 85.00 173.53 84.52 L 174.45 84.19 C 175.76 83.72 176.45 82.27 175.97 80.95 C 175.50 79.64 174.05 78.96 172.74 79.43 Z M 171.81 79.76 L 170.89 80.09 C 169.58 80.57 168.90 82.02 169.38 83.34 C 169.85 84.65 171.30 85.33 172.62 84.85 L 173.53 84.52 C 174.85 84.04 175.53 82.59 175.05 81.28 C 174.58 79.97 173.12 79.29 171.81 79.76 Z M 170.89 80.10 L 169.96 80.44 C 168.64 80.92 167.97 82.37 168.45 83.68 C 168.93 84.99 170.38 85.67 171.69 85.19 L 172.62 84.85 C 173.94 84.37 174.61 82.92 174.13 81.61 C 173.65 80.29 172.20 79.62 170.89 80.10 Z M 169.95 80.44 L 169.00 80.79 C 167.69 81.27 167.02 82.72 167.50 84.04 C 167.99 85.35 169.44 86.02 170.75 85.54 L 171.70 85.19 C 173.01 84.70 173.68 83.25 173.20 81.94 C 172.72 80.63 171.26 79.96 169.95 80.44 Z M 169.00 80.79 L 168.04 81.15 C 166.73 81.63 166.06 83.09 166.55 84.40 C 167.04 85.71 168.49 86.38 169.80 85.89 L 170.76 85.53 C 172.07 85.05 172.74 83.59 172.25 82.28 C 171.76 80.97 170.31 80.30 169.00 80.79 Z M 168.03 81.15 L 167.06 81.51 C 165.76 82.00 165.09 83.46 165.58 84.77 C 166.07 86.08 167.53 86.74 168.84 86.25 L 169.81 85.89 C 171.12 85.40 171.78 83.94 171.29 82.63 C 170.80 81.32 169.34 80.66 168.03 81.15 Z M 167.06 81.52 L 166.14 81.86 C 164.83 82.36 164.18 83.82 164.67 85.12 C 165.16 86.43 166.62 87.09 167.93 86.59 L 168.85 86.25 C 170.15 85.75 170.81 84.29 170.32 82.99 C 169.82 81.68 168.36 81.02 167.06 81.52 Z M 166.13 81.87 L 165.21 82.22 C 163.90 82.72 163.25 84.18 163.75 85.48 C 164.25 86.79 165.71 87.44 167.01 86.94 L 167.94 86.59 C 169.24 86.09 169.89 84.63 169.40 83.33 C 168.90 82.02 167.44 81.37 166.13 81.87 Z M 165.20 82.22 L 164.27 82.58 C 162.97 83.08 162.32 84.54 162.82 85.85 C 163.32 87.15 164.78 87.80 166.09 87.30 L 167.02 86.94 C 168.32 86.44 168.97 84.98 168.47 83.67 C 167.97 82.37 166.50 81.72 165.20 82.22 Z M 164.26 82.59 L 163.33 82.95 C 162.03 83.45 161.38 84.92 161.89 86.22 C 162.39 87.52 163.85 88.16 165.15 87.66 L 166.09 87.29 C 167.39 86.79 168.04 85.33 167.53 84.03 C 167.03 82.72 165.56 82.08 164.26 82.59 Z M 163.32 82.95 L 162.38 83.32 C 161.08 83.83 160.44 85.30 160.95 86.59 C 161.46 87.89 162.92 88.53 164.22 88.02 L 165.16 87.65 C 166.46 87.15 167.10 85.68 166.59 84.38 C 166.08 83.08 164.62 82.44 163.32 82.95 Z M 162.37 83.33 L 161.43 83.70 C 160.13 84.21 159.50 85.68 160.01 86.97 C 160.52 88.27 161.99 88.90 163.28 88.39 L 164.23 88.02 C 165.52 87.51 166.16 86.04 165.65 84.74 C 165.13 83.45 163.67 82.81 162.37 83.33 Z M 161.42 83.70 L 160.49 84.08 C 159.20 84.59 158.57 86.06 159.08 87.35 C 159.60 88.65 161.06 89.28 162.36 88.76 L 163.29 88.39 C 164.58 87.87 165.21 86.40 164.70 85.11 C 164.18 83.82 162.72 83.19 161.42 83.70 Z M 160.48 84.08 L 159.55 84.46 C 158.26 84.98 157.64 86.44 158.16 87.73 C 158.68 89.03 160.14 89.65 161.43 89.13 L 162.37 88.75 C 163.66 88.23 164.28 86.77 163.76 85.48 C 163.24 84.19 161.77 83.56 160.48 84.08 Z M 159.54 84.46 L 158.61 84.84 C 157.33 85.37 156.71 86.83 157.23 88.12 C 157.76 89.41 159.23 90.03 160.51 89.50 L 161.44 89.12 C 162.73 88.60 163.35 87.13 162.82 85.84 C 162.30 84.56 160.83 83.94 159.54 84.46 Z M 158.61 84.85 L 157.68 85.23 C 156.40 85.76 155.79 87.23 156.32 88.51 C 156.85 89.80 158.31 90.41 159.60 89.88 L 160.52 89.49 C 161.81 88.97 162.42 87.50 161.89 86.21 C 161.36 84.93 159.89 84.32 158.61 84.85 Z M 157.67 85.24 L 156.75 85.62 C 155.47 86.16 154.87 87.63 155.40 88.91 C 155.94 90.19 157.41 90.79 158.69 90.26 L 159.61 89.87 C 160.89 89.33 161.49 87.86 160.96 86.58 C 160.42 85.30 158.95 84.70 157.67 85.24 Z M 156.74 85.63 L 155.82 86.02 C 154.55 86.56 153.95 88.03 154.49 89.31 C 155.03 90.58 156.51 91.18 157.78 90.64 L 158.70 90.25 C 159.97 89.71 160.57 88.23 160.03 86.96 C 159.49 85.68 158.01 85.09 156.74 85.63 Z M 155.81 86.03 L 154.90 86.42 C 153.63 86.97 153.05 88.44 153.59 89.71 C 154.14 90.98 155.62 91.57 156.89 91.02 L 157.79 90.63 C 159.06 90.08 159.65 88.61 159.10 87.34 C 158.56 86.06 157.08 85.48 155.81 86.03 Z M 154.89 86.43 L 153.99 86.82 C 152.72 87.37 152.15 88.85 152.70 90.11 C 153.25 91.38 154.73 91.96 155.99 91.40 L 156.90 91.01 C 158.16 90.46 158.74 88.98 158.19 87.72 C 157.63 86.45 156.16 85.87 154.89 86.43 Z M 153.98 86.83 L 153.08 87.23 C 151.82 87.79 151.25 89.26 151.80 90.52 C 152.36 91.78 153.84 92.35 155.10 91.80 L 156.00 91.40 C 157.26 90.84 157.83 89.37 157.27 88.10 C 156.72 86.84 155.24 86.27 153.98 86.83 Z M 153.08 87.24 L 152.17 87.64 C 150.91 88.20 150.35 89.67 150.90 90.93 C 151.46 92.18 152.94 92.75 154.19 92.19 L 155.10 91.79 C 156.36 91.23 156.92 89.76 156.36 88.50 C 155.81 87.24 154.33 86.68 153.08 87.24 Z M 152.17 87.64 L 151.25 88.05 C 150.00 88.61 149.43 90.08 149.99 91.34 C 150.55 92.59 152.02 93.15 153.28 92.59 L 154.19 92.19 C 155.45 91.63 156.01 90.16 155.45 88.90 C 154.89 87.65 153.42 87.09 152.17 87.64 Z M 151.25 88.06 L 150.32 88.47 C 149.07 89.03 148.51 90.50 149.07 91.75 C 149.63 93.00 151.09 93.56 152.35 93.01 L 153.28 92.59 C 154.53 92.03 155.09 90.56 154.53 89.31 C 153.97 88.06 152.50 87.50 151.25 88.06 Z M 150.33 88.48 L 149.40 88.89 C 148.15 89.44 147.59 90.91 148.15 92.16 C 148.70 93.41 150.17 93.97 151.42 93.41 L 152.34 93.00 C 153.59 92.45 154.15 90.98 153.60 89.73 C 153.04 88.48 151.58 87.92 150.33 88.48 Z M 149.41 88.89 L 148.50 89.29 C 147.26 89.84 146.69 91.30 147.24 92.55 C 147.80 93.80 149.26 94.36 150.51 93.81 L 151.41 93.41 C 152.66 92.86 153.22 91.40 152.67 90.15 C 152.12 88.90 150.66 88.34 149.41 88.89 Z M 148.51 89.29 L 147.60 89.70 C 146.35 90.24 145.78 91.70 146.33 92.95 C 146.88 94.19 148.34 94.76 149.58 94.21 L 150.50 93.81 C 151.75 93.26 152.31 91.80 151.76 90.56 C 151.21 89.31 149.76 88.74 148.51 89.29 Z M 147.60 89.70 L 146.68 90.10 C 145.43 90.65 144.87 92.10 145.41 93.34 C 145.96 94.59 147.41 95.16 148.65 94.61 L 149.58 94.21 C 150.82 93.66 151.39 92.21 150.85 90.97 C 150.30 89.72 148.85 89.15 147.60 89.70 Z M 146.69 90.10 L 145.76 90.51 C 144.52 91.05 143.95 92.49 144.49 93.74 C 145.03 94.98 146.47 95.55 147.72 95.01 L 148.65 94.61 C 149.89 94.07 150.46 92.62 149.92 91.38 C 149.38 90.13 147.93 89.56 146.69 90.10 Z M 145.77 90.51 L 144.85 90.91 C 143.60 91.44 143.03 92.88 143.56 94.13 C 144.10 95.37 145.54 95.95 146.79 95.41 L 147.71 95.01 C 148.95 94.48 149.53 93.03 148.99 91.79 C 148.46 90.55 147.01 89.97 145.77 90.51 Z M 144.85 90.91 L 143.94 91.30 C 142.69 91.83 142.12 93.27 142.65 94.51 C 143.18 95.75 144.62 96.33 145.86 95.80 L 146.78 95.41 C 148.02 94.88 148.60 93.44 148.07 92.20 C 147.54 90.95 146.10 90.38 144.85 90.91 Z M 143.95 91.30 L 143.01 91.70 C 141.77 92.22 141.19 93.65 141.72 94.90 C 142.24 96.14 143.67 96.72 144.92 96.19 L 145.85 95.80 C 147.09 95.27 147.67 93.84 147.15 92.60 C 146.62 91.36 145.19 90.78 143.95 91.30 Z M 143.03 91.70 L 142.09 92.09 C 140.85 92.61 140.27 94.03 140.78 95.28 C 141.30 96.52 142.73 97.10 143.97 96.58 L 144.91 96.19 C 146.15 95.67 146.73 94.25 146.21 93.00 C 145.69 91.76 144.27 91.18 143.03 91.70 Z M 142.10 92.09 L 141.18 92.47 C 139.94 92.99 139.35 94.41 139.86 95.65 C 140.37 96.89 141.79 97.48 143.03 96.96 L 143.96 96.58 C 145.20 96.07 145.79 94.65 145.28 93.41 C 144.76 92.17 143.34 91.58 142.10 92.09 Z M 141.19 92.48 L 140.27 92.85 C 139.03 93.36 138.44 94.77 138.94 96.01 C 139.45 97.25 140.86 97.84 142.10 97.34 L 143.02 96.96 C 144.26 96.46 144.85 95.04 144.35 93.80 C 143.84 92.56 142.43 91.97 141.19 92.48 Z M 140.28 92.85 L 139.36 93.22 C 138.12 93.72 137.52 95.13 138.02 96.37 C 138.52 97.60 139.93 98.20 141.17 97.71 L 142.09 97.34 C 143.32 96.84 143.92 95.43 143.43 94.19 C 142.93 92.95 141.52 92.35 140.28 92.85 Z M 139.38 93.22 L 138.46 93.59 C 137.22 94.08 136.61 95.48 137.10 96.72 C 137.59 97.95 139.00 98.56 140.23 98.07 L 141.15 97.70 C 142.39 97.21 143.00 95.81 142.51 94.58 C 142.01 93.34 140.61 92.73 139.38 93.22 Z M 138.47 93.59 L 137.55 93.95 C 136.31 94.43 135.70 95.83 136.18 97.06 C 136.67 98.30 138.06 98.91 139.30 98.43 L 140.22 98.07 C 141.46 97.59 142.07 96.19 141.58 94.95 C 141.10 93.72 139.71 93.11 138.47 93.59 Z M 137.56 93.95 L 136.64 94.31 C 135.41 94.78 134.79 96.17 135.27 97.40 C 135.74 98.64 137.13 99.25 138.36 98.78 L 139.28 98.43 C 140.52 97.95 141.14 96.56 140.66 95.33 C 140.18 94.09 138.80 93.48 137.56 93.95 Z M 136.66 94.31 L 135.73 94.66 C 134.50 95.13 133.88 96.51 134.34 97.74 C 134.81 98.97 136.19 99.60 137.43 99.13 L 138.35 98.78 C 139.59 98.31 140.21 96.93 139.74 95.70 C 139.27 94.46 137.89 93.84 136.66 94.31 Z M 135.74 94.66 L 134.81 95.01 C 133.58 95.47 132.95 96.84 133.41 98.08 C 133.88 99.31 135.25 99.94 136.48 99.47 L 137.41 99.13 C 138.65 98.66 139.27 97.29 138.81 96.06 C 138.35 94.83 136.98 94.20 135.74 94.66 Z M 134.82 95.01 L 133.88 95.36 C 132.65 95.81 132.02 97.18 132.48 98.41 C 132.93 99.64 134.30 100.27 135.53 99.82 L 136.47 99.47 C 137.70 99.02 138.33 97.65 137.88 96.42 C 137.42 95.19 136.06 94.56 134.82 95.01 Z M 133.89 95.36 L 132.95 95.71 C 131.72 96.16 131.08 97.52 131.53 98.75 C 131.98 99.98 133.34 100.61 134.57 100.16 L 135.52 99.82 C 136.75 99.37 137.38 98.01 136.93 96.78 C 136.48 95.55 135.12 94.91 133.89 95.36 Z M 132.96 95.71 L 132.00 96.06 C 130.77 96.50 130.13 97.85 130.58 99.08 C 131.02 100.31 132.38 100.95 133.60 100.50 L 134.56 100.16 C 135.79 99.71 136.42 98.36 135.98 97.13 C 135.54 95.90 134.18 95.27 132.96 95.71 Z M 132.01 96.06 L 131.06 96.40 C 129.84 96.84 129.20 98.18 129.64 99.41 C 130.07 100.64 131.42 101.27 132.65 100.84 L 133.59 100.50 C 134.82 100.06 135.46 98.71 135.02 97.49 C 134.58 96.26 133.23 95.62 132.01 96.06 Z M 131.07 96.40 L 130.13 96.74 C 128.90 97.17 128.26 98.51 128.70 99.74 C 129.13 100.96 130.47 101.60 131.69 101.17 L 132.64 100.83 C 133.86 100.40 134.50 99.06 134.07 97.83 C 133.64 96.61 132.29 95.97 131.07 96.40 Z M 130.13 96.74 L 129.18 97.08 C 127.96 97.51 127.32 98.84 127.75 100.06 C 128.18 101.28 129.52 101.92 130.74 101.49 L 131.69 101.16 C 132.91 100.73 133.55 99.39 133.12 98.17 C 132.69 96.96 131.35 96.31 130.13 96.74 Z M 129.19 97.08 L 128.24 97.42 C 127.02 97.84 126.38 99.18 126.81 100.39 C 127.24 101.61 128.57 102.25 129.78 101.82 L 130.73 101.49 C 131.95 101.06 132.59 99.73 132.16 98.51 C 131.74 97.30 130.40 96.66 129.19 97.08 Z M 128.24 97.42 L 127.30 97.76 C 126.08 98.18 125.45 99.51 125.87 100.72 C 126.29 101.93 127.62 102.57 128.83 102.15 L 129.78 101.81 C 130.99 101.39 131.63 100.06 131.21 98.85 C 130.78 97.64 129.46 97.00 128.24 97.42 Z M 127.30 97.76 L 126.36 98.09 C 125.15 98.51 124.51 99.84 124.94 101.05 C 125.36 102.25 126.68 102.89 127.89 102.47 L 128.83 102.14 C 130.04 101.72 130.68 100.39 130.25 99.19 C 129.83 97.98 128.51 97.34 127.30 97.76 Z M 126.36 98.10 L 125.43 98.43 C 124.22 98.85 123.59 100.17 124.01 101.37 C 124.43 102.58 125.75 103.21 126.96 102.79 L 127.89 102.46 C 129.09 102.04 129.73 100.72 129.31 99.52 C 128.88 98.31 127.56 97.68 126.36 98.10 Z M 125.43 98.44 L 124.45 98.78 C 123.25 99.20 122.62 100.52 123.04 101.72 C 123.46 102.91 124.78 103.54 125.98 103.12 L 126.96 102.78 C 128.16 102.36 128.79 101.04 128.36 99.84 C 127.94 98.64 126.63 98.01 125.43 98.44 Z M 124.45 98.79 L 123.49 99.13 C 122.29 99.55 121.67 100.86 122.09 102.06 C 122.51 103.25 123.82 103.88 125.01 103.45 L 125.98 103.11 C 127.17 102.69 127.80 101.38 127.38 100.19 C 126.96 98.99 125.65 98.37 124.45 98.79 Z M 123.49 99.14 L 122.54 99.47 C 121.35 99.90 120.72 101.20 121.15 102.39 C 121.57 103.58 122.87 104.20 124.06 103.78 L 125.01 103.45 C 126.20 103.02 126.83 101.72 126.40 100.53 C 125.98 99.34 124.68 98.72 123.49 99.14 Z M 122.54 99.48 L 121.60 99.82 C 120.41 100.24 119.80 101.54 120.22 102.73 C 120.64 103.91 121.94 104.53 123.13 104.11 L 124.06 103.77 C 125.25 103.35 125.87 102.05 125.44 100.86 C 125.02 99.68 123.72 99.06 122.54 99.48 Z M 121.60 99.83 L 120.67 100.16 C 119.49 100.58 118.88 101.88 119.30 103.06 C 119.72 104.24 121.02 104.85 122.20 104.43 L 123.13 104.10 C 124.31 103.68 124.92 102.38 124.50 101.20 C 124.08 100.02 122.78 99.40 121.60 99.83 Z M 120.67 100.17 L 119.76 100.49 C 118.59 100.92 117.98 102.21 118.40 103.38 C 118.82 104.56 120.12 105.17 121.29 104.75 L 122.20 104.42 C 123.38 104.00 123.99 102.70 123.56 101.53 C 123.14 100.35 121.85 99.74 120.67 100.17 Z M 119.76 100.50 L 118.82 100.85 C 117.65 101.27 117.04 102.56 117.46 103.73 C 117.89 104.89 119.18 105.50 120.34 105.08 L 121.29 104.74 C 122.46 104.31 123.07 103.03 122.64 101.86 C 122.22 100.69 120.93 100.08 119.76 100.50 Z M 118.82 100.86 L 117.86 101.20 C 116.70 101.63 116.10 102.91 116.52 104.07 C 116.95 105.24 118.23 105.84 119.39 105.41 L 120.35 105.07 C 121.51 104.64 122.11 103.36 121.68 102.20 C 121.26 101.03 119.98 100.43 118.82 100.86 Z M 117.86 101.22 L 116.92 101.56 C 115.76 101.99 115.17 103.27 115.60 104.42 C 116.02 105.58 117.30 106.17 118.45 105.75 L 119.40 105.40 C 120.55 104.97 121.14 103.69 120.72 102.54 C 120.29 101.39 119.01 100.79 117.86 101.22 Z M 116.91 101.58 L 115.98 101.93 C 114.83 102.35 114.25 103.63 114.68 104.78 C 115.11 105.92 116.38 106.51 117.53 106.08 L 118.46 105.73 C 119.61 105.30 120.19 104.03 119.76 102.88 C 119.33 101.73 118.06 101.15 116.91 101.58 Z M 115.97 101.94 L 115.05 102.29 C 113.91 102.73 113.34 104.00 113.77 105.14 C 114.20 106.27 115.48 106.85 116.61 106.41 L 117.54 106.06 C 118.67 105.63 119.25 104.36 118.81 103.22 C 118.38 102.08 117.11 101.51 115.97 101.94 Z M 115.04 102.31 L 114.12 102.67 C 112.99 103.11 112.43 104.38 112.87 105.50 C 113.31 106.63 114.58 107.19 115.71 106.75 L 116.62 106.40 C 117.75 105.96 118.31 104.69 117.87 103.56 C 117.44 102.43 116.16 101.87 115.04 102.31 Z M 114.11 102.68 L 113.19 103.05 C 112.07 103.50 111.52 104.77 111.97 105.88 C 112.42 107.00 113.68 107.55 114.80 107.10 L 115.72 106.74 C 116.84 106.29 117.38 105.02 116.94 103.90 C 116.49 102.78 115.22 102.24 114.11 102.68 Z M 113.17 103.07 L 112.25 103.45 C 111.15 103.91 110.62 105.17 111.08 106.28 C 111.53 107.39 112.80 107.91 113.91 107.46 L 114.82 107.08 C 115.93 106.62 116.46 105.36 116.00 104.25 C 115.54 103.14 114.28 102.61 113.17 103.07 Z M 112.23 103.47 L 111.32 103.86 C 110.22 104.34 109.72 105.60 110.19 106.70 C 110.66 107.79 111.93 108.30 113.02 107.83 L 113.93 107.43 C 115.03 106.96 115.53 105.70 115.06 104.60 C 114.59 103.51 113.32 103.00 112.23 103.47 Z M 111.28 103.89 L 110.37 104.30 C 109.29 104.79 108.82 106.06 109.30 107.14 C 109.79 108.22 111.06 108.70 112.14 108.21 L 113.05 107.80 C 114.13 107.31 114.61 106.04 114.12 104.96 C 113.63 103.88 112.36 103.40 111.28 103.89 Z M 110.34 104.33 L 109.43 104.77 C 108.37 105.28 107.92 106.55 108.42 107.61 C 108.93 108.68 110.21 109.13 111.27 108.62 L 112.18 108.18 C 113.24 107.67 113.69 106.40 113.18 105.34 C 112.67 104.27 111.40 103.82 110.34 104.33 Z M 109.39 104.80 L 108.48 105.26 C 107.43 105.80 107.02 107.07 107.55 108.12 C 108.08 109.16 109.36 109.58 110.40 109.05 L 111.31 108.58 C 112.35 108.05 112.77 106.78 112.24 105.73 C 111.71 104.69 110.43 104.27 109.39 104.80 Z M 108.44 105.30 L 107.56 105.77 C 106.54 106.33 106.16 107.61 106.71 108.63 C 107.27 109.66 108.55 110.04 109.57 109.48 L 110.45 109.01 C 111.47 108.45 111.85 107.17 111.30 106.15 C 110.74 105.12 109.46 104.74 108.44 105.30 Z M 107.52 105.81 L 106.65 106.31 C 105.64 106.89 105.30 108.17 105.88 109.18 C 106.46 110.18 107.74 110.53 108.75 109.95 L 109.61 109.45 C 110.62 108.87 110.96 107.58 110.38 106.58 C 109.81 105.58 108.52 105.23 107.52 105.81 Z M 106.60 106.35 L 105.75 106.88 C 104.76 107.48 104.46 108.77 105.06 109.75 C 105.66 110.73 106.95 111.04 107.93 110.44 L 108.79 109.91 C 109.77 109.31 110.08 108.02 109.48 107.04 C 108.87 106.05 107.59 105.75 106.60 106.35 Z M 105.70 106.92 L 104.86 107.47 C 103.90 108.09 103.63 109.38 104.26 110.34 C 104.88 111.30 106.17 111.57 107.13 110.95 L 107.98 110.40 C 108.94 109.77 109.21 108.48 108.58 107.52 C 107.95 106.56 106.66 106.29 105.70 106.92 Z M 104.81 107.51 L 103.99 108.08 C 103.06 108.73 102.83 110.02 103.48 110.96 C 104.13 111.90 105.42 112.13 106.36 111.47 L 107.18 110.90 C 108.12 110.25 108.35 108.96 107.69 108.02 C 107.04 107.09 105.75 106.86 104.81 107.51 Z M 103.95 108.13 L 103.15 108.72 C 102.24 109.40 102.06 110.69 102.73 111.60 C 103.41 112.51 104.70 112.70 105.61 112.02 L 106.41 111.43 C 107.32 110.75 107.50 109.46 106.83 108.55 C 106.15 107.64 104.86 107.45 103.95 108.13 Z M 103.11 108.78 L 102.26 109.46 C 101.38 110.17 101.24 111.45 101.94 112.33 C 102.65 113.21 103.93 113.35 104.81 112.64 L 105.66 111.96 C 106.54 111.25 106.68 109.97 105.97 109.09 C 105.27 108.22 103.98 108.08 103.11 108.78 Z M 102.21 109.53 L 101.41 110.23 C 100.57 110.96 100.48 112.23 101.21 113.07 C 101.94 113.91 103.21 114.00 104.05 113.27 L 104.85 112.57 C 105.69 111.85 105.78 110.57 105.05 109.73 C 104.33 108.89 103.05 108.80 102.21 109.53 Z M 101.37 110.30 L 100.62 111.00 C 99.82 111.75 99.78 113.00 100.53 113.81 C 101.28 114.61 102.53 114.65 103.34 113.90 L 104.08 113.20 C 104.89 112.45 104.93 111.20 104.18 110.39 C 103.43 109.59 102.17 109.55 101.37 110.30 Z M 100.59 111.07 L 99.90 111.76 C 99.14 112.53 99.14 113.77 99.91 114.53 C 100.68 115.29 101.92 115.29 102.69 114.52 L 103.37 113.83 C 104.13 113.06 104.13 111.82 103.36 111.06 C 102.59 110.30 101.35 110.30 100.59 111.07 Z M 99.87 111.83 L 99.26 112.50 C 98.53 113.29 98.59 114.51 99.37 115.23 C 100.16 115.96 101.38 115.90 102.11 115.12 L 102.72 114.45 C 103.44 113.66 103.39 112.44 102.60 111.71 C 101.82 110.99 100.59 111.04 99.87 111.83 Z M 99.22 112.59 L 98.56 113.39 C 97.89 114.20 98.00 115.39 98.81 116.06 C 99.62 116.74 100.82 116.62 101.49 115.82 L 102.14 115.02 C 102.82 114.21 102.70 113.02 101.90 112.34 C 101.09 111.67 99.89 111.79 99.22 112.59 Z M 98.52 113.50 L 97.90 114.35 C 97.30 115.18 97.48 116.34 98.31 116.95 C 99.13 117.55 100.30 117.37 100.90 116.55 L 101.52 115.70 C 102.13 114.87 101.95 113.71 101.12 113.10 C 100.29 112.50 99.13 112.68 98.52 113.50 Z M 97.89 114.46 L 97.36 115.27 C 96.82 116.11 97.06 117.23 97.89 117.77 C 98.73 118.31 99.85 118.08 100.40 117.24 L 100.92 116.43 C 101.46 115.60 101.22 114.48 100.39 113.93 C 99.55 113.39 98.43 113.63 97.89 114.46 Z M 97.37 115.35 L 96.90 116.13 C 96.40 116.96 96.67 118.04 97.50 118.54 C 98.33 119.04 99.41 118.78 99.92 117.94 L 100.39 117.16 C 100.89 116.33 100.62 115.25 99.79 114.75 C 98.95 114.25 97.87 114.52 97.37 115.35 Z M 96.92 116.16 L 96.84 116.28 C 96.36 117.10 96.63 118.16 97.45 118.65 C 98.28 119.14 99.34 118.86 99.82 118.04 L 99.90 117.92 C 100.38 117.09 100.11 116.03 99.29 115.55 C 98.47 115.06 97.41 115.33 96.92 116.16 Z"
      fill="black"
      fill-rule="nonzero" /><path d="M 57.99 160.37 L 56.65 160.00 C 55.60 159.70 54.51 160.31 54.21 161.36 C 53.92 162.41 54.53 163.50 55.58 163.79 L 56.92 164.17 C 57.97 164.47 59.06 163.86 59.36 162.81 C 59.65 161.76 59.04 160.67 57.99 160.37 Z M 56.74 159.89 L 55.62 159.54 C 54.51 159.19 53.34 159.81 52.99 160.92 C 52.65 162.03 53.27 163.21 54.38 163.56 L 55.49 163.90 C 56.60 164.25 57.78 163.63 58.12 162.52 C 58.47 161.41 57.85 160.23 56.74 159.89 Z M 55.88 159.49 L 55.23 159.21 C 54.09 158.73 52.78 159.25 52.29 160.39 C 51.80 161.52 52.33 162.84 53.46 163.32 L 54.12 163.60 C 55.25 164.09 56.57 163.57 57.05 162.43 C 57.54 161.30 57.02 159.98 55.88 159.49 Z M 56.67 161.61 L 56.70 161.42 C 56.89 160.14 56.00 158.94 54.72 158.75 C 53.43 158.56 52.24 159.45 52.05 160.73 L 52.02 160.92 C 51.83 162.21 52.71 163.40 54.00 163.59 C 55.28 163.78 56.48 162.90 56.67 161.61 Z M 54.66 163.49 L 55.40 163.40 C 56.73 163.24 57.69 162.04 57.53 160.70 C 57.37 159.37 56.16 158.42 54.83 158.58 L 54.09 158.66 C 52.75 158.82 51.80 160.03 51.96 161.36 C 52.12 162.70 53.33 163.65 54.66 163.49 Z M 55.13 163.49 L 56.36 163.48 C 57.73 163.47 58.85 162.35 58.84 160.97 C 58.83 159.59 57.71 158.48 56.33 158.49 L 55.10 158.49 C 53.72 158.50 52.61 159.62 52.62 161.00 C 52.63 162.38 53.75 163.49 55.13 163.49 Z M 56.26 163.54 L 57.61 163.58 C 59.02 163.63 60.20 162.52 60.24 161.11 C 60.29 159.70 59.18 158.52 57.77 158.47 L 56.43 158.43 C 55.01 158.38 53.83 159.49 53.79 160.90 C 53.74 162.31 54.85 163.49 56.26 163.54 Z M 57.56 163.61 L 58.59 163.67 C 60.02 163.74 61.23 162.64 61.30 161.21 C 61.37 159.78 60.27 158.56 58.84 158.49 L 57.82 158.44 C 56.39 158.37 55.17 159.47 55.10 160.90 C 55.03 162.33 56.13 163.54 57.56 163.61 Z M 58.56 163.68 L 59.59 163.74 C 61.03 163.83 62.26 162.73 62.35 161.29 C 62.43 159.85 61.33 158.62 59.90 158.54 L 58.87 158.48 C 57.43 158.39 56.20 159.49 56.11 160.92 C 56.03 162.36 57.12 163.60 58.56 163.68 Z M 59.58 163.76 L 60.59 163.82 C 62.03 163.91 63.28 162.82 63.37 161.37 C 63.46 159.92 62.37 158.68 60.92 158.59 L 59.91 158.52 C 58.46 158.43 57.22 159.53 57.13 160.97 C 57.03 162.42 58.13 163.66 59.58 163.76 Z M 60.58 163.84 L 61.56 163.90 C 63.01 163.99 64.27 162.89 64.36 161.44 C 64.45 159.98 63.35 158.73 61.90 158.63 L 60.92 158.57 C 59.47 158.48 58.21 159.58 58.12 161.03 C 58.03 162.49 59.13 163.74 60.58 163.84 Z M 61.57 163.91 L 62.55 163.97 C 64.01 164.06 65.27 162.95 65.36 161.48 C 65.45 160.02 64.33 158.76 62.87 158.68 L 61.89 158.62 C 60.42 158.53 59.16 159.64 59.08 161.11 C 58.99 162.57 60.10 163.83 61.57 163.91 Z M 62.57 163.99 L 63.60 164.04 C 65.07 164.12 66.33 162.99 66.40 161.52 C 66.48 160.05 65.35 158.79 63.88 158.72 L 62.85 158.66 C 61.38 158.59 60.12 159.72 60.05 161.19 C 59.97 162.66 61.10 163.91 62.57 163.99 Z M 63.63 164.05 L 64.60 164.09 C 66.08 164.16 67.33 163.01 67.39 161.54 C 67.46 160.06 66.31 158.81 64.84 158.75 L 63.86 158.71 C 62.38 158.64 61.13 159.79 61.07 161.26 C 61.01 162.74 62.15 163.99 63.63 164.05 Z M 64.62 164.10 L 65.59 164.14 C 67.07 164.20 68.31 163.04 68.37 161.56 C 68.42 160.08 67.27 158.83 65.79 158.78 L 64.82 158.74 C 63.34 158.68 62.09 159.84 62.04 161.32 C 61.98 162.80 63.14 164.05 64.62 164.10 Z M 65.59 164.15 L 66.55 164.18 C 68.04 164.23 69.28 163.07 69.33 161.58 C 69.38 160.09 68.22 158.85 66.73 158.80 L 65.78 158.76 C 64.29 158.71 63.04 159.88 62.99 161.37 C 62.94 162.85 64.11 164.10 65.59 164.15 Z M 66.55 164.20 L 67.48 164.23 C 68.98 164.28 70.23 163.10 70.28 161.60 C 70.33 160.11 69.15 158.85 67.66 158.81 L 66.72 158.78 C 65.23 158.73 63.97 159.91 63.93 161.40 C 63.88 162.90 65.06 164.15 66.55 164.20 Z M 67.49 164.25 L 68.47 164.28 C 69.98 164.32 71.24 163.13 71.28 161.62 C 71.32 160.11 70.13 158.85 68.62 158.81 L 67.65 158.79 C 66.14 158.74 64.88 159.93 64.84 161.44 C 64.79 162.95 65.98 164.21 67.49 164.25 Z M 68.48 164.30 L 69.51 164.33 C 71.04 164.36 72.30 163.15 72.33 161.63 C 72.37 160.11 71.16 158.85 69.64 158.81 L 68.61 158.79 C 67.09 158.76 65.83 159.96 65.79 161.48 C 65.76 163.00 66.96 164.27 68.48 164.30 Z M 69.53 164.35 L 70.61 164.37 C 72.15 164.39 73.41 163.17 73.44 161.64 C 73.47 160.10 72.24 158.84 70.71 158.81 L 69.62 158.79 C 68.09 158.77 66.83 159.99 66.80 161.52 C 66.77 163.06 68.00 164.32 69.53 164.35 Z M 70.63 164.39 L 71.56 164.40 C 73.11 164.42 74.38 163.18 74.40 161.63 C 74.42 160.08 73.17 158.81 71.63 158.80 L 70.69 158.79 C 69.15 158.77 67.88 160.01 67.86 161.56 C 67.84 163.10 69.08 164.37 70.63 164.39 Z M 71.58 164.43 L 72.53 164.44 C 74.09 164.45 75.37 163.19 75.38 161.63 C 75.39 160.06 74.13 158.79 72.57 158.77 L 71.62 158.77 C 70.05 158.76 68.78 160.02 68.77 161.58 C 68.75 163.14 70.01 164.42 71.58 164.43 Z M 72.54 164.46 L 73.53 164.47 C 75.11 164.47 76.39 163.20 76.40 161.62 C 76.41 160.04 75.13 158.76 73.55 158.75 L 72.56 158.75 C 70.98 158.74 69.70 160.02 69.69 161.59 C 69.68 163.17 70.96 164.46 72.54 164.46 Z M 73.53 164.50 L 74.56 164.50 C 76.15 164.50 77.45 163.21 77.45 161.62 C 77.46 160.02 76.16 158.73 74.57 158.72 L 73.54 158.72 C 71.95 158.72 70.65 160.01 70.65 161.60 C 70.65 163.20 71.94 164.49 73.53 164.50 Z M 74.56 164.53 L 75.62 164.53 C 77.23 164.53 78.54 163.22 78.54 161.61 C 78.54 160.00 77.23 158.70 75.62 158.69 L 74.57 158.69 C 72.96 158.69 71.65 160.00 71.65 161.61 C 71.65 163.22 72.95 164.53 74.56 164.53 Z M 75.62 164.56 L 76.64 164.56 C 78.26 164.56 79.58 163.24 79.58 161.61 C 79.58 159.99 78.26 158.67 76.64 158.67 L 75.62 158.67 C 74.00 158.67 72.68 159.99 72.68 161.61 C 72.68 163.24 74.00 164.56 75.62 164.56 Z M 76.64 164.58 L 77.58 164.58 C 79.21 164.58 80.54 163.25 80.54 161.61 C 80.54 159.97 79.21 158.65 77.58 158.65 L 76.64 158.65 C 75.00 158.65 73.67 159.97 73.67 161.61 C 73.67 163.25 75.00 164.58 76.64 164.58 Z M 77.58 164.60 L 78.54 164.60 C 80.18 164.60 81.52 163.26 81.52 161.61 C 81.52 159.96 80.18 158.63 78.54 158.63 L 77.58 158.63 C 75.93 158.63 74.59 159.96 74.59 161.61 C 74.59 163.26 75.93 164.60 77.58 164.60 Z M 78.54 164.62 L 79.52 164.62 C 81.18 164.62 82.53 163.27 82.53 161.61 C 82.53 159.95 81.18 158.61 79.52 158.61 L 78.54 158.61 C 76.88 158.61 75.53 159.95 75.53 161.61 C 75.53 163.27 76.88 164.62 78.54 164.62 Z M 79.52 164.63 L 80.54 164.63 C 82.21 164.63 83.56 163.28 83.56 161.61 C 83.56 159.94 82.21 158.59 80.54 158.59 L 79.52 158.59 C 77.85 158.59 76.50 159.94 76.50 161.61 C 76.50 163.28 77.85 164.63 79.52 164.63 Z M 80.54 164.65 L 81.58 164.65 C 83.26 164.65 84.62 163.29 84.62 161.61 C 84.62 159.93 83.26 158.57 81.58 158.57 L 80.54 158.57 C 78.86 158.57 77.49 159.93 77.49 161.61 C 77.49 163.29 78.86 164.65 80.54 164.65 Z M 81.58 164.67 L 82.66 164.67 C 84.35 164.67 85.72 163.30 85.72 161.61 C 85.72 159.92 84.35 158.55 82.66 158.55 L 81.58 158.55 C 79.89 158.55 78.52 159.92 78.52 161.61 C 78.52 163.30 79.89 164.67 81.58 164.67 Z M 82.66 164.69 L 83.63 164.69 C 85.33 164.69 86.71 163.31 86.71 161.61 C 86.71 159.91 85.33 158.53 83.63 158.53 L 82.66 158.53 C 80.96 158.53 79.58 159.91 79.58 161.61 C 79.58 163.31 80.96 164.69 82.66 164.69 Z M 83.63 164.70 L 84.61 164.70 C 86.32 164.70 87.70 163.32 87.70 161.61 C 87.70 159.90 86.32 158.52 84.61 158.52 L 83.63 158.52 C 81.93 158.52 80.54 159.90 80.54 161.61 C 80.54 163.32 81.93 164.70 83.63 164.70 Z M 84.61 164.72 L 85.60 164.72 C 87.32 164.72 88.71 163.33 88.71 161.61 C 88.71 159.90 87.32 158.50 85.60 158.50 L 84.61 158.50 C 82.89 158.50 81.50 159.90 81.50 161.61 C 81.50 163.33 82.89 164.72 84.61 164.72 Z M 85.60 164.73 L 86.61 164.73 C 88.33 164.73 89.73 163.33 89.73 161.61 C 89.73 159.89 88.33 158.49 86.61 158.49 L 85.60 158.49 C 83.88 158.49 82.48 159.89 82.48 161.61 C 82.48 163.33 83.88 164.73 85.60 164.73 Z M 86.61 164.75 L 87.62 164.75 C 89.35 164.75 90.75 163.34 90.75 161.61 C 90.75 159.88 89.35 158.48 87.62 158.48 L 86.61 158.48 C 84.87 158.48 83.47 159.88 83.47 161.61 C 83.47 163.34 84.87 164.75 86.61 164.75 Z M 87.62 164.76 L 88.64 164.76 C 90.38 164.76 91.79 163.35 91.79 161.61 C 91.79 159.87 90.38 158.46 88.64 158.46 L 87.62 158.46 C 85.88 158.46 84.47 159.87 84.47 161.61 C 84.47 163.35 85.88 164.76 87.62 164.76 Z M 88.64 164.77 L 89.66 164.77 C 91.40 164.77 92.82 163.36 92.82 161.61 C 92.82 159.86 91.40 158.45 89.66 158.45 L 88.64 158.45 C 86.89 158.45 85.48 159.86 85.48 161.61 C 85.48 163.36 86.89 164.77 88.64 164.77 Z M 89.66 164.79 L 90.67 164.79 C 92.43 164.79 93.85 163.37 93.85 161.61 C 93.85 159.86 92.43 158.44 90.67 158.44 L 89.66 158.44 C 87.90 158.44 86.48 159.86 86.48 161.61 C 86.48 163.37 87.90 164.79 89.66 164.79 Z M 90.67 164.80 L 91.67 164.80 C 93.43 164.80 94.85 163.37 94.85 161.61 C 94.85 159.85 93.43 158.42 91.67 158.43 L 90.67 158.43 C 88.91 158.43 87.48 159.85 87.49 161.61 C 87.49 163.37 88.91 164.80 90.67 164.80 Z M 91.67 164.80 L 92.67 164.80 C 94.43 164.80 95.86 163.37 95.85 161.60 C 95.85 159.84 94.42 158.41 92.65 158.42 L 91.66 158.42 C 89.90 158.42 88.47 159.85 88.47 161.62 C 88.48 163.38 89.91 164.81 91.67 164.80 Z M 92.68 164.81 L 93.67 164.80 C 95.44 164.79 96.86 163.35 96.85 161.59 C 96.84 159.82 95.40 158.39 93.63 158.40 L 92.64 158.41 C 90.87 158.42 89.45 159.86 89.46 161.63 C 89.47 163.39 90.91 164.82 92.68 164.81 Z M 93.68 164.81 L 94.68 164.80 C 96.45 164.78 97.87 163.33 97.85 161.56 C 97.83 159.79 96.38 158.37 94.61 158.39 L 93.62 158.40 C 91.85 158.41 90.43 159.86 90.44 161.64 C 90.46 163.41 91.91 164.83 93.68 164.81 Z M 94.69 164.81 L 95.69 164.79 C 97.47 164.76 98.88 163.30 98.86 161.53 C 98.83 159.75 97.37 158.34 95.59 158.36 L 94.59 158.38 C 92.82 158.41 91.40 159.87 91.43 161.64 C 91.46 163.42 92.92 164.84 94.69 164.81 Z M 95.72 164.80 L 96.72 164.78 C 98.50 164.73 99.91 163.26 99.87 161.48 C 99.82 159.70 98.35 158.29 96.57 158.33 L 95.57 158.36 C 93.79 158.40 92.38 159.87 92.42 161.65 C 92.46 163.43 93.94 164.84 95.72 164.80 Z M 96.75 164.78 L 97.76 164.75 C 99.54 164.69 100.94 163.20 100.89 161.42 C 100.83 159.64 99.34 158.24 97.56 158.29 L 96.54 158.33 C 94.76 158.38 93.36 159.87 93.42 161.66 C 93.47 163.44 94.96 164.84 96.75 164.78 Z M 97.79 164.76 L 98.78 164.72 C 100.56 164.64 101.95 163.13 101.88 161.35 C 101.81 159.56 100.30 158.17 98.51 158.25 L 97.52 158.29 C 95.74 158.36 94.35 159.87 94.42 161.66 C 94.50 163.44 96.01 164.83 97.79 164.76 Z M 98.81 164.72 L 99.76 164.67 C 101.55 164.58 102.93 163.06 102.84 161.27 C 102.75 159.48 101.23 158.10 99.44 158.20 L 98.48 158.24 C 96.69 158.33 95.32 159.86 95.41 161.65 C 95.50 163.43 97.02 164.81 98.81 164.72 Z M 99.79 164.68 L 100.76 164.62 C 102.55 164.51 103.92 162.97 103.81 161.18 C 103.70 159.39 102.17 158.03 100.38 158.13 L 99.41 158.19 C 97.62 158.30 96.25 159.84 96.36 161.63 C 96.46 163.42 98.00 164.78 99.79 164.68 Z M 100.79 164.62 L 101.77 164.56 C 103.56 164.44 104.92 162.88 104.79 161.09 C 104.67 159.30 103.12 157.94 101.33 158.06 L 100.35 158.13 C 98.56 158.25 97.20 159.80 97.32 161.60 C 97.44 163.39 98.99 164.74 100.79 164.62 Z M 101.79 164.56 L 102.79 164.49 C 104.58 164.35 105.93 162.79 105.79 160.99 C 105.66 159.20 104.09 157.85 102.30 157.99 L 101.30 158.06 C 99.51 158.20 98.16 159.76 98.30 161.55 C 98.43 163.35 100.00 164.70 101.79 164.56 Z M 102.81 164.49 L 103.82 164.41 C 105.61 164.26 106.95 162.68 106.80 160.88 C 106.65 159.09 105.07 157.75 103.28 157.90 L 102.27 157.98 C 100.47 158.13 99.14 159.71 99.29 161.50 C 99.44 163.30 101.01 164.64 102.81 164.49 Z M 103.84 164.41 L 104.86 164.32 C 106.66 164.16 107.98 162.57 107.82 160.77 C 107.66 158.97 106.07 157.64 104.27 157.80 L 103.25 157.89 C 101.46 158.06 100.13 159.64 100.29 161.44 C 100.45 163.24 102.04 164.57 103.84 164.41 Z M 104.88 164.32 L 105.91 164.22 C 107.71 164.05 109.03 162.45 108.86 160.65 C 108.69 158.85 107.09 157.53 105.29 157.70 L 104.25 157.80 C 102.45 157.97 101.13 159.57 101.30 161.37 C 101.48 163.17 103.08 164.49 104.88 164.32 Z M 105.93 164.23 L 106.97 164.12 C 108.78 163.94 110.09 162.33 109.90 160.52 C 109.72 158.72 108.11 157.41 106.31 157.59 L 105.27 157.70 C 103.46 157.88 102.15 159.49 102.33 161.29 C 102.52 163.10 104.13 164.41 105.93 164.23 Z M 106.99 164.13 L 107.93 164.02 C 109.73 163.83 111.04 162.21 110.85 160.40 C 110.65 158.60 109.03 157.29 107.23 157.49 L 106.29 157.59 C 104.48 157.78 103.18 159.40 103.37 161.21 C 103.56 163.01 105.18 164.32 106.99 164.13 Z M 107.94 164.03 L 108.89 163.93 C 110.70 163.72 112.00 162.09 111.80 160.28 C 111.60 158.48 109.97 157.17 108.16 157.37 L 107.21 157.48 C 105.40 157.68 104.10 159.31 104.30 161.12 C 104.50 162.93 106.13 164.23 107.94 164.03 Z M 108.90 163.93 L 109.87 163.82 C 111.68 163.61 112.98 161.97 112.77 160.16 C 112.56 158.35 110.92 157.05 109.11 157.26 L 108.15 157.37 C 106.34 157.58 105.04 159.21 105.24 161.03 C 105.45 162.84 107.09 164.14 108.90 163.93 Z M 109.88 163.83 L 110.85 163.71 C 112.67 163.50 113.97 161.85 113.75 160.04 C 113.54 158.22 111.89 156.92 110.07 157.13 L 109.10 157.25 C 107.28 157.46 105.98 159.11 106.20 160.93 C 106.41 162.74 108.06 164.04 109.88 163.83 Z M 110.86 163.72 L 111.85 163.60 C 113.67 163.38 114.97 161.73 114.75 159.91 C 114.53 158.09 112.88 156.79 111.05 157.01 L 110.07 157.13 C 108.25 157.35 106.95 159.00 107.17 160.82 C 107.39 162.64 109.04 163.94 110.86 163.72 Z M 111.86 163.61 L 112.86 163.49 C 114.68 163.26 115.98 161.60 115.76 159.78 C 115.53 157.95 113.87 156.66 112.05 156.88 L 111.05 157.00 C 109.22 157.22 107.93 158.88 108.15 160.71 C 108.37 162.53 110.03 163.83 111.86 163.61 Z M 112.86 163.49 L 113.88 163.37 C 115.71 163.14 117.01 161.48 116.78 159.65 C 116.56 157.82 114.89 156.52 113.06 156.75 L 112.05 156.87 C 110.22 157.10 108.92 158.76 109.14 160.59 C 109.37 162.42 111.03 163.72 112.86 163.49 Z M 113.88 163.37 L 114.92 163.25 C 116.75 163.02 118.05 161.35 117.82 159.52 C 117.59 157.68 115.92 156.38 114.09 156.61 L 113.06 156.74 C 111.23 156.97 109.93 158.64 110.15 160.47 C 110.38 162.30 112.05 163.60 113.88 163.37 Z M 114.92 163.25 L 115.96 163.12 C 117.80 162.90 119.10 161.22 118.88 159.38 C 118.65 157.55 116.97 156.24 115.14 156.47 L 114.09 156.60 C 112.25 156.83 110.95 158.51 111.18 160.34 C 111.41 162.18 113.08 163.48 114.92 163.25 Z M 115.96 163.13 L 116.96 163.01 C 118.80 162.78 120.11 161.10 119.88 159.26 C 119.65 157.42 117.97 156.11 116.13 156.34 L 115.14 156.47 C 113.30 156.70 111.99 158.37 112.22 160.21 C 112.45 162.05 114.12 163.36 115.96 163.13 Z M 116.96 163.01 L 117.91 162.89 C 119.75 162.66 121.06 160.98 120.83 159.14 C 120.60 157.30 118.93 155.99 117.08 156.22 L 116.13 156.34 C 114.29 156.57 112.98 158.25 113.21 160.09 C 113.44 161.93 115.12 163.24 116.96 163.01 Z M 117.91 162.89 L 118.87 162.77 C 120.71 162.54 122.02 160.87 121.79 159.02 C 121.57 157.18 119.89 155.88 118.05 156.10 L 117.09 156.22 C 115.24 156.45 113.94 158.13 114.16 159.97 C 114.39 161.81 116.07 163.12 117.91 162.89 Z M 118.87 162.77 L 119.85 162.65 C 121.69 162.42 123.00 160.75 122.77 158.90 C 122.54 157.06 120.86 155.75 119.02 155.98 L 118.05 156.10 C 116.21 156.33 114.90 158.01 115.13 159.85 C 115.35 161.69 117.03 163.00 118.87 162.77 Z M 119.85 162.65 L 120.83 162.53 C 122.67 162.30 123.98 160.62 123.75 158.78 C 123.52 156.94 121.85 155.63 120.00 155.86 L 119.02 155.98 C 117.18 156.21 115.87 157.89 116.10 159.73 C 116.33 161.57 118.01 162.88 119.85 162.65 Z M 120.83 162.53 L 121.83 162.41 C 123.67 162.18 124.97 160.50 124.74 158.66 C 124.52 156.81 122.84 155.51 121.00 155.74 L 120.00 155.86 C 118.16 156.09 116.85 157.77 117.08 159.61 C 117.31 161.45 118.99 162.76 120.83 162.53 Z M 121.83 162.40 L 122.83 162.28 C 124.67 162.05 125.98 160.37 125.75 158.53 C 125.51 156.69 123.84 155.38 121.99 155.61 L 120.99 155.74 C 119.15 155.97 117.85 157.65 118.08 159.49 C 118.31 161.33 119.99 162.64 121.83 162.40 Z M 122.83 162.28 L 123.84 162.15 C 125.68 161.92 126.99 160.24 126.75 158.40 C 126.52 156.56 124.84 155.25 123.00 155.48 L 121.99 155.61 C 120.15 155.84 118.85 157.53 119.08 159.37 C 119.31 161.21 120.99 162.51 122.83 162.28 Z M 123.84 162.15 L 124.86 162.02 C 126.70 161.79 128.00 160.11 127.77 158.27 C 127.54 156.42 125.85 155.12 124.01 155.36 L 123.00 155.49 C 121.16 155.72 119.85 157.40 120.09 159.24 C 120.32 161.08 122.00 162.39 123.84 162.15 Z M 124.86 162.02 L 125.89 161.89 C 127.73 161.65 129.03 159.97 128.79 158.13 C 128.55 156.29 126.87 154.99 125.03 155.23 L 124.01 155.36 C 122.17 155.59 120.87 157.28 121.10 159.12 C 121.34 160.96 123.02 162.26 124.86 162.02 Z M 125.89 161.89 L 126.92 161.76 C 128.76 161.52 130.06 159.83 129.82 157.99 C 129.58 156.15 127.89 154.85 126.05 155.09 L 125.03 155.23 C 123.19 155.46 121.89 157.15 122.13 158.99 C 122.36 160.83 124.05 162.13 125.89 161.89 Z M 126.92 161.76 L 127.91 161.63 C 129.75 161.39 131.05 159.70 130.80 157.86 C 130.56 156.02 128.87 154.72 127.03 154.96 L 126.05 155.09 C 124.21 155.33 122.91 157.02 123.15 158.86 C 123.40 160.70 125.08 162.00 126.92 161.76 Z M 127.91 161.63 L 128.89 161.50 C 130.73 161.25 132.02 159.56 131.78 157.72 C 131.53 155.88 129.84 154.59 128.01 154.84 L 127.03 154.96 C 125.19 155.21 123.90 156.90 124.14 158.74 C 124.39 160.58 126.08 161.87 127.91 161.63 Z M 128.90 161.49 L 129.88 161.36 C 131.71 161.12 133.00 159.42 132.76 157.59 C 132.51 155.75 130.82 154.46 128.98 154.70 L 128.00 154.84 C 126.16 155.08 124.87 156.77 125.12 158.61 C 125.37 160.45 127.06 161.74 128.90 161.49 Z M 129.88 161.36 L 130.86 161.23 C 132.70 160.98 133.99 159.29 133.74 157.45 C 133.49 155.61 131.80 154.32 129.96 154.57 L 128.98 154.71 C 127.14 154.96 125.85 156.65 126.10 158.49 C 126.35 160.32 128.04 161.61 129.88 161.36 Z M 130.87 161.23 L 131.86 161.09 C 133.69 160.84 134.98 159.14 134.72 157.31 C 134.47 155.47 132.78 154.19 130.94 154.44 L 129.95 154.57 C 128.12 154.83 126.83 156.52 127.09 158.36 C 127.34 160.19 129.03 161.48 130.87 161.23 Z M 131.86 161.09 L 132.85 160.95 C 134.69 160.70 135.97 159.00 135.71 157.16 C 135.46 155.33 133.76 154.05 131.92 154.30 L 130.94 154.44 C 129.10 154.70 127.82 156.39 128.07 158.23 C 128.33 160.06 130.02 161.34 131.86 161.09 Z M 132.86 160.95 L 133.85 160.81 C 135.68 160.55 136.96 158.85 136.70 157.02 C 136.45 155.18 134.75 153.91 132.91 154.16 L 131.92 154.30 C 130.08 154.56 128.81 156.26 129.06 158.09 C 129.32 159.93 131.02 161.21 132.86 160.95 Z M 133.85 160.81 L 134.85 160.67 C 136.68 160.40 137.96 158.71 137.70 156.87 C 137.44 155.04 135.74 153.76 133.90 154.02 L 132.91 154.17 C 131.07 154.43 129.80 156.13 130.06 157.96 C 130.32 159.79 132.02 161.07 133.85 160.81 Z M 134.85 160.66 L 135.85 160.52 C 137.69 160.26 138.96 158.56 138.69 156.72 C 138.43 154.89 136.73 153.62 134.90 153.88 L 133.90 154.02 C 132.06 154.29 130.79 155.99 131.06 157.82 C 131.32 159.66 133.02 160.93 134.85 160.66 Z M 135.86 160.52 L 136.86 160.37 C 138.69 160.11 139.96 158.40 139.69 156.57 C 139.43 154.74 137.72 153.47 135.89 153.74 L 134.89 153.88 C 133.06 154.15 131.79 155.85 132.06 157.68 C 132.32 159.52 134.03 160.79 135.86 160.52 Z M 136.86 160.37 L 137.87 160.22 C 139.70 159.95 140.97 158.25 140.70 156.42 C 140.43 154.59 138.72 153.32 136.89 153.59 L 135.89 153.74 C 134.05 154.01 132.79 155.71 133.06 157.54 C 133.33 159.38 135.03 160.64 136.86 160.37 Z M 137.87 160.22 L 138.88 160.07 C 140.71 159.80 141.98 158.09 141.70 156.26 C 141.43 154.43 139.73 153.17 137.90 153.44 L 136.88 153.59 C 135.05 153.87 133.79 155.57 134.06 157.40 C 134.34 159.23 136.04 160.50 137.87 160.22 Z M 138.89 160.07 L 139.91 159.91 C 141.74 159.64 143.00 157.93 142.73 156.10 C 142.45 154.27 140.74 153.01 138.91 153.29 L 137.89 153.44 C 136.06 153.72 134.80 155.43 135.08 157.26 C 135.35 159.09 137.06 160.35 138.89 160.07 Z M 139.92 159.91 L 140.94 159.76 C 142.77 159.48 144.03 157.77 143.75 155.94 C 143.47 154.11 141.76 152.86 139.93 153.14 L 138.91 153.29 C 137.08 153.57 135.82 155.28 136.10 157.11 C 136.38 158.94 138.09 160.19 139.92 159.91 Z M 140.95 159.75 L 141.97 159.60 C 143.79 159.31 145.05 157.61 144.76 155.78 C 144.48 153.95 142.77 152.70 140.95 152.98 L 139.93 153.14 C 138.10 153.42 136.85 155.13 137.13 156.96 C 137.41 158.78 139.12 160.04 140.95 159.75 Z M 141.97 159.59 L 142.99 159.44 C 144.81 159.15 146.06 157.44 145.78 155.62 C 145.49 153.79 143.78 152.54 141.96 152.83 L 140.94 152.98 C 139.12 153.27 137.87 154.98 138.15 156.80 C 138.44 158.63 140.15 159.88 141.97 159.59 Z M 142.99 159.43 L 144.00 159.27 C 145.82 158.99 147.07 157.28 146.78 155.45 C 146.49 153.63 144.78 152.38 142.96 152.67 L 141.95 152.83 C 140.13 153.12 138.88 154.83 139.17 156.65 C 139.46 158.47 141.17 159.72 142.99 159.43 Z M 144.00 159.27 L 145.00 159.11 C 146.82 158.82 148.07 157.11 147.78 155.29 C 147.49 153.47 145.77 152.22 143.95 152.51 L 142.95 152.67 C 141.13 152.96 139.89 154.67 140.18 156.50 C 140.47 158.32 142.18 159.56 144.00 159.27 Z M 145.01 159.11 L 145.99 158.95 C 147.81 158.66 149.05 156.95 148.76 155.12 C 148.47 153.30 146.75 152.06 144.93 152.36 L 143.94 152.52 C 142.12 152.81 140.88 154.52 141.18 156.34 C 141.47 158.17 143.18 159.40 145.01 159.11 Z M 146.00 158.95 L 146.97 158.79 C 148.79 158.50 150.02 156.78 149.73 154.96 C 149.43 153.14 147.72 151.91 145.90 152.20 L 144.92 152.36 C 143.10 152.66 141.87 154.37 142.16 156.19 C 142.46 158.01 144.18 159.25 146.00 158.95 Z M 146.97 158.79 L 147.93 158.63 C 149.75 158.33 150.98 156.62 150.68 154.80 C 150.38 152.98 148.66 151.75 146.84 152.05 L 145.89 152.20 C 144.07 152.50 142.84 154.22 143.14 156.04 C 143.44 157.86 145.15 159.09 146.97 158.79 Z M 147.93 158.63 L 148.87 158.47 C 150.69 158.17 151.91 156.46 151.61 154.64 C 151.31 152.82 149.59 151.59 147.78 151.89 L 146.84 152.05 C 145.02 152.35 143.79 154.07 144.10 155.89 C 144.40 157.70 146.12 158.93 147.93 158.63 Z M 148.87 158.47 L 149.80 158.32 C 151.62 158.01 152.84 156.29 152.54 154.48 C 152.23 152.66 150.51 151.44 148.70 151.74 L 147.77 151.90 C 145.95 152.20 144.73 153.92 145.03 155.74 C 145.34 157.55 147.06 158.78 148.87 158.47 Z M 149.81 158.31 L 150.87 158.13 C 152.68 157.82 153.90 156.10 153.59 154.29 C 153.29 152.48 151.57 151.26 149.75 151.56 L 148.69 151.75 C 146.88 152.05 145.66 153.77 145.96 155.59 C 146.27 157.40 147.99 158.62 149.81 158.31 Z M 150.88 158.13 L 151.91 157.95 C 153.72 157.64 154.94 155.92 154.62 154.11 C 154.31 152.29 152.59 151.08 150.78 151.39 L 149.75 151.57 C 147.94 151.88 146.72 153.60 147.03 155.41 C 147.34 157.22 149.07 158.44 150.88 158.13 Z M 151.92 157.94 L 152.93 157.77 C 154.73 157.45 155.94 155.73 155.63 153.92 C 155.31 152.12 153.59 150.91 151.79 151.22 L 150.78 151.40 C 148.97 151.71 147.76 153.43 148.07 155.24 C 148.39 157.05 150.11 158.26 151.92 157.94 Z M 152.93 157.76 L 153.92 157.59 C 155.72 157.27 156.93 155.55 156.61 153.75 C 156.30 151.94 154.58 150.73 152.77 151.05 L 151.78 151.23 C 149.98 151.54 148.77 153.26 149.09 155.07 C 149.40 156.87 151.12 158.08 152.93 157.76 Z M 153.92 157.58 L 154.90 157.41 C 156.70 157.09 157.90 155.37 157.58 153.57 C 157.26 151.77 155.54 150.56 153.74 150.88 L 152.77 151.06 C 150.96 151.38 149.76 153.10 150.08 154.90 C 150.40 156.70 152.12 157.90 153.92 157.58 Z M 154.90 157.41 L 155.86 157.24 C 157.66 156.92 158.86 155.20 158.54 153.40 C 158.22 151.60 156.50 150.40 154.70 150.72 L 153.74 150.89 C 151.94 151.21 150.74 152.93 151.06 154.73 C 151.38 156.53 153.10 157.73 154.90 157.41 Z M 155.86 157.23 L 156.81 157.06 C 158.61 156.74 159.81 155.02 159.48 153.23 C 159.16 151.43 157.45 150.23 155.65 150.55 L 154.70 150.72 C 152.90 151.04 151.70 152.76 152.02 154.56 C 152.34 156.36 154.06 157.55 155.86 157.23 Z M 156.81 157.06 L 157.76 156.89 C 159.55 156.57 160.75 154.85 160.43 153.06 C 160.11 151.26 158.39 150.07 156.59 150.39 L 155.65 150.56 C 153.85 150.88 152.66 152.59 152.98 154.39 C 153.30 156.18 155.01 157.38 156.81 157.06 Z M 157.75 156.89 L 158.70 156.72 C 160.49 156.40 161.69 154.68 161.37 152.89 C 161.05 151.10 159.33 149.90 157.54 150.22 L 156.60 150.39 C 154.80 150.71 153.61 152.42 153.93 154.22 C 154.25 156.01 155.96 157.21 157.75 156.89 Z M 158.70 156.71 L 159.66 156.54 C 161.45 156.23 162.64 154.52 162.32 152.72 C 162.01 150.93 160.30 149.74 158.50 150.05 L 157.54 150.23 C 155.75 150.54 154.56 152.25 154.87 154.05 C 155.19 155.84 156.90 157.03 158.70 156.71 Z M 159.65 156.54 L 160.62 156.37 C 162.41 156.05 163.61 154.34 163.29 152.56 C 162.98 150.77 161.27 149.57 159.48 149.89 L 158.51 150.06 C 156.72 150.38 155.52 152.08 155.84 153.87 C 156.16 155.66 157.86 156.86 159.65 156.54 Z M 160.62 156.36 L 161.60 156.19 C 163.38 155.88 164.58 154.17 164.26 152.39 C 163.95 150.60 162.25 149.41 160.46 149.72 L 159.48 149.89 C 157.70 150.21 156.50 151.91 156.82 153.70 C 157.13 155.48 158.83 156.68 160.62 156.36 Z M 161.59 156.19 L 162.57 156.02 C 164.36 155.70 165.55 154.01 165.24 152.22 C 164.93 150.44 163.23 149.24 161.44 149.56 L 160.46 149.73 C 158.68 150.04 157.49 151.74 157.80 153.52 C 158.11 155.30 159.81 156.50 161.59 156.19 Z M 162.57 156.01 L 163.55 155.84 C 165.33 155.53 166.53 153.84 166.22 152.06 C 165.91 150.28 164.21 149.08 162.43 149.39 L 161.45 149.56 C 159.67 149.87 158.47 151.56 158.78 153.34 C 159.09 155.12 160.79 156.32 162.57 156.01 Z M 163.54 155.84 L 164.53 155.67 C 166.31 155.36 167.51 153.67 167.20 151.89 C 166.89 150.11 165.21 148.92 163.43 149.23 L 162.44 149.40 C 160.66 149.70 159.47 151.39 159.77 153.17 C 160.08 154.95 161.77 156.14 163.54 155.84 Z M 164.53 155.66 L 165.52 155.49 C 167.29 155.19 168.49 153.51 168.19 151.73 C 167.89 149.95 166.20 148.76 164.43 149.06 L 163.43 149.23 C 161.66 149.53 160.46 151.22 160.77 152.99 C 161.07 154.77 162.75 155.96 164.53 155.66 Z M 165.51 155.49 L 166.51 155.32 C 168.28 155.02 169.48 153.34 169.18 151.57 C 168.88 149.80 167.20 148.60 165.43 148.90 L 164.43 149.07 C 162.66 149.36 161.46 151.04 161.76 152.82 C 162.06 154.59 163.74 155.79 165.51 155.49 Z M 166.50 155.31 L 167.50 155.15 C 169.27 154.85 170.47 153.18 170.17 151.41 C 169.88 149.64 168.20 148.44 166.43 148.74 L 165.43 148.90 C 163.66 149.20 162.47 150.87 162.76 152.64 C 163.06 154.41 164.73 155.61 166.50 155.31 Z M 167.49 155.14 L 168.49 154.98 C 170.26 154.69 171.45 153.02 171.16 151.25 C 170.87 149.49 169.20 148.29 167.44 148.58 L 166.44 148.74 C 164.67 149.03 163.48 150.70 163.77 152.47 C 164.06 154.24 165.73 155.43 167.49 155.14 Z M 168.48 154.97 L 169.47 154.81 C 171.23 154.52 172.43 152.86 172.14 151.10 C 171.86 149.34 170.20 148.14 168.43 148.43 L 167.44 148.59 C 165.68 148.87 164.48 150.54 164.77 152.30 C 165.06 154.06 166.72 155.26 168.48 154.97 Z M 169.46 154.80 L 170.46 154.64 C 172.21 154.36 173.41 152.70 173.13 150.95 C 172.84 149.19 171.19 148.00 169.43 148.28 L 168.44 148.44 C 166.68 148.72 165.49 150.37 165.77 152.13 C 166.05 153.89 167.71 155.08 169.46 154.80 Z M 170.45 154.63 L 171.44 154.47 C 173.19 154.19 174.39 152.55 174.11 150.80 C 173.83 149.05 172.18 147.85 170.43 148.13 L 169.44 148.29 C 167.69 148.57 166.50 150.21 166.77 151.96 C 167.05 153.71 168.70 154.91 170.45 154.63 Z M 171.43 154.46 L 172.43 154.30 C 174.17 154.03 175.36 152.39 175.09 150.65 C 174.81 148.90 173.18 147.71 171.43 147.98 L 170.44 148.14 C 168.69 148.42 167.50 150.05 167.78 151.80 C 168.05 153.54 169.69 154.74 171.43 154.46 Z M 172.42 154.29 L 173.41 154.14 C 175.15 153.87 176.34 152.24 176.07 150.50 C 175.80 148.76 174.17 147.57 172.43 147.84 L 171.44 147.99 C 169.70 148.27 168.51 149.90 168.78 151.64 C 169.05 153.38 170.68 154.57 172.42 154.29 Z M 173.41 154.13 L 174.40 153.97 C 176.13 153.71 177.32 152.08 177.05 150.35 C 176.78 148.62 175.16 147.43 173.42 147.70 L 172.43 147.85 C 170.70 148.12 169.51 149.74 169.78 151.48 C 170.05 153.21 171.67 154.40 173.41 154.13 Z M 174.39 153.96 L 175.38 153.81 C 177.10 153.55 178.29 151.93 178.02 150.20 C 177.76 148.47 176.14 147.29 174.41 147.56 L 173.43 147.71 C 171.70 147.97 170.51 149.59 170.78 151.32 C 171.05 153.05 172.66 154.23 174.39 153.96 Z M 175.37 153.80 L 176.35 153.65 C 178.08 153.39 179.26 151.78 178.99 150.06 C 178.73 148.33 177.12 147.15 175.40 147.42 L 174.42 147.57 C 172.70 147.83 171.51 149.44 171.78 151.16 C 172.04 152.88 173.65 154.07 175.37 153.80 Z M 176.35 153.64 L 177.33 153.49 C 179.04 153.23 180.22 151.63 179.96 149.91 C 179.70 148.20 178.10 147.02 176.38 147.28 L 175.40 147.43 C 173.69 147.69 172.51 149.29 172.77 151.01 C 173.03 152.72 174.63 153.90 176.35 153.64 Z M 177.32 153.48 L 178.36 153.32 C 180.07 153.06 181.24 151.47 180.98 149.76 C 180.72 148.05 179.13 146.87 177.42 147.13 L 176.38 147.29 C 174.68 147.55 173.50 149.15 173.76 150.85 C 174.02 152.56 175.62 153.74 177.32 153.48 Z M 178.36 153.31 L 179.38 153.15 C 181.08 152.89 182.25 151.31 182.00 149.61 C 181.74 147.91 180.15 146.74 178.45 146.99 L 177.42 147.15 C 175.72 147.41 174.55 148.99 174.81 150.69 C 175.07 152.39 176.65 153.56 178.36 153.31 Z M 179.38 153.14 L 180.39 152.98 C 182.09 152.73 183.25 151.15 183.00 149.46 C 182.74 147.77 181.16 146.60 179.47 146.85 L 178.45 147.01 C 176.76 147.26 175.60 148.84 175.85 150.53 C 176.11 152.23 177.69 153.39 179.38 153.14 Z M 180.39 152.97 L 181.40 152.82 C 183.08 152.56 184.24 150.99 183.99 149.31 C 183.74 147.63 182.16 146.47 180.48 146.72 L 179.48 146.87 C 177.79 147.12 176.63 148.69 176.88 150.38 C 177.14 152.06 178.71 153.22 180.39 152.97 Z M 181.39 152.80 L 182.38 152.65 C 184.06 152.40 185.22 150.84 184.97 149.17 C 184.71 147.49 183.15 146.33 181.48 146.59 L 180.48 146.73 C 178.81 146.98 177.65 148.55 177.90 150.22 C 178.15 151.90 179.72 153.05 181.39 152.80 Z M 182.38 152.64 L 183.36 152.49 C 185.03 152.25 186.18 150.69 185.93 149.02 C 185.68 147.36 184.13 146.21 182.46 146.45 L 181.48 146.60 C 179.81 146.85 178.66 148.40 178.91 150.07 C 179.16 151.74 180.71 152.89 182.38 152.64 Z M 183.35 152.48 L 184.32 152.34 C 185.98 152.09 187.12 150.54 186.87 148.88 C 186.63 147.23 185.08 146.08 183.42 146.33 L 182.46 146.47 C 180.80 146.72 179.66 148.26 179.90 149.92 C 180.15 151.58 181.69 152.73 183.35 152.48 Z M 184.31 152.32 L 185.26 152.18 C 186.91 151.94 188.05 150.40 187.80 148.75 C 187.56 147.10 186.02 145.96 184.37 146.20 L 183.43 146.34 C 181.77 146.59 180.63 148.12 180.88 149.77 C 181.12 151.43 182.66 152.57 184.31 152.32 Z M 185.25 152.17 L 186.21 152.02 C 187.86 151.78 188.99 150.25 188.75 148.61 C 188.51 146.97 186.98 145.83 185.34 146.07 L 184.37 146.22 C 182.73 146.46 181.59 147.99 181.84 149.63 C 182.08 151.27 183.61 152.41 185.25 152.17 Z M 186.21 152.01 L 187.27 151.85 C 188.90 151.61 190.03 150.09 189.79 148.46 C 189.55 146.82 188.03 145.70 186.40 145.94 L 185.34 146.09 C 183.71 146.33 182.58 147.85 182.82 149.49 C 183.06 151.12 184.58 152.25 186.21 152.01 Z M 187.27 151.83 L 188.30 151.68 C 189.92 151.44 191.04 149.93 190.81 148.31 C 190.57 146.69 189.06 145.57 187.44 145.80 L 186.40 145.96 C 184.78 146.19 183.66 147.70 183.90 149.33 C 184.14 150.95 185.65 152.07 187.27 151.83 Z M 188.30 151.66 L 189.31 151.51 C 190.92 151.27 192.03 149.77 191.79 148.16 C 191.56 146.55 190.06 145.44 188.45 145.68 L 187.44 145.82 C 185.83 146.06 184.71 147.56 184.95 149.17 C 185.19 150.78 186.69 151.90 188.30 151.66 Z M 189.31 151.49 L 190.29 151.34 C 191.89 151.11 193.00 149.62 192.76 148.02 C 192.52 146.42 191.03 145.31 189.43 145.55 L 188.45 145.70 C 186.85 145.93 185.74 147.42 185.98 149.02 C 186.22 150.62 187.71 151.73 189.31 151.49 Z M 190.29 151.32 L 191.26 151.18 C 192.84 150.94 193.94 149.46 193.70 147.87 C 193.46 146.28 191.98 145.19 190.40 145.43 L 189.43 145.57 C 187.84 145.81 186.75 147.29 186.99 148.88 C 187.22 150.46 188.70 151.56 190.29 151.32 Z M 191.26 151.16 L 192.20 151.01 C 193.78 150.78 194.86 149.30 194.62 147.73 C 194.39 146.15 192.91 145.07 191.34 145.30 L 190.39 145.45 C 188.82 145.69 187.73 147.16 187.97 148.73 C 188.21 150.31 189.68 151.40 191.26 151.16 Z M 192.20 150.99 L 193.13 150.85 C 194.69 150.61 195.77 149.15 195.53 147.58 C 195.29 146.02 193.82 144.94 192.26 145.18 L 191.33 145.32 C 189.77 145.57 188.69 147.03 188.93 148.59 C 189.17 150.16 190.64 151.23 192.20 150.99 Z M 193.13 150.83 L 194.19 150.66 C 195.75 150.42 196.81 148.96 196.56 147.41 C 196.32 145.86 194.87 144.80 193.32 145.04 L 192.25 145.21 C 190.70 145.45 189.64 146.90 189.88 148.46 C 190.13 150.01 191.58 151.07 193.13 150.83 Z M 194.20 150.63 L 195.27 150.46 C 196.81 150.22 197.85 148.78 197.61 147.24 C 197.37 145.71 195.92 144.66 194.39 144.90 L 193.31 145.07 C 191.78 145.32 190.73 146.76 190.98 148.29 C 191.22 149.83 192.66 150.87 194.20 150.63 Z M 195.27 150.43 L 196.31 150.26 C 197.82 150.02 198.86 148.59 198.62 147.08 C 198.37 145.56 196.95 144.53 195.43 144.77 L 194.39 144.93 C 192.87 145.18 191.84 146.60 192.08 148.12 C 192.32 149.64 193.75 150.67 195.27 150.43 Z M 196.30 150.23 L 197.29 150.08 C 198.79 149.84 199.81 148.43 199.57 146.93 C 199.34 145.42 197.92 144.40 196.42 144.64 L 195.43 144.80 C 193.93 145.04 192.91 146.45 193.15 147.95 C 193.39 149.45 194.80 150.47 196.30 150.23 Z M 197.28 150.05 L 198.21 149.90 C 199.70 149.67 200.71 148.27 200.48 146.79 C 200.25 145.30 198.85 144.29 197.37 144.52 L 196.43 144.67 C 194.95 144.90 193.93 146.30 194.17 147.78 C 194.40 149.27 195.79 150.28 197.28 150.05 Z M 198.20 149.87 L 199.07 149.74 C 200.54 149.52 201.54 148.14 201.32 146.67 C 201.10 145.20 199.72 144.19 198.26 144.42 L 197.38 144.55 C 195.92 144.78 194.91 146.15 195.13 147.62 C 195.35 149.09 196.73 150.10 198.20 149.87 Z M 199.04 149.71 L 200.10 149.56 C 201.55 149.35 202.56 148.00 202.35 146.55 C 202.14 145.10 200.80 144.09 199.35 144.30 L 198.28 144.45 C 196.83 144.66 195.82 146.00 196.03 147.46 C 196.24 148.91 197.59 149.92 199.04 149.71 Z M 200.06 149.52 L 201.13 149.38 C 202.56 149.20 203.57 147.88 203.38 146.45 C 203.20 145.02 201.89 144.01 200.45 144.19 L 199.39 144.33 C 197.95 144.52 196.94 145.83 197.13 147.26 C 197.31 148.70 198.63 149.71 200.06 149.52 Z M 201.08 149.35 L 202.03 149.24 C 203.45 149.08 204.46 147.81 204.30 146.39 C 204.14 144.98 202.87 143.96 201.46 144.12 L 200.50 144.23 C 199.09 144.39 198.07 145.66 198.23 147.08 C 198.39 148.49 199.66 149.51 201.08 149.35 Z M 201.98 149.20 L 202.86 149.12 C 204.25 148.99 205.28 147.75 205.15 146.36 C 205.02 144.97 203.78 143.94 202.39 144.08 L 201.51 144.16 C 200.11 144.29 199.09 145.52 199.22 146.92 C 199.35 148.31 200.59 149.33 201.98 149.20 Z M 202.81 149.08 L 203.71 149.01 C 205.08 148.91 206.11 147.72 206.01 146.34 C 205.90 144.97 204.71 143.94 203.34 144.05 L 202.44 144.11 C 201.07 144.22 200.04 145.41 200.14 146.78 C 200.24 148.16 201.44 149.18 202.81 149.08 Z M 203.66 148.97 L 204.59 148.92 C 205.94 148.84 206.98 147.69 206.90 146.34 C 206.83 145.00 205.67 143.96 204.33 144.04 L 203.39 144.09 C 202.04 144.16 201.01 145.32 201.08 146.66 C 201.16 148.01 202.31 149.05 203.66 148.97 Z M 204.55 148.87 L 205.55 148.84 C 206.87 148.79 207.90 147.68 207.86 146.36 C 207.81 145.03 206.70 144.00 205.37 144.05 L 204.37 144.08 C 203.05 144.13 202.02 145.24 202.06 146.57 C 202.11 147.89 203.22 148.92 204.55 148.87 Z M 205.51 148.79 L 206.61 148.77 C 207.91 148.74 208.94 147.67 208.92 146.37 C 208.89 145.07 207.81 144.04 206.52 144.07 L 205.41 144.09 C 204.11 144.12 203.08 145.19 203.11 146.49 C 203.14 147.79 204.21 148.82 205.51 148.79 Z M 206.59 148.74 L 207.53 148.73 C 208.81 148.72 209.84 147.67 209.83 146.39 C 209.81 145.10 208.76 144.08 207.48 144.09 L 206.54 144.10 C 205.26 144.11 204.23 145.16 204.24 146.44 C 204.25 147.73 205.30 148.75 206.59 148.74 Z M 207.50 148.72 L 208.50 148.72 C 209.77 148.73 210.81 147.70 210.82 146.42 C 210.82 145.15 209.79 144.11 208.52 144.10 L 207.51 144.10 C 206.24 144.10 205.20 145.13 205.20 146.40 C 205.19 147.68 206.22 148.71 207.50 148.72 Z M 208.45 148.71 L 209.49 148.73 C 210.75 148.76 211.80 147.76 211.83 146.49 C 211.86 145.22 210.86 144.17 209.59 144.14 L 208.56 144.12 C 207.29 144.09 206.24 145.09 206.21 146.36 C 206.18 147.63 207.19 148.68 208.45 148.71 Z M 209.42 148.72 L 210.45 148.77 C 211.71 148.83 212.78 147.86 212.85 146.60 C 212.91 145.34 211.94 144.27 210.68 144.21 L 209.65 144.16 C 208.39 144.10 207.32 145.06 207.26 146.32 C 207.20 147.58 208.17 148.65 209.42 148.72 Z M 210.37 148.75 L 211.41 148.84 C 212.65 148.95 213.75 148.03 213.86 146.78 C 213.97 145.53 213.05 144.43 211.80 144.32 L 210.77 144.23 C 209.52 144.12 208.42 145.04 208.31 146.29 C 208.20 147.54 209.12 148.64 210.37 148.75 Z M 211.27 148.80 L 212.38 148.97 C 213.61 149.15 214.75 148.31 214.94 147.08 C 215.12 145.85 214.28 144.71 213.05 144.53 L 211.94 144.36 C 210.71 144.18 209.57 145.02 209.38 146.25 C 209.20 147.47 210.04 148.62 211.27 148.80 Z M 212.17 148.90 L 213.16 149.15 C 214.35 149.45 215.55 148.74 215.86 147.55 C 216.16 146.36 215.44 145.15 214.25 144.85 L 213.26 144.60 C 212.08 144.29 210.87 145.01 210.57 146.20 C 210.26 147.39 210.98 148.60 212.17 148.90 Z M 212.85 149.02 L 213.69 149.38 C 214.81 149.85 216.10 149.33 216.57 148.22 C 217.04 147.10 216.52 145.82 215.41 145.34 L 214.56 144.98 C 213.45 144.51 212.16 145.03 211.69 146.14 C 211.22 147.26 211.73 148.54 212.85 149.02 Z M 213.26 149.10 L 214.00 149.65 C 214.96 150.36 216.32 150.16 217.03 149.20 C 217.75 148.25 217.55 146.89 216.59 146.17 L 215.84 145.62 C 214.89 144.91 213.53 145.11 212.81 146.07 C 212.10 147.03 212.30 148.38 213.26 149.10 Z M 213.50 149.08 L 214.08 149.97 C 214.72 150.96 216.05 151.24 217.04 150.60 C 218.03 149.95 218.31 148.63 217.67 147.64 L 217.09 146.75 C 216.44 145.76 215.12 145.47 214.13 146.12 C 213.14 146.76 212.86 148.09 213.50 149.08 Z M 213.77 148.98 L 213.84 149.89 C 213.94 151.06 214.96 151.92 216.13 151.82 C 217.29 151.73 218.15 150.71 218.06 149.54 L 217.98 148.63 C 217.88 147.46 216.86 146.60 215.70 146.70 C 214.53 146.79 213.67 147.82 213.77 148.98 Z M 214.19 148.60 L 213.77 149.26 C 213.15 150.23 213.44 151.51 214.41 152.13 C 215.38 152.75 216.66 152.47 217.28 151.50 L 217.70 150.84 C 218.32 149.87 218.04 148.58 217.07 147.96 C 216.10 147.34 214.81 147.63 214.19 148.60 Z M 214.53 148.59 L 213.81 148.99 C 212.82 149.54 212.47 150.79 213.02 151.77 C 213.57 152.76 214.81 153.12 215.80 152.57 L 216.52 152.16 C 217.51 151.62 217.86 150.37 217.31 149.39 C 216.77 148.40 215.52 148.04 214.53 148.59 Z M 214.28 148.85 L 213.29 149.12 C 212.22 149.41 211.59 150.51 211.88 151.57 C 212.17 152.64 213.27 153.27 214.33 152.98 L 215.33 152.71 C 216.39 152.42 217.02 151.32 216.73 150.26 C 216.45 149.19 215.35 148.56 214.28 148.85 Z M 213.56 149.11 L 212.36 149.27 C 211.29 149.41 210.53 150.39 210.67 151.46 C 210.81 152.53 211.80 153.29 212.87 153.15 L 214.07 152.99 C 215.14 152.85 215.89 151.87 215.75 150.80 C 215.61 149.72 214.63 148.97 213.56 149.11 Z M 212.50 149.29 L 211.51 149.35 C 210.46 149.41 209.65 150.32 209.71 151.37 C 209.77 152.43 210.67 153.24 211.73 153.18 L 212.72 153.12 C 213.78 153.06 214.59 152.15 214.53 151.10 C 214.47 150.04 213.56 149.23 212.50 149.29 Z M 211.59 149.38 L 210.63 149.40 C 209.59 149.41 208.76 150.27 208.78 151.31 C 208.80 152.35 209.65 153.17 210.69 153.16 L 211.65 153.14 C 212.69 153.13 213.52 152.27 213.50 151.23 C 213.48 150.20 212.63 149.37 211.59 149.38 Z M 210.68 149.43 L 209.68 149.42 C 208.67 149.41 207.83 150.22 207.82 151.24 C 207.80 152.26 208.62 153.10 209.64 153.11 L 210.64 153.12 C 211.66 153.14 212.49 152.32 212.51 151.30 C 212.52 150.28 211.70 149.44 210.68 149.43 Z M 209.72 149.46 L 208.69 149.42 C 207.69 149.39 206.86 150.18 206.82 151.18 C 206.79 152.18 207.58 153.01 208.58 153.04 L 209.61 153.08 C 210.61 153.11 211.44 152.32 211.47 151.32 C 211.50 150.32 210.72 149.49 209.72 149.46 Z M 208.71 149.46 L 207.66 149.42 C 206.68 149.37 205.86 150.14 205.81 151.12 C 205.77 152.10 206.53 152.92 207.51 152.97 L 208.56 153.01 C 209.54 153.05 210.37 152.29 210.41 151.31 C 210.45 150.33 209.69 149.50 208.71 149.46 Z M 207.67 149.44 L 207.03 149.41 C 206.06 149.37 205.24 150.12 205.20 151.08 C 205.15 152.04 205.90 152.86 206.87 152.91 L 207.51 152.94 C 208.47 152.98 209.29 152.24 209.34 151.27 C 209.38 150.31 208.63 149.49 207.67 149.44 Z"
      fill="black"
      fill-rule="nonzero" /><path d="M 156.47 113.66 L 155.40 113.23 C 154.41 112.83 153.29 113.31 152.90 114.30 C 152.50 115.28 152.98 116.40 153.97 116.80 L 155.03 117.23 C 156.02 117.62 157.14 117.15 157.54 116.16 C 157.93 115.17 157.45 114.05 156.47 113.66 Z M 155.31 113.16 L 154.29 112.81 C 153.26 112.46 152.15 113.01 151.80 114.04 C 151.45 115.06 152.00 116.18 153.03 116.52 L 154.05 116.87 C 155.08 117.22 156.19 116.67 156.54 115.64 C 156.89 114.62 156.34 113.50 155.31 113.16 Z M 154.05 112.70 L 153.10 112.52 C 152.02 112.31 150.97 113.01 150.76 114.09 C 150.54 115.18 151.25 116.23 152.33 116.44 L 153.27 116.63 C 154.35 116.84 155.41 116.14 155.62 115.05 C 155.83 113.97 155.13 112.92 154.05 112.70 Z M 152.58 112.45 L 151.76 112.51 C 150.64 112.58 149.79 113.55 149.87 114.68 C 149.94 115.80 150.92 116.64 152.04 116.57 L 152.86 116.51 C 153.98 116.43 154.82 115.46 154.75 114.34 C 154.67 113.22 153.70 112.37 152.58 112.45 Z M 150.84 112.74 L 150.11 113.17 C 149.12 113.76 148.79 115.03 149.37 116.02 C 149.96 117.01 151.23 117.34 152.22 116.76 L 152.96 116.33 C 153.95 115.75 154.28 114.47 153.69 113.48 C 153.11 112.49 151.83 112.16 150.84 112.74 Z M 149.43 113.72 L 148.87 114.50 C 148.19 115.46 148.41 116.79 149.37 117.48 C 150.33 118.17 151.66 117.95 152.35 116.99 L 152.91 116.21 C 153.59 115.25 153.37 113.92 152.41 113.23 C 151.45 112.54 150.12 112.76 149.43 113.72 Z M 148.58 114.91 L 148.18 115.88 C 147.72 117.00 148.25 118.28 149.38 118.75 C 150.50 119.21 151.78 118.67 152.24 117.55 L 152.64 116.58 C 153.11 115.45 152.57 114.17 151.45 113.71 C 150.33 113.25 149.04 113.78 148.58 114.91 Z M 148.04 116.11 L 147.75 117.13 C 147.42 118.34 148.12 119.58 149.33 119.91 C 150.53 120.24 151.77 119.54 152.10 118.34 L 152.39 117.32 C 152.72 116.12 152.02 114.87 150.82 114.54 C 149.62 114.21 148.37 114.91 148.04 116.11 Z M 147.66 117.26 L 147.46 118.24 C 147.20 119.49 148.00 120.72 149.25 120.98 C 150.50 121.24 151.73 120.44 151.99 119.19 L 152.19 118.21 C 152.45 116.96 151.65 115.73 150.40 115.47 C 149.15 115.21 147.92 116.01 147.66 117.26 Z M 147.38 118.35 L 147.23 119.31 C 147.03 120.60 147.91 121.82 149.21 122.02 C 150.50 122.22 151.71 121.34 151.92 120.04 L 152.07 119.08 C 152.27 117.79 151.39 116.57 150.09 116.37 C 148.80 116.17 147.58 117.05 147.38 118.35 Z M 147.16 119.39 L 147.04 120.38 C 146.88 121.71 147.83 122.92 149.16 123.08 C 150.50 123.24 151.71 122.29 151.87 120.96 L 151.99 119.97 C 152.15 118.64 151.20 117.43 149.86 117.27 C 148.53 117.11 147.32 118.06 147.16 119.39 Z M 146.99 120.42 L 146.89 121.38 C 146.75 122.74 147.74 123.96 149.10 124.10 C 150.46 124.24 151.68 123.25 151.82 121.88 L 151.92 120.92 C 152.06 119.56 151.07 118.34 149.71 118.20 C 148.34 118.06 147.13 119.05 146.99 120.42 Z M 146.85 121.39 L 146.77 122.32 C 146.63 123.70 147.65 124.93 149.03 125.06 C 150.41 125.19 151.64 124.18 151.77 122.80 L 151.86 121.87 C 151.99 120.49 150.97 119.26 149.59 119.13 C 148.21 119.00 146.99 120.01 146.85 121.39 Z M 146.74 122.33 L 146.65 123.31 C 146.53 124.71 147.56 125.94 148.95 126.07 C 150.35 126.19 151.58 125.16 151.70 123.77 L 151.79 122.78 C 151.92 121.39 150.89 120.16 149.49 120.03 C 148.10 119.91 146.87 120.94 146.74 122.33 Z M 146.63 123.32 L 146.54 124.36 C 146.42 125.77 147.46 127.01 148.87 127.13 C 150.28 127.25 151.52 126.20 151.64 124.80 L 151.73 123.76 C 151.85 122.35 150.80 121.11 149.40 120.99 C 147.99 120.87 146.75 121.91 146.63 123.32 Z M 146.51 124.37 L 146.43 125.46 C 146.31 126.89 147.37 128.13 148.79 128.25 C 150.22 128.36 151.46 127.30 151.58 125.88 L 151.67 124.79 C 151.78 123.36 150.72 122.12 149.30 122.00 C 147.88 121.89 146.63 122.95 146.51 124.37 Z M 146.41 125.47 L 146.33 126.41 C 146.22 127.84 147.29 129.10 148.73 129.21 C 150.16 129.32 151.42 128.24 151.53 126.81 L 151.60 125.87 C 151.71 124.44 150.64 123.19 149.20 123.07 C 147.77 122.96 146.52 124.04 146.41 125.47 Z M 146.32 126.42 L 146.24 127.39 C 146.14 128.83 147.22 130.09 148.66 130.19 C 150.11 130.30 151.37 129.22 151.47 127.77 L 151.54 126.80 C 151.65 125.36 150.57 124.10 149.12 123.99 C 147.68 123.89 146.42 124.97 146.32 126.42 Z M 146.23 127.39 L 146.16 128.39 C 146.05 129.84 147.15 131.11 148.60 131.21 C 150.06 131.31 151.32 130.21 151.42 128.76 L 151.49 127.76 C 151.59 126.31 150.50 125.05 149.04 124.95 C 147.59 124.84 146.33 125.94 146.23 127.39 Z M 146.14 128.40 L 146.07 129.42 C 145.97 130.88 147.08 132.15 148.54 132.25 C 150.01 132.34 151.27 131.23 151.37 129.77 L 151.44 128.75 C 151.53 127.29 150.43 126.02 148.96 125.93 C 147.50 125.83 146.24 126.94 146.14 128.40 Z M 146.05 129.43 L 145.99 130.47 C 145.90 131.94 147.02 133.21 148.49 133.30 C 149.96 133.39 151.23 132.27 151.32 130.80 L 151.39 129.76 C 151.48 128.29 150.36 127.02 148.89 126.93 C 147.41 126.84 146.14 127.96 146.05 129.43 Z M 145.97 130.48 L 145.92 131.48 C 145.83 132.96 146.96 134.23 148.44 134.31 C 149.93 134.40 151.20 133.27 151.28 131.78 L 151.34 130.79 C 151.42 129.31 150.29 128.04 148.81 127.95 C 147.33 127.87 146.06 129.00 145.97 130.48 Z M 145.91 131.49 L 145.86 132.44 C 145.78 133.93 146.92 135.20 148.40 135.28 C 149.89 135.36 151.16 134.22 151.24 132.73 L 151.29 131.77 C 151.37 130.29 150.23 129.02 148.74 128.94 C 147.25 128.86 145.99 130.00 145.91 131.49 Z M 145.85 132.45 L 145.80 133.43 C 145.73 134.92 146.87 136.19 148.37 136.26 C 149.86 136.33 151.12 135.19 151.20 133.70 L 151.25 132.72 C 151.32 131.23 150.17 129.96 148.68 129.89 C 147.19 129.81 145.92 130.96 145.85 132.45 Z M 145.79 133.44 L 145.75 134.43 C 145.68 135.92 146.83 137.19 148.33 137.26 C 149.82 137.33 151.09 136.18 151.16 134.68 L 151.21 133.69 C 151.28 132.19 150.12 130.92 148.63 130.86 C 147.13 130.79 145.86 131.94 145.79 133.44 Z M 145.74 134.44 L 145.69 135.45 C 145.63 136.95 146.79 138.22 148.29 138.29 C 149.79 138.35 151.06 137.19 151.12 135.69 L 151.17 134.67 C 151.23 133.18 150.07 131.91 148.57 131.84 C 147.07 131.78 145.81 132.94 145.74 134.44 Z M 145.69 135.46 L 145.64 136.50 C 145.58 138.00 146.75 139.27 148.25 139.34 C 149.75 139.40 151.02 138.23 151.08 136.73 L 151.13 135.69 C 151.19 134.18 150.02 132.91 148.52 132.85 C 147.02 132.79 145.75 133.96 145.69 135.46 Z M 145.64 136.50 L 145.60 137.51 C 145.54 139.01 146.71 140.28 148.21 140.34 C 149.72 140.41 150.99 139.23 151.05 137.73 L 151.09 136.73 C 151.15 135.22 149.98 133.95 148.48 133.89 C 146.97 133.83 145.70 135.00 145.64 136.50 Z M 145.59 137.51 L 145.56 138.45 C 145.50 139.96 146.67 141.23 148.18 141.29 C 149.69 141.35 150.96 140.17 151.02 138.67 L 151.06 137.73 C 151.12 136.22 149.94 134.95 148.43 134.89 C 146.92 134.83 145.65 136.00 145.59 137.51 Z M 145.55 138.45 L 145.51 139.42 C 145.46 140.93 146.63 142.20 148.14 142.26 C 149.66 142.32 150.93 141.14 150.99 139.63 L 151.02 138.66 C 151.08 137.15 149.90 135.88 148.39 135.82 C 146.88 135.76 145.61 136.94 145.55 138.45 Z M 145.51 139.42 L 145.47 140.41 C 145.42 141.92 146.60 143.19 148.11 143.25 C 149.62 143.31 150.90 142.13 150.95 140.61 L 150.99 139.63 C 151.05 138.11 149.87 136.84 148.35 136.78 C 146.84 136.73 145.57 137.91 145.51 139.42 Z M 145.47 140.41 L 145.43 141.42 C 145.38 142.93 146.56 144.21 148.07 144.26 C 149.59 144.32 150.86 143.13 150.92 141.62 L 150.96 140.61 C 151.01 139.09 149.83 137.82 148.31 137.77 C 146.80 137.71 145.52 138.89 145.47 140.41 Z M 145.43 141.42 L 145.39 142.45 C 145.34 143.97 146.52 145.24 148.04 145.30 C 149.56 145.35 150.83 144.16 150.89 142.65 L 150.92 141.62 C 150.98 140.10 149.79 138.82 148.27 138.77 C 146.76 138.71 145.48 139.90 145.43 141.42 Z M 145.39 142.45 L 145.35 143.50 C 145.30 145.02 146.48 146.30 148.00 146.35 C 149.52 146.41 150.80 145.22 150.85 143.70 L 150.89 142.64 C 150.94 141.13 149.76 139.85 148.24 139.80 C 146.72 139.74 145.44 140.93 145.39 142.45 Z M 145.34 143.50 L 145.31 144.53 C 145.26 146.05 146.45 147.33 147.97 147.38 C 149.49 147.44 150.77 146.24 150.82 144.72 L 150.86 143.70 C 150.91 142.17 149.72 140.89 148.20 140.84 C 146.67 140.79 145.40 141.98 145.34 143.50 Z M 145.30 144.53 L 145.27 145.48 C 145.21 147.01 146.41 148.29 147.94 148.34 C 149.47 148.39 150.75 147.19 150.80 145.67 L 150.83 144.72 C 150.89 143.19 149.69 141.91 148.16 141.86 C 146.63 141.81 145.35 143.00 145.30 144.53 Z M 145.25 145.48 L 145.22 146.44 C 145.17 147.97 146.37 149.26 147.91 149.31 C 149.44 149.36 150.73 148.16 150.78 146.63 L 150.81 145.67 C 150.87 144.13 149.66 142.84 148.13 142.79 C 146.59 142.74 145.31 143.94 145.25 145.48 Z M 145.21 146.44 L 145.18 147.42 C 145.12 148.96 146.33 150.25 147.87 150.30 C 149.42 150.35 150.71 149.15 150.76 147.60 L 150.79 146.63 C 150.85 145.08 149.64 143.79 148.10 143.74 C 146.55 143.69 145.26 144.90 145.21 146.44 Z M 145.16 147.41 L 145.13 148.41 C 145.08 149.96 146.29 151.26 147.84 151.31 C 149.39 151.36 150.69 150.15 150.74 148.60 L 150.77 147.61 C 150.83 146.06 149.61 144.76 148.06 144.70 C 146.51 144.65 145.22 145.86 145.16 147.41 Z M 145.12 148.41 L 145.08 149.42 C 145.03 150.97 146.25 152.28 147.80 152.33 C 149.36 152.39 150.66 151.17 150.72 149.61 L 150.75 148.60 C 150.81 147.04 149.59 145.74 148.03 145.69 C 146.47 145.63 145.17 146.85 145.12 148.41 Z M 145.07 149.41 L 145.03 150.44 C 144.98 152.01 146.20 153.32 147.76 153.37 C 149.33 153.43 150.64 152.20 150.69 150.64 L 150.73 149.61 C 150.78 148.05 149.56 146.74 148.00 146.68 C 146.44 146.63 145.12 147.85 145.07 149.41 Z M 145.02 150.44 L 144.98 151.48 C 144.92 153.05 146.15 154.37 147.72 154.43 C 149.29 154.49 150.61 153.26 150.67 151.69 L 150.71 150.64 C 150.76 149.07 149.54 147.75 147.97 147.70 C 146.39 147.64 145.08 148.87 145.02 150.44 Z M 144.97 151.48 L 144.93 152.53 C 144.87 154.11 146.10 155.43 147.68 155.49 C 149.26 155.55 150.58 154.32 150.64 152.74 L 150.68 151.69 C 150.74 150.12 149.51 148.79 147.93 148.73 C 146.35 148.67 145.03 149.90 144.97 151.48 Z M 144.92 152.53 L 144.89 153.46 C 144.83 155.04 146.06 156.37 147.64 156.43 C 149.22 156.49 150.55 155.26 150.61 153.68 L 150.65 152.74 C 150.71 151.16 149.48 149.83 147.90 149.77 C 146.31 149.71 144.98 150.94 144.92 152.53 Z M 144.88 153.46 L 144.85 154.41 C 144.78 155.99 146.02 157.32 147.60 157.39 C 149.18 157.45 150.52 156.21 150.58 154.63 L 150.62 153.68 C 150.68 152.10 149.45 150.77 147.86 150.70 C 146.28 150.64 144.95 151.87 144.88 153.46 Z M 144.84 154.40 L 144.80 155.37 C 144.74 156.95 145.97 158.29 147.56 158.35 C 149.14 158.42 150.48 157.18 150.54 155.60 L 150.58 154.63 C 150.65 153.05 149.41 151.71 147.83 151.65 C 146.24 151.59 144.91 152.82 144.84 154.40 Z M 144.80 155.36 L 144.76 156.34 C 144.70 157.93 145.93 159.27 147.52 159.33 C 149.10 159.40 150.44 158.17 150.51 156.58 L 150.55 155.60 C 150.61 154.01 149.38 152.67 147.79 152.61 C 146.21 152.54 144.87 153.78 144.80 155.36 Z M 144.76 156.34 L 144.72 157.34 C 144.65 158.92 145.88 160.27 147.47 160.33 C 149.06 160.40 150.40 159.17 150.47 157.58 L 150.51 156.58 C 150.58 154.99 149.34 153.65 147.75 153.58 C 146.17 153.52 144.82 154.75 144.76 156.34 Z M 144.71 157.33 L 144.67 158.34 C 144.60 159.93 145.84 161.28 147.43 161.35 C 149.02 161.41 150.36 160.18 150.43 158.59 L 150.47 157.58 C 150.54 155.99 149.31 154.64 147.72 154.57 C 146.12 154.51 144.78 155.74 144.71 157.33 Z M 144.67 158.34 L 144.62 159.37 C 144.55 160.96 145.79 162.31 147.38 162.38 C 148.97 162.45 150.32 161.21 150.39 159.62 L 150.43 158.59 C 150.50 157.00 149.27 155.65 147.67 155.58 C 146.08 155.51 144.73 156.75 144.67 158.34 Z M 144.62 159.37 L 144.57 160.41 C 144.50 162.01 145.74 163.36 147.33 163.43 C 148.93 163.50 150.28 162.26 150.35 160.67 L 150.39 159.62 C 150.46 158.03 149.23 156.68 147.63 156.61 C 146.04 156.54 144.69 157.77 144.62 159.37 Z M 144.57 160.41 L 144.52 161.47 C 144.45 163.07 145.69 164.42 147.28 164.49 C 148.88 164.57 150.23 163.33 150.30 161.73 L 150.35 160.67 C 150.42 159.07 149.19 157.72 147.59 157.65 C 145.99 157.58 144.64 158.81 144.57 160.41 Z M 144.52 161.47 L 144.47 162.46 C 144.40 164.06 145.64 165.42 147.24 165.49 C 148.83 165.56 150.19 164.32 150.26 162.73 L 150.31 161.73 C 150.38 160.14 149.14 158.78 147.54 158.71 C 145.94 158.64 144.59 159.87 144.52 161.47 Z M 144.47 162.46 L 144.43 163.41 C 144.35 165.01 145.59 166.36 147.19 166.44 C 148.79 166.51 150.15 165.27 150.22 163.67 L 150.26 162.73 C 150.34 161.13 149.10 159.77 147.50 159.70 C 145.90 159.63 144.54 160.86 144.47 162.46 Z M 144.43 163.41 L 144.38 164.37 C 144.31 165.97 145.55 167.32 147.15 167.40 C 148.75 167.47 150.10 166.23 150.18 164.63 L 150.22 163.67 C 150.29 162.07 149.06 160.72 147.46 160.64 C 145.86 160.57 144.50 161.81 144.43 163.41 Z M 144.38 164.37 L 144.34 165.34 C 144.26 166.94 145.50 168.30 147.10 168.37 C 148.70 168.44 150.06 167.21 150.13 165.61 L 150.18 164.63 C 150.25 163.03 149.01 161.68 147.41 161.60 C 145.81 161.53 144.46 162.77 144.38 164.37 Z M 144.34 165.34 L 144.29 166.32 C 144.22 167.92 145.45 169.28 147.05 169.36 C 148.66 169.43 150.01 168.19 150.09 166.59 L 150.13 165.61 C 150.21 164.01 148.97 162.65 147.37 162.57 C 145.77 162.50 144.41 163.74 144.34 165.34 Z M 144.29 166.32 L 144.24 167.32 C 144.17 168.92 145.41 170.28 147.01 170.35 C 148.61 170.43 149.97 169.19 150.04 167.59 L 150.09 166.59 C 150.16 164.99 148.93 163.63 147.32 163.56 C 145.72 163.48 144.36 164.72 144.29 166.32 Z M 144.24 167.32 L 144.19 168.33 C 144.12 169.93 145.36 171.29 146.96 171.36 C 148.56 171.44 149.92 170.20 150.00 168.60 L 150.04 167.59 C 150.12 165.99 148.88 164.63 147.28 164.55 C 145.68 164.48 144.32 165.72 144.24 167.32 Z M 144.19 168.33 L 144.15 169.35 C 144.07 170.95 145.31 172.31 146.91 172.38 C 148.52 172.46 149.88 171.22 149.95 169.62 L 150.00 168.60 C 150.07 166.99 148.83 165.63 147.23 165.56 C 145.63 165.48 144.27 166.72 144.19 168.33 Z M 144.14 169.35 L 144.10 170.38 C 144.02 171.98 145.26 173.34 146.87 173.42 C 148.47 173.49 149.83 172.25 149.91 170.65 L 149.95 169.62 C 150.03 168.01 148.79 166.65 147.18 166.58 C 145.58 166.50 144.22 167.74 144.14 169.35 Z M 144.10 170.38 L 144.05 171.42 C 143.97 173.02 145.21 174.38 146.82 174.46 C 148.42 174.53 149.78 173.29 149.86 171.68 L 149.91 170.64 C 149.98 169.04 148.74 167.68 147.13 167.61 C 145.53 167.53 144.17 168.77 144.10 170.38 Z M 144.05 171.42 L 144.00 172.47 C 143.92 174.07 145.17 175.43 146.77 175.51 C 148.38 175.58 149.74 174.34 149.81 172.73 L 149.86 171.68 C 149.93 170.08 148.69 168.72 147.09 168.64 C 145.48 168.57 144.12 169.81 144.05 171.42 Z M 144.00 172.47 L 143.95 173.49 C 143.88 175.10 145.12 176.46 146.73 176.53 C 148.33 176.60 149.69 175.36 149.77 173.75 L 149.81 172.73 C 149.89 171.12 148.64 169.76 147.04 169.69 C 145.43 169.62 144.07 170.86 144.00 172.47 Z M 143.95 173.49 L 143.90 174.50 C 143.83 176.11 145.07 177.47 146.68 177.54 C 148.29 177.61 149.65 176.37 149.72 174.76 L 149.77 173.75 C 149.84 172.15 148.60 170.78 146.99 170.71 C 145.38 170.64 144.02 171.88 143.95 173.49 Z M 143.90 174.50 L 143.86 175.51 C 143.78 177.12 145.03 178.48 146.64 178.55 C 148.25 178.62 149.61 177.38 149.68 175.77 L 149.73 174.76 C 149.80 173.15 148.55 171.79 146.94 171.72 C 145.33 171.64 143.97 172.89 143.90 174.50 Z M 143.85 175.51 L 143.81 176.52 C 143.74 178.14 144.98 179.50 146.60 179.57 C 148.21 179.64 149.57 178.39 149.64 176.78 L 149.68 175.77 C 149.76 174.16 148.51 172.79 146.90 172.72 C 145.29 172.65 143.92 173.90 143.85 175.51 Z M 143.81 176.53 L 143.76 177.54 C 143.69 179.15 144.94 180.52 146.55 180.59 C 148.16 180.66 149.53 179.41 149.60 177.79 L 149.64 176.78 C 149.71 175.17 148.46 173.80 146.85 173.73 C 145.24 173.66 143.88 174.91 143.81 176.53 Z M 143.76 177.54 L 143.72 178.56 C 143.65 180.17 144.90 181.53 146.51 181.60 C 148.13 181.67 149.49 180.42 149.56 178.80 L 149.60 177.79 C 149.67 176.18 148.42 174.82 146.80 174.75 C 145.19 174.68 143.83 175.93 143.76 177.54 Z M 143.71 178.56 L 143.67 179.57 C 143.60 181.18 144.86 182.55 146.47 182.61 C 148.09 182.68 149.45 181.43 149.52 179.81 L 149.56 178.80 C 149.63 177.19 148.37 175.82 146.76 175.76 C 145.14 175.69 143.78 176.94 143.71 178.56 Z M 143.67 179.57 L 143.63 180.57 C 143.56 182.19 144.82 183.55 146.43 183.62 C 148.05 183.69 149.41 182.43 149.48 180.81 L 149.52 179.81 C 149.59 178.19 148.33 176.83 146.71 176.76 C 145.10 176.70 143.73 177.95 143.67 179.57 Z M 143.62 180.58 L 143.58 181.57 C 143.52 183.19 144.78 184.55 146.40 184.62 C 148.01 184.68 149.38 183.42 149.44 181.81 L 149.48 180.81 C 149.55 179.19 148.29 177.83 146.67 177.76 C 145.05 177.70 143.69 178.96 143.62 180.58 Z M 143.58 181.58 L 143.54 182.56 C 143.48 184.18 144.74 185.55 146.36 185.61 C 147.98 185.67 149.34 184.41 149.41 182.79 L 149.44 181.80 C 149.51 180.19 148.25 178.82 146.63 178.76 C 145.01 178.69 143.64 179.96 143.58 181.58 Z M 143.54 182.57 L 143.50 183.54 C 143.44 185.16 144.71 186.53 146.33 186.59 C 147.95 186.65 149.31 185.38 149.37 183.76 L 149.41 182.79 C 149.47 181.17 148.21 179.80 146.59 179.74 C 144.96 179.68 143.60 180.95 143.54 182.57 Z M 143.50 183.55 L 143.47 184.51 C 143.41 186.13 144.67 187.49 146.30 187.55 C 147.92 187.61 149.28 186.34 149.34 184.72 L 149.37 183.76 C 149.43 182.14 148.17 180.77 146.54 180.72 C 144.92 180.66 143.56 181.92 143.50 183.55 Z M 143.46 184.51 L 143.43 185.57 C 143.37 187.20 144.64 188.56 146.26 188.61 C 147.89 188.67 149.25 187.40 149.30 185.78 L 149.34 184.72 C 149.40 183.09 148.13 181.73 146.51 181.68 C 144.88 181.62 143.52 182.89 143.46 184.51 Z M 143.43 185.58 L 143.39 186.63 C 143.34 188.25 144.61 189.61 146.23 189.66 C 147.86 189.72 149.22 188.45 149.27 186.82 L 149.30 185.77 C 149.36 184.15 148.09 182.79 146.46 182.74 C 144.84 182.68 143.48 183.95 143.43 185.58 Z M 143.39 186.63 L 143.36 187.66 C 143.31 189.29 144.58 190.65 146.21 190.70 C 147.83 190.75 149.19 189.47 149.24 187.85 L 149.27 186.82 C 149.32 185.19 148.05 183.84 146.42 183.78 C 144.80 183.73 143.44 185.01 143.39 186.63 Z M 143.36 187.67 L 143.33 188.69 C 143.28 190.31 144.56 191.67 146.18 191.71 C 147.81 191.76 149.16 190.48 149.21 188.86 L 149.24 187.84 C 149.29 186.22 148.01 184.86 146.38 184.82 C 144.76 184.77 143.41 186.05 143.36 187.67 Z M 143.33 188.69 L 143.30 189.70 C 143.26 191.32 144.54 192.67 146.16 192.72 C 147.78 192.76 149.14 191.48 149.18 189.86 L 149.21 188.85 C 149.25 187.23 147.97 185.88 146.35 185.83 C 144.72 185.79 143.37 187.07 143.33 188.69 Z M 143.30 189.70 L 143.28 190.69 C 143.23 192.32 144.52 193.67 146.14 193.71 C 147.77 193.75 149.12 192.46 149.16 190.84 L 149.18 189.85 C 149.22 188.23 147.94 186.88 146.31 186.84 C 144.69 186.79 143.34 188.08 143.30 189.70 Z M 143.27 190.70 L 143.25 191.68 C 143.22 193.30 144.50 194.65 146.13 194.69 C 147.75 194.72 149.10 193.44 149.13 191.81 L 149.16 190.83 C 149.19 189.21 147.91 187.86 146.28 187.83 C 144.66 187.79 143.31 189.07 143.27 190.70 Z M 143.25 191.68 L 143.23 192.65 C 143.20 194.28 144.49 195.62 146.11 195.66 C 147.74 195.69 149.08 194.40 149.11 192.77 L 149.13 191.81 C 149.17 190.18 147.88 188.84 146.25 188.80 C 144.63 188.77 143.29 190.06 143.25 191.68 Z M 143.23 192.66 L 143.21 193.62 C 143.18 195.25 144.48 196.59 146.10 196.62 C 147.73 196.65 149.07 195.35 149.10 193.73 L 149.12 192.77 C 149.14 191.14 147.85 189.80 146.23 189.77 C 144.60 189.74 143.26 191.04 143.23 192.66 Z M 143.21 193.63 L 143.20 194.58 C 143.17 196.21 144.47 197.54 146.09 197.57 C 147.72 197.60 149.06 196.30 149.08 194.67 L 149.10 193.72 C 149.12 192.10 147.83 190.76 146.20 190.73 C 144.58 190.71 143.24 192.00 143.21 193.63 Z M 143.20 194.59 L 143.19 195.58 C 143.16 197.21 144.46 198.54 146.09 198.56 C 147.71 198.58 149.05 197.28 149.07 195.66 L 149.08 194.67 C 149.10 193.04 147.80 191.71 146.18 191.69 C 144.56 191.66 143.22 192.96 143.20 194.59 Z M 143.19 195.59 L 143.18 196.60 C 143.16 198.23 144.46 199.56 146.09 199.57 C 147.71 199.59 149.04 198.29 149.06 196.67 L 149.07 195.65 C 149.08 194.03 147.78 192.70 146.16 192.68 C 144.54 192.66 143.21 193.96 143.19 195.59 Z M 143.18 196.61 L 143.17 197.62 C 143.16 199.24 144.46 200.57 146.08 200.58 C 147.71 200.59 149.03 199.29 149.05 197.67 L 149.05 196.66 C 149.07 195.04 147.76 193.71 146.14 193.70 C 144.52 193.68 143.19 194.99 143.18 196.61 Z M 143.17 197.63 L 143.17 198.63 C 143.16 200.25 144.46 201.57 146.08 201.58 C 147.71 201.59 149.03 200.29 149.04 198.67 L 149.04 197.66 C 149.05 196.04 147.75 194.72 146.13 194.71 C 144.51 194.70 143.18 196.00 143.17 197.63 Z M 143.17 198.64 L 143.16 199.64 C 143.16 201.26 144.46 202.58 146.08 202.58 C 147.70 202.59 149.02 201.28 149.03 199.66 L 149.04 198.66 C 149.04 197.04 147.74 195.72 146.12 195.72 C 144.50 195.71 143.18 197.02 143.17 198.64 Z M 143.17 199.64 L 143.16 200.64 C 143.16 202.26 144.47 203.57 146.09 203.58 C 147.70 203.58 149.02 202.27 149.03 200.66 L 149.03 199.66 C 149.03 198.04 147.73 196.72 146.11 196.72 C 144.49 196.71 143.17 198.02 143.17 199.64 Z M 143.17 200.64 L 143.16 201.64 C 143.16 203.25 144.47 204.57 146.09 204.57 C 147.71 204.57 149.02 203.26 149.02 201.65 L 149.02 200.65 C 149.03 199.03 147.72 197.72 146.10 197.72 C 144.48 197.72 143.17 199.02 143.17 200.64 Z M 143.17 201.64 L 143.17 202.63 C 143.16 204.25 144.47 205.56 146.09 205.56 C 147.71 205.56 149.02 204.25 149.02 202.63 L 149.02 201.64 C 149.02 200.03 147.71 198.72 146.10 198.71 C 144.48 198.71 143.17 200.02 143.17 201.64 Z M 143.17 202.63 L 143.17 203.62 C 143.17 205.23 144.48 206.54 146.09 206.54 C 147.71 206.55 149.02 205.24 149.02 203.62 L 149.02 202.63 C 149.02 201.02 147.71 199.71 146.09 199.71 C 144.48 199.71 143.17 201.02 143.17 202.63 Z M 143.17 203.62 L 143.17 204.61 C 143.17 206.22 144.48 207.53 146.09 207.53 C 147.71 207.53 149.01 206.22 149.01 204.61 L 149.01 203.62 C 149.01 202.01 147.71 200.70 146.09 200.70 C 144.48 200.70 143.17 202.01 143.17 203.62 Z M 143.17 204.61 L 143.17 205.63 C 143.17 207.24 144.48 208.55 146.09 208.55 C 147.70 208.55 149.01 207.24 149.01 205.63 L 149.01 204.61 C 149.01 203.00 147.70 201.69 146.09 201.69 C 144.48 201.69 143.17 203.00 143.17 204.61 Z M 143.18 205.63 L 143.18 206.65 C 143.18 208.26 144.48 209.56 146.09 209.56 C 147.70 209.56 149.01 208.25 149.01 206.64 L 149.01 205.63 C 149.01 204.02 147.70 202.71 146.09 202.71 C 144.48 202.72 143.18 204.02 143.18 205.63 Z M 143.18 206.65 L 143.18 207.67 C 143.19 209.27 144.49 210.57 146.10 210.57 C 147.71 210.57 149.01 209.26 149.00 207.66 L 149.00 206.64 C 149.00 205.03 147.69 203.73 146.09 203.74 C 144.48 203.74 143.18 205.04 143.18 206.65 Z M 143.19 207.67 L 143.19 208.68 C 143.20 210.28 144.50 211.58 146.11 211.58 C 147.71 211.57 149.01 210.27 149.00 208.66 L 149.00 207.65 C 148.99 206.05 147.69 204.75 146.09 204.75 C 144.48 204.76 143.18 206.06 143.19 207.67 Z M 143.20 208.69 L 143.20 209.69 C 143.21 211.29 144.51 212.58 146.12 212.58 C 147.72 212.57 149.01 211.26 149.00 209.66 L 149.00 208.66 C 148.99 207.05 147.68 205.76 146.08 205.77 C 144.48 205.78 143.19 207.08 143.20 208.69 Z M 143.20 209.70 L 143.21 210.69 C 143.22 212.29 144.53 213.58 146.13 213.57 C 147.73 213.56 149.02 212.25 149.01 210.65 L 149.00 209.65 C 148.99 208.05 147.68 206.76 146.08 206.78 C 144.48 206.79 143.19 208.10 143.20 209.70 Z M 143.22 210.70 L 143.23 211.69 C 143.24 213.29 144.55 214.57 146.15 214.56 C 147.75 214.54 149.03 213.23 149.01 211.63 L 149.00 210.64 C 148.99 209.04 147.68 207.76 146.08 207.78 C 144.48 207.80 143.20 209.11 143.22 210.70 Z M 143.23 211.70 L 143.25 212.69 C 143.27 214.28 144.58 215.56 146.18 215.53 C 147.77 215.51 149.05 214.20 149.02 212.60 L 149.01 211.62 C 148.99 210.03 147.67 208.75 146.08 208.77 C 144.48 208.80 143.21 210.11 143.23 211.70 Z M 143.25 212.70 L 143.27 213.67 C 143.30 215.26 144.61 216.53 146.21 216.50 C 147.80 216.47 149.07 215.15 149.04 213.56 L 149.02 212.59 C 148.99 211.00 147.67 209.73 146.08 209.76 C 144.49 209.79 143.22 211.10 143.25 212.70 Z M 143.27 213.68 L 143.30 214.72 C 143.34 216.31 144.66 217.57 146.25 217.53 C 147.84 217.49 149.09 216.17 149.06 214.58 L 149.03 213.55 C 148.99 211.96 147.67 210.70 146.08 210.74 C 144.49 210.77 143.24 212.09 143.27 213.68 Z M 143.30 214.74 L 143.34 215.78 C 143.38 217.37 144.71 218.62 146.30 218.57 C 147.88 218.52 149.13 217.20 149.08 215.61 L 149.05 214.56 C 149.00 212.98 147.68 211.73 146.09 211.78 C 144.50 211.83 143.26 213.15 143.30 214.74 Z M 143.34 215.81 L 143.38 216.84 C 143.44 218.42 144.77 219.66 146.36 219.60 C 147.94 219.54 149.18 218.20 149.12 216.62 L 149.08 215.59 C 149.02 214.00 147.68 212.77 146.10 212.83 C 144.52 212.89 143.28 214.22 143.34 215.81 Z M 143.39 216.86 L 143.43 217.88 C 143.51 219.46 144.85 220.68 146.43 220.61 C 148.01 220.53 149.23 219.19 149.16 217.61 L 149.11 216.59 C 149.04 215.01 147.69 213.79 146.11 213.87 C 144.53 213.94 143.31 215.28 143.39 216.86 Z M 143.44 217.91 L 143.50 218.91 C 143.59 220.49 144.94 221.69 146.52 221.60 C 148.10 221.51 149.30 220.16 149.21 218.58 L 149.15 217.58 C 149.06 216.00 147.71 214.80 146.13 214.89 C 144.55 214.98 143.35 216.33 143.44 217.91 Z M 143.51 218.94 L 143.58 219.93 C 143.69 221.50 145.05 222.68 146.62 222.57 C 148.20 222.46 149.38 221.10 149.27 219.53 L 149.20 218.54 C 149.09 216.97 147.73 215.79 146.15 215.90 C 144.58 216.01 143.40 217.37 143.51 218.94 Z M 143.58 219.96 L 143.66 220.93 C 143.80 222.50 145.17 223.66 146.74 223.53 C 148.31 223.40 149.47 222.02 149.34 220.45 L 149.26 219.49 C 149.13 217.92 147.75 216.76 146.18 216.89 C 144.62 217.02 143.45 218.40 143.58 219.96 Z M 143.67 220.97 L 143.77 221.92 C 143.92 223.48 145.32 224.62 146.88 224.46 C 148.44 224.31 149.58 222.92 149.43 221.35 L 149.33 220.41 C 149.18 218.85 147.79 217.70 146.22 217.86 C 144.66 218.02 143.52 219.41 143.67 220.97 Z M 143.78 221.97 L 143.89 222.94 C 144.08 224.50 145.49 225.61 147.04 225.43 C 148.60 225.24 149.71 223.83 149.53 222.28 L 149.42 221.30 C 149.23 219.75 147.82 218.63 146.27 218.82 C 144.71 219.00 143.60 220.41 143.78 221.97 Z M 143.91 222.99 L 144.06 224.03 C 144.27 225.58 145.70 226.66 147.24 226.44 C 148.79 226.23 149.87 224.80 149.66 223.26 L 149.51 222.22 C 149.30 220.68 147.87 219.59 146.33 219.81 C 144.78 220.02 143.70 221.45 143.91 222.99 Z M 144.08 224.08 L 144.24 225.10 C 144.48 226.63 145.92 227.68 147.45 227.44 C 148.99 227.19 150.04 225.75 149.79 224.22 L 149.63 223.20 C 149.39 221.67 147.95 220.62 146.42 220.86 C 144.88 221.11 143.83 222.55 144.08 224.08 Z M 144.26 225.14 L 144.43 226.13 C 144.70 227.66 146.15 228.67 147.68 228.41 C 149.20 228.14 150.22 226.68 149.95 225.16 L 149.77 224.17 C 149.50 222.65 148.05 221.63 146.53 221.90 C 145.01 222.17 143.99 223.62 144.26 225.14 Z M 144.45 226.18 L 144.64 227.15 C 144.93 228.66 146.39 229.65 147.91 229.36 C 149.42 229.07 150.41 227.60 150.12 226.09 L 149.93 225.12 C 149.64 223.61 148.17 222.62 146.66 222.91 C 145.15 223.20 144.16 224.66 144.45 226.18 Z M 144.66 227.19 L 144.86 228.14 C 145.17 229.64 146.64 230.61 148.14 230.30 C 149.64 229.98 150.61 228.52 150.29 227.02 L 150.09 226.06 C 149.78 224.56 148.31 223.59 146.81 223.90 C 145.31 224.22 144.35 225.68 144.66 227.19 Z M 144.88 228.17 L 145.09 229.12 C 145.41 230.61 146.89 231.55 148.38 231.22 C 149.87 230.89 150.81 229.42 150.48 227.93 L 150.27 226.99 C 149.95 225.50 148.47 224.55 146.98 224.88 C 145.49 225.21 144.55 226.68 144.88 228.17 Z M 145.11 229.14 L 145.32 230.08 C 145.66 231.56 147.14 232.48 148.62 232.15 C 150.09 231.81 151.02 230.33 150.68 228.85 L 150.46 227.91 C 150.12 226.43 148.65 225.51 147.17 225.85 C 145.69 226.19 144.77 227.66 145.11 229.14 Z M 145.34 230.10 L 145.59 231.15 C 145.94 232.62 147.42 233.53 148.88 233.18 C 150.35 232.83 151.26 231.36 150.91 229.89 L 150.66 228.83 C 150.31 227.37 148.84 226.46 147.37 226.81 C 145.90 227.16 144.99 228.63 145.34 230.10 Z M 145.61 231.17 L 145.87 232.21 C 146.23 233.67 147.70 234.55 149.16 234.19 C 150.62 233.83 151.51 232.36 151.15 230.90 L 150.89 229.87 C 150.53 228.41 149.06 227.52 147.60 227.88 C 146.14 228.24 145.25 229.72 145.61 231.17 Z M 145.89 232.23 L 146.15 233.24 C 146.53 234.68 148.00 235.55 149.45 235.18 C 150.89 234.80 151.76 233.33 151.38 231.88 L 151.12 230.88 C 150.75 229.43 149.27 228.57 147.83 228.94 C 146.39 229.31 145.52 230.79 145.89 232.23 Z M 146.18 233.27 L 146.44 234.23 C 146.83 235.67 148.31 236.51 149.74 236.12 C 151.17 235.73 152.01 234.25 151.62 232.82 L 151.36 231.85 C 150.97 230.42 149.49 229.58 148.06 229.97 C 146.63 230.36 145.79 231.84 146.18 233.27 Z M 146.47 234.27 L 146.73 235.19 C 147.14 236.60 148.62 237.42 150.04 237.01 C 151.46 236.60 152.27 235.12 151.86 233.70 L 151.60 232.78 C 151.19 231.37 149.71 230.55 148.29 230.96 C 146.87 231.37 146.06 232.85 146.47 234.27 Z M 146.76 235.23 L 147.03 236.09 C 147.47 237.49 148.95 238.28 150.35 237.84 C 151.75 237.41 152.53 235.92 152.10 234.52 L 151.83 233.66 C 151.40 232.26 149.91 231.48 148.51 231.91 C 147.11 232.35 146.33 233.83 146.76 235.23 Z M 147.07 236.16 L 147.41 237.16 C 147.88 238.54 149.38 239.27 150.76 238.80 C 152.14 238.33 152.87 236.84 152.40 235.46 L 152.06 234.46 C 151.59 233.08 150.09 232.34 148.71 232.81 C 147.34 233.28 146.60 234.78 147.07 236.16 Z M 147.46 237.24 L 147.85 238.25 C 148.36 239.60 149.87 240.28 151.22 239.76 C 152.57 239.25 153.25 237.74 152.74 236.39 L 152.35 235.38 C 151.84 234.03 150.33 233.35 148.98 233.86 C 147.63 234.38 146.95 235.89 147.46 237.24 Z M 147.90 238.32 L 148.28 239.23 C 148.84 240.55 150.36 241.18 151.68 240.62 C 153.00 240.07 153.62 238.55 153.07 237.23 L 152.68 236.32 C 152.13 234.99 150.61 234.37 149.29 234.93 C 147.97 235.48 147.34 237.00 147.90 238.32 Z M 148.33 239.29 L 148.71 240.13 C 149.29 241.42 150.81 242.00 152.11 241.41 C 153.40 240.83 153.98 239.31 153.40 238.01 L 153.02 237.17 C 152.43 235.88 150.91 235.30 149.62 235.88 C 148.32 236.47 147.74 237.99 148.33 239.29 Z M 148.74 240.15 L 149.12 240.96 C 149.72 242.23 151.24 242.78 152.51 242.18 C 153.79 241.58 154.34 240.07 153.74 238.79 L 153.36 237.99 C 152.76 236.71 151.24 236.16 149.97 236.76 C 148.69 237.36 148.14 238.87 148.74 240.15 Z M 149.15 240.96 L 149.55 241.80 C 150.15 243.06 151.66 243.59 152.91 242.99 C 154.17 242.39 154.71 240.88 154.11 239.62 L 153.71 238.79 C 153.11 237.53 151.60 236.99 150.34 237.59 C 149.08 238.19 148.55 239.70 149.15 240.96 Z M 149.59 241.81 L 150.01 242.67 C 150.62 243.90 152.11 244.41 153.35 243.80 C 154.59 243.20 155.10 241.70 154.49 240.46 L 154.07 239.61 C 153.46 238.37 151.96 237.86 150.73 238.47 C 149.49 239.08 148.98 240.58 149.59 241.81 Z M 150.05 242.69 L 150.52 243.60 C 151.14 244.81 152.63 245.28 153.84 244.66 C 155.05 244.04 155.53 242.55 154.91 241.34 L 154.44 240.44 C 153.82 239.22 152.33 238.75 151.12 239.37 C 149.91 239.99 149.43 241.48 150.05 242.69 Z M 150.57 243.63 L 151.10 244.61 C 151.74 245.79 153.22 246.23 154.40 245.59 C 155.59 244.95 156.03 243.47 155.39 242.29 L 154.86 241.31 C 154.22 240.12 152.74 239.68 151.55 240.32 C 150.37 240.96 149.93 242.44 150.57 243.63 Z M 151.14 244.63 L 151.59 245.42 C 152.24 246.59 153.71 247.00 154.87 246.34 C 156.04 245.69 156.45 244.22 155.79 243.06 L 155.35 242.26 C 154.69 241.10 153.22 240.69 152.06 241.34 C 150.90 242.00 150.49 243.47 151.14 244.63 Z M 151.62 245.44 L 152.10 246.28 C 152.77 247.42 154.23 247.81 155.37 247.15 C 156.52 246.49 156.91 245.03 156.25 243.88 L 155.76 243.04 C 155.10 241.90 153.63 241.51 152.49 242.17 C 151.35 242.83 150.96 244.29 151.62 245.44 Z M 152.13 246.29 L 152.65 247.16 C 153.31 248.29 154.77 248.66 155.90 247.99 C 157.02 247.33 157.40 245.88 156.73 244.75 L 156.22 243.87 C 155.55 242.75 154.10 242.37 152.97 243.04 C 151.84 243.70 151.47 245.16 152.13 246.29 Z M 152.68 247.16 L 153.21 248.05 C 153.88 249.16 155.32 249.53 156.43 248.86 C 157.55 248.19 157.91 246.75 157.24 245.64 L 156.71 244.75 C 156.04 243.63 154.60 243.27 153.48 243.94 C 152.37 244.61 152.01 246.05 152.68 247.16 Z M 153.23 248.05 L 153.78 248.95 C 154.44 250.04 155.88 250.39 156.97 249.73 C 158.07 249.06 158.42 247.63 157.76 246.53 L 157.21 245.64 C 156.55 244.54 155.12 244.19 154.02 244.85 C 152.92 245.52 152.57 246.95 153.23 248.05 Z M 153.80 248.94 L 154.35 249.83 C 155.01 250.91 156.43 251.25 157.51 250.59 C 158.60 249.92 158.94 248.50 158.27 247.42 L 157.73 246.53 C 157.07 245.45 155.65 245.11 154.56 245.77 C 153.48 246.44 153.14 247.86 153.80 248.94 Z M 154.38 249.82 L 154.91 250.69 C 155.57 251.76 156.97 252.09 158.04 251.43 C 159.11 250.77 159.44 249.37 158.78 248.30 L 158.24 247.43 C 157.58 246.36 156.18 246.03 155.12 246.69 C 154.05 247.35 153.72 248.75 154.38 249.82 Z M 154.95 250.67 L 155.48 251.53 C 156.13 252.58 157.51 252.90 158.56 252.25 C 159.61 251.60 159.93 250.22 159.28 249.17 L 158.75 248.31 C 158.09 247.26 156.72 246.94 155.67 247.59 C 154.62 248.25 154.30 249.63 154.95 250.67 Z M 155.51 251.51 L 156.04 252.36 C 156.68 253.39 158.04 253.70 159.07 253.06 C 160.10 252.41 160.41 251.06 159.77 250.03 L 159.24 249.18 C 158.60 248.15 157.24 247.84 156.21 248.48 C 155.18 249.13 154.87 250.48 155.51 251.51 Z M 156.07 252.34 L 156.60 253.18 C 157.23 254.19 158.57 254.49 159.58 253.86 C 160.59 253.22 160.90 251.89 160.26 250.88 L 159.74 250.04 C 159.10 249.03 157.77 248.72 156.76 249.36 C 155.74 249.99 155.44 251.33 156.07 252.34 Z M 156.63 253.16 L 157.15 253.99 C 157.77 254.98 159.09 255.28 160.08 254.66 C 161.08 254.03 161.38 252.72 160.75 251.72 L 160.23 250.89 C 159.61 249.90 158.29 249.60 157.30 250.23 C 156.30 250.85 156.00 252.16 156.63 253.16 Z M 157.17 253.98 L 157.27 254.15 C 157.89 255.13 159.19 255.43 160.18 254.81 C 161.16 254.19 161.46 252.89 160.84 251.90 L 160.73 251.74 C 160.11 250.75 158.81 250.45 157.83 251.07 C 156.85 251.69 156.55 252.99 157.17 253.98 Z"
      fill="black"
      fill-rule="nonzero" /></svg>