<svg xmlns="http://www.w3.org/2000/svg" width="300" height="300" viewBox="0 0 300 300">
<path d="M 152.20 95.98 L 152.20 94.56 C 152.20 93.65 151.46 92.91 150.55 92.91 C 149.63 92.90 148.89 93.65 148.89 94.56 L 148.89 95.97 C 148.88 96.89 149.62 97.63 150.54 97.63 C 151.45 97.63 152.20 96.89 152.20 95.98 Z M 152.26 94.58 L 152.27 93.31 C 152.28 92.37 151.52 91.59 150.57 91.58 C 149.63 91.57 148.85 92.33 148.85 93.28 L 148.83 94.54 C 148.82 95.49 149.58 96.26 150.53 96.27 C 151.47 96.28 152.25 95.53 152.26 94.58 Z M 152.32 93.36 L 152.36 92.38 C 152.39 91.40 151.63 90.58 150.66 90.55 C 149.68 90.51 148.86 91.28 148.83 92.25 L 148.79 93.23 C 148.76 94.21 149.52 95.02 150.49 95.06 C 151.47 95.09 152.29 94.33 152.32 93.36 Z M 152.40 92.54 L 152.47 92.00 C 152.59 91.00 151.89 90.09 150.89 89.96 C 149.89 89.84 148.98 90.54 148.85 91.54 L 148.78 92.09 C 148.66 93.09 149.37 94.00 150.36 94.12 C 151.36 94.25 152.27 93.54 152.40 92.54 Z M 150.10 93.54 L 150.22 93.58 C 151.20 93.89 152.25 93.35 152.56 92.37 C 152.86 91.39 152.32 90.34 151.34 90.03 L 151.22 90.00 C 150.24 89.69 149.19 90.23 148.89 91.21 C 148.58 92.19 149.12 93.24 150.10 93.54 Z M 148.97 92.29 L 149.14 92.94 C 149.41 93.94 150.44 94.54 151.44 94.27 C 152.44 94.00 153.03 92.98 152.77 91.98 L 152.59 91.33 C 152.33 90.33 151.30 89.73 150.30 90.00 C 149.30 90.26 148.70 91.29 148.97 92.29 Z M 149.11 92.82 L 149.33 93.94 C 149.52 94.96 150.51 95.63 151.53 95.43 C 152.55 95.23 153.22 94.24 153.02 93.23 L 152.80 92.10 C 152.60 91.08 151.62 90.42 150.60 90.61 C 149.58 90.81 148.91 91.80 149.11 92.82 Z M 149.32 93.91 L 149.57 95.35 C 149.75 96.38 150.73 97.06 151.76 96.88 C 152.78 96.70 153.47 95.72 153.28 94.70 L 153.03 93.25 C 152.85 92.23 151.87 91.55 150.84 91.73 C 149.82 91.91 149.13 92.89 149.32 93.91 Z M 149.57 95.35 L 149.75 96.39 C 149.93 97.42 150.91 98.11 151.94 97.93 C 152.96 97.75 153.65 96.77 153.47 95.74 L 153.29 94.70 C 153.11 93.67 152.13 92.98 151.10 93.16 C 150.07 93.34 149.39 94.32 149.57 95.35 Z M 149.75 96.39 L 149.91 97.29 C 150.09 98.32 151.07 99.00 152.09 98.82 C 153.12 98.64 153.81 97.66 153.63 96.63 L 153.47 95.74 C 153.29 94.71 152.31 94.02 151.28 94.20 C 150.25 94.39 149.57 95.37 149.75 96.39 Z M 149.90 97.28 L 150.07 98.21 C 150.24 99.24 151.22 99.93 152.25 99.75 C 153.28 99.58 153.97 98.60 153.79 97.57 L 153.63 96.64 C 153.45 95.61 152.47 94.92 151.44 95.10 C 150.42 95.28 149.73 96.25 149.90 97.28 Z M 150.06 98.21 L 150.23 99.17 C 150.40 100.20 151.38 100.90 152.41 100.72 C 153.44 100.55 154.13 99.57 153.96 98.55 L 153.79 97.58 C 153.62 96.55 152.64 95.85 151.61 96.03 C 150.58 96.20 149.89 97.18 150.06 98.21 Z M 150.23 99.16 L 150.39 100.17 C 150.56 101.20 151.53 101.90 152.56 101.73 C 153.59 101.57 154.29 100.59 154.12 99.56 L 153.96 98.56 C 153.79 97.53 152.82 96.83 151.79 96.99 C 150.76 97.16 150.06 98.13 150.23 99.16 Z M 150.39 100.15 L 150.55 101.20 C 150.71 102.23 151.67 102.94 152.70 102.78 C 153.74 102.62 154.44 101.66 154.28 100.62 L 154.12 99.58 C 153.96 98.55 153.00 97.84 151.97 98.00 C 150.94 98.16 150.23 99.12 150.39 100.15 Z M 150.55 101.18 L 150.70 102.27 C 150.85 103.30 151.81 104.02 152.84 103.87 C 153.88 103.72 154.59 102.76 154.44 101.73 L 154.29 100.64 C 154.14 99.61 153.18 98.89 152.15 99.04 C 151.11 99.19 150.40 100.15 150.55 101.18 Z M 150.70 102.25 L 150.84 103.32 C 150.98 104.36 151.93 105.08 152.97 104.95 C 154.00 104.81 154.73 103.86 154.59 102.82 L 154.45 101.75 C 154.31 100.71 153.36 99.98 152.32 100.12 C 151.29 100.26 150.56 101.21 150.70 102.25 Z M 150.84 103.30 L 150.97 104.31 C 151.09 105.35 152.04 106.08 153.07 105.95 C 154.11 105.83 154.84 104.88 154.72 103.85 L 154.59 102.84 C 154.46 101.80 153.52 101.07 152.48 101.20 C 151.45 101.32 150.71 102.27 150.84 103.30 Z M 150.96 104.30 L 151.08 105.32 C 151.20 106.36 152.14 107.10 153.17 106.98 C 154.21 106.86 154.95 105.92 154.84 104.89 L 154.72 103.86 C 154.60 102.83 153.66 102.08 152.63 102.20 C 151.59 102.32 150.85 103.26 150.96 104.30 Z M 151.08 105.31 L 151.19 106.34 C 151.30 107.37 152.24 108.12 153.27 108.01 C 154.31 107.90 155.06 106.97 154.95 105.93 L 154.84 104.90 C 154.72 103.87 153.79 103.12 152.76 103.23 C 151.72 103.34 150.97 104.27 151.08 105.31 Z M 151.19 106.33 L 151.30 107.35 C 151.40 108.39 152.33 109.15 153.36 109.04 C 154.40 108.94 155.16 108.01 155.05 106.98 L 154.95 105.95 C 154.84 104.91 153.92 104.15 152.88 104.26 C 151.84 104.36 151.09 105.29 151.19 106.33 Z M 151.30 107.34 L 151.39 108.36 C 151.49 109.40 152.41 110.16 153.45 110.06 C 154.48 109.96 155.24 109.04 155.15 108.00 L 155.05 106.99 C 154.95 105.95 154.03 105.19 153.00 105.29 C 151.96 105.39 151.20 106.31 151.30 107.34 Z M 151.39 108.35 L 151.48 109.34 C 151.57 110.38 152.49 111.14 153.52 111.05 C 154.56 110.96 155.33 110.04 155.23 109.01 L 155.15 108.01 C 155.06 106.98 154.14 106.21 153.10 106.30 C 152.07 106.40 151.30 107.31 151.39 108.35 Z M 151.48 109.33 L 151.56 110.29 C 151.65 111.33 152.56 112.10 153.59 112.01 C 154.63 111.92 155.40 111.01 155.31 109.98 L 155.23 109.02 C 155.15 107.98 154.24 107.21 153.20 107.30 C 152.16 107.38 151.39 108.29 151.48 109.33 Z M 151.56 110.28 L 151.63 111.19 C 151.71 112.23 152.62 113.01 153.65 112.93 C 154.69 112.85 155.47 111.94 155.39 110.90 L 155.31 109.99 C 155.23 108.95 154.33 108.18 153.29 108.26 C 152.26 108.34 151.48 109.24 151.56 110.28 Z M 151.63 111.18 L 151.71 112.30 C 151.78 113.34 152.68 114.12 153.72 114.05 C 154.76 113.97 155.54 113.07 155.46 112.04 L 155.38 110.92 C 155.31 109.88 154.41 109.10 153.38 109.17 C 152.34 109.25 151.56 110.15 151.63 111.18 Z M 151.71 112.29 L 151.78 113.37 C 151.85 114.41 152.74 115.19 153.77 115.13 C 154.81 115.06 155.59 114.17 155.53 113.14 L 155.46 112.05 C 155.39 111.02 154.50 110.23 153.47 110.30 C 152.43 110.36 151.65 111.25 151.71 112.29 Z M 151.79 113.36 L 151.84 114.37 C 151.90 115.40 152.78 116.19 153.82 116.14 C 154.85 116.08 155.64 115.20 155.58 114.16 L 155.52 113.15 C 155.47 112.12 154.58 111.33 153.55 111.38 C 152.52 111.44 151.73 112.32 151.79 113.36 Z M 151.85 114.36 L 151.89 115.32 C 151.94 116.35 152.82 117.14 153.85 117.09 C 154.88 117.04 155.67 116.17 155.62 115.14 L 155.58 114.18 C 155.53 113.15 154.65 112.35 153.62 112.40 C 152.59 112.45 151.80 113.33 151.85 114.36 Z M 151.90 115.31 L 151.94 116.23 C 151.98 117.26 152.85 118.06 153.88 118.01 C 154.91 117.97 155.71 117.10 155.66 116.07 L 155.62 115.15 C 155.57 114.12 154.71 113.32 153.68 113.37 C 152.65 113.41 151.85 114.28 151.90 115.31 Z M 151.94 116.23 L 151.98 117.13 C 152.02 118.16 152.88 118.96 153.91 118.92 C 154.94 118.87 155.73 118.01 155.69 116.98 L 155.66 116.08 C 155.61 115.05 154.75 114.25 153.72 114.29 C 152.70 114.34 151.90 115.20 151.94 116.23 Z M 151.98 117.13 L 152.02 118.08 C 152.06 119.10 152.92 119.90 153.95 119.86 C 154.97 119.82 155.77 118.95 155.73 117.93 L 155.69 116.99 C 155.65 115.96 154.79 115.17 153.76 115.21 C 152.74 115.25 151.94 116.11 151.98 117.13 Z M 152.02 118.07 L 152.06 119.05 C 152.10 120.07 152.96 120.87 153.98 120.83 C 155.00 120.79 155.80 119.93 155.76 118.91 L 155.72 117.93 C 155.68 116.91 154.82 116.11 153.80 116.15 C 152.78 116.19 151.98 117.05 152.02 118.07 Z M 152.06 119.05 L 152.10 120.03 C 152.13 121.05 152.99 121.85 154.01 121.81 C 155.03 121.78 155.83 120.92 155.79 119.90 L 155.76 118.91 C 155.72 117.89 154.86 117.10 153.84 117.13 C 152.82 117.17 152.03 118.03 152.06 119.05 Z M 152.10 120.03 L 152.13 121.03 C 152.17 122.04 153.02 122.84 154.04 122.81 C 155.06 122.78 155.85 121.92 155.82 120.91 L 155.79 119.91 C 155.76 118.89 154.90 118.09 153.89 118.12 C 152.87 118.16 152.07 119.01 152.10 120.03 Z M 152.14 121.02 L 152.17 122.03 C 152.19 123.05 153.04 123.85 154.06 123.82 C 155.07 123.79 155.88 122.95 155.85 121.93 L 155.82 120.91 C 155.79 119.90 154.94 119.10 153.93 119.13 C 152.91 119.15 152.11 120.00 152.14 121.02 Z M 152.17 122.02 L 152.19 123.05 C 152.21 124.07 153.06 124.87 154.07 124.85 C 155.09 124.83 155.89 123.98 155.87 122.97 L 155.84 121.94 C 155.82 120.92 154.98 120.12 153.96 120.14 C 152.95 120.17 152.15 121.01 152.17 122.02 Z M 152.20 123.04 L 152.21 124.04 C 152.23 125.05 153.06 125.86 154.08 125.84 C 155.09 125.83 155.90 124.99 155.88 123.98 L 155.86 122.98 C 155.85 121.97 155.01 121.16 154.00 121.18 C 152.99 121.19 152.18 122.03 152.20 123.04 Z M 152.22 124.03 L 152.23 125.03 C 152.24 126.04 153.07 126.85 154.08 126.84 C 155.09 126.83 155.90 126.00 155.89 124.99 L 155.87 123.99 C 155.86 122.98 155.04 122.17 154.03 122.18 C 153.01 122.19 152.21 123.02 152.22 124.03 Z M 152.23 125.02 L 152.24 126.03 C 152.25 127.04 153.07 127.85 154.08 127.84 C 155.08 127.83 155.89 127.01 155.89 126.00 L 155.88 125.00 C 155.87 123.99 155.05 123.18 154.04 123.19 C 153.04 123.19 152.23 124.01 152.23 125.02 Z M 152.24 126.02 L 152.25 127.03 C 152.25 128.04 153.07 128.85 154.07 128.84 C 155.08 128.84 155.89 128.02 155.89 127.02 L 155.88 126.01 C 155.88 125.00 155.06 124.19 154.06 124.20 C 153.05 124.20 152.24 125.02 152.24 126.02 Z M 152.25 127.03 L 152.25 128.03 C 152.26 129.03 153.07 129.85 154.07 129.84 C 155.07 129.84 155.89 129.03 155.88 128.03 L 155.88 127.02 C 155.88 126.02 155.07 125.21 154.06 125.21 C 153.06 125.21 152.25 126.03 152.25 127.03 Z M 152.26 128.03 L 152.26 129.02 C 152.26 130.02 153.07 130.83 154.07 130.83 C 155.07 130.83 155.88 130.02 155.88 129.02 L 155.88 128.03 C 155.88 127.03 155.07 126.22 154.07 126.22 C 153.07 126.22 152.26 127.03 152.26 128.03 Z M 152.27 129.02 L 152.27 130.03 C 152.27 131.03 153.07 131.84 154.07 131.84 C 155.07 131.84 155.87 131.03 155.87 130.03 L 155.87 129.02 C 155.87 128.03 155.07 127.22 154.07 127.22 C 153.07 127.22 152.27 128.03 152.27 129.02 Z M 152.27 130.03 L 152.27 131.04 C 152.27 132.03 153.08 132.84 154.07 132.84 C 155.06 132.84 155.87 132.03 155.87 131.04 L 155.87 130.03 C 155.87 129.04 155.06 128.23 154.07 128.23 C 153.08 128.23 152.27 129.04 152.27 130.03 Z M 152.28 131.04 L 152.28 132.03 C 152.28 133.03 153.08 133.83 154.07 133.83 C 155.06 133.83 155.86 133.03 155.86 132.03 L 155.86 131.04 C 155.86 130.05 155.06 129.24 154.07 129.24 C 153.08 129.24 152.28 130.05 152.28 131.04 Z M 152.28 132.03 L 152.28 133.03 C 152.28 134.01 153.08 134.81 154.07 134.81 C 155.06 134.81 155.86 134.01 155.86 133.03 L 155.86 132.03 C 155.86 131.05 155.06 130.25 154.07 130.25 C 153.08 130.25 152.28 131.05 152.28 132.03 Z M 152.29 133.03 L 152.29 134.02 C 152.29 135.00 153.08 135.80 154.07 135.80 C 155.05 135.80 155.85 135.00 155.85 134.02 L 155.85 133.03 C 155.85 132.04 155.05 131.24 154.07 131.24 C 153.08 131.24 152.29 132.04 152.29 133.03 Z M 152.29 134.02 L 152.29 135.02 C 152.29 136.00 153.09 136.79 154.07 136.79 C 155.05 136.79 155.85 136.00 155.85 135.02 L 155.85 134.02 C 155.85 133.04 155.05 132.24 154.07 132.24 C 153.09 132.24 152.29 133.04 152.29 134.02 Z M 152.30 135.02 L 152.30 136.01 C 152.30 136.99 153.09 137.78 154.07 137.78 C 155.05 137.78 155.84 136.99 155.84 136.01 L 155.84 135.02 C 155.84 134.04 155.05 133.25 154.07 133.25 C 153.09 133.25 152.30 134.04 152.30 135.02 Z M 152.30 136.01 L 152.30 137.00 C 152.30 137.98 153.09 138.77 154.07 138.77 C 155.04 138.77 155.84 137.98 155.84 137.00 L 155.84 136.01 C 155.84 135.03 155.04 134.24 154.07 134.24 C 153.09 134.24 152.30 135.03 152.30 136.01 Z M 152.31 137.00 L 152.31 138.00 C 152.31 138.98 153.10 139.76 154.07 139.76 C 155.04 139.76 155.83 138.98 155.83 138.00 L 155.83 137.00 C 155.83 136.03 155.04 135.24 154.07 135.24 C 153.10 135.24 152.31 136.03 152.31 137.00 Z M 152.32 138.00 L 152.32 139.01 C 152.32 139.98 153.10 140.76 154.07 140.76 C 155.04 140.76 155.82 139.98 155.82 139.01 L 155.82 138.00 C 155.82 137.04 155.04 136.25 154.07 136.25 C 153.10 136.25 152.32 137.04 152.32 138.00 Z M 152.32 139.01 L 152.32 140.01 C 152.32 140.98 153.10 141.76 154.07 141.76 C 155.03 141.76 155.82 140.98 155.82 140.01 L 155.82 139.01 C 155.82 138.04 155.03 137.26 154.07 137.26 C 153.10 137.26 152.32 138.04 152.32 139.01 Z M 152.33 140.01 L 152.33 141.02 C 152.33 141.98 153.11 142.76 154.07 142.76 C 155.03 142.76 155.81 141.98 155.81 141.02 L 155.81 140.01 C 155.81 139.05 155.03 138.27 154.07 138.27 C 153.11 138.27 152.33 139.05 152.33 140.01 Z M 152.33 141.02 L 152.33 142.03 C 152.33 142.98 153.11 143.76 154.07 143.76 C 155.03 143.76 155.80 142.98 155.80 142.03 L 155.80 141.02 C 155.80 140.06 155.03 139.28 154.07 139.28 C 153.11 139.28 152.33 140.06 152.33 141.02 Z M 152.34 142.02 L 152.34 143.03 C 152.34 143.98 153.11 144.76 154.07 144.76 C 155.02 144.76 155.80 143.99 155.80 143.03 L 155.80 142.03 C 155.80 141.07 155.03 140.30 154.07 140.30 C 153.12 140.30 152.34 141.07 152.34 142.02 Z M 152.35 143.02 L 152.34 144.02 C 152.34 144.98 153.10 145.75 154.05 145.76 C 155.01 145.76 155.78 144.99 155.79 144.04 L 155.79 143.04 C 155.80 142.09 155.03 141.31 154.08 141.31 C 153.12 141.30 152.35 142.07 152.35 143.02 Z M 152.35 144.01 L 152.34 145.01 C 152.33 145.96 153.09 146.74 154.04 146.75 C 154.98 146.76 155.76 146.00 155.77 145.05 L 155.78 144.05 C 155.79 143.10 155.03 142.33 154.08 142.32 C 153.13 142.31 152.36 143.07 152.35 144.01 Z M 152.34 145.00 L 152.32 146.00 C 152.31 146.94 153.06 147.72 154.00 147.74 C 154.95 147.75 155.73 147.00 155.75 146.06 L 155.76 145.06 C 155.78 144.12 155.03 143.34 154.08 143.32 C 153.14 143.30 152.36 144.06 152.34 145.00 Z M 152.33 145.98 L 152.30 146.97 C 152.28 147.91 153.02 148.70 153.96 148.72 C 154.90 148.75 155.69 148.01 155.71 147.07 L 155.74 146.07 C 155.76 145.13 155.02 144.35 154.08 144.32 C 153.14 144.30 152.36 145.04 152.33 145.98 Z M 152.31 146.95 L 152.27 147.96 C 152.23 148.90 152.96 149.69 153.90 149.72 C 154.84 149.76 155.63 149.03 155.67 148.09 L 155.70 147.09 C 155.74 146.15 155.01 145.36 154.07 145.32 C 153.14 145.29 152.35 146.02 152.31 146.95 Z M 152.28 147.94 L 152.23 148.95 C 152.18 149.88 152.90 150.68 153.83 150.72 C 154.76 150.77 155.56 150.05 155.61 149.12 L 155.66 148.11 C 155.71 147.18 154.99 146.38 154.05 146.33 C 153.12 146.29 152.33 147.00 152.28 147.94 Z M 152.23 148.93 L 152.17 149.93 C 152.11 150.86 152.82 151.66 153.75 151.72 C 154.68 151.78 155.48 151.07 155.54 150.14 L 155.60 149.14 C 155.66 148.21 154.95 147.41 154.02 147.35 C 153.09 147.29 152.29 148.00 152.23 148.93 Z M 152.18 149.92 L 152.11 150.92 C 152.04 151.84 152.74 152.65 153.66 152.71 C 154.59 152.78 155.39 152.08 155.46 151.16 L 155.53 150.16 C 155.60 149.23 154.90 148.43 153.98 148.36 C 153.05 148.29 152.25 148.99 152.18 149.92 Z M 152.11 150.90 L 152.03 151.89 C 151.96 152.81 152.64 153.62 153.56 153.70 C 154.49 153.77 155.30 153.09 155.37 152.16 L 155.45 151.17 C 155.53 150.25 154.84 149.44 153.92 149.37 C 153.00 149.29 152.19 149.98 152.11 150.90 Z M 152.04 151.88 L 151.95 152.86 C 151.87 153.78 152.54 154.59 153.46 154.67 C 154.38 154.75 155.19 154.08 155.27 153.16 L 155.36 152.18 C 155.45 151.26 154.77 150.45 153.85 150.37 C 152.93 150.28 152.12 150.96 152.04 151.88 Z M 151.96 152.85 L 151.86 153.85 C 151.77 154.76 152.44 155.58 153.35 155.66 C 154.27 155.75 155.08 155.09 155.17 154.17 L 155.27 153.17 C 155.36 152.26 154.69 151.44 153.78 151.35 C 152.86 151.26 152.05 151.93 151.96 152.85 Z M 151.87 153.84 L 151.76 154.84 C 151.67 155.75 152.33 156.56 153.24 156.66 C 154.15 156.75 154.96 156.09 155.06 155.18 L 155.16 154.18 C 155.26 153.27 154.60 152.46 153.69 152.36 C 152.78 152.27 151.96 152.93 151.87 153.84 Z M 151.77 154.83 L 151.66 155.83 C 151.56 156.73 152.22 157.55 153.13 157.64 C 154.03 157.74 154.85 157.09 154.95 156.18 L 155.05 155.19 C 155.15 154.28 154.49 153.47 153.59 153.37 C 152.68 153.27 151.87 153.93 151.77 154.83 Z M 151.67 155.83 L 151.56 156.81 C 151.46 157.72 152.12 158.53 153.02 158.63 C 153.92 158.72 154.73 158.07 154.83 157.17 L 154.94 156.18 C 155.04 155.28 154.38 154.46 153.48 154.37 C 152.58 154.27 151.77 154.92 151.67 155.83 Z M 151.57 156.82 L 151.46 157.81 C 151.37 158.71 152.02 159.51 152.92 159.61 C 153.82 159.71 154.63 159.05 154.72 158.15 L 154.83 157.16 C 154.92 156.26 154.27 155.46 153.37 155.36 C 152.47 155.26 151.66 155.92 151.57 156.82 Z M 151.47 157.82 L 151.37 158.78 C 151.28 159.68 151.93 160.48 152.83 160.57 C 153.73 160.66 154.53 160.01 154.62 159.11 L 154.72 158.14 C 154.81 157.25 154.15 156.44 153.26 156.35 C 152.36 156.26 151.56 156.92 151.47 157.82 Z M 151.37 158.79 L 151.30 159.60 C 151.21 160.50 151.87 161.29 152.76 161.38 C 153.66 161.46 154.45 160.81 154.54 159.91 L 154.62 159.10 C 154.70 158.21 154.04 157.41 153.15 157.33 C 152.25 157.24 151.46 157.90 151.37 158.79 Z M 151.30 159.61 L 151.22 160.44 C 151.14 161.34 151.79 162.13 152.69 162.21 C 153.58 162.30 154.37 161.64 154.46 160.75 L 154.54 159.91 C 154.62 159.01 153.96 158.22 153.07 158.14 C 152.18 158.06 151.38 158.71 151.30 159.61 Z M 151.23 160.44 L 151.14 161.33 C 151.06 162.22 151.71 163.01 152.60 163.09 C 153.49 163.18 154.28 162.53 154.37 161.64 L 154.45 160.75 C 154.54 159.86 153.88 159.07 152.99 158.98 C 152.10 158.90 151.31 159.55 151.23 160.44 Z M 151.15 161.32 L 151.05 162.28 C 150.96 163.17 151.61 163.96 152.50 164.05 C 153.39 164.14 154.18 163.49 154.27 162.60 L 154.36 161.64 C 154.45 160.75 153.80 159.96 152.92 159.87 C 152.03 159.79 151.24 160.43 151.15 161.32 Z M 151.06 162.27 L 150.94 163.32 C 150.85 164.21 151.49 165.00 152.38 165.10 C 153.26 165.19 154.05 164.55 154.15 163.67 L 154.26 162.61 C 154.36 161.73 153.71 160.93 152.83 160.84 C 151.94 160.74 151.15 161.39 151.06 162.27 Z M 150.95 163.31 L 150.82 164.48 C 150.71 165.36 151.35 166.16 152.23 166.26 C 153.11 166.36 153.91 165.73 154.01 164.85 L 154.14 163.68 C 154.24 162.80 153.61 162.00 152.73 161.90 C 151.85 161.80 151.05 162.43 150.95 163.31 Z M 150.82 164.47 L 150.67 165.72 C 150.56 166.59 151.18 167.39 152.06 167.50 C 152.94 167.61 153.74 166.99 153.85 166.11 L 154.00 164.86 C 154.11 163.98 153.49 163.18 152.61 163.07 C 151.73 162.97 150.93 163.59 150.82 164.47 Z M 150.67 165.71 L 150.57 166.52 C 150.45 167.39 151.07 168.20 151.95 168.31 C 152.83 168.42 153.63 167.80 153.74 166.93 L 153.85 166.12 C 153.96 165.24 153.34 164.44 152.46 164.32 C 151.59 164.21 150.79 164.83 150.67 165.71 Z M 150.57 166.51 L 150.46 167.37 C 150.34 168.24 150.95 169.05 151.83 169.16 C 152.70 169.28 153.51 168.66 153.62 167.79 L 153.74 166.93 C 153.85 166.06 153.24 165.25 152.37 165.14 C 151.49 165.02 150.69 165.64 150.57 166.51 Z M 150.46 167.36 L 150.34 168.26 C 150.22 169.14 150.83 169.94 151.70 170.06 C 152.58 170.18 153.38 169.57 153.50 168.69 L 153.62 167.79 C 153.74 166.92 153.13 166.12 152.26 166.00 C 151.38 165.88 150.58 166.49 150.46 167.36 Z M 150.34 168.26 L 150.21 169.20 C 150.09 170.07 150.70 170.87 151.57 170.99 C 152.44 171.12 153.25 170.51 153.37 169.63 L 153.50 168.70 C 153.62 167.83 153.01 167.02 152.14 166.90 C 151.26 166.78 150.46 167.39 150.34 168.26 Z M 150.21 169.19 L 150.07 170.17 C 149.95 171.04 150.56 171.84 151.43 171.96 C 152.30 172.09 153.11 171.48 153.23 170.61 L 153.36 169.64 C 153.49 168.77 152.88 167.96 152.01 167.84 C 151.14 167.72 150.33 168.32 150.21 169.19 Z M 150.08 170.16 L 149.93 171.16 C 149.81 172.03 150.41 172.84 151.28 172.96 C 152.15 173.09 152.96 172.48 153.08 171.61 L 153.23 170.61 C 153.35 169.74 152.75 168.94 151.88 168.81 C 151.01 168.69 150.20 169.29 150.08 170.16 Z M 149.94 171.16 L 149.79 172.19 C 149.66 173.06 150.27 173.86 151.13 173.99 C 152.00 174.11 152.81 173.51 152.93 172.64 L 153.08 171.62 C 153.21 170.75 152.60 169.94 151.73 169.82 C 150.87 169.69 150.06 170.29 149.94 171.16 Z M 149.79 172.19 L 149.64 173.24 C 149.51 174.10 150.11 174.91 150.98 175.04 C 151.85 175.16 152.65 174.56 152.78 173.69 L 152.93 172.64 C 153.06 171.78 152.46 170.97 151.59 170.85 C 150.72 170.72 149.92 171.32 149.79 172.19 Z M 149.64 173.24 L 149.48 174.30 C 149.36 175.17 149.96 175.97 150.82 176.10 C 151.69 176.23 152.49 175.63 152.62 174.76 L 152.78 173.69 C 152.90 172.83 152.30 172.02 151.44 171.90 C 150.57 171.77 149.77 172.37 149.64 173.24 Z M 149.49 174.30 L 149.33 175.38 C 149.20 176.25 149.80 177.05 150.66 177.18 C 151.53 177.30 152.33 176.71 152.46 175.84 L 152.62 174.76 C 152.75 173.90 152.15 173.09 151.28 172.97 C 150.42 172.84 149.61 173.44 149.49 174.30 Z M 149.33 175.38 L 149.17 176.47 C 149.04 177.33 149.64 178.14 150.50 178.26 C 151.37 178.39 152.17 177.79 152.30 176.93 L 152.46 175.84 C 152.58 174.98 151.99 174.17 151.12 174.05 C 150.26 173.92 149.46 174.52 149.33 175.38 Z M 149.17 176.47 L 149.01 177.56 C 148.88 178.43 149.48 179.23 150.34 179.36 C 151.20 179.48 152.01 178.89 152.13 178.02 L 152.30 176.93 C 152.42 176.07 151.83 175.26 150.96 175.14 C 150.10 175.01 149.30 175.61 149.17 176.47 Z M 149.01 177.56 L 148.98 177.77 C 148.85 178.63 149.45 179.43 150.31 179.56 C 151.17 179.68 151.98 179.09 152.10 178.23 L 152.13 178.02 C 152.26 177.16 151.66 176.36 150.80 176.23 C 149.94 176.10 149.14 176.70 149.01 177.56 Z"
      fill="black"
      fill-rule="nonzero" /><path d="M 147.07 155.37 L 147.89 154.83 C 148.66 154.31 148.88 153.26 148.36 152.48 C 147.84 151.71 146.79 151.49 146.01 152.01 L 145.20 152.55 C 144.42 153.07 144.21 154.12 144.72 154.90 C 145.24 155.68 146.29 155.89 147.07 155.37 Z M 147.88 154.86 L 148.71 154.33 C 149.51 153.81 149.73 152.75 149.22 151.95 C 148.70 151.15 147.64 150.93 146.84 151.44 L 146.01 151.98 C 145.22 152.50 144.99 153.56 145.51 154.36 C 146.02 155.15 147.09 155.38 147.88 154.86 Z M 148.69 154.37 L 149.54 153.85 C 150.36 153.34 150.61 152.27 150.10 151.45 C 149.60 150.63 148.52 150.37 147.70 150.88 L 146.86 151.40 C 146.04 151.91 145.78 152.98 146.29 153.80 C 146.80 154.62 147.87 154.88 148.69 154.37 Z M 149.50 153.90 L 150.37 153.40 C 151.22 152.91 151.51 151.83 151.02 150.98 C 150.53 150.13 149.45 149.84 148.60 150.33 L 147.73 150.83 C 146.89 151.32 146.59 152.40 147.08 153.25 C 147.57 154.10 148.65 154.39 149.50 153.90 Z M 150.32 153.46 L 151.22 152.99 C 152.10 152.53 152.44 151.44 151.98 150.56 C 151.52 149.68 150.44 149.34 149.56 149.80 L 148.65 150.27 C 147.77 150.73 147.43 151.82 147.89 152.70 C 148.35 153.58 149.44 153.92 150.32 153.46 Z M 151.15 153.05 L 152.06 152.63 C 152.98 152.21 153.38 151.12 152.95 150.21 C 152.53 149.30 151.45 148.90 150.54 149.32 L 149.62 149.74 C 148.71 150.16 148.31 151.24 148.73 152.16 C 149.15 153.07 150.24 153.47 151.15 153.05 Z M 151.99 152.67 L 152.87 152.31 C 153.81 151.93 154.26 150.87 153.88 149.93 C 153.50 148.99 152.43 148.54 151.50 148.92 L 150.61 149.28 C 149.68 149.66 149.22 150.72 149.60 151.66 C 149.98 152.60 151.05 153.05 151.99 152.67 Z M 152.81 152.34 L 153.73 152.00 C 154.68 151.66 155.17 150.61 154.82 149.66 C 154.48 148.71 153.43 148.22 152.48 148.56 L 151.56 148.90 C 150.61 149.24 150.12 150.29 150.46 151.24 C 150.81 152.19 151.86 152.68 152.81 152.34 Z M 153.67 152.02 L 154.62 151.71 C 155.58 151.39 156.10 150.36 155.79 149.40 C 155.47 148.44 154.44 147.92 153.48 148.23 L 152.53 148.55 C 151.57 148.86 151.05 149.90 151.37 150.85 C 151.68 151.81 152.72 152.34 153.67 152.02 Z M 154.58 151.72 L 155.55 151.42 C 156.52 151.13 157.06 150.11 156.77 149.14 C 156.48 148.18 155.45 147.63 154.49 147.93 L 153.52 148.22 C 152.55 148.52 152.01 149.54 152.30 150.50 C 152.60 151.47 153.62 152.01 154.58 151.72 Z M 155.53 151.43 L 156.52 151.15 C 157.49 150.87 158.05 149.85 157.77 148.89 C 157.49 147.92 156.48 147.36 155.51 147.63 L 154.51 147.92 C 153.55 148.20 152.99 149.21 153.26 150.18 C 153.54 151.15 154.56 151.71 155.53 151.43 Z M 156.50 151.15 L 157.51 150.87 C 158.48 150.60 159.05 149.59 158.78 148.62 C 158.51 147.65 157.50 147.08 156.53 147.35 L 155.52 147.63 C 154.55 147.90 153.98 148.91 154.25 149.88 C 154.52 150.85 155.53 151.42 156.50 151.15 Z M 157.50 150.87 L 158.42 150.61 C 159.39 150.35 159.96 149.35 159.70 148.38 C 159.43 147.41 158.43 146.83 157.46 147.10 L 156.53 147.35 C 155.56 147.62 154.99 148.62 155.26 149.59 C 155.53 150.56 156.53 151.13 157.50 150.87 Z M 158.41 150.60 L 159.35 150.35 C 160.32 150.09 160.89 149.10 160.63 148.13 C 160.37 147.17 159.37 146.59 158.41 146.86 L 157.47 147.11 C 156.50 147.37 155.93 148.36 156.19 149.33 C 156.46 150.29 157.45 150.87 158.41 150.60 Z M 159.34 150.34 L 160.29 150.09 C 161.25 149.84 161.82 148.85 161.57 147.89 C 161.31 146.93 160.33 146.36 159.37 146.61 L 158.42 146.86 C 157.46 147.12 156.88 148.10 157.14 149.07 C 157.39 150.03 158.38 150.60 159.34 150.34 Z M 160.28 150.08 L 161.24 149.83 C 162.20 149.59 162.78 148.61 162.53 147.65 C 162.28 146.70 161.30 146.12 160.35 146.37 L 159.38 146.62 C 158.42 146.87 157.85 147.84 158.10 148.80 C 158.34 149.76 159.32 150.33 160.28 150.08 Z M 161.23 149.83 L 162.21 149.58 C 163.16 149.34 163.74 148.37 163.50 147.42 C 163.26 146.47 162.30 145.89 161.34 146.13 L 160.36 146.38 C 159.41 146.62 158.83 147.58 159.07 148.54 C 159.31 149.49 160.28 150.07 161.23 149.83 Z M 162.20 149.57 L 163.20 149.33 C 164.15 149.10 164.73 148.14 164.50 147.19 C 164.27 146.24 163.31 145.66 162.36 145.89 L 161.36 146.14 C 160.41 146.37 159.83 147.32 160.06 148.27 C 160.29 149.22 161.25 149.81 162.20 149.57 Z M 163.18 149.32 L 164.19 149.09 C 165.14 148.86 165.72 147.92 165.50 146.97 C 165.28 146.02 164.33 145.44 163.39 145.66 L 162.38 145.90 C 161.43 146.12 160.84 147.07 161.07 148.01 C 161.29 148.96 162.23 149.55 163.18 149.32 Z M 164.18 149.08 L 165.04 148.88 C 165.99 148.67 166.58 147.73 166.36 146.79 C 166.15 145.85 165.21 145.26 164.27 145.47 L 163.40 145.67 C 162.46 145.88 161.87 146.82 162.08 147.76 C 162.30 148.70 163.23 149.29 164.18 149.08 Z M 165.03 148.88 L 165.92 148.68 C 166.86 148.48 167.45 147.55 167.25 146.61 C 167.04 145.67 166.11 145.08 165.17 145.28 L 164.29 145.48 C 163.35 145.68 162.75 146.61 162.96 147.55 C 163.16 148.49 164.09 149.08 165.03 148.88 Z M 165.90 148.68 L 166.82 148.48 C 167.75 148.29 168.35 147.37 168.15 146.43 C 167.96 145.50 167.04 144.90 166.10 145.10 L 165.19 145.29 C 164.25 145.49 163.65 146.40 163.85 147.34 C 164.05 148.27 164.97 148.87 165.90 148.68 Z M 166.80 148.48 L 167.75 148.29 C 168.68 148.10 169.28 147.19 169.09 146.26 C 168.90 145.32 168.00 144.72 167.06 144.91 L 166.12 145.10 C 165.19 145.29 164.58 146.20 164.77 147.13 C 164.96 148.06 165.87 148.67 166.80 148.48 Z M 167.73 148.28 L 168.71 148.09 C 169.64 147.91 170.25 147.01 170.07 146.08 C 169.89 145.15 168.99 144.55 168.06 144.73 L 167.08 144.92 C 166.15 145.10 165.54 146.00 165.72 146.93 C 165.91 147.86 166.81 148.46 167.73 148.28 Z M 168.70 148.08 L 169.72 147.89 C 170.65 147.72 171.26 146.83 171.08 145.90 C 170.91 144.98 170.02 144.37 169.09 144.54 L 168.07 144.73 C 167.15 144.91 166.54 145.80 166.71 146.72 C 166.89 147.65 167.78 148.26 168.70 148.08 Z M 169.71 147.88 L 170.78 147.69 C 171.70 147.52 172.31 146.64 172.14 145.72 C 171.98 144.80 171.09 144.19 170.17 144.35 L 169.11 144.55 C 168.19 144.72 167.58 145.60 167.74 146.52 C 167.91 147.44 168.79 148.05 169.71 147.88 Z M 170.77 147.68 L 171.89 147.49 C 172.80 147.33 173.41 146.45 173.25 145.54 C 173.09 144.62 172.22 144.01 171.30 144.17 L 170.19 144.36 C 169.27 144.52 168.66 145.40 168.82 146.31 C 168.98 147.23 169.85 147.84 170.77 147.68 Z M 171.88 147.48 L 172.88 147.31 C 173.79 147.15 174.40 146.29 174.25 145.38 C 174.09 144.46 173.23 143.85 172.31 144.00 L 171.31 144.17 C 170.40 144.33 169.79 145.19 169.94 146.11 C 170.10 147.02 170.96 147.63 171.88 147.48 Z M 172.87 147.30 L 173.83 147.14 C 174.74 146.99 175.36 146.13 175.21 145.22 C 175.06 144.32 174.20 143.70 173.29 143.85 L 172.32 144.01 C 171.41 144.16 170.80 145.02 170.95 145.93 C 171.10 146.84 171.96 147.45 172.87 147.30 Z M 173.82 147.14 L 174.81 146.98 C 175.72 146.83 176.33 145.98 176.19 145.07 C 176.04 144.17 175.19 143.55 174.28 143.70 L 173.29 143.86 C 172.39 144.00 171.77 144.86 171.92 145.76 C 172.07 146.67 172.92 147.28 173.82 147.14 Z M 174.81 146.97 L 175.81 146.81 C 176.71 146.67 177.33 145.82 177.19 144.92 C 177.05 144.02 176.20 143.40 175.30 143.55 L 174.29 143.70 C 173.39 143.85 172.77 144.69 172.91 145.59 C 173.06 146.50 173.90 147.11 174.81 146.97 Z M 175.80 146.81 L 176.82 146.65 C 177.72 146.51 178.34 145.67 178.20 144.77 C 178.06 143.87 177.22 143.26 176.32 143.40 L 175.30 143.55 C 174.41 143.69 173.79 144.53 173.93 145.43 C 174.06 146.33 174.90 146.95 175.80 146.81 Z M 176.81 146.64 L 177.83 146.49 C 178.73 146.36 179.35 145.52 179.21 144.63 C 179.08 143.73 178.24 143.12 177.35 143.25 L 176.33 143.40 C 175.43 143.54 174.82 144.37 174.95 145.27 C 175.08 146.16 175.92 146.78 176.81 146.64 Z M 177.83 146.49 L 178.84 146.34 C 179.74 146.21 180.35 145.38 180.22 144.49 C 180.09 143.60 179.27 142.98 178.37 143.11 L 177.36 143.26 C 176.46 143.39 175.85 144.21 175.98 145.11 C 176.11 146.00 176.93 146.62 177.83 146.49 Z M 178.84 146.33 L 179.84 146.19 C 180.73 146.06 181.35 145.24 181.22 144.35 C 181.10 143.46 180.28 142.85 179.39 142.97 L 178.38 143.11 C 177.49 143.24 176.87 144.06 177.00 144.95 C 177.12 145.84 177.95 146.46 178.84 146.33 Z M 179.83 146.18 L 180.82 146.05 C 181.71 145.93 182.33 145.11 182.21 144.23 C 182.09 143.34 181.27 142.72 180.39 142.84 L 179.40 142.98 C 178.51 143.10 177.89 143.91 178.01 144.80 C 178.13 145.68 178.95 146.30 179.83 146.18 Z M 180.82 146.04 L 181.78 145.91 C 182.66 145.80 183.28 144.99 183.17 144.11 C 183.05 143.22 182.24 142.60 181.36 142.72 L 180.39 142.85 C 179.51 142.96 178.89 143.77 179.01 144.66 C 179.12 145.54 179.93 146.16 180.82 146.04 Z M 181.77 145.91 L 182.76 145.78 C 183.64 145.67 184.26 144.87 184.15 143.99 C 184.04 143.11 183.24 142.49 182.36 142.60 L 181.37 142.73 C 180.49 142.84 179.87 143.64 179.98 144.52 C 180.09 145.40 180.89 146.02 181.77 145.91 Z M 182.75 145.78 L 183.86 145.65 C 184.74 145.54 185.36 144.75 185.26 143.87 C 185.15 142.99 184.36 142.37 183.48 142.47 L 182.37 142.61 C 181.49 142.71 180.87 143.51 180.97 144.38 C 181.08 145.26 181.87 145.88 182.75 145.78 Z M 183.85 145.64 L 184.91 145.52 C 185.79 145.42 186.42 144.64 186.32 143.76 C 186.22 142.89 185.43 142.26 184.56 142.36 L 183.49 142.48 C 182.62 142.57 181.99 143.36 182.09 144.24 C 182.19 145.11 182.97 145.74 183.85 145.64 Z M 184.90 145.52 L 185.93 145.41 C 186.80 145.32 187.43 144.54 187.34 143.66 C 187.25 142.79 186.47 142.16 185.59 142.25 L 184.57 142.36 C 183.70 142.45 183.06 143.23 183.16 144.11 C 183.25 144.98 184.03 145.61 184.90 145.52 Z M 185.92 145.41 L 186.91 145.31 C 187.78 145.22 188.41 144.44 188.33 143.57 C 188.24 142.70 187.46 142.07 186.59 142.16 L 185.60 142.26 C 184.73 142.34 184.10 143.12 184.18 143.99 C 184.27 144.86 185.05 145.49 185.92 145.41 Z M 186.90 145.30 L 187.86 145.21 C 188.73 145.13 189.37 144.36 189.28 143.49 C 189.20 142.62 188.43 141.99 187.56 142.07 L 186.60 142.16 C 185.73 142.24 185.10 143.01 185.18 143.88 C 185.26 144.75 186.03 145.39 186.90 145.30 Z M 187.85 145.21 L 188.79 145.12 C 189.66 145.04 190.30 144.28 190.22 143.41 C 190.14 142.55 189.38 141.91 188.51 141.99 L 187.57 142.07 C 186.70 142.15 186.07 142.92 186.14 143.78 C 186.22 144.65 186.99 145.29 187.85 145.21 Z M 188.79 145.12 L 189.72 145.04 C 190.58 144.96 191.22 144.20 191.14 143.34 C 191.07 142.47 190.30 141.84 189.44 141.91 L 188.52 141.99 C 187.65 142.07 187.01 142.83 187.09 143.69 C 187.16 144.56 187.93 145.19 188.79 145.12 Z M 189.71 145.03 L 190.63 144.95 C 191.49 144.88 192.13 144.12 192.06 143.26 C 191.98 142.40 191.22 141.76 190.36 141.84 L 189.44 141.92 C 188.58 141.99 187.95 142.75 188.02 143.61 C 188.09 144.47 188.85 145.11 189.71 145.03 Z M 190.63 144.95 L 190.80 144.94 C 191.66 144.86 192.30 144.11 192.23 143.25 C 192.15 142.39 191.40 141.75 190.54 141.82 L 190.36 141.84 C 189.50 141.91 188.87 142.67 188.94 143.53 C 189.01 144.39 189.77 145.02 190.63 144.95 Z"
      fill="black"
      fill-rule="nonzero" /><path d="M 113.66 132.19 L 112.49 131.93 C 111.54 131.72 110.61 132.32 110.40 133.26 C 110.19 134.20 110.78 135.14 111.73 135.35 L 112.90 135.61 C 113.84 135.82 114.78 135.22 114.99 134.28 C 115.20 133.33 114.60 132.40 113.66 132.19 Z M 112.45 131.90 L 111.32 131.67 C 110.36 131.48 109.42 132.11 109.23 133.07 C 109.04 134.03 109.66 134.97 110.63 135.16 L 111.76 135.38 C 112.73 135.57 113.66 134.95 113.85 133.99 C 114.04 133.02 113.42 132.09 112.45 131.90 Z M 111.23 131.63 L 110.17 131.47 C 109.18 131.33 108.27 132.01 108.12 133.00 C 107.98 133.98 108.66 134.90 109.65 135.05 L 110.71 135.20 C 111.70 135.34 112.62 134.66 112.76 133.68 C 112.90 132.69 112.22 131.77 111.23 131.63 Z M 110.01 131.43 L 109.05 131.38 C 108.04 131.33 107.18 132.10 107.13 133.11 C 107.07 134.12 107.85 134.99 108.86 135.04 L 109.81 135.09 C 110.82 135.14 111.69 134.37 111.74 133.36 C 111.79 132.35 111.02 131.48 110.01 131.43 Z M 108.75 131.36 L 107.94 131.45 C 106.92 131.56 106.18 132.48 106.30 133.50 C 106.41 134.52 107.33 135.26 108.35 135.15 L 109.16 135.06 C 110.18 134.94 110.92 134.03 110.80 133.01 C 110.69 131.98 109.77 131.25 108.75 131.36 Z M 107.41 131.56 L 106.76 131.84 C 105.80 132.25 105.35 133.36 105.76 134.31 C 106.17 135.27 107.28 135.72 108.23 135.31 L 108.88 135.03 C 109.84 134.62 110.29 133.52 109.88 132.56 C 109.47 131.60 108.36 131.16 107.41 131.56 Z M 106.04 132.35 L 105.57 132.92 C 104.89 133.72 104.99 134.92 105.80 135.59 C 106.60 136.27 107.79 136.16 108.47 135.36 L 108.95 134.80 C 109.62 133.99 109.52 132.80 108.72 132.12 C 107.92 131.45 106.72 131.55 106.04 132.35 Z M 105.19 133.65 L 104.97 134.45 C 104.70 135.47 105.30 136.51 106.31 136.78 C 107.32 137.05 108.36 136.45 108.63 135.44 L 108.85 134.63 C 109.12 133.62 108.52 132.58 107.51 132.31 C 106.50 132.04 105.46 132.64 105.19 133.65 Z M 104.90 134.98 L 104.92 135.99 C 104.94 137.03 105.81 137.87 106.86 137.85 C 107.91 137.83 108.74 136.96 108.72 135.91 L 108.70 134.91 C 108.68 133.86 107.81 133.03 106.76 133.05 C 105.72 133.07 104.88 133.94 104.90 134.98 Z M 104.96 136.32 L 105.19 137.48 C 105.39 138.51 106.39 139.18 107.42 138.97 C 108.45 138.77 109.12 137.77 108.91 136.74 L 108.68 135.58 C 108.48 134.55 107.48 133.88 106.45 134.09 C 105.42 134.29 104.75 135.29 104.96 136.32 Z M 105.24 137.68 L 105.59 138.81 C 105.91 139.81 106.98 140.37 107.98 140.05 C 108.98 139.73 109.53 138.67 109.22 137.67 L 108.86 136.54 C 108.55 135.54 107.48 134.98 106.48 135.30 C 105.48 135.61 104.92 136.68 105.24 137.68 Z M 105.63 138.92 L 105.94 139.72 C 106.32 140.70 107.42 141.19 108.40 140.81 C 109.38 140.43 109.87 139.33 109.49 138.35 L 109.18 137.55 C 108.80 136.57 107.70 136.09 106.72 136.47 C 105.74 136.85 105.25 137.95 105.63 138.92 Z M 105.97 139.79 L 106.33 140.62 C 106.75 141.58 107.87 142.03 108.83 141.61 C 109.79 141.19 110.23 140.08 109.82 139.11 L 109.46 138.28 C 109.04 137.32 107.92 136.88 106.96 137.29 C 106.00 137.71 105.56 138.83 105.97 139.79 Z M 106.35 140.67 L 106.76 141.53 C 107.20 142.48 108.33 142.89 109.28 142.45 C 110.23 142.01 110.64 140.88 110.20 139.93 L 109.79 139.07 C 109.35 138.12 108.22 137.71 107.27 138.15 C 106.32 138.59 105.91 139.72 106.35 140.67 Z M 106.77 141.56 L 107.21 142.46 C 107.67 143.40 108.80 143.79 109.74 143.33 C 110.68 142.87 111.07 141.73 110.62 140.79 L 110.18 139.90 C 109.72 138.96 108.58 138.57 107.64 139.03 C 106.70 139.49 106.31 140.62 106.77 141.56 Z M 107.22 142.47 L 107.68 143.40 C 108.15 144.33 109.29 144.71 110.23 144.24 C 111.16 143.77 111.54 142.63 111.07 141.70 L 110.60 140.77 C 110.13 139.84 109.00 139.46 108.06 139.93 C 107.13 140.40 106.75 141.54 107.22 142.47 Z M 107.69 143.41 L 108.17 144.36 C 108.65 145.29 109.79 145.66 110.72 145.19 C 111.65 144.72 112.02 143.58 111.55 142.64 L 111.06 141.69 C 110.59 140.76 109.45 140.39 108.52 140.86 C 107.59 141.33 107.21 142.47 107.69 143.41 Z M 108.17 144.36 L 108.67 145.34 C 109.15 146.27 110.28 146.65 111.22 146.17 C 112.15 145.70 112.52 144.56 112.05 143.63 L 111.55 142.65 C 111.08 141.71 109.94 141.34 109.01 141.81 C 108.07 142.29 107.70 143.43 108.17 144.36 Z M 108.67 145.33 L 109.17 146.34 C 109.64 147.27 110.77 147.65 111.71 147.19 C 112.64 146.72 113.02 145.59 112.56 144.65 L 112.05 143.64 C 111.59 142.71 110.45 142.33 109.52 142.79 C 108.58 143.26 108.20 144.40 108.67 145.33 Z M 109.17 146.32 L 109.61 147.22 C 110.06 148.16 111.19 148.55 112.13 148.09 C 113.07 147.63 113.45 146.50 113.00 145.57 L 112.56 144.67 C 112.10 143.73 110.97 143.34 110.04 143.80 C 109.10 144.26 108.71 145.39 109.17 146.32 Z M 109.60 147.20 L 110.04 148.12 C 110.49 149.05 111.61 149.45 112.55 149.01 C 113.48 148.56 113.88 147.44 113.44 146.50 L 113.00 145.59 C 112.55 144.65 111.43 144.25 110.49 144.70 C 109.56 145.14 109.16 146.26 109.60 147.20 Z M 110.04 148.10 L 110.47 149.03 C 110.91 149.96 112.02 150.37 112.96 149.93 C 113.90 149.50 114.30 148.38 113.87 147.44 L 113.44 146.52 C 113.00 145.58 111.89 145.17 110.95 145.61 C 110.01 146.05 109.60 147.16 110.04 148.10 Z M 110.47 149.01 L 110.89 149.94 C 111.32 150.88 112.43 151.30 113.37 150.87 C 114.30 150.44 114.72 149.33 114.29 148.39 L 113.87 147.46 C 113.44 146.52 112.33 146.11 111.40 146.53 C 110.46 146.96 110.04 148.07 110.47 149.01 Z M 110.89 149.92 L 111.31 150.86 C 111.72 151.80 112.82 152.22 113.76 151.80 C 114.70 151.39 115.13 150.29 114.71 149.35 L 114.29 148.41 C 113.88 147.47 112.78 147.05 111.84 147.47 C 110.90 147.88 110.47 148.98 110.89 149.92 Z M 111.30 150.84 L 111.71 151.77 C 112.12 152.71 113.21 153.14 114.15 152.73 C 115.09 152.33 115.52 151.23 115.11 150.29 L 114.71 149.36 C 114.30 148.42 113.21 147.99 112.27 148.40 C 111.33 148.81 110.90 149.90 111.30 150.84 Z M 111.71 151.75 L 112.10 152.67 C 112.49 153.61 113.58 154.06 114.52 153.66 C 115.46 153.26 115.90 152.17 115.50 151.23 L 115.11 150.31 C 114.72 149.37 113.63 148.93 112.69 149.33 C 111.75 149.73 111.31 150.81 111.71 151.75 Z M 112.10 152.66 L 112.47 153.56 C 112.86 154.50 113.93 154.95 114.88 154.57 C 115.82 154.18 116.27 153.10 115.88 152.16 L 115.50 151.25 C 115.12 150.31 114.04 149.86 113.10 150.25 C 112.16 150.64 111.71 151.71 112.10 152.66 Z M 112.47 153.54 L 112.82 154.43 C 113.20 155.38 114.27 155.83 115.21 155.46 C 116.15 155.08 116.61 154.01 116.24 153.07 L 115.88 152.18 C 115.50 151.24 114.43 150.78 113.49 151.16 C 112.55 151.53 112.09 152.60 112.47 153.54 Z M 112.82 154.41 L 113.19 155.35 C 113.55 156.30 114.61 156.76 115.55 156.40 C 116.50 156.04 116.96 154.98 116.60 154.03 L 116.24 153.09 C 115.87 152.15 114.81 151.68 113.87 152.04 C 112.93 152.41 112.46 153.47 112.82 154.41 Z M 113.19 155.33 L 113.56 156.32 C 113.91 157.27 114.95 157.75 115.90 157.40 C 116.84 157.05 117.32 156.00 116.97 155.06 L 116.60 154.06 C 116.25 153.12 115.20 152.64 114.26 152.99 C 113.32 153.34 112.84 154.38 113.19 155.33 Z M 113.56 156.29 L 113.90 157.26 C 114.23 158.21 115.26 158.70 116.21 158.37 C 117.15 158.04 117.64 157.01 117.31 156.07 L 116.97 155.09 C 116.64 154.15 115.61 153.66 114.66 153.99 C 113.72 154.32 113.23 155.35 113.56 156.29 Z M 113.90 157.23 L 114.22 158.18 C 114.53 159.12 115.55 159.63 116.49 159.32 C 117.43 159.01 117.93 157.99 117.62 157.05 L 117.31 156.10 C 117.00 155.16 115.98 154.65 115.04 154.96 C 114.10 155.28 113.59 156.29 113.90 157.23 Z M 114.22 158.14 L 114.51 159.08 C 114.80 160.02 115.80 160.54 116.74 160.25 C 117.68 159.96 118.20 158.97 117.91 158.03 L 117.62 157.09 C 117.33 156.15 116.33 155.63 115.39 155.92 C 114.46 156.21 113.93 157.20 114.22 158.14 Z M 114.51 159.04 L 114.78 159.97 C 115.05 160.91 116.03 161.45 116.97 161.18 C 117.90 160.91 118.45 159.93 118.18 159.00 L 117.91 158.07 C 117.64 157.13 116.66 156.59 115.72 156.85 C 114.79 157.12 114.24 158.10 114.51 159.04 Z M 114.78 159.93 L 115.03 160.86 C 115.27 161.80 116.23 162.36 117.17 162.11 C 118.11 161.86 118.67 160.90 118.42 159.97 L 118.18 159.04 C 117.93 158.10 116.97 157.54 116.03 157.79 C 115.09 158.03 114.53 158.99 114.78 159.93 Z M 115.03 160.82 L 115.26 161.76 C 115.48 162.69 116.42 163.27 117.36 163.04 C 118.29 162.82 118.87 161.88 118.64 160.94 L 118.42 160.01 C 118.19 159.07 117.25 158.49 116.32 158.72 C 115.38 158.95 114.81 159.89 115.03 160.82 Z M 115.26 161.72 L 115.46 162.63 C 115.66 163.56 116.58 164.15 117.52 163.95 C 118.45 163.74 119.04 162.82 118.84 161.89 L 118.64 160.98 C 118.44 160.05 117.51 159.46 116.58 159.66 C 115.65 159.86 115.06 160.79 115.26 161.72 Z M 115.46 162.59 L 115.63 163.47 C 115.82 164.40 116.72 165.01 117.66 164.82 C 118.59 164.64 119.20 163.73 119.01 162.80 L 118.84 161.92 C 118.65 160.99 117.75 160.39 116.81 160.57 C 115.88 160.76 115.28 161.66 115.46 162.59 Z M 115.64 163.44 L 115.80 164.34 C 115.96 165.27 116.85 165.89 117.78 165.72 C 118.71 165.56 119.33 164.67 119.17 163.74 L 119.01 162.84 C 118.84 161.90 117.95 161.28 117.02 161.45 C 116.09 161.62 115.47 162.51 115.64 163.44 Z M 115.80 164.30 L 115.95 165.23 C 116.09 166.16 116.97 166.79 117.90 166.65 C 118.83 166.50 119.46 165.62 119.31 164.69 L 119.17 163.77 C 119.02 162.84 118.15 162.20 117.22 162.35 C 116.29 162.50 115.65 163.37 115.80 164.30 Z M 115.95 165.20 L 116.08 166.15 C 116.21 167.08 117.07 167.73 118.00 167.60 C 118.93 167.47 119.57 166.61 119.44 165.68 L 119.31 164.73 C 119.18 163.80 118.32 163.15 117.39 163.28 C 116.47 163.41 115.82 164.27 115.95 165.20 Z M 116.09 166.12 L 116.21 167.12 C 116.32 168.04 117.16 168.70 118.09 168.59 C 119.01 168.48 119.67 167.64 119.56 166.71 L 119.44 165.72 C 119.33 164.79 118.48 164.13 117.56 164.24 C 116.63 164.36 115.97 165.20 116.09 166.12 Z M 116.21 167.09 L 116.32 168.13 C 116.42 169.05 117.25 169.72 118.17 169.62 C 119.09 169.53 119.76 168.70 119.66 167.78 L 119.56 166.74 C 119.46 165.82 118.63 165.15 117.71 165.24 C 116.79 165.34 116.12 166.17 116.21 167.09 Z M 116.33 168.10 L 116.42 169.18 C 116.51 170.10 117.32 170.78 118.24 170.70 C 119.16 170.62 119.84 169.81 119.76 168.89 L 119.66 167.80 C 119.58 166.88 118.76 166.20 117.84 166.29 C 116.93 166.37 116.25 167.18 116.33 168.10 Z M 116.43 169.16 L 116.52 170.30 C 116.58 171.21 117.38 171.90 118.30 171.83 C 119.22 171.76 119.90 170.96 119.83 170.05 L 119.75 168.91 C 119.68 168.00 118.88 167.31 117.97 167.38 C 117.05 167.45 116.36 168.24 116.43 169.16 Z M 116.52 170.28 L 116.59 171.31 C 116.64 172.23 117.43 172.92 118.34 172.86 C 119.26 172.81 119.95 172.02 119.89 171.11 L 119.83 170.07 C 119.77 169.16 118.99 168.46 118.07 168.52 C 117.16 168.58 116.46 169.36 116.52 170.28 Z M 116.59 171.30 L 116.64 172.28 C 116.69 173.19 117.47 173.89 118.38 173.84 C 119.29 173.79 119.99 173.01 119.94 172.10 L 119.89 171.12 C 119.84 170.21 119.06 169.51 118.15 169.56 C 117.24 169.61 116.54 170.39 116.59 171.30 Z M 116.65 172.26 L 116.69 173.27 C 116.73 174.18 117.50 174.88 118.41 174.84 C 119.32 174.80 120.02 174.03 119.98 173.12 L 119.94 172.12 C 119.90 171.21 119.13 170.51 118.22 170.55 C 117.31 170.59 116.61 171.35 116.65 172.26 Z M 116.70 173.26 L 116.73 174.28 C 116.77 175.19 117.53 175.89 118.43 175.86 C 119.34 175.83 120.05 175.06 120.01 174.16 L 119.98 173.14 C 119.94 172.23 119.18 171.52 118.28 171.56 C 117.37 171.59 116.66 172.35 116.70 173.26 Z M 116.74 174.27 L 116.77 175.30 C 116.80 176.21 117.55 176.92 118.46 176.89 C 119.36 176.86 120.07 176.11 120.04 175.21 L 120.01 174.17 C 119.98 173.27 119.23 172.56 118.32 172.58 C 117.42 172.61 116.71 173.37 116.74 174.27 Z M 116.78 175.29 L 116.80 176.33 C 116.82 177.23 117.57 177.95 118.47 177.92 C 119.37 177.90 120.08 177.15 120.06 176.25 L 120.04 175.22 C 120.01 174.32 119.27 173.60 118.37 173.62 C 117.47 173.65 116.75 174.39 116.78 175.29 Z M 116.80 176.32 L 116.82 177.36 C 116.84 178.25 117.58 178.97 118.48 178.95 C 119.38 178.94 120.09 178.20 120.07 177.30 L 120.06 176.26 C 120.04 175.37 119.30 174.65 118.40 174.67 C 117.50 174.68 116.79 175.42 116.80 176.32 Z M 116.83 177.35 L 116.84 178.37 C 116.85 179.26 117.59 179.98 118.48 179.97 C 119.38 179.96 120.09 179.22 120.08 178.33 L 120.07 177.31 C 120.06 176.41 119.32 175.70 118.43 175.71 C 117.53 175.72 116.82 176.45 116.83 177.35 Z M 116.85 178.36 L 116.85 179.36 C 116.86 180.26 117.59 180.97 118.48 180.97 C 119.37 180.96 120.09 180.23 120.08 179.34 L 120.08 178.34 C 120.07 177.45 119.34 176.73 118.45 176.73 C 117.56 176.74 116.84 177.47 116.85 178.36 Z M 116.86 179.35 L 116.86 180.33 C 116.86 181.22 117.58 181.94 118.47 181.94 C 119.36 181.94 120.08 181.22 120.08 180.33 L 120.08 179.35 C 120.08 178.46 119.36 177.74 118.47 177.74 C 117.58 177.74 116.86 178.46 116.86 179.35 Z M 116.86 180.32 L 116.86 181.27 C 116.85 182.15 117.57 182.87 118.46 182.88 C 119.34 182.88 120.07 182.17 120.07 181.28 L 120.08 180.34 C 120.08 179.45 119.36 178.73 118.48 178.72 C 117.59 178.72 116.87 179.44 116.86 180.32 Z M 116.86 181.25 L 116.85 182.32 C 116.84 183.21 117.55 183.93 118.43 183.94 C 119.32 183.95 120.04 183.25 120.05 182.36 L 120.07 181.29 C 120.08 180.41 119.37 179.68 118.48 179.67 C 117.60 179.66 116.87 180.37 116.86 181.25 Z M 116.86 182.31 L 116.83 183.46 C 116.81 184.34 117.51 185.07 118.39 185.09 C 119.27 185.11 120.00 184.41 120.02 183.53 L 120.05 182.38 C 120.07 181.50 119.37 180.77 118.49 180.75 C 117.61 180.73 116.88 181.43 116.86 182.31 Z M 116.84 183.43 L 116.79 184.51 C 116.76 185.39 117.44 186.13 118.32 186.17 C 119.20 186.20 119.94 185.52 119.97 184.64 L 120.02 183.56 C 120.05 182.68 119.37 181.94 118.49 181.90 C 117.61 181.87 116.87 182.55 116.84 183.43 Z M 116.80 184.48 L 116.74 185.50 C 116.68 186.37 117.35 187.13 118.22 187.18 C 119.10 187.23 119.85 186.57 119.91 185.69 L 119.97 184.67 C 120.02 183.80 119.36 183.05 118.48 182.99 C 117.61 182.94 116.85 183.60 116.80 184.48 Z M 116.75 185.46 L 116.66 186.43 C 116.58 187.30 117.22 188.06 118.09 188.14 C 118.96 188.22 119.73 187.58 119.81 186.71 L 119.90 185.74 C 119.98 184.87 119.33 184.10 118.46 184.02 C 117.59 183.94 116.82 184.59 116.75 185.46 Z M 116.67 186.37 L 116.55 187.30 C 116.45 188.16 117.06 188.95 117.93 189.06 C 118.79 189.17 119.58 188.55 119.68 187.69 L 119.80 186.76 C 119.91 185.90 119.29 185.11 118.43 185.00 C 117.56 184.89 116.78 185.51 116.67 186.37 Z M 116.57 187.24 L 116.42 188.13 C 116.28 188.99 116.86 189.80 117.72 189.94 C 118.57 190.08 119.38 189.50 119.52 188.64 L 119.67 187.75 C 119.81 186.89 119.23 186.08 118.38 185.94 C 117.52 185.80 116.71 186.38 116.57 187.24 Z M 116.44 188.06 L 116.25 188.93 C 116.07 189.78 116.62 190.61 117.46 190.79 C 118.31 190.97 119.14 190.43 119.32 189.58 L 119.51 188.71 C 119.68 187.87 119.14 187.03 118.30 186.86 C 117.45 186.68 116.62 187.22 116.44 188.06 Z M 116.28 188.86 L 116.04 189.75 C 115.82 190.58 116.32 191.44 117.15 191.66 C 117.99 191.88 118.84 191.38 119.06 190.55 L 119.30 189.66 C 119.52 188.82 119.02 187.97 118.19 187.75 C 117.35 187.53 116.50 188.02 116.28 188.86 Z M 116.06 189.67 L 115.76 190.61 C 115.50 191.43 115.96 192.31 116.78 192.58 C 117.60 192.84 118.48 192.39 118.74 191.56 L 119.04 190.62 C 119.30 189.80 118.85 188.92 118.03 188.66 C 117.21 188.40 116.33 188.85 116.06 189.67 Z M 115.79 190.55 L 115.44 191.48 C 115.14 192.29 115.56 193.18 116.37 193.48 C 117.18 193.78 118.07 193.37 118.37 192.56 L 118.72 191.63 C 119.02 190.82 118.60 189.92 117.79 189.62 C 116.98 189.32 116.09 189.74 115.79 190.55 Z M 115.46 191.42 L 115.08 192.34 C 114.76 193.14 115.14 194.05 115.93 194.38 C 116.73 194.71 117.64 194.33 117.97 193.53 L 118.35 192.61 C 118.68 191.82 118.30 190.90 117.50 190.57 C 116.71 190.25 115.79 190.63 115.46 191.42 Z M 115.10 192.30 L 114.69 193.22 C 114.34 194.00 114.70 194.93 115.48 195.28 C 116.27 195.63 117.19 195.28 117.55 194.49 L 117.95 193.58 C 118.31 192.79 117.95 191.87 117.17 191.51 C 116.38 191.16 115.45 191.52 115.10 192.30 Z M 114.71 193.19 L 114.28 194.10 C 113.91 194.88 114.24 195.81 115.02 196.18 C 115.80 196.54 116.73 196.21 117.10 195.43 L 117.53 194.52 C 117.90 193.74 117.57 192.81 116.79 192.44 C 116.01 192.07 115.08 192.41 114.71 193.19 Z M 114.29 194.08 L 113.84 194.98 C 113.46 195.76 113.78 196.69 114.56 197.07 C 115.33 197.45 116.27 197.13 116.65 196.36 L 117.09 195.45 C 117.47 194.68 117.15 193.74 116.38 193.36 C 115.60 192.98 114.67 193.30 114.29 194.08 Z M 113.85 194.97 L 113.43 195.82 C 113.04 196.59 113.35 197.53 114.13 197.91 C 114.90 198.30 115.84 197.99 116.22 197.21 L 116.64 196.37 C 117.03 195.60 116.71 194.66 115.94 194.27 C 115.17 193.89 114.23 194.20 113.85 194.97 Z"
      fill="black"
      fill-rule="nonzero" /><path d="M 87.26 198.44 L 88.34 198.44 C 89.28 198.44 90.04 197.68 90.04 196.74 C 90.04 195.80 89.28 195.04 88.34 195.04 L 87.26 195.04 C 86.32 195.04 85.56 195.80 85.56 196.74 C 85.56 197.68 86.32 198.44 87.26 198.44 Z M 88.34 198.47 L 89.41 198.47 C 90.37 198.47 91.14 197.69 91.14 196.74 C 91.14 195.78 90.37 195.01 89.41 195.01 L 88.34 195.01 C 87.39 195.01 86.61 195.78 86.61 196.74 C 86.61 197.69 87.39 198.47 88.34 198.47 Z M 89.41 198.50 L 90.48 198.50 C 91.45 198.50 92.24 197.71 92.24 196.74 C 92.24 195.77 91.45 194.98 90.48 194.98 L 89.41 194.98 C 88.44 194.98 87.65 195.77 87.65 196.74 C 87.65 197.71 88.44 198.50 89.41 198.50 Z M 90.48 198.53 L 91.53 198.53 C 92.52 198.53 93.32 197.73 93.32 196.74 C 93.32 195.75 92.52 194.95 91.53 194.95 L 90.48 194.95 C 89.49 194.95 88.69 195.75 88.69 196.74 C 88.69 197.73 89.49 198.53 90.48 198.53 Z M 91.53 198.56 L 92.56 198.56 C 93.57 198.56 94.38 197.74 94.38 196.74 C 94.38 195.73 93.57 194.92 92.56 194.92 L 91.53 194.92 C 90.52 194.92 89.71 195.73 89.71 196.74 C 89.71 197.74 90.52 198.56 91.53 198.56 Z M 92.56 198.59 L 93.57 198.59 C 94.60 198.59 95.42 197.76 95.42 196.74 C 95.42 195.72 94.60 194.89 93.57 194.89 L 92.56 194.89 C 91.54 194.89 90.71 195.72 90.71 196.74 C 90.71 197.76 91.54 198.59 92.56 198.59 Z M 93.57 198.62 L 94.56 198.62 C 95.59 198.62 96.44 197.78 96.44 196.74 C 96.44 195.70 95.59 194.86 94.56 194.86 L 93.57 194.86 C 92.53 194.86 91.69 195.70 91.69 196.74 C 91.69 197.78 92.53 198.62 93.57 198.62 Z M 94.56 198.65 L 95.51 198.65 C 96.56 198.65 97.42 197.79 97.42 196.74 C 97.42 195.68 96.56 194.83 95.51 194.83 L 94.56 194.83 C 93.50 194.83 92.64 195.68 92.64 196.74 C 92.64 197.79 93.50 198.65 94.56 198.65 Z M 95.51 198.68 L 96.42 198.68 C 97.49 198.68 98.36 197.81 98.36 196.74 C 98.36 195.67 97.49 194.80 96.42 194.80 L 95.51 194.80 C 94.43 194.80 93.57 195.67 93.57 196.74 C 93.57 197.81 94.43 198.68 95.51 198.68 Z M 96.42 198.71 L 97.30 198.71 C 98.38 198.71 99.27 197.83 99.27 196.74 C 99.27 195.65 98.38 194.77 97.30 194.77 L 96.42 194.77 C 95.33 194.77 94.45 195.65 94.45 196.74 C 94.45 197.83 95.33 198.71 96.42 198.71 Z M 97.30 198.73 L 98.39 198.73 C 99.49 198.73 100.38 197.84 100.38 196.74 C 100.38 195.64 99.49 194.75 98.39 194.75 L 97.30 194.75 C 96.20 194.75 95.31 195.64 95.31 196.74 C 95.31 197.84 96.20 198.73 97.30 198.73 Z M 98.39 198.73 L 99.47 198.73 C 100.58 198.73 101.47 197.84 101.47 196.74 C 101.47 195.64 100.58 194.74 99.47 194.74 L 98.39 194.74 C 97.29 194.74 96.39 195.64 96.39 196.74 C 96.39 197.84 97.29 198.73 98.39 198.73 Z M 99.47 198.73 L 100.50 198.73 C 101.60 198.73 102.49 197.84 102.49 196.74 C 102.49 195.64 101.60 194.74 100.50 194.74 L 99.47 194.74 C 98.37 194.74 97.48 195.64 97.48 196.74 C 97.48 197.84 98.37 198.73 99.47 198.73 Z M 100.50 198.73 L 101.48 198.73 C 102.58 198.73 103.47 197.84 103.47 196.74 C 103.47 195.64 102.58 194.74 101.48 194.74 L 100.50 194.74 C 99.40 194.74 98.50 195.64 98.50 196.74 C 98.50 197.84 99.40 198.73 100.50 198.73 Z M 101.48 198.73 L 102.42 198.73 C 103.52 198.73 104.42 197.84 104.42 196.74 C 104.42 195.64 103.52 194.74 102.42 194.74 L 101.48 194.74 C 100.37 194.74 99.48 195.64 99.48 196.74 C 99.48 197.84 100.37 198.73 101.48 198.73 Z M 102.42 198.73 L 103.35 198.73 C 104.45 198.73 105.35 197.84 105.35 196.74 C 105.35 195.64 104.45 194.74 103.35 194.74 L 102.42 194.74 C 101.32 194.74 100.43 195.64 100.43 196.74 C 100.43 197.84 101.32 198.73 102.42 198.73 Z M 103.35 198.73 L 104.29 198.73 C 105.39 198.73 106.28 197.84 106.28 196.74 C 106.28 195.64 105.39 194.74 104.29 194.74 L 103.35 194.74 C 102.25 194.74 101.36 195.64 101.36 196.74 C 101.36 197.84 102.25 198.73 103.35 198.73 Z M 104.29 198.73 L 105.22 198.73 C 106.32 198.73 107.22 197.84 107.22 196.74 C 107.22 195.64 106.32 194.74 105.22 194.74 L 104.29 194.74 C 103.18 194.74 102.29 195.64 102.29 196.74 C 102.29 197.84 103.18 198.73 104.29 198.73 Z M 105.22 198.73 L 106.17 198.73 C 107.27 198.73 108.16 197.84 108.16 196.74 C 108.16 195.63 107.27 194.74 106.16 194.74 L 105.22 194.74 C 104.12 194.74 103.22 195.64 103.22 196.74 C 103.23 197.84 104.12 198.73 105.22 198.73 Z M 106.17 198.73 L 107.14 198.73 C 108.24 198.73 109.13 197.83 109.13 196.73 C 109.13 195.63 108.23 194.74 107.13 194.74 L 106.16 194.74 C 105.06 194.74 104.17 195.64 104.17 196.74 C 104.17 197.84 105.07 198.74 106.17 198.73 Z M 107.14 198.73 L 108.13 198.72 C 109.24 198.72 110.12 197.82 110.12 196.72 C 110.11 195.62 109.22 194.73 108.11 194.73 L 107.12 194.74 C 106.02 194.75 105.13 195.64 105.14 196.75 C 105.14 197.85 106.04 198.74 107.14 198.73 Z M 108.14 198.72 L 109.15 198.72 C 110.25 198.71 111.14 197.80 111.13 196.70 C 111.12 195.60 110.22 194.72 109.12 194.73 L 108.11 194.73 C 107.00 194.74 106.12 195.65 106.13 196.75 C 106.14 197.85 107.04 198.73 108.14 198.72 Z M 109.16 198.72 L 110.19 198.70 C 111.29 198.69 112.17 197.78 112.16 196.68 C 112.14 195.58 111.24 194.70 110.14 194.71 L 109.11 194.73 C 108.00 194.74 107.12 195.65 107.14 196.75 C 107.15 197.85 108.06 198.73 109.16 198.72 Z M 110.20 198.70 L 111.25 198.68 C 112.35 198.66 113.23 197.75 113.20 196.65 C 113.18 195.55 112.27 194.67 111.17 194.69 L 110.12 194.71 C 109.02 194.73 108.15 195.64 108.17 196.74 C 108.19 197.85 109.10 198.72 110.20 198.70 Z M 111.26 198.68 L 112.30 198.66 C 113.41 198.63 114.28 197.71 114.25 196.61 C 114.22 195.51 113.30 194.64 112.20 194.67 L 111.16 194.69 C 110.06 194.72 109.19 195.64 109.21 196.74 C 109.24 197.84 110.16 198.71 111.26 198.68 Z M 112.32 198.65 L 113.27 198.62 C 114.37 198.59 115.24 197.67 115.20 196.57 C 115.17 195.46 114.24 194.60 113.14 194.64 L 112.19 194.67 C 111.09 194.70 110.22 195.62 110.26 196.72 C 110.29 197.83 111.22 198.69 112.32 198.65 Z M 113.28 198.62 L 114.25 198.59 C 115.35 198.54 116.21 197.62 116.17 196.52 C 116.13 195.41 115.20 194.56 114.10 194.60 L 113.13 194.64 C 112.03 194.68 111.17 195.61 111.21 196.71 C 111.26 197.81 112.18 198.67 113.28 198.62 Z M 114.26 198.59 L 115.24 198.54 C 116.34 198.49 117.20 197.56 117.15 196.46 C 117.10 195.36 116.16 194.51 115.06 194.55 L 114.08 194.60 C 112.98 194.65 112.13 195.58 112.18 196.68 C 112.23 197.78 113.16 198.64 114.26 198.59 Z M 115.26 198.54 L 116.25 198.49 C 117.35 198.43 118.19 197.49 118.14 196.39 C 118.08 195.29 117.14 194.45 116.04 194.50 L 115.05 194.56 C 113.95 194.61 113.10 195.55 113.16 196.65 C 113.22 197.75 114.16 198.60 115.26 198.54 Z M 116.26 198.49 L 117.27 198.43 C 118.37 198.36 119.21 197.42 119.14 196.32 C 119.07 195.22 118.13 194.38 117.03 194.45 L 116.03 194.50 C 114.93 194.57 114.09 195.51 114.15 196.61 C 114.22 197.71 115.16 198.55 116.26 198.49 Z M 117.28 198.43 L 118.30 198.36 C 119.40 198.29 120.23 197.34 120.16 196.24 C 120.08 195.14 119.13 194.31 118.03 194.38 L 117.02 194.45 C 115.92 194.52 115.08 195.47 115.16 196.57 C 115.23 197.67 116.18 198.50 117.28 198.43 Z M 118.31 198.36 L 119.34 198.28 C 120.44 198.20 121.26 197.24 121.18 196.15 C 121.10 195.05 120.15 194.22 119.05 194.30 L 118.02 194.38 C 116.92 194.46 116.09 195.42 116.17 196.52 C 116.26 197.62 117.21 198.44 118.31 198.36 Z M 119.36 198.28 L 120.40 198.20 C 121.50 198.11 122.31 197.14 122.22 196.05 C 122.13 194.95 121.17 194.13 120.07 194.22 L 119.03 194.30 C 117.93 194.39 117.11 195.36 117.20 196.46 C 117.29 197.55 118.26 198.37 119.36 198.28 Z M 120.41 198.20 L 121.40 198.11 C 122.50 198.01 123.31 197.04 123.21 195.94 C 123.11 194.85 122.14 194.03 121.04 194.13 L 120.06 194.22 C 118.96 194.32 118.15 195.29 118.25 196.39 C 118.35 197.48 119.31 198.29 120.41 198.20 Z M 121.41 198.11 L 122.39 198.01 C 123.48 197.91 124.29 196.93 124.18 195.84 C 124.08 194.74 123.10 193.94 122.01 194.04 L 121.03 194.13 C 119.93 194.24 119.13 195.21 119.24 196.31 C 119.34 197.41 120.31 198.21 121.41 198.11 Z M 122.40 198.01 L 123.38 197.91 C 124.47 197.80 125.27 196.82 125.16 195.73 C 125.05 194.63 124.07 193.83 122.98 193.94 L 122.00 194.04 C 120.90 194.15 120.10 195.13 120.21 196.23 C 120.32 197.32 121.30 198.12 122.40 198.01 Z M 123.39 197.91 L 124.38 197.81 C 125.47 197.69 126.27 196.71 126.15 195.62 C 126.04 194.52 125.06 193.73 123.96 193.84 L 122.97 193.95 C 121.88 194.06 121.08 195.04 121.20 196.14 C 121.31 197.23 122.29 198.03 123.39 197.91 Z M 124.38 197.81 L 125.38 197.70 C 126.47 197.58 127.27 196.60 127.15 195.50 C 127.03 194.41 126.05 193.62 124.95 193.74 L 123.96 193.84 C 122.86 193.96 122.07 194.94 122.19 196.04 C 122.31 197.13 123.29 197.92 124.38 197.81 Z M 125.38 197.70 L 126.38 197.59 C 127.48 197.47 128.27 196.48 128.15 195.39 C 128.03 194.30 127.04 193.51 125.95 193.63 L 124.95 193.74 C 123.86 193.86 123.07 194.84 123.19 195.93 C 123.31 197.03 124.29 197.82 125.38 197.70 Z M 126.39 197.59 L 127.39 197.48 C 128.49 197.35 129.27 196.37 129.15 195.28 C 129.03 194.18 128.05 193.40 126.96 193.52 L 125.95 193.63 C 124.86 193.75 124.07 194.73 124.19 195.83 C 124.31 196.92 125.29 197.71 126.39 197.59 Z M 127.39 197.48 L 128.40 197.36 C 129.49 197.24 130.28 196.26 130.16 195.17 C 130.04 194.07 129.06 193.29 127.96 193.41 L 126.96 193.52 C 125.86 193.64 125.07 194.62 125.19 195.71 C 125.31 196.81 126.30 197.60 127.39 197.48 Z M 128.40 197.36 L 129.41 197.25 C 130.50 197.13 131.29 196.15 131.17 195.06 C 131.05 193.97 130.07 193.18 128.98 193.30 L 127.97 193.41 C 126.87 193.53 126.08 194.51 126.20 195.60 C 126.32 196.69 127.30 197.48 128.40 197.36 Z M 129.40 197.25 L 130.40 197.15 C 131.49 197.03 132.28 196.05 132.17 194.96 C 132.05 193.86 131.07 193.07 129.98 193.19 L 128.98 193.30 C 127.89 193.41 127.10 194.39 127.21 195.49 C 127.33 196.58 128.31 197.37 129.40 197.25 Z M 130.40 197.15 L 131.38 197.04 C 132.48 196.93 133.27 195.95 133.15 194.86 C 133.04 193.76 132.06 192.97 130.97 193.09 L 129.98 193.19 C 128.89 193.30 128.10 194.28 128.21 195.38 C 128.32 196.47 129.30 197.26 130.40 197.15 Z M 131.38 197.04 L 132.37 196.94 C 133.46 196.83 134.25 195.85 134.14 194.76 C 134.03 193.67 133.05 192.87 131.96 192.98 L 130.97 193.09 C 129.88 193.20 129.08 194.18 129.20 195.27 C 129.31 196.36 130.29 197.16 131.38 197.04 Z M 132.37 196.94 L 133.36 196.84 C 134.45 196.73 135.24 195.75 135.13 194.66 C 135.02 193.57 134.04 192.77 132.95 192.88 L 131.96 192.99 C 130.87 193.10 130.07 194.07 130.19 195.17 C 130.30 196.26 131.27 197.05 132.37 196.94 Z M 133.36 196.84 L 134.35 196.73 C 135.44 196.62 136.23 195.65 136.12 194.55 C 136.01 193.46 135.03 192.67 133.94 192.78 L 132.95 192.88 C 131.86 193.00 131.06 193.97 131.18 195.06 C 131.29 196.16 132.26 196.95 133.36 196.84 Z M 134.35 196.73 L 135.34 196.63 C 136.43 196.52 137.23 195.54 137.11 194.45 C 137.00 193.36 136.02 192.57 134.93 192.68 L 133.94 192.78 C 132.85 192.90 132.05 193.87 132.17 194.96 C 132.28 196.05 133.26 196.85 134.35 196.73 Z M 135.35 196.63 L 136.34 196.52 C 137.43 196.41 138.22 195.43 138.11 194.34 C 137.99 193.25 137.01 192.46 135.92 192.58 L 134.93 192.68 C 133.84 192.80 133.05 193.77 133.16 194.86 C 133.28 195.95 134.25 196.74 135.35 196.63 Z M 136.35 196.52 L 137.35 196.41 C 138.44 196.30 139.22 195.32 139.11 194.23 C 138.99 193.14 138.01 192.35 136.92 192.47 L 135.92 192.58 C 134.83 192.69 134.04 193.67 134.16 194.76 C 134.28 195.85 135.26 196.64 136.35 196.52 Z M 137.35 196.41 L 138.36 196.30 C 139.45 196.18 140.23 195.20 140.11 194.11 C 139.99 193.02 139.01 192.24 137.92 192.36 L 136.91 192.47 C 135.82 192.59 135.04 193.57 135.16 194.66 C 135.28 195.75 136.26 196.53 137.35 196.41 Z M 138.36 196.30 L 139.37 196.18 C 140.46 196.06 141.24 195.08 141.11 193.99 C 140.99 192.90 140.00 192.12 138.92 192.24 L 137.91 192.36 C 136.82 192.48 136.04 193.47 136.17 194.56 C 136.29 195.64 137.28 196.43 138.36 196.30 Z M 139.38 196.18 L 140.38 196.06 C 141.47 195.93 142.24 194.95 142.11 193.86 C 141.98 192.77 141.00 192.00 139.91 192.13 L 138.91 192.25 C 137.82 192.38 137.05 193.36 137.18 194.45 C 137.30 195.54 138.29 196.31 139.38 196.18 Z M 140.39 196.06 L 141.39 195.94 C 142.48 195.80 143.25 194.81 143.12 193.73 C 142.98 192.64 141.99 191.87 140.91 192.00 L 139.90 192.13 C 138.82 192.26 138.05 193.25 138.18 194.34 C 138.31 195.42 139.30 196.19 140.39 196.06 Z M 141.40 195.93 L 142.40 195.81 C 143.49 195.67 144.26 194.68 144.12 193.59 C 143.98 192.51 142.99 191.74 141.90 191.88 L 140.90 192.01 C 139.82 192.14 139.05 193.14 139.19 194.22 C 139.32 195.30 140.31 196.07 141.40 195.93 Z M 142.41 195.80 L 143.41 195.67 C 144.50 195.53 145.26 194.54 145.12 193.46 C 144.98 192.37 143.98 191.61 142.90 191.75 L 141.90 191.88 C 140.82 192.02 140.05 193.02 140.19 194.10 C 140.33 195.18 141.33 195.95 142.41 195.80 Z M 143.42 195.67 L 144.42 195.54 C 145.50 195.39 146.26 194.40 146.12 193.32 C 145.97 192.24 144.98 191.48 143.89 191.62 L 142.90 191.75 C 141.81 191.90 141.05 192.89 141.20 193.97 C 141.34 195.06 142.34 195.82 143.42 195.67 Z M 144.42 195.54 L 145.42 195.40 C 146.50 195.25 147.25 194.26 147.11 193.18 C 146.96 192.10 145.96 191.34 144.88 191.49 L 143.89 191.62 C 142.81 191.77 142.05 192.77 142.20 193.85 C 142.35 194.93 143.34 195.68 144.42 195.54 Z M 145.42 195.40 L 146.41 195.26 C 147.49 195.11 148.24 194.11 148.09 193.03 C 147.94 191.95 146.94 191.20 145.86 191.35 L 144.88 191.49 C 143.80 191.64 143.04 192.64 143.19 193.72 C 143.34 194.80 144.34 195.55 145.42 195.40 Z M 146.41 195.26 L 147.39 195.12 C 148.47 194.97 149.22 193.97 149.06 192.89 C 148.91 191.81 147.91 191.06 146.83 191.21 L 145.86 191.35 C 144.78 191.51 144.03 192.50 144.18 193.58 C 144.33 194.66 145.33 195.41 146.41 195.26 Z M 147.39 195.12 L 148.36 194.98 C 149.43 194.82 150.18 193.82 150.02 192.75 C 149.87 191.67 148.87 190.92 147.79 191.08 L 146.83 191.22 C 145.75 191.37 145.00 192.37 145.16 193.45 C 145.31 194.53 146.31 195.27 147.39 195.12 Z M 148.36 194.98 L 149.37 194.83 C 150.45 194.67 151.19 193.67 151.03 192.59 C 150.88 191.52 149.87 190.77 148.80 190.93 L 147.79 191.08 C 146.71 191.24 145.97 192.24 146.12 193.31 C 146.28 194.39 147.28 195.14 148.36 194.98 Z M 149.37 194.83 L 150.39 194.67 C 151.47 194.51 152.21 193.51 152.05 192.44 C 151.89 191.36 150.89 190.62 149.81 190.78 L 148.79 190.93 C 147.72 191.09 146.98 192.09 147.14 193.17 C 147.30 194.24 148.30 194.99 149.37 194.83 Z M 150.40 194.67 L 151.40 194.52 C 152.48 194.36 153.22 193.36 153.06 192.28 C 152.89 191.21 151.89 190.47 150.82 190.63 L 149.81 190.78 C 148.74 190.94 148.00 191.95 148.16 193.02 C 148.32 194.09 149.32 194.83 150.40 194.67 Z M 151.40 194.52 L 152.40 194.37 C 153.47 194.21 154.21 193.20 154.05 192.13 C 153.88 191.06 152.88 190.32 151.81 190.48 L 150.82 190.63 C 149.74 190.80 149.01 191.80 149.17 192.87 C 149.33 193.94 150.33 194.68 151.40 194.52 Z M 152.40 194.37 L 153.38 194.22 C 154.45 194.06 155.19 193.05 155.03 191.98 C 154.87 190.91 153.87 190.17 152.79 190.34 L 151.81 190.48 C 150.74 190.65 150.00 191.65 150.16 192.72 C 150.33 193.79 151.33 194.53 152.40 194.37 Z M 153.38 194.22 L 154.36 194.07 C 155.43 193.91 156.17 192.91 156.00 191.84 C 155.84 190.76 154.84 190.03 153.77 190.19 L 152.79 190.34 C 151.72 190.50 150.99 191.50 151.15 192.57 C 151.31 193.64 152.31 194.38 153.38 194.22 Z M 154.36 194.07 L 155.32 193.92 C 156.40 193.76 157.13 192.76 156.97 191.69 C 156.81 190.62 155.81 189.88 154.74 190.05 L 153.77 190.19 C 152.70 190.35 151.97 191.35 152.13 192.42 C 152.29 193.49 153.28 194.23 154.36 194.07 Z M 155.32 193.92 L 156.29 193.78 C 157.36 193.62 158.10 192.62 157.94 191.55 C 157.78 190.48 156.78 189.74 155.71 189.90 L 154.75 190.05 C 153.68 190.21 152.94 191.20 153.10 192.27 C 153.26 193.34 154.25 194.08 155.32 193.92 Z M 156.28 193.78 L 157.25 193.64 C 158.32 193.48 159.06 192.49 158.90 191.42 C 158.74 190.35 157.75 189.61 156.68 189.76 L 155.72 189.90 C 154.65 190.06 153.91 191.05 154.06 192.12 C 154.22 193.19 155.21 193.93 156.28 193.78 Z M 157.24 193.63 L 158.22 193.49 C 159.29 193.34 160.03 192.35 159.88 191.28 C 159.73 190.21 158.74 189.47 157.67 189.62 L 156.69 189.76 C 155.62 189.92 154.88 190.91 155.03 191.98 C 155.18 193.04 156.17 193.79 157.24 193.63 Z M 158.22 193.49 L 159.20 193.35 C 160.27 193.20 161.01 192.22 160.86 191.15 C 160.71 190.08 159.72 189.34 158.66 189.49 L 157.67 189.63 C 156.61 189.78 155.86 190.76 156.01 191.83 C 156.16 192.90 157.15 193.64 158.22 193.49 Z M 159.20 193.35 L 160.18 193.21 C 161.25 193.07 161.99 192.08 161.84 191.02 C 161.70 189.95 160.71 189.20 159.64 189.35 L 158.66 189.49 C 157.59 189.64 156.85 190.62 157.00 191.69 C 157.15 192.75 158.13 193.50 159.20 193.35 Z M 160.18 193.21 L 161.17 193.08 C 162.23 192.93 162.97 191.95 162.83 190.88 C 162.68 189.82 161.70 189.07 160.63 189.22 L 159.65 189.36 C 158.58 189.50 157.84 190.48 157.98 191.55 C 158.13 192.61 159.11 193.36 160.18 193.21 Z M 161.16 193.07 L 162.15 192.94 C 163.22 192.79 163.96 191.81 163.81 190.75 C 163.67 189.68 162.69 188.94 161.62 189.09 L 160.64 189.22 C 159.57 189.37 158.83 190.35 158.97 191.41 C 159.12 192.48 160.10 193.22 161.16 193.07 Z M 162.15 192.94 L 163.15 192.80 C 164.21 192.65 164.95 191.67 164.80 190.61 C 164.66 189.55 163.68 188.81 162.62 188.95 L 161.62 189.09 C 160.56 189.23 159.82 190.21 159.97 191.28 C 160.11 192.34 161.09 193.08 162.15 192.94 Z M 163.15 192.80 L 164.14 192.66 C 165.20 192.51 165.95 191.53 165.80 190.47 C 165.65 189.41 164.67 188.67 163.61 188.82 L 162.62 188.96 C 161.56 189.10 160.81 190.08 160.96 191.14 C 161.11 192.20 162.09 192.94 163.15 192.80 Z M 164.15 192.66 L 165.15 192.52 C 166.21 192.37 166.95 191.39 166.80 190.33 C 166.65 189.27 165.67 188.53 164.61 188.68 L 163.61 188.82 C 162.55 188.97 161.81 189.95 161.96 191.01 C 162.11 192.06 163.09 192.80 164.15 192.66 Z M 165.15 192.51 L 166.14 192.37 C 167.20 192.22 167.94 191.25 167.79 190.19 C 167.64 189.13 166.66 188.39 165.60 188.54 L 164.61 188.68 C 163.55 188.83 162.82 189.81 162.97 190.87 C 163.11 191.93 164.09 192.66 165.15 192.51 Z M 166.15 192.37 L 167.13 192.23 C 168.18 192.08 168.92 191.10 168.77 190.05 C 168.62 188.99 167.64 188.26 166.58 188.41 L 165.60 188.55 C 164.55 188.70 163.81 189.68 163.96 190.73 C 164.11 191.79 165.09 192.52 166.15 192.37 Z M 167.13 192.23 L 168.12 192.09 C 169.17 191.94 169.90 190.96 169.75 189.91 C 169.60 188.85 168.63 188.12 167.57 188.27 L 166.58 188.41 C 165.53 188.56 164.80 189.54 164.95 190.59 C 165.10 191.65 166.08 192.38 167.13 192.23 Z M 168.12 192.08 L 169.11 191.94 C 170.16 191.79 170.89 190.82 170.74 189.77 C 170.59 188.71 169.62 187.98 168.57 188.13 L 167.57 188.27 C 166.52 188.42 165.79 189.40 165.94 190.45 C 166.09 191.50 167.06 192.23 168.12 192.08 Z M 169.10 191.94 L 170.10 191.80 C 171.15 191.65 171.88 190.68 171.73 189.63 C 171.59 188.58 170.61 187.85 169.56 187.99 L 168.57 188.13 C 167.52 188.28 166.78 189.25 166.93 190.30 C 167.08 191.35 168.05 192.09 169.10 191.94 Z M 170.09 191.80 L 171.08 191.66 C 172.13 191.52 172.87 190.55 172.73 189.50 C 172.58 188.45 171.61 187.72 170.56 187.86 L 169.57 188.00 C 168.52 188.14 167.78 189.11 167.93 190.16 C 168.07 191.21 169.04 191.94 170.09 191.80 Z M 171.08 191.66 L 172.07 191.53 C 173.12 191.39 173.86 190.43 173.72 189.38 C 173.58 188.33 172.62 187.59 171.57 187.73 L 170.57 187.86 C 169.52 188.00 168.78 188.96 168.92 190.01 C 169.06 191.06 170.03 191.80 171.08 191.66 Z M 172.06 191.53 L 173.05 191.40 C 174.10 191.27 174.85 190.31 174.71 189.26 C 174.58 188.21 173.62 187.47 172.57 187.61 L 171.58 187.73 C 170.53 187.86 169.79 188.82 169.92 189.87 C 170.05 190.92 171.01 191.66 172.06 191.53 Z M 173.04 191.40 L 174.03 191.28 C 175.08 191.16 175.83 190.21 175.70 189.16 C 175.58 188.11 174.63 187.36 173.58 187.49 L 172.59 187.61 C 171.54 187.73 170.79 188.68 170.92 189.73 C 171.04 190.78 171.99 191.53 173.04 191.40 Z M 174.02 191.28 L 175.02 191.17 C 176.07 191.05 176.82 190.11 176.71 189.06 C 176.59 188.01 175.64 187.26 174.60 187.38 L 173.59 187.49 C 172.55 187.61 171.79 188.55 171.91 189.60 C 172.03 190.65 172.97 191.40 174.02 191.28 Z M 175.01 191.17 L 176.01 191.06 C 177.06 190.95 177.82 190.02 177.71 188.97 C 177.60 187.92 176.66 187.16 175.62 187.27 L 174.61 187.38 C 173.56 187.49 172.80 188.42 172.91 189.47 C 173.02 190.52 173.96 191.28 175.01 191.17 Z M 176.00 191.06 L 177.00 190.96 C 178.05 190.86 178.81 189.93 178.71 188.88 C 178.61 187.84 177.68 187.07 176.63 187.18 L 175.63 187.27 C 174.58 187.38 173.82 188.31 173.92 189.35 C 174.02 190.40 174.95 191.16 176.00 191.06 Z M 176.99 190.96 L 177.99 190.87 C 179.03 190.77 179.80 189.85 179.71 188.80 C 179.61 187.76 178.69 186.99 177.64 187.09 L 176.64 187.18 C 175.60 187.27 174.83 188.20 174.93 189.24 C 175.02 190.29 175.95 191.06 176.99 190.96 Z M 177.98 190.87 L 178.98 190.78 C 180.02 190.69 180.79 189.77 180.70 188.73 C 180.61 187.68 179.69 186.91 178.65 187.00 L 177.65 187.09 C 176.61 187.18 175.84 188.10 175.93 189.14 C 176.02 190.19 176.94 190.96 177.98 190.87 Z M 178.97 190.78 L 179.96 190.70 C 181.00 190.61 181.78 189.69 181.69 188.65 C 181.61 187.61 180.69 186.84 179.65 186.92 L 178.65 187.00 C 177.61 187.09 176.84 188.01 176.93 189.05 C 177.01 190.09 177.93 190.86 178.97 190.78 Z M 179.96 190.69 L 180.95 190.61 C 181.99 190.53 182.76 189.62 182.68 188.58 C 182.60 187.54 181.68 186.76 180.64 186.84 L 179.65 186.92 C 178.61 187.01 177.84 187.92 177.92 188.96 C 178.01 190.00 178.92 190.78 179.96 190.69 Z M 180.94 190.61 L 181.93 190.53 C 182.97 190.45 183.75 189.54 183.66 188.50 C 183.58 187.46 182.67 186.69 181.63 186.77 L 180.65 186.85 C 179.61 186.93 178.83 187.84 178.91 188.88 C 179.00 189.92 179.90 190.69 180.94 190.61 Z M 181.93 190.53 L 182.91 190.45 C 183.95 190.37 184.73 189.47 184.65 188.43 C 184.57 187.39 183.66 186.62 182.62 186.70 L 181.64 186.77 C 180.60 186.85 179.82 187.76 179.90 188.80 C 179.99 189.83 180.89 190.61 181.93 190.53 Z M 182.91 190.45 L 183.91 190.37 C 184.95 190.29 185.72 189.39 185.64 188.35 C 185.56 187.32 184.65 186.54 183.62 186.62 L 182.62 186.70 C 181.59 186.78 180.81 187.68 180.89 188.72 C 180.97 189.76 181.88 190.53 182.91 190.45 Z M 183.91 190.37 L 184.90 190.29 C 185.94 190.21 186.71 189.31 186.63 188.28 C 186.55 187.24 185.65 186.47 184.61 186.55 L 183.62 186.62 C 182.59 186.70 181.81 187.61 181.89 188.64 C 181.97 189.68 182.88 190.45 183.91 190.37 Z M 184.90 190.29 L 185.89 190.21 C 186.93 190.14 187.70 189.23 187.62 188.20 C 187.54 187.17 186.64 186.40 185.61 186.48 L 184.62 186.55 C 183.58 186.63 182.81 187.53 182.89 188.56 C 182.97 189.59 183.87 190.37 184.90 190.29 Z M 185.89 190.21 L 186.88 190.14 C 187.91 190.06 188.69 189.16 188.61 188.13 C 188.54 187.10 187.64 186.33 186.61 186.41 L 185.61 186.48 C 184.58 186.55 183.81 187.45 183.89 188.48 C 183.96 189.51 184.86 190.29 185.89 190.21 Z M 186.88 190.13 L 187.87 190.06 C 188.90 189.99 189.68 189.10 189.60 188.07 C 189.53 187.04 188.64 186.27 187.61 186.34 L 186.61 186.41 C 185.59 186.48 184.81 187.37 184.88 188.40 C 184.96 189.43 185.85 190.21 186.88 190.13 Z M 187.86 190.06 L 188.86 189.99 C 189.89 189.93 190.67 189.04 190.60 188.01 C 190.53 186.98 189.64 186.21 188.61 186.27 L 187.62 186.34 C 186.59 186.41 185.81 187.30 185.88 188.33 C 185.95 189.35 186.84 190.13 187.86 190.06 Z M 188.85 189.99 L 189.85 189.93 C 190.88 189.87 191.66 188.98 191.60 187.96 C 191.53 186.93 190.65 186.15 189.62 186.21 L 188.62 186.28 C 187.60 186.34 186.82 187.22 186.88 188.25 C 186.94 189.28 187.83 190.06 188.85 189.99 Z M 189.84 189.93 L 190.85 189.87 C 191.87 189.81 192.66 188.93 192.60 187.91 C 192.54 186.89 191.66 186.10 190.64 186.16 L 189.63 186.22 C 188.61 186.28 187.83 187.15 187.88 188.18 C 187.94 189.20 188.82 189.99 189.84 189.93 Z M 190.84 189.87 L 191.87 189.82 C 192.89 189.76 193.68 188.89 193.62 187.87 C 193.57 186.85 192.70 186.06 191.68 186.11 L 190.65 186.16 C 189.63 186.21 188.84 187.09 188.89 188.11 C 188.94 189.13 189.82 189.92 190.84 189.87 Z M 191.85 189.81 L 192.90 189.77 C 193.92 189.72 194.71 188.86 194.66 187.83 C 194.62 186.81 193.75 186.02 192.73 186.07 L 191.69 186.11 C 190.67 186.16 189.87 187.02 189.92 188.05 C 189.97 189.07 190.83 189.86 191.85 189.81 Z M 192.89 189.76 L 193.93 189.72 C 194.95 189.68 195.74 188.82 195.70 187.80 C 195.66 186.78 194.80 185.99 193.78 186.03 L 192.74 186.07 C 191.72 186.11 190.93 186.97 190.97 187.99 C 191.01 189.01 191.87 189.80 192.89 189.76 Z M 193.92 189.72 L 194.95 189.69 C 195.97 189.65 196.77 188.80 196.73 187.78 C 196.70 186.76 195.84 185.96 194.82 185.99 L 193.79 186.03 C 192.77 186.06 191.97 186.92 192.01 187.94 C 192.04 188.96 192.90 189.76 193.92 189.72 Z M 194.94 189.68 L 195.96 189.65 C 196.98 189.62 197.78 188.77 197.75 187.75 C 197.72 186.74 196.87 185.94 195.85 185.97 L 194.83 186.00 C 193.81 186.03 193.01 186.88 193.04 187.89 C 193.07 188.91 193.92 189.71 194.94 189.68 Z M 195.95 189.65 L 196.95 189.62 C 197.96 189.60 198.77 188.75 198.74 187.74 C 198.71 186.72 197.87 185.92 196.85 185.94 L 195.86 185.97 C 194.84 185.99 194.04 186.84 194.06 187.86 C 194.09 188.87 194.93 189.68 195.95 189.65 Z M 196.94 189.62 L 197.91 189.60 C 198.93 189.58 199.73 188.74 199.71 187.72 C 199.69 186.71 198.85 185.90 197.83 185.92 L 196.86 185.95 C 195.84 185.97 195.04 186.81 195.06 187.82 C 195.08 188.84 195.92 189.64 196.94 189.62 Z M 197.90 189.60 L 198.84 189.58 C 199.86 189.56 200.66 188.72 200.65 187.71 C 200.63 186.70 199.79 185.89 198.77 185.91 L 197.84 185.93 C 196.82 185.95 196.02 186.78 196.03 187.80 C 196.05 188.81 196.89 189.62 197.90 189.60 Z M 198.84 189.58 L 199.82 189.56 C 200.83 189.55 201.64 188.71 201.62 187.70 C 201.61 186.69 200.78 185.88 199.76 185.90 L 198.78 185.91 C 197.77 185.93 196.96 186.76 196.98 187.77 C 196.99 188.79 197.83 189.59 198.84 189.58 Z M 199.81 189.56 L 200.93 189.55 C 201.94 189.54 202.75 188.71 202.74 187.70 C 202.73 186.68 201.90 185.87 200.89 185.89 L 199.77 185.90 C 198.76 185.91 197.95 186.74 197.96 187.75 C 197.97 188.76 198.80 189.57 199.81 189.56 Z M 200.93 189.54 L 201.98 189.54 C 202.99 189.53 203.80 188.71 203.80 187.70 C 203.79 186.69 202.97 185.87 201.96 185.88 L 200.90 185.89 C 199.89 185.90 199.08 186.72 199.09 187.73 C 199.09 188.74 199.92 189.55 200.93 189.54 Z M 201.97 189.53 L 202.98 189.53 C 203.99 189.53 204.80 188.71 204.80 187.70 C 204.80 186.70 203.98 185.88 202.97 185.88 L 201.97 185.89 C 200.96 185.89 200.15 186.71 200.15 187.71 C 200.15 188.72 200.97 189.53 201.97 189.53 Z M 202.97 189.53 L 203.93 189.53 C 204.93 189.53 205.75 188.72 205.75 187.72 C 205.76 186.71 204.95 185.89 203.94 185.89 L 202.98 185.89 C 201.98 185.88 201.16 186.70 201.15 187.70 C 201.15 188.71 201.96 189.52 202.97 189.53 Z M 203.91 189.53 L 204.83 189.54 C 205.84 189.55 206.66 188.74 206.67 187.74 C 206.68 186.73 205.87 185.91 204.87 185.90 L 203.95 185.89 C 202.95 185.88 202.13 186.69 202.12 187.69 C 202.11 188.70 202.91 189.52 203.91 189.53 Z M 204.82 189.53 L 205.71 189.55 C 206.71 189.56 207.54 188.77 207.56 187.76 C 207.57 186.76 206.77 185.94 205.77 185.92 L 204.88 185.91 C 203.88 185.89 203.06 186.69 203.04 187.69 C 203.02 188.69 203.82 189.52 204.82 189.53 Z M 205.69 189.54 L 206.68 189.57 C 207.68 189.60 208.52 188.81 208.54 187.81 C 208.57 186.81 207.78 185.98 206.78 185.95 L 205.79 185.93 C 204.79 185.90 203.96 186.69 203.93 187.69 C 203.91 188.69 204.70 189.52 205.69 189.54 Z M 206.64 189.57 L 207.61 189.62 C 208.61 189.67 209.46 188.90 209.51 187.90 C 209.56 186.91 208.80 186.06 207.80 186.01 L 206.83 185.96 C 205.83 185.90 204.98 186.67 204.93 187.67 C 204.88 188.67 205.64 189.52 206.64 189.57 Z M 207.54 189.61 L 208.51 189.70 C 209.51 189.79 210.39 189.06 210.48 188.06 C 210.57 187.07 209.84 186.19 208.84 186.10 L 207.87 186.01 C 206.88 185.92 206.00 186.65 205.91 187.65 C 205.82 188.64 206.55 189.52 207.54 189.61 Z M 208.42 189.68 L 209.40 189.83 C 210.38 189.97 211.30 189.29 211.44 188.31 C 211.59 187.32 210.91 186.41 209.92 186.26 L 208.94 186.12 C 207.96 185.97 207.04 186.65 206.90 187.64 C 206.75 188.62 207.43 189.54 208.42 189.68 Z M 209.28 189.80 L 210.29 190.02 C 211.26 190.23 212.22 189.61 212.43 188.64 C 212.64 187.66 212.02 186.71 211.04 186.50 L 210.04 186.28 C 209.07 186.08 208.11 186.70 207.90 187.67 C 207.69 188.64 208.31 189.60 209.28 189.80 Z M 210.17 189.99 L 211.13 190.26 C 212.09 190.54 213.08 189.98 213.35 189.03 C 213.63 188.07 213.08 187.08 212.12 186.81 L 211.16 186.53 C 210.21 186.26 209.21 186.81 208.94 187.76 C 208.67 188.72 209.22 189.71 210.17 189.99 Z M 211.03 190.23 L 211.93 190.55 C 212.87 190.88 213.89 190.39 214.22 189.45 C 214.55 188.52 214.06 187.49 213.13 187.16 L 212.23 186.84 C 211.29 186.51 210.26 187.00 209.93 187.93 C 209.60 188.87 210.09 189.90 211.03 190.23 Z M 211.84 190.51 L 212.75 190.89 C 213.67 191.27 214.72 190.84 215.10 189.93 C 215.48 189.02 215.05 187.96 214.14 187.58 L 213.22 187.20 C 212.31 186.82 211.26 187.25 210.88 188.16 C 210.49 189.08 210.92 190.13 211.84 190.51 Z M 212.66 190.85 L 213.57 191.29 C 214.46 191.72 215.54 191.35 215.97 190.46 C 216.40 189.57 216.03 188.50 215.14 188.07 L 214.23 187.63 C 213.34 187.19 212.26 187.56 211.83 188.45 C 211.40 189.34 211.77 190.42 212.66 190.85 Z M 213.49 191.24 L 214.38 191.74 C 215.24 192.22 216.33 191.91 216.82 191.05 C 217.30 190.19 216.99 189.10 216.12 188.61 L 215.23 188.12 C 214.36 187.64 213.27 187.95 212.79 188.81 C 212.31 189.67 212.62 190.76 213.49 191.24 Z M 214.29 191.68 L 215.16 192.24 C 215.99 192.77 217.09 192.52 217.62 191.69 C 218.16 190.86 217.91 189.75 217.08 189.22 L 216.21 188.67 C 215.38 188.14 214.28 188.38 213.75 189.22 C 213.21 190.05 213.46 191.15 214.29 191.68 Z M 215.06 192.17 L 215.88 192.77 C 216.68 193.35 217.80 193.18 218.38 192.39 C 218.96 191.59 218.79 190.47 217.99 189.89 L 217.17 189.29 C 216.38 188.71 215.26 188.88 214.68 189.68 C 214.09 190.47 214.27 191.59 215.06 192.17 Z M 215.78 192.69 L 216.59 193.38 C 217.34 194.01 218.47 193.92 219.10 193.17 C 219.74 192.42 219.65 191.30 218.90 190.66 L 218.09 189.97 C 217.34 189.33 216.22 189.43 215.58 190.18 C 214.94 190.93 215.03 192.05 215.78 192.69 Z M 216.49 193.28 L 217.22 194.01 C 217.92 194.71 219.04 194.70 219.74 194.01 C 220.44 193.31 220.43 192.18 219.74 191.49 L 219.00 190.75 C 218.31 190.06 217.18 190.06 216.48 190.76 C 215.79 191.45 215.79 192.58 216.49 193.28 Z M 217.12 193.90 L 217.77 194.67 C 218.40 195.42 219.53 195.52 220.28 194.88 C 221.03 194.25 221.13 193.13 220.49 192.37 L 219.84 191.60 C 219.21 190.85 218.08 190.75 217.33 191.39 C 216.58 192.02 216.48 193.14 217.12 193.90 Z M 217.67 194.54 L 218.23 195.35 C 218.79 196.16 219.91 196.36 220.71 195.80 C 221.52 195.24 221.72 194.13 221.16 193.32 L 220.59 192.51 C 220.03 191.70 218.92 191.50 218.11 192.06 C 217.31 192.62 217.11 193.73 217.67 194.54 Z M 218.14 195.20 L 218.61 196.04 C 219.08 196.90 220.17 197.22 221.03 196.74 C 221.89 196.26 222.20 195.18 221.72 194.32 L 221.25 193.47 C 220.78 192.61 219.69 192.30 218.83 192.78 C 217.97 193.25 217.66 194.34 218.14 195.20 Z M 218.52 195.86 L 218.88 196.74 C 219.26 197.64 220.30 198.08 221.21 197.70 C 222.12 197.32 222.55 196.28 222.17 195.37 L 221.81 194.50 C 221.43 193.59 220.39 193.16 219.48 193.54 C 218.57 193.91 218.14 194.95 218.52 195.86 Z M 218.81 196.52 L 219.08 197.53 C 219.34 198.48 220.31 199.04 221.26 198.78 C 222.21 198.53 222.77 197.55 222.52 196.60 L 222.25 195.59 C 221.99 194.64 221.01 194.08 220.06 194.34 C 219.11 194.59 218.55 195.57 218.81 196.52 Z M 219.03 197.28 L 219.16 198.33 C 219.28 199.30 220.17 199.99 221.15 199.87 C 222.12 199.75 222.82 198.86 222.70 197.89 L 222.57 196.84 C 222.44 195.87 221.56 195.18 220.58 195.30 C 219.60 195.42 218.91 196.31 219.03 197.28 Z M 219.15 198.07 L 219.13 199.09 C 219.11 200.07 219.89 200.88 220.87 200.90 C 221.85 200.92 222.67 200.14 222.69 199.16 L 222.71 198.14 C 222.73 197.16 221.95 196.35 220.97 196.33 C 219.98 196.31 219.17 197.08 219.15 198.07 Z M 219.15 198.81 L 218.98 199.78 C 218.81 200.74 219.46 201.67 220.42 201.84 C 221.39 202.01 222.32 201.37 222.49 200.40 L 222.66 199.44 C 222.83 198.47 222.19 197.54 221.22 197.37 C 220.25 197.20 219.33 197.84 219.15 198.81 Z M 219.06 199.48 L 218.74 200.36 C 218.41 201.29 218.88 202.31 219.81 202.64 C 220.73 202.98 221.75 202.50 222.09 201.58 L 222.41 200.70 C 222.74 199.77 222.27 198.75 221.34 198.41 C 220.42 198.08 219.40 198.56 219.06 199.48 Z M 218.90 200.04 L 218.41 200.83 C 217.90 201.67 218.16 202.77 219.00 203.28 C 219.84 203.79 220.93 203.53 221.45 202.69 L 221.93 201.90 C 222.44 201.06 222.18 199.97 221.34 199.45 C 220.51 198.94 219.41 199.20 218.90 200.04 Z M 218.65 200.54 L 217.99 201.24 C 217.31 201.95 217.34 203.07 218.05 203.74 C 218.76 204.41 219.88 204.39 220.55 203.68 L 221.21 202.98 C 221.89 202.27 221.86 201.15 221.15 200.48 C 220.44 199.81 219.32 199.84 218.65 200.54 Z M 218.21 201.05 L 217.43 201.64 C 216.65 202.22 216.50 203.32 217.08 204.10 C 217.66 204.88 218.77 205.03 219.54 204.45 L 220.32 203.86 C 221.10 203.28 221.26 202.18 220.67 201.40 C 220.09 200.63 218.99 200.47 218.21 201.05 Z M 217.60 201.54 L 216.73 202.05 C 215.90 202.54 215.62 203.61 216.11 204.44 C 216.60 205.27 217.67 205.55 218.50 205.06 L 219.37 204.55 C 220.20 204.06 220.48 202.99 219.99 202.16 C 219.50 201.33 218.43 201.05 217.60 201.54 Z M 216.84 202.01 L 215.92 202.47 C 215.06 202.90 214.72 203.94 215.15 204.80 C 215.58 205.65 216.62 206.00 217.48 205.57 L 218.40 205.11 C 219.25 204.67 219.60 203.63 219.17 202.78 C 218.74 201.92 217.69 201.58 216.84 202.01 Z M 215.95 202.46 L 215.50 202.68 C 214.64 203.09 214.28 204.12 214.69 204.98 C 215.10 205.84 216.13 206.20 216.99 205.79 L 217.44 205.58 C 218.30 205.16 218.67 204.13 218.25 203.27 C 217.84 202.41 216.81 202.05 215.95 202.46 Z"
      fill="black"
      fill-rule="nonzero" /></svg>