<svg xmlns="http://www.w3.org/2000/svg" width="300" height="300" viewBox="0 0 300 300">
<path d="M 131.82 89.78 L 131.71 90.76 C 131.60 91.73 132.29 92.60 133.26 92.71 C 134.22 92.82 135.09 92.12 135.20 91.16 L 135.31 90.17 C 135.42 89.21 134.73 88.34 133.76 88.23 C 132.79 88.12 131.92 88.82 131.82 89.78 Z M 131.69 90.75 L 131.58 91.74 C 131.46 92.71 132.16 93.59 133.13 93.71 C 134.10 93.82 134.98 93.12 135.10 92.15 L 135.22 91.17 C 135.33 90.20 134.63 89.31 133.66 89.20 C 132.69 89.08 131.81 89.78 131.69 90.75 Z M 131.56 91.71 L 131.44 92.70 C 131.31 93.68 132.00 94.58 132.98 94.70 C 133.96 94.83 134.86 94.14 134.98 93.16 L 135.11 92.17 C 135.24 91.20 134.55 90.30 133.57 90.17 C 132.59 90.04 131.69 90.73 131.56 91.71 Z M 131.43 92.67 L 131.28 93.66 C 131.14 94.64 131.82 95.56 132.80 95.70 C 133.79 95.85 134.70 95.17 134.85 94.18 L 134.99 93.19 C 135.14 92.21 134.46 91.29 133.47 91.15 C 132.49 91.00 131.57 91.68 131.43 92.67 Z M 131.27 93.61 L 131.10 94.61 C 130.93 95.59 131.60 96.53 132.59 96.70 C 133.58 96.87 134.52 96.21 134.69 95.22 L 134.85 94.22 C 135.02 93.24 134.36 92.30 133.37 92.13 C 132.38 91.96 131.44 92.62 131.27 93.61 Z M 131.10 94.55 L 130.90 95.55 C 130.70 96.54 131.34 97.51 132.34 97.70 C 133.33 97.90 134.29 97.26 134.49 96.27 L 134.69 95.27 C 134.89 94.28 134.24 93.31 133.25 93.12 C 132.26 92.92 131.30 93.56 131.10 94.55 Z M 130.90 95.49 L 130.67 96.46 C 130.44 97.45 131.06 98.44 132.05 98.67 C 133.04 98.90 134.03 98.29 134.26 97.30 L 134.49 96.33 C 134.72 95.34 134.10 94.34 133.11 94.11 C 132.12 93.88 131.13 94.50 130.90 95.49 Z M 130.68 96.40 L 130.42 97.37 C 130.16 98.36 130.75 99.38 131.74 99.64 C 132.73 99.90 133.74 99.31 134.01 98.32 L 134.26 97.35 C 134.52 96.36 133.93 95.35 132.94 95.09 C 131.95 94.82 130.94 95.41 130.68 96.40 Z M 130.43 97.32 L 130.14 98.28 C 129.85 99.27 130.42 100.31 131.40 100.60 C 132.39 100.89 133.43 100.33 133.72 99.34 L 134.00 98.37 C 134.29 97.39 133.73 96.35 132.74 96.06 C 131.75 95.77 130.72 96.33 130.43 97.32 Z M 130.15 98.23 L 129.84 99.19 C 129.52 100.18 130.06 101.23 131.04 101.55 C 132.03 101.87 133.08 101.33 133.40 100.35 L 133.71 99.39 C 134.03 98.40 133.49 97.35 132.51 97.03 C 131.52 96.71 130.47 97.25 130.15 98.23 Z M 129.84 99.14 L 129.51 100.09 C 129.16 101.07 129.68 102.15 130.66 102.49 C 131.64 102.84 132.72 102.32 133.06 101.34 L 133.40 100.39 C 133.74 99.41 133.23 98.34 132.24 97.99 C 131.26 97.65 130.19 98.16 129.84 99.14 Z M 129.52 100.04 L 129.16 100.97 C 128.79 101.95 129.28 103.04 130.26 103.41 C 131.24 103.79 132.33 103.29 132.70 102.32 L 133.06 101.39 C 133.43 100.41 132.94 99.32 131.96 98.95 C 130.98 98.57 129.89 99.06 129.52 100.04 Z M 129.17 100.93 L 128.80 101.84 C 128.40 102.81 128.87 103.92 129.84 104.32 C 130.81 104.71 131.92 104.25 132.32 103.28 L 132.69 102.36 C 133.09 101.39 132.62 100.28 131.65 99.88 C 130.68 99.49 129.57 99.95 129.17 100.93 Z M 128.81 101.79 L 128.42 102.69 C 128.00 103.65 128.44 104.78 129.40 105.20 C 130.36 105.62 131.49 105.19 131.91 104.22 L 132.31 103.32 C 132.73 102.36 132.29 101.24 131.33 100.81 C 130.36 100.39 129.24 100.83 128.81 101.79 Z M 128.44 102.64 L 128.02 103.52 C 127.57 104.48 127.98 105.62 128.93 106.07 C 129.88 106.52 131.02 106.11 131.47 105.16 L 131.89 104.27 C 132.34 103.32 131.94 102.18 130.98 101.73 C 130.03 101.28 128.89 101.68 128.44 102.64 Z M 128.04 103.47 L 127.59 104.35 C 127.11 105.29 127.49 106.45 128.43 106.93 C 129.37 107.41 130.53 107.03 131.01 106.09 L 131.45 105.21 C 131.93 104.27 131.56 103.11 130.62 102.63 C 129.67 102.15 128.52 102.53 128.04 103.47 Z M 127.62 104.30 L 127.13 105.18 C 126.63 106.11 126.97 107.28 127.90 107.78 C 128.83 108.29 129.99 107.95 130.50 107.02 L 130.98 106.14 C 131.49 105.21 131.15 104.04 130.22 103.54 C 129.29 103.03 128.12 103.37 127.62 104.30 Z M 127.16 105.13 L 126.64 106.02 C 126.10 106.93 126.41 108.11 127.33 108.65 C 128.24 109.18 129.42 108.88 129.96 107.96 L 130.48 107.07 C 131.01 106.16 130.71 104.98 129.79 104.44 C 128.87 103.90 127.70 104.21 127.16 105.13 Z M 126.66 105.97 L 126.14 106.81 C 125.58 107.71 125.85 108.90 126.76 109.46 C 127.66 110.02 128.85 109.75 129.41 108.84 L 129.93 108.01 C 130.50 107.10 130.22 105.91 129.32 105.35 C 128.41 104.79 127.23 105.06 126.66 105.97 Z M 126.16 106.77 L 125.66 107.53 C 125.07 108.42 125.32 109.62 126.21 110.21 C 127.10 110.79 128.30 110.54 128.88 109.65 L 129.39 108.89 C 129.97 107.99 129.73 106.80 128.84 106.21 C 127.94 105.63 126.75 105.88 126.16 106.77 Z M 125.68 107.50 L 125.15 108.28 C 124.54 109.15 124.76 110.36 125.64 110.96 C 126.52 111.57 127.72 111.35 128.33 110.47 L 128.86 109.69 C 129.47 108.81 129.25 107.61 128.37 107.00 C 127.49 106.40 126.29 106.62 125.68 107.50 Z M 125.17 108.24 L 124.60 109.03 C 123.97 109.90 124.17 111.11 125.04 111.73 C 125.90 112.35 127.11 112.16 127.73 111.29 L 128.30 110.50 C 128.93 109.64 128.73 108.43 127.87 107.80 C 127.00 107.18 125.79 107.38 125.17 108.24 Z M 124.62 109.00 L 124.02 109.80 C 123.37 110.66 123.55 111.87 124.40 112.51 C 125.25 113.15 126.47 112.98 127.11 112.13 L 127.71 111.32 C 128.35 110.47 128.18 109.26 127.33 108.62 C 126.47 107.97 125.26 108.15 124.62 109.00 Z M 124.04 109.77 L 123.40 110.59 C 122.74 111.43 122.89 112.65 123.73 113.30 C 124.57 113.96 125.79 113.82 126.45 112.97 L 127.09 112.16 C 127.75 111.32 127.60 110.10 126.76 109.44 C 125.91 108.78 124.70 108.93 124.04 109.77 Z M 123.42 110.56 L 122.75 111.38 C 122.07 112.21 122.20 113.43 123.03 114.11 C 123.86 114.79 125.08 114.66 125.75 113.83 L 126.43 113.00 C 127.10 112.17 126.98 110.95 126.15 110.28 C 125.32 109.60 124.10 109.73 123.42 110.56 Z M 122.77 111.36 L 122.06 112.19 C 121.37 113.01 121.47 114.24 122.29 114.93 C 123.11 115.62 124.34 115.52 125.03 114.70 L 125.73 113.86 C 126.42 113.04 126.32 111.82 125.50 111.12 C 124.68 110.43 123.46 110.54 122.77 111.36 Z M 122.08 112.17 L 121.45 112.89 C 120.75 113.70 120.83 114.93 121.64 115.63 C 122.45 116.34 123.67 116.25 124.38 115.44 L 125.01 114.72 C 125.71 113.91 125.63 112.69 124.82 111.98 C 124.01 111.28 122.79 111.36 122.08 112.17 Z M 121.47 112.87 L 120.82 113.60 C 120.10 114.40 120.17 115.62 120.97 116.34 C 121.76 117.06 122.99 116.99 123.71 116.19 L 124.36 115.46 C 125.07 114.67 125.01 113.44 124.21 112.72 C 123.41 112.01 122.18 112.07 121.47 112.87 Z M 120.83 113.58 L 120.16 114.31 C 119.43 115.10 119.48 116.32 120.27 117.05 C 121.06 117.78 122.29 117.73 123.02 116.94 L 123.69 116.21 C 124.42 115.42 124.37 114.19 123.58 113.47 C 122.79 112.74 121.56 112.79 120.83 113.58 Z M 120.18 114.29 L 119.49 115.02 C 118.75 115.80 118.78 117.03 119.56 117.76 C 120.34 118.50 121.57 118.47 122.31 117.69 L 123.00 116.96 C 123.74 116.18 123.70 114.95 122.92 114.21 C 122.15 113.48 120.92 113.51 120.18 114.29 Z M 119.51 115.00 L 118.80 115.73 C 118.05 116.49 118.07 117.72 118.84 118.47 C 119.61 119.22 120.84 119.20 121.59 118.43 L 122.29 117.71 C 123.04 116.94 123.02 115.71 122.25 114.96 C 121.48 114.21 120.25 114.23 119.51 115.00 Z M 118.82 115.71 L 118.10 116.43 C 117.34 117.19 117.34 118.42 118.10 119.17 C 118.86 119.93 120.09 119.93 120.85 119.17 L 121.57 118.45 C 122.33 117.69 122.33 116.46 121.57 115.70 C 120.81 114.95 119.58 114.95 118.82 115.71 Z M 118.12 116.41 L 117.39 117.12 C 116.62 117.87 116.60 119.10 117.35 119.87 C 118.10 120.64 119.33 120.65 120.10 119.90 L 120.83 119.19 C 121.60 118.44 121.62 117.21 120.87 116.44 C 120.12 115.67 118.89 115.66 118.12 116.41 Z M 117.41 117.10 L 116.67 117.80 C 115.89 118.54 115.86 119.77 116.60 120.55 C 117.34 121.33 118.57 121.36 119.35 120.62 L 120.08 119.92 C 120.86 119.18 120.89 117.95 120.16 117.17 C 119.42 116.39 118.19 116.36 117.41 117.10 Z M 116.69 117.78 L 115.95 118.46 C 115.16 119.19 115.11 120.42 115.84 121.21 C 116.57 122.00 117.80 122.05 118.59 121.32 L 119.33 120.64 C 120.12 119.91 120.17 118.68 119.44 117.89 C 118.71 117.10 117.48 117.05 116.69 117.78 Z M 115.97 118.44 L 115.25 119.09 C 114.45 119.81 114.38 121.04 115.10 121.84 C 115.81 122.64 117.04 122.70 117.84 121.99 L 118.57 121.34 C 119.37 120.62 119.44 119.39 118.72 118.59 C 118.00 117.79 116.77 117.72 115.97 118.44 Z M 115.27 119.07 L 114.54 119.70 C 113.73 120.41 113.64 121.64 114.34 122.45 C 115.05 123.26 116.27 123.35 117.09 122.64 L 117.82 122.01 C 118.63 121.31 118.72 120.08 118.02 119.27 C 117.31 118.45 116.08 118.37 115.27 119.07 Z M 114.57 119.68 L 113.82 120.30 C 113.00 120.99 112.89 122.22 113.57 123.04 C 114.26 123.87 115.49 123.98 116.31 123.29 L 117.06 122.67 C 117.88 121.98 117.99 120.75 117.31 119.93 C 116.62 119.10 115.39 118.99 114.57 119.68 Z M 113.85 120.28 L 113.09 120.89 C 112.25 121.56 112.12 122.79 112.79 123.62 C 113.46 124.46 114.68 124.60 115.52 123.93 L 116.28 123.31 C 117.12 122.64 117.26 121.42 116.58 120.58 C 115.91 119.74 114.69 119.61 113.85 120.28 Z M 113.12 120.87 L 112.34 121.47 C 111.49 122.12 111.33 123.34 111.98 124.19 C 112.63 125.05 113.86 125.21 114.71 124.55 L 115.49 123.95 C 116.34 123.30 116.50 122.08 115.85 121.22 C 115.19 120.37 113.97 120.21 113.12 120.87 Z M 112.37 121.44 L 111.56 122.03 C 110.70 122.67 110.51 123.89 111.15 124.75 C 111.78 125.62 113.00 125.81 113.87 125.17 L 114.67 124.58 C 115.54 123.94 115.73 122.72 115.09 121.86 C 114.45 120.99 113.24 120.81 112.37 121.44 Z M 111.60 122.01 L 110.76 122.59 C 109.88 123.21 109.67 124.42 110.28 125.30 C 110.90 126.18 112.11 126.40 112.99 125.78 L 113.83 125.20 C 114.71 124.58 114.92 123.37 114.31 122.49 C 113.69 121.61 112.48 121.39 111.60 122.01 Z M 110.80 122.57 L 109.93 123.15 C 109.04 123.75 108.79 124.95 109.39 125.85 C 109.99 126.74 111.19 126.98 112.09 126.39 L 112.96 125.81 C 113.85 125.21 114.09 124.00 113.50 123.11 C 112.90 122.21 111.69 121.97 110.80 122.57 Z M 109.96 123.13 L 109.08 123.69 C 108.17 124.27 107.91 125.47 108.48 126.37 C 109.06 127.28 110.26 127.55 111.17 126.97 L 112.05 126.41 C 112.96 125.83 113.23 124.63 112.65 123.72 C 112.07 122.82 110.87 122.55 109.96 123.13 Z M 109.11 123.67 L 108.28 124.18 C 107.36 124.74 107.07 125.93 107.62 126.85 C 108.18 127.77 109.38 128.06 110.29 127.50 L 111.13 126.99 C 112.05 126.43 112.34 125.24 111.78 124.32 C 111.23 123.40 110.03 123.11 109.11 123.67 Z M 108.31 124.16 L 107.44 124.67 C 106.51 125.21 106.20 126.40 106.74 127.32 C 107.28 128.25 108.47 128.56 109.40 128.02 L 110.26 127.52 C 111.19 126.98 111.50 125.79 110.96 124.86 C 110.42 123.93 109.23 123.62 108.31 124.16 Z M 107.47 124.65 L 106.59 125.15 C 105.65 125.67 105.32 126.85 105.84 127.79 C 106.37 128.72 107.55 129.06 108.48 128.53 L 109.37 128.04 C 110.31 127.51 110.64 126.33 110.11 125.40 C 109.59 124.46 108.41 124.13 107.47 124.65 Z M 106.62 125.13 L 105.71 125.62 C 104.77 126.12 104.42 127.30 104.93 128.25 C 105.43 129.19 106.61 129.54 107.56 129.03 L 108.46 128.55 C 109.40 128.04 109.75 126.86 109.24 125.92 C 108.74 124.98 107.56 124.62 106.62 125.13 Z M 105.74 125.60 L 104.83 126.07 C 103.88 126.57 103.51 127.74 104.00 128.69 C 104.49 129.64 105.67 130.01 106.62 129.52 L 107.53 129.05 C 108.48 128.56 108.85 127.38 108.36 126.43 C 107.87 125.48 106.70 125.11 105.74 125.60 Z M 104.86 126.06 L 103.95 126.51 C 102.99 126.99 102.60 128.15 103.07 129.11 C 103.55 130.07 104.71 130.46 105.67 129.99 L 106.59 129.53 C 107.55 129.06 107.94 127.89 107.46 126.93 C 106.99 125.97 105.82 125.58 104.86 126.06 Z M 103.98 126.50 L 103.06 126.94 C 102.10 127.40 101.69 128.55 102.15 129.52 C 102.61 130.48 103.76 130.89 104.73 130.43 L 105.64 130.00 C 106.61 129.54 107.02 128.38 106.56 127.42 C 106.10 126.45 104.94 126.04 103.98 126.50 Z M 103.10 126.92 L 102.19 127.34 C 101.21 127.78 100.78 128.93 101.23 129.90 C 101.67 130.87 102.82 131.30 103.79 130.86 L 104.70 130.45 C 105.67 130.00 106.10 128.86 105.66 127.88 C 105.22 126.91 104.07 126.48 103.10 126.92 Z M 102.22 127.32 L 101.32 127.71 C 100.34 128.13 99.89 129.27 100.32 130.25 C 100.74 131.24 101.88 131.69 102.86 131.26 L 103.76 130.87 C 104.74 130.45 105.19 129.31 104.77 128.33 C 104.34 127.35 103.20 126.90 102.22 127.32 Z M 101.36 127.70 L 100.46 128.07 C 99.47 128.47 99.00 129.60 99.40 130.59 C 99.81 131.58 100.94 132.05 101.92 131.64 L 102.83 131.28 C 103.81 130.87 104.29 129.74 103.88 128.75 C 103.48 127.76 102.35 127.29 101.36 127.70 Z M 100.51 128.05 L 99.42 128.46 C 98.43 128.84 97.93 129.96 98.31 130.95 C 98.68 131.95 99.80 132.45 100.79 132.07 L 101.88 131.66 C 102.87 131.28 103.37 130.17 102.99 129.17 C 102.62 128.17 101.50 127.67 100.51 128.05 Z M 99.49 128.45 L 98.44 128.81 C 97.44 129.15 96.90 130.24 97.24 131.24 C 97.59 132.25 98.68 132.78 99.68 132.44 L 100.73 132.08 C 101.73 131.74 102.27 130.65 101.93 129.65 C 101.58 128.64 100.49 128.11 99.49 128.45 Z M 98.52 128.79 L 97.50 129.09 C 96.49 129.39 95.91 130.45 96.21 131.47 C 96.51 132.48 97.57 133.06 98.59 132.76 L 99.60 132.46 C 100.61 132.16 101.19 131.10 100.89 130.08 C 100.60 129.07 99.53 128.49 98.52 128.79 Z M 97.60 129.07 L 96.62 129.31 C 95.60 129.56 94.97 130.58 95.21 131.61 C 95.46 132.63 96.49 133.26 97.51 133.01 L 98.49 132.77 C 99.51 132.53 100.14 131.50 99.90 130.48 C 99.65 129.46 98.62 128.83 97.60 129.07 Z M 96.73 129.29 L 95.78 129.46 C 94.75 129.65 94.06 130.63 94.25 131.66 C 94.43 132.69 95.42 133.38 96.45 133.20 L 97.40 133.03 C 98.43 132.84 99.11 131.86 98.93 130.83 C 98.75 129.80 97.76 129.11 96.73 129.29 Z M 95.92 129.45 L 95.00 129.55 C 93.96 129.66 93.21 130.59 93.32 131.62 C 93.43 132.66 94.36 133.41 95.40 133.30 L 96.31 133.21 C 97.35 133.10 98.10 132.17 97.99 131.13 C 97.88 130.10 96.95 129.34 95.92 129.45 Z M 95.16 129.55 L 94.27 129.57 C 93.24 129.59 92.41 130.45 92.43 131.49 C 92.46 132.52 93.32 133.35 94.35 133.32 L 95.24 133.30 C 96.28 133.28 97.10 132.42 97.08 131.38 C 97.05 130.35 96.19 129.52 95.16 129.55 Z M 94.45 129.58 L 93.58 129.51 C 92.55 129.44 91.65 130.21 91.58 131.24 C 91.50 132.27 92.27 133.17 93.30 133.24 L 94.17 133.31 C 95.20 133.39 96.10 132.61 96.18 131.58 C 96.26 130.55 95.48 129.66 94.45 129.58 Z M 93.79 129.56 L 92.81 129.37 C 91.80 129.18 90.83 129.84 90.64 130.85 C 90.44 131.86 91.11 132.83 92.11 133.02 L 93.10 133.20 C 94.10 133.39 95.08 132.73 95.27 131.73 C 95.46 130.72 94.80 129.75 93.79 129.56 Z M 93.00 129.43 L 92.05 129.15 C 91.08 128.85 90.05 129.39 89.76 130.37 C 89.46 131.34 90.00 132.37 90.98 132.66 L 91.92 132.95 C 92.89 133.25 93.92 132.70 94.22 131.73 C 94.52 130.76 93.97 129.73 93.00 129.43 Z M 92.20 129.22 L 91.29 128.84 C 90.36 128.46 89.30 128.91 88.91 129.84 C 88.53 130.77 88.98 131.83 89.91 132.22 L 90.82 132.59 C 91.76 132.97 92.82 132.52 93.20 131.59 C 93.58 130.66 93.14 129.60 92.20 129.22 Z M 91.40 128.91 L 90.51 128.47 C 89.62 128.03 88.53 128.40 88.09 129.29 C 87.65 130.18 88.02 131.26 88.91 131.71 L 89.80 132.15 C 90.69 132.59 91.78 132.22 92.22 131.33 C 92.66 130.44 92.29 129.35 91.40 128.91 Z M 90.58 128.53 L 89.71 128.04 C 88.85 127.56 87.76 127.87 87.28 128.73 C 86.79 129.59 87.10 130.68 87.96 131.16 L 88.84 131.65 C 89.70 132.13 90.79 131.82 91.27 130.96 C 91.75 130.10 91.44 129.01 90.58 128.53 Z M 89.74 128.08 L 88.88 127.57 C 88.04 127.06 86.96 127.34 86.45 128.17 C 85.95 129.01 86.22 130.10 87.06 130.60 L 87.93 131.12 C 88.76 131.62 89.85 131.35 90.35 130.51 C 90.86 129.67 90.58 128.59 89.74 128.08 Z M 88.89 127.59 L 88.40 127.29 C 87.57 126.78 86.49 127.04 85.99 127.86 C 85.48 128.69 85.74 129.77 86.56 130.28 L 87.05 130.58 C 87.88 131.09 88.96 130.83 89.47 130.00 C 89.98 129.18 89.72 128.09 88.89 127.59 Z"
      fill="black"
      fill-rule="nonzero" /><path d="M 158.38 50.51 L 158.38 51.52 C 158.38 52.43 159.11 53.17 160.02 53.17 C 160.93 53.17 161.67 52.43 161.67 51.52 L 161.67 50.51 C 161.67 49.60 160.93 48.86 160.02 48.86 C 159.11 48.86 158.38 49.60 158.38 50.51 Z M 158.34 51.52 L 158.34 52.53 C 158.34 53.46 159.09 54.21 160.02 54.21 C 160.95 54.21 161.71 53.46 161.71 52.53 L 161.71 51.52 C 161.71 50.59 160.95 49.83 160.02 49.83 C 159.09 49.83 158.34 50.59 158.34 51.52 Z M 158.30 52.53 L 158.30 53.53 C 158.30 54.49 159.07 55.26 160.02 55.26 C 160.98 55.26 161.75 54.49 161.75 53.53 L 161.75 52.53 C 161.75 51.58 160.98 50.80 160.02 50.80 C 159.07 50.80 158.30 51.58 158.30 52.53 Z M 158.26 53.53 L 158.26 54.54 C 158.26 55.51 159.05 56.30 160.02 56.30 C 161.00 56.30 161.79 55.51 161.79 54.54 L 161.79 53.53 C 161.79 52.56 161.00 51.77 160.02 51.77 C 159.05 51.77 158.26 52.56 158.26 53.53 Z M 158.22 54.54 L 158.22 55.54 C 158.22 56.53 159.03 57.34 160.02 57.34 C 161.02 57.34 161.83 56.53 161.83 55.54 L 161.83 54.54 C 161.83 53.54 161.02 52.73 160.02 52.73 C 159.03 52.73 158.22 53.54 158.22 54.54 Z M 158.18 55.54 L 158.18 56.53 C 158.18 57.55 159.00 58.38 160.02 58.38 C 161.04 58.38 161.87 57.55 161.87 56.53 L 161.87 55.54 C 161.87 54.52 161.04 53.69 160.02 53.69 C 159.00 53.69 158.18 54.52 158.18 55.54 Z M 158.14 56.53 L 158.14 57.52 C 158.14 58.56 158.98 59.40 160.02 59.40 C 161.06 59.40 161.91 58.56 161.91 57.52 L 161.91 56.53 C 161.91 55.49 161.06 54.65 160.02 54.65 C 158.98 54.65 158.14 55.49 158.14 56.53 Z M 158.11 57.52 L 158.11 58.51 C 158.11 59.56 158.96 60.42 160.02 60.42 C 161.08 60.42 161.94 59.56 161.94 58.51 L 161.94 57.52 C 161.94 56.46 161.08 55.61 160.02 55.61 C 158.96 55.61 158.11 56.46 158.11 57.52 Z M 158.09 58.51 L 158.09 59.49 C 158.09 60.56 158.96 61.42 160.02 61.42 C 161.09 61.42 161.95 60.56 161.95 59.49 L 161.95 58.51 C 161.95 57.44 161.09 56.58 160.02 56.58 C 158.96 56.58 158.09 57.44 158.09 58.51 Z M 158.09 59.49 L 158.09 60.47 C 158.09 61.54 158.96 62.40 160.02 62.40 C 161.09 62.40 161.95 61.54 161.95 60.47 L 161.95 59.49 C 161.95 58.43 161.09 57.56 160.02 57.56 C 158.96 57.56 158.09 58.43 158.09 59.49 Z M 158.09 60.47 L 158.09 61.46 C 158.09 62.52 158.96 63.39 160.02 63.39 C 161.09 63.39 161.95 62.52 161.95 61.46 L 161.95 60.47 C 161.95 59.41 161.09 58.55 160.02 58.55 C 158.96 58.55 158.09 59.41 158.09 60.47 Z M 158.09 61.46 L 158.09 62.45 C 158.09 63.52 158.96 64.38 160.02 64.38 C 161.09 64.38 161.95 63.52 161.95 62.45 L 161.95 61.46 C 161.95 60.40 161.09 59.53 160.02 59.53 C 158.96 59.53 158.09 60.40 158.09 61.46 Z M 158.09 62.45 L 158.09 63.45 C 158.09 64.52 158.96 65.38 160.02 65.38 C 161.09 65.38 161.95 64.52 161.95 63.45 L 161.95 62.45 C 161.95 61.39 161.09 60.52 160.02 60.52 C 158.96 60.52 158.09 61.39 158.09 62.45 Z M 158.09 63.45 L 158.09 64.47 C 158.09 65.53 158.96 66.39 160.02 66.39 C 161.09 66.39 161.95 65.53 161.95 64.47 L 161.95 63.45 C 161.95 62.39 161.09 61.52 160.02 61.52 C 158.96 61.52 158.09 62.39 158.09 63.45 Z M 158.09 64.47 L 158.09 65.50 C 158.09 66.57 158.96 67.43 160.02 67.43 C 161.09 67.43 161.95 66.57 161.95 65.50 L 161.95 64.47 C 161.95 63.40 161.09 62.54 160.02 62.54 C 158.96 62.54 158.09 63.40 158.09 64.47 Z M 158.10 65.50 L 158.10 66.47 C 158.10 67.53 158.96 68.39 160.02 68.39 C 161.09 68.39 161.95 67.53 161.95 66.47 L 161.95 65.50 C 161.95 64.44 161.09 63.57 160.02 63.57 C 158.96 63.57 158.10 64.44 158.10 65.50 Z M 158.10 66.47 L 158.10 67.43 C 158.10 68.49 158.96 69.35 160.02 69.35 C 161.08 69.36 161.95 68.49 161.95 67.43 L 161.95 66.47 C 161.95 65.41 161.09 64.54 160.02 64.54 C 158.96 64.54 158.10 65.40 158.10 66.47 Z M 158.10 67.43 L 158.10 68.41 C 158.10 69.47 158.96 70.33 160.02 70.33 C 161.08 70.33 161.94 69.47 161.94 68.41 L 161.95 67.43 C 161.95 66.37 161.09 65.51 160.02 65.51 C 158.96 65.51 158.10 66.37 158.10 67.43 Z M 158.10 68.40 L 158.10 69.40 C 158.10 70.46 158.95 71.32 160.02 71.32 C 161.08 71.32 161.94 70.46 161.94 69.40 L 161.94 68.41 C 161.94 67.35 161.09 66.49 160.03 66.49 C 158.96 66.48 158.10 67.34 158.10 68.40 Z M 158.10 69.39 L 158.10 70.40 C 158.09 71.46 158.95 72.32 160.01 72.32 C 161.07 72.33 161.93 71.47 161.93 70.41 L 161.94 69.41 C 161.94 68.35 161.09 67.48 160.03 67.48 C 158.97 67.48 158.10 68.33 158.10 69.39 Z M 158.10 70.39 L 158.09 71.41 C 158.09 72.47 158.94 73.33 160.00 73.34 C 161.06 73.34 161.92 72.49 161.93 71.43 L 161.93 70.41 C 161.94 69.36 161.08 68.49 160.03 68.49 C 158.97 68.48 158.10 69.34 158.10 70.39 Z M 158.10 71.41 L 158.09 72.43 C 158.08 73.49 158.93 74.35 159.99 74.36 C 161.05 74.37 161.91 73.52 161.92 72.46 L 161.93 71.43 C 161.93 70.38 161.08 69.51 160.02 69.51 C 158.97 69.50 158.10 70.35 158.10 71.41 Z M 158.09 72.43 L 158.08 73.46 C 158.07 74.52 158.92 75.39 159.98 75.40 C 161.03 75.41 161.90 74.56 161.91 73.50 L 161.92 72.47 C 161.93 71.41 161.08 70.54 160.02 70.53 C 158.97 70.52 158.10 71.37 158.09 72.43 Z M 158.08 73.46 L 158.07 74.48 C 158.06 75.53 158.90 76.40 159.96 76.41 C 161.01 76.42 161.88 75.58 161.89 74.52 L 161.90 73.51 C 161.92 72.45 161.07 71.59 160.02 71.57 C 158.96 71.56 158.10 72.40 158.08 73.46 Z M 158.07 74.47 L 158.06 75.45 C 158.04 76.50 158.88 77.37 159.94 77.38 C 160.99 77.40 161.86 76.56 161.87 75.50 L 161.89 74.53 C 161.90 73.48 161.06 72.61 160.01 72.59 C 158.96 72.58 158.09 73.42 158.07 74.47 Z M 158.06 75.44 L 158.05 76.42 C 158.03 77.47 158.86 78.34 159.91 78.36 C 160.96 78.38 161.83 77.54 161.85 76.49 L 161.87 75.51 C 161.89 74.46 161.05 73.59 160.00 73.57 C 158.95 73.55 158.08 74.39 158.06 75.44 Z M 158.05 76.41 L 158.03 77.40 C 158.00 78.44 158.83 79.32 159.88 79.34 C 160.92 79.37 161.80 78.54 161.82 77.49 L 161.85 76.50 C 161.87 75.46 161.04 74.59 159.99 74.56 C 158.95 74.53 158.08 75.36 158.05 76.41 Z M 158.03 77.38 L 158.00 78.38 C 157.97 79.42 158.79 80.30 159.83 80.33 C 160.88 80.36 161.75 79.54 161.79 78.50 L 161.82 77.50 C 161.85 76.46 161.03 75.58 159.98 75.55 C 158.94 75.52 158.06 76.34 158.03 77.38 Z M 158.00 78.36 L 157.97 79.36 C 157.92 80.41 158.74 81.28 159.78 81.33 C 160.82 81.37 161.70 80.55 161.74 79.51 L 161.78 78.51 C 161.82 77.47 161.01 76.59 159.97 76.55 C 158.92 76.51 158.04 77.32 158.00 78.36 Z M 157.97 79.35 L 157.92 80.35 C 157.87 81.39 158.68 82.28 159.72 82.33 C 160.76 82.38 161.64 81.57 161.69 80.53 L 161.74 79.53 C 161.79 78.49 160.98 77.60 159.94 77.55 C 158.90 77.50 158.02 78.31 157.97 79.35 Z M 157.93 80.34 L 157.87 81.35 C 157.81 82.39 158.60 83.28 159.64 83.34 C 160.68 83.39 161.57 82.60 161.63 81.57 L 161.68 80.55 C 161.74 79.51 160.95 78.63 159.91 78.57 C 158.88 78.51 157.99 79.30 157.93 80.34 Z M 157.88 81.33 L 157.81 82.35 C 157.74 83.39 158.52 84.28 159.55 84.35 C 160.59 84.42 161.48 83.64 161.55 82.61 L 161.62 81.58 C 161.69 80.55 160.91 79.66 159.87 79.59 C 158.84 79.52 157.95 80.30 157.88 81.33 Z M 157.81 82.33 L 157.73 83.37 C 157.65 84.40 158.42 85.30 159.45 85.38 C 160.48 85.46 161.38 84.69 161.46 83.66 L 161.54 82.63 C 161.63 81.60 160.86 80.69 159.83 80.61 C 158.80 80.53 157.89 81.30 157.81 82.33 Z M 157.74 83.34 L 157.64 84.40 C 157.55 85.42 158.30 86.33 159.33 86.43 C 160.36 86.52 161.27 85.76 161.36 84.74 L 161.46 83.68 C 161.55 82.66 160.79 81.75 159.77 81.65 C 158.74 81.56 157.83 82.32 157.74 83.34 Z M 157.65 84.38 L 157.54 85.43 C 157.44 86.45 158.18 87.37 159.20 87.47 C 160.23 87.58 161.14 86.83 161.24 85.81 L 161.35 84.76 C 161.46 83.73 160.71 82.82 159.69 82.72 C 158.67 82.61 157.75 83.36 157.65 84.38 Z M 157.55 85.42 L 157.43 86.46 C 157.32 87.48 158.05 88.40 159.07 88.51 C 160.09 88.62 161.01 87.89 161.12 86.87 L 161.24 85.83 C 161.35 84.81 160.62 83.89 159.60 83.78 C 158.58 83.67 157.66 84.40 157.55 85.42 Z M 157.44 86.45 L 157.32 87.48 C 157.20 88.49 157.92 89.41 158.93 89.53 C 159.95 89.65 160.87 88.93 160.99 87.92 L 161.11 86.89 C 161.23 85.87 160.51 84.95 159.50 84.83 C 158.48 84.71 157.56 85.43 157.44 86.45 Z M 157.33 87.47 L 157.20 88.48 C 157.07 89.48 157.79 90.41 158.79 90.53 C 159.80 90.66 160.73 89.95 160.85 88.94 L 160.98 87.93 C 161.11 86.92 160.39 86.00 159.38 85.87 C 158.38 85.74 157.45 86.46 157.33 87.47 Z M 157.21 88.47 L 157.08 89.45 C 156.94 90.45 157.65 91.37 158.65 91.51 C 159.66 91.64 160.58 90.93 160.72 89.93 L 160.85 88.95 C 160.98 87.94 160.27 87.02 159.27 86.89 C 158.26 86.75 157.34 87.46 157.21 88.47 Z M 157.08 89.44 L 156.95 90.38 C 156.82 91.38 157.51 92.30 158.52 92.44 C 159.52 92.58 160.44 91.88 160.58 90.88 L 160.71 89.94 C 160.85 88.94 160.15 88.01 159.15 87.88 C 158.15 87.74 157.22 88.44 157.08 89.44 Z M 156.96 90.37 L 156.83 91.27 C 156.69 92.27 157.38 93.19 158.38 93.33 C 159.38 93.48 160.30 92.78 160.44 91.79 L 160.57 90.89 C 160.71 89.89 160.02 88.97 159.02 88.83 C 158.03 88.68 157.10 89.38 156.96 90.37 Z M 156.84 91.27 L 156.70 92.20 C 156.56 93.20 157.24 94.12 158.24 94.26 C 159.23 94.41 160.15 93.72 160.30 92.73 L 160.43 91.79 C 160.58 90.80 159.89 89.88 158.90 89.73 C 157.91 89.59 156.99 90.27 156.84 91.27 Z M 156.71 92.20 L 156.56 93.24 C 156.41 94.23 157.09 95.15 158.07 95.30 C 159.06 95.45 159.98 94.77 160.13 93.78 L 160.29 92.74 C 160.44 91.75 159.76 90.83 158.77 90.68 C 157.78 90.53 156.86 91.21 156.71 92.20 Z M 156.57 93.24 L 156.42 94.22 C 156.26 95.20 156.94 96.12 157.92 96.27 C 158.90 96.42 159.82 95.75 159.97 94.77 L 160.12 93.78 C 160.27 92.80 159.60 91.89 158.62 91.73 C 157.63 91.58 156.72 92.26 156.57 93.24 Z M 156.43 94.22 L 156.28 95.16 C 156.13 96.14 156.79 97.05 157.77 97.20 C 158.74 97.36 159.66 96.69 159.81 95.72 L 159.96 94.77 C 160.11 93.79 159.44 92.88 158.47 92.73 C 157.49 92.57 156.58 93.24 156.43 94.22 Z M 156.29 95.16 L 156.14 96.10 C 155.99 97.07 156.65 97.98 157.62 98.13 C 158.59 98.29 159.50 97.62 159.65 96.65 L 159.80 95.72 C 159.95 94.75 159.29 93.84 158.32 93.68 C 157.35 93.53 156.44 94.19 156.29 95.16 Z M 156.15 96.10 L 156.00 97.06 C 155.85 98.02 156.51 98.93 157.47 99.08 C 158.43 99.23 159.34 98.57 159.49 97.61 L 159.64 96.65 C 159.79 95.69 159.14 94.78 158.17 94.63 C 157.21 94.48 156.30 95.14 156.15 96.10 Z M 156.01 97.06 L 155.85 98.07 C 155.70 99.02 156.36 99.92 157.32 100.07 C 158.28 100.22 159.18 99.57 159.33 98.61 L 159.48 97.61 C 159.63 96.65 158.98 95.75 158.02 95.60 C 157.06 95.45 156.16 96.10 156.01 97.06 Z M 155.86 98.07 L 155.72 98.97 C 155.57 99.93 156.23 100.82 157.18 100.97 C 158.14 101.12 159.03 100.46 159.18 99.51 L 159.32 98.60 C 159.47 97.65 158.81 96.75 157.86 96.61 C 156.90 96.46 156.01 97.12 155.86 98.07 Z M 155.73 98.98 L 155.60 99.82 C 155.45 100.77 156.11 101.66 157.06 101.81 C 158.01 101.95 158.90 101.30 159.05 100.35 L 159.17 99.50 C 159.32 98.55 158.66 97.66 157.71 97.52 C 156.76 97.37 155.87 98.03 155.73 98.98 Z M 155.60 99.82 L 155.47 100.71 C 155.32 101.66 155.98 102.55 156.93 102.69 C 157.88 102.83 158.76 102.18 158.91 101.23 L 159.04 100.34 C 159.19 99.39 158.53 98.51 157.58 98.36 C 156.63 98.22 155.75 98.87 155.60 99.82 Z M 155.47 100.71 L 155.33 101.64 C 155.18 102.59 155.84 103.47 156.78 103.62 C 157.73 103.76 158.62 103.11 158.76 102.16 L 158.90 101.23 C 159.05 100.28 158.40 99.40 157.45 99.25 C 156.50 99.11 155.61 99.76 155.47 100.71 Z M 155.33 101.64 L 155.18 102.61 C 155.04 103.56 155.69 104.44 156.63 104.59 C 157.58 104.73 158.46 104.08 158.61 103.14 L 158.76 102.16 C 158.90 101.22 158.25 100.33 157.31 100.19 C 156.36 100.04 155.48 100.69 155.33 101.64 Z M 155.19 102.61 L 155.03 103.62 C 154.88 104.57 155.53 105.45 156.47 105.60 C 157.42 105.74 158.30 105.10 158.45 104.15 L 158.60 103.14 C 158.75 102.19 158.10 101.31 157.16 101.17 C 156.22 101.02 155.33 101.67 155.19 102.61 Z M 155.04 103.62 L 154.87 104.68 C 154.72 105.62 155.36 106.50 156.31 106.65 C 157.25 106.80 158.13 106.15 158.28 105.21 L 158.44 104.16 C 158.59 103.22 157.95 102.33 157.01 102.18 C 156.07 102.04 155.18 102.68 155.04 103.62 Z M 154.87 104.67 L 154.70 105.77 C 154.55 106.71 155.19 107.59 156.13 107.74 C 157.06 107.89 157.95 107.25 158.10 106.31 L 158.27 105.22 C 158.42 104.28 157.78 103.40 156.85 103.25 C 155.91 103.10 155.02 103.73 154.87 104.67 Z M 154.70 105.76 L 154.52 106.90 C 154.37 107.83 155.00 108.72 155.94 108.87 C 156.87 109.02 157.75 108.39 157.91 107.45 L 158.09 106.32 C 158.24 105.38 157.61 104.50 156.67 104.35 C 155.74 104.19 154.86 104.83 154.70 105.76 Z M 154.52 106.89 L 154.36 107.90 C 154.20 108.84 154.83 109.72 155.76 109.87 C 156.70 110.03 157.58 109.40 157.73 108.47 L 157.90 107.46 C 158.06 106.52 157.43 105.64 156.49 105.49 C 155.56 105.33 154.68 105.96 154.52 106.89 Z M 154.36 107.90 L 154.21 108.80 C 154.05 109.73 154.68 110.61 155.61 110.77 C 156.54 110.93 157.42 110.30 157.57 109.37 L 157.73 108.47 C 157.88 107.54 157.26 106.66 156.33 106.50 C 155.40 106.34 154.52 106.97 154.36 107.90 Z M 154.21 108.80 L 154.06 109.73 C 153.90 110.65 154.52 111.53 155.45 111.69 C 156.37 111.85 157.25 111.23 157.41 110.30 L 157.57 109.38 C 157.73 108.45 157.10 107.57 156.18 107.41 C 155.25 107.25 154.37 107.88 154.21 108.80 Z M 154.06 109.73 L 153.90 110.67 C 153.74 111.59 154.36 112.47 155.28 112.63 C 156.21 112.79 157.08 112.17 157.24 111.24 L 157.40 110.30 C 157.56 109.38 156.94 108.50 156.02 108.34 C 155.10 108.18 154.22 108.80 154.06 109.73 Z M 153.91 110.67 L 153.74 111.63 C 153.58 112.55 154.20 113.42 155.12 113.58 C 156.04 113.74 156.91 113.12 157.07 112.20 L 157.24 111.24 C 157.40 110.32 156.78 109.45 155.86 109.29 C 154.94 109.13 154.06 109.75 153.91 110.67 Z M 153.75 111.63 L 153.58 112.61 C 153.42 113.53 154.03 114.40 154.95 114.55 C 155.87 114.71 156.74 114.10 156.90 113.18 L 157.07 112.20 C 157.22 111.28 156.61 110.41 155.69 110.26 C 154.77 110.10 153.90 110.71 153.75 111.63 Z M 153.58 112.61 L 153.41 113.60 C 153.26 114.52 153.87 115.39 154.78 115.54 C 155.70 115.70 156.57 115.08 156.72 114.17 L 156.89 113.18 C 157.05 112.26 156.44 111.39 155.52 111.24 C 154.61 111.08 153.74 111.70 153.58 112.61 Z M 153.42 113.61 L 153.25 114.61 C 153.09 115.53 153.70 116.39 154.62 116.54 C 155.53 116.70 156.39 116.09 156.55 115.17 L 156.72 114.17 C 156.87 113.26 156.26 112.39 155.35 112.24 C 154.44 112.08 153.57 112.70 153.42 113.61 Z M 153.25 114.62 L 153.08 115.64 C 152.93 116.55 153.54 117.41 154.45 117.56 C 155.36 117.71 156.22 117.10 156.37 116.19 L 156.54 115.17 C 156.69 114.26 156.08 113.40 155.17 113.25 C 154.26 113.10 153.40 113.71 153.25 114.62 Z M 153.08 115.65 L 152.91 116.68 C 152.76 117.59 153.38 118.44 154.28 118.59 C 155.19 118.74 156.04 118.13 156.19 117.22 L 156.37 116.19 C 156.52 115.28 155.90 114.43 155.00 114.28 C 154.09 114.13 153.23 114.74 153.08 115.65 Z M 152.92 116.69 L 152.75 117.73 C 152.60 118.63 153.22 119.49 154.12 119.63 C 155.02 119.78 155.87 119.17 156.02 118.26 L 156.19 117.22 C 156.34 116.31 155.72 115.46 154.82 115.31 C 153.92 115.17 153.06 115.78 152.92 116.69 Z M 152.75 117.74 L 152.59 118.79 C 152.44 119.70 153.06 120.54 153.96 120.68 C 154.86 120.83 155.70 120.21 155.85 119.31 L 156.02 118.26 C 156.16 117.36 155.54 116.51 154.64 116.37 C 153.74 116.22 152.90 116.84 152.75 117.74 Z M 152.59 118.80 L 152.43 119.81 C 152.29 120.71 152.91 121.55 153.81 121.69 C 154.71 121.82 155.55 121.21 155.69 120.31 L 155.84 119.31 C 155.98 118.41 155.37 117.57 154.47 117.43 C 153.57 117.29 152.73 117.90 152.59 118.80 Z M 152.44 119.81 L 152.29 120.78 C 152.16 121.67 152.77 122.51 153.67 122.65 C 154.56 122.78 155.40 122.17 155.54 121.27 L 155.68 120.30 C 155.82 119.41 155.20 118.57 154.31 118.44 C 153.41 118.30 152.57 118.92 152.44 119.81 Z M 152.30 120.78 L 152.15 121.76 C 152.02 122.65 152.64 123.48 153.53 123.61 C 154.42 123.74 155.26 123.13 155.39 122.23 L 155.53 121.26 C 155.66 120.37 155.05 119.54 154.15 119.41 C 153.26 119.27 152.43 119.89 152.30 120.78 Z M 152.16 121.76 L 152.02 122.74 C 151.89 123.63 152.50 124.46 153.39 124.59 C 154.28 124.71 155.11 124.10 155.24 123.21 L 155.38 122.23 C 155.51 121.34 154.89 120.51 154.00 120.38 C 153.11 120.25 152.29 120.87 152.16 121.76 Z M 152.02 122.74 L 151.88 123.73 C 151.75 124.61 152.37 125.44 153.26 125.56 C 154.15 125.69 154.97 125.07 155.10 124.18 L 155.24 123.20 C 155.36 122.31 154.75 121.49 153.86 121.37 C 152.97 121.24 152.15 121.86 152.02 122.74 Z M 151.89 123.73 L 151.75 124.72 C 151.62 125.60 152.24 126.42 153.13 126.55 C 154.01 126.67 154.83 126.05 154.95 125.17 L 155.09 124.18 C 155.21 123.30 154.60 122.48 153.71 122.35 C 152.83 122.23 152.01 122.85 151.89 123.73 Z M 151.75 124.72 L 151.62 125.72 C 151.49 126.60 152.11 127.41 152.99 127.53 C 153.87 127.65 154.69 127.04 154.81 126.16 L 154.95 125.16 C 155.07 124.28 154.45 123.47 153.57 123.35 C 152.69 123.22 151.87 123.84 151.75 124.72 Z M 151.62 125.72 L 151.49 126.71 C 151.37 127.59 151.98 128.40 152.86 128.52 C 153.74 128.64 154.55 128.03 154.67 127.15 L 154.80 126.15 C 154.92 125.27 154.31 124.46 153.43 124.34 C 152.55 124.22 151.74 124.84 151.62 125.72 Z M 151.49 126.72 L 151.36 127.72 C 151.24 128.59 151.85 129.40 152.73 129.52 C 153.60 129.64 154.41 129.02 154.53 128.14 L 154.66 127.15 C 154.78 126.27 154.17 125.46 153.29 125.35 C 152.41 125.23 151.61 125.84 151.49 126.72 Z M 151.36 127.72 L 151.23 128.72 C 151.11 129.59 151.72 130.40 152.60 130.51 C 153.47 130.63 154.27 130.02 154.39 129.14 L 154.52 128.14 C 154.64 127.27 154.03 126.47 153.15 126.35 C 152.28 126.23 151.48 126.85 151.36 127.72 Z M 151.23 128.72 L 151.10 129.73 C 150.98 130.60 151.60 131.40 152.47 131.51 C 153.34 131.63 154.14 131.02 154.25 130.15 L 154.38 129.14 C 154.50 128.27 153.89 127.47 153.02 127.36 C 152.15 127.24 151.35 127.85 151.23 128.72 Z M 151.11 129.73 L 150.97 130.74 C 150.86 131.60 151.47 132.40 152.34 132.51 C 153.20 132.63 154.00 132.02 154.11 131.15 L 154.25 130.14 C 154.36 129.28 153.75 128.48 152.88 128.37 C 152.02 128.25 151.22 128.86 151.11 129.73 Z M 150.98 130.74 L 150.85 131.74 C 150.73 132.61 151.34 133.40 152.21 133.51 C 153.07 133.63 153.86 133.02 153.98 132.15 L 154.11 131.15 C 154.22 130.28 153.61 129.49 152.75 129.38 C 151.88 129.26 151.09 129.87 150.98 130.74 Z M 150.85 131.74 L 150.75 132.55 C 150.63 133.41 151.24 134.20 152.10 134.31 C 152.96 134.42 153.75 133.82 153.87 132.96 L 153.97 132.15 C 154.08 131.29 153.48 130.50 152.62 130.39 C 151.75 130.28 150.96 130.88 150.85 131.74 Z"
      fill="black"
      fill-rule="nonzero" /><path d="M 188.98 81.75 L 189.92 82.08 C 190.86 82.40 191.88 81.91 192.21 80.97 C 192.53 80.04 192.04 79.01 191.10 78.69 L 190.16 78.36 C 189.22 78.04 188.20 78.53 187.87 79.47 C 187.55 80.40 188.05 81.42 188.98 81.75 Z M 189.93 82.08 L 190.88 82.40 C 191.82 82.72 192.84 82.22 193.16 81.29 C 193.48 80.35 192.98 79.33 192.04 79.01 L 191.09 78.69 C 190.16 78.37 189.14 78.87 188.82 79.80 C 188.49 80.74 188.99 81.76 189.93 82.08 Z M 190.89 82.41 L 191.84 82.73 C 192.78 83.04 193.80 82.53 194.11 81.59 C 194.42 80.65 193.91 79.63 192.97 79.32 L 192.02 79.00 C 191.08 78.69 190.07 79.20 189.75 80.14 C 189.44 81.08 189.95 82.10 190.89 82.41 Z M 191.86 82.73 L 192.82 83.04 C 193.76 83.34 194.77 82.81 195.07 81.87 C 195.37 80.92 194.85 79.91 193.90 79.61 L 192.95 79.31 C 192.00 79.01 190.99 79.53 190.69 80.48 C 190.39 81.42 190.92 82.43 191.86 82.73 Z M 192.85 83.05 L 193.81 83.33 C 194.76 83.62 195.76 83.07 196.04 82.12 C 196.33 81.17 195.78 80.17 194.83 79.89 L 193.87 79.60 C 192.92 79.32 191.92 79.86 191.64 80.81 C 191.35 81.76 191.90 82.76 192.85 83.05 Z M 193.85 83.34 L 194.80 83.60 C 195.75 83.86 196.74 83.30 197.00 82.34 C 197.26 81.39 196.70 80.40 195.74 80.14 L 194.79 79.88 C 193.84 79.62 192.85 80.18 192.59 81.14 C 192.33 82.09 192.89 83.08 193.85 83.34 Z M 194.84 83.59 L 195.79 83.83 C 196.75 84.07 197.71 83.49 197.95 82.54 C 198.18 81.59 197.61 80.62 196.65 80.38 L 195.70 80.15 C 194.75 79.91 193.79 80.49 193.55 81.44 C 193.31 82.39 193.89 83.35 194.84 83.59 Z M 195.83 83.82 L 196.80 84.04 C 197.74 84.25 198.68 83.66 198.90 82.72 C 199.12 81.77 198.52 80.83 197.58 80.62 L 196.62 80.40 C 195.67 80.18 194.73 80.77 194.51 81.72 C 194.30 82.66 194.89 83.60 195.83 83.82 Z M 196.83 84.03 L 197.81 84.23 C 198.75 84.43 199.67 83.83 199.87 82.89 C 200.06 81.95 199.46 81.03 198.52 80.84 L 197.55 80.63 C 196.61 80.43 195.69 81.03 195.49 81.97 C 195.29 82.91 195.90 83.83 196.83 84.03 Z M 197.84 84.22 L 198.84 84.41 C 199.77 84.59 200.67 83.98 200.85 83.05 C 201.03 82.12 200.42 81.22 199.49 81.04 L 198.49 80.85 C 197.56 80.67 196.67 81.28 196.49 82.21 C 196.31 83.14 196.91 84.04 197.84 84.22 Z M 198.86 84.39 L 199.86 84.57 C 200.78 84.74 201.66 84.13 201.82 83.21 C 201.99 82.29 201.38 81.41 200.46 81.24 L 199.47 81.06 C 198.54 80.89 197.66 81.50 197.50 82.42 C 197.33 83.35 197.94 84.23 198.86 84.39 Z M 199.88 84.56 L 200.75 84.71 C 201.66 84.87 202.53 84.25 202.69 83.34 C 202.84 82.42 202.23 81.55 201.31 81.40 L 200.44 81.25 C 199.52 81.09 198.66 81.71 198.50 82.62 C 198.35 83.54 198.96 84.41 199.88 84.56 Z M 200.77 84.71 L 201.67 84.85 C 202.58 84.99 203.44 84.37 203.58 83.46 C 203.73 82.55 203.11 81.69 202.20 81.55 L 201.29 81.40 C 200.38 81.26 199.53 81.88 199.38 82.79 C 199.23 83.70 199.86 84.56 200.77 84.71 Z M 201.69 84.84 L 202.63 84.98 C 203.54 85.12 204.39 84.49 204.52 83.58 C 204.65 82.67 204.02 81.82 203.12 81.69 L 202.17 81.55 C 201.27 81.42 200.42 82.05 200.29 82.96 C 200.15 83.86 200.78 84.71 201.69 84.84 Z M 202.65 84.98 L 203.64 85.11 C 204.55 85.23 205.38 84.60 205.51 83.69 C 205.63 82.78 204.99 81.95 204.09 81.83 L 203.09 81.70 C 202.19 81.57 201.36 82.21 201.23 83.12 C 201.11 84.02 201.75 84.85 202.65 84.98 Z M 203.67 85.10 L 204.72 85.23 C 205.62 85.34 206.44 84.70 206.55 83.80 C 206.66 82.89 206.02 82.07 205.12 81.96 L 204.06 81.84 C 203.16 81.73 202.34 82.37 202.23 83.27 C 202.12 84.17 202.76 84.99 203.67 85.10 Z M 204.74 85.23 L 205.87 85.35 C 206.76 85.45 207.57 84.80 207.67 83.90 C 207.77 83.00 207.12 82.19 206.22 82.09 L 205.10 81.97 C 204.20 81.87 203.39 82.52 203.29 83.42 C 203.19 84.32 203.84 85.13 204.74 85.23 Z M 205.88 85.34 L 206.90 85.44 C 207.79 85.53 208.59 84.88 208.68 83.98 C 208.77 83.08 208.11 82.29 207.22 82.20 L 206.20 82.10 C 205.31 82.01 204.51 82.66 204.42 83.56 C 204.33 84.46 204.99 85.25 205.88 85.34 Z M 206.91 85.44 L 207.85 85.52 C 208.75 85.60 209.54 84.94 209.62 84.05 C 209.70 83.16 209.04 82.37 208.14 82.29 L 207.20 82.20 C 206.31 82.12 205.52 82.78 205.44 83.67 C 205.36 84.57 206.02 85.36 206.91 85.44 Z M 207.87 85.52 L 208.84 85.60 C 209.73 85.67 210.52 85.01 210.59 84.12 C 210.66 83.23 210.00 82.44 209.11 82.37 L 208.13 82.29 C 207.24 82.22 206.46 82.88 206.39 83.77 C 206.31 84.66 206.97 85.45 207.87 85.52 Z M 208.85 85.59 L 209.86 85.67 C 210.75 85.74 211.52 85.07 211.59 84.18 C 211.66 83.29 210.99 82.52 210.10 82.45 L 209.10 82.37 C 208.21 82.31 207.43 82.97 207.37 83.86 C 207.30 84.75 207.96 85.53 208.85 85.59 Z M 209.87 85.67 L 210.89 85.74 C 211.78 85.80 212.54 85.13 212.61 84.24 C 212.67 83.36 212.00 82.59 211.11 82.53 L 210.09 82.45 C 209.20 82.39 208.43 83.06 208.37 83.95 C 208.31 84.84 208.98 85.61 209.87 85.67 Z M 210.90 85.73 L 211.93 85.80 C 212.81 85.85 213.58 85.18 213.63 84.30 C 213.69 83.41 213.02 82.65 212.13 82.59 L 211.10 82.53 C 210.22 82.47 209.45 83.15 209.40 84.03 C 209.34 84.92 210.01 85.68 210.90 85.73 Z M 211.94 85.79 L 212.97 85.85 C 213.85 85.90 214.61 85.23 214.66 84.34 C 214.71 83.46 214.03 82.71 213.15 82.66 L 212.12 82.60 C 211.24 82.55 210.48 83.22 210.43 84.11 C 210.38 84.99 211.06 85.74 211.94 85.79 Z M 212.98 85.85 L 214.01 85.90 C 214.89 85.94 215.64 85.26 215.68 84.39 C 215.72 83.51 215.05 82.76 214.17 82.71 L 213.14 82.66 C 212.26 82.62 211.51 83.30 211.47 84.18 C 211.42 85.05 212.10 85.80 212.98 85.85 Z M 214.02 85.89 L 215.03 85.94 C 215.90 85.98 216.65 85.29 216.68 84.42 C 216.72 83.54 216.04 82.80 215.16 82.76 L 214.15 82.72 C 213.28 82.68 212.53 83.36 212.50 84.24 C 212.46 85.11 213.14 85.86 214.02 85.89 Z M 215.04 85.93 L 216.11 85.97 C 216.98 86.00 217.72 85.32 217.75 84.44 C 217.78 83.57 217.10 82.83 216.22 82.80 L 215.15 82.76 C 214.27 82.73 213.54 83.42 213.51 84.29 C 213.48 85.17 214.16 85.90 215.04 85.93 Z M 216.12 85.97 L 217.18 86.00 C 218.05 86.02 218.78 85.33 218.80 84.46 C 218.83 83.58 218.14 82.86 217.26 82.83 L 216.21 82.80 C 215.33 82.78 214.61 83.47 214.58 84.34 C 214.56 85.22 215.25 85.94 216.12 85.97 Z M 217.19 85.99 L 218.22 86.02 C 219.09 86.03 219.81 85.34 219.83 84.47 C 219.85 83.60 219.16 82.87 218.28 82.86 L 217.25 82.84 C 216.38 82.82 215.66 83.51 215.64 84.38 C 215.62 85.26 216.32 85.98 217.19 85.99 Z M 218.23 86.01 L 219.24 86.03 C 220.11 86.04 220.82 85.34 220.83 84.47 C 220.85 83.60 220.15 82.89 219.28 82.87 L 218.27 82.86 C 217.40 82.85 216.69 83.54 216.68 84.41 C 216.66 85.28 217.36 86.00 218.23 86.01 Z M 219.25 86.02 L 220.23 86.03 C 221.10 86.04 221.81 85.34 221.82 84.47 C 221.82 83.60 221.13 82.89 220.26 82.89 L 219.27 82.88 C 218.40 82.87 217.69 83.57 217.69 84.44 C 217.68 85.30 218.38 86.02 219.25 86.02 Z M 220.24 86.03 L 221.20 86.03 C 222.07 86.04 222.78 85.34 222.78 84.47 C 222.78 83.60 222.09 82.90 221.22 82.89 L 220.25 82.89 C 219.38 82.89 218.68 83.58 218.67 84.45 C 218.67 85.32 219.37 86.02 220.24 86.03 Z M 221.21 86.03 L 222.16 86.03 C 223.02 86.03 223.73 85.33 223.73 84.47 C 223.73 83.60 223.03 82.90 222.16 82.90 L 221.21 82.90 C 220.35 82.90 219.65 83.60 219.64 84.46 C 219.64 85.33 220.34 86.03 221.21 86.03 Z M 222.16 86.03 L 223.10 86.03 C 223.96 86.03 224.66 85.33 224.66 84.47 C 224.66 83.60 223.96 82.90 223.10 82.90 L 222.16 82.90 C 221.30 82.90 220.60 83.60 220.60 84.46 C 220.60 85.33 221.30 86.03 222.16 86.03 Z M 223.10 86.03 L 224.11 86.03 C 224.98 86.03 225.68 85.33 225.68 84.47 C 225.68 83.60 224.98 82.90 224.11 82.90 L 223.10 82.90 C 222.24 82.90 221.54 83.60 221.54 84.47 C 221.54 85.33 222.24 86.03 223.10 86.03 Z M 224.11 86.03 L 225.13 86.03 C 225.99 86.03 226.69 85.33 226.69 84.47 C 226.69 83.60 225.99 82.90 225.13 82.90 L 224.11 82.90 C 223.25 82.90 222.55 83.60 222.55 84.47 C 222.55 85.33 223.25 86.03 224.11 86.03 Z M 225.13 86.03 L 226.13 86.03 C 227.00 86.03 227.70 85.33 227.70 84.47 C 227.70 83.60 227.00 82.90 226.13 82.90 L 225.13 82.90 C 224.27 82.90 223.57 83.60 223.57 84.47 C 223.57 85.33 224.27 86.03 225.13 86.03 Z M 226.13 86.03 L 227.13 86.03 C 227.99 86.03 228.69 85.33 228.69 84.47 C 228.69 83.60 227.99 82.90 227.13 82.90 L 226.13 82.90 C 225.27 82.90 224.57 83.60 224.57 84.47 C 224.57 85.33 225.27 86.03 226.13 86.03 Z M 227.13 86.03 L 228.12 86.03 C 228.99 86.03 229.68 85.33 229.68 84.47 C 229.68 83.60 228.99 82.90 228.12 82.90 L 227.13 82.90 C 226.27 82.90 225.57 83.60 225.57 84.47 C 225.57 85.33 226.27 86.03 227.13 86.03 Z M 228.12 86.03 L 229.11 86.03 C 229.97 86.03 230.67 85.33 230.67 84.47 C 230.67 83.60 229.97 82.90 229.11 82.90 L 228.12 82.90 C 227.26 82.90 226.56 83.60 226.56 84.47 C 226.56 85.33 227.26 86.03 228.12 86.03 Z M 229.11 86.03 L 230.10 86.03 C 230.96 86.03 231.66 85.33 231.66 84.47 C 231.66 83.60 230.96 82.90 230.10 82.90 L 229.11 82.90 C 228.25 82.90 227.55 83.60 227.55 84.47 C 227.55 85.33 228.25 86.03 229.11 86.03 Z M 230.10 86.03 L 230.36 86.03 C 231.22 86.03 231.92 85.33 231.92 84.47 C 231.92 83.60 231.22 82.90 230.36 82.90 L 230.10 82.90 C 229.23 82.90 228.54 83.60 228.54 84.47 C 228.54 85.33 229.23 86.03 230.10 86.03 Z"
      fill="black"
      fill-rule="nonzero" /><path d="M 215.10 126.37 L 214.87 127.25 C 214.63 128.12 215.15 129.03 216.03 129.26 C 216.91 129.49 217.81 128.97 218.04 128.10 L 218.28 127.22 C 218.51 126.35 217.99 125.44 217.11 125.21 C 216.23 124.98 215.33 125.50 215.10 126.37 Z M 214.86 127.24 L 214.62 128.12 C 214.38 129.00 214.90 129.91 215.78 130.15 C 216.66 130.39 217.57 129.87 217.81 128.98 L 218.05 128.10 C 218.29 127.22 217.77 126.31 216.89 126.08 C 216.01 125.84 215.10 126.36 214.86 127.24 Z M 214.61 128.11 L 214.36 129.01 C 214.12 129.89 214.64 130.81 215.52 131.05 C 216.41 131.30 217.32 130.78 217.57 129.90 L 217.82 129.00 C 218.06 128.11 217.55 127.20 216.66 126.95 C 215.78 126.71 214.86 127.22 214.61 128.11 Z M 214.36 128.99 L 214.09 129.92 C 213.84 130.80 214.35 131.73 215.24 131.99 C 216.12 132.24 217.05 131.73 217.31 130.84 L 217.57 129.91 C 217.83 129.03 217.31 128.10 216.43 127.85 C 215.54 127.59 214.61 128.10 214.36 128.99 Z M 214.09 129.90 L 213.80 130.86 C 213.53 131.75 214.04 132.69 214.93 132.95 C 215.82 133.22 216.75 132.71 217.02 131.82 L 217.31 130.86 C 217.58 129.97 217.07 129.04 216.18 128.77 C 215.29 128.50 214.36 129.01 214.09 129.90 Z M 213.80 130.84 L 213.48 131.85 C 213.20 132.74 213.70 133.68 214.59 133.96 C 215.48 134.24 216.43 133.75 216.71 132.86 L 217.02 131.85 C 217.30 130.96 216.81 130.01 215.92 129.73 C 215.03 129.45 214.08 129.95 213.80 130.84 Z M 213.48 131.82 L 213.13 132.88 C 212.84 133.77 213.32 134.73 214.21 135.03 C 215.11 135.32 216.07 134.83 216.36 133.94 L 216.71 132.88 C 217.00 131.99 216.52 131.03 215.63 130.74 C 214.73 130.44 213.77 130.93 213.48 131.82 Z M 213.13 132.86 L 212.79 133.86 C 212.48 134.75 212.95 135.72 213.85 136.03 C 214.74 136.33 215.71 135.86 216.02 134.97 L 216.36 133.97 C 216.67 133.08 216.19 132.10 215.30 131.80 C 214.41 131.49 213.44 131.97 213.13 132.86 Z M 212.78 133.83 L 212.48 134.69 C 212.16 135.59 212.62 136.57 213.52 136.89 C 214.41 137.21 215.40 136.74 215.72 135.85 L 216.02 134.99 C 216.34 134.09 215.87 133.11 214.98 132.79 C 214.08 132.47 213.10 132.94 212.78 133.83 Z M 212.47 134.67 L 212.14 135.56 C 211.81 136.45 212.28 137.45 213.17 137.78 C 214.07 138.11 215.07 137.65 215.40 136.75 L 215.72 135.87 C 216.05 134.97 215.59 133.97 214.69 133.64 C 213.80 133.31 212.80 133.77 212.47 134.67 Z M 212.14 135.54 L 211.79 136.45 C 211.45 137.35 211.91 138.36 212.81 138.70 C 213.71 139.04 214.72 138.58 215.06 137.68 L 215.41 136.77 C 215.75 135.87 215.29 134.86 214.39 134.52 C 213.49 134.18 212.48 134.63 212.14 135.54 Z M 211.79 136.43 L 211.43 137.36 C 211.08 138.26 211.52 139.28 212.43 139.63 C 213.34 139.99 214.36 139.54 214.71 138.63 L 215.07 137.70 C 215.42 136.79 214.97 135.77 214.06 135.42 C 213.16 135.07 212.14 135.52 211.79 136.43 Z M 211.42 137.34 L 211.04 138.28 C 210.68 139.19 211.13 140.22 212.04 140.59 C 212.95 140.95 213.98 140.50 214.34 139.59 L 214.71 138.65 C 215.08 137.74 214.63 136.71 213.72 136.35 C 212.81 135.98 211.78 136.43 211.42 137.34 Z M 211.04 138.26 L 210.65 139.22 C 210.27 140.13 210.71 141.18 211.63 141.55 C 212.54 141.92 213.58 141.48 213.95 140.57 L 214.34 139.61 C 214.72 138.70 214.28 137.66 213.37 137.29 C 212.45 136.91 211.41 137.35 211.04 138.26 Z M 210.64 139.20 L 210.24 140.16 C 209.85 141.08 210.29 142.13 211.20 142.52 C 212.12 142.90 213.17 142.47 213.56 141.55 L 213.96 140.59 C 214.34 139.67 213.91 138.62 213.00 138.24 C 212.08 137.85 211.03 138.28 210.64 139.20 Z M 210.23 140.14 L 209.82 141.10 C 209.42 142.02 209.85 143.09 210.77 143.48 C 211.69 143.88 212.75 143.45 213.15 142.53 L 213.56 141.57 C 213.96 140.65 213.53 139.59 212.61 139.19 C 211.69 138.80 210.63 139.22 210.23 140.14 Z M 209.81 141.08 L 209.39 142.04 C 208.99 142.96 209.40 144.04 210.33 144.44 C 211.25 144.85 212.33 144.43 212.73 143.51 L 213.16 142.55 C 213.56 141.63 213.14 140.55 212.22 140.15 C 211.30 139.74 210.22 140.16 209.81 141.08 Z M 209.39 142.01 L 208.96 142.96 C 208.54 143.89 208.95 144.98 209.87 145.40 C 210.80 145.82 211.89 145.41 212.31 144.48 L 212.74 143.53 C 213.16 142.61 212.75 141.52 211.82 141.10 C 210.90 140.68 209.81 141.09 209.39 142.01 Z M 208.96 142.94 L 208.49 143.94 C 208.06 144.87 208.46 145.97 209.38 146.40 C 210.31 146.83 211.41 146.43 211.84 145.51 L 212.31 144.50 C 212.74 143.58 212.34 142.48 211.42 142.05 C 210.49 141.61 209.39 142.01 208.96 142.94 Z M 208.49 143.92 L 208.02 144.91 C 207.57 145.83 207.96 146.94 208.89 147.38 C 209.81 147.83 210.92 147.44 211.36 146.51 L 211.83 145.53 C 212.28 144.61 211.89 143.50 210.97 143.05 C 210.04 142.61 208.94 143.00 208.49 143.92 Z M 208.02 144.89 L 207.55 145.85 C 207.09 146.77 207.47 147.89 208.39 148.34 C 209.31 148.80 210.43 148.42 210.88 147.50 L 211.36 146.53 C 211.81 145.61 211.43 144.50 210.51 144.04 C 209.59 143.59 208.48 143.97 208.02 144.89 Z M 207.55 145.83 L 207.07 146.77 C 206.61 147.69 206.98 148.81 207.90 149.28 C 208.81 149.74 209.94 149.37 210.40 148.46 L 210.88 147.52 C 211.34 146.60 210.98 145.47 210.06 145.01 C 209.14 144.54 208.01 144.91 207.55 145.83 Z M 207.08 146.75 L 206.60 147.66 C 206.13 148.58 206.49 149.71 207.41 150.18 C 208.32 150.66 209.45 150.30 209.93 149.38 L 210.40 148.47 C 210.88 147.56 210.52 146.43 209.60 145.95 C 208.68 145.47 207.55 145.83 207.08 146.75 Z M 206.61 147.64 L 206.14 148.52 C 205.66 149.44 206.01 150.58 206.92 151.06 C 207.84 151.55 208.98 151.20 209.46 150.28 L 209.93 149.40 C 210.41 148.48 210.06 147.35 209.15 146.86 C 208.23 146.38 207.09 146.73 206.61 147.64 Z M 206.14 148.51 L 205.69 149.35 C 205.19 150.27 205.53 151.41 206.45 151.90 C 207.37 152.40 208.51 152.06 209.00 151.14 L 209.46 150.30 C 209.95 149.38 209.61 148.24 208.70 147.74 C 207.78 147.25 206.64 147.59 206.14 148.51 Z M 205.69 149.34 L 205.24 150.14 C 204.74 151.06 205.08 152.21 205.99 152.71 C 206.90 153.21 208.05 152.88 208.56 151.97 L 209.00 151.16 C 209.50 150.24 209.17 149.09 208.26 148.59 C 207.34 148.09 206.19 148.42 205.69 149.34 Z M 205.25 150.13 L 204.82 150.90 C 204.30 151.81 204.63 152.97 205.54 153.48 C 206.46 153.99 207.61 153.66 208.12 152.75 L 208.55 151.98 C 209.07 151.07 208.74 149.91 207.83 149.40 C 206.91 148.89 205.76 149.22 205.25 150.13 Z M 204.82 150.88 L 204.35 151.70 C 203.83 152.61 204.15 153.77 205.06 154.29 C 205.98 154.81 207.14 154.49 207.66 153.58 L 208.12 152.77 C 208.64 151.85 208.32 150.69 207.41 150.17 C 206.50 149.65 205.34 149.97 204.82 150.88 Z M 204.36 151.68 L 203.80 152.64 C 203.27 153.55 203.58 154.72 204.48 155.25 C 205.39 155.78 206.56 155.47 207.09 154.56 L 207.65 153.60 C 208.18 152.69 207.87 151.52 206.96 150.99 C 206.05 150.46 204.89 150.77 204.36 151.68 Z M 203.81 152.62 L 203.27 153.51 C 202.73 154.42 203.03 155.59 203.93 156.13 C 204.84 156.67 206.01 156.38 206.55 155.47 L 207.08 154.58 C 207.62 153.68 207.33 152.50 206.42 151.96 C 205.52 151.42 204.35 151.72 203.81 152.62 Z M 203.28 153.49 L 202.76 154.33 C 202.21 155.23 202.49 156.41 203.39 156.96 C 204.29 157.52 205.47 157.24 206.02 156.34 L 206.54 155.50 C 207.09 154.60 206.81 153.42 205.91 152.86 C 205.01 152.31 203.83 152.59 203.28 153.49 Z M 202.77 154.31 L 202.27 155.11 C 201.70 156.01 201.97 157.19 202.86 157.76 C 203.76 158.32 204.94 158.06 205.51 157.16 L 206.01 156.36 C 206.58 155.46 206.31 154.28 205.42 153.71 C 204.52 153.15 203.34 153.41 202.77 154.31 Z M 202.27 155.09 L 201.76 155.88 C 201.19 156.77 201.44 157.96 202.33 158.54 C 203.22 159.11 204.41 158.86 204.99 157.97 L 205.50 157.18 C 206.07 156.29 205.82 155.10 204.93 154.53 C 204.04 153.95 202.85 154.20 202.27 155.09 Z M 201.77 155.86 L 201.25 156.65 C 200.66 157.53 200.91 158.73 201.79 159.31 C 202.68 159.90 203.87 159.66 204.46 158.77 L 204.98 157.99 C 205.57 157.10 205.33 155.91 204.44 155.32 C 203.55 154.73 202.36 154.97 201.77 155.86 Z M 201.26 156.63 L 200.72 157.43 C 200.13 158.31 200.36 159.51 201.24 160.10 C 202.13 160.70 203.32 160.46 203.92 159.58 L 204.45 158.79 C 205.05 157.90 204.82 156.71 203.93 156.11 C 203.05 155.52 201.85 155.75 201.26 156.63 Z M 200.73 157.41 L 200.17 158.22 C 199.57 159.10 199.80 160.31 200.68 160.91 C 201.56 161.51 202.76 161.28 203.36 160.40 L 203.91 159.59 C 204.52 158.71 204.29 157.51 203.41 156.91 C 202.53 156.31 201.33 156.53 200.73 157.41 Z M 200.18 158.21 L 199.61 159.03 C 199.00 159.91 199.22 161.11 200.09 161.72 C 200.97 162.33 202.18 162.11 202.79 161.24 L 203.36 160.42 C 203.97 159.54 203.75 158.33 202.87 157.72 C 201.99 157.11 200.79 157.33 200.18 158.21 Z M 199.61 159.02 L 199.03 159.85 C 198.41 160.72 198.62 161.93 199.50 162.55 C 200.37 163.16 201.58 162.95 202.20 162.08 L 202.78 161.25 C 203.40 160.38 203.19 159.17 202.31 158.55 C 201.44 157.93 200.23 158.14 199.61 159.02 Z M 199.04 159.83 L 198.44 160.66 C 197.82 161.53 198.02 162.74 198.89 163.37 C 199.76 163.99 200.98 163.79 201.60 162.92 L 202.19 162.09 C 202.82 161.22 202.61 160.01 201.74 159.38 C 200.87 158.76 199.66 158.96 199.04 159.83 Z M 198.45 160.65 L 197.85 161.46 C 197.22 162.33 197.41 163.55 198.28 164.18 C 199.15 164.81 200.36 164.62 201.00 163.75 L 201.59 162.93 C 202.22 162.07 202.03 160.85 201.17 160.22 C 200.30 159.59 199.08 159.78 198.45 160.65 Z M 197.86 161.45 L 197.27 162.25 C 196.62 163.12 196.80 164.33 197.67 164.98 C 198.53 165.62 199.75 165.44 200.39 164.57 L 200.99 163.77 C 201.63 162.91 201.45 161.69 200.59 161.05 C 199.72 160.41 198.50 160.59 197.86 161.45 Z M 197.28 162.24 L 196.66 163.04 C 196.01 163.90 196.18 165.12 197.04 165.77 C 197.89 166.42 199.12 166.26 199.77 165.40 L 200.38 164.59 C 201.03 163.73 200.86 162.51 200.01 161.86 C 199.15 161.21 197.93 161.38 197.28 162.24 Z M 196.67 163.02 L 196.05 163.82 C 195.39 164.67 195.55 165.90 196.40 166.56 C 197.25 167.22 198.48 167.07 199.14 166.22 L 199.76 165.42 C 200.42 164.57 200.26 163.34 199.41 162.68 C 198.56 162.02 197.33 162.17 196.67 163.02 Z M 196.07 163.80 L 195.45 164.58 C 194.77 165.42 194.91 166.65 195.76 167.33 C 196.60 168.00 197.83 167.86 198.50 167.01 L 199.12 166.24 C 199.80 165.39 199.66 164.16 198.81 163.49 C 197.97 162.82 196.74 162.96 196.07 163.80 Z M 195.46 164.56 L 194.83 165.33 C 194.15 166.16 194.27 167.40 195.11 168.08 C 195.95 168.76 197.18 168.64 197.86 167.80 L 198.49 167.04 C 199.17 166.20 199.05 164.97 198.21 164.28 C 197.38 163.60 196.14 163.72 195.46 164.56 Z M 194.85 165.30 L 194.21 166.06 C 193.52 166.89 193.63 168.13 194.46 168.82 C 195.28 169.52 196.52 169.41 197.22 168.58 L 197.85 167.82 C 198.55 166.99 198.44 165.76 197.61 165.06 C 196.78 164.37 195.54 164.48 194.85 165.30 Z M 194.23 166.04 L 193.58 166.80 C 192.87 167.62 192.96 168.86 193.79 169.56 C 194.61 170.27 195.85 170.18 196.55 169.35 L 197.20 168.60 C 197.91 167.78 197.81 166.54 196.99 165.83 C 196.17 165.13 194.93 165.22 194.23 166.04 Z M 193.59 166.78 L 192.93 167.53 C 192.21 168.34 192.29 169.58 193.11 170.30 C 193.92 171.02 195.16 170.94 195.88 170.12 L 196.54 169.37 C 197.26 168.56 197.18 167.32 196.36 166.60 C 195.55 165.88 194.31 165.96 193.59 166.78 Z M 192.94 167.51 L 192.29 168.23 C 191.57 169.04 191.63 170.28 192.44 171.01 C 193.25 171.73 194.49 171.67 195.22 170.86 L 195.87 170.14 C 196.59 169.34 196.53 168.09 195.72 167.36 C 194.91 166.64 193.67 166.70 192.94 167.51 Z M 192.31 168.21 L 191.64 168.94 C 190.90 169.74 190.96 170.98 191.76 171.72 C 192.56 172.46 193.81 172.40 194.54 171.60 L 195.21 170.88 C 195.94 170.08 195.89 168.83 195.09 168.10 C 194.29 167.36 193.04 167.41 192.31 168.21 Z M 191.65 168.92 L 190.97 169.65 C 190.23 170.45 190.27 171.69 191.07 172.44 C 191.86 173.18 193.11 173.14 193.85 172.34 L 194.53 171.62 C 195.28 170.82 195.23 169.57 194.44 168.83 C 193.64 168.09 192.39 168.13 191.65 168.92 Z M 190.98 169.64 L 190.29 170.37 C 189.54 171.16 189.57 172.41 190.36 173.16 C 191.15 173.91 192.40 173.88 193.15 173.08 L 193.84 172.35 C 194.59 171.56 194.56 170.31 193.77 169.56 C 192.98 168.81 191.73 168.85 190.98 169.64 Z M 190.29 170.36 L 189.59 171.09 C 188.84 171.88 188.86 173.13 189.65 173.88 C 190.44 174.64 191.69 174.61 192.44 173.83 L 193.15 173.09 C 193.90 172.31 193.88 171.06 193.09 170.30 C 192.30 169.55 191.05 169.57 190.29 170.36 Z M 189.60 171.08 L 188.89 171.81 C 188.13 172.60 188.15 173.85 188.93 174.61 C 189.72 175.37 190.97 175.35 191.73 174.57 L 192.44 173.83 C 193.20 173.05 193.18 171.80 192.39 171.04 C 191.61 170.28 190.36 170.30 189.60 171.08 Z M 188.89 171.81 L 188.18 172.53 C 187.42 173.32 187.43 174.57 188.22 175.33 C 189.00 176.10 190.25 176.08 191.02 175.30 L 191.73 174.57 C 192.49 173.79 192.47 172.54 191.69 171.77 C 190.91 171.01 189.66 171.02 188.89 171.81 Z M 188.19 172.53 L 187.49 173.24 C 186.72 174.02 186.73 175.27 187.51 176.04 C 188.30 176.81 189.55 176.80 190.32 176.01 L 191.01 175.31 C 191.78 174.53 191.77 173.27 190.99 172.50 C 190.21 171.74 188.95 171.75 188.19 172.53 Z M 187.49 173.23 L 186.79 173.94 C 186.02 174.72 186.03 175.97 186.81 176.74 C 187.59 177.51 188.85 177.51 189.62 176.73 L 190.31 176.02 C 191.09 175.24 191.08 173.98 190.30 173.21 C 189.52 172.44 188.26 172.45 187.49 173.23 Z M 186.80 173.93 L 186.09 174.64 C 185.32 175.42 185.32 176.67 186.10 177.45 C 186.88 178.22 188.14 178.22 188.91 177.44 L 189.61 176.73 C 190.39 175.96 190.38 174.70 189.61 173.92 C 188.83 173.15 187.57 173.15 186.80 173.93 Z M 186.10 174.63 L 185.39 175.34 C 184.61 176.12 184.61 177.37 185.39 178.15 C 186.16 178.93 187.42 178.93 188.20 178.15 L 188.91 177.45 C 189.68 176.67 189.68 175.41 188.91 174.63 C 188.13 173.86 186.87 173.86 186.10 174.63 Z M 185.39 175.34 L 184.68 176.04 C 183.90 176.82 183.90 178.08 184.67 178.86 C 185.44 179.63 186.70 179.64 187.48 178.87 L 188.20 178.16 C 188.98 177.38 188.98 176.12 188.21 175.34 C 187.43 174.57 186.17 174.56 185.39 175.34 Z M 184.68 176.04 L 183.97 176.74 C 183.18 177.52 183.18 178.78 183.95 179.56 C 184.72 180.34 185.98 180.35 186.76 179.58 L 187.48 178.87 C 188.26 178.10 188.27 176.84 187.50 176.05 C 186.73 175.27 185.47 175.26 184.68 176.04 Z M 183.97 176.74 L 183.25 177.44 C 182.46 178.22 182.45 179.48 183.22 180.26 C 183.99 181.05 185.26 181.06 186.04 180.29 L 186.76 179.58 C 187.55 178.81 187.56 177.55 186.79 176.76 C 186.02 175.98 184.76 175.97 183.97 176.74 Z M 183.25 177.44 L 182.54 178.13 C 181.75 178.90 181.74 180.17 182.51 180.95 C 183.28 181.74 184.54 181.76 185.33 180.99 L 186.04 180.29 C 186.83 179.53 186.84 178.26 186.07 177.47 C 185.30 176.69 184.04 176.67 183.25 177.44 Z M 182.55 178.13 L 181.83 178.82 C 181.04 179.59 181.02 180.85 181.78 181.64 C 182.55 182.44 183.82 182.46 184.61 181.69 L 185.32 180.99 C 186.11 180.23 186.13 178.96 185.37 178.17 C 184.60 177.38 183.34 177.36 182.55 178.13 Z M 181.83 178.82 L 181.11 179.51 C 180.32 180.27 180.29 181.54 181.06 182.33 C 181.82 183.13 183.09 183.15 183.88 182.39 L 184.60 181.69 C 185.40 180.93 185.42 179.67 184.66 178.87 C 183.89 178.08 182.63 178.05 181.83 178.82 Z M 181.12 179.50 L 180.39 180.19 C 179.60 180.95 179.57 182.22 180.33 183.02 C 181.09 183.82 182.36 183.85 183.15 183.08 L 183.88 182.39 C 184.68 181.63 184.71 180.37 183.94 179.57 C 183.18 178.77 181.92 178.74 181.12 179.50 Z M 180.40 180.18 L 179.67 180.87 C 178.87 181.63 178.83 182.90 179.59 183.70 C 180.35 184.50 181.62 184.54 182.42 183.78 L 183.15 183.09 C 183.95 182.33 183.99 181.07 183.23 180.26 C 182.47 179.46 181.20 179.43 180.40 180.18 Z M 179.68 180.86 L 178.95 181.55 C 178.14 182.31 178.10 183.57 178.85 184.38 C 179.61 185.19 180.87 185.23 181.68 184.47 L 182.41 183.79 C 183.22 183.03 183.26 181.77 182.51 180.96 C 181.75 180.15 180.49 180.11 179.68 180.86 Z M 178.95 181.54 L 178.22 182.22 C 177.40 182.98 177.36 184.24 178.11 185.06 C 178.86 185.87 180.13 185.92 180.94 185.16 L 181.68 184.48 C 182.49 183.73 182.54 182.46 181.78 181.65 C 181.03 180.84 179.76 180.79 178.95 181.54 Z M 178.22 182.22 L 177.49 182.89 C 176.68 183.63 176.62 184.90 177.37 185.72 C 178.11 186.53 179.38 186.59 180.20 185.84 L 180.93 185.17 C 181.75 184.42 181.80 183.16 181.06 182.34 C 180.31 181.52 179.04 181.47 178.22 182.22 Z M 177.50 182.88 L 176.77 183.54 C 175.94 184.29 175.88 185.55 176.63 186.38 C 177.37 187.20 178.64 187.26 179.46 186.52 L 180.19 185.85 C 181.01 185.11 181.08 183.84 180.33 183.02 C 179.59 182.20 178.32 182.13 177.50 182.88 Z M 176.77 183.54 L 176.03 184.20 C 175.21 184.94 175.14 186.21 175.88 187.03 C 176.62 187.86 177.89 187.93 178.71 187.19 L 179.45 186.52 C 180.28 185.78 180.35 184.51 179.61 183.69 C 178.87 182.86 177.60 182.80 176.77 183.54 Z M 176.04 184.19 L 175.30 184.85 C 174.47 185.59 174.39 186.86 175.13 187.69 C 175.87 188.52 177.13 188.59 177.96 187.85 L 178.71 187.19 C 179.54 186.46 179.61 185.19 178.87 184.36 C 178.14 183.53 176.87 183.45 176.04 184.19 Z M 175.30 184.85 L 174.55 185.51 C 173.72 186.24 173.64 187.51 174.37 188.34 C 175.11 189.18 176.38 189.25 177.21 188.52 L 177.96 187.86 C 178.79 187.13 178.87 185.86 178.14 185.02 C 177.40 184.19 176.13 184.11 175.30 184.85 Z M 174.56 185.50 L 173.80 186.16 C 172.96 186.90 172.88 188.17 173.61 189.00 C 174.34 189.84 175.61 189.92 176.45 189.19 L 177.20 188.53 C 178.04 187.80 178.12 186.53 177.39 185.69 C 176.66 184.86 175.39 184.77 174.56 185.50 Z M 173.80 186.16 L 173.04 186.82 C 172.20 187.55 172.11 188.82 172.84 189.66 C 173.57 190.50 174.84 190.59 175.68 189.86 L 176.44 189.19 C 177.28 188.46 177.37 187.19 176.64 186.36 C 175.91 185.52 174.64 185.43 173.80 186.16 Z M 173.04 186.82 L 172.30 187.47 C 171.46 188.19 171.37 189.47 172.09 190.30 C 172.82 191.14 174.09 191.24 174.93 190.51 L 175.68 189.86 C 176.52 189.14 176.61 187.86 175.88 187.02 C 175.15 186.18 173.88 186.09 173.04 186.82 Z M 172.30 187.46 L 171.60 188.07 C 170.76 188.79 170.66 190.06 171.39 190.91 C 172.11 191.75 173.38 191.84 174.23 191.12 L 174.93 190.51 C 175.77 189.79 175.86 188.52 175.14 187.67 C 174.41 186.83 173.14 186.74 172.30 187.46 Z M 171.61 188.06 L 170.89 188.67 C 170.05 189.39 169.94 190.66 170.67 191.51 C 171.39 192.35 172.66 192.45 173.50 191.73 L 174.22 191.12 C 175.06 190.40 175.16 189.13 174.44 188.29 C 173.72 187.44 172.45 187.34 171.61 188.06 Z M 170.90 188.66 L 170.17 189.28 C 169.32 189.99 169.21 191.26 169.93 192.11 C 170.64 192.97 171.91 193.07 172.76 192.36 L 173.49 191.74 C 174.34 191.02 174.45 189.75 173.74 188.90 C 173.02 188.05 171.75 187.95 170.90 188.66 Z M 170.18 189.27 L 169.43 189.89 C 168.57 190.60 168.45 191.87 169.16 192.73 C 169.87 193.58 171.14 193.70 172.00 192.99 L 172.75 192.37 C 173.61 191.66 173.73 190.39 173.02 189.53 C 172.31 188.68 171.04 188.56 170.18 189.27 Z M 169.44 189.88 L 168.66 190.52 C 167.80 191.22 167.67 192.49 168.37 193.35 C 169.07 194.21 170.34 194.34 171.20 193.64 L 171.98 193.00 C 172.85 192.30 172.98 191.03 172.27 190.17 C 171.57 189.31 170.30 189.18 169.44 189.88 Z M 168.68 190.50 L 167.87 191.15 C 166.99 191.84 166.85 193.11 167.54 193.98 C 168.24 194.85 169.50 194.99 170.37 194.30 L 171.19 193.65 C 172.06 192.96 172.20 191.69 171.51 190.82 C 170.81 189.95 169.55 189.81 168.68 190.50 Z M 167.88 191.13 L 167.03 191.79 C 166.16 192.48 166.00 193.74 166.68 194.62 C 167.36 195.50 168.63 195.66 169.51 194.97 L 170.36 194.31 C 171.23 193.63 171.39 192.37 170.71 191.49 C 170.03 190.61 168.76 190.45 167.88 191.13 Z M 167.05 191.78 L 166.18 192.44 C 165.29 193.12 165.12 194.38 165.79 195.27 C 166.46 196.15 167.72 196.33 168.61 195.65 L 169.49 194.99 C 170.37 194.32 170.55 193.05 169.88 192.17 C 169.20 191.28 167.94 191.11 167.05 191.78 Z M 166.19 192.43 L 165.42 193.00 C 164.53 193.66 164.34 194.93 165.00 195.82 C 165.67 196.71 166.93 196.90 167.82 196.24 L 168.59 195.67 C 169.49 195.01 169.67 193.74 169.01 192.85 C 168.35 191.96 167.09 191.77 166.19 192.43 Z M 165.44 192.99 L 164.64 193.57 C 163.74 194.22 163.54 195.48 164.19 196.38 C 164.85 197.28 166.11 197.48 167.01 196.83 L 167.80 196.25 C 168.71 195.60 168.91 194.34 168.25 193.44 C 167.60 192.54 166.34 192.34 165.44 192.99 Z M 164.66 193.56 L 163.84 194.14 C 162.93 194.78 162.72 196.04 163.36 196.94 C 164.01 197.85 165.26 198.07 166.17 197.42 L 166.99 196.84 C 167.90 196.20 168.11 194.94 167.47 194.03 C 166.82 193.13 165.57 192.91 164.66 193.56 Z M 163.86 194.12 L 163.02 194.70 C 162.11 195.34 161.88 196.59 162.52 197.51 C 163.15 198.42 164.41 198.65 165.32 198.01 L 166.15 197.43 C 167.07 196.80 167.30 195.55 166.66 194.63 C 166.03 193.72 164.77 193.49 163.86 194.12 Z M 163.04 194.69 L 162.19 195.26 C 161.27 195.89 161.03 197.14 161.66 198.06 C 162.28 198.98 163.53 199.22 164.45 198.60 L 165.30 198.03 C 166.22 197.40 166.46 196.15 165.84 195.23 C 165.22 194.31 163.96 194.07 163.04 194.69 Z M 162.21 195.25 L 161.36 195.82 C 160.43 196.43 160.18 197.68 160.79 198.61 C 161.40 199.54 162.65 199.79 163.58 199.18 L 164.44 198.61 C 165.36 198.00 165.62 196.75 165.01 195.82 C 164.39 194.89 163.14 194.64 162.21 195.25 Z M 161.38 195.80 L 160.52 196.35 C 159.59 196.96 159.32 198.20 159.92 199.14 C 160.52 200.07 161.77 200.35 162.70 199.74 L 163.56 199.19 C 164.50 198.59 164.77 197.34 164.16 196.41 C 163.56 195.47 162.32 195.20 161.38 195.80 Z M 160.54 196.34 L 159.69 196.87 C 158.75 197.46 158.46 198.71 159.05 199.65 C 159.64 200.59 160.88 200.88 161.82 200.29 L 162.68 199.76 C 163.62 199.17 163.91 197.93 163.32 196.98 C 162.73 196.04 161.49 195.75 160.54 196.34 Z M 159.72 196.86 L 158.87 197.37 C 157.91 197.95 157.61 199.19 158.18 200.14 C 158.76 201.09 160.00 201.40 160.95 200.82 L 161.80 200.31 C 162.75 199.73 163.06 198.49 162.48 197.54 C 161.91 196.59 160.67 196.28 159.72 196.86 Z M 158.90 197.35 L 158.04 197.85 C 157.08 198.41 156.75 199.65 157.31 200.61 C 157.87 201.57 159.10 201.90 160.07 201.34 L 160.92 200.84 C 161.88 200.28 162.21 199.04 161.65 198.08 C 161.09 197.12 159.86 196.79 158.90 197.35 Z M 158.07 197.83 L 157.10 198.38 C 156.12 198.92 155.77 200.14 156.31 201.11 C 156.85 202.09 158.08 202.44 159.05 201.90 L 160.03 201.36 C 161.00 200.82 161.35 199.59 160.81 198.62 C 160.27 197.64 159.05 197.29 158.07 197.83 Z M 157.14 198.35 L 156.18 198.86 C 155.20 199.37 154.82 200.59 155.34 201.57 C 155.85 202.56 157.07 202.94 158.05 202.42 L 159.01 201.92 C 159.99 201.40 160.37 200.19 159.86 199.20 C 159.34 198.22 158.12 197.84 157.14 198.35 Z M 156.23 198.83 L 155.29 199.30 C 154.29 199.79 153.89 201.00 154.38 201.99 C 154.87 202.99 156.08 203.40 157.07 202.91 L 158.01 202.44 C 159.01 201.95 159.41 200.74 158.92 199.75 C 158.43 198.75 157.22 198.34 156.23 198.83 Z M 155.34 199.28 L 154.42 199.70 C 153.41 200.17 152.97 201.36 153.44 202.37 C 153.90 203.38 155.10 203.82 156.11 203.35 L 157.02 202.93 C 158.03 202.46 158.47 201.27 158.01 200.26 C 157.54 199.25 156.35 198.81 155.34 199.28 Z M 154.47 199.68 L 153.57 200.06 C 152.55 200.50 152.08 201.68 152.52 202.70 C 152.95 203.72 154.13 204.20 155.15 203.76 L 156.05 203.37 C 157.07 202.94 157.55 201.75 157.11 200.73 C 156.67 199.71 155.49 199.24 154.47 199.68 Z M 153.63 200.04 L 152.74 200.39 C 151.71 200.80 151.20 201.96 151.61 203.00 C 152.02 204.03 153.18 204.53 154.21 204.13 L 155.10 203.78 C 156.13 203.37 156.64 202.21 156.23 201.17 C 155.82 200.14 154.66 199.64 153.63 200.04 Z M 152.80 200.37 L 151.93 200.68 C 150.89 201.06 150.35 202.21 150.72 203.25 C 151.09 204.29 152.24 204.84 153.29 204.46 L 154.16 204.15 C 155.20 203.77 155.74 202.62 155.37 201.58 C 154.99 200.54 153.84 200.00 152.80 200.37 Z M 151.99 200.66 L 151.14 200.94 C 150.08 201.28 149.50 202.41 149.84 203.46 C 150.19 204.52 151.32 205.10 152.37 204.76 L 153.23 204.48 C 154.28 204.14 154.86 203.01 154.52 201.96 C 154.18 200.90 153.05 200.32 151.99 200.66 Z M 151.21 200.92 L 150.26 201.19 C 149.19 201.49 148.57 202.60 148.88 203.67 C 149.18 204.73 150.29 205.35 151.35 205.05 L 152.30 204.77 C 153.37 204.47 153.98 203.36 153.68 202.30 C 153.38 201.24 152.27 200.62 151.21 200.92 Z M 150.33 201.18 L 149.36 201.41 C 148.29 201.67 147.63 202.75 147.89 203.82 C 148.15 204.90 149.23 205.56 150.30 205.30 L 151.27 205.06 C 152.35 204.80 153.01 203.72 152.75 202.65 C 152.49 201.57 151.40 200.92 150.33 201.18 Z M 149.44 201.40 L 148.48 201.59 C 147.40 201.81 146.70 202.86 146.91 203.94 C 147.13 205.02 148.18 205.72 149.26 205.50 L 150.23 205.31 C 151.31 205.09 152.00 204.04 151.79 202.96 C 151.57 201.88 150.52 201.18 149.44 201.40 Z M 148.55 201.58 L 147.58 201.74 C 146.50 201.92 145.76 202.94 145.94 204.02 C 146.11 205.11 147.13 205.84 148.22 205.67 L 149.19 205.51 C 150.27 205.34 151.01 204.31 150.83 203.23 C 150.66 202.14 149.63 201.41 148.55 201.58 Z M 147.65 201.74 L 146.67 201.86 C 145.59 202.00 144.82 202.99 144.95 204.07 C 145.09 205.16 146.08 205.93 147.17 205.80 L 148.15 205.67 C 149.23 205.54 150.01 204.54 149.87 203.46 C 149.73 202.37 148.74 201.60 147.65 201.74 Z M 146.74 201.86 L 145.74 201.95 C 144.65 202.05 143.85 203.02 143.96 204.10 C 144.06 205.19 145.02 205.99 146.11 205.89 L 147.11 205.80 C 148.19 205.70 148.99 204.73 148.89 203.64 C 148.79 202.55 147.83 201.75 146.74 201.86 Z M 145.80 201.95 L 144.78 202.02 C 143.69 202.09 142.87 203.03 142.94 204.12 C 143.01 205.20 143.95 206.03 145.03 205.96 L 146.05 205.89 C 147.14 205.82 147.97 204.88 147.90 203.79 C 147.83 202.70 146.89 201.88 145.80 201.95 Z M 144.82 202.02 L 143.83 202.06 C 142.75 202.11 141.90 203.02 141.95 204.11 C 142.00 205.20 142.91 206.04 144.00 205.99 L 144.99 205.95 C 146.08 205.91 146.92 204.99 146.87 203.90 C 146.83 202.82 145.91 201.97 144.82 202.02 Z M 143.87 202.07 L 142.89 202.09 C 141.81 202.11 140.95 203.01 140.98 204.09 C 141.00 205.17 141.90 206.03 142.98 206.01 L 143.96 205.99 C 145.04 205.96 145.90 205.07 145.87 203.99 C 145.85 202.90 144.95 202.05 143.87 202.07 Z M 142.93 202.10 L 141.94 202.10 C 140.86 202.11 139.99 202.98 139.99 204.06 C 139.99 205.13 140.87 206.00 141.94 206.00 L 142.94 206.00 C 144.02 206.00 144.89 205.12 144.89 204.05 C 144.88 202.97 144.01 202.10 142.93 202.10 Z M 141.97 202.11 L 140.96 202.10 C 139.89 202.08 139.01 202.93 138.99 204.00 C 138.97 205.07 139.83 205.95 140.90 205.97 L 141.91 205.99 C 142.98 206.01 143.86 205.16 143.88 204.09 C 143.90 203.02 143.04 202.13 141.97 202.11 Z M 141.00 202.11 L 139.99 202.07 C 138.93 202.03 138.03 202.86 137.99 203.92 C 137.95 204.99 138.78 205.88 139.84 205.92 L 140.86 205.96 C 141.92 206.00 142.82 205.17 142.86 204.11 C 142.90 203.04 142.07 202.15 141.00 202.11 Z M 140.03 202.08 L 139.02 202.02 C 137.96 201.96 137.05 202.76 136.99 203.82 C 136.92 204.88 137.73 205.79 138.79 205.85 L 139.80 205.91 C 140.86 205.97 141.77 205.17 141.83 204.11 C 141.89 203.05 141.09 202.14 140.03 202.08 Z M 139.06 202.03 L 138.05 201.95 C 137.00 201.86 136.08 202.64 135.99 203.69 C 135.91 204.74 136.69 205.66 137.74 205.75 L 138.74 205.84 C 139.79 205.92 140.72 205.14 140.80 204.09 C 140.89 203.04 140.11 202.12 139.06 202.03 Z M 138.10 201.96 L 137.11 201.86 C 136.06 201.74 135.13 202.50 135.01 203.54 C 134.90 204.58 135.66 205.52 136.70 205.63 L 137.69 205.74 C 138.73 205.85 139.67 205.10 139.78 204.05 C 139.89 203.01 139.14 202.08 138.10 201.96 Z M 137.15 201.88 L 136.14 201.74 C 135.11 201.60 134.17 202.32 134.03 203.35 C 133.89 204.38 134.61 205.33 135.64 205.47 L 136.65 205.61 C 137.68 205.75 138.63 205.02 138.76 204.00 C 138.90 202.97 138.18 202.02 137.15 201.88 Z M 136.19 201.78 L 135.18 201.61 C 134.17 201.45 133.22 202.14 133.06 203.15 C 132.89 204.16 133.58 205.11 134.59 205.27 L 135.59 205.43 C 136.60 205.60 137.56 204.91 137.72 203.90 C 137.88 202.89 137.20 201.94 136.19 201.78 Z M 135.22 201.65 L 134.23 201.47 C 133.24 201.29 132.29 201.94 132.11 202.93 C 131.92 203.92 132.58 204.87 133.57 205.05 L 134.56 205.23 C 135.55 205.42 136.50 204.76 136.68 203.77 C 136.86 202.78 136.21 201.83 135.22 201.65 Z M 134.25 201.50 L 133.28 201.31 C 132.31 201.11 131.36 201.74 131.17 202.71 C 130.97 203.68 131.60 204.63 132.57 204.82 L 133.54 205.02 C 134.51 205.21 135.46 204.58 135.65 203.61 C 135.85 202.64 135.22 201.70 134.25 201.50 Z M 133.29 201.34 L 132.32 201.13 C 131.37 200.93 130.43 201.54 130.23 202.49 C 130.03 203.44 130.64 204.38 131.59 204.58 L 132.55 204.79 C 133.51 204.99 134.44 204.38 134.65 203.43 C 134.85 202.48 134.24 201.54 133.29 201.34 Z M 132.33 201.17 L 131.36 200.96 C 130.43 200.75 129.50 201.34 129.30 202.28 C 129.09 203.21 129.69 204.13 130.62 204.34 L 131.58 204.55 C 132.52 204.75 133.44 204.16 133.65 203.23 C 133.85 202.29 133.26 201.37 132.33 201.17 Z M 131.36 200.98 L 130.39 200.77 C 129.47 200.57 128.57 201.15 128.36 202.07 C 128.16 202.99 128.74 203.89 129.66 204.10 L 130.63 204.31 C 131.54 204.51 132.45 203.93 132.65 203.01 C 132.85 202.09 132.27 201.19 131.36 200.98 Z M 130.38 200.80 L 129.41 200.59 C 128.51 200.40 127.62 200.97 127.42 201.88 C 127.23 202.78 127.80 203.67 128.71 203.86 L 129.68 204.07 C 130.58 204.26 131.47 203.69 131.66 202.78 C 131.85 201.88 131.28 200.99 130.38 200.80 Z M 129.39 200.61 L 128.42 200.41 C 127.53 200.22 126.65 200.80 126.47 201.70 C 126.29 202.59 126.86 203.46 127.76 203.65 L 128.73 203.85 C 129.62 204.03 130.49 203.45 130.68 202.56 C 130.86 201.66 130.29 200.79 129.39 200.61 Z M 128.41 200.42 L 127.43 200.23 C 126.54 200.05 125.68 200.63 125.50 201.52 C 125.33 202.41 125.91 203.27 126.80 203.45 L 127.77 203.64 C 128.66 203.81 129.52 203.23 129.70 202.35 C 129.87 201.46 129.30 200.59 128.41 200.42 Z M 127.42 200.24 L 126.44 200.05 C 125.56 199.88 124.70 200.46 124.53 201.34 C 124.37 202.23 124.95 203.08 125.83 203.25 L 126.81 203.43 C 127.69 203.60 128.54 203.02 128.71 202.14 C 128.88 201.26 128.30 200.41 127.42 200.24 Z M 126.43 200.06 L 125.44 199.88 C 124.57 199.72 123.72 200.29 123.56 201.17 C 123.40 202.05 123.98 202.89 124.85 203.05 L 125.84 203.24 C 126.72 203.40 127.56 202.82 127.72 201.94 C 127.88 201.07 127.31 200.22 126.43 200.06 Z M 125.43 199.89 L 124.45 199.71 C 123.58 199.55 122.74 200.13 122.58 201.00 C 122.43 201.87 123.00 202.71 123.87 202.86 L 124.86 203.04 C 125.73 203.20 126.57 202.62 126.73 201.75 C 126.88 200.88 126.31 200.05 125.43 199.89 Z M 124.44 199.72 L 123.45 199.55 C 122.58 199.39 121.76 199.97 121.60 200.83 C 121.45 201.70 122.03 202.52 122.89 202.68 L 123.88 202.85 C 124.75 203.01 125.57 202.43 125.73 201.57 C 125.88 200.70 125.30 199.88 124.44 199.72 Z M 123.44 199.56 L 122.45 199.38 C 121.59 199.23 120.78 199.80 120.62 200.66 C 120.47 201.52 121.05 202.34 121.90 202.49 L 122.89 202.66 C 123.75 202.81 124.57 202.24 124.72 201.38 C 124.87 200.53 124.30 199.71 123.44 199.56 Z M 122.45 199.39 L 122.15 199.34 C 121.30 199.19 120.48 199.76 120.33 200.61 C 120.18 201.46 120.75 202.28 121.61 202.43 L 121.90 202.48 C 122.76 202.63 123.57 202.06 123.72 201.21 C 123.87 200.35 123.30 199.54 122.45 199.39 Z"
      fill="black"
      fill-rule="nonzero" /></svg>