<svg xmlns="http://www.w3.org/2000/svg" width="300" height="300" viewBox="0 0 300 300">
<path d="M 150.12 86.80 L 149.17 87.21 C 148.29 87.60 147.88 88.63 148.27 89.51 C 148.65 90.40 149.68 90.81 150.57 90.42 L 151.51 90.01 C 152.40 89.63 152.80 88.60 152.42 87.71 C 152.03 86.82 151.00 86.42 150.12 86.80 Z M 149.12 87.22 L 148.20 87.65 C 147.32 88.06 146.94 89.12 147.35 90.00 C 147.77 90.89 148.82 91.27 149.71 90.85 L 150.62 90.42 C 151.51 90.00 151.89 88.95 151.47 88.07 C 151.06 87.18 150.00 86.80 149.12 87.22 Z M 148.10 87.68 L 147.22 88.15 C 146.36 88.63 146.04 89.71 146.51 90.58 C 146.98 91.45 148.07 91.77 148.94 91.30 L 149.81 90.82 C 150.68 90.35 151.00 89.26 150.52 88.39 C 150.05 87.52 148.96 87.20 148.10 87.68 Z M 147.07 88.22 L 146.26 88.77 C 145.43 89.33 145.21 90.45 145.77 91.28 C 146.33 92.11 147.46 92.33 148.28 91.77 L 149.09 91.22 C 149.92 90.67 150.14 89.54 149.58 88.71 C 149.02 87.88 147.90 87.67 147.07 88.22 Z M 146.06 88.90 L 145.35 89.53 C 144.59 90.20 144.52 91.36 145.19 92.11 C 145.86 92.87 147.01 92.94 147.77 92.27 L 148.49 91.64 C 149.24 90.97 149.31 89.81 148.64 89.06 C 147.97 88.30 146.82 88.23 146.06 88.90 Z M 145.12 89.74 L 144.52 90.48 C 143.87 91.28 144.00 92.44 144.79 93.08 C 145.58 93.73 146.75 93.60 147.39 92.81 L 147.99 92.06 C 148.64 91.27 148.51 90.11 147.72 89.46 C 146.93 88.82 145.76 88.94 145.12 89.74 Z M 144.30 90.77 L 143.84 91.65 C 143.35 92.56 143.70 93.69 144.61 94.18 C 145.52 94.66 146.65 94.32 147.13 93.41 L 147.60 92.53 C 148.09 91.61 147.74 90.48 146.83 90.00 C 145.92 89.51 144.79 89.86 144.30 90.77 Z M 143.70 91.94 L 143.44 92.72 C 143.12 93.71 143.66 94.77 144.65 95.09 C 145.63 95.41 146.70 94.88 147.02 93.89 L 147.27 93.11 C 147.60 92.12 147.06 91.06 146.07 90.74 C 145.08 90.42 144.02 90.96 143.70 91.94 Z M 143.38 92.95 L 143.24 93.66 C 143.04 94.68 143.71 95.67 144.73 95.87 C 145.76 96.07 146.74 95.40 146.94 94.38 L 147.08 93.66 C 147.28 92.64 146.61 91.65 145.59 91.45 C 144.57 91.26 143.58 91.92 143.38 92.95 Z M 143.22 93.84 L 143.14 94.62 C 143.04 95.65 143.80 96.57 144.84 96.67 C 145.87 96.77 146.79 96.02 146.89 94.98 L 146.97 94.20 C 147.07 93.17 146.31 92.24 145.27 92.14 C 144.24 92.04 143.32 92.80 143.22 93.84 Z M 143.13 94.77 L 143.12 95.61 C 143.10 96.65 143.93 97.51 144.97 97.52 C 146.01 97.54 146.87 96.71 146.89 95.67 L 146.90 94.83 C 146.92 93.79 146.09 92.93 145.05 92.92 C 144.01 92.90 143.15 93.73 143.13 94.77 Z M 143.12 95.74 L 143.17 96.63 C 143.22 97.67 144.11 98.47 145.15 98.42 C 146.19 98.36 146.99 97.48 146.93 96.44 L 146.88 95.54 C 146.83 94.50 145.94 93.70 144.90 93.76 C 143.87 93.81 143.07 94.70 143.12 95.74 Z M 143.18 96.74 L 143.28 97.70 C 143.40 98.73 144.33 99.47 145.36 99.36 C 146.40 99.25 147.14 98.32 147.03 97.28 L 146.92 96.33 C 146.81 95.30 145.88 94.55 144.84 94.67 C 143.81 94.78 143.06 95.71 143.18 96.74 Z M 143.30 97.79 L 143.46 98.80 C 143.63 99.82 144.59 100.52 145.62 100.35 C 146.64 100.19 147.34 99.22 147.18 98.20 L 147.01 97.19 C 146.85 96.16 145.88 95.47 144.86 95.63 C 143.83 95.80 143.13 96.76 143.30 97.79 Z M 143.48 98.87 L 143.69 99.93 C 143.90 100.95 144.90 101.60 145.91 101.40 C 146.93 101.19 147.59 100.19 147.38 99.17 L 147.16 98.12 C 146.95 97.10 145.96 96.44 144.94 96.65 C 143.92 96.86 143.27 97.86 143.48 98.87 Z M 143.71 100.00 L 143.98 101.11 C 144.23 102.11 145.25 102.73 146.25 102.49 C 147.26 102.24 147.88 101.22 147.63 100.21 L 147.36 99.10 C 147.12 98.10 146.10 97.48 145.09 97.73 C 144.08 97.97 143.46 98.99 143.71 100.00 Z M 144.00 101.17 L 144.32 102.32 C 144.60 103.32 145.64 103.90 146.64 103.62 C 147.64 103.34 148.22 102.30 147.94 101.30 L 147.62 100.15 C 147.34 99.15 146.30 98.57 145.30 98.85 C 144.30 99.13 143.72 100.17 144.00 101.17 Z M 144.33 102.37 L 144.71 103.57 C 145.02 104.56 146.07 105.11 147.06 104.80 C 148.05 104.49 148.61 103.44 148.30 102.45 L 147.92 101.25 C 147.62 100.26 146.56 99.71 145.57 100.02 C 144.58 100.32 144.03 101.38 144.33 102.37 Z M 144.72 103.61 L 145.14 104.83 C 145.47 105.81 146.54 106.34 147.52 106.00 C 148.50 105.67 149.03 104.60 148.70 103.62 L 148.28 102.40 C 147.95 101.42 146.88 100.89 145.90 101.23 C 144.91 101.56 144.39 102.63 144.72 103.61 Z M 145.15 104.86 L 145.48 105.78 C 145.84 106.76 146.91 107.26 147.89 106.91 C 148.86 106.56 149.37 105.48 149.02 104.50 L 148.68 103.58 C 148.33 102.61 147.25 102.10 146.28 102.46 C 145.30 102.81 144.80 103.89 145.15 104.86 Z M 145.49 105.81 L 145.85 106.74 C 146.22 107.71 147.30 108.20 148.27 107.83 C 149.24 107.47 149.73 106.38 149.36 105.41 L 149.00 104.48 C 148.64 103.51 147.55 103.02 146.58 103.39 C 145.61 103.75 145.13 104.84 145.49 105.81 Z M 145.86 106.77 L 146.23 107.71 C 146.61 108.68 147.70 109.15 148.67 108.77 C 149.63 108.39 150.10 107.30 149.72 106.34 L 149.35 105.39 C 148.97 104.43 147.88 103.95 146.92 104.33 C 145.95 104.71 145.48 105.80 145.86 106.77 Z M 146.24 107.73 L 146.63 108.69 C 147.02 109.65 148.12 110.11 149.07 109.72 C 150.03 109.33 150.49 108.24 150.10 107.28 L 149.71 106.32 C 149.32 105.36 148.23 104.90 147.27 105.29 C 146.31 105.68 145.85 106.77 146.24 107.73 Z M 146.64 108.71 L 147.04 109.67 C 147.44 110.62 148.54 111.07 149.49 110.67 C 150.45 110.27 150.90 109.18 150.50 108.22 L 150.09 107.26 C 149.69 106.31 148.60 105.86 147.64 106.26 C 146.69 106.66 146.24 107.75 146.64 108.71 Z M 147.05 109.69 L 147.47 110.65 C 147.87 111.60 148.98 112.04 149.92 111.63 C 150.87 111.22 151.31 110.12 150.90 109.17 L 150.49 108.21 C 150.08 107.26 148.98 106.82 148.03 107.23 C 147.08 107.64 146.64 108.74 147.05 109.69 Z M 147.47 110.66 L 147.90 111.63 C 148.31 112.57 149.42 113.00 150.36 112.59 C 151.31 112.17 151.74 111.07 151.32 110.12 L 150.90 109.16 C 150.48 108.22 149.38 107.79 148.43 108.20 C 147.49 108.62 147.06 109.72 147.47 110.66 Z M 147.90 111.64 L 148.33 112.60 C 148.75 113.54 149.86 113.96 150.80 113.54 C 151.74 113.12 152.16 112.01 151.74 111.07 L 151.31 110.11 C 150.89 109.17 149.79 108.75 148.85 109.17 C 147.90 109.59 147.48 110.70 147.90 111.64 Z M 148.34 112.61 L 148.77 113.56 C 149.20 114.49 150.31 114.91 151.24 114.48 C 152.18 114.05 152.60 112.95 152.17 112.01 L 151.74 111.06 C 151.31 110.12 150.20 109.71 149.26 110.13 C 148.33 110.56 147.91 111.67 148.34 112.61 Z M 148.78 113.56 L 149.21 114.50 C 149.64 115.43 150.75 115.84 151.68 115.41 C 152.62 114.98 153.03 113.87 152.59 112.94 L 152.16 112.00 C 151.73 111.06 150.62 110.66 149.69 111.09 C 148.75 111.52 148.35 112.63 148.78 113.56 Z M 149.21 114.51 L 149.65 115.43 C 150.08 116.36 151.19 116.76 152.12 116.32 C 153.05 115.89 153.46 114.78 153.02 113.85 L 152.59 112.93 C 152.15 112.00 151.04 111.59 150.11 112.03 C 149.18 112.47 148.78 113.58 149.21 114.51 Z M 149.65 115.43 L 150.08 116.33 C 150.51 117.26 151.62 117.66 152.55 117.22 C 153.48 116.78 153.88 115.67 153.44 114.74 L 153.02 113.84 C 152.58 112.91 151.47 112.51 150.54 112.95 C 149.61 113.39 149.21 114.50 149.65 115.43 Z M 150.08 116.34 L 150.50 117.21 C 150.94 118.14 152.05 118.53 152.98 118.09 C 153.90 117.65 154.30 116.54 153.85 115.61 L 153.44 114.73 C 152.99 113.81 151.88 113.42 150.96 113.86 C 150.03 114.30 149.64 115.41 150.08 116.34 Z M 150.50 117.22 L 150.91 118.06 C 151.35 118.99 152.46 119.38 153.39 118.93 C 154.31 118.49 154.70 117.38 154.26 116.45 L 153.85 115.61 C 153.41 114.68 152.29 114.29 151.37 114.74 C 150.45 115.18 150.06 116.29 150.50 117.22 Z M 150.91 118.07 L 151.31 118.88 C 151.75 119.81 152.86 120.19 153.79 119.75 C 154.71 119.30 155.10 118.19 154.65 117.27 L 154.26 116.45 C 153.81 115.53 152.70 115.14 151.77 115.59 C 150.85 116.03 150.47 117.14 150.91 118.07 Z M 151.31 118.89 L 151.70 119.68 C 152.14 120.60 153.25 120.98 154.17 120.54 C 155.10 120.09 155.48 118.98 155.03 118.06 L 154.65 117.26 C 154.20 116.34 153.09 115.96 152.17 116.41 C 151.25 116.85 150.86 117.96 151.31 118.89 Z M 151.70 119.68 L 152.27 120.85 C 152.72 121.77 153.82 122.15 154.74 121.70 C 155.66 121.25 156.05 120.14 155.60 119.22 L 155.03 118.06 C 154.58 117.14 153.47 116.75 152.55 117.20 C 151.63 117.65 151.25 118.76 151.70 119.68 Z M 152.27 120.85 L 152.80 121.93 C 153.25 122.84 154.35 123.22 155.27 122.78 C 156.19 122.33 156.57 121.22 156.12 120.30 L 155.59 119.22 C 155.15 118.31 154.04 117.93 153.12 118.37 C 152.20 118.82 151.82 119.93 152.27 120.85 Z M 152.80 121.93 L 153.29 122.93 C 153.74 123.84 154.85 124.22 155.76 123.77 C 156.68 123.33 157.06 122.22 156.61 121.31 L 156.12 120.30 C 155.67 119.39 154.56 119.01 153.65 119.46 C 152.73 119.91 152.35 121.01 152.80 121.93 Z M 153.30 122.93 L 153.76 123.86 C 154.20 124.78 155.31 125.15 156.22 124.71 C 157.13 124.26 157.51 123.16 157.06 122.24 L 156.60 121.31 C 156.16 120.39 155.05 120.02 154.14 120.46 C 153.23 120.91 152.85 122.01 153.30 122.93 Z M 153.76 123.86 L 154.19 124.74 C 154.64 125.65 155.74 126.03 156.65 125.58 C 157.56 125.14 157.94 124.03 157.49 123.12 L 157.06 122.24 C 156.61 121.33 155.51 120.96 154.60 121.40 C 153.69 121.85 153.31 122.95 153.76 123.86 Z M 154.19 124.74 L 154.60 125.57 C 155.05 126.48 156.15 126.86 157.06 126.41 C 157.97 125.97 158.34 124.87 157.90 123.96 L 157.49 123.13 C 157.04 122.22 155.94 121.84 155.03 122.29 C 154.12 122.73 153.75 123.83 154.19 124.74 Z M 154.60 125.57 L 155.00 126.37 C 155.44 127.28 156.54 127.65 157.44 127.21 C 158.35 126.77 158.73 125.67 158.29 124.76 L 157.89 123.96 C 157.45 123.05 156.35 122.68 155.45 123.12 C 154.54 123.57 154.16 124.66 154.60 125.57 Z M 155.00 126.36 L 155.37 127.14 C 155.82 128.05 156.91 128.42 157.82 127.98 C 158.72 127.54 159.10 126.45 158.66 125.54 L 158.28 124.77 C 157.84 123.86 156.75 123.48 155.84 123.92 C 154.93 124.36 154.56 125.46 155.00 126.36 Z M 155.37 127.13 L 155.74 127.89 C 156.18 128.80 157.27 129.18 158.18 128.74 C 159.08 128.30 159.46 127.21 159.03 126.30 L 158.66 125.54 C 158.22 124.64 157.13 124.26 156.22 124.70 C 155.32 125.14 154.94 126.23 155.37 127.13 Z M 155.74 127.89 L 156.11 128.64 C 156.54 129.55 157.63 129.93 158.53 129.49 C 159.44 129.06 159.82 127.97 159.39 127.06 L 159.02 126.31 C 158.59 125.40 157.50 125.02 156.60 125.46 C 155.69 125.89 155.31 126.98 155.74 127.89 Z M 156.10 128.63 L 156.51 129.48 C 156.94 130.39 158.03 130.78 158.93 130.34 C 159.84 129.91 160.22 128.83 159.79 127.92 L 159.39 127.07 C 158.96 126.16 157.87 125.78 156.97 126.21 C 156.06 126.64 155.67 127.73 156.10 128.63 Z M 156.51 129.48 L 156.91 130.34 C 157.34 131.25 158.42 131.64 159.33 131.21 C 160.24 130.78 160.63 129.70 160.20 128.79 L 159.79 127.93 C 159.37 127.02 158.28 126.63 157.38 127.06 C 156.47 127.49 156.08 128.57 156.51 129.48 Z M 156.91 130.33 L 157.32 131.21 C 157.74 132.12 158.82 132.51 159.73 132.09 C 160.64 131.66 161.04 130.58 160.61 129.67 L 160.20 128.80 C 159.78 127.89 158.70 127.50 157.79 127.92 C 156.88 128.34 156.49 129.42 156.91 130.33 Z M 157.32 131.20 L 157.73 132.09 C 158.14 133.00 159.22 133.40 160.13 132.98 C 161.04 132.56 161.44 131.48 161.02 130.57 L 160.61 129.68 C 160.20 128.77 159.12 128.37 158.21 128.79 C 157.30 129.21 156.90 130.29 157.32 131.20 Z M 157.72 132.08 L 158.13 132.99 C 158.55 133.90 159.62 134.30 160.54 133.89 C 161.45 133.47 161.85 132.40 161.44 131.49 L 161.03 130.58 C 160.61 129.67 159.54 129.26 158.62 129.68 C 157.71 130.09 157.31 131.17 157.72 132.08 Z M 158.13 132.98 L 158.54 133.90 C 158.95 134.81 160.03 135.22 160.94 134.81 C 161.85 134.40 162.26 133.33 161.85 132.42 L 161.44 131.49 C 161.03 130.58 159.96 130.17 159.04 130.58 C 158.13 130.99 157.72 132.06 158.13 132.98 Z M 158.54 133.89 L 158.96 134.83 C 159.36 135.75 160.43 136.16 161.35 135.76 C 162.26 135.35 162.68 134.28 162.27 133.37 L 161.86 132.42 C 161.45 131.51 160.38 131.09 159.47 131.50 C 158.55 131.90 158.14 132.97 158.54 133.89 Z M 158.95 134.82 L 159.37 135.78 C 159.77 136.70 160.84 137.12 161.76 136.72 C 162.67 136.32 163.09 135.26 162.69 134.34 L 162.28 133.38 C 161.88 132.46 160.81 132.04 159.89 132.44 C 158.97 132.84 158.55 133.90 158.95 134.82 Z M 159.37 135.78 L 159.79 136.76 C 160.19 137.68 161.25 138.10 162.17 137.71 C 163.09 137.31 163.51 136.25 163.12 135.33 L 162.70 134.35 C 162.30 133.43 161.24 133.00 160.32 133.40 C 159.40 133.79 158.97 134.86 159.37 135.78 Z M 159.79 136.75 L 160.16 137.64 C 160.55 138.56 161.61 138.99 162.54 138.60 C 163.46 138.21 163.89 137.15 163.50 136.22 L 163.12 135.34 C 162.73 134.42 161.67 133.99 160.75 134.38 C 159.83 134.77 159.40 135.83 159.79 136.75 Z M 160.16 137.63 L 160.54 138.53 C 160.92 139.45 161.98 139.89 162.90 139.50 C 163.83 139.12 164.26 138.06 163.88 137.13 L 163.50 136.23 C 163.12 135.31 162.06 134.87 161.13 135.26 C 160.21 135.64 159.78 136.70 160.16 137.63 Z M 160.53 138.52 L 160.91 139.44 C 161.29 140.36 162.35 140.80 163.27 140.42 C 164.20 140.04 164.64 138.98 164.26 138.06 L 163.88 137.14 C 163.50 136.22 162.44 135.78 161.52 136.16 C 160.59 136.54 160.15 137.60 160.53 138.52 Z M 160.91 139.43 L 161.28 140.36 C 161.66 141.28 162.71 141.73 163.64 141.35 C 164.57 140.97 165.01 139.92 164.64 138.99 L 164.26 138.07 C 163.88 137.14 162.83 136.70 161.90 137.07 C 160.98 137.45 160.53 138.50 160.91 139.43 Z M 161.28 140.35 L 161.66 141.28 C 162.03 142.21 163.08 142.66 164.01 142.29 C 164.93 141.92 165.38 140.87 165.01 139.94 L 164.64 139.00 C 164.27 138.08 163.22 137.63 162.29 138.00 C 161.36 138.37 160.91 139.42 161.28 140.35 Z M 161.65 141.27 L 162.02 142.22 C 162.39 143.15 163.44 143.60 164.37 143.24 C 165.30 142.87 165.75 141.82 165.39 140.89 L 165.02 139.95 C 164.65 139.02 163.60 138.56 162.67 138.93 C 161.74 139.30 161.29 140.35 161.65 141.27 Z M 162.02 142.21 L 162.39 143.15 C 162.75 144.08 163.80 144.55 164.73 144.19 C 165.66 143.82 166.12 142.78 165.76 141.85 L 165.39 140.90 C 165.03 139.97 163.98 139.51 163.05 139.87 C 162.12 140.23 161.66 141.28 162.02 142.21 Z M 162.39 143.14 L 162.75 144.09 C 163.10 145.03 164.15 145.49 165.08 145.14 C 166.01 144.78 166.48 143.74 166.12 142.81 L 165.76 141.86 C 165.41 140.93 164.36 140.46 163.43 140.81 C 162.50 141.17 162.03 142.21 162.39 143.14 Z M 162.74 144.08 L 163.10 145.03 C 163.45 145.96 164.49 146.44 165.42 146.09 C 166.36 145.74 166.83 144.70 166.48 143.76 L 166.13 142.82 C 165.78 141.88 164.74 141.41 163.80 141.76 C 162.87 142.11 162.39 143.15 162.74 144.08 Z M 163.10 145.02 L 163.44 145.96 C 163.79 146.90 164.82 147.38 165.76 147.04 C 166.69 146.69 167.17 145.66 166.83 144.72 L 166.48 143.78 C 166.14 142.84 165.10 142.36 164.17 142.70 C 163.23 143.05 162.75 144.08 163.10 145.02 Z M 163.44 145.95 L 163.78 146.91 C 164.12 147.85 165.15 148.33 166.09 148.00 C 167.03 147.66 167.52 146.63 167.18 145.69 L 166.83 144.73 C 166.50 143.79 165.46 143.31 164.53 143.64 C 163.59 143.98 163.10 145.01 163.44 145.95 Z M 163.78 146.90 L 164.12 147.85 C 164.45 148.79 165.47 149.29 166.41 148.96 C 167.35 148.63 167.85 147.60 167.52 146.66 L 167.18 145.70 C 166.85 144.76 165.82 144.27 164.88 144.60 C 163.94 144.93 163.45 145.96 163.78 146.90 Z M 164.11 147.84 L 164.44 148.79 C 164.76 149.73 165.79 150.24 166.73 149.91 C 167.67 149.59 168.17 148.56 167.85 147.62 L 167.52 146.67 C 167.20 145.73 166.17 145.23 165.23 145.55 C 164.29 145.87 163.79 146.90 164.11 147.84 Z M 164.43 148.78 L 164.75 149.73 C 165.07 150.67 166.09 151.18 167.03 150.86 C 167.98 150.55 168.49 149.53 168.17 148.58 L 167.85 147.63 C 167.54 146.69 166.52 146.18 165.57 146.50 C 164.63 146.81 164.12 147.83 164.43 148.78 Z M 164.75 149.71 L 165.06 150.66 C 165.36 151.61 166.38 152.12 167.33 151.82 C 168.27 151.51 168.79 150.49 168.48 149.54 L 168.17 148.60 C 167.87 147.65 166.85 147.13 165.90 147.44 C 164.96 147.75 164.44 148.77 164.75 149.71 Z M 165.05 150.65 L 165.35 151.59 C 165.65 152.54 166.67 153.07 167.61 152.77 C 168.56 152.47 169.09 151.45 168.79 150.50 L 168.49 149.56 C 168.19 148.61 167.17 148.08 166.22 148.38 C 165.28 148.69 164.75 149.70 165.05 150.65 Z M 165.35 151.58 L 165.64 152.53 C 165.93 153.48 166.94 154.01 167.89 153.72 C 168.84 153.42 169.38 152.42 169.08 151.47 L 168.79 150.52 C 168.50 149.57 167.49 149.03 166.54 149.33 C 165.59 149.62 165.06 150.63 165.35 151.58 Z M 165.64 152.51 L 165.92 153.46 C 166.21 154.42 167.21 154.96 168.16 154.67 C 169.12 154.39 169.66 153.38 169.37 152.43 L 169.09 151.48 C 168.80 150.53 167.80 149.99 166.85 150.27 C 165.89 150.56 165.35 151.56 165.64 152.51 Z M 165.92 153.45 L 166.20 154.40 C 166.47 155.36 167.47 155.91 168.43 155.63 C 169.38 155.35 169.93 154.35 169.65 153.40 L 169.37 152.45 C 169.10 151.49 168.10 150.94 167.14 151.22 C 166.19 151.50 165.64 152.49 165.92 153.45 Z M 166.19 154.39 L 166.46 155.35 C 166.73 156.30 167.72 156.86 168.68 156.59 C 169.64 156.32 170.19 155.33 169.93 154.37 L 169.66 153.41 C 169.39 152.46 168.39 151.90 167.44 152.17 C 166.48 152.44 165.92 153.43 166.19 154.39 Z M 166.46 155.33 L 166.72 156.28 C 166.98 157.24 167.97 157.80 168.93 157.54 C 169.88 157.28 170.45 156.29 170.19 155.33 L 169.93 154.39 C 169.67 153.43 168.68 152.86 167.72 153.13 C 166.76 153.39 166.20 154.38 166.46 155.33 Z M 166.71 156.27 L 166.96 157.22 C 167.22 158.18 168.20 158.75 169.16 158.50 C 170.12 158.24 170.70 157.26 170.44 156.30 L 170.19 155.35 C 169.94 154.39 168.95 153.81 167.99 154.07 C 167.03 154.32 166.46 155.31 166.71 156.27 Z M 166.96 157.20 L 167.21 158.16 C 167.45 159.12 168.43 159.70 169.39 159.46 C 170.36 159.21 170.94 158.23 170.69 157.27 L 170.45 156.31 C 170.20 155.35 169.22 154.77 168.26 155.01 C 167.29 155.26 166.71 156.24 166.96 157.20 Z M 167.20 158.15 L 167.44 159.11 C 167.68 160.07 168.65 160.66 169.62 160.42 C 170.58 160.18 171.17 159.21 170.93 158.24 L 170.69 157.28 C 170.45 156.32 169.48 155.73 168.52 155.97 C 167.55 156.21 166.96 157.18 167.20 158.15 Z M 167.44 159.09 L 167.67 160.06 C 167.90 161.03 168.87 161.62 169.84 161.39 C 170.80 161.16 171.40 160.19 171.17 159.23 L 170.93 158.26 C 170.70 157.29 169.73 156.70 168.77 156.93 C 167.80 157.16 167.21 158.13 167.44 159.09 Z M 167.67 160.05 L 167.89 161.03 C 168.11 161.99 169.08 162.60 170.05 162.37 C 171.02 162.15 171.62 161.18 171.39 160.22 L 171.17 159.24 C 170.95 158.27 169.98 157.67 169.01 157.89 C 168.05 158.12 167.44 159.08 167.67 160.05 Z M 167.89 161.01 L 168.11 161.99 C 168.32 162.96 169.28 163.57 170.25 163.36 C 171.22 163.14 171.83 162.18 171.62 161.21 L 171.40 160.23 C 171.18 159.26 170.22 158.65 169.25 158.87 C 168.28 159.08 167.67 160.04 167.89 161.01 Z M 168.10 161.98 L 168.32 162.97 C 168.53 163.94 169.48 164.56 170.45 164.35 C 171.42 164.14 172.04 163.18 171.83 162.21 L 171.62 161.22 C 171.41 160.25 170.45 159.64 169.48 159.84 C 168.51 160.05 167.90 161.01 168.10 161.98 Z M 168.31 162.95 L 168.52 163.95 C 168.72 164.92 169.67 165.55 170.65 165.34 C 171.62 165.14 172.24 164.19 172.04 163.22 L 171.83 162.22 C 171.63 161.25 170.68 160.63 169.71 160.83 C 168.74 161.03 168.11 161.98 168.31 162.95 Z M 168.52 163.94 L 168.72 164.94 C 168.91 165.91 169.86 166.54 170.83 166.35 C 171.81 166.15 172.44 165.21 172.24 164.23 L 172.04 163.23 C 171.85 162.26 170.90 161.63 169.93 161.82 C 168.96 162.02 168.32 162.96 168.52 163.94 Z M 168.72 164.92 L 168.90 165.90 C 169.09 166.87 170.03 167.51 171.01 167.32 C 171.98 167.14 172.62 166.19 172.43 165.22 L 172.25 164.25 C 172.06 163.27 171.12 162.63 170.14 162.82 C 169.17 163.01 168.53 163.95 168.72 164.92 Z M 168.90 165.89 L 169.08 166.85 C 169.26 167.83 170.20 168.47 171.17 168.29 C 172.15 168.11 172.80 167.17 172.61 166.20 L 172.44 165.23 C 172.26 164.26 171.32 163.61 170.34 163.79 C 169.37 163.97 168.72 164.91 168.90 165.89 Z M 169.08 166.84 L 169.25 167.81 C 169.42 168.78 170.36 169.44 171.34 169.26 C 172.31 169.09 172.96 168.15 172.79 167.18 L 172.62 166.21 C 172.44 165.23 171.51 164.58 170.53 164.75 C 169.55 164.93 168.90 165.86 169.08 166.84 Z M 169.25 167.80 L 169.42 168.77 C 169.58 169.75 170.51 170.41 171.49 170.24 C 172.47 170.07 173.13 169.14 172.96 168.16 L 172.79 167.19 C 172.62 166.21 171.70 165.55 170.72 165.72 C 169.74 165.89 169.08 166.82 169.25 167.80 Z M 169.41 168.76 L 169.57 169.74 C 169.74 170.72 170.66 171.38 171.64 171.22 C 172.62 171.06 173.28 170.14 173.12 169.16 L 172.96 168.18 C 172.80 167.20 171.87 166.53 170.90 166.69 C 169.92 166.85 169.25 167.78 169.41 168.76 Z M 169.57 169.73 L 169.73 170.71 C 169.88 171.70 170.80 172.36 171.78 172.21 C 172.76 172.06 173.43 171.14 173.28 170.16 L 173.12 169.17 C 172.97 168.19 172.05 167.52 171.07 167.67 C 170.09 167.83 169.42 168.75 169.57 169.73 Z M 169.73 170.70 L 169.88 171.70 C 170.02 172.68 170.94 173.35 171.92 173.20 C 172.90 173.06 173.58 172.14 173.43 171.16 L 173.28 170.17 C 173.13 169.19 172.22 168.51 171.24 168.66 C 170.25 168.81 169.58 169.72 169.73 170.70 Z M 169.87 171.68 L 170.02 172.68 C 170.16 173.66 171.07 174.35 172.05 174.20 C 173.04 174.06 173.72 173.15 173.58 172.17 L 173.43 171.17 C 173.29 170.19 172.38 169.51 171.40 169.65 C 170.41 169.79 169.73 170.70 169.87 171.68 Z M 170.02 172.67 L 170.15 173.67 C 170.29 174.66 171.20 175.35 172.18 175.21 C 173.16 175.07 173.85 174.17 173.72 173.18 L 173.58 172.18 C 173.44 171.20 172.54 170.51 171.55 170.65 C 170.57 170.78 169.88 171.69 170.02 172.67 Z M 170.15 173.66 L 170.29 174.67 C 170.41 175.66 171.32 176.35 172.30 176.22 C 173.29 176.09 173.98 175.19 173.85 174.21 L 173.72 173.20 C 173.59 172.21 172.69 171.52 171.70 171.65 C 170.72 171.78 170.02 172.68 170.15 173.66 Z M 170.28 174.66 L 170.41 175.68 C 170.53 176.66 171.43 177.36 172.42 177.24 C 173.40 177.12 174.10 176.22 173.98 175.23 L 173.85 174.22 C 173.73 173.23 172.83 172.53 171.85 172.66 C 170.86 172.78 170.16 173.68 170.28 174.66 Z M 170.41 175.67 L 170.53 176.64 C 170.64 177.63 171.54 178.33 172.52 178.22 C 173.51 178.10 174.21 177.21 174.09 176.22 L 173.98 175.24 C 173.86 174.26 172.97 173.55 171.98 173.67 C 171.00 173.79 170.29 174.68 170.41 175.67 Z M 170.52 176.63 L 170.63 177.61 C 170.74 178.60 171.63 179.31 172.62 179.20 C 173.61 179.09 174.32 178.20 174.21 177.21 L 174.10 176.23 C 173.99 175.24 173.10 174.53 172.11 174.65 C 171.12 174.76 170.41 175.65 170.52 176.63 Z M 170.63 177.60 L 170.74 178.58 C 170.84 179.57 171.73 180.29 172.71 180.18 C 173.70 180.08 174.42 179.19 174.31 178.20 L 174.21 177.22 C 174.10 176.23 173.22 175.52 172.23 175.62 C 171.24 175.73 170.53 176.61 170.63 177.60 Z M 170.74 178.57 L 170.83 179.56 C 170.93 180.55 171.81 181.27 172.80 181.17 C 173.79 181.07 174.51 180.19 174.41 179.20 L 174.31 178.22 C 174.21 177.23 173.33 176.51 172.35 176.61 C 171.36 176.70 170.64 177.58 170.74 178.57 Z M 170.83 179.55 L 170.92 180.54 C 171.02 181.53 171.89 182.26 172.88 182.16 C 173.87 182.07 174.60 181.20 174.50 180.21 L 174.41 179.22 C 174.32 178.23 173.44 177.50 172.46 177.59 C 171.47 177.68 170.74 178.56 170.83 179.55 Z M 170.92 180.53 L 171.01 181.53 C 171.09 182.52 171.97 183.25 172.95 183.16 C 173.94 183.08 174.68 182.21 174.59 181.22 L 174.50 180.22 C 174.42 179.23 173.55 178.50 172.56 178.58 C 171.57 178.67 170.84 179.54 170.92 180.53 Z M 171.01 181.51 L 171.09 182.51 C 171.17 183.50 172.03 184.24 173.02 184.16 C 174.01 184.09 174.75 183.22 174.67 182.23 L 174.59 181.23 C 174.51 180.24 173.65 179.50 172.66 179.58 C 171.67 179.66 170.93 180.52 171.01 181.51 Z M 171.09 182.50 L 171.16 183.51 C 171.23 184.50 172.09 185.24 173.08 185.17 C 174.07 185.10 174.81 184.24 174.74 183.25 L 174.67 182.24 C 174.60 181.25 173.74 180.51 172.75 180.58 C 171.76 180.65 171.02 181.51 171.09 182.50 Z M 171.16 183.49 L 171.22 184.50 C 171.29 185.49 172.14 186.24 173.13 186.18 C 174.12 186.11 174.87 185.26 174.81 184.27 L 174.74 183.26 C 174.68 182.27 173.83 181.52 172.84 181.58 C 171.84 181.65 171.09 182.50 171.16 183.49 Z M 171.22 184.49 L 171.28 185.50 C 171.34 186.49 172.19 187.25 173.18 187.19 C 174.17 187.13 174.92 186.28 174.87 185.29 L 174.81 184.28 C 174.75 183.29 173.90 182.53 172.91 182.59 C 171.92 182.65 171.17 183.50 171.22 184.49 Z M 171.28 185.48 L 171.33 186.50 C 171.38 187.49 172.22 188.25 173.21 188.20 C 174.20 188.16 174.97 187.31 174.92 186.32 L 174.87 185.31 C 174.82 184.32 173.98 183.55 172.99 183.60 C 171.99 183.65 171.23 184.49 171.28 185.48 Z M 171.33 186.48 L 171.37 187.47 C 171.41 188.46 172.25 189.23 173.24 189.19 C 174.23 189.14 175.00 188.31 174.96 187.32 L 174.92 186.33 C 174.88 185.34 174.04 184.57 173.05 184.61 C 172.06 184.66 171.29 185.49 171.33 186.48 Z M 171.37 187.45 L 171.40 188.42 C 171.44 189.42 172.27 190.19 173.26 190.16 C 174.25 190.12 175.03 189.29 175.00 188.30 L 174.96 187.33 C 174.93 186.34 174.09 185.56 173.10 185.59 C 172.11 185.63 171.33 186.46 171.37 187.45 Z M 171.40 188.41 L 171.43 189.39 C 171.46 190.38 172.29 191.16 173.28 191.13 C 174.27 191.10 175.05 190.28 175.02 189.28 L 175.00 188.31 C 174.97 187.32 174.14 186.54 173.15 186.56 C 172.16 186.59 171.37 187.42 171.40 188.41 Z M 171.43 189.38 L 171.45 190.36 C 171.47 191.35 172.30 192.13 173.29 192.11 C 174.28 192.09 175.07 191.27 175.05 190.27 L 175.02 189.29 C 175.00 188.30 174.18 187.52 173.19 187.54 C 172.19 187.56 171.41 188.38 171.43 189.38 Z M 171.45 190.35 L 171.47 191.33 C 171.49 192.32 172.31 193.11 173.30 193.10 C 174.29 193.08 175.08 192.26 175.06 191.27 L 175.05 190.28 C 175.03 189.29 174.21 188.50 173.22 188.52 C 172.23 188.54 171.43 189.35 171.45 190.35 Z M 171.47 191.32 L 171.48 192.31 C 171.50 193.31 172.31 194.10 173.30 194.09 C 174.30 194.07 175.09 193.26 175.08 192.27 L 175.06 191.28 C 175.05 190.28 174.24 189.49 173.24 189.50 C 172.25 189.52 171.46 190.33 171.47 191.32 Z M 171.48 192.31 L 171.49 193.30 C 171.50 194.30 172.31 195.09 173.31 195.08 C 174.30 195.07 175.10 194.26 175.09 193.27 L 175.08 192.27 C 175.07 191.28 174.26 190.48 173.26 190.49 C 172.27 190.50 171.47 191.31 171.48 192.31 Z M 171.49 193.30 L 171.50 194.30 C 171.50 195.30 172.31 196.10 173.31 196.09 C 174.30 196.08 175.10 195.27 175.09 194.28 L 175.09 193.28 C 175.08 192.28 174.27 191.48 173.28 191.49 C 172.29 191.50 171.49 192.31 171.49 193.30 Z M 171.50 194.30 L 171.50 195.31 C 171.51 196.31 172.31 197.11 173.31 197.10 C 174.30 197.10 175.10 196.29 175.10 195.30 L 175.09 194.29 C 175.09 193.29 174.28 192.49 173.29 192.50 C 172.30 192.50 171.49 193.31 171.50 194.30 Z M 171.50 195.31 L 171.50 196.33 C 171.51 197.33 172.31 198.13 173.30 198.13 C 174.30 198.12 175.10 197.32 175.10 196.33 L 175.10 195.30 C 175.09 194.31 174.29 193.51 173.30 193.51 C 172.30 193.51 171.50 194.32 171.50 195.31 Z M 171.50 196.33 L 171.50 197.36 C 171.51 198.36 172.31 199.16 173.30 199.16 C 174.30 199.16 175.10 198.35 175.10 197.36 L 175.10 196.33 C 175.10 195.34 174.29 194.53 173.30 194.53 C 172.31 194.53 171.50 195.34 171.50 196.33 Z M 171.50 197.36 L 171.50 198.41 C 171.51 199.40 172.31 200.20 173.30 200.20 C 174.29 200.20 175.10 199.40 175.10 198.41 L 175.10 197.36 C 175.10 196.37 174.29 195.57 173.30 195.57 C 172.31 195.57 171.50 196.37 171.50 197.36 Z M 171.51 198.41 L 171.51 199.41 C 171.51 200.40 172.31 201.21 173.30 201.21 C 174.29 201.21 175.10 200.40 175.10 199.41 L 175.10 198.41 C 175.10 197.42 174.29 196.61 173.30 196.61 C 172.31 196.61 171.51 197.42 171.51 198.41 Z M 171.51 199.41 L 171.51 200.42 C 171.51 201.41 172.31 202.22 173.30 202.22 C 174.29 202.22 175.10 201.41 175.10 200.42 L 175.10 199.41 C 175.10 198.42 174.29 197.61 173.30 197.61 C 172.31 197.61 171.51 198.42 171.51 199.41 Z M 171.51 200.42 L 171.51 201.43 C 171.51 202.43 172.31 203.23 173.30 203.23 C 174.29 203.23 175.10 202.43 175.10 201.43 L 175.10 200.42 C 175.10 199.43 174.29 198.62 173.30 198.62 C 172.31 198.62 171.51 199.43 171.51 200.42 Z M 171.51 201.43 L 171.51 202.45 C 171.51 203.44 172.31 204.25 173.30 204.25 C 174.29 204.25 175.10 203.44 175.10 202.45 L 175.10 201.43 C 175.10 200.44 174.29 199.64 173.30 199.64 C 172.31 199.64 171.51 200.44 171.51 201.43 Z M 171.51 202.45 L 171.51 203.47 C 171.51 204.46 172.31 205.27 173.30 205.27 C 174.29 205.27 175.10 204.46 175.10 203.47 L 175.10 202.45 C 175.10 201.46 174.29 200.66 173.30 200.66 C 172.31 200.66 171.51 201.46 171.51 202.45 Z M 171.51 203.47 L 171.51 204.49 C 171.51 205.48 172.31 206.29 173.30 206.29 C 174.29 206.29 175.10 205.48 175.10 204.49 L 175.10 203.47 C 175.10 202.48 174.29 201.68 173.30 201.68 C 172.31 201.68 171.51 202.48 171.51 203.47 Z M 171.51 204.49 L 171.51 205.50 C 171.51 206.50 172.31 207.30 173.30 207.30 C 174.29 207.30 175.10 206.50 175.10 205.50 L 175.10 204.49 C 175.10 203.50 174.29 202.69 173.30 202.69 C 172.31 202.69 171.51 203.50 171.51 204.49 Z M 171.51 205.50 L 171.51 206.51 C 171.51 207.50 172.31 208.31 173.30 208.31 C 174.29 208.31 175.10 207.50 175.10 206.51 L 175.10 205.50 C 175.10 204.51 174.29 203.71 173.30 203.71 C 172.31 203.71 171.51 204.51 171.51 205.50 Z M 171.51 206.51 L 171.51 207.51 C 171.51 208.50 172.31 209.31 173.30 209.31 C 174.29 209.31 175.10 208.50 175.10 207.51 L 175.10 206.51 C 175.10 205.52 174.29 204.72 173.30 204.72 C 172.31 204.72 171.51 205.52 171.51 206.51 Z M 171.51 207.51 L 171.51 208.50 C 171.51 209.49 172.31 210.30 173.30 210.30 C 174.29 210.30 175.10 209.49 175.10 208.50 L 175.10 207.51 C 175.10 206.52 174.29 205.72 173.30 205.72 C 172.31 205.72 171.51 206.52 171.51 207.51 Z M 171.51 208.50 L 171.51 209.48 C 171.51 210.47 172.31 211.27 173.30 211.27 C 174.29 211.27 175.10 210.47 175.10 209.48 L 175.10 208.50 C 175.10 207.51 174.29 206.71 173.30 206.71 C 172.31 206.71 171.51 207.51 171.51 208.50 Z M 171.51 209.48 L 171.51 210.44 C 171.51 211.43 172.31 212.23 173.30 212.23 C 174.29 212.23 175.10 211.43 175.10 210.44 L 175.10 209.48 C 175.10 208.49 174.29 207.68 173.30 207.68 C 172.31 207.68 171.51 208.49 171.51 209.48 Z M 171.51 210.44 L 171.51 211.46 C 171.51 212.45 172.31 213.25 173.30 213.25 C 174.29 213.25 175.10 212.45 175.10 211.46 L 175.10 210.44 C 175.10 209.45 174.29 208.65 173.30 208.65 C 172.31 208.65 171.51 209.45 171.51 210.44 Z M 171.51 211.46 L 171.51 212.54 C 171.51 213.53 172.31 214.34 173.30 214.34 C 174.29 214.34 175.09 213.53 175.09 212.54 L 175.10 211.46 C 175.10 210.47 174.29 209.67 173.30 209.67 C 172.31 209.66 171.51 210.47 171.51 211.46 Z M 171.51 212.54 L 171.50 213.60 C 171.50 214.59 172.30 215.39 173.29 215.40 C 174.28 215.40 175.09 214.60 175.09 213.61 L 175.09 212.55 C 175.10 211.56 174.30 210.75 173.31 210.75 C 172.32 210.75 171.51 211.55 171.51 212.54 Z M 171.51 213.59 L 171.50 214.63 C 171.49 215.62 172.29 216.42 173.28 216.43 C 174.27 216.44 175.08 215.64 175.08 214.65 L 175.09 213.61 C 175.10 212.62 174.30 211.82 173.31 211.81 C 172.32 211.80 171.51 212.60 171.51 213.59 Z M 171.50 214.62 L 171.48 215.63 C 171.47 216.62 172.26 217.43 173.25 217.45 C 174.24 217.46 175.06 216.67 175.07 215.68 L 175.08 214.66 C 175.10 213.67 174.30 212.86 173.31 212.85 C 172.32 212.83 171.51 213.63 171.50 214.62 Z M 171.49 215.62 L 171.46 216.62 C 171.44 217.60 172.23 218.42 173.22 218.44 C 174.21 218.46 175.03 217.68 175.05 216.69 L 175.07 215.69 C 175.09 214.70 174.30 213.88 173.31 213.86 C 172.32 213.84 171.51 214.63 171.49 215.62 Z M 171.47 216.60 L 171.44 217.58 C 171.41 218.57 172.18 219.39 173.17 219.42 C 174.16 219.45 174.99 218.68 175.02 217.69 L 175.05 216.71 C 175.08 215.72 174.30 214.89 173.31 214.86 C 172.32 214.83 171.50 215.61 171.47 216.60 Z M 171.44 217.56 L 171.40 218.52 C 171.36 219.51 172.12 220.34 173.11 220.39 C 174.10 220.43 174.93 219.66 174.98 218.67 L 175.02 217.71 C 175.06 216.72 174.29 215.88 173.30 215.84 C 172.31 215.80 171.48 216.57 171.44 217.56 Z M 171.40 218.50 L 171.35 219.45 C 171.29 220.43 172.05 221.28 173.03 221.33 C 174.02 221.39 174.87 220.63 174.92 219.65 L 174.97 218.70 C 175.03 217.71 174.27 216.86 173.29 216.81 C 172.30 216.75 171.45 217.51 171.40 218.50 Z M 171.35 219.42 L 171.28 220.36 C 171.21 221.34 171.95 222.20 172.94 222.27 C 173.92 222.34 174.78 221.60 174.85 220.61 L 174.92 219.67 C 174.99 218.69 174.25 217.83 173.26 217.76 C 172.27 217.69 171.42 218.43 171.35 219.42 Z M 171.28 220.32 L 171.20 221.25 C 171.11 222.24 171.84 223.11 172.82 223.19 C 173.81 223.28 174.68 222.55 174.77 221.57 L 174.85 220.64 C 174.94 219.66 174.21 218.79 173.23 218.70 C 172.24 218.61 171.37 219.34 171.28 220.32 Z M 171.20 221.21 L 171.09 222.23 C 170.98 223.22 171.69 224.10 172.67 224.21 C 173.66 224.32 174.54 223.61 174.65 222.63 L 174.76 221.61 C 174.87 220.62 174.16 219.74 173.18 219.63 C 172.20 219.52 171.31 220.23 171.20 221.21 Z M 171.10 222.20 L 170.96 223.22 C 170.83 224.20 171.52 225.10 172.50 225.23 C 173.48 225.36 174.38 224.67 174.51 223.69 L 174.64 222.66 C 174.77 221.69 174.08 220.79 173.10 220.66 C 172.13 220.53 171.23 221.22 171.10 222.20 Z M 170.97 223.18 L 170.82 224.20 C 170.67 225.17 171.34 226.08 172.31 226.23 C 173.29 226.38 174.20 225.71 174.35 224.74 L 174.50 223.72 C 174.65 222.75 173.98 221.84 173.01 221.69 C 172.03 221.54 171.12 222.21 170.97 223.18 Z M 170.82 224.16 L 170.65 225.16 C 170.48 226.13 171.13 227.06 172.10 227.22 C 173.08 227.39 174.00 226.74 174.17 225.77 L 174.34 224.77 C 174.51 223.80 173.86 222.88 172.88 222.71 C 171.91 222.54 170.99 223.19 170.82 224.16 Z M 170.66 225.13 L 170.47 226.12 C 170.28 227.08 170.92 228.02 171.88 228.20 C 172.85 228.39 173.79 227.75 173.97 226.79 L 174.16 225.80 C 174.34 224.83 173.71 223.90 172.74 223.72 C 171.78 223.53 170.84 224.16 170.66 225.13 Z M 170.48 226.09 L 170.27 227.06 C 170.07 228.02 170.69 228.97 171.65 229.17 C 172.61 229.37 173.56 228.75 173.76 227.79 L 173.96 226.82 C 174.16 225.85 173.55 224.91 172.58 224.71 C 171.62 224.51 170.68 225.13 170.48 226.09 Z M 170.28 227.03 L 170.06 227.99 C 169.85 228.95 170.45 229.91 171.41 230.12 C 172.37 230.34 173.32 229.74 173.53 228.78 L 173.75 227.82 C 173.97 226.86 173.37 225.91 172.41 225.69 C 171.45 225.47 170.50 226.08 170.28 227.03 Z M 170.07 227.97 L 169.84 228.91 C 169.61 229.87 170.20 230.83 171.15 231.06 C 172.11 231.29 173.07 230.70 173.30 229.75 L 173.53 228.80 C 173.76 227.85 173.17 226.89 172.22 226.66 C 171.26 226.43 170.30 227.01 170.07 227.97 Z M 169.85 228.89 L 169.61 229.82 C 169.37 230.77 169.94 231.74 170.89 231.98 C 171.84 232.23 172.81 231.65 173.05 230.70 L 173.29 229.77 C 173.53 228.82 172.96 227.85 172.01 227.61 C 171.06 227.37 170.09 227.94 169.85 228.89 Z M 169.62 229.80 L 169.37 230.72 C 169.12 231.66 169.68 232.64 170.62 232.89 C 171.57 233.15 172.54 232.59 172.80 231.64 L 173.05 230.72 C 173.30 229.78 172.74 228.80 171.79 228.55 C 170.85 228.29 169.87 228.86 169.62 229.80 Z M 169.38 230.70 L 169.12 231.60 C 168.86 232.54 169.41 233.52 170.35 233.79 C 171.29 234.06 172.27 233.51 172.54 232.57 L 172.79 231.66 C 173.06 230.72 172.51 229.74 171.57 229.47 C 170.63 229.21 169.65 229.76 169.38 230.70 Z M 169.13 231.58 L 168.87 232.48 C 168.59 233.42 169.12 234.40 170.06 234.68 C 171.00 234.96 171.98 234.43 172.26 233.49 L 172.53 232.59 C 172.81 231.65 172.27 230.67 171.33 230.39 C 170.40 230.11 169.41 230.64 169.13 231.58 Z M 168.87 232.46 L 168.59 233.36 C 168.30 234.29 168.82 235.28 169.75 235.57 C 170.69 235.87 171.68 235.35 171.97 234.41 L 172.25 233.51 C 172.54 232.58 172.02 231.59 171.09 231.30 C 170.16 231.01 169.17 231.53 168.87 232.46 Z M 168.60 233.34 L 168.30 234.25 C 168.00 235.17 168.50 236.17 169.43 236.48 C 170.36 236.78 171.36 236.28 171.66 235.35 L 171.96 234.44 C 172.26 233.51 171.76 232.51 170.83 232.21 C 169.91 231.90 168.91 232.41 168.60 233.34 Z M 168.31 234.22 L 167.99 235.15 C 167.68 236.07 168.17 237.07 169.09 237.39 C 170.01 237.71 171.01 237.22 171.33 236.30 L 171.65 235.37 C 171.97 234.45 171.48 233.45 170.56 233.13 C 169.64 232.81 168.63 233.30 168.31 234.22 Z M 168.00 235.13 L 167.66 236.07 C 167.33 236.99 167.81 238.00 168.72 238.33 C 169.64 238.66 170.65 238.19 170.98 237.27 L 171.32 236.32 C 171.65 235.41 171.18 234.40 170.26 234.07 C 169.34 233.74 168.33 234.21 168.00 235.13 Z M 167.67 236.05 L 167.31 237.03 C 166.96 237.94 167.42 238.96 168.33 239.30 C 169.24 239.64 170.26 239.18 170.60 238.27 L 170.97 237.29 C 171.31 236.38 170.85 235.37 169.94 235.02 C 169.03 234.68 168.02 235.14 167.67 236.05 Z M 167.32 237.01 L 166.92 238.02 C 166.57 238.93 167.01 239.95 167.92 240.30 C 168.82 240.66 169.84 240.21 170.19 239.30 L 170.59 238.29 C 170.94 237.39 170.50 236.37 169.59 236.01 C 168.69 235.66 167.67 236.11 167.32 237.01 Z M 166.93 238.01 L 166.51 239.04 C 166.15 239.94 166.58 240.96 167.48 241.32 C 168.38 241.69 169.40 241.25 169.77 240.35 L 170.19 239.32 C 170.55 238.42 170.11 237.40 169.22 237.04 C 168.32 236.67 167.29 237.11 166.93 238.01 Z M 166.52 239.02 L 166.16 239.88 C 165.79 240.78 166.21 241.80 167.11 242.18 C 168.00 242.55 169.03 242.12 169.40 241.23 L 169.76 240.37 C 170.13 239.47 169.71 238.45 168.81 238.08 C 167.92 237.70 166.89 238.13 166.52 239.02 Z M 166.17 239.87 L 165.79 240.75 C 165.41 241.64 165.83 242.67 166.72 243.05 C 167.61 243.43 168.64 243.02 169.02 242.13 L 169.39 241.24 C 169.77 240.35 169.36 239.32 168.47 238.94 C 167.58 238.56 166.55 238.98 166.17 239.87 Z M 165.80 240.74 L 165.41 241.65 C 165.02 242.53 165.43 243.56 166.31 243.95 C 167.20 244.33 168.23 243.93 168.62 243.04 L 169.01 242.14 C 169.40 241.25 168.99 240.22 168.10 239.84 C 167.22 239.45 166.19 239.86 165.80 240.74 Z M 165.42 241.63 L 165.01 242.55 C 164.61 243.43 165.01 244.47 165.89 244.86 C 166.77 245.25 167.81 244.86 168.20 243.97 L 168.61 243.06 C 169.00 242.17 168.60 241.14 167.72 240.75 C 166.84 240.36 165.81 240.75 165.42 241.63 Z M 165.01 242.54 L 164.59 243.47 C 164.19 244.34 164.58 245.38 165.46 245.78 C 166.33 246.18 167.37 245.79 167.77 244.91 L 168.19 243.99 C 168.59 243.11 168.20 242.07 167.33 241.67 C 166.45 241.28 165.41 241.66 165.01 242.54 Z M 164.60 243.45 L 164.17 244.39 C 163.76 245.26 164.14 246.30 165.01 246.70 C 165.88 247.11 166.92 246.73 167.32 245.86 L 167.76 244.93 C 168.17 244.06 167.79 243.02 166.92 242.61 C 166.04 242.20 165.01 242.58 164.60 243.45 Z M 164.17 244.37 L 163.73 245.31 C 163.32 246.17 163.68 247.21 164.55 247.63 C 165.42 248.04 166.46 247.67 166.87 246.81 L 167.32 245.87 C 167.73 245.01 167.36 243.97 166.50 243.55 C 165.63 243.14 164.59 243.51 164.17 244.37 Z M 163.74 245.29 L 163.29 246.22 C 162.86 247.08 163.22 248.12 164.08 248.54 C 164.94 248.96 165.99 248.61 166.41 247.75 L 166.86 246.82 C 167.28 245.96 166.93 244.92 166.06 244.49 C 165.20 244.07 164.16 244.43 163.74 245.29 Z M 163.30 246.20 L 162.84 247.12 C 162.41 247.97 162.75 249.02 163.61 249.45 C 164.46 249.88 165.51 249.53 165.94 248.68 L 166.40 247.76 C 166.83 246.90 166.48 245.86 165.63 245.43 C 164.77 245.00 163.73 245.34 163.30 246.20 Z M 162.85 247.10 L 162.38 248.00 C 161.94 248.85 162.28 249.90 163.13 250.34 C 163.98 250.78 165.02 250.44 165.46 249.59 L 165.93 248.69 C 166.37 247.84 166.03 246.80 165.18 246.36 C 164.33 245.92 163.29 246.25 162.85 247.10 Z M 162.39 247.98 L 161.93 248.86 C 161.48 249.71 161.80 250.75 162.64 251.20 C 163.48 251.65 164.53 251.33 164.98 250.49 L 165.45 249.61 C 165.90 248.77 165.58 247.72 164.74 247.27 C 163.89 246.82 162.84 247.14 162.39 247.98 Z M 161.94 248.84 L 161.46 249.71 C 161.00 250.55 161.30 251.60 162.14 252.06 C 162.98 252.52 164.03 252.22 164.49 251.38 L 164.97 250.51 C 165.43 249.67 165.12 248.62 164.29 248.16 C 163.45 247.70 162.40 248.00 161.94 248.84 Z M 161.48 249.69 L 160.92 250.65 C 160.45 251.48 160.74 252.53 161.56 253.01 C 162.39 253.48 163.44 253.20 163.92 252.37 L 164.47 251.41 C 164.94 250.58 164.66 249.53 163.83 249.05 C 163.00 248.58 161.95 248.87 161.48 249.69 Z M 160.95 250.62 L 160.39 251.55 C 159.90 252.36 160.17 253.41 160.98 253.90 C 161.79 254.39 162.85 254.13 163.34 253.32 L 163.89 252.40 C 164.38 251.59 164.12 250.53 163.31 250.04 C 162.49 249.55 161.44 249.81 160.95 250.62 Z M 160.42 251.51 L 159.86 252.40 C 159.35 253.19 159.59 254.25 160.38 254.76 C 161.18 255.27 162.24 255.03 162.75 254.23 L 163.31 253.35 C 163.82 252.56 163.58 251.50 162.78 250.99 C 161.99 250.48 160.93 250.72 160.42 251.51 Z M 159.89 252.36 L 159.32 253.20 C 158.79 253.98 159.00 255.04 159.77 255.57 C 160.55 256.10 161.61 255.89 162.14 255.11 L 162.71 254.27 C 163.24 253.49 163.04 252.43 162.26 251.90 C 161.48 251.38 160.42 251.58 159.89 252.36 Z M 159.36 253.16 L 158.77 253.96 C 158.22 254.72 158.39 255.78 159.15 256.33 C 159.91 256.89 160.97 256.72 161.52 255.96 L 162.10 255.16 C 162.66 254.40 162.49 253.34 161.73 252.78 C 160.97 252.23 159.91 252.40 159.36 253.16 Z M 158.82 253.92 L 158.22 254.68 C 157.64 255.42 157.77 256.48 158.50 257.06 C 159.24 257.63 160.30 257.51 160.88 256.77 L 161.48 256.01 C 162.05 255.27 161.93 254.21 161.19 253.63 C 160.46 253.05 159.39 253.18 158.82 253.92 Z M 158.26 254.64 L 157.64 255.36 C 157.04 256.07 157.13 257.14 157.83 257.74 C 158.54 258.34 159.61 258.26 160.21 257.55 L 160.83 256.82 C 161.43 256.11 161.35 255.05 160.64 254.44 C 159.93 253.84 158.87 253.93 158.26 254.64 Z M 157.70 255.31 L 157.05 256.00 C 156.42 256.68 156.46 257.75 157.14 258.38 C 157.82 259.01 158.88 258.97 159.51 258.29 L 160.16 257.60 C 160.79 256.92 160.75 255.86 160.07 255.23 C 159.39 254.60 158.33 254.63 157.70 255.31 Z M 157.11 255.95 L 156.45 256.61 C 155.79 257.26 155.78 258.31 156.42 258.97 C 157.07 259.63 158.13 259.64 158.79 258.99 L 159.45 258.34 C 160.11 257.69 160.12 256.63 159.48 255.98 C 158.83 255.32 157.77 255.31 157.11 255.95 Z M 156.51 256.56 L 155.81 257.18 C 155.13 257.79 155.07 258.84 155.68 259.53 C 156.29 260.22 157.34 260.28 158.03 259.67 L 158.72 259.05 C 159.41 258.43 159.47 257.38 158.86 256.69 C 158.25 256.01 157.20 255.95 156.51 256.56 Z M 155.88 257.13 L 155.12 257.74 C 154.41 258.31 154.29 259.36 154.87 260.07 C 155.44 260.78 156.48 260.90 157.20 260.32 L 157.96 259.71 C 158.67 259.14 158.79 258.10 158.21 257.38 C 157.64 256.67 156.60 256.56 155.88 257.13 Z M 155.19 257.70 L 154.40 258.27 C 153.66 258.81 153.50 259.84 154.03 260.58 C 154.57 261.32 155.60 261.48 156.34 260.94 L 157.13 260.37 C 157.87 259.83 158.03 258.80 157.49 258.06 C 156.96 257.32 155.93 257.16 155.19 257.70 Z M 154.46 258.24 L 153.64 258.79 C 152.88 259.29 152.68 260.31 153.18 261.06 C 153.68 261.82 154.70 262.02 155.46 261.52 L 156.28 260.98 C 157.03 260.47 157.24 259.45 156.73 258.70 C 156.23 257.94 155.21 257.74 154.46 258.24 Z M 153.69 258.76 L 152.85 259.28 C 152.08 259.76 151.84 260.76 152.31 261.53 C 152.78 262.30 153.79 262.54 154.56 262.07 L 155.40 261.55 C 156.17 261.07 156.41 260.07 155.94 259.30 C 155.47 258.53 154.46 258.29 153.69 258.76 Z M 152.89 259.26 L 152.03 259.76 C 151.25 260.21 150.98 261.20 151.42 261.98 C 151.87 262.76 152.87 263.03 153.64 262.58 L 154.51 262.09 C 155.29 261.64 155.56 260.64 155.11 259.87 C 154.67 259.09 153.67 258.82 152.89 259.26 Z M 152.06 259.75 L 151.18 260.23 C 150.40 260.65 150.10 261.63 150.53 262.42 C 150.95 263.21 151.94 263.50 152.72 263.07 L 153.61 262.60 C 154.39 262.17 154.68 261.19 154.26 260.40 C 153.83 259.61 152.85 259.32 152.06 259.75 Z M 151.21 260.22 L 150.32 260.68 C 149.53 261.09 149.22 262.06 149.62 262.85 C 150.03 263.64 151.00 263.95 151.79 263.54 L 152.69 263.08 C 153.48 262.67 153.79 261.70 153.38 260.91 C 152.98 260.12 152.00 259.81 151.21 260.22 Z M 150.34 260.68 L 149.43 261.13 C 148.64 261.52 148.32 262.49 148.71 263.28 C 149.11 264.07 150.07 264.39 150.86 264.00 L 151.77 263.55 C 152.56 263.15 152.88 262.19 152.49 261.40 C 152.09 260.61 151.13 260.28 150.34 260.68 Z M 149.45 261.13 L 148.54 261.57 C 147.74 261.96 147.41 262.92 147.80 263.71 C 148.19 264.50 149.14 264.83 149.93 264.44 L 150.85 264.00 C 151.64 263.61 151.97 262.66 151.58 261.87 C 151.20 261.07 150.24 260.74 149.45 261.13 Z M 148.54 261.58 L 147.81 261.93 C 147.02 262.32 146.69 263.26 147.07 264.05 C 147.45 264.84 148.40 265.18 149.19 264.80 L 149.92 264.44 C 150.71 264.06 151.05 263.11 150.67 262.32 C 150.28 261.53 149.34 261.20 148.54 261.58 Z"
      fill="black"
      fill-rule="nonzero" /></svg>