<svg xmlns="http://www.w3.org/2000/svg" width="300" height="300" viewBox="0 0 300 300">
<path d="M 170.40 155.08 L 170.33 154.13 C 170.25 153.18 169.41 152.46 168.46 152.54 C 167.50 152.62 166.79 153.46 166.86 154.41 L 166.94 155.36 C 167.02 156.31 167.85 157.03 168.81 156.95 C 169.77 156.87 170.48 156.03 170.40 155.08 Z M 170.34 154.13 L 170.26 153.18 C 170.18 152.22 169.33 151.51 168.37 151.59 C 167.41 151.67 166.70 152.51 166.78 153.47 L 166.86 154.42 C 166.94 155.38 167.78 156.09 168.74 156.01 C 169.70 155.93 170.42 155.09 170.34 154.13 Z M 170.26 153.17 L 170.18 152.22 C 170.09 151.25 169.24 150.54 168.27 150.63 C 167.31 150.71 166.60 151.57 166.68 152.53 L 166.77 153.48 C 166.86 154.45 167.71 155.16 168.67 155.07 C 169.64 154.99 170.35 154.13 170.26 153.17 Z M 170.18 152.20 L 170.09 151.23 C 169.99 150.26 169.13 149.56 168.16 149.65 C 167.19 149.75 166.49 150.61 166.58 151.58 L 166.68 152.55 C 166.77 153.52 167.64 154.22 168.61 154.12 C 169.57 154.03 170.28 153.17 170.18 152.20 Z M 170.09 151.21 L 169.98 150.23 C 169.87 149.26 169.00 148.56 168.03 148.67 C 167.06 148.78 166.36 149.65 166.47 150.62 L 166.58 151.60 C 166.69 152.57 167.56 153.27 168.53 153.16 C 169.50 153.06 170.20 152.18 170.09 151.21 Z M 169.99 150.20 L 169.86 149.20 C 169.73 148.23 168.85 147.54 167.87 147.66 C 166.90 147.79 166.21 148.67 166.33 149.65 L 166.46 150.65 C 166.59 151.62 167.47 152.31 168.45 152.19 C 169.42 152.06 170.11 151.17 169.99 150.20 Z M 169.86 149.17 L 169.71 148.14 C 169.57 147.17 168.67 146.49 167.69 146.63 C 166.72 146.77 166.04 147.68 166.18 148.65 L 166.33 149.68 C 166.47 150.65 167.38 151.33 168.35 151.19 C 169.33 151.05 170.00 150.14 169.86 149.17 Z M 169.72 148.11 L 169.54 147.06 C 169.38 146.08 168.46 145.42 167.49 145.58 C 166.51 145.74 165.85 146.66 166.01 147.64 L 166.18 148.69 C 166.34 149.66 167.26 150.33 168.24 150.17 C 169.21 150.01 169.88 149.09 169.72 148.11 Z M 169.55 147.02 L 169.35 145.97 C 169.17 145.00 168.24 144.35 167.26 144.53 C 166.28 144.71 165.64 145.64 165.82 146.62 L 166.01 147.67 C 166.19 148.65 167.12 149.29 168.10 149.12 C 169.08 148.94 169.72 148.00 169.55 147.02 Z M 169.35 145.94 L 169.16 144.98 C 168.96 144.00 168.01 143.37 167.03 143.57 C 166.05 143.76 165.42 144.72 165.62 145.69 L 165.82 146.66 C 166.01 147.63 166.97 148.26 167.94 148.07 C 168.92 147.87 169.55 146.91 169.35 145.94 Z M 169.16 144.94 L 168.94 143.96 C 168.72 142.98 167.75 142.37 166.78 142.59 C 165.80 142.81 165.18 143.77 165.40 144.75 L 165.62 145.73 C 165.84 146.71 166.81 147.32 167.78 147.10 C 168.76 146.88 169.37 145.92 169.16 144.94 Z M 168.94 143.92 L 168.69 142.94 C 168.46 141.96 167.47 141.36 166.50 141.60 C 165.52 141.84 164.92 142.82 165.16 143.80 L 165.40 144.79 C 165.64 145.76 166.63 146.36 167.60 146.12 C 168.58 145.88 169.18 144.90 168.94 143.92 Z M 168.69 142.90 L 168.43 141.91 C 168.17 140.93 167.16 140.35 166.19 140.61 C 165.22 140.88 164.64 141.88 164.90 142.85 L 165.16 143.84 C 165.43 144.81 166.43 145.39 167.40 145.13 C 168.37 144.87 168.95 143.87 168.69 142.90 Z M 168.42 141.86 L 168.13 140.88 C 167.85 139.91 166.83 139.35 165.86 139.63 C 164.89 139.92 164.33 140.94 164.62 141.91 L 164.90 142.89 C 165.19 143.86 166.21 144.42 167.18 144.14 C 168.15 143.85 168.71 142.83 168.42 141.86 Z M 168.12 140.83 L 167.81 139.86 C 167.50 138.89 166.46 138.36 165.50 138.67 C 164.53 138.98 164.00 140.02 164.31 140.98 L 164.62 141.96 C 164.93 142.92 165.97 143.45 166.94 143.14 C 167.90 142.83 168.44 141.80 168.12 140.83 Z M 167.80 139.80 L 167.46 138.85 C 167.12 137.89 166.07 137.39 165.11 137.73 C 164.15 138.07 163.64 139.12 163.98 140.08 L 164.32 141.04 C 164.66 142.00 165.72 142.50 166.68 142.16 C 167.64 141.82 168.14 140.76 167.80 139.80 Z M 167.45 138.79 L 167.09 137.87 C 166.71 136.91 165.64 136.44 164.69 136.81 C 163.73 137.19 163.26 138.26 163.64 139.22 L 164.00 140.14 C 164.37 141.09 165.45 141.57 166.40 141.19 C 167.35 140.82 167.82 139.74 167.45 138.79 Z M 167.07 137.80 L 166.68 136.91 C 166.27 135.97 165.17 135.53 164.23 135.94 C 163.29 136.35 162.86 137.45 163.27 138.39 L 163.65 139.28 C 164.06 140.22 165.16 140.66 166.10 140.25 C 167.04 139.84 167.48 138.74 167.07 137.80 Z M 166.65 136.83 L 166.23 135.97 C 165.78 135.04 164.66 134.65 163.74 135.10 C 162.81 135.55 162.42 136.67 162.87 137.60 L 163.29 138.46 C 163.74 139.39 164.86 139.78 165.79 139.33 C 166.72 138.88 167.10 137.76 166.65 136.83 Z M 166.19 135.87 L 165.65 134.89 C 165.15 133.99 164.01 133.66 163.10 134.16 C 162.19 134.67 161.87 135.81 162.37 136.71 L 162.91 137.69 C 163.42 138.60 164.56 138.93 165.46 138.42 C 166.37 137.92 166.70 136.78 166.19 135.87 Z M 165.60 134.79 L 165.02 133.88 C 164.45 133.00 163.29 132.75 162.41 133.31 C 161.53 133.87 161.28 135.04 161.84 135.92 L 162.42 136.82 C 162.99 137.70 164.15 137.95 165.03 137.39 C 165.90 136.83 166.16 135.66 165.60 134.79 Z M 164.95 133.77 L 164.33 132.93 C 163.71 132.09 162.52 131.92 161.68 132.54 C 160.84 133.17 160.66 134.36 161.29 135.20 L 161.91 136.03 C 162.53 136.87 163.72 137.04 164.56 136.42 C 165.40 135.79 165.57 134.61 164.95 133.77 Z M 164.25 132.82 L 163.59 132.06 C 162.91 131.27 161.70 131.18 160.91 131.87 C 160.11 132.56 160.03 133.76 160.71 134.55 L 161.37 135.31 C 162.06 136.11 163.26 136.19 164.06 135.51 C 164.85 134.82 164.94 133.61 164.25 132.82 Z M 163.50 131.94 L 162.81 131.26 C 162.05 130.52 160.84 130.53 160.10 131.28 C 159.36 132.03 159.36 133.25 160.12 133.99 L 160.81 134.67 C 161.56 135.41 162.78 135.40 163.52 134.65 C 164.26 133.90 164.25 132.69 163.50 131.94 Z M 162.69 131.15 L 161.96 130.54 C 161.15 129.86 159.93 129.97 159.25 130.79 C 158.57 131.60 158.68 132.82 159.50 133.50 L 160.23 134.10 C 161.05 134.78 162.26 134.67 162.94 133.86 C 163.62 133.04 163.51 131.83 162.69 131.15 Z M 161.84 130.43 L 161.07 129.90 C 160.20 129.29 158.99 129.51 158.38 130.39 C 157.77 131.26 157.99 132.47 158.87 133.08 L 159.63 133.61 C 160.51 134.22 161.71 134.00 162.32 133.12 C 162.93 132.24 162.71 131.04 161.84 130.43 Z M 160.93 129.80 L 160.13 129.34 C 159.20 128.81 158.01 129.14 157.48 130.08 C 156.95 131.01 157.28 132.20 158.21 132.73 L 159.01 133.18 C 159.94 133.71 161.13 133.38 161.66 132.45 C 162.19 131.52 161.86 130.33 160.93 129.80 Z M 159.97 129.25 L 159.10 128.86 C 158.12 128.42 156.96 128.86 156.52 129.84 C 156.08 130.83 156.52 131.98 157.50 132.43 L 158.37 132.82 C 159.36 133.26 160.51 132.82 160.95 131.84 C 161.39 130.85 160.95 129.70 159.97 129.25 Z M 158.92 128.79 L 158.01 128.48 C 156.98 128.14 155.87 128.69 155.53 129.71 C 155.18 130.74 155.74 131.85 156.76 132.19 L 157.68 132.50 C 158.70 132.84 159.81 132.29 160.16 131.27 C 160.50 130.24 159.95 129.13 158.92 128.79 Z M 157.83 128.42 L 156.88 128.21 C 155.82 127.96 154.77 128.62 154.53 129.68 C 154.28 130.73 154.94 131.79 156.00 132.03 L 156.94 132.25 C 158.00 132.49 159.05 131.83 159.30 130.78 C 159.54 129.72 158.88 128.67 157.83 128.42 Z M 156.69 128.17 L 155.72 128.04 C 154.64 127.90 153.66 128.66 153.51 129.73 C 153.37 130.81 154.13 131.80 155.21 131.94 L 156.18 132.07 C 157.26 132.21 158.25 131.45 158.39 130.37 C 158.53 129.30 157.77 128.31 156.69 128.17 Z M 155.54 128.02 L 154.54 127.98 C 153.45 127.94 152.54 128.80 152.50 129.89 C 152.46 130.97 153.31 131.89 154.40 131.93 L 155.40 131.96 C 156.49 132.00 157.40 131.15 157.44 130.06 C 157.48 128.97 156.63 128.06 155.54 128.02 Z M 154.36 127.98 L 153.35 128.04 C 152.26 128.10 151.42 129.04 151.48 130.13 C 151.55 131.22 152.48 132.05 153.57 131.99 L 154.59 131.93 C 155.68 131.87 156.51 130.93 156.45 129.84 C 156.39 128.75 155.45 127.92 154.36 127.98 Z M 153.17 128.05 L 152.14 128.20 C 151.06 128.37 150.31 129.38 150.47 130.46 C 150.63 131.54 151.64 132.29 152.73 132.13 L 153.75 131.98 C 154.84 131.81 155.58 130.80 155.42 129.72 C 155.26 128.64 154.25 127.89 153.17 128.05 Z M 151.97 128.23 L 150.94 128.48 C 149.87 128.74 149.21 129.81 149.47 130.88 C 149.73 131.95 150.80 132.61 151.87 132.35 L 152.90 132.10 C 153.97 131.84 154.63 130.77 154.37 129.70 C 154.11 128.63 153.04 127.98 151.97 128.23 Z M 150.79 128.52 L 149.98 128.78 C 148.93 129.12 148.36 130.24 148.69 131.29 C 149.03 132.34 150.16 132.91 151.20 132.58 L 152.02 132.31 C 153.06 131.97 153.64 130.85 153.30 129.80 C 152.96 128.76 151.84 128.18 150.79 128.52 Z M 149.86 128.82 L 149.04 129.14 C 148.02 129.55 147.51 130.71 147.92 131.73 C 148.32 132.76 149.48 133.26 150.51 132.86 L 151.32 132.54 C 152.35 132.13 152.85 130.97 152.45 129.95 C 152.04 128.92 150.89 128.42 149.86 128.82 Z M 148.93 129.19 L 148.11 129.57 C 147.11 130.03 146.68 131.22 147.14 132.22 C 147.61 133.22 148.80 133.66 149.80 133.19 L 150.62 132.81 C 151.62 132.35 152.05 131.16 151.59 130.16 C 151.12 129.16 149.93 128.72 148.93 129.19 Z M 148.01 129.62 L 147.19 130.06 C 146.21 130.58 145.84 131.79 146.36 132.76 C 146.88 133.74 148.10 134.11 149.07 133.59 L 149.90 133.15 C 150.87 132.63 151.24 131.41 150.72 130.44 C 150.20 129.46 148.99 129.09 148.01 129.62 Z M 147.10 130.10 L 146.27 130.60 C 145.32 131.18 145.01 132.41 145.58 133.36 C 146.15 134.30 147.38 134.61 148.33 134.04 L 149.16 133.54 C 150.11 132.97 150.42 131.74 149.85 130.79 C 149.28 129.84 148.05 129.53 147.10 130.10 Z M 146.18 130.65 L 145.35 131.21 C 144.42 131.83 144.18 133.07 144.79 134.00 C 145.41 134.92 146.65 135.17 147.57 134.55 L 148.41 133.99 C 149.33 133.38 149.58 132.13 148.97 131.21 C 148.35 130.29 147.11 130.04 146.18 130.65 Z M 145.27 131.26 L 144.43 131.88 C 143.53 132.54 143.34 133.79 143.99 134.69 C 144.65 135.58 145.91 135.78 146.80 135.12 L 147.65 134.50 C 148.54 133.85 148.74 132.59 148.08 131.69 C 147.43 130.80 146.17 130.60 145.27 131.26 Z M 144.36 131.93 L 143.51 132.60 C 142.64 133.30 142.49 134.56 143.19 135.43 C 143.88 136.30 145.14 136.45 146.01 135.75 L 146.87 135.08 C 147.74 134.38 147.88 133.12 147.19 132.25 C 146.50 131.38 145.23 131.23 144.36 131.93 Z M 143.45 132.65 L 142.59 133.39 C 141.74 134.11 141.64 135.38 142.37 136.23 C 143.09 137.07 144.36 137.17 145.21 136.45 L 146.07 135.71 C 146.92 134.99 147.01 133.71 146.29 132.87 C 145.57 132.02 144.30 131.93 143.45 132.65 Z M 142.54 133.43 L 141.67 134.22 C 140.85 134.98 140.79 136.25 141.54 137.07 C 142.29 137.90 143.57 137.95 144.39 137.20 L 145.26 136.41 C 146.08 135.65 146.14 134.38 145.39 133.56 C 144.63 132.73 143.36 132.68 142.54 133.43 Z M 141.63 134.26 L 140.97 134.90 C 140.16 135.67 140.14 136.95 140.91 137.75 C 141.69 138.56 142.97 138.58 143.77 137.81 L 144.43 137.17 C 145.24 136.39 145.26 135.11 144.48 134.31 C 143.71 133.51 142.43 133.48 141.63 134.26 Z M 140.93 134.93 L 140.27 135.60 C 139.48 136.39 139.48 137.67 140.28 138.46 C 141.07 139.24 142.35 139.24 143.13 138.45 L 143.80 137.78 C 144.59 136.99 144.58 135.71 143.79 134.92 C 143.00 134.13 141.72 134.14 140.93 134.93 Z M 140.24 135.62 L 139.57 136.32 C 138.80 137.13 138.83 138.41 139.63 139.18 C 140.44 139.95 141.72 139.93 142.49 139.12 L 143.16 138.42 C 143.93 137.62 143.91 136.34 143.10 135.56 C 142.29 134.79 141.01 134.82 140.24 135.62 Z M 139.55 136.35 L 138.88 137.07 C 138.12 137.89 138.17 139.17 138.99 139.93 C 139.81 140.69 141.09 140.64 141.85 139.82 L 142.52 139.10 C 143.28 138.28 143.23 137.00 142.41 136.24 C 141.59 135.48 140.31 135.53 139.55 136.35 Z M 138.85 137.09 L 138.19 137.84 C 137.44 138.67 137.51 139.95 138.34 140.70 C 139.17 141.44 140.45 141.37 141.20 140.54 L 141.87 139.80 C 142.62 138.96 142.55 137.68 141.71 136.94 C 140.88 136.19 139.60 136.26 138.85 137.09 Z M 138.17 137.86 L 137.50 138.62 C 136.76 139.47 136.85 140.75 137.70 141.48 C 138.54 142.22 139.82 142.13 140.56 141.28 L 141.22 140.52 C 141.96 139.68 141.87 138.40 141.03 137.66 C 140.18 136.93 138.90 137.01 138.17 137.86 Z M 137.48 138.64 L 136.82 139.42 C 136.10 140.28 136.20 141.56 137.06 142.28 C 137.91 143.00 139.19 142.90 139.92 142.04 L 140.58 141.26 C 141.30 140.41 141.19 139.13 140.34 138.41 C 139.49 137.68 138.21 137.79 137.48 138.64 Z M 136.80 139.44 L 136.15 140.23 C 135.43 141.10 135.56 142.38 136.42 143.09 C 137.29 143.81 138.56 143.68 139.28 142.82 L 139.93 142.03 C 140.65 141.16 140.52 139.88 139.66 139.17 C 138.80 138.45 137.52 138.58 136.80 139.44 Z M 136.13 140.25 L 135.48 141.05 C 134.78 141.93 134.92 143.21 135.79 143.91 C 136.67 144.61 137.94 144.48 138.65 143.60 L 139.30 142.80 C 140.00 141.93 139.86 140.65 138.99 139.94 C 138.11 139.24 136.83 139.38 136.13 140.25 Z M 135.47 141.07 L 134.83 141.88 C 134.14 142.76 134.29 144.04 135.17 144.74 C 136.06 145.43 137.33 145.28 138.03 144.40 L 138.66 143.59 C 139.36 142.70 139.21 141.43 138.32 140.73 C 137.44 140.04 136.16 140.19 135.47 141.07 Z M 134.82 141.90 L 134.19 142.71 C 133.51 143.60 133.67 144.88 134.56 145.57 C 135.46 146.25 136.73 146.08 137.42 145.19 L 138.04 144.38 C 138.73 143.49 138.56 142.21 137.67 141.53 C 136.78 140.84 135.50 141.01 134.82 141.90 Z M 134.18 142.73 L 133.56 143.54 C 132.89 144.44 133.07 145.72 133.97 146.39 C 134.87 147.07 136.14 146.89 136.82 145.99 L 137.43 145.18 C 138.11 144.28 137.93 143.00 137.03 142.33 C 136.13 141.65 134.85 141.83 134.18 142.73 Z M 133.55 143.56 L 132.95 144.37 C 132.29 145.28 132.48 146.56 133.39 147.22 C 134.29 147.89 135.57 147.69 136.24 146.79 L 136.83 145.97 C 137.50 145.07 137.30 143.79 136.40 143.13 C 135.49 142.46 134.22 142.65 133.55 143.56 Z M 132.94 144.39 L 132.34 145.23 C 131.68 146.14 131.89 147.41 132.80 148.07 C 133.72 148.73 134.99 148.52 135.65 147.61 L 136.25 146.77 C 136.91 145.86 136.70 144.58 135.78 143.93 C 134.87 143.27 133.60 143.48 132.94 144.39 Z M 132.33 145.24 L 131.74 146.08 C 131.09 147.00 131.31 148.27 132.23 148.92 C 133.15 149.57 134.42 149.35 135.07 148.43 L 135.66 147.59 C 136.31 146.67 136.09 145.39 135.17 144.75 C 134.24 144.10 132.97 144.32 132.33 145.24 Z M 131.72 146.10 L 131.15 146.93 C 130.51 147.86 130.75 149.13 131.68 149.77 C 132.60 150.41 133.87 150.17 134.51 149.24 L 135.09 148.41 C 135.72 147.48 135.49 146.21 134.56 145.57 C 133.63 144.94 132.36 145.17 131.72 146.10 Z M 131.14 146.95 L 130.58 147.79 C 129.95 148.72 130.20 149.99 131.13 150.62 C 132.07 151.24 133.34 150.99 133.96 150.06 L 134.52 149.23 C 135.15 148.29 134.90 147.02 133.97 146.40 C 133.03 145.77 131.76 146.02 131.14 146.95 Z M 130.57 147.80 L 130.02 148.64 C 129.40 149.58 129.66 150.84 130.61 151.46 C 131.55 152.08 132.81 151.82 133.43 150.87 L 133.98 150.04 C 134.60 149.10 134.33 147.83 133.39 147.22 C 132.45 146.60 131.18 146.86 130.57 147.80 Z M 130.01 148.65 L 129.47 149.49 C 128.86 150.43 129.14 151.70 130.09 152.31 C 131.04 152.91 132.30 152.64 132.91 151.69 L 133.44 150.86 C 134.05 149.91 133.78 148.65 132.83 148.04 C 131.88 147.43 130.62 147.70 130.01 148.65 Z M 129.46 149.50 L 128.94 150.34 C 128.34 151.29 128.63 152.55 129.58 153.15 C 130.53 153.75 131.79 153.46 132.39 152.51 L 132.92 151.67 C 133.52 150.72 133.23 149.46 132.28 148.86 C 131.32 148.26 130.06 148.55 129.46 149.50 Z M 128.93 150.35 L 128.41 151.19 C 127.82 152.15 128.12 153.41 129.08 154.00 C 130.04 154.59 131.30 154.29 131.89 153.33 L 132.40 152.49 C 133.00 151.53 132.70 150.27 131.74 149.68 C 130.77 149.09 129.52 149.39 128.93 150.35 Z M 128.40 151.21 L 127.89 152.05 C 127.31 153.02 127.62 154.27 128.59 154.85 C 129.55 155.44 130.81 155.13 131.39 154.16 L 131.90 153.32 C 132.48 152.35 132.17 151.10 131.20 150.51 C 130.24 149.93 128.98 150.24 128.40 151.21 Z M 127.88 152.07 L 127.38 152.92 C 126.81 153.89 127.13 155.14 128.10 155.71 C 129.07 156.29 130.32 155.97 130.90 155.00 L 131.40 154.15 C 131.97 153.17 131.65 151.92 130.68 151.35 C 129.71 150.77 128.46 151.09 127.88 152.07 Z M 127.37 152.93 L 126.87 153.79 C 126.31 154.76 126.64 156.01 127.61 156.58 C 128.59 157.15 129.84 156.82 130.41 155.84 L 130.90 154.98 C 131.47 154.01 131.14 152.76 130.16 152.19 C 129.19 151.62 127.94 151.95 127.37 152.93 Z M 126.86 153.80 L 126.37 154.67 C 125.81 155.65 126.15 156.90 127.13 157.46 C 128.11 158.02 129.36 157.68 129.92 156.70 L 130.41 155.83 C 130.97 154.85 130.63 153.60 129.65 153.04 C 128.67 152.48 127.42 152.82 126.86 153.80 Z M 126.36 154.68 L 125.87 155.56 C 125.31 156.54 125.66 157.79 126.65 158.34 C 127.63 158.90 128.88 158.55 129.43 157.56 L 129.93 156.68 C 130.48 155.70 130.13 154.45 129.15 153.90 C 128.16 153.35 126.92 153.70 126.36 154.68 Z M 125.86 155.57 L 125.39 156.41 C 124.85 157.40 125.20 158.64 126.19 159.19 C 127.18 159.74 128.42 159.38 128.97 158.40 L 129.44 157.55 C 129.99 156.56 129.63 155.32 128.64 154.77 C 127.65 154.22 126.41 154.58 125.86 155.57 Z M 125.39 156.42 L 124.92 157.28 C 124.38 158.27 124.74 159.51 125.73 160.05 C 126.73 160.59 127.97 160.23 128.51 159.24 L 128.98 158.38 C 129.52 157.39 129.15 156.15 128.16 155.61 C 127.17 155.07 125.93 155.43 125.39 156.42 Z M 124.91 157.29 L 124.45 158.15 C 123.91 159.15 124.29 160.39 125.28 160.92 C 126.28 161.46 127.52 161.08 128.05 160.09 L 128.52 159.23 C 129.05 158.23 128.68 156.99 127.68 156.46 C 126.69 155.92 125.45 156.29 124.91 157.29 Z M 124.44 158.17 L 123.98 159.04 C 123.45 160.04 123.84 161.28 124.83 161.80 C 125.83 162.33 127.07 161.95 127.60 160.95 L 128.06 160.08 C 128.59 159.08 128.20 157.84 127.20 157.31 C 126.21 156.79 124.97 157.17 124.44 158.17 Z M 123.97 159.06 L 123.52 159.94 C 123.00 160.94 123.39 162.18 124.39 162.70 C 125.40 163.21 126.63 162.82 127.15 161.82 L 127.61 160.94 C 128.12 159.93 127.73 158.70 126.73 158.18 C 125.73 157.66 124.49 158.05 123.97 159.06 Z M 123.51 159.96 L 123.06 160.85 C 122.55 161.86 122.95 163.09 123.96 163.60 C 124.97 164.11 126.20 163.70 126.71 162.69 L 127.16 161.80 C 127.67 160.79 127.26 159.56 126.26 159.05 C 125.25 158.54 124.02 158.95 123.51 159.96 Z M 123.05 160.87 L 122.60 161.77 C 122.10 162.78 122.52 164.01 123.53 164.51 C 124.54 165.01 125.77 164.59 126.27 163.58 L 126.71 162.68 C 127.21 161.66 126.80 160.44 125.79 159.94 C 124.77 159.44 123.55 159.85 123.05 160.87 Z M 122.59 161.79 L 122.16 162.69 C 121.67 163.71 122.09 164.93 123.11 165.42 C 124.13 165.91 125.35 165.49 125.84 164.47 L 126.28 163.56 C 126.77 162.54 126.34 161.32 125.32 160.83 C 124.30 160.34 123.08 160.77 122.59 161.79 Z M 122.15 162.72 L 121.72 163.63 C 121.24 164.66 121.68 165.87 122.70 166.35 C 123.73 166.83 124.95 166.39 125.42 165.36 L 125.85 164.45 C 126.33 163.42 125.89 162.21 124.86 161.73 C 123.84 161.25 122.62 161.69 122.15 162.72 Z M 121.71 163.65 L 121.29 164.58 C 120.82 165.61 121.28 166.82 122.31 167.28 C 123.34 167.75 124.55 167.29 125.02 166.27 L 125.43 165.34 C 125.90 164.31 125.44 163.10 124.41 162.63 C 123.39 162.17 122.17 162.63 121.71 163.65 Z M 121.28 164.60 L 120.87 165.53 C 120.42 166.57 120.89 167.77 121.92 168.23 C 122.96 168.68 124.17 168.21 124.62 167.17 L 125.03 166.24 C 125.48 165.21 125.01 164.00 123.97 163.55 C 122.94 163.10 121.73 163.57 121.28 164.60 Z M 120.86 165.56 L 120.46 166.50 C 120.03 167.54 120.51 168.74 121.55 169.17 C 122.59 169.61 123.79 169.13 124.23 168.09 L 124.63 167.15 C 125.07 166.11 124.58 164.91 123.54 164.47 C 122.50 164.03 121.30 164.52 120.86 165.56 Z M 120.45 166.52 L 120.07 167.47 C 119.65 168.51 120.15 169.71 121.20 170.13 C 122.25 170.55 123.44 170.05 123.86 169.00 L 124.24 168.06 C 124.67 167.01 124.16 165.82 123.12 165.39 C 122.07 164.97 120.88 165.47 120.45 166.52 Z M 120.06 167.49 L 119.70 168.43 C 119.29 169.48 119.81 170.67 120.86 171.08 C 121.92 171.49 123.10 170.96 123.51 169.91 L 123.87 168.97 C 124.28 167.92 123.76 166.74 122.71 166.33 C 121.65 165.92 120.47 166.44 120.06 167.49 Z M 119.69 168.46 L 119.34 169.39 C 118.95 170.45 119.49 171.63 120.55 172.02 C 121.61 172.41 122.78 171.87 123.18 170.81 L 123.52 169.88 C 123.91 168.82 123.37 167.64 122.31 167.25 C 121.26 166.86 120.08 167.40 119.69 168.46 Z M 119.33 169.42 L 119.00 170.36 C 118.62 171.42 119.18 172.59 120.24 172.97 C 121.31 173.34 122.48 172.79 122.86 171.72 L 123.19 170.78 C 123.56 169.72 123.01 168.55 121.94 168.17 C 120.88 167.80 119.71 168.35 119.33 169.42 Z M 118.99 170.39 L 118.67 171.33 C 118.31 172.40 118.89 173.56 119.96 173.92 C 121.03 174.28 122.19 173.71 122.55 172.63 L 122.87 171.69 C 123.23 170.62 122.65 169.46 121.58 169.10 C 120.51 168.74 119.35 169.32 118.99 170.39 Z M 118.66 171.36 L 118.36 172.31 C 118.01 173.38 118.61 174.53 119.68 174.88 C 120.76 175.22 121.91 174.63 122.25 173.55 L 122.56 172.61 C 122.90 171.53 122.31 170.38 121.23 170.03 C 120.16 169.69 119.01 170.28 118.66 171.36 Z M 118.35 172.34 L 118.06 173.29 C 117.73 174.37 118.34 175.51 119.42 175.84 C 120.50 176.17 121.65 175.56 121.97 174.48 L 122.26 173.52 C 122.59 172.44 121.98 171.30 120.90 170.97 C 119.82 170.64 118.68 171.25 118.35 172.34 Z M 118.05 173.32 L 117.77 174.28 C 117.46 175.36 118.09 176.50 119.18 176.81 C 120.26 177.12 121.39 176.49 121.71 175.41 L 121.98 174.45 C 122.29 173.36 121.67 172.23 120.58 171.92 C 119.50 171.60 118.36 172.23 118.05 173.32 Z M 117.77 174.31 L 117.51 175.27 C 117.21 176.36 117.85 177.48 118.94 177.78 C 120.03 178.08 121.16 177.43 121.45 176.34 L 121.72 175.38 C 122.01 174.29 121.37 173.16 120.28 172.87 C 119.19 172.57 118.06 173.22 117.77 174.31 Z M 117.50 175.30 L 117.25 176.27 C 116.97 177.36 117.63 178.48 118.73 178.76 C 119.82 179.04 120.93 178.38 121.21 177.28 L 121.46 176.31 C 121.74 175.22 121.08 174.10 119.99 173.82 C 118.89 173.54 117.78 174.20 117.50 175.30 Z M 117.24 176.30 L 117.01 177.27 C 116.75 178.37 117.42 179.47 118.52 179.74 C 119.62 180.00 120.72 179.32 120.99 178.23 L 121.22 177.25 C 121.48 176.15 120.81 175.05 119.71 174.78 C 118.61 174.52 117.51 175.20 117.24 176.30 Z M 117.00 177.30 L 116.78 178.28 C 116.54 179.38 117.23 180.48 118.33 180.72 C 119.43 180.97 120.53 180.28 120.78 179.18 L 120.99 178.20 C 121.24 177.09 120.55 176.00 119.45 175.75 C 118.34 175.51 117.25 176.20 117.00 177.30 Z M 116.78 178.31 L 116.57 179.29 C 116.34 180.40 117.05 181.48 118.16 181.72 C 119.26 181.95 120.35 181.24 120.58 180.13 L 120.78 179.15 C 121.01 178.04 120.30 176.96 119.20 176.73 C 118.09 176.49 117.01 177.20 116.78 178.31 Z M 116.57 179.32 L 116.37 180.31 C 116.16 181.42 116.88 182.50 117.99 182.71 C 119.10 182.93 120.18 182.20 120.39 181.09 L 120.58 180.10 C 120.80 178.99 120.07 177.92 118.96 177.70 C 117.85 177.49 116.78 178.22 116.57 179.32 Z M 116.37 180.34 L 116.19 181.34 C 115.99 182.45 116.73 183.51 117.85 183.71 C 118.96 183.91 120.02 183.17 120.22 182.06 L 120.40 181.06 C 120.59 179.95 119.85 178.89 118.74 178.69 C 117.63 178.49 116.57 179.23 116.37 180.34 Z M 116.19 181.37 L 116.02 182.41 C 115.83 183.52 116.59 184.57 117.71 184.76 C 118.82 184.94 119.87 184.18 120.05 183.07 L 120.22 182.03 C 120.41 180.91 119.65 179.86 118.53 179.68 C 117.42 179.50 116.37 180.25 116.19 181.37 Z M 116.01 182.44 L 115.86 183.49 C 115.69 184.60 116.46 185.64 117.58 185.81 C 118.70 185.98 119.74 185.21 119.90 184.09 L 120.06 183.04 C 120.22 181.92 119.45 180.88 118.34 180.72 C 117.22 180.55 116.18 181.32 116.01 182.44 Z M 115.85 183.51 L 115.71 184.56 C 115.56 185.68 116.34 186.71 117.46 186.86 C 118.58 187.01 119.61 186.23 119.76 185.11 L 119.90 184.06 C 120.06 182.94 119.27 181.91 118.15 181.76 C 117.03 181.61 116.00 182.40 115.85 183.51 Z M 115.71 184.59 L 115.58 185.64 C 115.44 186.75 116.24 187.77 117.36 187.91 C 118.48 188.05 119.50 187.25 119.64 186.13 L 119.76 185.09 C 119.90 183.97 119.11 182.95 117.99 182.81 C 116.87 182.67 115.85 183.47 115.71 184.59 Z M 115.58 185.66 L 115.46 186.70 C 115.34 187.82 116.14 188.83 117.26 188.96 C 118.39 189.08 119.40 188.27 119.52 187.15 L 119.64 186.11 C 119.76 184.99 118.96 183.98 117.83 183.86 C 116.71 183.73 115.70 184.54 115.58 185.66 Z M 115.46 186.72 L 115.36 187.75 C 115.24 188.87 116.06 189.87 117.18 189.99 C 118.30 190.10 119.30 189.28 119.42 188.16 L 119.52 187.13 C 119.64 186.01 118.82 185.01 117.70 184.89 C 116.58 184.78 115.57 185.60 115.46 186.72 Z M 115.35 187.77 L 115.26 188.79 C 115.16 189.91 115.98 190.91 117.11 191.01 C 118.23 191.11 119.22 190.29 119.33 189.16 L 119.42 188.14 C 119.52 187.02 118.70 186.03 117.57 185.93 C 116.45 185.82 115.46 186.65 115.35 187.77 Z M 115.26 188.81 L 115.18 189.81 C 115.08 190.94 115.92 191.92 117.04 192.01 C 118.16 192.11 119.15 191.27 119.24 190.15 L 119.33 189.15 C 119.42 188.02 118.58 187.04 117.46 186.94 C 116.34 186.85 115.35 187.69 115.26 188.81 Z M 115.18 189.83 L 115.10 190.82 C 115.02 191.94 115.86 192.92 116.98 193.00 C 118.11 193.08 119.09 192.24 119.17 191.12 L 119.24 190.13 C 119.33 189.01 118.48 188.03 117.36 187.95 C 116.24 187.86 115.26 188.71 115.18 189.83 Z M 115.10 190.83 L 115.04 191.79 C 114.96 192.92 115.81 193.89 116.94 193.97 C 118.06 194.04 119.03 193.19 119.11 192.07 L 119.17 191.10 C 119.25 189.98 118.40 189.01 117.27 188.93 C 116.15 188.86 115.18 189.71 115.10 190.83 Z M 115.04 191.81 L 114.98 192.75 C 114.91 193.87 115.77 194.84 116.89 194.91 C 118.02 194.97 118.98 194.12 119.05 192.99 L 119.11 192.05 C 119.17 190.93 118.32 189.96 117.19 189.90 C 116.07 189.83 115.11 190.69 115.04 191.81 Z M 114.98 192.76 L 114.93 193.67 C 114.87 194.80 115.73 195.76 116.86 195.82 C 117.98 195.88 118.94 195.02 119.00 193.89 L 119.05 192.98 C 119.11 191.86 118.25 190.90 117.12 190.84 C 116.00 190.78 115.04 191.64 114.98 192.76 Z M 114.93 193.69 L 114.89 194.57 C 114.84 195.69 115.70 196.65 116.83 196.70 C 117.95 196.75 118.90 195.89 118.96 194.76 L 119.00 193.88 C 119.05 192.76 118.19 191.80 117.06 191.75 C 115.94 191.70 114.99 192.56 114.93 193.69 Z M 114.89 194.58 L 114.85 195.60 C 114.80 196.72 115.67 197.67 116.79 197.72 C 117.92 197.76 118.87 196.89 118.91 195.77 L 118.96 194.75 C 119.00 193.63 118.13 192.68 117.01 192.63 C 115.89 192.58 114.94 193.46 114.89 194.58 Z M 114.85 195.61 L 114.81 196.65 C 114.77 197.77 115.65 198.71 116.77 198.75 C 117.90 198.79 118.84 197.91 118.88 196.79 L 118.91 195.75 C 118.95 194.63 118.07 193.69 116.95 193.65 C 115.83 193.61 114.89 194.49 114.85 195.61 Z M 114.81 196.67 L 114.79 197.66 C 114.76 198.79 115.64 199.72 116.77 199.75 C 117.89 199.78 118.82 198.89 118.85 197.77 L 118.88 196.77 C 118.90 195.65 118.02 194.72 116.90 194.69 C 115.77 194.66 114.84 195.54 114.81 196.67 Z M 114.79 197.69 L 114.77 198.66 C 114.76 199.78 115.65 200.70 116.77 200.72 C 117.89 200.73 118.82 199.84 118.83 198.72 L 118.85 197.75 C 118.87 196.63 117.97 195.70 116.85 195.69 C 115.73 195.67 114.81 196.56 114.79 197.69 Z M 114.77 198.68 L 114.77 199.64 C 114.77 200.76 115.67 201.67 116.79 201.67 C 117.91 201.68 118.83 200.77 118.83 199.65 L 118.83 198.69 C 118.84 197.57 117.93 196.66 116.81 196.66 C 115.69 196.65 114.78 197.56 114.77 198.68 Z M 114.77 199.66 L 114.78 200.61 C 114.79 201.73 115.71 202.63 116.83 202.62 C 117.95 202.61 118.85 201.69 118.84 200.58 L 118.83 199.62 C 118.82 198.50 117.90 197.61 116.78 197.62 C 115.66 197.63 114.76 198.54 114.77 199.66 Z M 114.78 200.64 L 114.81 201.60 C 114.83 202.72 115.76 203.60 116.88 203.58 C 118.00 203.55 118.88 202.62 118.86 201.51 L 118.83 200.55 C 118.81 199.43 117.88 198.54 116.76 198.57 C 115.64 198.60 114.76 199.52 114.78 200.64 Z M 114.81 201.63 L 114.84 202.60 C 114.89 203.72 115.82 204.59 116.94 204.55 C 118.06 204.51 118.93 203.57 118.89 202.45 L 118.85 201.48 C 118.81 200.36 117.88 199.49 116.76 199.53 C 115.64 199.57 114.77 200.51 114.81 201.63 Z M 114.85 202.63 L 114.90 203.63 C 114.95 204.75 115.90 205.61 117.02 205.55 C 118.13 205.50 118.99 204.55 118.94 203.43 L 118.89 202.43 C 118.83 201.31 117.88 200.45 116.77 200.51 C 115.65 200.56 114.79 201.51 114.85 202.63 Z M 114.90 203.66 L 114.96 204.70 C 115.03 205.82 115.99 206.66 117.11 206.59 C 118.22 206.52 119.07 205.57 119.00 204.45 L 118.93 203.41 C 118.87 202.29 117.91 201.45 116.79 201.52 C 115.68 201.58 114.83 202.54 114.90 203.66 Z M 114.97 204.72 L 115.04 205.71 C 115.12 206.82 116.09 207.66 117.20 207.58 C 118.31 207.50 119.15 206.53 119.07 205.42 L 119.00 204.43 C 118.92 203.32 117.95 202.48 116.84 202.56 C 115.72 202.64 114.89 203.61 114.97 204.72 Z M 115.04 205.73 L 115.12 206.63 C 115.21 207.74 116.18 208.57 117.29 208.48 C 118.41 208.39 119.23 207.41 119.14 206.30 L 119.07 205.40 C 118.97 204.29 118.00 203.46 116.89 203.55 C 115.78 203.64 114.95 204.62 115.04 205.73 Z M 115.12 206.65 L 115.21 207.58 C 115.31 208.69 116.29 209.51 117.40 209.41 C 118.51 209.30 119.33 208.32 119.22 207.21 L 119.14 206.28 C 119.03 205.17 118.05 204.35 116.94 204.46 C 115.83 204.56 115.02 205.54 115.12 206.65 Z M 115.21 207.61 L 115.31 208.56 C 115.43 209.67 116.42 210.48 117.53 210.36 C 118.64 210.24 119.44 209.25 119.32 208.14 L 119.22 207.18 C 119.10 206.08 118.11 205.27 117.00 205.39 C 115.89 205.51 115.09 206.50 115.21 207.61 Z M 115.31 208.59 L 115.43 209.57 C 115.57 210.68 116.57 211.46 117.68 211.33 C 118.78 211.20 119.57 210.19 119.44 209.09 L 119.32 208.11 C 119.19 207.01 118.18 206.22 117.08 206.35 C 115.97 206.48 115.18 207.49 115.31 208.59 Z M 115.44 209.60 L 115.57 210.59 C 115.72 211.70 116.74 212.47 117.84 212.32 C 118.95 212.17 119.72 211.15 119.57 210.05 L 119.43 209.06 C 119.28 207.95 118.26 207.18 117.16 207.33 C 116.06 207.48 115.29 208.50 115.44 209.60 Z M 115.58 210.63 L 115.73 211.64 C 115.90 212.74 116.93 213.49 118.03 213.32 C 119.13 213.15 119.89 212.12 119.72 211.02 L 119.56 210.01 C 119.39 208.91 118.36 208.16 117.26 208.33 C 116.16 208.50 115.41 209.53 115.58 210.63 Z M 115.74 211.67 L 115.92 212.69 C 116.11 213.78 117.15 214.52 118.25 214.32 C 119.35 214.13 120.08 213.09 119.89 211.99 L 119.71 210.98 C 119.52 209.88 118.47 209.15 117.38 209.34 C 116.28 209.54 115.55 210.58 115.74 211.67 Z M 115.93 212.73 L 116.13 213.75 C 116.34 214.84 117.40 215.55 118.49 215.33 C 119.58 215.12 120.29 214.06 120.08 212.97 L 119.88 211.95 C 119.66 210.86 118.60 210.15 117.51 210.37 C 116.42 210.58 115.71 211.64 115.93 212.73 Z M 116.14 213.80 L 116.37 214.81 C 116.61 215.90 117.68 216.58 118.77 216.34 C 119.85 216.10 120.54 215.02 120.29 213.94 L 120.07 212.92 C 119.83 211.84 118.75 211.15 117.67 211.39 C 116.58 211.64 115.90 212.71 116.14 213.80 Z M 116.38 214.86 L 116.63 215.88 C 116.90 216.95 118.00 217.61 119.07 217.34 C 120.15 217.07 120.81 215.97 120.53 214.90 L 120.28 213.89 C 120.01 212.81 118.92 212.15 117.84 212.42 C 116.76 212.69 116.11 213.79 116.38 214.86 Z M 116.65 215.93 L 116.93 216.93 C 117.23 218.00 118.34 218.62 119.41 218.32 C 120.48 218.02 121.10 216.91 120.80 215.84 L 120.52 214.84 C 120.22 213.77 119.11 213.15 118.04 213.45 C 116.97 213.75 116.35 214.86 116.65 215.93 Z M 116.95 217.00 L 117.26 217.98 C 117.60 219.04 118.73 219.63 119.79 219.29 C 120.85 218.96 121.43 217.83 121.10 216.77 L 120.78 215.78 C 120.45 214.72 119.32 214.14 118.26 214.47 C 117.20 214.81 116.62 215.94 116.95 217.00 Z M 117.29 218.05 L 117.64 219.03 C 118.01 220.07 119.16 220.62 120.20 220.24 C 121.25 219.87 121.79 218.72 121.42 217.68 L 121.07 216.70 C 120.70 215.66 119.55 215.11 118.51 215.48 C 117.46 215.86 116.92 217.01 117.29 218.05 Z M 117.66 219.09 L 118.04 220.05 C 118.46 221.08 119.62 221.59 120.65 221.17 C 121.68 220.76 122.18 219.60 121.77 218.57 L 121.39 217.61 C 120.98 216.58 119.81 216.08 118.78 216.49 C 117.75 216.90 117.25 218.07 117.66 219.09 Z M 118.07 220.12 L 118.49 221.06 C 118.93 222.07 120.12 222.53 121.13 222.08 C 122.14 221.64 122.60 220.45 122.16 219.44 L 121.75 218.50 C 121.30 217.49 120.12 217.03 119.10 217.47 C 118.09 217.92 117.63 219.10 118.07 220.12 Z M 118.52 221.12 L 118.96 222.04 C 119.44 223.03 120.64 223.45 121.64 222.97 C 122.63 222.49 123.05 221.29 122.57 220.30 L 122.13 219.38 C 121.65 218.38 120.45 217.96 119.45 218.44 C 118.46 218.92 118.04 220.12 118.52 221.12 Z M 118.99 222.09 L 119.46 222.99 C 119.97 223.97 121.18 224.35 122.16 223.84 C 123.14 223.33 123.52 222.11 123.01 221.14 L 122.54 220.24 C 122.03 219.26 120.82 218.88 119.84 219.39 C 118.86 219.90 118.48 221.11 118.99 222.09 Z M 119.49 223.05 L 119.99 223.92 C 120.53 224.89 121.75 225.23 122.71 224.68 C 123.68 224.14 124.02 222.92 123.47 221.96 L 122.98 221.08 C 122.43 220.12 121.21 219.78 120.25 220.32 C 119.29 220.86 118.95 222.08 119.49 223.05 Z M 120.02 223.98 L 120.54 224.83 C 121.11 225.78 122.34 226.08 123.28 225.51 C 124.23 224.94 124.53 223.71 123.96 222.76 L 123.44 221.91 C 122.87 220.96 121.64 220.66 120.69 221.23 C 119.75 221.80 119.45 223.03 120.02 223.98 Z M 120.57 224.88 L 121.11 225.72 C 121.71 226.65 122.95 226.91 123.87 226.31 C 124.80 225.72 125.07 224.48 124.47 223.55 L 123.93 222.72 C 123.33 221.79 122.09 221.52 121.17 222.12 C 120.24 222.72 119.97 223.96 120.57 224.88 Z M 121.14 225.77 L 121.71 226.58 C 122.33 227.49 123.57 227.72 124.48 227.10 C 125.39 226.48 125.62 225.23 125.00 224.33 L 124.44 223.51 C 123.81 222.60 122.57 222.37 121.66 222.99 C 120.75 223.61 120.52 224.86 121.14 225.77 Z M 121.74 226.63 L 122.32 227.42 C 122.96 228.32 124.21 228.51 125.10 227.87 C 125.99 227.22 126.19 225.97 125.54 225.08 L 124.97 224.28 C 124.32 223.39 123.07 223.19 122.18 223.84 C 121.29 224.49 121.09 225.73 121.74 226.63 Z M 122.35 227.46 L 122.94 228.24 C 123.61 229.11 124.86 229.28 125.74 228.61 C 126.61 227.94 126.78 226.69 126.11 225.82 L 125.51 225.04 C 124.84 224.17 123.59 224.00 122.72 224.67 C 121.85 225.34 121.68 226.59 122.35 227.46 Z M 122.97 228.28 L 123.58 229.04 C 124.27 229.89 125.53 230.03 126.38 229.34 C 127.24 228.65 127.38 227.40 126.69 226.54 L 126.08 225.78 C 125.39 224.92 124.13 224.79 123.28 225.48 C 122.42 226.17 122.29 227.42 122.97 228.28 Z M 123.62 229.07 L 124.24 229.81 C 124.95 230.65 126.20 230.75 127.04 230.04 C 127.88 229.34 127.99 228.08 127.28 227.24 L 126.66 226.50 C 125.95 225.66 124.69 225.56 123.85 226.27 C 123.01 226.97 122.91 228.23 123.62 229.07 Z M 124.27 229.84 L 124.96 230.62 C 125.69 231.44 126.94 231.52 127.76 230.79 C 128.59 230.07 128.66 228.81 127.94 227.99 L 127.25 227.21 C 126.52 226.38 125.26 226.31 124.44 227.03 C 123.62 227.76 123.54 229.02 124.27 229.84 Z M 124.99 230.66 L 125.72 231.44 C 126.47 232.24 127.72 232.29 128.53 231.54 C 129.33 230.80 129.38 229.54 128.63 228.73 L 127.90 227.95 C 127.16 227.15 125.90 227.10 125.10 227.85 C 124.29 228.60 124.24 229.85 124.99 230.66 Z M 125.75 231.48 L 126.49 232.23 C 127.26 233.01 128.52 233.03 129.30 232.26 C 130.09 231.49 130.10 230.24 129.33 229.45 L 128.59 228.70 C 127.83 227.91 126.57 227.90 125.78 228.67 C 125.00 229.43 124.99 230.69 125.75 231.48 Z M 126.53 232.27 L 127.28 232.99 C 128.07 233.76 129.33 233.73 130.09 232.95 C 130.85 232.16 130.83 230.90 130.04 230.14 L 129.29 229.41 C 128.51 228.65 127.25 228.67 126.49 229.46 C 125.72 230.25 125.74 231.51 126.53 232.27 Z M 127.32 233.03 L 128.08 233.72 C 128.89 234.46 130.14 234.41 130.88 233.60 C 131.62 232.79 131.57 231.53 130.76 230.79 L 130.00 230.10 C 129.19 229.36 127.94 229.42 127.20 230.23 C 126.46 231.03 126.51 232.29 127.32 233.03 Z M 128.12 233.76 L 128.89 234.42 C 129.72 235.14 130.97 235.04 131.69 234.21 C 132.40 233.38 132.31 232.13 131.48 231.42 L 130.71 230.76 C 129.88 230.04 128.63 230.13 127.92 230.96 C 127.20 231.79 127.29 233.05 128.12 233.76 Z M 128.94 234.46 L 129.71 235.09 C 130.56 235.78 131.81 235.64 132.50 234.79 C 133.19 233.94 133.06 232.69 132.21 232.00 L 131.43 231.38 C 130.58 230.69 129.33 230.82 128.64 231.67 C 127.95 232.52 128.09 233.77 128.94 234.46 Z M 129.76 235.13 L 130.55 235.72 C 131.42 236.38 132.66 236.20 133.32 235.33 C 133.98 234.45 133.81 233.21 132.93 232.55 L 132.15 231.96 C 131.28 231.30 130.04 231.48 129.38 232.35 C 128.72 233.22 128.89 234.47 129.76 235.13 Z M 130.60 235.76 L 131.39 236.31 C 132.28 236.94 133.52 236.72 134.15 235.82 C 134.78 234.93 134.56 233.69 133.67 233.06 L 132.88 232.51 C 131.98 231.88 130.75 232.10 130.12 233.00 C 129.49 233.89 129.71 235.13 130.60 235.76 Z M 131.45 236.35 L 132.24 236.86 C 133.16 237.46 134.39 237.19 134.98 236.28 C 135.58 235.36 135.31 234.13 134.40 233.54 L 133.60 233.02 C 132.69 232.43 131.46 232.69 130.86 233.61 C 130.27 234.53 130.53 235.75 131.45 236.35 Z M 132.31 236.90 L 133.10 237.37 C 134.05 237.93 135.26 237.62 135.82 236.68 C 136.38 235.74 136.07 234.52 135.12 233.97 L 134.33 233.49 C 133.39 232.94 132.17 233.25 131.62 234.19 C 131.06 235.13 131.37 236.34 132.31 236.90 Z M 133.18 237.42 L 134.03 237.87 C 134.99 238.39 136.19 238.02 136.71 237.06 C 137.22 236.10 136.86 234.90 135.90 234.38 L 135.05 233.93 C 134.09 233.41 132.89 233.77 132.37 234.74 C 131.85 235.70 132.22 236.90 133.18 237.42 Z M 134.11 237.91 L 135.07 238.37 C 136.06 238.84 137.24 238.42 137.71 237.43 C 138.18 236.44 137.76 235.26 136.77 234.79 L 135.81 234.34 C 134.82 233.87 133.64 234.29 133.17 235.28 C 132.71 236.26 133.13 237.44 134.11 237.91 Z M 135.16 238.41 L 136.12 238.81 C 137.13 239.22 138.29 238.75 138.71 237.74 C 139.13 236.73 138.65 235.57 137.64 235.15 L 136.68 234.75 C 135.67 234.33 134.51 234.81 134.09 235.82 C 133.67 236.83 134.15 237.99 135.16 238.41 Z M 136.21 238.84 L 137.17 239.19 C 138.20 239.56 139.33 239.02 139.70 237.99 C 140.07 236.97 139.54 235.83 138.51 235.46 L 137.55 235.12 C 136.52 234.75 135.39 235.28 135.02 236.31 C 134.65 237.34 135.18 238.47 136.21 238.84 Z M 137.26 239.21 L 138.22 239.51 C 139.26 239.84 140.37 239.25 140.69 238.21 C 141.02 237.16 140.43 236.06 139.39 235.73 L 138.43 235.43 C 137.38 235.11 136.28 235.69 135.95 236.74 C 135.63 237.78 136.21 238.89 137.26 239.21 Z M 138.30 239.53 L 139.26 239.79 C 140.31 240.07 141.40 239.44 141.68 238.38 C 141.96 237.33 141.33 236.24 140.27 235.96 L 139.31 235.71 C 138.25 235.43 137.17 236.06 136.89 237.12 C 136.61 238.17 137.24 239.26 138.30 239.53 Z M 139.33 239.81 L 140.29 240.02 C 141.35 240.26 142.41 239.59 142.65 238.52 C 142.89 237.46 142.22 236.40 141.15 236.16 L 140.20 235.95 C 139.13 235.71 138.07 236.38 137.83 237.44 C 137.59 238.51 138.26 239.57 139.33 239.81 Z M 140.36 240.03 L 141.31 240.21 C 142.38 240.42 143.42 239.71 143.62 238.63 C 143.82 237.56 143.11 236.53 142.04 236.33 L 141.09 236.15 C 140.01 235.94 138.98 236.65 138.78 237.73 C 138.57 238.80 139.28 239.83 140.36 240.03 Z M 141.37 240.22 L 142.32 240.37 C 143.40 240.54 144.41 239.80 144.58 238.72 C 144.75 237.64 144.01 236.63 142.93 236.46 L 141.98 236.31 C 140.90 236.15 139.89 236.89 139.72 237.96 C 139.55 239.04 140.29 240.06 141.37 240.22 Z M 142.37 240.38 L 143.31 240.50 C 144.40 240.64 145.39 239.87 145.53 238.79 C 145.67 237.71 144.90 236.71 143.82 236.58 L 142.87 236.46 C 141.79 236.32 140.80 237.08 140.66 238.17 C 140.52 239.25 141.29 240.24 142.37 240.38 Z M 143.36 240.51 L 144.37 240.61 C 145.46 240.72 146.43 239.93 146.54 238.85 C 146.65 237.76 145.86 236.79 144.78 236.67 L 143.77 236.57 C 142.68 236.46 141.71 237.25 141.60 238.33 C 141.49 239.42 142.28 240.39 143.36 240.51 Z M 144.42 240.61 L 145.44 240.69 C 146.53 240.78 147.48 239.96 147.56 238.87 C 147.64 237.78 146.83 236.83 145.74 236.75 L 144.72 236.67 C 143.63 236.59 142.68 237.40 142.60 238.49 C 142.52 239.58 143.33 240.53 144.42 240.61 Z M 145.50 240.70 L 146.50 240.74 C 147.59 240.79 148.52 239.95 148.57 238.86 C 148.62 237.77 147.78 236.84 146.69 236.79 L 145.68 236.74 C 144.59 236.69 143.66 237.54 143.61 238.63 C 143.56 239.72 144.40 240.64 145.50 240.70 Z M 146.57 240.74 L 147.57 240.76 C 148.66 240.77 149.56 239.90 149.57 238.81 C 149.59 237.72 148.72 236.82 147.62 236.80 L 146.62 236.79 C 145.53 236.77 144.63 237.65 144.62 238.74 C 144.60 239.83 145.48 240.73 146.57 240.74 Z M 147.64 240.76 L 148.63 240.74 C 149.73 240.71 150.59 239.81 150.57 238.72 C 150.54 237.62 149.64 236.76 148.55 236.78 L 147.55 236.80 C 146.46 236.83 145.60 237.73 145.62 238.82 C 145.64 239.92 146.55 240.78 147.64 240.76 Z M 148.71 240.73 L 149.70 240.67 C 150.79 240.61 151.62 239.67 151.55 238.58 C 151.48 237.49 150.55 236.66 149.46 236.73 L 148.47 236.79 C 147.38 236.85 146.55 237.79 146.62 238.88 C 146.68 239.97 147.62 240.80 148.71 240.73 Z M 149.78 240.67 L 150.76 240.56 C 151.85 240.45 152.64 239.48 152.53 238.40 C 152.41 237.31 151.44 236.52 150.36 236.63 L 149.38 236.73 C 148.29 236.84 147.50 237.82 147.61 238.90 C 147.72 239.99 148.69 240.78 149.78 240.67 Z M 150.85 240.55 L 151.82 240.41 C 152.90 240.25 153.65 239.24 153.49 238.16 C 153.33 237.08 152.33 236.34 151.25 236.50 L 150.27 236.64 C 149.19 236.80 148.44 237.81 148.60 238.89 C 148.76 239.97 149.77 240.71 150.85 240.55 Z M 151.91 240.39 L 152.88 240.20 C 153.95 239.99 154.65 238.96 154.44 237.88 C 154.23 236.81 153.20 236.11 152.12 236.32 L 151.16 236.51 C 150.08 236.72 149.39 237.76 149.60 238.83 C 149.80 239.90 150.84 240.60 151.91 240.39 Z M 152.97 240.18 L 153.91 239.95 C 154.97 239.69 155.62 238.62 155.36 237.56 C 155.10 236.50 154.03 235.85 152.97 236.12 L 152.03 236.34 C 150.97 236.60 150.32 237.67 150.58 238.74 C 150.84 239.80 151.91 240.44 152.97 240.18 Z M 154.00 239.93 L 154.93 239.66 C 155.97 239.35 156.57 238.25 156.26 237.20 C 155.95 236.15 154.85 235.55 153.81 235.86 L 152.88 236.14 C 151.83 236.45 151.23 237.55 151.54 238.60 C 151.85 239.64 152.95 240.24 154.00 239.93 Z M 155.02 239.63 L 155.94 239.30 C 156.97 238.94 157.51 237.82 157.15 236.79 C 156.79 235.76 155.67 235.21 154.64 235.57 L 153.71 235.89 C 152.68 236.25 152.14 237.38 152.50 238.41 C 152.86 239.44 153.99 239.99 155.02 239.63 Z M 156.03 239.27 L 156.94 238.90 C 157.96 238.49 158.44 237.34 158.03 236.33 C 157.62 235.31 156.47 234.83 155.46 235.24 L 154.55 235.61 C 153.53 236.01 153.05 237.17 153.46 238.18 C 153.87 239.19 155.02 239.68 156.03 239.27 Z M 157.03 238.86 L 157.94 238.44 C 158.93 237.99 159.36 236.81 158.90 235.82 C 158.44 234.83 157.27 234.40 156.28 234.86 L 155.37 235.27 C 154.38 235.73 153.95 236.91 154.41 237.90 C 154.87 238.89 156.04 239.32 157.03 238.86 Z M 158.02 238.40 L 158.92 237.93 C 159.88 237.43 160.26 236.23 159.75 235.26 C 159.24 234.30 158.05 233.92 157.08 234.43 L 156.19 234.90 C 155.22 235.41 154.85 236.60 155.35 237.57 C 155.86 238.53 157.06 238.91 158.02 238.40 Z M 159.00 237.89 L 159.88 237.37 C 160.82 236.81 161.14 235.60 160.58 234.66 C 160.03 233.72 158.82 233.41 157.88 233.96 L 157.00 234.48 C 156.05 235.03 155.74 236.24 156.29 237.19 C 156.85 238.13 158.06 238.44 159.00 237.89 Z M 159.96 237.32 L 160.83 236.75 C 161.74 236.15 162.00 234.92 161.40 234.01 C 160.80 233.10 159.57 232.84 158.66 233.44 L 157.79 234.01 C 156.88 234.61 156.63 235.84 157.23 236.75 C 157.83 237.66 159.05 237.92 159.96 237.32 Z M 160.91 236.69 L 161.75 236.08 C 162.63 235.43 162.83 234.20 162.18 233.32 C 161.54 232.43 160.30 232.24 159.42 232.88 L 158.58 233.50 C 157.70 234.14 157.51 235.38 158.15 236.26 C 158.79 237.14 160.03 237.33 160.91 236.69 Z M 161.82 236.02 L 162.55 235.44 C 163.40 234.76 163.54 233.52 162.85 232.66 C 162.17 231.81 160.93 231.67 160.08 232.36 L 159.35 232.94 C 158.50 233.62 158.36 234.86 159.04 235.72 C 159.73 236.57 160.97 236.71 161.82 236.02 Z M 162.61 235.39 L 163.32 234.77 C 164.14 234.06 164.23 232.81 163.52 231.99 C 162.80 231.16 161.55 231.07 160.73 231.79 L 160.01 232.41 C 159.19 233.12 159.10 234.37 159.82 235.20 C 160.53 236.02 161.78 236.11 162.61 235.39 Z M 163.37 234.72 L 164.08 234.07 C 164.87 233.32 164.91 232.07 164.17 231.27 C 163.42 230.48 162.17 230.44 161.37 231.18 L 160.67 231.84 C 159.88 232.58 159.83 233.84 160.58 234.63 C 161.33 235.43 162.58 235.47 163.37 234.72 Z M 164.12 234.02 L 164.81 233.33 C 165.58 232.56 165.58 231.30 164.81 230.53 C 164.03 229.76 162.78 229.77 162.01 230.54 L 161.32 231.23 C 160.55 232.00 160.56 233.26 161.33 234.03 C 162.10 234.80 163.35 234.79 164.12 234.02 Z M 164.86 233.28 L 165.53 232.56 C 166.28 231.76 166.24 230.51 165.44 229.76 C 164.64 229.02 163.39 229.06 162.64 229.86 L 161.97 230.59 C 161.22 231.38 161.27 232.64 162.06 233.38 C 162.86 234.12 164.11 234.08 164.86 233.28 Z M 165.57 232.51 L 166.24 231.76 C 166.96 230.93 166.88 229.69 166.06 228.97 C 165.23 228.25 163.99 228.33 163.27 229.15 L 162.60 229.91 C 161.88 230.73 161.96 231.98 162.79 232.70 C 163.61 233.42 164.86 233.33 165.57 232.51 Z M 166.28 231.71 L 166.93 230.92 C 167.62 230.08 167.50 228.84 166.66 228.14 C 165.82 227.45 164.58 227.56 163.88 228.41 L 163.23 229.19 C 162.53 230.03 162.65 231.28 163.49 231.98 C 164.33 232.67 165.58 232.55 166.28 231.71 Z M 166.96 230.88 L 167.60 230.06 C 168.27 229.20 168.12 227.96 167.26 227.29 C 166.40 226.62 165.16 226.77 164.49 227.63 L 163.85 228.45 C 163.17 229.31 163.33 230.55 164.19 231.22 C 165.05 231.89 166.29 231.74 166.96 230.88 Z M 167.63 230.02 L 168.26 229.18 C 168.91 228.30 168.72 227.06 167.85 226.41 C 166.97 225.76 165.73 225.95 165.08 226.82 L 164.45 227.67 C 163.80 228.55 163.99 229.78 164.87 230.44 C 165.74 231.09 166.98 230.90 167.63 230.02 Z M 168.29 229.14 L 168.90 228.27 C 169.53 227.38 169.32 226.14 168.42 225.51 C 167.53 224.89 166.30 225.10 165.67 225.99 L 165.05 226.86 C 164.42 227.76 164.64 228.99 165.53 229.62 C 166.42 230.25 167.66 230.03 168.29 229.14 Z M 168.92 228.23 L 169.47 227.42 C 170.08 226.52 169.84 225.29 168.94 224.68 C 168.03 224.07 166.80 224.31 166.19 225.21 L 165.64 226.03 C 165.03 226.93 165.27 228.16 166.18 228.77 C 167.09 229.38 168.31 229.14 168.92 228.23 Z M 169.49 227.39 L 170.01 226.59 C 170.60 225.67 170.34 224.45 169.42 223.86 C 168.50 223.27 167.28 223.53 166.69 224.45 L 166.17 225.24 C 165.58 226.16 165.84 227.38 166.76 227.98 C 167.68 228.57 168.90 228.31 169.49 227.39 Z M 170.03 226.56 L 170.53 225.75 C 171.11 224.82 170.83 223.60 169.90 223.02 C 168.97 222.45 167.75 222.73 167.18 223.66 L 166.67 224.47 C 166.09 225.40 166.38 226.62 167.30 227.20 C 168.23 227.77 169.45 227.49 170.03 226.56 Z M 170.55 225.72 L 171.05 224.89 C 171.61 223.95 171.31 222.74 170.37 222.17 C 169.44 221.61 168.22 221.92 167.66 222.85 L 167.16 223.69 C 166.60 224.62 166.90 225.84 167.84 226.40 C 168.77 226.96 169.99 226.66 170.55 225.72 Z M 171.07 224.86 L 171.56 224.01 C 172.11 223.07 171.78 221.86 170.84 221.31 C 169.90 220.76 168.69 221.08 168.14 222.03 L 167.65 222.88 C 167.10 223.82 167.42 225.03 168.36 225.58 C 169.31 226.13 170.52 225.81 171.07 224.86 Z M 171.57 223.99 L 172.06 223.12 C 172.59 222.17 172.25 220.97 171.30 220.43 C 170.35 219.90 169.15 220.24 168.61 221.19 L 168.12 222.05 C 167.59 223.00 167.93 224.21 168.88 224.74 C 169.83 225.28 171.04 224.94 171.57 223.99 Z M 172.07 223.10 L 172.55 222.22 C 173.07 221.26 172.72 220.06 171.76 219.54 C 170.80 219.02 169.60 219.37 169.08 220.33 L 168.60 221.21 C 168.08 222.17 168.43 223.37 169.39 223.89 C 170.35 224.41 171.55 224.06 172.07 223.10 Z M 172.56 222.20 L 173.04 221.31 C 173.55 220.34 173.18 219.15 172.22 218.63 C 171.25 218.12 170.06 218.49 169.54 219.45 L 169.07 220.35 C 168.56 221.31 168.92 222.51 169.89 223.02 C 170.85 223.53 172.05 223.17 172.56 222.20 Z M 173.05 221.29 L 173.52 220.38 C 174.02 219.41 173.64 218.22 172.67 217.71 C 171.70 217.21 170.51 217.59 170.00 218.56 L 169.53 219.47 C 169.03 220.44 169.41 221.63 170.38 222.14 C 171.35 222.64 172.54 222.26 173.05 221.29 Z M 173.52 220.36 L 173.99 219.44 C 174.48 218.46 174.09 217.28 173.12 216.78 C 172.14 216.29 170.95 216.68 170.46 217.66 L 170.00 218.58 C 169.50 219.55 169.89 220.74 170.87 221.24 C 171.84 221.73 173.03 221.34 173.52 220.36 Z M 174.00 219.42 L 174.46 218.49 C 174.94 217.51 174.54 216.32 173.56 215.84 C 172.58 215.36 171.40 215.76 170.92 216.74 L 170.45 217.67 C 169.97 218.65 170.37 219.84 171.35 220.32 C 172.33 220.80 173.51 220.40 174.00 219.42 Z M 174.47 218.47 L 174.93 217.53 C 175.40 216.54 174.99 215.36 174.01 214.89 C 173.03 214.41 171.84 214.82 171.37 215.80 L 170.91 216.75 C 170.43 217.73 170.84 218.92 171.83 219.39 C 172.81 219.87 173.99 219.46 174.47 218.47 Z M 174.93 217.51 L 175.37 216.60 C 175.84 215.62 175.42 214.44 174.43 213.97 C 173.45 213.50 172.27 213.92 171.80 214.90 L 171.36 215.81 C 170.89 216.80 171.31 217.98 172.30 218.45 C 173.28 218.92 174.46 218.50 174.93 217.51 Z M 175.37 216.59 L 175.80 215.68 C 176.26 214.70 175.83 213.52 174.84 213.06 C 173.86 212.59 172.68 213.02 172.22 214.01 L 171.79 214.92 C 171.33 215.90 171.75 217.08 172.74 217.54 C 173.73 218.01 174.91 217.58 175.37 216.59 Z M 175.80 215.67 L 176.22 214.76 C 176.68 213.77 176.24 212.59 175.25 212.14 C 174.26 211.68 173.09 212.11 172.63 213.11 L 172.21 214.02 C 171.75 215.01 172.19 216.19 173.18 216.64 C 174.17 217.10 175.34 216.66 175.80 215.67 Z M 176.23 214.75 L 176.64 213.83 C 177.09 212.83 176.65 211.66 175.66 211.21 C 174.66 210.76 173.49 211.20 173.04 212.20 L 172.63 213.12 C 172.18 214.11 172.62 215.28 173.61 215.73 C 174.61 216.18 175.78 215.74 176.23 214.75 Z M 176.65 213.81 L 177.06 212.89 C 177.50 211.89 177.05 210.72 176.05 210.28 C 175.06 209.84 173.89 210.29 173.45 211.29 L 173.04 212.21 C 172.59 213.21 173.04 214.38 174.04 214.82 C 175.04 215.26 176.21 214.81 176.65 213.81 Z M 177.07 212.88 L 177.47 211.95 C 177.90 210.95 177.45 209.78 176.44 209.35 C 175.44 208.91 174.28 209.37 173.84 210.37 L 173.44 211.30 C 173.00 212.30 173.46 213.46 174.46 213.90 C 175.47 214.33 176.63 213.88 177.07 212.88 Z M 177.47 211.93 L 177.87 211.00 C 178.30 210.00 177.83 208.84 176.83 208.41 C 175.82 207.98 174.66 208.45 174.23 209.45 L 173.84 210.38 C 173.41 211.39 173.88 212.55 174.88 212.98 C 175.89 213.40 177.05 212.94 177.47 211.93 Z M 177.88 210.99 L 178.26 210.06 C 178.68 209.05 178.21 207.89 177.20 207.47 C 176.19 207.05 175.04 207.53 174.62 208.54 L 174.23 209.47 C 173.81 210.48 174.29 211.63 175.29 212.05 C 176.30 212.47 177.46 212.00 177.88 210.99 Z M 178.27 210.04 L 178.65 209.11 C 179.06 208.10 178.57 206.95 177.56 206.54 C 176.55 206.13 175.40 206.61 174.99 207.62 L 174.61 208.55 C 174.20 209.56 174.68 210.72 175.70 211.13 C 176.71 211.54 177.86 211.05 178.27 210.04 Z M 178.66 209.10 L 179.02 208.17 C 179.43 207.15 178.93 206.01 177.92 205.60 C 176.90 205.20 175.75 205.70 175.35 206.71 L 174.98 207.64 C 174.58 208.65 175.08 209.80 176.09 210.20 C 177.10 210.61 178.25 210.11 178.66 209.10 Z M 179.03 208.15 L 179.39 207.23 C 179.78 206.21 179.27 205.07 178.25 204.67 C 177.24 204.28 176.09 204.79 175.70 205.81 L 175.34 206.73 C 174.95 207.75 175.46 208.89 176.48 209.28 C 177.49 209.68 178.64 209.17 179.03 208.15 Z M 179.39 207.21 L 179.74 206.29 C 180.12 205.27 179.60 204.13 178.58 203.75 C 177.56 203.37 176.42 203.88 176.04 204.91 L 175.69 205.82 C 175.31 206.85 175.83 207.98 176.85 208.37 C 177.87 208.75 179.01 208.23 179.39 207.21 Z M 179.74 206.27 L 180.08 205.36 C 180.45 204.33 179.92 203.20 178.89 202.83 C 177.87 202.45 176.73 202.98 176.36 204.01 L 176.03 204.92 C 175.66 205.95 176.19 207.08 177.21 207.46 C 178.24 207.83 179.37 207.30 179.74 206.27 Z M 180.08 205.34 L 180.44 204.32 C 180.80 203.29 180.26 202.17 179.23 201.81 C 178.20 201.45 177.07 201.99 176.71 203.02 L 176.35 204.03 C 175.99 205.06 176.54 206.19 177.57 206.55 C 178.60 206.91 179.72 206.37 180.08 205.34 Z M 180.45 204.30 L 180.78 203.30 C 181.13 202.27 180.57 201.15 179.54 200.80 C 178.51 200.45 177.39 201.01 177.04 202.04 L 176.70 203.04 C 176.35 204.08 176.91 205.20 177.94 205.54 C 178.98 205.89 180.10 205.34 180.45 204.30 Z M 180.79 203.28 L 181.11 202.29 C 181.45 201.25 180.88 200.14 179.84 199.80 C 178.80 199.46 177.69 200.03 177.35 201.07 L 177.03 202.06 C 176.70 203.10 177.26 204.21 178.30 204.55 C 179.34 204.89 180.45 204.32 180.79 203.28 Z M 181.12 202.27 L 181.42 201.29 C 181.75 200.24 181.17 199.14 180.12 198.81 C 179.08 198.49 177.98 199.07 177.65 200.11 L 177.35 201.09 C 177.02 202.13 177.60 203.24 178.64 203.56 C 179.68 203.89 180.79 203.31 181.12 202.27 Z M 181.43 201.27 L 181.72 200.29 C 182.03 199.25 181.44 198.15 180.40 197.84 C 179.35 197.52 178.25 198.11 177.94 199.16 L 177.65 200.13 C 177.33 201.17 177.93 202.27 178.97 202.59 C 180.01 202.90 181.11 202.31 181.43 201.27 Z M 181.72 200.28 L 182.00 199.31 C 182.31 198.27 181.70 197.17 180.66 196.87 C 179.61 196.57 178.51 197.17 178.21 198.22 L 177.93 199.18 C 177.63 200.22 178.23 201.32 179.28 201.62 C 180.33 201.93 181.42 201.32 181.72 200.28 Z M 182.01 199.30 L 182.27 198.35 C 182.57 197.30 181.95 196.21 180.90 195.92 C 179.85 195.62 178.77 196.23 178.47 197.28 L 178.21 198.23 C 177.91 199.28 178.53 200.37 179.58 200.67 C 180.62 200.96 181.71 200.35 182.01 199.30 Z M 182.28 198.33 L 182.53 197.39 C 182.82 196.34 182.19 195.26 181.14 194.97 C 180.09 194.69 179.01 195.31 178.72 196.36 L 178.47 197.30 C 178.18 198.35 178.81 199.44 179.86 199.72 C 180.91 200.00 181.99 199.38 182.28 198.33 Z M 182.53 197.37 L 182.78 196.44 C 183.05 195.39 182.42 194.31 181.37 194.04 C 180.32 193.76 179.24 194.39 178.96 195.45 L 178.72 196.38 C 178.44 197.43 179.07 198.51 180.13 198.78 C 181.18 199.06 182.26 198.43 182.53 197.37 Z M 182.78 196.43 L 183.02 195.51 C 183.28 194.46 182.64 193.38 181.59 193.11 C 180.53 192.85 179.46 193.48 179.19 194.54 L 178.96 195.46 C 178.69 196.51 179.33 197.59 180.38 197.86 C 181.44 198.12 182.51 197.49 182.78 196.43 Z M 183.02 195.50 L 183.24 194.59 C 183.50 193.53 182.86 192.46 181.80 192.20 C 180.74 191.94 179.68 192.59 179.41 193.64 L 179.19 194.55 C 178.93 195.61 179.57 196.68 180.63 196.94 C 181.69 197.20 182.76 196.56 183.02 195.50 Z M 183.24 194.58 L 183.48 193.59 C 183.74 192.54 183.08 191.47 182.03 191.22 C 180.97 190.96 179.90 191.61 179.65 192.67 L 179.41 193.65 C 179.16 194.71 179.81 195.78 180.87 196.03 C 181.93 196.29 182.99 195.63 183.24 194.58 Z M 183.48 193.58 L 183.72 192.57 C 183.97 191.51 183.31 190.45 182.25 190.20 C 181.19 189.95 180.13 190.61 179.88 191.67 L 179.65 192.68 C 179.40 193.74 180.06 194.80 181.12 195.05 C 182.18 195.30 183.23 194.64 183.48 193.58 Z M 183.72 192.56 L 183.95 191.55 C 184.19 190.49 183.53 189.44 182.47 189.20 C 181.41 188.96 180.35 189.62 180.11 190.68 L 179.88 191.68 C 179.64 192.74 180.31 193.80 181.37 194.04 C 182.43 194.28 183.48 193.62 183.72 192.56 Z M 183.95 191.54 L 184.17 190.55 C 184.41 189.49 183.74 188.44 182.67 188.20 C 181.61 187.97 180.56 188.64 180.33 189.70 L 180.11 190.69 C 179.87 191.75 180.55 192.80 181.61 193.04 C 182.67 193.27 183.72 192.60 183.95 191.54 Z M 184.17 190.54 L 184.38 189.56 C 184.61 188.49 183.93 187.45 182.87 187.22 C 181.81 186.99 180.76 187.67 180.54 188.73 L 180.33 189.71 C 180.10 190.78 180.78 191.82 181.84 192.05 C 182.90 192.28 183.95 191.60 184.17 190.54 Z M 184.38 189.54 L 184.59 188.57 C 184.81 187.51 184.12 186.47 183.06 186.25 C 182.00 186.03 180.96 186.71 180.74 187.77 L 180.54 188.74 C 180.31 189.81 181.00 190.85 182.06 191.07 C 183.12 191.29 184.16 190.61 184.38 189.54 Z M 184.59 188.56 L 184.78 187.59 C 185.00 186.53 184.31 185.49 183.24 185.28 C 182.18 185.07 181.14 185.75 180.93 186.82 L 180.74 187.78 C 180.52 188.85 181.21 189.88 182.28 190.10 C 183.34 190.31 184.37 189.62 184.59 188.56 Z M 184.78 187.58 L 184.97 186.62 C 185.18 185.56 184.48 184.53 183.42 184.32 C 182.35 184.11 181.32 184.81 181.11 185.87 L 180.93 186.83 C 180.72 187.90 181.42 188.93 182.48 189.13 C 183.55 189.34 184.58 188.64 184.78 187.58 Z M 184.97 186.61 L 185.15 185.65 C 185.35 184.59 184.65 183.56 183.58 183.36 C 182.52 183.16 181.49 183.87 181.29 184.93 L 181.11 185.89 C 180.91 186.95 181.61 187.98 182.68 188.18 C 183.75 188.38 184.77 187.67 184.97 186.61 Z M 185.15 185.64 L 185.32 184.69 C 185.51 183.63 184.81 182.61 183.74 182.41 C 182.67 182.22 181.65 182.93 181.46 184.00 L 181.29 184.94 C 181.10 186.01 181.81 187.03 182.87 187.22 C 183.94 187.42 184.96 186.71 185.15 185.64 Z M 185.32 184.68 L 185.49 183.71 C 185.68 182.65 184.96 181.63 183.90 181.44 C 182.83 181.26 181.81 181.97 181.63 183.04 L 181.46 184.01 C 181.27 185.07 181.99 186.09 183.06 186.28 C 184.12 186.46 185.14 185.75 185.32 184.68 Z M 185.49 183.70 L 185.66 182.72 C 185.83 181.65 185.11 180.64 184.05 180.47 C 182.98 180.29 181.97 181.01 181.79 182.08 L 181.63 183.05 C 181.45 184.12 182.17 185.13 183.24 185.31 C 184.31 185.49 185.31 184.77 185.49 183.70 Z M 185.66 182.70 L 185.81 181.73 C 185.98 180.66 185.25 179.66 184.18 179.49 C 183.12 179.32 182.11 180.05 181.94 181.12 L 181.79 182.09 C 181.62 183.16 182.35 184.16 183.42 184.33 C 184.49 184.50 185.49 183.77 185.66 182.70 Z M 185.81 181.71 L 185.96 180.73 C 186.12 179.66 185.38 178.67 184.31 178.51 C 183.24 178.35 182.25 179.09 182.09 180.16 L 181.94 181.13 C 181.78 182.20 182.52 183.20 183.59 183.36 C 184.66 183.52 185.65 182.78 185.81 181.71 Z M 185.96 180.71 L 186.10 179.73 C 186.24 178.66 185.50 177.67 184.43 177.53 C 183.36 177.38 182.37 178.13 182.22 179.20 L 182.09 180.18 C 181.94 181.25 182.69 182.23 183.76 182.38 C 184.83 182.53 185.81 181.78 185.96 180.71 Z M 186.10 179.71 L 186.22 178.72 C 186.36 177.65 185.60 176.67 184.53 176.54 C 183.46 176.40 182.48 177.16 182.34 178.23 L 182.22 179.22 C 182.08 180.29 182.84 181.27 183.91 181.40 C 184.98 181.54 185.96 180.78 186.10 179.71 Z M 186.22 178.70 L 186.34 177.70 C 186.46 176.63 185.69 175.66 184.62 175.54 C 183.55 175.42 182.58 176.19 182.46 177.26 L 182.34 178.25 C 182.22 179.33 182.99 180.29 184.06 180.42 C 185.13 180.54 186.10 179.77 186.22 178.70 Z M 186.34 177.68 L 186.44 176.68 C 186.55 175.60 185.77 174.65 184.69 174.54 C 183.62 174.43 182.66 175.21 182.56 176.28 L 182.45 177.29 C 182.35 178.36 183.13 179.32 184.20 179.42 C 185.27 179.53 186.23 178.75 186.34 177.68 Z M 186.44 176.65 L 186.53 175.64 C 186.62 174.56 185.83 173.62 184.76 173.52 C 183.68 173.43 182.74 174.22 182.64 175.30 L 182.55 176.31 C 182.46 177.38 183.25 178.33 184.33 178.42 C 185.40 178.52 186.35 177.72 186.44 176.65 Z M 186.53 175.61 L 186.61 174.58 C 186.68 173.51 185.88 172.58 184.80 172.50 C 183.73 172.42 182.80 173.23 182.72 174.30 L 182.64 175.32 C 182.56 176.40 183.37 177.33 184.44 177.41 C 185.52 177.49 186.45 176.68 186.53 175.61 Z M 186.61 174.55 L 186.67 173.52 C 186.73 172.44 185.91 171.52 184.83 171.46 C 183.76 171.40 182.84 172.22 182.78 173.29 L 182.72 174.33 C 182.65 175.40 183.48 176.32 184.55 176.39 C 185.62 176.45 186.54 175.63 186.61 174.55 Z M 186.67 173.48 L 186.71 172.44 C 186.75 171.36 185.91 170.46 184.84 170.42 C 183.76 170.37 182.86 171.21 182.82 172.29 L 182.78 173.33 C 182.73 174.40 183.57 175.31 184.65 175.35 C 185.72 175.39 186.62 174.55 186.67 173.48 Z M 186.71 172.39 L 186.72 171.35 C 186.74 170.27 185.88 169.39 184.81 169.37 C 183.73 169.36 182.85 170.21 182.83 171.29 L 182.82 172.33 C 182.80 173.41 183.66 174.29 184.73 174.31 C 185.81 174.32 186.69 173.47 186.71 172.39 Z M 186.72 171.29 L 186.71 170.26 C 186.69 169.18 185.81 168.33 184.74 168.34 C 183.67 168.35 182.81 169.23 182.82 170.31 L 182.83 171.34 C 182.85 172.42 183.73 173.27 184.80 173.26 C 185.87 173.25 186.73 172.37 186.72 171.29 Z M 186.70 170.19 L 186.66 169.17 C 186.61 168.10 185.70 167.27 184.63 167.32 C 183.56 167.37 182.73 168.28 182.78 169.35 L 182.83 170.37 C 182.87 171.44 183.78 172.27 184.85 172.22 C 185.92 172.17 186.75 171.26 186.70 170.19 Z M 186.65 169.10 L 186.56 168.10 C 186.47 167.03 185.53 166.24 184.47 166.33 C 183.40 166.42 182.61 167.36 182.70 168.43 L 182.79 169.43 C 182.88 170.49 183.82 171.28 184.88 171.19 C 185.95 171.10 186.74 170.16 186.65 169.10 Z M 186.55 168.01 L 186.42 167.03 C 186.28 165.97 185.31 165.23 184.25 165.37 C 183.19 165.51 182.44 166.48 182.58 167.54 L 182.71 168.51 C 182.85 169.58 183.83 170.32 184.89 170.18 C 185.95 170.04 186.69 169.07 186.55 168.01 Z M 186.41 166.93 L 186.23 165.99 C 186.03 164.94 185.02 164.25 183.97 164.45 C 182.92 164.65 182.23 165.66 182.42 166.71 L 182.60 167.65 C 182.80 168.70 183.81 169.39 184.86 169.19 C 185.91 168.99 186.60 167.98 186.41 166.93 Z M 186.20 165.87 L 185.97 164.98 C 185.70 163.94 184.65 163.32 183.61 163.58 C 182.58 163.85 181.96 164.91 182.22 165.94 L 182.45 166.83 C 182.72 167.87 183.77 168.49 184.81 168.22 C 185.84 167.96 186.47 166.90 186.20 165.87 Z M 185.92 164.83 L 185.61 163.93 C 185.27 162.92 184.17 162.39 183.16 162.73 C 182.15 163.08 181.61 164.18 181.96 165.19 L 182.27 166.09 C 182.62 167.09 183.72 167.63 184.72 167.28 C 185.73 166.94 186.27 165.84 185.92 164.83 Z M 185.54 163.76 L 185.12 162.85 C 184.68 161.89 183.55 161.46 182.58 161.90 C 181.61 162.34 181.19 163.48 181.62 164.45 L 182.04 165.35 C 182.48 166.32 183.62 166.75 184.58 166.31 C 185.55 165.87 185.98 164.73 185.54 163.76 Z M 185.02 162.69 L 184.53 161.84 C 184.00 160.93 182.83 160.63 181.92 161.16 C 181.01 161.69 180.70 162.86 181.23 163.77 L 181.72 164.61 C 182.26 165.53 183.43 165.83 184.34 165.30 C 185.25 164.77 185.56 163.60 185.02 162.69 Z M 184.41 161.69 L 183.84 160.91 C 183.22 160.06 182.03 159.88 181.19 160.50 C 180.34 161.12 180.16 162.31 180.78 163.15 L 181.35 163.93 C 181.97 164.78 183.16 164.96 184.01 164.34 C 184.85 163.72 185.03 162.53 184.41 161.69 Z M 183.71 160.77 L 183.07 160.05 C 182.37 159.27 181.17 159.21 180.40 159.91 C 179.62 160.61 179.56 161.80 180.26 162.58 L 180.91 163.30 C 181.61 164.07 182.80 164.13 183.58 163.43 C 184.35 162.73 184.41 161.54 183.71 160.77 Z M 182.93 159.93 L 182.21 159.26 C 181.44 158.56 180.26 158.62 179.55 159.38 C 178.85 160.15 178.91 161.34 179.67 162.04 L 180.40 162.70 C 181.16 163.40 182.35 163.34 183.05 162.58 C 183.75 161.81 183.70 160.63 182.93 159.93 Z M 182.07 159.17 L 181.27 158.56 C 180.45 157.93 179.28 158.09 178.66 158.91 C 178.03 159.73 178.19 160.90 179.01 161.52 L 179.81 162.13 C 180.63 162.76 181.80 162.60 182.42 161.78 C 183.05 160.96 182.89 159.79 182.07 159.17 Z M 181.14 158.48 L 180.27 157.92 C 179.41 157.37 178.26 157.62 177.71 158.48 C 177.15 159.34 177.40 160.49 178.27 161.04 L 179.14 161.60 C 180.00 162.16 181.15 161.91 181.70 161.04 C 182.26 160.18 182.01 159.03 181.14 158.48 Z M 180.15 157.86 L 179.23 157.36 C 178.33 156.87 177.21 157.20 176.73 158.09 C 176.24 158.99 176.57 160.11 177.46 160.60 L 178.39 161.10 C 179.28 161.59 180.40 161.26 180.89 160.36 C 181.38 159.47 181.05 158.35 180.15 157.86 Z M 179.13 157.32 L 178.31 156.94 C 177.40 156.51 176.31 156.90 175.87 157.81 C 175.44 158.72 175.83 159.81 176.75 160.25 L 177.56 160.63 C 178.48 161.06 179.57 160.67 180.00 159.76 C 180.43 158.85 180.04 157.76 179.13 157.32 Z M 178.23 156.92 L 177.37 156.56 C 176.45 156.17 175.39 156.61 175.00 157.53 C 174.61 158.45 175.05 159.51 175.97 159.90 L 176.83 160.26 C 177.75 160.65 178.81 160.22 179.20 159.29 C 179.59 158.37 179.15 157.31 178.23 156.92 Z M 177.31 156.55 L 176.41 156.21 C 175.48 155.86 174.45 156.33 174.10 157.26 C 173.75 158.19 174.21 159.22 175.14 159.57 L 176.04 159.91 C 176.96 160.26 178.00 159.79 178.35 158.86 C 178.70 157.94 178.23 156.90 177.31 156.55 Z M 176.35 156.21 L 175.42 155.89 C 174.50 155.58 173.49 156.07 173.17 157.00 C 172.85 157.92 173.34 158.94 174.27 159.25 L 175.20 159.57 C 176.13 159.89 177.14 159.40 177.46 158.47 C 177.77 157.54 177.28 156.53 176.35 156.21 Z M 175.38 155.90 L 174.42 155.60 C 173.49 155.30 172.51 155.82 172.21 156.74 C 171.92 157.67 172.44 158.66 173.36 158.95 L 174.32 159.25 C 175.25 159.54 176.23 159.03 176.53 158.10 C 176.82 157.18 176.30 156.19 175.38 155.90 Z M 174.38 155.60 L 173.40 155.31 C 172.48 155.04 171.51 155.57 171.24 156.49 C 170.97 157.42 171.50 158.38 172.42 158.66 L 173.40 158.94 C 174.32 159.21 175.29 158.69 175.56 157.76 C 175.83 156.84 175.30 155.87 174.38 155.60 Z M 173.37 155.32 L 172.37 155.05 C 171.46 154.79 170.51 155.33 170.25 156.25 C 170.00 157.17 170.54 158.12 171.45 158.37 L 172.45 158.65 C 173.37 158.90 174.32 158.36 174.57 157.44 C 174.83 156.53 174.29 155.58 173.37 155.32 Z M 172.35 155.06 L 171.34 154.79 C 170.42 154.55 169.49 155.10 169.25 156.01 C 169.01 156.92 169.55 157.85 170.47 158.09 L 171.48 158.36 C 172.39 158.60 173.32 158.05 173.56 157.14 C 173.80 156.23 173.26 155.30 172.35 155.06 Z M 171.32 154.81 L 170.29 154.54 C 169.39 154.31 168.47 154.86 168.24 155.76 C 168.01 156.67 168.56 157.58 169.46 157.82 L 170.48 158.08 C 171.39 158.31 172.30 157.76 172.54 156.86 C 172.77 155.96 172.22 155.04 171.32 154.81 Z M 170.28 154.56 L 169.26 154.30 C 168.36 154.08 167.45 154.62 167.23 155.52 C 167.00 156.41 167.55 157.32 168.44 157.54 L 169.47 157.80 C 170.37 158.02 171.27 157.48 171.50 156.59 C 171.72 155.69 171.18 154.78 170.28 154.56 Z M 169.25 154.31 L 169.07 154.27 C 168.19 154.05 167.28 154.59 167.06 155.48 C 166.84 156.36 167.38 157.27 168.27 157.49 L 168.45 157.53 C 169.34 157.75 170.24 157.21 170.46 156.32 C 170.68 155.44 170.14 154.53 169.25 154.31 Z"
      fill="black"
      fill-rule="nonzero" /></svg>