<svg xmlns="http://www.w3.org/2000/svg" width="300" height="300" viewBox="0 0 300 300">
<path d="M 138.17 111.33 L 137.02 111.17 C 135.98 111.03 135.02 111.76 134.88 112.80 C 134.74 113.85 135.47 114.81 136.51 114.95 L 137.66 115.10 C 138.70 115.24 139.66 114.51 139.80 113.47 C 139.94 112.43 139.21 111.47 138.17 111.33 Z M 137.07 111.16 L 135.95 110.98 C 134.91 110.82 133.92 111.53 133.75 112.58 C 133.59 113.62 134.30 114.61 135.35 114.78 L 136.46 114.95 C 137.51 115.12 138.49 114.41 138.66 113.36 C 138.83 112.32 138.12 111.33 137.07 111.16 Z M 136.06 110.99 L 135.02 110.76 C 133.97 110.53 132.94 111.20 132.71 112.24 C 132.49 113.29 133.15 114.32 134.19 114.54 L 135.24 114.77 C 136.28 115.00 137.31 114.34 137.54 113.29 C 137.77 112.25 137.11 111.22 136.06 110.99 Z M 135.20 110.79 L 134.26 110.49 C 133.23 110.16 132.13 110.73 131.80 111.76 C 131.48 112.78 132.04 113.88 133.07 114.21 L 134.01 114.51 C 135.04 114.84 136.14 114.27 136.47 113.25 C 136.79 112.22 136.23 111.12 135.20 110.79 Z M 134.54 110.59 L 133.74 110.19 C 132.76 109.71 131.58 110.11 131.10 111.08 C 130.62 112.05 131.01 113.23 131.99 113.72 L 132.79 114.12 C 133.76 114.60 134.95 114.20 135.43 113.23 C 135.91 112.25 135.51 111.07 134.54 110.59 Z M 134.13 110.42 L 133.50 109.90 C 132.65 109.21 131.40 109.33 130.71 110.17 C 130.01 111.01 130.13 112.27 130.97 112.96 L 131.60 113.48 C 132.44 114.18 133.69 114.06 134.39 113.22 C 135.09 112.37 134.97 111.12 134.13 110.42 Z M 133.93 110.37 L 133.50 109.69 C 132.91 108.76 131.68 108.48 130.75 109.06 C 129.81 109.65 129.53 110.88 130.12 111.82 L 130.54 112.50 C 131.13 113.43 132.36 113.71 133.30 113.13 C 134.23 112.54 134.51 111.31 133.93 110.37 Z M 133.76 110.30 L 133.56 109.45 C 133.31 108.37 132.23 107.71 131.15 107.96 C 130.07 108.21 129.41 109.29 129.66 110.37 L 129.86 111.21 C 130.11 112.29 131.19 112.96 132.27 112.71 C 133.34 112.45 134.01 111.37 133.76 110.30 Z M 133.61 109.97 L 133.64 109.03 C 133.68 107.93 132.81 107.00 131.70 106.97 C 130.60 106.93 129.67 107.80 129.63 108.91 L 129.61 109.85 C 129.57 110.95 130.44 111.88 131.55 111.91 C 132.65 111.95 133.58 111.08 133.61 109.97 Z M 133.59 109.45 L 133.83 108.48 C 134.10 107.40 133.44 106.31 132.37 106.05 C 131.29 105.78 130.20 106.43 129.93 107.51 L 129.69 108.49 C 129.42 109.56 130.08 110.65 131.16 110.92 C 132.23 111.19 133.32 110.53 133.59 109.45 Z M 133.71 108.83 L 134.15 107.87 C 134.61 106.86 134.17 105.67 133.16 105.21 C 132.15 104.75 130.96 105.19 130.50 106.20 L 130.06 107.16 C 129.59 108.16 130.04 109.36 131.04 109.82 C 132.05 110.28 133.25 109.84 133.71 108.83 Z M 133.97 108.19 L 134.59 107.31 C 135.22 106.40 135.01 105.15 134.10 104.51 C 133.19 103.87 131.94 104.09 131.30 105.00 L 130.68 105.88 C 130.04 106.79 130.26 108.04 131.16 108.68 C 132.07 109.32 133.33 109.10 133.97 108.19 Z M 134.33 107.61 L 135.09 106.88 C 135.89 106.11 135.92 104.84 135.15 104.04 C 134.38 103.24 133.11 103.21 132.31 103.98 L 131.55 104.70 C 130.75 105.47 130.72 106.74 131.49 107.55 C 132.26 108.35 133.53 108.38 134.33 107.61 Z M 134.80 107.11 L 135.50 106.66 C 136.43 106.05 136.68 104.80 136.07 103.87 C 135.46 102.94 134.22 102.68 133.29 103.29 L 132.59 103.75 C 131.67 104.36 131.41 105.61 132.02 106.53 C 132.63 107.46 133.87 107.72 134.80 107.11 Z M 135.24 106.80 L 136.02 106.44 C 137.02 105.97 137.46 104.77 136.99 103.77 C 136.52 102.76 135.33 102.32 134.32 102.79 L 133.54 103.15 C 132.54 103.62 132.10 104.82 132.57 105.82 C 133.04 106.83 134.23 107.27 135.24 106.80 Z M 135.79 106.53 L 136.64 106.25 C 137.70 105.91 138.28 104.77 137.94 103.72 C 137.59 102.66 136.46 102.08 135.40 102.42 L 134.55 102.70 C 133.49 103.04 132.91 104.18 133.25 105.23 C 133.60 106.29 134.73 106.87 135.79 106.53 Z M 136.45 106.30 L 137.38 106.10 C 138.47 105.86 139.16 104.79 138.92 103.70 C 138.68 102.62 137.61 101.93 136.52 102.17 L 135.59 102.37 C 134.51 102.61 133.82 103.68 134.06 104.77 C 134.30 105.85 135.37 106.54 136.45 106.30 Z M 137.23 106.13 L 138.24 105.98 C 139.34 105.83 140.10 104.81 139.95 103.71 C 139.79 102.61 138.78 101.85 137.68 102.00 L 136.67 102.14 C 135.57 102.30 134.81 103.31 134.96 104.41 C 135.12 105.51 136.13 106.28 137.23 106.13 Z M 138.12 106.00 L 139.19 105.91 C 140.30 105.82 141.12 104.85 141.03 103.74 C 140.94 102.63 139.97 101.81 138.86 101.90 L 137.79 101.99 C 136.69 102.08 135.86 103.05 135.95 104.16 C 136.04 105.26 137.02 106.09 138.12 106.00 Z M 139.11 105.91 L 140.25 105.87 C 141.36 105.82 142.22 104.89 142.17 103.78 C 142.13 102.67 141.19 101.81 140.08 101.85 L 138.95 101.90 C 137.84 101.94 136.98 102.88 137.02 103.99 C 137.07 105.10 138.00 105.96 139.11 105.91 Z M 140.19 105.87 L 141.39 105.85 C 142.50 105.84 143.39 104.93 143.37 103.82 C 143.36 102.71 142.45 101.82 141.34 101.83 L 140.14 101.85 C 139.03 101.86 138.14 102.77 138.16 103.88 C 138.17 104.99 139.08 105.88 140.19 105.87 Z M 141.36 105.85 L 142.36 105.85 C 143.47 105.86 144.37 104.96 144.38 103.85 C 144.38 102.75 143.49 101.84 142.38 101.84 L 141.37 101.84 C 140.27 101.83 139.36 102.73 139.36 103.84 C 139.35 104.94 140.25 105.85 141.36 105.85 Z M 142.34 105.85 L 143.33 105.87 C 144.43 105.88 145.35 105.00 145.36 103.89 C 145.38 102.79 144.50 101.88 143.39 101.86 L 142.40 101.84 C 141.30 101.83 140.38 102.71 140.37 103.82 C 140.35 104.92 141.23 105.83 142.34 105.85 Z M 143.30 105.86 L 144.31 105.89 C 145.42 105.92 146.34 105.05 146.37 103.95 C 146.40 102.84 145.53 101.92 144.43 101.89 L 143.42 101.86 C 142.31 101.83 141.39 102.70 141.36 103.81 C 141.33 104.91 142.20 105.83 143.30 105.86 Z M 144.29 105.89 L 145.31 105.93 C 146.42 105.97 147.35 105.11 147.39 104.01 C 147.43 102.91 146.58 101.98 145.47 101.94 L 144.45 101.90 C 143.35 101.85 142.42 102.71 142.38 103.81 C 142.33 104.91 143.19 105.84 144.29 105.89 Z M 145.29 105.92 L 146.32 105.98 C 147.42 106.04 148.36 105.19 148.42 104.09 C 148.47 102.99 147.63 102.05 146.53 102.00 L 145.50 101.94 C 144.40 101.88 143.46 102.73 143.40 103.83 C 143.35 104.93 144.19 105.86 145.29 105.92 Z M 146.29 105.97 L 147.32 106.04 C 148.42 106.11 149.37 105.28 149.44 104.19 C 149.52 103.09 148.69 102.14 147.59 102.07 L 146.56 102.00 C 145.46 101.93 144.51 102.76 144.44 103.85 C 144.37 104.95 145.20 105.90 146.29 105.97 Z M 147.30 106.04 L 148.32 106.12 C 149.41 106.21 150.37 105.39 150.46 104.30 C 150.55 103.20 149.73 102.25 148.64 102.16 L 147.62 102.07 C 146.52 101.99 145.56 102.80 145.48 103.89 C 145.39 104.99 146.20 105.95 147.30 106.04 Z M 148.29 106.11 L 149.30 106.21 C 150.39 106.32 151.36 105.52 151.46 104.43 C 151.57 103.34 150.77 102.37 149.68 102.26 L 148.67 102.16 C 147.58 102.06 146.61 102.86 146.51 103.95 C 146.40 105.04 147.20 106.01 148.29 106.11 Z M 149.26 106.20 L 150.25 106.32 C 151.34 106.44 152.32 105.66 152.44 104.57 C 152.57 103.49 151.79 102.51 150.70 102.38 L 149.71 102.27 C 148.63 102.14 147.65 102.92 147.52 104.01 C 147.40 105.10 148.18 106.08 149.26 106.20 Z M 150.21 106.31 L 151.17 106.44 C 152.25 106.58 153.25 105.82 153.39 104.74 C 153.54 103.66 152.78 102.67 151.70 102.52 L 150.74 102.39 C 149.66 102.24 148.66 103.00 148.52 104.08 C 148.37 105.17 149.13 106.16 150.21 106.31 Z M 151.12 106.43 L 152.06 106.58 C 153.14 106.75 154.15 106.01 154.32 104.94 C 154.49 103.86 153.76 102.85 152.68 102.68 L 151.74 102.53 C 150.67 102.36 149.65 103.09 149.48 104.17 C 149.31 105.25 150.05 106.26 151.12 106.43 Z M 152.01 106.56 L 153.12 106.77 C 154.19 106.97 155.22 106.27 155.42 105.20 C 155.62 104.13 154.92 103.10 153.85 102.90 L 152.74 102.69 C 151.67 102.49 150.64 103.19 150.44 104.26 C 150.23 105.33 150.94 106.36 152.01 106.56 Z M 153.06 106.75 L 154.11 106.99 C 155.17 107.23 156.22 106.56 156.46 105.50 C 156.70 104.45 156.03 103.40 154.97 103.16 L 153.92 102.92 C 152.86 102.68 151.81 103.35 151.57 104.41 C 151.33 105.47 152.00 106.52 153.06 106.75 Z M 154.05 106.97 L 155.05 107.23 C 156.10 107.51 157.17 106.88 157.44 105.83 C 157.72 104.78 157.09 103.71 156.04 103.44 L 155.04 103.18 C 153.99 102.90 152.92 103.53 152.65 104.58 C 152.37 105.63 153.00 106.70 154.05 106.97 Z M 154.99 107.21 L 155.95 107.50 C 156.98 107.80 158.07 107.21 158.38 106.18 C 158.69 105.14 158.10 104.05 157.06 103.75 L 156.10 103.46 C 155.07 103.15 153.98 103.74 153.67 104.78 C 153.36 105.81 153.95 106.90 154.99 107.21 Z M 155.89 107.47 L 156.81 107.78 C 157.83 108.12 158.93 107.57 159.27 106.54 C 159.61 105.52 159.06 104.41 158.04 104.07 L 157.12 103.77 C 156.10 103.43 154.99 103.98 154.65 105.00 C 154.31 106.03 154.86 107.13 155.89 107.47 Z M 156.75 107.76 L 157.64 108.08 C 158.65 108.45 159.77 107.93 160.14 106.92 C 160.51 105.91 159.99 104.79 158.98 104.42 L 158.09 104.10 C 157.08 103.73 155.96 104.25 155.59 105.26 C 155.22 106.27 155.74 107.39 156.75 107.76 Z M 157.59 108.06 L 158.46 108.40 C 159.46 108.80 160.59 108.31 160.98 107.31 C 161.38 106.31 160.89 105.18 159.89 104.79 L 159.03 104.44 C 158.03 104.05 156.90 104.54 156.50 105.53 C 156.11 106.53 156.60 107.66 157.59 108.06 Z M 158.42 108.38 L 159.27 108.74 C 160.26 109.16 161.39 108.69 161.81 107.71 C 162.23 106.72 161.77 105.58 160.78 105.17 L 159.93 104.81 C 158.94 104.39 157.80 104.85 157.39 105.84 C 156.97 106.83 157.43 107.96 158.42 108.38 Z M 159.24 108.72 L 160.10 109.11 C 161.08 109.54 162.22 109.10 162.66 108.12 C 163.09 107.15 162.65 106.00 161.67 105.57 L 160.81 105.18 C 159.83 104.75 158.69 105.19 158.25 106.17 C 157.82 107.14 158.26 108.29 159.24 108.72 Z M 160.07 109.09 L 160.94 109.50 C 161.91 109.95 163.06 109.53 163.51 108.56 C 163.97 107.60 163.55 106.44 162.58 105.99 L 161.71 105.58 C 160.74 105.13 159.59 105.55 159.13 106.52 C 158.68 107.49 159.10 108.64 160.07 109.09 Z M 160.90 109.48 L 161.77 109.91 C 162.73 110.38 163.89 109.99 164.36 109.03 C 164.84 108.08 164.44 106.92 163.49 106.44 L 162.62 106.01 C 161.66 105.54 160.50 105.93 160.03 106.89 C 159.55 107.84 159.95 109.00 160.90 109.48 Z M 161.73 109.88 L 162.59 110.34 C 163.54 110.84 164.71 110.48 165.20 109.53 C 165.70 108.59 165.34 107.42 164.40 106.92 L 163.53 106.47 C 162.59 105.97 161.42 106.33 160.92 107.27 C 160.42 108.22 160.78 109.39 161.73 109.88 Z M 162.55 110.31 L 163.41 110.80 C 164.34 111.32 165.51 111.00 166.04 110.07 C 166.56 109.14 166.24 107.96 165.31 107.44 L 164.44 106.95 C 163.52 106.43 162.34 106.75 161.81 107.68 C 161.29 108.61 161.62 109.79 162.55 110.31 Z M 163.36 110.77 L 164.22 111.29 C 165.13 111.84 166.31 111.55 166.87 110.64 C 167.42 109.73 167.13 108.55 166.22 107.99 L 165.36 107.47 C 164.45 106.92 163.26 107.21 162.71 108.12 C 162.16 109.03 162.45 110.21 163.36 110.77 Z M 164.16 111.25 L 165.02 111.82 C 165.91 112.40 167.11 112.15 167.69 111.26 C 168.27 110.37 168.03 109.17 167.13 108.59 L 166.27 108.03 C 165.38 107.45 164.19 107.69 163.61 108.59 C 163.02 109.48 163.27 110.67 164.16 111.25 Z M 164.97 111.78 L 165.82 112.38 C 166.69 113.00 167.90 112.79 168.51 111.92 C 169.12 111.05 168.92 109.85 168.05 109.24 L 167.19 108.63 C 166.32 108.02 165.12 108.22 164.50 109.09 C 163.89 109.96 164.10 111.16 164.97 111.78 Z M 165.77 112.34 L 166.56 112.94 C 167.41 113.59 168.61 113.42 169.26 112.58 C 169.90 111.73 169.74 110.52 168.89 109.88 L 168.10 109.28 C 167.26 108.63 166.05 108.80 165.40 109.64 C 164.76 110.49 164.92 111.70 165.77 112.34 Z M 166.51 112.90 L 167.23 113.49 C 168.05 114.16 169.26 114.04 169.93 113.22 C 170.61 112.39 170.49 111.18 169.66 110.51 L 168.94 109.92 C 168.12 109.25 166.91 109.37 166.24 110.19 C 165.56 111.02 165.69 112.23 166.51 112.90 Z M 167.18 113.44 L 167.89 114.07 C 168.69 114.77 169.90 114.69 170.60 113.90 C 171.30 113.10 171.22 111.89 170.43 111.19 L 169.72 110.56 C 168.92 109.86 167.71 109.93 167.00 110.73 C 166.30 111.53 166.38 112.74 167.18 113.44 Z M 167.83 114.01 L 168.53 114.68 C 169.30 115.42 170.51 115.39 171.25 114.62 C 171.98 113.86 171.95 112.64 171.18 111.91 L 170.48 111.24 C 169.72 110.51 168.50 110.54 167.77 111.30 C 167.04 112.07 167.07 113.28 167.83 114.01 Z M 168.48 114.62 L 169.16 115.33 C 169.89 116.10 171.10 116.12 171.87 115.39 C 172.63 114.66 172.66 113.45 171.92 112.68 L 171.24 111.97 C 170.51 111.21 169.30 111.18 168.53 111.91 C 167.77 112.65 167.74 113.86 168.48 114.62 Z M 169.10 115.26 L 169.75 116.02 C 170.45 116.82 171.66 116.90 172.45 116.21 C 173.25 115.51 173.34 114.30 172.64 113.51 L 171.98 112.75 C 171.29 111.95 170.08 111.87 169.28 112.56 C 168.49 113.26 168.40 114.47 169.10 115.26 Z M 169.69 115.94 L 170.32 116.75 C 170.97 117.58 172.18 117.72 173.01 117.07 C 173.84 116.42 173.98 115.22 173.33 114.39 L 172.70 113.58 C 172.05 112.75 170.85 112.61 170.02 113.26 C 169.19 113.91 169.04 115.11 169.69 115.94 Z M 170.26 116.66 L 170.86 117.51 C 171.46 118.37 172.65 118.58 173.52 117.98 C 174.38 117.38 174.59 116.19 173.99 115.32 L 173.39 114.47 C 172.79 113.61 171.60 113.40 170.73 114.00 C 169.87 114.61 169.66 115.80 170.26 116.66 Z M 170.80 117.42 L 171.35 118.32 C 171.91 119.21 173.08 119.49 173.98 118.94 C 174.87 118.39 175.15 117.21 174.60 116.32 L 174.04 115.42 C 173.49 114.52 172.32 114.24 171.42 114.79 C 170.52 115.35 170.25 116.52 170.80 117.42 Z M 171.30 118.22 L 171.81 119.17 C 172.31 120.10 173.46 120.44 174.39 119.95 C 175.31 119.45 175.66 118.30 175.17 117.37 L 174.66 116.42 C 174.16 115.49 173.00 115.14 172.08 115.64 C 171.15 116.13 170.80 117.29 171.30 118.22 Z M 171.76 119.07 L 172.16 119.94 C 172.61 120.89 173.74 121.31 174.69 120.86 C 175.64 120.42 176.06 119.29 175.62 118.34 L 175.21 117.47 C 174.77 116.51 173.64 116.10 172.69 116.54 C 171.73 116.98 171.32 118.12 171.76 119.07 Z M 172.13 119.85 L 172.49 120.75 C 172.89 121.72 173.99 122.19 174.97 121.79 C 175.94 121.40 176.41 120.29 176.02 119.32 L 175.65 118.42 C 175.26 117.45 174.15 116.98 173.18 117.38 C 172.20 117.77 171.73 118.88 172.13 119.85 Z M 172.46 120.67 L 172.79 121.59 C 173.14 122.58 174.23 123.10 175.22 122.75 C 176.20 122.40 176.72 121.31 176.37 120.32 L 176.04 119.40 C 175.69 118.41 174.61 117.89 173.62 118.24 C 172.63 118.59 172.11 119.68 172.46 120.67 Z M 172.77 121.52 L 173.06 122.47 C 173.37 123.47 174.43 124.03 175.44 123.72 C 176.44 123.41 177.00 122.35 176.69 121.35 L 176.39 120.40 C 176.08 119.40 175.02 118.83 174.02 119.14 C 173.02 119.45 172.46 120.52 172.77 121.52 Z M 173.04 122.40 L 173.31 123.37 C 173.58 124.39 174.62 124.99 175.63 124.71 C 176.64 124.44 177.24 123.40 176.97 122.39 L 176.71 121.42 C 176.43 120.40 175.39 119.81 174.38 120.08 C 173.37 120.35 172.77 121.39 173.04 122.40 Z M 173.29 123.31 L 173.52 124.30 C 173.76 125.32 174.78 125.95 175.80 125.72 C 176.82 125.48 177.45 124.46 177.21 123.44 L 176.98 122.45 C 176.75 121.43 175.73 120.80 174.71 121.04 C 173.69 121.27 173.05 122.29 173.29 123.31 Z M 173.51 124.24 L 173.71 125.24 C 173.92 126.27 174.91 126.93 175.94 126.73 C 176.97 126.52 177.63 125.52 177.43 124.50 L 177.22 123.50 C 177.02 122.47 176.02 121.81 175.00 122.01 C 173.97 122.22 173.30 123.22 173.51 124.24 Z M 173.70 125.19 L 173.87 126.20 C 174.05 127.23 175.03 127.92 176.06 127.74 C 177.09 127.57 177.78 126.59 177.61 125.56 L 177.43 124.55 C 177.26 123.52 176.28 122.83 175.25 123.00 C 174.22 123.18 173.53 124.16 173.70 125.19 Z M 173.87 126.15 L 174.01 127.15 C 174.16 128.19 175.12 128.91 176.15 128.76 C 177.19 128.61 177.90 127.65 177.76 126.62 L 177.61 125.61 C 177.46 124.58 176.51 123.86 175.47 124.01 C 174.44 124.15 173.72 125.11 173.87 126.15 Z M 174.01 127.11 L 174.12 128.11 C 174.25 129.15 175.18 129.89 176.22 129.77 C 177.26 129.65 178.00 128.71 177.88 127.68 L 177.76 126.67 C 177.64 125.63 176.70 124.89 175.66 125.01 C 174.63 125.13 173.89 126.07 174.01 127.11 Z M 174.12 128.07 L 174.21 129.07 C 174.31 130.11 175.23 130.87 176.27 130.77 C 177.31 130.68 178.07 129.76 177.97 128.72 L 177.88 127.72 C 177.79 126.68 176.87 125.92 175.83 126.01 C 174.79 126.11 174.03 127.03 174.12 128.07 Z M 174.21 129.02 L 174.28 130.10 C 174.36 131.14 175.26 131.92 176.29 131.85 C 177.33 131.78 178.12 130.88 178.05 129.84 L 177.98 128.77 C 177.91 127.73 177.01 126.94 175.97 127.01 C 174.93 127.08 174.14 127.98 174.21 129.02 Z M 174.29 130.05 L 174.33 131.14 C 174.37 132.17 175.25 132.98 176.29 132.94 C 177.33 132.89 178.14 132.02 178.09 130.98 L 178.05 129.89 C 178.00 128.85 177.13 128.04 176.09 128.09 C 175.05 128.13 174.24 129.01 174.29 130.05 Z M 174.33 131.08 L 174.35 132.15 C 174.36 133.19 175.22 134.02 176.26 134.00 C 177.29 133.99 178.12 133.13 178.11 132.10 L 178.09 131.03 C 178.08 129.99 177.22 129.16 176.18 129.18 C 175.15 129.19 174.32 130.05 174.33 131.08 Z M 174.35 132.10 L 174.34 133.14 C 174.32 134.18 175.15 135.03 176.19 135.04 C 177.22 135.06 178.08 134.23 178.09 133.19 L 178.10 132.15 C 178.12 131.11 177.29 130.26 176.25 130.25 C 175.22 130.23 174.37 131.06 174.35 132.10 Z M 174.34 133.09 L 174.30 134.11 C 174.25 135.14 175.06 136.02 176.09 136.06 C 177.12 136.10 178.00 135.30 178.04 134.27 L 178.08 133.25 C 178.13 132.22 177.33 131.34 176.29 131.30 C 175.26 131.25 174.39 132.05 174.34 133.09 Z M 174.31 134.05 L 174.23 135.05 C 174.16 136.08 174.93 136.97 175.96 137.05 C 176.99 137.12 177.88 136.35 177.96 135.32 L 178.03 134.33 C 178.11 133.30 177.34 132.40 176.31 132.33 C 175.28 132.25 174.38 133.02 174.31 134.05 Z M 174.24 134.99 L 174.14 135.95 C 174.03 136.98 174.77 137.90 175.79 138.01 C 176.82 138.12 177.74 137.37 177.85 136.35 L 177.95 135.38 C 178.06 134.36 177.32 133.44 176.29 133.33 C 175.27 133.22 174.35 133.96 174.24 134.99 Z M 174.15 135.89 L 174.02 136.83 C 173.87 137.84 174.58 138.79 175.60 138.93 C 176.61 139.08 177.56 138.37 177.70 137.35 L 177.84 136.41 C 177.98 135.40 177.27 134.45 176.26 134.31 C 175.24 134.16 174.29 134.87 174.15 135.89 Z M 174.03 136.76 L 173.87 137.66 C 173.68 138.67 174.36 139.64 175.37 139.82 C 176.38 140.00 177.34 139.33 177.52 138.32 L 177.69 137.42 C 177.87 136.41 177.20 135.44 176.19 135.26 C 175.18 135.08 174.21 135.75 174.03 136.76 Z M 173.88 137.59 L 173.69 138.46 C 173.47 139.46 174.10 140.45 175.10 140.67 C 176.10 140.90 177.09 140.27 177.31 139.27 L 177.51 138.39 C 177.73 137.39 177.10 136.40 176.10 136.18 C 175.10 135.96 174.11 136.59 173.88 137.59 Z M 173.71 138.38 L 173.46 139.34 C 173.19 140.33 173.77 141.34 174.76 141.61 C 175.75 141.88 176.76 141.29 177.03 140.31 L 177.29 139.35 C 177.56 138.36 176.97 137.34 175.99 137.08 C 175.00 136.81 173.98 137.39 173.71 138.38 Z M 173.49 139.25 L 173.17 140.20 C 172.86 141.17 173.38 142.21 174.36 142.53 C 175.33 142.85 176.37 142.32 176.69 141.35 L 177.00 140.40 C 177.32 139.43 176.79 138.38 175.82 138.06 C 174.85 137.75 173.80 138.28 173.49 139.25 Z M 173.21 140.11 L 172.85 141.02 C 172.49 141.97 172.96 143.04 173.91 143.41 C 174.86 143.78 175.93 143.31 176.30 142.36 L 176.65 141.44 C 177.02 140.49 176.55 139.42 175.60 139.05 C 174.65 138.68 173.58 139.16 173.21 140.11 Z M 172.89 140.94 L 172.50 141.82 C 172.08 142.75 172.49 143.84 173.42 144.26 C 174.35 144.68 175.44 144.26 175.86 143.33 L 176.26 142.45 C 176.68 141.52 176.26 140.42 175.33 140.01 C 174.40 139.59 173.31 140.01 172.89 140.94 Z M 172.54 141.74 L 172.10 142.61 C 171.63 143.52 172.00 144.63 172.90 145.09 C 173.81 145.55 174.92 145.19 175.38 144.28 L 175.82 143.41 C 176.28 142.51 175.92 141.40 175.01 140.94 C 174.11 140.47 173.00 140.84 172.54 141.74 Z M 172.14 142.54 L 171.65 143.39 C 171.15 144.28 171.46 145.40 172.35 145.90 C 173.23 146.40 174.36 146.09 174.86 145.21 L 175.34 144.35 C 175.84 143.47 175.53 142.34 174.64 141.84 C 173.76 141.34 172.64 141.65 172.14 142.54 Z M 171.69 143.33 L 171.16 144.19 C 170.63 145.05 170.90 146.18 171.76 146.72 C 172.63 147.25 173.76 146.98 174.29 146.12 L 174.82 145.27 C 175.35 144.40 175.08 143.27 174.22 142.74 C 173.36 142.20 172.22 142.47 171.69 143.33 Z M 171.20 144.14 L 170.63 145.00 C 170.07 145.84 170.30 146.98 171.14 147.54 C 171.99 148.10 173.13 147.87 173.69 147.03 L 174.26 146.17 C 174.82 145.32 174.59 144.18 173.74 143.62 C 172.90 143.06 171.76 143.29 171.20 144.14 Z M 170.66 144.96 L 170.08 145.79 C 169.49 146.62 169.70 147.76 170.52 148.34 C 171.35 148.92 172.50 148.72 173.08 147.89 L 173.66 147.06 C 174.24 146.23 174.04 145.09 173.21 144.51 C 172.38 143.93 171.24 144.13 170.66 144.96 Z M 170.10 145.76 L 169.52 146.54 C 168.93 147.36 169.10 148.50 169.92 149.10 C 170.73 149.70 171.88 149.52 172.48 148.71 L 173.05 147.92 C 173.65 147.11 173.48 145.96 172.66 145.36 C 171.84 144.76 170.70 144.94 170.10 145.76 Z M 169.55 146.51 L 168.94 147.30 C 168.33 148.10 168.48 149.25 169.28 149.87 C 170.09 150.48 171.24 150.33 171.85 149.53 L 172.46 148.74 C 173.07 147.94 172.92 146.79 172.12 146.17 C 171.31 145.56 170.16 145.71 169.55 146.51 Z M 168.97 147.27 L 168.34 148.06 C 167.70 148.85 167.83 150.00 168.62 150.63 C 169.41 151.26 170.56 151.14 171.19 150.35 L 171.83 149.56 C 172.46 148.77 172.33 147.62 171.54 146.99 C 170.75 146.35 169.60 146.48 168.97 147.27 Z M 168.36 148.03 L 167.71 148.81 C 167.06 149.58 167.16 150.73 167.93 151.38 C 168.70 152.04 169.86 151.94 170.51 151.16 L 171.17 150.38 C 171.82 149.61 171.72 148.45 170.94 147.80 C 170.17 147.15 169.01 147.25 168.36 148.03 Z M 167.74 148.77 L 167.06 149.54 C 166.39 150.29 166.46 151.45 167.22 152.12 C 167.97 152.79 169.13 152.72 169.80 151.96 L 170.48 151.20 C 171.15 150.44 171.08 149.28 170.32 148.61 C 169.56 147.95 168.41 148.02 167.74 148.77 Z M 167.10 149.50 L 166.40 150.24 C 165.71 150.98 165.75 152.14 166.49 152.83 C 167.22 153.52 168.38 153.48 169.07 152.74 L 169.77 152.00 C 170.46 151.26 170.42 150.11 169.68 149.42 C 168.94 148.73 167.79 148.76 167.10 149.50 Z M 166.44 150.20 L 165.73 150.92 C 165.02 151.63 165.02 152.79 165.73 153.50 C 166.45 154.22 167.61 154.21 168.32 153.50 L 169.03 152.78 C 169.74 152.07 169.74 150.91 169.02 150.20 C 168.31 149.49 167.15 149.49 166.44 150.20 Z M 165.77 150.88 L 165.05 151.56 C 164.31 152.25 164.28 153.40 164.97 154.14 C 165.66 154.87 166.81 154.91 167.55 154.22 L 168.27 153.54 C 169.01 152.85 169.04 151.70 168.35 150.96 C 167.66 150.22 166.51 150.19 165.77 150.88 Z M 165.10 151.51 L 164.36 152.15 C 163.60 152.81 163.52 153.96 164.18 154.72 C 164.84 155.49 165.99 155.57 166.76 154.91 L 167.49 154.27 C 168.26 153.61 168.34 152.45 167.68 151.69 C 167.02 150.93 165.86 150.85 165.10 151.51 Z M 164.43 152.10 L 163.59 152.76 C 162.80 153.38 162.67 154.53 163.29 155.32 C 163.92 156.11 165.06 156.25 165.86 155.62 L 166.69 154.96 C 167.48 154.34 167.62 153.19 166.99 152.40 C 166.37 151.61 165.22 151.47 164.43 152.10 Z M 163.67 152.70 L 162.82 153.31 C 162.00 153.89 161.81 155.03 162.39 155.85 C 162.98 156.67 164.12 156.86 164.94 156.28 L 165.78 155.67 C 166.60 155.09 166.79 153.95 166.21 153.13 C 165.62 152.31 164.49 152.12 163.67 152.70 Z M 162.89 153.26 L 162.04 153.81 C 161.19 154.35 160.95 155.48 161.49 156.33 C 162.04 157.17 163.16 157.42 164.01 156.87 L 164.86 156.32 C 165.71 155.78 165.96 154.65 165.41 153.81 C 164.87 152.96 163.74 152.72 162.89 153.26 Z M 162.11 153.77 L 161.25 154.27 C 160.38 154.77 160.08 155.88 160.59 156.75 C 161.09 157.62 162.20 157.92 163.07 157.42 L 163.94 156.92 C 164.81 156.41 165.10 155.30 164.60 154.43 C 164.10 153.56 162.98 153.26 162.11 153.77 Z M 161.32 154.23 L 160.45 154.68 C 159.56 155.15 159.21 156.24 159.67 157.13 C 160.14 158.03 161.24 158.37 162.13 157.91 L 163.00 157.45 C 163.89 156.99 164.24 155.89 163.77 155.00 C 163.31 154.11 162.21 153.76 161.32 154.23 Z M 160.52 154.65 L 159.63 155.06 C 158.73 155.49 158.33 156.57 158.76 157.48 C 159.18 158.39 160.26 158.78 161.17 158.35 L 162.06 157.94 C 162.97 157.52 163.36 156.43 162.93 155.53 C 162.51 154.62 161.43 154.22 160.52 154.65 Z M 159.70 155.03 L 158.81 155.41 C 157.88 155.80 157.45 156.86 157.84 157.79 C 158.23 158.71 159.29 159.15 160.22 158.76 L 161.11 158.38 C 162.03 157.99 162.47 156.93 162.08 156.00 C 161.69 155.08 160.62 154.65 159.70 155.03 Z M 158.87 155.39 L 157.97 155.73 C 157.03 156.08 156.56 157.13 156.91 158.07 C 157.27 159.00 158.32 159.48 159.25 159.12 L 160.15 158.78 C 161.09 158.43 161.56 157.38 161.21 156.44 C 160.85 155.50 159.81 155.03 158.87 155.39 Z M 158.02 155.71 L 157.08 156.03 C 156.14 156.35 155.63 157.38 155.95 158.33 C 156.28 159.28 157.31 159.79 158.26 159.46 L 159.20 159.14 C 160.14 158.82 160.65 157.79 160.33 156.84 C 160.00 155.89 158.97 155.39 158.02 155.71 Z M 157.14 156.01 L 156.18 156.30 C 155.22 156.59 154.68 157.61 154.97 158.56 C 155.26 159.52 156.28 160.06 157.23 159.77 L 158.20 159.48 C 159.15 159.19 159.70 158.18 159.40 157.22 C 159.11 156.26 158.10 155.72 157.14 156.01 Z M 156.25 156.29 L 155.27 156.54 C 154.31 156.80 153.73 157.79 153.98 158.76 C 154.24 159.72 155.23 160.30 156.20 160.05 L 157.17 159.79 C 158.14 159.53 158.71 158.54 158.46 157.58 C 158.20 156.61 157.21 156.03 156.25 156.29 Z M 155.35 156.53 L 154.37 156.74 C 153.39 156.96 152.77 157.92 152.99 158.90 C 153.21 159.88 154.17 160.49 155.15 160.28 L 156.13 160.06 C 157.10 159.85 157.72 158.88 157.50 157.90 C 157.29 156.93 156.32 156.31 155.35 156.53 Z M 154.44 156.73 L 153.46 156.90 C 152.48 157.07 151.82 158.01 151.99 159.00 C 152.16 159.98 153.10 160.64 154.09 160.47 L 155.07 160.29 C 156.06 160.12 156.71 159.18 156.54 158.20 C 156.37 157.21 155.43 156.55 154.44 156.73 Z M 153.54 156.89 L 152.56 157.02 C 151.56 157.14 150.86 158.05 150.99 159.04 C 151.12 160.03 152.03 160.73 153.02 160.60 L 154.00 160.48 C 155.00 160.35 155.70 159.44 155.57 158.45 C 155.44 157.46 154.53 156.76 153.54 156.89 Z M 152.64 157.01 L 151.65 157.09 C 150.66 157.16 149.91 158.03 149.99 159.03 C 150.07 160.02 150.94 160.77 151.94 160.69 L 152.93 160.61 C 153.92 160.54 154.67 159.66 154.59 158.67 C 154.51 157.67 153.64 156.93 152.64 157.01 Z M 151.75 157.08 L 150.76 157.11 C 149.76 157.13 148.97 157.96 148.99 158.96 C 149.02 159.96 149.85 160.74 150.85 160.72 L 151.84 160.69 C 152.84 160.67 153.63 159.84 153.60 158.84 C 153.58 157.84 152.75 157.06 151.75 157.08 Z M 150.87 157.11 L 149.74 157.07 C 148.74 157.03 147.91 157.81 147.87 158.81 C 147.84 159.81 148.62 160.65 149.61 160.68 L 150.74 160.72 C 151.74 160.76 152.57 159.97 152.61 158.98 C 152.64 157.98 151.86 157.14 150.87 157.11 Z M 149.87 157.07 L 148.71 156.95 C 147.72 156.84 146.82 157.56 146.72 158.56 C 146.61 159.55 147.33 160.44 148.33 160.55 L 149.48 160.68 C 150.48 160.78 151.37 160.06 151.48 159.07 C 151.59 158.07 150.87 157.18 149.87 157.07 Z M 148.87 156.97 L 147.77 156.75 C 146.79 156.56 145.83 157.20 145.64 158.19 C 145.45 159.17 146.09 160.13 147.08 160.32 L 148.17 160.53 C 149.15 160.72 150.11 160.08 150.30 159.10 C 150.49 158.11 149.85 157.16 148.87 156.97 Z M 147.97 156.80 L 146.98 156.49 C 146.02 156.19 145.00 156.73 144.70 157.69 C 144.40 158.65 144.94 159.67 145.90 159.97 L 146.88 160.27 C 147.84 160.57 148.87 160.04 149.16 159.08 C 149.46 158.12 148.93 157.10 147.97 156.80 Z M 147.23 156.59 L 146.40 156.18 C 145.49 155.74 144.40 156.12 143.96 157.03 C 143.52 157.94 143.90 159.03 144.81 159.47 L 145.65 159.87 C 146.55 160.31 147.65 159.93 148.08 159.02 C 148.52 158.12 148.14 157.02 147.23 156.59 Z M 146.73 156.38 L 146.08 155.87 C 145.28 155.25 144.13 155.39 143.51 156.19 C 142.89 156.99 143.03 158.14 143.83 158.76 L 144.48 159.27 C 145.27 159.89 146.42 159.75 147.05 158.95 C 147.67 158.15 147.52 157.00 146.73 156.38 Z M 146.46 156.28 L 146.04 155.66 C 145.46 154.83 144.32 154.62 143.49 155.19 C 142.65 155.77 142.44 156.91 143.02 157.74 L 143.44 158.36 C 144.02 159.19 145.16 159.40 145.99 158.83 C 146.83 158.25 147.04 157.11 146.46 156.28 Z M 146.32 156.33 L 146.15 155.50 C 145.95 154.51 144.98 153.87 143.99 154.08 C 142.99 154.28 142.36 155.25 142.56 156.25 L 142.73 157.07 C 142.94 158.07 143.91 158.70 144.90 158.50 C 145.89 158.29 146.53 157.32 146.32 156.33 Z M 146.16 156.16 L 146.30 155.26 C 146.46 154.27 145.78 153.33 144.78 153.17 C 143.79 153.02 142.85 153.70 142.69 154.69 L 142.55 155.59 C 142.39 156.59 143.08 157.52 144.07 157.68 C 145.07 157.84 146.01 157.16 146.16 156.16 Z M 146.15 155.75 L 146.56 154.85 C 146.99 153.94 146.59 152.86 145.68 152.43 C 144.77 152.01 143.68 152.41 143.26 153.32 L 142.85 154.21 C 142.42 155.12 142.82 156.21 143.73 156.63 C 144.64 157.05 145.73 156.66 146.15 155.75 Z M 146.33 155.22 L 146.98 154.40 C 147.61 153.62 147.48 152.48 146.70 151.85 C 145.91 151.23 144.77 151.36 144.14 152.14 L 143.50 152.95 C 142.87 153.74 143.00 154.88 143.78 155.50 C 144.56 156.13 145.71 156.00 146.33 155.22 Z M 146.67 154.70 L 147.52 154.04 C 148.31 153.43 148.45 152.29 147.84 151.50 C 147.22 150.71 146.09 150.57 145.30 151.19 L 144.45 151.84 C 143.66 152.46 143.52 153.59 144.14 154.38 C 144.75 155.17 145.88 155.31 146.67 154.70 Z M 147.13 154.27 L 148.08 153.85 C 149.00 153.46 149.42 152.39 149.02 151.48 C 148.62 150.57 147.56 150.15 146.65 150.54 L 145.69 150.96 C 144.78 151.36 144.36 152.42 144.76 153.33 C 145.15 154.24 146.21 154.66 147.13 154.27 Z M 147.68 153.97 L 148.51 153.82 C 149.49 153.64 150.14 152.71 149.96 151.73 C 149.79 150.75 148.85 150.10 147.87 150.28 L 147.05 150.43 C 146.07 150.60 145.42 151.54 145.60 152.52 C 145.77 153.49 146.71 154.14 147.68 153.97 Z M 148.20 153.85 L 149.08 153.84 C 150.07 153.84 150.87 153.03 150.87 152.04 C 150.87 151.05 150.06 150.25 149.07 150.25 L 148.18 150.25 C 147.19 150.26 146.39 151.07 146.40 152.06 C 146.40 153.05 147.21 153.85 148.20 153.85 Z M 148.83 153.82 L 149.76 153.95 C 150.74 154.08 151.65 153.40 151.78 152.42 C 151.91 151.43 151.23 150.53 150.25 150.40 L 149.32 150.27 C 148.34 150.14 147.43 150.82 147.30 151.80 C 147.16 152.79 147.85 153.69 148.83 153.82 Z M 149.57 153.91 L 150.53 154.15 C 151.49 154.39 152.46 153.81 152.70 152.85 C 152.94 151.89 152.36 150.92 151.40 150.68 L 150.44 150.44 C 149.48 150.20 148.51 150.78 148.27 151.74 C 148.02 152.70 148.61 153.67 149.57 153.91 Z M 150.38 154.10 L 151.37 154.45 C 152.30 154.77 153.32 154.28 153.64 153.35 C 153.97 152.41 153.47 151.40 152.54 151.07 L 151.55 150.73 C 150.62 150.40 149.60 150.89 149.28 151.83 C 148.95 152.76 149.45 153.78 150.38 154.10 Z M 151.25 154.40 L 152.25 154.83 C 153.15 155.22 154.21 154.80 154.60 153.90 C 154.99 152.99 154.57 151.94 153.66 151.55 L 152.66 151.12 C 151.75 150.73 150.70 151.15 150.31 152.05 C 149.92 152.96 150.34 154.01 151.25 154.40 Z M 152.16 154.78 L 153.16 155.29 C 154.04 155.73 155.11 155.37 155.55 154.49 C 155.99 153.61 155.64 152.54 154.76 152.10 L 153.75 151.60 C 152.87 151.15 151.80 151.51 151.36 152.39 C 150.92 153.27 151.28 154.34 152.16 154.78 Z M 153.08 155.24 L 154.04 155.78 C 154.89 156.27 155.98 155.96 156.46 155.11 C 156.95 154.25 156.64 153.16 155.79 152.68 L 154.83 152.14 C 153.98 151.66 152.89 151.96 152.41 152.82 C 151.92 153.68 152.23 154.76 153.08 155.24 Z M 153.98 155.74 L 154.84 156.28 C 155.68 156.79 156.77 156.53 157.29 155.70 C 157.80 154.86 157.54 153.76 156.71 153.25 L 155.85 152.72 C 155.01 152.20 153.91 152.46 153.40 153.30 C 152.88 154.13 153.14 155.23 153.98 155.74 Z M 154.79 156.24 L 155.64 156.80 C 156.45 157.35 157.55 157.13 158.10 156.31 C 158.64 155.49 158.42 154.39 157.60 153.85 L 156.76 153.28 C 155.94 152.74 154.84 152.96 154.30 153.78 C 153.75 154.59 153.97 155.70 154.79 156.24 Z M 155.59 156.77 L 156.42 157.36 C 157.21 157.93 158.32 157.74 158.89 156.95 C 159.46 156.15 159.27 155.04 158.48 154.47 L 157.65 153.88 C 156.85 153.31 155.75 153.50 155.18 154.30 C 154.61 155.09 154.79 156.20 155.59 156.77 Z M 156.38 157.33 L 157.18 157.94 C 157.96 158.53 159.07 158.38 159.66 157.60 C 160.26 156.83 160.11 155.71 159.33 155.12 L 158.52 154.51 C 157.74 153.92 156.63 154.07 156.04 154.85 C 155.45 155.62 155.60 156.73 156.38 157.33 Z M 157.14 157.91 L 157.93 158.54 C 158.69 159.15 159.80 159.04 160.42 158.28 C 161.03 157.52 160.91 156.40 160.15 155.79 L 159.37 155.16 C 158.61 154.54 157.49 154.66 156.88 155.42 C 156.27 156.18 156.38 157.29 157.14 157.91 Z M 157.89 158.51 L 158.65 159.16 C 159.40 159.79 160.51 159.70 161.14 158.96 C 161.78 158.22 161.69 157.10 160.95 156.47 L 160.19 155.82 C 159.44 155.19 158.33 155.28 157.70 156.02 C 157.06 156.76 157.15 157.87 157.89 158.51 Z M 158.62 159.12 L 159.35 159.78 C 160.08 160.44 161.19 160.38 161.84 159.65 C 162.49 158.93 162.44 157.82 161.71 157.16 L 160.98 156.50 C 160.26 155.85 159.14 155.91 158.49 156.63 C 157.84 157.36 157.90 158.47 158.62 159.12 Z M 159.32 159.75 L 160.02 160.42 C 160.73 161.09 161.84 161.06 162.51 160.35 C 163.18 159.65 163.15 158.53 162.45 157.86 L 161.74 157.20 C 161.04 156.53 159.92 156.56 159.25 157.26 C 158.59 157.97 158.62 159.08 159.32 159.75 Z M 159.99 160.38 L 160.69 161.08 C 161.38 161.77 162.49 161.77 163.18 161.08 C 163.87 160.39 163.86 159.28 163.18 158.59 L 162.48 157.90 C 161.79 157.21 160.68 157.21 159.99 157.90 C 159.30 158.59 159.31 159.70 159.99 160.38 Z M 160.66 161.05 L 161.36 161.79 C 162.03 162.49 163.14 162.52 163.85 161.85 C 164.55 161.19 164.58 160.07 163.91 159.37 L 163.21 158.63 C 162.54 157.93 161.43 157.90 160.73 158.56 C 160.02 159.23 159.99 160.34 160.66 161.05 Z M 161.33 161.75 L 161.99 162.49 C 162.64 163.22 163.75 163.28 164.47 162.64 C 165.20 161.99 165.26 160.88 164.61 160.15 L 163.95 159.41 C 163.30 158.68 162.19 158.62 161.47 159.27 C 160.74 159.91 160.68 161.02 161.33 161.75 Z M 161.96 162.45 L 162.59 163.21 C 163.22 163.95 164.32 164.05 165.07 163.43 C 165.81 162.80 165.91 161.70 165.28 160.95 L 164.65 160.20 C 164.03 159.45 162.92 159.36 162.17 159.98 C 161.43 160.60 161.33 161.71 161.96 162.45 Z M 162.56 163.17 L 163.17 163.94 C 163.76 164.70 164.87 164.83 165.63 164.23 C 166.39 163.63 166.52 162.53 165.93 161.77 L 165.32 161.00 C 164.72 160.23 163.61 160.10 162.85 160.70 C 162.09 161.30 161.96 162.40 162.56 163.17 Z M 163.13 163.89 L 163.72 164.69 C 164.29 165.47 165.39 165.63 166.17 165.06 C 166.95 164.48 167.12 163.38 166.54 162.60 L 165.96 161.81 C 165.38 161.03 164.28 160.87 163.50 161.44 C 162.72 162.02 162.56 163.11 163.13 163.89 Z M 163.68 164.64 L 164.25 165.46 C 164.80 166.26 165.89 166.46 166.69 165.90 C 167.49 165.35 167.69 164.26 167.14 163.46 L 166.57 162.65 C 166.02 161.85 164.93 161.65 164.13 162.20 C 163.33 162.75 163.13 163.84 163.68 164.64 Z M 164.22 165.41 L 164.77 166.26 C 165.29 167.07 166.38 167.30 167.19 166.78 C 168.01 166.25 168.24 165.16 167.71 164.35 L 167.16 163.51 C 166.64 162.69 165.55 162.46 164.74 162.99 C 163.92 163.52 163.69 164.60 164.22 165.41 Z M 164.74 166.22 L 165.25 167.05 C 165.76 167.88 166.84 168.14 167.66 167.64 C 168.49 167.13 168.75 166.05 168.25 165.23 L 167.74 164.39 C 167.23 163.56 166.15 163.30 165.32 163.81 C 164.50 164.31 164.24 165.39 164.74 166.22 Z M 165.23 167.02 L 165.69 167.81 C 166.17 168.65 167.25 168.94 168.09 168.46 C 168.92 167.97 169.21 166.90 168.73 166.06 L 168.27 165.26 C 167.78 164.42 166.71 164.14 165.87 164.62 C 165.03 165.11 164.75 166.18 165.23 167.02 Z M 165.67 167.78 L 166.12 168.60 C 166.59 169.45 167.65 169.76 168.50 169.30 C 169.35 168.83 169.66 167.77 169.20 166.92 L 168.75 166.09 C 168.28 165.24 167.21 164.93 166.37 165.40 C 165.52 165.86 165.20 166.93 165.67 167.78 Z M 166.10 168.57 L 166.55 169.42 C 166.99 170.28 168.05 170.62 168.91 170.17 C 169.77 169.72 170.11 168.66 169.66 167.80 L 169.22 166.95 C 168.77 166.09 167.71 165.76 166.85 166.20 C 165.99 166.65 165.66 167.71 166.10 168.57 Z M 166.53 169.39 L 166.96 170.27 C 167.39 171.14 168.44 171.50 169.31 171.07 C 170.18 170.64 170.54 169.59 170.11 168.72 L 169.68 167.84 C 169.25 166.97 168.20 166.61 167.33 167.04 C 166.46 167.46 166.10 168.52 166.53 169.39 Z M 166.94 170.23 L 167.37 171.14 C 167.78 172.02 168.82 172.40 169.70 171.99 C 170.58 171.58 170.96 170.54 170.55 169.66 L 170.13 168.75 C 169.72 167.87 168.67 167.49 167.79 167.90 C 166.92 168.31 166.53 169.35 166.94 170.23 Z M 167.35 171.11 L 167.77 172.05 C 168.16 172.94 169.19 173.34 170.08 172.95 C 170.97 172.56 171.37 171.52 170.98 170.63 L 170.57 169.69 C 170.18 168.81 169.14 168.40 168.25 168.79 C 167.36 169.19 166.96 170.22 167.35 171.11 Z M 167.75 172.02 L 168.15 172.99 C 168.53 173.88 169.56 174.31 170.45 173.93 C 171.35 173.56 171.77 172.53 171.40 171.64 L 171.00 170.67 C 170.62 169.77 169.59 169.35 168.70 169.72 C 167.80 170.09 167.38 171.12 167.75 172.02 Z M 168.14 172.95 L 168.53 173.95 C 168.89 174.86 169.91 175.30 170.81 174.95 C 171.71 174.59 172.16 173.57 171.80 172.67 L 171.41 171.67 C 171.06 170.77 170.04 170.32 169.13 170.67 C 168.23 171.03 167.79 172.05 168.14 172.95 Z M 168.52 173.92 L 168.89 174.92 C 169.23 175.83 170.24 176.30 171.15 175.96 C 172.06 175.62 172.52 174.61 172.19 173.70 L 171.82 172.70 C 171.48 171.79 170.47 171.32 169.56 171.66 C 168.65 172.00 168.18 173.01 168.52 173.92 Z M 168.88 174.89 L 169.18 175.76 C 169.50 176.68 170.51 177.16 171.42 176.84 C 172.34 176.52 172.82 175.51 172.50 174.60 L 172.20 173.73 C 171.88 172.81 170.87 172.33 169.96 172.65 C 169.04 172.97 168.56 173.98 168.88 174.89 Z M 169.17 175.73 L 169.47 176.62 C 169.77 177.54 170.77 178.04 171.69 177.74 C 172.62 177.43 173.12 176.43 172.81 175.51 L 172.51 174.62 C 172.21 173.70 171.21 173.20 170.29 173.51 C 169.36 173.81 168.87 174.81 169.17 175.73 Z M 169.46 176.60 L 169.74 177.50 C 170.04 178.43 171.03 178.95 171.95 178.65 C 172.88 178.36 173.40 177.37 173.10 176.44 L 172.82 175.54 C 172.53 174.61 171.54 174.09 170.61 174.38 C 169.68 174.68 169.16 175.67 169.46 176.60 Z M 169.73 177.48 L 170.01 178.41 C 170.29 179.34 171.27 179.87 172.21 179.59 C 173.14 179.31 173.67 178.33 173.39 177.40 L 173.11 176.47 C 172.84 175.54 171.85 175.00 170.92 175.28 C 169.99 175.56 169.46 176.54 169.73 177.48 Z M 170.00 178.38 L 170.27 179.33 C 170.53 180.27 171.51 180.81 172.45 180.55 C 173.39 180.28 173.93 179.31 173.67 178.37 L 173.40 177.42 C 173.14 176.48 172.16 175.94 171.22 176.20 C 170.28 176.47 169.74 177.44 170.00 178.38 Z M 170.26 179.30 L 170.52 180.27 C 170.77 181.21 171.74 181.77 172.68 181.52 C 173.62 181.27 174.18 180.31 173.93 179.36 L 173.68 178.40 C 173.43 177.45 172.46 176.89 171.51 177.14 C 170.57 177.39 170.01 178.36 170.26 179.30 Z M 170.51 180.24 L 170.76 181.23 C 170.99 182.18 171.95 182.75 172.90 182.52 C 173.85 182.28 174.42 181.32 174.19 180.38 L 173.94 179.39 C 173.70 178.44 172.74 177.86 171.80 178.10 C 170.85 178.34 170.27 179.30 170.51 180.24 Z M 170.75 181.21 L 170.98 182.21 C 171.21 183.16 172.16 183.75 173.11 183.53 C 174.06 183.31 174.65 182.36 174.43 181.41 L 174.19 180.40 C 173.97 179.45 173.02 178.86 172.07 179.08 C 171.12 179.30 170.53 180.25 170.75 181.21 Z M 170.98 182.19 L 171.20 183.21 C 171.41 184.17 172.35 184.77 173.31 184.57 C 174.26 184.36 174.87 183.41 174.66 182.46 L 174.44 181.43 C 174.23 180.48 173.29 179.87 172.33 180.08 C 171.37 180.29 170.77 181.23 170.98 182.19 Z M 171.19 183.19 L 171.40 184.23 C 171.60 185.19 172.53 185.81 173.49 185.62 C 174.45 185.42 175.07 184.49 174.88 183.53 L 174.67 182.48 C 174.47 181.52 173.54 180.90 172.58 181.10 C 171.62 181.29 171.00 182.23 171.19 183.19 Z M 171.40 184.21 L 171.60 185.27 C 171.78 186.23 172.70 186.87 173.67 186.69 C 174.63 186.51 175.26 185.58 175.08 184.62 L 174.88 183.55 C 174.70 182.59 173.78 181.96 172.82 182.14 C 171.85 182.32 171.22 183.24 171.40 184.21 Z M 171.59 185.24 L 171.75 186.14 C 171.91 187.11 172.83 187.76 173.80 187.59 C 174.76 187.42 175.41 186.50 175.24 185.54 L 175.09 184.64 C 174.92 183.67 174.00 183.03 173.04 183.19 C 172.07 183.36 171.42 184.28 171.59 185.24 Z M 171.74 186.12 L 171.88 187.01 C 172.04 187.98 172.95 188.64 173.92 188.49 C 174.89 188.33 175.55 187.42 175.39 186.45 L 175.25 185.56 C 175.09 184.59 174.18 183.93 173.21 184.08 C 172.24 184.24 171.58 185.15 171.74 186.12 Z M 171.88 186.99 L 172.01 187.90 C 172.16 188.87 173.06 189.54 174.04 189.40 C 175.01 189.25 175.68 188.35 175.53 187.38 L 175.40 186.47 C 175.25 185.50 174.35 184.83 173.38 184.97 C 172.41 185.12 171.73 186.02 171.88 186.99 Z M 172.01 187.88 L 172.14 188.80 C 172.27 189.78 173.17 190.46 174.14 190.33 C 175.12 190.19 175.80 189.29 175.67 188.32 L 175.54 187.40 C 175.40 186.42 174.51 185.74 173.53 185.87 C 172.56 186.01 171.88 186.91 172.01 187.88 Z M 172.13 188.78 L 172.25 189.72 C 172.37 190.70 173.27 191.39 174.24 191.27 C 175.22 191.15 175.91 190.25 175.79 189.28 L 175.67 188.34 C 175.55 187.36 174.65 186.67 173.68 186.79 C 172.70 186.92 172.01 187.81 172.13 188.78 Z M 172.25 189.71 L 172.36 190.66 C 172.47 191.64 173.36 192.34 174.34 192.23 C 175.31 192.12 176.02 191.23 175.90 190.25 L 175.79 189.30 C 175.68 188.32 174.79 187.61 173.81 187.73 C 172.84 187.84 172.13 188.73 172.25 189.71 Z M 172.35 190.64 L 172.46 191.62 C 172.56 192.60 173.44 193.31 174.42 193.21 C 175.40 193.11 176.11 192.23 176.01 191.25 L 175.91 190.27 C 175.80 189.29 174.92 188.58 173.94 188.68 C 172.96 188.78 172.25 189.66 172.35 190.64 Z M 172.45 191.60 L 172.55 192.60 C 172.64 193.58 173.51 194.30 174.50 194.21 C 175.48 194.12 176.20 193.24 176.11 192.26 L 176.01 191.26 C 175.92 190.28 175.05 189.56 174.06 189.65 C 173.08 189.75 172.36 190.62 172.45 191.60 Z M 172.54 192.58 L 172.63 193.60 C 172.72 194.58 173.58 195.31 174.57 195.23 C 175.55 195.14 176.28 194.28 176.20 193.29 L 176.11 192.28 C 176.03 191.29 175.16 190.56 174.18 190.64 C 173.19 190.73 172.46 191.60 172.54 192.58 Z M 172.63 193.58 L 172.71 194.62 C 172.78 195.61 173.64 196.35 174.63 196.27 C 175.62 196.20 176.36 195.33 176.28 194.35 L 176.20 193.31 C 176.13 192.32 175.27 191.58 174.28 191.66 C 173.29 191.73 172.55 192.60 172.63 193.58 Z M 172.70 194.61 L 172.78 195.67 C 172.84 196.66 173.70 197.40 174.69 197.34 C 175.68 197.27 176.42 196.41 176.36 195.42 L 176.29 194.36 C 176.22 193.37 175.36 192.63 174.37 192.69 C 173.38 192.76 172.64 193.62 172.70 194.61 Z M 172.77 195.65 L 172.84 196.74 C 172.90 197.73 173.75 198.49 174.74 198.43 C 175.73 198.37 176.48 197.52 176.43 196.53 L 176.36 195.44 C 176.30 194.45 175.45 193.69 174.46 193.75 C 173.47 193.81 172.71 194.66 172.77 195.65 Z M 172.84 196.73 L 172.89 197.84 C 172.95 198.83 173.79 199.59 174.78 199.54 C 175.77 199.49 176.54 198.64 176.49 197.65 L 176.43 196.54 C 176.38 195.55 175.53 194.79 174.54 194.84 C 173.55 194.89 172.78 195.73 172.84 196.73 Z M 172.89 197.83 L 172.94 198.95 C 172.99 199.94 173.83 200.71 174.82 200.66 C 175.81 200.62 176.58 199.78 176.54 198.79 L 176.49 197.67 C 176.44 196.67 175.60 195.90 174.61 195.95 C 173.62 195.99 172.85 196.83 172.89 197.83 Z M 172.94 198.93 L 172.98 199.91 C 173.01 200.91 173.85 201.68 174.85 201.64 C 175.84 201.61 176.62 200.77 176.58 199.77 L 176.54 198.80 C 176.50 197.80 175.67 197.03 174.67 197.06 C 173.68 197.10 172.90 197.94 172.94 198.93 Z M 172.97 199.90 L 173.00 200.89 C 173.04 201.89 173.87 202.67 174.87 202.64 C 175.86 202.61 176.65 201.77 176.61 200.78 L 176.58 199.78 C 176.55 198.79 175.72 198.01 174.72 198.04 C 173.72 198.07 172.94 198.90 172.97 199.90 Z M 173.00 200.88 L 173.03 201.89 C 173.05 202.89 173.88 203.68 174.88 203.65 C 175.88 203.62 176.67 202.79 176.64 201.79 L 176.62 200.79 C 176.59 199.79 175.76 199.00 174.76 199.03 C 173.76 199.05 172.97 199.88 173.00 200.88 Z M 173.02 201.88 L 173.04 202.89 C 173.06 203.89 173.89 204.69 174.89 204.67 C 175.89 204.65 176.68 203.82 176.67 202.82 L 176.65 201.81 C 176.63 200.81 175.80 200.01 174.80 200.03 C 173.80 200.05 173.00 200.88 173.02 201.88 Z M 173.04 202.88 L 173.05 203.91 C 173.07 204.91 173.89 205.71 174.89 205.70 C 175.89 205.69 176.69 204.86 176.68 203.86 L 176.67 202.84 C 176.66 201.83 175.83 201.03 174.83 201.04 C 173.83 201.06 173.03 201.88 173.04 202.88 Z M 173.05 203.89 L 173.06 204.92 C 173.06 205.93 173.88 206.74 174.88 206.73 C 175.89 206.73 176.70 205.91 176.69 204.90 L 176.68 203.87 C 176.68 202.87 175.86 202.06 174.86 202.07 C 173.85 202.07 173.04 202.89 173.05 203.89 Z M 173.05 204.91 L 173.05 205.94 C 173.05 206.95 173.86 207.77 174.87 207.77 C 175.87 207.77 176.69 206.96 176.69 205.95 L 176.69 204.92 C 176.70 203.91 175.88 203.10 174.88 203.09 C 173.87 203.09 173.05 203.91 173.05 204.91 Z M 173.05 205.93 L 173.04 206.96 C 173.03 207.97 173.84 208.79 174.84 208.80 C 175.85 208.81 176.68 208.00 176.68 207.00 L 176.69 205.96 C 176.70 204.96 175.90 204.13 174.89 204.12 C 173.88 204.11 173.06 204.92 173.05 205.93 Z M 173.03 206.95 L 173.02 207.98 C 173.00 208.98 173.80 209.82 174.81 209.84 C 175.82 209.85 176.65 209.05 176.67 208.04 L 176.69 207.01 C 176.71 206.00 175.90 205.17 174.89 205.15 C 173.89 205.13 173.05 205.94 173.03 206.95 Z M 173.01 207.96 L 172.99 208.98 C 172.96 209.99 173.76 210.83 174.77 210.86 C 175.78 210.89 176.62 210.09 176.64 209.08 L 176.67 208.06 C 176.70 207.05 175.90 206.21 174.89 206.18 C 173.88 206.15 173.04 206.95 173.01 207.96 Z M 172.98 208.96 L 172.95 209.98 C 172.91 210.99 173.70 211.84 174.71 211.88 C 175.72 211.91 176.57 211.12 176.61 210.11 L 176.65 209.10 C 176.68 208.09 175.89 207.24 174.88 207.20 C 173.87 207.16 173.02 207.95 172.98 208.96 Z M 172.94 209.96 L 172.90 210.96 C 172.85 211.97 173.63 212.83 174.65 212.88 C 175.66 212.93 176.52 212.15 176.57 211.13 L 176.61 210.13 C 176.66 209.12 175.88 208.26 174.86 208.21 C 173.85 208.16 172.99 208.95 172.94 209.96 Z M 172.90 210.94 L 172.84 211.93 C 172.78 212.94 173.56 213.81 174.57 213.87 C 175.58 213.93 176.45 213.15 176.51 212.14 L 176.57 211.15 C 176.63 210.14 175.85 209.27 174.84 209.21 C 173.82 209.15 172.95 209.93 172.90 210.94 Z M 172.84 211.91 L 172.77 212.88 C 172.70 213.89 173.46 214.77 174.48 214.84 C 175.49 214.91 176.37 214.15 176.44 213.13 L 176.51 212.16 C 176.58 211.15 175.82 210.27 174.80 210.20 C 173.79 210.13 172.91 210.89 172.84 211.91 Z M 172.77 212.85 L 172.69 213.80 C 172.61 214.82 173.36 215.71 174.38 215.79 C 175.39 215.88 176.28 215.12 176.37 214.11 L 176.45 213.16 C 176.53 212.14 175.78 211.25 174.76 211.17 C 173.74 211.08 172.85 211.84 172.77 212.85 Z M 172.69 213.77 L 172.60 214.70 C 172.50 215.72 173.24 216.62 174.26 216.72 C 175.27 216.82 176.18 216.08 176.28 215.06 L 176.37 214.13 C 176.47 213.12 175.72 212.21 174.71 212.11 C 173.69 212.02 172.79 212.76 172.69 213.77 Z M 172.60 214.67 L 172.47 215.78 C 172.35 216.80 173.08 217.71 174.10 217.83 C 175.11 217.95 176.03 217.22 176.15 216.21 L 176.28 215.09 C 176.39 214.08 175.67 213.16 174.65 213.04 C 173.64 212.92 172.72 213.65 172.60 214.67 Z M 172.47 215.74 L 172.31 216.91 C 172.17 217.93 172.88 218.86 173.89 219.00 C 174.91 219.14 175.84 218.44 175.98 217.42 L 176.15 216.25 C 176.29 215.23 175.58 214.30 174.56 214.16 C 173.55 214.02 172.61 214.72 172.47 215.74 Z M 172.31 216.87 L 172.13 218.00 C 171.97 219.01 172.65 219.96 173.66 220.13 C 174.68 220.29 175.63 219.61 175.80 218.59 L 175.98 217.47 C 176.14 216.45 175.46 215.50 174.45 215.34 C 173.43 215.17 172.48 215.86 172.31 216.87 Z M 172.14 217.95 L 171.93 219.03 C 171.74 220.04 172.41 221.01 173.41 221.20 C 174.42 221.39 175.40 220.73 175.59 219.72 L 175.79 218.64 C 175.98 217.63 175.32 216.66 174.31 216.47 C 173.30 216.28 172.33 216.94 172.14 217.95 Z M 171.94 218.99 L 171.72 220.02 C 171.50 221.03 172.14 222.02 173.14 222.23 C 174.15 222.45 175.14 221.81 175.36 220.81 L 175.58 219.77 C 175.80 218.76 175.16 217.77 174.15 217.56 C 173.15 217.34 172.16 217.98 171.94 218.99 Z M 171.72 219.97 L 171.48 220.97 C 171.24 221.97 171.85 222.98 172.85 223.22 C 173.85 223.46 174.86 222.85 175.11 221.85 L 175.35 220.85 C 175.59 219.85 174.98 218.85 173.98 218.60 C 172.98 218.36 171.97 218.97 171.72 219.97 Z M 171.49 220.92 L 171.23 221.87 C 170.96 222.86 171.55 223.89 172.54 224.16 C 173.54 224.43 174.57 223.84 174.84 222.85 L 175.10 221.90 C 175.37 220.90 174.78 219.88 173.79 219.60 C 172.79 219.33 171.76 219.92 171.49 220.92 Z M 171.25 221.81 L 170.97 222.72 C 170.67 223.71 171.23 224.76 172.22 225.06 C 173.21 225.36 174.25 224.80 174.55 223.81 L 174.83 222.90 C 175.12 221.91 174.57 220.87 173.58 220.57 C 172.59 220.27 171.54 220.83 171.25 221.81 Z M 170.98 222.67 L 170.69 223.54 C 170.36 224.52 170.89 225.58 171.88 225.91 C 172.86 226.24 173.92 225.71 174.25 224.73 L 174.54 223.86 C 174.86 222.88 174.34 221.82 173.35 221.49 C 172.37 221.16 171.31 221.69 170.98 222.67 Z M 170.71 223.49 L 170.40 224.32 C 170.05 225.29 170.54 226.37 171.52 226.73 C 172.49 227.08 173.57 226.59 173.92 225.61 L 174.23 224.78 C 174.59 223.81 174.09 222.73 173.12 222.37 C 172.14 222.02 171.07 222.52 170.71 223.49 Z M 170.42 224.26 L 170.10 225.06 C 169.72 226.02 170.18 227.11 171.14 227.50 C 172.11 227.89 173.20 227.42 173.59 226.46 L 173.91 225.67 C 174.29 224.70 173.83 223.61 172.86 223.22 C 171.90 222.84 170.81 223.30 170.42 224.26 Z M 170.12 225.00 L 169.79 225.76 C 169.37 226.71 169.81 227.82 170.76 228.24 C 171.71 228.66 172.82 228.22 173.24 227.27 L 173.57 226.51 C 173.99 225.56 173.55 224.45 172.60 224.04 C 171.65 223.62 170.54 224.05 170.12 225.00 Z M 169.81 225.70 L 169.39 226.58 C 168.94 227.52 169.34 228.65 170.28 229.10 C 171.21 229.55 172.34 229.15 172.79 228.21 L 173.21 227.33 C 173.66 226.39 173.27 225.27 172.33 224.82 C 171.39 224.37 170.26 224.76 169.81 225.70 Z M 169.43 226.51 L 168.93 227.45 C 168.44 228.36 168.78 229.51 169.70 230.00 C 170.62 230.49 171.76 230.14 172.26 229.22 L 172.76 228.29 C 173.25 227.37 172.90 226.22 171.98 225.73 C 171.06 225.24 169.92 225.59 169.43 226.51 Z M 168.97 227.36 L 168.44 228.24 C 167.91 229.13 168.19 230.29 169.09 230.83 C 169.98 231.37 171.14 231.08 171.68 230.19 L 172.21 229.31 C 172.75 228.41 172.46 227.25 171.57 226.72 C 170.67 226.18 169.51 226.47 168.97 227.36 Z M 168.50 228.15 L 167.94 228.97 C 167.35 229.83 167.57 231.01 168.44 231.60 C 169.30 232.19 170.48 231.96 171.07 231.10 L 171.63 230.28 C 172.22 229.41 171.99 228.24 171.13 227.65 C 170.26 227.06 169.09 227.28 168.50 228.15 Z M 168.00 228.88 L 167.41 229.65 C 166.77 230.48 166.92 231.67 167.75 232.31 C 168.58 232.95 169.77 232.79 170.41 231.96 L 171.00 231.19 C 171.64 230.36 171.49 229.17 170.66 228.53 C 169.83 227.89 168.64 228.05 168.00 228.88 Z M 167.48 229.55 L 166.84 230.28 C 166.15 231.07 166.23 232.27 167.02 232.96 C 167.81 233.65 169.00 233.57 169.70 232.78 L 170.33 232.06 C 171.02 231.27 170.95 230.07 170.16 229.38 C 169.37 228.69 168.17 228.77 167.48 229.55 Z M 166.92 230.19 L 166.24 230.87 C 165.50 231.61 165.50 232.82 166.25 233.56 C 166.99 234.30 168.19 234.30 168.94 233.56 L 169.62 232.87 C 170.36 232.13 170.36 230.93 169.61 230.19 C 168.87 229.44 167.67 229.45 166.92 230.19 Z M 166.33 230.79 L 165.60 231.43 C 164.81 232.12 164.74 233.33 165.43 234.12 C 166.13 234.90 167.33 234.98 168.12 234.28 L 168.85 233.64 C 169.64 232.94 169.71 231.74 169.02 230.95 C 168.32 230.16 167.12 230.09 166.33 230.79 Z M 165.69 231.35 L 164.91 231.96 C 164.08 232.61 163.93 233.80 164.58 234.64 C 165.22 235.47 166.42 235.61 167.25 234.97 L 168.03 234.36 C 168.86 233.71 169.01 232.51 168.37 231.68 C 167.72 230.85 166.52 230.70 165.69 231.35 Z M 164.99 231.90 L 164.22 232.43 C 163.35 233.03 163.14 234.22 163.74 235.09 C 164.34 235.95 165.53 236.17 166.40 235.57 L 167.17 235.03 C 168.03 234.43 168.25 233.24 167.65 232.38 C 167.05 231.51 165.86 231.29 164.99 231.90 Z M 164.30 232.38 L 163.49 232.88 C 162.60 233.44 162.32 234.62 162.88 235.51 C 163.44 236.41 164.61 236.68 165.51 236.12 L 166.32 235.62 C 167.21 235.06 167.49 233.89 166.93 232.99 C 166.37 232.10 165.19 231.82 164.30 232.38 Z M 163.57 232.84 L 162.72 233.31 C 161.80 233.83 161.47 234.99 161.98 235.91 C 162.50 236.83 163.67 237.16 164.59 236.65 L 165.43 236.17 C 166.35 235.65 166.68 234.49 166.17 233.57 C 165.65 232.65 164.49 232.32 163.57 232.84 Z M 162.79 233.27 L 161.91 233.72 C 160.96 234.19 160.59 235.34 161.06 236.29 C 161.54 237.23 162.69 237.61 163.63 237.13 L 164.51 236.68 C 165.46 236.21 165.83 235.06 165.36 234.12 C 164.88 233.17 163.73 232.79 162.79 233.27 Z M 161.98 233.68 L 161.06 234.10 C 160.10 234.54 159.67 235.67 160.11 236.63 C 160.55 237.60 161.68 238.02 162.65 237.58 L 163.56 237.17 C 164.52 236.73 164.95 235.59 164.51 234.63 C 164.07 233.67 162.94 233.24 161.98 233.68 Z M 161.13 234.07 L 160.19 234.45 C 159.21 234.85 158.74 235.97 159.14 236.95 C 159.54 237.93 160.66 238.40 161.64 238.00 L 162.58 237.61 C 163.56 237.21 164.03 236.09 163.63 235.12 C 163.23 234.14 162.11 233.67 161.13 234.07 Z M 160.25 234.43 L 159.29 234.78 C 158.30 235.14 157.78 236.24 158.15 237.24 C 158.51 238.23 159.61 238.74 160.61 238.38 L 161.57 238.03 C 162.56 237.66 163.08 236.56 162.71 235.57 C 162.35 234.57 161.25 234.06 160.25 234.43 Z M 159.36 234.75 L 158.37 235.07 C 157.37 235.40 156.81 236.48 157.14 237.49 C 157.47 238.50 158.55 239.05 159.56 238.72 L 160.54 238.40 C 161.55 238.07 162.10 236.99 161.77 235.99 C 161.44 234.98 160.36 234.43 159.36 234.75 Z M 158.44 235.05 L 157.44 235.34 C 156.42 235.63 155.83 236.69 156.12 237.71 C 156.41 238.73 157.48 239.32 158.49 239.03 L 159.49 238.74 C 160.51 238.45 161.10 237.39 160.81 236.37 C 160.52 235.35 159.46 234.76 158.44 235.05 Z M 157.51 235.32 L 156.51 235.56 C 155.48 235.82 154.86 236.86 155.11 237.89 C 155.37 238.92 156.41 239.55 157.44 239.29 L 158.43 239.05 C 159.46 238.79 160.09 237.75 159.83 236.72 C 159.58 235.69 158.54 235.06 157.51 235.32 Z M 156.58 235.55 L 155.61 235.75 C 154.57 235.97 153.90 236.99 154.12 238.03 C 154.34 239.06 155.36 239.73 156.39 239.51 L 157.37 239.31 C 158.41 239.09 159.07 238.07 158.85 237.03 C 158.64 236.00 157.62 235.33 156.58 235.55 Z M 155.68 235.74 L 154.70 235.91 C 153.65 236.08 152.95 237.08 153.13 238.12 C 153.31 239.17 154.30 239.87 155.34 239.69 L 156.32 239.52 C 157.37 239.35 158.07 238.35 157.89 237.31 C 157.72 236.26 156.72 235.56 155.68 235.74 Z M 154.77 235.89 L 153.79 236.02 C 152.74 236.16 151.99 237.12 152.13 238.17 C 152.27 239.23 153.23 239.97 154.28 239.83 L 155.27 239.70 C 156.32 239.57 157.06 238.60 156.92 237.55 C 156.79 236.50 155.83 235.76 154.77 235.89 Z M 153.87 236.01 L 152.88 236.10 C 151.82 236.19 151.04 237.12 151.13 238.18 C 151.22 239.24 152.16 240.02 153.21 239.93 L 154.20 239.84 C 155.26 239.75 156.04 238.82 155.95 237.76 C 155.86 236.70 154.93 235.92 153.87 236.01 Z M 152.97 236.09 L 151.97 236.14 C 150.91 236.18 150.09 237.08 150.13 238.14 C 150.18 239.20 151.07 240.02 152.13 239.97 L 153.13 239.93 C 154.19 239.89 155.01 238.99 154.96 237.93 C 154.92 236.87 154.02 236.05 152.97 236.09 Z M 152.06 236.13 L 151.07 236.13 C 150.00 236.13 149.14 236.98 149.14 238.04 C 149.13 239.10 149.99 239.97 151.05 239.97 L 152.04 239.97 C 153.10 239.98 153.97 239.12 153.97 238.06 C 153.98 237.00 153.12 236.14 152.06 236.13 Z M 151.16 236.13 L 150.16 236.08 C 149.10 236.02 148.20 236.84 148.14 237.89 C 148.08 238.95 148.90 239.86 149.95 239.91 L 150.95 239.97 C 152.01 240.02 152.92 239.21 152.97 238.15 C 153.03 237.09 152.22 236.19 151.16 236.13 Z M 150.26 236.09 L 149.26 235.98 C 148.20 235.87 147.26 236.64 147.15 237.69 C 147.04 238.75 147.80 239.69 148.86 239.80 L 149.86 239.91 C 150.91 240.02 151.86 239.25 151.97 238.20 C 152.08 237.14 151.31 236.20 150.26 236.09 Z M 149.36 236.00 L 148.36 235.84 C 147.31 235.67 146.32 236.39 146.16 237.43 C 145.99 238.48 146.71 239.46 147.76 239.63 L 148.76 239.79 C 149.80 239.95 150.79 239.24 150.95 238.19 C 151.12 237.14 150.40 236.16 149.36 236.00 Z M 148.45 235.86 L 147.52 235.66 C 146.48 235.44 145.46 236.10 145.24 237.14 C 145.02 238.17 145.68 239.19 146.72 239.41 L 147.66 239.61 C 148.69 239.83 149.71 239.17 149.93 238.13 C 150.15 237.09 149.49 236.08 148.45 235.86 Z M 147.60 235.68 L 146.74 235.45 C 145.72 235.19 144.67 235.80 144.40 236.82 C 144.13 237.85 144.75 238.90 145.77 239.16 L 146.63 239.39 C 147.66 239.66 148.70 239.05 148.97 238.02 C 149.24 237.00 148.63 235.95 147.60 235.68 Z M 146.82 235.48 L 145.96 235.21 C 144.95 234.90 143.87 235.47 143.56 236.48 C 143.25 237.49 143.82 238.56 144.83 238.87 L 145.69 239.14 C 146.71 239.45 147.78 238.88 148.09 237.87 C 148.40 236.86 147.83 235.79 146.82 235.48 Z M 146.03 235.24 L 145.16 234.93 C 144.16 234.58 143.07 235.11 142.72 236.11 C 142.37 237.10 142.89 238.19 143.89 238.54 L 144.76 238.85 C 145.76 239.20 146.85 238.67 147.20 237.68 C 147.55 236.68 147.02 235.59 146.03 235.24 Z M 145.22 234.96 L 144.34 234.62 C 143.36 234.23 142.25 234.72 141.87 235.70 C 141.48 236.68 141.97 237.79 142.95 238.18 L 143.83 238.52 C 144.81 238.90 145.92 238.42 146.30 237.43 C 146.69 236.45 146.20 235.34 145.22 234.96 Z M 144.40 234.64 L 143.51 234.26 C 142.54 233.85 141.42 234.30 141.00 235.27 C 140.59 236.24 141.04 237.36 142.01 237.77 L 142.90 238.15 C 143.87 238.57 144.99 238.11 145.40 237.15 C 145.82 236.18 145.37 235.05 144.40 234.64 Z M 143.56 234.29 L 142.65 233.87 C 141.70 233.43 140.57 233.85 140.13 234.81 C 139.69 235.76 140.11 236.90 141.06 237.33 L 141.96 237.75 C 142.92 238.19 144.05 237.77 144.49 236.81 C 144.93 235.86 144.51 234.72 143.56 234.29 Z M 142.69 233.89 L 141.78 233.44 C 140.83 232.98 139.69 233.37 139.23 234.32 C 138.77 235.26 139.16 236.40 140.11 236.87 L 141.02 237.31 C 141.97 237.78 143.11 237.38 143.57 236.44 C 144.03 235.49 143.64 234.35 142.69 233.89 Z M 141.81 233.46 L 140.88 232.98 C 139.94 232.50 138.80 232.87 138.32 233.80 C 137.84 234.74 138.20 235.89 139.14 236.37 L 140.07 236.85 C 141.01 237.33 142.15 236.96 142.63 236.03 C 143.11 235.09 142.75 233.94 141.81 233.46 Z M 140.91 233.00 L 139.95 232.49 C 139.03 231.99 137.88 232.34 137.38 233.27 C 136.89 234.19 137.23 235.34 138.16 235.84 L 139.11 236.35 C 140.03 236.84 141.19 236.50 141.68 235.57 C 142.18 234.65 141.83 233.50 140.91 233.00 Z M 139.98 232.50 L 139.00 231.96 C 138.08 231.45 136.93 231.79 136.42 232.70 C 135.91 233.62 136.24 234.77 137.16 235.28 L 138.13 235.82 C 139.05 236.33 140.21 236.00 140.71 235.08 C 141.22 234.17 140.89 233.01 139.98 232.50 Z M 139.02 231.98 L 138.02 231.41 C 137.11 230.89 135.95 231.20 135.43 232.11 C 134.91 233.02 135.23 234.18 136.14 234.70 L 137.14 235.27 C 138.05 235.79 139.21 235.47 139.72 234.56 C 140.24 233.65 139.93 232.49 139.02 231.98 Z M 138.03 231.42 L 137.16 230.91 C 136.26 230.39 135.10 230.70 134.58 231.60 C 134.06 232.50 134.36 233.66 135.26 234.18 L 136.13 234.69 C 137.03 235.21 138.19 234.90 138.71 234.00 C 139.24 233.10 138.93 231.94 138.03 231.42 Z M 137.17 230.93 L 136.31 230.42 C 135.41 229.89 134.26 230.19 133.73 231.09 C 133.20 231.98 133.50 233.13 134.40 233.66 L 135.26 234.17 C 136.15 234.70 137.31 234.40 137.84 233.50 C 138.36 232.61 138.06 231.45 137.17 230.93 Z M 136.31 230.43 L 135.44 229.91 C 134.55 229.38 133.40 229.67 132.87 230.56 C 132.34 231.45 132.63 232.60 133.52 233.13 L 134.39 233.65 C 135.28 234.18 136.43 233.89 136.96 233.00 C 137.49 232.11 137.20 230.96 136.31 230.43 Z M 135.44 229.92 L 134.56 229.39 C 133.67 228.86 132.52 229.14 131.99 230.03 C 131.46 230.91 131.75 232.06 132.63 232.59 L 133.51 233.12 C 134.40 233.65 135.55 233.37 136.08 232.48 C 136.61 231.60 136.32 230.45 135.44 229.92 Z M 134.56 229.40 L 133.67 228.86 C 132.79 228.33 131.65 228.61 131.11 229.49 C 130.58 230.37 130.86 231.51 131.74 232.04 L 132.63 232.58 C 133.51 233.11 134.65 232.83 135.18 231.95 C 135.72 231.07 135.43 229.93 134.56 229.40 Z M 133.67 228.87 L 132.78 228.33 C 131.91 227.80 130.77 228.07 130.23 228.95 C 129.70 229.82 129.98 230.96 130.85 231.49 L 131.74 232.03 C 132.62 232.56 133.76 232.29 134.29 231.41 C 134.82 230.54 134.54 229.40 133.67 228.87 Z M 132.78 228.34 L 131.89 227.79 C 131.02 227.26 129.89 227.54 129.35 228.41 C 128.82 229.27 129.10 230.41 129.97 230.94 L 130.85 231.48 C 131.72 232.01 132.86 231.74 133.39 230.87 C 133.92 230.00 133.65 228.87 132.78 228.34 Z M 131.89 227.80 L 131.01 227.26 C 130.14 226.73 129.01 227.00 128.48 227.87 C 127.95 228.73 128.22 229.86 129.09 230.39 L 129.97 230.93 C 130.83 231.46 131.96 231.19 132.49 230.33 C 133.02 229.46 132.75 228.33 131.89 227.80 Z M 131.00 227.27 L 130.13 226.73 C 129.27 226.20 128.14 226.48 127.61 227.34 C 127.09 228.20 127.36 229.32 128.22 229.85 L 129.09 230.39 C 129.95 230.91 131.08 230.64 131.61 229.78 C 132.13 228.92 131.86 227.80 131.00 227.27 Z M 130.12 226.74 L 129.27 226.21 C 128.41 225.69 127.29 225.96 126.76 226.81 C 126.23 227.67 126.50 228.79 127.36 229.32 L 128.22 229.85 C 129.08 230.37 130.20 230.10 130.73 229.24 C 131.25 228.39 130.98 227.26 130.12 226.74 Z M 129.26 226.22 L 128.42 225.70 C 127.56 225.18 126.44 225.45 125.92 226.31 C 125.40 227.16 125.67 228.28 126.53 228.80 L 127.37 229.31 C 128.22 229.84 129.34 229.57 129.86 228.71 C 130.38 227.86 130.11 226.74 129.26 226.22 Z M 128.41 225.71 L 127.58 225.21 C 126.73 224.69 125.62 224.96 125.10 225.81 C 124.58 226.67 124.86 227.78 125.71 228.29 L 126.53 228.80 C 127.39 229.31 128.50 229.04 129.01 228.19 C 129.53 227.34 129.26 226.22 128.41 225.71 Z M 127.58 225.21 L 126.77 224.73 C 125.92 224.21 124.82 224.49 124.30 225.34 C 123.79 226.19 124.07 227.29 124.92 227.81 L 125.72 228.29 C 126.57 228.80 127.67 228.53 128.19 227.68 C 128.70 226.83 128.43 225.72 127.58 225.21 Z M 126.76 224.73 L 125.99 224.27 C 125.14 223.76 124.04 224.04 123.53 224.89 C 123.03 225.73 123.30 226.83 124.15 227.34 L 124.93 227.81 C 125.78 228.31 126.88 228.04 127.38 227.19 C 127.89 226.34 127.61 225.24 126.76 224.73 Z M 125.97 224.27 L 124.94 223.66 C 124.09 223.16 123.00 223.45 122.50 224.29 C 122.00 225.14 122.29 226.23 123.13 226.73 L 124.17 227.34 C 125.01 227.84 126.11 227.55 126.60 226.71 C 127.10 225.86 126.82 224.77 125.97 224.27 Z M 124.92 223.67 L 123.91 223.09 C 123.07 222.60 121.99 222.89 121.51 223.73 C 121.02 224.58 121.31 225.65 122.15 226.14 L 123.15 226.72 C 124.00 227.21 125.07 226.92 125.56 226.07 C 126.05 225.23 125.76 224.16 124.92 223.67 Z M 123.89 223.10 L 122.94 222.56 C 122.10 222.09 121.03 222.38 120.56 223.22 C 120.09 224.06 120.38 225.12 121.22 225.59 L 122.18 226.13 C 123.01 226.61 124.08 226.31 124.55 225.47 C 125.02 224.63 124.73 223.57 123.89 223.10 Z M 122.91 222.57 L 122.00 222.07 C 121.17 221.61 120.12 221.91 119.66 222.74 C 119.20 223.58 119.50 224.63 120.34 225.09 L 121.25 225.59 C 122.08 226.05 123.13 225.74 123.59 224.91 C 124.05 224.07 123.74 223.03 122.91 222.57 Z M 121.98 222.07 L 121.10 221.61 C 120.27 221.16 119.24 221.47 118.79 222.30 C 118.35 223.13 118.66 224.17 119.49 224.61 L 120.36 225.08 C 121.19 225.52 122.23 225.21 122.67 224.38 C 123.12 223.55 122.81 222.52 121.98 222.07 Z M 121.08 221.61 L 120.24 221.17 C 119.41 220.74 118.39 221.06 117.96 221.89 C 117.53 222.72 117.85 223.74 118.68 224.17 L 119.52 224.60 C 120.34 225.03 121.36 224.71 121.79 223.89 C 122.22 223.06 121.90 222.04 121.08 221.61 Z M 120.21 221.18 L 119.39 220.77 C 118.57 220.35 117.57 220.68 117.15 221.50 C 116.74 222.33 117.07 223.33 117.89 223.75 L 118.70 224.16 C 119.53 224.57 120.53 224.25 120.95 223.42 C 121.36 222.60 121.03 221.60 120.21 221.18 Z M 119.37 220.78 L 118.57 220.38 C 117.75 219.98 116.76 220.32 116.36 221.14 C 115.96 221.96 116.30 222.95 117.12 223.35 L 117.91 223.74 C 118.73 224.14 119.72 223.80 120.12 222.98 C 120.52 222.17 120.18 221.18 119.37 220.78 Z M 118.54 220.39 L 117.76 220.02 C 116.94 219.63 115.97 219.98 115.58 220.79 C 115.20 221.61 115.54 222.58 116.36 222.97 L 117.14 223.34 C 117.96 223.73 118.93 223.38 119.32 222.57 C 119.70 221.75 119.36 220.78 118.54 220.39 Z M 117.73 220.03 L 116.92 219.65 C 116.11 219.28 115.16 219.64 114.78 220.44 C 114.41 221.25 114.76 222.21 115.57 222.59 L 116.38 222.96 C 117.19 223.33 118.15 222.98 118.52 222.17 C 118.89 221.36 118.54 220.40 117.73 220.03 Z M 116.90 219.66 L 115.98 219.24 C 115.17 218.88 114.22 219.25 113.86 220.05 C 113.50 220.86 113.86 221.81 114.67 222.17 L 115.60 222.58 C 116.40 222.95 117.35 222.58 117.71 221.77 C 118.07 220.96 117.71 220.02 116.90 219.66 Z M 115.96 219.24 L 115.04 218.84 C 114.23 218.49 113.28 218.86 112.93 219.67 C 112.58 220.48 112.96 221.42 113.77 221.77 L 114.69 222.17 C 115.50 222.53 116.44 222.15 116.79 221.34 C 117.14 220.53 116.77 219.59 115.96 219.24 Z M 115.02 218.84 L 114.09 218.45 C 113.28 218.11 112.35 218.49 112.01 219.30 C 111.67 220.11 112.05 221.05 112.86 221.39 L 113.78 221.78 C 114.59 222.12 115.53 221.74 115.87 220.93 C 116.21 220.12 115.83 219.18 115.02 218.84 Z M 114.08 218.45 L 113.16 218.07 C 112.35 217.74 111.42 218.12 111.08 218.94 C 110.75 219.75 111.14 220.67 111.95 221.01 L 112.87 221.39 C 113.68 221.72 114.61 221.33 114.94 220.52 C 115.28 219.71 114.89 218.78 114.08 218.45 Z M 113.14 218.07 L 112.22 217.70 C 111.41 217.37 110.49 217.76 110.16 218.57 C 109.83 219.38 110.23 220.31 111.04 220.63 L 111.96 221.01 C 112.77 221.33 113.69 220.94 114.02 220.13 C 114.35 219.32 113.95 218.40 113.14 218.07 Z M 112.21 217.70 L 111.29 217.33 C 110.48 217.01 109.56 217.41 109.24 218.22 C 108.92 219.03 109.31 219.94 110.12 220.26 L 111.05 220.63 C 111.85 220.95 112.77 220.56 113.09 219.75 C 113.42 218.94 113.02 218.02 112.21 217.70 Z M 111.28 217.34 L 110.36 216.97 C 109.55 216.65 108.64 217.05 108.32 217.86 C 108.00 218.67 108.40 219.58 109.20 219.90 L 110.13 220.26 C 110.94 220.58 111.85 220.18 112.17 219.37 C 112.48 218.57 112.09 217.65 111.28 217.34 Z M 110.35 216.98 L 109.43 216.61 C 108.62 216.30 107.71 216.70 107.40 217.50 C 107.08 218.31 107.48 219.22 108.28 219.53 L 109.21 219.89 C 110.01 220.21 110.92 219.81 111.24 219.01 C 111.55 218.20 111.16 217.29 110.35 216.98 Z"
      fill="black"
      fill-rule="nonzero" /></svg>