<svg xmlns="http://www.w3.org/2000/svg" width="300" height="300" viewBox="0 0 300 300">
<path d="M 122.19 135.03 L 121.08 134.49 C 120.16 134.05 119.05 134.43 118.61 135.35 C 118.16 136.27 118.54 137.37 119.46 137.82 L 120.57 138.36 C 121.49 138.80 122.59 138.42 123.04 137.50 C 123.49 136.59 123.10 135.48 122.19 135.03 Z M 121.07 134.48 L 119.97 133.95 C 119.05 133.51 117.94 133.90 117.49 134.82 C 117.05 135.75 117.44 136.86 118.36 137.30 L 119.46 137.83 C 120.39 138.28 121.50 137.89 121.94 136.96 C 122.39 136.03 122.00 134.92 121.07 134.48 Z M 119.96 133.93 L 118.87 133.43 C 117.94 132.99 116.83 133.40 116.39 134.33 C 115.95 135.27 116.36 136.38 117.29 136.82 L 118.38 137.32 C 119.31 137.76 120.42 137.35 120.86 136.42 C 121.30 135.48 120.89 134.37 119.96 133.93 Z M 118.85 133.41 L 117.79 132.93 C 116.84 132.51 115.73 132.94 115.31 133.88 C 114.88 134.83 115.31 135.94 116.26 136.36 L 117.32 136.84 C 118.26 137.26 119.38 136.84 119.80 135.89 C 120.22 134.94 119.80 133.83 118.85 133.41 Z M 117.75 132.90 L 116.72 132.48 C 115.76 132.07 114.65 132.53 114.25 133.49 C 113.85 134.45 114.30 135.56 115.26 135.96 L 116.29 136.39 C 117.26 136.79 118.36 136.34 118.77 135.38 C 119.17 134.41 118.71 133.31 117.75 132.90 Z M 116.67 132.44 L 115.68 132.07 C 114.70 131.70 113.60 132.19 113.23 133.17 C 112.86 134.15 113.35 135.25 114.33 135.62 L 115.32 136.00 C 116.30 136.37 117.40 135.87 117.77 134.89 C 118.14 133.91 117.65 132.81 116.67 132.44 Z M 115.60 132.03 L 114.66 131.72 C 113.66 131.39 112.58 131.94 112.25 132.94 C 111.92 133.94 112.47 135.02 113.47 135.35 L 114.41 135.66 C 115.41 135.99 116.49 135.44 116.82 134.44 C 117.15 133.44 116.60 132.36 115.60 132.03 Z M 114.55 131.68 L 113.67 131.45 C 112.64 131.18 111.59 131.79 111.32 132.82 C 111.05 133.84 111.67 134.89 112.69 135.16 L 113.58 135.39 C 114.60 135.66 115.65 135.05 115.92 134.02 C 116.19 133.00 115.58 131.95 114.55 131.68 Z M 113.51 131.40 L 112.69 131.26 C 111.64 131.07 110.64 131.78 110.46 132.83 C 110.27 133.88 110.97 134.88 112.02 135.06 L 112.84 135.21 C 113.89 135.39 114.90 134.69 115.08 133.64 C 115.27 132.59 114.56 131.59 113.51 131.40 Z M 112.48 131.22 L 111.73 131.18 C 110.66 131.11 109.74 131.93 109.67 133.00 C 109.61 134.07 110.42 134.99 111.49 135.05 L 112.24 135.10 C 113.31 135.16 114.23 134.35 114.30 133.28 C 114.36 132.21 113.55 131.29 112.48 131.22 Z M 111.42 131.17 L 110.75 131.24 C 109.68 131.34 108.90 132.29 109.00 133.37 C 109.10 134.44 110.06 135.22 111.13 135.12 L 111.80 135.06 C 112.87 134.95 113.66 134.00 113.55 132.93 C 113.45 131.85 112.50 131.07 111.42 131.17 Z M 110.33 131.32 L 109.71 131.52 C 108.68 131.86 108.12 132.96 108.46 133.99 C 108.80 135.02 109.91 135.58 110.94 135.24 L 111.55 135.04 C 112.58 134.70 113.14 133.60 112.80 132.57 C 112.47 131.54 111.36 130.98 110.33 131.32 Z M 109.21 131.76 L 108.65 132.15 C 107.75 132.77 107.53 133.99 108.14 134.88 C 108.76 135.78 109.98 136.00 110.87 135.39 L 111.44 135.00 C 112.33 134.38 112.56 133.16 111.94 132.27 C 111.33 131.37 110.11 131.15 109.21 131.76 Z M 108.24 132.52 L 107.79 133.07 C 107.10 133.91 107.22 135.15 108.06 135.84 C 108.90 136.53 110.14 136.40 110.83 135.57 L 111.28 135.02 C 111.97 134.18 111.85 132.94 111.01 132.25 C 110.17 131.56 108.93 131.68 108.24 132.52 Z M 107.55 133.43 L 107.20 134.13 C 106.71 135.10 107.10 136.28 108.07 136.77 C 109.04 137.26 110.22 136.87 110.71 135.90 L 111.06 135.21 C 111.55 134.24 111.16 133.05 110.20 132.56 C 109.23 132.07 108.04 132.46 107.55 133.43 Z M 107.08 134.42 L 106.82 135.25 C 106.49 136.28 107.06 137.39 108.09 137.72 C 109.13 138.05 110.23 137.48 110.56 136.44 L 110.83 135.61 C 111.16 134.58 110.59 133.47 109.55 133.14 C 108.52 132.81 107.41 133.38 107.08 134.42 Z M 106.76 135.46 L 106.57 136.41 C 106.36 137.48 107.05 138.51 108.11 138.73 C 109.18 138.94 110.21 138.25 110.43 137.19 L 110.62 136.23 C 110.83 135.17 110.14 134.13 109.08 133.92 C 108.01 133.70 106.98 134.39 106.76 135.46 Z M 106.55 136.56 L 106.42 137.62 C 106.28 138.70 107.05 139.68 108.13 139.81 C 109.21 139.95 110.19 139.18 110.32 138.10 L 110.45 137.04 C 110.59 135.96 109.82 134.98 108.74 134.85 C 107.66 134.71 106.68 135.48 106.55 136.56 Z M 106.40 137.72 L 106.32 138.88 C 106.24 139.96 107.06 140.91 108.14 140.98 C 109.23 141.06 110.17 140.24 110.25 139.16 L 110.33 138.00 C 110.41 136.92 109.59 135.98 108.51 135.90 C 107.42 135.82 106.48 136.64 106.40 137.72 Z M 106.32 138.94 L 106.27 140.18 C 106.23 141.27 107.07 142.19 108.16 142.23 C 109.25 142.27 110.16 141.42 110.21 140.34 L 110.25 139.10 C 110.30 138.01 109.45 137.09 108.36 137.05 C 107.28 137.01 106.36 137.86 106.32 138.94 Z M 106.27 140.22 L 106.24 141.53 C 106.22 142.62 107.08 143.52 108.17 143.54 C 109.26 143.56 110.16 142.70 110.18 141.61 L 110.21 140.30 C 110.23 139.21 109.36 138.31 108.28 138.29 C 107.19 138.27 106.29 139.13 106.27 140.22 Z M 106.24 141.55 L 106.23 142.65 C 106.21 143.74 107.08 144.63 108.17 144.65 C 109.26 144.66 110.15 143.79 110.17 142.70 L 110.18 141.60 C 110.20 140.51 109.32 139.61 108.24 139.60 C 107.15 139.59 106.25 140.46 106.24 141.55 Z M 106.23 142.66 L 106.22 143.59 C 106.21 144.68 107.08 145.57 108.17 145.59 C 109.26 145.60 110.15 144.72 110.16 143.63 L 110.17 142.70 C 110.18 141.61 109.31 140.72 108.22 140.71 C 107.13 140.69 106.24 141.57 106.23 142.66 Z M 106.22 143.60 L 106.21 144.55 C 106.20 145.64 107.07 146.53 108.16 146.54 C 109.25 146.55 110.14 145.68 110.15 144.59 L 110.16 143.63 C 110.17 142.54 109.29 141.65 108.20 141.64 C 107.12 141.63 106.22 142.51 106.22 143.60 Z M 106.21 144.56 L 106.20 145.53 C 106.19 146.62 107.07 147.51 108.16 147.52 C 109.25 147.52 110.14 146.65 110.15 145.56 L 110.15 144.58 C 110.16 143.49 109.28 142.60 108.19 142.60 C 107.10 142.59 106.21 143.47 106.21 144.56 Z M 106.20 145.54 L 106.20 146.52 C 106.19 147.61 107.07 148.50 108.16 148.50 C 109.25 148.51 110.14 147.63 110.14 146.54 L 110.15 145.55 C 110.15 144.46 109.27 143.58 108.18 143.57 C 107.09 143.57 106.21 144.45 106.20 145.54 Z M 106.20 146.53 L 106.19 147.53 C 106.19 148.62 107.07 149.50 108.16 149.51 C 109.25 149.51 110.14 148.63 110.14 147.54 L 110.14 146.54 C 110.15 145.45 109.26 144.56 108.17 144.56 C 107.08 144.56 106.20 145.44 106.20 146.53 Z M 106.19 147.53 L 106.19 148.54 C 106.19 149.63 107.08 150.52 108.17 150.52 C 109.26 150.52 110.14 149.63 110.14 148.54 L 110.14 147.53 C 110.14 146.44 109.26 145.56 108.17 145.56 C 107.08 145.56 106.19 146.44 106.19 147.53 Z M 106.19 148.55 L 106.20 149.57 C 106.20 150.66 107.08 151.54 108.17 151.54 C 109.26 151.53 110.15 150.65 110.14 149.56 L 110.14 148.54 C 110.14 147.45 109.25 146.57 108.16 146.57 C 107.07 146.57 106.19 147.46 106.19 148.55 Z M 106.19 149.57 L 106.20 150.60 C 106.20 151.69 107.09 152.57 108.18 152.56 C 109.27 152.56 110.15 151.67 110.15 150.58 L 110.15 149.55 C 110.14 148.46 109.25 147.58 108.16 147.59 C 107.07 147.59 106.19 148.48 106.19 149.57 Z M 106.20 150.60 L 106.21 151.63 C 106.21 152.72 107.10 153.60 108.19 153.59 C 109.29 153.58 110.16 152.69 110.16 151.60 L 110.15 150.57 C 110.14 149.48 109.25 148.60 108.16 148.61 C 107.07 148.62 106.19 149.51 106.20 150.60 Z M 106.21 151.63 L 106.21 152.66 C 106.22 153.75 107.12 154.63 108.21 154.62 C 109.30 154.61 110.18 153.72 110.17 152.62 L 110.16 151.60 C 110.15 150.50 109.25 149.63 108.16 149.64 C 107.07 149.65 106.20 150.54 106.21 151.63 Z M 106.21 152.67 L 106.23 153.69 C 106.24 154.79 107.13 155.66 108.23 155.65 C 109.32 155.63 110.19 154.74 110.18 153.65 L 110.17 152.62 C 110.15 151.53 109.26 150.65 108.17 150.67 C 107.08 150.68 106.20 151.58 106.21 152.67 Z M 106.23 153.70 L 106.24 154.72 C 106.26 155.82 107.16 156.69 108.25 156.67 C 109.34 156.66 110.21 155.76 110.20 154.67 L 110.18 153.64 C 110.16 152.55 109.27 151.68 108.17 151.69 C 107.08 151.71 106.21 152.61 106.23 153.70 Z M 106.24 154.73 L 106.26 155.75 C 106.28 156.84 107.18 157.71 108.27 157.69 C 109.36 157.67 110.23 156.77 110.21 155.68 L 110.20 154.66 C 110.18 153.57 109.28 152.70 108.18 152.72 C 107.09 152.74 106.22 153.64 106.24 154.73 Z M 106.26 155.75 L 106.28 156.76 C 106.30 157.85 107.20 158.72 108.30 158.70 C 109.39 158.68 110.26 157.77 110.23 156.68 L 110.21 155.67 C 110.19 154.58 109.29 153.71 108.20 153.73 C 107.10 153.76 106.24 154.66 106.26 155.75 Z M 106.28 156.77 L 106.31 157.88 C 106.33 158.97 107.24 159.84 108.33 159.81 C 109.42 159.78 110.29 158.88 110.26 157.78 L 110.23 156.67 C 110.21 155.58 109.30 154.72 108.21 154.74 C 107.12 154.77 106.25 155.68 106.28 156.77 Z M 106.30 157.88 L 106.34 158.99 C 106.36 160.08 107.28 160.94 108.37 160.91 C 109.46 160.88 110.32 159.97 110.29 158.88 L 110.26 157.78 C 110.23 156.68 109.32 155.82 108.23 155.85 C 107.14 155.88 106.27 156.79 106.30 157.88 Z M 106.33 159.00 L 106.37 160.09 C 106.40 161.18 107.31 162.04 108.41 162.00 C 109.50 161.97 110.36 161.06 110.33 159.96 L 110.29 158.88 C 110.26 157.78 109.35 156.92 108.25 156.96 C 107.16 156.99 106.30 157.90 106.33 159.00 Z M 106.37 160.09 L 106.40 161.16 C 106.44 162.26 107.36 163.11 108.45 163.08 C 109.54 163.04 110.40 162.12 110.36 161.03 L 110.33 159.96 C 110.29 158.87 109.37 158.01 108.28 158.05 C 107.19 158.08 106.33 159.00 106.37 160.09 Z M 106.40 161.17 L 106.44 162.22 C 106.48 163.31 107.40 164.17 108.49 164.13 C 109.59 164.09 110.44 163.17 110.40 162.08 L 110.36 161.03 C 110.32 159.93 109.40 159.08 108.31 159.12 C 107.22 159.16 106.36 160.08 106.40 161.17 Z M 106.44 162.23 L 106.48 163.26 C 106.52 164.35 107.44 165.20 108.54 165.16 C 109.63 165.12 110.48 164.20 110.44 163.11 L 110.40 162.07 C 110.36 160.98 109.44 160.13 108.34 160.17 C 107.25 160.21 106.40 161.13 106.44 162.23 Z M 106.48 163.26 L 106.52 164.27 C 106.57 165.37 107.49 166.22 108.58 166.17 C 109.67 166.13 110.53 165.21 110.48 164.11 L 110.44 163.10 C 110.40 162.01 109.47 161.16 108.38 161.20 C 107.29 161.25 106.44 162.17 106.48 163.26 Z M 106.52 164.28 L 106.56 165.27 C 106.61 166.36 107.53 167.21 108.63 167.16 C 109.72 167.12 110.57 166.19 110.52 165.10 L 110.48 164.11 C 110.44 163.02 109.51 162.17 108.42 162.21 C 107.32 162.26 106.48 163.18 106.52 164.28 Z M 106.56 165.27 L 106.61 166.23 C 106.65 167.33 107.58 168.18 108.67 168.13 C 109.77 168.08 110.61 167.16 110.57 166.06 L 110.52 165.10 C 110.48 164.00 109.55 163.16 108.46 163.20 C 107.36 163.25 106.52 164.18 106.56 165.27 Z M 106.60 166.24 L 106.65 167.18 C 106.70 168.27 107.62 169.12 108.72 169.07 C 109.81 169.02 110.66 168.09 110.61 167.00 L 110.57 166.06 C 110.52 164.97 109.59 164.12 108.50 164.17 C 107.40 164.22 106.56 165.14 106.60 166.24 Z M 106.65 167.18 L 106.69 168.09 C 106.74 169.18 107.66 170.03 108.76 169.98 C 109.85 169.93 110.70 169.00 110.65 167.91 L 110.61 167.00 C 110.56 165.90 109.63 165.06 108.54 165.11 C 107.44 165.16 106.60 166.08 106.65 167.18 Z M 106.69 168.09 L 106.73 168.98 C 106.78 170.07 107.71 170.92 108.80 170.87 C 109.89 170.82 110.74 169.89 110.69 168.79 L 110.65 167.91 C 110.60 166.81 109.67 165.97 108.58 166.02 C 107.48 166.07 106.64 167.00 106.69 168.09 Z M 106.73 168.97 L 106.77 169.83 C 106.82 170.92 107.74 171.77 108.84 171.72 C 109.93 171.67 110.78 170.74 110.73 169.65 L 110.69 168.79 C 110.64 167.70 109.71 166.85 108.62 166.90 C 107.52 166.95 106.68 167.88 106.73 168.97 Z M 106.77 169.83 L 106.82 170.94 C 106.87 172.04 107.79 172.88 108.89 172.83 C 109.98 172.78 110.83 171.86 110.78 170.76 L 110.73 169.65 C 110.68 168.56 109.75 167.71 108.66 167.76 C 107.56 167.81 106.72 168.73 106.77 169.83 Z M 106.82 170.94 L 106.87 172.05 C 106.91 173.15 107.84 174.00 108.94 173.95 C 110.03 173.90 110.88 172.97 110.83 171.88 L 110.78 170.76 C 110.73 169.67 109.81 168.82 108.71 168.87 C 107.62 168.92 106.77 169.84 106.82 170.94 Z M 106.87 172.05 L 106.91 173.11 C 106.96 174.21 107.89 175.06 108.98 175.01 C 110.08 174.96 110.92 174.04 110.88 172.94 L 110.83 171.88 C 110.78 170.78 109.86 169.93 108.76 169.98 C 107.67 170.03 106.82 170.96 106.87 172.05 Z M 106.91 173.11 L 106.95 174.13 C 107.00 175.23 107.93 176.08 109.02 176.03 C 110.12 175.98 110.97 175.06 110.92 173.96 L 110.88 172.94 C 110.83 171.85 109.90 171.00 108.81 171.05 C 107.71 171.09 106.86 172.02 106.91 173.11 Z M 106.95 174.13 L 107.00 175.11 C 107.04 176.21 107.97 177.06 109.06 177.02 C 110.16 176.97 111.01 176.04 110.96 174.95 L 110.92 173.97 C 110.88 172.87 109.95 172.02 108.85 172.06 C 107.76 172.11 106.91 173.04 106.95 174.13 Z M 106.99 175.11 L 107.03 176.07 C 107.08 177.16 108.00 178.01 109.10 177.97 C 110.20 177.92 111.05 177.00 111.00 175.90 L 110.96 174.95 C 110.92 173.85 109.99 173.00 108.90 173.05 C 107.80 173.09 106.95 174.02 106.99 175.11 Z M 107.03 176.07 L 107.07 177.00 C 107.12 178.09 108.04 178.94 109.14 178.90 C 110.23 178.86 111.08 177.93 111.04 176.84 L 111.00 175.90 C 110.96 174.81 110.03 173.96 108.94 174.00 C 107.84 174.05 106.99 174.97 107.03 176.07 Z M 107.07 177.00 L 107.11 177.91 C 107.15 179.01 108.08 179.86 109.17 179.81 C 110.27 179.77 111.12 178.85 111.08 177.75 L 111.04 176.84 C 111.00 175.74 110.07 174.89 108.98 174.93 C 107.88 174.98 107.03 175.90 107.07 177.00 Z M 107.11 177.91 L 107.14 178.82 C 107.19 179.91 108.11 180.76 109.21 180.72 C 110.30 180.68 111.16 179.75 111.11 178.66 L 111.08 177.75 C 111.03 176.65 110.11 175.80 109.01 175.85 C 107.92 175.89 107.06 176.81 107.11 177.91 Z M 107.14 178.82 L 107.18 179.78 C 107.23 180.88 108.15 181.73 109.25 181.69 C 110.34 181.64 111.20 180.72 111.15 179.62 L 111.11 178.66 C 111.07 177.56 110.15 176.71 109.05 176.75 C 107.95 176.79 107.10 177.72 107.14 178.82 Z M 107.18 179.78 L 107.22 180.78 C 107.27 181.88 108.19 182.73 109.29 182.69 C 110.38 182.64 111.24 181.72 111.19 180.62 L 111.15 179.62 C 111.11 178.53 110.18 177.67 109.09 177.72 C 107.99 177.76 107.14 178.69 107.18 179.78 Z M 107.22 180.78 L 107.26 181.78 C 107.31 182.88 108.23 183.73 109.33 183.69 C 110.42 183.64 111.28 182.72 111.23 181.62 L 111.19 180.62 C 111.15 179.53 110.22 178.67 109.13 178.72 C 108.03 178.76 107.18 179.69 107.22 180.78 Z M 107.26 181.78 L 107.30 182.78 C 107.35 183.88 108.27 184.73 109.37 184.69 C 110.46 184.64 111.32 183.72 111.27 182.62 L 111.23 181.62 C 111.19 180.53 110.26 179.67 109.17 179.72 C 108.07 179.76 107.22 180.68 107.26 181.78 Z M 107.30 182.78 L 107.34 183.78 C 107.39 184.88 108.31 185.73 109.41 185.69 C 110.50 185.64 111.36 184.72 111.31 183.62 L 111.27 182.62 C 111.23 181.53 110.30 180.67 109.21 180.72 C 108.11 180.76 107.26 181.68 107.30 182.78 Z M 107.34 183.78 L 107.38 184.78 C 107.43 185.88 108.35 186.73 109.45 186.69 C 110.54 186.64 111.40 185.72 111.35 184.62 L 111.31 183.62 C 111.27 182.52 110.34 181.67 109.25 181.71 C 108.15 181.76 107.30 182.68 107.34 183.78 Z M 107.38 184.78 L 107.42 185.78 C 107.46 186.88 108.39 187.73 109.49 187.69 C 110.58 187.64 111.44 186.72 111.39 185.62 L 111.35 184.62 C 111.31 183.52 110.38 182.67 109.29 182.71 C 108.19 182.76 107.34 183.68 107.38 184.78 Z M 107.42 185.78 L 107.46 186.78 C 107.50 187.87 108.43 188.73 109.53 188.68 C 110.62 188.64 111.48 187.72 111.43 186.62 L 111.39 185.62 C 111.35 184.52 110.43 183.67 109.33 183.71 C 108.23 183.76 107.38 184.68 107.42 185.78 Z M 107.46 186.78 L 107.50 187.78 C 107.54 188.87 108.47 189.73 109.57 189.68 C 110.66 189.64 111.52 188.71 111.47 187.62 L 111.43 186.62 C 111.39 185.52 110.47 184.67 109.37 184.71 C 108.27 184.76 107.42 185.68 107.46 186.78 Z M 107.50 187.78 L 107.54 188.78 C 107.58 189.87 108.51 190.73 109.61 190.68 C 110.70 190.64 111.56 189.71 111.51 188.62 L 111.47 187.62 C 111.43 186.52 110.50 185.67 109.41 185.71 C 108.31 185.75 107.46 186.68 107.50 187.78 Z M 107.54 188.78 L 107.58 189.78 C 107.63 190.87 108.55 191.73 109.65 191.68 C 110.75 191.64 111.60 190.71 111.56 189.61 L 111.51 188.61 C 111.47 187.52 110.54 186.66 109.45 186.71 C 108.35 186.75 107.50 187.68 107.54 188.78 Z M 107.58 189.78 L 107.62 190.78 C 107.67 191.88 108.60 192.73 109.70 192.68 C 110.79 192.63 111.64 191.71 111.60 190.61 L 111.56 189.61 C 111.51 188.51 110.58 187.66 109.48 187.71 C 108.39 187.75 107.53 188.68 107.58 189.78 Z M 107.62 190.78 L 107.67 191.78 C 107.72 192.88 108.65 193.73 109.74 193.68 C 110.84 193.63 111.69 192.70 111.64 191.60 L 111.60 190.61 C 111.55 189.51 110.62 188.66 109.52 188.71 C 108.43 188.76 107.58 189.68 107.62 190.78 Z M 107.67 191.79 L 107.72 192.79 C 107.77 193.88 108.70 194.73 109.80 194.68 C 110.89 194.63 111.74 193.70 111.69 192.60 L 111.64 191.60 C 111.59 190.50 110.66 189.65 109.56 189.71 C 108.46 189.76 107.62 190.69 107.67 191.79 Z M 107.72 192.79 L 107.77 193.79 C 107.82 194.89 108.75 195.73 109.85 195.68 C 110.95 195.62 111.79 194.69 111.74 193.59 L 111.69 192.59 C 111.63 191.49 110.70 190.65 109.60 190.70 C 108.51 190.76 107.66 191.69 107.72 192.79 Z M 107.77 193.80 L 107.82 194.80 C 107.88 195.89 108.82 196.74 109.91 196.68 C 111.01 196.62 111.85 195.68 111.79 194.58 L 111.74 193.58 C 111.68 192.49 110.74 191.64 109.65 191.70 C 108.55 191.76 107.71 192.70 107.77 193.80 Z M 107.82 194.81 L 107.88 195.80 C 107.94 196.90 108.88 197.74 109.98 197.68 C 111.08 197.61 111.91 196.67 111.85 195.57 L 111.79 194.57 C 111.73 193.48 110.79 192.64 109.69 192.70 C 108.59 192.77 107.76 193.71 107.82 194.81 Z M 107.88 195.81 L 107.94 196.82 C 108.01 197.91 108.96 198.75 110.05 198.68 C 111.15 198.61 111.98 197.66 111.91 196.57 L 111.85 195.56 C 111.78 194.47 110.84 193.63 109.74 193.70 C 108.64 193.77 107.81 194.72 107.88 195.81 Z M 107.94 196.83 L 108.01 197.83 C 108.08 198.93 109.03 199.75 110.13 199.68 C 111.23 199.61 112.06 198.66 111.98 197.56 L 111.91 196.56 C 111.84 195.46 110.89 194.63 109.79 194.71 C 108.70 194.78 107.87 195.73 107.94 196.83 Z M 108.01 197.84 L 108.08 198.84 C 108.16 199.94 109.12 200.76 110.21 200.68 C 111.31 200.60 112.13 199.65 112.05 198.55 L 111.98 197.55 C 111.90 196.45 110.95 195.63 109.85 195.71 C 108.75 195.79 107.93 196.74 108.01 197.84 Z M 108.08 198.85 L 108.16 199.85 C 108.25 200.95 109.21 201.77 110.30 201.68 C 111.40 201.59 112.22 200.64 112.13 199.54 L 112.05 198.54 C 111.97 197.45 111.01 196.63 109.91 196.71 C 108.82 196.80 108.00 197.75 108.08 198.85 Z M 108.16 199.86 L 108.25 200.86 C 108.34 201.95 109.30 202.77 110.39 202.68 C 111.49 202.59 112.30 201.62 112.21 200.53 L 112.13 199.53 C 112.04 198.44 111.08 197.62 109.98 197.71 C 108.89 197.80 108.07 198.76 108.16 199.86 Z M 108.25 200.87 L 108.33 201.86 C 108.43 202.96 109.40 203.77 110.49 203.67 C 111.59 203.57 112.40 202.61 112.30 201.51 L 112.21 200.52 C 112.12 199.42 111.15 198.61 110.05 198.71 C 108.96 198.81 108.15 199.77 108.25 200.87 Z M 108.33 201.87 L 108.43 202.86 C 108.53 203.96 109.50 204.76 110.59 204.66 C 111.69 204.56 112.49 203.59 112.39 202.49 L 112.30 201.50 C 112.20 200.41 111.23 199.60 110.13 199.70 C 109.04 199.81 108.23 200.78 108.33 201.87 Z M 108.43 202.87 L 108.53 203.86 C 108.63 204.95 109.61 205.75 110.70 205.64 C 111.80 205.54 112.60 204.56 112.49 203.47 L 112.39 202.48 C 112.28 201.39 111.31 200.59 110.21 200.70 C 109.12 200.80 108.32 201.78 108.43 202.87 Z M 108.53 203.87 L 108.61 204.70 C 108.73 205.80 109.71 206.59 110.80 206.48 C 111.89 206.36 112.69 205.38 112.57 204.29 L 112.49 203.46 C 112.37 202.36 111.39 201.57 110.30 201.68 C 109.21 201.80 108.41 202.78 108.53 203.87 Z M 108.61 204.72 L 108.71 205.54 C 108.83 206.63 109.82 207.42 110.91 207.29 C 112.00 207.17 112.79 206.18 112.66 205.09 L 112.57 204.27 C 112.45 203.18 111.46 202.39 110.37 202.52 C 109.28 202.64 108.49 203.62 108.61 204.72 Z M 108.71 205.56 L 108.81 206.40 C 108.95 207.49 109.94 208.26 111.04 208.13 C 112.13 207.99 112.90 207.00 112.77 205.90 L 112.66 205.07 C 112.53 203.98 111.53 203.20 110.44 203.34 C 109.35 203.47 108.57 204.47 108.71 205.56 Z M 108.82 206.43 L 108.94 207.29 C 109.09 208.38 110.10 209.14 111.19 208.99 C 112.28 208.84 113.04 207.83 112.88 206.74 L 112.76 205.87 C 112.61 204.79 111.60 204.03 110.51 204.18 C 109.43 204.33 108.67 205.34 108.82 206.43 Z M 108.94 207.32 L 109.09 208.23 C 109.26 209.32 110.28 210.06 111.36 209.89 C 112.45 209.72 113.19 208.70 113.02 207.61 L 112.88 206.71 C 112.71 205.62 111.69 204.88 110.60 205.05 C 109.52 205.22 108.77 206.24 108.94 207.32 Z M 109.09 208.27 L 109.26 209.22 C 109.45 210.31 110.48 211.03 111.57 210.84 C 112.65 210.65 113.37 209.62 113.18 208.54 L 113.01 207.58 C 112.82 206.49 111.79 205.77 110.71 205.96 C 109.63 206.15 108.90 207.18 109.09 208.27 Z M 109.27 209.26 L 109.47 210.28 C 109.68 211.36 110.72 212.07 111.80 211.86 C 112.88 211.65 113.59 210.60 113.38 209.52 L 113.18 208.50 C 112.97 207.42 111.92 206.72 110.84 206.93 C 109.76 207.14 109.06 208.18 109.27 209.26 Z M 109.47 210.32 L 109.71 211.41 C 109.94 212.49 111.00 213.18 112.07 212.95 C 113.15 212.72 113.83 211.66 113.60 210.58 L 113.37 209.49 C 113.14 208.41 112.08 207.72 111.00 207.95 C 109.93 208.18 109.24 209.24 109.47 210.32 Z M 109.72 211.45 L 109.99 212.63 C 110.24 213.70 111.31 214.37 112.38 214.12 C 113.45 213.87 114.12 212.80 113.87 211.73 L 113.59 210.55 C 113.35 209.48 112.28 208.81 111.20 209.06 C 110.13 209.31 109.47 210.38 109.72 211.45 Z M 110.00 212.66 L 110.32 213.94 C 110.58 215.01 111.66 215.66 112.73 215.39 C 113.80 215.12 114.45 214.04 114.18 212.98 L 113.86 211.70 C 113.60 210.63 112.51 209.98 111.45 210.25 C 110.38 210.51 109.73 211.59 110.00 212.66 Z M 110.32 213.96 L 110.56 214.86 C 110.84 215.92 111.93 216.56 112.99 216.28 C 114.05 216.00 114.69 214.91 114.41 213.84 L 114.17 212.95 C 113.89 211.89 112.81 211.25 111.74 211.53 C 110.68 211.81 110.04 212.90 110.32 213.96 Z M 110.56 214.87 L 110.80 215.75 C 111.09 216.81 112.19 217.44 113.25 217.15 C 114.31 216.86 114.93 215.76 114.64 214.70 L 114.40 213.82 C 114.11 212.76 113.02 212.14 111.96 212.43 C 110.90 212.72 110.27 213.81 110.56 214.87 Z M 110.81 215.77 L 111.06 216.68 C 111.36 217.74 112.46 218.35 113.52 218.05 C 114.58 217.75 115.20 216.65 114.90 215.59 L 114.64 214.68 C 114.34 213.63 113.24 213.01 112.18 213.31 C 111.12 213.61 110.51 214.71 110.81 215.77 Z M 111.07 216.70 L 111.34 217.63 C 111.65 218.69 112.76 219.29 113.82 218.98 C 114.87 218.67 115.48 217.57 115.17 216.51 L 114.89 215.58 C 114.58 214.52 113.47 213.92 112.42 214.23 C 111.36 214.53 110.76 215.64 111.07 216.70 Z M 111.35 217.65 L 111.64 218.61 C 111.96 219.66 113.07 220.25 114.13 219.93 C 115.18 219.61 115.77 218.50 115.45 217.45 L 115.16 216.49 C 114.84 215.44 113.73 214.85 112.67 215.17 C 111.62 215.49 111.03 216.60 111.35 217.65 Z M 111.65 218.63 L 111.95 219.60 C 112.29 220.65 113.40 221.23 114.45 220.90 C 115.50 220.57 116.08 219.45 115.75 218.40 L 115.45 217.43 C 115.11 216.38 113.99 215.80 112.95 216.13 C 111.90 216.46 111.32 217.58 111.65 218.63 Z M 111.96 219.62 L 112.28 220.61 C 112.63 221.65 113.75 222.22 114.80 221.88 C 115.84 221.54 116.41 220.41 116.07 219.37 L 115.75 218.38 C 115.40 217.34 114.28 216.77 113.23 217.11 C 112.19 217.45 111.62 218.58 111.96 219.62 Z M 112.29 220.63 L 112.63 221.62 C 112.98 222.66 114.12 223.22 115.16 222.86 C 116.20 222.51 116.75 221.38 116.40 220.34 L 116.06 219.34 C 115.71 218.30 114.57 217.75 113.53 218.10 C 112.49 218.46 111.94 219.59 112.29 220.63 Z M 112.64 221.65 L 112.99 222.64 C 113.36 223.67 114.50 224.22 115.53 223.85 C 116.57 223.48 117.11 222.34 116.74 221.30 L 116.39 220.31 C 116.02 219.28 114.88 218.73 113.85 219.10 C 112.81 219.47 112.27 220.61 112.64 221.65 Z M 113.00 222.66 L 113.37 223.65 C 113.75 224.68 114.90 225.21 115.93 224.83 C 116.96 224.44 117.48 223.30 117.10 222.27 L 116.73 221.28 C 116.35 220.25 115.21 219.72 114.17 220.10 C 113.14 220.49 112.62 221.63 113.00 222.66 Z M 113.38 223.68 L 113.76 224.66 C 114.16 225.68 115.31 226.19 116.34 225.80 C 117.36 225.40 117.87 224.24 117.47 223.22 L 117.09 222.24 C 116.69 221.21 115.54 220.70 114.51 221.10 C 113.49 221.50 112.98 222.65 113.38 223.68 Z M 113.77 224.69 L 114.16 225.66 C 114.58 226.67 115.74 227.16 116.76 226.75 C 117.78 226.33 118.27 225.17 117.85 224.15 L 117.46 223.19 C 117.04 222.17 115.88 221.68 114.86 222.09 C 113.84 222.51 113.35 223.67 113.77 224.69 Z M 114.18 225.69 L 114.58 226.63 C 115.02 227.65 116.19 228.11 117.20 227.68 C 118.21 227.25 118.68 226.08 118.24 225.06 L 117.84 224.12 C 117.40 223.11 116.23 222.64 115.22 223.07 C 114.21 223.51 113.74 224.68 114.18 225.69 Z M 114.60 226.67 L 115.02 227.59 C 115.47 228.59 116.65 229.04 117.65 228.59 C 118.65 228.13 119.10 226.95 118.64 225.95 L 118.23 225.03 C 117.77 224.03 116.59 223.58 115.59 224.04 C 114.59 224.49 114.14 225.67 114.60 226.67 Z M 115.04 227.63 L 115.46 228.53 C 115.94 229.52 117.13 229.93 118.12 229.46 C 119.11 228.98 119.53 227.79 119.05 226.80 L 118.63 225.91 C 118.15 224.92 116.96 224.50 115.97 224.98 C 114.98 225.45 114.56 226.64 115.04 227.63 Z M 115.49 228.57 L 115.93 229.43 C 116.43 230.41 117.63 230.79 118.61 230.29 C 119.59 229.79 119.97 228.59 119.47 227.61 L 119.03 226.75 C 118.53 225.78 117.33 225.39 116.35 225.89 C 115.37 226.39 114.98 227.59 115.49 228.57 Z M 115.96 229.49 L 116.50 230.47 C 117.04 231.43 118.25 231.78 119.21 231.25 C 120.17 230.72 120.52 229.50 119.99 228.54 L 119.44 227.56 C 118.91 226.59 117.70 226.25 116.73 226.78 C 115.77 227.31 115.42 228.52 115.96 229.49 Z M 116.54 230.54 L 117.16 231.55 C 117.73 232.49 118.95 232.79 119.89 232.22 C 120.83 231.65 121.13 230.42 120.56 229.48 L 119.95 228.47 C 119.37 227.53 118.15 227.24 117.21 227.81 C 116.27 228.38 115.97 229.60 116.54 230.54 Z M 117.21 231.62 L 117.84 232.56 C 118.45 233.47 119.68 233.72 120.60 233.11 C 121.51 232.49 121.75 231.26 121.14 230.35 L 120.51 229.41 C 119.90 228.50 118.66 228.25 117.75 228.86 C 116.84 229.48 116.59 230.71 117.21 231.62 Z M 117.89 232.64 L 118.54 233.51 C 119.19 234.39 120.44 234.58 121.32 233.92 C 122.20 233.27 122.38 232.02 121.73 231.14 L 121.08 230.27 C 120.43 229.39 119.18 229.20 118.30 229.86 C 117.42 230.51 117.24 231.76 117.89 232.64 Z M 118.60 233.59 L 119.27 234.39 C 119.96 235.24 121.22 235.36 122.06 234.66 C 122.91 233.97 123.03 232.71 122.33 231.87 L 121.67 231.06 C 120.97 230.22 119.72 230.10 118.87 230.79 C 118.03 231.49 117.90 232.74 118.60 233.59 Z M 119.34 234.47 L 120.02 235.21 C 120.76 236.02 122.01 236.07 122.82 235.33 C 123.63 234.59 123.68 233.34 122.94 232.53 L 122.26 231.79 C 121.52 230.98 120.26 230.93 119.46 231.67 C 118.65 232.41 118.60 233.67 119.34 234.47 Z M 120.10 235.29 L 120.79 235.97 C 121.58 236.74 122.83 236.72 123.60 235.93 C 124.36 235.15 124.34 233.89 123.56 233.13 L 122.86 232.45 C 122.08 231.69 120.82 231.70 120.06 232.49 C 119.29 233.27 119.31 234.53 120.10 235.29 Z M 120.88 236.05 L 121.59 236.67 C 122.42 237.38 123.67 237.29 124.39 236.47 C 125.10 235.64 125.02 234.39 124.19 233.67 L 123.47 233.05 C 122.65 232.34 121.40 232.43 120.68 233.25 C 119.96 234.08 120.05 235.33 120.88 236.05 Z M 121.69 236.74 L 122.42 237.30 C 123.28 237.97 124.53 237.80 125.19 236.93 C 125.86 236.07 125.69 234.82 124.83 234.16 L 124.10 233.60 C 123.23 232.93 121.98 233.10 121.32 233.96 C 120.65 234.83 120.82 236.08 121.69 236.74 Z M 122.51 237.37 L 123.26 237.87 C 124.17 238.48 125.40 238.24 126.01 237.34 C 126.62 236.43 126.38 235.20 125.47 234.59 L 124.73 234.09 C 123.82 233.48 122.59 233.72 121.98 234.62 C 121.37 235.53 121.61 236.76 122.51 237.37 Z M 123.36 237.94 L 124.13 238.38 C 125.07 238.94 126.28 238.62 126.83 237.68 C 127.39 236.74 127.07 235.53 126.13 234.98 L 125.37 234.53 C 124.43 233.97 123.21 234.29 122.66 235.23 C 122.11 236.17 122.42 237.38 123.36 237.94 Z M 124.23 238.44 L 125.01 238.84 C 125.98 239.33 127.17 238.94 127.67 237.97 C 128.16 236.99 127.77 235.81 126.80 235.31 L 126.02 234.92 C 125.05 234.42 123.86 234.81 123.37 235.79 C 122.87 236.76 123.26 237.95 124.23 238.44 Z M 125.13 238.89 L 125.98 239.26 C 126.98 239.69 128.15 239.22 128.58 238.22 C 129.01 237.22 128.54 236.06 127.54 235.63 L 126.68 235.26 C 125.68 234.83 124.52 235.29 124.09 236.29 C 123.66 237.30 124.12 238.46 125.13 238.89 Z M 126.11 239.30 L 127.09 239.64 C 128.12 240.00 129.24 239.46 129.60 238.43 C 129.96 237.41 129.42 236.28 128.39 235.92 L 127.41 235.58 C 126.38 235.22 125.26 235.76 124.90 236.79 C 124.54 237.82 125.08 238.94 126.11 239.30 Z M 127.23 239.68 L 128.22 239.95 C 129.27 240.23 130.35 239.61 130.63 238.56 C 130.92 237.51 130.29 236.44 129.25 236.15 L 128.25 235.89 C 127.20 235.60 126.13 236.23 125.84 237.27 C 125.56 238.32 126.18 239.40 127.23 239.68 Z M 128.37 239.98 L 129.37 240.17 C 130.43 240.37 131.46 239.68 131.66 238.61 C 131.87 237.55 131.17 236.52 130.11 236.32 L 129.10 236.13 C 128.04 235.92 127.01 236.62 126.81 237.68 C 126.60 238.75 127.30 239.77 128.37 239.98 Z M 129.51 240.19 L 130.52 240.30 C 131.59 240.43 132.56 239.66 132.69 238.58 C 132.81 237.51 132.04 236.54 130.97 236.42 L 129.96 236.30 C 128.89 236.18 127.92 236.95 127.79 238.02 C 127.67 239.09 128.44 240.06 129.51 240.19 Z M 130.67 240.31 L 131.67 240.35 C 132.74 240.39 133.65 239.55 133.69 238.47 C 133.73 237.40 132.90 236.49 131.82 236.45 L 130.82 236.41 C 129.74 236.37 128.83 237.21 128.79 238.28 C 128.75 239.36 129.59 240.27 130.67 240.31 Z M 131.82 240.35 L 132.81 240.31 C 133.88 240.27 134.72 239.36 134.68 238.28 C 134.64 237.21 133.73 236.37 132.66 236.41 L 131.67 236.45 C 130.59 236.49 129.75 237.40 129.79 238.47 C 129.84 239.55 130.74 240.39 131.82 240.35 Z M 132.96 240.29 L 133.94 240.17 C 135.00 240.05 135.76 239.08 135.64 238.01 C 135.51 236.95 134.54 236.19 133.48 236.31 L 132.50 236.43 C 131.44 236.56 130.67 237.52 130.80 238.59 C 130.93 239.66 131.90 240.42 132.96 240.29 Z M 134.10 240.14 L 135.05 239.95 C 136.10 239.73 136.77 238.71 136.56 237.66 C 136.34 236.61 135.32 235.93 134.27 236.15 L 133.32 236.34 C 132.27 236.56 131.59 237.58 131.81 238.63 C 132.02 239.68 133.05 240.36 134.10 240.14 Z M 135.21 239.90 L 136.13 239.63 C 137.16 239.32 137.74 238.25 137.44 237.22 C 137.13 236.20 136.06 235.61 135.03 235.92 L 134.11 236.19 C 133.08 236.50 132.50 237.57 132.80 238.60 C 133.11 239.62 134.19 240.21 135.21 239.90 Z M 136.30 239.57 L 137.18 239.22 C 138.17 238.82 138.65 237.70 138.26 236.71 C 137.86 235.72 136.74 235.24 135.75 235.63 L 134.87 235.98 C 133.88 236.37 133.40 237.50 133.79 238.49 C 134.18 239.48 135.31 239.96 136.30 239.57 Z M 137.33 239.14 L 138.15 238.73 C 139.10 238.25 139.48 237.09 139.00 236.14 C 138.52 235.19 137.37 234.81 136.42 235.29 L 135.60 235.70 C 134.65 236.18 134.27 237.34 134.75 238.29 C 135.23 239.24 136.38 239.62 137.33 239.14 Z M 138.29 238.65 L 139.08 238.16 C 139.98 237.61 140.26 236.43 139.71 235.52 C 139.15 234.62 137.97 234.34 137.07 234.89 L 136.28 235.37 C 135.38 235.93 135.09 237.11 135.65 238.01 C 136.20 238.92 137.38 239.20 138.29 238.65 Z M 139.19 238.08 L 139.95 237.53 C 140.81 236.91 141.00 235.71 140.38 234.85 C 139.76 234.00 138.56 233.81 137.71 234.43 L 136.95 234.98 C 136.09 235.60 135.90 236.79 136.52 237.65 C 137.14 238.50 138.34 238.70 139.19 238.08 Z M 140.05 237.44 L 140.79 236.83 C 141.59 236.15 141.70 234.95 141.03 234.14 C 140.35 233.33 139.15 233.23 138.34 233.90 L 137.61 234.51 C 136.80 235.19 136.69 236.39 137.37 237.20 C 138.04 238.01 139.24 238.12 140.05 237.44 Z M 140.87 236.75 L 141.58 236.08 C 142.34 235.36 142.37 234.15 141.65 233.39 C 140.93 232.62 139.73 232.59 138.96 233.31 L 138.25 233.98 C 137.49 234.71 137.46 235.91 138.18 236.67 C 138.90 237.44 140.11 237.47 140.87 236.75 Z M 141.65 236.00 L 142.33 235.28 C 143.05 234.52 143.02 233.31 142.26 232.59 C 141.50 231.87 140.30 231.91 139.58 232.67 L 138.89 233.39 C 138.17 234.15 138.20 235.35 138.96 236.07 C 139.72 236.79 140.93 236.76 141.65 236.00 Z M 142.39 235.21 L 143.06 234.43 C 143.74 233.64 143.65 232.44 142.86 231.76 C 142.07 231.08 140.88 231.17 140.19 231.96 L 139.52 232.74 C 138.84 233.53 138.93 234.72 139.72 235.40 C 140.51 236.09 141.71 236.00 142.39 235.21 Z M 143.10 234.37 L 143.76 233.54 C 144.40 232.73 144.27 231.54 143.45 230.89 C 142.64 230.25 141.45 230.38 140.80 231.20 L 140.15 232.02 C 139.50 232.84 139.64 234.02 140.45 234.67 C 141.27 235.32 142.46 235.18 143.10 234.37 Z M 143.79 233.49 L 144.43 232.62 C 145.05 231.79 144.87 230.61 144.04 229.99 C 143.20 229.37 142.03 229.55 141.41 230.39 L 140.77 231.25 C 140.15 232.09 140.33 233.27 141.16 233.88 C 142.00 234.50 143.17 234.32 143.79 233.49 Z M 144.46 232.57 L 145.09 231.66 C 145.68 230.82 145.47 229.65 144.62 229.06 C 143.77 228.46 142.61 228.67 142.01 229.52 L 141.38 230.43 C 140.79 231.28 141.00 232.45 141.85 233.04 C 142.70 233.63 143.87 233.42 144.46 232.57 Z M 145.11 231.63 L 145.69 230.76 C 146.26 229.90 146.02 228.74 145.16 228.17 C 144.30 227.60 143.14 227.83 142.57 228.70 L 142.00 229.56 C 141.42 230.42 141.66 231.58 142.52 232.15 C 143.38 232.72 144.54 232.49 145.11 231.63 Z M 145.70 230.73 L 146.24 229.88 C 146.80 229.01 146.54 227.85 145.67 227.30 C 144.80 226.75 143.65 227.00 143.10 227.87 L 142.55 228.73 C 142.00 229.60 142.26 230.75 143.13 231.30 C 143.99 231.86 145.15 231.60 145.70 230.73 Z M 146.26 229.85 L 146.79 228.98 C 147.33 228.10 147.06 226.95 146.18 226.42 C 145.31 225.88 144.16 226.15 143.62 227.03 L 143.08 227.90 C 142.55 228.78 142.82 229.92 143.70 230.46 C 144.57 231.00 145.72 230.73 146.26 229.85 Z M 146.80 228.95 L 147.33 228.07 C 147.86 227.19 147.57 226.04 146.69 225.52 C 145.81 224.99 144.67 225.28 144.14 226.16 L 143.61 227.05 C 143.09 227.93 143.37 229.07 144.26 229.60 C 145.14 230.12 146.28 229.84 146.80 228.95 Z M 147.34 228.05 L 147.86 227.15 C 148.37 226.26 148.07 225.13 147.19 224.61 C 146.30 224.10 145.16 224.40 144.65 225.29 L 144.13 226.19 C 143.62 227.07 143.92 228.21 144.81 228.72 C 145.69 229.23 146.83 228.93 147.34 228.05 Z M 147.87 227.13 L 148.38 226.23 C 148.88 225.34 148.57 224.21 147.67 223.71 C 146.78 223.20 145.65 223.52 145.15 224.41 L 144.64 225.31 C 144.14 226.20 144.45 227.33 145.34 227.83 C 146.24 228.34 147.37 228.02 147.87 227.13 Z M 148.38 226.21 L 148.88 225.31 C 149.37 224.42 149.05 223.29 148.15 222.80 C 147.26 222.31 146.13 222.63 145.64 223.53 L 145.14 224.43 C 144.65 225.32 144.98 226.44 145.87 226.94 C 146.77 227.43 147.89 227.11 148.38 226.21 Z M 148.88 225.30 L 149.37 224.40 C 149.85 223.50 149.52 222.38 148.62 221.90 C 147.72 221.42 146.60 221.75 146.12 222.65 L 145.64 223.54 C 145.15 224.44 145.49 225.56 146.38 226.04 C 147.28 226.53 148.40 226.19 148.88 225.30 Z M 149.37 224.39 L 149.84 223.50 C 150.32 222.60 149.97 221.49 149.07 221.01 C 148.17 220.54 147.06 220.88 146.58 221.78 L 146.12 222.66 C 145.64 223.56 145.98 224.68 146.88 225.15 C 147.78 225.63 148.89 225.29 149.37 224.39 Z M 149.84 223.49 L 150.29 222.62 C 150.76 221.72 150.41 220.61 149.51 220.14 C 148.61 219.67 147.50 220.02 147.03 220.92 L 146.58 221.79 C 146.11 222.69 146.46 223.80 147.36 224.27 C 148.26 224.74 149.37 224.39 149.84 223.49 Z M 150.30 222.61 L 150.73 221.76 C 151.19 220.86 150.84 219.75 149.93 219.29 C 149.03 218.83 147.93 219.19 147.46 220.09 L 147.03 220.94 C 146.57 221.84 146.92 222.94 147.83 223.41 C 148.73 223.87 149.83 223.51 150.30 222.61 Z M 150.73 221.75 L 151.15 220.93 C 151.60 220.02 151.24 218.92 150.34 218.47 C 149.44 218.01 148.33 218.37 147.88 219.28 L 147.46 220.10 C 147.01 221.00 147.37 222.10 148.27 222.56 C 149.17 223.02 150.28 222.65 150.73 221.75 Z M 151.15 220.92 L 151.63 219.94 C 152.09 219.04 151.72 217.94 150.81 217.49 C 149.91 217.04 148.81 217.41 148.36 218.31 L 147.88 219.29 C 147.43 220.19 147.79 221.29 148.70 221.74 C 149.60 222.19 150.70 221.82 151.15 220.92 Z M 151.64 219.93 L 152.14 218.91 C 152.58 218.00 152.21 216.91 151.30 216.47 C 150.40 216.02 149.31 216.40 148.86 217.30 L 148.36 218.33 C 147.92 219.23 148.29 220.32 149.20 220.77 C 150.10 221.21 151.19 220.84 151.64 219.93 Z M 152.14 218.89 L 152.61 217.92 C 153.04 217.01 152.66 215.93 151.75 215.49 C 150.85 215.06 149.76 215.44 149.33 216.34 L 148.86 217.32 C 148.42 218.22 148.81 219.31 149.71 219.75 C 150.62 220.18 151.70 219.80 152.14 218.89 Z M 152.61 217.90 L 153.05 216.97 C 153.47 216.06 153.08 214.98 152.17 214.56 C 151.27 214.13 150.19 214.52 149.76 215.43 L 149.32 216.36 C 148.90 217.27 149.29 218.35 150.20 218.78 C 151.10 219.20 152.19 218.81 152.61 217.90 Z M 153.05 216.95 L 153.46 216.05 C 153.88 215.14 153.48 214.07 152.57 213.65 C 151.66 213.24 150.58 213.64 150.17 214.55 L 149.76 215.45 C 149.34 216.36 149.74 217.43 150.65 217.85 C 151.56 218.26 152.64 217.86 153.05 216.95 Z M 153.47 216.03 L 153.85 215.16 C 154.25 214.25 153.84 213.18 152.93 212.78 C 152.02 212.38 150.95 212.79 150.55 213.70 L 150.16 214.57 C 149.76 215.48 150.17 216.55 151.08 216.95 C 152.00 217.36 153.06 216.95 153.47 216.03 Z M 153.86 215.14 L 154.22 214.29 C 154.61 213.38 154.19 212.32 153.27 211.93 C 152.36 211.54 151.30 211.96 150.90 212.88 L 150.54 213.72 C 150.15 214.64 150.57 215.70 151.49 216.09 C 152.40 216.48 153.46 216.06 153.86 215.14 Z M 154.22 214.27 L 154.57 213.44 C 154.95 212.52 154.51 211.47 153.59 211.09 C 152.67 210.71 151.62 211.15 151.24 212.07 L 150.90 212.90 C 150.52 213.82 150.96 214.87 151.88 215.25 C 152.79 215.62 153.84 215.19 154.22 214.27 Z M 154.57 213.41 L 154.90 212.59 C 155.27 211.67 154.82 210.62 153.89 210.26 C 152.97 209.89 151.93 210.34 151.57 211.26 L 151.24 212.09 C 150.87 213.01 151.32 214.05 152.24 214.42 C 153.16 214.78 154.21 214.33 154.57 213.41 Z M 154.91 212.56 L 155.26 211.64 C 155.61 210.72 155.15 209.68 154.22 209.33 C 153.30 208.98 152.26 209.44 151.91 210.37 L 151.56 211.29 C 151.21 212.21 151.67 213.25 152.60 213.60 C 153.52 213.95 154.55 213.49 154.91 212.56 Z M 155.26 211.62 L 155.61 210.67 C 155.95 209.74 155.47 208.72 154.54 208.38 C 153.62 208.04 152.59 208.52 152.25 209.44 L 151.91 210.39 C 151.57 211.32 152.04 212.34 152.97 212.68 C 153.90 213.02 154.92 212.54 155.26 211.62 Z M 155.61 210.65 L 155.95 209.70 C 156.27 208.77 155.78 207.75 154.85 207.43 C 153.92 207.10 152.91 207.59 152.58 208.52 L 152.25 209.46 C 151.92 210.39 152.41 211.41 153.34 211.74 C 154.27 212.07 155.29 211.58 155.61 210.65 Z M 155.95 209.68 L 156.27 208.74 C 156.59 207.81 156.09 206.79 155.16 206.48 C 154.23 206.16 153.22 206.66 152.90 207.59 L 152.58 208.54 C 152.26 209.47 152.76 210.48 153.69 210.80 C 154.62 211.11 155.63 210.62 155.95 209.68 Z M 156.27 208.72 L 156.59 207.78 C 156.90 206.84 156.39 205.84 155.46 205.53 C 154.53 205.22 153.52 205.72 153.21 206.66 L 152.90 207.60 C 152.59 208.54 153.09 209.54 154.03 209.85 C 154.96 210.16 155.96 209.66 156.27 208.72 Z M 156.59 207.77 L 156.90 206.82 C 157.20 205.89 156.69 204.88 155.75 204.58 C 154.82 204.28 153.82 204.79 153.52 205.72 L 153.21 206.67 C 152.91 207.60 153.42 208.60 154.35 208.91 C 155.28 209.21 156.29 208.70 156.59 207.77 Z M 156.90 206.81 L 157.20 205.87 C 157.50 204.93 156.98 203.93 156.05 203.63 C 155.12 203.34 154.12 203.85 153.82 204.78 L 153.52 205.73 C 153.22 206.66 153.73 207.66 154.66 207.96 C 155.60 208.26 156.60 207.75 156.90 206.81 Z M 157.20 205.86 L 157.49 204.93 C 157.79 204.00 157.28 203.00 156.34 202.70 C 155.41 202.41 154.41 202.92 154.12 203.85 L 153.82 204.79 C 153.52 205.72 154.04 206.72 154.97 207.01 C 155.90 207.31 156.90 206.79 157.20 205.86 Z M 157.49 204.93 L 157.76 204.10 C 158.05 203.17 157.54 202.17 156.61 201.88 C 155.68 201.58 154.68 202.09 154.38 203.03 L 154.12 203.86 C 153.82 204.79 154.34 205.78 155.27 206.08 C 156.20 206.38 157.20 205.86 157.49 204.93 Z M 157.76 204.10 L 158.02 203.26 C 158.32 202.33 157.80 201.33 156.87 201.04 C 155.94 200.74 154.95 201.25 154.65 202.19 L 154.38 203.03 C 154.09 203.96 154.60 204.95 155.53 205.25 C 156.47 205.54 157.46 205.03 157.76 204.10 Z M 158.02 203.26 L 158.30 202.39 C 158.59 201.46 158.08 200.47 157.15 200.17 C 156.22 199.88 155.22 200.39 154.93 201.32 L 154.65 202.19 C 154.36 203.12 154.87 204.11 155.80 204.40 C 156.73 204.70 157.73 204.19 158.02 203.26 Z M 158.29 202.39 L 158.58 201.50 C 158.87 200.57 158.36 199.58 157.43 199.28 C 156.50 198.99 155.51 199.50 155.21 200.43 L 154.93 201.33 C 154.63 202.25 155.15 203.25 156.08 203.54 C 157.01 203.84 158.00 203.32 158.29 202.39 Z M 158.58 201.50 L 158.87 200.57 C 159.16 199.64 158.65 198.65 157.72 198.35 C 156.79 198.06 155.80 198.57 155.51 199.50 L 155.21 200.43 C 154.92 201.36 155.43 202.35 156.36 202.65 C 157.29 202.94 158.28 202.43 158.58 201.50 Z M 158.87 200.56 L 159.18 199.58 C 159.47 198.65 158.96 197.66 158.03 197.37 C 157.10 197.08 156.11 197.59 155.82 198.52 L 155.51 199.50 C 155.22 200.43 155.73 201.42 156.66 201.71 C 157.59 202.01 158.58 201.49 158.87 200.56 Z M 159.18 199.58 L 159.51 198.54 C 159.80 197.61 159.28 196.62 158.35 196.33 C 157.43 196.04 156.44 196.55 156.15 197.48 L 155.82 198.52 C 155.53 199.45 156.04 200.44 156.97 200.73 C 157.90 201.02 158.89 200.51 159.18 199.58 Z M 159.50 198.53 L 159.85 197.42 C 160.14 196.50 159.63 195.51 158.70 195.22 C 157.77 194.93 156.79 195.44 156.50 196.37 L 156.15 197.48 C 155.86 198.41 156.37 199.40 157.30 199.69 C 158.23 199.98 159.21 199.46 159.50 198.53 Z M 159.85 197.42 L 160.18 196.37 C 160.47 195.45 159.95 194.46 159.03 194.17 C 158.10 193.88 157.12 194.40 156.83 195.32 L 156.50 196.37 C 156.21 197.30 156.72 198.28 157.65 198.57 C 158.58 198.86 159.56 198.35 159.85 197.42 Z M 160.18 196.37 L 160.44 195.55 C 160.73 194.62 160.21 193.64 159.28 193.35 C 158.36 193.06 157.37 193.57 157.08 194.50 L 156.83 195.32 C 156.54 196.25 157.05 197.23 157.98 197.52 C 158.91 197.81 159.89 197.30 160.18 196.37 Z M 160.43 195.55 L 160.70 194.69 C 160.99 193.76 160.47 192.78 159.55 192.49 C 158.62 192.20 157.64 192.72 157.35 193.64 L 157.09 194.50 C 156.80 195.43 157.31 196.41 158.24 196.70 C 159.16 196.99 160.15 196.47 160.43 195.55 Z M 160.70 194.69 L 160.98 193.80 C 161.26 192.88 160.75 191.89 159.82 191.61 C 158.90 191.32 157.92 191.83 157.63 192.76 L 157.35 193.65 C 157.07 194.57 157.58 195.55 158.51 195.84 C 159.43 196.13 160.41 195.61 160.70 194.69 Z M 160.98 193.80 L 161.26 192.89 C 161.55 191.96 161.03 190.98 160.11 190.69 C 159.19 190.41 158.20 190.92 157.92 191.84 L 157.63 192.76 C 157.34 193.68 157.86 194.66 158.78 194.95 C 159.71 195.24 160.69 194.72 160.98 193.80 Z M 161.26 192.88 L 161.55 191.95 C 161.84 191.02 161.32 190.04 160.40 189.76 C 159.48 189.47 158.50 189.98 158.21 190.91 L 157.92 191.85 C 157.63 192.77 158.15 193.75 159.07 194.03 C 159.99 194.32 160.97 193.81 161.26 192.88 Z M 161.55 191.95 L 161.85 190.98 C 162.13 190.06 161.62 189.08 160.70 188.80 C 159.78 188.51 158.80 189.02 158.51 189.95 L 158.21 190.91 C 157.93 191.83 158.44 192.81 159.36 193.09 C 160.28 193.38 161.26 192.87 161.55 191.95 Z M 161.85 190.98 L 162.15 190.00 C 162.44 189.08 161.92 188.11 161.00 187.82 C 160.08 187.53 159.10 188.05 158.82 188.97 L 158.51 189.95 C 158.23 190.87 158.74 191.85 159.66 192.13 C 160.58 192.42 161.56 191.90 161.85 190.98 Z M 162.15 190.00 L 162.46 189.01 C 162.75 188.09 162.23 187.11 161.31 186.83 C 160.39 186.54 159.41 187.05 159.13 187.97 L 158.82 188.97 C 158.53 189.89 159.05 190.87 159.97 191.15 C 160.89 191.44 161.86 190.92 162.15 190.00 Z M 162.46 189.01 L 162.77 188.00 C 163.06 187.08 162.54 186.11 161.63 185.82 C 160.71 185.53 159.73 186.05 159.44 186.97 L 159.13 187.97 C 158.84 188.89 159.36 189.87 160.28 190.15 C 161.19 190.44 162.17 189.93 162.46 189.01 Z M 162.77 188.00 L 163.09 186.98 C 163.37 186.07 162.86 185.09 161.94 184.80 C 161.03 184.52 160.05 185.03 159.76 185.95 L 159.45 186.97 C 159.16 187.88 159.67 188.86 160.59 189.15 C 161.51 189.43 162.48 188.92 162.77 188.00 Z M 163.09 186.98 L 163.40 185.96 C 163.69 185.04 163.18 184.07 162.26 183.78 C 161.35 183.50 160.37 184.01 160.08 184.92 L 159.76 185.95 C 159.48 186.86 159.99 187.84 160.91 188.13 C 161.82 188.41 162.80 187.90 163.09 186.98 Z M 163.40 185.96 L 163.72 184.93 C 164.01 184.02 163.50 183.04 162.58 182.75 C 161.67 182.47 160.69 182.98 160.41 183.89 L 160.09 184.92 C 159.80 185.84 160.31 186.81 161.23 187.10 C 162.14 187.39 163.12 186.88 163.40 185.96 Z M 163.72 184.93 L 164.04 183.90 C 164.33 182.99 163.82 182.01 162.91 181.73 C 161.99 181.44 161.02 181.95 160.73 182.87 L 160.41 183.89 C 160.12 184.81 160.63 185.78 161.55 186.07 C 162.46 186.36 163.44 185.85 163.72 184.93 Z M 164.04 183.90 L 164.36 182.91 C 164.64 181.99 164.13 181.02 163.22 180.73 C 162.31 180.45 161.33 180.95 161.04 181.87 L 160.73 182.86 C 160.45 183.78 160.95 184.75 161.87 185.04 C 162.78 185.33 163.76 184.82 164.04 183.90 Z M 164.35 182.91 L 164.67 181.91 C 164.95 181.00 164.45 180.03 163.53 179.74 C 162.62 179.45 161.64 179.96 161.36 180.88 L 161.05 181.87 C 160.76 182.78 161.27 183.76 162.18 184.04 C 163.09 184.33 164.07 183.82 164.35 182.91 Z M 164.67 181.92 L 164.98 180.93 C 165.26 180.01 164.76 179.04 163.84 178.75 C 162.93 178.47 161.96 178.97 161.67 179.89 L 161.36 180.87 C 161.07 181.79 161.58 182.76 162.49 183.05 C 163.40 183.34 164.38 182.83 164.67 181.92 Z M 164.98 180.93 L 165.29 179.94 C 165.57 179.03 165.07 178.06 164.16 177.77 C 163.24 177.48 162.27 177.99 161.98 178.90 L 161.67 179.88 C 161.38 180.80 161.89 181.77 162.80 182.06 C 163.71 182.35 164.69 181.84 164.98 180.93 Z M 165.29 179.94 L 165.59 178.97 C 165.88 178.05 165.38 177.08 164.47 176.79 C 163.55 176.50 162.58 177.01 162.29 177.92 L 161.98 178.90 C 161.69 179.81 162.20 180.78 163.11 181.07 C 164.02 181.36 165.00 180.86 165.29 179.94 Z M 165.59 178.97 L 165.90 178.00 C 166.19 177.08 165.69 176.11 164.78 175.82 C 163.86 175.53 162.89 176.04 162.60 176.95 L 162.29 177.92 C 162.00 178.83 162.51 179.80 163.42 180.09 C 164.33 180.38 165.30 179.88 165.59 178.97 Z M 165.90 178.00 L 166.21 177.03 C 166.50 176.12 165.99 175.15 165.08 174.86 C 164.17 174.57 163.20 175.07 162.91 175.98 L 162.60 176.95 C 162.31 177.86 162.82 178.83 163.73 179.12 C 164.64 179.41 165.61 178.91 165.90 178.00 Z M 166.21 177.03 L 166.51 176.08 C 166.80 175.17 166.30 174.20 165.39 173.91 C 164.48 173.61 163.51 174.12 163.22 175.03 L 162.91 175.98 C 162.62 176.89 163.12 177.86 164.03 178.16 C 164.94 178.45 165.92 177.94 166.21 177.03 Z M 166.51 176.08 L 166.81 175.14 C 167.10 174.23 166.60 173.25 165.69 172.96 C 164.79 172.67 163.81 173.17 163.52 174.08 L 163.22 175.03 C 162.93 175.93 163.43 176.91 164.34 177.20 C 165.25 177.49 166.22 176.99 166.51 176.08 Z M 166.81 175.14 L 167.11 174.20 C 167.40 173.29 166.91 172.32 166.00 172.03 C 165.09 171.74 164.12 172.24 163.82 173.14 L 163.52 174.08 C 163.23 174.99 163.73 175.96 164.64 176.25 C 165.55 176.54 166.52 176.05 166.81 175.14 Z M 167.11 174.20 L 167.41 173.28 C 167.70 172.37 167.20 171.40 166.30 171.11 C 165.39 170.81 164.42 171.31 164.12 172.22 L 163.82 173.14 C 163.53 174.05 164.03 175.02 164.94 175.32 C 165.84 175.61 166.82 175.11 167.11 174.20 Z M 167.41 173.28 L 167.70 172.37 C 168.00 171.47 167.50 170.49 166.59 170.20 C 165.69 169.91 164.71 170.40 164.42 171.31 L 164.12 172.22 C 163.83 173.12 164.33 174.10 165.23 174.39 C 166.14 174.69 167.11 174.19 167.41 173.28 Z M 167.70 172.38 L 167.99 171.48 C 168.29 170.58 167.80 169.60 166.89 169.31 C 165.98 169.01 165.01 169.50 164.71 170.41 L 164.42 171.31 C 164.13 172.21 164.62 173.19 165.53 173.48 C 166.43 173.78 167.41 173.28 167.70 172.38 Z M 167.99 171.48 L 168.29 170.56 C 168.59 169.66 168.10 168.68 167.19 168.39 C 166.29 168.09 165.31 168.58 165.02 169.49 L 164.72 170.41 C 164.42 171.31 164.91 172.29 165.82 172.58 C 166.72 172.88 167.70 172.39 167.99 171.48 Z M 168.29 170.57 L 168.64 169.53 C 168.93 168.62 168.44 167.65 167.54 167.35 C 166.64 167.05 165.66 167.54 165.36 168.45 L 165.02 169.48 C 164.72 170.39 165.21 171.36 166.12 171.66 C 167.02 171.96 167.99 171.47 168.29 170.57 Z M 168.64 169.53 L 168.97 168.51 C 169.27 167.61 168.78 166.63 167.88 166.33 C 166.98 166.03 166.00 166.52 165.70 167.43 L 165.36 168.44 C 165.06 169.35 165.55 170.32 166.46 170.62 C 167.36 170.92 168.33 170.43 168.64 169.53 Z M 168.97 168.52 L 169.30 167.52 C 169.61 166.62 169.12 165.64 168.22 165.34 C 167.31 165.04 166.34 165.52 166.03 166.43 L 165.70 167.42 C 165.40 168.33 165.89 169.30 166.79 169.61 C 167.69 169.91 168.67 169.42 168.97 168.52 Z M 169.30 167.52 L 169.63 166.54 C 169.93 165.64 169.45 164.67 168.55 164.36 C 167.64 164.06 166.67 164.55 166.36 165.45 L 166.04 166.43 C 165.73 167.33 166.22 168.31 167.12 168.61 C 168.02 168.91 169.00 168.42 169.30 167.52 Z M 169.63 166.55 L 169.95 165.59 C 170.26 164.68 169.77 163.71 168.87 163.40 C 167.97 163.10 166.99 163.59 166.69 164.49 L 166.36 165.45 C 166.06 166.35 166.55 167.33 167.45 167.63 C 168.35 167.93 169.33 167.45 169.63 166.55 Z M 169.95 165.59 L 170.27 164.65 C 170.57 163.74 170.09 162.77 169.19 162.46 C 168.29 162.16 167.31 162.64 167.00 163.54 L 166.69 164.49 C 166.38 165.39 166.87 166.37 167.77 166.67 C 168.67 166.97 169.65 166.49 169.95 165.59 Z M 170.27 164.65 L 170.58 163.72 C 170.89 162.82 170.40 161.84 169.50 161.54 C 168.60 161.23 167.62 161.72 167.32 162.62 L 167.01 163.54 C 166.70 164.45 167.19 165.42 168.09 165.73 C 168.99 166.03 169.97 165.55 170.27 164.65 Z M 170.58 163.72 L 170.89 162.81 C 171.19 161.91 170.71 160.93 169.81 160.62 C 168.91 160.32 167.93 160.81 167.63 161.71 L 167.32 162.62 C 167.01 163.52 167.50 164.50 168.40 164.80 C 169.30 165.11 170.28 164.62 170.58 163.72 Z M 170.89 162.81 L 171.19 161.91 C 171.50 161.01 171.01 160.03 170.11 159.73 C 169.21 159.42 168.23 159.91 167.93 160.81 L 167.63 161.71 C 167.32 162.61 167.81 163.59 168.71 163.89 C 169.61 164.19 170.59 163.71 170.89 162.81 Z M 171.19 161.91 L 171.49 161.02 C 171.79 160.12 171.31 159.14 170.41 158.84 C 169.50 158.54 168.53 159.02 168.23 159.93 L 167.93 160.81 C 167.62 161.71 168.11 162.69 169.01 162.99 C 169.91 163.29 170.89 162.81 171.19 161.91 Z M 171.49 161.02 L 171.78 160.15 C 172.09 159.24 171.60 158.27 170.70 157.97 C 169.79 157.66 168.82 158.15 168.52 159.05 L 168.22 159.93 C 167.92 160.83 168.41 161.81 169.31 162.11 C 170.21 162.41 171.19 161.92 171.49 161.02 Z M 171.78 160.14 L 172.08 159.25 C 172.38 158.34 171.90 157.37 170.99 157.07 C 170.09 156.77 169.12 157.26 168.81 158.16 L 168.52 159.06 C 168.22 159.96 168.70 160.93 169.61 161.23 C 170.51 161.53 171.48 161.05 171.78 160.14 Z M 172.08 159.24 L 172.38 158.34 C 172.68 157.44 172.19 156.47 171.29 156.17 C 170.38 155.87 169.41 156.36 169.11 157.26 L 168.81 158.16 C 168.51 159.06 169.00 160.04 169.91 160.34 C 170.81 160.64 171.78 160.15 172.08 159.24 Z M 172.38 158.34 L 172.68 157.45 C 172.98 156.54 172.49 155.57 171.58 155.27 C 170.68 154.97 169.70 155.46 169.41 156.37 L 169.11 157.26 C 168.81 158.17 169.30 159.14 170.21 159.44 C 171.11 159.74 172.08 159.25 172.38 158.34 Z M 172.68 157.44 L 172.97 156.54 C 173.27 155.64 172.78 154.67 171.88 154.37 C 170.97 154.07 170.00 154.56 169.70 155.47 L 169.41 156.37 C 169.11 157.27 169.60 158.25 170.50 158.54 C 171.41 158.84 172.38 158.35 172.68 157.44 Z M 172.98 156.54 L 173.27 155.63 C 173.57 154.73 173.08 153.76 172.17 153.46 C 171.27 153.16 170.30 153.66 170.00 154.56 L 169.70 155.47 C 169.40 156.37 169.90 157.35 170.80 157.64 C 171.71 157.94 172.68 157.45 172.98 156.54 Z M 173.27 155.63 L 173.58 154.71 C 173.87 153.81 173.38 152.83 172.48 152.54 C 171.57 152.24 170.60 152.73 170.30 153.64 L 170.00 154.56 C 169.70 155.46 170.20 156.44 171.10 156.73 C 172.00 157.03 172.98 156.54 173.27 155.63 Z M 173.58 154.71 L 173.88 153.77 C 174.18 152.87 173.69 151.89 172.78 151.60 C 171.88 151.30 170.91 151.79 170.61 152.70 L 170.30 153.64 C 170.00 154.54 170.50 155.52 171.40 155.81 C 172.31 156.11 173.28 155.62 173.58 154.71 Z M 173.88 153.77 L 174.20 152.81 C 174.50 151.91 174.01 150.93 173.10 150.63 C 172.20 150.34 171.22 150.83 170.93 151.73 L 170.61 152.70 C 170.31 153.60 170.80 154.58 171.71 154.87 C 172.61 155.17 173.59 154.68 173.88 153.77 Z M 174.20 152.81 L 174.53 151.82 C 174.83 150.92 174.33 149.94 173.43 149.64 C 172.53 149.34 171.55 149.84 171.25 150.74 L 170.93 151.73 C 170.63 152.64 171.12 153.61 172.02 153.91 C 172.93 154.21 173.90 153.72 174.20 152.81 Z M 174.53 151.82 L 174.87 150.80 C 175.17 149.89 174.68 148.92 173.77 148.62 C 172.87 148.32 171.89 148.81 171.59 149.71 L 171.25 150.74 C 170.95 151.64 171.44 152.62 172.35 152.92 C 173.25 153.22 174.23 152.73 174.53 151.82 Z M 174.87 150.80 L 175.22 149.73 C 175.52 148.83 175.03 147.85 174.13 147.55 C 173.22 147.25 172.25 147.74 171.95 148.65 L 171.59 149.71 C 171.29 150.61 171.78 151.59 172.69 151.89 C 173.59 152.19 174.57 151.70 174.87 150.80 Z M 175.22 149.74 L 175.51 148.87 C 175.81 147.97 175.32 146.99 174.42 146.69 C 173.51 146.39 172.54 146.88 172.23 147.78 L 171.95 148.64 C 171.65 149.55 172.13 150.53 173.04 150.83 C 173.94 151.13 174.92 150.64 175.22 149.74 Z M 175.51 148.88 L 175.79 148.03 C 176.10 147.12 175.61 146.14 174.70 145.84 C 173.80 145.54 172.82 146.03 172.52 146.93 L 172.23 147.78 C 171.93 148.68 172.42 149.66 173.32 149.97 C 174.23 150.27 175.21 149.78 175.51 148.88 Z M 175.80 148.03 L 176.09 147.16 C 176.39 146.25 175.90 145.27 175.00 144.97 C 174.09 144.66 173.11 145.15 172.81 146.06 L 172.52 146.93 C 172.21 147.83 172.70 148.81 173.61 149.12 C 174.51 149.42 175.49 148.93 175.80 148.03 Z M 176.09 147.16 L 176.39 146.26 C 176.69 145.36 176.20 144.38 175.30 144.07 C 174.39 143.77 173.41 144.26 173.11 145.16 L 172.81 146.06 C 172.50 146.96 172.99 147.94 173.90 148.25 C 174.80 148.55 175.79 148.06 176.09 147.16 Z M 176.39 146.26 L 176.70 145.35 C 177.00 144.44 176.51 143.46 175.60 143.16 C 174.70 142.85 173.71 143.34 173.41 144.25 L 173.10 145.16 C 172.80 146.07 173.29 147.05 174.20 147.36 C 175.10 147.66 176.09 147.17 176.39 146.26 Z M 176.70 145.35 L 177.01 144.42 C 177.31 143.51 176.82 142.53 175.92 142.22 C 175.01 141.92 174.02 142.41 173.72 143.32 L 173.41 144.25 C 173.10 145.16 173.59 146.14 174.50 146.45 C 175.41 146.75 176.39 146.26 176.70 145.35 Z M 177.01 144.42 L 177.33 143.47 C 177.63 142.56 177.14 141.58 176.23 141.28 C 175.32 140.97 174.34 141.46 174.03 142.37 L 173.72 143.32 C 173.41 144.23 173.90 145.21 174.81 145.52 C 175.72 145.82 176.71 145.33 177.01 144.42 Z M 177.33 143.47 L 177.65 142.51 C 177.96 141.60 177.46 140.61 176.55 140.31 C 175.64 140.01 174.66 140.50 174.35 141.41 L 174.03 142.37 C 173.73 143.28 174.22 144.27 175.13 144.57 C 176.04 144.88 177.03 144.38 177.33 143.47 Z M 177.65 142.51 L 177.98 141.53 C 178.28 140.62 177.79 139.63 176.88 139.33 C 175.96 139.03 174.98 139.52 174.67 140.43 L 174.35 141.41 C 174.05 142.32 174.54 143.31 175.45 143.61 C 176.37 143.91 177.35 143.42 177.65 142.51 Z M 177.98 141.53 L 178.31 140.54 C 178.61 139.63 178.11 138.64 177.20 138.34 C 176.29 138.04 175.30 138.53 175.00 139.45 L 174.67 140.44 C 174.37 141.35 174.87 142.34 175.78 142.64 C 176.69 142.94 177.68 142.44 177.98 141.53 Z M 178.31 140.54 L 178.64 139.54 C 178.94 138.62 178.44 137.64 177.53 137.34 C 176.61 137.03 175.63 137.53 175.33 138.45 L 175.00 139.45 C 174.70 140.36 175.19 141.35 176.11 141.65 C 177.02 141.95 178.01 141.45 178.31 140.54 Z M 178.64 139.54 L 178.97 138.52 C 179.27 137.61 178.77 136.62 177.86 136.32 C 176.94 136.02 175.95 136.52 175.65 137.44 L 175.32 138.45 C 175.02 139.37 175.52 140.35 176.44 140.65 C 177.36 140.95 178.34 140.45 178.64 139.54 Z M 178.98 138.52 L 179.31 137.50 C 179.61 136.58 179.10 135.60 178.18 135.30 C 177.27 135.00 176.28 135.51 175.98 136.42 L 175.65 137.44 C 175.35 138.36 175.86 139.35 176.77 139.65 C 177.69 139.94 178.68 139.44 178.98 138.52 Z M 179.31 137.50 L 179.64 136.47 C 179.94 135.55 179.43 134.57 178.51 134.27 C 177.59 133.98 176.60 134.48 176.31 135.40 L 175.98 136.43 C 175.68 137.35 176.19 138.33 177.11 138.63 C 178.03 138.93 179.01 138.42 179.31 137.50 Z M 179.65 136.47 L 179.99 135.38 C 180.29 134.45 179.78 133.47 178.86 133.17 C 177.93 132.88 176.95 133.39 176.65 134.31 L 176.30 135.40 C 176.01 136.33 176.52 137.31 177.44 137.61 C 178.36 137.90 179.35 137.39 179.65 136.47 Z M 180.00 135.38 L 180.40 134.13 C 180.69 133.20 180.18 132.21 179.25 131.92 C 178.32 131.62 177.33 132.14 177.04 133.07 L 176.64 134.31 C 176.35 135.24 176.86 136.23 177.79 136.52 C 178.72 136.82 179.71 136.30 180.00 135.38 Z M 180.41 134.13 L 180.80 132.90 C 181.09 131.96 180.57 130.97 179.64 130.67 C 178.70 130.38 177.71 130.90 177.41 131.83 L 177.03 133.07 C 176.73 134.00 177.25 135.00 178.18 135.29 C 179.12 135.59 180.12 135.07 180.41 134.13 Z M 180.81 132.90 L 181.19 131.69 C 181.49 130.75 180.97 129.75 180.02 129.45 C 179.08 129.16 178.08 129.68 177.78 130.62 L 177.40 131.83 C 177.11 132.77 177.63 133.77 178.57 134.07 C 179.51 134.36 180.51 133.84 180.81 132.90 Z M 181.20 131.70 L 181.57 130.53 C 181.87 129.58 181.35 128.57 180.40 128.27 C 179.45 127.97 178.44 128.50 178.14 129.44 L 177.77 130.61 C 177.47 131.56 178.00 132.57 178.94 132.87 C 179.89 133.17 180.90 132.65 181.20 131.70 Z M 181.58 130.54 L 181.94 129.42 C 182.24 128.47 181.72 127.45 180.77 127.15 C 179.82 126.84 178.80 127.37 178.49 128.32 L 178.13 129.43 C 177.83 130.39 178.35 131.40 179.30 131.71 C 180.26 132.02 181.28 131.49 181.58 130.54 Z M 181.95 129.44 L 182.29 128.39 C 182.60 127.43 182.08 126.40 181.12 126.09 C 180.17 125.78 179.14 126.30 178.83 127.26 L 178.48 128.30 C 178.17 129.26 178.69 130.29 179.65 130.60 C 180.61 130.92 181.63 130.39 181.95 129.44 Z M 182.30 128.41 L 182.62 127.44 C 182.95 126.48 182.43 125.44 181.47 125.12 C 180.51 124.79 179.47 125.31 179.14 126.27 L 178.82 127.24 C 178.50 128.20 179.01 129.24 179.97 129.56 C 180.93 129.88 181.97 129.37 182.30 128.41 Z M 182.63 127.47 L 182.93 126.60 C 183.27 125.63 182.76 124.58 181.80 124.24 C 180.84 123.91 179.78 124.41 179.45 125.37 L 179.14 126.25 C 178.80 127.21 179.31 128.26 180.27 128.60 C 181.24 128.94 182.29 128.43 182.63 127.47 Z M 182.93 126.63 L 183.21 125.87 C 183.57 124.91 183.08 123.84 182.12 123.48 C 181.16 123.12 180.09 123.61 179.73 124.58 L 179.45 125.34 C 179.09 126.30 179.58 127.37 180.54 127.73 C 181.50 128.08 182.57 127.59 182.93 126.63 Z M 183.21 125.92 L 183.46 125.29 C 183.85 124.33 183.39 123.24 182.43 122.85 C 181.47 122.46 180.38 122.93 180.00 123.88 L 179.74 124.52 C 179.35 125.48 179.81 126.57 180.77 126.96 C 181.73 127.34 182.82 126.88 183.21 125.92 Z M 183.44 125.37 L 183.67 124.87 C 184.10 123.93 183.69 122.81 182.75 122.38 C 181.80 121.94 180.69 122.35 180.25 123.30 L 180.02 123.80 C 179.58 124.74 180.00 125.86 180.94 126.30 C 181.88 126.73 183.00 126.32 183.44 125.37 Z M 183.58 125.06 L 183.83 124.65 C 184.37 123.76 184.07 122.59 183.18 122.05 C 182.28 121.52 181.12 121.81 180.58 122.71 L 180.33 123.11 C 179.80 124.01 180.09 125.17 180.99 125.71 C 181.88 126.25 183.05 125.96 183.58 125.06 Z M 183.04 125.39 L 183.35 125.24 C 184.30 124.78 184.69 123.64 184.23 122.69 C 183.77 121.75 182.63 121.35 181.69 121.81 L 181.37 121.97 C 180.43 122.43 180.03 123.57 180.49 124.51 C 180.95 125.46 182.09 125.85 183.04 125.39 Z M 180.77 124.30 L 180.97 124.74 C 181.39 125.71 182.52 126.14 183.49 125.72 C 184.46 125.29 184.89 124.16 184.46 123.19 L 184.27 122.75 C 183.84 121.78 182.71 121.35 181.74 121.78 C 180.78 122.20 180.34 123.33 180.77 124.30 Z M 180.80 124.17 L 180.90 125.07 C 181.01 126.13 181.96 126.89 183.02 126.78 C 184.08 126.66 184.84 125.71 184.72 124.66 L 184.63 123.76 C 184.51 122.70 183.56 121.94 182.51 122.05 C 181.45 122.17 180.69 123.12 180.80 124.17 Z M 180.88 124.90 L 180.90 126.11 C 180.92 127.18 181.80 128.03 182.87 128.01 C 183.94 127.99 184.79 127.11 184.77 126.04 L 184.75 124.83 C 184.73 123.76 183.84 122.91 182.78 122.93 C 181.71 122.95 180.86 123.83 180.88 124.90 Z M 180.89 126.04 L 180.86 127.43 C 180.84 128.51 181.69 129.40 182.76 129.42 C 183.83 129.44 184.72 128.59 184.75 127.52 L 184.78 126.12 C 184.80 125.05 183.95 124.16 182.88 124.14 C 181.80 124.11 180.92 124.96 180.89 126.04 Z M 180.86 127.40 L 180.81 128.55 C 180.76 129.63 181.60 130.54 182.68 130.58 C 183.75 130.62 184.66 129.79 184.71 128.71 L 184.75 127.56 C 184.80 126.48 183.96 125.57 182.88 125.53 C 181.81 125.48 180.90 126.32 180.86 127.40 Z M 180.81 128.53 L 180.76 129.50 C 180.70 130.58 181.53 131.50 182.61 131.55 C 183.68 131.61 184.60 130.78 184.66 129.70 L 184.71 128.73 C 184.76 127.66 183.93 126.74 182.86 126.68 C 181.78 126.63 180.86 127.45 180.81 128.53 Z M 180.76 129.48 L 180.70 130.45 C 180.63 131.53 181.45 132.46 182.53 132.52 C 183.61 132.59 184.54 131.77 184.60 130.69 L 184.66 129.72 C 184.72 128.64 183.90 127.71 182.82 127.65 C 181.75 127.58 180.82 128.41 180.76 129.48 Z M 180.70 130.44 L 180.63 131.41 C 180.56 132.49 181.37 133.42 182.45 133.50 C 183.53 133.57 184.46 132.76 184.53 131.68 L 184.60 130.70 C 184.67 129.63 183.86 128.69 182.78 128.62 C 181.70 128.55 180.77 129.36 180.70 130.44 Z M 180.63 131.40 L 180.56 132.38 C 180.48 133.46 181.28 134.40 182.36 134.48 C 183.44 134.56 184.38 133.76 184.46 132.68 L 184.54 131.69 C 184.62 130.61 183.81 129.67 182.73 129.59 C 181.65 129.51 180.71 130.32 180.63 131.40 Z M 180.56 132.37 L 180.47 133.37 C 180.39 134.45 181.19 135.40 182.27 135.48 C 183.35 135.57 184.29 134.77 184.38 133.69 L 184.46 132.69 C 184.55 131.61 183.75 130.66 182.67 130.58 C 181.59 130.49 180.64 131.29 180.56 132.37 Z M 180.47 133.36 L 180.39 134.38 C 180.29 135.46 181.09 136.41 182.17 136.50 C 183.25 136.59 184.20 135.79 184.30 134.71 L 184.38 133.70 C 184.47 132.62 183.67 131.67 182.60 131.58 C 181.52 131.48 180.57 132.28 180.47 133.36 Z M 180.39 134.37 L 180.29 135.41 C 180.20 136.49 180.99 137.44 182.07 137.54 C 183.15 137.64 184.11 136.84 184.20 135.76 L 184.30 134.72 C 184.39 133.64 183.60 132.69 182.52 132.59 C 181.44 132.49 180.48 133.29 180.39 134.37 Z M 180.29 135.40 L 180.20 136.42 C 180.10 137.50 180.89 138.46 181.97 138.56 C 183.06 138.65 184.01 137.86 184.11 136.78 L 184.20 135.76 C 184.30 134.68 183.51 133.73 182.43 133.63 C 181.35 133.53 180.39 134.32 180.29 135.40 Z M 180.20 136.42 L 180.11 137.32 C 180.01 138.40 180.81 139.36 181.89 139.46 C 182.97 139.56 183.93 138.76 184.03 137.68 L 184.11 136.78 C 184.21 135.70 183.42 134.74 182.34 134.64 C 181.26 134.54 180.30 135.33 180.20 136.42 Z M 180.11 137.32 L 180.03 138.24 C 179.92 139.32 180.72 140.28 181.80 140.38 C 182.88 140.48 183.84 139.69 183.94 138.61 L 184.03 137.68 C 184.13 136.60 183.34 135.64 182.25 135.54 C 181.17 135.44 180.22 136.24 180.11 137.32 Z M 180.03 138.24 L 179.94 139.18 C 179.84 140.26 180.63 141.22 181.71 141.32 C 182.79 141.43 183.75 140.63 183.85 139.55 L 183.94 138.61 C 184.04 137.53 183.25 136.57 182.17 136.46 C 181.09 136.36 180.13 137.16 180.03 138.24 Z M 179.94 139.18 L 179.85 140.15 C 179.75 141.23 180.54 142.19 181.62 142.29 C 182.70 142.39 183.66 141.59 183.76 140.51 L 183.85 139.55 C 183.95 138.47 183.16 137.51 182.08 137.41 C 181.00 137.31 180.04 138.10 179.94 139.18 Z M 179.85 140.15 L 179.76 141.14 C 179.66 142.22 180.45 143.18 181.54 143.28 C 182.62 143.38 183.58 142.58 183.67 141.50 L 183.76 140.51 C 183.86 139.43 183.07 138.47 181.98 138.37 C 180.90 138.27 179.95 139.07 179.85 140.15 Z M 179.76 141.14 L 179.67 142.15 C 179.57 143.24 180.37 144.19 181.45 144.29 C 182.53 144.38 183.49 143.59 183.58 142.50 L 183.68 141.49 C 183.77 140.41 182.97 139.45 181.89 139.36 C 180.81 139.26 179.85 140.06 179.76 141.14 Z M 179.66 142.16 L 179.57 143.19 C 179.48 144.28 180.28 145.23 181.37 145.32 C 182.45 145.42 183.40 144.61 183.50 143.53 L 183.59 142.50 C 183.68 141.41 182.88 140.46 181.79 140.37 C 180.71 140.27 179.76 141.08 179.66 142.16 Z M 179.57 143.20 L 179.49 144.26 C 179.40 145.34 180.20 146.29 181.28 146.38 C 182.37 146.47 183.32 145.67 183.41 144.58 L 183.50 143.52 C 183.59 142.44 182.78 141.49 181.70 141.40 C 180.62 141.31 179.66 142.12 179.57 143.20 Z M 179.49 144.26 L 179.40 145.35 C 179.31 146.43 180.12 147.38 181.21 147.47 C 182.29 147.55 183.24 146.74 183.32 145.66 L 183.41 144.58 C 183.50 143.49 182.69 142.54 181.60 142.46 C 180.52 142.37 179.57 143.18 179.49 144.26 Z M 179.40 145.36 L 179.32 146.43 C 179.24 147.51 180.05 148.46 181.13 148.54 C 182.22 148.62 183.16 147.81 183.25 146.72 L 183.33 145.65 C 183.41 144.57 182.59 143.62 181.51 143.54 C 180.42 143.46 179.48 144.27 179.40 145.36 Z M 179.32 146.43 L 179.25 147.37 C 179.17 148.45 179.99 149.40 181.08 149.47 C 182.16 149.55 183.10 148.73 183.18 147.65 L 183.25 146.71 C 183.32 145.63 182.51 144.69 181.42 144.61 C 180.34 144.53 179.39 145.35 179.32 146.43 Z M 179.25 147.38 L 179.19 148.33 C 179.11 149.41 179.93 150.35 181.02 150.42 C 182.11 150.50 183.04 149.67 183.12 148.59 L 183.18 147.64 C 183.25 146.55 182.43 145.62 181.35 145.54 C 180.26 145.47 179.32 146.29 179.25 147.38 Z M 179.19 148.33 L 179.13 149.30 C 179.06 150.38 179.88 151.32 180.97 151.39 C 182.05 151.46 182.99 150.63 183.06 149.55 L 183.12 148.58 C 183.19 147.50 182.36 146.56 181.28 146.49 C 180.19 146.42 179.26 147.25 179.19 148.33 Z M 179.12 149.31 L 179.07 150.28 C 179.00 151.37 179.83 152.30 180.92 152.37 C 182.00 152.43 182.93 151.60 183.00 150.52 L 183.06 149.54 C 183.12 148.45 182.29 147.52 181.21 147.46 C 180.12 147.39 179.19 148.22 179.12 149.31 Z M 179.07 150.29 L 179.01 151.28 C 178.95 152.37 179.78 153.30 180.87 153.36 C 181.95 153.42 182.88 152.59 182.94 151.50 L 183.00 150.51 C 183.06 149.43 182.23 148.50 181.14 148.44 C 180.06 148.37 179.13 149.21 179.07 150.29 Z M 179.01 151.29 L 178.96 152.29 C 178.90 153.38 179.74 154.31 180.82 154.36 C 181.91 154.42 182.83 153.58 182.89 152.50 L 182.94 151.50 C 183.00 150.41 182.17 149.48 181.08 149.43 C 179.99 149.37 179.07 150.20 179.01 151.29 Z M 178.96 152.30 L 178.91 153.31 C 178.86 154.40 179.69 155.32 180.78 155.37 C 181.87 155.43 182.79 154.59 182.84 153.50 L 182.89 152.49 C 182.94 151.40 182.11 150.48 181.02 150.43 C 179.93 150.38 179.01 151.21 178.96 152.30 Z M 178.91 153.32 L 178.86 154.34 C 178.82 155.43 179.66 156.35 180.74 156.40 C 181.83 156.44 182.75 155.60 182.80 154.52 L 182.84 153.49 C 182.89 152.41 182.05 151.49 180.96 151.44 C 179.88 151.39 178.96 152.23 178.91 153.32 Z M 178.86 154.35 L 178.82 155.38 C 178.78 156.46 179.62 157.38 180.71 157.42 C 181.80 157.47 182.71 156.62 182.76 155.54 L 182.80 154.51 C 182.84 153.42 182.00 152.50 180.91 152.46 C 179.82 152.42 178.91 153.26 178.86 154.35 Z M 178.82 155.38 L 178.78 156.42 C 178.74 157.51 179.59 158.42 180.68 158.46 C 181.77 158.50 182.68 157.65 182.72 156.56 L 182.76 155.53 C 182.80 154.44 181.95 153.53 180.86 153.49 C 179.77 153.45 178.86 154.30 178.82 155.38 Z M 178.78 156.43 L 178.75 157.47 C 178.71 158.55 179.57 159.46 180.65 159.50 C 181.74 159.53 182.65 158.68 182.69 157.59 L 182.72 156.55 C 182.75 155.47 181.90 154.56 180.82 154.52 C 179.73 154.49 178.82 155.34 178.78 156.43 Z M 178.75 157.47 L 178.72 158.52 C 178.69 159.60 179.55 160.51 180.63 160.54 C 181.72 160.57 182.63 159.71 182.66 158.63 L 182.69 157.59 C 182.72 156.50 181.86 155.59 180.77 155.56 C 179.69 155.53 178.78 156.39 178.75 157.47 Z M 178.72 158.52 L 178.70 159.51 C 178.67 160.60 179.53 161.50 180.62 161.53 C 181.70 161.56 182.61 160.70 182.63 159.61 L 182.66 158.62 C 182.68 157.53 181.82 156.63 180.74 156.60 C 179.65 156.58 178.75 157.44 178.72 158.52 Z M 178.70 159.52 L 178.68 160.51 C 178.65 161.60 179.52 162.50 180.60 162.52 C 181.69 162.54 182.59 161.68 182.61 160.59 L 182.63 159.60 C 182.65 158.51 181.79 157.61 180.70 157.59 C 179.62 157.57 178.72 158.43 178.70 159.52 Z M 178.68 160.52 L 178.66 161.51 C 178.64 162.60 179.51 163.49 180.59 163.51 C 181.68 163.53 182.58 162.66 182.60 161.58 L 182.61 160.58 C 182.63 159.50 181.76 158.60 180.68 158.58 C 179.59 158.56 178.70 159.43 178.68 160.52 Z M 178.66 161.52 L 178.65 162.51 C 178.63 163.60 179.50 164.49 180.59 164.50 C 181.67 164.52 182.57 163.65 182.58 162.56 L 182.60 161.57 C 182.61 160.48 181.74 159.59 180.66 159.58 C 179.57 159.56 178.68 160.43 178.66 161.52 Z M 178.65 162.52 L 178.64 163.51 C 178.62 164.60 179.50 165.49 180.58 165.50 C 181.67 165.51 182.56 164.64 182.57 163.55 L 182.58 162.56 C 182.59 161.47 181.72 160.58 180.64 160.57 C 179.55 160.56 178.66 161.43 178.65 162.52 Z M 178.64 163.52 L 178.63 164.51 C 178.62 165.60 179.49 166.49 180.58 166.50 C 181.66 166.51 182.55 165.63 182.56 164.55 L 182.57 163.55 C 182.58 162.46 181.71 161.58 180.62 161.57 C 179.53 161.56 178.65 162.43 178.64 163.52 Z M 178.63 164.52 L 178.62 165.52 C 178.62 166.60 179.49 167.49 180.58 167.50 C 181.66 167.50 182.55 166.63 182.56 165.54 L 182.56 164.54 C 182.57 163.46 181.69 162.57 180.61 162.56 C 179.52 162.56 178.64 163.43 178.63 164.52 Z M 178.62 165.52 L 178.62 166.52 C 178.61 167.61 179.49 168.49 180.58 168.50 C 181.66 168.50 182.55 167.63 182.55 166.54 L 182.56 165.54 C 182.56 164.45 181.68 163.57 180.60 163.56 C 179.51 163.56 178.63 164.44 178.62 165.52 Z M 178.62 166.53 L 178.62 167.53 C 178.61 168.62 179.49 169.50 180.58 169.50 C 181.66 169.51 182.54 168.63 182.55 167.54 L 182.55 166.54 C 182.55 165.45 181.68 164.57 180.59 164.57 C 179.50 164.56 178.62 165.44 178.62 166.53 Z M 178.62 167.53 L 178.61 168.54 C 178.61 169.63 179.49 170.51 180.58 170.51 C 181.66 170.51 182.54 169.63 182.55 168.55 L 182.55 167.54 C 182.55 166.45 181.67 165.57 180.58 165.57 C 179.50 165.57 178.62 166.45 178.62 167.53 Z M 178.61 168.54 L 178.61 169.55 C 178.61 170.63 179.49 171.52 180.58 171.52 C 181.66 171.52 182.54 170.64 182.54 169.55 L 182.54 168.54 C 182.55 167.46 181.67 166.58 180.58 166.58 C 179.50 166.58 178.62 167.46 178.61 168.54 Z M 178.61 169.55 L 178.61 170.56 C 178.61 171.65 179.49 172.53 180.58 172.53 C 181.66 172.53 182.54 171.65 182.54 170.56 L 182.54 169.55 C 182.54 168.47 181.66 167.59 180.58 167.59 C 179.49 167.59 178.61 168.47 178.61 169.55 Z M 178.61 170.56 L 178.61 171.57 C 178.61 172.65 179.49 173.53 180.58 173.53 C 181.66 173.53 182.54 172.66 182.54 171.57 L 182.54 170.56 C 182.54 169.48 181.66 168.60 180.58 168.60 C 179.49 168.60 178.61 169.48 178.61 170.56 Z M 178.61 171.57 L 178.61 172.55 C 178.61 173.64 179.49 174.52 180.58 174.52 C 181.66 174.52 182.54 173.64 182.54 172.55 L 182.54 171.57 C 182.54 170.49 181.66 169.61 180.58 169.61 C 179.49 169.61 178.61 170.49 178.61 171.57 Z M 178.62 172.56 L 178.62 173.54 C 178.62 174.63 179.50 175.50 180.58 175.50 C 181.66 175.50 182.54 174.62 182.54 173.54 L 182.54 172.55 C 182.54 171.47 181.66 170.59 180.58 170.59 C 179.49 170.59 178.62 171.47 178.62 172.56 Z M 178.62 173.54 L 178.62 174.53 C 178.62 175.61 179.50 176.49 180.58 176.49 C 181.67 176.49 182.54 175.61 182.54 174.53 L 182.54 173.54 C 182.54 172.46 181.66 171.58 180.58 171.58 C 179.49 171.58 178.62 172.46 178.62 173.54 Z M 178.62 174.53 L 178.62 175.53 C 178.63 176.61 179.51 177.48 180.59 177.48 C 181.67 177.48 182.54 176.60 182.54 175.51 L 182.54 174.52 C 182.54 173.44 181.66 172.57 180.57 172.57 C 179.49 172.57 178.62 173.45 178.62 174.53 Z M 178.63 175.53 L 178.63 176.52 C 178.64 177.60 179.52 178.48 180.60 178.47 C 181.68 178.47 182.55 177.59 182.54 176.50 L 182.54 175.51 C 182.53 174.43 181.65 173.56 180.57 173.56 C 179.49 173.57 178.62 174.45 178.63 175.53 Z M 178.63 176.53 L 178.64 177.52 C 178.65 178.60 179.53 179.47 180.61 179.46 C 181.69 179.46 182.56 178.58 182.55 177.50 L 182.54 176.50 C 182.53 175.42 181.65 174.55 180.57 174.56 C 179.49 174.57 178.63 175.45 178.63 176.53 Z M 178.64 177.53 L 178.65 178.53 C 178.66 179.60 179.54 180.47 180.62 180.46 C 181.70 180.45 182.57 179.57 182.56 178.49 L 182.55 177.49 C 182.54 176.41 181.65 175.55 180.58 175.56 C 179.50 175.57 178.63 176.45 178.64 177.53 Z M 178.65 178.53 L 178.66 179.53 C 178.68 180.61 179.56 181.47 180.64 181.46 C 181.72 181.45 182.58 180.56 182.57 179.49 L 182.55 178.48 C 182.54 177.41 181.66 176.54 180.58 176.56 C 179.50 176.57 178.64 177.45 178.65 178.53 Z M 178.67 179.54 L 178.68 180.54 C 178.70 181.62 179.58 182.48 180.66 182.46 C 181.74 182.45 182.60 181.56 182.58 180.48 L 182.56 179.48 C 182.55 178.40 181.66 177.54 180.59 177.56 C 179.51 177.58 178.65 178.46 178.67 179.54 Z M 178.68 180.55 L 178.70 181.56 C 178.72 182.64 179.61 183.49 180.69 183.47 C 181.76 183.45 182.62 182.56 182.60 181.48 L 182.58 180.48 C 182.56 179.40 181.67 178.55 180.59 178.57 C 179.52 178.59 178.66 179.48 178.68 180.55 Z M 178.71 181.57 L 178.73 182.58 C 178.75 183.65 179.65 184.50 180.72 184.48 C 181.79 184.45 182.65 183.56 182.62 182.49 L 182.60 181.48 C 182.57 180.40 181.68 179.55 180.60 179.58 C 179.53 179.60 178.68 180.49 178.71 181.57 Z M 178.73 182.59 L 178.76 183.60 C 178.79 184.68 179.68 185.52 180.76 185.49 C 181.83 185.46 182.68 184.57 182.65 183.49 L 182.62 182.48 C 182.59 181.41 181.69 180.56 180.62 180.59 C 179.55 180.62 178.70 181.51 178.73 182.59 Z M 178.76 183.61 L 178.79 184.63 C 178.83 185.70 179.73 186.54 180.80 186.51 C 181.87 186.47 182.71 185.57 182.68 184.50 L 182.64 183.48 C 182.61 182.41 181.71 181.57 180.64 181.61 C 179.57 181.64 178.73 182.54 178.76 183.61 Z M 178.80 184.64 L 178.84 185.65 C 178.88 186.72 179.78 187.56 180.85 187.52 C 181.92 187.48 182.76 186.58 182.71 185.50 L 182.68 184.49 C 182.63 183.42 181.73 182.59 180.66 182.63 C 179.59 182.67 178.76 183.57 178.80 184.64 Z M 178.84 185.66 L 178.88 186.68 C 178.93 187.75 179.84 188.58 180.91 188.53 C 181.97 188.48 182.80 187.58 182.76 186.51 L 182.71 185.49 C 182.66 184.42 181.76 183.60 180.69 183.64 C 179.62 183.69 178.79 184.60 178.84 185.66 Z M 178.89 186.69 L 178.94 187.71 C 178.99 188.77 179.90 189.59 180.97 189.54 C 182.04 189.49 182.86 188.58 182.80 187.51 L 182.75 186.49 C 182.70 185.43 181.79 184.61 180.72 184.66 C 179.65 184.72 178.83 185.62 178.89 186.69 Z M 178.94 187.72 L 179.00 188.74 C 179.07 189.80 179.98 190.61 181.05 190.55 C 182.11 190.49 182.92 189.57 182.86 188.51 L 182.80 187.49 C 182.74 186.43 181.82 185.62 180.76 185.68 C 179.69 185.74 178.88 186.66 178.94 187.72 Z M 179.01 188.75 L 179.08 189.77 C 179.15 190.83 180.07 191.63 181.13 191.56 C 182.19 191.49 183.00 190.57 182.92 189.51 L 182.86 188.49 C 182.78 187.43 181.86 186.63 180.80 186.70 C 179.74 186.77 178.94 187.69 179.01 188.75 Z M 179.08 189.78 L 179.16 190.80 C 179.24 191.86 180.17 192.65 181.23 192.57 C 182.29 192.48 183.08 191.56 183.00 190.50 L 182.92 189.49 C 182.84 188.43 181.91 187.64 180.85 187.72 C 179.79 187.80 179.00 188.72 179.08 189.78 Z M 179.16 190.81 L 179.25 191.82 C 179.34 192.88 180.28 193.66 181.33 193.57 C 182.39 193.48 183.17 192.54 183.08 191.49 L 182.99 190.48 C 182.90 189.42 181.97 188.64 180.91 188.73 C 179.85 188.83 179.07 189.76 179.16 190.81 Z M 179.26 191.84 L 179.36 192.84 C 179.46 193.90 180.40 194.67 181.45 194.56 C 182.51 194.46 183.28 193.52 183.17 192.47 L 183.08 191.46 C 182.97 190.41 182.03 189.64 180.98 189.74 C 179.92 189.85 179.15 190.79 179.26 191.84 Z M 179.36 192.87 L 179.47 193.86 C 179.59 194.91 180.54 195.67 181.59 195.55 C 182.64 195.43 183.40 194.49 183.28 193.44 L 183.17 192.44 C 183.05 191.39 182.10 190.63 181.05 190.75 C 180.00 190.87 179.24 191.82 179.36 192.87 Z M 179.48 193.89 L 179.60 194.87 C 179.73 195.92 180.69 196.66 181.74 196.53 C 182.79 196.40 183.53 195.44 183.40 194.39 L 183.27 193.41 C 183.14 192.36 182.19 191.62 181.14 191.75 C 180.09 191.88 179.35 192.84 179.48 193.89 Z M 179.61 194.90 L 179.75 195.88 C 179.89 196.92 180.86 197.65 181.90 197.50 C 182.95 197.35 183.68 196.39 183.53 195.34 L 183.39 194.37 C 183.24 193.32 182.28 192.60 181.23 192.74 C 180.19 192.89 179.46 193.86 179.61 194.90 Z M 179.75 195.91 L 179.91 196.87 C 180.07 197.91 181.05 198.62 182.09 198.46 C 183.13 198.29 183.84 197.32 183.67 196.28 L 183.52 195.31 C 183.36 194.27 182.38 193.56 181.34 193.73 C 180.30 193.89 179.59 194.87 179.75 195.91 Z M 179.92 196.90 L 180.08 197.85 C 180.26 198.89 181.25 199.58 182.29 199.40 C 183.32 199.22 184.01 198.23 183.83 197.20 L 183.66 196.24 C 183.48 195.21 182.50 194.52 181.46 194.70 C 180.43 194.88 179.73 195.87 179.92 196.90 Z M 180.09 197.89 L 180.29 198.88 C 180.49 199.90 181.48 200.58 182.51 200.37 C 183.54 200.17 184.21 199.18 184.01 198.15 L 183.82 197.16 C 183.62 196.13 182.62 195.46 181.59 195.66 C 180.56 195.86 179.89 196.86 180.09 197.89 Z M 180.30 198.91 L 180.53 199.96 C 180.75 200.98 181.76 201.63 182.78 201.40 C 183.80 201.18 184.45 200.17 184.23 199.15 L 184.00 198.11 C 183.78 197.08 182.77 196.44 181.75 196.66 C 180.72 196.88 180.08 197.89 180.30 198.91 Z M 180.54 200.00 L 180.79 201.02 C 181.03 202.03 182.05 202.66 183.07 202.41 C 184.08 202.17 184.71 201.15 184.46 200.13 L 184.21 199.11 C 183.97 198.10 182.95 197.47 181.93 197.72 C 180.92 197.96 180.30 198.98 180.54 200.00 Z M 180.80 201.06 L 181.07 202.06 C 181.34 203.07 182.37 203.67 183.37 203.40 C 184.38 203.14 184.98 202.11 184.71 201.10 L 184.45 200.09 C 184.18 199.09 183.15 198.49 182.14 198.76 C 181.14 199.02 180.54 200.05 180.80 201.06 Z M 181.08 202.10 L 181.37 203.09 C 181.66 204.08 182.70 204.66 183.69 204.37 C 184.69 204.09 185.27 203.05 184.98 202.05 L 184.70 201.06 C 184.41 200.07 183.37 199.49 182.37 199.78 C 181.37 200.06 180.80 201.10 181.08 202.10 Z M 181.39 203.12 L 181.69 204.09 C 181.99 205.08 183.04 205.63 184.03 205.32 C 185.02 205.02 185.57 203.97 185.26 202.98 L 184.96 202.01 C 184.66 201.02 183.61 200.47 182.62 200.78 C 181.63 201.09 181.08 202.14 181.39 203.12 Z M 181.70 204.13 L 182.02 205.07 C 182.35 206.05 183.40 206.58 184.38 206.26 C 185.36 205.93 185.89 204.87 185.56 203.89 L 185.25 202.94 C 184.92 201.97 183.86 201.44 182.88 201.76 C 181.90 202.09 181.38 203.15 181.70 204.13 Z M 182.04 205.11 L 182.37 206.04 C 182.71 207.01 183.78 207.51 184.75 207.17 C 185.72 206.82 186.22 205.76 185.88 204.79 L 185.54 203.86 C 185.20 202.89 184.13 202.38 183.17 202.73 C 182.20 203.07 181.69 204.14 182.04 205.11 Z M 182.39 206.07 L 182.73 206.98 C 183.09 207.94 184.17 208.42 185.12 208.06 C 186.08 207.70 186.57 206.63 186.20 205.67 L 185.86 204.76 C 185.49 203.80 184.42 203.31 183.46 203.68 C 182.51 204.04 182.02 205.11 182.39 206.07 Z M 182.75 207.01 L 183.11 207.91 C 183.49 208.85 184.56 209.32 185.51 208.93 C 186.46 208.55 186.92 207.48 186.54 206.53 L 186.18 205.64 C 185.80 204.69 184.73 204.23 183.78 204.61 C 182.83 204.99 182.37 206.06 182.75 207.01 Z M 183.12 207.94 L 183.49 208.81 C 183.89 209.75 184.97 210.19 185.91 209.79 C 186.85 209.39 187.29 208.31 186.89 207.37 L 186.52 206.50 C 186.13 205.56 185.04 205.12 184.11 205.52 C 183.17 205.91 182.73 207.00 183.12 207.94 Z M 183.51 208.84 L 183.89 209.69 C 184.31 210.62 185.39 211.04 186.32 210.63 C 187.25 210.21 187.67 209.12 187.26 208.20 L 186.88 207.34 C 186.46 206.41 185.37 206.00 184.45 206.41 C 183.52 206.82 183.10 207.91 183.51 208.84 Z M 183.91 209.72 L 184.34 210.63 C 184.77 211.55 185.86 211.94 186.78 211.51 C 187.70 211.08 188.09 209.99 187.66 209.07 L 187.24 208.17 C 186.81 207.25 185.71 206.85 184.80 207.28 C 183.88 207.71 183.48 208.80 183.91 209.72 Z M 184.36 210.66 L 184.83 211.61 C 185.28 212.52 186.37 212.89 187.28 212.44 C 188.18 212.00 188.55 210.90 188.11 209.99 L 187.64 209.04 C 187.19 208.14 186.10 207.77 185.19 208.21 C 184.29 208.66 183.91 209.76 184.36 210.66 Z M 184.85 211.64 L 185.33 212.57 C 185.80 213.46 186.90 213.81 187.79 213.34 C 188.68 212.88 189.03 211.78 188.57 210.89 L 188.08 209.96 C 187.62 209.07 186.52 208.72 185.63 209.19 C 184.73 209.65 184.39 210.75 184.85 211.64 Z M 185.36 212.60 L 185.85 213.50 C 186.33 214.38 187.44 214.70 188.32 214.22 C 189.20 213.74 189.52 212.63 189.03 211.75 L 188.54 210.85 C 188.06 209.97 186.95 209.65 186.08 210.14 C 185.20 210.62 184.88 211.72 185.36 212.60 Z M 185.88 213.53 L 186.38 214.41 C 186.89 215.27 187.99 215.57 188.86 215.07 C 189.72 214.57 190.02 213.46 189.52 212.60 L 189.01 211.72 C 188.51 210.86 187.40 210.56 186.54 211.06 C 185.67 211.56 185.38 212.67 185.88 213.53 Z M 186.41 214.44 L 186.93 215.29 C 187.45 216.14 188.56 216.41 189.41 215.89 C 190.26 215.37 190.53 214.26 190.01 213.41 L 189.49 212.56 C 188.97 211.71 187.86 211.45 187.01 211.96 C 186.16 212.48 185.89 213.59 186.41 214.44 Z M 186.96 215.33 L 187.49 216.15 C 188.03 216.99 189.14 217.23 189.97 216.69 C 190.81 216.15 191.05 215.04 190.51 214.21 L 189.98 213.38 C 189.44 212.55 188.33 212.31 187.50 212.84 C 186.66 213.38 186.42 214.49 186.96 215.33 Z M 187.52 216.19 L 188.07 216.99 C 188.62 217.81 189.73 218.02 190.55 217.47 C 191.37 216.91 191.58 215.80 191.03 214.98 L 190.48 214.18 C 189.93 213.36 188.82 213.15 188.00 213.70 C 187.18 214.25 186.97 215.37 187.52 216.19 Z M 188.10 217.02 L 188.66 217.80 C 189.23 218.60 190.34 218.79 191.14 218.22 C 191.94 217.64 192.13 216.53 191.56 215.73 L 191.00 214.95 C 190.43 214.15 189.31 213.96 188.51 214.53 C 187.71 215.11 187.52 216.22 188.10 217.02 Z M 188.69 217.83 L 189.26 218.59 C 189.85 219.38 190.96 219.53 191.75 218.94 C 192.53 218.35 192.69 217.24 192.10 216.45 L 191.52 215.70 C 190.93 214.91 189.82 214.76 189.04 215.35 C 188.25 215.94 188.10 217.05 188.69 217.83 Z M 189.29 218.62 L 189.90 219.39 C 190.51 220.15 191.62 220.28 192.38 219.67 C 193.15 219.06 193.28 217.95 192.67 217.19 L 192.06 216.42 C 191.45 215.66 190.34 215.53 189.58 216.14 C 188.81 216.75 188.68 217.86 189.29 218.62 Z M 189.93 219.42 L 190.60 220.21 C 191.23 220.96 192.34 221.05 193.08 220.42 C 193.83 219.79 193.92 218.68 193.30 217.94 L 192.63 217.15 C 192.00 216.41 190.89 216.31 190.15 216.94 C 189.40 217.57 189.31 218.68 189.93 219.42 Z M 190.64 220.25 L 191.32 221.01 C 191.97 221.73 193.08 221.79 193.81 221.14 C 194.53 220.49 194.58 219.38 193.93 218.66 L 193.25 217.90 C 192.60 217.18 191.49 217.12 190.77 217.77 C 190.05 218.42 189.99 219.53 190.64 220.25 Z M 191.37 221.05 L 192.07 221.77 C 192.75 222.47 193.85 222.49 194.55 221.81 C 195.24 221.14 195.26 220.03 194.59 219.34 L 193.89 218.61 C 193.21 217.92 192.11 217.90 191.41 218.57 C 190.72 219.25 190.70 220.35 191.37 221.05 Z M 192.13 221.82 L 192.85 222.51 C 193.55 223.17 194.65 223.15 195.32 222.45 C 195.98 221.75 195.96 220.65 195.26 219.98 L 194.53 219.29 C 193.84 218.63 192.73 218.65 192.07 219.35 C 191.40 220.05 191.43 221.15 192.13 221.82 Z M 192.91 222.55 L 193.66 223.21 C 194.38 223.84 195.48 223.77 196.11 223.04 C 196.74 222.32 196.67 221.22 195.94 220.59 L 195.20 219.94 C 194.48 219.30 193.38 219.38 192.75 220.10 C 192.11 220.82 192.19 221.92 192.91 222.55 Z M 193.72 223.25 L 194.49 223.87 C 195.24 224.46 196.33 224.34 196.93 223.59 C 197.52 222.84 197.40 221.75 196.65 221.16 L 195.88 220.54 C 195.13 219.95 194.04 220.07 193.44 220.82 C 192.85 221.57 192.97 222.66 193.72 223.25 Z M 194.57 223.91 L 195.36 224.49 C 196.14 225.04 197.22 224.87 197.77 224.09 C 198.33 223.32 198.15 222.24 197.38 221.68 L 196.58 221.11 C 195.80 220.55 194.72 220.73 194.17 221.51 C 193.61 222.28 193.79 223.36 194.57 223.91 Z M 195.44 224.53 L 196.27 225.06 C 197.07 225.57 198.13 225.34 198.65 224.54 C 199.16 223.74 198.92 222.68 198.12 222.16 L 197.30 221.64 C 196.50 221.12 195.43 221.36 194.92 222.16 C 194.41 222.96 194.64 224.02 195.44 224.53 Z M 196.35 225.11 L 197.21 225.59 C 198.03 226.06 199.08 225.76 199.54 224.94 C 200.01 224.11 199.72 223.07 198.89 222.60 L 198.04 222.12 C 197.21 221.65 196.17 221.94 195.70 222.77 C 195.24 223.60 195.53 224.64 196.35 225.11 Z M 197.29 225.64 L 198.16 226.07 C 199.01 226.49 200.05 226.14 200.47 225.29 C 200.89 224.43 200.54 223.40 199.68 222.98 L 198.81 222.55 C 197.96 222.13 196.93 222.48 196.51 223.33 C 196.09 224.19 196.44 225.22 197.29 225.64 Z M 198.24 226.12 L 199.14 226.50 C 200.02 226.88 201.04 226.47 201.42 225.59 C 201.79 224.71 201.38 223.69 200.50 223.32 L 199.60 222.93 C 198.72 222.55 197.70 222.96 197.33 223.84 C 196.95 224.72 197.36 225.74 198.24 226.12 Z M 199.22 226.55 L 200.14 226.89 C 201.05 227.23 202.05 226.76 202.38 225.86 C 202.72 224.95 202.26 223.95 201.35 223.61 L 200.43 223.27 C 199.52 222.94 198.52 223.40 198.18 224.30 C 197.85 225.21 198.31 226.22 199.22 226.55 Z M 200.22 226.93 L 201.16 227.23 C 202.09 227.52 203.08 227.01 203.37 226.08 C 203.66 225.15 203.15 224.16 202.22 223.87 L 201.27 223.57 C 200.35 223.28 199.36 223.79 199.07 224.72 C 198.77 225.65 199.29 226.64 200.22 226.93 Z M 201.24 227.27 L 202.20 227.52 C 203.15 227.77 204.12 227.21 204.37 226.26 C 204.63 225.31 204.06 224.34 203.11 224.09 L 202.15 223.83 C 201.20 223.58 200.23 224.15 199.98 225.10 C 199.73 226.04 200.29 227.01 201.24 227.27 Z M 202.28 227.55 L 203.26 227.77 C 204.23 227.98 205.18 227.37 205.39 226.40 C 205.60 225.44 204.99 224.48 204.02 224.27 L 203.04 224.06 C 202.07 223.85 201.12 224.46 200.91 225.43 C 200.70 226.39 201.31 227.34 202.28 227.55 Z M 203.34 227.79 L 204.34 227.97 C 205.32 228.14 206.25 227.48 206.42 226.50 C 206.59 225.52 205.93 224.59 204.95 224.42 L 203.95 224.25 C 202.97 224.08 202.04 224.73 201.87 225.71 C 201.70 226.69 202.35 227.62 203.34 227.79 Z M 204.41 227.99 L 205.42 228.13 C 206.41 228.26 207.32 227.56 207.46 226.57 C 207.59 225.57 206.89 224.66 205.89 224.53 L 204.88 224.40 C 203.89 224.26 202.98 224.96 202.84 225.96 C 202.71 226.95 203.41 227.86 204.41 227.99 Z M 205.49 228.15 L 206.51 228.24 C 207.52 228.34 208.41 227.60 208.50 226.59 C 208.59 225.59 207.85 224.70 206.85 224.60 L 205.83 224.51 C 204.82 224.41 203.93 225.15 203.84 226.16 C 203.74 227.16 204.48 228.05 205.49 228.15 Z M 206.58 228.25 L 207.56 228.31 C 208.57 228.36 209.43 227.59 209.49 226.58 C 209.55 225.57 208.78 224.71 207.77 224.65 L 206.78 224.60 C 205.77 224.54 204.91 225.31 204.85 226.32 C 204.80 227.33 205.57 228.19 206.58 228.25 Z M 207.62 228.30 L 208.60 228.32 C 209.61 228.35 210.44 227.55 210.47 226.55 C 210.49 225.54 209.70 224.71 208.69 224.68 L 207.71 224.66 C 206.70 224.64 205.87 225.43 205.84 226.43 C 205.82 227.44 206.62 228.27 207.62 228.30 Z M 208.65 228.31 L 209.64 228.31 C 210.64 228.30 211.45 227.49 211.45 226.49 C 211.44 225.49 210.63 224.69 209.63 224.69 L 208.64 224.70 C 207.64 224.70 206.84 225.51 206.84 226.51 C 206.84 227.51 207.66 228.31 208.65 228.31 Z M 209.69 228.29 L 210.68 228.27 C 211.67 228.24 212.45 227.41 212.43 226.42 C 212.40 225.43 211.57 224.65 210.58 224.68 L 209.59 224.70 C 208.60 224.73 207.81 225.56 207.84 226.55 C 207.87 227.54 208.70 228.32 209.69 228.29 Z M 210.72 228.25 L 211.72 228.20 C 212.70 228.16 213.46 227.32 213.41 226.34 C 213.36 225.35 212.53 224.59 211.54 224.64 L 210.54 224.69 C 209.56 224.74 208.80 225.57 208.85 226.56 C 208.90 227.54 209.73 228.30 210.72 228.25 Z M 211.75 228.19 L 212.75 228.12 C 213.72 228.06 214.46 227.22 214.40 226.24 C 214.33 225.26 213.49 224.52 212.51 224.59 L 211.51 224.65 C 210.54 224.72 209.80 225.56 209.86 226.54 C 209.93 227.52 210.77 228.25 211.75 228.19 Z M 212.77 228.11 L 213.78 228.03 C 214.74 227.95 215.47 227.11 215.39 226.14 C 215.31 225.17 214.47 224.45 213.50 224.52 L 212.49 224.60 C 211.52 224.68 210.80 225.53 210.88 226.50 C 210.95 227.46 211.80 228.19 212.77 228.11 Z M 213.79 228.02 L 214.80 227.93 C 215.76 227.84 216.47 226.99 216.38 226.03 C 216.30 225.07 215.45 224.36 214.49 224.45 L 213.48 224.54 C 212.52 224.62 211.81 225.47 211.89 226.43 C 211.98 227.39 212.83 228.10 213.79 228.02 Z M 214.81 227.91 L 215.82 227.82 C 216.77 227.73 217.47 226.88 217.38 225.92 C 217.29 224.97 216.44 224.27 215.48 224.36 L 214.48 224.46 C 213.52 224.55 212.82 225.40 212.91 226.35 C 213.01 227.31 213.85 228.01 214.81 227.91 Z M 215.82 227.80 L 216.80 227.71 C 217.75 227.61 218.44 226.77 218.34 225.82 C 218.25 224.87 217.40 224.18 216.46 224.28 L 215.48 224.37 C 214.53 224.47 213.84 225.31 213.93 226.26 C 214.03 227.21 214.87 227.90 215.82 227.80 Z"
      fill="black"
      fill-rule="nonzero" /></svg>