<svg xmlns="http://www.w3.org/2000/svg" width="300" height="300" viewBox="0 0 300 300">
<path d="M 139.50 159.46 L 138.63 158.67 C 137.87 157.97 136.69 158.03 136.00 158.79 C 135.30 159.56 135.36 160.74 136.12 161.43 L 136.99 162.22 C 137.75 162.91 138.93 162.86 139.63 162.09 C 140.32 161.33 140.26 160.15 139.50 159.46 Z M 138.66 158.68 L 137.82 157.89 C 137.06 157.18 135.87 157.22 135.16 157.98 C 134.46 158.74 134.50 159.93 135.25 160.64 L 136.10 161.42 C 136.85 162.13 138.04 162.09 138.75 161.33 C 139.46 160.58 139.42 159.39 138.66 158.68 Z M 137.87 157.92 L 137.08 157.14 C 136.33 156.41 135.14 156.41 134.40 157.15 C 133.67 157.90 133.68 159.09 134.42 159.83 L 135.21 160.61 C 135.95 161.34 137.15 161.34 137.88 160.60 C 138.62 159.85 138.61 158.66 137.87 157.92 Z M 137.15 157.20 L 136.43 156.42 C 135.72 155.65 134.52 155.60 133.75 156.31 C 132.97 157.02 132.92 158.22 133.63 159.00 L 134.35 159.77 C 135.06 160.55 136.26 160.59 137.04 159.88 C 137.81 159.17 137.86 157.97 137.15 157.20 Z M 136.53 156.52 L 135.92 155.75 C 135.26 154.92 134.05 154.79 133.23 155.44 C 132.40 156.10 132.27 157.31 132.93 158.13 L 133.54 158.90 C 134.20 159.73 135.40 159.86 136.23 159.20 C 137.05 158.55 137.19 157.34 136.53 156.52 Z M 136.04 155.90 L 135.56 155.14 C 134.98 154.25 133.79 153.99 132.90 154.56 C 132.00 155.13 131.74 156.32 132.31 157.22 L 132.80 157.98 C 133.37 158.87 134.56 159.13 135.46 158.56 C 136.35 157.99 136.61 156.80 136.04 155.90 Z M 135.70 155.39 L 135.37 154.65 C 134.94 153.67 133.79 153.23 132.81 153.67 C 131.84 154.10 131.40 155.25 131.84 156.22 L 132.17 156.97 C 132.60 157.95 133.75 158.39 134.72 157.95 C 135.70 157.52 136.14 156.37 135.70 155.39 Z M 135.51 155.03 L 135.35 154.30 C 135.13 153.25 134.10 152.57 133.05 152.80 C 131.99 153.02 131.32 154.05 131.54 155.10 L 131.70 155.84 C 131.92 156.89 132.95 157.56 134.01 157.34 C 135.06 157.12 135.73 156.09 135.51 155.03 Z M 135.40 154.85 L 135.46 154.04 C 135.53 152.96 134.73 152.03 133.65 151.95 C 132.58 151.87 131.64 152.67 131.56 153.75 L 131.50 154.56 C 131.42 155.63 132.23 156.57 133.30 156.65 C 134.38 156.73 135.32 155.92 135.40 154.85 Z M 135.34 154.57 L 135.63 153.78 C 136.00 152.77 135.48 151.65 134.47 151.28 C 133.46 150.90 132.34 151.42 131.96 152.43 L 131.67 153.22 C 131.30 154.23 131.82 155.36 132.83 155.73 C 133.85 156.10 134.97 155.58 135.34 154.57 Z M 135.44 154.17 L 135.93 153.41 C 136.51 152.50 136.25 151.29 135.35 150.71 C 134.44 150.12 133.23 150.38 132.64 151.29 L 132.15 152.05 C 131.57 152.96 131.83 154.17 132.74 154.75 C 133.64 155.34 134.85 155.08 135.44 154.17 Z M 135.73 153.66 L 136.40 152.93 C 137.12 152.13 137.06 150.90 136.26 150.17 C 135.46 149.44 134.23 149.50 133.50 150.31 L 132.84 151.04 C 132.11 151.84 132.17 153.07 132.97 153.80 C 133.77 154.52 135.01 154.46 135.73 153.66 Z M 136.23 153.10 L 137.04 152.40 C 137.86 151.69 137.94 150.46 137.24 149.64 C 136.53 148.82 135.29 148.73 134.48 149.44 L 133.67 150.14 C 132.85 150.85 132.76 152.08 133.47 152.90 C 134.18 153.72 135.41 153.81 136.23 153.10 Z M 136.90 152.51 L 137.83 151.84 C 138.70 151.21 138.90 149.99 138.27 149.11 C 137.64 148.23 136.42 148.03 135.54 148.66 L 134.61 149.33 C 133.74 149.96 133.54 151.19 134.17 152.06 C 134.80 152.94 136.02 153.14 136.90 152.51 Z M 137.71 151.92 L 138.73 151.29 C 139.65 150.72 139.93 149.51 139.36 148.59 C 138.79 147.67 137.58 147.39 136.66 147.96 L 135.65 148.59 C 134.73 149.16 134.45 150.37 135.02 151.29 C 135.59 152.21 136.80 152.49 137.71 151.92 Z M 138.64 151.34 L 139.51 150.86 C 140.45 150.33 140.80 149.14 140.27 148.20 C 139.75 147.25 138.56 146.91 137.61 147.43 L 136.75 147.91 C 135.80 148.44 135.46 149.63 135.98 150.57 C 136.51 151.52 137.70 151.86 138.64 151.34 Z M 139.44 150.89 L 140.33 150.44 C 141.29 149.96 141.68 148.78 141.19 147.82 C 140.70 146.85 139.52 146.47 138.56 146.95 L 137.68 147.40 C 136.71 147.89 136.33 149.07 136.81 150.03 C 137.30 150.99 138.48 151.38 139.44 150.89 Z M 140.27 150.47 L 141.18 150.05 C 142.15 149.59 142.58 148.43 142.12 147.45 C 141.67 146.47 140.51 146.05 139.53 146.50 L 138.62 146.93 C 137.64 147.38 137.22 148.54 137.67 149.52 C 138.13 150.50 139.29 150.92 140.27 150.47 Z M 141.12 150.07 L 142.05 149.67 C 143.04 149.24 143.50 148.09 143.07 147.11 C 142.65 146.12 141.50 145.66 140.51 146.08 L 139.58 146.48 C 138.59 146.91 138.14 148.06 138.56 149.05 C 138.99 150.03 140.13 150.49 141.12 150.07 Z M 142.00 149.68 L 142.95 149.31 C 143.95 148.91 144.43 147.78 144.03 146.78 C 143.64 145.78 142.50 145.29 141.50 145.69 L 140.56 146.07 C 139.56 146.47 139.08 147.60 139.48 148.60 C 139.87 149.60 141.01 150.08 142.00 149.68 Z M 142.90 149.32 L 143.85 148.97 C 144.86 148.59 145.37 147.47 145.00 146.47 C 144.62 145.46 143.51 144.95 142.50 145.32 L 141.55 145.68 C 140.54 146.05 140.03 147.17 140.41 148.18 C 140.78 149.18 141.90 149.69 142.90 149.32 Z M 143.81 148.98 L 144.77 148.65 C 145.78 148.29 146.31 147.19 145.96 146.18 C 145.61 145.16 144.50 144.63 143.49 144.98 L 142.54 145.31 C 141.53 145.67 140.99 146.77 141.34 147.78 C 141.70 148.80 142.80 149.33 143.81 148.98 Z M 144.73 148.66 L 145.68 148.35 C 146.69 148.01 147.25 146.92 146.92 145.90 C 146.58 144.89 145.49 144.33 144.47 144.66 L 143.53 144.97 C 142.51 145.31 141.95 146.40 142.29 147.42 C 142.62 148.43 143.71 148.99 144.73 148.66 Z M 145.64 148.35 L 146.59 148.06 C 147.61 147.75 148.18 146.67 147.87 145.65 C 147.55 144.62 146.47 144.05 145.45 144.37 L 144.51 144.66 C 143.49 144.97 142.91 146.05 143.23 147.07 C 143.54 148.09 144.62 148.67 145.64 148.35 Z M 146.55 148.07 L 147.57 147.77 C 148.60 147.48 149.18 146.41 148.89 145.38 C 148.59 144.36 147.52 143.77 146.50 144.07 L 145.48 144.36 C 144.46 144.66 143.87 145.73 144.16 146.75 C 144.46 147.78 145.53 148.36 146.55 148.07 Z M 147.54 147.78 L 148.54 147.51 C 149.56 147.23 150.17 146.17 149.89 145.15 C 149.61 144.12 148.56 143.51 147.53 143.79 L 146.53 144.06 C 145.51 144.34 144.90 145.40 145.18 146.42 C 145.46 147.45 146.51 148.06 147.54 147.78 Z M 148.51 147.51 L 149.49 147.26 C 150.52 147.00 151.14 145.96 150.88 144.93 C 150.62 143.90 149.57 143.28 148.55 143.54 L 147.56 143.79 C 146.54 144.05 145.91 145.09 146.17 146.12 C 146.43 147.15 147.48 147.77 148.51 147.51 Z M 149.46 147.26 L 150.43 147.03 C 151.46 146.79 152.10 145.76 151.85 144.73 C 151.61 143.70 150.58 143.06 149.55 143.31 L 148.58 143.54 C 147.55 143.78 146.91 144.81 147.16 145.84 C 147.40 146.87 148.43 147.50 149.46 147.26 Z M 150.40 147.03 L 151.36 146.82 C 152.39 146.59 153.04 145.58 152.81 144.55 C 152.59 143.52 151.57 142.87 150.54 143.10 L 149.58 143.31 C 148.55 143.53 147.90 144.55 148.13 145.58 C 148.35 146.61 149.37 147.26 150.40 147.03 Z M 151.33 146.82 L 152.29 146.63 C 153.32 146.41 153.98 145.41 153.77 144.38 C 153.56 143.35 152.55 142.69 151.52 142.90 L 150.57 143.09 C 149.54 143.31 148.88 144.31 149.09 145.34 C 149.30 146.37 150.31 147.03 151.33 146.82 Z M 152.26 146.62 L 153.21 146.44 C 154.24 146.25 154.91 145.25 154.72 144.22 C 154.52 143.19 153.53 142.52 152.50 142.72 L 151.55 142.90 C 150.52 143.10 149.85 144.09 150.04 145.12 C 150.24 146.15 151.23 146.82 152.26 146.62 Z M 153.19 146.44 L 154.14 146.27 C 155.16 146.09 155.85 145.10 155.66 144.08 C 155.48 143.05 154.50 142.36 153.47 142.55 L 152.52 142.72 C 151.49 142.90 150.81 143.89 150.99 144.91 C 151.18 145.94 152.16 146.63 153.19 146.44 Z M 154.11 146.27 L 155.03 146.12 C 156.06 145.94 156.76 144.97 156.58 143.94 C 156.41 142.91 155.44 142.22 154.41 142.39 L 153.49 142.55 C 152.46 142.72 151.77 143.70 151.94 144.72 C 152.11 145.75 153.09 146.44 154.11 146.27 Z M 155.01 146.12 L 155.94 145.97 C 156.97 145.81 157.67 144.85 157.51 143.82 C 157.35 142.79 156.39 142.09 155.36 142.25 L 154.43 142.39 C 153.40 142.55 152.70 143.52 152.86 144.55 C 153.02 145.57 153.98 146.28 155.01 146.12 Z M 155.91 145.97 L 156.85 145.84 C 157.88 145.69 158.60 144.74 158.45 143.71 C 158.30 142.68 157.35 141.97 156.32 142.12 L 155.38 142.25 C 154.36 142.40 153.64 143.35 153.79 144.38 C 153.93 145.40 154.89 146.12 155.91 145.97 Z M 156.83 145.84 L 157.79 145.72 C 158.82 145.59 159.54 144.65 159.41 143.62 C 159.28 142.59 158.34 141.86 157.31 141.99 L 156.35 142.11 C 155.32 142.25 154.60 143.19 154.73 144.21 C 154.86 145.24 155.80 145.97 156.83 145.84 Z M 157.76 145.72 L 158.74 145.61 C 159.77 145.49 160.51 144.56 160.40 143.54 C 160.28 142.51 159.35 141.77 158.33 141.88 L 157.34 141.99 C 156.31 142.11 155.57 143.03 155.69 144.06 C 155.80 145.09 156.73 145.83 157.76 145.72 Z M 158.71 145.61 L 159.73 145.51 C 160.76 145.41 161.51 144.50 161.42 143.47 C 161.32 142.44 160.40 141.68 159.37 141.78 L 158.36 141.88 C 157.33 141.98 156.57 142.89 156.67 143.92 C 156.77 144.95 157.68 145.71 158.71 145.61 Z M 159.70 145.51 L 160.76 145.43 C 161.79 145.34 162.55 144.44 162.47 143.41 C 162.39 142.38 161.49 141.62 160.46 141.70 L 159.40 141.78 C 158.37 141.87 157.61 142.77 157.69 143.80 C 157.77 144.82 158.67 145.59 159.70 145.51 Z M 160.73 145.42 L 161.83 145.35 C 162.86 145.29 163.64 144.40 163.57 143.37 C 163.51 142.34 162.62 141.56 161.59 141.63 L 160.49 141.70 C 159.46 141.77 158.68 142.65 158.75 143.68 C 158.81 144.71 159.70 145.49 160.73 145.42 Z M 161.80 145.35 L 162.81 145.30 C 163.84 145.25 164.63 144.38 164.58 143.35 C 164.53 142.32 163.66 141.53 162.63 141.58 L 161.62 141.63 C 160.59 141.68 159.80 142.56 159.85 143.58 C 159.90 144.61 160.77 145.40 161.80 145.35 Z M 162.79 145.30 L 163.78 145.27 C 164.81 145.23 165.61 144.37 165.58 143.34 C 165.54 142.31 164.68 141.51 163.65 141.55 L 162.66 141.58 C 161.63 141.62 160.82 142.48 160.86 143.51 C 160.90 144.53 161.76 145.34 162.79 145.30 Z M 163.75 145.27 L 164.77 145.25 C 165.79 145.23 166.61 144.38 166.59 143.35 C 166.57 142.33 165.72 141.51 164.70 141.53 L 163.68 141.55 C 162.65 141.56 161.84 142.41 161.85 143.44 C 161.87 144.47 162.72 145.29 163.75 145.27 Z M 164.73 145.25 L 165.76 145.25 C 166.79 145.25 167.62 144.42 167.62 143.39 C 167.62 142.36 166.79 141.53 165.76 141.53 L 164.73 141.53 C 163.71 141.53 162.87 142.36 162.87 143.39 C 162.87 144.41 163.70 145.25 164.73 145.25 Z M 165.72 145.25 L 166.75 145.27 C 167.78 145.29 168.63 144.48 168.65 143.46 C 168.67 142.43 167.86 141.58 166.84 141.56 L 165.80 141.53 C 164.78 141.51 163.93 142.32 163.90 143.35 C 163.88 144.37 164.69 145.22 165.72 145.25 Z M 166.70 145.27 L 167.73 145.32 C 168.75 145.37 169.63 144.58 169.68 143.55 C 169.73 142.53 168.94 141.66 167.91 141.61 L 166.88 141.56 C 165.86 141.51 164.99 142.30 164.94 143.32 C 164.89 144.35 165.68 145.22 166.70 145.27 Z M 167.67 145.31 L 168.69 145.39 C 169.71 145.47 170.60 144.71 170.68 143.69 C 170.77 142.67 170.00 141.78 168.98 141.69 L 167.97 141.61 C 166.95 141.53 166.05 142.30 165.97 143.32 C 165.89 144.34 166.65 145.23 167.67 145.31 Z M 168.62 145.38 L 169.61 145.50 C 170.63 145.62 171.55 144.89 171.67 143.87 C 171.78 142.85 171.06 141.93 170.04 141.82 L 169.05 141.70 C 168.03 141.59 167.11 142.32 166.99 143.33 C 166.88 144.35 167.61 145.27 168.62 145.38 Z M 169.54 145.49 L 170.50 145.64 C 171.51 145.80 172.46 145.11 172.61 144.10 C 172.77 143.09 172.08 142.14 171.07 141.98 L 170.11 141.83 C 169.10 141.67 168.16 142.36 168.00 143.37 C 167.84 144.38 168.53 145.33 169.54 145.49 Z M 170.41 145.62 L 171.33 145.81 C 172.33 146.02 173.31 145.38 173.52 144.38 C 173.72 143.38 173.08 142.40 172.08 142.19 L 171.16 142.00 C 170.16 141.79 169.18 142.43 168.97 143.43 C 168.77 144.43 169.41 145.41 170.41 145.62 Z M 171.21 145.78 L 172.25 146.07 C 173.23 146.34 174.25 145.76 174.52 144.78 C 174.79 143.79 174.22 142.77 173.23 142.50 L 172.20 142.22 C 171.21 141.95 170.19 142.52 169.92 143.51 C 169.65 144.49 170.23 145.51 171.21 145.78 Z M 172.12 146.03 L 173.11 146.38 C 174.07 146.73 175.13 146.23 175.47 145.26 C 175.81 144.30 175.31 143.24 174.35 142.90 L 173.36 142.54 C 172.40 142.20 171.34 142.70 171.00 143.66 C 170.65 144.62 171.15 145.68 172.12 146.03 Z M 172.97 146.33 L 173.90 146.74 C 174.83 147.16 175.93 146.74 176.34 145.81 C 176.76 144.87 176.34 143.78 175.41 143.36 L 174.48 142.95 C 173.55 142.53 172.46 142.95 172.04 143.89 C 171.62 144.82 172.04 145.91 172.97 146.33 Z M 173.78 146.68 L 174.65 147.15 C 175.55 147.64 176.67 147.30 177.15 146.40 C 177.64 145.50 177.30 144.38 176.40 143.89 L 175.53 143.42 C 174.63 142.94 173.51 143.28 173.03 144.18 C 172.54 145.08 172.88 146.20 173.78 146.68 Z M 174.53 147.08 L 175.35 147.61 C 176.22 148.15 177.36 147.90 177.91 147.03 C 178.46 146.17 178.20 145.03 177.34 144.48 L 176.52 143.96 C 175.65 143.41 174.51 143.67 173.96 144.53 C 173.42 145.39 173.67 146.54 174.53 147.08 Z M 175.25 147.54 L 176.03 148.11 C 176.86 148.71 178.01 148.53 178.62 147.70 C 179.22 146.88 179.04 145.72 178.21 145.12 L 177.44 144.55 C 176.61 143.95 175.45 144.13 174.85 144.95 C 174.25 145.78 174.43 146.93 175.25 147.54 Z M 175.95 148.04 L 176.69 148.65 C 177.48 149.30 178.64 149.19 179.29 148.40 C 179.94 147.61 179.83 146.45 179.04 145.80 L 178.30 145.18 C 177.51 144.53 176.35 144.64 175.70 145.43 C 175.05 146.22 175.16 147.39 175.95 148.04 Z M 176.62 148.59 L 177.33 149.24 C 178.09 149.93 179.26 149.88 179.95 149.12 C 180.64 148.37 180.58 147.20 179.83 146.51 L 179.11 145.86 C 178.36 145.17 177.19 145.22 176.50 145.97 C 175.81 146.73 175.86 147.90 176.62 148.59 Z M 177.27 149.19 L 177.95 149.86 C 178.67 150.58 179.85 150.58 180.57 149.85 C 181.29 149.13 181.29 147.96 180.56 147.24 L 179.89 146.56 C 179.16 145.84 177.99 145.84 177.27 146.57 C 176.55 147.29 176.55 148.47 177.27 149.19 Z M 177.90 149.81 L 178.55 150.51 C 179.25 151.26 180.42 151.30 181.17 150.61 C 181.92 149.91 181.96 148.74 181.27 147.99 L 180.61 147.29 C 179.92 146.54 178.74 146.49 177.99 147.19 C 177.24 147.89 177.20 149.06 177.90 149.81 Z M 178.51 150.46 L 179.14 151.20 C 179.81 151.97 180.98 152.06 181.76 151.39 C 182.53 150.72 182.62 149.55 181.95 148.77 L 181.31 148.04 C 180.64 147.26 179.47 147.18 178.70 147.85 C 177.92 148.52 177.84 149.69 178.51 150.46 Z M 179.10 151.15 L 179.72 151.92 C 180.36 152.72 181.53 152.84 182.33 152.20 C 183.12 151.56 183.25 150.39 182.61 149.59 L 181.99 148.82 C 181.35 148.03 180.18 147.90 179.38 148.54 C 178.58 149.18 178.46 150.35 179.10 151.15 Z M 179.68 151.87 L 180.28 152.67 C 180.90 153.49 182.06 153.65 182.88 153.04 C 183.70 152.42 183.86 151.26 183.25 150.44 L 182.65 149.64 C 182.03 148.82 180.87 148.65 180.05 149.27 C 179.23 149.89 179.06 151.05 179.68 151.87 Z M 180.24 152.62 L 180.83 153.45 C 181.42 154.29 182.58 154.49 183.42 153.90 C 184.26 153.31 184.46 152.15 183.87 151.31 L 183.28 150.48 C 182.69 149.65 181.53 149.44 180.69 150.03 C 179.86 150.63 179.65 151.78 180.24 152.62 Z M 180.80 153.41 L 181.37 154.27 C 181.93 155.13 183.09 155.36 183.94 154.80 C 184.80 154.23 185.03 153.08 184.47 152.22 L 183.90 151.36 C 183.33 150.50 182.18 150.27 181.32 150.83 C 180.47 151.40 180.23 152.55 180.80 153.41 Z M 181.34 154.23 L 181.89 155.12 C 182.43 155.99 183.58 156.26 184.45 155.71 C 185.33 155.17 185.59 154.03 185.05 153.15 L 184.50 152.26 C 183.95 151.39 182.81 151.12 181.93 151.66 C 181.06 152.21 180.79 153.35 181.34 154.23 Z M 181.86 155.08 L 182.37 155.95 C 182.89 156.83 184.03 157.13 184.92 156.61 C 185.81 156.09 186.11 154.95 185.59 154.06 L 185.08 153.19 C 184.56 152.31 183.42 152.01 182.53 152.53 C 181.64 153.05 181.34 154.19 181.86 155.08 Z M 182.35 155.91 L 182.82 156.76 C 183.32 157.66 184.46 157.98 185.36 157.48 C 186.26 156.98 186.58 155.85 186.08 154.95 L 185.61 154.10 C 185.11 153.20 183.97 152.87 183.07 153.37 C 182.18 153.87 181.85 155.01 182.35 155.91 Z M 182.80 156.72 L 183.26 157.59 C 183.74 158.50 184.87 158.85 185.78 158.37 C 186.69 157.89 187.04 156.76 186.56 155.85 L 186.10 154.98 C 185.62 154.07 184.49 153.72 183.58 154.20 C 182.67 154.68 182.32 155.81 182.80 156.72 Z M 183.24 157.55 L 183.68 158.44 C 184.14 159.36 185.26 159.74 186.18 159.28 C 187.11 158.82 187.48 157.70 187.02 156.78 L 186.58 155.89 C 186.12 154.97 185.00 154.59 184.08 155.05 C 183.15 155.51 182.78 156.63 183.24 157.55 Z M 183.66 158.40 L 184.09 159.31 C 184.53 160.24 185.64 160.64 186.57 160.20 C 187.51 159.76 187.91 158.65 187.47 157.72 L 187.04 156.81 C 186.60 155.88 185.49 155.48 184.56 155.92 C 183.62 156.36 183.22 157.47 183.66 158.40 Z M 184.07 159.27 L 184.48 160.19 C 184.90 161.14 186.00 161.56 186.95 161.14 C 187.89 160.72 188.31 159.62 187.89 158.68 L 187.49 157.76 C 187.07 156.81 185.96 156.39 185.02 156.81 C 184.08 157.23 183.65 158.33 184.07 159.27 Z M 184.46 160.16 L 184.86 161.09 C 185.25 162.04 186.35 162.49 187.30 162.10 C 188.25 161.70 188.70 160.60 188.30 159.65 L 187.91 158.72 C 187.51 157.76 186.42 157.31 185.47 157.71 C 184.52 158.11 184.07 159.20 184.46 160.16 Z M 184.84 161.05 L 185.21 162.00 C 185.58 162.96 186.67 163.44 187.63 163.06 C 188.59 162.68 189.07 161.60 188.69 160.64 L 188.32 159.69 C 187.94 158.73 186.86 158.25 185.90 158.63 C 184.94 159.01 184.46 160.09 184.84 161.05 Z M 185.19 161.96 L 185.54 162.92 C 185.90 163.89 186.97 164.39 187.94 164.03 C 188.91 163.68 189.41 162.61 189.06 161.64 L 188.71 160.68 C 188.35 159.71 187.28 159.21 186.31 159.56 C 185.34 159.92 184.84 160.99 185.19 161.96 Z M 185.53 162.88 L 185.85 163.83 C 186.18 164.81 187.24 165.34 188.22 165.01 C 189.20 164.68 189.73 163.61 189.40 162.64 L 189.07 161.68 C 188.74 160.70 187.68 160.17 186.70 160.50 C 185.72 160.84 185.20 161.90 185.53 162.88 Z M 185.84 163.79 L 186.13 164.74 C 186.44 165.73 187.49 166.28 188.48 165.97 C 189.46 165.66 190.01 164.61 189.71 163.62 L 189.41 162.68 C 189.10 161.69 188.05 161.14 187.06 161.45 C 186.08 161.76 185.53 162.81 185.84 163.79 Z M 186.12 164.70 L 186.39 165.65 C 186.68 166.64 187.72 167.22 188.71 166.93 C 189.70 166.65 190.28 165.61 189.99 164.61 L 189.72 163.66 C 189.43 162.67 188.39 162.09 187.40 162.38 C 186.41 162.67 185.83 163.71 186.12 164.70 Z M 186.38 165.61 L 186.64 166.57 C 186.90 167.57 187.93 168.17 188.93 167.90 C 189.93 167.64 190.52 166.61 190.26 165.61 L 190.00 164.65 C 189.74 163.65 188.71 163.06 187.71 163.32 C 186.71 163.59 186.12 164.61 186.38 165.61 Z M 186.63 166.53 L 186.86 167.50 C 187.11 168.51 188.12 169.12 189.12 168.88 C 190.13 168.64 190.75 167.62 190.50 166.62 L 190.27 165.65 C 190.02 164.65 189.01 164.03 188.00 164.27 C 187.00 164.52 186.38 165.53 186.63 166.53 Z M 186.85 167.47 L 187.07 168.44 C 187.29 169.45 188.29 170.09 189.30 169.86 C 190.31 169.64 190.95 168.64 190.73 167.63 L 190.51 166.65 C 190.29 165.64 189.29 165.01 188.28 165.23 C 187.27 165.45 186.63 166.46 186.85 167.47 Z M 187.06 168.41 L 187.26 169.39 C 187.46 170.40 188.45 171.06 189.47 170.85 C 190.48 170.65 191.14 169.66 190.93 168.64 L 190.74 167.66 C 190.53 166.65 189.54 165.99 188.53 166.20 C 187.51 166.40 186.86 167.39 187.06 168.41 Z M 187.25 169.35 L 187.43 170.34 C 187.62 171.36 188.60 172.04 189.62 171.85 C 190.63 171.66 191.31 170.69 191.12 169.67 L 190.94 168.68 C 190.75 167.66 189.78 166.99 188.76 167.17 C 187.74 167.36 187.07 168.34 187.25 169.35 Z M 187.43 170.31 L 187.59 171.31 C 187.76 172.33 188.73 173.02 189.75 172.85 C 190.77 172.68 191.46 171.72 191.29 170.70 L 191.13 169.70 C 190.96 168.68 189.99 167.99 188.97 168.16 C 187.95 168.32 187.26 169.29 187.43 170.31 Z M 187.59 171.28 L 187.74 172.28 C 187.89 173.31 188.84 174.01 189.87 173.86 C 190.89 173.71 191.60 172.75 191.45 171.73 L 191.30 170.73 C 191.15 169.70 190.19 168.99 189.17 169.15 C 188.14 169.30 187.43 170.25 187.59 171.28 Z M 187.73 172.25 L 187.86 173.17 C 187.99 174.20 188.94 174.92 189.96 174.78 C 190.99 174.64 191.71 173.70 191.57 172.67 L 191.45 171.76 C 191.31 170.73 190.37 170.01 189.34 170.15 C 188.32 170.28 187.60 171.23 187.73 172.25 Z M 187.85 173.15 L 187.96 174.05 C 188.08 175.08 189.02 175.81 190.05 175.69 C 191.08 175.57 191.81 174.63 191.69 173.60 L 191.58 172.70 C 191.45 171.67 190.52 170.94 189.49 171.06 C 188.46 171.18 187.73 172.12 187.85 173.15 Z M 187.96 174.03 L 188.06 174.95 C 188.17 175.98 189.09 176.72 190.12 176.61 C 191.15 176.50 191.90 175.58 191.79 174.55 L 191.69 173.63 C 191.58 172.60 190.65 171.85 189.62 171.96 C 188.59 172.07 187.85 173.00 187.96 174.03 Z M 188.05 174.92 L 188.14 175.86 C 188.24 176.89 189.15 177.65 190.19 177.55 C 191.22 177.45 191.98 176.54 191.88 175.50 L 191.79 174.57 C 191.69 173.54 190.78 172.78 189.74 172.88 C 188.71 172.97 187.95 173.89 188.05 174.92 Z M 188.14 175.83 L 188.22 176.79 C 188.30 177.82 189.21 178.59 190.24 178.51 C 191.28 178.42 192.05 177.51 191.96 176.48 L 191.88 175.52 C 191.80 174.49 190.89 173.72 189.86 173.81 C 188.82 173.89 188.05 174.80 188.14 175.83 Z M 188.21 176.77 L 188.28 177.74 C 188.36 178.78 189.26 179.56 190.29 179.48 C 191.33 179.41 192.11 178.51 192.03 177.48 L 191.96 176.50 C 191.89 175.46 190.99 174.69 189.95 174.76 C 188.92 174.83 188.14 175.73 188.21 176.77 Z M 188.28 177.73 L 188.34 178.73 C 188.41 179.77 189.30 180.56 190.33 180.49 C 191.37 180.43 192.16 179.54 192.10 178.50 L 192.03 177.50 C 191.97 176.46 191.08 175.67 190.04 175.74 C 189.01 175.80 188.22 176.69 188.28 177.73 Z M 188.34 178.71 L 188.40 179.75 C 188.45 180.79 189.33 181.58 190.37 181.53 C 191.41 181.48 192.20 180.59 192.15 179.56 L 192.10 178.52 C 192.04 177.48 191.16 176.69 190.12 176.74 C 189.09 176.79 188.29 177.68 188.34 178.71 Z M 188.40 179.73 L 188.44 180.81 C 188.49 181.84 189.36 182.65 190.40 182.60 C 191.44 182.56 192.24 181.68 192.20 180.64 L 192.15 179.57 C 192.11 178.53 191.23 177.73 190.19 177.77 C 189.15 177.82 188.35 178.70 188.40 179.73 Z M 188.44 180.79 L 188.48 181.90 C 188.52 182.94 189.39 183.75 190.43 183.71 C 191.46 183.68 192.28 182.81 192.24 181.77 L 192.20 180.66 C 192.16 179.62 191.29 178.81 190.25 178.85 C 189.21 178.88 188.40 179.75 188.44 180.79 Z M 188.48 181.89 L 188.51 183.02 C 188.54 184.06 189.41 184.88 190.45 184.85 C 191.48 184.82 192.30 183.95 192.27 182.91 L 192.24 181.78 C 192.21 180.74 191.34 179.93 190.30 179.96 C 189.27 179.99 188.45 180.85 188.48 181.89 Z M 188.51 183.01 L 188.53 183.97 C 188.56 185.01 189.42 185.83 190.46 185.81 C 191.50 185.79 192.32 184.92 192.29 183.89 L 192.27 182.92 C 192.25 181.89 191.39 181.06 190.35 181.09 C 189.31 181.11 188.49 181.97 188.51 183.01 Z M 188.53 183.96 L 188.55 184.95 C 188.57 185.99 189.43 186.82 190.47 186.80 C 191.50 186.78 192.33 185.92 192.31 184.88 L 192.30 183.90 C 192.28 182.86 191.42 182.03 190.38 182.05 C 189.34 182.07 188.51 182.92 188.53 183.96 Z M 188.55 184.94 L 188.56 185.94 C 188.57 186.98 189.43 187.81 190.47 187.80 C 191.50 187.79 192.34 186.94 192.32 185.90 L 192.31 184.89 C 192.30 183.85 191.45 183.02 190.41 183.03 C 189.37 183.05 188.54 183.90 188.55 184.94 Z M 188.56 185.93 L 188.57 186.95 C 188.57 187.99 189.42 188.83 190.46 188.82 C 191.50 188.82 192.34 187.97 192.33 186.93 L 192.32 185.91 C 192.32 184.87 191.47 184.03 190.43 184.04 C 189.40 184.05 188.56 184.89 188.56 185.93 Z M 188.57 186.94 L 188.57 187.97 C 188.56 189.01 189.40 189.85 190.44 189.85 C 191.48 189.86 192.32 189.01 192.33 187.98 L 192.33 186.95 C 192.33 185.91 191.49 185.06 190.45 185.06 C 189.41 185.06 188.57 185.90 188.57 186.94 Z M 188.57 187.95 L 188.55 188.99 C 188.54 190.02 189.38 190.88 190.41 190.89 C 191.45 190.90 192.30 190.07 192.32 189.03 L 192.33 187.99 C 192.34 186.95 191.51 186.10 190.47 186.09 C 189.43 186.08 188.58 186.91 188.57 187.95 Z M 188.55 188.97 L 188.53 190.00 C 188.51 191.04 189.34 191.90 190.38 191.92 C 191.41 191.94 192.27 191.12 192.29 190.08 L 192.32 189.04 C 192.34 188.01 191.51 187.15 190.47 187.13 C 189.43 187.10 188.58 187.93 188.55 188.97 Z M 188.53 189.98 L 188.50 191.01 C 188.47 192.05 189.29 192.92 190.32 192.95 C 191.36 192.98 192.23 192.17 192.26 191.13 L 192.29 190.10 C 192.33 189.06 191.51 188.19 190.47 188.16 C 189.43 188.13 188.57 188.94 188.53 189.98 Z M 188.50 190.99 L 188.46 192.01 C 188.41 193.05 189.22 193.93 190.26 193.97 C 191.30 194.01 192.17 193.21 192.22 192.17 L 192.26 191.15 C 192.31 190.11 191.50 189.24 190.46 189.19 C 189.42 189.15 188.55 189.95 188.50 190.99 Z M 188.46 191.99 L 188.40 192.99 C 188.35 194.03 189.14 194.92 190.18 194.97 C 191.21 195.03 192.10 194.24 192.16 193.20 L 192.22 192.20 C 192.27 191.16 191.48 190.27 190.44 190.21 C 189.41 190.15 188.52 190.95 188.46 191.99 Z M 188.41 192.96 L 188.34 193.95 C 188.26 194.98 189.04 195.88 190.08 195.96 C 191.12 196.03 192.02 195.25 192.09 194.21 L 192.16 193.23 C 192.23 192.19 191.45 191.29 190.42 191.22 C 189.38 191.15 188.48 191.93 188.41 192.96 Z M 188.34 193.92 L 188.25 194.88 C 188.16 195.91 188.93 196.83 189.96 196.92 C 191.00 197.01 191.91 196.24 192.00 195.21 L 192.09 194.25 C 192.18 193.21 191.41 192.30 190.38 192.21 C 189.34 192.12 188.43 192.88 188.34 193.92 Z M 188.26 194.84 L 188.16 195.77 C 188.05 196.81 188.79 197.73 189.83 197.84 C 190.86 197.96 191.79 197.21 191.90 196.17 L 192.00 195.24 C 192.11 194.21 191.36 193.28 190.33 193.17 C 189.30 193.06 188.37 193.81 188.26 194.84 Z M 188.16 195.73 L 188.02 196.84 C 187.88 197.87 188.60 198.81 189.63 198.95 C 190.66 199.09 191.61 198.36 191.74 197.33 L 191.89 196.22 C 192.03 195.19 191.30 194.25 190.28 194.11 C 189.25 193.97 188.30 194.70 188.16 195.73 Z M 188.02 196.78 L 187.84 197.90 C 187.67 198.93 188.37 199.89 189.40 200.06 C 190.42 200.23 191.39 199.53 191.55 198.51 L 191.74 197.39 C 191.90 196.36 191.21 195.40 190.18 195.23 C 189.16 195.06 188.19 195.76 188.02 196.78 Z M 187.85 197.84 L 187.65 198.91 C 187.45 199.93 188.11 200.92 189.13 201.11 C 190.15 201.31 191.14 200.65 191.34 199.63 L 191.54 198.56 C 191.74 197.54 191.08 196.56 190.06 196.36 C 189.04 196.16 188.05 196.83 187.85 197.84 Z M 187.66 198.85 L 187.43 199.87 C 187.20 200.88 187.83 201.89 188.85 202.12 C 189.86 202.35 190.86 201.71 191.09 200.70 L 191.32 199.68 C 191.55 198.67 190.92 197.67 189.91 197.44 C 188.89 197.21 187.89 197.84 187.66 198.85 Z M 187.44 199.82 L 187.19 200.79 C 186.93 201.80 187.54 202.82 188.54 203.08 C 189.55 203.34 190.57 202.73 190.83 201.73 L 191.08 200.75 C 191.34 199.75 190.73 198.73 189.73 198.47 C 188.72 198.21 187.70 198.81 187.44 199.82 Z M 187.21 200.74 L 186.94 201.68 C 186.65 202.67 187.23 203.71 188.22 204.00 C 189.22 204.29 190.26 203.71 190.54 202.71 L 190.81 201.78 C 191.10 200.78 190.53 199.74 189.53 199.45 C 188.53 199.17 187.49 199.74 187.21 200.74 Z M 186.95 201.63 L 186.67 202.53 C 186.35 203.52 186.90 204.57 187.89 204.88 C 188.88 205.20 189.93 204.65 190.24 203.66 L 190.53 202.76 C 190.84 201.77 190.29 200.72 189.31 200.40 C 188.32 200.09 187.26 200.64 186.95 201.63 Z M 186.68 202.49 L 186.38 203.36 C 186.05 204.34 186.57 205.41 187.55 205.74 C 188.53 206.08 189.59 205.56 189.93 204.58 L 190.23 203.70 C 190.57 202.72 190.04 201.66 189.06 201.32 C 188.08 200.99 187.02 201.51 186.68 202.49 Z M 186.40 203.32 L 186.08 204.17 C 185.73 205.14 186.23 206.22 187.20 206.58 C 188.17 206.93 189.25 206.43 189.61 205.46 L 189.92 204.61 C 190.27 203.64 189.77 202.56 188.80 202.21 C 187.83 201.85 186.75 202.35 186.40 203.32 Z M 186.10 204.14 L 185.78 204.97 C 185.40 205.94 185.88 207.02 186.85 207.39 C 187.82 207.77 188.90 207.29 189.27 206.32 L 189.59 205.49 C 189.97 204.53 189.49 203.44 188.52 203.07 C 187.56 202.70 186.47 203.18 186.10 204.14 Z M 185.79 204.95 L 185.42 205.86 C 185.03 206.82 185.50 207.91 186.45 208.30 C 187.41 208.69 188.51 208.22 188.89 207.26 L 189.26 206.35 C 189.65 205.39 189.18 204.30 188.23 203.91 C 187.27 203.52 186.18 203.99 185.79 204.95 Z M 185.43 205.84 L 185.03 206.80 C 184.63 207.75 185.08 208.84 186.03 209.24 C 186.98 209.64 188.08 209.20 188.48 208.24 L 188.88 207.29 C 189.28 206.34 188.83 205.24 187.88 204.84 C 186.93 204.44 185.83 204.89 185.43 205.84 Z M 185.05 206.77 L 184.63 207.71 C 184.22 208.65 184.65 209.75 185.59 210.16 C 186.53 210.58 187.63 210.15 188.05 209.21 L 188.46 208.27 C 188.88 207.33 188.45 206.23 187.50 205.81 C 186.56 205.40 185.46 205.83 185.05 206.77 Z M 184.65 207.68 L 184.23 208.60 C 183.80 209.53 184.21 210.64 185.14 211.07 C 186.07 211.50 187.18 211.09 187.61 210.15 L 188.03 209.23 C 188.46 208.30 188.05 207.20 187.12 206.77 C 186.19 206.34 185.08 206.75 184.65 207.68 Z M 184.25 208.57 L 183.81 209.47 C 183.37 210.39 183.75 211.50 184.68 211.95 C 185.60 212.39 186.71 212.01 187.16 211.08 L 187.59 210.18 C 188.04 209.26 187.65 208.15 186.73 207.70 C 185.80 207.26 184.69 207.64 184.25 208.57 Z M 183.83 209.44 L 183.39 210.32 C 182.92 211.23 183.29 212.35 184.20 212.81 C 185.12 213.27 186.23 212.91 186.69 211.99 L 187.14 211.11 C 187.60 210.20 187.23 209.08 186.32 208.62 C 185.41 208.16 184.29 208.53 183.83 209.44 Z M 183.41 210.29 L 182.95 211.15 C 182.47 212.06 182.81 213.18 183.71 213.65 C 184.62 214.13 185.74 213.79 186.22 212.89 L 186.67 212.02 C 187.15 211.12 186.81 210.00 185.91 209.52 C 185.00 209.04 183.88 209.39 183.41 210.29 Z M 182.97 211.12 L 182.50 211.97 C 182.00 212.86 182.32 213.98 183.21 214.48 C 184.10 214.97 185.23 214.65 185.72 213.76 L 186.19 212.92 C 186.69 212.03 186.37 210.90 185.48 210.41 C 184.59 209.91 183.47 210.23 182.97 211.12 Z M 182.52 211.93 L 182.03 212.77 C 181.52 213.64 181.81 214.77 182.69 215.29 C 183.57 215.80 184.70 215.51 185.21 214.63 L 185.70 213.80 C 186.21 212.92 185.92 211.79 185.04 211.28 C 184.16 210.76 183.04 211.06 182.52 211.93 Z M 182.06 212.73 L 181.54 213.57 C 181.01 214.43 181.27 215.57 182.14 216.10 C 183.00 216.63 184.13 216.37 184.67 215.50 L 185.19 214.66 C 185.72 213.80 185.45 212.67 184.59 212.13 C 183.73 211.60 182.59 211.87 182.06 212.73 Z M 181.57 213.53 L 181.03 214.35 C 180.47 215.20 180.71 216.33 181.56 216.89 C 182.41 217.45 183.54 217.21 184.10 216.36 L 184.64 215.54 C 185.20 214.70 184.96 213.56 184.11 213.00 C 183.26 212.44 182.13 212.68 181.57 213.53 Z M 181.06 214.30 L 180.50 215.11 C 179.92 215.93 180.12 217.08 180.95 217.66 C 181.78 218.24 182.92 218.04 183.50 217.21 L 184.07 216.41 C 184.65 215.58 184.45 214.44 183.62 213.85 C 182.79 213.27 181.65 213.47 181.06 214.30 Z M 180.54 215.06 L 179.95 215.84 C 179.34 216.65 179.50 217.80 180.31 218.41 C 181.12 219.02 182.27 218.85 182.88 218.04 L 183.47 217.26 C 184.07 216.45 183.91 215.30 183.10 214.69 C 182.30 214.09 181.15 214.25 180.54 215.06 Z M 179.99 215.80 L 179.37 216.57 C 178.73 217.35 178.85 218.50 179.64 219.14 C 180.42 219.77 181.57 219.65 182.21 218.87 L 182.83 218.09 C 183.47 217.31 183.35 216.16 182.56 215.52 C 181.78 214.89 180.63 215.01 179.99 215.80 Z M 179.41 216.52 L 178.75 217.28 C 178.09 218.04 178.17 219.19 178.93 219.85 C 179.69 220.51 180.84 220.43 181.50 219.67 L 182.16 218.92 C 182.83 218.16 182.75 217.00 181.99 216.34 C 181.23 215.68 180.07 215.76 179.41 216.52 Z M 178.80 217.23 L 178.10 217.97 C 177.41 218.70 177.44 219.86 178.17 220.55 C 178.91 221.24 180.06 221.20 180.75 220.47 L 181.45 219.72 C 182.14 218.99 182.11 217.84 181.38 217.15 C 180.64 216.46 179.49 216.49 178.80 217.23 Z M 178.15 217.92 L 177.40 218.65 C 176.69 219.36 176.68 220.51 177.38 221.23 C 178.09 221.95 179.24 221.96 179.96 221.25 L 180.70 220.52 C 181.42 219.82 181.43 218.66 180.72 217.95 C 180.02 217.23 178.87 217.22 178.15 217.92 Z M 177.45 218.61 L 176.77 219.24 C 176.03 219.91 175.98 221.06 176.65 221.80 C 177.33 222.55 178.48 222.60 179.22 221.92 L 179.91 221.29 C 180.65 220.62 180.70 219.47 180.02 218.73 C 179.34 217.98 178.19 217.93 177.45 218.61 Z M 176.81 219.20 L 176.09 219.81 C 175.33 220.47 175.24 221.62 175.90 222.38 C 176.55 223.14 177.70 223.23 178.46 222.57 L 179.18 221.96 C 179.94 221.30 180.03 220.15 179.37 219.39 C 178.72 218.63 177.57 218.54 176.81 219.20 Z M 176.13 219.78 L 175.38 220.39 C 174.60 221.02 174.48 222.16 175.11 222.94 C 175.74 223.72 176.89 223.85 177.67 223.21 L 178.42 222.61 C 179.20 221.98 179.32 220.83 178.69 220.05 C 178.06 219.27 176.91 219.15 176.13 219.78 Z M 175.42 220.36 L 174.64 220.96 C 173.84 221.57 173.69 222.71 174.30 223.50 C 174.91 224.30 176.05 224.45 176.85 223.84 L 177.63 223.24 C 178.43 222.64 178.58 221.50 177.97 220.70 C 177.36 219.90 176.22 219.75 175.42 220.36 Z M 174.68 220.93 L 173.87 221.52 C 173.06 222.11 172.87 223.24 173.46 224.05 C 174.05 224.86 175.18 225.05 176.00 224.46 L 176.81 223.87 C 177.62 223.28 177.80 222.15 177.21 221.34 C 176.63 220.52 175.49 220.34 174.68 220.93 Z M 173.90 221.49 L 173.07 222.07 C 172.24 222.64 172.03 223.77 172.60 224.59 C 173.17 225.42 174.29 225.63 175.12 225.06 L 175.96 224.48 C 176.78 223.92 176.99 222.79 176.43 221.96 C 175.86 221.14 174.73 220.93 173.90 221.49 Z M 173.10 222.05 L 172.24 222.61 C 171.40 223.16 171.16 224.28 171.71 225.12 C 172.26 225.96 173.38 226.19 174.22 225.65 L 175.08 225.08 C 175.92 224.53 176.16 223.41 175.61 222.57 C 175.06 221.73 173.94 221.50 173.10 222.05 Z M 172.27 222.59 L 171.39 223.14 C 170.54 223.67 170.28 224.79 170.80 225.64 C 171.33 226.49 172.45 226.75 173.30 226.22 L 174.19 225.67 C 175.04 225.14 175.30 224.02 174.77 223.17 C 174.24 222.32 173.12 222.06 172.27 222.59 Z M 171.42 223.12 L 170.51 223.66 C 169.65 224.17 169.37 225.28 169.88 226.14 C 170.38 227.00 171.50 227.28 172.36 226.78 L 173.26 226.24 C 174.12 225.73 174.41 224.62 173.90 223.76 C 173.39 222.90 172.28 222.61 171.42 223.12 Z M 170.54 223.64 L 169.65 224.14 C 168.78 224.64 168.48 225.74 168.97 226.61 C 169.46 227.48 170.56 227.79 171.43 227.30 L 172.32 226.79 C 173.19 226.30 173.50 225.20 173.01 224.33 C 172.52 223.46 171.41 223.15 170.54 223.64 Z M 169.69 224.13 L 168.81 224.60 C 167.93 225.08 167.60 226.17 168.07 227.05 C 168.54 227.93 169.64 228.26 170.52 227.79 L 171.40 227.31 C 172.28 226.84 172.61 225.74 172.13 224.86 C 171.66 223.98 170.56 223.65 169.69 224.13 Z M 168.84 224.59 L 167.95 225.04 C 167.06 225.50 166.71 226.59 167.16 227.48 C 167.62 228.36 168.71 228.71 169.59 228.26 L 170.49 227.80 C 171.37 227.35 171.72 226.26 171.27 225.37 C 170.82 224.48 169.73 224.13 168.84 224.59 Z M 167.98 225.03 L 167.08 225.47 C 166.18 225.91 165.81 226.98 166.24 227.88 C 166.68 228.78 167.76 229.15 168.65 228.71 L 169.56 228.27 C 170.45 227.84 170.83 226.76 170.39 225.86 C 169.96 224.97 168.88 224.59 167.98 225.03 Z M 167.11 225.45 L 166.20 225.87 C 165.29 226.29 164.90 227.36 165.31 228.26 C 165.73 229.17 166.80 229.56 167.70 229.15 L 168.62 228.73 C 169.52 228.31 169.92 227.24 169.50 226.34 C 169.09 225.44 168.02 225.04 167.11 225.45 Z M 166.24 225.86 L 165.31 226.26 C 164.40 226.65 163.98 227.71 164.37 228.62 C 164.77 229.54 165.83 229.96 166.74 229.56 L 167.66 229.16 C 168.58 228.77 169.00 227.71 168.60 226.80 C 168.21 225.89 167.15 225.47 166.24 225.86 Z M 165.35 226.24 L 164.42 226.62 C 163.50 226.99 163.05 228.04 163.43 228.96 C 163.80 229.88 164.84 230.33 165.77 229.95 L 166.70 229.58 C 167.62 229.21 168.06 228.16 167.69 227.24 C 167.32 226.32 166.27 225.87 165.35 226.24 Z M 164.46 226.60 L 163.53 226.95 C 162.60 227.30 162.13 228.34 162.47 229.27 C 162.82 230.20 163.86 230.67 164.78 230.32 L 165.72 229.97 C 166.65 229.62 167.12 228.59 166.78 227.66 C 166.43 226.73 165.39 226.26 164.46 226.60 Z M 163.57 226.94 L 162.63 227.26 C 161.70 227.59 161.20 228.61 161.52 229.54 C 161.84 230.48 162.86 230.98 163.80 230.66 L 164.74 230.33 C 165.68 230.01 166.17 228.99 165.85 228.05 C 165.53 227.12 164.51 226.62 163.57 226.94 Z M 162.68 227.25 L 161.74 227.54 C 160.79 227.84 160.27 228.84 160.56 229.79 C 160.85 230.73 161.86 231.26 162.80 230.97 L 163.75 230.67 C 164.69 230.38 165.22 229.37 164.93 228.43 C 164.63 227.48 163.63 226.96 162.68 227.25 Z M 161.79 227.53 L 160.83 227.80 C 159.88 228.06 159.32 229.05 159.59 230.00 C 159.85 230.95 160.84 231.51 161.79 231.25 L 162.75 230.98 C 163.70 230.71 164.26 229.73 164.00 228.77 C 163.73 227.82 162.74 227.26 161.79 227.53 Z M 160.89 227.78 L 159.90 228.02 C 158.94 228.26 158.36 229.23 158.59 230.19 C 158.82 231.14 159.79 231.73 160.75 231.50 L 161.73 231.26 C 162.69 231.02 163.28 230.06 163.05 229.10 C 162.81 228.14 161.85 227.55 160.89 227.78 Z M 159.96 228.02 L 158.97 228.22 C 158.01 228.43 157.39 229.38 157.60 230.34 C 157.80 231.30 158.75 231.92 159.71 231.72 L 160.70 231.51 C 161.66 231.30 162.28 230.36 162.07 229.39 C 161.87 228.43 160.92 227.81 159.96 228.02 Z M 159.03 228.22 L 158.04 228.39 C 157.07 228.57 156.43 229.50 156.61 230.47 C 156.78 231.44 157.71 232.08 158.68 231.90 L 159.66 231.72 C 160.63 231.55 161.27 230.62 161.10 229.65 C 160.92 228.68 159.99 228.04 159.03 228.22 Z M 158.09 228.39 L 157.10 228.54 C 156.13 228.69 155.47 229.60 155.61 230.57 C 155.76 231.54 156.67 232.21 157.64 232.06 L 158.63 231.91 C 159.60 231.76 160.27 230.85 160.12 229.88 C 159.97 228.91 159.06 228.24 158.09 228.39 Z M 157.15 228.54 L 156.16 228.66 C 155.19 228.79 154.50 229.68 154.62 230.65 C 154.75 231.63 155.64 232.31 156.61 232.19 L 157.60 232.06 C 158.57 231.94 159.26 231.05 159.14 230.07 C 159.01 229.10 158.12 228.41 157.15 228.54 Z M 156.20 228.66 L 155.21 228.76 C 154.24 228.86 153.53 229.74 153.63 230.71 C 153.73 231.69 154.61 232.40 155.58 232.30 L 156.57 232.19 C 157.55 232.09 158.26 231.22 158.15 230.24 C 158.05 229.27 157.18 228.56 156.20 228.66 Z M 155.25 228.76 L 154.26 228.84 C 153.29 228.92 152.56 229.78 152.64 230.76 C 152.72 231.73 153.58 232.46 154.55 232.38 L 155.54 232.30 C 156.52 232.22 157.25 231.36 157.17 230.38 C 157.09 229.41 156.23 228.68 155.25 228.76 Z M 154.30 228.84 L 153.30 228.91 C 152.33 228.97 151.58 229.81 151.65 230.79 C 151.71 231.76 152.55 232.50 153.53 232.44 L 154.52 232.38 C 155.50 232.32 156.24 231.48 156.17 230.50 C 156.11 229.52 155.27 228.78 154.30 228.84 Z M 153.33 228.91 L 152.33 228.95 C 151.36 229.00 150.60 229.83 150.65 230.80 C 150.70 231.78 151.52 232.53 152.50 232.49 L 153.50 232.44 C 154.47 232.40 155.23 231.57 155.18 230.59 C 155.13 229.62 154.31 228.86 153.33 228.91 Z M 152.36 228.96 L 151.37 228.99 C 150.39 229.02 149.63 229.83 149.66 230.81 C 149.69 231.78 150.50 232.55 151.48 232.52 L 152.47 232.49 C 153.45 232.46 154.21 231.64 154.18 230.67 C 154.15 229.69 153.34 228.92 152.36 228.96 Z M 151.40 228.99 L 150.40 229.00 C 149.43 229.02 148.65 229.82 148.66 230.79 C 148.68 231.76 149.48 232.54 150.45 232.53 L 151.45 232.51 C 152.42 232.50 153.20 231.70 153.18 230.73 C 153.17 229.75 152.37 228.97 151.40 228.99 Z M 150.44 229.01 L 149.44 229.00 C 148.47 228.99 147.68 229.77 147.67 230.74 C 147.66 231.72 148.44 232.51 149.42 232.52 L 150.41 232.53 C 151.38 232.53 152.18 231.75 152.19 230.78 C 152.19 229.81 151.41 229.01 150.44 229.01 Z M 149.49 229.00 L 148.49 228.97 C 147.52 228.93 146.71 229.69 146.68 230.66 C 146.64 231.63 147.40 232.45 148.37 232.48 L 149.37 232.51 C 150.34 232.55 151.15 231.79 151.19 230.82 C 151.22 229.85 150.46 229.04 149.49 229.00 Z M 148.55 228.97 L 147.55 228.91 C 146.59 228.84 145.75 229.58 145.69 230.54 C 145.62 231.51 146.35 232.35 147.32 232.41 L 148.32 232.47 C 149.28 232.54 150.12 231.81 150.18 230.84 C 150.25 229.87 149.52 229.04 148.55 228.97 Z M 147.62 228.92 L 146.63 228.81 C 145.66 228.71 144.80 229.41 144.70 230.38 C 144.60 231.34 145.30 232.20 146.27 232.30 L 147.26 232.40 C 148.22 232.50 149.08 231.80 149.18 230.84 C 149.28 229.88 148.58 229.02 147.62 228.92 Z M 146.70 228.83 L 145.71 228.68 C 144.75 228.54 143.87 229.20 143.73 230.16 C 143.59 231.12 144.25 232.00 145.21 232.14 L 146.19 232.29 C 147.15 232.43 148.04 231.76 148.18 230.81 C 148.32 229.85 147.65 228.96 146.70 228.83 Z M 145.79 228.70 L 144.81 228.51 C 143.86 228.33 142.95 228.94 142.76 229.89 C 142.58 230.84 143.20 231.75 144.15 231.94 L 145.13 232.13 C 146.07 232.31 146.99 231.69 147.17 230.74 C 147.36 229.80 146.74 228.88 145.79 228.70 Z M 144.90 228.53 L 143.92 228.29 C 142.99 228.06 142.04 228.63 141.81 229.56 C 141.58 230.50 142.15 231.44 143.08 231.67 L 144.06 231.91 C 144.99 232.15 145.94 231.58 146.17 230.64 C 146.40 229.71 145.83 228.76 144.90 228.53 Z M 144.01 228.32 L 143.05 228.02 C 142.13 227.74 141.16 228.26 140.87 229.17 C 140.59 230.09 141.11 231.07 142.03 231.35 L 142.99 231.65 C 143.91 231.93 144.88 231.41 145.17 230.49 C 145.45 229.57 144.93 228.60 144.01 228.32 Z M 143.14 228.06 L 142.21 227.71 C 141.31 227.38 140.31 227.83 139.98 228.73 C 139.64 229.63 140.10 230.63 141.00 230.96 L 141.93 231.31 C 142.83 231.65 143.83 231.19 144.16 230.29 C 144.50 229.39 144.04 228.39 143.14 228.06 Z M 142.30 227.75 L 141.38 227.35 C 140.50 226.97 139.48 227.37 139.10 228.25 C 138.72 229.12 139.12 230.14 140.00 230.53 L 140.91 230.93 C 141.79 231.31 142.81 230.91 143.19 230.03 C 143.57 229.15 143.17 228.13 142.30 227.75 Z M 141.45 227.39 L 140.55 226.94 C 139.69 226.52 138.66 226.87 138.23 227.72 C 137.81 228.58 138.16 229.62 139.02 230.04 L 139.92 230.49 C 140.78 230.91 141.81 230.56 142.24 229.70 C 142.66 228.85 142.31 227.81 141.45 227.39 Z M 140.62 226.98 L 139.73 226.49 C 138.89 226.03 137.85 226.34 137.39 227.17 C 136.93 228.00 137.23 229.05 138.06 229.51 L 138.95 230.00 C 139.79 230.46 140.83 230.16 141.29 229.32 C 141.75 228.49 141.45 227.44 140.62 226.98 Z M 139.79 226.53 L 138.92 226.00 C 138.10 225.51 137.05 225.77 136.56 226.59 C 136.06 227.40 136.32 228.46 137.14 228.95 L 138.01 229.47 C 138.82 229.97 139.88 229.70 140.37 228.89 C 140.86 228.08 140.60 227.02 139.79 226.53 Z M 138.97 226.04 L 138.12 225.49 C 137.33 224.97 136.26 225.19 135.74 225.98 C 135.22 226.77 135.45 227.84 136.24 228.36 L 137.09 228.91 C 137.88 229.43 138.94 229.21 139.46 228.42 C 139.98 227.62 139.76 226.56 138.97 226.04 Z M 138.16 225.52 L 137.34 224.94 C 136.56 224.40 135.50 224.58 134.95 225.36 C 134.41 226.13 134.60 227.20 135.37 227.74 L 136.20 228.32 C 136.97 228.87 138.04 228.68 138.58 227.91 C 139.12 227.13 138.94 226.06 138.16 225.52 Z M 137.38 224.97 L 136.58 224.38 C 135.82 223.81 134.75 223.96 134.19 224.72 C 133.62 225.47 133.77 226.54 134.53 227.11 L 135.33 227.71 C 136.09 228.27 137.16 228.12 137.72 227.36 C 138.29 226.61 138.13 225.54 137.38 224.97 Z M 136.61 224.41 L 135.84 223.79 C 135.10 223.21 134.03 223.34 133.44 224.07 C 132.86 224.81 132.98 225.88 133.72 226.47 L 134.50 227.08 C 135.23 227.66 136.30 227.54 136.89 226.80 C 137.47 226.06 137.35 224.99 136.61 224.41 Z M 135.87 223.82 L 135.12 223.20 C 134.40 222.60 133.33 222.70 132.73 223.42 C 132.13 224.14 132.23 225.22 132.95 225.82 L 133.69 226.44 C 134.41 227.04 135.48 226.94 136.09 226.22 C 136.69 225.50 136.59 224.42 135.87 223.82 Z M 135.15 223.23 L 134.41 222.59 C 133.70 221.97 132.63 222.04 132.02 222.75 C 131.40 223.45 131.47 224.52 132.18 225.14 L 132.92 225.79 C 133.63 226.40 134.70 226.33 135.31 225.62 C 135.93 224.92 135.85 223.85 135.15 223.23 Z M 134.43 222.62 L 133.71 221.96 C 133.03 221.33 131.96 221.37 131.33 222.06 C 130.70 222.75 130.74 223.81 131.43 224.44 L 132.15 225.11 C 132.84 225.74 133.91 225.69 134.54 225.00 C 135.17 224.32 135.12 223.25 134.43 222.62 Z M 133.74 221.99 L 133.05 221.32 C 132.38 220.68 131.32 220.69 130.67 221.36 C 130.03 222.03 130.04 223.09 130.71 223.73 L 131.40 224.41 C 132.07 225.05 133.13 225.04 133.78 224.37 C 134.42 223.70 134.41 222.64 133.74 221.99 Z M 133.08 221.36 L 132.41 220.67 C 131.76 220.01 130.70 220.00 130.04 220.64 C 129.38 221.29 129.37 222.35 130.01 223.01 L 130.68 223.70 C 131.33 224.36 132.39 224.37 133.05 223.73 C 133.71 223.08 133.72 222.02 133.08 221.36 Z M 132.43 220.71 L 131.78 220.00 C 131.16 219.33 130.10 219.28 129.43 219.91 C 128.75 220.53 128.71 221.58 129.33 222.26 L 129.98 222.97 C 130.61 223.64 131.66 223.69 132.34 223.07 C 133.01 222.44 133.06 221.39 132.43 220.71 Z M 131.81 220.04 L 131.17 219.31 C 130.57 218.62 129.52 218.54 128.83 219.14 C 128.14 219.75 128.06 220.79 128.66 221.48 L 129.30 222.22 C 129.91 222.91 130.95 222.98 131.64 222.38 C 132.33 221.78 132.41 220.73 131.81 220.04 Z M 131.19 219.35 L 130.56 218.58 C 129.98 217.88 128.94 217.77 128.23 218.35 C 127.53 218.93 127.43 219.97 128.01 220.68 L 128.64 221.44 C 129.22 222.15 130.26 222.25 130.96 221.67 C 131.67 221.09 131.77 220.05 131.19 219.35 Z M 130.58 218.62 L 129.95 217.81 C 129.39 217.09 128.36 216.97 127.64 217.52 C 126.93 218.08 126.80 219.12 127.36 219.83 L 127.99 220.64 C 128.55 221.35 129.58 221.48 130.29 220.92 C 131.01 220.37 131.14 219.33 130.58 218.62 Z M 129.97 217.85 L 129.34 217.00 C 128.80 216.27 127.78 216.12 127.05 216.66 C 126.32 217.19 126.17 218.22 126.71 218.94 L 127.34 219.80 C 127.88 220.52 128.90 220.67 129.63 220.14 C 130.35 219.60 130.51 218.57 129.97 217.85 Z M 129.35 217.03 L 128.74 216.16 C 128.22 215.43 127.20 215.26 126.47 215.78 C 125.73 216.30 125.56 217.31 126.08 218.05 L 126.69 218.91 C 127.22 219.65 128.23 219.82 128.97 219.30 C 129.70 218.78 129.87 217.76 129.35 217.03 Z M 128.75 216.19 L 128.25 215.45 C 127.74 214.71 126.73 214.52 125.99 215.03 C 125.25 215.53 125.06 216.54 125.57 217.29 L 126.07 218.02 C 126.58 218.76 127.59 218.95 128.33 218.45 C 129.07 217.94 129.26 216.93 128.75 216.19 Z M 128.26 215.47 L 127.75 214.71 C 127.25 213.96 126.25 213.76 125.50 214.25 C 124.76 214.75 124.55 215.75 125.05 216.50 L 125.56 217.27 C 126.05 218.01 127.06 218.21 127.80 217.72 C 128.55 217.22 128.75 216.22 128.26 215.47 Z M 127.75 214.72 L 127.24 213.93 C 126.75 213.18 125.75 212.97 125.00 213.45 C 124.25 213.94 124.04 214.94 124.53 215.69 L 125.04 216.48 C 125.53 217.23 126.53 217.44 127.28 216.96 C 128.03 216.47 128.24 215.47 127.75 214.72 Z M 127.24 213.94 L 126.72 213.13 C 126.25 212.37 125.25 212.15 124.50 212.63 C 123.75 213.11 123.52 214.10 124.00 214.86 L 124.52 215.67 C 125.00 216.42 126.00 216.65 126.75 216.17 C 127.50 215.69 127.72 214.70 127.24 213.94 Z M 126.73 213.14 L 126.20 212.30 C 125.73 211.55 124.74 211.32 123.99 211.79 C 123.23 212.26 123.00 213.25 123.47 214.00 L 124.00 214.84 C 124.47 215.60 125.46 215.83 126.21 215.35 C 126.97 214.88 127.20 213.89 126.73 213.14 Z M 126.21 212.31 L 125.68 211.45 C 125.21 210.70 124.23 210.46 123.47 210.93 C 122.72 211.39 122.48 212.38 122.94 213.13 L 123.47 213.99 C 123.94 214.75 124.92 214.98 125.68 214.52 C 126.43 214.05 126.67 213.07 126.21 212.31 Z M 125.68 211.46 L 125.15 210.59 C 124.69 209.83 123.70 209.59 122.95 210.05 C 122.19 210.51 121.95 211.49 122.41 212.25 L 122.94 213.12 C 123.40 213.88 124.39 214.12 125.14 213.66 C 125.90 213.20 126.14 212.22 125.68 211.46 Z M 125.15 210.59 L 124.61 209.71 C 124.16 208.95 123.18 208.70 122.42 209.16 C 121.67 209.61 121.42 210.59 121.88 211.35 L 122.41 212.24 C 122.87 212.99 123.85 213.24 124.60 212.79 C 125.36 212.33 125.60 211.35 125.15 210.59 Z M 124.61 209.71 L 124.08 208.81 C 123.63 208.06 122.65 207.81 121.89 208.26 C 121.14 208.71 120.89 209.69 121.34 210.44 L 121.88 211.34 C 122.33 212.10 123.31 212.35 124.06 211.90 C 124.82 211.45 125.06 210.47 124.61 209.71 Z M 124.08 208.82 L 123.54 207.91 C 123.09 207.15 122.12 206.91 121.36 207.35 C 120.61 207.80 120.36 208.77 120.80 209.53 L 121.34 210.44 C 121.79 211.19 122.76 211.44 123.52 210.99 C 124.27 210.55 124.52 209.57 124.08 208.82 Z M 123.54 207.91 L 123.00 207.00 C 122.55 206.25 121.58 206.00 120.83 206.44 C 120.07 206.88 119.82 207.86 120.27 208.61 L 120.81 209.52 C 121.25 210.28 122.22 210.53 122.98 210.08 C 123.73 209.64 123.98 208.67 123.54 207.91 Z M 123.00 207.00 L 122.46 206.09 C 122.01 205.33 121.04 205.08 120.29 205.53 C 119.54 205.97 119.29 206.94 119.73 207.69 L 120.27 208.61 C 120.71 209.36 121.68 209.61 122.43 209.17 C 123.19 208.72 123.44 207.76 123.00 207.00 Z M 122.45 206.09 L 122.41 206.01 C 121.97 205.26 121.00 205.01 120.25 205.45 C 119.50 205.89 119.24 206.86 119.69 207.61 L 119.73 207.69 C 120.17 208.44 121.14 208.69 121.89 208.25 C 122.65 207.81 122.90 206.84 122.45 206.09 Z"
      fill="black"
      fill-rule="nonzero" /><path d="M 130.33 160.02 L 130.03 161.02 C 129.76 161.92 130.28 162.87 131.18 163.14 C 132.08 163.41 133.03 162.89 133.30 161.99 L 133.60 160.99 C 133.86 160.09 133.35 159.14 132.45 158.87 C 131.54 158.60 130.59 159.12 130.33 160.02 Z M 130.02 161.02 L 129.72 162.01 C 129.45 162.92 129.97 163.87 130.88 164.14 C 131.79 164.41 132.75 163.89 133.02 162.99 L 133.31 161.99 C 133.58 161.08 133.06 160.13 132.15 159.86 C 131.24 159.59 130.29 160.11 130.02 161.02 Z M 129.71 162.01 L 129.42 163.00 C 129.15 163.92 129.67 164.88 130.59 165.15 C 131.51 165.42 132.47 164.89 132.74 163.98 L 133.03 162.99 C 133.30 162.07 132.78 161.11 131.86 160.84 C 130.94 160.57 129.98 161.09 129.71 162.01 Z M 129.41 163.00 L 129.12 163.99 C 128.85 164.91 129.38 165.88 130.30 166.15 C 131.23 166.42 132.19 165.89 132.46 164.96 L 132.75 163.98 C 133.02 163.05 132.49 162.09 131.57 161.82 C 130.64 161.55 129.68 162.08 129.41 163.00 Z M 129.11 163.99 L 128.82 164.97 C 128.56 165.90 129.09 166.88 130.02 167.14 C 130.95 167.41 131.92 166.87 132.19 165.94 L 132.47 164.96 C 132.74 164.03 132.21 163.06 131.28 162.79 C 130.35 162.52 129.37 163.06 129.11 163.99 Z M 128.81 164.98 L 128.53 165.95 C 128.27 166.89 128.81 167.87 129.75 168.13 C 130.69 168.40 131.66 167.85 131.93 166.92 L 132.20 165.94 C 132.47 165.00 131.93 164.03 130.99 163.76 C 130.05 163.50 129.08 164.04 128.81 164.98 Z M 128.52 165.96 L 128.25 166.93 C 127.99 167.87 128.54 168.85 129.48 169.12 C 130.43 169.38 131.41 168.83 131.67 167.88 L 131.94 166.91 C 132.20 165.97 131.65 164.99 130.71 164.73 C 129.76 164.46 128.78 165.02 128.52 165.96 Z M 128.24 166.94 L 127.97 167.90 C 127.72 168.85 128.28 169.83 129.23 170.09 C 130.18 170.35 131.17 169.79 131.42 168.83 L 131.69 167.87 C 131.94 166.92 131.38 165.94 130.43 165.68 C 129.48 165.42 128.49 165.98 128.24 166.94 Z M 127.96 167.91 L 127.71 168.86 C 127.46 169.82 128.03 170.80 128.99 171.06 C 129.95 171.31 130.93 170.74 131.19 169.77 L 131.44 168.82 C 131.69 167.86 131.12 166.88 130.16 166.63 C 129.20 166.37 128.21 166.95 127.96 167.91 Z M 127.69 168.87 L 127.45 169.81 C 127.21 170.78 127.79 171.76 128.76 172.01 C 129.73 172.26 130.72 171.67 130.96 170.70 L 131.20 169.76 C 131.45 168.79 130.87 167.81 129.90 167.56 C 128.93 167.31 127.94 167.90 127.69 168.87 Z M 127.44 169.82 L 127.21 170.75 C 126.97 171.73 127.57 172.71 128.55 172.95 C 129.53 173.19 130.51 172.59 130.75 171.62 L 130.98 170.69 C 131.22 169.71 130.62 168.72 129.64 168.48 C 128.67 168.25 127.68 168.84 127.44 169.82 Z M 127.20 170.76 L 126.98 171.68 C 126.75 172.66 127.36 173.65 128.35 173.88 C 129.34 174.11 130.32 173.50 130.55 172.51 L 130.77 171.60 C 131.00 170.61 130.39 169.63 129.40 169.40 C 128.41 169.17 127.43 169.78 127.20 170.76 Z M 126.97 171.70 L 126.75 172.69 C 126.53 173.68 127.16 174.67 128.15 174.89 C 129.15 175.11 130.13 174.48 130.35 173.48 L 130.57 172.49 C 130.79 171.50 130.16 170.51 129.17 170.29 C 128.17 170.08 127.19 170.70 126.97 171.70 Z M 126.74 172.71 L 126.53 173.73 C 126.33 174.73 126.97 175.70 127.97 175.91 C 128.97 176.12 129.95 175.47 130.15 174.47 L 130.36 173.46 C 130.57 172.46 129.92 171.48 128.92 171.28 C 127.92 171.07 126.94 171.71 126.74 172.71 Z M 126.52 173.75 L 126.33 174.75 C 126.14 175.75 126.80 176.73 127.80 176.92 C 128.81 177.11 129.78 176.45 129.97 175.44 L 130.16 174.45 C 130.35 173.44 129.69 172.47 128.69 172.28 C 127.68 172.09 126.71 172.75 126.52 173.75 Z M 126.32 174.77 L 126.15 175.76 C 125.97 176.77 126.64 177.73 127.66 177.91 C 128.67 178.09 129.63 177.42 129.81 176.41 L 129.98 175.42 C 130.16 174.41 129.48 173.44 128.47 173.27 C 127.46 173.09 126.50 173.76 126.32 174.77 Z M 126.14 175.78 L 125.98 176.76 C 125.82 177.78 126.51 178.73 127.52 178.90 C 128.54 179.06 129.49 178.37 129.66 177.36 L 129.82 176.38 C 129.98 175.37 129.29 174.41 128.28 174.24 C 127.26 174.08 126.30 174.77 126.14 175.78 Z M 125.97 176.79 L 125.83 177.76 C 125.68 178.78 126.38 179.73 127.40 179.88 C 128.42 180.03 129.37 179.33 129.52 178.31 L 129.67 177.34 C 129.82 176.32 129.11 175.37 128.09 175.21 C 127.07 175.06 126.12 175.77 125.97 176.79 Z M 125.82 177.78 L 125.69 178.75 C 125.55 179.78 126.26 180.72 127.29 180.86 C 128.31 181.00 129.26 180.28 129.40 179.26 L 129.53 178.29 C 129.67 177.26 128.95 176.32 127.93 176.18 C 126.90 176.04 125.96 176.76 125.82 177.78 Z M 125.68 178.77 L 125.56 179.75 C 125.43 180.78 126.16 181.71 127.19 181.84 C 128.22 181.97 129.15 181.24 129.28 180.21 L 129.40 179.24 C 129.53 178.21 128.80 177.27 127.77 177.14 C 126.75 177.02 125.81 177.75 125.68 178.77 Z M 125.55 179.77 L 125.44 180.74 C 125.32 181.78 126.06 182.71 127.10 182.83 C 128.13 182.94 129.06 182.20 129.18 181.17 L 129.29 180.19 C 129.41 179.16 128.67 178.23 127.63 178.11 C 126.60 177.99 125.67 178.73 125.55 179.77 Z M 125.43 180.76 L 125.33 181.75 C 125.22 182.78 125.97 183.71 127.01 183.82 C 128.05 183.93 128.97 183.17 129.08 182.14 L 129.18 181.15 C 129.29 180.12 128.54 179.19 127.51 179.08 C 126.47 178.97 125.54 179.72 125.43 180.76 Z M 125.32 181.76 L 125.23 182.76 C 125.13 183.80 125.89 184.72 126.93 184.82 C 127.97 184.92 128.89 184.16 128.99 183.12 L 129.09 182.12 C 129.19 181.08 128.43 180.16 127.39 180.06 C 126.35 179.96 125.42 180.72 125.32 181.76 Z M 125.22 182.77 L 125.15 183.59 C 125.06 184.63 125.83 185.55 126.87 185.64 C 127.91 185.73 128.83 184.97 128.92 183.92 L 129.00 183.11 C 129.09 182.07 128.32 181.15 127.28 181.05 C 126.24 180.96 125.32 181.73 125.22 182.77 Z M 125.15 183.60 L 125.08 184.43 C 124.99 185.47 125.77 186.39 126.81 186.47 C 127.85 186.56 128.77 185.79 128.86 184.74 L 128.93 183.91 C 129.01 182.87 128.24 181.95 127.20 181.87 C 126.15 181.78 125.24 182.56 125.15 183.60 Z M 125.08 184.44 L 125.01 185.29 C 124.93 186.33 125.71 187.24 126.76 187.32 C 127.80 187.41 128.71 186.63 128.79 185.58 L 128.86 184.73 C 128.94 183.69 128.16 182.78 127.12 182.70 C 126.07 182.61 125.16 183.40 125.08 184.44 Z M 125.01 185.30 L 124.95 186.17 C 124.87 187.21 125.66 188.12 126.70 188.20 C 127.75 188.27 128.66 187.49 128.73 186.44 L 128.79 185.57 C 128.87 184.53 128.08 183.62 127.04 183.54 C 125.99 183.47 125.08 184.25 125.01 185.30 Z M 124.94 186.18 L 124.89 187.08 C 124.82 188.12 125.61 189.03 126.65 189.10 C 127.70 189.17 128.61 188.37 128.67 187.33 L 128.73 186.43 C 128.80 185.38 128.01 184.48 126.97 184.41 C 125.92 184.34 125.01 185.13 124.94 186.18 Z M 124.88 187.09 L 124.83 188.01 C 124.76 189.06 125.56 189.96 126.61 190.03 C 127.66 190.09 128.56 189.29 128.62 188.24 L 128.68 187.32 C 128.74 186.27 127.94 185.37 126.90 185.30 C 125.85 185.24 124.95 186.04 124.88 187.09 Z M 124.83 188.02 L 124.77 188.99 C 124.71 190.03 125.52 190.93 126.57 190.99 C 127.61 191.05 128.51 190.25 128.57 189.20 L 128.62 188.23 C 128.68 187.19 127.88 186.29 126.83 186.23 C 125.78 186.17 124.88 186.97 124.83 188.02 Z M 124.77 189.00 L 124.72 190.00 C 124.67 191.05 125.47 191.94 126.52 191.99 C 127.57 192.05 128.47 191.24 128.52 190.19 L 128.57 189.19 C 128.62 188.14 127.82 187.24 126.77 187.19 C 125.72 187.14 124.82 187.95 124.77 189.00 Z M 124.72 190.01 L 124.67 191.05 C 124.62 192.10 125.43 192.99 126.48 193.04 C 127.53 193.09 128.43 192.28 128.47 191.23 L 128.52 190.18 C 128.57 189.13 127.76 188.24 126.71 188.19 C 125.66 188.14 124.77 188.96 124.72 190.01 Z M 124.67 191.06 L 124.62 192.15 C 124.58 193.20 125.40 194.09 126.45 194.14 C 127.50 194.18 128.39 193.36 128.43 192.31 L 128.48 191.22 C 128.52 190.17 127.70 189.28 126.65 189.23 C 125.60 189.19 124.71 190.01 124.67 191.06 Z M 124.62 192.16 L 124.58 193.30 C 124.54 194.36 125.36 195.24 126.41 195.28 C 127.46 195.32 128.35 194.50 128.39 193.45 L 128.43 192.30 C 128.47 191.25 127.65 190.37 126.60 190.33 C 125.55 190.29 124.66 191.11 124.62 192.16 Z M 124.58 193.31 L 124.53 194.51 C 124.50 195.57 125.32 196.45 126.38 196.49 C 127.43 196.52 128.31 195.70 128.35 194.64 L 128.39 193.44 C 128.43 192.39 127.60 191.51 126.55 191.47 C 125.49 191.43 124.61 192.26 124.58 193.31 Z M 124.53 194.52 L 124.49 195.78 C 124.46 196.84 125.29 197.72 126.34 197.75 C 127.40 197.78 128.28 196.95 128.31 195.90 L 128.35 194.64 C 128.38 193.58 127.56 192.70 126.50 192.67 C 125.45 192.64 124.57 193.47 124.53 194.52 Z M 124.49 195.79 L 124.46 196.81 C 124.43 197.87 125.27 198.75 126.32 198.78 C 127.38 198.81 128.25 197.98 128.28 196.92 L 128.31 195.89 C 128.34 194.84 127.51 193.96 126.46 193.93 C 125.40 193.90 124.52 194.73 124.49 195.79 Z M 124.46 196.82 L 124.44 197.77 C 124.41 198.83 125.24 199.71 126.30 199.74 C 127.35 199.76 128.23 198.93 128.26 197.88 L 128.28 196.92 C 128.31 195.86 127.48 194.98 126.42 194.96 C 125.37 194.93 124.49 195.76 124.46 196.82 Z M 124.44 197.78 L 124.41 198.76 C 124.39 199.82 125.22 200.69 126.28 200.72 C 127.33 200.75 128.21 199.91 128.24 198.86 L 128.26 197.87 C 128.29 196.82 127.45 195.94 126.40 195.91 C 125.34 195.89 124.46 196.72 124.44 197.78 Z M 124.41 198.76 L 124.39 199.77 C 124.37 200.83 125.20 201.70 126.26 201.73 C 127.31 201.75 128.19 200.92 128.21 199.86 L 128.24 198.85 C 128.26 197.80 127.42 196.92 126.37 196.90 C 125.31 196.87 124.44 197.71 124.41 198.76 Z M 124.39 199.77 L 124.37 200.80 C 124.34 201.85 125.18 202.73 126.24 202.75 C 127.29 202.77 128.17 201.94 128.19 200.88 L 128.21 199.86 C 128.24 198.80 127.40 197.93 126.34 197.90 C 125.29 197.88 124.41 198.72 124.39 199.77 Z M 124.37 200.80 L 124.34 201.84 C 124.32 202.89 125.16 203.77 126.22 203.79 C 127.27 203.81 128.15 202.97 128.17 201.92 L 128.19 200.88 C 128.21 199.82 127.37 198.95 126.32 198.93 C 125.26 198.90 124.39 199.74 124.37 200.80 Z M 124.34 201.84 L 124.32 202.89 C 124.30 203.94 125.14 204.82 126.20 204.84 C 127.25 204.86 128.13 204.02 128.15 202.97 L 128.17 201.92 C 128.19 200.86 127.35 199.99 126.30 199.97 C 125.24 199.94 124.37 200.78 124.34 201.84 Z M 124.32 202.89 L 124.30 203.94 C 124.28 205.00 125.12 205.87 126.18 205.90 C 127.23 205.92 128.11 205.08 128.13 204.02 L 128.15 202.96 C 128.17 201.91 127.33 201.04 126.27 201.01 C 125.22 200.99 124.34 201.83 124.32 202.89 Z M 124.30 203.95 L 124.28 205.00 C 124.26 206.06 125.10 206.93 126.16 206.95 C 127.21 206.97 128.09 206.13 128.11 205.08 L 128.13 204.02 C 128.15 202.96 127.31 202.09 126.25 202.07 C 125.19 202.05 124.32 202.89 124.30 203.95 Z M 124.28 205.01 L 124.26 206.06 C 124.24 207.12 125.08 207.99 126.14 208.01 C 127.19 208.03 128.07 207.19 128.09 206.13 L 128.11 205.08 C 128.13 204.02 127.29 203.15 126.23 203.13 C 125.17 203.11 124.30 203.95 124.28 205.01 Z M 124.26 206.06 L 124.24 207.12 C 124.22 208.17 125.06 209.04 126.12 209.06 C 127.18 209.08 128.05 208.24 128.07 207.19 L 128.09 206.13 C 128.11 205.08 127.27 204.20 126.21 204.18 C 125.15 204.16 124.28 205.01 124.26 206.06 Z M 124.24 207.12 L 124.22 208.16 C 124.20 209.22 125.04 210.09 126.10 210.11 C 127.16 210.13 128.03 209.29 128.05 208.23 L 128.07 207.19 C 128.09 206.13 127.25 205.26 126.19 205.24 C 125.13 205.22 124.26 206.06 124.24 207.12 Z M 124.22 208.16 L 124.20 209.19 C 124.18 210.25 125.03 211.12 126.08 211.14 C 127.14 211.16 128.01 210.32 128.03 209.26 L 128.05 208.23 C 128.07 207.17 127.23 206.30 126.17 206.28 C 125.11 206.26 124.24 207.10 124.22 208.16 Z M 124.20 209.19 L 124.18 210.20 C 124.16 211.26 125.01 212.13 126.06 212.15 C 127.12 212.17 127.99 211.33 128.01 210.27 L 128.03 209.26 C 128.05 208.20 127.21 207.33 126.15 207.31 C 125.09 207.29 124.22 208.13 124.20 209.19 Z M 124.18 210.20 L 124.17 211.20 C 124.15 212.26 124.99 213.13 126.05 213.15 C 127.10 213.17 127.98 212.33 128.00 211.27 L 128.01 210.27 C 128.03 209.22 127.19 208.34 126.13 208.32 C 125.08 208.30 124.20 209.15 124.18 210.20 Z M 124.17 211.20 L 124.15 212.17 C 124.13 213.23 124.97 214.10 126.03 214.12 C 127.09 214.14 127.96 213.30 127.98 212.24 L 128.00 211.27 C 128.02 210.21 127.17 209.34 126.12 209.32 C 125.06 209.30 124.18 210.14 124.17 211.20 Z M 124.15 212.17 L 124.13 213.11 C 124.11 214.17 124.95 215.04 126.01 215.06 C 127.07 215.08 127.94 214.24 127.96 213.18 L 127.98 212.24 C 128.00 211.18 127.16 210.31 126.10 210.29 C 125.04 210.27 124.17 211.11 124.15 212.17 Z M 124.13 213.11 L 124.11 214.02 C 124.09 215.08 124.93 215.95 125.99 215.97 C 127.05 215.99 127.92 215.15 127.94 214.09 L 127.96 213.18 C 127.98 212.12 127.14 211.25 126.08 211.23 C 125.02 211.21 124.15 212.05 124.13 213.11 Z M 124.11 214.02 L 124.09 214.89 C 124.07 215.95 124.91 216.82 125.97 216.85 C 127.03 216.87 127.91 216.03 127.93 214.97 L 127.94 214.09 C 127.97 213.03 127.12 212.16 126.07 212.14 C 125.01 212.12 124.13 212.96 124.11 214.02 Z M 124.09 214.89 L 124.07 216.23 C 124.04 217.28 124.88 218.16 125.94 218.18 C 127.00 218.20 127.87 217.37 127.90 216.31 L 127.93 214.97 C 127.95 213.91 127.11 213.04 126.05 213.01 C 124.99 212.99 124.12 213.83 124.09 214.89 Z M 124.07 216.22 L 124.04 217.52 C 124.01 218.58 124.85 219.45 125.91 219.48 C 126.97 219.50 127.84 218.66 127.87 217.61 L 127.90 216.31 C 127.92 215.25 127.08 214.38 126.03 214.35 C 124.97 214.33 124.09 215.16 124.07 216.22 Z M 124.04 217.51 L 124.01 218.71 C 123.98 219.77 124.82 220.65 125.87 220.67 C 126.93 220.70 127.81 219.86 127.84 218.81 L 127.87 217.61 C 127.89 216.55 127.06 215.67 126.00 215.65 C 124.94 215.62 124.06 216.46 124.04 217.51 Z M 124.01 218.71 L 123.98 219.82 C 123.95 220.87 124.78 221.75 125.84 221.78 C 126.90 221.81 127.78 220.98 127.80 219.92 L 127.83 218.81 C 127.86 217.75 127.03 216.88 125.97 216.85 C 124.92 216.82 124.04 217.65 124.01 218.71 Z M 123.98 219.81 L 123.95 220.84 C 123.92 221.90 124.75 222.78 125.81 222.81 C 126.86 222.84 127.74 222.01 127.77 220.96 L 127.80 219.92 C 127.83 218.87 127.00 217.99 125.95 217.96 C 124.89 217.93 124.01 218.76 123.98 219.81 Z M 123.95 220.84 L 123.92 221.80 C 123.89 222.86 124.72 223.74 125.77 223.77 C 126.83 223.80 127.71 222.98 127.74 221.92 L 127.77 220.96 C 127.81 219.90 126.98 219.02 125.92 218.99 C 124.87 218.96 123.98 219.79 123.95 220.84 Z M 123.92 221.80 L 123.89 222.70 C 123.86 223.75 124.68 224.64 125.74 224.67 C 126.79 224.71 127.68 223.88 127.71 222.83 L 127.74 221.92 C 127.78 220.87 126.95 219.99 125.90 219.95 C 124.84 219.92 123.96 220.74 123.92 221.80 Z M 123.89 222.70 L 123.86 223.55 C 123.83 224.60 124.65 225.48 125.71 225.52 C 126.76 225.56 127.64 224.73 127.68 223.68 L 127.71 222.83 C 127.75 221.78 126.92 220.89 125.87 220.85 C 124.82 220.82 123.93 221.64 123.89 222.70 Z M 123.87 223.54 L 123.84 224.35 C 123.80 225.41 124.62 226.29 125.67 226.33 C 126.73 226.37 127.61 225.55 127.65 224.49 L 127.68 223.68 C 127.72 222.63 126.90 221.74 125.84 221.71 C 124.79 221.67 123.90 222.49 123.87 223.54 Z M 123.84 224.35 L 123.81 225.13 C 123.77 226.18 124.59 227.07 125.64 227.11 C 126.69 227.15 127.58 226.33 127.62 225.27 L 127.65 224.50 C 127.69 223.44 126.87 222.56 125.82 222.52 C 124.76 222.48 123.88 223.30 123.84 224.35 Z M 123.81 225.13 L 123.78 225.88 C 123.74 226.93 124.56 227.82 125.61 227.86 C 126.66 227.90 127.55 227.08 127.59 226.03 L 127.62 225.28 C 127.66 224.22 126.84 223.34 125.79 223.30 C 124.74 223.25 123.85 224.07 123.81 225.13 Z M 123.78 225.88 L 123.75 226.67 C 123.70 227.73 124.52 228.61 125.57 228.65 C 126.63 228.70 127.51 227.88 127.55 226.83 L 127.59 226.03 C 127.63 224.98 126.81 224.10 125.76 224.05 C 124.71 224.01 123.82 224.83 123.78 225.88 Z M 123.75 226.67 L 123.71 227.48 C 123.67 228.53 124.49 229.42 125.54 229.46 C 126.59 229.50 127.48 228.69 127.52 227.64 L 127.55 226.83 C 127.60 225.78 126.78 224.89 125.73 224.85 C 124.68 224.81 123.79 225.62 123.75 226.67 Z M 123.72 227.47 L 123.68 228.29 C 123.63 229.34 124.45 230.23 125.50 230.28 C 126.55 230.32 127.43 229.51 127.48 228.46 L 127.52 227.64 C 127.56 226.59 126.75 225.70 125.70 225.66 C 124.65 225.61 123.76 226.42 123.72 227.47 Z M 123.68 228.28 L 123.64 229.13 C 123.59 230.18 124.40 231.07 125.45 231.12 C 126.50 231.17 127.39 230.36 127.44 229.32 L 127.48 228.47 C 127.53 227.42 126.72 226.53 125.67 226.48 C 124.62 226.43 123.73 227.24 123.68 228.28 Z M 123.64 229.12 L 123.59 230.01 C 123.54 231.06 124.34 231.96 125.39 232.01 C 126.44 232.07 127.34 231.26 127.39 230.21 L 127.44 229.32 C 127.49 228.28 126.69 227.38 125.64 227.33 C 124.59 227.27 123.70 228.08 123.64 229.12 Z M 123.60 230.01 L 123.54 230.95 C 123.48 232.00 124.28 232.90 125.33 232.96 C 126.38 233.02 127.27 232.22 127.33 231.17 L 127.39 230.22 C 127.45 229.18 126.65 228.28 125.60 228.22 C 124.55 228.16 123.66 228.96 123.60 230.01 Z M 123.54 230.94 L 123.48 231.96 C 123.42 233.01 124.21 233.91 125.26 233.98 C 126.30 234.04 127.21 233.25 127.27 232.20 L 127.33 231.18 C 127.40 230.13 126.60 229.23 125.56 229.17 C 124.51 229.10 123.61 229.90 123.54 230.94 Z M 123.48 231.96 L 123.41 233.06 C 123.34 234.11 124.13 235.01 125.18 235.08 C 126.22 235.15 127.12 234.36 127.19 233.31 L 127.27 232.21 C 127.34 231.16 126.55 230.26 125.50 230.19 C 124.46 230.12 123.55 230.91 123.48 231.96 Z M 123.41 233.05 L 123.32 234.26 C 123.25 235.31 124.04 236.21 125.08 236.29 C 126.13 236.36 127.03 235.58 127.11 234.53 L 127.19 233.32 C 127.27 232.28 126.48 231.37 125.44 231.30 C 124.39 231.22 123.48 232.01 123.41 233.05 Z M 123.33 234.25 L 123.23 235.58 C 123.15 236.62 123.93 237.53 124.97 237.61 C 126.02 237.69 126.93 236.90 127.01 235.86 L 127.11 234.54 C 127.18 233.49 126.40 232.58 125.36 232.51 C 124.31 232.43 123.40 233.21 123.33 234.25 Z M 123.23 235.57 L 123.15 236.61 C 123.06 237.65 123.84 238.56 124.89 238.64 C 125.93 238.73 126.84 237.95 126.92 236.90 L 127.00 235.87 C 127.09 234.82 126.31 233.91 125.26 233.83 C 124.22 233.75 123.31 234.53 123.23 235.57 Z M 123.15 236.60 L 123.08 237.41 C 123.00 238.45 123.78 239.36 124.82 239.45 C 125.86 239.53 126.77 238.75 126.86 237.71 L 126.92 236.91 C 127.01 235.87 126.23 234.95 125.19 234.87 C 124.14 234.78 123.23 235.56 123.15 236.60 Z M 123.08 237.40 L 123.01 238.24 C 122.93 239.28 123.70 240.20 124.74 240.28 C 125.79 240.37 126.70 239.59 126.79 238.55 L 126.86 237.72 C 126.94 236.67 126.17 235.76 125.13 235.67 C 124.08 235.59 123.17 236.36 123.08 237.40 Z M 123.02 238.24 L 122.94 239.11 C 122.85 240.15 123.63 241.07 124.67 241.15 C 125.71 241.24 126.62 240.47 126.71 239.43 L 126.78 238.56 C 126.87 237.52 126.10 236.60 125.06 236.51 C 124.02 236.43 123.10 237.20 123.02 238.24 Z M 122.94 239.11 L 122.87 240.01 C 122.78 241.05 123.55 241.96 124.59 242.05 C 125.63 242.14 126.54 241.37 126.63 240.33 L 126.71 239.43 C 126.80 238.39 126.03 237.48 124.99 237.39 C 123.95 237.30 123.03 238.07 122.94 239.11 Z M 122.87 240.00 L 122.79 240.93 C 122.69 241.97 123.46 242.89 124.50 242.98 C 125.54 243.07 126.46 242.30 126.55 241.27 L 126.63 240.34 C 126.72 239.30 125.95 238.38 124.92 238.29 C 123.88 238.20 122.96 238.96 122.87 240.00 Z M 122.79 240.93 L 122.70 241.88 C 122.61 242.92 123.37 243.84 124.41 243.93 C 125.45 244.03 126.37 243.26 126.46 242.22 L 126.55 241.27 C 126.64 240.23 125.88 239.31 124.84 239.22 C 123.80 239.12 122.88 239.89 122.79 240.93 Z M 122.70 241.88 L 122.61 242.86 C 122.52 243.90 123.28 244.82 124.32 244.91 C 125.35 245.01 126.27 244.24 126.37 243.21 L 126.46 242.23 C 126.56 241.19 125.79 240.27 124.75 240.17 C 123.72 240.08 122.80 240.84 122.70 241.88 Z M 122.61 242.86 L 122.52 243.86 C 122.42 244.89 123.18 245.81 124.22 245.91 C 125.26 246.01 126.18 245.25 126.27 244.21 L 126.37 243.21 C 126.47 242.17 125.70 241.25 124.67 241.15 C 123.63 241.06 122.71 241.82 122.61 242.86 Z M 122.52 243.85 L 122.42 244.87 C 122.32 245.91 123.08 246.83 124.12 246.93 C 125.15 247.03 126.07 246.27 126.17 245.23 L 126.27 244.21 C 126.37 243.18 125.61 242.26 124.58 242.16 C 123.54 242.06 122.62 242.82 122.52 243.85 Z M 122.42 244.87 L 122.32 245.90 C 122.22 246.94 122.97 247.86 124.01 247.96 C 125.04 248.07 125.97 247.31 126.07 246.27 L 126.17 245.24 C 126.28 244.20 125.52 243.28 124.48 243.18 C 123.45 243.07 122.52 243.83 122.42 244.87 Z M 122.32 245.90 L 122.21 246.95 C 122.11 247.99 122.86 248.91 123.90 249.01 C 124.93 249.12 125.86 248.37 125.96 247.33 L 126.07 246.28 C 126.17 245.24 125.42 244.32 124.38 244.22 C 123.35 244.11 122.43 244.86 122.32 245.90 Z M 122.22 246.95 L 122.11 248.01 C 122.00 249.04 122.75 249.97 123.78 250.08 C 124.82 250.18 125.74 249.43 125.85 248.40 L 125.96 247.33 C 126.07 246.30 125.32 245.38 124.28 245.27 C 123.25 245.16 122.32 245.91 122.22 246.95 Z M 122.11 248.00 L 121.99 249.08 C 121.88 250.11 122.63 251.04 123.66 251.15 C 124.70 251.26 125.62 250.51 125.73 249.48 L 125.85 248.40 C 125.96 247.37 125.21 246.44 124.18 246.33 C 123.14 246.22 122.22 246.97 122.11 248.00 Z M 121.99 249.07 L 121.88 250.16 C 121.76 251.19 122.51 252.12 123.54 252.23 C 124.57 252.34 125.50 251.60 125.61 250.56 L 125.73 249.48 C 125.85 248.45 125.10 247.52 124.07 247.41 C 123.03 247.30 122.11 248.04 121.99 249.07 Z M 121.88 250.15 L 121.76 251.24 C 121.64 252.27 122.38 253.20 123.41 253.32 C 124.45 253.43 125.38 252.69 125.49 251.66 L 125.61 250.57 C 125.73 249.54 124.99 248.61 123.95 248.49 C 122.92 248.38 121.99 249.12 121.88 250.15 Z M 121.76 251.23 L 121.63 252.33 C 121.51 253.36 122.25 254.29 123.28 254.41 C 124.31 254.53 125.25 253.79 125.36 252.76 L 125.49 251.66 C 125.61 250.63 124.87 249.70 123.84 249.58 C 122.81 249.46 121.88 250.20 121.76 251.23 Z M 121.63 252.32 L 121.50 253.41 C 121.38 254.44 122.12 255.38 123.15 255.50 C 124.18 255.62 125.11 254.88 125.23 253.86 L 125.36 252.76 C 125.48 251.73 124.75 250.80 123.72 250.68 C 122.69 250.55 121.75 251.29 121.63 252.32 Z M 121.51 253.41 L 121.37 254.50 C 121.25 255.53 121.98 256.47 123.01 256.59 C 124.04 256.72 124.97 255.98 125.10 254.95 L 125.23 253.86 C 125.36 252.83 124.62 251.90 123.60 251.77 C 122.57 251.65 121.63 252.38 121.51 253.41 Z M 121.37 254.49 L 121.24 255.59 C 121.11 256.62 121.84 257.55 122.87 257.68 C 123.89 257.81 124.83 257.08 124.96 256.05 L 125.10 254.96 C 125.22 253.93 124.50 253.00 123.47 252.87 C 122.44 252.74 121.50 253.47 121.37 254.49 Z M 121.24 255.58 L 121.10 256.68 C 120.97 257.71 121.69 258.64 122.72 258.78 C 123.74 258.91 124.68 258.18 124.81 257.16 L 124.95 256.06 C 125.09 255.04 124.36 254.10 123.34 253.97 C 122.31 253.83 121.37 254.56 121.24 255.58 Z M 121.11 256.67 L 120.96 257.77 C 120.83 258.79 121.55 259.73 122.57 259.86 C 123.59 260.00 124.53 259.28 124.66 258.26 L 124.81 257.16 C 124.94 256.14 124.22 255.20 123.20 255.07 C 122.18 254.93 121.24 255.65 121.11 256.67 Z M 120.97 257.76 L 120.82 258.85 C 120.68 259.87 121.40 260.80 122.41 260.94 C 123.43 261.08 124.37 260.37 124.51 259.35 L 124.66 258.26 C 124.80 257.24 124.08 256.31 123.06 256.17 C 122.04 256.03 121.11 256.74 120.97 257.76 Z M 120.83 258.84 L 120.68 259.92 C 120.54 260.93 121.25 261.87 122.26 262.01 C 123.28 262.15 124.21 261.44 124.35 260.43 L 124.50 259.35 C 124.64 258.34 123.94 257.40 122.92 257.26 C 121.90 257.12 120.97 257.83 120.83 258.84 Z M 120.68 259.91 L 120.53 260.98 C 120.39 261.99 121.09 262.93 122.11 263.07 C 123.12 263.22 124.06 262.51 124.20 261.50 L 124.35 260.43 C 124.49 259.42 123.79 258.48 122.77 258.34 C 121.76 258.20 120.83 258.90 120.68 259.91 Z M 120.54 260.98 L 120.39 262.03 C 120.24 263.04 120.94 263.98 121.95 264.12 C 122.96 264.27 123.90 263.57 124.04 262.56 L 124.19 261.50 C 124.34 260.49 123.64 259.56 122.63 259.41 C 121.62 259.27 120.68 259.97 120.54 260.98 Z M 120.39 262.03 L 120.24 263.07 C 120.09 264.08 120.79 265.02 121.79 265.16 C 122.80 265.31 123.74 264.61 123.88 263.61 L 124.04 262.56 C 124.18 261.56 123.49 260.62 122.48 260.47 C 121.47 260.33 120.54 261.02 120.39 262.03 Z M 120.24 263.07 L 120.09 264.10 C 119.94 265.11 120.64 266.04 121.64 266.19 C 122.64 266.34 123.58 265.65 123.72 264.64 L 123.88 263.61 C 124.03 262.61 123.33 261.67 122.33 261.52 C 121.33 261.38 120.39 262.07 120.24 263.07 Z M 120.10 264.10 L 119.94 265.12 C 119.79 266.12 120.48 267.05 121.48 267.20 C 122.48 267.35 123.42 266.66 123.57 265.66 L 123.72 264.64 C 123.87 263.64 123.18 262.71 122.18 262.56 C 121.18 262.41 120.25 263.10 120.10 264.10 Z M 119.95 265.12 L 119.80 266.12 C 119.65 267.12 120.33 268.05 121.33 268.20 C 122.33 268.35 123.26 267.66 123.41 266.67 L 123.56 265.66 C 123.71 264.67 123.03 263.74 122.03 263.58 C 121.03 263.43 120.10 264.12 119.95 265.12 Z M 119.80 266.12 L 119.65 267.10 C 119.50 268.10 120.18 269.03 121.18 269.18 C 122.17 269.33 123.10 268.65 123.25 267.65 L 123.40 266.67 C 123.56 265.67 122.87 264.74 121.88 264.59 C 120.88 264.44 119.95 265.12 119.80 266.12 Z M 119.66 267.10 L 119.51 268.07 C 119.36 269.06 120.04 269.99 121.03 270.14 C 122.02 270.29 122.95 269.61 123.10 268.62 L 123.25 267.65 C 123.40 266.66 122.72 265.74 121.73 265.58 C 120.74 265.43 119.81 266.11 119.66 267.10 Z M 119.51 268.07 L 119.37 269.02 C 119.22 270.01 119.89 270.93 120.88 271.09 C 121.87 271.24 122.80 270.56 122.95 269.57 L 123.10 268.62 C 123.25 267.63 122.57 266.71 121.58 266.56 C 120.59 266.40 119.67 267.08 119.51 268.07 Z M 119.37 269.02 L 119.23 269.95 C 119.08 270.94 119.75 271.86 120.74 272.01 C 121.73 272.16 122.65 271.49 122.80 270.50 L 122.94 269.57 C 123.10 268.59 122.42 267.66 121.43 267.51 C 120.45 267.36 119.53 268.04 119.37 269.02 Z M 119.23 269.95 L 119.09 270.86 C 118.94 271.84 119.62 272.76 120.60 272.92 C 121.58 273.07 122.50 272.39 122.66 271.41 L 122.80 270.50 C 122.95 269.52 122.27 268.60 121.29 268.45 C 120.31 268.29 119.39 268.97 119.23 269.95 Z M 119.10 270.86 L 118.96 271.75 C 118.81 272.73 119.48 273.65 120.46 273.80 C 121.44 273.95 122.36 273.28 122.51 272.30 L 122.65 271.41 C 122.80 270.43 122.13 269.51 121.15 269.36 C 120.17 269.21 119.25 269.88 119.10 270.86 Z M 118.97 271.75 L 118.83 272.61 C 118.68 273.59 119.36 274.51 120.33 274.66 C 121.31 274.81 122.23 274.14 122.38 273.16 L 122.51 272.29 C 122.66 271.32 121.99 270.40 121.01 270.25 C 120.03 270.10 119.12 270.77 118.97 271.75 Z M 118.84 272.62 L 118.71 273.46 C 118.56 274.43 119.23 275.34 120.21 275.49 C 121.18 275.64 122.10 274.97 122.24 273.99 L 122.37 273.16 C 122.52 272.18 121.85 271.27 120.87 271.12 C 119.90 270.97 118.99 271.64 118.84 272.62 Z M 118.72 273.46 L 118.58 274.37 C 118.43 275.34 119.10 276.25 120.07 276.40 C 121.05 276.54 121.95 275.87 122.10 274.90 L 122.24 273.99 C 122.38 273.02 121.72 272.11 120.74 271.96 C 119.77 271.82 118.86 272.49 118.72 273.46 Z M 118.59 274.37 L 118.42 275.52 C 118.27 276.49 118.94 277.39 119.91 277.53 C 120.88 277.68 121.78 277.01 121.92 276.04 L 122.09 274.89 C 122.24 273.93 121.57 273.03 120.60 272.88 C 119.63 272.74 118.73 273.41 118.59 274.37 Z M 118.43 275.53 L 118.27 276.62 C 118.13 277.58 118.80 278.48 119.76 278.62 C 120.72 278.76 121.61 278.09 121.75 277.13 L 121.91 276.03 C 122.05 275.07 121.39 274.18 120.42 274.04 C 119.46 273.90 118.57 274.57 118.43 275.53 Z M 118.28 276.63 L 118.13 277.68 C 117.99 278.64 118.66 279.52 119.61 279.66 C 120.57 279.80 121.45 279.13 121.59 278.18 L 121.74 277.12 C 121.88 276.17 121.21 275.28 120.26 275.15 C 119.30 275.01 118.42 275.67 118.28 276.63 Z M 118.14 277.69 L 118.00 278.71 C 117.87 279.66 118.53 280.53 119.48 280.67 C 120.43 280.80 121.31 280.14 121.44 279.19 L 121.58 278.17 C 121.71 277.22 121.05 276.34 120.10 276.21 C 119.15 276.08 118.27 276.74 118.14 277.69 Z M 118.01 278.71 L 117.88 279.70 C 117.75 280.64 118.41 281.51 119.35 281.64 C 120.29 281.77 121.16 281.11 121.29 280.17 L 121.43 279.18 C 121.56 278.24 120.90 277.37 119.95 277.24 C 119.01 277.11 118.14 277.77 118.01 278.71 Z M 117.89 279.71 L 117.76 280.67 C 117.63 281.61 118.29 282.47 119.23 282.59 C 120.17 282.72 121.03 282.06 121.15 281.12 L 121.28 280.16 C 121.41 279.22 120.75 278.36 119.81 278.24 C 118.87 278.11 118.01 278.77 117.89 279.71 Z M 117.77 280.67 L 117.65 281.62 C 117.52 282.55 118.18 283.40 119.11 283.52 C 120.04 283.65 120.90 282.99 121.02 282.06 L 121.14 281.11 C 121.26 280.18 120.61 279.33 119.68 279.21 C 118.74 279.09 117.89 279.74 117.77 280.67 Z M 117.66 281.62 L 117.54 282.56 C 117.42 283.48 118.07 284.33 119.00 284.44 C 119.92 284.56 120.77 283.91 120.89 282.98 L 121.01 282.05 C 121.13 281.13 120.47 280.28 119.55 280.16 C 118.62 280.04 117.78 280.70 117.66 281.62 Z M 117.55 282.56 L 117.43 283.49 C 117.32 284.41 117.97 285.24 118.89 285.36 C 119.81 285.47 120.65 284.82 120.76 283.90 L 120.88 282.98 C 120.99 282.06 120.34 281.22 119.42 281.11 C 118.50 280.99 117.66 281.64 117.55 282.56 Z M 117.44 283.49 L 117.33 284.42 C 117.22 285.33 117.87 286.16 118.78 286.27 C 119.69 286.39 120.52 285.74 120.64 284.83 L 120.75 283.90 C 120.86 282.99 120.21 282.15 119.30 282.04 C 118.39 281.93 117.56 282.58 117.44 283.49 Z M 117.34 284.42 L 117.23 285.36 C 117.12 286.26 117.76 287.09 118.67 287.20 C 119.58 287.31 120.40 286.66 120.51 285.75 L 120.62 284.82 C 120.73 283.91 120.09 283.09 119.18 282.98 C 118.28 282.87 117.45 283.52 117.34 284.42 Z M 117.24 285.36 L 117.13 286.31 C 117.02 287.21 117.66 288.02 118.56 288.13 C 119.46 288.24 120.28 287.60 120.39 286.70 L 120.50 285.75 C 120.61 284.85 119.97 284.03 119.07 283.93 C 118.17 283.82 117.35 284.46 117.24 285.36 Z M 117.14 286.31 L 117.03 287.25 C 116.92 288.15 117.56 288.96 118.45 289.06 C 119.35 289.17 120.16 288.53 120.26 287.64 L 120.38 286.69 C 120.48 285.80 119.84 284.99 118.95 284.88 C 118.05 284.78 117.24 285.41 117.14 286.31 Z M 117.03 287.26 L 116.92 288.17 C 116.82 289.06 117.46 289.87 118.35 289.97 C 119.24 290.08 120.05 289.44 120.15 288.55 L 120.26 287.64 C 120.36 286.74 119.73 285.94 118.84 285.83 C 117.94 285.73 117.14 286.36 117.03 287.26 Z M 116.93 288.17 L 116.82 289.10 C 116.72 289.99 117.35 290.80 118.24 290.90 C 119.13 291.01 119.93 290.37 120.04 289.48 L 120.15 288.55 C 120.25 287.66 119.61 286.86 118.73 286.75 C 117.84 286.65 117.03 287.28 116.93 288.17 Z M 116.82 289.11 L 116.71 290.06 C 116.61 290.94 117.24 291.74 118.13 291.85 C 119.02 291.95 119.82 291.32 119.92 290.43 L 120.03 289.48 C 120.14 288.59 119.50 287.79 118.62 287.69 C 117.73 287.59 116.93 288.22 116.82 289.11 Z M 116.72 290.06 L 116.61 291.02 C 116.50 291.91 117.14 292.71 118.02 292.81 C 118.90 292.91 119.70 292.28 119.81 291.39 L 119.92 290.43 C 120.02 289.54 119.39 288.75 118.50 288.64 C 117.62 288.54 116.82 289.17 116.72 290.06 Z M 116.61 291.02 L 116.50 292.00 C 116.39 292.88 117.03 293.68 117.91 293.78 C 118.79 293.89 119.59 293.25 119.69 292.37 L 119.80 291.39 C 119.90 290.51 119.27 289.71 118.39 289.61 C 117.51 289.51 116.71 290.14 116.61 291.02 Z M 116.50 292.00 L 116.39 293.00 C 116.28 293.88 116.92 294.67 117.79 294.77 C 118.67 294.87 119.47 294.24 119.57 293.36 L 119.68 292.37 C 119.79 291.49 119.15 290.70 118.28 290.60 C 117.40 290.49 116.60 291.13 116.50 292.00 Z M 116.39 293.00 L 116.28 294.00 C 116.17 294.88 116.80 295.67 117.68 295.77 C 118.56 295.87 119.35 295.24 119.45 294.37 L 119.57 293.36 C 119.67 292.49 119.04 291.69 118.16 291.59 C 117.28 291.49 116.49 292.12 116.39 293.00 Z M 116.28 294.00 L 116.16 295.01 C 116.06 295.89 116.69 296.68 117.57 296.78 C 118.44 296.88 119.23 296.25 119.33 295.38 L 119.45 294.36 C 119.55 293.49 118.92 292.70 118.04 292.60 C 117.17 292.50 116.38 293.13 116.28 294.00 Z M 116.17 295.02 L 116.05 296.04 C 115.95 296.91 116.58 297.70 117.45 297.80 C 118.32 297.90 119.11 297.27 119.21 296.40 L 119.33 295.38 C 119.43 294.50 118.80 293.72 117.93 293.62 C 117.06 293.52 116.27 294.14 116.17 295.02 Z M 116.06 296.04 L 115.94 297.07 C 115.84 297.94 116.46 298.72 117.33 298.82 C 118.20 298.92 118.99 298.29 119.09 297.42 L 119.21 296.40 C 119.30 295.53 118.68 294.74 117.81 294.64 C 116.94 294.54 116.15 295.17 116.06 296.04 Z M 115.94 297.07 L 115.82 298.10 C 115.73 298.97 116.35 299.75 117.22 299.85 C 118.08 299.95 118.87 299.32 118.97 298.46 L 119.08 297.42 C 119.18 296.56 118.56 295.77 117.69 295.67 C 116.82 295.58 116.04 296.20 115.94 297.07 Z M 115.83 298.10 L 115.71 299.14 C 115.61 300.00 116.23 300.78 117.10 300.88 C 117.96 300.98 118.75 300.36 118.84 299.49 L 118.96 298.46 C 119.06 297.59 118.44 296.81 117.57 296.71 C 116.71 296.61 115.93 297.24 115.83 298.10 Z M 115.72 299.14 L 115.60 300.18 C 115.50 301.04 116.12 301.82 116.98 301.92 C 117.84 302.02 118.62 301.40 118.72 300.53 L 118.84 299.49 C 118.94 298.63 118.32 297.85 117.46 297.75 C 116.59 297.66 115.81 298.28 115.72 299.14 Z M 115.60 300.18 L 115.52 300.89 C 115.42 301.75 116.04 302.53 116.90 302.63 C 117.76 302.72 118.54 302.11 118.64 301.24 L 118.72 300.53 C 118.82 299.67 118.20 298.89 117.34 298.80 C 116.48 298.70 115.70 299.32 115.60 300.18 Z"
      fill="black"
      fill-rule="nonzero" /></svg>