<svg xmlns="http://www.w3.org/2000/svg" width="300" height="300" viewBox="0 0 300 300">
<path d="M 140.31 69.05 L 141.28 69.36 C 142.28 69.68 143.35 69.13 143.67 68.13 C 143.99 67.13 143.44 66.06 142.44 65.75 L 141.47 65.44 C 140.47 65.12 139.40 65.67 139.08 66.67 C 138.77 67.66 139.32 68.73 140.31 69.05 Z M 141.30 69.35 L 142.27 69.65 C 143.26 69.97 144.32 69.42 144.63 68.42 C 144.94 67.43 144.39 66.37 143.40 66.06 L 142.43 65.76 C 141.44 65.44 140.38 66.00 140.07 66.99 C 139.75 67.98 140.30 69.04 141.30 69.35 Z M 142.28 69.64 L 143.25 69.94 C 144.24 70.24 145.29 69.69 145.59 68.70 C 145.89 67.72 145.34 66.67 144.35 66.37 L 143.38 66.07 C 142.39 65.77 141.35 66.32 141.05 67.31 C 140.74 68.30 141.30 69.34 142.28 69.64 Z M 143.28 69.93 L 144.25 70.22 C 145.23 70.51 146.26 69.94 146.55 68.96 C 146.84 67.98 146.27 66.95 145.29 66.66 L 144.32 66.38 C 143.34 66.09 142.31 66.65 142.02 67.63 C 141.73 68.62 142.30 69.65 143.28 69.93 Z M 144.28 70.21 L 145.24 70.48 C 146.22 70.75 147.24 70.18 147.51 69.20 C 147.78 68.22 147.20 67.20 146.23 66.93 L 145.26 66.67 C 144.28 66.40 143.27 66.97 143.00 67.95 C 142.73 68.93 143.30 69.94 144.28 70.21 Z M 145.28 70.48 L 146.25 70.72 C 147.22 70.97 148.22 70.38 148.47 69.40 C 148.72 68.43 148.13 67.43 147.15 67.18 L 146.19 66.94 C 145.21 66.69 144.22 67.28 143.97 68.26 C 143.72 69.23 144.31 70.23 145.28 70.48 Z M 146.29 70.72 L 147.25 70.94 C 148.23 71.16 149.20 70.55 149.42 69.58 C 149.65 68.60 149.04 67.63 148.06 67.41 L 147.10 67.19 C 146.13 66.96 145.16 67.57 144.93 68.55 C 144.71 69.52 145.32 70.49 146.29 70.72 Z M 147.31 70.93 L 148.26 71.12 C 149.24 71.32 150.18 70.69 150.38 69.71 C 150.57 68.74 149.94 67.79 148.96 67.60 L 148.01 67.41 C 147.03 67.22 146.09 67.85 145.90 68.82 C 145.70 69.80 146.33 70.74 147.31 70.93 Z M 148.33 71.12 L 149.29 71.28 C 150.26 71.44 151.18 70.78 151.34 69.81 C 151.50 68.84 150.84 67.92 149.86 67.76 L 148.90 67.60 C 147.93 67.44 147.01 68.10 146.85 69.07 C 146.69 70.05 147.35 70.97 148.33 71.12 Z M 149.35 71.29 L 150.32 71.41 C 151.29 71.54 152.19 70.85 152.31 69.88 C 152.44 68.90 151.75 68.01 150.78 67.88 L 149.81 67.75 C 148.83 67.63 147.94 68.31 147.81 69.29 C 147.68 70.27 148.37 71.16 149.35 71.29 Z M 150.36 71.42 L 151.33 71.52 C 152.31 71.62 153.19 70.91 153.29 69.93 C 153.39 68.95 152.68 68.08 151.70 67.98 L 150.73 67.87 C 149.75 67.77 148.88 68.48 148.77 69.46 C 148.67 70.44 149.38 71.32 150.36 71.42 Z M 151.36 71.52 L 152.33 71.61 C 153.31 71.69 154.18 70.97 154.27 69.99 C 154.35 69.01 153.63 68.15 152.65 68.06 L 151.67 67.97 C 150.69 67.89 149.83 68.61 149.74 69.59 C 149.66 70.57 150.38 71.44 151.36 71.52 Z M 152.35 71.61 L 153.33 71.69 C 154.31 71.77 155.17 71.04 155.25 70.06 C 155.33 69.08 154.60 68.22 153.62 68.14 L 152.64 68.06 C 151.66 67.98 150.80 68.71 150.72 69.69 C 150.64 70.67 151.37 71.53 152.35 71.61 Z M 153.32 71.69 L 154.32 71.77 C 155.30 71.85 156.16 71.13 156.24 70.15 C 156.32 69.16 155.59 68.30 154.61 68.22 L 153.62 68.14 C 152.64 68.06 151.78 68.79 151.70 69.77 C 151.62 70.75 152.34 71.61 153.32 71.69 Z M 154.30 71.77 L 155.30 71.86 C 156.28 71.96 157.15 71.24 157.24 70.26 C 157.34 69.28 156.62 68.41 155.64 68.32 L 154.63 68.22 C 153.65 68.13 152.79 68.85 152.69 69.83 C 152.60 70.81 153.32 71.68 154.30 71.77 Z M 155.27 71.86 L 156.29 71.98 C 157.27 72.09 158.15 71.39 158.26 70.41 C 158.38 69.43 157.67 68.55 156.70 68.44 L 155.67 68.32 C 154.70 68.21 153.81 68.91 153.70 69.89 C 153.59 70.87 154.29 71.75 155.27 71.86 Z M 156.25 71.97 L 157.29 72.12 C 158.26 72.25 159.16 71.57 159.30 70.60 C 159.43 69.63 158.76 68.73 157.78 68.59 L 156.74 68.45 C 155.77 68.31 154.87 68.99 154.73 69.96 C 154.60 70.93 155.27 71.83 156.25 71.97 Z M 157.23 72.11 L 158.26 72.29 C 159.22 72.45 160.15 71.81 160.31 70.84 C 160.48 69.87 159.83 68.95 158.86 68.78 L 157.84 68.60 C 156.87 68.43 155.95 69.08 155.78 70.05 C 155.61 71.02 156.26 71.94 157.23 72.11 Z M 158.19 72.27 L 159.22 72.49 C 160.18 72.70 161.13 72.09 161.33 71.12 C 161.54 70.16 160.92 69.21 159.96 69.01 L 158.93 68.79 C 157.97 68.58 157.02 69.20 156.82 70.16 C 156.61 71.12 157.23 72.07 158.19 72.27 Z M 159.14 72.48 L 160.15 72.74 C 161.11 72.99 162.08 72.42 162.33 71.47 C 162.58 70.52 162.01 69.54 161.06 69.29 L 160.04 69.03 C 159.09 68.78 158.11 69.35 157.86 70.30 C 157.61 71.25 158.18 72.23 159.14 72.48 Z M 160.06 72.72 L 161.04 73.03 C 161.98 73.34 162.99 72.82 163.29 71.88 C 163.59 70.95 163.08 69.94 162.14 69.64 L 161.15 69.32 C 160.21 69.02 159.21 69.53 158.91 70.47 C 158.60 71.41 159.12 72.41 160.06 72.72 Z M 160.93 73.00 L 161.87 73.37 C 162.78 73.74 163.82 73.29 164.19 72.37 C 164.56 71.46 164.11 70.42 163.19 70.05 L 162.25 69.68 C 161.34 69.31 160.30 69.76 159.93 70.67 C 159.57 71.59 160.01 72.63 160.93 73.00 Z M 161.73 73.31 L 162.61 73.75 C 163.49 74.19 164.57 73.83 165.01 72.94 C 165.45 72.06 165.09 70.99 164.20 70.55 L 163.33 70.11 C 162.44 69.67 161.37 70.03 160.93 70.91 C 160.49 71.80 160.85 72.87 161.73 73.31 Z M 162.45 73.66 L 163.25 74.16 C 164.08 74.69 165.19 74.44 165.72 73.61 C 166.25 72.77 166.00 71.67 165.16 71.14 L 164.36 70.63 C 163.53 70.11 162.42 70.36 161.89 71.19 C 161.37 72.03 161.62 73.13 162.45 73.66 Z M 163.07 74.04 L 163.77 74.61 C 164.53 75.24 165.66 75.13 166.29 74.36 C 166.92 73.60 166.81 72.47 166.04 71.84 L 165.34 71.27 C 164.58 70.64 163.45 70.75 162.82 71.51 C 162.19 72.28 162.30 73.41 163.07 74.04 Z M 163.57 74.43 L 164.17 75.09 C 164.84 75.83 165.97 75.89 166.71 75.23 C 167.44 74.56 167.50 73.43 166.84 72.70 L 166.24 72.03 C 165.58 71.29 164.44 71.23 163.71 71.90 C 162.97 72.56 162.91 73.69 163.57 74.43 Z M 163.99 74.86 L 164.48 75.62 C 165.01 76.45 166.11 76.70 166.95 76.17 C 167.79 75.64 168.03 74.53 167.50 73.69 L 167.02 72.93 C 166.49 72.10 165.38 71.85 164.55 72.38 C 163.71 72.91 163.46 74.02 163.99 74.86 Z M 164.34 75.35 L 164.69 76.18 C 165.07 77.09 166.12 77.52 167.04 77.14 C 167.95 76.75 168.38 75.70 167.99 74.79 L 167.64 73.96 C 167.26 73.05 166.21 72.62 165.29 73.00 C 164.38 73.39 163.95 74.44 164.34 75.35 Z M 164.60 75.91 L 164.81 76.81 C 165.05 77.77 166.02 78.36 166.98 78.13 C 167.94 77.89 168.53 76.92 168.30 75.96 L 168.08 75.06 C 167.85 74.10 166.88 73.51 165.92 73.74 C 164.95 73.98 164.36 74.95 164.60 75.91 Z M 164.77 76.54 L 164.85 77.49 C 164.94 78.48 165.81 79.21 166.79 79.13 C 167.78 79.04 168.51 78.17 168.43 77.18 L 168.34 76.23 C 168.26 75.24 167.39 74.51 166.40 74.60 C 165.42 74.68 164.69 75.55 164.77 76.54 Z M 164.85 77.24 L 164.80 78.25 C 164.74 79.24 165.50 80.08 166.49 80.13 C 167.48 80.19 168.32 79.43 168.38 78.44 L 168.43 77.44 C 168.48 76.45 167.72 75.60 166.74 75.55 C 165.75 75.50 164.90 76.26 164.85 77.24 Z M 164.82 78.02 L 164.63 79.07 C 164.45 80.04 165.10 80.98 166.07 81.15 C 167.04 81.33 167.98 80.69 168.16 79.71 L 168.35 78.67 C 168.53 77.69 167.88 76.76 166.91 76.58 C 165.94 76.40 165.00 77.05 164.82 78.02 Z M 164.68 78.86 L 164.35 79.94 C 164.06 80.89 164.59 81.89 165.54 82.18 C 166.48 82.48 167.49 81.94 167.78 81.00 L 168.11 79.92 C 168.40 78.97 167.87 77.97 166.92 77.68 C 165.97 77.39 164.97 77.92 164.68 78.86 Z M 164.41 79.77 L 163.97 80.81 C 163.58 81.73 164.01 82.78 164.92 83.17 C 165.83 83.55 166.88 83.13 167.27 82.22 L 167.71 81.17 C 168.10 80.26 167.67 79.21 166.76 78.82 C 165.85 78.43 164.80 78.86 164.41 79.77 Z M 164.03 80.68 L 163.60 81.50 C 163.15 82.38 163.48 83.46 164.36 83.92 C 165.24 84.38 166.32 84.04 166.78 83.16 L 167.21 82.35 C 167.66 81.47 167.33 80.39 166.45 79.93 C 165.57 79.47 164.49 79.81 164.03 80.68 Z M 163.66 81.41 L 163.17 82.22 C 162.65 83.07 162.93 84.17 163.77 84.68 C 164.62 85.19 165.72 84.92 166.23 84.07 L 166.72 83.26 C 167.24 82.41 166.96 81.31 166.12 80.80 C 165.27 80.29 164.17 80.56 163.66 81.41 Z M 163.22 82.14 L 162.66 82.96 C 162.11 83.78 162.32 84.89 163.14 85.45 C 163.96 86.00 165.07 85.79 165.62 84.97 L 166.18 84.15 C 166.73 83.34 166.52 82.22 165.70 81.67 C 164.88 81.11 163.77 81.33 163.22 82.14 Z M 162.71 82.89 L 162.11 83.70 C 161.52 84.49 161.68 85.61 162.47 86.20 C 163.26 86.80 164.38 86.64 164.97 85.85 L 165.57 85.04 C 166.17 84.25 166.01 83.13 165.22 82.53 C 164.43 81.94 163.31 82.10 162.71 82.89 Z M 162.16 83.64 L 161.51 84.44 C 160.88 85.20 160.99 86.33 161.76 86.95 C 162.52 87.58 163.64 87.46 164.27 86.70 L 164.92 85.90 C 165.55 85.14 165.43 84.02 164.67 83.39 C 163.91 82.77 162.78 82.88 162.16 83.64 Z M 161.55 84.39 L 160.86 85.16 C 160.21 85.90 160.28 87.03 161.01 87.68 C 161.75 88.34 162.88 88.27 163.53 87.53 L 164.22 86.75 C 164.88 86.02 164.81 84.89 164.07 84.23 C 163.33 83.58 162.21 83.65 161.55 84.39 Z M 160.91 85.11 L 160.19 85.87 C 159.51 86.58 159.53 87.71 160.25 88.39 C 160.96 89.07 162.09 89.04 162.77 88.33 L 163.49 87.58 C 164.17 86.87 164.14 85.74 163.43 85.06 C 162.72 84.38 161.59 84.40 160.91 85.11 Z M 160.24 85.82 L 159.49 86.55 C 158.79 87.23 158.77 88.36 159.46 89.07 C 160.15 89.77 161.27 89.79 161.98 89.10 L 162.72 88.38 C 163.43 87.69 163.44 86.56 162.75 85.86 C 162.07 85.15 160.94 85.14 160.24 85.82 Z M 159.54 86.50 L 158.78 87.19 C 158.05 87.85 158.00 88.98 158.66 89.71 C 159.32 90.43 160.44 90.49 161.17 89.83 L 161.93 89.14 C 162.66 88.48 162.71 87.36 162.05 86.63 C 161.39 85.90 160.27 85.84 159.54 86.50 Z M 158.83 87.15 L 158.06 87.80 C 157.31 88.43 157.22 89.55 157.85 90.30 C 158.48 91.06 159.60 91.15 160.36 90.52 L 161.12 89.87 C 161.87 89.24 161.97 88.11 161.34 87.36 C 160.70 86.61 159.58 86.52 158.83 87.15 Z M 158.11 87.76 L 157.35 88.36 C 156.57 88.96 156.44 90.08 157.04 90.85 C 157.64 91.63 158.76 91.76 159.53 91.16 L 160.30 90.56 C 161.08 89.95 161.21 88.84 160.61 88.06 C 160.00 87.29 158.89 87.15 158.11 87.76 Z M 157.41 88.31 L 156.50 88.96 C 155.70 89.53 155.52 90.64 156.09 91.44 C 156.66 92.24 157.77 92.42 158.56 91.85 L 159.47 91.20 C 160.27 90.63 160.45 89.53 159.88 88.73 C 159.31 87.93 158.21 87.74 157.41 88.31 Z M 156.57 88.91 L 155.63 89.52 C 154.81 90.05 154.57 91.14 155.10 91.97 C 155.63 92.79 156.72 93.03 157.55 92.50 L 158.49 91.90 C 159.31 91.37 159.55 90.27 159.03 89.45 C 158.50 88.63 157.40 88.39 156.57 88.91 Z M 155.71 89.47 L 154.78 90.00 C 153.93 90.49 153.64 91.57 154.12 92.42 C 154.61 93.27 155.69 93.57 156.54 93.08 L 157.47 92.55 C 158.32 92.07 158.61 90.98 158.13 90.13 C 157.65 89.28 156.56 88.99 155.71 89.47 Z M 154.87 89.96 L 153.95 90.42 C 153.07 90.86 152.72 91.92 153.16 92.80 C 153.60 93.67 154.66 94.02 155.53 93.59 L 156.45 93.12 C 157.33 92.68 157.68 91.62 157.24 90.75 C 156.80 89.87 155.74 89.52 154.87 89.96 Z M 154.03 90.38 L 153.12 90.78 C 152.23 91.17 151.82 92.22 152.21 93.11 C 152.60 94.01 153.65 94.41 154.54 94.02 L 155.45 93.62 C 156.34 93.23 156.75 92.19 156.36 91.29 C 155.97 90.40 154.93 89.99 154.03 90.38 Z M 153.21 90.75 L 152.31 91.09 C 151.39 91.44 150.93 92.45 151.28 93.37 C 151.62 94.28 152.64 94.74 153.56 94.39 L 154.46 94.05 C 155.37 93.71 155.83 92.69 155.48 91.78 C 155.14 90.86 154.12 90.40 153.21 90.75 Z M 152.39 91.06 L 151.50 91.35 C 150.57 91.65 150.06 92.64 150.36 93.57 C 150.66 94.50 151.65 95.01 152.58 94.71 L 153.47 94.42 C 154.40 94.12 154.91 93.13 154.61 92.20 C 154.31 91.27 153.32 90.76 152.39 91.06 Z M 151.58 91.33 L 150.70 91.57 C 149.76 91.82 149.20 92.79 149.46 93.73 C 149.71 94.67 150.68 95.23 151.62 94.97 L 152.50 94.73 C 153.44 94.48 154.00 93.51 153.74 92.57 C 153.49 91.63 152.52 91.07 151.58 91.33 Z M 150.77 91.55 L 149.90 91.75 C 148.95 91.96 148.35 92.90 148.57 93.85 C 148.78 94.80 149.72 95.40 150.67 95.18 L 151.55 94.99 C 152.49 94.77 153.09 93.83 152.88 92.88 C 152.66 91.93 151.72 91.34 150.77 91.55 Z M 149.98 91.73 L 148.76 91.94 C 147.80 92.11 147.16 93.03 147.33 93.99 C 147.50 94.95 148.42 95.59 149.38 95.42 L 150.59 95.21 C 151.55 95.04 152.20 94.12 152.02 93.16 C 151.85 92.20 150.94 91.56 149.98 91.73 Z M 148.82 91.91 L 147.46 92.10 C 146.48 92.24 145.80 93.14 145.93 94.12 C 146.07 95.10 146.98 95.78 147.95 95.64 L 149.32 95.45 C 150.30 95.31 150.98 94.41 150.84 93.43 C 150.70 92.46 149.80 91.77 148.82 91.91 Z M 147.46 92.08 L 146.30 92.24 C 145.30 92.37 144.61 93.29 144.75 94.28 C 144.88 95.27 145.80 95.97 146.79 95.83 L 147.95 95.67 C 148.94 95.53 149.64 94.62 149.50 93.63 C 149.37 92.63 148.45 91.94 147.46 92.08 Z M 146.18 92.23 L 145.33 92.40 C 144.34 92.60 143.69 93.58 143.90 94.57 C 144.10 95.57 145.07 96.21 146.06 96.01 L 146.91 95.84 C 147.90 95.63 148.55 94.66 148.34 93.67 C 148.14 92.67 147.17 92.03 146.18 92.23 Z M 144.80 92.57 L 144.39 92.80 C 143.49 93.29 143.16 94.43 143.65 95.33 C 144.15 96.23 145.28 96.56 146.19 96.06 L 146.60 95.84 C 147.50 95.34 147.83 94.21 147.33 93.30 C 146.84 92.40 145.70 92.07 144.80 92.57 Z M 143.51 95.08 L 143.62 95.38 C 143.98 96.36 145.06 96.87 146.04 96.51 C 147.02 96.15 147.53 95.07 147.17 94.09 L 147.06 93.79 C 146.70 92.81 145.62 92.30 144.64 92.66 C 143.66 93.02 143.16 94.10 143.51 95.08 Z M 144.31 96.29 L 144.72 96.57 C 145.57 97.17 146.75 96.96 147.35 96.11 C 147.95 95.25 147.75 94.07 146.89 93.47 L 146.48 93.19 C 145.63 92.59 144.45 92.79 143.85 93.65 C 143.25 94.51 143.46 95.69 144.31 96.29 Z M 144.93 96.69 L 145.57 97.02 C 146.49 97.51 147.63 97.15 148.11 96.23 C 148.60 95.31 148.24 94.18 147.32 93.69 L 146.68 93.35 C 145.76 92.87 144.62 93.22 144.14 94.14 C 143.65 95.06 144.01 96.20 144.93 96.69 Z M 145.66 97.06 L 146.49 97.44 C 147.43 97.88 148.54 97.47 148.98 96.53 C 149.41 95.59 149.00 94.48 148.06 94.04 L 147.23 93.66 C 146.29 93.23 145.18 93.63 144.75 94.57 C 144.31 95.51 144.72 96.62 145.66 97.06 Z M 146.54 97.45 L 147.51 97.88 C 148.46 98.29 149.55 97.85 149.96 96.91 C 150.37 95.97 149.94 94.87 149.00 94.46 L 148.02 94.04 C 147.08 93.63 145.98 94.06 145.57 95.00 C 145.16 95.94 145.59 97.04 146.54 97.45 Z M 147.53 97.87 L 148.61 98.33 C 149.55 98.73 150.64 98.30 151.04 97.36 C 151.44 96.42 151.00 95.33 150.06 94.93 L 148.98 94.47 C 148.04 94.07 146.96 94.50 146.56 95.44 C 146.15 96.38 146.59 97.47 147.53 97.87 Z M 148.61 98.32 L 149.74 98.81 C 150.68 99.21 151.76 98.78 152.16 97.85 C 152.56 96.91 152.13 95.83 151.20 95.43 L 150.07 94.94 C 149.13 94.54 148.05 94.97 147.65 95.90 C 147.24 96.83 147.67 97.92 148.61 98.32 Z M 149.73 98.79 L 150.87 99.30 C 151.79 99.71 152.87 99.30 153.29 98.38 C 153.70 97.45 153.28 96.37 152.36 95.96 L 151.22 95.45 C 150.29 95.04 149.21 95.45 148.80 96.37 C 148.39 97.30 148.80 98.38 149.73 98.79 Z M 150.84 99.27 L 151.94 99.80 C 152.85 100.23 153.93 99.84 154.37 98.94 C 154.80 98.03 154.41 96.94 153.50 96.51 L 152.40 95.99 C 151.49 95.55 150.40 95.94 149.97 96.85 C 149.54 97.76 149.93 98.84 150.84 99.27 Z M 151.89 99.77 L 152.88 100.28 C 153.78 100.74 154.87 100.39 155.33 99.50 C 155.79 98.61 155.44 97.51 154.55 97.05 L 153.55 96.54 C 152.66 96.08 151.57 96.43 151.11 97.32 C 150.65 98.21 151.00 99.31 151.89 99.77 Z M 152.83 100.25 L 153.76 100.78 C 154.63 101.27 155.74 100.96 156.23 100.09 C 156.73 99.21 156.42 98.10 155.54 97.61 L 154.61 97.08 C 153.73 96.59 152.63 96.90 152.13 97.78 C 151.64 98.65 151.95 99.76 152.83 100.25 Z M 153.70 100.74 L 154.57 101.28 C 155.43 101.81 156.55 101.54 157.08 100.69 C 157.60 99.83 157.34 98.71 156.48 98.18 L 155.60 97.65 C 154.75 97.12 153.63 97.39 153.10 98.24 C 152.58 99.10 152.84 100.22 153.70 100.74 Z M 154.51 101.24 L 155.34 101.80 C 156.17 102.36 157.30 102.14 157.86 101.30 C 158.42 100.47 158.20 99.34 157.37 98.78 L 156.54 98.22 C 155.71 97.66 154.58 97.88 154.02 98.72 C 153.46 99.55 153.68 100.68 154.51 101.24 Z M 155.28 101.76 L 156.06 102.33 C 156.87 102.92 158.01 102.75 158.60 101.94 C 159.20 101.13 159.02 99.99 158.21 99.39 L 157.43 98.82 C 156.62 98.23 155.48 98.40 154.89 99.21 C 154.29 100.02 154.47 101.16 155.28 101.76 Z M 156.00 102.28 L 156.74 102.88 C 157.52 103.51 158.67 103.38 159.30 102.59 C 159.93 101.81 159.80 100.66 159.01 100.03 L 158.27 99.44 C 157.49 98.81 156.34 98.94 155.71 99.72 C 155.08 100.51 155.21 101.66 156.00 102.28 Z M 156.68 102.83 L 157.39 103.45 C 158.15 104.11 159.30 104.03 159.96 103.27 C 160.62 102.51 160.54 101.35 159.78 100.69 L 159.07 100.08 C 158.31 99.42 157.16 99.50 156.50 100.26 C 155.84 101.02 155.92 102.17 156.68 102.83 Z M 157.34 103.40 L 158.02 104.04 C 158.76 104.73 159.91 104.69 160.60 103.96 C 161.29 103.22 161.25 102.07 160.52 101.38 L 159.83 100.74 C 159.10 100.05 157.94 100.09 157.26 100.82 C 156.57 101.56 156.60 102.71 157.34 103.40 Z M 157.97 104.00 L 158.65 104.68 C 159.36 105.40 160.52 105.40 161.23 104.70 C 161.95 103.99 161.96 102.83 161.25 102.11 L 160.57 101.43 C 159.86 100.71 158.70 100.70 157.98 101.41 C 157.27 102.12 157.26 103.28 157.97 104.00 Z M 158.60 104.64 L 159.27 105.36 C 159.96 106.11 161.11 106.16 161.86 105.47 C 162.60 104.79 162.65 103.63 161.97 102.89 L 161.30 102.16 C 160.61 101.41 159.45 101.37 158.71 102.05 C 157.97 102.74 157.92 103.89 158.60 104.64 Z M 159.22 105.32 L 159.86 106.07 C 160.52 106.84 161.68 106.94 162.45 106.28 C 163.22 105.62 163.32 104.46 162.66 103.69 L 162.02 102.94 C 161.36 102.16 160.20 102.07 159.43 102.73 C 158.66 103.38 158.56 104.54 159.22 105.32 Z M 159.81 106.02 L 160.43 106.80 C 161.06 107.60 162.21 107.74 163.01 107.12 C 163.81 106.49 163.95 105.33 163.33 104.53 L 162.71 103.75 C 162.08 102.95 160.93 102.81 160.13 103.43 C 159.33 104.06 159.19 105.22 159.81 106.02 Z M 160.38 106.74 L 160.96 107.56 C 161.56 108.39 162.71 108.57 163.54 107.98 C 164.37 107.38 164.56 106.23 163.96 105.40 L 163.38 104.59 C 162.78 103.76 161.63 103.57 160.80 104.17 C 159.97 104.76 159.78 105.92 160.38 106.74 Z M 160.91 107.49 L 161.46 108.33 C 162.02 109.19 163.17 109.43 164.03 108.87 C 164.88 108.31 165.12 107.16 164.56 106.31 L 164.01 105.47 C 163.45 104.61 162.30 104.37 161.45 104.93 C 160.59 105.49 160.35 106.64 160.91 107.49 Z M 161.41 108.26 L 161.93 109.13 C 162.45 110.02 163.59 110.31 164.47 109.79 C 165.35 109.27 165.64 108.13 165.12 107.24 L 164.61 106.38 C 164.09 105.49 162.95 105.20 162.07 105.72 C 161.18 106.24 160.89 107.38 161.41 108.26 Z M 161.88 109.06 L 162.35 109.95 C 162.83 110.86 163.96 111.21 164.86 110.73 C 165.77 110.25 166.12 109.12 165.64 108.21 L 165.17 107.32 C 164.69 106.41 163.56 106.06 162.66 106.54 C 161.75 107.02 161.40 108.15 161.88 109.06 Z M 162.30 109.87 L 162.71 110.73 C 163.14 111.66 164.25 112.07 165.19 111.63 C 166.12 111.19 166.52 110.08 166.09 109.15 L 165.69 108.29 C 165.25 107.36 164.14 106.95 163.21 107.39 C 162.27 107.83 161.87 108.94 162.30 109.87 Z M 162.67 110.65 L 163.01 111.48 C 163.40 112.43 164.49 112.89 165.45 112.49 C 166.40 112.10 166.86 111.01 166.47 110.05 L 166.13 109.23 C 165.73 108.27 164.64 107.82 163.68 108.21 C 162.73 108.60 162.27 109.70 162.67 110.65 Z M 162.97 111.40 L 163.28 112.25 C 163.63 113.22 164.70 113.73 165.68 113.38 C 166.65 113.03 167.15 111.96 166.81 110.98 L 166.50 110.13 C 166.15 109.16 165.08 108.65 164.10 109.00 C 163.13 109.35 162.62 110.42 162.97 111.40 Z M 163.25 112.17 L 163.52 113.05 C 163.83 114.04 164.88 114.60 165.87 114.29 C 166.86 113.99 167.41 112.94 167.11 111.95 L 166.83 111.06 C 166.53 110.07 165.48 109.52 164.49 109.82 C 163.50 110.13 162.94 111.18 163.25 112.17 Z M 163.50 112.98 L 163.74 113.90 C 164.00 114.90 165.03 115.50 166.03 115.24 C 167.04 114.98 167.64 113.95 167.38 112.95 L 167.13 112.02 C 166.87 111.02 165.84 110.42 164.84 110.68 C 163.84 110.95 163.24 111.97 163.50 112.98 Z M 163.72 113.83 L 163.93 114.79 C 164.15 115.81 165.16 116.45 166.17 116.23 C 167.19 116.01 167.83 115.00 167.61 113.99 L 167.40 113.02 C 167.17 112.01 166.17 111.36 165.16 111.59 C 164.14 111.81 163.50 112.81 163.72 113.83 Z M 163.91 114.72 L 164.10 115.74 C 164.28 116.76 165.26 117.44 166.28 117.26 C 167.31 117.08 167.99 116.10 167.81 115.07 L 167.62 114.06 C 167.44 113.03 166.46 112.35 165.44 112.53 C 164.41 112.72 163.73 113.70 163.91 114.72 Z M 164.08 115.67 L 164.23 116.74 C 164.38 117.77 165.34 118.49 166.37 118.34 C 167.40 118.20 168.12 117.24 167.97 116.21 L 167.82 115.14 C 167.67 114.11 166.72 113.39 165.69 113.54 C 164.65 113.68 163.94 114.64 164.08 115.67 Z M 164.22 116.68 L 164.35 117.81 C 164.46 118.85 165.39 119.60 166.43 119.48 C 167.47 119.37 168.22 118.44 168.11 117.40 L 167.98 116.27 C 167.87 115.23 166.93 114.48 165.90 114.60 C 164.86 114.71 164.11 115.64 164.22 116.68 Z M 164.34 117.76 L 164.43 118.88 C 164.51 119.92 165.43 120.69 166.47 120.61 C 167.51 120.52 168.29 119.61 168.20 118.57 L 168.11 117.45 C 168.03 116.41 167.11 115.63 166.07 115.72 C 165.03 115.80 164.25 116.72 164.34 117.76 Z M 164.43 118.83 L 164.48 119.76 C 164.54 120.80 165.44 121.60 166.48 121.54 C 167.53 121.48 168.33 120.58 168.26 119.53 L 168.21 118.61 C 168.15 117.57 167.25 116.77 166.21 116.83 C 165.16 116.89 164.36 117.79 164.43 118.83 Z M 164.48 119.72 L 164.51 120.68 C 164.56 121.72 165.44 122.54 166.48 122.49 C 167.53 122.45 168.35 121.57 168.30 120.52 L 168.27 119.57 C 168.23 118.52 167.34 117.71 166.30 117.75 C 165.25 117.79 164.44 118.67 164.48 119.72 Z M 164.51 120.64 L 164.53 121.62 C 164.55 122.67 165.42 123.50 166.47 123.48 C 167.52 123.46 168.35 122.59 168.33 121.54 L 168.31 120.56 C 168.29 119.51 167.42 118.68 166.37 118.70 C 165.32 118.72 164.49 119.59 164.51 120.64 Z M 164.53 121.58 L 164.53 122.58 C 164.53 123.63 165.38 124.48 166.43 124.48 C 167.48 124.48 168.33 123.63 168.33 122.58 L 168.33 121.58 C 168.33 120.53 167.48 119.68 166.43 119.68 C 165.38 119.68 164.53 120.53 164.53 121.58 Z M 164.53 122.54 L 164.51 123.56 C 164.49 124.61 165.32 125.48 166.37 125.50 C 167.42 125.52 168.29 124.69 168.31 123.64 L 168.33 122.62 C 168.35 121.57 167.52 120.70 166.47 120.68 C 165.42 120.66 164.55 121.49 164.53 122.54 Z M 164.51 123.52 L 164.47 124.54 C 164.42 125.59 165.24 126.48 166.28 126.52 C 167.33 126.57 168.22 125.75 168.27 124.70 L 168.31 123.68 C 168.35 122.63 167.54 121.74 166.49 121.70 C 165.44 121.65 164.55 122.47 164.51 123.52 Z M 164.47 124.50 L 164.40 125.53 C 164.33 126.58 165.12 127.48 166.17 127.55 C 167.22 127.62 168.13 126.83 168.20 125.78 L 168.26 124.75 C 168.33 123.70 167.54 122.79 166.49 122.72 C 165.44 122.65 164.54 123.45 164.47 124.50 Z M 164.40 125.48 L 164.31 126.51 C 164.21 127.56 164.98 128.48 166.03 128.58 C 167.08 128.67 168.01 127.90 168.10 126.85 L 168.19 125.82 C 168.29 124.78 167.52 123.85 166.47 123.76 C 165.42 123.66 164.50 124.43 164.40 125.48 Z M 164.31 126.46 L 164.19 127.48 C 164.07 128.53 164.82 129.47 165.86 129.60 C 166.91 129.72 167.85 128.97 167.98 127.93 L 168.10 126.90 C 168.22 125.86 167.47 124.91 166.43 124.79 C 165.38 124.67 164.44 125.41 164.31 126.46 Z M 164.20 127.43 L 164.05 128.44 C 163.89 129.48 164.61 130.45 165.66 130.60 C 166.70 130.75 167.67 130.03 167.82 128.99 L 167.97 127.98 C 168.12 126.94 167.40 125.97 166.36 125.82 C 165.32 125.66 164.35 126.38 164.20 127.43 Z M 164.06 128.38 L 163.88 129.37 C 163.69 130.41 164.38 131.40 165.42 131.59 C 166.45 131.77 167.45 131.08 167.63 130.05 L 167.81 129.05 C 168.00 128.02 167.31 127.02 166.27 126.84 C 165.24 126.65 164.24 127.34 164.06 128.38 Z M 163.89 129.30 L 163.68 130.27 C 163.45 131.30 164.11 132.32 165.14 132.54 C 166.17 132.77 167.19 132.12 167.41 131.08 L 167.62 130.11 C 167.84 129.08 167.19 128.07 166.16 127.84 C 165.13 127.62 164.11 128.27 163.89 129.30 Z M 163.70 130.20 L 163.43 131.21 C 163.16 132.23 163.78 133.28 164.80 133.54 C 165.82 133.81 166.86 133.20 167.13 132.18 L 167.39 131.16 C 167.66 130.14 167.05 129.10 166.03 128.83 C 165.00 128.56 163.96 129.18 163.70 130.20 Z M 163.45 131.13 L 163.14 132.14 C 162.83 133.15 163.40 134.22 164.41 134.53 C 165.41 134.84 166.48 134.28 166.79 133.27 L 167.11 132.26 C 167.42 131.25 166.85 130.18 165.84 129.87 C 164.83 129.56 163.76 130.12 163.45 131.13 Z M 163.17 132.06 L 162.82 133.04 C 162.46 134.04 162.98 135.13 163.98 135.49 C 164.97 135.84 166.07 135.32 166.42 134.33 L 166.77 133.35 C 167.12 132.35 166.60 131.26 165.61 130.90 C 164.62 130.55 163.52 131.07 163.17 132.06 Z M 162.85 132.97 L 162.46 133.91 C 162.07 134.89 162.54 136.01 163.52 136.41 C 164.50 136.80 165.61 136.33 166.01 135.35 L 166.39 134.40 C 166.79 133.42 166.32 132.31 165.34 131.91 C 164.36 131.52 163.24 131.99 162.85 132.97 Z M 162.49 133.84 L 162.08 134.76 C 161.64 135.72 162.07 136.86 163.03 137.29 C 164.00 137.73 165.13 137.30 165.56 136.34 L 165.98 135.42 C 166.42 134.46 165.99 133.32 165.03 132.89 C 164.06 132.45 162.93 132.88 162.49 133.84 Z M 162.11 134.69 L 161.66 135.58 C 161.19 136.53 161.57 137.68 162.52 138.15 C 163.47 138.62 164.62 138.24 165.09 137.30 L 165.53 136.41 C 166.01 135.46 165.62 134.31 164.68 133.84 C 163.73 133.36 162.58 133.75 162.11 134.69 Z M 161.70 135.52 L 161.22 136.39 C 160.72 137.31 161.06 138.48 161.99 138.98 C 162.91 139.49 164.08 139.15 164.59 138.22 L 165.06 137.36 C 165.56 136.43 165.22 135.27 164.29 134.76 C 163.37 134.25 162.20 134.59 161.70 135.52 Z M 161.25 136.33 L 160.76 137.17 C 160.22 138.08 160.52 139.26 161.43 139.79 C 162.34 140.33 163.52 140.03 164.06 139.12 L 164.55 138.28 C 165.09 137.37 164.79 136.19 163.88 135.65 C 162.97 135.12 161.79 135.42 161.25 136.33 Z M 160.79 137.12 L 160.27 137.94 C 159.70 138.83 159.97 140.01 160.86 140.58 C 161.76 141.15 162.94 140.88 163.51 139.99 L 164.03 139.17 C 164.59 138.28 164.33 137.09 163.43 136.52 C 162.54 135.96 161.36 136.22 160.79 137.12 Z M 160.30 137.89 L 159.76 138.69 C 159.17 139.57 159.40 140.76 160.28 141.35 C 161.16 141.94 162.35 141.71 162.94 140.83 L 163.48 140.03 C 164.07 139.16 163.84 137.96 162.96 137.37 C 162.08 136.78 160.89 137.01 160.30 137.89 Z M 159.79 138.65 L 159.23 139.43 C 158.62 140.29 158.82 141.49 159.68 142.10 C 160.55 142.72 161.74 142.52 162.36 141.65 L 162.91 140.87 C 163.53 140.01 163.33 138.81 162.46 138.20 C 161.60 137.58 160.40 137.78 159.79 138.65 Z M 159.26 139.39 L 158.66 140.19 C 158.03 141.04 158.20 142.24 159.05 142.88 C 159.90 143.51 161.10 143.34 161.74 142.49 L 162.33 141.69 C 162.97 140.84 162.79 139.64 161.95 139.00 C 161.10 138.37 159.89 138.54 159.26 139.39 Z M 158.69 140.15 L 158.03 140.99 C 157.38 141.82 157.52 143.03 158.36 143.69 C 159.19 144.34 160.40 144.19 161.05 143.36 L 161.71 142.52 C 162.36 141.69 162.22 140.48 161.38 139.83 C 160.55 139.17 159.34 139.32 158.69 140.15 Z M 158.06 140.95 L 157.39 141.77 C 156.72 142.58 156.83 143.79 157.65 144.47 C 158.47 145.14 159.68 145.03 160.35 144.21 L 161.02 143.40 C 161.70 142.58 161.58 141.37 160.76 140.69 C 159.95 140.02 158.74 140.14 158.06 140.95 Z M 157.42 141.73 L 156.74 142.51 C 156.05 143.31 156.13 144.52 156.93 145.22 C 157.73 145.92 158.94 145.83 159.64 145.03 L 160.32 144.25 C 161.02 143.45 160.93 142.23 160.13 141.54 C 159.33 140.84 158.12 140.93 157.42 141.73 Z M 156.78 142.47 L 156.08 143.23 C 155.36 144.01 155.42 145.22 156.20 145.94 C 156.98 146.66 158.19 146.61 158.91 145.83 L 159.60 145.07 C 160.32 144.29 160.27 143.08 159.49 142.36 C 158.71 141.64 157.49 141.69 156.78 142.47 Z M 156.12 143.19 L 155.42 143.91 C 154.68 144.67 154.69 145.88 155.45 146.63 C 156.21 147.37 157.42 147.35 158.16 146.59 L 158.87 145.87 C 159.61 145.11 159.59 143.89 158.84 143.15 C 158.08 142.41 156.86 142.43 156.12 143.19 Z M 155.46 143.87 L 154.74 144.56 C 153.98 145.29 153.96 146.51 154.69 147.27 C 155.43 148.03 156.64 148.06 157.41 147.32 L 158.12 146.63 C 158.88 145.90 158.91 144.68 158.17 143.92 C 157.44 143.16 156.22 143.13 155.46 143.87 Z M 154.79 144.51 L 154.07 145.16 C 153.28 145.87 153.22 147.08 153.92 147.87 C 154.63 148.66 155.85 148.72 156.63 148.02 L 157.36 147.37 C 158.15 146.66 158.21 145.44 157.50 144.66 C 156.79 143.87 155.58 143.80 154.79 144.51 Z M 154.12 145.11 L 153.39 145.72 C 152.58 146.40 152.47 147.61 153.15 148.43 C 153.83 149.24 155.04 149.35 155.85 148.67 L 156.58 148.06 C 157.40 147.38 157.50 146.17 156.83 145.36 C 156.15 144.55 154.94 144.44 154.12 145.11 Z M 153.45 145.67 L 152.72 146.24 C 151.88 146.88 151.72 148.09 152.36 148.93 C 153.01 149.77 154.22 149.93 155.06 149.28 L 155.79 148.72 C 156.63 148.07 156.79 146.87 156.14 146.03 C 155.50 145.19 154.29 145.03 153.45 145.67 Z M 152.79 146.19 L 151.99 146.74 C 151.12 147.35 150.91 148.54 151.52 149.41 C 152.12 150.28 153.32 150.50 154.19 149.89 L 154.98 149.34 C 155.85 148.73 156.07 147.53 155.46 146.66 C 154.86 145.79 153.66 145.58 152.79 146.19 Z M 152.08 146.69 L 151.17 147.25 C 150.27 147.81 149.99 148.99 150.55 149.89 C 151.11 150.79 152.29 151.07 153.19 150.51 L 154.10 149.95 C 155.00 149.39 155.28 148.21 154.72 147.31 C 154.16 146.41 152.98 146.13 152.08 146.69 Z M 151.27 147.20 L 150.35 147.69 C 149.42 148.20 149.08 149.36 149.58 150.29 C 150.08 151.22 151.25 151.57 152.18 151.06 L 153.09 150.56 C 154.02 150.06 154.37 148.90 153.86 147.97 C 153.36 147.04 152.20 146.69 151.27 147.20 Z M 150.45 147.65 L 149.53 148.08 C 148.57 148.53 148.16 149.67 148.61 150.62 C 149.06 151.58 150.20 151.99 151.16 151.54 L 152.08 151.11 C 153.04 150.66 153.45 149.52 153.00 148.56 C 152.55 147.61 151.41 147.20 150.45 147.65 Z M 149.63 148.04 L 148.71 148.41 C 147.73 148.81 147.26 149.92 147.65 150.90 C 148.05 151.88 149.16 152.35 150.14 151.95 L 151.06 151.58 C 152.04 151.19 152.51 150.07 152.12 149.09 C 151.72 148.11 150.61 147.64 149.63 148.04 Z M 148.80 148.38 L 147.88 148.69 C 146.88 149.04 146.35 150.12 146.69 151.12 C 147.04 152.12 148.12 152.65 149.12 152.31 L 150.04 151.99 C 151.04 151.65 151.57 150.56 151.23 149.56 C 150.89 148.56 149.80 148.03 148.80 148.38 Z M 147.97 148.67 L 147.05 148.93 C 146.04 149.22 145.45 150.28 145.74 151.29 C 146.03 152.30 147.09 152.89 148.10 152.60 L 149.03 152.33 C 150.04 152.04 150.62 150.98 150.33 149.97 C 150.04 148.96 148.99 148.37 147.97 148.67 Z M 147.14 148.91 L 146.21 149.13 C 145.19 149.37 144.55 150.40 144.79 151.42 C 145.04 152.45 146.06 153.08 147.09 152.84 L 148.01 152.62 C 149.04 152.38 149.67 151.35 149.43 150.33 C 149.19 149.30 148.16 148.67 147.14 148.91 Z M 146.29 149.11 L 145.36 149.29 C 144.32 149.49 143.65 150.48 143.84 151.52 C 144.04 152.55 145.03 153.23 146.07 153.03 L 147.00 152.85 C 148.04 152.66 148.71 151.66 148.52 150.63 C 148.32 149.60 147.33 148.92 146.29 149.11 Z M 145.44 149.28 L 144.44 149.42 C 143.41 149.57 142.69 150.53 142.83 151.57 C 142.98 152.61 143.94 153.33 144.98 153.18 L 145.98 153.04 C 147.02 152.89 147.74 151.93 147.59 150.89 C 147.44 149.86 146.48 149.13 145.44 149.28 Z M 144.55 149.42 L 143.55 149.50 C 142.51 149.59 141.74 150.51 141.83 151.55 C 141.92 152.59 142.84 153.36 143.88 153.27 L 144.87 153.19 C 145.91 153.10 146.69 152.18 146.60 151.14 C 146.51 150.10 145.59 149.33 144.55 149.42 Z M 143.68 149.51 L 142.69 149.52 C 141.65 149.54 140.82 150.40 140.84 151.44 C 140.86 152.48 141.72 153.31 142.76 153.29 L 143.75 153.27 C 144.79 153.25 145.62 152.39 145.60 151.35 C 145.58 150.31 144.72 149.49 143.68 149.51 Z M 142.83 149.53 L 141.85 149.48 C 140.81 149.42 139.93 150.21 139.87 151.24 C 139.81 152.28 140.60 153.16 141.63 153.22 L 142.62 153.28 C 143.65 153.34 144.54 152.55 144.60 151.52 C 144.66 150.48 143.87 149.59 142.83 149.53 Z M 142.01 149.50 L 141.04 149.36 C 140.02 149.21 139.07 149.91 138.92 150.93 C 138.77 151.96 139.47 152.91 140.49 153.06 L 141.47 153.20 C 142.49 153.35 143.44 152.64 143.59 151.62 C 143.74 150.60 143.03 149.65 142.01 149.50 Z M 141.21 149.40 L 140.25 149.16 C 139.25 148.91 138.24 149.52 137.99 150.52 C 137.75 151.52 138.35 152.53 139.35 152.77 L 140.32 153.01 C 141.31 153.26 142.32 152.65 142.57 151.66 C 142.82 150.66 142.21 149.65 141.21 149.40 Z M 140.43 149.22 L 139.49 148.88 C 138.52 148.53 137.46 149.03 137.11 149.99 C 136.76 150.95 137.26 152.02 138.22 152.37 L 139.17 152.71 C 140.13 153.06 141.20 152.56 141.55 151.60 C 141.89 150.64 141.40 149.57 140.43 149.22 Z M 139.66 148.96 L 138.79 148.54 C 137.87 148.09 136.77 148.47 136.32 149.39 C 135.87 150.30 136.25 151.41 137.17 151.86 L 138.04 152.28 C 138.96 152.73 140.06 152.35 140.51 151.43 C 140.96 150.52 140.58 149.41 139.66 148.96 Z M 138.93 148.63 L 138.13 148.14 C 137.27 147.62 136.14 147.89 135.61 148.76 C 135.08 149.62 135.36 150.75 136.23 151.28 L 137.03 151.76 C 137.89 152.29 139.02 152.02 139.55 151.15 C 140.07 150.28 139.80 149.16 138.93 148.63 Z M 138.24 148.23 L 137.46 147.67 C 136.64 147.08 135.50 147.27 134.91 148.08 C 134.33 148.90 134.51 150.04 135.33 150.62 L 136.12 151.19 C 136.93 151.77 138.07 151.59 138.66 150.77 C 139.24 149.95 139.06 148.82 138.24 148.23 Z M 137.54 147.75 L 136.78 147.12 C 136.01 146.49 134.87 146.60 134.23 147.37 C 133.60 148.14 133.71 149.28 134.48 149.91 L 135.24 150.54 C 136.02 151.18 137.15 151.06 137.79 150.29 C 138.42 149.52 138.31 148.38 137.54 147.75 Z M 136.84 147.20 L 136.10 146.51 C 135.37 145.84 134.24 145.88 133.57 146.61 C 132.89 147.34 132.94 148.48 133.67 149.15 L 134.41 149.83 C 135.14 150.51 136.27 150.46 136.95 149.73 C 137.62 149.00 137.57 147.87 136.84 147.20 Z M 136.15 146.58 L 135.44 145.85 C 134.75 145.15 133.62 145.14 132.92 145.83 C 132.22 146.51 132.20 147.64 132.89 148.34 L 133.61 149.08 C 134.30 149.78 135.43 149.79 136.13 149.10 C 136.83 148.41 136.84 147.28 136.15 146.58 Z M 135.48 145.91 L 134.79 145.15 C 134.13 144.42 133.02 144.36 132.29 145.01 C 131.56 145.67 131.51 146.78 132.16 147.51 L 132.85 148.28 C 133.50 149.00 134.62 149.06 135.35 148.41 C 136.07 147.76 136.13 146.64 135.48 145.91 Z M 134.82 145.20 L 134.16 144.41 C 133.54 143.67 132.43 143.57 131.69 144.19 C 130.94 144.81 130.84 145.91 131.46 146.66 L 132.13 147.45 C 132.75 148.19 133.85 148.30 134.60 147.67 C 135.34 147.05 135.44 145.95 134.82 145.20 Z M 134.18 144.46 L 133.55 143.65 C 132.96 142.89 131.87 142.76 131.11 143.35 C 130.35 143.94 130.21 145.03 130.80 145.79 L 131.44 146.60 C 132.03 147.36 133.12 147.50 133.88 146.91 C 134.64 146.32 134.77 145.22 134.18 144.46 Z M 133.57 143.70 L 132.96 142.86 C 132.40 142.09 131.32 141.92 130.55 142.49 C 129.78 143.05 129.61 144.13 130.17 144.90 L 130.78 145.74 C 131.35 146.51 132.43 146.68 133.20 146.12 C 133.97 145.55 134.13 144.48 133.57 143.70 Z M 132.98 142.91 L 132.39 142.06 C 131.86 141.28 130.80 141.09 130.02 141.62 C 129.24 142.15 129.04 143.22 129.57 144.00 L 130.16 144.85 C 130.69 145.62 131.75 145.82 132.53 145.29 C 133.31 144.76 133.51 143.69 132.98 142.91 Z M 132.41 142.11 L 131.85 141.26 C 131.35 140.47 130.30 140.25 129.51 140.75 C 128.73 141.26 128.50 142.31 129.01 143.09 L 129.56 143.95 C 130.07 144.73 131.12 144.96 131.90 144.45 C 132.69 143.95 132.91 142.90 132.41 142.11 Z M 131.86 141.30 L 131.34 140.44 C 130.86 139.65 129.83 139.40 129.04 139.89 C 128.25 140.37 128.00 141.40 128.48 142.19 L 129.00 143.05 C 129.48 143.84 130.51 144.09 131.31 143.61 C 132.10 143.12 132.35 142.09 131.86 141.30 Z M 131.34 140.49 L 130.85 139.63 C 130.39 138.83 129.37 138.56 128.58 139.02 C 127.79 139.48 127.51 140.50 127.97 141.29 L 128.47 142.15 C 128.93 142.94 129.95 143.21 130.74 142.75 C 131.53 142.29 131.80 141.28 131.34 140.49 Z M 130.85 139.66 L 130.37 138.80 C 129.93 138.01 128.93 137.72 128.14 138.16 C 127.34 138.60 127.06 139.60 127.50 140.39 L 127.97 141.25 C 128.41 142.05 129.41 142.34 130.21 141.90 C 131.00 141.46 131.29 140.46 130.85 139.66 Z M 130.37 138.83 L 129.91 137.97 C 129.49 137.18 128.50 136.88 127.71 137.30 C 126.92 137.72 126.62 138.70 127.04 139.50 L 127.50 140.36 C 127.92 141.15 128.90 141.45 129.70 141.03 C 130.49 140.61 130.79 139.63 130.37 138.83 Z M 129.91 138.00 L 129.46 137.13 C 129.05 136.34 128.08 136.03 127.29 136.44 C 126.50 136.84 126.19 137.81 126.60 138.61 L 127.04 139.47 C 127.45 140.26 128.42 140.57 129.21 140.16 C 130.00 139.76 130.31 138.79 129.91 138.00 Z M 129.46 137.15 L 129.01 136.27 C 128.62 135.49 127.66 135.17 126.87 135.56 C 126.09 135.96 125.77 136.91 126.16 137.70 L 126.60 138.58 C 127.00 139.37 127.96 139.69 128.74 139.30 C 129.53 138.90 129.85 137.94 129.46 137.15 Z M 129.01 136.29 L 128.57 135.38 C 128.18 134.60 127.23 134.27 126.45 134.66 C 125.66 135.04 125.33 135.99 125.72 136.78 L 126.16 137.69 C 126.55 138.47 127.50 138.80 128.29 138.41 C 129.08 138.03 129.40 137.08 129.01 136.29 Z M 128.57 135.40 L 128.14 134.49 C 127.76 133.70 126.81 133.37 126.02 133.75 C 125.23 134.13 124.90 135.08 125.28 135.86 L 125.72 136.77 C 126.10 137.56 127.04 137.89 127.83 137.51 C 128.62 137.13 128.95 136.18 128.57 135.40 Z M 128.14 134.50 L 127.71 133.60 C 127.34 132.81 126.39 132.47 125.60 132.84 C 124.82 133.22 124.48 134.16 124.85 134.95 L 125.28 135.85 C 125.65 136.64 126.60 136.98 127.38 136.61 C 128.17 136.23 128.51 135.29 128.14 134.50 Z M 127.71 133.61 L 127.29 132.70 C 126.92 131.91 125.98 131.57 125.19 131.94 C 124.40 132.31 124.06 133.25 124.43 134.03 L 124.85 134.94 C 125.22 135.73 126.16 136.07 126.95 135.70 C 127.74 135.33 128.08 134.40 127.71 133.61 Z M 127.29 132.71 L 126.87 131.80 C 126.50 131.01 125.57 130.67 124.78 131.03 C 123.99 131.40 123.65 132.33 124.01 133.12 L 124.43 134.03 C 124.79 134.82 125.73 135.16 126.52 134.80 C 127.31 134.43 127.65 133.50 127.29 132.71 Z M 126.87 131.81 L 126.45 130.90 C 126.09 130.12 125.16 129.77 124.37 130.13 C 123.59 130.49 123.24 131.42 123.60 132.21 L 124.01 133.12 C 124.37 133.90 125.31 134.25 126.09 133.89 C 126.88 133.53 127.23 132.60 126.87 131.81 Z M 126.45 130.91 L 126.04 130.00 C 125.68 129.22 124.75 128.87 123.97 129.23 C 123.18 129.59 122.83 130.51 123.19 131.30 L 123.60 132.21 C 123.96 132.99 124.89 133.34 125.68 132.98 C 126.46 132.62 126.81 131.70 126.45 130.91 Z M 126.04 130.01 L 125.78 129.43 C 125.42 128.65 124.49 128.30 123.71 128.66 C 122.92 129.02 122.58 129.94 122.93 130.73 L 123.19 131.30 C 123.55 132.08 124.48 132.43 125.26 132.07 C 126.05 131.72 126.39 130.79 126.04 130.01 Z"
      fill="black"
      fill-rule="nonzero" /></svg>