<svg xmlns="http://www.w3.org/2000/svg" width="300" height="300" viewBox="0 0 300 300">
<path d="M 134.72 95.21 L 133.89 95.70 C 133.08 96.18 132.81 97.24 133.30 98.05 C 133.78 98.86 134.83 99.13 135.64 98.64 L 136.47 98.15 C 137.29 97.66 137.55 96.61 137.07 95.80 C 136.59 94.99 135.54 94.72 134.72 95.21 Z M 133.85 95.70 L 133.03 96.21 C 132.21 96.71 131.96 97.78 132.47 98.60 C 132.98 99.41 134.05 99.67 134.86 99.16 L 135.68 98.65 C 136.50 98.14 136.75 97.07 136.24 96.26 C 135.74 95.44 134.66 95.19 133.85 95.70 Z M 132.96 96.22 L 132.16 96.76 C 131.35 97.31 131.14 98.40 131.69 99.21 C 132.23 100.02 133.33 100.23 134.13 99.68 L 134.93 99.14 C 135.74 98.60 135.95 97.50 135.41 96.70 C 134.86 95.89 133.77 95.68 132.96 96.22 Z M 132.06 96.80 L 131.29 97.39 C 130.51 97.99 130.36 99.11 130.96 99.89 C 131.56 100.68 132.68 100.83 133.46 100.23 L 134.23 99.64 C 135.02 99.05 135.17 97.92 134.57 97.14 C 133.97 96.35 132.85 96.20 132.06 96.80 Z M 131.17 97.45 L 130.45 98.10 C 129.70 98.77 129.64 99.91 130.30 100.66 C 130.97 101.41 132.12 101.47 132.86 100.81 L 133.59 100.16 C 134.33 99.49 134.40 98.35 133.73 97.60 C 133.07 96.85 131.92 96.79 131.17 97.45 Z M 130.31 98.20 L 129.64 98.92 C 128.95 99.67 128.99 100.83 129.74 101.52 C 130.48 102.21 131.65 102.17 132.34 101.42 L 133.01 100.70 C 133.70 99.96 133.65 98.80 132.91 98.10 C 132.16 97.41 131.00 97.46 130.31 98.20 Z M 129.49 99.06 L 128.89 99.87 C 128.28 100.69 128.45 101.86 129.27 102.48 C 130.10 103.09 131.27 102.92 131.88 102.09 L 132.49 101.28 C 133.10 100.46 132.93 99.29 132.10 98.68 C 131.28 98.06 130.11 98.23 129.49 99.06 Z M 128.75 100.04 L 128.22 100.95 C 127.70 101.86 128.02 103.01 128.92 103.53 C 129.82 104.05 130.98 103.74 131.50 102.84 L 132.03 101.92 C 132.55 101.02 132.23 99.86 131.33 99.34 C 130.42 98.82 129.27 99.13 128.75 100.04 Z M 128.11 101.14 L 127.70 102.08 C 127.28 103.05 127.73 104.18 128.70 104.59 C 129.67 105.01 130.80 104.56 131.21 103.59 L 131.62 102.65 C 132.03 101.68 131.59 100.56 130.62 100.14 C 129.65 99.72 128.52 100.17 128.11 101.14 Z M 127.63 102.24 L 127.38 103.03 C 127.05 104.04 127.60 105.12 128.61 105.45 C 129.62 105.78 130.70 105.22 131.03 104.22 L 131.28 103.43 C 131.61 102.42 131.06 101.34 130.05 101.01 C 129.04 100.68 127.96 101.23 127.63 102.24 Z M 127.34 103.15 L 127.13 103.99 C 126.87 105.02 127.49 106.06 128.52 106.32 C 129.54 106.59 130.59 105.96 130.85 104.94 L 131.06 104.09 C 131.33 103.07 130.70 102.02 129.68 101.76 C 128.65 101.50 127.60 102.12 127.34 103.15 Z M 127.10 104.09 L 126.93 104.98 C 126.72 106.02 127.40 107.03 128.44 107.24 C 129.48 107.44 130.49 106.77 130.70 105.73 L 130.87 104.83 C 131.08 103.79 130.40 102.78 129.36 102.58 C 128.32 102.37 127.31 103.05 127.10 104.09 Z M 126.91 105.07 L 126.77 106.00 C 126.61 107.05 127.33 108.03 128.38 108.19 C 129.43 108.35 130.41 107.63 130.57 106.58 L 130.71 105.64 C 130.87 104.59 130.15 103.61 129.10 103.45 C 128.05 103.30 127.07 104.02 126.91 105.07 Z M 126.76 106.07 L 126.65 107.05 C 126.53 108.10 127.29 109.05 128.34 109.17 C 129.40 109.30 130.35 108.54 130.47 107.48 L 130.58 106.51 C 130.70 105.45 129.94 104.50 128.89 104.38 C 127.83 104.26 126.88 105.02 126.76 106.07 Z M 126.64 107.11 L 126.56 108.12 C 126.47 109.17 127.26 110.10 128.31 110.19 C 129.37 110.28 130.30 109.49 130.39 108.44 L 130.47 107.43 C 130.56 106.37 129.78 105.44 128.72 105.35 C 127.66 105.26 126.73 106.05 126.64 107.11 Z M 126.56 108.16 L 126.50 109.20 C 126.43 110.26 127.24 111.17 128.30 111.23 C 129.36 111.29 130.27 110.49 130.33 109.43 L 130.39 108.39 C 130.46 107.33 129.65 106.42 128.59 106.36 C 127.53 106.30 126.62 107.10 126.56 108.16 Z M 126.49 109.24 L 126.45 110.30 C 126.41 111.36 127.23 112.25 128.29 112.29 C 129.36 112.34 130.25 111.51 130.29 110.45 L 130.33 109.39 C 130.38 108.33 129.55 107.44 128.49 107.39 C 127.43 107.35 126.54 108.18 126.49 109.24 Z M 126.45 110.33 L 126.42 111.41 C 126.40 112.47 127.24 113.35 128.30 113.37 C 129.36 113.40 130.24 112.56 130.27 111.50 L 130.29 110.42 C 130.32 109.36 129.48 108.48 128.42 108.45 C 127.36 108.43 126.48 109.27 126.45 110.33 Z M 126.42 111.43 L 126.41 112.52 C 126.39 113.58 127.24 114.45 128.31 114.46 C 129.37 114.48 130.24 113.63 130.25 112.57 L 130.27 111.48 C 130.28 110.42 129.43 109.55 128.37 109.53 C 127.31 109.52 126.44 110.37 126.42 111.43 Z M 126.41 112.53 L 126.40 113.63 C 126.40 114.69 127.25 115.56 128.31 115.56 C 129.38 115.57 130.24 114.71 130.25 113.65 L 130.25 112.55 C 130.26 111.49 129.40 110.63 128.34 110.62 C 127.28 110.62 126.41 111.47 126.41 112.53 Z M 126.40 113.64 L 126.40 114.73 C 126.40 115.80 127.26 116.66 128.32 116.66 C 129.38 116.66 130.24 115.80 130.25 114.74 L 130.25 113.64 C 130.25 112.58 129.39 111.72 128.33 111.72 C 127.27 111.72 126.40 112.58 126.40 113.64 Z M 126.40 114.74 L 126.40 115.83 C 126.40 116.89 127.26 117.75 128.32 117.75 C 129.38 117.75 130.24 116.89 130.24 115.83 L 130.24 114.74 C 130.24 113.67 129.38 112.81 128.32 112.81 C 127.26 112.81 126.40 113.67 126.40 114.74 Z M 126.40 115.83 L 126.40 116.92 C 126.40 117.98 127.26 118.84 128.32 118.84 C 129.38 118.84 130.24 117.98 130.24 116.92 L 130.24 115.83 C 130.24 114.77 129.38 113.91 128.32 113.91 C 127.26 113.91 126.40 114.77 126.40 115.83 Z M 126.40 116.92 L 126.40 118.00 C 126.40 119.06 127.26 119.92 128.32 119.92 C 129.38 119.92 130.24 119.06 130.24 118.00 L 130.24 116.92 C 130.24 115.86 129.38 115.00 128.32 115.00 C 127.26 115.00 126.40 115.86 126.40 116.92 Z M 126.40 118.00 L 126.40 119.06 C 126.40 120.12 127.26 120.98 128.32 120.98 C 129.38 120.98 130.24 120.12 130.24 119.06 L 130.24 118.00 C 130.24 116.94 129.38 116.08 128.32 116.08 C 127.26 116.08 126.40 116.94 126.40 118.00 Z M 126.40 119.06 L 126.40 120.11 C 126.40 121.17 127.26 122.03 128.32 122.03 C 129.38 122.03 130.24 121.17 130.24 120.11 L 130.24 119.06 C 130.24 118.00 129.38 117.14 128.32 117.14 C 127.26 117.14 126.40 118.00 126.40 119.06 Z M 126.41 120.11 L 126.41 121.14 C 126.41 122.20 127.26 123.06 128.32 123.06 C 129.38 123.06 130.24 122.20 130.24 121.14 L 130.24 120.11 C 130.24 119.05 129.38 118.19 128.32 118.19 C 127.26 118.19 126.41 119.05 126.41 120.11 Z M 126.41 121.14 L 126.41 122.16 C 126.41 123.22 127.26 124.08 128.32 124.08 C 129.38 124.08 130.24 123.22 130.24 122.16 L 130.24 121.14 C 130.24 120.09 129.38 119.23 128.32 119.23 C 127.26 119.23 126.41 120.09 126.41 121.14 Z M 126.41 122.16 L 126.41 123.15 C 126.41 124.21 127.26 125.07 128.32 125.07 C 129.38 125.07 130.24 124.21 130.24 123.15 L 130.24 122.16 C 130.24 121.10 129.38 120.24 128.32 120.24 C 127.26 120.24 126.41 121.10 126.41 122.16 Z M 126.41 123.15 L 126.41 124.12 C 126.41 125.18 127.27 126.04 128.32 126.04 C 129.38 126.04 130.24 125.18 130.24 124.12 L 130.24 123.15 C 130.24 122.09 129.38 121.24 128.32 121.24 C 127.27 121.24 126.41 122.09 126.41 123.15 Z M 126.41 124.12 L 126.41 125.07 C 126.41 126.13 127.27 126.98 128.32 126.98 C 129.38 126.98 130.24 126.13 130.24 125.07 L 130.24 124.12 C 130.24 123.07 129.38 122.21 128.32 122.21 C 127.27 122.21 126.41 123.07 126.41 124.12 Z M 126.41 125.07 L 126.41 125.99 C 126.41 127.04 127.27 127.90 128.32 127.90 C 129.38 127.90 130.24 127.04 130.24 125.99 L 130.24 125.07 C 130.24 124.01 129.38 123.15 128.32 123.15 C 127.27 123.15 126.41 124.01 126.41 125.07 Z M 126.41 125.99 L 126.41 126.87 C 126.41 127.93 127.27 128.78 128.32 128.78 C 129.38 128.78 130.24 127.93 130.24 126.87 L 130.24 125.99 C 130.24 124.93 129.38 124.07 128.32 124.07 C 127.27 124.07 126.41 124.93 126.41 125.99 Z M 126.41 126.87 L 126.41 127.80 C 126.41 128.85 127.27 129.71 128.32 129.71 C 129.38 129.71 130.23 128.85 130.23 127.80 L 130.23 126.87 C 130.23 125.82 129.38 124.96 128.32 124.96 C 127.27 124.96 126.41 125.82 126.41 126.87 Z M 126.41 127.80 L 126.41 128.93 C 126.41 129.99 127.27 130.84 128.32 130.84 C 129.38 130.84 130.23 129.99 130.23 128.93 L 130.23 127.80 C 130.23 126.74 129.38 125.89 128.32 125.89 C 127.27 125.89 126.41 126.74 126.41 127.80 Z M 126.41 128.93 L 126.41 130.01 C 126.41 131.06 127.27 131.92 128.32 131.92 C 129.38 131.92 130.23 131.06 130.23 130.01 L 130.23 128.93 C 130.23 127.88 129.38 127.02 128.32 127.02 C 127.27 127.02 126.41 127.88 126.41 128.93 Z M 126.42 130.01 L 126.42 131.04 C 126.42 132.10 127.27 132.95 128.32 132.95 C 129.38 132.95 130.23 132.10 130.23 131.04 L 130.23 130.01 C 130.23 128.96 129.38 128.10 128.32 128.10 C 127.27 128.10 126.42 128.96 126.42 130.01 Z M 126.42 131.04 L 126.42 132.04 C 126.42 133.09 127.27 133.94 128.32 133.94 C 129.38 133.94 130.23 133.09 130.23 132.04 L 130.23 131.04 C 130.23 129.99 129.38 129.14 128.32 129.14 C 127.27 129.14 126.42 129.99 126.42 131.04 Z M 126.42 132.04 L 126.42 133.00 C 126.42 134.05 127.27 134.91 128.32 134.91 C 129.37 134.91 130.23 134.05 130.23 133.00 L 130.23 132.04 C 130.23 130.99 129.37 130.13 128.32 130.13 C 127.27 130.13 126.42 130.99 126.42 132.04 Z M 126.42 133.00 L 126.42 133.95 C 126.42 135.00 127.27 135.85 128.32 135.85 C 129.37 135.85 130.22 135.00 130.22 133.95 L 130.22 133.00 C 130.22 131.95 129.37 131.10 128.32 131.10 C 127.27 131.10 126.42 131.95 126.42 133.00 Z M 126.42 133.95 L 126.42 134.88 C 126.42 135.93 127.27 136.78 128.32 136.78 C 129.37 136.78 130.22 135.93 130.22 134.88 L 130.22 133.95 C 130.22 132.90 129.37 132.05 128.32 132.05 C 127.27 132.05 126.42 132.90 126.42 133.95 Z M 126.43 134.88 L 126.43 135.81 C 126.43 136.86 127.27 137.71 128.32 137.71 C 129.37 137.71 130.22 136.86 130.22 135.81 L 130.22 134.88 C 130.22 133.83 129.37 132.98 128.32 132.98 C 127.27 132.98 126.43 133.83 126.43 134.88 Z M 126.43 135.81 L 126.43 136.75 C 126.43 137.80 127.28 138.64 128.32 138.64 C 129.37 138.64 130.22 137.80 130.22 136.75 L 130.22 135.81 C 130.22 134.76 129.37 133.92 128.32 133.92 C 127.28 133.92 126.43 134.76 126.43 135.81 Z M 126.43 136.75 L 126.43 137.70 C 126.43 138.74 127.28 139.59 128.32 139.59 C 129.37 139.59 130.22 138.74 130.22 137.70 L 130.22 136.75 C 130.22 135.70 129.37 134.85 128.32 134.85 C 127.28 134.85 126.43 135.70 126.43 136.75 Z M 126.43 137.70 L 126.43 138.66 C 126.43 139.70 127.28 140.55 128.32 140.55 C 129.37 140.55 130.22 139.70 130.22 138.66 L 130.22 137.70 C 130.22 136.65 129.37 135.80 128.32 135.80 C 127.28 135.80 126.43 136.65 126.43 137.70 Z M 126.43 138.66 L 126.43 139.63 C 126.43 140.68 127.28 141.52 128.32 141.52 C 129.37 141.52 130.22 140.68 130.22 139.63 L 130.22 138.66 C 130.22 137.61 129.37 136.76 128.32 136.76 C 127.28 136.76 126.43 137.61 126.43 138.66 Z M 126.43 139.63 L 126.43 140.62 C 126.43 141.66 127.28 142.51 128.32 142.51 C 129.37 142.51 130.22 141.66 130.22 140.62 L 130.22 139.63 C 130.22 138.59 129.37 137.74 128.32 137.74 C 127.28 137.74 126.43 138.59 126.43 139.63 Z M 126.43 140.62 L 126.43 141.62 C 126.43 142.66 127.28 143.51 128.32 143.51 C 129.37 143.51 130.21 142.66 130.21 141.62 L 130.21 140.62 C 130.21 139.57 129.37 138.73 128.32 138.73 C 127.28 138.73 126.43 139.57 126.43 140.62 Z M 126.43 141.62 L 126.43 142.64 C 126.43 143.68 127.28 144.53 128.32 144.53 C 129.37 144.53 130.21 143.68 130.21 142.64 L 130.21 141.62 C 130.21 140.58 129.37 139.73 128.32 139.73 C 127.28 139.73 126.43 140.58 126.43 141.62 Z M 126.43 142.64 L 126.43 143.67 C 126.43 144.71 127.28 145.56 128.32 145.56 C 129.37 145.56 130.21 144.71 130.21 143.67 L 130.21 142.64 C 130.21 141.59 129.37 140.75 128.32 140.75 C 127.28 140.75 126.43 141.59 126.43 142.64 Z M 126.44 143.67 L 126.44 144.72 C 126.44 145.76 127.28 146.60 128.32 146.60 C 129.37 146.60 130.21 145.76 130.21 144.72 L 130.21 143.67 C 130.21 142.63 129.37 141.78 128.32 141.78 C 127.28 141.78 126.44 142.63 126.44 143.67 Z M 126.44 144.72 L 126.44 145.75 C 126.44 146.79 127.28 147.64 128.32 147.64 C 129.37 147.64 130.21 146.79 130.21 145.75 L 130.21 144.72 C 130.21 143.67 129.37 142.83 128.32 142.83 C 127.28 142.83 126.44 143.67 126.44 144.72 Z M 126.44 145.75 L 126.44 146.72 C 126.44 147.76 127.28 148.60 128.32 148.60 C 129.36 148.60 130.21 147.76 130.21 146.72 L 130.21 145.75 C 130.21 144.71 129.36 143.87 128.32 143.87 C 127.28 143.87 126.44 144.71 126.44 145.75 Z M 126.44 146.72 L 126.44 147.69 C 126.44 148.73 127.28 149.58 128.32 149.58 C 129.36 149.58 130.21 148.74 130.21 147.69 L 130.21 146.72 C 130.21 145.68 129.36 144.83 128.32 144.83 C 127.28 144.83 126.44 145.67 126.44 146.72 Z M 126.44 147.69 L 126.44 148.68 C 126.44 149.72 127.28 150.56 128.32 150.56 C 129.36 150.57 130.20 149.72 130.21 148.68 L 130.21 147.70 C 130.21 146.66 129.37 145.81 128.32 145.81 C 127.28 145.81 126.44 146.65 126.44 147.69 Z M 126.44 148.68 L 126.44 149.67 C 126.43 150.71 127.27 151.56 128.31 151.56 C 129.35 151.56 130.20 150.72 130.20 149.68 L 130.20 148.69 C 130.21 147.65 129.37 146.80 128.33 146.80 C 127.29 146.80 126.44 147.64 126.44 148.68 Z M 126.44 149.67 L 126.43 150.67 C 126.43 151.71 127.27 152.56 128.31 152.56 C 129.35 152.57 130.19 151.73 130.20 150.69 L 130.20 149.68 C 130.20 148.64 129.37 147.80 128.33 147.79 C 127.29 147.79 126.44 148.63 126.44 149.67 Z M 126.43 150.67 L 126.43 151.68 C 126.42 152.72 127.26 153.57 128.30 153.57 C 129.34 153.58 130.19 152.74 130.19 151.70 L 130.20 150.69 C 130.20 149.65 129.36 148.81 128.33 148.80 C 127.29 148.79 126.44 149.63 126.43 150.67 Z M 126.43 151.68 L 126.42 152.69 C 126.41 153.73 127.25 154.58 128.29 154.58 C 129.33 154.59 130.17 153.76 130.18 152.72 L 130.19 151.70 C 130.20 150.67 129.36 149.82 128.32 149.81 C 127.29 149.80 126.44 150.64 126.43 151.68 Z M 126.42 152.69 L 126.41 153.71 C 126.40 154.74 127.24 155.59 128.27 155.60 C 129.31 155.61 130.16 154.78 130.17 153.74 L 130.18 152.72 C 130.19 151.69 129.36 150.84 128.32 150.83 C 127.28 150.82 126.43 151.65 126.42 152.69 Z M 126.41 153.70 L 126.40 154.72 C 126.39 155.76 127.22 156.61 128.26 156.62 C 129.29 156.63 130.15 155.80 130.16 154.77 L 130.17 153.75 C 130.18 152.71 129.35 151.86 128.32 151.85 C 127.28 151.83 126.43 152.66 126.41 153.70 Z M 126.40 154.72 L 126.39 155.73 C 126.37 156.77 127.20 157.62 128.24 157.64 C 129.27 157.65 130.13 156.83 130.14 155.79 L 130.16 154.77 C 130.17 153.74 129.35 152.88 128.31 152.87 C 127.27 152.85 126.42 153.68 126.40 154.72 Z M 126.39 155.73 L 126.37 156.72 C 126.35 157.76 127.18 158.61 128.21 158.63 C 129.25 158.65 130.10 157.82 130.12 156.79 L 130.14 155.79 C 130.16 154.76 129.33 153.90 128.30 153.88 C 127.26 153.87 126.41 154.69 126.39 155.73 Z M 126.37 156.71 L 126.35 157.71 C 126.33 158.74 127.15 159.60 128.18 159.62 C 129.22 159.65 130.08 158.82 130.10 157.79 L 130.12 156.80 C 130.14 155.76 129.32 154.90 128.29 154.88 C 127.25 154.86 126.39 155.68 126.37 156.71 Z M 126.35 157.70 L 126.33 158.70 C 126.30 159.73 127.12 160.59 128.15 160.62 C 129.18 160.64 130.05 159.83 130.07 158.79 L 130.10 157.80 C 130.12 156.76 129.31 155.90 128.27 155.88 C 127.24 155.85 126.38 156.67 126.35 157.70 Z M 126.33 158.69 L 126.30 159.68 C 126.27 160.72 127.08 161.58 128.11 161.61 C 129.15 161.64 130.01 160.83 130.04 159.80 L 130.07 158.80 C 130.10 157.77 129.29 156.90 128.25 156.87 C 127.22 156.84 126.36 157.65 126.33 158.69 Z M 126.30 159.68 L 126.26 160.67 C 126.23 161.71 127.04 162.57 128.07 162.61 C 129.10 162.64 129.97 161.83 130.01 160.80 L 130.04 159.80 C 130.07 158.77 129.27 157.90 128.23 157.87 C 127.20 157.83 126.33 158.64 126.30 159.68 Z M 126.27 160.66 L 126.23 161.66 C 126.19 162.70 126.99 163.56 128.02 163.60 C 129.06 163.64 129.93 162.84 129.97 161.81 L 130.00 160.81 C 130.04 159.78 129.24 158.91 128.21 158.87 C 127.18 158.83 126.31 159.63 126.27 160.66 Z M 126.23 161.65 L 126.18 162.65 C 126.14 163.69 126.94 164.56 127.97 164.60 C 129.00 164.65 129.88 163.85 129.92 162.82 L 129.96 161.82 C 130.01 160.79 129.21 159.91 128.18 159.87 C 127.15 159.82 126.27 160.62 126.23 161.65 Z M 126.19 162.64 L 126.14 163.65 C 126.09 164.68 126.88 165.55 127.91 165.60 C 128.94 165.66 129.82 164.86 129.87 163.83 L 129.92 162.83 C 129.97 161.80 129.17 160.92 128.14 160.87 C 127.11 160.82 126.24 161.61 126.19 162.64 Z M 126.14 163.64 L 126.08 164.64 C 126.03 165.67 126.82 166.55 127.85 166.61 C 128.88 166.66 129.76 165.88 129.81 164.85 L 129.87 163.84 C 129.92 162.81 129.13 161.93 128.10 161.87 C 127.07 161.82 126.19 162.61 126.14 163.64 Z M 126.09 164.63 L 126.03 165.64 C 125.96 166.67 126.75 167.55 127.78 167.62 C 128.81 167.68 129.69 166.89 129.75 165.86 L 129.81 164.86 C 129.87 163.83 129.09 162.94 128.06 162.88 C 127.03 162.82 126.15 163.60 126.09 164.63 Z M 126.03 165.63 L 125.96 166.62 C 125.90 167.64 126.67 168.53 127.70 168.60 C 128.73 168.67 129.62 167.89 129.68 166.86 L 129.75 165.87 C 129.82 164.85 129.04 163.96 128.01 163.89 C 126.98 163.82 126.10 164.60 126.03 165.63 Z M 125.96 166.61 L 125.89 167.59 C 125.82 168.62 126.60 169.51 127.62 169.58 C 128.65 169.65 129.54 168.88 129.61 167.85 L 129.68 166.87 C 129.76 165.84 128.98 164.95 127.96 164.88 C 126.93 164.81 126.04 165.58 125.96 166.61 Z M 125.90 167.58 L 125.82 168.57 C 125.74 169.60 126.51 170.49 127.54 170.57 C 128.56 170.64 129.46 169.88 129.54 168.85 L 129.61 167.86 C 129.69 166.84 128.92 165.94 127.89 165.87 C 126.87 165.79 125.97 166.56 125.90 167.58 Z M 125.82 168.56 L 125.75 169.55 C 125.66 170.58 126.43 171.47 127.45 171.56 C 128.48 171.64 129.37 170.87 129.45 169.85 L 129.53 168.86 C 129.62 167.83 128.85 166.94 127.83 166.86 C 126.80 166.77 125.91 167.54 125.82 168.56 Z M 125.75 169.55 L 125.66 170.54 C 125.58 171.56 126.34 172.46 127.36 172.55 C 128.39 172.63 129.29 171.87 129.37 170.85 L 129.45 169.86 C 129.54 168.83 128.78 167.93 127.75 167.85 C 126.73 167.76 125.83 168.52 125.75 169.55 Z M 125.67 170.54 L 125.58 171.53 C 125.49 172.55 126.25 173.45 127.27 173.54 C 128.29 173.63 129.19 172.87 129.28 171.85 L 129.37 170.85 C 129.46 169.83 128.70 168.93 127.68 168.84 C 126.65 168.76 125.75 169.51 125.67 170.54 Z M 125.58 171.53 L 125.49 172.53 C 125.40 173.55 126.16 174.45 127.18 174.54 C 128.20 174.63 129.10 173.88 129.19 172.86 L 129.28 171.86 C 129.37 170.83 128.62 169.93 127.60 169.84 C 126.57 169.75 125.67 170.51 125.58 171.53 Z M 125.50 172.52 L 125.40 173.53 C 125.31 174.55 126.07 175.45 127.09 175.54 C 128.11 175.63 129.01 174.88 129.10 173.86 L 129.19 172.86 C 129.28 171.84 128.53 170.94 127.51 170.84 C 126.49 170.75 125.59 171.50 125.50 172.52 Z M 125.41 173.53 L 125.31 174.53 C 125.22 175.55 125.97 176.45 126.99 176.55 C 128.01 176.64 128.91 175.89 129.01 174.87 L 129.10 173.86 C 129.19 172.84 128.44 171.94 127.42 171.85 C 126.40 171.75 125.50 172.51 125.41 173.53 Z M 125.32 174.53 L 125.22 175.54 C 125.13 176.56 125.88 177.46 126.90 177.55 C 127.92 177.65 128.82 176.90 128.91 175.88 L 129.00 174.87 C 129.10 173.85 128.35 172.95 127.33 172.86 C 126.31 172.76 125.41 173.51 125.32 174.53 Z M 125.22 175.54 L 125.13 176.54 C 125.04 177.56 125.79 178.46 126.80 178.55 C 127.82 178.65 128.72 177.90 128.82 176.88 L 128.91 175.88 C 129.00 174.86 128.26 173.96 127.24 173.87 C 126.22 173.77 125.32 174.52 125.22 175.54 Z M 125.13 176.54 L 125.04 177.52 C 124.95 178.54 125.70 179.44 126.71 179.54 C 127.73 179.63 128.63 178.88 128.73 177.86 L 128.82 176.88 C 128.91 175.86 128.16 174.96 127.14 174.87 C 126.13 174.78 125.23 175.52 125.13 176.54 Z M 125.04 177.53 L 124.95 178.51 C 124.86 179.53 125.61 180.43 126.63 180.52 C 127.64 180.61 128.54 179.86 128.63 178.85 L 128.72 177.86 C 128.82 176.85 128.07 175.95 127.05 175.85 C 126.04 175.76 125.14 176.51 125.04 177.53 Z M 124.96 178.51 L 124.87 179.50 C 124.77 180.52 125.52 181.42 126.54 181.51 C 127.55 181.60 128.45 180.85 128.54 179.84 L 128.63 178.85 C 128.72 177.83 127.98 176.93 126.96 176.84 C 125.95 176.75 125.05 177.50 124.96 178.51 Z M 124.87 179.50 L 124.78 180.50 C 124.69 181.51 125.44 182.41 126.45 182.50 C 127.47 182.59 128.36 181.84 128.45 180.83 L 128.54 179.83 C 128.63 178.82 127.88 177.92 126.87 177.83 C 125.85 177.74 124.96 178.49 124.87 179.50 Z M 124.78 180.50 L 124.69 181.49 C 124.60 182.51 125.35 183.40 126.37 183.49 C 127.38 183.58 128.27 182.83 128.36 181.82 L 128.45 180.82 C 128.54 179.81 127.79 178.91 126.78 178.83 C 125.76 178.74 124.87 179.49 124.78 180.50 Z M 124.69 181.50 L 124.61 182.49 C 124.52 183.51 125.27 184.40 126.28 184.49 C 127.30 184.57 128.19 183.82 128.28 182.81 L 128.36 181.81 C 128.45 180.80 127.70 179.91 126.69 179.82 C 125.67 179.73 124.78 180.48 124.69 181.50 Z M 124.61 182.50 L 124.52 183.50 C 124.44 184.51 125.19 185.40 126.20 185.49 C 127.21 185.57 128.10 184.82 128.19 183.81 L 128.28 182.81 C 128.36 181.80 127.61 180.91 126.60 180.82 C 125.58 180.73 124.69 181.48 124.61 182.50 Z M 124.53 183.50 L 124.44 184.50 C 124.36 185.52 125.11 186.40 126.12 186.49 C 127.13 186.57 128.02 185.82 128.11 184.81 L 128.19 183.80 C 128.27 182.79 127.52 181.90 126.51 181.82 C 125.50 181.74 124.61 182.49 124.53 183.50 Z M 124.44 184.51 L 124.36 185.51 C 124.28 186.52 125.04 187.41 126.05 187.49 C 127.06 187.57 127.94 186.82 128.02 185.81 L 128.10 184.80 C 128.19 183.79 127.43 182.91 126.42 182.82 C 125.41 182.74 124.52 183.50 124.44 184.51 Z M 124.36 185.52 L 124.29 186.53 C 124.21 187.54 124.96 188.42 125.97 188.50 C 126.98 188.58 127.87 187.82 127.94 186.81 L 128.02 185.80 C 128.10 184.79 127.35 183.91 126.34 183.83 C 125.33 183.75 124.44 184.51 124.36 185.52 Z M 124.29 186.53 L 124.21 187.54 C 124.14 188.55 124.89 189.43 125.90 189.50 C 126.91 189.58 127.79 188.82 127.87 187.81 L 127.94 186.81 C 128.02 185.80 127.26 184.92 126.25 184.84 C 125.24 184.76 124.36 185.52 124.29 186.53 Z M 124.21 187.54 L 124.14 188.54 C 124.07 189.54 124.83 190.42 125.83 190.49 C 126.84 190.57 127.72 189.81 127.79 188.80 L 127.87 187.81 C 127.94 186.80 127.18 185.92 126.17 185.85 C 125.16 185.77 124.29 186.53 124.21 187.54 Z M 124.14 188.54 L 124.07 189.54 C 124.00 190.54 124.76 191.42 125.77 191.49 C 126.78 191.56 127.65 190.80 127.72 189.79 L 127.79 188.80 C 127.86 187.79 127.10 186.91 126.10 186.84 C 125.09 186.77 124.21 187.53 124.14 188.54 Z M 124.07 189.54 L 124.01 190.54 C 123.94 191.54 124.70 192.42 125.70 192.49 C 126.71 192.56 127.58 191.80 127.65 190.79 L 127.72 189.79 C 127.79 188.78 127.03 187.91 126.02 187.84 C 125.02 187.77 124.14 188.53 124.07 189.54 Z M 124.01 190.54 L 123.94 191.54 C 123.87 192.55 124.63 193.42 125.64 193.48 C 126.64 193.55 127.51 192.79 127.58 191.79 L 127.65 190.79 C 127.72 189.78 126.96 188.91 125.95 188.84 C 124.95 188.77 124.08 189.53 124.01 190.54 Z M 123.94 191.54 L 123.88 192.54 C 123.81 193.55 124.57 194.41 125.57 194.48 C 126.58 194.55 127.45 193.79 127.51 192.78 L 127.58 191.78 C 127.65 190.78 126.89 189.91 125.88 189.84 C 124.88 189.78 124.01 190.54 123.94 191.54 Z M 123.88 192.54 L 123.81 193.54 C 123.74 194.54 124.50 195.41 125.51 195.48 C 126.51 195.55 127.38 194.79 127.44 193.78 L 127.51 192.78 C 127.58 191.78 126.82 190.91 125.82 190.85 C 124.81 190.78 123.94 191.54 123.88 192.54 Z M 123.81 193.54 L 123.75 194.54 C 123.68 195.54 124.44 196.41 125.44 196.48 C 126.44 196.54 127.31 195.79 127.38 194.78 L 127.44 193.78 C 127.51 192.78 126.75 191.91 125.75 191.85 C 124.75 191.78 123.88 192.54 123.81 193.54 Z M 123.75 194.54 L 123.68 195.54 C 123.61 196.54 124.37 197.41 125.37 197.47 C 126.37 197.54 127.24 196.79 127.31 195.78 L 127.37 194.79 C 127.44 193.78 126.68 192.92 125.68 192.85 C 124.68 192.78 123.82 193.54 123.75 194.54 Z M 123.68 195.54 L 123.61 196.53 C 123.54 197.53 124.30 198.40 125.30 198.47 C 126.30 198.54 127.16 197.78 127.23 196.78 L 127.30 195.79 C 127.37 194.79 126.62 193.92 125.62 193.85 C 124.62 193.78 123.75 194.54 123.68 195.54 Z M 123.61 196.53 L 123.54 197.53 C 123.47 198.52 124.22 199.39 125.22 199.46 C 126.22 199.53 127.09 198.78 127.16 197.78 L 127.23 196.79 C 127.30 195.79 126.55 194.92 125.55 194.85 C 124.55 194.78 123.69 195.53 123.61 196.53 Z M 123.55 197.52 L 123.48 198.49 C 123.40 199.48 124.15 200.35 125.15 200.42 C 126.15 200.50 127.01 199.75 127.09 198.75 L 127.16 197.79 C 127.23 196.79 126.48 195.92 125.49 195.85 C 124.49 195.77 123.62 196.52 123.55 197.52 Z M 123.48 198.48 L 123.42 199.30 C 123.34 200.29 124.09 201.16 125.08 201.24 C 126.08 201.31 126.95 200.57 127.02 199.57 L 127.09 198.76 C 127.16 197.76 126.41 196.89 125.42 196.81 C 124.42 196.74 123.55 197.49 123.48 198.48 Z M 123.42 199.29 L 123.35 200.11 C 123.28 201.11 124.02 201.98 125.01 202.06 C 126.01 202.13 126.88 201.39 126.96 200.39 L 127.02 199.57 C 127.10 198.58 126.35 197.71 125.36 197.63 C 124.36 197.55 123.50 198.30 123.42 199.29 Z M 123.36 200.11 L 123.29 200.94 C 123.21 201.94 123.95 202.81 124.95 202.89 C 125.94 202.97 126.81 202.22 126.89 201.23 L 126.95 200.40 C 127.03 199.40 126.29 198.53 125.30 198.45 C 124.30 198.38 123.43 199.12 123.36 200.11 Z M 123.29 200.94 L 123.22 201.79 C 123.14 202.79 123.88 203.66 124.88 203.74 C 125.87 203.81 126.74 203.07 126.82 202.08 L 126.89 201.23 C 126.97 200.24 126.23 199.37 125.23 199.29 C 124.24 199.21 123.37 199.95 123.29 200.94 Z M 123.23 201.79 L 123.15 202.67 C 123.07 203.66 123.81 204.53 124.81 204.61 C 125.80 204.69 126.67 203.95 126.75 202.96 L 126.82 202.08 C 126.90 201.09 126.16 200.22 125.17 200.14 C 124.17 200.06 123.31 200.80 123.23 201.79 Z M 123.16 202.67 L 123.08 203.57 C 123.00 204.56 123.74 205.43 124.73 205.51 C 125.72 205.59 126.59 204.85 126.67 203.86 L 126.74 202.96 C 126.82 201.97 126.09 201.10 125.10 201.02 C 124.10 200.94 123.24 201.68 123.16 202.67 Z M 123.09 203.58 L 123.01 204.52 C 122.93 205.51 123.67 206.37 124.66 206.45 C 125.65 206.53 126.51 205.80 126.59 204.81 L 126.67 203.86 C 126.75 202.87 126.01 202.01 125.02 201.93 C 124.03 201.85 123.16 202.59 123.09 203.58 Z M 123.01 204.52 L 122.93 205.51 C 122.85 206.49 123.59 207.36 124.58 207.44 C 125.57 207.52 126.44 206.78 126.51 205.79 L 126.59 204.80 C 126.67 203.82 125.93 202.95 124.94 202.87 C 123.96 202.79 123.09 203.53 123.01 204.52 Z M 122.94 205.51 L 122.85 206.54 C 122.78 207.53 123.51 208.40 124.50 208.47 C 125.49 208.55 126.35 207.81 126.43 206.82 L 126.51 205.79 C 126.59 204.80 125.85 203.94 124.86 203.86 C 123.88 203.78 123.01 204.52 122.94 205.51 Z M 122.86 206.55 L 122.77 207.64 C 122.70 208.63 123.43 209.49 124.42 209.56 C 125.41 209.64 126.27 208.90 126.34 207.91 L 126.43 206.82 C 126.51 205.84 125.77 204.97 124.78 204.90 C 123.79 204.82 122.93 205.56 122.86 206.55 Z M 122.77 207.64 L 122.69 208.80 C 122.61 209.78 123.35 210.64 124.34 210.72 C 125.32 210.79 126.18 210.05 126.26 209.07 L 126.34 207.91 C 126.42 206.93 125.68 206.07 124.69 205.99 C 123.71 205.92 122.85 206.66 122.77 207.64 Z M 122.69 208.80 L 122.60 210.02 C 122.52 211.01 123.26 211.86 124.25 211.94 C 125.23 212.01 126.09 211.27 126.16 210.29 L 126.25 209.06 C 126.33 208.08 125.59 207.22 124.60 207.15 C 123.62 207.07 122.76 207.81 122.69 208.80 Z M 122.60 210.03 L 122.50 211.32 C 122.43 212.31 123.17 213.16 124.16 213.23 C 125.14 213.31 126.00 212.57 126.07 211.58 L 126.16 210.28 C 126.23 209.30 125.49 208.44 124.51 208.37 C 123.53 208.30 122.67 209.04 122.60 210.03 Z M 122.51 211.33 L 122.43 212.42 C 122.36 213.40 123.10 214.26 124.08 214.33 C 125.07 214.40 125.92 213.66 125.99 212.67 L 126.07 211.58 C 126.14 210.60 125.40 209.74 124.41 209.67 C 123.43 209.60 122.58 210.34 122.51 211.33 Z M 122.43 212.42 L 122.37 213.34 C 122.30 214.32 123.04 215.17 124.02 215.24 C 125.00 215.31 125.86 214.57 125.92 213.59 L 125.99 212.67 C 126.06 211.69 125.32 210.84 124.33 210.77 C 123.35 210.70 122.50 211.44 122.43 212.42 Z M 122.37 213.34 L 122.30 214.29 C 122.24 215.27 122.98 216.12 123.96 216.19 C 124.94 216.25 125.79 215.51 125.86 214.53 L 125.92 213.58 C 125.99 212.60 125.25 211.75 124.27 211.69 C 123.29 211.62 122.43 212.36 122.37 213.34 Z M 122.30 214.29 L 122.24 215.26 C 122.17 216.24 122.91 217.09 123.89 217.16 C 124.87 217.22 125.72 216.48 125.79 215.50 L 125.86 214.53 C 125.92 213.55 125.18 212.70 124.20 212.63 C 123.22 212.57 122.37 213.31 122.30 214.29 Z M 122.24 215.26 L 122.17 216.25 C 122.11 217.24 122.85 218.08 123.83 218.15 C 124.81 218.21 125.66 217.47 125.72 216.49 L 125.79 215.50 C 125.85 214.52 125.11 213.67 124.13 213.60 C 123.15 213.54 122.30 214.28 122.24 215.26 Z M 122.17 216.26 L 122.11 217.27 C 122.04 218.25 122.79 219.10 123.76 219.16 C 124.74 219.22 125.59 218.48 125.65 217.50 L 125.72 216.49 C 125.79 215.51 125.04 214.66 124.06 214.60 C 123.09 214.54 122.24 215.28 122.17 216.26 Z M 122.11 217.27 L 122.04 218.30 C 121.98 219.28 122.72 220.12 123.70 220.19 C 124.68 220.25 125.52 219.51 125.59 218.53 L 125.65 217.50 C 125.72 216.52 124.97 215.68 124.00 215.61 C 123.02 215.55 122.17 216.29 122.11 217.27 Z M 122.04 218.30 L 121.98 219.35 C 121.91 220.32 122.66 221.17 123.63 221.23 C 124.61 221.29 125.46 220.55 125.52 219.57 L 125.58 218.53 C 125.65 217.55 124.91 216.71 123.93 216.65 C 122.95 216.58 122.11 217.33 122.04 218.30 Z M 121.98 219.35 L 121.91 220.40 C 121.85 221.38 122.59 222.22 123.57 222.28 C 124.55 222.34 125.39 221.60 125.45 220.62 L 125.52 219.57 C 125.58 218.59 124.84 217.75 123.86 217.69 C 122.88 217.63 122.04 218.37 121.98 219.35 Z M 121.91 220.40 L 121.85 221.46 C 121.79 222.43 122.53 223.27 123.51 223.34 C 124.48 223.40 125.32 222.65 125.38 221.68 L 125.45 220.62 C 125.51 219.64 124.77 218.80 123.79 218.74 C 122.81 218.68 121.97 219.42 121.91 220.40 Z M 121.85 221.46 L 121.78 222.52 C 121.72 223.50 122.47 224.33 123.44 224.39 C 124.42 224.45 125.26 223.71 125.32 222.74 L 125.38 221.68 C 125.44 220.70 124.70 219.86 123.72 219.80 C 122.75 219.74 121.91 220.48 121.85 221.46 Z M 121.79 222.52 L 121.72 223.58 C 121.66 224.56 122.41 225.39 123.38 225.45 C 124.36 225.51 125.19 224.77 125.25 223.79 L 125.32 222.73 C 125.37 221.76 124.63 220.92 123.66 220.86 C 122.68 220.80 121.84 221.55 121.79 222.52 Z M 121.72 223.58 L 121.66 224.64 C 121.60 225.61 122.35 226.45 123.32 226.51 C 124.29 226.56 125.13 225.82 125.19 224.85 L 125.25 223.79 C 125.31 222.82 124.57 221.98 123.59 221.92 C 122.62 221.87 121.78 222.61 121.72 223.58 Z M 121.66 224.64 L 121.60 225.69 C 121.54 226.66 122.29 227.50 123.26 227.55 C 124.23 227.61 125.07 226.87 125.13 225.89 L 125.19 224.85 C 125.24 223.87 124.50 223.04 123.53 222.98 C 122.55 222.92 121.72 223.67 121.66 224.64 Z M 121.60 225.69 L 121.54 226.73 C 121.49 227.70 122.23 228.54 123.20 228.59 C 124.18 228.65 125.01 227.90 125.07 226.93 L 125.12 225.89 C 125.18 224.92 124.44 224.09 123.46 224.03 C 122.49 223.98 121.66 224.72 121.60 225.69 Z M 121.54 226.73 L 121.49 227.76 C 121.43 228.73 122.18 229.56 123.15 229.61 C 124.12 229.67 124.95 228.92 125.01 227.95 L 125.06 226.93 C 125.12 225.96 124.37 225.12 123.40 225.07 C 122.43 225.02 121.60 225.76 121.54 226.73 Z M 121.49 227.76 L 121.43 228.77 C 121.38 229.74 122.13 230.57 123.10 230.62 C 124.07 230.67 124.90 229.93 124.95 228.96 L 125.01 227.95 C 125.06 226.98 124.31 226.15 123.34 226.10 C 122.37 226.04 121.54 226.79 121.49 227.76 Z M 121.44 228.77 L 121.38 229.75 C 121.33 230.72 122.08 231.55 123.05 231.60 C 124.02 231.66 124.85 230.91 124.90 229.94 L 124.95 228.95 C 125.00 227.98 124.26 227.16 123.29 227.10 C 122.32 227.05 121.49 227.80 121.44 228.77 Z M 121.39 229.76 L 121.34 230.72 C 121.29 231.69 122.03 232.52 123.00 232.56 C 123.97 232.61 124.80 231.87 124.85 230.90 L 124.90 229.94 C 124.95 228.97 124.20 228.14 123.23 228.09 C 122.26 228.04 121.43 228.79 121.39 229.76 Z M 121.34 230.72 L 121.29 231.66 C 121.24 232.63 121.99 233.45 122.96 233.50 C 123.93 233.55 124.75 232.80 124.80 231.83 L 124.85 230.90 C 124.89 229.93 124.15 229.10 123.18 229.06 C 122.21 229.01 121.39 229.75 121.34 230.72 Z M 121.29 231.66 L 121.25 232.57 C 121.20 233.53 121.95 234.36 122.92 234.40 C 123.89 234.45 124.71 233.70 124.75 232.73 L 124.80 231.83 C 124.84 230.86 124.10 230.04 123.13 229.99 C 122.16 229.95 121.34 230.69 121.29 231.66 Z M 121.25 232.57 L 121.20 233.65 C 121.16 234.62 121.91 235.44 122.87 235.48 C 123.84 235.52 124.66 234.78 124.70 233.81 L 124.75 232.73 C 124.80 231.76 124.05 230.94 123.08 230.90 C 122.11 230.85 121.30 231.60 121.25 232.57 Z M 121.21 233.66 L 121.15 235.04 C 121.11 236.00 121.86 236.82 122.82 236.86 C 123.79 236.90 124.60 236.15 124.64 235.18 L 124.70 233.80 C 124.74 232.84 123.99 232.02 123.03 231.98 C 122.06 231.94 121.25 232.69 121.21 233.66 Z M 121.16 235.05 L 121.11 236.33 C 121.07 237.29 121.82 238.10 122.78 238.13 C 123.74 238.17 124.55 237.42 124.59 236.46 L 124.63 235.18 C 124.67 234.22 123.92 233.41 122.96 233.37 C 122.00 233.34 121.19 234.09 121.16 235.05 Z M 121.12 236.34 L 121.08 237.54 C 121.05 238.50 121.80 239.30 122.75 239.33 C 123.71 239.36 124.51 238.61 124.54 237.65 L 124.58 236.45 C 124.61 235.50 123.86 234.70 122.90 234.67 C 121.95 234.64 121.15 235.38 121.12 236.34 Z M 121.09 237.55 L 121.05 238.67 C 121.03 239.62 121.78 240.41 122.73 240.44 C 123.68 240.47 124.47 239.72 124.50 238.76 L 124.53 237.65 C 124.56 236.69 123.81 235.90 122.86 235.87 C 121.91 235.85 121.11 236.60 121.09 237.55 Z M 121.06 238.67 L 121.04 239.72 C 121.01 240.67 121.76 241.45 122.71 241.48 C 123.66 241.50 124.44 240.75 124.47 239.80 L 124.49 238.76 C 124.51 237.81 123.76 237.02 122.82 237.00 C 121.87 236.98 121.08 237.73 121.06 238.67 Z M 121.04 239.73 L 121.03 240.71 C 121.01 241.65 121.76 242.43 122.70 242.45 C 123.64 242.47 124.42 241.72 124.44 240.77 L 124.46 239.79 C 124.48 238.85 123.73 238.07 122.78 238.05 C 121.84 238.04 121.06 238.79 121.04 239.73 Z M 121.03 240.72 L 121.02 241.64 C 121.01 242.57 121.76 243.35 122.69 243.36 C 123.63 243.37 124.41 242.62 124.42 241.69 L 124.43 240.77 C 124.45 239.83 123.70 239.05 122.76 239.04 C 121.82 239.03 121.05 239.78 121.03 240.72 Z M 121.03 241.64 L 121.02 242.51 C 121.01 243.45 121.76 244.21 122.69 244.22 C 123.63 244.23 124.39 243.48 124.40 242.55 L 124.41 241.68 C 124.42 240.74 123.67 239.98 122.74 239.97 C 121.80 239.96 121.04 240.71 121.03 241.64 Z M 121.03 242.52 L 121.02 243.34 C 121.01 244.27 121.76 245.03 122.69 245.03 C 123.62 245.04 124.38 244.29 124.39 243.36 L 124.40 242.54 C 124.40 241.61 123.65 240.85 122.72 240.84 C 121.79 240.84 121.03 241.59 121.03 242.52 Z M 121.03 243.34 L 121.03 244.13 C 121.02 245.05 121.77 245.81 122.70 245.81 C 123.62 245.81 124.38 245.07 124.38 244.14 L 124.38 243.36 C 124.39 242.43 123.64 241.68 122.71 241.67 C 121.79 241.67 121.03 242.42 121.03 243.34 Z M 121.03 244.13 L 121.03 244.88 C 121.03 245.80 121.78 246.55 122.70 246.55 C 123.62 246.56 124.37 245.81 124.37 244.89 L 124.37 244.14 C 124.37 243.21 123.63 242.47 122.70 242.46 C 121.78 242.46 121.03 243.21 121.03 244.13 Z M 121.04 244.88 L 121.04 245.61 C 121.04 246.53 121.78 247.27 122.70 247.27 C 123.62 247.27 124.36 246.53 124.36 245.61 L 124.36 244.89 C 124.36 243.97 123.62 243.22 122.70 243.22 C 121.78 243.22 121.04 243.97 121.04 244.88 Z M 121.05 245.61 L 121.05 246.64 C 121.05 247.56 121.79 248.30 122.70 248.30 C 123.61 248.30 124.35 247.56 124.35 246.64 L 124.35 245.61 C 124.35 244.70 123.61 243.96 122.70 243.96 C 121.79 243.96 121.05 244.70 121.05 245.61 Z M 121.05 246.64 L 121.05 247.70 C 121.05 248.61 121.79 249.35 122.70 249.35 C 123.61 249.35 124.35 248.61 124.35 247.70 L 124.35 246.64 C 124.35 245.73 123.61 245.00 122.70 245.00 C 121.79 245.00 121.05 245.73 121.05 246.64 Z M 121.06 247.70 L 121.06 248.73 C 121.06 249.64 121.80 250.37 122.70 250.37 C 123.61 250.37 124.34 249.64 124.34 248.73 L 124.34 247.70 C 124.34 246.80 123.61 246.06 122.70 246.06 C 121.80 246.06 121.06 246.80 121.06 247.70 Z M 121.07 248.73 L 121.07 249.73 C 121.07 250.63 121.80 251.36 122.70 251.36 C 123.60 251.36 124.33 250.63 124.33 249.73 L 124.33 248.73 C 124.33 247.83 123.60 247.10 122.70 247.10 C 121.80 247.10 121.07 247.83 121.07 248.73 Z M 121.08 249.73 L 121.08 250.71 C 121.08 251.61 121.80 252.34 122.70 252.34 C 123.60 252.34 124.32 251.61 124.32 250.71 L 124.32 249.73 C 124.32 248.84 123.60 248.11 122.70 248.11 C 121.80 248.11 121.08 248.84 121.08 249.73 Z M 121.08 250.71 L 121.08 251.68 C 121.08 252.57 121.81 253.29 122.70 253.29 C 123.59 253.29 124.32 252.57 124.32 251.68 L 124.32 250.71 C 124.32 249.82 123.59 249.10 122.70 249.10 C 121.81 249.10 121.08 249.82 121.08 250.71 Z M 121.09 251.68 L 121.09 252.63 C 121.09 253.52 121.81 254.24 122.70 254.24 C 123.59 254.24 124.31 253.52 124.31 252.63 L 124.31 251.68 C 124.31 250.79 123.59 250.07 122.70 250.07 C 121.81 250.07 121.09 250.79 121.09 251.68 Z M 121.10 252.63 L 121.10 253.58 C 121.10 254.46 121.82 255.18 122.70 255.18 C 123.59 255.18 124.30 254.46 124.30 253.58 L 124.30 252.63 C 124.30 251.75 123.59 251.03 122.70 251.03 C 121.82 251.03 121.10 251.75 121.10 252.63 Z M 121.10 253.58 L 121.10 253.77 C 121.10 254.66 121.82 255.37 122.70 255.37 C 123.58 255.37 124.30 254.66 124.30 253.77 L 124.30 253.58 C 124.30 252.69 123.58 251.98 122.70 251.98 C 121.82 251.98 121.10 252.69 121.10 253.58 Z"
      fill="black"
      fill-rule="nonzero" /><path d="M 136.78 129.10 L 136.40 128.04 C 136.04 127.03 134.93 126.50 133.91 126.86 C 132.90 127.21 132.37 128.33 132.73 129.34 L 133.10 130.40 C 133.46 131.41 134.57 131.95 135.59 131.59 C 136.60 131.23 137.13 130.12 136.78 129.10 Z M 136.42 128.06 L 136.05 127.01 C 135.70 125.98 134.59 125.44 133.57 125.79 C 132.54 126.15 132.00 127.26 132.35 128.28 L 132.71 129.33 C 133.07 130.35 134.18 130.90 135.20 130.55 C 136.22 130.19 136.77 129.08 136.42 128.06 Z M 136.07 127.04 L 135.73 126.00 C 135.40 124.97 134.29 124.40 133.26 124.74 C 132.22 125.07 131.66 126.18 132.00 127.21 L 132.33 128.25 C 132.67 129.28 133.78 129.85 134.81 129.51 C 135.84 129.18 136.41 128.07 136.07 127.04 Z M 135.76 126.04 L 135.45 125.02 C 135.14 123.98 134.04 123.38 133.00 123.69 C 131.95 124.00 131.36 125.10 131.67 126.15 L 131.97 127.17 C 132.28 128.21 133.38 128.81 134.43 128.50 C 135.47 128.19 136.07 127.09 135.76 126.04 Z M 135.48 125.09 L 135.22 124.09 C 134.95 123.03 133.87 122.40 132.81 122.67 C 131.75 122.94 131.11 124.02 131.39 125.08 L 131.64 126.08 C 131.92 127.14 133.00 127.78 134.06 127.50 C 135.11 127.23 135.75 126.15 135.48 125.09 Z M 135.25 124.19 L 135.05 123.22 C 134.83 122.14 133.78 121.45 132.70 121.67 C 131.63 121.89 130.94 122.94 131.16 124.02 L 131.36 124.99 C 131.58 126.06 132.63 126.76 133.70 126.53 C 134.78 126.31 135.47 125.26 135.25 124.19 Z M 135.08 123.34 L 134.95 122.41 C 134.80 121.32 133.79 120.56 132.70 120.71 C 131.61 120.86 130.85 121.87 131.00 122.96 L 131.13 123.89 C 131.28 124.98 132.29 125.75 133.38 125.59 C 134.47 125.44 135.23 124.44 135.08 123.34 Z M 134.98 122.58 L 134.93 121.68 C 134.87 120.58 133.92 119.73 132.82 119.79 C 131.71 119.85 130.87 120.79 130.93 121.90 L 130.97 122.79 C 131.03 123.90 131.98 124.74 133.08 124.68 C 134.19 124.62 135.04 123.68 134.98 122.58 Z M 134.93 121.89 L 134.98 121.05 C 135.04 119.94 134.18 118.99 133.08 118.93 C 131.97 118.88 131.02 119.73 130.96 120.84 L 130.92 121.69 C 130.86 122.79 131.71 123.74 132.82 123.80 C 133.93 123.86 134.88 123.00 134.93 121.89 Z M 134.95 121.32 L 135.11 120.49 C 135.32 119.39 134.60 118.34 133.51 118.13 C 132.41 117.92 131.36 118.64 131.15 119.73 L 130.99 120.57 C 130.78 121.66 131.50 122.72 132.59 122.93 C 133.69 123.13 134.74 122.42 134.95 121.32 Z M 135.03 120.81 L 135.34 119.95 C 135.73 118.90 135.20 117.74 134.15 117.35 C 133.10 116.97 131.94 117.50 131.55 118.55 L 131.23 119.41 C 130.85 120.45 131.38 121.62 132.43 122.00 C 133.48 122.39 134.64 121.86 135.03 120.81 Z M 135.20 120.25 L 135.66 119.46 C 136.21 118.49 135.88 117.26 134.91 116.70 C 133.94 116.15 132.70 116.48 132.15 117.45 L 131.69 118.24 C 131.14 119.21 131.47 120.45 132.44 121.00 C 133.41 121.56 134.65 121.22 135.20 120.25 Z M 135.49 119.71 L 136.07 118.98 C 136.76 118.10 136.61 116.82 135.73 116.13 C 134.85 115.44 133.58 115.59 132.89 116.47 L 132.31 117.21 C 131.62 118.08 131.77 119.36 132.65 120.05 C 133.53 120.74 134.80 120.59 135.49 119.71 Z M 135.91 119.16 L 136.59 118.48 C 137.38 117.69 137.39 116.41 136.60 115.62 C 135.81 114.82 134.53 114.82 133.73 115.61 L 133.05 116.29 C 132.26 117.08 132.25 118.36 133.04 119.15 C 133.83 119.94 135.11 119.95 135.91 119.16 Z M 136.44 118.61 L 137.22 117.98 C 138.09 117.27 138.22 115.99 137.51 115.13 C 136.80 114.26 135.53 114.13 134.66 114.84 L 133.88 115.47 C 133.01 116.18 132.89 117.46 133.59 118.33 C 134.30 119.19 135.58 119.32 136.44 118.61 Z M 137.10 118.07 L 137.96 117.47 C 138.88 116.83 139.10 115.57 138.46 114.65 C 137.82 113.73 136.56 113.51 135.64 114.15 L 134.78 114.74 C 133.86 115.38 133.64 116.65 134.28 117.57 C 134.92 118.49 136.18 118.71 137.10 118.07 Z M 137.86 117.54 L 138.79 116.97 C 139.74 116.38 140.04 115.13 139.45 114.18 C 138.87 113.22 137.62 112.92 136.66 113.51 L 135.74 114.08 C 134.78 114.67 134.49 115.92 135.07 116.87 C 135.66 117.83 136.91 118.12 137.86 117.54 Z M 138.72 117.01 L 139.69 116.47 C 140.67 115.92 141.02 114.68 140.47 113.70 C 139.92 112.72 138.69 112.38 137.71 112.92 L 136.73 113.47 C 135.76 114.02 135.41 115.25 135.95 116.23 C 136.50 117.21 137.74 117.56 138.72 117.01 Z M 139.64 116.49 L 140.52 116.03 C 141.51 115.51 141.89 114.28 141.37 113.29 C 140.85 112.30 139.62 111.92 138.63 112.44 L 137.76 112.90 C 136.77 113.42 136.38 114.65 136.90 115.64 C 137.43 116.63 138.65 117.01 139.64 116.49 Z M 140.48 116.05 L 141.38 115.60 C 142.38 115.10 142.79 113.88 142.29 112.88 C 141.79 111.88 140.57 111.47 139.57 111.97 L 138.67 112.42 C 137.67 112.92 137.26 114.14 137.76 115.14 C 138.26 116.14 139.48 116.55 140.48 116.05 Z M 141.34 115.61 L 142.26 115.18 C 143.27 114.70 143.70 113.49 143.21 112.48 C 142.73 111.47 141.53 111.04 140.52 111.52 L 139.60 111.96 C 138.59 112.44 138.17 113.65 138.65 114.66 C 139.13 115.67 140.34 116.09 141.34 115.61 Z M 142.23 115.19 L 143.16 114.76 C 144.17 114.30 144.62 113.10 144.15 112.08 C 143.69 111.07 142.49 110.62 141.47 111.09 L 140.55 111.51 C 139.53 111.98 139.09 113.18 139.55 114.19 C 140.02 115.21 141.22 115.65 142.23 115.19 Z M 143.13 114.77 L 144.06 114.36 C 145.08 113.91 145.54 112.72 145.09 111.70 C 144.64 110.68 143.45 110.22 142.43 110.67 L 141.50 111.08 C 140.48 111.53 140.02 112.72 140.47 113.74 C 140.92 114.76 142.11 115.22 143.13 114.77 Z M 144.04 114.36 L 144.97 113.97 C 146.00 113.53 146.47 112.34 146.03 111.32 C 145.60 110.30 144.41 109.82 143.39 110.26 L 142.45 110.66 C 141.43 111.10 140.96 112.28 141.40 113.31 C 141.83 114.33 143.02 114.80 144.04 114.36 Z M 144.95 113.97 L 145.88 113.58 C 146.91 113.16 147.39 111.98 146.97 110.95 C 146.54 109.93 145.36 109.44 144.34 109.87 L 143.41 110.26 C 142.38 110.68 141.90 111.86 142.32 112.89 C 142.75 113.91 143.93 114.40 144.95 113.97 Z M 145.87 113.59 L 146.78 113.21 C 147.81 112.80 148.31 111.62 147.89 110.60 C 147.47 109.57 146.30 109.07 145.27 109.49 L 144.35 109.87 C 143.33 110.28 142.83 111.46 143.25 112.48 C 143.67 113.51 144.84 114.01 145.87 113.59 Z M 146.77 113.22 L 147.67 112.86 C 148.70 112.45 149.20 111.28 148.79 110.25 C 148.38 109.22 147.22 108.72 146.19 109.13 L 145.28 109.49 C 144.26 109.90 143.75 111.07 144.16 112.10 C 144.58 113.12 145.74 113.63 146.77 113.22 Z M 147.66 112.86 L 148.60 112.49 C 149.63 112.08 150.14 110.92 149.73 109.89 C 149.33 108.86 148.17 108.36 147.14 108.76 L 146.20 109.13 C 145.17 109.53 144.66 110.70 145.07 111.72 C 145.47 112.75 146.63 113.26 147.66 112.86 Z M 148.59 112.48 L 149.58 112.10 C 150.61 111.70 151.12 110.55 150.72 109.52 C 150.33 108.49 149.17 107.98 148.15 108.38 L 147.15 108.77 C 146.12 109.16 145.61 110.32 146.01 111.34 C 146.41 112.37 147.56 112.88 148.59 112.48 Z M 149.57 112.09 L 150.54 111.72 C 151.56 111.33 152.07 110.19 151.68 109.16 C 151.30 108.14 150.15 107.63 149.13 108.02 L 148.16 108.39 C 147.14 108.78 146.62 109.92 147.01 110.95 C 147.40 111.97 148.55 112.48 149.57 112.09 Z M 150.53 111.72 L 151.47 111.36 C 152.49 110.98 153.01 109.84 152.62 108.82 C 152.24 107.80 151.10 107.29 150.09 107.67 L 149.14 108.03 C 148.12 108.41 147.60 109.54 147.99 110.56 C 148.37 111.58 149.51 112.10 150.53 111.72 Z M 151.46 111.35 L 152.39 111.01 C 153.40 110.63 153.92 109.51 153.54 108.49 C 153.17 107.48 152.04 106.96 151.02 107.33 L 150.10 107.68 C 149.08 108.05 148.56 109.18 148.94 110.20 C 149.32 111.21 150.44 111.73 151.46 111.35 Z M 152.38 111.00 L 153.29 110.67 C 154.30 110.30 154.82 109.18 154.45 108.17 C 154.08 107.16 152.96 106.64 151.95 107.01 L 151.04 107.34 C 150.02 107.71 149.50 108.83 149.87 109.84 C 150.24 110.85 151.36 111.37 152.38 111.00 Z M 153.28 110.66 L 154.18 110.33 C 155.19 109.97 155.71 108.86 155.35 107.85 C 154.98 106.84 153.87 106.32 152.86 106.69 L 151.96 107.01 C 150.95 107.38 150.43 108.49 150.80 109.50 C 151.16 110.50 152.27 111.02 153.28 110.66 Z M 154.18 110.32 L 155.08 110.00 C 156.08 109.64 156.60 108.54 156.24 107.53 C 155.88 106.53 154.78 106.01 153.78 106.37 L 152.87 106.69 C 151.87 107.05 151.35 108.16 151.71 109.16 C 152.07 110.16 153.17 110.68 154.18 110.32 Z M 155.07 109.99 L 155.95 109.68 C 156.95 109.32 157.47 108.23 157.11 107.23 C 156.76 106.23 155.66 105.71 154.66 106.07 L 153.78 106.38 C 152.79 106.74 152.27 107.83 152.62 108.83 C 152.98 109.83 154.07 110.35 155.07 109.99 Z M 155.94 109.67 L 156.72 109.39 C 157.72 109.04 158.24 107.95 157.88 106.96 C 157.53 105.97 156.44 105.45 155.45 105.80 L 154.67 106.07 C 153.68 106.43 153.16 107.52 153.51 108.51 C 153.86 109.50 154.95 110.02 155.94 109.67 Z M 156.72 109.39 L 157.51 109.11 C 158.50 108.75 159.02 107.67 158.67 106.68 C 158.32 105.69 157.24 105.17 156.25 105.52 L 155.45 105.81 C 154.46 106.16 153.95 107.24 154.30 108.23 C 154.65 109.22 155.73 109.74 156.72 109.39 Z M 157.51 109.10 L 158.33 108.81 C 159.32 108.46 159.83 107.38 159.48 106.39 C 159.13 105.41 158.05 104.89 157.07 105.24 L 156.25 105.53 C 155.26 105.88 154.75 106.96 155.10 107.95 C 155.45 108.93 156.53 109.45 157.51 109.10 Z M 158.33 108.80 L 159.18 108.50 C 160.16 108.15 160.68 107.07 160.33 106.09 C 159.98 105.11 158.90 104.60 157.92 104.95 L 157.07 105.25 C 156.09 105.60 155.58 106.67 155.93 107.65 C 156.27 108.63 157.35 109.15 158.33 108.80 Z M 159.18 108.49 L 160.08 108.17 C 161.06 107.82 161.57 106.75 161.22 105.77 C 160.87 104.80 159.80 104.29 158.82 104.63 L 157.92 104.96 C 156.95 105.30 156.44 106.38 156.79 107.35 C 157.14 108.33 158.21 108.83 159.18 108.49 Z M 160.08 108.16 L 161.03 107.82 C 162.00 107.47 162.51 106.40 162.16 105.43 C 161.81 104.46 160.74 103.95 159.77 104.30 L 158.82 104.64 C 157.85 104.99 157.35 106.06 157.70 107.03 C 158.04 108.00 159.11 108.51 160.08 108.16 Z M 161.04 107.81 L 162.05 107.44 C 163.02 107.09 163.51 106.02 163.17 105.06 C 162.82 104.09 161.75 103.60 160.79 103.94 L 159.77 104.31 C 158.81 104.66 158.31 105.73 158.66 106.69 C 159.00 107.66 160.07 108.15 161.04 107.81 Z M 162.05 107.43 L 163.14 107.03 C 164.10 106.68 164.59 105.62 164.24 104.66 C 163.90 103.70 162.83 103.21 161.87 103.56 L 160.79 103.95 C 159.83 104.30 159.33 105.36 159.68 106.32 C 160.03 107.28 161.09 107.78 162.05 107.43 Z M 163.14 107.02 L 164.31 106.59 C 165.27 106.24 165.76 105.18 165.41 104.23 C 165.06 103.28 164.00 102.79 163.04 103.14 L 161.87 103.57 C 160.92 103.92 160.43 104.98 160.78 105.93 C 161.13 106.88 162.19 107.37 163.14 107.02 Z M 164.31 106.59 L 165.32 106.21 C 166.27 105.86 166.75 104.81 166.40 103.86 C 166.05 102.91 165.00 102.42 164.05 102.77 L 163.04 103.14 C 162.09 103.50 161.61 104.55 161.96 105.50 C 162.31 106.45 163.36 106.94 164.31 106.59 Z M 165.32 106.21 L 166.18 105.89 C 167.13 105.54 167.61 104.48 167.26 103.54 C 166.90 102.59 165.85 102.11 164.90 102.46 L 164.05 102.78 C 163.10 103.13 162.62 104.18 162.97 105.13 C 163.32 106.08 164.37 106.56 165.32 106.21 Z M 166.18 105.88 L 167.07 105.55 C 168.02 105.20 168.49 104.15 168.14 103.20 C 167.79 102.26 166.74 101.78 165.80 102.13 L 164.90 102.47 C 163.96 102.82 163.48 103.87 163.83 104.81 C 164.19 105.75 165.24 106.23 166.18 105.88 Z M 167.07 105.54 L 167.99 105.20 C 168.93 104.85 169.41 103.80 169.06 102.86 C 168.70 101.92 167.66 101.44 166.72 101.79 L 165.80 102.14 C 164.86 102.49 164.38 103.54 164.73 104.48 C 165.09 105.42 166.13 105.89 167.07 105.54 Z M 167.99 105.19 L 168.94 104.84 C 169.87 104.48 170.35 103.44 169.99 102.50 C 169.64 101.57 168.60 101.09 167.66 101.45 L 166.72 101.80 C 165.78 102.15 165.31 103.20 165.66 104.13 C 166.01 105.07 167.06 105.54 167.99 105.19 Z M 168.94 104.83 L 169.90 104.47 C 170.83 104.12 171.30 103.07 170.95 102.14 C 170.60 101.21 169.55 100.74 168.62 101.09 L 167.66 101.45 C 166.73 101.80 166.26 102.85 166.61 103.78 C 166.96 104.71 168.00 105.18 168.94 104.83 Z M 169.90 104.46 L 170.87 104.09 C 171.80 103.74 172.27 102.70 171.92 101.77 C 171.56 100.84 170.52 100.37 169.59 100.73 L 168.62 101.09 C 167.69 101.45 167.22 102.49 167.57 103.42 C 167.93 104.35 168.97 104.82 169.90 104.46 Z M 170.87 104.09 L 171.85 103.72 C 172.78 103.36 173.24 102.33 172.89 101.40 C 172.54 100.47 171.50 100.01 170.57 100.36 L 169.59 100.73 C 168.67 101.08 168.20 102.12 168.55 103.05 C 168.91 103.97 169.94 104.44 170.87 104.09 Z M 171.85 103.71 L 172.83 103.34 C 173.76 102.99 174.22 101.95 173.87 101.03 C 173.52 100.10 172.48 99.64 171.56 99.99 L 170.58 100.37 C 169.65 100.72 169.19 101.75 169.54 102.68 C 169.89 103.60 170.93 104.06 171.85 103.71 Z M 172.83 103.33 L 173.81 102.96 C 174.73 102.61 175.19 101.57 174.84 100.65 C 174.49 99.73 173.46 99.27 172.54 99.62 L 171.56 100.00 C 170.64 100.35 170.18 101.38 170.53 102.30 C 170.88 103.22 171.91 103.68 172.83 103.33 Z M 173.81 102.95 L 174.78 102.58 C 175.70 102.23 176.16 101.20 175.81 100.28 C 175.45 99.36 174.43 98.91 173.51 99.26 L 172.54 99.63 C 171.62 99.98 171.16 101.01 171.51 101.93 C 171.86 102.84 172.89 103.30 173.81 102.95 Z M 174.78 102.57 L 175.74 102.21 C 176.65 101.85 177.11 100.83 176.76 99.91 C 176.41 99.00 175.38 98.54 174.46 98.90 L 173.51 99.26 C 172.59 99.61 172.14 100.64 172.49 101.55 C 172.84 102.47 173.87 102.93 174.78 102.57 Z M 175.74 102.20 L 176.68 101.84 C 177.59 101.49 178.04 100.46 177.69 99.55 C 177.34 98.64 176.31 98.19 175.40 98.54 L 174.47 98.90 C 173.55 99.25 173.10 100.28 173.45 101.19 C 173.80 102.10 174.83 102.55 175.74 102.20 Z M 176.68 101.83 L 177.59 101.48 C 178.50 101.13 178.95 100.11 178.60 99.20 C 178.25 98.29 177.23 97.84 176.32 98.19 L 175.40 98.54 C 174.50 98.90 174.04 99.92 174.40 100.82 C 174.75 101.73 175.77 102.18 176.68 101.83 Z M 177.59 101.47 L 178.48 101.13 C 179.38 100.78 179.83 99.76 179.48 98.85 C 179.13 97.95 178.11 97.50 177.20 97.85 L 176.32 98.20 C 175.41 98.55 174.97 99.57 175.32 100.47 C 175.67 101.38 176.69 101.82 177.59 101.47 Z M 178.48 101.12 L 179.59 100.68 C 180.49 100.33 180.94 99.32 180.59 98.42 C 180.24 97.52 179.22 97.07 178.32 97.42 L 177.20 97.86 C 176.30 98.21 175.86 99.23 176.21 100.13 C 176.56 101.03 177.58 101.47 178.48 101.12 Z M 179.59 100.67 L 180.71 100.23 C 181.60 99.88 182.04 98.87 181.69 97.98 C 181.34 97.09 180.33 96.65 179.44 97.00 L 178.32 97.44 C 177.43 97.79 176.99 98.80 177.34 99.69 C 177.69 100.58 178.70 101.02 179.59 100.67 Z M 180.71 100.22 L 181.76 99.80 C 182.64 99.45 183.08 98.45 182.73 97.57 C 182.38 96.68 181.38 96.25 180.49 96.60 L 179.44 97.01 C 178.55 97.36 178.12 98.37 178.47 99.25 C 178.82 100.14 179.82 100.57 180.71 100.22 Z M 181.76 99.79 L 182.76 99.39 C 183.64 99.04 184.06 98.05 183.71 97.17 C 183.37 96.29 182.37 95.86 181.49 96.21 L 180.49 96.61 C 179.61 96.96 179.18 97.96 179.53 98.83 C 179.88 99.71 180.88 100.14 181.76 99.79 Z M 182.76 99.38 L 183.71 99.00 C 184.58 98.65 185.00 97.66 184.65 96.79 C 184.30 95.92 183.31 95.49 182.44 95.84 L 181.49 96.22 C 180.62 96.57 180.20 97.56 180.55 98.44 C 180.89 99.31 181.88 99.73 182.76 99.38 Z M 183.71 98.99 L 184.61 98.62 C 185.47 98.27 185.89 97.29 185.54 96.43 C 185.20 95.56 184.21 95.14 183.35 95.49 L 182.44 95.86 C 181.58 96.21 181.16 97.19 181.51 98.05 C 181.86 98.92 182.84 99.34 183.71 98.99 Z M 184.61 98.61 L 185.47 98.26 C 186.33 97.91 186.74 96.93 186.40 96.07 C 186.05 95.22 185.07 94.80 184.21 95.15 L 183.35 95.50 C 182.49 95.85 182.08 96.83 182.43 97.69 C 182.78 98.54 183.75 98.96 184.61 98.61 Z M 185.47 98.24 L 186.30 97.91 C 187.15 97.56 187.56 96.59 187.21 95.74 C 186.87 94.89 185.90 94.48 185.05 94.83 L 184.22 95.17 C 183.36 95.51 182.96 96.48 183.31 97.33 C 183.65 98.18 184.62 98.59 185.47 98.24 Z M 186.30 97.89 L 187.10 97.56 C 187.94 97.22 188.35 96.25 188.00 95.41 C 187.65 94.57 186.69 94.16 185.85 94.51 L 185.05 94.84 C 184.20 95.19 183.80 96.15 184.15 96.99 C 184.49 97.84 185.46 98.24 186.30 97.89 Z M 187.10 97.55 L 187.87 97.23 C 188.71 96.88 189.11 95.93 188.76 95.09 C 188.41 94.25 187.46 93.86 186.62 94.20 L 185.85 94.52 C 185.01 94.87 184.61 95.83 184.96 96.66 C 185.31 97.50 186.26 97.90 187.10 97.55 Z M 187.87 97.22 L 188.67 96.88 C 189.50 96.54 189.90 95.59 189.55 94.76 C 189.21 93.93 188.25 93.54 187.42 93.88 L 186.62 94.22 C 185.79 94.56 185.40 95.51 185.75 96.34 C 186.09 97.17 187.04 97.56 187.87 97.22 Z M 188.67 96.88 L 189.66 96.46 C 190.48 96.12 190.87 95.17 190.52 94.35 C 190.18 93.52 189.23 93.13 188.41 93.48 L 187.43 93.89 C 186.60 94.24 186.21 95.18 186.56 96.01 C 186.90 96.83 187.85 97.22 188.67 96.88 Z M 189.66 96.46 L 190.61 96.05 C 191.43 95.71 191.82 94.76 191.47 93.94 C 191.13 93.12 190.18 92.74 189.36 93.08 L 188.41 93.49 C 187.59 93.83 187.20 94.78 187.55 95.60 C 187.89 96.42 188.84 96.80 189.66 96.46 Z M 190.61 96.05 L 191.55 95.65 C 192.36 95.31 192.75 94.37 192.40 93.55 C 192.05 92.73 191.11 92.35 190.30 92.70 L 189.36 93.09 C 188.55 93.44 188.17 94.38 188.51 95.19 C 188.86 96.01 189.80 96.39 190.61 96.05 Z M 191.55 95.64 L 192.46 95.26 C 193.27 94.91 193.65 93.97 193.31 93.16 C 192.96 92.35 192.02 91.97 191.21 92.32 L 190.30 92.70 C 189.49 93.05 189.11 93.99 189.45 94.80 C 189.80 95.61 190.74 95.99 191.55 95.64 Z M 192.46 95.25 L 193.36 94.87 C 194.17 94.52 194.55 93.59 194.20 92.78 C 193.86 91.97 192.92 91.59 192.11 91.94 L 191.21 92.32 C 190.40 92.67 190.03 93.60 190.37 94.41 C 190.72 95.22 191.65 95.59 192.46 95.25 Z M 193.36 94.86 L 194.25 94.48 C 195.05 94.14 195.43 93.20 195.08 92.40 C 194.74 91.59 193.81 91.22 193.00 91.57 L 192.11 91.95 C 191.31 92.29 190.94 93.22 191.28 94.03 C 191.62 94.83 192.55 95.20 193.36 94.86 Z M 194.25 94.47 L 195.13 94.10 C 195.93 93.75 196.30 92.82 195.96 92.02 C 195.61 91.22 194.69 90.85 193.89 91.19 L 193.00 91.57 C 192.20 91.91 191.83 92.84 192.17 93.64 C 192.52 94.44 193.45 94.82 194.25 94.47 Z M 195.13 94.09 L 195.75 93.82 C 196.55 93.48 196.92 92.56 196.58 91.76 C 196.23 90.96 195.31 90.59 194.51 90.93 L 193.89 91.20 C 193.09 91.54 192.72 92.47 193.06 93.26 C 193.40 94.06 194.33 94.43 195.13 94.09 Z"
      fill="black"
      fill-rule="nonzero" /><path d="M 144.02 164.53 L 144.61 163.69 C 145.19 162.88 145.00 161.75 144.18 161.18 C 143.37 160.60 142.24 160.79 141.67 161.60 L 141.07 162.44 C 140.50 163.25 140.69 164.38 141.50 164.96 C 142.31 165.53 143.44 165.34 144.02 164.53 Z M 144.62 163.71 L 145.22 162.88 C 145.81 162.06 145.62 160.92 144.80 160.33 C 143.98 159.74 142.84 159.93 142.25 160.75 L 141.66 161.58 C 141.07 162.40 141.25 163.54 142.07 164.13 C 142.89 164.72 144.03 164.53 144.62 163.71 Z M 145.23 162.91 L 145.83 162.09 C 146.44 161.26 146.26 160.10 145.44 159.50 C 144.61 158.90 143.45 159.07 142.85 159.90 L 142.25 160.72 C 141.64 161.54 141.82 162.70 142.64 163.30 C 143.47 163.91 144.62 163.73 145.23 162.91 Z M 145.83 162.12 L 146.44 161.32 C 147.07 160.49 146.91 159.32 146.09 158.69 C 145.26 158.07 144.09 158.23 143.46 159.05 L 142.85 159.86 C 142.23 160.68 142.39 161.86 143.21 162.48 C 144.03 163.11 145.21 162.95 145.83 162.12 Z M 146.44 161.36 L 147.06 160.57 C 147.71 159.76 147.58 158.56 146.76 157.91 C 145.94 157.26 144.75 157.40 144.10 158.22 L 143.47 159.00 C 142.82 159.82 142.96 161.02 143.78 161.67 C 144.59 162.32 145.79 162.18 146.44 161.36 Z M 147.05 160.63 L 147.69 159.87 C 148.37 159.06 148.27 157.85 147.46 157.17 C 146.65 156.49 145.44 156.59 144.76 157.40 L 144.11 158.16 C 143.43 158.97 143.54 160.18 144.35 160.86 C 145.16 161.54 146.36 161.44 147.05 160.63 Z M 147.66 159.93 L 148.32 159.20 C 149.04 158.41 148.98 157.18 148.18 156.46 C 147.39 155.75 146.16 155.81 145.44 156.60 L 144.78 157.34 C 144.06 158.13 144.13 159.36 144.92 160.07 C 145.72 160.79 146.94 160.73 147.66 159.93 Z M 148.28 159.28 L 148.96 158.58 C 149.72 157.81 149.71 156.56 148.94 155.81 C 148.16 155.05 146.92 155.06 146.16 155.83 L 145.48 156.53 C 144.72 157.30 144.74 158.55 145.51 159.30 C 146.28 160.06 147.52 160.05 148.28 159.28 Z M 148.91 158.66 L 149.62 158.01 C 150.42 157.26 150.47 156.01 149.73 155.20 C 148.98 154.40 147.73 154.35 146.92 155.10 L 146.22 155.75 C 145.41 156.50 145.36 157.75 146.11 158.56 C 146.85 159.36 148.11 159.41 148.91 158.66 Z M 149.54 158.09 L 150.29 157.47 C 151.14 156.76 151.26 155.51 150.56 154.66 C 149.85 153.81 148.60 153.69 147.75 154.39 L 147.00 155.02 C 146.15 155.72 146.03 156.98 146.73 157.83 C 147.44 158.67 148.70 158.79 149.54 158.09 Z M 150.20 157.53 L 150.99 156.94 C 151.88 156.29 152.06 155.05 151.41 154.17 C 150.76 153.28 149.52 153.10 148.63 153.75 L 147.84 154.33 C 146.96 154.98 146.77 156.23 147.42 157.11 C 148.07 157.99 149.32 158.18 150.20 157.53 Z M 150.90 156.99 L 151.72 156.45 C 152.63 155.85 152.88 154.63 152.28 153.72 C 151.68 152.81 150.46 152.56 149.55 153.16 L 148.73 153.70 C 147.82 154.30 147.57 155.52 148.17 156.43 C 148.77 157.34 149.99 157.59 150.90 156.99 Z M 151.64 156.48 L 152.48 155.97 C 153.41 155.42 153.71 154.22 153.16 153.30 C 152.60 152.37 151.40 152.07 150.48 152.62 L 149.63 153.13 C 148.71 153.68 148.41 154.88 148.96 155.81 C 149.51 156.73 150.71 157.03 151.64 156.48 Z M 152.41 155.99 L 153.28 155.52 C 154.22 155.00 154.56 153.83 154.05 152.89 C 153.53 151.96 152.36 151.61 151.42 152.13 L 150.55 152.60 C 149.61 153.11 149.27 154.29 149.78 155.23 C 150.30 156.16 151.47 156.51 152.41 155.99 Z M 153.22 155.53 L 154.11 155.08 C 155.05 154.60 155.43 153.44 154.95 152.50 C 154.47 151.56 153.31 151.18 152.37 151.66 L 151.48 152.11 C 150.54 152.59 150.16 153.75 150.64 154.69 C 151.12 155.63 152.27 156.01 153.22 155.53 Z M 154.06 155.08 L 154.96 154.65 C 155.91 154.19 156.31 153.06 155.86 152.11 C 155.40 151.17 154.27 150.77 153.32 151.22 L 152.42 151.66 C 151.47 152.11 151.07 153.24 151.53 154.19 C 151.98 155.14 153.11 155.53 154.06 155.08 Z M 154.93 154.65 L 155.85 154.22 C 156.79 153.79 157.21 152.67 156.77 151.73 C 156.34 150.78 155.22 150.37 154.28 150.80 L 153.36 151.23 C 152.41 151.66 152.00 152.78 152.43 153.72 C 152.87 154.66 153.98 155.08 154.93 154.65 Z M 155.82 154.21 L 156.76 153.80 C 157.70 153.38 158.12 152.28 157.70 151.34 C 157.28 150.40 156.18 149.98 155.24 150.39 L 154.30 150.81 C 153.36 151.23 152.94 152.33 153.36 153.27 C 153.78 154.21 154.88 154.63 155.82 154.21 Z M 156.74 153.79 L 157.66 153.38 C 158.60 152.97 159.02 151.87 158.61 150.94 C 158.19 150.01 157.10 149.59 156.17 150.00 L 155.25 150.41 C 154.32 150.82 153.90 151.91 154.31 152.84 C 154.72 153.78 155.81 154.20 156.74 153.79 Z M 157.66 153.36 L 158.55 152.97 C 159.48 152.56 159.90 151.48 159.49 150.55 C 159.08 149.63 158.00 149.21 157.07 149.62 L 156.18 150.01 C 155.25 150.42 154.83 151.50 155.24 152.43 C 155.65 153.36 156.73 153.77 157.66 153.36 Z M 158.55 152.96 L 159.45 152.56 C 160.37 152.15 160.79 151.08 160.38 150.16 C 159.97 149.24 158.90 148.83 157.98 149.23 L 157.08 149.63 C 156.16 150.04 155.75 151.11 156.15 152.03 C 156.56 152.94 157.63 153.36 158.55 152.96 Z M 159.44 152.54 L 160.35 152.15 C 161.26 151.74 161.68 150.68 161.28 149.77 C 160.88 148.86 159.81 148.44 158.90 148.84 L 157.99 149.24 C 157.08 149.64 156.67 150.71 157.07 151.62 C 157.47 152.53 158.53 152.95 159.44 152.54 Z M 160.34 152.13 L 161.26 151.73 C 162.16 151.34 162.58 150.29 162.18 149.38 C 161.79 148.47 160.73 148.06 159.83 148.46 L 158.91 148.85 C 158.01 149.25 157.59 150.30 157.99 151.21 C 158.38 152.12 159.44 152.53 160.34 152.13 Z M 161.25 151.72 L 162.17 151.33 C 163.07 150.94 163.48 149.89 163.09 148.99 C 162.70 148.09 161.66 147.68 160.76 148.07 L 159.84 148.47 C 158.94 148.86 158.52 149.90 158.91 150.80 C 159.30 151.70 160.35 152.11 161.25 151.72 Z M 162.15 151.32 L 163.08 150.92 C 163.97 150.54 164.39 149.50 164.01 148.61 C 163.63 147.72 162.59 147.30 161.70 147.68 L 160.77 148.08 C 159.88 148.46 159.46 149.49 159.84 150.39 C 160.23 151.28 161.26 151.70 162.15 151.32 Z M 163.07 150.91 L 164.00 150.52 C 164.89 150.14 165.30 149.12 164.93 148.23 C 164.56 147.34 163.53 146.93 162.64 147.30 L 161.71 147.69 C 160.82 148.07 160.41 149.09 160.78 149.98 C 161.15 150.87 162.18 151.29 163.07 150.91 Z M 163.98 150.51 L 164.92 150.12 C 165.80 149.76 166.22 148.74 165.86 147.86 C 165.49 146.98 164.48 146.56 163.59 146.92 L 162.66 147.31 C 161.77 147.68 161.35 148.69 161.72 149.57 C 162.09 150.46 163.10 150.88 163.98 150.51 Z M 164.90 150.11 L 165.84 149.73 C 166.72 149.37 167.14 148.37 166.79 147.49 C 166.43 146.62 165.43 146.19 164.55 146.55 L 163.61 146.93 C 162.73 147.29 162.31 148.29 162.66 149.17 C 163.02 150.05 164.02 150.47 164.90 150.11 Z M 165.82 149.72 L 166.78 149.34 C 167.65 149.00 168.08 148.01 167.73 147.13 C 167.38 146.26 166.39 145.83 165.52 146.18 L 164.56 146.56 C 163.69 146.90 163.26 147.90 163.61 148.77 C 163.96 149.64 164.95 150.07 165.82 149.72 Z M 166.76 149.34 L 167.72 148.96 C 168.59 148.63 169.02 147.65 168.69 146.77 C 168.35 145.90 167.37 145.47 166.50 145.81 L 165.54 146.18 C 164.66 146.52 164.23 147.50 164.57 148.37 C 164.91 149.25 165.89 149.68 166.76 149.34 Z M 167.71 148.96 L 168.67 148.59 C 169.53 148.26 169.97 147.29 169.64 146.43 C 169.31 145.56 168.34 145.12 167.47 145.45 L 166.51 145.82 C 165.64 146.15 165.21 147.12 165.54 147.99 C 165.87 148.85 166.84 149.29 167.71 148.96 Z M 168.65 148.59 L 169.61 148.23 C 170.47 147.91 170.91 146.95 170.59 146.08 C 170.26 145.22 169.30 144.78 168.44 145.10 L 167.48 145.46 C 166.62 145.78 166.18 146.74 166.51 147.61 C 166.83 148.47 167.79 148.91 168.65 148.59 Z M 169.59 148.22 L 170.54 147.87 C 171.40 147.56 171.84 146.61 171.53 145.75 C 171.22 144.89 170.27 144.45 169.41 144.76 L 168.46 145.11 C 167.60 145.43 167.15 146.38 167.47 147.23 C 167.78 148.09 168.73 148.54 169.59 148.22 Z M 170.53 147.86 L 171.47 147.53 C 172.33 147.22 172.77 146.28 172.47 145.42 C 172.16 144.57 171.22 144.13 170.36 144.43 L 169.42 144.77 C 168.57 145.08 168.12 146.02 168.43 146.87 C 168.74 147.73 169.68 148.17 170.53 147.86 Z M 171.46 147.52 L 172.40 147.19 C 173.25 146.89 173.69 145.96 173.39 145.11 C 173.09 144.26 172.16 143.81 171.31 144.11 L 170.38 144.44 C 169.53 144.74 169.08 145.67 169.38 146.52 C 169.68 147.37 170.61 147.82 171.46 147.52 Z M 172.38 147.18 L 173.31 146.86 C 174.15 146.57 174.60 145.65 174.31 144.80 C 174.01 143.96 173.09 143.51 172.25 143.80 L 171.32 144.12 C 170.48 144.41 170.03 145.33 170.32 146.18 C 170.62 147.02 171.54 147.47 172.38 147.18 Z M 173.29 146.85 L 174.20 146.54 C 175.04 146.26 175.49 145.34 175.21 144.50 C 174.92 143.66 174.01 143.21 173.17 143.50 L 172.26 143.81 C 171.42 144.09 170.97 145.01 171.25 145.85 C 171.54 146.69 172.45 147.14 173.29 146.85 Z M 174.19 146.54 L 175.12 146.23 C 175.95 145.95 176.40 145.04 176.12 144.21 C 175.84 143.37 174.94 142.92 174.10 143.20 L 173.18 143.51 C 172.34 143.79 171.89 144.69 172.17 145.53 C 172.45 146.36 173.35 146.81 174.19 146.54 Z M 175.11 146.22 L 176.11 145.89 C 176.94 145.62 177.40 144.72 177.12 143.89 C 176.85 143.05 175.95 142.60 175.12 142.87 L 174.11 143.20 C 173.28 143.48 172.83 144.37 173.10 145.21 C 173.37 146.04 174.27 146.50 175.11 146.22 Z M 176.10 145.89 L 177.08 145.57 C 177.92 145.30 178.37 144.41 178.10 143.58 C 177.84 142.74 176.94 142.29 176.11 142.56 L 175.13 142.87 C 174.29 143.14 173.83 144.04 174.10 144.87 C 174.37 145.70 175.27 146.16 176.10 145.89 Z M 177.08 145.57 L 178.04 145.27 C 178.87 145.00 179.33 144.11 179.07 143.28 C 178.80 142.45 177.91 141.98 177.08 142.25 L 176.12 142.56 C 175.28 142.82 174.82 143.71 175.09 144.54 C 175.35 145.38 176.24 145.84 177.08 145.57 Z M 178.03 145.26 L 178.98 144.97 C 179.82 144.70 180.28 143.82 180.02 142.99 C 179.76 142.16 178.87 141.69 178.04 141.95 L 177.09 142.25 C 176.26 142.51 175.79 143.40 176.05 144.23 C 176.32 145.06 177.20 145.52 178.03 145.26 Z M 178.98 144.96 L 179.92 144.67 C 180.75 144.41 181.21 143.53 180.95 142.70 C 180.70 141.87 179.81 141.41 178.98 141.66 L 178.04 141.96 C 177.21 142.21 176.75 143.10 177.01 143.93 C 177.26 144.76 178.15 145.22 178.98 144.96 Z M 179.91 144.67 L 180.84 144.38 C 181.67 144.13 182.14 143.25 181.88 142.42 C 181.63 141.59 180.75 141.13 179.92 141.38 L 178.99 141.67 C 178.16 141.92 177.69 142.80 177.95 143.63 C 178.20 144.46 179.08 144.92 179.91 144.67 Z M 180.84 144.38 L 181.76 144.10 C 182.59 143.85 183.06 142.97 182.80 142.14 C 182.55 141.31 181.67 140.85 180.85 141.10 L 179.92 141.38 C 179.09 141.64 178.63 142.51 178.88 143.34 C 179.13 144.17 180.01 144.63 180.84 144.38 Z M 181.76 144.10 L 182.68 143.82 C 183.51 143.56 183.97 142.69 183.72 141.86 C 183.47 141.04 182.60 140.57 181.77 140.82 L 180.85 141.10 C 180.02 141.36 179.56 142.23 179.81 143.06 C 180.06 143.88 180.93 144.35 181.76 144.10 Z"
      fill="black"
      fill-rule="nonzero" /></svg>