<svg xmlns="http://www.w3.org/2000/svg" width="300" height="300" viewBox="0 0 300 300">
<path d="M 192.68 92.42 L 192.20 91.25 C 191.86 90.42 190.90 90.01 190.07 90.36 C 189.23 90.70 188.82 91.66 189.17 92.49 L 189.64 93.66 C 189.98 94.50 190.94 94.90 191.78 94.56 C 192.62 94.22 193.02 93.26 192.68 92.42 Z M 192.23 91.22 L 191.76 90.08 C 191.40 89.23 190.41 88.83 189.56 89.19 C 188.70 89.55 188.30 90.53 188.66 91.39 L 189.14 92.53 C 189.50 93.38 190.48 93.78 191.34 93.42 C 192.19 93.06 192.59 92.08 192.23 91.22 Z M 191.78 90.03 L 191.29 88.95 C 190.90 88.08 189.89 87.69 189.02 88.08 C 188.15 88.47 187.77 89.49 188.15 90.35 L 188.64 91.44 C 189.03 92.30 190.04 92.69 190.91 92.31 C 191.78 91.92 192.16 90.90 191.78 90.03 Z M 191.30 88.88 L 190.81 87.87 C 190.38 87.00 189.32 86.64 188.45 87.07 C 187.58 87.50 187.22 88.55 187.65 89.42 L 188.14 90.43 C 188.57 91.30 189.63 91.66 190.50 91.23 C 191.37 90.80 191.73 89.75 191.30 88.88 Z M 190.79 87.76 L 190.29 86.87 C 189.80 86.00 188.70 85.70 187.84 86.18 C 186.97 86.67 186.67 87.77 187.16 88.63 L 187.66 89.53 C 188.15 90.40 189.25 90.70 190.11 90.21 C 190.98 89.72 191.28 88.63 190.79 87.76 Z M 190.24 86.71 L 189.71 85.95 C 189.14 85.11 188.00 84.90 187.16 85.47 C 186.32 86.04 186.11 87.19 186.68 88.02 L 187.21 88.79 C 187.78 89.62 188.92 89.84 189.76 89.27 C 190.60 88.69 190.81 87.55 190.24 86.71 Z M 189.60 85.73 L 189.05 85.13 C 188.36 84.36 187.18 84.30 186.40 84.99 C 185.63 85.68 185.57 86.87 186.26 87.64 L 186.80 88.24 C 187.49 89.01 188.68 89.08 189.45 88.38 C 190.22 87.69 190.29 86.50 189.60 85.73 Z M 188.80 84.84 L 188.23 84.43 C 187.38 83.80 186.18 83.98 185.55 84.83 C 184.93 85.68 185.11 86.88 185.96 87.51 L 186.52 87.93 C 187.37 88.55 188.57 88.37 189.20 87.52 C 189.83 86.67 189.65 85.47 188.80 84.84 Z M 187.73 84.12 L 187.14 83.92 C 186.12 83.57 185.01 84.11 184.66 85.13 C 184.31 86.16 184.85 87.27 185.87 87.62 L 186.46 87.82 C 187.48 88.17 188.59 87.62 188.94 86.60 C 189.29 85.58 188.75 84.47 187.73 84.12 Z M 186.45 83.79 L 185.93 83.80 C 184.83 83.83 183.97 84.74 184.00 85.84 C 184.03 86.93 184.94 87.79 186.04 87.76 L 186.56 87.75 C 187.66 87.72 188.52 86.81 188.49 85.71 C 188.46 84.62 187.55 83.76 186.45 83.79 Z M 185.35 83.89 L 184.81 84.07 C 183.76 84.42 183.20 85.56 183.55 86.60 C 183.91 87.64 185.04 88.21 186.08 87.85 L 186.62 87.67 C 187.66 87.32 188.23 86.19 187.87 85.14 C 187.52 84.10 186.39 83.54 185.35 83.89 Z M 184.40 84.25 L 183.84 84.59 C 182.89 85.17 182.59 86.40 183.17 87.35 C 183.75 88.30 184.99 88.60 185.93 88.02 L 186.49 87.68 C 187.44 87.10 187.74 85.86 187.16 84.92 C 186.58 83.97 185.34 83.67 184.40 84.25 Z M 183.57 84.77 L 182.99 85.26 C 182.15 85.98 182.05 87.26 182.77 88.11 C 183.50 88.96 184.77 89.06 185.62 88.34 L 186.20 87.84 C 187.05 87.12 187.15 85.84 186.42 84.99 C 185.70 84.14 184.42 84.04 183.57 84.77 Z M 182.82 85.41 L 182.22 86.05 C 181.46 86.87 181.50 88.16 182.32 88.92 C 183.14 89.69 184.43 89.65 185.20 88.83 L 185.80 88.19 C 186.56 87.37 186.52 86.08 185.70 85.31 C 184.88 84.54 183.59 84.59 182.82 85.41 Z M 182.11 86.16 L 181.49 86.94 C 180.79 87.83 180.94 89.12 181.82 89.82 C 182.71 90.52 184.00 90.37 184.70 89.49 L 185.32 88.71 C 186.02 87.82 185.87 86.53 184.98 85.83 C 184.10 85.13 182.81 85.28 182.11 86.16 Z M 181.40 87.03 L 180.77 87.94 C 180.12 88.88 180.35 90.16 181.28 90.81 C 182.21 91.47 183.50 91.24 184.15 90.30 L 184.79 89.39 C 185.44 88.46 185.21 87.17 184.28 86.52 C 183.34 85.87 182.06 86.10 181.40 87.03 Z M 180.71 88.01 L 180.05 89.05 C 179.44 90.02 179.73 91.30 180.70 91.91 C 181.67 92.52 182.95 92.23 183.56 91.26 L 184.22 90.23 C 184.83 89.26 184.54 87.98 183.57 87.37 C 182.60 86.76 181.32 87.05 180.71 88.01 Z M 180.00 89.10 L 179.33 90.26 C 178.75 91.25 179.09 92.53 180.09 93.11 C 181.08 93.69 182.36 93.36 182.94 92.36 L 183.61 91.21 C 184.19 90.21 183.86 88.93 182.86 88.35 C 181.86 87.77 180.58 88.11 180.00 89.10 Z M 179.29 90.30 L 178.60 91.56 C 178.05 92.58 178.42 93.86 179.44 94.41 C 180.46 94.97 181.74 94.59 182.29 93.58 L 182.98 92.31 C 183.54 91.30 183.16 90.02 182.14 89.46 C 181.13 88.91 179.85 89.28 179.29 90.30 Z M 178.57 91.60 L 177.94 92.82 C 177.40 93.85 177.80 95.13 178.84 95.67 C 179.88 96.21 181.15 95.80 181.69 94.77 L 182.33 93.54 C 182.86 92.51 182.46 91.23 181.42 90.69 C 180.39 90.15 179.11 90.56 178.57 91.60 Z M 177.92 92.84 L 177.50 93.69 C 176.97 94.73 177.39 96.01 178.44 96.53 C 179.49 97.06 180.76 96.63 181.29 95.59 L 181.71 94.74 C 182.23 93.70 181.81 92.42 180.76 91.90 C 179.72 91.37 178.44 91.80 177.92 92.84 Z M 177.49 93.70 L 177.06 94.58 C 176.54 95.63 176.98 96.90 178.03 97.41 C 179.08 97.93 180.35 97.49 180.87 96.44 L 181.29 95.57 C 181.81 94.52 181.37 93.25 180.32 92.73 C 179.27 92.22 178.00 92.65 177.49 93.70 Z M 177.05 94.59 L 176.62 95.49 C 176.11 96.55 176.56 97.81 177.61 98.32 C 178.67 98.83 179.94 98.38 180.44 97.33 L 180.87 96.43 C 181.38 95.37 180.94 94.11 179.88 93.60 C 178.82 93.09 177.56 93.54 177.05 94.59 Z M 176.61 95.51 L 176.18 96.43 C 175.68 97.49 176.13 98.75 177.19 99.25 C 178.25 99.75 179.52 99.29 180.02 98.23 L 180.45 97.31 C 180.95 96.25 180.49 94.99 179.44 94.49 C 178.38 93.99 177.11 94.45 176.61 95.51 Z M 176.17 96.44 L 175.74 97.37 C 175.24 98.44 175.71 99.70 176.77 100.19 C 177.83 100.69 179.09 100.22 179.59 99.16 L 180.02 98.22 C 180.51 97.16 180.05 95.90 178.99 95.41 C 177.93 94.91 176.67 95.37 176.17 96.44 Z M 175.73 97.39 L 175.30 98.34 C 174.81 99.40 175.28 100.66 176.35 101.15 C 177.41 101.64 178.67 101.17 179.16 100.10 L 179.59 99.15 C 180.08 98.08 179.61 96.82 178.54 96.34 C 177.48 95.85 176.22 96.32 175.73 97.39 Z M 175.29 98.34 L 174.86 99.30 C 174.38 100.37 174.85 101.63 175.92 102.11 C 176.99 102.60 178.25 102.12 178.73 101.05 L 179.16 100.09 C 179.64 99.02 179.17 97.77 178.10 97.28 C 177.03 96.80 175.78 97.28 175.29 98.34 Z M 174.86 99.31 L 174.42 100.28 C 173.95 101.35 174.43 102.60 175.50 103.08 C 176.57 103.56 177.82 103.08 178.30 102.01 L 178.73 101.04 C 179.21 99.97 178.73 98.72 177.66 98.24 C 176.59 97.76 175.33 98.24 174.86 99.31 Z M 174.42 100.28 L 173.99 101.25 C 173.52 102.32 174.00 103.58 175.08 104.05 C 176.15 104.53 177.40 104.04 177.88 102.97 L 178.31 102.00 C 178.78 100.93 178.29 99.68 177.22 99.20 C 176.15 98.73 174.90 99.21 174.42 100.28 Z M 173.99 101.26 L 173.57 102.22 C 173.10 103.30 173.59 104.55 174.66 105.02 C 175.73 105.49 176.99 105.00 177.46 103.93 L 177.88 102.96 C 178.35 101.89 177.86 100.64 176.79 100.17 C 175.71 99.69 174.46 100.18 173.99 101.26 Z M 173.56 102.23 L 173.15 103.18 C 172.68 104.26 173.17 105.51 174.25 105.98 C 175.32 106.45 176.58 105.96 177.04 104.88 L 177.46 103.92 C 177.93 102.85 177.44 101.59 176.36 101.13 C 175.29 100.66 174.03 101.15 173.56 102.23 Z M 173.15 103.19 L 172.74 104.13 C 172.27 105.21 172.76 106.46 173.84 106.93 C 174.92 107.39 176.17 106.90 176.64 105.82 L 177.05 104.88 C 177.51 103.80 177.02 102.55 175.94 102.08 C 174.86 101.61 173.61 102.11 173.15 103.19 Z M 172.73 104.14 L 172.33 105.07 C 171.87 106.15 172.36 107.40 173.44 107.86 C 174.52 108.33 175.77 107.83 176.24 106.75 L 176.64 105.82 C 177.10 104.74 176.61 103.49 175.53 103.03 C 174.45 102.56 173.20 103.06 172.73 104.14 Z M 172.33 105.07 L 171.94 105.98 C 171.47 107.06 171.97 108.31 173.05 108.78 C 174.13 109.24 175.38 108.74 175.85 107.66 L 176.24 106.75 C 176.70 105.67 176.20 104.42 175.12 103.96 C 174.04 103.49 172.79 103.99 172.33 105.07 Z M 171.94 105.99 L 171.56 106.88 C 171.09 107.96 171.59 109.21 172.67 109.67 C 173.75 110.13 175.00 109.63 175.47 108.55 L 175.85 107.66 C 176.31 106.58 175.81 105.33 174.73 104.87 C 173.65 104.41 172.40 104.91 171.94 105.99 Z M 171.55 106.88 L 171.18 107.74 C 170.72 108.82 171.22 110.07 172.30 110.53 C 173.38 111.00 174.63 110.50 175.10 109.42 L 175.47 108.55 C 175.93 107.47 175.43 106.22 174.35 105.76 C 173.27 105.30 172.02 105.80 171.55 106.88 Z M 171.18 107.74 L 170.83 108.57 C 170.36 109.65 170.86 110.90 171.94 111.37 C 173.02 111.83 174.28 111.33 174.74 110.25 L 175.10 109.42 C 175.56 108.34 175.06 107.08 173.98 106.62 C 172.90 106.16 171.65 106.66 171.18 107.74 Z M 170.83 108.57 L 170.46 109.42 C 170.00 110.50 170.50 111.75 171.58 112.22 C 172.66 112.68 173.91 112.18 174.37 111.10 L 174.74 110.25 C 175.20 109.17 174.70 107.92 173.62 107.46 C 172.54 106.99 171.29 107.49 170.83 108.57 Z M 170.46 109.42 L 169.93 110.64 C 169.47 111.72 169.97 112.97 171.04 113.44 C 172.12 113.91 173.38 113.41 173.84 112.33 L 174.37 111.11 C 174.84 110.03 174.34 108.77 173.26 108.31 C 172.18 107.84 170.93 108.34 170.46 109.42 Z M 169.94 110.64 L 169.45 111.77 C 168.98 112.85 169.47 114.10 170.55 114.57 C 171.63 115.04 172.88 114.54 173.35 113.47 L 173.84 112.33 C 174.31 111.26 173.82 110.00 172.74 109.53 C 171.66 109.07 170.41 109.56 169.94 110.64 Z M 169.45 111.76 L 168.99 112.81 C 168.52 113.89 169.01 115.15 170.08 115.62 C 171.16 116.09 172.42 115.60 172.89 114.52 L 173.35 113.47 C 173.82 112.39 173.33 111.14 172.25 110.67 C 171.17 110.20 169.92 110.69 169.45 111.76 Z M 168.99 112.81 L 168.56 113.79 C 168.09 114.86 168.58 116.12 169.65 116.59 C 170.73 117.07 171.98 116.58 172.45 115.50 L 172.88 114.52 C 173.36 113.45 172.87 112.19 171.79 111.72 C 170.72 111.25 169.46 111.74 168.99 112.81 Z M 168.56 113.79 L 168.16 114.70 C 167.68 115.77 168.17 117.03 169.24 117.51 C 170.32 117.98 171.57 117.49 172.05 116.42 L 172.45 115.51 C 172.93 114.43 172.44 113.18 171.37 112.70 C 170.29 112.23 169.04 112.71 168.56 113.79 Z M 168.16 114.70 L 167.78 115.56 C 167.30 116.63 167.78 117.89 168.86 118.37 C 169.93 118.84 171.19 118.36 171.66 117.29 L 172.04 116.42 C 172.52 115.35 172.04 114.09 170.96 113.62 C 169.89 113.14 168.64 113.63 168.16 114.70 Z M 167.78 115.56 L 167.41 116.38 C 166.94 117.45 167.42 118.71 168.49 119.18 C 169.56 119.66 170.82 119.18 171.30 118.11 L 171.66 117.29 C 172.14 116.22 171.66 114.96 170.58 114.48 C 169.51 114.01 168.26 114.49 167.78 115.56 Z M 167.41 116.38 L 167.06 117.17 C 166.59 118.24 167.07 119.49 168.14 119.97 C 169.21 120.45 170.47 119.97 170.94 118.89 L 171.29 118.11 C 171.77 117.04 171.29 115.78 170.22 115.30 C 169.15 114.83 167.89 115.31 167.41 116.38 Z M 167.06 117.17 L 166.72 117.93 C 166.25 119.00 166.73 120.26 167.80 120.73 C 168.87 121.21 170.13 120.73 170.60 119.66 L 170.94 118.89 C 171.42 117.82 170.94 116.57 169.87 116.09 C 168.80 115.61 167.54 116.09 167.06 117.17 Z M 166.72 117.93 L 166.39 118.68 C 165.92 119.75 166.40 121.01 167.47 121.48 C 168.54 121.96 169.80 121.47 170.27 120.40 L 170.60 119.65 C 171.08 118.58 170.60 117.33 169.52 116.85 C 168.45 116.38 167.20 116.86 166.72 117.93 Z M 166.39 118.68 L 166.06 119.43 C 165.59 120.51 166.07 121.76 167.14 122.23 C 168.22 122.71 169.47 122.22 169.94 121.15 L 170.27 120.40 C 170.75 119.33 170.26 118.07 169.19 117.60 C 168.12 117.13 166.86 117.61 166.39 118.68 Z M 166.06 119.44 L 165.67 120.33 C 165.20 121.40 165.69 122.66 166.76 123.13 C 167.83 123.60 169.08 123.11 169.55 122.03 L 169.94 121.14 C 170.41 120.07 169.93 118.82 168.85 118.35 C 167.78 117.88 166.53 118.37 166.06 119.44 Z M 165.67 120.34 L 165.27 121.24 C 164.81 122.31 165.30 123.56 166.37 124.03 C 167.45 124.49 168.70 124.00 169.16 122.93 L 169.55 122.03 C 170.02 120.95 169.53 119.71 168.46 119.24 C 167.38 118.77 166.13 119.26 165.67 120.34 Z M 165.27 121.24 L 164.88 122.15 C 164.42 123.22 164.91 124.47 165.99 124.93 C 167.06 125.40 168.31 124.90 168.77 123.83 L 169.16 122.92 C 169.63 121.85 169.13 120.60 168.06 120.14 C 166.99 119.67 165.74 120.17 165.27 121.24 Z M 164.88 122.15 L 164.49 123.06 C 164.03 124.14 164.52 125.38 165.59 125.85 C 166.67 126.31 167.91 125.81 168.38 124.74 L 168.77 123.83 C 169.23 122.75 168.74 121.51 167.66 121.04 C 166.59 120.58 165.34 121.08 164.88 122.15 Z M 164.49 123.06 L 164.09 123.98 C 163.63 125.06 164.13 126.30 165.20 126.76 C 166.28 127.23 167.52 126.73 167.98 125.66 L 168.38 124.74 C 168.84 123.66 168.34 122.42 167.27 121.96 C 166.20 121.49 164.95 121.99 164.49 123.06 Z M 164.09 123.98 L 163.70 124.91 C 163.24 125.98 163.73 127.23 164.81 127.69 C 165.88 128.15 167.12 127.65 167.58 126.58 L 167.98 125.65 C 168.44 124.58 167.95 123.34 166.87 122.88 C 165.80 122.41 164.56 122.91 164.09 123.98 Z M 163.70 124.91 L 163.30 125.84 C 162.84 126.91 163.33 128.15 164.41 128.62 C 165.48 129.08 166.72 128.58 167.18 127.51 L 167.58 126.58 C 168.04 125.51 167.55 124.26 166.48 123.80 C 165.40 123.34 164.16 123.84 163.70 124.91 Z M 163.30 125.84 L 162.90 126.77 C 162.44 127.84 162.93 129.09 164.00 129.55 C 165.07 130.01 166.32 129.51 166.78 128.44 L 167.18 127.51 C 167.64 126.44 167.15 125.19 166.08 124.73 C 165.01 124.27 163.76 124.77 163.30 125.84 Z M 162.90 126.77 L 162.50 127.71 C 162.03 128.78 162.52 130.02 163.60 130.48 C 164.67 130.95 165.91 130.45 166.37 129.38 L 166.78 128.45 C 167.24 127.37 166.75 126.13 165.68 125.67 C 164.61 125.21 163.36 125.70 162.90 126.77 Z M 162.50 127.70 L 162.10 128.62 C 161.64 129.69 162.13 130.93 163.20 131.39 C 164.27 131.86 165.51 131.37 165.97 130.30 L 166.37 129.39 C 166.83 128.32 166.34 127.07 165.27 126.61 C 164.21 126.15 162.96 126.64 162.50 127.70 Z M 162.10 128.61 L 161.71 129.52 C 161.24 130.58 161.73 131.83 162.80 132.29 C 163.87 132.76 165.11 132.27 165.58 131.20 L 165.97 130.30 C 166.44 129.23 165.95 127.99 164.88 127.53 C 163.81 127.06 162.57 127.55 162.10 128.61 Z M 161.71 129.52 L 161.32 130.42 C 160.85 131.49 161.34 132.73 162.40 133.20 C 163.47 133.66 164.71 133.18 165.18 132.11 L 165.57 131.21 C 166.04 130.14 165.55 128.90 164.49 128.43 C 163.42 127.96 162.18 128.45 161.71 129.52 Z M 161.32 130.42 L 160.92 131.33 C 160.45 132.40 160.94 133.64 162.00 134.10 C 163.07 134.57 164.31 134.09 164.77 133.02 L 165.17 132.11 C 165.64 131.05 165.16 129.81 164.09 129.34 C 163.03 128.87 161.79 129.36 161.32 130.42 Z M 160.92 131.33 L 160.52 132.24 C 160.05 133.31 160.54 134.55 161.60 135.02 C 162.66 135.48 163.90 135.00 164.37 133.94 L 164.77 133.02 C 165.24 131.96 164.76 130.72 163.69 130.25 C 162.63 129.78 161.39 130.27 160.92 131.33 Z M 160.52 132.24 L 160.12 133.16 C 159.65 134.22 160.13 135.46 161.20 135.93 C 162.26 136.40 163.50 135.92 163.97 134.85 L 164.37 133.94 C 164.84 132.87 164.35 131.63 163.29 131.17 C 162.23 130.70 160.99 131.18 160.52 132.24 Z M 160.12 133.16 L 159.72 134.08 C 159.25 135.14 159.73 136.38 160.79 136.85 C 161.85 137.32 163.09 136.84 163.56 135.77 L 163.96 134.85 C 164.43 133.79 163.95 132.55 162.89 132.09 C 161.83 131.62 160.59 132.10 160.12 133.16 Z M 159.72 134.09 L 159.31 135.01 C 158.84 136.07 159.33 137.31 160.39 137.77 C 161.45 138.24 162.69 137.76 163.15 136.70 L 163.56 135.77 C 164.02 134.71 163.54 133.47 162.48 133.01 C 161.42 132.54 160.18 133.02 159.72 134.09 Z M 159.31 135.01 L 158.90 135.94 C 158.44 137.00 158.92 138.23 159.98 138.70 C 161.04 139.16 162.28 138.68 162.74 137.62 L 163.15 136.69 C 163.62 135.63 163.13 134.40 162.07 133.93 C 161.01 133.47 159.78 133.95 159.31 135.01 Z M 158.91 135.94 L 158.50 136.87 C 158.04 137.93 158.52 139.17 159.58 139.63 C 160.64 140.09 161.87 139.61 162.34 138.55 L 162.74 137.62 C 163.21 136.56 162.72 135.32 161.66 134.86 C 160.60 134.40 159.37 134.88 158.91 135.94 Z M 158.50 136.88 L 158.11 137.77 C 157.65 138.83 158.13 140.07 159.19 140.53 C 160.25 140.99 161.48 140.51 161.94 139.45 L 162.34 138.55 C 162.80 137.49 162.31 136.25 161.25 135.79 C 160.19 135.33 158.96 135.82 158.50 136.88 Z M 158.11 137.78 L 157.72 138.68 C 157.26 139.74 157.74 140.97 158.80 141.43 C 159.86 141.89 161.09 141.40 161.55 140.34 L 161.94 139.44 C 162.40 138.38 161.92 137.15 160.86 136.69 C 159.80 136.23 158.57 136.72 158.11 137.78 Z M 157.72 138.68 L 157.33 139.59 C 156.87 140.64 157.35 141.87 158.41 142.33 C 159.47 142.79 160.70 142.30 161.16 141.25 L 161.55 140.34 C 162.01 139.28 161.52 138.05 160.46 137.60 C 159.41 137.14 158.18 137.62 157.72 138.68 Z M 157.33 139.59 L 156.93 140.50 C 156.48 141.56 156.96 142.78 158.02 143.24 C 159.08 143.70 160.31 143.21 160.76 142.15 L 161.16 141.24 C 161.61 140.19 161.13 138.96 160.07 138.50 C 159.01 138.05 157.78 138.53 157.33 139.59 Z M 156.94 140.50 L 156.54 141.41 C 156.09 142.47 156.57 143.70 157.63 144.15 C 158.69 144.61 159.91 144.12 160.37 143.07 L 160.76 142.15 C 161.22 141.09 160.73 139.87 159.67 139.41 C 158.62 138.96 157.39 139.44 156.94 140.50 Z M 156.54 141.42 L 156.15 142.33 C 155.69 143.39 156.18 144.61 157.24 145.07 C 158.29 145.52 159.52 145.04 159.97 143.98 L 160.37 143.06 C 160.82 142.01 160.33 140.78 159.28 140.33 C 158.22 139.87 157.00 140.36 156.54 141.42 Z M 156.15 142.34 L 155.75 143.26 C 155.30 144.31 155.78 145.54 156.84 145.99 C 157.89 146.45 159.12 145.96 159.57 144.90 L 159.97 143.98 C 160.42 142.93 159.94 141.70 158.88 141.25 C 157.83 140.79 156.60 141.28 156.15 142.34 Z M 155.75 143.26 L 155.35 144.19 C 154.90 145.24 155.39 146.47 156.44 146.92 C 157.49 147.37 158.72 146.89 159.17 145.83 L 159.57 144.90 C 160.02 143.85 159.54 142.63 158.48 142.17 C 157.43 141.72 156.21 142.21 155.75 143.26 Z M 155.36 144.19 L 154.95 145.13 C 154.50 146.18 154.99 147.40 156.04 147.85 C 157.09 148.31 158.31 147.82 158.76 146.77 L 159.17 145.83 C 159.62 144.78 159.13 143.56 158.08 143.11 C 157.03 142.65 155.81 143.14 155.36 144.19 Z M 154.96 145.13 L 154.55 146.07 C 154.10 147.12 154.58 148.34 155.63 148.79 C 156.68 149.24 157.90 148.76 158.36 147.71 L 158.76 146.77 C 159.22 145.71 158.73 144.50 157.68 144.04 C 156.63 143.59 155.41 144.07 154.96 145.13 Z M 154.55 146.07 L 154.17 146.96 C 153.72 148.01 154.20 149.22 155.25 149.68 C 156.30 150.13 157.52 149.64 157.97 148.59 L 158.35 147.71 C 158.81 146.66 158.32 145.44 157.27 144.99 C 156.22 144.53 155.00 145.02 154.55 146.07 Z M 154.17 146.96 L 153.79 147.84 C 153.34 148.89 153.82 150.10 154.87 150.55 C 155.92 151.01 157.14 150.52 157.59 149.48 L 157.97 148.59 C 158.42 147.55 157.94 146.33 156.89 145.88 C 155.84 145.42 154.62 145.91 154.17 146.96 Z M 153.79 147.84 L 153.41 148.72 C 152.96 149.77 153.44 150.99 154.49 151.44 C 155.54 151.89 156.75 151.41 157.20 150.36 L 157.59 149.47 C 158.04 148.43 157.56 147.21 156.51 146.76 C 155.46 146.31 154.25 146.79 153.79 147.84 Z M 153.41 148.73 L 153.03 149.62 C 152.57 150.67 153.06 151.88 154.10 152.33 C 155.15 152.78 156.36 152.30 156.81 151.26 L 157.20 150.36 C 157.65 149.32 157.17 148.10 156.13 147.65 C 155.08 147.20 153.87 147.68 153.41 148.73 Z M 153.03 149.62 L 152.64 150.53 C 152.19 151.57 152.67 152.78 153.71 153.23 C 154.76 153.69 155.97 153.20 156.42 152.16 L 156.81 151.26 C 157.26 150.21 156.78 149.00 155.74 148.55 C 154.69 148.10 153.48 148.58 153.03 149.62 Z M 152.64 150.53 L 152.25 151.44 C 151.80 152.48 152.28 153.69 153.32 154.14 C 154.36 154.60 155.57 154.11 156.03 153.07 L 156.42 152.16 C 156.87 151.12 156.39 149.90 155.35 149.45 C 154.30 149.00 153.09 149.48 152.64 150.53 Z M 152.25 151.44 L 151.85 152.36 C 151.40 153.40 151.88 154.61 152.92 155.06 C 153.96 155.52 155.17 155.04 155.62 153.99 L 156.02 153.07 C 156.47 152.03 155.99 150.82 154.95 150.37 C 153.91 149.92 152.70 150.40 152.25 151.44 Z M 151.85 152.36 L 151.45 153.30 C 151.00 154.34 151.48 155.55 152.52 156.00 C 153.56 156.45 154.77 155.97 155.22 154.92 L 155.62 153.99 C 156.07 152.95 155.59 151.74 154.55 151.29 C 153.51 150.84 152.30 151.32 151.85 152.36 Z M 151.45 153.30 L 151.04 154.24 C 150.59 155.28 151.07 156.49 152.11 156.94 C 153.15 157.39 154.36 156.91 154.81 155.87 L 155.22 154.92 C 155.67 153.88 155.19 152.68 154.15 152.23 C 153.11 151.78 151.90 152.26 151.45 153.30 Z M 151.05 154.24 L 150.63 155.20 C 150.18 156.24 150.66 157.44 151.70 157.89 C 152.74 158.34 153.95 157.86 154.39 156.82 L 154.81 155.87 C 155.26 154.83 154.78 153.62 153.74 153.17 C 152.70 152.73 151.49 153.21 151.05 154.24 Z M 150.64 155.20 L 150.22 156.17 C 149.77 157.21 150.25 158.41 151.29 158.86 C 152.32 159.31 153.53 158.83 153.97 157.79 L 154.39 156.82 C 154.84 155.78 154.36 154.58 153.32 154.13 C 152.29 153.69 151.08 154.16 150.64 155.20 Z M 150.22 156.17 L 149.83 157.08 C 149.38 158.12 149.86 159.32 150.90 159.77 C 151.93 160.21 153.14 159.73 153.58 158.70 L 153.97 157.79 C 154.42 156.75 153.94 155.55 152.90 155.10 C 151.87 154.66 150.67 155.14 150.22 156.17 Z M 149.83 157.08 L 149.44 157.99 C 149.00 159.02 149.47 160.22 150.51 160.67 C 151.54 161.11 152.74 160.64 153.19 159.60 L 153.58 158.70 C 154.03 157.66 153.55 156.46 152.51 156.02 C 151.48 155.57 150.28 156.05 149.83 157.08 Z M 149.44 157.99 L 149.05 158.90 C 148.61 159.93 149.08 161.13 150.12 161.58 C 151.15 162.02 152.35 161.55 152.80 160.51 L 153.19 159.60 C 153.63 158.57 153.16 157.37 152.12 156.92 C 151.09 156.48 149.89 156.95 149.44 157.99 Z M 149.05 158.90 L 148.66 159.82 C 148.21 160.85 148.69 162.05 149.72 162.49 C 150.76 162.94 151.95 162.46 152.40 161.43 L 152.79 160.51 C 153.24 159.48 152.76 158.28 151.73 157.84 C 150.70 157.39 149.50 157.87 149.05 158.90 Z M 148.66 159.82 L 148.26 160.74 C 147.82 161.77 148.29 162.97 149.33 163.42 C 150.36 163.86 151.55 163.38 152.00 162.35 L 152.40 161.43 C 152.84 160.40 152.36 159.20 151.33 158.76 C 150.30 158.31 149.10 158.79 148.66 159.82 Z M 148.27 160.74 L 147.87 161.67 C 147.42 162.70 147.90 163.90 148.93 164.34 C 149.96 164.78 151.15 164.31 151.59 163.28 L 151.99 162.35 C 152.44 161.32 151.96 160.13 150.93 159.68 C 149.90 159.24 148.71 159.71 148.27 160.74 Z M 147.87 161.67 L 147.47 162.60 C 147.02 163.63 147.50 164.82 148.52 165.26 C 149.55 165.71 150.75 165.24 151.19 164.21 L 151.59 163.28 C 152.04 162.25 151.56 161.06 150.53 160.61 C 149.51 160.17 148.31 160.64 147.87 161.67 Z M 147.47 162.60 L 147.07 163.53 C 146.62 164.55 147.10 165.75 148.12 166.19 C 149.15 166.63 150.34 166.16 150.79 165.14 L 151.19 164.21 C 151.63 163.18 151.16 161.99 150.13 161.54 C 149.11 161.10 147.91 161.57 147.47 162.60 Z M 147.07 163.53 L 146.67 164.45 C 146.23 165.48 146.70 166.67 147.72 167.11 C 148.75 167.56 149.94 167.09 150.38 166.06 L 150.78 165.14 C 151.23 164.11 150.76 162.92 149.73 162.47 C 148.71 162.03 147.52 162.50 147.07 163.53 Z M 146.67 164.45 L 146.27 165.37 C 145.83 166.40 146.30 167.59 147.32 168.03 C 148.34 168.48 149.53 168.01 149.98 166.99 L 150.38 166.06 C 150.82 165.04 150.36 163.85 149.33 163.40 C 148.31 162.96 147.12 163.43 146.67 164.45 Z M 146.28 165.37 L 145.87 166.29 C 145.43 167.31 145.90 168.50 146.92 168.95 C 147.94 169.39 149.13 168.93 149.57 167.90 L 149.97 166.99 C 150.42 165.97 149.95 164.78 148.93 164.33 C 147.91 163.88 146.72 164.35 146.28 165.37 Z M 145.88 166.29 L 145.48 167.20 C 145.03 168.22 145.50 169.41 146.52 169.85 C 147.54 170.30 148.72 169.83 149.17 168.82 L 149.57 167.91 C 150.02 166.89 149.55 165.70 148.53 165.25 C 147.51 164.80 146.32 165.27 145.88 166.29 Z M 145.48 167.20 L 145.07 168.13 C 144.63 169.14 145.09 170.33 146.11 170.78 C 147.12 171.23 148.31 170.76 148.76 169.75 L 149.17 168.82 C 149.62 167.80 149.15 166.61 148.14 166.16 C 147.12 165.72 145.93 166.18 145.48 167.20 Z M 145.08 168.12 L 144.67 169.05 C 144.22 170.07 144.68 171.26 145.69 171.70 C 146.71 172.15 147.90 171.69 148.34 170.68 L 148.75 169.75 C 149.20 168.73 148.74 167.55 147.73 167.10 C 146.71 166.65 145.53 167.11 145.08 168.12 Z M 144.67 169.05 L 144.26 169.98 C 143.81 170.99 144.27 172.17 145.28 172.62 C 146.30 173.07 147.48 172.61 147.93 171.60 L 148.34 170.68 C 148.79 169.67 148.33 168.48 147.32 168.03 C 146.31 167.58 145.12 168.04 144.67 169.05 Z M 144.27 169.97 L 143.86 170.89 C 143.41 171.90 143.86 173.08 144.87 173.53 C 145.88 173.98 147.07 173.53 147.52 172.52 L 147.93 171.60 C 148.38 170.59 147.92 169.41 146.91 168.96 C 145.90 168.51 144.72 168.96 144.27 169.97 Z M 143.86 170.89 L 143.46 171.80 C 143.01 172.81 143.46 173.99 144.47 174.44 C 145.47 174.89 146.66 174.44 147.11 173.43 L 147.51 172.52 C 147.96 171.51 147.51 170.33 146.50 169.88 C 145.50 169.43 144.31 169.88 143.86 170.89 Z M 143.46 171.80 L 143.05 172.71 C 142.60 173.71 143.05 174.89 144.06 175.34 C 145.07 175.79 146.25 175.34 146.70 174.34 L 147.10 173.43 C 147.55 172.43 147.10 171.24 146.10 170.79 C 145.09 170.34 143.91 170.79 143.46 171.80 Z M 143.06 172.71 L 142.65 173.61 C 142.20 174.61 142.65 175.79 143.65 176.24 C 144.66 176.70 145.84 176.25 146.29 175.24 L 146.69 174.34 C 147.14 173.34 146.70 172.16 145.69 171.70 C 144.69 171.25 143.51 171.70 143.06 172.71 Z M 142.65 173.61 L 142.25 174.51 C 141.80 175.51 142.24 176.69 143.24 177.14 C 144.25 177.60 145.43 177.15 145.88 176.15 L 146.28 175.24 C 146.73 174.24 146.29 173.06 145.29 172.61 C 144.28 172.16 143.11 172.61 142.65 173.61 Z M 142.25 174.51 L 141.84 175.42 C 141.39 176.42 141.84 177.59 142.84 178.04 C 143.84 178.50 145.01 178.05 145.47 177.05 L 145.87 176.15 C 146.32 175.15 145.88 173.97 144.88 173.52 C 143.88 173.07 142.70 173.51 142.25 174.51 Z M 141.85 175.42 L 141.44 176.32 C 140.99 177.32 141.43 178.49 142.43 178.95 C 143.43 179.40 144.60 178.95 145.05 177.96 L 145.46 177.05 C 145.91 176.05 145.47 174.88 144.47 174.43 C 143.47 173.98 142.30 174.42 141.85 175.42 Z M 141.44 176.32 L 141.03 177.23 C 140.58 178.23 141.02 179.40 142.02 179.85 C 143.01 180.30 144.19 179.86 144.64 178.86 L 145.05 177.95 C 145.50 176.96 145.06 175.79 144.06 175.33 C 143.07 174.88 141.89 175.33 141.44 176.32 Z M 141.03 177.23 L 140.62 178.14 C 140.17 179.13 140.61 180.30 141.61 180.75 C 142.60 181.20 143.77 180.76 144.22 179.77 L 144.64 178.86 C 145.09 177.87 144.64 176.70 143.65 176.24 C 142.66 175.79 141.48 176.24 141.03 177.23 Z M 140.63 178.14 L 140.22 179.04 C 139.77 180.03 140.21 181.20 141.20 181.65 C 142.19 182.10 143.36 181.66 143.81 180.67 L 144.22 179.77 C 144.67 178.78 144.23 177.61 143.24 177.16 C 142.25 176.71 141.08 177.15 140.63 178.14 Z M 140.22 179.04 L 139.81 179.94 C 139.36 180.93 139.80 182.10 140.79 182.54 C 141.78 182.99 142.95 182.56 143.40 181.57 L 143.81 180.66 C 144.26 179.67 143.82 178.51 142.83 178.06 C 141.84 177.61 140.67 178.05 140.22 179.04 Z M 139.82 179.94 L 139.41 180.84 C 138.96 181.83 139.39 183.00 140.38 183.45 C 141.37 183.90 142.54 183.46 142.99 182.47 L 143.40 181.57 C 143.85 180.58 143.41 179.41 142.42 178.96 C 141.43 178.51 140.27 178.95 139.82 179.94 Z M 139.41 180.84 L 139.00 181.75 C 138.55 182.73 138.98 183.90 139.97 184.35 C 140.95 184.80 142.12 184.36 142.57 183.38 L 142.98 182.47 C 143.43 181.48 143.00 180.32 142.01 179.87 C 141.02 179.42 139.86 179.86 139.41 180.84 Z M 139.00 181.75 L 138.59 182.66 C 138.14 183.64 138.57 184.80 139.55 185.25 C 140.54 185.70 141.70 185.27 142.15 184.29 L 142.56 183.38 C 143.01 182.39 142.58 181.23 141.60 180.78 C 140.61 180.33 139.45 180.76 139.00 181.75 Z M 138.59 182.66 L 138.17 183.57 C 137.72 184.55 138.15 185.71 139.13 186.16 C 140.11 186.61 141.27 186.18 141.73 185.20 L 142.14 184.29 C 142.59 183.31 142.16 182.15 141.18 181.70 C 140.20 181.24 139.04 181.67 138.59 182.66 Z M 138.18 183.57 L 137.75 184.48 C 137.30 185.46 137.73 186.62 138.71 187.07 C 139.69 187.52 140.85 187.09 141.30 186.11 L 141.72 185.20 C 142.17 184.22 141.74 183.06 140.77 182.61 C 139.79 182.16 138.63 182.59 138.18 183.57 Z M 137.76 184.48 L 137.34 185.39 C 136.88 186.36 137.31 187.52 138.28 187.98 C 139.26 188.43 140.42 188.00 140.87 187.03 L 141.30 186.12 C 141.75 185.14 141.32 183.98 140.35 183.53 C 139.37 183.08 138.21 183.50 137.76 184.48 Z M 137.34 185.39 L 136.92 186.30 C 136.46 187.27 136.88 188.43 137.86 188.88 C 138.83 189.34 139.99 188.92 140.44 187.94 L 140.87 187.03 C 141.32 186.06 140.90 184.90 139.93 184.45 C 138.95 183.99 137.80 184.41 137.34 185.39 Z M 136.92 186.30 L 136.49 187.21 C 136.04 188.18 136.46 189.33 137.43 189.79 C 138.40 190.25 139.55 189.83 140.01 188.86 L 140.44 187.95 C 140.89 186.97 140.47 185.82 139.50 185.36 C 138.53 184.91 137.38 185.33 136.92 186.30 Z M 136.50 187.20 L 136.07 188.11 C 135.61 189.08 136.02 190.24 136.99 190.69 C 137.96 191.15 139.12 190.74 139.57 189.77 L 140.00 188.86 C 140.46 187.89 140.05 186.74 139.08 186.28 C 138.11 185.82 136.96 186.24 136.50 187.20 Z M 136.07 188.11 L 135.64 189.02 C 135.18 189.98 135.59 191.14 136.56 191.60 C 137.52 192.06 138.68 191.65 139.13 190.68 L 139.57 189.77 C 140.03 188.81 139.62 187.66 138.65 187.20 C 137.69 186.74 136.53 187.15 136.07 188.11 Z M 135.65 189.01 L 135.21 189.92 C 134.75 190.88 135.16 192.03 136.12 192.49 C 137.08 192.95 138.23 192.55 138.70 191.59 L 139.13 190.69 C 139.59 189.72 139.19 188.57 138.22 188.11 C 137.26 187.65 136.11 188.05 135.65 189.01 Z M 135.22 189.91 L 134.78 190.81 C 134.32 191.77 134.72 192.92 135.68 193.39 C 136.64 193.85 137.79 193.45 138.25 192.49 L 138.69 191.59 C 139.15 190.63 138.75 189.48 137.79 189.02 C 136.84 188.55 135.68 188.96 135.22 189.91 Z M 134.79 190.81 L 134.35 191.71 C 133.89 192.66 134.28 193.82 135.24 194.28 C 136.19 194.75 137.34 194.35 137.81 193.39 L 138.25 192.50 C 138.71 191.54 138.32 190.39 137.36 189.92 C 136.41 189.46 135.26 189.86 134.79 190.81 Z M 134.36 191.71 L 133.92 192.60 C 133.45 193.55 133.84 194.70 134.80 195.17 C 135.75 195.64 136.90 195.25 137.36 194.29 L 137.80 193.40 C 138.27 192.45 137.88 191.30 136.93 190.83 C 135.98 190.36 134.83 190.75 134.36 191.71 Z M 133.92 192.60 L 133.48 193.50 C 133.01 194.44 133.40 195.59 134.35 196.06 C 135.30 196.53 136.45 196.14 136.92 195.19 L 137.36 194.30 C 137.83 193.35 137.44 192.20 136.49 191.73 C 135.54 191.26 134.39 191.65 133.92 192.60 Z M 133.49 193.49 L 133.04 194.39 C 132.57 195.33 132.96 196.48 133.90 196.95 C 134.85 197.42 135.99 197.04 136.46 196.09 L 136.91 195.20 C 137.38 194.25 137.00 193.10 136.05 192.63 C 135.10 192.16 133.96 192.55 133.49 193.49 Z M 133.05 194.38 L 132.60 195.28 C 132.13 196.22 132.51 197.37 133.45 197.84 C 134.39 198.31 135.54 197.93 136.01 196.99 L 136.46 196.09 C 136.93 195.15 136.55 194.00 135.61 193.53 C 134.67 193.06 133.52 193.44 133.05 194.38 Z M 132.61 195.27 L 132.16 196.17 C 131.68 197.11 132.06 198.25 133.00 198.72 C 133.94 199.20 135.08 198.82 135.56 197.88 L 136.01 196.99 C 136.48 196.05 136.10 194.90 135.16 194.43 C 134.22 193.96 133.08 194.34 132.61 195.27 Z M 132.16 196.16 L 131.71 197.06 C 131.23 197.99 131.61 199.14 132.54 199.61 C 133.48 200.09 134.62 199.71 135.10 198.78 L 135.55 197.88 C 136.03 196.95 135.65 195.80 134.72 195.33 C 133.78 194.85 132.64 195.23 132.16 196.16 Z M 131.71 197.05 L 131.26 197.95 C 130.78 198.88 131.15 200.02 132.09 200.50 C 133.02 200.97 134.16 200.60 134.64 199.67 L 135.09 198.78 C 135.57 197.84 135.20 196.70 134.27 196.23 C 133.33 195.75 132.19 196.12 131.71 197.05 Z M 131.26 197.94 L 130.81 198.83 C 130.33 199.76 130.70 200.91 131.63 201.38 C 132.56 201.86 133.70 201.49 134.18 200.56 L 134.63 199.67 C 135.11 198.74 134.74 197.60 133.81 197.12 C 132.88 196.65 131.74 197.01 131.26 197.94 Z M 130.81 198.83 L 130.35 199.73 C 129.87 200.65 130.24 201.79 131.17 202.27 C 132.09 202.75 133.23 202.39 133.71 201.46 L 134.17 200.56 C 134.65 199.64 134.29 198.50 133.36 198.02 C 132.43 197.54 131.29 197.90 130.81 198.83 Z M 130.36 199.72 L 129.89 200.62 C 129.41 201.55 129.77 202.69 130.70 203.17 C 131.62 203.64 132.76 203.28 133.24 202.36 L 133.71 201.46 C 134.18 200.54 133.82 199.40 132.90 198.92 C 131.97 198.44 130.84 198.80 130.36 199.72 Z M 129.90 200.62 L 129.43 201.52 C 128.95 202.44 129.31 203.58 130.23 204.06 C 131.15 204.54 132.29 204.18 132.77 203.26 L 133.23 202.36 C 133.71 201.44 133.36 200.30 132.44 199.82 C 131.51 199.34 130.38 199.70 129.90 200.62 Z M 129.43 201.52 L 128.96 202.41 C 128.48 203.33 128.84 204.47 129.76 204.95 C 130.67 205.43 131.81 205.08 132.29 204.16 L 132.76 203.26 C 133.24 202.34 132.89 201.21 131.97 200.73 C 131.05 200.25 129.92 200.60 129.43 201.52 Z M 128.97 202.41 L 128.50 203.30 C 128.02 204.22 128.37 205.35 129.28 205.84 C 130.20 206.32 131.33 205.97 131.81 205.05 L 132.28 204.16 C 132.77 203.25 132.42 202.11 131.50 201.63 C 130.59 201.15 129.45 201.50 128.97 202.41 Z M 128.50 203.30 L 128.03 204.19 C 127.55 205.10 127.89 206.23 128.80 206.72 C 129.72 207.20 130.85 206.86 131.33 205.95 L 131.81 205.06 C 132.29 204.15 131.95 203.01 131.03 202.53 C 130.12 202.04 128.99 202.39 128.50 203.30 Z M 128.04 204.19 L 127.56 205.07 C 127.08 205.98 127.42 207.11 128.33 207.60 C 129.23 208.09 130.37 207.74 130.85 206.84 L 131.33 205.95 C 131.81 205.04 131.47 203.91 130.56 203.42 C 129.66 202.94 128.52 203.28 128.04 204.19 Z M 127.57 205.07 L 127.09 205.95 C 126.61 206.85 126.94 207.98 127.85 208.47 C 128.75 208.96 129.88 208.62 130.37 207.72 L 130.85 206.84 C 131.34 205.93 131.00 204.80 130.09 204.32 C 129.19 203.83 128.06 204.16 127.57 205.07 Z M 127.10 205.94 L 126.62 206.82 C 126.13 207.72 126.47 208.85 127.37 209.34 C 128.27 209.83 129.40 209.50 129.89 208.60 L 130.36 207.72 C 130.86 206.82 130.52 205.69 129.62 205.20 C 128.72 204.71 127.59 205.04 127.10 205.94 Z M 126.63 206.81 L 126.15 207.68 C 125.66 208.58 125.99 209.71 126.89 210.20 C 127.78 210.69 128.91 210.37 129.40 209.47 L 129.88 208.60 C 130.37 207.70 130.05 206.58 129.15 206.08 C 128.25 205.59 127.13 205.92 126.63 206.81 Z M 126.16 207.68 L 125.68 208.54 C 125.19 209.43 125.51 210.56 126.40 211.05 C 127.30 211.55 128.42 211.23 128.92 210.33 L 129.40 209.47 C 129.89 208.58 129.57 207.45 128.68 206.96 C 127.78 206.46 126.66 206.78 126.16 207.68 Z M 125.69 208.53 L 125.21 209.38 C 124.71 210.27 125.03 211.40 125.92 211.90 C 126.81 212.39 127.93 212.08 128.43 211.19 L 128.91 210.34 C 129.41 209.45 129.09 208.32 128.21 207.82 C 127.32 207.32 126.19 207.64 125.69 208.53 Z M 125.22 209.38 L 124.72 210.25 C 124.22 211.14 124.53 212.26 125.41 212.77 C 126.30 213.27 127.42 212.96 127.93 212.07 L 128.43 211.20 C 128.93 210.31 128.62 209.19 127.73 208.68 C 126.85 208.18 125.72 208.49 125.22 209.38 Z M 124.73 210.25 L 124.22 211.13 C 123.72 212.01 124.02 213.14 124.90 213.64 C 125.78 214.15 126.90 213.85 127.41 212.97 L 127.92 212.08 C 128.42 211.20 128.12 210.08 127.24 209.57 C 126.36 209.06 125.24 209.37 124.73 210.25 Z M 124.23 211.13 L 123.72 212.00 C 123.21 212.88 123.51 214.00 124.39 214.51 C 125.26 215.02 126.38 214.72 126.89 213.85 L 127.40 212.97 C 127.91 212.09 127.61 210.97 126.74 210.46 C 125.86 209.95 124.74 210.25 124.23 211.13 Z M 123.73 212.00 L 123.22 212.87 C 122.71 213.74 123.00 214.86 123.87 215.37 C 124.74 215.88 125.86 215.59 126.37 214.72 L 126.88 213.85 C 127.40 212.98 127.10 211.86 126.23 211.35 C 125.36 210.84 124.24 211.13 123.73 212.00 Z M 123.23 212.86 L 122.72 213.72 C 122.20 214.59 122.49 215.71 123.35 216.23 C 124.22 216.74 125.34 216.45 125.86 215.59 L 126.37 214.73 C 126.88 213.86 126.59 212.74 125.73 212.22 C 124.86 211.71 123.74 212.00 123.23 212.86 Z M 122.72 213.72 L 122.21 214.57 C 121.69 215.44 121.98 216.56 122.84 217.07 C 123.70 217.59 124.82 217.31 125.34 216.45 L 125.85 215.59 C 126.36 214.73 126.08 213.61 125.22 213.09 C 124.36 212.58 123.24 212.86 122.72 213.72 Z M 122.22 214.57 L 121.71 215.42 C 121.19 216.28 121.46 217.40 122.32 217.91 C 123.18 218.43 124.30 218.16 124.82 217.30 L 125.33 216.45 C 125.85 215.59 125.57 214.47 124.71 213.96 C 123.85 213.44 122.74 213.71 122.22 214.57 Z M 121.71 215.42 L 121.20 216.26 C 120.68 217.12 120.95 218.23 121.80 218.75 C 122.66 219.27 123.77 219.00 124.29 218.15 L 124.81 217.30 C 125.33 216.45 125.06 215.33 124.20 214.81 C 123.35 214.29 122.23 214.56 121.71 215.42 Z M 121.20 216.26 L 120.69 217.10 C 120.17 217.95 120.43 219.07 121.28 219.59 C 122.13 220.11 123.25 219.84 123.77 218.99 L 124.29 218.15 C 124.81 217.30 124.54 216.19 123.69 215.66 C 122.84 215.14 121.73 215.41 121.20 216.26 Z M 120.69 217.10 L 120.18 217.94 C 119.65 218.79 119.91 219.90 120.76 220.42 C 121.61 220.94 122.72 220.68 123.24 219.84 L 123.76 219.00 C 124.29 218.15 124.02 217.04 123.18 216.51 C 122.33 215.99 121.22 216.25 120.69 217.10 Z M 120.18 217.94 L 119.66 218.77 C 119.14 219.62 119.39 220.73 120.24 221.25 C 121.08 221.78 122.19 221.52 122.72 220.68 L 123.24 219.84 C 123.76 218.99 123.50 217.88 122.66 217.36 C 121.82 216.83 120.71 217.09 120.18 217.94 Z M 119.67 218.77 L 119.15 219.61 C 118.62 220.45 118.88 221.55 119.72 222.08 C 120.56 222.61 121.66 222.35 122.19 221.51 L 122.71 220.68 C 123.24 219.84 122.98 218.73 122.14 218.20 C 121.30 217.68 120.19 217.93 119.67 218.77 Z M 119.15 219.60 L 118.63 220.43 C 118.10 221.27 118.35 222.38 119.19 222.90 C 120.03 223.43 121.13 223.18 121.66 222.34 L 122.18 221.51 C 122.71 220.67 122.46 219.57 121.62 219.04 C 120.78 218.52 119.68 218.77 119.15 219.60 Z M 118.64 220.43 L 118.11 221.26 C 117.58 222.09 117.83 223.20 118.66 223.72 C 119.49 224.25 120.60 224.01 121.13 223.17 L 121.65 222.34 C 122.18 221.51 121.94 220.41 121.10 219.88 C 120.27 219.35 119.17 219.60 118.64 220.43 Z M 118.12 221.25 L 117.59 222.08 C 117.05 222.91 117.29 224.01 118.12 224.55 C 118.95 225.08 120.05 224.84 120.59 224.01 L 121.12 223.18 C 121.65 222.35 121.41 221.25 120.58 220.72 C 119.75 220.19 118.65 220.43 118.12 221.25 Z M 117.60 222.08 L 117.06 222.91 C 116.52 223.73 116.75 224.83 117.58 225.37 C 118.40 225.90 119.50 225.67 120.04 224.85 L 120.58 224.02 C 121.11 223.19 120.88 222.09 120.05 221.56 C 119.23 221.02 118.13 221.25 117.60 222.08 Z M 117.07 222.90 L 116.52 223.73 C 115.98 224.55 116.20 225.65 117.02 226.19 C 117.84 226.72 118.94 226.50 119.48 225.68 L 120.03 224.85 C 120.57 224.04 120.34 222.94 119.52 222.40 C 118.71 221.86 117.61 222.08 117.07 222.90 Z M 116.53 223.72 L 115.97 224.55 C 115.43 225.36 115.64 226.46 116.46 227.00 C 117.27 227.55 118.37 227.33 118.91 226.52 L 119.47 225.69 C 120.01 224.88 119.80 223.78 118.98 223.24 C 118.17 222.69 117.07 222.91 116.53 223.72 Z M 115.98 224.54 L 115.42 225.37 C 114.87 226.17 115.07 227.27 115.88 227.82 C 116.68 228.37 117.78 228.17 118.33 227.36 L 118.90 226.53 C 119.45 225.73 119.24 224.63 118.44 224.08 C 117.63 223.53 116.54 223.73 115.98 224.54 Z M 115.43 225.36 L 114.85 226.19 C 114.29 226.98 114.49 228.08 115.29 228.64 C 116.08 229.19 117.18 229.00 117.74 228.20 L 118.32 227.37 C 118.87 226.57 118.68 225.48 117.88 224.92 C 117.08 224.36 115.99 224.56 115.43 225.36 Z M 114.86 226.17 L 114.27 227.00 C 113.71 227.79 113.89 228.89 114.68 229.45 C 115.47 230.02 116.57 229.83 117.13 229.04 L 117.72 228.21 C 118.29 227.42 118.10 226.33 117.32 225.76 C 116.53 225.20 115.43 225.38 114.86 226.17 Z M 114.29 226.99 L 113.68 227.82 C 113.11 228.60 113.28 229.70 114.06 230.27 C 114.84 230.84 115.94 230.67 116.51 229.89 L 117.12 229.06 C 117.69 228.28 117.52 227.18 116.74 226.61 C 115.96 226.04 114.86 226.21 114.29 226.99 Z M 113.70 227.80 L 113.08 228.63 C 112.50 229.40 112.66 230.50 113.43 231.07 C 114.20 231.65 115.30 231.50 115.88 230.72 L 116.50 229.90 C 117.07 229.13 116.92 228.03 116.14 227.45 C 115.37 226.87 114.28 227.03 113.70 227.80 Z M 113.10 228.61 L 112.47 229.43 C 111.88 230.19 112.03 231.28 112.79 231.87 C 113.55 232.46 114.65 232.32 115.24 231.55 L 115.86 230.74 C 116.45 229.98 116.31 228.88 115.54 228.29 C 114.78 227.71 113.69 227.85 113.10 228.61 Z M 112.49 229.41 L 111.85 230.21 C 111.25 230.97 111.38 232.06 112.13 232.66 C 112.88 233.26 113.98 233.13 114.58 232.38 L 115.22 231.57 C 115.81 230.82 115.69 229.72 114.93 229.13 C 114.18 228.53 113.09 228.65 112.49 229.41 Z M 111.87 230.19 L 111.22 230.99 C 110.61 231.73 110.72 232.83 111.46 233.43 C 112.20 234.04 113.29 233.94 113.90 233.19 L 114.55 232.40 C 115.16 231.66 115.06 230.56 114.31 229.95 C 113.57 229.35 112.48 229.45 111.87 230.19 Z M 111.24 230.97 L 110.57 231.75 C 109.95 232.48 110.04 233.57 110.77 234.19 C 111.49 234.81 112.59 234.73 113.21 234.00 L 113.88 233.22 C 114.50 232.49 114.41 231.40 113.68 230.78 C 112.96 230.15 111.86 230.24 111.24 230.97 Z M 110.60 231.73 L 109.92 232.49 C 109.29 233.20 109.35 234.29 110.06 234.93 C 110.77 235.56 111.87 235.50 112.50 234.79 L 113.18 234.02 C 113.82 233.31 113.75 232.22 113.04 231.59 C 112.33 230.95 111.24 231.01 110.60 231.73 Z M 109.95 232.46 L 109.26 233.20 C 108.61 233.89 108.65 234.99 109.34 235.64 C 110.04 236.29 111.13 236.25 111.78 235.55 L 112.47 234.82 C 113.12 234.12 113.08 233.03 112.39 232.38 C 111.69 231.73 110.60 231.76 109.95 232.46 Z M 109.30 233.17 L 108.59 233.88 C 107.93 234.56 107.93 235.64 108.61 236.31 C 109.28 236.98 110.37 236.97 111.04 236.30 L 111.74 235.59 C 112.41 234.91 112.40 233.82 111.73 233.15 C 111.05 232.49 109.96 232.49 109.30 233.17 Z M 108.63 233.85 L 107.92 234.53 C 107.23 235.18 107.21 236.27 107.86 236.95 C 108.52 237.64 109.60 237.66 110.29 237.01 L 111.00 236.33 C 111.69 235.68 111.71 234.59 111.06 233.90 C 110.41 233.22 109.32 233.19 108.63 233.85 Z M 107.97 234.49 L 107.24 235.13 C 106.54 235.76 106.47 236.84 107.10 237.55 C 107.73 238.26 108.81 238.32 109.52 237.69 L 110.24 237.05 C 110.95 236.42 111.01 235.34 110.38 234.63 C 109.75 233.92 108.67 233.86 107.97 234.49 Z M 107.30 235.09 L 106.56 235.70 C 105.84 236.29 105.73 237.37 106.33 238.10 C 106.93 238.83 108.01 238.93 108.74 238.33 L 109.47 237.73 C 110.20 237.13 110.30 236.05 109.70 235.33 C 109.10 234.60 108.02 234.49 107.30 235.09 Z M 106.63 235.65 L 105.87 236.22 C 105.12 236.79 104.97 237.85 105.54 238.61 C 106.10 239.36 107.17 239.51 107.92 238.94 L 108.67 238.37 C 109.43 237.81 109.58 236.74 109.01 235.99 C 108.44 235.24 107.38 235.09 106.63 235.65 Z M 105.95 236.17 L 105.07 236.77 C 104.29 237.29 104.09 238.35 104.61 239.12 C 105.14 239.90 106.19 240.10 106.97 239.58 L 107.85 238.99 C 108.62 238.46 108.83 237.41 108.30 236.63 C 107.78 235.85 106.72 235.65 105.95 236.17 Z M 105.15 236.73 L 104.26 237.26 C 103.47 237.74 103.21 238.78 103.69 239.58 C 104.17 240.38 105.21 240.63 106.01 240.15 L 106.89 239.62 C 107.69 239.14 107.95 238.10 107.47 237.30 C 106.99 236.50 105.95 236.24 105.15 236.73 Z M 104.34 237.23 L 103.45 237.71 C 102.63 238.15 102.32 239.16 102.76 239.98 C 103.20 240.80 104.22 241.11 105.04 240.67 L 105.93 240.19 C 106.75 239.75 107.05 238.73 106.62 237.91 C 106.18 237.09 105.16 236.79 104.34 237.23 Z M 103.51 237.68 L 102.61 238.11 C 101.78 238.52 101.43 239.52 101.83 240.35 C 102.24 241.18 103.24 241.53 104.07 241.13 L 104.97 240.69 C 105.80 240.29 106.15 239.29 105.75 238.46 C 105.35 237.63 104.35 237.28 103.51 237.68 Z M 102.67 238.10 L 101.77 238.49 C 100.93 238.86 100.54 239.84 100.91 240.68 C 101.28 241.53 102.26 241.91 103.10 241.54 L 104.01 241.15 C 104.85 240.78 105.23 239.80 104.87 238.95 C 104.50 238.11 103.52 237.73 102.67 238.10 Z M 101.82 238.48 L 100.91 238.84 C 100.06 239.18 99.65 240.15 99.98 241.00 C 100.32 241.85 101.29 242.26 102.14 241.92 L 103.05 241.55 C 103.90 241.21 104.31 240.25 103.97 239.40 C 103.63 238.55 102.67 238.14 101.82 238.48 Z M 100.95 238.84 L 100.03 239.18 C 99.18 239.49 98.75 240.44 99.06 241.30 C 99.38 242.15 100.33 242.58 101.18 242.27 L 102.10 241.93 C 102.95 241.61 103.38 240.66 103.07 239.81 C 102.75 238.96 101.80 238.52 100.95 238.84 Z M 100.06 239.18 L 99.15 239.50 C 98.29 239.80 97.84 240.73 98.14 241.59 C 98.44 242.44 99.38 242.89 100.23 242.59 L 101.15 242.27 C 102.00 241.97 102.45 241.03 102.15 240.18 C 101.85 239.33 100.92 238.88 100.06 239.18 Z M 99.17 239.50 L 98.24 239.81 C 97.39 240.10 96.93 241.03 97.22 241.88 C 97.51 242.73 98.44 243.19 99.29 242.90 L 100.21 242.59 C 101.06 242.30 101.52 241.38 101.23 240.52 C 100.94 239.67 100.02 239.21 99.17 239.50 Z M 98.25 239.81 L 97.71 240.00 C 96.86 240.28 96.40 241.20 96.69 242.05 C 96.97 242.90 97.89 243.36 98.74 243.08 L 99.28 242.90 C 100.13 242.61 100.59 241.69 100.31 240.84 C 100.02 239.99 99.10 239.53 98.25 239.81 Z"
      fill="black"
      fill-rule="nonzero" /><path d="M 127.35 98.56 L 126.98 97.16 C 126.74 96.24 125.80 95.69 124.87 95.93 C 123.95 96.17 123.40 97.11 123.64 98.03 L 124.01 99.43 C 124.25 100.35 125.19 100.90 126.11 100.66 C 127.04 100.42 127.59 99.48 127.35 98.56 Z M 127.01 97.16 L 126.65 95.79 C 126.41 94.85 125.45 94.29 124.51 94.53 C 123.58 94.77 123.02 95.73 123.26 96.67 L 123.62 98.04 C 123.86 98.97 124.82 99.53 125.75 99.29 C 126.69 99.05 127.25 98.09 127.01 97.16 Z M 126.68 95.78 L 126.34 94.47 C 126.09 93.52 125.13 92.94 124.18 93.19 C 123.23 93.43 122.65 94.40 122.90 95.35 L 123.24 96.67 C 123.48 97.62 124.45 98.19 125.40 97.95 C 126.35 97.70 126.92 96.73 126.68 95.78 Z M 126.36 94.47 L 126.05 93.23 C 125.81 92.27 124.83 91.68 123.87 91.92 C 122.90 92.17 122.32 93.14 122.56 94.11 L 122.87 95.35 C 123.11 96.31 124.09 96.90 125.06 96.66 C 126.02 96.41 126.61 95.44 126.36 94.47 Z M 126.08 93.24 L 125.81 92.11 C 125.57 91.13 124.58 90.53 123.60 90.76 C 122.62 91.00 122.02 91.99 122.26 92.97 L 122.53 94.10 C 122.77 95.08 123.76 95.68 124.74 95.45 C 125.72 95.21 126.32 94.22 126.08 93.24 Z M 125.84 92.13 L 125.61 91.13 C 125.38 90.13 124.39 89.51 123.39 89.73 C 122.40 89.96 121.77 90.95 122.00 91.95 L 122.23 92.95 C 122.46 93.95 123.45 94.57 124.45 94.34 C 125.44 94.12 126.07 93.12 125.84 92.13 Z M 125.64 91.16 L 125.47 90.32 C 125.26 89.31 124.27 88.65 123.25 88.86 C 122.24 89.07 121.59 90.06 121.79 91.08 L 121.97 91.92 C 122.18 92.93 123.17 93.59 124.18 93.38 C 125.20 93.17 125.85 92.18 125.64 91.16 Z M 125.51 90.39 L 125.40 89.73 C 125.23 88.70 124.25 88.00 123.21 88.17 C 122.18 88.34 121.48 89.32 121.65 90.36 L 121.76 91.01 C 121.93 92.05 122.91 92.75 123.94 92.58 C 124.98 92.40 125.68 91.42 125.51 90.39 Z M 125.44 89.89 L 125.41 89.45 C 125.32 88.38 124.39 87.59 123.33 87.68 C 122.27 87.76 121.48 88.69 121.57 89.75 L 121.60 90.20 C 121.69 91.26 122.62 92.05 123.68 91.96 C 124.74 91.88 125.53 90.95 125.44 89.89 Z M 125.39 90.04 L 125.44 89.83 C 125.68 88.78 125.02 87.73 123.97 87.49 C 122.92 87.25 121.88 87.91 121.63 88.96 L 121.59 89.16 C 121.34 90.21 122.00 91.26 123.05 91.50 C 124.10 91.74 125.15 91.09 125.39 90.04 Z M 122.74 91.19 L 122.89 91.26 C 123.89 91.70 125.05 91.25 125.49 90.26 C 125.93 89.26 125.48 88.10 124.48 87.66 L 124.33 87.59 C 123.34 87.15 122.17 87.60 121.73 88.60 C 121.30 89.59 121.75 90.75 122.74 91.19 Z M 122.08 90.62 L 122.34 90.97 C 122.98 91.85 124.21 92.05 125.10 91.41 C 125.98 90.77 126.18 89.54 125.54 88.65 L 125.29 88.30 C 124.65 87.42 123.42 87.22 122.53 87.86 C 121.64 88.50 121.45 89.73 122.08 90.62 Z M 122.21 90.79 L 122.55 91.39 C 123.09 92.34 124.31 92.67 125.26 92.13 C 126.22 91.59 126.55 90.37 126.01 89.42 L 125.67 88.82 C 125.12 87.87 123.91 87.54 122.96 88.08 C 122.00 88.62 121.67 89.84 122.21 90.79 Z M 122.50 91.31 L 122.91 92.12 C 123.42 93.10 124.62 93.49 125.61 92.98 C 126.59 92.48 126.97 91.28 126.47 90.29 L 126.05 89.49 C 125.55 88.51 124.35 88.12 123.36 88.62 C 122.38 89.13 122.00 90.33 122.50 91.31 Z M 122.89 92.09 L 123.37 93.07 C 123.85 94.07 125.05 94.48 126.05 94.00 C 127.05 93.51 127.46 92.31 126.98 91.31 L 126.50 90.33 C 126.01 89.33 124.81 88.92 123.81 89.40 C 122.82 89.89 122.40 91.09 122.89 92.09 Z M 123.35 93.06 L 123.88 94.18 C 124.36 95.19 125.56 95.62 126.57 95.15 C 127.58 94.67 128.01 93.47 127.53 92.46 L 127.00 91.33 C 126.52 90.32 125.32 89.89 124.31 90.37 C 123.30 90.84 122.87 92.05 123.35 93.06 Z M 123.87 94.18 L 124.45 95.42 C 124.92 96.44 126.13 96.87 127.14 96.40 C 128.16 95.93 128.60 94.72 128.12 93.71 L 127.54 92.47 C 127.07 91.45 125.86 91.01 124.85 91.48 C 123.83 91.96 123.39 93.16 123.87 94.18 Z M 124.44 95.42 L 125.05 96.74 C 125.52 97.76 126.73 98.20 127.75 97.73 C 128.77 97.26 129.22 96.05 128.74 95.02 L 128.13 93.71 C 127.66 92.68 126.45 92.24 125.43 92.71 C 124.41 93.19 123.96 94.40 124.44 95.42 Z M 125.04 96.75 L 125.66 98.09 C 126.14 99.11 127.36 99.56 128.38 99.08 C 129.41 98.60 129.85 97.39 129.38 96.36 L 128.75 95.02 C 128.28 93.99 127.06 93.55 126.03 94.03 C 125.01 94.50 124.56 95.72 125.04 96.75 Z M 125.66 98.09 L 126.11 99.05 C 126.59 100.07 127.81 100.52 128.84 100.04 C 129.86 99.55 130.31 98.33 129.83 97.31 L 129.38 96.35 C 128.90 95.33 127.68 94.88 126.65 95.36 C 125.62 95.84 125.18 97.07 125.66 98.09 Z M 126.11 99.05 L 126.56 100.01 C 127.04 101.03 128.27 101.47 129.29 100.99 C 130.32 100.51 130.76 99.28 130.27 98.26 L 129.82 97.30 C 129.34 96.27 128.12 95.84 127.09 96.32 C 126.06 96.80 125.62 98.03 126.11 99.05 Z M 126.56 100.01 L 127.01 100.97 C 127.50 101.99 128.73 102.43 129.75 101.94 C 130.78 101.46 131.21 100.23 130.73 99.21 L 130.27 98.25 C 129.79 97.23 128.56 96.79 127.54 97.28 C 126.51 97.76 126.07 98.99 126.56 100.01 Z M 127.01 100.97 L 127.47 101.93 C 127.96 102.95 129.18 103.38 130.21 102.90 C 131.23 102.41 131.67 101.18 131.18 100.15 L 130.73 99.20 C 130.24 98.18 129.01 97.74 127.98 98.23 C 126.96 98.72 126.53 99.95 127.01 100.97 Z M 127.47 101.93 L 127.92 102.87 C 128.41 103.90 129.64 104.33 130.67 103.84 C 131.69 103.35 132.12 102.12 131.63 101.10 L 131.18 100.15 C 130.69 99.13 129.46 98.69 128.43 99.19 C 127.41 99.68 126.98 100.91 127.47 101.93 Z M 127.92 102.88 L 128.37 103.81 C 128.87 104.84 130.10 105.27 131.12 104.77 C 132.15 104.28 132.58 103.05 132.08 102.03 L 131.63 101.09 C 131.14 100.07 129.91 99.64 128.88 100.13 C 127.86 100.63 127.43 101.86 127.92 102.88 Z M 128.38 103.82 L 128.82 104.74 C 129.32 105.76 130.55 106.19 131.57 105.69 C 132.60 105.20 133.02 103.97 132.53 102.94 L 132.08 102.02 C 131.59 101.00 130.35 100.57 129.33 101.07 C 128.31 101.56 127.88 102.79 128.38 103.82 Z M 128.82 104.74 L 129.26 105.65 C 129.76 106.67 131.00 107.10 132.02 106.60 C 133.04 106.10 133.47 104.87 132.97 103.85 L 132.53 102.94 C 132.03 101.92 130.80 101.49 129.77 101.99 C 128.75 102.49 128.33 103.72 128.82 104.74 Z M 129.27 105.65 L 129.70 106.54 C 130.20 107.56 131.43 107.98 132.46 107.48 C 133.48 106.98 133.90 105.75 133.40 104.73 L 132.97 103.84 C 132.47 102.82 131.23 102.40 130.21 102.90 C 129.19 103.40 128.77 104.63 129.27 105.65 Z M 129.70 106.54 L 130.12 107.41 C 130.63 108.43 131.86 108.85 132.88 108.35 C 133.91 107.85 134.33 106.61 133.82 105.59 L 133.40 104.72 C 132.90 103.70 131.66 103.28 130.64 103.78 C 129.62 104.29 129.20 105.52 129.70 106.54 Z M 130.13 107.41 L 130.54 108.25 C 131.04 109.27 132.28 109.69 133.30 109.18 C 134.32 108.68 134.74 107.44 134.24 106.42 L 133.82 105.58 C 133.32 104.56 132.08 104.14 131.06 104.65 C 130.04 105.15 129.62 106.39 130.13 107.41 Z M 130.54 108.25 L 130.94 109.06 C 131.45 110.08 132.69 110.50 133.71 109.99 C 134.73 109.49 135.14 108.25 134.64 107.23 L 134.24 106.42 C 133.73 105.40 132.49 104.98 131.47 105.49 C 130.45 105.99 130.03 107.23 130.54 108.25 Z M 130.94 109.07 L 131.33 109.85 C 131.84 110.87 133.08 111.28 134.10 110.77 C 135.12 110.26 135.54 109.02 135.03 108.00 L 134.64 107.22 C 134.13 106.20 132.89 105.79 131.87 106.30 C 130.85 106.81 130.43 108.05 130.94 109.07 Z M 131.33 109.85 L 131.86 110.91 C 132.38 111.93 133.62 112.34 134.64 111.83 C 135.66 111.32 136.07 110.08 135.56 109.06 L 135.02 108.00 C 134.51 106.98 133.27 106.57 132.25 107.08 C 131.23 107.59 130.82 108.83 131.33 109.85 Z M 131.87 110.91 L 132.37 111.91 C 132.88 112.93 134.13 113.34 135.14 112.82 C 136.16 112.31 136.57 111.07 136.06 110.05 L 135.55 109.05 C 135.04 108.04 133.80 107.63 132.78 108.14 C 131.76 108.65 131.35 109.90 131.87 110.91 Z M 132.37 111.91 L 132.85 112.85 C 133.36 113.87 134.61 114.28 135.62 113.76 C 136.64 113.25 137.05 112.00 136.53 110.99 L 136.05 110.05 C 135.54 109.03 134.30 108.62 133.28 109.14 C 132.26 109.65 131.86 110.90 132.37 111.91 Z M 132.85 112.86 L 133.31 113.75 C 133.82 114.77 135.06 115.18 136.08 114.66 C 137.10 114.14 137.50 112.90 136.99 111.88 L 136.53 110.99 C 136.01 109.97 134.77 109.56 133.76 110.08 C 132.74 110.60 132.33 111.84 132.85 112.86 Z M 133.31 113.75 L 133.74 114.62 C 134.26 115.63 135.50 116.04 136.52 115.52 C 137.54 115.01 137.94 113.76 137.43 112.75 L 136.99 111.88 C 136.47 110.87 135.23 110.46 134.21 110.98 C 133.19 111.49 132.79 112.74 133.31 113.75 Z M 133.74 114.61 L 134.17 115.45 C 134.68 116.47 135.92 116.87 136.94 116.36 C 137.96 115.84 138.37 114.60 137.85 113.59 L 137.43 112.75 C 136.91 111.73 135.67 111.32 134.65 111.84 C 133.63 112.35 133.23 113.60 133.74 114.61 Z M 134.16 115.45 L 134.58 116.27 C 135.09 117.28 136.33 117.70 137.35 117.18 C 138.37 116.67 138.78 115.43 138.27 114.41 L 137.85 113.59 C 137.34 112.57 136.10 112.16 135.08 112.67 C 134.06 113.19 133.65 114.43 134.16 115.45 Z M 134.57 116.26 L 134.98 117.07 C 135.49 118.09 136.73 118.51 137.75 118.00 C 138.77 117.49 139.18 116.25 138.67 115.23 L 138.27 114.42 C 137.76 113.40 136.52 112.98 135.50 113.49 C 134.48 114.00 134.06 115.24 134.57 116.26 Z M 134.97 117.06 L 135.38 117.88 C 135.88 118.90 137.12 119.32 138.14 118.82 C 139.16 118.31 139.58 117.08 139.08 116.05 L 138.68 115.24 C 138.17 114.22 136.94 113.80 135.91 114.30 C 134.89 114.80 134.47 116.04 134.97 117.06 Z M 135.37 117.87 L 135.79 118.74 C 136.29 119.76 137.53 120.19 138.55 119.69 C 139.58 119.20 140.01 117.96 139.51 116.93 L 139.08 116.06 C 138.59 115.04 137.35 114.61 136.33 115.11 C 135.30 115.61 134.87 116.84 135.37 117.87 Z M 135.79 118.73 L 136.21 119.61 C 136.71 120.64 137.94 121.07 138.97 120.58 C 139.99 120.09 140.43 118.86 139.94 117.83 L 139.51 116.94 C 139.02 115.92 137.79 115.48 136.76 115.98 C 135.73 116.47 135.30 117.70 135.79 118.73 Z M 136.21 119.60 L 136.63 120.50 C 137.12 121.53 138.35 121.97 139.38 121.48 C 140.41 120.99 140.85 119.76 140.36 118.73 L 139.94 117.84 C 139.45 116.81 138.22 116.37 137.19 116.86 C 136.16 117.34 135.72 118.57 136.21 119.60 Z M 136.63 120.49 L 137.06 121.40 C 137.54 122.43 138.77 122.87 139.80 122.39 C 140.83 121.90 141.27 120.68 140.79 119.65 L 140.37 118.74 C 139.88 117.71 138.65 117.27 137.62 117.75 C 136.59 118.23 136.15 119.46 136.63 120.49 Z M 137.05 121.39 L 137.48 122.30 C 137.96 123.33 139.18 123.78 140.22 123.30 C 141.25 122.82 141.70 121.59 141.22 120.56 L 140.79 119.65 C 140.31 118.62 139.09 118.17 138.05 118.65 C 137.02 119.13 136.57 120.36 137.05 121.39 Z M 137.48 122.30 L 137.90 123.21 C 138.38 124.25 139.60 124.70 140.63 124.22 C 141.67 123.74 142.12 122.52 141.64 121.48 L 141.22 120.57 C 140.74 119.53 139.51 119.08 138.48 119.56 C 137.45 120.04 137.00 121.26 137.48 122.30 Z M 137.90 123.21 L 138.32 124.13 C 138.80 125.17 140.02 125.62 141.06 125.14 C 142.09 124.67 142.54 123.44 142.07 122.41 L 141.64 121.49 C 141.17 120.45 139.94 120.00 138.91 120.48 C 137.88 120.95 137.42 122.18 137.90 123.21 Z M 138.32 124.13 L 138.75 125.05 C 139.22 126.09 140.44 126.54 141.48 126.07 C 142.51 125.59 142.96 124.37 142.49 123.34 L 142.07 122.41 C 141.59 121.38 140.37 120.92 139.34 121.40 C 138.30 121.87 137.85 123.10 138.32 124.13 Z M 138.75 125.05 L 139.17 125.97 C 139.64 127.00 140.86 127.45 141.90 126.98 C 142.93 126.51 143.38 125.28 142.91 124.25 L 142.49 123.34 C 142.02 122.30 140.79 121.85 139.76 122.32 C 138.73 122.80 138.27 124.02 138.75 125.05 Z M 139.17 125.97 L 139.58 126.86 C 140.05 127.90 141.27 128.35 142.31 127.88 C 143.34 127.40 143.79 126.18 143.32 125.15 L 142.91 124.25 C 142.43 123.22 141.21 122.76 140.18 123.24 C 139.15 123.71 138.69 124.93 139.17 125.97 Z M 139.58 126.86 L 139.99 127.76 C 140.46 128.79 141.68 129.25 142.72 128.77 C 143.75 128.30 144.20 127.08 143.73 126.05 L 143.32 125.15 C 142.84 124.12 141.62 123.66 140.59 124.14 C 139.56 124.61 139.11 125.83 139.58 126.86 Z M 139.99 127.76 L 140.40 128.66 C 140.88 129.69 142.10 130.15 143.13 129.67 C 144.16 129.20 144.61 127.98 144.14 126.95 L 143.73 126.05 C 143.26 125.02 142.04 124.56 141.00 125.04 C 139.97 125.51 139.52 126.73 139.99 127.76 Z M 140.41 128.66 L 140.82 129.56 C 141.29 130.60 142.51 131.05 143.54 130.58 C 144.58 130.10 145.03 128.88 144.55 127.85 L 144.14 126.95 C 143.67 125.92 142.45 125.46 141.42 125.94 C 140.38 126.41 139.93 127.63 140.41 128.66 Z M 140.82 129.56 L 141.24 130.47 C 141.71 131.50 142.93 131.96 143.96 131.48 C 144.99 131.01 145.44 129.79 144.97 128.76 L 144.55 127.85 C 144.08 126.82 142.86 126.37 141.83 126.84 C 140.80 127.31 140.35 128.53 140.82 129.56 Z M 141.24 130.47 L 141.66 131.38 C 142.13 132.41 143.35 132.87 144.38 132.39 C 145.41 131.92 145.86 130.70 145.39 129.67 L 144.97 128.76 C 144.50 127.73 143.28 127.28 142.25 127.75 C 141.22 128.22 140.77 129.44 141.24 130.47 Z M 141.66 131.38 L 142.08 132.30 C 142.55 133.33 143.77 133.78 144.80 133.31 C 145.83 132.84 146.28 131.62 145.81 130.59 L 145.39 129.67 C 144.91 128.64 143.70 128.19 142.67 128.66 C 141.64 129.14 141.19 130.36 141.66 131.38 Z M 142.08 132.30 L 142.51 133.23 C 142.98 134.26 144.20 134.71 145.23 134.24 C 146.26 133.76 146.71 132.55 146.23 131.52 L 145.81 130.59 C 145.34 129.56 144.12 129.11 143.09 129.58 C 142.06 130.06 141.61 131.27 142.08 132.30 Z M 142.51 133.23 L 142.92 134.13 C 143.39 135.15 144.61 135.60 145.64 135.13 C 146.67 134.66 147.12 133.44 146.64 132.41 L 146.23 131.52 C 145.76 130.49 144.54 130.04 143.51 130.51 C 142.49 130.98 142.04 132.20 142.51 133.23 Z M 142.92 134.13 L 143.32 134.99 C 143.79 136.02 145.01 136.47 146.04 136.00 C 147.06 135.52 147.51 134.31 147.04 133.28 L 146.64 132.41 C 146.17 131.39 144.95 130.94 143.93 131.41 C 142.90 131.88 142.45 133.10 142.92 134.13 Z M 143.32 134.99 L 143.72 135.87 C 144.20 136.89 145.41 137.34 146.44 136.87 C 147.46 136.40 147.91 135.19 147.44 134.16 L 147.04 133.28 C 146.57 132.26 145.35 131.81 144.33 132.28 C 143.30 132.75 142.85 133.96 143.32 134.99 Z M 143.73 135.86 L 144.13 136.75 C 144.60 137.78 145.82 138.23 146.84 137.76 C 147.87 137.29 148.32 136.07 147.85 135.05 L 147.44 134.16 C 146.97 133.13 145.76 132.68 144.73 133.15 C 143.71 133.62 143.26 134.84 143.73 135.86 Z M 144.13 136.75 L 144.54 137.64 C 145.01 138.67 146.22 139.12 147.25 138.65 C 148.27 138.18 148.73 136.97 148.26 135.95 L 147.85 135.05 C 147.38 134.02 146.17 133.57 145.14 134.04 C 144.12 134.51 143.66 135.72 144.13 136.75 Z M 144.54 137.64 L 144.96 138.55 C 145.42 139.57 146.63 140.03 147.66 139.56 C 148.68 139.10 149.14 137.89 148.67 136.86 L 148.26 135.95 C 147.79 134.93 146.58 134.47 145.56 134.94 C 144.53 135.40 144.08 136.61 144.54 137.64 Z M 144.96 138.54 L 145.37 139.47 C 145.84 140.49 147.04 140.95 148.07 140.48 C 149.09 140.02 149.55 138.81 149.09 137.79 L 148.67 136.87 C 148.21 135.84 147.00 135.38 145.97 135.85 C 144.95 136.31 144.49 137.52 144.96 138.54 Z M 145.37 139.46 L 145.79 140.40 C 146.25 141.42 147.46 141.88 148.48 141.42 C 149.51 140.96 149.97 139.76 149.51 138.73 L 149.09 137.79 C 148.63 136.77 147.42 136.31 146.40 136.77 C 145.37 137.23 144.91 138.43 145.37 139.46 Z M 145.79 140.39 L 146.22 141.34 C 146.67 142.37 147.87 142.83 148.90 142.37 C 149.93 141.92 150.39 140.71 149.93 139.69 L 149.51 138.74 C 149.05 137.71 147.85 137.25 146.82 137.70 C 145.80 138.16 145.33 139.36 145.79 140.39 Z M 146.21 141.34 L 146.64 142.31 C 147.09 143.33 148.29 143.80 149.32 143.34 C 150.35 142.89 150.81 141.69 150.36 140.66 L 149.93 139.70 C 149.48 138.67 148.28 138.20 147.25 138.66 C 146.23 139.11 145.76 140.31 146.21 141.34 Z M 146.64 142.30 L 147.04 143.20 C 147.49 144.23 148.68 144.70 149.71 144.25 C 150.74 143.80 151.21 142.60 150.76 141.58 L 150.36 140.67 C 149.91 139.64 148.72 139.17 147.69 139.62 C 146.66 140.07 146.19 141.27 146.64 142.30 Z M 147.04 143.20 L 147.43 144.10 C 147.87 145.13 149.07 145.60 150.10 145.16 C 151.13 144.71 151.60 143.52 151.15 142.49 L 150.76 141.58 C 150.31 140.56 149.12 140.08 148.09 140.53 C 147.06 140.97 146.59 142.17 147.04 143.20 Z M 147.43 144.10 L 147.82 145.02 C 148.27 146.04 149.46 146.52 150.49 146.08 C 151.51 145.63 151.99 144.44 151.55 143.41 L 151.15 142.50 C 150.71 141.47 149.52 140.99 148.49 141.44 C 147.46 141.88 146.99 143.07 147.43 144.10 Z M 147.82 145.01 L 148.22 145.94 C 148.66 146.96 149.85 147.44 150.88 147.00 C 151.90 146.56 152.38 145.37 151.94 144.34 L 151.55 143.42 C 151.11 142.39 149.92 141.91 148.89 142.35 C 147.86 142.79 147.38 143.98 147.82 145.01 Z M 148.22 145.93 L 148.61 146.86 C 149.05 147.89 150.24 148.37 151.27 147.93 C 152.29 147.49 152.77 146.31 152.34 145.28 L 151.94 144.35 C 151.51 143.32 150.32 142.84 149.29 143.28 C 148.26 143.71 147.78 144.90 148.22 145.93 Z M 148.61 146.86 L 149.01 147.79 C 149.44 148.82 150.63 149.30 151.66 148.86 C 152.68 148.43 153.17 147.24 152.73 146.22 L 152.34 145.28 C 151.90 144.26 150.72 143.77 149.69 144.21 C 148.66 144.64 148.18 145.83 148.61 146.86 Z M 149.01 147.78 L 149.40 148.72 C 149.83 149.74 151.02 150.23 152.04 149.80 C 153.07 149.36 153.55 148.18 153.12 147.15 L 152.73 146.22 C 152.30 145.19 151.12 144.71 150.09 145.14 C 149.06 145.57 148.58 146.76 149.01 147.78 Z M 149.40 148.71 L 149.79 149.64 C 150.22 150.67 151.40 151.16 152.43 150.73 C 153.46 150.30 153.94 149.11 153.51 148.09 L 153.12 147.16 C 152.69 146.13 151.51 145.64 150.48 146.07 C 149.46 146.50 148.97 147.69 149.40 148.71 Z M 149.79 149.64 L 150.18 150.56 C 150.60 151.59 151.78 152.08 152.81 151.65 C 153.84 151.22 154.32 150.04 153.90 149.01 L 153.51 148.09 C 153.08 147.06 151.90 146.58 150.88 147.00 C 149.85 147.43 149.36 148.61 149.79 149.64 Z M 150.18 150.56 L 150.56 151.48 C 150.98 152.51 152.16 152.99 153.19 152.57 C 154.22 152.14 154.70 150.96 154.28 149.94 L 153.90 149.02 C 153.47 147.99 152.29 147.50 151.26 147.93 C 150.24 148.36 149.75 149.54 150.18 150.56 Z M 150.56 151.48 L 150.94 152.40 C 151.37 153.43 152.54 153.91 153.57 153.49 C 154.59 153.06 155.08 151.89 154.66 150.86 L 154.28 149.94 C 153.85 148.91 152.67 148.42 151.65 148.85 C 150.62 149.27 150.13 150.45 150.56 151.48 Z M 150.94 152.40 L 151.34 153.35 C 151.76 154.38 152.93 154.86 153.96 154.44 C 154.99 154.02 155.47 152.84 155.05 151.82 L 154.66 150.86 C 154.23 149.84 153.06 149.35 152.03 149.77 C 151.01 150.20 150.52 151.37 150.94 152.40 Z M 151.34 153.35 L 151.73 154.29 C 152.15 155.31 153.32 155.80 154.35 155.38 C 155.37 154.96 155.86 153.79 155.44 152.76 L 155.05 151.82 C 154.63 150.80 153.45 150.31 152.43 150.73 C 151.40 151.15 150.92 152.32 151.34 153.35 Z M 151.73 154.29 L 152.11 155.22 C 152.53 156.24 153.70 156.73 154.73 156.31 C 155.75 155.89 156.24 154.72 155.82 153.70 L 155.43 152.76 C 155.01 151.74 153.84 151.25 152.82 151.67 C 151.80 152.09 151.31 153.27 151.73 154.29 Z M 152.12 155.22 L 152.50 156.14 C 152.92 157.17 154.09 157.65 155.11 157.23 C 156.13 156.81 156.62 155.64 156.20 154.62 L 155.82 153.70 C 155.39 152.68 154.23 152.19 153.20 152.61 C 152.18 153.03 151.69 154.20 152.12 155.22 Z M 152.50 156.14 L 152.88 157.06 C 153.30 158.08 154.46 158.57 155.48 158.15 C 156.50 157.73 156.99 156.56 156.57 155.54 L 156.19 154.62 C 155.77 153.60 154.61 153.12 153.59 153.54 C 152.56 153.96 152.08 155.12 152.50 156.14 Z M 152.88 157.06 L 153.26 157.98 C 153.68 158.99 154.84 159.48 155.86 159.06 C 156.88 158.64 157.37 157.47 156.95 156.45 L 156.57 155.54 C 156.15 154.52 154.98 154.04 153.96 154.46 C 152.94 154.88 152.46 156.04 152.88 157.06 Z M 153.26 157.98 L 153.64 158.89 C 154.06 159.90 155.22 160.39 156.24 159.97 C 157.25 159.55 157.74 158.38 157.32 157.37 L 156.94 156.45 C 156.52 155.44 155.36 154.95 154.34 155.37 C 153.32 155.79 152.84 156.96 153.26 157.98 Z M 153.64 158.89 L 154.02 159.80 C 154.44 160.81 155.60 161.30 156.62 160.87 C 157.63 160.45 158.11 159.29 157.69 158.27 L 157.32 157.36 C 156.89 156.35 155.73 155.87 154.72 156.29 C 153.70 156.71 153.22 157.87 153.64 158.89 Z M 154.02 159.80 L 154.40 160.71 C 154.82 161.72 155.98 162.20 157.00 161.78 C 158.01 161.36 158.49 160.20 158.07 159.18 L 157.69 158.27 C 157.27 157.26 156.10 156.78 155.09 157.20 C 154.08 157.62 153.60 158.79 154.02 159.80 Z M 154.40 160.71 L 154.78 161.62 C 155.20 162.63 156.37 163.11 157.38 162.69 C 158.39 162.26 158.87 161.10 158.44 160.09 L 158.06 159.18 C 157.64 158.17 156.48 157.69 155.47 158.12 C 154.46 158.54 153.98 159.70 154.40 160.71 Z M 154.78 161.62 L 155.16 162.52 C 155.59 163.53 156.75 164.01 157.76 163.58 C 158.77 163.16 159.24 162.00 158.82 160.99 L 158.44 160.09 C 158.02 159.08 156.85 158.60 155.84 159.03 C 154.84 159.45 154.36 160.61 154.78 161.62 Z M 155.17 162.52 L 155.55 163.43 C 155.97 164.44 157.13 164.91 158.14 164.48 C 159.15 164.06 159.62 162.90 159.20 161.89 L 158.81 160.99 C 158.39 159.98 157.23 159.51 156.22 159.93 C 155.21 160.36 154.74 161.52 155.17 162.52 Z M 155.55 163.43 L 155.94 164.34 C 156.36 165.34 157.52 165.81 158.53 165.39 C 159.53 164.96 160.00 163.80 159.58 162.80 L 159.19 161.89 C 158.77 160.88 157.61 160.41 156.60 160.84 C 155.60 161.27 155.13 162.43 155.55 163.43 Z M 155.94 164.34 L 156.33 165.25 C 156.75 166.26 157.91 166.72 158.92 166.30 C 159.92 165.87 160.39 164.71 159.96 163.71 L 159.57 162.80 C 159.15 161.79 157.99 161.33 156.98 161.75 C 155.98 162.18 155.51 163.34 155.94 164.34 Z M 156.33 165.25 L 156.72 166.17 C 157.15 167.17 158.31 167.64 159.31 167.21 C 160.31 166.78 160.78 165.63 160.35 164.63 L 159.96 163.71 C 159.53 162.71 158.37 162.24 157.37 162.67 C 156.37 163.10 155.90 164.25 156.33 165.25 Z M 156.73 166.17 L 157.12 167.10 C 157.55 168.09 158.70 168.56 159.70 168.13 C 160.70 167.70 161.17 166.55 160.74 165.55 L 160.34 164.63 C 159.92 163.63 158.76 163.16 157.76 163.59 C 156.76 164.02 156.30 165.17 156.73 166.17 Z M 157.12 167.10 L 157.52 168.02 C 157.95 169.02 159.10 169.48 160.10 169.06 C 161.10 168.63 161.56 167.47 161.13 166.48 L 160.74 165.55 C 160.31 164.55 159.15 164.09 158.16 164.52 C 157.16 164.94 156.70 166.10 157.12 167.10 Z M 157.52 168.02 L 157.93 168.96 C 158.35 169.95 159.51 170.41 160.50 169.99 C 161.50 169.56 161.96 168.40 161.53 167.41 L 161.13 166.47 C 160.70 165.48 159.55 165.02 158.55 165.45 C 157.56 165.87 157.10 167.03 157.52 168.02 Z M 157.93 168.96 L 158.33 169.90 C 158.76 170.89 159.91 171.35 160.91 170.92 C 161.90 170.49 162.36 169.34 161.93 168.35 L 161.53 167.41 C 161.10 166.41 159.95 165.95 158.95 166.38 C 157.96 166.81 157.50 167.96 157.93 168.96 Z M 158.34 169.90 L 158.74 170.83 C 159.17 171.82 160.32 172.28 161.31 171.85 C 162.30 171.43 162.76 170.27 162.33 169.28 L 161.93 168.35 C 161.50 167.35 160.35 166.90 159.36 167.32 C 158.37 167.75 157.91 168.90 158.34 169.90 Z M 158.74 170.83 L 159.13 171.73 C 159.56 172.72 160.71 173.17 161.70 172.75 C 162.69 172.32 163.14 171.17 162.72 170.18 L 162.33 169.28 C 161.90 168.29 160.75 167.83 159.76 168.26 C 158.77 168.69 158.31 169.84 158.74 170.83 Z M 159.13 171.73 L 159.52 172.63 C 159.95 173.62 161.10 174.07 162.08 173.65 C 163.07 173.22 163.53 172.07 163.10 171.08 L 162.71 170.18 C 162.29 169.19 161.14 168.73 160.15 169.16 C 159.16 169.59 158.70 170.74 159.13 171.73 Z M 159.52 172.63 L 159.91 173.53 C 160.34 174.52 161.49 174.98 162.48 174.55 C 163.46 174.12 163.92 172.98 163.49 171.99 L 163.10 171.08 C 162.67 170.10 161.53 169.64 160.54 170.07 C 159.55 170.49 159.10 171.64 159.52 172.63 Z M 159.92 173.53 L 160.31 174.45 C 160.74 175.43 161.88 175.89 162.87 175.46 C 163.85 175.04 164.31 173.89 163.88 172.90 L 163.49 171.99 C 163.06 171.01 161.92 170.55 160.93 170.98 C 159.95 171.40 159.49 172.55 159.92 173.53 Z M 160.31 174.44 L 160.71 175.36 C 161.13 176.35 162.28 176.80 163.26 176.38 C 164.25 175.95 164.70 174.81 164.28 173.82 L 163.88 172.91 C 163.46 171.92 162.31 171.47 161.33 171.89 C 160.34 172.32 159.89 173.46 160.31 174.44 Z M 160.71 175.36 L 161.11 176.28 C 161.53 177.26 162.67 177.72 163.66 177.29 C 164.64 176.87 165.09 175.73 164.67 174.75 L 164.27 173.82 C 163.85 172.84 162.71 172.39 161.72 172.81 C 160.74 173.23 160.29 174.38 160.71 175.36 Z M 161.11 176.28 L 161.51 177.20 C 161.93 178.19 163.07 178.64 164.05 178.22 C 165.04 177.79 165.49 176.66 165.07 175.67 L 164.67 174.75 C 164.25 173.77 163.11 173.31 162.12 173.73 C 161.14 174.16 160.69 175.30 161.11 176.28 Z M 161.51 177.20 L 161.91 178.13 C 162.33 179.11 163.47 179.57 164.45 179.14 C 165.43 178.72 165.88 177.59 165.46 176.60 L 165.06 175.68 C 164.64 174.69 163.51 174.24 162.52 174.66 C 161.54 175.08 161.09 176.22 161.51 177.20 Z M 161.91 178.13 L 162.31 179.06 C 162.73 180.04 163.87 180.50 164.85 180.08 C 165.83 179.66 166.28 178.52 165.86 177.54 L 165.46 176.61 C 165.04 175.63 163.91 175.17 162.93 175.59 C 161.95 176.01 161.49 177.15 161.91 178.13 Z M 162.31 179.06 L 162.71 179.99 C 163.13 180.97 164.26 181.43 165.24 181.01 C 166.22 180.59 166.68 179.46 166.26 178.48 L 165.86 177.54 C 165.44 176.56 164.31 176.11 163.33 176.53 C 162.35 176.95 161.89 178.08 162.31 179.06 Z M 162.71 179.99 L 163.11 180.92 C 163.53 181.90 164.66 182.35 165.64 181.93 C 166.61 181.52 167.07 180.39 166.65 179.41 L 166.26 178.48 C 165.84 177.50 164.71 177.05 163.73 177.47 C 162.75 177.88 162.30 179.01 162.71 179.99 Z M 163.11 180.92 L 163.50 181.83 C 163.92 182.81 165.05 183.26 166.02 182.85 C 167.00 182.43 167.46 181.30 167.04 180.33 L 166.65 179.41 C 166.24 178.43 165.11 177.98 164.13 178.39 C 163.15 178.81 162.70 179.94 163.11 180.92 Z M 163.50 181.83 L 163.89 182.75 C 164.31 183.72 165.44 184.18 166.41 183.77 C 167.39 183.35 167.84 182.22 167.43 181.25 L 167.04 180.33 C 166.62 179.35 165.50 178.90 164.52 179.31 C 163.54 179.73 163.09 180.85 163.50 181.83 Z M 163.90 182.75 L 164.29 183.67 C 164.70 184.64 165.83 185.10 166.80 184.68 C 167.78 184.27 168.23 183.14 167.82 182.17 L 167.43 181.25 C 167.01 180.27 165.89 179.82 164.91 180.23 C 163.94 180.65 163.48 181.77 163.90 182.75 Z M 164.29 183.67 L 164.68 184.59 C 165.10 185.56 166.22 186.01 167.19 185.60 C 168.16 185.19 168.62 184.06 168.20 183.09 L 167.81 182.17 C 167.40 181.20 166.28 180.74 165.30 181.16 C 164.33 181.57 163.88 182.69 164.29 183.67 Z M 164.69 184.59 L 165.08 185.51 C 165.49 186.48 166.61 186.93 167.58 186.52 C 168.56 186.10 169.01 184.98 168.59 184.01 L 168.20 183.09 C 167.79 182.12 166.67 181.67 165.69 182.08 C 164.72 182.49 164.27 183.62 164.69 184.59 Z M 165.08 185.51 L 165.48 186.43 C 165.89 187.40 167.01 187.85 167.98 187.44 C 168.95 187.02 169.40 185.90 168.98 184.93 L 168.59 184.01 C 168.18 183.04 167.05 182.59 166.09 183.01 C 165.12 183.42 164.67 184.54 165.08 185.51 Z M 165.48 186.43 L 165.87 187.35 C 166.29 188.32 167.41 188.77 168.38 188.35 C 169.34 187.94 169.79 186.82 169.38 185.85 L 168.98 184.93 C 168.56 183.96 167.44 183.52 166.48 183.93 C 165.51 184.35 165.06 185.47 165.48 186.43 Z M 165.88 187.36 L 166.28 188.28 C 166.69 189.24 167.81 189.68 168.78 189.27 C 169.74 188.85 170.19 187.73 169.77 186.77 L 169.37 185.85 C 168.95 184.88 167.84 184.44 166.87 184.86 C 165.91 185.27 165.46 186.39 165.88 187.36 Z M 166.28 188.28 L 166.68 189.20 C 167.10 190.16 168.22 190.60 169.18 190.18 C 170.14 189.76 170.58 188.64 170.16 187.68 L 169.76 186.76 C 169.35 185.80 168.23 185.36 167.27 185.78 C 166.30 186.20 165.86 187.32 166.28 188.28 Z M 166.68 189.20 L 167.09 190.12 C 167.51 191.08 168.63 191.51 169.58 191.09 C 170.54 190.67 170.98 189.55 170.56 188.60 L 170.16 187.68 C 169.74 186.72 168.62 186.28 167.66 186.70 C 166.70 187.12 166.26 188.24 166.68 189.20 Z M 167.09 190.12 L 167.49 191.03 C 167.92 191.99 169.03 192.42 169.99 192.00 C 170.95 191.57 171.38 190.46 170.96 189.50 L 170.56 188.59 C 170.13 187.63 169.01 187.20 168.06 187.63 C 167.10 188.05 166.67 189.17 167.09 190.12 Z M 167.50 191.04 L 167.90 191.93 C 168.33 192.89 169.44 193.32 170.40 192.89 C 171.35 192.47 171.78 191.35 171.35 190.39 L 170.95 189.50 C 170.53 188.54 169.41 188.11 168.45 188.54 C 167.50 188.96 167.07 190.08 167.50 191.04 Z M 167.91 191.94 L 168.31 192.84 C 168.74 193.79 169.85 194.21 170.80 193.78 C 171.75 193.36 172.18 192.24 171.75 191.29 L 171.35 190.39 C 170.92 189.44 169.80 189.02 168.85 189.44 C 167.90 189.87 167.48 190.99 167.91 191.94 Z M 168.31 192.84 L 168.72 193.74 C 169.15 194.68 170.27 195.11 171.21 194.68 C 172.16 194.25 172.58 193.13 172.15 192.18 L 171.75 191.29 C 171.32 190.34 170.20 189.92 169.25 190.35 C 168.31 190.77 167.88 191.89 168.31 192.84 Z M 168.72 193.74 L 169.13 194.64 C 169.56 195.58 170.68 196.00 171.62 195.57 C 172.57 195.14 172.99 194.03 172.56 193.08 L 172.15 192.18 C 171.72 191.24 170.60 190.82 169.66 191.25 C 168.71 191.68 168.29 192.79 168.72 193.74 Z M 169.14 194.64 L 169.55 195.54 C 169.98 196.48 171.09 196.90 172.04 196.47 C 172.98 196.04 173.40 194.93 172.97 193.98 L 172.55 193.08 C 172.12 192.14 171.01 191.72 170.07 192.15 C 169.12 192.58 168.71 193.70 169.14 194.64 Z M 169.55 195.54 L 169.97 196.45 C 170.40 197.39 171.51 197.80 172.45 197.37 C 173.39 196.94 173.81 195.83 173.38 194.89 L 172.96 193.98 C 172.53 193.04 171.42 192.63 170.48 193.06 C 169.54 193.49 169.12 194.60 169.55 195.54 Z M 169.97 196.45 L 170.39 197.36 C 170.82 198.30 171.93 198.71 172.87 198.28 C 173.81 197.85 174.22 196.74 173.79 195.80 L 173.37 194.89 C 172.94 193.95 171.83 193.54 170.89 193.97 C 169.95 194.40 169.54 195.51 169.97 196.45 Z M 170.39 197.36 L 170.81 198.27 C 171.24 199.21 172.35 199.62 173.29 199.19 C 174.22 198.76 174.64 197.66 174.21 196.72 L 173.79 195.80 C 173.36 194.86 172.25 194.45 171.31 194.88 C 170.37 195.31 169.96 196.42 170.39 197.36 Z M 170.81 198.27 L 171.23 199.19 C 171.66 200.13 172.77 200.54 173.71 200.12 C 174.64 199.69 175.05 198.58 174.63 197.64 L 174.20 196.72 C 173.78 195.78 172.67 195.37 171.73 195.80 C 170.80 196.23 170.38 197.33 170.81 198.27 Z M 171.24 199.19 L 171.66 200.12 C 172.09 201.06 173.19 201.47 174.13 201.05 C 175.06 200.62 175.48 199.52 175.05 198.58 L 174.62 197.65 C 174.20 196.71 173.09 196.30 172.16 196.72 C 171.22 197.15 170.81 198.25 171.24 199.19 Z M 171.66 200.12 L 172.09 201.05 C 172.51 201.99 173.61 202.40 174.55 201.98 C 175.48 201.56 175.90 200.45 175.47 199.52 L 175.05 198.58 C 174.62 197.65 173.52 197.23 172.59 197.66 C 171.65 198.08 171.24 199.18 171.66 200.12 Z M 172.09 201.05 L 172.50 201.97 C 172.93 202.91 174.02 203.32 174.96 202.90 C 175.89 202.48 176.31 201.38 175.89 200.44 L 175.47 199.52 C 175.05 198.59 173.95 198.17 173.02 198.60 C 172.08 199.02 171.67 200.12 172.09 201.05 Z M 172.51 201.97 L 172.92 202.89 C 173.34 203.83 174.44 204.24 175.37 203.82 C 176.30 203.41 176.72 202.31 176.30 201.38 L 175.88 200.45 C 175.47 199.51 174.37 199.10 173.44 199.52 C 172.50 199.94 172.09 201.03 172.51 201.97 Z M 172.92 202.89 L 173.34 203.82 C 173.76 204.75 174.85 205.17 175.78 204.75 C 176.72 204.34 177.13 203.24 176.72 202.31 L 176.30 201.38 C 175.88 200.45 174.79 200.03 173.86 200.45 C 172.92 200.86 172.51 201.96 172.92 202.89 Z M 173.34 203.82 L 173.76 204.75 C 174.17 205.68 175.27 206.10 176.20 205.69 C 177.13 205.27 177.55 204.18 177.13 203.25 L 176.72 202.31 C 176.30 201.38 175.21 200.97 174.28 201.38 C 173.35 201.80 172.93 202.89 173.34 203.82 Z M 173.76 204.75 L 174.17 205.68 C 174.59 206.61 175.68 207.03 176.61 206.62 C 177.54 206.20 177.96 205.11 177.54 204.18 L 177.13 203.25 C 176.72 202.32 175.63 201.90 174.70 202.32 C 173.77 202.73 173.35 203.82 173.76 204.75 Z M 174.18 205.68 L 174.59 206.61 C 175.00 207.53 176.09 207.95 177.01 207.54 C 177.94 207.13 178.36 206.05 177.95 205.12 L 177.54 204.19 C 177.13 203.26 176.04 202.84 175.11 203.25 C 174.19 203.66 173.77 204.75 174.18 205.68 Z M 174.59 206.60 L 175.00 207.52 C 175.41 208.45 176.49 208.87 177.42 208.46 C 178.35 208.06 178.77 206.97 178.36 206.04 L 177.95 205.12 C 177.54 204.19 176.46 203.77 175.53 204.18 C 174.60 204.59 174.18 205.67 174.59 206.60 Z M 175.00 207.52 L 175.40 208.44 C 175.81 209.36 176.89 209.78 177.82 209.38 C 178.74 208.97 179.16 207.89 178.76 206.96 L 178.36 206.05 C 177.95 205.12 176.87 204.70 175.94 205.11 C 175.01 205.51 174.59 206.59 175.00 207.52 Z M 175.40 208.43 L 175.80 209.34 C 176.20 210.26 177.28 210.68 178.21 210.28 C 179.13 209.87 179.56 208.79 179.15 207.87 L 178.75 206.96 C 178.35 206.04 177.27 205.62 176.34 206.02 C 175.42 206.43 175.00 207.51 175.40 208.43 Z M 175.80 209.33 L 176.19 210.22 C 176.59 211.15 177.67 211.57 178.59 211.17 C 179.52 210.76 179.94 209.69 179.54 208.76 L 179.15 207.87 C 178.74 206.95 177.67 206.52 176.74 206.93 C 175.82 207.33 175.40 208.41 175.80 209.33 Z M 176.19 210.22 L 176.57 211.09 C 176.97 212.01 178.04 212.44 178.97 212.04 C 179.89 211.63 180.32 210.56 179.91 209.64 L 179.53 208.76 C 179.13 207.84 178.06 207.42 177.13 207.82 C 176.21 208.22 175.79 209.29 176.19 210.22 Z M 176.57 211.09 L 176.99 212.04 C 177.38 212.97 178.46 213.39 179.38 212.99 C 180.30 212.59 180.72 211.52 180.33 210.60 L 179.91 209.64 C 179.51 208.72 178.44 208.29 177.52 208.69 C 176.60 209.09 176.17 210.16 176.57 211.09 Z M 176.99 212.04 L 177.41 213.03 C 177.81 213.95 178.88 214.37 179.80 213.97 C 180.72 213.58 181.15 212.51 180.75 211.59 L 180.32 210.60 C 179.92 209.68 178.86 209.26 177.94 209.65 C 177.01 210.05 176.59 211.12 176.99 212.04 Z M 177.42 213.02 L 177.83 213.99 C 178.23 214.91 179.30 215.33 180.21 214.93 C 181.13 214.54 181.56 213.47 181.16 212.55 L 180.75 211.59 C 180.35 210.67 179.28 210.25 178.36 210.64 C 177.45 211.04 177.02 212.11 177.42 213.02 Z M 177.84 213.99 L 178.24 214.93 C 178.64 215.84 179.70 216.27 180.62 215.87 C 181.54 215.47 181.96 214.41 181.56 213.49 L 181.16 212.55 C 180.76 211.64 179.70 211.22 178.78 211.61 C 177.86 212.01 177.44 213.07 177.84 213.99 Z M 178.25 214.93 L 178.65 215.85 C 179.04 216.76 180.10 217.18 181.02 216.79 C 181.93 216.39 182.35 215.33 181.96 214.42 L 181.56 213.49 C 181.16 212.58 180.10 212.16 179.19 212.56 C 178.27 212.95 177.85 214.01 178.25 214.93 Z M 178.65 215.85 L 179.05 216.75 C 179.44 217.66 180.50 218.08 181.41 217.68 C 182.32 217.29 182.74 216.23 182.34 215.32 L 181.95 214.41 C 181.55 213.50 180.49 213.09 179.58 213.48 C 178.67 213.88 178.26 214.94 178.65 215.85 Z M 179.05 216.76 L 179.44 217.64 C 179.84 218.55 180.90 218.96 181.80 218.56 C 182.71 218.17 183.13 217.11 182.73 216.20 L 182.34 215.31 C 181.94 214.41 180.88 213.99 179.97 214.39 C 179.07 214.79 178.65 215.85 179.05 216.76 Z M 179.45 217.65 L 179.83 218.52 C 180.23 219.42 181.29 219.83 182.20 219.43 C 183.10 219.03 183.51 217.97 183.11 217.07 L 182.72 216.20 C 182.32 215.29 181.26 214.88 180.36 215.28 C 179.45 215.69 179.05 216.74 179.45 217.65 Z M 179.84 218.53 L 180.23 219.39 C 180.63 220.29 181.69 220.69 182.59 220.29 C 183.49 219.88 183.89 218.83 183.49 217.93 L 183.10 217.06 C 182.70 216.16 181.64 215.76 180.74 216.17 C 179.84 216.57 179.44 217.63 179.84 218.53 Z M 180.24 219.40 L 180.62 220.25 C 181.03 221.14 182.09 221.54 182.98 221.13 C 183.88 220.72 184.28 219.67 183.87 218.77 L 183.48 217.92 C 183.07 217.02 182.01 216.63 181.12 217.04 C 180.22 217.44 179.83 218.50 180.24 219.40 Z M 180.63 220.26 L 181.07 221.19 C 181.48 222.08 182.53 222.47 183.43 222.05 C 184.32 221.64 184.70 220.58 184.29 219.69 L 183.86 218.76 C 183.45 217.87 182.39 217.48 181.50 217.90 C 180.61 218.31 180.22 219.37 180.63 220.26 Z M 181.07 221.20 L 181.51 222.13 C 181.93 223.01 182.99 223.39 183.87 222.98 C 184.76 222.56 185.14 221.50 184.72 220.62 L 184.28 219.69 C 183.86 218.80 182.81 218.42 181.92 218.84 C 181.04 219.25 180.66 220.31 181.07 221.20 Z M 181.52 222.13 L 181.96 223.06 C 182.38 223.94 183.44 224.31 184.32 223.89 C 185.20 223.47 185.57 222.41 185.15 221.53 L 184.71 220.61 C 184.29 219.73 183.24 219.36 182.36 219.78 C 181.47 220.20 181.10 221.25 181.52 222.13 Z M 181.97 223.06 L 182.41 223.97 C 182.83 224.85 183.89 225.22 184.76 224.79 C 185.64 224.37 186.01 223.32 185.58 222.44 L 185.14 221.53 C 184.72 220.65 183.67 220.29 182.79 220.71 C 181.92 221.13 181.55 222.19 181.97 223.06 Z M 182.42 223.98 L 182.86 224.88 C 183.28 225.75 184.33 226.11 185.21 225.69 C 186.08 225.26 186.44 224.21 186.02 223.34 L 185.58 222.44 C 185.15 221.57 184.10 221.20 183.23 221.63 C 182.36 222.05 181.99 223.10 182.42 223.98 Z M 182.86 224.88 L 183.30 225.77 C 183.73 226.64 184.78 227.00 185.64 226.57 C 186.51 226.15 186.87 225.10 186.45 224.23 L 186.01 223.34 C 185.58 222.47 184.54 222.11 183.67 222.54 C 182.80 222.96 182.44 224.01 182.86 224.88 Z M 183.31 225.77 L 183.74 226.65 C 184.16 227.52 185.21 227.87 186.08 227.45 C 186.94 227.02 187.30 225.98 186.87 225.11 L 186.44 224.23 C 186.02 223.37 184.97 223.01 184.10 223.43 C 183.24 223.86 182.88 224.90 183.31 225.77 Z M 183.74 226.65 L 184.17 227.52 C 184.59 228.38 185.64 228.73 186.50 228.31 C 187.36 227.89 187.72 226.84 187.29 225.98 L 186.87 225.11 C 186.44 224.25 185.40 223.89 184.54 224.32 C 183.67 224.74 183.32 225.78 183.74 226.65 Z M 184.17 227.51 L 184.58 228.35 C 185.01 229.21 186.05 229.57 186.91 229.15 C 187.77 228.73 188.12 227.69 187.70 226.83 L 187.29 225.98 C 186.87 225.12 185.83 224.77 184.97 225.19 C 184.11 225.61 183.75 226.65 184.17 227.51 Z M 184.59 228.35 L 184.96 229.10 C 185.38 229.96 186.41 230.32 187.27 229.90 C 188.13 229.48 188.49 228.45 188.07 227.59 L 187.70 226.83 C 187.28 225.97 186.24 225.61 185.39 226.03 C 184.53 226.45 184.17 227.49 184.59 228.35 Z M 184.96 229.10 L 185.33 229.86 C 185.74 230.72 186.78 231.07 187.63 230.66 C 188.49 230.24 188.85 229.21 188.43 228.35 L 188.07 227.59 C 187.65 226.74 186.62 226.38 185.76 226.79 C 184.90 227.21 184.54 228.24 184.96 229.10 Z M 185.33 229.85 L 185.71 230.63 C 186.12 231.49 187.15 231.84 188.00 231.43 C 188.86 231.02 189.22 229.99 188.80 229.13 L 188.43 228.36 C 188.02 227.50 186.99 227.14 186.13 227.56 C 185.28 227.97 184.92 229.00 185.33 229.85 Z M 185.71 230.63 L 186.10 231.43 C 186.51 232.28 187.53 232.64 188.39 232.23 C 189.24 231.82 189.60 230.79 189.19 229.94 L 188.80 229.14 C 188.39 228.28 187.36 227.92 186.51 228.34 C 185.66 228.75 185.30 229.77 185.71 230.63 Z M 186.10 231.42 L 186.51 232.27 C 186.91 233.12 187.94 233.48 188.79 233.07 C 189.64 232.66 190.00 231.64 189.59 230.79 L 189.18 229.94 C 188.77 229.09 187.75 228.73 186.90 229.14 C 186.05 229.55 185.69 230.57 186.10 231.42 Z M 186.51 232.26 L 186.94 233.16 C 187.35 234.01 188.36 234.36 189.21 233.96 C 190.06 233.55 190.42 232.53 190.01 231.68 L 189.58 230.79 C 189.18 229.94 188.16 229.58 187.31 229.99 C 186.46 230.40 186.10 231.41 186.51 232.26 Z M 186.94 233.15 L 187.40 234.11 C 187.81 234.96 188.82 235.31 189.67 234.91 C 190.51 234.50 190.87 233.49 190.47 232.64 L 190.01 231.68 C 189.60 230.84 188.59 230.48 187.74 230.89 C 186.89 231.29 186.54 232.31 186.94 233.15 Z M 187.41 234.11 L 187.90 235.14 C 188.30 235.98 189.32 236.34 190.16 235.94 C 191.00 235.53 191.36 234.52 190.96 233.68 L 190.46 232.64 C 190.06 231.80 189.05 231.44 188.20 231.85 C 187.36 232.25 187.00 233.26 187.41 234.11 Z M 187.90 235.14 L 188.44 236.26 C 188.84 237.10 189.85 237.45 190.69 237.05 C 191.54 236.65 191.89 235.64 191.49 234.80 L 190.95 233.68 C 190.55 232.84 189.54 232.48 188.70 232.88 C 187.86 233.29 187.50 234.30 187.90 235.14 Z M 188.45 236.26 L 188.95 237.31 C 189.35 238.15 190.36 238.50 191.20 238.10 C 192.04 237.70 192.39 236.69 191.99 235.85 L 191.48 234.80 C 191.08 233.96 190.07 233.61 189.24 234.01 C 188.40 234.41 188.04 235.42 188.45 236.26 Z M 188.95 237.31 L 189.35 238.13 C 189.75 238.97 190.75 239.32 191.59 238.92 C 192.43 238.52 192.78 237.51 192.38 236.68 L 191.99 235.86 C 191.58 235.02 190.58 234.67 189.74 235.07 C 188.91 235.47 188.55 236.47 188.95 237.31 Z M 189.35 238.13 L 189.76 238.99 C 190.16 239.82 191.16 240.17 192.00 239.77 C 192.84 239.37 193.19 238.37 192.79 237.53 L 192.38 236.68 C 191.98 235.84 190.97 235.49 190.14 235.89 C 189.30 236.29 188.95 237.29 189.35 238.13 Z M 189.76 238.98 L 190.19 239.87 C 190.59 240.71 191.59 241.06 192.42 240.66 C 193.26 240.26 193.61 239.26 193.21 238.42 L 192.78 237.54 C 192.39 236.70 191.38 236.35 190.55 236.75 C 189.72 237.15 189.36 238.15 189.76 238.98 Z M 190.19 239.87 L 190.63 240.78 C 191.03 241.61 192.03 241.97 192.86 241.57 C 193.69 241.17 194.04 240.17 193.64 239.34 L 193.21 238.43 C 192.81 237.59 191.81 237.24 190.98 237.64 C 190.14 238.04 189.79 239.04 190.19 239.87 Z M 190.63 240.78 L 191.08 241.71 C 191.47 242.54 192.47 242.89 193.30 242.50 C 194.13 242.10 194.48 241.10 194.09 240.27 L 193.64 239.34 C 193.24 238.51 192.25 238.16 191.42 238.55 C 190.59 238.95 190.23 239.95 190.63 240.78 Z M 191.08 241.71 L 191.53 242.65 C 191.93 243.49 192.92 243.84 193.75 243.44 C 194.58 243.05 194.93 242.05 194.54 241.22 L 194.09 240.27 C 193.69 239.44 192.69 239.09 191.86 239.49 C 191.03 239.88 190.68 240.88 191.08 241.71 Z M 191.53 242.65 L 191.99 243.61 C 192.38 244.44 193.37 244.79 194.20 244.39 C 195.03 244.00 195.38 243.01 194.99 242.18 L 194.53 241.22 C 194.14 240.39 193.15 240.04 192.32 240.44 C 191.49 240.83 191.14 241.82 191.53 242.65 Z M 191.99 243.60 L 192.44 244.56 C 192.83 245.39 193.83 245.74 194.65 245.35 C 195.48 244.96 195.83 243.97 195.44 243.14 L 194.99 242.18 C 194.59 241.35 193.60 241.00 192.78 241.39 C 191.95 241.79 191.59 242.78 191.99 243.60 Z M 192.44 244.56 L 192.90 245.51 C 193.29 246.34 194.27 246.70 195.10 246.30 C 195.93 245.91 196.28 244.93 195.89 244.10 L 195.44 243.14 C 195.05 242.31 194.06 241.96 193.23 242.35 C 192.41 242.74 192.05 243.73 192.44 244.56 Z M 192.90 245.51 L 193.34 246.46 C 193.73 247.29 194.72 247.64 195.54 247.25 C 196.37 246.86 196.73 245.88 196.34 245.05 L 195.89 244.10 C 195.50 243.27 194.52 242.92 193.69 243.31 C 192.86 243.70 192.51 244.68 192.90 245.51 Z M 193.35 246.46 L 193.78 247.39 C 194.17 248.22 195.15 248.57 195.98 248.18 C 196.80 247.80 197.16 246.81 196.77 245.99 L 196.34 245.05 C 195.95 244.23 194.96 243.87 194.14 244.26 C 193.31 244.65 192.96 245.63 193.35 246.46 Z M 193.78 247.39 L 194.21 248.30 C 194.60 249.13 195.58 249.48 196.40 249.10 C 197.23 248.71 197.58 247.73 197.20 246.91 L 196.77 245.99 C 196.39 245.17 195.41 244.81 194.58 245.20 C 193.76 245.58 193.40 246.56 193.78 247.39 Z M 194.21 248.30 L 194.63 249.19 C 195.01 250.01 195.99 250.37 196.81 249.99 C 197.63 249.61 197.99 248.63 197.61 247.80 L 197.20 246.91 C 196.82 246.09 195.84 245.73 195.01 246.11 C 194.19 246.49 193.83 247.47 194.21 248.30 Z M 194.63 249.18 L 195.02 250.04 C 195.40 250.87 196.38 251.23 197.20 250.85 C 198.03 250.47 198.39 249.50 198.01 248.67 L 197.61 247.81 C 197.23 246.99 196.26 246.63 195.43 247.00 C 194.61 247.38 194.25 248.36 194.63 249.18 Z M 195.02 250.04 L 195.40 250.87 C 195.78 251.69 196.75 252.05 197.57 251.68 C 198.40 251.30 198.76 250.33 198.38 249.51 L 198.01 248.68 C 197.63 247.86 196.66 247.49 195.84 247.87 C 195.01 248.24 194.65 249.21 195.02 250.04 Z M 195.40 250.86 L 195.94 252.05 C 196.31 252.87 197.28 253.24 198.10 252.87 C 198.92 252.50 199.29 251.53 198.92 250.71 L 198.38 249.52 C 198.01 248.69 197.05 248.33 196.22 248.70 C 195.40 249.07 195.03 250.03 195.40 250.86 Z M 195.94 252.04 L 196.43 253.15 C 196.79 253.97 197.75 254.34 198.58 253.98 C 199.40 253.61 199.77 252.65 199.41 251.83 L 198.92 250.72 C 198.55 249.90 197.59 249.53 196.77 249.89 C 195.95 250.25 195.58 251.21 195.94 252.04 Z M 196.43 253.13 L 196.88 254.17 C 197.24 254.99 198.19 255.36 199.01 255.01 C 199.83 254.65 200.21 253.70 199.85 252.88 L 199.40 251.85 C 199.05 251.02 198.10 250.65 197.27 251.00 C 196.45 251.36 196.08 252.31 196.43 253.13 Z M 196.88 254.15 L 197.29 255.12 C 197.64 255.94 198.59 256.32 199.41 255.97 C 200.23 255.62 200.61 254.68 200.26 253.86 L 199.85 252.89 C 199.50 252.07 198.55 251.69 197.74 252.04 C 196.92 252.39 196.53 253.33 196.88 254.15 Z M 197.30 255.10 L 197.67 256.01 C 198.02 256.83 198.95 257.22 199.77 256.88 C 200.59 256.53 200.98 255.60 200.64 254.78 L 200.26 253.87 C 199.92 253.05 198.98 252.67 198.16 253.01 C 197.34 253.35 196.96 254.29 197.30 255.10 Z M 197.68 256.00 L 198.03 256.86 C 198.36 257.68 199.30 258.07 200.11 257.73 C 200.93 257.40 201.32 256.47 200.98 255.65 L 200.63 254.79 C 200.30 253.97 199.37 253.58 198.55 253.92 C 197.73 254.25 197.34 255.18 197.68 256.00 Z M 198.03 256.85 L 198.36 257.67 C 198.69 258.48 199.62 258.88 200.43 258.55 C 201.25 258.22 201.64 257.30 201.31 256.48 L 200.98 255.66 C 200.65 254.85 199.73 254.45 198.91 254.78 C 198.10 255.11 197.71 256.03 198.03 256.85 Z M 198.37 257.66 L 198.68 258.45 C 199.01 259.26 199.93 259.66 200.74 259.34 C 201.55 259.01 201.95 258.10 201.62 257.28 L 201.31 256.49 C 200.99 255.68 200.07 255.28 199.25 255.61 C 198.44 255.93 198.05 256.85 198.37 257.66 Z M 198.69 258.44 L 198.99 259.22 C 199.31 260.03 200.22 260.42 201.03 260.11 C 201.84 259.79 202.24 258.87 201.92 258.06 L 201.62 257.29 C 201.30 256.48 200.39 256.08 199.58 256.40 C 198.77 256.72 198.37 257.64 198.69 258.44 Z M 199.00 259.21 L 199.29 259.97 C 199.61 260.77 200.52 261.17 201.32 260.85 C 202.13 260.54 202.53 259.63 202.21 258.82 L 201.92 258.07 C 201.60 257.26 200.69 256.87 199.89 257.18 C 199.08 257.50 198.68 258.41 199.00 259.21 Z"
      fill="black"
      fill-rule="nonzero" /></svg>