<svg xmlns="http://www.w3.org/2000/svg" width="300" height="300" viewBox="0 0 300 300">
<path d="M 106.64 82.90 L 105.57 82.82 C 104.54 82.74 103.64 83.51 103.56 84.54 C 103.48 85.57 104.25 86.47 105.28 86.56 L 106.35 86.64 C 107.38 86.72 108.28 85.95 108.36 84.92 C 108.44 83.89 107.67 82.98 106.64 82.90 Z M 105.52 82.81 L 104.47 82.76 C 103.43 82.70 102.55 83.51 102.50 84.54 C 102.44 85.58 103.25 86.47 104.28 86.52 L 105.34 86.57 C 106.37 86.62 107.26 85.82 107.31 84.78 C 107.36 83.74 106.56 82.86 105.52 82.81 Z M 104.35 82.74 L 103.33 82.76 C 102.29 82.77 101.45 83.63 101.47 84.67 C 101.48 85.72 102.34 86.55 103.38 86.54 L 104.40 86.53 C 105.45 86.51 106.28 85.65 106.27 84.61 C 106.25 83.57 105.39 82.73 104.35 82.74 Z M 103.14 82.76 L 102.17 82.87 C 101.13 82.99 100.38 83.93 100.50 84.98 C 100.62 86.02 101.56 86.77 102.60 86.65 L 103.57 86.54 C 104.61 86.42 105.36 85.48 105.24 84.43 C 105.12 83.39 104.18 82.64 103.14 82.76 Z M 101.90 82.92 L 100.99 83.16 C 99.97 83.43 99.37 84.47 99.64 85.49 C 99.91 86.51 100.95 87.12 101.97 86.85 L 102.88 86.60 C 103.89 86.33 104.50 85.29 104.23 84.27 C 103.96 83.25 102.91 82.65 101.90 82.92 Z M 100.64 83.28 L 99.81 83.68 C 98.86 84.15 98.47 85.29 98.93 86.25 C 99.40 87.20 100.55 87.59 101.50 87.13 L 102.32 86.72 C 103.27 86.26 103.67 85.11 103.20 84.16 C 102.74 83.21 101.59 82.81 100.64 83.28 Z M 99.43 83.92 L 98.71 84.51 C 97.89 85.19 97.77 86.40 98.44 87.22 C 99.12 88.05 100.33 88.16 101.15 87.49 L 101.88 86.89 C 102.70 86.22 102.82 85.00 102.14 84.18 C 101.47 83.36 100.26 83.24 99.43 83.92 Z M 98.41 84.81 L 97.92 85.43 C 97.26 86.27 97.41 87.48 98.25 88.14 C 99.08 88.80 100.30 88.66 100.96 87.82 L 101.45 87.20 C 102.11 86.36 101.96 85.14 101.12 84.48 C 100.29 83.82 99.07 83.97 98.41 84.81 Z M 97.76 85.67 L 97.42 86.28 C 96.89 87.21 97.22 88.39 98.15 88.91 C 99.08 89.43 100.26 89.10 100.78 88.17 L 101.12 87.57 C 101.65 86.64 101.32 85.46 100.39 84.94 C 99.46 84.42 98.28 84.74 97.76 85.67 Z M 97.32 86.47 L 97.03 87.16 C 96.61 88.15 97.07 89.28 98.06 89.70 C 99.04 90.11 100.18 89.65 100.59 88.67 L 100.88 87.98 C 101.30 86.99 100.84 85.86 99.85 85.44 C 98.87 85.03 97.73 85.49 97.32 86.47 Z M 96.96 87.34 L 96.72 88.11 C 96.40 89.13 96.97 90.22 97.99 90.53 C 99.01 90.85 100.09 90.29 100.41 89.27 L 100.65 88.49 C 100.97 87.47 100.41 86.39 99.39 86.07 C 98.37 85.75 97.28 86.32 96.96 87.34 Z M 96.68 88.26 L 96.49 89.12 C 96.25 90.16 96.91 91.19 97.95 91.43 C 98.99 91.67 100.02 91.01 100.26 89.97 L 100.45 89.12 C 100.69 88.07 100.03 87.04 98.99 86.80 C 97.95 86.57 96.92 87.22 96.68 88.26 Z M 96.46 89.25 L 96.32 90.18 C 96.16 91.24 96.88 92.22 97.94 92.39 C 98.99 92.55 99.98 91.83 100.14 90.77 L 100.28 89.84 C 100.45 88.78 99.72 87.80 98.67 87.63 C 97.61 87.47 96.63 88.19 96.46 89.25 Z M 96.31 90.30 L 96.21 91.30 C 96.11 92.37 96.90 93.31 97.96 93.41 C 99.02 93.50 99.96 92.72 100.06 91.66 L 100.15 90.65 C 100.25 89.59 99.47 88.65 98.41 88.55 C 97.35 88.45 96.40 89.23 96.31 90.30 Z M 96.21 91.40 L 96.16 92.48 C 96.12 93.55 96.95 94.44 98.02 94.49 C 99.09 94.53 99.98 93.70 100.03 92.63 L 100.07 91.56 C 100.11 90.49 99.28 89.59 98.21 89.55 C 97.15 89.51 96.25 90.34 96.21 91.40 Z M 96.16 92.57 L 96.17 93.71 C 96.18 94.78 97.05 95.64 98.12 95.63 C 99.19 95.62 100.05 94.75 100.04 93.68 L 100.03 92.54 C 100.02 91.47 99.15 90.61 98.08 90.62 C 97.01 90.63 96.15 91.50 96.16 92.57 Z M 96.17 93.79 L 96.23 94.99 C 96.29 96.06 97.20 96.88 98.26 96.83 C 99.33 96.77 100.15 95.86 100.10 94.80 L 100.03 93.60 C 99.98 92.53 99.07 91.71 98.01 91.76 C 96.94 91.82 96.12 92.73 96.17 93.79 Z M 96.24 95.07 L 96.35 96.33 C 96.45 97.39 97.39 98.18 98.45 98.08 C 99.52 97.98 100.30 97.04 100.20 95.98 L 100.09 94.72 C 99.99 93.66 99.05 92.87 97.99 92.97 C 96.93 93.07 96.14 94.01 96.24 95.07 Z M 96.36 96.40 L 96.53 97.71 C 96.66 98.77 97.63 99.52 98.69 99.39 C 99.75 99.25 100.50 98.28 100.36 97.22 L 100.20 95.91 C 100.06 94.85 99.09 94.10 98.03 94.24 C 96.98 94.37 96.23 95.34 96.36 96.40 Z M 96.54 97.77 L 96.70 98.82 C 96.87 99.87 97.86 100.59 98.92 100.42 C 99.97 100.26 100.69 99.26 100.52 98.21 L 100.36 97.17 C 100.19 96.11 99.20 95.39 98.14 95.56 C 97.09 95.73 96.37 96.72 96.54 97.77 Z M 96.71 98.86 L 96.88 99.81 C 97.07 100.86 98.08 101.56 99.13 101.37 C 100.18 101.17 100.88 100.17 100.69 99.12 L 100.51 98.17 C 100.32 97.12 99.32 96.42 98.27 96.61 C 97.22 96.80 96.52 97.81 96.71 98.86 Z M 96.89 99.84 L 97.08 100.81 C 97.29 101.86 98.31 102.54 99.36 102.33 C 100.40 102.12 101.08 101.10 100.87 100.05 L 100.68 99.08 C 100.47 98.04 99.45 97.36 98.41 97.57 C 97.36 97.78 96.68 98.80 96.89 99.84 Z M 97.09 100.84 L 97.30 101.82 C 97.53 102.87 98.56 103.53 99.60 103.30 C 100.64 103.08 101.31 102.05 101.08 101.00 L 100.87 100.02 C 100.64 98.98 99.61 98.32 98.57 98.54 C 97.53 98.77 96.86 99.80 97.09 100.84 Z M 97.31 101.85 L 97.54 102.84 C 97.78 103.88 98.82 104.53 99.86 104.29 C 100.90 104.05 101.55 103.01 101.30 101.97 L 101.07 100.98 C 100.83 99.94 99.79 99.29 98.76 99.53 C 97.72 99.77 97.07 100.81 97.31 101.85 Z M 97.55 102.87 L 97.79 103.87 C 98.05 104.91 99.09 105.54 100.13 105.29 C 101.16 105.03 101.80 103.99 101.54 102.95 L 101.30 101.95 C 101.04 100.91 100.00 100.28 98.96 100.53 C 97.93 100.79 97.29 101.83 97.55 102.87 Z M 97.80 103.89 L 98.06 104.90 C 98.32 105.93 99.37 106.55 100.41 106.29 C 101.44 106.02 102.06 104.97 101.80 103.94 L 101.54 102.93 C 101.27 101.90 100.22 101.27 99.19 101.54 C 98.15 101.80 97.53 102.86 97.80 103.89 Z M 98.06 104.91 L 98.33 105.92 C 98.61 106.95 99.66 107.57 100.69 107.29 C 101.72 107.01 102.34 105.96 102.06 104.93 L 101.79 103.92 C 101.52 102.89 100.46 102.28 99.43 102.55 C 98.40 102.83 97.79 103.88 98.06 104.91 Z M 98.33 105.94 L 98.61 106.95 C 98.90 107.97 99.96 108.58 100.99 108.29 C 102.02 108.01 102.62 106.95 102.33 105.92 L 102.06 104.91 C 101.77 103.88 100.71 103.28 99.68 103.56 C 98.65 103.85 98.05 104.91 98.33 105.94 Z M 98.62 106.96 L 98.90 107.96 C 99.19 108.99 100.26 109.58 101.29 109.29 C 102.31 109.00 102.91 107.93 102.62 106.91 L 102.33 105.90 C 102.04 104.88 100.97 104.28 99.95 104.57 C 98.92 104.87 98.33 105.93 98.62 106.96 Z M 98.90 107.97 L 99.19 108.97 C 99.49 109.99 100.56 110.58 101.59 110.28 C 102.61 109.99 103.20 108.91 102.90 107.89 L 102.61 106.90 C 102.31 105.87 101.24 105.28 100.22 105.58 C 99.20 105.88 98.61 106.95 98.90 107.97 Z M 99.20 108.98 L 99.49 109.96 C 99.79 110.98 100.86 111.57 101.89 111.26 C 102.91 110.96 103.49 109.89 103.19 108.87 L 102.90 107.88 C 102.60 106.86 101.52 106.28 100.50 106.58 C 99.48 106.88 98.89 107.95 99.20 108.98 Z M 99.49 109.97 L 99.78 110.94 C 100.09 111.96 101.16 112.54 102.18 112.23 C 103.20 111.92 103.78 110.85 103.48 109.83 L 103.19 108.86 C 102.88 107.84 101.80 107.26 100.78 107.56 C 99.76 107.87 99.18 108.95 99.49 109.97 Z M 99.78 110.94 L 100.07 111.89 C 100.38 112.91 101.46 113.49 102.48 113.18 C 103.50 112.87 104.07 111.80 103.76 110.78 L 103.48 109.82 C 103.17 108.80 102.09 108.23 101.07 108.54 C 100.05 108.85 99.47 109.92 99.78 110.94 Z M 100.07 111.90 L 100.36 112.83 C 100.67 113.85 101.75 114.42 102.77 114.11 C 103.78 113.80 104.36 112.72 104.05 111.70 L 103.76 110.77 C 103.45 109.75 102.37 109.18 101.35 109.49 C 100.34 109.80 99.76 110.88 100.07 111.90 Z M 100.36 112.83 L 100.64 113.74 C 100.95 114.76 102.03 115.33 103.04 115.02 C 104.06 114.71 104.64 113.63 104.32 112.61 L 104.05 111.70 C 103.73 110.68 102.66 110.11 101.64 110.42 C 100.62 110.74 100.05 111.81 100.36 112.83 Z M 100.64 113.74 L 100.91 114.62 C 101.22 115.64 102.29 116.21 103.31 115.90 C 104.33 115.59 104.90 114.51 104.59 113.49 L 104.32 112.61 C 104.01 111.59 102.94 111.02 101.92 111.33 C 100.90 111.64 100.32 112.72 100.64 113.74 Z M 100.91 114.62 L 101.21 115.62 C 101.52 116.64 102.59 117.21 103.61 116.90 C 104.63 116.60 105.21 115.52 104.90 114.50 L 104.59 113.50 C 104.28 112.48 103.21 111.91 102.19 112.21 C 101.17 112.52 100.60 113.60 100.91 114.62 Z M 101.21 115.61 L 101.57 116.81 C 101.87 117.82 102.95 118.40 103.96 118.10 C 104.98 117.79 105.56 116.72 105.25 115.70 L 104.90 114.51 C 104.59 113.49 103.52 112.91 102.50 113.22 C 101.48 113.52 100.91 114.59 101.21 115.61 Z M 101.57 116.80 L 101.90 117.93 C 102.20 118.94 103.27 119.53 104.29 119.23 C 105.30 118.93 105.88 117.86 105.58 116.85 L 105.25 115.71 C 104.95 114.70 103.89 114.12 102.87 114.41 C 101.85 114.71 101.27 115.78 101.57 116.80 Z M 101.91 117.92 L 102.21 118.99 C 102.51 120.01 103.57 120.59 104.58 120.30 C 105.60 120.01 106.18 118.95 105.89 117.93 L 105.58 116.86 C 105.29 115.84 104.23 115.26 103.22 115.55 C 102.20 115.84 101.61 116.90 101.91 117.92 Z M 102.22 118.98 L 102.50 120.00 C 102.79 121.02 103.84 121.61 104.86 121.32 C 105.87 121.04 106.46 119.99 106.18 118.97 L 105.89 117.95 C 105.61 116.93 104.55 116.34 103.54 116.63 C 102.52 116.91 101.93 117.96 102.22 118.98 Z M 102.50 119.99 L 102.77 120.96 C 103.05 121.98 104.09 122.58 105.11 122.30 C 106.12 122.02 106.72 120.98 106.44 119.96 L 106.18 118.99 C 105.90 117.97 104.85 117.37 103.84 117.65 C 102.83 117.93 102.23 118.97 102.50 119.99 Z M 102.77 120.95 L 103.02 121.88 C 103.28 122.90 104.32 123.50 105.34 123.24 C 106.35 122.97 106.96 121.93 106.69 120.92 L 106.44 119.98 C 106.18 118.97 105.14 118.36 104.12 118.63 C 103.11 118.89 102.50 119.93 102.77 120.95 Z M 103.02 121.86 L 103.25 122.76 C 103.50 123.78 104.53 124.39 105.55 124.14 C 106.56 123.88 107.17 122.85 106.92 121.84 L 106.69 120.94 C 106.43 119.92 105.40 119.31 104.39 119.56 C 103.38 119.82 102.76 120.85 103.02 121.86 Z M 103.25 122.74 L 103.46 123.61 C 103.70 124.63 104.72 125.25 105.74 125.01 C 106.75 124.76 107.37 123.74 107.13 122.73 L 106.92 121.86 C 106.67 120.84 105.65 120.22 104.64 120.47 C 103.62 120.71 103.00 121.73 103.25 122.74 Z M 103.46 123.59 L 103.65 124.44 C 103.88 125.45 104.89 126.08 105.91 125.85 C 106.92 125.62 107.55 124.61 107.32 123.59 L 107.13 122.75 C 106.89 121.74 105.88 121.10 104.87 121.34 C 103.86 121.57 103.22 122.58 103.46 123.59 Z M 103.65 124.41 L 103.83 125.24 C 104.05 126.25 105.05 126.90 106.06 126.68 C 107.08 126.46 107.72 125.46 107.50 124.44 L 107.32 123.62 C 107.10 122.60 106.10 121.96 105.09 122.18 C 104.07 122.40 103.43 123.40 103.65 124.41 Z M 103.83 125.22 L 104.00 126.03 C 104.20 127.04 105.19 127.69 106.21 127.49 C 107.22 127.28 107.87 126.29 107.67 125.28 L 107.50 124.47 C 107.29 123.45 106.30 122.80 105.29 123.01 C 104.28 123.21 103.62 124.20 103.83 125.22 Z M 104.00 126.00 L 104.17 126.90 C 104.36 127.91 105.34 128.57 106.35 128.38 C 107.36 128.19 108.03 127.21 107.84 126.20 L 107.66 125.30 C 107.47 124.29 106.49 123.63 105.48 123.82 C 104.47 124.01 103.80 124.99 104.00 126.00 Z M 104.17 126.87 L 104.33 127.81 C 104.51 128.82 105.47 129.50 106.49 129.32 C 107.50 129.14 108.17 128.18 108.00 127.17 L 107.83 126.23 C 107.66 125.21 106.69 124.54 105.68 124.72 C 104.67 124.89 103.99 125.86 104.17 126.87 Z M 104.34 127.78 L 104.49 128.72 C 104.65 129.73 105.59 130.42 106.60 130.26 C 107.61 130.10 108.30 129.15 108.14 128.14 L 107.99 127.20 C 107.83 126.19 106.89 125.50 105.88 125.66 C 104.87 125.82 104.18 126.77 104.34 127.78 Z M 104.49 128.69 L 104.62 129.63 C 104.77 130.64 105.70 131.34 106.71 131.20 C 107.71 131.06 108.42 130.12 108.27 129.11 L 108.14 128.17 C 108.00 127.16 107.06 126.46 106.06 126.60 C 105.05 126.75 104.35 127.68 104.49 128.69 Z M 104.63 129.60 L 104.75 130.56 C 104.87 131.56 105.79 132.28 106.80 132.15 C 107.80 132.02 108.51 131.11 108.39 130.10 L 108.27 129.15 C 108.14 128.14 107.23 127.43 106.22 127.55 C 105.22 127.68 104.50 128.60 104.63 129.60 Z M 104.75 130.53 L 104.86 131.50 C 104.97 132.50 105.87 133.23 106.87 133.12 C 107.87 133.01 108.60 132.11 108.49 131.10 L 108.38 130.13 C 108.27 129.13 107.37 128.40 106.37 128.51 C 105.37 128.62 104.64 129.52 104.75 130.53 Z M 104.86 131.47 L 104.96 132.47 C 105.05 133.47 105.94 134.20 106.94 134.11 C 107.94 134.01 108.67 133.13 108.58 132.13 L 108.48 131.13 C 108.39 130.13 107.50 129.40 106.50 129.49 C 105.51 129.59 104.77 130.47 104.86 131.47 Z M 104.96 132.44 L 105.04 133.46 C 105.12 134.46 105.99 135.20 106.99 135.12 C 107.99 135.05 108.73 134.17 108.65 133.18 L 108.57 132.15 C 108.49 131.16 107.62 130.41 106.62 130.49 C 105.63 130.57 104.88 131.44 104.96 132.44 Z M 105.05 133.44 L 105.12 134.49 C 105.18 135.49 106.04 136.24 107.03 136.17 C 108.03 136.11 108.78 135.25 108.71 134.26 L 108.65 133.20 C 108.58 132.21 107.72 131.46 106.73 131.52 C 105.74 131.59 104.99 132.44 105.05 133.44 Z M 105.13 134.47 L 105.18 135.57 C 105.24 136.56 106.08 137.32 107.07 137.26 C 108.06 137.21 108.82 136.37 108.77 135.38 L 108.71 134.28 C 108.66 133.29 107.81 132.53 106.82 132.59 C 105.83 132.64 105.07 133.48 105.13 134.47 Z M 105.19 135.55 L 105.23 136.51 C 105.28 137.49 106.11 138.26 107.09 138.22 C 108.08 138.17 108.84 137.34 108.80 136.36 L 108.76 135.40 C 108.72 134.41 107.88 133.65 106.90 133.69 C 105.91 133.73 105.15 134.56 105.19 135.55 Z M 105.24 136.49 L 105.27 137.41 C 105.31 138.39 106.13 139.15 107.11 139.12 C 108.09 139.08 108.86 138.26 108.82 137.28 L 108.79 136.37 C 108.76 135.39 107.93 134.62 106.95 134.66 C 105.98 134.69 105.21 135.52 105.24 136.49 Z M 105.28 137.39 L 105.31 138.33 C 105.34 139.30 106.15 140.07 107.13 140.04 C 108.10 140.02 108.87 139.20 108.84 138.23 L 108.81 137.29 C 108.78 136.32 107.97 135.55 107.00 135.58 C 106.02 135.61 105.26 136.42 105.28 137.39 Z M 105.32 138.32 L 105.34 139.28 C 105.36 140.25 106.17 141.01 107.14 140.99 C 108.11 140.97 108.87 140.17 108.85 139.20 L 108.83 138.24 C 108.81 137.27 108.00 136.50 107.04 136.53 C 106.07 136.55 105.30 137.35 105.32 138.32 Z M 105.35 139.27 L 105.37 140.25 C 105.39 141.21 106.18 141.98 107.15 141.96 C 108.11 141.94 108.88 141.15 108.86 140.19 L 108.84 139.21 C 108.82 138.24 108.03 137.48 107.07 137.49 C 106.10 137.51 105.34 138.31 105.35 139.27 Z M 105.38 140.24 L 105.39 141.24 C 105.41 142.19 106.19 142.96 107.15 142.95 C 108.11 142.93 108.88 142.15 108.86 141.19 L 108.85 140.19 C 108.84 139.23 108.05 138.47 107.09 138.48 C 106.13 138.49 105.37 139.28 105.38 140.24 Z M 105.40 141.23 L 105.41 142.24 C 105.42 143.20 106.20 143.96 107.16 143.95 C 108.11 143.94 108.87 143.16 108.86 142.21 L 108.85 141.20 C 108.84 140.24 108.06 139.48 107.11 139.49 C 106.16 139.50 105.39 140.28 105.40 141.23 Z M 105.42 142.24 L 105.43 143.26 C 105.44 144.21 106.21 144.97 107.16 144.97 C 108.11 144.96 108.87 144.18 108.86 143.24 L 108.85 142.21 C 108.85 141.27 108.07 140.50 107.13 140.51 C 106.18 140.52 105.42 141.29 105.42 142.24 Z M 105.44 143.26 L 105.45 144.30 C 105.45 145.24 106.22 146.00 107.16 145.99 C 108.10 145.99 108.86 145.22 108.86 144.28 L 108.85 143.24 C 108.85 142.30 108.08 141.54 107.14 141.55 C 106.20 141.55 105.44 142.32 105.44 143.26 Z M 105.46 144.29 L 105.46 145.34 C 105.46 146.27 106.22 147.03 107.16 147.03 C 108.10 147.03 108.85 146.26 108.85 145.33 L 108.85 144.28 C 108.84 143.35 108.08 142.59 107.15 142.59 C 106.21 142.59 105.45 143.36 105.46 144.29 Z M 105.47 145.34 L 105.47 146.39 C 105.47 147.32 106.23 148.07 107.16 148.07 C 108.09 148.07 108.84 147.31 108.84 146.38 L 108.84 145.33 C 108.84 144.40 108.08 143.65 107.15 143.65 C 106.22 143.65 105.47 144.40 105.47 145.34 Z M 105.48 146.39 L 105.48 147.44 C 105.48 148.37 106.23 149.12 107.16 149.12 C 108.08 149.12 108.83 148.37 108.83 147.44 L 108.83 146.38 C 108.83 145.46 108.08 144.71 107.15 144.71 C 106.23 144.71 105.48 145.46 105.48 146.39 Z M 105.49 147.44 L 105.49 148.50 C 105.49 149.42 106.24 150.17 107.16 150.17 C 108.08 150.17 108.82 149.42 108.82 148.50 L 108.82 147.44 C 108.82 146.52 108.08 145.78 107.16 145.78 C 106.24 145.78 105.49 146.52 105.49 147.44 Z M 105.50 148.50 L 105.50 148.60 C 105.50 149.52 106.24 150.26 107.16 150.26 C 108.07 150.26 108.82 149.52 108.82 148.60 L 108.82 148.50 C 108.82 147.59 108.07 146.84 107.16 146.84 C 106.24 146.84 105.50 147.59 105.50 148.50 Z"
      fill="black"
      fill-rule="nonzero" /><path d="M 119.49 107.06 L 120.31 106.71 C 121.29 106.29 121.75 105.15 121.33 104.17 C 120.91 103.18 119.77 102.73 118.78 103.15 L 117.97 103.50 C 116.99 103.92 116.53 105.05 116.95 106.04 C 117.37 107.02 118.51 107.48 119.49 107.06 Z M 120.30 106.71 L 121.12 106.37 C 122.11 105.95 122.57 104.82 122.15 103.83 C 121.74 102.84 120.60 102.38 119.62 102.80 L 118.79 103.14 C 117.81 103.56 117.35 104.69 117.76 105.68 C 118.18 106.67 119.31 107.13 120.30 106.71 Z M 121.10 106.38 L 121.95 106.03 C 122.94 105.63 123.41 104.50 123.01 103.51 C 122.60 102.52 121.47 102.04 120.48 102.44 L 119.64 102.79 C 118.65 103.19 118.17 104.32 118.58 105.31 C 118.98 106.30 120.11 106.78 121.10 106.38 Z M 121.92 106.04 L 122.79 105.70 C 123.79 105.31 124.29 104.19 123.90 103.19 C 123.51 102.20 122.39 101.70 121.39 102.09 L 120.51 102.43 C 119.52 102.82 119.02 103.94 119.41 104.94 C 119.80 105.94 120.92 106.43 121.92 106.04 Z M 122.76 105.71 L 123.68 105.38 C 124.68 105.01 125.20 103.90 124.83 102.89 C 124.46 101.89 123.35 101.37 122.34 101.74 L 121.42 102.08 C 120.42 102.45 119.91 103.56 120.27 104.56 C 120.64 105.57 121.75 106.08 122.76 105.71 Z M 123.64 105.39 L 124.61 105.06 C 125.62 104.71 126.16 103.61 125.82 102.60 C 125.47 101.59 124.37 101.05 123.36 101.39 L 122.39 101.73 C 121.37 102.07 120.83 103.17 121.18 104.18 C 121.52 105.20 122.62 105.74 123.64 105.39 Z M 124.56 105.07 L 125.60 104.75 C 126.62 104.43 127.19 103.34 126.87 102.32 C 126.55 101.30 125.46 100.73 124.44 101.05 L 123.40 101.38 C 122.38 101.70 121.81 102.79 122.14 103.81 C 122.46 104.83 123.54 105.40 124.56 105.07 Z M 125.55 104.76 L 126.66 104.45 C 127.69 104.15 128.29 103.08 127.99 102.05 C 127.70 101.02 126.62 100.43 125.59 100.72 L 124.48 101.04 C 123.46 101.33 122.86 102.41 123.16 103.44 C 123.45 104.46 124.52 105.06 125.55 104.76 Z M 126.62 104.46 L 127.63 104.19 C 128.67 103.92 129.29 102.86 129.02 101.83 C 128.75 100.79 127.69 100.17 126.65 100.44 L 125.64 100.71 C 124.60 100.98 123.98 102.04 124.25 103.07 C 124.52 104.11 125.58 104.73 126.62 104.46 Z M 127.60 104.20 L 128.44 104.00 C 129.48 103.74 130.12 102.70 129.87 101.66 C 129.62 100.62 128.57 99.98 127.53 100.23 L 126.69 100.43 C 125.65 100.69 125.01 101.73 125.26 102.77 C 125.51 103.81 126.56 104.45 127.60 104.20 Z M 128.42 104.00 L 129.30 103.80 C 130.34 103.56 130.99 102.52 130.76 101.48 C 130.52 100.44 129.48 99.78 128.44 100.02 L 127.56 100.22 C 126.51 100.46 125.86 101.50 126.10 102.54 C 126.34 103.59 127.38 104.24 128.42 104.00 Z M 129.28 103.81 L 130.19 103.61 C 131.24 103.38 131.90 102.35 131.67 101.30 C 131.45 100.26 130.42 99.59 129.37 99.82 L 128.46 100.02 C 127.41 100.24 126.75 101.28 126.97 102.32 C 127.20 103.37 128.23 104.03 129.28 103.81 Z M 130.17 103.61 L 131.12 103.42 C 132.17 103.20 132.84 102.17 132.62 101.12 C 132.40 100.08 131.38 99.40 130.33 99.62 L 129.39 99.82 C 128.34 100.03 127.67 101.06 127.88 102.11 C 128.10 103.16 129.13 103.83 130.17 103.61 Z M 131.10 103.42 L 132.07 103.22 C 133.12 103.01 133.80 101.99 133.59 100.94 C 133.38 99.89 132.36 99.21 131.31 99.42 L 130.34 99.62 C 129.29 99.83 128.61 100.85 128.82 101.90 C 129.03 102.95 130.05 103.63 131.10 103.42 Z M 132.06 103.23 L 133.06 103.03 C 134.11 102.83 134.79 101.81 134.59 100.76 C 134.39 99.71 133.37 99.02 132.32 99.23 L 131.33 99.42 C 130.27 99.62 129.59 100.64 129.79 101.69 C 129.99 102.74 131.01 103.43 132.06 103.23 Z M 133.05 103.04 L 134.06 102.84 C 135.11 102.65 135.80 101.63 135.61 100.58 C 135.41 99.53 134.39 98.84 133.34 99.03 L 132.33 99.23 C 131.28 99.43 130.58 100.44 130.78 101.49 C 130.98 102.54 132.00 103.23 133.05 103.04 Z M 134.05 102.85 L 135.08 102.65 C 136.14 102.46 136.83 101.45 136.64 100.40 C 136.44 99.34 135.43 98.65 134.38 98.84 L 133.35 99.03 C 132.30 99.23 131.60 100.24 131.80 101.29 C 131.99 102.35 133.00 103.04 134.05 102.85 Z M 135.08 102.66 L 136.12 102.46 C 137.18 102.27 137.88 101.26 137.68 100.21 C 137.49 99.16 136.48 98.46 135.43 98.65 L 134.38 98.84 C 133.33 99.03 132.63 100.04 132.82 101.10 C 133.02 102.15 134.03 102.85 135.08 102.66 Z M 136.12 102.47 L 137.18 102.27 C 138.23 102.08 138.93 101.07 138.74 100.02 C 138.55 98.97 137.54 98.27 136.48 98.46 L 135.43 98.65 C 134.38 98.84 133.68 99.85 133.87 100.90 C 134.06 101.96 135.07 102.66 136.12 102.47 Z M 137.18 102.27 L 138.24 102.08 C 139.29 101.89 139.99 100.88 139.80 99.83 C 139.61 98.77 138.60 98.08 137.55 98.27 L 136.49 98.46 C 135.43 98.65 134.73 99.66 134.92 100.71 C 135.11 101.77 136.12 102.46 137.18 102.27 Z M 138.24 102.08 L 139.31 101.89 C 140.36 101.70 141.06 100.69 140.87 99.63 C 140.67 98.58 139.67 97.88 138.61 98.07 L 137.55 98.27 C 136.49 98.46 135.79 99.47 135.99 100.52 C 136.18 101.57 137.19 102.27 138.24 102.08 Z M 139.31 101.89 L 140.35 101.70 C 141.40 101.50 142.10 100.49 141.91 99.44 C 141.72 98.39 140.71 97.69 139.65 97.88 L 138.61 98.07 C 137.56 98.27 136.86 99.28 137.05 100.33 C 137.24 101.38 138.26 102.08 139.31 101.89 Z M 140.35 101.70 L 141.39 101.50 C 142.44 101.31 143.14 100.30 142.94 99.25 C 142.75 98.19 141.74 97.50 140.68 97.69 L 139.65 97.88 C 138.60 98.08 137.90 99.09 138.10 100.14 C 138.29 101.19 139.30 101.89 140.35 101.70 Z M 141.39 101.50 L 142.42 101.31 C 143.47 101.12 144.17 100.11 143.97 99.05 C 143.78 98.00 142.76 97.30 141.71 97.50 L 140.68 97.69 C 139.63 97.89 138.93 98.90 139.13 99.95 C 139.32 101.00 140.34 101.70 141.39 101.50 Z M 142.42 101.31 L 143.45 101.12 C 144.50 100.93 145.19 99.91 145.00 98.86 C 144.80 97.81 143.79 97.11 142.74 97.31 L 141.71 97.50 C 140.66 97.70 139.96 98.71 140.16 99.76 C 140.36 100.81 141.37 101.51 142.42 101.31 Z M 143.45 101.12 L 144.46 100.93 C 145.52 100.74 146.21 99.72 146.02 98.67 C 145.82 97.62 144.81 96.92 143.75 97.12 L 142.74 97.31 C 141.68 97.51 140.99 98.52 141.18 99.57 C 141.38 100.62 142.39 101.32 143.45 101.12 Z M 144.46 100.93 L 145.47 100.75 C 146.53 100.55 147.22 99.54 147.03 98.49 C 146.83 97.43 145.82 96.74 144.77 96.93 L 143.76 97.12 C 142.70 97.32 142.01 98.33 142.20 99.38 C 142.40 100.43 143.41 101.13 144.46 100.93 Z M 145.47 100.75 L 146.47 100.56 C 147.52 100.37 148.22 99.36 148.03 98.30 C 147.83 97.25 146.82 96.55 145.77 96.75 L 144.77 96.93 C 143.72 97.13 143.02 98.14 143.21 99.19 C 143.41 100.24 144.42 100.94 145.47 100.75 Z M 146.47 100.56 L 147.46 100.38 C 148.51 100.19 149.21 99.18 149.02 98.13 C 148.82 97.07 147.81 96.38 146.76 96.57 L 145.77 96.75 C 144.72 96.94 144.02 97.95 144.21 99.00 C 144.40 100.06 145.41 100.75 146.47 100.56 Z M 147.45 100.38 L 148.43 100.21 C 149.48 100.02 150.18 99.01 149.99 97.96 C 149.80 96.90 148.79 96.20 147.74 96.39 L 146.77 96.57 C 145.71 96.76 145.01 97.76 145.20 98.82 C 145.39 99.87 146.40 100.57 147.45 100.38 Z M 148.42 100.21 L 149.38 100.04 C 150.43 99.85 151.14 98.85 150.95 97.79 C 150.77 96.74 149.76 96.04 148.71 96.22 L 147.75 96.39 C 146.69 96.58 145.99 97.58 146.17 98.64 C 146.36 99.69 147.37 100.40 148.42 100.21 Z M 149.37 100.04 L 150.31 99.88 C 151.37 99.70 152.08 98.69 151.90 97.64 C 151.71 96.58 150.71 95.87 149.65 96.06 L 148.71 96.22 C 147.66 96.40 146.95 97.41 147.13 98.46 C 147.31 99.52 148.32 100.22 149.37 100.04 Z M 150.31 99.88 L 151.23 99.72 C 152.29 99.55 153.00 98.55 152.82 97.49 C 152.64 96.44 151.64 95.72 150.59 95.90 L 149.66 96.06 C 148.61 96.23 147.90 97.23 148.07 98.29 C 148.25 99.34 149.25 100.06 150.31 99.88 Z M 151.22 99.73 L 152.12 99.58 C 153.18 99.41 153.90 98.41 153.72 97.35 C 153.55 96.30 152.56 95.58 151.50 95.75 L 150.60 95.90 C 149.54 96.07 148.82 97.07 148.99 98.12 C 149.17 99.18 150.16 99.90 151.22 99.73 Z M 152.11 99.58 L 153.09 99.43 C 154.15 99.26 154.87 98.27 154.71 97.21 C 154.55 96.16 153.55 95.43 152.50 95.60 L 151.51 95.75 C 150.45 95.91 149.73 96.91 149.90 97.96 C 150.06 99.02 151.05 99.75 152.11 99.58 Z M 153.08 99.43 L 154.09 99.28 C 155.15 99.12 155.88 98.14 155.73 97.08 C 155.57 96.02 154.59 95.29 153.53 95.44 L 152.51 95.59 C 151.45 95.75 150.72 96.74 150.88 97.80 C 151.03 98.85 152.02 99.59 153.08 99.43 Z M 154.08 99.28 L 155.07 99.15 C 156.13 99.00 156.87 98.02 156.73 96.96 C 156.58 95.90 155.60 95.16 154.54 95.31 L 153.55 95.44 C 152.49 95.59 151.74 96.57 151.89 97.63 C 152.04 98.69 153.02 99.43 154.08 99.28 Z M 155.05 99.15 L 156.03 99.02 C 157.09 98.89 157.84 97.92 157.71 96.86 C 157.57 95.79 156.60 95.04 155.54 95.18 L 154.56 95.30 C 153.50 95.44 152.75 96.41 152.88 97.47 C 153.02 98.53 153.99 99.28 155.05 99.15 Z M 156.01 99.03 L 156.98 98.91 C 158.04 98.79 158.80 97.83 158.68 96.76 C 158.55 95.70 157.59 94.94 156.53 95.06 L 155.56 95.18 C 154.50 95.30 153.73 96.26 153.86 97.33 C 153.98 98.39 154.94 99.15 156.01 99.03 Z M 156.95 98.91 L 157.92 98.81 C 158.98 98.70 159.75 97.75 159.64 96.68 C 159.53 95.62 158.57 94.85 157.51 94.96 L 156.55 95.06 C 155.48 95.17 154.71 96.13 154.82 97.19 C 154.94 98.26 155.89 99.03 156.95 98.91 Z M 157.90 98.82 L 158.86 98.72 C 159.93 98.62 160.71 97.68 160.61 96.61 C 160.51 95.55 159.56 94.77 158.50 94.87 L 157.53 94.96 C 156.47 95.06 155.68 96.00 155.78 97.07 C 155.88 98.13 156.83 98.92 157.90 98.82 Z M 158.84 98.73 L 159.81 98.65 C 160.88 98.56 161.67 97.62 161.58 96.56 C 161.50 95.49 160.56 94.70 159.49 94.78 L 158.52 94.86 C 157.45 94.95 156.66 95.89 156.75 96.96 C 156.84 98.02 157.77 98.81 158.84 98.73 Z M 159.79 98.65 L 160.78 98.58 C 161.85 98.50 162.65 97.57 162.57 96.51 C 162.50 95.44 161.57 94.64 160.50 94.71 L 159.51 94.78 C 158.45 94.86 157.64 95.79 157.72 96.85 C 157.80 97.92 158.72 98.72 159.79 98.65 Z M 160.76 98.58 L 161.77 98.52 C 162.84 98.45 163.65 97.53 163.58 96.47 C 163.52 95.40 162.60 94.58 161.53 94.65 L 160.52 94.71 C 159.46 94.78 158.64 95.69 158.71 96.76 C 158.77 97.83 159.69 98.64 160.76 98.58 Z M 161.75 98.52 L 162.78 98.46 C 163.85 98.41 164.67 97.50 164.62 96.43 C 164.57 95.36 163.66 94.54 162.59 94.60 L 161.55 94.65 C 160.48 94.70 159.66 95.61 159.72 96.68 C 159.77 97.75 160.68 98.57 161.75 98.52 Z M 162.77 98.47 L 163.77 98.42 C 164.83 98.38 165.67 97.48 165.62 96.41 C 165.58 95.34 164.67 94.51 163.61 94.55 L 162.60 94.59 C 161.54 94.64 160.71 95.54 160.75 96.61 C 160.79 97.68 161.70 98.51 162.77 98.47 Z M 163.75 98.43 L 164.73 98.39 C 165.80 98.36 166.64 97.46 166.61 96.39 C 166.57 95.32 165.68 94.49 164.61 94.52 L 163.62 94.55 C 162.55 94.59 161.71 95.48 161.75 96.55 C 161.78 97.62 162.68 98.46 163.75 98.43 Z M 164.71 98.40 L 165.71 98.38 C 166.78 98.35 167.63 97.47 167.61 96.39 C 167.59 95.32 166.70 94.47 165.63 94.50 L 164.63 94.52 C 163.56 94.54 162.71 95.43 162.73 96.50 C 162.75 97.57 163.64 98.42 164.71 98.40 Z M 165.69 98.38 L 166.70 98.37 C 167.78 98.36 168.64 97.48 168.63 96.41 C 168.62 95.34 167.74 94.48 166.67 94.49 L 165.65 94.49 C 164.58 94.50 163.72 95.38 163.73 96.45 C 163.74 97.53 164.61 98.39 165.69 98.38 Z M 166.68 98.37 L 167.70 98.38 C 168.77 98.38 169.65 97.52 169.66 96.44 C 169.66 95.37 168.80 94.50 167.72 94.49 L 166.70 94.48 C 165.62 94.48 164.75 95.34 164.74 96.42 C 164.74 97.49 165.60 98.36 166.68 98.37 Z M 167.67 98.38 L 168.70 98.40 C 169.77 98.43 170.66 97.57 170.69 96.50 C 170.71 95.43 169.86 94.54 168.79 94.51 L 167.76 94.49 C 166.68 94.46 165.79 95.32 165.77 96.39 C 165.74 97.46 166.59 98.35 167.67 98.38 Z M 168.66 98.40 L 169.69 98.44 C 170.76 98.49 171.67 97.65 171.72 96.58 C 171.76 95.51 170.93 94.60 169.85 94.55 L 168.82 94.51 C 167.75 94.47 166.84 95.30 166.80 96.38 C 166.75 97.45 167.59 98.36 168.66 98.40 Z M 169.65 98.44 L 170.67 98.51 C 171.74 98.58 172.67 97.76 172.74 96.69 C 172.80 95.61 171.99 94.69 170.92 94.62 L 169.89 94.55 C 168.82 94.49 167.89 95.30 167.83 96.38 C 167.76 97.45 168.57 98.38 169.65 98.44 Z M 170.62 98.51 L 171.63 98.60 C 172.70 98.69 173.65 97.90 173.74 96.82 C 173.84 95.75 173.05 94.80 171.97 94.71 L 170.96 94.62 C 169.89 94.53 168.94 95.32 168.85 96.39 C 168.76 97.47 169.55 98.41 170.62 98.51 Z M 171.58 98.59 L 172.57 98.71 C 173.64 98.83 174.61 98.06 174.73 96.99 C 174.86 95.92 174.09 94.95 173.02 94.83 L 172.03 94.71 C 170.96 94.59 169.99 95.36 169.86 96.43 C 169.74 97.50 170.51 98.47 171.58 98.59 Z M 172.51 98.70 L 173.48 98.84 C 174.54 99.00 175.54 98.27 175.70 97.20 C 175.85 96.13 175.12 95.14 174.05 94.98 L 173.08 94.84 C 172.01 94.68 171.02 95.41 170.86 96.48 C 170.70 97.55 171.44 98.54 172.51 98.70 Z M 173.41 98.83 L 174.35 99.01 C 175.41 99.21 176.43 98.51 176.63 97.44 C 176.82 96.38 176.12 95.36 175.06 95.16 L 174.12 94.99 C 173.06 94.79 172.04 95.49 171.84 96.55 C 171.64 97.62 172.34 98.64 173.41 98.83 Z M 174.26 98.99 L 175.23 99.22 C 176.28 99.46 177.33 98.80 177.58 97.75 C 177.82 96.70 177.16 95.65 176.11 95.40 L 175.14 95.18 C 174.09 94.94 173.04 95.59 172.80 96.65 C 172.55 97.70 173.21 98.75 174.26 98.99 Z M 175.13 99.19 L 176.19 99.49 C 177.23 99.79 178.31 99.19 178.61 98.15 C 178.91 97.11 178.30 96.03 177.27 95.73 L 176.21 95.43 C 175.17 95.13 174.09 95.73 173.79 96.77 C 173.49 97.81 174.09 98.89 175.13 99.19 Z M 176.08 99.46 L 177.08 99.81 C 178.11 100.17 179.22 99.63 179.58 98.61 C 179.94 97.59 179.40 96.47 178.37 96.11 L 177.37 95.76 C 176.35 95.41 175.23 95.95 174.88 96.97 C 174.52 97.99 175.06 99.11 176.08 99.46 Z M 176.98 99.77 L 177.94 100.17 C 178.94 100.58 180.09 100.10 180.50 99.10 C 180.91 98.10 180.43 96.96 179.43 96.54 L 178.48 96.15 C 177.47 95.74 176.33 96.22 175.92 97.22 C 175.51 98.22 175.98 99.36 176.98 99.77 Z M 177.84 100.13 L 178.75 100.56 C 179.73 101.03 180.90 100.61 181.37 99.63 C 181.83 98.66 181.42 97.49 180.44 97.02 L 179.53 96.59 C 178.55 96.12 177.38 96.54 176.92 97.51 C 176.45 98.49 176.86 99.66 177.84 100.13 Z M 178.66 100.52 L 179.53 100.99 C 180.49 101.50 181.68 101.15 182.19 100.19 C 182.71 99.24 182.35 98.05 181.40 97.54 L 180.53 97.06 C 179.58 96.55 178.39 96.90 177.87 97.86 C 177.36 98.81 177.71 100.00 178.66 100.52 Z M 179.45 100.94 L 180.28 101.44 C 181.21 102.01 182.42 101.71 182.98 100.78 C 183.54 99.85 183.24 98.65 182.32 98.09 L 181.48 97.58 C 180.56 97.02 179.35 97.32 178.79 98.24 C 178.23 99.17 178.52 100.38 179.45 100.94 Z M 180.21 101.40 L 181.00 101.93 C 181.90 102.53 183.12 102.29 183.73 101.39 C 184.33 100.49 184.09 99.27 183.19 98.67 L 182.39 98.13 C 181.49 97.53 180.27 97.77 179.67 98.67 C 179.06 99.57 179.31 100.79 180.21 101.40 Z M 180.94 101.88 L 181.70 102.44 C 182.58 103.08 183.81 102.89 184.45 102.02 C 185.09 101.14 184.90 99.91 184.02 99.27 L 183.26 98.71 C 182.38 98.07 181.15 98.26 180.51 99.14 C 179.87 100.01 180.06 101.24 180.94 101.88 Z M 181.64 102.40 L 182.38 102.98 C 183.23 103.66 184.47 103.51 185.14 102.66 C 185.81 101.81 185.67 100.57 184.82 99.90 L 184.08 99.32 C 183.23 98.64 181.99 98.79 181.32 99.64 C 180.65 100.49 180.79 101.73 181.64 102.40 Z M 182.33 102.94 L 183.05 103.55 C 183.88 104.25 185.12 104.15 185.82 103.32 C 186.52 102.49 186.41 101.25 185.58 100.55 L 184.87 99.94 C 184.04 99.24 182.80 99.34 182.10 100.17 C 181.40 101.00 181.50 102.24 182.33 102.94 Z M 183.00 103.51 L 183.72 104.15 C 184.53 104.88 185.77 104.81 186.50 104.01 C 187.22 103.20 187.15 101.95 186.35 101.23 L 185.63 100.58 C 184.82 99.86 183.58 99.93 182.85 100.73 C 182.13 101.54 182.19 102.78 183.00 103.51 Z M 183.68 104.12 L 184.38 104.78 C 185.16 105.53 186.41 105.50 187.16 104.71 C 187.90 103.92 187.87 102.68 187.09 101.93 L 186.39 101.27 C 185.60 100.52 184.36 100.55 183.61 101.34 C 182.86 102.12 182.89 103.37 183.68 104.12 Z M 184.34 104.74 L 185.02 105.43 C 185.79 106.20 187.03 106.20 187.80 105.43 C 188.57 104.66 188.57 103.42 187.80 102.65 L 187.12 101.97 C 186.36 101.20 185.11 101.20 184.34 101.96 C 183.57 102.73 183.57 103.97 184.34 104.74 Z M 184.99 105.39 L 185.66 106.10 C 186.41 106.88 187.65 106.92 188.44 106.17 C 189.22 105.42 189.26 104.17 188.51 103.39 L 187.84 102.68 C 187.09 101.90 185.84 101.86 185.06 102.61 C 184.27 103.36 184.24 104.61 184.99 105.39 Z M 185.63 106.07 L 186.29 106.79 C 187.02 107.60 188.27 107.65 189.07 106.92 C 189.87 106.19 189.93 104.95 189.20 104.14 L 188.54 103.42 C 187.80 102.62 186.56 102.56 185.76 103.29 C 184.96 104.02 184.90 105.26 185.63 106.07 Z M 186.27 106.77 L 186.93 107.52 C 187.64 108.33 188.88 108.41 189.70 107.70 C 190.52 106.98 190.60 105.74 189.88 104.92 L 189.22 104.17 C 188.51 103.36 187.26 103.27 186.45 103.99 C 185.63 104.71 185.55 105.95 186.27 106.77 Z M 186.91 107.49 L 187.56 108.27 C 188.27 109.09 189.51 109.19 190.34 108.49 C 191.16 107.79 191.26 106.55 190.56 105.72 L 189.90 104.94 C 189.20 104.12 187.96 104.02 187.13 104.72 C 186.30 105.42 186.20 106.67 186.91 107.49 Z M 187.55 108.25 L 188.21 109.05 C 188.90 109.88 190.14 110.00 190.98 109.31 C 191.81 108.61 191.93 107.37 191.24 106.54 L 190.58 105.74 C 189.88 104.90 188.64 104.79 187.81 105.48 C 186.97 106.17 186.85 107.41 187.55 108.25 Z M 188.20 109.03 L 188.87 109.86 C 189.55 110.70 190.79 110.83 191.63 110.14 C 192.48 109.46 192.61 108.22 191.92 107.38 L 191.25 106.55 C 190.57 105.71 189.33 105.58 188.48 106.27 C 187.64 106.95 187.51 108.19 188.20 109.03 Z M 188.86 109.85 L 189.49 110.63 C 190.16 111.48 191.40 111.61 192.25 110.93 C 193.10 110.26 193.23 109.02 192.55 108.17 L 191.93 107.39 C 191.25 106.54 190.01 106.41 189.17 107.08 C 188.32 107.76 188.18 109.00 188.86 109.85 Z M 189.48 110.62 L 190.06 111.35 C 190.73 112.20 191.96 112.35 192.82 111.68 C 193.67 111.01 193.82 109.77 193.14 108.92 L 192.56 108.18 C 191.89 107.33 190.66 107.18 189.80 107.86 C 188.95 108.53 188.80 109.76 189.48 110.62 Z M 190.04 111.33 L 190.62 112.09 C 191.29 112.95 192.52 113.11 193.38 112.45 C 194.24 111.79 194.40 110.56 193.74 109.70 L 193.16 108.94 C 192.50 108.08 191.26 107.92 190.40 108.58 C 189.54 109.24 189.38 110.47 190.04 111.33 Z M 190.61 112.06 L 191.18 112.84 C 191.83 113.72 193.06 113.90 193.93 113.25 C 194.80 112.60 194.98 111.37 194.34 110.50 L 193.76 109.72 C 193.11 108.85 191.88 108.67 191.01 109.32 C 190.14 109.96 189.96 111.19 190.61 112.06 Z M 191.16 112.81 L 191.73 113.61 C 192.36 114.50 193.59 114.70 194.47 114.08 C 195.35 113.45 195.56 112.22 194.93 111.34 L 194.36 110.54 C 193.73 109.65 192.51 109.45 191.62 110.08 C 190.74 110.70 190.53 111.93 191.16 112.81 Z M 191.71 113.57 L 192.26 114.40 C 192.87 115.30 194.09 115.54 194.99 114.93 C 195.88 114.32 196.12 113.10 195.52 112.21 L 194.96 111.38 C 194.35 110.48 193.13 110.25 192.24 110.85 C 191.34 111.46 191.10 112.68 191.71 113.57 Z M 192.23 114.35 L 192.77 115.20 C 193.35 116.12 194.56 116.39 195.48 115.81 C 196.39 115.23 196.66 114.02 196.08 113.11 L 195.55 112.25 C 194.97 111.34 193.76 111.07 192.84 111.65 C 191.93 112.23 191.65 113.44 192.23 114.35 Z M 192.74 115.15 L 193.25 116.02 C 193.80 116.96 195.00 117.27 195.94 116.72 C 196.87 116.17 197.18 114.97 196.63 114.04 L 196.12 113.16 C 195.57 112.23 194.37 111.92 193.44 112.47 C 192.50 113.01 192.19 114.21 192.74 115.15 Z M 193.22 115.96 L 193.71 116.86 C 194.22 117.81 195.41 118.17 196.36 117.66 C 197.31 117.14 197.67 115.96 197.15 115.00 L 196.67 114.10 C 196.15 113.15 194.97 112.79 194.01 113.31 C 193.06 113.82 192.71 115.01 193.22 115.96 Z M 193.67 116.79 L 194.12 117.72 C 194.59 118.69 195.77 119.10 196.74 118.62 C 197.71 118.15 198.12 116.98 197.64 116.01 L 197.19 115.08 C 196.72 114.10 195.55 113.70 194.57 114.17 C 193.60 114.65 193.20 115.82 193.67 116.79 Z M 194.09 117.64 L 194.50 118.60 C 194.93 119.59 196.08 120.05 197.07 119.62 C 198.06 119.19 198.52 118.04 198.09 117.05 L 197.68 116.09 C 197.25 115.10 196.10 114.64 195.11 115.07 C 194.11 115.49 193.66 116.65 194.09 117.64 Z M 194.46 118.51 L 194.83 119.49 C 195.21 120.50 196.34 121.02 197.35 120.64 C 198.36 120.26 198.87 119.13 198.50 118.12 L 198.13 117.14 C 197.75 116.12 196.62 115.61 195.61 115.99 C 194.60 116.37 194.08 117.49 194.46 118.51 Z M 194.80 119.40 L 195.07 120.24 C 195.40 121.26 196.50 121.83 197.53 121.50 C 198.55 121.17 199.12 120.07 198.79 119.04 L 198.53 118.21 C 198.20 117.18 197.10 116.62 196.07 116.95 C 195.04 117.28 194.47 118.38 194.80 119.40 Z M 195.05 120.15 L 195.28 121.00 C 195.56 122.04 196.64 122.66 197.68 122.37 C 198.72 122.09 199.33 121.01 199.05 119.97 L 198.81 119.13 C 198.53 118.08 197.46 117.47 196.42 117.76 C 195.38 118.04 194.76 119.11 195.05 120.15 Z M 195.26 120.92 L 195.46 121.79 C 195.70 122.84 196.74 123.50 197.79 123.26 C 198.85 123.02 199.50 121.97 199.26 120.92 L 199.07 120.05 C 198.83 119.00 197.78 118.35 196.73 118.58 C 195.68 118.82 195.02 119.87 195.26 120.92 Z M 195.44 121.71 L 195.61 122.60 C 195.80 123.66 196.82 124.36 197.88 124.17 C 198.94 123.97 199.64 122.95 199.44 121.89 L 199.28 121.00 C 199.08 119.94 198.06 119.24 197.01 119.44 C 195.95 119.64 195.25 120.65 195.44 121.71 Z M 195.60 122.53 L 195.73 123.44 C 195.88 124.51 196.87 125.25 197.93 125.09 C 199.00 124.94 199.74 123.95 199.59 122.89 L 199.45 121.97 C 199.30 120.91 198.31 120.17 197.25 120.32 C 196.18 120.47 195.44 121.46 195.60 122.53 Z M 195.72 123.37 L 195.82 124.31 C 195.93 125.38 196.89 126.15 197.96 126.04 C 199.03 125.93 199.80 124.97 199.69 123.90 L 199.59 122.96 C 199.48 121.89 198.52 121.12 197.46 121.23 C 196.39 121.34 195.61 122.30 195.72 123.37 Z M 195.81 124.23 L 195.88 125.20 C 195.95 126.27 196.88 127.08 197.95 127.01 C 199.02 126.94 199.83 126.01 199.76 124.94 L 199.70 123.97 C 199.63 122.90 198.70 122.09 197.63 122.16 C 196.55 122.23 195.74 123.16 195.81 124.23 Z M 195.88 125.13 L 195.91 126.12 C 195.94 127.19 196.84 128.04 197.91 128.00 C 198.98 127.97 199.83 127.07 199.79 126.00 L 199.76 125.01 C 199.73 123.94 198.83 123.09 197.76 123.13 C 196.69 123.16 195.84 124.06 195.88 125.13 Z M 195.91 126.05 L 195.90 127.07 C 195.90 128.15 196.77 129.02 197.84 129.02 C 198.91 129.03 199.79 128.16 199.79 127.09 L 199.79 126.07 C 199.80 124.99 198.93 124.12 197.86 124.12 C 196.78 124.11 195.91 124.98 195.91 126.05 Z M 195.91 127.01 L 195.87 128.06 C 195.83 129.13 196.67 130.03 197.74 130.07 C 198.81 130.11 199.71 129.27 199.75 128.20 L 199.79 127.15 C 199.83 126.08 198.99 125.18 197.92 125.14 C 196.84 125.10 195.94 125.94 195.91 127.01 Z M 195.87 128.00 L 195.80 129.07 C 195.73 130.14 196.54 131.07 197.61 131.14 C 198.68 131.21 199.60 130.40 199.67 129.33 L 199.75 128.26 C 199.82 127.19 199.01 126.26 197.94 126.19 C 196.87 126.12 195.94 126.93 195.87 128.00 Z M 195.81 129.02 L 195.70 130.12 C 195.60 131.19 196.38 132.14 197.45 132.24 C 198.51 132.34 199.46 131.56 199.56 130.49 L 199.67 129.39 C 199.77 128.32 198.99 127.37 197.92 127.27 C 196.86 127.17 195.91 127.95 195.81 129.02 Z M 195.71 130.07 L 195.57 131.21 C 195.44 132.27 196.19 133.24 197.25 133.37 C 198.32 133.50 199.28 132.74 199.41 131.68 L 199.55 130.55 C 199.69 129.48 198.93 128.52 197.87 128.39 C 196.81 128.25 195.84 129.01 195.71 130.07 Z M 195.58 131.16 L 195.40 132.33 C 195.24 133.39 195.97 134.37 197.03 134.53 C 198.09 134.69 199.07 133.96 199.23 132.90 L 199.41 131.73 C 199.56 130.67 198.84 129.69 197.78 129.53 C 196.72 129.37 195.73 130.10 195.58 131.16 Z M 195.41 132.29 L 195.24 133.29 C 195.06 134.34 195.76 135.34 196.82 135.52 C 197.87 135.70 198.87 135.00 199.05 133.95 L 199.22 132.94 C 199.40 131.89 198.70 130.89 197.64 130.71 C 196.59 130.53 195.59 131.24 195.41 132.29 Z M 195.25 133.26 L 195.07 134.24 C 194.87 135.28 195.55 136.29 196.60 136.49 C 197.64 136.69 198.65 136.00 198.85 134.96 L 199.03 133.98 C 199.23 132.94 198.55 131.93 197.50 131.73 C 196.46 131.53 195.45 132.22 195.25 133.26 Z M 195.08 134.21 L 194.88 135.21 C 194.66 136.24 195.33 137.25 196.37 137.47 C 197.40 137.68 198.41 137.01 198.63 135.98 L 198.83 134.98 C 199.05 133.95 198.38 132.94 197.34 132.72 C 196.31 132.51 195.30 133.18 195.08 134.21 Z M 194.89 135.18 L 194.67 136.19 C 194.44 137.21 195.09 138.23 196.12 138.46 C 197.15 138.68 198.16 138.04 198.39 137.01 L 198.61 136.00 C 198.84 134.97 198.19 133.96 197.16 133.73 C 196.13 133.50 195.12 134.15 194.89 135.18 Z M 194.68 136.17 L 194.45 137.18 C 194.21 138.20 194.84 139.22 195.86 139.46 C 196.88 139.70 197.90 139.06 198.14 138.04 L 198.38 137.03 C 198.62 136.01 197.98 134.99 196.96 134.75 C 195.94 134.51 194.92 135.15 194.68 136.17 Z M 194.46 137.16 L 194.21 138.18 C 193.96 139.20 194.58 140.22 195.60 140.46 C 196.61 140.71 197.63 140.09 197.88 139.08 L 198.13 138.06 C 198.38 137.05 197.75 136.03 196.74 135.78 C 195.73 135.53 194.71 136.15 194.46 137.16 Z M 194.22 138.17 L 193.96 139.19 C 193.71 140.19 194.32 141.22 195.32 141.47 C 196.33 141.73 197.35 141.12 197.61 140.11 L 197.87 139.09 C 198.12 138.09 197.51 137.07 196.51 136.81 C 195.50 136.55 194.48 137.16 194.22 138.17 Z M 193.98 139.17 L 193.71 140.19 C 193.45 141.19 194.04 142.22 195.04 142.48 C 196.04 142.74 197.06 142.15 197.32 141.15 L 197.59 140.13 C 197.86 139.13 197.26 138.11 196.26 137.84 C 195.26 137.58 194.24 138.18 193.98 139.17 Z M 193.72 140.18 L 193.45 141.20 C 193.18 142.19 193.76 143.21 194.75 143.48 C 195.75 143.75 196.77 143.16 197.04 142.17 L 197.31 141.16 C 197.58 140.17 197.00 139.14 196.00 138.87 C 195.01 138.61 193.99 139.19 193.72 140.18 Z M 193.46 141.19 L 193.18 142.19 C 192.90 143.18 193.48 144.20 194.46 144.47 C 195.45 144.75 196.47 144.17 196.74 143.19 L 197.02 142.18 C 197.30 141.20 196.72 140.18 195.74 139.90 C 194.75 139.63 193.73 140.20 193.46 141.19 Z M 193.19 142.19 L 192.91 143.18 C 192.63 144.16 193.19 145.18 194.17 145.46 C 195.15 145.74 196.17 145.17 196.45 144.19 L 196.73 143.20 C 197.01 142.22 196.44 141.20 195.47 140.92 C 194.49 140.64 193.47 141.21 193.19 142.19 Z M 192.92 143.17 L 192.63 144.15 C 192.35 145.13 192.91 146.14 193.88 146.42 C 194.86 146.71 195.87 146.15 196.16 145.17 L 196.44 144.20 C 196.72 143.22 196.16 142.21 195.19 141.92 C 194.22 141.64 193.20 142.20 192.92 143.17 Z M 192.64 144.15 L 192.36 145.11 C 192.08 146.08 192.63 147.09 193.60 147.37 C 194.56 147.66 195.58 147.11 195.86 146.14 L 196.14 145.18 C 196.43 144.21 195.88 143.20 194.91 142.91 C 193.94 142.63 192.93 143.18 192.64 144.15 Z M 192.37 145.10 L 192.09 146.04 C 191.80 147.00 192.35 148.02 193.31 148.30 C 194.27 148.59 195.29 148.04 195.57 147.08 L 195.85 146.14 C 196.14 145.18 195.59 144.17 194.63 143.88 C 193.67 143.60 192.66 144.14 192.37 145.10 Z M 192.10 146.04 L 191.83 146.96 C 191.54 147.91 192.08 148.92 193.04 149.21 C 193.99 149.49 195.00 148.95 195.29 148.00 L 195.56 147.08 C 195.85 146.13 195.31 145.12 194.35 144.83 C 193.40 144.54 192.39 145.09 192.10 146.04 Z M 191.84 146.96 L 191.57 147.84 C 191.28 148.79 191.82 149.79 192.77 150.08 C 193.72 150.37 194.72 149.83 195.01 148.88 L 195.28 148.00 C 195.57 147.05 195.03 146.04 194.08 145.75 C 193.13 145.47 192.12 146.00 191.84 146.96 Z M 191.58 147.84 L 191.32 148.70 C 191.03 149.64 191.57 150.64 192.51 150.93 C 193.46 151.21 194.46 150.68 194.74 149.73 L 195.00 148.88 C 195.29 147.93 194.75 146.94 193.81 146.65 C 192.86 146.36 191.86 146.90 191.58 147.84 Z M 191.33 148.70 L 191.06 149.59 C 190.77 150.53 191.31 151.52 192.25 151.81 C 193.19 152.09 194.18 151.56 194.46 150.62 L 194.73 149.73 C 195.02 148.79 194.49 147.80 193.55 147.51 C 192.61 147.23 191.61 147.76 191.33 148.70 Z M 191.07 149.59 L 190.69 150.86 C 190.41 151.80 190.94 152.78 191.87 153.06 C 192.81 153.34 193.79 152.81 194.07 151.88 L 194.45 150.61 C 194.73 149.68 194.20 148.69 193.27 148.41 C 192.34 148.13 191.35 148.66 191.07 149.59 Z M 190.71 150.87 L 190.36 152.05 C 190.08 152.97 190.61 153.94 191.53 154.22 C 192.45 154.49 193.43 153.97 193.70 153.04 L 194.05 151.87 C 194.33 150.95 193.80 149.97 192.88 149.70 C 191.95 149.42 190.98 149.95 190.71 150.87 Z M 190.37 152.06 L 190.05 153.15 C 189.78 154.06 190.30 155.02 191.22 155.29 C 192.13 155.56 193.09 155.04 193.36 154.13 L 193.68 153.03 C 193.96 152.12 193.43 151.16 192.52 150.89 C 191.60 150.62 190.64 151.14 190.37 152.06 Z M 190.07 153.16 L 189.77 154.17 C 189.51 155.08 190.03 156.03 190.93 156.29 C 191.83 156.56 192.78 156.04 193.05 155.13 L 193.35 154.12 C 193.61 153.21 193.09 152.26 192.19 152.00 C 191.28 151.73 190.33 152.25 190.07 153.16 Z M 189.79 154.18 L 189.51 155.14 C 189.25 156.03 189.77 156.97 190.66 157.23 C 191.56 157.49 192.49 156.97 192.75 156.08 L 193.03 155.12 C 193.29 154.23 192.77 153.29 191.88 153.03 C 190.98 152.77 190.05 153.29 189.79 154.18 Z M 189.53 155.15 L 189.27 156.05 C 189.02 156.93 189.53 157.86 190.41 158.11 C 191.30 158.36 192.22 157.85 192.48 156.97 L 192.74 156.07 C 192.99 155.18 192.48 154.26 191.59 154.00 C 190.71 153.75 189.78 154.26 189.53 155.15 Z M 189.29 156.05 L 189.05 156.91 C 188.80 157.79 189.30 158.70 190.18 158.95 C 191.05 159.20 191.97 158.69 192.22 157.81 L 192.46 156.96 C 192.71 156.08 192.20 155.17 191.33 154.92 C 190.45 154.67 189.54 155.18 189.29 156.05 Z M 189.06 156.92 L 188.83 157.74 C 188.59 158.60 189.09 159.50 189.96 159.75 C 190.82 159.99 191.72 159.49 191.97 158.63 L 192.20 157.81 C 192.44 156.94 191.94 156.04 191.07 155.79 C 190.21 155.55 189.31 156.05 189.06 156.92 Z M 188.85 157.75 L 188.63 158.54 C 188.39 159.40 188.88 160.29 189.74 160.53 C 190.59 160.77 191.48 160.27 191.72 159.41 L 191.95 158.62 C 192.19 157.76 191.69 156.87 190.83 156.63 C 189.98 156.39 189.09 156.89 188.85 157.75 Z M 188.64 158.55 L 188.43 159.33 C 188.19 160.17 188.68 161.05 189.53 161.29 C 190.37 161.52 191.25 161.03 191.49 160.19 L 191.71 159.41 C 191.94 158.56 191.45 157.68 190.60 157.45 C 189.76 157.21 188.88 157.70 188.64 158.55 Z M 188.44 159.33 L 188.32 159.75 C 188.09 160.59 188.58 161.46 189.41 161.69 C 190.25 161.93 191.12 161.44 191.36 160.60 L 191.47 160.18 C 191.71 159.34 191.22 158.48 190.38 158.24 C 189.54 158.01 188.67 158.49 188.44 159.33 Z"
      fill="black"
      fill-rule="nonzero" /><path d="M 160.23 104.34 L 159.71 105.18 C 159.19 106.01 159.45 107.09 160.27 107.61 C 161.10 108.12 162.18 107.87 162.70 107.05 L 163.22 106.21 C 163.74 105.38 163.49 104.30 162.66 103.78 C 161.83 103.27 160.75 103.52 160.23 104.34 Z M 159.69 105.18 L 159.17 106.02 C 158.65 106.85 158.91 107.95 159.75 108.47 C 160.59 108.99 161.69 108.73 162.21 107.89 L 162.72 107.05 C 163.24 106.21 162.98 105.11 162.14 104.59 C 161.30 104.08 160.20 104.34 159.69 105.18 Z M 159.14 106.02 L 158.63 106.86 C 158.11 107.72 158.39 108.83 159.24 109.35 C 160.10 109.86 161.21 109.59 161.72 108.73 L 162.23 107.89 C 162.75 107.03 162.48 105.92 161.62 105.40 C 160.77 104.89 159.65 105.16 159.14 106.02 Z M 158.59 106.88 L 158.10 107.73 C 157.59 108.60 157.88 109.73 158.76 110.24 C 159.63 110.74 160.75 110.45 161.26 109.58 L 161.76 108.72 C 162.27 107.85 161.97 106.73 161.10 106.22 C 160.23 105.71 159.10 106.00 158.59 106.88 Z M 158.06 107.75 L 157.57 108.62 C 157.08 109.51 157.40 110.64 158.29 111.14 C 159.19 111.64 160.32 111.32 160.81 110.42 L 161.30 109.56 C 161.80 108.66 161.47 107.53 160.58 107.03 C 159.69 106.54 158.56 106.86 158.06 107.75 Z M 157.53 108.65 L 157.07 109.53 C 156.59 110.45 156.94 111.58 157.86 112.07 C 158.77 112.55 159.91 112.19 160.39 111.28 L 160.86 110.39 C 161.34 109.48 160.98 108.34 160.07 107.86 C 159.15 107.38 158.01 107.73 157.53 108.65 Z M 157.02 109.57 L 156.58 110.47 C 156.12 111.41 156.51 112.55 157.46 113.01 C 158.40 113.47 159.54 113.08 160.00 112.14 L 160.44 111.24 C 160.90 110.30 160.51 109.16 159.56 108.70 C 158.62 108.24 157.48 108.63 157.02 109.57 Z M 156.53 110.52 L 156.12 111.44 C 155.69 112.41 156.12 113.55 157.09 113.98 C 158.06 114.42 159.20 113.98 159.63 113.02 L 160.04 112.09 C 160.48 111.12 160.04 109.99 159.08 109.55 C 158.11 109.12 156.97 109.55 156.53 110.52 Z M 156.07 111.50 L 155.69 112.45 C 155.29 113.45 155.77 114.58 156.76 114.98 C 157.76 115.38 158.89 114.90 159.30 113.91 L 159.68 112.96 C 160.08 111.96 159.60 110.83 158.60 110.42 C 157.61 110.02 156.47 110.50 156.07 111.50 Z M 155.64 112.52 L 155.31 113.46 C 154.94 114.48 155.47 115.60 156.50 115.97 C 157.52 116.33 158.64 115.80 159.01 114.78 L 159.34 113.84 C 159.71 112.82 159.18 111.69 158.15 111.33 C 157.13 110.96 156.01 111.50 155.64 112.52 Z M 155.28 113.53 L 154.98 114.46 C 154.66 115.49 155.23 116.60 156.27 116.93 C 157.31 117.25 158.42 116.68 158.74 115.64 L 159.04 114.71 C 159.36 113.67 158.79 112.57 157.75 112.24 C 156.71 111.91 155.60 112.49 155.28 113.53 Z M 154.96 114.52 L 154.70 115.47 C 154.41 116.52 155.02 117.61 156.07 117.90 C 157.12 118.19 158.21 117.58 158.50 116.53 L 158.76 115.58 C 159.06 114.53 158.44 113.44 157.39 113.15 C 156.34 112.86 155.26 113.47 154.96 114.52 Z M 154.68 115.53 L 154.44 116.50 C 154.18 117.55 154.83 118.62 155.89 118.88 C 156.95 119.14 158.02 118.50 158.28 117.44 L 158.51 116.47 C 158.78 115.41 158.13 114.34 157.07 114.08 C 156.01 113.82 154.94 114.47 154.68 115.53 Z M 154.43 116.55 L 154.22 117.53 C 153.98 118.59 154.66 119.65 155.72 119.88 C 156.79 120.11 157.84 119.44 158.08 118.37 L 158.29 117.39 C 158.52 116.32 157.85 115.27 156.78 115.04 C 155.72 114.81 154.66 115.48 154.43 116.55 Z M 154.21 117.57 L 154.01 118.56 C 153.80 119.64 154.50 120.67 155.58 120.88 C 156.65 121.09 157.69 120.39 157.89 119.32 L 158.09 118.33 C 158.29 117.25 157.59 116.22 156.52 116.01 C 155.45 115.80 154.41 116.50 154.21 117.57 Z M 154.00 118.60 L 153.83 119.60 C 153.65 120.68 154.37 121.70 155.44 121.89 C 156.52 122.07 157.54 121.35 157.73 120.28 L 157.90 119.28 C 158.09 118.20 157.37 117.18 156.29 116.99 C 155.21 116.80 154.19 117.53 154.00 118.60 Z M 153.82 119.63 L 153.67 120.64 C 153.50 121.72 154.24 122.73 155.32 122.90 C 156.40 123.06 157.41 122.32 157.58 121.24 L 157.74 120.24 C 157.90 119.16 157.16 118.15 156.08 117.98 C 155.00 117.81 153.99 118.55 153.82 119.63 Z M 153.66 120.66 L 153.52 121.67 C 153.37 122.75 154.13 123.75 155.21 123.90 C 156.30 124.05 157.30 123.30 157.45 122.21 L 157.59 121.21 C 157.74 120.13 156.98 119.13 155.90 118.98 C 154.82 118.83 153.81 119.58 153.66 120.66 Z M 153.52 121.69 L 153.39 122.69 C 153.25 123.77 154.02 124.77 155.11 124.90 C 156.20 125.04 157.19 124.27 157.33 123.19 L 157.45 122.19 C 157.59 121.10 156.82 120.11 155.74 119.97 C 154.65 119.83 153.66 120.60 153.52 121.69 Z M 153.39 122.71 L 153.27 123.69 C 153.15 124.78 153.93 125.77 155.01 125.90 C 156.10 126.02 157.09 125.24 157.22 124.15 L 157.33 123.17 C 157.46 122.08 156.68 121.09 155.59 120.97 C 154.50 120.84 153.52 121.62 153.39 122.71 Z M 153.27 123.71 L 153.17 124.69 C 153.05 125.78 153.84 126.76 154.93 126.87 C 156.02 126.99 156.99 126.20 157.11 125.11 L 157.22 124.14 C 157.34 123.05 156.55 122.07 155.46 121.95 C 154.37 121.83 153.39 122.62 153.27 123.71 Z M 153.16 124.70 L 153.07 125.67 C 152.96 126.76 153.75 127.74 154.85 127.84 C 155.94 127.95 156.91 127.16 157.02 126.07 L 157.11 125.10 C 157.22 124.00 156.43 123.03 155.34 122.92 C 154.24 122.81 153.27 123.61 153.16 124.70 Z M 153.07 125.69 L 152.98 126.66 C 152.88 127.75 153.68 128.72 154.77 128.82 C 155.86 128.92 156.83 128.11 156.93 127.02 L 157.02 126.05 C 157.12 124.96 156.31 123.99 155.22 123.89 C 154.13 123.79 153.17 124.60 153.07 125.69 Z M 152.98 126.67 L 152.89 127.64 C 152.80 128.74 153.61 129.70 154.71 129.79 C 155.80 129.88 156.76 129.07 156.85 127.98 L 156.93 127.00 C 157.02 125.91 156.21 124.95 155.12 124.86 C 154.03 124.77 153.07 125.58 152.98 126.67 Z M 152.89 127.66 L 152.82 128.64 C 152.73 129.73 153.55 130.68 154.65 130.77 C 155.74 130.85 156.69 130.03 156.78 128.94 L 156.85 127.96 C 156.93 126.87 156.12 125.91 155.02 125.83 C 153.93 125.75 152.98 126.57 152.89 127.66 Z M 152.82 128.65 L 152.75 129.64 C 152.67 130.73 153.50 131.68 154.59 131.76 C 155.69 131.83 156.63 131.01 156.71 129.91 L 156.78 128.93 C 156.85 127.83 156.03 126.88 154.93 126.81 C 153.84 126.73 152.89 127.56 152.82 128.65 Z M 152.75 129.65 L 152.69 130.65 C 152.62 131.75 153.45 132.69 154.54 132.76 C 155.64 132.83 156.58 132.00 156.65 130.90 L 156.71 129.90 C 156.78 128.81 155.95 127.86 154.85 127.79 C 153.76 127.73 152.82 128.56 152.75 129.65 Z M 152.68 130.66 L 152.63 131.68 C 152.56 132.78 153.40 133.72 154.50 133.78 C 155.59 133.84 156.53 133.00 156.59 131.91 L 156.65 130.89 C 156.71 129.80 155.87 128.86 154.78 128.80 C 153.68 128.73 152.75 129.57 152.68 130.66 Z M 152.63 131.69 L 152.57 132.73 C 152.52 133.83 153.36 134.76 154.45 134.82 C 155.55 134.88 156.48 134.03 156.54 132.94 L 156.59 131.90 C 156.65 130.80 155.81 129.87 154.71 129.81 C 153.62 129.76 152.68 130.60 152.63 131.69 Z M 152.57 132.74 L 152.52 133.80 C 152.47 134.90 153.32 135.83 154.41 135.88 C 155.51 135.93 156.44 135.08 156.49 133.99 L 156.54 132.93 C 156.59 131.83 155.74 130.90 154.65 130.85 C 153.55 130.80 152.62 131.65 152.57 132.74 Z M 152.52 133.81 L 152.49 134.64 C 152.44 135.74 153.29 136.66 154.38 136.71 C 155.48 136.76 156.40 135.91 156.45 134.81 L 156.49 133.98 C 156.53 132.89 155.69 131.96 154.59 131.91 C 153.50 131.87 152.57 132.72 152.52 133.81 Z M 152.49 134.65 L 152.45 135.50 C 152.41 136.59 153.26 137.52 154.35 137.56 C 155.45 137.60 156.37 136.75 156.42 135.66 L 156.45 134.81 C 156.49 133.72 155.64 132.79 154.55 132.75 C 153.46 132.70 152.53 133.56 152.49 134.65 Z M 152.46 135.50 L 152.42 136.38 C 152.38 137.47 153.23 138.39 154.33 138.43 C 155.42 138.47 156.34 137.62 156.38 136.53 L 156.41 135.65 C 156.45 134.56 155.60 133.64 154.51 133.60 C 153.42 133.56 152.50 134.41 152.46 135.50 Z M 152.43 136.38 L 152.39 137.27 C 152.35 138.37 153.21 139.28 154.30 139.32 C 155.39 139.36 156.31 138.51 156.35 137.42 L 156.38 136.52 C 156.42 135.43 155.56 134.51 154.47 134.47 C 153.38 134.44 152.46 135.29 152.43 136.38 Z M 152.40 137.28 L 152.36 138.20 C 152.33 139.29 153.18 140.20 154.27 140.24 C 155.36 140.28 156.28 139.42 156.31 138.33 L 156.34 137.41 C 156.38 136.32 155.53 135.41 154.44 135.37 C 153.35 135.33 152.43 136.19 152.40 137.28 Z M 152.37 138.20 L 152.33 139.15 C 152.30 140.24 153.15 141.15 154.24 141.18 C 155.33 141.22 156.24 140.37 156.28 139.28 L 156.31 138.33 C 156.35 137.24 155.49 136.33 154.40 136.29 C 153.31 136.26 152.40 137.11 152.37 138.20 Z M 152.34 139.15 L 152.31 140.13 C 152.27 141.22 153.13 142.13 154.21 142.16 C 155.30 142.19 156.21 141.34 156.25 140.25 L 156.28 139.27 C 156.31 138.19 155.46 137.28 154.37 137.24 C 153.28 137.21 152.37 138.06 152.34 139.15 Z M 152.31 140.13 L 152.28 141.14 C 152.24 142.22 153.10 143.13 154.19 143.17 C 155.27 143.20 156.18 142.34 156.21 141.26 L 156.24 140.25 C 156.28 139.16 155.42 138.25 154.34 138.22 C 153.25 138.19 152.34 139.04 152.31 140.13 Z M 152.28 141.14 L 152.25 142.18 C 152.22 143.27 153.07 144.17 154.16 144.21 C 155.24 144.24 156.15 143.38 156.18 142.30 L 156.21 141.26 C 156.24 140.17 155.39 139.26 154.30 139.23 C 153.22 139.20 152.31 140.05 152.28 141.14 Z M 152.25 142.18 L 152.22 143.26 C 152.19 144.34 153.04 145.25 154.12 145.28 C 155.21 145.31 156.11 144.46 156.15 143.38 L 156.18 142.30 C 156.21 141.21 155.36 140.31 154.27 140.28 C 153.19 140.24 152.28 141.10 152.25 142.18 Z M 152.22 143.26 L 152.19 144.38 C 152.16 145.46 153.01 146.36 154.09 146.40 C 155.18 146.43 156.08 145.57 156.11 144.49 L 156.14 143.38 C 156.18 142.29 155.32 141.39 154.24 141.36 C 153.16 141.32 152.25 142.18 152.22 143.26 Z M 152.19 144.38 L 152.16 145.53 C 152.12 146.62 152.98 147.52 154.06 147.55 C 155.14 147.58 156.04 146.73 156.08 145.65 L 156.11 144.49 C 156.14 143.41 155.29 142.51 154.21 142.47 C 153.13 142.44 152.22 143.29 152.19 144.38 Z M 152.16 145.53 L 152.12 146.73 C 152.09 147.81 152.94 148.72 154.02 148.75 C 155.10 148.78 156.01 147.93 156.04 146.85 L 156.07 145.65 C 156.11 144.57 155.25 143.66 154.17 143.63 C 153.09 143.60 152.19 144.45 152.16 145.53 Z M 152.13 146.73 L 152.09 147.82 C 152.06 148.90 152.91 149.80 153.99 149.83 C 155.07 149.86 155.97 149.01 156.00 147.93 L 156.04 146.85 C 156.07 145.77 155.22 144.87 154.14 144.83 C 153.06 144.80 152.16 145.65 152.13 146.73 Z M 152.10 147.82 L 152.07 148.81 C 152.04 149.89 152.88 150.79 153.96 150.82 C 155.04 150.85 155.94 150.00 155.97 148.93 L 156.00 147.93 C 156.03 146.86 155.18 145.96 154.11 145.93 C 153.03 145.89 152.13 146.74 152.10 147.82 Z M 152.07 148.81 L 152.04 149.82 C 152.01 150.90 152.86 151.79 153.93 151.83 C 155.00 151.86 155.90 151.01 155.93 149.94 L 155.96 148.93 C 156.00 147.85 155.15 146.95 154.08 146.92 C 153.00 146.89 152.11 147.73 152.07 148.81 Z M 152.05 149.82 L 152.02 150.85 C 151.98 151.92 152.83 152.82 153.90 152.85 C 154.97 152.88 155.87 152.04 155.90 150.97 L 155.93 149.94 C 155.96 148.87 155.12 147.97 154.05 147.94 C 152.98 147.91 152.08 148.75 152.05 149.82 Z M 152.02 150.85 L 151.99 151.89 C 151.96 152.96 152.80 153.86 153.87 153.89 C 154.94 153.92 155.83 153.08 155.86 152.01 L 155.89 150.97 C 155.93 149.90 155.09 149.01 154.02 148.97 C 152.95 148.94 152.05 149.78 152.02 150.85 Z M 151.99 151.89 L 151.96 152.95 C 151.93 154.01 152.77 154.90 153.84 154.94 C 154.90 154.97 155.79 154.13 155.83 153.06 L 155.86 152.01 C 155.89 150.94 155.05 150.05 153.98 150.02 C 152.92 149.99 152.03 150.83 151.99 151.89 Z M 151.97 152.95 L 151.94 154.00 C 151.90 155.07 152.74 155.96 153.80 155.99 C 154.87 156.02 155.76 155.18 155.79 154.12 L 155.82 153.06 C 155.85 152.00 155.02 151.11 153.95 151.08 C 152.89 151.05 152.00 151.88 151.97 152.95 Z M 151.94 154.00 L 151.91 155.06 C 151.88 156.12 152.71 157.01 153.77 157.04 C 154.83 157.07 155.72 156.24 155.75 155.18 L 155.78 154.12 C 155.82 153.06 154.98 152.17 153.92 152.14 C 152.86 152.11 151.97 152.94 151.94 154.00 Z M 151.91 155.06 L 151.88 156.12 C 151.85 157.17 152.68 158.06 153.74 158.09 C 154.80 158.12 155.68 157.29 155.72 156.23 L 155.75 155.18 C 155.78 154.12 154.95 153.23 153.89 153.20 C 152.83 153.17 151.94 154.00 151.91 155.06 Z M 151.89 156.12 L 151.86 157.16 C 151.83 158.22 152.66 159.10 153.71 159.13 C 154.77 159.16 155.65 158.33 155.68 157.28 L 155.71 156.23 C 155.74 155.17 154.91 154.29 153.86 154.26 C 152.80 154.23 151.92 155.06 151.89 156.12 Z M 151.86 157.16 L 151.83 158.20 C 151.80 159.25 152.63 160.13 153.68 160.16 C 154.74 160.19 155.61 159.36 155.65 158.31 L 155.68 157.27 C 155.71 156.22 154.88 155.34 153.82 155.31 C 152.77 155.28 151.89 156.11 151.86 157.16 Z M 151.84 158.20 L 151.81 159.22 C 151.78 160.27 152.60 161.15 153.65 161.18 C 154.71 161.21 155.58 160.38 155.61 159.33 L 155.64 158.31 C 155.67 157.26 154.84 156.38 153.79 156.35 C 152.74 156.32 151.87 157.15 151.84 158.20 Z M 151.81 159.22 L 151.78 160.22 C 151.75 161.27 152.58 162.14 153.63 162.17 C 154.68 162.20 155.55 161.38 155.58 160.33 L 155.61 159.33 C 155.64 158.28 154.81 157.41 153.76 157.38 C 152.71 157.35 151.84 158.17 151.81 159.22 Z M 151.79 160.22 L 151.76 161.20 C 151.73 162.25 152.56 163.12 153.60 163.15 C 154.65 163.17 155.52 162.35 155.55 161.30 L 155.57 160.33 C 155.60 159.28 154.78 158.41 153.73 158.38 C 152.69 158.35 151.82 159.18 151.79 160.22 Z M 151.77 161.20 L 151.74 162.15 C 151.71 163.19 152.54 164.06 153.58 164.09 C 154.62 164.12 155.49 163.29 155.52 162.25 L 155.54 161.30 C 155.57 160.26 154.75 159.39 153.70 159.36 C 152.66 159.34 151.79 160.16 151.77 161.20 Z M 151.75 162.15 L 151.72 163.07 C 151.69 164.11 152.52 164.98 153.56 165.00 C 154.60 165.03 155.46 164.21 155.49 163.17 L 155.51 162.25 C 155.54 161.21 154.72 160.34 153.68 160.32 C 152.64 160.29 151.77 161.11 151.75 162.15 Z M 151.73 163.07 L 151.70 163.95 C 151.68 164.99 152.50 165.85 153.54 165.88 C 154.57 165.91 155.44 165.08 155.46 164.05 L 155.48 163.17 C 155.51 162.13 154.69 161.27 153.65 161.24 C 152.61 161.21 151.75 162.04 151.73 163.07 Z M 151.71 163.96 L 151.69 164.93 C 151.66 165.97 152.48 166.83 153.52 166.85 C 154.55 166.87 155.41 166.05 155.43 165.02 L 155.46 164.04 C 155.48 163.01 154.66 162.15 153.63 162.13 C 152.59 162.10 151.74 162.92 151.71 163.96 Z M 151.70 164.94 L 151.68 166.25 C 151.65 167.27 152.47 168.12 153.49 168.14 C 154.52 168.17 155.37 167.35 155.39 166.33 L 155.42 165.02 C 155.44 163.99 154.63 163.14 153.60 163.12 C 152.57 163.10 151.72 163.91 151.70 164.94 Z M 151.70 166.25 L 151.67 167.46 C 151.65 168.47 152.46 169.31 153.48 169.33 C 154.49 169.35 155.33 168.54 155.35 167.53 L 155.37 166.32 C 155.39 165.31 154.58 164.47 153.57 164.45 C 152.55 164.43 151.71 165.24 151.70 166.25 Z M 151.69 167.46 L 151.67 168.57 C 151.66 169.58 152.46 170.40 153.46 170.42 C 154.47 170.44 155.29 169.64 155.31 168.63 L 155.33 167.52 C 155.34 166.52 154.54 165.69 153.54 165.67 C 152.54 165.66 151.71 166.46 151.69 167.46 Z M 151.69 168.58 L 151.68 169.61 C 151.66 170.60 152.46 171.42 153.45 171.43 C 154.44 171.45 155.26 170.65 155.27 169.66 L 155.29 168.63 C 155.30 167.64 154.51 166.82 153.52 166.81 C 152.53 166.79 151.71 167.58 151.69 168.58 Z M 151.70 169.61 L 151.69 170.58 C 151.67 171.56 152.46 172.37 153.44 172.38 C 154.42 172.39 155.23 171.61 155.24 170.63 L 155.25 169.66 C 155.27 168.68 154.48 167.87 153.50 167.86 C 152.52 167.85 151.71 168.63 151.70 169.61 Z M 151.71 170.58 L 151.70 171.49 C 151.68 172.46 152.46 173.26 153.43 173.27 C 154.40 173.28 155.20 172.51 155.21 171.54 L 155.22 170.62 C 155.23 169.65 154.46 168.86 153.49 168.84 C 152.52 168.83 151.72 169.61 151.71 170.58 Z M 151.72 171.49 L 151.70 172.37 C 151.69 173.33 152.46 174.11 153.42 174.13 C 154.38 174.14 155.17 173.37 155.18 172.41 L 155.19 171.54 C 155.20 170.58 154.43 169.79 153.47 169.78 C 152.51 169.77 151.73 170.53 151.72 171.49 Z M 151.72 172.37 L 151.71 173.21 C 151.70 174.16 152.46 174.94 153.41 174.95 C 154.36 174.96 155.14 174.20 155.15 173.26 L 155.16 172.41 C 155.17 171.46 154.41 170.68 153.46 170.67 C 152.52 170.66 151.74 171.42 151.72 172.37 Z M 151.73 173.21 L 151.72 174.04 C 151.71 174.98 152.46 175.75 153.39 175.76 C 154.33 175.78 155.10 175.03 155.12 174.09 L 155.13 173.26 C 155.14 172.32 154.39 171.55 153.46 171.54 C 152.52 171.52 151.75 172.27 151.73 173.21 Z M 151.74 174.04 L 151.73 174.87 C 151.71 175.79 152.45 176.55 153.38 176.57 C 154.30 176.59 155.06 175.85 155.08 174.92 L 155.10 174.09 C 155.11 173.17 154.37 172.40 153.45 172.39 C 152.52 172.37 151.76 173.11 151.74 174.04 Z M 151.74 174.86 L 151.72 175.78 C 151.70 176.70 152.43 177.46 153.35 177.48 C 154.27 177.49 155.03 176.77 155.05 175.85 L 155.07 174.93 C 155.09 174.01 154.36 173.25 153.44 173.23 C 152.52 173.21 151.76 173.94 151.74 174.86 Z M 151.73 175.77 L 151.71 176.71 C 151.69 177.63 152.41 178.39 153.32 178.41 C 154.24 178.43 155.00 177.71 155.02 176.79 L 155.04 175.85 C 155.06 174.94 154.34 174.18 153.42 174.16 C 152.51 174.14 151.75 174.86 151.73 175.77 Z M 151.71 176.71 L 151.69 177.66 C 151.66 178.57 152.38 179.33 153.29 179.36 C 154.20 179.38 154.96 178.66 154.99 177.75 L 155.01 176.80 C 155.04 175.89 154.32 175.13 153.41 175.10 C 152.50 175.08 151.74 175.80 151.71 176.71 Z M 151.70 177.66 L 151.67 178.63 C 151.64 179.54 152.35 180.30 153.26 180.32 C 154.17 180.35 154.92 179.64 154.95 178.73 L 154.98 177.76 C 155.00 176.85 154.29 176.09 153.38 176.07 C 152.48 176.04 151.72 176.75 151.70 177.66 Z M 151.67 178.63 L 151.64 179.62 C 151.62 180.53 152.33 181.28 153.23 181.31 C 154.13 181.34 154.89 180.63 154.91 179.72 L 154.94 178.73 C 154.97 177.83 154.26 177.08 153.36 177.05 C 152.46 177.02 151.70 177.73 151.67 178.63 Z M 151.65 179.62 L 151.62 180.63 C 151.59 181.53 152.30 182.28 153.19 182.31 C 154.09 182.34 154.85 181.64 154.87 180.74 L 154.91 179.73 C 154.93 178.83 154.23 178.08 153.33 178.05 C 152.43 178.02 151.68 178.72 151.65 179.62 Z M 151.63 180.63 L 151.59 181.66 C 151.56 182.56 152.27 183.31 153.16 183.34 C 154.06 183.37 154.80 182.66 154.83 181.77 L 154.87 180.74 C 154.90 179.84 154.19 179.09 153.30 179.06 C 152.40 179.04 151.66 179.74 151.63 180.63 Z M 151.60 181.66 L 151.56 182.71 C 151.54 183.61 152.23 184.35 153.13 184.38 C 154.02 184.41 154.76 183.71 154.79 182.82 L 154.83 181.77 C 154.86 180.88 154.16 180.13 153.27 180.10 C 152.37 180.07 151.63 180.77 151.60 181.66 Z M 151.57 182.71 L 151.54 183.79 C 151.51 184.67 152.20 185.42 153.09 185.45 C 153.98 185.48 154.72 184.78 154.75 183.89 L 154.79 182.82 C 154.81 181.93 154.12 181.19 153.23 181.16 C 152.34 181.13 151.60 181.83 151.57 182.71 Z M 151.54 183.79 L 151.51 184.80 C 151.48 185.69 152.17 186.43 153.06 186.46 C 153.94 186.49 154.68 185.79 154.71 184.91 L 154.74 183.89 C 154.77 183.01 154.08 182.27 153.19 182.24 C 152.31 182.21 151.57 182.90 151.54 183.79 Z M 151.51 184.80 L 151.48 185.78 C 151.45 186.66 152.15 187.40 153.03 187.42 C 153.91 187.45 154.65 186.76 154.68 185.88 L 154.71 184.91 C 154.74 184.02 154.04 183.29 153.16 183.26 C 152.28 183.23 151.54 183.92 151.51 184.80 Z M 151.49 185.78 L 151.45 186.76 C 151.43 187.64 152.12 188.38 153.00 188.40 C 153.88 188.43 154.62 187.74 154.64 186.86 L 154.67 185.88 C 154.70 184.99 154.01 184.26 153.13 184.23 C 152.25 184.20 151.51 184.90 151.49 185.78 Z M 151.46 186.76 L 151.43 187.75 C 151.40 188.63 152.09 189.37 152.97 189.40 C 153.85 189.42 154.58 188.73 154.61 187.85 L 154.64 186.86 C 154.67 185.98 153.98 185.24 153.10 185.22 C 152.22 185.19 151.48 185.88 151.46 186.76 Z M 151.43 187.76 L 151.40 188.76 C 151.37 189.64 152.06 190.37 152.94 190.40 C 153.82 190.42 154.55 189.73 154.58 188.86 L 154.61 187.85 C 154.63 186.97 153.94 186.24 153.07 186.21 C 152.19 186.19 151.46 186.88 151.43 187.76 Z M 151.40 188.76 L 151.37 189.77 C 151.34 190.64 152.03 191.38 152.91 191.40 C 153.78 191.43 154.52 190.74 154.54 189.86 L 154.57 188.86 C 154.60 187.98 153.91 187.25 153.04 187.22 C 152.16 187.19 151.43 187.88 151.40 188.76 Z M 151.37 189.77 L 151.34 190.78 C 151.32 191.66 152.00 192.39 152.88 192.41 C 153.75 192.44 154.48 191.75 154.51 190.88 L 154.54 189.86 C 154.57 188.99 153.88 188.26 153.00 188.23 C 152.13 188.21 151.40 188.89 151.37 189.77 Z M 151.35 190.78 L 151.31 191.80 C 151.29 192.67 151.97 193.40 152.85 193.43 C 153.72 193.45 154.45 192.77 154.48 191.89 L 154.51 190.88 C 154.53 190.00 153.85 189.28 152.97 189.25 C 152.10 189.22 151.37 189.91 151.35 190.78 Z M 151.32 191.80 L 151.29 192.81 C 151.26 193.68 151.95 194.41 152.82 194.44 C 153.69 194.46 154.42 193.78 154.44 192.91 L 154.47 191.89 C 154.50 191.02 153.81 190.29 152.94 190.27 C 152.07 190.24 151.34 190.93 151.32 191.80 Z M 151.29 192.81 L 151.26 193.82 C 151.23 194.69 151.92 195.42 152.79 195.44 C 153.66 195.47 154.38 194.79 154.41 193.92 L 154.44 192.91 C 154.47 192.04 153.78 191.31 152.91 191.28 C 152.04 191.26 151.32 191.94 151.29 192.81 Z M 151.26 193.82 L 151.23 194.83 C 151.20 195.69 151.89 196.42 152.75 196.45 C 153.62 196.47 154.35 195.79 154.38 194.92 L 154.41 193.92 C 154.43 193.05 153.75 192.32 152.88 192.30 C 152.01 192.27 151.29 192.95 151.26 193.82 Z M 151.23 194.83 L 151.20 195.84 C 151.17 196.71 151.86 197.44 152.72 197.46 C 153.59 197.49 154.32 196.81 154.34 195.94 L 154.37 194.92 C 154.40 194.05 153.72 193.33 152.85 193.30 C 151.98 193.28 151.26 193.96 151.23 194.83 Z M 151.20 195.84 L 151.17 196.86 C 151.14 197.72 151.82 198.45 152.69 198.48 C 153.56 198.50 154.28 197.82 154.31 196.96 L 154.34 195.94 C 154.37 195.07 153.69 194.35 152.82 194.32 C 151.95 194.30 151.23 194.98 151.20 195.84 Z M 151.17 196.86 L 151.14 197.87 C 151.11 198.73 151.79 199.46 152.66 199.48 C 153.53 199.51 154.25 198.83 154.28 197.96 L 154.31 196.96 C 154.34 196.09 153.66 195.37 152.79 195.34 C 151.92 195.31 151.20 195.99 151.17 196.86 Z M 151.14 197.87 L 151.11 198.87 C 151.08 199.73 151.76 200.46 152.63 200.48 C 153.49 200.51 154.22 199.83 154.24 198.97 L 154.28 197.96 C 154.30 197.10 153.62 196.37 152.76 196.35 C 151.89 196.32 151.17 197.00 151.14 197.87 Z M 151.11 198.87 L 151.08 199.87 C 151.05 200.73 151.73 201.45 152.60 201.48 C 153.46 201.51 154.18 200.83 154.21 199.96 L 154.24 198.97 C 154.27 198.10 153.59 197.38 152.73 197.35 C 151.86 197.32 151.14 198.00 151.11 198.87 Z M 151.08 199.87 L 151.05 200.86 C 151.02 201.72 151.70 202.45 152.56 202.47 C 153.43 202.50 154.15 201.82 154.18 200.96 L 154.21 199.96 C 154.24 199.10 153.56 198.38 152.69 198.35 C 151.83 198.32 151.11 199.00 151.08 199.87 Z M 151.05 200.86 L 151.02 201.85 C 150.99 202.72 151.67 203.44 152.53 203.47 C 153.40 203.49 154.12 202.81 154.15 201.95 L 154.18 200.96 C 154.21 200.09 153.53 199.37 152.66 199.34 C 151.80 199.32 151.08 199.99 151.05 200.86 Z M 151.02 201.85 L 150.99 202.84 C 150.96 203.71 151.64 204.43 152.50 204.46 C 153.36 204.48 154.09 203.80 154.11 202.94 L 154.15 201.95 C 154.17 201.09 153.50 200.36 152.63 200.34 C 151.77 200.31 151.05 200.99 151.02 201.85 Z M 150.99 202.84 L 150.96 203.83 C 150.93 204.70 151.61 205.42 152.47 205.44 C 153.33 205.47 154.05 204.79 154.08 203.93 L 154.11 202.94 C 154.14 202.08 153.46 201.36 152.60 201.33 C 151.74 201.30 151.01 201.98 150.99 202.84 Z M 150.96 203.83 L 150.93 204.82 C 150.90 205.69 151.57 206.41 152.44 206.44 C 153.30 206.46 154.02 205.79 154.05 204.92 L 154.08 203.93 C 154.11 203.07 153.43 202.35 152.57 202.32 C 151.71 202.29 150.98 202.97 150.96 203.83 Z M 150.93 204.82 L 150.89 205.82 C 150.87 206.68 151.54 207.40 152.41 207.43 C 153.27 207.45 153.99 206.78 154.02 205.91 L 154.05 204.92 C 154.08 204.06 153.40 203.34 152.54 203.31 C 151.67 203.28 150.95 203.96 150.93 204.82 Z M 150.89 205.82 L 150.86 206.81 C 150.84 207.67 151.51 208.39 152.38 208.42 C 153.24 208.45 153.96 207.77 153.99 206.91 L 154.02 205.91 C 154.04 205.05 153.37 204.33 152.51 204.30 C 151.64 204.28 150.92 204.95 150.89 205.82 Z M 150.86 206.81 L 150.83 207.80 C 150.80 208.66 151.48 209.38 152.34 209.41 C 153.21 209.44 153.93 208.76 153.95 207.90 L 153.99 206.91 C 154.01 206.04 153.34 205.32 152.47 205.30 C 151.61 205.27 150.89 205.95 150.86 206.81 Z M 150.83 207.80 L 150.80 208.80 C 150.77 209.66 151.45 210.38 152.31 210.41 C 153.17 210.43 153.90 209.76 153.92 208.90 L 153.95 207.90 C 153.98 207.04 153.30 206.32 152.44 206.29 C 151.58 206.26 150.86 206.94 150.83 207.80 Z M 150.80 208.80 L 150.77 209.80 C 150.74 210.66 151.42 211.38 152.28 211.41 C 153.14 211.43 153.86 210.76 153.89 209.89 L 153.92 208.90 C 153.95 208.03 153.27 207.31 152.41 207.29 C 151.55 207.26 150.83 207.94 150.80 208.80 Z M 150.77 209.80 L 150.74 210.80 C 150.71 211.66 151.39 212.38 152.25 212.41 C 153.11 212.43 153.83 211.76 153.86 210.89 L 153.89 209.89 C 153.92 209.03 153.24 208.31 152.38 208.28 C 151.52 208.26 150.80 208.93 150.77 209.80 Z M 150.74 210.80 L 150.71 211.80 C 150.68 212.66 151.36 213.38 152.22 213.41 C 153.08 213.43 153.80 212.76 153.83 211.90 L 153.86 210.89 C 153.89 210.03 153.21 209.31 152.35 209.28 C 151.49 209.26 150.77 209.93 150.74 210.80 Z M 150.71 211.80 L 150.68 212.80 C 150.65 213.66 151.33 214.38 152.19 214.41 C 153.05 214.44 153.77 213.76 153.80 212.90 L 153.83 211.90 C 153.86 211.03 153.18 210.31 152.32 210.29 C 151.45 210.26 150.73 210.94 150.71 211.80 Z M 150.68 212.80 L 150.64 213.80 C 150.62 214.67 151.29 215.39 152.16 215.41 C 153.02 215.44 153.74 214.76 153.77 213.90 L 153.80 212.90 C 153.82 212.04 153.15 211.32 152.29 211.29 C 151.42 211.26 150.70 211.94 150.68 212.80 Z M 150.64 213.80 L 150.61 214.81 C 150.59 215.67 151.26 216.39 152.12 216.42 C 152.99 216.44 153.71 215.77 153.73 214.91 L 153.77 213.90 C 153.79 213.04 153.12 212.32 152.25 212.29 C 151.39 212.27 150.67 212.94 150.64 213.80 Z M 150.61 214.81 L 150.58 215.81 C 150.55 216.68 151.23 217.40 152.09 217.42 C 152.95 217.45 153.68 216.77 153.70 215.91 L 153.73 214.91 C 153.76 214.04 153.08 213.32 152.22 213.30 C 151.36 213.27 150.64 213.95 150.61 214.81 Z M 150.58 215.81 L 150.58 216.02 C 150.55 216.88 151.23 217.60 152.09 217.63 C 152.95 217.66 153.67 216.98 153.70 216.12 L 153.70 215.91 C 153.73 215.05 153.05 214.33 152.19 214.30 C 151.33 214.28 150.61 214.95 150.58 215.81 Z"
      fill="black"
      fill-rule="nonzero" /></svg>