<svg xmlns="http://www.w3.org/2000/svg" width="300" height="300" viewBox="0 0 300 300">
<path d="M 110.18 105.33 L 109.64 104.54 C 109.13 103.79 108.10 103.59 107.34 104.11 C 106.58 104.62 106.38 105.65 106.90 106.41 L 107.44 107.20 C 107.95 107.96 108.99 108.16 109.74 107.64 C 110.50 107.12 110.70 106.09 110.18 105.33 Z M 109.66 104.54 L 109.12 103.75 C 108.60 102.98 107.57 102.78 106.80 103.30 C 106.03 103.81 105.83 104.85 106.35 105.62 L 106.89 106.41 C 107.40 107.18 108.44 107.38 109.21 106.86 C 109.97 106.35 110.17 105.31 109.66 104.54 Z M 109.14 103.75 L 108.61 102.95 C 108.09 102.17 107.05 101.96 106.27 102.47 C 105.50 102.99 105.28 104.03 105.80 104.81 L 106.33 105.61 C 106.84 106.39 107.89 106.60 108.67 106.09 C 109.44 105.57 109.65 104.53 109.14 103.75 Z M 108.63 102.96 L 108.10 102.14 C 107.59 101.35 106.54 101.12 105.75 101.63 C 104.96 102.14 104.74 103.19 105.25 103.98 L 105.77 104.80 C 106.28 105.59 107.33 105.81 108.12 105.30 C 108.91 104.80 109.14 103.75 108.63 102.96 Z M 108.13 102.15 L 107.61 101.32 C 107.11 100.51 106.05 100.27 105.25 100.77 C 104.45 101.27 104.20 102.32 104.70 103.13 L 105.22 103.96 C 105.72 104.77 106.78 105.01 107.58 104.51 C 108.38 104.01 108.63 102.96 108.13 102.15 Z M 107.63 101.34 L 107.12 100.48 C 106.63 99.66 105.57 99.39 104.76 99.88 C 103.94 100.37 103.67 101.43 104.16 102.24 L 104.67 103.10 C 105.16 103.92 106.22 104.19 107.04 103.70 C 107.85 103.22 108.12 102.16 107.63 101.34 Z M 107.15 100.51 L 106.65 99.62 C 106.18 98.78 105.12 98.49 104.28 98.96 C 103.45 99.43 103.15 100.49 103.62 101.33 L 104.13 102.22 C 104.60 103.05 105.66 103.35 106.50 102.87 C 107.33 102.40 107.62 101.34 107.15 100.51 Z M 106.68 99.65 L 106.19 98.73 C 105.74 97.88 104.68 97.55 103.82 98.01 C 102.97 98.46 102.65 99.52 103.10 100.38 L 103.59 101.30 C 104.05 102.15 105.11 102.47 105.96 102.02 C 106.81 101.56 107.14 100.50 106.68 99.65 Z M 106.22 98.77 L 105.75 97.81 C 105.31 96.94 104.25 96.58 103.38 97.01 C 102.51 97.45 102.16 98.51 102.59 99.38 L 103.07 100.34 C 103.50 101.21 104.56 101.56 105.43 101.13 C 106.30 100.70 106.66 99.64 106.22 98.77 Z M 105.78 97.84 L 105.37 96.95 C 104.95 96.06 103.90 95.67 103.00 96.08 C 102.11 96.50 101.72 97.56 102.14 98.45 L 102.55 99.34 C 102.97 100.23 104.03 100.62 104.92 100.21 C 105.81 99.79 106.20 98.74 105.78 97.84 Z M 105.40 96.98 L 105.01 96.08 C 104.62 95.17 103.56 94.75 102.65 95.15 C 101.73 95.55 101.32 96.61 101.71 97.52 L 102.10 98.42 C 102.50 99.33 103.56 99.75 104.47 99.35 C 105.38 98.95 105.80 97.89 105.40 96.98 Z M 105.05 96.12 L 104.68 95.19 C 104.30 94.26 103.23 93.81 102.30 94.19 C 101.37 94.57 100.92 95.63 101.30 96.57 L 101.68 97.49 C 102.06 98.42 103.12 98.87 104.05 98.49 C 104.98 98.11 105.43 97.05 105.05 96.12 Z M 104.71 95.23 L 104.35 94.28 C 103.99 93.33 102.93 92.86 101.98 93.22 C 101.02 93.58 100.55 94.64 100.91 95.59 L 101.27 96.54 C 101.63 97.49 102.69 97.96 103.64 97.60 C 104.60 97.24 105.07 96.18 104.71 95.23 Z M 104.39 94.32 L 104.05 93.36 C 103.70 92.39 102.64 91.88 101.67 92.23 C 100.70 92.57 100.19 93.64 100.54 94.61 L 100.88 95.56 C 101.22 96.53 102.29 97.04 103.25 96.69 C 104.22 96.35 104.73 95.29 104.39 94.32 Z M 104.08 93.39 L 103.76 92.42 C 103.43 91.43 102.37 90.90 101.38 91.23 C 100.39 91.55 99.85 92.62 100.18 93.61 L 100.50 94.57 C 100.83 95.56 101.89 96.10 102.88 95.77 C 103.87 95.44 104.41 94.38 104.08 93.39 Z M 103.79 92.46 L 103.49 91.48 C 103.19 90.48 102.12 89.91 101.11 90.22 C 100.11 90.53 99.54 91.59 99.85 92.60 L 100.15 93.57 C 100.46 94.58 101.52 95.14 102.53 94.84 C 103.54 94.53 104.10 93.46 103.79 92.46 Z M 103.53 91.52 L 103.25 90.54 C 102.96 89.52 101.90 88.92 100.87 89.21 C 99.85 89.50 99.25 90.56 99.54 91.59 L 99.82 92.56 C 100.11 93.59 101.17 94.18 102.20 93.89 C 103.22 93.60 103.81 92.54 103.53 91.52 Z M 103.28 90.58 L 103.03 89.60 C 102.76 88.56 101.70 87.93 100.66 88.20 C 99.62 88.47 98.99 89.53 99.26 90.57 L 99.51 91.55 C 99.78 92.59 100.84 93.22 101.88 92.95 C 102.92 92.68 103.55 91.62 103.28 90.58 Z M 103.06 89.64 L 102.84 88.68 C 102.59 87.62 101.54 86.96 100.48 87.20 C 99.42 87.45 98.76 88.51 99.00 89.56 L 99.23 90.53 C 99.47 91.59 100.53 92.25 101.59 92.01 C 102.65 91.76 103.31 90.70 103.06 89.64 Z M 102.87 88.72 L 102.66 87.70 C 102.44 86.62 101.39 85.92 100.31 86.14 C 99.24 86.36 98.54 87.42 98.76 88.49 L 98.97 89.52 C 99.19 90.59 100.24 91.29 101.32 91.07 C 102.40 90.85 103.09 89.80 102.87 88.72 Z M 102.70 87.76 L 102.48 86.48 C 102.30 85.39 101.26 84.65 100.16 84.83 C 99.07 85.02 98.33 86.06 98.51 87.15 L 98.73 88.43 C 98.91 89.52 99.95 90.26 101.05 90.08 C 102.14 89.89 102.88 88.86 102.70 87.76 Z M 102.52 86.57 L 102.37 85.35 C 102.23 84.23 101.22 83.44 100.10 83.58 C 98.99 83.71 98.19 84.73 98.33 85.84 L 98.48 87.06 C 98.61 88.18 99.63 88.98 100.74 88.84 C 101.86 88.70 102.65 87.69 102.52 86.57 Z M 102.40 85.47 L 102.33 84.32 C 102.26 83.19 101.28 82.33 100.14 82.40 C 99.01 82.47 98.15 83.45 98.22 84.59 L 98.29 85.73 C 98.36 86.87 99.34 87.73 100.48 87.65 C 101.62 87.58 102.48 86.60 102.40 85.47 Z M 102.36 84.48 L 102.37 83.44 C 102.38 82.29 101.46 81.35 100.31 81.33 C 99.16 81.32 98.21 82.24 98.20 83.39 L 98.19 84.43 C 98.18 85.58 99.10 86.53 100.25 86.54 C 101.40 86.55 102.35 85.63 102.36 84.48 Z M 102.38 83.66 L 102.49 82.75 C 102.62 81.59 101.79 80.54 100.63 80.41 C 99.48 80.28 98.43 81.11 98.30 82.26 L 98.19 83.18 C 98.06 84.33 98.89 85.38 100.04 85.51 C 101.20 85.65 102.25 84.82 102.38 83.66 Z M 102.45 83.07 L 102.66 82.31 C 102.97 81.17 102.30 80.00 101.16 79.69 C 100.03 79.37 98.85 80.04 98.54 81.18 L 98.34 81.94 C 98.02 83.08 98.69 84.25 99.83 84.56 C 100.97 84.87 102.14 84.20 102.45 83.07 Z M 102.49 82.77 L 102.82 82.18 C 103.39 81.14 103.00 79.83 101.95 79.26 C 100.91 78.69 99.60 79.08 99.03 80.12 L 98.71 80.71 C 98.14 81.76 98.52 83.07 99.57 83.64 C 100.61 84.21 101.92 83.82 102.49 82.77 Z M 102.34 82.80 L 102.82 82.39 C 103.73 81.60 103.84 80.23 103.05 79.32 C 102.26 78.41 100.89 78.30 99.98 79.09 L 99.50 79.51 C 98.59 80.29 98.49 81.67 99.27 82.58 C 100.06 83.49 101.43 83.59 102.34 82.80 Z M 101.99 82.85 L 102.66 82.66 C 103.83 82.33 104.51 81.13 104.18 79.96 C 103.85 78.80 102.65 78.12 101.48 78.44 L 100.81 78.63 C 99.65 78.96 98.97 80.16 99.29 81.33 C 99.62 82.49 100.83 83.17 101.99 82.85 Z M 101.89 82.74 L 102.69 82.81 C 103.89 82.91 104.95 82.01 105.05 80.80 C 105.16 79.59 104.26 78.53 103.05 78.43 L 102.25 78.36 C 101.05 78.26 99.98 79.16 99.88 80.37 C 99.78 81.58 100.68 82.64 101.89 82.74 Z M 102.17 82.71 L 103.05 83.00 C 104.21 83.39 105.45 82.77 105.84 81.62 C 106.23 80.46 105.61 79.21 104.45 78.83 L 103.57 78.53 C 102.41 78.14 101.17 78.76 100.78 79.92 C 100.39 81.07 101.01 82.32 102.17 82.71 Z M 102.71 82.86 L 103.65 83.37 C 104.73 83.95 106.07 83.54 106.65 82.47 C 107.22 81.39 106.82 80.05 105.74 79.48 L 104.80 78.97 C 103.72 78.39 102.38 78.79 101.81 79.87 C 101.23 80.94 101.63 82.28 102.71 82.86 Z M 103.41 83.22 L 104.38 83.92 C 105.38 84.64 106.76 84.41 107.47 83.41 C 108.19 82.42 107.96 81.03 106.96 80.32 L 105.99 79.62 C 105.00 78.91 103.61 79.14 102.90 80.13 C 102.18 81.13 102.41 82.51 103.41 83.22 Z M 104.19 83.78 L 105.16 84.64 C 106.07 85.46 107.48 85.38 108.30 84.47 C 109.12 83.55 109.04 82.15 108.12 81.33 L 107.15 80.46 C 106.24 79.64 104.83 79.72 104.01 80.64 C 103.20 81.55 103.27 82.96 104.19 83.78 Z M 105.02 84.52 L 105.67 85.20 C 106.52 86.09 107.93 86.13 108.82 85.29 C 109.71 84.44 109.75 83.03 108.90 82.14 L 108.26 81.45 C 107.41 80.56 106.00 80.52 105.11 81.37 C 104.21 82.21 104.17 83.62 105.02 84.52 Z M 105.58 85.11 L 106.14 85.77 C 106.94 86.71 108.35 86.83 109.29 86.03 C 110.23 85.24 110.35 83.83 109.55 82.89 L 108.99 82.23 C 108.20 81.29 106.79 81.17 105.85 81.96 C 104.91 82.76 104.79 84.17 105.58 85.11 Z M 106.08 85.69 L 106.63 86.40 C 107.38 87.38 108.78 87.56 109.75 86.81 C 110.73 86.06 110.91 84.66 110.16 83.69 L 109.62 82.97 C 108.87 82.00 107.47 81.81 106.49 82.56 C 105.51 83.31 105.33 84.71 106.08 85.69 Z M 106.57 86.33 L 107.11 87.09 C 107.82 88.10 109.21 88.34 110.22 87.63 C 111.23 86.91 111.46 85.52 110.75 84.52 L 110.22 83.76 C 109.50 82.75 108.11 82.51 107.11 83.22 C 106.10 83.93 105.86 85.33 106.57 86.33 Z M 107.07 87.03 L 107.60 87.84 C 108.28 88.86 109.66 89.15 110.69 88.47 C 111.72 87.80 112.00 86.41 111.33 85.38 L 110.80 84.58 C 110.12 83.55 108.74 83.26 107.71 83.94 C 106.68 84.62 106.39 86.00 107.07 87.03 Z M 107.56 87.78 L 108.09 88.63 C 108.74 89.68 110.11 90.00 111.16 89.35 C 112.21 88.71 112.53 87.33 111.88 86.28 L 111.36 85.44 C 110.71 84.39 109.34 84.06 108.29 84.71 C 107.24 85.36 106.92 86.73 107.56 87.78 Z M 108.06 88.59 L 108.58 89.47 C 109.21 90.54 110.57 90.89 111.64 90.27 C 112.70 89.64 113.05 88.28 112.43 87.21 L 111.91 86.33 C 111.29 85.26 109.92 84.91 108.86 85.53 C 107.79 86.16 107.44 87.52 108.06 88.59 Z M 108.56 89.44 L 109.08 90.36 C 109.68 91.44 111.04 91.82 112.12 91.21 C 113.19 90.61 113.58 89.25 112.97 88.18 L 112.45 87.25 C 111.85 86.18 110.49 85.79 109.41 86.40 C 108.34 87.00 107.96 88.36 108.56 89.44 Z M 109.06 90.33 L 109.58 91.29 C 110.17 92.38 111.53 92.78 112.61 92.19 C 113.69 91.60 114.10 90.25 113.51 89.16 L 112.99 88.20 C 112.40 87.12 111.05 86.72 109.96 87.31 C 108.88 87.89 108.48 89.25 109.06 90.33 Z M 109.57 91.27 L 110.10 92.26 C 110.67 93.35 112.02 93.77 113.11 93.20 C 114.20 92.62 114.62 91.27 114.05 90.18 L 113.52 89.19 C 112.94 88.10 111.59 87.68 110.50 88.25 C 109.41 88.83 109.00 90.18 109.57 91.27 Z M 110.09 92.25 L 110.62 93.27 C 111.19 94.37 112.53 94.80 113.63 94.23 C 114.72 93.66 115.15 92.31 114.58 91.22 L 114.05 90.19 C 113.49 89.10 112.14 88.67 111.04 89.24 C 109.95 89.81 109.52 91.15 110.09 92.25 Z M 110.61 93.26 L 111.08 94.17 C 111.64 95.26 112.98 95.70 114.08 95.13 C 115.18 94.57 115.61 93.23 115.05 92.13 L 114.59 91.23 C 114.03 90.13 112.68 89.70 111.58 90.26 C 110.49 90.82 110.05 92.17 110.61 93.26 Z M 111.07 94.16 L 111.54 95.07 C 112.10 96.17 113.44 96.61 114.54 96.05 C 115.64 95.49 116.08 94.15 115.52 93.05 L 115.05 92.14 C 114.50 91.04 113.15 90.60 112.05 91.16 C 110.95 91.71 110.51 93.06 111.07 94.16 Z M 111.53 95.07 L 112.00 95.99 C 112.56 97.09 113.90 97.54 115.00 96.98 C 116.10 96.43 116.54 95.08 115.99 93.98 L 115.52 93.06 C 114.97 91.96 113.63 91.51 112.52 92.07 C 111.42 92.62 110.98 93.96 111.53 95.07 Z M 112.00 95.99 L 112.46 96.92 C 113.02 98.02 114.36 98.47 115.46 97.92 C 116.56 97.37 117.01 96.03 116.46 94.92 L 115.99 93.99 C 115.44 92.89 114.10 92.44 113.00 92.99 C 111.89 93.54 111.45 94.88 112.00 95.99 Z M 112.46 96.91 L 112.93 97.85 C 113.47 98.95 114.81 99.40 115.92 98.86 C 117.02 98.31 117.47 96.97 116.92 95.86 L 116.46 94.93 C 115.91 93.82 114.57 93.37 113.47 93.92 C 112.36 94.47 111.91 95.81 112.46 96.91 Z M 112.92 97.84 L 113.38 98.78 C 113.93 99.88 115.26 100.34 116.37 99.79 C 117.48 99.25 117.93 97.91 117.39 96.80 L 116.93 95.87 C 116.38 94.76 115.05 94.31 113.94 94.85 C 112.83 95.40 112.38 96.74 112.92 97.84 Z M 113.38 98.77 L 113.83 99.70 C 114.37 100.80 115.71 101.26 116.82 100.72 C 117.93 100.18 118.38 98.84 117.84 97.74 L 117.39 96.81 C 116.85 95.70 115.51 95.24 114.40 95.78 C 113.30 96.33 112.84 97.66 113.38 98.77 Z M 113.83 99.69 L 114.27 100.61 C 114.81 101.72 116.15 102.18 117.26 101.64 C 118.37 101.10 118.83 99.77 118.29 98.66 L 117.85 97.74 C 117.31 96.63 115.97 96.17 114.86 96.71 C 113.75 97.25 113.29 98.58 113.83 99.69 Z M 114.27 100.60 L 114.71 101.50 C 115.24 102.61 116.58 103.08 117.69 102.54 C 118.80 102.01 119.26 100.67 118.73 99.56 L 118.29 98.66 C 117.76 97.55 116.42 97.09 115.31 97.62 C 114.20 98.16 113.74 99.49 114.27 100.60 Z M 114.70 101.50 L 115.12 102.37 C 115.66 103.49 116.99 103.96 118.10 103.42 C 119.21 102.89 119.68 101.56 119.15 100.45 L 118.73 99.57 C 118.20 98.46 116.86 97.99 115.75 98.52 C 114.64 99.05 114.17 100.38 114.70 101.50 Z M 115.12 102.37 L 115.53 103.22 C 116.06 104.34 117.39 104.81 118.50 104.28 C 119.61 103.75 120.09 102.42 119.56 101.31 L 119.15 100.45 C 118.62 99.34 117.29 98.87 116.18 99.40 C 115.07 99.92 114.59 101.26 115.12 102.37 Z M 115.52 103.22 L 115.91 104.04 C 116.44 105.16 117.77 105.63 118.88 105.11 C 120.00 104.58 120.47 103.25 119.95 102.14 L 119.56 101.31 C 119.04 100.20 117.71 99.72 116.59 100.25 C 115.48 100.77 115.00 102.10 115.52 103.22 Z M 115.91 104.03 L 116.31 104.89 C 116.83 106.01 118.16 106.49 119.28 105.97 C 120.39 105.45 120.88 104.12 120.35 103.01 L 119.95 102.15 C 119.43 101.03 118.10 100.55 116.99 101.07 C 115.87 101.59 115.39 102.92 115.91 104.03 Z M 116.31 104.88 L 116.75 105.84 C 117.27 106.95 118.59 107.44 119.71 106.92 C 120.83 106.41 121.31 105.08 120.80 103.96 L 120.36 103.01 C 119.84 101.90 118.52 101.41 117.40 101.93 C 116.28 102.44 115.79 103.77 116.31 104.88 Z M 116.75 105.83 L 117.16 106.73 C 117.67 107.85 118.99 108.35 120.11 107.83 C 121.23 107.32 121.72 106.00 121.21 104.88 L 120.80 103.97 C 120.29 102.86 118.97 102.36 117.85 102.87 C 116.73 103.39 116.24 104.71 116.75 105.83 Z M 117.16 106.73 L 117.56 107.60 C 118.06 108.72 119.38 109.22 120.50 108.71 C 121.62 108.21 122.12 106.89 121.61 105.77 L 121.22 104.89 C 120.71 103.77 119.39 103.27 118.27 103.78 C 117.15 104.29 116.65 105.60 117.16 106.73 Z M 117.56 107.60 L 117.94 108.46 C 118.44 109.58 119.76 110.08 120.88 109.58 C 122.00 109.08 122.50 107.76 122.00 106.64 L 121.61 105.78 C 121.11 104.66 119.80 104.15 118.68 104.66 C 117.55 105.16 117.05 106.47 117.56 107.60 Z M 117.94 108.45 L 118.32 109.31 C 118.82 110.43 120.13 110.94 121.26 110.44 C 122.38 109.94 122.88 108.62 122.38 107.50 L 122.00 106.64 C 121.50 105.52 120.19 105.02 119.07 105.52 C 117.95 106.02 117.44 107.33 117.94 108.45 Z M 118.32 109.31 L 118.71 110.17 C 119.20 111.29 120.51 111.80 121.64 111.31 C 122.76 110.81 123.26 109.50 122.77 108.38 L 122.38 107.51 C 121.89 106.39 120.58 105.88 119.45 106.38 C 118.33 106.87 117.83 108.18 118.32 109.31 Z M 118.71 110.17 L 119.10 111.06 C 119.60 112.18 120.91 112.69 122.03 112.19 C 123.15 111.70 123.66 110.39 123.16 109.27 L 122.77 108.38 C 122.27 107.26 120.96 106.75 119.84 107.24 C 118.72 107.74 118.21 109.05 118.71 110.17 Z M 119.10 111.06 L 119.51 111.99 C 120.01 113.11 121.31 113.61 122.43 113.12 C 123.55 112.62 124.06 111.32 123.57 110.20 L 123.16 109.27 C 122.66 108.15 121.35 107.64 120.23 108.14 C 119.11 108.63 118.61 109.94 119.10 111.06 Z M 119.51 111.99 L 119.94 112.96 C 120.44 114.08 121.75 114.59 122.87 114.09 C 123.99 113.60 124.49 112.29 124.00 111.17 L 123.57 110.19 C 123.07 109.08 121.76 108.57 120.64 109.07 C 119.52 109.56 119.02 110.87 119.51 111.99 Z M 119.95 112.96 L 120.35 113.88 C 120.85 114.99 122.16 115.50 123.27 115.00 C 124.39 114.51 124.90 113.20 124.40 112.08 L 123.99 111.17 C 123.50 110.05 122.19 109.55 121.07 110.04 C 119.95 110.54 119.45 111.85 119.95 112.96 Z M 120.35 113.88 L 120.68 114.62 C 121.18 115.73 122.49 116.23 123.60 115.74 C 124.72 115.24 125.22 113.93 124.73 112.82 L 124.40 112.08 C 123.90 110.96 122.59 110.46 121.48 110.96 C 120.36 111.45 119.86 112.76 120.35 113.88 Z M 120.68 114.62 L 121.03 115.39 C 121.53 116.50 122.83 117.00 123.95 116.50 C 125.06 116.01 125.57 114.70 125.07 113.58 L 124.72 112.81 C 124.23 111.70 122.92 111.20 121.80 111.70 C 120.69 112.19 120.19 113.50 120.68 114.62 Z M 121.03 115.39 L 121.39 116.19 C 121.89 117.30 123.19 117.80 124.31 117.30 C 125.42 116.80 125.92 115.50 125.42 114.38 L 125.07 113.58 C 124.57 112.47 123.26 111.97 122.15 112.47 C 121.03 112.97 120.53 114.27 121.03 115.39 Z M 121.39 116.19 L 121.76 117.02 C 122.26 118.13 123.56 118.63 124.68 118.13 C 125.79 117.63 126.29 116.33 125.79 115.21 L 125.42 114.38 C 124.92 113.27 123.62 112.77 122.50 113.27 C 121.39 113.77 120.89 115.07 121.39 116.19 Z M 121.76 117.02 L 122.14 117.87 C 122.64 118.99 123.95 119.48 125.06 118.99 C 126.17 118.49 126.67 117.18 126.18 116.07 L 125.79 115.21 C 125.29 114.10 123.99 113.60 122.87 114.10 C 121.76 114.60 121.26 115.90 121.76 117.02 Z M 122.14 117.87 L 122.54 118.76 C 123.04 119.87 124.34 120.37 125.46 119.87 C 126.57 119.37 127.07 118.07 126.57 116.95 L 126.17 116.07 C 125.68 114.96 124.37 114.46 123.26 114.95 C 122.14 115.45 121.65 116.76 122.14 117.87 Z M 122.54 118.75 L 122.95 119.66 C 123.44 120.78 124.75 121.28 125.86 120.78 C 126.97 120.28 127.47 118.98 126.98 117.86 L 126.57 116.95 C 126.07 115.84 124.77 115.34 123.65 115.84 C 122.54 116.34 122.04 117.64 122.54 118.75 Z M 122.95 119.66 L 123.36 120.60 C 123.86 121.71 125.16 122.21 126.28 121.71 C 127.39 121.22 127.89 119.91 127.39 118.80 L 126.98 117.87 C 126.48 116.75 125.17 116.25 124.06 116.75 C 122.95 117.25 122.45 118.55 122.95 119.66 Z M 123.36 120.60 L 123.79 121.56 C 124.29 122.67 125.59 123.17 126.70 122.67 C 127.82 122.18 128.32 120.88 127.82 119.76 L 127.39 118.80 C 126.90 117.69 125.59 117.19 124.48 117.69 C 123.37 118.18 122.87 119.48 123.36 120.60 Z M 123.79 121.55 L 124.23 122.54 C 124.72 123.65 126.03 124.15 127.14 123.66 C 128.25 123.16 128.75 121.86 128.26 120.75 L 127.82 119.77 C 127.33 118.65 126.02 118.15 124.91 118.65 C 123.80 119.14 123.30 120.44 123.79 121.55 Z M 124.23 122.54 L 124.68 123.54 C 125.17 124.65 126.47 125.16 127.58 124.66 C 128.69 124.17 129.20 122.87 128.70 121.76 L 128.26 120.75 C 127.76 119.64 126.46 119.14 125.35 119.63 C 124.24 120.12 123.74 121.42 124.23 122.54 Z M 124.67 123.54 L 125.13 124.57 C 125.62 125.68 126.92 126.18 128.03 125.69 C 129.15 125.20 129.65 123.90 129.16 122.79 L 128.70 121.76 C 128.21 120.65 126.91 120.14 125.80 120.64 C 124.69 121.13 124.18 122.43 124.67 123.54 Z M 125.13 124.56 L 125.59 125.61 C 126.08 126.73 127.38 127.23 128.49 126.74 C 129.60 126.25 130.11 124.95 129.62 123.84 L 129.16 122.79 C 128.67 121.68 127.37 121.17 126.26 121.66 C 125.14 122.15 124.64 123.45 125.13 124.56 Z M 125.59 125.61 L 126.06 126.68 C 126.55 127.79 127.84 128.30 128.96 127.81 C 130.07 127.32 130.58 126.02 130.09 124.91 L 129.62 123.84 C 129.13 122.73 127.83 122.22 126.72 122.71 C 125.61 123.20 125.10 124.50 125.59 125.61 Z M 126.06 126.67 L 126.48 127.63 C 126.96 128.75 128.26 129.25 129.37 128.77 C 130.49 128.28 130.99 126.98 130.51 125.87 L 130.09 124.91 C 129.60 123.80 128.31 123.29 127.19 123.78 C 126.08 124.27 125.57 125.56 126.06 126.67 Z M 126.48 127.63 L 126.88 128.55 C 127.36 129.66 128.66 130.17 129.77 129.68 C 130.88 129.20 131.39 127.90 130.91 126.79 L 130.51 125.87 C 130.02 124.76 128.73 124.25 127.61 124.74 C 126.50 125.22 125.99 126.52 126.48 127.63 Z M 126.88 128.54 L 127.28 129.47 C 127.77 130.58 129.06 131.09 130.17 130.61 C 131.28 130.13 131.79 128.83 131.31 127.72 L 130.90 126.79 C 130.42 125.68 129.13 125.17 128.02 125.66 C 126.91 126.14 126.40 127.43 126.88 128.54 Z M 127.28 129.47 L 127.69 130.40 C 128.17 131.51 129.46 132.02 130.57 131.54 C 131.68 131.06 132.19 129.77 131.71 128.66 L 131.31 127.72 C 130.82 126.61 129.53 126.10 128.42 126.58 C 127.31 127.07 126.80 128.36 127.28 129.47 Z M 127.69 130.40 L 128.10 131.34 C 128.58 132.45 129.87 132.96 130.98 132.48 C 132.09 132.00 132.60 130.71 132.12 129.60 L 131.71 128.66 C 131.23 127.55 129.94 127.04 128.83 127.52 C 127.72 128.00 127.21 129.29 127.69 130.40 Z M 128.10 131.34 L 128.50 132.28 C 128.98 133.39 130.27 133.90 131.38 133.42 C 132.49 132.94 133.00 131.66 132.52 130.55 L 132.12 129.60 C 131.64 128.49 130.35 127.98 129.24 128.46 C 128.13 128.94 127.62 130.23 128.10 131.34 Z M 128.51 132.28 L 128.91 133.23 C 129.39 134.33 130.68 134.85 131.79 134.37 C 132.89 133.89 133.41 132.60 132.93 131.50 L 132.52 130.55 C 132.04 129.44 130.76 128.93 129.65 129.41 C 128.54 129.88 128.03 131.17 128.51 132.28 Z M 128.92 133.22 L 129.32 134.17 C 129.80 135.28 131.08 135.79 132.19 135.31 C 133.30 134.84 133.81 133.55 133.33 132.44 L 132.93 131.50 C 132.45 130.39 131.17 129.88 130.06 130.35 C 128.95 130.83 128.44 132.12 128.92 133.22 Z M 129.32 134.17 L 129.73 135.11 C 130.20 136.22 131.49 136.73 132.59 136.26 C 133.70 135.78 134.21 134.50 133.74 133.39 L 133.33 132.45 C 132.86 131.34 131.57 130.83 130.47 131.30 C 129.36 131.78 128.85 133.06 129.32 134.17 Z M 129.73 135.11 L 130.13 136.05 C 130.61 137.16 131.89 137.67 133.00 137.20 C 134.10 136.72 134.61 135.44 134.14 134.33 L 133.74 133.39 C 133.26 132.29 131.98 131.77 130.87 132.25 C 129.77 132.72 129.26 134.00 129.73 135.11 Z M 130.14 136.05 L 130.54 136.99 C 131.01 138.09 132.29 138.60 133.39 138.13 C 134.50 137.66 135.01 136.38 134.54 135.27 L 134.14 134.34 C 133.67 133.23 132.39 132.72 131.28 133.19 C 130.17 133.66 129.66 134.94 130.14 136.05 Z M 130.54 136.98 L 130.94 137.91 C 131.41 139.02 132.69 139.53 133.79 139.06 C 134.89 138.58 135.41 137.31 134.93 136.20 L 134.54 135.27 C 134.07 134.17 132.79 133.66 131.68 134.13 C 130.58 134.60 130.07 135.88 130.54 136.98 Z M 130.94 137.91 L 131.33 138.83 C 131.80 139.93 133.08 140.45 134.18 139.97 C 135.29 139.50 135.80 138.23 135.33 137.12 L 134.93 136.20 C 134.46 135.10 133.18 134.59 132.08 135.06 C 130.98 135.53 130.47 136.81 130.94 137.91 Z M 131.33 138.83 L 131.72 139.74 C 132.19 140.84 133.47 141.35 134.57 140.88 C 135.67 140.41 136.18 139.13 135.71 138.03 L 135.32 137.12 C 134.85 136.02 133.58 135.51 132.48 135.98 C 131.37 136.45 130.86 137.73 131.33 138.83 Z M 131.72 139.74 L 132.10 140.63 C 132.57 141.73 133.85 142.24 134.95 141.77 C 136.05 141.30 136.56 140.03 136.09 138.93 L 135.71 138.03 C 135.24 136.93 133.97 136.42 132.86 136.89 C 131.76 137.36 131.25 138.63 131.72 139.74 Z M 132.11 140.63 L 132.48 141.51 C 132.95 142.61 134.22 143.12 135.32 142.65 C 136.42 142.18 136.94 140.91 136.47 139.81 L 136.09 138.93 C 135.62 137.83 134.35 137.32 133.25 137.79 C 132.15 138.26 131.64 139.53 132.11 140.63 Z M 132.48 141.51 L 132.85 142.37 C 133.32 143.47 134.59 143.98 135.69 143.51 C 136.79 143.04 137.30 141.77 136.83 140.67 L 136.46 139.81 C 135.99 138.71 134.72 138.20 133.62 138.67 C 132.52 139.14 132.01 140.41 132.48 141.51 Z M 132.85 142.37 L 133.23 143.25 C 133.70 144.35 134.97 144.86 136.07 144.39 C 137.16 143.92 137.67 142.65 137.21 141.55 L 136.83 140.67 C 136.36 139.58 135.09 139.06 133.99 139.53 C 132.89 140.00 132.38 141.27 132.85 142.37 Z M 133.23 143.25 L 133.70 144.33 C 134.16 145.43 135.43 145.94 136.53 145.47 C 137.62 145.00 138.13 143.73 137.67 142.64 L 137.20 141.55 C 136.73 140.46 135.47 139.95 134.37 140.42 C 133.27 140.88 132.76 142.15 133.23 143.25 Z M 133.70 144.33 L 134.15 145.38 C 134.62 146.48 135.88 146.98 136.98 146.52 C 138.07 146.05 138.58 144.79 138.11 143.69 L 137.66 142.64 C 137.19 141.55 135.93 141.04 134.84 141.51 C 133.74 141.97 133.23 143.24 133.70 144.33 Z M 134.16 145.38 L 134.59 146.40 C 135.06 147.49 136.32 148.00 137.41 147.53 C 138.50 147.07 139.00 145.81 138.54 144.72 L 138.10 143.70 C 137.64 142.61 136.38 142.10 135.29 142.56 C 134.20 143.03 133.69 144.29 134.16 145.38 Z M 134.60 146.40 L 135.02 147.39 C 135.48 148.48 136.74 148.98 137.83 148.52 C 138.92 148.05 139.42 146.80 138.96 145.71 L 138.53 144.72 C 138.07 143.63 136.81 143.13 135.73 143.59 C 134.64 144.05 134.13 145.31 134.60 146.40 Z M 135.02 147.38 L 135.43 148.35 C 135.90 149.43 137.15 149.94 138.23 149.47 C 139.32 149.01 139.82 147.76 139.36 146.67 L 138.95 145.71 C 138.49 144.63 137.24 144.12 136.15 144.58 C 135.07 145.05 134.56 146.30 135.02 147.38 Z M 135.44 148.34 L 135.84 149.28 C 136.30 150.36 137.55 150.86 138.63 150.40 C 139.71 149.94 140.21 148.69 139.75 147.61 L 139.36 146.68 C 138.90 145.59 137.65 145.09 136.56 145.55 C 135.48 146.01 134.98 147.26 135.44 148.34 Z M 135.84 149.27 L 136.23 150.18 C 136.68 151.26 137.93 151.76 139.01 151.31 C 140.09 150.85 140.59 149.60 140.14 148.52 L 139.75 147.61 C 139.29 146.53 138.04 146.03 136.96 146.49 C 135.89 146.95 135.38 148.19 135.84 149.27 Z M 136.23 150.18 L 136.61 151.06 C 137.06 152.14 138.30 152.64 139.38 152.19 C 140.46 151.73 140.96 150.49 140.51 149.41 L 140.13 148.53 C 139.67 147.45 138.43 146.95 137.35 147.40 C 136.28 147.86 135.77 149.10 136.23 150.18 Z M 136.61 151.06 L 136.98 151.92 C 137.43 153.00 138.67 153.50 139.74 153.05 C 140.82 152.59 141.32 151.35 140.87 150.28 L 140.50 149.42 C 140.05 148.34 138.81 147.84 137.73 148.29 C 136.66 148.75 136.16 149.98 136.61 151.06 Z M 136.98 151.92 L 137.33 152.76 C 137.79 153.83 139.02 154.34 140.09 153.89 C 141.16 153.43 141.67 152.20 141.22 151.13 L 140.86 150.28 C 140.41 149.21 139.18 148.71 138.10 149.16 C 137.03 149.61 136.53 150.85 136.98 151.92 Z M 137.34 152.76 L 137.68 153.58 C 138.13 154.65 139.36 155.15 140.43 154.71 C 141.50 154.26 142.01 153.03 141.56 151.96 L 141.21 151.13 C 140.76 150.06 139.53 149.56 138.46 150.01 C 137.39 150.46 136.89 151.69 137.34 152.76 Z M 137.69 153.58 L 138.02 154.38 C 138.47 155.45 139.70 155.96 140.76 155.51 C 141.83 155.07 142.34 153.84 141.89 152.77 L 141.55 151.96 C 141.11 150.90 139.88 150.39 138.82 150.84 C 137.75 151.28 137.24 152.51 137.69 153.58 Z M 138.03 154.38 L 138.36 155.17 C 138.80 156.24 140.02 156.74 141.09 156.30 C 142.15 155.86 142.66 154.64 142.22 153.57 L 141.89 152.78 C 141.45 151.71 140.22 151.21 139.16 151.65 C 138.09 152.09 137.59 153.31 138.03 154.38 Z M 138.36 155.16 L 138.73 156.05 C 139.16 157.12 140.38 157.63 141.45 157.19 C 142.51 156.75 143.02 155.53 142.58 154.47 L 142.21 153.58 C 141.77 152.51 140.56 152.01 139.49 152.44 C 138.43 152.88 137.92 154.10 138.36 155.16 Z M 138.73 156.05 L 139.10 156.95 C 139.53 158.01 140.74 158.52 141.80 158.08 C 142.87 157.65 143.38 156.44 142.94 155.38 L 142.58 154.48 C 142.14 153.41 140.93 152.91 139.87 153.34 C 138.81 153.77 138.30 154.98 138.73 156.05 Z M 139.10 156.94 L 139.46 157.83 C 139.89 158.89 141.10 159.40 142.16 158.97 C 143.22 158.54 143.73 157.34 143.30 156.28 L 142.94 155.39 C 142.51 154.32 141.30 153.81 140.24 154.24 C 139.18 154.67 138.67 155.88 139.10 156.94 Z M 139.46 157.82 L 139.82 158.71 C 140.24 159.77 141.44 160.28 142.50 159.86 C 143.56 159.44 144.08 158.23 143.65 157.18 L 143.30 156.29 C 142.87 155.23 141.67 154.71 140.61 155.13 C 139.56 155.56 139.04 156.76 139.46 157.82 Z M 139.82 158.70 L 140.17 159.59 C 140.59 160.65 141.78 161.17 142.84 160.75 C 143.90 160.33 144.42 159.14 144.00 158.08 L 143.65 157.19 C 143.23 156.13 142.04 155.61 140.98 156.03 C 139.92 156.44 139.40 157.64 139.82 158.70 Z M 140.17 159.58 L 140.52 160.48 C 140.93 161.53 142.12 162.06 143.18 161.65 C 144.24 161.24 144.76 160.05 144.35 158.99 L 144.00 158.09 C 143.59 157.03 142.40 156.51 141.34 156.92 C 140.29 157.33 139.76 158.52 140.17 159.58 Z M 140.53 160.47 L 140.88 161.38 C 141.28 162.43 142.46 162.96 143.52 162.56 C 144.57 162.15 145.10 160.97 144.70 159.91 L 144.35 159.00 C 143.94 157.94 142.76 157.42 141.70 157.82 C 140.65 158.23 140.12 159.41 140.53 160.47 Z M 140.88 161.37 L 141.23 162.30 C 141.63 163.36 142.81 163.89 143.86 163.49 C 144.91 163.09 145.45 161.91 145.05 160.86 L 144.70 159.93 C 144.30 158.87 143.12 158.34 142.07 158.74 C 141.01 159.14 140.48 160.31 140.88 161.37 Z M 141.23 162.29 L 141.59 163.25 C 141.98 164.30 143.15 164.84 144.21 164.44 C 145.26 164.05 145.79 162.88 145.40 161.83 L 145.05 160.87 C 144.65 159.82 143.48 159.28 142.43 159.67 C 141.38 160.06 140.84 161.24 141.23 162.29 Z M 141.59 163.24 L 141.95 164.22 C 142.34 165.28 143.50 165.82 144.56 165.43 C 145.61 165.04 146.15 163.88 145.76 162.83 L 145.40 161.84 C 145.01 160.79 143.85 160.25 142.80 160.63 C 141.75 161.02 141.21 162.18 141.59 163.24 Z M 141.96 164.21 L 142.33 165.24 C 142.70 166.29 143.86 166.83 144.91 166.45 C 145.97 166.07 146.51 164.91 146.13 163.86 L 145.76 162.84 C 145.38 161.79 144.22 161.24 143.17 161.62 C 142.12 162.00 141.58 163.16 141.96 164.21 Z M 142.33 165.23 L 142.66 166.17 C 143.04 167.22 144.19 167.76 145.24 167.39 C 146.29 167.01 146.84 165.86 146.46 164.81 L 146.13 163.87 C 145.75 162.82 144.60 162.27 143.55 162.65 C 142.50 163.02 141.95 164.18 142.33 165.23 Z M 142.67 166.16 L 142.96 167.00 C 143.33 168.05 144.48 168.60 145.53 168.23 C 146.58 167.86 147.13 166.71 146.76 165.67 L 146.46 164.82 C 146.09 163.77 144.94 163.22 143.89 163.59 C 142.85 163.96 142.30 165.11 142.67 166.16 Z M 142.97 167.00 L 143.27 167.86 C 143.64 168.91 144.78 169.46 145.83 169.09 C 146.87 168.73 147.42 167.59 147.06 166.54 L 146.75 165.67 C 146.39 164.63 145.24 164.08 144.20 164.44 C 143.15 164.81 142.60 165.95 142.97 167.00 Z M 143.27 167.86 L 143.58 168.75 C 143.94 169.79 145.08 170.34 146.13 169.98 C 147.17 169.62 147.72 168.48 147.36 167.44 L 147.05 166.55 C 146.69 165.50 145.55 164.95 144.51 165.31 C 143.47 165.67 142.91 166.81 143.27 167.86 Z M 143.59 168.74 L 143.90 169.65 C 144.26 170.69 145.39 171.24 146.43 170.88 C 147.48 170.53 148.03 169.39 147.67 168.35 L 147.36 167.44 C 147.00 166.40 145.86 165.85 144.82 166.21 C 143.78 166.56 143.23 167.70 143.59 168.74 Z M 143.90 169.64 L 144.22 170.57 C 144.58 171.61 145.71 172.16 146.75 171.81 C 147.78 171.45 148.34 170.32 147.98 169.28 L 147.67 168.36 C 147.31 167.32 146.18 166.76 145.14 167.12 C 144.10 167.47 143.55 168.60 143.90 169.64 Z M 144.23 170.57 L 144.55 171.51 C 144.90 172.54 146.03 173.10 147.06 172.75 C 148.10 172.39 148.65 171.27 148.30 170.23 L 147.98 169.29 C 147.63 168.25 146.50 167.70 145.46 168.05 C 144.43 168.40 143.87 169.53 144.23 170.57 Z M 144.55 171.50 L 144.88 172.46 C 145.23 173.50 146.35 174.05 147.38 173.70 C 148.42 173.35 148.97 172.23 148.62 171.19 L 148.30 170.24 C 147.95 169.20 146.82 168.65 145.79 169.00 C 144.76 169.35 144.20 170.47 144.55 171.50 Z M 144.88 172.46 L 145.21 173.43 C 145.56 174.46 146.67 175.01 147.71 174.66 C 148.74 174.32 149.29 173.20 148.94 172.17 L 148.62 171.20 C 148.27 170.17 147.15 169.61 146.12 169.96 C 145.09 170.31 144.53 171.43 144.88 172.46 Z M 145.21 173.42 L 145.54 174.41 C 145.89 175.43 147.00 175.99 148.03 175.64 C 149.06 175.30 149.61 174.18 149.27 173.15 L 148.94 172.17 C 148.59 171.14 147.48 170.59 146.45 170.93 C 145.42 171.28 144.87 172.40 145.21 173.42 Z M 145.55 174.40 L 145.88 175.39 C 146.22 176.42 147.33 176.97 148.36 176.63 C 149.39 176.28 149.94 175.17 149.59 174.15 L 149.26 173.16 C 148.92 172.13 147.81 171.58 146.78 171.92 C 145.76 172.27 145.20 173.38 145.55 174.40 Z M 145.88 175.39 L 146.22 176.39 C 146.56 177.41 147.67 177.96 148.69 177.62 C 149.71 177.28 150.27 176.17 149.92 175.15 L 149.59 174.15 C 149.25 173.13 148.14 172.57 147.12 172.92 C 146.09 173.26 145.54 174.37 145.88 175.39 Z M 146.22 176.38 L 146.56 177.39 C 146.90 178.41 148.00 178.96 149.02 178.62 C 150.04 178.28 150.59 177.17 150.25 176.15 L 149.92 175.15 C 149.58 174.13 148.47 173.58 147.45 173.92 C 146.43 174.26 145.88 175.36 146.22 176.38 Z M 146.56 177.39 L 146.90 178.39 C 147.24 179.41 148.34 179.96 149.36 179.62 C 150.37 179.28 150.92 178.18 150.58 177.16 L 150.25 176.16 C 149.91 175.14 148.81 174.59 147.79 174.93 C 146.77 175.27 146.22 176.37 146.56 177.39 Z M 146.91 178.39 L 147.24 179.40 C 147.58 180.42 148.68 180.96 149.69 180.63 C 150.71 180.29 151.25 179.19 150.92 178.18 L 150.58 177.17 C 150.24 176.15 149.14 175.60 148.13 175.94 C 147.12 176.28 146.57 177.38 146.91 178.39 Z M 147.25 179.40 L 147.33 179.64 C 147.66 180.65 148.76 181.20 149.77 180.86 C 150.78 180.52 151.33 179.43 150.99 178.42 L 150.91 178.18 C 150.58 177.16 149.48 176.62 148.47 176.96 C 147.45 177.29 146.91 178.39 147.25 179.40 Z"
      fill="black"
      fill-rule="nonzero" /><path d="M 193.63 95.35 L 192.60 95.04 C 191.69 94.77 190.72 95.30 190.45 96.22 C 190.18 97.13 190.71 98.09 191.63 98.36 L 192.66 98.67 C 193.57 98.94 194.54 98.41 194.81 97.50 C 195.08 96.58 194.55 95.62 193.63 95.35 Z M 192.59 95.02 L 191.56 94.73 C 190.63 94.46 189.66 95.01 189.40 95.94 C 189.14 96.87 189.68 97.84 190.61 98.10 L 191.64 98.39 C 192.57 98.65 193.54 98.11 193.80 97.18 C 194.06 96.25 193.52 95.28 192.59 95.02 Z M 191.52 94.69 L 190.51 94.43 C 189.55 94.19 188.59 94.77 188.34 95.72 C 188.10 96.67 188.68 97.64 189.63 97.88 L 190.65 98.14 C 191.60 98.38 192.57 97.81 192.81 96.85 C 193.05 95.90 192.48 94.93 191.52 94.69 Z M 190.44 94.39 L 189.44 94.18 C 188.47 93.97 187.51 94.59 187.30 95.57 C 187.09 96.54 187.71 97.50 188.69 97.70 L 189.69 97.92 C 190.66 98.13 191.62 97.51 191.83 96.53 C 192.04 95.56 191.42 94.60 190.44 94.39 Z M 189.35 94.14 L 188.36 93.98 C 187.36 93.83 186.43 94.51 186.27 95.50 C 186.12 96.50 186.80 97.43 187.79 97.59 L 188.78 97.75 C 189.78 97.90 190.71 97.22 190.87 96.23 C 191.02 95.23 190.34 94.30 189.35 94.14 Z M 188.23 93.94 L 187.27 93.86 C 186.25 93.78 185.36 94.53 185.27 95.55 C 185.19 96.57 185.94 97.46 186.96 97.55 L 187.92 97.63 C 188.94 97.72 189.83 96.96 189.92 95.94 C 190.01 94.92 189.25 94.03 188.23 93.94 Z M 187.10 93.83 L 186.16 93.84 C 185.13 93.85 184.30 94.70 184.30 95.73 C 184.31 96.77 185.16 97.60 186.19 97.59 L 187.13 97.58 C 188.17 97.57 189.00 96.72 188.99 95.69 C 188.98 94.65 188.13 93.82 187.10 93.83 Z M 185.94 93.83 L 185.04 93.94 C 184.00 94.07 183.26 95.02 183.39 96.06 C 183.52 97.10 184.47 97.84 185.51 97.71 L 186.41 97.60 C 187.45 97.47 188.19 96.52 188.06 95.48 C 187.93 94.44 186.98 93.70 185.94 93.83 Z M 184.79 93.97 L 183.95 94.19 C 182.93 94.46 182.32 95.51 182.59 96.53 C 182.86 97.56 183.90 98.17 184.93 97.90 L 185.76 97.68 C 186.79 97.41 187.40 96.36 187.13 95.34 C 186.86 94.31 185.81 93.70 184.79 93.97 Z M 183.70 94.26 L 182.96 94.57 C 181.97 94.98 181.51 96.11 181.91 97.09 C 182.32 98.08 183.45 98.55 184.44 98.14 L 185.18 97.83 C 186.17 97.42 186.63 96.29 186.22 95.31 C 185.82 94.32 184.69 93.85 183.70 94.26 Z M 182.74 94.67 L 182.02 95.08 C 181.09 95.60 180.76 96.79 181.29 97.72 C 181.82 98.65 183.00 98.97 183.93 98.45 L 184.65 98.04 C 185.58 97.51 185.91 96.33 185.38 95.40 C 184.86 94.47 183.67 94.14 182.74 94.67 Z M 181.84 95.18 L 181.14 95.69 C 180.27 96.31 180.07 97.53 180.70 98.40 C 181.32 99.27 182.54 99.47 183.41 98.85 L 184.11 98.34 C 184.98 97.72 185.18 96.50 184.56 95.63 C 183.93 94.76 182.72 94.56 181.84 95.18 Z M 181.00 95.79 L 180.31 96.39 C 179.49 97.10 179.41 98.33 180.11 99.14 C 180.82 99.95 182.05 100.04 182.86 99.34 L 183.55 98.74 C 184.37 98.03 184.45 96.80 183.75 95.99 C 183.04 95.18 181.81 95.09 181.00 95.79 Z M 180.20 96.49 L 179.51 97.18 C 178.75 97.94 178.76 99.18 179.52 99.94 C 180.29 100.70 181.53 100.70 182.29 99.93 L 182.97 99.24 C 183.73 98.47 183.73 97.24 182.96 96.48 C 182.20 95.71 180.96 95.72 180.20 96.49 Z M 179.43 97.26 L 178.74 98.04 C 178.03 98.85 178.11 100.09 178.92 100.81 C 179.74 101.52 180.98 101.44 181.69 100.63 L 182.38 99.85 C 183.09 99.03 183.01 97.79 182.20 97.08 C 181.38 96.36 180.14 96.44 179.43 97.26 Z M 178.68 98.10 L 177.99 98.97 C 177.31 99.82 177.45 101.06 178.30 101.74 C 179.15 102.41 180.39 102.27 181.07 101.42 L 181.76 100.56 C 182.44 99.71 182.30 98.47 181.44 97.79 C 180.59 97.11 179.36 97.25 178.68 98.10 Z M 177.94 99.02 L 177.24 99.97 C 176.59 100.85 176.78 102.08 177.66 102.73 C 178.53 103.38 179.77 103.19 180.42 102.32 L 181.12 101.37 C 181.77 100.49 181.58 99.25 180.70 98.61 C 179.82 97.96 178.59 98.14 177.94 99.02 Z M 177.20 100.01 L 176.49 101.04 C 175.86 101.94 176.08 103.17 176.98 103.80 C 177.88 104.42 179.11 104.20 179.74 103.30 L 180.46 102.28 C 181.08 101.38 180.86 100.14 179.96 99.52 C 179.06 98.89 177.83 99.11 177.20 100.01 Z M 176.46 101.07 L 175.89 101.92 C 175.28 102.84 175.52 104.07 176.43 104.68 C 177.34 105.29 178.58 105.05 179.19 104.14 L 179.76 103.28 C 180.37 102.37 180.13 101.13 179.22 100.52 C 178.31 99.91 177.07 100.15 176.46 101.07 Z M 175.87 101.94 L 175.36 102.72 C 174.76 103.64 175.02 104.88 175.94 105.48 C 176.86 106.08 178.09 105.82 178.69 104.90 L 179.20 104.12 C 179.81 103.20 179.55 101.96 178.63 101.36 C 177.71 100.76 176.47 101.02 175.87 101.94 Z M 175.35 102.73 L 174.83 103.54 C 174.24 104.47 174.51 105.70 175.44 106.30 C 176.36 106.89 177.60 106.62 178.19 105.69 L 178.71 104.88 C 179.30 103.96 179.03 102.72 178.10 102.13 C 177.17 101.54 175.94 101.81 175.35 102.73 Z M 174.82 103.56 L 174.30 104.39 C 173.71 105.32 173.99 106.56 174.93 107.14 C 175.86 107.73 177.09 107.45 177.68 106.51 L 178.20 105.68 C 178.79 104.75 178.51 103.51 177.57 102.93 C 176.64 102.34 175.41 102.62 174.82 103.56 Z M 174.28 104.40 L 173.76 105.26 C 173.18 106.20 173.47 107.43 174.41 108.01 C 175.35 108.59 176.58 108.30 177.16 107.36 L 177.69 106.50 C 178.27 105.56 177.98 104.33 177.04 103.75 C 176.10 103.17 174.86 103.46 174.28 104.40 Z M 173.75 105.27 L 173.22 106.14 C 172.64 107.09 172.95 108.32 173.89 108.89 C 174.84 109.47 176.07 109.16 176.65 108.22 L 177.17 107.35 C 177.75 106.40 177.45 105.17 176.50 104.59 C 175.55 104.02 174.32 104.32 173.75 105.27 Z M 173.21 106.15 L 172.68 107.03 C 172.11 107.99 172.42 109.22 173.37 109.79 C 174.33 110.36 175.56 110.04 176.13 109.09 L 176.65 108.21 C 177.22 107.26 176.91 106.02 175.96 105.46 C 175.01 104.89 173.78 105.20 173.21 106.15 Z M 172.67 107.04 L 172.14 107.94 C 171.58 108.89 171.90 110.13 172.86 110.69 C 173.81 111.25 175.05 110.93 175.61 109.98 L 176.14 109.08 C 176.70 108.13 176.38 106.89 175.42 106.33 C 174.47 105.77 173.23 106.09 172.67 107.04 Z M 172.13 107.95 L 171.61 108.85 C 171.05 109.81 171.38 111.04 172.34 111.60 C 173.31 112.16 174.54 111.83 175.10 110.87 L 175.62 109.97 C 176.18 109.01 175.85 107.77 174.89 107.22 C 173.93 106.66 172.69 106.98 172.13 107.95 Z M 171.60 108.85 L 171.09 109.75 C 170.53 110.72 170.87 111.95 171.84 112.51 C 172.80 113.06 174.04 112.73 174.59 111.76 L 175.10 110.86 C 175.66 109.89 175.32 108.66 174.36 108.11 C 173.39 107.55 172.16 107.89 171.60 108.85 Z M 171.08 109.76 L 170.57 110.66 C 170.02 111.63 170.37 112.86 171.34 113.41 C 172.31 113.96 173.54 113.62 174.09 112.65 L 174.60 111.75 C 175.15 110.78 174.80 109.55 173.83 109.00 C 172.86 108.45 171.63 108.79 171.08 109.76 Z M 170.56 110.67 L 170.07 111.56 C 169.52 112.54 169.87 113.77 170.85 114.31 C 171.83 114.86 173.06 114.51 173.60 113.53 L 174.10 112.64 C 174.64 111.66 174.29 110.43 173.32 109.89 C 172.34 109.34 171.11 109.69 170.56 110.67 Z M 170.06 111.57 L 169.57 112.45 C 169.04 113.43 169.39 114.66 170.37 115.20 C 171.35 115.74 172.59 115.38 173.13 114.40 L 173.61 113.52 C 174.15 112.54 173.79 111.31 172.81 110.77 C 171.83 110.23 170.60 110.59 170.06 111.57 Z M 169.57 112.46 L 169.10 113.32 C 168.56 114.31 168.93 115.54 169.91 116.08 C 170.90 116.61 172.13 116.25 172.67 115.26 L 173.13 114.39 C 173.67 113.41 173.30 112.18 172.32 111.64 C 171.33 111.11 170.10 111.47 169.57 112.46 Z M 169.09 113.33 L 168.60 114.24 C 168.07 115.23 168.45 116.46 169.44 116.99 C 170.43 117.52 171.66 117.15 172.19 116.16 L 172.67 115.25 C 173.20 114.26 172.83 113.03 171.84 112.50 C 170.85 111.97 169.62 112.34 169.09 113.33 Z M 168.60 114.25 L 168.08 115.22 C 167.56 116.22 167.94 117.45 168.94 117.97 C 169.93 118.50 171.16 118.11 171.68 117.12 L 172.20 116.14 C 172.72 115.15 172.34 113.92 171.34 113.40 C 170.35 112.87 169.12 113.26 168.60 114.25 Z M 168.08 115.24 L 167.58 116.19 C 167.07 117.19 167.46 118.41 168.46 118.93 C 169.46 119.45 170.68 119.05 171.20 118.06 L 171.69 117.11 C 172.21 116.11 171.82 114.88 170.82 114.36 C 169.82 113.85 168.59 114.24 168.08 115.24 Z M 167.58 116.20 L 167.11 117.13 C 166.60 118.13 167.00 119.35 168.00 119.86 C 169.00 120.37 170.23 119.97 170.74 118.97 L 171.21 118.04 C 171.72 117.04 171.32 115.82 170.32 115.31 C 169.31 114.80 168.09 115.20 167.58 116.20 Z M 167.10 117.14 L 166.64 118.05 C 166.14 119.05 166.55 120.28 167.56 120.78 C 168.56 121.28 169.79 120.87 170.29 119.87 L 170.74 118.96 C 171.25 117.95 170.84 116.73 169.83 116.23 C 168.83 115.72 167.60 116.13 167.10 117.14 Z M 166.64 118.06 L 166.20 118.95 C 165.70 119.96 166.12 121.18 167.13 121.68 C 168.14 122.18 169.36 121.76 169.86 120.75 L 170.30 119.86 C 170.79 118.85 170.38 117.62 169.37 117.13 C 168.36 116.63 167.13 117.05 166.64 118.06 Z M 166.19 118.96 L 165.77 119.84 C 165.28 120.86 165.70 122.08 166.71 122.57 C 167.73 123.06 168.95 122.63 169.44 121.62 L 169.86 120.74 C 170.35 119.73 169.93 118.51 168.92 118.02 C 167.90 117.52 166.68 117.95 166.19 118.96 Z M 165.76 119.85 L 165.34 120.73 C 164.86 121.74 165.29 122.96 166.31 123.45 C 167.33 123.93 168.54 123.50 169.03 122.48 L 169.44 121.61 C 169.93 120.59 169.50 119.38 168.48 118.89 C 167.46 118.41 166.25 118.84 165.76 119.85 Z M 165.34 120.74 L 164.93 121.60 C 164.45 122.62 164.89 123.84 165.91 124.32 C 166.93 124.80 168.15 124.36 168.63 123.34 L 169.03 122.47 C 169.51 121.45 169.08 120.24 168.06 119.76 C 167.04 119.28 165.82 119.72 165.34 120.74 Z M 164.93 121.61 L 164.53 122.47 C 164.05 123.50 164.49 124.71 165.52 125.19 C 166.54 125.66 167.75 125.22 168.23 124.19 L 168.63 123.33 C 169.11 122.31 168.66 121.09 167.64 120.62 C 166.62 120.14 165.40 120.59 164.93 121.61 Z M 164.52 122.48 L 164.12 123.34 C 163.65 124.37 164.10 125.58 165.13 126.05 C 166.15 126.53 167.37 126.08 167.84 125.05 L 168.23 124.19 C 168.71 123.16 168.26 121.95 167.23 121.48 C 166.21 121.01 164.99 121.45 164.52 122.48 Z M 164.12 123.35 L 163.73 124.22 C 163.26 125.24 163.71 126.46 164.74 126.92 C 165.76 127.39 166.98 126.94 167.44 125.91 L 167.84 125.05 C 168.31 124.02 167.86 122.81 166.83 122.34 C 165.80 121.87 164.59 122.32 164.12 123.35 Z M 163.72 124.22 L 163.33 125.09 C 162.86 126.12 163.32 127.33 164.35 127.80 C 165.37 128.26 166.59 127.81 167.05 126.78 L 167.45 125.91 C 167.91 124.88 167.46 123.67 166.43 123.20 C 165.40 122.74 164.19 123.19 163.72 124.22 Z M 163.33 125.09 L 162.93 125.96 C 162.47 126.99 162.93 128.20 163.96 128.67 C 164.99 129.13 166.20 128.67 166.66 127.64 L 167.05 126.78 C 167.52 125.75 167.06 124.54 166.03 124.07 C 165.00 123.61 163.79 124.06 163.33 125.09 Z M 162.93 125.96 L 162.54 126.84 C 162.08 127.87 162.54 129.08 163.57 129.55 C 164.60 130.01 165.81 129.55 166.27 128.52 L 166.66 127.64 C 167.13 126.61 166.67 125.40 165.64 124.94 C 164.61 124.47 163.39 124.93 162.93 125.96 Z M 162.54 126.85 L 162.14 127.73 C 161.68 128.76 162.15 129.97 163.18 130.43 C 164.21 130.89 165.42 130.43 165.88 129.40 L 166.27 128.51 C 166.73 127.48 166.27 126.27 165.24 125.81 C 164.21 125.35 163.00 125.81 162.54 126.85 Z M 162.14 127.74 L 161.74 128.63 C 161.29 129.67 161.75 130.87 162.79 131.33 C 163.82 131.79 165.03 131.32 165.49 130.29 L 165.88 129.39 C 166.34 128.36 165.87 127.15 164.84 126.69 C 163.80 126.24 162.60 126.70 162.14 127.74 Z M 161.74 128.64 L 161.34 129.54 C 160.89 130.58 161.36 131.78 162.40 132.24 C 163.43 132.69 164.64 132.22 165.09 131.19 L 165.49 130.28 C 165.94 129.25 165.47 128.04 164.44 127.59 C 163.40 127.13 162.19 127.60 161.74 128.64 Z M 161.34 129.55 L 160.94 130.46 C 160.50 131.50 160.97 132.71 162.01 133.16 C 163.04 133.61 164.25 133.13 164.70 132.09 L 165.10 131.18 C 165.55 130.14 165.07 128.94 164.03 128.49 C 163.00 128.04 161.79 128.51 161.34 129.55 Z M 160.94 130.47 L 160.54 131.40 C 160.10 132.43 160.58 133.64 161.62 134.08 C 162.66 134.53 163.86 134.05 164.31 133.01 L 164.70 132.09 C 165.15 131.05 164.67 129.84 163.63 129.40 C 162.59 128.95 161.39 129.43 160.94 130.47 Z M 160.54 131.40 L 160.15 132.34 C 159.70 133.38 160.19 134.58 161.23 135.02 C 162.27 135.46 163.47 134.98 163.91 133.94 L 164.31 133.00 C 164.75 131.96 164.26 130.76 163.22 130.32 C 162.18 129.88 160.98 130.36 160.54 131.40 Z M 160.14 132.35 L 159.75 133.29 C 159.31 134.33 159.80 135.53 160.84 135.97 C 161.89 136.41 163.09 135.91 163.52 134.87 L 163.92 133.93 C 164.35 132.88 163.86 131.69 162.82 131.25 C 161.78 130.81 160.58 131.30 160.14 132.35 Z M 159.74 133.30 L 159.35 134.26 C 158.92 135.30 159.41 136.50 160.46 136.93 C 161.50 137.36 162.70 136.86 163.13 135.82 L 163.53 134.86 C 163.96 133.82 163.46 132.62 162.42 132.19 C 161.37 131.76 160.17 132.26 159.74 133.30 Z M 159.34 134.27 L 158.95 135.23 C 158.52 136.28 159.03 137.47 160.08 137.90 C 161.12 138.32 162.32 137.82 162.74 136.77 L 163.14 135.81 C 163.56 134.76 163.06 133.57 162.01 133.14 C 160.96 132.71 159.77 133.22 159.34 134.27 Z M 158.95 135.24 L 158.56 136.22 C 158.14 137.27 158.65 138.46 159.69 138.88 C 160.74 139.30 161.94 138.79 162.36 137.74 L 162.75 136.76 C 163.17 135.71 162.66 134.52 161.61 134.10 C 160.56 133.68 159.37 134.19 158.95 135.24 Z M 158.55 136.23 L 158.20 137.11 C 157.79 138.16 158.30 139.35 159.36 139.77 C 160.41 140.18 161.60 139.67 162.01 138.61 L 162.36 137.73 C 162.78 136.68 162.26 135.49 161.21 135.07 C 160.16 134.66 158.97 135.17 158.55 136.23 Z M 158.20 137.12 L 157.85 138.02 C 157.44 139.07 157.96 140.26 159.02 140.67 C 160.07 141.08 161.26 140.55 161.67 139.50 L 162.01 138.60 C 162.42 137.55 161.90 136.36 160.85 135.96 C 159.79 135.55 158.61 136.07 158.20 137.12 Z M 157.85 138.03 L 157.50 138.93 C 157.10 139.99 157.63 141.17 158.68 141.57 C 159.74 141.98 160.92 141.45 161.33 140.39 L 161.67 139.49 C 162.07 138.43 161.55 137.25 160.49 136.85 C 159.43 136.44 158.25 136.97 157.85 138.03 Z M 157.50 138.94 L 157.16 139.86 C 156.76 140.91 157.29 142.09 158.35 142.49 C 159.41 142.89 160.59 142.35 160.99 141.30 L 161.33 140.38 C 161.73 139.33 161.19 138.15 160.13 137.75 C 159.08 137.35 157.90 137.88 157.50 138.94 Z M 157.15 139.87 L 156.81 140.79 C 156.42 141.85 156.96 143.02 158.02 143.42 C 159.08 143.81 160.26 143.27 160.65 142.21 L 160.99 141.29 C 161.38 140.23 160.84 139.05 159.78 138.66 C 158.72 138.27 157.54 138.81 157.15 139.87 Z M 156.81 140.80 L 156.47 141.73 C 156.08 142.79 156.63 143.96 157.69 144.35 C 158.75 144.74 159.93 144.19 160.31 143.13 L 160.65 142.20 C 161.04 141.14 160.49 139.96 159.43 139.58 C 158.37 139.19 157.19 139.74 156.81 140.80 Z M 156.47 141.74 L 156.13 142.68 C 155.75 143.74 156.30 144.91 157.37 145.29 C 158.43 145.67 159.60 145.12 159.98 144.06 L 160.32 143.12 C 160.70 142.05 160.14 140.88 159.08 140.50 C 158.02 140.12 156.85 140.68 156.47 141.74 Z M 156.13 142.69 L 155.79 143.64 C 155.42 144.70 155.98 145.87 157.04 146.24 C 158.11 146.62 159.28 146.06 159.65 144.99 L 159.98 144.05 C 160.36 142.98 159.80 141.81 158.73 141.44 C 157.67 141.06 156.50 141.62 156.13 142.69 Z M 155.79 143.65 L 155.46 144.60 C 155.09 145.67 155.66 146.84 156.72 147.20 C 157.79 147.57 158.95 147.01 159.32 145.94 L 159.65 144.98 C 160.02 143.92 159.46 142.75 158.39 142.38 C 157.32 142.01 156.16 142.58 155.79 143.65 Z M 155.45 144.62 L 155.13 145.58 C 154.76 146.65 155.34 147.81 156.41 148.17 C 157.47 148.54 158.64 147.96 159.00 146.89 L 159.33 145.93 C 159.69 144.86 159.12 143.70 158.05 143.34 C 156.98 142.97 155.82 143.55 155.45 144.62 Z M 155.12 145.59 L 154.80 146.57 C 154.44 147.64 155.02 148.79 156.09 149.15 C 157.16 149.51 158.32 148.93 158.68 147.86 L 159.00 146.88 C 159.36 145.81 158.78 144.66 157.71 144.30 C 156.64 143.94 155.48 144.52 155.12 145.59 Z M 154.80 146.58 L 154.47 147.56 C 154.12 148.63 154.71 149.79 155.78 150.14 C 156.85 150.49 158.01 149.90 158.36 148.83 L 158.68 147.85 C 159.03 146.77 158.45 145.62 157.37 145.27 C 156.30 144.92 155.15 145.50 154.80 146.58 Z M 154.47 147.57 L 154.15 148.56 C 153.81 149.64 154.40 150.79 155.47 151.13 C 156.55 151.48 157.70 150.89 158.04 149.81 L 158.36 148.82 C 158.71 147.75 158.11 146.59 157.04 146.25 C 155.97 145.91 154.82 146.50 154.47 147.57 Z M 154.15 148.58 L 153.84 149.55 C 153.50 150.63 154.10 151.78 155.18 152.12 C 156.25 152.45 157.40 151.86 157.74 150.78 L 158.05 149.80 C 158.39 148.72 157.79 147.58 156.71 147.24 C 155.64 146.90 154.49 147.50 154.15 148.58 Z M 153.84 149.57 L 153.55 150.51 C 153.22 151.58 153.82 152.73 154.90 153.06 C 155.98 153.39 157.12 152.79 157.45 151.71 L 157.74 150.77 C 158.07 149.69 157.47 148.55 156.39 148.22 C 155.31 147.88 154.17 148.49 153.84 149.57 Z M 153.55 150.52 L 153.26 151.47 C 152.93 152.54 153.54 153.68 154.62 154.01 C 155.70 154.34 156.84 153.73 157.17 152.65 L 157.45 151.70 C 157.78 150.62 157.17 149.48 156.09 149.16 C 155.01 148.83 153.87 149.44 153.55 150.52 Z M 153.26 151.48 L 152.98 152.43 C 152.66 153.51 153.27 154.64 154.35 154.96 C 155.43 155.29 156.56 154.67 156.88 153.59 L 157.17 152.64 C 157.49 151.56 156.87 150.42 155.79 150.10 C 154.71 149.78 153.58 150.40 153.26 151.48 Z M 152.97 152.44 L 152.70 153.40 C 152.38 154.48 153.00 155.61 154.08 155.93 C 155.16 156.24 156.29 155.62 156.61 154.54 L 156.89 153.58 C 157.20 152.50 156.58 151.37 155.50 151.06 C 154.42 150.74 153.29 151.36 152.97 152.44 Z M 152.69 153.41 L 152.42 154.38 C 152.11 155.46 152.74 156.58 153.82 156.89 C 154.90 157.20 156.03 156.57 156.33 155.49 L 156.61 154.53 C 156.92 153.45 156.29 152.32 155.21 152.01 C 154.13 151.71 153.00 152.33 152.69 153.41 Z M 152.42 154.39 L 152.15 155.36 C 151.85 156.44 152.48 157.56 153.56 157.86 C 154.64 158.16 155.76 157.53 156.06 156.45 L 156.33 155.48 C 156.64 154.40 156.00 153.28 154.92 152.98 C 153.84 152.68 152.72 153.31 152.42 154.39 Z M 152.15 155.37 L 151.88 156.34 C 151.59 157.42 152.23 158.54 153.31 158.83 C 154.39 159.13 155.51 158.49 155.80 157.41 L 156.07 156.44 C 156.36 155.35 155.72 154.24 154.64 153.94 C 153.56 153.65 152.44 154.29 152.15 155.37 Z M 151.88 156.35 L 151.62 157.32 C 151.33 158.41 151.98 159.52 153.06 159.81 C 154.14 160.10 155.25 159.45 155.54 158.37 L 155.80 157.40 C 156.09 156.31 155.45 155.20 154.36 154.91 C 153.28 154.62 152.17 155.27 151.88 156.35 Z M 151.62 157.34 L 151.37 158.31 C 151.08 159.39 151.73 160.50 152.82 160.78 C 153.90 161.07 155.01 160.42 155.29 159.33 L 155.54 158.36 C 155.83 157.27 155.18 156.17 154.09 155.88 C 153.01 155.60 151.90 156.25 151.62 157.34 Z M 151.37 158.32 L 151.12 159.30 C 150.84 160.38 151.50 161.48 152.58 161.76 C 153.67 162.04 154.77 161.38 155.04 160.30 L 155.29 159.32 C 155.57 158.24 154.91 157.13 153.83 156.86 C 152.74 156.58 151.64 157.24 151.37 158.32 Z M 151.12 159.31 L 150.87 160.29 C 150.61 161.37 151.27 162.47 152.35 162.74 C 153.44 163.01 154.54 162.34 154.80 161.26 L 155.05 160.28 C 155.31 159.20 154.65 158.10 153.57 157.83 C 152.48 157.56 151.38 158.22 151.12 159.31 Z M 150.87 160.30 L 150.64 161.27 C 150.38 162.36 151.05 163.45 152.13 163.71 C 153.22 163.98 154.31 163.31 154.57 162.22 L 154.81 161.25 C 155.07 160.16 154.40 159.07 153.31 158.81 C 152.23 158.54 151.13 159.21 150.87 160.30 Z M 150.64 161.29 L 150.41 162.26 C 150.15 163.35 150.83 164.43 151.92 164.69 C 153.00 164.94 154.09 164.27 154.35 163.18 L 154.57 162.21 C 154.83 161.12 154.15 160.03 153.07 159.78 C 151.98 159.52 150.89 160.20 150.64 161.29 Z M 150.41 162.27 L 150.19 163.25 C 149.94 164.33 150.62 165.41 151.71 165.66 C 152.80 165.91 153.88 165.23 154.13 164.14 L 154.35 163.17 C 154.59 162.08 153.91 161.00 152.82 160.75 C 151.74 160.50 150.65 161.19 150.41 162.27 Z M 150.19 163.26 L 149.97 164.25 C 149.73 165.34 150.42 166.42 151.51 166.66 C 152.59 166.90 153.67 166.21 153.91 165.12 L 154.13 164.13 C 154.37 163.04 153.68 161.96 152.59 161.72 C 151.50 161.48 150.43 162.17 150.19 163.26 Z M 149.97 164.27 L 149.75 165.27 C 149.52 166.36 150.22 167.43 151.31 167.66 C 152.39 167.89 153.46 167.20 153.70 166.11 L 153.91 165.10 C 154.14 164.02 153.45 162.95 152.36 162.72 C 151.27 162.48 150.20 163.18 149.97 164.27 Z M 149.75 165.28 L 149.55 166.29 C 149.33 167.37 150.03 168.44 151.11 168.66 C 152.20 168.88 153.27 168.18 153.49 167.10 L 153.69 166.09 C 153.92 165.01 153.22 163.94 152.13 163.72 C 151.04 163.50 149.98 164.20 149.75 165.28 Z M 149.55 166.30 L 149.35 167.30 C 149.14 168.38 149.84 169.44 150.93 169.66 C 152.02 169.87 153.07 169.17 153.29 168.08 L 153.49 167.08 C 153.70 165.99 153.00 164.94 151.91 164.72 C 150.82 164.50 149.77 165.21 149.55 166.30 Z M 149.35 167.31 L 149.16 168.30 C 148.95 169.39 149.66 170.44 150.75 170.65 C 151.84 170.86 152.89 170.15 153.10 169.06 L 153.29 168.07 C 153.50 166.98 152.79 165.93 151.70 165.72 C 150.61 165.51 149.56 166.22 149.35 167.31 Z M 149.16 168.31 L 148.98 169.31 C 148.77 170.39 149.49 171.44 150.58 171.64 C 151.67 171.84 152.71 171.13 152.91 170.04 L 153.10 169.05 C 153.30 167.96 152.58 166.92 151.50 166.71 C 150.41 166.51 149.36 167.23 149.16 168.31 Z M 148.98 169.32 L 148.80 170.30 C 148.60 171.39 149.33 172.43 150.41 172.63 C 151.50 172.82 152.54 172.10 152.73 171.01 L 152.91 170.03 C 153.11 168.94 152.39 167.90 151.30 167.71 C 150.21 167.51 149.17 168.23 148.98 169.32 Z M 148.80 170.31 L 148.63 171.30 C 148.44 172.38 149.16 173.42 150.25 173.61 C 151.34 173.80 152.37 173.07 152.56 171.99 L 152.73 171.00 C 152.92 169.92 152.20 168.88 151.11 168.69 C 150.03 168.50 148.99 169.23 148.80 170.31 Z M 148.63 171.31 L 148.46 172.29 C 148.28 173.37 149.01 174.40 150.09 174.59 C 151.18 174.77 152.21 174.04 152.39 172.96 L 152.56 171.98 C 152.74 170.89 152.01 169.86 150.93 169.68 C 149.84 169.49 148.82 170.22 148.63 171.31 Z M 148.47 172.30 L 148.30 173.28 C 148.12 174.36 148.86 175.38 149.94 175.56 C 151.03 175.74 152.05 175.01 152.23 173.92 L 152.39 172.95 C 152.57 171.86 151.84 170.84 150.75 170.66 C 149.67 170.48 148.64 171.22 148.47 172.30 Z M 148.31 173.29 L 148.15 174.26 C 147.98 175.34 148.71 176.36 149.79 176.54 C 150.88 176.71 151.90 175.97 152.07 174.89 L 152.23 173.92 C 152.40 172.83 151.66 171.81 150.58 171.64 C 149.50 171.47 148.48 172.20 148.31 173.29 Z M 148.15 174.27 L 148.00 175.24 C 147.83 176.32 148.57 177.33 149.65 177.50 C 150.73 177.67 151.75 176.93 151.92 175.85 L 152.07 174.88 C 152.24 173.80 151.50 172.79 150.42 172.62 C 149.33 172.45 148.32 173.19 148.15 174.27 Z M 148.00 175.25 L 147.85 176.21 C 147.69 177.29 148.43 178.30 149.51 178.47 C 150.59 178.63 151.60 177.89 151.77 176.81 L 151.91 175.84 C 152.08 174.76 151.34 173.75 150.26 173.59 C 149.18 173.42 148.17 174.17 148.00 175.25 Z M 147.86 176.22 L 147.71 177.18 C 147.55 178.26 148.29 179.27 149.37 179.43 C 150.45 179.59 151.46 178.85 151.62 177.77 L 151.76 176.80 C 151.93 175.73 151.18 174.72 150.10 174.56 C 149.02 174.40 148.02 175.14 147.86 176.22 Z M 147.71 177.19 L 147.56 178.22 C 147.41 179.29 148.15 180.29 149.23 180.45 C 150.31 180.61 151.31 179.86 151.47 178.79 L 151.62 177.76 C 151.78 176.68 151.03 175.68 149.95 175.52 C 148.87 175.37 147.87 176.11 147.71 177.19 Z M 147.57 178.22 L 147.41 179.30 C 147.26 180.37 148.01 181.37 149.08 181.52 C 150.16 181.68 151.16 180.93 151.31 179.85 L 151.46 178.78 C 151.62 177.70 150.87 176.71 149.79 176.55 C 148.72 176.40 147.72 177.15 147.57 178.22 Z M 147.42 179.30 L 147.27 180.37 C 147.12 181.44 147.87 182.44 148.94 182.59 C 150.02 182.74 151.01 181.99 151.16 180.91 L 151.31 179.85 C 151.46 178.77 150.71 177.78 149.63 177.63 C 148.56 177.48 147.57 178.23 147.42 179.30 Z M 147.27 180.38 L 147.13 181.43 C 146.98 182.51 147.73 183.49 148.81 183.64 C 149.88 183.78 150.86 183.03 151.01 181.96 L 151.15 180.91 C 151.30 179.83 150.55 178.85 149.48 178.70 C 148.41 178.56 147.42 179.31 147.27 180.38 Z M 147.13 181.44 L 147.00 182.49 C 146.85 183.55 147.61 184.54 148.67 184.68 C 149.74 184.82 150.73 184.07 150.87 183.00 L 151.01 181.95 C 151.15 180.89 150.40 179.90 149.33 179.76 C 148.26 179.62 147.28 180.37 147.13 181.44 Z M 147.00 182.49 L 146.87 183.52 C 146.73 184.59 147.48 185.57 148.55 185.70 C 149.62 185.84 150.59 185.09 150.73 184.02 L 150.86 182.99 C 151.00 181.92 150.25 180.95 149.18 180.81 C 148.11 180.67 147.14 181.43 147.00 182.49 Z M 146.87 183.53 L 146.74 184.54 C 146.61 185.61 147.37 186.58 148.43 186.71 C 149.50 186.84 150.47 186.09 150.60 185.02 L 150.73 184.01 C 150.86 182.95 150.10 181.98 149.04 181.84 C 147.98 181.71 147.00 182.47 146.87 183.53 Z M 146.75 184.55 L 146.63 185.54 C 146.50 186.61 147.26 187.57 148.32 187.70 C 149.38 187.83 150.35 187.07 150.48 186.01 L 150.60 185.02 C 150.72 183.95 149.97 182.99 148.91 182.86 C 147.84 182.73 146.88 183.49 146.75 184.55 Z M 146.63 185.55 L 146.52 186.52 C 146.39 187.58 147.15 188.54 148.21 188.67 C 149.27 188.79 150.23 188.03 150.36 186.97 L 150.47 186.00 C 150.60 184.94 149.84 183.98 148.78 183.86 C 147.72 183.73 146.76 184.49 146.63 185.55 Z M 146.52 186.53 L 146.42 187.48 C 146.30 188.54 147.06 189.49 148.12 189.61 C 149.17 189.73 150.13 188.97 150.25 187.91 L 150.35 186.96 C 150.47 185.90 149.71 184.95 148.65 184.83 C 147.60 184.71 146.64 185.47 146.52 186.53 Z M 146.42 187.49 L 146.32 188.41 C 146.21 189.46 146.97 190.41 148.03 190.53 C 149.08 190.64 150.03 189.88 150.14 188.82 L 150.24 187.90 C 150.36 186.84 149.59 185.90 148.54 185.78 C 147.48 185.67 146.53 186.43 146.42 187.49 Z M 146.32 188.42 L 146.23 189.31 C 146.13 190.36 146.89 191.31 147.95 191.41 C 149.00 191.52 149.94 190.75 150.05 189.70 L 150.14 188.81 C 150.25 187.76 149.48 186.81 148.43 186.71 C 147.37 186.60 146.43 187.36 146.32 188.42 Z M 146.24 189.32 L 146.15 190.18 C 146.05 191.23 146.82 192.17 147.87 192.27 C 148.93 192.37 149.86 191.60 149.96 190.55 L 150.05 189.69 C 150.15 188.64 149.38 187.70 148.33 187.60 C 147.27 187.50 146.34 188.27 146.24 189.32 Z M 146.16 190.19 L 146.07 191.15 C 145.98 192.20 146.75 193.13 147.80 193.22 C 148.85 193.32 149.78 192.55 149.87 191.50 L 149.96 190.54 C 150.05 189.49 149.28 188.56 148.23 188.47 C 147.18 188.37 146.25 189.15 146.16 190.19 Z M 146.08 191.17 L 146.00 192.10 C 145.92 193.15 146.69 194.06 147.74 194.15 C 148.78 194.24 149.70 193.46 149.79 192.41 L 149.86 191.48 C 149.95 190.44 149.17 189.52 148.13 189.43 C 147.08 189.35 146.16 190.12 146.08 191.17 Z M 146.01 192.12 L 145.94 193.03 C 145.86 194.07 146.64 194.98 147.69 195.06 C 148.73 195.13 149.64 194.35 149.71 193.31 L 149.78 192.40 C 149.86 191.35 149.08 190.45 148.04 190.37 C 146.99 190.29 146.09 191.07 146.01 192.12 Z M 145.95 193.04 L 145.89 193.95 C 145.82 194.99 146.60 195.89 147.64 195.96 C 148.68 196.02 149.58 195.24 149.65 194.20 L 149.71 193.29 C 149.78 192.25 148.99 191.36 147.95 191.29 C 146.91 191.22 146.02 192.00 145.95 193.04 Z M 145.89 193.96 L 145.84 194.88 C 145.78 195.91 146.57 196.80 147.60 196.86 C 148.64 196.93 149.52 196.14 149.59 195.10 L 149.64 194.19 C 149.70 193.15 148.91 192.26 147.88 192.20 C 146.84 192.14 145.95 192.93 145.89 193.96 Z M 145.84 194.89 L 145.79 195.83 C 145.74 196.86 146.53 197.74 147.56 197.79 C 148.60 197.85 149.48 197.06 149.53 196.02 L 149.58 195.09 C 149.63 194.06 148.84 193.18 147.81 193.12 C 146.78 193.07 145.90 193.86 145.84 194.89 Z M 145.80 195.84 L 145.75 196.81 C 145.71 197.84 146.50 198.71 147.53 198.76 C 148.56 198.81 149.43 198.01 149.48 196.98 L 149.52 196.01 C 149.57 194.99 148.78 194.11 147.75 194.06 C 146.72 194.02 145.85 194.81 145.80 195.84 Z M 145.76 196.82 L 145.72 197.84 C 145.67 198.86 146.47 199.73 147.49 199.77 C 148.52 199.82 149.38 199.02 149.43 198.00 L 149.47 196.98 C 149.51 195.95 148.72 195.09 147.70 195.04 C 146.67 195.00 145.81 195.79 145.76 196.82 Z M 145.72 197.84 L 145.68 198.92 C 145.64 199.95 146.44 200.81 147.46 200.85 C 148.48 200.89 149.34 200.09 149.38 199.07 L 149.42 197.99 C 149.46 196.97 148.67 196.11 147.65 196.07 C 146.63 196.03 145.77 196.82 145.72 197.84 Z M 145.69 198.93 L 145.65 200.09 C 145.61 201.10 146.40 201.96 147.42 202.00 C 148.43 202.03 149.29 201.24 149.33 200.23 L 149.37 199.07 C 149.41 198.05 148.62 197.20 147.60 197.16 C 146.58 197.12 145.73 197.91 145.69 198.93 Z M 145.65 200.09 L 145.61 201.24 C 145.57 202.25 146.36 203.11 147.38 203.14 C 148.39 203.18 149.24 202.39 149.28 201.37 L 149.32 200.22 C 149.36 199.21 148.57 198.36 147.55 198.32 C 146.54 198.29 145.69 199.08 145.65 200.09 Z M 145.61 201.24 L 145.58 202.10 C 145.55 203.11 146.34 203.96 147.35 204.00 C 148.36 204.03 149.21 203.24 149.24 202.23 L 149.27 201.37 C 149.31 200.36 148.52 199.51 147.51 199.48 C 146.50 199.44 145.65 200.23 145.61 201.24 Z M 145.59 202.10 L 145.55 203.00 C 145.52 204.01 146.31 204.85 147.32 204.89 C 148.33 204.93 149.17 204.14 149.21 203.13 L 149.24 202.23 C 149.28 201.22 148.49 200.38 147.48 200.34 C 146.47 200.30 145.62 201.09 145.59 202.10 Z M 145.56 203.00 L 145.52 203.93 C 145.49 204.94 146.28 205.78 147.29 205.82 C 148.29 205.85 149.14 205.06 149.17 204.06 L 149.21 203.13 C 149.24 202.12 148.45 201.27 147.45 201.24 C 146.44 201.20 145.59 201.99 145.56 203.00 Z M 145.53 203.93 L 145.49 204.89 C 145.46 205.90 146.25 206.74 147.25 206.77 C 148.26 206.81 149.10 206.02 149.14 205.01 L 149.17 204.05 C 149.21 203.05 148.42 202.20 147.41 202.17 C 146.41 202.14 145.56 202.92 145.53 203.93 Z M 145.50 204.89 L 145.46 205.87 C 145.43 206.88 146.22 207.72 147.22 207.76 C 148.23 207.79 149.07 207.00 149.10 206.00 L 149.14 205.01 C 149.17 204.01 148.38 203.17 147.38 203.13 C 146.37 203.10 145.53 203.89 145.50 204.89 Z M 145.47 205.88 L 145.43 206.88 C 145.40 207.89 146.19 208.73 147.19 208.76 C 148.19 208.79 149.03 208.01 149.07 207.00 L 149.10 206.00 C 149.13 204.99 148.35 204.15 147.34 204.12 C 146.34 204.09 145.50 204.87 145.47 205.88 Z M 145.44 206.88 L 145.40 207.91 C 145.37 208.91 146.16 209.75 147.16 209.78 C 148.16 209.81 149.00 209.03 149.03 208.03 L 149.06 207.00 C 149.10 206.00 148.31 205.16 147.31 205.13 C 146.31 205.10 145.47 205.88 145.44 206.88 Z M 145.40 207.91 L 145.37 208.95 C 145.34 209.95 146.13 210.79 147.13 210.82 C 148.13 210.85 148.96 210.06 149.00 209.06 L 149.03 208.02 C 149.06 207.02 148.27 206.19 147.27 206.16 C 146.27 206.12 145.44 206.91 145.40 207.91 Z M 145.37 208.95 L 145.34 210.00 C 145.31 211.00 146.10 211.83 147.10 211.86 C 148.10 211.89 148.93 211.11 148.96 210.11 L 148.99 209.06 C 149.02 208.06 148.24 207.23 147.24 207.20 C 146.24 207.17 145.40 207.95 145.37 208.95 Z M 145.34 210.00 L 145.31 211.05 C 145.28 212.05 146.07 212.89 147.07 212.91 C 148.06 212.94 148.90 212.16 148.93 211.16 L 148.96 210.11 C 148.99 209.11 148.20 208.28 147.21 208.25 C 146.21 208.22 145.37 209.00 145.34 210.00 Z M 145.32 211.06 L 145.29 212.11 C 145.26 213.11 146.04 213.94 147.04 213.97 C 148.03 214.00 148.87 213.21 148.89 212.22 L 148.92 211.16 C 148.95 210.16 148.17 209.33 147.17 209.30 C 146.18 209.28 145.34 210.06 145.32 211.06 Z M 145.29 212.11 L 145.26 213.17 C 145.23 214.16 146.02 214.99 147.01 215.02 C 148.01 215.05 148.83 214.26 148.86 213.27 L 148.89 212.21 C 148.92 211.22 148.13 210.39 147.14 210.36 C 146.14 210.34 145.32 211.12 145.29 212.11 Z M 145.26 213.17 L 145.23 214.22 C 145.21 215.21 145.99 216.04 146.99 216.07 C 147.98 216.09 148.81 215.31 148.83 214.31 L 148.86 213.27 C 148.89 212.27 148.10 211.45 147.11 211.42 C 146.11 211.39 145.29 212.18 145.26 213.17 Z M 145.24 214.22 L 145.21 215.26 C 145.19 216.25 145.97 217.08 146.96 217.10 C 147.95 217.13 148.78 216.34 148.80 215.35 L 148.83 214.31 C 148.85 213.32 148.07 212.50 147.08 212.47 C 146.09 212.45 145.26 213.23 145.24 214.22 Z M 145.21 215.26 L 145.19 216.29 C 145.17 217.28 145.95 218.10 146.94 218.12 C 147.93 218.15 148.75 217.36 148.78 216.37 L 148.80 215.35 C 148.82 214.36 148.04 213.53 147.05 213.51 C 146.06 213.49 145.24 214.27 145.21 215.26 Z M 145.19 216.29 L 145.17 217.30 C 145.15 218.29 145.93 219.11 146.92 219.13 C 147.91 219.15 148.73 218.37 148.75 217.38 L 148.77 216.37 C 148.80 215.38 148.01 214.56 147.02 214.54 C 146.03 214.52 145.21 215.30 145.19 216.29 Z M 145.17 217.30 L 145.15 218.44 C 145.13 219.43 145.92 220.25 146.90 220.27 C 147.89 220.29 148.71 219.50 148.73 218.51 L 148.75 217.37 C 148.77 216.39 147.98 215.57 147.00 215.55 C 146.01 215.53 145.19 216.32 145.17 217.30 Z M 145.16 218.45 L 145.14 219.63 C 145.12 220.62 145.90 221.43 146.89 221.44 C 147.87 221.46 148.68 220.68 148.70 219.70 L 148.72 218.51 C 148.73 217.53 147.95 216.72 146.97 216.70 C 145.99 216.68 145.18 217.47 145.16 218.45 Z M 145.15 219.64 L 145.13 220.79 C 145.12 221.77 145.90 222.57 146.87 222.58 C 147.85 222.60 148.65 221.82 148.67 220.84 L 148.69 219.69 C 148.70 218.72 147.92 217.91 146.94 217.90 C 145.97 217.88 145.16 218.66 145.15 219.64 Z M 145.14 220.79 L 145.13 221.91 C 145.11 222.88 145.89 223.68 146.86 223.69 C 147.83 223.70 148.63 222.93 148.64 221.96 L 148.66 220.84 C 148.67 219.87 147.89 219.07 146.92 219.06 C 145.95 219.04 145.15 219.82 145.14 220.79 Z M 145.14 221.91 L 145.12 222.99 C 145.11 223.96 145.89 224.75 146.85 224.76 C 147.82 224.78 148.61 224.00 148.62 223.04 L 148.63 221.95 C 148.64 220.99 147.87 220.20 146.91 220.18 C 145.94 220.17 145.15 220.95 145.14 221.91 Z M 145.13 223.00 L 145.12 224.05 C 145.11 225.01 145.88 225.79 146.84 225.80 C 147.80 225.81 148.59 225.04 148.60 224.08 L 148.61 223.03 C 148.62 222.07 147.85 221.29 146.89 221.28 C 145.93 221.27 145.14 222.04 145.13 223.00 Z M 145.13 224.05 L 145.12 225.06 C 145.11 226.02 145.88 226.80 146.83 226.81 C 147.79 226.82 148.57 226.05 148.58 225.10 L 148.59 224.08 C 148.60 223.13 147.83 222.34 146.88 222.34 C 145.92 222.33 145.14 223.09 145.13 224.05 Z M 145.13 225.06 L 145.12 226.04 C 145.11 226.99 145.88 227.77 146.83 227.78 C 147.78 227.79 148.55 227.02 148.56 226.08 L 148.57 225.09 C 148.58 224.15 147.82 223.37 146.87 223.36 C 145.92 223.35 145.14 224.11 145.13 225.06 Z M 145.13 226.05 L 145.13 226.99 C 145.12 227.94 145.87 228.71 146.82 228.72 C 147.76 228.73 148.53 227.97 148.54 227.02 L 148.55 226.08 C 148.56 225.13 147.80 224.36 146.86 224.35 C 145.91 224.34 145.14 225.10 145.13 226.05 Z M 145.13 226.99 L 145.13 227.91 C 145.12 228.85 145.87 229.61 146.81 229.62 C 147.75 229.63 148.52 228.88 148.52 227.94 L 148.53 227.02 C 148.54 226.09 147.79 225.32 146.85 225.31 C 145.91 225.30 145.14 226.05 145.13 226.99 Z M 145.14 227.91 L 145.13 228.79 C 145.12 229.72 145.87 230.49 146.80 230.49 C 147.73 230.50 148.50 229.76 148.51 228.82 L 148.51 227.94 C 148.52 227.01 147.77 226.24 146.84 226.23 C 145.91 226.23 145.15 226.97 145.14 227.91 Z M 145.14 228.79 L 145.13 229.64 C 145.12 230.57 145.86 231.32 146.79 231.34 C 147.72 231.35 148.48 230.60 148.49 229.67 L 148.50 228.82 C 148.51 227.90 147.76 227.14 146.84 227.13 C 145.91 227.12 145.15 227.86 145.14 228.79 Z M 145.14 229.63 L 145.13 230.45 C 145.12 231.37 145.85 232.13 146.78 232.14 C 147.70 232.16 148.45 231.42 148.47 230.50 L 148.48 229.68 C 148.49 228.76 147.75 228.00 146.83 227.99 C 145.91 227.98 145.15 228.71 145.14 229.63 Z M 145.14 230.45 L 145.12 231.32 C 145.11 232.24 145.84 232.99 146.76 233.00 C 147.67 233.02 148.43 232.29 148.44 231.37 L 148.46 230.50 C 148.47 229.58 147.74 228.83 146.82 228.82 C 145.91 228.80 145.15 229.53 145.14 230.45 Z M 145.13 231.31 L 145.11 232.32 C 145.10 233.23 145.82 233.98 146.73 234.00 C 147.64 234.02 148.40 233.29 148.41 232.38 L 148.43 231.38 C 148.45 230.47 147.73 229.71 146.81 229.70 C 145.90 229.68 145.15 230.40 145.13 231.31 Z M 145.12 232.31 L 145.10 233.28 C 145.08 234.18 145.80 234.94 146.71 234.96 C 147.61 234.98 148.36 234.26 148.39 233.35 L 148.41 232.38 C 148.43 231.48 147.71 230.73 146.80 230.71 C 145.89 230.69 145.14 231.40 145.12 232.31 Z M 145.11 233.27 L 145.08 234.22 C 145.06 235.12 145.78 235.87 146.68 235.89 C 147.58 235.91 148.33 235.20 148.35 234.30 L 148.38 233.35 C 148.40 232.45 147.69 231.70 146.78 231.68 C 145.88 231.66 145.13 232.37 145.11 233.27 Z M 145.09 234.21 L 145.07 235.15 C 145.04 236.04 145.75 236.79 146.65 236.82 C 147.55 236.84 148.30 236.13 148.32 235.23 L 148.35 234.30 C 148.37 233.40 147.66 232.65 146.76 232.63 C 145.86 232.61 145.12 233.31 145.09 234.21 Z M 145.08 235.15 L 145.05 236.08 C 145.03 236.98 145.73 237.72 146.63 237.75 C 147.52 237.77 148.27 237.06 148.29 236.17 L 148.31 235.23 C 148.34 234.34 147.63 233.59 146.74 233.57 C 145.84 233.55 145.10 234.25 145.08 235.15 Z M 145.06 236.09 L 145.03 237.04 C 145.01 237.93 145.71 238.67 146.60 238.70 C 147.49 238.72 148.23 238.02 148.26 237.13 L 148.28 236.17 C 148.30 235.28 147.60 234.54 146.71 234.52 C 145.82 234.49 145.08 235.20 145.06 236.09 Z M 145.04 237.05 L 145.02 238.04 C 145.00 238.93 145.70 239.66 146.58 239.68 C 147.47 239.70 148.20 239.00 148.23 238.12 L 148.25 237.12 C 148.27 236.24 147.57 235.50 146.68 235.48 C 145.80 235.46 145.06 236.16 145.04 237.05 Z M 145.03 238.04 L 145.00 239.09 C 144.98 239.97 145.68 240.70 146.57 240.72 C 147.45 240.73 148.18 240.03 148.20 239.15 L 148.22 238.11 C 148.24 237.23 147.54 236.50 146.66 236.48 C 145.77 236.46 145.04 237.16 145.03 238.04 Z M 145.01 239.09 L 144.99 240.19 C 144.98 241.07 145.67 241.80 146.55 241.81 C 147.43 241.83 148.15 241.13 148.17 240.25 L 148.19 239.15 C 148.20 238.27 147.51 237.55 146.63 237.53 C 145.75 237.51 145.03 238.21 145.01 239.09 Z M 145.00 240.20 L 144.98 241.24 C 144.97 242.12 145.67 242.84 146.54 242.85 C 147.41 242.86 148.13 242.16 148.15 241.29 L 148.16 240.25 C 148.17 239.37 147.48 238.65 146.60 238.64 C 145.73 238.63 145.01 239.33 145.00 240.20 Z M 144.99 241.25 L 144.98 242.09 C 144.97 242.96 145.66 243.67 146.54 243.68 C 147.41 243.69 148.12 243.00 148.13 242.12 L 148.14 241.29 C 148.15 240.41 147.46 239.70 146.58 239.69 C 145.71 239.68 145.00 240.38 144.99 241.25 Z M 144.98 242.09 L 144.97 242.96 C 144.96 243.83 145.66 244.55 146.53 244.56 C 147.40 244.57 148.11 243.87 148.12 242.99 L 148.13 242.12 C 148.14 241.25 147.44 240.54 146.57 240.53 C 145.70 240.52 144.99 241.22 144.98 242.09 Z M 144.97 242.97 L 144.96 243.87 C 144.95 244.74 145.66 245.46 146.53 245.46 C 147.40 245.47 148.11 244.77 148.12 243.90 L 148.12 242.99 C 148.13 242.12 147.43 241.41 146.56 241.40 C 145.69 241.40 144.98 242.10 144.97 242.97 Z M 144.96 243.88 L 144.96 244.81 C 144.95 245.68 145.65 246.39 146.52 246.40 C 147.39 246.40 148.10 245.70 148.11 244.83 L 148.11 243.90 C 148.12 243.03 147.42 242.32 146.55 242.31 C 145.68 242.30 144.97 243.01 144.96 243.88 Z M 144.96 244.82 L 144.95 245.78 C 144.95 246.65 145.65 247.36 146.52 247.36 C 147.39 247.37 148.10 246.67 148.10 245.80 L 148.11 244.83 C 148.11 243.96 147.41 243.25 146.54 243.25 C 145.67 243.24 144.96 243.95 144.96 244.82 Z M 144.95 245.78 L 144.95 246.77 C 144.95 247.64 145.65 248.35 146.52 248.35 C 147.39 248.36 148.09 247.65 148.10 246.79 L 148.10 245.80 C 148.10 244.93 147.40 244.22 146.53 244.22 C 145.67 244.21 144.96 244.91 144.95 245.78 Z M 144.95 246.77 L 144.95 247.79 C 144.95 248.66 145.65 249.36 146.51 249.36 C 147.38 249.37 148.09 248.67 148.09 247.80 L 148.10 246.78 C 148.10 245.92 147.40 245.21 146.53 245.21 C 145.66 245.21 144.95 245.91 144.95 246.77 Z M 144.95 247.79 L 144.95 248.82 C 144.94 249.69 145.65 250.39 146.51 250.40 C 147.38 250.40 148.09 249.70 148.09 248.83 L 148.09 247.80 C 148.09 246.93 147.39 246.22 146.52 246.22 C 145.66 246.22 144.95 246.92 144.95 247.79 Z M 144.95 248.82 L 144.95 249.87 C 144.94 250.74 145.65 251.44 146.51 251.45 C 147.38 251.45 148.08 250.75 148.09 249.88 L 148.09 248.83 C 148.09 247.96 147.39 247.26 146.52 247.26 C 145.65 247.25 144.95 247.96 144.95 248.82 Z M 144.95 249.87 L 144.95 250.94 C 144.95 251.80 145.65 252.51 146.51 252.51 C 147.38 252.51 148.08 251.81 148.08 250.94 L 148.08 249.88 C 148.08 249.01 147.38 248.31 146.52 248.31 C 145.65 248.31 144.95 249.01 144.95 249.87 Z M 144.95 250.94 L 144.95 252.02 C 144.95 252.88 145.65 253.58 146.51 253.58 C 147.38 253.58 148.08 252.88 148.08 252.02 L 148.08 250.94 C 148.08 250.08 147.38 249.37 146.52 249.37 C 145.65 249.37 144.95 250.07 144.95 250.94 Z M 144.95 252.02 L 144.95 253.10 C 144.95 253.97 145.65 254.67 146.51 254.67 C 147.38 254.67 148.08 253.97 148.08 253.10 L 148.08 252.02 C 148.08 251.15 147.38 250.45 146.51 250.45 C 145.65 250.45 144.95 251.15 144.95 252.02 Z M 144.95 253.10 L 144.95 254.19 C 144.95 255.06 145.65 255.76 146.51 255.76 C 147.38 255.76 148.08 255.06 148.08 254.19 L 148.08 253.10 C 148.08 252.24 147.38 251.54 146.51 251.54 C 145.65 251.54 144.95 252.24 144.95 253.10 Z M 144.95 254.19 L 144.95 255.29 C 144.95 256.15 145.65 256.85 146.51 256.85 C 147.38 256.85 148.08 256.15 148.08 255.29 L 148.08 254.19 C 148.08 253.33 147.38 252.63 146.51 252.63 C 145.65 252.63 144.95 253.33 144.95 254.19 Z M 144.95 255.29 L 144.95 255.76 C 144.95 256.62 145.65 257.32 146.51 257.32 C 147.38 257.32 148.08 256.62 148.08 255.76 L 148.08 255.29 C 148.08 254.43 147.38 253.73 146.51 253.73 C 145.65 253.73 144.95 254.43 144.95 255.29 Z"
      fill="black"
      fill-rule="nonzero" /></svg>