<svg xmlns="http://www.w3.org/2000/svg" width="300" height="300" viewBox="0 0 300 300">
<path d="M 116.91 89.22 L 115.83 88.63 C 115.00 88.17 113.96 88.48 113.51 89.31 C 113.05 90.13 113.35 91.18 114.18 91.63 L 115.26 92.22 C 116.09 92.68 117.13 92.38 117.59 91.55 C 118.04 90.72 117.74 89.68 116.91 89.22 Z M 115.83 88.59 L 114.77 88.02 C 113.92 87.56 112.86 87.88 112.40 88.73 C 111.94 89.58 112.26 90.64 113.11 91.10 L 114.18 91.67 C 115.03 92.13 116.09 91.81 116.55 90.96 C 117.00 90.11 116.68 89.05 115.83 88.59 Z M 114.75 87.97 L 113.71 87.44 C 112.83 86.99 111.76 87.34 111.31 88.21 C 110.86 89.09 111.21 90.17 112.09 90.61 L 113.13 91.15 C 114.00 91.59 115.08 91.25 115.53 90.37 C 115.98 89.49 115.63 88.42 114.75 87.97 Z M 113.67 87.38 L 112.67 86.91 C 111.76 86.48 110.67 86.87 110.25 87.78 C 109.82 88.69 110.21 89.77 111.12 90.20 L 112.12 90.67 C 113.03 91.10 114.12 90.71 114.55 89.80 C 114.97 88.89 114.58 87.80 113.67 87.38 Z M 112.60 86.84 L 111.65 86.45 C 110.70 86.06 109.61 86.51 109.23 87.46 C 108.84 88.41 109.29 89.49 110.24 89.88 L 111.19 90.27 C 112.14 90.66 113.22 90.21 113.61 89.26 C 114.00 88.31 113.55 87.22 112.60 86.84 Z M 111.53 86.36 L 110.64 86.08 C 109.64 85.76 108.58 86.30 108.26 87.29 C 107.93 88.29 108.48 89.36 109.47 89.68 L 110.36 89.97 C 111.35 90.29 112.42 89.74 112.74 88.75 C 113.07 87.75 112.52 86.69 111.53 86.36 Z M 110.44 85.99 L 109.63 85.82 C 108.59 85.61 107.57 86.28 107.36 87.33 C 107.14 88.37 107.82 89.39 108.86 89.60 L 109.67 89.77 C 110.72 89.98 111.73 89.31 111.95 88.26 C 112.16 87.22 111.48 86.20 110.44 85.99 Z M 109.30 85.75 L 108.58 85.73 C 107.50 85.69 106.59 86.55 106.56 87.63 C 106.53 88.72 107.38 89.62 108.46 89.65 L 109.19 89.68 C 110.27 89.71 111.18 88.86 111.21 87.77 C 111.24 86.69 110.39 85.78 109.30 85.75 Z M 108.07 85.74 L 107.44 85.89 C 106.36 86.14 105.70 87.22 105.95 88.29 C 106.20 89.37 107.27 90.03 108.35 89.78 L 108.98 89.64 C 110.05 89.39 110.72 88.31 110.47 87.24 C 110.22 86.16 109.15 85.49 108.07 85.74 Z M 106.77 86.16 L 106.18 86.56 C 105.26 87.18 105.01 88.43 105.63 89.35 C 106.26 90.28 107.51 90.52 108.43 89.90 L 109.02 89.51 C 109.94 88.89 110.19 87.64 109.57 86.71 C 108.94 85.79 107.69 85.54 106.77 86.16 Z M 105.68 87.03 L 105.24 87.64 C 104.57 88.54 104.76 89.80 105.66 90.46 C 106.56 91.12 107.82 90.93 108.48 90.04 L 108.93 89.43 C 109.59 88.53 109.40 87.27 108.51 86.61 C 107.61 85.95 106.35 86.14 105.68 87.03 Z M 105.00 88.06 L 104.66 88.85 C 104.23 89.88 104.71 91.06 105.74 91.50 C 106.77 91.93 107.95 91.44 108.39 90.42 L 108.72 89.62 C 109.15 88.59 108.67 87.41 107.64 86.98 C 106.61 86.55 105.43 87.03 105.00 88.06 Z M 104.56 89.15 L 104.33 90.10 C 104.06 91.18 104.71 92.28 105.80 92.55 C 106.88 92.82 107.98 92.16 108.25 91.07 L 108.49 90.12 C 108.76 89.04 108.10 87.94 107.01 87.67 C 105.93 87.40 104.83 88.06 104.56 89.15 Z M 104.29 90.29 L 104.13 91.36 C 103.96 92.47 104.72 93.50 105.83 93.66 C 106.94 93.83 107.96 93.06 108.13 91.96 L 108.29 90.88 C 108.45 89.78 107.69 88.75 106.58 88.58 C 105.48 88.42 104.45 89.18 104.29 90.29 Z M 104.11 91.49 L 104.01 92.66 C 103.91 93.77 104.74 94.76 105.85 94.85 C 106.96 94.95 107.95 94.12 108.04 93.01 L 108.15 91.84 C 108.24 90.72 107.42 89.74 106.30 89.64 C 105.19 89.55 104.21 90.37 104.11 91.49 Z M 104.00 92.73 L 103.94 93.97 C 103.88 95.09 104.74 96.04 105.86 96.10 C 106.98 96.15 107.93 95.29 107.99 94.18 L 108.05 92.94 C 108.11 91.82 107.25 90.87 106.13 90.81 C 105.01 90.75 104.06 91.61 104.00 92.73 Z M 103.93 94.00 L 103.90 95.05 C 103.86 96.17 104.74 97.11 105.86 97.15 C 106.98 97.19 107.92 96.31 107.95 95.19 L 107.99 94.14 C 108.03 93.02 107.15 92.08 106.03 92.04 C 104.91 92.01 103.97 92.88 103.93 94.00 Z M 103.90 95.07 L 103.87 95.98 C 103.84 97.10 104.73 98.04 105.85 98.07 C 106.97 98.10 107.90 97.21 107.93 96.09 L 107.95 95.18 C 107.98 94.06 107.10 93.12 105.98 93.09 C 104.86 93.06 103.93 93.95 103.90 95.07 Z M 103.87 96.00 L 103.86 96.93 C 103.83 98.05 104.73 98.98 105.85 99.00 C 106.97 99.02 107.89 98.13 107.91 97.01 L 107.93 96.08 C 107.95 94.96 107.06 94.03 105.94 94.01 C 104.82 93.99 103.89 94.88 103.87 96.00 Z M 103.86 96.95 L 103.84 97.89 C 103.83 99.01 104.73 99.93 105.85 99.94 C 106.97 99.96 107.89 99.06 107.90 97.94 L 107.91 96.99 C 107.93 95.87 107.03 94.95 105.91 94.94 C 104.79 94.93 103.87 95.83 103.86 96.95 Z M 103.84 97.91 L 103.84 98.87 C 103.84 100.00 104.75 100.91 105.87 100.91 C 106.99 100.91 107.90 100.01 107.90 98.89 L 107.90 97.92 C 107.91 96.80 107.00 95.89 105.88 95.89 C 104.76 95.88 103.85 96.79 103.84 97.91 Z M 103.84 98.89 L 103.85 99.88 C 103.85 101.00 104.77 101.90 105.89 101.89 C 107.01 101.89 107.91 100.97 107.91 99.85 L 107.90 98.87 C 107.89 97.75 106.98 96.84 105.86 96.85 C 104.74 96.86 103.84 97.77 103.84 98.89 Z M 103.85 99.90 L 103.86 100.90 C 103.88 102.02 104.80 102.92 105.92 102.90 C 107.04 102.89 107.94 101.96 107.92 100.84 L 107.91 99.84 C 107.89 98.72 106.97 97.82 105.85 97.84 C 104.73 97.85 103.83 98.77 103.85 99.90 Z M 103.86 100.92 L 103.89 101.95 C 103.91 103.07 104.84 103.96 105.96 103.93 C 107.08 103.91 107.97 102.98 107.94 101.86 L 107.92 100.83 C 107.89 99.71 106.96 98.82 105.84 98.84 C 104.72 98.87 103.84 99.80 103.86 100.92 Z M 103.89 101.97 L 103.92 103.03 C 103.96 104.15 104.90 105.03 106.02 104.99 C 107.14 104.96 108.01 104.02 107.98 102.90 L 107.94 101.84 C 107.91 100.72 106.97 99.84 105.85 99.88 C 104.73 99.91 103.85 100.85 103.89 101.97 Z M 103.92 103.05 L 103.97 104.14 C 104.01 105.26 104.96 106.13 106.08 106.08 C 107.20 106.03 108.07 105.09 108.02 103.97 L 107.98 102.88 C 107.93 101.76 106.99 100.89 105.87 100.94 C 104.75 100.98 103.88 101.93 103.92 103.05 Z M 103.97 104.15 L 104.02 105.27 C 104.08 106.39 105.03 107.25 106.15 107.20 C 107.27 107.14 108.13 106.19 108.08 105.07 L 108.02 103.95 C 107.97 102.83 107.01 101.97 105.89 102.03 C 104.77 102.08 103.91 103.03 103.97 104.15 Z M 104.03 105.29 L 104.08 106.20 C 104.14 107.32 105.10 108.17 106.22 108.11 C 107.34 108.04 108.19 107.08 108.13 105.96 L 108.08 105.05 C 108.01 103.93 107.05 103.08 105.93 103.14 C 104.82 103.21 103.96 104.17 104.03 105.29 Z M 104.08 106.21 L 104.14 107.13 C 104.21 108.25 105.17 109.09 106.29 109.02 C 107.41 108.95 108.26 107.99 108.19 106.87 L 108.13 105.95 C 108.06 104.83 107.09 103.98 105.97 104.06 C 104.86 104.13 104.01 105.09 104.08 106.21 Z M 104.14 107.14 L 104.20 108.08 C 104.28 109.19 105.25 110.04 106.37 109.96 C 107.49 109.88 108.33 108.91 108.25 107.80 L 108.19 106.86 C 108.11 105.74 107.14 104.90 106.02 104.97 C 104.90 105.05 104.06 106.02 104.14 107.14 Z M 104.20 108.08 L 104.28 109.04 C 104.36 110.16 105.33 110.99 106.45 110.91 C 107.56 110.83 108.40 109.86 108.32 108.74 L 108.25 107.79 C 108.17 106.67 107.19 105.83 106.08 105.91 C 104.96 106.00 104.12 106.97 104.20 108.08 Z M 104.28 109.05 L 104.35 110.02 C 104.44 111.13 105.41 111.97 106.53 111.88 C 107.65 111.79 108.48 110.82 108.40 109.70 L 108.32 108.73 C 108.23 107.61 107.26 106.78 106.14 106.87 C 105.02 106.95 104.19 107.93 104.28 109.05 Z M 104.35 110.02 L 104.43 111.01 C 104.52 112.12 105.50 112.96 106.62 112.86 C 107.73 112.77 108.57 111.80 108.47 110.68 L 108.39 109.69 C 108.30 108.58 107.32 107.75 106.21 107.84 C 105.09 107.93 104.26 108.91 104.35 110.02 Z M 104.43 111.01 L 104.52 112.01 C 104.61 113.13 105.59 113.96 106.71 113.86 C 107.82 113.77 108.65 112.79 108.56 111.67 L 108.47 110.67 C 108.38 109.56 107.40 108.73 106.28 108.82 C 105.17 108.92 104.34 109.90 104.43 111.01 Z M 104.52 112.02 L 104.61 113.03 C 104.70 114.15 105.69 114.97 106.80 114.87 C 107.92 114.78 108.74 113.80 108.64 112.68 L 108.56 111.67 C 108.46 110.55 107.48 109.73 106.36 109.82 C 105.25 109.92 104.42 110.90 104.52 112.02 Z M 104.61 113.03 L 104.70 114.06 C 104.80 115.17 105.78 116.00 106.89 115.90 C 108.01 115.80 108.83 114.82 108.73 113.70 L 108.64 112.68 C 108.55 111.56 107.56 110.74 106.45 110.84 C 105.33 110.94 104.51 111.92 104.61 113.03 Z M 104.70 114.06 L 104.79 115.10 C 104.89 116.21 105.88 117.04 106.99 116.94 C 108.11 116.83 108.93 115.85 108.83 114.74 L 108.73 113.70 C 108.63 112.59 107.65 111.76 106.53 111.86 C 105.42 111.96 104.60 112.95 104.70 114.06 Z M 104.79 115.10 L 104.89 116.15 C 104.99 117.26 105.97 118.08 107.09 117.98 C 108.20 117.88 109.02 116.90 108.92 115.78 L 108.83 114.73 C 108.73 113.62 107.74 112.80 106.63 112.90 C 105.51 113.00 104.69 113.99 104.79 115.10 Z M 104.89 116.15 L 104.98 117.21 C 105.09 118.32 106.07 119.14 107.19 119.04 C 108.30 118.94 109.12 117.95 109.02 116.84 L 108.92 115.78 C 108.82 114.67 107.83 113.85 106.72 113.95 C 105.61 114.05 104.79 115.03 104.89 116.15 Z M 104.98 117.21 L 105.08 118.27 C 105.18 119.38 106.17 120.20 107.28 120.10 C 108.40 120.00 109.22 119.02 109.11 117.90 L 109.02 116.84 C 108.92 115.72 107.93 114.90 106.82 115.00 C 105.70 115.11 104.88 116.09 104.98 117.21 Z M 105.08 118.27 L 105.18 119.33 C 105.28 120.44 106.26 121.26 107.38 121.16 C 108.49 121.06 109.31 120.08 109.21 118.96 L 109.11 117.90 C 109.01 116.79 108.03 115.97 106.91 116.07 C 105.80 116.17 104.98 117.16 105.08 118.27 Z M 105.18 119.33 L 105.27 120.38 C 105.37 121.49 106.36 122.31 107.47 122.21 C 108.58 122.11 109.41 121.13 109.30 120.01 L 109.21 118.97 C 109.11 117.85 108.13 117.03 107.01 117.13 C 105.90 117.23 105.08 118.22 105.18 119.33 Z M 105.28 120.38 L 105.37 121.43 C 105.47 122.54 106.45 123.36 107.56 123.26 C 108.68 123.16 109.50 122.18 109.40 121.07 L 109.30 120.01 C 109.20 118.90 108.22 118.08 107.11 118.18 C 106.00 118.28 105.18 119.26 105.28 120.38 Z M 105.37 121.43 L 105.46 122.48 C 105.56 123.59 106.55 124.41 107.66 124.31 C 108.77 124.21 109.59 123.23 109.49 122.12 L 109.40 121.07 C 109.30 119.96 108.32 119.13 107.20 119.23 C 106.09 119.33 105.27 120.31 105.37 121.43 Z M 105.47 122.48 L 105.56 123.52 C 105.66 124.64 106.64 125.46 107.75 125.36 C 108.86 125.26 109.68 124.28 109.58 123.17 L 109.49 122.12 C 109.39 121.01 108.41 120.19 107.30 120.29 C 106.19 120.38 105.37 121.37 105.47 122.48 Z M 105.56 123.52 L 105.65 124.56 C 105.75 125.68 106.73 126.50 107.84 126.40 C 108.95 126.30 109.77 125.32 109.67 124.21 L 109.58 123.17 C 109.48 122.06 108.50 121.24 107.39 121.33 C 106.28 121.43 105.46 122.41 105.56 123.52 Z M 105.65 124.56 L 105.74 125.60 C 105.84 126.71 106.82 127.53 107.93 127.43 C 109.04 127.33 109.86 126.35 109.76 125.24 L 109.67 124.21 C 109.58 123.10 108.60 122.28 107.49 122.38 C 106.38 122.47 105.55 123.45 105.65 124.56 Z M 105.74 125.60 L 105.83 126.62 C 105.93 127.73 106.91 128.55 108.02 128.45 C 109.13 128.35 109.95 127.38 109.85 126.27 L 109.76 125.24 C 109.67 124.14 108.69 123.31 107.58 123.41 C 106.47 123.51 105.65 124.49 105.74 125.60 Z M 105.83 126.62 L 105.92 127.62 C 106.02 128.73 106.99 129.55 108.10 129.46 C 109.21 129.36 110.03 128.38 109.94 127.27 L 109.85 126.27 C 109.75 125.16 108.78 124.34 107.67 124.43 C 106.56 124.53 105.74 125.51 105.83 126.62 Z M 105.92 127.62 L 106.01 128.61 C 106.10 129.72 107.08 130.54 108.19 130.44 C 109.30 130.35 110.12 129.37 110.02 128.26 L 109.94 127.27 C 109.84 126.17 108.87 125.34 107.76 125.44 C 106.65 125.53 105.83 126.51 105.92 127.62 Z M 106.01 128.61 L 106.09 129.57 C 106.19 130.68 107.16 131.50 108.27 131.41 C 109.38 131.31 110.20 130.34 110.10 129.23 L 110.02 128.26 C 109.93 127.15 108.95 126.33 107.84 126.43 C 106.73 126.52 105.91 127.50 106.01 128.61 Z M 106.09 129.57 L 106.17 130.52 C 106.27 131.62 107.24 132.45 108.35 132.35 C 109.46 132.26 110.28 131.28 110.18 130.18 L 110.10 129.23 C 110.01 128.12 109.03 127.30 107.93 127.40 C 106.82 127.49 106.00 128.47 106.09 129.57 Z M 106.17 130.52 L 106.25 131.43 C 106.34 132.54 107.32 133.36 108.43 133.27 C 109.53 133.17 110.35 132.20 110.26 131.09 L 110.18 130.18 C 110.09 129.07 109.12 128.25 108.01 128.34 C 106.90 128.43 106.08 129.41 106.17 130.52 Z M 106.25 131.43 L 106.33 132.32 C 106.42 133.43 107.39 134.25 108.50 134.15 C 109.60 134.06 110.43 133.09 110.33 131.98 L 110.26 131.09 C 110.17 129.99 109.19 129.17 108.09 129.26 C 106.98 129.35 106.16 130.32 106.25 131.43 Z M 106.33 132.32 L 106.41 133.34 C 106.50 134.44 107.48 135.26 108.58 135.17 C 109.69 135.08 110.51 134.11 110.42 133.00 L 110.33 131.98 C 110.24 130.88 109.27 130.06 108.16 130.15 C 107.06 130.24 106.24 131.21 106.33 132.32 Z M 106.41 133.33 L 106.51 134.49 C 106.60 135.59 107.57 136.41 108.67 136.32 C 109.78 136.23 110.60 135.26 110.51 134.16 L 110.42 133.00 C 110.32 131.90 109.36 131.08 108.25 131.17 C 107.15 131.26 106.32 132.23 106.41 133.33 Z M 106.51 134.48 L 106.60 135.58 C 106.69 136.68 107.66 137.51 108.76 137.42 C 109.86 137.33 110.69 136.36 110.60 135.26 L 110.51 134.16 C 110.42 133.06 109.45 132.24 108.35 132.33 C 107.24 132.41 106.42 133.38 106.51 134.48 Z M 106.60 135.58 L 106.68 136.62 C 106.77 137.72 107.74 138.55 108.84 138.46 C 109.94 138.37 110.76 137.41 110.68 136.31 L 110.59 135.26 C 110.51 134.16 109.54 133.34 108.44 133.42 C 107.34 133.51 106.52 134.47 106.60 135.58 Z M 106.69 136.62 L 106.76 137.62 C 106.85 138.72 107.81 139.54 108.91 139.46 C 110.01 139.38 110.84 138.41 110.75 137.31 L 110.67 136.31 C 110.59 135.21 109.63 134.39 108.53 134.47 C 107.43 134.56 106.60 135.52 106.69 136.62 Z M 106.77 137.61 L 106.84 138.58 C 106.92 139.68 107.88 140.51 108.98 140.42 C 110.08 140.34 110.90 139.39 110.82 138.28 L 110.75 137.32 C 110.67 136.22 109.71 135.39 108.61 135.47 C 107.51 135.56 106.68 136.51 106.77 137.61 Z M 106.84 138.57 L 106.91 139.51 C 106.98 140.61 107.94 141.44 109.04 141.36 C 110.14 141.28 110.96 140.33 110.89 139.23 L 110.82 138.29 C 110.74 137.19 109.79 136.36 108.69 136.44 C 107.59 136.52 106.76 137.47 106.84 138.57 Z M 106.91 139.50 L 106.97 140.42 C 107.04 141.52 107.99 142.35 109.09 142.27 C 110.19 142.20 111.02 141.25 110.95 140.15 L 110.88 139.24 C 110.81 138.14 109.86 137.31 108.76 137.38 C 107.66 137.46 106.83 138.41 106.91 139.50 Z M 106.97 140.41 L 107.03 141.31 C 107.10 142.41 108.05 143.24 109.14 143.17 C 110.24 143.10 111.07 142.16 111.00 141.06 L 110.94 140.16 C 110.87 139.06 109.93 138.23 108.83 138.30 C 107.73 138.37 106.90 139.32 106.97 140.41 Z M 107.03 141.31 L 107.09 142.20 C 107.15 143.30 108.09 144.13 109.19 144.07 C 110.28 144.00 111.12 143.06 111.05 141.96 L 111.00 141.07 C 110.93 139.97 109.99 139.14 108.90 139.20 C 107.80 139.27 106.97 140.21 107.03 141.31 Z M 107.09 142.19 L 107.14 143.14 C 107.20 144.23 108.14 145.07 109.23 145.01 C 110.33 144.95 111.16 144.01 111.10 142.92 L 111.05 141.97 C 110.99 140.88 110.05 140.04 108.96 140.10 C 107.86 140.16 107.03 141.10 107.09 142.19 Z M 107.14 143.13 L 107.19 144.11 C 107.25 145.20 108.18 146.04 109.27 145.98 C 110.37 145.93 111.21 144.99 111.15 143.90 L 111.10 142.93 C 111.05 141.83 110.11 140.99 109.02 141.05 C 107.93 141.11 107.08 142.04 107.14 143.13 Z M 107.19 144.10 L 107.24 145.08 C 107.29 146.17 108.22 147.01 109.31 146.96 C 110.41 146.91 111.25 145.98 111.20 144.89 L 111.15 143.91 C 111.10 142.82 110.17 141.97 109.08 142.02 C 107.98 142.08 107.14 143.01 107.19 144.10 Z M 107.24 145.07 L 107.29 146.06 C 107.34 147.15 108.26 148.00 109.35 147.95 C 110.44 147.90 111.29 146.97 111.24 145.88 L 111.20 144.89 C 111.15 143.80 110.22 142.96 109.13 143.01 C 108.04 143.05 107.19 143.98 107.24 145.07 Z M 107.29 146.05 L 107.33 147.05 C 107.38 148.14 108.30 148.98 109.39 148.94 C 110.48 148.89 111.33 147.97 111.28 146.88 L 111.24 145.89 C 111.19 144.79 110.27 143.95 109.18 143.99 C 108.09 144.04 107.24 144.96 107.29 146.05 Z M 107.33 147.04 L 107.37 148.04 C 107.41 149.13 108.33 149.98 109.42 149.94 C 110.51 149.89 111.36 148.98 111.32 147.89 L 111.28 146.88 C 111.24 145.79 110.32 144.94 109.23 144.99 C 108.14 145.03 107.29 145.95 107.33 147.04 Z M 107.37 148.04 L 107.41 149.05 C 107.45 150.14 108.37 150.99 109.46 150.95 C 110.55 150.91 111.40 149.99 111.36 148.90 L 111.32 147.89 C 111.28 146.80 110.36 145.95 109.27 145.99 C 108.18 146.03 107.33 146.95 107.37 148.04 Z M 107.41 149.05 L 107.45 150.07 C 107.49 151.16 108.40 152.01 109.49 151.97 C 110.58 151.93 111.43 151.01 111.39 149.92 L 111.35 148.90 C 111.31 147.81 110.40 146.96 109.31 147.00 C 108.22 147.04 107.37 147.96 107.41 149.05 Z M 107.45 150.07 L 107.49 151.10 C 107.53 152.18 108.44 153.03 109.53 153.00 C 110.62 152.96 111.47 152.04 111.43 150.96 L 111.39 149.93 C 111.35 148.84 110.44 147.99 109.35 148.03 C 108.26 148.07 107.41 148.98 107.45 150.07 Z M 107.49 151.10 L 107.53 152.08 C 107.56 153.17 108.47 154.02 109.56 153.98 C 110.65 153.94 111.50 153.03 111.46 151.94 L 111.42 150.96 C 111.39 149.87 110.48 149.02 109.39 149.06 C 108.30 149.10 107.45 150.01 107.49 151.10 Z M 107.53 152.08 L 107.56 153.04 C 107.60 154.13 108.51 154.98 109.59 154.94 C 110.68 154.90 111.53 153.99 111.49 152.90 L 111.46 151.94 C 111.42 150.86 110.51 150.01 109.42 150.05 C 108.34 150.08 107.49 150.99 107.53 152.08 Z M 107.56 153.04 L 107.59 154.01 C 107.63 155.09 108.54 155.94 109.62 155.91 C 110.71 155.87 111.56 154.96 111.52 153.88 L 111.49 152.91 C 111.45 151.82 110.54 150.97 109.46 151.01 C 108.37 151.04 107.52 151.95 107.56 153.04 Z M 107.59 154.01 L 107.63 154.99 C 107.66 156.07 108.57 156.92 109.65 156.89 C 110.74 156.85 111.59 155.95 111.55 154.86 L 111.52 153.88 C 111.49 152.80 110.58 151.95 109.49 151.98 C 108.41 152.02 107.56 152.92 107.59 154.01 Z M 107.63 154.99 L 107.66 155.98 C 107.69 157.06 108.60 157.91 109.68 157.88 C 110.76 157.84 111.61 156.94 111.58 155.86 L 111.55 154.86 C 111.52 153.78 110.61 152.93 109.53 152.96 C 108.45 153.00 107.59 153.90 107.63 154.99 Z M 107.66 155.97 L 107.69 156.97 C 107.72 158.06 108.62 158.91 109.71 158.88 C 110.79 158.85 111.64 157.94 111.61 156.86 L 111.58 155.86 C 111.55 154.78 110.65 153.92 109.56 153.96 C 108.48 153.99 107.63 154.89 107.66 155.97 Z M 107.69 156.97 L 107.72 157.98 C 107.75 159.06 108.65 159.92 109.73 159.89 C 110.81 159.86 111.66 158.96 111.63 157.88 L 111.61 156.87 C 111.58 155.78 110.68 154.93 109.60 154.96 C 108.51 154.99 107.66 155.89 107.69 156.97 Z M 107.72 157.98 L 107.74 159.00 C 107.77 160.08 108.67 160.93 109.75 160.91 C 110.83 160.88 111.68 159.98 111.66 158.90 L 111.63 157.88 C 111.61 156.80 110.71 155.94 109.63 155.97 C 108.55 156.00 107.69 156.89 107.72 157.98 Z M 107.74 158.99 L 107.77 160.02 C 107.79 161.10 108.68 161.96 109.76 161.94 C 110.85 161.91 111.70 161.02 111.68 159.94 L 111.66 158.91 C 111.63 157.83 110.74 156.97 109.66 156.99 C 108.58 157.02 107.72 157.91 107.74 158.99 Z M 107.77 160.02 L 107.79 161.06 C 107.81 162.14 108.70 163.00 109.78 162.98 C 110.86 162.96 111.72 162.07 111.70 160.99 L 111.68 159.95 C 111.66 158.87 110.77 158.01 109.69 158.03 C 108.61 158.05 107.75 158.94 107.77 160.02 Z M 107.79 161.05 L 107.80 162.06 C 107.82 163.14 108.71 164.00 109.79 163.98 C 110.87 163.97 111.73 163.08 111.71 162.00 L 111.70 160.99 C 111.68 159.91 110.79 159.05 109.71 159.07 C 108.63 159.09 107.77 159.97 107.79 161.05 Z M 107.81 162.05 L 107.82 163.05 C 107.83 164.12 108.72 164.99 109.79 164.97 C 110.87 164.96 111.73 164.08 111.72 163.00 L 111.71 162.00 C 111.70 160.93 110.81 160.06 109.73 160.08 C 108.66 160.09 107.79 160.97 107.81 162.05 Z M 107.82 163.04 L 107.83 164.04 C 107.84 165.12 108.72 165.98 109.80 165.97 C 110.87 165.96 111.74 165.08 111.73 164.00 L 111.72 163.00 C 111.71 161.93 110.83 161.06 109.75 161.07 C 108.67 161.08 107.81 161.96 107.82 163.04 Z M 107.83 164.04 L 107.84 165.04 C 107.85 166.12 108.73 166.98 109.80 166.97 C 110.88 166.96 111.74 166.09 111.73 165.01 L 111.73 164.01 C 111.72 162.93 110.84 162.07 109.76 162.08 C 108.69 162.08 107.82 162.96 107.83 164.04 Z M 107.84 165.04 L 107.85 166.04 C 107.85 167.12 108.73 167.98 109.80 167.98 C 110.88 167.97 111.74 167.10 111.74 166.02 L 111.73 165.01 C 111.73 163.94 110.85 163.08 109.78 163.08 C 108.70 163.09 107.84 163.96 107.84 165.04 Z M 107.85 166.04 L 107.85 167.05 C 107.86 168.12 108.73 168.99 109.80 168.98 C 110.88 168.98 111.74 168.11 111.74 167.03 L 111.73 166.02 C 111.73 164.95 110.86 164.09 109.78 164.09 C 108.71 164.09 107.85 164.97 107.85 166.04 Z M 107.86 167.05 L 107.86 168.05 C 107.86 169.12 108.73 169.99 109.80 169.99 C 110.88 169.98 111.74 169.11 111.74 168.04 L 111.74 167.04 C 111.73 165.96 110.86 165.10 109.79 165.10 C 108.72 165.10 107.85 165.97 107.86 167.05 Z M 107.86 168.05 L 107.86 169.06 C 107.87 170.13 108.73 170.99 109.80 170.99 C 110.87 170.99 111.74 170.12 111.74 169.05 L 111.74 168.04 C 111.73 166.97 110.87 166.11 109.80 166.11 C 108.73 166.11 107.86 166.98 107.86 168.05 Z M 107.87 169.05 L 107.87 170.05 C 107.87 171.12 108.73 171.99 109.80 171.99 C 110.87 171.99 111.74 171.12 111.74 170.05 L 111.74 169.05 C 111.73 167.98 110.87 167.12 109.80 167.12 C 108.73 167.12 107.87 167.98 107.87 169.05 Z M 107.87 170.05 L 107.87 171.05 C 107.87 172.12 108.74 172.98 109.80 172.98 C 110.87 172.98 111.73 172.11 111.73 171.05 L 111.73 170.05 C 111.73 168.98 110.87 168.12 109.80 168.12 C 108.73 168.12 107.87 168.99 107.87 170.05 Z M 107.87 171.05 L 107.87 172.04 C 107.87 173.11 108.74 173.97 109.80 173.97 C 110.87 173.97 111.73 173.11 111.73 172.04 L 111.73 171.05 C 111.73 169.98 110.87 169.12 109.80 169.12 C 108.74 169.12 107.87 169.98 107.87 171.05 Z M 107.87 172.04 L 107.87 173.07 C 107.87 174.13 108.74 175.00 109.80 175.00 C 110.87 175.00 111.73 174.13 111.73 173.07 L 111.73 172.04 C 111.73 170.98 110.87 170.11 109.80 170.11 C 108.74 170.11 107.87 170.98 107.87 172.04 Z M 107.88 173.07 L 107.88 174.09 C 107.88 175.15 108.74 176.01 109.80 176.01 C 110.86 176.01 111.73 175.15 111.73 174.09 L 111.73 173.07 C 111.73 172.00 110.86 171.14 109.80 171.14 C 108.74 171.14 107.88 172.00 107.88 173.07 Z M 107.88 174.09 L 107.88 175.10 C 107.88 176.16 108.74 177.02 109.80 177.02 C 110.86 177.02 111.72 176.16 111.72 175.10 L 111.72 174.09 C 111.72 173.02 110.86 172.16 109.80 172.16 C 108.74 172.16 107.88 173.02 107.88 174.09 Z M 107.88 175.10 L 107.88 176.10 C 107.88 177.16 108.74 178.02 109.80 178.02 C 110.86 178.02 111.72 177.16 111.72 176.10 L 111.72 175.10 C 111.72 174.04 110.86 173.18 109.80 173.18 C 108.74 173.18 107.88 174.04 107.88 175.10 Z M 107.89 176.10 L 107.89 177.10 C 107.89 178.16 108.74 179.02 109.80 179.02 C 110.86 179.02 111.72 178.16 111.72 177.10 L 111.72 176.10 C 111.72 175.04 110.86 174.18 109.80 174.18 C 108.74 174.18 107.89 175.04 107.89 176.10 Z M 107.89 177.10 L 107.89 178.09 C 107.89 179.15 108.74 180.01 109.80 180.01 C 110.86 180.01 111.72 179.15 111.72 178.09 L 111.72 177.10 C 111.72 176.04 110.86 175.18 109.80 175.18 C 108.74 175.18 107.89 176.04 107.89 177.10 Z M 107.89 178.09 L 107.89 179.08 C 107.89 180.14 108.75 180.99 109.80 180.99 C 110.86 180.99 111.71 180.14 111.71 179.08 L 111.71 178.09 C 111.71 177.04 110.86 176.18 109.80 176.18 C 108.75 176.18 107.89 177.04 107.89 178.09 Z M 107.89 179.08 L 107.89 180.07 C 107.89 181.12 108.75 181.98 109.80 181.98 C 110.86 181.98 111.71 181.12 111.71 180.07 L 111.71 179.08 C 111.71 178.03 110.86 177.17 109.80 177.17 C 108.75 177.17 107.89 178.03 107.89 179.08 Z M 107.90 180.07 L 107.90 181.05 C 107.90 182.11 108.75 182.96 109.80 182.96 C 110.85 182.96 111.71 182.11 111.71 181.05 L 111.71 180.07 C 111.71 179.02 110.85 178.16 109.80 178.16 C 108.75 178.16 107.90 179.02 107.90 180.07 Z M 107.90 181.05 L 107.90 182.04 C 107.90 183.09 108.75 183.94 109.80 183.94 C 110.85 183.94 111.70 183.09 111.70 182.04 L 111.70 181.05 C 111.70 180.00 110.85 179.15 109.80 179.15 C 108.75 179.15 107.90 180.00 107.90 181.05 Z M 107.90 182.04 L 107.90 183.04 C 107.90 184.09 108.75 184.94 109.80 184.94 C 110.85 184.94 111.70 184.09 111.70 183.04 L 111.70 182.04 C 111.70 180.99 110.85 180.14 109.80 180.14 C 108.75 180.14 107.90 180.99 107.90 182.04 Z M 107.91 183.04 L 107.91 184.05 C 107.91 185.09 108.75 185.94 109.80 185.94 C 110.85 185.94 111.70 185.10 111.70 184.05 L 111.70 183.04 C 111.70 182.00 110.85 181.15 109.80 181.15 C 108.76 181.15 107.91 182.00 107.91 183.04 Z M 107.91 184.05 L 107.91 185.05 C 107.91 186.09 108.75 186.94 109.80 186.94 C 110.84 186.95 111.69 186.10 111.69 185.05 L 111.69 184.05 C 111.69 183.01 110.85 182.16 109.80 182.16 C 108.76 182.15 107.91 183.00 107.91 184.05 Z M 107.91 185.05 L 107.91 186.05 C 107.91 187.09 108.75 187.94 109.79 187.94 C 110.84 187.95 111.68 187.10 111.69 186.06 L 111.69 185.06 C 111.69 184.01 110.85 183.17 109.80 183.16 C 108.76 183.16 107.91 184.01 107.91 185.05 Z M 107.91 186.05 L 107.91 187.05 C 107.91 188.09 108.75 188.94 109.79 188.94 C 110.83 188.95 111.67 188.10 111.68 187.06 L 111.68 186.06 C 111.69 185.02 110.85 184.18 109.80 184.17 C 108.76 184.17 107.92 185.01 107.91 186.05 Z M 107.91 187.05 L 107.91 188.05 C 107.90 189.09 108.74 189.93 109.78 189.94 C 110.82 189.94 111.66 189.11 111.67 188.07 L 111.67 187.07 C 111.68 186.03 110.84 185.18 109.80 185.18 C 108.77 185.17 107.92 186.01 107.91 187.05 Z M 107.91 188.04 L 107.91 189.04 C 107.90 190.08 108.73 190.92 109.77 190.93 C 110.80 190.94 111.65 190.11 111.66 189.07 L 111.67 188.07 C 111.67 187.04 110.84 186.19 109.80 186.18 C 108.77 186.17 107.92 187.01 107.91 188.04 Z M 107.91 189.04 L 107.90 190.03 C 107.89 191.07 108.72 191.91 109.75 191.92 C 110.79 191.93 111.63 191.10 111.64 190.07 L 111.65 189.07 C 111.66 188.04 110.83 187.19 109.80 187.18 C 108.77 187.17 107.92 188.00 107.91 189.04 Z M 107.90 190.03 L 107.89 191.02 C 107.88 192.05 108.70 192.90 109.74 192.91 C 110.77 192.93 111.61 192.10 111.63 191.07 L 111.64 190.08 C 111.65 189.04 110.83 188.20 109.80 188.18 C 108.76 188.17 107.92 189.00 107.90 190.03 Z M 107.90 191.02 L 107.88 192.01 C 107.86 193.04 108.68 193.89 109.71 193.90 C 110.74 193.92 111.59 193.10 111.61 192.07 L 111.62 191.07 C 111.64 190.04 110.82 189.20 109.79 189.18 C 108.76 189.16 107.91 189.99 107.90 191.02 Z M 107.88 192.00 L 107.86 193.02 C 107.84 194.04 108.66 194.89 109.69 194.91 C 110.72 194.93 111.56 194.12 111.58 193.09 L 111.60 192.08 C 111.62 191.05 110.81 190.20 109.78 190.18 C 108.75 190.16 107.90 190.98 107.88 192.00 Z M 107.87 193.01 L 107.84 194.02 C 107.82 195.04 108.63 195.90 109.66 195.92 C 110.68 195.94 111.53 195.13 111.56 194.11 L 111.58 193.10 C 111.60 192.07 110.79 191.22 109.77 191.20 C 108.74 191.17 107.89 191.98 107.87 193.01 Z M 107.85 194.01 L 107.82 195.02 C 107.79 196.04 108.60 196.89 109.62 196.92 C 110.64 196.95 111.49 196.14 111.52 195.12 L 111.55 194.12 C 111.58 193.09 110.77 192.24 109.75 192.21 C 108.73 192.18 107.88 192.99 107.85 194.01 Z M 107.83 195.01 L 107.79 196.01 C 107.76 197.03 108.56 197.89 109.58 197.92 C 110.60 197.95 111.45 197.15 111.49 196.13 L 111.52 195.13 C 111.55 194.11 110.75 193.26 109.73 193.22 C 108.71 193.19 107.86 193.99 107.83 195.01 Z M 107.80 196.00 L 107.76 197.00 C 107.72 198.02 108.51 198.88 109.53 198.92 C 110.55 198.95 111.40 198.16 111.44 197.14 L 111.48 196.14 C 111.52 195.13 110.73 194.27 109.71 194.23 C 108.69 194.19 107.84 194.99 107.80 196.00 Z M 107.76 196.99 L 107.72 197.99 C 107.68 199.00 108.46 199.86 109.48 199.91 C 110.49 199.95 111.35 199.16 111.40 198.15 L 111.44 197.15 C 111.48 196.14 110.70 195.28 109.68 195.24 C 108.67 195.19 107.81 195.98 107.76 196.99 Z M 107.73 197.98 L 107.68 198.97 C 107.63 199.98 108.40 200.84 109.42 200.89 C 110.43 200.94 111.29 200.16 111.34 199.15 L 111.39 198.16 C 111.44 197.15 110.66 196.29 109.65 196.24 C 108.64 196.19 107.78 196.97 107.73 197.98 Z M 107.68 198.96 L 107.62 199.95 C 107.57 200.96 108.34 201.82 109.35 201.88 C 110.36 201.94 111.22 201.16 111.28 200.15 L 111.34 199.16 C 111.39 198.15 110.62 197.29 109.61 197.23 C 108.60 197.18 107.74 197.95 107.68 198.96 Z M 107.63 199.93 L 107.57 200.92 C 107.50 201.93 108.27 202.79 109.27 202.86 C 110.28 202.92 111.15 202.16 111.21 201.15 L 111.28 200.17 C 111.34 199.16 110.57 198.29 109.57 198.23 C 108.56 198.16 107.69 198.93 107.63 199.93 Z M 107.57 200.91 L 107.50 201.92 C 107.43 202.92 108.19 203.79 109.19 203.86 C 110.19 203.93 111.07 203.18 111.14 202.17 L 111.21 201.16 C 111.28 200.16 110.52 199.29 109.52 199.22 C 108.52 199.15 107.64 199.90 107.57 200.91 Z M 107.51 201.90 L 107.43 202.93 C 107.35 203.93 108.10 204.81 109.10 204.88 C 110.10 204.96 110.97 204.21 111.05 203.21 L 111.13 202.19 C 111.21 201.19 110.46 200.31 109.46 200.23 C 108.46 200.16 107.59 200.90 107.51 201.90 Z M 107.43 202.92 L 107.35 203.94 C 107.26 204.94 108.00 205.81 109.00 205.90 C 110.00 205.98 110.87 205.24 110.96 204.25 L 111.04 203.22 C 111.13 202.23 110.39 201.35 109.39 201.27 C 108.39 201.18 107.52 201.92 107.43 202.92 Z M 107.35 203.93 L 107.26 204.95 C 107.17 205.94 107.91 206.82 108.90 206.91 C 109.90 206.99 110.77 206.26 110.86 205.27 L 110.95 204.25 C 111.04 203.26 110.31 202.38 109.31 202.29 C 108.32 202.21 107.44 202.94 107.35 203.93 Z M 107.27 204.94 L 107.18 205.94 C 107.08 206.93 107.81 207.81 108.80 207.90 C 109.79 208.00 110.67 207.27 110.76 206.28 L 110.86 205.27 C 110.95 204.28 110.22 203.41 109.23 203.31 C 108.24 203.22 107.36 203.95 107.27 204.94 Z M 107.18 205.94 L 107.09 206.94 C 106.99 207.92 107.71 208.80 108.70 208.89 C 109.69 208.99 110.56 208.27 110.66 207.28 L 110.76 206.28 C 110.85 205.30 110.13 204.42 109.14 204.33 C 108.15 204.23 107.28 204.95 107.18 205.94 Z M 107.09 206.93 L 107.00 207.92 C 106.90 208.90 107.62 209.78 108.60 209.87 C 109.59 209.97 110.46 209.25 110.56 208.27 L 110.65 207.28 C 110.75 206.30 110.03 205.42 109.05 205.33 C 108.06 205.23 107.19 205.95 107.09 206.93 Z M 107.00 207.92 L 106.90 208.89 C 106.81 209.87 107.52 210.74 108.51 210.84 C 109.49 210.94 110.36 210.22 110.46 209.24 L 110.55 208.27 C 110.65 207.29 109.93 206.41 108.95 206.32 C 107.97 206.22 107.10 206.94 107.00 207.92 Z M 106.91 208.89 L 106.82 209.85 C 106.72 210.82 107.43 211.69 108.41 211.79 C 109.39 211.89 110.26 211.17 110.36 210.19 L 110.45 209.24 C 110.55 208.26 109.83 207.39 108.85 207.29 C 107.88 207.20 107.01 207.91 106.91 208.89 Z M 106.82 209.85 L 106.73 210.84 C 106.63 211.82 107.35 212.68 108.32 212.78 C 109.30 212.87 110.16 212.16 110.26 211.18 L 110.35 210.19 C 110.45 209.22 109.73 208.35 108.76 208.26 C 107.78 208.16 106.92 208.88 106.82 209.85 Z M 106.73 210.85 L 106.63 211.89 C 106.54 212.86 107.26 213.72 108.23 213.81 C 109.20 213.90 110.06 213.19 110.15 212.22 L 110.25 211.18 C 110.34 210.21 109.63 209.34 108.66 209.25 C 107.68 209.16 106.82 209.88 106.73 210.85 Z M 106.64 211.89 L 106.55 212.91 C 106.46 213.88 107.17 214.74 108.14 214.83 C 109.11 214.92 109.96 214.20 110.05 213.23 L 110.15 212.21 C 110.24 211.24 109.52 210.39 108.56 210.30 C 107.59 210.21 106.73 210.92 106.64 211.89 Z M 106.55 212.91 L 106.46 213.92 C 106.37 214.88 107.08 215.74 108.05 215.83 C 109.01 215.91 109.87 215.20 109.95 214.24 L 110.05 213.23 C 110.14 212.27 109.42 211.41 108.46 211.32 C 107.49 211.24 106.64 211.95 106.55 212.91 Z M 106.47 213.92 L 106.37 214.91 C 106.28 215.87 106.99 216.72 107.95 216.81 C 108.92 216.90 109.77 216.19 109.86 215.23 L 109.95 214.24 C 110.04 213.28 109.33 212.43 108.37 212.34 C 107.41 212.25 106.55 212.96 106.47 213.92 Z M 106.38 214.91 L 106.29 215.89 C 106.20 216.85 106.90 217.70 107.86 217.79 C 108.82 217.88 109.67 217.17 109.76 216.21 L 109.85 215.23 C 109.94 214.27 109.24 213.42 108.28 213.33 C 107.32 213.24 106.47 213.95 106.38 214.91 Z M 106.29 215.88 L 106.20 216.85 C 106.11 217.81 106.81 218.66 107.76 218.75 C 108.72 218.84 109.57 218.14 109.66 217.19 L 109.75 216.22 C 109.84 215.26 109.15 214.41 108.19 214.32 C 107.24 214.23 106.39 214.93 106.29 215.88 Z M 106.21 216.85 L 106.11 217.81 C 106.02 218.76 106.71 219.61 107.66 219.71 C 108.61 219.80 109.46 219.11 109.56 218.16 L 109.65 217.19 C 109.75 216.24 109.05 215.39 108.10 215.30 C 107.15 215.20 106.30 215.90 106.21 216.85 Z M 106.12 217.80 L 106.02 218.75 C 105.92 219.70 106.61 220.55 107.55 220.65 C 108.50 220.75 109.35 220.06 109.45 219.11 L 109.55 218.16 C 109.65 217.22 108.96 216.37 108.01 216.27 C 107.07 216.17 106.22 216.86 106.12 217.80 Z M 106.03 218.74 L 105.92 219.66 C 105.82 220.61 106.50 221.46 107.44 221.56 C 108.39 221.66 109.24 220.98 109.34 220.04 L 109.44 219.12 C 109.55 218.17 108.87 217.33 107.92 217.22 C 106.98 217.12 106.13 217.80 106.03 218.74 Z M 105.93 219.66 L 105.83 220.59 C 105.72 221.53 106.40 222.37 107.34 222.48 C 108.28 222.59 109.12 221.91 109.23 220.97 L 109.33 220.04 C 109.44 219.10 108.76 218.26 107.82 218.15 C 106.88 218.04 106.04 218.72 105.93 219.66 Z M 105.83 220.59 L 105.73 221.53 C 105.62 222.46 106.29 223.31 107.23 223.41 C 108.16 223.52 109.01 222.85 109.12 221.91 L 109.22 220.97 C 109.33 220.03 108.66 219.19 107.72 219.08 C 106.78 218.98 105.94 219.65 105.83 220.59 Z M 105.73 221.53 L 105.62 222.49 C 105.52 223.42 106.19 224.26 107.12 224.37 C 108.06 224.47 108.90 223.80 109.00 222.87 L 109.11 221.91 C 109.22 220.98 108.54 220.13 107.61 220.03 C 106.68 219.92 105.84 220.60 105.73 221.53 Z M 105.63 222.50 L 105.52 223.49 C 105.42 224.42 106.09 225.25 107.02 225.35 C 107.95 225.45 108.79 224.78 108.89 223.85 L 109.00 222.86 C 109.10 221.93 108.43 221.10 107.50 221.00 C 106.57 220.89 105.73 221.57 105.63 222.50 Z M 105.53 223.49 L 105.42 224.52 C 105.32 225.45 106.00 226.28 106.92 226.37 C 107.85 226.47 108.68 225.80 108.78 224.87 L 108.88 223.84 C 108.98 222.92 108.31 222.09 107.38 221.99 C 106.45 221.89 105.62 222.57 105.53 223.49 Z M 105.43 224.53 L 105.32 225.60 C 105.23 226.53 105.91 227.35 106.83 227.44 C 107.76 227.53 108.58 226.85 108.67 225.93 L 108.77 224.86 C 108.86 223.93 108.19 223.11 107.26 223.02 C 106.34 222.93 105.52 223.61 105.43 224.53 Z M 105.33 225.61 L 105.23 226.74 C 105.14 227.66 105.82 228.47 106.74 228.55 C 107.67 228.64 108.48 227.96 108.56 227.04 L 108.66 225.91 C 108.75 224.99 108.07 224.18 107.14 224.10 C 106.22 224.01 105.41 224.69 105.33 225.61 Z M 105.23 226.75 L 105.15 227.67 C 105.08 228.59 105.76 229.39 106.68 229.47 C 107.60 229.55 108.41 228.86 108.48 227.94 L 108.56 227.02 C 108.63 226.10 107.95 225.30 107.03 225.22 C 106.11 225.15 105.31 225.83 105.23 226.75 Z M 105.16 227.68 L 105.09 228.59 C 105.02 229.51 105.70 230.31 106.62 230.38 C 107.54 230.45 108.34 229.76 108.41 228.85 L 108.48 227.93 C 108.55 227.02 107.86 226.22 106.95 226.15 C 106.03 226.07 105.23 226.76 105.16 227.68 Z M 105.09 228.60 L 105.02 229.54 C 104.96 230.46 105.64 231.25 106.56 231.32 C 107.47 231.39 108.27 230.70 108.34 229.78 L 108.40 228.84 C 108.47 227.92 107.78 227.13 106.87 227.06 C 105.95 227.00 105.16 227.68 105.09 228.60 Z M 105.03 229.55 L 104.96 230.52 C 104.90 231.43 105.59 232.22 106.50 232.28 C 107.41 232.35 108.20 231.66 108.27 230.74 L 108.33 229.78 C 108.40 228.86 107.71 228.07 106.79 228.01 C 105.88 227.95 105.09 228.64 105.03 229.55 Z M 104.96 230.52 L 104.90 231.51 C 104.84 232.42 105.53 233.21 106.44 233.27 C 107.35 233.33 108.14 232.64 108.20 231.73 L 108.26 230.74 C 108.32 229.83 107.63 229.04 106.72 228.98 C 105.81 228.92 105.02 229.61 104.96 230.52 Z M 104.90 231.52 L 104.84 232.53 C 104.78 233.44 105.47 234.22 106.38 234.28 C 107.29 234.33 108.07 233.64 108.13 232.73 L 108.19 231.72 C 108.25 230.81 107.56 230.03 106.65 229.97 C 105.74 229.92 104.96 230.61 104.90 231.52 Z M 104.84 232.53 L 104.78 233.56 C 104.73 234.46 105.42 235.24 106.32 235.30 C 107.23 235.35 108.01 234.66 108.07 233.75 L 108.13 232.73 C 108.18 231.82 107.49 231.04 106.58 230.99 C 105.68 230.93 104.90 231.62 104.84 232.53 Z M 104.79 233.56 L 104.72 234.60 C 104.67 235.50 105.36 236.28 106.27 236.33 C 107.17 236.39 107.95 235.70 108.00 234.79 L 108.06 233.75 C 108.11 232.85 107.42 232.07 106.52 232.02 C 105.61 231.96 104.84 232.66 104.79 233.56 Z M 104.73 234.60 L 104.67 235.65 C 104.62 236.55 105.31 237.33 106.21 237.38 C 107.11 237.43 107.89 236.74 107.94 235.84 L 108.00 234.79 C 108.05 233.89 107.36 233.11 106.46 233.06 C 105.55 233.01 104.78 233.70 104.73 234.60 Z M 104.67 235.65 L 104.61 236.71 C 104.56 237.61 105.25 238.38 106.15 238.43 C 107.05 238.48 107.82 237.79 107.87 236.89 L 107.93 235.84 C 107.98 234.94 107.30 234.16 106.39 234.11 C 105.49 234.06 104.72 234.75 104.67 235.65 Z M 104.62 236.71 L 104.56 237.77 C 104.51 238.67 105.20 239.44 106.09 239.49 C 106.99 239.54 107.76 238.85 107.81 237.95 L 107.87 236.89 C 107.92 235.99 107.23 235.22 106.33 235.17 C 105.44 235.12 104.67 235.81 104.62 236.71 Z M 104.56 237.77 L 104.54 238.14 C 104.49 239.04 105.18 239.80 106.07 239.85 C 106.97 239.90 107.74 239.22 107.79 238.32 L 107.81 237.95 C 107.86 237.05 107.17 236.29 106.27 236.24 C 105.38 236.19 104.61 236.87 104.56 237.77 Z"
      fill="black"
      fill-rule="nonzero" /><path d="M 124.10 102.65 L 125.04 102.23 C 125.96 101.82 126.38 100.74 125.97 99.82 C 125.56 98.89 124.48 98.48 123.56 98.89 L 122.62 99.30 C 121.70 99.71 121.28 100.80 121.69 101.72 C 122.10 102.64 123.18 103.06 124.10 102.65 Z M 125.05 102.26 L 125.98 101.85 C 126.92 101.43 127.35 100.34 126.93 99.40 C 126.52 98.46 125.42 98.04 124.49 98.45 L 123.55 98.86 C 122.61 99.28 122.19 100.37 122.60 101.31 C 123.01 102.25 124.11 102.67 125.05 102.26 Z M 125.98 101.88 L 126.92 101.47 C 127.87 101.06 128.31 99.95 127.89 99.00 C 127.48 98.04 126.37 97.60 125.42 98.02 L 124.49 98.42 C 123.53 98.84 123.09 99.94 123.51 100.90 C 123.92 101.85 125.03 102.29 125.98 101.88 Z M 126.91 101.50 L 127.84 101.11 C 128.81 100.70 129.27 99.58 128.86 98.61 C 128.45 97.64 127.33 97.18 126.36 97.59 L 125.43 97.99 C 124.46 98.40 124.00 99.52 124.41 100.49 C 124.82 101.46 125.94 101.91 126.91 101.50 Z M 127.83 101.14 L 128.77 100.76 C 129.75 100.35 130.23 99.22 129.82 98.24 C 129.42 97.25 128.29 96.78 127.30 97.18 L 126.37 97.56 C 125.38 97.96 124.91 99.09 125.31 100.08 C 125.72 101.07 126.85 101.54 127.83 101.14 Z M 128.75 100.79 L 129.68 100.43 C 130.68 100.03 131.18 98.90 130.79 97.89 C 130.39 96.88 129.26 96.39 128.25 96.78 L 127.32 97.14 C 126.31 97.54 125.82 98.67 126.21 99.68 C 126.60 100.69 127.74 101.19 128.75 100.79 Z M 129.65 100.46 L 130.58 100.12 C 131.61 99.74 132.13 98.60 131.75 97.57 C 131.37 96.54 130.23 96.02 129.20 96.40 L 128.28 96.74 C 127.25 97.12 126.72 98.27 127.10 99.29 C 127.48 100.32 128.63 100.84 129.65 100.46 Z M 130.55 100.16 L 131.47 99.84 C 132.52 99.48 133.08 98.33 132.72 97.29 C 132.35 96.24 131.21 95.68 130.16 96.04 L 129.24 96.36 C 128.19 96.72 127.63 97.87 127.99 98.92 C 128.36 99.97 129.50 100.52 130.55 100.16 Z M 131.43 99.88 L 132.35 99.59 C 133.43 99.25 134.02 98.11 133.68 97.03 C 133.34 95.96 132.20 95.37 131.13 95.71 L 130.20 96.00 C 129.13 96.34 128.54 97.48 128.88 98.56 C 129.22 99.63 130.36 100.22 131.43 99.88 Z M 132.30 99.62 L 133.25 99.35 C 134.35 99.04 134.98 97.91 134.67 96.82 C 134.36 95.73 133.23 95.09 132.13 95.40 L 131.18 95.67 C 130.09 95.98 129.45 97.12 129.76 98.21 C 130.07 99.30 131.21 99.93 132.30 99.62 Z M 133.19 99.38 L 134.19 99.13 C 135.29 98.85 135.96 97.74 135.69 96.63 C 135.41 95.53 134.29 94.86 133.19 95.13 L 132.20 95.38 C 131.09 95.66 130.42 96.77 130.70 97.88 C 130.97 98.98 132.09 99.65 133.19 99.38 Z M 134.12 99.14 L 135.11 98.92 C 136.22 98.68 136.93 97.59 136.69 96.48 C 136.45 95.37 135.35 94.67 134.24 94.91 L 133.25 95.12 C 132.14 95.36 131.44 96.46 131.68 97.57 C 131.92 98.67 133.01 99.38 134.12 99.14 Z M 135.06 98.93 L 136.04 98.75 C 137.16 98.54 137.89 97.47 137.68 96.35 C 137.47 95.24 136.40 94.51 135.29 94.72 L 134.30 94.90 C 133.19 95.11 132.45 96.18 132.66 97.30 C 132.87 98.41 133.94 99.14 135.06 98.93 Z M 135.99 98.75 L 136.98 98.59 C 138.09 98.41 138.85 97.36 138.67 96.24 C 138.49 95.13 137.44 94.37 136.32 94.55 L 135.34 94.71 C 134.22 94.89 133.46 95.94 133.64 97.06 C 133.83 98.18 134.88 98.93 135.99 98.75 Z M 136.94 98.59 L 137.92 98.46 C 139.04 98.30 139.81 97.26 139.66 96.14 C 139.50 95.03 138.46 94.25 137.34 94.41 L 136.36 94.55 C 135.25 94.71 134.47 95.74 134.63 96.86 C 134.78 97.98 135.82 98.75 136.94 98.59 Z M 137.88 98.46 L 138.86 98.33 C 139.98 98.20 140.78 97.18 140.64 96.06 C 140.50 94.94 139.48 94.15 138.36 94.28 L 137.38 94.41 C 136.26 94.55 135.47 95.57 135.61 96.68 C 135.75 97.80 136.77 98.60 137.88 98.46 Z M 138.84 98.33 L 139.82 98.23 C 140.93 98.10 141.74 97.09 141.62 95.98 C 141.49 94.86 140.49 94.05 139.37 94.18 L 138.39 94.29 C 137.27 94.41 136.46 95.42 136.59 96.53 C 136.71 97.65 137.72 98.46 138.84 98.33 Z M 139.80 98.22 L 140.78 98.12 C 141.89 98.01 142.71 97.01 142.59 95.90 C 142.48 94.78 141.48 93.97 140.37 94.08 L 139.39 94.18 C 138.27 94.29 137.46 95.29 137.57 96.41 C 137.68 97.52 138.68 98.34 139.80 98.22 Z M 140.76 98.12 L 141.75 98.03 C 142.86 97.92 143.68 96.93 143.57 95.82 C 143.47 94.70 142.48 93.88 141.36 93.99 L 140.38 94.08 C 139.26 94.19 138.44 95.18 138.55 96.29 C 138.66 97.41 139.65 98.23 140.76 98.12 Z M 141.74 98.02 L 142.72 97.93 C 143.84 97.83 144.66 96.85 144.55 95.73 C 144.45 94.62 143.47 93.80 142.35 93.90 L 141.37 93.99 C 140.26 94.09 139.43 95.08 139.54 96.19 C 139.64 97.31 140.62 98.13 141.74 98.02 Z M 142.71 97.93 L 143.70 97.84 C 144.81 97.75 145.63 96.77 145.54 95.66 C 145.44 94.54 144.46 93.72 143.35 93.82 L 142.36 93.91 C 141.25 94.00 140.43 94.98 140.52 96.09 C 140.62 97.21 141.60 98.03 142.71 97.93 Z M 143.69 97.84 L 144.68 97.76 C 145.79 97.66 146.62 96.69 146.52 95.58 C 146.43 94.47 145.45 93.65 144.34 93.74 L 143.35 93.82 C 142.25 93.92 141.42 94.89 141.52 96.00 C 141.61 97.11 142.58 97.93 143.69 97.84 Z M 144.68 97.75 L 145.67 97.67 C 146.78 97.58 147.60 96.61 147.51 95.50 C 147.42 94.40 146.45 93.57 145.34 93.66 L 144.35 93.74 C 143.24 93.83 142.42 94.80 142.51 95.91 C 142.60 97.02 143.57 97.84 144.68 97.75 Z M 145.66 97.67 L 146.66 97.59 C 147.77 97.50 148.59 96.54 148.50 95.43 C 148.42 94.33 147.45 93.50 146.34 93.59 L 145.35 93.67 C 144.24 93.75 143.42 94.72 143.51 95.83 C 143.59 96.93 144.56 97.76 145.66 97.67 Z M 146.66 97.58 L 147.66 97.51 C 148.76 97.42 149.59 96.46 149.50 95.36 C 149.42 94.25 148.45 93.43 147.35 93.51 L 146.35 93.59 C 145.25 93.68 144.42 94.64 144.51 95.74 C 144.59 96.85 145.55 97.67 146.66 97.58 Z M 147.66 97.50 L 148.67 97.43 C 149.77 97.34 150.59 96.38 150.51 95.28 C 150.42 94.18 149.47 93.36 148.36 93.44 L 147.36 93.52 C 146.26 93.60 145.43 94.56 145.51 95.66 C 145.60 96.76 146.56 97.59 147.66 97.50 Z M 148.66 97.42 L 149.68 97.35 C 150.78 97.26 151.60 96.31 151.52 95.21 C 151.44 94.11 150.48 93.29 149.38 93.37 L 148.37 93.45 C 147.27 93.53 146.45 94.49 146.53 95.58 C 146.61 96.68 147.57 97.50 148.66 97.42 Z M 149.68 97.34 L 150.63 97.27 C 151.73 97.19 152.55 96.24 152.47 95.14 C 152.39 94.05 151.44 93.23 150.34 93.31 L 149.39 93.38 C 148.29 93.46 147.47 94.41 147.55 95.51 C 147.63 96.60 148.58 97.42 149.68 97.34 Z M 150.63 97.27 L 151.59 97.20 C 152.68 97.12 153.50 96.17 153.42 95.08 C 153.34 93.98 152.39 93.16 151.30 93.24 L 150.34 93.31 C 149.25 93.39 148.43 94.34 148.51 95.43 C 148.59 96.52 149.54 97.35 150.63 97.27 Z M 151.58 97.19 L 152.55 97.13 C 153.64 97.05 154.46 96.10 154.38 95.01 C 154.31 93.92 153.36 93.10 152.27 93.18 L 151.31 93.25 C 150.22 93.32 149.39 94.27 149.47 95.36 C 149.55 96.45 150.49 97.27 151.58 97.19 Z M 152.54 97.12 L 153.52 97.06 C 154.61 96.98 155.43 96.04 155.36 94.95 C 155.29 93.87 154.35 93.05 153.26 93.12 L 152.28 93.18 C 151.19 93.26 150.37 94.20 150.44 95.28 C 150.52 96.37 151.46 97.19 152.54 97.12 Z M 153.51 97.05 L 154.50 96.99 C 155.59 96.92 156.41 95.99 156.34 94.90 C 156.28 93.82 155.34 92.99 154.26 93.06 L 153.27 93.12 C 152.18 93.19 151.36 94.13 151.43 95.21 C 151.49 96.29 152.43 97.12 153.51 97.05 Z M 154.49 96.98 L 155.50 96.93 C 156.58 96.86 157.41 95.93 157.34 94.85 C 157.28 93.77 156.35 92.94 155.27 93.01 L 154.27 93.06 C 153.18 93.13 152.36 94.06 152.42 95.14 C 152.48 96.22 153.41 97.05 154.49 96.98 Z M 155.49 96.92 L 156.50 96.87 C 157.58 96.81 158.41 95.89 158.36 94.81 C 158.30 93.73 157.38 92.90 156.30 92.96 L 155.28 93.01 C 154.20 93.07 153.37 93.99 153.43 95.07 C 153.48 96.15 154.41 96.98 155.49 96.92 Z M 156.49 96.86 L 157.53 96.81 C 158.60 96.76 159.44 95.85 159.39 94.77 C 159.34 93.70 158.42 92.86 157.34 92.91 L 156.31 92.96 C 155.23 93.01 154.40 93.93 154.45 95.00 C 154.50 96.08 155.41 96.91 156.49 96.86 Z M 157.51 96.81 L 158.56 96.77 C 159.64 96.73 160.47 95.82 160.43 94.74 C 160.39 93.67 159.48 92.83 158.41 92.88 L 157.36 92.92 C 156.28 92.96 155.45 93.87 155.49 94.94 C 155.53 96.02 156.44 96.85 157.51 96.81 Z M 158.55 96.76 L 159.56 96.73 C 160.64 96.69 161.48 95.80 161.44 94.72 C 161.41 93.65 160.51 92.81 159.44 92.85 L 158.42 92.88 C 157.35 92.91 156.51 93.81 156.54 94.89 C 156.58 95.96 157.48 96.80 158.55 96.76 Z M 159.55 96.73 L 160.53 96.70 C 161.60 96.67 162.44 95.78 162.42 94.71 C 162.39 93.64 161.50 92.80 160.43 92.82 L 159.45 92.85 C 158.38 92.88 157.53 93.77 157.56 94.84 C 157.59 95.91 158.48 96.75 159.55 96.73 Z M 160.52 96.70 L 161.51 96.68 C 162.57 96.65 163.42 95.77 163.40 94.70 C 163.38 93.63 162.49 92.78 161.43 92.81 L 160.44 92.83 C 159.37 92.85 158.52 93.73 158.54 94.80 C 158.57 95.87 159.45 96.72 160.52 96.70 Z M 161.50 96.67 L 162.49 96.66 C 163.56 96.64 164.41 95.76 164.39 94.69 C 164.38 93.63 163.50 92.78 162.43 92.80 L 161.43 92.81 C 160.37 92.83 159.52 93.71 159.54 94.77 C 159.55 95.84 160.43 96.69 161.50 96.67 Z M 162.49 96.65 L 163.49 96.64 C 164.56 96.63 165.41 95.75 165.39 94.69 C 165.38 93.63 164.51 92.77 163.45 92.79 L 162.44 92.80 C 161.38 92.81 160.52 93.68 160.54 94.75 C 160.55 95.81 161.42 96.66 162.49 96.65 Z M 163.48 96.64 L 164.49 96.63 C 165.56 96.62 166.41 95.75 166.40 94.69 C 166.39 93.63 165.52 92.77 164.46 92.78 L 163.45 92.79 C 162.39 92.80 161.54 93.67 161.55 94.73 C 161.56 95.79 162.42 96.64 163.48 96.64 Z M 164.49 96.62 L 165.50 96.62 C 166.56 96.61 167.41 95.75 167.41 94.69 C 167.40 93.63 166.54 92.78 165.48 92.78 L 164.47 92.79 C 163.41 92.79 162.55 93.66 162.56 94.72 C 162.57 95.77 163.43 96.63 164.49 96.62 Z M 165.50 96.61 L 166.51 96.61 C 167.57 96.61 168.42 95.75 168.42 94.69 C 168.41 93.63 167.55 92.78 166.50 92.78 L 165.48 92.79 C 164.43 92.79 163.57 93.65 163.58 94.71 C 163.58 95.76 164.44 96.62 165.50 96.61 Z M 166.51 96.60 L 167.52 96.60 C 168.57 96.60 169.42 95.74 169.42 94.69 C 169.42 93.64 168.56 92.78 167.51 92.78 L 166.50 92.79 C 165.44 92.79 164.59 93.64 164.59 94.70 C 164.59 95.75 165.45 96.61 166.51 96.60 Z M 167.51 96.60 L 168.52 96.60 C 169.57 96.60 170.42 95.74 170.42 94.69 C 170.42 93.64 169.57 92.79 168.52 92.79 L 167.51 92.79 C 166.46 92.79 165.61 93.64 165.61 94.69 C 165.61 95.75 166.46 96.60 167.51 96.60 Z M 168.52 96.59 L 169.52 96.59 C 170.57 96.59 171.42 95.74 171.42 94.69 C 171.42 93.64 170.56 92.79 169.52 92.79 L 168.52 92.79 C 167.47 92.79 166.62 93.64 166.62 94.69 C 166.62 95.74 167.47 96.59 168.52 96.59 Z M 169.52 96.59 L 170.48 96.59 C 171.52 96.59 172.37 95.74 172.37 94.69 C 172.37 93.64 171.52 92.80 170.48 92.80 L 169.52 92.80 C 168.47 92.80 167.62 93.64 167.62 94.69 C 167.62 95.74 168.47 96.59 169.52 96.59 Z M 170.48 96.59 L 171.43 96.59 C 172.48 96.59 173.33 95.74 173.33 94.69 C 173.33 93.65 172.48 92.80 171.43 92.80 L 170.48 92.80 C 169.43 92.80 168.58 93.65 168.58 94.69 C 168.58 95.74 169.43 96.59 170.48 96.59 Z M 171.43 96.58 L 172.39 96.58 C 173.43 96.58 174.28 95.74 174.28 94.69 C 174.28 93.65 173.43 92.80 172.39 92.80 L 171.43 92.80 C 170.39 92.80 169.54 93.65 169.54 94.69 C 169.54 95.74 170.39 96.58 171.43 96.58 Z M 172.39 96.58 L 173.35 96.58 C 174.39 96.58 175.24 95.74 175.24 94.69 C 175.24 93.65 174.39 92.80 173.35 92.80 L 172.39 92.80 C 171.35 92.80 170.50 93.65 170.50 94.69 C 170.50 95.74 171.35 96.58 172.39 96.58 Z M 173.35 96.58 L 174.32 96.58 C 175.36 96.58 176.20 95.73 176.20 94.69 C 176.20 93.65 175.36 92.81 174.32 92.81 L 173.35 92.81 C 172.31 92.81 171.46 93.65 171.46 94.69 C 171.46 95.73 172.31 96.58 173.35 96.58 Z M 174.32 96.58 L 175.30 96.58 C 176.34 96.58 177.18 95.73 177.18 94.69 C 177.18 93.65 176.34 92.81 175.30 92.81 L 174.32 92.81 C 173.28 92.81 172.43 93.65 172.43 94.69 C 172.43 95.73 173.28 96.58 174.32 96.58 Z M 175.30 96.57 L 176.30 96.57 C 177.34 96.57 178.18 95.73 178.18 94.69 C 178.18 93.65 177.34 92.81 176.30 92.81 L 175.30 92.81 C 174.26 92.81 173.42 93.65 173.42 94.69 C 173.42 95.73 174.26 96.57 175.30 96.57 Z M 176.30 96.57 L 177.32 96.57 C 178.35 96.57 179.20 95.73 179.20 94.69 C 179.20 93.66 178.35 92.81 177.32 92.81 L 176.30 92.81 C 175.26 92.81 174.42 93.66 174.42 94.69 C 174.42 95.73 175.26 96.57 176.30 96.57 Z M 177.32 96.57 L 178.36 96.57 C 179.40 96.57 180.24 95.73 180.24 94.69 C 180.24 93.66 179.40 92.82 178.36 92.82 L 177.32 92.82 C 176.28 92.82 175.44 93.66 175.44 94.69 C 175.44 95.73 176.28 96.57 177.32 96.57 Z M 178.36 96.57 L 179.43 96.57 C 180.47 96.57 181.31 95.73 181.31 94.69 C 181.31 93.66 180.47 92.82 179.43 92.82 L 178.36 92.82 C 177.33 92.82 176.49 93.66 176.49 94.69 C 176.49 95.73 177.33 96.57 178.36 96.57 Z M 179.43 96.56 L 180.50 96.56 C 181.54 96.56 182.37 95.73 182.37 94.69 C 182.37 93.66 181.54 92.82 180.50 92.82 L 179.43 92.82 C 178.40 92.82 177.56 93.66 177.56 94.69 C 177.56 95.73 178.40 96.56 179.43 96.56 Z M 180.50 96.56 L 181.46 96.56 C 182.49 96.56 183.33 95.73 183.33 94.69 C 183.33 93.66 182.49 92.82 181.46 92.82 L 180.50 92.82 C 179.47 92.82 178.63 93.66 178.63 94.69 C 178.63 95.73 179.47 96.56 180.50 96.56 Z M 181.46 96.56 L 182.43 96.56 C 183.46 96.56 184.30 95.73 184.30 94.69 C 184.30 93.66 183.46 92.82 182.43 92.82 L 181.46 92.82 C 180.42 92.82 179.59 93.66 179.59 94.69 C 179.59 95.73 180.42 96.56 181.46 96.56 Z M 182.43 96.56 L 183.42 96.56 C 184.46 96.57 185.29 95.73 185.29 94.69 C 185.29 93.66 184.46 92.82 183.42 92.82 L 182.43 92.82 C 181.40 92.82 180.56 93.66 180.56 94.69 C 180.56 95.73 181.40 96.56 182.43 96.56 Z M 183.42 96.57 L 184.43 96.57 C 185.46 96.57 186.30 95.73 186.30 94.70 C 186.30 93.66 185.46 92.82 184.43 92.82 L 183.42 92.82 C 182.39 92.82 181.55 93.66 181.55 94.69 C 181.55 95.73 182.39 96.56 183.42 96.57 Z M 184.43 96.57 L 185.44 96.57 C 186.48 96.57 187.32 95.73 187.32 94.70 C 187.32 93.67 186.48 92.83 185.45 92.82 L 184.43 92.82 C 183.40 92.82 182.56 93.66 182.56 94.69 C 182.56 95.73 183.39 96.56 184.43 96.57 Z M 185.44 96.57 L 186.46 96.57 C 187.50 96.57 188.34 95.74 188.34 94.70 C 188.34 93.67 187.51 92.83 186.47 92.83 L 185.45 92.82 C 184.42 92.82 183.58 93.66 183.57 94.69 C 183.57 95.73 184.41 96.57 185.44 96.57 Z M 186.46 96.57 L 187.49 96.58 C 188.52 96.58 189.36 95.74 189.37 94.71 C 189.37 93.67 188.54 92.83 187.50 92.83 L 186.47 92.83 C 185.44 92.82 184.60 93.66 184.60 94.69 C 184.59 95.73 185.43 96.57 186.46 96.57 Z M 187.49 96.58 L 188.51 96.58 C 189.55 96.59 190.39 95.75 190.39 94.72 C 190.40 93.68 189.56 92.84 188.53 92.83 L 187.50 92.83 C 186.47 92.82 185.63 93.66 185.62 94.69 C 185.62 95.73 186.45 96.57 187.49 96.58 Z M 188.51 96.58 L 189.53 96.59 C 190.56 96.59 191.41 95.76 191.41 94.72 C 191.42 93.69 190.59 92.84 189.55 92.84 L 188.53 92.83 C 187.50 92.83 186.65 93.66 186.65 94.70 C 186.64 95.73 187.47 96.57 188.51 96.58 Z M 189.53 96.59 L 190.54 96.59 C 191.57 96.60 192.42 95.77 192.43 94.73 C 192.43 93.70 191.60 92.85 190.57 92.85 L 189.55 92.84 C 188.52 92.83 187.67 93.66 187.67 94.70 C 187.66 95.73 188.49 96.58 189.53 96.59 Z M 190.54 96.59 L 191.54 96.60 C 192.57 96.61 193.42 95.78 193.43 94.75 C 193.44 93.71 192.60 92.86 191.57 92.85 L 190.57 92.85 C 189.53 92.84 188.69 93.67 188.68 94.70 C 188.67 95.74 189.50 96.59 190.54 96.59 Z M 191.53 96.60 L 192.52 96.61 C 193.55 96.63 194.40 95.80 194.41 94.76 C 194.42 93.72 193.59 92.88 192.56 92.86 L 191.57 92.85 C 190.54 92.84 189.69 93.67 189.68 94.71 C 189.67 95.74 190.50 96.59 191.53 96.60 Z M 192.51 96.62 L 193.55 96.63 C 194.58 96.64 195.43 95.81 195.45 94.78 C 195.46 93.74 194.63 92.89 193.59 92.88 L 192.56 92.86 C 191.53 92.85 190.67 93.68 190.66 94.72 C 190.65 95.75 191.48 96.60 192.51 96.62 Z M 193.54 96.63 L 194.69 96.65 C 195.73 96.67 196.58 95.84 196.60 94.80 C 196.62 93.77 195.79 92.91 194.75 92.89 L 193.60 92.87 C 192.56 92.86 191.71 93.68 191.69 94.72 C 191.67 95.76 192.50 96.62 193.54 96.63 Z M 194.67 96.66 L 195.79 96.69 C 196.83 96.71 197.69 95.89 197.72 94.85 C 197.75 93.81 196.92 92.94 195.88 92.92 L 194.77 92.89 C 193.73 92.86 192.86 93.68 192.83 94.72 C 192.81 95.77 193.63 96.63 194.67 96.66 Z M 195.76 96.69 L 196.85 96.73 C 197.89 96.77 198.77 95.96 198.81 94.91 C 198.85 93.87 198.03 92.99 196.99 92.95 L 195.91 92.91 C 194.86 92.87 193.99 93.69 193.95 94.73 C 193.91 95.77 194.72 96.65 195.76 96.69 Z M 196.81 96.74 L 197.86 96.79 C 198.90 96.85 199.80 96.05 199.86 95.01 C 199.92 93.96 199.11 93.06 198.07 93.01 L 197.02 92.95 C 195.98 92.89 195.08 93.69 195.02 94.74 C 194.96 95.78 195.77 96.68 196.81 96.74 Z M 197.81 96.80 L 198.82 96.88 C 199.87 96.96 200.79 96.18 200.87 95.13 C 200.95 94.08 200.17 93.16 199.12 93.08 L 198.11 93.00 C 197.06 92.92 196.15 93.70 196.07 94.75 C 195.98 95.80 196.77 96.71 197.81 96.80 Z M 198.77 96.88 L 199.74 96.98 C 200.79 97.09 201.73 96.34 201.84 95.29 C 201.95 94.24 201.20 93.30 200.15 93.19 L 199.18 93.08 C 198.13 92.97 197.19 93.73 197.07 94.77 C 196.96 95.82 197.72 96.76 198.77 96.88 Z M 199.67 96.98 L 200.61 97.11 C 201.65 97.26 202.62 96.54 202.77 95.49 C 202.92 94.45 202.20 93.48 201.15 93.32 L 200.22 93.19 C 199.17 93.04 198.20 93.76 198.05 94.81 C 197.90 95.86 198.63 96.83 199.67 96.98 Z M 200.52 97.11 L 201.42 97.27 C 202.46 97.47 203.46 96.78 203.66 95.74 C 203.86 94.70 203.17 93.70 202.13 93.50 L 201.23 93.33 C 200.19 93.14 199.19 93.82 198.99 94.86 C 198.80 95.91 199.48 96.91 200.52 97.11 Z M 201.32 97.26 L 202.18 97.47 C 203.21 97.72 204.25 97.08 204.50 96.05 C 204.75 95.01 204.11 93.97 203.08 93.72 L 202.23 93.52 C 201.19 93.27 200.15 93.90 199.90 94.93 C 199.65 95.97 200.29 97.01 201.32 97.26 Z M 202.06 97.44 L 202.88 97.69 C 203.90 98.00 204.98 97.43 205.29 96.41 C 205.60 95.39 205.03 94.31 204.01 94.00 L 203.19 93.75 C 202.17 93.44 201.09 94.01 200.78 95.03 C 200.47 96.05 201.04 97.13 202.06 97.44 Z M 202.74 97.65 L 203.67 98.01 C 204.66 98.40 205.79 97.91 206.18 96.91 C 206.57 95.92 206.07 94.79 205.08 94.40 L 204.15 94.04 C 203.15 93.65 202.03 94.14 201.64 95.14 C 201.25 96.13 201.74 97.26 202.74 97.65 Z M 203.50 97.94 L 204.41 98.40 C 205.37 98.88 206.53 98.50 207.02 97.54 C 207.50 96.58 207.11 95.41 206.15 94.93 L 205.25 94.47 C 204.29 93.99 203.12 94.37 202.63 95.33 C 202.15 96.29 202.54 97.46 203.50 97.94 Z M 204.23 98.31 L 205.07 98.84 C 205.98 99.42 207.18 99.16 207.76 98.25 C 208.34 97.34 208.07 96.13 207.17 95.55 L 206.33 95.02 C 205.42 94.44 204.21 94.70 203.63 95.61 C 203.05 96.52 203.32 97.73 204.23 98.31 Z M 204.89 98.73 L 205.65 99.34 C 206.50 100.01 207.73 99.88 208.41 99.03 C 209.09 98.18 208.95 96.95 208.10 96.27 L 207.34 95.66 C 206.49 94.99 205.26 95.13 204.58 95.97 C 203.91 96.82 204.04 98.05 204.89 98.73 Z M 205.49 99.20 L 206.17 99.89 C 206.94 100.65 208.19 100.65 208.96 99.88 C 209.73 99.11 209.73 97.87 208.96 97.10 L 208.27 96.41 C 207.50 95.64 206.25 95.64 205.48 96.41 C 204.72 97.18 204.72 98.43 205.49 99.20 Z M 206.02 99.73 L 206.63 100.49 C 207.31 101.34 208.55 101.48 209.41 100.80 C 210.26 100.12 210.40 98.87 209.72 98.02 L 209.11 97.26 C 208.43 96.40 207.19 96.26 206.33 96.95 C 205.48 97.63 205.34 98.87 206.02 99.73 Z M 206.49 100.31 L 207.02 101.15 C 207.61 102.08 208.83 102.36 209.76 101.77 C 210.69 101.19 210.97 99.96 210.38 99.04 L 209.86 98.20 C 209.27 97.27 208.04 96.99 207.12 97.57 C 206.19 98.16 205.91 99.38 206.49 100.31 Z M 206.91 100.97 L 207.36 101.88 C 207.84 102.87 209.03 103.28 210.02 102.80 C 211.01 102.32 211.42 101.13 210.94 100.14 L 210.50 99.22 C 210.01 98.23 208.82 97.82 207.83 98.30 C 206.84 98.78 206.43 99.98 206.91 100.97 Z M 207.27 101.70 L 207.60 102.59 C 207.98 103.63 209.13 104.16 210.17 103.78 C 211.21 103.39 211.74 102.24 211.35 101.21 L 211.03 100.32 C 210.64 99.28 209.49 98.75 208.46 99.13 C 207.42 99.52 206.89 100.67 207.27 101.70 Z M 207.55 102.44 L 207.78 103.26 C 208.07 104.33 209.18 104.95 210.25 104.66 C 211.31 104.36 211.94 103.25 211.64 102.18 L 211.41 101.36 C 211.11 100.29 210.00 99.67 208.94 99.97 C 207.87 100.27 207.25 101.37 207.55 102.44 Z M 207.74 103.13 L 207.92 104.00 C 208.15 105.09 209.21 105.79 210.30 105.56 C 211.38 105.34 212.08 104.27 211.86 103.19 L 211.67 102.32 C 211.45 101.23 210.39 100.53 209.30 100.76 C 208.21 100.98 207.52 102.05 207.74 103.13 Z M 207.90 103.88 L 208.03 104.79 C 208.19 105.89 209.21 106.66 210.31 106.50 C 211.41 106.34 212.17 105.32 212.01 104.22 L 211.88 103.31 C 211.72 102.21 210.70 101.44 209.60 101.60 C 208.50 101.76 207.74 102.78 207.90 103.88 Z M 208.01 104.69 L 208.10 105.64 C 208.20 106.75 209.18 107.56 210.29 107.46 C 211.40 107.36 212.21 106.38 212.11 105.28 L 212.03 104.32 C 211.93 103.22 210.95 102.40 209.84 102.50 C 208.73 102.60 207.91 103.58 208.01 104.69 Z M 208.09 105.54 L 208.13 106.53 C 208.18 107.64 209.12 108.51 210.23 108.46 C 211.35 108.41 212.21 107.47 212.16 106.36 L 212.12 105.37 C 212.08 104.26 211.14 103.39 210.02 103.44 C 208.91 103.49 208.04 104.43 208.09 105.54 Z M 208.13 106.44 L 208.13 107.47 C 208.12 108.58 209.03 109.49 210.14 109.49 C 211.26 109.49 212.17 108.59 212.17 107.47 L 212.17 106.45 C 212.17 105.33 211.27 104.42 210.15 104.42 C 209.03 104.42 208.13 105.33 208.13 106.44 Z M 208.12 107.39 L 208.08 108.44 C 208.04 109.56 208.91 110.50 210.03 110.55 C 211.14 110.59 212.08 109.72 212.13 108.60 L 212.17 107.55 C 212.21 106.43 211.34 105.49 210.23 105.44 C 209.11 105.40 208.17 106.27 208.12 107.39 Z M 208.08 108.37 L 208.00 109.46 C 207.92 110.58 208.76 111.55 209.88 111.63 C 210.99 111.71 211.96 110.88 212.05 109.76 L 212.13 108.67 C 212.21 107.56 211.37 106.58 210.25 106.50 C 209.14 106.42 208.17 107.26 208.08 108.37 Z M 208.01 109.40 L 207.89 110.51 C 207.77 111.63 208.58 112.63 209.70 112.74 C 210.81 112.86 211.81 112.05 211.93 110.94 L 212.04 109.82 C 212.16 108.71 211.35 107.71 210.24 107.59 C 209.12 107.47 208.12 108.28 208.01 109.40 Z M 207.89 110.46 L 207.74 111.60 C 207.59 112.71 208.38 113.73 209.49 113.88 C 210.60 114.03 211.63 113.25 211.77 112.13 L 211.92 110.99 C 212.07 109.88 211.29 108.86 210.18 108.71 C 209.06 108.56 208.04 109.34 207.89 110.46 Z M 207.75 111.55 L 207.60 112.51 C 207.42 113.62 208.18 114.66 209.29 114.84 C 210.40 115.01 211.45 114.25 211.62 113.14 L 211.77 112.18 C 211.94 111.07 211.18 110.03 210.07 109.85 C 208.96 109.68 207.92 110.44 207.75 111.55 Z M 207.60 112.48 L 207.44 113.42 C 207.24 114.53 207.99 115.59 209.09 115.78 C 210.20 115.97 211.26 115.23 211.45 114.12 L 211.61 113.18 C 211.81 112.07 211.06 111.01 209.96 110.82 C 208.85 110.63 207.80 111.37 207.60 112.48 Z M 207.44 113.39 L 207.26 114.35 C 207.05 115.46 207.77 116.52 208.88 116.73 C 209.98 116.94 211.05 116.22 211.26 115.11 L 211.44 114.15 C 211.65 113.05 210.93 111.98 209.82 111.77 C 208.72 111.56 207.65 112.29 207.44 113.39 Z M 207.26 114.33 L 207.07 115.29 C 206.84 116.40 207.55 117.47 208.65 117.70 C 209.76 117.92 210.83 117.21 211.06 116.11 L 211.26 115.14 C 211.48 114.04 210.77 112.96 209.67 112.74 C 208.57 112.51 207.49 113.22 207.26 114.33 Z M 207.07 115.27 L 206.86 116.25 C 206.62 117.35 207.32 118.43 208.42 118.67 C 209.52 118.91 210.60 118.21 210.84 117.11 L 211.05 116.13 C 211.29 115.03 210.59 113.95 209.49 113.71 C 208.39 113.47 207.31 114.17 207.07 115.27 Z M 206.86 116.23 L 206.64 117.21 C 206.39 118.31 207.08 119.40 208.18 119.65 C 209.27 119.90 210.36 119.21 210.61 118.11 L 210.84 117.13 C 211.09 116.03 210.40 114.94 209.30 114.69 C 208.20 114.44 207.11 115.13 206.86 116.23 Z M 206.64 117.19 L 206.41 118.18 C 206.15 119.28 206.83 120.37 207.92 120.63 C 209.02 120.89 210.12 120.21 210.38 119.12 L 210.61 118.13 C 210.87 117.04 210.19 115.94 209.10 115.68 C 208.00 115.42 206.90 116.10 206.64 117.19 Z M 206.41 118.17 L 206.17 119.16 C 205.90 120.25 206.58 121.35 207.67 121.62 C 208.76 121.89 209.87 121.22 210.13 120.12 L 210.37 119.13 C 210.64 118.04 209.97 116.94 208.88 116.67 C 207.78 116.40 206.68 117.07 206.41 118.17 Z M 206.17 119.14 L 205.93 120.13 C 205.65 121.23 206.32 122.33 207.41 122.61 C 208.50 122.88 209.61 122.22 209.88 121.12 L 210.13 120.13 C 210.40 119.04 209.74 117.93 208.65 117.66 C 207.55 117.39 206.45 118.05 206.17 119.14 Z M 205.93 120.13 L 205.68 121.11 C 205.40 122.21 206.06 123.32 207.15 123.59 C 208.24 123.87 209.35 123.21 209.63 122.12 L 209.88 121.13 C 210.16 120.04 209.50 118.93 208.41 118.65 C 207.32 118.37 206.21 119.03 205.93 120.13 Z M 205.68 121.11 L 205.42 122.09 C 205.14 123.18 205.80 124.30 206.89 124.58 C 207.98 124.86 209.09 124.20 209.37 123.11 L 209.63 122.13 C 209.91 121.04 209.25 119.92 208.16 119.64 C 207.07 119.36 205.96 120.02 205.68 121.11 Z M 205.42 122.09 L 205.17 123.07 C 204.89 124.16 205.54 125.28 206.63 125.56 C 207.72 125.84 208.84 125.19 209.12 124.10 L 209.37 123.12 C 209.66 122.03 209.00 120.91 207.91 120.63 C 206.82 120.34 205.71 121.00 205.42 122.09 Z M 205.17 123.07 L 204.92 124.04 C 204.63 125.13 205.29 126.25 206.38 126.53 C 207.47 126.82 208.58 126.16 208.87 125.07 L 209.12 124.10 C 209.40 123.01 208.75 121.89 207.66 121.61 C 206.57 121.32 205.45 121.98 205.17 123.07 Z M 204.91 124.04 L 204.68 124.95 C 204.40 126.04 205.05 127.15 206.14 127.44 C 207.23 127.72 208.35 127.07 208.63 125.97 L 208.87 125.07 C 209.15 123.98 208.49 122.86 207.40 122.58 C 206.31 122.30 205.20 122.95 204.91 124.04 Z M 204.68 124.95 L 204.45 125.83 C 204.17 126.92 204.83 128.03 205.92 128.31 C 207.01 128.59 208.13 127.94 208.41 126.85 L 208.63 125.97 C 208.91 124.88 208.26 123.77 207.17 123.48 C 206.07 123.20 204.96 123.86 204.68 124.95 Z M 204.45 125.83 L 204.23 126.70 C 203.95 127.80 204.61 128.91 205.70 129.19 C 206.79 129.47 207.90 128.81 208.18 127.72 L 208.41 126.84 C 208.69 125.75 208.03 124.64 206.94 124.36 C 205.84 124.08 204.73 124.74 204.45 125.83 Z M 204.23 126.71 L 204.00 127.59 C 203.73 128.68 204.39 129.79 205.48 130.07 C 206.57 130.34 207.69 129.68 207.96 128.59 L 208.19 127.71 C 208.46 126.62 207.80 125.51 206.71 125.23 C 205.62 124.95 204.50 125.62 204.23 126.71 Z M 204.00 127.59 L 203.78 128.48 C 203.51 129.57 204.17 130.68 205.26 130.95 C 206.36 131.23 207.47 130.56 207.74 129.47 L 207.96 128.59 C 208.24 127.49 207.57 126.38 206.48 126.11 C 205.39 125.83 204.28 126.50 204.00 127.59 Z M 203.78 128.48 L 203.56 129.38 C 203.29 130.47 203.95 131.58 205.05 131.85 C 206.14 132.12 207.25 131.46 207.52 130.36 L 207.74 129.47 C 208.01 128.37 207.35 127.26 206.25 126.99 C 205.16 126.72 204.05 127.39 203.78 128.48 Z M 203.56 129.39 L 203.33 130.30 C 203.06 131.39 203.73 132.50 204.83 132.77 C 205.92 133.04 207.03 132.37 207.30 131.27 L 207.52 130.36 C 207.79 129.26 207.12 128.16 206.02 127.89 C 204.93 127.62 203.82 128.29 203.56 129.39 Z M 203.33 130.31 L 203.10 131.24 C 202.84 132.34 203.51 133.44 204.61 133.71 C 205.71 133.97 206.81 133.30 207.07 132.20 L 207.30 131.27 C 207.56 130.17 206.89 129.07 205.79 128.80 C 204.70 128.54 203.60 129.21 203.33 130.31 Z M 203.10 131.25 L 202.87 132.21 C 202.61 133.30 203.29 134.41 204.39 134.67 C 205.48 134.93 206.59 134.25 206.85 133.15 L 207.08 132.19 C 207.34 131.10 206.66 130.00 205.56 129.73 C 204.47 129.47 203.36 130.15 203.10 131.25 Z M 202.87 132.21 L 202.64 133.20 C 202.38 134.30 203.06 135.40 204.16 135.66 C 205.26 135.91 206.36 135.23 206.62 134.14 L 206.85 133.15 C 207.11 132.05 206.42 130.95 205.33 130.69 C 204.23 130.43 203.13 131.12 202.87 132.21 Z M 202.64 133.21 L 202.40 134.23 C 202.15 135.33 202.83 136.43 203.93 136.68 C 205.03 136.94 206.13 136.25 206.38 135.15 L 206.62 134.13 C 206.87 133.03 206.19 131.93 205.09 131.68 C 203.99 131.43 202.89 132.11 202.64 133.21 Z M 202.40 134.24 L 202.16 135.30 C 201.91 136.40 202.60 137.49 203.70 137.74 C 204.80 137.99 205.89 137.31 206.14 136.21 L 206.38 135.15 C 206.63 134.05 205.94 132.95 204.85 132.70 C 203.75 132.45 202.65 133.14 202.40 134.24 Z M 202.16 135.31 L 201.91 136.41 C 201.66 137.51 202.36 138.60 203.46 138.85 C 204.56 139.09 205.65 138.40 205.90 137.30 L 206.14 136.20 C 206.39 135.10 205.70 134.01 204.60 133.76 C 203.50 133.51 202.40 134.21 202.16 135.31 Z M 201.91 136.41 L 201.66 137.56 C 201.41 138.66 202.11 139.75 203.21 140.00 C 204.31 140.24 205.40 139.55 205.64 138.44 L 205.90 137.30 C 206.14 136.19 205.44 135.10 204.34 134.86 C 203.24 134.62 202.15 135.31 201.91 136.41 Z M 201.65 137.57 L 201.41 138.69 C 201.17 139.80 201.87 140.88 202.97 141.12 C 204.07 141.36 205.16 140.67 205.40 139.56 L 205.64 138.44 C 205.88 137.34 205.19 136.25 204.08 136.01 C 202.98 135.77 201.89 136.47 201.65 137.57 Z M 201.41 138.70 L 201.21 139.63 C 200.97 140.74 201.67 141.82 202.77 142.06 C 203.88 142.30 204.96 141.60 205.20 140.49 L 205.40 139.56 C 205.64 138.46 204.94 137.37 203.83 137.13 C 202.73 136.90 201.65 137.60 201.41 138.70 Z M 201.21 139.64 L 201.00 140.60 C 200.77 141.70 201.47 142.79 202.57 143.02 C 203.67 143.26 204.76 142.55 204.99 141.45 L 205.20 140.49 C 205.43 139.39 204.73 138.30 203.63 138.07 C 202.53 137.83 201.44 138.54 201.21 139.64 Z M 201.00 140.60 L 200.79 141.59 C 200.56 142.69 201.26 143.77 202.37 144.01 C 203.47 144.24 204.55 143.53 204.79 142.43 L 204.99 141.45 C 205.23 140.35 204.52 139.26 203.42 139.03 C 202.32 138.80 201.23 139.50 201.00 140.60 Z M 200.79 141.59 L 200.58 142.59 C 200.35 143.70 201.06 144.78 202.16 145.01 C 203.26 145.24 204.35 144.53 204.58 143.43 L 204.79 142.43 C 205.02 141.33 204.31 140.24 203.21 140.01 C 202.11 139.78 201.02 140.49 200.79 141.59 Z M 200.58 142.60 L 200.37 143.61 C 200.14 144.72 200.85 145.80 201.95 146.03 C 203.06 146.26 204.14 145.55 204.37 144.45 L 204.58 143.43 C 204.81 142.32 204.10 141.24 203.00 141.01 C 201.89 140.79 200.81 141.49 200.58 142.60 Z M 200.37 143.62 L 200.16 144.65 C 199.93 145.75 200.64 146.83 201.74 147.06 C 202.85 147.28 203.93 146.57 204.15 145.47 L 204.37 144.44 C 204.59 143.34 203.88 142.26 202.78 142.03 C 201.68 141.80 200.60 142.51 200.37 143.62 Z M 200.16 144.65 L 199.94 145.68 C 199.72 146.79 200.43 147.87 201.53 148.09 C 202.64 148.32 203.71 147.61 203.94 146.50 L 204.15 145.47 C 204.38 144.36 203.67 143.29 202.57 143.06 C 201.46 142.83 200.38 143.54 200.16 144.65 Z M 199.94 145.69 L 199.73 146.73 C 199.51 147.83 200.22 148.91 201.32 149.13 C 202.43 149.36 203.50 148.64 203.73 147.54 L 203.94 146.50 C 204.17 145.40 203.45 144.32 202.35 144.10 C 201.25 143.87 200.17 144.58 199.94 145.69 Z M 199.73 146.73 L 199.52 147.77 C 199.30 148.87 200.01 149.95 201.11 150.17 C 202.22 150.40 203.29 149.68 203.52 148.58 L 203.73 147.54 C 203.95 146.43 203.24 145.36 202.14 145.13 C 201.03 144.91 199.96 145.62 199.73 146.73 Z M 199.52 147.77 L 199.31 148.81 C 199.09 149.91 199.80 150.99 200.91 151.21 C 202.01 151.43 203.09 150.72 203.31 149.61 L 203.52 148.58 C 203.74 147.47 203.03 146.40 201.92 146.17 C 200.82 145.95 199.74 146.67 199.52 147.77 Z M 199.31 148.81 L 199.11 149.84 C 198.88 150.94 199.60 152.02 200.70 152.24 C 201.81 152.46 202.88 151.74 203.10 150.64 L 203.31 149.61 C 203.53 148.51 202.82 147.43 201.71 147.21 C 200.61 146.99 199.53 147.70 199.31 148.81 Z M 199.11 149.84 L 198.90 150.86 C 198.68 151.96 199.40 153.03 200.50 153.25 C 201.61 153.47 202.68 152.76 202.90 151.65 L 203.10 150.64 C 203.32 149.53 202.61 148.46 201.50 148.24 C 200.40 148.02 199.33 148.74 199.11 149.84 Z M 198.90 150.86 L 198.70 151.86 C 198.49 152.97 199.20 154.04 200.31 154.26 C 201.41 154.48 202.48 153.76 202.70 152.65 L 202.90 151.65 C 203.12 150.55 202.40 149.47 201.30 149.26 C 200.19 149.04 199.12 149.75 198.90 150.86 Z M 198.70 151.86 L 198.51 152.85 C 198.29 153.95 199.01 155.02 200.12 155.24 C 201.22 155.46 202.29 154.74 202.51 153.63 L 202.70 152.65 C 202.92 151.55 202.20 150.48 201.10 150.26 C 199.99 150.04 198.92 150.76 198.70 151.86 Z M 198.51 152.85 L 198.32 153.81 C 198.11 154.92 198.83 155.99 199.93 156.20 C 201.04 156.42 202.11 155.70 202.32 154.59 L 202.51 153.63 C 202.73 152.53 202.01 151.46 200.90 151.24 C 199.80 151.03 198.73 151.75 198.51 152.85 Z M 198.32 153.81 L 198.14 154.75 C 197.93 155.86 198.65 156.92 199.75 157.14 C 200.86 157.35 201.93 156.63 202.14 155.53 L 202.32 154.59 C 202.54 153.49 201.82 152.42 200.71 152.20 C 199.61 151.99 198.54 152.71 198.32 153.81 Z M 198.14 154.75 L 197.97 155.66 C 197.75 156.76 198.47 157.83 199.58 158.05 C 200.68 158.26 201.75 157.54 201.97 156.43 L 202.14 155.53 C 202.35 154.42 201.63 153.35 200.53 153.14 C 199.42 152.93 198.35 153.65 198.14 154.75 Z M 197.97 155.66 L 197.80 156.54 C 197.59 157.64 198.31 158.71 199.41 158.92 C 200.52 159.13 201.59 158.41 201.80 157.30 L 201.97 156.43 C 202.18 155.32 201.45 154.26 200.35 154.05 C 199.24 153.83 198.18 154.56 197.97 155.66 Z M 197.80 156.54 L 197.63 157.42 C 197.42 158.52 198.15 159.59 199.25 159.80 C 200.36 160.01 201.42 159.28 201.63 158.18 L 201.80 157.30 C 202.01 156.19 201.28 155.13 200.18 154.92 C 199.07 154.71 198.01 155.43 197.80 156.54 Z M 197.63 157.42 L 197.37 158.79 C 197.17 159.90 197.89 160.96 199.00 161.17 C 200.10 161.38 201.17 160.65 201.37 159.54 L 201.63 158.17 C 201.84 157.07 201.11 156.01 200.01 155.80 C 198.90 155.59 197.84 156.32 197.63 157.42 Z M 197.38 158.80 L 197.14 160.06 C 196.94 161.16 197.67 162.22 198.77 162.42 C 199.88 162.63 200.93 161.90 201.14 160.80 L 201.37 159.54 C 201.57 158.44 200.85 157.38 199.74 157.17 C 198.64 156.97 197.58 157.70 197.38 158.80 Z M 197.15 160.07 L 196.94 161.22 C 196.74 162.32 197.47 163.38 198.57 163.58 C 199.67 163.78 200.73 163.05 200.93 161.95 L 201.14 160.79 C 201.34 159.69 200.61 158.63 199.50 158.43 C 198.40 158.23 197.35 158.96 197.15 160.07 Z M 196.94 161.23 L 196.75 162.30 C 196.55 163.40 197.29 164.45 198.39 164.64 C 199.49 164.84 200.54 164.11 200.73 163.01 L 200.92 161.94 C 201.12 160.84 200.39 159.79 199.29 159.59 C 198.19 159.39 197.13 160.13 196.94 161.23 Z M 196.75 162.30 L 196.58 163.29 C 196.39 164.39 197.12 165.44 198.22 165.63 C 199.32 165.82 200.37 165.09 200.56 163.99 L 200.73 163.00 C 200.92 161.90 200.19 160.85 199.09 160.66 C 197.99 160.47 196.94 161.20 196.75 162.30 Z M 196.58 163.30 L 196.42 164.22 C 196.23 165.32 196.97 166.36 198.07 166.55 C 199.17 166.74 200.21 166.00 200.40 164.90 L 200.56 163.98 C 200.75 162.88 200.01 161.84 198.91 161.65 C 197.81 161.46 196.77 162.20 196.58 163.30 Z M 196.42 164.23 L 196.28 165.09 C 196.09 166.19 196.84 167.23 197.93 167.41 C 199.03 167.60 200.07 166.86 200.25 165.76 L 200.40 164.89 C 200.58 163.80 199.84 162.76 198.74 162.57 C 197.65 162.39 196.61 163.13 196.42 164.23 Z M 196.28 165.10 L 196.15 165.92 C 195.97 167.02 196.71 168.05 197.80 168.23 C 198.90 168.41 199.93 167.67 200.11 166.58 L 200.25 165.75 C 200.43 164.66 199.69 163.62 198.59 163.44 C 197.50 163.26 196.46 164.00 196.28 165.10 Z M 196.15 165.93 L 196.02 166.72 C 195.84 167.81 196.59 168.84 197.68 169.02 C 198.77 169.20 199.81 168.46 199.98 167.36 L 200.11 166.57 C 200.29 165.48 199.55 164.45 198.45 164.27 C 197.36 164.09 196.33 164.83 196.15 165.93 Z M 196.02 166.72 L 195.90 167.49 C 195.72 168.58 196.47 169.61 197.56 169.79 C 198.65 169.96 199.68 169.22 199.86 168.13 L 199.98 167.36 C 200.16 166.26 199.41 165.24 198.32 165.06 C 197.23 164.88 196.20 165.63 196.02 166.72 Z M 195.90 167.49 L 195.77 168.29 C 195.60 169.38 196.34 170.40 197.43 170.58 C 198.53 170.75 199.55 170.01 199.73 168.92 L 199.85 168.12 C 200.03 167.03 199.29 166.01 198.19 165.83 C 197.10 165.66 196.08 166.40 195.90 167.49 Z M 195.78 168.29 L 195.62 169.27 C 195.45 170.36 196.19 171.38 197.28 171.56 C 198.37 171.73 199.39 170.99 199.57 169.90 L 199.72 168.92 C 199.90 167.83 199.16 166.80 198.07 166.63 C 196.98 166.45 195.95 167.20 195.78 168.29 Z M 195.62 169.27 L 195.47 170.25 C 195.29 171.34 196.04 172.37 197.12 172.54 C 198.21 172.71 199.24 171.97 199.41 170.88 L 199.57 169.90 C 199.74 168.81 199.00 167.79 197.91 167.61 C 196.82 167.44 195.80 168.18 195.62 169.27 Z M 195.47 170.26 L 195.31 171.24 C 195.14 172.33 195.88 173.35 196.97 173.52 C 198.06 173.69 199.08 172.95 199.25 171.86 L 199.41 170.88 C 199.58 169.79 198.84 168.77 197.75 168.60 C 196.66 168.43 195.64 169.17 195.47 170.26 Z M 195.31 171.24 L 195.16 172.23 C 194.99 173.32 195.74 174.34 196.82 174.51 C 197.91 174.67 198.93 173.93 199.10 172.84 L 199.25 171.86 C 199.42 170.77 198.68 169.75 197.59 169.58 C 196.50 169.41 195.48 170.16 195.31 171.24 Z M 195.16 172.24 L 195.01 173.22 C 194.84 174.31 195.59 175.33 196.68 175.49 C 197.76 175.66 198.78 174.91 198.95 173.83 L 199.10 172.84 C 199.26 171.75 198.52 170.74 197.43 170.57 C 196.34 170.40 195.33 171.15 195.16 172.24 Z M 195.01 173.23 L 194.86 174.22 C 194.70 175.31 195.45 176.32 196.54 176.48 C 197.62 176.64 198.63 175.90 198.80 174.81 L 198.94 173.82 C 199.11 172.73 198.36 171.72 197.27 171.56 C 196.19 171.40 195.17 172.14 195.01 173.23 Z M 194.87 174.23 L 194.72 175.22 C 194.56 176.31 195.31 177.32 196.40 177.47 C 197.48 177.63 198.49 176.88 198.65 175.80 L 198.79 174.80 C 198.95 173.72 198.20 172.71 197.12 172.55 C 196.03 172.39 195.02 173.14 194.87 174.23 Z M 194.72 175.23 L 194.58 176.23 C 194.43 177.32 195.18 178.32 196.27 178.47 C 197.35 178.63 198.36 177.87 198.51 176.79 L 198.65 175.79 C 198.80 174.70 198.05 173.70 196.96 173.55 C 195.88 173.39 194.87 174.15 194.72 175.23 Z M 194.58 176.24 L 194.45 177.22 C 194.30 178.31 195.06 179.31 196.14 179.45 C 197.23 179.60 198.23 178.84 198.37 177.76 L 198.51 176.78 C 198.65 175.69 197.90 174.69 196.81 174.55 C 195.73 174.40 194.73 175.16 194.58 176.24 Z M 194.45 177.23 L 194.32 178.21 C 194.18 179.30 194.94 180.29 196.02 180.43 C 197.11 180.57 198.10 179.81 198.24 178.73 L 198.37 177.75 C 198.51 176.66 197.75 175.67 196.67 175.53 C 195.58 175.39 194.59 176.15 194.45 177.23 Z M 194.32 178.22 L 194.20 179.20 C 194.06 180.29 194.83 181.28 195.91 181.41 C 196.99 181.55 197.98 180.78 198.12 179.70 L 198.24 178.72 C 198.38 177.64 197.61 176.65 196.53 176.51 C 195.45 176.37 194.46 177.14 194.32 178.22 Z M 194.20 179.21 L 194.08 180.20 C 193.94 181.28 194.71 182.27 195.79 182.40 C 196.87 182.53 197.86 181.76 197.99 180.68 L 198.12 179.69 C 198.25 178.61 197.48 177.63 196.40 177.49 C 195.32 177.36 194.33 178.13 194.20 179.21 Z M 194.08 180.20 L 193.96 181.20 C 193.83 182.28 194.60 183.26 195.68 183.39 C 196.76 183.52 197.74 182.75 197.87 181.67 L 197.99 180.68 C 198.12 179.60 197.35 178.61 196.27 178.48 C 195.19 178.35 194.21 179.12 194.08 180.20 Z M 193.96 181.20 L 193.84 182.20 C 193.72 183.28 194.49 184.26 195.57 184.38 C 196.65 184.51 197.63 183.74 197.75 182.66 L 197.87 181.66 C 198.00 180.58 197.23 179.61 196.15 179.48 C 195.07 179.35 194.09 180.12 193.96 181.20 Z M 193.85 182.20 L 193.73 183.20 C 193.60 184.28 194.38 185.26 195.46 185.38 C 196.53 185.51 197.51 184.74 197.63 183.66 L 197.75 182.66 C 197.88 181.58 197.10 180.60 196.02 180.48 C 194.95 180.35 193.97 181.12 193.85 182.20 Z M 193.73 183.21 L 193.62 184.21 C 193.49 185.29 194.27 186.26 195.34 186.39 C 196.42 186.51 197.39 185.74 197.52 184.66 L 197.63 183.65 C 197.76 182.58 196.98 181.60 195.91 181.48 C 194.83 181.36 193.85 182.13 193.73 183.21 Z M 193.62 184.21 L 193.50 185.22 C 193.38 186.30 194.16 187.27 195.23 187.39 C 196.31 187.51 197.28 186.74 197.40 185.66 L 197.51 184.66 C 197.64 183.58 196.86 182.61 195.79 182.49 C 194.71 182.37 193.74 183.14 193.62 184.21 Z M 193.51 185.22 L 193.40 186.21 C 193.27 187.28 194.05 188.25 195.12 188.37 C 196.20 188.49 197.17 187.72 197.29 186.65 L 197.40 185.66 C 197.52 184.59 196.75 183.62 195.67 183.50 C 194.60 183.38 193.63 184.15 193.51 185.22 Z M 193.40 186.21 L 193.29 187.20 C 193.17 188.27 193.94 189.24 195.01 189.36 C 196.08 189.48 197.05 188.71 197.17 187.63 L 197.28 186.65 C 197.40 185.57 196.63 184.61 195.56 184.48 C 194.49 184.36 193.52 185.14 193.40 186.21 Z M 193.29 187.20 L 193.18 188.19 C 193.06 189.26 193.83 190.23 194.90 190.35 C 195.97 190.47 196.94 189.69 197.06 188.62 L 197.17 187.63 C 197.29 186.56 196.52 185.59 195.45 185.47 C 194.38 185.35 193.41 186.13 193.29 187.20 Z M 193.18 188.19 L 193.07 189.18 C 192.95 190.25 193.72 191.22 194.79 191.34 C 195.86 191.46 196.83 190.69 196.95 189.62 L 197.06 188.62 C 197.18 187.55 196.41 186.59 195.34 186.47 C 194.27 186.35 193.30 187.12 193.18 188.19 Z M 193.07 189.18 L 192.96 190.18 C 192.84 191.25 193.61 192.21 194.68 192.33 C 195.75 192.45 196.71 191.68 196.83 190.61 L 196.94 189.61 C 197.06 188.55 196.29 187.58 195.22 187.46 C 194.16 187.34 193.19 188.11 193.07 189.18 Z M 192.96 190.18 L 192.85 191.18 C 192.73 192.24 193.50 193.20 194.57 193.32 C 195.64 193.44 196.60 192.67 196.72 191.61 L 196.83 190.61 C 196.95 189.54 196.18 188.58 195.11 188.46 C 194.05 188.34 193.08 189.11 192.96 190.18 Z M 192.86 191.18 L 192.75 192.18 C 192.63 193.24 193.39 194.20 194.46 194.32 C 195.53 194.44 196.49 193.67 196.60 192.60 L 196.71 191.61 C 196.83 190.54 196.07 189.58 195.00 189.46 C 193.93 189.34 192.98 190.11 192.86 191.18 Z M 192.75 192.18 L 192.64 193.18 C 192.52 194.24 193.29 195.20 194.35 195.32 C 195.41 195.43 196.37 194.67 196.49 193.60 L 196.60 192.60 C 196.72 191.54 195.95 190.58 194.89 190.46 C 193.82 190.35 192.87 191.11 192.75 192.18 Z M 192.64 193.18 L 192.53 194.17 C 192.41 195.23 193.18 196.19 194.24 196.31 C 195.30 196.43 196.26 195.66 196.38 194.60 L 196.49 193.60 C 196.61 192.54 195.84 191.58 194.78 191.47 C 193.71 191.35 192.76 192.11 192.64 193.18 Z M 192.53 194.17 L 192.42 195.15 C 192.31 196.21 193.07 197.17 194.13 197.28 C 195.19 197.40 196.15 196.64 196.26 195.58 L 196.37 194.60 C 196.49 193.54 195.73 192.58 194.67 192.47 C 193.61 192.35 192.65 193.11 192.53 194.17 Z M 192.43 195.15 L 192.32 196.13 C 192.20 197.19 192.97 198.14 194.02 198.26 C 195.08 198.37 196.04 197.61 196.15 196.55 L 196.26 195.57 C 196.38 194.52 195.61 193.56 194.56 193.45 C 193.50 193.33 192.54 194.09 192.43 195.15 Z M 192.32 196.13 L 192.22 197.11 C 192.10 198.17 192.86 199.12 193.92 199.24 C 194.98 199.35 195.93 198.59 196.04 197.53 L 196.15 196.55 C 196.26 195.49 195.50 194.54 194.44 194.43 C 193.39 194.31 192.44 195.08 192.32 196.13 Z M 192.22 197.12 L 192.11 198.10 C 192.00 199.16 192.76 200.10 193.82 200.22 C 194.87 200.33 195.82 199.57 195.93 198.51 L 196.04 197.53 C 196.15 196.47 195.39 195.53 194.33 195.41 C 193.28 195.30 192.33 196.06 192.22 197.12 Z M 192.12 198.11 L 192.01 199.10 C 191.90 200.15 192.67 201.09 193.72 201.21 C 194.77 201.32 195.72 200.55 195.83 199.50 L 195.93 198.51 C 196.04 197.46 195.28 196.51 194.22 196.40 C 193.17 196.29 192.23 197.06 192.12 198.11 Z M 192.02 199.10 L 191.92 200.10 C 191.81 201.15 192.57 202.09 193.62 202.20 C 194.68 202.31 195.61 201.54 195.72 200.49 L 195.82 199.49 C 195.93 198.44 195.16 197.50 194.11 197.40 C 193.06 197.29 192.12 198.05 192.02 199.10 Z M 191.92 200.11 L 191.82 201.11 C 191.72 202.16 192.48 203.10 193.53 203.20 C 194.58 203.30 195.52 202.54 195.62 201.49 L 195.72 200.48 C 195.82 199.43 195.05 198.50 194.01 198.40 C 192.96 198.29 192.02 199.06 191.92 200.11 Z M 191.82 201.12 L 191.73 202.14 C 191.63 203.18 192.40 204.11 193.44 204.21 C 194.49 204.31 195.42 203.54 195.52 202.50 L 195.62 201.48 C 195.72 200.43 194.95 199.50 193.90 199.40 C 192.85 199.31 191.92 200.07 191.82 201.12 Z M 191.73 202.15 L 191.64 203.17 C 191.54 204.22 192.31 205.14 193.36 205.23 C 194.41 205.33 195.33 204.56 195.42 203.51 L 195.52 202.49 C 195.61 201.44 194.84 200.52 193.79 200.42 C 192.75 200.33 191.82 201.10 191.73 202.15 Z M 191.64 203.18 L 191.57 204.01 C 191.48 205.05 192.25 205.97 193.30 206.06 C 194.34 206.15 195.26 205.38 195.35 204.33 L 195.42 203.50 C 195.51 202.46 194.74 201.54 193.69 201.45 C 192.65 201.36 191.73 202.13 191.64 203.18 Z M 191.57 204.01 L 191.50 204.86 C 191.42 205.90 192.19 206.81 193.24 206.90 C 194.28 206.99 195.19 206.21 195.28 205.17 L 195.35 204.32 C 195.43 203.28 194.66 202.37 193.61 202.28 C 192.57 202.20 191.66 202.97 191.57 204.01 Z M 191.51 204.86 L 191.44 205.73 C 191.36 206.77 192.14 207.68 193.18 207.76 C 194.22 207.84 195.13 207.06 195.21 206.02 L 195.28 205.16 C 195.36 204.12 194.58 203.21 193.54 203.13 C 192.50 203.05 191.59 203.82 191.51 204.86 Z M 191.44 205.73 L 191.38 206.62 C 191.30 207.66 192.08 208.57 193.12 208.64 C 194.16 208.72 195.06 207.94 195.14 206.90 L 195.21 206.01 C 195.28 204.98 194.50 204.07 193.46 203.99 C 192.42 203.91 191.52 204.69 191.44 205.73 Z M 191.38 206.63 L 191.31 207.55 C 191.24 208.58 192.02 209.49 193.06 209.56 C 194.10 209.63 195.00 208.85 195.07 207.81 L 195.14 206.90 C 195.21 205.86 194.43 204.96 193.39 204.88 C 192.35 204.81 191.45 205.59 191.38 206.63 Z M 191.32 207.55 L 191.25 208.51 C 191.18 209.55 191.96 210.44 193.00 210.51 C 194.04 210.58 194.93 209.80 195.00 208.77 L 195.07 207.81 C 195.14 206.77 194.36 205.88 193.32 205.81 C 192.28 205.73 191.39 206.52 191.32 207.55 Z M 191.25 208.52 L 191.19 209.52 C 191.12 210.55 191.91 211.44 192.94 211.51 C 193.97 211.58 194.87 210.79 194.93 209.76 L 195.00 208.76 C 195.07 207.73 194.28 206.83 193.25 206.76 C 192.21 206.70 191.32 207.48 191.25 208.52 Z M 191.19 209.52 L 191.13 210.57 C 191.06 211.60 191.85 212.49 192.88 212.56 C 193.91 212.62 194.80 211.84 194.87 210.80 L 194.93 209.75 C 195.00 208.72 194.21 207.83 193.18 207.77 C 192.15 207.70 191.26 208.49 191.19 209.52 Z M 191.13 210.57 L 191.06 211.68 C 191.00 212.71 191.79 213.60 192.82 213.66 C 193.85 213.72 194.73 212.94 194.80 211.90 L 194.86 210.80 C 194.92 209.77 194.14 208.88 193.11 208.82 C 192.08 208.76 191.19 209.54 191.13 210.57 Z M 191.07 211.68 L 191.00 212.85 C 190.94 213.88 191.72 214.76 192.75 214.82 C 193.78 214.88 194.66 214.10 194.72 213.07 L 194.79 211.90 C 194.85 210.87 194.07 209.99 193.04 209.93 C 192.01 209.87 191.13 210.65 191.07 211.68 Z M 191.00 212.85 L 190.93 214.09 C 190.87 215.11 191.66 215.99 192.69 216.05 C 193.71 216.11 194.59 215.32 194.65 214.30 L 194.72 213.06 C 194.78 212.04 193.99 211.16 192.97 211.10 C 191.94 211.04 191.06 211.83 191.00 212.85 Z M 190.93 214.09 L 190.88 215.16 C 190.82 216.19 191.60 217.06 192.63 217.12 C 193.65 217.18 194.53 216.39 194.59 215.37 L 194.65 214.29 C 194.70 213.27 193.92 212.39 192.89 212.33 C 191.87 212.28 190.99 213.06 190.93 214.09 Z M 190.88 215.16 L 190.83 216.10 C 190.77 217.12 191.56 218.00 192.58 218.05 C 193.60 218.11 194.48 217.32 194.53 216.30 L 194.58 215.36 C 194.64 214.34 193.86 213.47 192.83 213.41 C 191.81 213.35 190.93 214.14 190.88 215.16 Z M 190.83 216.10 L 190.78 217.06 C 190.72 218.09 191.51 218.96 192.53 219.01 C 193.55 219.07 194.42 218.28 194.48 217.26 L 194.53 216.30 C 194.59 215.28 193.80 214.40 192.78 214.35 C 191.76 214.29 190.88 215.08 190.83 216.10 Z M 190.78 217.06 L 190.73 218.05 C 190.67 219.07 191.46 219.95 192.48 220.00 C 193.50 220.05 194.37 219.27 194.42 218.25 L 194.48 217.26 C 194.53 216.24 193.75 215.37 192.73 215.31 C 191.71 215.26 190.83 216.04 190.78 217.06 Z M 190.73 218.06 L 190.68 219.07 C 190.63 220.08 191.41 220.95 192.43 221.01 C 193.45 221.06 194.32 220.28 194.37 219.26 L 194.42 218.25 C 194.47 217.23 193.69 216.36 192.67 216.31 C 191.65 216.25 190.78 217.04 190.73 218.06 Z M 190.68 219.07 L 190.63 220.09 C 190.58 221.11 191.36 221.98 192.38 222.03 C 193.40 222.08 194.26 221.30 194.31 220.28 L 194.37 219.26 C 194.42 218.24 193.64 217.37 192.62 217.32 C 191.60 217.27 190.73 218.05 190.68 219.07 Z M 190.63 220.10 L 190.58 221.13 C 190.53 222.15 191.31 223.01 192.33 223.07 C 193.34 223.12 194.21 222.33 194.26 221.32 L 194.31 220.28 C 194.36 219.26 193.58 218.40 192.56 218.35 C 191.55 218.30 190.68 219.08 190.63 220.10 Z M 190.58 221.14 L 190.53 222.18 C 190.48 223.20 191.26 224.06 192.28 224.11 C 193.29 224.16 194.16 223.38 194.21 222.36 L 194.26 221.32 C 194.31 220.30 193.52 219.44 192.51 219.39 C 191.49 219.34 190.63 220.12 190.58 221.14 Z M 190.53 222.18 L 190.48 223.23 C 190.44 224.25 191.22 225.11 192.23 225.15 C 193.24 225.20 194.10 224.42 194.15 223.41 L 194.20 222.36 C 194.25 221.35 193.47 220.48 192.46 220.44 C 191.44 220.39 190.58 221.17 190.53 222.18 Z M 190.49 223.23 L 190.44 224.28 C 190.39 225.29 191.17 226.15 192.18 226.20 C 193.20 226.25 194.05 225.46 194.10 224.45 L 194.15 223.41 C 194.20 222.39 193.42 221.53 192.40 221.49 C 191.39 221.44 190.53 222.22 190.49 223.23 Z M 190.44 224.28 L 190.39 225.33 C 190.35 226.34 191.13 227.19 192.14 227.24 C 193.15 227.28 194.01 226.50 194.05 225.49 L 194.10 224.45 C 194.14 223.44 193.36 222.58 192.35 222.54 C 191.34 222.49 190.49 223.27 190.44 224.28 Z M 190.40 225.33 L 190.35 226.36 C 190.31 227.37 191.09 228.22 192.10 228.27 C 193.11 228.31 193.96 227.53 194.00 226.52 L 194.05 225.49 C 194.09 224.48 193.31 223.63 192.30 223.58 C 191.29 223.54 190.44 224.32 190.40 225.33 Z M 190.35 226.36 L 190.31 227.38 C 190.27 228.39 191.05 229.24 192.06 229.28 C 193.06 229.32 193.91 228.54 193.96 227.53 L 194.00 226.52 C 194.04 225.51 193.26 224.66 192.25 224.62 C 191.25 224.57 190.40 225.36 190.35 226.36 Z M 190.31 227.38 L 190.27 228.38 C 190.23 229.39 191.01 230.24 192.02 230.28 C 193.02 230.32 193.87 229.54 193.91 228.53 L 193.95 227.53 C 194.00 226.53 193.21 225.68 192.21 225.64 C 191.20 225.59 190.35 226.38 190.31 227.38 Z M 190.27 228.38 L 190.24 229.36 C 190.20 230.36 190.98 231.21 191.98 231.25 C 192.99 231.29 193.83 230.51 193.87 229.50 L 193.91 228.53 C 193.95 227.52 193.17 226.68 192.16 226.64 C 191.16 226.60 190.31 227.38 190.27 228.38 Z M 190.24 229.36 L 190.20 230.31 C 190.17 231.31 190.95 232.16 191.95 232.20 C 192.96 232.23 193.80 231.45 193.84 230.45 L 193.87 229.50 C 193.91 228.50 193.12 227.65 192.12 227.62 C 191.12 227.58 190.28 228.36 190.24 229.36 Z M 190.21 230.32 L 190.17 231.24 C 190.14 232.24 190.92 233.08 191.93 233.11 C 192.93 233.15 193.77 232.36 193.80 231.36 L 193.83 230.44 C 193.87 229.44 193.08 228.60 192.08 228.57 C 191.08 228.53 190.24 229.31 190.21 230.32 Z M 190.18 231.24 L 190.14 232.49 C 190.11 233.49 190.90 234.32 191.89 234.35 C 192.89 234.38 193.72 233.60 193.75 232.61 L 193.79 231.36 C 193.82 230.36 193.04 229.53 192.04 229.49 C 191.05 229.46 190.21 230.25 190.18 231.24 Z M 190.16 232.50 L 190.12 233.68 C 190.10 234.67 190.88 235.49 191.87 235.52 C 192.86 235.55 193.68 234.77 193.71 233.78 L 193.74 232.60 C 193.77 231.61 192.99 230.78 192.00 230.76 C 191.01 230.73 190.18 231.51 190.16 232.50 Z M 190.14 233.69 L 190.11 234.81 C 190.09 235.79 190.87 236.60 191.85 236.63 C 192.83 236.65 193.65 235.87 193.67 234.89 L 193.69 233.77 C 193.72 232.79 192.94 231.97 191.96 231.95 C 190.98 231.93 190.16 232.71 190.14 233.69 Z M 190.12 234.82 L 190.10 235.88 C 190.09 236.85 190.86 237.66 191.83 237.68 C 192.81 237.70 193.61 236.92 193.63 235.95 L 193.65 234.88 C 193.67 233.91 192.90 233.10 191.92 233.08 C 190.95 233.07 190.14 233.84 190.12 234.82 Z M 190.12 235.89 L 190.10 236.90 C 190.09 237.87 190.86 238.67 191.83 238.68 C 192.79 238.70 193.59 237.93 193.60 236.96 L 193.62 235.94 C 193.64 234.97 192.86 234.18 191.90 234.16 C 190.93 234.15 190.13 234.92 190.12 235.89 Z M 190.12 236.91 L 190.10 237.89 C 190.09 238.85 190.86 239.63 191.82 239.64 C 192.78 239.66 193.57 238.89 193.58 237.93 L 193.59 236.95 C 193.60 235.99 192.83 235.21 191.87 235.19 C 190.91 235.18 190.13 235.95 190.12 236.91 Z M 190.12 237.89 L 190.11 238.83 C 190.10 239.78 190.87 240.56 191.82 240.57 C 192.77 240.58 193.55 239.81 193.56 238.86 L 193.57 237.92 C 193.57 236.97 192.81 236.19 191.86 236.18 C 190.90 236.17 190.13 236.94 190.12 237.89 Z M 190.12 238.84 L 190.12 239.75 C 190.11 240.69 190.87 241.46 191.82 241.47 C 192.76 241.47 193.53 240.71 193.54 239.77 L 193.54 238.86 C 193.55 237.91 192.79 237.14 191.84 237.13 C 190.90 237.13 190.13 237.89 190.12 238.84 Z M 190.13 239.75 L 190.13 240.64 C 190.12 241.57 190.88 242.34 191.82 242.34 C 192.76 242.34 193.52 241.59 193.52 240.65 L 193.53 239.76 C 193.53 238.82 192.77 238.06 191.83 238.06 C 190.90 238.06 190.13 238.81 190.13 239.75 Z M 190.14 240.64 L 190.14 241.51 C 190.14 242.44 190.89 243.20 191.82 243.20 C 192.75 243.20 193.51 242.45 193.51 241.52 L 193.51 240.65 C 193.51 239.72 192.76 238.96 191.83 238.96 C 190.90 238.96 190.14 239.71 190.14 240.64 Z M 190.15 241.51 L 190.15 242.37 C 190.15 243.30 190.90 244.04 191.82 244.04 C 192.74 244.05 193.49 243.30 193.49 242.38 L 193.49 241.51 C 193.49 240.59 192.75 239.84 191.82 239.84 C 190.90 239.84 190.15 240.59 190.15 241.51 Z M 190.17 242.37 L 190.17 243.29 C 190.17 244.21 190.91 244.95 191.82 244.95 C 192.74 244.95 193.48 244.21 193.48 243.29 L 193.48 242.37 C 193.48 241.46 192.74 240.72 191.82 240.72 C 190.91 240.72 190.17 241.46 190.17 242.37 Z M 190.18 243.29 L 190.18 244.29 C 190.18 245.20 190.91 245.94 191.82 245.94 C 192.73 245.94 193.47 245.20 193.47 244.29 L 193.47 243.29 C 193.47 242.38 192.73 241.65 191.82 241.65 C 190.91 241.65 190.18 242.38 190.18 243.29 Z M 190.18 244.29 L 190.18 245.29 C 190.18 246.20 190.92 246.93 191.82 246.93 C 192.73 246.93 193.46 246.20 193.46 245.29 L 193.46 244.29 C 193.46 243.39 192.73 242.65 191.82 242.65 C 190.92 242.65 190.18 243.39 190.18 244.29 Z M 190.19 245.29 L 190.19 246.29 C 190.19 247.20 190.92 247.93 191.82 247.93 C 192.72 247.93 193.45 247.20 193.45 246.29 L 193.45 245.29 C 193.45 244.39 192.72 243.66 191.82 243.66 C 190.92 243.66 190.19 244.39 190.19 245.29 Z M 190.20 246.29 L 190.20 247.29 C 190.20 248.19 190.93 248.92 191.82 248.92 C 192.72 248.92 193.45 248.19 193.45 247.29 L 193.45 246.29 C 193.45 245.40 192.72 244.67 191.82 244.67 C 190.93 244.67 190.20 245.40 190.20 246.29 Z M 190.21 247.29 L 190.21 248.29 C 190.21 249.19 190.93 249.91 191.82 249.91 C 192.72 249.91 193.44 249.19 193.44 248.29 L 193.44 247.29 C 193.44 246.40 192.72 245.68 191.82 245.68 C 190.93 245.68 190.21 246.40 190.21 247.29 Z M 190.22 248.29 L 190.22 249.29 C 190.22 250.18 190.94 250.90 191.82 250.90 C 192.71 250.90 193.43 250.18 193.43 249.29 L 193.43 248.29 C 193.43 247.41 192.71 246.69 191.82 246.69 C 190.94 246.69 190.22 247.41 190.22 248.29 Z M 190.22 249.29 L 190.22 250.29 C 190.22 251.18 190.94 251.89 191.82 251.89 C 192.71 251.89 193.42 251.18 193.42 250.29 L 193.42 249.29 C 193.42 248.41 192.71 247.70 191.82 247.70 C 190.94 247.70 190.22 248.41 190.22 249.29 Z M 190.23 250.29 L 190.23 251.29 C 190.23 252.17 190.94 252.89 191.82 252.89 C 192.70 252.89 193.41 252.17 193.41 251.29 L 193.41 250.29 C 193.41 249.42 192.70 248.70 191.82 248.70 C 190.94 248.70 190.23 249.42 190.23 250.29 Z M 190.24 251.29 L 190.24 252.29 C 190.24 253.17 190.95 253.88 191.82 253.88 C 192.70 253.88 193.41 253.17 193.41 252.29 L 193.41 251.29 C 193.41 250.42 192.70 249.71 191.82 249.71 C 190.95 249.71 190.24 250.42 190.24 251.29 Z M 190.25 252.29 L 190.25 252.78 C 190.25 253.65 190.95 254.36 191.82 254.36 C 192.69 254.36 193.40 253.65 193.40 252.78 L 193.40 252.29 C 193.40 251.42 192.69 250.72 191.82 250.72 C 190.95 250.72 190.25 251.42 190.25 252.29 Z"
      fill="black"
      fill-rule="nonzero" /></svg>