<svg xmlns="http://www.w3.org/2000/svg" width="300" height="300" viewBox="0 0 300 300">
<path d="M 128.39 136.41 L 127.39 135.57 C 126.68 134.99 125.64 135.08 125.05 135.78 C 124.46 136.49 124.56 137.53 125.26 138.12 L 126.27 138.96 C 126.97 139.55 128.02 139.45 128.60 138.75 C 129.19 138.05 129.10 137.00 128.39 136.41 Z M 127.38 135.52 L 126.40 134.74 C 125.67 134.16 124.61 134.28 124.02 135.01 C 123.44 135.74 123.56 136.81 124.29 137.39 L 125.27 138.17 C 126.00 138.75 127.07 138.63 127.65 137.90 C 128.23 137.17 128.11 136.10 127.38 135.52 Z M 126.35 134.66 L 125.43 134.01 C 124.66 133.45 123.58 133.64 123.02 134.41 C 122.47 135.19 122.65 136.27 123.43 136.83 L 124.35 137.48 C 125.12 138.03 126.20 137.85 126.76 137.07 C 127.31 136.29 127.13 135.21 126.35 134.66 Z M 125.29 133.88 L 124.47 133.42 C 123.62 132.94 122.54 133.25 122.07 134.10 C 121.59 134.95 121.90 136.02 122.75 136.50 L 123.57 136.96 C 124.42 137.43 125.50 137.13 125.97 136.28 C 126.45 135.43 126.14 134.35 125.29 133.88 Z M 124.11 133.23 L 123.41 133.02 C 122.46 132.74 121.46 133.29 121.18 134.24 C 120.90 135.20 121.44 136.20 122.40 136.48 L 123.10 136.68 C 124.05 136.96 125.06 136.42 125.34 135.46 C 125.61 134.51 125.07 133.51 124.11 133.23 Z M 122.54 132.95 L 121.99 133.06 C 121.00 133.26 120.35 134.23 120.55 135.23 C 120.75 136.22 121.72 136.86 122.72 136.66 L 123.27 136.55 C 124.26 136.35 124.90 135.38 124.70 134.39 C 124.50 133.39 123.53 132.75 122.54 132.95 Z M 120.97 133.62 L 120.67 133.96 C 119.99 134.72 120.05 135.89 120.81 136.58 C 121.57 137.26 122.75 137.20 123.43 136.44 L 123.74 136.10 C 124.42 135.34 124.36 134.17 123.59 133.48 C 122.83 132.79 121.66 132.86 120.97 133.62 Z M 120.31 134.55 L 120.12 135.05 C 119.76 136.01 120.26 137.08 121.22 137.44 C 122.18 137.80 123.25 137.31 123.61 136.34 L 123.80 135.84 C 124.16 134.88 123.66 133.81 122.70 133.45 C 121.74 133.09 120.67 133.58 120.31 134.55 Z M 120.03 135.40 L 119.92 136.08 C 119.76 137.09 120.45 138.05 121.47 138.21 C 122.48 138.37 123.44 137.68 123.60 136.66 L 123.71 135.99 C 123.87 134.97 123.17 134.02 122.16 133.86 C 121.14 133.70 120.19 134.39 120.03 135.40 Z M 119.90 136.29 L 119.86 137.12 C 119.82 138.15 120.62 139.02 121.64 139.06 C 122.67 139.11 123.54 138.31 123.59 137.28 L 123.62 136.45 C 123.67 135.42 122.87 134.55 121.84 134.51 C 120.81 134.46 119.94 135.26 119.90 136.29 Z M 119.86 137.26 L 119.89 138.24 C 119.92 139.27 120.78 140.08 121.80 140.05 C 122.83 140.02 123.64 139.17 123.61 138.14 L 123.59 137.15 C 123.56 136.12 122.70 135.31 121.67 135.34 C 120.64 135.37 119.83 136.23 119.86 137.26 Z M 119.89 138.33 L 119.98 139.46 C 120.05 140.48 120.95 141.25 121.97 141.18 C 123.00 141.10 123.77 140.21 123.69 139.18 L 123.61 138.05 C 123.53 137.03 122.64 136.26 121.61 136.33 C 120.59 136.41 119.82 137.30 119.89 138.33 Z M 119.98 139.51 L 120.12 140.77 C 120.22 141.79 121.14 142.54 122.16 142.43 C 123.19 142.32 123.93 141.40 123.82 140.38 L 123.69 139.12 C 123.58 138.10 122.66 137.36 121.64 137.46 C 120.62 137.57 119.88 138.49 119.98 139.51 Z M 120.12 140.81 L 120.29 142.18 C 120.42 143.21 121.35 143.93 122.37 143.80 C 123.40 143.67 124.12 142.74 123.99 141.72 L 123.82 140.34 C 123.69 139.32 122.76 138.60 121.74 138.73 C 120.71 138.85 119.99 139.79 120.12 140.81 Z M 120.30 142.21 L 120.50 143.69 C 120.64 144.71 121.59 145.43 122.61 145.28 C 123.63 145.14 124.34 144.20 124.20 143.18 L 123.99 141.70 C 123.85 140.68 122.90 139.96 121.88 140.11 C 120.86 140.25 120.15 141.19 120.30 142.21 Z M 120.50 143.71 L 120.65 144.71 C 120.80 145.73 121.75 146.43 122.76 146.28 C 123.78 146.13 124.49 145.19 124.34 144.17 L 124.19 143.17 C 124.04 142.15 123.10 141.44 122.08 141.59 C 121.06 141.74 120.35 142.69 120.50 143.71 Z M 120.65 144.71 L 120.80 145.69 C 120.95 146.70 121.90 147.41 122.92 147.25 C 123.93 147.10 124.64 146.15 124.48 145.13 L 124.34 144.16 C 124.19 143.14 123.24 142.44 122.22 142.59 C 121.20 142.75 120.50 143.70 120.65 144.71 Z M 120.80 145.69 L 120.95 146.69 C 121.11 147.71 122.06 148.40 123.07 148.25 C 124.09 148.09 124.79 147.14 124.64 146.12 L 124.48 145.13 C 124.33 144.11 123.38 143.41 122.36 143.57 C 121.34 143.72 120.64 144.67 120.80 145.69 Z M 120.95 146.69 L 121.11 147.71 C 121.27 148.72 122.22 149.42 123.24 149.26 C 124.25 149.11 124.95 148.15 124.79 147.14 L 124.63 146.12 C 124.48 145.10 123.52 144.41 122.51 144.56 C 121.49 144.72 120.79 145.67 120.95 146.69 Z M 121.11 147.71 L 121.27 148.74 C 121.43 149.76 122.38 150.45 123.40 150.29 C 124.42 150.13 125.11 149.18 124.95 148.16 L 124.79 147.13 C 124.63 146.12 123.68 145.42 122.66 145.58 C 121.64 145.74 120.95 146.69 121.11 147.71 Z M 121.27 148.74 L 121.44 149.78 C 121.60 150.79 122.55 151.49 123.57 151.33 C 124.58 151.17 125.28 150.21 125.11 149.20 L 124.95 148.16 C 124.79 147.14 123.84 146.45 122.82 146.61 C 121.80 146.77 121.11 147.72 121.27 148.74 Z M 121.44 149.78 L 121.60 150.82 C 121.76 151.84 122.72 152.53 123.73 152.37 C 124.75 152.21 125.44 151.25 125.28 150.24 L 125.11 149.20 C 124.95 148.18 124.00 147.49 122.98 147.65 C 121.97 147.81 121.27 148.76 121.44 149.78 Z M 121.60 150.82 L 121.77 151.86 C 121.93 152.87 122.88 153.57 123.90 153.40 C 124.91 153.24 125.61 152.29 125.44 151.27 L 125.28 150.24 C 125.12 149.22 124.16 148.53 123.15 148.69 C 122.13 148.85 121.44 149.80 121.60 150.82 Z M 121.77 151.86 L 121.93 152.89 C 122.09 153.90 123.05 154.59 124.06 154.43 C 125.08 154.27 125.77 153.32 125.61 152.30 L 125.44 151.27 C 125.28 150.26 124.33 149.57 123.31 149.73 C 122.30 149.89 121.61 150.84 121.77 151.86 Z M 121.93 152.89 L 122.09 153.90 C 122.25 154.92 123.20 155.61 124.22 155.45 C 125.24 155.29 125.93 154.33 125.77 153.32 L 125.61 152.30 C 125.45 151.29 124.49 150.60 123.48 150.76 C 122.46 150.92 121.77 151.87 121.93 152.89 Z M 122.09 153.90 L 122.25 154.90 C 122.41 155.91 123.36 156.60 124.37 156.45 C 125.39 156.29 126.08 155.33 125.92 154.32 L 125.77 153.32 C 125.61 152.31 124.66 151.61 123.64 151.77 C 122.63 151.93 121.93 152.88 122.09 153.90 Z M 122.25 154.89 L 122.40 155.86 C 122.56 156.88 123.51 157.58 124.52 157.42 C 125.54 157.26 126.23 156.31 126.08 155.29 L 125.92 154.32 C 125.77 153.31 124.82 152.61 123.80 152.77 C 122.78 152.93 122.09 153.88 122.25 154.89 Z M 122.40 155.86 L 122.54 156.80 C 122.70 157.82 123.65 158.52 124.66 158.36 C 125.68 158.20 126.38 157.26 126.22 156.24 L 126.08 155.30 C 125.92 154.28 124.97 153.58 123.96 153.74 C 122.94 153.90 122.24 154.85 122.40 155.86 Z M 122.54 156.80 L 122.68 157.71 C 122.83 158.72 123.78 159.42 124.79 159.27 C 125.81 159.12 126.51 158.17 126.36 157.15 L 126.22 156.25 C 126.07 155.23 125.12 154.53 124.11 154.68 C 123.09 154.84 122.39 155.78 122.54 156.80 Z M 122.68 157.70 L 122.81 158.62 C 122.96 159.64 123.91 160.34 124.92 160.19 C 125.94 160.05 126.64 159.10 126.49 158.09 L 126.36 157.16 C 126.21 156.14 125.26 155.44 124.25 155.59 C 123.23 155.74 122.53 156.68 122.68 157.70 Z M 122.81 158.61 L 122.99 159.88 C 123.13 160.90 124.07 161.60 125.09 161.46 C 126.10 161.32 126.81 160.38 126.67 159.36 L 126.49 158.10 C 126.35 157.08 125.41 156.37 124.40 156.51 C 123.38 156.66 122.67 157.60 122.81 158.61 Z M 122.99 159.86 L 123.14 161.03 C 123.28 162.05 124.21 162.77 125.23 162.63 C 126.24 162.50 126.96 161.56 126.83 160.55 L 126.67 159.38 C 126.54 158.36 125.60 157.65 124.59 157.78 C 123.57 157.91 122.86 158.85 122.99 159.86 Z M 123.14 161.02 L 123.28 162.10 C 123.40 163.12 124.33 163.84 125.34 163.72 C 126.36 163.59 127.08 162.67 126.96 161.65 L 126.83 160.56 C 126.70 159.55 125.78 158.82 124.76 158.95 C 123.74 159.07 123.02 160.00 123.14 161.02 Z M 123.28 162.08 L 123.39 163.10 C 123.50 164.11 124.42 164.84 125.44 164.73 C 126.46 164.61 127.19 163.70 127.07 162.68 L 126.96 161.67 C 126.84 160.65 125.93 159.92 124.91 160.03 C 123.89 160.15 123.16 161.07 123.28 162.08 Z M 123.39 163.08 L 123.49 164.03 C 123.59 165.05 124.50 165.79 125.52 165.68 C 126.54 165.58 127.28 164.67 127.17 163.65 L 127.07 162.70 C 126.97 161.68 126.06 160.94 125.04 161.05 C 124.02 161.15 123.28 162.06 123.39 163.08 Z M 123.49 164.01 L 123.57 164.92 C 123.67 165.93 124.57 166.68 125.58 166.59 C 126.60 166.49 127.35 165.59 127.26 164.57 L 127.17 163.67 C 127.08 162.65 126.18 161.90 125.16 162.00 C 124.14 162.09 123.39 162.99 123.49 164.01 Z M 123.57 164.90 L 123.64 165.77 C 123.73 166.79 124.62 167.54 125.64 167.46 C 126.66 167.37 127.41 166.48 127.33 165.46 L 127.26 164.59 C 127.17 163.57 126.28 162.82 125.26 162.90 C 124.24 162.99 123.49 163.88 123.57 164.90 Z M 123.64 165.75 L 123.71 166.60 C 123.78 167.62 124.67 168.38 125.69 168.31 C 126.70 168.23 127.47 167.35 127.39 166.33 L 127.33 165.48 C 127.25 164.46 126.37 163.70 125.35 163.77 C 124.33 163.85 123.57 164.74 123.64 165.75 Z M 123.71 166.59 L 123.76 167.43 C 123.83 168.45 124.71 169.22 125.73 169.15 C 126.75 169.08 127.52 168.20 127.45 167.18 L 127.39 166.34 C 127.32 165.33 126.44 164.56 125.43 164.63 C 124.41 164.69 123.64 165.57 123.71 166.59 Z M 123.76 167.42 L 123.82 168.34 C 123.88 169.36 124.76 170.13 125.78 170.07 C 126.79 170.01 127.57 169.13 127.50 168.12 L 127.45 167.19 C 127.38 166.18 126.51 165.40 125.49 165.47 C 124.48 165.53 123.70 166.40 123.76 167.42 Z M 123.82 168.33 L 123.88 169.30 C 123.93 170.31 124.80 171.09 125.82 171.03 C 126.84 170.98 127.62 170.11 127.56 169.09 L 127.50 168.12 C 127.45 167.11 126.58 166.33 125.56 166.39 C 124.54 166.44 123.76 167.32 123.82 168.33 Z M 123.87 169.29 L 123.93 170.26 C 123.98 171.28 124.85 172.06 125.86 172.01 C 126.88 171.96 127.66 171.09 127.61 170.07 L 127.56 169.10 C 127.51 168.08 126.64 167.30 125.62 167.35 C 124.60 167.40 123.82 168.27 123.87 169.29 Z M 123.92 170.26 L 123.97 171.24 C 124.02 172.26 124.89 173.04 125.90 173.00 C 126.92 172.95 127.71 172.08 127.66 171.07 L 127.61 170.08 C 127.56 169.06 126.70 168.28 125.68 168.33 C 124.66 168.37 123.88 169.24 123.92 170.26 Z M 123.97 171.24 L 124.02 172.23 C 124.06 173.25 124.92 174.04 125.94 173.99 C 126.96 173.95 127.75 173.09 127.70 172.07 L 127.66 171.07 C 127.61 170.05 126.75 169.27 125.73 169.31 C 124.71 169.36 123.93 170.22 123.97 171.24 Z M 124.02 172.23 L 124.06 173.24 C 124.10 174.26 124.96 175.05 125.98 175.00 C 127.00 174.96 127.79 174.10 127.74 173.08 L 127.70 172.07 C 127.66 171.06 126.80 170.27 125.78 170.31 C 124.76 170.35 123.97 171.21 124.02 172.23 Z M 124.06 173.24 L 124.10 174.26 C 124.14 175.28 125.00 176.07 126.02 176.03 C 127.03 175.99 127.83 175.13 127.79 174.11 L 127.74 173.09 C 127.70 172.07 126.85 171.28 125.83 171.32 C 124.81 171.36 124.02 172.22 124.06 173.24 Z M 124.10 174.26 L 124.14 175.29 C 124.18 176.31 125.04 177.10 126.05 177.06 C 127.07 177.02 127.87 176.17 127.83 175.15 L 127.79 174.11 C 127.75 173.09 126.89 172.30 125.87 172.34 C 124.85 172.38 124.06 173.24 124.10 174.26 Z M 124.14 175.29 L 124.18 176.30 C 124.22 177.32 125.07 178.11 126.09 178.07 C 127.11 178.04 127.90 177.18 127.86 176.16 L 127.83 175.15 C 127.79 174.13 126.93 173.34 125.91 173.38 C 124.90 173.42 124.10 174.27 124.14 175.29 Z M 124.18 176.30 L 124.21 177.26 C 124.25 178.27 125.11 179.07 126.12 179.03 C 127.14 178.99 127.94 178.14 127.90 177.12 L 127.86 176.16 C 127.83 175.15 126.97 174.35 125.95 174.39 C 124.93 174.43 124.14 175.28 124.18 176.30 Z M 124.21 177.25 L 124.25 178.22 C 124.29 179.24 125.14 180.03 126.16 180.00 C 127.18 179.96 127.97 179.11 127.93 178.09 L 127.90 177.12 C 127.86 176.10 127.01 175.31 125.99 175.35 C 124.97 175.38 124.18 176.24 124.21 177.25 Z M 124.25 178.22 L 124.28 179.20 C 124.32 180.21 125.17 181.01 126.19 180.97 C 127.21 180.94 128.00 180.09 127.97 179.07 L 127.93 178.09 C 127.90 177.07 127.04 176.28 126.03 176.31 C 125.01 176.35 124.21 177.20 124.25 178.22 Z M 124.28 179.19 L 124.32 180.18 C 124.35 181.20 125.20 182.00 126.22 181.96 C 127.23 181.93 128.03 181.08 128.00 180.06 L 127.97 179.07 C 127.93 178.06 127.08 177.26 126.06 177.29 C 125.05 177.33 124.25 178.18 124.28 179.19 Z M 124.32 180.18 L 124.35 181.18 C 124.38 182.20 125.23 183.00 126.24 182.97 C 127.26 182.94 128.06 182.09 128.03 181.07 L 128.00 180.07 C 127.97 179.05 127.12 178.25 126.10 178.28 C 125.09 178.32 124.29 179.16 124.32 180.18 Z M 124.35 181.18 L 124.38 182.19 C 124.41 183.21 125.25 184.01 126.27 183.98 C 127.28 183.95 128.08 183.10 128.06 182.09 L 128.03 181.07 C 128.00 180.06 127.15 179.26 126.14 179.29 C 125.12 179.32 124.32 180.16 124.35 181.18 Z M 124.38 182.19 L 124.40 183.21 C 124.43 184.23 125.27 185.03 126.29 185.00 C 127.30 184.98 128.11 184.13 128.08 183.12 L 128.06 182.09 C 128.03 181.08 127.19 180.28 126.17 180.30 C 125.16 180.33 124.35 181.17 124.38 182.19 Z M 124.40 183.21 L 124.43 184.24 C 124.45 185.26 125.29 186.06 126.31 186.04 C 127.32 186.02 128.13 185.18 128.10 184.16 L 128.08 183.13 C 128.06 182.11 127.22 181.31 126.20 181.33 C 125.19 181.35 124.38 182.19 124.40 183.21 Z M 124.43 184.24 L 124.45 185.28 C 124.47 186.29 125.30 187.10 126.32 187.08 C 127.33 187.06 128.14 186.22 128.12 185.21 L 128.10 184.17 C 128.08 183.15 127.25 182.35 126.23 182.37 C 125.22 182.38 124.41 183.22 124.43 184.24 Z M 124.45 185.27 L 124.46 186.25 C 124.48 187.27 125.31 188.08 126.33 188.06 C 127.34 188.05 128.15 187.21 128.14 186.20 L 128.12 185.22 C 128.11 184.20 127.27 183.39 126.26 183.41 C 125.24 183.42 124.43 184.26 124.45 185.27 Z M 124.46 186.25 L 124.48 187.24 C 124.49 188.25 125.32 189.07 126.33 189.05 C 127.35 189.04 128.16 188.21 128.15 187.20 L 128.14 186.21 C 128.12 185.19 127.29 184.38 126.28 184.39 C 125.26 184.40 124.45 185.23 124.46 186.25 Z M 124.48 187.24 L 124.49 188.23 C 124.49 189.25 125.32 190.06 126.34 190.05 C 127.35 190.04 128.16 189.21 128.15 188.20 L 128.15 187.20 C 128.14 186.19 127.31 185.37 126.29 185.38 C 125.28 185.39 124.47 186.22 124.48 187.24 Z M 124.49 188.23 L 124.49 189.23 C 124.50 190.24 125.33 191.06 126.34 191.05 C 127.35 191.05 128.17 190.22 128.16 189.21 L 128.15 188.20 C 128.15 187.19 127.32 186.38 126.31 186.38 C 125.30 186.39 124.48 187.22 124.49 188.23 Z M 124.49 189.23 L 124.50 190.23 C 124.50 191.25 125.33 192.06 126.34 192.06 C 127.35 192.05 128.17 191.23 128.16 190.22 L 128.16 189.21 C 128.15 188.20 127.33 187.38 126.32 187.39 C 125.31 187.39 124.49 188.22 124.49 189.23 Z M 124.50 190.23 L 124.50 191.24 C 124.51 192.25 125.33 193.07 126.34 193.06 C 127.35 193.06 128.17 192.24 128.17 191.23 L 128.16 190.22 C 128.16 189.21 127.34 188.39 126.33 188.39 C 125.31 188.40 124.50 189.22 124.50 190.23 Z M 124.50 191.24 L 124.51 192.24 C 124.51 193.25 125.33 194.07 126.34 194.07 C 127.35 194.07 128.17 193.25 128.17 192.24 L 128.17 191.23 C 128.16 190.22 127.34 189.40 126.33 189.40 C 125.32 189.40 124.50 190.23 124.50 191.24 Z M 124.51 192.24 L 124.51 193.25 C 124.51 194.26 125.33 195.08 126.34 195.08 C 127.35 195.07 128.17 194.25 128.17 193.24 L 128.17 192.24 C 128.17 191.23 127.35 190.41 126.34 190.41 C 125.33 190.41 124.51 191.23 124.51 192.24 Z M 124.51 193.25 L 124.51 194.25 C 124.51 195.26 125.33 196.08 126.34 196.08 C 127.35 196.08 128.17 195.26 128.17 194.25 L 128.17 193.25 C 128.17 192.24 127.35 191.42 126.34 191.42 C 125.33 191.42 124.51 192.24 124.51 193.25 Z M 124.51 194.25 L 124.51 195.25 C 124.51 196.26 125.33 197.08 126.34 197.08 C 127.35 197.08 128.17 196.26 128.17 195.25 L 128.17 194.25 C 128.17 193.24 127.35 192.42 126.34 192.42 C 125.33 192.42 124.51 193.24 124.51 194.25 Z M 124.51 195.25 L 124.51 196.27 C 124.51 197.28 125.33 198.10 126.34 198.10 C 127.35 198.10 128.16 197.28 128.16 196.27 L 128.16 195.25 C 128.16 194.24 127.35 193.42 126.34 193.42 C 125.33 193.42 124.51 194.24 124.51 195.25 Z M 124.51 196.27 L 124.51 197.29 C 124.51 198.30 125.33 199.12 126.34 199.12 C 127.35 199.12 128.16 198.30 128.16 197.29 L 128.16 196.27 C 128.16 195.27 127.35 194.45 126.34 194.45 C 125.33 194.45 124.51 195.27 124.51 196.27 Z M 124.51 197.29 L 124.51 198.30 C 124.51 199.31 125.33 200.13 126.34 200.13 C 127.35 200.13 128.16 199.31 128.16 198.30 L 128.16 197.29 C 128.16 196.28 127.35 195.47 126.34 195.47 C 125.33 195.47 124.51 196.28 124.51 197.29 Z M 124.52 198.30 L 124.52 199.31 C 124.52 200.31 125.33 201.13 126.34 201.13 C 127.34 201.13 128.16 200.31 128.16 199.31 L 128.16 198.30 C 128.16 197.30 127.34 196.48 126.34 196.48 C 125.33 196.48 124.52 197.30 124.52 198.30 Z M 124.52 199.31 L 124.52 200.31 C 124.52 201.31 125.33 202.13 126.34 202.13 C 127.34 202.13 128.16 201.31 128.16 200.31 L 128.16 199.31 C 128.16 198.30 127.34 197.49 126.34 197.49 C 125.33 197.49 124.52 198.30 124.52 199.31 Z M 124.52 200.31 L 124.52 201.30 C 124.52 202.31 125.33 203.12 126.34 203.12 C 127.34 203.12 128.16 202.31 128.16 201.30 L 128.16 200.31 C 128.16 199.30 127.34 198.49 126.34 198.49 C 125.33 198.49 124.52 199.30 124.52 200.31 Z M 124.52 201.30 L 124.52 202.29 C 124.52 203.30 125.33 204.11 126.34 204.11 C 127.34 204.11 128.16 203.30 128.16 202.29 L 128.16 201.30 C 128.16 200.30 127.34 199.48 126.34 199.48 C 125.33 199.48 124.52 200.30 124.52 201.30 Z M 124.52 202.29 L 124.52 203.28 C 124.52 204.28 125.33 205.09 126.34 205.09 C 127.34 205.09 128.16 204.28 128.16 203.28 L 128.16 202.29 C 128.16 201.29 127.34 200.47 126.34 200.47 C 125.33 200.47 124.52 201.29 124.52 202.29 Z M 124.52 203.28 L 124.52 204.26 C 124.52 205.26 125.34 206.07 126.34 206.07 C 127.34 206.07 128.15 205.26 128.15 204.26 L 128.15 203.28 C 128.15 202.27 127.34 201.46 126.34 201.46 C 125.34 201.46 124.52 202.27 124.52 203.28 Z M 124.52 204.26 L 124.52 205.26 C 124.52 206.26 125.34 207.07 126.34 207.07 C 127.34 207.07 128.15 206.26 128.15 205.26 L 128.15 204.26 C 128.15 203.25 127.34 202.44 126.34 202.44 C 125.34 202.44 124.52 203.25 124.52 204.26 Z M 124.53 205.26 L 124.53 206.28 C 124.52 207.28 125.34 208.09 126.34 208.09 C 127.34 208.09 128.15 207.28 128.15 206.28 L 128.15 205.26 C 128.15 204.26 127.34 203.44 126.34 203.44 C 125.34 203.44 124.53 204.25 124.53 205.26 Z M 124.53 206.27 L 124.53 207.29 C 124.52 208.29 125.34 209.10 126.34 209.10 C 127.34 209.10 128.15 208.29 128.15 207.29 L 128.15 206.28 C 128.15 205.28 127.34 204.47 126.34 204.46 C 125.34 204.46 124.53 205.27 124.53 206.27 Z M 124.53 207.29 L 124.53 208.30 C 124.52 209.30 125.33 210.11 126.33 210.11 C 127.33 210.11 128.14 209.31 128.15 208.31 L 128.15 207.30 C 128.15 206.30 127.34 205.48 126.34 205.48 C 125.34 205.48 124.53 206.29 124.53 207.29 Z M 124.53 208.30 L 124.52 209.30 C 124.52 210.30 125.33 211.11 126.33 211.12 C 127.32 211.12 128.14 210.31 128.14 209.31 L 128.14 208.31 C 128.15 207.31 127.34 206.50 126.34 206.49 C 125.34 206.49 124.53 207.30 124.53 208.30 Z M 124.52 209.30 L 124.52 210.30 C 124.51 211.29 125.32 212.11 126.32 212.11 C 127.32 212.12 128.13 211.31 128.13 210.32 L 128.14 209.32 C 128.14 208.32 127.34 207.50 126.34 207.50 C 125.34 207.49 124.53 208.30 124.52 209.30 Z M 124.52 210.29 L 124.51 211.29 C 124.51 212.28 125.31 213.10 126.31 213.11 C 127.30 213.11 128.12 212.31 128.13 211.31 L 128.13 210.32 C 128.14 209.32 127.34 208.51 126.34 208.50 C 125.34 208.49 124.53 209.30 124.52 210.29 Z M 124.51 211.28 L 124.50 212.27 C 124.49 213.26 125.29 214.08 126.29 214.09 C 127.29 214.10 128.10 213.30 128.11 212.30 L 128.12 211.32 C 128.13 210.32 127.33 209.51 126.34 209.49 C 125.34 209.48 124.53 210.28 124.51 211.28 Z M 124.51 212.26 L 124.49 213.24 C 124.48 214.24 125.27 215.05 126.27 215.07 C 127.27 215.08 128.08 214.29 128.10 213.29 L 128.11 212.31 C 128.13 211.31 127.33 210.50 126.33 210.48 C 125.34 210.47 124.52 211.27 124.51 212.26 Z M 124.49 213.23 L 124.48 214.19 C 124.46 215.19 125.25 216.01 126.25 216.03 C 127.24 216.04 128.06 215.25 128.08 214.26 L 128.10 213.30 C 128.11 212.30 127.32 211.48 126.33 211.46 C 125.33 211.45 124.51 212.24 124.49 213.23 Z M 124.48 214.19 L 124.46 215.11 C 124.44 216.11 125.22 216.93 126.22 216.95 C 127.21 216.97 128.04 216.19 128.06 215.19 L 128.08 214.27 C 128.10 213.27 127.31 212.45 126.32 212.43 C 125.32 212.40 124.50 213.19 124.48 214.19 Z M 124.46 215.10 L 124.44 216.03 C 124.41 217.02 125.19 217.85 126.18 217.88 C 127.17 217.90 128.00 217.12 128.03 216.13 L 128.05 215.20 C 128.08 214.21 127.30 213.38 126.31 213.36 C 125.32 213.33 124.49 214.11 124.46 215.10 Z M 124.44 216.02 L 124.41 216.95 C 124.37 217.94 125.15 218.77 126.14 218.81 C 127.13 218.84 127.96 218.07 127.99 217.08 L 128.03 216.14 C 128.06 215.15 127.29 214.32 126.30 214.29 C 125.30 214.25 124.47 215.03 124.44 216.02 Z M 124.41 216.94 L 124.37 217.89 C 124.32 218.88 125.09 219.71 126.08 219.76 C 127.07 219.80 127.91 219.03 127.95 218.04 L 127.99 217.09 C 128.03 216.10 127.27 215.27 126.28 215.22 C 125.29 215.18 124.45 215.95 124.41 216.94 Z M 124.37 217.87 L 124.32 218.84 C 124.27 219.83 125.03 220.67 126.01 220.72 C 127.00 220.78 127.84 220.02 127.89 219.03 L 127.95 218.06 C 128.00 217.07 127.24 216.23 126.25 216.18 C 125.27 216.12 124.42 216.88 124.37 217.87 Z M 124.32 218.82 L 124.26 219.82 C 124.20 220.81 124.95 221.66 125.93 221.72 C 126.92 221.78 127.77 221.03 127.83 220.05 L 127.89 219.05 C 127.95 218.06 127.20 217.21 126.22 217.15 C 125.23 217.09 124.38 217.84 124.32 218.82 Z M 124.26 219.81 L 124.19 220.84 C 124.12 221.82 124.85 222.68 125.84 222.75 C 126.82 222.82 127.68 222.08 127.75 221.10 L 127.82 220.07 C 127.90 219.08 127.16 218.23 126.17 218.16 C 125.19 218.08 124.34 218.82 124.26 219.81 Z M 124.19 220.82 L 124.10 221.90 C 124.02 222.88 124.75 223.74 125.73 223.82 C 126.71 223.91 127.57 223.18 127.66 222.20 L 127.75 221.12 C 127.83 220.14 127.10 219.28 126.12 219.19 C 125.14 219.11 124.27 219.84 124.19 220.82 Z M 124.11 221.88 L 124.00 223.00 C 123.91 223.98 124.63 224.85 125.61 224.94 C 126.58 225.04 127.45 224.32 127.55 223.34 L 127.65 222.21 C 127.74 221.23 127.02 220.37 126.05 220.27 C 125.07 220.18 124.20 220.90 124.11 221.88 Z M 124.00 222.99 L 123.90 223.97 C 123.80 224.95 124.51 225.82 125.49 225.92 C 126.46 226.02 127.34 225.31 127.44 224.34 L 127.54 223.35 C 127.64 222.38 126.93 221.50 125.96 221.40 C 124.98 221.30 124.10 222.01 124.00 222.99 Z M 123.91 223.96 L 123.80 224.87 C 123.70 225.85 124.40 226.72 125.38 226.83 C 126.35 226.94 127.23 226.24 127.34 225.26 L 127.44 224.35 C 127.54 223.37 126.84 222.49 125.87 222.39 C 124.89 222.28 124.01 222.98 123.91 223.96 Z M 123.81 224.86 L 123.70 225.80 C 123.59 226.78 124.29 227.66 125.26 227.77 C 126.23 227.88 127.11 227.18 127.22 226.21 L 127.33 225.27 C 127.44 224.29 126.75 223.41 125.77 223.30 C 124.80 223.19 123.92 223.89 123.81 224.86 Z M 123.70 225.80 L 123.59 226.76 C 123.48 227.74 124.17 228.62 125.14 228.73 C 126.12 228.84 127.00 228.15 127.11 227.18 L 127.22 226.21 C 127.34 225.24 126.64 224.36 125.67 224.25 C 124.70 224.13 123.82 224.83 123.70 225.80 Z M 123.59 226.76 L 123.48 227.75 C 123.36 228.72 124.06 229.60 125.03 229.71 C 126.00 229.82 126.88 229.13 126.99 228.16 L 127.11 227.18 C 127.22 226.21 126.53 225.33 125.56 225.21 C 124.59 225.10 123.71 225.79 123.59 226.76 Z M 123.48 227.75 L 123.36 228.75 C 123.25 229.72 123.94 230.60 124.91 230.71 C 125.88 230.82 126.76 230.13 126.87 229.16 L 126.99 228.16 C 127.10 227.19 126.41 226.31 125.44 226.20 C 124.47 226.08 123.59 226.78 123.48 227.75 Z M 123.36 228.75 L 123.25 229.77 C 123.13 230.73 123.83 231.61 124.80 231.72 C 125.77 231.83 126.64 231.14 126.75 230.17 L 126.87 229.15 C 126.98 228.19 126.29 227.31 125.32 227.20 C 124.35 227.09 123.47 227.78 123.36 228.75 Z M 123.25 229.77 L 123.13 230.80 C 123.03 231.76 123.72 232.64 124.69 232.74 C 125.66 232.85 126.53 232.15 126.64 231.19 L 126.75 230.16 C 126.86 229.19 126.16 228.32 125.20 228.21 C 124.23 228.11 123.36 228.80 123.25 229.77 Z M 123.13 230.81 L 123.02 231.84 C 122.92 232.80 123.62 233.67 124.59 233.77 C 125.56 233.88 126.42 233.18 126.53 232.21 L 126.64 231.18 C 126.74 230.21 126.04 229.34 125.07 229.24 C 124.10 229.14 123.24 229.84 123.13 230.81 Z M 123.03 231.85 L 122.92 232.88 C 122.83 233.85 123.53 234.71 124.50 234.81 C 125.46 234.90 126.33 234.20 126.42 233.23 L 126.53 232.20 C 126.62 231.23 125.92 230.37 124.95 230.27 C 123.98 230.18 123.12 230.88 123.03 231.85 Z M 122.92 232.90 L 122.83 233.93 C 122.74 234.90 123.45 235.75 124.42 235.84 C 125.38 235.93 126.24 235.22 126.33 234.25 L 126.42 233.22 C 126.51 232.25 125.80 231.40 124.83 231.31 C 123.87 231.22 123.01 231.93 122.92 232.90 Z M 122.83 233.95 L 122.74 234.98 C 122.66 235.95 123.38 236.79 124.35 236.87 C 125.31 236.95 126.16 236.24 126.24 235.27 L 126.33 234.24 C 126.41 233.27 125.69 232.42 124.72 232.34 C 123.76 232.26 122.91 232.98 122.83 233.95 Z M 122.74 235.00 L 122.67 236.03 C 122.60 236.99 123.33 237.83 124.29 237.90 C 125.26 237.97 126.10 237.24 126.17 236.28 L 126.24 235.25 C 126.31 234.28 125.58 233.45 124.62 233.38 C 123.65 233.31 122.81 234.03 122.74 235.00 Z M 122.67 236.05 L 122.61 237.09 C 122.56 238.05 123.29 238.88 124.26 238.93 C 125.22 238.99 126.05 238.25 126.10 237.29 L 126.16 236.25 C 126.22 235.29 125.49 234.46 124.52 234.41 C 123.56 234.35 122.73 235.08 122.67 236.05 Z M 122.62 237.11 L 122.57 238.14 C 122.53 239.10 123.27 239.91 124.23 239.96 C 125.19 240.00 126.01 239.26 126.05 238.30 L 126.10 237.27 C 126.14 236.31 125.40 235.49 124.44 235.45 C 123.48 235.40 122.66 236.15 122.62 237.11 Z M 122.58 238.16 L 122.54 239.18 C 122.51 240.14 123.26 240.94 124.22 240.97 C 125.18 241.01 125.98 240.26 126.01 239.30 L 126.05 238.28 C 126.08 237.32 125.33 236.52 124.37 236.48 C 123.41 236.45 122.61 237.20 122.58 238.16 Z M 122.55 239.20 L 122.53 240.21 C 122.50 241.17 123.26 241.96 124.21 241.98 C 125.17 242.00 125.96 241.25 125.98 240.29 L 126.00 239.28 C 126.03 238.32 125.27 237.53 124.32 237.51 C 123.36 237.49 122.57 238.24 122.55 239.20 Z M 122.53 240.23 L 122.52 241.23 C 122.51 242.19 123.27 242.97 124.22 242.98 C 125.17 242.99 125.95 242.23 125.96 241.28 L 125.97 240.27 C 125.99 239.32 125.23 238.54 124.28 238.53 C 123.32 238.52 122.54 239.28 122.53 240.23 Z M 122.53 241.25 L 122.52 242.25 C 122.52 243.20 123.28 243.97 124.23 243.97 C 125.18 243.97 125.95 243.21 125.95 242.26 L 125.96 241.26 C 125.96 240.32 125.19 239.55 124.25 239.54 C 123.30 239.54 122.53 240.30 122.53 241.25 Z M 122.53 242.26 L 122.53 243.26 C 122.54 244.20 123.30 244.96 124.25 244.96 C 125.19 244.95 125.95 244.19 125.95 243.24 L 125.94 242.25 C 125.94 241.31 125.17 240.54 124.23 240.55 C 123.29 240.55 122.52 241.32 122.53 242.26 Z M 122.54 243.27 L 122.55 244.26 C 122.56 245.20 123.33 245.95 124.27 245.94 C 125.21 245.93 125.96 245.16 125.95 244.22 L 125.94 243.23 C 125.93 242.29 125.16 241.54 124.22 241.55 C 123.28 241.56 122.53 242.33 122.54 243.27 Z M 122.56 244.27 L 122.57 245.25 C 122.59 246.19 123.36 246.93 124.29 246.92 C 125.23 246.90 125.98 246.13 125.96 245.20 L 125.95 244.21 C 125.93 243.28 125.16 242.53 124.22 242.54 C 123.29 242.56 122.54 243.33 122.56 244.27 Z M 122.58 245.26 L 122.60 246.24 C 122.62 247.17 123.39 247.91 124.32 247.89 C 125.25 247.87 125.99 247.10 125.97 246.17 L 125.95 245.19 C 125.93 244.26 125.16 243.52 124.23 243.54 C 123.30 243.56 122.56 244.33 122.58 245.26 Z M 122.61 246.25 L 122.63 247.23 C 122.65 248.15 123.42 248.89 124.35 248.87 C 125.28 248.84 126.01 248.07 125.99 247.14 L 125.97 246.16 C 125.95 245.24 125.18 244.50 124.25 244.53 C 123.32 244.55 122.59 245.32 122.61 246.25 Z M 122.64 247.23 L 122.66 248.21 C 122.69 249.13 123.46 249.86 124.38 249.84 C 125.30 249.81 126.03 249.04 126.01 248.12 L 125.98 247.14 C 125.96 246.22 125.19 245.49 124.27 245.51 C 123.34 245.54 122.61 246.30 122.64 247.23 Z M 122.67 248.21 L 122.69 248.86 C 122.71 249.78 123.48 250.50 124.40 250.48 C 125.32 250.46 126.05 249.69 126.02 248.77 L 126.00 248.12 C 125.98 247.20 125.21 246.47 124.29 246.50 C 123.37 246.52 122.64 247.29 122.67 248.21 Z"
      fill="black"
      fill-rule="nonzero" /><path d="M 165.52 134.91 L 164.99 135.62 C 164.38 136.44 164.54 137.62 165.37 138.23 C 166.20 138.85 167.37 138.68 167.99 137.86 L 168.51 137.15 C 169.13 136.33 168.96 135.16 168.14 134.54 C 167.31 133.92 166.14 134.09 165.52 134.91 Z M 164.99 135.62 L 164.46 136.34 C 163.84 137.16 164.02 138.33 164.85 138.95 C 165.67 139.57 166.84 139.39 167.46 138.57 L 167.99 137.85 C 168.61 137.03 168.43 135.85 167.61 135.24 C 166.78 134.62 165.61 134.79 164.99 135.62 Z M 164.45 136.35 L 163.92 137.08 C 163.31 137.91 163.49 139.08 164.32 139.69 C 165.15 140.30 166.32 140.12 166.93 139.29 L 167.47 138.56 C 168.08 137.72 167.90 136.55 167.07 135.94 C 166.23 135.33 165.06 135.51 164.45 136.35 Z M 163.91 137.09 L 163.37 137.84 C 162.76 138.68 162.96 139.85 163.79 140.45 C 164.63 141.05 165.80 140.86 166.40 140.03 L 166.94 139.27 C 167.55 138.43 167.35 137.26 166.52 136.66 C 165.68 136.06 164.51 136.25 163.91 137.09 Z M 163.35 137.86 L 162.80 138.65 C 162.21 139.50 162.41 140.66 163.26 141.25 C 164.11 141.85 165.27 141.64 165.86 140.79 L 166.42 140.01 C 167.01 139.16 166.80 138.00 165.96 137.40 C 165.11 136.81 163.94 137.02 163.35 137.86 Z M 162.79 138.67 L 162.22 139.50 C 161.64 140.36 161.87 141.52 162.72 142.10 C 163.57 142.68 164.74 142.46 165.32 141.60 L 165.88 140.77 C 166.46 139.92 166.24 138.76 165.38 138.18 C 164.53 137.60 163.37 137.82 162.79 138.67 Z M 162.21 139.53 L 161.63 140.41 C 161.06 141.27 161.30 142.43 162.17 142.99 C 163.03 143.56 164.19 143.32 164.75 142.46 L 165.33 141.58 C 165.90 140.72 165.66 139.56 164.80 138.99 C 163.93 138.42 162.77 138.66 162.21 139.53 Z M 161.61 140.43 L 161.02 141.37 C 160.47 142.24 160.72 143.40 161.60 143.95 C 162.47 144.50 163.62 144.24 164.18 143.37 L 164.77 142.43 C 165.32 141.56 165.06 140.41 164.19 139.85 C 163.32 139.30 162.17 139.56 161.61 140.43 Z M 161.00 141.40 L 160.39 142.40 C 159.85 143.28 160.13 144.43 161.01 144.97 C 161.89 145.51 163.04 145.23 163.58 144.35 L 164.19 143.34 C 164.73 142.46 164.45 141.31 163.57 140.77 C 162.69 140.24 161.54 140.51 161.00 141.40 Z M 160.38 142.42 L 159.85 143.32 C 159.32 144.21 159.62 145.36 160.51 145.88 C 161.39 146.40 162.54 146.11 163.06 145.22 L 163.59 144.32 C 164.12 143.43 163.82 142.29 162.93 141.76 C 162.04 141.24 160.90 141.54 160.38 142.42 Z M 159.84 143.34 L 159.37 144.16 C 158.86 145.05 159.16 146.19 160.06 146.70 C 160.95 147.22 162.09 146.91 162.60 146.02 L 163.07 145.20 C 163.58 144.31 163.28 143.17 162.38 142.65 C 161.49 142.14 160.35 142.45 159.84 143.34 Z M 159.36 144.18 L 158.89 145.02 C 158.38 145.92 158.70 147.05 159.59 147.56 C 160.49 148.06 161.62 147.74 162.13 146.85 L 162.61 146.00 C 163.11 145.11 162.79 143.97 161.90 143.47 C 161.00 142.96 159.87 143.28 159.36 144.18 Z M 158.88 145.04 L 158.40 145.91 C 157.90 146.81 158.23 147.94 159.12 148.43 C 160.02 148.93 161.15 148.61 161.65 147.71 L 162.13 146.84 C 162.63 145.94 162.30 144.81 161.41 144.31 C 160.51 143.82 159.38 144.14 158.88 145.04 Z M 158.40 145.92 L 157.91 146.82 C 157.42 147.71 157.75 148.84 158.64 149.33 C 159.54 149.82 160.67 149.49 161.16 148.59 L 161.65 147.70 C 162.14 146.80 161.81 145.68 160.91 145.19 C 160.01 144.70 158.89 145.03 158.40 145.92 Z M 157.91 146.83 L 157.42 147.73 C 156.93 148.63 157.26 149.75 158.16 150.24 C 159.06 150.73 160.18 150.39 160.66 149.49 L 161.16 148.59 C 161.64 147.69 161.31 146.57 160.41 146.08 C 159.52 145.60 158.39 145.93 157.91 146.83 Z M 157.42 147.74 L 156.92 148.66 C 156.44 149.56 156.78 150.67 157.67 151.16 C 158.57 151.64 159.69 151.30 160.17 150.40 L 160.66 149.49 C 161.15 148.59 160.81 147.47 159.91 146.99 C 159.02 146.51 157.90 146.85 157.42 147.74 Z M 156.93 148.66 L 156.43 149.58 C 155.95 150.48 156.29 151.59 157.19 152.07 C 158.08 152.55 159.20 152.21 159.68 151.32 L 160.17 150.40 C 160.65 149.50 160.31 148.39 159.41 147.91 C 158.52 147.43 157.40 147.77 156.93 148.66 Z M 156.44 149.59 L 155.95 150.50 C 155.47 151.40 155.81 152.51 156.70 152.99 C 157.60 153.46 158.71 153.12 159.19 152.23 L 159.67 151.31 C 160.15 150.42 159.81 149.31 158.92 148.83 C 158.03 148.36 156.91 148.69 156.44 149.59 Z M 155.95 150.51 L 155.47 151.41 C 154.99 152.30 155.33 153.41 156.22 153.89 C 157.11 154.36 158.22 154.03 158.70 153.14 L 159.18 152.23 C 159.66 151.34 159.32 150.23 158.43 149.75 C 157.54 149.28 156.43 149.61 155.95 150.51 Z M 155.47 151.41 L 155.00 152.30 C 154.52 153.19 154.86 154.30 155.75 154.78 C 156.63 155.25 157.74 154.92 158.22 154.03 L 158.69 153.13 C 159.17 152.25 158.83 151.14 157.94 150.66 C 157.05 150.19 155.95 150.52 155.47 151.41 Z M 155.00 152.30 L 154.53 153.17 C 154.06 154.06 154.39 155.16 155.28 155.64 C 156.16 156.12 157.27 155.78 157.74 154.90 L 158.21 154.03 C 158.69 153.14 158.36 152.04 157.47 151.56 C 156.58 151.08 155.48 151.42 155.00 152.30 Z M 154.54 153.17 L 154.08 154.01 C 153.61 154.90 153.93 156.00 154.82 156.48 C 155.70 156.96 156.80 156.63 157.28 155.74 L 157.74 154.90 C 158.22 154.02 157.89 152.91 157.00 152.44 C 156.12 151.96 155.02 152.29 154.54 153.17 Z M 154.09 154.01 L 153.57 154.95 C 153.09 155.83 153.41 156.93 154.29 157.42 C 155.17 157.90 156.27 157.58 156.75 156.70 L 157.27 155.75 C 157.75 154.87 157.43 153.77 156.55 153.29 C 155.68 152.81 154.57 153.13 154.09 154.01 Z M 153.58 154.94 L 153.03 155.94 C 152.54 156.81 152.86 157.91 153.73 158.40 C 154.60 158.89 155.71 158.57 156.19 157.70 L 156.74 156.71 C 157.23 155.83 156.92 154.73 156.04 154.24 C 155.17 153.76 154.07 154.07 153.58 154.94 Z M 153.04 155.93 L 152.50 156.87 C 152.01 157.74 152.32 158.84 153.19 159.33 C 154.05 159.83 155.16 159.52 155.65 158.65 L 156.18 157.71 C 156.68 156.84 156.37 155.74 155.50 155.24 C 154.63 154.75 153.53 155.06 153.04 155.93 Z M 152.51 156.86 L 151.99 157.76 C 151.50 158.62 151.79 159.73 152.66 160.22 C 153.52 160.72 154.62 160.43 155.12 159.56 L 155.64 158.66 C 156.14 157.80 155.84 156.69 154.98 156.20 C 154.11 155.70 153.01 156.00 152.51 156.86 Z M 152.00 157.75 L 151.50 158.61 C 150.99 159.47 151.28 160.57 152.14 161.08 C 153.00 161.58 154.10 161.29 154.61 160.44 L 155.11 159.57 C 155.62 158.71 155.33 157.61 154.47 157.11 C 153.61 156.60 152.51 156.89 152.00 157.75 Z M 151.51 158.60 L 151.01 159.43 C 150.50 160.29 150.78 161.39 151.63 161.90 C 152.49 162.41 153.59 162.13 154.10 161.28 L 154.60 160.45 C 155.11 159.59 154.83 158.49 153.97 157.98 C 153.12 157.47 152.02 157.75 151.51 158.60 Z M 151.02 159.42 L 150.53 160.23 C 150.01 161.08 150.28 162.19 151.13 162.70 C 151.98 163.22 153.09 162.94 153.60 162.10 L 154.09 161.29 C 154.61 160.44 154.33 159.34 153.49 158.82 C 152.64 158.31 151.53 158.58 151.02 159.42 Z M 150.54 160.22 L 150.05 161.01 C 149.53 161.86 149.79 162.96 150.64 163.48 C 151.48 164.00 152.59 163.74 153.10 162.90 L 153.59 162.11 C 154.11 161.26 153.85 160.16 153.00 159.64 C 152.16 159.12 151.06 159.38 150.54 160.22 Z M 150.06 161.01 L 149.57 161.79 C 149.05 162.62 149.30 163.73 150.14 164.25 C 150.98 164.78 152.09 164.52 152.61 163.68 L 153.10 162.90 C 153.62 162.06 153.36 160.96 152.53 160.44 C 151.69 159.91 150.58 160.17 150.06 161.01 Z M 149.58 161.78 L 149.09 162.55 C 148.56 163.39 148.81 164.49 149.65 165.02 C 150.48 165.54 151.59 165.30 152.11 164.46 L 152.60 163.69 C 153.13 162.85 152.88 161.75 152.05 161.22 C 151.21 160.69 150.11 160.94 149.58 161.78 Z M 149.10 162.55 L 148.59 163.35 C 148.06 164.18 148.30 165.28 149.13 165.81 C 149.96 166.34 151.07 166.10 151.60 165.27 L 152.11 164.47 C 152.64 163.64 152.40 162.53 151.56 162.00 C 150.73 161.47 149.63 161.71 149.10 162.55 Z M 148.59 163.34 L 148.06 164.17 C 147.52 165.00 147.76 166.11 148.59 166.64 C 149.42 167.17 150.52 166.93 151.06 166.11 L 151.59 165.27 C 152.12 164.45 151.89 163.34 151.06 162.81 C 150.23 162.28 149.13 162.51 148.59 163.34 Z M 148.06 164.17 L 147.52 165.00 C 146.98 165.83 147.22 166.93 148.04 167.47 C 148.87 168.01 149.97 167.77 150.51 166.95 L 151.05 166.11 C 151.59 165.29 151.35 164.18 150.53 163.64 C 149.70 163.11 148.60 163.34 148.06 164.17 Z M 147.52 165.00 L 146.98 165.83 C 146.44 166.66 146.67 167.76 147.49 168.30 C 148.31 168.84 149.42 168.61 149.96 167.79 L 150.50 166.95 C 151.04 166.13 150.81 165.02 149.99 164.48 C 149.17 163.94 148.06 164.17 147.52 165.00 Z M 146.98 165.83 L 146.43 166.66 C 145.89 167.49 146.11 168.59 146.93 169.13 C 147.75 169.67 148.86 169.45 149.40 168.63 L 149.95 167.79 C 150.49 166.97 150.27 165.86 149.45 165.32 C 148.63 164.78 147.52 165.01 146.98 165.83 Z M 146.43 166.66 L 145.88 167.50 C 145.33 168.32 145.55 169.42 146.37 169.96 C 147.19 170.51 148.30 170.29 148.84 169.47 L 149.40 168.63 C 149.94 167.81 149.72 166.71 148.90 166.16 C 148.08 165.62 146.98 165.84 146.43 166.66 Z M 145.88 167.49 L 145.32 168.33 C 144.77 169.15 144.99 170.25 145.81 170.80 C 146.63 171.34 147.73 171.12 148.28 170.31 L 148.84 169.47 C 149.38 168.65 149.16 167.55 148.35 167.00 C 147.53 166.46 146.43 166.68 145.88 167.49 Z M 145.32 168.33 L 144.76 169.16 C 144.21 169.98 144.43 171.08 145.24 171.63 C 146.06 172.18 147.16 171.96 147.71 171.15 L 148.27 170.31 C 148.82 169.50 148.61 168.39 147.79 167.84 C 146.98 167.30 145.87 167.51 145.32 168.33 Z M 144.77 169.16 L 144.20 169.99 C 143.65 170.80 143.87 171.91 144.68 172.46 C 145.49 173.01 146.60 172.79 147.15 171.98 L 147.71 171.15 C 148.26 170.34 148.05 169.23 147.23 168.68 C 146.42 168.13 145.32 168.34 144.77 169.16 Z M 144.21 169.99 L 143.65 170.81 C 143.09 171.62 143.30 172.73 144.12 173.28 C 144.93 173.83 146.03 173.62 146.58 172.81 L 147.14 171.98 C 147.69 171.17 147.48 170.07 146.67 169.52 C 145.86 168.97 144.76 169.18 144.21 169.99 Z M 143.65 170.81 L 143.11 171.60 C 142.55 172.41 142.76 173.51 143.57 174.07 C 144.38 174.62 145.49 174.41 146.04 173.60 L 146.58 172.81 C 147.13 172.00 146.92 170.90 146.12 170.34 C 145.31 169.79 144.20 170.00 143.65 170.81 Z M 143.11 171.60 L 142.57 172.39 C 142.01 173.19 142.22 174.30 143.03 174.85 C 143.83 175.41 144.94 175.20 145.49 174.40 L 146.04 173.61 C 146.59 172.80 146.39 171.69 145.58 171.14 C 144.77 170.58 143.67 170.79 143.11 171.60 Z M 142.57 172.38 L 142.02 173.17 C 141.47 173.98 141.67 175.08 142.47 175.64 C 143.28 176.20 144.38 176.00 144.94 175.19 L 145.49 174.40 C 146.05 173.60 145.85 172.49 145.04 171.93 C 144.23 171.37 143.13 171.58 142.57 172.38 Z M 142.03 173.17 L 141.47 173.96 C 140.91 174.77 141.11 175.87 141.91 176.43 C 142.71 177.00 143.82 176.80 144.38 176.00 L 144.94 175.20 C 145.50 174.40 145.30 173.29 144.50 172.73 C 143.69 172.17 142.59 172.36 142.03 173.17 Z M 141.48 173.96 L 140.91 174.76 C 140.35 175.56 140.54 176.67 141.34 177.23 C 142.14 177.80 143.25 177.61 143.81 176.80 L 144.38 176.00 C 144.94 175.20 144.75 174.09 143.95 173.53 C 143.15 172.97 142.04 173.16 141.48 173.96 Z M 140.92 174.75 L 140.34 175.57 C 139.77 176.36 139.95 177.47 140.75 178.04 C 141.55 178.61 142.66 178.42 143.23 177.62 L 143.80 176.81 C 144.37 176.01 144.19 174.91 143.39 174.34 C 142.59 173.77 141.48 173.96 140.92 174.75 Z M 140.34 175.56 L 139.75 176.38 C 139.18 177.18 139.36 178.29 140.15 178.86 C 140.94 179.43 142.05 179.25 142.63 178.46 L 143.22 177.63 C 143.79 176.84 143.61 175.73 142.82 175.16 C 142.02 174.58 140.92 174.76 140.34 175.56 Z M 139.76 176.38 L 139.14 177.21 C 138.57 178.00 138.74 179.11 139.53 179.69 C 140.32 180.27 141.43 180.09 142.01 179.30 L 142.62 178.46 C 143.20 177.67 143.02 176.56 142.23 175.99 C 141.44 175.41 140.33 175.58 139.76 176.38 Z M 139.15 177.20 L 138.52 178.06 C 137.94 178.85 138.10 179.96 138.89 180.54 C 139.68 181.12 140.79 180.95 141.37 180.17 L 142.00 179.31 C 142.58 178.52 142.42 177.41 141.63 176.83 C 140.84 176.25 139.73 176.42 139.15 177.20 Z M 138.53 178.05 L 137.90 178.89 C 137.31 179.68 137.47 180.79 138.25 181.37 C 139.04 181.96 140.15 181.80 140.73 181.02 L 141.36 180.17 C 141.95 179.39 141.79 178.28 141.01 177.69 C 140.22 177.11 139.11 177.27 138.53 178.05 Z M 137.90 178.89 L 137.30 179.68 C 136.71 180.46 136.86 181.58 137.64 182.17 C 138.42 182.76 139.54 182.60 140.13 181.82 L 140.73 181.02 C 141.32 180.24 141.16 179.13 140.38 178.54 C 139.60 177.95 138.49 178.10 137.90 178.89 Z M 137.30 179.68 L 136.68 180.49 C 136.09 181.27 136.24 182.38 137.03 182.98 C 137.81 183.57 138.92 183.42 139.51 182.63 L 140.13 181.82 C 140.72 181.04 140.56 179.93 139.78 179.34 C 139.00 178.75 137.89 178.90 137.30 179.68 Z M 136.68 180.49 L 136.06 181.31 C 135.47 182.09 135.62 183.21 136.41 183.80 C 137.19 184.39 138.30 184.24 138.90 183.45 L 139.51 182.63 C 140.11 181.85 139.95 180.74 139.17 180.14 C 138.39 179.55 137.27 179.71 136.68 180.49 Z M 136.06 181.31 L 135.44 182.14 C 134.85 182.92 135.01 184.04 135.79 184.63 C 136.58 185.22 137.69 185.06 138.28 184.27 L 138.90 183.45 C 139.49 182.66 139.33 181.55 138.55 180.96 C 137.76 180.37 136.65 180.53 136.06 181.31 Z M 135.43 182.15 L 134.81 182.98 C 134.23 183.77 134.40 184.88 135.19 185.47 C 135.98 186.05 137.09 185.89 137.68 185.09 L 138.29 184.27 C 138.88 183.48 138.71 182.36 137.92 181.78 C 137.13 181.19 136.01 181.36 135.43 182.15 Z M 134.80 182.99 L 134.20 183.82 C 133.62 184.61 133.80 185.73 134.60 186.31 C 135.39 186.89 136.51 186.71 137.09 185.91 L 137.69 185.08 C 138.27 184.29 138.09 183.17 137.29 182.59 C 136.50 182.01 135.38 182.19 134.80 182.99 Z M 134.19 183.83 L 133.60 184.66 C 133.03 185.47 133.22 186.58 134.03 187.15 C 134.83 187.72 135.95 187.53 136.51 186.72 L 137.10 185.90 C 137.67 185.09 137.48 183.98 136.67 183.41 C 135.87 182.84 134.76 183.03 134.19 183.83 Z M 133.58 184.68 L 133.02 185.50 C 132.46 186.32 132.67 187.43 133.49 187.99 C 134.30 188.54 135.41 188.34 135.97 187.52 L 136.53 186.70 C 137.09 185.89 136.88 184.77 136.07 184.22 C 135.25 183.66 134.14 183.87 133.58 184.68 Z M 133.00 185.53 L 132.47 186.34 C 131.93 187.17 132.16 188.28 132.98 188.82 C 133.81 189.36 134.92 189.13 135.46 188.31 L 135.99 187.49 C 136.53 186.67 136.30 185.56 135.48 185.02 C 134.65 184.48 133.54 184.71 133.00 185.53 Z M 132.44 186.38 L 131.94 187.18 C 131.42 188.02 131.68 189.12 132.52 189.65 C 133.36 190.17 134.46 189.91 134.99 189.07 L 135.48 188.27 C 136.01 187.43 135.75 186.33 134.91 185.81 C 134.07 185.28 132.97 185.54 132.44 186.38 Z M 131.91 187.23 L 131.39 188.13 C 130.90 188.98 131.19 190.08 132.05 190.58 C 132.90 191.07 134.00 190.78 134.50 189.92 L 135.02 189.02 C 135.51 188.17 135.22 187.07 134.36 186.57 C 133.51 186.08 132.41 186.37 131.91 187.23 Z M 131.35 188.20 L 130.80 189.26 C 130.34 190.14 130.69 191.22 131.57 191.68 C 132.45 192.14 133.53 191.79 133.99 190.91 L 134.54 189.85 C 135.00 188.97 134.65 187.89 133.77 187.43 C 132.89 186.97 131.81 187.32 131.35 188.20 Z M 130.75 189.36 L 130.29 190.39 C 129.89 191.30 130.31 192.36 131.22 192.76 C 132.13 193.16 133.19 192.75 133.59 191.84 L 134.04 190.81 C 134.44 189.90 134.03 188.84 133.12 188.44 C 132.21 188.04 131.15 188.45 130.75 189.36 Z M 130.24 190.52 L 129.89 191.51 C 129.57 192.45 130.07 193.48 131.01 193.81 C 131.95 194.13 132.98 193.63 133.31 192.69 L 133.65 191.70 C 133.98 190.76 133.48 189.73 132.53 189.40 C 131.59 189.08 130.56 189.58 130.24 190.52 Z M 129.84 191.69 L 129.61 192.64 C 129.39 193.61 129.99 194.59 130.96 194.81 C 131.94 195.04 132.91 194.44 133.14 193.47 L 133.36 192.52 C 133.59 191.54 132.99 190.57 132.02 190.34 C 131.04 190.11 130.07 190.71 129.84 191.69 Z M 129.57 192.86 L 129.48 193.77 C 129.37 194.77 130.10 195.66 131.10 195.77 C 132.09 195.87 132.99 195.15 133.09 194.15 L 133.18 193.24 C 133.29 192.24 132.56 191.35 131.57 191.24 C 130.57 191.14 129.67 191.87 129.57 192.86 Z M 129.46 194.05 L 129.51 194.92 C 129.56 195.93 130.42 196.70 131.42 196.65 C 132.43 196.60 133.20 195.74 133.15 194.73 L 133.10 193.87 C 133.05 192.86 132.19 192.09 131.19 192.14 C 130.19 192.19 129.41 193.05 129.46 194.05 Z M 129.55 195.25 L 129.74 196.07 C 129.98 197.05 130.96 197.66 131.94 197.43 C 132.92 197.20 133.53 196.21 133.30 195.23 L 133.11 194.41 C 132.87 193.43 131.89 192.82 130.91 193.05 C 129.93 193.28 129.32 194.26 129.55 195.25 Z M 129.85 196.39 L 130.17 197.11 C 130.58 198.04 131.66 198.45 132.59 198.04 C 133.51 197.63 133.92 196.55 133.51 195.62 L 133.19 194.91 C 132.78 193.98 131.70 193.57 130.78 193.98 C 129.85 194.39 129.44 195.47 129.85 196.39 Z M 130.31 197.38 L 130.72 198.00 C 131.28 198.84 132.42 199.07 133.26 198.52 C 134.10 197.96 134.34 196.82 133.78 195.98 L 133.37 195.36 C 132.81 194.51 131.68 194.28 130.83 194.84 C 129.99 195.40 129.76 196.53 130.31 197.38 Z M 130.87 198.19 L 131.39 198.79 C 132.06 199.55 133.22 199.63 133.98 198.96 C 134.74 198.30 134.82 197.14 134.15 196.38 L 133.63 195.78 C 132.96 195.02 131.81 194.94 131.05 195.61 C 130.28 196.28 130.21 197.43 130.87 198.19 Z M 131.53 198.93 L 132.16 199.51 C 132.90 200.19 134.06 200.14 134.75 199.40 C 135.43 198.66 135.38 197.50 134.64 196.81 L 134.01 196.24 C 133.27 195.55 132.11 195.60 131.42 196.34 C 130.74 197.09 130.79 198.25 131.53 198.93 Z M 132.28 199.61 L 133.01 200.17 C 133.81 200.79 134.96 200.64 135.58 199.84 C 136.20 199.04 136.05 197.89 135.25 197.27 L 134.52 196.71 C 133.72 196.09 132.57 196.24 131.95 197.04 C 131.33 197.84 131.48 198.99 132.28 199.61 Z M 133.11 200.25 L 133.94 200.80 C 134.78 201.37 135.92 201.14 136.48 200.30 C 137.04 199.46 136.82 198.32 135.98 197.76 L 135.15 197.20 C 134.31 196.64 133.17 196.86 132.61 197.70 C 132.05 198.54 132.27 199.68 133.11 200.25 Z M 134.02 200.85 L 134.94 201.41 C 135.81 201.93 136.94 201.65 137.46 200.78 C 137.98 199.91 137.70 198.79 136.83 198.27 L 135.90 197.71 C 135.03 197.19 133.91 197.47 133.39 198.34 C 132.87 199.21 133.15 200.33 134.02 200.85 Z M 135.00 201.44 L 136.02 202.00 C 136.91 202.49 138.02 202.17 138.51 201.28 C 139.00 200.39 138.67 199.28 137.79 198.79 L 136.77 198.23 C 135.88 197.74 134.77 198.07 134.28 198.95 C 133.79 199.84 134.12 200.95 135.00 201.44 Z M 136.07 202.03 L 137.17 202.60 C 138.07 203.06 139.18 202.71 139.64 201.81 C 140.11 200.91 139.75 199.81 138.85 199.34 L 137.75 198.77 C 136.85 198.31 135.74 198.66 135.28 199.56 C 134.81 200.46 135.17 201.56 136.07 202.03 Z M 137.20 202.61 L 138.37 203.19 C 139.28 203.63 140.38 203.26 140.82 202.35 C 141.27 201.45 140.90 200.35 139.99 199.90 L 138.82 199.33 C 137.92 198.88 136.82 199.25 136.37 200.16 C 135.92 201.07 136.30 202.16 137.20 202.61 Z M 138.39 203.19 L 139.22 203.59 C 140.13 204.03 141.22 203.65 141.66 202.74 C 142.10 201.83 141.72 200.73 140.81 200.29 L 139.97 199.89 C 139.06 199.46 137.97 199.84 137.53 200.75 C 137.09 201.66 137.48 202.76 138.39 203.19 Z M 139.23 203.60 L 140.09 204.01 C 141.01 204.44 142.10 204.05 142.53 203.13 C 142.96 202.22 142.57 201.13 141.66 200.70 L 140.79 200.29 C 139.88 199.86 138.79 200.25 138.36 201.16 C 137.92 202.08 138.32 203.17 139.23 203.60 Z M 140.10 204.01 L 140.99 204.43 C 141.91 204.85 143.00 204.46 143.43 203.54 C 143.85 202.62 143.45 201.53 142.54 201.11 L 141.65 200.69 C 140.73 200.27 139.64 200.66 139.22 201.58 C 138.79 202.50 139.19 203.59 140.10 204.01 Z M 141.00 204.43 L 141.91 204.85 C 142.83 205.27 143.92 204.87 144.34 203.95 C 144.76 203.03 144.36 201.94 143.44 201.52 L 142.53 201.10 C 141.61 200.68 140.52 201.08 140.10 202.00 C 139.68 202.92 140.08 204.01 141.00 204.43 Z M 141.92 204.85 L 142.85 205.27 C 143.77 205.69 144.85 205.28 145.27 204.36 C 145.69 203.44 145.28 202.36 144.36 201.94 L 143.43 201.52 C 142.51 201.10 141.43 201.51 141.01 202.43 C 140.59 203.35 141.00 204.43 141.92 204.85 Z M 142.86 205.28 L 143.80 205.70 C 144.72 206.11 145.80 205.70 146.22 204.78 C 146.63 203.86 146.22 202.77 145.30 202.36 L 144.36 201.94 C 143.43 201.52 142.35 201.93 141.94 202.86 C 141.52 203.78 141.93 204.86 142.86 205.28 Z M 143.80 205.70 L 144.75 206.12 C 145.68 206.53 146.76 206.12 147.17 205.19 C 147.58 204.27 147.16 203.19 146.24 202.78 L 145.29 202.36 C 144.37 201.95 143.29 202.36 142.87 203.29 C 142.46 204.21 142.88 205.29 143.80 205.70 Z M 144.76 206.13 L 145.71 206.55 C 146.64 206.95 147.72 206.53 148.12 205.61 C 148.53 204.68 148.11 203.60 147.19 203.20 L 146.23 202.78 C 145.31 202.37 144.23 202.79 143.82 203.71 C 143.41 204.64 143.83 205.72 144.76 206.13 Z M 145.72 206.55 L 146.67 206.96 C 147.60 207.37 148.67 206.94 149.08 206.02 C 149.48 205.09 149.06 204.01 148.13 203.61 L 147.18 203.19 C 146.26 202.79 145.18 203.21 144.77 204.14 C 144.37 205.07 144.79 206.14 145.72 206.55 Z M 146.67 206.97 L 147.62 207.38 C 148.55 207.78 149.63 207.35 150.03 206.42 C 150.43 205.50 150.00 204.42 149.08 204.02 L 148.13 203.61 C 147.20 203.21 146.12 203.63 145.72 204.56 C 145.32 205.49 145.75 206.56 146.67 206.97 Z M 147.63 207.38 L 148.56 207.78 C 149.49 208.18 150.57 207.75 150.96 206.82 C 151.36 205.89 150.93 204.82 150.01 204.42 L 149.07 204.02 C 148.14 203.62 147.07 204.05 146.67 204.97 C 146.27 205.90 146.70 206.98 147.63 207.38 Z M 148.57 207.78 L 149.49 208.17 C 150.42 208.57 151.49 208.14 151.89 207.21 C 152.28 206.28 151.85 205.21 150.92 204.81 L 150.00 204.42 C 149.07 204.02 148.00 204.45 147.60 205.38 C 147.21 206.31 147.64 207.38 148.57 207.78 Z M 149.49 208.18 L 150.39 208.56 C 151.32 208.95 152.40 208.52 152.79 207.59 C 153.19 206.66 152.75 205.58 151.82 205.19 L 150.92 204.81 C 149.99 204.41 148.92 204.85 148.52 205.78 C 148.13 206.71 148.56 207.78 149.49 208.18 Z M 150.40 208.56 L 151.28 208.93 C 152.21 209.32 153.28 208.88 153.67 207.95 C 154.06 207.02 153.63 205.95 152.69 205.56 L 151.82 205.19 C 150.89 204.80 149.81 205.23 149.42 206.16 C 149.03 207.10 149.47 208.17 150.40 208.56 Z M 151.28 208.93 L 152.31 209.36 C 153.24 209.75 154.31 209.31 154.70 208.38 C 155.09 207.45 154.65 206.38 153.72 205.99 L 152.69 205.56 C 151.76 205.17 150.69 205.61 150.30 206.54 C 149.91 207.47 150.35 208.54 151.28 208.93 Z M 152.32 209.36 L 153.34 209.79 C 154.28 210.18 155.35 209.73 155.73 208.80 C 156.12 207.87 155.68 206.80 154.75 206.41 L 153.72 205.99 C 152.79 205.60 151.72 206.04 151.33 206.97 C 150.94 207.91 151.38 208.97 152.32 209.36 Z M 153.35 209.79 L 154.34 210.20 C 155.27 210.58 156.34 210.14 156.72 209.21 C 157.11 208.28 156.66 207.21 155.73 206.82 L 154.74 206.41 C 153.81 206.03 152.74 206.47 152.36 207.40 C 151.97 208.34 152.42 209.40 153.35 209.79 Z M 154.34 210.20 L 155.29 210.59 C 156.23 210.98 157.29 210.53 157.68 209.60 C 158.06 208.67 157.62 207.60 156.69 207.22 L 155.73 206.83 C 154.80 206.44 153.73 206.88 153.35 207.81 C 152.97 208.74 153.41 209.81 154.34 210.20 Z M 155.29 210.59 L 156.22 210.97 C 157.15 211.36 158.22 210.92 158.60 209.99 C 158.99 209.06 158.55 207.99 157.62 207.61 L 156.69 207.22 C 155.76 206.84 154.69 207.28 154.31 208.21 C 153.92 209.14 154.36 210.20 155.29 210.59 Z M 156.22 210.97 L 157.12 211.35 C 158.05 211.73 159.11 211.29 159.50 210.37 C 159.89 209.44 159.45 208.37 158.52 207.99 L 157.62 207.61 C 156.69 207.22 155.63 207.66 155.24 208.59 C 154.85 209.52 155.29 210.58 156.22 210.97 Z M 157.11 211.34 L 158.00 211.71 C 158.92 212.10 159.99 211.67 160.38 210.74 C 160.77 209.82 160.34 208.75 159.41 208.36 L 158.53 207.99 C 157.60 207.60 156.53 208.03 156.14 208.96 C 155.75 209.89 156.19 210.95 157.11 211.34 Z M 157.99 211.71 L 158.86 212.08 C 159.78 212.47 160.85 212.05 161.24 211.12 C 161.64 210.20 161.21 209.13 160.28 208.74 L 159.42 208.37 C 158.49 207.97 157.43 208.40 157.03 209.32 C 156.64 210.25 157.07 211.31 157.99 211.71 Z M 158.85 212.07 L 159.70 212.45 C 160.62 212.85 161.69 212.42 162.09 211.50 C 162.49 210.58 162.07 209.51 161.15 209.11 L 160.29 208.74 C 159.37 208.34 158.30 208.76 157.90 209.68 C 157.50 210.60 157.93 211.67 158.85 212.07 Z M 159.69 212.44 L 160.54 212.82 C 161.46 213.22 162.53 212.81 162.94 211.89 C 163.34 210.98 162.93 209.91 162.01 209.50 L 161.16 209.12 C 160.25 208.72 159.17 209.13 158.77 210.04 C 158.36 210.96 158.77 212.03 159.69 212.44 Z M 160.53 212.81 L 161.38 213.19 C 162.29 213.61 163.36 213.20 163.78 212.29 C 164.19 211.38 163.79 210.31 162.88 209.89 L 162.03 209.51 C 161.12 209.09 160.04 209.50 159.63 210.41 C 159.21 211.32 159.62 212.39 160.53 212.81 Z M 161.36 213.19 L 162.24 213.59 C 163.14 214.02 164.22 213.62 164.64 212.72 C 165.07 211.81 164.67 210.73 163.77 210.31 L 162.89 209.90 C 161.98 209.48 160.91 209.87 160.48 210.78 C 160.06 211.68 160.45 212.76 161.36 213.19 Z M 162.22 213.59 L 163.12 214.02 C 164.02 214.45 165.10 214.07 165.53 213.17 C 165.97 212.27 165.59 211.18 164.69 210.75 L 163.79 210.32 C 162.88 209.89 161.80 210.27 161.37 211.17 C 160.94 212.07 161.32 213.15 162.22 213.59 Z M 163.10 214.01 L 164.00 214.45 C 164.90 214.90 165.98 214.53 166.43 213.63 C 166.87 212.73 166.50 211.65 165.60 211.20 L 164.70 210.76 C 163.81 210.32 162.72 210.68 162.28 211.58 C 161.83 212.48 162.20 213.56 163.10 214.01 Z M 163.98 214.44 L 164.88 214.90 C 165.77 215.36 166.86 215.00 167.32 214.11 C 167.77 213.22 167.42 212.13 166.52 211.67 L 165.62 211.21 C 164.73 210.76 163.64 211.11 163.19 212.01 C 162.73 212.90 163.09 213.99 163.98 214.44 Z M 164.86 214.89 L 165.75 215.36 C 166.64 215.83 167.74 215.49 168.20 214.60 C 168.67 213.71 168.33 212.62 167.44 212.15 L 166.54 211.68 C 165.66 211.22 164.56 211.56 164.10 212.44 C 163.63 213.33 163.97 214.43 164.86 214.89 Z M 165.73 215.35 L 166.62 215.83 C 167.50 216.31 168.60 215.98 169.08 215.10 C 169.56 214.22 169.23 213.12 168.35 212.65 L 167.46 212.16 C 166.58 211.69 165.48 212.01 165.00 212.89 C 164.53 213.77 164.85 214.87 165.73 215.35 Z M 166.60 215.82 L 167.48 216.31 C 168.35 216.80 169.46 216.49 169.95 215.62 C 170.44 214.75 170.13 213.64 169.25 213.15 L 168.37 212.66 C 167.50 212.17 166.40 212.48 165.91 213.35 C 165.42 214.23 165.73 215.33 166.60 215.82 Z M 167.46 216.30 L 168.32 216.81 C 169.19 217.31 170.30 217.02 170.80 216.15 C 171.31 215.28 171.01 214.17 170.15 213.67 L 169.28 213.17 C 168.41 212.66 167.30 212.96 166.80 213.82 C 166.30 214.69 166.59 215.80 167.46 216.30 Z M 168.30 216.79 L 169.15 217.31 C 170.01 217.82 171.12 217.55 171.64 216.69 C 172.16 215.83 171.88 214.72 171.03 214.20 L 170.17 213.69 C 169.31 213.17 168.20 213.44 167.68 214.30 C 167.17 215.16 167.44 216.27 168.30 216.79 Z M 169.13 217.29 L 169.96 217.81 C 170.81 218.35 171.93 218.09 172.46 217.24 C 172.99 216.39 172.74 215.27 171.89 214.74 L 171.05 214.22 C 170.21 213.68 169.09 213.94 168.55 214.79 C 168.02 215.64 168.28 216.76 169.13 217.29 Z M 169.93 217.80 L 170.75 218.33 C 171.59 218.88 172.71 218.64 173.26 217.81 C 173.81 216.97 173.57 215.84 172.74 215.29 L 171.92 214.76 C 171.08 214.21 169.96 214.45 169.41 215.29 C 168.86 216.12 169.10 217.25 169.93 217.80 Z M 170.72 218.31 L 171.58 218.90 C 172.41 219.47 173.54 219.26 174.11 218.43 C 174.67 217.60 174.46 216.47 173.63 215.91 L 172.77 215.32 C 171.94 214.75 170.81 214.96 170.25 215.79 C 169.68 216.61 169.89 217.74 170.72 218.31 Z M 171.55 218.88 L 172.40 219.49 C 173.21 220.08 174.35 219.89 174.93 219.08 C 175.52 218.27 175.33 217.13 174.52 216.54 L 173.67 215.93 C 172.86 215.34 171.72 215.53 171.13 216.34 C 170.55 217.16 170.73 218.29 171.55 218.88 Z M 172.36 219.47 L 173.18 220.09 C 173.98 220.70 175.12 220.54 175.73 219.74 C 176.34 218.94 176.18 217.80 175.38 217.19 L 174.56 216.57 C 173.76 215.96 172.62 216.12 172.01 216.92 C 171.40 217.72 171.56 218.86 172.36 219.47 Z M 173.14 220.06 L 173.94 220.70 C 174.72 221.33 175.87 221.20 176.50 220.42 C 177.13 219.63 177.00 218.48 176.21 217.85 L 175.42 217.22 C 174.63 216.59 173.49 216.72 172.86 217.50 C 172.23 218.29 172.36 219.44 173.14 220.06 Z M 173.90 220.67 L 174.66 221.32 C 175.43 221.97 176.58 221.87 177.23 221.10 C 177.88 220.33 177.79 219.18 177.02 218.53 L 176.25 217.88 C 175.48 217.23 174.33 217.33 173.68 218.10 C 173.03 218.87 173.13 220.02 173.90 220.67 Z M 174.62 221.29 L 175.36 221.95 C 176.11 222.62 177.27 222.55 177.94 221.80 C 178.61 221.05 178.55 219.89 177.80 219.22 L 177.06 218.56 C 176.31 217.89 175.15 217.95 174.48 218.71 C 173.80 219.46 173.87 220.61 174.62 221.29 Z M 175.32 221.91 L 176.03 222.58 C 176.76 223.28 177.92 223.25 178.62 222.52 C 179.31 221.78 179.28 220.62 178.55 219.93 L 177.84 219.26 C 177.10 218.56 175.94 218.59 175.25 219.32 C 174.55 220.06 174.58 221.22 175.32 221.91 Z M 175.99 222.55 L 176.67 223.23 C 177.38 223.95 178.54 223.96 179.26 223.24 C 179.98 222.53 179.98 221.37 179.27 220.65 L 178.59 219.96 C 177.87 219.25 176.71 219.24 176.00 219.96 C 175.28 220.67 175.27 221.83 175.99 222.55 Z M 176.63 223.19 L 177.28 223.89 C 177.97 224.63 179.13 224.67 179.87 223.98 C 180.61 223.29 180.65 222.13 179.96 221.39 L 179.31 220.69 C 178.62 219.95 177.46 219.91 176.72 220.60 C 175.97 221.29 175.93 222.45 176.63 223.19 Z M 177.24 223.85 L 177.87 224.57 C 178.54 225.34 179.70 225.41 180.46 224.75 C 181.23 224.08 181.30 222.92 180.64 222.15 L 180.00 221.43 C 179.33 220.67 178.17 220.59 177.41 221.26 C 176.65 221.93 176.57 223.09 177.24 223.85 Z M 177.83 224.53 L 178.47 225.31 C 179.11 226.10 180.27 226.22 181.06 225.57 C 181.84 224.93 181.96 223.77 181.32 222.98 L 180.68 222.20 C 180.04 221.41 178.88 221.29 178.09 221.94 C 177.30 222.58 177.18 223.74 177.83 224.53 Z M 178.42 225.26 L 179.03 226.06 C 179.64 226.87 180.79 227.03 181.61 226.42 C 182.42 225.81 182.58 224.65 181.97 223.84 L 181.36 223.04 C 180.75 222.23 179.60 222.06 178.78 222.68 C 177.97 223.29 177.81 224.44 178.42 225.26 Z M 178.98 226.00 L 179.55 226.82 C 180.13 227.66 181.27 227.87 182.11 227.29 C 182.95 226.71 183.16 225.56 182.58 224.72 L 182.02 223.90 C 181.44 223.06 180.29 222.85 179.45 223.43 C 178.61 224.01 178.40 225.16 178.98 226.00 Z M 179.50 226.75 L 180.03 227.59 C 180.57 228.46 181.71 228.72 182.57 228.18 C 183.44 227.64 183.70 226.50 183.16 225.63 L 182.63 224.79 C 182.09 223.93 180.95 223.67 180.09 224.21 C 179.22 224.75 178.96 225.89 179.50 226.75 Z M 179.98 227.52 L 180.47 228.38 C 180.96 229.27 182.09 229.59 182.98 229.09 C 183.87 228.59 184.19 227.47 183.69 226.57 L 183.21 225.71 C 182.71 224.82 181.58 224.50 180.69 225.00 C 179.80 225.50 179.48 226.63 179.98 227.52 Z M 180.42 228.30 L 180.86 229.19 C 181.31 230.11 182.42 230.48 183.34 230.03 C 184.26 229.57 184.63 228.46 184.18 227.55 L 183.74 226.66 C 183.28 225.74 182.17 225.37 181.26 225.82 C 180.34 226.27 179.97 227.39 180.42 228.30 Z M 180.82 229.10 L 181.21 230.01 C 181.61 230.95 182.71 231.39 183.65 230.98 C 184.59 230.58 185.02 229.49 184.61 228.55 L 184.22 227.63 C 183.82 226.69 182.72 226.26 181.78 226.67 C 180.84 227.07 180.41 228.16 180.82 229.10 Z M 181.17 229.92 L 181.51 230.86 C 181.87 231.82 182.93 232.31 183.89 231.96 C 184.86 231.61 185.35 230.54 185.00 229.58 L 184.65 228.64 C 184.30 227.68 183.24 227.19 182.27 227.54 C 181.31 227.89 180.82 228.96 181.17 229.92 Z M 181.48 230.76 L 181.77 231.72 C 182.07 232.70 183.10 233.25 184.09 232.96 C 185.07 232.66 185.62 231.62 185.32 230.64 L 185.03 229.68 C 184.74 228.70 183.70 228.14 182.72 228.44 C 181.74 228.74 181.18 229.78 181.48 230.76 Z M 181.74 231.62 L 181.97 232.57 C 182.21 233.57 183.22 234.18 184.22 233.93 C 185.22 233.69 185.83 232.69 185.58 231.69 L 185.35 230.74 C 185.11 229.74 184.10 229.13 183.11 229.37 C 182.11 229.61 181.50 230.62 181.74 231.62 Z M 181.95 232.47 L 182.13 233.44 C 182.32 234.45 183.30 235.12 184.31 234.93 C 185.32 234.74 185.98 233.76 185.79 232.75 L 185.61 231.78 C 185.42 230.77 184.44 230.11 183.43 230.30 C 182.42 230.49 181.76 231.46 181.95 232.47 Z M 182.12 233.35 L 182.25 234.34 C 182.39 235.36 183.33 236.07 184.35 235.93 C 185.37 235.79 186.08 234.85 185.94 233.83 L 185.81 232.84 C 185.67 231.82 184.73 231.11 183.71 231.25 C 182.69 231.39 181.98 232.33 182.12 233.35 Z M 182.24 234.25 L 182.33 235.25 C 182.42 236.28 183.33 237.03 184.35 236.94 C 185.38 236.85 186.14 235.94 186.04 234.92 L 185.95 233.92 C 185.86 232.89 184.95 232.14 183.93 232.23 C 182.90 232.32 182.15 233.23 182.24 234.25 Z M 182.32 235.17 L 182.37 236.17 C 182.41 237.20 183.29 238.00 184.32 237.95 C 185.34 237.91 186.14 237.04 186.10 236.01 L 186.05 235.00 C 186.01 233.97 185.13 233.17 184.10 233.22 C 183.08 233.27 182.28 234.14 182.32 235.17 Z M 182.37 236.09 L 182.37 237.10 C 182.37 238.13 183.20 238.97 184.23 238.97 C 185.26 238.97 186.10 238.13 186.10 237.10 L 186.10 236.09 C 186.10 235.06 185.26 234.22 184.23 234.22 C 183.20 234.22 182.36 235.06 182.37 236.09 Z M 182.37 237.02 L 182.32 238.03 C 182.28 239.06 183.08 239.93 184.11 239.98 C 185.14 240.02 186.01 239.22 186.06 238.19 L 186.10 237.18 C 186.14 236.15 185.34 235.28 184.31 235.23 C 183.28 235.19 182.41 235.99 182.37 237.02 Z M 182.33 237.95 L 182.24 238.96 C 182.15 239.98 182.91 240.89 183.94 240.98 C 184.97 241.07 185.88 240.30 185.97 239.28 L 186.05 238.27 C 186.14 237.24 185.38 236.34 184.35 236.25 C 183.32 236.16 182.41 236.92 182.33 237.95 Z M 182.25 238.88 L 182.12 239.87 C 181.99 240.90 182.71 241.83 183.73 241.97 C 184.76 242.10 185.70 241.38 185.83 240.35 L 185.96 239.36 C 186.09 238.33 185.37 237.39 184.34 237.26 C 183.32 237.13 182.38 237.85 182.25 238.88 Z M 182.13 239.79 L 181.96 240.78 C 181.78 241.80 182.46 242.77 183.48 242.94 C 184.50 243.12 185.47 242.44 185.65 241.42 L 185.82 240.43 C 186.00 239.41 185.31 238.44 184.29 238.26 C 183.27 238.09 182.31 238.77 182.13 239.79 Z M 181.97 240.70 L 181.76 241.67 C 181.54 242.68 182.18 243.68 183.19 243.90 C 184.20 244.12 185.20 243.48 185.42 242.47 L 185.63 241.50 C 185.85 240.49 185.21 239.49 184.20 239.27 C 183.19 239.05 182.19 239.69 181.97 240.70 Z M 181.78 241.59 L 181.53 242.55 C 181.26 243.55 181.86 244.58 182.86 244.84 C 183.86 245.11 184.89 244.51 185.15 243.51 L 185.40 242.55 C 185.67 241.55 185.07 240.52 184.07 240.26 C 183.07 240.00 182.04 240.59 181.78 241.59 Z M 181.55 242.48 L 181.26 243.43 C 180.95 244.41 181.50 245.46 182.49 245.77 C 183.48 246.07 184.53 245.52 184.84 244.53 L 185.13 243.58 C 185.43 242.59 184.88 241.55 183.89 241.24 C 182.90 240.94 181.85 241.49 181.55 242.48 Z M 181.28 243.35 L 180.95 244.29 C 180.60 245.26 181.11 246.33 182.09 246.68 C 183.06 247.02 184.13 246.51 184.48 245.54 L 184.81 244.60 C 185.16 243.63 184.65 242.56 183.67 242.21 C 182.70 241.87 181.62 242.38 181.28 243.35 Z M 180.97 244.22 L 180.61 245.14 C 180.22 246.10 180.69 247.19 181.65 247.58 C 182.61 247.96 183.70 247.49 184.09 246.53 L 184.45 245.61 C 184.84 244.65 184.37 243.56 183.41 243.17 C 182.45 242.79 181.36 243.26 180.97 244.22 Z M 180.63 245.07 L 180.23 245.99 C 179.81 246.93 180.23 248.04 181.18 248.46 C 182.12 248.88 183.23 248.46 183.65 247.51 L 184.06 246.60 C 184.48 245.65 184.05 244.54 183.11 244.12 C 182.16 243.70 181.05 244.13 180.63 245.07 Z M 180.26 245.93 L 179.81 246.83 C 179.36 247.76 179.74 248.88 180.67 249.34 C 181.60 249.79 182.73 249.41 183.18 248.48 L 183.62 247.57 C 184.08 246.64 183.69 245.52 182.76 245.07 C 181.83 244.61 180.71 245.00 180.26 245.93 Z M 179.84 246.77 L 179.37 247.66 C 178.88 248.58 179.22 249.71 180.14 250.20 C 181.05 250.69 182.18 250.34 182.67 249.43 L 183.15 248.54 C 183.64 247.62 183.29 246.49 182.38 246.00 C 181.47 245.51 180.33 245.86 179.84 246.77 Z M 179.40 247.61 L 178.90 248.47 C 178.38 249.37 178.69 250.51 179.59 251.03 C 180.48 251.55 181.63 251.24 182.15 250.34 L 182.64 249.48 C 183.16 248.59 182.85 247.44 181.96 246.92 C 181.06 246.41 179.91 246.71 179.40 247.61 Z M 178.93 248.42 L 178.42 249.24 C 177.88 250.12 178.15 251.28 179.03 251.82 C 179.91 252.36 181.07 252.09 181.61 251.21 L 182.12 250.39 C 182.66 249.51 182.39 248.36 181.51 247.81 C 180.63 247.27 179.47 247.54 178.93 248.42 Z M 178.45 249.20 L 177.92 250.01 C 177.35 250.88 177.59 252.04 178.46 252.61 C 179.33 253.17 180.49 252.93 181.05 252.06 L 181.59 251.25 C 182.15 250.39 181.91 249.22 181.04 248.66 C 180.18 248.09 179.02 248.33 178.45 249.20 Z M 177.94 249.97 L 177.39 250.78 C 176.80 251.63 177.01 252.80 177.87 253.39 C 178.72 253.98 179.88 253.76 180.47 252.91 L 181.03 252.10 C 181.62 251.25 181.40 250.08 180.55 249.50 C 179.70 248.91 178.53 249.12 177.94 249.97 Z M 177.41 250.75 L 176.83 251.55 C 176.22 252.39 176.41 253.56 177.25 254.17 C 178.09 254.78 179.26 254.59 179.87 253.75 L 180.45 252.94 C 181.05 252.10 180.86 250.93 180.03 250.33 C 179.19 249.72 178.01 249.91 177.41 250.75 Z M 176.85 251.52 L 176.25 252.33 C 175.63 253.15 175.80 254.33 176.62 254.95 C 177.45 255.57 178.63 255.40 179.25 254.58 L 179.85 253.78 C 180.47 252.95 180.30 251.77 179.47 251.15 C 178.65 250.53 177.47 250.70 176.85 251.52 Z M 176.27 252.30 L 175.65 253.10 C 175.01 253.91 175.16 255.09 175.98 255.73 C 176.80 256.36 177.97 256.21 178.61 255.40 L 179.23 254.60 C 179.86 253.78 179.72 252.61 178.90 251.97 C 178.08 251.34 176.90 251.48 176.27 252.30 Z M 175.67 253.08 L 175.03 253.87 C 174.38 254.68 174.51 255.86 175.32 256.51 C 176.13 257.15 177.31 257.02 177.95 256.21 L 178.59 255.42 C 179.24 254.61 179.11 253.43 178.30 252.78 C 177.49 252.14 176.31 252.27 175.67 253.08 Z M 175.04 253.85 L 174.39 254.65 C 173.74 255.45 173.85 256.63 174.65 257.28 C 175.45 257.94 176.63 257.82 177.29 257.03 L 177.94 256.23 C 178.60 255.43 178.48 254.25 177.68 253.59 C 176.88 252.94 175.70 253.05 175.04 253.85 Z M 174.40 254.63 L 173.74 255.42 C 173.07 256.22 173.18 257.40 173.97 258.06 C 174.76 258.73 175.95 258.63 176.61 257.83 L 177.28 257.04 C 177.94 256.25 177.84 255.06 177.04 254.40 C 176.25 253.73 175.07 253.84 174.40 254.63 Z M 173.75 255.41 L 173.09 256.19 C 172.42 256.98 172.51 258.16 173.30 258.83 C 174.08 259.50 175.27 259.41 175.94 258.62 L 176.60 257.84 C 177.27 257.06 177.18 255.87 176.39 255.20 C 175.60 254.53 174.42 254.62 173.75 255.41 Z M 173.10 256.18 L 172.44 256.93 C 171.76 257.72 171.85 258.90 172.63 259.58 C 173.42 260.25 174.60 260.17 175.28 259.39 L 175.93 258.63 C 176.61 257.85 176.52 256.66 175.74 255.99 C 174.96 255.31 173.77 255.40 173.10 256.18 Z M 172.45 256.92 L 171.79 257.68 C 171.11 258.45 171.18 259.64 171.96 260.32 C 172.74 261.00 173.92 260.93 174.60 260.15 L 175.27 259.40 C 175.95 258.62 175.87 257.44 175.10 256.75 C 174.32 256.07 173.13 256.15 172.45 256.92 Z M 171.80 257.67 L 171.13 258.42 C 170.44 259.19 170.51 260.37 171.28 261.06 C 172.05 261.75 173.24 261.68 173.92 260.91 L 174.59 260.16 C 175.28 259.39 175.22 258.21 174.45 257.52 C 173.67 256.83 172.49 256.89 171.80 257.67 Z M 171.14 258.40 L 170.46 259.15 C 169.77 259.91 169.82 261.10 170.59 261.80 C 171.36 262.49 172.54 262.44 173.24 261.67 L 173.91 260.92 C 174.61 260.16 174.55 258.97 173.79 258.28 C 173.02 257.58 171.84 257.64 171.14 258.40 Z M 170.47 259.14 L 169.79 259.88 C 169.09 260.63 169.13 261.82 169.89 262.52 C 170.65 263.23 171.84 263.18 172.54 262.42 L 173.23 261.68 C 173.93 260.92 173.88 259.74 173.12 259.03 C 172.36 258.33 171.18 258.38 170.47 259.14 Z M 169.80 259.86 L 169.11 260.59 C 168.40 261.35 168.44 262.53 169.19 263.24 C 169.94 263.95 171.13 263.92 171.84 263.16 L 172.53 262.43 C 173.24 261.68 173.21 260.49 172.45 259.78 C 171.70 259.07 170.51 259.11 169.80 259.86 Z M 169.13 260.58 L 168.43 261.30 C 167.71 262.05 167.74 263.23 168.48 263.95 C 169.23 264.67 170.42 264.65 171.13 263.90 L 171.83 263.18 C 172.55 262.43 172.52 261.25 171.78 260.53 C 171.03 259.81 169.84 259.83 169.13 260.58 Z M 168.45 261.29 L 167.75 262.00 C 167.02 262.74 167.03 263.92 167.77 264.65 C 168.51 265.37 169.69 265.36 170.42 264.63 L 171.12 263.91 C 171.84 263.18 171.83 261.99 171.10 261.26 C 170.36 260.54 169.17 260.55 168.45 261.29 Z M 167.76 261.98 L 167.06 262.68 C 166.32 263.41 166.32 264.60 167.05 265.33 C 167.78 266.07 168.97 266.07 169.70 265.34 L 170.40 264.64 C 171.14 263.91 171.14 262.73 170.41 261.99 C 169.68 261.26 168.50 261.25 167.76 261.98 Z M 167.08 262.67 L 166.37 263.35 C 165.62 264.07 165.61 265.26 166.33 266.00 C 167.05 266.74 168.23 266.76 168.98 266.04 L 169.68 265.36 C 170.43 264.64 170.45 263.45 169.73 262.71 C 169.00 261.96 167.82 261.95 167.08 262.67 Z M 166.39 263.33 L 165.65 264.03 C 164.89 264.74 164.86 265.93 165.57 266.68 C 166.28 267.43 167.47 267.47 168.22 266.76 L 168.96 266.06 C 169.71 265.35 169.75 264.16 169.04 263.41 C 168.33 262.66 167.14 262.62 166.39 263.33 Z M 165.67 264.01 L 164.92 264.69 C 164.16 265.39 164.10 266.57 164.80 267.34 C 165.50 268.10 166.68 268.16 167.45 267.46 L 168.20 266.78 C 168.96 266.08 169.01 264.90 168.32 264.13 C 167.62 263.37 166.43 263.31 165.67 264.01 Z M 164.95 264.67 L 164.19 265.33 C 163.42 266.01 163.34 267.19 164.02 267.97 C 164.70 268.75 165.88 268.83 166.66 268.15 L 167.42 267.49 C 168.20 266.81 168.28 265.62 167.60 264.84 C 166.91 264.06 165.73 263.98 164.95 264.67 Z M 164.23 265.30 L 163.46 265.94 C 162.67 266.60 162.56 267.78 163.22 268.58 C 163.89 269.37 165.07 269.48 165.86 268.82 L 166.63 268.18 C 167.42 267.51 167.53 266.33 166.87 265.54 C 166.21 264.74 165.02 264.64 164.23 265.30 Z M 163.50 265.91 L 162.72 266.52 C 161.91 267.16 161.77 268.34 162.41 269.15 C 163.05 269.97 164.23 270.11 165.04 269.46 L 165.82 268.85 C 166.64 268.21 166.77 267.03 166.13 266.22 C 165.49 265.40 164.31 265.27 163.50 265.91 Z M 162.77 266.49 L 161.97 267.08 C 161.14 267.69 160.96 268.87 161.58 269.70 C 162.19 270.53 163.37 270.70 164.20 270.09 L 165.00 269.50 C 165.83 268.88 166.00 267.71 165.39 266.88 C 164.77 266.05 163.60 265.87 162.77 266.49 Z M 162.02 267.04 L 161.21 267.60 C 160.35 268.19 160.14 269.36 160.73 270.21 C 161.31 271.06 162.48 271.27 163.33 270.69 L 164.15 270.13 C 165.00 269.54 165.22 268.37 164.63 267.52 C 164.04 266.67 162.87 266.45 162.02 267.04 Z M 161.26 267.56 L 160.43 268.09 C 159.55 268.65 159.30 269.81 159.85 270.68 C 160.41 271.55 161.57 271.81 162.44 271.26 L 163.28 270.73 C 164.15 270.17 164.41 269.01 163.85 268.14 C 163.30 267.27 162.14 267.01 161.26 267.56 Z M 160.49 268.06 L 159.63 268.56 C 158.74 269.08 158.43 270.22 158.95 271.12 C 159.47 272.01 160.62 272.32 161.51 271.80 L 162.38 271.30 C 163.27 270.78 163.57 269.63 163.05 268.73 C 162.53 267.84 161.39 267.54 160.49 268.06 Z M 159.70 268.52 L 158.81 268.98 C 157.90 269.46 157.55 270.60 158.03 271.51 C 158.51 272.43 159.64 272.78 160.56 272.30 L 161.44 271.83 C 162.36 271.35 162.71 270.22 162.23 269.30 C 161.75 268.39 160.62 268.04 159.70 268.52 Z M 158.89 268.95 L 158.01 269.36 C 157.07 269.80 156.67 270.92 157.11 271.86 C 157.55 272.79 158.67 273.19 159.60 272.75 L 160.48 272.34 C 161.42 271.90 161.82 270.78 161.38 269.84 C 160.94 268.91 159.82 268.51 158.89 268.95 Z M 158.08 269.33 L 157.17 269.71 C 156.22 270.11 155.77 271.21 156.18 272.16 C 156.58 273.12 157.68 273.57 158.63 273.16 L 159.53 272.78 C 160.48 272.38 160.93 271.28 160.53 270.33 C 160.13 269.38 159.03 268.93 158.08 269.33 Z M 157.24 269.68 L 156.32 270.03 C 155.35 270.39 154.86 271.47 155.22 272.44 C 155.59 273.41 156.67 273.90 157.63 273.54 L 158.56 273.19 C 159.53 272.83 160.02 271.75 159.66 270.78 C 159.29 269.81 158.21 269.32 157.24 269.68 Z M 156.39 270.01 L 155.44 270.32 C 154.46 270.64 153.93 271.70 154.26 272.68 C 154.58 273.67 155.64 274.20 156.62 273.87 L 157.56 273.56 C 158.55 273.24 159.08 272.18 158.75 271.20 C 158.43 270.21 157.37 269.68 156.39 270.01 Z M 155.51 270.30 L 154.55 270.58 C 153.56 270.86 152.99 271.90 153.27 272.89 C 153.56 273.89 154.60 274.46 155.59 274.17 L 156.55 273.89 C 157.55 273.61 158.12 272.57 157.83 271.58 C 157.54 270.58 156.50 270.01 155.51 270.30 Z M 154.62 270.56 L 153.64 270.80 C 152.64 271.05 152.03 272.07 152.28 273.07 C 152.53 274.07 153.55 274.68 154.55 274.43 L 155.52 274.19 C 156.53 273.94 157.14 272.92 156.89 271.92 C 156.64 270.92 155.62 270.31 154.62 270.56 Z M 153.71 270.79 L 152.72 271.00 C 151.71 271.21 151.06 272.20 151.28 273.21 C 151.49 274.22 152.48 274.87 153.49 274.66 L 154.48 274.45 C 155.49 274.23 156.14 273.24 155.92 272.23 C 155.71 271.22 154.72 270.58 153.71 270.79 Z M 152.79 270.99 L 151.79 271.16 C 150.77 271.34 150.09 272.30 150.27 273.32 C 150.45 274.34 151.41 275.02 152.43 274.84 L 153.43 274.67 C 154.44 274.49 155.13 273.52 154.95 272.51 C 154.77 271.49 153.80 270.81 152.79 270.99 Z M 151.85 271.15 L 150.85 271.29 C 149.83 271.43 149.11 272.37 149.26 273.39 C 149.40 274.42 150.34 275.13 151.36 274.99 L 152.37 274.85 C 153.39 274.71 154.10 273.77 153.96 272.75 C 153.82 271.72 152.88 271.01 151.85 271.15 Z M 150.92 271.28 L 149.91 271.38 C 148.88 271.49 148.14 272.41 148.24 273.43 C 148.34 274.46 149.26 275.20 150.29 275.10 L 151.30 275.00 C 152.32 274.89 153.07 273.98 152.96 272.95 C 152.86 271.92 151.94 271.18 150.92 271.28 Z M 149.98 271.38 L 148.95 271.45 C 147.92 271.52 147.14 272.40 147.21 273.43 C 147.28 274.46 148.17 275.24 149.20 275.17 L 150.22 275.10 C 151.25 275.04 152.03 274.15 151.96 273.12 C 151.89 272.09 151.00 271.31 149.98 271.38 Z M 149.02 271.45 L 147.97 271.48 C 146.95 271.51 146.14 272.37 146.17 273.39 C 146.20 274.42 147.05 275.23 148.08 275.20 L 149.13 275.17 C 150.15 275.14 150.96 274.28 150.93 273.26 C 150.90 272.23 150.05 271.42 149.02 271.45 Z M 148.04 271.49 L 147.00 271.48 C 145.98 271.47 145.14 272.29 145.13 273.32 C 145.12 274.34 145.95 275.18 146.97 275.18 L 148.01 275.19 C 149.03 275.20 149.87 274.38 149.88 273.36 C 149.89 272.33 149.07 271.50 148.04 271.49 Z M 147.07 271.49 L 146.04 271.44 C 145.02 271.39 144.16 272.18 144.11 273.20 C 144.06 274.21 144.85 275.08 145.87 275.13 L 146.90 275.18 C 147.92 275.22 148.78 274.44 148.83 273.42 C 148.88 272.40 148.09 271.53 147.07 271.49 Z M 146.11 271.45 L 145.10 271.36 C 144.08 271.27 143.19 272.02 143.10 273.03 C 143.02 274.05 143.76 274.94 144.78 275.03 L 145.80 275.11 C 146.81 275.20 147.70 274.45 147.79 273.44 C 147.87 272.43 147.13 271.54 146.11 271.45 Z M 145.17 271.38 L 144.17 271.25 C 143.16 271.12 142.25 271.83 142.12 272.83 C 141.99 273.83 142.70 274.75 143.70 274.88 L 144.70 275.01 C 145.71 275.14 146.62 274.43 146.75 273.43 C 146.88 272.42 146.17 271.51 145.17 271.38 Z M 144.25 271.27 L 143.26 271.10 C 142.27 270.93 141.33 271.59 141.16 272.58 C 140.98 273.58 141.65 274.52 142.64 274.69 L 143.62 274.86 C 144.62 275.03 145.56 274.37 145.73 273.38 C 145.90 272.38 145.24 271.44 144.25 271.27 Z M 143.34 271.12 L 142.39 270.91 C 141.41 270.69 140.44 271.31 140.22 272.29 C 140.01 273.27 140.63 274.24 141.61 274.46 L 142.56 274.67 C 143.54 274.89 144.51 274.27 144.73 273.29 C 144.94 272.31 144.32 271.34 143.34 271.12 Z M 142.47 270.94 L 141.54 270.69 C 140.58 270.42 139.58 270.99 139.32 271.96 C 139.06 272.92 139.63 273.92 140.60 274.18 L 141.52 274.43 C 142.49 274.69 143.48 274.12 143.74 273.16 C 144.01 272.19 143.44 271.20 142.47 270.94 Z M 141.63 270.72 L 140.74 270.43 C 139.79 270.12 138.77 270.63 138.46 271.58 C 138.15 272.52 138.67 273.54 139.61 273.85 L 140.51 274.15 C 141.45 274.46 142.47 273.94 142.78 272.99 C 143.09 272.05 142.58 271.03 141.63 270.72 Z M 140.83 270.47 L 139.96 270.13 C 139.04 269.77 138.00 270.22 137.64 271.15 C 137.28 272.07 137.73 273.11 138.65 273.47 L 139.52 273.81 C 140.44 274.17 141.49 273.72 141.85 272.79 C 142.21 271.87 141.75 270.83 140.83 270.47 Z M 140.05 270.18 L 139.21 269.79 C 138.31 269.38 137.25 269.77 136.84 270.66 C 136.43 271.56 136.82 272.62 137.72 273.03 L 138.56 273.42 C 139.46 273.83 140.52 273.44 140.93 272.55 C 141.34 271.65 140.95 270.59 140.05 270.18 Z M 139.30 269.85 L 138.48 269.41 C 137.62 268.95 136.55 269.28 136.09 270.14 C 135.63 271.00 135.95 272.07 136.81 272.53 L 137.63 272.97 C 138.49 273.43 139.56 273.11 140.02 272.25 C 140.48 271.38 140.16 270.31 139.30 269.85 Z M 138.56 269.48 L 137.77 268.99 C 136.94 268.49 135.86 268.75 135.36 269.58 C 134.85 270.40 135.11 271.48 135.94 271.99 L 136.73 272.47 C 137.56 272.98 138.64 272.72 139.14 271.89 C 139.65 271.06 139.39 269.98 138.56 269.48 Z M 137.84 269.06 L 137.06 268.52 C 136.27 267.98 135.19 268.18 134.64 268.98 C 134.10 269.77 134.30 270.85 135.09 271.40 L 135.87 271.93 C 136.66 272.47 137.75 272.27 138.29 271.48 C 138.83 270.68 138.63 269.60 137.84 269.06 Z M 137.12 268.58 L 136.35 268.00 C 135.59 267.43 134.51 267.58 133.93 268.34 C 133.36 269.10 133.51 270.18 134.27 270.76 L 135.04 271.34 C 135.80 271.91 136.88 271.76 137.46 271.00 C 138.03 270.24 137.88 269.16 137.12 268.58 Z M 136.40 268.06 L 135.63 267.43 C 134.90 266.83 133.82 266.93 133.22 267.66 C 132.62 268.39 132.73 269.47 133.46 270.07 L 134.22 270.70 C 134.95 271.30 136.03 271.20 136.63 270.47 C 137.23 269.74 137.13 268.66 136.40 268.06 Z M 135.67 267.47 L 134.89 266.79 C 134.19 266.17 133.11 266.24 132.49 266.94 C 131.87 267.65 131.94 268.72 132.65 269.34 L 133.42 270.02 C 134.12 270.64 135.20 270.57 135.82 269.87 C 136.44 269.17 136.37 268.09 135.67 267.47 Z M 134.92 266.83 L 134.13 266.10 C 133.44 265.47 132.38 265.50 131.75 266.18 C 131.11 266.87 131.15 267.93 131.83 268.56 L 132.62 269.30 C 133.30 269.93 134.37 269.89 135.00 269.21 C 135.64 268.53 135.60 267.47 134.92 266.83 Z M 134.14 266.13 L 133.33 265.35 C 132.67 264.70 131.61 264.72 130.97 265.38 C 130.33 266.04 130.34 267.10 131.00 267.74 L 131.82 268.53 C 132.48 269.17 133.54 269.16 134.18 268.49 C 134.82 267.83 134.80 266.78 134.14 266.13 Z M 133.34 265.37 L 132.61 264.65 C 131.97 264.00 130.92 264.00 130.27 264.65 C 129.62 265.30 129.62 266.35 130.27 267.00 L 131.00 267.72 C 131.64 268.36 132.69 268.36 133.34 267.71 C 133.99 267.07 133.99 266.02 133.34 265.37 Z M 132.62 264.67 L 132.00 264.04 C 131.36 263.39 130.32 263.38 129.67 264.02 C 129.02 264.66 129.01 265.70 129.65 266.35 L 130.27 266.98 C 130.91 267.63 131.95 267.64 132.60 267.00 C 133.25 266.36 133.26 265.32 132.62 264.67 Z M 132.00 264.05 L 131.37 263.40 C 130.74 262.74 129.70 262.73 129.05 263.36 C 128.39 263.99 128.38 265.03 129.01 265.68 L 129.65 266.34 C 130.28 266.99 131.32 267.00 131.97 266.37 C 132.62 265.74 132.64 264.70 132.00 264.05 Z M 131.37 263.41 L 130.72 262.73 C 130.10 262.08 129.06 262.06 128.41 262.68 C 127.76 263.31 127.73 264.34 128.36 265.00 L 129.01 265.67 C 129.63 266.32 130.67 266.35 131.32 265.72 C 131.97 265.10 132.00 264.06 131.37 263.41 Z M 130.72 262.74 L 130.06 262.04 C 129.44 261.39 128.41 261.36 127.76 261.98 C 127.10 262.60 127.08 263.63 127.70 264.29 L 128.36 264.98 C 128.98 265.64 130.01 265.67 130.66 265.05 C 131.32 264.43 131.34 263.39 130.72 262.74 Z M 130.06 262.05 L 129.39 261.34 C 128.77 260.68 127.75 260.65 127.09 261.27 C 126.44 261.88 126.41 262.91 127.02 263.56 L 127.70 264.28 C 128.31 264.93 129.34 264.96 129.99 264.35 C 130.64 263.73 130.68 262.71 130.06 262.05 Z M 129.39 261.34 L 128.70 260.61 C 128.09 259.96 127.07 259.92 126.42 260.53 C 125.76 261.14 125.73 262.16 126.34 262.82 L 127.02 263.55 C 127.63 264.20 128.66 264.24 129.31 263.63 C 129.96 263.02 130.00 262.00 129.39 261.34 Z M 128.70 260.62 L 128.01 259.87 C 127.40 259.22 126.38 259.18 125.73 259.78 C 125.08 260.39 125.04 261.41 125.65 262.06 L 126.34 262.81 C 126.94 263.46 127.96 263.50 128.62 262.90 C 129.27 262.29 129.31 261.27 128.70 260.62 Z M 128.01 259.88 L 127.31 259.12 C 126.71 258.47 125.69 258.42 125.04 259.02 C 124.39 259.63 124.35 260.64 124.95 261.29 L 125.65 262.05 C 126.25 262.71 127.26 262.75 127.91 262.15 C 128.57 261.55 128.61 260.53 128.01 259.88 Z M 127.30 259.12 L 126.60 258.35 C 126.00 257.70 124.99 257.66 124.34 258.26 C 123.69 258.85 123.64 259.86 124.24 260.51 L 124.95 261.29 C 125.54 261.94 126.56 261.98 127.21 261.38 C 127.86 260.79 127.90 259.77 127.30 259.12 Z M 126.59 258.36 L 125.88 257.58 C 125.29 256.93 124.28 256.88 123.63 257.48 C 122.98 258.07 122.94 259.08 123.53 259.73 L 124.24 260.51 C 124.84 261.16 125.84 261.20 126.49 260.61 C 127.14 260.01 127.19 259.01 126.59 258.36 Z M 125.88 257.58 L 125.16 256.80 C 124.57 256.15 123.56 256.10 122.92 256.69 C 122.27 257.28 122.22 258.29 122.81 258.93 L 123.53 259.72 C 124.12 260.37 125.13 260.41 125.77 259.82 C 126.42 259.23 126.47 258.23 125.88 257.58 Z M 125.15 256.80 L 124.43 256.01 C 123.85 255.37 122.85 255.32 122.20 255.91 C 121.56 256.49 121.51 257.49 122.10 258.14 L 122.82 258.93 C 123.41 259.57 124.40 259.62 125.05 259.03 C 125.69 258.45 125.74 257.45 125.15 256.80 Z M 124.43 256.02 L 123.71 255.22 C 123.12 254.58 122.13 254.53 121.48 255.12 C 120.84 255.70 120.79 256.69 121.38 257.34 L 122.10 258.13 C 122.69 258.77 123.68 258.82 124.32 258.24 C 124.97 257.65 125.01 256.66 124.43 256.02 Z M 123.70 255.22 L 123.53 255.03 C 122.95 254.39 121.96 254.34 121.31 254.93 C 120.67 255.51 120.63 256.50 121.21 257.14 L 121.38 257.33 C 121.96 257.98 122.96 258.02 123.60 257.44 C 124.24 256.86 124.29 255.87 123.70 255.22 Z"
      fill="black"
      fill-rule="nonzero" /></svg>