<svg xmlns="http://www.w3.org/2000/svg" width="300" height="300" viewBox="0 0 300 300">
<path d="M 175.67 139.23 L 175.41 138.26 C 175.17 137.32 174.20 136.76 173.26 137.00 C 172.32 137.25 171.76 138.21 172.01 139.15 L 172.26 140.12 C 172.51 141.06 173.47 141.62 174.41 141.37 C 175.35 141.13 175.91 140.17 175.67 139.23 Z M 175.43 138.24 L 175.16 137.27 C 174.91 136.33 173.93 135.77 172.98 136.02 C 172.04 136.28 171.48 137.26 171.73 138.20 L 171.99 139.17 C 172.25 140.12 173.23 140.68 174.17 140.42 C 175.12 140.16 175.68 139.19 175.43 138.24 Z M 175.17 137.24 L 174.90 136.28 C 174.62 135.33 173.63 134.78 172.67 135.05 C 171.72 135.33 171.17 136.32 171.45 137.28 L 171.72 138.24 C 172.00 139.19 172.99 139.74 173.95 139.46 C 174.90 139.19 175.45 138.19 175.17 137.24 Z M 174.90 136.23 L 174.60 135.28 C 174.30 134.33 173.28 133.80 172.33 134.10 C 171.37 134.40 170.84 135.41 171.14 136.37 L 171.44 137.32 C 171.74 138.28 172.76 138.81 173.72 138.51 C 174.67 138.21 175.20 137.19 174.90 136.23 Z M 174.60 135.22 L 174.27 134.28 C 173.94 133.33 172.89 132.82 171.94 133.16 C 170.98 133.49 170.48 134.54 170.81 135.49 L 171.14 136.43 C 171.48 137.39 172.52 137.89 173.48 137.56 C 174.43 137.22 174.94 136.18 174.60 135.22 Z M 174.26 134.21 L 173.90 133.28 C 173.52 132.33 172.45 131.86 171.50 132.24 C 170.55 132.61 170.08 133.69 170.46 134.64 L 170.82 135.57 C 171.20 136.52 172.27 136.98 173.22 136.61 C 174.17 136.23 174.64 135.16 174.26 134.21 Z M 173.88 133.19 L 173.47 132.28 C 173.04 131.34 171.94 130.92 171.00 131.35 C 170.06 131.77 169.64 132.88 170.06 133.82 L 170.47 134.73 C 170.90 135.67 172.01 136.09 172.95 135.66 C 173.89 135.24 174.31 134.13 173.88 133.19 Z M 173.44 132.18 L 172.98 131.29 C 172.50 130.37 171.36 130.01 170.43 130.49 C 169.51 130.97 169.15 132.11 169.63 133.03 L 170.09 133.92 C 170.57 134.84 171.71 135.20 172.64 134.72 C 173.56 134.24 173.92 133.10 173.44 132.18 Z M 172.93 131.19 L 172.43 130.35 C 171.89 129.45 170.73 129.16 169.83 129.70 C 168.93 130.24 168.64 131.40 169.18 132.30 L 169.68 133.14 C 170.22 134.04 171.38 134.33 172.28 133.79 C 173.18 133.25 173.47 132.08 172.93 131.19 Z M 172.37 130.24 L 171.81 129.44 C 171.22 128.57 170.03 128.35 169.16 128.95 C 168.30 129.55 168.08 130.73 168.68 131.60 L 169.24 132.41 C 169.83 133.27 171.02 133.49 171.88 132.89 C 172.75 132.30 172.97 131.11 172.37 130.24 Z M 171.74 129.33 L 171.13 128.56 C 170.47 127.73 169.27 127.59 168.44 128.25 C 167.62 128.91 167.48 130.11 168.14 130.94 L 168.75 131.71 C 169.41 132.53 170.61 132.67 171.44 132.01 C 172.26 131.36 172.40 130.16 171.74 129.33 Z M 171.04 128.45 L 170.37 127.72 C 169.65 126.94 168.44 126.89 167.66 127.61 C 166.88 128.33 166.83 129.54 167.55 130.32 L 168.22 131.05 C 168.94 131.83 170.15 131.87 170.93 131.16 C 171.71 130.44 171.76 129.23 171.04 128.45 Z M 170.27 127.61 L 169.54 126.93 C 168.76 126.21 167.54 126.25 166.82 127.03 C 166.09 127.81 166.14 129.03 166.92 129.75 L 167.65 130.43 C 168.43 131.15 169.65 131.11 170.37 130.33 C 171.09 129.55 171.05 128.33 170.27 127.61 Z M 169.42 126.82 L 168.63 126.20 C 167.79 125.54 166.57 125.69 165.92 126.53 C 165.26 127.36 165.40 128.58 166.24 129.24 L 167.04 129.86 C 167.88 130.52 169.09 130.37 169.75 129.53 C 170.41 128.69 170.26 127.48 169.42 126.82 Z M 168.49 126.09 L 167.64 125.54 C 166.74 124.95 165.54 125.20 164.96 126.10 C 164.37 127.00 164.63 128.20 165.52 128.78 L 166.38 129.34 C 167.27 129.92 168.47 129.67 169.06 128.78 C 169.64 127.88 169.39 126.68 168.49 126.09 Z M 167.49 125.44 L 166.57 124.96 C 165.62 124.45 164.45 124.82 163.94 125.76 C 163.44 126.71 163.80 127.89 164.75 128.39 L 165.67 128.88 C 166.62 129.38 167.80 129.02 168.30 128.07 C 168.80 127.12 168.44 125.94 167.49 125.44 Z M 166.42 124.88 L 165.52 124.50 C 164.53 124.08 163.39 124.55 162.97 125.54 C 162.55 126.54 163.02 127.68 164.01 128.10 L 164.91 128.47 C 165.90 128.89 167.04 128.42 167.46 127.43 C 167.88 126.43 167.41 125.29 166.42 124.88 Z M 165.37 124.44 L 164.43 124.14 C 163.41 123.80 162.30 124.37 161.97 125.40 C 161.64 126.43 162.20 127.53 163.23 127.86 L 164.17 128.16 C 165.20 128.49 166.30 127.93 166.63 126.90 C 166.96 125.87 166.40 124.77 165.37 124.44 Z M 164.27 124.09 L 163.30 123.86 C 162.25 123.62 161.20 124.28 160.95 125.33 C 160.71 126.39 161.37 127.44 162.42 127.69 L 163.39 127.91 C 164.45 128.15 165.50 127.49 165.74 126.44 C 165.99 125.38 165.33 124.33 164.27 124.09 Z M 163.14 123.83 L 162.14 123.69 C 161.07 123.54 160.08 124.29 159.93 125.37 C 159.78 126.44 160.53 127.44 161.60 127.58 L 162.59 127.72 C 163.67 127.87 164.66 127.12 164.81 126.04 C 164.96 124.97 164.21 123.98 163.14 123.83 Z M 161.96 123.67 L 160.96 123.62 C 159.87 123.57 158.95 124.41 158.90 125.50 C 158.85 126.59 159.69 127.51 160.78 127.56 L 161.78 127.61 C 162.87 127.66 163.79 126.82 163.84 125.73 C 163.89 124.64 163.05 123.72 161.96 123.67 Z M 160.77 123.62 L 159.77 123.67 C 158.68 123.73 157.84 124.66 157.89 125.75 C 157.95 126.84 158.88 127.68 159.97 127.62 L 160.98 127.57 C 162.07 127.51 162.90 126.58 162.85 125.49 C 162.79 124.40 161.86 123.56 160.77 123.62 Z M 159.56 123.68 L 158.57 123.84 C 157.48 124.01 156.75 125.03 156.92 126.11 C 157.09 127.19 158.10 127.93 159.19 127.76 L 160.18 127.60 C 161.26 127.43 162.00 126.42 161.83 125.33 C 161.66 124.25 160.64 123.51 159.56 123.68 Z M 158.35 123.88 L 157.37 124.15 C 156.32 124.44 155.69 125.54 155.99 126.60 C 156.28 127.66 157.37 128.28 158.43 127.99 L 159.40 127.72 C 160.46 127.43 161.09 126.33 160.79 125.27 C 160.50 124.21 159.41 123.59 158.35 123.88 Z M 157.15 124.22 L 156.21 124.61 C 155.19 125.02 154.71 126.19 155.12 127.21 C 155.54 128.23 156.70 128.71 157.72 128.30 L 158.66 127.91 C 159.68 127.50 160.17 126.33 159.75 125.31 C 159.33 124.29 158.17 123.81 157.15 124.22 Z M 156.02 124.69 L 155.36 125.05 C 154.39 125.57 154.03 126.79 154.55 127.76 C 155.08 128.73 156.29 129.09 157.26 128.57 L 157.92 128.21 C 158.89 127.68 159.25 126.47 158.73 125.50 C 158.20 124.53 156.99 124.17 156.02 124.69 Z M 155.21 125.14 L 154.57 125.56 C 153.65 126.17 153.39 127.41 154.00 128.33 C 154.61 129.25 155.85 129.51 156.77 128.90 L 157.41 128.48 C 158.33 127.87 158.59 126.63 157.98 125.71 C 157.37 124.78 156.13 124.53 155.21 125.14 Z M 154.44 125.65 L 153.81 126.14 C 152.94 126.82 152.78 128.08 153.46 128.95 C 154.14 129.82 155.40 129.98 156.27 129.30 L 156.90 128.81 C 157.77 128.13 157.93 126.87 157.25 126.00 C 156.57 125.12 155.31 124.97 154.44 125.65 Z M 153.70 126.23 L 153.08 126.79 C 152.26 127.53 152.20 128.80 152.94 129.62 C 153.68 130.44 154.95 130.51 155.77 129.76 L 156.39 129.21 C 157.21 128.46 157.27 127.19 156.53 126.37 C 155.79 125.55 154.52 125.49 153.70 126.23 Z M 152.99 126.88 L 152.37 127.51 C 151.60 128.30 151.62 129.57 152.41 130.34 C 153.21 131.12 154.48 131.10 155.25 130.30 L 155.86 129.68 C 156.64 128.88 156.62 127.61 155.82 126.84 C 155.03 126.07 153.76 126.08 152.99 126.88 Z M 152.30 127.59 L 151.69 128.29 C 150.96 129.12 151.05 130.39 151.89 131.12 C 152.72 131.85 153.99 131.76 154.72 130.92 L 155.33 130.22 C 156.06 129.39 155.97 128.12 155.13 127.39 C 154.30 126.66 153.03 126.75 152.30 127.59 Z M 151.63 128.36 L 151.02 129.13 C 150.33 130.00 150.48 131.27 151.35 131.95 C 152.22 132.64 153.48 132.49 154.17 131.62 L 154.78 130.85 C 155.47 129.98 155.32 128.72 154.45 128.03 C 153.58 127.34 152.32 127.49 151.63 128.36 Z M 150.97 129.19 L 150.35 130.04 C 149.70 130.94 149.90 132.19 150.79 132.85 C 151.69 133.50 152.95 133.31 153.61 132.41 L 154.22 131.56 C 154.88 130.66 154.68 129.40 153.78 128.75 C 152.88 128.09 151.62 128.29 150.97 129.19 Z M 150.31 130.09 L 149.69 131.01 C 149.06 131.93 149.30 133.18 150.22 133.81 C 151.14 134.43 152.40 134.20 153.02 133.27 L 153.65 132.35 C 154.27 131.43 154.03 130.18 153.11 129.55 C 152.19 128.93 150.94 129.17 150.31 130.09 Z M 149.66 131.05 L 149.02 132.05 C 148.42 132.99 148.69 134.24 149.63 134.84 C 150.57 135.44 151.81 135.17 152.41 134.23 L 153.05 133.23 C 153.65 132.29 153.38 131.04 152.44 130.44 C 151.50 129.84 150.26 130.12 149.66 131.05 Z M 148.99 132.09 L 148.34 133.16 C 147.76 134.11 148.06 135.36 149.01 135.94 C 149.96 136.52 151.20 136.22 151.78 135.26 L 152.44 134.19 C 153.02 133.24 152.72 132.00 151.77 131.41 C 150.82 130.83 149.57 131.13 148.99 132.09 Z M 148.32 133.19 L 147.64 134.34 C 147.08 135.31 147.40 136.54 148.36 137.11 C 149.32 137.67 150.56 137.35 151.13 136.39 L 151.80 135.24 C 152.37 134.27 152.05 133.03 151.08 132.47 C 150.12 131.90 148.88 132.23 148.32 133.19 Z M 147.63 134.36 L 147.10 135.28 C 146.55 136.25 146.89 137.48 147.86 138.04 C 148.83 138.59 150.07 138.25 150.62 137.28 L 151.14 136.37 C 151.70 135.40 151.36 134.16 150.39 133.61 C 149.42 133.05 148.18 133.39 147.63 134.36 Z M 147.10 135.29 L 146.65 136.09 C 146.10 137.07 146.45 138.30 147.42 138.85 C 148.40 139.39 149.63 139.04 150.18 138.07 L 150.63 137.27 C 151.17 136.29 150.83 135.06 149.85 134.51 C 148.88 133.97 147.64 134.32 147.10 135.29 Z M 146.64 136.10 L 146.19 136.93 C 145.65 137.91 146.00 139.14 146.98 139.68 C 147.96 140.22 149.19 139.86 149.73 138.88 L 150.19 138.06 C 150.73 137.08 150.37 135.85 149.39 135.31 C 148.41 134.77 147.18 135.12 146.64 136.10 Z M 146.18 136.94 L 145.72 137.79 C 145.18 138.77 145.55 140.00 146.53 140.54 C 147.51 141.07 148.74 140.71 149.27 139.73 L 149.74 138.87 C 150.27 137.89 149.91 136.66 148.93 136.13 C 147.94 135.59 146.71 135.96 146.18 136.94 Z M 145.71 137.80 L 145.24 138.67 C 144.71 139.66 145.08 140.88 146.07 141.41 C 147.05 141.94 148.28 141.57 148.81 140.59 L 149.28 139.72 C 149.81 138.73 149.44 137.50 148.45 136.97 C 147.47 136.44 146.24 136.81 145.71 137.80 Z M 145.24 138.68 L 144.77 139.57 C 144.24 140.56 144.62 141.78 145.60 142.31 C 146.59 142.83 147.82 142.46 148.34 141.47 L 148.81 140.58 C 149.34 139.59 148.96 138.37 147.98 137.84 C 146.99 137.32 145.76 137.69 145.24 138.68 Z M 144.76 139.58 L 144.29 140.48 C 143.77 141.47 144.15 142.70 145.14 143.22 C 146.13 143.74 147.35 143.36 147.87 142.37 L 148.35 141.46 C 148.87 140.47 148.49 139.25 147.50 138.73 C 146.51 138.21 145.28 138.59 144.76 139.58 Z M 144.28 140.49 L 143.81 141.41 C 143.29 142.40 143.68 143.62 144.67 144.14 C 145.66 144.65 146.88 144.27 147.40 143.28 L 147.88 142.36 C 148.39 141.37 148.01 140.14 147.01 139.63 C 146.02 139.11 144.80 139.50 144.28 140.49 Z M 143.80 141.41 L 143.32 142.34 C 142.81 143.34 143.20 144.56 144.20 145.07 C 145.19 145.58 146.41 145.19 146.93 144.20 L 147.40 143.27 C 147.91 142.27 147.52 141.05 146.53 140.54 C 145.53 140.03 144.31 140.42 143.80 141.41 Z M 143.32 142.35 L 142.84 143.28 C 142.34 144.28 142.73 145.50 143.73 146.01 C 144.73 146.52 145.94 146.12 146.45 145.12 L 146.93 144.19 C 147.44 143.19 147.04 141.97 146.04 141.46 C 145.05 140.96 143.83 141.35 143.32 142.35 Z M 142.84 143.29 L 142.37 144.23 C 141.86 145.23 142.26 146.44 143.26 146.95 C 144.26 147.45 145.48 147.05 145.98 146.05 L 146.46 145.12 C 146.96 144.12 146.56 142.90 145.56 142.39 C 144.56 141.89 143.34 142.29 142.84 143.29 Z M 142.36 144.23 L 141.89 145.17 C 141.39 146.17 141.80 147.39 142.80 147.89 C 143.80 148.39 145.01 147.99 145.52 146.99 L 145.99 146.05 C 146.49 145.05 146.08 143.83 145.08 143.33 C 144.08 142.83 142.86 143.23 142.36 144.23 Z M 141.89 145.18 L 141.42 146.12 C 140.93 147.12 141.34 148.33 142.34 148.83 C 143.34 149.33 144.56 148.92 145.05 147.92 L 145.52 146.98 C 146.02 145.98 145.61 144.76 144.61 144.26 C 143.60 143.77 142.39 144.18 141.89 145.18 Z M 141.42 146.12 L 140.96 147.05 C 140.47 148.06 140.88 149.27 141.89 149.77 C 142.89 150.26 144.10 149.85 144.60 148.84 L 145.06 147.91 C 145.55 146.91 145.14 145.69 144.13 145.20 C 143.13 144.70 141.92 145.12 141.42 146.12 Z M 140.96 147.06 L 140.51 147.98 C 140.02 148.99 140.43 150.20 141.44 150.69 C 142.45 151.19 143.66 150.77 144.15 149.76 L 144.60 148.84 C 145.09 147.83 144.67 146.62 143.67 146.13 C 142.66 145.64 141.45 146.05 140.96 147.06 Z M 140.50 147.99 L 140.06 148.91 C 139.57 149.91 140.00 151.12 141.00 151.61 C 142.01 152.10 143.22 151.68 143.71 150.67 L 144.15 149.76 C 144.64 148.75 144.22 147.54 143.21 147.05 C 142.20 146.56 140.99 146.98 140.50 147.99 Z M 140.06 148.91 L 139.63 149.81 C 139.14 150.82 139.57 152.03 140.58 152.52 C 141.59 153.00 142.80 152.58 143.28 151.57 L 143.71 150.66 C 144.20 149.66 143.77 148.44 142.76 147.96 C 141.75 147.48 140.54 147.90 140.06 148.91 Z M 139.62 149.82 L 139.20 150.70 C 138.72 151.71 139.15 152.92 140.16 153.40 C 141.17 153.89 142.38 153.46 142.86 152.44 L 143.28 151.56 C 143.77 150.55 143.34 149.34 142.32 148.86 C 141.31 148.38 140.10 148.81 139.62 149.82 Z M 139.20 150.71 L 138.79 151.58 C 138.31 152.59 138.75 153.80 139.76 154.27 C 140.77 154.75 141.98 154.32 142.46 153.30 L 142.87 152.44 C 143.34 151.43 142.91 150.22 141.90 149.74 C 140.88 149.26 139.68 149.70 139.20 150.71 Z M 138.79 151.58 L 138.39 152.43 C 137.92 153.44 138.36 154.65 139.37 155.12 C 140.39 155.59 141.59 155.16 142.07 154.14 L 142.46 153.30 C 142.94 152.28 142.50 151.08 141.48 150.60 C 140.47 150.13 139.26 150.57 138.79 151.58 Z M 138.39 152.43 L 137.88 153.54 C 137.41 154.55 137.86 155.76 138.87 156.23 C 139.89 156.70 141.09 156.25 141.56 155.23 L 142.07 154.13 C 142.54 153.12 142.10 151.91 141.08 151.44 C 140.06 150.97 138.86 151.42 138.39 152.43 Z M 137.88 153.55 L 137.39 154.61 C 136.93 155.63 137.38 156.83 138.40 157.29 C 139.42 157.75 140.62 157.30 141.09 156.29 L 141.57 155.22 C 142.03 154.21 141.58 153.00 140.56 152.54 C 139.54 152.08 138.34 152.53 137.88 153.55 Z M 137.39 154.62 L 136.93 155.64 C 136.47 156.66 136.93 157.86 137.95 158.32 C 138.98 158.78 140.17 158.32 140.63 157.30 L 141.09 156.27 C 141.55 155.25 141.09 154.05 140.07 153.60 C 139.05 153.14 137.85 153.60 137.39 154.62 Z M 136.93 155.65 L 136.49 156.64 C 136.04 157.66 136.50 158.86 137.53 159.31 C 138.55 159.76 139.75 159.30 140.20 158.27 L 140.64 157.29 C 141.09 156.26 140.62 155.06 139.60 154.61 C 138.57 154.16 137.38 154.63 136.93 155.65 Z M 136.49 156.65 L 136.07 157.61 C 135.63 158.64 136.10 159.83 137.13 160.28 C 138.15 160.72 139.35 160.25 139.79 159.22 L 140.21 158.26 C 140.65 157.24 140.18 156.04 139.15 155.60 C 138.12 155.15 136.93 155.62 136.49 156.65 Z M 136.07 157.62 L 135.67 158.55 C 135.23 159.58 135.71 160.77 136.74 161.21 C 137.77 161.65 138.96 161.17 139.40 160.14 L 139.80 159.21 C 140.24 158.18 139.75 156.99 138.72 156.55 C 137.69 156.11 136.50 156.59 136.07 157.62 Z M 135.67 158.57 L 135.29 159.47 C 134.86 160.51 135.34 161.69 136.38 162.12 C 137.41 162.55 138.60 162.07 139.03 161.03 L 139.41 160.13 C 139.84 159.09 139.35 157.91 138.32 157.48 C 137.28 157.04 136.10 157.53 135.67 158.57 Z M 135.28 159.49 L 134.92 160.37 C 134.49 161.41 134.99 162.59 136.03 163.02 C 137.06 163.44 138.25 162.94 138.67 161.91 L 139.03 161.02 C 139.46 159.98 138.96 158.80 137.93 158.38 C 136.89 157.95 135.71 158.45 135.28 159.49 Z M 134.91 160.39 L 134.56 161.26 C 134.15 162.30 134.65 163.48 135.69 163.89 C 136.73 164.31 137.91 163.81 138.33 162.77 L 138.68 161.90 C 139.09 160.86 138.59 159.68 137.55 159.26 C 136.51 158.84 135.33 159.35 134.91 160.39 Z M 134.56 161.27 L 134.22 162.13 C 133.81 163.17 134.32 164.35 135.37 164.76 C 136.41 165.17 137.58 164.65 137.99 163.61 L 138.33 162.75 C 138.74 161.71 138.23 160.54 137.19 160.13 C 136.15 159.72 134.97 160.23 134.56 161.27 Z M 134.22 162.14 L 133.89 162.99 C 133.49 164.04 134.01 165.21 135.05 165.61 C 136.09 166.02 137.27 165.50 137.67 164.45 L 138.00 163.60 C 138.40 162.56 137.88 161.38 136.84 160.98 C 135.79 160.58 134.62 161.10 134.22 162.14 Z M 133.88 163.00 L 133.56 163.85 C 133.17 164.90 133.69 166.07 134.74 166.46 C 135.79 166.86 136.96 166.33 137.35 165.28 L 137.67 164.44 C 138.07 163.39 137.54 162.22 136.50 161.83 C 135.45 161.43 134.28 161.96 133.88 163.00 Z M 133.56 163.86 L 133.25 164.70 C 132.86 165.75 133.39 166.92 134.44 167.31 C 135.49 167.70 136.65 167.17 137.04 166.12 L 137.36 165.27 C 137.75 164.22 137.21 163.06 136.17 162.67 C 135.12 162.28 133.95 162.81 133.56 163.86 Z M 133.24 164.71 L 132.93 165.56 C 132.55 166.61 133.09 167.77 134.14 168.16 C 135.19 168.54 136.35 168.00 136.74 166.95 L 137.05 166.11 C 137.43 165.06 136.89 163.89 135.84 163.51 C 134.79 163.12 133.63 163.66 133.24 164.71 Z M 132.93 165.57 L 132.60 166.48 C 132.22 167.53 132.77 168.69 133.82 169.07 C 134.87 169.45 136.04 168.90 136.41 167.85 L 136.74 166.94 C 137.12 165.89 136.57 164.73 135.52 164.35 C 134.47 163.97 133.31 164.52 132.93 165.57 Z M 132.60 166.49 L 132.25 167.48 C 131.87 168.53 132.43 169.69 133.48 170.06 C 134.54 170.44 135.69 169.88 136.07 168.83 L 136.42 167.84 C 136.79 166.79 136.24 165.63 135.19 165.25 C 134.13 164.88 132.97 165.43 132.60 166.49 Z M 132.25 167.49 L 131.90 168.48 C 131.53 169.54 132.09 170.69 133.14 171.06 C 134.20 171.43 135.35 170.87 135.72 169.81 L 136.07 168.82 C 136.44 167.76 135.88 166.61 134.83 166.24 C 133.77 165.87 132.61 166.43 132.25 167.49 Z M 131.90 168.49 L 131.55 169.49 C 131.19 170.54 131.75 171.69 132.81 172.06 C 133.87 172.42 135.02 171.86 135.38 170.80 L 135.73 169.81 C 136.09 168.75 135.53 167.60 134.47 167.23 C 133.41 166.87 132.26 167.43 131.90 168.49 Z M 131.55 169.49 L 131.21 170.49 C 130.86 171.55 131.42 172.70 132.48 173.06 C 133.54 173.41 134.69 172.85 135.05 171.79 L 135.39 170.79 C 135.74 169.73 135.18 168.58 134.12 168.23 C 133.06 167.87 131.91 168.44 131.55 169.49 Z M 131.21 170.50 L 130.88 171.49 C 130.53 172.55 131.10 173.69 132.16 174.05 C 133.22 174.40 134.37 173.83 134.72 172.76 L 135.05 171.78 C 135.41 170.72 134.83 169.57 133.77 169.22 C 132.71 168.86 131.56 169.44 131.21 170.50 Z M 130.88 171.50 L 130.56 172.47 C 130.21 173.54 130.79 174.68 131.85 175.03 C 132.92 175.38 134.06 174.80 134.41 173.73 L 134.73 172.76 C 135.08 171.69 134.50 170.55 133.43 170.20 C 132.37 169.85 131.23 170.43 130.88 171.50 Z M 130.56 172.48 L 130.25 173.45 C 129.90 174.51 130.49 175.65 131.55 176.00 C 132.61 176.34 133.76 175.76 134.10 174.69 L 134.41 173.72 C 134.75 172.66 134.17 171.52 133.10 171.18 C 132.04 170.84 130.90 171.42 130.56 172.48 Z M 130.24 173.46 L 129.94 174.41 C 129.60 175.48 130.19 176.61 131.26 176.95 C 132.33 177.29 133.46 176.70 133.80 175.63 L 134.10 174.68 C 134.44 173.62 133.85 172.48 132.78 172.14 C 131.72 171.80 130.58 172.39 130.24 173.46 Z M 129.94 174.42 L 129.65 175.35 C 129.32 176.42 129.91 177.55 130.98 177.88 C 132.05 178.21 133.18 177.62 133.51 176.55 L 133.80 175.62 C 134.13 174.55 133.54 173.42 132.47 173.09 C 131.40 172.76 130.27 173.35 129.94 174.42 Z M 129.65 175.36 L 129.37 176.27 C 129.05 177.34 129.65 178.47 130.72 178.79 C 131.79 179.12 132.92 178.51 133.24 177.45 L 133.52 176.54 C 133.84 175.47 133.24 174.34 132.17 174.01 C 131.10 173.69 129.97 174.29 129.65 175.36 Z M 129.37 176.28 L 129.11 177.16 C 128.79 178.23 129.40 179.35 130.47 179.67 C 131.54 179.99 132.66 179.38 132.98 178.31 L 133.24 177.43 C 133.56 176.36 132.95 175.24 131.88 174.92 C 130.81 174.60 129.69 175.21 129.37 176.28 Z M 129.10 177.17 L 128.86 178.02 C 128.54 179.09 129.16 180.21 130.23 180.52 C 131.30 180.84 132.43 180.22 132.74 179.15 L 132.99 178.30 C 133.30 177.23 132.68 176.11 131.61 175.79 C 130.54 175.48 129.41 176.10 129.10 177.17 Z M 128.85 178.03 L 128.57 179.03 C 128.27 180.11 128.89 181.23 129.97 181.53 C 131.04 181.83 132.16 181.21 132.46 180.13 L 132.74 179.13 C 133.05 178.06 132.42 176.94 131.35 176.64 C 130.27 176.33 129.15 176.96 128.85 178.03 Z M 128.56 179.05 L 128.29 180.05 C 128.00 181.13 128.64 182.24 129.71 182.53 C 130.79 182.83 131.90 182.19 132.19 181.11 L 132.47 180.11 C 132.76 179.03 132.12 177.92 131.04 177.63 C 129.97 177.34 128.86 177.98 128.56 179.05 Z M 128.29 180.08 L 128.04 181.04 C 127.76 182.12 128.41 183.23 129.49 183.51 C 130.57 183.78 131.67 183.13 131.95 182.05 L 132.20 181.09 C 132.48 180.01 131.83 178.91 130.75 178.63 C 129.67 178.35 128.57 179.00 128.29 180.08 Z M 128.03 181.07 L 127.80 182.01 C 127.54 183.09 128.20 184.19 129.29 184.45 C 130.37 184.72 131.47 184.05 131.73 182.97 L 131.96 182.03 C 132.22 180.94 131.56 179.85 130.47 179.58 C 129.39 179.32 128.30 179.99 128.03 181.07 Z M 127.80 182.04 L 127.58 182.97 C 127.34 184.05 128.02 185.14 129.10 185.39 C 130.19 185.63 131.28 184.95 131.52 183.87 L 131.74 182.94 C 131.98 181.85 131.30 180.77 130.22 180.52 C 129.13 180.27 128.05 180.95 127.80 182.04 Z M 127.58 183.00 L 127.38 183.92 C 127.15 185.02 127.85 186.09 128.94 186.32 C 130.03 186.55 131.10 185.86 131.33 184.77 L 131.53 183.84 C 131.76 182.75 131.07 181.67 129.97 181.44 C 128.88 181.21 127.81 181.91 127.58 183.00 Z M 127.38 183.95 L 127.19 184.90 C 126.97 185.99 127.68 187.05 128.78 187.27 C 129.87 187.48 130.93 186.77 131.15 185.68 L 131.34 184.74 C 131.55 183.64 130.84 182.58 129.75 182.36 C 128.65 182.15 127.59 182.86 127.38 183.95 Z M 127.18 184.92 L 127.01 185.89 C 126.80 186.99 127.53 188.04 128.63 188.24 C 129.72 188.44 130.78 187.72 130.98 186.62 L 131.16 185.65 C 131.36 184.56 130.63 183.50 129.54 183.30 C 128.44 183.10 127.39 183.83 127.18 184.92 Z M 127.00 185.91 L 126.83 186.92 C 126.64 188.02 127.38 189.06 128.48 189.25 C 129.58 189.44 130.62 188.70 130.81 187.60 L 130.98 186.60 C 131.17 185.50 130.43 184.45 129.33 184.27 C 128.23 184.08 127.19 184.82 127.00 185.91 Z M 126.83 186.94 L 126.66 187.99 C 126.48 189.09 127.23 190.12 128.33 190.30 C 129.43 190.48 130.47 189.73 130.64 188.63 L 130.81 187.58 C 130.99 186.48 130.24 185.45 129.14 185.27 C 128.04 185.09 127.00 185.84 126.83 186.94 Z M 126.66 188.01 L 126.52 188.88 C 126.36 189.98 127.11 191.01 128.21 191.17 C 129.31 191.34 130.34 190.59 130.51 189.49 L 130.64 188.61 C 130.81 187.51 130.06 186.48 128.95 186.32 C 127.85 186.15 126.82 186.90 126.66 188.01 Z M 126.52 188.89 L 126.39 189.80 C 126.23 190.90 126.99 191.92 128.09 192.08 C 129.20 192.24 130.22 191.48 130.38 190.38 L 130.51 189.47 C 130.67 188.37 129.91 187.35 128.81 187.19 C 127.71 187.02 126.68 187.79 126.52 188.89 Z M 126.39 189.81 L 126.26 190.75 C 126.10 191.85 126.87 192.87 127.98 193.02 C 129.08 193.17 130.10 192.40 130.25 191.30 L 130.38 190.36 C 130.54 189.26 129.77 188.24 128.66 188.09 C 127.56 187.94 126.54 188.71 126.39 189.81 Z M 126.26 190.76 L 126.13 191.72 C 125.98 192.83 126.76 193.84 127.86 193.99 C 128.97 194.13 129.98 193.36 130.13 192.25 L 130.25 191.29 C 130.40 190.18 129.62 189.17 128.52 189.02 C 127.42 188.88 126.40 189.65 126.26 190.76 Z M 126.13 191.74 L 126.00 192.72 C 125.86 193.83 126.65 194.84 127.75 194.97 C 128.86 195.11 129.86 194.33 130.00 193.23 L 130.13 192.24 C 130.27 191.13 129.48 190.13 128.38 189.99 C 127.27 189.85 126.27 190.63 126.13 191.74 Z M 126.00 192.74 L 125.88 193.74 C 125.75 194.85 126.54 195.85 127.65 195.98 C 128.75 196.11 129.75 195.32 129.88 194.22 L 130.00 193.21 C 130.14 192.11 129.35 191.10 128.24 190.97 C 127.14 190.84 126.13 191.63 126.00 192.74 Z M 125.88 193.76 L 125.77 194.78 C 125.64 195.88 126.44 196.88 127.54 197.01 C 128.65 197.13 129.65 196.33 129.77 195.23 L 129.89 194.21 C 130.01 193.10 129.21 192.10 128.11 191.98 C 127.00 191.85 126.00 192.65 125.88 193.76 Z M 125.76 194.79 L 125.66 195.83 C 125.54 196.93 126.34 197.92 127.45 198.04 C 128.56 198.16 129.55 197.35 129.66 196.25 L 129.77 195.21 C 129.89 194.11 129.09 193.12 127.98 193.00 C 126.87 192.88 125.88 193.69 125.76 194.79 Z M 125.66 195.84 L 125.55 196.88 C 125.45 197.99 126.26 198.98 127.36 199.08 C 128.47 199.19 129.46 198.38 129.56 197.27 L 129.67 196.23 C 129.77 195.13 128.96 194.14 127.86 194.03 C 126.75 193.92 125.76 194.73 125.66 195.84 Z M 125.55 196.90 L 125.46 197.95 C 125.36 199.05 126.18 200.03 127.28 200.13 C 128.39 200.23 129.37 199.41 129.47 198.31 L 129.56 197.26 C 129.66 196.15 128.85 195.17 127.74 195.07 C 126.63 194.97 125.65 195.79 125.55 196.90 Z M 125.46 197.96 L 125.37 199.01 C 125.28 200.12 126.11 201.09 127.22 201.18 C 128.32 201.27 129.30 200.45 129.39 199.34 L 129.47 198.29 C 129.56 197.18 128.74 196.21 127.63 196.12 C 126.52 196.03 125.55 196.85 125.46 197.96 Z M 125.37 199.03 L 125.29 200.07 C 125.21 201.18 126.05 202.14 127.16 202.23 C 128.27 202.31 129.23 201.47 129.31 200.36 L 129.39 199.32 C 129.47 198.21 128.63 197.24 127.53 197.16 C 126.42 197.08 125.45 197.92 125.37 199.03 Z M 125.29 200.09 L 125.23 201.14 C 125.16 202.25 126.00 203.21 127.11 203.28 C 128.22 203.35 129.18 202.50 129.25 201.40 L 129.31 200.34 C 129.38 199.23 128.54 198.28 127.43 198.21 C 126.32 198.14 125.36 198.98 125.29 200.09 Z M 125.23 201.16 L 125.17 202.21 C 125.11 203.32 125.96 204.27 127.07 204.33 C 128.18 204.39 129.13 203.54 129.19 202.43 L 129.25 201.37 C 129.31 200.27 128.45 199.32 127.34 199.26 C 126.23 199.20 125.29 200.05 125.23 201.16 Z M 125.17 202.24 L 125.13 203.28 C 125.08 204.39 125.94 205.33 127.05 205.37 C 128.16 205.42 129.10 204.56 129.15 203.45 L 129.19 202.41 C 129.24 201.30 128.38 200.36 127.27 200.31 C 126.16 200.26 125.22 201.13 125.17 202.24 Z M 125.13 203.30 L 125.09 204.33 C 125.06 205.44 125.93 206.37 127.04 206.41 C 128.15 206.44 129.08 205.57 129.11 204.46 L 129.15 203.43 C 129.18 202.32 128.31 201.39 127.20 201.36 C 126.09 201.32 125.16 202.19 125.13 203.30 Z M 125.09 204.35 L 125.07 205.38 C 125.05 206.49 125.93 207.41 127.04 207.43 C 128.15 207.45 129.07 206.57 129.09 205.46 L 129.11 204.44 C 129.14 203.33 128.26 202.41 127.15 202.39 C 126.04 202.36 125.12 203.24 125.09 204.35 Z M 125.07 205.40 L 125.06 206.41 C 125.05 207.52 125.94 208.43 127.05 208.44 C 128.16 208.45 129.07 207.56 129.08 206.45 L 129.09 205.44 C 129.10 204.33 128.21 203.42 127.10 203.41 C 125.99 203.40 125.08 204.29 125.07 205.40 Z M 125.06 206.43 L 125.06 207.43 C 125.06 208.54 125.96 209.44 127.07 209.44 C 128.18 209.44 129.08 208.54 129.08 207.43 L 129.08 206.43 C 129.08 205.32 128.18 204.43 127.07 204.43 C 125.96 204.43 125.06 205.32 125.06 206.43 Z M 125.06 207.46 L 125.08 208.45 C 125.09 209.55 126.00 210.44 127.11 210.43 C 128.21 210.42 129.10 209.51 129.09 208.40 L 129.08 207.41 C 129.06 206.30 128.16 205.41 127.05 205.43 C 125.94 205.44 125.05 206.35 125.06 207.46 Z M 125.08 208.47 L 125.10 209.45 C 125.13 210.56 126.04 211.43 127.15 211.41 C 128.26 211.38 129.14 210.46 129.11 209.35 L 129.09 208.38 C 129.06 207.27 128.14 206.39 127.04 206.42 C 125.93 206.44 125.05 207.36 125.08 208.47 Z M 125.10 209.47 L 125.14 210.44 C 125.17 211.54 126.10 212.41 127.21 212.37 C 128.32 212.33 129.18 211.40 129.14 210.30 L 129.11 209.33 C 129.07 208.22 128.14 207.36 127.03 207.40 C 125.93 207.44 125.06 208.37 125.10 209.47 Z M 125.14 210.46 L 125.18 211.42 C 125.24 212.52 126.17 213.37 127.28 213.32 C 128.38 213.27 129.24 212.33 129.18 211.23 L 129.14 210.27 C 129.09 209.17 128.15 208.31 127.04 208.37 C 125.94 208.42 125.09 209.36 125.14 210.46 Z M 125.19 211.44 L 125.24 212.38 C 125.31 213.48 126.26 214.33 127.36 214.26 C 128.46 214.19 129.31 213.24 129.24 212.14 L 129.18 211.20 C 129.12 210.10 128.17 209.26 127.06 209.32 C 125.96 209.39 125.12 210.34 125.19 211.44 Z M 125.25 212.41 L 125.32 213.40 C 125.40 214.50 126.36 215.33 127.46 215.25 C 128.56 215.17 129.39 214.21 129.31 213.11 L 129.24 212.11 C 129.15 211.01 128.20 210.18 127.09 210.27 C 125.99 210.35 125.16 211.31 125.25 212.41 Z M 125.32 213.43 L 125.42 214.48 C 125.52 215.58 126.49 216.39 127.59 216.29 C 128.69 216.19 129.50 215.22 129.40 214.12 L 129.30 213.07 C 129.21 211.97 128.23 211.16 127.13 211.26 C 126.03 211.36 125.22 212.33 125.32 213.43 Z M 125.42 214.53 L 125.54 215.56 C 125.66 216.65 126.65 217.44 127.75 217.32 C 128.84 217.20 129.63 216.21 129.51 215.11 L 129.39 214.08 C 129.27 212.98 128.28 212.19 127.18 212.32 C 126.09 212.44 125.30 213.43 125.42 214.53 Z M 125.55 215.61 L 125.69 216.62 C 125.84 217.71 126.85 218.48 127.94 218.32 C 129.03 218.17 129.80 217.16 129.64 216.07 L 129.50 215.06 C 129.35 213.97 128.34 213.20 127.25 213.36 C 126.16 213.51 125.39 214.52 125.55 215.61 Z M 125.70 216.68 L 125.87 217.68 C 126.06 218.76 127.09 219.49 128.18 219.30 C 129.26 219.12 129.99 218.09 129.80 217.00 L 129.63 216.01 C 129.45 214.92 128.41 214.19 127.33 214.38 C 126.24 214.57 125.51 215.60 125.70 216.68 Z M 125.89 217.75 L 126.09 218.72 C 126.32 219.80 127.38 220.49 128.45 220.26 C 129.53 220.03 130.22 218.98 129.99 217.90 L 129.79 216.93 C 129.56 215.85 128.50 215.16 127.43 215.39 C 126.35 215.61 125.66 216.67 125.89 217.75 Z M 126.11 218.80 L 126.35 219.75 C 126.63 220.82 127.71 221.46 128.78 221.19 C 129.84 220.92 130.49 219.83 130.22 218.77 L 129.97 217.82 C 129.70 216.75 128.61 216.11 127.55 216.38 C 126.48 216.65 125.84 217.74 126.11 218.80 Z M 126.38 219.85 L 126.67 220.77 C 126.99 221.83 128.10 222.42 129.15 222.09 C 130.21 221.77 130.80 220.66 130.47 219.61 L 130.19 218.68 C 129.87 217.62 128.75 217.03 127.70 217.36 C 126.65 217.68 126.06 218.79 126.38 219.85 Z M 126.70 220.87 L 127.03 221.78 C 127.41 222.81 128.55 223.34 129.59 222.97 C 130.62 222.59 131.15 221.45 130.77 220.41 L 130.44 219.51 C 130.06 218.47 128.92 217.94 127.89 218.32 C 126.85 218.70 126.32 219.84 126.70 220.87 Z M 127.08 221.89 L 127.46 222.77 C 127.89 223.78 129.07 224.24 130.07 223.81 C 131.08 223.37 131.55 222.20 131.11 221.19 L 130.73 220.31 C 130.29 219.30 129.12 218.84 128.11 219.27 C 127.10 219.71 126.64 220.88 127.08 221.89 Z M 127.51 222.88 L 127.95 223.74 C 128.45 224.72 129.64 225.11 130.62 224.62 C 131.60 224.12 131.99 222.92 131.49 221.94 L 131.06 221.08 C 130.56 220.10 129.36 219.71 128.38 220.21 C 127.41 220.71 127.01 221.90 127.51 222.88 Z M 128.01 223.86 L 128.51 224.70 C 129.07 225.64 130.29 225.95 131.23 225.39 C 132.18 224.83 132.49 223.62 131.93 222.67 L 131.43 221.83 C 130.87 220.89 129.65 220.58 128.71 221.13 C 127.77 221.69 127.45 222.91 128.01 223.86 Z M 128.58 224.80 L 129.13 225.62 C 129.75 226.52 130.99 226.76 131.89 226.14 C 132.80 225.52 133.03 224.29 132.42 223.38 L 131.86 222.57 C 131.24 221.66 130.01 221.43 129.10 222.04 C 128.20 222.66 127.96 223.90 128.58 224.80 Z M 129.21 225.71 L 129.81 226.50 C 130.48 227.37 131.73 227.52 132.60 226.85 C 133.46 226.18 133.62 224.94 132.95 224.07 L 132.34 223.29 C 131.67 222.42 130.43 222.26 129.56 222.93 C 128.70 223.60 128.54 224.85 129.21 225.71 Z M 129.89 226.59 L 130.54 227.34 C 131.26 228.17 132.51 228.25 133.34 227.54 C 134.17 226.82 134.25 225.57 133.53 224.74 L 132.88 223.98 C 132.16 223.16 130.91 223.07 130.08 223.79 C 129.26 224.51 129.17 225.76 129.89 226.59 Z M 130.62 227.42 L 131.32 228.14 C 132.08 228.92 133.34 228.94 134.12 228.18 C 134.90 227.42 134.92 226.16 134.16 225.38 L 133.46 224.66 C 132.70 223.87 131.44 223.86 130.66 224.62 C 129.87 225.38 129.86 226.64 130.62 227.42 Z M 131.40 228.21 L 132.14 228.90 C 132.94 229.64 134.19 229.59 134.93 228.78 C 135.68 227.98 135.63 226.73 134.82 225.99 L 134.08 225.31 C 133.28 224.56 132.03 224.61 131.28 225.42 C 130.54 226.22 130.59 227.47 131.40 228.21 Z M 132.22 228.97 L 133.00 229.61 C 133.84 230.31 135.08 230.19 135.78 229.35 C 136.48 228.51 136.36 227.26 135.52 226.56 L 134.74 225.92 C 133.90 225.22 132.65 225.34 131.96 226.18 C 131.26 227.02 131.38 228.27 132.22 228.97 Z M 133.08 229.67 L 133.89 230.27 C 134.76 230.93 136.00 230.74 136.65 229.87 C 137.30 228.99 137.12 227.75 136.25 227.10 L 135.44 226.50 C 134.56 225.85 133.32 226.03 132.67 226.91 C 132.02 227.78 132.20 229.02 133.08 229.67 Z M 133.97 230.33 L 134.81 230.89 C 135.72 231.49 136.95 231.25 137.55 230.34 C 138.15 229.43 137.91 228.21 137.00 227.60 L 136.16 227.04 C 135.25 226.44 134.03 226.69 133.42 227.60 C 132.82 228.50 133.07 229.73 133.97 230.33 Z M 134.90 230.94 L 135.76 231.45 C 136.70 232.01 137.91 231.70 138.47 230.76 C 139.02 229.82 138.71 228.61 137.77 228.06 L 136.91 227.55 C 135.97 226.99 134.76 227.30 134.21 228.24 C 133.65 229.18 133.96 230.39 134.90 230.94 Z M 135.86 231.50 L 136.75 231.97 C 137.72 232.47 138.91 232.10 139.41 231.13 C 139.91 230.17 139.54 228.98 138.57 228.47 L 137.68 228.01 C 136.71 227.50 135.52 227.88 135.02 228.84 C 134.52 229.81 134.89 231.00 135.86 231.50 Z M 136.85 232.01 L 137.78 232.44 C 138.77 232.89 139.93 232.45 140.38 231.46 C 140.83 230.47 140.39 229.30 139.41 228.85 L 138.48 228.43 C 137.49 227.98 136.32 228.42 135.87 229.41 C 135.42 230.40 135.86 231.56 136.85 232.01 Z M 137.87 232.47 L 138.81 232.84 C 139.82 233.24 140.96 232.75 141.36 231.74 C 141.76 230.73 141.26 229.59 140.26 229.19 L 139.31 228.82 C 138.30 228.42 137.16 228.91 136.76 229.92 C 136.37 230.93 136.86 232.07 137.87 232.47 Z M 138.90 232.87 L 139.86 233.20 C 140.88 233.55 141.99 233.00 142.35 231.98 C 142.70 230.95 142.15 229.84 141.12 229.49 L 140.17 229.16 C 139.14 228.81 138.03 229.36 137.68 230.38 C 137.33 231.41 137.87 232.52 138.90 232.87 Z M 139.94 233.22 L 140.90 233.51 C 141.94 233.81 143.03 233.22 143.33 232.18 C 143.64 231.14 143.04 230.06 142.01 229.75 L 141.04 229.47 C 140.01 229.16 138.92 229.75 138.61 230.79 C 138.31 231.83 138.90 232.92 139.94 233.22 Z M 140.98 233.52 L 141.95 233.77 C 142.99 234.03 144.06 233.40 144.32 232.35 C 144.59 231.30 143.95 230.24 142.90 229.98 L 141.93 229.73 C 140.89 229.47 139.82 230.10 139.56 231.15 C 139.30 232.20 139.93 233.26 140.98 233.52 Z M 142.02 233.78 L 142.99 233.99 C 144.05 234.22 145.08 233.55 145.31 232.49 C 145.54 231.44 144.86 230.40 143.81 230.18 L 142.84 229.97 C 141.78 229.74 140.75 230.41 140.52 231.46 C 140.29 232.52 140.96 233.55 142.02 233.78 Z M 143.05 234.00 L 144.03 234.18 C 145.09 234.37 146.10 233.67 146.29 232.61 C 146.49 231.55 145.78 230.54 144.73 230.34 L 143.75 230.17 C 142.69 229.97 141.68 230.68 141.49 231.73 C 141.29 232.79 142.00 233.81 143.05 234.00 Z M 144.08 234.18 L 145.06 234.33 C 146.12 234.49 147.11 233.76 147.27 232.70 C 147.44 231.64 146.71 230.65 145.65 230.49 L 144.67 230.34 C 143.61 230.18 142.62 230.91 142.46 231.97 C 142.29 233.03 143.02 234.02 144.08 234.18 Z M 145.11 234.33 L 146.08 234.46 C 147.14 234.59 148.11 233.84 148.25 232.78 C 148.38 231.71 147.63 230.74 146.57 230.61 L 145.60 230.48 C 144.54 230.35 143.56 231.10 143.43 232.16 C 143.29 233.23 144.04 234.20 145.11 234.33 Z M 146.12 234.46 L 147.10 234.56 C 148.16 234.67 149.11 233.90 149.23 232.84 C 149.34 231.78 148.57 230.82 147.50 230.71 L 146.53 230.61 C 145.46 230.49 144.51 231.27 144.40 232.33 C 144.28 233.39 145.06 234.35 146.12 234.46 Z M 147.14 234.56 L 148.15 234.64 C 149.21 234.73 150.14 233.95 150.23 232.88 C 150.32 231.82 149.53 230.89 148.47 230.80 L 147.46 230.71 C 146.40 230.62 145.47 231.41 145.38 232.47 C 145.29 233.54 146.08 234.47 147.14 234.56 Z M 148.19 234.64 L 149.19 234.70 C 150.25 234.76 151.17 233.95 151.23 232.89 C 151.29 231.83 150.48 230.92 149.42 230.86 L 148.42 230.80 C 147.36 230.74 146.45 231.55 146.39 232.61 C 146.32 233.67 147.13 234.58 148.19 234.64 Z M 149.25 234.70 L 150.24 234.73 C 151.30 234.76 152.19 233.92 152.22 232.86 C 152.25 231.80 151.41 230.92 150.35 230.89 L 149.36 230.86 C 148.30 230.83 147.42 231.66 147.39 232.72 C 147.36 233.78 148.19 234.67 149.25 234.70 Z M 150.31 234.72 L 151.30 234.72 C 152.35 234.71 153.20 233.85 153.20 232.79 C 153.19 231.74 152.33 230.89 151.28 230.89 L 150.29 230.90 C 149.23 230.90 148.38 231.76 148.39 232.82 C 148.39 233.87 149.25 234.73 150.31 234.72 Z M 151.37 234.71 L 152.35 234.66 C 153.41 234.62 154.22 233.73 154.18 232.68 C 154.13 231.63 153.24 230.81 152.19 230.86 L 151.20 230.90 C 150.15 230.94 149.34 231.83 149.38 232.89 C 149.43 233.94 150.32 234.75 151.37 234.71 Z M 152.43 234.65 L 153.42 234.57 C 154.46 234.48 155.24 233.56 155.15 232.52 C 155.06 231.47 154.14 230.70 153.09 230.78 L 152.11 230.87 C 151.07 230.96 150.29 231.88 150.38 232.92 C 150.47 233.97 151.39 234.74 152.43 234.65 Z M 153.50 234.55 L 154.49 234.43 C 155.52 234.29 156.25 233.34 156.12 232.30 C 155.98 231.27 155.03 230.54 154.00 230.67 L 153.01 230.80 C 151.97 230.94 151.24 231.89 151.38 232.92 C 151.51 233.96 152.46 234.69 153.50 234.55 Z M 154.57 234.41 L 155.56 234.23 C 156.59 234.04 157.27 233.06 157.09 232.04 C 156.90 231.01 155.92 230.33 154.90 230.51 L 153.91 230.69 C 152.88 230.88 152.20 231.86 152.38 232.88 C 152.57 233.91 153.55 234.59 154.57 234.41 Z M 155.65 234.20 L 156.64 233.97 C 157.66 233.74 158.29 232.73 158.05 231.72 C 157.82 230.71 156.81 230.08 155.80 230.31 L 154.81 230.54 C 153.79 230.77 153.16 231.78 153.40 232.80 C 153.63 233.81 154.64 234.44 155.65 234.20 Z M 156.73 233.94 L 157.69 233.67 C 158.68 233.39 159.26 232.35 158.97 231.36 C 158.69 230.36 157.66 229.79 156.66 230.07 L 155.71 230.34 C 154.71 230.62 154.14 231.66 154.42 232.65 C 154.70 233.65 155.74 234.23 156.73 233.94 Z M 157.76 233.64 L 158.70 233.33 C 159.67 233.00 160.20 231.95 159.87 230.97 C 159.55 230.00 158.49 229.47 157.52 229.79 L 156.58 230.10 C 155.61 230.43 155.08 231.48 155.41 232.46 C 155.73 233.44 156.79 233.96 157.76 233.64 Z M 158.76 233.29 L 159.70 232.94 C 160.65 232.58 161.14 231.51 160.77 230.55 C 160.41 229.59 159.34 229.11 158.39 229.47 L 157.45 229.83 C 156.50 230.19 156.01 231.26 156.38 232.22 C 156.74 233.17 157.81 233.65 158.76 233.29 Z M 159.75 232.90 L 160.68 232.51 C 161.62 232.12 162.06 231.04 161.67 230.10 C 161.27 229.16 160.20 228.72 159.26 229.12 L 158.33 229.51 C 157.39 229.90 156.95 230.98 157.34 231.92 C 157.74 232.86 158.82 233.30 159.75 232.90 Z M 160.74 232.48 L 161.66 232.06 C 162.58 231.63 162.98 230.55 162.56 229.63 C 162.14 228.71 161.05 228.31 160.13 228.73 L 159.21 229.15 C 158.29 229.57 157.89 230.66 158.31 231.58 C 158.73 232.50 159.82 232.90 160.74 232.48 Z M 161.70 232.02 L 162.62 231.57 C 163.52 231.12 163.88 230.03 163.44 229.13 C 162.99 228.23 161.90 227.86 161.00 228.31 L 160.09 228.76 C 159.19 229.21 158.82 230.30 159.26 231.20 C 159.71 232.10 160.80 232.47 161.70 232.02 Z M 162.66 231.54 L 163.55 231.06 C 164.44 230.59 164.77 229.50 164.30 228.61 C 163.84 227.73 162.74 227.40 161.86 227.86 L 160.96 228.34 C 160.08 228.81 159.74 229.90 160.21 230.79 C 160.68 231.67 161.77 232.01 162.66 231.54 Z M 163.59 231.03 L 164.47 230.53 C 165.33 230.05 165.64 228.95 165.15 228.08 C 164.67 227.22 163.57 226.91 162.70 227.40 L 161.82 227.90 C 160.96 228.38 160.65 229.48 161.14 230.35 C 161.63 231.21 162.72 231.52 163.59 231.03 Z M 164.50 230.50 L 165.36 229.99 C 166.21 229.49 166.49 228.39 165.98 227.54 C 165.48 226.69 164.38 226.41 163.53 226.92 L 162.67 227.43 C 161.82 227.93 161.55 229.03 162.05 229.88 C 162.56 230.73 163.65 231.01 164.50 230.50 Z M 165.39 229.96 L 166.22 229.44 C 167.05 228.92 167.31 227.82 166.79 226.99 C 166.27 226.16 165.17 225.91 164.34 226.43 L 163.50 226.95 C 162.67 227.47 162.42 228.57 162.94 229.40 C 163.46 230.23 164.56 230.48 165.39 229.96 Z M 166.25 229.41 L 167.08 228.86 C 167.90 228.33 168.12 227.23 167.59 226.42 C 167.05 225.60 165.96 225.38 165.14 225.91 L 164.31 226.46 C 163.50 226.99 163.27 228.09 163.80 228.90 C 164.34 229.72 165.43 229.94 166.25 229.41 Z M 167.11 228.83 L 167.95 228.25 C 168.75 227.70 168.95 226.61 168.40 225.81 C 167.85 225.01 166.76 224.81 165.96 225.36 L 165.12 225.94 C 164.32 226.49 164.11 227.58 164.66 228.38 C 165.21 229.18 166.31 229.38 167.11 228.83 Z M 167.98 228.22 L 168.79 227.63 C 169.57 227.07 169.75 225.98 169.18 225.20 C 168.62 224.42 167.53 224.24 166.75 224.80 L 165.93 225.39 C 165.15 225.96 164.98 227.05 165.54 227.83 C 166.10 228.61 167.19 228.79 167.98 228.22 Z M 168.82 227.60 L 169.61 227.00 C 170.37 226.43 170.52 225.34 169.94 224.58 C 169.37 223.81 168.28 223.66 167.51 224.24 L 166.72 224.84 C 165.96 225.41 165.81 226.50 166.39 227.26 C 166.96 228.03 168.05 228.18 168.82 227.60 Z M 169.63 226.97 L 170.40 226.36 C 171.14 225.77 171.27 224.69 170.68 223.94 C 170.09 223.20 169.01 223.07 168.26 223.66 L 167.49 224.27 C 166.74 224.86 166.62 225.94 167.21 226.69 C 167.80 227.44 168.88 227.56 169.63 226.97 Z M 170.42 226.33 L 171.17 225.71 C 171.90 225.11 172.01 224.03 171.40 223.30 C 170.80 222.57 169.72 222.47 169.00 223.07 L 168.24 223.69 C 167.51 224.29 167.41 225.37 168.01 226.10 C 168.61 226.83 169.69 226.93 170.42 226.33 Z M 171.19 225.68 L 171.94 225.04 C 172.65 224.43 172.73 223.36 172.12 222.64 C 171.51 221.93 170.44 221.85 169.72 222.46 L 168.98 223.10 C 168.26 223.71 168.18 224.78 168.79 225.50 C 169.40 226.21 170.48 226.29 171.19 225.68 Z M 171.95 225.01 L 172.69 224.36 C 173.39 223.74 173.45 222.67 172.83 221.97 C 172.21 221.27 171.15 221.21 170.45 221.83 L 169.71 222.49 C 169.01 223.11 168.95 224.18 169.57 224.87 C 170.19 225.57 171.25 225.63 171.95 225.01 Z M 172.70 224.33 L 173.44 223.65 C 174.13 223.03 174.18 221.97 173.55 221.28 C 172.92 220.60 171.86 220.55 171.18 221.18 L 170.44 221.86 C 169.75 222.48 169.71 223.54 170.33 224.23 C 170.96 224.91 172.02 224.96 172.70 224.33 Z M 173.45 223.63 L 174.20 222.93 C 174.87 222.30 174.90 221.24 174.27 220.57 C 173.64 219.90 172.59 219.87 171.91 220.50 L 171.17 221.20 C 170.50 221.83 170.46 222.89 171.10 223.56 C 171.73 224.23 172.78 224.26 173.45 223.63 Z M 174.21 222.91 L 174.82 222.32 C 175.48 221.69 175.50 220.64 174.87 219.98 C 174.23 219.32 173.18 219.29 172.52 219.93 L 171.91 220.52 C 171.25 221.15 171.22 222.20 171.86 222.86 C 172.49 223.52 173.54 223.55 174.21 222.91 Z M 174.82 222.31 L 175.43 221.72 C 176.08 221.08 176.09 220.04 175.46 219.38 C 174.82 218.73 173.77 218.71 173.12 219.35 L 172.51 219.94 C 171.86 220.58 171.85 221.63 172.49 222.28 C 173.12 222.94 174.17 222.95 174.82 222.31 Z M 175.43 221.71 L 176.05 221.10 C 176.70 220.46 176.70 219.41 176.06 218.76 C 175.42 218.12 174.37 218.11 173.73 218.76 L 173.11 219.37 C 172.46 220.01 172.46 221.05 173.10 221.70 C 173.74 222.35 174.79 222.35 175.43 221.71 Z M 176.06 221.08 L 176.68 220.45 C 177.32 219.80 177.32 218.76 176.67 218.12 C 176.03 217.48 174.99 217.49 174.35 218.13 L 173.72 218.77 C 173.08 219.41 173.09 220.46 173.73 221.09 C 174.38 221.73 175.42 221.73 176.06 221.08 Z M 176.69 220.44 L 177.33 219.78 C 177.97 219.13 177.95 218.09 177.31 217.46 C 176.66 216.82 175.62 216.84 174.99 217.49 L 174.34 218.15 C 173.71 218.80 173.72 219.83 174.37 220.47 C 175.02 221.10 176.06 221.09 176.69 220.44 Z M 177.34 219.76 L 178.00 219.07 C 178.63 218.42 178.61 217.39 177.96 216.76 C 177.30 216.14 176.27 216.16 175.64 216.81 L 174.98 217.50 C 174.36 218.15 174.38 219.19 175.03 219.81 C 175.68 220.44 176.71 220.41 177.34 219.76 Z M 178.01 219.06 L 178.69 218.34 C 179.31 217.69 179.28 216.65 178.63 216.04 C 177.97 215.42 176.94 215.45 176.32 216.10 L 175.64 216.82 C 175.02 217.48 175.05 218.51 175.70 219.13 C 176.36 219.74 177.39 219.72 178.01 219.06 Z M 178.69 218.33 L 179.40 217.57 C 180.01 216.92 179.98 215.89 179.32 215.28 C 178.66 214.66 177.64 214.70 177.02 215.35 L 176.32 216.11 C 175.71 216.77 175.74 217.80 176.40 218.41 C 177.05 219.02 178.08 218.98 178.69 218.33 Z M 179.40 217.56 L 180.13 216.77 C 180.74 216.11 180.70 215.08 180.04 214.48 C 179.38 213.87 178.36 213.91 177.75 214.57 L 177.02 215.37 C 176.41 216.02 176.46 217.05 177.11 217.66 C 177.77 218.26 178.80 218.22 179.40 217.56 Z M 180.14 216.76 L 180.89 215.92 C 181.49 215.26 181.45 214.24 180.79 213.64 C 180.13 213.04 179.10 213.09 178.50 213.75 L 177.75 214.58 C 177.15 215.24 177.20 216.26 177.86 216.86 C 178.52 217.47 179.54 217.42 180.14 216.76 Z M 180.90 215.91 L 181.68 215.04 C 182.28 214.38 182.22 213.36 181.56 212.76 C 180.90 212.17 179.88 212.22 179.29 212.88 L 178.50 213.76 C 177.91 214.42 177.96 215.44 178.62 216.03 C 179.28 216.63 180.30 216.57 180.90 215.91 Z M 181.69 215.03 L 182.50 214.11 C 183.09 213.45 183.03 212.43 182.37 211.84 C 181.71 211.25 180.70 211.31 180.11 211.97 L 179.29 212.89 C 178.70 213.56 178.76 214.57 179.42 215.16 C 180.08 215.75 181.10 215.69 181.69 215.03 Z M 182.51 214.10 L 183.14 213.38 C 183.73 212.71 183.67 211.70 183.00 211.12 C 182.34 210.53 181.33 210.59 180.74 211.26 L 180.10 211.98 C 179.52 212.64 179.58 213.66 180.25 214.24 C 180.91 214.83 181.92 214.76 182.51 214.10 Z M 183.15 213.37 L 183.77 212.66 C 184.35 211.99 184.29 210.98 183.62 210.40 C 182.96 209.82 181.95 209.88 181.37 210.55 L 180.74 211.26 C 180.16 211.93 180.23 212.94 180.89 213.52 C 181.55 214.10 182.56 214.04 183.15 213.37 Z M 183.77 212.65 L 184.41 211.92 C 184.99 211.25 184.92 210.24 184.26 209.66 C 183.59 209.08 182.58 209.15 182.00 209.82 L 181.36 210.55 C 180.78 211.22 180.85 212.23 181.52 212.81 C 182.19 213.39 183.20 213.32 183.77 212.65 Z M 184.41 211.91 L 185.06 211.16 C 185.64 210.49 185.57 209.49 184.90 208.91 C 184.23 208.33 183.23 208.41 182.65 209.07 L 182.00 209.83 C 181.42 210.49 181.50 211.50 182.16 212.08 C 182.83 212.65 183.84 212.58 184.41 211.91 Z M 185.07 211.16 L 185.72 210.39 C 186.30 209.72 186.22 208.72 185.55 208.14 C 184.89 207.57 183.88 207.65 183.31 208.31 L 182.65 209.08 C 182.08 209.75 182.15 210.75 182.82 211.33 C 183.49 211.90 184.49 211.82 185.07 211.16 Z M 185.73 210.38 L 186.39 209.61 C 186.96 208.94 186.88 207.93 186.21 207.36 C 185.54 206.79 184.54 206.87 183.97 207.54 L 183.30 208.32 C 182.73 208.99 182.81 209.99 183.48 210.56 C 184.15 211.13 185.16 211.05 185.73 210.38 Z M 186.39 209.60 L 187.06 208.81 C 187.63 208.14 187.54 207.14 186.87 206.57 C 186.21 206.00 185.20 206.09 184.63 206.76 L 183.97 207.55 C 183.40 208.21 183.48 209.22 184.15 209.79 C 184.82 210.35 185.82 210.27 186.39 209.60 Z M 187.06 208.81 L 187.73 208.01 C 188.30 207.34 188.21 206.34 187.54 205.78 C 186.87 205.21 185.87 205.30 185.30 205.97 L 184.63 206.76 C 184.07 207.43 184.15 208.43 184.83 209.00 C 185.50 209.56 186.50 209.48 187.06 208.81 Z M 187.73 208.01 L 188.40 207.21 C 188.96 206.54 188.87 205.54 188.20 204.98 C 187.53 204.41 186.53 204.50 185.97 205.17 L 185.30 205.97 C 184.74 206.65 184.83 207.65 185.50 208.21 C 186.17 208.77 187.17 208.68 187.73 208.01 Z M 188.40 207.20 L 189.07 206.40 C 189.62 205.73 189.53 204.73 188.86 204.17 C 188.19 203.61 187.19 203.71 186.63 204.38 L 185.97 205.18 C 185.41 205.85 185.50 206.85 186.17 207.41 C 186.85 207.97 187.84 207.88 188.40 207.20 Z M 189.07 206.40 L 189.73 205.60 C 190.28 204.92 190.18 203.93 189.51 203.37 C 188.84 202.82 187.84 202.91 187.28 203.59 L 186.63 204.39 C 186.07 205.06 186.17 206.06 186.84 206.61 C 187.52 207.17 188.51 207.07 189.07 206.40 Z M 189.73 205.59 L 190.38 204.79 C 190.93 204.12 190.83 203.12 190.15 202.57 C 189.48 202.02 188.48 202.12 187.93 202.80 L 187.28 203.59 C 186.73 204.27 186.83 205.26 187.51 205.82 C 188.18 206.37 189.18 206.27 189.73 205.59 Z M 190.38 204.79 L 191.02 204.00 C 191.57 203.32 191.46 202.33 190.79 201.78 C 190.11 201.23 189.12 201.34 188.57 202.01 L 187.93 202.80 C 187.38 203.48 187.49 204.47 188.16 205.02 C 188.84 205.57 189.83 205.47 190.38 204.79 Z M 191.02 203.99 L 191.65 203.21 C 192.19 202.53 192.08 201.54 191.40 201.00 C 190.73 200.45 189.73 200.56 189.19 201.24 L 188.56 202.02 C 188.02 202.70 188.13 203.69 188.81 204.24 C 189.49 204.78 190.48 204.67 191.02 203.99 Z M 191.65 203.20 L 192.26 202.43 C 192.80 201.75 192.69 200.76 192.01 200.22 C 191.33 199.68 190.34 199.80 189.80 200.48 L 189.19 201.25 C 188.65 201.93 188.76 202.92 189.44 203.46 C 190.12 204.00 191.11 203.88 191.65 203.20 Z M 192.27 202.43 L 192.86 201.67 C 193.39 200.99 193.27 200.00 192.59 199.47 C 191.91 198.93 190.92 199.05 190.38 199.73 L 189.79 200.49 C 189.26 201.17 189.38 202.16 190.06 202.69 C 190.74 203.23 191.73 203.11 192.27 202.43 Z M 192.86 201.66 L 193.46 200.89 C 193.99 200.20 193.87 199.22 193.18 198.69 C 192.50 198.16 191.51 198.28 190.98 198.97 L 190.38 199.74 C 189.85 200.43 189.98 201.41 190.66 201.94 C 191.35 202.47 192.33 202.35 192.86 201.66 Z M 193.47 200.88 L 194.18 199.94 C 194.70 199.25 194.57 198.27 193.88 197.74 C 193.19 197.22 192.21 197.35 191.68 198.04 L 190.97 198.98 C 190.45 199.67 190.58 200.65 191.27 201.17 C 191.96 201.70 192.94 201.57 193.47 200.88 Z M 194.19 199.93 L 194.87 199.02 C 195.38 198.33 195.24 197.35 194.55 196.83 C 193.85 196.31 192.87 196.45 192.35 197.15 L 191.68 198.05 C 191.16 198.75 191.30 199.73 191.99 200.25 C 192.69 200.76 193.67 200.62 194.19 199.93 Z M 194.87 199.01 L 195.52 198.13 C 196.03 197.43 195.88 196.45 195.18 195.94 C 194.48 195.43 193.50 195.58 192.99 196.28 L 192.35 197.16 C 191.83 197.86 191.99 198.84 192.68 199.35 C 193.38 199.86 194.36 199.71 194.87 199.01 Z M 195.53 198.12 L 196.14 197.27 C 196.65 196.56 196.49 195.58 195.79 195.08 C 195.09 194.57 194.11 194.73 193.60 195.43 L 192.98 196.29 C 192.48 196.99 192.64 197.97 193.34 198.48 C 194.04 198.98 195.02 198.82 195.53 198.12 Z M 196.15 197.25 L 196.74 196.42 C 197.24 195.72 197.07 194.74 196.37 194.24 C 195.66 193.74 194.69 193.90 194.19 194.61 L 193.59 195.44 C 193.09 196.15 193.26 197.13 193.97 197.63 C 194.67 198.13 195.65 197.96 196.15 197.25 Z M 196.75 196.41 L 197.31 195.60 C 197.81 194.89 197.63 193.91 196.93 193.42 C 196.22 192.92 195.24 193.10 194.75 193.81 L 194.18 194.62 C 193.68 195.33 193.86 196.31 194.57 196.80 C 195.28 197.29 196.25 197.12 196.75 196.41 Z M 197.32 195.59 L 197.87 194.79 C 198.36 194.08 198.18 193.10 197.46 192.61 C 196.75 192.13 195.78 192.31 195.29 193.02 L 194.74 193.82 C 194.25 194.53 194.43 195.50 195.14 195.99 C 195.86 196.48 196.83 196.30 197.32 195.59 Z M 197.87 194.78 L 198.40 194.00 C 198.89 193.28 198.70 192.31 197.99 191.83 C 197.27 191.34 196.30 191.53 195.81 192.24 L 195.28 193.03 C 194.80 193.74 194.99 194.71 195.70 195.20 C 196.42 195.68 197.39 195.50 197.87 194.78 Z M 198.41 193.99 L 198.92 193.22 C 199.41 192.50 199.21 191.53 198.50 191.05 C 197.78 190.57 196.81 190.76 196.33 191.48 L 195.81 192.25 C 195.33 192.97 195.52 193.94 196.24 194.42 C 196.96 194.90 197.93 194.71 198.41 193.99 Z M 198.93 193.21 L 199.43 192.45 C 199.91 191.73 199.72 190.76 199.00 190.28 C 198.28 189.81 197.31 190.00 196.83 190.72 L 196.32 191.48 C 195.85 192.20 196.04 193.17 196.76 193.65 C 197.48 194.13 198.45 193.93 198.93 193.21 Z M 199.44 192.45 L 199.93 191.69 C 200.41 190.97 200.21 190.00 199.49 189.53 C 198.77 189.05 197.80 189.25 197.33 189.97 L 196.83 190.73 C 196.35 191.45 196.55 192.42 197.27 192.89 C 197.99 193.37 198.96 193.17 199.44 192.45 Z M 199.94 191.69 L 200.43 190.94 C 200.90 190.22 200.70 189.25 199.98 188.77 C 199.26 188.30 198.29 188.50 197.82 189.22 L 197.33 189.97 C 196.85 190.69 197.05 191.66 197.77 192.14 C 198.49 192.61 199.46 192.41 199.94 191.69 Z M 200.43 190.93 L 200.74 190.47 C 201.21 189.75 201.01 188.78 200.29 188.31 C 199.56 187.83 198.60 188.04 198.12 188.76 L 197.82 189.22 C 197.35 189.94 197.55 190.91 198.27 191.38 C 198.99 191.86 199.96 191.66 200.43 190.93 Z"
      fill="black"
      fill-rule="nonzero" /><path d="M 154.63 176.46 L 153.27 176.09 C 152.22 175.81 151.13 176.44 150.85 177.49 C 150.57 178.55 151.19 179.63 152.25 179.92 L 153.61 180.28 C 154.66 180.56 155.75 179.93 156.03 178.88 C 156.31 177.82 155.69 176.74 154.63 176.46 Z M 153.29 176.07 L 151.98 175.72 C 150.91 175.43 149.81 176.06 149.52 177.12 C 149.23 178.19 149.86 179.29 150.93 179.58 L 152.24 179.93 C 153.30 180.22 154.40 179.60 154.69 178.53 C 154.98 177.46 154.35 176.36 153.29 176.07 Z M 152.00 175.70 L 150.79 175.36 C 149.71 175.06 148.60 175.68 148.29 176.76 C 147.99 177.83 148.61 178.95 149.69 179.25 L 150.90 179.59 C 151.98 179.90 153.09 179.27 153.40 178.20 C 153.70 177.12 153.07 176.01 152.00 175.70 Z M 150.83 175.35 L 149.76 175.03 C 148.68 174.70 147.54 175.31 147.21 176.39 C 146.89 177.47 147.50 178.61 148.58 178.94 L 149.65 179.26 C 150.73 179.59 151.87 178.97 152.19 177.89 C 152.52 176.81 151.91 175.67 150.83 175.35 Z M 149.83 175.03 L 148.95 174.73 C 147.87 174.37 146.70 174.95 146.34 176.03 C 145.98 177.11 146.56 178.28 147.64 178.65 L 148.51 178.94 C 149.59 179.30 150.76 178.72 151.13 177.64 C 151.49 176.56 150.91 175.39 149.83 175.03 Z M 149.09 174.76 L 148.45 174.50 C 147.39 174.06 146.17 174.57 145.73 175.64 C 145.30 176.70 145.81 177.92 146.87 178.36 L 147.50 178.62 C 148.57 179.06 149.79 178.55 150.22 177.48 C 150.66 176.42 150.15 175.20 149.09 174.76 Z M 148.79 174.65 L 148.45 174.44 C 147.47 173.81 146.17 174.10 145.54 175.08 C 144.92 176.06 145.21 177.36 146.19 177.99 L 146.53 178.21 C 147.51 178.83 148.81 178.54 149.44 177.56 C 150.06 176.58 149.78 175.28 148.79 174.65 Z M 149.41 176.48 L 149.44 176.28 C 149.59 175.12 148.77 174.07 147.61 173.92 C 146.46 173.77 145.40 174.59 145.25 175.75 L 145.23 175.95 C 145.08 177.10 145.90 178.16 147.05 178.31 C 148.21 178.45 149.27 177.63 149.41 176.48 Z M 147.93 178.02 L 148.42 177.88 C 149.53 177.56 150.17 176.40 149.85 175.29 C 149.53 174.18 148.37 173.54 147.26 173.86 L 146.76 174.00 C 145.65 174.33 145.01 175.49 145.34 176.60 C 145.66 177.71 146.82 178.35 147.93 178.02 Z M 148.05 177.93 L 148.93 177.84 C 150.07 177.72 150.89 176.70 150.77 175.57 C 150.66 174.43 149.64 173.60 148.50 173.72 L 147.63 173.81 C 146.49 173.93 145.66 174.95 145.78 176.08 C 145.90 177.22 146.92 178.05 148.05 177.93 Z M 148.81 177.82 L 149.97 177.77 C 151.10 177.72 151.97 176.76 151.92 175.63 C 151.87 174.50 150.91 173.63 149.78 173.68 L 148.62 173.74 C 147.49 173.79 146.62 174.75 146.67 175.87 C 146.73 177.00 147.68 177.87 148.81 177.82 Z M 149.92 177.75 L 151.27 177.71 C 152.38 177.69 153.27 176.76 153.24 175.64 C 153.21 174.53 152.29 173.65 151.17 173.67 L 149.83 173.71 C 148.71 173.73 147.83 174.66 147.85 175.77 C 147.88 176.89 148.81 177.77 149.92 177.75 Z M 151.25 177.69 L 152.68 177.66 C 153.78 177.64 154.66 176.73 154.64 175.63 C 154.62 174.53 153.71 173.65 152.61 173.67 L 151.18 173.70 C 150.08 173.72 149.20 174.63 149.22 175.73 C 149.24 176.83 150.15 177.71 151.25 177.69 Z M 152.69 177.64 L 153.59 177.62 C 154.68 177.59 155.54 176.69 155.51 175.60 C 155.49 174.51 154.59 173.65 153.50 173.68 L 152.60 173.70 C 151.51 173.72 150.65 174.62 150.67 175.71 C 150.70 176.80 151.60 177.66 152.69 177.64 Z M 153.61 177.58 L 154.49 177.56 C 155.56 177.52 156.40 176.63 156.37 175.56 C 156.34 174.49 155.44 173.65 154.37 173.68 L 153.49 173.71 C 152.42 173.74 151.58 174.64 151.61 175.71 C 151.64 176.78 152.54 177.62 153.61 177.58 Z M 154.52 177.52 L 155.42 177.48 C 156.47 177.44 157.28 176.55 157.24 175.50 C 157.19 174.45 156.30 173.63 155.25 173.68 L 154.35 173.72 C 153.30 173.76 152.49 174.65 152.53 175.70 C 152.58 176.75 153.46 177.57 154.52 177.52 Z M 155.44 177.45 L 156.36 177.40 C 157.40 177.34 158.18 176.45 158.12 175.42 C 158.06 174.39 157.18 173.60 156.15 173.66 L 155.23 173.71 C 154.19 173.77 153.40 174.66 153.46 175.69 C 153.52 176.72 154.41 177.51 155.44 177.45 Z M 156.39 177.36 L 157.35 177.29 C 158.36 177.21 159.12 176.33 159.04 175.32 C 158.97 174.30 158.08 173.54 157.07 173.62 L 156.12 173.69 C 155.10 173.77 154.34 174.65 154.42 175.67 C 154.50 176.68 155.38 177.44 156.39 177.36 Z M 157.38 177.26 L 158.37 177.16 C 159.37 177.07 160.10 176.19 160.00 175.19 C 159.91 174.20 159.03 173.47 158.03 173.56 L 157.04 173.66 C 156.04 173.75 155.31 174.63 155.41 175.63 C 155.50 176.62 156.38 177.35 157.38 177.26 Z M 158.40 177.13 L 159.45 177.01 C 160.42 176.89 161.12 176.01 161.01 175.04 C 160.90 174.06 160.02 173.37 159.05 173.48 L 158.00 173.60 C 157.03 173.71 156.33 174.59 156.44 175.56 C 156.55 176.54 157.43 177.24 158.40 177.13 Z M 159.48 176.97 L 160.59 176.82 C 161.54 176.69 162.21 175.81 162.08 174.86 C 161.95 173.90 161.07 173.24 160.12 173.36 L 159.01 173.51 C 158.06 173.64 157.39 174.52 157.52 175.47 C 157.65 176.43 158.53 177.10 159.48 176.97 Z M 160.62 176.78 L 161.79 176.60 C 162.73 176.46 163.37 175.58 163.22 174.65 C 163.08 173.71 162.20 173.07 161.27 173.22 L 160.09 173.40 C 159.16 173.55 158.52 174.42 158.66 175.35 C 158.81 176.29 159.68 176.93 160.62 176.78 Z M 161.82 176.57 L 162.77 176.41 C 163.69 176.25 164.31 175.38 164.15 174.46 C 163.99 173.54 163.12 172.92 162.20 173.08 L 161.24 173.25 C 160.33 173.41 159.71 174.28 159.87 175.20 C 160.03 176.11 160.90 176.73 161.82 176.57 Z M 162.79 176.39 L 163.64 176.24 C 164.55 176.07 165.15 175.19 164.98 174.28 C 164.81 173.37 163.94 172.77 163.03 172.94 L 162.18 173.10 C 161.27 173.26 160.67 174.14 160.84 175.05 C 161.01 175.96 161.88 176.56 162.79 176.39 Z M 163.65 176.23 L 164.53 176.06 C 165.44 175.88 166.03 175.00 165.85 174.10 C 165.67 173.20 164.80 172.60 163.89 172.78 L 163.02 172.95 C 162.11 173.13 161.52 174.00 161.70 174.91 C 161.87 175.81 162.75 176.40 163.65 176.23 Z M 164.54 176.05 L 165.45 175.86 C 166.35 175.68 166.93 174.80 166.75 173.90 C 166.57 173.01 165.69 172.42 164.79 172.61 L 163.88 172.79 C 162.98 172.97 162.40 173.85 162.59 174.75 C 162.77 175.65 163.64 176.23 164.54 176.05 Z M 165.46 175.85 L 166.39 175.66 C 167.29 175.47 167.86 174.59 167.67 173.70 C 167.48 172.81 166.61 172.23 165.71 172.42 L 164.78 172.62 C 163.89 172.80 163.31 173.68 163.50 174.57 C 163.69 175.47 164.56 176.04 165.46 175.85 Z M 166.40 175.65 L 167.36 175.44 C 168.24 175.25 168.81 174.37 168.62 173.49 C 168.43 172.60 167.55 172.03 166.66 172.22 L 165.71 172.43 C 164.82 172.62 164.25 173.50 164.44 174.39 C 164.64 175.27 165.51 175.84 166.40 175.65 Z M 167.36 175.43 L 168.34 175.22 C 169.22 175.02 169.78 174.15 169.59 173.26 C 169.39 172.38 168.52 171.82 167.63 172.02 L 166.66 172.23 C 165.77 172.43 165.21 173.30 165.41 174.19 C 165.60 175.07 166.48 175.63 167.36 175.43 Z M 168.35 175.21 L 169.34 174.98 C 170.22 174.78 170.77 173.91 170.58 173.03 C 170.38 172.15 169.50 171.60 168.63 171.80 L 167.63 172.03 C 166.75 172.22 166.20 173.10 166.40 173.97 C 166.59 174.85 167.47 175.41 168.35 175.21 Z M 169.35 174.97 L 170.36 174.74 C 171.23 174.54 171.78 173.67 171.58 172.80 C 171.38 171.92 170.51 171.38 169.64 171.58 L 168.62 171.81 C 167.75 172.01 167.20 172.88 167.40 173.75 C 167.60 174.63 168.47 175.17 169.35 174.97 Z M 170.36 174.73 L 171.39 174.49 C 172.26 174.29 172.80 173.42 172.60 172.56 C 172.40 171.69 171.53 171.14 170.66 171.35 L 169.63 171.59 C 168.76 171.79 168.22 172.66 168.42 173.52 C 168.63 174.39 169.49 174.94 170.36 174.73 Z M 171.39 174.49 L 172.43 174.24 C 173.30 174.04 173.83 173.17 173.63 172.31 C 173.43 171.44 172.56 170.91 171.70 171.11 L 170.66 171.35 C 169.79 171.56 169.26 172.42 169.46 173.29 C 169.66 174.15 170.53 174.69 171.39 174.49 Z M 172.43 174.23 L 173.48 173.99 C 174.34 173.78 174.88 172.92 174.67 172.06 C 174.47 171.20 173.61 170.67 172.75 170.87 L 171.70 171.12 C 170.84 171.32 170.30 172.18 170.51 173.05 C 170.71 173.91 171.57 174.44 172.43 174.23 Z M 173.48 173.98 L 174.54 173.73 C 175.39 173.52 175.92 172.67 175.72 171.81 C 175.52 170.95 174.66 170.42 173.80 170.63 L 172.74 170.88 C 171.89 171.08 171.36 171.94 171.56 172.80 C 171.77 173.65 172.63 174.18 173.48 173.98 Z M 174.54 173.72 L 175.60 173.47 C 176.45 173.26 176.97 172.41 176.77 171.56 C 176.57 170.70 175.71 170.18 174.86 170.38 L 173.80 170.63 C 172.95 170.84 172.42 171.69 172.63 172.55 C 172.83 173.40 173.68 173.92 174.54 173.72 Z M 175.60 173.46 L 176.32 173.29 C 177.16 173.09 177.69 172.23 177.48 171.39 C 177.28 170.54 176.43 170.01 175.58 170.22 L 174.86 170.39 C 174.01 170.59 173.49 171.44 173.69 172.29 C 173.89 173.14 174.75 173.66 175.60 173.46 Z"
      fill="black"
      fill-rule="nonzero" /></svg>