<svg xmlns="http://www.w3.org/2000/svg" width="300" height="300" viewBox="0 0 300 300">
<path d="M 93.93 143.18 L 92.52 143.18 C 91.54 143.18 90.74 143.98 90.74 144.96 C 90.74 145.95 91.54 146.74 92.52 146.74 L 93.93 146.74 C 94.91 146.74 95.71 145.95 95.71 144.96 C 95.71 143.98 94.91 143.18 93.93 143.18 Z M 92.53 143.18 L 91.16 143.17 C 90.18 143.17 89.37 143.97 89.37 144.96 C 89.37 145.95 90.17 146.75 91.16 146.75 L 92.52 146.75 C 93.51 146.75 94.31 145.95 94.31 144.97 C 94.31 143.98 93.51 143.18 92.53 143.18 Z M 91.17 143.16 L 89.89 143.16 C 88.90 143.15 88.09 143.95 88.08 144.94 C 88.08 145.94 88.88 146.75 89.87 146.75 L 91.15 146.76 C 92.14 146.76 92.95 145.96 92.96 144.97 C 92.96 143.98 92.16 143.17 91.17 143.16 Z M 89.90 143.15 L 88.74 143.13 C 87.75 143.12 86.93 143.92 86.92 144.92 C 86.91 145.92 87.71 146.74 88.70 146.75 L 89.86 146.76 C 90.86 146.77 91.67 145.97 91.69 144.97 C 91.70 143.98 90.90 143.16 89.90 143.15 Z M 88.76 143.13 L 87.77 143.10 C 86.77 143.08 85.94 143.88 85.92 144.88 C 85.90 145.88 86.69 146.71 87.69 146.73 L 88.68 146.76 C 89.69 146.78 90.52 145.98 90.54 144.98 C 90.56 143.98 89.77 143.15 88.76 143.13 Z M 87.81 143.10 L 87.03 143.06 C 86.02 143.02 85.17 143.80 85.13 144.81 C 85.09 145.82 85.87 146.67 86.88 146.71 L 87.66 146.74 C 88.67 146.78 89.52 146.00 89.56 144.99 C 89.60 143.99 88.82 143.14 87.81 143.10 Z M 87.11 143.06 L 86.57 143.01 C 85.57 142.93 84.68 143.68 84.59 144.69 C 84.51 145.69 85.25 146.58 86.26 146.67 L 86.80 146.71 C 87.81 146.80 88.69 146.05 88.78 145.04 C 88.87 144.03 88.12 143.14 87.11 143.06 Z M 86.89 143.06 L 86.64 142.99 C 85.66 142.73 84.65 143.32 84.39 144.30 C 84.13 145.28 84.71 146.29 85.70 146.56 L 85.95 146.62 C 86.93 146.88 87.94 146.30 88.20 145.31 C 88.46 144.33 87.88 143.32 86.89 143.06 Z M 87.14 146.34 L 87.31 146.24 C 88.18 145.70 88.45 144.56 87.91 143.70 C 87.37 142.83 86.24 142.56 85.37 143.10 L 85.20 143.21 C 84.33 143.74 84.06 144.88 84.60 145.75 C 85.14 146.61 86.28 146.88 87.14 146.34 Z M 86.74 146.47 L 87.35 146.34 C 88.35 146.12 88.98 145.13 88.76 144.14 C 88.54 143.14 87.56 142.51 86.56 142.73 L 85.95 142.87 C 84.95 143.08 84.32 144.07 84.54 145.06 C 84.76 146.06 85.74 146.69 86.74 146.47 Z M 87.26 146.35 L 88.24 146.19 C 89.25 146.02 89.92 145.07 89.76 144.06 C 89.59 143.06 88.64 142.38 87.63 142.55 L 86.65 142.71 C 85.65 142.88 84.97 143.83 85.14 144.84 C 85.31 145.84 86.26 146.52 87.26 146.35 Z M 88.22 146.19 L 89.47 146.00 C 90.47 145.85 91.16 144.90 91.01 143.90 C 90.85 142.89 89.91 142.20 88.91 142.35 L 87.66 142.55 C 86.65 142.70 85.96 143.64 86.11 144.65 C 86.27 145.66 87.21 146.35 88.22 146.19 Z M 89.47 146.00 L 90.90 145.78 C 91.91 145.62 92.60 144.68 92.45 143.67 C 92.29 142.67 91.35 141.98 90.34 142.13 L 88.91 142.35 C 87.90 142.51 87.21 143.45 87.36 144.46 C 87.52 145.46 88.46 146.16 89.47 146.00 Z M 90.92 145.78 L 92.22 145.57 C 93.23 145.40 93.91 144.46 93.75 143.45 C 93.59 142.45 92.64 141.76 91.63 141.92 L 90.33 142.14 C 89.32 142.30 88.64 143.24 88.80 144.25 C 88.97 145.25 89.91 145.94 90.92 145.78 Z M 92.24 145.56 L 93.20 145.40 C 94.20 145.23 94.88 144.27 94.71 143.27 C 94.54 142.27 93.59 141.59 92.58 141.76 L 91.62 141.93 C 90.62 142.10 89.94 143.05 90.11 144.05 C 90.28 145.06 91.23 145.73 92.24 145.56 Z M 93.21 145.39 L 94.19 145.22 C 95.19 145.04 95.86 144.09 95.68 143.09 C 95.51 142.09 94.55 141.42 93.55 141.60 L 92.57 141.77 C 91.57 141.94 90.90 142.90 91.08 143.90 C 91.26 144.90 92.21 145.57 93.21 145.39 Z M 94.20 145.22 L 95.18 145.04 C 96.18 144.86 96.85 143.91 96.67 142.91 C 96.49 141.91 95.53 141.24 94.53 141.42 L 93.55 141.60 C 92.55 141.78 91.88 142.73 92.06 143.73 C 92.24 144.73 93.20 145.40 94.20 145.22 Z M 95.19 145.04 L 96.18 144.86 C 97.18 144.68 97.84 143.72 97.66 142.72 C 97.48 141.73 96.52 141.07 95.53 141.25 L 94.53 141.43 C 93.53 141.61 92.87 142.56 93.05 143.56 C 93.23 144.56 94.19 145.22 95.19 145.04 Z M 96.18 144.85 L 97.18 144.67 C 98.17 144.49 98.83 143.54 98.65 142.54 C 98.47 141.55 97.52 140.89 96.52 141.07 L 95.53 141.25 C 94.53 141.43 93.87 142.38 94.05 143.38 C 94.23 144.37 95.19 145.03 96.18 144.85 Z M 97.18 144.67 L 98.17 144.49 C 99.17 144.31 99.83 143.36 99.65 142.37 C 99.47 141.37 98.52 140.71 97.52 140.89 L 96.53 141.07 C 95.53 141.25 94.87 142.20 95.05 143.19 C 95.23 144.19 96.18 144.85 97.18 144.67 Z M 98.17 144.49 L 99.16 144.31 C 100.16 144.14 100.82 143.19 100.64 142.19 C 100.47 141.20 99.52 140.54 98.52 140.72 L 97.53 140.89 C 96.54 141.07 95.87 142.02 96.05 143.01 C 96.23 144.00 97.17 144.66 98.17 144.49 Z M 99.15 144.31 L 100.14 144.14 C 101.13 143.97 101.80 143.03 101.63 142.03 C 101.46 141.04 100.51 140.37 99.52 140.55 L 98.53 140.72 C 97.54 140.89 96.87 141.83 97.05 142.82 C 97.22 143.82 98.16 144.48 99.15 144.31 Z M 100.13 144.14 L 101.11 143.98 C 102.10 143.81 102.77 142.87 102.60 141.88 C 102.44 140.89 101.50 140.22 100.51 140.38 L 99.53 140.55 C 98.54 140.71 97.87 141.65 98.03 142.64 C 98.20 143.63 99.14 144.30 100.13 144.14 Z M 101.09 143.98 L 102.10 143.82 C 103.10 143.66 103.77 142.73 103.62 141.74 C 103.46 140.75 102.53 140.07 101.54 140.22 L 100.52 140.38 C 99.53 140.54 98.85 141.47 99.01 142.46 C 99.17 143.46 100.10 144.13 101.09 143.98 Z M 102.08 143.82 L 103.10 143.67 C 104.09 143.53 104.78 142.60 104.63 141.61 C 104.49 140.62 103.56 139.93 102.57 140.07 L 101.56 140.22 C 100.57 140.37 99.88 141.29 100.02 142.28 C 100.17 143.28 101.09 143.96 102.08 143.82 Z M 103.07 143.67 L 104.07 143.54 C 105.07 143.41 105.77 142.50 105.64 141.50 C 105.50 140.51 104.59 139.81 103.60 139.94 L 102.60 140.07 C 101.60 140.20 100.90 141.12 101.03 142.11 C 101.17 143.11 102.08 143.80 103.07 143.67 Z M 104.04 143.54 L 105.04 143.43 C 106.03 143.31 106.75 142.41 106.63 141.42 C 106.51 140.42 105.61 139.71 104.62 139.82 L 103.63 139.94 C 102.63 140.05 101.92 140.95 102.03 141.95 C 102.15 142.94 103.05 143.66 104.04 143.54 Z M 105.00 143.43 L 105.99 143.34 C 106.99 143.24 107.72 142.35 107.62 141.36 C 107.52 140.36 106.64 139.63 105.64 139.73 L 104.65 139.82 C 103.66 139.92 102.93 140.80 103.02 141.80 C 103.12 142.80 104.01 143.53 105.00 143.43 Z M 105.95 143.34 L 106.93 143.26 C 107.93 143.19 108.68 142.32 108.60 141.32 C 108.53 140.32 107.66 139.57 106.66 139.65 L 105.68 139.72 C 104.68 139.80 103.93 140.67 104.01 141.67 C 104.08 142.66 104.95 143.41 105.95 143.34 Z M 106.89 143.26 L 107.87 143.21 C 108.87 143.16 109.64 142.31 109.59 141.31 C 109.54 140.31 108.68 139.54 107.69 139.60 L 106.70 139.65 C 105.70 139.70 104.94 140.55 104.99 141.55 C 105.04 142.55 105.89 143.32 106.89 143.26 Z M 107.83 143.21 L 108.81 143.19 C 109.81 143.16 110.60 142.33 110.57 141.33 C 110.55 140.33 109.72 139.54 108.72 139.57 L 107.73 139.60 C 106.73 139.62 105.95 140.46 105.97 141.45 C 106.00 142.45 106.83 143.24 107.83 143.21 Z M 108.77 143.19 L 109.76 143.19 C 110.75 143.19 111.56 142.38 111.56 141.38 C 111.56 140.38 110.75 139.57 109.76 139.57 L 108.77 139.57 C 107.77 139.57 106.96 140.38 106.96 141.38 C 106.96 142.38 107.77 143.19 108.77 143.19 Z M 109.70 143.18 L 110.75 143.22 C 111.75 143.25 112.58 142.46 112.61 141.46 C 112.64 140.47 111.86 139.63 110.86 139.60 L 109.81 139.57 C 108.81 139.54 107.98 140.33 107.95 141.32 C 107.92 142.32 108.70 143.16 109.70 143.18 Z M 110.69 143.21 L 111.75 143.28 C 112.75 143.35 113.61 142.59 113.67 141.59 C 113.74 140.60 112.98 139.74 111.98 139.67 L 110.92 139.60 C 109.93 139.54 109.07 140.30 109.00 141.29 C 108.94 142.29 109.69 143.15 110.69 143.21 Z M 111.68 143.28 L 112.72 143.39 C 113.72 143.49 114.61 142.77 114.71 141.78 C 114.82 140.79 114.10 139.89 113.10 139.79 L 112.06 139.68 C 111.06 139.57 110.17 140.29 110.07 141.29 C 109.96 142.28 110.68 143.17 111.68 143.28 Z M 112.64 143.38 L 113.66 143.54 C 114.65 143.69 115.58 143.02 115.73 142.03 C 115.88 141.04 115.21 140.11 114.22 139.96 L 113.19 139.80 C 112.20 139.64 111.28 140.32 111.12 141.31 C 110.97 142.30 111.65 143.23 112.64 143.38 Z M 113.56 143.52 L 114.55 143.73 C 115.53 143.95 116.49 143.32 116.70 142.34 C 116.91 141.36 116.29 140.40 115.31 140.19 L 114.32 139.97 C 113.34 139.76 112.38 140.39 112.16 141.37 C 111.95 142.35 112.58 143.31 113.56 143.52 Z M 114.42 143.71 L 115.37 143.98 C 116.33 144.26 117.34 143.70 117.61 142.74 C 117.89 141.77 117.34 140.77 116.37 140.49 L 115.43 140.22 C 114.47 139.94 113.46 140.49 113.18 141.46 C 112.90 142.42 113.46 143.43 114.42 143.71 Z M 115.22 143.93 L 116.11 144.27 C 117.05 144.63 118.10 144.16 118.45 143.22 C 118.81 142.28 118.34 141.23 117.40 140.87 L 116.52 140.53 C 115.58 140.18 114.53 140.65 114.17 141.59 C 113.81 142.52 114.29 143.57 115.22 143.93 Z M 115.94 144.20 L 116.76 144.60 C 117.65 145.05 118.75 144.69 119.20 143.79 C 119.65 142.89 119.28 141.80 118.38 141.35 L 117.57 140.94 C 116.67 140.49 115.58 140.86 115.13 141.76 C 114.68 142.66 115.04 143.75 115.94 144.20 Z M 116.56 144.50 L 117.32 144.99 C 118.16 145.55 119.29 145.32 119.84 144.48 C 120.40 143.64 120.16 142.51 119.33 141.95 L 118.57 141.46 C 117.73 140.90 116.60 141.13 116.05 141.97 C 115.49 142.81 115.73 143.94 116.56 144.50 Z M 117.12 144.84 L 117.80 145.45 C 118.56 146.11 119.71 146.04 120.38 145.28 C 121.04 144.53 120.97 143.37 120.21 142.71 L 119.53 142.10 C 118.77 141.44 117.62 141.51 116.95 142.27 C 116.28 143.03 116.36 144.18 117.12 144.84 Z M 117.62 145.27 L 118.22 145.96 C 118.88 146.73 120.04 146.81 120.80 146.15 C 121.56 145.49 121.65 144.33 120.99 143.57 L 120.39 142.88 C 119.73 142.12 118.57 142.03 117.81 142.69 C 117.05 143.35 116.96 144.51 117.62 145.27 Z M 118.08 145.78 L 118.59 146.56 C 119.15 147.40 120.29 147.63 121.14 147.07 C 121.98 146.51 122.21 145.37 121.65 144.53 L 121.13 143.75 C 120.57 142.91 119.43 142.68 118.59 143.24 C 117.75 143.80 117.52 144.94 118.08 145.78 Z M 118.49 146.38 L 118.93 147.24 C 119.40 148.14 120.50 148.50 121.40 148.03 C 122.31 147.57 122.66 146.46 122.20 145.56 L 121.75 144.70 C 121.29 143.80 120.18 143.44 119.28 143.91 C 118.38 144.38 118.02 145.48 118.49 146.38 Z M 118.85 147.09 L 119.23 148.03 C 119.61 148.97 120.68 149.43 121.63 149.05 C 122.57 148.67 123.03 147.60 122.65 146.65 L 122.27 145.71 C 121.89 144.77 120.82 144.31 119.88 144.69 C 118.93 145.07 118.48 146.14 118.85 147.09 Z M 119.18 147.89 L 119.50 148.91 C 119.81 149.88 120.84 150.42 121.81 150.12 C 122.79 149.81 123.33 148.78 123.02 147.80 L 122.70 146.79 C 122.39 145.81 121.36 145.27 120.39 145.58 C 119.41 145.89 118.87 146.92 119.18 147.89 Z M 119.47 148.80 L 119.74 149.90 C 119.98 150.89 120.99 151.49 121.98 151.25 C 122.97 151.00 123.57 150.00 123.33 149.01 L 123.06 147.91 C 122.81 146.92 121.81 146.32 120.82 146.56 C 119.82 146.81 119.22 147.81 119.47 148.80 Z M 119.72 149.82 L 119.92 150.84 C 120.12 151.84 121.10 152.49 122.10 152.29 C 123.10 152.09 123.75 151.12 123.55 150.11 L 123.35 149.09 C 123.15 148.09 122.17 147.44 121.17 147.64 C 120.17 147.84 119.52 148.81 119.72 149.82 Z M 119.91 150.78 L 120.06 151.70 C 120.23 152.71 121.18 153.39 122.19 153.22 C 123.20 153.06 123.89 152.10 123.72 151.09 L 123.57 150.17 C 123.40 149.16 122.44 148.48 121.43 148.65 C 120.42 148.81 119.74 149.77 119.91 150.78 Z M 120.05 151.65 L 120.18 152.60 C 120.33 153.62 121.27 154.33 122.28 154.18 C 123.30 154.04 124.01 153.10 123.86 152.09 L 123.73 151.13 C 123.59 150.12 122.65 149.41 121.63 149.55 C 120.61 149.70 119.91 150.64 120.05 151.65 Z M 120.18 152.57 L 120.29 153.54 C 120.41 154.56 121.34 155.29 122.36 155.17 C 123.38 155.05 124.11 154.12 123.99 153.10 L 123.87 152.13 C 123.75 151.11 122.82 150.38 121.80 150.50 C 120.78 150.62 120.05 151.55 120.18 152.57 Z M 120.29 153.51 L 120.39 154.51 C 120.49 155.53 121.40 156.28 122.43 156.18 C 123.45 156.08 124.20 155.16 124.09 154.14 L 123.99 153.14 C 123.89 152.11 122.98 151.37 121.95 151.47 C 120.93 151.57 120.18 152.49 120.29 153.51 Z M 120.38 154.48 L 120.47 155.50 C 120.56 156.53 121.46 157.29 122.48 157.20 C 123.51 157.11 124.27 156.21 124.18 155.19 L 124.10 154.17 C 124.01 153.14 123.11 152.38 122.08 152.47 C 121.06 152.56 120.30 153.46 120.38 154.48 Z M 120.47 155.48 L 120.54 156.50 C 120.61 157.53 121.50 158.31 122.53 158.23 C 123.56 158.16 124.33 157.27 124.26 156.24 L 124.19 155.21 C 124.11 154.18 123.22 153.41 122.19 153.48 C 121.17 153.55 120.39 154.45 120.47 155.48 Z M 120.53 156.48 L 120.60 157.51 C 120.66 158.54 121.54 159.33 122.57 159.27 C 123.60 159.21 124.39 158.32 124.33 157.29 L 124.26 156.26 C 124.20 155.23 123.32 154.44 122.29 154.51 C 121.26 154.57 120.47 155.45 120.53 156.48 Z M 120.59 157.50 L 120.64 158.53 C 120.70 159.56 121.57 160.36 122.60 160.30 C 123.64 160.25 124.43 159.38 124.38 158.34 L 124.33 157.31 C 124.28 156.28 123.40 155.48 122.37 155.54 C 121.34 155.59 120.54 156.46 120.59 157.50 Z M 120.64 158.51 L 120.68 159.54 C 120.73 160.57 121.60 161.38 122.63 161.33 C 123.66 161.29 124.47 160.42 124.43 159.38 L 124.38 158.36 C 124.34 157.33 123.47 156.52 122.44 156.57 C 121.40 156.61 120.60 157.48 120.64 158.51 Z M 120.68 159.53 L 120.72 160.54 C 120.75 161.57 121.62 162.38 122.65 162.35 C 123.69 162.31 124.50 161.45 124.46 160.41 L 124.43 159.40 C 124.39 158.36 123.52 157.55 122.49 157.59 C 121.46 157.62 120.65 158.49 120.68 159.53 Z M 120.71 160.53 L 120.74 161.57 C 120.77 162.60 121.64 163.42 122.67 163.39 C 123.71 163.36 124.52 162.50 124.49 161.46 L 124.46 160.42 C 124.44 159.39 123.57 158.57 122.54 158.60 C 121.50 158.63 120.68 159.49 120.71 160.53 Z M 120.74 161.55 L 120.76 162.58 C 120.79 163.61 121.64 164.44 122.68 164.41 C 123.72 164.39 124.54 163.53 124.52 162.50 L 124.50 161.47 C 124.47 160.44 123.62 159.61 122.58 159.64 C 121.54 159.66 120.72 160.52 120.74 161.55 Z M 120.76 162.56 L 120.77 163.57 C 120.79 164.61 121.64 165.44 122.68 165.42 C 123.71 165.41 124.55 164.56 124.53 163.52 L 124.52 162.51 C 124.51 161.48 123.65 160.64 122.62 160.66 C 121.58 160.67 120.75 161.52 120.76 162.56 Z M 120.77 163.55 L 120.78 164.55 C 120.78 165.59 121.62 166.43 122.66 166.42 C 123.70 166.42 124.54 165.58 124.54 164.54 L 124.53 163.54 C 124.53 162.50 123.69 161.66 122.65 161.67 C 121.61 161.67 120.77 162.51 120.77 163.55 Z M 120.77 164.53 L 120.77 165.52 C 120.76 166.56 121.59 167.41 122.63 167.41 C 123.67 167.42 124.52 166.59 124.53 165.55 L 124.54 164.56 C 124.55 163.52 123.71 162.67 122.67 162.66 C 121.63 162.65 120.78 163.49 120.77 164.53 Z M 120.76 165.49 L 120.74 166.48 C 120.72 167.52 121.54 168.38 122.58 168.40 C 123.62 168.42 124.48 167.60 124.51 166.56 L 124.53 165.58 C 124.55 164.54 123.73 163.68 122.69 163.65 C 121.65 163.63 120.79 164.45 120.76 165.49 Z M 120.74 166.45 L 120.71 167.43 C 120.67 168.47 121.48 169.35 122.52 169.38 C 123.56 169.42 124.43 168.61 124.47 167.57 L 124.51 166.59 C 124.54 165.55 123.73 164.68 122.69 164.64 C 121.65 164.60 120.78 165.41 120.74 166.45 Z M 120.71 167.40 L 120.66 168.39 C 120.60 169.43 121.40 170.31 122.44 170.37 C 123.48 170.42 124.36 169.62 124.42 168.58 L 124.47 167.60 C 124.52 166.56 123.73 165.67 122.69 165.62 C 121.65 165.57 120.76 166.36 120.71 167.40 Z M 120.66 168.36 L 120.59 169.34 C 120.52 170.38 121.30 171.28 122.34 171.35 C 123.38 171.43 124.28 170.64 124.35 169.60 L 124.42 168.62 C 124.49 167.58 123.71 166.68 122.67 166.60 C 121.63 166.53 120.73 167.32 120.66 168.36 Z M 120.59 169.31 L 120.50 170.30 C 120.41 171.34 121.18 172.26 122.22 172.35 C 123.26 172.44 124.17 171.67 124.26 170.63 L 124.35 169.64 C 124.44 168.60 123.67 167.68 122.63 167.59 C 121.59 167.50 120.68 168.27 120.59 169.31 Z M 120.50 170.27 L 120.40 171.23 C 120.30 172.27 121.05 173.19 122.09 173.30 C 123.12 173.41 124.05 172.66 124.16 171.62 L 124.26 170.66 C 124.37 169.63 123.62 168.70 122.58 168.59 C 121.54 168.48 120.61 169.23 120.50 170.27 Z M 120.41 171.20 L 120.29 172.16 C 120.17 173.20 120.90 174.14 121.94 174.26 C 122.97 174.39 123.92 173.65 124.04 172.61 L 124.16 171.65 C 124.28 170.62 123.54 169.68 122.51 169.55 C 121.47 169.43 120.53 170.16 120.41 171.20 Z M 120.29 172.13 L 120.16 173.10 C 120.02 174.14 120.75 175.09 121.78 175.23 C 122.81 175.37 123.77 174.64 123.91 173.61 L 124.04 172.64 C 124.18 171.61 123.45 170.66 122.42 170.52 C 121.39 170.38 120.43 171.10 120.29 172.13 Z M 120.17 173.08 L 120.02 174.06 C 119.87 175.09 120.58 176.05 121.61 176.20 C 122.64 176.36 123.61 175.64 123.76 174.61 L 123.90 173.63 C 124.06 172.60 123.34 171.64 122.31 171.49 C 121.28 171.33 120.32 172.05 120.17 173.08 Z M 120.02 174.04 L 119.87 175.02 C 119.70 176.05 120.40 177.02 121.43 177.18 C 122.46 177.35 123.43 176.65 123.60 175.61 L 123.76 174.63 C 123.92 173.60 123.22 172.63 122.19 172.47 C 121.16 172.30 120.19 173.00 120.02 174.04 Z M 119.87 175.00 L 119.70 175.99 C 119.53 177.02 120.22 177.99 121.25 178.17 C 122.28 178.34 123.25 177.65 123.43 176.62 L 123.60 175.63 C 123.77 174.60 123.08 173.63 122.05 173.45 C 121.02 173.28 120.04 173.97 119.87 175.00 Z M 119.70 175.97 L 119.53 176.97 C 119.34 178.00 120.03 178.98 121.05 179.16 C 122.08 179.35 123.06 178.66 123.25 177.63 L 123.43 176.64 C 123.61 175.61 122.92 174.63 121.90 174.44 C 120.87 174.26 119.89 174.95 119.70 175.97 Z M 119.53 176.96 L 119.34 177.96 C 119.15 178.98 119.83 179.97 120.86 180.16 C 121.88 180.35 122.87 179.67 123.06 178.65 L 123.25 177.65 C 123.44 176.62 122.76 175.63 121.73 175.44 C 120.70 175.25 119.72 175.93 119.53 176.96 Z M 119.34 177.95 L 119.15 178.95 C 118.95 179.98 119.63 180.97 120.65 181.16 C 121.68 181.36 122.67 180.69 122.87 179.66 L 123.06 178.66 C 123.26 177.63 122.58 176.64 121.56 176.44 C 120.53 176.25 119.54 176.92 119.34 177.95 Z M 119.15 178.94 L 118.95 179.95 C 118.75 180.98 119.42 181.97 120.45 182.17 C 121.47 182.37 122.47 181.70 122.67 180.68 L 122.87 179.67 C 123.07 178.64 122.40 177.65 121.37 177.45 C 120.35 177.25 119.35 177.92 119.15 178.94 Z M 118.95 179.94 L 118.75 180.95 C 118.55 181.98 119.22 182.97 120.24 183.18 C 121.27 183.38 122.26 182.72 122.47 181.69 L 122.67 180.68 C 122.87 179.66 122.21 178.66 121.18 178.46 C 120.16 178.25 119.16 178.92 118.95 179.94 Z M 118.75 180.95 L 118.55 181.94 C 118.35 182.97 119.01 183.97 120.04 184.17 C 121.06 184.38 122.06 183.72 122.27 182.69 L 122.47 181.70 C 122.67 180.67 122.01 179.67 120.98 179.47 C 119.96 179.26 118.96 179.92 118.75 180.95 Z M 118.55 181.94 L 118.35 182.94 C 118.14 183.96 118.80 184.96 119.83 185.17 C 120.85 185.38 121.85 184.72 122.06 183.69 L 122.26 182.69 C 122.47 181.67 121.81 180.67 120.79 180.46 C 119.76 180.25 118.76 180.92 118.55 181.94 Z M 118.35 182.94 L 118.15 183.93 C 117.94 184.96 118.60 185.96 119.62 186.17 C 120.65 186.38 121.65 185.72 121.86 184.69 L 122.06 183.69 C 122.27 182.67 121.61 181.67 120.59 181.46 C 119.56 181.25 118.56 181.91 118.35 182.94 Z M 118.15 183.93 L 117.94 184.93 C 117.73 185.95 118.39 186.95 119.42 187.16 C 120.44 187.37 121.44 186.71 121.65 185.69 L 121.86 184.69 C 122.07 183.67 121.41 182.67 120.38 182.46 C 119.36 182.25 118.36 182.91 118.15 183.93 Z M 117.94 184.93 L 117.74 185.92 C 117.53 186.94 118.19 187.94 119.21 188.15 C 120.24 188.36 121.24 187.70 121.45 186.68 L 121.65 185.69 C 121.86 184.66 121.20 183.66 120.18 183.45 C 119.16 183.24 118.15 183.90 117.94 184.93 Z M 117.74 185.92 L 117.54 186.90 C 117.33 187.93 117.99 188.93 119.01 189.14 C 120.04 189.35 121.04 188.69 121.25 187.66 L 121.45 186.68 C 121.66 185.65 121.00 184.65 119.98 184.44 C 118.95 184.23 117.95 184.89 117.74 185.92 Z M 117.54 186.90 L 117.34 187.88 C 117.13 188.91 117.79 189.91 118.81 190.12 C 119.84 190.33 120.84 189.67 121.05 188.64 L 121.25 187.66 C 121.46 186.64 120.80 185.64 119.77 185.43 C 118.75 185.22 117.75 185.88 117.54 186.90 Z M 117.34 187.88 L 117.14 188.85 C 116.93 189.88 117.59 190.88 118.62 191.09 C 119.64 191.30 120.64 190.63 120.85 189.61 L 121.05 188.64 C 121.26 187.62 120.59 186.62 119.57 186.41 C 118.55 186.20 117.55 186.86 117.34 187.88 Z M 117.14 188.86 L 116.95 189.82 C 116.74 190.84 117.40 191.84 118.43 192.05 C 119.45 192.25 120.45 191.59 120.66 190.57 L 120.85 189.61 C 121.06 188.58 120.39 187.58 119.37 187.38 C 118.34 187.17 117.35 187.83 117.14 188.86 Z M 116.94 189.82 L 116.76 190.77 C 116.55 191.79 117.22 192.79 118.24 193.00 C 119.27 193.20 120.26 192.54 120.47 191.51 L 120.66 190.56 C 120.86 189.54 120.20 188.54 119.17 188.33 C 118.15 188.13 117.15 188.80 116.94 189.82 Z M 116.75 190.77 L 116.56 191.77 C 116.36 192.79 117.03 193.79 118.05 193.99 C 119.08 194.19 120.07 193.52 120.28 192.50 L 120.47 191.51 C 120.67 190.48 120.00 189.48 118.98 189.28 C 117.95 189.08 116.96 189.75 116.75 190.77 Z M 116.56 191.77 L 116.36 192.82 C 116.16 193.84 116.83 194.84 117.86 195.03 C 118.88 195.23 119.88 194.56 120.07 193.53 L 120.28 192.49 C 120.47 191.46 119.80 190.47 118.78 190.27 C 117.75 190.07 116.76 190.75 116.56 191.77 Z M 116.35 192.82 L 116.16 193.85 C 115.97 194.88 116.64 195.87 117.67 196.06 C 118.70 196.26 119.69 195.58 119.88 194.55 L 120.08 193.53 C 120.27 192.50 119.59 191.51 118.57 191.31 C 117.54 191.12 116.55 191.80 116.35 192.82 Z M 116.16 193.86 L 115.97 194.87 C 115.79 195.90 116.47 196.89 117.49 197.08 C 118.52 197.26 119.51 196.58 119.70 195.55 L 119.88 194.54 C 120.07 193.52 119.39 192.53 118.36 192.34 C 117.34 192.15 116.35 192.83 116.16 193.86 Z M 115.97 194.88 L 115.80 195.88 C 115.61 196.91 116.30 197.89 117.33 198.07 C 118.36 198.25 119.34 197.57 119.52 196.54 L 119.70 195.54 C 119.88 194.51 119.20 193.53 118.17 193.35 C 117.14 193.17 116.16 193.85 115.97 194.88 Z M 115.79 195.89 L 115.63 196.87 C 115.45 197.90 116.14 198.88 117.17 199.05 C 118.20 199.23 119.18 198.54 119.36 197.51 L 119.53 196.53 C 119.70 195.50 119.01 194.52 117.98 194.34 C 116.95 194.16 115.97 194.86 115.79 195.89 Z M 115.62 196.88 L 115.47 197.85 C 115.30 198.88 116.00 199.85 117.03 200.02 C 118.06 200.19 119.03 199.49 119.20 198.46 L 119.36 197.49 C 119.53 196.46 118.83 195.49 117.80 195.32 C 116.77 195.15 115.79 195.85 115.62 196.88 Z M 115.46 197.86 L 115.31 198.81 C 115.15 199.85 115.86 200.82 116.89 200.98 C 117.93 201.14 118.90 200.43 119.06 199.40 L 119.20 198.44 C 119.37 197.41 118.66 196.44 117.63 196.28 C 116.59 196.12 115.62 196.83 115.46 197.86 Z M 115.31 198.83 L 115.17 199.77 C 115.02 200.80 115.74 201.77 116.77 201.92 C 117.81 202.07 118.77 201.36 118.92 200.32 L 119.06 199.38 C 119.21 198.35 118.50 197.38 117.46 197.23 C 116.43 197.08 115.46 197.79 115.31 198.83 Z M 115.17 199.79 L 115.04 200.71 C 114.90 201.75 115.63 202.71 116.66 202.85 C 117.70 202.99 118.65 202.27 118.80 201.23 L 118.92 200.30 C 119.07 199.27 118.34 198.31 117.31 198.17 C 116.27 198.03 115.31 198.75 115.17 199.79 Z M 115.04 200.73 L 114.92 201.71 C 114.79 202.74 115.52 203.69 116.56 203.82 C 117.60 203.95 118.54 203.22 118.67 202.18 L 118.80 201.21 C 118.93 200.17 118.20 199.23 117.16 199.09 C 116.12 198.96 115.17 199.70 115.04 200.73 Z M 114.91 201.73 L 114.81 202.70 C 114.69 203.74 115.43 204.67 116.47 204.79 C 117.51 204.91 118.45 204.16 118.57 203.12 L 118.68 202.16 C 118.80 201.12 118.05 200.18 117.01 200.06 C 115.97 199.94 115.03 200.69 114.91 201.73 Z M 114.80 202.73 L 114.71 203.69 C 114.61 204.73 115.37 205.66 116.41 205.76 C 117.45 205.86 118.37 205.10 118.48 204.06 L 118.57 203.10 C 118.67 202.06 117.91 201.13 116.87 201.03 C 115.83 200.92 114.90 201.69 114.80 202.73 Z M 114.70 203.72 L 114.63 204.69 C 114.54 205.73 115.32 206.65 116.36 206.73 C 117.40 206.82 118.32 206.04 118.40 205.00 L 118.48 204.03 C 118.56 202.99 117.79 202.07 116.74 201.99 C 115.70 201.90 114.79 202.68 114.70 203.72 Z M 114.62 204.73 L 114.56 205.71 C 114.50 206.75 115.29 207.65 116.34 207.71 C 117.38 207.78 118.28 206.98 118.34 205.94 L 118.40 204.96 C 118.47 203.92 117.67 203.02 116.63 202.96 C 115.59 202.89 114.69 203.68 114.62 204.73 Z M 114.56 205.75 L 114.52 206.74 C 114.48 207.78 115.29 208.67 116.33 208.71 C 117.38 208.75 118.26 207.94 118.30 206.90 L 118.34 205.90 C 118.39 204.86 117.58 203.98 116.53 203.93 C 115.49 203.89 114.60 204.70 114.56 205.75 Z M 114.52 206.78 L 114.50 207.79 C 114.48 208.84 115.31 209.70 116.35 209.72 C 117.40 209.75 118.26 208.92 118.28 207.87 L 118.30 206.86 C 118.33 205.81 117.50 204.95 116.45 204.93 C 115.40 204.90 114.54 205.73 114.52 206.78 Z M 114.50 207.83 L 114.50 208.87 C 114.50 209.92 115.35 210.77 116.39 210.76 C 117.44 210.76 118.29 209.91 118.28 208.87 L 118.28 207.83 C 118.28 206.78 117.43 205.94 116.39 205.94 C 115.34 205.94 114.50 206.79 114.50 207.83 Z M 114.50 208.92 L 114.52 209.99 C 114.55 211.03 115.41 211.86 116.46 211.84 C 117.50 211.81 118.33 210.94 118.31 209.90 L 118.28 208.83 C 118.26 207.78 117.39 206.96 116.35 206.98 C 115.30 207.00 114.48 207.87 114.50 208.92 Z M 114.53 210.03 L 114.57 211.02 C 114.62 212.07 115.50 212.87 116.55 212.83 C 117.59 212.78 118.40 211.90 118.35 210.85 L 118.31 209.86 C 118.26 208.81 117.38 208.01 116.33 208.05 C 115.29 208.10 114.48 208.98 114.53 210.03 Z M 114.57 211.07 L 114.65 212.09 C 114.72 213.13 115.63 213.91 116.67 213.84 C 117.71 213.76 118.50 212.85 118.42 211.81 L 118.35 210.80 C 118.27 209.76 117.37 208.98 116.32 209.05 C 115.28 209.13 114.50 210.03 114.57 211.07 Z M 114.66 212.16 L 114.77 213.17 C 114.88 214.21 115.81 214.96 116.85 214.85 C 117.89 214.73 118.64 213.80 118.53 212.76 L 118.41 211.74 C 118.30 210.70 117.37 209.96 116.33 210.07 C 115.29 210.18 114.54 211.12 114.66 212.16 Z M 114.78 213.26 L 114.94 214.27 C 115.10 215.30 116.07 216.01 117.10 215.84 C 118.13 215.68 118.83 214.72 118.67 213.68 L 118.51 212.67 C 118.35 211.64 117.38 210.94 116.35 211.10 C 115.32 211.26 114.62 212.23 114.78 213.26 Z M 114.96 214.38 L 115.17 215.37 C 115.39 216.39 116.40 217.04 117.42 216.82 C 118.44 216.60 119.09 215.59 118.87 214.57 L 118.65 213.58 C 118.43 212.56 117.42 211.91 116.41 212.13 C 115.39 212.35 114.74 213.36 114.96 214.38 Z M 115.21 215.50 L 115.49 216.46 C 115.78 217.46 116.83 218.04 117.83 217.75 C 118.83 217.45 119.40 216.41 119.11 215.41 L 118.83 214.44 C 118.54 213.44 117.49 212.87 116.49 213.16 C 115.49 213.45 114.92 214.50 115.21 215.50 Z M 115.54 216.61 L 115.89 217.53 C 116.27 218.50 117.36 218.99 118.33 218.61 C 119.31 218.24 119.79 217.15 119.42 216.18 L 119.06 215.25 C 118.69 214.28 117.59 213.80 116.62 214.17 C 115.65 214.55 115.16 215.64 115.54 216.61 Z M 115.97 217.71 L 116.41 218.57 C 116.88 219.50 118.02 219.87 118.94 219.40 C 119.87 218.93 120.25 217.80 119.78 216.87 L 119.34 216.00 C 118.87 215.07 117.73 214.70 116.80 215.17 C 115.87 215.64 115.50 216.78 115.97 217.71 Z M 116.52 218.76 L 117.05 219.56 C 117.63 220.43 118.80 220.67 119.67 220.09 C 120.53 219.51 120.77 218.34 120.20 217.48 L 119.66 216.68 C 119.09 215.81 117.92 215.57 117.05 216.15 C 116.18 216.72 115.95 217.89 116.52 218.76 Z M 117.21 219.76 L 117.84 220.48 C 118.52 221.26 119.71 221.34 120.50 220.66 C 121.28 219.97 121.36 218.78 120.67 218.00 L 120.04 217.28 C 119.36 216.49 118.16 216.42 117.38 217.10 C 116.60 217.79 116.52 218.98 117.21 219.76 Z M 118.03 220.66 L 118.73 221.27 C 119.52 221.95 120.71 221.86 121.39 221.08 C 122.07 220.29 121.98 219.10 121.19 218.42 L 120.48 217.81 C 119.70 217.13 118.51 217.22 117.83 218.01 C 117.15 218.80 117.24 219.99 118.03 220.66 Z M 118.92 221.41 L 119.72 221.94 C 120.58 222.51 121.75 222.28 122.32 221.41 C 122.89 220.55 122.66 219.38 121.79 218.81 L 121.00 218.28 C 120.13 217.71 118.97 217.94 118.39 218.81 C 117.82 219.67 118.06 220.84 118.92 221.41 Z M 119.90 222.04 L 120.77 222.49 C 121.69 222.96 122.82 222.59 123.29 221.67 C 123.76 220.74 123.39 219.61 122.47 219.14 L 121.60 218.70 C 120.68 218.23 119.55 218.60 119.08 219.52 C 118.61 220.44 118.98 221.57 119.90 222.04 Z M 120.94 222.56 L 121.87 222.92 C 122.84 223.29 123.92 222.81 124.29 221.85 C 124.66 220.88 124.18 219.80 123.22 219.43 L 122.29 219.07 C 121.33 218.70 120.25 219.17 119.87 220.14 C 119.50 221.10 119.98 222.19 120.94 222.56 Z M 122.04 222.97 L 123.01 223.24 C 124.00 223.52 125.04 222.95 125.32 221.95 C 125.60 220.96 125.02 219.93 124.02 219.65 L 123.05 219.37 C 122.06 219.09 121.03 219.67 120.75 220.67 C 120.47 221.66 121.05 222.69 122.04 222.97 Z M 123.17 223.28 L 124.18 223.47 C 125.19 223.66 126.17 222.99 126.36 221.98 C 126.55 220.97 125.88 219.99 124.87 219.80 L 123.86 219.61 C 122.85 219.42 121.88 220.09 121.68 221.10 C 121.49 222.11 122.16 223.09 123.17 223.28 Z M 124.33 223.49 L 125.36 223.59 C 126.38 223.70 127.29 222.95 127.40 221.93 C 127.50 220.91 126.76 219.99 125.74 219.89 L 124.71 219.78 C 123.69 219.68 122.78 220.42 122.67 221.45 C 122.57 222.47 123.31 223.38 124.33 223.49 Z M 125.51 223.60 L 126.54 223.62 C 127.57 223.64 128.42 222.82 128.43 221.80 C 128.45 220.77 127.64 219.92 126.61 219.90 L 125.58 219.88 C 124.56 219.86 123.71 220.68 123.69 221.70 C 123.67 222.73 124.49 223.58 125.51 223.60 Z M 126.70 223.61 L 127.72 223.54 C 128.74 223.48 129.52 222.60 129.45 221.58 C 129.38 220.55 128.50 219.78 127.48 219.84 L 126.46 219.91 C 125.44 219.97 124.66 220.86 124.73 221.88 C 124.79 222.90 125.67 223.68 126.70 223.61 Z M 127.88 223.52 L 128.88 223.37 C 129.89 223.22 130.58 222.28 130.43 221.27 C 130.28 220.26 129.33 219.56 128.32 219.71 L 127.32 219.86 C 126.31 220.02 125.62 220.96 125.77 221.97 C 125.92 222.98 126.86 223.68 127.88 223.52 Z M 129.04 223.34 L 130.03 223.09 C 131.02 222.85 131.62 221.85 131.38 220.86 C 131.14 219.87 130.14 219.26 129.14 219.51 L 128.16 219.75 C 127.17 219.99 126.56 220.99 126.80 221.98 C 127.05 222.98 128.05 223.58 129.04 223.34 Z M 130.19 223.04 L 131.15 222.71 C 132.11 222.38 132.62 221.33 132.29 220.36 C 131.95 219.40 130.90 218.89 129.94 219.22 L 128.98 219.56 C 128.02 219.89 127.51 220.94 127.84 221.90 C 128.18 222.87 129.23 223.38 130.19 223.04 Z M 131.29 222.65 L 132.21 222.24 C 133.14 221.83 133.56 220.74 133.14 219.81 C 132.73 218.88 131.64 218.46 130.71 218.88 L 129.79 219.28 C 128.86 219.70 128.44 220.79 128.86 221.72 C 129.27 222.65 130.36 223.07 131.29 222.65 Z M 132.34 222.18 L 133.22 221.70 C 134.11 221.22 134.44 220.10 133.96 219.20 C 133.47 218.31 132.35 217.98 131.46 218.46 L 130.58 218.94 C 129.69 219.43 129.36 220.54 129.84 221.44 C 130.33 222.33 131.44 222.66 132.34 222.18 Z M 133.33 221.63 L 134.17 221.10 C 135.02 220.55 135.28 219.41 134.73 218.56 C 134.18 217.70 133.05 217.45 132.19 218.00 L 131.35 218.53 C 130.49 219.08 130.24 220.21 130.79 221.07 C 131.33 221.93 132.47 222.18 133.33 221.63 Z M 134.26 221.03 L 135.07 220.44 C 135.89 219.85 136.07 218.70 135.47 217.88 C 134.87 217.06 133.73 216.88 132.91 217.47 L 132.10 218.06 C 131.28 218.66 131.10 219.81 131.70 220.63 C 132.29 221.45 133.44 221.63 134.26 221.03 Z M 135.14 220.38 L 135.92 219.75 C 136.70 219.11 136.82 217.96 136.18 217.17 C 135.54 216.39 134.39 216.27 133.60 216.91 L 132.83 217.54 C 132.04 218.18 131.93 219.33 132.57 220.12 C 133.20 220.90 134.36 221.02 135.14 220.38 Z M 135.98 219.69 L 136.72 219.03 C 137.48 218.36 137.54 217.20 136.87 216.45 C 136.19 215.69 135.04 215.63 134.28 216.30 L 133.54 216.96 C 132.79 217.64 132.72 218.79 133.40 219.55 C 134.07 220.30 135.23 220.37 135.98 219.69 Z M 136.77 218.98 L 137.48 218.30 C 138.21 217.59 138.23 216.44 137.53 215.71 C 136.83 214.98 135.67 214.96 134.94 215.66 L 134.23 216.35 C 133.51 217.05 133.49 218.21 134.19 218.94 C 134.89 219.66 136.05 219.68 136.77 218.98 Z M 137.52 218.25 L 138.21 217.55 C 138.91 216.83 138.89 215.67 138.17 214.97 C 137.45 214.26 136.29 214.28 135.59 215.00 L 134.90 215.71 C 134.20 216.43 134.22 217.59 134.94 218.29 C 135.66 218.99 136.82 218.98 137.52 218.25 Z M 138.24 217.52 L 138.93 216.77 C 139.61 216.03 139.56 214.88 138.82 214.19 C 138.08 213.51 136.93 213.55 136.25 214.29 L 135.56 215.04 C 134.87 215.78 134.92 216.93 135.66 217.62 C 136.40 218.30 137.55 218.26 138.24 217.52 Z M 138.96 216.74 L 139.63 215.97 C 140.30 215.21 140.23 214.06 139.47 213.39 C 138.71 212.72 137.56 212.80 136.90 213.55 L 136.22 214.33 C 135.55 215.08 135.62 216.24 136.38 216.90 C 137.14 217.57 138.29 217.49 138.96 216.74 Z M 139.66 215.93 L 140.31 215.15 C 140.96 214.38 140.86 213.23 140.09 212.58 C 139.32 211.94 138.16 212.04 137.52 212.81 L 136.87 213.59 C 136.22 214.36 136.32 215.51 137.09 216.16 C 137.87 216.81 139.02 216.70 139.66 215.93 Z M 140.34 215.12 L 140.97 214.34 C 141.60 213.55 141.47 212.40 140.68 211.77 C 139.89 211.14 138.74 211.27 138.11 212.06 L 137.49 212.85 C 136.86 213.63 136.99 214.78 137.78 215.41 C 138.57 216.04 139.72 215.91 140.34 215.12 Z M 141.00 214.30 L 141.60 213.51 C 142.20 212.70 142.05 211.56 141.24 210.95 C 140.44 210.34 139.29 210.50 138.69 211.30 L 138.09 212.10 C 137.48 212.90 137.64 214.05 138.44 214.65 C 139.24 215.26 140.39 215.10 141.00 214.30 Z M 141.62 213.47 L 142.20 212.67 C 142.79 211.85 142.60 210.71 141.78 210.12 C 140.97 209.53 139.82 209.72 139.24 210.54 L 138.66 211.34 C 138.07 212.16 138.26 213.30 139.08 213.89 C 139.89 214.48 141.03 214.29 141.62 213.47 Z M 142.22 212.63 L 142.78 211.82 C 143.35 210.99 143.13 209.85 142.30 209.28 C 141.47 208.72 140.34 208.93 139.77 209.76 L 139.21 210.57 C 138.64 211.41 138.86 212.54 139.69 213.11 C 140.52 213.68 141.66 213.46 142.22 212.63 Z M 142.80 211.78 L 143.34 210.96 C 143.89 210.11 143.65 208.98 142.80 208.43 C 141.96 207.89 140.83 208.13 140.28 208.97 L 139.74 209.80 C 139.19 210.64 139.43 211.77 140.28 212.32 C 141.12 212.87 142.25 212.63 142.80 211.78 Z M 143.36 210.92 L 143.88 210.08 C 144.41 209.23 144.14 208.10 143.29 207.57 C 142.43 207.04 141.30 207.31 140.77 208.17 L 140.26 209.01 C 139.73 209.86 139.99 210.99 140.85 211.52 C 141.71 212.05 142.83 211.78 143.36 210.92 Z M 143.90 210.05 L 144.40 209.21 C 144.91 208.34 144.62 207.22 143.75 206.71 C 142.88 206.20 141.76 206.49 141.25 207.36 L 140.75 208.20 C 140.24 209.07 140.53 210.19 141.40 210.70 C 142.27 211.21 143.39 210.92 143.90 210.05 Z M 144.42 209.17 L 144.89 208.33 C 145.38 207.45 145.07 206.34 144.19 205.84 C 143.31 205.35 142.20 205.66 141.71 206.54 L 141.23 207.39 C 140.74 208.27 141.05 209.38 141.93 209.87 C 142.81 210.37 143.92 210.05 144.42 209.17 Z M 144.91 208.30 L 145.37 207.44 C 145.84 206.55 145.51 205.44 144.62 204.97 C 143.74 204.49 142.63 204.82 142.15 205.71 L 141.69 206.57 C 141.21 207.46 141.55 208.57 142.44 209.04 C 143.32 209.52 144.43 209.19 144.91 208.30 Z M 145.38 207.41 L 145.83 206.54 C 146.29 205.64 145.94 204.54 145.05 204.08 C 144.15 203.62 143.05 203.97 142.59 204.86 L 142.14 205.74 C 141.68 206.63 142.03 207.73 142.92 208.20 C 143.82 208.66 144.92 208.31 145.38 207.41 Z M 145.84 206.51 L 146.29 205.63 C 146.74 204.73 146.37 203.63 145.47 203.18 C 144.56 202.73 143.47 203.10 143.02 204.00 L 142.58 204.89 C 142.13 205.79 142.50 206.89 143.40 207.33 C 144.30 207.78 145.40 207.42 145.84 206.51 Z M 146.30 205.61 L 146.73 204.71 C 147.17 203.80 146.79 202.71 145.88 202.27 C 144.97 201.83 143.88 202.21 143.44 203.12 L 143.01 204.02 C 142.57 204.93 142.95 206.02 143.86 206.46 C 144.77 206.90 145.86 206.51 146.30 205.61 Z M 146.74 204.69 L 147.17 203.78 C 147.59 202.86 147.20 201.78 146.29 201.35 C 145.37 200.92 144.29 201.32 143.86 202.23 L 143.43 203.14 C 143.01 204.05 143.40 205.14 144.31 205.57 C 145.23 205.99 146.31 205.60 146.74 204.69 Z M 147.17 203.76 L 147.60 202.84 C 148.01 201.92 147.61 200.84 146.69 200.42 C 145.78 200.00 144.70 200.40 144.28 201.32 L 143.85 202.24 C 143.44 203.16 143.84 204.24 144.76 204.66 C 145.67 205.08 146.75 204.68 147.17 203.76 Z M 147.60 202.82 L 148.02 201.89 C 148.43 200.97 148.02 199.89 147.10 199.48 C 146.18 199.06 145.10 199.48 144.69 200.40 L 144.27 201.33 C 143.86 202.25 144.27 203.33 145.19 203.74 C 146.11 204.15 147.19 203.74 147.60 202.82 Z M 148.03 201.88 L 148.44 200.93 C 148.85 200.01 148.43 198.93 147.51 198.52 C 146.59 198.12 145.51 198.54 145.10 199.46 L 144.69 200.41 C 144.28 201.33 144.70 202.41 145.62 202.81 C 146.54 203.22 147.62 202.80 148.03 201.88 Z M 148.45 200.92 L 148.84 200.02 C 149.24 199.09 148.82 198.02 147.89 197.62 C 146.97 197.21 145.89 197.64 145.49 198.56 L 145.10 199.47 C 144.70 200.39 145.12 201.46 146.04 201.87 C 146.97 202.27 148.04 201.85 148.45 200.92 Z M 148.84 200.01 L 149.23 199.11 C 149.63 198.18 149.20 197.11 148.28 196.71 C 147.35 196.31 146.28 196.74 145.88 197.66 L 145.49 198.57 C 145.09 199.49 145.52 200.57 146.44 200.96 C 147.37 201.36 148.44 200.94 148.84 200.01 Z M 149.23 199.10 L 149.62 198.19 C 150.02 197.26 149.58 196.19 148.66 195.80 C 147.73 195.40 146.66 195.83 146.26 196.76 L 145.88 197.67 C 145.48 198.60 145.91 199.67 146.84 200.06 C 147.77 200.46 148.84 200.03 149.23 199.10 Z M 149.62 198.18 L 150.01 197.27 C 150.40 196.34 149.97 195.27 149.04 194.88 C 148.11 194.48 147.04 194.92 146.65 195.85 L 146.26 196.77 C 145.87 197.69 146.31 198.76 147.23 199.16 C 148.16 199.55 149.23 199.11 149.62 198.18 Z M 150.01 197.26 L 150.40 196.34 C 150.79 195.41 150.35 194.34 149.42 193.95 C 148.49 193.56 147.42 194.00 147.03 194.93 L 146.65 195.85 C 146.26 196.78 146.70 197.85 147.63 198.24 C 148.56 198.63 149.62 198.19 150.01 197.26 Z M 150.40 196.33 L 150.79 195.40 C 151.17 194.47 150.73 193.40 149.80 193.02 C 148.87 192.63 147.80 193.08 147.41 194.01 L 147.03 194.94 C 146.64 195.87 147.09 196.93 148.02 197.32 C 148.95 197.70 150.02 197.26 150.40 196.33 Z M 150.79 195.40 L 151.17 194.46 C 151.55 193.53 151.11 192.47 150.18 192.08 C 149.24 191.70 148.18 192.15 147.79 193.08 L 147.41 194.01 C 147.03 194.94 147.48 196.01 148.41 196.39 C 149.34 196.78 150.41 196.33 150.79 195.40 Z M 151.17 194.46 L 151.55 193.52 C 151.93 192.59 151.48 191.53 150.55 191.15 C 149.62 190.77 148.55 191.22 148.17 192.15 L 147.79 193.09 C 147.41 194.02 147.86 195.08 148.80 195.46 C 149.73 195.84 150.79 195.39 151.17 194.46 Z M 151.56 193.52 L 151.93 192.58 C 152.31 191.65 151.86 190.58 150.92 190.21 C 149.99 189.83 148.93 190.28 148.55 191.22 L 148.17 192.15 C 147.79 193.09 148.25 194.15 149.18 194.53 C 150.12 194.91 151.18 194.45 151.56 193.52 Z M 151.94 192.58 L 152.31 191.64 C 152.68 190.70 152.23 189.64 151.29 189.27 C 150.36 188.89 149.30 189.35 148.92 190.28 L 148.55 191.22 C 148.17 192.16 148.63 193.22 149.56 193.59 C 150.50 193.97 151.56 193.51 151.94 192.58 Z M 152.31 191.63 L 152.69 190.68 C 153.06 189.75 152.60 188.69 151.66 188.32 C 150.73 187.94 149.67 188.40 149.30 189.34 L 148.92 190.29 C 148.55 191.22 149.01 192.28 149.94 192.66 C 150.88 193.03 151.94 192.57 152.31 191.63 Z M 152.69 190.68 L 153.06 189.73 C 153.43 188.79 152.97 187.73 152.03 187.36 C 151.09 186.99 150.04 187.45 149.67 188.39 L 149.29 189.34 C 148.93 190.28 149.39 191.34 150.33 191.71 C 151.26 192.08 152.32 191.62 152.69 190.68 Z M 153.07 189.72 L 153.44 188.77 C 153.80 187.83 153.34 186.77 152.40 186.41 C 151.46 186.04 150.40 186.51 150.03 187.45 L 149.67 188.40 C 149.30 189.34 149.77 190.39 150.70 190.76 C 151.64 191.12 152.70 190.66 153.07 189.72 Z M 153.44 188.76 L 153.80 187.82 C 154.16 186.87 153.69 185.82 152.75 185.46 C 151.81 185.10 150.76 185.57 150.40 186.51 L 150.03 187.45 C 149.67 188.39 150.14 189.45 151.08 189.81 C 152.02 190.17 153.08 189.70 153.44 188.76 Z M 153.81 187.81 L 154.16 186.86 C 154.52 185.92 154.05 184.87 153.11 184.51 C 152.16 184.15 151.11 184.63 150.75 185.57 L 150.39 186.51 C 150.04 187.45 150.51 188.51 151.45 188.87 C 152.39 189.22 153.45 188.75 153.81 187.81 Z M 154.17 186.86 L 154.52 185.92 C 154.87 184.97 154.40 183.92 153.45 183.57 C 152.51 183.21 151.46 183.69 151.10 184.64 L 150.75 185.58 C 150.40 186.52 150.87 187.57 151.82 187.92 C 152.76 188.28 153.81 187.80 154.17 186.86 Z M 154.52 185.91 L 154.87 184.97 C 155.22 184.03 154.73 182.98 153.79 182.63 C 152.84 182.28 151.80 182.76 151.45 183.71 L 151.10 184.64 C 150.75 185.59 151.23 186.64 152.18 186.99 C 153.12 187.34 154.17 186.85 154.52 185.91 Z M 154.87 184.97 L 155.21 184.04 C 155.55 183.09 155.07 182.04 154.12 181.70 C 153.17 181.35 152.13 181.84 151.78 182.79 L 151.44 183.72 C 151.10 184.66 151.59 185.71 152.53 186.06 C 153.48 186.40 154.53 185.91 154.87 184.97 Z M 155.21 184.03 L 155.54 183.11 C 155.88 182.16 155.39 181.11 154.44 180.77 C 153.49 180.43 152.45 180.93 152.11 181.88 L 151.78 182.80 C 151.44 183.75 151.93 184.79 152.88 185.13 C 153.83 185.47 154.87 184.98 155.21 184.03 Z M 155.55 183.10 L 155.87 182.19 C 156.20 181.23 155.70 180.19 154.75 179.86 C 153.80 179.52 152.76 180.02 152.43 180.97 L 152.10 181.89 C 151.77 182.84 152.27 183.88 153.22 184.21 C 154.17 184.55 155.21 184.05 155.55 183.10 Z M 155.87 182.17 L 156.20 181.22 C 156.53 180.27 156.02 179.23 155.07 178.90 C 154.12 178.57 153.08 179.08 152.75 180.03 L 152.42 180.99 C 152.09 181.94 152.60 182.98 153.55 183.30 C 154.50 183.63 155.54 183.13 155.87 182.17 Z M 156.20 181.21 L 156.54 180.22 C 156.86 179.27 156.35 178.23 155.39 177.91 C 154.44 177.59 153.40 178.10 153.08 179.05 L 152.75 180.04 C 152.43 180.99 152.94 182.03 153.89 182.35 C 154.85 182.67 155.88 182.16 156.20 181.21 Z M 156.54 180.21 L 156.86 179.23 C 157.18 178.28 156.66 177.25 155.71 176.93 C 154.75 176.61 153.72 177.13 153.40 178.09 L 153.08 179.06 C 152.76 180.02 153.28 181.05 154.24 181.37 C 155.19 181.68 156.22 181.17 156.54 180.21 Z M 156.87 179.23 L 157.18 178.26 C 157.49 177.30 156.97 176.27 156.01 175.96 C 155.06 175.65 154.03 176.17 153.71 177.13 L 153.40 178.10 C 153.09 179.05 153.61 180.08 154.57 180.39 C 155.52 180.71 156.55 180.18 156.87 179.23 Z M 157.18 178.26 L 157.49 177.30 C 157.80 176.34 157.27 175.31 156.31 175.01 C 155.36 174.70 154.33 175.22 154.02 176.18 L 153.71 177.14 C 153.40 178.10 153.93 179.12 154.89 179.43 C 155.85 179.74 156.87 179.21 157.18 178.26 Z M 157.49 177.30 L 157.79 176.35 C 158.10 175.39 157.57 174.37 156.61 174.06 C 155.65 173.75 154.63 174.28 154.32 175.24 L 154.02 176.19 C 153.71 177.15 154.24 178.17 155.20 178.48 C 156.16 178.78 157.19 178.25 157.49 177.30 Z M 157.79 176.35 L 158.09 175.41 C 158.40 174.45 157.86 173.43 156.91 173.12 C 155.95 172.82 154.92 173.35 154.62 174.31 L 154.32 175.25 C 154.01 176.20 154.55 177.23 155.50 177.53 C 156.46 177.84 157.49 177.31 157.79 176.35 Z M 158.09 175.41 L 158.38 174.49 C 158.69 173.53 158.16 172.50 157.20 172.20 C 156.24 171.89 155.21 172.43 154.91 173.39 L 154.62 174.31 C 154.31 175.27 154.84 176.29 155.80 176.60 C 156.76 176.90 157.79 176.37 158.09 175.41 Z M 158.38 174.49 L 158.68 173.57 C 158.98 172.61 158.45 171.59 157.49 171.28 C 156.53 170.98 155.51 171.51 155.20 172.47 L 154.91 173.38 C 154.61 174.34 155.14 175.37 156.10 175.67 C 157.05 175.98 158.08 175.45 158.38 174.49 Z M 158.67 173.57 L 158.97 172.63 C 159.28 171.68 158.75 170.65 157.79 170.34 C 156.84 170.04 155.81 170.57 155.50 171.52 L 155.20 172.46 C 154.90 173.42 155.43 174.45 156.38 174.75 C 157.34 175.06 158.37 174.53 158.67 173.57 Z M 158.97 172.64 L 159.28 171.67 C 159.59 170.71 159.07 169.69 158.11 169.38 C 157.15 169.07 156.13 169.60 155.82 170.55 L 155.51 171.52 C 155.20 172.48 155.72 173.50 156.68 173.81 C 157.64 174.12 158.66 173.59 158.97 172.64 Z M 159.28 171.67 L 159.59 170.71 C 159.90 169.76 159.38 168.73 158.43 168.42 C 157.47 168.11 156.44 168.63 156.13 169.59 L 155.82 170.55 C 155.51 171.50 156.03 172.53 156.99 172.84 C 157.94 173.15 158.97 172.63 159.28 171.67 Z M 159.59 170.72 L 159.90 169.76 C 160.22 168.81 159.70 167.78 158.74 167.47 C 157.79 167.16 156.76 167.68 156.45 168.63 L 156.14 169.59 C 155.82 170.54 156.34 171.57 157.30 171.88 C 158.25 172.19 159.28 171.67 159.59 170.72 Z M 159.90 169.77 L 160.21 168.82 C 160.53 167.87 160.01 166.84 159.06 166.53 C 158.10 166.21 157.08 166.73 156.76 167.68 L 156.45 168.63 C 156.14 169.58 156.66 170.61 157.61 170.92 C 158.56 171.24 159.59 170.72 159.90 169.77 Z M 160.21 168.82 L 160.52 167.88 C 160.84 166.92 160.32 165.90 159.37 165.58 C 158.42 165.27 157.39 165.78 157.08 166.74 L 156.77 167.68 C 156.45 168.63 156.97 169.66 157.92 169.97 C 158.87 170.29 159.90 169.77 160.21 168.82 Z M 160.52 167.88 L 160.83 166.94 C 161.15 165.99 160.63 164.96 159.68 164.65 C 158.73 164.33 157.71 164.84 157.39 165.79 L 157.08 166.73 C 156.77 167.68 157.28 168.71 158.23 169.03 C 159.18 169.34 160.21 168.83 160.52 167.88 Z M 160.83 166.94 L 161.14 166.00 C 161.46 165.05 160.95 164.02 160.00 163.71 C 159.05 163.39 158.02 163.91 157.71 164.86 L 157.39 165.79 C 157.08 166.74 157.59 167.77 158.54 168.08 C 159.49 168.40 160.52 167.89 160.83 166.94 Z M 161.14 166.00 L 161.45 165.06 C 161.77 164.11 161.26 163.09 160.31 162.77 C 159.36 162.46 158.34 162.97 158.02 163.92 L 157.71 164.86 C 157.39 165.80 157.91 166.83 158.85 167.14 C 159.80 167.46 160.83 166.95 161.14 166.00 Z M 161.45 165.06 L 161.77 164.12 C 162.08 163.17 161.57 162.15 160.62 161.83 C 159.68 161.52 158.65 162.03 158.34 162.98 L 158.02 163.92 C 157.71 164.87 158.22 165.89 159.17 166.21 C 160.11 166.52 161.14 166.01 161.45 165.06 Z M 161.76 164.12 L 162.08 163.18 C 162.40 162.23 161.88 161.21 160.94 160.89 C 159.99 160.58 158.97 161.09 158.65 162.04 L 158.34 162.98 C 158.02 163.92 158.53 164.95 159.48 165.26 C 160.43 165.58 161.45 165.07 161.76 164.12 Z M 162.08 163.18 L 162.39 162.24 C 162.71 161.29 162.20 160.27 161.25 159.95 C 160.31 159.64 159.29 160.15 158.97 161.09 L 158.65 162.04 C 158.34 162.98 158.85 164.00 159.79 164.32 C 160.74 164.64 161.76 164.13 162.08 163.18 Z M 162.39 162.24 L 162.71 161.30 C 163.02 160.35 162.52 159.33 161.57 159.01 C 160.63 158.69 159.61 159.20 159.29 160.15 L 158.97 161.09 C 158.65 162.04 159.16 163.06 160.11 163.37 C 161.05 163.69 162.07 163.18 162.39 162.24 Z M 162.71 161.30 L 163.02 160.35 C 163.34 159.41 162.84 158.39 161.89 158.07 C 160.95 157.75 159.93 158.26 159.61 159.20 L 159.29 160.15 C 158.97 161.09 159.48 162.11 160.42 162.43 C 161.37 162.75 162.39 162.24 162.71 161.30 Z M 163.02 160.35 L 163.34 159.40 C 163.66 158.46 163.16 157.44 162.22 157.12 C 161.28 156.80 160.25 157.31 159.93 158.25 L 159.61 159.20 C 159.29 160.14 159.80 161.16 160.74 161.48 C 161.68 161.80 162.70 161.29 163.02 160.35 Z M 163.34 159.41 L 163.67 158.45 C 163.99 157.51 163.49 156.49 162.55 156.17 C 161.61 155.85 160.58 156.35 160.26 157.29 L 159.94 158.24 C 159.62 159.18 160.12 160.21 161.06 160.53 C 162.00 160.85 163.02 160.35 163.34 159.41 Z M 163.66 158.46 L 163.99 157.50 C 164.32 156.56 163.82 155.54 162.88 155.22 C 161.94 154.89 160.92 155.39 160.59 156.33 L 160.26 157.29 C 159.94 158.23 160.44 159.25 161.38 159.57 C 162.32 159.90 163.34 159.40 163.66 158.46 Z M 163.99 157.51 L 164.31 156.60 C 164.63 155.66 164.13 154.64 163.20 154.31 C 162.26 153.99 161.24 154.48 160.91 155.42 L 160.60 156.33 C 160.27 157.27 160.77 158.29 161.70 158.61 C 162.64 158.94 163.67 158.44 163.99 157.51 Z M 164.30 156.60 L 164.61 155.73 C 164.93 154.80 164.44 153.77 163.51 153.44 C 162.57 153.12 161.55 153.61 161.22 154.55 L 160.91 155.42 C 160.59 156.35 161.08 157.38 162.02 157.70 C 162.95 158.03 163.98 157.54 164.30 156.60 Z M 164.60 155.74 L 164.92 154.86 C 165.24 153.92 164.76 152.90 163.82 152.57 C 162.89 152.24 161.86 152.73 161.53 153.66 L 161.22 154.54 C 160.89 155.48 161.38 156.50 162.32 156.83 C 163.25 157.16 164.27 156.67 164.60 155.74 Z M 164.91 154.86 L 165.23 153.97 C 165.56 153.03 165.08 152.01 164.14 151.68 C 163.21 151.34 162.19 151.83 161.85 152.76 L 161.54 153.66 C 161.20 154.59 161.69 155.62 162.62 155.95 C 163.55 156.28 164.58 155.79 164.91 154.86 Z M 165.23 153.97 L 165.56 153.06 C 165.89 152.13 165.41 151.10 164.48 150.77 C 163.55 150.43 162.52 150.92 162.19 151.85 L 161.86 152.76 C 161.52 153.69 162.01 154.72 162.94 155.05 C 163.87 155.39 164.89 154.90 165.23 153.97 Z M 165.55 153.06 L 165.89 152.13 C 166.23 151.20 165.75 150.17 164.82 149.84 C 163.89 149.50 162.86 149.98 162.53 150.91 L 162.19 151.84 C 161.85 152.77 162.33 153.80 163.26 154.14 C 164.19 154.47 165.22 153.99 165.55 153.06 Z M 165.89 152.13 L 166.24 151.17 C 166.58 150.25 166.10 149.22 165.18 148.88 C 164.25 148.54 163.22 149.02 162.88 149.94 L 162.53 150.90 C 162.19 151.83 162.67 152.86 163.59 153.20 C 164.52 153.54 165.55 153.06 165.89 152.13 Z M 166.24 151.18 L 166.60 150.19 C 166.95 149.26 166.47 148.24 165.55 147.89 C 164.62 147.55 163.59 148.02 163.25 148.95 L 162.89 149.94 C 162.54 150.87 163.02 151.89 163.94 152.24 C 164.87 152.58 165.90 152.10 166.24 151.18 Z M 166.60 150.19 L 166.98 149.17 C 167.33 148.25 166.86 147.22 165.93 146.87 C 165.01 146.53 163.98 147.00 163.64 147.92 L 163.25 148.95 C 162.91 149.87 163.38 150.90 164.30 151.24 C 165.23 151.59 166.26 151.12 166.60 150.19 Z M 166.98 149.17 L 167.39 148.10 C 167.73 147.17 167.27 146.14 166.34 145.80 C 165.42 145.45 164.39 145.92 164.04 146.84 L 163.64 147.92 C 163.29 148.84 163.76 149.87 164.68 150.22 C 165.60 150.56 166.63 150.10 166.98 149.17 Z M 167.39 148.11 L 167.84 146.92 C 168.19 145.99 167.73 144.96 166.80 144.60 C 165.88 144.25 164.84 144.72 164.49 145.64 L 164.04 146.83 C 163.69 147.76 164.15 148.79 165.08 149.14 C 166.00 149.50 167.04 149.03 167.39 148.11 Z M 167.85 146.93 L 168.31 145.74 C 168.67 144.81 168.21 143.76 167.28 143.40 C 166.35 143.04 165.31 143.50 164.95 144.43 L 164.48 145.63 C 164.12 146.56 164.58 147.60 165.51 147.96 C 166.44 148.32 167.49 147.86 167.85 146.93 Z M 168.32 145.76 L 168.78 144.61 C 169.16 143.67 168.70 142.61 167.77 142.24 C 166.84 141.87 165.78 142.32 165.40 143.25 L 164.94 144.41 C 164.57 145.34 165.02 146.40 165.95 146.78 C 166.89 147.15 167.94 146.70 168.32 145.76 Z M 168.78 144.64 L 169.24 143.55 C 169.63 142.62 169.19 141.55 168.26 141.15 C 167.32 140.76 166.25 141.20 165.86 142.14 L 165.40 143.22 C 165.01 144.15 165.45 145.23 166.38 145.62 C 167.32 146.01 168.39 145.57 168.78 144.64 Z M 169.23 143.60 L 169.67 142.63 C 170.09 141.70 169.67 140.60 168.74 140.19 C 167.81 139.77 166.72 140.18 166.30 141.11 L 165.86 142.09 C 165.45 143.02 165.86 144.11 166.79 144.53 C 167.72 144.95 168.82 144.53 169.23 143.60 Z M 169.65 142.70 L 170.06 141.87 C 170.52 140.95 170.14 139.84 169.22 139.38 C 168.30 138.92 167.18 139.30 166.73 140.22 L 166.32 141.04 C 165.86 141.96 166.24 143.08 167.16 143.54 C 168.08 143.99 169.19 143.62 169.65 142.70 Z M 170.01 141.99 L 170.38 141.35 C 170.90 140.46 170.60 139.31 169.71 138.79 C 168.81 138.27 167.67 138.57 167.15 139.47 L 166.77 140.10 C 166.25 141.00 166.56 142.14 167.45 142.66 C 168.34 143.18 169.49 142.88 170.01 141.99 Z M 170.25 141.58 L 170.57 141.17 C 171.21 140.35 171.07 139.16 170.25 138.52 C 169.44 137.87 168.25 138.01 167.61 138.83 L 167.28 139.24 C 166.64 140.06 166.78 141.25 167.60 141.89 C 168.42 142.54 169.60 142.39 170.25 141.58 Z M 169.88 141.72 L 170.19 141.58 C 171.15 141.14 171.56 140.02 171.13 139.06 C 170.69 138.11 169.56 137.69 168.61 138.13 L 168.30 138.27 C 167.34 138.71 166.92 139.84 167.36 140.79 C 167.80 141.74 168.93 142.16 169.88 141.72 Z M 167.96 141.11 L 168.23 141.41 C 168.92 142.20 170.12 142.28 170.92 141.59 C 171.71 140.90 171.79 139.70 171.10 138.90 L 170.84 138.60 C 170.15 137.81 168.95 137.72 168.15 138.41 C 167.36 139.11 167.27 140.31 167.96 141.11 Z M 167.80 140.59 L 167.96 141.30 C 168.20 142.33 169.23 142.97 170.26 142.73 C 171.29 142.49 171.93 141.46 171.69 140.43 L 171.53 139.72 C 171.29 138.69 170.26 138.05 169.23 138.29 C 168.20 138.53 167.56 139.56 167.80 140.59 Z M 167.91 141.03 L 168.00 142.05 C 168.09 143.11 169.02 143.90 170.07 143.81 C 171.13 143.72 171.92 142.79 171.83 141.73 L 171.75 140.71 C 171.66 139.65 170.73 138.86 169.67 138.95 C 168.61 139.04 167.82 139.97 167.91 141.03 Z M 167.98 141.93 L 168.01 143.17 C 168.03 144.23 168.91 145.08 169.97 145.06 C 171.04 145.04 171.89 144.16 171.87 143.10 L 171.84 141.86 C 171.83 140.79 170.94 139.94 169.88 139.96 C 168.81 139.98 167.96 140.86 167.98 141.93 Z M 168.00 143.10 L 167.98 144.45 C 167.96 145.53 168.81 146.41 169.88 146.43 C 170.95 146.44 171.83 145.59 171.85 144.52 L 171.88 143.16 C 171.89 142.09 171.04 141.21 169.97 141.19 C 168.90 141.17 168.02 142.03 168.00 143.10 Z M 167.97 144.42 L 167.93 145.66 C 167.89 146.73 168.72 147.63 169.80 147.67 C 170.87 147.71 171.77 146.87 171.81 145.80 L 171.86 144.56 C 171.90 143.48 171.06 142.58 169.98 142.54 C 168.91 142.50 168.01 143.34 167.97 144.42 Z M 167.92 145.64 L 167.88 146.64 C 167.82 147.71 168.65 148.62 169.73 148.68 C 170.80 148.73 171.72 147.90 171.77 146.82 L 171.82 145.82 C 171.87 144.75 171.04 143.83 169.96 143.78 C 168.89 143.73 167.97 144.56 167.92 145.64 Z M 167.87 146.62 L 167.82 147.60 C 167.76 148.68 168.58 149.60 169.65 149.66 C 170.73 149.72 171.65 148.90 171.71 147.82 L 171.77 146.84 C 171.83 145.76 171.01 144.84 169.93 144.78 C 168.86 144.72 167.94 145.54 167.87 146.62 Z M 167.82 147.59 L 167.76 148.57 C 167.69 149.64 168.50 150.57 169.58 150.64 C 170.65 150.71 171.58 149.89 171.65 148.82 L 171.71 147.84 C 171.78 146.76 170.97 145.84 169.89 145.77 C 168.82 145.70 167.89 146.51 167.82 147.59 Z M 167.76 148.56 L 167.69 149.53 C 167.61 150.61 168.42 151.54 169.50 151.62 C 170.57 151.69 171.51 150.88 171.58 149.80 L 171.65 148.83 C 171.72 147.75 170.91 146.82 169.84 146.74 C 168.76 146.67 167.83 147.48 167.76 148.56 Z M 167.69 149.52 L 167.61 150.51 C 167.53 151.58 168.34 152.52 169.42 152.60 C 170.49 152.68 171.43 151.87 171.51 150.80 L 171.58 149.81 C 171.66 148.74 170.85 147.80 169.78 147.72 C 168.70 147.64 167.77 148.45 167.69 149.52 Z M 167.61 150.50 L 167.54 151.50 C 167.45 152.58 168.26 153.51 169.34 153.60 C 170.41 153.68 171.35 152.87 171.43 151.80 L 171.51 150.80 C 171.59 149.73 170.79 148.79 169.71 148.70 C 168.63 148.62 167.70 149.43 167.61 150.50 Z M 167.54 151.50 L 167.46 152.52 C 167.37 153.59 168.18 154.53 169.26 154.61 C 170.33 154.70 171.27 153.89 171.35 152.82 L 171.43 151.80 C 171.52 150.72 170.71 149.78 169.64 149.70 C 168.56 149.62 167.62 150.42 167.54 151.50 Z M 167.46 152.52 L 167.38 153.55 C 167.30 154.62 168.10 155.56 169.18 155.65 C 170.26 155.73 171.20 154.92 171.28 153.85 L 171.36 152.81 C 171.44 151.74 170.63 150.80 169.55 150.72 C 168.48 150.63 167.54 151.44 167.46 152.52 Z M 167.38 153.55 L 167.31 154.46 C 167.23 155.54 168.04 156.48 169.12 156.56 C 170.19 156.64 171.13 155.83 171.21 154.75 L 171.28 153.84 C 171.36 152.76 170.55 151.83 169.47 151.75 C 168.39 151.67 167.46 152.47 167.38 153.55 Z M 167.31 154.47 L 167.24 155.40 C 167.16 156.48 167.98 157.42 169.05 157.49 C 170.13 157.57 171.07 156.76 171.14 155.68 L 171.21 154.75 C 171.29 153.67 170.48 152.73 169.40 152.66 C 168.32 152.58 167.39 153.39 167.31 154.47 Z M 167.24 155.41 L 167.18 156.36 C 167.10 157.44 167.92 158.38 168.99 158.45 C 170.07 158.52 171.01 157.71 171.08 156.63 L 171.15 155.67 C 171.22 154.60 170.40 153.66 169.33 153.59 C 168.25 153.52 167.31 154.33 167.24 155.41 Z M 167.18 156.37 L 167.11 157.35 C 167.04 158.43 167.86 159.36 168.94 159.43 C 170.02 159.50 170.95 158.68 171.02 157.60 L 171.08 156.62 C 171.15 155.54 170.33 154.61 169.25 154.54 C 168.18 154.47 167.24 155.29 167.18 156.37 Z M 167.11 157.36 L 167.05 158.35 C 166.99 159.43 167.81 160.36 168.89 160.42 C 169.97 160.49 170.89 159.67 170.96 158.59 L 171.02 157.59 C 171.08 156.51 170.26 155.59 169.18 155.52 C 168.10 155.46 167.18 156.28 167.11 157.36 Z M 167.05 158.36 L 166.99 159.38 C 166.93 160.46 167.76 161.38 168.84 161.44 C 169.92 161.50 170.84 160.67 170.90 159.59 L 170.96 158.58 C 171.02 157.50 170.19 156.58 169.11 156.52 C 168.03 156.46 167.11 157.28 167.05 158.36 Z M 166.99 159.39 L 166.94 160.42 C 166.89 161.50 167.72 162.42 168.80 162.47 C 169.88 162.53 170.80 161.70 170.85 160.62 L 170.90 159.59 C 170.96 158.51 170.13 157.59 169.05 157.53 C 167.97 157.48 167.05 158.31 166.99 159.39 Z M 166.94 160.43 L 166.89 161.48 C 166.84 162.56 167.68 163.48 168.76 163.52 C 169.84 163.57 170.76 162.74 170.80 161.66 L 170.85 160.61 C 170.90 159.53 170.06 158.61 168.98 158.56 C 167.90 158.52 166.99 159.35 166.94 160.43 Z M 166.89 161.49 L 166.85 162.56 C 166.81 163.64 167.65 164.55 168.73 164.59 C 169.81 164.63 170.72 163.79 170.76 162.71 L 170.80 161.65 C 170.85 160.57 170.00 159.66 168.92 159.61 C 167.84 159.57 166.93 160.41 166.89 161.49 Z M 166.85 162.57 L 166.82 163.58 C 166.78 164.66 167.63 165.56 168.71 165.60 C 169.79 165.63 170.69 164.79 170.73 163.71 L 170.76 162.70 C 170.80 161.62 169.95 160.71 168.87 160.68 C 167.79 160.64 166.89 161.49 166.85 162.57 Z M 166.82 163.59 L 166.79 164.45 C 166.76 165.53 167.62 166.43 168.70 166.46 C 169.78 166.49 170.68 165.64 170.71 164.56 L 170.73 163.70 C 170.76 162.62 169.91 161.72 168.83 161.69 C 167.75 161.66 166.85 162.51 166.82 163.59 Z M 166.79 164.46 L 166.77 165.34 C 166.75 166.42 167.61 167.31 168.69 167.34 C 169.77 167.36 170.66 166.50 170.69 165.42 L 170.71 164.55 C 170.73 163.47 169.87 162.57 168.79 162.55 C 167.71 162.52 166.82 163.38 166.79 164.46 Z M 166.77 165.34 L 166.76 166.24 C 166.74 167.32 167.60 168.21 168.68 168.23 C 169.76 168.25 170.65 167.39 170.67 166.31 L 170.69 165.41 C 170.71 164.33 169.85 163.44 168.77 163.42 C 167.69 163.40 166.79 164.26 166.77 165.34 Z M 166.76 166.24 L 166.75 167.16 C 166.73 168.24 167.59 169.13 168.68 169.14 C 169.76 169.16 170.64 168.29 170.66 167.21 L 170.67 166.30 C 170.69 165.22 169.82 164.33 168.74 164.31 C 167.66 164.30 166.77 165.16 166.76 166.24 Z M 166.75 167.16 L 166.74 168.10 C 166.72 169.18 167.59 170.07 168.67 170.08 C 169.75 170.09 170.64 169.22 170.65 168.14 L 170.66 167.21 C 170.67 166.12 169.80 165.24 168.72 165.23 C 167.64 165.22 166.76 166.08 166.75 167.16 Z M 166.74 168.11 L 166.73 169.07 C 166.72 170.15 167.59 171.03 168.67 171.04 C 169.75 171.05 170.63 170.18 170.64 169.10 L 170.65 168.14 C 170.66 167.06 169.79 166.17 168.71 166.16 C 167.63 166.16 166.74 167.03 166.74 168.11 Z M 166.73 169.08 L 166.72 170.07 C 166.72 171.15 167.59 172.03 168.67 172.04 C 169.75 172.05 170.63 171.17 170.64 170.09 L 170.64 169.10 C 170.65 168.02 169.78 167.14 168.70 167.13 C 167.61 167.12 166.73 167.99 166.73 169.08 Z M 166.72 170.08 L 166.72 171.11 C 166.72 172.19 167.59 173.07 168.67 173.07 C 169.75 173.08 170.63 172.20 170.63 171.12 L 170.64 170.09 C 170.64 169.01 169.77 168.13 168.69 168.13 C 167.61 168.12 166.73 169.00 166.72 170.08 Z M 166.72 171.11 L 166.72 172.18 C 166.71 173.26 167.59 174.14 168.67 174.14 C 169.75 174.14 170.63 173.27 170.63 172.19 L 170.63 171.12 C 170.63 170.04 169.76 169.16 168.68 169.16 C 167.60 169.16 166.72 170.03 166.72 171.11 Z M 166.72 172.18 L 166.72 173.30 C 166.71 174.38 167.59 175.25 168.67 175.26 C 169.75 175.26 170.63 174.38 170.63 173.30 L 170.63 172.19 C 170.63 171.11 169.76 170.23 168.68 170.23 C 167.59 170.23 166.72 171.10 166.72 172.18 Z M 166.72 173.30 L 166.72 174.46 C 166.71 175.54 167.59 176.41 168.67 176.41 C 169.75 176.41 170.63 175.54 170.63 174.46 L 170.63 173.30 C 170.63 172.22 169.75 171.34 168.67 171.34 C 167.59 171.34 166.72 172.22 166.72 173.30 Z M 166.72 174.46 L 166.72 175.67 C 166.72 176.75 167.59 177.62 168.67 177.62 C 169.75 177.62 170.63 176.75 170.63 175.67 L 170.63 174.46 C 170.63 173.38 169.75 172.50 168.67 172.50 C 167.59 172.50 166.72 173.38 166.72 174.46 Z M 166.72 175.67 L 166.72 176.61 C 166.72 177.69 167.59 178.57 168.67 178.57 C 169.75 178.57 170.63 177.69 170.63 176.61 L 170.63 175.67 C 170.63 174.59 169.75 173.71 168.67 173.71 C 167.59 173.71 166.72 174.59 166.72 175.67 Z M 166.72 176.61 L 166.72 177.56 C 166.72 178.64 167.59 179.51 168.67 179.51 C 169.75 179.51 170.63 178.64 170.63 177.56 L 170.63 176.61 C 170.63 175.53 169.75 174.66 168.67 174.66 C 167.59 174.66 166.72 175.53 166.72 176.61 Z M 166.72 177.56 L 166.72 178.52 C 166.72 179.60 167.59 180.48 168.67 180.48 C 169.75 180.48 170.63 179.60 170.63 178.52 L 170.63 177.56 C 170.63 176.48 169.75 175.60 168.67 175.60 C 167.59 175.60 166.72 176.48 166.72 177.56 Z M 166.72 178.52 L 166.72 179.51 C 166.72 180.59 167.60 181.46 168.67 181.46 C 169.75 181.46 170.63 180.59 170.63 179.51 L 170.63 178.52 C 170.63 177.44 169.75 176.57 168.67 176.57 C 167.59 176.57 166.72 177.44 166.72 178.52 Z M 166.72 179.51 L 166.72 180.51 C 166.72 181.59 167.60 182.47 168.68 182.46 C 169.76 182.46 170.63 181.59 170.63 180.51 L 170.63 179.51 C 170.63 178.43 169.75 177.55 168.67 177.55 C 167.59 177.55 166.72 178.43 166.72 179.51 Z M 166.72 180.51 L 166.72 181.53 C 166.72 182.61 167.60 183.48 168.68 183.48 C 169.76 183.48 170.63 182.60 170.63 181.52 L 170.63 180.51 C 170.63 179.43 169.75 178.55 168.67 178.56 C 167.59 178.56 166.72 179.43 166.72 180.51 Z M 166.72 181.53 L 166.73 182.56 C 166.73 183.63 167.61 184.51 168.68 184.50 C 169.76 184.50 170.64 183.62 170.63 182.55 L 170.63 181.52 C 170.63 180.44 169.75 179.57 168.67 179.57 C 167.59 179.57 166.72 180.45 166.72 181.53 Z M 166.73 182.56 L 166.73 183.59 C 166.73 184.67 167.61 185.54 168.69 185.54 C 169.77 185.53 170.64 184.66 170.64 183.58 L 170.63 182.54 C 170.63 181.46 169.75 180.59 168.67 180.60 C 167.59 180.60 166.72 181.48 166.73 182.56 Z M 166.73 183.59 L 166.74 184.63 C 166.74 185.71 167.62 186.58 168.70 186.57 C 169.78 186.57 170.65 185.69 170.64 184.61 L 170.64 183.57 C 170.63 182.50 169.75 181.63 168.67 181.63 C 167.60 181.64 166.73 182.51 166.73 183.59 Z M 166.74 184.63 L 166.74 185.67 C 166.75 186.75 167.63 187.62 168.71 187.61 C 169.78 187.60 170.65 186.73 170.65 185.65 L 170.64 184.61 C 170.63 183.53 169.75 182.66 168.68 182.67 C 167.60 182.67 166.73 183.55 166.74 184.63 Z M 166.74 185.67 L 166.75 186.71 C 166.76 187.79 167.64 188.65 168.71 188.65 C 169.79 188.64 170.66 187.76 170.65 186.68 L 170.65 185.64 C 170.64 184.57 169.76 183.70 168.68 183.71 C 167.60 183.71 166.73 184.59 166.74 185.67 Z M 166.75 186.71 L 166.76 187.74 C 166.77 188.82 167.65 189.69 168.73 189.68 C 169.80 189.67 170.67 188.79 170.66 187.71 L 170.65 186.68 C 170.64 185.60 169.76 184.73 168.68 184.74 C 167.61 184.75 166.74 185.63 166.75 186.71 Z M 166.76 187.74 L 166.77 188.77 C 166.78 189.84 167.66 190.71 168.74 190.70 C 169.82 190.69 170.68 189.80 170.67 188.73 L 170.66 187.71 C 170.65 186.63 169.77 185.76 168.69 185.77 C 167.61 185.78 166.75 186.67 166.76 187.74 Z M 166.77 188.77 L 166.78 189.78 C 166.80 190.86 167.68 191.72 168.76 191.71 C 169.83 191.70 170.70 190.81 170.68 189.73 L 170.67 188.72 C 170.66 187.65 169.77 186.78 168.70 186.80 C 167.62 186.81 166.76 187.69 166.77 188.77 Z M 166.78 189.79 L 166.80 190.78 C 166.81 191.86 167.70 192.72 168.77 192.70 C 169.85 192.69 170.71 191.80 170.70 190.73 L 170.68 189.73 C 170.67 188.65 169.78 187.79 168.71 187.81 C 167.63 187.82 166.77 188.71 166.78 189.79 Z M 166.80 190.79 L 166.81 191.76 C 166.83 192.84 167.72 193.70 168.79 193.68 C 169.87 193.66 170.73 192.78 170.71 191.70 L 170.70 190.72 C 170.68 189.65 169.79 188.79 168.71 188.80 C 167.64 188.82 166.78 189.71 166.80 190.79 Z M 166.81 191.77 L 166.83 192.73 C 166.85 193.80 167.74 194.66 168.82 194.64 C 169.89 194.62 170.75 193.73 170.73 192.65 L 170.71 191.70 C 170.69 190.62 169.80 189.76 168.73 189.78 C 167.65 189.80 166.79 190.69 166.81 191.77 Z M 166.83 192.73 L 166.86 193.88 C 166.88 194.96 167.77 195.81 168.85 195.79 C 169.93 195.76 170.78 194.87 170.75 193.80 L 170.73 192.65 C 170.70 191.57 169.81 190.72 168.74 190.74 C 167.66 190.77 166.81 191.66 166.83 192.73 Z M 166.86 193.89 L 166.89 195.03 C 166.92 196.10 167.82 196.95 168.89 196.92 C 169.96 196.89 170.81 195.99 170.78 194.92 L 170.75 193.79 C 170.72 192.71 169.83 191.87 168.75 191.90 C 167.68 191.93 166.83 192.82 166.86 193.89 Z M 166.90 195.04 L 166.93 196.13 C 166.97 197.21 167.86 198.05 168.94 198.01 C 170.01 197.98 170.85 197.08 170.81 196.01 L 170.78 194.91 C 170.74 193.84 169.85 193.00 168.77 193.03 C 167.70 193.07 166.86 193.96 166.90 195.04 Z M 166.93 196.15 L 166.98 197.21 C 167.02 198.28 167.92 199.12 168.99 199.08 C 170.06 199.03 170.90 198.13 170.85 197.06 L 170.81 195.99 C 170.77 194.92 169.87 194.09 168.80 194.13 C 167.73 194.17 166.89 195.08 166.93 196.15 Z M 166.98 197.23 L 167.03 198.27 C 167.08 199.34 167.99 200.16 169.06 200.11 C 170.13 200.06 170.95 199.15 170.90 198.08 L 170.85 197.04 C 170.80 195.98 169.89 195.15 168.82 195.20 C 167.75 195.25 166.93 196.16 166.98 197.23 Z M 167.03 198.28 L 167.09 199.30 C 167.15 200.36 168.07 201.18 169.13 201.12 C 170.20 201.06 171.02 200.14 170.95 199.08 L 170.90 198.06 C 170.84 197.00 169.92 196.18 168.85 196.24 C 167.79 196.30 166.97 197.22 167.03 198.28 Z M 167.09 199.32 L 167.16 200.30 C 167.23 201.37 168.15 202.17 169.22 202.10 C 170.28 202.03 171.09 201.11 171.02 200.04 L 170.95 199.06 C 170.88 197.99 169.96 197.19 168.89 197.26 C 167.83 197.33 167.02 198.25 167.09 199.32 Z M 167.17 200.33 L 167.24 201.29 C 167.33 202.35 168.26 203.15 169.32 203.06 C 170.38 202.98 171.17 202.05 171.09 200.98 L 171.01 200.02 C 170.93 198.96 170.00 198.16 168.94 198.25 C 167.87 198.33 167.08 199.26 167.17 200.33 Z M 167.25 201.32 L 167.33 202.26 C 167.43 203.32 168.37 204.10 169.43 204.00 C 170.49 203.90 171.27 202.96 171.17 201.90 L 171.08 200.96 C 170.99 199.90 170.05 199.12 168.99 199.22 C 167.93 199.32 167.15 200.26 167.25 201.32 Z M 167.34 202.29 L 167.44 203.21 C 167.55 204.27 168.50 205.04 169.56 204.92 C 170.62 204.81 171.38 203.86 171.27 202.80 L 171.17 201.88 C 171.05 200.82 170.10 200.05 169.05 200.17 C 167.99 200.28 167.23 201.23 167.34 202.29 Z M 167.45 203.24 L 167.56 204.16 C 167.69 205.21 168.65 205.96 169.70 205.83 C 170.75 205.70 171.50 204.74 171.37 203.68 L 171.26 202.77 C 171.13 201.72 170.17 200.97 169.12 201.10 C 168.06 201.23 167.32 202.19 167.45 203.24 Z M 167.57 204.19 L 167.69 205.09 C 167.84 206.14 168.81 206.87 169.86 206.72 C 170.91 206.57 171.64 205.60 171.49 204.55 L 171.37 203.65 C 171.22 202.60 170.25 201.87 169.20 202.02 C 168.15 202.17 167.42 203.14 167.57 204.19 Z M 167.70 205.12 L 167.84 206.01 C 168.01 207.05 168.99 207.77 170.03 207.60 C 171.08 207.43 171.79 206.45 171.63 205.41 L 171.49 204.52 C 171.32 203.47 170.34 202.76 169.29 202.93 C 168.25 203.09 167.53 204.07 167.70 205.12 Z M 167.85 206.04 L 168.02 206.97 C 168.20 208.01 169.20 208.71 170.24 208.52 C 171.28 208.34 171.97 207.34 171.78 206.30 L 171.62 205.37 C 171.43 204.33 170.44 203.64 169.40 203.82 C 168.36 204.01 167.66 205.00 167.85 206.04 Z M 168.03 207.01 L 168.23 208.02 C 168.44 209.06 169.44 209.73 170.48 209.52 C 171.51 209.31 172.18 208.31 171.97 207.27 L 171.77 206.26 C 171.56 205.23 170.56 204.56 169.52 204.76 C 168.49 204.97 167.82 205.98 168.03 207.01 Z M 168.24 208.06 L 168.47 209.06 C 168.69 210.09 169.71 210.74 170.74 210.51 C 171.77 210.28 172.42 209.26 172.19 208.23 L 171.96 207.23 C 171.73 206.20 170.71 205.56 169.69 205.79 C 168.66 206.02 168.01 207.04 168.24 208.06 Z M 168.48 209.10 L 168.72 210.09 C 168.97 211.11 170.00 211.73 171.02 211.48 C 172.04 211.23 172.67 210.20 172.42 209.18 L 172.17 208.19 C 171.92 207.17 170.89 206.55 169.87 206.80 C 168.85 207.05 168.23 208.08 168.48 209.10 Z M 168.74 210.13 L 169.00 211.11 C 169.27 212.12 170.31 212.72 171.33 212.45 C 172.34 212.17 172.94 211.13 172.67 210.12 L 172.40 209.14 C 172.13 208.13 171.09 207.53 170.08 207.80 C 169.06 208.07 168.46 209.12 168.74 210.13 Z M 169.01 211.14 L 169.30 212.11 C 169.59 213.11 170.64 213.69 171.65 213.40 C 172.65 213.10 173.23 212.05 172.93 211.05 L 172.65 210.08 C 172.36 209.08 171.31 208.50 170.30 208.79 C 169.30 209.09 168.72 210.14 169.01 211.14 Z M 169.31 212.15 L 169.61 213.10 C 169.93 214.10 170.99 214.65 171.98 214.34 C 172.98 214.02 173.53 212.96 173.22 211.96 L 172.92 211.01 C 172.60 210.01 171.54 209.46 170.55 209.78 C 169.55 210.09 169.00 211.15 169.31 212.15 Z M 169.63 213.14 L 169.95 214.08 C 170.28 215.07 171.35 215.60 172.34 215.26 C 173.33 214.93 173.86 213.86 173.52 212.87 L 173.20 211.93 C 172.87 210.94 171.80 210.41 170.81 210.75 C 169.82 211.08 169.30 212.15 169.63 213.14 Z M 169.97 214.11 L 170.30 215.04 C 170.65 216.02 171.73 216.53 172.71 216.17 C 173.69 215.82 174.19 214.74 173.84 213.76 L 173.50 212.84 C 173.15 211.86 172.07 211.35 171.10 211.71 C 170.12 212.06 169.61 213.14 169.97 214.11 Z M 170.32 215.08 L 170.67 215.99 C 171.04 216.96 172.13 217.45 173.10 217.07 C 174.07 216.70 174.55 215.61 174.18 214.65 L 173.82 213.73 C 173.45 212.76 172.36 212.28 171.40 212.65 C 170.43 213.02 169.95 214.11 170.32 215.08 Z M 170.69 216.03 L 171.06 216.93 C 171.45 217.89 172.54 218.35 173.50 217.96 C 174.46 217.57 174.92 216.47 174.53 215.51 L 174.16 214.61 C 173.77 213.65 172.67 213.19 171.72 213.59 C 170.76 213.98 170.30 215.07 170.69 216.03 Z M 171.08 216.96 L 171.46 217.85 C 171.87 218.80 172.97 219.24 173.92 218.83 C 174.87 218.42 175.30 217.32 174.89 216.37 L 174.51 215.48 C 174.10 214.53 173.00 214.10 172.05 214.51 C 171.10 214.92 170.67 216.02 171.08 216.96 Z M 171.48 217.89 L 171.91 218.84 C 172.34 219.77 173.45 220.18 174.38 219.76 C 175.32 219.33 175.73 218.22 175.31 217.29 L 174.87 216.34 C 174.44 215.40 173.34 214.99 172.40 215.42 C 171.46 215.84 171.05 216.95 171.48 217.89 Z M 171.94 218.87 L 172.40 219.84 C 172.85 220.76 173.96 221.15 174.89 220.70 C 175.81 220.25 176.20 219.14 175.75 218.21 L 175.28 217.25 C 174.84 216.33 173.72 215.94 172.80 216.39 C 171.88 216.83 171.49 217.95 171.94 218.87 Z M 172.43 219.87 L 172.91 220.81 C 173.38 221.72 174.50 222.08 175.41 221.62 C 176.32 221.15 176.68 220.03 176.21 219.12 L 175.73 218.18 C 175.26 217.27 174.14 216.91 173.23 217.38 C 172.32 217.84 171.96 218.96 172.43 219.87 Z M 172.94 220.85 L 173.44 221.77 C 173.92 222.66 175.04 222.99 175.94 222.51 C 176.84 222.02 177.17 220.90 176.68 220.00 L 176.18 219.09 C 175.70 218.19 174.57 217.86 173.68 218.34 C 172.78 218.83 172.45 219.95 172.94 220.85 Z M 173.46 221.80 L 173.98 222.69 C 174.48 223.57 175.61 223.88 176.49 223.37 C 177.37 222.86 177.67 221.74 177.17 220.86 L 176.65 219.97 C 176.15 219.09 175.02 218.78 174.14 219.29 C 173.26 219.80 172.96 220.92 173.46 221.80 Z M 174.01 222.73 L 174.53 223.59 C 175.06 224.46 176.19 224.73 177.05 224.20 C 177.92 223.67 178.19 222.54 177.66 221.68 L 177.14 220.82 C 176.61 219.95 175.48 219.68 174.62 220.21 C 173.75 220.74 173.48 221.87 174.01 222.73 Z M 174.56 223.63 L 175.10 224.46 C 175.65 225.31 176.78 225.55 177.63 225.00 C 178.48 224.45 178.72 223.32 178.17 222.47 L 177.63 221.64 C 177.08 220.79 175.95 220.55 175.10 221.10 C 174.26 221.65 174.01 222.78 174.56 223.63 Z M 175.14 224.50 L 175.68 225.29 C 176.25 226.12 177.39 226.33 178.22 225.76 C 179.05 225.19 179.25 224.05 178.68 223.22 L 178.13 222.43 C 177.56 221.60 176.43 221.39 175.60 221.96 C 174.77 222.54 174.56 223.67 175.14 224.50 Z M 175.72 225.33 L 176.28 226.09 C 176.87 226.90 178.01 227.07 178.82 226.48 C 179.62 225.89 179.80 224.75 179.20 223.94 L 178.65 223.18 C 178.05 222.38 176.92 222.20 176.11 222.80 C 175.30 223.39 175.13 224.53 175.72 225.33 Z M 176.32 226.14 L 176.88 226.85 C 177.50 227.64 178.64 227.78 179.42 227.16 C 180.21 226.54 180.34 225.40 179.73 224.62 L 179.16 223.90 C 178.54 223.11 177.41 222.98 176.62 223.60 C 175.84 224.21 175.70 225.35 176.32 226.14 Z M 176.93 226.90 L 177.55 227.63 C 178.19 228.39 179.33 228.49 180.09 227.84 C 180.85 227.20 180.94 226.06 180.30 225.30 L 179.68 224.57 C 179.04 223.81 177.90 223.72 177.14 224.36 C 176.38 225.00 176.29 226.14 176.93 226.90 Z M 177.61 227.69 L 178.35 228.49 C 179.02 229.21 180.16 229.25 180.89 228.58 C 181.61 227.91 181.65 226.77 180.98 226.05 L 180.24 225.25 C 179.57 224.52 178.43 224.48 177.71 225.15 C 176.98 225.83 176.94 226.96 177.61 227.69 Z M 178.42 228.54 L 179.17 229.28 C 179.88 229.96 181.01 229.95 181.70 229.24 C 182.38 228.53 182.37 227.40 181.66 226.72 L 180.91 225.99 C 180.20 225.30 179.07 225.32 178.39 226.02 C 177.70 226.73 177.72 227.86 178.42 228.54 Z M 179.25 229.34 L 180.02 230.00 C 180.76 230.65 181.88 230.57 182.52 229.83 C 183.17 229.09 183.09 227.97 182.35 227.32 L 181.58 226.66 C 180.84 226.01 179.72 226.09 179.08 226.83 C 178.44 227.57 178.51 228.69 179.25 229.34 Z M 180.10 230.06 L 180.89 230.66 C 181.66 231.26 182.77 231.12 183.36 230.35 C 183.96 229.58 183.82 228.47 183.05 227.87 L 182.26 227.27 C 181.49 226.67 180.38 226.81 179.79 227.58 C 179.19 228.35 179.33 229.46 180.10 230.06 Z M 180.98 230.72 L 181.78 231.26 C 182.58 231.81 183.67 231.60 184.22 230.80 C 184.76 230.00 184.56 228.91 183.76 228.36 L 182.96 227.82 C 182.15 227.27 181.06 227.48 180.52 228.28 C 179.97 229.08 180.17 230.17 180.98 230.72 Z M 181.87 231.31 L 182.69 231.80 C 183.52 232.30 184.59 232.03 185.09 231.20 C 185.58 230.37 185.31 229.30 184.48 228.80 L 183.66 228.31 C 182.83 227.82 181.76 228.09 181.27 228.92 C 180.77 229.75 181.04 230.82 181.87 231.31 Z M 182.79 231.85 L 183.63 232.28 C 184.48 232.72 185.53 232.39 185.97 231.54 C 186.41 230.68 186.08 229.63 185.22 229.19 L 184.38 228.76 C 183.53 228.32 182.48 228.65 182.04 229.51 C 181.60 230.36 181.94 231.41 182.79 231.85 Z M 183.73 232.32 L 184.58 232.70 C 185.46 233.08 186.48 232.69 186.86 231.82 C 187.25 230.94 186.86 229.92 185.98 229.54 L 185.13 229.16 C 184.25 228.77 183.23 229.17 182.85 230.04 C 182.46 230.91 182.85 231.93 183.73 232.32 Z M 184.68 232.73 L 185.52 233.04 C 186.41 233.38 187.40 232.93 187.73 232.04 C 188.07 231.15 187.62 230.16 186.73 229.83 L 185.89 229.51 C 185.00 229.17 184.01 229.62 183.68 230.51 C 183.34 231.40 183.79 232.39 184.68 232.73 Z M 185.61 233.06 L 186.48 233.34 C 187.38 233.62 188.34 233.12 188.62 232.22 C 188.91 231.32 188.41 230.36 187.51 230.08 L 186.64 229.80 C 185.74 229.52 184.78 230.02 184.49 230.92 C 184.21 231.82 184.71 232.78 185.61 233.06 Z M 186.56 233.35 L 187.46 233.59 C 188.37 233.83 189.30 233.28 189.54 232.37 C 189.78 231.46 189.23 230.53 188.32 230.30 L 187.42 230.06 C 186.51 229.83 185.58 230.37 185.35 231.28 C 185.11 232.19 185.65 233.12 186.56 233.35 Z M 187.55 233.60 L 188.48 233.80 C 189.40 233.99 190.29 233.40 190.49 232.49 C 190.68 231.57 190.09 230.67 189.18 230.48 L 188.24 230.29 C 187.33 230.09 186.43 230.68 186.24 231.60 C 186.05 232.51 186.63 233.41 187.55 233.60 Z M 188.56 233.80 L 189.54 233.96 C 190.45 234.11 191.32 233.49 191.47 232.57 C 191.62 231.65 191.00 230.79 190.08 230.64 L 189.10 230.48 C 188.19 230.33 187.32 230.95 187.17 231.87 C 187.02 232.78 187.64 233.65 188.56 233.80 Z M 189.60 233.96 L 190.63 234.09 C 191.55 234.20 192.38 233.55 192.50 232.63 C 192.61 231.71 191.96 230.88 191.04 230.76 L 190.01 230.64 C 189.10 230.52 188.26 231.18 188.15 232.09 C 188.03 233.01 188.69 233.85 189.60 233.96 Z M 190.69 234.09 L 191.76 234.18 C 192.68 234.26 193.49 233.58 193.57 232.67 C 193.65 231.75 192.97 230.94 192.06 230.86 L 190.98 230.77 C 190.06 230.69 189.26 231.36 189.18 232.28 C 189.09 233.20 189.77 234.00 190.69 234.09 Z M 191.81 234.17 L 192.95 234.24 C 193.86 234.29 194.64 233.59 194.70 232.68 C 194.75 231.77 194.05 230.98 193.14 230.93 L 192.01 230.87 C 191.09 230.81 190.31 231.51 190.26 232.43 C 190.20 233.34 190.90 234.12 191.81 234.17 Z M 192.99 234.23 L 194.04 234.27 C 194.95 234.30 195.72 233.58 195.75 232.67 C 195.77 231.76 195.06 231.00 194.15 230.97 L 193.10 230.94 C 192.19 230.91 191.42 231.62 191.39 232.53 C 191.36 233.44 192.08 234.20 192.99 234.23 Z M 194.08 234.26 L 195.06 234.28 C 195.96 234.29 196.71 233.56 196.72 232.65 C 196.73 231.75 196.00 231.00 195.10 230.99 L 194.12 230.98 C 193.21 230.97 192.47 231.69 192.45 232.60 C 192.44 233.51 193.17 234.25 194.08 234.26 Z M 195.09 234.27 L 196.09 234.26 C 197.00 234.26 197.72 233.52 197.72 232.62 C 197.71 231.71 196.98 230.98 196.07 230.99 L 195.07 231.00 C 194.16 231.00 193.43 231.74 193.44 232.64 C 193.44 233.55 194.18 234.28 195.09 234.27 Z M 196.12 234.26 L 197.15 234.23 C 198.05 234.21 198.76 233.46 198.74 232.56 C 198.71 231.66 197.97 230.95 197.06 230.97 L 196.04 231.00 C 195.14 231.02 194.43 231.77 194.45 232.67 C 194.47 233.57 195.22 234.28 196.12 234.26 Z M 197.18 234.23 L 198.21 234.18 C 199.11 234.14 199.80 233.38 199.76 232.48 C 199.72 231.59 198.96 230.89 198.07 230.93 L 197.03 230.98 C 196.14 231.02 195.44 231.78 195.48 232.67 C 195.52 233.57 196.28 234.27 197.18 234.23 Z M 198.24 234.17 L 199.28 234.11 C 200.17 234.05 200.85 233.28 200.79 232.38 C 200.73 231.49 199.96 230.81 199.07 230.87 L 198.03 230.94 C 197.14 231.00 196.46 231.77 196.52 232.66 C 196.58 233.55 197.35 234.23 198.24 234.17 Z M 199.31 234.10 L 200.34 234.01 C 201.23 233.93 201.89 233.15 201.81 232.26 C 201.74 231.37 200.95 230.71 200.06 230.79 L 199.03 230.88 C 198.15 230.96 197.49 231.74 197.56 232.63 C 197.64 233.52 198.43 234.18 199.31 234.10 Z M 200.38 234.00 L 201.40 233.89 C 202.28 233.79 202.92 232.99 202.82 232.11 C 202.72 231.22 201.92 230.59 201.04 230.68 L 200.03 230.80 C 199.14 230.90 198.50 231.69 198.60 232.58 C 198.70 233.46 199.50 234.10 200.38 234.00 Z M 201.44 233.88 L 202.43 233.74 C 203.31 233.62 203.92 232.81 203.80 231.93 C 203.68 231.05 202.87 230.44 201.99 230.56 L 201.00 230.70 C 200.12 230.82 199.51 231.63 199.63 232.51 C 199.75 233.39 200.56 234.00 201.44 233.88 Z M 202.48 233.73 L 203.44 233.56 C 204.31 233.41 204.90 232.59 204.75 231.72 C 204.60 230.85 203.77 230.26 202.90 230.41 L 201.94 230.57 C 201.07 230.72 200.48 231.55 200.63 232.42 C 200.78 233.29 201.61 233.87 202.48 233.73 Z M 203.49 233.55 L 204.41 233.36 C 205.28 233.18 205.83 232.34 205.65 231.47 C 205.48 230.61 204.63 230.05 203.77 230.23 L 202.85 230.42 C 201.99 230.60 201.43 231.44 201.61 232.31 C 201.79 233.17 202.63 233.72 203.49 233.55 Z M 204.48 233.34 L 205.52 233.07 C 206.37 232.86 206.89 231.99 206.67 231.14 C 206.46 230.29 205.59 229.77 204.74 229.99 L 203.70 230.25 C 202.85 230.47 202.33 231.33 202.55 232.19 C 202.77 233.04 203.63 233.55 204.48 233.34 Z M 205.60 233.05 L 206.66 232.72 C 207.49 232.46 207.96 231.57 207.70 230.73 C 207.44 229.90 206.55 229.43 205.71 229.69 L 204.66 230.02 C 203.82 230.28 203.36 231.17 203.62 232.00 C 203.88 232.84 204.77 233.31 205.60 233.05 Z M 206.73 232.69 L 207.72 232.32 C 208.54 232.02 208.96 231.11 208.65 230.29 C 208.35 229.47 207.44 229.05 206.62 229.36 L 205.63 229.72 C 204.81 230.02 204.40 230.93 204.70 231.75 C 205.00 232.57 205.91 232.99 206.73 232.69 Z M 207.79 232.29 L 208.72 231.90 C 209.52 231.55 209.89 230.62 209.55 229.82 C 209.21 229.02 208.28 228.65 207.47 228.99 L 206.55 229.39 C 205.75 229.73 205.37 230.66 205.72 231.46 C 206.06 232.26 206.99 232.64 207.79 232.29 Z M 208.78 231.86 L 209.66 231.44 C 210.44 231.06 210.77 230.12 210.40 229.34 C 210.02 228.55 209.08 228.22 208.29 228.60 L 207.41 229.02 C 206.63 229.40 206.30 230.34 206.68 231.13 C 207.05 231.91 208.00 232.24 208.78 231.86 Z M 209.71 231.41 L 210.55 230.97 C 211.32 230.56 211.61 229.61 211.21 228.84 C 210.80 228.07 209.85 227.78 209.08 228.19 L 208.24 228.63 C 207.47 229.03 207.18 229.99 207.58 230.75 C 207.99 231.52 208.94 231.82 209.71 231.41 Z M 210.59 230.94 L 211.40 230.48 C 212.16 230.06 212.42 229.10 212.00 228.35 C 211.57 227.59 210.62 227.32 209.86 227.75 L 209.05 228.21 C 208.29 228.64 208.02 229.59 208.45 230.35 C 208.88 231.10 209.83 231.37 210.59 230.94 Z M 211.43 230.47 L 212.22 230.00 C 212.97 229.56 213.22 228.60 212.78 227.85 C 212.34 227.11 211.38 226.86 210.63 227.30 L 209.84 227.77 C 209.09 228.21 208.84 229.17 209.28 229.91 C 209.72 230.66 210.68 230.90 211.43 230.47 Z M 212.23 229.99 L 212.80 229.65 C 213.54 229.20 213.78 228.24 213.34 227.50 C 212.89 226.76 211.94 226.52 211.19 226.97 L 210.63 227.31 C 209.88 227.75 209.64 228.71 210.09 229.45 C 210.53 230.19 211.49 230.43 212.23 229.99 Z"
      fill="black"
      fill-rule="nonzero" /></svg>