<svg xmlns="http://www.w3.org/2000/svg" width="300" height="300" viewBox="0 0 300 300">
<path d="M 158.74 76.59 L 158.10 75.43 C 157.60 74.52 156.46 74.18 155.55 74.68 C 154.64 75.18 154.31 76.33 154.81 77.24 L 155.45 78.40 C 155.95 79.31 157.09 79.64 158.00 79.14 C 158.91 78.64 159.24 77.50 158.74 76.59 Z M 158.11 75.38 L 157.48 74.28 C 156.95 73.37 155.78 73.05 154.87 73.58 C 153.96 74.11 153.64 75.28 154.17 76.19 L 154.80 77.28 C 155.33 78.20 156.50 78.51 157.41 77.98 C 158.32 77.46 158.64 76.29 158.11 75.38 Z M 157.46 74.19 L 156.84 73.23 C 156.26 72.33 155.06 72.07 154.16 72.65 C 153.26 73.23 153.00 74.43 153.58 75.33 L 154.19 76.29 C 154.77 77.19 155.97 77.45 156.88 76.87 C 157.78 76.29 158.04 75.09 157.46 74.19 Z M 156.76 73.06 L 156.17 72.31 C 155.49 71.46 154.25 71.31 153.40 71.99 C 152.54 72.66 152.40 73.90 153.07 74.76 L 153.66 75.50 C 154.34 76.36 155.58 76.50 156.43 75.83 C 157.29 75.15 157.43 73.91 156.76 73.06 Z M 155.91 72.00 L 155.35 71.53 C 154.50 70.82 153.24 70.94 152.53 71.78 C 151.82 72.63 151.93 73.89 152.78 74.60 L 153.33 75.07 C 154.18 75.78 155.44 75.67 156.15 74.82 C 156.87 73.97 156.75 72.71 155.91 72.00 Z M 154.51 71.09 L 154.00 70.97 C 152.90 70.72 151.82 71.41 151.57 72.50 C 151.32 73.60 152.00 74.69 153.10 74.94 L 153.61 75.05 C 154.71 75.30 155.80 74.62 156.05 73.52 C 156.30 72.42 155.61 71.34 154.51 71.09 Z M 152.53 71.18 L 152.12 71.42 C 151.14 71.98 150.80 73.23 151.36 74.21 C 151.92 75.19 153.17 75.53 154.15 74.97 L 154.56 74.73 C 155.54 74.17 155.88 72.92 155.32 71.94 C 154.76 70.96 153.51 70.62 152.53 71.18 Z M 151.48 72.01 L 151.10 72.54 C 150.45 73.45 150.67 74.72 151.58 75.37 C 152.49 76.02 153.76 75.81 154.41 74.89 L 154.79 74.37 C 155.44 73.46 155.22 72.19 154.31 71.54 C 153.40 70.89 152.13 71.10 151.48 72.01 Z M 150.93 72.88 L 150.58 73.65 C 150.11 74.66 150.56 75.85 151.57 76.31 C 152.58 76.77 153.78 76.33 154.24 75.32 L 154.59 74.55 C 155.05 73.54 154.60 72.35 153.59 71.89 C 152.58 71.42 151.39 71.87 150.93 72.88 Z M 150.52 73.83 L 150.19 74.79 C 149.83 75.83 150.38 76.96 151.42 77.33 C 152.46 77.69 153.60 77.14 153.96 76.10 L 154.29 75.14 C 154.65 74.10 154.10 72.96 153.06 72.60 C 152.02 72.24 150.89 72.79 150.52 73.83 Z M 150.18 74.88 L 149.85 75.99 C 149.54 77.04 150.14 78.14 151.19 78.45 C 152.24 78.75 153.34 78.16 153.64 77.11 L 153.97 76.00 C 154.28 74.95 153.68 73.85 152.63 73.55 C 151.58 73.24 150.49 73.84 150.18 74.88 Z M 149.86 76.04 L 149.53 77.25 C 149.25 78.29 149.87 79.37 150.91 79.65 C 151.96 79.93 153.03 79.31 153.31 78.27 L 153.64 77.06 C 153.92 76.02 153.30 74.94 152.26 74.66 C 151.21 74.38 150.14 74.99 149.86 76.04 Z M 149.55 77.26 L 149.21 78.53 C 148.94 79.56 149.55 80.62 150.59 80.90 C 151.62 81.17 152.69 80.56 152.96 79.52 L 153.30 78.26 C 153.57 77.22 152.95 76.16 151.92 75.88 C 150.88 75.61 149.82 76.23 149.55 77.26 Z M 149.24 78.52 L 148.95 79.55 C 148.67 80.57 149.27 81.63 150.30 81.91 C 151.32 82.19 152.37 81.58 152.65 80.56 L 152.94 79.53 C 153.22 78.51 152.62 77.45 151.59 77.17 C 150.57 76.89 149.52 77.49 149.24 78.52 Z M 148.98 79.53 L 148.72 80.45 C 148.43 81.46 149.01 82.50 150.02 82.79 C 151.02 83.08 152.07 82.50 152.36 81.50 L 152.62 80.58 C 152.91 79.57 152.33 78.53 151.32 78.24 C 150.32 77.95 149.27 78.53 148.98 79.53 Z M 148.75 80.44 L 148.48 81.36 C 148.18 82.35 148.74 83.39 149.73 83.68 C 150.72 83.97 151.75 83.41 152.05 82.43 L 152.32 81.51 C 152.62 80.52 152.06 79.49 151.07 79.19 C 150.09 78.90 149.05 79.46 148.75 80.44 Z M 148.51 81.35 L 148.23 82.28 C 147.93 83.24 148.47 84.27 149.43 84.57 C 150.40 84.87 151.43 84.33 151.73 83.36 L 152.01 82.44 C 152.32 81.47 151.77 80.45 150.81 80.14 C 149.84 79.84 148.81 80.38 148.51 81.35 Z M 148.26 82.27 L 147.96 83.20 C 147.65 84.15 148.17 85.16 149.12 85.47 C 150.07 85.78 151.09 85.25 151.39 84.31 L 151.69 83.37 C 152.00 82.43 151.48 81.41 150.53 81.10 C 149.58 80.80 148.56 81.32 148.26 82.27 Z M 147.99 83.19 L 147.68 84.13 C 147.37 85.06 147.87 86.07 148.80 86.38 C 149.73 86.69 150.74 86.18 151.05 85.25 L 151.36 84.31 C 151.67 83.38 151.17 82.38 150.24 82.07 C 149.31 81.76 148.30 82.26 147.99 83.19 Z M 147.71 84.13 L 147.38 85.08 C 147.07 85.99 147.56 86.98 148.47 87.30 C 149.38 87.61 150.37 87.13 150.69 86.21 L 151.02 85.26 C 151.33 84.35 150.84 83.35 149.93 83.04 C 149.02 82.73 148.02 83.21 147.71 84.13 Z M 147.42 85.07 L 147.07 86.04 C 146.76 86.94 147.23 87.92 148.12 88.23 C 149.02 88.55 150.00 88.08 150.31 87.19 L 150.66 86.22 C 150.97 85.32 150.50 84.34 149.61 84.03 C 148.71 83.71 147.73 84.18 147.42 85.07 Z M 147.11 86.04 L 146.75 87.02 C 146.43 87.90 146.88 88.87 147.76 89.19 C 148.64 89.51 149.61 89.05 149.92 88.18 L 150.28 87.19 C 150.60 86.31 150.15 85.35 149.27 85.03 C 148.39 84.71 147.42 85.16 147.11 86.04 Z M 146.78 87.02 L 146.41 88.03 C 146.09 88.89 146.52 89.84 147.38 90.16 C 148.24 90.48 149.20 90.04 149.52 89.19 L 149.89 88.18 C 150.21 87.32 149.77 86.36 148.91 86.04 C 148.05 85.73 147.10 86.16 146.78 87.02 Z M 146.43 88.03 L 146.09 88.92 C 145.77 89.77 146.19 90.72 147.04 91.04 C 147.89 91.36 148.83 90.93 149.16 90.09 L 149.50 89.19 C 149.82 88.34 149.39 87.39 148.54 87.07 C 147.70 86.75 146.75 87.18 146.43 88.03 Z M 146.10 88.92 L 145.76 89.80 C 145.44 90.64 145.85 91.59 146.70 91.91 C 147.54 92.23 148.48 91.81 148.80 90.97 L 149.14 90.09 C 149.47 89.25 149.05 88.30 148.21 87.98 C 147.37 87.66 146.42 88.08 146.10 88.92 Z M 145.77 89.80 L 145.42 90.69 C 145.09 91.53 145.50 92.47 146.34 92.80 C 147.18 93.12 148.12 92.71 148.45 91.88 L 148.80 90.98 C 149.12 90.14 148.71 89.20 147.87 88.87 C 147.04 88.55 146.09 88.96 145.77 89.80 Z M 145.43 90.69 L 145.07 91.60 C 144.74 92.43 145.15 93.37 145.98 93.70 C 146.81 94.03 147.75 93.62 148.08 92.79 L 148.44 91.88 C 148.77 91.05 148.36 90.11 147.53 89.78 C 146.69 89.45 145.75 89.86 145.43 90.69 Z M 145.07 91.60 L 144.71 92.52 C 144.38 93.35 144.78 94.28 145.61 94.61 C 146.43 94.94 147.37 94.54 147.70 93.71 L 148.07 92.79 C 148.40 91.96 148.00 91.03 147.17 90.70 C 146.34 90.37 145.40 90.77 145.07 91.60 Z M 144.71 92.52 L 144.34 93.45 C 144.01 94.27 144.41 95.21 145.23 95.54 C 146.05 95.87 146.99 95.47 147.32 94.65 L 147.69 93.72 C 148.03 92.89 147.63 91.96 146.80 91.63 C 145.98 91.30 145.05 91.69 144.71 92.52 Z M 144.35 93.45 L 143.97 94.39 C 143.64 95.21 144.03 96.14 144.85 96.47 C 145.67 96.80 146.60 96.41 146.93 95.59 L 147.31 94.65 C 147.64 93.83 147.25 92.90 146.43 92.57 C 145.61 92.23 144.68 92.63 144.35 93.45 Z M 143.97 94.39 L 143.59 95.33 C 143.26 96.15 143.65 97.08 144.46 97.41 C 145.28 97.74 146.21 97.35 146.54 96.54 L 146.92 95.59 C 147.26 94.77 146.86 93.84 146.05 93.51 C 145.24 93.18 144.31 93.57 143.97 94.39 Z M 143.60 95.33 L 143.21 96.29 C 142.87 97.10 143.26 98.02 144.07 98.36 C 144.88 98.69 145.81 98.30 146.14 97.49 L 146.53 96.54 C 146.86 95.72 146.47 94.80 145.66 94.47 C 144.85 94.13 143.93 94.52 143.60 95.33 Z M 143.21 96.29 L 142.82 97.24 C 142.49 98.05 142.87 98.97 143.68 99.31 C 144.49 99.64 145.41 99.25 145.74 98.44 L 146.14 97.49 C 146.47 96.68 146.08 95.76 145.27 95.43 C 144.47 95.09 143.54 95.48 143.21 96.29 Z M 142.83 97.25 L 142.43 98.21 C 142.10 99.01 142.48 99.93 143.29 100.26 C 144.09 100.59 145.01 100.21 145.34 99.40 L 145.74 98.44 C 146.07 97.64 145.68 96.72 144.88 96.39 C 144.08 96.06 143.16 96.44 142.83 97.25 Z M 142.44 98.21 L 142.09 99.06 C 141.76 99.86 142.14 100.77 142.94 101.10 C 143.74 101.43 144.66 101.05 144.99 100.25 L 145.34 99.40 C 145.66 98.60 145.28 97.68 144.48 97.35 C 143.68 97.03 142.77 97.41 142.44 98.21 Z"
      fill="black"
      fill-rule="nonzero" /><path d="M 105.78 126.07 L 104.99 126.67 C 104.23 127.25 104.09 128.33 104.67 129.08 C 105.25 129.84 106.33 129.98 107.08 129.41 L 107.87 128.80 C 108.63 128.23 108.77 127.14 108.19 126.39 C 107.62 125.63 106.54 125.49 105.78 126.07 Z M 104.97 126.67 L 104.19 127.28 C 103.43 127.87 103.29 128.96 103.88 129.72 C 104.47 130.47 105.56 130.61 106.32 130.02 L 107.10 129.41 C 107.86 128.82 108.00 127.73 107.41 126.97 C 106.82 126.21 105.73 126.08 104.97 126.67 Z M 104.15 127.28 L 103.38 127.91 C 102.63 128.52 102.51 129.62 103.12 130.37 C 103.73 131.13 104.83 131.24 105.58 130.64 L 106.36 130.01 C 107.11 129.40 107.23 128.30 106.62 127.55 C 106.01 126.79 104.90 126.68 104.15 127.28 Z M 103.33 127.93 L 102.58 128.57 C 101.84 129.20 101.75 130.32 102.38 131.06 C 103.02 131.81 104.13 131.90 104.88 131.26 L 105.63 130.62 C 106.37 129.98 106.46 128.87 105.83 128.12 C 105.19 127.38 104.08 127.29 103.33 127.93 Z M 102.52 128.60 L 101.79 129.27 C 101.06 129.94 101.02 131.07 101.68 131.79 C 102.35 132.52 103.48 132.57 104.20 131.90 L 104.93 131.23 C 105.66 130.56 105.71 129.43 105.04 128.71 C 104.37 127.98 103.25 127.93 102.52 128.60 Z M 101.72 129.32 L 101.02 130.02 C 100.32 130.73 100.32 131.87 101.03 132.57 C 101.73 133.27 102.87 133.27 103.57 132.56 L 104.27 131.86 C 104.97 131.15 104.97 130.01 104.27 129.31 C 103.56 128.61 102.42 128.61 101.72 129.32 Z M 100.94 130.08 L 100.27 130.83 C 99.61 131.58 99.67 132.73 100.42 133.39 C 101.17 134.06 102.32 134.00 102.98 133.25 L 103.65 132.50 C 104.32 131.75 104.25 130.61 103.50 129.94 C 102.76 129.27 101.61 129.33 100.94 130.08 Z M 100.19 130.91 L 99.56 131.70 C 98.94 132.49 99.08 133.65 99.87 134.27 C 100.66 134.90 101.82 134.76 102.44 133.97 L 103.07 133.17 C 103.69 132.38 103.56 131.23 102.76 130.60 C 101.97 129.97 100.82 130.11 100.19 130.91 Z M 99.48 131.79 L 98.91 132.62 C 98.34 133.46 98.55 134.61 99.39 135.19 C 100.24 135.76 101.38 135.55 101.96 134.70 L 102.53 133.87 C 103.10 133.03 102.89 131.88 102.04 131.31 C 101.20 130.73 100.05 130.95 99.48 131.79 Z M 98.84 132.72 L 98.36 133.54 C 97.84 134.42 98.13 135.56 99.01 136.08 C 99.89 136.60 101.03 136.30 101.55 135.42 L 102.03 134.61 C 102.55 133.72 102.26 132.59 101.38 132.07 C 100.50 131.55 99.36 131.84 98.84 132.72 Z M 98.30 133.63 L 97.86 134.49 C 97.39 135.40 97.75 136.52 98.66 136.99 C 99.58 137.46 100.70 137.10 101.17 136.19 L 101.61 135.33 C 102.08 134.42 101.72 133.30 100.80 132.83 C 99.89 132.36 98.77 132.72 98.30 133.63 Z M 97.82 134.57 L 97.41 135.47 C 96.99 136.40 97.41 137.51 98.35 137.93 C 99.28 138.35 100.39 137.93 100.81 137.00 L 101.21 136.10 C 101.63 135.16 101.22 134.06 100.28 133.64 C 99.34 133.22 98.24 133.63 97.82 134.57 Z M 97.38 135.55 L 97.01 136.47 C 96.63 137.43 97.10 138.51 98.06 138.89 C 99.01 139.27 100.10 138.80 100.48 137.85 L 100.84 136.92 C 101.22 135.96 100.75 134.88 99.80 134.50 C 98.84 134.12 97.76 134.59 97.38 135.55 Z M 96.98 136.54 L 96.65 137.50 C 96.31 138.47 96.82 139.54 97.80 139.88 C 98.77 140.22 99.84 139.70 100.18 138.73 L 100.51 137.77 C 100.85 136.80 100.33 135.73 99.36 135.39 C 98.38 135.05 97.32 135.57 96.98 136.54 Z M 96.62 137.56 L 96.32 138.53 C 96.02 139.52 96.57 140.57 97.56 140.87 C 98.55 141.18 99.60 140.62 99.90 139.64 L 100.20 138.66 C 100.50 137.67 99.95 136.63 98.96 136.32 C 97.97 136.02 96.93 136.57 96.62 137.56 Z M 96.30 138.59 L 96.03 139.58 C 95.76 140.58 96.35 141.61 97.35 141.88 C 98.35 142.16 99.38 141.57 99.65 140.57 L 99.92 139.58 C 100.19 138.58 99.60 137.55 98.60 137.27 C 97.60 137.00 96.57 137.59 96.30 138.59 Z M 96.01 139.64 L 95.77 140.63 C 95.53 141.64 96.15 142.66 97.16 142.90 C 98.17 143.14 99.19 142.52 99.43 141.51 L 99.67 140.51 C 99.91 139.50 99.29 138.49 98.28 138.25 C 97.27 138.00 96.26 138.63 96.01 139.64 Z M 95.76 140.68 L 95.55 141.69 C 95.33 142.70 95.98 143.70 97.00 143.92 C 98.02 144.14 99.02 143.49 99.23 142.47 L 99.44 141.46 C 99.66 140.45 99.01 139.45 97.99 139.23 C 96.97 139.02 95.98 139.67 95.76 140.68 Z M 95.53 141.73 L 95.35 142.72 C 95.16 143.74 95.83 144.73 96.86 144.92 C 97.88 145.11 98.87 144.43 99.06 143.41 L 99.24 142.42 C 99.43 141.40 98.76 140.41 97.74 140.22 C 96.71 140.03 95.73 140.71 95.53 141.73 Z M 95.34 142.76 L 95.18 143.72 C 95.01 144.75 95.71 145.72 96.74 145.89 C 97.77 146.06 98.74 145.36 98.91 144.34 L 99.07 143.37 C 99.24 142.34 98.54 141.37 97.51 141.20 C 96.48 141.03 95.51 141.73 95.34 142.76 Z M 95.18 143.76 L 95.04 144.73 C 94.89 145.76 95.61 146.72 96.64 146.87 C 97.67 147.01 98.63 146.30 98.78 145.26 L 98.92 144.30 C 99.06 143.26 98.35 142.31 97.31 142.16 C 96.28 142.01 95.32 142.73 95.18 143.76 Z M 95.03 144.76 L 94.91 145.73 C 94.78 146.77 95.52 147.71 96.56 147.84 C 97.59 147.97 98.54 147.23 98.66 146.20 L 98.78 145.23 C 98.91 144.19 98.18 143.25 97.14 143.12 C 96.10 142.99 95.16 143.73 95.03 144.76 Z M 94.91 145.77 L 94.80 146.74 C 94.69 147.78 95.45 148.71 96.49 148.82 C 97.53 148.93 98.46 148.18 98.57 147.14 L 98.67 146.16 C 98.78 145.12 98.02 144.19 96.99 144.08 C 95.95 143.97 95.02 144.73 94.91 145.77 Z M 94.80 146.77 L 94.71 147.76 C 94.62 148.80 95.39 149.72 96.43 149.81 C 97.47 149.90 98.39 149.13 98.48 148.09 L 98.57 147.11 C 98.66 146.06 97.89 145.15 96.85 145.05 C 95.81 144.96 94.89 145.73 94.80 146.77 Z M 94.71 147.78 L 94.64 148.78 C 94.56 149.82 95.34 150.73 96.39 150.81 C 97.43 150.88 98.34 150.10 98.41 149.05 L 98.49 148.06 C 98.56 147.02 97.78 146.11 96.74 146.03 C 95.69 145.96 94.79 146.74 94.71 147.78 Z M 94.63 148.80 L 94.57 149.81 C 94.51 150.85 95.31 151.75 96.35 151.82 C 97.40 151.88 98.29 151.08 98.36 150.04 L 98.42 149.03 C 98.48 147.99 97.68 147.09 96.64 147.02 C 95.59 146.96 94.70 147.76 94.63 148.80 Z M 94.57 149.83 L 94.52 150.85 C 94.47 151.90 95.28 152.79 96.32 152.84 C 97.37 152.89 98.26 152.09 98.31 151.04 L 98.36 150.02 C 98.41 148.97 97.60 148.08 96.56 148.03 C 95.51 147.98 94.62 148.78 94.57 149.83 Z M 94.52 150.87 L 94.48 151.92 C 94.44 152.96 95.25 153.84 96.30 153.89 C 97.35 153.93 98.23 153.11 98.27 152.06 L 98.31 151.02 C 98.35 149.97 97.54 149.09 96.49 149.05 C 95.44 149.01 94.56 149.83 94.52 150.87 Z M 94.48 151.93 L 94.44 152.93 C 94.41 153.98 95.23 154.85 96.28 154.89 C 97.33 154.92 98.21 154.10 98.24 153.05 L 98.27 152.05 C 98.30 151.00 97.48 150.13 96.43 150.09 C 95.39 150.06 94.51 150.88 94.48 151.93 Z M 94.44 152.94 L 94.42 153.86 C 94.39 154.91 95.22 155.78 96.27 155.81 C 97.32 155.84 98.19 155.01 98.22 153.96 L 98.24 153.04 C 98.27 151.99 97.44 151.12 96.39 151.09 C 95.34 151.06 94.47 151.89 94.44 152.94 Z M 94.42 153.87 L 94.40 154.81 C 94.38 155.86 95.21 156.73 96.26 156.75 C 97.31 156.77 98.18 155.94 98.20 154.89 L 98.22 153.95 C 98.24 152.90 97.41 152.03 96.36 152.01 C 95.31 151.99 94.44 152.82 94.42 153.87 Z M 94.40 154.82 L 94.38 155.77 C 94.37 156.82 95.20 157.68 96.25 157.70 C 97.30 157.72 98.16 156.88 98.18 155.83 L 98.20 154.88 C 98.22 153.83 97.38 152.97 96.33 152.95 C 95.28 152.93 94.42 153.77 94.40 154.82 Z M 94.38 155.78 L 94.37 156.75 C 94.36 157.80 95.20 158.66 96.25 158.67 C 97.29 158.69 98.16 157.85 98.17 156.80 L 98.18 155.83 C 98.20 154.78 97.36 153.92 96.31 153.90 C 95.26 153.89 94.40 154.73 94.38 155.78 Z M 94.37 156.75 L 94.36 157.74 C 94.35 158.79 95.19 159.65 96.24 159.66 C 97.29 159.67 98.15 158.83 98.16 157.78 L 98.17 156.79 C 98.18 155.74 97.34 154.88 96.29 154.87 C 95.24 154.86 94.38 155.70 94.37 156.75 Z M 94.36 157.74 L 94.35 158.74 C 94.34 159.79 95.19 160.65 96.24 160.66 C 97.29 160.67 98.15 159.82 98.15 158.77 L 98.16 157.77 C 98.17 156.72 97.32 155.86 96.27 155.86 C 95.22 155.85 94.37 156.69 94.36 157.74 Z M 94.35 158.75 L 94.35 159.76 C 94.34 160.81 95.19 161.67 96.24 161.67 C 97.29 161.68 98.14 160.83 98.15 159.78 L 98.15 158.77 C 98.16 157.72 97.31 156.86 96.26 156.86 C 95.21 156.85 94.36 157.70 94.35 158.75 Z M 94.35 159.77 L 94.34 160.80 C 94.34 161.85 95.19 162.70 96.24 162.71 C 97.29 162.71 98.14 161.86 98.15 160.81 L 98.15 159.78 C 98.15 158.73 97.30 157.88 96.25 157.87 C 95.20 157.87 94.35 158.72 94.35 159.77 Z M 94.34 160.80 L 94.34 161.85 C 94.34 162.90 95.19 163.75 96.24 163.75 C 97.29 163.75 98.14 162.90 98.15 161.85 L 98.15 160.81 C 98.15 159.76 97.30 158.90 96.25 158.90 C 95.20 158.90 94.35 159.75 94.34 160.80 Z M 94.34 161.85 L 94.34 162.91 C 94.34 163.96 95.19 164.81 96.24 164.81 C 97.29 164.81 98.14 163.96 98.14 162.91 L 98.15 161.85 C 98.15 160.80 97.30 159.95 96.24 159.95 C 95.19 159.95 94.34 160.80 94.34 161.85 Z M 94.34 162.91 L 94.34 163.99 C 94.34 165.04 95.19 165.89 96.24 165.89 C 97.29 165.89 98.14 165.04 98.14 163.99 L 98.14 162.91 C 98.15 161.86 97.29 161.01 96.24 161.01 C 95.19 161.01 94.34 161.86 94.34 162.91 Z M 94.34 163.99 L 94.34 165.00 C 94.34 166.05 95.19 166.90 96.24 166.90 C 97.29 166.90 98.14 166.05 98.14 165.00 L 98.14 163.99 C 98.14 162.93 97.29 162.08 96.24 162.08 C 95.19 162.08 94.34 162.93 94.34 163.99 Z M 94.34 165.00 L 94.34 165.97 C 94.34 167.02 95.19 167.87 96.24 167.87 C 97.29 167.87 98.15 167.02 98.15 165.97 L 98.15 165.00 C 98.15 163.95 97.29 163.10 96.24 163.10 C 95.19 163.10 94.34 163.95 94.34 165.00 Z M 94.34 165.97 L 94.34 166.94 C 94.34 167.99 95.19 168.85 96.24 168.85 C 97.29 168.85 98.15 167.99 98.15 166.94 L 98.15 165.97 C 98.15 164.92 97.29 164.06 96.24 164.06 C 95.19 164.06 94.34 164.92 94.34 165.97 Z M 94.34 166.94 L 94.34 167.93 C 94.34 168.98 95.19 169.83 96.24 169.83 C 97.29 169.83 98.15 168.98 98.15 167.93 L 98.15 166.94 C 98.15 165.89 97.29 165.04 96.24 165.04 C 95.19 165.04 94.34 165.89 94.34 166.94 Z M 94.34 167.93 L 94.34 168.92 C 94.34 169.97 95.19 170.82 96.24 170.82 C 97.29 170.82 98.15 169.97 98.15 168.92 L 98.15 167.93 C 98.15 166.88 97.29 166.02 96.24 166.02 C 95.19 166.02 94.34 166.88 94.34 167.93 Z M 94.34 168.92 L 94.34 169.92 C 94.34 170.97 95.19 171.82 96.24 171.82 C 97.29 171.82 98.15 170.97 98.15 169.92 L 98.15 168.92 C 98.15 167.87 97.29 167.01 96.24 167.01 C 95.19 167.01 94.34 167.87 94.34 168.92 Z M 94.34 169.92 L 94.34 170.92 C 94.34 171.97 95.19 172.82 96.24 172.82 C 97.29 172.82 98.15 171.97 98.15 170.92 L 98.15 169.92 C 98.15 168.86 97.29 168.01 96.24 168.01 C 95.19 168.01 94.34 168.86 94.34 169.92 Z M 94.34 170.92 L 94.34 171.93 C 94.34 172.98 95.19 173.83 96.24 173.83 C 97.29 173.83 98.15 172.98 98.15 171.93 L 98.15 170.92 C 98.15 169.87 97.29 169.02 96.24 169.02 C 95.19 169.02 94.34 169.87 94.34 170.92 Z M 94.34 171.93 L 94.34 172.94 C 94.34 173.99 95.19 174.84 96.24 174.84 C 97.29 174.84 98.15 173.99 98.15 172.94 L 98.15 171.93 C 98.15 170.88 97.29 170.02 96.24 170.02 C 95.19 170.02 94.34 170.88 94.34 171.93 Z M 94.34 172.94 L 94.34 173.95 C 94.34 175.01 95.19 175.86 96.24 175.86 C 97.29 175.86 98.15 175.01 98.15 173.95 L 98.15 172.94 C 98.15 171.89 97.29 171.04 96.24 171.04 C 95.19 171.04 94.34 171.89 94.34 172.94 Z M 94.34 173.95 L 94.34 174.97 C 94.34 176.02 95.19 176.87 96.24 176.87 C 97.29 176.87 98.15 176.02 98.15 174.97 L 98.15 173.95 C 98.15 172.90 97.29 172.05 96.24 172.05 C 95.19 172.05 94.34 172.90 94.34 173.95 Z M 94.34 174.97 L 94.34 175.99 C 94.34 177.04 95.19 177.89 96.24 177.89 C 97.29 177.89 98.15 177.04 98.15 175.99 L 98.15 174.97 C 98.15 173.92 97.29 173.07 96.24 173.07 C 95.19 173.07 94.34 173.92 94.34 174.97 Z M 94.34 175.99 L 94.34 177.01 C 94.34 178.06 95.19 178.91 96.24 178.91 C 97.29 178.91 98.15 178.06 98.15 177.01 L 98.15 175.99 C 98.15 174.94 97.29 174.09 96.24 174.09 C 95.19 174.09 94.34 174.94 94.34 175.99 Z M 94.34 177.01 L 94.34 178.02 C 94.34 179.07 95.19 179.93 96.24 179.93 C 97.29 179.93 98.15 179.07 98.15 178.02 L 98.15 177.01 C 98.15 175.96 97.29 175.10 96.24 175.10 C 95.19 175.10 94.34 175.96 94.34 177.01 Z M 94.34 178.02 L 94.34 178.98 C 94.34 180.03 95.19 180.88 96.24 180.88 C 97.29 180.88 98.15 180.03 98.15 178.98 L 98.15 178.02 C 98.15 176.97 97.29 176.12 96.24 176.12 C 95.19 176.12 94.34 176.97 94.34 178.02 Z M 94.34 178.98 L 94.34 179.94 C 94.34 180.99 95.20 181.84 96.25 181.84 C 97.30 181.84 98.15 180.99 98.15 179.94 L 98.15 178.98 C 98.14 177.93 97.29 177.08 96.24 177.08 C 95.19 177.08 94.34 177.93 94.34 178.98 Z M 94.34 179.95 L 94.35 180.91 C 94.35 181.96 95.21 182.81 96.26 182.80 C 97.31 182.80 98.16 181.94 98.15 180.89 L 98.15 179.93 C 98.14 178.88 97.29 178.03 96.23 178.04 C 95.18 178.04 94.34 178.90 94.34 179.95 Z M 94.35 180.92 L 94.36 181.88 C 94.37 182.93 95.23 183.77 96.28 183.76 C 97.33 183.75 98.17 182.89 98.16 181.84 L 98.15 180.88 C 98.14 179.83 97.28 178.99 96.23 179.00 C 95.18 179.01 94.34 179.87 94.35 180.92 Z M 94.36 181.89 L 94.37 182.86 C 94.39 183.91 95.25 184.75 96.30 184.73 C 97.35 184.71 98.19 183.85 98.18 182.80 L 98.16 181.83 C 98.14 180.78 97.28 179.94 96.23 179.96 C 95.18 179.98 94.34 180.84 94.36 181.89 Z M 94.37 182.87 L 94.39 183.85 C 94.42 184.90 95.29 185.73 96.34 185.70 C 97.39 185.68 98.22 184.81 98.20 183.76 L 98.18 182.78 C 98.15 181.73 97.28 180.90 96.23 180.93 C 95.18 180.95 94.35 181.82 94.37 182.87 Z M 94.39 183.86 L 94.43 184.84 C 94.46 185.89 95.34 186.72 96.39 186.68 C 97.44 186.65 98.26 185.77 98.23 184.72 L 98.20 183.74 C 98.16 182.69 97.29 181.87 96.24 181.90 C 95.19 181.93 94.36 182.81 94.39 183.86 Z M 94.43 184.86 L 94.47 185.85 C 94.51 186.90 95.40 187.72 96.45 187.67 C 97.50 187.63 98.31 186.74 98.27 185.69 L 98.23 184.70 C 98.18 183.65 97.30 182.84 96.25 182.88 C 95.20 182.93 94.38 183.81 94.43 184.86 Z M 94.47 185.87 L 94.52 186.87 C 94.58 187.92 95.48 188.73 96.53 188.67 C 97.57 188.61 98.38 187.72 98.32 186.67 L 98.27 185.67 C 98.21 184.62 97.32 183.81 96.27 183.87 C 95.22 183.93 94.41 184.82 94.47 185.87 Z M 94.53 186.89 L 94.59 187.91 C 94.66 188.95 95.57 189.75 96.62 189.68 C 97.66 189.61 98.46 188.70 98.39 187.65 L 98.32 186.64 C 98.25 185.60 97.35 184.80 96.30 184.87 C 95.25 184.94 94.46 185.85 94.53 186.89 Z M 94.59 187.93 L 94.68 188.95 C 94.76 190.00 95.68 190.78 96.72 190.70 C 97.77 190.62 98.55 189.70 98.47 188.65 L 98.39 187.63 C 98.30 186.58 97.39 185.80 96.34 185.88 C 95.29 185.97 94.51 186.88 94.59 187.93 Z M 94.68 188.98 L 94.78 190.02 C 94.87 191.07 95.80 191.83 96.85 191.74 C 97.89 191.64 98.66 190.71 98.56 189.66 L 98.47 188.63 C 98.37 187.58 97.44 186.81 96.39 186.91 C 95.35 187.01 94.58 187.94 94.68 188.98 Z M 94.78 190.05 L 94.89 191.10 C 95.01 192.15 95.95 192.90 96.99 192.79 C 98.04 192.67 98.79 191.73 98.68 190.69 L 98.56 189.63 C 98.45 188.59 97.51 187.84 96.46 187.95 C 95.42 188.07 94.66 189.00 94.78 190.05 Z M 94.90 191.13 L 95.03 192.20 C 95.16 193.25 96.11 193.99 97.16 193.86 C 98.20 193.72 98.94 192.77 98.81 191.73 L 98.67 190.66 C 98.54 189.62 97.59 188.88 96.55 189.01 C 95.51 189.14 94.77 190.09 94.90 191.13 Z M 95.04 192.23 L 95.18 193.25 C 95.33 194.29 96.29 195.02 97.33 194.87 C 98.37 194.72 99.09 193.76 98.95 192.72 L 98.80 191.70 C 98.66 190.66 97.69 189.94 96.65 190.09 C 95.61 190.23 94.89 191.19 95.04 192.23 Z M 95.19 193.28 L 95.34 194.28 C 95.51 195.32 96.48 196.03 97.52 195.87 C 98.55 195.70 99.26 194.73 99.10 193.69 L 98.94 192.69 C 98.78 191.65 97.81 190.94 96.77 191.11 C 95.73 191.27 95.02 192.24 95.19 193.28 Z M 95.35 194.31 L 95.52 195.33 C 95.70 196.36 96.69 197.05 97.72 196.88 C 98.75 196.70 99.45 195.71 99.27 194.68 L 99.09 193.67 C 98.92 192.63 97.93 191.94 96.90 192.12 C 95.86 192.30 95.17 193.28 95.35 194.31 Z M 95.53 195.35 L 95.72 196.37 C 95.92 197.41 96.91 198.08 97.94 197.89 C 98.97 197.70 99.65 196.70 99.46 195.67 L 99.26 194.65 C 99.07 193.62 98.08 192.94 97.05 193.14 C 96.01 193.33 95.34 194.32 95.53 195.35 Z M 95.73 196.40 L 95.94 197.42 C 96.15 198.45 97.15 199.12 98.18 198.91 C 99.20 198.70 99.87 197.69 99.66 196.67 L 99.45 195.64 C 99.24 194.62 98.24 193.95 97.21 194.16 C 96.18 194.37 95.52 195.38 95.73 196.40 Z M 95.94 197.45 L 96.17 198.47 C 96.39 199.50 97.41 200.14 98.43 199.92 C 99.45 199.69 100.10 198.68 99.88 197.66 L 99.65 196.64 C 99.42 195.61 98.41 194.97 97.39 195.19 C 96.36 195.42 95.72 196.43 95.94 197.45 Z M 96.18 198.50 L 96.42 199.52 C 96.66 200.54 97.68 201.17 98.70 200.93 C 99.72 200.68 100.35 199.66 100.11 198.64 L 99.87 197.63 C 99.63 196.61 98.60 195.98 97.58 196.22 C 96.56 196.46 95.93 197.48 96.18 198.50 Z M 96.43 199.55 L 96.68 200.56 C 96.94 201.57 97.98 202.18 98.99 201.92 C 100.01 201.66 100.62 200.63 100.36 199.61 L 100.10 198.61 C 99.84 197.59 98.81 196.98 97.79 197.24 C 96.78 197.50 96.17 198.54 96.43 199.55 Z M 96.69 200.59 L 96.97 201.58 C 97.24 202.59 98.29 203.18 99.30 202.91 C 100.31 202.63 100.90 201.58 100.62 200.57 L 100.35 199.58 C 100.07 198.57 99.03 197.98 98.02 198.26 C 97.01 198.54 96.41 199.58 96.69 200.59 Z M 96.98 201.62 L 97.27 202.59 C 97.56 203.60 98.62 204.17 99.62 203.87 C 100.63 203.57 101.20 202.52 100.90 201.52 L 100.61 200.54 C 100.31 199.54 99.26 198.96 98.26 199.26 C 97.25 199.56 96.68 200.61 96.98 201.62 Z M 97.28 202.63 L 97.58 203.59 C 97.90 204.58 98.97 205.13 99.97 204.82 C 100.96 204.50 101.51 203.43 101.19 202.43 L 100.89 201.48 C 100.57 200.48 99.50 199.93 98.51 200.25 C 97.51 200.57 96.96 201.63 97.28 202.63 Z M 97.60 203.63 L 97.92 204.56 C 98.26 205.55 99.34 206.07 100.33 205.73 C 101.32 205.39 101.84 204.31 101.50 203.33 L 101.18 202.39 C 100.84 201.40 99.76 200.88 98.77 201.22 C 97.78 201.56 97.26 202.64 97.60 203.63 Z M 97.94 204.60 L 98.27 205.51 C 98.64 206.49 99.73 206.99 100.71 206.62 C 101.69 206.26 102.19 205.17 101.82 204.19 L 101.48 203.28 C 101.12 202.30 100.03 201.80 99.05 202.17 C 98.07 202.53 97.57 203.62 97.94 204.60 Z M 98.29 205.55 L 98.64 206.43 C 99.03 207.40 100.13 207.87 101.10 207.47 C 102.07 207.08 102.54 205.98 102.15 205.01 L 101.80 204.14 C 101.41 203.17 100.31 202.70 99.34 203.09 C 98.37 203.48 97.90 204.58 98.29 205.55 Z M 98.66 206.48 L 99.03 207.31 C 99.45 208.27 100.56 208.71 101.52 208.29 C 102.48 207.87 102.92 206.76 102.50 205.80 L 102.13 204.96 C 101.71 204.00 100.60 203.57 99.64 203.99 C 98.68 204.40 98.25 205.52 98.66 206.48 Z M 99.06 207.37 L 99.44 208.17 C 99.89 209.11 101.02 209.51 101.96 209.06 C 102.90 208.61 103.30 207.48 102.85 206.54 L 102.47 205.74 C 102.02 204.80 100.89 204.40 99.95 204.85 C 99.01 205.30 98.61 206.43 99.06 207.37 Z M 99.48 208.24 L 100.03 209.28 C 100.52 210.21 101.67 210.55 102.59 210.06 C 103.51 209.57 103.86 208.43 103.37 207.51 L 102.81 206.47 C 102.32 205.55 101.18 205.20 100.26 205.69 C 99.34 206.18 98.99 207.32 99.48 208.24 Z M 100.09 209.38 L 100.67 210.34 C 101.21 211.23 102.37 211.51 103.26 210.97 C 104.15 210.43 104.44 209.27 103.90 208.38 L 103.31 207.42 C 102.77 206.53 101.61 206.24 100.72 206.78 C 99.83 207.32 99.55 208.48 100.09 209.38 Z M 100.74 210.43 L 101.35 211.32 C 101.94 212.17 103.12 212.38 103.97 211.79 C 104.83 211.20 105.04 210.03 104.45 209.17 L 103.83 208.29 C 103.24 207.43 102.07 207.22 101.21 207.81 C 100.36 208.40 100.14 209.58 100.74 210.43 Z M 101.43 211.41 L 102.07 212.22 C 102.72 213.04 103.90 213.17 104.71 212.53 C 105.52 211.88 105.66 210.70 105.01 209.88 L 104.37 209.07 C 103.73 208.26 102.54 208.13 101.73 208.77 C 100.92 209.42 100.78 210.60 101.43 211.41 Z M 102.16 212.32 L 102.83 213.06 C 103.53 213.82 104.71 213.88 105.48 213.18 C 106.25 212.48 106.30 211.29 105.60 210.52 L 104.93 209.79 C 104.23 209.02 103.04 208.97 102.28 209.67 C 101.51 210.37 101.46 211.55 102.16 212.32 Z M 102.92 213.15 L 103.63 213.82 C 104.38 214.53 105.56 214.50 106.28 213.75 C 106.99 213.00 106.96 211.81 106.21 211.10 L 105.50 210.43 C 104.75 209.72 103.57 209.75 102.85 210.50 C 102.14 211.25 102.17 212.44 102.92 213.15 Z M 103.73 213.91 L 104.47 214.50 C 105.27 215.16 106.44 215.04 107.10 214.24 C 107.75 213.44 107.63 212.26 106.83 211.61 L 106.10 211.01 C 105.30 210.35 104.12 210.47 103.47 211.27 C 102.81 212.07 102.93 213.25 103.73 213.91 Z M 104.58 214.59 L 105.34 215.12 C 106.19 215.71 107.35 215.50 107.94 214.66 C 108.53 213.81 108.33 212.65 107.48 212.06 L 106.72 211.52 C 105.87 210.93 104.71 211.14 104.12 211.98 C 103.53 212.83 103.73 213.99 104.58 214.59 Z M 105.46 215.19 L 106.25 215.66 C 107.14 216.19 108.28 215.89 108.81 215.01 C 109.33 214.12 109.04 212.98 108.16 212.45 L 107.36 211.98 C 106.48 211.46 105.33 211.75 104.81 212.64 C 104.28 213.52 104.57 214.67 105.46 215.19 Z M 106.38 215.72 L 107.20 216.13 C 108.12 216.59 109.24 216.22 109.69 215.30 C 110.15 214.38 109.78 213.26 108.86 212.80 L 108.03 212.39 C 107.11 211.93 106.00 212.31 105.54 213.23 C 105.08 214.15 105.45 215.27 106.38 215.72 Z M 107.32 216.19 L 108.17 216.54 C 109.12 216.93 110.21 216.48 110.60 215.53 C 110.99 214.58 110.54 213.49 109.59 213.10 L 108.74 212.75 C 107.79 212.36 106.70 212.81 106.31 213.76 C 105.92 214.71 106.37 215.79 107.32 216.19 Z M 108.29 216.58 L 109.21 216.89 C 110.19 217.21 111.24 216.69 111.56 215.71 C 111.89 214.74 111.36 213.69 110.39 213.37 L 109.47 213.06 C 108.50 212.73 107.45 213.26 107.12 214.23 C 106.80 215.20 107.32 216.26 108.29 216.58 Z M 109.33 216.92 L 110.29 217.17 C 111.28 217.43 112.30 216.84 112.56 215.85 C 112.82 214.86 112.22 213.84 111.23 213.58 L 110.27 213.33 C 109.28 213.07 108.27 213.67 108.01 214.66 C 107.75 215.65 108.34 216.66 109.33 216.92 Z M 110.41 217.20 L 111.40 217.39 C 112.40 217.58 113.37 216.93 113.57 215.92 C 113.76 214.92 113.11 213.95 112.10 213.75 L 111.12 213.56 C 110.11 213.36 109.14 214.02 108.94 215.02 C 108.75 216.03 109.41 217.00 110.41 217.20 Z M 111.51 217.40 L 112.51 217.54 C 113.52 217.67 114.45 216.95 114.58 215.94 C 114.72 214.93 114.00 214.00 112.99 213.87 L 111.99 213.73 C 110.98 213.60 110.05 214.31 109.91 215.33 C 109.78 216.34 110.49 217.27 111.51 217.40 Z M 112.62 217.54 L 113.63 217.62 C 114.65 217.69 115.53 216.92 115.61 215.90 C 115.68 214.89 114.91 214.00 113.89 213.93 L 112.88 213.86 C 111.86 213.78 110.98 214.55 110.91 215.57 C 110.83 216.59 111.60 217.47 112.62 217.54 Z M 113.74 217.62 L 114.75 217.63 C 115.77 217.65 116.61 216.83 116.62 215.81 C 116.64 214.79 115.82 213.95 114.80 213.94 L 113.79 213.93 C 112.77 213.91 111.93 214.73 111.91 215.75 C 111.90 216.77 112.72 217.61 113.74 217.62 Z M 114.86 217.63 L 115.87 217.58 C 116.89 217.54 117.68 216.67 117.63 215.66 C 117.58 214.64 116.72 213.85 115.70 213.90 L 114.69 213.94 C 113.67 213.99 112.89 214.85 112.93 215.87 C 112.98 216.89 113.84 217.68 114.86 217.63 Z M 115.98 217.57 L 116.98 217.47 C 117.99 217.36 118.73 216.46 118.62 215.44 C 118.51 214.43 117.61 213.70 116.59 213.80 L 115.59 213.91 C 114.58 214.01 113.85 214.92 113.95 215.93 C 114.06 216.94 114.97 217.68 115.98 217.57 Z M 117.09 217.45 L 118.07 217.29 C 119.07 217.12 119.75 216.17 119.59 215.17 C 119.42 214.17 118.47 213.49 117.47 213.66 L 116.49 213.82 C 115.48 213.98 114.80 214.93 114.97 215.94 C 115.14 216.94 116.08 217.62 117.09 217.45 Z M 118.18 217.27 L 119.14 217.04 C 120.13 216.82 120.75 215.83 120.52 214.84 C 120.29 213.85 119.31 213.23 118.31 213.46 L 117.36 213.68 C 116.37 213.91 115.75 214.90 115.98 215.89 C 116.20 216.88 117.19 217.49 118.18 217.27 Z M 119.26 217.01 L 120.19 216.73 C 121.16 216.44 121.71 215.42 121.42 214.44 C 121.13 213.47 120.10 212.92 119.13 213.21 L 118.20 213.49 C 117.23 213.78 116.68 214.81 116.97 215.78 C 117.26 216.75 118.29 217.30 119.26 217.01 Z M 120.31 216.69 L 121.24 216.34 C 122.19 215.98 122.67 214.92 122.31 213.97 C 121.95 213.02 120.89 212.54 119.94 212.90 L 119.01 213.25 C 118.06 213.61 117.58 214.67 117.94 215.62 C 118.30 216.57 119.36 217.05 120.31 216.69 Z M 121.36 216.29 L 122.25 215.88 C 123.17 215.45 123.57 214.36 123.15 213.44 C 122.73 212.52 121.63 212.12 120.71 212.54 L 119.82 212.95 C 118.90 213.38 118.49 214.47 118.92 215.39 C 119.34 216.31 120.43 216.71 121.36 216.29 Z M 122.36 215.82 L 123.22 215.36 C 124.11 214.87 124.44 213.76 123.96 212.86 C 123.47 211.97 122.36 211.64 121.46 212.13 L 120.60 212.59 C 119.71 213.08 119.38 214.19 119.87 215.09 C 120.35 215.98 121.47 216.31 122.36 215.82 Z M 123.32 215.30 L 124.14 214.78 C 125.00 214.24 125.27 213.11 124.73 212.25 C 124.19 211.39 123.06 211.13 122.20 211.67 L 121.37 212.18 C 120.51 212.72 120.25 213.86 120.78 214.72 C 121.32 215.58 122.46 215.84 123.32 215.30 Z M 124.23 214.72 L 125.03 214.16 C 125.86 213.57 126.06 212.42 125.47 211.60 C 124.89 210.77 123.74 210.57 122.91 211.16 L 122.11 211.72 C 121.28 212.31 121.08 213.46 121.67 214.28 C 122.26 215.11 123.40 215.31 124.23 214.72 Z M 125.11 214.10 L 125.88 213.49 C 126.68 212.86 126.82 211.71 126.19 210.91 C 125.57 210.11 124.41 209.97 123.61 210.60 L 122.84 211.21 C 122.04 211.84 121.90 212.99 122.53 213.79 C 123.15 214.59 124.31 214.73 125.11 214.10 Z M 125.95 213.44 L 126.70 212.78 C 127.47 212.12 127.56 210.96 126.90 210.19 C 126.23 209.43 125.07 209.34 124.31 210.00 L 123.55 210.65 C 122.78 211.32 122.70 212.48 123.36 213.24 C 124.02 214.01 125.18 214.10 125.95 213.44 Z M 126.76 212.74 L 127.50 212.05 C 128.24 211.36 128.28 210.19 127.59 209.45 C 126.90 208.71 125.73 208.67 124.99 209.36 L 124.25 210.05 C 123.51 210.74 123.47 211.90 124.16 212.64 C 124.85 213.39 126.02 213.43 126.76 212.74 Z M 127.54 212.00 L 128.27 211.28 C 128.99 210.57 128.99 209.40 128.27 208.68 C 127.56 207.97 126.39 207.96 125.67 208.68 L 124.95 209.40 C 124.23 210.12 124.23 211.28 124.94 212.00 C 125.66 212.72 126.82 212.72 127.54 212.00 Z M 128.30 211.25 L 129.02 210.49 C 129.72 209.76 129.69 208.59 128.95 207.90 C 128.21 207.20 127.05 207.23 126.35 207.96 L 125.64 208.72 C 124.94 209.45 124.97 210.61 125.71 211.31 C 126.44 212.01 127.60 211.98 128.30 211.25 Z M 129.04 210.46 L 129.70 209.74 C 130.38 208.99 130.33 207.83 129.58 207.15 C 128.83 206.47 127.66 206.52 126.98 207.27 L 126.33 207.99 C 125.64 208.74 125.70 209.90 126.45 210.59 C 127.20 211.27 128.36 211.21 129.04 210.46 Z M 129.72 209.72 L 130.35 209.00 C 131.02 208.24 130.94 207.08 130.18 206.41 C 129.42 205.74 128.26 205.82 127.59 206.58 L 126.96 207.30 C 126.29 208.06 126.37 209.22 127.13 209.89 C 127.89 210.56 129.05 210.48 129.72 209.72 Z M 130.37 208.98 L 131.00 208.24 C 131.65 207.47 131.56 206.31 130.78 205.65 C 130.01 205.00 128.85 205.09 128.20 205.87 L 127.57 206.60 C 126.91 207.37 127.01 208.53 127.78 209.19 C 128.55 209.85 129.71 209.75 130.37 208.98 Z M 131.01 208.22 L 131.63 207.47 C 132.28 206.68 132.17 205.53 131.38 204.88 C 130.60 204.24 129.44 204.35 128.80 205.13 L 128.18 205.89 C 127.53 206.67 127.65 207.83 128.43 208.47 C 129.21 209.12 130.37 209.00 131.01 208.22 Z M 131.65 207.45 L 132.27 206.68 C 132.90 205.88 132.77 204.73 131.98 204.09 C 131.19 203.46 130.03 203.59 129.40 204.38 L 128.78 205.15 C 128.15 205.95 128.28 207.10 129.07 207.73 C 129.86 208.37 131.02 208.24 131.65 207.45 Z M 132.28 206.66 L 132.89 205.87 C 133.52 205.07 133.37 203.92 132.57 203.29 C 131.77 202.67 130.62 202.81 130.00 203.61 L 129.38 204.40 C 128.76 205.20 128.90 206.36 129.70 206.98 C 130.51 207.60 131.66 207.46 132.28 206.66 Z M 132.91 205.85 L 133.52 205.05 C 134.13 204.24 133.97 203.09 133.16 202.48 C 132.36 201.86 131.20 202.02 130.59 202.83 L 129.98 203.63 C 129.37 204.44 129.53 205.59 130.34 206.20 C 131.14 206.82 132.29 206.66 132.91 205.85 Z M 133.53 205.03 L 134.13 204.22 C 134.74 203.40 134.57 202.25 133.75 201.65 C 132.94 201.04 131.79 201.21 131.18 202.03 L 130.58 202.85 C 129.97 203.66 130.15 204.81 130.96 205.41 C 131.78 206.02 132.93 205.85 133.53 205.03 Z M 134.15 204.20 L 134.75 203.37 C 135.34 202.55 135.16 201.40 134.34 200.81 C 133.52 200.21 132.37 200.39 131.77 201.22 L 131.17 202.05 C 130.58 202.87 130.76 204.01 131.58 204.61 C 132.40 205.20 133.55 205.02 134.15 204.20 Z M 134.76 203.36 L 135.36 202.51 C 135.94 201.69 135.75 200.54 134.92 199.95 C 134.10 199.37 132.95 199.56 132.36 200.39 L 131.76 201.23 C 131.18 202.06 131.37 203.20 132.20 203.79 C 133.02 204.38 134.17 204.18 134.76 203.36 Z M 135.37 202.50 L 135.96 201.65 C 136.54 200.82 136.34 199.67 135.51 199.09 C 134.67 198.51 133.53 198.71 132.95 199.55 L 132.35 200.40 C 131.77 201.23 131.98 202.38 132.81 202.96 C 133.64 203.54 134.79 203.33 135.37 202.50 Z M 135.97 201.64 L 136.55 200.78 C 137.13 199.95 136.92 198.80 136.08 198.23 C 135.24 197.65 134.10 197.87 133.53 198.70 L 132.94 199.56 C 132.37 200.39 132.58 201.54 133.42 202.11 C 134.25 202.68 135.40 202.47 135.97 201.64 Z M 136.56 200.77 L 137.13 199.94 C 137.69 199.10 137.47 197.95 136.63 197.39 C 135.79 196.82 134.65 197.04 134.08 197.88 L 133.52 198.72 C 132.95 199.56 133.17 200.70 134.01 201.26 C 134.85 201.83 135.99 201.61 136.56 200.77 Z M 137.13 199.92 L 137.69 199.08 C 138.25 198.24 138.02 197.10 137.18 196.54 C 136.34 195.98 135.20 196.20 134.63 197.05 L 134.07 197.89 C 133.51 198.74 133.74 199.88 134.59 200.44 C 135.43 201.00 136.57 200.77 137.13 199.92 Z M 137.70 199.07 L 138.26 198.22 C 138.81 197.37 138.57 196.24 137.72 195.68 C 136.88 195.13 135.74 195.36 135.18 196.21 L 134.63 197.06 C 134.07 197.91 134.31 199.05 135.16 199.60 C 136.01 200.16 137.15 199.92 137.70 199.07 Z M 138.26 198.21 L 138.81 197.36 C 139.36 196.51 139.11 195.37 138.26 194.82 C 137.41 194.27 136.27 194.52 135.72 195.37 L 135.17 196.22 C 134.63 197.08 134.87 198.21 135.73 198.76 C 136.58 199.31 137.71 199.06 138.26 198.21 Z M 138.82 197.35 L 139.36 196.49 C 139.90 195.63 139.65 194.50 138.79 193.96 C 137.93 193.41 136.80 193.67 136.26 194.53 L 135.72 195.38 C 135.17 196.24 135.43 197.37 136.29 197.92 C 137.14 198.46 138.28 198.20 138.82 197.35 Z M 139.37 196.48 L 139.90 195.62 C 140.44 194.76 140.17 193.62 139.31 193.09 C 138.45 192.55 137.32 192.82 136.78 193.68 L 136.25 194.54 C 135.71 195.40 135.98 196.53 136.84 197.07 C 137.70 197.60 138.83 197.34 139.37 196.48 Z M 139.91 195.60 L 140.43 194.75 C 140.96 193.88 140.69 192.75 139.82 192.22 C 138.96 191.69 137.83 191.97 137.30 192.83 L 136.77 193.69 C 136.25 194.56 136.52 195.69 137.39 196.22 C 138.25 196.75 139.38 196.47 139.91 195.60 Z M 140.44 194.73 L 140.96 193.87 C 141.48 193.00 141.19 191.87 140.32 191.35 C 139.45 190.83 138.32 191.12 137.80 191.99 L 137.29 192.85 C 136.77 193.72 137.05 194.85 137.92 195.37 C 138.80 195.89 139.92 195.60 140.44 194.73 Z M 140.96 193.86 L 141.47 193.00 C 141.98 192.13 141.68 191.00 140.81 190.49 C 139.93 189.98 138.81 190.27 138.29 191.15 L 137.79 192.00 C 137.28 192.88 137.58 194.00 138.45 194.52 C 139.33 195.03 140.45 194.73 140.96 193.86 Z M 141.47 192.99 L 141.96 192.13 C 142.47 191.25 142.16 190.13 141.28 189.63 C 140.40 189.12 139.28 189.43 138.77 190.31 L 138.29 191.16 C 137.78 192.04 138.09 193.16 138.97 193.67 C 139.85 194.17 140.97 193.87 141.47 192.99 Z M 141.97 192.12 L 142.45 191.27 C 142.94 190.38 142.62 189.26 141.74 188.77 C 140.85 188.27 139.73 188.59 139.24 189.48 L 138.76 190.33 C 138.27 191.21 138.59 192.33 139.47 192.82 C 140.36 193.32 141.48 193.00 141.97 192.12 Z M 142.46 191.25 L 142.93 190.37 C 143.42 189.48 143.09 188.37 142.20 187.88 C 141.30 187.40 140.19 187.73 139.71 188.62 L 139.23 189.49 C 138.74 190.39 139.07 191.50 139.96 191.98 C 140.86 192.47 141.97 192.14 142.46 191.25 Z M 142.94 190.35 L 143.44 189.40 C 143.92 188.50 143.57 187.39 142.68 186.92 C 141.78 186.45 140.67 186.79 140.20 187.69 L 139.70 188.64 C 139.22 189.53 139.56 190.64 140.46 191.12 C 141.36 191.59 142.47 191.25 142.94 190.35 Z M 143.45 189.38 L 143.94 188.44 C 144.40 187.54 144.04 186.43 143.14 185.97 C 142.24 185.51 141.13 185.86 140.67 186.77 L 140.19 187.71 C 139.72 188.61 140.08 189.72 140.98 190.18 C 141.89 190.64 142.99 190.28 143.45 189.38 Z M 143.95 188.42 L 144.41 187.49 C 144.86 186.58 144.49 185.48 143.58 185.03 C 142.67 184.58 141.57 184.95 141.12 185.85 L 140.66 186.79 C 140.21 187.69 140.58 188.80 141.49 189.25 C 142.39 189.70 143.49 189.33 143.95 188.42 Z M 144.42 187.47 L 144.86 186.55 C 145.30 185.64 144.92 184.54 144.01 184.10 C 143.10 183.66 142.00 184.04 141.56 184.95 L 141.11 185.87 C 140.67 186.79 141.05 187.88 141.97 188.32 C 142.88 188.76 143.98 188.38 144.42 187.47 Z M 144.87 186.53 L 145.30 185.62 C 145.73 184.70 145.33 183.61 144.42 183.18 C 143.50 182.75 142.41 183.14 141.98 184.06 L 141.55 184.97 C 141.12 185.89 141.51 186.98 142.43 187.41 C 143.35 187.84 144.44 187.45 144.87 186.53 Z M 145.31 185.60 L 145.72 184.70 C 146.14 183.78 145.73 182.69 144.81 182.27 C 143.89 181.85 142.80 182.25 142.38 183.18 L 141.97 184.08 C 141.55 185.00 141.95 186.09 142.88 186.51 C 143.80 186.93 144.89 186.52 145.31 185.60 Z M 145.73 184.68 L 146.12 183.79 C 146.53 182.87 146.12 181.78 145.19 181.37 C 144.27 180.96 143.18 181.38 142.77 182.30 L 142.37 183.19 C 141.96 184.12 142.38 185.20 143.30 185.61 C 144.23 186.02 145.31 185.61 145.73 184.68 Z M 146.13 183.78 L 146.51 182.90 C 146.91 181.97 146.48 180.89 145.56 180.49 C 144.63 180.08 143.55 180.51 143.14 181.44 L 142.76 182.32 C 142.36 183.25 142.79 184.33 143.72 184.73 C 144.65 185.13 145.72 184.71 146.13 183.78 Z M 146.51 182.88 L 146.88 182.02 C 147.28 181.08 146.84 180.01 145.91 179.61 C 144.98 179.22 143.90 179.65 143.51 180.59 L 143.14 181.45 C 142.74 182.39 143.18 183.46 144.11 183.86 C 145.04 184.25 146.12 183.82 146.51 182.88 Z M 146.89 182.00 L 147.24 181.14 C 147.63 180.21 147.18 179.14 146.25 178.75 C 145.31 178.36 144.24 178.81 143.85 179.74 L 143.50 180.60 C 143.11 181.53 143.56 182.61 144.49 182.99 C 145.43 183.38 146.50 182.94 146.89 182.00 Z M 147.25 181.13 L 147.62 180.21 C 148.00 179.28 147.55 178.21 146.61 177.83 C 145.67 177.45 144.60 177.90 144.22 178.84 L 143.85 179.76 C 143.47 180.69 143.92 181.76 144.86 182.14 C 145.80 182.52 146.87 182.07 147.25 181.13 Z M 147.62 180.20 L 147.99 179.27 C 148.36 178.33 147.90 177.27 146.96 176.89 C 146.02 176.52 144.96 176.98 144.58 177.92 L 144.22 178.85 C 143.84 179.79 144.31 180.86 145.25 181.23 C 146.19 181.60 147.25 181.14 147.62 180.20 Z M 147.99 179.26 L 148.35 178.33 C 148.72 177.39 148.25 176.33 147.30 175.97 C 146.36 175.60 145.30 176.07 144.94 177.01 L 144.58 177.94 C 144.22 178.88 144.69 179.94 145.63 180.30 C 146.57 180.67 147.63 180.20 147.99 179.26 Z M 148.36 178.32 L 148.70 177.40 C 149.06 176.46 148.58 175.40 147.64 175.04 C 146.69 174.69 145.64 175.16 145.28 176.11 L 144.93 177.03 C 144.58 177.97 145.05 179.03 146.00 179.39 C 146.94 179.74 148.00 179.27 148.36 178.32 Z M 148.71 177.39 L 149.05 176.47 C 149.40 175.52 148.91 174.47 147.96 174.12 C 147.02 173.77 145.96 174.25 145.62 175.20 L 145.28 176.12 C 144.93 177.07 145.41 178.12 146.36 178.47 C 147.31 178.82 148.36 178.33 148.71 177.39 Z M 149.05 176.45 L 149.38 175.53 C 149.73 174.58 149.23 173.53 148.28 173.19 C 147.34 172.85 146.29 173.34 145.95 174.29 L 145.61 175.21 C 145.27 176.16 145.76 177.21 146.71 177.55 C 147.66 177.90 148.71 177.40 149.05 176.45 Z M 149.39 175.52 L 149.72 174.58 C 150.05 173.63 149.55 172.59 148.60 172.25 C 147.65 171.91 146.61 172.41 146.27 173.36 L 145.94 174.30 C 145.61 175.25 146.11 176.29 147.06 176.63 C 148.01 176.97 149.05 176.47 149.39 175.52 Z M 149.72 174.57 L 150.05 173.62 C 150.38 172.66 149.87 171.63 148.92 171.30 C 147.97 170.97 146.93 171.47 146.60 172.42 L 146.27 173.37 C 145.94 174.33 146.45 175.37 147.40 175.70 C 148.35 176.03 149.39 175.52 149.72 174.57 Z M 150.05 173.61 L 150.38 172.64 C 150.71 171.68 150.19 170.65 149.24 170.32 C 148.29 170.00 147.25 170.51 146.93 171.46 L 146.60 172.43 C 146.27 173.39 146.78 174.42 147.74 174.75 C 148.69 175.07 149.73 174.56 150.05 173.61 Z M 150.38 172.63 L 150.71 171.66 C 151.03 170.70 150.51 169.67 149.56 169.35 C 148.60 169.03 147.57 169.55 147.25 170.50 L 146.92 171.47 C 146.61 172.43 147.12 173.46 148.08 173.78 C 149.03 174.10 150.06 173.58 150.38 172.63 Z M 150.71 171.65 L 151.03 170.70 C 151.34 169.74 150.82 168.71 149.86 168.40 C 148.90 168.08 147.87 168.60 147.56 169.56 L 147.25 170.51 C 146.93 171.47 147.45 172.50 148.41 172.81 C 149.37 173.13 150.40 172.61 150.71 171.65 Z M 151.03 170.69 L 151.34 169.73 C 151.65 168.77 151.13 167.74 150.17 167.43 C 149.21 167.11 148.17 167.64 147.86 168.60 L 147.55 169.57 C 147.24 170.53 147.77 171.56 148.73 171.87 C 149.69 172.18 150.72 171.65 151.03 170.69 Z M 151.35 169.72 L 151.66 168.74 C 151.96 167.78 151.43 166.75 150.46 166.44 C 149.50 166.14 148.47 166.67 148.17 167.64 L 147.86 168.61 C 147.55 169.58 148.09 170.61 149.05 170.91 C 150.02 171.21 151.04 170.68 151.35 169.72 Z M 151.66 168.73 L 151.97 167.75 C 152.26 166.78 151.72 165.75 150.75 165.45 C 149.79 165.16 148.76 165.70 148.46 166.67 L 148.16 167.65 C 147.86 168.62 148.40 169.64 149.37 169.94 C 150.34 170.24 151.37 169.70 151.66 168.73 Z M 151.97 167.73 L 152.27 166.75 C 152.56 165.78 152.00 164.75 151.03 164.46 C 150.06 164.17 149.04 164.73 148.75 165.70 L 148.45 166.68 C 148.16 167.65 148.72 168.68 149.69 168.97 C 150.66 169.26 151.68 168.70 151.97 167.73 Z M 152.27 166.73 L 152.56 165.75 C 152.84 164.78 152.27 163.76 151.30 163.48 C 150.32 163.20 149.30 163.76 149.02 164.74 L 148.74 165.72 C 148.46 166.69 149.02 167.71 150.00 167.99 C 150.98 168.27 151.99 167.71 152.27 166.73 Z M 152.56 165.73 L 152.83 164.77 C 153.10 163.79 152.52 162.77 151.54 162.50 C 150.56 162.23 149.55 162.81 149.28 163.79 L 149.01 164.76 C 148.74 165.74 149.32 166.75 150.30 167.02 C 151.28 167.29 152.29 166.72 152.56 165.73 Z M 152.84 164.74 L 153.09 163.79 C 153.34 162.80 152.75 161.80 151.77 161.54 C 150.78 161.28 149.77 161.87 149.52 162.86 L 149.27 163.81 C 149.01 164.80 149.60 165.81 150.59 166.06 C 151.58 166.32 152.58 165.73 152.84 164.74 Z M 153.10 163.76 L 153.32 162.83 C 153.57 161.84 152.96 160.84 151.97 160.60 C 150.98 160.36 149.98 160.96 149.73 161.95 L 149.51 162.89 C 149.27 163.88 149.87 164.88 150.86 165.12 C 151.86 165.36 152.86 164.75 153.10 163.76 Z M 153.34 162.80 L 153.57 161.74 C 153.79 160.75 153.16 159.76 152.17 159.53 C 151.17 159.31 150.18 159.94 149.96 160.94 L 149.72 161.99 C 149.50 162.99 150.13 163.98 151.13 164.20 C 152.13 164.42 153.11 163.79 153.34 162.80 Z M 153.59 161.70 L 153.89 160.18 C 154.08 159.17 153.42 158.19 152.41 157.99 C 151.40 157.80 150.42 158.46 150.23 159.47 L 149.93 160.99 C 149.74 162.00 150.40 162.98 151.41 163.17 C 152.42 163.37 153.40 162.71 153.59 161.70 Z M 153.91 160.12 L 154.12 158.79 C 154.29 157.77 153.59 156.80 152.56 156.64 C 151.54 156.48 150.57 157.18 150.41 158.20 L 150.20 159.53 C 150.04 160.55 150.74 161.52 151.76 161.68 C 152.79 161.84 153.75 161.14 153.91 160.12 Z M 154.15 158.73 L 154.28 157.68 C 154.40 156.64 153.66 155.69 152.62 155.57 C 151.58 155.44 150.64 156.18 150.51 157.22 L 150.38 158.27 C 150.26 159.31 151.00 160.26 152.04 160.38 C 153.08 160.51 154.02 159.77 154.15 158.73 Z M 154.31 157.58 L 154.35 156.89 C 154.42 155.84 153.62 154.93 152.56 154.86 C 151.51 154.79 150.60 155.59 150.53 156.64 L 150.48 157.33 C 150.41 158.38 151.21 159.29 152.27 159.36 C 153.33 159.43 154.24 158.63 154.31 157.58 Z M 154.35 156.46 L 154.31 156.22 C 154.14 155.17 153.14 154.45 152.09 154.62 C 151.04 154.80 150.32 155.79 150.49 156.84 L 150.53 157.08 C 150.70 158.13 151.69 158.85 152.75 158.68 C 153.80 158.50 154.52 157.51 154.35 156.46 Z M 150.63 155.72 L 150.53 155.94 C 150.08 156.91 150.51 158.07 151.49 158.52 C 152.47 158.96 153.62 158.53 154.07 157.56 L 154.17 157.34 C 154.62 156.36 154.19 155.21 153.21 154.76 C 152.23 154.32 151.08 154.74 150.63 155.72 Z M 150.41 156.26 L 150.28 156.75 C 150.01 157.80 150.64 158.87 151.68 159.14 C 152.73 159.41 153.79 158.78 154.06 157.74 L 154.19 157.24 C 154.46 156.19 153.84 155.13 152.79 154.86 C 151.75 154.59 150.68 155.21 150.41 156.26 Z M 150.26 156.83 L 150.10 157.58 C 149.87 158.63 150.54 159.68 151.59 159.91 C 152.65 160.14 153.69 159.46 153.92 158.41 L 154.09 157.66 C 154.32 156.60 153.65 155.56 152.59 155.33 C 151.53 155.10 150.49 155.77 150.26 156.83 Z M 150.08 157.61 L 149.90 158.57 C 149.69 159.63 150.38 160.66 151.45 160.87 C 152.51 161.08 153.54 160.39 153.75 159.32 L 153.94 158.37 C 154.15 157.31 153.45 156.27 152.39 156.07 C 151.32 155.86 150.29 156.55 150.08 157.61 Z M 149.89 158.59 L 149.68 159.71 C 149.49 160.78 150.20 161.80 151.27 162.00 C 152.34 162.19 153.36 161.48 153.56 160.41 L 153.76 159.30 C 153.95 158.23 153.24 157.20 152.18 157.01 C 151.11 156.81 150.08 157.52 149.89 158.59 Z M 149.68 159.73 L 149.46 160.97 C 149.28 162.04 150.00 163.06 151.08 163.24 C 152.15 163.43 153.17 162.71 153.35 161.63 L 153.56 160.39 C 153.75 159.32 153.03 158.30 151.95 158.12 C 150.88 157.93 149.86 158.65 149.68 159.73 Z M 149.46 160.99 L 149.24 162.31 C 149.07 163.39 149.81 164.40 150.88 164.57 C 151.96 164.75 152.98 164.01 153.15 162.93 L 153.36 161.61 C 153.53 160.53 152.80 159.52 151.72 159.35 C 150.64 159.17 149.63 159.91 149.46 160.99 Z M 149.24 162.33 L 149.03 163.69 C 148.87 164.77 149.62 165.78 150.70 165.94 C 151.78 166.10 152.79 165.36 152.95 164.27 L 153.16 162.91 C 153.32 161.83 152.57 160.82 151.49 160.66 C 150.41 160.50 149.40 161.24 149.24 162.33 Z M 149.03 163.71 L 148.89 164.71 C 148.74 165.80 149.49 166.80 150.58 166.96 C 151.67 167.11 152.67 166.35 152.82 165.26 L 152.96 164.25 C 153.11 163.17 152.35 162.16 151.27 162.01 C 150.18 161.86 149.18 162.62 149.03 163.71 Z M 148.88 164.73 L 148.76 165.71 C 148.61 166.79 149.38 167.79 150.47 167.93 C 151.55 168.08 152.55 167.31 152.69 166.22 L 152.82 165.25 C 152.97 164.16 152.20 163.16 151.11 163.02 C 150.02 162.88 149.03 163.64 148.88 164.73 Z M 148.75 165.72 L 148.63 166.70 C 148.50 167.79 149.27 168.78 150.36 168.91 C 151.45 169.05 152.44 168.27 152.58 167.18 L 152.70 166.21 C 152.83 165.12 152.06 164.13 150.97 163.99 C 149.88 163.86 148.89 164.63 148.75 165.72 Z M 148.63 166.71 L 148.52 167.69 C 148.39 168.78 149.17 169.77 150.26 169.90 C 151.35 170.02 152.34 169.24 152.47 168.15 L 152.58 167.17 C 152.71 166.08 151.92 165.09 150.83 164.97 C 149.74 164.84 148.76 165.62 148.63 166.71 Z M 148.52 167.71 L 148.41 168.69 C 148.29 169.78 149.08 170.76 150.17 170.88 C 151.26 171.00 152.24 170.21 152.36 169.12 L 152.47 168.13 C 152.59 167.04 151.80 166.06 150.71 165.94 C 149.61 165.83 148.63 166.61 148.52 167.71 Z M 148.41 168.70 L 148.31 169.69 C 148.19 170.78 148.99 171.76 150.08 171.87 C 151.18 171.98 152.15 171.18 152.26 170.09 L 152.36 169.10 C 152.48 168.01 151.68 167.04 150.59 166.92 C 149.49 166.81 148.52 167.61 148.41 168.70 Z M 148.30 169.70 L 148.21 170.69 C 148.10 171.79 148.91 172.76 150.00 172.86 C 151.09 172.97 152.07 172.17 152.17 171.07 L 152.27 170.08 C 152.37 168.99 151.57 168.01 150.47 167.91 C 149.38 167.80 148.41 168.61 148.30 169.70 Z M 148.21 170.71 L 148.12 171.71 C 148.02 172.80 148.83 173.77 149.92 173.87 C 151.02 173.97 151.98 173.16 152.08 172.06 L 152.17 171.06 C 152.27 169.97 151.46 169.00 150.37 168.90 C 149.27 168.80 148.31 169.61 148.21 170.71 Z M 148.12 171.72 L 148.03 172.73 C 147.94 173.83 148.75 174.79 149.85 174.88 C 150.94 174.98 151.91 174.16 152.00 173.07 L 152.08 172.05 C 152.18 170.96 151.36 170.00 150.27 169.90 C 149.17 169.81 148.21 170.62 148.12 171.72 Z M 148.03 172.74 L 147.95 173.77 C 147.86 174.86 148.68 175.82 149.77 175.91 C 150.87 176.00 151.83 175.18 151.92 174.08 L 152.00 173.06 C 152.09 171.96 151.27 171.00 150.17 170.91 C 149.08 170.83 148.12 171.64 148.03 172.74 Z M 147.95 173.77 L 147.87 174.78 C 147.79 175.88 148.61 176.84 149.71 176.92 C 150.80 177.00 151.76 176.18 151.84 175.08 L 151.92 174.07 C 152.00 172.98 151.18 172.02 150.08 171.94 C 148.99 171.85 148.03 172.68 147.95 173.77 Z M 147.87 174.79 L 147.80 175.74 C 147.72 176.84 148.55 177.79 149.64 177.87 C 150.74 177.95 151.70 177.13 151.78 176.03 L 151.84 175.08 C 151.92 173.98 151.10 173.03 150.00 172.95 C 148.90 172.87 147.95 173.69 147.87 174.79 Z M 147.80 175.75 L 147.73 176.71 C 147.66 177.81 148.49 178.76 149.59 178.84 C 150.68 178.91 151.64 178.08 151.71 176.98 L 151.78 176.02 C 151.85 174.92 151.02 173.97 149.92 173.90 C 148.83 173.82 147.87 174.65 147.80 175.75 Z M 147.73 176.72 L 147.67 177.69 C 147.60 178.79 148.43 179.74 149.53 179.81 C 150.63 179.88 151.58 179.05 151.65 177.95 L 151.71 176.98 C 151.78 175.88 150.95 174.93 149.85 174.86 C 148.75 174.79 147.80 175.62 147.73 176.72 Z M 147.67 177.70 L 147.61 178.68 C 147.54 179.78 148.38 180.73 149.48 180.79 C 150.58 180.86 151.52 180.02 151.59 178.93 L 151.65 177.94 C 151.72 176.84 150.88 175.90 149.78 175.83 C 148.68 175.77 147.74 176.60 147.67 177.70 Z M 147.61 178.69 L 147.55 179.68 C 147.49 180.78 148.33 181.72 149.43 181.79 C 150.53 181.85 151.47 181.01 151.53 179.91 L 151.59 178.92 C 151.65 177.82 150.81 176.88 149.71 176.81 C 148.61 176.75 147.67 177.59 147.61 178.69 Z M 147.55 179.69 L 147.50 180.69 C 147.44 181.79 148.29 182.73 149.38 182.79 C 150.48 182.85 151.42 182.00 151.48 180.90 L 151.53 179.90 C 151.59 178.80 150.75 177.87 149.65 177.81 C 148.55 177.75 147.61 178.59 147.55 179.69 Z M 147.50 180.70 L 147.45 181.71 C 147.40 182.81 148.24 183.74 149.34 183.80 C 150.44 183.85 151.38 183.00 151.43 181.91 L 151.48 180.90 C 151.53 179.80 150.69 178.86 149.59 178.81 C 148.49 178.75 147.55 179.60 147.50 180.70 Z M 147.45 181.72 L 147.40 182.74 C 147.35 183.83 148.21 184.77 149.31 184.82 C 150.41 184.86 151.34 184.01 151.39 182.91 L 151.43 181.90 C 151.48 180.80 150.63 179.87 149.53 179.82 C 148.43 179.77 147.50 180.62 147.45 181.72 Z M 147.40 182.74 L 147.36 183.77 C 147.32 184.87 148.17 185.80 149.27 185.84 C 150.37 185.88 151.30 185.03 151.34 183.93 L 151.39 182.91 C 151.43 181.81 150.58 180.88 149.48 180.83 C 148.38 180.79 147.45 181.64 147.40 182.74 Z M 147.36 183.78 L 147.32 184.81 C 147.28 185.91 148.14 186.83 149.24 186.87 C 150.34 186.91 151.27 186.05 151.31 184.95 L 151.35 183.92 C 151.39 182.82 150.53 181.90 149.43 181.86 C 148.33 181.82 147.40 182.68 147.36 183.78 Z M 147.32 184.82 L 147.29 185.85 C 147.26 186.95 148.12 187.87 149.22 187.91 C 150.32 187.94 151.24 187.08 151.28 185.98 L 151.31 184.94 C 151.34 183.84 150.48 182.92 149.38 182.89 C 148.28 182.85 147.36 183.71 147.32 184.82 Z M 147.29 185.86 L 147.26 186.84 C 147.23 187.94 148.10 188.85 149.20 188.88 C 150.30 188.91 151.22 188.05 151.25 186.94 L 151.28 185.97 C 151.31 184.87 150.44 183.95 149.34 183.92 C 148.24 183.89 147.32 184.76 147.29 185.86 Z M 147.26 186.85 L 147.24 187.77 C 147.22 188.87 148.09 189.78 149.19 189.81 C 150.29 189.83 151.20 188.96 151.23 187.86 L 151.25 186.94 C 151.27 185.84 150.40 184.92 149.30 184.90 C 148.20 184.87 147.29 185.75 147.26 186.85 Z M 147.24 187.78 L 147.23 188.71 C 147.21 189.81 148.08 190.71 149.18 190.73 C 150.28 190.75 151.19 189.88 151.21 188.78 L 151.23 187.85 C 151.25 186.75 150.37 185.84 149.27 185.82 C 148.17 185.80 147.26 186.68 147.24 187.78 Z M 147.23 188.72 L 147.21 189.65 C 147.20 190.75 148.08 191.66 149.18 191.67 C 150.28 191.69 151.19 190.81 151.20 189.70 L 151.21 188.77 C 151.23 187.67 150.35 186.76 149.25 186.75 C 148.14 186.73 147.24 187.61 147.23 188.72 Z M 147.21 189.66 L 147.21 190.61 C 147.20 191.71 148.08 192.61 149.18 192.62 C 150.28 192.63 151.18 191.74 151.19 190.64 L 151.20 189.69 C 151.21 188.59 150.32 187.69 149.22 187.69 C 148.12 187.68 147.22 188.56 147.21 189.66 Z M 147.21 190.62 L 147.20 191.58 C 147.20 192.68 148.09 193.58 149.19 193.58 C 150.29 193.58 151.19 192.69 151.19 191.59 L 151.19 190.63 C 151.20 189.53 150.31 188.64 149.20 188.63 C 148.10 188.63 147.21 189.52 147.21 190.62 Z M 147.20 191.59 L 147.21 192.57 C 147.21 193.67 148.10 194.56 149.20 194.55 C 150.31 194.55 151.19 193.66 151.19 192.56 L 151.19 191.58 C 151.19 190.48 150.29 189.59 149.19 189.59 C 148.09 189.60 147.20 190.49 147.20 191.59 Z M 147.21 192.58 L 147.22 193.57 C 147.22 194.67 148.12 195.55 149.22 195.55 C 150.32 195.54 151.21 194.64 151.20 193.54 L 151.19 192.55 C 151.18 191.45 150.28 190.56 149.18 190.57 C 148.08 190.58 147.20 191.48 147.21 192.58 Z M 147.22 193.58 L 147.23 194.59 C 147.24 195.69 148.15 196.57 149.25 196.55 C 150.35 196.54 151.23 195.64 151.21 194.54 L 151.20 193.53 C 151.18 192.43 150.28 191.55 149.18 191.56 C 148.08 191.58 147.20 192.48 147.22 193.58 Z M 147.23 194.60 L 147.25 195.63 C 147.27 196.73 148.18 197.61 149.28 197.58 C 150.38 197.56 151.25 196.65 151.23 195.55 L 151.21 194.52 C 151.19 193.42 150.28 192.55 149.18 192.57 C 148.08 192.59 147.21 193.50 147.23 194.60 Z M 147.25 195.64 L 147.28 196.69 C 147.30 197.79 148.22 198.66 149.32 198.64 C 150.42 198.61 151.29 197.69 151.26 196.59 L 151.23 195.54 C 151.21 194.44 150.29 193.57 149.19 193.60 C 148.09 193.63 147.22 194.54 147.25 195.64 Z M 147.28 196.71 L 147.31 197.78 C 147.34 198.88 148.26 199.75 149.36 199.71 C 150.46 199.68 151.33 198.76 151.29 197.66 L 151.26 196.58 C 151.22 195.48 150.31 194.62 149.21 194.65 C 148.11 194.69 147.24 195.61 147.28 196.71 Z M 147.31 197.79 L 147.35 198.90 C 147.39 200.00 148.31 200.85 149.41 200.81 C 150.51 200.77 151.37 199.85 151.33 198.75 L 151.29 197.65 C 151.25 196.55 150.33 195.69 149.23 195.73 C 148.13 195.77 147.27 196.69 147.31 197.79 Z M 147.35 198.91 L 147.40 200.01 C 147.44 201.11 148.37 201.96 149.47 201.92 C 150.57 201.87 151.42 200.94 151.38 199.84 L 151.33 198.74 C 151.28 197.64 150.36 196.79 149.26 196.83 C 148.16 196.88 147.31 197.81 147.35 198.91 Z M 147.40 200.02 L 147.44 201.01 C 147.50 202.11 148.43 202.96 149.53 202.90 C 150.62 202.85 151.47 201.92 151.42 200.82 L 151.38 199.83 C 151.32 198.73 150.39 197.89 149.29 197.94 C 148.20 197.99 147.35 198.92 147.40 200.02 Z M 147.45 201.02 L 147.50 202.03 C 147.56 203.12 148.49 203.97 149.59 203.91 C 150.69 203.85 151.53 202.92 151.47 201.82 L 151.42 200.81 C 151.36 199.71 150.43 198.87 149.33 198.93 C 148.23 198.99 147.39 199.92 147.45 201.02 Z M 147.50 202.04 L 147.56 203.06 C 147.62 204.15 148.56 204.99 149.66 204.93 C 150.75 204.87 151.59 203.93 151.53 202.83 L 151.47 201.81 C 151.41 200.71 150.47 199.87 149.37 199.94 C 148.27 200.00 147.44 200.94 147.50 202.04 Z M 147.56 203.07 L 147.63 204.10 C 147.69 205.20 148.64 206.03 149.74 205.96 C 150.83 205.89 151.66 204.94 151.59 203.85 L 151.53 202.82 C 151.46 201.72 150.51 200.89 149.42 200.96 C 148.32 201.03 147.49 201.97 147.56 203.07 Z M 147.63 204.11 L 147.70 205.15 C 147.78 206.24 148.73 207.07 149.82 206.99 C 150.92 206.92 151.74 205.97 151.66 204.87 L 151.59 203.83 C 151.52 202.74 150.57 201.91 149.47 201.99 C 148.38 202.07 147.55 203.02 147.63 204.11 Z M 147.70 205.16 L 147.78 206.20 C 147.87 207.30 148.82 208.11 149.92 208.03 C 151.01 207.94 151.83 206.99 151.74 205.90 L 151.66 204.86 C 151.58 203.76 150.62 202.94 149.53 203.03 C 148.43 203.11 147.62 204.07 147.70 205.16 Z M 147.78 206.22 L 147.87 207.25 C 147.97 208.35 148.93 209.16 150.02 209.07 C 151.11 208.97 151.92 208.01 151.83 206.92 L 151.74 205.88 C 151.65 204.79 150.69 203.98 149.59 204.07 C 148.50 204.16 147.69 205.12 147.78 206.22 Z M 147.87 207.27 L 147.97 208.30 C 148.07 209.40 149.04 210.20 150.13 210.09 C 151.23 209.99 152.03 209.02 151.92 207.93 L 151.83 206.90 C 151.72 205.81 150.76 205.01 149.67 205.11 C 148.57 205.21 147.77 206.18 147.87 207.27 Z M 147.97 208.32 L 148.08 209.35 C 148.19 210.44 149.17 211.23 150.26 211.12 C 151.35 211.00 152.14 210.03 152.03 208.94 L 151.92 207.91 C 151.81 206.82 150.83 206.03 149.74 206.14 C 148.65 206.26 147.86 207.23 147.97 208.32 Z M 148.08 209.37 L 148.20 210.38 C 148.32 211.47 149.31 212.25 150.39 212.12 C 151.48 212.00 152.26 211.02 152.14 209.93 L 152.03 208.92 C 151.90 207.83 150.92 207.05 149.83 207.17 C 148.74 207.30 147.96 208.28 148.08 209.37 Z M 148.20 210.40 L 148.33 211.39 C 148.46 212.48 149.46 213.25 150.54 213.11 C 151.63 212.98 152.40 211.99 152.26 210.90 L 152.14 209.90 C 152.00 208.82 151.01 208.05 149.92 208.19 C 148.83 208.32 148.07 209.31 148.20 210.40 Z M 148.33 211.42 L 148.47 212.39 C 148.62 213.48 149.62 214.24 150.70 214.08 C 151.79 213.93 152.55 212.93 152.39 211.85 L 152.26 210.87 C 152.11 209.79 151.11 209.03 150.02 209.18 C 148.94 209.33 148.18 210.34 148.33 211.42 Z M 148.47 212.42 L 148.62 213.37 C 148.79 214.45 149.80 215.20 150.88 215.03 C 151.96 214.86 152.70 213.85 152.54 212.77 L 152.39 211.82 C 152.22 210.74 151.21 210.00 150.13 210.16 C 149.05 210.33 148.31 211.34 148.47 212.42 Z M 148.62 213.40 L 148.78 214.33 C 148.97 215.41 149.99 216.13 151.07 215.95 C 152.15 215.76 152.87 214.74 152.69 213.66 L 152.53 212.74 C 152.35 211.66 151.32 210.93 150.24 211.12 C 149.17 211.30 148.44 212.33 148.62 213.40 Z M 148.79 214.36 L 148.96 215.25 C 149.16 216.33 150.20 217.03 151.27 216.83 C 152.35 216.63 153.05 215.59 152.85 214.51 L 152.68 213.62 C 152.48 212.55 151.44 211.84 150.37 212.05 C 149.29 212.25 148.59 213.29 148.79 214.36 Z M 148.97 215.30 L 149.20 216.36 C 149.43 217.43 150.48 218.11 151.55 217.88 C 152.62 217.65 153.30 216.60 153.07 215.53 L 152.84 214.47 C 152.61 213.40 151.56 212.72 150.49 212.95 C 149.42 213.18 148.74 214.23 148.97 215.30 Z M 149.22 216.42 L 149.50 217.57 C 149.76 218.63 150.83 219.28 151.89 219.01 C 152.95 218.75 153.60 217.68 153.33 216.62 L 153.05 215.48 C 152.79 214.42 151.72 213.77 150.66 214.03 C 149.60 214.29 148.95 215.36 149.22 216.42 Z M 149.52 217.64 L 149.83 218.72 C 150.13 219.76 151.22 220.37 152.26 220.07 C 153.31 219.78 153.92 218.69 153.62 217.64 L 153.31 216.56 C 153.01 215.51 151.92 214.90 150.88 215.20 C 149.83 215.50 149.22 216.59 149.52 217.64 Z M 149.85 218.79 L 150.18 219.80 C 150.52 220.84 151.63 221.40 152.66 221.07 C 153.69 220.73 154.26 219.62 153.93 218.59 L 153.60 217.57 C 153.26 216.54 152.15 215.97 151.12 216.31 C 150.08 216.64 149.52 217.75 149.85 218.79 Z M 150.21 219.87 L 150.57 220.84 C 150.94 221.85 152.07 222.38 153.08 222.00 C 154.10 221.63 154.62 220.50 154.25 219.49 L 153.90 218.52 C 153.52 217.50 152.40 216.98 151.38 217.36 C 150.36 217.73 149.84 218.86 150.21 219.87 Z M 150.60 220.90 L 150.97 221.82 C 151.38 222.82 152.53 223.29 153.53 222.88 C 154.53 222.47 155.00 221.33 154.59 220.33 L 154.22 219.42 C 153.81 218.42 152.66 217.94 151.66 218.35 C 150.66 218.76 150.19 219.90 150.60 220.90 Z M 151.00 221.88 L 151.40 222.75 C 151.85 223.73 153.01 224.16 153.99 223.71 C 154.97 223.27 155.40 222.11 154.95 221.13 L 154.56 220.26 C 154.11 219.28 152.95 218.85 151.97 219.29 C 150.99 219.74 150.56 220.90 151.00 221.88 Z M 151.44 222.81 L 151.85 223.64 C 152.33 224.60 153.51 224.99 154.47 224.50 C 155.43 224.02 155.82 222.84 155.33 221.88 L 154.92 221.06 C 154.43 220.10 153.26 219.71 152.30 220.20 C 151.34 220.68 150.95 221.85 151.44 222.81 Z M 151.89 223.70 L 152.32 224.49 C 152.84 225.43 154.02 225.77 154.97 225.25 C 155.91 224.73 156.25 223.55 155.73 222.61 L 155.30 221.82 C 154.78 220.88 153.59 220.54 152.65 221.06 C 151.71 221.58 151.37 222.76 151.89 223.70 Z M 152.36 224.55 L 152.81 225.30 C 153.36 226.22 154.56 226.52 155.48 225.97 C 156.40 225.42 156.70 224.23 156.14 223.31 L 155.69 222.55 C 155.14 221.63 153.95 221.33 153.03 221.88 C 152.11 222.43 151.81 223.62 152.36 224.55 Z M 152.85 225.35 L 153.32 226.08 C 153.90 226.98 155.10 227.24 156.00 226.66 C 156.90 226.08 157.16 224.88 156.58 223.98 L 156.11 223.25 C 155.53 222.35 154.33 222.09 153.43 222.67 C 152.53 223.25 152.27 224.45 152.85 225.35 Z M 153.36 226.13 L 153.92 226.94 C 154.52 227.82 155.73 228.04 156.61 227.43 C 157.49 226.83 157.71 225.62 157.10 224.74 L 156.54 223.93 C 155.93 223.06 154.73 222.84 153.85 223.44 C 152.97 224.05 152.75 225.25 153.36 226.13 Z M 153.96 226.99 L 154.58 227.83 C 155.22 228.68 156.42 228.86 157.28 228.22 C 158.13 227.59 158.31 226.38 157.68 225.53 L 157.06 224.69 C 156.42 223.84 155.21 223.66 154.36 224.30 C 153.50 224.93 153.32 226.14 153.96 226.99 Z M 154.63 227.88 L 155.27 228.68 C 155.94 229.51 157.15 229.64 157.98 228.98 C 158.81 228.31 158.94 227.10 158.27 226.27 L 157.63 225.47 C 156.96 224.64 155.75 224.51 154.92 225.18 C 154.09 225.84 153.96 227.05 154.63 227.88 Z M 155.33 228.74 L 155.99 229.50 C 156.69 230.30 157.90 230.39 158.70 229.69 C 159.50 228.99 159.58 227.78 158.89 226.98 L 158.22 226.22 C 157.52 225.42 156.31 225.34 155.51 226.03 C 154.71 226.73 154.63 227.94 155.33 228.74 Z M 156.05 229.56 L 156.74 230.29 C 157.47 231.06 158.68 231.09 159.45 230.36 C 160.21 229.63 160.25 228.42 159.52 227.66 L 158.83 226.93 C 158.10 226.16 156.89 226.13 156.12 226.85 C 155.36 227.58 155.32 228.79 156.05 229.56 Z M 156.80 230.34 L 157.52 231.03 C 158.28 231.77 159.48 231.74 160.22 230.99 C 160.95 230.23 160.93 229.02 160.17 228.29 L 159.46 227.60 C 158.70 226.87 157.49 226.89 156.76 227.65 C 156.03 228.40 156.05 229.61 156.80 230.34 Z M 157.59 231.09 L 158.32 231.74 C 159.11 232.43 160.31 232.35 161.01 231.56 C 161.70 230.77 161.63 229.57 160.84 228.88 L 160.10 228.23 C 159.31 227.54 158.11 227.61 157.41 228.40 C 156.72 229.19 156.80 230.40 157.59 231.09 Z M 158.40 231.79 L 159.15 232.40 C 159.98 233.05 161.17 232.91 161.82 232.09 C 162.48 231.27 162.34 230.08 161.52 229.42 L 160.76 228.82 C 159.94 228.17 158.75 228.30 158.09 229.13 C 157.44 229.95 157.58 231.14 158.40 231.79 Z M 159.24 232.45 L 160.02 233.01 C 160.87 233.61 162.05 233.42 162.66 232.57 C 163.26 231.71 163.07 230.53 162.22 229.92 L 161.44 229.37 C 160.59 228.76 159.40 228.96 158.80 229.81 C 158.19 230.66 158.39 231.84 159.24 232.45 Z M 160.10 233.06 L 160.87 233.55 C 161.75 234.11 162.92 233.85 163.48 232.97 C 164.04 232.09 163.78 230.92 162.90 230.36 L 162.13 229.87 C 161.25 229.31 160.08 229.57 159.52 230.45 C 158.96 231.33 159.22 232.50 160.10 233.06 Z M 160.97 233.60 L 161.75 234.04 C 162.66 234.55 163.81 234.22 164.32 233.31 C 164.82 232.41 164.50 231.26 163.59 230.75 L 162.81 230.31 C 161.90 229.80 160.75 230.13 160.24 231.04 C 159.73 231.94 160.06 233.09 160.97 233.60 Z M 161.85 234.09 L 162.66 234.48 C 163.60 234.94 164.72 234.55 165.18 233.61 C 165.63 232.68 165.24 231.55 164.31 231.10 L 163.49 230.70 C 162.56 230.25 161.43 230.64 160.98 231.57 C 160.53 232.51 160.91 233.63 161.85 234.09 Z M 162.76 234.52 L 163.62 234.88 C 164.57 235.28 165.67 234.82 166.07 233.87 C 166.47 232.91 166.02 231.81 165.06 231.41 L 164.21 231.06 C 163.25 230.66 162.15 231.11 161.75 232.07 C 161.36 233.03 161.81 234.12 162.76 234.52 Z M 163.72 234.91 L 164.61 235.23 C 165.59 235.57 166.66 235.05 167.00 234.08 C 167.34 233.10 166.83 232.03 165.85 231.69 L 164.96 231.38 C 163.98 231.04 162.91 231.55 162.57 232.53 C 162.23 233.50 162.74 234.57 163.72 234.91 Z M 164.71 235.25 L 165.66 235.53 C 166.65 235.82 167.69 235.24 167.97 234.25 C 168.26 233.26 167.69 232.23 166.70 231.94 L 165.75 231.66 C 164.76 231.38 163.73 231.95 163.44 232.94 C 163.15 233.93 163.72 234.97 164.71 235.25 Z M 165.75 235.55 L 166.75 235.78 C 167.76 236.02 168.76 235.40 169.00 234.40 C 169.23 233.40 168.61 232.39 167.61 232.15 L 166.61 231.92 C 165.60 231.68 164.60 232.30 164.36 233.31 C 164.13 234.31 164.75 235.31 165.75 235.55 Z M 166.84 235.80 L 167.91 236.00 C 168.92 236.19 169.89 235.52 170.08 234.51 C 170.27 233.50 169.60 232.53 168.59 232.34 L 167.52 232.14 C 166.51 231.95 165.54 232.62 165.35 233.63 C 165.17 234.64 165.83 235.61 166.84 235.80 Z M 167.99 236.01 L 169.12 236.17 C 170.14 236.32 171.08 235.61 171.23 234.60 C 171.37 233.58 170.67 232.64 169.65 232.50 L 168.51 232.33 C 167.50 232.19 166.56 232.89 166.41 233.90 C 166.27 234.92 166.97 235.86 167.99 236.01 Z M 169.19 236.18 L 170.29 236.29 C 171.31 236.40 172.22 235.67 172.33 234.65 C 172.44 233.63 171.71 232.72 170.69 232.61 L 169.59 232.49 C 168.57 232.38 167.66 233.12 167.55 234.13 C 167.44 235.15 168.17 236.07 169.19 236.18 Z M 170.34 236.30 L 171.24 236.37 C 172.26 236.45 173.15 235.69 173.24 234.67 C 173.32 233.66 172.56 232.76 171.54 232.68 L 170.64 232.61 C 169.62 232.53 168.73 233.28 168.65 234.30 C 168.56 235.32 169.32 236.21 170.34 236.30 Z M 171.28 236.37 L 172.22 236.43 C 173.24 236.49 174.11 235.71 174.17 234.69 C 174.23 233.67 173.45 232.79 172.44 232.73 L 171.50 232.68 C 170.48 232.62 169.61 233.40 169.55 234.42 C 169.49 235.44 170.26 236.31 171.28 236.37 Z M 172.26 236.43 L 173.22 236.46 C 174.24 236.50 175.10 235.70 175.14 234.68 C 175.18 233.66 174.38 232.81 173.36 232.77 L 172.40 232.73 C 171.38 232.70 170.52 233.49 170.48 234.51 C 170.44 235.53 171.24 236.39 172.26 236.43 Z M 173.26 236.46 L 174.25 236.48 C 175.27 236.49 176.11 235.68 176.13 234.66 C 176.14 233.64 175.33 232.80 174.31 232.79 L 173.32 232.77 C 172.30 232.75 171.46 233.57 171.45 234.59 C 171.43 235.61 172.24 236.44 173.26 236.46 Z M 174.29 236.48 L 175.30 236.47 C 176.32 236.46 177.14 235.63 177.13 234.62 C 177.13 233.60 176.30 232.78 175.28 232.78 L 174.27 232.79 C 173.25 232.79 172.43 233.62 172.44 234.64 C 172.44 235.66 173.27 236.48 174.29 236.48 Z M 175.34 236.47 L 176.36 236.44 C 177.38 236.41 178.18 235.57 178.16 234.55 C 178.13 233.53 177.28 232.73 176.27 232.76 L 175.24 232.78 C 174.23 232.81 173.42 233.66 173.45 234.68 C 173.48 235.69 174.32 236.49 175.34 236.47 Z M 176.40 236.44 L 177.44 236.39 C 178.45 236.34 179.23 235.47 179.19 234.46 C 179.14 233.44 178.27 232.66 177.26 232.71 L 176.22 232.76 C 175.21 232.81 174.43 233.67 174.48 234.69 C 174.53 235.70 175.39 236.49 176.40 236.44 Z M 177.48 236.38 L 178.52 236.31 C 179.53 236.24 180.29 235.36 180.22 234.34 C 180.14 233.33 179.26 232.57 178.25 232.64 L 177.22 232.71 C 176.20 232.79 175.44 233.67 175.51 234.68 C 175.59 235.69 176.47 236.45 177.48 236.38 Z M 178.56 236.30 L 179.59 236.20 C 180.60 236.11 181.34 235.21 181.25 234.20 C 181.15 233.19 180.25 232.45 179.24 232.55 L 178.21 232.65 C 177.20 232.74 176.46 233.64 176.56 234.65 C 176.65 235.66 177.55 236.40 178.56 236.30 Z M 179.64 236.20 L 180.67 236.07 C 181.68 235.95 182.39 235.03 182.27 234.03 C 182.15 233.02 181.23 232.31 180.23 232.43 L 179.20 232.55 C 178.19 232.68 177.48 233.59 177.60 234.60 C 177.72 235.60 178.63 236.32 179.64 236.20 Z M 180.72 236.06 L 181.74 235.91 C 182.74 235.76 183.43 234.83 183.28 233.83 C 183.13 232.82 182.20 232.13 181.20 232.28 L 180.18 232.44 C 179.18 232.59 178.49 233.52 178.64 234.52 C 178.79 235.52 179.72 236.21 180.72 236.06 Z M 181.79 235.90 L 182.79 235.72 C 183.79 235.54 184.45 234.59 184.27 233.59 C 184.09 232.60 183.14 231.93 182.15 232.11 L 181.14 232.29 C 180.15 232.47 179.49 233.43 179.66 234.42 C 179.84 235.42 180.80 236.08 181.79 235.90 Z M 182.85 235.71 L 183.83 235.50 C 184.82 235.29 185.45 234.31 185.24 233.33 C 185.03 232.34 184.06 231.71 183.07 231.92 L 182.09 232.13 C 181.10 232.34 180.47 233.31 180.68 234.30 C 180.89 235.29 181.86 235.92 182.85 235.71 Z M 183.90 235.48 L 184.93 235.22 C 185.91 234.98 186.50 233.98 186.25 233.00 C 186.01 232.02 185.01 231.43 184.04 231.68 L 183.01 231.93 C 182.03 232.18 181.43 233.17 181.68 234.15 C 181.92 235.13 182.92 235.73 183.90 235.48 Z M 184.99 235.20 L 185.99 234.91 C 186.96 234.63 187.52 233.62 187.23 232.65 C 186.95 231.68 185.94 231.12 184.97 231.40 L 183.97 231.70 C 183.00 231.98 182.44 232.99 182.73 233.96 C 183.01 234.93 184.02 235.49 184.99 235.20 Z M 186.06 234.89 L 187.03 234.57 C 187.99 234.25 188.50 233.22 188.19 232.26 C 187.87 231.30 186.83 230.79 185.88 231.10 L 184.91 231.43 C 183.95 231.74 183.43 232.78 183.75 233.73 C 184.07 234.69 185.10 235.21 186.06 234.89 Z M 187.09 234.54 L 188.04 234.19 C 188.98 233.84 189.46 232.79 189.11 231.84 C 188.76 230.90 187.71 230.42 186.76 230.77 L 185.82 231.13 C 184.87 231.48 184.39 232.53 184.74 233.47 C 185.10 234.42 186.15 234.90 187.09 234.54 Z M 188.10 234.16 L 189.02 233.78 C 189.95 233.40 190.39 232.33 190.01 231.40 C 189.62 230.47 188.56 230.03 187.63 230.42 L 186.70 230.80 C 185.78 231.18 185.33 232.25 185.72 233.18 C 186.10 234.11 187.17 234.55 188.10 234.16 Z M 189.08 233.76 L 189.98 233.35 C 190.90 232.93 191.30 231.85 190.89 230.94 C 190.47 230.02 189.39 229.62 188.48 230.03 L 187.57 230.44 C 186.66 230.86 186.25 231.94 186.67 232.85 C 187.08 233.77 188.16 234.17 189.08 233.76 Z M 190.03 233.32 L 190.92 232.88 C 191.82 232.44 192.19 231.35 191.74 230.45 C 191.30 229.55 190.21 229.18 189.31 229.62 L 188.42 230.06 C 187.52 230.50 187.15 231.59 187.60 232.49 C 188.04 233.39 189.13 233.76 190.03 233.32 Z M 190.97 232.86 L 191.83 232.39 C 192.72 231.92 193.05 230.82 192.58 229.94 C 192.11 229.05 191.01 228.72 190.12 229.19 L 189.26 229.65 C 188.37 230.12 188.04 231.22 188.51 232.11 C 188.98 232.99 190.08 233.33 190.97 232.86 Z M 191.88 232.37 L 192.73 231.88 C 193.60 231.39 193.90 230.28 193.40 229.41 C 192.91 228.54 191.80 228.23 190.93 228.73 L 190.08 229.21 C 189.21 229.71 188.90 230.82 189.40 231.69 C 189.90 232.56 191.01 232.86 191.88 232.37 Z M 192.77 231.86 L 193.60 231.35 C 194.46 230.83 194.73 229.71 194.21 228.86 C 193.69 228.00 192.58 227.73 191.72 228.25 L 190.89 228.76 C 190.03 229.28 189.76 230.39 190.28 231.25 C 190.80 232.10 191.91 232.38 192.77 231.86 Z M 193.64 231.32 L 194.46 230.80 C 195.30 230.26 195.55 229.14 195.01 228.29 C 194.47 227.45 193.35 227.21 192.50 227.75 L 191.68 228.28 C 190.84 228.82 190.60 229.94 191.14 230.78 C 191.68 231.62 192.80 231.86 193.64 231.32 Z M 194.49 230.77 L 195.30 230.23 C 196.13 229.67 196.35 228.54 195.79 227.71 C 195.24 226.89 194.11 226.67 193.28 227.23 L 192.47 227.77 C 191.64 228.33 191.42 229.46 191.98 230.28 C 192.54 231.11 193.67 231.33 194.49 230.77 Z M 195.33 230.20 L 196.13 229.64 C 196.95 229.07 197.15 227.94 196.57 227.12 C 196.00 226.31 194.87 226.11 194.05 226.68 L 193.25 227.25 C 192.44 227.82 192.24 228.95 192.81 229.77 C 193.39 230.58 194.52 230.78 195.33 230.20 Z M 196.16 229.62 L 196.95 229.04 C 197.76 228.45 197.93 227.32 197.34 226.51 C 196.75 225.71 195.62 225.54 194.81 226.13 L 194.02 226.71 C 193.22 227.30 193.05 228.43 193.64 229.23 C 194.23 230.04 195.36 230.21 196.16 229.62 Z M 196.98 229.02 L 197.76 228.42 C 198.55 227.82 198.71 226.68 198.10 225.89 C 197.49 225.10 196.36 224.94 195.57 225.55 L 194.79 226.15 C 193.99 226.75 193.84 227.89 194.45 228.68 C 195.05 229.47 196.19 229.63 196.98 229.02 Z M 197.79 228.40 L 198.56 227.79 C 199.34 227.17 199.47 226.03 198.85 225.25 C 198.23 224.47 197.09 224.34 196.31 224.96 L 195.54 225.57 C 194.76 226.19 194.63 227.33 195.25 228.11 C 195.87 228.89 197.01 229.02 197.79 228.40 Z M 198.59 227.76 L 199.35 227.13 C 200.12 226.50 200.23 225.36 199.59 224.59 C 198.95 223.82 197.82 223.71 197.05 224.35 L 196.29 224.98 C 195.52 225.62 195.41 226.76 196.05 227.52 C 196.68 228.29 197.82 228.40 198.59 227.76 Z M 199.38 227.11 L 200.13 226.46 C 200.89 225.81 200.97 224.67 200.32 223.92 C 199.67 223.16 198.53 223.07 197.78 223.72 L 197.02 224.37 C 196.27 225.02 196.18 226.16 196.83 226.92 C 197.48 227.67 198.62 227.76 199.38 227.11 Z M 200.16 226.44 L 200.90 225.77 C 201.64 225.11 201.71 223.97 201.04 223.22 C 200.38 222.48 199.24 222.42 198.49 223.08 L 197.75 223.75 C 197.01 224.41 196.94 225.55 197.61 226.30 C 198.27 227.04 199.41 227.10 200.16 226.44 Z M 200.92 225.75 L 201.66 225.06 C 202.39 224.39 202.43 223.25 201.75 222.52 C 201.07 221.79 199.93 221.75 199.20 222.42 L 198.47 223.11 C 197.74 223.78 197.70 224.93 198.38 225.66 C 199.05 226.38 200.20 226.43 200.92 225.75 Z M 201.68 225.04 L 202.41 224.34 C 203.12 223.65 203.14 222.51 202.45 221.79 C 201.76 221.08 200.62 221.06 199.90 221.75 L 199.18 222.45 C 198.46 223.14 198.44 224.28 199.13 225.00 C 199.83 225.71 200.97 225.73 201.68 225.04 Z M 202.43 224.32 L 203.15 223.60 C 203.85 222.89 203.85 221.75 203.14 221.05 C 202.43 220.35 201.29 220.35 200.59 221.06 L 199.88 221.77 C 199.18 222.48 199.18 223.62 199.88 224.32 C 200.59 225.02 201.73 225.02 202.43 224.32 Z M 203.17 223.57 L 203.87 222.84 C 204.56 222.12 204.54 220.98 203.82 220.29 C 203.10 219.60 201.96 219.63 201.27 220.35 L 200.57 221.08 C 199.88 221.80 199.90 222.94 200.62 223.63 C 201.34 224.32 202.48 224.29 203.17 223.57 Z M 203.90 222.81 L 204.59 222.06 C 205.26 221.33 205.22 220.19 204.49 219.52 C 203.76 218.84 202.62 218.89 201.94 219.62 L 201.25 220.37 C 200.57 221.10 200.62 222.24 201.35 222.92 C 202.08 223.59 203.22 223.54 203.90 222.81 Z M 204.61 222.04 L 205.30 221.26 C 205.96 220.52 205.89 219.38 205.15 218.72 C 204.40 218.06 203.27 218.13 202.61 218.87 L 201.92 219.65 C 201.26 220.39 201.33 221.53 202.07 222.19 C 202.81 222.85 203.95 222.78 204.61 222.04 Z M 205.32 221.24 L 206.00 220.44 C 206.65 219.68 206.56 218.54 205.81 217.90 C 205.05 217.25 203.92 217.34 203.27 218.10 L 202.58 218.90 C 201.94 219.65 202.03 220.79 202.78 221.44 C 203.54 222.08 204.67 221.99 205.32 221.24 Z M 206.02 220.41 L 206.70 219.60 C 207.33 218.83 207.22 217.70 206.45 217.07 C 205.69 216.43 204.56 216.54 203.92 217.31 L 203.25 218.12 C 202.62 218.89 202.73 220.02 203.49 220.65 C 204.26 221.29 205.39 221.18 206.02 220.41 Z M 206.71 219.57 L 207.37 218.75 C 207.99 217.98 207.87 216.84 207.09 216.22 C 206.32 215.60 205.18 215.73 204.56 216.51 L 203.91 217.33 C 203.29 218.11 203.41 219.24 204.19 219.86 C 204.96 220.48 206.09 220.35 206.71 219.57 Z M 207.39 218.73 L 208.03 217.90 C 208.64 217.12 208.50 215.99 207.71 215.38 C 206.93 214.77 205.80 214.91 205.19 215.70 L 204.55 216.53 C 203.94 217.31 204.08 218.44 204.87 219.05 C 205.65 219.66 206.78 219.51 207.39 218.73 Z M 208.04 217.88 L 208.67 217.05 C 209.27 216.26 209.11 215.13 208.32 214.54 C 207.53 213.94 206.40 214.10 205.80 214.89 L 205.18 215.72 C 204.58 216.51 204.74 217.64 205.53 218.23 C 206.32 218.83 207.45 218.67 208.04 217.88 Z M 208.68 217.03 L 209.29 216.20 C 209.88 215.40 209.71 214.28 208.91 213.69 C 208.11 213.11 206.99 213.28 206.40 214.08 L 205.79 214.91 C 205.21 215.70 205.38 216.83 206.18 217.41 C 206.97 218.00 208.10 217.83 208.68 217.03 Z M 209.30 216.18 L 209.89 215.36 C 210.47 214.56 210.29 213.44 209.48 212.86 C 208.68 212.28 207.56 212.47 206.98 213.27 L 206.39 214.10 C 205.81 214.90 206.00 216.02 206.80 216.60 C 207.61 217.17 208.73 216.99 209.30 216.18 Z M 209.90 215.35 L 210.47 214.53 C 211.04 213.72 210.84 212.61 210.03 212.04 C 209.22 211.47 208.10 211.67 207.54 212.48 L 206.97 213.29 C 206.40 214.10 206.60 215.22 207.41 215.79 C 208.22 216.35 209.34 216.16 209.90 215.35 Z M 210.48 214.52 L 211.03 213.72 C 211.59 212.90 211.38 211.79 210.56 211.23 C 209.75 210.67 208.63 210.88 208.07 211.70 L 207.53 212.49 C 206.97 213.31 207.18 214.42 207.99 214.98 C 208.81 215.54 209.92 215.33 210.48 214.52 Z M 211.04 213.71 L 211.56 212.93 C 212.11 212.11 211.89 210.99 211.07 210.44 C 210.25 209.89 209.14 210.11 208.59 210.93 L 208.06 211.71 C 207.51 212.53 207.73 213.64 208.55 214.19 C 209.37 214.75 210.49 214.53 211.04 213.71 Z M 211.57 212.91 L 212.07 212.15 C 212.61 211.33 212.38 210.22 211.56 209.68 C 210.73 209.13 209.62 209.36 209.08 210.19 L 208.58 210.94 C 208.04 211.77 208.27 212.88 209.09 213.42 C 209.92 213.97 211.03 213.74 211.57 212.91 Z M 212.08 212.14 L 212.56 211.39 C 213.10 210.56 212.86 209.45 212.03 208.92 C 211.20 208.38 210.09 208.62 209.56 209.45 L 209.07 210.20 C 208.54 211.03 208.77 212.14 209.60 212.67 C 210.43 213.21 211.54 212.97 212.08 212.14 Z M 212.57 211.37 L 213.15 210.46 C 213.67 209.63 213.42 208.52 212.59 208.00 C 211.75 207.47 210.65 207.72 210.12 208.55 L 209.55 209.46 C 209.02 210.30 209.27 211.40 210.11 211.93 C 210.94 212.46 212.04 212.21 212.57 211.37 Z M 213.16 210.44 L 213.69 209.56 C 214.21 208.72 213.94 207.63 213.10 207.11 C 212.26 206.60 211.16 206.86 210.65 207.70 L 210.11 208.58 C 209.60 209.42 209.86 210.52 210.70 211.03 C 211.55 211.54 212.64 211.28 213.16 210.44 Z M 213.71 209.53 L 214.21 208.68 C 214.70 207.83 214.42 206.74 213.57 206.24 C 212.72 205.75 211.63 206.03 211.13 206.88 L 210.63 207.73 C 210.13 208.58 210.42 209.67 211.27 210.17 C 212.12 210.67 213.21 210.38 213.71 209.53 Z M 214.22 208.65 L 214.69 207.81 C 215.17 206.95 214.86 205.86 214.00 205.39 C 213.14 204.91 212.05 205.22 211.58 206.08 L 211.11 206.92 C 210.63 207.78 210.94 208.86 211.80 209.34 C 212.66 209.82 213.75 209.51 214.22 208.65 Z M 214.71 207.76 L 215.15 206.92 C 215.60 206.05 215.27 204.98 214.39 204.52 C 213.52 204.07 212.45 204.41 212.00 205.28 L 211.56 206.12 C 211.10 206.99 211.44 208.06 212.31 208.52 C 213.18 208.97 214.26 208.63 214.71 207.76 Z M 215.17 206.88 L 215.59 206.02 C 216.02 205.14 215.65 204.07 214.77 203.64 C 213.88 203.22 212.82 203.58 212.39 204.47 L 211.98 205.32 C 211.55 206.20 211.91 207.27 212.80 207.70 C 213.68 208.12 214.74 207.76 215.17 206.88 Z M 215.61 205.97 L 216.00 205.09 C 216.41 204.19 216.01 203.14 215.12 202.74 C 214.22 202.34 213.17 202.74 212.77 203.63 L 212.37 204.51 C 211.97 205.41 212.37 206.46 213.26 206.86 C 214.15 207.26 215.20 206.86 215.61 205.97 Z M 216.02 205.04 L 216.41 204.11 C 216.78 203.21 216.36 202.17 215.45 201.80 C 214.55 201.42 213.51 201.85 213.14 202.75 L 212.75 203.68 C 212.38 204.58 212.80 205.62 213.71 205.99 C 214.61 206.37 215.65 205.94 216.02 205.04 Z M 216.42 204.07 L 216.80 203.09 C 217.15 202.18 216.69 201.16 215.78 200.81 C 214.87 200.46 213.85 200.91 213.50 201.82 L 213.12 202.80 C 212.77 203.71 213.23 204.73 214.14 205.08 C 215.05 205.43 216.07 204.98 216.42 204.07 Z M 216.81 203.05 L 217.12 202.19 C 217.45 201.27 216.97 200.26 216.05 199.93 C 215.14 199.60 214.12 200.08 213.80 200.99 L 213.48 201.86 C 213.16 202.78 213.63 203.79 214.55 204.12 C 215.47 204.45 216.48 203.97 216.81 203.05 Z M 217.13 202.15 L 217.42 201.31 C 217.73 200.39 217.23 199.38 216.31 199.07 C 215.38 198.76 214.38 199.26 214.07 200.18 L 213.79 201.03 C 213.47 201.95 213.97 202.95 214.89 203.26 C 215.82 203.57 216.82 203.08 217.13 202.15 Z M 217.42 201.28 L 217.71 200.40 C 218.00 199.47 217.49 198.48 216.56 198.18 C 215.63 197.89 214.64 198.40 214.34 199.33 L 214.06 200.21 C 213.77 201.14 214.28 202.13 215.21 202.43 C 216.14 202.72 217.13 202.21 217.42 201.28 Z M 217.71 200.38 L 217.99 199.46 C 218.27 198.53 217.74 197.55 216.81 197.26 C 215.88 196.98 214.90 197.51 214.61 198.44 L 214.34 199.35 C 214.06 200.29 214.58 201.27 215.51 201.55 C 216.45 201.83 217.43 201.31 217.71 200.38 Z M 217.99 199.44 L 218.27 198.50 C 218.53 197.56 217.99 196.58 217.06 196.32 C 216.12 196.05 215.15 196.59 214.88 197.52 L 214.61 198.47 C 214.34 199.40 214.88 200.38 215.81 200.65 C 216.75 200.91 217.73 200.37 217.99 199.44 Z M 218.27 198.47 L 218.53 197.51 C 218.79 196.57 218.24 195.60 217.30 195.34 C 216.36 195.09 215.39 195.64 215.14 196.58 L 214.87 197.55 C 214.62 198.49 215.17 199.45 216.11 199.71 C 217.05 199.96 218.01 199.41 218.27 198.47 Z M 218.54 197.48 L 218.79 196.49 C 219.04 195.55 218.47 194.59 217.53 194.35 C 216.59 194.10 215.63 194.67 215.39 195.61 L 215.13 196.60 C 214.89 197.54 215.45 198.50 216.39 198.75 C 217.34 198.99 218.30 198.42 218.54 197.48 Z M 218.80 196.47 L 219.05 195.46 C 219.28 194.52 218.70 193.56 217.76 193.33 C 216.81 193.10 215.86 193.68 215.63 194.62 L 215.38 195.63 C 215.15 196.58 215.73 197.53 216.67 197.76 C 217.62 197.99 218.57 197.41 218.80 196.47 Z M 219.05 195.44 L 219.29 194.41 C 219.51 193.47 218.92 192.52 217.97 192.30 C 217.03 192.08 216.08 192.67 215.86 193.62 L 215.63 194.65 C 215.41 195.59 216.00 196.53 216.94 196.75 C 217.89 196.97 218.83 196.38 219.05 195.44 Z M 219.29 194.39 L 219.52 193.35 C 219.73 192.40 219.13 191.47 218.18 191.26 C 217.23 191.05 216.29 191.65 216.09 192.60 L 215.86 193.64 C 215.65 194.59 216.25 195.52 217.20 195.73 C 218.15 195.94 219.08 195.34 219.29 194.39 Z M 219.52 193.33 L 219.74 192.28 C 219.93 191.33 219.32 190.40 218.37 190.21 C 217.42 190.01 216.49 190.63 216.30 191.57 L 216.08 192.62 C 215.89 193.57 216.50 194.50 217.45 194.70 C 218.40 194.89 219.33 194.28 219.52 193.33 Z M 219.74 192.26 L 219.94 191.20 C 220.13 190.25 219.50 189.33 218.55 189.15 C 217.60 188.97 216.68 189.59 216.50 190.54 L 216.30 191.60 C 216.11 192.55 216.74 193.47 217.69 193.65 C 218.64 193.83 219.56 193.21 219.74 192.26 Z M 219.95 191.18 L 220.12 190.23 C 220.29 189.27 219.66 188.36 218.70 188.19 C 217.75 188.02 216.84 188.65 216.67 189.61 L 216.50 190.56 C 216.33 191.52 216.96 192.43 217.91 192.60 C 218.86 192.77 219.78 192.14 219.95 191.18 Z M 220.12 190.21 L 220.27 189.29 C 220.43 188.34 219.79 187.44 218.84 187.28 C 217.88 187.12 216.98 187.76 216.82 188.71 L 216.67 189.63 C 216.51 190.58 217.15 191.48 218.10 191.64 C 219.06 191.80 219.96 191.16 220.12 190.21 Z M 220.27 189.27 L 220.42 188.35 C 220.57 187.40 219.91 186.50 218.96 186.36 C 218.01 186.21 217.11 186.86 216.97 187.81 L 216.82 188.73 C 216.67 189.69 217.32 190.58 218.28 190.73 C 219.23 190.88 220.12 190.23 220.27 189.27 Z M 220.42 188.33 L 220.55 187.40 C 220.69 186.45 220.03 185.57 219.08 185.43 C 218.12 185.29 217.24 185.95 217.10 186.90 L 216.96 187.83 C 216.83 188.78 217.49 189.67 218.44 189.81 C 219.39 189.95 220.28 189.29 220.42 188.33 Z M 220.55 187.38 L 220.68 186.45 C 220.81 185.49 220.14 184.62 219.18 184.49 C 218.23 184.36 217.35 185.03 217.22 185.99 L 217.10 186.92 C 216.97 187.88 217.64 188.75 218.60 188.88 C 219.55 189.01 220.43 188.34 220.55 187.38 Z M 220.68 186.43 L 220.79 185.48 C 220.91 184.52 220.23 183.66 219.28 183.54 C 218.33 183.42 217.46 184.10 217.34 185.06 L 217.22 186.01 C 217.11 186.96 217.79 187.83 218.74 187.94 C 219.69 188.06 220.56 187.38 220.68 186.43 Z M 220.79 185.46 L 220.90 184.50 C 221.01 183.54 220.32 182.68 219.37 182.58 C 218.41 182.47 217.55 183.16 217.45 184.11 L 217.34 185.07 C 217.23 186.03 217.92 186.89 218.87 186.99 C 219.83 187.10 220.69 186.41 220.79 185.46 Z M 220.90 184.48 L 221.00 183.50 C 221.10 182.54 220.40 181.69 219.45 181.60 C 218.49 181.50 217.64 182.20 217.55 183.15 L 217.45 184.13 C 217.35 185.08 218.05 185.93 219.00 186.03 C 219.95 186.13 220.80 185.43 220.90 184.48 Z M 221.00 183.48 L 221.09 182.48 C 221.17 181.53 220.47 180.69 219.52 180.60 C 218.57 180.51 217.73 181.22 217.64 182.17 L 217.55 183.17 C 217.46 184.12 218.16 184.96 219.12 185.05 C 220.07 185.13 220.91 184.43 221.00 183.48 Z M 221.09 182.47 L 221.17 181.45 C 221.25 180.49 220.54 179.66 219.59 179.58 C 218.63 179.51 217.80 180.22 217.72 181.17 L 217.64 182.19 C 217.56 183.14 218.27 183.97 219.22 184.05 C 220.18 184.13 221.01 183.42 221.09 182.47 Z M 221.17 181.43 L 221.24 180.39 C 221.31 179.44 220.60 178.61 219.64 178.54 C 218.69 178.47 217.87 179.19 217.80 180.14 L 217.72 181.18 C 217.66 182.13 218.37 182.96 219.32 183.03 C 220.27 183.10 221.10 182.38 221.17 181.43 Z M 221.24 180.37 L 221.31 179.31 C 221.37 178.36 220.65 177.54 219.70 177.48 C 218.75 177.42 217.93 178.14 217.87 179.09 L 217.80 180.16 C 217.74 181.11 218.46 181.93 219.41 181.99 C 220.36 182.05 221.18 181.32 221.24 180.37 Z M 221.31 179.29 L 221.37 178.20 C 221.42 177.25 220.69 176.44 219.74 176.39 C 218.79 176.33 217.98 177.06 217.93 178.01 L 217.87 179.10 C 217.82 180.05 218.55 180.86 219.49 180.92 C 220.44 180.97 221.26 180.24 221.31 179.29 Z M 221.36 178.18 L 221.42 177.06 C 221.46 176.11 220.73 175.31 219.78 175.26 C 218.83 175.22 218.03 175.95 217.98 176.90 L 217.93 178.02 C 217.89 178.97 218.62 179.78 219.57 179.82 C 220.52 179.87 221.32 179.13 221.36 178.18 Z M 221.42 177.05 L 221.46 176.03 C 221.49 175.09 220.76 174.29 219.81 174.25 C 218.86 174.21 218.06 174.95 218.03 175.90 L 217.99 176.91 C 217.95 177.86 218.69 178.66 219.63 178.70 C 220.58 178.73 221.38 178.00 221.42 177.05 Z M 221.45 176.02 L 221.49 175.04 C 221.52 174.09 220.78 173.30 219.83 173.27 C 218.89 173.24 218.09 173.98 218.06 174.92 L 218.03 175.91 C 218.00 176.85 218.74 177.64 219.68 177.68 C 220.63 177.71 221.42 176.97 221.45 176.02 Z M 221.49 175.03 L 221.51 174.03 C 221.54 173.08 220.80 172.29 219.85 172.27 C 218.91 172.24 218.12 172.99 218.09 173.93 L 218.06 174.93 C 218.04 175.88 218.78 176.66 219.73 176.69 C 220.67 176.72 221.46 175.97 221.49 175.03 Z M 221.51 174.02 L 221.53 173.00 C 221.55 172.06 220.81 171.28 219.86 171.26 C 218.92 171.23 218.14 171.98 218.12 172.93 L 218.09 173.94 C 218.07 174.89 218.82 175.67 219.77 175.69 C 220.71 175.71 221.49 174.96 221.51 174.02 Z M 221.53 172.99 L 221.55 171.96 C 221.56 171.02 220.81 170.25 219.87 170.23 C 218.92 170.22 218.15 170.97 218.13 171.91 L 218.12 172.94 C 218.10 173.88 218.86 174.66 219.80 174.67 C 220.74 174.68 221.52 173.93 221.53 172.99 Z M 221.55 171.95 L 221.55 170.92 C 221.56 169.98 220.81 169.21 219.87 169.20 C 218.92 169.19 218.15 169.95 218.15 170.89 L 218.14 171.92 C 218.13 172.86 218.88 173.63 219.83 173.64 C 220.77 173.65 221.54 172.89 221.55 171.95 Z M 221.55 170.91 L 221.55 169.87 C 221.56 168.93 220.80 168.17 219.86 168.17 C 218.92 168.16 218.15 168.92 218.15 169.86 L 218.15 170.90 C 218.15 171.84 218.91 172.61 219.85 172.61 C 220.79 172.61 221.55 171.85 221.55 170.91 Z M 221.55 169.86 L 221.55 168.82 C 221.54 167.88 220.78 167.12 219.84 167.13 C 218.90 167.13 218.14 167.90 218.15 168.84 L 218.15 169.88 C 218.16 170.82 218.92 171.57 219.86 171.57 C 220.80 171.56 221.56 170.80 221.55 169.86 Z M 221.54 168.81 L 221.53 167.77 C 221.52 166.83 220.75 166.08 219.81 166.10 C 218.87 166.11 218.12 166.88 218.14 167.82 L 218.15 168.85 C 218.16 169.79 218.93 170.54 219.87 170.53 C 220.81 170.51 221.56 169.74 221.54 168.81 Z M 221.53 167.76 L 221.51 166.73 C 221.49 165.79 220.71 165.05 219.77 165.07 C 218.84 165.09 218.10 165.86 218.12 166.80 L 218.14 167.83 C 218.16 168.77 218.93 169.51 219.87 169.49 C 220.80 169.47 221.55 168.69 221.53 167.76 Z M 221.50 166.71 L 221.47 165.69 C 221.44 164.75 220.66 164.02 219.73 164.05 C 218.79 164.08 218.06 164.86 218.09 165.79 L 218.12 166.81 C 218.15 167.75 218.93 168.48 219.86 168.45 C 220.80 168.43 221.53 167.65 221.50 166.71 Z M 221.47 165.67 L 221.43 164.66 C 221.39 163.73 220.60 163.00 219.67 163.04 C 218.74 163.08 218.01 163.86 218.05 164.80 L 218.09 165.81 C 218.13 166.74 218.91 167.47 219.85 167.43 C 220.78 167.39 221.51 166.60 221.47 165.67 Z M 221.43 164.64 L 221.38 163.65 C 221.33 162.72 220.54 162.00 219.60 162.05 C 218.67 162.09 217.96 162.89 218.00 163.82 L 218.05 164.81 C 218.10 165.74 218.89 166.46 219.82 166.41 C 220.75 166.37 221.47 165.57 221.43 164.64 Z M 221.37 163.63 L 221.31 162.65 C 221.25 161.72 220.46 161.01 219.53 161.07 C 218.60 161.13 217.89 161.93 217.95 162.86 L 218.01 163.84 C 218.06 164.76 218.86 165.47 219.79 165.41 C 220.72 165.36 221.43 164.56 221.37 163.63 Z M 221.31 162.63 L 221.24 161.67 C 221.17 160.75 220.36 160.05 219.43 160.12 C 218.51 160.19 217.81 160.99 217.88 161.92 L 217.95 162.88 C 218.02 163.81 218.83 164.50 219.75 164.43 C 220.68 164.36 221.38 163.56 221.31 162.63 Z M 221.23 161.65 L 221.15 160.72 C 221.07 159.79 220.26 159.11 219.33 159.19 C 218.41 159.27 217.72 160.09 217.80 161.01 L 217.88 161.94 C 217.96 162.87 218.78 163.55 219.71 163.47 C 220.63 163.39 221.31 162.58 221.23 161.65 Z M 221.15 160.69 L 221.05 159.79 C 220.96 158.87 220.13 158.19 219.21 158.29 C 218.29 158.38 217.62 159.21 217.71 160.13 L 217.81 161.04 C 217.90 161.96 218.73 162.63 219.65 162.53 C 220.57 162.44 221.24 161.62 221.15 160.69 Z M 221.05 159.76 L 220.90 158.56 C 220.79 157.64 219.95 156.99 219.03 157.10 C 218.11 157.21 217.46 158.05 217.57 158.97 L 217.72 160.16 C 217.83 161.08 218.67 161.73 219.59 161.62 C 220.51 161.51 221.16 160.67 221.05 159.76 Z M 220.89 158.52 L 220.72 157.38 C 220.59 156.47 219.74 155.84 218.83 155.97 C 217.91 156.11 217.28 156.95 217.42 157.87 L 217.59 159.01 C 217.72 159.92 218.57 160.55 219.48 160.42 C 220.39 160.28 221.02 159.43 220.89 158.52 Z M 220.71 157.34 L 220.52 156.25 C 220.36 155.34 219.50 154.74 218.60 154.89 C 217.69 155.05 217.08 155.91 217.24 156.81 L 217.43 157.91 C 217.59 158.81 218.45 159.42 219.35 159.26 C 220.26 159.11 220.86 158.24 220.71 157.34 Z M 220.51 156.21 L 220.30 155.16 C 220.12 154.27 219.25 153.68 218.35 153.86 C 217.45 154.04 216.87 154.91 217.05 155.81 L 217.25 156.85 C 217.43 157.75 218.31 158.34 219.20 158.16 C 220.10 157.98 220.69 157.11 220.51 156.21 Z M 220.29 155.12 L 220.06 154.12 C 219.86 153.23 218.98 152.67 218.08 152.87 C 217.19 153.07 216.63 153.96 216.83 154.85 L 217.06 155.85 C 217.26 156.74 218.15 157.30 219.04 157.10 C 219.93 156.90 220.49 156.01 220.29 155.12 Z M 220.04 154.08 L 219.80 153.12 C 219.58 152.24 218.69 151.70 217.80 151.92 C 216.92 152.15 216.39 153.04 216.61 153.92 L 216.85 154.89 C 217.07 155.77 217.97 156.30 218.85 156.08 C 219.73 155.86 220.27 154.96 220.04 154.08 Z M 219.79 153.08 L 219.53 152.15 C 219.29 151.28 218.38 150.77 217.51 151.01 C 216.63 151.25 216.12 152.16 216.36 153.03 L 216.62 153.96 C 216.87 154.84 217.77 155.35 218.64 155.10 C 219.52 154.86 220.03 153.96 219.79 153.08 Z M 219.51 152.12 L 219.24 151.22 C 218.98 150.36 218.06 149.87 217.20 150.13 C 216.33 150.39 215.85 151.31 216.11 152.17 L 216.38 153.07 C 216.64 153.93 217.56 154.42 218.42 154.16 C 219.29 153.90 219.78 152.98 219.51 152.12 Z M 219.22 151.19 L 218.94 150.32 C 218.66 149.46 217.73 149.00 216.88 149.28 C 216.02 149.56 215.56 150.48 215.84 151.34 L 216.12 152.21 C 216.41 153.06 217.33 153.53 218.18 153.25 C 219.04 152.96 219.50 152.04 219.22 151.19 Z M 218.92 150.29 L 218.62 149.44 C 218.32 148.59 217.39 148.15 216.55 148.45 C 215.70 148.75 215.26 149.68 215.56 150.52 L 215.86 151.37 C 216.15 152.21 217.08 152.66 217.93 152.36 C 218.78 152.06 219.22 151.13 218.92 150.29 Z M 218.61 149.41 L 218.30 148.59 C 217.98 147.75 217.05 147.32 216.21 147.64 C 215.37 147.95 214.95 148.89 215.26 149.72 L 215.57 150.55 C 215.89 151.39 216.82 151.81 217.66 151.50 C 218.50 151.18 218.92 150.25 218.61 149.41 Z M 218.28 148.56 L 217.96 147.75 C 217.63 146.92 216.69 146.51 215.87 146.84 C 215.04 147.17 214.63 148.11 214.96 148.94 L 215.28 149.75 C 215.60 150.58 216.54 150.98 217.37 150.66 C 218.20 150.33 218.61 149.39 218.28 148.56 Z M 217.95 147.73 L 217.55 146.78 C 217.21 145.95 216.27 145.56 215.45 145.90 C 214.63 146.24 214.24 147.19 214.58 148.01 L 214.97 148.96 C 215.31 149.78 216.25 150.17 217.07 149.83 C 217.90 149.49 218.29 148.55 217.95 147.73 Z M 217.54 146.75 L 217.12 145.79 C 216.77 144.98 215.82 144.60 215.01 144.96 C 214.20 145.31 213.82 146.25 214.17 147.07 L 214.59 148.03 C 214.94 148.84 215.89 149.22 216.70 148.86 C 217.52 148.51 217.89 147.57 217.54 146.75 Z M 217.11 145.77 L 216.68 144.82 C 216.31 144.02 215.36 143.66 214.56 144.02 C 213.75 144.39 213.40 145.34 213.76 146.14 L 214.19 147.09 C 214.55 147.89 215.50 148.25 216.31 147.89 C 217.11 147.52 217.47 146.57 217.11 145.77 Z M 216.66 144.80 L 216.23 143.87 C 215.85 143.08 214.90 142.73 214.10 143.11 C 213.30 143.49 212.96 144.44 213.34 145.23 L 213.77 146.16 C 214.15 146.96 215.10 147.30 215.90 146.93 C 216.70 146.55 217.04 145.60 216.66 144.80 Z M 216.21 143.86 L 215.77 142.95 C 215.38 142.16 214.43 141.83 213.64 142.21 C 212.85 142.60 212.52 143.55 212.91 144.34 L 213.35 145.25 C 213.74 146.04 214.69 146.37 215.48 145.99 C 216.27 145.60 216.60 144.65 216.21 143.86 Z M 215.76 142.93 L 215.31 142.04 C 214.91 141.26 213.96 140.94 213.18 141.34 C 212.39 141.73 212.08 142.69 212.47 143.47 L 212.92 144.36 C 213.31 145.14 214.27 145.46 215.05 145.06 C 215.84 144.67 216.15 143.71 215.76 142.93 Z M 215.30 142.02 L 214.84 141.15 C 214.44 140.38 213.48 140.07 212.71 140.48 C 211.93 140.88 211.63 141.83 212.03 142.61 L 212.48 143.48 C 212.89 144.26 213.84 144.56 214.62 144.16 C 215.40 143.76 215.70 142.80 215.30 142.02 Z M 214.83 141.14 L 214.38 140.29 C 213.97 139.52 213.01 139.22 212.24 139.63 C 211.47 140.04 211.18 141.00 211.59 141.77 L 212.04 142.62 C 212.45 143.39 213.41 143.69 214.18 143.28 C 214.95 142.87 215.24 141.91 214.83 141.14 Z M 214.37 140.27 L 213.91 139.44 C 213.49 138.68 212.54 138.40 211.77 138.81 C 211.01 139.23 210.73 140.19 211.15 140.95 L 211.60 141.78 C 212.02 142.55 212.97 142.83 213.74 142.41 C 214.50 142.00 214.78 141.04 214.37 140.27 Z M 213.90 139.43 L 213.45 138.62 C 213.03 137.86 212.07 137.59 211.31 138.01 C 210.55 138.43 210.28 139.39 210.70 140.15 L 211.16 140.96 C 211.58 141.72 212.53 141.99 213.29 141.57 C 214.05 141.15 214.32 140.19 213.90 139.43 Z M 213.44 138.61 L 212.92 137.69 C 212.49 136.94 211.53 136.67 210.78 137.10 C 210.03 137.53 209.76 138.49 210.19 139.24 L 210.71 140.16 C 211.14 140.91 212.10 141.17 212.85 140.75 C 213.60 140.32 213.87 139.36 213.44 138.61 Z M 212.91 137.68 L 212.39 136.78 C 211.96 136.03 211.00 135.78 210.25 136.21 C 209.50 136.64 209.24 137.60 209.68 138.35 L 210.20 139.25 C 210.63 140.00 211.59 140.25 212.34 139.82 C 213.09 139.39 213.34 138.43 212.91 137.68 Z M 212.38 136.77 L 211.87 135.89 C 211.43 135.15 210.47 134.90 209.72 135.34 C 208.98 135.78 208.73 136.74 209.17 137.48 L 209.68 138.36 C 210.12 139.11 211.08 139.35 211.83 138.92 C 212.57 138.48 212.82 137.52 212.38 136.77 Z M 211.86 135.88 L 211.35 135.02 C 210.90 134.28 209.94 134.04 209.20 134.48 C 208.46 134.93 208.22 135.89 208.66 136.63 L 209.17 137.49 C 209.62 138.23 210.58 138.47 211.32 138.03 C 212.06 137.59 212.30 136.63 211.86 135.88 Z M 211.34 135.02 L 210.83 134.17 C 210.38 133.43 209.42 133.20 208.68 133.64 C 207.94 134.09 207.71 135.05 208.15 135.79 L 208.67 136.64 C 209.11 137.38 210.07 137.61 210.81 137.17 C 211.55 136.72 211.79 135.76 211.34 135.02 Z M 210.83 134.17 L 210.32 133.33 C 209.87 132.59 208.90 132.36 208.17 132.81 C 207.43 133.26 207.20 134.23 207.65 134.96 L 208.16 135.80 C 208.61 136.53 209.57 136.77 210.31 136.32 C 211.04 135.87 211.28 134.90 210.83 134.17 Z M 210.31 133.33 L 209.81 132.50 C 209.35 131.77 208.39 131.54 207.66 131.99 C 206.92 132.44 206.69 133.41 207.14 134.14 L 207.65 134.97 C 208.10 135.70 209.07 135.93 209.80 135.48 C 210.54 135.03 210.77 134.06 210.31 133.33 Z M 209.80 132.50 L 209.30 131.68 C 208.84 130.95 207.88 130.72 207.15 131.17 C 206.41 131.63 206.19 132.59 206.64 133.32 L 207.15 134.14 C 207.60 134.88 208.56 135.10 209.30 134.65 C 210.03 134.20 210.26 133.23 209.80 132.50 Z M 209.29 131.68 L 209.03 131.24 C 208.57 130.51 207.61 130.28 206.88 130.74 C 206.14 131.19 205.92 132.15 206.37 132.89 L 206.64 133.32 C 207.09 134.05 208.06 134.28 208.79 133.83 C 209.52 133.37 209.75 132.41 209.29 131.68 Z"
      fill="black"
      fill-rule="nonzero" /></svg>