<svg xmlns="http://www.w3.org/2000/svg" width="300" height="300" viewBox="0 0 300 300">
<path d="M 146.38 190.70 L 146.25 189.69 C 146.12 188.66 145.18 187.94 144.16 188.07 C 143.14 188.20 142.41 189.14 142.54 190.16 L 142.67 191.17 C 142.81 192.20 143.74 192.92 144.77 192.79 C 145.79 192.66 146.51 191.72 146.38 190.70 Z M 146.26 189.70 L 146.14 188.70 C 146.01 187.67 145.08 186.94 144.06 187.06 C 143.03 187.18 142.30 188.11 142.42 189.14 L 142.54 190.15 C 142.66 191.17 143.59 191.90 144.62 191.78 C 145.65 191.66 146.38 190.73 146.26 189.70 Z M 146.14 188.73 L 146.04 187.73 C 145.94 186.70 145.02 185.95 143.99 186.05 C 142.97 186.15 142.22 187.07 142.32 188.10 L 142.42 189.10 C 142.52 190.13 143.44 190.88 144.46 190.78 C 145.49 190.68 146.24 189.76 146.14 188.73 Z M 146.05 187.78 L 145.98 186.78 C 145.90 185.75 145.01 184.97 143.98 185.05 C 142.95 185.12 142.17 186.01 142.24 187.04 L 142.31 188.04 C 142.38 189.07 143.28 189.85 144.31 189.78 C 145.34 189.71 146.12 188.81 146.05 187.78 Z M 145.98 186.86 L 145.95 185.86 C 145.92 184.83 145.06 184.02 144.02 184.05 C 142.99 184.08 142.18 184.94 142.21 185.98 L 142.24 186.97 C 142.27 188.00 143.13 188.82 144.16 188.78 C 145.20 188.75 146.01 187.89 145.98 186.86 Z M 145.95 185.96 L 145.97 184.97 C 145.99 183.94 145.17 183.08 144.14 183.06 C 143.11 183.04 142.25 183.86 142.23 184.89 L 142.21 185.88 C 142.19 186.91 143.01 187.77 144.04 187.79 C 145.07 187.81 145.93 186.99 145.95 185.96 Z M 145.97 185.09 L 146.05 184.11 C 146.13 183.08 145.37 182.18 144.34 182.09 C 143.31 182.00 142.40 182.77 142.31 183.80 L 142.23 184.78 C 142.15 185.81 142.91 186.72 143.95 186.80 C 144.98 186.89 145.88 186.12 145.97 185.09 Z M 146.03 184.26 L 146.21 183.15 C 146.38 182.12 145.69 181.16 144.66 180.99 C 143.64 180.83 142.68 181.52 142.51 182.54 L 142.33 183.66 C 142.16 184.68 142.86 185.64 143.88 185.81 C 144.90 185.98 145.87 185.28 146.03 184.26 Z M 146.19 183.32 L 146.51 182.09 C 146.77 181.08 146.17 180.06 145.16 179.79 C 144.15 179.53 143.12 180.13 142.86 181.14 L 142.54 182.37 C 142.28 183.38 142.88 184.41 143.89 184.67 C 144.89 184.93 145.92 184.33 146.19 183.32 Z M 146.46 182.29 L 146.87 181.19 C 147.24 180.21 146.75 179.11 145.77 178.75 C 144.79 178.38 143.69 178.87 143.32 179.85 L 142.91 180.95 C 142.54 181.93 143.03 183.02 144.01 183.39 C 144.99 183.76 146.09 183.27 146.46 182.29 Z M 146.78 181.42 L 147.26 180.53 C 147.76 179.60 147.41 178.45 146.48 177.95 C 145.56 177.45 144.40 177.79 143.90 178.72 L 143.42 179.61 C 142.92 180.54 143.27 181.70 144.19 182.20 C 145.12 182.70 146.28 182.35 146.78 181.42 Z M 147.04 180.87 L 147.56 180.26 C 148.25 179.45 148.15 178.24 147.34 177.55 C 146.53 176.87 145.32 176.96 144.64 177.77 L 144.12 178.38 C 143.43 179.19 143.53 180.40 144.34 181.09 C 145.14 181.77 146.35 181.68 147.04 180.87 Z M 146.94 180.75 L 147.47 180.49 C 148.43 180.03 148.83 178.87 148.37 177.92 C 147.90 176.96 146.75 176.56 145.79 177.02 L 145.26 177.28 C 144.30 177.74 143.90 178.89 144.36 179.85 C 144.83 180.81 145.98 181.21 146.94 180.75 Z M 145.89 180.54 L 146.55 180.82 C 147.54 181.23 148.67 180.76 149.08 179.77 C 149.49 178.79 149.02 177.65 148.04 177.24 L 147.37 176.97 C 146.39 176.56 145.25 177.03 144.84 178.01 C 144.43 179.00 144.90 180.13 145.89 180.54 Z M 145.68 180.10 L 146.24 180.94 C 146.83 181.83 148.03 182.07 148.92 181.48 C 149.81 180.89 150.05 179.69 149.46 178.80 L 148.91 177.96 C 148.32 177.07 147.12 176.83 146.23 177.42 C 145.34 178.01 145.09 179.21 145.68 180.10 Z M 145.97 180.35 L 146.25 181.41 C 146.51 182.44 147.57 183.07 148.60 182.80 C 149.64 182.54 150.26 181.48 150.00 180.45 L 149.72 179.39 C 149.46 178.35 148.40 177.73 147.37 177.99 C 146.33 178.26 145.71 179.31 145.97 180.35 Z M 146.21 180.63 L 146.06 181.56 C 145.90 182.62 146.62 183.61 147.68 183.78 C 148.73 183.94 149.72 183.22 149.89 182.16 L 150.03 181.23 C 150.20 180.17 149.48 179.18 148.42 179.02 C 147.36 178.85 146.37 179.57 146.21 180.63 Z M 146.84 180.30 L 146.14 180.80 C 145.27 181.43 145.08 182.64 145.71 183.50 C 146.33 184.37 147.54 184.56 148.41 183.94 L 149.11 183.43 C 149.97 182.80 150.17 181.59 149.54 180.73 C 148.92 179.86 147.71 179.67 146.84 180.30 Z M 147.09 180.45 L 146.01 180.55 C 144.95 180.65 144.17 181.59 144.27 182.65 C 144.37 183.72 145.31 184.50 146.37 184.40 L 147.45 184.30 C 148.52 184.20 149.30 183.25 149.20 182.19 C 149.10 181.13 148.16 180.35 147.09 180.45 Z M 146.23 180.54 L 145.16 180.52 C 144.09 180.49 143.20 181.34 143.18 182.41 C 143.16 183.47 144.00 184.36 145.07 184.38 L 146.15 184.40 C 147.22 184.43 148.10 183.58 148.12 182.51 C 148.15 181.45 147.30 180.56 146.23 180.54 Z M 144.72 180.56 L 144.03 180.70 C 142.98 180.92 142.31 181.94 142.53 182.99 C 142.75 184.03 143.77 184.70 144.82 184.48 L 145.51 184.34 C 146.55 184.12 147.22 183.10 147.00 182.05 C 146.79 181.01 145.76 180.34 144.72 180.56 Z M 142.51 182.84 L 142.60 183.55 C 142.73 184.61 143.70 185.36 144.75 185.22 C 145.81 185.09 146.56 184.12 146.43 183.06 L 146.34 182.35 C 146.20 181.29 145.24 180.54 144.18 180.68 C 143.12 180.81 142.37 181.78 142.51 182.84 Z M 142.95 184.44 L 143.70 185.46 C 144.33 186.33 145.53 186.51 146.39 185.89 C 147.26 185.26 147.44 184.05 146.82 183.19 L 146.07 182.17 C 145.44 181.31 144.23 181.12 143.37 181.75 C 142.51 182.38 142.32 183.58 142.95 184.44 Z M 143.83 185.62 L 144.40 186.26 C 145.12 187.05 146.34 187.11 147.13 186.39 C 147.92 185.68 147.98 184.46 147.26 183.67 L 146.69 183.03 C 145.97 182.24 144.75 182.18 143.96 182.90 C 143.17 183.61 143.11 184.83 143.83 185.62 Z M 147.23 183.62 L 147.06 183.45 C 146.32 182.68 145.09 182.66 144.33 183.40 C 143.56 184.14 143.54 185.36 144.28 186.13 L 144.44 186.31 C 145.19 187.07 146.41 187.10 147.18 186.35 C 147.94 185.61 147.97 184.39 147.23 183.62 Z M 147.13 183.52 L 146.56 182.87 C 145.86 182.06 144.64 181.98 143.83 182.68 C 143.02 183.38 142.94 184.60 143.64 185.41 L 144.21 186.06 C 144.91 186.87 146.13 186.95 146.94 186.25 C 147.74 185.55 147.83 184.33 147.13 183.52 Z M 146.68 183.01 L 146.00 182.05 C 145.37 181.18 144.16 180.98 143.29 181.60 C 142.42 182.22 142.22 183.43 142.84 184.31 L 143.52 185.26 C 144.14 186.14 145.35 186.34 146.23 185.72 C 147.10 185.10 147.30 183.88 146.68 183.01 Z M 146.17 182.34 L 145.64 181.24 C 145.18 180.27 144.01 179.86 143.05 180.32 C 142.08 180.79 141.67 181.95 142.14 182.92 L 142.67 184.02 C 143.13 184.99 144.29 185.40 145.26 184.93 C 146.23 184.47 146.63 183.31 146.17 182.34 Z M 145.82 181.88 L 145.71 180.81 C 145.60 179.74 144.65 178.96 143.58 179.07 C 142.51 179.18 141.73 180.14 141.84 181.21 L 141.95 182.28 C 142.06 183.35 143.02 184.12 144.09 184.01 C 145.16 183.90 145.94 182.95 145.82 181.88 Z M 145.56 181.80 L 145.94 180.95 C 146.37 179.97 145.93 178.81 144.94 178.38 C 143.96 177.94 142.80 178.39 142.37 179.37 L 141.99 180.22 C 141.56 181.20 142.00 182.36 142.99 182.79 C 143.97 183.23 145.13 182.78 145.56 181.80 Z M 145.48 181.60 L 146.20 180.94 C 146.99 180.20 147.04 178.97 146.31 178.17 C 145.58 177.38 144.34 177.33 143.55 178.06 L 142.83 178.72 C 142.03 179.46 141.98 180.69 142.71 181.49 C 143.45 182.28 144.68 182.33 145.48 181.60 Z M 145.69 181.28 L 146.61 180.86 C 147.60 180.41 148.03 179.24 147.58 178.26 C 147.13 177.28 145.97 176.84 144.99 177.29 L 144.06 177.72 C 143.07 178.17 142.64 179.33 143.09 180.31 C 143.54 181.30 144.70 181.73 145.69 181.28 Z M 146.05 181.02 L 147.05 180.89 C 148.13 180.75 148.89 179.77 148.75 178.70 C 148.61 177.62 147.63 176.86 146.55 177.00 L 145.55 177.13 C 144.48 177.26 143.72 178.25 143.85 179.32 C 143.99 180.40 144.97 181.16 146.05 181.02 Z M 146.33 180.86 L 147.29 181.09 C 148.34 181.35 149.41 180.70 149.67 179.65 C 149.92 178.59 149.28 177.53 148.22 177.27 L 147.27 177.04 C 146.22 176.78 145.15 177.42 144.89 178.48 C 144.63 179.53 145.28 180.60 146.33 180.86 Z M 146.48 180.68 L 147.40 181.46 C 148.23 182.16 149.47 182.06 150.17 181.23 C 150.88 180.40 150.78 179.16 149.95 178.46 L 149.03 177.68 C 148.20 176.97 146.96 177.08 146.26 177.91 C 145.55 178.73 145.65 179.98 146.48 180.68 Z M 146.97 180.95 L 147.56 181.97 C 148.11 182.91 149.31 183.23 150.25 182.68 C 151.20 182.13 151.52 180.93 150.97 179.99 L 150.38 178.97 C 149.83 178.03 148.62 177.71 147.68 178.25 C 146.74 178.80 146.42 180.01 146.97 180.95 Z M 147.36 181.49 L 147.61 182.39 C 147.89 183.44 148.98 184.06 150.03 183.78 C 151.08 183.49 151.70 182.41 151.41 181.35 L 151.17 180.46 C 150.88 179.41 149.80 178.79 148.75 179.07 C 147.70 179.36 147.08 180.44 147.36 181.49 Z M 147.63 181.28 L 147.50 181.69 C 147.17 182.73 147.75 183.83 148.79 184.16 C 149.83 184.49 150.93 183.91 151.26 182.87 L 151.39 182.47 C 151.72 181.43 151.14 180.32 150.10 179.99 C 149.06 179.66 147.96 180.24 147.63 181.28 Z M 150.57 180.70 L 149.98 180.26 C 149.11 179.61 147.87 179.78 147.22 180.66 C 146.56 181.53 146.74 182.77 147.61 183.42 L 148.19 183.86 C 149.07 184.51 150.30 184.34 150.96 183.47 C 151.61 182.59 151.44 181.36 150.57 180.70 Z M 150.41 180.70 L 149.69 179.69 C 149.06 178.80 147.83 178.59 146.94 179.22 C 146.05 179.85 145.83 181.08 146.47 181.97 L 147.18 182.98 C 147.81 183.88 149.05 184.09 149.94 183.46 C 150.83 182.83 151.04 181.59 150.41 180.70 Z M 149.89 180.04 L 149.47 179.06 C 149.03 178.06 147.86 177.60 146.86 178.04 C 145.86 178.48 145.40 179.65 145.84 180.65 L 146.27 181.62 C 146.71 182.63 147.87 183.08 148.87 182.64 C 149.88 182.20 150.33 181.04 149.89 180.04 Z M 149.44 180.70 L 149.61 180.35 C 150.08 179.36 149.65 178.18 148.66 177.71 C 147.68 177.24 146.49 177.67 146.03 178.65 L 145.86 179.01 C 145.39 180.00 145.82 181.18 146.81 181.65 C 147.80 182.11 148.98 181.69 149.44 180.70 Z M 147.22 181.39 L 147.77 181.57 C 148.81 181.90 149.93 181.32 150.26 180.28 C 150.59 179.23 150.01 178.12 148.97 177.79 L 148.42 177.61 C 147.37 177.28 146.26 177.86 145.93 178.90 C 145.60 179.95 146.18 181.06 147.22 181.39 Z M 147.23 181.30 L 148.00 181.84 C 148.89 182.47 150.13 182.26 150.76 181.36 C 151.39 180.47 151.18 179.23 150.28 178.60 L 149.51 178.05 C 148.62 177.42 147.38 177.64 146.75 178.53 C 146.12 179.43 146.33 180.67 147.23 181.30 Z M 147.73 181.62 L 148.58 182.47 C 149.35 183.25 150.61 183.25 151.38 182.48 C 152.16 181.71 152.17 180.45 151.39 179.67 L 150.55 178.82 C 149.78 178.04 148.52 178.04 147.74 178.81 C 146.97 179.58 146.96 180.84 147.73 181.62 Z M 148.36 182.21 L 149.12 183.30 C 149.75 184.20 150.99 184.42 151.88 183.79 C 152.78 183.16 153.00 181.92 152.38 181.02 L 151.61 179.93 C 150.98 179.04 149.75 178.82 148.85 179.44 C 147.95 180.07 147.73 181.31 148.36 182.21 Z M 148.93 182.97 L 149.40 184.03 C 149.85 185.03 151.02 185.48 152.02 185.04 C 153.03 184.59 153.48 183.42 153.03 182.42 L 152.56 181.36 C 152.12 180.35 150.95 179.90 149.94 180.35 C 148.94 180.79 148.49 181.96 148.93 182.97 Z M 149.29 183.69 L 149.54 184.71 C 149.80 185.77 150.87 186.43 151.93 186.17 C 153.00 185.91 153.65 184.84 153.40 183.77 L 153.15 182.75 C 152.89 181.69 151.82 181.04 150.75 181.29 C 149.68 181.55 149.03 182.63 149.29 183.69 Z M 149.49 184.39 L 149.57 185.43 C 149.65 186.52 150.61 187.34 151.70 187.25 C 152.80 187.17 153.61 186.21 153.53 185.12 L 153.45 184.08 C 153.36 182.99 152.40 182.17 151.31 182.26 C 150.22 182.34 149.40 183.30 149.49 184.39 Z M 149.57 185.11 L 149.48 186.12 C 149.39 187.21 150.20 188.17 151.30 188.26 C 152.39 188.36 153.35 187.54 153.44 186.45 L 153.53 185.44 C 153.62 184.35 152.81 183.39 151.71 183.29 C 150.62 183.20 149.66 184.01 149.57 185.11 Z M 149.54 185.78 L 149.29 186.73 C 149.01 187.79 149.64 188.87 150.70 189.15 C 151.77 189.43 152.85 188.80 153.13 187.74 L 153.38 186.79 C 153.66 185.73 153.03 184.65 151.97 184.37 C 150.91 184.09 149.82 184.72 149.54 185.78 Z M 149.43 186.35 L 149.01 187.20 C 148.53 188.18 148.93 189.37 149.92 189.86 C 150.90 190.34 152.09 189.94 152.58 188.96 L 152.99 188.11 C 153.48 187.13 153.07 185.94 152.09 185.45 C 151.11 184.97 149.92 185.37 149.43 186.35 Z M 149.27 186.80 L 148.68 187.51 C 147.98 188.35 148.09 189.60 148.93 190.30 C 149.77 191.01 151.02 190.90 151.73 190.06 L 152.32 189.35 C 153.02 188.51 152.91 187.26 152.07 186.55 C 151.23 185.85 149.98 185.96 149.27 186.80 Z M 149.08 187.14 L 148.28 187.69 C 147.38 188.32 147.15 189.55 147.77 190.46 C 148.39 191.36 149.62 191.59 150.53 190.97 L 151.33 190.42 C 152.23 189.80 152.46 188.56 151.84 187.66 C 151.22 186.75 149.99 186.52 149.08 187.14 Z M 148.72 187.47 L 147.79 187.81 C 146.76 188.18 146.23 189.32 146.61 190.35 C 146.99 191.38 148.13 191.91 149.16 191.54 L 150.08 191.20 C 151.11 190.82 151.64 189.68 151.27 188.65 C 150.89 187.62 149.75 187.09 148.72 187.47 Z M 148.22 187.70 L 147.23 187.83 C 146.14 187.97 145.37 188.96 145.51 190.05 C 145.65 191.14 146.64 191.90 147.73 191.77 L 148.73 191.64 C 149.81 191.50 150.58 190.51 150.44 189.42 C 150.31 188.33 149.31 187.56 148.22 187.70 Z M 147.65 187.82 L 146.64 187.73 C 145.55 187.64 144.59 188.45 144.50 189.54 C 144.41 190.64 145.22 191.60 146.31 191.69 L 147.31 191.77 C 148.40 191.87 149.36 191.06 149.46 189.96 C 149.55 188.87 148.74 187.91 147.65 187.82 Z M 147.06 187.82 L 146.11 187.52 C 145.06 187.20 143.95 187.78 143.63 188.83 C 143.30 189.87 143.88 190.98 144.93 191.31 L 145.89 191.61 C 146.93 191.93 148.04 191.35 148.37 190.30 C 148.70 189.26 148.11 188.14 147.06 187.82 Z M 146.54 187.71 L 145.71 187.22 C 144.77 186.66 143.55 186.96 142.99 187.90 C 142.43 188.84 142.73 190.06 143.67 190.62 L 144.50 191.12 C 145.44 191.68 146.66 191.37 147.22 190.43 C 147.79 189.49 147.48 188.27 146.54 187.71 Z M 146.07 187.50 L 145.46 186.90 C 144.68 186.14 143.42 186.15 142.66 186.94 C 141.89 187.72 141.91 188.98 142.69 189.74 L 143.31 190.34 C 144.09 191.10 145.35 191.09 146.11 190.30 C 146.87 189.52 146.86 188.26 146.07 187.50 Z M 145.70 187.19 L 145.19 186.45 C 144.57 185.56 143.33 185.34 142.43 185.96 C 141.54 186.58 141.31 187.82 141.94 188.72 L 142.45 189.45 C 143.08 190.35 144.31 190.57 145.21 189.95 C 146.10 189.32 146.33 188.09 145.70 187.19 Z M 145.34 186.71 L 144.92 185.86 C 144.44 184.88 143.25 184.48 142.27 184.96 C 141.29 185.44 140.89 186.62 141.37 187.61 L 141.79 188.46 C 142.27 189.44 143.46 189.84 144.44 189.36 C 145.42 188.88 145.82 187.69 145.34 186.71 Z M 145.01 186.07 L 144.67 185.12 C 144.31 184.09 143.18 183.56 142.15 183.92 C 141.12 184.28 140.58 185.41 140.95 186.44 L 141.28 187.39 C 141.65 188.42 142.78 188.96 143.81 188.60 C 144.83 188.23 145.37 187.10 145.01 186.07 Z M 144.72 185.29 L 144.46 184.26 C 144.18 183.20 143.11 182.57 142.05 182.84 C 141.00 183.11 140.36 184.19 140.63 185.25 L 140.90 186.28 C 141.17 187.33 142.25 187.97 143.30 187.69 C 144.36 187.42 144.99 186.35 144.72 185.29 Z M 144.48 184.39 L 144.28 183.30 C 144.08 182.23 143.05 181.52 141.98 181.72 C 140.90 181.93 140.20 182.96 140.40 184.03 L 140.61 185.12 C 140.81 186.19 141.84 186.89 142.91 186.69 C 143.98 186.49 144.68 185.46 144.48 184.39 Z M 144.29 183.39 L 144.14 182.29 C 143.99 181.21 143.00 180.45 141.92 180.60 C 140.84 180.75 140.09 181.74 140.24 182.82 L 140.39 183.93 C 140.54 185.01 141.53 185.76 142.61 185.61 C 143.69 185.47 144.44 184.47 144.29 183.39 Z M 144.15 182.36 L 144.04 181.32 C 143.94 180.24 142.98 179.45 141.89 179.55 C 140.81 179.66 140.02 180.62 140.13 181.71 L 140.23 182.75 C 140.33 183.83 141.30 184.62 142.38 184.51 C 143.46 184.41 144.25 183.44 144.15 182.36 Z M 144.05 181.41 L 143.99 180.36 C 143.94 179.28 143.01 178.44 141.92 178.50 C 140.84 178.56 140.00 179.49 140.06 180.57 L 140.12 181.62 C 140.18 182.71 141.10 183.54 142.19 183.48 C 143.28 183.42 144.11 182.49 144.05 181.41 Z M 144.00 180.47 L 144.00 179.43 C 144.00 178.34 143.11 177.46 142.03 177.46 C 140.94 177.46 140.06 178.35 140.06 179.43 L 140.06 180.47 C 140.06 181.56 140.94 182.44 142.03 182.44 C 143.12 182.44 144.00 181.55 144.00 180.47 Z M 143.99 179.56 L 144.06 178.54 C 144.13 177.46 143.30 176.52 142.22 176.45 C 141.13 176.38 140.20 177.20 140.13 178.29 L 140.06 179.31 C 139.99 180.39 140.82 181.33 141.90 181.40 C 142.99 181.47 143.92 180.64 143.99 179.56 Z M 144.04 178.70 L 144.18 177.72 C 144.34 176.64 143.59 175.64 142.51 175.49 C 141.44 175.33 140.44 176.08 140.29 177.16 L 140.15 178.14 C 139.99 179.21 140.74 180.21 141.81 180.36 C 142.89 180.52 143.89 179.77 144.04 178.70 Z M 144.15 177.90 L 144.37 176.97 C 144.63 175.91 143.98 174.85 142.93 174.59 C 141.87 174.33 140.81 174.98 140.55 176.04 L 140.32 176.97 C 140.07 178.03 140.71 179.09 141.77 179.35 C 142.83 179.60 143.89 178.96 144.15 177.90 Z M 144.31 177.19 L 144.63 176.32 C 145.01 175.30 144.49 174.17 143.47 173.79 C 142.45 173.41 141.32 173.93 140.94 174.95 L 140.62 175.82 C 140.24 176.84 140.76 177.97 141.78 178.35 C 142.80 178.73 143.93 178.21 144.31 177.19 Z M 144.51 176.59 L 145.00 175.70 C 145.52 174.75 145.18 173.55 144.22 173.03 C 143.27 172.50 142.07 172.85 141.55 173.80 L 141.06 174.68 C 140.53 175.64 140.88 176.83 141.83 177.36 C 142.78 177.88 143.98 177.54 144.51 176.59 Z M 144.80 175.99 L 145.49 175.14 C 146.18 174.30 146.05 173.06 145.20 172.37 C 144.36 171.68 143.12 171.81 142.43 172.66 L 141.74 173.51 C 141.06 174.35 141.18 175.59 142.03 176.28 C 142.87 176.97 144.12 176.84 144.80 175.99 Z M 145.23 175.41 L 146.03 174.74 C 146.87 174.03 146.98 172.79 146.27 171.95 C 145.57 171.12 144.33 171.01 143.49 171.72 L 142.69 172.39 C 141.86 173.09 141.75 174.34 142.45 175.17 C 143.15 176.01 144.40 176.11 145.23 175.41 Z M 145.71 174.96 L 146.58 174.49 C 147.54 173.97 147.90 172.77 147.38 171.81 C 146.86 170.85 145.66 170.49 144.70 171.01 L 143.82 171.49 C 142.86 172.01 142.50 173.21 143.02 174.17 C 143.54 175.13 144.74 175.48 145.71 174.96 Z M 146.15 174.67 L 147.06 174.42 C 148.11 174.14 148.74 173.05 148.46 172.00 C 148.17 170.94 147.09 170.31 146.03 170.60 L 145.12 170.84 C 144.07 171.12 143.44 172.21 143.72 173.27 C 144.01 174.32 145.10 174.95 146.15 174.67 Z M 146.51 174.49 L 147.40 174.51 C 148.50 174.53 149.40 173.65 149.42 172.56 C 149.44 171.46 148.57 170.56 147.47 170.54 L 146.58 170.53 C 145.48 170.51 144.58 171.38 144.56 172.47 C 144.54 173.57 145.41 174.47 146.51 174.49 Z M 146.78 174.40 L 147.59 174.68 C 148.62 175.04 149.76 174.49 150.12 173.46 C 150.48 172.42 149.93 171.29 148.89 170.93 L 148.09 170.65 C 147.05 170.29 145.92 170.83 145.56 171.87 C 145.20 172.91 145.75 174.04 146.78 174.40 Z M 147.08 174.42 L 147.74 174.90 C 148.64 175.53 149.88 175.33 150.52 174.43 C 151.16 173.54 150.95 172.30 150.06 171.66 L 149.40 171.18 C 148.50 170.55 147.26 170.75 146.62 171.65 C 145.98 172.54 146.19 173.78 147.08 174.42 Z M 147.44 174.63 L 148.04 175.28 C 148.78 176.09 150.04 176.14 150.85 175.39 C 151.66 174.65 151.71 173.39 150.97 172.58 L 150.37 171.93 C 149.62 171.12 148.36 171.06 147.55 171.81 C 146.74 172.56 146.69 173.82 147.44 174.63 Z M 147.85 175.04 L 148.39 175.85 C 149.00 176.76 150.24 177.00 151.16 176.39 C 152.07 175.77 152.31 174.53 151.70 173.62 L 151.16 172.81 C 150.54 171.90 149.30 171.66 148.39 172.27 C 147.47 172.89 147.23 174.13 147.85 175.04 Z M 148.27 175.65 L 148.75 176.57 C 149.25 177.55 150.46 177.94 151.44 177.43 C 152.42 176.92 152.80 175.71 152.29 174.74 L 151.82 173.81 C 151.31 172.83 150.10 172.45 149.12 172.96 C 148.14 173.47 147.76 174.67 148.27 175.65 Z M 148.67 176.41 L 149.08 177.42 C 149.50 178.44 150.67 178.93 151.69 178.52 C 152.71 178.10 153.20 176.93 152.79 175.91 L 152.37 174.90 C 151.95 173.87 150.79 173.38 149.76 173.80 C 148.74 174.22 148.25 175.39 148.67 176.41 Z M 149.03 177.28 L 149.38 178.35 C 149.72 179.40 150.85 179.98 151.90 179.64 C 152.95 179.30 153.53 178.17 153.19 177.12 L 152.84 176.05 C 152.50 174.99 151.37 174.42 150.32 174.76 C 149.26 175.10 148.69 176.23 149.03 177.28 Z M 149.34 178.23 L 149.62 179.33 C 149.89 180.40 150.98 181.05 152.05 180.78 C 153.13 180.51 153.78 179.41 153.50 178.34 L 153.22 177.24 C 152.95 176.17 151.86 175.52 150.79 175.79 C 149.71 176.06 149.06 177.15 149.34 178.23 Z M 149.59 179.20 L 149.80 180.34 C 150.00 181.43 151.05 182.15 152.14 181.95 C 153.23 181.74 153.95 180.70 153.75 179.61 L 153.53 178.47 C 153.33 177.38 152.28 176.66 151.19 176.86 C 150.10 177.07 149.38 178.11 149.59 179.20 Z M 149.78 180.20 L 149.90 181.31 C 150.02 182.41 151.02 183.21 152.12 183.08 C 153.22 182.96 154.01 181.97 153.89 180.87 L 153.77 179.75 C 153.64 178.65 152.65 177.86 151.55 177.98 C 150.45 178.10 149.66 179.10 149.78 180.20 Z M 149.89 181.13 L 149.91 182.20 C 149.94 183.30 150.85 184.18 151.96 184.16 C 153.07 184.14 153.95 183.22 153.92 182.11 L 153.90 181.05 C 153.88 179.94 152.96 179.06 151.85 179.08 C 150.75 179.11 149.87 180.02 149.89 181.13 Z M 149.92 181.97 L 149.83 182.96 C 149.73 184.06 150.54 185.04 151.64 185.14 C 152.75 185.24 153.72 184.43 153.83 183.33 L 153.92 182.34 C 154.02 181.23 153.21 180.26 152.10 180.16 C 151.00 180.05 150.02 180.87 149.92 181.97 Z M 149.88 182.67 L 149.66 183.56 C 149.40 184.64 150.06 185.72 151.14 185.98 C 152.21 186.24 153.30 185.58 153.56 184.51 L 153.78 183.62 C 154.04 182.54 153.38 181.46 152.30 181.19 C 151.22 180.93 150.14 181.59 149.88 182.67 Z M 149.79 183.19 L 149.44 183.96 C 148.97 184.97 149.41 186.16 150.42 186.62 C 151.43 187.09 152.62 186.65 153.08 185.64 L 153.43 184.87 C 153.90 183.87 153.46 182.67 152.45 182.21 C 151.44 181.75 150.25 182.19 149.79 183.19 Z M 149.70 183.54 L 149.19 184.17 C 148.49 185.03 148.62 186.29 149.48 186.99 C 150.34 187.69 151.60 187.56 152.30 186.70 L 152.81 186.07 C 153.51 185.21 153.38 183.95 152.52 183.25 C 151.67 182.55 150.40 182.68 149.70 183.54 Z M 149.63 183.77 L 148.90 184.26 C 147.98 184.87 147.73 186.12 148.35 187.04 C 148.97 187.96 150.21 188.20 151.13 187.59 L 151.86 187.10 C 152.78 186.48 153.03 185.24 152.41 184.32 C 151.79 183.40 150.55 183.15 149.63 183.77 Z M 149.42 184.01 L 148.55 184.28 C 147.50 184.61 146.91 185.74 147.24 186.79 C 147.57 187.85 148.70 188.43 149.75 188.10 L 150.61 187.83 C 151.67 187.50 152.26 186.38 151.93 185.32 C 151.60 184.27 150.47 183.68 149.42 184.01 Z M 149.07 184.19 L 148.13 184.23 C 147.02 184.28 146.16 185.21 146.21 186.31 C 146.25 187.42 147.18 188.28 148.29 188.23 L 149.23 188.19 C 150.34 188.15 151.20 187.22 151.15 186.11 C 151.11 185.01 150.18 184.15 149.07 184.19 Z M 148.62 184.28 L 147.64 184.07 C 146.56 183.84 145.50 184.53 145.27 185.61 C 145.04 186.69 145.73 187.75 146.81 187.98 L 147.80 188.19 C 148.88 188.41 149.94 187.72 150.16 186.64 C 150.39 185.56 149.70 184.50 148.62 184.28 Z M 148.09 184.23 L 147.13 183.76 C 146.13 183.28 144.94 183.70 144.46 184.69 C 143.98 185.69 144.40 186.88 145.39 187.36 L 146.36 187.82 C 147.35 188.30 148.55 187.88 149.03 186.89 C 149.50 185.90 149.09 184.70 148.09 184.23 Z M 147.52 184.02 L 146.62 183.28 C 145.77 182.58 144.51 182.71 143.81 183.56 C 143.12 184.41 143.24 185.67 144.10 186.37 L 145.00 187.10 C 145.85 187.80 147.11 187.68 147.80 186.82 C 148.50 185.97 148.38 184.71 147.52 184.02 Z M 146.91 183.57 L 146.23 182.73 C 145.54 181.87 144.28 181.74 143.43 182.44 C 142.57 183.13 142.44 184.38 143.13 185.24 L 143.81 186.08 C 144.50 186.93 145.76 187.06 146.61 186.37 C 147.47 185.68 147.60 184.42 146.91 183.57 Z M 146.39 182.97 L 145.82 182.00 C 145.26 181.05 144.04 180.74 143.09 181.30 C 142.14 181.86 141.83 183.08 142.39 184.03 L 142.97 185.00 C 143.53 185.95 144.75 186.26 145.70 185.70 C 146.64 185.14 146.96 183.92 146.39 182.97 Z M 145.92 182.20 L 145.46 181.15 C 145.01 180.15 143.83 179.70 142.83 180.15 C 141.82 180.59 141.37 181.77 141.82 182.78 L 142.29 183.83 C 142.73 184.83 143.91 185.28 144.92 184.83 C 145.92 184.38 146.37 183.21 145.92 182.20 Z M 145.53 181.35 L 145.18 180.28 C 144.84 179.24 143.71 178.67 142.67 179.01 C 141.62 179.35 141.05 180.47 141.40 181.52 L 141.75 182.58 C 142.09 183.63 143.21 184.20 144.26 183.86 C 145.30 183.52 145.87 182.39 145.53 181.35 Z M 145.23 180.49 L 145.02 179.47 C 144.79 178.39 143.73 177.71 142.66 177.94 C 141.58 178.16 140.90 179.22 141.13 180.30 L 141.34 181.31 C 141.57 182.39 142.63 183.08 143.70 182.85 C 144.78 182.62 145.46 181.56 145.23 180.49 Z M 145.05 179.72 L 144.98 178.82 C 144.90 177.72 143.94 176.90 142.84 176.99 C 141.75 177.08 140.93 178.04 141.02 179.13 L 141.09 180.04 C 141.18 181.13 142.13 181.95 143.23 181.87 C 144.32 181.78 145.14 180.82 145.05 179.72 Z M 144.97 179.20 L 145.06 178.47 C 145.19 177.38 144.40 176.39 143.31 176.26 C 142.22 176.14 141.24 176.92 141.11 178.01 L 141.02 178.75 C 140.90 179.84 141.68 180.82 142.77 180.95 C 143.86 181.08 144.85 180.29 144.97 179.20 Z M 144.82 179.20 L 145.13 178.65 C 145.66 177.69 145.31 176.48 144.35 175.95 C 143.39 175.42 142.18 175.76 141.65 176.72 L 141.35 177.28 C 140.81 178.24 141.16 179.45 142.12 179.98 C 143.08 180.51 144.29 180.16 144.82 179.20 Z M 144.08 179.55 L 144.69 179.33 C 145.72 178.95 146.24 177.80 145.86 176.77 C 145.48 175.74 144.34 175.21 143.31 175.60 L 142.70 175.82 C 141.67 176.20 141.14 177.35 141.53 178.38 C 141.91 179.41 143.05 179.93 144.08 179.55 Z M 143.59 179.41 L 144.38 179.58 C 145.46 179.80 146.51 179.12 146.74 178.04 C 146.97 176.96 146.28 175.91 145.20 175.68 L 144.41 175.51 C 143.33 175.29 142.28 175.98 142.05 177.05 C 141.82 178.13 142.51 179.18 143.59 179.41 Z M 143.82 179.37 L 144.71 179.87 C 145.67 180.40 146.88 180.06 147.42 179.09 C 147.96 178.13 147.61 176.92 146.65 176.38 L 145.76 175.89 C 144.80 175.35 143.59 175.70 143.05 176.66 C 142.51 177.62 142.86 178.83 143.82 179.37 Z M 144.39 179.65 L 145.28 180.40 C 146.12 181.12 147.38 181.02 148.09 180.18 C 148.81 179.34 148.70 178.08 147.87 177.36 L 146.97 176.60 C 146.13 175.89 144.87 175.99 144.16 176.83 C 143.44 177.67 143.55 178.93 144.39 179.65 Z M 145.05 180.17 L 145.86 181.13 C 146.57 181.98 147.83 182.08 148.67 181.37 C 149.51 180.66 149.62 179.40 148.91 178.56 L 148.10 177.60 C 147.39 176.75 146.13 176.65 145.29 177.36 C 144.44 178.07 144.34 179.33 145.05 180.17 Z M 145.67 180.87 L 146.26 181.86 C 146.82 182.80 148.05 183.11 149.00 182.55 C 149.95 181.98 150.26 180.75 149.69 179.81 L 149.10 178.82 C 148.53 177.87 147.31 177.56 146.36 178.13 C 145.41 178.69 145.10 179.92 145.67 180.87 Z M 146.12 181.59 L 146.54 182.61 C 146.96 183.63 148.12 184.13 149.15 183.71 C 150.17 183.29 150.66 182.12 150.24 181.10 L 149.83 180.08 C 149.41 179.05 148.24 178.56 147.22 178.98 C 146.20 179.40 145.70 180.56 146.12 181.59 Z M 146.45 182.32 L 146.69 183.36 C 146.95 184.43 148.03 185.10 149.11 184.84 C 150.18 184.58 150.84 183.50 150.58 182.43 L 150.34 181.39 C 150.08 180.32 149.00 179.65 147.92 179.91 C 146.85 180.17 146.19 181.25 146.45 182.32 Z M 146.64 183.03 L 146.71 184.03 C 146.78 185.13 147.74 185.96 148.84 185.89 C 149.94 185.81 150.78 184.86 150.70 183.76 L 150.64 182.76 C 150.56 181.66 149.61 180.82 148.50 180.90 C 147.40 180.97 146.57 181.92 146.64 183.03 Z M 146.72 183.62 L 146.60 184.53 C 146.45 185.63 147.21 186.64 148.31 186.79 C 149.41 186.94 150.42 186.17 150.57 185.08 L 150.69 184.16 C 150.84 183.07 150.07 182.06 148.98 181.91 C 147.88 181.76 146.87 182.52 146.72 183.62 Z M 146.74 184.03 L 146.41 184.81 C 145.98 185.83 146.45 187.00 147.47 187.43 C 148.49 187.86 149.67 187.38 150.10 186.37 L 150.43 185.58 C 150.86 184.57 150.38 183.39 149.36 182.96 C 148.34 182.53 147.17 183.01 146.74 184.03 Z M 146.78 184.23 L 146.21 184.85 C 145.46 185.67 145.52 186.93 146.33 187.68 C 147.15 188.43 148.41 188.37 149.16 187.56 L 149.73 186.94 C 150.48 186.12 150.42 184.86 149.61 184.11 C 148.79 183.36 147.52 183.42 146.78 184.23 Z M 146.77 184.42 L 145.97 184.83 C 144.99 185.34 144.60 186.55 145.10 187.53 C 145.61 188.51 146.81 188.90 147.80 188.40 L 148.60 187.99 C 149.58 187.48 149.97 186.28 149.47 185.29 C 148.96 184.31 147.76 183.92 146.77 184.42 Z M 146.52 184.65 L 145.57 184.83 C 144.49 185.03 143.77 186.07 143.98 187.16 C 144.18 188.24 145.22 188.96 146.31 188.76 L 147.25 188.58 C 148.34 188.38 149.05 187.33 148.85 186.25 C 148.65 185.16 147.60 184.45 146.52 184.65 Z M 146.05 184.80 L 145.04 184.74 C 143.94 184.68 143.00 185.52 142.94 186.62 C 142.87 187.73 143.72 188.67 144.82 188.73 L 145.83 188.79 C 146.93 188.85 147.87 188.00 147.94 186.90 C 148.00 185.80 147.15 184.86 146.05 184.80 Z M 145.48 184.82 L 144.47 184.53 C 143.41 184.23 142.31 184.84 142.01 185.90 C 141.70 186.96 142.32 188.06 143.38 188.37 L 144.38 188.65 C 145.44 188.96 146.54 188.34 146.85 187.28 C 147.15 186.22 146.54 185.12 145.48 184.82 Z M 144.90 184.71 L 143.98 184.19 C 143.02 183.65 141.80 184.00 141.26 184.96 C 140.73 185.92 141.07 187.13 142.03 187.67 L 142.95 188.19 C 143.91 188.72 145.13 188.38 145.66 187.42 C 146.20 186.46 145.86 185.25 144.90 184.71 Z M 144.37 184.48 L 143.67 183.83 C 142.87 183.08 141.61 183.12 140.86 183.92 C 140.11 184.72 140.15 185.98 140.95 186.73 L 141.64 187.38 C 142.44 188.13 143.70 188.10 144.45 187.29 C 145.21 186.49 145.17 185.23 144.37 184.48 Z M 143.95 184.15 L 143.44 183.42 C 142.82 182.51 141.58 182.29 140.68 182.91 C 139.77 183.53 139.54 184.77 140.17 185.68 L 140.67 186.41 C 141.30 187.32 142.53 187.54 143.44 186.92 C 144.34 186.30 144.57 185.06 143.95 184.15 Z M 143.61 183.70 L 143.21 182.86 C 142.74 181.86 141.56 181.43 140.56 181.90 C 139.57 182.37 139.14 183.55 139.61 184.55 L 140.00 185.39 C 140.47 186.39 141.65 186.82 142.65 186.35 C 143.64 185.88 144.07 184.70 143.61 183.70 Z M 143.30 183.10 L 143.01 182.16 C 142.68 181.12 141.56 180.54 140.51 180.87 C 139.46 181.20 138.88 182.32 139.22 183.36 L 139.51 184.30 C 139.84 185.35 140.96 185.93 142.01 185.60 C 143.06 185.27 143.64 184.15 143.30 183.10 Z M 143.06 182.36 L 142.85 181.36 C 142.63 180.28 141.58 179.59 140.50 179.81 C 139.43 180.03 138.74 181.08 138.96 182.16 L 139.16 183.16 C 139.38 184.24 140.44 184.93 141.51 184.71 C 142.59 184.49 143.28 183.44 143.06 182.36 Z M 142.88 181.52 L 142.75 180.47 C 142.62 179.38 141.63 178.60 140.54 178.73 C 139.45 178.86 138.67 179.85 138.80 180.94 L 138.93 181.99 C 139.06 183.08 140.05 183.86 141.14 183.73 C 142.23 183.60 143.01 182.61 142.88 181.52 Z M 142.76 180.60 L 142.71 179.52 C 142.65 178.42 141.72 177.58 140.63 177.63 C 139.53 177.69 138.68 178.62 138.74 179.72 L 138.79 180.80 C 138.85 181.90 139.78 182.74 140.88 182.69 C 141.97 182.63 142.82 181.70 142.76 180.60 Z M 142.71 179.63 L 142.72 178.55 C 142.73 177.45 141.85 176.55 140.75 176.55 C 139.65 176.54 138.75 177.42 138.75 178.52 L 138.74 179.60 C 138.73 180.70 139.61 181.60 140.71 181.61 C 141.81 181.61 142.70 180.73 142.71 179.63 Z M 142.71 178.66 L 142.78 177.58 C 142.85 176.48 142.02 175.54 140.93 175.47 C 139.83 175.40 138.89 176.24 138.82 177.33 L 138.75 178.41 C 138.68 179.50 139.51 180.44 140.61 180.51 C 141.70 180.58 142.65 179.75 142.71 178.66 Z M 142.77 177.71 L 142.90 176.66 C 143.04 175.57 142.28 174.58 141.19 174.44 C 140.10 174.30 139.11 175.07 138.97 176.15 L 138.83 177.20 C 138.69 178.29 139.46 179.28 140.55 179.42 C 141.63 179.56 142.63 178.79 142.77 177.71 Z M 142.87 176.81 L 143.08 175.81 C 143.31 174.74 142.62 173.69 141.55 173.46 C 140.48 173.24 139.43 173.92 139.21 174.99 L 139.00 176.00 C 138.77 177.07 139.46 178.12 140.53 178.34 C 141.60 178.57 142.65 177.88 142.87 176.81 Z M 143.03 175.99 L 143.33 175.04 C 143.65 174.00 143.07 172.89 142.03 172.57 C 140.99 172.24 139.88 172.82 139.55 173.87 L 139.26 174.81 C 138.93 175.86 139.52 176.96 140.56 177.29 C 141.60 177.61 142.71 177.03 143.03 175.99 Z M 143.25 175.25 L 143.64 174.38 C 144.08 173.38 143.63 172.21 142.63 171.77 C 141.63 171.33 140.47 171.78 140.02 172.78 L 139.64 173.65 C 139.20 174.65 139.65 175.82 140.64 176.26 C 141.64 176.70 142.81 176.25 143.25 175.25 Z M 143.51 174.62 L 144.00 173.82 C 144.57 172.90 144.28 171.68 143.36 171.11 C 142.43 170.54 141.22 170.82 140.64 171.75 L 140.15 172.54 C 139.58 173.47 139.87 174.68 140.79 175.25 C 141.72 175.83 142.93 175.54 143.51 174.62 Z M 143.81 174.08 L 144.41 173.38 C 145.12 172.56 145.03 171.32 144.21 170.61 C 143.39 169.89 142.14 169.98 141.43 170.81 L 140.83 171.50 C 140.12 172.32 140.21 173.56 141.03 174.28 C 141.85 174.99 143.10 174.90 143.81 174.08 Z M 144.15 173.63 L 144.94 173.00 C 145.79 172.32 145.93 171.08 145.24 170.23 C 144.56 169.38 143.32 169.24 142.48 169.92 L 141.69 170.56 C 140.84 171.24 140.70 172.48 141.38 173.33 C 142.06 174.18 143.30 174.31 144.15 173.63 Z M 144.64 173.20 L 145.54 172.72 C 146.50 172.20 146.86 171.01 146.34 170.04 C 145.82 169.08 144.63 168.72 143.67 169.24 L 142.77 169.72 C 141.81 170.24 141.45 171.44 141.97 172.40 C 142.48 173.36 143.68 173.72 144.64 173.20 Z M 145.22 172.86 L 146.18 172.55 C 147.22 172.21 147.79 171.09 147.45 170.05 C 147.10 169.01 145.98 168.44 144.95 168.78 L 143.98 169.10 C 142.94 169.44 142.38 170.56 142.72 171.60 C 143.06 172.64 144.18 173.20 145.22 172.86 Z M 145.83 172.63 L 146.82 172.50 C 147.91 172.35 148.67 171.35 148.52 170.26 C 148.37 169.18 147.37 168.41 146.28 168.56 L 145.29 168.70 C 144.21 168.85 143.45 169.85 143.60 170.93 C 143.74 172.02 144.74 172.78 145.83 172.63 Z M 146.43 172.52 L 147.41 172.58 C 148.50 172.65 149.45 171.81 149.52 170.72 C 149.59 169.62 148.75 168.67 147.65 168.60 L 146.68 168.54 C 145.58 168.47 144.63 169.31 144.56 170.41 C 144.50 171.50 145.33 172.45 146.43 172.52 Z M 146.97 172.51 L 147.90 172.78 C 148.95 173.09 150.06 172.48 150.37 171.42 C 150.68 170.37 150.08 169.26 149.02 168.95 L 148.09 168.68 C 147.03 168.37 145.92 168.97 145.61 170.03 C 145.30 171.09 145.91 172.20 146.97 172.51 Z M 147.45 172.59 L 148.25 173.06 C 149.21 173.62 150.43 173.30 150.99 172.35 C 151.55 171.39 151.23 170.17 150.28 169.61 L 149.47 169.14 C 148.51 168.58 147.29 168.90 146.73 169.85 C 146.17 170.81 146.49 172.03 147.45 172.59 Z M 147.89 172.79 L 148.55 173.42 C 149.35 174.18 150.62 174.15 151.38 173.34 C 152.14 172.54 152.11 171.27 151.31 170.51 L 150.65 169.88 C 149.84 169.12 148.57 169.16 147.81 169.96 C 147.05 170.76 147.08 172.03 147.89 172.79 Z M 148.30 173.14 L 148.86 173.91 C 149.51 174.81 150.76 175.01 151.66 174.36 C 152.56 173.71 152.76 172.46 152.11 171.56 L 151.55 170.79 C 150.90 169.89 149.65 169.69 148.75 170.34 C 147.86 170.99 147.65 172.24 148.30 173.14 Z M 148.70 173.64 L 149.15 174.53 C 149.65 175.52 150.86 175.92 151.84 175.41 C 152.83 174.91 153.23 173.71 152.72 172.72 L 152.27 171.83 C 151.77 170.84 150.57 170.45 149.58 170.95 C 148.59 171.45 148.20 172.66 148.70 173.64 Z M 149.04 174.28 L 149.38 175.25 C 149.74 176.30 150.88 176.86 151.93 176.49 C 152.97 176.13 153.53 174.99 153.17 173.94 L 152.83 172.97 C 152.47 171.92 151.33 171.37 150.28 171.73 C 149.23 172.09 148.68 173.23 149.04 174.28 Z M 149.31 175.01 L 149.52 176.03 C 149.75 177.12 150.81 177.81 151.90 177.58 C 152.98 177.36 153.68 176.29 153.45 175.21 L 153.24 174.19 C 153.01 173.10 151.95 172.41 150.86 172.63 C 149.78 172.86 149.08 173.93 149.31 175.01 Z M 149.49 175.79 L 149.57 176.83 C 149.66 177.93 150.63 178.75 151.74 178.66 C 152.84 178.57 153.66 177.60 153.57 176.50 L 153.49 175.46 C 153.40 174.35 152.43 173.53 151.32 173.62 C 150.22 173.71 149.40 174.68 149.49 175.79 Z M 149.57 176.57 L 149.52 177.60 C 149.46 178.71 150.32 179.65 151.43 179.71 C 152.53 179.76 153.48 178.91 153.53 177.80 L 153.58 176.76 C 153.63 175.65 152.78 174.71 151.67 174.66 C 150.56 174.61 149.62 175.46 149.57 176.57 Z M 149.56 177.30 L 149.32 178.47 C 149.10 179.55 149.80 180.61 150.89 180.83 C 151.98 181.05 153.04 180.35 153.26 179.26 L 153.49 178.10 C 153.71 177.01 153.01 175.95 151.92 175.73 C 150.84 175.51 149.78 176.22 149.56 177.30 Z M 149.41 178.15 L 149.01 179.21 C 148.62 180.25 149.14 181.41 150.18 181.80 C 151.21 182.19 152.37 181.67 152.76 180.63 L 153.16 179.58 C 153.56 178.54 153.04 177.38 152.00 176.99 C 150.96 176.59 149.80 177.12 149.41 178.15 Z M 149.15 178.91 L 148.62 179.82 C 148.06 180.78 148.38 182.01 149.34 182.57 C 150.29 183.13 151.52 182.81 152.08 181.85 L 152.62 180.94 C 153.18 179.98 152.86 178.75 151.90 178.19 C 150.94 177.63 149.71 177.95 149.15 178.91 Z M 148.84 179.51 L 148.21 180.23 C 147.48 181.07 147.56 182.34 148.39 183.07 C 149.23 183.80 150.49 183.72 151.23 182.88 L 151.86 182.16 C 152.59 181.33 152.51 180.06 151.68 179.33 C 150.84 178.60 149.57 178.68 148.84 179.51 Z M 148.56 179.92 L 147.86 180.41 C 146.95 181.05 146.73 182.30 147.37 183.20 C 148.00 184.11 149.26 184.33 150.16 183.70 L 150.87 183.20 C 151.78 182.57 152.00 181.31 151.36 180.41 C 150.72 179.50 149.47 179.28 148.56 179.92 Z M 148.44 180.13 L 147.70 180.35 C 146.63 180.67 146.03 181.79 146.35 182.85 C 146.67 183.91 147.78 184.51 148.85 184.20 L 149.59 183.98 C 150.65 183.66 151.25 182.54 150.94 181.48 C 150.62 180.42 149.50 179.81 148.44 180.13 Z M 148.65 180.30 L 147.53 180.09 C 146.45 179.88 145.39 180.59 145.18 181.68 C 144.97 182.77 145.69 183.82 146.77 184.03 L 147.89 184.24 C 148.98 184.45 150.03 183.74 150.24 182.65 C 150.45 181.57 149.74 180.51 148.65 180.30 Z M 148.25 180.38 L 147.22 179.71 C 146.29 179.11 145.05 179.37 144.45 180.30 C 143.84 181.23 144.11 182.47 145.03 183.07 L 146.06 183.74 C 146.99 184.34 148.23 184.08 148.84 183.15 C 149.44 182.22 149.18 180.98 148.25 180.38 Z M 147.56 179.99 L 146.86 179.28 C 146.09 178.49 144.82 178.48 144.03 179.25 C 143.24 180.03 143.23 181.30 144.00 182.09 L 144.70 182.79 C 145.47 183.58 146.74 183.60 147.53 182.82 C 148.32 182.05 148.33 180.78 147.56 179.99 Z M 147.17 179.70 L 146.99 179.37 C 146.44 178.40 145.22 178.06 144.26 178.61 C 143.30 179.15 142.96 180.37 143.50 181.34 L 143.69 181.67 C 144.23 182.63 145.45 182.97 146.42 182.43 C 147.38 181.88 147.72 180.66 147.17 179.70 Z M 143.94 181.87 L 144.29 182.17 C 145.12 182.89 146.39 182.80 147.11 181.96 C 147.83 181.12 147.74 179.86 146.90 179.13 L 146.55 178.84 C 145.71 178.11 144.45 178.21 143.73 179.05 C 143.01 179.88 143.10 181.15 143.94 181.87 Z M 144.00 181.87 L 144.60 182.64 C 145.27 183.52 146.52 183.69 147.40 183.02 C 148.28 182.35 148.45 181.09 147.78 180.21 L 147.18 179.44 C 146.51 178.56 145.26 178.39 144.38 179.06 C 143.50 179.73 143.33 180.99 144.00 181.87 Z M 144.38 182.30 L 144.90 183.36 C 145.37 184.36 146.57 184.78 147.57 184.30 C 148.56 183.82 148.98 182.63 148.50 181.63 L 147.99 180.56 C 147.51 179.57 146.32 179.15 145.32 179.62 C 144.32 180.10 143.90 181.30 144.38 182.30 Z M 144.71 182.67 L 144.81 183.84 C 144.91 184.94 145.88 185.76 146.98 185.66 C 148.08 185.56 148.90 184.59 148.80 183.49 L 148.69 182.32 C 148.59 181.22 147.62 180.40 146.52 180.50 C 145.42 180.60 144.61 181.57 144.71 182.67 Z M 144.98 182.85 L 144.60 183.68 C 144.15 184.69 144.61 185.87 145.62 186.32 C 146.62 186.78 147.81 186.32 148.26 185.31 L 148.63 184.48 C 149.08 183.47 148.63 182.29 147.62 181.84 C 146.61 181.39 145.43 181.84 144.98 182.85 Z M 145.01 183.08 L 144.36 183.74 C 143.58 184.52 143.58 185.79 144.36 186.57 C 145.15 187.35 146.41 187.35 147.20 186.57 L 147.85 185.91 C 148.63 185.13 148.63 183.86 147.85 183.08 C 147.06 182.30 145.80 182.30 145.01 183.08 Z M 144.74 183.44 L 143.87 183.97 C 142.92 184.55 142.62 185.78 143.20 186.72 C 143.77 187.67 145.01 187.97 145.95 187.39 L 146.82 186.86 C 147.77 186.29 148.07 185.05 147.49 184.11 C 146.91 183.16 145.68 182.86 144.74 183.44 Z M 144.22 183.80 L 143.22 184.16 C 142.18 184.54 141.65 185.69 142.03 186.73 C 142.41 187.77 143.56 188.31 144.60 187.93 L 145.60 187.56 C 146.64 187.18 147.17 186.03 146.79 184.99 C 146.41 183.95 145.26 183.42 144.22 183.80 Z M 143.60 184.06 L 142.56 184.23 C 141.47 184.40 140.72 185.42 140.89 186.52 C 141.06 187.61 142.09 188.36 143.18 188.19 L 144.22 188.03 C 145.32 187.86 146.07 186.83 145.89 185.74 C 145.72 184.64 144.70 183.89 143.60 184.06 Z M 143.03 184.21 L 142.03 184.13 C 140.93 184.04 139.96 184.87 139.87 185.97 C 139.79 187.08 140.61 188.04 141.72 188.13 L 142.71 188.21 C 143.82 188.30 144.79 187.47 144.87 186.37 C 144.96 185.26 144.14 184.29 143.03 184.21 Z M 142.61 184.26 L 141.80 183.94 C 140.77 183.53 139.60 184.04 139.19 185.07 C 138.78 186.10 139.29 187.27 140.32 187.67 L 141.14 188.00 C 142.17 188.40 143.33 187.90 143.74 186.87 C 144.15 185.84 143.64 184.67 142.61 184.26 Z M 142.33 184.25 L 141.71 183.74 C 140.85 183.04 139.59 183.17 138.88 184.02 C 138.18 184.88 138.31 186.15 139.16 186.85 L 139.79 187.36 C 140.64 188.06 141.91 187.94 142.61 187.08 C 143.32 186.22 143.19 184.95 142.33 184.25 Z M 142.05 184.10 L 141.53 183.41 C 140.87 182.52 139.61 182.34 138.72 183.00 C 137.83 183.66 137.65 184.92 138.31 185.81 L 138.83 186.50 C 139.49 187.39 140.75 187.57 141.64 186.91 C 142.53 186.24 142.71 184.99 142.05 184.10 Z M 141.72 183.72 L 141.31 182.88 C 140.81 181.88 139.61 181.48 138.61 181.97 C 137.62 182.46 137.21 183.67 137.71 184.66 L 138.12 185.50 C 138.62 186.50 139.82 186.90 140.82 186.41 C 141.81 185.92 142.22 184.71 141.72 183.72 Z M 141.41 183.12 L 141.08 182.15 C 140.72 181.10 139.57 180.55 138.52 180.91 C 137.47 181.27 136.91 182.41 137.28 183.46 L 137.61 184.42 C 137.97 185.47 139.11 186.03 140.16 185.67 C 141.21 185.31 141.77 184.17 141.41 183.12 Z M 141.13 182.33 L 140.87 181.27 C 140.61 180.19 139.52 179.53 138.44 179.79 C 137.36 180.06 136.70 181.14 136.96 182.22 L 137.22 183.28 C 137.49 184.36 138.57 185.02 139.65 184.76 C 140.73 184.50 141.39 183.41 141.13 182.33 Z M 140.90 181.40 L 140.70 180.27 C 140.51 179.17 139.46 178.44 138.37 178.64 C 137.28 178.83 136.55 179.87 136.74 180.96 L 136.94 182.09 C 137.13 183.19 138.17 183.92 139.27 183.73 C 140.36 183.53 141.09 182.49 140.90 181.40 Z M 140.71 180.36 L 140.56 179.20 C 140.42 178.10 139.41 177.32 138.31 177.46 C 137.21 177.60 136.43 178.61 136.57 179.71 L 136.72 180.87 C 136.87 181.97 137.87 182.75 138.98 182.61 C 140.08 182.47 140.85 181.46 140.71 180.36 Z M 140.57 179.26 L 140.47 178.28 C 140.36 177.17 139.38 176.36 138.28 176.47 C 137.17 176.58 136.36 177.56 136.47 178.67 L 136.57 179.65 C 136.67 180.76 137.66 181.56 138.76 181.46 C 139.87 181.35 140.68 180.37 140.57 179.26 Z M 140.48 178.33 L 140.41 177.34 C 140.33 176.23 139.37 175.40 138.26 175.47 C 137.16 175.55 136.32 176.51 136.40 177.62 L 136.47 178.61 C 136.54 179.72 137.50 180.55 138.61 180.48 C 139.72 180.40 140.55 179.44 140.48 178.33 Z M 140.41 177.40 L 140.37 176.40 C 140.33 175.29 139.39 174.43 138.28 174.47 C 137.17 174.52 136.31 175.45 136.36 176.56 L 136.39 177.56 C 136.44 178.67 137.37 179.53 138.48 179.49 C 139.59 179.44 140.45 178.51 140.41 177.40 Z M 140.37 176.46 L 140.36 175.46 C 140.36 174.35 139.45 173.46 138.34 173.47 C 137.23 173.48 136.34 174.38 136.35 175.49 L 136.35 176.50 C 136.36 177.61 137.27 178.50 138.38 178.49 C 139.49 178.48 140.38 177.57 140.37 176.46 Z M 140.36 175.53 L 140.39 174.53 C 140.42 173.42 139.54 172.49 138.43 172.47 C 137.32 172.44 136.40 173.31 136.37 174.42 L 136.35 175.43 C 136.32 176.53 137.19 177.46 138.30 177.49 C 139.41 177.51 140.33 176.64 140.36 175.53 Z M 140.39 174.60 L 140.45 173.59 C 140.52 172.49 139.68 171.54 138.57 171.47 C 137.46 171.40 136.51 172.24 136.44 173.35 L 136.38 174.35 C 136.31 175.46 137.15 176.41 138.26 176.48 C 139.36 176.55 140.32 175.70 140.39 174.60 Z M 140.44 173.67 L 140.54 172.67 C 140.65 171.57 139.85 170.59 138.75 170.47 C 137.64 170.36 136.66 171.17 136.55 172.27 L 136.45 173.27 C 136.34 174.37 137.14 175.36 138.24 175.47 C 139.35 175.58 140.33 174.78 140.44 173.67 Z M 140.53 172.76 L 140.67 171.76 C 140.83 170.67 140.07 169.65 138.97 169.49 C 137.87 169.34 136.86 170.10 136.70 171.20 L 136.56 172.19 C 136.40 173.29 137.16 174.30 138.26 174.46 C 139.36 174.62 140.37 173.85 140.53 172.76 Z M 140.66 171.85 L 140.84 170.87 C 141.05 169.78 140.33 168.73 139.24 168.53 C 138.15 168.32 137.10 169.04 136.90 170.13 L 136.72 171.11 C 136.51 172.20 137.23 173.25 138.32 173.45 C 139.40 173.66 140.45 172.94 140.66 171.85 Z M 140.82 170.96 L 141.05 170.00 C 141.30 168.92 140.63 167.84 139.56 167.59 C 138.48 167.34 137.40 168.00 137.15 169.08 L 136.92 170.04 C 136.67 171.12 137.33 172.20 138.41 172.45 C 139.49 172.70 140.57 172.04 140.82 170.96 Z M 141.02 170.08 L 141.29 169.13 C 141.59 168.07 140.97 166.97 139.91 166.67 C 138.84 166.37 137.74 166.99 137.44 168.05 L 137.17 169.00 C 136.87 170.06 137.49 171.17 138.56 171.47 C 139.62 171.77 140.72 171.15 141.02 170.08 Z M 141.26 169.21 L 141.57 168.27 C 141.91 167.22 141.34 166.09 140.29 165.75 C 139.24 165.41 138.11 165.99 137.77 167.04 L 137.47 167.98 C 137.12 169.02 137.70 170.15 138.75 170.49 C 139.80 170.83 140.92 170.26 141.26 169.21 Z M 141.54 168.34 L 141.88 167.40 C 142.26 166.37 141.73 165.22 140.69 164.85 C 139.66 164.47 138.51 165.00 138.14 166.04 L 137.80 166.97 C 137.42 168.00 137.95 169.15 138.99 169.53 C 140.02 169.90 141.17 169.37 141.54 168.34 Z M 141.86 167.46 L 142.23 166.54 C 142.64 165.52 142.14 164.36 141.12 163.95 C 140.10 163.54 138.94 164.04 138.53 165.06 L 138.16 165.98 C 137.75 167.00 138.25 168.16 139.27 168.57 C 140.29 168.98 141.45 168.48 141.86 167.46 Z M 142.20 166.59 L 142.60 165.67 C 143.04 164.66 142.58 163.49 141.57 163.05 C 140.56 162.62 139.39 163.08 138.96 164.09 L 138.56 165.00 C 138.12 166.01 138.58 167.18 139.59 167.62 C 140.59 168.06 141.77 167.59 142.20 166.59 Z M 142.58 165.71 L 143.00 164.80 C 143.46 163.80 143.03 162.62 142.04 162.16 C 141.04 161.70 139.87 162.13 139.40 163.13 L 138.98 164.04 C 138.52 165.04 138.95 166.22 139.94 166.68 C 140.94 167.14 142.12 166.70 142.58 165.71 Z M 142.98 164.83 L 143.43 163.92 C 143.91 162.94 143.50 161.75 142.52 161.27 C 141.54 160.79 140.35 161.20 139.87 162.18 L 139.43 163.09 C 138.94 164.07 139.35 165.26 140.33 165.74 C 141.32 166.22 142.50 165.81 142.98 164.83 Z M 143.41 163.95 L 143.88 163.04 C 144.37 162.06 143.99 160.87 143.02 160.38 C 142.04 159.88 140.85 160.26 140.36 161.24 L 139.89 162.15 C 139.39 163.12 139.78 164.31 140.75 164.81 C 141.72 165.30 142.91 164.92 143.41 163.95 Z M 143.86 163.06 L 144.33 162.17 C 144.84 161.21 144.47 160.01 143.51 159.50 C 142.55 158.99 141.35 159.36 140.84 160.32 L 140.37 161.21 C 139.86 162.18 140.23 163.37 141.19 163.88 C 142.16 164.39 143.35 164.02 143.86 163.06 Z M 144.31 162.19 L 144.80 161.30 C 145.32 160.35 144.97 159.15 144.02 158.63 C 143.06 158.11 141.87 158.46 141.35 159.41 L 140.86 160.30 C 140.34 161.26 140.69 162.45 141.64 162.97 C 142.60 163.49 143.79 163.14 144.31 162.19 Z M 144.78 161.32 L 145.28 160.44 C 145.81 159.50 145.48 158.30 144.54 157.77 C 143.59 157.23 142.39 157.57 141.86 158.51 L 141.36 159.39 C 140.83 160.34 141.16 161.53 142.11 162.07 C 143.05 162.60 144.25 162.27 144.78 161.32 Z M 145.26 160.46 L 145.77 159.58 C 146.32 158.65 146.00 157.45 145.07 156.91 C 144.13 156.36 142.93 156.68 142.39 157.61 L 141.88 158.49 C 141.33 159.42 141.65 160.62 142.59 161.17 C 143.52 161.71 144.72 161.39 145.26 160.46 Z M 145.75 159.61 L 146.27 158.74 C 146.83 157.82 146.53 156.62 145.61 156.06 C 144.68 155.50 143.48 155.80 142.93 156.73 L 142.41 157.59 C 141.85 158.52 142.15 159.72 143.07 160.27 C 144.00 160.83 145.20 160.53 145.75 159.61 Z M 146.26 158.76 L 146.79 157.91 C 147.35 156.99 147.07 155.79 146.16 155.23 C 145.24 154.66 144.04 154.94 143.47 155.85 L 142.95 156.71 C 142.38 157.62 142.66 158.82 143.57 159.39 C 144.49 159.96 145.69 159.68 146.26 158.76 Z M 146.77 157.93 L 147.30 157.09 C 147.88 156.19 147.62 154.99 146.72 154.41 C 145.81 153.83 144.61 154.09 144.03 155.00 L 143.49 155.83 C 142.91 156.74 143.18 157.94 144.08 158.52 C 144.98 159.10 146.19 158.83 146.77 157.93 Z M 147.28 157.11 L 147.83 156.29 C 148.42 155.40 148.17 154.20 147.28 153.61 C 146.39 153.02 145.19 153.26 144.59 154.15 L 144.05 154.97 C 143.46 155.87 143.70 157.07 144.60 157.66 C 145.49 158.25 146.69 158.01 147.28 157.11 Z M 147.81 156.32 L 148.35 155.52 C 148.96 154.64 148.73 153.43 147.85 152.83 C 146.97 152.22 145.77 152.45 145.17 153.33 L 144.62 154.13 C 144.01 155.01 144.24 156.21 145.12 156.82 C 146.00 157.42 147.20 157.20 147.81 156.32 Z M 148.33 155.54 L 148.93 154.70 C 149.55 153.83 149.35 152.63 148.48 152.01 C 147.61 151.39 146.41 151.59 145.79 152.46 L 145.19 153.30 C 144.57 154.17 144.77 155.37 145.64 155.99 C 146.51 156.61 147.71 156.41 148.33 155.54 Z M 148.90 154.73 L 149.52 153.89 C 150.16 153.04 149.98 151.84 149.14 151.20 C 148.29 150.57 147.08 150.74 146.45 151.59 L 145.82 152.43 C 145.19 153.28 145.37 154.48 146.21 155.11 C 147.06 155.75 148.26 155.57 148.90 154.73 Z M 149.48 153.92 L 150.12 153.12 C 150.78 152.29 150.63 151.09 149.81 150.44 C 148.98 149.78 147.78 149.92 147.13 150.75 L 146.49 151.56 C 145.84 152.38 145.98 153.58 146.80 154.24 C 147.63 154.89 148.83 154.75 149.48 153.92 Z M 150.07 153.16 L 150.73 152.39 C 151.40 151.59 151.30 150.39 150.50 149.71 C 149.70 149.04 148.50 149.14 147.82 149.94 L 147.17 150.71 C 146.50 151.51 146.60 152.71 147.40 153.39 C 148.20 154.06 149.40 153.96 150.07 153.16 Z M 150.67 152.44 L 151.34 151.71 C 152.04 150.94 151.99 149.74 151.22 149.04 C 150.45 148.33 149.25 148.39 148.55 149.16 L 147.88 149.89 C 147.17 150.66 147.23 151.86 148.00 152.56 C 148.77 153.26 149.97 153.21 150.67 152.44 Z M 151.28 151.76 L 151.97 151.07 C 152.70 150.33 152.70 149.14 151.96 148.41 C 151.22 147.67 150.03 147.68 149.30 148.41 L 148.61 149.11 C 147.88 149.84 147.88 151.03 148.62 151.77 C 149.35 152.50 150.54 152.50 151.28 151.76 Z M 151.89 151.12 L 152.61 150.47 C 153.37 149.78 153.43 148.59 152.73 147.83 C 152.03 147.06 150.85 147.01 150.09 147.70 L 149.37 148.36 C 148.61 149.05 148.55 150.24 149.25 151.00 C 149.95 151.76 151.13 151.82 151.89 151.12 Z M 152.53 150.53 L 153.27 149.92 C 154.06 149.27 154.18 148.10 153.53 147.30 C 152.88 146.51 151.71 146.39 150.91 147.04 L 150.17 147.65 C 149.37 148.30 149.25 149.47 149.91 150.27 C 150.56 151.06 151.73 151.18 152.53 150.53 Z M 153.17 149.98 L 153.96 149.41 C 154.79 148.82 154.97 147.66 154.37 146.83 C 153.78 146.00 152.62 145.81 151.79 146.41 L 151.01 146.98 C 150.18 147.58 149.99 148.74 150.59 149.57 C 151.19 150.40 152.35 150.58 153.17 149.98 Z M 153.86 149.46 L 154.69 148.93 C 155.55 148.39 155.80 147.25 155.25 146.40 C 154.71 145.54 153.57 145.29 152.72 145.84 L 151.89 146.37 C 151.03 146.91 150.78 148.05 151.33 148.90 C 151.87 149.76 153.01 150.01 153.86 149.46 Z M 154.60 148.97 L 155.46 148.48 C 156.34 147.98 156.64 146.87 156.15 146.00 C 155.65 145.13 154.54 144.82 153.67 145.31 L 152.81 145.80 C 151.93 146.30 151.63 147.41 152.12 148.28 C 152.62 149.16 153.73 149.46 154.60 148.97 Z M 155.39 148.50 L 156.27 148.05 C 157.16 147.60 157.51 146.51 157.06 145.62 C 156.60 144.74 155.52 144.39 154.63 144.84 L 153.75 145.29 C 152.86 145.75 152.51 146.83 152.96 147.72 C 153.41 148.60 154.50 148.95 155.39 148.50 Z M 156.21 148.06 L 157.11 147.64 C 158.00 147.22 158.39 146.16 157.97 145.27 C 157.56 144.37 156.49 143.99 155.60 144.40 L 154.70 144.83 C 153.80 145.25 153.42 146.31 153.83 147.20 C 154.25 148.09 155.31 148.48 156.21 148.06 Z M 157.06 147.64 L 157.98 147.24 C 158.88 146.85 159.29 145.81 158.90 144.92 C 158.51 144.02 157.47 143.61 156.57 144.00 L 155.65 144.40 C 154.76 144.79 154.35 145.83 154.73 146.73 C 155.12 147.62 156.16 148.03 157.06 147.64 Z M 157.94 147.24 L 158.88 146.86 C 159.77 146.49 160.20 145.47 159.83 144.57 C 159.46 143.68 158.44 143.25 157.55 143.62 L 156.61 144.00 C 155.72 144.37 155.29 145.39 155.66 146.29 C 156.03 147.18 157.05 147.61 157.94 147.24 Z M 158.85 146.85 L 159.79 146.48 C 160.68 146.12 161.12 145.11 160.76 144.22 C 160.41 143.34 159.40 142.90 158.51 143.25 L 157.57 143.63 C 156.68 143.98 156.25 144.99 156.60 145.88 C 156.95 146.77 157.96 147.20 158.85 146.85 Z M 159.78 146.47 L 160.37 146.23 C 161.25 145.89 161.69 144.89 161.34 144.01 C 161.00 143.12 160.00 142.69 159.11 143.03 L 158.52 143.26 C 157.64 143.61 157.20 144.61 157.55 145.49 C 157.90 146.38 158.89 146.81 159.78 146.47 Z"
      fill="black"
      fill-rule="nonzero" /></svg>