<svg xmlns="http://www.w3.org/2000/svg" width="300" height="300" viewBox="0 0 300 300">
<path d="M 115.01 172.61 L 113.91 171.68 C 113.11 171.00 111.90 171.10 111.22 171.90 C 110.53 172.71 110.63 173.91 111.44 174.60 L 112.54 175.53 C 113.34 176.21 114.55 176.11 115.23 175.30 C 115.91 174.50 115.81 173.29 115.01 172.61 Z M 113.92 171.65 L 112.87 170.78 C 112.05 170.10 110.83 170.21 110.14 171.04 C 109.46 171.86 109.57 173.08 110.39 173.77 L 111.43 174.63 C 112.26 175.32 113.48 175.20 114.17 174.38 C 114.85 173.55 114.74 172.33 113.92 171.65 Z M 112.86 170.73 L 111.93 169.99 C 111.07 169.32 109.83 169.46 109.16 170.32 C 108.48 171.17 108.63 172.41 109.48 173.09 L 110.41 173.82 C 111.27 174.50 112.51 174.35 113.18 173.50 C 113.86 172.64 113.71 171.40 112.86 170.73 Z M 111.86 169.91 L 111.10 169.37 C 110.20 168.73 108.95 168.94 108.31 169.84 C 107.67 170.75 107.88 172.00 108.79 172.64 L 109.55 173.18 C 110.45 173.81 111.70 173.60 112.34 172.70 C 112.98 171.80 112.76 170.55 111.86 169.91 Z M 110.88 169.20 L 110.34 168.92 C 109.34 168.40 108.12 168.79 107.60 169.78 C 107.08 170.78 107.47 172.01 108.47 172.52 L 109.01 172.81 C 110.00 173.32 111.23 172.93 111.75 171.94 C 112.26 170.94 111.88 169.71 110.88 169.20 Z M 109.07 168.68 L 108.81 168.73 C 107.69 168.91 106.92 169.97 107.10 171.09 C 107.29 172.22 108.34 172.98 109.47 172.80 L 109.73 172.76 C 110.86 172.58 111.62 171.52 111.44 170.39 C 111.26 169.27 110.20 168.50 109.07 168.68 Z M 107.06 170.84 L 107.07 171.12 C 107.11 172.26 108.08 173.16 109.22 173.12 C 110.37 173.08 111.27 172.11 111.23 170.97 L 111.22 170.69 C 111.17 169.54 110.21 168.65 109.07 168.69 C 107.92 168.73 107.02 169.69 107.06 170.84 Z M 107.19 171.74 L 107.37 172.23 C 107.76 173.31 108.95 173.87 110.03 173.49 C 111.11 173.10 111.67 171.91 111.28 170.83 L 111.11 170.34 C 110.72 169.26 109.53 168.70 108.45 169.09 C 107.37 169.47 106.81 170.66 107.19 171.74 Z M 107.44 172.40 L 107.75 173.08 C 108.23 174.12 109.47 174.58 110.51 174.10 C 111.55 173.62 112.01 172.38 111.53 171.34 L 111.21 170.66 C 110.73 169.62 109.50 169.16 108.45 169.64 C 107.41 170.12 106.96 171.36 107.44 172.40 Z M 107.78 173.14 L 108.21 174.00 C 108.72 175.02 109.96 175.44 110.99 174.93 C 112.02 174.42 112.44 173.18 111.93 172.15 L 111.50 171.29 C 110.99 170.26 109.74 169.84 108.71 170.35 C 107.69 170.86 107.27 172.11 107.78 173.14 Z M 108.21 174.01 L 108.73 175.03 C 109.24 176.06 110.49 176.47 111.52 175.96 C 112.54 175.44 112.95 174.19 112.44 173.17 L 111.92 172.14 C 111.41 171.11 110.16 170.70 109.13 171.22 C 108.11 171.73 107.69 172.98 108.21 174.01 Z M 108.72 175.02 L 109.30 176.19 C 109.80 177.22 111.05 177.65 112.08 177.14 C 113.11 176.64 113.53 175.39 113.03 174.36 L 112.45 173.18 C 111.94 172.15 110.70 171.73 109.67 172.23 C 108.64 172.74 108.21 173.99 108.72 175.02 Z M 109.28 176.16 L 109.90 177.48 C 110.38 178.52 111.62 178.96 112.66 178.48 C 113.70 177.99 114.15 176.75 113.66 175.71 L 113.04 174.40 C 112.56 173.36 111.32 172.91 110.28 173.40 C 109.24 173.88 108.79 175.12 109.28 176.16 Z M 109.87 177.43 L 110.47 178.80 C 110.93 179.85 112.16 180.33 113.21 179.87 C 114.26 179.41 114.74 178.19 114.28 177.13 L 113.68 175.76 C 113.22 174.71 112.00 174.23 110.95 174.69 C 109.89 175.15 109.41 176.38 109.87 177.43 Z M 110.46 178.75 L 110.82 179.64 C 111.26 180.70 112.47 181.21 113.53 180.78 C 114.59 180.34 115.10 179.13 114.66 178.07 L 114.30 177.18 C 113.86 176.12 112.65 175.61 111.59 176.05 C 110.53 176.48 110.02 177.69 110.46 178.75 Z M 110.82 179.61 L 111.18 180.53 C 111.60 181.60 112.80 182.12 113.86 181.70 C 114.93 181.28 115.45 180.08 115.03 179.02 L 114.67 178.10 C 114.25 177.04 113.05 176.51 111.99 176.93 C 110.92 177.35 110.40 178.55 110.82 179.61 Z M 111.18 180.51 L 111.54 181.46 C 111.94 182.52 113.13 183.06 114.20 182.65 C 115.27 182.24 115.80 181.05 115.39 179.99 L 115.03 179.04 C 114.63 177.98 113.44 177.44 112.37 177.85 C 111.30 178.25 110.77 179.45 111.18 180.51 Z M 111.54 181.44 L 111.89 182.40 C 112.29 183.47 113.48 184.01 114.54 183.61 C 115.61 183.22 116.15 182.03 115.75 180.97 L 115.39 180.00 C 115.00 178.94 113.81 178.39 112.75 178.79 C 111.68 179.19 111.14 180.38 111.54 181.44 Z M 111.90 182.39 L 112.25 183.37 C 112.65 184.43 113.83 184.98 114.89 184.59 C 115.96 184.20 116.50 183.01 116.11 181.95 L 115.75 180.98 C 115.36 179.91 114.18 179.37 113.11 179.76 C 112.05 180.15 111.50 181.33 111.90 182.39 Z M 112.26 183.36 L 112.62 184.34 C 113.01 185.41 114.18 185.95 115.25 185.56 C 116.31 185.17 116.85 184.00 116.47 182.93 L 116.11 181.95 C 115.72 180.89 114.54 180.35 113.48 180.74 C 112.41 181.12 111.87 182.30 112.26 183.36 Z M 112.62 184.35 L 112.98 185.32 C 113.37 186.38 114.55 186.93 115.61 186.54 C 116.67 186.15 117.21 184.97 116.82 183.91 L 116.46 182.93 C 116.07 181.87 114.89 181.33 113.84 181.72 C 112.78 182.11 112.23 183.29 112.62 184.35 Z M 112.99 185.33 L 113.35 186.30 C 113.75 187.36 114.92 187.89 115.98 187.50 C 117.03 187.10 117.57 185.93 117.17 184.87 L 116.81 183.90 C 116.42 182.85 115.24 182.31 114.19 182.71 C 113.13 183.10 112.60 184.28 112.99 185.33 Z M 113.36 186.31 L 113.73 187.27 C 114.13 188.32 115.31 188.85 116.36 188.44 C 117.40 188.04 117.93 186.87 117.53 185.82 L 117.16 184.86 C 116.76 183.81 115.59 183.29 114.54 183.69 C 113.49 184.09 112.96 185.26 113.36 186.31 Z M 113.74 187.29 L 114.11 188.23 C 114.52 189.27 115.70 189.78 116.74 189.37 C 117.79 188.96 118.30 187.78 117.89 186.74 L 117.52 185.80 C 117.11 184.76 115.93 184.25 114.89 184.66 C 113.84 185.07 113.33 186.25 113.74 187.29 Z M 114.13 188.25 L 114.50 189.16 C 114.93 190.19 116.11 190.69 117.14 190.26 C 118.18 189.84 118.67 188.66 118.24 187.62 L 117.87 186.71 C 117.45 185.68 116.26 185.18 115.23 185.61 C 114.20 186.03 113.70 187.22 114.13 188.25 Z M 114.52 189.19 L 114.90 190.07 C 115.34 191.09 116.53 191.56 117.55 191.12 C 118.58 190.68 119.05 189.49 118.60 188.47 L 118.23 187.59 C 117.78 186.57 116.59 186.10 115.57 186.54 C 114.55 186.98 114.08 188.17 114.52 189.19 Z M 114.92 190.11 L 115.31 190.94 C 115.77 191.96 116.97 192.40 117.98 191.93 C 118.99 191.47 119.43 190.27 118.97 189.26 L 118.58 188.42 C 118.12 187.41 116.92 186.97 115.91 187.44 C 114.90 187.90 114.46 189.10 114.92 190.11 Z M 115.35 191.00 L 115.83 191.96 C 116.32 192.95 117.53 193.35 118.51 192.86 C 119.50 192.36 119.90 191.16 119.41 190.17 L 118.93 189.21 C 118.43 188.22 117.23 187.82 116.24 188.31 C 115.25 188.81 114.85 190.01 115.35 191.00 Z M 115.89 192.02 L 116.45 193.03 C 116.98 193.99 118.18 194.33 119.13 193.81 C 120.09 193.28 120.43 192.08 119.90 191.12 L 119.35 190.11 C 118.82 189.16 117.62 188.81 116.66 189.34 C 115.71 189.87 115.36 191.07 115.89 192.02 Z M 116.52 193.09 L 117.09 194.02 C 117.65 194.94 118.85 195.22 119.76 194.66 C 120.68 194.10 120.96 192.91 120.40 192.00 L 119.83 191.06 C 119.27 190.15 118.08 189.86 117.16 190.42 C 116.25 190.98 115.96 192.18 116.52 193.09 Z M 117.17 194.08 L 117.75 194.94 C 118.34 195.81 119.52 196.04 120.40 195.45 C 121.27 194.86 121.50 193.68 120.91 192.80 L 120.33 191.94 C 119.74 191.07 118.56 190.84 117.68 191.43 C 116.81 192.02 116.58 193.20 117.17 194.08 Z M 117.82 194.98 L 118.41 195.78 C 119.02 196.62 120.20 196.80 121.03 196.18 C 121.87 195.57 122.04 194.40 121.43 193.56 L 120.84 192.76 C 120.23 191.93 119.05 191.75 118.22 192.36 C 117.38 192.97 117.21 194.15 117.82 194.98 Z M 118.48 195.82 L 119.08 196.57 C 119.71 197.37 120.87 197.50 121.66 196.87 C 122.46 196.23 122.59 195.08 121.96 194.28 L 121.36 193.53 C 120.73 192.73 119.57 192.60 118.77 193.23 C 117.98 193.86 117.84 195.02 118.48 195.82 Z M 119.14 196.60 L 119.74 197.31 C 120.39 198.07 121.53 198.16 122.29 197.52 C 123.05 196.87 123.15 195.73 122.50 194.97 L 121.90 194.26 C 121.25 193.49 120.11 193.40 119.35 194.05 C 118.59 194.69 118.49 195.83 119.14 196.60 Z M 119.80 197.32 L 120.40 198.00 C 121.06 198.73 122.18 198.80 122.91 198.14 C 123.64 197.49 123.71 196.37 123.05 195.64 L 122.45 194.95 C 121.79 194.22 120.67 194.16 119.94 194.81 C 119.21 195.46 119.14 196.59 119.80 197.32 Z M 120.45 198.00 L 121.06 198.66 C 121.71 199.37 122.82 199.41 123.52 198.76 C 124.23 198.10 124.27 197.00 123.62 196.29 L 123.01 195.63 C 122.35 194.93 121.25 194.88 120.54 195.54 C 119.84 196.19 119.79 197.30 120.45 198.00 Z M 121.10 198.65 L 121.71 199.30 C 122.36 199.99 123.44 200.02 124.13 199.37 C 124.81 198.72 124.85 197.64 124.20 196.95 L 123.58 196.30 C 122.94 195.62 121.85 195.59 121.17 196.23 C 120.48 196.88 120.45 197.97 121.10 198.65 Z M 121.72 199.29 L 121.80 199.38 C 122.45 200.05 123.52 200.08 124.20 199.44 C 124.87 198.80 124.90 197.73 124.26 197.05 L 124.18 196.96 C 123.54 196.29 122.47 196.26 121.79 196.90 C 121.11 197.54 121.08 198.61 121.72 199.29 Z"
      fill="black"
      fill-rule="nonzero" /><path d="M 143.59 171.32 L 143.02 172.16 C 142.42 173.04 142.65 174.24 143.53 174.85 C 144.42 175.45 145.62 175.22 146.23 174.34 L 146.79 173.50 C 147.39 172.62 147.16 171.41 146.28 170.81 C 145.40 170.21 144.19 170.44 143.59 171.32 Z M 143.00 172.18 L 142.45 173.01 C 141.86 173.91 142.11 175.11 143.00 175.70 C 143.90 176.29 145.10 176.04 145.69 175.15 L 146.24 174.31 C 146.83 173.42 146.59 172.21 145.69 171.63 C 144.80 171.04 143.59 171.28 143.00 172.18 Z M 142.42 173.06 L 141.89 173.91 C 141.33 174.82 141.61 176.02 142.53 176.58 C 143.44 177.15 144.64 176.87 145.20 175.95 L 145.73 175.10 C 146.29 174.19 146.01 172.99 145.09 172.43 C 144.18 171.86 142.98 172.15 142.42 173.06 Z M 141.85 173.98 L 141.36 174.85 C 140.84 175.79 141.18 176.98 142.12 177.50 C 143.06 178.02 144.24 177.69 144.77 176.75 L 145.25 175.88 C 145.77 174.94 145.44 173.75 144.50 173.23 C 143.56 172.71 142.37 173.04 141.85 173.98 Z M 141.31 174.95 L 140.88 175.85 C 140.41 176.82 140.82 177.98 141.79 178.45 C 142.76 178.91 143.93 178.51 144.39 177.53 L 144.82 176.64 C 145.29 175.67 144.88 174.51 143.91 174.04 C 142.94 173.57 141.77 173.98 141.31 174.95 Z M 140.82 175.98 L 140.46 176.90 C 140.06 177.91 140.56 179.04 141.57 179.43 C 142.57 179.82 143.70 179.33 144.10 178.32 L 144.46 177.40 C 144.85 176.40 144.35 175.26 143.35 174.87 C 142.34 174.48 141.21 174.98 140.82 175.98 Z M 140.40 177.07 L 140.12 178.03 C 139.82 179.07 140.42 180.15 141.46 180.45 C 142.49 180.75 143.58 180.15 143.88 179.12 L 144.16 178.16 C 144.46 177.12 143.86 176.03 142.82 175.73 C 141.78 175.43 140.70 176.03 140.40 177.07 Z M 140.07 178.22 L 139.90 179.15 C 139.70 180.21 140.41 181.24 141.47 181.43 C 142.53 181.63 143.56 180.93 143.75 179.86 L 143.93 178.93 C 144.12 177.86 143.42 176.84 142.36 176.65 C 141.29 176.45 140.27 177.15 140.07 178.22 Z M 139.88 179.33 L 139.80 180.21 C 139.70 181.29 140.50 182.24 141.57 182.34 C 142.65 182.43 143.60 181.64 143.70 180.56 L 143.78 179.68 C 143.87 178.60 143.08 177.65 142.00 177.56 C 140.93 177.46 139.97 178.26 139.88 179.33 Z M 139.79 180.38 L 139.79 181.29 C 139.78 182.36 140.65 183.24 141.73 183.25 C 142.81 183.26 143.69 182.39 143.69 181.31 L 143.70 180.40 C 143.71 179.32 142.84 178.44 141.76 178.43 C 140.68 178.43 139.80 179.30 139.79 180.38 Z M 139.80 181.44 L 139.87 182.38 C 139.94 183.45 140.88 184.26 141.95 184.18 C 143.03 184.10 143.83 183.17 143.75 182.09 L 143.69 181.16 C 143.61 180.08 142.67 179.28 141.60 179.35 C 140.53 179.43 139.72 180.37 139.80 181.44 Z M 139.89 182.52 L 140.03 183.48 C 140.18 184.54 141.17 185.28 142.23 185.12 C 143.30 184.97 144.03 183.98 143.88 182.92 L 143.73 181.95 C 143.58 180.89 142.59 180.16 141.53 180.31 C 140.47 180.47 139.73 181.45 139.89 182.52 Z M 140.05 183.61 L 140.27 184.60 C 140.49 185.64 141.53 186.31 142.58 186.08 C 143.62 185.85 144.29 184.82 144.06 183.77 L 143.85 182.79 C 143.62 181.74 142.59 181.07 141.54 181.30 C 140.49 181.53 139.83 182.56 140.05 183.61 Z M 140.30 184.71 L 140.59 185.72 C 140.88 186.75 141.95 187.35 142.98 187.05 C 144.01 186.76 144.61 185.69 144.31 184.66 L 144.03 183.66 C 143.74 182.63 142.67 182.03 141.64 182.32 C 140.61 182.61 140.01 183.68 140.30 184.71 Z M 140.62 185.83 L 140.98 186.85 C 141.33 187.86 142.44 188.39 143.44 188.04 C 144.45 187.69 144.98 186.59 144.63 185.58 L 144.28 184.55 C 143.92 183.55 142.82 183.01 141.81 183.37 C 140.81 183.72 140.27 184.82 140.62 185.83 Z M 141.02 186.95 L 141.45 187.99 C 141.86 188.98 142.98 189.45 143.97 189.04 C 144.96 188.64 145.43 187.51 145.02 186.52 L 144.59 185.48 C 144.19 184.50 143.06 184.03 142.07 184.43 C 141.09 184.84 140.62 185.96 141.02 186.95 Z M 141.49 188.07 L 141.93 189.01 C 142.38 189.97 143.53 190.38 144.49 189.93 C 145.45 189.48 145.87 188.33 145.42 187.37 L 144.98 186.44 C 144.53 185.48 143.38 185.06 142.42 185.51 C 141.46 185.97 141.04 187.11 141.49 188.07 Z M 141.97 189.07 L 142.40 189.88 C 142.88 190.82 144.04 191.19 144.98 190.70 C 145.91 190.22 146.28 189.06 145.80 188.12 L 145.37 187.31 C 144.89 186.37 143.73 186.00 142.79 186.49 C 141.85 186.98 141.49 188.13 141.97 189.07 Z M 142.43 189.93 L 142.89 190.75 C 143.40 191.67 144.56 192.00 145.48 191.49 C 146.40 190.98 146.73 189.82 146.22 188.90 L 145.76 188.08 C 145.25 187.16 144.09 186.83 143.17 187.34 C 142.25 187.85 141.92 189.01 142.43 189.93 Z M 142.93 190.79 L 143.42 191.62 C 143.95 192.52 145.11 192.81 146.01 192.28 C 146.91 191.75 147.20 190.59 146.67 189.69 L 146.18 188.86 C 145.65 187.96 144.49 187.67 143.59 188.20 C 142.69 188.73 142.39 189.89 142.93 190.79 Z M 143.45 191.65 L 143.97 192.48 C 144.52 193.36 145.68 193.63 146.56 193.08 C 147.44 192.53 147.71 191.37 147.16 190.49 L 146.64 189.66 C 146.09 188.78 144.93 188.51 144.05 189.06 C 143.17 189.61 142.90 190.77 143.45 191.65 Z M 144.00 192.51 L 144.54 193.34 C 145.11 194.21 146.26 194.45 147.13 193.89 C 147.99 193.33 148.24 192.17 147.68 191.30 L 147.13 190.47 C 146.57 189.60 145.41 189.36 144.54 189.92 C 143.68 190.48 143.44 191.64 144.00 192.51 Z M 144.57 193.36 L 145.14 194.20 C 145.71 195.05 146.86 195.28 147.71 194.71 C 148.57 194.13 148.79 192.98 148.22 192.13 L 147.65 191.29 C 147.08 190.44 145.92 190.21 145.07 190.78 C 144.22 191.36 144.00 192.51 144.57 193.36 Z M 145.16 194.22 L 145.74 195.06 C 146.33 195.90 147.48 196.11 148.31 195.53 C 149.15 194.95 149.36 193.80 148.78 192.96 L 148.19 192.11 C 147.61 191.28 146.46 191.07 145.62 191.65 C 144.79 192.23 144.58 193.38 145.16 194.22 Z M 145.77 195.07 L 146.37 195.92 C 146.95 196.74 148.10 196.94 148.92 196.35 C 149.75 195.77 149.94 194.62 149.36 193.80 L 148.76 192.95 C 148.17 192.12 147.03 191.93 146.20 192.51 C 145.37 193.10 145.18 194.24 145.77 195.07 Z M 146.38 195.92 L 146.99 196.77 C 147.58 197.59 148.72 197.77 149.54 197.18 C 150.36 196.60 150.54 195.46 149.95 194.64 L 149.34 193.79 C 148.75 192.97 147.61 192.79 146.80 193.38 C 145.98 193.97 145.79 195.10 146.38 195.92 Z M 147.01 196.77 L 147.63 197.62 C 148.22 198.43 149.35 198.61 150.16 198.02 C 150.97 197.43 151.15 196.30 150.56 195.49 L 149.94 194.64 C 149.35 193.83 148.22 193.65 147.41 194.24 C 146.60 194.83 146.42 195.96 147.01 196.77 Z M 147.64 197.62 L 148.26 198.47 C 148.85 199.27 149.98 199.45 150.78 198.86 C 151.58 198.27 151.76 197.15 151.17 196.34 L 150.54 195.49 C 149.96 194.69 148.83 194.52 148.03 195.10 C 147.23 195.69 147.05 196.82 147.64 197.62 Z M 148.27 198.47 L 148.37 198.61 C 148.96 199.41 150.08 199.58 150.88 199.00 C 151.68 198.41 151.85 197.29 151.27 196.49 L 151.16 196.35 C 150.58 195.55 149.45 195.37 148.66 195.96 C 147.86 196.55 147.68 197.67 148.27 198.47 Z"
      fill="black"
      fill-rule="nonzero" /><path d="M 185.82 170.52 L 184.62 170.76 C 183.57 170.97 182.90 171.99 183.11 173.04 C 183.32 174.08 184.34 174.76 185.38 174.55 L 186.58 174.31 C 187.63 174.10 188.30 173.08 188.09 172.03 C 187.88 170.99 186.86 170.31 185.82 170.52 Z M 184.60 170.76 L 183.42 171.01 C 182.37 171.23 181.70 172.25 181.92 173.30 C 182.14 174.35 183.17 175.02 184.22 174.80 L 185.40 174.55 C 186.45 174.33 187.12 173.31 186.90 172.26 C 186.68 171.21 185.65 170.54 184.60 170.76 Z M 183.39 171.01 L 182.24 171.27 C 181.20 171.50 180.54 172.55 180.78 173.59 C 181.02 174.64 182.06 175.30 183.10 175.06 L 184.25 174.80 C 185.30 174.56 185.95 173.52 185.71 172.47 C 185.48 171.43 184.44 170.77 183.39 171.01 Z M 182.19 171.27 L 181.10 171.55 C 180.06 171.82 179.43 172.88 179.69 173.92 C 179.96 174.97 181.02 175.60 182.07 175.33 L 183.16 175.05 C 184.20 174.79 184.83 173.73 184.56 172.68 C 184.30 171.64 183.24 171.01 182.19 171.27 Z M 181.03 171.56 L 180.01 171.86 C 178.98 172.17 178.39 173.26 178.69 174.30 C 179.00 175.33 180.09 175.93 181.13 175.62 L 182.14 175.32 C 183.18 175.01 183.77 173.92 183.46 172.88 C 183.15 171.85 182.06 171.26 181.03 171.56 Z M 179.91 171.89 L 178.99 172.22 C 177.96 172.59 177.43 173.71 177.80 174.74 C 178.17 175.76 179.29 176.29 180.31 175.92 L 181.23 175.59 C 182.26 175.22 182.79 174.10 182.42 173.08 C 182.05 172.06 180.93 171.53 179.91 171.89 Z M 178.84 172.28 L 178.03 172.64 C 177.03 173.09 176.59 174.26 177.04 175.25 C 177.49 176.24 178.66 176.68 179.65 176.23 L 180.46 175.87 C 181.45 175.42 181.89 174.25 181.45 173.26 C 181.00 172.27 179.83 171.83 178.84 172.28 Z M 177.82 172.74 L 177.14 173.15 C 176.20 173.71 175.90 174.93 176.46 175.86 C 177.03 176.80 178.24 177.10 179.18 176.54 L 179.86 176.13 C 180.79 175.57 181.10 174.36 180.53 173.42 C 179.97 172.48 178.76 172.18 177.82 172.74 Z M 176.87 173.34 L 176.34 173.80 C 175.50 174.51 175.41 175.76 176.12 176.59 C 176.83 177.43 178.09 177.52 178.92 176.81 L 179.45 176.35 C 180.28 175.64 180.38 174.39 179.67 173.56 C 178.95 172.72 177.70 172.63 176.87 173.34 Z M 175.99 174.17 L 175.60 174.73 C 174.98 175.63 175.20 176.87 176.10 177.50 C 177.00 178.12 178.24 177.90 178.87 177.00 L 179.26 176.44 C 179.89 175.54 179.67 174.30 178.76 173.67 C 177.86 173.04 176.62 173.26 175.99 174.17 Z M 175.32 175.34 L 175.12 176.06 C 174.83 177.12 175.46 178.21 176.52 178.50 C 177.58 178.79 178.68 178.17 178.96 177.10 L 179.16 176.39 C 179.45 175.32 178.82 174.23 177.76 173.94 C 176.70 173.65 175.60 174.28 175.32 175.34 Z M 175.05 176.70 L 175.10 177.49 C 175.17 178.59 176.11 179.42 177.21 179.36 C 178.31 179.29 179.14 178.35 179.08 177.25 L 179.03 176.46 C 178.96 175.36 178.02 174.53 176.92 174.59 C 175.82 174.66 174.99 175.60 175.05 176.70 Z M 175.19 177.96 L 175.45 178.80 C 175.78 179.85 176.90 180.44 177.95 180.11 C 179.00 179.78 179.58 178.66 179.25 177.61 L 178.99 176.77 C 178.66 175.72 177.54 175.14 176.49 175.47 C 175.44 175.80 174.86 176.91 175.19 177.96 Z M 175.58 179.12 L 176.03 180.00 C 176.54 180.97 177.74 181.36 178.72 180.86 C 179.70 180.35 180.08 179.15 179.58 178.17 L 179.12 177.29 C 178.62 176.32 177.42 175.93 176.44 176.44 C 175.46 176.94 175.08 178.14 175.58 179.12 Z M 176.16 180.21 L 176.77 181.11 C 177.39 182.02 178.63 182.25 179.54 181.63 C 180.45 181.01 180.68 179.77 180.06 178.86 L 179.45 177.96 C 178.83 177.05 177.59 176.82 176.68 177.44 C 175.77 178.06 175.54 179.30 176.16 180.21 Z M 176.88 181.25 L 177.63 182.16 C 178.33 183.01 179.59 183.13 180.44 182.43 C 181.28 181.73 181.40 180.47 180.70 179.62 L 179.95 178.72 C 179.25 177.87 178.00 177.75 177.15 178.45 C 176.30 179.15 176.18 180.40 176.88 181.25 Z M 177.73 182.27 L 178.58 183.17 C 179.34 183.96 180.60 183.99 181.40 183.23 C 182.20 182.47 182.23 181.21 181.47 180.42 L 180.61 179.52 C 179.85 178.72 178.59 178.69 177.79 179.45 C 177.00 180.21 176.97 181.47 177.73 182.27 Z M 178.66 183.24 L 179.44 183.97 C 180.24 184.72 181.50 184.69 182.25 183.89 C 183.00 183.09 182.97 181.83 182.17 181.07 L 181.39 180.34 C 180.59 179.59 179.33 179.63 178.58 180.43 C 177.82 181.23 177.86 182.49 178.66 183.24 Z M 179.50 184.02 L 180.24 184.67 C 181.07 185.39 182.33 185.30 183.05 184.48 C 183.77 183.65 183.68 182.39 182.85 181.67 L 182.10 181.02 C 181.28 180.30 180.02 180.39 179.30 181.22 C 178.58 182.05 178.67 183.30 179.50 184.02 Z M 180.30 184.71 L 181.08 185.34 C 181.93 186.03 183.17 185.90 183.86 185.05 C 184.56 184.20 184.43 182.96 183.58 182.27 L 182.80 181.63 C 181.95 180.94 180.70 181.07 180.01 181.92 C 179.32 182.77 179.45 184.02 180.30 184.71 Z M 181.12 185.37 L 181.93 185.99 C 182.80 186.65 184.04 186.49 184.70 185.62 C 185.37 184.76 185.20 183.51 184.33 182.85 L 183.53 182.23 C 182.66 181.57 181.42 181.73 180.76 182.60 C 180.09 183.47 180.26 184.71 181.12 185.37 Z M 181.97 186.02 L 182.79 186.62 C 183.68 187.26 184.91 187.06 185.55 186.18 C 186.19 185.30 186.00 184.06 185.11 183.42 L 184.29 182.82 C 183.41 182.18 182.17 182.38 181.53 183.26 C 180.89 184.14 181.09 185.38 181.97 186.02 Z M 182.83 186.64 L 183.67 187.22 C 184.56 187.84 185.79 187.62 186.41 186.72 C 187.03 185.83 186.81 184.60 185.91 183.98 L 185.08 183.40 C 184.18 182.78 182.96 183.00 182.34 183.90 C 181.72 184.79 181.94 186.02 182.83 186.64 Z M 183.70 187.24 L 184.55 187.80 C 185.45 188.40 186.67 188.16 187.27 187.25 C 187.87 186.35 187.63 185.13 186.73 184.53 L 185.88 183.96 C 184.98 183.36 183.76 183.61 183.16 184.51 C 182.55 185.41 182.80 186.63 183.70 187.24 Z M 184.58 187.81 L 185.42 188.36 C 186.33 188.94 187.55 188.68 188.13 187.77 C 188.72 186.86 188.45 185.65 187.54 185.06 L 186.70 184.51 C 185.79 183.93 184.57 184.19 183.99 185.10 C 183.40 186.01 183.66 187.23 184.58 187.81 Z M 185.45 188.37 L 186.29 188.89 C 187.20 189.47 188.41 189.19 188.98 188.27 C 189.56 187.36 189.28 186.15 188.36 185.58 L 187.52 185.05 C 186.60 184.48 185.40 184.75 184.82 185.67 C 184.25 186.59 184.53 187.79 185.45 188.37 Z M 186.31 188.90 L 187.14 189.41 C 188.06 189.97 189.26 189.68 189.82 188.76 C 190.38 187.84 190.09 186.64 189.17 186.08 L 188.34 185.57 C 187.42 185.01 186.22 185.30 185.66 186.22 C 185.10 187.14 185.39 188.34 186.31 188.90 Z M 187.16 189.41 L 188.04 189.94 C 188.96 190.49 190.16 190.19 190.71 189.27 C 191.26 188.35 190.96 187.16 190.04 186.60 L 189.16 186.07 C 188.23 185.52 187.04 185.82 186.49 186.74 C 185.94 187.66 186.23 188.86 187.16 189.41 Z M 188.06 189.94 L 188.98 190.48 C 189.90 191.02 191.09 190.71 191.63 189.79 C 192.17 188.88 191.86 187.69 190.94 187.15 L 190.02 186.61 C 189.10 186.07 187.92 186.37 187.38 187.29 C 186.84 188.21 187.14 189.40 188.06 189.94 Z M 189.00 190.47 L 189.90 190.99 C 190.82 191.52 191.99 191.21 192.52 190.30 C 193.05 189.38 192.74 188.21 191.82 187.68 L 190.92 187.16 C 190.01 186.63 188.83 186.94 188.30 187.85 C 187.77 188.77 188.09 189.94 189.00 190.47 Z M 189.92 190.99 L 190.80 191.49 C 191.71 192.01 192.87 191.69 193.39 190.78 C 193.91 189.87 193.60 188.71 192.68 188.19 L 191.80 187.68 C 190.89 187.16 189.73 187.48 189.21 188.39 C 188.69 189.31 189.01 190.47 189.92 190.99 Z M 190.82 191.48 L 191.68 191.97 C 192.59 192.48 193.74 192.16 194.25 191.25 C 194.76 190.34 194.44 189.19 193.53 188.68 L 192.67 188.19 C 191.76 187.68 190.61 188.00 190.10 188.91 C 189.59 189.82 189.91 190.97 190.82 191.48 Z M 191.70 191.96 L 192.55 192.43 C 193.45 192.94 194.59 192.61 195.10 191.71 C 195.60 190.81 195.27 189.67 194.37 189.16 L 193.52 188.69 C 192.61 188.19 191.47 188.51 190.97 189.41 C 190.47 190.32 190.80 191.46 191.70 191.96 Z M 192.56 192.42 L 193.41 192.89 C 194.31 193.38 195.43 193.06 195.93 192.16 C 196.42 191.26 196.10 190.13 195.20 189.64 L 194.36 189.17 C 193.46 188.68 192.33 189.01 191.84 189.90 C 191.34 190.80 191.67 191.93 192.56 192.42 Z M 193.42 192.88 L 194.26 193.34 C 195.15 193.83 196.27 193.50 196.76 192.61 C 197.24 191.71 196.92 190.60 196.03 190.11 L 195.19 189.65 C 194.30 189.16 193.18 189.49 192.69 190.38 C 192.20 191.27 192.53 192.39 193.42 192.88 Z M 194.27 193.32 L 195.10 193.78 C 195.98 194.26 197.09 193.94 197.58 193.05 C 198.06 192.17 197.73 191.06 196.85 190.57 L 196.02 190.12 C 195.13 189.64 194.02 189.96 193.54 190.85 C 193.06 191.73 193.38 192.84 194.27 193.32 Z M 195.10 193.77 L 195.25 193.85 C 196.13 194.33 197.24 194.01 197.72 193.13 C 198.20 192.25 197.87 191.14 196.99 190.66 L 196.84 190.58 C 195.96 190.10 194.86 190.43 194.38 191.31 C 193.90 192.19 194.22 193.29 195.10 193.77 Z"
      fill="black"
      fill-rule="nonzero" /><path d="M 236.81 174.76 L 235.94 175.28 C 235.04 175.82 234.75 176.99 235.29 177.89 C 235.84 178.79 237.00 179.08 237.90 178.54 L 238.77 178.01 C 239.67 177.47 239.96 176.30 239.42 175.40 C 238.88 174.50 237.71 174.21 236.81 174.76 Z M 235.92 175.28 L 235.05 175.82 C 234.15 176.37 233.87 177.55 234.43 178.45 C 234.98 179.35 236.16 179.62 237.06 179.07 L 237.93 178.54 C 238.82 177.98 239.10 176.80 238.55 175.90 C 237.99 175.01 236.82 174.73 235.92 175.28 Z M 235.01 175.83 L 234.16 176.38 C 233.27 176.95 233.01 178.15 233.59 179.04 C 234.17 179.93 235.36 180.19 236.25 179.61 L 237.10 179.06 C 237.99 178.48 238.25 177.29 237.67 176.40 C 237.09 175.50 235.90 175.25 235.01 175.83 Z M 234.10 176.40 L 233.28 176.97 C 232.40 177.58 232.18 178.79 232.79 179.67 C 233.41 180.55 234.61 180.77 235.49 180.15 L 236.31 179.58 C 237.19 178.97 237.41 177.76 236.80 176.89 C 236.19 176.01 234.98 175.79 234.10 176.40 Z M 233.20 177.01 L 232.41 177.62 C 231.56 178.27 231.39 179.49 232.05 180.35 C 232.70 181.21 233.92 181.37 234.78 180.72 L 235.57 180.11 C 236.42 179.46 236.59 178.24 235.94 177.38 C 235.28 176.52 234.06 176.36 233.20 177.01 Z M 232.32 177.68 L 231.57 178.32 C 230.75 179.02 230.65 180.26 231.36 181.08 C 232.06 181.91 233.30 182.00 234.13 181.30 L 234.87 180.66 C 235.70 179.95 235.79 178.71 235.09 177.89 C 234.38 177.07 233.14 176.97 232.32 177.68 Z M 231.46 178.40 L 230.77 179.09 C 229.99 179.85 229.98 181.10 230.75 181.88 C 231.51 182.66 232.76 182.67 233.54 181.90 L 234.24 181.21 C 235.01 180.45 235.02 179.20 234.26 178.42 C 233.49 177.64 232.24 177.63 231.46 178.40 Z M 230.64 179.20 L 229.97 179.99 C 229.26 180.82 229.35 182.07 230.19 182.79 C 231.02 183.50 232.27 183.41 232.99 182.57 L 233.66 181.79 C 234.37 180.95 234.28 179.70 233.45 178.99 C 232.61 178.27 231.36 178.37 230.64 179.20 Z M 229.84 180.14 L 229.22 181.04 C 228.59 181.95 228.81 183.19 229.72 183.82 C 230.62 184.45 231.86 184.22 232.49 183.32 L 233.12 182.42 C 233.74 181.51 233.52 180.27 232.62 179.64 C 231.71 179.01 230.47 179.24 229.84 180.14 Z M 229.08 181.25 L 228.59 182.19 C 228.08 183.17 228.45 184.37 229.43 184.89 C 230.41 185.40 231.62 185.02 232.13 184.05 L 232.62 183.11 C 233.13 182.13 232.76 180.93 231.78 180.41 C 230.80 179.90 229.60 180.28 229.08 181.25 Z M 228.47 182.47 L 228.14 183.42 C 227.79 184.47 228.34 185.60 229.39 185.96 C 230.44 186.32 231.57 185.76 231.93 184.71 L 232.25 183.76 C 232.61 182.72 232.05 181.58 231.01 181.22 C 229.96 180.87 228.82 181.43 228.47 182.47 Z M 228.05 183.81 L 227.93 184.74 C 227.79 185.84 228.57 186.85 229.67 186.98 C 230.77 187.12 231.77 186.34 231.91 185.25 L 232.03 184.32 C 232.17 183.22 231.39 182.21 230.29 182.08 C 229.19 181.94 228.19 182.72 228.05 183.81 Z M 227.93 185.27 L 228.05 186.16 C 228.21 187.26 229.22 188.02 230.32 187.87 C 231.42 187.71 232.19 186.70 232.03 185.60 L 231.91 184.72 C 231.76 183.62 230.74 182.85 229.64 183.00 C 228.54 183.16 227.78 184.17 227.93 185.27 Z M 228.24 186.77 L 228.64 187.58 C 229.13 188.58 230.34 188.99 231.34 188.50 C 232.33 188.00 232.74 186.80 232.25 185.80 L 231.85 184.99 C 231.36 183.99 230.15 183.58 229.15 184.07 C 228.15 184.57 227.75 185.77 228.24 186.77 Z M 228.97 188.06 L 229.50 188.64 C 230.26 189.45 231.53 189.50 232.35 188.74 C 233.16 187.98 233.21 186.71 232.45 185.89 L 231.92 185.32 C 231.16 184.51 229.89 184.46 229.07 185.21 C 228.26 185.97 228.21 187.25 228.97 188.06 Z M 229.79 188.89 L 230.45 189.36 C 231.34 190.02 232.60 189.83 233.25 188.93 C 233.91 188.04 233.71 186.78 232.82 186.12 L 232.17 185.64 C 231.27 184.99 230.01 185.18 229.36 186.08 C 228.70 186.97 228.90 188.23 229.79 188.89 Z M 230.66 189.50 L 231.44 189.93 C 232.41 190.47 233.63 190.12 234.17 189.15 C 234.70 188.18 234.35 186.96 233.39 186.43 L 232.60 185.99 C 231.63 185.46 230.42 185.81 229.88 186.77 C 229.34 187.74 229.69 188.96 230.66 189.50 Z M 231.60 190.00 L 232.49 190.40 C 233.50 190.84 234.68 190.39 235.13 189.38 C 235.58 188.38 235.12 187.20 234.11 186.75 L 233.23 186.35 C 232.22 185.90 231.04 186.36 230.59 187.37 C 230.14 188.37 230.60 189.55 231.60 190.00 Z M 232.61 190.44 L 233.58 190.80 C 234.61 191.18 235.75 190.66 236.14 189.63 C 236.52 188.60 236.00 187.45 234.97 187.07 L 234.00 186.71 C 232.97 186.32 231.82 186.85 231.44 187.88 C 231.05 188.91 231.58 190.05 232.61 190.44 Z M 233.66 190.82 L 234.69 191.16 C 235.73 191.50 236.85 190.93 237.19 189.89 C 237.53 188.84 236.96 187.72 235.92 187.38 L 234.89 187.05 C 233.85 186.71 232.73 187.28 232.39 188.32 C 232.05 189.36 232.62 190.48 233.66 190.82 Z M 234.74 191.17 L 235.80 191.48 C 236.85 191.79 237.95 191.19 238.26 190.15 C 238.57 189.10 237.98 188.00 236.93 187.69 L 235.86 187.37 C 234.82 187.06 233.72 187.66 233.41 188.71 C 233.10 189.76 233.69 190.86 234.74 191.17 Z M 235.83 191.48 L 236.91 191.78 C 237.96 192.08 239.05 191.47 239.34 190.42 C 239.63 189.37 239.02 188.28 237.97 187.99 L 236.90 187.69 C 235.85 187.39 234.76 188.00 234.47 189.05 C 234.17 190.10 234.79 191.19 235.83 191.48 Z M 236.92 191.78 L 237.98 192.07 C 239.03 192.36 240.11 191.75 240.40 190.70 C 240.69 189.66 240.07 188.57 239.03 188.28 L 237.96 187.99 C 236.92 187.70 235.83 188.32 235.55 189.36 C 235.26 190.41 235.87 191.49 236.92 191.78 Z M 237.97 192.06 L 239.04 192.36 C 240.07 192.65 241.15 192.05 241.45 191.01 C 241.74 189.97 241.14 188.89 240.10 188.60 L 239.04 188.30 C 238.00 188.01 236.92 188.61 236.62 189.65 C 236.33 190.68 236.93 191.76 237.97 192.06 Z M 239.02 192.33 L 240.06 192.64 C 241.08 192.94 242.16 192.36 242.46 191.33 C 242.76 190.31 242.18 189.24 241.15 188.93 L 240.11 188.63 C 239.09 188.33 238.02 188.91 237.72 189.93 C 237.41 190.96 238.00 192.03 239.02 192.33 Z M 240.05 192.61 L 241.05 192.92 C 242.05 193.23 243.12 192.66 243.43 191.65 C 243.74 190.65 243.17 189.58 242.17 189.27 L 241.17 188.96 C 240.16 188.65 239.09 189.22 238.78 190.23 C 238.47 191.23 239.04 192.30 240.05 192.61 Z M 241.04 192.89 L 242.00 193.20 C 242.99 193.51 244.05 192.96 244.37 191.97 C 244.68 190.98 244.13 189.92 243.14 189.60 L 242.18 189.30 C 241.18 188.98 240.13 189.53 239.81 190.52 C 239.50 191.52 240.04 192.57 241.04 192.89 Z M 241.99 193.17 L 242.93 193.47 C 243.91 193.79 244.96 193.26 245.28 192.28 C 245.60 191.31 245.06 190.26 244.09 189.94 L 243.15 189.63 C 242.17 189.31 241.12 189.85 240.80 190.82 C 240.49 191.80 241.02 192.85 241.99 193.17 Z M 242.93 193.45 L 243.84 193.75 C 244.80 194.08 245.84 193.56 246.17 192.60 C 246.49 191.63 245.97 190.59 245.01 190.27 L 244.09 189.97 C 243.13 189.64 242.09 190.16 241.77 191.12 C 241.45 192.09 241.97 193.13 242.93 193.45 Z M 243.84 193.73 L 244.74 194.03 C 245.69 194.36 246.72 193.85 247.04 192.90 C 247.36 191.96 246.86 190.93 245.91 190.60 L 245.01 190.30 C 244.06 189.98 243.03 190.48 242.71 191.43 C 242.39 192.38 242.89 193.41 243.84 193.73 Z M 244.74 194.01 L 245.63 194.32 C 246.56 194.64 247.58 194.14 247.90 193.21 C 248.22 192.28 247.73 191.26 246.80 190.94 L 245.91 190.63 C 244.97 190.31 243.96 190.80 243.63 191.74 C 243.31 192.67 243.81 193.69 244.74 194.01 Z M 245.63 194.29 L 246.48 194.59 C 247.40 194.91 248.40 194.42 248.72 193.50 C 249.04 192.58 248.55 191.57 247.63 191.25 L 246.79 190.96 C 245.87 190.64 244.86 191.13 244.54 192.05 C 244.23 192.97 244.71 193.97 245.63 194.29 Z"
      fill="black"
      fill-rule="nonzero" /></svg>