<svg xmlns="http://www.w3.org/2000/svg" width="300" height="300" viewBox="0 0 300 300">
<path d="M 114.28 103.03 L 114.14 102.03 C 113.99 101.02 113.05 100.32 112.04 100.47 C 111.03 100.61 110.33 101.55 110.47 102.56 L 110.62 103.55 C 110.76 104.57 111.70 105.27 112.71 105.12 C 113.72 104.98 114.42 104.04 114.28 103.03 Z M 114.15 102.03 L 114.00 101.03 C 113.85 100.02 112.91 99.31 111.89 99.46 C 110.88 99.61 110.17 100.55 110.32 101.57 L 110.47 102.56 C 110.61 103.58 111.56 104.28 112.57 104.14 C 113.59 103.99 114.29 103.04 114.15 102.03 Z M 114.01 101.02 L 113.86 100.03 C 113.70 99.01 112.75 98.31 111.73 98.46 C 110.71 98.62 110.01 99.57 110.16 100.59 L 110.31 101.58 C 110.47 102.60 111.42 103.30 112.44 103.15 C 113.46 103.00 114.16 102.04 114.01 101.02 Z M 113.87 100.01 L 113.71 99.02 C 113.55 98.00 112.58 97.30 111.56 97.46 C 110.53 97.63 109.84 98.59 110.00 99.61 L 110.16 100.60 C 110.32 101.63 111.28 102.33 112.31 102.16 C 113.33 102.00 114.03 101.04 113.87 100.01 Z M 113.71 99.00 L 113.55 98.02 C 113.37 96.99 112.40 96.30 111.37 96.47 C 110.34 96.65 109.65 97.62 109.82 98.65 L 109.99 99.63 C 110.17 100.66 111.14 101.35 112.17 101.18 C 113.20 101.01 113.89 100.03 113.71 99.00 Z M 113.55 97.99 L 113.37 97.01 C 113.18 95.98 112.20 95.30 111.17 95.48 C 110.13 95.67 109.45 96.66 109.64 97.69 L 109.82 98.67 C 110.01 99.70 111.00 100.39 112.03 100.20 C 113.06 100.01 113.74 99.02 113.55 97.99 Z M 113.38 96.98 L 113.18 96.00 C 112.98 94.97 111.97 94.30 110.94 94.50 C 109.91 94.71 109.24 95.71 109.44 96.74 L 109.64 97.72 C 109.84 98.75 110.85 99.43 111.88 99.22 C 112.91 99.01 113.58 98.01 113.38 96.98 Z M 113.18 95.96 L 112.97 94.99 C 112.75 93.96 111.73 93.30 110.69 93.53 C 109.66 93.75 109.00 94.77 109.23 95.81 L 109.44 96.78 C 109.66 97.81 110.69 98.47 111.72 98.24 C 112.75 98.02 113.41 97.00 113.18 95.96 Z M 112.97 94.95 L 112.74 93.99 C 112.49 92.95 111.45 92.31 110.42 92.56 C 109.39 92.81 108.75 93.85 109.00 94.88 L 109.23 95.85 C 109.48 96.88 110.51 97.52 111.55 97.27 C 112.58 97.02 113.22 95.99 112.97 94.95 Z M 112.75 93.93 L 112.40 92.65 C 112.12 91.62 111.06 91.00 110.02 91.28 C 108.99 91.56 108.37 92.62 108.65 93.66 L 108.99 94.94 C 109.27 95.97 110.34 96.59 111.37 96.31 C 112.41 96.03 113.02 94.97 112.75 93.93 Z M 112.41 92.59 L 112.00 91.23 C 111.69 90.19 110.59 89.60 109.55 89.91 C 108.51 90.23 107.92 91.32 108.23 92.37 L 108.64 93.72 C 108.95 94.76 110.05 95.35 111.09 95.04 C 112.13 94.73 112.72 93.63 112.41 92.59 Z M 112.02 91.17 L 111.61 89.95 C 111.26 88.90 110.13 88.33 109.09 88.68 C 108.04 89.02 107.47 90.15 107.82 91.20 L 108.22 92.43 C 108.57 93.47 109.70 94.04 110.75 93.70 C 111.79 93.35 112.36 92.22 112.02 91.17 Z M 111.62 89.88 L 111.25 88.85 C 110.87 87.80 109.70 87.26 108.65 87.64 C 107.60 88.02 107.05 89.19 107.43 90.24 L 107.81 91.27 C 108.19 92.32 109.35 92.86 110.41 92.48 C 111.46 92.10 112.00 90.93 111.62 89.88 Z M 111.25 88.77 L 110.94 88.01 C 110.51 86.96 109.31 86.45 108.26 86.88 C 107.20 87.31 106.70 88.51 107.12 89.56 L 107.43 90.32 C 107.86 91.38 109.06 91.88 110.12 91.45 C 111.17 91.03 111.68 89.83 111.25 88.77 Z M 110.90 87.85 L 110.69 87.43 C 110.17 86.40 108.92 85.98 107.88 86.50 C 106.85 87.01 106.44 88.27 106.95 89.30 L 107.17 89.72 C 107.68 90.76 108.94 91.17 109.97 90.66 C 111.00 90.14 111.42 88.88 110.90 87.85 Z M 109.67 86.43 L 109.58 86.39 C 108.52 85.92 107.27 86.41 106.80 87.48 C 106.33 88.55 106.82 89.79 107.89 90.26 L 107.97 90.30 C 109.04 90.77 110.29 90.28 110.75 89.21 C 111.22 88.15 110.74 86.90 109.67 86.43 Z M 106.62 88.53 L 106.65 88.79 C 106.76 89.96 107.79 90.82 108.96 90.71 C 110.13 90.60 110.98 89.56 110.87 88.39 L 110.85 88.13 C 110.74 86.96 109.70 86.11 108.54 86.22 C 107.37 86.33 106.51 87.36 106.62 88.53 Z M 106.69 89.06 L 106.81 89.59 C 107.07 90.73 108.20 91.45 109.34 91.20 C 110.49 90.94 111.21 89.80 110.95 88.66 L 110.83 88.13 C 110.57 86.99 109.44 86.27 108.30 86.52 C 107.15 86.78 106.43 87.92 106.69 89.06 Z M 106.83 89.69 L 107.05 90.46 C 107.36 91.60 108.52 92.26 109.65 91.95 C 110.78 91.64 111.45 90.48 111.14 89.35 L 110.93 88.57 C 110.62 87.44 109.45 86.77 108.32 87.08 C 107.19 87.39 106.52 88.56 106.83 89.69 Z M 107.06 90.52 L 107.37 91.53 C 107.71 92.65 108.89 93.28 110.02 92.94 C 111.14 92.60 111.77 91.42 111.43 90.30 L 111.12 89.29 C 110.78 88.17 109.60 87.53 108.48 87.87 C 107.36 88.22 106.72 89.40 107.06 90.52 Z M 107.38 91.57 L 107.78 92.79 C 108.14 93.90 109.34 94.51 110.46 94.15 C 111.57 93.78 112.18 92.59 111.81 91.47 L 111.42 90.25 C 111.05 89.14 109.85 88.53 108.74 88.90 C 107.63 89.26 107.02 90.46 107.38 91.57 Z M 107.79 92.83 L 108.28 94.24 C 108.67 95.35 109.87 95.93 110.98 95.55 C 112.09 95.16 112.68 93.95 112.29 92.85 L 111.80 91.44 C 111.42 90.33 110.21 89.74 109.10 90.13 C 107.99 90.51 107.41 91.72 107.79 92.83 Z M 108.29 94.27 L 108.87 95.86 C 109.28 96.96 110.50 97.52 111.60 97.12 C 112.70 96.72 113.26 95.50 112.86 94.40 L 112.28 92.81 C 111.88 91.71 110.66 91.14 109.56 91.55 C 108.46 91.95 107.89 93.17 108.29 94.27 Z M 108.88 95.88 L 109.28 96.93 C 109.70 98.03 110.93 98.58 112.02 98.16 C 113.12 97.74 113.67 96.52 113.25 95.42 L 112.85 94.37 C 112.43 93.27 111.21 92.72 110.11 93.14 C 109.01 93.56 108.46 94.79 108.88 95.88 Z M 109.29 96.95 L 109.63 97.83 C 110.06 98.93 111.29 99.47 112.38 99.04 C 113.48 98.61 114.02 97.38 113.59 96.29 L 113.24 95.40 C 112.82 94.31 111.59 93.77 110.49 94.20 C 109.40 94.62 108.86 95.86 109.29 96.95 Z M 109.64 97.85 L 110.00 98.76 C 110.43 99.85 111.67 100.38 112.76 99.95 C 113.85 99.52 114.38 98.28 113.95 97.19 L 113.59 96.28 C 113.15 95.19 111.92 94.66 110.83 95.09 C 109.74 95.52 109.21 96.76 109.64 97.85 Z M 110.01 98.77 L 110.38 99.71 C 110.82 100.79 112.06 101.32 113.15 100.88 C 114.23 100.44 114.76 99.21 114.32 98.12 L 113.94 97.18 C 113.51 96.09 112.27 95.57 111.18 96.01 C 110.09 96.44 109.57 97.68 110.01 98.77 Z M 110.39 99.71 L 110.77 100.67 C 111.22 101.75 112.46 102.28 113.54 101.83 C 114.63 101.39 115.15 100.15 114.71 99.06 L 114.32 98.11 C 113.88 97.02 112.64 96.50 111.55 96.95 C 110.46 97.39 109.94 98.63 110.39 99.71 Z M 110.78 100.67 L 111.18 101.64 C 111.62 102.73 112.86 103.24 113.95 102.80 C 115.03 102.35 115.55 101.11 115.10 100.03 L 114.70 99.06 C 114.26 97.97 113.02 97.46 111.93 97.90 C 110.85 98.35 110.33 99.59 110.78 100.67 Z M 111.18 101.65 L 111.58 102.62 C 112.03 103.70 113.27 104.22 114.36 103.77 C 115.44 103.32 115.95 102.08 115.50 100.99 L 115.10 100.02 C 114.65 98.94 113.41 98.42 112.33 98.87 C 111.24 99.32 110.73 100.56 111.18 101.65 Z M 111.58 102.62 L 111.99 103.60 C 112.44 104.68 113.68 105.20 114.77 104.74 C 115.85 104.29 116.36 103.05 115.91 101.97 L 115.50 100.99 C 115.05 99.91 113.81 99.40 112.73 99.85 C 111.64 100.30 111.13 101.54 111.58 102.62 Z M 111.99 103.60 L 112.40 104.58 C 112.85 105.66 114.10 106.17 115.18 105.72 C 116.26 105.26 116.77 104.02 116.32 102.94 L 115.91 101.96 C 115.46 100.88 114.21 100.37 113.13 100.83 C 112.05 101.28 111.54 102.52 111.99 103.60 Z M 112.40 104.58 L 112.81 105.55 C 113.26 106.63 114.51 107.14 115.59 106.68 C 116.67 106.23 117.18 104.98 116.72 103.90 L 116.32 102.94 C 115.86 101.85 114.62 101.35 113.54 101.80 C 112.45 102.25 111.95 103.50 112.40 104.58 Z M 112.81 105.55 L 113.21 106.50 C 113.66 107.58 114.91 108.09 115.99 107.63 C 117.07 107.18 117.58 105.93 117.12 104.85 L 116.72 103.90 C 116.27 102.82 115.02 102.31 113.94 102.77 C 112.86 103.22 112.35 104.47 112.81 105.55 Z M 113.21 106.50 L 113.60 107.44 C 114.06 108.52 115.30 109.02 116.38 108.57 C 117.46 108.11 117.97 106.87 117.52 105.79 L 117.12 104.85 C 116.67 103.77 115.42 103.27 114.34 103.72 C 113.26 104.17 112.75 105.42 113.21 106.50 Z M 113.60 107.43 L 113.98 108.35 C 114.44 109.43 115.68 109.93 116.76 109.48 C 117.85 109.03 118.35 107.78 117.90 106.70 L 117.52 105.79 C 117.06 104.71 115.82 104.20 114.74 104.65 C 113.65 105.11 113.15 106.35 113.60 107.43 Z M 113.98 108.34 L 114.35 109.23 C 114.81 110.31 116.05 110.82 117.13 110.36 C 118.21 109.91 118.72 108.67 118.27 107.58 L 117.90 106.70 C 117.45 105.62 116.20 105.11 115.12 105.56 C 114.04 106.02 113.53 107.26 113.98 108.34 Z M 114.35 109.22 L 114.71 110.07 C 115.16 111.15 116.40 111.66 117.48 111.21 C 118.56 110.76 119.08 109.52 118.62 108.44 L 118.27 107.59 C 117.82 106.51 116.58 105.99 115.49 106.45 C 114.41 106.90 113.90 108.14 114.35 109.22 Z M 114.70 110.07 L 115.09 111.00 C 115.54 112.08 116.78 112.60 117.86 112.15 C 118.95 111.70 119.46 110.46 119.01 109.38 L 118.63 108.44 C 118.18 107.36 116.94 106.84 115.85 107.29 C 114.77 107.74 114.25 108.98 114.70 110.07 Z M 115.09 110.99 L 115.58 112.19 C 116.02 113.28 117.26 113.80 118.34 113.35 C 119.43 112.91 119.95 111.67 119.51 110.58 L 119.02 109.39 C 118.57 108.30 117.33 107.78 116.25 108.22 C 115.16 108.67 114.64 109.91 115.09 110.99 Z M 115.57 112.18 L 116.02 113.28 C 116.45 114.37 117.69 114.90 118.78 114.46 C 119.87 114.02 120.39 112.79 119.96 111.70 L 119.51 110.59 C 119.07 109.51 117.84 108.98 116.75 109.42 C 115.66 109.86 115.14 111.09 115.57 112.18 Z M 116.01 113.27 L 116.42 114.29 C 116.85 115.38 118.08 115.92 119.17 115.49 C 120.26 115.05 120.80 113.82 120.36 112.73 L 119.96 111.71 C 119.53 110.62 118.29 110.09 117.20 110.52 C 116.11 110.95 115.58 112.18 116.01 113.27 Z M 116.41 114.28 L 116.79 115.23 C 117.21 116.33 118.44 116.87 119.53 116.44 C 120.63 116.01 121.16 114.78 120.74 113.69 L 120.37 112.74 C 119.94 111.65 118.71 111.11 117.62 111.54 C 116.53 111.96 115.99 113.19 116.41 114.28 Z M 116.78 115.23 L 117.13 116.12 C 117.55 117.21 118.77 117.75 119.87 117.33 C 120.96 116.91 121.51 115.69 121.08 114.59 L 120.74 113.70 C 120.32 112.61 119.09 112.06 118.00 112.48 C 116.91 112.90 116.36 114.13 116.78 115.23 Z M 117.12 116.11 L 117.44 116.95 C 117.86 118.05 119.09 118.60 120.18 118.18 C 121.28 117.76 121.83 116.54 121.41 115.44 L 121.09 114.60 C 120.67 113.51 119.45 112.96 118.35 113.37 C 117.26 113.79 116.71 115.01 117.12 116.11 Z M 117.44 116.95 L 117.75 117.75 C 118.16 118.85 119.38 119.40 120.48 118.99 C 121.58 118.57 122.13 117.35 121.71 116.26 L 121.41 115.45 C 121.00 114.35 119.77 113.80 118.68 114.21 C 117.58 114.63 117.03 115.85 117.44 116.95 Z M 117.75 117.75 L 118.04 118.53 C 118.45 119.63 119.67 120.18 120.77 119.77 C 121.87 119.36 122.42 118.14 122.01 117.04 L 121.72 116.26 C 121.30 115.16 120.08 114.61 118.99 115.02 C 117.89 115.43 117.33 116.65 117.75 117.75 Z M 118.04 118.53 L 118.33 119.30 C 118.74 120.40 119.96 120.95 121.06 120.54 C 122.16 120.13 122.71 118.91 122.30 117.81 L 122.01 117.04 C 121.60 115.94 120.37 115.39 119.28 115.80 C 118.18 116.21 117.63 117.44 118.04 118.53 Z M 118.33 119.31 L 118.65 120.15 C 119.06 121.24 120.29 121.80 121.38 121.38 C 122.48 120.97 123.03 119.75 122.62 118.65 L 122.30 117.81 C 121.88 116.71 120.66 116.16 119.56 116.57 C 118.47 116.99 117.92 118.21 118.33 119.31 Z M 118.65 120.15 L 119.00 121.06 C 119.41 122.16 120.64 122.71 121.73 122.29 C 122.83 121.87 123.38 120.65 122.96 119.56 L 122.61 118.65 C 122.20 117.55 120.97 117.00 119.88 117.42 C 118.79 117.84 118.24 119.06 118.65 120.15 Z M 119.00 121.06 L 119.35 121.98 C 119.76 123.07 120.99 123.62 122.08 123.21 C 123.18 122.79 123.72 121.57 123.31 120.47 L 122.96 119.56 C 122.54 118.46 121.32 117.91 120.23 118.33 C 119.13 118.75 118.58 119.97 119.00 121.06 Z M 119.35 121.98 L 119.70 122.90 C 120.11 124.00 121.34 124.55 122.43 124.13 C 123.52 123.72 124.07 122.49 123.66 121.40 L 123.31 120.47 C 122.89 119.38 121.67 118.83 120.58 119.25 C 119.48 119.66 118.93 120.88 119.35 121.98 Z M 119.70 122.90 L 120.05 123.83 C 120.46 124.93 121.68 125.48 122.78 125.07 C 123.87 124.65 124.42 123.43 124.01 122.34 L 123.66 121.40 C 123.25 120.31 122.03 119.76 120.93 120.17 C 119.84 120.58 119.28 121.80 119.70 122.90 Z M 120.05 123.82 L 120.40 124.77 C 120.80 125.86 122.02 126.42 123.12 126.01 C 124.22 125.61 124.77 124.39 124.37 123.29 L 124.02 122.35 C 123.61 121.25 122.39 120.69 121.29 121.10 C 120.20 121.51 119.64 122.73 120.05 123.82 Z M 120.39 124.76 L 120.74 125.71 C 121.14 126.81 122.36 127.37 123.46 126.97 C 124.56 126.57 125.12 125.35 124.72 124.26 L 124.37 123.30 C 123.97 122.20 122.75 121.64 121.65 122.04 C 120.56 122.44 119.99 123.66 120.39 124.76 Z M 120.74 125.70 L 121.08 126.66 C 121.48 127.77 122.69 128.34 123.79 127.95 C 124.89 127.55 125.46 126.34 125.07 125.24 L 124.72 124.27 C 124.33 123.17 123.12 122.60 122.02 122.99 C 120.92 123.38 120.34 124.60 120.74 125.70 Z M 121.08 126.65 L 121.41 127.61 C 121.80 128.71 123.00 129.29 124.11 128.91 C 125.21 128.52 125.79 127.31 125.41 126.21 L 125.08 125.25 C 124.69 124.15 123.48 123.57 122.38 123.95 C 121.28 124.34 120.69 125.54 121.08 126.65 Z M 121.41 127.59 L 121.72 128.51 C 122.09 129.61 123.30 130.21 124.40 129.83 C 125.51 129.45 126.10 128.25 125.73 127.14 L 125.41 126.23 C 125.04 125.12 123.84 124.53 122.73 124.90 C 121.62 125.28 121.03 126.48 121.41 127.59 Z M 121.71 128.49 L 122.02 129.42 C 122.39 130.53 123.59 131.13 124.70 130.76 C 125.81 130.39 126.41 129.20 126.04 128.09 L 125.73 127.16 C 125.36 126.05 124.16 125.45 123.05 125.82 C 121.95 126.19 121.35 127.38 121.71 128.49 Z M 122.02 129.41 L 122.33 130.35 C 122.69 131.46 123.88 132.07 125.00 131.71 C 126.11 131.34 126.71 130.15 126.35 129.04 L 126.04 128.10 C 125.68 126.99 124.48 126.38 123.37 126.74 C 122.26 127.11 121.66 128.30 122.02 129.41 Z M 122.32 130.34 L 122.63 131.29 C 122.99 132.40 124.18 133.02 125.29 132.66 C 126.41 132.30 127.02 131.11 126.66 129.99 L 126.35 129.04 C 125.99 127.93 124.80 127.32 123.69 127.68 C 122.58 128.04 121.97 129.23 122.32 130.34 Z M 122.63 131.29 L 122.93 132.24 C 123.29 133.36 124.48 133.97 125.59 133.62 C 126.71 133.26 127.32 132.07 126.97 130.96 L 126.66 130.00 C 126.30 128.89 125.11 128.27 124.00 128.63 C 122.89 128.98 122.27 130.17 122.63 131.29 Z M 122.93 132.24 L 123.24 133.21 C 123.59 134.32 124.78 134.93 125.90 134.58 C 127.01 134.23 127.63 133.04 127.27 131.92 L 126.97 130.96 C 126.61 129.85 125.42 129.23 124.31 129.58 C 123.20 129.94 122.58 131.13 122.93 132.24 Z M 123.24 133.20 L 123.55 134.18 C 123.90 135.29 125.09 135.91 126.21 135.55 C 127.32 135.20 127.93 134.01 127.58 132.90 L 127.27 131.92 C 126.92 130.81 125.73 130.20 124.62 130.55 C 123.50 130.90 122.89 132.09 123.24 133.20 Z M 123.55 134.18 L 123.86 135.15 C 124.22 136.27 125.40 136.88 126.52 136.53 C 127.63 136.17 128.25 134.98 127.89 133.87 L 127.58 132.89 C 127.23 131.78 126.04 131.17 124.92 131.52 C 123.81 131.87 123.20 133.06 123.55 134.18 Z M 123.86 135.16 L 124.17 136.12 C 124.53 137.23 125.72 137.84 126.83 137.49 C 127.94 137.13 128.55 135.94 128.20 134.83 L 127.89 133.87 C 127.53 132.76 126.34 132.14 125.23 132.50 C 124.12 132.86 123.51 134.05 123.86 135.16 Z M 124.17 136.12 L 124.47 137.06 C 124.83 138.17 126.02 138.78 127.13 138.42 C 128.25 138.06 128.86 136.87 128.50 135.76 L 128.20 134.82 C 127.84 133.71 126.65 133.10 125.53 133.46 C 124.42 133.82 123.81 135.01 124.17 136.12 Z M 124.47 137.06 L 124.78 137.99 C 125.14 139.11 126.33 139.71 127.44 139.35 C 128.55 138.99 129.16 137.80 128.80 136.69 L 128.50 135.75 C 128.14 134.64 126.94 134.03 125.83 134.39 C 124.72 134.75 124.11 135.95 124.47 137.06 Z M 124.78 138.00 L 125.08 138.94 C 125.44 140.05 126.64 140.66 127.75 140.30 C 128.86 139.94 129.47 138.74 129.11 137.63 L 128.80 136.69 C 128.44 135.58 127.25 134.97 126.14 135.33 C 125.03 135.69 124.42 136.88 124.78 138.00 Z M 125.08 138.94 L 125.39 139.88 C 125.75 140.99 126.94 141.60 128.05 141.24 C 129.16 140.88 129.77 139.69 129.41 138.58 L 129.11 137.63 C 128.75 136.52 127.55 135.91 126.44 136.27 C 125.33 136.63 124.72 137.82 125.08 138.94 Z M 125.39 139.88 L 125.70 140.83 C 126.05 141.94 127.24 142.55 128.36 142.20 C 129.47 141.84 130.08 140.65 129.72 139.54 L 129.41 138.58 C 129.05 137.47 127.86 136.86 126.75 137.22 C 125.64 137.58 125.03 138.77 125.39 139.88 Z M 125.69 140.83 L 126.00 141.79 C 126.36 142.90 127.55 143.51 128.66 143.16 C 129.77 142.80 130.38 141.61 130.03 140.50 L 129.72 139.54 C 129.37 138.43 128.18 137.81 127.06 138.17 C 125.95 138.53 125.34 139.72 125.69 140.83 Z M 126.00 141.78 L 126.30 142.74 C 126.66 143.86 127.84 144.47 128.96 144.12 C 130.07 143.77 130.69 142.58 130.33 141.47 L 130.03 140.50 C 129.68 139.39 128.49 138.77 127.38 139.13 C 126.26 139.48 125.65 140.67 126.00 141.78 Z M 126.30 142.74 L 126.60 143.71 C 126.95 144.82 128.14 145.44 129.25 145.09 C 130.36 144.75 130.99 143.56 130.64 142.45 L 130.34 141.48 C 129.99 140.36 128.80 139.74 127.69 140.09 C 126.58 140.44 125.95 141.62 126.30 142.74 Z M 126.60 143.70 L 126.90 144.67 C 127.24 145.79 128.42 146.42 129.54 146.08 C 130.66 145.73 131.28 144.55 130.94 143.44 L 130.64 142.46 C 130.30 141.34 129.12 140.71 128.00 141.06 C 126.89 141.40 126.26 142.58 126.60 143.70 Z M 126.90 144.66 L 127.18 145.59 C 127.51 146.71 128.69 147.34 129.81 147.00 C 130.93 146.67 131.56 145.49 131.22 144.37 L 130.95 143.45 C 130.61 142.33 129.43 141.70 128.31 142.03 C 127.19 142.37 126.56 143.55 126.90 144.66 Z M 127.17 145.58 L 127.45 146.51 C 127.78 147.63 128.95 148.27 130.07 147.94 C 131.19 147.61 131.83 146.43 131.50 145.31 L 131.23 144.38 C 130.90 143.26 129.72 142.62 128.60 142.95 C 127.48 143.28 126.84 144.46 127.17 145.58 Z M 127.44 146.50 L 127.72 147.44 C 128.04 148.56 129.21 149.20 130.34 148.88 C 131.46 148.55 132.10 147.38 131.78 146.26 L 131.50 145.32 C 131.18 144.20 130.01 143.55 128.89 143.88 C 127.76 144.21 127.12 145.38 127.44 146.50 Z M 127.71 147.43 L 127.98 148.37 C 128.30 149.49 129.47 150.15 130.60 149.83 C 131.72 149.51 132.37 148.34 132.05 147.21 L 131.78 146.27 C 131.46 145.15 130.29 144.49 129.17 144.81 C 128.04 145.13 127.39 146.30 127.71 147.43 Z M 127.98 148.36 L 128.25 149.32 C 128.56 150.44 129.73 151.10 130.85 150.78 C 131.98 150.47 132.63 149.30 132.32 148.18 L 132.05 147.22 C 131.74 146.10 130.57 145.44 129.45 145.76 C 128.32 146.07 127.67 147.24 127.98 148.36 Z M 128.25 149.31 L 128.51 150.27 C 128.82 151.40 129.99 152.06 131.11 151.75 C 132.24 151.44 132.90 150.28 132.59 149.15 L 132.32 148.19 C 132.01 147.06 130.85 146.40 129.72 146.71 C 128.60 147.02 127.94 148.19 128.25 149.31 Z M 128.51 150.27 L 128.78 151.24 C 129.08 152.37 130.24 153.03 131.37 152.73 C 132.49 152.42 133.16 151.26 132.85 150.13 L 132.59 149.16 C 132.28 148.03 131.12 147.37 130.00 147.67 C 128.87 147.98 128.21 149.14 128.51 150.27 Z M 128.77 151.23 L 129.04 152.22 C 129.34 153.35 130.50 154.02 131.62 153.72 C 132.75 153.41 133.42 152.26 133.12 151.13 L 132.86 150.14 C 132.55 149.02 131.40 148.35 130.27 148.65 C 129.14 148.95 128.47 150.11 128.77 151.23 Z M 129.04 152.21 L 129.30 153.21 C 129.60 154.34 130.75 155.01 131.88 154.72 C 133.01 154.42 133.68 153.26 133.38 152.13 L 133.12 151.14 C 132.82 150.01 131.67 149.33 130.54 149.63 C 129.41 149.93 128.74 151.09 129.04 152.21 Z M 129.30 153.20 L 129.56 154.21 C 129.85 155.34 131.01 156.02 132.14 155.73 C 133.27 155.43 133.94 154.28 133.65 153.15 L 133.39 152.14 C 133.09 151.01 131.94 150.33 130.81 150.63 C 129.68 150.92 129.00 152.08 129.30 153.20 Z M 129.56 154.21 L 129.80 155.15 C 130.09 156.28 131.24 156.96 132.37 156.67 C 133.50 156.38 134.18 155.23 133.89 154.10 L 133.65 153.16 C 133.36 152.03 132.21 151.35 131.08 151.64 C 129.95 151.93 129.27 153.08 129.56 154.21 Z M 129.80 155.15 L 130.04 156.09 C 130.33 157.22 131.48 157.91 132.61 157.62 C 133.74 157.33 134.42 156.18 134.13 155.05 L 133.89 154.11 C 133.61 152.98 132.46 152.29 131.33 152.58 C 130.20 152.87 129.51 154.02 129.80 155.15 Z M 130.04 156.09 L 130.28 157.04 C 130.56 158.17 131.71 158.86 132.84 158.57 C 133.97 158.29 134.66 157.14 134.38 156.01 L 134.14 155.06 C 133.85 153.92 132.70 153.24 131.57 153.52 C 130.44 153.81 129.75 154.96 130.04 156.09 Z M 130.28 157.04 L 130.52 158.00 C 130.80 159.13 131.95 159.82 133.08 159.54 C 134.21 159.25 134.90 158.11 134.62 156.98 L 134.38 156.01 C 134.09 154.88 132.95 154.19 131.82 154.48 C 130.68 154.76 130.00 155.91 130.28 157.04 Z M 130.52 158.00 L 130.76 158.96 C 131.04 160.10 132.18 160.79 133.32 160.51 C 134.45 160.23 135.14 159.08 134.86 157.95 L 134.62 156.98 C 134.34 155.85 133.19 155.16 132.06 155.44 C 130.93 155.72 130.24 156.86 130.52 158.00 Z M 130.76 158.96 L 131.00 159.94 C 131.28 161.07 132.42 161.76 133.55 161.48 C 134.69 161.20 135.38 160.06 135.10 158.93 L 134.86 157.95 C 134.58 156.82 133.44 156.13 132.30 156.41 C 131.17 156.68 130.48 157.83 130.76 158.96 Z M 131.00 159.93 L 131.24 160.91 C 131.51 162.05 132.66 162.74 133.79 162.46 C 134.92 162.19 135.62 161.04 135.34 159.91 L 135.10 158.93 C 134.82 157.80 133.68 157.10 132.55 157.38 C 131.41 157.66 130.72 158.80 131.00 159.93 Z M 131.24 160.91 L 131.48 161.90 C 131.75 163.03 132.90 163.72 134.03 163.45 C 135.16 163.17 135.86 162.03 135.58 160.90 L 135.34 159.91 C 135.06 158.78 133.92 158.08 132.79 158.36 C 131.65 158.64 130.96 159.78 131.24 160.91 Z M 131.48 161.90 L 131.72 162.88 C 131.99 164.02 133.13 164.71 134.27 164.44 C 135.40 164.16 136.10 163.02 135.82 161.88 L 135.58 160.90 C 135.30 159.76 134.16 159.07 133.03 159.34 C 131.90 159.62 131.20 160.76 131.48 161.90 Z M 131.72 162.88 L 131.96 163.87 C 132.23 165.00 133.37 165.70 134.51 165.43 C 135.64 165.15 136.34 164.01 136.06 162.87 L 135.82 161.89 C 135.55 160.75 134.40 160.06 133.27 160.33 C 132.14 160.61 131.44 161.75 131.72 162.88 Z M 131.96 163.87 L 132.20 164.86 C 132.47 165.99 133.61 166.69 134.75 166.42 C 135.88 166.14 136.58 165.00 136.30 163.87 L 136.06 162.88 C 135.79 161.74 134.64 161.05 133.51 161.32 C 132.38 161.59 131.68 162.74 131.96 163.87 Z M 132.20 164.86 L 132.43 165.83 C 132.70 166.96 133.85 167.66 134.98 167.38 C 136.11 167.11 136.81 165.97 136.54 164.83 L 136.30 163.87 C 136.03 162.73 134.88 162.04 133.75 162.31 C 132.62 162.59 131.92 163.73 132.20 164.86 Z M 132.43 165.83 L 132.66 166.79 C 132.94 167.93 134.08 168.62 135.21 168.35 C 136.35 168.07 137.04 166.93 136.77 165.80 L 136.54 164.83 C 136.26 163.70 135.12 163.00 133.99 163.28 C 132.85 163.55 132.16 164.69 132.43 165.83 Z M 132.66 166.79 L 132.90 167.76 C 133.17 168.89 134.31 169.59 135.45 169.31 C 136.58 169.04 137.28 167.90 137.00 166.76 L 136.77 165.80 C 136.50 164.66 135.35 163.97 134.22 164.24 C 133.09 164.51 132.39 165.66 132.66 166.79 Z M 132.90 167.75 L 133.13 168.72 C 133.40 169.85 134.54 170.55 135.68 170.28 C 136.81 170.01 137.51 168.87 137.24 167.73 L 137.00 166.77 C 136.73 165.63 135.59 164.93 134.46 165.21 C 133.32 165.48 132.62 166.62 132.90 167.75 Z M 133.13 168.72 L 133.36 169.69 C 133.63 170.82 134.77 171.52 135.90 171.25 C 137.04 170.98 137.74 169.84 137.47 168.70 L 137.24 167.73 C 136.96 166.60 135.83 165.90 134.69 166.17 C 133.56 166.44 132.86 167.58 133.13 168.72 Z M 133.36 169.68 L 133.59 170.65 C 133.86 171.79 135.00 172.49 136.13 172.22 C 137.27 171.95 137.97 170.81 137.70 169.68 L 137.47 168.71 C 137.20 167.57 136.06 166.87 134.93 167.14 C 133.79 167.41 133.09 168.55 133.36 169.68 Z M 133.59 170.65 L 133.82 171.62 C 134.08 172.76 135.22 173.46 136.36 173.19 C 137.49 172.93 138.20 171.79 137.93 170.65 L 137.70 169.68 C 137.43 168.54 136.30 167.84 135.16 168.11 C 134.02 168.38 133.32 169.51 133.59 170.65 Z M 133.82 171.62 L 134.04 172.59 C 134.31 173.73 135.44 174.44 136.58 174.17 C 137.72 173.91 138.42 172.77 138.16 171.63 L 137.93 170.66 C 137.66 169.52 136.53 168.82 135.39 169.08 C 134.26 169.34 133.55 170.48 133.82 171.62 Z M 134.04 172.59 L 134.27 173.57 C 134.53 174.70 135.66 175.41 136.80 175.15 C 137.94 174.89 138.65 173.76 138.38 172.62 L 138.16 171.64 C 137.90 170.50 136.76 169.79 135.63 170.06 C 134.49 170.32 133.78 171.45 134.04 172.59 Z M 134.27 173.56 L 134.49 174.55 C 134.75 175.68 135.88 176.40 137.02 176.14 C 138.15 175.88 138.87 174.75 138.61 173.61 L 138.38 172.63 C 138.13 171.49 136.99 170.78 135.86 171.03 C 134.72 171.29 134.01 172.42 134.27 173.56 Z M 134.49 174.54 L 134.71 175.53 C 134.96 176.67 136.09 177.38 137.23 177.13 C 138.37 176.87 139.09 175.74 138.83 174.60 L 138.61 173.62 C 138.36 172.48 137.23 171.76 136.09 172.02 C 134.95 172.27 134.23 173.40 134.49 174.54 Z M 134.71 175.52 L 134.92 176.50 C 135.17 177.63 136.30 178.35 137.44 178.10 C 138.58 177.85 139.30 176.73 139.05 175.59 L 138.83 174.61 C 138.58 173.47 137.45 172.75 136.32 173.00 C 135.18 173.25 134.46 174.38 134.71 175.52 Z M 134.92 176.49 L 135.13 177.45 C 135.38 178.59 136.50 179.32 137.64 179.07 C 138.78 178.82 139.51 177.70 139.26 176.56 L 139.05 175.59 C 138.80 174.45 137.68 173.73 136.54 173.98 C 135.40 174.22 134.67 175.35 134.92 176.49 Z M 135.13 177.45 L 135.34 178.42 C 135.58 179.56 136.70 180.29 137.84 180.04 C 138.98 179.80 139.71 178.68 139.47 177.54 L 139.26 176.57 C 139.02 175.43 137.89 174.70 136.75 174.94 C 135.61 175.19 134.89 176.31 135.13 177.45 Z M 135.34 178.41 L 135.54 179.39 C 135.78 180.53 136.90 181.26 138.04 181.02 C 139.18 180.78 139.91 179.66 139.67 178.52 L 139.47 177.54 C 139.23 176.40 138.11 175.67 136.97 175.91 C 135.83 176.15 135.10 177.27 135.34 178.41 Z M 135.54 179.38 L 135.74 180.36 C 135.98 181.50 137.09 182.23 138.24 182.00 C 139.38 181.76 140.11 180.64 139.88 179.50 L 139.67 178.52 C 139.44 177.38 138.32 176.65 137.18 176.88 C 136.04 177.12 135.30 178.24 135.54 179.38 Z M 135.74 180.35 L 135.94 181.33 C 136.17 182.47 137.29 183.21 138.43 182.98 C 139.57 182.75 140.31 181.63 140.08 180.49 L 139.88 179.51 C 139.64 178.36 138.53 177.63 137.39 177.86 C 136.24 178.09 135.51 179.21 135.74 180.35 Z M 135.94 181.33 L 136.14 182.31 C 136.37 183.45 137.48 184.19 138.62 183.96 C 139.76 183.73 140.51 182.62 140.28 181.48 L 140.08 180.49 C 139.85 179.35 138.74 178.61 137.59 178.84 C 136.45 179.07 135.71 180.18 135.94 181.33 Z M 136.14 182.30 L 136.33 183.29 C 136.56 184.43 137.67 185.17 138.81 184.95 C 139.95 184.72 140.70 183.61 140.47 182.47 L 140.28 181.48 C 140.05 180.34 138.94 179.60 137.80 179.82 C 136.65 180.05 135.91 181.16 136.14 182.30 Z M 136.33 183.28 L 136.52 184.27 C 136.75 185.41 137.85 186.16 139.00 185.94 C 140.14 185.71 140.89 184.60 140.67 183.46 L 140.47 182.47 C 140.25 181.33 139.14 180.58 138.00 180.81 C 136.85 181.03 136.11 182.14 136.33 183.28 Z M 136.52 184.26 L 136.71 185.25 C 136.93 186.40 138.04 187.15 139.18 186.93 C 140.33 186.71 141.08 185.60 140.86 184.45 L 140.67 183.47 C 140.45 182.32 139.34 181.57 138.19 181.79 C 137.05 182.01 136.30 183.12 136.52 184.26 Z M 136.71 185.25 L 136.90 186.24 C 137.12 187.38 138.22 188.13 139.36 187.92 C 140.51 187.70 141.26 186.59 141.04 185.45 L 140.86 184.46 C 140.64 183.31 139.54 182.56 138.39 182.78 C 137.24 183.00 136.49 184.10 136.71 185.25 Z M 136.90 186.23 L 137.08 187.22 C 137.30 188.37 138.40 189.12 139.55 188.91 C 140.69 188.69 141.45 187.59 141.23 186.44 L 141.05 185.45 C 140.83 184.31 139.73 183.55 138.58 183.77 C 137.44 183.98 136.68 185.08 136.90 186.23 Z M 137.08 187.21 L 137.26 188.20 C 137.48 189.35 138.58 190.10 139.72 189.89 C 140.87 189.68 141.63 188.58 141.41 187.43 L 141.23 186.45 C 141.02 185.30 139.92 184.54 138.77 184.76 C 137.63 184.97 136.87 186.07 137.08 187.21 Z M 137.26 188.20 L 137.44 189.18 C 137.65 190.33 138.75 191.09 139.90 190.88 C 141.04 190.67 141.80 189.57 141.59 188.42 L 141.41 187.44 C 141.20 186.29 140.11 185.53 138.96 185.74 C 137.81 185.95 137.05 187.05 137.26 188.20 Z M 137.44 189.18 L 137.62 190.16 C 137.83 191.31 138.93 192.07 140.07 191.86 C 141.22 191.65 141.98 190.55 141.77 189.41 L 141.59 188.42 C 141.39 187.28 140.29 186.52 139.14 186.72 C 138.00 186.93 137.23 188.03 137.44 189.18 Z M 137.62 190.16 L 137.80 191.14 C 138.00 192.29 139.10 193.05 140.25 192.84 C 141.39 192.64 142.16 191.54 141.95 190.39 L 141.77 189.41 C 141.57 188.26 140.47 187.50 139.32 187.71 C 138.18 187.91 137.41 189.01 137.62 190.16 Z M 137.80 191.14 L 137.97 192.12 C 138.18 193.27 139.28 194.03 140.42 193.83 C 141.57 193.62 142.33 192.53 142.13 191.38 L 141.95 190.40 C 141.75 189.25 140.65 188.49 139.50 188.69 C 138.36 188.90 137.59 189.99 137.80 191.14 Z M 137.97 192.12 L 138.15 193.11 C 138.35 194.25 139.45 195.02 140.60 194.81 C 141.74 194.61 142.51 193.51 142.30 192.37 L 142.13 191.38 C 141.92 190.23 140.83 189.47 139.68 189.68 C 138.53 189.88 137.77 190.98 137.97 192.12 Z M 138.15 193.11 L 138.33 194.09 C 138.53 195.24 139.63 196.00 140.77 195.80 C 141.92 195.59 142.68 194.50 142.48 193.35 L 142.30 192.37 C 142.10 191.22 141.00 190.45 139.86 190.66 C 138.71 190.86 137.94 191.96 138.15 193.11 Z M 138.33 194.09 L 138.50 195.08 C 138.71 196.22 139.80 196.99 140.95 196.78 C 142.10 196.57 142.86 195.48 142.65 194.33 L 142.48 193.35 C 142.27 192.20 141.18 191.44 140.03 191.64 C 138.88 191.85 138.12 192.95 138.33 194.09 Z M 138.50 195.08 L 138.68 196.06 C 138.89 197.21 139.98 197.97 141.13 197.76 C 142.27 197.56 143.04 196.46 142.83 195.31 L 142.65 194.33 C 142.45 193.18 141.35 192.42 140.20 192.63 C 139.06 192.83 138.30 193.93 138.50 195.08 Z M 138.68 196.06 L 138.86 197.05 C 139.07 198.19 140.16 198.95 141.31 198.75 C 142.45 198.54 143.22 197.44 143.01 196.30 L 142.83 195.31 C 142.62 194.17 141.53 193.41 140.38 193.61 C 139.23 193.82 138.47 194.92 138.68 196.06 Z M 138.86 197.05 L 139.04 198.04 C 139.25 199.18 140.35 199.94 141.49 199.73 C 142.64 199.52 143.40 198.42 143.19 197.28 L 143.01 196.29 C 142.80 195.15 141.70 194.39 140.55 194.60 C 139.41 194.81 138.65 195.91 138.86 197.05 Z M 139.04 198.04 L 139.22 199.03 C 139.43 200.17 140.53 200.93 141.68 200.72 C 142.82 200.50 143.58 199.40 143.37 198.26 L 143.19 197.27 C 142.97 196.13 141.87 195.37 140.73 195.58 C 139.58 195.79 138.83 196.89 139.04 198.04 Z M 139.22 199.03 L 139.41 200.04 C 139.63 201.18 140.73 201.93 141.87 201.72 C 143.02 201.51 143.77 200.40 143.56 199.26 L 143.37 198.25 C 143.15 197.11 142.05 196.36 140.91 196.57 C 139.76 196.78 139.01 197.89 139.22 199.03 Z M 139.41 200.04 L 139.60 201.04 C 139.82 202.19 140.92 202.94 142.07 202.72 C 143.21 202.51 143.96 201.40 143.74 200.26 L 143.55 199.26 C 143.34 198.11 142.23 197.36 141.09 197.58 C 139.95 197.79 139.20 198.90 139.41 200.04 Z M 139.60 201.05 L 139.79 202.05 C 140.01 203.19 141.12 203.94 142.26 203.72 C 143.40 203.50 144.15 202.40 143.94 201.26 L 143.74 200.26 C 143.52 199.11 142.42 198.36 141.28 198.58 C 140.13 198.80 139.38 199.90 139.60 201.05 Z M 139.80 202.05 L 139.99 203.05 C 140.21 204.19 141.31 204.94 142.46 204.72 C 143.60 204.50 144.35 203.39 144.13 202.25 L 143.93 201.25 C 143.71 200.11 142.61 199.36 141.47 199.58 C 140.32 199.80 139.57 200.91 139.80 202.05 Z M 139.99 203.05 L 140.18 204.05 C 140.41 205.19 141.51 205.94 142.65 205.71 C 143.80 205.49 144.54 204.38 144.32 203.24 L 144.13 202.25 C 143.90 201.11 142.80 200.36 141.66 200.58 C 140.51 200.81 139.77 201.91 139.99 203.05 Z M 140.18 204.05 L 140.38 205.04 C 140.60 206.18 141.71 206.93 142.85 206.70 C 143.99 206.48 144.74 205.37 144.51 204.23 L 144.32 203.24 C 144.10 202.10 142.99 201.35 141.85 201.58 C 140.70 201.80 139.96 202.91 140.18 204.05 Z M 140.38 205.04 L 140.57 206.02 C 140.80 207.17 141.91 207.91 143.05 207.68 C 144.19 207.46 144.93 206.35 144.71 205.21 L 144.51 204.23 C 144.29 203.08 143.18 202.34 142.04 202.57 C 140.90 202.79 140.15 203.90 140.38 205.04 Z M 140.57 206.03 L 140.77 207.00 C 140.99 208.14 142.10 208.88 143.24 208.66 C 144.38 208.43 145.13 207.32 144.90 206.18 L 144.71 205.21 C 144.48 204.06 143.37 203.32 142.23 203.55 C 141.09 203.78 140.35 204.88 140.57 206.03 Z M 140.77 207.00 L 140.96 207.97 C 141.19 209.11 142.29 209.85 143.44 209.62 C 144.58 209.39 145.32 208.28 145.09 207.14 L 144.90 206.18 C 144.67 205.04 143.56 204.30 142.42 204.52 C 141.28 204.75 140.54 205.86 140.77 207.00 Z M 140.96 207.97 L 141.15 208.92 C 141.38 210.06 142.49 210.80 143.63 210.58 C 144.77 210.35 145.51 209.24 145.28 208.10 L 145.09 207.14 C 144.86 206.00 143.75 205.26 142.61 205.49 C 141.47 205.72 140.73 206.83 140.96 207.97 Z M 141.15 208.92 L 141.34 209.87 C 141.57 211.01 142.68 211.75 143.82 211.52 C 144.96 211.29 145.70 210.18 145.47 209.04 L 145.28 208.10 C 145.05 206.96 143.94 206.22 142.80 206.44 C 141.66 206.67 140.92 207.78 141.15 208.92 Z M 141.34 209.87 L 141.53 210.81 C 141.75 211.95 142.86 212.69 144.00 212.46 C 145.15 212.23 145.89 211.12 145.66 209.98 L 145.47 209.04 C 145.24 207.90 144.13 207.16 142.99 207.39 C 141.85 207.62 141.11 208.73 141.34 209.87 Z M 141.53 210.81 L 141.71 211.74 C 141.94 212.88 143.05 213.62 144.19 213.39 C 145.33 213.16 146.07 212.05 145.84 210.91 L 145.66 209.98 C 145.43 208.84 144.32 208.10 143.18 208.33 C 142.04 208.56 141.30 209.67 141.53 210.81 Z M 141.71 211.74 L 141.90 212.67 C 142.13 213.81 143.24 214.55 144.38 214.32 C 145.52 214.09 146.26 212.98 146.03 211.84 L 145.84 210.91 C 145.61 209.77 144.50 209.03 143.36 209.26 C 142.22 209.49 141.48 210.60 141.71 211.74 Z M 141.90 212.67 L 142.09 213.60 C 142.32 214.74 143.43 215.48 144.57 215.25 C 145.71 215.02 146.45 213.90 146.22 212.76 L 146.03 211.84 C 145.80 210.70 144.69 209.96 143.55 210.19 C 142.41 210.42 141.67 211.53 141.90 212.67 Z M 142.09 213.61 L 142.28 214.54 C 142.52 215.68 143.63 216.41 144.77 216.18 C 145.91 215.95 146.64 214.83 146.41 213.69 L 146.22 212.76 C 145.98 211.62 144.87 210.89 143.73 211.12 C 142.59 211.36 141.86 212.47 142.09 213.61 Z M 142.28 214.55 L 142.48 215.49 C 142.72 216.63 143.83 217.36 144.97 217.12 C 146.11 216.89 146.84 215.77 146.60 214.63 L 146.41 213.69 C 146.17 212.55 145.06 211.82 143.92 212.06 C 142.78 212.29 142.05 213.41 142.28 214.55 Z M 142.48 215.50 L 142.68 216.45 C 142.92 217.59 144.04 218.32 145.18 218.08 C 146.32 217.84 147.04 216.72 146.80 215.58 L 146.60 214.63 C 146.36 213.49 145.24 212.76 144.11 213.00 C 142.97 213.24 142.24 214.36 142.48 215.50 Z M 142.69 216.46 L 142.90 217.44 C 143.14 218.58 144.26 219.30 145.40 219.05 C 146.53 218.81 147.26 217.69 147.01 216.55 L 146.80 215.58 C 146.56 214.44 145.44 213.72 144.30 213.96 C 143.17 214.20 142.44 215.32 142.69 216.46 Z M 142.90 217.45 L 143.12 218.45 C 143.37 219.58 144.49 220.30 145.62 220.06 C 146.76 219.81 147.48 218.68 147.23 217.55 L 147.01 216.55 C 146.76 215.41 145.64 214.69 144.50 214.94 C 143.37 215.19 142.65 216.31 142.90 217.45 Z M 143.12 218.46 L 143.35 219.49 C 143.60 220.62 144.73 221.34 145.86 221.09 C 147.00 220.83 147.71 219.71 147.46 218.57 L 147.23 217.54 C 146.98 216.41 145.85 215.69 144.72 215.94 C 143.58 216.20 142.87 217.32 143.12 218.46 Z M 143.35 219.50 L 143.60 220.56 C 143.85 221.70 144.98 222.41 146.12 222.15 C 147.25 221.89 147.96 220.76 147.70 219.63 L 147.46 218.56 C 147.20 217.43 146.07 216.72 144.94 216.98 C 143.80 217.24 143.09 218.36 143.35 219.50 Z M 143.60 220.57 L 143.85 221.64 C 144.11 222.78 145.24 223.48 146.37 223.22 C 147.50 222.95 148.21 221.82 147.95 220.69 L 147.70 219.62 C 147.43 218.49 146.30 217.78 145.17 218.05 C 144.04 218.31 143.33 219.44 143.60 220.57 Z M 143.85 221.65 L 144.08 222.61 C 144.34 223.74 145.48 224.44 146.61 224.18 C 147.74 223.91 148.44 222.77 148.17 221.64 L 147.94 220.68 C 147.68 219.55 146.54 218.85 145.41 219.12 C 144.28 219.39 143.58 220.52 143.85 221.65 Z M 144.08 222.62 L 144.32 223.61 C 144.59 224.74 145.73 225.43 146.86 225.16 C 147.99 224.88 148.68 223.75 148.41 222.62 L 148.17 221.63 C 147.90 220.50 146.76 219.81 145.63 220.08 C 144.50 220.36 143.80 221.49 144.08 222.62 Z M 144.32 223.62 L 144.57 224.62 C 144.85 225.75 145.99 226.44 147.12 226.16 C 148.25 225.87 148.94 224.73 148.65 223.60 L 148.40 222.60 C 148.12 221.48 146.98 220.79 145.85 221.07 C 144.73 221.35 144.04 222.49 144.32 223.62 Z M 144.57 224.64 L 144.83 225.65 C 145.12 226.77 146.27 227.45 147.40 227.16 C 148.52 226.87 149.20 225.73 148.91 224.60 L 148.65 223.59 C 148.36 222.46 147.21 221.79 146.09 222.08 C 144.96 222.37 144.28 223.51 144.57 224.64 Z M 144.84 225.67 L 145.11 226.68 C 145.41 227.81 146.56 228.47 147.69 228.17 C 148.81 227.87 149.48 226.72 149.18 225.60 L 148.91 224.58 C 148.61 223.46 147.45 222.79 146.33 223.09 C 145.21 223.39 144.54 224.54 144.84 225.67 Z M 145.12 226.70 L 145.40 227.72 C 145.71 228.84 146.87 229.49 147.99 229.18 C 149.11 228.87 149.76 227.71 149.45 226.59 L 149.17 225.57 C 148.86 224.46 147.70 223.80 146.58 224.11 C 145.46 224.42 144.80 225.58 145.12 226.70 Z M 145.41 227.74 L 145.70 228.74 C 146.02 229.86 147.19 230.50 148.31 230.17 C 149.42 229.85 150.06 228.68 149.74 227.57 L 149.45 226.56 C 149.12 225.45 147.95 224.81 146.84 225.13 C 145.72 225.46 145.08 226.63 145.41 227.74 Z M 145.71 228.77 L 146.01 229.76 C 146.35 230.87 147.53 231.50 148.64 231.15 C 149.75 230.81 150.37 229.63 150.03 228.52 L 149.73 227.54 C 149.39 226.43 148.21 225.80 147.10 226.14 C 145.99 226.49 145.37 227.66 145.71 228.77 Z M 146.02 229.79 L 146.34 230.76 C 146.70 231.86 147.88 232.47 148.99 232.11 C 150.09 231.75 150.70 230.56 150.34 229.46 L 150.02 228.49 C 149.66 227.39 148.48 226.78 147.37 227.14 C 146.27 227.50 145.66 228.69 146.02 229.79 Z M 146.35 230.80 L 146.67 231.74 C 147.05 232.83 148.25 233.41 149.35 233.03 C 150.45 232.65 151.03 231.45 150.65 230.36 L 150.32 229.42 C 149.94 228.32 148.74 227.74 147.65 228.12 C 146.55 228.50 145.97 229.70 146.35 230.80 Z M 146.69 231.78 L 147.03 232.68 C 147.43 233.77 148.64 234.33 149.73 233.92 C 150.82 233.51 151.38 232.30 150.97 231.21 L 150.63 230.31 C 150.23 229.22 149.02 228.67 147.93 229.07 C 146.84 229.48 146.28 230.69 146.69 231.78 Z M 147.05 232.73 L 147.39 233.60 C 147.83 234.67 149.05 235.20 150.13 234.76 C 151.21 234.33 151.73 233.10 151.30 232.02 L 150.95 231.16 C 150.52 230.08 149.29 229.56 148.21 230.00 C 147.13 230.43 146.61 231.66 147.05 232.73 Z M 147.42 233.66 L 147.78 234.47 C 148.24 235.53 149.49 236.02 150.55 235.55 C 151.61 235.08 152.10 233.84 151.63 232.78 L 151.27 231.96 C 150.80 230.90 149.56 230.42 148.50 230.88 C 147.43 231.35 146.95 232.59 147.42 233.66 Z M 147.82 234.56 L 148.39 235.71 C 148.91 236.75 150.17 237.17 151.21 236.65 C 152.25 236.13 152.67 234.87 152.16 233.83 L 151.59 232.69 C 151.07 231.65 149.80 231.22 148.76 231.74 C 147.72 232.26 147.30 233.52 147.82 234.56 Z M 148.46 235.84 L 149.15 237.00 C 149.74 238.00 151.03 238.33 152.03 237.74 C 153.03 237.15 153.36 235.86 152.77 234.86 L 152.08 233.70 C 151.49 232.69 150.20 232.36 149.20 232.96 C 148.20 233.55 147.87 234.84 148.46 235.84 Z M 149.25 237.16 L 149.96 238.14 C 150.64 239.08 151.96 239.29 152.90 238.61 C 153.84 237.93 154.05 236.61 153.37 235.67 L 152.67 234.70 C 151.99 233.75 150.67 233.54 149.73 234.22 C 148.79 234.90 148.57 236.22 149.25 237.16 Z M 150.11 238.32 L 150.81 239.10 C 151.59 239.96 152.93 240.03 153.79 239.24 C 154.65 238.46 154.71 237.13 153.93 236.27 L 153.23 235.49 C 152.44 234.63 151.11 234.56 150.25 235.34 C 149.39 236.13 149.32 237.46 150.11 238.32 Z M 151.03 239.31 L 151.73 239.89 C 152.62 240.63 153.95 240.51 154.69 239.61 C 155.44 238.72 155.31 237.39 154.42 236.65 L 153.72 236.06 C 152.82 235.32 151.50 235.44 150.75 236.34 C 150.01 237.23 150.13 238.56 151.03 239.31 Z M 152.05 240.11 L 152.74 240.49 C 153.75 241.05 155.04 240.68 155.60 239.66 C 156.16 238.65 155.79 237.36 154.78 236.80 L 154.09 236.42 C 153.08 235.86 151.79 236.23 151.23 237.25 C 150.67 238.26 151.04 239.55 152.05 240.11 Z M 153.23 240.69 L 153.88 240.85 C 155.01 241.14 156.16 240.46 156.45 239.34 C 156.74 238.21 156.06 237.06 154.93 236.77 L 154.28 236.60 C 153.15 236.31 152.00 236.99 151.71 238.12 C 151.42 239.25 152.10 240.40 153.23 240.69 Z M 154.57 240.91 L 155.18 240.87 C 156.34 240.77 157.21 239.76 157.12 238.60 C 157.03 237.44 156.01 236.57 154.85 236.66 L 154.24 236.71 C 153.08 236.80 152.21 237.82 152.30 238.98 C 152.40 240.14 153.41 241.00 154.57 240.91 Z M 155.92 240.67 L 156.48 240.40 C 157.53 239.91 157.98 238.65 157.49 237.60 C 156.99 236.54 155.73 236.09 154.68 236.59 L 154.11 236.86 C 153.06 237.35 152.61 238.61 153.11 239.66 C 153.61 240.72 154.86 241.17 155.92 240.67 Z M 157.00 240.05 L 157.52 239.58 C 158.38 238.79 158.44 237.46 157.65 236.60 C 156.86 235.74 155.53 235.68 154.67 236.47 L 154.15 236.94 C 153.29 237.73 153.24 239.06 154.02 239.92 C 154.81 240.78 156.14 240.84 157.00 240.05 Z M 157.81 239.25 L 158.29 238.59 C 158.97 237.64 158.75 236.32 157.80 235.64 C 156.85 234.96 155.53 235.18 154.86 236.13 L 154.38 236.80 C 153.70 237.74 153.92 239.06 154.87 239.74 C 155.81 240.42 157.13 240.20 157.81 239.25 Z M 158.44 238.34 L 158.89 237.49 C 159.43 236.46 159.03 235.18 158.00 234.64 C 156.96 234.10 155.69 234.50 155.15 235.53 L 154.70 236.38 C 154.16 237.41 154.56 238.69 155.59 239.23 C 156.63 239.77 157.90 239.37 158.44 238.34 Z M 158.97 237.31 L 159.39 236.30 C 159.83 235.22 159.32 233.98 158.24 233.54 C 157.16 233.10 155.92 233.61 155.48 234.69 L 155.06 235.71 C 154.62 236.79 155.13 238.02 156.21 238.46 C 157.29 238.91 158.53 238.39 158.97 237.31 Z M 159.44 236.17 L 159.83 235.00 C 160.21 233.90 159.61 232.70 158.51 232.32 C 157.40 231.95 156.20 232.54 155.83 233.65 L 155.43 234.82 C 155.06 235.92 155.65 237.12 156.76 237.50 C 157.86 237.87 159.06 237.28 159.44 236.17 Z M 159.86 234.92 L 160.24 233.60 C 160.57 232.48 159.92 231.31 158.80 230.98 C 157.68 230.66 156.51 231.30 156.18 232.42 L 155.80 233.73 C 155.47 234.85 156.12 236.03 157.24 236.35 C 158.36 236.68 159.53 236.04 159.86 234.92 Z M 160.26 233.55 L 160.54 232.46 C 160.84 231.33 160.16 230.17 159.03 229.88 C 157.90 229.58 156.75 230.26 156.45 231.39 L 156.17 232.48 C 155.87 233.61 156.54 234.76 157.67 235.06 C 158.80 235.36 159.96 234.68 160.26 233.55 Z M 160.55 232.43 L 160.78 231.52 C 161.05 230.38 160.36 229.24 159.23 228.96 C 158.09 228.68 156.95 229.37 156.67 230.51 L 156.44 231.42 C 156.16 232.55 156.86 233.70 157.99 233.98 C 159.13 234.25 160.27 233.56 160.55 232.43 Z M 160.78 231.49 L 161.00 230.55 C 161.27 229.41 160.56 228.27 159.42 228.01 C 158.28 227.74 157.15 228.45 156.88 229.59 L 156.66 230.53 C 156.40 231.67 157.10 232.81 158.24 233.07 C 159.38 233.34 160.52 232.63 160.78 231.49 Z M 161.01 230.53 L 161.22 229.56 C 161.48 228.42 160.76 227.29 159.62 227.03 C 158.48 226.78 157.35 227.49 157.09 228.64 L 156.88 229.61 C 156.62 230.75 157.34 231.88 158.48 232.13 C 159.62 232.39 160.75 231.67 161.01 230.53 Z M 161.23 229.54 L 161.44 228.54 C 161.69 227.40 160.96 226.28 159.81 226.03 C 158.67 225.79 157.55 226.52 157.30 227.66 L 157.09 228.65 C 156.84 229.80 157.57 230.92 158.72 231.17 C 159.86 231.41 160.98 230.68 161.23 229.54 Z M 161.44 228.53 L 161.65 227.52 C 161.89 226.37 161.15 225.25 160.01 225.02 C 158.86 224.78 157.74 225.52 157.51 226.66 L 157.30 227.67 C 157.06 228.82 157.80 229.94 158.94 230.17 C 160.09 230.41 161.21 229.67 161.44 228.53 Z M 161.66 227.51 L 161.86 226.49 C 162.09 225.34 161.34 224.22 160.20 224.00 C 159.05 223.77 157.94 224.51 157.71 225.66 L 157.50 226.68 C 157.28 227.82 158.02 228.94 159.17 229.17 C 160.31 229.40 161.43 228.65 161.66 227.51 Z M 161.86 226.47 L 162.06 225.45 C 162.28 224.30 161.53 223.19 160.38 222.97 C 159.24 222.75 158.13 223.50 157.90 224.65 L 157.71 225.67 C 157.48 226.82 158.23 227.93 159.38 228.15 C 160.53 228.37 161.64 227.62 161.86 226.47 Z M 162.06 225.44 L 162.25 224.42 C 162.47 223.27 161.71 222.17 160.56 221.95 C 159.42 221.73 158.31 222.49 158.09 223.64 L 157.90 224.66 C 157.68 225.81 158.44 226.91 159.59 227.13 C 160.74 227.35 161.85 226.59 162.06 225.44 Z M 162.26 224.41 L 162.44 223.40 C 162.65 222.25 161.89 221.15 160.74 220.94 C 159.59 220.73 158.49 221.49 158.28 222.64 L 158.09 223.65 C 157.88 224.80 158.64 225.90 159.79 226.11 C 160.94 226.32 162.04 225.56 162.26 224.41 Z M 162.44 223.39 L 162.62 222.40 C 162.83 221.25 162.06 220.15 160.91 219.94 C 159.76 219.74 158.66 220.50 158.45 221.65 L 158.27 222.65 C 158.07 223.80 158.83 224.90 159.98 225.10 C 161.14 225.31 162.24 224.55 162.44 223.39 Z M 162.62 222.39 L 162.79 221.42 C 162.99 220.27 162.23 219.17 161.07 218.97 C 159.92 218.77 158.82 219.54 158.62 220.69 L 158.45 221.66 C 158.25 222.81 159.02 223.91 160.17 224.11 C 161.32 224.31 162.42 223.55 162.62 222.39 Z M 162.79 221.42 L 162.96 220.44 C 163.16 219.29 162.39 218.19 161.24 217.99 C 160.08 217.79 158.99 218.57 158.79 219.72 L 158.62 220.70 C 158.42 221.85 159.19 222.94 160.35 223.14 C 161.50 223.34 162.60 222.57 162.79 221.42 Z M 162.96 220.43 L 163.15 219.31 C 163.35 218.15 162.57 217.06 161.42 216.86 C 160.27 216.67 159.17 217.45 158.98 218.60 L 158.79 219.73 C 158.59 220.88 159.37 221.97 160.52 222.17 C 161.68 222.36 162.77 221.59 162.96 220.43 Z M 163.16 219.30 L 163.33 218.22 C 163.52 217.07 162.74 215.98 161.59 215.78 C 160.44 215.59 159.35 216.37 159.16 217.53 L 158.98 218.61 C 158.79 219.76 159.57 220.85 160.72 221.04 C 161.87 221.23 162.96 220.45 163.16 219.30 Z M 163.33 218.21 L 163.50 217.17 C 163.69 216.02 162.91 214.93 161.75 214.75 C 160.60 214.56 159.51 215.34 159.32 216.50 L 159.15 217.54 C 158.97 218.69 159.75 219.78 160.91 219.96 C 162.06 220.15 163.15 219.37 163.33 218.21 Z M 163.50 217.17 L 163.66 216.16 C 163.85 215.01 163.06 213.92 161.90 213.74 C 160.75 213.56 159.66 214.35 159.48 215.50 L 159.32 216.50 C 159.14 217.66 159.93 218.74 161.08 218.93 C 162.24 219.11 163.32 218.32 163.50 217.17 Z M 163.66 216.16 L 163.82 215.18 C 164.00 214.03 163.20 212.95 162.05 212.77 C 160.89 212.59 159.81 213.38 159.63 214.53 L 159.48 215.51 C 159.30 216.66 160.09 217.75 161.25 217.93 C 162.40 218.11 163.48 217.31 163.66 216.16 Z M 163.82 215.18 L 163.96 214.23 C 164.14 213.07 163.34 211.99 162.19 211.82 C 161.03 211.64 159.95 212.43 159.77 213.59 L 159.63 214.54 C 159.45 215.70 160.25 216.78 161.40 216.95 C 162.56 217.13 163.64 216.34 163.82 215.18 Z M 163.96 214.22 L 164.10 213.29 C 164.28 212.14 163.48 211.06 162.32 210.88 C 161.17 210.71 160.09 211.51 159.91 212.66 L 159.77 213.60 C 159.60 214.75 160.40 215.83 161.55 216.00 C 162.71 216.18 163.79 215.38 163.96 214.22 Z M 164.10 213.29 L 164.24 212.37 C 164.41 211.21 163.61 210.14 162.45 209.97 C 161.30 209.79 160.22 210.59 160.05 211.75 L 159.91 212.67 C 159.74 213.83 160.54 214.90 161.70 215.07 C 162.85 215.24 163.93 214.45 164.10 213.29 Z M 164.24 212.37 L 164.37 211.46 C 164.54 210.30 163.74 209.22 162.59 209.05 C 161.43 208.88 160.35 209.68 160.18 210.84 L 160.05 211.75 C 159.88 212.91 160.68 213.99 161.84 214.16 C 162.99 214.33 164.07 213.52 164.24 212.37 Z M 164.37 211.45 L 164.51 210.53 C 164.68 209.38 163.87 208.30 162.72 208.13 C 161.56 207.97 160.49 208.77 160.32 209.92 L 160.18 210.84 C 160.01 212.00 160.82 213.08 161.97 213.24 C 163.13 213.41 164.21 212.61 164.37 211.45 Z M 164.51 210.53 L 164.65 209.57 C 164.82 208.41 164.01 207.33 162.86 207.17 C 161.70 207.00 160.63 207.80 160.46 208.96 L 160.32 209.92 C 160.15 211.08 160.95 212.16 162.11 212.32 C 163.26 212.49 164.34 211.69 164.51 210.53 Z M 164.65 209.57 L 164.79 208.60 C 164.96 207.44 164.16 206.36 163.00 206.19 C 161.84 206.03 160.77 206.83 160.60 207.98 L 160.46 208.96 C 160.29 210.11 161.09 211.19 162.25 211.36 C 163.40 211.53 164.48 210.72 164.65 209.57 Z M 164.79 208.60 L 164.93 207.62 C 165.10 206.46 164.30 205.39 163.14 205.22 C 161.99 205.05 160.91 205.85 160.74 207.01 L 160.60 207.98 C 160.43 209.14 161.23 210.21 162.39 210.38 C 163.54 210.55 164.62 209.75 164.79 208.60 Z M 164.93 207.62 L 165.08 206.64 C 165.25 205.49 164.45 204.41 163.29 204.24 C 162.14 204.07 161.06 204.87 160.89 206.02 L 160.74 207.00 C 160.57 208.16 161.37 209.24 162.53 209.41 C 163.68 209.58 164.76 208.78 164.93 207.62 Z M 165.08 206.65 L 165.22 205.66 C 165.40 204.51 164.60 203.43 163.45 203.25 C 162.29 203.08 161.21 203.87 161.04 205.03 L 160.89 206.02 C 160.72 207.17 161.51 208.25 162.67 208.42 C 163.82 208.60 164.90 207.80 165.08 206.65 Z M 165.22 205.67 L 165.38 204.68 C 165.55 203.52 164.76 202.44 163.61 202.26 C 162.45 202.08 161.37 202.88 161.19 204.03 L 161.04 205.02 C 160.86 206.18 161.65 207.26 162.81 207.44 C 163.96 207.62 165.04 206.82 165.22 205.67 Z M 165.37 204.68 L 165.53 203.69 C 165.72 202.53 164.93 201.45 163.77 201.27 C 162.62 201.08 161.54 201.87 161.35 203.02 L 161.20 204.02 C 161.01 205.18 161.80 206.26 162.95 206.44 C 164.11 206.63 165.19 205.84 165.37 204.68 Z M 165.53 203.69 L 165.69 202.69 C 165.88 201.54 165.10 200.45 163.95 200.26 C 162.79 200.07 161.71 200.86 161.52 202.01 L 161.36 203.02 C 161.17 204.17 161.95 205.25 163.10 205.44 C 164.26 205.63 165.34 204.85 165.53 203.69 Z M 165.69 202.70 L 165.86 201.69 C 166.06 200.54 165.28 199.45 164.13 199.25 C 162.98 199.06 161.88 199.84 161.69 200.99 L 161.52 202.00 C 161.33 203.15 162.10 204.24 163.26 204.44 C 164.41 204.63 165.50 203.85 165.69 202.70 Z M 165.86 201.70 L 166.03 200.70 C 166.23 199.55 165.46 198.46 164.31 198.26 C 163.16 198.06 162.07 198.83 161.87 199.98 L 161.69 200.98 C 161.49 202.13 162.26 203.22 163.41 203.42 C 164.57 203.62 165.66 202.85 165.86 201.70 Z M 166.03 200.71 L 166.21 199.72 C 166.41 198.57 165.65 197.47 164.50 197.27 C 163.35 197.06 162.25 197.83 162.05 198.97 L 161.87 199.97 C 161.66 201.12 162.43 202.22 163.58 202.42 C 164.73 202.63 165.82 201.86 166.03 200.71 Z M 166.21 199.73 L 166.39 198.74 C 166.60 197.59 165.84 196.49 164.70 196.27 C 163.55 196.06 162.45 196.82 162.24 197.97 L 162.05 198.96 C 161.84 200.11 162.60 201.21 163.74 201.42 C 164.89 201.64 165.99 200.88 166.21 199.73 Z M 166.39 198.75 L 166.58 197.75 C 166.79 196.60 166.04 195.50 164.89 195.28 C 163.75 195.06 162.64 195.82 162.43 196.96 L 162.24 197.96 C 162.02 199.10 162.77 200.21 163.92 200.43 C 165.06 200.64 166.17 199.89 166.39 198.75 Z M 166.57 197.76 L 166.77 196.76 C 166.99 195.62 166.24 194.51 165.10 194.29 C 163.95 194.07 162.85 194.82 162.62 195.96 L 162.43 196.95 C 162.21 198.10 162.95 199.20 164.10 199.43 C 165.24 199.65 166.35 198.90 166.57 197.76 Z M 166.76 196.77 L 166.96 195.79 C 167.19 194.64 166.45 193.53 165.30 193.31 C 164.16 193.08 163.05 193.82 162.82 194.96 L 162.63 195.95 C 162.40 197.09 163.14 198.20 164.28 198.43 C 165.42 198.66 166.54 197.92 166.76 196.77 Z M 166.96 195.79 L 167.16 194.81 C 167.39 193.67 166.65 192.56 165.51 192.33 C 164.37 192.09 163.26 192.83 163.03 193.97 L 162.83 194.95 C 162.59 196.09 163.33 197.21 164.47 197.44 C 165.61 197.67 166.72 196.93 166.96 195.79 Z M 167.15 194.82 L 167.36 193.85 C 167.59 192.71 166.86 191.60 165.72 191.36 C 164.58 191.12 163.47 191.85 163.23 192.99 L 163.03 193.96 C 162.79 195.10 163.52 196.22 164.66 196.45 C 165.80 196.69 166.92 195.96 167.15 194.82 Z M 167.35 193.86 L 167.56 192.90 C 167.80 191.76 167.07 190.64 165.93 190.40 C 164.80 190.16 163.68 190.89 163.44 192.03 L 163.23 192.98 C 162.99 194.12 163.72 195.24 164.86 195.48 C 165.99 195.72 167.11 194.99 167.35 193.86 Z M 167.55 192.91 L 167.76 191.96 C 168.00 190.82 167.28 189.70 166.15 189.46 C 165.01 189.21 163.89 189.94 163.64 191.07 L 163.44 192.02 C 163.19 193.15 163.92 194.27 165.05 194.52 C 166.19 194.76 167.31 194.04 167.55 192.91 Z M 167.75 191.97 L 167.98 190.94 C 168.23 189.81 167.51 188.69 166.38 188.44 C 165.25 188.19 164.12 188.90 163.87 190.04 L 163.65 191.06 C 163.40 192.20 164.11 193.32 165.25 193.57 C 166.38 193.82 167.50 193.10 167.75 191.97 Z M 167.98 190.95 L 168.20 189.94 C 168.46 188.81 167.75 187.69 166.61 187.43 C 165.48 187.18 164.36 187.89 164.10 189.02 L 163.88 190.03 C 163.62 191.16 164.33 192.29 165.47 192.54 C 166.60 192.79 167.72 192.08 167.98 190.95 Z M 168.20 189.95 L 168.43 188.96 C 168.68 187.83 167.98 186.70 166.85 186.45 C 165.72 186.19 164.59 186.89 164.33 188.02 L 164.11 189.02 C 163.85 190.15 164.56 191.27 165.69 191.53 C 166.82 191.79 167.94 191.08 168.20 189.95 Z M 168.42 188.97 L 168.65 187.99 C 168.91 186.86 168.21 185.73 167.08 185.47 C 165.95 185.21 164.82 185.91 164.56 187.04 L 164.34 188.02 C 164.07 189.15 164.78 190.27 165.91 190.54 C 167.03 190.80 168.16 190.09 168.42 188.97 Z M 168.65 187.99 L 168.87 187.03 C 169.14 185.90 168.44 184.77 167.31 184.51 C 166.18 184.25 165.06 184.95 164.79 186.07 L 164.57 187.04 C 164.30 188.16 165.00 189.29 166.13 189.56 C 167.25 189.82 168.38 189.12 168.65 187.99 Z M 168.87 187.03 L 169.10 186.08 C 169.36 184.95 168.67 183.82 167.54 183.56 C 166.42 183.29 165.29 183.99 165.02 185.11 L 164.79 186.07 C 164.53 187.19 165.22 188.32 166.35 188.59 C 167.48 188.86 168.60 188.16 168.87 187.03 Z M 169.09 186.08 L 169.32 185.13 C 169.59 184.01 168.89 182.88 167.77 182.61 C 166.65 182.34 165.52 183.04 165.25 184.16 L 165.02 185.11 C 164.75 186.23 165.45 187.36 166.57 187.63 C 167.70 187.90 168.83 187.20 169.09 186.08 Z M 169.32 185.13 L 169.54 184.19 C 169.81 183.07 169.12 181.94 168.00 181.67 C 166.87 181.40 165.75 182.09 165.48 183.21 L 165.25 184.16 C 164.98 185.28 165.67 186.41 166.80 186.68 C 167.92 186.95 169.05 186.26 169.32 185.13 Z M 169.54 184.19 L 169.77 183.24 C 170.04 182.11 169.35 180.99 168.23 180.72 C 167.11 180.45 165.98 181.14 165.71 182.26 L 165.48 183.21 C 165.21 184.34 165.90 185.46 167.02 185.73 C 168.15 186.00 169.27 185.31 169.54 184.19 Z M 169.77 183.24 L 170.01 182.25 C 170.27 181.13 169.58 180.00 168.46 179.73 C 167.34 179.46 166.22 180.16 165.95 181.28 L 165.71 182.26 C 165.44 183.38 166.13 184.51 167.25 184.78 C 168.37 185.05 169.50 184.36 169.77 183.24 Z M 170.00 182.25 L 170.24 181.27 C 170.51 180.15 169.82 179.02 168.70 178.75 C 167.58 178.48 166.45 179.17 166.19 180.29 L 165.95 181.28 C 165.68 182.40 166.37 183.52 167.49 183.79 C 168.61 184.06 169.73 183.37 170.00 182.25 Z M 170.24 181.27 L 170.47 180.29 C 170.74 179.17 170.05 178.05 168.94 177.78 C 167.82 177.51 166.69 178.19 166.42 179.31 L 166.19 180.29 C 165.92 181.41 166.61 182.54 167.72 182.81 C 168.84 183.07 169.97 182.39 170.24 181.27 Z M 170.47 180.29 L 170.71 179.31 C 170.98 178.20 170.29 177.07 169.17 176.80 C 168.06 176.53 166.93 177.22 166.66 178.33 L 166.43 179.31 C 166.16 180.43 166.84 181.55 167.96 181.82 C 169.08 182.09 170.20 181.41 170.47 180.29 Z M 170.70 179.31 L 170.94 178.34 C 171.21 177.23 170.53 176.10 169.41 175.83 C 168.30 175.56 167.17 176.25 166.90 177.36 L 166.67 178.33 C 166.40 179.45 167.08 180.57 168.19 180.84 C 169.31 181.11 170.43 180.43 170.70 179.31 Z M 170.94 178.34 L 171.17 177.38 C 171.45 176.26 170.76 175.14 169.65 174.87 C 168.54 174.60 167.41 175.28 167.14 176.39 L 166.91 177.36 C 166.63 178.47 167.32 179.59 168.43 179.87 C 169.54 180.14 170.66 179.46 170.94 178.34 Z M 171.17 177.38 L 171.41 176.42 C 171.68 175.31 171.00 174.19 169.89 173.91 C 168.78 173.64 167.66 174.32 167.38 175.43 L 167.15 176.39 C 166.87 177.50 167.55 178.62 168.66 178.90 C 169.77 179.17 170.90 178.49 171.17 177.38 Z M 171.40 176.42 L 171.64 175.47 C 171.91 174.36 171.24 173.24 170.13 172.97 C 169.02 172.69 167.90 173.37 167.62 174.48 L 167.39 175.43 C 167.11 176.54 167.79 177.66 168.89 177.93 C 170.00 178.21 171.13 177.53 171.40 176.42 Z M 171.64 175.48 L 171.85 174.61 C 172.13 173.50 171.46 172.38 170.35 172.10 C 169.24 171.82 168.12 172.49 167.84 173.60 L 167.63 174.47 C 167.35 175.58 168.02 176.70 169.13 176.98 C 170.23 177.26 171.36 176.59 171.64 175.48 Z M 171.85 174.61 L 172.07 173.75 C 172.35 172.65 171.68 171.52 170.58 171.24 C 169.47 170.96 168.35 171.63 168.07 172.73 L 167.85 173.59 C 167.57 174.70 168.23 175.82 169.34 176.10 C 170.44 176.39 171.57 175.72 171.85 174.61 Z M 172.06 173.76 L 172.29 172.89 C 172.58 171.79 171.91 170.66 170.81 170.38 C 169.71 170.09 168.58 170.75 168.30 171.85 L 168.07 172.72 C 167.79 173.83 168.45 174.95 169.55 175.24 C 170.65 175.52 171.78 174.86 172.06 173.76 Z M 172.28 172.90 L 172.52 172.01 C 172.81 170.91 172.16 169.78 171.06 169.49 C 169.96 169.20 168.83 169.85 168.54 170.95 L 168.30 171.84 C 168.01 172.94 168.67 174.07 169.76 174.36 C 170.86 174.65 171.99 174.00 172.28 172.90 Z M 172.51 172.02 L 172.77 171.10 C 173.07 170.01 172.42 168.88 171.33 168.58 C 170.23 168.28 169.10 168.92 168.80 170.02 L 168.55 170.94 C 168.25 172.04 168.89 173.17 169.99 173.47 C 171.08 173.77 172.21 173.12 172.51 172.02 Z M 172.76 171.12 L 173.03 170.16 C 173.34 169.07 172.70 167.93 171.61 167.63 C 170.52 167.32 169.38 167.95 169.08 169.05 L 168.81 170.01 C 168.50 171.10 169.13 172.23 170.23 172.54 C 171.32 172.85 172.45 172.21 172.76 171.12 Z M 173.02 170.17 L 173.31 169.17 C 173.63 168.08 173.00 166.94 171.92 166.62 C 170.83 166.31 169.69 166.94 169.38 168.02 L 169.08 169.03 C 168.77 170.12 169.39 171.26 170.48 171.57 C 171.57 171.89 172.71 171.26 173.02 170.17 Z M 173.31 169.18 L 173.63 168.11 C 173.95 167.03 173.33 165.89 172.25 165.56 C 171.16 165.24 170.02 165.86 169.70 166.94 L 169.38 168.01 C 169.06 169.09 169.68 170.23 170.76 170.56 C 171.84 170.88 172.98 170.26 173.31 169.18 Z M 173.62 168.13 L 173.97 166.99 C 174.30 165.91 173.69 164.77 172.61 164.44 C 171.53 164.10 170.39 164.71 170.06 165.79 L 169.71 166.93 C 169.38 168.01 169.98 169.15 171.06 169.48 C 172.14 169.81 173.29 169.21 173.62 168.13 Z M 173.96 167.00 L 174.27 166.02 C 174.61 164.95 174.01 163.80 172.93 163.46 C 171.85 163.12 170.71 163.72 170.37 164.80 L 170.06 165.78 C 169.72 166.86 170.32 168.00 171.40 168.34 C 172.48 168.68 173.62 168.08 173.96 167.00 Z M 174.26 166.03 L 174.55 165.14 C 174.89 164.06 174.30 162.92 173.22 162.57 C 172.15 162.23 171.00 162.82 170.66 163.90 L 170.38 164.79 C 170.03 165.86 170.63 167.01 171.70 167.35 C 172.77 167.70 173.92 167.10 174.26 166.03 Z M 174.54 165.14 L 174.84 164.22 C 175.19 163.15 174.60 162.00 173.53 161.65 C 172.46 161.31 171.31 161.90 170.96 162.97 L 170.67 163.89 C 170.32 164.96 170.91 166.11 171.98 166.46 C 173.05 166.80 174.20 166.22 174.54 165.14 Z M 174.84 164.23 L 175.15 163.28 C 175.50 162.21 174.91 161.06 173.85 160.71 C 172.78 160.36 171.63 160.94 171.28 162.01 L 170.97 162.96 C 170.62 164.03 171.20 165.18 172.27 165.53 C 173.34 165.88 174.49 165.29 174.84 164.23 Z M 175.14 163.28 L 175.46 162.31 C 175.82 161.25 175.24 160.10 174.17 159.74 C 173.11 159.39 171.96 159.97 171.60 161.04 L 171.28 162.01 C 170.93 163.07 171.51 164.22 172.58 164.57 C 173.64 164.93 174.79 164.35 175.14 163.28 Z M 175.46 162.32 L 175.79 161.33 C 176.14 160.27 175.57 159.12 174.50 158.77 C 173.44 158.41 172.29 158.99 171.94 160.05 L 171.61 161.03 C 171.25 162.10 171.83 163.25 172.89 163.60 C 173.96 163.95 175.11 163.38 175.46 162.32 Z M 175.78 161.34 L 176.11 160.35 C 176.47 159.29 175.90 158.14 174.84 157.78 C 173.78 157.43 172.63 158.00 172.27 159.06 L 171.94 160.05 C 171.58 161.11 172.15 162.26 173.22 162.61 C 174.28 162.97 175.43 162.40 175.78 161.34 Z M 176.11 160.35 L 176.45 159.36 C 176.80 158.30 176.24 157.15 175.18 156.80 C 174.12 156.44 172.97 157.01 172.61 158.07 L 172.27 159.06 C 171.92 160.11 172.49 161.26 173.54 161.62 C 174.60 161.98 175.75 161.41 176.11 160.35 Z M 176.44 159.36 L 176.78 158.38 C 177.14 157.32 176.57 156.17 175.51 155.81 C 174.46 155.45 173.31 156.02 172.95 157.08 L 172.61 158.06 C 172.25 159.12 172.82 160.27 173.88 160.63 C 174.93 160.99 176.08 160.42 176.44 159.36 Z M 176.77 158.38 L 177.11 157.41 C 177.47 156.35 176.90 155.20 175.85 154.84 C 174.79 154.48 173.65 155.04 173.28 156.10 L 172.95 157.07 C 172.59 158.13 173.15 159.28 174.21 159.64 C 175.27 160.00 176.41 159.44 176.77 158.38 Z M 177.10 157.41 L 177.43 156.45 C 177.79 155.40 177.23 154.25 176.18 153.89 C 175.13 153.53 173.98 154.09 173.62 155.14 L 173.29 156.10 C 172.93 157.15 173.49 158.30 174.54 158.66 C 175.59 159.02 176.74 158.46 177.10 157.41 Z M 177.43 156.45 L 177.75 155.52 C 178.11 154.47 177.56 153.32 176.50 152.96 C 175.45 152.59 174.31 153.15 173.94 154.20 L 173.62 155.14 C 173.26 156.19 173.82 157.34 174.87 157.70 C 175.92 158.06 177.07 157.50 177.43 156.45 Z M 177.75 155.52 L 178.06 154.61 C 178.43 153.56 177.87 152.42 176.82 152.05 C 175.77 151.69 174.62 152.24 174.26 153.29 L 173.95 154.20 C 173.58 155.25 174.14 156.40 175.19 156.76 C 176.24 157.12 177.38 156.57 177.75 155.52 Z M 178.06 154.61 L 178.39 153.67 C 178.75 152.62 178.20 151.47 177.15 151.11 C 176.10 150.75 174.96 151.30 174.60 152.35 L 174.27 153.29 C 173.90 154.34 174.45 155.49 175.50 155.85 C 176.55 156.21 177.69 155.66 178.06 154.61 Z M 178.38 153.67 L 178.71 152.71 C 179.08 151.67 178.53 150.53 177.49 150.16 C 176.45 149.80 175.30 150.35 174.94 151.39 L 174.60 152.34 C 174.24 153.39 174.79 154.53 175.83 154.89 C 176.87 155.26 178.01 154.71 178.38 153.67 Z M 178.70 152.72 L 179.03 151.80 C 179.40 150.76 178.86 149.62 177.82 149.25 C 176.78 148.89 175.65 149.43 175.28 150.46 L 174.95 151.38 C 174.58 152.42 175.12 153.56 176.16 153.93 C 177.20 154.30 178.33 153.76 178.70 152.72 Z M 179.02 151.81 L 179.34 150.91 C 179.72 149.88 179.18 148.74 178.15 148.37 C 177.12 148.00 175.99 148.53 175.61 149.56 L 175.29 150.46 C 174.92 151.49 175.45 152.62 176.48 153.00 C 177.51 153.37 178.65 152.84 179.02 151.81 Z M 179.33 150.92 L 179.66 150.04 C 180.04 149.02 179.52 147.88 178.49 147.50 C 177.47 147.12 176.33 147.64 175.95 148.66 L 175.63 149.55 C 175.25 150.57 175.77 151.71 176.79 152.09 C 177.81 152.47 178.95 151.94 179.33 150.92 Z M 179.64 150.05 L 179.98 149.18 C 180.37 148.16 179.86 147.02 178.84 146.64 C 177.83 146.25 176.69 146.76 176.30 147.77 L 175.97 148.65 C 175.58 149.67 176.09 150.80 177.10 151.19 C 178.12 151.58 179.26 151.07 179.64 150.05 Z M 179.96 149.19 L 180.31 148.31 C 180.71 147.30 180.21 146.17 179.21 145.77 C 178.20 145.37 177.06 145.87 176.67 146.88 L 176.32 147.76 C 175.92 148.76 176.42 149.90 177.42 150.30 C 178.43 150.69 179.57 150.20 179.96 149.19 Z M 180.29 148.33 L 180.66 147.43 C 181.06 146.43 180.59 145.30 179.59 144.89 C 178.59 144.49 177.45 144.96 177.05 145.96 L 176.68 146.86 C 176.28 147.85 176.76 148.99 177.75 149.40 C 178.75 149.80 179.89 149.32 180.29 148.33 Z M 180.64 147.45 L 181.03 146.53 C 181.44 145.54 180.98 144.40 179.99 143.99 C 179.00 143.57 177.87 144.04 177.45 145.02 L 177.06 145.94 C 176.65 146.93 177.11 148.07 178.10 148.49 C 179.09 148.90 180.23 148.44 180.64 147.45 Z M 181.01 146.55 L 181.43 145.60 C 181.85 144.62 181.40 143.48 180.42 143.05 C 179.45 142.63 178.31 143.08 177.88 144.06 L 177.47 145.01 C 177.04 145.99 177.49 147.12 178.47 147.55 C 179.45 147.98 180.59 147.53 181.01 146.55 Z M 181.41 145.61 L 181.86 144.62 C 182.29 143.65 181.86 142.51 180.89 142.08 C 179.92 141.64 178.78 142.08 178.34 143.04 L 177.90 144.04 C 177.46 145.01 177.90 146.15 178.87 146.58 C 179.83 147.02 180.97 146.58 181.41 145.61 Z M 181.84 144.64 L 182.29 143.65 C 182.74 142.69 182.32 141.55 181.36 141.11 C 180.40 140.66 179.26 141.08 178.82 142.04 L 178.36 143.03 C 177.92 143.99 178.34 145.13 179.30 145.57 C 180.26 146.02 181.40 145.60 181.84 144.64 Z M 182.28 143.66 L 182.67 142.83 C 183.13 141.88 182.72 140.74 181.76 140.29 C 180.81 139.84 179.67 140.25 179.22 141.20 L 178.83 142.03 C 178.38 142.99 178.78 144.12 179.74 144.57 C 180.69 145.03 181.83 144.62 182.28 143.66 Z M 182.67 142.84 L 183.08 141.99 C 183.53 141.04 183.14 139.90 182.19 139.44 C 181.24 138.98 180.10 139.38 179.64 140.33 L 179.23 141.19 C 178.77 142.14 179.17 143.28 180.12 143.74 C 181.07 144.19 182.21 143.79 182.67 142.84 Z M 183.07 141.99 L 183.50 141.11 C 183.96 140.17 183.57 139.03 182.63 138.57 C 181.68 138.11 180.54 138.50 180.08 139.44 L 179.65 140.32 C 179.19 141.27 179.58 142.41 180.52 142.87 C 181.47 143.33 182.61 142.94 183.07 141.99 Z M 183.49 141.12 L 183.94 140.22 C 184.40 139.28 184.02 138.14 183.08 137.68 C 182.14 137.21 181.00 137.59 180.54 138.53 L 180.09 139.43 C 179.62 140.37 180.01 141.51 180.95 141.98 C 181.89 142.44 183.03 142.06 183.49 141.12 Z M 183.93 140.23 L 184.39 139.31 C 184.86 138.38 184.48 137.24 183.55 136.77 C 182.61 136.30 181.47 136.68 181.00 137.61 L 180.54 138.53 C 180.07 139.46 180.45 140.60 181.39 141.07 C 182.32 141.54 183.46 141.16 183.93 140.23 Z M 184.38 139.32 L 184.85 138.39 C 185.33 137.46 184.96 136.33 184.02 135.85 C 183.09 135.38 181.96 135.75 181.48 136.68 L 181.01 137.60 C 180.54 138.54 180.91 139.67 181.84 140.15 C 182.77 140.62 183.91 140.25 184.38 139.32 Z M 184.84 138.40 L 185.32 137.47 C 185.80 136.54 185.44 135.41 184.51 134.93 C 183.58 134.45 182.45 134.82 181.97 135.74 L 181.49 136.67 C 181.01 137.60 181.38 138.74 182.30 139.21 C 183.23 139.69 184.37 139.33 184.84 138.40 Z M 185.32 137.48 L 185.80 136.55 C 186.28 135.62 185.92 134.49 185.00 134.01 C 184.08 133.53 182.94 133.89 182.46 134.81 L 181.98 135.74 C 181.50 136.66 181.85 137.80 182.78 138.28 C 183.70 138.76 184.84 138.40 185.32 137.48 Z M 185.79 136.55 L 186.28 135.63 C 186.76 134.71 186.41 133.57 185.49 133.09 C 184.58 132.61 183.44 132.96 182.96 133.88 L 182.47 134.80 C 181.99 135.72 182.34 136.86 183.26 137.34 C 184.17 137.82 185.31 137.47 185.79 136.55 Z M 186.27 135.63 L 186.76 134.72 C 187.25 133.80 186.90 132.67 185.99 132.18 C 185.07 131.69 183.94 132.04 183.45 132.95 L 182.96 133.87 C 182.48 134.78 182.82 135.92 183.74 136.41 C 184.65 136.89 185.79 136.55 186.27 135.63 Z M 186.75 134.72 L 187.24 133.82 C 187.73 132.91 187.39 131.77 186.48 131.28 C 185.57 130.79 184.44 131.13 183.95 132.04 L 183.46 132.95 C 182.97 133.86 183.31 134.99 184.22 135.48 C 185.13 135.97 186.26 135.63 186.75 134.72 Z M 187.23 133.82 L 187.72 132.94 C 188.21 132.03 187.88 130.90 186.97 130.41 C 186.07 129.91 184.93 130.25 184.44 131.15 L 183.96 132.04 C 183.46 132.94 183.80 134.08 184.70 134.57 C 185.61 135.06 186.74 134.73 187.23 133.82 Z M 187.71 132.94 L 188.18 132.08 C 188.68 131.18 188.35 130.05 187.45 129.55 C 186.55 129.05 185.42 129.38 184.92 130.28 L 184.45 131.14 C 183.95 132.04 184.28 133.18 185.18 133.68 C 186.08 134.17 187.21 133.85 187.71 132.94 Z M 188.18 132.09 L 188.64 131.25 C 189.14 130.36 188.82 129.23 187.93 128.72 C 187.03 128.22 185.90 128.54 185.40 129.44 L 184.93 130.27 C 184.43 131.17 184.75 132.30 185.65 132.80 C 186.54 133.30 187.67 132.98 188.18 132.09 Z M 188.63 131.26 L 189.13 130.39 C 189.63 129.50 189.32 128.37 188.43 127.86 C 187.54 127.35 186.41 127.67 185.91 128.56 L 185.41 129.43 C 184.90 130.32 185.22 131.45 186.11 131.96 C 187.00 132.46 188.13 132.15 188.63 131.26 Z M 189.11 130.39 L 189.70 129.37 C 190.21 128.49 189.91 127.36 189.03 126.85 C 188.15 126.34 187.03 126.64 186.52 127.52 L 185.92 128.55 C 185.42 129.43 185.72 130.55 186.60 131.06 C 187.48 131.57 188.60 131.27 189.11 130.39 Z M 189.68 129.37 L 190.25 128.40 C 190.77 127.54 190.48 126.42 189.61 125.91 C 188.75 125.39 187.63 125.68 187.12 126.55 L 186.54 127.52 C 186.03 128.38 186.32 129.50 187.18 130.01 C 188.05 130.53 189.17 130.24 189.68 129.37 Z M 190.23 128.41 L 190.79 127.49 C 191.30 126.64 191.03 125.53 190.18 125.01 C 189.32 124.50 188.21 124.77 187.70 125.62 L 187.14 126.54 C 186.62 127.39 186.90 128.50 187.75 129.02 C 188.60 129.54 189.71 129.26 190.23 128.41 Z M 190.76 127.50 L 191.30 126.63 C 191.82 125.79 191.57 124.68 190.73 124.16 C 189.89 123.64 188.79 123.90 188.27 124.74 L 187.72 125.61 C 187.20 126.45 187.46 127.55 188.30 128.08 C 189.14 128.60 190.24 128.34 190.76 127.50 Z M 191.28 126.63 L 191.81 125.80 C 192.34 124.97 192.09 123.88 191.27 123.35 C 190.44 122.83 189.35 123.07 188.82 123.90 L 188.29 124.73 C 187.77 125.56 188.01 126.65 188.83 127.18 C 189.66 127.70 190.75 127.46 191.28 126.63 Z M 191.78 125.81 L 192.31 125.00 C 192.84 124.19 192.61 123.11 191.80 122.58 C 190.99 122.05 189.90 122.28 189.37 123.09 L 188.85 123.89 C 188.32 124.70 188.55 125.79 189.36 126.32 C 190.17 126.85 191.25 126.62 191.78 125.81 Z M 192.28 125.01 L 192.80 124.24 C 193.34 123.44 193.12 122.36 192.33 121.83 C 191.53 121.29 190.45 121.51 189.92 122.30 L 189.40 123.08 C 188.86 123.88 189.08 124.95 189.87 125.49 C 190.67 126.02 191.75 125.81 192.28 125.01 Z M 192.78 124.24 L 193.30 123.49 C 193.83 122.70 193.63 121.63 192.85 121.10 C 192.07 120.56 191.00 120.76 190.46 121.54 L 189.94 122.30 C 189.41 123.08 189.60 124.15 190.39 124.69 C 191.17 125.22 192.24 125.02 192.78 124.24 Z M 193.27 123.49 L 193.79 122.75 C 194.33 121.98 194.15 120.92 193.38 120.38 C 192.61 119.84 191.55 120.03 191.01 120.79 L 190.49 121.54 C 189.95 122.30 190.13 123.37 190.90 123.91 C 191.67 124.45 192.73 124.26 193.27 123.49 Z M 193.77 122.75 L 194.29 122.02 C 194.84 121.27 194.66 120.21 193.91 119.67 C 193.15 119.13 192.10 119.30 191.56 120.06 L 191.03 120.79 C 190.49 121.55 190.66 122.60 191.42 123.14 C 192.17 123.68 193.23 123.51 193.77 122.75 Z M 194.27 122.02 L 194.81 121.29 C 195.35 120.54 195.19 119.50 194.45 118.96 C 193.70 118.41 192.66 118.57 192.12 119.32 L 191.58 120.06 C 191.03 120.80 191.20 121.84 191.94 122.39 C 192.68 122.93 193.73 122.77 194.27 122.02 Z M 194.79 121.29 L 195.37 120.51 C 195.92 119.77 195.77 118.74 195.03 118.19 C 194.30 117.65 193.26 117.80 192.71 118.53 L 192.14 119.31 C 191.59 120.05 191.74 121.09 192.48 121.63 C 193.21 122.18 194.25 122.02 194.79 121.29 Z M 195.36 120.51 L 195.95 119.73 C 196.50 119.00 196.35 117.97 195.63 117.42 C 194.90 116.88 193.87 117.02 193.32 117.75 L 192.73 118.53 C 192.18 119.26 192.33 120.29 193.05 120.84 C 193.78 121.38 194.81 121.24 195.36 120.51 Z M 195.94 119.73 L 196.54 118.95 C 197.09 118.23 196.95 117.20 196.23 116.65 C 195.51 116.10 194.48 116.24 193.93 116.96 L 193.33 117.74 C 192.78 118.46 192.92 119.49 193.64 120.04 C 194.36 120.59 195.39 120.45 195.94 119.73 Z M 196.52 118.95 L 197.13 118.16 C 197.68 117.45 197.55 116.43 196.84 115.88 C 196.13 115.33 195.10 115.46 194.55 116.17 L 193.95 116.96 C 193.39 117.67 193.53 118.69 194.24 119.24 C 194.95 119.79 195.97 119.66 196.52 118.95 Z M 197.12 118.16 L 197.74 117.37 C 198.29 116.67 198.16 115.65 197.46 115.10 C 196.75 114.55 195.73 114.67 195.18 115.38 L 194.57 116.17 C 194.01 116.87 194.14 117.89 194.85 118.44 C 195.55 118.99 196.57 118.87 197.12 118.16 Z M 197.73 117.37 L 198.35 116.58 C 198.90 115.88 198.78 114.87 198.08 114.32 C 197.38 113.77 196.36 113.89 195.81 114.59 L 195.19 115.38 C 194.64 116.08 194.76 117.09 195.46 117.64 C 196.16 118.19 197.18 118.07 197.73 117.37 Z M 198.34 116.58 L 198.97 115.79 C 199.52 115.09 199.40 114.08 198.70 113.53 C 198.01 112.98 197.00 113.10 196.45 113.80 L 195.82 114.59 C 195.27 115.28 195.39 116.29 196.09 116.84 C 196.78 117.39 197.79 117.28 198.34 116.58 Z M 198.96 115.79 L 199.59 114.99 C 200.14 114.30 200.02 113.30 199.33 112.75 C 198.64 112.20 197.64 112.32 197.09 113.01 L 196.46 113.80 C 195.91 114.49 196.03 115.49 196.72 116.04 C 197.41 116.59 198.41 116.48 198.96 115.79 Z M 199.58 114.99 L 200.21 114.20 C 200.76 113.51 200.65 112.51 199.96 111.97 C 199.28 111.42 198.28 111.53 197.73 112.22 L 197.10 113.01 C 196.55 113.69 196.66 114.69 197.35 115.24 C 198.03 115.79 199.03 115.67 199.58 114.99 Z M 200.21 114.19 L 200.84 113.40 C 201.39 112.72 201.28 111.72 200.59 111.18 C 199.91 110.63 198.92 110.74 198.38 111.43 L 197.74 112.22 C 197.20 112.90 197.31 113.89 197.99 114.44 C 198.67 114.98 199.66 114.87 200.21 114.19 Z M 200.84 113.39 L 200.99 113.20 C 201.53 112.53 201.42 111.54 200.74 110.99 C 200.06 110.45 199.07 110.56 198.53 111.24 L 198.38 111.43 C 197.84 112.11 197.95 113.10 198.63 113.64 C 199.30 114.18 200.29 114.07 200.84 113.39 Z"
      fill="black"
      fill-rule="nonzero" /></svg>