<svg xmlns="http://www.w3.org/2000/svg" width="300" height="300" viewBox="0 0 300 300">
<path d="M 153.46 89.44 L 152.50 90.03 C 151.61 90.58 151.33 91.74 151.88 92.64 C 152.42 93.53 153.59 93.80 154.48 93.26 L 155.44 92.67 C 156.33 92.12 156.61 90.96 156.06 90.07 C 155.52 89.17 154.35 88.90 153.46 89.44 Z M 152.52 89.98 L 151.56 90.53 C 150.64 91.07 150.33 92.25 150.86 93.17 C 151.40 94.09 152.58 94.41 153.50 93.87 L 154.46 93.31 C 155.38 92.78 155.69 91.60 155.16 90.68 C 154.62 89.75 153.44 89.44 152.52 89.98 Z M 151.63 90.45 L 150.68 90.94 C 149.72 91.44 149.34 92.63 149.84 93.59 C 150.33 94.56 151.52 94.94 152.49 94.44 L 153.43 93.95 C 154.40 93.45 154.78 92.27 154.28 91.30 C 153.78 90.33 152.59 89.95 151.63 90.45 Z M 150.82 90.84 L 149.89 91.22 C 148.87 91.64 148.38 92.82 148.80 93.84 C 149.23 94.87 150.40 95.35 151.43 94.93 L 152.36 94.54 C 153.38 94.12 153.87 92.95 153.44 91.92 C 153.02 90.90 151.84 90.41 150.82 90.84 Z M 150.12 91.10 L 149.22 91.35 C 148.13 91.64 147.49 92.77 147.78 93.86 C 148.08 94.95 149.21 95.59 150.30 95.29 L 151.20 95.05 C 152.29 94.75 152.93 93.63 152.63 92.54 C 152.34 91.44 151.21 90.80 150.12 91.10 Z M 149.58 91.24 L 148.71 91.32 C 147.57 91.41 146.71 92.42 146.81 93.57 C 146.91 94.72 147.92 95.57 149.06 95.47 L 149.93 95.40 C 151.08 95.30 151.93 94.29 151.84 93.14 C 151.74 92.00 150.73 91.14 149.58 91.24 Z M 149.22 91.30 L 148.39 91.16 C 147.23 90.98 146.14 91.77 145.96 92.92 C 145.77 94.08 146.56 95.17 147.72 95.36 L 148.55 95.49 C 149.71 95.68 150.80 94.89 150.99 93.73 C 151.17 92.57 150.38 91.48 149.22 91.30 Z M 148.98 91.32 L 148.14 90.92 C 147.07 90.41 145.79 90.86 145.28 91.93 C 144.76 93.00 145.22 94.28 146.29 94.80 L 147.13 95.20 C 148.20 95.71 149.48 95.26 149.99 94.19 C 150.51 93.12 150.05 91.83 148.98 91.32 Z M 148.60 91.21 L 147.83 90.56 C 146.91 89.79 145.55 89.91 144.79 90.83 C 144.03 91.74 144.15 93.10 145.06 93.86 L 145.83 94.51 C 146.74 95.27 148.10 95.15 148.87 94.24 C 149.63 93.33 149.51 91.97 148.60 91.21 Z M 148.13 90.87 L 147.48 90.05 C 146.74 89.12 145.38 88.96 144.45 89.70 C 143.51 90.44 143.36 91.80 144.10 92.73 L 144.75 93.55 C 145.49 94.49 146.85 94.64 147.78 93.90 C 148.72 93.16 148.87 91.80 148.13 90.87 Z M 147.70 90.37 L 147.20 89.45 C 146.64 88.39 145.33 88.00 144.28 88.56 C 143.23 89.12 142.83 90.43 143.39 91.48 L 143.88 92.41 C 144.44 93.46 145.75 93.86 146.81 93.30 C 147.86 92.73 148.26 91.43 147.70 90.37 Z M 147.36 89.82 L 147.06 88.86 C 146.71 87.72 145.50 87.08 144.36 87.43 C 143.22 87.78 142.58 88.99 142.93 90.14 L 143.23 91.10 C 143.58 92.24 144.79 92.88 145.93 92.53 C 147.07 92.18 147.71 90.97 147.36 89.82 Z M 147.16 89.35 L 147.09 88.41 C 147.01 87.22 145.97 86.32 144.78 86.40 C 143.59 86.48 142.69 87.52 142.77 88.71 L 142.84 89.65 C 142.92 90.84 143.95 91.74 145.15 91.66 C 146.34 91.57 147.24 90.54 147.16 89.35 Z M 147.04 89.08 L 147.24 88.23 C 147.53 87.07 146.82 85.90 145.65 85.61 C 144.49 85.33 143.32 86.04 143.03 87.20 L 142.83 88.04 C 142.54 89.21 143.25 90.38 144.42 90.66 C 145.58 90.95 146.75 90.24 147.04 89.08 Z M 146.91 88.97 L 147.40 88.27 C 148.09 87.29 147.86 85.93 146.88 85.24 C 145.90 84.55 144.55 84.79 143.86 85.77 L 143.37 86.47 C 142.68 87.45 142.91 88.80 143.89 89.49 C 144.87 90.18 146.22 89.94 146.91 88.97 Z M 146.92 88.76 L 147.65 88.22 C 148.61 87.51 148.82 86.15 148.10 85.19 C 147.39 84.22 146.03 84.02 145.07 84.73 L 144.34 85.27 C 143.38 85.99 143.18 87.34 143.89 88.31 C 144.60 89.27 145.96 89.47 146.92 88.76 Z M 147.19 88.48 L 148.09 88.11 C 149.20 87.65 149.73 86.38 149.27 85.27 C 148.81 84.17 147.54 83.64 146.44 84.10 L 145.53 84.47 C 144.43 84.93 143.90 86.20 144.36 87.30 C 144.82 88.41 146.08 88.94 147.19 88.48 Z M 147.69 88.23 L 148.71 88.03 C 149.88 87.79 150.64 86.65 150.41 85.48 C 150.18 84.30 149.04 83.54 147.86 83.77 L 146.84 83.98 C 145.67 84.21 144.91 85.35 145.14 86.52 C 145.37 87.70 146.51 88.46 147.69 88.23 Z M 148.33 88.07 L 149.40 88.04 C 150.60 88.02 151.55 87.03 151.52 85.83 C 151.50 84.63 150.50 83.68 149.31 83.71 L 148.24 83.73 C 147.04 83.76 146.09 84.75 146.12 85.95 C 146.14 87.15 147.13 88.09 148.33 88.07 Z M 149.03 88.02 L 150.10 88.18 C 151.28 88.36 152.38 87.54 152.56 86.36 C 152.74 85.18 151.93 84.07 150.74 83.89 L 149.68 83.73 C 148.49 83.55 147.39 84.37 147.21 85.55 C 147.03 86.74 147.85 87.84 149.03 88.02 Z M 149.73 88.09 L 150.62 88.39 C 151.75 88.77 152.98 88.16 153.36 87.03 C 153.74 85.90 153.13 84.67 152.00 84.29 L 151.11 83.99 C 149.98 83.60 148.75 84.21 148.37 85.34 C 147.99 86.48 148.59 87.70 149.73 88.09 Z M 150.29 88.23 L 151.05 88.64 C 152.10 89.20 153.40 88.81 153.96 87.76 C 154.52 86.71 154.13 85.41 153.08 84.85 L 152.32 84.44 C 151.28 83.88 149.97 84.28 149.41 85.32 C 148.85 86.37 149.25 87.67 150.29 88.23 Z M 150.80 88.46 L 151.51 88.98 C 152.45 89.69 153.79 89.49 154.49 88.54 C 155.19 87.59 155.00 86.26 154.05 85.56 L 153.34 85.03 C 152.39 84.33 151.06 84.53 150.35 85.47 C 149.65 86.42 149.85 87.76 150.80 88.46 Z M 151.31 88.80 L 151.98 89.44 C 152.82 90.25 154.16 90.22 154.97 89.38 C 155.78 88.53 155.75 87.19 154.91 86.38 L 154.24 85.74 C 153.40 84.93 152.06 84.96 151.25 85.81 C 150.44 86.65 150.47 87.99 151.31 88.80 Z M 151.84 89.27 L 152.47 90.01 C 153.22 90.90 154.54 91.01 155.43 90.26 C 156.32 89.51 156.43 88.19 155.68 87.30 L 155.05 86.56 C 154.30 85.67 152.98 85.56 152.09 86.31 C 151.20 87.05 151.09 88.38 151.84 89.27 Z M 152.37 89.86 L 152.98 90.71 C 153.64 91.65 154.94 91.87 155.88 91.21 C 156.82 90.54 157.04 89.24 156.38 88.30 L 155.78 87.45 C 155.11 86.51 153.81 86.29 152.87 86.96 C 151.93 87.62 151.71 88.92 152.37 89.86 Z M 152.91 90.59 L 153.49 91.53 C 154.09 92.50 155.36 92.81 156.34 92.21 C 157.31 91.62 157.61 90.34 157.02 89.37 L 156.44 88.43 C 155.84 87.45 154.57 87.15 153.60 87.74 C 152.62 88.34 152.32 89.61 152.91 90.59 Z M 153.46 91.43 L 154.02 92.47 C 154.56 93.46 155.81 93.83 156.80 93.29 C 157.80 92.74 158.16 91.50 157.62 90.50 L 157.06 89.47 C 156.51 88.47 155.27 88.11 154.27 88.65 C 153.28 89.19 152.91 90.44 153.46 91.43 Z M 154.00 92.39 L 154.46 93.31 C 154.96 94.31 156.18 94.72 157.18 94.21 C 158.19 93.71 158.59 92.49 158.09 91.49 L 157.64 90.58 C 157.13 89.57 155.91 89.17 154.91 89.67 C 153.91 90.17 153.50 91.39 154.00 92.39 Z M 154.47 93.25 L 154.85 94.07 C 155.32 95.07 156.51 95.49 157.51 95.02 C 158.51 94.55 158.94 93.36 158.47 92.36 L 158.09 91.54 C 157.62 90.54 156.42 90.12 155.42 90.59 C 154.42 91.06 153.99 92.25 154.47 93.25 Z M 154.86 94.02 L 155.24 94.87 C 155.69 95.86 156.86 96.31 157.85 95.86 C 158.84 95.41 159.29 94.24 158.84 93.25 L 158.46 92.40 C 158.01 91.41 156.84 90.97 155.85 91.41 C 154.86 91.86 154.41 93.03 154.86 94.02 Z M 155.26 94.83 L 155.64 95.71 C 156.06 96.69 157.21 97.15 158.19 96.72 C 159.18 96.30 159.63 95.15 159.20 94.17 L 158.82 93.29 C 158.40 92.31 157.26 91.85 156.27 92.28 C 155.29 92.70 154.83 93.85 155.26 94.83 Z M 155.66 95.68 L 156.04 96.58 C 156.44 97.56 157.56 98.02 158.54 97.61 C 159.51 97.20 159.97 96.08 159.56 95.11 L 159.19 94.20 C 158.78 93.23 157.66 92.77 156.69 93.18 C 155.71 93.58 155.25 94.70 155.66 95.68 Z M 156.06 96.55 L 156.43 97.48 C 156.82 98.44 157.92 98.91 158.88 98.52 C 159.85 98.13 160.31 97.03 159.92 96.07 L 159.54 95.14 C 159.15 94.18 158.06 93.71 157.09 94.10 C 156.13 94.49 155.67 95.59 156.06 96.55 Z M 156.46 97.45 L 156.83 98.41 C 157.21 99.36 158.28 99.82 159.23 99.45 C 160.18 99.07 160.65 98.00 160.27 97.05 L 159.90 96.10 C 159.52 95.14 158.45 94.68 157.50 95.05 C 156.55 95.43 156.08 96.50 156.46 97.45 Z M 156.85 98.38 L 157.23 99.35 C 157.59 100.29 158.65 100.75 159.58 100.39 C 160.52 100.03 160.99 98.97 160.62 98.04 L 160.25 97.07 C 159.89 96.13 158.83 95.67 157.89 96.03 C 156.96 96.39 156.49 97.44 156.85 98.38 Z M 157.25 99.33 L 157.63 100.31 C 157.98 101.24 159.01 101.70 159.94 101.35 C 160.86 101.00 161.32 99.96 160.97 99.04 L 160.60 98.06 C 160.25 97.13 159.21 96.67 158.29 97.02 C 157.37 97.37 156.90 98.41 157.25 99.33 Z M 157.65 100.29 L 158.03 101.29 C 158.37 102.19 159.38 102.66 160.29 102.31 C 161.20 101.97 161.66 100.96 161.32 100.05 L 160.95 99.06 C 160.60 98.15 159.59 97.69 158.68 98.03 C 157.77 98.37 157.31 99.38 157.65 100.29 Z M 158.05 101.27 L 158.42 102.27 C 158.76 103.16 159.75 103.62 160.65 103.28 C 161.54 102.95 162.00 101.95 161.66 101.06 L 161.29 100.06 C 160.96 99.17 159.96 98.71 159.07 99.05 C 158.17 99.38 157.72 100.38 158.05 101.27 Z M 158.45 102.26 L 158.81 103.22 C 159.14 104.10 160.12 104.55 161.00 104.22 C 161.88 103.90 162.32 102.92 162.00 102.04 L 161.64 101.07 C 161.31 100.19 160.33 99.74 159.45 100.07 C 158.57 100.40 158.12 101.38 158.45 102.26 Z"
      fill="black"
      fill-rule="nonzero" /><path d="M 158.73 123.51 L 157.75 123.92 C 156.86 124.30 156.44 125.33 156.82 126.22 C 157.20 127.11 158.23 127.53 159.12 127.15 L 160.10 126.73 C 160.99 126.35 161.40 125.33 161.02 124.43 C 160.65 123.54 159.62 123.13 158.73 123.51 Z M 157.72 123.90 L 156.75 124.32 C 155.85 124.72 155.43 125.77 155.83 126.67 C 156.22 127.57 157.27 127.99 158.17 127.59 L 159.14 127.17 C 160.05 126.78 160.46 125.73 160.07 124.82 C 159.67 123.92 158.62 123.51 157.72 123.90 Z M 156.71 124.31 L 155.76 124.74 C 154.85 125.16 154.44 126.23 154.86 127.14 C 155.27 128.06 156.35 128.46 157.26 128.04 L 158.21 127.61 C 159.12 127.19 159.53 126.12 159.11 125.21 C 158.70 124.29 157.62 123.89 156.71 124.31 Z M 155.70 124.73 L 154.78 125.19 C 153.86 125.63 153.48 126.74 153.93 127.65 C 154.38 128.57 155.48 128.95 156.40 128.50 L 157.32 128.05 C 158.23 127.60 158.61 126.50 158.17 125.58 C 157.72 124.67 156.61 124.29 155.70 124.73 Z M 154.70 125.19 L 153.81 125.67 C 152.90 126.15 152.56 127.29 153.05 128.20 C 153.54 129.12 154.67 129.46 155.59 128.97 L 156.47 128.50 C 157.39 128.01 157.73 126.87 157.24 125.96 C 156.75 125.04 155.61 124.70 154.70 125.19 Z M 153.72 125.68 L 152.88 126.19 C 151.97 126.73 151.68 127.90 152.23 128.81 C 152.77 129.71 153.94 130.00 154.84 129.46 L 155.68 128.95 C 156.58 128.41 156.88 127.24 156.33 126.34 C 155.79 125.43 154.62 125.14 153.72 125.68 Z M 152.76 126.23 L 151.98 126.77 C 151.10 127.37 150.87 128.58 151.48 129.46 C 152.09 130.34 153.29 130.57 154.18 129.96 L 154.96 129.42 C 155.84 128.81 156.06 127.60 155.46 126.72 C 154.85 125.84 153.64 125.62 152.76 126.23 Z M 151.84 126.83 L 151.12 127.41 C 150.27 128.10 150.14 129.34 150.83 130.18 C 151.51 131.03 152.75 131.16 153.60 130.48 L 154.31 129.89 C 155.16 129.21 155.29 127.97 154.61 127.12 C 153.92 126.28 152.68 126.15 151.84 126.83 Z M 150.96 127.52 L 150.30 128.17 C 149.51 128.94 149.50 130.20 150.27 130.99 C 151.04 131.78 152.31 131.79 153.09 131.02 L 153.76 130.37 C 154.54 129.60 154.56 128.33 153.78 127.55 C 153.01 126.76 151.75 126.75 150.96 127.52 Z M 150.14 128.32 L 149.51 129.09 C 148.80 129.95 148.93 131.22 149.79 131.92 C 150.65 132.63 151.92 132.50 152.63 131.64 L 153.26 130.87 C 153.96 130.01 153.83 128.74 152.97 128.03 C 152.11 127.33 150.84 127.46 150.14 128.32 Z M 149.37 129.26 L 148.83 130.09 C 148.23 131.03 148.49 132.28 149.43 132.89 C 150.37 133.50 151.62 133.23 152.23 132.29 L 152.76 131.46 C 153.37 130.53 153.10 129.27 152.17 128.67 C 151.23 128.06 149.98 128.33 149.37 129.26 Z M 148.73 130.26 L 148.27 131.13 C 147.76 132.13 148.15 133.36 149.15 133.87 C 150.14 134.39 151.37 134.00 151.88 133.00 L 152.34 132.12 C 152.85 131.13 152.46 129.90 151.46 129.39 C 150.47 128.87 149.24 129.26 148.73 130.26 Z M 148.19 131.29 L 147.81 132.20 C 147.39 133.25 147.88 134.44 148.92 134.87 C 149.96 135.30 151.16 134.80 151.59 133.76 L 151.96 132.84 C 152.39 131.80 151.90 130.61 150.86 130.18 C 149.81 129.75 148.62 130.25 148.19 131.29 Z M 147.75 132.34 L 147.44 133.29 C 147.09 134.37 147.67 135.52 148.75 135.88 C 149.82 136.23 150.98 135.65 151.33 134.57 L 151.65 133.62 C 152.00 132.55 151.42 131.39 150.34 131.04 C 149.27 130.68 148.11 131.27 147.75 132.34 Z M 147.40 133.41 L 147.14 134.38 C 146.85 135.48 147.51 136.61 148.61 136.89 C 149.71 137.18 150.83 136.53 151.12 135.43 L 151.38 134.46 C 151.67 133.36 151.01 132.23 149.91 131.94 C 148.81 131.65 147.69 132.31 147.40 133.41 Z M 147.11 134.48 L 146.90 135.47 C 146.67 136.59 147.38 137.68 148.50 137.92 C 149.61 138.15 150.71 137.44 150.94 136.32 L 151.15 135.33 C 151.39 134.22 150.67 133.12 149.56 132.89 C 148.44 132.65 147.35 133.36 147.11 134.48 Z M 146.88 135.55 L 146.71 136.51 C 146.52 137.64 147.28 138.71 148.41 138.90 C 149.53 139.10 150.60 138.34 150.80 137.21 L 150.96 136.25 C 151.16 135.12 150.40 134.05 149.27 133.86 C 148.15 133.66 147.07 134.42 146.88 135.55 Z M 146.70 136.57 L 146.57 137.50 C 146.41 138.64 147.20 139.69 148.33 139.85 C 149.47 140.01 150.52 139.22 150.68 138.08 L 150.81 137.15 C 150.97 136.02 150.18 134.97 149.05 134.81 C 147.91 134.65 146.86 135.44 146.70 136.57 Z M 146.56 137.56 L 146.45 138.50 C 146.32 139.64 147.14 140.67 148.28 140.80 C 149.42 140.93 150.45 140.11 150.58 138.97 L 150.69 138.03 C 150.82 136.89 150.00 135.86 148.86 135.73 C 147.72 135.60 146.69 136.42 146.56 137.56 Z M 146.44 138.55 L 146.36 139.51 C 146.26 140.65 147.10 141.66 148.24 141.77 C 149.39 141.87 150.40 141.02 150.50 139.88 L 150.59 138.92 C 150.69 137.78 149.85 136.77 148.70 136.66 C 147.56 136.56 146.55 137.40 146.44 138.55 Z M 146.35 139.55 L 146.28 140.53 C 146.20 141.68 147.07 142.67 148.22 142.75 C 149.37 142.83 150.36 141.96 150.44 140.82 L 150.51 139.84 C 150.59 138.69 149.72 137.69 148.58 137.61 C 147.43 137.53 146.43 138.40 146.35 139.55 Z M 146.28 140.56 L 146.23 141.57 C 146.17 142.72 147.05 143.70 148.20 143.76 C 149.35 143.82 150.34 142.93 150.40 141.78 L 150.45 140.78 C 150.51 139.63 149.62 138.65 148.47 138.59 C 147.32 138.53 146.34 139.41 146.28 140.56 Z M 146.22 141.59 L 146.18 142.63 C 146.14 143.78 147.04 144.75 148.19 144.79 C 149.35 144.84 150.32 143.94 150.36 142.79 L 150.40 141.75 C 150.44 140.60 149.54 139.63 148.39 139.59 C 147.24 139.54 146.27 140.44 146.22 141.59 Z M 146.18 142.65 L 146.15 143.71 C 146.12 144.87 147.03 145.83 148.18 145.86 C 149.34 145.89 150.30 144.98 150.33 143.83 L 150.36 142.76 C 150.40 141.61 149.48 140.65 148.33 140.61 C 147.17 140.58 146.21 141.49 146.18 142.65 Z M 146.15 143.73 L 146.13 144.82 C 146.10 145.97 147.02 146.93 148.18 146.95 C 149.34 146.98 150.29 146.06 150.32 144.90 L 150.34 143.81 C 150.36 142.66 149.44 141.70 148.28 141.68 C 147.13 141.65 146.17 142.57 146.15 143.73 Z M 146.12 144.83 L 146.11 145.72 C 146.09 146.88 147.02 147.83 148.17 147.85 C 149.33 147.87 150.29 146.94 150.30 145.79 L 150.32 144.89 C 150.33 143.73 149.41 142.78 148.25 142.76 C 147.10 142.74 146.14 143.67 146.12 144.83 Z M 146.11 145.73 L 146.10 146.65 C 146.08 147.81 147.01 148.76 148.17 148.77 C 149.33 148.79 150.28 147.86 150.29 146.70 L 150.30 145.78 C 150.32 144.62 149.39 143.67 148.23 143.66 C 147.07 143.64 146.12 144.57 146.11 145.73 Z M 146.10 146.66 L 146.09 147.60 C 146.08 148.76 147.01 149.71 148.17 149.72 C 149.32 149.73 150.27 148.80 150.28 147.64 L 150.29 146.70 C 150.30 145.54 149.37 144.59 148.22 144.58 C 147.06 144.57 146.11 145.50 146.10 146.66 Z M 146.09 147.61 L 146.08 148.57 C 146.07 149.73 147.01 150.68 148.16 150.68 C 149.32 150.69 150.27 149.76 150.28 148.60 L 150.28 147.64 C 150.29 146.48 149.36 145.53 148.20 145.52 C 147.04 145.51 146.10 146.45 146.09 147.61 Z M 146.08 148.58 L 146.08 149.57 C 146.07 150.72 147.01 151.67 148.16 151.67 C 149.32 151.68 150.27 150.75 150.27 149.59 L 150.28 148.60 C 150.28 147.44 149.35 146.50 148.19 146.49 C 147.03 146.48 146.09 147.42 146.08 148.58 Z M 146.08 149.57 L 146.07 150.58 C 146.07 151.74 147.00 152.68 148.16 152.68 C 149.32 152.69 150.27 151.75 150.27 150.59 L 150.27 149.58 C 150.28 148.43 149.34 147.48 148.18 147.48 C 147.02 147.47 146.08 148.41 146.08 149.57 Z M 146.07 150.58 L 146.07 151.61 C 146.07 152.77 147.01 153.71 148.16 153.71 C 149.32 153.72 150.26 152.78 150.27 151.62 L 150.27 150.59 C 150.27 149.43 149.33 148.49 148.18 148.49 C 147.02 148.48 146.08 149.42 146.07 150.58 Z M 146.07 151.61 L 146.07 152.66 C 146.07 153.82 147.01 154.76 148.16 154.76 C 149.32 154.76 150.26 153.82 150.27 152.67 L 150.27 151.62 C 150.27 150.46 149.33 149.52 148.17 149.52 C 147.01 149.51 146.07 150.45 146.07 151.61 Z M 146.07 152.66 L 146.07 153.73 C 146.07 154.89 147.01 155.83 148.17 155.83 C 149.33 155.83 150.27 154.89 150.27 153.73 L 150.27 152.66 C 150.27 151.50 149.33 150.56 148.17 150.56 C 147.01 150.56 146.07 151.50 146.07 152.66 Z M 146.07 153.73 L 146.07 154.81 C 146.07 155.97 147.01 156.91 148.17 156.91 C 149.33 156.91 150.27 155.97 150.27 154.81 L 150.27 153.73 C 150.27 152.57 149.33 151.63 148.17 151.63 C 147.01 151.63 146.07 152.57 146.07 153.73 Z M 146.07 154.81 L 146.07 155.84 C 146.07 157.00 147.01 157.94 148.17 157.94 C 149.33 157.94 150.27 157.00 150.27 155.84 L 150.27 154.81 C 150.27 153.65 149.33 152.71 148.17 152.71 C 147.01 152.71 146.07 153.65 146.07 154.81 Z M 146.07 155.84 L 146.07 156.79 C 146.07 157.95 147.01 158.89 148.17 158.89 C 149.33 158.89 150.27 157.95 150.27 156.79 L 150.27 155.84 C 150.27 154.68 149.33 153.74 148.17 153.74 C 147.01 153.74 146.07 154.68 146.07 155.84 Z M 146.07 156.79 L 146.07 157.75 C 146.07 158.91 147.01 159.85 148.17 159.85 C 149.33 159.85 150.27 158.91 150.27 157.75 L 150.27 156.79 C 150.27 155.63 149.33 154.69 148.17 154.69 C 147.01 154.69 146.07 155.63 146.07 156.79 Z M 146.07 157.75 L 146.07 158.72 C 146.07 159.88 147.01 160.82 148.17 160.82 C 149.33 160.82 150.27 159.88 150.27 158.72 L 150.27 157.75 C 150.27 156.59 149.33 155.65 148.17 155.65 C 147.01 155.65 146.07 156.59 146.07 157.75 Z M 146.07 158.72 L 146.07 159.70 C 146.07 160.85 147.01 161.79 148.17 161.79 C 149.33 161.79 150.26 160.85 150.26 159.70 L 150.26 158.72 C 150.26 157.56 149.33 156.62 148.17 156.62 C 147.01 156.62 146.07 157.56 146.07 158.72 Z M 146.07 159.70 L 146.07 160.68 C 146.07 161.84 147.01 162.78 148.17 162.78 C 149.32 162.78 150.26 161.84 150.26 160.68 L 150.26 159.70 C 150.26 158.54 149.32 157.60 148.17 157.60 C 147.01 157.60 146.07 158.54 146.07 159.70 Z M 146.07 160.68 L 146.07 161.68 C 146.07 162.84 147.01 163.78 148.17 163.78 C 149.32 163.78 150.26 162.84 150.26 161.68 L 150.26 160.68 C 150.26 159.53 149.32 158.59 148.17 158.59 C 147.01 158.59 146.07 159.53 146.07 160.68 Z M 146.07 161.68 L 146.07 162.69 C 146.07 163.84 147.01 164.78 148.17 164.78 C 149.32 164.78 150.26 163.84 150.26 162.69 L 150.26 161.68 C 150.26 160.52 149.32 159.58 148.17 159.58 C 147.01 159.58 146.07 160.52 146.07 161.68 Z M 146.07 162.69 L 146.07 163.70 C 146.07 164.86 147.01 165.80 148.17 165.80 C 149.32 165.80 150.26 164.86 150.26 163.70 L 150.26 162.69 C 150.26 161.53 149.32 160.59 148.17 160.59 C 147.01 160.59 146.07 161.53 146.07 162.69 Z M 146.07 163.70 L 146.07 164.73 C 146.07 165.89 147.01 166.82 148.17 166.82 C 149.32 166.82 150.26 165.89 150.26 164.73 L 150.26 163.70 C 150.26 162.55 149.32 161.61 148.17 161.61 C 147.01 161.61 146.07 162.55 146.07 163.70 Z M 146.07 164.73 L 146.07 165.76 C 146.07 166.92 147.01 167.86 148.17 167.86 C 149.32 167.86 150.26 166.92 150.26 165.76 L 150.26 164.73 C 150.26 163.57 149.32 162.64 148.17 162.64 C 147.01 162.64 146.07 163.57 146.07 164.73 Z M 146.07 165.76 L 146.07 166.81 C 146.07 167.96 147.01 168.90 148.17 168.90 C 149.32 168.90 150.26 167.96 150.26 166.81 L 150.26 165.76 C 150.26 164.61 149.32 163.67 148.17 163.67 C 147.01 163.67 146.07 164.61 146.07 165.76 Z M 146.07 166.81 L 146.07 167.86 C 146.07 169.01 147.01 169.95 148.17 169.95 C 149.32 169.95 150.26 169.01 150.26 167.86 L 150.26 166.81 C 150.26 165.65 149.32 164.71 148.17 164.71 C 147.01 164.71 146.07 165.65 146.07 166.81 Z M 146.08 167.86 L 146.08 168.83 C 146.08 169.99 147.01 170.93 148.17 170.93 C 149.32 170.93 150.26 169.99 150.26 168.83 L 150.26 167.86 C 150.26 166.70 149.32 165.77 148.17 165.77 C 147.01 165.77 146.08 166.70 146.08 167.86 Z M 146.08 168.83 L 146.08 169.80 C 146.08 170.96 147.01 171.89 148.17 171.89 C 149.32 171.89 150.26 170.96 150.26 169.80 L 150.25 168.83 C 150.25 167.68 149.32 166.75 148.17 166.75 C 147.01 166.75 146.08 167.68 146.08 168.83 Z M 146.08 169.81 L 146.08 170.78 C 146.08 171.93 147.02 172.87 148.17 172.86 C 149.32 172.86 150.25 171.93 150.25 170.78 L 150.25 169.80 C 150.25 168.65 149.32 167.72 148.17 167.72 C 147.01 167.72 146.08 168.65 146.08 169.81 Z M 146.09 170.78 L 146.09 171.76 C 146.09 172.91 147.02 173.84 148.17 173.84 C 149.32 173.84 150.25 172.91 150.25 171.76 L 150.25 170.78 C 150.25 169.63 149.31 168.70 148.16 168.70 C 147.01 168.70 146.08 169.63 146.09 170.78 Z M 146.09 171.77 L 146.09 172.75 C 146.10 173.90 147.03 174.83 148.18 174.83 C 149.32 174.83 150.25 173.89 150.25 172.74 L 150.25 171.76 C 150.25 170.61 149.31 169.68 148.16 169.68 C 147.02 169.68 146.09 170.62 146.09 171.77 Z M 146.10 172.76 L 146.10 173.75 C 146.10 174.90 147.04 175.82 148.18 175.82 C 149.33 175.81 150.26 174.88 150.25 173.74 L 150.25 172.74 C 150.24 171.59 149.31 170.67 148.16 170.67 C 147.02 170.68 146.09 171.61 146.10 172.76 Z M 146.10 173.75 L 146.11 174.75 C 146.11 175.90 147.05 176.82 148.19 176.81 C 149.34 176.81 150.26 175.88 150.25 174.73 L 150.25 173.73 C 150.24 172.59 149.31 171.66 148.16 171.67 C 147.02 171.68 146.10 172.61 146.10 173.75 Z M 146.11 174.76 L 146.12 175.76 C 146.13 176.90 147.06 177.82 148.20 177.82 C 149.34 177.81 150.26 176.88 150.26 175.73 L 150.25 174.73 C 150.24 173.58 149.31 172.66 148.17 172.67 C 147.02 172.68 146.10 173.61 146.11 174.76 Z M 146.12 175.76 L 146.13 176.77 C 146.14 177.91 147.07 178.83 148.21 178.82 C 149.36 178.81 150.27 177.88 150.26 176.74 L 150.25 175.73 C 150.24 174.59 149.31 173.67 148.17 173.68 C 147.03 173.69 146.11 174.62 146.12 175.76 Z M 146.13 176.78 L 146.14 177.79 C 146.16 178.93 147.09 179.85 148.23 179.83 C 149.37 179.82 150.28 178.89 150.27 177.75 L 150.26 176.73 C 150.25 175.59 149.31 174.68 148.17 174.69 C 147.03 174.70 146.12 175.64 146.13 176.78 Z M 146.15 177.80 L 146.16 178.82 C 146.18 179.95 147.11 180.86 148.25 180.85 C 149.39 180.83 150.30 179.90 150.28 178.76 L 150.27 177.74 C 150.25 176.60 149.32 175.69 148.18 175.71 C 147.04 175.72 146.13 176.66 146.15 177.80 Z M 146.16 178.82 L 146.18 179.84 C 146.20 180.98 147.13 181.89 148.27 181.87 C 149.41 181.85 150.31 180.91 150.29 179.78 L 150.28 178.76 C 150.26 177.62 149.32 176.71 148.19 176.73 C 147.05 176.75 146.15 177.68 146.16 178.82 Z M 146.18 179.85 L 146.20 180.88 C 146.22 182.01 147.16 182.91 148.29 182.89 C 149.43 182.87 150.33 181.93 150.31 180.80 L 150.29 179.77 C 150.27 178.64 149.33 177.74 148.20 177.76 C 147.06 177.78 146.16 178.72 146.18 179.85 Z M 146.21 180.88 L 146.23 181.91 C 146.25 183.04 147.19 183.94 148.32 183.91 C 149.46 183.89 150.35 182.95 150.33 181.82 L 150.31 180.79 C 150.28 179.66 149.34 178.76 148.21 178.79 C 147.08 178.81 146.18 179.75 146.21 180.88 Z M 146.23 181.91 L 146.26 182.85 C 146.28 183.98 147.22 184.87 148.35 184.84 C 149.48 184.81 150.38 183.87 150.35 182.74 L 150.32 181.81 C 150.30 180.68 149.36 179.79 148.23 179.81 C 147.10 179.84 146.20 180.78 146.23 181.91 Z M 146.26 182.85 L 146.29 183.79 C 146.32 184.92 147.26 185.81 148.39 185.77 C 149.51 185.74 150.40 184.80 150.37 183.68 L 150.34 182.74 C 150.31 181.61 149.37 180.72 148.24 180.76 C 147.12 180.79 146.23 181.73 146.26 182.85 Z M 146.30 183.80 L 146.32 184.74 C 146.36 185.87 147.30 186.75 148.42 186.71 C 149.54 186.68 150.43 185.74 150.39 184.62 L 150.36 183.67 C 150.33 182.55 149.39 181.67 148.27 181.70 C 147.14 181.74 146.26 182.68 146.30 183.80 Z M 146.33 184.75 L 146.36 185.70 C 146.40 186.82 147.34 187.70 148.46 187.66 C 149.58 187.62 150.46 186.68 150.42 185.56 L 150.38 184.61 C 150.35 183.49 149.41 182.61 148.29 182.65 C 147.17 182.69 146.29 183.63 146.33 184.75 Z M 146.37 185.71 L 146.41 186.67 C 146.45 187.78 147.39 188.65 148.50 188.61 C 149.62 188.57 150.49 187.63 150.45 186.51 L 150.41 185.56 C 150.37 184.44 149.43 183.57 148.31 183.61 C 147.20 183.65 146.33 184.59 146.37 185.71 Z M 146.41 186.67 L 146.45 187.64 C 146.50 188.75 147.43 189.62 148.55 189.57 C 149.66 189.53 150.52 188.59 150.48 187.48 L 150.44 186.51 C 150.40 185.40 149.46 184.53 148.34 184.58 C 147.23 184.62 146.37 185.56 146.41 186.67 Z M 146.46 187.64 L 146.50 188.62 C 146.55 189.73 147.49 190.59 148.59 190.54 C 149.70 190.49 150.56 189.56 150.52 188.45 L 150.47 187.47 C 150.43 186.36 149.49 185.50 148.38 185.55 C 147.27 185.60 146.41 186.54 146.46 187.64 Z M 146.51 188.63 L 146.55 189.61 C 146.60 190.72 147.54 191.57 148.65 191.52 C 149.75 191.47 150.61 190.53 150.56 189.43 L 150.51 188.44 C 150.46 187.33 149.52 186.48 148.41 186.53 C 147.31 186.58 146.45 187.52 146.51 188.63 Z M 146.56 189.62 L 146.61 190.62 C 146.66 191.72 147.60 192.57 148.70 192.52 C 149.80 192.46 150.65 191.52 150.60 190.42 L 150.55 189.42 C 150.49 188.32 149.56 187.47 148.45 187.53 C 147.35 187.58 146.50 188.52 146.56 189.62 Z M 146.61 190.63 L 146.67 191.64 C 146.73 192.74 147.66 193.58 148.76 193.52 C 149.86 193.46 150.70 192.53 150.65 191.43 L 150.59 190.42 C 150.53 189.32 149.60 188.47 148.50 188.53 C 147.40 188.59 146.56 189.53 146.61 190.63 Z M 146.67 191.64 L 146.73 192.67 C 146.79 193.77 147.73 194.60 148.82 194.54 C 149.92 194.48 150.76 193.54 150.70 192.45 L 150.64 191.42 C 150.58 190.33 149.64 189.49 148.55 189.55 C 147.45 189.61 146.61 190.55 146.67 191.64 Z M 146.74 192.68 L 146.80 193.72 C 146.86 194.81 147.80 195.64 148.89 195.58 C 149.98 195.51 150.82 194.58 150.75 193.49 L 150.69 192.44 C 150.63 191.35 149.69 190.52 148.60 190.58 C 147.51 190.65 146.67 191.58 146.74 192.68 Z M 146.80 193.72 L 146.87 194.78 C 146.94 195.87 147.87 196.70 148.96 196.63 C 150.05 196.56 150.88 195.63 150.81 194.54 L 150.74 193.48 C 150.68 192.39 149.74 191.57 148.65 191.63 C 147.57 191.70 146.74 192.63 146.80 193.72 Z M 146.88 194.79 L 146.94 195.86 C 147.01 196.95 147.95 197.77 149.03 197.70 C 150.12 197.63 150.94 196.70 150.87 195.61 L 150.80 194.53 C 150.73 193.45 149.80 192.63 148.71 192.70 C 147.63 192.77 146.81 193.70 146.88 194.79 Z M 146.95 195.87 L 147.02 196.96 C 147.10 198.04 148.03 198.86 149.11 198.79 C 150.19 198.72 151.01 197.78 150.94 196.70 L 150.87 195.61 C 150.79 194.52 149.86 193.71 148.78 193.78 C 147.70 193.85 146.88 194.79 146.95 195.87 Z M 147.03 196.97 L 147.10 197.97 C 147.18 199.05 148.11 199.86 149.19 199.78 C 150.26 199.71 151.08 198.78 151.00 197.70 L 150.93 196.70 C 150.86 195.62 149.92 194.81 148.85 194.88 C 147.77 194.96 146.96 195.89 147.03 196.97 Z M 147.11 197.97 L 147.18 198.97 C 147.26 200.04 148.19 200.85 149.26 200.77 C 150.33 200.70 151.14 199.76 151.07 198.69 L 150.99 197.70 C 150.92 196.62 149.99 195.81 148.91 195.89 C 147.84 195.97 147.03 196.90 147.11 197.97 Z M 147.19 198.97 L 147.26 199.98 C 147.34 201.05 148.27 201.85 149.34 201.77 C 150.41 201.69 151.21 200.76 151.13 199.70 L 151.06 198.69 C 150.98 197.62 150.05 196.82 148.98 196.90 C 147.91 196.97 147.11 197.90 147.19 198.97 Z M 147.27 199.98 L 147.35 201.00 C 147.43 202.06 148.35 202.86 149.42 202.78 C 150.48 202.70 151.28 201.77 151.20 200.71 L 151.12 199.69 C 151.04 198.63 150.12 197.83 149.05 197.91 C 147.99 197.99 147.19 198.92 147.27 199.98 Z M 147.36 201.00 L 147.43 202.02 C 147.51 203.08 148.44 203.88 149.50 203.80 C 150.56 203.72 151.35 202.79 151.27 201.73 L 151.19 200.71 C 151.11 199.65 150.19 198.86 149.13 198.94 C 148.07 199.02 147.27 199.94 147.36 201.00 Z M 147.44 202.03 L 147.52 203.05 C 147.60 204.11 148.52 204.90 149.58 204.82 C 150.63 204.73 151.42 203.81 151.34 202.76 L 151.26 201.73 C 151.18 200.68 150.26 199.89 149.20 199.97 C 148.15 200.05 147.36 200.97 147.44 202.03 Z M 147.53 203.06 L 147.61 204.09 C 147.69 205.14 148.61 205.92 149.66 205.84 C 150.71 205.76 151.49 204.84 151.41 203.79 L 151.33 202.76 C 151.25 201.71 150.33 200.92 149.28 201.01 C 148.23 201.09 147.45 202.01 147.53 203.06 Z M 147.62 204.09 L 147.70 205.12 C 147.78 206.16 148.70 206.94 149.74 206.86 C 150.79 206.78 151.57 205.86 151.49 204.82 L 151.40 203.79 C 151.32 202.74 150.41 201.96 149.36 202.04 C 148.32 202.13 147.53 203.04 147.62 204.09 Z M 147.71 205.12 L 147.79 206.14 C 147.87 207.18 148.78 207.96 149.82 207.88 C 150.86 207.80 151.64 206.88 151.56 205.84 L 151.48 204.82 C 151.39 203.78 150.48 203.00 149.44 203.08 C 148.40 203.16 147.62 204.07 147.71 205.12 Z M 147.80 206.14 L 147.88 207.16 C 147.96 208.20 148.87 208.97 149.90 208.89 C 150.94 208.81 151.71 207.90 151.63 206.87 L 151.55 205.84 C 151.47 204.81 150.56 204.03 149.52 204.12 C 148.49 204.20 147.71 205.11 147.80 206.14 Z M 147.89 207.16 L 147.97 208.18 C 148.05 209.21 148.95 209.98 149.98 209.90 C 151.02 209.82 151.79 208.91 151.70 207.88 L 151.62 206.87 C 151.54 205.83 150.64 205.06 149.61 205.15 C 148.57 205.23 147.80 206.13 147.89 207.16 Z M 147.97 208.18 L 148.05 209.18 C 148.14 210.21 149.04 210.98 150.06 210.90 C 151.09 210.81 151.86 209.91 151.78 208.89 L 151.70 207.88 C 151.62 206.85 150.72 206.09 149.69 206.17 C 148.66 206.25 147.89 207.15 147.97 208.18 Z M 148.06 209.18 L 148.14 210.17 C 148.22 211.20 149.12 211.96 150.14 211.88 C 151.17 211.80 151.93 210.90 151.85 209.88 L 151.77 208.89 C 151.69 207.86 150.79 207.10 149.77 207.18 C 148.74 207.26 147.98 208.16 148.06 209.18 Z M 148.15 210.17 L 148.23 211.15 C 148.31 212.17 149.20 212.93 150.22 212.85 C 151.24 212.77 152.00 211.88 151.92 210.86 L 151.84 209.88 C 151.76 208.86 150.87 208.10 149.85 208.18 C 148.83 208.26 148.07 209.15 148.15 210.17 Z M 148.23 211.15 L 148.31 212.11 C 148.39 213.13 149.28 213.89 150.29 213.81 C 151.31 213.73 152.06 212.84 151.98 211.82 L 151.91 210.86 C 151.83 209.85 150.94 209.09 149.93 209.17 C 148.91 209.25 148.15 210.13 148.23 211.15 Z M 148.32 212.11 L 148.39 213.05 C 148.47 214.06 149.35 214.82 150.36 214.74 C 151.37 214.66 152.13 213.78 152.05 212.77 L 151.98 211.83 C 151.90 210.82 151.02 210.06 150.01 210.14 C 148.99 210.22 148.24 211.10 148.32 212.11 Z M 148.40 213.05 L 148.47 213.97 C 148.54 214.98 149.42 215.73 150.43 215.66 C 151.43 215.58 152.19 214.70 152.11 213.70 L 152.04 212.77 C 151.97 211.77 151.09 211.01 150.08 211.09 C 149.07 211.17 148.32 212.04 148.40 213.05 Z M 148.48 213.97 L 148.56 215.06 C 148.63 216.06 149.50 216.81 150.50 216.74 C 151.51 216.67 152.26 215.79 152.18 214.79 L 152.10 213.70 C 152.03 212.70 151.16 211.95 150.15 212.02 C 149.15 212.10 148.40 212.97 148.48 213.97 Z M 148.57 215.06 L 148.66 216.24 C 148.73 217.24 149.59 217.98 150.59 217.91 C 151.58 217.84 152.32 216.98 152.25 215.98 L 152.17 214.80 C 152.10 213.81 151.23 213.06 150.24 213.13 C 149.25 213.20 148.50 214.07 148.57 215.06 Z M 148.68 216.24 L 148.76 217.38 C 148.82 218.36 149.68 219.10 150.66 219.04 C 151.64 218.97 152.38 218.11 152.32 217.13 L 152.24 215.99 C 152.17 215.01 151.31 214.26 150.33 214.33 C 149.35 214.40 148.61 215.25 148.68 216.24 Z M 148.77 217.38 L 148.85 218.48 C 148.91 219.45 149.76 220.19 150.73 220.12 C 151.70 220.05 152.44 219.21 152.37 218.24 L 152.30 217.14 C 152.23 216.16 151.39 215.43 150.42 215.49 C 149.44 215.56 148.71 216.40 148.77 217.38 Z M 148.86 218.47 L 148.93 219.54 C 149.00 220.50 149.83 221.23 150.80 221.17 C 151.76 221.10 152.49 220.27 152.43 219.30 L 152.36 218.24 C 152.29 217.28 151.46 216.55 150.49 216.61 C 149.53 216.67 148.80 217.51 148.86 218.47 Z M 148.95 219.53 L 149.02 220.56 C 149.08 221.51 149.90 222.24 150.86 222.18 C 151.82 222.11 152.54 221.29 152.48 220.33 L 152.41 219.31 C 152.35 218.35 151.52 217.63 150.57 217.69 C 149.61 217.75 148.89 218.58 148.95 219.53 Z M 149.03 220.56 L 149.10 221.55 C 149.16 222.49 149.97 223.21 150.92 223.15 C 151.87 223.09 152.58 222.28 152.52 221.33 L 152.46 220.34 C 152.40 219.39 151.58 218.67 150.64 218.73 C 149.69 218.79 148.97 219.61 149.03 220.56 Z M 149.11 221.54 L 149.17 222.50 C 149.23 223.44 150.04 224.15 150.98 224.09 C 151.91 224.03 152.63 223.23 152.57 222.29 L 152.51 221.33 C 152.45 220.39 151.64 219.68 150.70 219.74 C 149.77 219.80 149.06 220.61 149.11 221.54 Z M 149.19 222.50 L 149.25 223.43 C 149.31 224.36 150.10 225.06 151.03 225.00 C 151.96 224.95 152.67 224.15 152.61 223.22 L 152.55 222.29 C 152.49 221.36 151.69 220.66 150.77 220.72 C 149.84 220.77 149.13 221.57 149.19 222.50 Z M 149.27 223.43 L 149.32 224.33 C 149.38 225.24 150.17 225.94 151.09 225.89 C 152.00 225.83 152.70 225.04 152.65 224.12 L 152.59 223.22 C 152.53 222.30 151.74 221.60 150.83 221.66 C 149.91 221.72 149.21 222.51 149.27 223.43 Z M 149.34 224.33 L 149.39 225.20 C 149.45 226.11 150.23 226.80 151.14 226.74 C 152.05 226.69 152.74 225.90 152.68 224.99 L 152.63 224.12 C 152.57 223.21 151.79 222.52 150.88 222.58 C 149.97 222.63 149.28 223.42 149.34 224.33 Z M 149.41 225.20 L 149.46 226.05 C 149.52 226.95 150.29 227.63 151.19 227.57 C 152.09 227.52 152.78 226.74 152.72 225.84 L 152.67 224.99 C 152.61 224.09 151.84 223.41 150.94 223.47 C 150.04 223.52 149.35 224.30 149.41 225.20 Z M 149.48 226.05 L 149.53 226.87 C 149.59 227.76 150.36 228.44 151.25 228.38 C 152.14 228.32 152.81 227.56 152.76 226.67 L 152.70 225.84 C 152.65 224.95 151.88 224.27 150.99 224.33 C 150.10 224.39 149.42 225.16 149.48 226.05 Z M 149.54 226.87 L 149.61 227.97 C 149.67 228.86 150.44 229.53 151.32 229.47 C 152.21 229.41 152.87 228.65 152.82 227.76 L 152.74 226.66 C 152.69 225.78 151.92 225.11 151.04 225.17 C 150.15 225.23 149.48 225.99 149.54 226.87 Z M 149.62 227.98 L 149.69 229.04 C 149.75 229.92 150.51 230.59 151.40 230.53 C 152.28 230.47 152.94 229.70 152.88 228.82 L 152.81 227.76 C 152.75 226.88 151.99 226.21 151.11 226.27 C 150.23 226.33 149.56 227.09 149.62 227.98 Z M 149.70 229.04 L 149.77 230.08 C 149.83 230.95 150.59 231.62 151.47 231.55 C 152.35 231.49 153.01 230.73 152.95 229.85 L 152.88 228.82 C 152.82 227.94 152.06 227.28 151.18 227.34 C 150.30 227.40 149.64 228.16 149.70 229.04 Z M 149.77 230.08 L 149.85 231.08 C 149.91 231.96 150.67 232.62 151.55 232.56 C 152.42 232.49 153.08 231.73 153.02 230.86 L 152.95 229.85 C 152.88 228.97 152.12 228.32 151.25 228.38 C 150.37 228.44 149.71 229.20 149.77 230.08 Z M 149.85 231.09 L 149.92 232.07 C 149.99 232.94 150.75 233.60 151.62 233.54 C 152.49 233.47 153.15 232.71 153.08 231.84 L 153.01 230.85 C 152.95 229.98 152.19 229.33 151.32 229.39 C 150.44 229.45 149.79 230.21 149.85 231.09 Z M 149.93 232.07 L 150.00 233.04 C 150.07 233.91 150.82 234.56 151.69 234.50 C 152.56 234.43 153.22 233.67 153.15 232.80 L 153.08 231.84 C 153.01 230.97 152.26 230.31 151.39 230.38 C 150.52 230.44 149.86 231.20 149.93 232.07 Z M 150.01 233.04 L 150.08 233.99 C 150.14 234.86 150.90 235.51 151.77 235.44 C 152.63 235.38 153.28 234.62 153.22 233.75 L 153.15 232.80 C 153.08 231.93 152.32 231.28 151.46 231.35 C 150.59 231.42 149.94 232.17 150.01 233.04 Z M 150.08 233.99 L 150.16 234.94 C 150.22 235.80 150.98 236.45 151.84 236.38 C 152.70 236.32 153.35 235.56 153.29 234.70 L 153.21 233.75 C 153.15 232.89 152.39 232.24 151.53 232.31 C 150.66 232.37 150.02 233.13 150.08 233.99 Z M 150.16 234.94 L 150.23 235.88 C 150.30 236.74 151.05 237.38 151.91 237.32 C 152.77 237.25 153.42 236.50 153.35 235.64 L 153.28 234.70 C 153.21 233.84 152.46 233.19 151.60 233.26 C 150.74 233.32 150.09 234.08 150.16 234.94 Z M 150.24 235.88 L 150.25 236.03 C 150.31 236.89 151.06 237.54 151.92 237.47 C 152.78 237.41 153.43 236.65 153.36 235.79 L 153.35 235.64 C 153.28 234.78 152.53 234.13 151.67 234.20 C 150.81 234.26 150.17 235.02 150.24 235.88 Z"
      fill="black"
      fill-rule="nonzero" /></svg>