<svg xmlns="http://www.w3.org/2000/svg" width="300" height="300" viewBox="0 0 300 300">
<path d="M 60.63 210.34 L 60.05 211.51 C 59.62 212.37 59.97 213.40 60.82 213.83 C 61.67 214.25 62.71 213.91 63.14 213.05 L 63.72 211.88 C 64.15 211.03 63.80 209.99 62.95 209.56 C 62.10 209.14 61.06 209.48 60.63 210.34 Z M 60.04 211.52 L 59.47 212.67 C 59.04 213.53 59.40 214.57 60.25 214.99 C 61.11 215.41 62.15 215.06 62.57 214.21 L 63.14 213.05 C 63.57 212.19 63.21 211.15 62.36 210.73 C 61.50 210.31 60.46 210.66 60.04 211.52 Z M 59.46 212.68 L 58.92 213.81 C 58.50 214.67 58.86 215.71 59.72 216.12 C 60.58 216.54 61.62 216.18 62.04 215.32 L 62.58 214.19 C 63.00 213.33 62.64 212.29 61.77 211.88 C 60.91 211.46 59.88 211.82 59.46 212.68 Z M 58.90 213.83 L 58.40 214.90 C 58.00 215.77 58.37 216.80 59.24 217.21 C 60.11 217.62 61.15 217.24 61.55 216.37 L 62.05 215.30 C 62.46 214.43 62.08 213.39 61.21 212.99 C 60.34 212.58 59.31 212.96 58.90 213.83 Z M 58.38 214.93 L 57.94 215.93 C 57.55 216.81 57.95 217.84 58.83 218.23 C 59.71 218.62 60.74 218.22 61.13 217.34 L 61.57 216.34 C 61.96 215.46 61.56 214.43 60.68 214.04 C 59.80 213.65 58.77 214.05 58.38 214.93 Z M 57.92 215.98 L 57.55 216.90 C 57.19 217.80 57.62 218.81 58.51 219.17 C 59.41 219.54 60.43 219.10 60.79 218.21 L 61.16 217.29 C 61.52 216.39 61.08 215.38 60.19 215.02 C 59.29 214.66 58.28 215.09 57.92 215.98 Z M 57.51 216.98 L 57.23 217.80 C 56.91 218.71 57.39 219.71 58.31 220.02 C 59.22 220.34 60.22 219.86 60.54 218.95 L 60.82 218.13 C 61.14 217.22 60.65 216.22 59.74 215.90 C 58.83 215.58 57.83 216.07 57.51 216.98 Z M 57.19 217.92 L 57.00 218.62 C 56.76 219.56 57.32 220.52 58.25 220.76 C 59.19 221.01 60.15 220.45 60.40 219.51 L 60.58 218.82 C 60.83 217.88 60.27 216.92 59.33 216.67 C 58.39 216.43 57.43 216.99 57.19 217.92 Z M 56.95 218.86 L 56.89 219.42 C 56.77 220.38 57.46 221.26 58.42 221.37 C 59.38 221.49 60.26 220.80 60.38 219.84 L 60.45 219.28 C 60.56 218.31 59.87 217.44 58.91 217.32 C 57.95 217.20 57.07 217.89 56.95 218.86 Z M 56.90 219.97 L 57.00 220.45 C 57.19 221.40 58.12 222.02 59.07 221.83 C 60.02 221.64 60.64 220.72 60.45 219.76 L 60.36 219.28 C 60.17 218.33 59.24 217.71 58.29 217.90 C 57.33 218.09 56.71 219.02 56.90 219.97 Z M 57.72 221.55 L 58.10 221.82 C 58.90 222.38 60.00 222.18 60.56 221.38 C 61.11 220.59 60.92 219.49 60.12 218.93 L 59.74 218.66 C 58.94 218.10 57.84 218.30 57.28 219.10 C 56.72 219.89 56.92 220.99 57.72 221.55 Z M 59.26 222.13 L 59.90 222.08 C 60.87 222.00 61.59 221.15 61.51 220.18 C 61.43 219.21 60.58 218.49 59.61 218.57 L 58.97 218.62 C 58.00 218.70 57.28 219.55 57.36 220.52 C 57.44 221.49 58.29 222.21 59.26 222.13 Z M 60.40 221.96 L 61.24 221.63 C 62.15 221.27 62.59 220.24 62.23 219.34 C 61.88 218.43 60.85 217.99 59.95 218.35 L 59.10 218.68 C 58.20 219.04 57.75 220.07 58.11 220.97 C 58.47 221.88 59.49 222.32 60.40 221.96 Z M 61.47 221.52 L 62.48 220.94 C 63.32 220.46 63.61 219.38 63.13 218.54 C 62.64 217.69 61.57 217.40 60.72 217.88 L 59.72 218.46 C 58.87 218.94 58.58 220.02 59.07 220.87 C 59.55 221.71 60.63 222.00 61.47 221.52 Z M 62.61 220.86 L 63.72 220.08 C 64.52 219.53 64.72 218.43 64.16 217.63 C 63.60 216.83 62.51 216.63 61.71 217.19 L 60.59 217.97 C 59.79 218.52 59.60 219.62 60.15 220.42 C 60.71 221.22 61.81 221.42 62.61 220.86 Z M 63.81 220.02 L 64.89 219.16 C 65.66 218.56 65.79 217.45 65.18 216.69 C 64.58 215.92 63.47 215.79 62.71 216.40 L 61.62 217.25 C 60.86 217.86 60.73 218.97 61.33 219.73 C 61.93 220.49 63.04 220.62 63.81 220.02 Z M 64.95 219.12 L 65.66 218.50 C 66.40 217.87 66.49 216.76 65.85 216.02 C 65.22 215.28 64.11 215.19 63.37 215.83 L 62.65 216.44 C 61.91 217.07 61.83 218.19 62.46 218.92 C 63.10 219.66 64.21 219.75 64.95 219.12 Z M 65.69 218.47 L 66.41 217.82 C 67.14 217.17 67.19 216.06 66.54 215.34 C 65.89 214.61 64.78 214.56 64.05 215.21 L 63.33 215.86 C 62.61 216.51 62.55 217.62 63.21 218.35 C 63.86 219.07 64.97 219.13 65.69 218.47 Z M 66.44 217.80 L 67.17 217.11 C 67.87 216.45 67.90 215.33 67.24 214.63 C 66.57 213.92 65.46 213.89 64.75 214.55 L 64.03 215.24 C 63.32 215.90 63.29 217.02 63.95 217.72 C 64.62 218.43 65.74 218.46 66.44 217.80 Z M 67.19 217.09 L 67.91 216.38 C 68.61 215.70 68.62 214.59 67.94 213.89 C 67.26 213.20 66.14 213.19 65.45 213.87 L 64.72 214.58 C 64.03 215.26 64.02 216.37 64.70 217.07 C 65.38 217.76 66.49 217.77 67.19 217.09 Z M 67.93 216.36 L 68.65 215.64 C 69.33 214.94 69.33 213.83 68.64 213.15 C 67.94 212.46 66.83 212.47 66.15 213.16 L 65.43 213.89 C 64.74 214.58 64.75 215.69 65.44 216.38 C 66.13 217.06 67.25 217.05 67.93 216.36 Z M 68.67 215.62 L 69.38 214.88 C 70.05 214.18 70.03 213.06 69.33 212.39 C 68.63 211.72 67.52 211.74 66.85 212.44 L 66.13 213.18 C 65.46 213.88 65.48 214.99 66.18 215.67 C 66.88 216.34 67.99 216.32 68.67 215.62 Z M 69.39 214.86 L 70.10 214.11 C 70.76 213.40 70.73 212.29 70.02 211.63 C 69.32 210.96 68.20 210.99 67.54 211.70 L 66.83 212.45 C 66.17 213.16 66.20 214.27 66.91 214.94 C 67.62 215.60 68.73 215.57 69.39 214.86 Z M 70.11 214.10 L 70.80 213.35 C 71.46 212.63 71.42 211.52 70.70 210.86 C 69.99 210.21 68.88 210.25 68.22 210.96 L 67.53 211.71 C 66.87 212.43 66.91 213.54 67.63 214.20 C 68.34 214.86 69.45 214.81 70.11 214.10 Z M 70.81 213.34 L 71.49 212.59 C 72.14 211.87 72.09 210.76 71.37 210.11 C 70.65 209.46 69.54 209.51 68.89 210.23 L 68.21 210.97 C 67.56 211.69 67.61 212.80 68.33 213.46 C 69.05 214.11 70.16 214.06 70.81 213.34 Z M 71.50 212.58 L 72.16 211.85 C 72.81 211.12 72.75 210.01 72.03 209.36 C 71.30 208.72 70.19 208.78 69.54 209.50 L 68.88 210.23 C 68.23 210.96 68.29 212.07 69.02 212.72 C 69.74 213.36 70.85 213.30 71.50 212.58 Z M 72.16 211.84 L 72.82 211.11 C 73.46 210.38 73.40 209.27 72.67 208.63 C 71.95 207.98 70.84 208.05 70.19 208.77 L 69.54 209.50 C 68.90 210.23 68.96 211.34 69.68 211.98 C 70.41 212.63 71.52 212.56 72.16 211.84 Z M 72.82 211.10 L 73.46 210.37 C 74.10 209.65 74.03 208.54 73.31 207.90 C 72.58 207.26 71.47 207.32 70.83 208.05 L 70.19 208.78 C 69.55 209.50 69.62 210.61 70.34 211.25 C 71.07 211.90 72.18 211.83 72.82 211.10 Z M 73.47 210.37 L 74.09 209.65 C 74.73 208.92 74.66 207.81 73.93 207.17 C 73.20 206.54 72.09 206.61 71.45 207.34 L 70.82 208.06 C 70.18 208.79 70.26 209.90 70.99 210.53 C 71.72 211.17 72.83 211.10 73.47 210.37 Z M 74.10 209.64 L 74.72 208.93 C 75.35 208.19 75.27 207.09 74.54 206.45 C 73.80 205.82 72.70 205.90 72.06 206.63 L 71.44 207.35 C 70.81 208.08 70.89 209.19 71.62 209.82 C 72.36 210.46 73.46 210.38 74.10 209.64 Z M 74.72 208.92 L 75.34 208.20 C 75.97 207.46 75.88 206.35 75.15 205.72 C 74.41 205.09 73.30 205.18 72.68 205.92 L 72.06 206.64 C 71.43 207.38 71.51 208.48 72.25 209.11 C 72.99 209.74 74.09 209.66 74.72 208.92 Z M 75.35 208.19 L 75.97 207.45 C 76.59 206.71 76.50 205.61 75.76 204.98 C 75.02 204.36 73.92 204.45 73.29 205.19 L 72.67 205.92 C 72.04 206.66 72.14 207.77 72.88 208.40 C 73.62 209.02 74.72 208.93 75.35 208.19 Z M 75.97 207.45 L 76.61 206.69 C 77.23 205.95 77.13 204.84 76.39 204.22 C 75.64 203.60 74.54 203.70 73.92 204.44 L 73.29 205.20 C 72.66 205.94 72.76 207.04 73.51 207.67 C 74.25 208.29 75.35 208.19 75.97 207.45 Z M 76.61 206.68 L 77.26 205.90 C 77.87 205.16 77.77 204.05 77.02 203.43 C 76.28 202.82 75.17 202.92 74.56 203.67 L 73.91 204.45 C 73.29 205.20 73.40 206.30 74.14 206.92 C 74.89 207.53 76.00 207.43 76.61 206.68 Z M 77.26 205.89 L 77.93 205.08 C 78.54 204.33 78.43 203.23 77.68 202.61 C 76.94 202.00 75.83 202.11 75.22 202.86 L 74.55 203.68 C 73.94 204.42 74.05 205.53 74.80 206.14 C 75.55 206.75 76.65 206.64 77.26 205.89 Z M 77.93 205.07 L 78.63 204.22 C 79.24 203.47 79.12 202.36 78.37 201.76 C 77.62 201.15 76.52 201.26 75.91 202.01 L 75.21 202.87 C 74.61 203.62 74.72 204.72 75.47 205.33 C 76.22 205.94 77.33 205.82 77.93 205.07 Z M 78.63 204.21 L 79.29 203.40 C 79.89 202.64 79.77 201.54 79.02 200.93 C 78.27 200.33 77.17 200.45 76.56 201.20 L 75.90 202.02 C 75.30 202.77 75.42 203.87 76.17 204.48 C 76.92 205.09 78.03 204.97 78.63 204.21 Z M 79.29 203.39 L 79.89 202.65 C 80.49 201.89 80.37 200.79 79.61 200.19 C 78.86 199.58 77.76 199.71 77.15 200.46 L 76.56 201.21 C 75.95 201.96 76.08 203.06 76.83 203.67 C 77.59 204.27 78.69 204.15 79.29 203.39 Z M 79.89 202.64 L 80.50 201.87 C 81.10 201.11 80.98 200.01 80.22 199.41 C 79.46 198.81 78.36 198.94 77.76 199.69 L 77.15 200.46 C 76.55 201.22 76.67 202.32 77.43 202.92 C 78.19 203.52 79.29 203.40 79.89 202.64 Z M 80.51 201.87 L 81.13 201.08 C 81.73 200.32 81.60 199.22 80.84 198.62 C 80.08 198.02 78.98 198.15 78.38 198.91 L 77.76 199.70 C 77.16 200.46 77.29 201.56 78.05 202.16 C 78.81 202.75 79.91 202.63 80.51 201.87 Z M 81.13 201.07 L 81.77 200.27 C 82.36 199.50 82.23 198.40 81.47 197.81 C 80.71 197.21 79.61 197.34 79.01 198.10 L 78.38 198.91 C 77.78 199.67 77.92 200.77 78.68 201.37 C 79.44 201.96 80.54 201.83 81.13 201.07 Z M 81.77 200.26 L 82.41 199.44 C 83.00 198.68 82.87 197.58 82.11 196.99 C 81.34 196.39 80.24 196.53 79.65 197.29 L 79.01 198.11 C 78.42 198.87 78.55 199.97 79.31 200.56 C 80.08 201.16 81.18 201.02 81.77 200.26 Z M 82.41 199.44 L 83.05 198.62 C 83.64 197.85 83.51 196.75 82.74 196.16 C 81.98 195.57 80.88 195.71 80.29 196.47 L 79.65 197.29 C 79.05 198.06 79.19 199.16 79.96 199.75 C 80.72 200.34 81.82 200.20 82.41 199.44 Z M 83.05 198.61 L 83.69 197.79 C 84.28 197.02 84.14 195.92 83.37 195.33 C 82.61 194.74 81.51 194.88 80.92 195.65 L 80.28 196.47 C 79.69 197.24 79.83 198.34 80.60 198.93 C 81.36 199.52 82.46 199.38 83.05 198.61 Z M 83.69 197.79 L 84.32 196.97 C 84.91 196.20 84.77 195.10 84.00 194.51 C 83.23 193.92 82.13 194.07 81.54 194.83 L 80.92 195.65 C 80.33 196.42 80.47 197.52 81.24 198.11 C 82.01 198.70 83.11 198.55 83.69 197.79 Z M 84.33 196.96 L 84.95 196.15 C 85.53 195.38 85.38 194.28 84.61 193.70 C 83.84 193.11 82.75 193.26 82.16 194.03 L 81.54 194.84 C 80.96 195.61 81.10 196.71 81.87 197.29 C 82.64 197.88 83.74 197.73 84.33 196.96 Z M 84.95 196.14 L 85.55 195.35 C 86.14 194.57 85.98 193.48 85.21 192.89 C 84.44 192.31 83.34 192.46 82.76 193.23 L 82.16 194.03 C 81.57 194.80 81.72 195.90 82.50 196.48 C 83.27 197.07 84.37 196.92 84.95 196.14 Z M 85.56 195.34 L 86.14 194.56 C 86.72 193.79 86.57 192.69 85.79 192.11 C 85.02 191.53 83.92 191.68 83.34 192.46 L 82.76 193.24 C 82.18 194.01 82.33 195.11 83.11 195.69 C 83.88 196.27 84.98 196.11 85.56 195.34 Z M 86.15 194.55 L 86.71 193.80 C 87.29 193.02 87.13 191.92 86.35 191.35 C 85.57 190.77 84.48 190.93 83.90 191.71 L 83.34 192.46 C 82.76 193.24 82.92 194.34 83.70 194.91 C 84.47 195.49 85.57 195.33 86.15 194.55 Z M 86.72 193.79 L 87.36 192.91 C 87.93 192.13 87.77 191.04 86.99 190.46 C 86.21 189.89 85.11 190.06 84.54 190.84 L 83.89 191.71 C 83.32 192.49 83.49 193.59 84.27 194.16 C 85.05 194.74 86.14 194.57 86.72 193.79 Z M 87.37 192.90 L 88.06 191.96 C 88.62 191.17 88.45 190.08 87.66 189.51 C 86.88 188.94 85.78 189.12 85.22 189.90 L 84.53 190.85 C 83.96 191.63 84.14 192.73 84.92 193.30 C 85.71 193.86 86.80 193.69 87.37 192.90 Z M 88.07 191.94 L 88.71 191.04 C 89.27 190.25 89.08 189.16 88.29 188.60 C 87.50 188.03 86.41 188.22 85.85 189.01 L 85.21 189.91 C 84.65 190.70 84.83 191.80 85.62 192.36 C 86.41 192.92 87.51 192.73 88.07 191.94 Z M 88.72 191.03 L 89.32 190.17 C 89.87 189.37 89.67 188.27 88.88 187.72 C 88.08 187.17 86.98 187.37 86.43 188.16 L 85.83 189.03 C 85.28 189.82 85.48 190.92 86.28 191.47 C 87.07 192.02 88.17 191.82 88.72 191.03 Z M 89.33 190.15 L 89.89 189.32 C 90.43 188.52 90.22 187.42 89.42 186.88 C 88.61 186.34 87.52 186.55 86.98 187.35 L 86.42 188.18 C 85.88 188.98 86.09 190.08 86.89 190.62 C 87.70 191.16 88.79 190.95 89.33 190.15 Z M 89.91 189.30 L 90.43 188.50 C 90.96 187.69 90.74 186.60 89.92 186.06 C 89.11 185.53 88.02 185.76 87.49 186.57 L 86.96 187.37 C 86.43 188.18 86.66 189.27 87.47 189.81 C 88.28 190.34 89.37 190.11 89.91 189.30 Z M 90.45 188.48 L 90.94 187.70 C 91.46 186.88 91.22 185.79 90.40 185.27 C 89.58 184.75 88.49 184.99 87.97 185.81 L 87.47 186.59 C 86.95 187.41 87.20 188.50 88.02 189.02 C 88.84 189.54 89.93 189.30 90.45 188.48 Z M 90.96 187.67 L 91.43 186.91 C 91.93 186.08 91.67 184.99 90.84 184.49 C 90.01 183.98 88.93 184.24 88.42 185.07 L 87.95 185.83 C 87.44 186.67 87.70 187.75 88.53 188.26 C 89.37 188.77 90.45 188.50 90.96 187.67 Z M 91.44 186.88 L 91.89 186.13 C 92.38 185.29 92.10 184.21 91.26 183.71 C 90.43 183.22 89.34 183.50 88.85 184.34 L 88.40 185.09 C 87.91 185.93 88.19 187.01 89.03 187.51 C 89.87 188.00 90.95 187.72 91.44 186.88 Z M 91.91 186.10 L 92.37 185.27 C 92.85 184.42 92.55 183.34 91.71 182.87 C 90.86 182.39 89.78 182.69 89.30 183.53 L 88.83 184.36 C 88.35 185.21 88.65 186.29 89.50 186.77 C 90.35 187.25 91.43 186.95 91.91 186.10 Z M 92.39 185.25 L 93.04 184.06 C 93.51 183.20 93.19 182.13 92.33 181.66 C 91.47 181.19 90.40 181.51 89.93 182.37 L 89.28 183.56 C 88.82 184.42 89.13 185.49 89.99 185.96 C 90.85 186.42 91.93 186.11 92.39 185.25 Z M 93.04 184.07 L 93.65 182.96 C 94.12 182.10 93.80 181.02 92.94 180.55 C 92.08 180.08 91.00 180.39 90.53 181.25 L 89.93 182.36 C 89.45 183.22 89.77 184.30 90.63 184.77 C 91.49 185.24 92.57 184.93 93.04 184.07 Z M 93.62 183.03 L 94.18 182.08 C 94.69 181.24 94.42 180.15 93.57 179.64 C 92.73 179.13 91.63 179.41 91.13 180.25 L 90.56 181.19 C 90.06 182.04 90.33 183.13 91.17 183.64 C 92.02 184.14 93.11 183.87 93.62 183.03 Z M 94.09 182.24 L 94.61 181.54 C 95.20 180.75 95.04 179.63 94.25 179.04 C 93.46 178.45 92.34 178.61 91.75 179.40 L 91.22 180.10 C 90.63 180.89 90.79 182.01 91.58 182.60 C 92.37 183.19 93.49 183.03 94.09 182.24 Z M 94.28 181.88 L 94.76 181.51 C 95.54 180.90 95.68 179.77 95.07 178.99 C 94.46 178.21 93.33 178.07 92.55 178.68 L 92.07 179.06 C 91.29 179.67 91.15 180.79 91.76 181.58 C 92.38 182.36 93.50 182.49 94.28 181.88 Z M 93.56 181.89 L 93.98 181.91 C 94.97 181.97 95.82 181.20 95.87 180.21 C 95.92 179.22 95.16 178.37 94.17 178.32 L 93.75 178.30 C 92.76 178.25 91.91 179.01 91.86 180.00 C 91.81 180.99 92.57 181.84 93.56 181.89 Z M 92.75 181.34 L 93.09 181.71 C 93.76 182.44 94.90 182.48 95.64 181.81 C 96.37 181.13 96.41 179.99 95.74 179.26 L 95.40 178.90 C 94.72 178.16 93.58 178.12 92.85 178.79 C 92.12 179.47 92.07 180.61 92.75 181.34 Z M 92.79 181.26 L 93.10 181.92 C 93.53 182.82 94.61 183.20 95.50 182.77 C 96.40 182.34 96.78 181.26 96.35 180.36 L 96.04 179.71 C 95.61 178.81 94.53 178.43 93.64 178.86 C 92.74 179.29 92.36 180.37 92.79 181.26 Z M 93.02 181.71 L 93.31 182.60 C 93.62 183.54 94.64 184.06 95.59 183.74 C 96.53 183.43 97.04 182.41 96.73 181.47 L 96.44 180.58 C 96.13 179.63 95.11 179.12 94.16 179.43 C 93.22 179.74 92.70 180.76 93.02 181.71 Z M 93.28 182.49 L 93.56 183.57 C 93.81 184.53 94.80 185.11 95.76 184.85 C 96.72 184.60 97.30 183.62 97.05 182.65 L 96.76 181.58 C 96.51 180.61 95.53 180.04 94.56 180.29 C 93.60 180.54 93.03 181.53 93.28 182.49 Z M 93.55 183.51 L 93.83 184.73 C 94.05 185.70 95.01 186.30 95.98 186.08 C 96.95 185.86 97.56 184.89 97.34 183.92 L 97.06 182.71 C 96.84 181.74 95.87 181.13 94.90 181.35 C 93.93 181.58 93.32 182.54 93.55 183.51 Z M 93.82 184.71 L 94.10 186.00 C 94.31 186.98 95.27 187.60 96.24 187.38 C 97.22 187.17 97.83 186.22 97.62 185.24 L 97.34 183.94 C 97.13 182.97 96.17 182.35 95.20 182.56 C 94.23 182.77 93.61 183.73 93.82 184.71 Z M 94.10 186.01 L 94.36 187.19 C 94.57 188.16 95.53 188.78 96.50 188.56 C 97.47 188.35 98.09 187.39 97.88 186.42 L 97.62 185.24 C 97.41 184.27 96.45 183.65 95.48 183.86 C 94.51 184.07 93.89 185.03 94.10 186.01 Z M 94.36 187.20 L 94.58 188.19 C 94.80 189.16 95.77 189.77 96.74 189.56 C 97.71 189.34 98.32 188.37 98.10 187.40 L 97.88 186.41 C 97.66 185.44 96.70 184.83 95.72 185.05 C 94.75 185.26 94.14 186.23 94.36 187.20 Z M 94.59 188.20 L 94.81 189.20 C 95.04 190.17 96.00 190.77 96.97 190.55 C 97.94 190.33 98.55 189.36 98.33 188.39 L 98.10 187.39 C 97.88 186.42 96.91 185.82 95.94 186.04 C 94.97 186.26 94.36 187.23 94.59 188.20 Z M 94.82 189.20 L 95.05 190.19 C 95.27 191.16 96.24 191.77 97.21 191.54 C 98.18 191.31 98.78 190.34 98.56 189.37 L 98.32 188.38 C 98.10 187.41 97.13 186.81 96.16 187.04 C 95.19 187.26 94.59 188.23 94.82 189.20 Z M 95.05 190.20 L 95.28 191.19 C 95.51 192.15 96.48 192.75 97.45 192.52 C 98.42 192.29 99.02 191.32 98.79 190.36 L 98.56 189.37 C 98.33 188.40 97.36 187.80 96.39 188.03 C 95.42 188.26 94.82 189.23 95.05 190.20 Z M 95.28 191.19 L 95.52 192.17 C 95.75 193.14 96.72 193.73 97.69 193.50 C 98.66 193.27 99.25 192.30 99.02 191.33 L 98.79 190.35 C 98.56 189.38 97.59 188.79 96.62 189.02 C 95.65 189.25 95.05 190.22 95.28 191.19 Z M 95.52 192.17 L 95.75 193.14 C 95.98 194.11 96.96 194.70 97.92 194.47 C 98.89 194.24 99.49 193.27 99.26 192.30 L 99.02 191.33 C 98.79 190.36 97.82 189.77 96.85 190.00 C 95.88 190.23 95.29 191.20 95.52 192.17 Z M 95.75 193.14 L 95.98 194.10 C 96.21 195.06 97.19 195.66 98.15 195.43 C 99.12 195.20 99.72 194.22 99.48 193.26 L 99.26 192.30 C 99.02 191.33 98.05 190.74 97.08 190.97 C 96.12 191.20 95.52 192.17 95.75 193.14 Z M 95.98 194.09 L 96.20 195.04 C 96.44 196.00 97.41 196.60 98.38 196.37 C 99.34 196.14 99.94 195.17 99.71 194.20 L 99.49 193.26 C 99.25 192.29 98.28 191.69 97.31 191.92 C 96.35 192.15 95.75 193.13 95.98 194.09 Z M 96.20 195.03 L 96.43 195.98 C 96.66 196.95 97.63 197.55 98.60 197.32 C 99.56 197.10 100.16 196.13 99.94 195.16 L 99.71 194.20 C 99.48 193.24 98.51 192.64 97.54 192.86 C 96.58 193.09 95.98 194.06 96.20 195.03 Z M 96.43 195.98 L 96.66 196.99 C 96.89 197.95 97.85 198.56 98.82 198.33 C 99.79 198.11 100.40 197.14 100.17 196.17 L 99.94 195.16 C 99.71 194.19 98.74 193.59 97.77 193.82 C 96.81 194.04 96.20 195.01 96.43 195.98 Z M 96.66 196.98 L 96.88 197.97 C 97.10 198.94 98.07 199.54 99.04 199.32 C 100.01 199.10 100.62 198.14 100.40 197.17 L 100.17 196.18 C 99.95 195.21 98.99 194.60 98.02 194.82 C 97.05 195.04 96.44 196.01 96.66 196.98 Z M 96.88 197.96 L 97.10 198.93 C 97.31 199.90 98.28 200.52 99.25 200.30 C 100.22 200.09 100.83 199.12 100.62 198.15 L 100.40 197.18 C 100.18 196.21 99.22 195.59 98.25 195.81 C 97.28 196.02 96.67 196.99 96.88 197.96 Z M 97.10 198.92 L 97.30 199.89 C 97.51 200.86 98.47 201.48 99.45 201.27 C 100.42 201.06 101.04 200.10 100.83 199.13 L 100.62 198.16 C 100.41 197.19 99.45 196.57 98.48 196.78 C 97.50 196.99 96.89 197.95 97.10 198.92 Z M 97.30 199.88 L 97.50 200.84 C 97.71 201.82 98.66 202.44 99.64 202.24 C 100.61 202.03 101.23 201.08 101.03 200.10 L 100.83 199.14 C 100.63 198.17 99.67 197.54 98.70 197.75 C 97.72 197.95 97.10 198.90 97.30 199.88 Z M 97.50 200.83 L 97.70 201.79 C 97.89 202.77 98.84 203.40 99.82 203.20 C 100.79 203.00 101.42 202.05 101.23 201.08 L 101.03 200.12 C 100.84 199.14 99.89 198.51 98.91 198.71 C 97.93 198.90 97.30 199.85 97.50 200.83 Z M 97.69 201.78 L 97.88 202.75 C 98.07 203.73 99.02 204.36 99.99 204.17 C 100.97 203.98 101.61 203.04 101.42 202.06 L 101.23 201.09 C 101.04 200.11 100.09 199.48 99.12 199.67 C 98.14 199.86 97.50 200.80 97.69 201.78 Z M 97.88 202.74 L 98.06 203.71 C 98.24 204.68 99.19 205.33 100.16 205.15 C 101.14 204.96 101.79 204.02 101.60 203.04 L 101.42 202.07 C 101.24 201.09 100.30 200.45 99.32 200.63 C 98.34 200.82 97.70 201.76 97.88 202.74 Z M 98.06 203.69 L 98.21 204.51 C 98.38 205.49 99.32 206.14 100.30 205.96 C 101.28 205.79 101.93 204.85 101.75 203.87 L 101.61 203.06 C 101.43 202.08 100.49 201.43 99.51 201.60 C 98.53 201.78 97.88 202.72 98.06 203.69 Z M 98.20 204.50 L 98.35 205.33 C 98.52 206.31 99.45 206.97 100.43 206.80 C 101.41 206.63 102.07 205.69 101.90 204.71 L 101.75 203.88 C 101.58 202.90 100.65 202.24 99.67 202.41 C 98.69 202.58 98.03 203.52 98.20 204.50 Z M 98.35 205.32 L 98.49 206.18 C 98.65 207.16 99.58 207.82 100.56 207.66 C 101.54 207.49 102.21 206.57 102.04 205.58 L 101.90 204.73 C 101.74 203.74 100.81 203.08 99.83 203.24 C 98.85 203.41 98.18 204.34 98.35 205.32 Z M 98.49 206.17 L 98.63 207.06 C 98.79 208.04 99.71 208.71 100.69 208.55 C 101.68 208.39 102.35 207.47 102.19 206.49 L 102.05 205.60 C 101.89 204.61 100.96 203.94 99.98 204.10 C 99.00 204.26 98.33 205.18 98.49 206.17 Z M 98.63 207.05 L 98.77 207.98 C 98.92 208.96 99.84 209.64 100.83 209.49 C 101.81 209.34 102.48 208.42 102.33 207.43 L 102.19 206.50 C 102.04 205.52 101.12 204.84 100.14 204.99 C 99.15 205.14 98.48 206.06 98.63 207.05 Z M 98.77 207.97 L 98.92 208.95 C 99.06 209.94 99.98 210.62 100.96 210.47 C 101.95 210.33 102.63 209.41 102.48 208.43 L 102.34 207.44 C 102.19 206.46 101.27 205.78 100.29 205.92 C 99.31 206.07 98.63 206.99 98.77 207.97 Z M 98.91 208.94 L 99.06 209.98 C 99.20 210.97 100.11 211.65 101.10 211.51 C 102.08 211.37 102.77 210.46 102.63 209.48 L 102.48 208.44 C 102.34 207.45 101.43 206.77 100.44 206.91 C 99.46 207.05 98.77 207.96 98.91 208.94 Z M 99.06 209.98 L 99.21 211.08 C 99.35 212.07 100.26 212.76 101.24 212.62 C 102.23 212.49 102.92 211.58 102.78 210.59 L 102.63 209.49 C 102.50 208.50 101.59 207.81 100.60 207.95 C 99.62 208.08 98.93 208.99 99.06 209.98 Z M 99.21 211.07 L 99.37 212.25 C 99.50 213.24 100.40 213.93 101.39 213.80 C 102.38 213.67 103.07 212.77 102.94 211.78 L 102.78 210.60 C 102.65 209.61 101.75 208.92 100.76 209.05 C 99.77 209.18 99.08 210.09 99.21 211.07 Z M 99.37 212.25 L 99.53 213.50 C 99.65 214.49 100.56 215.18 101.54 215.06 C 102.53 214.93 103.23 214.03 103.10 213.04 L 102.94 211.79 C 102.81 210.80 101.91 210.10 100.92 210.23 C 99.94 210.36 99.24 211.26 99.37 212.25 Z M 99.53 213.49 L 99.64 214.42 C 99.77 215.40 100.67 216.10 101.65 215.98 C 102.64 215.86 103.34 214.96 103.22 213.97 L 103.10 213.05 C 102.98 212.06 102.08 211.36 101.09 211.48 C 100.10 211.61 99.40 212.51 99.53 213.49 Z M 99.64 214.41 L 99.76 215.37 C 99.88 216.36 100.78 217.06 101.77 216.94 C 102.76 216.82 103.46 215.92 103.34 214.93 L 103.22 213.97 C 103.10 212.98 102.20 212.28 101.21 212.40 C 100.22 212.53 99.52 213.43 99.64 214.41 Z M 99.76 215.37 L 99.88 216.36 C 100.00 217.34 100.90 218.05 101.89 217.93 C 102.87 217.81 103.58 216.91 103.46 215.92 L 103.34 214.93 C 103.22 213.95 102.32 213.24 101.33 213.36 C 100.34 213.48 99.64 214.38 99.76 215.37 Z M 99.88 216.36 L 100.00 217.37 C 100.12 218.35 101.02 219.06 102.01 218.94 C 103.00 218.82 103.70 217.92 103.58 216.93 L 103.46 215.92 C 103.34 214.94 102.44 214.23 101.45 214.35 C 100.47 214.47 99.76 215.37 99.88 216.36 Z M 100.00 217.37 L 100.13 218.40 C 100.25 219.38 101.14 220.09 102.13 219.97 C 103.12 219.85 103.82 218.95 103.70 217.97 L 103.58 216.94 C 103.46 215.95 102.56 215.24 101.58 215.36 C 100.59 215.48 99.89 216.38 100.00 217.37 Z M 100.13 218.40 L 100.25 219.44 C 100.37 220.42 101.27 221.13 102.25 221.01 C 103.24 220.89 103.95 220.00 103.83 219.01 L 103.70 217.97 C 103.59 216.98 102.69 216.27 101.70 216.39 C 100.71 216.51 100.01 217.41 100.13 218.40 Z M 100.25 219.44 L 100.38 220.48 C 100.50 221.47 101.39 222.17 102.38 222.06 C 103.37 221.94 104.07 221.04 103.95 220.05 L 103.83 219.01 C 103.71 218.02 102.81 217.32 101.83 217.43 C 100.84 217.55 100.13 218.45 100.25 219.44 Z M 100.38 220.48 L 100.50 221.53 C 100.62 222.52 101.52 223.22 102.51 223.10 C 103.49 222.98 104.20 222.09 104.08 221.10 L 103.95 220.05 C 103.84 219.07 102.94 218.36 101.95 218.48 C 100.96 218.60 100.26 219.50 100.38 220.48 Z M 100.50 221.53 L 100.63 222.57 C 100.75 223.56 101.64 224.26 102.63 224.14 C 103.62 224.02 104.32 223.12 104.20 222.14 L 104.08 221.10 C 103.96 220.11 103.06 219.41 102.08 219.53 C 101.09 219.65 100.38 220.54 100.50 221.53 Z M 100.63 222.57 L 100.75 223.60 C 100.87 224.58 101.77 225.29 102.76 225.17 C 103.74 225.05 104.45 224.15 104.33 223.16 L 104.20 222.14 C 104.08 221.15 103.19 220.45 102.20 220.57 C 101.21 220.69 100.51 221.58 100.63 222.57 Z M 100.75 223.60 L 100.88 224.60 C 101.00 225.59 101.90 226.29 102.88 226.17 C 103.87 226.05 104.57 225.15 104.45 224.17 L 104.33 223.16 C 104.21 222.17 103.31 221.47 102.32 221.59 C 101.34 221.71 100.63 222.61 100.75 223.60 Z M 100.88 224.61 L 101.00 225.59 C 101.12 226.57 102.02 227.27 103.01 227.15 C 103.99 227.03 104.69 226.13 104.57 225.14 L 104.45 224.16 C 104.33 223.18 103.43 222.48 102.44 222.60 C 101.46 222.72 100.76 223.62 100.88 224.61 Z M 101.00 225.59 L 101.12 226.54 C 101.24 227.52 102.14 228.22 103.13 228.10 C 104.12 227.97 104.81 227.07 104.69 226.09 L 104.57 225.14 C 104.45 224.15 103.55 223.45 102.56 223.58 C 101.57 223.70 100.88 224.60 101.00 225.59 Z M 101.12 226.54 L 101.24 227.45 C 101.36 228.44 102.27 229.13 103.25 229.01 C 104.24 228.88 104.93 227.98 104.81 226.99 L 104.69 226.08 C 104.56 225.10 103.66 224.40 102.68 224.53 C 101.69 224.65 100.99 225.56 101.12 226.54 Z M 101.24 227.46 L 101.38 228.56 C 101.51 229.54 102.42 230.23 103.40 230.10 C 104.39 229.97 105.08 229.07 104.95 228.08 L 104.81 226.99 C 104.68 226.00 103.77 225.31 102.79 225.44 C 101.80 225.57 101.11 226.47 101.24 227.46 Z M 101.38 228.57 L 101.55 229.79 C 101.69 230.77 102.60 231.46 103.58 231.33 C 104.57 231.19 105.25 230.28 105.12 229.30 L 104.95 228.07 C 104.81 227.09 103.91 226.40 102.92 226.54 C 101.94 226.67 101.25 227.58 101.38 228.57 Z M 101.55 229.80 L 101.72 230.93 C 101.86 231.91 102.77 232.60 103.76 232.45 C 104.74 232.31 105.42 231.40 105.28 230.41 L 105.12 229.28 C 104.97 228.30 104.06 227.62 103.08 227.76 C 102.09 227.90 101.41 228.82 101.55 229.80 Z M 101.72 230.95 L 101.88 232.00 C 102.03 232.98 102.95 233.65 103.93 233.50 C 104.92 233.35 105.59 232.43 105.44 231.45 L 105.28 230.40 C 105.13 229.42 104.21 228.74 103.23 228.90 C 102.24 229.05 101.57 229.96 101.72 230.95 Z M 101.89 232.01 L 102.05 233.00 C 102.21 233.98 103.13 234.64 104.11 234.48 C 105.09 234.32 105.76 233.39 105.60 232.41 L 105.44 231.43 C 105.28 230.45 104.35 229.79 103.37 229.95 C 102.39 230.11 101.72 231.03 101.89 232.01 Z M 102.05 233.02 L 102.21 233.94 C 102.38 234.92 103.32 235.57 104.30 235.40 C 105.27 235.23 105.93 234.30 105.76 233.32 L 105.59 232.39 C 105.42 231.42 104.49 230.76 103.51 230.93 C 102.53 231.10 101.88 232.04 102.05 233.02 Z M 102.22 233.96 L 102.38 234.84 C 102.57 235.82 103.51 236.46 104.48 236.28 C 105.46 236.10 106.10 235.15 105.92 234.18 L 105.75 233.30 C 105.57 232.32 104.63 231.68 103.65 231.86 C 102.68 232.05 102.03 232.99 102.22 233.96 Z M 102.39 234.87 L 102.56 235.72 C 102.75 236.69 103.70 237.32 104.68 237.12 C 105.65 236.93 106.28 235.98 106.08 235.01 L 105.91 234.16 C 105.72 233.18 104.77 232.55 103.79 232.75 C 102.82 232.95 102.19 233.89 102.39 234.87 Z M 102.56 235.74 L 102.74 236.57 C 102.95 237.54 103.91 238.16 104.88 237.95 C 105.85 237.74 106.47 236.78 106.26 235.81 L 106.08 234.98 C 105.87 234.01 104.91 233.39 103.94 233.60 C 102.97 233.81 102.35 234.77 102.56 235.74 Z M 102.75 236.59 L 102.94 237.43 C 103.16 238.39 104.12 239.00 105.09 238.78 C 106.06 238.56 106.66 237.59 106.44 236.62 L 106.25 235.79 C 106.03 234.82 105.07 234.22 104.10 234.44 C 103.13 234.66 102.53 235.62 102.75 236.59 Z M 102.95 237.45 L 103.20 238.48 C 103.43 239.44 104.41 240.03 105.37 239.80 C 106.34 239.56 106.93 238.59 106.69 237.62 L 106.44 236.60 C 106.20 235.63 105.23 235.04 104.26 235.28 C 103.30 235.52 102.71 236.49 102.95 237.45 Z M 103.21 238.53 L 103.49 239.55 C 103.76 240.50 104.75 241.06 105.71 240.80 C 106.66 240.53 107.22 239.54 106.96 238.58 L 106.67 237.57 C 106.41 236.61 105.42 236.05 104.46 236.32 C 103.51 236.59 102.95 237.58 103.21 238.53 Z M 103.52 239.62 L 103.84 240.61 C 104.15 241.55 105.16 242.07 106.11 241.76 C 107.05 241.45 107.56 240.44 107.26 239.49 L 106.93 238.51 C 106.62 237.56 105.61 237.05 104.67 237.36 C 103.72 237.67 103.21 238.68 103.52 239.62 Z M 103.88 240.72 L 104.25 241.66 C 104.62 242.58 105.67 243.03 106.59 242.66 C 107.51 242.29 107.96 241.25 107.59 240.32 L 107.22 239.39 C 106.85 238.46 105.80 238.01 104.88 238.38 C 103.96 238.75 103.51 239.79 103.88 240.72 Z M 104.31 241.79 L 104.75 242.67 C 105.20 243.56 106.28 243.92 107.16 243.48 C 108.05 243.03 108.41 241.95 107.97 241.06 L 107.53 240.19 C 107.09 239.30 106.01 238.94 105.12 239.38 C 104.23 239.83 103.87 240.91 104.31 241.79 Z M 104.85 242.84 L 105.36 243.64 C 105.90 244.47 107.01 244.72 107.85 244.18 C 108.68 243.64 108.92 242.53 108.39 241.69 L 107.87 240.90 C 107.34 240.06 106.22 239.82 105.39 240.36 C 104.55 240.89 104.31 242.01 104.85 242.84 Z M 105.51 243.83 L 106.11 244.54 C 106.75 245.29 107.89 245.38 108.64 244.74 C 109.40 244.09 109.49 242.96 108.84 242.20 L 108.24 241.50 C 107.60 240.74 106.46 240.65 105.71 241.30 C 104.95 241.94 104.86 243.08 105.51 243.83 Z M 106.31 244.74 L 107.03 245.34 C 107.78 245.98 108.92 245.89 109.56 245.13 C 110.20 244.37 110.10 243.24 109.34 242.60 L 108.63 242.00 C 107.87 241.36 106.74 241.45 106.10 242.21 C 105.46 242.97 105.56 244.10 106.31 244.74 Z M 107.28 245.53 L 108.11 246.00 C 108.97 246.50 110.07 246.21 110.57 245.35 C 111.06 244.49 110.77 243.39 109.91 242.89 L 109.09 242.41 C 108.23 241.92 107.13 242.21 106.63 243.07 C 106.13 243.93 106.42 245.03 107.28 245.53 Z M 108.39 246.14 L 109.29 246.47 C 110.22 246.81 111.26 246.33 111.60 245.40 C 111.94 244.47 111.47 243.43 110.53 243.09 L 109.63 242.76 C 108.70 242.42 107.66 242.89 107.32 243.83 C 106.98 244.76 107.46 245.79 108.39 246.14 Z M 109.59 246.55 L 110.54 246.72 C 111.52 246.90 112.46 246.26 112.64 245.28 C 112.82 244.30 112.17 243.36 111.19 243.19 L 110.24 243.01 C 109.26 242.83 108.32 243.48 108.14 244.45 C 107.96 245.43 108.61 246.37 109.59 246.55 Z M 110.85 246.75 L 111.84 246.76 C 112.83 246.77 113.65 245.97 113.66 244.98 C 113.67 243.99 112.87 243.17 111.87 243.16 L 110.89 243.16 C 109.89 243.15 109.08 243.94 109.07 244.94 C 109.06 245.93 109.86 246.75 110.85 246.75 Z M 112.16 246.74 L 113.15 246.57 C 114.13 246.41 114.79 245.48 114.63 244.50 C 114.47 243.52 113.54 242.86 112.56 243.02 L 111.56 243.19 C 110.58 243.35 109.92 244.28 110.08 245.26 C 110.25 246.24 111.18 246.90 112.16 246.74 Z M 113.47 246.49 L 114.45 246.14 C 115.38 245.80 115.87 244.77 115.53 243.83 C 115.19 242.90 114.16 242.41 113.23 242.75 L 112.24 243.10 C 111.31 243.44 110.82 244.47 111.16 245.41 C 111.50 246.34 112.53 246.83 113.47 246.49 Z M 114.74 246.00 L 115.64 245.48 C 116.50 244.99 116.79 243.88 116.30 243.02 C 115.80 242.16 114.70 241.87 113.83 242.36 L 112.94 242.88 C 112.07 243.38 111.78 244.48 112.28 245.34 C 112.78 246.20 113.88 246.50 114.74 246.00 Z M 115.86 245.34 L 116.53 244.80 C 117.31 244.18 117.44 243.05 116.82 242.27 C 116.20 241.49 115.07 241.36 114.29 241.98 L 113.62 242.51 C 112.84 243.13 112.71 244.26 113.32 245.04 C 113.94 245.82 115.08 245.95 115.86 245.34 Z M 116.67 244.67 L 117.31 244.04 C 118.02 243.34 118.03 242.20 117.33 241.49 C 116.64 240.78 115.50 240.78 114.79 241.47 L 114.14 242.11 C 113.43 242.80 113.43 243.94 114.12 244.65 C 114.82 245.36 115.96 245.37 116.67 244.67 Z M 117.42 243.93 L 118.03 243.21 C 118.68 242.45 118.59 241.32 117.83 240.67 C 117.08 240.02 115.94 240.11 115.29 240.87 L 114.68 241.59 C 114.03 242.34 114.12 243.48 114.88 244.13 C 115.64 244.77 116.77 244.68 117.42 243.93 Z M 118.11 243.11 L 118.70 242.32 C 119.29 241.52 119.12 240.39 118.32 239.80 C 117.52 239.21 116.39 239.38 115.80 240.18 L 115.22 240.97 C 114.62 241.77 114.79 242.90 115.59 243.49 C 116.39 244.08 117.52 243.91 118.11 243.11 Z M 118.76 242.24 L 119.32 241.38 C 119.86 240.55 119.63 239.43 118.80 238.89 C 117.97 238.34 116.85 238.57 116.30 239.41 L 115.74 240.26 C 115.20 241.09 115.43 242.21 116.26 242.75 C 117.09 243.30 118.21 243.07 118.76 242.24 Z M 119.36 241.31 L 119.89 240.41 C 120.40 239.56 120.12 238.45 119.26 237.94 C 118.41 237.44 117.30 237.72 116.79 238.57 L 116.26 239.48 C 115.75 240.33 116.03 241.44 116.89 241.95 C 117.75 242.45 118.85 242.17 119.36 241.31 Z M 119.93 240.35 L 120.44 239.42 C 120.91 238.54 120.59 237.45 119.71 236.97 C 118.84 236.50 117.74 236.82 117.27 237.70 L 116.76 238.63 C 116.28 239.51 116.61 240.60 117.48 241.08 C 118.36 241.55 119.45 241.23 119.93 240.35 Z M 120.46 239.37 L 120.95 238.41 C 121.40 237.53 121.04 236.44 120.15 235.99 C 119.26 235.54 118.18 235.90 117.73 236.78 L 117.24 237.74 C 116.79 238.63 117.15 239.72 118.04 240.17 C 118.93 240.62 120.01 240.26 120.46 239.37 Z M 120.96 238.38 L 121.43 237.41 C 121.86 236.51 121.48 235.43 120.58 235.00 C 119.68 234.57 118.60 234.95 118.17 235.85 L 117.71 236.82 C 117.28 237.72 117.66 238.80 118.56 239.23 C 119.46 239.66 120.53 239.28 120.96 238.38 Z M 121.44 237.38 L 121.88 236.43 C 122.29 235.52 121.89 234.45 120.99 234.04 C 120.08 233.62 119.01 234.02 118.60 234.93 L 118.16 235.88 C 117.75 236.79 118.14 237.86 119.05 238.27 C 119.96 238.69 121.03 238.29 121.44 237.38 Z M 121.89 236.41 L 122.29 235.48 C 122.70 234.57 122.28 233.50 121.37 233.10 C 120.46 232.70 119.40 233.11 118.99 234.02 L 118.59 234.95 C 118.18 235.86 118.60 236.93 119.51 237.33 C 120.42 237.73 121.48 237.32 121.89 236.41 Z M 122.30 235.46 L 122.70 234.54 C 123.09 233.62 122.66 232.56 121.74 232.17 C 120.83 231.78 119.77 232.21 119.38 233.13 L 118.99 234.05 C 118.60 234.96 119.02 236.02 119.94 236.41 C 120.86 236.80 121.91 236.37 122.30 235.46 Z M 122.71 234.51 L 123.08 233.60 C 123.46 232.68 123.02 231.62 122.10 231.24 C 121.17 230.87 120.12 231.31 119.74 232.23 L 119.37 233.15 C 118.99 234.07 119.43 235.12 120.35 235.50 C 121.27 235.88 122.33 235.44 122.71 234.51 Z M 123.09 233.57 L 123.45 232.66 C 123.82 231.73 123.36 230.68 122.44 230.32 C 121.51 229.95 120.46 230.41 120.10 231.33 L 119.73 232.25 C 119.37 233.18 119.82 234.23 120.75 234.59 C 121.68 234.96 122.72 234.50 123.09 233.57 Z M 123.46 232.63 L 123.81 231.71 C 124.16 230.78 123.70 229.74 122.76 229.39 C 121.83 229.03 120.79 229.50 120.44 230.43 L 120.09 231.36 C 119.74 232.29 120.20 233.33 121.13 233.68 C 122.07 234.03 123.11 233.57 123.46 232.63 Z M 123.82 231.69 L 124.16 230.77 C 124.50 229.83 124.02 228.79 123.08 228.45 C 122.15 228.11 121.11 228.59 120.77 229.53 L 120.43 230.45 C 120.09 231.39 120.57 232.43 121.51 232.77 C 122.44 233.11 123.48 232.63 123.82 231.69 Z M 124.16 230.75 L 124.49 229.81 C 124.82 228.87 124.33 227.84 123.39 227.51 C 122.45 227.18 121.42 227.67 121.09 228.61 L 120.76 229.55 C 120.43 230.49 120.92 231.52 121.86 231.85 C 122.80 232.18 123.83 231.68 124.16 230.75 Z M 124.50 229.79 L 124.82 228.84 C 125.14 227.90 124.64 226.87 123.70 226.55 C 122.75 226.23 121.73 226.74 121.41 227.68 L 121.09 228.63 C 120.76 229.57 121.27 230.60 122.21 230.92 C 123.16 231.24 124.18 230.73 124.50 229.79 Z M 124.83 228.82 L 125.14 227.86 C 125.46 226.92 124.94 225.90 123.99 225.59 C 123.05 225.27 122.03 225.79 121.72 226.74 L 121.40 227.70 C 121.09 228.65 121.61 229.66 122.55 229.98 C 123.50 230.29 124.52 229.77 124.83 228.82 Z M 125.15 227.85 L 125.45 226.90 C 125.75 225.95 125.23 224.93 124.28 224.63 C 123.33 224.33 122.32 224.85 122.01 225.80 L 121.71 226.75 C 121.41 227.70 121.94 228.72 122.88 229.02 C 123.83 229.32 124.85 228.80 125.15 227.85 Z M 125.46 226.88 L 125.74 225.98 C 126.03 225.03 125.50 224.02 124.55 223.73 C 123.59 223.43 122.58 223.96 122.29 224.91 L 122.01 225.82 C 121.72 226.77 122.25 227.78 123.20 228.07 C 124.15 228.37 125.16 227.84 125.46 226.88 Z M 125.74 225.97 L 126.02 225.05 C 126.30 224.10 125.76 223.09 124.81 222.80 C 123.86 222.52 122.85 223.06 122.56 224.01 L 122.29 224.93 C 122.00 225.88 122.54 226.89 123.49 227.17 C 124.45 227.46 125.45 226.92 125.74 225.97 Z M 126.02 225.04 L 126.29 224.11 C 126.57 223.15 126.03 222.15 125.07 221.87 C 124.12 221.59 123.11 222.13 122.83 223.09 L 122.56 224.02 C 122.28 224.98 122.83 225.98 123.78 226.26 C 124.74 226.54 125.74 226.00 126.02 225.04 Z M 126.30 224.10 L 126.57 223.15 C 126.84 222.19 126.29 221.20 125.33 220.92 C 124.38 220.65 123.38 221.20 123.10 222.16 L 122.83 223.10 C 122.56 224.06 123.11 225.06 124.07 225.33 C 125.02 225.61 126.02 225.05 126.30 224.10 Z M 126.57 223.14 L 126.84 222.18 C 127.11 221.22 126.55 220.23 125.59 219.96 C 124.63 219.69 123.64 220.25 123.37 221.21 L 123.10 222.17 C 122.83 223.13 123.39 224.12 124.35 224.39 C 125.31 224.66 126.30 224.10 126.57 223.14 Z M 126.84 222.17 L 127.11 221.20 C 127.37 220.24 126.81 219.25 125.85 218.99 C 124.89 218.72 123.89 219.29 123.63 220.25 L 123.36 221.22 C 123.10 222.18 123.67 223.17 124.63 223.43 C 125.59 223.70 126.58 223.13 126.84 222.17 Z M 127.11 221.19 L 127.38 220.21 C 127.63 219.25 127.06 218.26 126.10 218.00 C 125.14 217.74 124.15 218.31 123.89 219.28 L 123.63 220.26 C 123.37 221.22 123.94 222.21 124.90 222.47 C 125.86 222.72 126.85 222.15 127.11 221.19 Z M 127.38 220.20 L 127.64 219.21 C 127.89 218.25 127.32 217.26 126.35 217.01 C 125.39 216.75 124.40 217.33 124.15 218.29 L 123.89 219.28 C 123.64 220.25 124.21 221.23 125.18 221.49 C 126.14 221.74 127.12 221.16 127.38 220.20 Z M 127.64 219.20 L 127.90 218.20 C 128.15 217.23 127.57 216.25 126.60 216.00 C 125.64 215.75 124.65 216.33 124.41 217.30 L 124.15 218.30 C 123.90 219.27 124.48 220.25 125.44 220.50 C 126.41 220.75 127.39 220.17 127.64 219.20 Z M 127.90 218.19 L 128.16 217.18 C 128.40 216.21 127.82 215.23 126.85 214.99 C 125.88 214.74 124.90 215.33 124.66 216.30 L 124.40 217.31 C 124.16 218.27 124.75 219.25 125.71 219.50 C 126.68 219.74 127.66 219.16 127.90 218.19 Z M 128.16 217.17 L 128.41 216.17 C 128.65 215.20 128.06 214.22 127.09 213.98 C 126.12 213.74 125.15 214.33 124.91 215.30 L 124.66 216.30 C 124.42 217.27 125.01 218.25 125.97 218.49 C 126.94 218.73 127.92 218.14 128.16 217.17 Z M 128.41 216.16 L 128.64 215.22 C 128.87 214.25 128.28 213.28 127.31 213.04 C 126.34 212.81 125.37 213.40 125.13 214.37 L 124.90 215.31 C 124.67 216.27 125.26 217.25 126.23 217.48 C 127.20 217.72 128.17 217.13 128.41 216.16 Z M 128.64 215.21 L 128.87 214.27 C 129.10 213.30 128.50 212.33 127.53 212.09 C 126.56 211.86 125.59 212.46 125.36 213.43 L 125.13 214.37 C 124.90 215.34 125.50 216.31 126.46 216.55 C 127.43 216.78 128.41 216.18 128.64 215.21 Z M 128.87 214.26 L 129.09 213.31 C 129.32 212.34 128.72 211.37 127.75 211.14 C 126.78 210.91 125.81 211.51 125.58 212.48 L 125.36 213.43 C 125.13 214.40 125.73 215.37 126.70 215.60 C 127.67 215.83 128.64 215.23 128.87 214.26 Z M 129.09 213.30 L 129.32 212.35 C 129.54 211.38 128.94 210.41 127.97 210.18 C 127.00 209.95 126.03 210.56 125.80 211.53 L 125.58 212.49 C 125.35 213.46 125.96 214.43 126.93 214.65 C 127.90 214.88 128.87 214.27 129.09 213.30 Z M 129.32 212.34 L 129.54 211.37 C 129.76 210.40 129.16 209.44 128.19 209.21 C 127.22 208.99 126.25 209.60 126.02 210.57 L 125.80 211.53 C 125.58 212.50 126.19 213.47 127.16 213.69 C 128.13 213.92 129.10 213.31 129.32 212.34 Z M 129.54 211.37 L 129.76 210.40 C 129.98 209.43 129.37 208.46 128.40 208.24 C 127.43 208.02 126.46 208.63 126.24 209.60 L 126.02 210.57 C 125.80 211.54 126.41 212.51 127.38 212.73 C 128.35 212.95 129.32 212.34 129.54 211.37 Z M 129.76 210.39 L 129.98 209.41 C 130.20 208.44 129.59 207.48 128.62 207.26 C 127.65 207.04 126.68 207.65 126.46 208.62 L 126.24 209.60 C 126.03 210.58 126.64 211.54 127.61 211.76 C 128.58 211.98 129.54 211.36 129.76 210.39 Z M 129.98 209.41 L 130.20 208.42 C 130.42 207.45 129.80 206.49 128.83 206.27 C 127.86 206.06 126.90 206.67 126.68 207.64 L 126.46 208.63 C 126.25 209.60 126.86 210.56 127.83 210.78 C 128.80 211.00 129.77 210.38 129.98 209.41 Z M 130.20 208.42 L 130.42 207.43 C 130.63 206.45 130.02 205.49 129.05 205.28 C 128.07 205.07 127.11 205.68 126.90 206.65 L 126.68 207.65 C 126.47 208.62 127.08 209.58 128.05 209.79 C 129.03 210.01 129.99 209.39 130.20 208.42 Z M 130.42 207.42 L 130.64 206.43 C 130.85 205.45 130.23 204.49 129.26 204.28 C 128.29 204.07 127.33 204.69 127.11 205.66 L 126.90 206.66 C 126.68 207.63 127.30 208.59 128.28 208.80 C 129.25 209.01 130.21 208.40 130.42 207.42 Z M 130.64 206.42 L 130.86 205.42 C 131.07 204.44 130.45 203.48 129.47 203.27 C 128.50 203.06 127.54 203.68 127.33 204.66 L 127.11 205.66 C 126.90 206.64 127.52 207.59 128.50 207.80 C 129.47 208.01 130.43 207.40 130.64 206.42 Z M 130.86 205.41 L 131.07 204.40 C 131.28 203.43 130.66 202.47 129.69 202.26 C 128.71 202.05 127.75 202.67 127.55 203.65 L 127.33 204.66 C 127.12 205.63 127.74 206.59 128.72 206.80 C 129.69 207.01 130.65 206.39 130.86 205.41 Z M 131.07 204.40 L 131.27 203.50 C 131.47 202.52 130.85 201.56 129.88 201.36 C 128.90 201.15 127.95 201.77 127.74 202.75 L 127.55 203.65 C 127.34 204.62 127.96 205.58 128.93 205.79 C 129.91 206.00 130.87 205.37 131.07 204.40 Z M 131.27 203.49 L 131.46 202.59 C 131.66 201.61 131.04 200.66 130.07 200.45 C 129.09 200.24 128.13 200.87 127.93 201.84 L 127.74 202.75 C 127.53 203.72 128.15 204.68 129.13 204.89 C 130.10 205.09 131.06 204.47 131.27 203.49 Z M 131.46 202.58 L 131.65 201.67 C 131.85 200.69 131.23 199.74 130.25 199.53 C 129.28 199.33 128.32 199.95 128.12 200.93 L 127.93 201.84 C 127.72 202.82 128.35 203.77 129.32 203.98 C 130.30 204.18 131.25 203.56 131.46 202.58 Z M 131.65 201.66 L 131.84 200.74 C 132.04 199.76 131.42 198.81 130.44 198.61 C 129.47 198.41 128.51 199.03 128.31 200.01 L 128.12 200.93 C 127.92 201.91 128.54 202.86 129.52 203.06 C 130.49 203.27 131.45 202.64 131.65 201.66 Z M 131.84 200.74 L 132.03 199.80 C 132.23 198.82 131.60 197.87 130.63 197.67 C 129.65 197.47 128.70 198.10 128.50 199.08 L 128.31 200.01 C 128.11 200.99 128.74 201.94 129.71 202.14 C 130.69 202.34 131.64 201.71 131.84 200.74 Z M 132.04 199.79 L 132.23 198.85 C 132.42 197.87 131.79 196.92 130.82 196.72 C 129.84 196.52 128.89 197.16 128.69 198.13 L 128.50 199.08 C 128.30 200.06 128.93 201.01 129.91 201.21 C 130.89 201.40 131.84 200.77 132.04 199.79 Z M 132.23 198.84 L 132.42 197.88 C 132.61 196.90 131.98 195.95 131.00 195.76 C 130.03 195.56 129.08 196.20 128.88 197.17 L 128.69 198.14 C 128.50 199.11 129.13 200.06 130.11 200.26 C 131.08 200.45 132.03 199.82 132.23 198.84 Z M 132.42 197.87 L 132.61 196.89 C 132.80 195.92 132.17 194.97 131.19 194.78 C 130.21 194.59 129.26 195.22 129.07 196.20 L 128.88 197.18 C 128.69 198.16 129.33 199.10 130.30 199.30 C 131.28 199.49 132.23 198.85 132.42 197.87 Z M 132.61 196.89 L 132.80 195.89 C 132.99 194.91 132.35 193.97 131.37 193.78 C 130.40 193.59 129.45 194.23 129.26 195.21 L 129.07 196.21 C 128.88 197.19 129.52 198.13 130.50 198.32 C 131.48 198.51 132.43 197.87 132.61 196.89 Z M 132.81 195.89 L 133.00 194.87 C 133.18 193.89 132.54 192.95 131.56 192.77 C 130.58 192.58 129.64 193.22 129.45 194.20 L 129.26 195.22 C 129.08 196.20 129.72 197.14 130.70 197.32 C 131.68 197.51 132.62 196.86 132.81 195.89 Z M 133.00 194.87 L 133.19 193.83 C 133.37 192.85 132.72 191.91 131.74 191.73 C 130.77 191.55 129.82 192.20 129.64 193.17 L 129.45 194.21 C 129.27 195.19 129.92 196.13 130.90 196.31 C 131.88 196.49 132.82 195.84 133.00 194.87 Z M 133.19 193.82 L 133.38 192.77 C 133.56 191.79 132.91 190.85 131.93 190.67 C 130.95 190.49 130.01 191.14 129.83 192.12 L 129.64 193.18 C 129.46 194.16 130.12 195.10 131.10 195.28 C 132.08 195.45 133.01 194.80 133.19 193.82 Z M 133.38 192.76 L 133.58 191.68 C 133.75 190.70 133.10 189.76 132.11 189.59 C 131.13 189.42 130.20 190.07 130.02 191.05 L 129.83 192.13 C 129.66 193.11 130.31 194.05 131.29 194.22 C 132.27 194.40 133.21 193.74 133.38 192.76 Z M 133.58 191.67 L 133.76 190.61 C 133.93 189.62 133.27 188.69 132.29 188.52 C 131.31 188.35 130.38 189.01 130.21 189.99 L 130.02 191.06 C 129.85 192.04 130.51 192.97 131.49 193.14 C 132.47 193.31 133.41 192.66 133.58 191.67 Z M 133.76 190.60 L 133.92 189.70 C 134.08 188.71 133.42 187.78 132.44 187.62 C 131.46 187.45 130.53 188.11 130.36 189.09 L 130.21 190.00 C 130.04 190.98 130.70 191.91 131.68 192.08 C 132.67 192.24 133.60 191.58 133.76 190.60 Z M 133.92 189.69 L 134.07 188.77 C 134.24 187.79 133.57 186.86 132.59 186.69 C 131.61 186.53 130.68 187.19 130.51 188.18 L 130.36 189.10 C 130.19 190.08 130.86 191.01 131.84 191.17 C 132.82 191.34 133.75 190.67 133.92 189.69 Z M 134.07 188.77 L 134.23 187.83 C 134.39 186.85 133.72 185.92 132.74 185.76 C 131.75 185.60 130.83 186.26 130.66 187.25 L 130.51 188.18 C 130.35 189.17 131.02 190.10 132.00 190.26 C 132.98 190.42 133.91 189.75 134.07 188.77 Z M 134.23 187.83 L 134.38 186.88 C 134.54 185.90 133.87 184.97 132.89 184.81 C 131.90 184.65 130.97 185.32 130.81 186.31 L 130.66 187.25 C 130.50 188.24 131.17 189.17 132.16 189.33 C 133.14 189.48 134.07 188.81 134.23 187.83 Z M 134.38 186.88 L 134.54 185.92 C 134.69 184.93 134.02 184.01 133.04 183.85 C 132.05 183.69 131.12 184.36 130.97 185.35 L 130.81 186.31 C 130.66 187.30 131.33 188.22 132.31 188.38 C 133.30 188.54 134.23 187.86 134.38 186.88 Z M 134.54 185.91 L 134.69 184.94 C 134.85 183.96 134.17 183.03 133.18 182.88 C 132.20 182.72 131.27 183.40 131.12 184.38 L 130.96 185.35 C 130.81 186.34 131.48 187.27 132.47 187.42 C 133.46 187.58 134.38 186.90 134.54 185.91 Z M 134.69 184.94 L 134.84 183.96 C 135.00 182.97 134.32 182.04 133.33 181.89 C 132.35 181.74 131.42 182.42 131.27 183.40 L 131.12 184.39 C 130.96 185.37 131.64 186.30 132.63 186.45 C 133.61 186.60 134.54 185.93 134.69 184.94 Z M 134.85 183.95 L 135.00 182.96 C 135.15 181.97 134.47 181.05 133.48 180.90 C 132.49 180.75 131.57 181.43 131.42 182.41 L 131.27 183.41 C 131.12 184.40 131.79 185.32 132.78 185.47 C 133.77 185.62 134.70 184.94 134.85 183.95 Z M 135.00 182.96 L 135.15 181.96 C 135.30 180.97 134.62 180.05 133.63 179.90 C 132.64 179.75 131.72 180.43 131.57 181.42 L 131.42 182.42 C 131.27 183.41 131.95 184.33 132.94 184.48 C 133.93 184.63 134.85 183.95 135.00 182.96 Z M 135.15 181.96 L 135.30 180.95 C 135.45 179.96 134.77 179.03 133.78 178.89 C 132.79 178.74 131.86 179.42 131.72 180.41 L 131.57 181.42 C 131.42 182.41 132.10 183.33 133.09 183.48 C 134.08 183.63 135.00 182.95 135.15 181.96 Z M 135.30 180.94 L 135.45 179.93 C 135.60 178.94 134.92 178.01 133.92 177.87 C 132.93 177.72 132.01 178.41 131.87 179.40 L 131.72 180.41 C 131.57 181.40 132.25 182.33 133.24 182.47 C 134.24 182.62 135.16 181.93 135.30 180.94 Z M 135.46 179.93 L 135.60 178.90 C 135.75 177.91 135.06 176.99 134.07 176.85 C 133.08 176.70 132.16 177.39 132.01 178.38 L 131.86 179.40 C 131.72 180.39 132.41 181.31 133.40 181.46 C 134.39 181.60 135.31 180.92 135.46 179.93 Z M 135.61 178.90 L 135.75 177.87 C 135.90 176.88 135.21 175.96 134.22 175.82 C 133.22 175.67 132.30 176.36 132.16 177.36 L 132.01 178.38 C 131.87 179.37 132.56 180.30 133.55 180.44 C 134.54 180.58 135.46 179.89 135.61 178.90 Z M 135.76 177.87 L 135.90 176.84 C 136.05 175.85 135.36 174.93 134.36 174.79 C 133.37 174.64 132.45 175.33 132.31 176.33 L 132.16 177.36 C 132.02 178.35 132.71 179.27 133.70 179.41 C 134.69 179.56 135.61 178.87 135.76 177.87 Z M 135.90 176.84 L 136.05 175.81 C 136.19 174.81 135.50 173.89 134.51 173.75 C 133.51 173.61 132.59 174.30 132.45 175.30 L 132.30 176.33 C 132.16 177.32 132.86 178.24 133.85 178.38 C 134.84 178.53 135.76 177.83 135.90 176.84 Z M 136.05 175.80 L 136.20 174.77 C 136.34 173.77 135.64 172.86 134.65 172.72 C 133.66 172.58 132.74 173.27 132.60 174.26 L 132.45 175.30 C 132.31 176.29 133.00 177.21 134.00 177.35 C 134.99 177.49 135.91 176.80 136.05 175.80 Z M 136.20 174.77 L 136.34 173.73 C 136.48 172.74 135.79 171.82 134.79 171.68 C 133.80 171.54 132.88 172.23 132.74 173.23 L 132.59 174.26 C 132.46 175.26 133.15 176.18 134.15 176.32 C 135.14 176.46 136.06 175.76 136.20 174.77 Z M 136.34 173.73 L 136.48 172.72 C 136.62 171.72 135.93 170.80 134.93 170.66 C 133.94 170.53 133.02 171.22 132.88 172.22 L 132.74 173.23 C 132.60 174.23 133.30 175.15 134.29 175.28 C 135.29 175.42 136.21 174.73 136.34 173.73 Z M 136.49 172.72 L 136.62 171.71 C 136.76 170.71 136.06 169.79 135.07 169.65 C 134.07 169.52 133.15 170.21 133.02 171.21 L 132.88 172.22 C 132.74 173.22 133.44 174.13 134.43 174.27 C 135.43 174.41 136.35 173.71 136.49 172.72 Z M 136.63 171.70 L 136.76 170.69 C 136.90 169.70 136.20 168.78 135.20 168.64 C 134.21 168.51 133.29 169.20 133.15 170.20 L 133.01 171.21 C 132.88 172.21 133.58 173.13 134.57 173.26 C 135.57 173.40 136.49 172.70 136.63 171.70 Z M 136.76 170.69 L 136.90 169.68 C 137.04 168.69 136.34 167.77 135.34 167.63 C 134.34 167.50 133.42 168.20 133.29 169.20 L 133.15 170.20 C 133.02 171.20 133.72 172.12 134.71 172.25 C 135.71 172.39 136.63 171.69 136.76 170.69 Z M 136.90 169.68 L 137.04 168.68 C 137.17 167.68 136.47 166.76 135.47 166.63 C 134.47 166.49 133.56 167.19 133.42 168.19 L 133.29 169.20 C 133.15 170.20 133.85 171.11 134.85 171.25 C 135.85 171.38 136.77 170.68 136.90 169.68 Z M 137.04 168.67 L 137.17 167.67 C 137.30 166.67 136.60 165.75 135.60 165.62 C 134.60 165.49 133.69 166.19 133.55 167.19 L 133.42 168.19 C 133.29 169.19 133.99 170.11 134.99 170.24 C 135.99 170.37 136.90 169.67 137.04 168.67 Z M 137.17 167.67 L 137.30 166.66 C 137.44 165.66 136.73 164.75 135.73 164.62 C 134.73 164.48 133.82 165.19 133.69 166.19 L 133.55 167.19 C 133.42 168.19 134.13 169.10 135.12 169.24 C 136.12 169.37 137.04 168.67 137.17 167.67 Z M 137.31 166.66 L 137.44 165.66 C 137.57 164.66 136.86 163.74 135.86 163.61 C 134.86 163.48 133.95 164.19 133.82 165.19 L 133.69 166.19 C 133.55 167.19 134.26 168.10 135.26 168.23 C 136.26 168.37 137.17 167.66 137.31 166.66 Z M 137.44 165.66 L 137.57 164.66 C 137.70 163.66 136.99 162.74 135.99 162.62 C 134.99 162.49 134.07 163.19 133.94 164.19 L 133.82 165.19 C 133.69 166.19 134.39 167.11 135.39 167.23 C 136.39 167.36 137.31 166.66 137.44 165.66 Z M 137.57 164.66 L 137.70 163.66 C 137.82 162.66 137.12 161.75 136.12 161.62 C 135.12 161.49 134.20 162.20 134.07 163.20 L 133.94 164.19 C 133.81 165.19 134.52 166.11 135.52 166.24 C 136.52 166.37 137.44 165.66 137.57 164.66 Z M 137.70 163.66 L 137.82 162.67 C 137.95 161.67 137.24 160.76 136.24 160.63 C 135.24 160.50 134.32 161.21 134.20 162.21 L 134.07 163.20 C 133.94 164.20 134.65 165.12 135.65 165.24 C 136.65 165.37 137.57 164.66 137.70 163.66 Z M 137.82 162.67 L 137.95 161.68 C 138.07 160.68 137.36 159.77 136.36 159.64 C 135.36 159.51 134.45 160.22 134.32 161.23 L 134.20 162.21 C 134.07 163.21 134.78 164.13 135.78 164.25 C 136.78 164.38 137.70 163.67 137.82 162.67 Z M 137.95 161.68 L 138.07 160.70 C 138.20 159.70 137.48 158.78 136.48 158.66 C 135.48 158.53 134.57 159.24 134.44 160.24 L 134.32 161.23 C 134.19 162.23 134.90 163.14 135.91 163.27 C 136.91 163.39 137.82 162.68 137.95 161.68 Z M 138.07 160.70 L 138.19 159.72 C 138.32 158.71 137.60 157.80 136.60 157.68 C 135.60 157.55 134.68 158.27 134.56 159.27 L 134.44 160.25 C 134.32 161.25 135.03 162.16 136.03 162.29 C 137.03 162.41 137.95 161.70 138.07 160.70 Z M 138.19 159.71 L 138.31 158.74 C 138.43 157.74 137.72 156.83 136.72 156.70 C 135.71 156.58 134.80 157.29 134.68 158.30 L 134.56 159.27 C 134.44 160.27 135.15 161.19 136.15 161.31 C 137.16 161.43 138.07 160.72 138.19 159.71 Z M 138.31 158.74 L 138.43 157.77 C 138.55 156.77 137.84 155.86 136.83 155.73 C 135.83 155.61 134.92 156.33 134.79 157.33 L 134.68 158.30 C 134.56 159.30 135.27 160.22 136.28 160.34 C 137.28 160.46 138.19 159.74 138.31 158.74 Z M 138.43 157.77 L 138.55 156.81 C 138.67 155.80 137.95 154.89 136.94 154.77 C 135.94 154.65 135.03 155.37 134.91 156.37 L 134.79 157.34 C 134.67 158.34 135.39 159.25 136.40 159.37 C 137.40 159.49 138.31 158.77 138.43 157.77 Z M 138.55 156.81 L 138.66 155.83 C 138.78 154.82 138.06 153.91 137.06 153.79 C 136.05 153.67 135.14 154.39 135.02 155.40 L 134.91 156.38 C 134.79 157.38 135.51 158.29 136.51 158.41 C 137.52 158.53 138.43 157.81 138.55 156.81 Z M 138.66 155.83 L 138.78 154.79 C 138.90 153.79 138.18 152.88 137.18 152.76 C 136.17 152.64 135.26 153.36 135.14 154.37 L 135.02 155.40 C 134.90 156.41 135.62 157.32 136.63 157.43 C 137.64 157.55 138.55 156.83 138.66 155.83 Z M 138.78 154.79 L 138.90 153.77 C 139.02 152.76 138.30 151.85 137.29 151.73 C 136.28 151.62 135.38 152.34 135.26 153.35 L 135.14 154.37 C 135.03 155.38 135.75 156.29 136.75 156.40 C 137.76 156.52 138.67 155.80 138.78 154.79 Z M 138.90 153.76 L 139.02 152.74 C 139.13 151.74 138.41 150.83 137.40 150.71 C 136.40 150.60 135.49 151.32 135.37 152.33 L 135.26 153.35 C 135.14 154.35 135.87 155.26 136.87 155.38 C 137.88 155.49 138.79 154.77 138.90 153.76 Z M 139.02 152.74 L 139.13 151.73 C 139.25 150.72 138.52 149.82 137.52 149.70 C 136.51 149.59 135.60 150.31 135.49 151.32 L 135.37 152.33 C 135.26 153.34 135.98 154.25 136.99 154.36 C 138.00 154.47 138.91 153.75 139.02 152.74 Z M 139.14 151.73 L 139.25 150.72 C 139.36 149.72 138.64 148.81 137.63 148.69 C 136.62 148.58 135.71 149.31 135.60 150.31 L 135.49 151.32 C 135.37 152.33 136.10 153.24 137.11 153.35 C 138.11 153.46 139.02 152.74 139.14 151.73 Z M 139.25 150.72 L 139.36 149.72 C 139.47 148.71 138.75 147.80 137.74 147.69 C 136.73 147.58 135.82 148.31 135.71 149.31 L 135.60 150.32 C 135.49 151.32 136.21 152.23 137.22 152.34 C 138.23 152.46 139.14 151.73 139.25 150.72 Z M 139.36 149.72 L 139.47 148.72 C 139.58 147.72 138.86 146.81 137.85 146.70 C 136.84 146.58 135.93 147.31 135.82 148.32 L 135.71 149.31 C 135.60 150.32 136.33 151.23 137.33 151.34 C 138.34 151.45 139.25 150.73 139.36 149.72 Z M 139.47 148.72 L 139.58 147.73 C 139.69 146.72 138.97 145.82 137.96 145.70 C 136.95 145.59 136.04 146.32 135.93 147.33 L 135.82 148.32 C 135.71 149.33 136.44 150.24 137.44 150.35 C 138.45 150.46 139.36 149.73 139.47 148.72 Z M 139.58 147.73 L 139.69 146.75 C 139.80 145.74 139.08 144.83 138.07 144.72 C 137.06 144.61 136.15 145.33 136.04 146.34 L 135.93 147.33 C 135.82 148.34 136.55 149.25 137.55 149.36 C 138.56 149.47 139.47 148.74 139.58 147.73 Z M 139.69 146.75 L 139.80 145.76 C 139.91 144.75 139.18 143.84 138.18 143.73 C 137.17 143.62 136.26 144.35 136.15 145.36 L 136.04 146.34 C 135.93 147.35 136.65 148.26 137.66 148.37 C 138.67 148.48 139.58 147.75 139.69 146.75 Z M 139.80 145.76 L 139.91 144.78 C 140.02 143.77 139.29 142.87 138.28 142.75 C 137.28 142.64 136.37 143.37 136.25 144.38 L 136.15 145.36 C 136.03 146.37 136.76 147.28 137.77 147.39 C 138.78 147.50 139.69 146.77 139.80 145.76 Z M 139.91 144.78 L 140.02 143.81 C 140.13 142.80 139.40 141.89 138.39 141.78 C 137.38 141.66 136.47 142.39 136.36 143.40 L 136.25 144.38 C 136.14 145.39 136.87 146.30 137.88 146.41 C 138.89 146.52 139.80 145.79 139.91 144.78 Z M 140.02 143.81 L 140.13 142.84 C 140.24 141.83 139.51 140.92 138.50 140.80 C 137.49 140.69 136.58 141.42 136.47 142.43 L 136.36 143.40 C 136.25 144.41 136.98 145.32 137.99 145.43 C 139.00 145.55 139.91 144.82 140.02 143.81 Z M 140.13 142.84 L 140.24 141.87 C 140.35 140.86 139.63 139.95 138.62 139.83 C 137.61 139.72 136.69 140.44 136.58 141.45 L 136.47 142.43 C 136.36 143.44 137.08 144.35 138.09 144.46 C 139.10 144.58 140.02 143.85 140.13 142.84 Z M 140.24 141.87 L 140.35 140.90 C 140.46 139.89 139.74 138.98 138.73 138.86 C 137.72 138.75 136.80 139.47 136.69 140.48 L 136.58 141.45 C 136.46 142.46 137.19 143.38 138.20 143.49 C 139.21 143.61 140.12 142.88 140.24 141.87 Z M 140.35 140.90 L 140.46 139.94 C 140.58 138.92 139.85 138.01 138.84 137.89 C 137.83 137.78 136.92 138.50 136.80 139.51 L 136.69 140.48 C 136.57 141.49 137.30 142.41 138.31 142.52 C 139.32 142.64 140.23 141.91 140.35 140.90 Z M 140.46 139.94 L 140.59 138.86 C 140.70 137.85 139.98 136.94 138.97 136.82 C 137.96 136.70 137.04 137.43 136.93 138.44 L 136.80 139.51 C 136.68 140.52 137.41 141.44 138.42 141.55 C 139.43 141.67 140.34 140.95 140.46 139.94 Z M 140.59 138.87 L 140.71 137.79 C 140.83 136.78 140.11 135.87 139.10 135.75 C 138.09 135.63 137.17 136.35 137.05 137.36 L 136.93 138.43 C 136.81 139.44 137.53 140.36 138.54 140.48 C 139.55 140.60 140.47 139.88 140.59 138.87 Z M 140.71 137.80 L 140.84 136.73 C 140.96 135.72 140.24 134.80 139.23 134.68 C 138.22 134.56 137.30 135.28 137.18 136.29 L 137.05 137.36 C 136.93 138.37 137.65 139.29 138.66 139.41 C 139.68 139.53 140.59 138.81 140.71 137.80 Z M 140.84 136.73 L 140.96 135.67 C 141.09 134.66 140.37 133.75 139.36 133.63 C 138.35 133.50 137.43 134.22 137.31 135.23 L 137.18 136.29 C 137.06 137.30 137.78 138.22 138.79 138.34 C 139.80 138.46 140.72 137.74 140.84 136.73 Z M 140.96 135.67 L 141.09 134.63 C 141.21 133.62 140.49 132.70 139.48 132.58 C 138.47 132.46 137.56 133.18 137.43 134.19 L 137.31 135.23 C 137.19 136.24 137.91 137.16 138.92 137.28 C 139.93 137.40 140.84 136.68 140.96 135.67 Z M 141.09 134.63 L 141.22 133.59 C 141.34 132.58 140.62 131.66 139.61 131.54 C 138.60 131.42 137.68 132.14 137.56 133.15 L 137.43 134.18 C 137.31 135.19 138.03 136.11 139.04 136.23 C 140.05 136.36 140.97 135.64 141.09 134.63 Z M 141.22 133.59 L 141.34 132.57 C 141.46 131.56 140.74 130.64 139.73 130.52 C 138.72 130.40 137.80 131.12 137.68 132.12 L 137.56 133.15 C 137.44 134.16 138.16 135.07 139.17 135.20 C 140.18 135.32 141.09 134.60 141.22 133.59 Z M 141.34 132.57 L 141.46 131.56 C 141.58 130.55 140.86 129.63 139.85 129.51 C 138.84 129.39 137.93 130.11 137.80 131.12 L 137.68 132.13 C 137.56 133.13 138.28 134.05 139.29 134.17 C 140.30 134.29 141.22 133.57 141.34 132.57 Z M 141.46 131.56 L 141.58 130.57 C 141.70 129.56 140.98 128.64 139.97 128.52 C 138.96 128.40 138.04 129.12 137.92 130.13 L 137.80 131.12 C 137.68 132.13 138.40 133.04 139.41 133.17 C 140.42 133.29 141.34 132.57 141.46 131.56 Z M 141.58 130.56 L 141.69 129.59 C 141.81 128.59 141.09 127.67 140.08 127.55 C 139.07 127.43 138.16 128.15 138.04 129.16 L 137.92 130.13 C 137.80 131.14 138.52 132.06 139.53 132.18 C 140.54 132.30 141.46 131.57 141.58 130.56 Z M 141.69 129.59 L 141.81 128.64 C 141.92 127.63 141.20 126.72 140.19 126.60 C 139.18 126.48 138.27 127.20 138.15 128.21 L 138.04 129.16 C 137.92 130.17 138.64 131.09 139.65 131.21 C 140.66 131.32 141.58 130.60 141.69 129.59 Z M 141.81 128.64 L 141.91 127.72 C 142.03 126.71 141.31 125.79 140.30 125.68 C 139.29 125.56 138.37 126.28 138.26 127.29 L 138.15 128.22 C 138.03 129.23 138.76 130.14 139.77 130.26 C 140.78 130.37 141.69 129.65 141.81 128.64 Z M 141.91 127.71 L 142.02 126.81 C 142.13 125.80 141.41 124.89 140.40 124.78 C 139.39 124.66 138.47 125.39 138.36 126.40 L 138.26 127.30 C 138.14 128.31 138.87 129.22 139.88 129.33 C 140.89 129.45 141.80 128.72 141.91 127.71 Z M 142.02 126.81 L 142.11 125.94 C 142.23 124.93 141.50 124.02 140.49 123.91 C 139.48 123.79 138.57 124.52 138.46 125.53 L 138.36 126.40 C 138.25 127.41 138.97 128.32 139.98 128.43 C 140.99 128.55 141.90 127.82 142.02 126.81 Z M 142.11 125.93 L 142.22 124.94 C 142.33 123.93 141.60 123.02 140.59 122.91 C 139.58 122.80 138.67 123.53 138.56 124.54 L 138.46 125.54 C 138.35 126.55 139.08 127.45 140.09 127.56 C 141.10 127.67 142.00 126.94 142.11 125.93 Z M 142.22 124.93 L 142.34 123.76 C 142.45 122.75 141.71 121.84 140.70 121.74 C 139.69 121.63 138.79 122.37 138.68 123.38 L 138.56 124.55 C 138.46 125.56 139.19 126.46 140.20 126.57 C 141.21 126.67 142.12 125.94 142.22 124.93 Z M 142.35 123.75 L 142.46 122.64 C 142.56 121.62 141.82 120.72 140.80 120.62 C 139.79 120.52 138.89 121.26 138.79 122.27 L 138.68 123.39 C 138.58 124.40 139.32 125.30 140.33 125.40 C 141.34 125.50 142.25 124.76 142.35 123.75 Z M 142.46 122.63 L 142.56 121.57 C 142.65 120.55 141.91 119.66 140.90 119.56 C 139.88 119.47 138.98 120.21 138.89 121.22 L 138.79 122.28 C 138.69 123.30 139.44 124.19 140.45 124.29 C 141.46 124.38 142.36 123.64 142.46 122.63 Z M 142.56 121.56 L 142.65 120.54 C 142.74 119.53 141.99 118.64 140.98 118.54 C 139.96 118.45 139.07 119.20 138.98 120.22 L 138.89 121.23 C 138.80 122.24 139.54 123.14 140.56 123.23 C 141.57 123.32 142.47 122.57 142.56 121.56 Z M 142.65 120.54 L 142.74 119.56 C 142.82 118.55 142.07 117.66 141.06 117.57 C 140.04 117.48 139.15 118.23 139.06 119.25 L 138.98 120.22 C 138.89 121.24 139.64 122.13 140.66 122.22 C 141.67 122.30 142.56 121.55 142.65 120.54 Z M 142.74 119.56 L 142.81 118.62 C 142.90 117.60 142.14 116.71 141.13 116.63 C 140.11 116.54 139.22 117.30 139.14 118.31 L 139.06 119.25 C 138.98 120.27 139.73 121.16 140.75 121.24 C 141.76 121.33 142.65 120.57 142.74 119.56 Z M 142.82 118.61 L 142.89 117.70 C 142.97 116.68 142.21 115.79 141.19 115.71 C 140.18 115.63 139.29 116.39 139.21 117.41 L 139.14 118.32 C 139.05 119.34 139.81 120.23 140.83 120.31 C 141.84 120.39 142.73 119.63 142.82 118.61 Z M 142.89 117.70 L 142.96 116.81 C 143.04 115.79 142.28 114.90 141.26 114.82 C 140.24 114.74 139.36 115.50 139.28 116.52 L 139.21 117.41 C 139.13 118.43 139.89 119.32 140.90 119.40 C 141.92 119.47 142.81 118.71 142.89 117.70 Z M 142.96 116.81 L 143.03 115.93 C 143.10 114.91 142.34 114.03 141.33 113.95 C 140.31 113.87 139.42 114.63 139.34 115.65 L 139.27 116.52 C 139.20 117.54 139.96 118.43 140.98 118.51 C 141.99 118.58 142.88 117.82 142.96 116.81 Z M 143.03 115.93 L 143.10 115.00 C 143.18 113.98 142.42 113.09 141.40 113.01 C 140.38 112.93 139.49 113.70 139.41 114.71 L 139.34 115.65 C 139.26 116.67 140.02 117.56 141.04 117.63 C 142.06 117.71 142.95 116.95 143.03 115.93 Z M 143.10 115.00 L 143.18 113.98 C 143.26 112.96 142.50 112.07 141.48 112.00 C 140.46 111.92 139.57 112.68 139.49 113.70 L 139.41 114.71 C 139.33 115.73 140.10 116.62 141.11 116.70 C 142.13 116.78 143.02 116.02 143.10 115.00 Z M 143.18 113.98 L 143.26 112.97 C 143.33 111.95 142.57 111.06 141.55 110.99 C 140.53 110.91 139.64 111.67 139.57 112.69 L 139.49 113.70 C 139.41 114.72 140.17 115.61 141.19 115.69 C 142.21 115.76 143.10 115.00 143.18 113.98 Z M 143.26 112.97 L 143.33 111.97 C 143.41 110.95 142.64 110.06 141.62 109.98 C 140.60 109.91 139.71 110.67 139.64 111.69 L 139.56 112.70 C 139.49 113.72 140.25 114.60 141.27 114.68 C 142.30 114.75 143.18 113.99 143.26 112.97 Z M 143.33 111.96 L 143.40 110.96 C 143.48 109.94 142.71 109.06 141.69 108.99 C 140.66 108.91 139.78 109.68 139.71 110.70 L 139.64 111.70 C 139.56 112.72 140.33 113.61 141.35 113.68 C 142.38 113.75 143.26 112.98 143.33 111.96 Z M 143.41 110.96 L 143.47 109.96 C 143.54 108.94 142.76 108.06 141.74 107.99 C 140.72 107.92 139.84 108.70 139.77 109.72 L 139.70 110.71 C 139.64 111.74 140.41 112.62 141.43 112.69 C 142.46 112.75 143.34 111.98 143.41 110.96 Z M 143.47 109.95 L 143.53 108.97 C 143.59 107.94 142.81 107.06 141.79 107.00 C 140.77 106.94 139.89 107.72 139.83 108.74 L 139.77 109.73 C 139.71 110.76 140.49 111.64 141.51 111.70 C 142.53 111.76 143.41 110.98 143.47 109.95 Z M 143.53 108.95 L 143.59 107.97 C 143.64 106.94 142.85 106.07 141.83 106.01 C 140.80 105.96 139.93 106.75 139.88 107.77 L 139.82 108.76 C 139.77 109.78 140.56 110.66 141.58 110.71 C 142.61 110.76 143.48 109.98 143.53 108.95 Z M 143.59 107.95 L 143.63 106.97 C 143.68 105.94 142.88 105.07 141.86 105.03 C 140.83 104.98 139.96 105.78 139.92 106.80 L 139.87 107.79 C 139.83 108.81 140.62 109.68 141.65 109.73 C 142.67 109.77 143.54 108.98 143.59 107.95 Z M 143.63 106.95 L 143.67 105.97 C 143.70 104.94 142.90 104.08 141.87 104.04 C 140.85 104.01 139.99 104.81 139.95 105.84 L 139.92 106.82 C 139.88 107.85 140.68 108.71 141.71 108.74 C 142.74 108.78 143.60 107.98 143.63 106.95 Z M 143.67 105.95 L 143.70 104.97 C 143.72 103.94 142.91 103.09 141.88 103.06 C 140.86 103.03 140.00 103.84 139.97 104.87 L 139.95 105.85 C 139.92 106.88 140.73 107.74 141.76 107.77 C 142.79 107.79 143.64 106.98 143.67 105.95 Z M 143.70 104.96 L 143.72 103.97 C 143.74 102.94 142.92 102.09 141.89 102.07 C 140.86 102.05 140.01 102.87 139.99 103.90 L 139.97 104.89 C 139.95 105.91 140.77 106.76 141.80 106.78 C 142.83 106.80 143.68 105.99 143.70 104.96 Z M 143.72 103.96 L 143.73 102.97 C 143.75 101.94 142.92 101.10 141.89 101.08 C 140.86 101.07 140.02 101.89 140.00 102.92 L 139.99 103.91 C 139.98 104.94 140.80 105.79 141.83 105.80 C 142.86 105.81 143.70 104.99 143.72 103.96 Z M 143.73 102.96 L 143.74 101.96 C 143.75 100.93 142.92 100.09 141.89 100.08 C 140.86 100.07 140.02 100.90 140.01 101.93 L 140.00 102.93 C 139.99 103.96 140.82 104.80 141.85 104.81 C 142.88 104.82 143.72 103.99 143.73 102.96 Z M 143.74 101.96 L 143.75 100.95 C 143.75 99.92 142.92 99.08 141.89 99.08 C 140.86 99.07 140.02 99.90 140.01 100.93 L 140.01 101.94 C 140.01 102.97 140.84 103.81 141.87 103.81 C 142.90 103.82 143.74 102.99 143.74 101.96 Z M 143.75 100.95 L 143.75 99.93 C 143.75 98.90 142.92 98.06 141.89 98.06 C 140.86 98.06 140.02 98.89 140.02 99.92 L 140.01 100.94 C 140.01 101.97 140.85 102.81 141.88 102.81 C 142.91 102.81 143.75 101.98 143.75 100.95 Z M 143.75 99.93 L 143.75 98.90 C 143.75 97.87 142.92 97.03 141.88 97.03 C 140.85 97.03 140.02 97.87 140.01 98.90 L 140.01 99.93 C 140.01 100.96 140.85 101.79 141.88 101.80 C 142.91 101.80 143.75 100.96 143.75 99.93 Z M 143.75 98.90 L 143.75 97.93 C 143.75 96.90 142.92 96.06 141.88 96.06 C 140.85 96.06 140.01 96.90 140.01 97.94 L 140.01 98.90 C 140.01 99.93 140.85 100.77 141.88 100.77 C 142.92 100.77 143.75 99.93 143.75 98.90 Z M 143.76 97.93 L 143.76 97.00 C 143.75 95.96 142.91 95.13 141.87 95.13 C 140.84 95.13 140.00 95.98 140.00 97.01 L 140.01 97.94 C 140.01 98.98 140.85 99.82 141.89 99.81 C 142.93 99.81 143.76 98.97 143.76 97.93 Z M 143.76 96.99 L 143.75 96.04 C 143.74 95.00 142.89 94.17 141.85 94.18 C 140.81 94.19 139.98 95.05 139.99 96.09 L 140.00 97.03 C 140.01 98.07 140.86 98.90 141.90 98.89 C 142.94 98.88 143.77 98.03 143.76 96.99 Z M 143.76 96.02 L 143.74 95.06 C 143.71 94.02 142.85 93.19 141.80 93.22 C 140.76 93.24 139.93 94.11 139.96 95.15 L 139.98 96.11 C 140.00 97.15 140.87 97.98 141.91 97.95 C 142.96 97.93 143.78 97.06 143.76 96.02 Z M 143.74 95.03 L 143.70 94.06 C 143.66 93.01 142.78 92.20 141.73 92.24 C 140.69 92.28 139.87 93.16 139.91 94.21 L 139.95 95.18 C 139.99 96.23 140.88 97.04 141.92 97.00 C 142.97 96.96 143.78 96.08 143.74 95.03 Z M 143.71 94.02 L 143.65 93.02 C 143.59 91.97 142.69 91.17 141.64 91.24 C 140.59 91.30 139.79 92.20 139.85 93.25 L 139.91 94.24 C 139.97 95.29 140.87 96.09 141.92 96.03 C 142.97 95.97 143.77 95.07 143.71 94.02 Z M 143.65 92.98 L 143.57 91.96 C 143.48 90.91 142.56 90.13 141.51 90.22 C 140.46 90.30 139.68 91.23 139.76 92.28 L 139.85 93.29 C 139.93 94.35 140.86 95.13 141.91 95.04 C 142.96 94.95 143.74 94.03 143.65 92.98 Z M 143.57 91.91 L 143.46 90.87 C 143.34 89.82 142.39 89.06 141.34 89.18 C 140.29 89.29 139.53 90.24 139.65 91.29 L 139.76 92.33 C 139.88 93.38 140.82 94.14 141.88 94.03 C 142.93 93.91 143.69 92.96 143.57 91.91 Z M 143.46 90.81 L 143.31 89.75 C 143.16 88.70 142.19 87.96 141.14 88.11 C 140.08 88.26 139.35 89.23 139.50 90.28 L 139.65 91.35 C 139.79 92.40 140.77 93.13 141.82 92.99 C 142.87 92.84 143.60 91.87 143.46 90.81 Z M 143.30 89.69 L 143.12 88.60 C 142.94 87.55 141.94 86.84 140.89 87.02 C 139.84 87.20 139.13 88.20 139.31 89.25 L 139.50 90.34 C 139.68 91.39 140.68 92.10 141.73 91.92 C 142.78 91.74 143.48 90.74 143.30 89.69 Z M 143.11 88.54 L 142.90 87.48 C 142.69 86.43 141.67 85.75 140.62 85.96 C 139.57 86.17 138.89 87.19 139.10 88.24 L 139.32 89.31 C 139.53 90.36 140.55 91.04 141.60 90.82 C 142.65 90.61 143.32 89.59 143.11 88.54 Z M 142.90 87.45 L 142.67 86.38 C 142.45 85.33 141.42 84.66 140.37 84.88 C 139.32 85.10 138.65 86.14 138.87 87.19 L 139.10 88.26 C 139.32 89.31 140.36 89.98 141.41 89.76 C 142.46 89.54 143.13 88.50 142.90 87.45 Z M 142.68 86.39 L 142.46 85.31 C 142.24 84.26 141.21 83.58 140.16 83.79 C 139.10 84.01 138.42 85.04 138.64 86.10 L 138.86 87.17 C 139.08 88.23 140.11 88.91 141.16 88.69 C 142.22 88.48 142.90 87.44 142.68 86.39 Z M 142.48 85.36 L 142.29 84.30 C 142.10 83.24 141.08 82.53 140.02 82.72 C 138.95 82.91 138.24 83.93 138.43 84.99 L 138.62 86.05 C 138.81 87.12 139.83 87.83 140.89 87.64 C 141.96 87.45 142.67 86.43 142.48 85.36 Z M 142.31 84.40 L 142.18 83.37 C 142.04 82.29 141.05 81.53 139.97 81.67 C 138.90 81.81 138.14 82.80 138.28 83.88 L 138.41 84.90 C 138.55 85.98 139.54 86.74 140.61 86.60 C 141.69 86.46 142.45 85.47 142.31 84.40 Z M 142.20 83.51 L 142.15 82.54 C 142.09 81.45 141.15 80.61 140.06 80.67 C 138.98 80.73 138.14 81.66 138.20 82.75 L 138.26 83.73 C 138.32 84.82 139.25 85.66 140.34 85.60 C 141.43 85.54 142.26 84.60 142.20 83.51 Z M 142.15 82.75 L 142.20 81.83 C 142.26 80.74 141.42 79.80 140.33 79.75 C 139.23 79.69 138.30 80.53 138.24 81.62 L 138.19 82.54 C 138.14 83.63 138.97 84.57 140.07 84.62 C 141.16 84.68 142.09 83.84 142.15 82.75 Z M 142.17 82.13 L 142.35 81.29 C 142.57 80.21 141.88 79.16 140.80 78.93 C 139.73 78.71 138.67 79.40 138.45 80.48 L 138.27 81.32 C 138.05 82.40 138.74 83.45 139.82 83.67 C 140.89 83.90 141.95 83.21 142.17 82.13 Z M 142.23 81.67 L 142.56 80.92 C 142.99 79.91 142.53 78.73 141.52 78.29 C 140.50 77.86 139.33 78.32 138.89 79.34 L 138.56 80.09 C 138.13 81.10 138.59 82.28 139.61 82.72 C 140.62 83.15 141.79 82.69 142.23 81.67 Z M 142.31 81.35 L 142.81 80.70 C 143.49 79.82 143.32 78.56 142.44 77.89 C 141.57 77.21 140.31 77.38 139.63 78.26 L 139.13 78.91 C 138.46 79.78 138.62 81.04 139.50 81.72 C 140.38 82.39 141.64 82.23 142.31 81.35 Z M 142.48 81.04 L 143.06 80.58 C 143.92 79.88 144.06 78.62 143.36 77.75 C 142.66 76.89 141.40 76.75 140.53 77.45 L 139.96 77.91 C 139.10 78.61 138.96 79.88 139.66 80.74 C 140.36 81.60 141.62 81.74 142.48 81.04 Z M 142.76 80.78 L 143.46 80.39 C 144.44 79.86 144.79 78.63 144.26 77.66 C 143.72 76.69 142.50 76.34 141.53 76.87 L 140.83 77.25 C 139.86 77.79 139.50 79.01 140.04 79.98 C 140.57 80.96 141.79 81.31 142.76 80.78 Z M 143.22 80.50 L 144.03 80.19 C 145.06 79.79 145.58 78.62 145.18 77.59 C 144.78 76.56 143.61 76.04 142.58 76.44 L 141.77 76.76 C 140.73 77.16 140.22 78.32 140.62 79.36 C 141.02 80.39 142.19 80.90 143.22 80.50 Z M 143.84 80.25 L 144.74 80.00 C 145.81 79.71 146.44 78.60 146.14 77.53 C 145.84 76.46 144.74 75.83 143.67 76.13 L 142.77 76.38 C 141.70 76.68 141.07 77.78 141.37 78.85 C 141.66 79.92 142.77 80.55 143.84 80.25 Z M 144.59 80.04 L 145.57 79.84 C 146.66 79.63 147.37 78.57 147.15 77.48 C 146.94 76.40 145.88 75.69 144.79 75.90 L 143.81 76.10 C 142.73 76.31 142.02 77.37 142.23 78.46 C 142.45 79.55 143.51 80.25 144.59 80.04 Z M 145.46 79.86 L 146.49 79.72 C 147.59 79.57 148.36 78.55 148.21 77.45 C 148.05 76.35 147.04 75.59 145.94 75.74 L 144.90 75.88 C 143.81 76.04 143.04 77.05 143.19 78.15 C 143.34 79.25 144.36 80.02 145.46 79.86 Z M 146.41 79.73 L 147.48 79.63 C 148.59 79.52 149.40 78.54 149.29 77.44 C 149.19 76.33 148.21 75.52 147.10 75.63 L 146.03 75.73 C 144.92 75.83 144.11 76.81 144.22 77.92 C 144.32 79.02 145.30 79.83 146.41 79.73 Z M 147.42 79.63 L 148.52 79.57 C 149.63 79.50 150.47 78.55 150.40 77.44 C 150.33 76.33 149.38 75.49 148.27 75.56 L 147.17 75.62 C 146.06 75.69 145.22 76.64 145.29 77.75 C 145.36 78.86 146.31 79.70 147.42 79.63 Z M 148.47 79.57 L 149.58 79.53 C 150.69 79.49 151.56 78.56 151.52 77.45 C 151.48 76.34 150.55 75.47 149.44 75.51 L 148.33 75.55 C 147.22 75.59 146.35 76.52 146.39 77.63 C 146.43 78.74 147.36 79.61 148.47 79.57 Z M 149.54 79.53 L 150.65 79.51 C 151.76 79.49 152.64 78.58 152.62 77.47 C 152.60 76.36 151.69 75.47 150.58 75.49 L 149.47 75.51 C 148.36 75.53 147.48 76.45 147.50 77.56 C 147.52 78.67 148.43 79.55 149.54 79.53 Z M 150.62 79.51 L 151.70 79.50 C 152.81 79.50 153.71 78.59 153.70 77.48 C 153.69 76.37 152.79 75.48 151.68 75.49 L 150.60 75.49 C 149.49 75.50 148.60 76.40 148.60 77.51 C 148.61 78.62 149.52 79.52 150.62 79.51 Z M 151.69 79.50 L 152.77 79.50 C 153.88 79.50 154.78 78.60 154.78 77.49 C 154.78 76.38 153.88 75.49 152.77 75.49 L 151.69 75.49 C 150.58 75.49 149.68 76.39 149.68 77.50 C 149.68 78.61 150.58 79.50 151.69 79.50 Z M 152.77 79.50 L 153.95 79.50 C 155.06 79.50 155.95 78.60 155.95 77.49 C 155.95 76.39 155.06 75.49 153.95 75.49 L 152.77 75.49 C 151.67 75.49 150.77 76.39 150.77 77.49 C 150.77 78.60 151.67 79.50 152.77 79.50 Z M 153.95 79.49 L 155.06 79.49 C 156.16 79.49 157.06 78.60 157.06 77.49 C 157.06 76.39 156.16 75.50 155.06 75.50 L 153.95 75.50 C 152.85 75.50 151.95 76.39 151.95 77.49 C 151.95 78.60 152.85 79.49 153.95 79.49 Z M 155.06 79.49 L 156.11 79.49 C 157.21 79.49 158.10 78.60 158.10 77.49 C 158.10 76.39 157.21 75.50 156.11 75.50 L 155.06 75.50 C 153.96 75.50 153.07 76.39 153.07 77.49 C 153.07 78.60 153.96 79.49 155.06 79.49 Z M 156.11 79.48 L 157.12 79.48 C 158.21 79.48 159.10 78.59 159.10 77.49 C 159.10 76.40 158.21 75.51 157.12 75.51 L 156.11 75.51 C 155.02 75.51 154.13 76.40 154.13 77.49 C 154.13 78.59 155.02 79.48 156.11 79.48 Z M 157.12 79.48 L 158.09 79.48 C 159.18 79.48 160.07 78.59 160.07 77.49 C 160.07 76.40 159.18 75.51 158.09 75.51 L 157.12 75.51 C 156.02 75.51 155.14 76.40 155.14 77.49 C 155.14 78.59 156.02 79.48 157.12 79.48 Z M 158.09 79.47 L 159.02 79.47 C 160.12 79.47 161.00 78.59 161.00 77.49 C 161.00 76.40 160.12 75.52 159.02 75.52 L 158.09 75.52 C 156.99 75.52 156.11 76.40 156.11 77.49 C 156.11 78.59 156.99 79.47 158.09 79.47 Z M 159.02 79.46 L 159.95 79.46 C 161.03 79.46 161.91 78.58 161.91 77.49 C 161.91 76.41 161.03 75.53 159.95 75.53 L 159.02 75.53 C 157.94 75.53 157.06 76.41 157.06 77.49 C 157.06 78.58 157.94 79.46 159.02 79.46 Z M 159.95 79.46 L 160.86 79.46 C 161.94 79.46 162.82 78.58 162.82 77.49 C 162.82 76.41 161.94 75.53 160.86 75.53 L 159.95 75.53 C 158.86 75.53 157.98 76.41 157.98 77.49 C 157.98 78.58 158.86 79.46 159.95 79.46 Z M 160.86 79.45 L 161.77 79.45 C 162.85 79.45 163.73 78.58 163.73 77.49 C 163.73 76.41 162.85 75.54 161.77 75.54 L 160.86 75.54 C 159.78 75.54 158.90 76.41 158.90 77.49 C 158.90 78.58 159.78 79.45 160.86 79.45 Z M 161.77 79.45 L 162.69 79.45 C 163.76 79.45 164.64 78.57 164.64 77.49 C 164.64 76.42 163.76 75.54 162.69 75.54 L 161.77 75.54 C 160.70 75.54 159.82 76.42 159.82 77.49 C 159.82 78.57 160.70 79.45 161.77 79.45 Z M 162.69 79.44 L 163.60 79.44 C 164.67 79.44 165.54 78.57 165.54 77.49 C 165.54 76.42 164.67 75.55 163.60 75.55 L 162.69 75.55 C 161.61 75.55 160.74 76.42 160.74 77.49 C 160.74 78.57 161.61 79.44 162.69 79.44 Z M 163.60 79.44 L 164.53 79.44 C 165.60 79.44 166.47 78.57 166.47 77.49 C 166.47 76.42 165.60 75.55 164.53 75.55 L 163.60 75.55 C 162.53 75.55 161.66 76.42 161.66 77.49 C 161.66 78.57 162.53 79.44 163.60 79.44 Z M 164.53 79.43 L 165.48 79.43 C 166.55 79.43 167.41 78.56 167.41 77.49 C 167.41 76.43 166.55 75.56 165.48 75.56 L 164.53 75.56 C 163.46 75.56 162.59 76.43 162.59 77.49 C 162.59 78.56 163.46 79.43 164.53 79.43 Z M 165.48 79.43 L 166.45 79.43 C 167.51 79.43 168.38 78.56 168.38 77.49 C 168.38 76.43 167.51 75.56 166.45 75.56 L 165.48 75.56 C 164.41 75.56 163.54 76.43 163.54 77.49 C 163.54 78.56 164.41 79.43 165.48 79.43 Z M 166.45 79.42 L 167.44 79.42 C 168.50 79.42 169.36 78.56 169.36 77.49 C 169.36 76.43 168.50 75.57 167.44 75.57 L 166.45 75.57 C 165.38 75.57 164.52 76.43 164.52 77.49 C 164.52 78.56 165.38 79.42 166.45 79.42 Z M 167.44 79.42 L 168.45 79.42 C 169.51 79.42 170.37 78.56 170.37 77.49 C 170.37 76.43 169.51 75.57 168.45 75.57 L 167.44 75.57 C 166.37 75.57 165.51 76.43 165.51 77.49 C 165.51 78.56 166.37 79.42 167.44 79.42 Z M 168.45 79.41 L 169.49 79.41 C 170.55 79.41 171.41 78.55 171.41 77.49 C 171.41 76.44 170.55 75.58 169.49 75.58 L 168.45 75.58 C 167.39 75.58 166.53 76.44 166.53 77.49 C 166.53 78.55 167.39 79.41 168.45 79.41 Z M 169.49 79.41 L 170.55 79.41 C 171.61 79.41 172.47 78.55 172.47 77.49 C 172.47 76.44 171.61 75.58 170.55 75.58 L 169.49 75.58 C 168.43 75.58 167.57 76.44 167.57 77.49 C 167.57 78.55 168.43 79.41 169.49 79.41 Z M 170.55 79.40 L 171.64 79.40 C 172.70 79.40 173.55 78.55 173.55 77.49 C 173.55 76.44 172.70 75.59 171.64 75.59 L 170.55 75.59 C 169.50 75.59 168.64 76.44 168.64 77.49 C 168.64 78.55 169.50 79.40 170.55 79.40 Z M 171.64 79.40 L 172.72 79.40 C 173.77 79.40 174.63 78.55 174.63 77.49 C 174.63 76.44 173.77 75.59 172.72 75.59 L 171.64 75.59 C 170.59 75.59 169.74 76.44 169.74 77.49 C 169.74 78.55 170.59 79.40 171.64 79.40 Z M 172.72 79.40 L 173.72 79.40 C 174.77 79.40 175.62 78.54 175.62 77.49 C 175.62 76.45 174.77 75.59 173.72 75.59 L 172.72 75.59 C 171.67 75.59 170.82 76.45 170.82 77.49 C 170.82 78.54 171.67 79.40 172.72 79.40 Z M 173.72 79.39 L 174.73 79.39 C 175.78 79.39 176.63 78.54 176.63 77.49 C 176.63 76.45 175.78 75.60 174.73 75.60 L 173.72 75.60 C 172.67 75.60 171.82 76.45 171.82 77.49 C 171.82 78.54 172.67 79.39 173.72 79.39 Z M 174.73 79.39 L 175.75 79.39 C 176.80 79.39 177.65 78.54 177.65 77.49 C 177.65 76.45 176.80 75.60 175.75 75.60 L 174.73 75.60 C 173.68 75.60 172.84 76.45 172.84 77.49 C 172.84 78.54 173.68 79.39 174.73 79.39 Z M 175.75 79.38 L 176.78 79.38 C 177.83 79.38 178.67 78.54 178.67 77.49 C 178.67 76.45 177.83 75.61 176.78 75.61 L 175.75 75.61 C 174.71 75.61 173.86 76.45 173.86 77.49 C 173.86 78.54 174.71 79.38 175.75 79.38 Z M 176.78 79.38 L 177.81 79.38 C 178.85 79.38 179.70 78.54 179.70 77.49 C 179.70 76.45 178.85 75.61 177.81 75.61 L 176.78 75.61 C 175.74 75.61 174.90 76.45 174.90 77.49 C 174.90 78.54 175.74 79.38 176.78 79.38 Z M 177.81 79.37 L 178.84 79.37 C 179.88 79.37 180.72 78.53 180.72 77.49 C 180.72 76.46 179.88 75.61 178.84 75.61 L 177.81 75.61 C 176.78 75.61 175.93 76.46 175.93 77.49 C 175.93 78.53 176.78 79.37 177.81 79.37 Z M 178.84 79.37 L 179.86 79.37 C 180.90 79.37 181.74 78.53 181.74 77.49 C 181.74 76.46 180.90 75.62 179.86 75.62 L 178.84 75.62 C 177.80 75.62 176.96 76.46 176.96 77.49 C 176.96 78.53 177.80 79.37 178.84 79.37 Z M 179.86 79.37 L 180.87 79.37 C 181.90 79.37 182.74 78.53 182.74 77.49 C 182.74 76.46 181.90 75.62 180.87 75.62 L 179.86 75.62 C 178.83 75.62 177.99 76.46 177.99 77.49 C 177.99 78.53 178.83 79.37 179.86 79.37 Z M 180.87 79.36 L 181.85 79.36 C 182.89 79.36 183.72 78.53 183.72 77.49 C 183.72 76.46 182.89 75.63 181.85 75.63 L 180.87 75.63 C 179.83 75.63 179.00 76.46 179.00 77.49 C 179.00 78.53 179.83 79.36 180.87 79.36 Z M 181.85 79.36 L 182.82 79.36 C 183.85 79.36 184.68 78.52 184.68 77.49 C 184.68 76.47 183.85 75.63 182.82 75.63 L 181.85 75.63 C 180.83 75.63 179.99 76.47 179.99 77.49 C 179.99 78.52 180.83 79.36 181.85 79.36 Z M 182.82 79.35 L 183.76 79.35 C 184.78 79.35 185.62 78.52 185.62 77.49 C 185.62 76.47 184.78 75.64 183.76 75.64 L 182.82 75.64 C 181.79 75.64 180.96 76.47 180.96 77.49 C 180.96 78.52 181.79 79.35 182.82 79.35 Z M 183.76 79.35 L 184.83 79.35 C 185.85 79.35 186.68 78.52 186.68 77.49 C 186.68 76.47 185.85 75.64 184.83 75.64 L 183.76 75.64 C 182.73 75.64 181.90 76.47 181.90 77.49 C 181.90 78.52 182.73 79.35 183.76 79.35 Z M 184.83 79.34 L 185.94 79.34 C 186.96 79.34 187.79 78.52 187.79 77.49 C 187.79 76.47 186.96 75.65 185.94 75.65 L 184.83 75.65 C 183.80 75.65 182.98 76.47 182.98 77.49 C 182.98 78.52 183.80 79.34 184.83 79.34 Z M 185.94 79.34 L 187.01 79.34 C 188.03 79.34 188.86 78.51 188.86 77.49 C 188.86 76.48 188.03 75.65 187.01 75.65 L 185.94 75.65 C 184.93 75.65 184.10 76.48 184.10 77.49 C 184.10 78.51 184.93 79.34 185.94 79.34 Z M 187.01 79.33 L 188.04 79.33 C 189.06 79.33 189.88 78.51 189.88 77.49 C 189.88 76.48 189.06 75.66 188.04 75.66 L 187.01 75.66 C 186.00 75.66 185.18 76.48 185.18 77.49 C 185.18 78.51 186.00 79.33 187.01 79.33 Z M 188.04 79.33 L 189.03 79.33 C 190.05 79.33 190.87 78.51 190.87 77.49 C 190.87 76.48 190.05 75.66 189.03 75.66 L 188.04 75.66 C 187.03 75.66 186.21 76.48 186.21 77.49 C 186.21 78.51 187.03 79.33 188.04 79.33 Z M 189.03 79.32 L 190.00 79.32 C 191.00 79.32 191.82 78.50 191.82 77.49 C 191.82 76.49 191.00 75.67 190.00 75.67 L 189.03 75.67 C 188.02 75.67 187.21 76.49 187.21 77.49 C 187.21 78.50 188.02 79.32 189.03 79.32 Z M 190.00 79.32 L 190.93 79.32 C 191.94 79.32 192.75 78.50 192.75 77.49 C 192.75 76.49 191.94 75.67 190.93 75.67 L 190.00 75.67 C 188.99 75.67 188.18 76.49 188.18 77.49 C 188.18 78.50 188.99 79.32 190.00 79.32 Z M 190.93 79.31 L 191.85 79.31 C 192.86 79.31 193.67 78.50 193.67 77.49 C 193.67 76.49 192.86 75.68 191.85 75.68 L 190.93 75.68 C 189.93 75.68 189.12 76.49 189.12 77.49 C 189.12 78.50 189.93 79.31 190.93 79.31 Z M 191.85 79.30 L 192.76 79.30 C 193.76 79.30 194.57 78.49 194.57 77.49 C 194.57 76.50 193.76 75.69 192.76 75.69 L 191.85 75.69 C 190.85 75.69 190.04 76.50 190.04 77.49 C 190.04 78.49 190.85 79.30 191.85 79.30 Z M 192.76 79.30 L 193.73 79.30 C 194.73 79.30 195.54 78.49 195.54 77.49 C 195.54 76.50 194.73 75.69 193.73 75.69 L 192.76 75.69 C 191.77 75.69 190.96 76.50 190.96 77.49 C 190.96 78.49 191.77 79.30 192.76 79.30 Z M 193.73 79.30 L 194.74 79.30 C 195.74 79.30 196.54 78.49 196.54 77.49 C 196.54 76.50 195.74 75.69 194.74 75.69 L 193.73 75.69 C 192.74 75.69 191.93 76.50 191.93 77.49 C 191.93 78.49 192.74 79.30 193.73 79.30 Z M 194.74 79.29 L 195.75 79.29 C 196.74 79.29 197.54 78.49 197.54 77.49 C 197.54 76.50 196.74 75.70 195.75 75.70 L 194.74 75.70 C 193.75 75.70 192.94 76.50 192.94 77.49 C 192.94 78.49 193.75 79.29 194.74 79.29 Z M 195.75 79.29 L 196.75 79.29 C 197.74 79.29 198.54 78.49 198.54 77.49 C 198.54 76.50 197.74 75.70 196.75 75.70 L 195.75 75.70 C 194.76 75.70 193.95 76.50 193.95 77.49 C 193.95 78.49 194.76 79.29 195.75 79.29 Z M 196.75 79.29 L 197.75 79.29 C 198.74 79.29 199.54 78.48 199.54 77.49 C 199.54 76.50 198.74 75.70 197.75 75.70 L 196.75 75.70 C 195.76 75.70 194.95 76.50 194.95 77.49 C 194.95 78.48 195.76 79.29 196.75 79.29 Z M 197.75 79.28 L 198.74 79.28 C 199.73 79.28 200.53 78.48 200.53 77.49 C 200.53 76.51 199.73 75.71 198.74 75.71 L 197.75 75.71 C 196.76 75.71 195.96 76.51 195.96 77.49 C 195.96 78.48 196.76 79.28 197.75 79.28 Z M 198.74 79.28 L 199.74 79.28 C 200.72 79.28 201.52 78.48 201.52 77.49 C 201.52 76.51 200.72 75.71 199.74 75.71 L 198.74 75.71 C 197.75 75.71 196.95 76.51 196.95 77.49 C 196.95 78.48 197.75 79.28 198.74 79.28 Z M 199.74 79.28 L 200.73 79.28 C 201.71 79.28 202.51 78.48 202.51 77.49 C 202.51 76.51 201.71 75.71 200.73 75.71 L 199.74 75.71 C 198.75 75.71 197.95 76.51 197.95 77.49 C 197.95 78.48 198.75 79.28 199.74 79.28 Z M 200.73 79.28 L 201.72 79.28 C 202.70 79.28 203.50 78.48 203.50 77.49 C 203.50 76.51 202.70 75.71 201.72 75.71 L 200.73 75.71 C 199.74 75.71 198.95 76.51 198.95 77.49 C 198.95 78.48 199.74 79.28 200.73 79.28 Z M 201.72 79.27 L 202.70 79.27 C 203.69 79.27 204.48 78.48 204.48 77.49 C 204.48 76.51 203.69 75.72 202.70 75.72 L 201.72 75.72 C 200.74 75.72 199.94 76.51 199.94 77.49 C 199.94 78.48 200.74 79.27 201.72 79.27 Z M 202.70 79.27 L 203.69 79.27 C 204.68 79.27 205.47 78.48 205.47 77.49 C 205.47 76.51 204.68 75.72 203.69 75.72 L 202.70 75.72 C 201.72 75.72 200.93 76.51 200.93 77.49 C 200.93 78.48 201.72 79.27 202.70 79.27 Z M 203.69 79.27 L 204.69 79.27 C 205.67 79.27 206.46 78.47 206.46 77.49 C 206.46 76.51 205.67 75.72 204.69 75.72 L 203.69 75.72 C 202.71 75.72 201.92 76.51 201.92 77.49 C 201.92 78.47 202.71 79.27 203.69 79.27 Z M 204.69 79.27 L 205.68 79.27 C 206.66 79.27 207.46 78.47 207.46 77.49 C 207.46 76.52 206.66 75.72 205.68 75.72 L 204.69 75.72 C 203.71 75.72 202.91 76.52 202.91 77.49 C 202.91 78.47 203.71 79.27 204.69 79.27 Z M 205.68 79.26 L 206.69 79.26 C 207.66 79.26 208.46 78.47 208.46 77.49 C 208.46 76.52 207.66 75.72 206.69 75.72 L 205.68 75.72 C 204.71 75.72 203.91 76.52 203.91 77.49 C 203.91 78.47 204.71 79.26 205.68 79.26 Z M 206.69 79.26 L 207.70 79.26 C 208.67 79.26 209.47 78.47 209.47 77.49 C 209.47 76.52 208.67 75.73 207.70 75.73 L 206.69 75.73 C 205.71 75.73 204.92 76.52 204.92 77.49 C 204.92 78.47 205.71 79.26 206.69 79.26 Z M 207.70 79.26 L 208.72 79.26 C 209.69 79.26 210.48 78.47 210.48 77.49 C 210.48 76.52 209.69 75.73 208.72 75.73 L 207.70 75.73 C 206.72 75.73 205.93 76.52 205.93 77.49 C 205.93 78.47 206.72 79.26 207.70 79.26 Z M 208.72 79.26 L 209.72 79.26 C 210.69 79.26 211.48 78.47 211.48 77.49 C 211.48 76.52 210.69 75.73 209.72 75.73 L 208.72 75.73 C 207.74 75.73 206.95 76.52 206.95 77.49 C 206.95 78.47 207.74 79.26 208.72 79.26 Z M 209.72 79.26 L 210.71 79.26 C 211.68 79.26 212.47 78.47 212.47 77.49 C 212.47 76.52 211.68 75.73 210.71 75.73 L 209.72 75.73 C 208.74 75.73 207.95 76.52 207.95 77.49 C 207.95 78.47 208.74 79.26 209.72 79.26 Z M 210.71 79.25 L 211.70 79.25 C 212.67 79.25 213.46 78.47 213.46 77.49 C 213.46 76.52 212.67 75.74 211.70 75.74 L 210.71 75.74 C 209.73 75.74 208.95 76.52 208.95 77.49 C 208.95 78.47 209.73 79.25 210.71 79.25 Z M 211.70 79.25 L 212.70 79.25 C 213.67 79.25 214.46 78.47 214.46 77.49 C 214.46 76.52 213.67 75.74 212.70 75.74 L 211.70 75.74 C 210.73 75.74 209.94 76.52 209.94 77.49 C 209.94 78.47 210.73 79.25 211.70 79.25 Z M 212.70 79.25 L 213.71 79.25 C 214.68 79.25 215.46 78.46 215.46 77.49 C 215.46 76.53 214.68 75.74 213.71 75.74 L 212.70 75.74 C 211.73 75.74 210.95 76.53 210.95 77.49 C 210.95 78.46 211.73 79.25 212.70 79.25 Z M 213.71 79.25 L 214.71 79.25 C 215.68 79.25 216.47 78.46 216.47 77.49 C 216.47 76.53 215.68 75.74 214.71 75.74 L 213.71 75.74 C 212.74 75.74 211.95 76.53 211.95 77.49 C 211.95 78.46 212.74 79.25 213.71 79.25 Z M 214.71 79.25 L 215.72 79.25 C 216.69 79.25 217.47 78.46 217.47 77.49 C 217.47 76.53 216.69 75.74 215.72 75.74 L 214.71 75.74 C 213.75 75.74 212.96 76.53 212.96 77.49 C 212.96 78.46 213.75 79.25 214.71 79.25 Z M 215.72 79.24 L 216.72 79.24 C 217.69 79.24 218.47 78.46 218.47 77.49 C 218.47 76.53 217.69 75.74 216.72 75.74 L 215.72 75.74 C 214.75 75.74 213.97 76.53 213.97 77.49 C 213.97 78.46 214.75 79.24 215.72 79.24 Z M 216.72 79.24 L 217.73 79.24 C 218.70 79.24 219.48 78.46 219.48 77.49 C 219.48 76.53 218.70 75.75 217.73 75.75 L 216.72 75.75 C 215.76 75.75 214.98 76.53 214.98 77.49 C 214.98 78.46 215.76 79.24 216.72 79.24 Z M 217.73 79.24 L 218.75 79.24 C 219.72 79.24 220.50 78.46 220.50 77.49 C 220.50 76.53 219.72 75.75 218.75 75.75 L 217.73 75.75 C 216.77 75.75 215.98 76.53 215.98 77.49 C 215.98 78.46 216.77 79.24 217.73 79.24 Z M 218.75 79.24 L 219.77 79.24 C 220.74 79.24 221.52 78.46 221.52 77.49 C 221.52 76.53 220.74 75.75 219.77 75.75 L 218.75 75.75 C 217.79 75.75 217.01 76.53 217.01 77.49 C 217.01 78.46 217.79 79.24 218.75 79.24 Z M 219.77 79.24 L 220.78 79.24 C 221.75 79.24 222.53 78.46 222.53 77.49 C 222.53 76.53 221.75 75.75 220.78 75.75 L 219.77 75.75 C 218.81 75.75 218.03 76.53 218.03 77.49 C 218.03 78.46 218.81 79.24 219.77 79.24 Z M 220.78 79.24 L 221.79 79.24 C 222.75 79.24 223.53 78.46 223.53 77.49 C 223.53 76.53 222.75 75.75 221.79 75.75 L 220.78 75.75 C 219.82 75.75 219.04 76.53 219.04 77.49 C 219.04 78.46 219.82 79.24 220.78 79.24 Z M 221.79 79.23 L 222.79 79.23 C 223.75 79.23 224.53 78.46 224.53 77.49 C 224.53 76.53 223.75 75.76 222.79 75.76 L 221.79 75.76 C 220.83 75.76 220.05 76.53 220.05 77.49 C 220.05 78.46 220.83 79.23 221.79 79.23 Z M 222.79 79.23 L 223.78 79.23 C 224.74 79.23 225.51 78.45 225.51 77.49 C 225.51 76.54 224.74 75.76 223.78 75.76 L 222.79 75.76 C 221.83 75.76 221.05 76.54 221.05 77.49 C 221.05 78.45 221.83 79.23 222.79 79.23 Z M 223.78 79.23 L 224.76 79.23 C 225.72 79.23 226.49 78.45 226.49 77.49 C 226.49 76.54 225.72 75.76 224.76 75.76 L 223.78 75.76 C 222.82 75.76 222.04 76.54 222.04 77.49 C 222.04 78.45 222.82 79.23 223.78 79.23 Z M 224.76 79.23 L 225.73 79.23 C 226.69 79.23 227.46 78.45 227.46 77.49 C 227.46 76.54 226.69 75.76 225.73 75.76 L 224.76 75.76 C 223.80 75.76 223.02 76.54 223.02 77.49 C 223.02 78.45 223.80 79.23 224.76 79.23 Z M 225.73 79.23 L 226.73 79.23 C 227.69 79.23 228.46 78.45 228.46 77.49 C 228.46 76.54 227.69 75.76 226.73 75.76 L 225.73 75.76 C 224.77 75.76 224.00 76.54 224.00 77.49 C 224.00 78.45 224.77 79.23 225.73 79.23 Z M 226.73 79.23 L 227.72 79.23 C 228.68 79.23 229.45 78.45 229.45 77.49 C 229.45 76.54 228.68 75.76 227.72 75.76 L 226.73 75.76 C 225.77 75.76 225.00 76.54 225.00 77.49 C 225.00 78.45 225.77 79.23 226.73 79.23 Z M 227.72 79.22 L 228.72 79.22 C 229.67 79.22 230.44 78.45 230.44 77.49 C 230.44 76.54 229.67 75.77 228.72 75.77 L 227.72 75.77 C 226.77 75.77 225.99 76.54 225.99 77.49 C 225.99 78.45 226.77 79.22 227.72 79.22 Z M 228.72 79.22 L 229.71 79.22 C 230.66 79.22 231.43 78.45 231.43 77.49 C 231.43 76.54 230.66 75.77 229.71 75.77 L 228.72 75.77 C 227.76 75.77 226.99 76.54 226.99 77.49 C 226.99 78.45 227.76 79.22 228.72 79.22 Z M 229.71 79.22 L 230.70 79.22 C 231.65 79.22 232.43 78.45 232.43 77.49 C 232.43 76.54 231.65 75.77 230.70 75.77 L 229.71 75.77 C 228.75 75.77 227.98 76.54 227.98 77.49 C 227.98 78.45 228.75 79.22 229.71 79.22 Z M 230.70 79.22 L 231.70 79.22 C 232.65 79.22 233.42 78.45 233.42 77.49 C 233.42 76.54 232.65 75.77 231.70 75.77 L 230.70 75.77 C 229.75 75.77 228.97 76.54 228.97 77.49 C 228.97 78.45 229.75 79.22 230.70 79.22 Z M 231.70 79.22 L 232.71 79.22 C 233.66 79.22 234.43 78.45 234.43 77.49 C 234.43 76.54 233.66 75.77 232.71 75.77 L 231.70 75.77 C 230.75 75.77 229.97 76.54 229.97 77.49 C 229.97 78.45 230.75 79.22 231.70 79.22 Z M 232.71 79.22 L 233.72 79.22 C 234.67 79.22 235.44 78.45 235.44 77.49 C 235.44 76.54 234.67 75.77 233.72 75.77 L 232.71 75.77 C 231.76 75.77 230.99 76.54 230.99 77.49 C 230.99 78.45 231.76 79.22 232.71 79.22 Z M 233.72 79.22 L 234.64 79.22 C 235.59 79.22 236.36 78.44 236.36 77.49 C 236.36 76.54 235.59 75.77 234.64 75.77 L 233.72 75.77 C 232.77 75.77 232.00 76.54 232.00 77.49 C 232.00 78.44 232.77 79.22 233.72 79.22 Z M 234.64 79.21 L 235.58 79.21 C 236.53 79.21 237.30 78.44 237.30 77.49 C 237.30 76.55 236.53 75.78 235.58 75.78 L 234.64 75.78 C 233.69 75.78 232.92 76.55 232.92 77.49 C 232.92 78.44 233.69 79.21 234.64 79.21 Z M 235.58 79.21 L 236.53 79.21 C 237.48 79.21 238.25 78.44 238.25 77.49 C 238.25 76.55 237.48 75.78 236.53 75.78 L 235.58 75.78 C 234.63 75.78 233.86 76.55 233.86 77.49 C 233.86 78.44 234.63 79.21 235.58 79.21 Z M 236.53 79.21 L 237.50 79.21 C 238.45 79.21 239.22 78.44 239.22 77.49 C 239.22 76.55 238.45 75.78 237.50 75.78 L 236.53 75.78 C 235.58 75.78 234.81 76.55 234.81 77.49 C 234.81 78.44 235.58 79.21 236.53 79.21 Z M 237.50 79.21 L 238.50 79.21 C 239.45 79.21 240.21 78.44 240.21 77.49 C 240.21 76.55 239.45 75.78 238.50 75.78 L 237.50 75.78 C 236.56 75.78 235.79 76.55 235.79 77.49 C 235.79 78.44 236.56 79.21 237.50 79.21 Z M 238.50 79.21 L 239.52 79.21 C 240.47 79.21 241.23 78.44 241.23 77.49 C 241.23 76.55 240.47 75.78 239.52 75.78 L 238.50 75.78 C 237.55 75.78 236.78 76.55 236.78 77.49 C 236.78 78.44 237.55 79.21 238.50 79.21 Z M 239.52 79.21 L 240.57 79.21 C 241.51 79.21 242.28 78.44 242.28 77.49 C 242.28 76.55 241.51 75.78 240.57 75.78 L 239.52 75.78 C 238.57 75.78 237.81 76.55 237.81 77.49 C 237.81 78.44 238.57 79.21 239.52 79.21 Z M 240.57 79.21 L 241.64 79.21 C 242.59 79.21 243.35 78.44 243.35 77.49 C 243.35 76.55 242.59 75.78 241.64 75.78 L 240.57 75.78 C 239.62 75.78 238.85 76.55 238.85 77.49 C 238.85 78.44 239.62 79.21 240.57 79.21 Z M 241.64 79.21 L 242.72 79.21 C 243.66 79.21 244.43 78.44 244.43 77.49 C 244.43 76.55 243.66 75.78 242.72 75.78 L 241.64 75.78 C 240.70 75.78 239.93 76.55 239.93 77.49 C 239.93 78.44 240.70 79.21 241.64 79.21 Z M 242.72 79.20 L 243.70 79.20 C 244.64 79.20 245.41 78.44 245.41 77.49 C 245.41 76.55 244.64 75.79 243.70 75.79 L 242.72 75.79 C 241.78 75.79 241.01 76.55 241.01 77.49 C 241.01 78.44 241.78 79.20 242.72 79.20 Z M 243.70 79.20 L 244.70 79.20 C 245.64 79.20 246.40 78.44 246.40 77.49 C 246.40 76.55 245.64 75.79 244.70 75.79 L 243.70 75.79 C 242.75 75.79 241.99 76.55 241.99 77.49 C 241.99 78.44 242.75 79.20 243.70 79.20 Z M 244.70 79.20 L 245.71 79.20 C 246.65 79.20 247.41 78.44 247.41 77.49 C 247.41 76.55 246.65 75.79 245.71 75.79 L 244.70 75.79 C 243.75 75.79 242.99 76.55 242.99 77.49 C 242.99 78.44 243.75 79.20 244.70 79.20 Z M 245.71 79.20 L 246.73 79.20 C 247.67 79.20 248.43 78.44 248.43 77.49 C 248.43 76.55 247.67 75.79 246.73 75.79 L 245.71 75.79 C 244.76 75.79 244.00 76.55 244.00 77.49 C 244.00 78.44 244.76 79.20 245.71 79.20 Z M 246.73 79.20 L 247.75 79.20 C 248.69 79.20 249.45 78.44 249.45 77.49 C 249.45 76.55 248.69 75.79 247.75 75.79 L 246.73 75.79 C 245.78 75.79 245.02 76.55 245.02 77.49 C 245.02 78.44 245.78 79.20 246.73 79.20 Z M 247.75 79.20 L 248.77 79.20 C 249.71 79.20 250.47 78.44 250.47 77.49 C 250.47 76.55 249.71 75.79 248.77 75.79 L 247.75 75.79 C 246.81 75.79 246.04 76.55 246.04 77.49 C 246.04 78.44 246.81 79.20 247.75 79.20 Z M 248.77 79.20 L 249.78 79.20 C 250.72 79.20 251.49 78.44 251.49 77.49 C 251.49 76.55 250.72 75.79 249.78 75.79 L 248.77 75.79 C 247.83 75.79 247.06 76.55 247.06 77.49 C 247.06 78.44 247.83 79.20 248.77 79.20 Z M 249.78 79.20 L 250.78 79.20 C 251.73 79.20 252.49 78.44 252.49 77.49 C 252.49 76.55 251.73 75.79 250.78 75.79 L 249.78 75.79 C 248.84 75.79 248.08 76.55 248.08 77.49 C 248.08 78.44 248.84 79.20 249.78 79.20 Z M 250.78 79.20 L 251.77 79.20 C 252.71 79.20 253.47 78.44 253.47 77.49 C 253.47 76.55 252.71 75.79 251.77 75.79 L 250.78 75.79 C 249.84 75.79 249.08 76.55 249.08 77.49 C 249.08 78.44 249.84 79.20 250.78 79.20 Z M 251.77 79.20 L 252.73 79.20 C 253.67 79.20 254.43 78.43 254.43 77.49 C 254.43 76.56 253.67 75.79 252.73 75.79 L 251.77 75.79 C 250.83 75.79 250.07 76.56 250.07 77.49 C 250.07 78.43 250.83 79.20 251.77 79.20 Z M 252.73 79.20 L 253.79 79.20 C 254.73 79.20 255.49 78.43 255.49 77.49 C 255.49 76.56 254.73 75.79 253.79 75.79 L 252.73 75.79 C 251.79 75.79 251.03 76.56 251.03 77.50 C 251.03 78.43 251.79 79.20 252.73 79.20 Z M 253.80 79.19 L 254.84 79.19 C 255.78 79.19 256.54 78.43 256.54 77.49 C 256.54 76.55 255.78 75.79 254.84 75.79 L 253.79 75.80 C 252.85 75.80 252.09 76.56 252.09 77.50 C 252.10 78.44 252.86 79.20 253.80 79.19 Z M 254.85 79.19 L 255.87 79.19 C 256.80 79.18 257.56 78.42 257.56 77.48 C 257.55 76.54 256.79 75.79 255.85 75.79 L 254.83 75.80 C 253.90 75.80 253.14 76.56 253.14 77.50 C 253.15 78.44 253.91 79.19 254.85 79.19 Z M 255.87 79.19 L 256.87 79.18 C 257.81 79.17 258.56 78.40 258.55 77.47 C 258.55 76.53 257.78 75.78 256.84 75.78 L 255.85 75.79 C 254.91 75.80 254.16 76.57 254.16 77.50 C 254.17 78.44 254.94 79.19 255.87 79.19 Z M 256.88 79.18 L 257.86 79.16 C 258.80 79.15 259.55 78.38 259.53 77.44 C 259.52 76.51 258.75 75.76 257.82 75.77 L 256.83 75.79 C 255.90 75.80 255.15 76.57 255.16 77.50 C 255.18 78.44 255.94 79.19 256.88 79.18 Z M 257.88 79.16 L 258.85 79.14 C 259.78 79.12 260.52 78.35 260.51 77.41 C 260.49 76.48 259.71 75.74 258.78 75.75 L 257.80 75.77 C 256.87 75.79 256.13 76.57 256.15 77.50 C 256.17 78.44 256.94 79.18 257.88 79.16 Z M 258.86 79.14 L 259.83 79.11 C 260.76 79.08 261.50 78.30 261.47 77.37 C 261.44 76.44 260.66 75.70 259.73 75.73 L 258.76 75.76 C 257.83 75.78 257.09 76.56 257.12 77.50 C 257.15 78.43 257.93 79.17 258.86 79.14 Z M 259.85 79.11 L 260.82 79.07 C 261.75 79.03 262.47 78.25 262.44 77.31 C 262.40 76.38 261.62 75.66 260.68 75.69 L 259.71 75.73 C 258.78 75.77 258.05 76.55 258.09 77.49 C 258.13 78.42 258.91 79.15 259.85 79.11 Z M 260.83 79.07 L 261.81 79.02 C 262.74 78.97 263.46 78.18 263.41 77.25 C 263.36 76.32 262.57 75.60 261.64 75.65 L 260.66 75.69 C 259.73 75.74 259.01 76.53 259.06 77.47 C 259.11 78.40 259.90 79.11 260.83 79.07 Z M 261.83 79.02 L 262.85 78.95 C 263.78 78.89 264.49 78.09 264.43 77.16 C 264.37 76.23 263.57 75.52 262.64 75.58 L 261.62 75.65 C 260.69 75.71 259.98 76.51 260.04 77.44 C 260.10 78.37 260.90 79.08 261.83 79.02 Z M 262.89 78.95 L 263.91 78.86 C 264.84 78.78 265.53 77.97 265.45 77.04 C 265.37 76.11 264.56 75.42 263.63 75.50 L 262.60 75.59 C 261.67 75.67 260.98 76.48 261.06 77.41 C 261.14 78.34 261.96 79.03 262.89 78.95 Z M 263.96 78.85 L 264.99 78.74 C 265.91 78.63 266.57 77.79 266.47 76.87 C 266.36 75.94 265.52 75.28 264.60 75.39 L 263.58 75.51 C 262.65 75.61 261.99 76.45 262.10 77.37 C 262.20 78.30 263.04 78.96 263.96 78.85 Z M 265.05 78.73 L 266.06 78.57 C 266.98 78.42 267.61 77.56 267.46 76.64 C 267.32 75.72 266.45 75.09 265.53 75.24 L 264.53 75.40 C 263.61 75.54 262.98 76.41 263.13 77.33 C 263.27 78.24 264.14 78.87 265.05 78.73 Z M 266.15 78.55 L 267.13 78.34 C 268.04 78.15 268.62 77.25 268.43 76.34 C 268.24 75.43 267.34 74.85 266.43 75.05 L 265.45 75.26 C 264.54 75.45 263.96 76.34 264.15 77.25 C 264.34 78.16 265.24 78.74 266.15 78.55 Z M 267.24 78.31 L 268.19 78.04 C 269.09 77.79 269.61 76.86 269.35 75.97 C 269.10 75.07 268.17 74.55 267.28 74.80 L 266.32 75.07 C 265.43 75.33 264.91 76.26 265.16 77.15 C 265.42 78.04 266.35 78.57 267.24 78.31 Z M 268.32 78.00 L 269.23 77.66 C 270.10 77.34 270.54 76.37 270.22 75.50 C 269.90 74.63 268.93 74.19 268.06 74.51 L 267.15 74.85 C 266.28 75.17 265.83 76.14 266.16 77.01 C 266.48 77.88 267.45 78.32 268.32 78.00 Z M 269.37 77.60 L 270.23 77.18 C 271.07 76.78 271.42 75.77 271.01 74.94 C 270.61 74.10 269.60 73.75 268.77 74.16 L 267.91 74.57 C 267.07 74.98 266.72 75.98 267.13 76.82 C 267.53 77.65 268.54 78.00 269.37 77.60 Z M 270.40 77.09 L 271.19 76.59 C 271.98 76.09 272.21 75.06 271.72 74.27 C 271.22 73.49 270.19 73.25 269.40 73.75 L 268.60 74.25 C 267.82 74.74 267.58 75.78 268.08 76.57 C 268.57 77.35 269.61 77.59 270.40 77.09 Z M 271.35 76.47 L 272.08 75.88 C 272.81 75.30 272.92 74.24 272.34 73.52 C 271.76 72.80 270.70 72.69 269.98 73.27 L 269.24 73.86 C 268.52 74.44 268.41 75.50 268.99 76.22 C 269.57 76.94 270.63 77.06 271.35 76.47 Z M 272.21 75.77 L 272.89 75.10 C 273.55 74.44 273.55 73.38 272.90 72.73 C 272.25 72.07 271.19 72.06 270.53 72.71 L 269.85 73.39 C 269.20 74.04 269.19 75.10 269.84 75.75 C 270.49 76.41 271.55 76.42 272.21 75.77 Z M 272.98 74.99 L 273.61 74.25 C 274.21 73.55 274.13 72.49 273.42 71.89 C 272.72 71.29 271.66 71.38 271.07 72.08 L 270.44 72.82 C 269.84 73.52 269.92 74.58 270.63 75.18 C 271.33 75.78 272.39 75.69 272.98 74.99 Z M 273.68 74.16 L 274.27 73.36 C 274.82 72.62 274.66 71.57 273.92 71.02 C 273.18 70.48 272.13 70.63 271.58 71.38 L 271.00 72.17 C 270.45 72.92 270.61 73.96 271.35 74.51 C 272.09 75.06 273.14 74.90 273.68 74.16 Z M 274.32 73.29 L 274.88 72.44 C 275.38 71.67 275.17 70.64 274.40 70.13 C 273.63 69.63 272.60 69.84 272.09 70.61 L 271.54 71.45 C 271.03 72.22 271.24 73.26 272.01 73.76 C 272.78 74.27 273.81 74.05 274.32 73.29 Z M 274.91 72.38 L 275.44 71.50 C 275.91 70.72 275.66 69.69 274.87 69.22 C 274.08 68.75 273.06 69.00 272.59 69.79 L 272.06 70.67 C 271.58 71.45 271.84 72.48 272.62 72.95 C 273.41 73.43 274.43 73.17 274.91 72.38 Z M 275.46 71.46 L 275.97 70.56 C 276.42 69.76 276.14 68.75 275.34 68.30 C 274.54 67.84 273.53 68.12 273.08 68.92 L 272.57 69.83 C 272.11 70.63 272.39 71.64 273.19 72.09 C 273.99 72.54 275.01 72.26 275.46 71.46 Z M 275.98 70.54 L 276.48 69.62 C 276.92 68.82 276.63 67.81 275.82 67.37 C 275.02 66.93 274.01 67.22 273.57 68.03 L 273.07 68.95 C 272.63 69.75 272.92 70.76 273.73 71.20 C 274.53 71.64 275.54 71.34 275.98 70.54 Z M 276.48 69.61 L 276.62 69.35 C 277.06 68.55 276.76 67.54 275.96 67.11 C 275.15 66.67 274.15 66.97 273.71 67.78 L 273.57 68.03 C 273.13 68.84 273.43 69.85 274.24 70.28 C 275.04 70.72 276.05 70.42 276.48 69.61 Z"
      fill="black"
      fill-rule="nonzero" /></svg>