<svg xmlns="http://www.w3.org/2000/svg" width="300" height="300" viewBox="0 0 300 300">
<path d="M 183.41 57.52 L 183.63 56.68 C 183.84 55.81 183.32 54.94 182.46 54.72 C 181.59 54.50 180.72 55.03 180.50 55.89 L 180.29 56.73 C 180.07 57.59 180.59 58.47 181.46 58.69 C 182.32 58.90 183.20 58.38 183.41 57.52 Z M 183.63 56.70 L 183.86 55.84 C 184.09 54.97 183.57 54.08 182.70 53.85 C 181.84 53.62 180.95 54.14 180.72 55.01 L 180.49 55.87 C 180.26 56.74 180.78 57.62 181.65 57.85 C 182.52 58.08 183.41 57.56 183.63 56.70 Z M 183.87 55.87 L 184.12 54.98 C 184.37 54.11 183.86 53.20 182.99 52.95 C 182.12 52.70 181.22 53.21 180.97 54.08 L 180.71 54.97 C 180.47 55.84 180.97 56.75 181.84 57.00 C 182.71 57.25 183.62 56.74 183.87 55.87 Z M 184.12 55.02 L 184.42 54.08 C 184.69 53.21 184.21 52.28 183.34 52.01 C 182.47 51.73 181.54 52.22 181.27 53.09 L 180.97 54.03 C 180.69 54.90 181.18 55.83 182.05 56.10 C 182.92 56.38 183.85 55.90 184.12 55.02 Z M 184.42 54.13 L 184.77 53.12 C 185.07 52.25 184.62 51.30 183.75 51.00 C 182.88 50.69 181.93 51.15 181.62 52.02 L 181.27 53.03 C 180.96 53.90 181.42 54.85 182.29 55.16 C 183.16 55.46 184.11 55.00 184.42 54.13 Z M 184.76 53.18 L 185.19 52.09 C 185.52 51.22 185.09 50.25 184.23 49.91 C 183.36 49.57 182.39 50.00 182.05 50.87 L 181.63 51.97 C 181.29 52.83 181.72 53.81 182.59 54.14 C 183.45 54.48 184.43 54.05 184.76 53.18 Z M 185.19 52.15 L 185.67 51.02 C 186.04 50.15 185.64 49.14 184.77 48.77 C 183.90 48.41 182.90 48.81 182.53 49.68 L 182.05 50.81 C 181.68 51.68 182.08 52.68 182.95 53.05 C 183.82 53.42 184.82 53.01 185.19 52.15 Z M 185.70 51.07 L 186.22 49.92 C 186.62 49.04 186.23 48.00 185.35 47.60 C 184.47 47.20 183.43 47.59 183.03 48.47 L 182.50 49.62 C 182.10 50.50 182.49 51.54 183.37 51.94 C 184.26 52.35 185.30 51.96 185.70 51.07 Z M 186.25 49.98 L 186.79 48.85 C 187.22 47.96 186.85 46.88 185.95 46.44 C 185.05 46.01 183.97 46.39 183.54 47.29 L 183.00 48.42 C 182.56 49.31 182.94 50.39 183.84 50.82 C 184.74 51.26 185.82 50.88 186.25 49.98 Z M 186.82 48.91 L 187.35 47.88 C 187.81 46.96 187.45 45.85 186.53 45.38 C 185.62 44.92 184.50 45.28 184.04 46.19 L 183.51 47.23 C 183.04 48.14 183.41 49.26 184.32 49.73 C 185.24 50.19 186.35 49.83 186.82 48.91 Z M 187.37 47.95 L 187.84 47.07 C 188.35 46.15 188.01 44.99 187.08 44.48 C 186.15 43.98 185.00 44.32 184.49 45.25 L 184.02 46.12 C 183.51 47.05 183.85 48.21 184.78 48.71 C 185.70 49.22 186.86 48.87 187.37 47.95 Z M 187.84 47.18 L 188.24 46.53 C 188.80 45.60 188.50 44.40 187.58 43.84 C 186.65 43.27 185.45 43.57 184.88 44.50 L 184.49 45.15 C 183.93 46.07 184.23 47.28 185.15 47.84 C 186.08 48.40 187.28 48.10 187.84 47.18 Z M 188.15 46.74 L 188.42 46.39 C 189.11 45.51 188.95 44.25 188.07 43.57 C 187.19 42.89 185.93 43.05 185.25 43.92 L 184.97 44.28 C 184.29 45.16 184.45 46.42 185.33 47.10 C 186.21 47.78 187.47 47.62 188.15 46.74 Z M 186.63 47.19 L 186.76 47.20 C 187.89 47.32 188.89 46.50 189.00 45.38 C 189.12 44.26 188.30 43.25 187.18 43.14 L 187.04 43.12 C 185.92 43.01 184.92 43.83 184.80 44.95 C 184.69 46.07 185.51 47.07 186.63 47.19 Z M 184.93 44.97 L 184.89 45.39 C 184.78 46.52 185.60 47.53 186.73 47.64 C 187.86 47.75 188.86 46.92 188.97 45.79 L 189.02 45.37 C 189.12 44.24 188.30 43.24 187.17 43.13 C 186.04 43.02 185.04 43.84 184.93 44.97 Z M 184.93 45.08 L 184.73 45.86 C 184.45 46.96 185.11 48.09 186.21 48.37 C 187.32 48.66 188.44 47.99 188.73 46.89 L 188.93 46.11 C 189.21 45.01 188.55 43.88 187.45 43.60 C 186.34 43.31 185.22 43.97 184.93 45.08 Z M 184.75 45.75 L 184.41 46.83 C 184.06 47.92 184.67 49.08 185.76 49.43 C 186.85 49.78 188.02 49.17 188.36 48.08 L 188.70 47.00 C 189.05 45.91 188.45 44.74 187.36 44.40 C 186.27 44.05 185.10 44.65 184.75 45.75 Z M 184.42 46.76 L 183.96 48.08 C 183.57 49.17 184.14 50.36 185.23 50.74 C 186.31 51.12 187.50 50.55 187.88 49.47 L 188.35 48.15 C 188.73 47.06 188.16 45.87 187.08 45.49 C 185.99 45.11 184.80 45.68 184.42 46.76 Z M 183.96 48.04 L 183.39 49.55 C 182.98 50.63 183.53 51.84 184.61 52.25 C 185.69 52.65 186.90 52.11 187.31 51.03 L 187.88 49.52 C 188.29 48.44 187.74 47.23 186.66 46.82 C 185.58 46.41 184.37 46.96 183.96 48.04 Z M 183.40 49.52 L 183.02 50.46 C 182.60 51.54 183.12 52.76 184.20 53.19 C 185.28 53.61 186.50 53.09 186.93 52.01 L 187.30 51.06 C 187.73 49.98 187.20 48.76 186.12 48.34 C 185.04 47.91 183.82 48.44 183.40 49.52 Z M 183.03 50.44 L 182.65 51.37 C 182.21 52.45 182.73 53.67 183.81 54.11 C 184.88 54.55 186.11 54.03 186.55 52.95 L 186.92 52.03 C 187.36 50.95 186.84 49.72 185.77 49.29 C 184.69 48.85 183.46 49.37 183.03 50.44 Z M 182.65 51.36 L 182.26 52.31 C 181.81 53.38 182.32 54.61 183.40 55.06 C 184.47 55.50 185.70 54.99 186.15 53.92 L 186.54 52.97 C 186.99 51.90 186.48 50.66 185.40 50.22 C 184.33 49.77 183.10 50.28 182.65 51.36 Z M 182.26 52.29 L 181.85 53.25 C 181.40 54.33 181.90 55.57 182.98 56.02 C 184.05 56.47 185.29 55.97 185.74 54.90 L 186.15 53.93 C 186.60 52.86 186.10 51.62 185.02 51.17 C 183.95 50.72 182.71 51.22 182.26 52.29 Z M 181.85 53.24 L 181.44 54.21 C 180.98 55.28 181.48 56.52 182.55 56.98 C 183.62 57.44 184.86 56.95 185.32 55.87 L 185.74 54.91 C 186.20 53.84 185.70 52.59 184.63 52.13 C 183.56 51.67 182.31 52.17 181.85 53.24 Z M 181.44 54.20 L 181.02 55.16 C 180.56 56.23 181.05 57.48 182.12 57.95 C 183.19 58.41 184.44 57.92 184.91 56.85 L 185.32 55.89 C 185.79 54.81 185.30 53.57 184.23 53.10 C 183.15 52.64 181.91 53.13 181.44 54.20 Z M 181.02 55.15 L 180.61 56.10 C 180.14 57.17 180.62 58.42 181.70 58.89 C 182.77 59.36 184.02 58.88 184.49 57.81 L 184.91 56.86 C 185.38 55.78 184.89 54.53 183.82 54.06 C 182.74 53.59 181.49 54.08 181.02 55.15 Z M 180.61 56.09 L 180.20 57.02 C 179.72 58.09 180.21 59.34 181.28 59.82 C 182.35 60.30 183.60 59.81 184.08 58.74 L 184.49 57.81 C 184.96 56.74 184.48 55.49 183.41 55.01 C 182.34 54.54 181.08 55.02 180.61 56.09 Z M 180.20 57.01 L 179.80 57.91 C 179.32 58.98 179.80 60.24 180.87 60.71 C 181.94 61.19 183.20 60.71 183.68 59.64 L 184.08 58.75 C 184.56 57.67 184.08 56.42 183.01 55.94 C 181.93 55.46 180.68 55.94 180.20 57.01 Z M 179.80 57.90 L 179.41 58.75 C 178.93 59.83 179.41 61.09 180.48 61.57 C 181.55 62.05 182.81 61.57 183.30 60.50 L 183.68 59.65 C 184.16 58.58 183.69 57.31 182.61 56.83 C 181.54 56.35 180.28 56.83 179.80 57.90 Z M 179.41 58.75 L 179.04 59.57 C 178.55 60.65 179.03 61.91 180.10 62.40 C 181.17 62.88 182.44 62.41 182.92 61.33 L 183.30 60.51 C 183.78 59.44 183.31 58.17 182.23 57.68 C 181.16 57.20 179.90 57.67 179.41 58.75 Z M 179.04 59.57 L 178.51 60.71 C 178.02 61.78 178.50 63.05 179.57 63.54 C 180.64 64.03 181.91 63.56 182.40 62.49 L 182.92 61.34 C 183.41 60.27 182.94 59.00 181.87 58.51 C 180.79 58.02 179.53 58.49 179.04 59.57 Z M 178.52 60.70 L 178.04 61.73 C 177.55 62.80 178.02 64.07 179.09 64.57 C 180.16 65.06 181.43 64.59 181.92 63.52 L 182.40 62.49 C 182.89 61.42 182.42 60.15 181.35 59.66 C 180.28 59.16 179.01 59.63 178.52 60.70 Z M 178.04 61.72 L 177.61 62.66 C 177.11 63.73 177.58 65.00 178.65 65.50 C 179.72 66.00 180.99 65.53 181.49 64.46 L 181.92 63.53 C 182.42 62.46 181.96 61.18 180.88 60.69 C 179.81 60.19 178.54 60.65 178.04 61.72 Z M 177.61 62.65 L 177.21 63.51 C 176.71 64.58 177.17 65.85 178.24 66.36 C 179.31 66.86 180.59 66.40 181.09 65.32 L 181.49 64.47 C 181.99 63.39 181.53 62.12 180.46 61.62 C 179.39 61.12 178.11 61.58 177.61 62.65 Z M 177.21 63.50 L 176.83 64.31 C 176.33 65.38 176.78 66.66 177.86 67.16 C 178.93 67.67 180.20 67.21 180.71 66.14 L 181.09 65.33 C 181.59 64.26 181.13 62.98 180.06 62.48 C 178.99 61.97 177.71 62.43 177.21 63.50 Z M 176.83 64.31 L 176.46 65.09 C 175.96 66.16 176.42 67.44 177.49 67.94 C 178.56 68.45 179.84 67.99 180.34 66.92 L 180.71 66.14 C 181.21 65.07 180.75 63.79 179.68 63.28 C 178.61 62.78 177.33 63.24 176.83 64.31 Z M 176.46 65.09 L 176.09 65.87 C 175.59 66.94 176.05 68.22 177.12 68.73 C 178.19 69.23 179.47 68.77 179.98 67.70 L 180.34 66.92 C 180.85 65.84 180.39 64.57 179.31 64.06 C 178.24 63.56 176.96 64.02 176.46 65.09 Z M 176.09 65.87 L 175.68 66.75 C 175.17 67.82 175.64 69.10 176.71 69.61 C 177.79 70.11 179.07 69.65 179.57 68.57 L 179.98 67.69 C 180.48 66.62 180.02 65.34 178.95 64.84 C 177.87 64.33 176.59 64.80 176.09 65.87 Z M 175.68 66.75 L 175.26 67.64 C 174.76 68.72 175.22 70.00 176.30 70.50 C 177.37 71.00 178.65 70.54 179.15 69.46 L 179.57 68.57 C 180.07 67.50 179.61 66.22 178.53 65.71 C 177.46 65.21 176.18 65.68 175.68 66.75 Z M 175.26 67.64 L 174.83 68.55 C 174.33 69.62 174.80 70.90 175.87 71.41 C 176.95 71.91 178.23 71.45 178.73 70.37 L 179.16 69.47 C 179.66 68.39 179.19 67.11 178.12 66.60 C 177.04 66.10 175.76 66.57 175.26 67.64 Z M 174.83 68.54 L 174.41 69.46 C 173.90 70.53 174.36 71.82 175.44 72.32 C 176.52 72.83 177.80 72.36 178.30 71.29 L 178.73 70.37 C 179.24 69.30 178.78 68.01 177.70 67.51 C 176.62 67.00 175.34 67.47 174.83 68.54 Z M 174.41 69.45 L 173.97 70.37 C 173.46 71.45 173.92 72.73 175.00 73.24 C 176.08 73.75 177.36 73.29 177.87 72.21 L 178.30 71.29 C 178.81 70.22 178.35 68.93 177.28 68.42 C 176.20 67.91 174.91 68.37 174.41 69.45 Z M 173.97 70.36 L 173.53 71.28 C 173.02 72.36 173.48 73.65 174.55 74.16 C 175.63 74.67 176.91 74.22 177.43 73.14 L 177.87 72.22 C 178.38 71.14 177.92 69.86 176.85 69.34 C 175.77 68.83 174.49 69.29 173.97 70.36 Z M 173.54 71.27 L 173.10 72.17 C 172.59 73.24 173.04 74.53 174.11 75.05 C 175.18 75.57 176.47 75.12 176.99 74.05 L 177.42 73.15 C 177.94 72.08 177.49 70.79 176.42 70.27 C 175.35 69.75 174.06 70.20 173.54 71.27 Z M 173.11 72.16 L 172.67 73.05 C 172.15 74.13 172.59 75.42 173.67 75.94 C 174.74 76.47 176.03 76.02 176.55 74.95 L 176.99 74.05 C 177.51 72.98 177.07 71.69 175.99 71.17 C 174.92 70.64 173.63 71.09 173.11 72.16 Z M 172.67 73.05 L 172.23 73.94 C 171.71 75.01 172.15 76.31 173.22 76.84 C 174.29 77.36 175.59 76.92 176.11 75.85 L 176.55 74.95 C 177.08 73.88 176.64 72.59 175.57 72.06 C 174.49 71.53 173.20 71.98 172.67 73.05 Z M 172.23 73.94 L 171.79 74.84 C 171.26 75.91 171.70 77.20 172.77 77.73 C 173.85 78.26 175.14 77.82 175.67 76.75 L 176.11 75.85 C 176.64 74.78 176.20 73.48 175.13 72.96 C 174.06 72.43 172.76 72.87 172.23 73.94 Z M 171.79 74.83 L 171.35 75.73 C 170.82 76.81 171.26 78.10 172.33 78.63 C 173.40 79.16 174.70 78.72 175.23 77.65 L 175.67 76.75 C 176.20 75.68 175.76 74.38 174.69 73.85 C 173.62 73.32 172.32 73.76 171.79 74.83 Z M 171.34 75.73 L 170.90 76.64 C 170.37 77.71 170.81 79.01 171.88 79.54 C 172.96 80.07 174.26 79.63 174.78 78.55 L 175.23 77.65 C 175.76 76.58 175.32 75.28 174.24 74.75 C 173.17 74.22 171.87 74.66 171.34 75.73 Z M 170.90 76.64 L 170.46 77.53 C 169.93 78.61 170.38 79.91 171.45 80.43 C 172.52 80.96 173.82 80.52 174.35 79.44 L 174.79 78.55 C 175.31 77.48 174.87 76.18 173.80 75.65 C 172.72 75.12 171.42 75.57 170.90 76.64 Z M 170.46 77.54 L 170.03 78.41 C 169.50 79.48 169.95 80.78 171.03 81.31 C 172.10 81.83 173.40 81.39 173.93 80.31 L 174.35 79.44 C 174.88 78.36 174.43 77.06 173.36 76.54 C 172.28 76.01 170.98 76.46 170.46 77.54 Z M 170.03 78.41 L 169.60 79.29 C 169.07 80.37 169.52 81.67 170.60 82.19 C 171.68 82.72 172.98 82.27 173.50 81.19 L 173.93 80.31 C 174.45 79.23 174.01 77.93 172.93 77.41 C 171.85 76.88 170.55 77.33 170.03 78.41 Z M 169.60 79.29 L 169.16 80.18 C 168.64 81.26 169.09 82.56 170.17 83.09 C 171.25 83.61 172.55 83.16 173.07 82.08 L 173.50 81.19 C 174.03 80.11 173.58 78.81 172.50 78.29 C 171.42 77.76 170.12 78.21 169.60 79.29 Z M 169.16 80.19 L 168.73 81.09 C 168.20 82.17 168.66 83.47 169.74 83.99 C 170.82 84.51 172.12 84.06 172.64 82.98 L 173.07 82.08 C 173.60 81.00 173.14 79.70 172.06 79.17 C 170.98 78.65 169.68 79.10 169.16 80.19 Z M 168.72 81.09 L 168.28 82.01 C 167.76 83.09 168.21 84.39 169.29 84.91 C 170.38 85.43 171.67 84.98 172.20 83.90 L 172.64 82.98 C 173.16 81.90 172.71 80.60 171.63 80.08 C 170.55 79.55 169.25 80.01 168.72 81.09 Z M 168.28 82.01 L 167.83 82.94 C 167.31 84.02 167.76 85.32 168.84 85.84 C 169.92 86.37 171.23 85.91 171.75 84.83 L 172.20 83.90 C 172.72 82.82 172.27 81.51 171.18 80.99 C 170.10 80.47 168.80 80.92 168.28 82.01 Z M 167.83 82.94 L 167.40 83.82 C 166.88 84.90 167.34 86.20 168.42 86.72 C 169.50 87.25 170.80 86.79 171.32 85.71 L 171.75 84.83 C 172.27 83.75 171.82 82.45 170.73 81.93 C 169.65 81.40 168.35 81.86 167.83 82.94 Z M 167.40 83.82 L 166.99 84.68 C 166.47 85.76 166.92 87.06 168.00 87.58 C 169.08 88.11 170.39 87.65 170.91 86.57 L 171.33 85.71 C 171.85 84.63 171.39 83.33 170.31 82.80 C 169.23 82.28 167.93 82.73 167.40 83.82 Z M 166.99 84.68 L 166.56 85.55 C 166.04 86.63 166.49 87.94 167.58 88.46 C 168.66 88.98 169.96 88.53 170.49 87.45 L 170.91 86.57 C 171.43 85.49 170.98 84.19 169.90 83.66 C 168.81 83.14 167.51 83.59 166.99 84.68 Z M 166.56 85.55 L 166.13 86.44 C 165.61 87.52 166.06 88.83 167.15 89.35 C 168.23 89.88 169.53 89.42 170.06 88.34 L 170.49 87.45 C 171.01 86.36 170.56 85.06 169.47 84.54 C 168.39 84.01 167.09 84.47 166.56 85.55 Z M 166.13 86.44 L 165.69 87.35 C 165.17 88.43 165.62 89.73 166.71 90.26 C 167.79 90.78 169.09 90.33 169.62 89.25 L 170.06 88.34 C 170.58 87.26 170.13 85.95 169.04 85.43 C 167.96 84.90 166.66 85.36 166.13 86.44 Z M 165.69 87.35 L 165.25 88.27 C 164.72 89.35 165.18 90.66 166.26 91.18 C 167.34 91.70 168.65 91.25 169.17 90.17 L 169.62 89.25 C 170.14 88.16 169.69 86.86 168.61 86.33 C 167.52 85.81 166.22 86.26 165.69 87.35 Z M 165.25 88.27 L 164.79 89.20 C 164.27 90.29 164.72 91.59 165.81 92.12 C 166.89 92.64 168.19 92.19 168.72 91.11 L 169.17 90.17 C 169.70 89.08 169.24 87.78 168.16 87.26 C 167.08 86.73 165.77 87.18 165.25 88.27 Z M 164.79 89.20 L 164.34 90.14 C 163.81 91.23 164.26 92.53 165.35 93.06 C 166.43 93.58 167.74 93.13 168.26 92.05 L 168.72 91.11 C 169.24 90.02 168.79 88.72 167.71 88.19 C 166.62 87.67 165.32 88.12 164.79 89.20 Z M 164.34 90.14 L 163.92 91.01 C 163.39 92.09 163.85 93.40 164.93 93.92 C 166.01 94.45 167.32 93.99 167.85 92.91 L 168.26 92.05 C 168.79 90.96 168.34 89.66 167.25 89.13 C 166.17 88.61 164.86 89.06 164.34 90.14 Z M 163.92 91.01 L 163.49 91.88 C 162.97 92.96 163.42 94.27 164.51 94.80 C 165.59 95.32 166.90 94.87 167.42 93.78 L 167.85 92.91 C 168.37 91.82 167.92 90.52 166.83 89.99 C 165.75 89.47 164.44 89.92 163.92 91.01 Z M 163.49 91.88 L 163.07 92.77 C 162.54 93.85 163.00 95.16 164.08 95.68 C 165.17 96.21 166.47 95.75 167.00 94.67 L 167.42 93.78 C 167.95 92.70 167.49 91.39 166.41 90.87 C 165.32 90.34 164.02 90.80 163.49 91.88 Z M 163.06 92.77 L 162.63 93.67 C 162.11 94.75 162.57 96.06 163.65 96.58 C 164.74 97.10 166.04 96.65 166.57 95.56 L 167.00 94.66 C 167.52 93.58 167.07 92.27 165.98 91.75 C 164.89 91.23 163.59 91.68 163.06 92.77 Z M 162.63 93.67 L 162.20 94.58 C 161.67 95.66 162.13 96.97 163.22 97.49 C 164.31 98.01 165.61 97.55 166.13 96.46 L 166.57 95.56 C 167.09 94.47 166.63 93.16 165.54 92.64 C 164.46 92.12 163.15 92.58 162.63 93.67 Z M 162.19 94.58 L 161.76 95.50 C 161.24 96.59 161.70 97.89 162.79 98.41 C 163.88 98.93 165.18 98.47 165.70 97.38 L 166.14 96.46 C 166.66 95.37 166.19 94.07 165.10 93.55 C 164.02 93.03 162.71 93.49 162.19 94.58 Z M 161.75 95.50 L 161.31 96.43 C 160.80 97.52 161.26 98.82 162.35 99.34 C 163.44 99.86 164.75 99.39 165.26 98.30 L 165.70 97.37 C 166.22 96.28 165.75 94.98 164.66 94.46 C 163.57 93.95 162.27 94.41 161.75 95.50 Z M 161.31 96.43 L 160.87 97.37 C 160.36 98.46 160.83 99.77 161.92 100.28 C 163.01 100.79 164.31 100.32 164.83 99.23 L 165.27 98.29 C 165.78 97.20 165.31 95.90 164.22 95.39 C 163.13 94.87 161.82 95.34 161.31 96.43 Z M 160.87 97.38 L 160.45 98.28 C 159.94 99.37 160.41 100.67 161.51 101.18 C 162.60 101.69 163.90 101.21 164.41 100.12 L 164.83 99.22 C 165.34 98.13 164.87 96.83 163.77 96.32 C 162.68 95.81 161.38 96.28 160.87 97.38 Z M 160.45 98.28 L 160.04 99.15 C 159.54 100.25 160.02 101.55 161.11 102.05 C 162.21 102.56 163.51 102.08 164.01 100.98 L 164.42 100.11 C 164.92 99.02 164.44 97.72 163.35 97.21 C 162.25 96.71 160.95 97.19 160.45 98.28 Z M 160.04 99.16 L 159.64 100.04 C 159.14 101.14 159.62 102.44 160.72 102.94 C 161.82 103.44 163.11 102.96 163.62 101.86 L 164.02 100.98 C 164.52 99.88 164.04 98.58 162.94 98.08 C 161.84 97.58 160.54 98.06 160.04 99.16 Z M 159.63 100.05 L 159.23 100.94 C 158.73 102.04 159.22 103.34 160.32 103.83 C 161.42 104.33 162.72 103.84 163.22 102.74 L 163.62 101.85 C 164.12 100.75 163.63 99.46 162.53 98.96 C 161.43 98.46 160.13 98.95 159.63 100.05 Z M 159.23 100.95 L 158.82 101.85 C 158.33 102.95 158.82 104.25 159.93 104.74 C 161.03 105.23 162.32 104.74 162.82 103.64 L 163.22 102.74 C 163.71 101.63 163.22 100.34 162.12 99.85 C 161.01 99.35 159.72 99.85 159.23 100.95 Z M 158.82 101.86 L 158.41 102.77 C 157.92 103.88 158.42 105.17 159.53 105.66 C 160.63 106.15 161.93 105.65 162.41 104.55 L 162.82 103.63 C 163.31 102.53 162.81 101.23 161.71 100.74 C 160.60 100.26 159.31 100.75 158.82 101.86 Z M 158.41 102.78 L 158.00 103.71 C 157.52 104.82 158.02 106.11 159.13 106.59 C 160.24 107.08 161.53 106.57 162.01 105.47 L 162.42 104.54 C 162.90 103.43 162.40 102.14 161.29 101.66 C 160.18 101.17 158.89 101.68 158.41 102.78 Z M 158.00 103.72 L 157.59 104.66 C 157.11 105.77 157.62 107.06 158.73 107.54 C 159.84 108.02 161.13 107.51 161.61 106.40 L 162.02 105.46 C 162.50 104.35 161.99 103.06 160.88 102.58 C 159.77 102.10 158.48 102.61 158.00 103.72 Z M 157.59 104.67 L 157.18 105.63 C 156.70 106.74 157.22 108.03 158.33 108.51 C 159.44 108.98 160.72 108.47 161.20 107.35 L 161.61 106.39 C 162.09 105.28 161.57 104.00 160.46 103.52 C 159.35 103.05 158.06 103.56 157.59 104.67 Z M 157.17 105.64 L 156.77 106.60 C 156.30 107.71 156.82 108.99 157.93 109.46 C 159.04 109.93 160.33 109.41 160.80 108.30 L 161.20 107.35 C 161.67 106.23 161.15 104.95 160.04 104.48 C 158.93 104.01 157.64 104.53 157.17 105.64 Z M 156.76 106.60 L 156.39 107.51 C 155.92 108.63 156.44 109.91 157.56 110.37 C 158.67 110.84 159.96 110.32 160.42 109.20 L 160.80 108.29 C 161.27 107.18 160.74 105.90 159.63 105.43 C 158.51 104.96 157.23 105.49 156.76 106.60 Z M 156.38 107.52 L 156.00 108.44 C 155.54 109.55 156.07 110.83 157.19 111.30 C 158.30 111.76 159.58 111.23 160.05 110.11 L 160.43 109.19 C 160.89 108.08 160.36 106.80 159.24 106.33 C 158.13 105.87 156.85 106.40 156.38 107.52 Z M 156.00 108.44 L 155.62 109.37 C 155.16 110.49 155.69 111.77 156.81 112.23 C 157.93 112.69 159.21 112.15 159.67 111.03 L 160.05 110.11 C 160.51 108.99 159.97 107.71 158.86 107.25 C 157.74 106.79 156.46 107.32 156.00 108.44 Z M 155.62 109.37 L 155.23 110.31 C 154.78 111.43 155.31 112.70 156.43 113.16 C 157.55 113.62 158.83 113.08 159.29 111.96 L 159.67 111.03 C 160.13 109.91 159.59 108.63 158.47 108.17 C 157.35 107.72 156.07 108.25 155.62 109.37 Z M 155.23 110.31 L 154.85 111.25 C 154.39 112.37 154.93 113.64 156.05 114.10 C 157.17 114.56 158.45 114.02 158.91 112.90 L 159.29 111.96 C 159.74 110.84 159.21 109.56 158.09 109.11 C 156.97 108.65 155.69 109.19 155.23 110.31 Z M 154.85 111.25 L 154.47 112.19 C 154.02 113.31 154.56 114.58 155.68 115.04 C 156.80 115.49 158.07 114.95 158.53 113.83 L 158.91 112.89 C 159.36 111.77 158.82 110.50 157.70 110.04 C 156.58 109.59 155.30 110.13 154.85 111.25 Z M 154.47 112.19 L 154.09 113.12 C 153.64 114.24 154.18 115.52 155.30 115.97 C 156.42 116.43 157.70 115.89 158.15 114.77 L 158.53 113.83 C 158.98 112.71 158.44 111.43 157.32 110.98 C 156.20 110.52 154.92 111.07 154.47 112.19 Z M 154.09 113.12 L 153.71 114.05 C 153.26 115.18 153.80 116.45 154.92 116.91 C 156.05 117.36 157.32 116.82 157.78 115.70 L 158.15 114.76 C 158.60 113.64 158.06 112.37 156.94 111.91 C 155.82 111.46 154.54 112.00 154.09 113.12 Z M 153.71 114.05 L 153.34 114.98 C 152.89 116.10 153.43 117.38 154.55 117.83 C 155.67 118.28 156.95 117.74 157.40 116.62 L 157.78 115.70 C 158.23 114.57 157.69 113.30 156.57 112.84 C 155.44 112.39 154.17 112.93 153.71 114.05 Z M 153.34 114.98 L 152.97 115.89 C 152.52 117.02 153.06 118.29 154.18 118.75 C 155.30 119.20 156.58 118.66 157.03 117.54 L 157.40 116.62 C 157.86 115.50 157.32 114.22 156.19 113.77 C 155.07 113.31 153.79 113.85 153.34 114.98 Z M 152.97 115.89 L 152.58 116.86 C 152.12 117.99 152.66 119.26 153.78 119.72 C 154.91 120.17 156.18 119.63 156.64 118.51 L 157.03 117.54 C 157.49 116.42 156.95 115.14 155.82 114.68 C 154.70 114.23 153.43 114.77 152.97 115.89 Z M 152.58 116.86 L 152.19 117.82 C 151.73 118.94 152.27 120.22 153.39 120.68 C 154.51 121.13 155.79 120.59 156.25 119.47 L 156.64 118.51 C 157.09 117.39 156.55 116.11 155.43 115.66 C 154.31 115.20 153.03 115.74 152.58 116.86 Z M 152.19 117.82 L 151.80 118.77 C 151.35 119.89 151.89 121.17 153.01 121.62 C 154.13 122.08 155.41 121.54 155.86 120.42 L 156.25 119.47 C 156.70 118.35 156.16 117.07 155.04 116.62 C 153.92 116.16 152.64 116.70 152.19 117.82 Z M 151.80 118.77 L 151.42 119.70 C 150.97 120.82 151.50 122.10 152.62 122.56 C 153.74 123.01 155.02 122.47 155.48 121.35 L 155.86 120.42 C 156.32 119.30 155.78 118.02 154.66 117.56 C 153.54 117.11 152.26 117.64 151.80 118.77 Z M 151.42 119.70 L 151.05 120.62 C 150.59 121.74 151.13 123.02 152.25 123.48 C 153.37 123.94 154.65 123.40 155.10 122.28 L 155.48 121.35 C 155.94 120.23 155.40 118.96 154.28 118.50 C 153.16 118.04 151.88 118.58 151.42 119.70 Z M 151.05 120.62 L 150.67 121.54 C 150.22 122.66 150.75 123.94 151.87 124.39 C 152.99 124.85 154.27 124.31 154.73 123.19 L 155.10 122.28 C 155.56 121.16 155.02 119.88 153.90 119.42 C 152.78 118.96 151.50 119.50 151.05 120.62 Z M 150.67 121.54 L 150.30 122.44 C 149.84 123.56 150.38 124.84 151.50 125.30 C 152.62 125.76 153.90 125.22 154.36 124.10 L 154.73 123.19 C 155.19 122.07 154.65 120.79 153.53 120.34 C 152.41 119.88 151.13 120.42 150.67 121.54 Z M 150.30 122.44 L 149.94 123.34 C 149.48 124.46 150.02 125.74 151.14 126.20 C 152.26 126.65 153.53 126.12 153.99 125.00 L 154.36 124.10 C 154.82 122.98 154.28 121.70 153.16 121.24 C 152.04 120.78 150.76 121.32 150.30 122.44 Z M 149.94 123.34 L 149.57 124.23 C 149.11 125.35 149.65 126.63 150.77 127.09 C 151.89 127.55 153.17 127.01 153.63 125.89 L 153.99 125.00 C 154.45 123.88 153.91 122.60 152.79 122.14 C 151.67 121.68 150.39 122.22 149.94 123.34 Z M 149.57 124.23 L 149.19 125.16 C 148.74 126.28 149.27 127.56 150.39 128.02 C 151.52 128.47 152.79 127.93 153.25 126.81 L 153.63 125.89 C 154.09 124.77 153.55 123.49 152.43 123.03 C 151.31 122.58 150.03 123.11 149.57 124.23 Z M 149.19 125.16 L 148.81 126.11 C 148.35 127.23 148.89 128.51 150.01 128.96 C 151.13 129.42 152.41 128.88 152.87 127.76 L 153.25 126.81 C 153.71 125.69 153.17 124.41 152.05 123.96 C 150.93 123.50 149.65 124.04 149.19 125.16 Z M 148.81 126.11 L 148.43 127.05 C 147.97 128.17 148.51 129.45 149.63 129.90 C 150.75 130.36 152.03 129.82 152.48 128.70 L 152.87 127.76 C 153.32 126.64 152.78 125.36 151.66 124.90 C 150.54 124.45 149.26 124.99 148.81 126.11 Z M 148.42 127.05 L 148.05 127.98 C 147.59 129.10 148.13 130.38 149.25 130.84 C 150.37 131.29 151.65 130.75 152.11 129.63 L 152.48 128.70 C 152.94 127.58 152.40 126.30 151.28 125.84 C 150.16 125.39 148.88 125.93 148.42 127.05 Z M 148.04 127.98 L 147.67 128.91 C 147.21 130.03 147.75 131.31 148.88 131.77 C 150.00 132.22 151.27 131.68 151.73 130.56 L 152.11 129.63 C 152.56 128.51 152.02 127.23 150.90 126.78 C 149.78 126.32 148.50 126.86 148.04 127.98 Z M 147.67 128.91 L 147.29 129.83 C 146.84 130.96 147.38 132.23 148.50 132.69 C 149.62 133.14 150.90 132.60 151.36 131.48 L 151.73 130.56 C 152.18 129.44 151.64 128.16 150.52 127.70 C 149.40 127.25 148.12 127.79 147.67 128.91 Z M 147.29 129.84 L 146.92 130.75 C 146.47 131.87 147.01 133.15 148.13 133.61 C 149.25 134.06 150.53 133.52 150.99 132.40 L 151.36 131.48 C 151.81 130.36 151.27 129.08 150.15 128.63 C 149.02 128.17 147.75 128.71 147.29 129.84 Z M 146.92 130.75 L 146.55 131.67 C 146.10 132.79 146.64 134.06 147.77 134.52 C 148.89 134.97 150.16 134.43 150.62 133.31 L 150.99 132.39 C 151.44 131.27 150.90 130.00 149.77 129.54 C 148.65 129.09 147.38 129.63 146.92 130.75 Z M 146.55 131.67 L 146.19 132.57 C 145.74 133.69 146.28 134.97 147.40 135.42 C 148.52 135.88 149.80 135.33 150.25 134.21 L 150.62 133.30 C 151.07 132.18 150.53 130.91 149.41 130.45 C 148.28 130.00 147.01 130.54 146.55 131.67 Z M 146.19 132.57 L 145.81 133.52 C 145.36 134.64 145.90 135.92 147.02 136.37 C 148.14 136.82 149.42 136.28 149.87 135.16 L 150.25 134.21 C 150.71 133.09 150.16 131.81 149.04 131.36 C 147.92 130.91 146.64 131.45 146.19 132.57 Z M 145.81 133.52 L 145.43 134.47 C 144.97 135.59 145.52 136.87 146.64 137.32 C 147.76 137.77 149.04 137.23 149.49 136.10 L 149.87 135.15 C 150.32 134.03 149.78 132.76 148.66 132.31 C 147.54 131.85 146.26 132.40 145.81 133.52 Z M 145.43 134.47 L 145.05 135.41 C 144.60 136.54 145.14 137.81 146.26 138.26 C 147.39 138.71 148.66 138.17 149.11 137.05 L 149.49 136.10 C 149.94 134.98 149.40 133.71 148.27 133.26 C 147.15 132.80 145.88 133.35 145.43 134.47 Z M 145.05 135.41 L 144.67 136.35 C 144.22 137.47 144.77 138.75 145.89 139.20 C 147.01 139.65 148.29 139.10 148.74 137.98 L 149.11 137.05 C 149.56 135.92 149.02 134.65 147.90 134.20 C 146.77 133.75 145.50 134.29 145.05 135.41 Z M 144.67 136.35 L 144.30 137.28 C 143.85 138.40 144.39 139.67 145.52 140.13 C 146.64 140.58 147.91 140.03 148.36 138.91 L 148.74 137.98 C 149.19 136.86 148.64 135.58 147.52 135.13 C 146.40 134.68 145.12 135.23 144.67 136.35 Z M 144.30 137.28 L 143.93 138.20 C 143.48 139.32 144.03 140.59 145.15 141.04 C 146.27 141.49 147.54 140.95 147.99 139.83 L 148.36 138.91 C 148.81 137.79 148.27 136.51 147.15 136.06 C 146.03 135.61 144.75 136.16 144.30 137.28 Z M 143.93 138.20 L 143.57 139.11 C 143.12 140.23 143.66 141.50 144.78 141.95 C 145.90 142.40 147.18 141.86 147.63 140.74 L 147.99 139.83 C 148.44 138.71 147.90 137.43 146.78 136.98 C 145.66 136.53 144.38 137.08 143.93 138.20 Z M 143.57 139.11 L 143.20 140.01 C 142.75 141.13 143.30 142.40 144.42 142.85 C 145.54 143.31 146.81 142.76 147.26 141.64 L 147.63 140.74 C 148.08 139.62 147.53 138.34 146.41 137.89 C 145.29 137.44 144.02 137.99 143.57 139.11 Z M 143.21 140.01 L 142.83 140.94 C 142.38 142.06 142.92 143.34 144.04 143.79 C 145.16 144.24 146.43 143.70 146.89 142.58 L 147.26 141.64 C 147.71 140.52 147.17 139.25 146.05 138.80 C 144.93 138.34 143.66 138.89 143.21 140.01 Z M 142.83 140.94 L 142.44 141.90 C 141.99 143.02 142.53 144.29 143.65 144.74 C 144.77 145.20 146.05 144.65 146.50 143.54 L 146.89 142.58 C 147.34 141.46 146.80 140.18 145.68 139.73 C 144.56 139.28 143.28 139.82 142.83 140.94 Z M 142.44 141.90 L 142.06 142.84 C 141.61 143.96 142.15 145.24 143.27 145.69 C 144.39 146.14 145.66 145.60 146.11 144.48 L 146.50 143.54 C 146.95 142.42 146.41 141.14 145.29 140.69 C 144.17 140.24 142.90 140.78 142.44 141.90 Z M 142.06 142.84 L 141.68 143.78 C 141.23 144.90 141.77 146.17 142.89 146.62 C 144.01 147.08 145.28 146.54 145.73 145.42 L 146.11 144.48 C 146.57 143.37 146.03 142.09 144.91 141.64 C 143.79 141.18 142.52 141.72 142.06 142.84 Z M 141.68 143.78 L 141.31 144.70 C 140.85 145.82 141.39 147.09 142.51 147.55 C 143.63 148.00 144.90 147.46 145.36 146.34 L 145.73 145.42 C 146.19 144.30 145.65 143.03 144.53 142.57 C 143.41 142.12 142.14 142.66 141.68 143.78 Z M 141.31 144.70 L 140.94 145.61 C 140.48 146.73 141.02 148.00 142.14 148.46 C 143.25 148.91 144.53 148.38 144.98 147.26 L 145.36 146.35 C 145.81 145.23 145.27 143.95 144.16 143.50 C 143.04 143.04 141.76 143.58 141.31 144.70 Z M 140.94 145.61 L 140.57 146.51 C 140.12 147.63 140.65 148.90 141.77 149.36 C 142.88 149.81 144.16 149.28 144.62 148.16 L 144.98 147.26 C 145.44 146.14 144.90 144.87 143.79 144.41 C 142.67 143.96 141.40 144.49 140.94 145.61 Z M 140.57 146.51 L 140.21 147.40 C 139.75 148.51 140.29 149.79 141.40 150.25 C 142.52 150.70 143.79 150.17 144.25 149.05 L 144.61 148.16 C 145.07 147.05 144.54 145.77 143.42 145.31 C 142.30 144.86 141.03 145.39 140.57 146.51 Z M 140.21 147.40 L 139.82 148.34 C 139.37 149.45 139.90 150.73 141.01 151.19 C 142.13 151.64 143.40 151.11 143.86 150.00 L 144.25 149.05 C 144.71 147.94 144.17 146.66 143.06 146.21 C 141.94 145.75 140.67 146.28 140.21 147.40 Z M 139.82 148.34 L 139.44 149.27 C 138.98 150.39 139.51 151.66 140.63 152.12 C 141.74 152.58 143.01 152.05 143.47 150.94 L 143.86 150.00 C 144.32 148.88 143.79 147.61 142.67 147.15 C 141.56 146.69 140.28 147.22 139.82 148.34 Z M 139.44 149.27 L 139.06 150.20 C 138.60 151.31 139.13 152.59 140.24 153.05 C 141.35 153.51 142.63 152.98 143.09 151.87 L 143.47 150.94 C 143.93 149.83 143.40 148.55 142.29 148.09 C 141.18 147.63 139.90 148.16 139.44 149.27 Z M 139.06 150.19 L 138.68 151.11 C 138.21 152.22 138.74 153.50 139.85 153.96 C 140.96 154.43 142.24 153.90 142.70 152.79 L 143.08 151.87 C 143.55 150.76 143.02 149.48 141.91 149.02 C 140.80 148.56 139.52 149.08 139.06 150.19 Z M 138.68 151.11 L 138.30 152.02 C 137.83 153.13 138.35 154.41 139.46 154.87 C 140.57 155.34 141.85 154.82 142.31 153.71 L 142.70 152.80 C 143.16 151.69 142.64 150.41 141.53 149.94 C 140.42 149.48 139.15 150.00 138.68 151.11 Z M 138.30 152.02 L 137.91 152.92 C 137.45 154.03 137.96 155.31 139.07 155.78 C 140.18 156.25 141.46 155.73 141.93 154.62 L 142.31 153.72 C 142.78 152.61 142.26 151.33 141.16 150.86 C 140.05 150.39 138.77 150.91 138.30 152.02 Z M 137.92 152.92 L 137.53 153.83 C 137.06 154.93 137.57 156.21 138.67 156.68 C 139.78 157.16 141.06 156.64 141.53 155.54 L 141.92 154.63 C 142.39 153.53 141.88 152.25 140.78 151.77 C 139.67 151.30 138.39 151.81 137.92 152.92 Z M 137.53 153.82 L 137.12 154.77 C 136.65 155.87 137.15 157.15 138.26 157.63 C 139.36 158.11 140.64 157.60 141.12 156.50 L 141.53 155.55 C 142.01 154.44 141.50 153.16 140.40 152.69 C 139.29 152.21 138.01 152.71 137.53 153.82 Z M 137.13 154.76 L 136.71 155.71 C 136.23 156.81 136.73 158.09 137.83 158.58 C 138.93 159.06 140.21 158.56 140.70 157.46 L 141.11 156.50 C 141.59 155.40 141.09 154.12 139.99 153.64 C 138.89 153.16 137.61 153.66 137.13 154.76 Z M 136.72 155.70 L 136.30 156.64 C 135.81 157.74 136.31 159.03 137.41 159.51 C 138.51 160.00 139.79 159.50 140.28 158.40 L 140.69 157.46 C 141.18 156.37 140.68 155.08 139.58 154.60 C 138.48 154.11 137.20 154.61 136.72 155.70 Z M 136.30 156.64 L 135.89 157.56 C 135.40 158.66 135.89 159.94 136.99 160.43 C 138.09 160.92 139.37 160.43 139.86 159.33 L 140.27 158.41 C 140.76 157.31 140.27 156.03 139.17 155.54 C 138.08 155.05 136.79 155.54 136.30 156.64 Z M 135.89 157.56 L 135.49 158.46 C 135.00 159.55 135.48 160.84 136.58 161.33 C 137.67 161.82 138.96 161.33 139.45 160.24 L 139.86 159.34 C 140.35 158.25 139.86 156.96 138.77 156.47 C 137.67 155.97 136.39 156.46 135.89 157.56 Z M 135.49 158.45 L 135.10 159.32 C 134.60 160.41 135.08 161.70 136.17 162.20 C 137.27 162.69 138.55 162.21 139.05 161.12 L 139.45 160.25 C 139.94 159.16 139.46 157.87 138.37 157.37 C 137.28 156.88 135.99 157.36 135.49 158.45 Z M 135.10 159.32 L 134.72 160.15 C 134.22 161.24 134.69 162.53 135.78 163.03 C 136.87 163.53 138.16 163.05 138.66 161.96 L 139.05 161.13 C 139.55 160.04 139.07 158.75 137.98 158.25 C 136.89 157.75 135.60 158.23 135.10 159.32 Z M 134.72 160.15 L 134.34 160.96 C 133.84 162.05 134.31 163.34 135.40 163.84 C 136.49 164.34 137.78 163.87 138.28 162.78 L 138.66 161.97 C 139.16 160.88 138.69 159.59 137.60 159.09 C 136.51 158.59 135.22 159.06 134.72 160.15 Z M 134.35 160.96 L 133.97 161.77 C 133.47 162.85 133.94 164.14 135.02 164.64 C 136.11 165.15 137.39 164.68 137.90 163.60 L 138.28 162.79 C 138.78 161.70 138.31 160.41 137.23 159.91 C 136.14 159.40 134.85 159.87 134.35 160.96 Z M 133.97 161.76 L 133.59 162.59 C 133.08 163.68 133.55 164.96 134.63 165.47 C 135.71 165.98 137.00 165.51 137.51 164.43 L 137.90 163.60 C 138.40 162.51 137.94 161.23 136.85 160.72 C 135.77 160.21 134.48 160.68 133.97 161.76 Z M 133.59 162.59 L 133.18 163.47 C 132.67 164.55 133.14 165.84 134.22 166.35 C 135.30 166.85 136.59 166.39 137.10 165.31 L 137.51 164.43 C 138.01 163.34 137.55 162.06 136.47 161.55 C 135.38 161.04 134.10 161.51 133.59 162.59 Z M 133.18 163.47 L 132.73 164.43 C 132.22 165.51 132.69 166.80 133.77 167.30 C 134.85 167.81 136.14 167.34 136.65 166.26 L 137.09 165.30 C 137.60 164.22 137.13 162.94 136.05 162.43 C 134.97 161.92 133.68 162.39 133.18 163.47 Z M 132.73 164.43 L 132.24 165.49 C 131.73 166.58 132.20 167.86 133.28 168.37 C 134.36 168.87 135.65 168.40 136.15 167.32 L 136.65 166.26 C 137.15 165.18 136.68 163.89 135.60 163.39 C 134.52 162.88 133.24 163.35 132.73 164.43 Z M 132.24 165.50 L 131.80 166.43 C 131.30 167.51 131.77 168.80 132.85 169.30 C 133.93 169.80 135.21 169.33 135.72 168.25 L 136.15 167.32 C 136.65 166.24 136.18 164.95 135.10 164.45 C 134.02 163.95 132.74 164.42 132.24 165.50 Z M 131.80 166.44 L 131.42 167.26 C 130.92 168.34 131.39 169.62 132.47 170.12 C 133.55 170.62 134.83 170.15 135.33 169.07 L 135.71 168.25 C 136.21 167.17 135.74 165.89 134.66 165.39 C 133.58 164.89 132.30 165.36 131.80 166.44 Z M 131.42 167.26 L 131.02 168.13 C 130.53 169.21 131.00 170.49 132.08 170.99 C 133.16 171.48 134.43 171.01 134.93 169.93 L 135.33 169.07 C 135.83 167.99 135.36 166.71 134.28 166.21 C 133.20 165.71 131.92 166.18 131.42 167.26 Z M 131.02 168.13 L 130.61 169.04 C 130.11 170.12 130.59 171.39 131.67 171.89 C 132.74 172.38 134.02 171.91 134.52 170.83 L 134.93 169.93 C 135.43 168.85 134.95 167.57 133.87 167.08 C 132.80 166.58 131.52 167.06 131.02 168.13 Z M 130.61 169.04 L 130.18 169.98 C 129.69 171.05 130.17 172.33 131.25 172.82 C 132.32 173.31 133.60 172.84 134.09 171.76 L 134.52 170.83 C 135.01 169.75 134.53 168.48 133.45 167.98 C 132.38 167.49 131.10 167.97 130.61 169.04 Z M 130.18 169.98 L 129.75 170.93 C 129.26 172.01 129.74 173.28 130.82 173.77 C 131.90 174.26 133.17 173.78 133.66 172.70 L 134.09 171.75 C 134.58 170.68 134.10 169.40 133.02 168.92 C 131.94 168.43 130.67 168.90 130.18 169.98 Z M 129.75 170.94 L 129.32 171.90 C 128.84 172.98 129.32 174.24 130.39 174.73 C 131.47 175.22 132.74 174.74 133.23 173.66 L 133.66 172.70 C 134.14 171.62 133.66 170.35 132.58 169.87 C 131.51 169.38 130.24 169.86 129.75 170.94 Z M 129.32 171.91 L 128.89 172.87 C 128.41 173.95 128.90 175.21 129.97 175.69 C 131.05 176.17 132.32 175.69 132.80 174.61 L 133.23 173.65 C 133.71 172.57 133.22 171.31 132.14 170.83 C 131.07 170.34 129.80 170.83 129.32 171.91 Z M 128.89 172.88 L 128.47 173.83 C 128.00 174.91 128.48 176.17 129.56 176.64 C 130.64 177.12 131.90 176.63 132.38 175.55 L 132.80 174.60 C 133.27 173.52 132.79 172.26 131.71 171.79 C 130.63 171.31 129.37 171.80 128.89 172.88 Z M 128.47 173.84 L 128.06 174.77 C 127.59 175.85 128.08 177.11 129.16 177.58 C 130.24 178.05 131.50 177.56 131.97 176.48 L 132.38 175.54 C 132.85 174.46 132.36 173.21 131.28 172.74 C 130.20 172.27 128.94 172.76 128.47 173.84 Z M 128.06 174.78 L 127.65 175.75 C 127.18 176.83 127.68 178.08 128.76 178.55 C 129.84 179.01 131.09 178.51 131.56 177.43 L 131.97 176.46 C 132.44 175.38 131.94 174.13 130.86 173.67 C 129.78 173.20 128.53 173.70 128.06 174.78 Z M 127.64 175.77 L 127.20 176.82 C 126.74 177.91 127.25 179.15 128.33 179.61 C 129.41 180.06 130.66 179.56 131.11 178.47 L 131.56 177.41 C 132.02 176.33 131.51 175.09 130.43 174.63 C 129.35 174.18 128.10 174.68 127.64 175.77 Z M 127.20 176.84 L 126.78 177.86 C 126.33 178.94 126.85 180.18 127.93 180.62 C 129.01 181.07 130.25 180.55 130.70 179.47 L 131.12 178.46 C 131.56 177.37 131.05 176.13 129.96 175.69 C 128.88 175.24 127.64 175.76 127.20 176.84 Z M 126.78 177.88 L 126.38 178.85 C 125.95 179.93 126.47 181.16 127.56 181.60 C 128.64 182.04 129.87 181.51 130.31 180.43 L 130.70 179.45 C 131.14 178.37 130.61 177.14 129.53 176.70 C 128.44 176.27 127.21 176.79 126.78 177.88 Z M 126.38 178.87 L 126.02 179.80 C 125.59 180.89 126.13 182.11 127.21 182.54 C 128.30 182.96 129.52 182.43 129.95 181.34 L 130.31 180.41 C 130.74 179.32 130.20 178.10 129.12 177.67 C 128.03 177.25 126.81 177.78 126.38 178.87 Z M 126.01 179.82 L 125.67 180.73 C 125.26 181.81 125.80 183.03 126.89 183.44 C 127.98 183.86 129.19 183.31 129.61 182.22 L 129.95 181.32 C 130.36 180.23 129.82 179.02 128.73 178.60 C 127.64 178.19 126.43 178.74 126.01 179.82 Z M 125.67 180.75 L 125.35 181.62 C 124.94 182.71 125.50 183.92 126.59 184.32 C 127.68 184.72 128.89 184.16 129.29 183.07 L 129.61 182.20 C 130.01 181.11 129.45 179.91 128.37 179.50 C 127.28 179.10 126.07 179.66 125.67 180.75 Z M 125.34 181.64 L 125.04 182.49 C 124.65 183.58 125.22 184.78 126.31 185.17 C 127.40 185.56 128.60 184.99 128.99 183.90 L 129.29 183.05 C 129.68 181.96 129.11 180.76 128.02 180.37 C 126.93 179.98 125.73 180.55 125.34 181.64 Z M 125.04 182.51 L 124.75 183.33 C 124.37 184.42 124.95 185.61 126.05 185.99 C 127.14 186.37 128.33 185.79 128.71 184.70 L 128.99 183.88 C 129.37 182.78 128.79 181.59 127.70 181.22 C 126.61 180.84 125.42 181.42 125.04 182.51 Z M 124.75 183.35 L 124.43 184.30 C 124.07 185.40 124.66 186.58 125.75 186.94 C 126.85 187.31 128.03 186.72 128.39 185.63 L 128.71 184.68 C 129.07 183.58 128.48 182.40 127.39 182.04 C 126.30 181.67 125.12 182.26 124.75 183.35 Z M 124.43 184.33 L 124.13 185.28 C 123.77 186.37 124.38 187.55 125.47 187.90 C 126.56 188.25 127.74 187.65 128.09 186.55 L 128.39 185.60 C 128.75 184.51 128.14 183.34 127.05 182.98 C 125.96 182.63 124.78 183.23 124.43 184.33 Z M 124.13 185.30 L 123.83 186.24 C 123.49 187.33 124.10 188.50 125.20 188.84 C 126.29 189.18 127.45 188.57 127.79 187.48 L 128.09 186.54 C 128.43 185.44 127.82 184.28 126.72 183.94 C 125.63 183.60 124.47 184.21 124.13 185.30 Z M 123.83 186.26 L 123.55 187.19 C 123.22 188.29 123.83 189.44 124.92 189.78 C 126.02 190.11 127.17 189.49 127.51 188.40 L 127.79 187.46 C 128.12 186.37 127.51 185.21 126.42 184.88 C 125.32 184.55 124.17 185.16 123.83 186.26 Z M 123.55 187.20 L 123.27 188.15 C 122.94 189.24 123.56 190.39 124.65 190.72 C 125.74 191.04 126.89 190.42 127.22 189.33 L 127.50 188.39 C 127.83 187.30 127.21 186.15 126.12 185.82 C 125.03 185.49 123.88 186.11 123.55 187.20 Z M 123.27 188.15 L 122.99 189.11 C 122.66 190.20 123.28 191.34 124.37 191.67 C 125.46 191.99 126.60 191.37 126.93 190.29 L 127.21 189.33 C 127.54 188.24 126.92 187.09 125.83 186.77 C 124.74 186.44 123.60 187.06 123.27 188.15 Z M 122.99 189.11 L 122.70 190.09 C 122.37 191.17 122.99 192.32 124.08 192.64 C 125.16 192.97 126.30 192.35 126.63 191.27 L 126.92 190.29 C 127.25 189.20 126.63 188.06 125.55 187.73 C 124.46 187.41 123.32 188.02 122.99 189.11 Z M 122.71 190.09 L 122.42 191.04 C 122.09 192.12 122.70 193.26 123.78 193.59 C 124.86 193.91 126.00 193.30 126.33 192.22 L 126.62 191.27 C 126.95 190.19 126.34 189.05 125.26 188.72 C 124.18 188.39 123.03 189.00 122.71 190.09 Z M 122.43 191.03 L 122.13 191.99 C 121.80 193.07 122.40 194.21 123.48 194.54 C 124.55 194.87 125.70 194.27 126.03 193.19 L 126.32 192.23 C 126.66 191.15 126.05 190.01 124.98 189.68 C 123.90 189.35 122.76 189.95 122.43 191.03 Z M 122.14 191.98 L 121.83 192.96 C 121.50 194.03 122.09 195.17 123.16 195.51 C 124.23 195.85 125.38 195.25 125.71 194.18 L 126.02 193.20 C 126.36 192.13 125.76 190.99 124.69 190.65 C 123.62 190.32 122.47 190.91 122.14 191.98 Z M 121.84 192.95 L 121.53 193.92 C 121.18 194.99 121.77 196.13 122.84 196.47 C 123.90 196.82 125.05 196.23 125.39 195.16 L 125.70 194.19 C 126.05 193.12 125.46 191.98 124.39 191.64 C 123.33 191.29 122.18 191.88 121.84 192.95 Z M 121.54 193.91 L 121.22 194.87 C 120.87 195.93 121.44 197.08 122.50 197.43 C 123.56 197.78 124.71 197.20 125.06 196.14 L 125.38 195.18 C 125.73 194.12 125.16 192.97 124.09 192.62 C 123.03 192.27 121.89 192.85 121.54 193.91 Z M 121.23 194.85 L 120.91 195.80 C 120.55 196.85 121.11 198.00 122.16 198.36 C 123.22 198.72 124.36 198.16 124.73 197.10 L 125.05 196.16 C 125.41 195.11 124.85 193.96 123.79 193.60 C 122.74 193.24 121.59 193.80 121.23 194.85 Z M 120.92 195.78 L 120.60 196.69 C 120.22 197.74 120.77 198.89 121.82 199.26 C 122.86 199.63 124.01 199.09 124.39 198.04 L 124.71 197.13 C 125.08 196.08 124.54 194.93 123.49 194.55 C 122.44 194.18 121.29 194.73 120.92 195.78 Z M 120.61 196.66 L 120.25 197.63 C 119.86 198.67 120.39 199.82 121.43 200.21 C 122.47 200.60 123.62 200.07 124.01 199.04 L 124.37 198.07 C 124.76 197.03 124.23 195.87 123.19 195.49 C 122.16 195.10 121.00 195.63 120.61 196.66 Z M 120.28 197.59 L 119.87 198.60 C 119.46 199.62 119.96 200.78 120.98 201.20 C 122.00 201.61 123.17 201.11 123.58 200.09 L 123.98 199.08 C 124.40 198.05 123.90 196.89 122.87 196.48 C 121.85 196.07 120.69 196.56 120.28 197.59 Z M 119.91 198.53 L 119.49 199.47 C 119.04 200.48 119.49 201.65 120.49 202.10 C 121.50 202.55 122.67 202.10 123.12 201.10 L 123.54 200.15 C 123.99 199.15 123.54 197.97 122.54 197.52 C 121.53 197.08 120.36 197.53 119.91 198.53 Z M 119.54 199.39 L 119.09 200.27 C 118.59 201.24 118.98 202.43 119.96 202.93 C 120.93 203.43 122.12 203.04 122.62 202.06 L 123.07 201.18 C 123.56 200.21 123.18 199.02 122.20 198.52 C 121.23 198.02 120.03 198.41 119.54 199.39 Z M 119.16 200.16 L 118.67 200.98 C 118.12 201.91 118.43 203.12 119.36 203.68 C 120.30 204.24 121.51 203.93 122.06 202.99 L 122.55 202.17 C 123.11 201.24 122.80 200.03 121.86 199.47 C 120.93 198.91 119.72 199.22 119.16 200.16 Z M 118.77 200.85 L 118.23 201.61 C 117.61 202.49 117.82 203.72 118.70 204.34 C 119.59 204.97 120.81 204.76 121.44 203.87 L 121.97 203.12 C 122.60 202.23 122.39 201.01 121.50 200.38 C 120.62 199.75 119.39 199.97 118.77 200.85 Z M 118.35 201.47 L 117.74 202.19 C 117.04 203.01 117.13 204.24 117.95 204.94 C 118.77 205.64 120.01 205.55 120.71 204.73 L 121.32 204.01 C 122.02 203.19 121.92 201.96 121.10 201.25 C 120.28 200.55 119.05 200.65 118.35 201.47 Z M 117.87 202.06 L 117.16 202.74 C 116.39 203.49 116.37 204.72 117.12 205.49 C 117.87 206.26 119.10 206.28 119.87 205.54 L 120.57 204.85 C 121.35 204.10 121.37 202.87 120.62 202.10 C 119.87 201.33 118.64 201.31 117.87 202.06 Z M 117.28 202.65 L 116.52 203.28 C 115.70 203.96 115.58 205.18 116.27 206.00 C 116.95 206.83 118.16 206.94 118.99 206.26 L 119.75 205.63 C 120.57 204.95 120.69 203.73 120.01 202.91 C 119.32 202.08 118.11 201.97 117.28 202.65 Z M 116.62 203.22 L 115.81 203.81 C 114.95 204.44 114.77 205.65 115.40 206.50 C 116.03 207.36 117.23 207.54 118.09 206.91 L 118.89 206.32 C 119.75 205.69 119.93 204.49 119.30 203.63 C 118.67 202.78 117.47 202.59 116.62 203.22 Z M 115.88 203.78 L 115.04 204.34 C 114.17 204.94 113.94 206.12 114.53 207.00 C 115.12 207.87 116.31 208.10 117.18 207.51 L 118.02 206.95 C 118.89 206.36 119.12 205.17 118.53 204.29 C 117.94 203.42 116.75 203.19 115.88 203.78 Z M 115.08 204.33 L 114.23 204.88 C 113.35 205.45 113.09 206.62 113.66 207.51 C 114.23 208.39 115.40 208.64 116.29 208.08 L 117.14 207.53 C 118.02 206.96 118.28 205.78 117.71 204.90 C 117.14 204.02 115.96 203.76 115.08 204.33 Z M 114.24 204.88 L 114.03 205.02 C 113.14 205.58 112.88 206.75 113.45 207.63 C 114.01 208.51 115.18 208.77 116.06 208.21 L 116.27 208.07 C 117.16 207.51 117.42 206.34 116.85 205.46 C 116.29 204.58 115.12 204.32 114.24 204.88 Z"
      fill="black"
      fill-rule="nonzero" /></svg>