<svg xmlns="http://www.w3.org/2000/svg" width="300" height="300" viewBox="0 0 300 300">
<path d="M 176.21 68.75 L 175.73 67.65 C 175.33 66.74 174.27 66.33 173.37 66.73 C 172.46 67.13 172.05 68.19 172.45 69.09 L 172.94 70.19 C 173.33 71.10 174.39 71.51 175.30 71.11 C 176.20 70.71 176.61 69.66 176.21 68.75 Z M 175.69 67.54 L 175.18 66.56 C 174.72 65.67 173.63 65.33 172.75 65.79 C 171.86 66.25 171.52 67.34 171.98 68.22 L 172.49 69.20 C 172.95 70.09 174.04 70.43 174.92 69.97 C 175.81 69.51 176.15 68.42 175.69 67.54 Z M 175.02 66.29 L 174.46 65.55 C 173.85 64.76 172.71 64.60 171.92 65.21 C 171.12 65.82 170.97 66.96 171.57 67.76 L 172.14 68.49 C 172.74 69.29 173.88 69.44 174.68 68.83 C 175.48 68.22 175.63 67.08 175.02 66.29 Z M 173.93 65.07 L 173.29 64.70 C 172.42 64.20 171.30 64.50 170.80 65.38 C 170.29 66.25 170.59 67.37 171.47 67.87 L 172.11 68.24 C 172.98 68.74 174.10 68.44 174.60 67.57 C 175.11 66.69 174.80 65.57 173.93 65.07 Z M 172.27 64.46 L 171.73 64.49 C 170.72 64.55 169.95 65.42 170.01 66.44 C 170.07 67.45 170.94 68.22 171.96 68.15 L 172.49 68.12 C 173.51 68.06 174.28 67.19 174.21 66.18 C 174.15 65.16 173.28 64.39 172.27 64.46 Z M 171.03 64.67 L 170.45 64.96 C 169.54 65.40 169.16 66.51 169.61 67.42 C 170.06 68.33 171.16 68.70 172.07 68.26 L 172.65 67.97 C 173.56 67.53 173.94 66.42 173.49 65.51 C 173.04 64.60 171.94 64.22 171.03 64.67 Z M 170.12 65.16 L 169.46 65.69 C 168.66 66.32 168.52 67.47 169.15 68.27 C 169.78 69.07 170.94 69.20 171.74 68.57 L 172.40 68.05 C 173.20 67.42 173.33 66.27 172.71 65.47 C 172.08 64.67 170.92 64.53 170.12 65.16 Z M 169.30 65.82 L 168.54 66.57 C 167.82 67.29 167.81 68.45 168.53 69.18 C 169.24 69.90 170.41 69.91 171.13 69.19 L 171.89 68.44 C 172.62 67.72 172.62 66.56 171.91 65.84 C 171.19 65.11 170.03 65.11 169.30 65.82 Z M 168.47 66.65 L 167.59 67.62 C 166.91 68.38 166.97 69.54 167.73 70.22 C 168.49 70.91 169.65 70.84 170.33 70.09 L 171.21 69.11 C 171.89 68.36 171.83 67.19 171.07 66.51 C 170.31 65.83 169.15 65.89 168.47 66.65 Z M 167.56 67.66 L 166.59 68.80 C 165.93 69.58 166.02 70.74 166.80 71.40 C 167.58 72.06 168.74 71.97 169.40 71.19 L 170.37 70.05 C 171.03 69.27 170.93 68.11 170.16 67.45 C 169.38 66.79 168.22 66.88 167.56 67.66 Z M 166.57 68.82 L 166.00 69.51 C 165.34 70.30 165.45 71.46 166.24 72.11 C 167.02 72.77 168.19 72.66 168.84 71.87 L 169.42 71.17 C 170.07 70.39 169.96 69.23 169.18 68.57 C 168.39 67.92 167.23 68.03 166.57 68.82 Z M 165.99 69.52 L 165.38 70.26 C 164.73 71.05 164.84 72.22 165.63 72.86 C 166.42 73.51 167.58 73.40 168.23 72.61 L 168.84 71.87 C 169.49 71.08 169.38 69.91 168.59 69.27 C 167.80 68.62 166.64 68.73 165.99 69.52 Z M 165.37 70.27 L 164.74 71.05 C 164.09 71.84 164.21 73.00 165.00 73.65 C 165.79 74.29 166.96 74.17 167.60 73.38 L 168.24 72.60 C 168.88 71.81 168.76 70.65 167.97 70.00 C 167.18 69.36 166.02 69.48 165.37 70.27 Z M 164.73 71.05 L 164.08 71.86 C 163.44 72.65 163.56 73.82 164.36 74.46 C 165.15 75.10 166.31 74.98 166.96 74.18 L 167.61 73.38 C 168.25 72.58 168.13 71.42 167.33 70.78 C 166.54 70.14 165.38 70.26 164.73 71.05 Z M 164.08 71.86 L 163.42 72.69 C 162.78 73.48 162.90 74.65 163.70 75.28 C 164.50 75.92 165.66 75.80 166.30 75.00 L 166.96 74.18 C 167.60 73.38 167.47 72.22 166.68 71.58 C 165.88 70.94 164.72 71.07 164.08 71.86 Z M 163.41 72.69 L 162.75 73.52 C 162.11 74.32 162.24 75.48 163.04 76.12 C 163.84 76.76 165.00 76.62 165.64 75.83 L 166.30 75.00 C 166.94 74.20 166.81 73.04 166.01 72.40 C 165.21 71.76 164.05 71.89 163.41 72.69 Z M 162.75 73.52 L 162.09 74.35 C 161.46 75.15 161.59 76.31 162.39 76.95 C 163.19 77.58 164.35 77.45 164.99 76.65 L 165.64 75.82 C 166.28 75.02 166.15 73.86 165.35 73.22 C 164.55 72.59 163.38 72.72 162.75 73.52 Z M 162.09 74.35 L 161.44 75.17 C 160.81 75.97 160.95 77.13 161.75 77.77 C 162.55 78.40 163.71 78.26 164.35 77.46 L 164.99 76.65 C 165.62 75.84 165.49 74.68 164.69 74.05 C 163.88 73.41 162.72 73.55 162.09 74.35 Z M 161.44 75.17 L 160.82 75.97 C 160.19 76.77 160.33 77.93 161.13 78.56 C 161.93 79.20 163.10 79.05 163.73 78.25 L 164.35 77.46 C 164.98 76.65 164.84 75.49 164.04 74.86 C 163.23 74.23 162.07 74.37 161.44 75.17 Z M 160.81 75.97 L 160.22 76.73 C 159.59 77.54 159.73 78.70 160.54 79.33 C 161.35 79.96 162.51 79.81 163.14 79.01 L 163.73 78.25 C 164.36 77.44 164.22 76.28 163.41 75.65 C 162.61 75.02 161.44 75.16 160.81 75.97 Z M 160.22 76.74 L 159.65 77.46 C 159.03 78.27 159.18 79.43 159.98 80.06 C 160.79 80.68 161.96 80.54 162.58 79.73 L 163.14 79.00 C 163.77 78.20 163.62 77.03 162.81 76.41 C 162.00 75.78 160.84 75.93 160.22 76.74 Z M 159.65 77.47 L 158.86 78.50 C 158.24 79.31 158.39 80.47 159.20 81.09 C 160.01 81.72 161.18 81.56 161.80 80.75 L 162.59 79.72 C 163.21 78.91 163.06 77.75 162.25 77.12 C 161.43 76.50 160.27 76.66 159.65 77.47 Z M 158.85 78.51 L 158.15 79.43 C 157.53 80.24 157.69 81.41 158.51 82.02 C 159.33 82.64 160.49 82.48 161.11 81.67 L 161.81 80.74 C 162.42 79.93 162.26 78.77 161.45 78.15 C 160.63 77.53 159.47 77.69 158.85 78.51 Z M 158.15 79.44 L 157.52 80.27 C 156.90 81.09 157.07 82.25 157.89 82.87 C 158.71 83.48 159.87 83.32 160.48 82.50 L 161.11 81.66 C 161.73 80.84 161.56 79.68 160.74 79.07 C 159.92 78.45 158.76 78.62 158.15 79.44 Z M 157.52 80.28 L 156.94 81.04 C 156.33 81.86 156.50 83.02 157.32 83.64 C 158.14 84.25 159.31 84.08 159.92 83.26 L 160.49 82.49 C 161.10 81.67 160.93 80.51 160.11 79.90 C 159.29 79.29 158.13 79.46 157.52 80.28 Z M 156.94 81.04 L 156.41 81.75 C 155.80 82.58 155.97 83.74 156.80 84.35 C 157.62 84.96 158.78 84.79 159.39 83.97 L 159.92 83.26 C 160.53 82.43 160.36 81.27 159.54 80.66 C 158.72 80.05 157.55 80.22 156.94 81.04 Z M 156.42 81.75 L 155.91 82.43 C 155.30 83.25 155.47 84.41 156.29 85.02 C 157.11 85.64 158.27 85.47 158.88 84.65 L 159.39 83.97 C 160.00 83.15 159.83 81.99 159.01 81.38 C 158.19 80.76 157.03 80.93 156.42 81.75 Z M 155.92 82.42 L 155.42 83.08 C 154.80 83.89 154.97 85.06 155.78 85.67 C 156.60 86.29 157.76 86.13 158.38 85.31 L 158.88 84.66 C 159.49 83.84 159.33 82.67 158.51 82.06 C 157.70 81.44 156.53 81.60 155.92 82.42 Z M 155.43 83.06 L 154.89 83.77 C 154.26 84.58 154.41 85.75 155.23 86.37 C 156.04 87.00 157.20 86.84 157.83 86.03 L 158.37 85.32 C 159.00 84.51 158.84 83.35 158.03 82.72 C 157.22 82.10 156.05 82.25 155.43 83.06 Z M 154.89 83.76 L 154.33 84.48 C 153.70 85.29 153.84 86.46 154.65 87.09 C 155.46 87.72 156.63 87.57 157.26 86.77 L 157.82 86.04 C 158.45 85.24 158.31 84.07 157.50 83.44 C 156.69 82.81 155.52 82.95 154.89 83.76 Z M 154.34 84.47 L 153.75 85.22 C 153.12 86.02 153.25 87.19 154.06 87.82 C 154.86 88.46 156.03 88.32 156.66 87.52 L 157.25 86.77 C 157.89 85.97 157.75 84.80 156.94 84.17 C 156.14 83.53 154.97 83.67 154.34 84.47 Z M 153.76 85.21 L 153.14 85.98 C 152.50 86.78 152.64 87.95 153.44 88.59 C 154.24 89.23 155.41 89.10 156.05 88.29 L 156.66 87.52 C 157.30 86.72 157.17 85.55 156.36 84.91 C 155.56 84.28 154.40 84.41 153.76 85.21 Z M 153.14 85.98 L 152.49 86.79 C 151.85 87.59 151.98 88.76 152.78 89.40 C 153.58 90.04 154.75 89.91 155.39 89.11 L 156.04 88.30 C 156.68 87.50 156.55 86.33 155.75 85.69 C 154.95 85.05 153.78 85.18 153.14 85.98 Z M 152.49 86.79 L 151.80 87.65 C 151.16 88.45 151.29 89.62 152.09 90.26 C 152.89 90.90 154.06 90.77 154.70 89.97 L 155.39 89.11 C 156.03 88.31 155.90 87.14 155.10 86.50 C 154.30 85.86 153.14 85.99 152.49 86.79 Z M 151.80 87.65 L 151.13 88.49 C 150.49 89.29 150.62 90.46 151.42 91.10 C 152.22 91.74 153.39 91.61 154.03 90.81 L 154.70 89.97 C 155.34 89.17 155.21 88.00 154.41 87.36 C 153.61 86.72 152.44 86.85 151.80 87.65 Z M 151.13 88.49 L 150.53 89.25 C 149.89 90.05 150.02 91.22 150.82 91.86 C 151.62 92.50 152.79 92.36 153.43 91.56 L 154.03 90.81 C 154.67 90.01 154.54 88.84 153.74 88.20 C 152.94 87.56 151.77 87.69 151.13 88.49 Z M 150.53 89.25 L 149.90 90.03 C 149.27 90.83 149.40 92.00 150.20 92.64 C 151.00 93.28 152.17 93.15 152.81 92.34 L 153.43 91.56 C 154.07 90.76 153.94 89.59 153.14 88.95 C 152.33 88.31 151.16 88.45 150.53 89.25 Z M 149.90 90.03 L 149.27 90.84 C 148.63 91.64 148.77 92.81 149.57 93.44 C 150.37 94.08 151.54 93.95 152.18 93.14 L 152.81 92.34 C 153.45 91.54 153.31 90.37 152.51 89.73 C 151.71 89.10 150.54 89.23 149.90 90.03 Z M 149.26 90.84 L 148.62 91.65 C 147.99 92.46 148.13 93.63 148.93 94.26 C 149.74 94.89 150.91 94.76 151.54 93.95 L 152.18 93.14 C 152.82 92.33 152.68 91.17 151.87 90.53 C 151.07 89.90 149.90 90.03 149.26 90.84 Z M 148.62 91.66 L 147.98 92.47 C 147.35 93.28 147.49 94.44 148.30 95.08 C 149.11 95.71 150.28 95.57 150.91 94.76 L 151.55 93.95 C 152.18 93.14 152.04 91.97 151.23 91.34 C 150.42 90.71 149.25 90.85 148.62 91.66 Z M 147.98 92.48 L 147.35 93.28 C 146.73 94.09 146.87 95.26 147.68 95.89 C 148.49 96.52 149.66 96.37 150.29 95.56 L 150.91 94.75 C 151.54 93.94 151.40 92.78 150.59 92.15 C 149.78 91.52 148.61 91.67 147.98 92.48 Z M 147.35 93.29 L 146.74 94.08 C 146.12 94.89 146.27 96.06 147.08 96.68 C 147.90 97.31 149.06 97.15 149.69 96.34 L 150.29 95.55 C 150.92 94.74 150.77 93.57 149.95 92.95 C 149.14 92.32 147.97 92.47 147.35 93.29 Z M 146.74 94.08 L 146.16 94.85 C 145.53 95.67 145.69 96.83 146.51 97.45 C 147.33 98.07 148.49 97.91 149.11 97.10 L 149.69 96.33 C 150.31 95.51 150.16 94.35 149.34 93.73 C 148.52 93.11 147.36 93.27 146.74 94.08 Z M 146.15 94.86 L 145.45 95.79 C 144.84 96.61 145.01 97.77 145.83 98.39 C 146.65 99.00 147.81 98.83 148.43 98.01 L 149.12 97.09 C 149.74 96.26 149.57 95.10 148.75 94.48 C 147.92 93.87 146.76 94.04 146.15 94.86 Z M 145.44 95.80 L 144.80 96.68 C 144.19 97.50 144.37 98.67 145.20 99.27 C 146.02 99.88 147.19 99.70 147.79 98.88 L 148.44 98.00 C 149.05 97.17 148.87 96.01 148.04 95.40 C 147.21 94.80 146.05 94.97 145.44 95.80 Z M 144.79 96.69 L 144.19 97.52 C 143.59 98.35 143.77 99.51 144.60 100.11 C 145.44 100.72 146.60 100.53 147.20 99.70 L 147.80 98.87 C 148.40 98.04 148.22 96.87 147.39 96.27 C 146.56 95.67 145.39 95.86 144.79 96.69 Z M 144.18 97.53 L 143.62 98.32 C 143.02 99.15 143.21 100.32 144.05 100.91 C 144.88 101.51 146.04 101.32 146.64 100.48 L 147.21 99.69 C 147.80 98.86 147.61 97.70 146.78 97.10 C 145.94 96.50 144.78 96.69 144.18 97.53 Z M 143.61 98.32 L 143.07 99.08 C 142.48 99.92 142.67 101.08 143.51 101.67 C 144.35 102.27 145.51 102.07 146.10 101.24 L 146.64 100.48 C 147.24 99.64 147.04 98.48 146.20 97.89 C 145.37 97.29 144.21 97.49 143.61 98.32 Z M 143.07 99.08 L 142.56 99.81 C 141.96 100.65 142.16 101.81 142.99 102.40 C 143.83 103.00 144.99 102.80 145.59 101.97 L 146.10 101.24 C 146.70 100.40 146.50 99.24 145.66 98.64 C 144.83 98.05 143.67 98.25 143.07 99.08 Z M 142.56 99.81 L 142.04 100.54 C 141.44 101.37 141.64 102.53 142.47 103.13 C 143.31 103.72 144.47 103.53 145.06 102.70 L 145.58 101.97 C 146.18 101.13 145.99 99.97 145.15 99.38 C 144.32 98.78 143.15 98.97 142.56 99.81 Z M 142.04 100.53 L 141.51 101.27 C 140.91 102.10 141.09 103.26 141.93 103.86 C 142.76 104.46 143.92 104.28 144.52 103.45 L 145.06 102.70 C 145.66 101.87 145.47 100.71 144.64 100.11 C 143.81 99.51 142.65 99.69 142.04 100.53 Z M 141.52 101.26 L 140.97 102.00 C 140.36 102.83 140.54 103.99 141.37 104.60 C 142.19 105.21 143.36 105.03 143.97 104.20 L 144.51 103.46 C 145.12 102.63 144.94 101.47 144.12 100.86 C 143.29 100.25 142.13 100.43 141.52 101.26 Z M 140.98 101.98 L 140.41 102.75 C 139.79 103.57 139.96 104.73 140.78 105.35 C 141.60 105.97 142.76 105.80 143.38 104.98 L 143.95 104.22 C 144.57 103.40 144.41 102.23 143.59 101.61 C 142.77 101.00 141.60 101.16 140.98 101.98 Z M 140.42 102.73 L 139.80 103.53 C 139.18 104.35 139.33 105.51 140.14 106.14 C 140.95 106.77 142.12 106.62 142.75 105.80 L 143.37 105.00 C 143.99 104.19 143.84 103.02 143.03 102.39 C 142.22 101.77 141.05 101.92 140.42 102.73 Z M 139.82 103.52 L 139.14 104.38 C 138.50 105.18 138.64 106.35 139.45 106.99 C 140.25 107.62 141.42 107.48 142.06 106.68 L 142.73 105.82 C 143.37 105.01 143.23 103.84 142.43 103.21 C 141.62 102.57 140.45 102.71 139.82 103.52 Z M 139.15 104.36 L 138.46 105.22 C 137.81 106.02 137.94 107.19 138.74 107.83 C 139.54 108.48 140.71 108.35 141.35 107.55 L 142.04 106.69 C 142.69 105.90 142.56 104.73 141.76 104.08 C 140.97 103.44 139.79 103.56 139.15 104.36 Z M 138.47 105.21 L 137.87 105.94 C 137.22 106.73 137.33 107.90 138.13 108.55 C 138.92 109.21 140.09 109.09 140.74 108.30 L 141.34 107.56 C 141.99 106.77 141.88 105.60 141.08 104.95 C 140.29 104.30 139.12 104.41 138.47 105.21 Z M 137.87 105.93 L 137.24 106.70 C 136.59 107.49 136.70 108.66 137.49 109.31 C 138.28 109.97 139.45 109.86 140.10 109.07 L 140.74 108.30 C 141.39 107.51 141.28 106.34 140.49 105.68 C 139.70 105.03 138.53 105.14 137.87 105.93 Z M 137.24 106.69 L 136.59 107.48 C 135.93 108.27 136.04 109.44 136.83 110.10 C 137.62 110.75 138.79 110.65 139.45 109.86 L 140.10 109.07 C 140.76 108.28 140.65 107.11 139.86 106.45 C 139.07 105.80 137.90 105.90 137.24 106.69 Z M 136.59 107.48 L 135.92 108.28 C 135.27 109.07 135.37 110.24 136.16 110.90 C 136.95 111.55 138.12 111.45 138.78 110.66 L 139.45 109.86 C 140.10 109.07 140.00 107.90 139.21 107.24 C 138.42 106.58 137.25 106.69 136.59 107.48 Z M 135.92 108.28 L 135.26 109.08 C 134.60 109.87 134.71 111.04 135.50 111.70 C 136.29 112.36 137.46 112.25 138.12 111.46 L 138.78 110.66 C 139.44 109.87 139.33 108.69 138.54 108.04 C 137.75 107.38 136.58 107.49 135.92 108.28 Z M 135.25 109.09 L 134.60 109.88 C 133.94 110.67 134.05 111.84 134.85 112.50 C 135.64 113.15 136.81 113.04 137.46 112.25 L 138.12 111.45 C 138.77 110.66 138.66 109.49 137.87 108.84 C 137.08 108.18 135.91 108.29 135.25 109.09 Z M 134.59 109.89 L 133.96 110.66 C 133.31 111.46 133.42 112.63 134.22 113.28 C 135.01 113.93 136.18 113.81 136.83 113.02 L 137.47 112.24 C 138.12 111.45 138.00 110.28 137.21 109.63 C 136.41 108.98 135.24 109.09 134.59 109.89 Z M 133.95 110.67 L 133.35 111.42 C 132.70 112.21 132.83 113.38 133.62 114.03 C 134.42 114.68 135.59 114.55 136.24 113.75 L 136.84 113.01 C 137.49 112.21 137.36 111.04 136.56 110.39 C 135.77 109.75 134.60 109.87 133.95 110.67 Z M 133.34 111.43 L 132.62 112.33 C 131.98 113.14 132.12 114.31 132.93 114.94 C 133.73 115.58 134.90 115.45 135.54 114.64 L 136.25 113.74 C 136.89 112.93 136.75 111.76 135.95 111.13 C 135.14 110.49 133.97 110.63 133.34 111.43 Z M 132.60 112.36 L 131.94 113.22 C 131.32 114.03 131.47 115.20 132.28 115.83 C 133.10 116.45 134.27 116.30 134.89 115.48 L 135.55 114.62 C 136.18 113.80 136.03 112.64 135.21 112.01 C 134.40 111.39 133.23 111.54 132.60 112.36 Z M 131.92 113.25 L 131.32 114.06 C 130.71 114.89 130.88 116.05 131.71 116.66 C 132.53 117.28 133.70 117.10 134.31 116.28 L 134.91 115.46 C 135.52 114.63 135.35 113.47 134.52 112.86 C 133.70 112.25 132.53 112.42 131.92 113.25 Z M 131.29 114.09 L 130.74 114.88 C 130.14 115.72 130.34 116.88 131.18 117.47 C 132.02 118.07 133.18 117.87 133.77 117.03 L 134.33 116.25 C 134.92 115.41 134.72 114.25 133.89 113.65 C 133.05 113.06 131.89 113.26 131.29 114.09 Z M 130.71 114.91 L 130.20 115.68 C 129.62 116.53 129.84 117.68 130.70 118.26 C 131.55 118.83 132.70 118.61 133.28 117.76 L 133.79 117.00 C 134.37 116.15 134.15 114.99 133.30 114.42 C 132.45 113.84 131.29 114.06 130.71 114.91 Z M 130.17 115.71 L 129.69 116.47 C 129.13 117.33 129.38 118.48 130.24 119.04 C 131.11 119.59 132.26 119.35 132.81 118.48 L 133.30 117.73 C 133.86 116.86 133.61 115.71 132.74 115.16 C 131.88 114.60 130.73 114.85 130.17 115.71 Z M 129.66 116.51 L 129.17 117.32 C 128.63 118.19 128.91 119.34 129.78 119.87 C 130.66 120.41 131.80 120.13 132.34 119.26 L 132.84 118.45 C 133.37 117.57 133.10 116.43 132.22 115.89 C 131.34 115.35 130.20 115.63 129.66 116.51 Z M 129.15 117.35 L 128.64 118.22 C 128.13 119.10 128.43 120.24 129.31 120.76 C 130.20 121.28 131.34 120.98 131.86 120.09 L 132.36 119.22 C 132.88 118.33 132.58 117.19 131.69 116.68 C 130.80 116.16 129.66 116.46 129.15 117.35 Z M 128.62 118.25 L 128.14 119.12 C 127.64 120.02 127.96 121.15 128.86 121.65 C 129.76 122.15 130.89 121.83 131.39 120.93 L 131.88 120.06 C 132.38 119.16 132.06 118.02 131.16 117.52 C 130.26 117.02 129.12 117.35 128.62 118.25 Z M 128.12 119.15 L 127.65 120.03 C 127.16 120.94 127.50 122.07 128.41 122.55 C 129.32 123.04 130.45 122.70 130.94 121.79 L 131.41 120.91 C 131.89 120.00 131.55 118.87 130.64 118.38 C 129.74 117.90 128.61 118.24 128.12 119.15 Z M 127.64 120.05 L 127.18 120.94 C 126.70 121.85 127.06 122.98 127.97 123.45 C 128.89 123.93 130.01 123.57 130.49 122.65 L 130.95 121.77 C 131.42 120.85 131.07 119.73 130.15 119.25 C 129.24 118.78 128.11 119.13 127.64 120.05 Z M 127.17 120.95 L 126.71 121.84 C 126.25 122.76 126.62 123.89 127.54 124.35 C 128.46 124.82 129.58 124.45 130.05 123.53 L 130.50 122.64 C 130.96 121.72 130.60 120.60 129.68 120.13 C 128.75 119.66 127.63 120.03 127.17 120.95 Z M 126.71 121.85 L 126.27 122.73 C 125.81 123.65 126.19 124.78 127.11 125.24 C 128.04 125.70 129.16 125.32 129.62 124.40 L 130.05 123.52 C 130.51 122.60 130.14 121.47 129.21 121.01 C 128.29 120.55 127.17 120.93 126.71 121.85 Z M 126.27 122.74 L 125.84 123.61 C 125.38 124.54 125.76 125.66 126.68 126.12 C 127.61 126.57 128.73 126.19 129.19 125.27 L 129.62 124.39 C 130.08 123.47 129.70 122.35 128.77 121.89 C 127.85 121.43 126.73 121.81 126.27 122.74 Z M 125.84 123.61 L 125.40 124.50 C 124.94 125.42 125.32 126.54 126.24 127.00 C 127.17 127.46 128.29 127.08 128.75 126.15 L 129.19 125.27 C 129.64 124.34 129.26 123.22 128.34 122.77 C 127.42 122.31 126.29 122.69 125.84 123.61 Z M 125.40 124.49 L 124.96 125.38 C 124.49 126.30 124.87 127.43 125.79 127.89 C 126.71 128.35 127.84 127.98 128.30 127.05 L 128.74 126.16 C 129.21 125.24 128.83 124.12 127.91 123.65 C 126.99 123.19 125.86 123.57 125.40 124.49 Z M 124.96 125.37 L 124.50 126.28 C 124.03 127.19 124.40 128.32 125.32 128.79 C 126.24 129.26 127.36 128.89 127.83 127.97 L 128.29 127.07 C 128.76 126.15 128.39 125.02 127.48 124.55 C 126.56 124.08 125.43 124.45 124.96 125.37 Z M 124.51 126.26 L 124.03 127.18 C 123.55 128.09 123.90 129.22 124.82 129.70 C 125.73 130.18 126.86 129.82 127.34 128.91 L 127.82 127.99 C 128.30 127.08 127.94 125.95 127.03 125.47 C 126.12 124.99 124.99 125.34 124.51 126.26 Z M 124.04 127.16 L 123.57 128.02 C 123.08 128.93 123.42 130.07 124.33 130.55 C 125.24 131.04 126.37 130.70 126.86 129.79 L 127.33 128.93 C 127.82 128.02 127.48 126.89 126.57 126.40 C 125.66 125.91 124.53 126.25 124.04 127.16 Z M 123.58 128.01 L 123.10 128.89 C 122.60 129.80 122.93 130.93 123.84 131.43 C 124.75 131.92 125.88 131.59 126.38 130.68 L 126.86 129.81 C 127.35 128.90 127.02 127.76 126.11 127.27 C 125.21 126.77 124.07 127.11 123.58 128.01 Z M 123.10 128.89 L 122.61 129.77 C 122.11 130.68 122.45 131.82 123.35 132.31 C 124.26 132.81 125.40 132.48 125.89 131.57 L 126.38 130.69 C 126.88 129.78 126.55 128.64 125.64 128.15 C 124.73 127.65 123.59 127.98 123.10 128.89 Z M 122.61 129.78 L 122.12 130.67 C 121.63 131.58 121.96 132.71 122.87 133.21 C 123.78 133.70 124.92 133.37 125.42 132.46 L 125.90 131.57 C 126.39 130.66 126.06 129.52 125.15 129.03 C 124.24 128.53 123.10 128.87 122.61 129.78 Z M 122.11 130.68 L 121.64 131.57 C 121.15 132.48 121.50 133.62 122.41 134.11 C 123.33 134.59 124.46 134.25 124.95 133.33 L 125.42 132.45 C 125.91 131.53 125.57 130.39 124.65 129.91 C 123.74 129.42 122.60 129.76 122.11 130.68 Z M 121.63 131.59 L 121.17 132.47 C 120.69 133.39 121.05 134.52 121.98 135.00 C 122.90 135.48 124.03 135.12 124.51 134.19 L 124.96 133.31 C 125.44 132.39 125.08 131.26 124.16 130.78 C 123.24 130.30 122.10 130.66 121.63 131.59 Z M 121.15 132.50 L 120.69 133.43 C 120.23 134.36 120.62 135.49 121.55 135.95 C 122.48 136.41 123.61 136.02 124.07 135.09 L 124.53 134.16 C 124.99 133.23 124.60 132.10 123.67 131.64 C 122.74 131.19 121.61 131.57 121.15 132.50 Z M 120.67 133.47 L 120.24 134.40 C 119.80 135.35 120.21 136.47 121.15 136.91 C 122.09 137.35 123.21 136.94 123.65 135.99 L 124.09 135.06 C 124.53 134.11 124.12 132.99 123.18 132.55 C 122.23 132.11 121.11 132.52 120.67 133.47 Z M 120.22 134.44 L 119.81 135.37 C 119.39 136.32 119.83 137.44 120.78 137.85 C 121.74 138.27 122.85 137.84 123.27 136.88 L 123.67 135.96 C 124.09 135.00 123.66 133.89 122.70 133.47 C 121.75 133.05 120.63 133.49 120.22 134.44 Z M 119.79 135.41 L 119.41 136.32 C 119.02 137.29 119.48 138.39 120.45 138.79 C 121.41 139.19 122.52 138.72 122.91 137.76 L 123.29 136.84 C 123.68 135.88 123.22 134.77 122.26 134.38 C 121.29 133.98 120.19 134.44 119.79 135.41 Z M 119.39 136.36 L 119.05 137.27 C 118.67 138.25 119.16 139.34 120.14 139.72 C 121.12 140.09 122.21 139.60 122.58 138.62 L 122.93 137.72 C 123.30 136.74 122.82 135.65 121.84 135.27 C 120.86 134.90 119.77 135.39 119.39 136.36 Z M 119.03 137.31 L 118.71 138.21 C 118.36 139.20 118.87 140.28 119.86 140.63 C 120.85 140.98 121.93 140.47 122.28 139.48 L 122.60 138.58 C 122.95 137.60 122.44 136.51 121.45 136.16 C 120.46 135.81 119.38 136.33 119.03 137.31 Z M 118.69 138.26 L 118.38 139.21 C 118.05 140.21 118.60 141.28 119.59 141.61 C 120.59 141.93 121.66 141.39 121.99 140.39 L 122.30 139.44 C 122.63 138.44 122.08 137.37 121.09 137.04 C 120.09 136.72 119.02 137.26 118.69 138.26 Z M 118.37 139.26 L 118.08 140.22 C 117.78 141.22 118.35 142.28 119.36 142.58 C 120.36 142.87 121.42 142.30 121.72 141.30 L 122.00 140.34 C 122.30 139.34 121.73 138.28 120.73 137.98 C 119.72 137.68 118.66 138.26 118.37 139.26 Z M 118.07 140.27 L 117.81 141.22 C 117.54 142.24 118.14 143.28 119.15 143.55 C 120.16 143.82 121.20 143.22 121.48 142.21 L 121.73 141.25 C 122.00 140.24 121.40 139.20 120.39 138.92 C 119.38 138.65 118.34 139.25 118.07 140.27 Z M 117.80 141.28 L 117.57 142.24 C 117.32 143.26 117.95 144.29 118.97 144.53 C 119.99 144.77 121.02 144.14 121.26 143.12 L 121.49 142.16 C 121.73 141.14 121.10 140.11 120.08 139.87 C 119.06 139.63 118.04 140.26 117.80 141.28 Z M 117.55 142.29 L 117.35 143.28 C 117.13 144.30 117.79 145.31 118.82 145.52 C 119.84 145.74 120.85 145.08 121.06 144.05 L 121.27 143.07 C 121.48 142.05 120.83 141.04 119.80 140.83 C 118.78 140.61 117.77 141.27 117.55 142.29 Z M 117.34 143.32 L 117.16 144.29 C 116.97 145.32 117.66 146.31 118.69 146.50 C 119.72 146.69 120.71 146.01 120.90 144.97 L 121.07 144.01 C 121.26 142.98 120.58 141.99 119.55 141.80 C 118.52 141.61 117.53 142.29 117.34 143.32 Z M 117.15 144.33 L 117.00 145.30 C 116.84 146.33 117.54 147.30 118.58 147.47 C 119.61 147.63 120.59 146.93 120.75 145.89 L 120.90 144.93 C 121.07 143.90 120.36 142.92 119.33 142.76 C 118.29 142.59 117.32 143.30 117.15 144.33 Z M 116.99 145.33 L 116.86 146.31 C 116.71 147.35 117.44 148.31 118.48 148.46 C 119.52 148.60 120.48 147.88 120.62 146.84 L 120.76 145.86 C 120.90 144.82 120.18 143.86 119.14 143.71 C 118.10 143.57 117.14 144.29 116.99 145.33 Z M 116.85 146.34 L 116.73 147.34 C 116.60 148.38 117.34 149.33 118.39 149.46 C 119.43 149.59 120.38 148.84 120.51 147.80 L 120.63 146.81 C 120.76 145.76 120.01 144.81 118.97 144.69 C 117.93 144.56 116.98 145.30 116.85 146.34 Z M 116.73 147.36 L 116.61 148.37 C 116.50 149.42 117.25 150.36 118.30 150.47 C 119.34 150.59 120.28 149.83 120.40 148.79 L 120.51 147.78 C 120.62 146.73 119.87 145.79 118.82 145.68 C 117.78 145.56 116.84 146.32 116.73 147.36 Z M 116.61 148.39 L 116.51 149.42 C 116.41 150.47 117.17 151.40 118.22 151.50 C 119.27 151.61 120.20 150.84 120.30 149.79 L 120.40 148.77 C 120.51 147.72 119.74 146.79 118.69 146.69 C 117.65 146.58 116.71 147.35 116.61 148.39 Z M 116.51 149.44 L 116.42 150.39 C 116.33 151.44 117.10 152.37 118.15 152.46 C 119.20 152.56 120.12 151.79 120.22 150.74 L 120.30 149.78 C 120.40 148.73 119.63 147.80 118.58 147.71 C 117.53 147.61 116.60 148.39 116.51 149.44 Z M 116.42 150.41 L 116.34 151.36 C 116.25 152.41 117.03 153.33 118.08 153.42 C 119.13 153.50 120.05 152.72 120.14 151.67 L 120.22 150.72 C 120.31 149.67 119.53 148.75 118.48 148.66 C 117.43 148.58 116.51 149.36 116.42 150.41 Z M 116.34 151.38 L 116.27 152.35 C 116.19 153.40 116.98 154.31 118.03 154.39 C 119.08 154.47 119.99 153.68 120.07 152.63 L 120.14 151.66 C 120.22 150.61 119.43 149.69 118.38 149.61 C 117.33 149.54 116.42 150.33 116.34 151.38 Z M 116.26 152.37 L 116.20 153.36 C 116.13 154.41 116.93 155.32 117.98 155.39 C 119.03 155.45 119.94 154.66 120.01 153.60 L 120.07 152.61 C 120.14 151.56 119.34 150.65 118.29 150.58 C 117.24 150.52 116.33 151.31 116.26 152.37 Z M 116.20 153.38 L 116.14 154.40 C 116.09 155.45 116.89 156.35 117.95 156.41 C 119.00 156.47 119.90 155.66 119.96 154.61 L 120.01 153.59 C 120.07 152.53 119.26 151.63 118.21 151.58 C 117.15 151.52 116.26 152.33 116.20 153.38 Z M 116.14 154.42 L 116.10 155.47 C 116.05 156.53 116.87 157.42 117.92 157.46 C 118.98 157.51 119.87 156.69 119.91 155.64 L 119.96 154.59 C 120.00 153.53 119.19 152.64 118.13 152.59 C 117.08 152.55 116.19 153.37 116.14 154.42 Z M 116.09 155.49 L 116.06 156.54 C 116.03 157.59 116.85 158.47 117.91 158.51 C 118.96 158.54 119.85 157.71 119.88 156.66 L 119.91 155.62 C 119.95 154.56 119.12 153.68 118.07 153.65 C 117.01 153.61 116.13 154.44 116.09 155.49 Z M 116.06 156.56 L 116.04 157.57 C 116.02 158.62 116.85 159.50 117.91 159.52 C 118.97 159.54 119.84 158.70 119.86 157.65 L 119.88 156.64 C 119.90 155.58 119.07 154.71 118.01 154.69 C 116.95 154.67 116.08 155.50 116.06 156.56 Z M 116.04 157.60 L 116.03 158.62 C 116.03 159.68 116.88 160.54 117.93 160.54 C 118.99 160.55 119.85 159.70 119.86 158.64 L 119.86 157.62 C 119.87 156.56 119.02 155.70 117.96 155.70 C 116.90 155.69 116.04 156.54 116.04 157.60 Z M 116.03 158.66 L 116.05 159.69 C 116.06 160.74 116.93 161.59 117.98 161.57 C 119.04 161.56 119.88 160.69 119.87 159.63 L 119.86 158.61 C 119.84 157.55 118.97 156.71 117.92 156.72 C 116.86 156.74 116.02 157.60 116.03 158.66 Z M 116.05 159.73 L 116.09 160.75 C 116.13 161.80 117.01 162.63 118.07 162.59 C 119.12 162.55 119.95 161.66 119.91 160.60 L 119.87 159.59 C 119.83 158.53 118.94 157.71 117.89 157.75 C 116.83 157.79 116.01 158.68 116.05 159.73 Z M 116.09 160.80 L 116.16 161.80 C 116.23 162.85 117.14 163.65 118.19 163.58 C 119.25 163.51 120.04 162.60 119.97 161.54 L 119.90 160.55 C 119.83 159.49 118.92 158.70 117.87 158.77 C 116.81 158.84 116.02 159.75 116.09 160.80 Z M 116.16 161.87 L 116.26 162.83 C 116.37 163.88 117.31 164.64 118.36 164.53 C 119.41 164.42 120.17 163.48 120.07 162.43 L 119.97 161.47 C 119.86 160.42 118.92 159.66 117.87 159.77 C 116.82 159.88 116.05 160.82 116.16 161.87 Z M 116.27 162.92 L 116.42 163.86 C 116.57 164.90 117.55 165.62 118.59 165.46 C 119.64 165.30 120.35 164.33 120.20 163.28 L 120.05 162.34 C 119.90 161.30 118.92 160.58 117.88 160.74 C 116.83 160.90 116.12 161.87 116.27 162.92 Z M 116.44 163.97 L 116.63 164.89 C 116.85 165.93 117.87 166.59 118.90 166.37 C 119.93 166.15 120.59 165.13 120.37 164.10 L 120.18 163.17 C 119.96 162.14 118.94 161.48 117.91 161.70 C 116.88 161.92 116.22 162.93 116.44 163.97 Z M 116.66 165.02 L 116.92 165.92 C 117.21 166.93 118.26 167.52 119.28 167.23 C 120.30 166.94 120.88 165.89 120.60 164.87 L 120.34 163.97 C 120.05 162.96 119.00 162.37 117.98 162.66 C 116.96 162.95 116.37 164.00 116.66 165.02 Z M 116.96 166.05 L 117.28 166.93 C 117.64 167.92 118.74 168.44 119.73 168.08 C 120.72 167.72 121.24 166.62 120.88 165.63 L 120.55 164.74 C 120.19 163.75 119.10 163.24 118.10 163.60 C 117.11 163.96 116.60 165.05 116.96 166.05 Z M 117.33 167.05 L 117.73 167.95 C 118.16 168.91 119.28 169.35 120.25 168.92 C 121.22 168.49 121.65 167.37 121.22 166.40 L 120.83 165.50 C 120.40 164.54 119.27 164.10 118.30 164.53 C 117.34 164.96 116.90 166.09 117.33 167.05 Z M 117.78 168.05 L 118.26 168.98 C 118.74 169.92 119.90 170.28 120.84 169.80 C 121.77 169.31 122.14 168.16 121.65 167.22 L 121.17 166.29 C 120.69 165.36 119.53 164.99 118.60 165.48 C 117.66 165.96 117.29 167.12 117.78 168.05 Z M 118.31 169.07 L 118.88 170.05 C 119.41 170.96 120.58 171.26 121.49 170.73 C 122.41 170.20 122.71 169.03 122.18 168.11 L 121.61 167.14 C 121.07 166.22 119.90 165.92 118.99 166.45 C 118.08 166.98 117.77 168.16 118.31 169.07 Z M 118.91 170.10 L 119.43 170.91 C 119.99 171.81 121.18 172.07 122.07 171.50 C 122.96 170.94 123.22 169.76 122.66 168.87 L 122.14 168.06 C 121.58 167.16 120.40 166.90 119.50 167.47 C 118.61 168.03 118.35 169.21 118.91 170.10 Z M 119.45 170.95 L 119.99 171.75 C 120.57 172.63 121.76 172.87 122.64 172.28 C 123.52 171.69 123.75 170.51 123.17 169.63 L 122.63 168.83 C 122.05 167.95 120.86 167.71 119.98 168.30 C 119.10 168.89 118.87 170.07 119.45 170.95 Z M 120.01 171.78 L 120.58 172.60 C 121.18 173.47 122.37 173.69 123.24 173.08 C 124.11 172.48 124.32 171.29 123.72 170.42 L 123.15 169.60 C 122.54 168.73 121.35 168.52 120.49 169.12 C 119.62 169.72 119.41 170.91 120.01 171.78 Z M 120.60 172.63 L 121.20 173.47 C 121.81 174.32 123.01 174.52 123.87 173.90 C 124.72 173.29 124.92 172.09 124.30 171.24 L 123.70 170.40 C 123.09 169.54 121.89 169.34 121.04 169.96 C 120.18 170.58 119.98 171.77 120.60 172.63 Z M 121.21 173.48 L 121.83 174.32 C 122.46 175.17 123.65 175.36 124.50 174.73 C 125.35 174.10 125.54 172.91 124.91 172.06 L 124.29 171.22 C 123.66 170.37 122.47 170.18 121.62 170.81 C 120.77 171.44 120.59 172.63 121.21 173.48 Z M 121.84 174.34 L 122.47 175.17 C 123.11 176.02 124.30 176.19 125.15 175.55 C 125.99 174.92 126.16 173.72 125.52 172.87 L 124.90 172.04 C 124.26 171.20 123.06 171.03 122.22 171.66 C 121.38 172.30 121.21 173.50 121.84 174.34 Z M 122.48 175.19 L 123.11 176.01 C 123.75 176.84 124.95 177.00 125.79 176.36 C 126.63 175.72 126.78 174.52 126.14 173.68 L 125.51 172.86 C 124.87 172.02 123.67 171.86 122.83 172.51 C 122.00 173.15 121.84 174.35 122.48 175.19 Z M 123.12 176.02 L 123.73 176.81 C 124.38 177.64 125.58 177.79 126.42 177.14 C 127.25 176.49 127.40 175.29 126.75 174.46 L 126.13 173.67 C 125.48 172.83 124.28 172.68 123.45 173.33 C 122.62 173.98 122.47 175.18 123.12 176.02 Z M 123.74 176.82 L 124.34 177.57 C 124.99 178.40 126.20 178.54 127.02 177.89 C 127.85 177.23 127.99 176.03 127.34 175.20 L 126.74 174.45 C 126.09 173.62 124.88 173.48 124.06 174.13 C 123.23 174.79 123.09 175.99 123.74 176.82 Z M 124.35 177.58 L 125.05 178.46 C 125.71 179.28 126.91 179.42 127.74 178.76 C 128.56 178.09 128.69 176.89 128.03 176.07 L 127.33 175.19 C 126.67 174.37 125.47 174.23 124.64 174.89 C 123.82 175.56 123.69 176.76 124.35 177.58 Z M 125.06 178.47 L 125.73 179.30 C 126.40 180.12 127.60 180.24 128.42 179.58 C 129.24 178.91 129.37 177.71 128.70 176.89 L 128.02 176.06 C 127.36 175.24 126.15 175.11 125.33 175.78 C 124.52 176.45 124.39 177.65 125.06 178.47 Z M 125.74 179.31 L 126.38 180.09 C 127.05 180.91 128.26 181.02 129.07 180.35 C 129.89 179.68 130.01 178.48 129.34 177.66 L 128.69 176.88 C 128.02 176.06 126.82 175.95 126.00 176.62 C 125.19 177.29 125.07 178.49 125.74 179.31 Z M 126.39 180.10 L 127.01 180.84 C 127.68 181.66 128.89 181.77 129.70 181.09 C 130.51 180.42 130.62 179.21 129.95 178.40 L 129.33 177.65 C 128.65 176.84 127.45 176.73 126.64 177.40 C 125.83 178.08 125.71 179.28 126.39 180.10 Z M 127.01 180.85 L 127.62 181.57 C 128.29 182.38 129.50 182.49 130.31 181.81 C 131.12 181.14 131.23 179.93 130.55 179.12 L 129.95 178.40 C 129.27 177.59 128.06 177.48 127.25 178.15 C 126.44 178.83 126.33 180.04 127.01 180.85 Z M 127.62 181.57 L 128.22 182.29 C 128.90 183.10 130.10 183.21 130.91 182.53 C 131.72 181.85 131.83 180.65 131.15 179.84 L 130.55 179.12 C 129.87 178.31 128.67 178.20 127.86 178.88 C 127.05 179.56 126.94 180.76 127.62 181.57 Z M 128.22 182.29 L 128.82 183.01 C 129.50 183.82 130.70 183.93 131.51 183.26 C 132.32 182.58 132.43 181.38 131.76 180.57 L 131.15 179.84 C 130.48 179.03 129.27 178.92 128.46 179.60 C 127.65 180.27 127.54 181.48 128.22 182.29 Z M 128.82 183.01 L 129.39 183.70 C 130.06 184.52 131.27 184.63 132.08 183.96 C 132.90 183.28 133.01 182.08 132.34 181.26 L 131.76 180.57 C 131.09 179.76 129.88 179.64 129.07 180.32 C 128.26 180.99 128.14 182.19 128.82 183.01 Z M 129.39 183.70 L 129.97 184.41 C 130.64 185.22 131.85 185.34 132.66 184.67 C 133.48 184.00 133.59 182.79 132.92 181.98 L 132.34 181.27 C 131.67 180.45 130.46 180.34 129.65 181.01 C 128.83 181.68 128.72 182.88 129.39 183.70 Z M 129.97 184.40 L 130.57 185.13 C 131.24 185.95 132.44 186.07 133.26 185.40 C 134.07 184.73 134.19 183.52 133.52 182.71 L 132.92 181.98 C 132.25 181.16 131.05 181.04 130.23 181.71 C 129.42 182.38 129.30 183.59 129.97 184.40 Z M 130.57 185.13 L 131.19 185.89 C 131.86 186.71 133.06 186.82 133.88 186.15 C 134.69 185.48 134.81 184.28 134.14 183.46 L 133.52 182.71 C 132.85 181.89 131.65 181.77 130.83 182.44 C 130.02 183.11 129.90 184.32 130.57 185.13 Z M 131.19 185.89 L 131.83 186.67 C 132.50 187.49 133.71 187.61 134.52 186.94 C 135.34 186.26 135.45 185.06 134.78 184.24 L 134.14 183.46 C 133.47 182.65 132.27 182.53 131.45 183.20 C 130.64 183.87 130.52 185.07 131.19 185.89 Z M 131.83 186.67 L 132.50 187.49 C 133.17 188.30 134.38 188.42 135.19 187.74 C 136.01 187.07 136.12 185.87 135.45 185.05 L 134.78 184.24 C 134.11 183.43 132.91 183.31 132.09 183.98 C 131.28 184.66 131.16 185.86 131.83 186.67 Z M 132.50 187.49 L 133.20 188.33 C 133.88 189.14 135.08 189.26 135.89 188.58 C 136.71 187.91 136.82 186.70 136.14 185.89 L 135.45 185.05 C 134.77 184.24 133.57 184.12 132.76 184.80 C 131.94 185.47 131.83 186.68 132.50 187.49 Z M 133.21 188.33 L 133.91 189.18 C 134.58 189.99 135.79 190.10 136.60 189.42 C 137.41 188.74 137.52 187.54 136.84 186.73 L 136.14 185.89 C 135.46 185.07 134.26 184.97 133.45 185.64 C 132.64 186.32 132.53 187.52 133.21 188.33 Z M 133.91 189.18 L 134.56 189.95 C 135.24 190.76 136.45 190.87 137.25 190.19 C 138.06 189.51 138.17 188.30 137.49 187.50 L 136.84 186.72 C 136.16 185.91 134.96 185.81 134.15 186.49 C 133.34 187.17 133.23 188.37 133.91 189.18 Z M 134.56 189.96 L 135.23 190.74 C 135.91 191.55 137.11 191.65 137.92 190.97 C 138.73 190.29 138.83 189.09 138.15 188.28 L 137.49 187.49 C 136.81 186.69 135.60 186.58 134.79 187.26 C 133.99 187.94 133.88 189.15 134.56 189.96 Z M 135.23 190.75 L 135.90 191.54 C 136.58 192.35 137.79 192.45 138.60 191.77 C 139.40 191.09 139.50 189.88 138.82 189.07 L 138.15 188.28 C 137.47 187.47 136.26 187.37 135.46 188.05 C 134.65 188.73 134.55 189.94 135.23 190.75 Z M 135.90 191.54 L 136.58 192.34 C 137.26 193.14 138.46 193.24 139.27 192.56 C 140.07 191.88 140.17 190.67 139.49 189.87 L 138.82 189.07 C 138.14 188.27 136.93 188.17 136.13 188.85 C 135.32 189.53 135.22 190.74 135.90 191.54 Z M 136.58 192.34 L 137.24 193.12 C 137.92 193.93 139.13 194.03 139.94 193.35 C 140.74 192.67 140.84 191.46 140.16 190.65 L 139.49 189.87 C 138.81 189.06 137.60 188.96 136.80 189.64 C 135.99 190.33 135.89 191.53 136.58 192.34 Z M 137.24 193.12 L 137.89 193.89 C 138.58 194.70 139.78 194.80 140.59 194.12 C 141.39 193.44 141.49 192.23 140.81 191.43 L 140.16 190.66 C 139.48 189.85 138.27 189.75 137.47 190.43 C 136.66 191.11 136.56 192.32 137.24 193.12 Z M 137.89 193.89 L 138.52 194.64 C 139.20 195.44 140.41 195.55 141.21 194.87 C 142.02 194.19 142.12 192.98 141.44 192.17 L 140.81 191.43 C 140.13 190.62 138.93 190.52 138.12 191.20 C 137.31 191.88 137.21 193.09 137.89 193.89 Z M 138.52 194.64 L 139.12 195.35 C 139.80 196.16 141.00 196.26 141.81 195.58 C 142.62 194.91 142.72 193.70 142.05 192.89 L 141.45 192.18 C 140.77 191.37 139.56 191.27 138.75 191.94 C 137.95 192.62 137.84 193.83 138.52 194.64 Z M 139.12 195.34 L 139.75 196.11 C 140.43 196.92 141.63 197.03 142.44 196.35 C 143.25 195.68 143.36 194.47 142.69 193.66 L 142.05 192.90 C 141.37 192.09 140.17 191.98 139.36 192.65 C 138.55 193.33 138.44 194.53 139.12 195.34 Z M 139.75 196.10 L 140.46 196.96 C 141.13 197.78 142.33 197.89 143.15 197.22 C 143.96 196.55 144.08 195.34 143.40 194.53 L 142.69 193.67 C 142.02 192.86 140.82 192.74 140.00 193.41 C 139.19 194.09 139.08 195.29 139.75 196.10 Z M 140.45 196.96 L 141.11 197.76 C 141.78 198.57 142.98 198.69 143.80 198.02 C 144.61 197.35 144.73 196.15 144.06 195.34 L 143.41 194.54 C 142.74 193.72 141.54 193.60 140.72 194.27 C 139.91 194.94 139.79 196.14 140.45 196.96 Z M 141.11 197.75 L 141.72 198.51 C 142.39 199.32 143.59 199.45 144.41 198.78 C 145.22 198.11 145.35 196.91 144.68 196.09 L 144.06 195.34 C 143.40 194.52 142.20 194.40 141.38 195.07 C 140.56 195.73 140.44 196.94 141.11 197.75 Z M 141.72 198.51 L 142.32 199.23 C 142.98 200.05 144.19 200.17 145.00 199.51 C 145.82 198.84 145.94 197.64 145.27 196.82 L 144.68 196.09 C 144.01 195.28 142.81 195.16 142.00 195.82 C 141.18 196.49 141.06 197.69 141.72 198.51 Z M 142.32 199.24 L 142.91 199.96 C 143.58 200.77 144.78 200.89 145.60 200.22 C 146.41 199.55 146.53 198.35 145.86 197.54 L 145.27 196.82 C 144.60 196.00 143.40 195.89 142.59 196.55 C 141.77 197.22 141.65 198.42 142.32 199.24 Z M 142.92 199.96 L 143.52 200.69 C 144.19 201.50 145.40 201.61 146.21 200.94 C 147.02 200.27 147.13 199.07 146.45 198.26 L 145.85 197.53 C 145.18 196.72 143.98 196.61 143.17 197.28 C 142.36 197.95 142.25 199.15 142.92 199.96 Z M 143.53 200.70 L 144.10 201.38 C 144.78 202.18 145.98 202.29 146.79 201.61 C 147.59 200.93 147.69 199.73 147.02 198.92 L 146.45 198.25 C 145.77 197.44 144.57 197.34 143.76 198.02 C 142.96 198.69 142.85 199.90 143.53 200.70 Z M 144.11 201.39 L 144.70 202.08 C 145.38 202.88 146.58 202.98 147.39 202.30 C 148.19 201.62 148.29 200.42 147.60 199.61 L 147.01 198.92 C 146.33 198.12 145.13 198.02 144.33 198.70 C 143.52 199.38 143.43 200.58 144.11 201.39 Z M 144.70 202.09 L 145.32 202.81 C 146.01 203.61 147.21 203.70 148.01 203.02 C 148.81 202.34 148.90 201.13 148.22 200.33 L 147.60 199.61 C 146.92 198.81 145.71 198.72 144.91 199.40 C 144.11 200.09 144.02 201.29 144.70 202.09 Z M 145.33 202.81 L 145.97 203.56 C 146.65 204.36 147.86 204.45 148.65 203.77 C 149.45 203.09 149.55 201.88 148.86 201.09 L 148.22 200.33 C 147.53 199.53 146.33 199.44 145.53 200.13 C 144.73 200.81 144.64 202.01 145.33 202.81 Z M 145.97 203.56 L 146.64 204.35 C 147.32 205.14 148.53 205.24 149.32 204.55 C 150.12 203.87 150.22 202.67 149.53 201.87 L 148.86 201.09 C 148.18 200.29 146.98 200.19 146.18 200.88 C 145.38 201.56 145.29 202.76 145.97 203.56 Z M 146.64 204.34 L 147.33 205.16 C 148.02 205.96 149.22 206.06 150.02 205.37 C 150.82 204.69 150.91 203.49 150.23 202.69 L 149.53 201.87 C 148.85 201.07 147.65 200.98 146.85 201.66 C 146.05 202.34 145.96 203.54 146.64 204.34 Z M 147.33 205.16 L 148.05 206.01 C 148.73 206.81 149.93 206.91 150.74 206.23 C 151.54 205.55 151.64 204.35 150.96 203.55 L 150.24 202.69 C 149.56 201.89 148.35 201.79 147.55 202.47 C 146.75 203.15 146.65 204.35 147.33 205.16 Z M 148.05 206.00 L 148.68 206.76 C 149.36 207.56 150.56 207.67 151.37 206.99 C 152.17 206.31 152.27 205.11 151.60 204.31 L 150.96 203.55 C 150.29 202.75 149.09 202.64 148.28 203.32 C 147.48 204.00 147.37 205.20 148.05 206.00 Z M 148.68 206.75 L 149.30 207.50 C 149.98 208.30 151.18 208.41 151.98 207.74 C 152.79 207.06 152.90 205.86 152.22 205.06 L 151.60 204.31 C 150.93 203.51 149.73 203.40 148.92 204.07 C 148.11 204.75 148.01 205.95 148.68 206.75 Z M 149.30 207.50 L 149.94 208.26 C 150.61 209.06 151.81 209.17 152.62 208.50 C 153.42 207.83 153.53 206.63 152.86 205.82 L 152.22 205.06 C 151.55 204.25 150.35 204.14 149.54 204.82 C 148.74 205.49 148.63 206.69 149.30 207.50 Z M 149.94 208.26 L 150.58 209.03 C 151.25 209.84 152.45 209.94 153.26 209.27 C 154.07 208.60 154.17 207.40 153.50 206.59 L 152.86 205.82 C 152.19 205.01 150.99 204.91 150.18 205.58 C 149.37 206.25 149.26 207.45 149.94 208.26 Z M 150.58 209.03 L 151.23 209.81 C 151.91 210.62 153.11 210.72 153.91 210.05 C 154.72 209.38 154.83 208.18 154.15 207.37 L 153.50 206.59 C 152.83 205.79 151.63 205.68 150.82 206.35 C 150.02 207.03 149.91 208.22 150.58 209.03 Z M 151.24 209.81 L 151.89 210.60 C 152.57 211.40 153.77 211.51 154.57 210.83 C 155.37 210.16 155.48 208.96 154.81 208.15 L 154.15 207.37 C 153.47 206.57 152.28 206.46 151.47 207.13 C 150.67 207.81 150.56 209.01 151.24 209.81 Z M 151.90 210.60 L 152.55 211.38 C 153.23 212.18 154.43 212.28 155.23 211.61 C 156.04 210.93 156.14 209.73 155.46 208.93 L 154.80 208.15 C 154.12 207.35 152.93 207.24 152.12 207.92 C 151.32 208.60 151.22 209.80 151.90 210.60 Z M 152.56 211.39 L 153.22 212.16 C 153.90 212.96 155.10 213.05 155.90 212.37 C 156.70 211.69 156.79 210.49 156.11 209.69 L 155.45 208.92 C 154.77 208.12 153.57 208.03 152.78 208.71 C 151.98 209.39 151.88 210.59 152.56 211.39 Z M 153.23 212.17 L 153.88 212.93 C 154.56 213.72 155.76 213.81 156.56 213.13 C 157.35 212.44 157.44 211.24 156.76 210.45 L 156.10 209.69 C 155.42 208.89 154.22 208.80 153.43 209.49 C 152.63 210.17 152.54 211.37 153.23 212.17 Z M 153.89 212.94 L 154.59 213.74 C 155.28 214.53 156.48 214.61 157.27 213.92 C 158.06 213.23 158.14 212.03 157.45 211.24 L 156.75 210.44 C 156.06 209.65 154.86 209.57 154.07 210.26 C 153.28 210.95 153.20 212.15 153.89 212.94 Z M 154.60 213.75 L 155.30 214.53 C 156.00 215.32 157.20 215.39 157.98 214.69 C 158.76 213.99 158.83 212.79 158.13 212.01 L 157.44 211.23 C 156.74 210.44 155.54 210.37 154.76 211.07 C 153.98 211.77 153.91 212.97 154.60 213.75 Z M 155.31 214.55 L 156.00 215.31 C 156.71 216.08 157.91 216.14 158.68 215.43 C 159.46 214.73 159.52 213.53 158.81 212.75 L 158.12 211.99 C 157.41 211.22 156.21 211.16 155.44 211.87 C 154.66 212.57 154.61 213.77 155.31 214.55 Z M 156.02 215.32 L 156.71 216.06 C 157.42 216.83 158.62 216.87 159.39 216.15 C 160.16 215.44 160.20 214.24 159.48 213.47 L 158.79 212.74 C 158.08 211.97 156.88 211.93 156.11 212.64 C 155.35 213.36 155.31 214.56 156.02 215.32 Z M 156.73 216.08 L 157.42 216.80 C 158.14 217.55 159.34 217.57 160.10 216.85 C 160.85 216.12 160.87 214.92 160.15 214.17 L 159.46 213.46 C 158.74 212.70 157.54 212.68 156.78 213.40 C 156.03 214.13 156.01 215.33 156.73 216.08 Z M 157.44 216.82 L 158.13 217.51 C 158.86 218.25 160.06 218.25 160.80 217.52 C 161.55 216.78 161.55 215.58 160.81 214.84 L 160.13 214.15 C 159.39 213.41 158.19 213.40 157.45 214.14 C 156.71 214.88 156.70 216.08 157.44 216.82 Z M 158.15 217.53 L 158.84 218.20 C 159.59 218.93 160.79 218.91 161.52 218.16 C 162.24 217.40 162.22 216.21 161.47 215.48 L 160.79 214.81 C 160.04 214.09 158.84 214.11 158.11 214.86 C 157.38 215.61 157.40 216.81 158.15 217.53 Z M 158.87 218.22 L 159.56 218.86 C 160.32 219.58 161.52 219.53 162.23 218.77 C 162.94 218.00 162.90 216.80 162.13 216.09 L 161.44 215.45 C 160.68 214.74 159.48 214.79 158.77 215.55 C 158.06 216.32 158.10 217.51 158.87 218.22 Z M 159.59 218.89 L 160.37 219.59 C 161.16 220.28 162.35 220.20 163.04 219.42 C 163.73 218.64 163.66 217.44 162.88 216.75 L 162.10 216.06 C 161.31 215.37 160.12 215.44 159.43 216.23 C 158.74 217.01 158.81 218.20 159.59 218.89 Z M 160.41 219.62 L 161.21 220.29 C 162.01 220.96 163.20 220.85 163.87 220.05 C 164.54 219.25 164.44 218.06 163.64 217.39 L 162.84 216.72 C 162.04 216.05 160.85 216.16 160.18 216.96 C 159.51 217.76 159.61 218.95 160.41 219.62 Z M 161.25 220.32 L 162.06 220.95 C 162.87 221.60 164.06 221.46 164.71 220.65 C 165.35 219.83 165.22 218.64 164.40 218.00 L 163.60 217.36 C 162.78 216.71 161.60 216.85 160.95 217.67 C 160.30 218.48 160.44 219.67 161.25 220.32 Z M 162.10 220.98 L 162.90 221.58 C 163.73 222.21 164.91 222.04 165.54 221.21 C 166.16 220.37 165.99 219.19 165.16 218.57 L 164.36 217.97 C 163.53 217.34 162.35 217.51 161.72 218.34 C 161.10 219.18 161.27 220.36 162.10 220.98 Z M 162.94 221.61 L 163.74 222.18 C 164.59 222.78 165.77 222.58 166.37 221.73 C 166.97 220.89 166.77 219.71 165.92 219.11 L 165.12 218.54 C 164.27 217.94 163.10 218.14 162.50 218.99 C 161.89 219.84 162.09 221.01 162.94 221.61 Z M 163.79 222.21 L 164.59 222.74 C 165.45 223.32 166.62 223.09 167.20 222.23 C 167.77 221.37 167.54 220.20 166.68 219.62 L 165.88 219.08 C 165.02 218.51 163.85 218.74 163.27 219.60 C 162.69 220.46 162.92 221.63 163.79 222.21 Z M 164.63 222.77 L 165.43 223.27 C 166.30 223.83 167.46 223.57 168.02 222.69 C 168.57 221.82 168.31 220.66 167.44 220.10 L 166.64 219.60 C 165.76 219.04 164.60 219.30 164.05 220.18 C 163.49 221.05 163.75 222.21 164.63 222.77 Z M 165.47 223.30 L 166.29 223.79 C 167.18 224.32 168.33 224.03 168.86 223.14 C 169.39 222.25 169.10 221.10 168.21 220.57 L 167.39 220.08 C 166.50 219.55 165.35 219.84 164.82 220.73 C 164.29 221.62 164.58 222.77 165.47 223.30 Z M 166.34 223.81 L 167.17 224.28 C 168.07 224.79 169.21 224.46 169.72 223.56 C 170.23 222.66 169.90 221.52 169.00 221.01 L 168.17 220.54 C 167.27 220.04 166.13 220.36 165.62 221.26 C 165.11 222.16 165.43 223.31 166.34 223.81 Z M 167.21 224.30 L 168.06 224.75 C 168.97 225.23 170.11 224.88 170.59 223.96 C 171.07 223.05 170.72 221.92 169.80 221.44 L 168.96 220.99 C 168.04 220.51 166.91 220.86 166.43 221.77 C 165.95 222.69 166.30 223.82 167.21 224.30 Z M 168.10 224.77 L 168.97 225.20 C 169.90 225.66 171.02 225.28 171.48 224.35 C 171.94 223.43 171.56 222.31 170.63 221.85 L 169.76 221.42 C 168.84 220.96 167.72 221.34 167.26 222.26 C 166.80 223.19 167.18 224.31 168.10 224.77 Z M 169.01 225.21 L 169.92 225.64 C 170.85 226.08 171.96 225.67 172.40 224.74 C 172.84 223.81 172.44 222.70 171.50 222.26 L 170.60 221.84 C 169.66 221.40 168.55 221.80 168.12 222.73 C 167.68 223.66 168.08 224.78 169.01 225.21 Z M 169.95 225.65 L 170.90 226.08 C 171.84 226.50 172.94 226.07 173.36 225.14 C 173.78 224.20 173.36 223.10 172.42 222.68 L 171.47 222.25 C 170.53 221.83 169.43 222.25 169.01 223.19 C 168.59 224.13 169.01 225.23 169.95 225.65 Z M 170.93 226.08 L 171.94 226.52 C 172.88 226.92 173.98 226.48 174.38 225.54 C 174.79 224.60 174.35 223.50 173.40 223.10 L 172.40 222.67 C 171.45 222.26 170.36 222.70 169.96 223.64 C 169.55 224.59 169.99 225.68 170.93 226.08 Z M 171.96 226.52 L 172.79 226.87 C 173.74 227.26 174.82 226.82 175.22 225.87 C 175.61 224.92 175.16 223.84 174.22 223.44 L 173.39 223.09 C 172.44 222.70 171.35 223.15 170.96 224.09 C 170.56 225.04 171.01 226.13 171.96 226.52 Z M 172.80 226.87 L 173.67 227.23 C 174.62 227.62 175.70 227.16 176.09 226.21 C 176.48 225.26 176.02 224.18 175.07 223.79 L 174.21 223.44 C 173.26 223.05 172.17 223.50 171.78 224.45 C 171.40 225.40 171.85 226.49 172.80 226.87 Z M 173.68 227.23 L 174.58 227.59 C 175.53 227.97 176.61 227.51 176.99 226.56 C 177.37 225.61 176.91 224.53 175.96 224.15 L 175.06 223.79 C 174.11 223.41 173.03 223.87 172.65 224.82 C 172.27 225.77 172.73 226.85 173.68 227.23 Z M 174.59 227.59 L 175.51 227.96 C 176.46 228.34 177.54 227.87 177.92 226.92 C 178.30 225.97 177.83 224.89 176.88 224.51 L 175.95 224.15 C 175.00 223.77 173.92 224.24 173.55 225.19 C 173.17 226.14 173.63 227.22 174.59 227.59 Z M 175.52 227.96 L 176.47 228.33 C 177.42 228.71 178.50 228.24 178.87 227.29 C 179.24 226.33 178.77 225.26 177.82 224.88 L 176.87 224.51 C 175.92 224.14 174.84 224.61 174.47 225.56 C 174.10 226.51 174.57 227.59 175.52 227.96 Z M 176.47 228.33 L 177.44 228.71 C 178.39 229.08 179.46 228.61 179.83 227.66 C 180.21 226.70 179.73 225.63 178.78 225.26 L 177.81 224.88 C 176.86 224.51 175.79 224.98 175.42 225.94 C 175.05 226.89 175.52 227.96 176.47 228.33 Z M 177.44 228.71 L 178.42 229.09 C 179.37 229.46 180.44 228.98 180.81 228.03 C 181.18 227.08 180.71 226.00 179.75 225.64 L 178.78 225.26 C 177.82 224.89 176.75 225.36 176.38 226.32 C 176.01 227.27 176.49 228.34 177.44 228.71 Z M 178.42 229.09 L 179.41 229.47 C 180.36 229.84 181.43 229.36 181.80 228.41 C 182.17 227.45 181.69 226.38 180.74 226.01 L 179.75 225.64 C 178.80 225.27 177.73 225.74 177.36 226.70 C 176.99 227.65 177.47 228.72 178.42 229.09 Z M 179.41 229.47 L 180.08 229.73 C 181.04 230.09 182.11 229.62 182.47 228.67 C 182.84 227.71 182.37 226.64 181.41 226.28 L 180.74 226.02 C 179.78 225.65 178.71 226.12 178.35 227.08 C 177.98 228.03 178.45 229.10 179.41 229.47 Z"
      fill="black"
      fill-rule="nonzero" /><path d="M 166.65 80.97 L 165.83 81.45 C 165.00 81.93 164.72 82.99 165.20 83.82 C 165.67 84.65 166.74 84.94 167.57 84.46 L 168.39 83.99 C 169.22 83.51 169.50 82.44 169.03 81.61 C 168.55 80.78 167.48 80.50 166.65 80.97 Z M 165.79 81.46 L 164.98 81.95 C 164.15 82.45 163.89 83.53 164.39 84.36 C 164.89 85.18 165.97 85.44 166.79 84.94 L 167.61 84.45 C 168.43 83.95 168.70 82.87 168.20 82.04 C 167.69 81.22 166.62 80.96 165.79 81.46 Z M 164.91 81.99 L 164.10 82.53 C 163.29 83.07 163.08 84.16 163.62 84.97 C 164.16 85.77 165.25 85.99 166.06 85.45 L 166.87 84.91 C 167.67 84.37 167.89 83.27 167.35 82.47 C 166.81 81.66 165.71 81.45 164.91 81.99 Z M 164.00 82.59 L 163.21 83.20 C 162.43 83.79 162.29 84.90 162.88 85.68 C 163.47 86.45 164.58 86.60 165.36 86.00 L 166.16 85.39 C 166.93 84.80 167.08 83.69 166.48 82.91 C 165.89 82.14 164.78 81.99 164.00 82.59 Z M 163.09 83.28 L 162.31 83.98 C 161.58 84.64 161.52 85.76 162.18 86.49 C 162.84 87.22 163.96 87.28 164.69 86.62 L 165.47 85.92 C 166.20 85.26 166.26 84.14 165.61 83.41 C 164.95 82.68 163.82 82.62 163.09 83.28 Z M 162.20 84.08 L 161.49 84.83 C 160.82 85.55 160.85 86.68 161.57 87.36 C 162.29 88.03 163.42 88.00 164.10 87.28 L 164.81 86.53 C 165.48 85.81 165.45 84.67 164.73 84.00 C 164.01 83.32 162.87 83.36 162.20 84.08 Z M 161.40 84.92 L 160.82 85.64 C 160.19 86.41 160.31 87.54 161.08 88.17 C 161.85 88.79 162.98 88.67 163.61 87.90 L 164.19 87.19 C 164.82 86.42 164.70 85.29 163.93 84.66 C 163.16 84.03 162.03 84.15 161.40 84.92 Z M 160.75 85.71 L 160.19 86.49 C 159.60 87.29 159.78 88.42 160.59 89.01 C 161.39 89.60 162.52 89.42 163.11 88.61 L 163.68 87.83 C 164.26 87.03 164.08 85.90 163.28 85.31 C 162.47 84.72 161.34 84.90 160.75 85.71 Z M 160.13 86.55 L 159.58 87.38 C 159.03 88.21 159.26 89.34 160.09 89.89 C 160.93 90.45 162.05 90.22 162.61 89.38 L 163.16 88.55 C 163.72 87.72 163.49 86.59 162.65 86.04 C 161.82 85.48 160.69 85.71 160.13 86.55 Z M 159.54 87.43 L 159.01 88.30 C 158.48 89.16 158.75 90.28 159.61 90.81 C 160.47 91.34 161.59 91.07 162.12 90.21 L 162.65 89.34 C 163.18 88.48 162.91 87.35 162.05 86.83 C 161.19 86.30 160.07 86.57 159.54 87.43 Z M 158.97 88.34 L 158.45 89.24 C 157.95 90.12 158.25 91.24 159.13 91.75 C 160.01 92.25 161.13 91.95 161.63 91.07 L 162.15 90.17 C 162.66 89.29 162.35 88.17 161.47 87.66 C 160.60 87.16 159.47 87.46 158.97 88.34 Z M 158.42 89.28 L 157.92 90.20 C 157.44 91.09 157.77 92.21 158.66 92.70 C 159.56 93.18 160.68 92.85 161.16 91.96 L 161.66 91.04 C 162.15 90.14 161.82 89.02 160.92 88.54 C 160.03 88.05 158.91 88.38 158.42 89.28 Z M 157.90 90.23 L 157.42 91.15 C 156.95 92.06 157.30 93.18 158.21 93.65 C 159.12 94.12 160.24 93.76 160.71 92.86 L 161.19 91.93 C 161.66 91.02 161.30 89.90 160.39 89.43 C 159.49 88.96 158.37 89.32 157.90 90.23 Z M 157.40 91.18 L 156.93 92.12 C 156.48 93.04 156.85 94.15 157.77 94.61 C 158.69 95.07 159.80 94.69 160.26 93.77 L 160.73 92.83 C 161.18 91.91 160.81 90.80 159.89 90.34 C 158.97 89.88 157.86 90.26 157.40 91.18 Z M 156.92 92.14 L 156.47 93.08 C 156.03 94.01 156.42 95.12 157.35 95.56 C 158.28 96.00 159.39 95.61 159.83 94.68 L 160.28 93.75 C 160.72 92.82 160.33 91.71 159.40 91.27 C 158.47 90.82 157.36 91.22 156.92 92.14 Z M 156.46 93.10 L 156.03 94.03 C 155.60 94.96 156.01 96.07 156.95 96.50 C 157.88 96.93 158.99 96.52 159.42 95.58 L 159.85 94.66 C 160.28 93.72 159.87 92.62 158.93 92.19 C 157.99 91.76 156.89 92.17 156.46 93.10 Z M 156.02 94.05 L 155.61 94.97 C 155.19 95.91 155.62 97.01 156.56 97.43 C 157.51 97.85 158.61 97.42 159.03 96.48 L 159.43 95.56 C 159.85 94.62 159.43 93.52 158.48 93.10 C 157.54 92.68 156.43 93.11 156.02 94.05 Z M 155.60 94.99 L 155.21 95.89 C 154.80 96.84 155.25 97.94 156.20 98.35 C 157.15 98.76 158.25 98.31 158.65 97.36 L 159.04 96.46 C 159.45 95.51 159.01 94.41 158.05 94.00 C 157.10 93.59 156.00 94.04 155.60 94.99 Z M 155.20 95.91 L 154.83 96.80 C 154.44 97.76 154.89 98.86 155.85 99.25 C 156.81 99.65 157.90 99.19 158.30 98.23 L 158.67 97.34 C 159.06 96.39 158.61 95.29 157.65 94.89 C 156.69 94.50 155.59 94.95 155.20 95.91 Z M 154.82 96.82 L 154.47 97.70 C 154.08 98.66 154.55 99.75 155.52 100.14 C 156.48 100.52 157.58 100.06 157.96 99.09 L 158.31 98.22 C 158.70 97.25 158.23 96.16 157.26 95.77 C 156.30 95.39 155.20 95.86 154.82 96.82 Z M 154.46 97.71 L 154.10 98.66 C 153.72 99.63 154.20 100.72 155.17 101.09 C 156.14 101.47 157.23 100.98 157.61 100.01 L 157.97 99.07 C 158.35 98.10 157.86 97.01 156.89 96.64 C 155.92 96.26 154.83 96.74 154.46 97.71 Z M 154.09 98.68 L 153.74 99.61 C 153.37 100.58 153.87 101.67 154.84 102.03 C 155.82 102.40 156.90 101.90 157.27 100.93 L 157.62 100.00 C 157.98 99.02 157.49 97.93 156.51 97.57 C 155.54 97.21 154.45 97.70 154.09 98.68 Z M 153.73 99.62 L 153.39 100.55 C 153.04 101.53 153.55 102.61 154.53 102.97 C 155.50 103.32 156.59 102.81 156.94 101.84 L 157.28 100.91 C 157.63 99.93 157.12 98.85 156.14 98.49 C 155.16 98.14 154.08 98.65 153.73 99.62 Z M 153.39 100.57 L 153.06 101.50 C 152.71 102.48 153.23 103.56 154.22 103.90 C 155.20 104.25 156.28 103.73 156.62 102.75 L 156.95 101.82 C 157.29 100.83 156.78 99.76 155.79 99.41 C 154.81 99.07 153.73 99.58 153.39 100.57 Z M 153.05 101.51 L 152.73 102.45 C 152.39 103.44 152.92 104.52 153.91 104.85 C 154.90 105.19 155.97 104.66 156.31 103.67 L 156.63 102.73 C 156.97 101.75 156.44 100.67 155.45 100.33 C 154.46 100.00 153.39 100.52 153.05 101.51 Z M 152.72 102.46 L 152.40 103.42 C 152.07 104.42 152.61 105.49 153.60 105.82 C 154.59 106.15 155.66 105.61 155.99 104.62 L 156.31 103.66 C 156.65 102.67 156.11 101.60 155.12 101.27 C 154.13 100.94 153.06 101.47 152.72 102.46 Z M 152.40 103.43 L 152.09 104.36 C 151.77 105.36 152.31 106.43 153.30 106.75 C 154.30 107.08 155.37 106.54 155.69 105.54 L 156.00 104.61 C 156.32 103.62 155.78 102.55 154.79 102.22 C 153.80 101.90 152.73 102.44 152.40 103.43 Z M 152.09 104.37 L 151.80 105.27 C 151.48 106.26 152.03 107.33 153.02 107.65 C 154.02 107.97 155.09 107.43 155.41 106.43 L 155.70 105.54 C 156.02 104.54 155.47 103.47 154.48 103.15 C 153.48 102.83 152.41 103.38 152.09 104.37 Z M 151.80 105.28 L 151.51 106.20 C 151.19 107.19 151.74 108.26 152.74 108.58 C 153.74 108.89 154.80 108.34 155.12 107.34 L 155.41 106.42 C 155.73 105.42 155.18 104.36 154.18 104.04 C 153.18 103.73 152.11 104.28 151.80 105.28 Z M 151.50 106.21 L 151.21 107.15 C 150.90 108.15 151.46 109.21 152.46 109.52 C 153.46 109.83 154.52 109.27 154.83 108.27 L 155.12 107.33 C 155.44 106.33 154.88 105.27 153.88 104.96 C 152.88 104.65 151.81 105.21 151.50 106.21 Z M 151.21 107.16 L 150.91 108.13 C 150.61 109.13 151.17 110.19 152.18 110.49 C 153.18 110.80 154.24 110.23 154.54 109.23 L 154.84 108.26 C 155.14 107.26 154.57 106.20 153.57 105.90 C 152.57 105.59 151.51 106.16 151.21 107.16 Z M 150.91 108.14 L 150.62 109.12 C 150.32 110.13 150.89 111.19 151.90 111.48 C 152.90 111.78 153.96 111.21 154.26 110.20 L 154.55 109.21 C 154.85 108.21 154.27 107.15 153.27 106.86 C 152.26 106.56 151.21 107.13 150.91 108.14 Z M 150.61 109.14 L 150.32 110.15 C 150.03 111.16 150.61 112.21 151.62 112.50 C 152.63 112.79 153.68 112.20 153.97 111.20 L 154.26 110.19 C 154.55 109.18 153.97 108.13 152.96 107.84 C 151.95 107.55 150.90 108.13 150.61 109.14 Z M 150.32 110.16 L 150.03 111.18 C 149.75 112.19 150.34 113.24 151.35 113.52 C 152.36 113.80 153.41 113.21 153.69 112.20 L 153.98 111.18 C 154.26 110.17 153.67 109.12 152.66 108.84 C 151.65 108.56 150.60 109.15 150.32 110.16 Z M 150.03 111.19 L 149.77 112.15 C 149.50 113.16 150.10 114.21 151.11 114.48 C 152.12 114.75 153.17 114.15 153.44 113.14 L 153.70 112.18 C 153.97 111.17 153.37 110.13 152.36 109.85 C 151.35 109.58 150.30 110.18 150.03 111.19 Z M 149.77 112.16 L 149.51 113.13 C 149.24 114.15 149.85 115.19 150.87 115.45 C 151.88 115.72 152.92 115.11 153.19 114.10 L 153.44 113.13 C 153.71 112.11 153.10 111.07 152.09 110.81 C 151.07 110.54 150.03 111.15 149.77 112.16 Z M 149.51 113.14 L 149.26 114.12 C 149.00 115.14 149.61 116.17 150.63 116.43 C 151.65 116.69 152.68 116.08 152.94 115.06 L 153.19 114.09 C 153.45 113.07 152.84 112.03 151.82 111.77 C 150.80 111.51 149.77 112.13 149.51 113.14 Z M 149.26 114.13 L 149.01 115.11 C 148.75 116.13 149.37 117.16 150.39 117.42 C 151.41 117.67 152.44 117.05 152.70 116.03 L 152.94 115.05 C 153.20 114.04 152.58 113.00 151.56 112.75 C 150.54 112.49 149.51 113.11 149.26 114.13 Z M 149.01 115.12 L 148.77 116.10 C 148.52 117.12 149.14 118.15 150.16 118.40 C 151.18 118.65 152.21 118.03 152.46 117.01 L 152.70 116.03 C 152.95 115.01 152.33 113.98 151.31 113.73 C 150.29 113.48 149.26 114.10 149.01 115.12 Z M 148.76 116.11 L 148.53 117.08 C 148.28 118.11 148.91 119.13 149.93 119.38 C 150.96 119.62 151.98 119.00 152.23 117.97 L 152.46 117.00 C 152.71 115.98 152.08 114.95 151.06 114.71 C 150.04 114.46 149.01 115.09 148.76 116.11 Z M 148.53 117.09 L 148.30 118.06 C 148.06 119.08 148.69 120.11 149.71 120.35 C 150.73 120.59 151.76 119.96 152.00 118.93 L 152.23 117.97 C 152.47 116.95 151.84 115.92 150.82 115.68 C 149.79 115.44 148.77 116.07 148.53 117.09 Z M 148.30 118.06 L 148.07 119.03 C 147.83 120.05 148.47 121.08 149.49 121.31 C 150.52 121.55 151.54 120.92 151.78 119.89 L 152.00 118.93 C 152.24 117.90 151.61 116.88 150.58 116.64 C 149.56 116.41 148.54 117.04 148.30 118.06 Z M 148.07 119.04 L 147.83 120.07 C 147.60 121.10 148.24 122.12 149.26 122.35 C 150.29 122.59 151.31 121.95 151.54 120.92 L 151.78 119.89 C 152.01 118.86 151.37 117.84 150.35 117.61 C 149.33 117.37 148.31 118.01 148.07 119.04 Z M 147.83 120.08 L 147.60 121.10 C 147.37 122.12 148.02 123.14 149.04 123.37 C 150.07 123.60 151.08 122.96 151.31 121.93 L 151.54 120.92 C 151.77 119.89 151.13 118.87 150.11 118.64 C 149.08 118.41 148.06 119.05 147.83 120.08 Z M 147.60 121.10 L 147.38 122.10 C 147.16 123.13 147.80 124.14 148.83 124.37 C 149.86 124.59 150.87 123.94 151.10 122.92 L 151.32 121.92 C 151.54 120.90 150.89 119.88 149.87 119.66 C 148.84 119.43 147.83 120.08 147.60 121.10 Z M 147.38 122.11 L 147.17 123.09 C 146.95 124.12 147.60 125.13 148.63 125.35 C 149.66 125.57 150.67 124.91 150.89 123.88 L 151.10 122.91 C 151.32 121.88 150.66 120.87 149.64 120.65 C 148.61 120.43 147.60 121.08 147.38 122.11 Z M 147.17 123.10 L 146.97 124.06 C 146.76 125.09 147.42 126.09 148.45 126.31 C 149.48 126.52 150.48 125.86 150.69 124.83 L 150.89 123.87 C 151.11 122.84 150.44 121.84 149.42 121.62 C 148.39 121.41 147.38 122.07 147.17 123.10 Z M 146.97 124.07 L 146.78 125.01 C 146.57 126.04 147.24 127.05 148.27 127.25 C 149.30 127.46 150.31 126.79 150.51 125.76 L 150.70 124.82 C 150.90 123.79 150.23 122.78 149.20 122.58 C 148.17 122.37 147.17 123.04 146.97 124.07 Z M 146.78 125.03 L 146.60 125.95 C 146.40 126.99 147.08 127.98 148.12 128.18 C 149.15 128.37 150.14 127.70 150.34 126.66 L 150.51 125.74 C 150.71 124.71 150.03 123.71 149.00 123.52 C 147.97 123.32 146.97 124.00 146.78 125.03 Z M 146.60 125.97 L 146.41 126.99 C 146.23 128.03 146.92 129.02 147.95 129.20 C 148.99 129.39 149.97 128.70 150.16 127.66 L 150.34 126.64 C 150.53 125.61 149.84 124.62 148.80 124.44 C 147.77 124.25 146.78 124.94 146.60 125.97 Z M 146.41 127.02 L 146.24 128.04 C 146.07 129.07 146.77 130.05 147.80 130.22 C 148.84 130.40 149.82 129.70 149.99 128.66 L 150.16 127.64 C 150.34 126.61 149.64 125.63 148.60 125.45 C 147.56 125.28 146.58 125.98 146.41 127.02 Z M 146.24 128.06 L 146.08 129.06 C 145.92 130.09 146.63 131.07 147.67 131.23 C 148.71 131.39 149.68 130.68 149.84 129.64 L 150.00 128.64 C 150.16 127.60 149.45 126.63 148.41 126.47 C 147.37 126.31 146.40 127.02 146.24 128.06 Z M 146.08 129.08 L 145.94 130.06 C 145.79 131.10 146.51 132.06 147.55 132.21 C 148.59 132.36 149.55 131.64 149.70 130.60 L 149.84 129.62 C 149.99 128.58 149.27 127.62 148.23 127.47 C 147.19 127.32 146.23 128.04 146.08 129.08 Z M 145.93 130.08 L 145.81 131.05 C 145.67 132.09 146.40 133.05 147.44 133.18 C 148.48 133.32 149.44 132.59 149.58 131.55 L 149.71 130.58 C 149.84 129.54 149.11 128.58 148.07 128.45 C 147.03 128.31 146.07 129.04 145.93 130.08 Z M 145.80 131.07 L 145.69 132.02 C 145.56 133.07 146.30 134.01 147.35 134.14 C 148.39 134.27 149.34 133.52 149.46 132.48 L 149.58 131.53 C 149.71 130.49 148.96 129.54 147.92 129.41 C 146.88 129.28 145.93 130.03 145.80 131.07 Z M 145.69 132.04 L 145.58 133.00 C 145.47 134.04 146.22 134.98 147.26 135.10 C 148.31 135.21 149.25 134.46 149.36 133.42 L 149.47 132.46 C 149.58 131.42 148.83 130.48 147.79 130.36 C 146.74 130.25 145.80 131.00 145.69 132.04 Z M 145.58 133.02 L 145.48 133.98 C 145.38 135.03 146.14 135.96 147.19 136.06 C 148.23 136.17 149.16 135.40 149.27 134.36 L 149.36 133.40 C 149.47 132.35 148.70 131.42 147.66 131.32 C 146.61 131.21 145.68 131.98 145.58 133.02 Z M 145.48 134.01 L 145.40 134.97 C 145.31 136.02 146.08 136.94 147.13 137.03 C 148.17 137.12 149.10 136.35 149.19 135.30 L 149.27 134.33 C 149.36 133.29 148.59 132.37 147.54 132.28 C 146.49 132.18 145.57 132.96 145.48 134.01 Z M 145.40 135.00 L 145.32 135.98 C 145.25 137.02 146.03 137.94 147.08 138.01 C 148.13 138.09 149.04 137.30 149.12 136.26 L 149.19 135.27 C 149.27 134.23 148.48 133.32 147.43 133.24 C 146.38 133.16 145.47 133.95 145.40 135.00 Z M 145.32 136.00 L 145.26 137.01 C 145.20 138.06 146.00 138.96 147.05 139.02 C 148.09 139.08 149.00 138.28 149.06 137.24 L 149.12 136.23 C 149.18 135.18 148.38 134.28 147.33 134.22 C 146.29 134.16 145.38 134.95 145.32 136.00 Z M 145.26 137.03 L 145.21 138.08 C 145.16 139.12 145.97 140.01 147.02 140.06 C 148.07 140.11 148.96 139.30 149.01 138.25 L 149.06 137.21 C 149.11 136.16 148.30 135.27 147.25 135.22 C 146.20 135.17 145.31 135.98 145.26 137.03 Z M 145.21 138.10 L 145.18 139.13 C 145.14 140.18 145.96 141.06 147.01 141.10 C 148.06 141.13 148.94 140.31 148.98 139.26 L 149.01 138.23 C 149.05 137.18 148.23 136.30 147.18 136.26 C 146.13 136.23 145.25 137.05 145.21 138.10 Z M 145.17 139.15 L 145.15 140.14 C 145.12 141.19 145.96 142.06 147.01 142.09 C 148.06 142.11 148.93 141.28 148.95 140.23 L 148.98 139.24 C 149.00 138.19 148.17 137.32 147.12 137.30 C 146.07 137.27 145.20 138.10 145.17 139.15 Z M 145.15 140.15 L 145.13 141.17 C 145.12 142.22 145.95 143.08 147.00 143.10 C 148.05 143.12 148.92 142.28 148.94 141.23 L 148.95 140.22 C 148.97 139.17 148.13 138.30 147.08 138.28 C 146.03 138.27 145.17 139.10 145.15 140.15 Z M 145.13 141.18 L 145.12 142.20 C 145.11 143.25 145.95 144.11 147.00 144.12 C 148.05 144.14 148.92 143.29 148.93 142.24 L 148.94 141.22 C 148.95 140.17 148.11 139.31 147.06 139.30 C 146.00 139.28 145.14 140.13 145.13 141.18 Z M 145.12 142.21 L 145.11 143.23 C 145.11 144.28 145.95 145.14 147.01 145.15 C 148.06 145.15 148.91 144.31 148.92 143.26 L 148.93 142.23 C 148.93 141.18 148.09 140.32 147.04 140.32 C 145.98 140.31 145.13 141.16 145.12 142.21 Z M 145.11 143.24 L 145.11 144.25 C 145.11 145.30 145.96 146.15 147.01 146.16 C 148.06 146.16 148.92 145.31 148.92 144.26 L 148.92 143.25 C 148.92 142.20 148.07 141.34 147.02 141.34 C 145.97 141.34 145.12 142.19 145.11 143.24 Z M 145.11 144.25 L 145.11 145.24 C 145.11 146.29 145.96 147.14 147.01 147.14 C 148.06 147.14 148.92 146.29 148.92 145.24 L 148.92 144.26 C 148.92 143.20 148.07 142.35 147.02 142.35 C 145.96 142.35 145.11 143.20 145.11 144.25 Z M 145.11 145.24 L 145.11 146.25 C 145.11 147.31 145.96 148.16 147.01 148.16 C 148.07 148.16 148.92 147.31 148.92 146.25 L 148.92 145.24 C 148.92 144.19 148.07 143.33 147.01 143.33 C 145.96 143.33 145.11 144.19 145.11 145.24 Z M 145.11 146.26 L 145.11 147.34 C 145.11 148.39 145.97 149.24 147.02 149.24 C 148.07 149.24 148.92 148.38 148.92 147.33 L 148.92 146.25 C 148.92 145.20 148.06 144.35 147.01 144.35 C 145.96 144.35 145.11 145.21 145.11 146.26 Z M 145.11 147.35 L 145.12 148.38 C 145.12 149.43 145.98 150.28 147.04 150.27 C 148.09 150.26 148.94 149.40 148.93 148.35 L 148.92 147.32 C 148.92 146.27 148.06 145.42 147.00 145.43 C 145.95 145.43 145.10 146.29 145.11 147.35 Z M 145.11 148.40 L 145.13 149.39 C 145.15 150.44 146.02 151.28 147.08 151.26 C 148.13 151.24 148.97 150.37 148.95 149.31 L 148.93 148.33 C 148.91 147.27 148.04 146.43 146.99 146.45 C 145.93 146.47 145.09 147.34 145.11 148.40 Z M 145.13 149.42 L 145.16 150.37 C 145.20 151.43 146.09 152.25 147.14 152.22 C 148.20 152.18 149.02 151.30 148.99 150.24 L 148.95 149.28 C 148.92 148.23 148.03 147.40 146.98 147.44 C 145.92 147.47 145.09 148.36 145.13 149.42 Z M 145.16 150.41 L 145.22 151.35 C 145.28 152.40 146.18 153.21 147.24 153.15 C 148.29 153.09 149.10 152.19 149.04 151.13 L 148.99 150.20 C 148.93 149.14 148.02 148.33 146.97 148.39 C 145.91 148.45 145.10 149.36 145.16 150.41 Z M 145.22 151.40 L 145.30 152.35 C 145.38 153.40 146.31 154.19 147.36 154.10 C 148.42 154.01 149.20 153.09 149.12 152.03 L 149.04 151.08 C 148.95 150.03 148.02 149.24 146.97 149.33 C 145.91 149.42 145.13 150.34 145.22 151.40 Z M 145.30 152.40 L 145.41 153.37 C 145.52 154.42 146.47 155.18 147.52 155.06 C 148.58 154.94 149.34 154.00 149.22 152.94 L 149.11 151.98 C 149.00 150.93 148.05 150.17 147.00 150.28 C 145.94 150.40 145.18 151.35 145.30 152.40 Z M 145.41 153.41 L 145.54 154.38 C 145.69 155.43 146.65 156.17 147.70 156.03 C 148.75 155.89 149.49 154.92 149.35 153.87 L 149.21 152.90 C 149.07 151.85 148.11 151.11 147.06 151.25 C 146.01 151.40 145.27 152.36 145.41 153.41 Z M 145.55 154.42 L 145.70 155.40 C 145.87 156.45 146.85 157.17 147.89 157.01 C 148.94 156.84 149.66 155.86 149.49 154.81 L 149.34 153.83 C 149.18 152.78 148.20 152.07 147.15 152.23 C 146.10 152.39 145.39 153.37 145.55 154.42 Z M 145.71 155.43 L 145.88 156.44 C 146.06 157.48 147.05 158.18 148.10 158.00 C 149.14 157.82 149.84 156.83 149.66 155.79 L 149.49 154.78 C 149.31 153.74 148.32 153.04 147.27 153.22 C 146.23 153.40 145.53 154.39 145.71 155.43 Z M 145.88 156.46 L 146.07 157.49 C 146.26 158.53 147.26 159.22 148.31 159.03 C 149.35 158.84 150.04 157.84 149.85 156.79 L 149.66 155.76 C 149.47 154.72 148.47 154.03 147.42 154.22 C 146.38 154.41 145.69 155.42 145.88 156.46 Z M 146.07 157.50 L 146.25 158.43 C 146.45 159.47 147.46 160.15 148.50 159.95 C 149.54 159.75 150.22 158.75 150.02 157.71 L 149.85 156.78 C 149.65 155.74 148.64 155.06 147.60 155.26 C 146.56 155.45 145.87 156.46 146.07 157.50 Z M 146.25 158.44 L 146.44 159.38 C 146.64 160.42 147.65 161.10 148.69 160.90 C 149.73 160.69 150.41 159.68 150.21 158.64 L 150.02 157.70 C 149.82 156.66 148.81 155.98 147.77 156.18 C 146.73 156.39 146.05 157.39 146.25 158.44 Z M 146.44 159.39 L 146.63 160.35 C 146.84 161.39 147.85 162.07 148.89 161.86 C 149.93 161.66 150.61 160.64 150.40 159.60 L 150.21 158.64 C 150.00 157.60 148.99 156.92 147.95 157.13 C 146.91 157.33 146.23 158.34 146.44 159.39 Z M 146.63 160.36 L 146.83 161.34 C 147.04 162.38 148.05 163.06 149.09 162.85 C 150.13 162.64 150.80 161.63 150.60 160.59 L 150.40 159.60 C 150.19 158.56 149.18 157.89 148.14 158.09 C 147.10 158.30 146.42 159.31 146.63 160.36 Z M 146.83 161.34 L 147.03 162.35 C 147.24 163.39 148.25 164.07 149.29 163.86 C 150.33 163.65 151.01 162.64 150.80 161.60 L 150.60 160.59 C 150.39 159.55 149.38 158.87 148.33 159.08 C 147.29 159.29 146.62 160.30 146.83 161.34 Z M 147.03 162.35 L 147.23 163.38 C 147.44 164.42 148.45 165.09 149.49 164.89 C 150.53 164.68 151.21 163.67 151.00 162.63 L 150.80 161.60 C 150.59 160.56 149.58 159.88 148.54 160.09 C 147.50 160.30 146.82 161.31 147.03 162.35 Z M 147.23 163.37 L 147.42 164.35 C 147.63 165.39 148.64 166.07 149.68 165.86 C 150.72 165.66 151.40 164.65 151.20 163.61 L 151.00 162.63 C 150.80 161.59 149.79 160.91 148.75 161.12 C 147.71 161.32 147.03 162.33 147.23 163.37 Z M 147.42 164.35 L 147.60 165.27 C 147.81 166.31 148.82 166.99 149.86 166.79 C 150.90 166.59 151.58 165.58 151.38 164.54 L 151.20 163.61 C 150.99 162.57 149.99 161.89 148.94 162.09 C 147.90 162.29 147.22 163.30 147.42 164.35 Z M 147.60 165.27 L 147.79 166.21 C 147.99 167.25 149.00 167.93 150.04 167.73 C 151.08 167.53 151.76 166.52 151.56 165.48 L 151.38 164.54 C 151.18 163.50 150.17 162.81 149.12 163.02 C 148.08 163.22 147.40 164.23 147.60 165.27 Z M 147.79 166.21 L 147.97 167.17 C 148.18 168.21 149.19 168.89 150.23 168.69 C 151.27 168.49 151.95 167.48 151.75 166.44 L 151.56 165.48 C 151.36 164.44 150.35 163.76 149.31 163.96 C 148.26 164.16 147.58 165.17 147.79 166.21 Z M 147.97 167.17 L 148.17 168.16 C 148.37 169.20 149.38 169.88 150.42 169.67 C 151.46 169.47 152.14 168.46 151.94 167.42 L 151.75 166.44 C 151.54 165.39 150.53 164.71 149.49 164.92 C 148.45 165.12 147.77 166.13 147.97 167.17 Z M 148.17 168.16 L 148.37 169.17 C 148.57 170.21 149.59 170.89 150.63 170.68 C 151.67 170.47 152.34 169.46 152.14 168.42 L 151.94 167.41 C 151.73 166.37 150.72 165.70 149.68 165.90 C 148.64 166.11 147.96 167.12 148.17 168.16 Z M 148.37 169.17 L 148.58 170.21 C 148.79 171.25 149.80 171.92 150.84 171.71 C 151.88 171.50 152.56 170.49 152.35 169.45 L 152.14 168.41 C 151.93 167.37 150.91 166.70 149.87 166.91 C 148.83 167.12 148.16 168.13 148.37 169.17 Z M 148.58 170.22 L 148.80 171.26 C 149.01 172.30 150.03 172.96 151.07 172.75 C 152.10 172.54 152.77 171.52 152.56 170.48 L 152.34 169.44 C 152.13 168.40 151.11 167.73 150.07 167.95 C 149.03 168.16 148.37 169.18 148.58 170.22 Z M 148.80 171.26 L 148.99 172.18 C 149.21 173.22 150.23 173.88 151.27 173.66 C 152.30 173.44 152.97 172.42 152.75 171.38 L 152.56 170.47 C 152.34 169.43 151.32 168.77 150.28 168.99 C 149.24 169.21 148.58 170.23 148.80 171.26 Z M 148.99 172.19 L 149.19 173.12 C 149.42 174.16 150.44 174.82 151.48 174.59 C 152.51 174.37 153.17 173.35 152.95 172.31 L 152.75 171.38 C 152.52 170.34 151.50 169.68 150.47 169.90 C 149.43 170.13 148.77 171.15 148.99 172.19 Z M 149.20 173.13 L 149.41 174.08 C 149.63 175.12 150.66 175.77 151.69 175.54 C 152.73 175.31 153.38 174.29 153.16 173.25 L 152.95 172.30 C 152.72 171.27 151.69 170.61 150.66 170.84 C 149.62 171.07 148.97 172.09 149.20 173.13 Z M 149.41 174.09 L 149.63 175.06 C 149.86 176.09 150.89 176.74 151.92 176.51 C 152.95 176.28 153.60 175.25 153.37 174.21 L 153.15 173.25 C 152.92 172.21 151.89 171.56 150.86 171.79 C 149.82 172.03 149.18 173.05 149.41 174.09 Z M 149.63 175.07 L 149.86 176.05 C 150.09 177.08 151.12 177.73 152.16 177.49 C 153.19 177.25 153.83 176.22 153.59 175.19 L 153.37 174.21 C 153.13 173.17 152.10 172.53 151.07 172.77 C 150.04 173.00 149.39 174.03 149.63 175.07 Z M 149.86 176.06 L 150.09 177.06 C 150.34 178.09 151.37 178.73 152.40 178.48 C 153.43 178.24 154.07 177.21 153.83 176.18 L 153.59 175.18 C 153.35 174.15 152.32 173.51 151.28 173.75 C 150.25 174.00 149.62 175.03 149.86 176.06 Z M 150.10 177.07 L 150.34 178.07 C 150.59 179.10 151.63 179.74 152.66 179.49 C 153.68 179.24 154.32 178.20 154.07 177.17 L 153.82 176.17 C 153.58 175.14 152.54 174.50 151.51 174.75 C 150.48 175.00 149.85 176.04 150.10 177.07 Z M 150.34 178.08 L 150.60 179.10 C 150.85 180.13 151.89 180.75 152.92 180.50 C 153.95 180.24 154.57 179.20 154.32 178.18 L 154.06 177.16 C 153.81 176.13 152.77 175.51 151.74 175.76 C 150.72 176.02 150.09 177.06 150.34 178.08 Z M 150.60 179.11 L 150.86 180.12 C 151.12 181.15 152.16 181.77 153.19 181.51 C 154.21 181.25 154.83 180.20 154.57 179.18 L 154.31 178.17 C 154.05 177.14 153.01 176.52 151.98 176.78 C 150.96 177.04 150.34 178.09 150.60 179.11 Z M 150.86 180.14 L 151.12 181.13 C 151.39 182.15 152.44 182.76 153.46 182.50 C 154.48 182.23 155.09 181.18 154.83 180.16 L 154.57 179.17 C 154.30 178.15 153.25 177.53 152.23 177.80 C 151.21 178.07 150.60 179.11 150.86 180.14 Z M 151.13 181.14 L 151.39 182.13 C 151.67 183.15 152.71 183.76 153.73 183.49 C 154.75 183.21 155.36 182.17 155.09 181.15 L 154.82 180.15 C 154.55 179.13 153.50 178.53 152.48 178.80 C 151.46 179.07 150.86 180.12 151.13 181.14 Z M 151.40 182.14 L 151.67 183.13 C 151.95 184.15 153.00 184.75 154.01 184.47 C 155.03 184.19 155.63 183.15 155.35 182.13 L 155.08 181.14 C 154.80 180.12 153.75 179.52 152.74 179.80 C 151.72 180.08 151.12 181.13 151.40 182.14 Z M 151.67 183.14 L 151.95 184.13 C 152.23 185.14 153.28 185.73 154.29 185.45 C 155.31 185.17 155.90 184.12 155.62 183.10 L 155.35 182.12 C 155.06 181.11 154.01 180.51 153.00 180.79 C 151.99 181.08 151.39 182.13 151.67 183.14 Z M 151.95 184.13 L 152.23 185.11 C 152.51 186.12 153.57 186.70 154.58 186.42 C 155.59 186.13 156.18 185.08 155.89 184.07 L 155.61 183.10 C 155.33 182.09 154.28 181.50 153.27 181.78 C 152.25 182.07 151.67 183.12 151.95 184.13 Z M 152.23 185.11 L 152.51 186.07 C 152.80 187.08 153.85 187.66 154.86 187.37 C 155.87 187.08 156.45 186.03 156.16 185.02 L 155.89 184.06 C 155.60 183.05 154.54 182.47 153.53 182.76 C 152.53 183.05 151.94 184.10 152.23 185.11 Z M 152.51 186.08 L 152.79 187.02 C 153.08 188.02 154.13 188.60 155.14 188.31 C 156.15 188.01 156.72 186.96 156.43 185.95 L 156.16 185.01 C 155.86 184.01 154.81 183.43 153.80 183.72 C 152.80 184.02 152.22 185.07 152.51 186.08 Z M 152.79 187.02 L 153.06 187.94 C 153.36 188.94 154.41 189.52 155.42 189.22 C 156.42 188.92 156.99 187.87 156.70 186.86 L 156.43 185.95 C 156.13 184.94 155.07 184.37 154.07 184.67 C 153.07 184.96 152.49 186.02 152.79 187.02 Z M 153.07 187.95 L 153.35 188.88 C 153.65 189.88 154.70 190.44 155.70 190.14 C 156.70 189.84 157.27 188.79 156.97 187.79 L 156.69 186.86 C 156.39 185.86 155.34 185.29 154.34 185.59 C 153.33 185.89 152.77 186.95 153.07 187.95 Z M 153.35 188.88 L 153.68 189.94 C 153.98 190.94 155.04 191.50 156.03 191.20 C 157.03 190.89 157.59 189.84 157.29 188.84 L 156.96 187.78 C 156.66 186.78 155.61 186.22 154.61 186.53 C 153.61 186.83 153.05 187.89 153.35 188.88 Z M 153.69 189.95 L 154.01 190.97 C 154.32 191.97 155.37 192.52 156.36 192.21 C 157.35 191.90 157.91 190.84 157.60 189.85 L 157.28 188.83 C 156.97 187.84 155.91 187.29 154.92 187.60 C 153.93 187.91 153.38 188.96 153.69 189.95 Z M 154.02 190.99 L 154.33 191.97 C 154.65 192.95 155.71 193.50 156.69 193.18 C 157.68 192.86 158.22 191.81 157.90 190.82 L 157.59 189.84 C 157.27 188.85 156.21 188.31 155.23 188.63 C 154.24 188.94 153.70 190.00 154.02 190.99 Z M 154.34 191.99 L 154.66 192.93 C 154.98 193.91 156.04 194.44 157.02 194.11 C 158.00 193.78 158.53 192.72 158.21 191.74 L 157.89 190.80 C 157.56 189.82 156.51 189.29 155.53 189.62 C 154.55 189.95 154.02 191.01 154.34 191.99 Z M 154.67 192.95 L 154.99 193.86 C 155.32 194.83 156.39 195.34 157.36 195.00 C 158.33 194.67 158.85 193.60 158.51 192.63 L 158.19 191.72 C 157.85 190.75 156.79 190.24 155.82 190.57 C 154.85 190.91 154.33 191.98 154.67 192.95 Z M 155.00 193.88 L 155.32 194.75 C 155.67 195.72 156.74 196.21 157.70 195.86 C 158.67 195.51 159.16 194.44 158.81 193.48 L 158.49 192.61 C 158.14 191.64 157.07 191.15 156.11 191.50 C 155.15 191.85 154.65 192.92 155.00 193.88 Z M 155.34 194.78 L 155.66 195.62 C 156.03 196.58 157.10 197.06 158.05 196.69 C 159.01 196.32 159.49 195.25 159.12 194.29 L 158.79 193.45 C 158.43 192.50 157.36 192.02 156.40 192.39 C 155.44 192.75 154.97 193.83 155.34 194.78 Z M 155.68 195.66 L 156.05 196.57 C 156.44 197.52 157.52 197.97 158.46 197.58 C 159.41 197.20 159.86 196.12 159.47 195.17 L 159.10 194.26 C 158.71 193.32 157.63 192.86 156.69 193.25 C 155.75 193.64 155.29 194.71 155.68 195.66 Z M 156.08 196.61 L 156.47 197.52 C 156.88 198.45 157.97 198.87 158.90 198.47 C 159.83 198.06 160.25 196.97 159.85 196.04 L 159.45 195.14 C 159.04 194.20 157.96 193.78 157.02 194.19 C 156.09 194.59 155.67 195.68 156.08 196.61 Z M 156.50 197.56 L 156.91 198.45 C 157.34 199.36 158.44 199.76 159.35 199.33 C 160.27 198.90 160.67 197.81 160.24 196.89 L 159.82 196.00 C 159.39 195.08 158.30 194.69 157.38 195.12 C 156.46 195.55 156.07 196.64 156.50 197.56 Z M 156.94 198.48 L 157.38 199.36 C 157.83 200.27 158.93 200.63 159.83 200.18 C 160.73 199.73 161.10 198.63 160.65 197.73 L 160.21 196.85 C 159.76 195.95 158.66 195.58 157.76 196.03 C 156.86 196.48 156.49 197.58 156.94 198.48 Z M 157.40 199.40 L 157.87 200.28 C 158.34 201.17 159.44 201.51 160.33 201.04 C 161.22 200.57 161.56 199.46 161.09 198.57 L 160.62 197.69 C 160.15 196.81 159.05 196.47 158.16 196.94 C 157.27 197.41 156.93 198.51 157.40 199.40 Z M 157.89 200.31 L 158.39 201.20 C 158.88 202.08 159.98 202.39 160.86 201.90 C 161.73 201.41 162.05 200.31 161.56 199.43 L 161.06 198.54 C 160.58 197.67 159.47 197.35 158.59 197.84 C 157.72 198.33 157.40 199.43 157.89 200.31 Z M 158.41 201.23 L 158.91 202.09 C 159.42 202.96 160.52 203.25 161.39 202.75 C 162.25 202.24 162.54 201.13 162.04 200.27 L 161.54 199.41 C 161.03 198.54 159.93 198.25 159.06 198.75 C 158.20 199.25 157.91 200.36 158.41 201.23 Z M 158.93 202.12 L 159.43 202.94 C 159.95 203.79 161.06 204.06 161.91 203.55 C 162.76 203.03 163.03 201.92 162.52 201.07 L 162.02 200.25 C 161.51 199.40 160.40 199.12 159.54 199.64 C 158.69 200.15 158.42 201.26 158.93 202.12 Z M 159.45 202.96 L 159.98 203.79 C 160.51 204.63 161.62 204.89 162.46 204.36 C 163.30 203.83 163.55 202.72 163.02 201.88 L 162.50 201.05 C 161.97 200.21 160.86 199.95 160.02 200.48 C 159.18 201.01 158.93 202.12 159.45 202.96 Z M 160.00 203.82 L 160.55 204.66 C 161.09 205.49 162.20 205.72 163.03 205.18 C 163.86 204.63 164.09 203.52 163.55 202.70 L 163.00 201.86 C 162.46 201.03 161.35 200.80 160.52 201.34 C 159.69 201.88 159.46 202.99 160.00 203.82 Z M 160.57 204.68 L 161.15 205.52 C 161.70 206.34 162.81 206.55 163.63 205.99 C 164.44 205.43 164.65 204.32 164.10 203.51 L 163.52 202.67 C 162.97 201.86 161.86 201.65 161.04 202.20 C 160.23 202.76 160.02 203.87 160.57 204.68 Z M 161.17 205.55 L 161.77 206.38 C 162.34 207.18 163.45 207.37 164.25 206.79 C 165.05 206.22 165.23 205.11 164.66 204.31 L 164.07 203.48 C 163.50 202.68 162.39 202.50 161.59 203.07 C 160.79 203.64 160.60 204.75 161.17 205.55 Z M 161.80 206.41 L 162.41 207.23 C 163.00 208.01 164.11 208.17 164.89 207.58 C 165.68 206.99 165.84 205.88 165.25 205.10 L 164.63 204.28 C 164.05 203.50 162.93 203.34 162.15 203.93 C 161.37 204.52 161.21 205.63 161.80 206.41 Z M 162.44 207.26 L 163.07 208.05 C 163.68 208.82 164.79 208.95 165.55 208.34 C 166.32 207.74 166.45 206.62 165.84 205.86 L 165.22 205.07 C 164.61 204.30 163.50 204.17 162.73 204.78 C 161.97 205.39 161.84 206.50 162.44 207.26 Z M 163.10 208.08 L 163.72 208.82 C 164.34 209.57 165.45 209.67 166.20 209.05 C 166.95 208.43 167.05 207.31 166.43 206.57 L 165.81 205.83 C 165.19 205.08 164.08 204.98 163.33 205.60 C 162.58 206.23 162.48 207.34 163.10 208.08 Z M 163.74 208.84 L 164.36 209.57 C 164.99 210.30 166.10 210.39 166.84 209.76 C 167.58 209.12 167.66 208.02 167.03 207.28 L 166.40 206.55 C 165.77 205.81 164.66 205.73 163.93 206.36 C 163.19 206.99 163.11 208.10 163.74 208.84 Z M 164.37 209.57 L 165.00 210.30 C 165.63 211.03 166.74 211.11 167.47 210.48 C 168.20 209.85 168.28 208.74 167.65 208.01 L 167.02 207.28 C 166.39 206.55 165.28 206.47 164.55 207.10 C 163.82 207.73 163.74 208.83 164.37 209.57 Z M 165.00 210.28 L 165.63 211.03 C 166.26 211.77 167.36 211.86 168.09 211.23 C 168.83 210.61 168.92 209.51 168.29 208.77 L 167.66 208.03 C 167.03 207.29 165.93 207.20 165.20 207.83 C 164.46 208.45 164.37 209.55 165.00 210.28 Z M 165.62 211.00 L 166.25 211.78 C 166.86 212.52 167.95 212.63 168.70 212.02 C 169.44 211.41 169.55 210.32 168.94 209.57 L 168.31 208.80 C 167.70 208.06 166.60 207.95 165.86 208.56 C 165.12 209.16 165.01 210.26 165.62 211.00 Z M 166.22 211.73 L 166.85 212.55 C 167.44 213.30 168.53 213.44 169.28 212.86 C 170.04 212.27 170.18 211.18 169.59 210.43 L 168.97 209.61 C 168.38 208.86 167.29 208.72 166.53 209.30 C 165.78 209.89 165.64 210.98 166.22 211.73 Z M 166.82 212.49 L 167.44 213.36 C 167.99 214.13 169.07 214.31 169.85 213.75 C 170.62 213.20 170.80 212.12 170.24 211.34 L 169.63 210.48 C 169.07 209.70 167.99 209.53 167.22 210.08 C 166.44 210.64 166.26 211.72 166.82 212.49 Z M 167.40 213.30 L 167.95 214.13 C 168.47 214.92 169.54 215.14 170.33 214.62 C 171.13 214.09 171.35 213.03 170.83 212.23 L 170.28 211.40 C 169.76 210.61 168.69 210.39 167.89 210.91 C 167.10 211.43 166.88 212.50 167.40 213.30 Z M 167.92 214.07 L 168.40 214.86 C 168.89 215.67 169.95 215.93 170.76 215.44 C 171.57 214.94 171.83 213.89 171.34 213.08 L 170.85 212.29 C 170.36 211.48 169.30 211.22 168.49 211.71 C 167.68 212.21 167.43 213.26 167.92 214.07 Z M 168.38 214.82 L 168.85 215.65 C 169.32 216.47 170.37 216.75 171.19 216.28 C 172.01 215.81 172.30 214.77 171.83 213.95 L 171.36 213.12 C 170.89 212.30 169.84 212.01 169.02 212.48 C 168.20 212.95 167.91 214.00 168.38 214.82 Z M 168.84 215.61 L 169.30 216.47 C 169.75 217.30 170.79 217.61 171.62 217.16 C 172.45 216.71 172.76 215.67 172.31 214.84 L 171.84 213.98 C 171.39 213.15 170.36 212.84 169.53 213.29 C 168.70 213.74 168.39 214.78 168.84 215.61 Z M 169.29 216.44 L 169.75 217.33 C 170.18 218.16 171.21 218.49 172.05 218.06 C 172.89 217.63 173.21 216.60 172.78 215.76 L 172.32 214.87 C 171.89 214.03 170.86 213.71 170.02 214.14 C 169.19 214.57 168.86 215.60 169.29 216.44 Z M 169.74 217.30 L 170.20 218.21 C 170.61 219.05 171.64 219.40 172.48 218.98 C 173.32 218.56 173.66 217.54 173.24 216.69 L 172.79 215.78 C 172.37 214.94 171.35 214.60 170.51 215.02 C 169.66 215.44 169.32 216.46 169.74 217.30 Z M 170.19 218.19 L 170.64 219.12 C 171.05 219.97 172.06 220.32 172.91 219.91 C 173.75 219.50 174.11 218.49 173.70 217.64 L 173.25 216.71 C 172.84 215.87 171.82 215.52 170.98 215.92 C 170.13 216.33 169.78 217.35 170.19 218.19 Z M 170.64 219.11 L 171.08 220.05 C 171.48 220.90 172.49 221.26 173.34 220.86 C 174.19 220.46 174.55 219.45 174.15 218.60 L 173.70 217.66 C 173.30 216.81 172.29 216.45 171.44 216.85 C 170.60 217.25 170.24 218.26 170.64 219.11 Z M 171.08 220.04 L 171.53 220.99 C 171.92 221.84 172.93 222.20 173.78 221.81 C 174.62 221.41 174.99 220.41 174.59 219.56 L 174.15 218.61 C 173.75 217.76 172.75 217.40 171.90 217.79 C 171.05 218.19 170.69 219.20 171.08 220.04 Z M 171.53 220.99 L 171.94 221.88 C 172.33 222.72 173.34 223.09 174.18 222.70 C 175.03 222.30 175.39 221.30 175.00 220.46 L 174.59 219.57 C 174.20 218.72 173.20 218.36 172.35 218.75 C 171.50 219.14 171.14 220.14 171.53 220.99 Z"
      fill="black"
      fill-rule="nonzero" /></svg>