<svg xmlns="http://www.w3.org/2000/svg" width="300" height="300" viewBox="0 0 300 300">
<path d="M 169.38 78.72 L 168.54 79.03 C 167.69 79.34 167.24 80.29 167.56 81.15 C 167.87 82.00 168.82 82.45 169.67 82.13 L 170.51 81.83 C 171.37 81.52 171.81 80.57 171.50 79.71 C 171.19 78.85 170.24 78.41 169.38 78.72 Z M 168.50 79.00 L 167.65 79.33 C 166.78 79.66 166.35 80.65 166.69 81.52 C 167.02 82.39 168.01 82.83 168.88 82.49 L 169.72 82.16 C 170.60 81.82 171.03 80.84 170.69 79.97 C 170.35 79.09 169.37 78.66 168.50 79.00 Z M 167.57 79.31 L 166.72 79.68 C 165.84 80.06 165.44 81.09 165.82 81.97 C 166.20 82.85 167.22 83.25 168.11 82.87 L 168.96 82.50 C 169.84 82.12 170.24 81.10 169.86 80.21 C 169.48 79.33 168.46 78.93 167.57 79.31 Z M 166.61 79.69 L 165.74 80.12 C 164.86 80.56 164.51 81.63 164.95 82.51 C 165.39 83.39 166.46 83.75 167.34 83.31 L 168.21 82.87 C 169.09 82.43 169.45 81.36 169.01 80.48 C 168.56 79.60 167.49 79.24 166.61 79.69 Z M 165.62 80.14 L 164.72 80.67 C 163.85 81.18 163.56 82.30 164.07 83.16 C 164.58 84.03 165.70 84.32 166.57 83.81 L 167.46 83.29 C 168.33 82.78 168.62 81.66 168.11 80.79 C 167.60 79.92 166.49 79.63 165.62 80.14 Z M 164.59 80.70 L 163.66 81.34 C 162.81 81.92 162.59 83.09 163.18 83.94 C 163.76 84.78 164.92 85.00 165.77 84.42 L 166.70 83.78 C 167.55 83.20 167.77 82.03 167.18 81.18 C 166.60 80.33 165.44 80.12 164.59 80.70 Z M 163.54 81.39 L 162.68 82.07 C 161.86 82.72 161.72 83.91 162.37 84.74 C 163.02 85.56 164.22 85.70 165.04 85.05 L 165.90 84.37 C 166.72 83.72 166.86 82.52 166.21 81.70 C 165.55 80.88 164.36 80.74 163.54 81.39 Z M 162.59 82.12 L 161.88 82.75 C 161.08 83.45 161.01 84.66 161.71 85.45 C 162.40 86.25 163.61 86.32 164.41 85.63 L 165.12 84.99 C 165.92 84.30 165.99 83.09 165.30 82.29 C 164.60 81.50 163.39 81.42 162.59 82.12 Z M 161.83 82.80 L 161.10 83.49 C 160.33 84.21 160.30 85.42 161.02 86.19 C 161.75 86.96 162.96 86.99 163.73 86.27 L 164.46 85.58 C 165.22 84.85 165.26 83.64 164.53 82.87 C 163.81 82.11 162.59 82.07 161.83 82.80 Z M 161.06 83.52 L 160.33 84.26 C 159.58 85.00 159.58 86.22 160.33 86.96 C 161.08 87.71 162.29 87.71 163.04 86.96 L 163.77 86.23 C 164.52 85.48 164.51 84.27 163.77 83.52 C 163.02 82.78 161.81 82.78 161.06 83.52 Z M 160.30 84.29 L 159.57 85.05 C 158.85 85.81 158.87 87.02 159.64 87.75 C 160.40 88.48 161.62 88.45 162.35 87.69 L 163.07 86.93 C 163.80 86.16 163.77 84.95 163.01 84.22 C 162.24 83.49 161.03 83.52 160.30 84.29 Z M 159.55 85.07 L 158.84 85.85 C 158.12 86.62 158.18 87.84 158.95 88.55 C 159.73 89.27 160.94 89.22 161.66 88.44 L 162.37 87.66 C 163.08 86.88 163.03 85.67 162.26 84.96 C 161.48 84.24 160.27 84.29 159.55 85.07 Z M 158.82 85.87 L 158.13 86.64 C 157.43 87.43 157.50 88.64 158.29 89.34 C 159.07 90.05 160.28 89.98 160.99 89.19 L 161.68 88.42 C 162.38 87.63 162.31 86.42 161.52 85.71 C 160.73 85.01 159.52 85.08 158.82 85.87 Z M 158.11 86.66 L 157.45 87.42 C 156.76 88.22 156.84 89.43 157.64 90.12 C 158.44 90.81 159.65 90.73 160.34 89.93 L 161.00 89.17 C 161.70 88.37 161.61 87.16 160.82 86.47 C 160.02 85.78 158.81 85.86 158.11 86.66 Z M 157.44 87.43 L 156.82 88.16 C 156.13 88.97 156.23 90.18 157.03 90.86 C 157.84 91.55 159.04 91.45 159.73 90.65 L 160.35 89.92 C 161.04 89.11 160.95 87.90 160.14 87.22 C 159.34 86.53 158.13 86.63 157.44 87.43 Z M 156.81 88.17 L 156.15 88.95 C 155.47 89.76 155.58 90.97 156.39 91.65 C 157.20 92.33 158.40 92.23 159.08 91.42 L 159.74 90.64 C 160.42 89.83 160.32 88.62 159.51 87.94 C 158.70 87.26 157.49 87.36 156.81 88.17 Z M 156.15 88.97 L 155.38 89.89 C 154.70 90.71 154.81 91.91 155.63 92.59 C 156.44 93.26 157.65 93.15 158.32 92.34 L 159.09 91.41 C 159.76 90.59 159.65 89.39 158.84 88.71 C 158.03 88.04 156.82 88.15 156.15 88.97 Z M 155.37 89.91 L 154.69 90.74 C 154.02 91.56 154.14 92.76 154.96 93.43 C 155.78 94.10 156.98 93.97 157.65 93.16 L 158.33 92.32 C 159.00 91.50 158.87 90.30 158.06 89.63 C 157.24 88.97 156.04 89.09 155.37 89.91 Z M 154.68 90.76 L 154.07 91.52 C 153.41 92.34 153.54 93.54 154.36 94.20 C 155.18 94.86 156.38 94.73 157.04 93.91 L 157.65 93.14 C 158.31 92.32 158.18 91.12 157.36 90.46 C 156.54 89.80 155.34 89.93 154.68 90.76 Z M 154.06 91.53 L 153.50 92.24 C 152.85 93.07 152.98 94.26 153.81 94.92 C 154.63 95.57 155.83 95.43 156.48 94.61 L 157.05 93.90 C 157.70 93.07 157.56 91.87 156.74 91.22 C 155.91 90.57 154.72 90.71 154.06 91.53 Z M 153.50 92.25 L 152.96 92.93 C 152.31 93.76 152.46 94.95 153.28 95.60 C 154.11 96.25 155.30 96.10 155.95 95.28 L 156.49 94.60 C 157.13 93.77 156.99 92.58 156.17 91.93 C 155.34 91.28 154.14 91.42 153.50 92.25 Z M 152.96 92.93 L 152.42 93.62 C 151.78 94.45 151.92 95.64 152.75 96.29 C 153.57 96.93 154.77 96.79 155.41 95.96 L 155.95 95.28 C 156.60 94.45 156.45 93.26 155.63 92.61 C 154.80 91.96 153.61 92.11 152.96 92.93 Z M 152.43 93.62 L 151.83 94.38 C 151.18 95.21 151.32 96.40 152.15 97.04 C 152.97 97.69 154.16 97.55 154.81 96.72 L 155.41 95.96 C 156.06 95.14 155.91 93.95 155.09 93.30 C 154.27 92.65 153.07 92.80 152.43 93.62 Z M 151.83 94.38 L 151.22 95.15 C 150.58 95.98 150.72 97.17 151.54 97.81 C 152.36 98.46 153.55 98.32 154.20 97.50 L 154.81 96.73 C 155.45 95.90 155.31 94.71 154.49 94.07 C 153.67 93.42 152.48 93.56 151.83 94.38 Z M 151.23 95.15 L 150.61 95.94 C 149.96 96.75 150.10 97.94 150.92 98.59 C 151.74 99.24 152.93 99.10 153.57 98.28 L 154.19 97.50 C 154.84 96.68 154.70 95.49 153.88 94.84 C 153.06 94.20 151.88 94.33 151.23 95.15 Z M 150.61 95.93 L 149.98 96.73 C 149.33 97.55 149.47 98.73 150.29 99.38 C 151.10 100.03 152.29 99.89 152.94 99.08 L 153.57 98.28 C 154.22 97.47 154.08 96.28 153.27 95.63 C 152.45 94.98 151.26 95.12 150.61 95.93 Z M 149.99 96.73 L 149.34 97.54 C 148.69 98.35 148.83 99.54 149.64 100.18 C 150.45 100.83 151.64 100.70 152.29 99.89 L 152.93 99.08 C 153.58 98.26 153.45 97.08 152.64 96.43 C 151.82 95.78 150.64 95.91 149.99 96.73 Z M 149.35 97.53 L 148.74 98.29 C 148.09 99.10 148.22 100.29 149.03 100.94 C 149.85 101.59 151.03 101.46 151.68 100.64 L 152.29 99.89 C 152.94 99.08 152.80 97.89 151.99 97.24 C 151.18 96.59 150.00 96.72 149.35 97.53 Z M 148.75 98.29 L 148.14 99.04 C 147.49 99.85 147.62 101.04 148.43 101.69 C 149.24 102.34 150.42 102.21 151.07 101.40 L 151.68 100.64 C 152.33 99.84 152.20 98.65 151.39 98.00 C 150.58 97.35 149.40 97.48 148.75 98.29 Z M 148.14 99.04 L 147.53 99.81 C 146.88 100.62 147.00 101.80 147.81 102.45 C 148.62 103.10 149.80 102.97 150.45 102.17 L 151.07 101.40 C 151.72 100.59 151.59 99.41 150.78 98.76 C 149.97 98.11 148.79 98.24 148.14 99.04 Z M 147.53 99.81 L 146.90 100.60 C 146.25 101.40 146.38 102.58 147.18 103.23 C 147.99 103.88 149.17 103.75 149.82 102.95 L 150.45 102.16 C 151.10 101.36 150.97 100.18 150.16 99.53 C 149.36 98.88 148.18 99.01 147.53 99.81 Z M 146.90 100.60 L 146.26 101.40 C 145.61 102.20 145.74 103.38 146.54 104.03 C 147.35 104.68 148.53 104.55 149.17 103.74 L 149.82 102.94 C 150.46 102.14 150.33 100.96 149.53 100.31 C 148.72 99.67 147.55 99.79 146.90 100.60 Z M 146.26 101.40 L 145.60 102.22 C 144.96 103.02 145.09 104.20 145.89 104.85 C 146.70 105.49 147.87 105.36 148.52 104.56 L 149.17 103.74 C 149.82 102.93 149.69 101.76 148.88 101.11 C 148.08 100.47 146.90 100.60 146.26 101.40 Z M 145.60 102.22 L 144.99 102.99 C 144.35 103.79 144.48 104.97 145.28 105.61 C 146.09 106.25 147.26 106.12 147.91 105.32 L 148.52 104.55 C 149.16 103.75 149.03 102.57 148.22 101.93 C 147.42 101.29 146.25 101.42 145.60 102.22 Z M 144.99 102.99 L 144.39 103.75 C 143.74 104.56 143.88 105.73 144.68 106.37 C 145.48 107.01 146.65 106.88 147.30 106.08 L 147.90 105.31 C 148.55 104.51 148.41 103.34 147.61 102.70 C 146.81 102.06 145.64 102.19 144.99 102.99 Z M 144.39 103.75 L 143.77 104.53 C 143.13 105.33 143.26 106.50 144.06 107.14 C 144.86 107.78 146.03 107.65 146.67 106.85 L 147.29 106.07 C 147.93 105.27 147.80 104.10 147.00 103.46 C 146.20 102.82 145.03 102.95 144.39 103.75 Z M 143.78 104.52 L 143.15 105.31 C 142.51 106.10 142.63 107.27 143.43 107.91 C 144.23 108.55 145.40 108.43 146.04 107.63 L 146.67 106.85 C 147.31 106.05 147.18 104.88 146.38 104.24 C 145.59 103.60 144.42 103.73 143.78 104.52 Z M 143.16 105.30 L 142.52 106.09 C 141.87 106.89 142.00 108.05 142.79 108.69 C 143.58 109.34 144.75 109.22 145.39 108.42 L 146.03 107.63 C 146.67 106.84 146.55 105.67 145.76 105.03 C 144.96 104.39 143.80 104.51 143.16 105.30 Z M 142.53 106.09 L 141.88 106.88 C 141.23 107.67 141.35 108.83 142.14 109.48 C 142.93 110.12 144.09 110.01 144.74 109.22 L 145.38 108.43 C 146.03 107.64 145.91 106.47 145.12 105.83 C 144.34 105.18 143.17 105.30 142.53 106.09 Z M 141.89 106.87 L 141.23 107.66 C 140.59 108.44 140.69 109.60 141.48 110.25 C 142.26 110.90 143.42 110.80 144.07 110.01 L 144.73 109.22 C 145.37 108.44 145.27 107.28 144.48 106.63 C 143.70 105.98 142.54 106.09 141.89 106.87 Z M 141.25 107.65 L 140.61 108.40 C 139.96 109.18 140.06 110.34 140.84 111.00 C 141.61 111.65 142.77 111.55 143.43 110.77 L 144.06 110.02 C 144.71 109.24 144.61 108.08 143.84 107.43 C 143.06 106.77 141.90 106.87 141.25 107.65 Z M 140.62 108.40 L 139.98 109.15 C 139.33 109.92 139.42 111.08 140.19 111.74 C 140.96 112.39 142.12 112.30 142.77 111.53 L 143.42 110.78 C 144.07 110.01 143.98 108.85 143.21 108.19 C 142.44 107.53 141.28 107.63 140.62 108.40 Z M 139.99 109.14 L 139.34 109.90 C 138.68 110.66 138.77 111.82 139.53 112.48 C 140.30 113.14 141.45 113.06 142.11 112.29 L 142.76 111.54 C 143.42 110.77 143.34 109.62 142.58 108.96 C 141.81 108.29 140.66 108.38 139.99 109.14 Z M 139.35 109.89 L 138.69 110.64 C 138.03 111.40 138.11 112.55 138.86 113.22 C 139.62 113.88 140.78 113.81 141.44 113.05 L 142.10 112.30 C 142.77 111.54 142.69 110.38 141.93 109.72 C 141.17 109.05 140.02 109.13 139.35 109.89 Z M 138.71 110.64 L 138.04 111.39 C 137.37 112.14 137.44 113.29 138.19 113.96 C 138.94 114.63 140.09 114.56 140.76 113.81 L 141.43 113.06 C 142.10 112.30 142.03 111.15 141.28 110.48 C 140.53 109.82 139.37 109.88 138.71 110.64 Z M 138.05 111.38 L 137.37 112.13 C 136.70 112.88 136.76 114.03 137.51 114.70 C 138.25 115.37 139.40 115.31 140.07 114.57 L 140.75 113.81 C 141.42 113.07 141.36 111.92 140.62 111.25 C 139.87 110.58 138.72 110.64 138.05 111.38 Z M 137.38 112.13 L 136.70 112.88 C 136.02 113.62 136.08 114.76 136.82 115.44 C 137.56 116.11 138.70 116.06 139.38 115.32 L 140.06 114.57 C 140.74 113.83 140.68 112.69 139.94 112.01 C 139.20 111.34 138.06 111.39 137.38 112.13 Z M 136.71 112.87 L 136.05 113.59 C 135.37 114.32 135.42 115.47 136.15 116.15 C 136.88 116.82 138.03 116.78 138.71 116.04 L 139.37 115.33 C 140.05 114.59 140.00 113.45 139.27 112.77 C 138.53 112.09 137.39 112.14 136.71 112.87 Z M 136.06 113.59 L 135.39 114.30 C 134.71 115.03 134.75 116.17 135.48 116.85 C 136.21 117.53 137.35 117.49 138.03 116.77 L 138.70 116.05 C 139.38 115.32 139.34 114.18 138.61 113.50 C 137.88 112.82 136.74 112.86 136.06 113.59 Z M 135.40 114.30 L 134.72 115.02 C 134.04 115.75 134.07 116.88 134.80 117.56 C 135.52 118.25 136.66 118.21 137.34 117.49 L 138.02 116.77 C 138.70 116.04 138.66 114.91 137.94 114.22 C 137.22 113.54 136.08 113.58 135.40 114.30 Z M 134.73 115.02 L 134.04 115.74 C 133.36 116.46 133.39 117.60 134.11 118.28 C 134.83 118.96 135.96 118.93 136.65 118.21 L 137.33 117.49 C 138.01 116.77 137.98 115.63 137.26 114.95 C 136.54 114.27 135.41 114.30 134.73 115.02 Z M 134.05 115.74 L 133.35 116.47 C 132.67 117.19 132.70 118.32 133.41 119.00 C 134.13 119.68 135.26 119.66 135.94 118.94 L 136.64 118.21 C 137.32 117.50 137.29 116.37 136.58 115.68 C 135.86 115.00 134.73 115.03 134.05 115.74 Z M 133.36 116.47 L 132.66 117.21 C 131.98 117.92 132.00 119.05 132.71 119.73 C 133.42 120.41 134.55 120.39 135.24 119.68 L 135.94 118.94 C 136.62 118.23 136.59 117.10 135.88 116.42 C 135.17 115.74 134.04 115.76 133.36 116.47 Z M 132.66 117.21 L 131.95 117.95 C 131.27 118.66 131.29 119.79 132.00 120.47 C 132.71 121.15 133.84 121.12 134.52 120.41 L 135.23 119.67 C 135.91 118.96 135.89 117.84 135.18 117.16 C 134.47 116.48 133.34 116.50 132.66 117.21 Z M 131.96 117.95 L 131.25 118.69 C 130.57 119.39 130.60 120.52 131.30 121.20 C 132.01 121.87 133.13 121.85 133.81 121.14 L 134.52 120.41 C 135.19 119.70 135.17 118.58 134.46 117.90 C 133.76 117.22 132.63 117.25 131.96 117.95 Z M 131.26 118.69 L 130.55 119.42 C 129.87 120.12 129.90 121.24 130.60 121.92 C 131.30 122.60 132.42 122.58 133.10 121.87 L 133.81 121.14 C 134.48 120.44 134.46 119.32 133.76 118.64 C 133.05 117.96 131.93 117.98 131.26 118.69 Z M 130.56 119.42 L 129.85 120.15 C 129.17 120.85 129.19 121.97 129.89 122.65 C 130.59 123.32 131.71 123.31 132.39 122.61 L 133.09 121.87 C 133.77 121.17 133.75 120.06 133.05 119.38 C 132.35 118.70 131.24 118.72 130.56 119.42 Z M 129.86 120.15 L 129.15 120.88 C 128.47 121.57 128.49 122.69 129.18 123.37 C 129.88 124.04 130.99 124.03 131.67 123.33 L 132.38 122.61 C 133.06 121.91 133.04 120.80 132.35 120.12 C 131.65 119.44 130.54 119.46 129.86 120.15 Z M 129.16 120.88 L 128.45 121.59 C 127.77 122.28 127.78 123.39 128.47 124.07 C 129.16 124.75 130.27 124.75 130.95 124.06 L 131.66 123.34 C 132.34 122.65 132.33 121.54 131.64 120.86 C 130.95 120.18 129.84 120.19 129.16 120.88 Z M 128.47 121.59 L 127.76 122.29 C 127.08 122.98 127.08 124.08 127.76 124.77 C 128.45 125.45 129.56 125.45 130.24 124.76 L 130.94 124.06 C 131.62 123.38 131.62 122.27 130.94 121.59 C 130.25 120.91 129.15 120.91 128.47 121.59 Z M 127.78 122.29 L 127.08 122.97 C 126.39 123.65 126.39 124.75 127.06 125.44 C 127.74 126.12 128.84 126.13 129.53 125.46 L 130.22 124.77 C 130.91 124.09 130.92 122.99 130.24 122.31 C 129.57 121.62 128.46 121.61 127.78 122.29 Z M 127.10 122.96 L 126.40 123.64 C 125.70 124.31 125.69 125.41 126.35 126.10 C 127.02 126.79 128.12 126.81 128.81 126.14 L 129.51 125.46 C 130.20 124.80 130.22 123.70 129.55 123.01 C 128.89 122.32 127.79 122.30 127.10 122.96 Z M 126.42 123.63 L 125.64 124.36 C 124.94 125.01 124.91 126.11 125.57 126.81 C 126.22 127.50 127.32 127.54 128.01 126.88 L 128.79 126.15 C 129.49 125.50 129.52 124.40 128.86 123.70 C 128.21 123.01 127.11 122.97 126.42 123.63 Z M 125.66 124.35 L 124.90 125.04 C 124.20 125.69 124.15 126.78 124.79 127.48 C 125.44 128.18 126.53 128.23 127.23 127.59 L 127.99 126.89 C 128.70 126.25 128.74 125.16 128.10 124.45 C 127.46 123.75 126.37 123.70 125.66 124.35 Z M 124.92 125.03 L 124.17 125.70 C 123.46 126.34 123.40 127.42 124.03 128.13 C 124.66 128.84 125.75 128.90 126.46 128.27 L 127.21 127.60 C 127.92 126.97 127.98 125.88 127.35 125.17 C 126.72 124.46 125.63 124.40 124.92 125.03 Z M 124.19 125.69 L 123.45 126.34 C 122.73 126.96 122.66 128.04 123.28 128.76 C 123.90 129.47 124.98 129.55 125.70 128.93 L 126.44 128.28 C 127.15 127.66 127.23 126.58 126.61 125.86 C 125.99 125.15 124.90 125.07 124.19 125.69 Z M 123.47 126.33 L 122.73 126.96 C 122.01 127.57 121.92 128.65 122.53 129.37 C 123.14 130.08 124.22 130.17 124.94 129.56 L 125.68 128.93 C 126.40 128.32 126.48 127.25 125.87 126.53 C 125.26 125.81 124.18 125.72 123.47 126.33 Z M 122.75 126.95 L 122.01 127.57 C 121.29 128.17 121.19 129.24 121.79 129.96 C 122.39 130.68 123.47 130.78 124.19 130.18 L 124.92 129.57 C 125.64 128.97 125.74 127.89 125.14 127.17 C 124.54 126.45 123.47 126.35 122.75 126.95 Z M 122.03 127.56 L 121.26 128.19 C 120.54 128.78 120.43 129.85 121.02 130.57 C 121.61 131.30 122.68 131.40 123.40 130.81 L 124.17 130.18 C 124.90 129.59 125.00 128.52 124.41 127.80 C 123.82 127.08 122.75 126.97 122.03 127.56 Z M 121.27 128.19 L 120.48 128.83 C 119.75 129.41 119.64 130.47 120.22 131.20 C 120.80 131.92 121.86 132.04 122.59 131.46 L 123.39 130.81 C 124.11 130.23 124.23 129.17 123.65 128.44 C 123.06 127.72 122.00 127.60 121.27 128.19 Z M 120.49 128.82 L 119.70 129.45 C 118.97 130.03 118.85 131.09 119.42 131.81 C 120.00 132.54 121.05 132.66 121.78 132.09 L 122.58 131.46 C 123.30 130.88 123.43 129.83 122.85 129.10 C 122.27 128.37 121.22 128.25 120.49 128.82 Z M 119.71 129.45 L 118.92 130.07 C 118.19 130.64 118.06 131.69 118.63 132.42 C 119.20 133.15 120.25 133.28 120.98 132.71 L 121.77 132.09 C 122.50 131.52 122.63 130.47 122.06 129.74 C 121.49 129.01 120.44 128.88 119.71 129.45 Z M 118.93 130.07 L 118.15 130.67 C 117.42 131.24 117.29 132.28 117.85 133.01 C 118.41 133.74 119.46 133.87 120.19 133.31 L 120.97 132.71 C 121.70 132.14 121.83 131.10 121.27 130.37 C 120.70 129.64 119.66 129.51 118.93 130.07 Z M 118.16 130.68 L 117.38 131.27 C 116.66 131.83 116.52 132.87 117.08 133.60 C 117.63 134.32 118.68 134.46 119.40 133.90 L 120.18 133.31 C 120.90 132.75 121.04 131.71 120.48 130.98 C 119.93 130.26 118.88 130.12 118.16 130.68 Z M 117.39 131.27 L 116.63 131.85 C 115.90 132.40 115.76 133.44 116.32 134.17 C 116.87 134.89 117.91 135.03 118.63 134.48 L 119.39 133.90 C 120.12 133.35 120.26 132.31 119.71 131.58 C 119.15 130.86 118.12 130.72 117.39 131.27 Z M 116.64 131.85 L 115.89 132.42 C 115.16 132.97 115.02 134.00 115.56 134.73 C 116.11 135.45 117.15 135.60 117.87 135.05 L 118.62 134.48 C 119.35 133.93 119.49 132.90 118.95 132.17 C 118.40 131.45 117.36 131.30 116.64 131.85 Z M 115.90 132.42 L 115.14 132.99 C 114.41 133.53 114.26 134.55 114.80 135.28 C 115.34 136.01 116.37 136.16 117.09 135.62 L 117.86 135.05 C 118.58 134.51 118.74 133.48 118.19 132.76 C 117.65 132.03 116.63 131.88 115.90 132.42 Z M 115.15 132.98 L 114.37 133.55 C 113.64 134.08 113.47 135.11 114.01 135.84 C 114.54 136.57 115.56 136.73 116.29 136.20 L 117.08 135.63 C 117.81 135.09 117.97 134.07 117.44 133.34 C 116.91 132.61 115.88 132.45 115.15 132.98 Z M 114.39 133.55 L 113.56 134.13 C 112.83 134.65 112.65 135.67 113.17 136.40 C 113.69 137.13 114.71 137.31 115.44 136.79 L 116.27 136.20 C 117.00 135.69 117.18 134.67 116.66 133.93 C 116.14 133.20 115.12 133.03 114.39 133.55 Z M 113.58 134.12 L 112.71 134.72 C 111.97 135.23 111.78 136.24 112.29 136.98 C 112.79 137.72 113.80 137.91 114.54 137.40 L 115.42 136.80 C 116.16 136.29 116.35 135.28 115.84 134.54 C 115.33 133.80 114.32 133.61 113.58 134.12 Z M 112.73 134.72 L 111.85 135.30 C 111.11 135.79 110.90 136.80 111.40 137.54 C 111.89 138.28 112.90 138.49 113.64 137.99 L 114.52 137.41 C 115.26 136.91 115.46 135.91 114.97 135.17 C 114.48 134.42 113.47 134.22 112.73 134.72 Z M 111.87 135.29 L 111.06 135.82 C 110.31 136.30 110.10 137.30 110.58 138.05 C 111.06 138.79 112.06 139.01 112.81 138.52 L 113.62 138.00 C 114.37 137.52 114.58 136.52 114.10 135.77 C 113.62 135.02 112.62 134.81 111.87 135.29 Z M 111.07 135.81 L 110.23 136.35 C 109.48 136.82 109.25 137.82 109.73 138.57 C 110.21 139.32 111.20 139.54 111.95 139.06 L 112.79 138.53 C 113.54 138.05 113.77 137.06 113.29 136.31 C 112.82 135.56 111.82 135.34 111.07 135.81 Z M 110.24 136.34 L 109.37 136.88 C 108.62 137.35 108.39 138.34 108.86 139.09 C 109.33 139.85 110.32 140.08 111.07 139.61 L 111.94 139.07 C 112.69 138.60 112.92 137.61 112.45 136.86 C 111.98 136.11 110.99 135.88 110.24 136.34 Z M 109.38 136.88 L 108.50 137.42 C 107.75 137.88 107.52 138.87 107.98 139.62 C 108.44 140.37 109.43 140.61 110.18 140.15 L 111.06 139.61 C 111.81 139.15 112.05 138.16 111.58 137.41 C 111.12 136.66 110.14 136.42 109.38 136.88 Z M 108.51 137.42 L 107.64 137.95 C 106.88 138.41 106.64 139.39 107.10 140.14 C 107.56 140.90 108.54 141.14 109.29 140.68 L 110.17 140.15 C 110.92 139.69 111.16 138.71 110.71 137.96 C 110.25 137.20 109.27 136.96 108.51 137.42 Z M 107.65 137.95 L 106.78 138.47 C 106.03 138.92 105.78 139.90 106.23 140.65 C 106.68 141.41 107.66 141.65 108.42 141.20 L 109.28 140.68 C 110.04 140.23 110.28 139.25 109.83 138.50 C 109.38 137.74 108.40 137.50 107.65 137.95 Z M 106.79 138.47 L 105.95 138.97 C 105.19 139.42 104.94 140.39 105.39 141.14 C 105.84 141.90 106.81 142.15 107.57 141.70 L 108.41 141.20 C 109.16 140.75 109.41 139.78 108.96 139.03 C 108.52 138.27 107.54 138.02 106.79 138.47 Z M 105.96 138.97 L 105.02 139.52 C 104.27 139.96 104.02 140.93 104.46 141.68 C 104.90 142.44 105.87 142.69 106.63 142.25 L 107.56 141.70 C 108.31 141.26 108.57 140.29 108.12 139.53 C 107.68 138.78 106.71 138.52 105.96 138.97 Z M 105.03 139.52 L 104.11 140.05 C 103.36 140.49 103.10 141.46 103.54 142.21 C 103.98 142.97 104.94 143.22 105.70 142.78 L 106.62 142.25 C 107.37 141.81 107.63 140.84 107.19 140.09 C 106.75 139.33 105.78 139.08 105.03 139.52 Z M 104.12 140.05 L 103.24 140.56 C 102.48 140.99 102.22 141.96 102.66 142.71 C 103.09 143.46 104.06 143.72 104.81 143.29 L 105.69 142.78 C 106.45 142.35 106.70 141.38 106.27 140.63 C 105.84 139.88 104.87 139.62 104.12 140.05 Z M 103.24 140.56 L 102.40 141.04 C 101.64 141.47 101.38 142.44 101.81 143.19 C 102.24 143.94 103.20 144.20 103.96 143.77 L 104.81 143.29 C 105.56 142.86 105.82 141.90 105.39 141.14 C 104.96 140.39 104.00 140.13 103.24 140.56 Z M 102.40 141.04 L 101.58 141.51 C 100.82 141.94 100.56 142.90 100.99 143.65 C 101.41 144.41 102.37 144.67 103.13 144.24 L 103.95 143.77 C 104.70 143.34 104.97 142.39 104.54 141.63 C 104.11 140.88 103.15 140.62 102.40 141.04 Z M 101.58 141.52 L 100.77 141.98 C 100.01 142.40 99.75 143.36 100.18 144.11 C 100.60 144.86 101.56 145.13 102.31 144.70 L 103.12 144.24 C 103.87 143.81 104.14 142.86 103.71 142.11 C 103.29 141.36 102.33 141.09 101.58 141.52 Z M 100.77 141.98 L 100.38 142.20 C 99.63 142.62 99.37 143.57 99.79 144.32 C 100.22 145.08 101.17 145.34 101.92 144.92 L 102.31 144.70 C 103.06 144.27 103.32 143.32 102.90 142.57 C 102.47 141.82 101.52 141.55 100.77 141.98 Z"
      fill="black"
      fill-rule="nonzero" /><path d="M 184.41 110.51 L 183.90 111.33 C 183.43 112.12 183.68 113.13 184.46 113.61 C 185.24 114.08 186.26 113.83 186.73 113.05 L 187.23 112.22 C 187.71 111.44 187.46 110.42 186.68 109.95 C 185.90 109.48 184.88 109.73 184.41 110.51 Z M 183.90 111.33 L 183.39 112.16 C 182.92 112.94 183.17 113.96 183.95 114.44 C 184.74 114.92 185.76 114.67 186.24 113.88 L 186.74 113.06 C 187.22 112.27 186.97 111.25 186.18 110.77 C 185.40 110.29 184.37 110.54 183.90 111.33 Z M 183.39 112.15 L 182.88 112.98 C 182.40 113.77 182.65 114.80 183.43 115.28 C 184.22 115.76 185.25 115.51 185.73 114.72 L 186.24 113.89 C 186.72 113.10 186.48 112.07 185.69 111.59 C 184.90 111.11 183.87 111.36 183.39 112.15 Z M 182.87 112.97 L 182.36 113.81 C 181.87 114.60 182.12 115.64 182.91 116.12 C 183.70 116.61 184.74 116.36 185.22 115.57 L 185.74 114.73 C 186.23 113.94 185.98 112.91 185.19 112.42 C 184.40 111.93 183.36 112.18 182.87 112.97 Z M 182.35 113.80 L 181.83 114.64 C 181.34 115.43 181.58 116.48 182.37 116.97 C 183.17 117.46 184.21 117.22 184.70 116.43 L 185.23 115.58 C 185.72 114.79 185.48 113.74 184.68 113.25 C 183.89 112.76 182.85 113.00 182.35 113.80 Z M 181.83 114.63 L 181.29 115.48 C 180.79 116.27 181.03 117.32 181.82 117.83 C 182.62 118.33 183.67 118.09 184.17 117.29 L 184.71 116.44 C 185.21 115.64 184.97 114.59 184.17 114.09 C 183.38 113.59 182.33 113.83 181.83 114.63 Z M 181.29 115.46 L 180.74 116.32 C 180.23 117.12 180.46 118.18 181.26 118.69 C 182.06 119.20 183.12 118.96 183.63 118.17 L 184.18 117.30 C 184.68 116.51 184.45 115.45 183.65 114.94 C 182.85 114.43 181.80 114.66 181.29 115.46 Z M 180.74 116.31 L 180.17 117.18 C 179.65 117.98 179.88 119.05 180.68 119.56 C 181.48 120.08 182.55 119.85 183.06 119.05 L 183.63 118.18 C 184.15 117.38 183.92 116.32 183.12 115.80 C 182.32 115.28 181.25 115.51 180.74 116.31 Z M 180.17 117.16 L 179.60 118.03 C 179.07 118.83 179.29 119.91 180.09 120.43 C 180.89 120.96 181.97 120.74 182.49 119.94 L 183.07 119.07 C 183.59 118.27 183.37 117.20 182.57 116.67 C 181.77 116.14 180.70 116.36 180.17 117.16 Z M 179.60 118.02 L 179.05 118.83 C 178.52 119.63 178.73 120.71 179.53 121.25 C 180.33 121.78 181.41 121.57 181.95 120.77 L 182.49 119.96 C 183.03 119.16 182.81 118.07 182.01 117.54 C 181.22 117.00 180.13 117.22 179.60 118.02 Z M 179.05 118.82 L 178.49 119.64 C 177.95 120.44 178.16 121.53 178.96 122.07 C 179.76 122.62 180.85 122.41 181.39 121.61 L 181.95 120.79 C 182.49 119.98 182.29 118.90 181.49 118.35 C 180.69 117.81 179.60 118.02 179.05 118.82 Z M 178.49 119.62 L 177.92 120.45 C 177.37 121.25 177.57 122.35 178.37 122.90 C 179.17 123.45 180.27 123.25 180.82 122.45 L 181.39 121.62 C 181.94 120.82 181.74 119.73 180.94 119.17 C 180.14 118.62 179.04 118.82 178.49 119.62 Z M 177.92 120.43 L 177.34 121.26 C 176.78 122.06 176.97 123.17 177.78 123.73 C 178.58 124.29 179.68 124.09 180.24 123.29 L 180.82 122.46 C 181.38 121.66 181.19 120.56 180.39 120.00 C 179.58 119.44 178.48 119.63 177.92 120.43 Z M 177.34 121.25 L 176.75 122.08 C 176.18 122.88 176.37 123.99 177.17 124.56 C 177.98 125.13 179.09 124.94 179.65 124.14 L 180.24 123.31 C 180.81 122.51 180.62 121.40 179.82 120.83 C 179.02 120.26 177.91 120.45 177.34 121.25 Z M 176.75 122.06 L 176.16 122.88 C 175.58 123.68 175.76 124.80 176.57 125.38 C 177.37 125.96 178.49 125.78 179.06 124.97 L 179.66 124.15 C 180.23 123.35 180.05 122.23 179.25 121.65 C 178.45 121.08 177.33 121.26 176.75 122.06 Z M 176.16 122.87 L 175.56 123.68 C 174.98 124.48 175.15 125.61 175.96 126.20 C 176.76 126.78 177.88 126.61 178.47 125.80 L 179.06 124.99 C 179.65 124.19 179.47 123.06 178.67 122.48 C 177.87 121.89 176.75 122.07 176.16 122.87 Z M 175.56 123.67 L 174.97 124.47 C 174.37 125.27 174.54 126.40 175.34 127.00 C 176.15 127.59 177.28 127.43 177.87 126.62 L 178.47 125.82 C 179.06 125.02 178.89 123.89 178.09 123.29 C 177.29 122.70 176.16 122.87 175.56 123.67 Z M 174.97 124.45 L 174.37 125.24 C 173.77 126.05 173.93 127.19 174.73 127.79 C 175.53 128.39 176.67 128.23 177.28 127.43 L 177.87 126.64 C 178.47 125.84 178.31 124.70 177.51 124.10 C 176.71 123.49 175.57 123.65 174.97 124.45 Z M 174.38 125.23 L 173.80 125.99 C 173.19 126.79 173.34 127.93 174.14 128.54 C 174.94 129.15 176.08 129.00 176.70 128.20 L 177.27 127.45 C 177.89 126.64 177.73 125.50 176.93 124.89 C 176.13 124.28 174.99 124.43 174.38 125.23 Z M 173.80 125.97 L 173.24 126.70 C 172.62 127.49 172.77 128.64 173.56 129.26 C 174.36 129.88 175.51 129.74 176.13 128.94 L 176.69 128.21 C 177.31 127.42 177.17 126.27 176.37 125.65 C 175.57 125.03 174.42 125.17 173.80 125.97 Z M 173.25 126.68 L 172.68 127.40 C 172.05 128.19 172.19 129.35 172.98 129.97 C 173.78 130.60 174.93 130.47 175.55 129.67 L 176.12 128.95 C 176.75 128.16 176.61 127.01 175.82 126.38 C 175.03 125.75 173.87 125.89 173.25 126.68 Z M 172.69 127.39 L 172.11 128.11 C 171.48 128.90 171.60 130.05 172.39 130.69 C 173.18 131.32 174.34 131.19 174.97 130.40 L 175.55 129.68 C 176.18 128.89 176.06 127.74 175.27 127.10 C 174.48 126.47 173.32 126.60 172.69 127.39 Z M 172.12 128.09 L 171.52 128.82 C 170.88 129.61 171.00 130.76 171.79 131.40 C 172.58 132.05 173.73 131.93 174.37 131.14 L 174.97 130.42 C 175.61 129.63 175.49 128.47 174.70 127.83 C 173.92 127.19 172.76 127.31 172.12 128.09 Z M 171.53 128.81 L 170.92 129.55 C 170.27 130.33 170.38 131.49 171.16 132.14 C 171.95 132.79 173.11 132.68 173.76 131.89 L 174.37 131.15 C 175.02 130.37 174.91 129.21 174.12 128.56 C 173.34 127.91 172.18 128.02 171.53 128.81 Z M 170.92 129.54 L 170.29 130.30 C 169.63 131.08 169.74 132.24 170.52 132.89 C 171.30 133.55 172.46 133.45 173.11 132.67 L 173.75 131.90 C 174.41 131.12 174.30 129.96 173.52 129.31 C 172.74 128.65 171.58 128.75 170.92 129.54 Z M 170.29 130.29 L 169.62 131.08 C 168.96 131.85 169.06 133.02 169.84 133.68 C 170.61 134.34 171.78 134.24 172.44 133.46 L 173.11 132.68 C 173.77 131.90 173.67 130.73 172.89 130.07 C 172.12 129.41 170.95 129.51 170.29 130.29 Z M 169.63 131.07 L 168.92 131.89 C 168.26 132.67 168.35 133.83 169.12 134.50 C 169.90 135.16 171.07 135.07 171.73 134.30 L 172.44 133.47 C 173.10 132.70 173.01 131.53 172.23 130.86 C 171.46 130.20 170.29 130.29 169.63 131.07 Z M 168.92 131.88 L 168.18 132.75 C 167.51 133.52 167.59 134.69 168.37 135.36 C 169.14 136.03 170.31 135.95 170.98 135.17 L 171.73 134.31 C 172.40 133.53 172.31 132.36 171.54 131.69 C 170.76 131.02 169.59 131.11 168.92 131.88 Z M 168.18 132.74 L 167.45 133.58 C 166.77 134.36 166.86 135.53 167.63 136.20 C 168.40 136.87 169.57 136.79 170.25 136.02 L 170.98 135.18 C 171.65 134.40 171.57 133.23 170.80 132.56 C 170.02 131.89 168.85 131.97 168.18 132.74 Z M 167.45 133.58 L 166.80 134.31 C 166.13 135.09 166.21 136.26 166.98 136.93 C 167.75 137.61 168.93 137.53 169.60 136.76 L 170.25 136.02 C 170.92 135.25 170.84 134.08 170.07 133.40 C 169.30 132.73 168.12 132.80 167.45 133.58 Z M 166.81 134.31 L 166.14 135.07 C 165.46 135.84 165.54 137.02 166.31 137.69 C 167.08 138.37 168.26 138.29 168.94 137.52 L 169.60 136.76 C 170.28 135.99 170.20 134.81 169.43 134.14 C 168.66 133.46 167.48 133.54 166.81 134.31 Z M 166.14 135.07 L 165.46 135.84 C 164.78 136.62 164.85 137.79 165.63 138.47 C 166.40 139.15 167.57 139.07 168.25 138.30 L 168.94 137.52 C 169.61 136.75 169.54 135.58 168.77 134.90 C 167.99 134.22 166.82 134.30 166.14 135.07 Z M 165.46 135.84 L 164.76 136.63 C 164.08 137.40 164.16 138.58 164.93 139.26 C 165.70 139.94 166.88 139.86 167.56 139.09 L 168.25 138.30 C 168.93 137.53 168.86 136.36 168.09 135.68 C 167.31 135.00 166.14 135.07 165.46 135.84 Z M 164.76 136.63 L 164.06 137.43 C 163.38 138.20 163.45 139.37 164.22 140.06 C 165.00 140.74 166.17 140.66 166.85 139.89 L 167.56 139.10 C 168.24 138.32 168.16 137.15 167.39 136.47 C 166.62 135.79 165.44 135.86 164.76 136.63 Z M 164.06 137.42 L 163.36 138.22 C 162.67 138.99 162.75 140.17 163.52 140.85 C 164.29 141.53 165.47 141.46 166.15 140.69 L 166.85 139.89 C 167.54 139.12 167.46 137.94 166.69 137.26 C 165.92 136.58 164.74 136.65 164.06 137.42 Z M 163.36 138.22 L 162.66 139.01 C 161.97 139.78 162.05 140.96 162.82 141.64 C 163.59 142.33 164.77 142.25 165.45 141.48 L 166.15 140.69 C 166.83 139.92 166.76 138.74 165.99 138.06 C 165.22 137.37 164.04 137.45 163.36 138.22 Z M 162.66 139.01 L 161.97 139.79 C 161.28 140.56 161.36 141.74 162.13 142.42 C 162.90 143.11 164.08 143.03 164.76 142.26 L 165.45 141.48 C 166.14 140.71 166.06 139.53 165.29 138.85 C 164.52 138.16 163.34 138.24 162.66 139.01 Z M 161.97 139.79 L 161.29 140.55 C 160.61 141.32 160.68 142.50 161.45 143.19 C 162.23 143.87 163.41 143.80 164.09 143.02 L 164.76 142.26 C 165.45 141.49 165.38 140.31 164.60 139.63 C 163.83 138.94 162.65 139.01 161.97 139.79 Z M 161.29 140.55 L 160.64 141.29 C 159.96 142.06 160.03 143.24 160.80 143.93 C 161.57 144.61 162.76 144.54 163.44 143.76 L 164.09 143.02 C 164.78 142.25 164.70 141.07 163.93 140.39 C 163.16 139.70 161.98 139.78 161.29 140.55 Z M 160.64 141.29 L 160.01 142.00 C 159.33 142.77 159.40 143.95 160.17 144.64 C 160.95 145.32 162.13 145.25 162.81 144.47 L 163.44 143.76 C 164.12 142.99 164.05 141.81 163.28 141.12 C 162.50 140.44 161.32 140.51 160.64 141.29 Z M 160.01 142.00 L 159.41 142.67 C 158.73 143.45 158.81 144.63 159.58 145.31 C 160.36 146.00 161.54 145.92 162.22 145.15 L 162.82 144.47 C 163.50 143.70 163.43 142.51 162.65 141.83 C 161.87 141.15 160.69 141.22 160.01 142.00 Z M 159.41 142.67 L 158.78 143.39 C 158.10 144.17 158.17 145.35 158.95 146.03 C 159.73 146.72 160.91 146.64 161.59 145.86 L 162.22 145.15 C 162.91 144.37 162.83 143.19 162.05 142.50 C 161.28 141.82 160.09 141.90 159.41 142.67 Z M 158.78 143.39 L 157.88 144.42 C 157.20 145.20 157.28 146.38 158.06 147.06 C 158.83 147.74 160.02 147.67 160.70 146.89 L 161.60 145.86 C 162.28 145.08 162.20 143.90 161.42 143.22 C 160.64 142.54 159.46 142.62 158.78 143.39 Z M 157.87 144.43 L 157.09 145.33 C 156.41 146.11 156.50 147.29 157.28 147.97 C 158.06 148.65 159.24 148.56 159.92 147.78 L 160.70 146.88 C 161.38 146.10 161.30 144.92 160.52 144.24 C 159.74 143.56 158.55 143.65 157.87 144.43 Z M 157.09 145.33 L 156.40 146.13 C 155.73 146.91 155.81 148.09 156.60 148.77 C 157.38 149.44 158.56 149.36 159.24 148.57 L 159.92 147.78 C 160.60 147.00 160.51 145.81 159.73 145.14 C 158.95 144.46 157.76 144.55 157.09 145.33 Z M 156.40 146.13 L 155.79 146.84 C 155.12 147.63 155.21 148.81 155.99 149.48 C 156.78 150.16 157.96 150.06 158.63 149.28 L 159.24 148.57 C 159.91 147.78 159.82 146.60 159.04 145.93 C 158.25 145.26 157.07 145.35 156.40 146.13 Z M 155.78 146.85 L 155.23 147.50 C 154.56 148.28 154.66 149.46 155.45 150.13 C 156.24 150.80 157.42 150.71 158.09 149.92 L 158.64 149.27 C 159.31 148.49 159.21 147.30 158.42 146.64 C 157.64 145.97 156.45 146.06 155.78 146.85 Z M 155.23 147.50 L 154.72 148.10 C 154.05 148.89 154.15 150.07 154.94 150.74 C 155.73 151.41 156.91 151.31 157.58 150.52 L 158.09 149.92 C 158.76 149.13 158.66 147.95 157.87 147.28 C 157.08 146.61 155.90 146.71 155.23 147.50 Z M 154.72 148.11 L 154.23 148.69 C 153.56 149.48 153.66 150.66 154.46 151.32 C 155.25 151.99 156.43 151.89 157.09 151.10 L 157.58 150.52 C 158.25 149.73 158.15 148.55 157.36 147.88 C 156.57 147.21 155.39 147.32 154.72 148.11 Z M 154.23 148.69 L 153.61 149.43 C 152.94 150.22 153.04 151.40 153.83 152.06 C 154.62 152.73 155.80 152.63 156.47 151.84 L 157.09 151.10 C 157.76 150.31 157.66 149.13 156.87 148.46 C 156.08 147.80 154.90 147.90 154.23 148.69 Z M 153.61 149.43 L 152.97 150.19 C 152.30 150.98 152.40 152.16 153.19 152.82 C 153.98 153.49 155.16 153.39 155.83 152.60 L 156.47 151.84 C 157.13 151.05 157.03 149.87 156.24 149.20 C 155.45 148.54 154.27 148.64 153.61 149.43 Z M 152.97 150.19 L 152.33 150.95 C 151.66 151.74 151.76 152.92 152.55 153.58 C 153.34 154.25 154.52 154.15 155.19 153.36 L 155.83 152.60 C 156.49 151.81 156.39 150.63 155.60 149.96 C 154.81 149.30 153.63 149.40 152.97 150.19 Z M 152.33 150.95 L 151.68 151.71 C 151.02 152.50 151.12 153.68 151.91 154.35 C 152.69 155.01 153.87 154.91 154.54 154.12 L 155.19 153.36 C 155.85 152.57 155.75 151.39 154.96 150.72 C 154.17 150.06 152.99 150.16 152.33 150.95 Z M 151.68 151.71 L 151.03 152.48 C 150.37 153.27 150.47 154.45 151.25 155.12 C 152.04 155.78 153.22 155.68 153.89 154.89 L 154.54 154.12 C 155.20 153.34 155.10 152.16 154.32 151.49 C 153.53 150.83 152.35 150.92 151.68 151.71 Z M 151.03 152.48 L 150.39 153.25 C 149.72 154.04 149.82 155.21 150.61 155.88 C 151.39 156.55 152.57 156.45 153.24 155.66 L 153.89 154.89 C 154.55 154.11 154.45 152.93 153.67 152.26 C 152.88 151.60 151.70 151.70 151.03 152.48 Z M 150.39 153.25 L 149.75 154.00 C 149.08 154.79 149.18 155.97 149.97 156.63 C 150.75 157.30 151.93 157.20 152.60 156.42 L 153.24 155.66 C 153.90 154.88 153.81 153.70 153.02 153.03 C 152.23 152.36 151.05 152.46 150.39 153.25 Z M 149.75 154.00 L 149.10 154.76 C 148.44 155.55 148.53 156.73 149.32 157.39 C 150.11 158.06 151.28 157.96 151.95 157.18 L 152.60 156.42 C 153.26 155.63 153.17 154.45 152.38 153.79 C 151.59 153.12 150.42 153.22 149.75 154.00 Z M 149.11 154.76 L 148.46 155.53 C 147.79 156.31 147.89 157.49 148.67 158.16 C 149.46 158.82 150.63 158.73 151.30 157.94 L 151.95 157.18 C 152.62 156.39 152.52 155.22 151.73 154.55 C 150.95 153.88 149.77 153.98 149.11 154.76 Z M 148.46 155.53 L 147.81 156.29 C 147.14 157.08 147.24 158.25 148.02 158.92 C 148.81 159.59 149.98 159.49 150.65 158.71 L 151.30 157.94 C 151.97 157.16 151.87 155.98 151.09 155.31 C 150.30 154.65 149.12 154.74 148.46 155.53 Z M 147.81 156.29 L 147.15 157.06 C 146.49 157.85 146.58 159.02 147.37 159.69 C 148.15 160.36 149.33 160.26 149.99 159.48 L 150.65 158.71 C 151.31 157.92 151.22 156.75 150.43 156.08 C 149.65 155.41 148.47 155.51 147.81 156.29 Z M 147.16 157.06 L 146.52 157.81 C 145.85 158.60 145.95 159.77 146.73 160.44 C 147.51 161.10 148.69 161.01 149.36 160.23 L 149.99 159.48 C 150.66 158.69 150.56 157.52 149.78 156.85 C 149.00 156.18 147.82 156.28 147.16 157.06 Z M 146.52 157.81 L 145.89 158.55 C 145.22 159.33 145.31 160.51 146.10 161.18 C 146.88 161.84 148.05 161.75 148.72 160.97 L 149.35 160.23 C 150.02 159.45 149.93 158.27 149.14 157.60 C 148.36 156.94 147.19 157.03 146.52 157.81 Z M 145.90 158.55 L 145.25 159.29 C 144.58 160.07 144.67 161.24 145.45 161.91 C 146.23 162.58 147.40 162.50 148.07 161.72 L 148.71 160.97 C 149.38 160.19 149.30 159.02 148.52 158.35 C 147.74 157.68 146.57 157.77 145.90 158.55 Z M 145.26 159.28 L 144.61 160.03 C 143.93 160.81 144.01 161.98 144.79 162.65 C 145.56 163.33 146.74 163.25 147.41 162.48 L 148.06 161.73 C 148.74 160.95 148.66 159.78 147.89 159.10 C 147.11 158.43 145.94 158.51 145.26 159.28 Z M 144.62 160.02 L 143.95 160.78 C 143.27 161.54 143.34 162.72 144.10 163.40 C 144.87 164.08 146.04 164.01 146.72 163.25 L 147.40 162.49 C 148.08 161.72 148.01 160.55 147.24 159.87 C 146.48 159.18 145.30 159.25 144.62 160.02 Z M 143.96 160.76 L 143.27 161.53 C 142.58 162.29 142.63 163.46 143.39 164.15 C 144.15 164.84 145.32 164.79 146.01 164.03 L 146.71 163.26 C 147.40 162.50 147.34 161.33 146.59 160.64 C 145.83 159.95 144.65 160.00 143.96 160.76 Z M 143.28 161.51 L 142.60 162.24 C 141.90 162.99 141.95 164.17 142.70 164.86 C 143.44 165.56 144.62 165.52 145.32 164.77 L 146.00 164.04 C 146.69 163.29 146.65 162.12 145.90 161.42 C 145.15 160.72 143.98 160.76 143.28 161.51 Z M 142.62 162.23 L 141.94 162.94 C 141.23 163.68 141.26 164.86 142.00 165.56 C 142.74 166.27 143.91 166.24 144.62 165.50 L 145.30 164.79 C 146.01 164.05 145.98 162.87 145.24 162.17 C 144.50 161.46 143.33 161.49 142.62 162.23 Z M 141.95 162.93 L 141.25 163.65 C 140.54 164.38 140.56 165.55 141.29 166.26 C 142.02 166.98 143.19 166.96 143.91 166.23 L 144.61 165.51 C 145.32 164.78 145.30 163.61 144.57 162.89 C 143.84 162.18 142.67 162.20 141.95 162.93 Z M 141.27 163.64 L 140.56 164.35 C 139.84 165.08 139.84 166.25 140.57 166.97 C 141.29 167.69 142.46 167.68 143.18 166.96 L 143.89 166.24 C 144.61 165.52 144.61 164.34 143.88 163.62 C 143.16 162.91 141.99 162.91 141.27 163.64 Z M 140.57 164.34 L 139.85 165.05 C 139.12 165.77 139.12 166.94 139.84 167.67 C 140.56 168.39 141.73 168.40 142.45 167.68 L 143.17 166.97 C 143.90 166.25 143.90 165.08 143.18 164.35 C 142.46 163.63 141.29 163.62 140.57 164.34 Z M 139.86 165.05 L 139.14 165.75 C 138.41 166.46 138.39 167.63 139.10 168.36 C 139.82 169.09 140.99 169.11 141.72 168.39 L 142.44 167.69 C 143.17 166.98 143.18 165.81 142.47 165.08 C 141.76 164.35 140.59 164.33 139.86 165.05 Z M 139.15 165.74 L 138.43 166.44 C 137.69 167.14 137.67 168.31 138.37 169.04 C 139.08 169.78 140.24 169.80 140.98 169.10 L 141.70 168.40 C 142.44 167.70 142.46 166.53 141.76 165.80 C 141.05 165.06 139.89 165.04 139.15 165.74 Z M 138.44 166.43 L 137.70 167.12 C 136.96 167.82 136.93 168.99 137.63 169.73 C 138.32 170.47 139.49 170.50 140.23 169.80 L 140.97 169.11 C 141.71 168.41 141.74 167.24 141.04 166.50 C 140.34 165.76 139.18 165.73 138.44 166.43 Z M 137.71 167.11 L 136.98 167.80 C 136.23 168.49 136.19 169.65 136.88 170.40 C 137.57 171.14 138.73 171.19 139.48 170.50 L 140.22 169.81 C 140.96 169.12 141.01 167.96 140.31 167.21 C 139.62 166.47 138.46 166.42 137.71 167.11 Z M 136.99 167.79 L 136.26 168.46 C 135.50 169.14 135.45 170.30 136.13 171.05 C 136.81 171.80 137.97 171.86 138.73 171.18 L 139.46 170.51 C 140.22 169.82 140.27 168.66 139.59 167.91 C 138.91 167.16 137.75 167.10 136.99 167.79 Z M 136.27 168.44 L 135.53 169.10 C 134.77 169.77 134.70 170.93 135.38 171.69 C 136.05 172.45 137.21 172.52 137.97 171.85 L 138.71 171.19 C 139.47 170.52 139.54 169.36 138.86 168.60 C 138.19 167.84 137.03 167.77 136.27 168.44 Z M 135.55 169.09 L 134.80 169.74 C 134.03 170.40 133.95 171.56 134.61 172.32 C 135.27 173.09 136.43 173.17 137.20 172.51 L 137.95 171.86 C 138.71 171.20 138.80 170.04 138.13 169.28 C 137.47 168.51 136.32 168.43 135.55 169.09 Z M 134.82 169.72 L 134.06 170.37 C 133.28 171.02 133.18 172.17 133.83 172.94 C 134.48 173.72 135.64 173.82 136.41 173.17 L 137.18 172.52 C 137.95 171.87 138.05 170.72 137.40 169.95 C 136.75 169.17 135.59 169.07 134.82 169.72 Z M 134.08 170.35 L 133.32 170.97 C 132.54 171.61 132.42 172.76 133.06 173.54 C 133.70 174.33 134.85 174.44 135.63 173.80 L 136.39 173.18 C 137.17 172.54 137.29 171.39 136.65 170.61 C 136.01 169.83 134.86 169.71 134.08 170.35 Z M 133.34 170.96 L 132.57 171.57 C 131.78 172.20 131.65 173.35 132.28 174.13 C 132.91 174.92 134.06 175.05 134.85 174.42 L 135.61 173.81 C 136.40 173.19 136.53 172.04 135.90 171.25 C 135.27 170.46 134.13 170.33 133.34 170.96 Z M 132.59 171.56 L 131.81 172.17 C 131.02 172.79 130.87 173.93 131.49 174.73 C 132.11 175.52 133.26 175.66 134.05 175.04 L 134.83 174.43 C 135.62 173.82 135.77 172.67 135.15 171.88 C 134.53 171.08 133.38 170.94 132.59 171.56 Z M 131.82 172.16 L 131.03 172.77 C 130.23 173.38 130.08 174.52 130.69 175.32 C 131.30 176.12 132.45 176.27 133.24 175.66 L 134.04 175.05 C 134.83 174.44 134.99 173.30 134.37 172.50 C 133.76 171.70 132.62 171.55 131.82 172.16 Z M 131.04 172.76 L 130.24 173.37 C 129.44 173.97 129.28 175.11 129.88 175.91 C 130.49 176.72 131.63 176.87 132.43 176.27 L 133.23 175.66 C 134.03 175.06 134.19 173.92 133.59 173.12 C 132.98 172.32 131.84 172.16 131.04 172.76 Z M 130.25 173.37 L 129.43 173.98 C 128.63 174.58 128.46 175.71 129.06 176.51 C 129.66 177.32 130.80 177.48 131.60 176.88 L 132.42 176.27 C 133.22 175.67 133.39 174.54 132.79 173.73 C 132.19 172.93 131.05 172.77 130.25 173.37 Z M 129.44 173.97 L 128.61 174.58 C 127.81 175.18 127.64 176.32 128.24 177.12 C 128.83 177.92 129.97 178.09 130.77 177.50 L 131.60 176.88 C 132.40 176.29 132.57 175.15 131.97 174.35 C 131.38 173.55 130.24 173.38 129.44 173.97 Z M 128.62 174.58 L 127.84 175.16 C 127.03 175.76 126.86 176.89 127.45 177.69 C 128.05 178.50 129.18 178.67 129.98 178.07 L 130.77 177.50 C 131.57 176.90 131.74 175.77 131.15 174.97 C 130.56 174.16 129.42 173.99 128.62 174.58 Z M 127.84 175.16 L 127.05 175.75 C 126.24 176.34 126.07 177.47 126.66 178.27 C 127.25 179.07 128.38 179.25 129.19 178.66 L 129.98 178.07 C 130.78 177.48 130.96 176.35 130.37 175.55 C 129.77 174.75 128.64 174.57 127.84 175.16 Z M 127.05 175.75 L 126.25 176.33 C 125.45 176.92 125.27 178.05 125.86 178.85 C 126.45 179.65 127.58 179.83 128.38 179.24 L 129.18 178.66 C 129.99 178.07 130.16 176.94 129.57 176.14 C 128.99 175.33 127.86 175.16 127.05 175.75 Z M 126.26 176.33 L 125.45 176.92 C 124.64 177.50 124.47 178.63 125.05 179.43 C 125.63 180.24 126.76 180.41 127.56 179.83 L 128.37 179.24 C 129.18 178.66 129.36 177.53 128.77 176.73 C 128.19 175.92 127.06 175.75 126.26 176.33 Z M 125.46 176.92 L 124.64 177.51 C 123.83 178.09 123.65 179.21 124.23 180.01 C 124.81 180.82 125.93 181.00 126.74 180.42 L 127.56 179.83 C 128.36 179.25 128.54 178.13 127.96 177.32 C 127.38 176.52 126.26 176.34 125.46 176.92 Z M 124.64 177.50 L 123.82 178.09 C 123.01 178.67 122.82 179.79 123.40 180.60 C 123.98 181.40 125.10 181.59 125.90 181.02 L 126.73 180.42 C 127.54 179.85 127.72 178.73 127.15 177.92 C 126.57 177.11 125.45 176.93 124.64 177.50 Z M 123.83 178.09 L 122.99 178.68 C 122.18 179.26 121.99 180.37 122.56 181.18 C 123.13 181.99 124.25 182.18 125.06 181.61 L 125.89 181.02 C 126.70 180.45 126.89 179.33 126.32 178.52 C 125.75 177.71 124.63 177.52 123.83 178.09 Z M 123.00 178.68 L 122.19 179.25 C 121.38 179.82 121.18 180.93 121.75 181.74 C 122.31 182.55 123.43 182.75 124.24 182.18 L 125.05 181.61 C 125.86 181.05 126.05 179.93 125.49 179.12 C 124.92 178.31 123.81 178.12 123.00 178.68 Z M 122.20 179.25 L 121.38 179.81 C 120.57 180.37 120.37 181.49 120.93 182.30 C 121.49 183.11 122.60 183.31 123.41 182.75 L 124.23 182.18 C 125.04 181.62 125.24 180.51 124.68 179.70 C 124.12 178.89 123.01 178.69 122.20 179.25 Z M 121.39 179.81 L 120.57 180.37 C 119.75 180.93 119.55 182.04 120.10 182.85 C 120.66 183.66 121.77 183.87 122.58 183.31 L 123.40 182.75 C 124.21 182.19 124.42 181.09 123.87 180.27 C 123.31 179.46 122.20 179.25 121.39 179.81 Z M 120.58 180.37 L 119.75 180.93 C 118.93 181.48 118.72 182.58 119.27 183.40 C 119.82 184.21 120.92 184.43 121.74 183.88 L 122.57 183.32 C 123.38 182.77 123.60 181.66 123.05 180.85 C 122.50 180.03 121.39 179.82 120.58 180.37 Z M 119.76 180.92 L 118.92 181.48 C 118.11 182.02 117.88 183.13 118.43 183.94 C 118.97 184.76 120.07 184.98 120.89 184.44 L 121.72 183.88 C 122.54 183.34 122.76 182.24 122.22 181.42 C 121.68 180.60 120.58 180.38 119.76 180.92 Z M 118.94 181.48 L 118.09 182.03 C 117.28 182.56 117.05 183.66 117.58 184.48 C 118.12 185.30 119.22 185.53 120.03 184.99 L 120.88 184.44 C 121.69 183.91 121.92 182.81 121.39 181.99 C 120.85 181.17 119.76 180.94 118.94 181.48 Z M 118.11 182.02 L 117.26 182.57 C 116.44 183.09 116.20 184.19 116.73 185.01 C 117.26 185.83 118.35 186.07 119.17 185.54 L 120.02 185.00 C 120.84 184.47 121.08 183.38 120.55 182.55 C 120.02 181.73 118.93 181.49 118.11 182.02 Z M 117.28 182.56 L 116.43 183.09 C 115.61 183.61 115.36 184.70 115.88 185.53 C 116.40 186.35 117.49 186.60 118.32 186.08 L 119.16 185.55 C 119.98 185.03 120.23 183.94 119.71 183.11 C 119.19 182.29 118.10 182.04 117.28 182.56 Z M 116.45 183.09 L 115.61 183.61 C 114.78 184.12 114.52 185.21 115.04 186.04 C 115.55 186.86 116.64 187.12 117.46 186.60 L 118.30 186.08 C 119.13 185.57 119.39 184.48 118.87 183.66 C 118.36 182.83 117.27 182.57 116.45 183.09 Z M 115.62 183.61 L 114.77 184.13 C 113.94 184.63 113.68 185.72 114.19 186.54 C 114.70 187.37 115.78 187.63 116.61 187.12 L 117.45 186.61 C 118.28 186.10 118.54 185.02 118.03 184.19 C 117.53 183.36 116.44 183.10 115.62 183.61 Z M 114.78 184.13 L 113.93 184.64 C 113.10 185.15 112.84 186.23 113.34 187.05 C 113.84 187.88 114.92 188.14 115.75 187.64 L 116.60 187.12 C 117.43 186.62 117.69 185.54 117.19 184.71 C 116.68 183.89 115.60 183.62 114.78 184.13 Z M 113.93 184.65 L 113.08 185.16 C 112.25 185.67 111.99 186.74 112.49 187.57 C 112.99 188.40 114.07 188.66 114.90 188.16 L 115.75 187.64 C 116.57 187.14 116.84 186.06 116.33 185.23 C 115.83 184.41 114.76 184.14 113.93 184.65 Z M 113.08 185.17 L 112.22 185.69 C 111.40 186.19 111.14 187.27 111.64 188.09 C 112.14 188.92 113.22 189.18 114.04 188.67 L 114.90 188.15 C 115.72 187.65 115.98 186.57 115.48 185.75 C 114.97 184.93 113.90 184.67 113.08 185.17 Z M 112.22 185.70 L 111.36 186.23 C 110.54 186.73 110.28 187.81 110.78 188.63 C 111.29 189.45 112.36 189.70 113.18 189.20 L 114.04 188.67 C 114.86 188.16 115.12 187.09 114.61 186.27 C 114.11 185.45 113.04 185.19 112.22 185.70 Z M 111.35 186.24 L 110.48 186.78 C 109.67 187.28 109.42 188.36 109.93 189.17 C 110.44 189.99 111.51 190.24 112.32 189.73 L 113.19 189.19 C 114.00 188.68 114.25 187.61 113.74 186.79 C 113.24 185.98 112.16 185.73 111.35 186.24 Z M 110.48 186.79 L 109.61 187.33 C 108.80 187.85 108.56 188.92 109.07 189.73 C 109.58 190.54 110.66 190.78 111.47 190.27 L 112.33 189.72 C 113.14 189.21 113.38 188.13 112.87 187.32 C 112.36 186.51 111.29 186.27 110.48 186.79 Z M 109.60 187.34 L 108.74 187.90 C 107.93 188.41 107.70 189.48 108.21 190.29 C 108.73 191.09 109.80 191.33 110.61 190.81 L 111.47 190.26 C 112.28 189.74 112.51 188.67 111.99 187.87 C 111.48 187.06 110.41 186.83 109.60 187.34 Z M 108.73 187.90 L 107.87 188.46 C 107.07 188.98 106.84 190.05 107.36 190.85 C 107.88 191.65 108.95 191.88 109.75 191.36 L 110.61 190.80 C 111.41 190.29 111.64 189.22 111.12 188.42 C 110.60 187.62 109.54 187.39 108.73 187.90 Z M 107.87 188.47 L 107.02 189.02 C 106.22 189.54 106.00 190.61 106.52 191.40 C 107.03 192.20 108.10 192.43 108.90 191.91 L 109.75 191.36 C 110.55 190.84 110.77 189.77 110.26 188.97 C 109.74 188.17 108.67 187.95 107.87 188.47 Z M 107.02 189.02 L 106.18 189.57 C 105.39 190.09 105.16 191.15 105.68 191.95 C 106.20 192.75 107.26 192.97 108.06 192.45 L 108.90 191.91 C 109.69 191.39 109.92 190.32 109.40 189.53 C 108.88 188.73 107.82 188.51 107.02 189.02 Z M 106.19 189.57 L 105.36 190.11 C 104.57 190.62 104.35 191.69 104.86 192.48 C 105.38 193.28 106.44 193.50 107.23 192.98 L 108.06 192.45 C 108.85 191.93 109.08 190.87 108.56 190.08 C 108.04 189.28 106.98 189.06 106.19 189.57 Z M 105.37 190.11 L 104.57 190.63 C 103.78 191.14 103.55 192.20 104.06 192.99 C 104.58 193.79 105.64 194.01 106.43 193.50 L 107.23 192.98 C 108.02 192.47 108.25 191.41 107.74 190.62 C 107.22 189.82 106.16 189.60 105.37 190.11 Z M 104.58 190.63 L 103.77 191.15 C 102.97 191.66 102.74 192.71 103.25 193.51 C 103.76 194.30 104.81 194.53 105.61 194.02 L 106.42 193.50 C 107.21 192.99 107.45 191.94 106.94 191.14 C 106.43 190.35 105.37 190.12 104.58 190.63 Z M 103.78 191.15 L 102.96 191.66 C 102.16 192.16 101.93 193.22 102.43 194.01 C 102.93 194.81 103.98 195.04 104.78 194.54 L 105.60 194.02 C 106.39 193.52 106.63 192.47 106.13 191.67 C 105.62 190.88 104.57 190.64 103.78 191.15 Z M 102.97 191.66 L 102.16 192.16 C 101.36 192.66 101.12 193.71 101.62 194.50 C 102.11 195.30 103.16 195.54 103.96 195.05 L 104.77 194.54 C 105.56 194.05 105.81 193.00 105.31 192.20 C 104.81 191.41 103.77 191.16 102.97 191.66 Z M 102.17 192.16 L 101.36 192.66 C 100.56 193.15 100.31 194.19 100.80 194.99 C 101.29 195.79 102.33 196.04 103.13 195.55 L 103.94 195.05 C 104.74 194.56 104.99 193.52 104.50 192.72 C 104.01 191.92 102.97 191.67 102.17 192.16 Z M 101.37 192.66 L 100.53 193.17 C 99.73 193.65 99.47 194.69 99.95 195.49 C 100.44 196.28 101.47 196.54 102.27 196.06 L 103.11 195.55 C 103.91 195.07 104.17 194.03 103.69 193.23 C 103.21 192.44 102.17 192.18 101.37 192.66 Z M 100.54 193.16 L 99.66 193.69 C 98.86 194.16 98.60 195.19 99.08 195.99 C 99.55 196.79 100.59 197.06 101.38 196.58 L 102.26 196.06 C 103.06 195.59 103.33 194.55 102.85 193.75 C 102.37 192.95 101.34 192.69 100.54 193.16 Z M 99.67 193.68 L 98.74 194.23 C 97.94 194.70 97.68 195.73 98.15 196.53 C 98.61 197.33 99.64 197.60 100.44 197.13 L 101.37 196.58 C 102.17 196.11 102.44 195.08 101.97 194.28 C 101.50 193.48 100.48 193.21 99.67 193.68 Z M 98.75 194.23 L 97.89 194.73 C 97.09 195.19 96.82 196.22 97.28 197.02 C 97.75 197.82 98.77 198.09 99.57 197.63 L 100.44 197.13 C 101.24 196.66 101.51 195.64 101.04 194.84 C 100.58 194.04 99.55 193.76 98.75 194.23 Z M 97.90 194.73 L 97.06 195.21 C 96.26 195.67 95.99 196.69 96.45 197.50 C 96.91 198.30 97.93 198.57 98.73 198.11 L 99.57 197.63 C 100.37 197.17 100.64 196.15 100.18 195.34 C 99.72 194.54 98.70 194.27 97.90 194.73 Z M 97.07 195.21 L 96.20 195.71 C 95.40 196.17 95.13 197.19 95.59 197.99 C 96.05 198.79 97.07 199.06 97.87 198.60 L 98.73 198.11 C 99.53 197.65 99.81 196.63 99.35 195.83 C 98.89 195.03 97.87 194.75 97.07 195.21 Z M 96.21 195.71 L 95.32 196.22 C 94.52 196.67 94.25 197.69 94.70 198.49 C 95.16 199.29 96.18 199.57 96.98 199.11 L 97.86 198.60 C 98.66 198.14 98.94 197.13 98.48 196.33 C 98.02 195.53 97.01 195.25 96.21 195.71 Z M 95.32 196.22 L 94.43 196.73 C 93.63 197.19 93.36 198.20 93.81 199.00 C 94.27 199.80 95.28 200.07 96.08 199.62 L 96.98 199.11 C 97.77 198.65 98.05 197.63 97.59 196.84 C 97.14 196.04 96.12 195.76 95.32 196.22 Z M 94.43 196.73 L 93.53 197.25 C 92.74 197.70 92.46 198.72 92.92 199.51 C 93.37 200.31 94.39 200.58 95.18 200.13 L 96.08 199.61 C 96.88 199.16 97.15 198.14 96.69 197.35 C 96.24 196.55 95.22 196.28 94.43 196.73 Z M 93.53 197.25 L 92.64 197.76 C 91.85 198.22 91.58 199.23 92.03 200.03 C 92.49 200.82 93.50 201.09 94.29 200.64 L 95.18 200.13 C 95.98 199.67 96.25 198.66 95.79 197.86 C 95.34 197.07 94.33 196.80 93.53 197.25 Z M 92.64 197.77 L 91.77 198.27 C 90.98 198.73 90.71 199.74 91.17 200.53 C 91.62 201.32 92.63 201.59 93.42 201.13 L 94.30 200.63 C 95.09 200.17 95.36 199.16 94.90 198.37 C 94.44 197.58 93.43 197.31 92.64 197.77 Z M 91.77 198.28 L 90.92 198.77 C 90.14 199.23 89.87 200.24 90.33 201.02 C 90.79 201.81 91.80 202.08 92.58 201.62 L 93.43 201.13 C 94.21 200.67 94.48 199.66 94.02 198.87 C 93.57 198.09 92.56 197.82 91.77 198.28 Z M 90.92 198.78 L 89.95 199.35 C 89.16 199.81 88.90 200.82 89.36 201.60 C 89.82 202.38 90.83 202.65 91.61 202.19 L 92.59 201.61 C 93.37 201.15 93.63 200.14 93.17 199.36 C 92.71 198.58 91.70 198.32 90.92 198.78 Z M 89.94 199.36 L 89.01 199.92 C 88.23 200.38 87.98 201.39 88.44 202.16 C 88.90 202.94 89.91 203.19 90.69 202.73 L 91.62 202.17 C 92.40 201.71 92.65 200.71 92.19 199.93 C 91.72 199.15 90.72 198.90 89.94 199.36 Z M 89.00 199.93 L 88.11 200.47 C 87.34 200.93 87.10 201.94 87.57 202.71 C 88.03 203.48 89.04 203.72 89.81 203.26 L 90.69 202.72 C 91.46 202.25 91.71 201.25 91.24 200.48 C 90.77 199.71 89.77 199.46 89.00 199.93 Z M 88.11 200.48 L 87.26 201.00 C 86.50 201.47 86.26 202.47 86.74 203.24 C 87.21 204.00 88.21 204.24 88.97 203.76 L 89.82 203.24 C 90.58 202.77 90.82 201.77 90.34 201.01 C 89.87 200.24 88.87 200.01 88.11 200.48 Z M 87.25 201.01 L 86.45 201.52 C 85.69 202.00 85.47 203.00 85.94 203.76 C 86.42 204.51 87.42 204.74 88.18 204.26 L 88.98 203.75 C 89.74 203.27 89.96 202.27 89.49 201.52 C 89.01 200.76 88.01 200.54 87.25 201.01 Z M 86.43 201.54 L 85.66 202.04 C 84.91 202.53 84.70 203.53 85.19 204.27 C 85.67 205.02 86.67 205.23 87.42 204.75 L 88.19 204.24 C 88.94 203.76 89.15 202.76 88.66 202.01 C 88.18 201.27 87.18 201.06 86.43 201.54 Z M 85.65 202.06 L 84.90 202.56 C 84.16 203.05 83.97 204.05 84.46 204.78 C 84.95 205.52 85.95 205.72 86.69 205.23 L 87.43 204.73 C 88.17 204.24 88.37 203.24 87.87 202.50 C 87.38 201.77 86.39 201.57 85.65 202.06 Z M 84.89 202.58 L 84.05 203.15 C 83.32 203.65 83.14 204.65 83.64 205.38 C 84.14 206.10 85.14 206.29 85.87 205.79 L 86.70 205.21 C 87.43 204.71 87.61 203.71 87.11 202.98 C 86.61 202.26 85.61 202.07 84.89 202.58 Z M 84.03 203.17 L 83.20 203.76 C 82.48 204.27 82.32 205.27 82.83 205.98 C 83.34 206.70 84.33 206.87 85.05 206.36 L 85.88 205.77 C 86.60 205.26 86.77 204.26 86.26 203.55 C 85.75 202.83 84.75 202.66 84.03 203.17 Z M 83.19 203.78 L 82.38 204.37 C 81.67 204.89 81.52 205.88 82.03 206.59 C 82.55 207.30 83.54 207.45 84.25 206.93 L 85.06 206.34 C 85.77 205.83 85.93 204.83 85.41 204.12 C 84.89 203.41 83.90 203.26 83.19 203.78 Z M 82.37 204.38 L 81.58 204.97 C 80.88 205.49 80.73 206.49 81.25 207.19 C 81.77 207.89 82.77 208.03 83.47 207.51 L 84.26 206.92 C 84.96 206.40 85.11 205.41 84.59 204.71 C 84.06 204.00 83.07 203.86 82.37 204.38 Z M 81.57 204.98 L 80.79 205.57 C 80.09 206.10 79.96 207.09 80.48 207.78 C 81.01 208.48 82.00 208.62 82.69 208.09 L 83.47 207.50 C 84.17 206.98 84.31 205.99 83.78 205.29 C 83.26 204.60 82.27 204.46 81.57 204.98 Z M 80.79 205.58 L 80.01 206.17 C 79.32 206.70 79.19 207.69 79.71 208.38 C 80.24 209.07 81.22 209.20 81.92 208.68 L 82.69 208.09 C 83.38 207.56 83.52 206.57 82.99 205.88 C 82.47 205.19 81.48 205.06 80.79 205.58 Z M 80.01 206.18 L 79.92 206.25 C 79.23 206.77 79.09 207.76 79.62 208.45 C 80.14 209.14 81.13 209.27 81.82 208.75 L 81.91 208.67 C 82.60 208.15 82.74 207.16 82.21 206.47 C 81.69 205.78 80.70 205.65 80.01 206.18 Z"
      fill="black"
      fill-rule="nonzero" /><path d="M 147.40 161.43 L 147.89 162.20 C 148.39 162.96 149.41 163.18 150.17 162.68 C 150.94 162.19 151.15 161.16 150.66 160.40 L 150.16 159.63 C 149.66 158.87 148.64 158.65 147.88 159.15 C 147.12 159.65 146.90 160.67 147.40 161.43 Z M 147.85 162.19 L 148.33 162.97 C 148.83 163.76 149.87 164.00 150.66 163.51 C 151.45 163.01 151.69 161.97 151.19 161.18 L 150.70 160.40 C 150.21 159.61 149.17 159.37 148.38 159.87 C 147.59 160.36 147.35 161.40 147.85 162.19 Z M 148.27 162.95 L 148.74 163.76 C 149.22 164.58 150.28 164.86 151.10 164.38 C 151.93 163.90 152.21 162.84 151.73 162.02 L 151.25 161.21 C 150.78 160.39 149.72 160.11 148.90 160.59 C 148.07 161.07 147.79 162.12 148.27 162.95 Z M 148.67 163.70 L 149.12 164.56 C 149.57 165.42 150.63 165.76 151.49 165.31 C 152.36 164.86 152.69 163.79 152.24 162.93 L 151.80 162.07 C 151.35 161.21 150.28 160.88 149.42 161.33 C 148.56 161.78 148.22 162.84 148.67 163.70 Z M 149.04 164.48 L 149.45 165.39 C 149.85 166.30 150.92 166.70 151.83 166.30 C 152.73 165.89 153.14 164.82 152.73 163.92 L 152.32 163.00 C 151.92 162.10 150.85 161.69 149.94 162.10 C 149.04 162.51 148.63 163.57 149.04 164.48 Z M 149.36 165.29 L 149.73 166.28 C 150.08 167.23 151.14 167.71 152.09 167.36 C 153.05 167.01 153.53 165.95 153.18 165.00 L 152.81 164.01 C 152.46 163.06 151.40 162.58 150.45 162.93 C 149.50 163.28 149.01 164.34 149.36 165.29 Z M 149.65 166.16 L 149.96 167.23 C 150.25 168.23 151.29 168.80 152.29 168.51 C 153.29 168.22 153.86 167.18 153.57 166.19 L 153.26 165.11 C 152.97 164.12 151.92 163.55 150.93 163.84 C 149.93 164.13 149.36 165.17 149.65 166.16 Z M 149.90 167.11 L 150.13 168.15 C 150.35 169.18 151.37 169.83 152.40 169.60 C 153.42 169.38 154.08 168.37 153.85 167.34 L 153.63 166.30 C 153.40 165.28 152.39 164.62 151.36 164.85 C 150.33 165.07 149.68 166.09 149.90 167.11 Z M 150.10 168.05 L 150.25 169.00 C 150.42 170.05 151.41 170.76 152.45 170.59 C 153.50 170.42 154.21 169.44 154.04 168.39 L 153.88 167.44 C 153.71 166.39 152.73 165.68 151.68 165.85 C 150.64 166.02 149.93 167.00 150.10 168.05 Z M 150.24 168.93 L 150.36 169.93 C 150.49 170.98 151.45 171.73 152.50 171.60 C 153.55 171.47 154.30 170.52 154.17 169.46 L 154.05 168.46 C 153.92 167.41 152.97 166.66 151.91 166.79 C 150.86 166.92 150.11 167.88 150.24 168.93 Z M 150.35 169.87 L 150.45 170.90 C 150.54 171.95 151.47 172.73 152.53 172.64 C 153.59 172.54 154.37 171.61 154.27 170.55 L 154.18 169.52 C 154.08 168.47 153.15 167.69 152.09 167.78 C 151.04 167.88 150.26 168.81 150.35 169.87 Z M 150.44 170.85 L 150.51 171.89 C 150.58 172.95 151.49 173.76 152.55 173.69 C 153.61 173.62 154.41 172.71 154.35 171.65 L 154.28 170.60 C 154.21 169.54 153.29 168.74 152.24 168.81 C 151.18 168.87 150.37 169.79 150.44 170.85 Z M 150.50 171.85 L 150.55 172.90 C 150.60 173.97 151.50 174.79 152.56 174.74 C 153.62 174.70 154.44 173.80 154.40 172.73 L 154.35 171.68 C 154.30 170.62 153.40 169.80 152.34 169.85 C 151.28 169.89 150.46 170.79 150.50 171.85 Z M 150.55 172.87 L 150.58 173.91 C 150.61 174.98 151.49 175.81 152.56 175.78 C 153.62 175.75 154.46 174.87 154.43 173.80 L 154.40 172.76 C 154.37 171.70 153.48 170.86 152.42 170.89 C 151.35 170.92 150.52 171.81 150.55 172.87 Z M 150.57 173.89 L 150.59 174.90 C 150.61 175.97 151.48 176.82 152.55 176.80 C 153.61 176.78 154.46 175.91 154.45 174.84 L 154.43 173.83 C 154.41 172.76 153.54 171.91 152.47 171.93 C 151.41 171.95 150.56 172.82 150.57 173.89 Z M 150.59 174.89 L 150.59 175.86 C 150.60 176.93 151.47 177.79 152.54 177.78 C 153.60 177.77 154.46 176.90 154.46 175.84 L 154.45 174.86 C 154.44 173.79 153.57 172.94 152.50 172.94 C 151.44 172.95 150.58 173.82 150.59 174.89 Z M 150.59 175.85 L 150.59 176.78 C 150.60 177.85 151.46 178.71 152.53 178.71 C 153.60 178.71 154.46 177.84 154.46 176.78 L 154.46 175.85 C 154.46 174.78 153.59 173.92 152.52 173.92 C 151.45 173.92 150.59 174.79 150.59 175.85 Z M 150.59 176.78 L 150.59 177.93 C 150.59 179.00 151.46 179.86 152.53 179.86 C 153.59 179.86 154.46 179.00 154.46 177.93 L 154.46 176.78 C 154.46 175.71 153.59 174.85 152.53 174.85 C 151.46 174.85 150.59 175.71 150.59 176.78 Z M 150.59 177.93 L 150.59 179.09 C 150.59 180.16 151.46 181.03 152.53 181.03 C 153.59 181.03 154.46 180.16 154.46 179.09 L 154.46 177.93 C 154.46 176.86 153.59 175.99 152.53 175.99 C 151.46 175.99 150.59 176.86 150.59 177.93 Z M 150.59 179.09 L 150.59 180.14 C 150.59 181.21 151.46 182.08 152.53 182.08 C 153.59 182.08 154.46 181.21 154.46 180.14 L 154.46 179.09 C 154.46 178.02 153.59 177.16 152.53 177.16 C 151.46 177.16 150.59 178.02 150.59 179.09 Z M 150.59 180.14 L 150.59 181.10 C 150.59 182.17 151.46 183.04 152.53 183.04 C 153.59 183.04 154.46 182.17 154.46 181.10 L 154.46 180.14 C 154.46 179.07 153.59 178.21 152.53 178.21 C 151.46 178.21 150.59 179.07 150.59 180.14 Z M 150.59 181.10 L 150.59 182.00 C 150.59 183.07 151.46 183.93 152.53 183.93 C 153.59 183.93 154.46 183.07 154.46 182.00 L 154.46 181.10 C 154.46 180.03 153.59 179.17 152.53 179.17 C 151.46 179.17 150.59 180.03 150.59 181.10 Z M 150.59 182.00 L 150.59 182.86 C 150.59 183.93 151.46 184.79 152.53 184.79 C 153.59 184.79 154.46 183.93 154.46 182.86 L 154.46 182.00 C 154.46 180.93 153.59 180.06 152.53 180.06 C 151.46 180.06 150.59 180.93 150.59 182.00 Z M 150.59 182.86 L 150.59 183.73 C 150.59 184.80 151.46 185.67 152.53 185.67 C 153.59 185.67 154.46 184.80 154.46 183.73 L 154.46 182.86 C 154.46 181.79 153.59 180.93 152.53 180.93 C 151.46 180.93 150.59 181.79 150.59 182.86 Z M 150.59 183.73 L 150.59 184.68 C 150.59 185.75 151.46 186.62 152.53 186.62 C 153.59 186.62 154.46 185.75 154.46 184.68 L 154.46 183.73 C 154.46 182.66 153.59 181.80 152.53 181.80 C 151.46 181.80 150.59 182.66 150.59 183.73 Z M 150.59 184.68 L 150.59 185.65 C 150.59 186.72 151.46 187.59 152.53 187.59 C 153.59 187.59 154.46 186.72 154.46 185.65 L 154.46 184.68 C 154.46 183.62 153.59 182.75 152.53 182.75 C 151.46 182.75 150.59 183.62 150.59 184.68 Z M 150.59 185.65 L 150.59 186.64 C 150.59 187.71 151.46 188.58 152.53 188.58 C 153.59 188.58 154.46 187.71 154.46 186.64 L 154.46 185.65 C 154.46 184.59 153.59 183.72 152.53 183.72 C 151.46 183.72 150.59 184.59 150.59 185.65 Z M 150.59 186.64 L 150.59 187.66 C 150.59 188.73 151.46 189.59 152.53 189.59 C 153.59 189.59 154.46 188.73 154.46 187.66 L 154.46 186.64 C 154.46 185.58 153.59 184.71 152.53 184.71 C 151.46 184.71 150.59 185.58 150.59 186.64 Z M 150.59 187.66 L 150.59 188.70 C 150.59 189.77 151.46 190.63 152.53 190.63 C 153.59 190.63 154.46 189.77 154.46 188.70 L 154.46 187.66 C 154.46 186.59 153.59 185.72 152.53 185.72 C 151.46 185.72 150.59 186.59 150.59 187.66 Z M 150.59 188.70 L 150.59 189.73 C 150.59 190.80 151.46 191.66 152.53 191.66 C 153.59 191.66 154.46 190.80 154.46 189.73 L 154.46 188.70 C 154.46 187.63 153.59 186.77 152.53 186.77 C 151.46 186.77 150.59 187.63 150.59 188.70 Z M 150.59 189.73 L 150.59 190.70 C 150.59 191.77 151.46 192.64 152.53 192.64 C 153.59 192.64 154.46 191.77 154.46 190.70 L 154.46 189.73 C 154.46 188.66 153.60 187.79 152.53 187.79 C 151.46 187.79 150.59 188.66 150.59 189.73 Z M 150.59 190.70 L 150.59 191.69 C 150.59 192.76 151.45 193.63 152.52 193.63 C 153.59 193.63 154.46 192.77 154.46 191.70 L 154.46 190.71 C 154.46 189.64 153.60 188.77 152.53 188.77 C 151.46 188.77 150.59 189.63 150.59 190.70 Z M 150.59 191.69 L 150.59 192.69 C 150.58 193.76 151.45 194.63 152.52 194.64 C 153.58 194.64 154.45 193.78 154.46 192.71 L 154.46 191.70 C 154.46 190.63 153.60 189.76 152.53 189.76 C 151.46 189.76 150.59 190.62 150.59 191.69 Z M 150.59 192.69 L 150.58 193.70 C 150.58 194.77 151.44 195.64 152.50 195.65 C 153.57 195.65 154.44 194.79 154.45 193.73 L 154.45 192.71 C 154.46 191.64 153.60 190.77 152.53 190.77 C 151.46 190.76 150.59 191.62 150.59 192.69 Z M 150.58 193.70 L 150.57 194.71 C 150.56 195.78 151.42 196.65 152.49 196.66 C 153.56 196.67 154.43 195.81 154.44 194.75 L 154.45 193.73 C 154.46 192.66 153.60 191.79 152.53 191.78 C 151.47 191.77 150.59 192.63 150.58 193.70 Z M 150.57 194.70 L 150.56 195.71 C 150.55 196.78 151.40 197.66 152.47 197.67 C 153.54 197.69 154.41 196.83 154.43 195.77 L 154.44 194.75 C 154.45 193.69 153.60 192.81 152.53 192.80 C 151.46 192.78 150.59 193.64 150.57 194.70 Z M 150.56 195.71 L 150.54 196.72 C 150.52 197.79 151.37 198.67 152.44 198.69 C 153.51 198.71 154.39 197.86 154.41 196.79 L 154.43 195.78 C 154.45 194.71 153.60 193.83 152.53 193.81 C 151.46 193.79 150.58 194.64 150.56 195.71 Z M 150.54 196.71 L 150.52 197.72 C 150.49 198.79 151.34 199.67 152.41 199.70 C 153.47 199.72 154.36 198.88 154.38 197.81 L 154.41 196.80 C 154.43 195.73 153.59 194.85 152.52 194.82 C 151.45 194.80 150.57 195.64 150.54 196.71 Z M 150.52 197.71 L 150.49 198.71 C 150.46 199.78 151.30 200.67 152.37 200.70 C 153.43 200.73 154.32 199.89 154.35 198.82 L 154.38 197.82 C 154.41 196.75 153.57 195.86 152.51 195.83 C 151.44 195.80 150.55 196.64 150.52 197.71 Z M 150.49 198.70 L 150.46 199.70 C 150.42 200.76 151.25 201.66 152.32 201.70 C 153.39 201.73 154.28 200.90 154.32 199.83 L 154.35 198.83 C 154.39 197.77 153.55 196.87 152.49 196.84 C 151.42 196.80 150.53 197.63 150.49 198.70 Z M 150.46 199.69 L 150.42 200.68 C 150.37 201.75 151.20 202.64 152.27 202.69 C 153.34 202.73 154.24 201.90 154.28 200.83 L 154.32 199.84 C 154.36 198.78 153.53 197.88 152.46 197.83 C 151.40 197.79 150.50 198.62 150.46 199.69 Z M 150.42 200.67 L 150.37 201.66 C 150.32 202.72 151.15 203.63 152.22 203.68 C 153.28 203.72 154.18 202.90 154.23 201.83 L 154.28 200.84 C 154.33 199.78 153.50 198.87 152.44 198.83 C 151.37 198.78 150.47 199.60 150.42 200.67 Z M 150.37 201.65 L 150.32 202.64 C 150.27 203.70 151.09 204.61 152.15 204.66 C 153.22 204.72 154.13 203.90 154.18 202.83 L 154.23 201.84 C 154.29 200.78 153.47 199.87 152.40 199.82 C 151.34 199.76 150.43 200.58 150.37 201.65 Z M 150.32 202.63 L 150.27 203.61 C 150.21 204.68 151.02 205.59 152.09 205.65 C 153.15 205.71 154.07 204.89 154.13 203.83 L 154.18 202.84 C 154.24 201.78 153.43 200.87 152.36 200.81 C 151.30 200.75 150.38 201.56 150.32 202.63 Z M 150.27 203.60 L 150.21 204.59 C 150.15 205.65 150.96 206.57 152.02 206.64 C 153.08 206.70 154.00 205.89 154.06 204.83 L 154.12 203.84 C 154.19 202.77 153.38 201.86 152.32 201.79 C 151.25 201.73 150.34 202.54 150.27 203.60 Z M 150.21 204.58 L 150.15 205.57 C 150.08 206.64 150.88 207.56 151.94 207.63 C 153.01 207.70 153.92 206.89 153.99 205.83 L 154.06 204.84 C 154.13 203.77 153.33 202.86 152.26 202.79 C 151.20 202.71 150.28 203.52 150.21 204.58 Z M 150.15 205.57 L 150.08 206.56 C 150.00 207.62 150.80 208.55 151.86 208.62 C 152.92 208.70 153.85 207.90 153.92 206.84 L 153.99 205.84 C 154.07 204.78 153.27 203.86 152.21 203.78 C 151.15 203.70 150.22 204.50 150.15 205.57 Z M 150.08 206.55 L 150.00 207.56 C 149.92 208.62 150.72 209.54 151.78 209.63 C 152.84 209.71 153.76 208.91 153.84 207.85 L 153.92 206.85 C 154.00 205.79 153.21 204.86 152.15 204.78 C 151.09 204.70 150.16 205.49 150.08 206.55 Z M 150.01 207.55 L 149.92 208.56 C 149.84 209.62 150.63 210.55 151.69 210.64 C 152.75 210.72 153.68 209.93 153.76 208.87 L 153.84 207.86 C 153.93 206.80 153.14 205.87 152.08 205.79 C 151.02 205.70 150.09 206.49 150.01 207.55 Z M 149.93 208.56 L 149.84 209.55 C 149.75 210.60 150.54 211.54 151.60 211.62 C 152.65 211.71 153.59 210.93 153.67 209.87 L 153.76 208.88 C 153.85 207.82 153.06 206.89 152.00 206.80 C 150.95 206.71 150.02 207.50 149.93 208.56 Z M 149.84 209.54 L 149.76 210.53 C 149.67 211.59 150.45 212.52 151.50 212.61 C 152.56 212.71 153.49 211.92 153.59 210.87 L 153.67 209.88 C 153.77 208.82 152.98 207.89 151.93 207.79 C 150.87 207.70 149.94 208.48 149.84 209.54 Z M 149.76 210.53 L 149.67 211.53 C 149.58 212.58 150.36 213.51 151.41 213.61 C 152.47 213.70 153.40 212.92 153.50 211.87 L 153.58 210.87 C 153.68 209.81 152.90 208.88 151.84 208.79 C 150.79 208.69 149.85 209.47 149.76 210.53 Z M 149.67 211.52 L 149.58 212.52 C 149.49 213.58 150.27 214.51 151.32 214.61 C 152.38 214.70 153.31 213.92 153.40 212.87 L 153.49 211.87 C 153.59 210.81 152.81 209.88 151.75 209.79 C 150.70 209.69 149.77 210.47 149.67 211.52 Z M 149.58 212.53 L 149.49 213.53 C 149.40 214.58 150.18 215.51 151.23 215.61 C 152.29 215.70 153.22 214.92 153.31 213.87 L 153.40 212.87 C 153.50 211.81 152.72 210.88 151.66 210.79 C 150.61 210.69 149.68 211.47 149.58 212.53 Z M 149.50 213.53 L 149.41 214.53 C 149.32 215.59 150.10 216.52 151.15 216.61 C 152.21 216.70 153.13 215.92 153.23 214.86 L 153.31 213.86 C 153.40 212.81 152.62 211.88 151.57 211.79 C 150.52 211.70 149.59 212.48 149.50 213.53 Z M 149.41 214.54 L 149.33 215.54 C 149.24 216.59 150.02 217.52 151.07 217.60 C 152.13 217.69 153.05 216.91 153.14 215.86 L 153.22 214.86 C 153.31 213.80 152.53 212.88 151.48 212.79 C 150.42 212.70 149.50 213.49 149.41 214.54 Z M 149.33 215.55 L 149.25 216.55 C 149.16 217.60 149.95 218.53 151.00 218.61 C 152.05 218.69 152.98 217.91 153.06 216.85 L 153.14 215.85 C 153.22 214.80 152.44 213.87 151.38 213.79 C 150.33 213.71 149.41 214.49 149.33 215.55 Z M 149.25 216.56 L 149.17 217.56 C 149.09 218.61 149.88 219.53 150.93 219.61 C 151.99 219.69 152.90 218.90 152.98 217.85 L 153.06 216.85 C 153.14 215.79 152.35 214.88 151.30 214.80 C 150.25 214.72 149.33 215.51 149.25 216.56 Z M 149.17 217.57 L 149.10 218.56 C 149.03 219.62 149.82 220.53 150.87 220.61 C 151.92 220.68 152.83 219.89 152.91 218.84 L 152.98 217.84 C 153.06 216.79 152.27 215.88 151.22 215.80 C 150.16 215.72 149.25 216.52 149.17 217.57 Z M 149.10 218.57 L 149.03 219.56 C 148.96 220.62 149.75 221.53 150.80 221.60 C 151.85 221.67 152.76 220.88 152.84 219.83 L 152.91 218.84 C 152.98 217.79 152.19 216.87 151.14 216.80 C 150.09 216.73 149.18 217.52 149.10 218.57 Z M 149.04 219.57 L 148.97 220.56 C 148.90 221.61 149.69 222.52 150.74 222.59 C 151.79 222.66 152.70 221.87 152.77 220.82 L 152.84 219.83 C 152.91 218.78 152.11 217.87 151.07 217.80 C 150.02 217.73 149.11 218.52 149.04 219.57 Z M 148.97 220.56 L 148.90 221.56 C 148.83 222.61 149.63 223.51 150.67 223.58 C 151.72 223.65 152.63 222.86 152.70 221.81 L 152.77 220.82 C 152.84 219.77 152.04 218.86 151.00 218.79 C 149.95 218.72 149.04 219.52 148.97 220.56 Z M 148.90 221.56 L 148.84 222.55 C 148.77 223.59 149.56 224.50 150.61 224.57 C 151.66 224.64 152.56 223.85 152.63 222.80 L 152.70 221.81 C 152.77 220.76 151.97 219.86 150.93 219.79 C 149.88 219.72 148.97 220.51 148.90 221.56 Z M 148.84 222.55 L 148.78 223.54 C 148.71 224.58 149.50 225.49 150.54 225.56 C 151.59 225.63 152.49 224.83 152.56 223.79 L 152.63 222.80 C 152.70 221.75 151.91 220.85 150.86 220.78 C 149.82 220.71 148.91 221.50 148.84 222.55 Z M 148.78 223.54 L 148.71 224.53 C 148.64 225.57 149.43 226.47 150.48 226.54 C 151.52 226.61 152.43 225.82 152.50 224.78 L 152.56 223.79 C 152.63 222.74 151.84 221.84 150.80 221.77 C 149.75 221.70 148.85 222.49 148.78 223.54 Z M 148.71 224.53 L 148.65 225.52 C 148.58 226.56 149.37 227.47 150.41 227.53 C 151.46 227.60 152.36 226.81 152.43 225.77 L 152.49 224.78 C 152.56 223.73 151.77 222.83 150.73 222.76 C 149.68 222.69 148.78 223.48 148.71 224.53 Z M 148.65 225.52 L 148.58 226.52 C 148.52 227.56 149.30 228.46 150.35 228.53 C 151.39 228.60 152.29 227.81 152.36 226.77 L 152.43 225.77 C 152.49 224.73 151.70 223.82 150.66 223.76 C 149.62 223.69 148.72 224.48 148.65 225.52 Z M 148.59 226.52 L 148.52 227.52 C 148.45 228.57 149.24 229.46 150.28 229.53 C 151.32 229.60 152.22 228.81 152.29 227.77 L 152.36 226.77 C 152.43 225.72 151.64 224.82 150.60 224.76 C 149.55 224.69 148.65 225.48 148.59 226.52 Z M 148.52 227.52 L 148.46 228.54 C 148.39 229.58 149.18 230.48 150.22 230.54 C 151.26 230.61 152.16 229.82 152.22 228.78 L 152.29 227.77 C 152.36 226.73 151.57 225.83 150.53 225.76 C 149.49 225.70 148.59 226.48 148.52 227.52 Z M 148.46 228.54 L 148.39 229.56 C 148.33 230.60 149.11 231.49 150.15 231.56 C 151.19 231.63 152.09 230.84 152.16 229.80 L 152.22 228.78 C 152.29 227.74 151.50 226.84 150.46 226.78 C 149.42 226.71 148.53 227.50 148.46 228.54 Z M 148.40 229.56 L 148.33 230.58 C 148.27 231.62 149.05 232.51 150.09 232.58 C 151.13 232.64 152.02 231.86 152.09 230.82 L 152.15 229.80 C 152.22 228.76 151.43 227.86 150.39 227.80 C 149.36 227.73 148.46 228.52 148.40 229.56 Z M 148.34 230.58 L 148.27 231.60 C 148.21 232.64 148.99 233.53 150.03 233.59 C 151.06 233.66 151.96 232.87 152.02 231.84 L 152.08 230.82 C 152.15 229.78 151.36 228.89 150.33 228.82 C 149.29 228.76 148.40 229.55 148.34 230.58 Z M 148.28 231.60 L 148.21 232.62 C 148.15 233.65 148.94 234.54 149.97 234.60 C 151.00 234.66 151.89 233.88 151.96 232.84 L 152.02 231.83 C 152.08 230.80 151.29 229.91 150.26 229.85 C 149.23 229.78 148.34 230.57 148.28 231.60 Z M 148.22 232.62 L 148.16 233.62 C 148.10 234.65 148.88 235.54 149.92 235.60 C 150.95 235.66 151.83 234.87 151.89 233.84 L 151.95 232.84 C 152.01 231.81 151.23 230.92 150.20 230.86 C 149.16 230.80 148.28 231.59 148.22 232.62 Z M 148.16 233.62 L 148.11 234.60 C 148.05 235.63 148.83 236.51 149.86 236.57 C 150.89 236.63 151.78 235.84 151.83 234.81 L 151.89 233.83 C 151.95 232.80 151.16 231.92 150.13 231.86 C 149.10 231.80 148.22 232.59 148.16 233.62 Z M 148.11 234.60 L 148.06 235.55 C 148.00 236.58 148.79 237.46 149.82 237.52 C 150.85 237.57 151.72 236.78 151.78 235.76 L 151.83 234.81 C 151.89 233.78 151.10 232.90 150.07 232.84 C 149.04 232.79 148.16 233.58 148.11 234.60 Z M 148.06 235.56 L 148.01 236.63 C 147.95 237.66 148.74 238.53 149.77 238.58 C 150.80 238.63 151.67 237.84 151.72 236.82 L 151.78 235.75 C 151.83 234.72 151.04 233.85 150.01 233.80 C 148.99 233.74 148.11 234.53 148.06 235.56 Z M 148.01 236.64 L 147.96 237.67 C 147.91 238.69 148.70 239.56 149.73 239.61 C 150.75 239.66 151.62 238.87 151.67 237.85 L 151.72 236.81 C 151.77 235.79 150.98 234.92 149.95 234.87 C 148.93 234.82 148.06 235.61 148.01 236.64 Z M 147.97 237.68 L 147.92 238.68 C 147.88 239.70 148.67 240.56 149.69 240.61 C 150.71 240.65 151.57 239.86 151.62 238.84 L 151.66 237.84 C 151.71 236.82 150.92 235.95 149.90 235.91 C 148.88 235.86 148.01 236.65 147.97 237.68 Z M 147.93 238.68 L 147.88 239.66 C 147.84 240.67 148.63 241.54 149.65 241.58 C 150.67 241.62 151.53 240.83 151.57 239.81 L 151.61 238.84 C 151.66 237.82 150.87 236.96 149.85 236.91 C 148.83 236.87 147.97 237.66 147.93 238.68 Z M 147.89 239.66 L 147.85 240.61 C 147.81 241.63 148.60 242.49 149.61 242.53 C 150.63 242.57 151.49 241.78 151.53 240.77 L 151.57 239.81 C 151.61 238.79 150.82 237.94 149.80 237.89 C 148.79 237.85 147.93 238.64 147.89 239.66 Z M 147.85 240.61 L 147.82 241.55 C 147.77 242.56 148.56 243.42 149.58 243.46 C 150.59 243.50 151.45 242.71 151.49 241.70 L 151.52 240.76 C 151.57 239.75 150.78 238.89 149.76 238.85 C 148.75 238.81 147.89 239.60 147.85 240.61 Z M 147.82 241.55 L 147.78 242.45 C 147.74 243.46 148.53 244.32 149.54 244.36 C 150.55 244.40 151.40 243.61 151.44 242.60 L 151.48 241.70 C 151.52 240.69 150.74 239.83 149.73 239.79 C 148.71 239.75 147.86 240.54 147.82 241.55 Z M 147.79 242.46 L 147.76 243.38 C 147.72 244.39 148.50 245.23 149.51 245.27 C 150.52 245.31 151.37 244.52 151.40 243.52 L 151.44 242.60 C 151.48 241.59 150.69 240.74 149.68 240.70 C 148.68 240.66 147.83 241.45 147.79 242.46 Z M 147.76 243.39 L 147.73 244.34 C 147.69 245.35 148.48 246.19 149.48 246.22 C 150.49 246.26 151.33 245.47 151.37 244.47 L 151.40 243.51 C 151.43 242.51 150.65 241.66 149.64 241.63 C 148.64 241.59 147.80 242.38 147.76 243.39 Z M 147.73 244.35 L 147.70 245.37 C 147.68 246.37 148.46 247.20 149.46 247.23 C 150.47 247.26 151.30 246.47 151.33 245.47 L 151.36 244.46 C 151.39 243.46 150.60 242.62 149.60 242.59 C 148.60 242.56 147.76 243.35 147.73 244.35 Z M 147.71 245.38 L 147.68 246.47 C 147.66 247.47 148.45 248.30 149.45 248.32 C 150.45 248.34 151.28 247.55 151.30 246.55 L 151.32 245.46 C 151.35 244.46 150.56 243.64 149.56 243.61 C 148.56 243.59 147.73 244.38 147.71 245.38 Z M 147.69 246.48 L 147.67 247.57 C 147.66 248.56 148.45 249.38 149.44 249.40 C 150.44 249.42 151.26 248.62 151.27 247.63 L 151.29 246.54 C 151.31 245.55 150.52 244.73 149.52 244.71 C 148.53 244.69 147.71 245.49 147.69 246.48 Z M 147.68 247.58 L 147.67 248.41 C 147.66 249.41 148.45 250.22 149.44 250.23 C 150.44 250.24 151.25 249.45 151.26 248.45 L 151.27 247.62 C 151.28 246.63 150.49 245.81 149.49 245.80 C 148.50 245.79 147.69 246.58 147.68 247.58 Z M 147.67 248.42 L 147.67 249.31 C 147.66 250.30 148.46 251.10 149.45 251.11 C 150.44 251.11 151.25 250.32 151.25 249.33 L 151.26 248.44 C 151.26 247.45 150.46 246.65 149.47 246.64 C 148.48 246.64 147.68 247.43 147.67 248.42 Z M 147.67 249.32 L 147.67 250.25 C 147.67 251.23 148.48 252.03 149.46 252.03 C 150.45 252.03 151.25 251.23 151.25 250.24 L 151.25 249.31 C 151.25 248.32 150.44 247.53 149.46 247.53 C 148.47 247.53 147.67 248.33 147.67 249.32 Z M 147.68 250.26 L 147.69 251.23 C 147.70 252.22 148.50 253.01 149.49 253.00 C 150.48 252.99 151.27 252.18 151.26 251.20 L 151.25 250.22 C 151.23 249.24 150.43 248.45 149.44 248.46 C 148.46 248.47 147.67 249.28 147.68 250.26 Z M 147.69 251.25 L 147.71 252.26 C 147.73 253.25 148.54 254.03 149.53 254.01 C 150.51 253.99 151.29 253.17 151.27 252.19 L 151.25 251.18 C 151.23 250.20 150.42 249.41 149.44 249.43 C 148.45 249.45 147.67 250.27 147.69 251.25 Z M 147.72 252.28 L 147.75 253.33 C 147.78 254.31 148.60 255.08 149.58 255.05 C 150.56 255.02 151.33 254.21 151.30 253.22 L 151.27 252.17 C 151.24 251.19 150.42 250.42 149.44 250.45 C 148.46 250.48 147.69 251.30 147.72 252.28 Z M 147.75 253.35 L 147.80 254.45 C 147.84 255.42 148.67 256.18 149.64 256.14 C 150.62 256.10 151.38 255.27 151.34 254.30 L 151.29 253.20 C 151.25 252.23 150.43 251.47 149.45 251.51 C 148.47 251.55 147.71 252.38 147.75 253.35 Z M 147.80 254.47 L 147.87 255.60 C 147.92 256.57 148.75 257.32 149.73 257.27 C 150.70 257.21 151.45 256.38 151.40 255.40 L 151.34 254.28 C 151.28 253.30 150.45 252.55 149.47 252.61 C 148.50 252.66 147.75 253.49 147.80 254.47 Z M 147.87 255.62 L 147.95 256.74 C 148.01 257.71 148.85 258.45 149.83 258.38 C 150.80 258.32 151.53 257.48 151.47 256.51 L 151.39 255.38 C 151.33 254.41 150.48 253.68 149.51 253.74 C 148.54 253.81 147.81 254.65 147.87 255.62 Z M 147.95 256.76 L 148.03 257.69 C 148.10 258.66 148.95 259.38 149.92 259.30 C 150.89 259.23 151.61 258.38 151.53 257.41 L 151.46 256.49 C 151.38 255.52 150.54 254.79 149.57 254.87 C 148.60 254.95 147.88 255.79 147.95 256.76 Z M 148.03 257.70 L 148.12 258.65 C 148.20 259.61 149.05 260.32 150.02 260.24 C 150.98 260.15 151.69 259.30 151.61 258.34 L 151.53 257.40 C 151.44 256.43 150.59 255.72 149.63 255.80 C 148.66 255.89 147.95 256.74 148.03 257.70 Z M 148.13 258.66 L 148.22 259.62 C 148.31 260.58 149.16 261.29 150.12 261.19 C 151.08 261.10 151.79 260.25 151.69 259.29 L 151.60 258.33 C 151.51 257.37 150.66 256.66 149.70 256.76 C 148.74 256.85 148.03 257.70 148.13 258.66 Z M 148.23 259.63 L 148.33 260.61 C 148.42 261.57 149.28 262.26 150.23 262.16 C 151.19 262.06 151.88 261.21 151.79 260.25 L 151.69 259.28 C 151.59 258.32 150.73 257.63 149.78 257.73 C 148.82 257.82 148.13 258.68 148.23 259.63 Z M 148.33 260.62 L 148.44 261.61 C 148.54 262.56 149.40 263.25 150.35 263.14 C 151.30 263.04 151.99 262.19 151.89 261.23 L 151.78 260.24 C 151.68 259.29 150.82 258.61 149.87 258.71 C 148.92 258.81 148.23 259.67 148.33 260.62 Z M 148.45 261.62 L 148.56 262.62 C 148.67 263.57 149.53 264.25 150.47 264.14 C 151.42 264.03 152.10 263.18 151.99 262.23 L 151.88 261.23 C 151.77 260.28 150.92 259.60 149.97 259.71 C 149.02 259.81 148.34 260.67 148.45 261.62 Z M 148.57 262.63 L 148.69 263.64 C 148.80 264.58 149.65 265.26 150.60 265.14 C 151.54 265.03 152.22 264.18 152.11 263.23 L 151.99 262.22 C 151.87 261.28 151.02 260.60 150.08 260.72 C 149.13 260.83 148.46 261.68 148.57 262.63 Z M 148.70 263.64 L 148.82 264.66 C 148.93 265.60 149.79 266.27 150.73 266.16 C 151.67 266.04 152.34 265.19 152.22 264.25 L 152.10 263.23 C 151.98 262.29 151.13 261.62 150.19 261.73 C 149.25 261.85 148.58 262.70 148.70 263.64 Z M 148.83 264.67 L 148.95 265.69 C 149.07 266.63 149.92 267.29 150.86 267.18 C 151.79 267.06 152.46 266.21 152.34 265.27 L 152.22 264.25 C 152.10 263.31 151.25 262.64 150.31 262.76 C 149.37 262.88 148.71 263.73 148.83 264.67 Z M 148.96 265.69 L 149.09 266.72 C 149.21 267.66 150.06 268.32 150.99 268.20 C 151.92 268.08 152.58 267.23 152.47 266.30 L 152.34 265.27 C 152.22 264.34 151.37 263.68 150.44 263.79 C 149.50 263.91 148.84 264.76 148.96 265.69 Z M 149.10 266.73 L 149.23 267.76 C 149.34 268.69 150.19 269.35 151.12 269.23 C 152.05 269.11 152.71 268.26 152.59 267.33 L 152.46 266.30 C 152.34 265.37 151.49 264.71 150.56 264.83 C 149.64 264.95 148.98 265.80 149.10 266.73 Z M 149.23 267.76 L 149.31 268.34 C 149.42 269.27 150.27 269.92 151.20 269.81 C 152.12 269.69 152.78 268.84 152.66 267.92 L 152.59 267.33 C 152.47 266.41 151.62 265.75 150.70 265.87 C 149.77 265.99 149.11 266.83 149.23 267.76 Z"
      fill="black"
      fill-rule="nonzero" /></svg>