<svg xmlns="http://www.w3.org/2000/svg" width="300" height="300" viewBox="0 0 300 300">
<path d="M 106.26 106.57 L 104.89 106.54 C 103.95 106.52 103.17 107.27 103.15 108.21 C 103.13 109.15 103.87 109.93 104.81 109.95 L 106.19 109.98 C 107.13 110.00 107.91 109.26 107.93 108.31 C 107.95 107.37 107.20 106.59 106.26 106.57 Z M 104.88 106.51 L 103.55 106.49 C 102.59 106.47 101.80 107.24 101.78 108.20 C 101.77 109.16 102.53 109.95 103.49 109.97 L 104.82 109.99 C 105.78 110.00 106.57 109.24 106.59 108.28 C 106.61 107.32 105.84 106.53 104.88 106.51 Z M 103.54 106.45 L 102.30 106.44 C 101.32 106.44 100.52 107.23 100.51 108.21 C 100.51 109.19 101.30 109.99 102.28 109.99 L 103.51 110.00 C 104.49 110.01 105.29 109.22 105.30 108.24 C 105.31 107.26 104.52 106.46 103.54 106.45 Z M 102.27 106.41 L 101.16 106.42 C 100.16 106.43 99.36 107.25 99.38 108.25 C 99.39 109.25 100.21 110.05 101.21 110.04 L 102.31 110.03 C 103.31 110.02 104.11 109.20 104.10 108.20 C 104.08 107.20 103.26 106.40 102.27 106.41 Z M 101.10 106.39 L 100.18 106.43 C 99.16 106.48 98.37 107.34 98.42 108.36 C 98.47 109.37 99.33 110.16 100.35 110.12 L 101.27 110.07 C 102.29 110.03 103.07 109.17 103.03 108.15 C 102.98 107.13 102.12 106.34 101.10 106.39 Z M 100.06 106.40 L 99.36 106.48 C 98.33 106.60 97.58 107.53 97.70 108.56 C 97.81 109.59 98.74 110.33 99.77 110.22 L 100.47 110.14 C 101.50 110.03 102.25 109.10 102.13 108.07 C 102.02 107.03 101.09 106.29 100.06 106.40 Z M 99.05 106.51 L 98.62 106.63 C 97.60 106.91 97.01 107.97 97.30 108.99 C 97.59 110.01 98.64 110.60 99.66 110.31 L 100.09 110.19 C 101.10 109.91 101.70 108.85 101.41 107.83 C 101.12 106.81 100.07 106.22 99.05 106.51 Z M 97.31 107.83 L 97.23 108.07 C 96.87 109.08 97.40 110.19 98.41 110.54 C 99.42 110.90 100.53 110.37 100.88 109.36 L 100.97 109.11 C 101.33 108.10 100.80 107.00 99.79 106.64 C 98.78 106.29 97.67 106.82 97.31 107.83 Z M 97.92 110.29 L 98.39 110.63 C 99.26 111.26 100.48 111.06 101.10 110.19 C 101.73 109.32 101.54 108.10 100.66 107.47 L 100.19 107.13 C 99.32 106.51 98.11 106.70 97.48 107.58 C 96.85 108.45 97.05 109.66 97.92 110.29 Z M 98.76 110.85 L 99.67 111.23 C 100.66 111.66 101.81 111.20 102.23 110.20 C 102.65 109.21 102.19 108.07 101.20 107.64 L 100.29 107.26 C 99.30 106.83 98.15 107.30 97.73 108.29 C 97.31 109.28 97.77 110.42 98.76 110.85 Z M 99.81 111.29 L 101.02 111.70 C 102.05 112.04 103.15 111.49 103.50 110.46 C 103.84 109.44 103.29 108.33 102.26 107.99 L 101.05 107.58 C 100.03 107.24 98.92 107.79 98.58 108.82 C 98.24 109.84 98.79 110.95 99.81 111.29 Z M 101.11 111.73 L 102.47 112.11 C 103.51 112.41 104.60 111.80 104.89 110.76 C 105.18 109.72 104.58 108.63 103.54 108.34 L 102.17 107.95 C 101.13 107.66 100.05 108.27 99.75 109.31 C 99.46 110.35 100.06 111.44 101.11 111.73 Z M 102.53 112.13 L 103.52 112.38 C 104.57 112.64 105.64 112.00 105.90 110.95 C 106.16 109.89 105.52 108.83 104.47 108.57 L 103.48 108.32 C 102.42 108.06 101.36 108.70 101.10 109.75 C 100.83 110.81 101.48 111.87 102.53 112.13 Z M 103.57 112.39 L 104.52 112.60 C 105.58 112.84 106.63 112.17 106.86 111.11 C 107.10 110.05 106.43 109.00 105.37 108.77 L 104.42 108.56 C 103.36 108.32 102.31 108.99 102.08 110.05 C 101.84 111.11 102.51 112.16 103.57 112.39 Z M 104.56 112.61 L 105.52 112.80 C 106.58 113.02 107.62 112.33 107.83 111.26 C 108.04 110.20 107.35 109.16 106.29 108.95 L 105.33 108.76 C 104.27 108.55 103.23 109.24 103.02 110.30 C 102.81 111.36 103.50 112.40 104.56 112.61 Z M 105.56 112.81 L 106.53 112.99 C 107.60 113.18 108.62 112.47 108.81 111.40 C 109.00 110.33 108.29 109.31 107.23 109.12 L 106.25 108.94 C 105.19 108.75 104.16 109.46 103.97 110.53 C 103.78 111.60 104.49 112.62 105.56 112.81 Z M 106.56 112.99 L 107.55 113.15 C 108.62 113.33 109.63 112.60 109.80 111.53 C 109.98 110.46 109.25 109.45 108.18 109.27 L 107.19 109.11 C 106.12 108.94 105.11 109.66 104.94 110.74 C 104.76 111.81 105.49 112.82 106.56 112.99 Z M 107.57 113.16 L 108.58 113.31 C 109.66 113.47 110.66 112.73 110.82 111.65 C 110.98 110.58 110.23 109.58 109.16 109.42 L 108.15 109.27 C 107.08 109.11 106.08 109.85 105.92 110.92 C 105.76 112.00 106.50 113.00 107.57 113.16 Z M 108.60 113.31 L 109.64 113.45 C 110.71 113.60 111.70 112.85 111.85 111.77 C 112.00 110.70 111.25 109.71 110.17 109.56 L 109.14 109.42 C 108.06 109.27 107.07 110.02 106.93 111.10 C 106.78 112.17 107.53 113.16 108.60 113.31 Z M 109.65 113.45 L 110.60 113.58 C 111.68 113.72 112.66 112.96 112.80 111.88 C 112.94 110.80 112.18 109.82 111.10 109.68 L 110.16 109.56 C 109.08 109.42 108.09 110.18 107.96 111.25 C 107.82 112.33 108.58 113.31 109.65 113.45 Z M 110.61 113.58 L 111.54 113.69 C 112.61 113.82 113.59 113.06 113.72 111.98 C 113.86 110.90 113.09 109.92 112.01 109.79 L 111.09 109.68 C 110.01 109.55 109.03 110.31 108.90 111.39 C 108.77 112.47 109.54 113.45 110.61 113.58 Z M 111.55 113.69 L 112.49 113.80 C 113.57 113.93 114.54 113.15 114.67 112.08 C 114.79 111.00 114.02 110.02 112.94 109.90 L 112.00 109.79 C 110.92 109.67 109.95 110.44 109.82 111.52 C 109.70 112.59 110.47 113.57 111.55 113.69 Z M 112.51 113.80 L 113.47 113.91 C 114.55 114.02 115.52 113.25 115.64 112.17 C 115.75 111.09 114.98 110.12 113.90 110.00 L 112.93 109.90 C 111.85 109.78 110.88 110.56 110.77 111.64 C 110.65 112.72 111.43 113.68 112.51 113.80 Z M 113.49 113.91 L 114.48 114.01 C 115.56 114.12 116.52 113.33 116.63 112.25 C 116.74 111.18 115.95 110.21 114.88 110.10 L 113.88 110.00 C 112.81 109.89 111.84 110.68 111.73 111.76 C 111.62 112.84 112.41 113.80 113.49 113.91 Z M 114.49 114.01 L 115.51 114.11 C 116.59 114.21 117.54 113.42 117.65 112.34 C 117.75 111.26 116.96 110.30 115.88 110.20 L 114.86 110.10 C 113.78 110.00 112.83 110.79 112.72 111.87 C 112.62 112.95 113.41 113.91 114.49 114.01 Z M 115.52 114.11 L 116.56 114.20 C 117.64 114.29 118.59 113.49 118.69 112.41 C 118.78 111.33 117.98 110.38 116.90 110.29 L 115.86 110.20 C 114.78 110.10 113.83 110.90 113.74 111.98 C 113.64 113.06 114.44 114.01 115.52 114.11 Z M 116.58 114.20 L 117.65 114.28 C 118.73 114.37 119.67 113.56 119.76 112.49 C 119.84 111.41 119.04 110.46 117.96 110.37 L 116.89 110.29 C 115.81 110.20 114.87 111.01 114.78 112.09 C 114.69 113.17 115.50 114.11 116.58 114.20 Z M 117.66 114.28 L 118.71 114.36 C 119.79 114.44 120.73 113.63 120.81 112.55 C 120.89 111.47 120.08 110.53 119.00 110.45 L 117.94 110.37 C 116.86 110.30 115.93 111.11 115.85 112.19 C 115.77 113.27 116.58 114.21 117.66 114.28 Z M 118.72 114.36 L 119.62 114.42 C 120.70 114.49 121.63 113.67 121.70 112.60 C 121.77 111.52 120.96 110.58 119.88 110.51 L 118.98 110.45 C 117.90 110.38 116.97 111.20 116.90 112.28 C 116.83 113.35 117.64 114.29 118.72 114.36 Z M 119.63 114.42 L 120.54 114.47 C 121.62 114.54 122.55 113.72 122.61 112.64 C 122.68 111.56 121.86 110.63 120.78 110.57 L 119.87 110.51 C 118.79 110.45 117.86 111.27 117.79 112.35 C 117.73 113.42 118.55 114.35 119.63 114.42 Z M 120.55 114.47 L 121.49 114.52 C 122.56 114.58 123.49 113.76 123.55 112.68 C 123.60 111.60 122.78 110.68 121.70 110.62 L 120.77 110.57 C 119.69 110.51 118.77 111.34 118.71 112.41 C 118.65 113.49 119.48 114.41 120.55 114.47 Z M 121.50 114.52 L 122.45 114.57 C 123.53 114.62 124.44 113.79 124.50 112.72 C 124.55 111.64 123.72 110.72 122.65 110.67 L 121.69 110.62 C 120.62 110.57 119.70 111.40 119.65 112.47 C 119.59 113.55 120.42 114.47 121.50 114.52 Z M 122.46 114.57 L 123.44 114.61 C 124.52 114.66 125.43 113.83 125.47 112.75 C 125.52 111.68 124.69 110.77 123.61 110.72 L 122.64 110.67 C 121.56 110.62 120.65 111.46 120.60 112.53 C 120.55 113.61 121.39 114.52 122.46 114.57 Z M 123.45 114.61 L 124.45 114.65 C 125.53 114.69 126.43 113.86 126.48 112.78 C 126.52 111.71 125.68 110.80 124.61 110.76 L 123.61 110.72 C 122.53 110.68 121.63 111.51 121.58 112.59 C 121.54 113.66 122.38 114.57 123.45 114.61 Z M 124.46 114.65 L 125.49 114.68 C 126.56 114.72 127.46 113.88 127.50 112.81 C 127.54 111.74 126.70 110.83 125.63 110.80 L 124.60 110.76 C 123.52 110.72 122.62 111.56 122.59 112.64 C 122.55 113.71 123.39 114.61 124.46 114.65 Z M 125.50 114.68 L 126.55 114.71 C 127.63 114.75 128.52 113.90 128.55 112.83 C 128.59 111.76 127.74 110.86 126.67 110.83 L 125.62 110.80 C 124.54 110.77 123.65 111.61 123.62 112.68 C 123.58 113.75 124.43 114.65 125.50 114.68 Z M 126.56 114.71 L 127.64 114.74 C 128.72 114.77 129.61 113.92 129.63 112.85 C 129.66 111.78 128.82 110.89 127.75 110.86 L 126.66 110.83 C 125.59 110.81 124.70 111.65 124.67 112.72 C 124.65 113.79 125.49 114.68 126.56 114.71 Z M 127.65 114.74 L 128.77 114.76 C 129.83 114.79 130.72 113.94 130.74 112.87 C 130.77 111.80 129.92 110.91 128.85 110.89 L 127.74 110.86 C 126.67 110.84 125.78 111.69 125.76 112.76 C 125.73 113.83 126.58 114.71 127.65 114.74 Z M 128.77 114.76 L 129.82 114.78 C 130.89 114.80 131.77 113.95 131.79 112.88 C 131.81 111.81 130.96 110.93 129.89 110.91 L 128.84 110.89 C 127.77 110.87 126.89 111.72 126.87 112.79 C 126.85 113.86 127.70 114.74 128.77 114.76 Z M 129.83 114.78 L 130.83 114.79 C 131.89 114.81 132.77 113.95 132.78 112.89 C 132.80 111.82 131.95 110.94 130.88 110.93 L 129.88 110.91 C 128.82 110.90 127.94 111.75 127.92 112.82 C 127.91 113.88 128.76 114.76 129.83 114.78 Z M 130.83 114.79 L 131.84 114.80 C 132.91 114.81 133.78 113.96 133.79 112.89 C 133.81 111.83 132.96 110.96 131.89 110.94 L 130.88 110.93 C 129.81 110.92 128.94 111.77 128.93 112.84 C 128.91 113.90 129.77 114.77 130.83 114.79 Z M 131.85 114.79 L 132.87 114.80 C 133.94 114.82 134.80 113.96 134.82 112.90 C 134.83 111.84 133.97 110.97 132.91 110.96 L 131.89 110.95 C 130.82 110.94 129.95 111.79 129.94 112.85 C 129.93 113.91 130.79 114.78 131.85 114.79 Z M 132.88 114.80 L 133.91 114.81 C 134.97 114.82 135.83 113.96 135.84 112.90 C 135.85 111.84 135.00 110.98 133.94 110.97 L 132.91 110.96 C 131.85 110.95 130.98 111.81 130.97 112.87 C 130.96 113.93 131.82 114.79 132.88 114.80 Z M 133.91 114.81 L 134.94 114.81 C 136.00 114.82 136.87 113.97 136.87 112.91 C 136.88 111.85 136.03 110.99 134.97 110.98 L 133.93 110.97 C 132.88 110.97 132.01 111.82 132.01 112.88 C 132.00 113.94 132.85 114.80 133.91 114.81 Z M 134.95 114.81 L 135.98 114.81 C 137.03 114.82 137.89 113.96 137.90 112.91 C 137.90 111.85 137.05 110.99 135.99 110.99 L 134.96 110.98 C 133.91 110.98 133.05 111.83 133.04 112.89 C 133.04 113.94 133.89 114.80 134.95 114.81 Z M 135.98 114.81 L 137.00 114.81 C 138.06 114.81 138.91 113.96 138.92 112.91 C 138.92 111.86 138.07 111.00 137.01 111.00 L 135.99 110.99 C 134.94 110.99 134.08 111.84 134.08 112.89 C 134.07 113.95 134.93 114.80 135.98 114.81 Z M 137.00 114.81 L 138.02 114.81 C 139.07 114.81 139.92 113.96 139.92 112.91 C 139.93 111.86 139.08 111.00 138.02 111.00 L 137.01 111.00 C 135.96 111.00 135.11 111.85 135.10 112.90 C 135.10 113.95 135.95 114.81 137.00 114.81 Z M 138.02 114.81 L 139.01 114.81 C 140.06 114.81 140.91 113.96 140.91 112.91 C 140.92 111.86 140.07 111.01 139.02 111.01 L 138.02 111.01 C 136.97 111.00 136.12 111.85 136.12 112.90 C 136.12 113.95 136.97 114.80 138.02 114.81 Z M 139.01 114.80 L 139.99 114.80 C 141.03 114.80 141.88 113.96 141.88 112.91 C 141.88 111.86 141.04 111.01 139.99 111.01 L 139.02 111.01 C 137.97 111.01 137.12 111.86 137.12 112.91 C 137.12 113.95 137.97 114.80 139.01 114.80 Z M 139.99 114.80 L 140.93 114.80 C 141.98 114.80 142.83 113.95 142.83 112.91 C 142.83 111.86 141.98 111.02 140.93 111.02 L 139.99 111.02 C 138.94 111.02 138.10 111.86 138.09 112.91 C 138.09 113.95 138.94 114.80 139.99 114.80 Z M 140.93 114.80 L 141.89 114.80 C 142.93 114.80 143.78 113.95 143.78 112.91 C 143.78 111.87 142.93 111.02 141.89 111.02 L 140.93 111.02 C 139.89 111.02 139.05 111.87 139.05 112.91 C 139.05 113.95 139.89 114.80 140.93 114.80 Z M 141.89 114.79 L 143.04 114.79 C 144.08 114.79 144.92 113.95 144.92 112.91 C 144.92 111.87 144.08 111.03 143.04 111.03 L 141.89 111.03 C 140.85 111.03 140.01 111.87 140.01 112.91 C 140.01 113.95 140.85 114.79 141.89 114.79 Z M 143.04 114.78 L 144.14 114.78 C 145.17 114.78 146.01 113.94 146.01 112.91 C 146.01 111.88 145.17 111.04 144.14 111.04 L 143.04 111.04 C 142.01 111.04 141.17 111.88 141.17 112.91 C 141.17 113.94 142.01 114.78 143.04 114.78 Z M 144.14 114.77 L 145.19 114.77 C 146.22 114.77 147.05 113.93 147.05 112.91 C 147.05 111.88 146.22 111.05 145.19 111.05 L 144.14 111.05 C 143.11 111.05 142.28 111.88 142.28 112.91 C 142.28 113.93 143.11 114.77 144.14 114.77 Z M 145.19 114.75 L 146.20 114.75 C 147.22 114.75 148.05 113.93 148.05 112.91 C 148.05 111.89 147.22 111.06 146.20 111.06 L 145.19 111.06 C 144.17 111.06 143.35 111.89 143.35 112.91 C 143.35 113.93 144.17 114.75 145.19 114.75 Z M 146.20 114.74 L 147.18 114.74 C 148.20 114.74 149.02 113.92 149.02 112.91 C 149.02 111.89 148.20 111.07 147.18 111.07 L 146.20 111.07 C 145.19 111.07 144.37 111.89 144.37 112.91 C 144.37 113.92 145.19 114.74 146.20 114.74 Z M 147.18 114.73 L 148.14 114.73 C 149.14 114.73 149.96 113.92 149.96 112.91 C 149.96 111.90 149.14 111.08 148.14 111.08 L 147.18 111.08 C 146.18 111.08 145.36 111.90 145.36 112.91 C 145.36 113.92 146.18 114.73 147.18 114.73 Z M 148.14 114.72 L 149.07 114.72 C 150.07 114.72 150.88 113.91 150.88 112.91 C 150.88 111.91 150.07 111.09 149.07 111.09 L 148.14 111.09 C 147.14 111.09 146.32 111.91 146.32 112.91 C 146.32 113.91 147.14 114.72 148.14 114.72 Z M 149.07 114.71 L 149.99 114.71 C 150.98 114.71 151.79 113.90 151.79 112.91 C 151.79 111.91 150.98 111.11 149.99 111.11 L 149.07 111.11 C 148.07 111.11 147.27 111.91 147.27 112.91 C 147.27 113.90 148.07 114.71 149.07 114.71 Z M 149.99 114.70 L 150.90 114.70 C 151.89 114.70 152.69 113.90 152.69 112.91 C 152.69 111.92 151.89 111.12 150.90 111.12 L 149.99 111.12 C 149.00 111.12 148.20 111.92 148.20 112.91 C 148.20 113.90 149.00 114.70 149.99 114.70 Z M 150.90 114.69 L 151.89 114.69 C 152.87 114.69 153.67 113.89 153.67 112.91 C 153.67 111.92 152.87 111.13 151.89 111.13 L 150.90 111.13 C 149.91 111.13 149.12 111.92 149.12 112.91 C 149.12 113.89 149.91 114.69 150.90 114.69 Z M 151.89 114.68 L 152.92 114.68 C 153.89 114.68 154.69 113.88 154.68 112.91 C 154.68 111.93 153.89 111.14 152.91 111.14 L 151.88 111.14 C 150.91 111.14 150.11 111.93 150.12 112.91 C 150.12 113.89 150.91 114.68 151.89 114.68 Z M 152.92 114.67 L 153.94 114.67 C 154.91 114.66 155.70 113.87 155.70 112.90 C 155.70 111.93 154.91 111.14 153.94 111.14 L 152.91 111.15 C 151.94 111.15 151.15 111.94 151.15 112.91 C 151.16 113.88 151.95 114.67 152.92 114.67 Z M 153.95 114.66 L 154.96 114.65 C 155.93 114.65 156.71 113.86 156.71 112.90 C 156.70 111.93 155.92 111.15 154.95 111.15 L 153.93 111.15 C 152.97 111.16 152.18 111.94 152.19 112.91 C 152.19 113.88 152.98 114.66 153.95 114.66 Z M 154.97 114.64 L 155.98 114.64 C 156.94 114.63 157.71 113.85 157.71 112.88 C 157.70 111.92 156.91 111.15 155.95 111.15 L 154.94 111.16 C 153.98 111.17 153.21 111.95 153.21 112.91 C 153.22 113.88 154.01 114.65 154.97 114.64 Z M 155.98 114.63 L 156.98 114.62 C 157.93 114.61 158.70 113.82 158.69 112.87 C 158.68 111.91 157.90 111.14 156.94 111.15 L 155.95 111.16 C 154.99 111.17 154.22 111.96 154.23 112.91 C 154.24 113.87 155.02 114.64 155.98 114.63 Z M 156.98 114.61 L 157.96 114.59 C 158.92 114.58 159.68 113.80 159.66 112.85 C 159.65 111.89 158.87 111.13 157.91 111.15 L 156.93 111.16 C 155.98 111.18 155.22 111.96 155.24 112.91 C 155.25 113.86 156.03 114.62 156.98 114.61 Z M 157.97 114.58 L 158.94 114.56 C 159.88 114.54 160.63 113.76 160.61 112.82 C 160.60 111.87 159.81 111.12 158.87 111.14 L 157.90 111.16 C 156.96 111.18 156.21 111.96 156.23 112.91 C 156.25 113.85 157.03 114.60 157.97 114.58 Z M 158.95 114.55 L 159.93 114.53 C 160.87 114.50 161.62 113.72 161.59 112.78 C 161.56 111.84 160.78 111.10 159.84 111.12 L 158.86 111.15 C 157.92 111.17 157.17 111.96 157.20 112.90 C 157.22 113.84 158.01 114.58 158.95 114.55 Z M 159.95 114.52 L 161.00 114.48 C 161.93 114.45 162.66 113.66 162.63 112.73 C 162.60 111.80 161.82 111.06 160.88 111.10 L 159.83 111.13 C 158.89 111.16 158.16 111.95 158.19 112.88 C 158.23 113.82 159.01 114.55 159.95 114.52 Z M 161.01 114.47 L 162.04 114.43 C 162.96 114.39 163.69 113.61 163.65 112.68 C 163.61 111.75 162.83 111.03 161.90 111.07 L 160.87 111.11 C 159.94 111.14 159.22 111.93 159.26 112.86 C 159.30 113.78 160.08 114.51 161.01 114.47 Z M 162.04 114.42 L 163.05 114.37 C 163.97 114.33 164.69 113.55 164.64 112.63 C 164.60 111.71 163.82 110.99 162.90 111.03 L 161.89 111.08 C 160.97 111.12 160.26 111.90 160.30 112.82 C 160.34 113.74 161.12 114.46 162.04 114.42 Z M 163.05 114.36 L 164.04 114.32 C 164.96 114.27 165.66 113.50 165.62 112.58 C 165.58 111.66 164.80 110.95 163.89 111.00 L 162.90 111.04 C 161.98 111.08 161.27 111.86 161.31 112.78 C 161.36 113.69 162.13 114.40 163.05 114.36 Z M 164.04 114.31 L 165.01 114.26 C 165.92 114.22 166.63 113.45 166.59 112.54 C 166.55 111.63 165.77 110.92 164.86 110.96 L 163.89 111.01 C 162.98 111.05 162.27 111.82 162.31 112.73 C 162.35 113.64 163.13 114.35 164.04 114.31 Z M 165.00 114.25 L 165.97 114.21 C 166.87 114.18 167.58 113.41 167.54 112.51 C 167.50 111.60 166.74 110.90 165.83 110.93 L 164.87 110.97 C 163.96 111.01 163.26 111.78 163.30 112.68 C 163.33 113.59 164.10 114.29 165.00 114.25 Z M 165.96 114.20 L 166.92 114.17 C 167.82 114.14 168.52 113.38 168.49 112.48 C 168.46 111.58 167.70 110.88 166.80 110.91 L 165.84 110.94 C 164.94 110.98 164.24 111.73 164.27 112.63 C 164.30 113.53 165.06 114.23 165.96 114.20 Z M 166.90 114.16 L 167.92 114.13 C 168.82 114.11 169.52 113.36 169.50 112.47 C 169.47 111.57 168.73 110.87 167.83 110.89 L 166.82 110.92 C 165.92 110.94 165.21 111.69 165.24 112.58 C 165.26 113.48 166.01 114.18 166.90 114.16 Z M 167.91 114.13 L 168.92 114.11 C 169.81 114.09 170.52 113.35 170.50 112.46 C 170.49 111.57 169.75 110.86 168.86 110.88 L 167.85 110.90 C 166.96 110.92 166.25 111.65 166.26 112.54 C 166.28 113.43 167.02 114.14 167.91 114.13 Z M 168.91 114.10 L 169.92 114.09 C 170.81 114.07 171.52 113.35 171.50 112.46 C 171.49 111.57 170.77 110.86 169.88 110.87 L 168.87 110.89 C 167.98 110.90 167.27 111.63 167.29 112.51 C 167.30 113.40 168.02 114.11 168.91 114.10 Z M 169.91 114.08 L 170.91 114.07 C 171.79 114.06 172.50 113.34 172.50 112.46 C 172.49 111.58 171.77 110.87 170.89 110.87 L 169.89 110.88 C 169.00 110.89 168.29 111.61 168.30 112.49 C 168.31 113.37 169.03 114.08 169.91 114.08 Z M 170.90 114.06 L 171.90 114.06 C 172.78 114.06 173.49 113.34 173.48 112.46 C 173.48 111.58 172.76 110.87 171.89 110.88 L 170.89 110.88 C 170.01 110.88 169.30 111.60 169.31 112.48 C 169.31 113.36 170.03 114.07 170.90 114.06 Z M 171.89 114.05 L 172.88 114.05 C 173.75 114.05 174.46 113.34 174.46 112.47 C 174.46 111.59 173.75 110.88 172.87 110.88 L 171.89 110.88 C 171.01 110.89 170.31 111.60 170.31 112.47 C 170.31 113.34 171.02 114.05 171.89 114.05 Z M 172.88 114.04 L 173.86 114.04 C 174.73 114.04 175.44 113.34 175.44 112.47 C 175.44 111.60 174.73 110.89 173.86 110.89 L 172.88 110.89 C 172.00 110.89 171.30 111.60 171.30 112.47 C 171.30 113.34 172.00 114.04 172.88 114.04 Z M 173.86 114.04 L 174.88 114.04 C 175.75 114.04 176.45 113.34 176.45 112.47 C 176.45 111.60 175.75 110.89 174.88 110.89 L 173.86 110.89 C 172.99 110.89 172.29 111.60 172.29 112.47 C 172.29 113.34 172.99 114.04 173.86 114.04 Z M 174.88 114.04 L 175.89 114.04 C 176.75 114.04 177.46 113.33 177.46 112.47 C 177.46 111.60 176.75 110.90 175.89 110.90 L 174.88 110.90 C 174.01 110.90 173.31 111.60 173.31 112.47 C 173.31 113.33 174.01 114.04 174.88 114.04 Z M 175.89 114.04 L 176.89 114.04 C 177.75 114.04 178.45 113.33 178.45 112.47 C 178.45 111.60 177.75 110.90 176.89 110.90 L 175.89 110.90 C 175.02 110.90 174.32 111.60 174.32 112.47 C 174.32 113.33 175.02 114.04 175.89 114.04 Z M 176.89 114.03 L 177.88 114.03 C 178.75 114.03 179.45 113.33 179.45 112.47 C 179.45 111.60 178.75 110.90 177.88 110.90 L 176.89 110.90 C 176.02 110.90 175.32 111.60 175.32 112.47 C 175.32 113.33 176.02 114.03 176.89 114.03 Z M 177.88 114.03 L 178.87 114.03 C 179.74 114.03 180.44 113.33 180.44 112.47 C 180.44 111.60 179.74 110.90 178.87 110.90 L 177.88 110.90 C 177.02 110.90 176.32 111.60 176.32 112.47 C 176.32 113.33 177.02 114.03 177.88 114.03 Z M 178.87 114.03 L 179.86 114.03 C 180.72 114.03 181.42 113.33 181.42 112.47 C 181.42 111.60 180.72 110.90 179.86 110.90 L 178.87 110.90 C 178.01 110.90 177.31 111.60 177.31 112.47 C 177.31 113.33 178.01 114.03 178.87 114.03 Z M 179.86 114.03 L 180.09 114.03 C 180.95 114.03 181.65 113.33 181.65 112.47 C 181.65 111.60 180.95 110.91 180.09 110.91 L 179.86 110.91 C 179.00 110.91 178.30 111.60 178.30 112.47 C 178.30 113.33 179.00 114.03 179.86 114.03 Z"
      fill="black"
      fill-rule="nonzero" /><path d="M 89.85 163.46 L 88.92 163.91 C 88.10 164.31 87.75 165.29 88.15 166.11 C 88.55 166.93 89.53 167.28 90.35 166.88 L 91.29 166.43 C 92.11 166.03 92.45 165.04 92.05 164.22 C 91.66 163.40 90.67 163.06 89.85 163.46 Z M 88.87 163.91 L 87.96 164.37 C 87.13 164.79 86.81 165.80 87.23 166.62 C 87.65 167.45 88.66 167.77 89.48 167.35 L 90.39 166.89 C 91.22 166.47 91.54 165.46 91.12 164.63 C 90.70 163.81 89.70 163.49 88.87 163.91 Z M 87.88 164.39 L 87.00 164.89 C 86.19 165.35 85.90 166.38 86.36 167.20 C 86.82 168.01 87.86 168.30 88.67 167.84 L 89.55 167.34 C 90.37 166.88 90.65 165.84 90.19 165.03 C 89.73 164.21 88.70 163.93 87.88 164.39 Z M 86.89 164.93 L 86.07 165.47 C 85.27 166.00 85.05 167.06 85.58 167.85 C 86.10 168.65 87.17 168.87 87.96 168.34 L 88.78 167.80 C 89.58 167.27 89.79 166.21 89.27 165.42 C 88.75 164.62 87.68 164.41 86.89 164.93 Z M 85.92 165.55 L 85.17 166.16 C 84.42 166.76 84.30 167.86 84.91 168.61 C 85.51 169.36 86.61 169.47 87.36 168.87 L 88.11 168.26 C 88.86 167.66 88.97 166.56 88.37 165.81 C 87.76 165.06 86.67 164.95 85.92 165.55 Z M 84.99 166.29 L 84.33 166.97 C 83.66 167.67 83.68 168.79 84.38 169.47 C 85.08 170.14 86.20 170.12 86.87 169.42 L 87.53 168.74 C 88.21 168.04 88.19 166.92 87.49 166.24 C 86.79 165.57 85.67 165.59 84.99 166.29 Z M 84.16 167.15 L 83.60 167.92 C 83.02 168.72 83.20 169.84 84.00 170.41 C 84.80 170.99 85.92 170.81 86.49 170.01 L 87.05 169.24 C 87.63 168.44 87.45 167.33 86.65 166.75 C 85.85 166.17 84.73 166.35 84.16 167.15 Z M 83.47 168.11 L 83.00 168.96 C 82.53 169.83 82.85 170.92 83.73 171.40 C 84.60 171.87 85.69 171.55 86.16 170.68 L 86.63 169.83 C 87.10 168.95 86.78 167.86 85.90 167.39 C 85.03 166.91 83.94 167.24 83.47 168.11 Z M 82.91 169.13 L 82.53 170.04 C 82.15 170.97 82.59 172.03 83.52 172.41 C 84.44 172.79 85.50 172.35 85.88 171.42 L 86.26 170.51 C 86.64 169.58 86.20 168.52 85.28 168.14 C 84.35 167.76 83.29 168.20 82.91 169.13 Z M 82.46 170.18 L 82.16 171.15 C 81.86 172.11 82.39 173.14 83.35 173.44 C 84.31 173.75 85.34 173.21 85.64 172.25 L 85.95 171.28 C 86.25 170.32 85.72 169.29 84.76 168.99 C 83.79 168.69 82.77 169.22 82.46 170.18 Z M 82.11 171.26 L 81.87 172.27 C 81.63 173.26 82.23 174.26 83.22 174.50 C 84.21 174.74 85.21 174.13 85.45 173.14 L 85.69 172.14 C 85.93 171.15 85.33 170.15 84.34 169.91 C 83.35 169.67 82.35 170.28 82.11 171.26 Z M 81.84 172.36 L 81.64 173.36 C 81.45 174.37 82.11 175.34 83.12 175.53 C 84.12 175.73 85.09 175.07 85.29 174.06 L 85.48 173.06 C 85.67 172.05 85.01 171.08 84.01 170.89 C 83.00 170.69 82.03 171.35 81.84 172.36 Z M 81.62 173.43 L 81.48 174.37 C 81.32 175.39 82.02 176.34 83.04 176.50 C 84.05 176.66 85.00 175.96 85.16 174.94 L 85.31 174.00 C 85.46 172.98 84.77 172.03 83.75 171.87 C 82.73 171.71 81.78 172.41 81.62 173.43 Z M 81.46 174.43 L 81.34 175.39 C 81.22 176.42 81.95 177.35 82.97 177.48 C 84.00 177.60 84.93 176.88 85.06 175.85 L 85.18 174.89 C 85.30 173.86 84.57 172.93 83.55 172.80 C 82.52 172.67 81.59 173.40 81.46 174.43 Z M 81.33 175.44 L 81.24 176.42 C 81.14 177.46 81.89 178.37 82.93 178.47 C 83.96 178.57 84.88 177.82 84.98 176.78 L 85.07 175.80 C 85.17 174.77 84.41 173.85 83.38 173.75 C 82.35 173.65 81.43 174.41 81.33 175.44 Z M 81.23 176.47 L 81.15 177.47 C 81.07 178.51 81.85 179.41 82.89 179.49 C 83.93 179.56 84.84 178.78 84.91 177.75 L 84.99 176.74 C 85.06 175.70 84.28 174.80 83.24 174.72 C 82.21 174.65 81.30 175.43 81.23 176.47 Z M 81.14 177.50 L 81.09 178.53 C 81.03 179.57 81.83 180.47 82.87 180.52 C 83.92 180.58 84.81 179.78 84.87 178.74 L 84.92 177.71 C 84.98 176.67 84.18 175.77 83.14 175.72 C 82.09 175.66 81.20 176.46 81.14 177.50 Z M 81.08 178.56 L 81.03 179.61 C 80.99 180.66 81.81 181.54 82.86 181.58 C 83.91 181.62 84.79 180.81 84.83 179.76 L 84.87 178.71 C 84.92 177.66 84.10 176.78 83.05 176.74 C 82.00 176.69 81.12 177.51 81.08 178.56 Z M 81.03 179.63 L 81.00 180.60 C 80.97 181.65 81.80 182.53 82.85 182.56 C 83.90 182.59 84.78 181.76 84.81 180.71 L 84.84 179.74 C 84.87 178.69 84.04 177.81 82.99 177.78 C 81.94 177.75 81.06 178.58 81.03 179.63 Z M 81.00 180.62 L 80.98 181.59 C 80.97 182.64 81.81 183.51 82.86 183.53 C 83.92 183.54 84.78 182.70 84.80 181.64 L 84.82 180.68 C 84.83 179.63 83.99 178.76 82.93 178.74 C 81.88 178.73 81.01 179.57 81.00 180.62 Z M 80.98 181.62 L 80.98 182.60 C 80.98 183.66 81.84 184.51 82.90 184.51 C 83.96 184.51 84.81 183.65 84.81 182.59 L 84.80 181.61 C 84.80 180.55 83.94 179.70 82.88 179.70 C 81.83 179.71 80.97 180.56 80.98 181.62 Z M 80.98 182.65 L 81.00 183.64 C 81.03 184.70 81.91 185.54 82.97 185.51 C 84.03 185.48 84.87 184.60 84.84 183.54 L 84.81 182.54 C 84.78 181.48 83.90 180.65 82.84 180.68 C 81.78 180.71 80.95 181.59 80.98 182.65 Z M 81.00 183.69 L 81.06 184.70 C 81.11 185.76 82.02 186.58 83.08 186.52 C 84.14 186.46 84.95 185.55 84.90 184.49 L 84.84 183.48 C 84.78 182.42 83.88 181.61 82.82 181.67 C 81.76 181.73 80.94 182.63 81.00 183.69 Z M 81.06 184.77 L 81.15 185.79 C 81.24 186.85 82.17 187.63 83.23 187.54 C 84.29 187.45 85.08 186.51 84.98 185.45 L 84.89 184.43 C 84.80 183.37 83.87 182.59 82.81 182.68 C 81.75 182.77 80.96 183.71 81.06 184.77 Z M 81.15 185.86 L 81.28 186.89 C 81.41 187.95 82.37 188.70 83.43 188.57 C 84.49 188.43 85.24 187.47 85.11 186.41 L 84.98 185.38 C 84.85 184.32 83.88 183.57 82.83 183.70 C 81.77 183.83 81.02 184.80 81.15 185.86 Z M 81.28 186.97 L 81.45 187.97 C 81.63 189.02 82.62 189.73 83.68 189.56 C 84.73 189.38 85.44 188.39 85.27 187.33 L 85.10 186.33 C 84.93 185.28 83.93 184.57 82.88 184.74 C 81.82 184.92 81.11 185.91 81.28 186.97 Z M 81.46 188.04 L 81.66 188.99 C 81.87 190.03 82.90 190.71 83.95 190.49 C 84.99 190.27 85.67 189.25 85.45 188.20 L 85.26 187.26 C 85.04 186.21 84.01 185.54 82.97 185.75 C 81.92 185.97 81.25 186.99 81.46 188.04 Z M 81.67 189.06 L 81.90 190.00 C 82.16 191.04 83.21 191.68 84.25 191.42 C 85.29 191.17 85.93 190.12 85.67 189.08 L 85.44 188.13 C 85.18 187.09 84.13 186.45 83.09 186.71 C 82.05 186.97 81.42 188.02 81.67 189.06 Z M 81.92 190.07 L 82.19 191.02 C 82.48 192.05 83.56 192.65 84.59 192.36 C 85.62 192.06 86.22 190.99 85.92 189.96 L 85.65 189.01 C 85.36 187.98 84.29 187.38 83.26 187.67 C 82.22 187.97 81.63 189.04 81.92 190.07 Z M 82.21 191.09 L 82.51 192.04 C 82.84 193.06 83.94 193.62 84.96 193.29 C 85.98 192.96 86.54 191.87 86.21 190.84 L 85.91 189.89 C 85.58 188.87 84.48 188.31 83.46 188.64 C 82.44 188.97 81.88 190.06 82.21 191.09 Z M 82.53 192.10 L 82.88 193.05 C 83.24 194.06 84.35 194.58 85.36 194.22 C 86.38 193.86 86.90 192.74 86.54 191.73 L 86.19 190.78 C 85.83 189.77 84.72 189.25 83.70 189.61 C 82.69 189.97 82.17 191.09 82.53 192.10 Z M 82.90 193.11 L 83.27 194.06 C 83.67 195.06 84.80 195.55 85.80 195.15 C 86.80 194.75 87.29 193.62 86.89 192.62 L 86.52 191.67 C 86.12 190.67 84.99 190.18 83.99 190.58 C 82.99 190.98 82.50 192.11 82.90 193.11 Z M 83.29 194.12 L 83.71 195.06 C 84.13 196.05 85.28 196.50 86.27 196.07 C 87.26 195.64 87.71 194.49 87.28 193.51 L 86.87 192.56 C 86.44 191.57 85.29 191.12 84.30 191.55 C 83.32 191.98 82.86 193.13 83.29 194.12 Z M 83.73 195.12 L 84.17 196.05 C 84.63 197.02 85.79 197.44 86.77 196.98 C 87.74 196.52 88.16 195.36 87.70 194.38 L 87.26 193.45 C 86.80 192.47 85.63 192.06 84.66 192.52 C 83.68 192.98 83.27 194.14 83.73 195.12 Z M 84.19 196.10 L 84.64 196.98 C 85.13 197.94 86.31 198.32 87.27 197.83 C 88.23 197.34 88.61 196.17 88.12 195.21 L 87.67 194.33 C 87.18 193.37 86.01 192.98 85.05 193.47 C 84.08 193.96 83.70 195.14 84.19 196.10 Z M 84.67 197.03 L 85.14 197.90 C 85.66 198.85 86.85 199.20 87.80 198.68 C 88.75 198.16 89.09 196.97 88.57 196.02 L 88.10 195.15 C 87.58 194.20 86.39 193.86 85.44 194.38 C 84.49 194.90 84.15 196.09 84.67 197.03 Z M 85.17 197.96 L 85.68 198.82 C 86.23 199.75 87.43 200.06 88.36 199.51 C 89.29 198.96 89.60 197.76 89.05 196.82 L 88.55 195.97 C 88.00 195.03 86.79 194.73 85.86 195.28 C 84.93 195.83 84.62 197.03 85.17 197.96 Z M 85.71 198.87 L 86.25 199.72 C 86.83 200.63 88.04 200.90 88.95 200.32 C 89.87 199.74 90.14 198.53 89.56 197.61 L 89.02 196.77 C 88.44 195.85 87.23 195.58 86.31 196.17 C 85.40 196.75 85.13 197.96 85.71 198.87 Z M 86.28 199.78 L 86.85 200.60 C 87.46 201.50 88.68 201.73 89.58 201.11 C 90.47 200.50 90.70 199.28 90.09 198.38 L 89.52 197.56 C 88.91 196.66 87.69 196.43 86.79 197.05 C 85.90 197.66 85.67 198.88 86.28 199.78 Z M 86.89 200.66 L 87.49 201.47 C 88.13 202.34 89.36 202.53 90.24 201.88 C 91.11 201.24 91.29 200.00 90.65 199.13 L 90.05 198.32 C 89.40 197.45 88.17 197.27 87.30 197.91 C 86.43 198.56 86.24 199.79 86.89 200.66 Z M 87.53 201.53 L 88.16 202.32 C 88.84 203.17 90.08 203.30 90.92 202.62 C 91.77 201.95 91.91 200.71 91.23 199.86 L 90.60 199.07 C 89.93 198.22 88.69 198.08 87.84 198.76 C 86.99 199.44 86.85 200.68 87.53 201.53 Z M 88.21 202.38 L 88.87 203.14 C 89.58 203.96 90.82 204.05 91.65 203.34 C 92.47 202.62 92.56 201.38 91.84 200.56 L 91.18 199.80 C 90.47 198.97 89.23 198.88 88.40 199.60 C 87.58 200.31 87.49 201.55 88.21 202.38 Z M 88.92 203.20 L 89.63 203.95 C 90.38 204.75 91.62 204.78 92.42 204.04 C 93.21 203.29 93.25 202.04 92.50 201.25 L 91.79 200.49 C 91.04 199.70 89.79 199.66 89.00 200.41 C 88.21 201.16 88.17 202.41 88.92 203.20 Z M 89.68 204.01 L 90.45 204.76 C 91.23 205.52 92.48 205.51 93.24 204.72 C 94.01 203.94 93.99 202.69 93.21 201.93 L 92.44 201.19 C 91.66 200.42 90.41 200.44 89.65 201.22 C 88.89 202.00 88.90 203.25 89.68 204.01 Z M 90.50 204.81 L 91.29 205.52 C 92.10 206.26 93.35 206.19 94.09 205.38 C 94.82 204.57 94.75 203.32 93.94 202.59 L 93.15 201.88 C 92.34 201.15 91.09 201.21 90.36 202.02 C 89.63 202.83 89.69 204.08 90.50 204.81 Z M 91.34 205.57 L 92.14 206.25 C 92.98 206.95 94.23 206.84 94.93 206.00 C 95.64 205.16 95.53 203.92 94.69 203.21 L 93.89 202.54 C 93.05 201.84 91.80 201.94 91.10 202.78 C 90.40 203.62 90.51 204.87 91.34 205.57 Z M 92.19 206.29 L 93.00 206.92 C 93.86 207.60 95.11 207.45 95.78 206.59 C 96.46 205.73 96.31 204.48 95.45 203.80 L 94.64 203.17 C 93.78 202.49 92.54 202.64 91.86 203.50 C 91.18 204.36 91.33 205.61 92.19 206.29 Z M 93.04 206.96 L 93.85 207.55 C 94.73 208.20 95.97 208.02 96.62 207.13 C 97.27 206.25 97.09 205.01 96.21 204.36 L 95.40 203.77 C 94.52 203.11 93.28 203.30 92.63 204.18 C 91.98 205.06 92.16 206.31 93.04 206.96 Z M 93.89 207.59 L 94.68 208.13 C 95.58 208.76 96.82 208.54 97.44 207.64 C 98.07 206.74 97.85 205.50 96.95 204.87 L 96.16 204.32 C 95.26 203.70 94.02 203.92 93.40 204.82 C 92.77 205.72 92.99 206.96 93.89 207.59 Z M 94.72 208.17 L 95.49 208.67 C 96.40 209.27 97.64 209.02 98.24 208.10 C 98.85 207.18 98.59 205.95 97.67 205.35 L 96.91 204.84 C 95.99 204.24 94.76 204.49 94.15 205.41 C 93.55 206.33 93.80 207.56 94.72 208.17 Z M 95.53 208.70 L 96.32 209.19 C 97.25 209.77 98.48 209.48 99.06 208.55 C 99.64 207.61 99.35 206.39 98.42 205.81 L 97.63 205.32 C 96.70 204.74 95.47 205.02 94.89 205.96 C 94.31 206.89 94.59 208.12 95.53 208.70 Z M 96.37 209.22 L 97.35 209.79 C 98.30 210.34 99.52 210.01 100.07 209.06 C 100.62 208.11 100.30 206.89 99.34 206.34 L 98.37 205.77 C 97.41 205.22 96.19 205.55 95.64 206.50 C 95.09 207.46 95.42 208.67 96.37 209.22 Z M 97.42 209.83 L 98.34 210.31 C 99.31 210.83 100.52 210.45 101.03 209.48 C 101.54 208.50 101.17 207.30 100.20 206.78 L 99.28 206.30 C 98.30 205.79 97.10 206.16 96.58 207.13 C 96.07 208.11 96.44 209.31 97.42 209.83 Z M 98.41 210.35 L 99.29 210.77 C 100.28 211.24 101.47 210.82 101.95 209.83 C 102.42 208.84 102.00 207.65 101.01 207.17 L 100.13 206.75 C 99.13 206.27 97.94 206.70 97.47 207.69 C 96.99 208.68 97.41 209.87 98.41 210.35 Z M 99.36 210.80 L 100.22 211.17 C 101.23 211.61 102.40 211.15 102.84 210.14 C 103.28 209.13 102.81 207.95 101.80 207.51 L 100.94 207.14 C 99.93 206.70 98.76 207.17 98.32 208.18 C 97.88 209.19 98.35 210.36 99.36 210.80 Z M 100.27 211.20 L 101.13 211.54 C 102.15 211.95 103.31 211.45 103.72 210.42 C 104.13 209.40 103.63 208.24 102.61 207.83 L 101.75 207.49 C 100.72 207.08 99.56 207.58 99.16 208.61 C 98.75 209.63 99.25 210.79 100.27 211.20 Z M 101.17 211.55 L 102.05 211.88 C 103.08 212.26 104.23 211.74 104.61 210.71 C 105.00 209.67 104.47 208.52 103.44 208.14 L 102.56 207.81 C 101.53 207.43 100.38 207.96 100.00 208.99 C 99.61 210.02 100.14 211.17 101.17 211.55 Z M 102.08 211.89 L 102.98 212.21 C 104.01 212.58 105.15 212.03 105.52 210.99 C 105.89 209.95 105.34 208.81 104.31 208.45 L 103.41 208.13 C 102.37 207.76 101.23 208.31 100.86 209.34 C 100.49 210.38 101.04 211.52 102.08 211.89 Z M 103.00 212.22 L 103.93 212.53 C 104.97 212.88 106.11 212.32 106.46 211.27 C 106.81 210.23 106.25 209.10 105.20 208.75 L 104.28 208.44 C 103.23 208.08 102.10 208.65 101.75 209.69 C 101.40 210.74 101.96 211.87 103.00 212.22 Z M 103.96 212.54 L 104.91 212.84 C 105.96 213.18 107.08 212.60 107.42 211.55 C 107.75 210.50 107.18 209.38 106.13 209.04 L 105.17 208.74 C 104.13 208.40 103.00 208.98 102.67 210.03 C 102.33 211.08 102.91 212.20 103.96 212.54 Z M 104.94 212.85 L 105.91 213.15 C 106.97 213.47 108.08 212.88 108.40 211.82 C 108.73 210.77 108.13 209.65 107.08 209.33 L 106.10 209.03 C 105.05 208.71 103.93 209.31 103.61 210.36 C 103.29 211.42 103.88 212.53 104.94 212.85 Z M 105.94 213.16 L 106.94 213.45 C 108.00 213.76 109.11 213.15 109.42 212.09 C 109.72 211.03 109.12 209.92 108.06 209.62 L 107.05 209.33 C 105.99 209.02 104.89 209.63 104.58 210.69 C 104.27 211.74 104.88 212.85 105.94 213.16 Z M 106.97 213.46 L 107.94 213.72 C 109.00 214.02 110.10 213.40 110.39 212.33 C 110.69 211.27 110.07 210.17 109.00 209.88 L 108.03 209.61 C 106.97 209.32 105.87 209.94 105.58 211.00 C 105.28 212.06 105.91 213.16 106.97 213.46 Z M 107.96 213.73 L 108.91 213.98 C 109.98 214.26 111.07 213.63 111.35 212.56 C 111.63 211.50 110.99 210.40 109.93 210.12 L 108.98 209.87 C 107.91 209.59 106.82 210.23 106.54 211.29 C 106.26 212.36 106.90 213.45 107.96 213.73 Z M 108.94 213.99 L 109.90 214.23 C 110.97 214.49 112.06 213.84 112.32 212.78 C 112.59 211.71 111.94 210.62 110.87 210.36 L 109.90 210.12 C 108.84 209.85 107.75 210.50 107.49 211.57 C 107.22 212.64 107.87 213.72 108.94 213.99 Z M 109.93 214.23 L 110.91 214.46 C 111.98 214.71 113.06 214.05 113.31 212.98 C 113.56 211.90 112.89 210.83 111.82 210.58 L 110.84 210.35 C 109.77 210.10 108.70 210.77 108.45 211.84 C 108.19 212.91 108.86 213.98 109.93 214.23 Z M 110.94 214.47 L 111.93 214.69 C 113.01 214.92 114.07 214.24 114.30 213.16 C 114.54 212.08 113.85 211.02 112.78 210.79 L 111.79 210.57 C 110.71 210.34 109.65 211.02 109.42 212.10 C 109.18 213.17 109.87 214.24 110.94 214.47 Z M 111.96 214.69 L 112.96 214.89 C 114.04 215.10 115.09 214.40 115.30 213.32 C 115.52 212.24 114.82 211.19 113.74 210.98 L 112.74 210.78 C 111.66 210.57 110.61 211.27 110.40 212.35 C 110.18 213.43 110.88 214.48 111.96 214.69 Z M 113.00 214.90 L 113.99 215.07 C 115.07 215.27 116.11 214.55 116.30 213.46 C 116.50 212.38 115.78 211.35 114.69 211.15 L 113.70 210.97 C 112.62 210.78 111.58 211.50 111.39 212.58 C 111.19 213.67 111.91 214.70 113.00 214.90 Z M 114.03 215.08 L 115.02 215.24 C 116.11 215.41 117.13 214.67 117.30 213.58 C 117.47 212.49 116.73 211.47 115.64 211.30 L 114.65 211.15 C 113.57 210.97 112.55 211.71 112.37 212.80 C 112.20 213.89 112.94 214.91 114.03 215.08 Z M 115.06 215.24 L 116.05 215.38 C 117.13 215.53 118.14 214.77 118.29 213.68 C 118.44 212.59 117.68 211.58 116.59 211.43 L 115.60 211.30 C 114.51 211.15 113.51 211.91 113.36 213.00 C 113.21 214.09 113.97 215.09 115.06 215.24 Z M 116.08 215.38 L 117.07 215.50 C 118.16 215.64 119.15 214.86 119.29 213.77 C 119.42 212.67 118.64 211.68 117.55 211.55 L 116.56 211.43 C 115.47 211.30 114.47 212.08 114.34 213.17 C 114.21 214.26 114.99 215.25 116.08 215.38 Z M 117.10 215.51 L 118.10 215.61 C 119.19 215.72 120.17 214.93 120.28 213.84 C 120.40 212.74 119.60 211.76 118.51 211.65 L 117.52 211.55 C 116.42 211.43 115.44 212.23 115.33 213.32 C 115.21 214.41 116.01 215.39 117.10 215.51 Z M 118.12 215.61 L 119.12 215.70 C 120.22 215.80 121.18 214.99 121.28 213.90 C 121.38 212.80 120.57 211.84 119.48 211.74 L 118.48 211.65 C 117.39 211.55 116.42 212.36 116.32 213.45 C 116.22 214.55 117.03 215.51 118.12 215.61 Z M 119.15 215.70 L 120.15 215.78 C 121.24 215.87 122.20 215.05 122.28 213.95 C 122.37 212.85 121.55 211.90 120.45 211.81 L 119.45 211.74 C 118.36 211.65 117.40 212.47 117.31 213.57 C 117.23 214.66 118.05 215.62 119.15 215.70 Z M 120.17 215.78 L 121.15 215.85 C 122.25 215.92 123.20 215.09 123.27 213.99 C 123.34 212.90 122.51 211.95 121.42 211.88 L 120.43 211.81 C 119.33 211.74 118.39 212.57 118.31 213.67 C 118.24 214.76 119.07 215.71 120.17 215.78 Z M 121.17 215.85 L 122.16 215.90 C 123.25 215.96 124.19 215.12 124.25 214.03 C 124.31 212.93 123.47 211.99 122.38 211.93 L 121.40 211.88 C 120.30 211.82 119.36 212.66 119.30 213.75 C 119.24 214.85 120.08 215.78 121.17 215.85 Z M 122.18 215.90 L 123.17 215.94 C 124.26 216.00 125.19 215.15 125.24 214.05 C 125.29 212.96 124.45 212.03 123.35 211.98 L 122.36 211.93 C 121.27 211.88 120.34 212.73 120.29 213.82 C 120.24 214.92 121.08 215.85 122.18 215.90 Z M 123.18 215.94 L 124.18 215.98 C 125.27 216.02 126.19 215.17 126.24 214.08 C 126.28 212.98 125.43 212.06 124.33 212.02 L 123.33 211.98 C 122.24 211.94 121.32 212.79 121.28 213.89 C 121.24 214.98 122.09 215.90 123.18 215.94 Z M 124.19 215.98 L 125.20 216.01 C 126.29 216.04 127.21 215.19 127.24 214.09 C 127.27 213.00 126.41 212.09 125.32 212.05 L 124.32 212.02 C 123.22 211.99 122.31 212.85 122.28 213.94 C 122.24 215.03 123.10 215.95 124.19 215.98 Z M 125.21 216.01 L 126.23 216.03 C 127.32 216.06 128.22 215.20 128.25 214.10 C 128.28 213.01 127.41 212.11 126.32 212.08 L 125.31 212.05 C 124.22 212.03 123.31 212.89 123.28 213.98 C 123.26 215.08 124.12 215.98 125.21 216.01 Z M 126.24 216.03 L 127.26 216.05 C 128.35 216.07 129.25 215.20 129.27 214.11 C 129.29 213.02 128.42 212.12 127.33 212.10 L 126.31 212.08 C 125.22 212.06 124.32 212.93 124.30 214.02 C 124.28 215.11 125.15 216.01 126.24 216.03 Z M 127.27 216.05 L 128.26 216.06 C 129.34 216.08 130.24 215.20 130.25 214.12 C 130.27 213.03 129.40 212.13 128.31 212.12 L 127.32 212.10 C 126.23 212.09 125.34 212.96 125.32 214.05 C 125.31 215.14 126.18 216.03 127.27 216.05 Z M 128.26 216.06 L 129.26 216.07 C 130.35 216.08 131.24 215.21 131.25 214.12 C 131.26 213.03 130.39 212.14 129.30 212.13 L 128.30 212.12 C 127.21 212.11 126.32 212.98 126.31 214.07 C 126.30 215.16 127.18 216.05 128.26 216.06 Z M 129.27 216.06 L 130.27 216.07 C 131.35 216.08 132.24 215.20 132.25 214.12 C 132.25 213.03 131.38 212.15 130.29 212.14 L 129.29 212.13 C 128.20 212.12 127.32 213.00 127.31 214.09 C 127.30 215.17 128.18 216.06 129.27 216.06 Z M 130.27 216.07 L 131.28 216.07 C 132.36 216.08 133.24 215.20 133.25 214.12 C 133.25 213.03 132.38 212.15 131.29 212.14 L 130.29 212.14 C 129.20 212.14 128.32 213.01 128.32 214.10 C 128.31 215.18 129.19 216.06 130.27 216.07 Z M 131.28 216.07 L 132.28 216.07 C 133.37 216.07 134.25 215.20 134.25 214.11 C 134.25 213.03 133.37 212.15 132.29 212.15 L 131.29 212.15 C 130.20 212.15 129.32 213.02 129.32 214.10 C 129.32 215.19 130.20 216.07 131.28 216.07 Z M 132.29 216.07 L 133.29 216.07 C 134.37 216.07 135.25 215.19 135.25 214.11 C 135.25 213.03 134.38 212.15 133.29 212.15 L 132.29 212.15 C 131.21 212.15 130.33 213.03 130.33 214.11 C 130.33 215.19 131.21 216.07 132.29 216.07 Z M 133.29 216.07 L 134.30 216.07 C 135.38 216.07 136.25 215.19 136.25 214.11 C 136.25 213.03 135.38 212.16 134.30 212.16 L 133.29 212.16 C 132.21 212.16 131.34 213.03 131.34 214.11 C 131.34 215.19 132.21 216.07 133.29 216.07 Z M 134.30 216.06 L 135.32 216.06 C 136.40 216.06 137.27 215.19 137.27 214.11 C 137.27 213.03 136.40 212.16 135.32 212.16 L 134.30 212.16 C 133.22 212.16 132.35 213.03 132.35 214.11 C 132.35 215.19 133.22 216.06 134.30 216.06 Z M 135.32 216.06 L 136.34 216.06 C 137.41 216.06 138.29 215.19 138.29 214.11 C 138.29 213.04 137.41 212.16 136.34 212.16 L 135.32 212.16 C 134.25 212.16 133.37 213.04 133.37 214.11 C 133.37 215.19 134.25 216.06 135.32 216.06 Z M 136.34 216.05 L 137.35 216.05 C 138.42 216.05 139.29 215.18 139.29 214.11 C 139.29 213.04 138.42 212.17 137.35 212.17 L 136.34 212.17 C 135.27 212.17 134.40 213.04 134.40 214.11 C 134.40 215.18 135.27 216.05 136.34 216.05 Z M 137.35 216.05 L 138.35 216.05 C 139.42 216.05 140.29 215.18 140.29 214.11 C 140.29 213.04 139.42 212.17 138.35 212.17 L 137.35 212.17 C 136.28 212.17 135.41 213.04 135.41 214.11 C 135.41 215.18 136.28 216.05 137.35 216.05 Z M 138.35 216.05 L 139.34 216.05 C 140.41 216.05 141.27 215.18 141.27 214.11 C 141.27 213.04 140.41 212.18 139.34 212.18 L 138.35 212.18 C 137.28 212.18 136.41 213.04 136.41 214.11 C 136.41 215.18 137.28 216.05 138.35 216.05 Z M 139.34 216.04 L 140.32 216.04 C 141.38 216.04 142.25 215.18 142.25 214.11 C 142.25 213.05 141.38 212.18 140.32 212.18 L 139.34 212.18 C 138.27 212.18 137.41 213.05 137.41 214.11 C 137.41 215.18 138.27 216.04 139.34 216.04 Z M 140.32 216.04 L 141.30 216.04 C 142.36 216.04 143.23 215.17 143.23 214.11 C 143.23 213.05 142.36 212.19 141.30 212.19 L 140.32 212.19 C 139.25 212.19 138.39 213.05 138.39 214.11 C 138.39 215.17 139.25 216.04 140.32 216.04 Z M 141.30 216.03 L 142.31 216.03 C 143.37 216.03 144.23 215.17 144.23 214.11 C 144.23 213.05 143.37 212.19 142.31 212.19 L 141.30 212.19 C 140.24 212.19 139.38 213.05 139.38 214.11 C 139.38 215.17 140.24 216.03 141.30 216.03 Z M 142.31 216.03 L 143.31 216.03 C 144.37 216.03 145.23 215.17 145.23 214.11 C 145.23 213.05 144.37 212.19 143.31 212.19 L 142.31 212.19 C 141.25 212.19 140.40 213.05 140.40 214.11 C 140.40 215.17 141.25 216.03 142.31 216.03 Z M 143.31 216.02 L 144.31 216.02 C 145.36 216.02 146.22 215.17 146.22 214.11 C 146.22 213.06 145.36 212.20 144.31 212.20 L 143.31 212.20 C 142.26 212.20 141.40 213.06 141.40 214.11 C 141.40 215.17 142.26 216.02 143.31 216.02 Z M 144.31 216.02 L 145.30 216.02 C 146.35 216.02 147.21 215.16 147.21 214.11 C 147.21 213.06 146.35 212.20 145.30 212.20 L 144.31 212.20 C 143.25 212.20 142.40 213.06 142.40 214.11 C 142.40 215.16 143.25 216.02 144.31 216.02 Z M 145.30 216.01 L 146.29 216.01 C 147.34 216.01 148.19 215.16 148.19 214.11 C 148.19 213.06 147.34 212.21 146.29 212.21 L 145.30 212.21 C 144.25 212.21 143.40 213.06 143.40 214.11 C 143.40 215.16 144.25 216.01 145.30 216.01 Z M 146.29 216.01 L 147.29 216.01 C 148.34 216.01 149.19 215.16 149.19 214.11 C 149.19 213.06 148.34 212.21 147.29 212.21 L 146.29 212.21 C 145.25 212.21 144.40 213.06 144.40 214.11 C 144.40 215.16 145.25 216.01 146.29 216.01 Z M 147.29 216.00 L 148.32 216.00 C 149.36 216.00 150.21 215.16 150.21 214.11 C 150.21 213.07 149.36 212.22 148.32 212.22 L 147.29 212.22 C 146.25 212.22 145.40 213.07 145.40 214.11 C 145.40 215.16 146.25 216.00 147.29 216.00 Z M 148.32 216.00 L 149.34 216.00 C 150.38 215.99 151.23 215.15 151.23 214.11 C 151.23 213.07 150.38 212.22 149.34 212.22 L 148.31 212.23 C 147.27 212.23 146.43 213.07 146.43 214.11 C 146.43 215.15 147.28 216.00 148.32 216.00 Z M 149.35 215.99 L 150.37 215.99 C 151.40 215.98 152.24 215.14 152.24 214.10 C 152.24 213.06 151.39 212.22 150.36 212.23 L 149.34 212.23 C 148.30 212.23 147.46 213.08 147.46 214.12 C 147.46 215.15 148.31 215.99 149.35 215.99 Z M 150.37 215.98 L 151.38 215.98 C 152.41 215.97 153.25 215.13 153.24 214.09 C 153.24 213.06 152.39 212.22 151.36 212.23 L 150.35 212.23 C 149.32 212.24 148.48 213.08 148.49 214.12 C 148.49 215.15 149.34 215.99 150.37 215.98 Z M 151.39 215.97 L 152.37 215.96 C 153.40 215.95 154.23 215.11 154.22 214.08 C 154.21 213.04 153.37 212.22 152.34 212.22 L 151.35 212.23 C 150.32 212.24 149.49 213.09 149.50 214.12 C 149.51 215.15 150.35 215.98 151.39 215.97 Z M 152.38 215.95 L 153.34 215.94 C 154.37 215.93 155.19 215.08 155.18 214.05 C 155.16 213.03 154.32 212.20 153.29 212.22 L 152.33 212.23 C 151.30 212.25 150.48 213.09 150.49 214.12 C 150.51 215.15 151.35 215.97 152.38 215.95 Z M 153.35 215.94 L 154.21 215.92 C 155.24 215.90 156.05 215.05 156.03 214.03 C 156.01 213.00 155.16 212.19 154.14 212.21 L 153.28 212.22 C 152.25 212.24 151.44 213.09 151.46 214.12 C 151.48 215.14 152.33 215.96 153.35 215.94 Z M 154.22 215.91 L 155.05 215.89 C 156.07 215.86 156.87 215.01 156.85 213.99 C 156.82 212.97 155.97 212.16 154.95 212.19 L 154.12 212.21 C 153.10 212.24 152.30 213.09 152.32 214.11 C 152.35 215.13 153.20 215.94 154.22 215.91 Z M 155.06 215.88 L 155.91 215.86 C 156.92 215.82 157.72 214.97 157.69 213.95 C 157.66 212.94 156.81 212.14 155.79 212.17 L 154.94 212.20 C 153.92 212.23 153.12 213.08 153.15 214.10 C 153.19 215.12 154.04 215.92 155.06 215.88 Z M 155.91 215.85 L 156.82 215.82 C 157.84 215.78 158.63 214.93 158.59 213.91 C 158.56 212.90 157.70 212.10 156.69 212.14 L 155.78 212.18 C 154.76 212.21 153.97 213.07 154.01 214.08 C 154.05 215.10 154.90 215.89 155.91 215.85 Z M 156.83 215.81 L 157.83 215.77 C 158.84 215.73 159.63 214.88 159.59 213.86 C 159.55 212.85 158.69 212.07 157.68 212.11 L 156.68 212.15 C 155.67 212.19 154.88 213.04 154.92 214.05 C 154.96 215.07 155.82 215.85 156.83 215.81 Z M 157.83 215.77 L 158.96 215.72 C 159.97 215.67 160.75 214.82 160.71 213.81 C 160.67 212.80 159.82 212.02 158.81 212.06 L 157.68 212.11 C 156.67 212.16 155.89 213.01 155.93 214.02 C 155.97 215.03 156.83 215.81 157.83 215.77 Z M 158.96 215.71 L 160.25 215.66 C 161.26 215.61 162.04 214.76 161.99 213.76 C 161.95 212.75 161.10 211.97 160.09 212.01 L 158.81 212.07 C 157.80 212.11 157.02 212.96 157.06 213.97 C 157.11 214.98 157.96 215.76 158.96 215.71 Z M 160.25 215.65 L 161.28 215.61 C 162.29 215.56 163.06 214.71 163.02 213.71 C 162.97 212.71 162.13 211.93 161.12 211.97 L 160.09 212.02 C 159.09 212.06 158.31 212.91 158.36 213.91 C 158.40 214.92 159.25 215.69 160.25 215.65 Z M 161.28 215.60 L 162.22 215.56 C 163.22 215.52 163.99 214.67 163.95 213.67 C 163.90 212.67 163.06 211.89 162.06 211.94 L 161.12 211.98 C 160.12 212.02 159.35 212.87 159.39 213.87 C 159.43 214.87 160.28 215.65 161.28 215.60 Z M 162.22 215.56 L 163.20 215.51 C 164.20 215.47 164.97 214.63 164.93 213.63 C 164.89 212.63 164.04 211.85 163.04 211.90 L 162.06 211.94 C 161.06 211.98 160.28 212.83 160.33 213.83 C 160.37 214.83 161.22 215.60 162.22 215.56 Z M 163.20 215.51 L 164.22 215.47 C 165.22 215.42 165.99 214.58 165.95 213.58 C 165.91 212.59 165.06 211.81 164.07 211.86 L 163.04 211.90 C 162.05 211.94 161.27 212.79 161.32 213.78 C 161.36 214.78 162.20 215.55 163.20 215.51 Z M 164.22 215.46 L 165.27 215.42 C 166.27 215.38 167.04 214.53 167.00 213.54 C 166.95 212.54 166.11 211.77 165.12 211.81 L 164.07 211.86 C 163.07 211.90 162.30 212.74 162.34 213.74 C 162.39 214.73 163.23 215.51 164.22 215.46 Z M 165.27 215.41 L 166.34 215.37 C 167.33 215.33 168.10 214.49 168.06 213.50 C 168.02 212.50 167.18 211.73 166.18 211.77 L 165.12 211.82 C 164.13 211.86 163.35 212.70 163.40 213.69 C 163.44 214.69 164.28 215.46 165.27 215.41 Z M 166.33 215.37 L 167.40 215.32 C 168.39 215.28 169.16 214.44 169.12 213.45 C 169.08 212.46 168.24 211.69 167.25 211.73 L 166.19 211.78 C 165.19 211.82 164.42 212.65 164.46 213.65 C 164.51 214.64 165.34 215.41 166.33 215.37 Z M 167.40 215.32 L 168.46 215.28 C 169.45 215.24 170.22 214.40 170.18 213.41 C 170.14 212.42 169.30 211.65 168.31 211.69 L 167.26 211.74 C 166.27 211.78 165.50 212.61 165.54 213.60 C 165.58 214.59 166.41 215.36 167.40 215.32 Z M 168.46 215.27 L 169.49 215.23 C 170.48 215.19 171.25 214.36 171.21 213.37 C 171.17 212.39 170.34 211.62 169.35 211.65 L 168.32 211.70 C 167.33 211.73 166.56 212.57 166.60 213.55 C 166.64 214.54 167.47 215.31 168.46 215.27 Z M 169.49 215.23 L 170.49 215.19 C 171.48 215.15 172.25 214.32 172.21 213.34 C 172.17 212.35 171.34 211.58 170.36 211.62 L 169.36 211.66 C 168.37 211.70 167.60 212.53 167.64 213.51 C 167.68 214.50 168.50 215.27 169.49 215.23 Z M 170.49 215.19 L 171.45 215.15 C 172.43 215.12 173.20 214.29 173.16 213.31 C 173.13 212.32 172.30 211.55 171.32 211.59 L 170.36 211.62 C 169.38 211.66 168.61 212.49 168.64 213.47 C 168.68 214.45 169.51 215.22 170.49 215.19 Z M 171.44 215.15 L 172.34 215.12 C 173.32 215.08 174.09 214.26 174.06 213.28 C 174.03 212.30 173.20 211.53 172.22 211.56 L 171.32 211.59 C 170.34 211.63 169.57 212.45 169.60 213.43 C 169.64 214.41 170.46 215.18 171.44 215.15 Z M 172.34 215.11 L 173.55 215.07 C 174.52 215.04 175.29 214.23 175.26 213.25 C 175.23 212.27 174.42 211.50 173.44 211.53 L 172.23 211.57 C 171.25 211.60 170.48 212.42 170.51 213.39 C 170.54 214.37 171.36 215.14 172.34 215.11 Z M 173.54 215.06 L 174.63 215.03 C 175.60 215.00 176.36 214.20 176.34 213.23 C 176.32 212.26 175.51 211.50 174.54 211.52 L 173.45 211.55 C 172.48 211.57 171.71 212.38 171.74 213.35 C 171.76 214.32 172.57 215.08 173.54 215.06 Z M 174.62 215.01 L 175.62 214.99 C 176.58 214.97 177.34 214.18 177.32 213.22 C 177.30 212.26 176.51 211.50 175.55 211.52 L 174.55 211.54 C 173.59 211.56 172.83 212.35 172.85 213.31 C 172.87 214.27 173.66 215.03 174.62 215.01 Z M 175.61 214.98 L 176.55 214.97 C 177.50 214.95 178.26 214.17 178.25 213.22 C 178.23 212.27 177.45 211.51 176.50 211.52 L 175.56 211.53 C 174.61 211.55 173.85 212.33 173.86 213.28 C 173.88 214.23 174.66 214.99 175.61 214.98 Z M 176.54 214.95 L 177.44 214.94 C 178.39 214.93 179.14 214.16 179.14 213.22 C 179.13 212.28 178.36 211.52 177.41 211.53 L 176.51 211.54 C 175.57 211.54 174.81 212.31 174.82 213.26 C 174.82 214.20 175.59 214.96 176.54 214.95 Z M 177.44 214.93 L 178.34 214.92 C 179.28 214.92 180.03 214.16 180.03 213.22 C 180.02 212.29 179.26 211.54 178.33 211.54 L 177.42 211.54 C 176.49 211.55 175.73 212.31 175.74 213.24 C 175.74 214.18 176.50 214.93 177.44 214.93 Z M 178.34 214.91 L 179.28 214.90 C 180.21 214.90 180.95 214.15 180.95 213.23 C 180.95 212.30 180.20 211.55 179.28 211.55 L 178.33 211.56 C 177.41 211.56 176.66 212.31 176.66 213.23 C 176.66 214.16 177.41 214.91 178.34 214.91 Z M 179.28 214.89 L 180.26 214.89 C 181.18 214.89 181.92 214.15 181.92 213.23 C 181.92 212.31 181.18 211.57 180.26 211.57 L 179.28 211.57 C 178.36 211.57 177.62 212.31 177.62 213.23 C 177.62 214.15 178.36 214.89 179.28 214.89 Z M 180.26 214.88 L 181.13 214.88 C 182.04 214.88 182.78 214.14 182.78 213.23 C 182.78 212.32 182.04 211.58 181.13 211.58 L 180.26 211.58 C 179.35 211.58 178.61 212.32 178.61 213.23 C 178.61 214.14 179.35 214.88 180.26 214.88 Z M 181.13 214.88 L 182.05 214.88 C 182.96 214.88 183.70 214.14 183.70 213.23 C 183.70 212.32 182.96 211.58 182.05 211.58 L 181.13 211.58 C 180.22 211.58 179.48 212.32 179.48 213.23 C 179.48 214.14 180.22 214.88 181.13 214.88 Z M 182.05 214.87 L 183.01 214.87 C 183.92 214.87 184.66 214.14 184.66 213.23 C 184.66 212.32 183.92 211.59 183.01 211.59 L 182.05 211.59 C 181.14 211.59 180.41 212.32 180.41 213.23 C 180.41 214.14 181.14 214.87 182.05 214.87 Z M 183.01 214.87 L 184.01 214.87 C 184.92 214.87 185.65 214.13 185.65 213.23 C 185.65 212.32 184.92 211.59 184.01 211.59 L 183.01 211.59 C 182.11 211.59 181.37 212.32 181.37 213.23 C 181.37 214.13 182.11 214.87 183.01 214.87 Z M 184.01 214.87 L 185.04 214.87 C 185.94 214.87 186.67 214.13 186.67 213.23 C 186.67 212.33 185.94 211.59 185.04 211.59 L 184.01 211.59 C 183.11 211.59 182.38 212.33 182.38 213.23 C 182.38 214.13 183.11 214.87 184.01 214.87 Z M 185.04 214.86 L 186.08 214.86 C 186.98 214.86 187.71 214.13 187.71 213.23 C 187.71 212.33 186.98 211.60 186.08 211.60 L 185.04 211.60 C 184.14 211.60 183.41 212.33 183.41 213.23 C 183.41 214.13 184.14 214.86 185.04 214.86 Z M 186.08 214.86 L 187.14 214.86 C 188.04 214.86 188.77 214.13 188.77 213.23 C 188.77 212.33 188.04 211.60 187.14 211.60 L 186.08 211.60 C 185.18 211.60 184.45 212.33 184.45 213.23 C 184.45 214.13 185.18 214.86 186.08 214.86 Z M 187.14 214.85 L 188.20 214.85 C 189.09 214.85 189.82 214.13 189.82 213.23 C 189.82 212.33 189.09 211.60 188.20 211.60 L 187.14 211.60 C 186.24 211.60 185.51 212.33 185.51 213.23 C 185.51 214.13 186.24 214.85 187.14 214.85 Z M 188.20 214.85 L 189.25 214.85 C 190.14 214.85 190.87 214.12 190.87 213.23 C 190.87 212.33 190.14 211.61 189.25 211.61 L 188.20 211.61 C 187.30 211.61 186.58 212.33 186.58 213.23 C 186.58 214.12 187.30 214.85 188.20 214.85 Z M 189.25 214.85 L 190.31 214.85 C 191.20 214.85 191.93 214.12 191.93 213.23 C 191.93 212.34 191.20 211.61 190.31 211.61 L 189.25 211.61 C 188.36 211.61 187.63 212.34 187.63 213.23 C 187.63 214.12 188.36 214.85 189.25 214.85 Z M 190.31 214.84 L 191.39 214.84 C 192.28 214.84 193.00 214.12 193.00 213.23 C 193.00 212.34 192.28 211.62 191.39 211.62 L 190.31 211.62 C 189.42 211.62 188.70 212.34 188.70 213.23 C 188.70 214.12 189.42 214.84 190.31 214.84 Z M 191.39 214.84 L 192.44 214.84 C 193.33 214.84 194.05 214.12 194.05 213.23 C 194.05 212.34 193.33 211.62 192.44 211.62 L 191.39 211.62 C 190.50 211.62 189.78 212.34 189.78 213.23 C 189.78 214.12 190.50 214.84 191.39 214.84 Z M 192.44 214.83 L 193.48 214.83 C 194.37 214.83 195.08 214.11 195.08 213.23 C 195.08 212.34 194.37 211.63 193.48 211.63 L 192.44 211.63 C 191.56 211.63 190.84 212.34 190.84 213.23 C 190.84 214.11 191.56 214.83 192.44 214.83 Z M 193.48 214.83 L 194.50 214.83 C 195.38 214.83 196.09 214.11 196.09 213.23 C 196.09 212.35 195.38 211.63 194.50 211.63 L 193.48 211.63 C 192.60 211.63 191.88 212.35 191.88 213.23 C 191.88 214.11 192.60 214.83 193.48 214.83 Z M 194.50 214.82 L 195.49 214.82 C 196.37 214.82 197.08 214.11 197.08 213.23 C 197.08 212.35 196.37 211.64 195.49 211.64 L 194.50 211.64 C 193.62 211.64 192.91 212.35 192.91 213.23 C 192.91 214.11 193.62 214.82 194.50 214.82 Z M 195.49 214.82 L 196.47 214.82 C 197.34 214.82 198.05 214.11 198.05 213.23 C 198.05 212.35 197.34 211.64 196.47 211.64 L 195.49 211.64 C 194.62 211.64 193.91 212.35 193.91 213.23 C 193.91 214.11 194.62 214.82 195.49 214.82 Z M 196.47 214.81 L 197.42 214.81 C 198.30 214.81 199.00 214.10 199.00 213.23 C 199.00 212.36 198.30 211.65 197.42 211.65 L 196.47 211.65 C 195.60 211.65 194.89 212.36 194.89 213.23 C 194.89 214.10 195.60 214.81 196.47 214.81 Z M 197.42 214.81 L 198.36 214.81 C 199.23 214.81 199.93 214.10 199.93 213.23 C 199.93 212.36 199.23 211.65 198.36 211.65 L 197.42 211.65 C 196.55 211.65 195.85 212.36 195.85 213.23 C 195.85 214.10 196.55 214.81 197.42 214.81 Z M 198.36 214.80 L 199.28 214.80 C 200.15 214.80 200.86 214.10 200.86 213.23 C 200.86 212.36 200.15 211.66 199.28 211.66 L 198.36 211.66 C 197.49 211.66 196.79 212.36 196.79 213.23 C 196.79 214.10 197.49 214.80 198.36 214.80 Z M 199.28 214.80 L 200.34 214.80 C 201.21 214.80 201.91 214.10 201.91 213.23 C 201.91 212.36 201.21 211.66 200.34 211.66 L 199.28 211.66 C 198.42 211.66 197.72 212.36 197.72 213.23 C 197.72 214.10 198.42 214.80 199.28 214.80 Z M 200.34 214.80 L 201.38 214.80 C 202.24 214.80 202.94 214.09 202.94 213.23 C 202.94 212.36 202.24 211.66 201.38 211.66 L 200.34 211.66 C 199.48 211.66 198.78 212.36 198.78 213.23 C 198.78 214.09 199.48 214.80 200.34 214.80 Z M 201.38 214.80 L 202.39 214.80 C 203.26 214.80 203.96 214.09 203.96 213.23 C 203.96 212.36 203.26 211.66 202.39 211.66 L 201.38 211.66 C 200.51 211.66 199.81 212.36 199.81 213.23 C 199.81 214.09 200.51 214.80 201.38 214.80 Z M 202.39 214.79 L 203.39 214.79 C 204.25 214.79 204.95 214.09 204.95 213.23 C 204.95 212.36 204.25 211.66 203.39 211.66 L 202.39 211.66 C 201.53 211.66 200.83 212.36 200.83 213.23 C 200.83 214.09 201.53 214.79 202.39 214.79 Z M 203.39 214.79 L 204.37 214.79 C 205.23 214.79 205.93 214.09 205.93 213.23 C 205.93 212.37 205.23 211.67 204.37 211.67 L 203.39 211.67 C 202.52 211.67 201.82 212.37 201.82 213.23 C 201.82 214.09 202.52 214.79 203.39 214.79 Z M 204.37 214.79 L 205.34 214.79 C 206.20 214.79 206.90 214.09 206.90 213.23 C 206.90 212.37 206.20 211.67 205.34 211.67 L 204.37 211.67 C 203.50 211.67 202.80 212.37 202.80 213.23 C 202.80 214.09 203.50 214.79 204.37 214.79 Z M 205.34 214.79 L 206.30 214.79 C 207.17 214.79 207.87 214.09 207.87 213.23 C 207.87 212.37 207.17 211.67 206.30 211.67 L 205.34 211.67 C 204.48 211.67 203.78 212.37 203.78 213.23 C 203.78 214.09 204.48 214.79 205.34 214.79 Z M 206.30 214.79 L 206.99 214.79 C 207.85 214.79 208.55 214.09 208.55 213.23 C 208.55 212.37 207.85 211.67 206.99 211.67 L 206.30 211.67 C 205.44 211.67 204.74 212.37 204.74 213.23 C 204.74 214.09 205.44 214.79 206.30 214.79 Z"
      fill="black"
      fill-rule="nonzero" /></svg>