<svg xmlns="http://www.w3.org/2000/svg" width="300" height="300" viewBox="0 0 300 300">
<path d="M 146.05 75.00 L 145.01 75.18 C 144.05 75.34 143.40 76.26 143.57 77.23 C 143.73 78.20 144.65 78.84 145.62 78.68 L 146.65 78.50 C 147.62 78.33 148.27 77.41 148.10 76.45 C 147.93 75.48 147.02 74.83 146.05 75.00 Z M 144.95 75.17 L 143.94 75.39 C 142.97 75.59 142.35 76.54 142.55 77.51 C 142.76 78.48 143.71 79.10 144.67 78.89 L 145.68 78.68 C 146.65 78.48 147.27 77.53 147.07 76.56 C 146.87 75.59 145.92 74.97 144.95 75.17 Z M 143.80 75.41 L 142.84 75.68 C 141.88 75.96 141.33 76.97 141.61 77.92 C 141.89 78.88 142.89 79.43 143.85 79.15 L 144.81 78.87 C 145.77 78.60 146.32 77.59 146.04 76.64 C 145.76 75.68 144.76 75.13 143.80 75.41 Z M 142.63 75.74 L 141.74 76.12 C 140.82 76.52 140.39 77.59 140.79 78.52 C 141.18 79.44 142.25 79.87 143.18 79.47 L 144.06 79.09 C 144.99 78.70 145.42 77.63 145.02 76.70 C 144.62 75.78 143.55 75.35 142.63 75.74 Z M 141.45 76.26 L 140.67 76.78 C 139.82 77.33 139.58 78.47 140.14 79.32 C 140.69 80.17 141.83 80.41 142.68 79.85 L 143.47 79.34 C 144.32 78.78 144.55 77.64 144.00 76.79 C 143.44 75.94 142.30 75.71 141.45 76.26 Z M 140.37 77.01 L 139.72 77.65 C 139.00 78.38 139.01 79.55 139.73 80.27 C 140.45 80.99 141.62 80.98 142.34 80.26 L 142.98 79.62 C 143.70 78.89 143.70 77.72 142.98 77.00 C 142.26 76.28 141.09 76.29 140.37 77.01 Z M 139.52 77.90 L 138.98 78.67 C 138.39 79.51 138.60 80.66 139.43 81.25 C 140.27 81.83 141.42 81.63 142.01 80.79 L 142.55 80.02 C 143.13 79.18 142.93 78.03 142.09 77.44 C 141.26 76.86 140.10 77.06 139.52 77.90 Z M 138.86 78.87 L 138.39 79.75 C 137.92 80.65 138.26 81.77 139.16 82.24 C 140.07 82.72 141.19 82.38 141.66 81.47 L 142.13 80.60 C 142.60 79.69 142.26 78.57 141.36 78.10 C 140.45 77.62 139.33 77.96 138.86 78.87 Z M 138.33 79.88 L 137.92 80.84 C 137.52 81.78 137.96 82.86 138.90 83.26 C 139.84 83.66 140.92 83.23 141.32 82.29 L 141.73 81.33 C 142.13 80.39 141.69 79.31 140.75 78.91 C 139.81 78.51 138.73 78.94 138.33 79.88 Z M 137.89 80.92 L 137.52 81.92 C 137.16 82.88 137.65 83.94 138.61 84.30 C 139.57 84.65 140.63 84.16 140.99 83.20 L 141.36 82.20 C 141.71 81.24 141.22 80.18 140.26 79.82 C 139.30 79.47 138.24 79.96 137.89 80.92 Z M 137.50 81.95 L 137.18 82.89 C 136.84 83.86 137.35 84.92 138.32 85.25 C 139.29 85.59 140.34 85.07 140.68 84.11 L 141.00 83.17 C 141.34 82.20 140.83 81.15 139.86 80.81 C 138.89 80.48 137.84 80.99 137.50 81.95 Z M 137.17 82.91 L 136.87 83.81 C 136.54 84.77 137.06 85.83 138.02 86.16 C 138.99 86.48 140.04 85.97 140.37 85.00 L 140.68 84.10 C 141.01 83.13 140.49 82.08 139.52 81.75 C 138.55 81.42 137.50 81.94 137.17 82.91 Z M 136.87 83.81 L 136.56 84.73 C 136.23 85.69 136.75 86.75 137.72 87.07 C 138.69 87.40 139.74 86.88 140.07 85.91 L 140.37 84.99 C 140.70 84.03 140.18 82.97 139.21 82.65 C 138.24 82.32 137.19 82.84 136.87 83.81 Z M 136.56 84.72 L 136.24 85.66 C 135.91 86.63 136.43 87.68 137.39 88.01 C 138.36 88.34 139.42 87.82 139.74 86.85 L 140.06 85.92 C 140.39 84.95 139.88 83.89 138.91 83.57 C 137.94 83.24 136.89 83.75 136.56 84.72 Z M 136.24 85.65 L 135.91 86.62 C 135.57 87.58 136.08 88.64 137.05 88.97 C 138.02 89.31 139.07 88.79 139.41 87.83 L 139.74 86.86 C 140.08 85.90 139.56 84.84 138.60 84.51 C 137.63 84.17 136.58 84.68 136.24 85.65 Z M 135.91 86.60 L 135.56 87.60 C 135.21 88.56 135.72 89.62 136.68 89.96 C 137.64 90.31 138.70 89.81 139.05 88.84 L 139.40 87.84 C 139.74 86.88 139.24 85.82 138.28 85.48 C 137.32 85.13 136.26 85.64 135.91 86.60 Z M 135.56 87.58 L 135.23 88.50 C 134.87 89.46 135.36 90.52 136.32 90.87 C 137.28 91.23 138.35 90.73 138.70 89.78 L 139.04 88.86 C 139.39 87.90 138.90 86.84 137.94 86.48 C 136.98 86.13 135.92 86.62 135.56 87.58 Z M 135.23 88.48 L 134.91 89.32 C 134.55 90.28 135.03 91.35 135.99 91.71 C 136.94 92.07 138.01 91.59 138.38 90.63 L 138.69 89.79 C 139.06 88.84 138.58 87.77 137.62 87.40 C 136.66 87.04 135.60 87.52 135.23 88.48 Z M 134.92 89.31 L 134.58 90.18 C 134.21 91.13 134.69 92.20 135.64 92.57 C 136.59 92.94 137.66 92.47 138.03 91.52 L 138.37 90.65 C 138.74 89.69 138.27 88.62 137.31 88.25 C 136.36 87.88 135.29 88.36 134.92 89.31 Z M 134.59 90.17 L 134.23 91.07 C 133.86 92.02 134.32 93.09 135.27 93.47 C 136.22 93.84 137.29 93.38 137.67 92.43 L 138.03 91.53 C 138.40 90.58 137.94 89.50 136.99 89.13 C 136.04 88.75 134.96 89.22 134.59 90.17 Z M 134.24 91.06 L 133.86 91.99 C 133.48 92.93 133.94 94.01 134.89 94.39 C 135.83 94.77 136.91 94.31 137.29 93.37 L 137.67 92.44 C 138.05 91.49 137.59 90.41 136.64 90.03 C 135.69 89.65 134.62 90.11 134.24 91.06 Z M 133.87 91.98 L 133.47 92.94 C 133.09 93.89 133.54 94.97 134.48 95.35 C 135.43 95.74 136.51 95.28 136.89 94.34 L 137.29 93.38 C 137.67 92.43 137.22 91.35 136.27 90.97 C 135.33 90.58 134.25 91.04 133.87 91.98 Z M 133.48 92.94 L 133.06 93.93 C 132.68 94.88 133.12 95.95 134.07 96.34 C 135.01 96.73 136.09 96.28 136.48 95.34 L 136.89 94.35 C 137.28 93.40 136.83 92.32 135.89 91.93 C 134.95 91.55 133.87 91.99 133.48 92.94 Z M 133.07 93.93 L 132.64 94.96 C 132.25 95.90 132.69 96.98 133.63 97.37 C 134.57 97.77 135.65 97.32 136.04 96.38 L 136.47 95.35 C 136.87 94.41 136.42 93.33 135.48 92.93 C 134.54 92.54 133.46 92.99 133.07 93.93 Z M 132.64 94.96 L 132.24 95.91 C 131.85 96.85 132.29 97.93 133.23 98.32 C 134.17 98.71 135.25 98.27 135.64 97.33 L 136.04 96.38 C 136.44 95.44 135.99 94.36 135.05 93.97 C 134.12 93.58 133.03 94.02 132.64 94.96 Z M 132.25 95.90 L 131.85 96.85 C 131.45 97.79 131.89 98.87 132.83 99.26 C 133.76 99.66 134.84 99.22 135.24 98.28 L 135.64 97.34 C 136.03 96.40 135.60 95.32 134.66 94.92 C 133.72 94.53 132.64 94.97 132.25 95.90 Z M 131.85 96.85 L 131.44 97.80 C 131.05 98.74 131.48 99.82 132.42 100.22 C 133.35 100.61 134.43 100.18 134.83 99.24 L 135.24 98.29 C 135.63 97.35 135.20 96.27 134.26 95.87 C 133.33 95.48 132.25 95.91 131.85 96.85 Z M 131.45 97.80 L 131.04 98.76 C 130.64 99.69 131.07 100.77 132.00 101.17 C 132.94 101.57 134.02 101.14 134.42 100.20 L 134.83 99.25 C 135.22 98.31 134.79 97.23 133.86 96.83 C 132.93 96.43 131.85 96.87 131.45 97.80 Z M 131.04 98.76 L 130.63 99.71 C 130.23 100.64 130.66 101.72 131.59 102.12 C 132.52 102.52 133.60 102.09 134.00 101.16 L 134.41 100.21 C 134.81 99.28 134.38 98.20 133.45 97.80 C 132.52 97.39 131.44 97.82 131.04 98.76 Z M 130.63 99.70 L 130.23 100.63 C 129.83 101.56 130.25 102.64 131.18 103.05 C 132.11 103.45 133.19 103.02 133.59 102.10 L 134.00 101.16 C 134.40 100.23 133.98 99.15 133.05 98.75 C 132.12 98.35 131.04 98.77 130.63 99.70 Z M 130.23 100.63 L 129.84 101.53 C 129.43 102.46 129.85 103.54 130.78 103.95 C 131.70 104.35 132.78 103.93 133.19 103.01 L 133.59 102.10 C 133.99 101.17 133.57 100.09 132.65 99.69 C 131.72 99.28 130.64 99.70 130.23 100.63 Z M 129.84 101.53 L 129.46 102.40 C 129.05 103.32 129.46 104.40 130.39 104.81 C 131.31 105.22 132.39 104.80 132.80 103.88 L 133.19 103.01 C 133.60 102.09 133.18 101.01 132.26 100.60 C 131.33 100.19 130.25 100.60 129.84 101.53 Z M 129.46 102.39 L 129.09 103.21 C 128.68 104.13 129.09 105.22 130.01 105.63 C 130.93 106.04 132.01 105.63 132.43 104.71 L 132.80 103.89 C 133.21 102.97 132.80 101.89 131.88 101.47 C 130.96 101.06 129.88 101.47 129.46 102.39 Z M 129.10 103.20 L 128.61 104.26 C 128.19 105.18 128.60 106.26 129.51 106.68 C 130.43 107.10 131.51 106.70 131.93 105.78 L 132.42 104.72 C 132.84 103.81 132.43 102.72 131.52 102.30 C 130.60 101.88 129.52 102.29 129.10 103.20 Z M 128.62 104.25 L 128.16 105.24 C 127.73 106.15 128.12 107.23 129.04 107.66 C 129.95 108.09 131.03 107.70 131.46 106.78 L 131.92 105.80 C 132.35 104.89 131.96 103.80 131.05 103.37 C 130.13 102.95 129.05 103.34 128.62 104.25 Z M 128.17 105.22 L 127.73 106.14 C 127.30 107.04 127.68 108.13 128.59 108.56 C 129.49 109.00 130.58 108.62 131.01 107.71 L 131.45 106.80 C 131.89 105.89 131.50 104.80 130.60 104.37 C 129.69 103.93 128.60 104.32 128.17 105.22 Z M 127.74 106.12 L 127.32 106.98 C 126.88 107.88 127.25 108.97 128.15 109.41 C 129.05 109.85 130.14 109.48 130.59 108.58 L 131.01 107.72 C 131.45 106.82 131.08 105.73 130.17 105.29 C 129.27 104.85 128.18 105.22 127.74 106.12 Z M 127.33 106.96 L 126.92 107.78 C 126.47 108.68 126.84 109.77 127.73 110.22 C 128.63 110.67 129.72 110.30 130.17 109.41 L 130.58 108.59 C 131.03 107.69 130.66 106.60 129.77 106.15 C 128.87 105.70 127.78 106.07 127.33 106.96 Z M 126.93 107.77 L 126.52 108.57 C 126.07 109.46 126.43 110.55 127.32 111.01 C 128.21 111.46 129.31 111.10 129.76 110.21 L 130.16 109.41 C 130.62 108.52 130.26 107.43 129.37 106.98 C 128.47 106.52 127.38 106.88 126.93 107.77 Z M 126.53 108.56 L 126.09 109.41 C 125.64 110.30 125.99 111.40 126.88 111.85 C 127.77 112.31 128.86 111.96 129.32 111.06 L 129.76 110.22 C 130.21 109.32 129.86 108.23 128.97 107.78 C 128.08 107.32 126.98 107.67 126.53 108.56 Z M 126.10 109.41 L 125.64 110.29 C 125.19 111.18 125.53 112.27 126.42 112.73 C 127.31 113.19 128.40 112.84 128.86 111.95 L 129.32 111.07 C 129.78 110.18 129.43 109.09 128.54 108.63 C 127.65 108.17 126.56 108.52 126.10 109.41 Z M 125.65 110.28 L 125.19 111.17 C 124.73 112.05 125.07 113.15 125.96 113.61 C 126.84 114.07 127.94 113.73 128.40 112.84 L 128.86 111.95 C 129.32 111.07 128.98 109.98 128.09 109.51 C 127.20 109.05 126.11 109.40 125.65 110.28 Z M 125.19 111.16 L 124.72 112.05 C 124.26 112.93 124.60 114.03 125.48 114.49 C 126.37 114.96 127.46 114.62 127.93 113.73 L 128.39 112.85 C 128.86 111.96 128.52 110.87 127.64 110.40 C 126.75 109.94 125.66 110.28 125.19 111.16 Z M 124.73 112.04 L 124.25 112.93 C 123.79 113.81 124.12 114.91 125.00 115.38 C 125.88 115.85 126.98 115.51 127.45 114.63 L 127.92 113.74 C 128.39 112.86 128.06 111.76 127.18 111.29 C 126.29 110.82 125.20 111.16 124.73 112.04 Z M 124.26 112.92 L 123.78 113.81 C 123.30 114.69 123.63 115.79 124.51 116.26 C 125.39 116.74 126.49 116.41 126.96 115.53 L 127.44 114.64 C 127.92 113.76 127.59 112.66 126.71 112.19 C 125.83 111.72 124.73 112.04 124.26 112.92 Z M 123.78 113.80 L 123.31 114.68 C 122.83 115.56 123.15 116.65 124.02 117.13 C 124.90 117.61 126.00 117.29 126.48 116.41 L 126.95 115.54 C 127.43 114.66 127.11 113.57 126.24 113.09 C 125.36 112.61 124.26 112.93 123.78 113.80 Z M 123.31 114.67 L 122.83 115.54 C 122.34 116.42 122.66 117.52 123.53 118.00 C 124.40 118.48 125.50 118.17 125.98 117.30 L 126.47 116.42 C 126.95 115.55 126.64 114.45 125.77 113.97 C 124.90 113.48 123.80 113.80 123.31 114.67 Z M 122.83 115.53 L 122.34 116.41 C 121.85 117.27 122.16 118.37 123.03 118.86 C 123.89 119.35 124.99 119.05 125.48 118.18 L 125.98 117.31 C 126.47 116.44 126.16 115.34 125.29 114.85 C 124.42 114.36 123.32 114.67 122.83 115.53 Z M 122.35 116.39 L 121.85 117.26 C 121.35 118.13 121.65 119.23 122.52 119.73 C 123.38 120.22 124.48 119.92 124.98 119.06 L 125.48 118.19 C 125.97 117.33 125.67 116.22 124.81 115.73 C 123.95 115.23 122.84 115.53 122.35 116.39 Z M 121.86 117.25 L 121.35 118.11 C 120.85 118.97 121.14 120.08 122.00 120.58 C 122.86 121.08 123.96 120.79 124.46 119.94 L 124.97 119.07 C 125.47 118.21 125.18 117.11 124.32 116.61 C 123.46 116.10 122.36 116.39 121.86 117.25 Z M 121.36 118.10 L 120.85 118.96 C 120.34 119.82 120.62 120.92 121.47 121.43 C 122.33 121.94 123.43 121.66 123.94 120.81 L 124.46 119.95 C 124.97 119.09 124.69 117.99 123.83 117.48 C 122.98 116.97 121.87 117.25 121.36 118.10 Z M 120.86 118.95 L 120.33 119.81 C 119.81 120.66 120.08 121.77 120.93 122.29 C 121.78 122.80 122.89 122.53 123.41 121.68 L 123.93 120.82 C 124.45 119.97 124.18 118.86 123.33 118.35 C 122.48 117.83 121.37 118.10 120.86 118.95 Z M 120.34 119.80 L 119.81 120.65 C 119.28 121.49 119.54 122.60 120.39 123.13 C 121.23 123.66 122.34 123.40 122.87 122.55 L 123.40 121.70 C 123.92 120.86 123.67 119.75 122.82 119.22 C 121.98 118.69 120.87 118.95 120.34 119.80 Z M 119.82 120.63 L 119.28 121.48 C 118.75 122.32 118.99 123.43 119.83 123.96 C 120.67 124.50 121.78 124.25 122.32 123.41 L 122.86 122.57 C 123.39 121.73 123.14 120.62 122.31 120.08 C 121.47 119.55 120.36 119.80 119.82 120.63 Z M 119.29 121.46 L 118.75 122.30 C 118.21 123.13 118.44 124.24 119.27 124.79 C 120.10 125.33 121.22 125.10 121.76 124.26 L 122.30 123.43 C 122.85 122.60 122.61 121.48 121.78 120.94 C 120.95 120.40 119.84 120.63 119.29 121.46 Z M 118.76 122.28 L 118.21 123.10 C 117.66 123.93 117.88 125.04 118.70 125.60 C 119.52 126.15 120.64 125.93 121.19 125.10 L 121.75 124.28 C 122.30 123.46 122.08 122.34 121.26 121.79 C 120.43 121.24 119.32 121.45 118.76 122.28 Z M 118.22 123.08 L 117.66 123.90 C 117.10 124.71 117.30 125.83 118.12 126.40 C 118.94 126.96 120.05 126.75 120.62 125.94 L 121.18 125.12 C 121.74 124.31 121.54 123.19 120.72 122.63 C 119.91 122.06 118.79 122.27 118.22 123.08 Z M 117.68 123.88 L 117.10 124.69 C 116.53 125.50 116.72 126.62 117.53 127.19 C 118.34 127.76 119.46 127.57 120.03 126.76 L 120.60 125.96 C 121.18 125.15 120.99 124.03 120.18 123.45 C 119.37 122.88 118.25 123.07 117.68 123.88 Z M 117.11 124.67 L 116.53 125.47 C 115.95 126.28 116.13 127.40 116.93 127.98 C 117.73 128.56 118.86 128.38 119.44 127.58 L 120.02 126.78 C 120.60 125.98 120.42 124.86 119.62 124.27 C 118.82 123.69 117.70 123.87 117.11 124.67 Z M 116.54 125.46 L 115.95 126.26 C 115.36 127.06 115.53 128.18 116.33 128.77 C 117.12 129.36 118.25 129.19 118.84 128.39 L 119.43 127.59 C 120.02 126.80 119.85 125.67 119.05 125.09 C 118.26 124.50 117.13 124.66 116.54 125.46 Z M 115.96 126.25 L 115.36 127.05 C 114.76 127.85 114.92 128.97 115.71 129.56 C 116.51 130.16 117.63 130.00 118.22 129.21 L 118.83 128.40 C 119.42 127.61 119.26 126.49 118.47 125.89 C 117.68 125.30 116.55 125.46 115.96 126.25 Z M 115.36 127.05 L 114.75 127.86 C 114.15 128.65 114.30 129.77 115.09 130.37 C 115.88 130.97 117.01 130.81 117.60 130.02 L 118.22 129.21 C 118.82 128.42 118.66 127.30 117.87 126.70 C 117.08 126.11 115.96 126.26 115.36 127.05 Z M 114.75 127.85 L 114.19 128.59 C 113.59 129.37 113.74 130.50 114.53 131.10 C 115.31 131.70 116.44 131.55 117.04 130.76 L 117.60 130.03 C 118.20 129.24 118.05 128.12 117.26 127.52 C 116.48 126.92 115.35 127.07 114.75 127.85 Z M 114.20 128.58 L 113.64 129.31 C 113.03 130.09 113.18 131.22 113.96 131.82 C 114.74 132.42 115.86 132.28 116.47 131.50 L 117.03 130.77 C 117.64 129.99 117.49 128.86 116.71 128.26 C 115.93 127.65 114.80 127.80 114.20 128.58 Z M 113.65 129.30 L 113.06 130.04 C 112.45 130.82 112.58 131.95 113.36 132.56 C 114.13 133.17 115.26 133.03 115.87 132.26 L 116.46 131.51 C 117.07 130.74 116.93 129.61 116.16 129.00 C 115.38 128.39 114.26 128.52 113.65 129.30 Z M 113.07 130.03 L 112.45 130.80 C 111.83 131.56 111.95 132.69 112.72 133.31 C 113.48 133.93 114.61 133.81 115.23 133.04 L 115.85 132.28 C 116.47 131.51 116.35 130.38 115.59 129.76 C 114.82 129.14 113.69 129.26 113.07 130.03 Z M 112.47 130.78 L 111.81 131.57 C 111.17 132.33 111.28 133.46 112.03 134.09 C 112.79 134.72 113.92 134.62 114.55 133.86 L 115.21 133.07 C 115.85 132.31 115.74 131.18 114.99 130.55 C 114.23 129.92 113.10 130.02 112.47 130.78 Z M 111.83 131.55 L 111.11 132.37 C 110.47 133.12 110.55 134.25 111.30 134.89 C 112.04 135.54 113.17 135.45 113.82 134.71 L 114.53 133.88 C 115.17 133.14 115.09 132.01 114.35 131.36 C 113.60 130.72 112.47 130.80 111.83 131.55 Z M 111.14 132.35 L 110.42 133.14 C 109.77 133.88 109.83 135.01 110.56 135.66 C 111.30 136.32 112.43 136.26 113.08 135.52 L 113.80 134.73 C 114.45 134.00 114.39 132.87 113.66 132.21 C 112.92 131.55 111.79 131.61 111.14 132.35 Z M 110.44 133.13 L 109.81 133.82 C 109.14 134.54 109.18 135.67 109.91 136.34 C 110.63 137.00 111.76 136.96 112.43 136.23 L 113.07 135.54 C 113.73 134.82 113.69 133.69 112.96 133.02 C 112.24 132.36 111.11 132.40 110.44 133.13 Z M 109.82 133.80 L 109.15 134.51 C 108.48 135.22 108.51 136.35 109.23 137.03 C 109.94 137.70 111.07 137.67 111.74 136.96 L 112.41 136.25 C 113.09 135.53 113.06 134.41 112.34 133.73 C 111.63 133.05 110.50 133.09 109.82 133.80 Z M 109.17 134.50 L 108.48 135.21 C 107.79 135.92 107.81 137.05 108.52 137.73 C 109.23 138.41 110.36 138.39 111.04 137.69 L 111.73 136.97 C 112.41 136.26 112.39 135.13 111.69 134.45 C 110.98 133.77 109.85 133.79 109.17 134.50 Z M 108.49 135.20 L 107.78 135.93 C 107.09 136.63 107.10 137.76 107.80 138.44 C 108.50 139.13 109.63 139.12 110.32 138.42 L 111.03 137.70 C 111.71 136.99 111.70 135.87 111.00 135.18 C 110.30 134.49 109.18 134.50 108.49 135.20 Z M 107.79 135.92 L 107.06 136.65 C 106.37 137.34 106.37 138.47 107.07 139.16 C 107.76 139.85 108.89 139.85 109.58 139.16 L 110.30 138.43 C 111.00 137.73 110.99 136.61 110.30 135.92 C 109.60 135.22 108.48 135.23 107.79 135.92 Z M 107.07 136.64 L 106.34 137.37 C 105.64 138.06 105.64 139.18 106.33 139.88 C 107.02 140.57 108.14 140.58 108.84 139.89 L 109.57 139.16 C 110.27 138.47 110.27 137.35 109.58 136.65 C 108.89 135.96 107.77 135.95 107.07 136.64 Z M 106.35 137.36 L 105.61 138.08 C 104.91 138.77 104.90 139.89 105.59 140.59 C 106.27 141.29 107.40 141.30 108.09 140.61 L 108.83 139.90 C 109.53 139.21 109.54 138.09 108.86 137.39 C 108.17 136.69 107.05 136.68 106.35 137.36 Z M 105.62 138.07 L 104.89 138.78 C 104.19 139.46 104.17 140.58 104.85 141.29 C 105.53 141.99 106.65 142.01 107.36 141.33 L 108.09 140.62 C 108.79 139.94 108.81 138.82 108.13 138.11 C 107.45 137.41 106.32 137.39 105.62 138.07 Z M 104.90 138.78 L 104.14 139.50 C 103.44 140.18 103.41 141.30 104.09 142.00 C 104.77 142.71 105.89 142.73 106.59 142.06 L 107.35 141.33 C 108.05 140.66 108.08 139.54 107.40 138.83 C 106.72 138.12 105.60 138.10 104.90 138.78 Z M 104.15 139.50 L 103.40 140.21 C 102.69 140.88 102.66 142.00 103.34 142.71 C 104.01 143.41 105.13 143.44 105.84 142.77 L 106.58 142.06 C 107.29 141.39 107.32 140.27 106.65 139.56 C 105.98 138.86 104.86 138.83 104.15 139.50 Z M 103.41 140.20 L 102.67 140.89 C 101.96 141.56 101.92 142.68 102.59 143.39 C 103.25 144.10 104.37 144.14 105.08 143.47 L 105.83 142.78 C 106.54 142.11 106.58 140.99 105.91 140.28 C 105.24 139.57 104.13 139.53 103.41 140.20 Z M 102.68 140.89 L 101.95 141.56 C 101.23 142.22 101.18 143.34 101.84 144.06 C 102.51 144.77 103.62 144.82 104.34 144.16 L 105.07 143.48 C 105.79 142.82 105.84 141.70 105.18 140.99 C 104.51 140.27 103.40 140.22 102.68 140.89 Z M 101.96 141.56 L 101.23 142.22 C 100.50 142.87 100.45 143.99 101.10 144.71 C 101.76 145.43 102.87 145.49 103.59 144.83 L 104.33 144.17 C 105.05 143.51 105.10 142.40 104.45 141.68 C 103.79 140.96 102.68 140.90 101.96 141.56 Z M 101.24 142.21 L 100.51 142.86 C 99.78 143.51 99.72 144.62 100.36 145.35 C 101.01 146.08 102.13 146.14 102.85 145.49 L 103.58 144.84 C 104.31 144.19 104.37 143.08 103.72 142.35 C 103.08 141.63 101.96 141.56 101.24 142.21 Z M 100.52 142.85 L 99.79 143.49 C 99.06 144.13 98.98 145.24 99.62 145.98 C 100.26 146.71 101.38 146.78 102.11 146.14 L 102.84 145.50 C 103.57 144.86 103.64 143.75 103.00 143.02 C 102.36 142.29 101.25 142.21 100.52 142.85 Z M 99.80 143.48 L 99.07 144.11 C 98.33 144.74 98.25 145.85 98.88 146.59 C 99.51 147.33 100.62 147.41 101.36 146.78 L 102.09 146.15 C 102.83 145.52 102.91 144.41 102.28 143.67 C 101.65 142.94 100.54 142.85 99.80 143.48 Z M 99.09 144.10 L 98.27 144.78 C 97.53 145.40 97.43 146.51 98.06 147.26 C 98.68 148.00 99.79 148.10 100.53 147.47 L 101.34 146.79 C 102.09 146.17 102.18 145.06 101.56 144.32 C 100.94 143.58 99.83 143.48 99.09 144.10 Z M 98.29 144.77 L 97.48 145.44 C 96.73 146.05 96.62 147.16 97.24 147.91 C 97.85 148.65 98.96 148.76 99.71 148.15 L 100.52 147.48 C 101.27 146.87 101.37 145.76 100.76 145.01 C 100.14 144.26 99.04 144.16 98.29 144.77 Z M 97.49 145.43 L 96.69 146.07 C 95.93 146.68 95.82 147.78 96.42 148.54 C 97.03 149.29 98.13 149.41 98.89 148.81 L 99.69 148.16 C 100.45 147.55 100.57 146.45 99.96 145.69 C 99.35 144.94 98.25 144.82 97.49 145.43 Z M 96.70 146.06 L 95.91 146.69 C 95.15 147.29 95.02 148.39 95.62 149.15 C 96.22 149.91 97.32 150.04 98.08 149.44 L 98.87 148.81 C 99.63 148.21 99.76 147.11 99.16 146.35 C 98.56 145.59 97.46 145.46 96.70 146.06 Z M 95.92 146.68 L 95.14 147.29 C 94.38 147.88 94.24 148.98 94.83 149.75 C 95.42 150.51 96.52 150.65 97.29 150.06 L 98.07 149.45 C 98.83 148.86 98.97 147.76 98.38 146.99 C 97.78 146.23 96.68 146.09 95.92 146.68 Z M 95.15 147.28 L 94.39 147.86 C 93.62 148.45 93.48 149.55 94.06 150.32 C 94.65 151.08 95.75 151.23 96.51 150.64 L 97.28 150.06 C 98.04 149.48 98.19 148.38 97.60 147.61 C 97.02 146.84 95.92 146.70 95.15 147.28 Z M 94.40 147.86 L 93.67 148.41 C 92.89 148.99 92.74 150.09 93.32 150.86 C 93.90 151.63 95.00 151.78 95.77 151.20 L 96.50 150.65 C 97.27 150.07 97.43 148.97 96.85 148.20 C 96.27 147.43 95.17 147.28 94.40 147.86 Z M 93.68 148.41 L 92.98 148.92 C 92.21 149.50 92.04 150.59 92.62 151.36 C 93.19 152.14 94.29 152.30 95.06 151.73 L 95.76 151.21 C 96.53 150.64 96.69 149.54 96.12 148.77 C 95.54 147.99 94.45 147.83 93.68 148.41 Z M 92.99 148.92 L 92.31 149.42 C 91.53 149.99 91.36 151.08 91.93 151.86 C 92.50 152.63 93.60 152.80 94.37 152.23 L 95.06 151.73 C 95.83 151.16 96.00 150.07 95.43 149.29 C 94.86 148.51 93.76 148.35 92.99 148.92 Z M 92.31 149.42 L 91.62 149.92 C 90.84 150.49 90.67 151.59 91.24 152.36 C 91.81 153.14 92.90 153.31 93.68 152.74 L 94.37 152.23 C 95.15 151.66 95.32 150.57 94.75 149.79 C 94.18 149.02 93.09 148.85 92.31 149.42 Z M 91.61 149.93 L 90.88 150.46 C 90.11 151.03 89.94 152.13 90.51 152.90 C 91.08 153.68 92.18 153.84 92.95 153.27 L 93.68 152.74 C 94.46 152.17 94.62 151.07 94.05 150.30 C 93.48 149.52 92.39 149.36 91.61 149.93 Z M 90.88 150.47 L 90.09 151.05 C 89.32 151.63 89.16 152.72 89.73 153.49 C 90.30 154.26 91.40 154.43 92.17 153.85 L 92.96 153.27 C 93.73 152.69 93.89 151.60 93.32 150.83 C 92.74 150.06 91.65 149.89 90.88 150.47 Z M 90.08 151.06 L 89.22 151.71 C 88.45 152.29 88.29 153.38 88.87 154.15 C 89.45 154.92 90.54 155.07 91.31 154.50 L 92.18 153.85 C 92.95 153.27 93.10 152.18 92.52 151.41 C 91.95 150.64 90.85 150.48 90.08 151.06 Z M 89.21 151.72 L 88.24 152.46 C 87.47 153.04 87.32 154.13 87.91 154.90 C 88.49 155.66 89.58 155.81 90.35 155.23 L 91.32 154.49 C 92.08 153.91 92.23 152.81 91.65 152.05 C 91.07 151.28 89.97 151.14 89.21 151.72 Z M 88.23 152.46 L 87.28 153.19 C 86.52 153.78 86.38 154.88 86.97 155.64 C 87.55 156.40 88.65 156.54 89.41 155.95 L 90.36 155.22 C 91.12 154.63 91.26 153.54 90.67 152.78 C 90.08 152.02 88.99 151.88 88.23 152.46 Z M 87.27 153.20 L 86.49 153.80 C 85.73 154.40 85.60 155.50 86.19 156.26 C 86.78 157.02 87.88 157.15 88.64 156.56 L 89.42 155.95 C 90.18 155.36 90.32 154.26 89.72 153.50 C 89.13 152.74 88.03 152.60 87.27 153.20 Z M 86.47 153.81 L 85.66 154.45 C 84.90 155.06 84.77 156.16 85.38 156.92 C 85.98 157.68 87.08 157.81 87.84 157.21 L 88.66 156.56 C 89.42 155.95 89.55 154.85 88.94 154.09 C 88.34 153.33 87.23 153.20 86.47 153.81 Z M 85.64 154.46 L 84.80 155.14 C 84.04 155.75 83.93 156.87 84.54 157.62 C 85.16 158.38 86.27 158.49 87.03 157.88 L 87.86 157.20 C 88.62 156.59 88.74 155.47 88.12 154.72 C 87.51 153.96 86.40 153.84 85.64 154.46 Z M 84.78 155.15 L 83.93 155.85 C 83.18 156.48 83.08 157.60 83.71 158.35 C 84.34 159.10 85.46 159.20 86.21 158.57 L 87.05 157.87 C 87.80 157.24 87.90 156.12 87.28 155.37 C 86.65 154.62 85.53 154.52 84.78 155.15 Z M 83.91 155.86 L 83.07 156.58 C 82.33 157.23 82.25 158.35 82.89 159.10 C 83.53 159.84 84.66 159.92 85.41 159.28 L 86.24 158.56 C 86.98 157.92 87.06 156.79 86.42 156.05 C 85.78 155.30 84.65 155.22 83.91 155.86 Z M 83.04 156.60 L 82.24 157.33 C 81.50 157.99 81.44 159.12 82.11 159.86 C 82.77 160.59 83.90 160.65 84.64 159.99 L 85.44 159.26 C 86.17 158.60 86.23 157.47 85.57 156.73 C 84.91 156.00 83.78 155.94 83.04 156.60 Z M 82.20 157.35 L 81.43 158.07 C 80.71 158.76 80.69 159.90 81.37 160.62 C 82.06 161.34 83.20 161.37 83.92 160.68 L 84.68 159.96 C 85.40 159.28 85.43 158.14 84.74 157.42 C 84.05 156.69 82.92 156.67 82.20 157.35 Z M 81.38 158.11 L 80.68 158.82 C 79.98 159.54 80.00 160.68 80.71 161.38 C 81.42 162.08 82.57 162.07 83.27 161.36 L 83.97 160.65 C 84.67 159.93 84.66 158.79 83.94 158.09 C 83.23 157.39 82.08 157.40 81.38 158.11 Z M 80.62 158.88 L 80.00 159.57 C 79.33 160.32 79.39 161.47 80.14 162.14 C 80.88 162.81 82.03 162.75 82.70 162.00 L 83.33 161.31 C 84.00 160.56 83.94 159.41 83.19 158.74 C 82.44 158.07 81.29 158.13 80.62 158.88 Z M 79.92 159.65 L 79.39 160.32 C 78.76 161.11 78.89 162.26 79.68 162.88 C 80.47 163.51 81.62 163.38 82.25 162.59 L 82.78 161.92 C 83.41 161.13 83.28 159.98 82.49 159.36 C 81.70 158.73 80.55 158.86 79.92 159.65 Z M 79.29 160.44 L 78.85 161.11 C 78.29 161.96 78.52 163.10 79.36 163.66 C 80.21 164.21 81.35 163.98 81.91 163.14 L 82.35 162.47 C 82.91 161.62 82.68 160.48 81.83 159.92 C 80.99 159.36 79.85 159.60 79.29 160.44 Z M 78.68 161.40 L 78.22 162.47 C 77.82 163.40 78.26 164.49 79.19 164.89 C 80.13 165.29 81.21 164.85 81.61 163.92 L 82.07 162.85 C 82.47 161.92 82.04 160.83 81.10 160.43 C 80.17 160.03 79.08 160.46 78.68 161.40 Z M 78.08 163.00 L 77.98 163.95 C 77.87 164.97 78.62 165.88 79.63 165.98 C 80.65 166.09 81.56 165.35 81.67 164.33 L 81.76 163.38 C 81.87 162.36 81.13 161.45 80.11 161.35 C 79.09 161.24 78.18 161.98 78.08 163.00 Z M 78.01 164.55 L 78.20 165.41 C 78.43 166.41 79.43 167.04 80.43 166.81 C 81.44 166.59 82.06 165.59 81.84 164.58 L 81.64 163.73 C 81.41 162.72 80.41 162.09 79.41 162.32 C 78.41 162.55 77.78 163.55 78.01 164.55 Z M 78.36 165.87 L 78.78 166.67 C 79.26 167.59 80.39 167.94 81.31 167.46 C 82.23 166.98 82.58 165.84 82.10 164.93 L 81.68 164.13 C 81.20 163.21 80.06 162.86 79.15 163.34 C 78.23 163.82 77.88 164.95 78.36 165.87 Z M 78.93 166.93 L 79.51 167.70 C 80.13 168.53 81.31 168.70 82.15 168.08 C 82.98 167.45 83.15 166.27 82.52 165.44 L 81.95 164.67 C 81.32 163.84 80.14 163.67 79.31 164.29 C 78.48 164.92 78.31 166.10 78.93 166.93 Z M 79.59 167.81 L 80.25 168.58 C 80.94 169.37 82.13 169.45 82.92 168.77 C 83.71 168.09 83.80 166.89 83.11 166.10 L 82.45 165.33 C 81.76 164.54 80.57 164.46 79.78 165.14 C 78.99 165.82 78.90 167.02 79.59 167.81 Z M 80.26 168.60 L 80.80 169.20 C 81.49 169.98 82.69 170.06 83.47 169.36 C 84.26 168.67 84.33 167.47 83.64 166.69 L 83.11 166.08 C 82.41 165.30 81.21 165.22 80.43 165.92 C 79.64 166.61 79.57 167.81 80.26 168.60 Z M 80.80 169.20 L 81.35 169.83 C 82.05 170.61 83.25 170.69 84.03 169.99 C 84.82 169.30 84.89 168.10 84.19 167.31 L 83.64 166.69 C 82.94 165.90 81.74 165.83 80.96 166.52 C 80.17 167.22 80.10 168.42 80.80 169.20 Z M 81.36 169.83 L 81.95 170.49 C 82.64 171.28 83.84 171.34 84.63 170.65 C 85.41 169.95 85.47 168.75 84.78 167.97 L 84.19 167.31 C 83.49 166.53 82.29 166.46 81.51 167.16 C 80.73 167.85 80.66 169.05 81.36 169.83 Z M 81.95 170.50 L 82.58 171.20 C 83.29 171.98 84.49 172.04 85.26 171.34 C 86.04 170.63 86.10 169.43 85.40 168.66 L 84.77 167.96 C 84.07 167.18 82.87 167.12 82.09 167.82 C 81.31 168.52 81.25 169.72 81.95 170.50 Z M 82.59 171.21 L 83.27 171.95 C 83.98 172.72 85.18 172.78 85.95 172.07 C 86.73 171.36 86.78 170.16 86.07 169.39 L 85.39 168.65 C 84.68 167.87 83.48 167.82 82.71 168.53 C 81.94 169.24 81.88 170.44 82.59 171.21 Z M 83.28 171.96 L 84.02 172.76 C 84.74 173.52 85.94 173.57 86.70 172.85 C 87.47 172.14 87.51 170.94 86.80 170.17 L 86.06 169.38 C 85.35 168.61 84.15 168.57 83.38 169.28 C 82.61 170.00 82.57 171.20 83.28 171.96 Z M 84.03 172.77 L 84.84 173.62 C 85.56 174.38 86.76 174.42 87.52 173.70 C 88.28 172.98 88.32 171.77 87.60 171.01 L 86.79 170.16 C 86.07 169.40 84.87 169.37 84.11 170.09 C 83.35 170.81 83.31 172.01 84.03 172.77 Z M 84.85 173.63 L 85.73 174.54 C 86.46 175.30 87.66 175.32 88.41 174.60 C 89.17 173.87 89.19 172.67 88.46 171.91 L 87.59 171.00 C 86.86 170.25 85.66 170.22 84.90 170.95 C 84.15 171.68 84.13 172.88 84.85 173.63 Z M 85.74 174.55 L 86.36 175.19 C 87.09 175.94 88.29 175.96 89.04 175.22 C 89.79 174.49 89.81 173.29 89.08 172.54 L 88.45 171.90 C 87.72 171.15 86.52 171.14 85.77 171.87 C 85.02 172.60 85.01 173.80 85.74 174.55 Z M 86.37 175.20 L 87.02 175.86 C 87.76 176.61 88.96 176.62 89.71 175.88 C 90.45 175.15 90.46 173.95 89.73 173.20 L 89.07 172.53 C 88.33 171.79 87.13 171.78 86.39 172.52 C 85.64 173.25 85.63 174.45 86.37 175.20 Z M 87.03 175.87 L 87.71 176.56 C 88.45 177.30 89.65 177.30 90.40 176.56 C 91.14 175.83 91.14 174.62 90.40 173.88 L 89.72 173.19 C 88.98 172.45 87.78 172.45 87.04 173.19 C 86.29 173.92 86.29 175.13 87.03 175.87 Z M 87.72 176.56 L 88.42 177.27 C 89.16 178.01 90.37 178.00 91.11 177.26 C 91.85 176.52 91.85 175.32 91.10 174.58 L 90.40 173.88 C 89.66 173.13 88.45 173.14 87.71 173.88 C 86.97 174.62 86.97 175.82 87.72 176.56 Z M 88.43 177.27 L 89.15 177.99 C 89.89 178.73 91.10 178.72 91.83 177.98 C 92.57 177.23 92.57 176.03 91.82 175.29 L 91.10 174.57 C 90.35 173.84 89.15 173.84 88.42 174.59 C 87.68 175.33 87.68 176.53 88.43 177.27 Z M 89.15 177.99 L 89.89 178.72 C 90.64 179.45 91.84 179.44 92.57 178.70 C 93.31 177.95 93.30 176.75 92.55 176.01 L 91.82 175.29 C 91.07 174.55 89.87 174.56 89.13 175.31 C 88.40 176.05 88.41 177.26 89.15 177.99 Z M 89.90 178.72 L 90.64 179.45 C 91.39 180.18 92.59 180.17 93.32 179.42 C 94.06 178.67 94.04 177.47 93.30 176.74 L 92.55 176.01 C 91.80 175.28 90.60 175.29 89.87 176.04 C 89.13 176.79 89.15 177.99 89.90 178.72 Z M 90.64 179.45 L 91.39 180.18 C 92.14 180.92 93.35 180.90 94.08 180.15 C 94.81 179.40 94.79 178.20 94.04 177.47 L 93.29 176.74 C 92.54 176.00 91.34 176.02 90.61 176.77 C 89.88 177.52 89.89 178.72 90.64 179.45 Z M 91.40 180.19 L 92.14 180.91 C 92.90 181.64 94.10 181.62 94.83 180.87 C 95.56 180.12 95.54 178.92 94.79 178.19 L 94.04 177.46 C 93.28 176.73 92.08 176.75 91.35 177.50 C 90.62 178.26 90.64 179.46 91.40 180.19 Z M 92.15 180.92 L 92.89 181.63 C 93.65 182.36 94.85 182.34 95.57 181.58 C 96.30 180.83 96.28 179.62 95.52 178.90 L 94.78 178.18 C 94.03 177.46 92.83 177.48 92.10 178.23 C 91.37 178.99 91.39 180.19 92.15 180.92 Z M 92.89 181.63 L 93.63 182.34 C 94.38 183.06 95.58 183.04 96.31 182.28 C 97.04 181.52 97.01 180.32 96.25 179.60 L 95.52 178.89 C 94.76 178.17 93.56 178.19 92.84 178.95 C 92.11 179.71 92.14 180.91 92.89 181.63 Z M 93.63 182.34 L 94.35 183.02 C 95.11 183.75 96.31 183.72 97.03 182.96 C 97.75 182.20 97.72 181.00 96.97 180.27 L 96.25 179.59 C 95.49 178.87 94.29 178.90 93.57 179.66 C 92.84 180.42 92.87 181.62 93.63 182.34 Z M 94.35 183.03 L 95.15 183.78 C 95.91 184.50 97.11 184.47 97.83 183.71 C 98.55 182.94 98.52 181.74 97.76 181.02 L 96.96 180.27 C 96.20 179.55 95.00 179.58 94.28 180.34 C 93.56 181.11 93.59 182.31 94.35 183.03 Z M 95.15 183.78 L 95.94 184.53 C 96.71 185.25 97.91 185.21 98.63 184.44 C 99.34 183.68 99.31 182.48 98.54 181.76 L 97.75 181.02 C 96.99 180.30 95.79 180.34 95.07 181.10 C 94.35 181.87 94.39 183.07 95.15 183.78 Z M 95.95 184.53 L 96.72 185.25 C 97.49 185.97 98.69 185.92 99.40 185.16 C 100.12 184.39 100.07 183.19 99.31 182.47 L 98.54 181.76 C 97.77 181.04 96.57 181.08 95.85 181.85 C 95.14 182.62 95.18 183.82 95.95 184.53 Z M 96.73 185.26 L 97.48 185.95 C 98.25 186.66 99.45 186.61 100.16 185.84 C 100.87 185.07 100.82 183.87 100.05 183.16 L 99.30 182.47 C 98.53 181.76 97.33 181.80 96.62 182.57 C 95.91 183.34 95.96 184.55 96.73 185.26 Z M 97.48 185.96 L 98.22 186.63 C 98.99 187.34 100.19 187.28 100.90 186.51 C 101.61 185.73 101.55 184.53 100.78 183.83 L 100.04 183.15 C 99.27 182.45 98.07 182.50 97.36 183.27 C 96.66 184.05 96.71 185.25 97.48 185.96 Z M 98.23 186.64 L 98.95 187.29 C 99.73 187.99 100.93 187.93 101.63 187.16 C 102.34 186.38 102.28 185.18 101.50 184.47 L 100.77 183.82 C 100.00 183.12 98.80 183.18 98.09 183.95 C 97.39 184.73 97.45 185.93 98.23 186.64 Z M 98.96 187.30 L 99.68 187.94 C 100.46 188.64 101.66 188.57 102.36 187.79 C 103.06 187.01 102.99 185.81 102.21 185.11 L 101.49 184.47 C 100.71 183.77 99.51 183.84 98.81 184.62 C 98.11 185.40 98.18 186.60 98.96 187.30 Z M 99.68 187.95 L 100.40 188.58 C 101.18 189.27 102.38 189.20 103.08 188.41 C 103.77 187.62 103.70 186.42 102.91 185.73 L 102.20 185.10 C 101.41 184.41 100.21 184.48 99.52 185.27 C 98.82 186.05 98.90 187.25 99.68 187.95 Z M 100.40 188.58 L 101.12 189.20 C 101.90 189.89 103.10 189.81 103.79 189.02 C 104.48 188.23 104.40 187.03 103.61 186.34 L 102.90 185.72 C 102.11 185.03 100.91 185.11 100.22 185.90 C 99.53 186.69 99.61 187.89 100.40 188.58 Z M 101.12 189.21 L 101.84 189.83 C 102.63 190.51 103.83 190.43 104.52 189.63 C 105.20 188.84 105.11 187.64 104.32 186.95 L 103.61 186.34 C 102.81 185.65 101.61 185.74 100.93 186.53 C 100.24 187.33 100.33 188.53 101.12 189.21 Z M 101.85 189.83 L 102.60 190.48 C 103.40 191.16 104.60 191.07 105.28 190.27 C 105.96 189.47 105.86 188.27 105.07 187.59 L 104.31 186.95 C 103.51 186.27 102.31 186.36 101.63 187.16 C 100.95 187.96 101.05 189.15 101.85 189.83 Z M 102.61 190.49 L 103.42 191.17 C 104.23 191.85 105.42 191.75 106.10 190.95 C 106.78 190.15 106.68 188.95 105.87 188.27 L 105.06 187.58 C 104.26 186.91 103.06 187.01 102.38 187.81 C 101.71 188.61 101.81 189.81 102.61 190.49 Z M 103.43 191.18 L 104.25 191.86 C 105.05 192.54 106.25 192.43 106.92 191.62 C 107.60 190.82 107.49 189.62 106.68 188.95 L 105.87 188.27 C 105.06 187.59 103.86 187.70 103.19 188.51 C 102.52 189.31 102.63 190.51 103.43 191.18 Z M 104.26 191.87 L 105.07 192.54 C 105.88 193.21 107.08 193.10 107.74 192.29 C 108.41 191.48 108.30 190.28 107.49 189.62 L 106.68 188.94 C 105.87 188.27 104.67 188.39 104.00 189.20 C 103.33 190.00 103.45 191.20 104.26 191.87 Z M 105.08 192.55 L 105.88 193.21 C 106.69 193.87 107.89 193.76 108.55 192.94 C 109.22 192.13 109.10 190.94 108.29 190.27 L 107.49 189.61 C 106.67 188.95 105.48 189.06 104.81 189.87 C 104.15 190.69 104.26 191.88 105.08 192.55 Z M 105.88 193.21 L 106.67 193.85 C 107.49 194.52 108.68 194.40 109.35 193.58 C 110.01 192.77 109.89 191.57 109.07 190.91 L 108.28 190.27 C 107.47 189.60 106.28 189.73 105.61 190.54 C 104.95 191.35 105.07 192.55 105.88 193.21 Z M 106.68 193.86 L 107.45 194.48 C 108.26 195.14 109.46 195.02 110.12 194.20 C 110.78 193.38 110.65 192.19 109.84 191.53 L 109.07 190.91 C 108.25 190.25 107.06 190.37 106.40 191.19 C 105.74 192.00 105.86 193.20 106.68 193.86 Z M 107.45 194.48 L 108.19 195.08 C 109.01 195.74 110.20 195.61 110.86 194.79 C 111.52 193.98 111.39 192.78 110.57 192.12 L 109.83 191.53 C 109.02 190.87 107.82 191.00 107.16 191.81 C 106.50 192.63 106.63 193.82 107.45 194.48 Z M 108.19 195.08 L 108.90 195.65 C 109.72 196.31 110.91 196.18 111.57 195.36 C 112.23 194.54 112.10 193.35 111.28 192.69 L 110.57 192.12 C 109.75 191.46 108.56 191.59 107.90 192.41 C 107.24 193.23 107.37 194.43 108.19 195.08 Z M 108.90 195.65 L 109.62 196.22 C 110.44 196.88 111.63 196.75 112.29 195.93 C 112.94 195.11 112.81 193.91 111.99 193.26 L 111.28 192.69 C 110.46 192.03 109.26 192.16 108.61 192.98 C 107.95 193.80 108.08 195.00 108.90 195.65 Z M 109.62 196.23 L 110.55 196.97 C 111.37 197.62 112.56 197.49 113.22 196.67 C 113.87 195.85 113.74 194.65 112.92 194.00 L 111.99 193.26 C 111.17 192.60 109.97 192.74 109.32 193.56 C 108.66 194.38 108.80 195.57 109.62 196.23 Z M 110.55 196.97 L 111.39 197.64 C 112.22 198.30 113.41 198.16 114.06 197.34 C 114.72 196.52 114.58 195.32 113.76 194.67 L 112.91 194.00 C 112.09 193.34 110.90 193.48 110.24 194.30 C 109.59 195.12 109.73 196.31 110.55 196.97 Z M 111.40 197.64 L 112.18 198.26 C 113.00 198.92 114.19 198.78 114.85 197.96 C 115.50 197.14 115.36 195.94 114.54 195.29 L 113.76 194.67 C 112.94 194.02 111.74 194.15 111.09 194.97 C 110.44 195.80 110.57 196.99 111.40 197.64 Z M 112.18 198.27 L 112.91 198.85 C 113.74 199.50 114.93 199.36 115.58 198.54 C 116.23 197.71 116.09 196.52 115.27 195.87 L 114.54 195.29 C 113.72 194.64 112.52 194.77 111.87 195.60 C 111.22 196.42 111.36 197.61 112.18 198.27 Z M 112.91 198.85 L 113.61 199.40 C 114.44 200.05 115.63 199.91 116.28 199.09 C 116.93 198.27 116.79 197.07 115.97 196.42 L 115.27 195.87 C 114.45 195.22 113.25 195.36 112.60 196.18 C 111.95 197.00 112.09 198.20 112.91 198.85 Z M 113.62 199.40 L 114.30 199.94 C 115.12 200.59 116.32 200.45 116.97 199.63 C 117.62 198.81 117.48 197.61 116.65 196.96 L 115.97 196.42 C 115.15 195.77 113.95 195.91 113.30 196.73 C 112.65 197.56 112.79 198.75 113.62 199.40 Z M 114.30 199.94 L 114.98 200.48 C 115.80 201.13 116.99 200.99 117.64 200.16 C 118.29 199.34 118.15 198.14 117.33 197.49 L 116.65 196.96 C 115.83 196.31 114.64 196.45 113.99 197.27 C 113.34 198.10 113.48 199.29 114.30 199.94 Z M 114.98 200.48 L 115.67 201.02 C 116.49 201.67 117.69 201.53 118.34 200.71 C 118.99 199.89 118.85 198.69 118.02 198.04 L 117.33 197.49 C 116.51 196.84 115.31 196.98 114.66 197.81 C 114.01 198.63 114.15 199.83 114.98 200.48 Z M 115.67 201.02 L 116.40 201.60 C 117.22 202.25 118.41 202.11 119.06 201.28 C 119.71 200.46 119.57 199.26 118.75 198.61 L 118.02 198.04 C 117.20 197.39 116.00 197.53 115.35 198.35 C 114.70 199.18 114.84 200.37 115.67 201.02 Z M 116.40 201.60 L 117.17 202.21 C 118.00 202.86 119.19 202.72 119.84 201.90 C 120.49 201.07 120.35 199.88 119.53 199.23 L 118.75 198.61 C 117.93 197.96 116.73 198.10 116.08 198.93 C 115.43 199.75 115.57 200.95 116.40 201.60 Z M 117.17 202.21 L 118.02 202.88 C 118.85 203.53 120.04 203.39 120.69 202.57 C 121.34 201.74 121.20 200.55 120.38 199.90 L 119.53 199.23 C 118.71 198.58 117.51 198.72 116.86 199.54 C 116.21 200.37 116.35 201.56 117.17 202.21 Z M 118.02 202.88 L 118.96 203.62 C 119.78 204.27 120.98 204.13 121.63 203.31 C 122.28 202.48 122.14 201.29 121.31 200.64 L 120.38 199.90 C 119.55 199.25 118.36 199.39 117.71 200.21 C 117.06 201.04 117.20 202.23 118.02 202.88 Z M 118.96 203.62 L 119.71 204.22 C 120.54 204.87 121.73 204.73 122.38 203.90 C 123.03 203.08 122.89 201.88 122.07 201.23 L 121.31 200.64 C 120.49 199.99 119.29 200.13 118.64 200.95 C 117.99 201.77 118.13 202.97 118.96 203.62 Z M 119.71 204.21 L 120.43 204.78 C 121.25 205.43 122.45 205.29 123.10 204.47 C 123.75 203.64 123.61 202.45 122.78 201.80 L 122.07 201.23 C 121.25 200.58 120.05 200.72 119.40 201.55 C 118.75 202.37 118.89 203.56 119.71 204.21 Z M 120.43 204.78 L 121.17 205.37 C 122.00 206.02 123.19 205.89 123.84 205.06 C 124.50 204.24 124.36 203.05 123.53 202.39 L 122.79 201.80 C 121.96 201.15 120.77 201.29 120.12 202.11 C 119.46 202.93 119.60 204.13 120.43 204.78 Z M 121.17 205.37 L 121.95 205.99 C 122.77 206.64 123.97 206.51 124.62 205.68 C 125.27 204.86 125.14 203.67 124.31 203.01 L 123.54 202.40 C 122.72 201.74 121.52 201.88 120.87 202.70 C 120.21 203.52 120.35 204.72 121.17 205.37 Z M 121.95 205.99 L 122.74 206.62 C 123.56 207.28 124.76 207.14 125.41 206.32 C 126.07 205.51 125.93 204.31 125.12 203.65 L 124.32 203.02 C 123.50 202.36 122.30 202.50 121.65 203.32 C 120.99 204.14 121.13 205.33 121.95 205.99 Z M 122.74 206.62 L 123.55 207.27 C 124.37 207.93 125.56 207.80 126.22 206.98 C 126.88 206.16 126.75 204.97 125.93 204.31 L 125.12 203.66 C 124.30 203.00 123.11 203.13 122.45 203.95 C 121.79 204.77 121.92 205.96 122.74 206.62 Z M 123.54 207.27 L 124.36 207.93 C 125.18 208.59 126.37 208.46 127.03 207.65 C 127.69 206.83 127.57 205.64 126.75 204.98 L 125.94 204.31 C 125.12 203.65 123.92 203.78 123.26 204.59 C 122.60 205.41 122.73 206.61 123.54 207.27 Z M 124.35 207.92 L 125.17 208.59 C 125.98 209.25 127.18 209.13 127.84 208.32 C 128.51 207.51 128.39 206.31 127.57 205.65 L 126.76 204.98 C 125.95 204.32 124.75 204.44 124.09 205.25 C 123.42 206.06 123.54 207.26 124.35 207.92 Z M 125.16 208.58 L 125.97 209.25 C 126.78 209.92 127.98 209.81 128.65 209.00 C 129.31 208.19 129.20 206.99 128.39 206.32 L 127.58 205.65 C 126.77 204.99 125.58 205.10 124.91 205.91 C 124.24 206.72 124.35 207.92 125.16 208.58 Z M 125.96 209.24 L 126.77 209.92 C 127.57 210.59 128.77 210.48 129.45 209.68 C 130.12 208.87 130.01 207.68 129.21 207.00 L 128.40 206.33 C 127.59 205.66 126.40 205.76 125.72 206.57 C 125.05 207.37 125.16 208.57 125.96 209.24 Z M 126.76 209.91 L 127.58 210.60 C 128.38 211.28 129.58 211.18 130.25 210.38 C 130.93 209.58 130.83 208.38 130.03 207.71 L 129.22 207.01 C 128.42 206.33 127.22 206.43 126.54 207.23 C 125.86 208.03 125.96 209.23 126.76 209.91 Z M 127.57 210.59 L 128.36 211.28 C 129.16 211.97 130.36 211.88 131.04 211.08 C 131.73 210.29 131.64 209.09 130.84 208.40 L 130.05 207.72 C 129.25 207.03 128.05 207.12 127.37 207.91 C 126.68 208.71 126.77 209.91 127.57 210.59 Z M 128.35 211.27 L 129.13 211.95 C 129.91 212.64 131.11 212.56 131.81 211.77 C 132.50 210.98 132.42 209.78 131.63 209.09 L 130.85 208.41 C 130.07 207.72 128.86 207.80 128.17 208.59 C 127.48 209.38 127.56 210.58 128.35 211.27 Z M 129.11 211.94 L 129.87 212.61 C 130.65 213.31 131.85 213.24 132.55 212.46 C 133.25 211.68 133.18 210.47 132.40 209.78 L 131.64 209.10 C 130.86 208.40 129.66 208.47 128.96 209.26 C 128.26 210.04 128.33 211.24 129.11 211.94 Z M 129.85 212.60 L 130.59 213.27 C 131.36 213.97 132.57 213.92 133.27 213.14 C 133.98 212.36 133.92 211.16 133.14 210.46 L 132.41 209.79 C 131.63 209.08 130.43 209.14 129.73 209.92 C 129.02 210.69 129.08 211.89 129.85 212.60 Z M 130.57 213.25 L 131.29 213.92 C 132.06 214.63 133.26 214.59 133.97 213.82 C 134.69 213.05 134.64 211.85 133.87 211.13 L 133.16 210.47 C 132.39 209.76 131.19 209.80 130.47 210.57 C 129.76 211.34 129.80 212.54 130.57 213.25 Z M 131.27 213.90 L 131.97 214.56 C 132.73 215.28 133.93 215.25 134.65 214.49 C 135.37 213.73 135.34 212.53 134.58 211.80 L 133.89 211.15 C 133.13 210.42 131.92 210.46 131.20 211.22 C 130.48 211.98 130.51 213.18 131.27 213.90 Z M 131.95 214.55 L 132.62 215.20 C 133.38 215.93 134.58 215.91 135.31 215.16 C 136.04 214.41 136.02 213.20 135.27 212.47 L 134.60 211.82 C 133.84 211.09 132.64 211.11 131.91 211.86 C 131.18 212.61 131.20 213.81 131.95 214.55 Z M 132.61 215.18 L 133.29 215.86 C 134.03 216.60 135.23 216.60 135.97 215.85 C 136.71 215.11 136.71 213.91 135.97 213.17 L 135.29 212.49 C 134.54 211.75 133.34 211.75 132.60 212.50 C 131.86 213.24 131.86 214.44 132.61 215.18 Z M 133.27 215.84 L 133.98 216.57 C 134.71 217.32 135.92 217.33 136.67 216.60 C 137.42 215.87 137.43 214.67 136.70 213.92 L 135.98 213.19 C 135.25 212.44 134.05 212.42 133.30 213.15 C 132.55 213.89 132.53 215.09 133.27 215.84 Z M 133.96 216.55 L 134.65 217.28 C 135.38 218.04 136.58 218.07 137.34 217.35 C 138.10 216.63 138.13 215.43 137.41 214.67 L 136.72 213.94 C 136.00 213.18 134.80 213.14 134.04 213.87 C 133.27 214.59 133.24 215.79 133.96 216.55 Z M 134.63 217.26 L 135.31 217.99 C 136.02 218.76 137.22 218.82 137.99 218.11 C 138.76 217.40 138.81 216.20 138.11 215.43 L 137.43 214.69 C 136.72 213.92 135.52 213.87 134.75 214.58 C 133.98 215.28 133.93 216.48 134.63 217.26 Z M 135.29 217.97 L 135.94 218.71 C 136.64 219.49 137.84 219.57 138.62 218.87 C 139.40 218.18 139.48 216.98 138.78 216.19 L 138.13 215.45 C 137.43 214.67 136.23 214.60 135.45 215.29 C 134.66 215.98 134.59 217.18 135.29 217.97 Z M 135.92 218.68 L 136.56 219.43 C 137.24 220.23 138.44 220.33 139.24 219.65 C 140.03 218.97 140.13 217.77 139.45 216.97 L 138.80 216.22 C 138.12 215.42 136.93 215.33 136.13 216.01 C 135.33 216.69 135.24 217.89 135.92 218.68 Z M 136.54 219.41 L 137.17 220.17 C 137.83 220.98 139.03 221.10 139.84 220.43 C 140.65 219.77 140.76 218.57 140.10 217.76 L 139.47 217.00 C 138.80 216.19 137.61 216.07 136.80 216.74 C 135.99 217.40 135.87 218.60 136.54 219.41 Z M 137.15 220.14 L 137.77 220.92 C 138.42 221.74 139.61 221.88 140.43 221.23 C 141.25 220.58 141.39 219.39 140.74 218.57 L 140.12 217.79 C 139.47 216.97 138.28 216.83 137.46 217.48 C 136.64 218.13 136.50 219.32 137.15 220.14 Z M 137.75 220.90 L 138.35 221.69 C 138.99 222.52 140.18 222.68 141.01 222.05 C 141.84 221.41 142.00 220.22 141.36 219.39 L 140.76 218.60 C 140.12 217.76 138.93 217.61 138.10 218.24 C 137.27 218.88 137.11 220.06 137.75 220.90 Z M 138.33 221.66 L 138.92 222.47 C 139.54 223.31 140.73 223.49 141.57 222.87 C 142.41 222.25 142.60 221.07 141.98 220.23 L 141.38 219.42 C 140.76 218.58 139.58 218.40 138.74 219.01 C 137.89 219.63 137.71 220.82 138.33 221.66 Z M 138.90 222.44 L 139.48 223.26 C 140.08 224.12 141.26 224.32 142.12 223.72 C 142.97 223.12 143.18 221.94 142.58 221.08 L 142.00 220.26 C 141.40 219.40 140.22 219.20 139.36 219.80 C 138.51 220.40 138.30 221.58 138.90 222.44 Z M 139.46 223.22 L 140.02 224.06 C 140.60 224.93 141.78 225.16 142.65 224.58 C 143.51 224.00 143.75 222.83 143.16 221.96 L 142.60 221.12 C 142.02 220.25 140.85 220.02 139.98 220.60 C 139.11 221.18 138.88 222.36 139.46 223.22 Z M 140.00 224.02 L 140.54 224.88 C 141.09 225.76 142.26 226.02 143.14 225.46 C 144.03 224.90 144.29 223.73 143.73 222.85 L 143.19 222.00 C 142.63 221.12 141.46 220.86 140.58 221.41 C 139.70 221.97 139.44 223.14 140.00 224.02 Z M 140.51 224.83 L 141.02 225.69 C 141.56 226.59 142.72 226.89 143.61 226.35 C 144.51 225.82 144.80 224.66 144.27 223.76 L 143.76 222.90 C 143.22 222.00 142.06 221.71 141.17 222.24 C 140.27 222.77 139.97 223.93 140.51 224.83 Z M 140.99 225.64 L 141.48 226.52 C 141.98 227.43 143.13 227.76 144.04 227.25 C 144.96 226.75 145.29 225.60 144.78 224.69 L 144.30 223.81 C 143.80 222.90 142.65 222.57 141.73 223.07 C 140.82 223.58 140.49 224.73 140.99 225.64 Z M 141.45 226.46 L 141.89 227.34 C 142.36 228.27 143.50 228.64 144.43 228.17 C 145.36 227.69 145.73 226.56 145.26 225.63 L 144.81 224.75 C 144.34 223.82 143.20 223.45 142.27 223.92 C 141.34 224.39 140.97 225.53 141.45 226.46 Z M 141.86 227.26 L 142.32 228.27 C 142.75 229.22 143.87 229.63 144.82 229.20 C 145.77 228.77 146.18 227.65 145.75 226.70 L 145.29 225.70 C 144.86 224.75 143.74 224.33 142.79 224.76 C 141.84 225.20 141.43 226.32 141.86 227.26 Z M 142.28 228.18 L 142.82 229.54 C 143.20 230.50 144.30 230.98 145.27 230.59 C 146.23 230.21 146.71 229.11 146.32 228.15 L 145.79 226.79 C 145.40 225.82 144.31 225.35 143.34 225.73 C 142.37 226.11 141.90 227.21 142.28 228.18 Z M 142.79 229.45 L 143.22 230.69 C 143.56 231.68 144.63 232.20 145.61 231.86 C 146.59 231.52 147.12 230.45 146.78 229.46 L 146.35 228.23 C 146.01 227.24 144.94 226.72 143.96 227.06 C 142.97 227.40 142.45 228.47 142.79 229.45 Z M 143.20 230.63 L 143.51 231.65 C 143.82 232.64 144.87 233.20 145.86 232.89 C 146.86 232.58 147.41 231.53 147.11 230.54 L 146.79 229.52 C 146.49 228.53 145.44 227.98 144.44 228.28 C 143.45 228.59 142.89 229.64 143.20 230.63 Z M 143.50 231.61 L 143.70 232.30 C 143.98 233.29 145.02 233.87 146.02 233.59 C 147.02 233.31 147.60 232.27 147.31 231.27 L 147.12 230.58 C 146.83 229.58 145.80 229.00 144.80 229.29 C 143.80 229.57 143.22 230.61 143.50 231.61 Z M 143.71 232.30 L 143.78 232.57 C 144.07 233.56 145.11 234.13 146.10 233.85 C 147.10 233.56 147.67 232.52 147.38 231.53 L 147.31 231.26 C 147.02 230.27 145.98 229.70 144.99 229.98 C 143.99 230.27 143.42 231.31 143.71 232.30 Z M 147.40 231.70 L 147.35 231.42 C 147.16 230.41 146.19 229.75 145.18 229.94 C 144.18 230.13 143.52 231.10 143.71 232.11 L 143.76 232.39 C 143.95 233.40 144.92 234.06 145.93 233.86 C 146.93 233.67 147.59 232.70 147.40 231.70 Z M 147.30 231.38 L 147.12 230.59 C 146.91 229.61 145.95 229.00 144.97 229.21 C 143.99 229.42 143.38 230.39 143.59 231.36 L 143.76 232.15 C 143.97 233.12 144.94 233.74 145.91 233.53 C 146.89 233.32 147.51 232.35 147.30 231.38 Z M 147.08 230.59 L 146.83 229.44 C 146.61 228.49 145.67 227.89 144.71 228.10 C 143.76 228.32 143.16 229.26 143.37 230.22 L 143.63 231.36 C 143.84 232.32 144.79 232.92 145.74 232.70 C 146.70 232.49 147.30 231.54 147.08 230.59 Z M 146.78 229.45 L 146.48 228.08 C 146.27 227.15 145.34 226.57 144.41 226.77 C 143.48 226.98 142.90 227.91 143.11 228.84 L 143.42 230.21 C 143.63 231.14 144.55 231.72 145.48 231.51 C 146.41 231.30 146.99 230.38 146.78 229.45 Z M 146.44 228.09 L 146.24 227.19 C 146.03 226.28 145.13 225.70 144.22 225.91 C 143.30 226.12 142.73 227.02 142.94 227.93 L 143.14 228.83 C 143.35 229.74 144.25 230.32 145.16 230.11 C 146.08 229.91 146.65 229.00 146.44 228.09 Z"
      fill="black"
      fill-rule="nonzero" /><path d="M 176.20 104.51 L 175.34 103.44 C 174.72 102.66 173.59 102.54 172.81 103.16 C 172.04 103.78 171.91 104.91 172.53 105.69 L 173.39 106.76 C 174.01 107.53 175.14 107.66 175.92 107.03 C 176.69 106.41 176.82 105.28 176.20 104.51 Z M 175.35 103.42 L 174.52 102.40 C 173.89 101.62 172.75 101.50 171.97 102.13 C 171.19 102.76 171.07 103.91 171.70 104.69 L 172.53 105.70 C 173.16 106.48 174.30 106.60 175.08 105.97 C 175.86 105.34 175.98 104.20 175.35 103.42 Z M 174.52 102.37 L 173.77 101.46 C 173.12 100.68 171.96 100.57 171.18 101.22 C 170.40 101.87 170.30 103.02 170.94 103.80 L 171.70 104.71 C 172.35 105.49 173.50 105.60 174.28 104.95 C 175.06 104.31 175.17 103.15 174.52 102.37 Z M 173.75 101.41 L 173.10 100.66 C 172.42 99.89 171.25 99.81 170.48 100.48 C 169.71 101.15 169.63 102.32 170.30 103.09 L 170.96 103.85 C 171.63 104.62 172.80 104.70 173.57 104.03 C 174.34 103.36 174.42 102.19 173.75 101.41 Z M 173.05 100.58 L 172.52 100.04 C 171.81 99.29 170.62 99.27 169.88 99.98 C 169.14 100.70 169.11 101.88 169.83 102.63 L 170.35 103.17 C 171.07 103.92 172.25 103.94 172.99 103.22 C 173.74 102.51 173.76 101.32 173.05 100.58 Z M 172.35 99.85 L 171.99 99.57 C 171.17 98.92 169.98 99.06 169.34 99.88 C 168.69 100.70 168.83 101.89 169.65 102.53 L 170.01 102.81 C 170.83 103.46 172.01 103.32 172.66 102.50 C 173.30 101.68 173.16 100.50 172.35 99.85 Z M 169.95 99.37 L 169.77 99.46 C 168.85 99.94 168.48 101.09 168.97 102.02 C 169.45 102.95 170.60 103.31 171.53 102.82 L 171.70 102.74 C 172.63 102.25 172.99 101.11 172.50 100.18 C 172.02 99.25 170.87 98.89 169.95 99.37 Z M 168.80 101.57 L 168.93 102.14 C 169.17 103.16 170.19 103.79 171.21 103.56 C 172.23 103.32 172.86 102.30 172.63 101.28 L 172.50 100.71 C 172.26 99.69 171.24 99.06 170.22 99.29 C 169.20 99.53 168.57 100.55 168.80 101.57 Z M 169.03 102.42 L 169.41 103.38 C 169.80 104.35 170.91 104.81 171.88 104.42 C 172.85 104.03 173.31 102.93 172.92 101.96 L 172.54 101.00 C 172.15 100.03 171.04 99.56 170.07 99.96 C 169.10 100.35 168.63 101.45 169.03 102.42 Z M 169.45 103.47 L 170.04 104.71 C 170.48 105.66 171.60 106.07 172.55 105.62 C 173.50 105.18 173.90 104.05 173.46 103.11 L 172.88 101.87 C 172.44 100.92 171.31 100.51 170.37 100.95 C 169.42 101.40 169.01 102.52 169.45 103.47 Z M 170.06 104.75 L 170.69 106.01 C 171.16 106.94 172.29 107.32 173.22 106.85 C 174.15 106.38 174.53 105.25 174.06 104.32 L 173.44 103.06 C 172.97 102.13 171.84 101.75 170.90 102.22 C 169.97 102.69 169.59 103.82 170.06 104.75 Z M 170.71 106.03 L 171.15 106.88 C 171.62 107.80 172.76 108.16 173.68 107.69 C 174.60 107.21 174.97 106.07 174.49 105.15 L 174.05 104.30 C 173.57 103.38 172.43 103.01 171.51 103.49 C 170.59 103.97 170.23 105.10 170.71 106.03 Z M 171.16 106.89 L 171.62 107.77 C 172.10 108.68 173.24 109.03 174.15 108.55 C 175.06 108.07 175.42 106.94 174.94 106.03 L 174.47 105.15 C 173.99 104.23 172.86 103.88 171.95 104.36 C 171.03 104.84 170.68 105.97 171.16 106.89 Z M 171.64 107.77 L 172.11 108.67 C 172.59 109.57 173.72 109.92 174.63 109.44 C 175.53 108.96 175.88 107.83 175.40 106.92 L 174.92 106.03 C 174.44 105.12 173.32 104.77 172.41 105.25 C 171.50 105.73 171.15 106.86 171.64 107.77 Z M 172.12 108.66 L 172.60 109.57 C 173.08 110.47 174.20 110.82 175.10 110.34 C 176.01 109.86 176.35 108.74 175.87 107.84 L 175.39 106.93 C 174.91 106.02 173.79 105.68 172.89 106.16 C 171.99 106.64 171.64 107.76 172.12 108.66 Z M 172.61 109.56 L 173.09 110.47 C 173.56 111.37 174.68 111.72 175.58 111.24 C 176.48 110.77 176.82 109.65 176.35 108.75 L 175.87 107.84 C 175.39 106.94 174.28 106.60 173.38 107.07 C 172.48 107.55 172.13 108.66 172.61 109.56 Z M 173.09 110.46 L 173.56 111.36 C 174.03 112.26 175.14 112.61 176.03 112.14 C 176.93 111.67 177.28 110.57 176.81 109.67 L 176.34 108.77 C 175.87 107.87 174.77 107.52 173.87 107.99 C 172.97 108.46 172.62 109.56 173.09 110.46 Z M 173.57 111.34 L 174.02 112.23 C 174.48 113.13 175.58 113.48 176.47 113.02 C 177.37 112.57 177.72 111.47 177.26 110.57 L 176.81 109.69 C 176.35 108.79 175.25 108.43 174.36 108.89 C 173.46 109.35 173.11 110.45 173.57 111.34 Z M 174.02 112.21 L 174.46 113.10 C 174.91 114.00 176.00 114.36 176.89 113.92 C 177.79 113.47 178.15 112.38 177.71 111.49 L 177.26 110.60 C 176.82 109.70 175.73 109.34 174.84 109.78 C 173.94 110.23 173.58 111.31 174.02 112.21 Z M 174.47 113.07 L 174.95 114.07 C 175.38 114.97 176.45 115.35 177.34 114.92 C 178.23 114.49 178.61 113.42 178.18 112.53 L 177.70 111.52 C 177.28 110.63 176.21 110.25 175.31 110.68 C 174.42 111.10 174.04 112.18 174.47 113.07 Z M 174.96 114.04 L 175.40 115.00 C 175.81 115.89 176.86 116.28 177.74 115.88 C 178.63 115.47 179.02 114.42 178.62 113.53 L 178.18 112.57 C 177.77 111.68 176.72 111.29 175.83 111.69 C 174.94 112.10 174.55 113.15 174.96 114.04 Z M 175.41 114.97 L 175.82 115.90 C 176.20 116.78 177.23 117.18 178.11 116.80 C 179.00 116.41 179.40 115.38 179.01 114.50 L 178.61 113.57 C 178.22 112.69 177.19 112.28 176.31 112.67 C 175.43 113.06 175.02 114.08 175.41 114.97 Z M 175.83 115.86 L 176.21 116.77 C 176.57 117.64 177.58 118.06 178.46 117.69 C 179.33 117.32 179.75 116.32 179.38 115.44 L 179.00 114.54 C 178.64 113.66 177.63 113.25 176.75 113.61 C 175.88 113.98 175.46 114.99 175.83 115.86 Z M 176.22 116.73 L 176.57 117.61 C 176.92 118.48 177.91 118.90 178.78 118.55 C 179.65 118.20 180.07 117.22 179.72 116.35 L 179.37 115.47 C 179.02 114.60 178.03 114.18 177.16 114.53 C 176.29 114.88 175.87 115.86 176.22 116.73 Z M 176.59 117.58 L 176.92 118.44 C 177.25 119.30 178.22 119.73 179.08 119.39 C 179.94 119.06 180.37 118.09 180.03 117.23 L 179.70 116.38 C 179.37 115.52 178.40 115.09 177.54 115.42 C 176.68 115.75 176.25 116.72 176.59 117.58 Z M 176.93 118.41 L 177.27 119.31 C 177.58 120.17 178.53 120.60 179.39 120.28 C 180.24 119.96 180.67 119.01 180.36 118.16 L 180.02 117.26 C 179.70 116.40 178.75 115.97 177.90 116.29 C 177.05 116.61 176.61 117.56 176.93 118.41 Z M 177.28 119.29 L 177.63 120.26 C 177.93 121.10 178.87 121.54 179.71 121.24 C 180.56 120.93 181.00 119.99 180.69 119.15 L 180.35 118.18 C 180.04 117.33 179.10 116.89 178.26 117.20 C 177.41 117.51 176.97 118.44 177.28 119.29 Z M 177.63 120.24 L 177.97 121.19 C 178.26 122.03 179.19 122.47 180.03 122.18 C 180.87 121.88 181.32 120.96 181.02 120.12 L 180.69 119.17 C 180.39 118.32 179.47 117.88 178.62 118.18 C 177.78 118.47 177.34 119.39 177.63 120.24 Z M 177.98 121.17 L 178.30 122.11 C 178.59 122.95 179.50 123.40 180.34 123.11 C 181.17 122.82 181.62 121.91 181.33 121.07 L 181.01 120.13 C 180.72 119.29 179.81 118.85 178.97 119.14 C 178.14 119.42 177.69 120.33 177.98 121.17 Z M 178.31 122.10 L 178.63 123.03 C 178.91 123.86 179.81 124.31 180.64 124.03 C 181.47 123.75 181.92 122.85 181.64 122.01 L 181.32 121.08 C 181.04 120.25 180.14 119.81 179.31 120.09 C 178.48 120.37 178.03 121.27 178.31 122.10 Z M 178.64 123.02 L 178.95 123.95 C 179.22 124.77 180.11 125.22 180.94 124.94 C 181.76 124.67 182.21 123.77 181.93 122.95 L 181.62 122.02 C 181.35 121.20 180.46 120.75 179.63 121.03 C 178.81 121.31 178.36 122.20 178.64 123.02 Z M 178.96 123.94 L 179.04 124.21 C 179.32 125.03 180.20 125.47 181.02 125.20 C 181.84 124.92 182.29 124.04 182.01 123.22 L 181.92 122.95 C 181.65 122.13 180.77 121.69 179.95 121.96 C 179.13 122.24 178.68 123.12 178.96 123.94 Z"
      fill="black"
      fill-rule="nonzero" /><path d="M 193.72 98.35 L 194.59 98.86 C 195.44 99.37 196.53 99.09 197.04 98.24 C 197.54 97.39 197.27 96.30 196.42 95.79 L 195.55 95.28 C 194.70 94.77 193.61 95.05 193.10 95.90 C 192.60 96.75 192.88 97.84 193.72 98.35 Z M 194.54 98.87 L 195.40 99.40 C 196.25 99.93 197.37 99.67 197.90 98.81 C 198.43 97.96 198.16 96.84 197.31 96.31 L 196.46 95.79 C 195.61 95.26 194.49 95.52 193.96 96.37 C 193.43 97.22 193.69 98.34 194.54 98.87 Z M 195.32 99.38 L 196.15 99.94 C 196.99 100.51 198.14 100.29 198.71 99.45 C 199.28 98.61 199.06 97.46 198.21 96.89 L 197.39 96.33 C 196.54 95.76 195.40 95.98 194.83 96.82 C 194.26 97.67 194.48 98.81 195.32 99.38 Z M 196.04 99.90 L 196.83 100.51 C 197.65 101.14 198.83 100.98 199.46 100.16 C 200.08 99.34 199.93 98.16 199.11 97.53 L 198.32 96.93 C 197.50 96.30 196.32 96.46 195.70 97.28 C 195.07 98.10 195.22 99.27 196.04 99.90 Z M 196.70 100.43 L 197.44 101.10 C 198.22 101.80 199.42 101.74 200.12 100.96 C 200.82 100.18 200.76 98.98 199.98 98.27 L 199.24 97.61 C 198.46 96.91 197.26 96.97 196.56 97.75 C 195.86 98.53 195.92 99.73 196.70 100.43 Z M 197.30 100.98 L 197.94 101.68 C 198.66 102.46 199.87 102.51 200.65 101.80 C 201.43 101.08 201.48 99.87 200.76 99.09 L 200.12 98.39 C 199.40 97.61 198.19 97.56 197.41 98.27 C 196.63 98.99 196.58 100.20 197.30 100.98 Z M 197.83 101.54 L 198.37 102.25 C 199.01 103.09 200.21 103.25 201.05 102.62 C 201.89 101.98 202.05 100.78 201.41 99.94 L 200.87 99.23 C 200.23 98.39 199.04 98.23 198.20 98.87 C 197.36 99.50 197.19 100.70 197.83 101.54 Z M 198.31 102.12 L 198.81 102.89 C 199.37 103.77 200.54 104.02 201.41 103.46 C 202.29 102.90 202.54 101.73 201.98 100.86 L 201.48 100.08 C 200.91 99.20 199.75 98.95 198.87 99.51 C 198.00 100.08 197.75 101.24 198.31 102.12 Z M 198.77 102.78 L 199.24 103.63 C 199.74 104.52 200.87 104.84 201.77 104.34 C 202.66 103.85 202.99 102.71 202.49 101.82 L 202.02 100.97 C 201.52 100.08 200.39 99.75 199.49 100.25 C 198.59 100.75 198.27 101.88 198.77 102.78 Z M 199.22 103.53 L 199.67 104.45 C 200.12 105.36 201.22 105.73 202.13 105.28 C 203.03 104.83 203.41 103.74 202.96 102.83 L 202.51 101.91 C 202.06 101.00 200.96 100.63 200.05 101.08 C 199.15 101.53 198.77 102.62 199.22 103.53 Z M 199.67 104.38 L 200.11 105.36 C 200.52 106.28 201.59 106.68 202.50 106.27 C 203.41 105.87 203.82 104.80 203.41 103.89 L 202.96 102.90 C 202.56 101.99 201.49 101.58 200.58 101.99 C 199.67 102.40 199.26 103.47 199.67 104.38 Z M 200.11 105.31 L 200.56 106.37 C 200.94 107.28 201.98 107.71 202.89 107.33 C 203.80 106.95 204.22 105.91 203.85 105.00 L 203.40 103.94 C 203.02 103.03 201.98 102.60 201.07 102.98 C 200.16 103.36 199.74 104.40 200.11 105.31 Z M 200.57 106.34 L 200.91 107.18 C 201.27 108.08 202.29 108.52 203.19 108.16 C 204.09 107.80 204.53 106.78 204.17 105.88 L 203.83 105.03 C 203.47 104.13 202.45 103.69 201.55 104.05 C 200.65 104.42 200.21 105.44 200.57 106.34 Z M 200.92 107.16 L 201.26 108.03 C 201.61 108.93 202.61 109.37 203.51 109.02 C 204.40 108.67 204.85 107.67 204.50 106.77 L 204.16 105.90 C 203.81 105.00 202.80 104.56 201.91 104.91 C 201.01 105.26 200.57 106.26 200.92 107.16 Z M 201.27 108.01 L 201.62 108.92 C 201.95 109.81 202.95 110.25 203.84 109.92 C 204.72 109.58 205.17 108.58 204.83 107.70 L 204.49 106.79 C 204.15 105.90 203.15 105.46 202.27 105.79 C 201.38 106.13 200.93 107.13 201.27 108.01 Z M 201.63 108.90 L 201.98 109.84 C 202.31 110.72 203.29 111.16 204.17 110.83 C 205.05 110.51 205.49 109.53 205.17 108.65 L 204.82 107.71 C 204.49 106.83 203.51 106.39 202.63 106.71 C 201.75 107.04 201.30 108.02 201.63 108.90 Z M 201.99 109.82 L 202.35 110.78 C 202.67 111.65 203.63 112.10 204.51 111.77 C 205.38 111.45 205.82 110.49 205.50 109.61 L 205.15 108.66 C 204.83 107.79 203.86 107.34 202.99 107.66 C 202.12 107.98 201.67 108.95 201.99 109.82 Z M 202.36 110.77 L 202.72 111.74 C 203.03 112.60 203.98 113.05 204.85 112.73 C 205.71 112.42 206.15 111.46 205.84 110.60 L 205.49 109.63 C 205.17 108.76 204.22 108.32 203.35 108.63 C 202.49 108.95 202.05 109.90 202.36 110.77 Z M 202.73 111.73 L 203.09 112.71 C 203.40 113.57 204.34 114.01 205.19 113.70 C 206.05 113.39 206.49 112.45 206.18 111.60 L 205.82 110.61 C 205.52 109.76 204.57 109.31 203.72 109.62 C 202.87 109.93 202.42 110.87 202.73 111.73 Z M 203.11 112.70 L 203.46 113.70 C 203.77 114.54 204.70 114.98 205.54 114.68 C 206.39 114.37 206.82 113.44 206.52 112.60 L 206.16 111.60 C 205.86 110.76 204.93 110.32 204.08 110.63 C 203.24 110.93 202.80 111.86 203.11 112.70 Z M 203.48 113.69 L 203.71 114.33 C 204.01 115.17 204.93 115.60 205.77 115.30 C 206.60 115.00 207.04 114.08 206.74 113.25 L 206.51 112.60 C 206.21 111.77 205.28 111.33 204.45 111.63 C 203.61 111.93 203.18 112.85 203.48 113.69 Z"
      fill="black"
      fill-rule="nonzero" /></svg>