<svg xmlns="http://www.w3.org/2000/svg" width="300" height="300" viewBox="0 0 300 300">
<path d="M 84.85 102.22 L 83.79 102.87 C 83.01 103.35 82.76 104.37 83.23 105.16 C 83.71 105.95 84.74 106.19 85.52 105.72 L 86.58 105.07 C 87.37 104.59 87.62 103.57 87.14 102.78 C 86.66 102.00 85.64 101.75 84.85 102.22 Z M 83.76 102.86 L 82.74 103.50 C 81.94 103.99 81.70 105.04 82.20 105.83 C 82.69 106.63 83.74 106.87 84.53 106.37 L 85.56 105.73 C 86.35 105.23 86.59 104.19 86.09 103.40 C 85.60 102.60 84.55 102.36 83.76 102.86 Z M 82.68 103.50 L 81.73 104.13 C 80.94 104.65 80.73 105.72 81.25 106.52 C 81.78 107.31 82.85 107.52 83.64 107.00 L 84.59 106.37 C 85.38 105.84 85.59 104.77 85.07 103.98 C 84.54 103.19 83.47 102.97 82.68 103.50 Z M 81.65 104.15 L 80.82 104.77 C 80.04 105.34 79.87 106.43 80.44 107.21 C 81.01 107.99 82.10 108.16 82.88 107.59 L 83.72 106.97 C 84.50 106.40 84.67 105.31 84.10 104.53 C 83.52 103.75 82.43 103.58 81.65 104.15 Z M 80.69 104.83 L 80.00 105.42 C 79.26 106.06 79.18 107.18 79.82 107.93 C 80.46 108.67 81.58 108.75 82.32 108.11 L 83.01 107.52 C 83.75 106.88 83.84 105.76 83.20 105.02 C 82.56 104.27 81.43 104.19 80.69 104.83 Z M 79.81 105.57 L 79.32 106.13 C 78.65 106.88 78.73 108.02 79.47 108.68 C 80.22 109.34 81.36 109.27 82.02 108.52 L 82.52 107.96 C 83.18 107.21 83.11 106.07 82.36 105.41 C 81.61 104.75 80.47 104.82 79.81 105.57 Z M 79.02 106.52 L 78.74 107.10 C 78.29 108.01 78.67 109.10 79.57 109.55 C 80.48 110.00 81.58 109.62 82.03 108.72 L 82.31 108.14 C 82.76 107.23 82.38 106.13 81.48 105.69 C 80.57 105.24 79.47 105.61 79.02 106.52 Z M 78.54 108.11 L 78.62 108.84 C 78.74 109.86 79.65 110.59 80.67 110.48 C 81.69 110.36 82.42 109.45 82.30 108.43 L 82.22 107.70 C 82.11 106.69 81.19 105.95 80.18 106.07 C 79.16 106.18 78.43 107.10 78.54 108.11 Z M 79.04 109.85 L 79.59 110.49 C 80.25 111.27 81.43 111.37 82.22 110.70 C 83.00 110.04 83.10 108.86 82.43 108.07 L 81.89 107.43 C 81.22 106.64 80.04 106.55 79.26 107.21 C 78.47 107.88 78.37 109.06 79.04 109.85 Z M 80.02 110.88 L 80.91 111.43 C 81.80 111.98 82.96 111.71 83.50 110.82 C 84.05 109.94 83.78 108.78 82.89 108.23 L 82.00 107.68 C 81.12 107.13 79.96 107.41 79.41 108.29 C 78.86 109.17 79.13 110.33 80.02 110.88 Z M 81.18 111.59 L 82.31 112.05 C 83.28 112.45 84.39 111.99 84.79 111.02 C 85.18 110.05 84.72 108.94 83.75 108.54 L 82.62 108.08 C 81.66 107.68 80.55 108.14 80.15 109.11 C 79.75 110.08 80.21 111.19 81.18 111.59 Z M 82.47 112.12 L 83.41 112.41 C 84.41 112.72 85.48 112.16 85.79 111.16 C 86.11 110.15 85.54 109.08 84.54 108.77 L 83.60 108.48 C 82.59 108.16 81.52 108.73 81.21 109.73 C 80.90 110.74 81.46 111.81 82.47 112.12 Z M 83.51 112.44 L 84.38 112.66 C 85.40 112.92 86.44 112.30 86.69 111.27 C 86.95 110.25 86.33 109.21 85.31 108.96 L 84.44 108.74 C 83.41 108.48 82.38 109.10 82.12 110.12 C 81.86 111.15 82.48 112.18 83.51 112.44 Z M 84.45 112.68 L 85.37 112.87 C 86.40 113.08 87.42 112.42 87.63 111.39 C 87.84 110.35 87.18 109.34 86.15 109.13 L 85.23 108.94 C 84.20 108.72 83.18 109.39 82.97 110.42 C 82.76 111.45 83.42 112.47 84.45 112.68 Z M 85.43 112.88 L 86.40 113.05 C 87.44 113.23 88.43 112.53 88.61 111.49 C 88.79 110.45 88.09 109.46 87.05 109.28 L 86.08 109.11 C 85.04 108.93 84.05 109.63 83.87 110.67 C 83.69 111.71 84.39 112.70 85.43 112.88 Z M 86.45 113.06 L 87.47 113.21 C 88.52 113.36 89.49 112.64 89.64 111.59 C 89.80 110.55 89.07 109.57 88.02 109.42 L 87.00 109.27 C 85.96 109.12 84.98 109.84 84.83 110.89 C 84.68 111.93 85.40 112.91 86.45 113.06 Z M 87.51 113.22 L 88.59 113.35 C 89.64 113.49 90.60 112.74 90.73 111.69 C 90.86 110.64 90.12 109.69 89.07 109.55 L 87.99 109.41 C 86.94 109.28 85.98 110.02 85.85 111.07 C 85.71 112.12 86.46 113.08 87.51 113.22 Z M 88.61 113.36 L 89.76 113.49 C 90.81 113.61 91.76 112.86 91.88 111.80 C 92.00 110.75 91.25 109.80 90.19 109.68 L 89.05 109.55 C 88.00 109.43 87.05 110.18 86.92 111.23 C 86.80 112.28 87.56 113.24 88.61 113.36 Z M 89.77 113.49 L 90.72 113.60 C 91.78 113.71 92.72 112.95 92.84 111.90 C 92.95 110.84 92.19 109.90 91.14 109.78 L 90.18 109.68 C 89.13 109.56 88.18 110.32 88.07 111.38 C 87.95 112.43 88.71 113.38 89.77 113.49 Z M 90.73 113.60 L 91.72 113.70 C 92.77 113.81 93.72 113.04 93.83 111.99 C 93.94 110.94 93.17 109.99 92.12 109.88 L 91.13 109.78 C 90.08 109.67 89.13 110.44 89.02 111.49 C 88.91 112.54 89.68 113.49 90.73 113.60 Z M 91.73 113.70 L 92.74 113.80 C 93.79 113.91 94.73 113.14 94.84 112.09 C 94.94 111.03 94.17 110.09 93.12 109.98 L 92.11 109.88 C 91.06 109.78 90.11 110.54 90.01 111.60 C 89.90 112.65 90.67 113.59 91.73 113.70 Z M 92.74 113.80 L 93.76 113.90 C 94.82 114.01 95.76 113.23 95.86 112.18 C 95.96 111.12 95.19 110.18 94.14 110.08 L 93.11 109.98 C 92.06 109.88 91.12 110.65 91.02 111.71 C 90.92 112.76 91.69 113.70 92.74 113.80 Z M 93.77 113.90 L 94.80 114.00 C 95.85 114.10 96.79 113.32 96.89 112.27 C 96.99 111.21 96.21 110.28 95.16 110.18 L 94.13 110.08 C 93.07 109.98 92.14 110.76 92.04 111.81 C 91.94 112.87 92.71 113.80 93.77 113.90 Z M 94.80 114.00 L 95.82 114.09 C 96.87 114.19 97.81 113.41 97.91 112.36 C 98.00 111.30 97.22 110.37 96.17 110.27 L 95.15 110.18 C 94.09 110.08 93.16 110.86 93.06 111.91 C 92.97 112.97 93.74 113.90 94.80 114.00 Z M 95.82 114.09 L 96.82 114.18 C 97.88 114.28 98.81 113.50 98.91 112.44 C 99.00 111.38 98.22 110.45 97.16 110.36 L 96.16 110.27 C 95.11 110.18 94.17 110.96 94.08 112.01 C 93.99 113.07 94.77 114.00 95.82 114.09 Z M 96.83 114.18 L 97.80 114.27 C 98.86 114.36 99.79 113.58 99.88 112.52 C 99.97 111.46 99.19 110.53 98.13 110.44 L 97.16 110.36 C 96.10 110.27 95.17 111.05 95.08 112.11 C 94.99 113.16 95.77 114.09 96.83 114.18 Z M 97.81 114.27 L 98.84 114.36 C 99.90 114.44 100.83 113.66 100.92 112.60 C 101.01 111.54 100.22 110.61 99.16 110.53 L 98.12 110.44 C 97.07 110.35 96.14 111.14 96.05 112.19 C 95.96 113.25 96.75 114.18 97.81 114.27 Z M 98.85 114.36 L 99.94 114.44 C 100.99 114.53 101.92 113.74 102.01 112.68 C 102.09 111.62 101.30 110.70 100.24 110.61 L 99.16 110.53 C 98.10 110.44 97.17 111.23 97.09 112.29 C 97.00 113.35 97.79 114.27 98.85 114.36 Z M 99.94 114.44 L 100.98 114.52 C 102.04 114.60 102.96 113.81 103.04 112.75 C 103.12 111.69 102.33 110.77 101.27 110.69 L 100.23 110.61 C 99.18 110.53 98.25 111.32 98.17 112.38 C 98.09 113.44 98.89 114.36 99.94 114.44 Z M 100.99 114.52 L 101.98 114.59 C 103.04 114.67 103.96 113.87 104.04 112.81 C 104.11 111.75 103.32 110.83 102.26 110.76 L 101.26 110.69 C 100.20 110.61 99.28 111.41 99.21 112.47 C 99.13 113.53 99.93 114.45 100.99 114.52 Z M 101.99 114.59 L 102.96 114.66 C 104.02 114.73 104.93 113.93 105.00 112.87 C 105.07 111.81 104.27 110.89 103.21 110.82 L 102.25 110.76 C 101.19 110.69 100.27 111.49 100.20 112.55 C 100.13 113.61 100.93 114.52 101.99 114.59 Z M 102.97 114.66 L 103.91 114.72 C 104.97 114.78 105.88 113.98 105.94 112.92 C 106.01 111.86 105.20 110.94 104.14 110.88 L 103.20 110.82 C 102.14 110.76 101.23 111.56 101.17 112.62 C 101.10 113.68 101.91 114.59 102.97 114.66 Z M 103.92 114.72 L 104.84 114.77 C 105.90 114.83 106.81 114.02 106.87 112.96 C 106.93 111.90 106.12 110.99 105.06 110.93 L 104.13 110.88 C 103.07 110.82 102.17 111.63 102.11 112.69 C 102.05 113.75 102.86 114.66 103.92 114.72 Z M 104.85 114.77 L 105.81 114.82 C 106.87 114.87 107.78 114.06 107.83 113.00 C 107.89 111.94 107.07 111.03 106.01 110.98 L 105.05 110.93 C 103.99 110.88 103.09 111.69 103.03 112.75 C 102.98 113.81 103.79 114.72 104.85 114.77 Z M 105.82 114.82 L 106.81 114.87 C 107.87 114.91 108.77 114.09 108.82 113.03 C 108.86 111.97 108.04 111.07 106.98 111.02 L 106.00 110.98 C 104.94 110.93 104.04 111.75 103.99 112.81 C 103.94 113.87 104.76 114.77 105.82 114.82 Z M 106.82 114.87 L 107.80 114.91 C 108.87 114.95 109.76 114.12 109.80 113.06 C 109.85 112.00 109.02 111.11 107.96 111.06 L 106.97 111.02 C 105.91 110.98 105.02 111.81 104.97 112.87 C 104.93 113.93 105.76 114.82 106.82 114.87 Z M 107.81 114.91 L 108.81 114.94 C 109.87 114.98 110.76 114.15 110.80 113.09 C 110.84 112.03 110.01 111.13 108.94 111.10 L 107.95 111.06 C 106.89 111.03 106.00 111.86 105.96 112.92 C 105.92 113.98 106.75 114.87 107.81 114.91 Z M 108.82 114.94 L 109.82 114.97 C 110.88 115.00 111.77 114.17 111.80 113.11 C 111.83 112.04 111.00 111.16 109.94 111.13 L 108.93 111.10 C 107.87 111.07 106.98 111.90 106.95 112.96 C 106.92 114.02 107.76 114.91 108.82 114.94 Z M 109.83 114.97 L 110.85 115.00 C 111.91 115.02 112.79 114.18 112.82 113.12 C 112.84 112.06 112.00 111.18 110.94 111.15 L 109.92 111.13 C 108.86 111.10 107.98 111.94 107.96 113.00 C 107.93 114.07 108.77 114.95 109.83 114.97 Z M 110.86 115.00 L 111.88 115.02 C 112.94 115.04 113.82 114.19 113.84 113.13 C 113.86 112.07 113.01 111.19 111.95 111.17 L 110.93 111.15 C 109.87 111.13 108.99 111.98 108.97 113.04 C 108.95 114.10 109.79 114.98 110.86 115.00 Z M 111.89 115.02 L 112.86 115.03 C 113.92 115.04 114.79 114.20 114.81 113.13 C 114.82 112.07 113.97 111.20 112.91 111.18 L 111.94 111.17 C 110.88 111.15 110.00 112.00 109.99 113.07 C 109.98 114.13 110.83 115.00 111.89 115.02 Z M 112.87 115.03 L 113.85 115.04 C 114.91 115.05 115.78 114.20 115.79 113.13 C 115.80 112.07 114.95 111.20 113.89 111.19 L 112.90 111.18 C 111.84 111.17 110.97 112.02 110.96 113.09 C 110.95 114.15 111.80 115.02 112.87 115.03 Z M 113.86 115.04 L 114.85 115.05 C 115.91 115.05 116.78 114.20 116.79 113.13 C 116.79 112.07 115.94 111.20 114.87 111.20 L 113.88 111.19 C 112.82 111.18 111.95 112.04 111.94 113.10 C 111.94 114.17 112.79 115.03 113.86 115.04 Z M 114.85 115.05 L 115.86 115.05 C 116.92 115.05 117.78 114.20 117.79 113.13 C 117.79 112.07 116.93 111.21 115.87 111.20 L 114.87 111.20 C 113.81 111.19 112.94 112.05 112.94 113.11 C 112.93 114.18 113.79 115.04 114.85 115.05 Z M 115.86 115.05 L 116.87 115.05 C 117.93 115.05 118.80 114.19 118.80 113.13 C 118.80 112.07 117.94 111.21 116.88 111.20 L 115.87 111.20 C 114.81 111.20 113.94 112.06 113.94 113.12 C 113.94 114.18 114.80 115.05 115.86 115.05 Z M 116.87 115.05 L 117.89 115.05 C 118.96 115.05 119.82 114.19 119.82 113.13 C 119.82 112.07 118.96 111.20 117.90 111.20 L 116.88 111.20 C 115.81 111.20 114.95 112.06 114.95 113.13 C 114.95 114.19 115.81 115.05 116.87 115.05 Z M 117.89 115.05 L 118.91 115.05 C 119.98 115.05 120.84 114.19 120.84 113.13 C 120.84 112.07 119.98 111.20 118.92 111.20 L 117.89 111.20 C 116.83 111.20 115.97 112.07 115.97 113.13 C 115.97 114.19 116.83 115.05 117.89 115.05 Z M 118.92 115.05 L 119.90 115.05 C 120.97 115.05 121.83 114.19 121.83 113.13 C 121.83 112.07 120.97 111.20 119.90 111.20 L 118.92 111.20 C 117.85 111.20 116.99 112.07 116.99 113.13 C 116.99 114.19 117.85 115.05 118.92 115.05 Z M 119.90 115.05 L 120.89 115.05 C 121.96 115.05 122.82 114.19 122.82 113.13 C 122.82 112.07 121.96 111.20 120.89 111.20 L 119.90 111.20 C 118.84 111.20 117.98 112.07 117.98 113.13 C 117.98 114.19 118.84 115.05 119.90 115.05 Z M 120.89 115.05 L 121.89 115.05 C 122.95 115.05 123.81 114.19 123.81 113.13 C 123.81 112.07 122.95 111.20 121.89 111.20 L 120.89 111.20 C 119.83 111.20 118.97 112.07 118.97 113.13 C 118.97 114.19 119.83 115.05 120.89 115.05 Z M 121.89 115.05 L 122.89 115.05 C 123.95 115.05 124.81 114.19 124.81 113.13 C 124.81 112.07 123.95 111.20 122.89 111.20 L 121.89 111.20 C 120.83 111.20 119.97 112.07 119.97 113.13 C 119.97 114.19 120.83 115.05 121.89 115.05 Z M 122.89 115.05 L 123.89 115.05 C 124.96 115.05 125.82 114.19 125.82 113.13 C 125.82 112.07 124.96 111.20 123.89 111.20 L 122.89 111.20 C 121.83 111.20 120.97 112.07 120.97 113.13 C 120.97 114.19 121.83 115.05 122.89 115.05 Z M 123.89 115.05 L 124.90 115.05 C 125.96 115.05 126.83 114.19 126.83 113.13 C 126.83 112.07 125.96 111.20 124.90 111.20 L 123.89 111.20 C 122.83 111.20 121.97 112.07 121.97 113.13 C 121.97 114.19 122.83 115.05 123.89 115.05 Z M 124.90 115.05 L 125.91 115.05 C 126.98 115.05 127.84 114.19 127.84 113.13 C 127.84 112.07 126.98 111.20 125.91 111.20 L 124.90 111.20 C 123.84 111.20 122.98 112.07 122.98 113.13 C 122.98 114.19 123.84 115.05 124.90 115.05 Z M 125.91 115.05 L 126.91 115.05 C 127.98 115.05 128.84 114.19 128.84 113.13 C 128.84 112.07 127.98 111.20 126.91 111.20 L 125.91 111.20 C 124.85 111.20 123.99 112.07 123.99 113.13 C 123.99 114.19 124.85 115.05 125.91 115.05 Z M 126.91 115.05 L 127.91 115.05 C 128.98 115.05 129.84 114.19 129.84 113.13 C 129.84 112.07 128.98 111.21 127.91 111.21 L 126.91 111.21 C 125.85 111.21 124.99 112.07 124.99 113.13 C 124.99 114.19 125.85 115.05 126.91 115.05 Z M 127.91 115.05 L 128.91 115.05 C 129.98 115.05 130.84 114.19 130.84 113.13 C 130.84 112.07 129.98 111.21 128.91 111.21 L 127.91 111.21 C 126.85 111.21 125.99 112.07 125.99 113.13 C 125.99 114.19 126.85 115.05 127.91 115.05 Z M 128.91 115.05 L 129.92 115.05 C 130.98 115.05 131.84 114.19 131.84 113.13 C 131.84 112.07 130.98 111.21 129.92 111.21 L 128.91 111.21 C 127.85 111.21 126.99 112.07 126.99 113.13 C 126.99 114.19 127.85 115.05 128.91 115.05 Z M 129.92 115.05 L 130.92 115.05 C 131.98 115.05 132.84 114.19 132.84 113.13 C 132.84 112.07 131.98 111.21 130.92 111.21 L 129.92 111.21 C 128.86 111.21 128.00 112.07 128.00 113.13 C 128.00 114.19 128.86 115.05 129.92 115.05 Z M 130.92 115.05 L 131.92 115.05 C 132.98 115.05 133.84 114.19 133.84 113.13 C 133.84 112.07 132.98 111.21 131.92 111.21 L 130.92 111.21 C 129.86 111.21 129.00 112.07 129.00 113.13 C 129.00 114.19 129.86 115.05 130.92 115.05 Z M 131.92 115.05 L 132.92 115.05 C 133.98 115.05 134.84 114.19 134.84 113.13 C 134.84 112.07 133.98 111.21 132.92 111.21 L 131.92 111.21 C 130.86 111.21 130.00 112.07 130.00 113.13 C 130.00 114.19 130.86 115.05 131.92 115.05 Z M 132.92 115.05 L 133.91 115.05 C 134.97 115.05 135.83 114.19 135.83 113.13 C 135.83 112.07 134.97 111.21 133.91 111.21 L 132.92 111.21 C 131.86 111.21 131.00 112.07 131.00 113.13 C 131.00 114.19 131.86 115.05 132.92 115.05 Z M 133.91 115.05 L 134.91 115.05 C 135.97 115.05 136.82 114.19 136.82 113.13 C 136.82 112.07 135.97 111.21 134.91 111.21 L 133.91 111.21 C 132.85 111.21 132.00 112.07 132.00 113.13 C 132.00 114.19 132.85 115.05 133.91 115.05 Z M 134.91 115.05 L 135.90 115.05 C 136.96 115.05 137.82 114.19 137.82 113.13 C 137.82 112.07 136.96 111.21 135.90 111.21 L 134.91 111.21 C 133.85 111.21 132.99 112.07 132.99 113.13 C 132.99 114.19 133.85 115.05 134.91 115.05 Z M 135.90 115.05 L 136.89 115.05 C 137.95 115.05 138.81 114.19 138.81 113.13 C 138.81 112.07 137.95 111.21 136.89 111.21 L 135.90 111.21 C 134.84 111.21 133.98 112.07 133.98 113.13 C 133.98 114.19 134.84 115.05 135.90 115.05 Z M 136.89 115.04 L 137.89 115.04 C 138.94 115.04 139.80 114.19 139.80 113.13 C 139.80 112.07 138.94 111.21 137.89 111.21 L 136.89 111.21 C 135.83 111.21 134.97 112.07 134.97 113.13 C 134.97 114.19 135.83 115.04 136.89 115.04 Z M 137.89 115.04 L 138.89 115.04 C 139.95 115.04 140.80 114.19 140.80 113.13 C 140.80 112.07 139.95 111.21 138.89 111.21 L 137.89 111.21 C 136.83 111.21 135.97 112.07 135.97 113.13 C 135.97 114.19 136.83 115.04 137.89 115.04 Z M 138.89 115.04 L 139.90 115.04 C 140.95 115.04 141.81 114.19 141.81 113.13 C 141.81 112.07 140.95 111.21 139.90 111.21 L 138.89 111.21 C 137.83 111.21 136.97 112.07 136.97 113.13 C 136.97 114.19 137.83 115.04 138.89 115.04 Z M 139.90 115.04 L 140.92 115.04 C 141.97 115.04 142.83 114.19 142.83 113.13 C 142.83 112.07 141.97 111.21 140.92 111.21 L 139.90 111.21 C 138.84 111.21 137.98 112.07 137.98 113.13 C 137.98 114.19 138.84 115.04 139.90 115.04 Z M 140.92 115.04 L 141.92 115.04 C 142.98 115.04 143.83 114.18 143.83 113.13 C 143.83 112.07 142.98 111.22 141.92 111.22 L 140.92 111.22 C 139.86 111.22 139.00 112.07 139.00 113.13 C 139.00 114.19 139.86 115.04 140.92 115.04 Z M 141.92 115.04 L 142.93 115.04 C 143.99 115.04 144.84 114.18 144.84 113.13 C 144.84 112.07 143.99 111.22 142.93 111.22 L 141.92 111.22 C 140.86 111.22 140.01 112.07 140.01 113.13 C 140.01 114.19 140.87 115.04 141.92 115.04 Z M 142.94 115.04 L 143.95 115.04 C 145.00 115.03 145.86 114.18 145.86 113.12 C 145.85 112.07 145.00 111.22 143.94 111.22 L 142.93 111.22 C 141.88 111.22 141.02 112.08 141.02 113.13 C 141.02 114.19 141.88 115.04 142.94 115.04 Z M 143.95 115.03 L 144.97 115.03 C 146.02 115.03 146.87 114.17 146.87 113.12 C 146.86 112.06 146.01 111.21 144.95 111.22 L 143.94 111.22 C 142.89 111.22 142.04 112.08 142.04 113.13 C 142.04 114.19 142.90 115.04 143.95 115.03 Z M 144.97 115.03 L 145.97 115.02 C 147.03 115.02 147.88 114.16 147.87 113.11 C 147.87 112.06 147.01 111.21 145.96 111.21 L 144.95 111.22 C 143.90 111.22 143.05 112.08 143.05 113.13 C 143.06 114.19 143.92 115.03 144.97 115.03 Z M 145.98 115.02 L 146.97 115.02 C 148.03 115.01 148.87 114.15 148.86 113.10 C 148.86 112.04 148.00 111.20 146.95 111.21 L 145.95 111.21 C 144.90 111.22 144.05 112.08 144.06 113.13 C 144.07 114.18 144.93 115.03 145.98 115.02 Z M 146.98 115.01 L 147.96 115.00 C 149.01 114.99 149.85 114.13 149.84 113.08 C 149.83 112.03 148.97 111.19 147.92 111.20 L 146.94 111.21 C 145.89 111.22 145.05 112.08 145.06 113.13 C 145.07 114.18 145.93 115.02 146.98 115.01 Z M 147.97 115.00 L 148.97 114.99 C 150.02 114.97 150.85 114.11 150.84 113.06 C 150.82 112.01 149.96 111.17 148.91 111.18 L 147.91 111.20 C 146.86 111.21 146.02 112.08 146.04 113.13 C 146.05 114.18 146.92 115.02 147.97 115.00 Z M 148.97 114.98 L 150.02 114.96 C 151.06 114.94 151.90 114.08 151.88 113.03 C 151.86 111.98 150.99 111.14 149.94 111.17 L 148.90 111.19 C 147.85 111.21 147.02 112.07 147.04 113.12 C 147.06 114.17 147.93 115.01 148.97 114.98 Z M 150.03 114.96 L 151.05 114.93 C 152.09 114.91 152.92 114.03 152.89 112.99 C 152.86 111.94 151.99 111.11 150.95 111.14 L 149.93 111.17 C 148.88 111.20 148.05 112.07 148.08 113.12 C 148.11 114.16 148.98 114.99 150.03 114.96 Z M 151.06 114.93 L 152.06 114.90 C 153.11 114.86 153.93 113.98 153.89 112.94 C 153.85 111.89 152.98 111.07 151.93 111.11 L 150.93 111.14 C 149.88 111.18 149.06 112.06 149.10 113.10 C 149.14 114.15 150.02 114.97 151.06 114.93 Z M 152.08 114.89 L 153.07 114.85 C 154.11 114.80 154.92 113.92 154.87 112.87 C 154.83 111.83 153.94 111.02 152.90 111.07 L 151.91 111.11 C 150.87 111.16 150.06 112.04 150.10 113.09 C 150.15 114.13 151.04 114.94 152.08 114.89 Z M 153.09 114.85 L 154.06 114.79 C 155.11 114.73 155.90 113.84 155.84 112.80 C 155.79 111.75 154.89 110.95 153.85 111.01 L 152.87 111.07 C 151.83 111.13 151.03 112.02 151.09 113.06 C 151.15 114.11 152.04 114.91 153.09 114.85 Z M 154.09 114.79 L 155.06 114.72 C 156.10 114.65 156.88 113.75 156.81 112.70 C 156.74 111.66 155.83 110.88 154.79 110.95 L 153.82 111.02 C 152.78 111.09 152.00 111.99 152.07 113.03 C 152.14 114.07 153.05 114.86 154.09 114.79 Z M 155.08 114.72 L 156.06 114.63 C 157.10 114.55 157.87 113.63 157.79 112.60 C 157.70 111.56 156.79 110.79 155.75 110.87 L 154.77 110.95 C 153.73 111.04 152.96 111.95 153.04 112.99 C 153.13 114.03 154.04 114.80 155.08 114.72 Z M 156.09 114.63 L 157.08 114.53 C 158.12 114.43 158.88 113.51 158.78 112.47 C 158.67 111.44 157.75 110.68 156.72 110.78 L 155.72 110.88 C 154.69 110.98 153.93 111.90 154.03 112.93 C 154.13 113.97 155.05 114.73 156.09 114.63 Z M 157.10 114.53 L 158.09 114.42 C 159.13 114.31 159.88 113.38 159.76 112.35 C 159.65 111.32 158.73 110.57 157.69 110.68 L 156.70 110.79 C 155.66 110.90 154.92 111.82 155.03 112.86 C 155.14 113.89 156.07 114.64 157.10 114.53 Z M 158.11 114.42 L 159.10 114.30 C 160.13 114.18 160.87 113.25 160.75 112.22 C 160.64 111.19 159.70 110.45 158.67 110.57 L 157.68 110.68 C 156.65 110.80 155.91 111.73 156.03 112.76 C 156.14 113.80 157.08 114.54 158.11 114.42 Z M 159.11 114.30 L 160.10 114.18 C 161.13 114.06 161.87 113.12 161.74 112.10 C 161.62 111.07 160.69 110.33 159.66 110.45 L 158.66 110.57 C 157.64 110.70 156.90 111.63 157.02 112.66 C 157.15 113.69 158.08 114.42 159.11 114.30 Z M 160.10 114.18 L 161.10 114.06 C 162.13 113.93 162.86 113.00 162.73 111.97 C 162.61 110.95 161.68 110.21 160.65 110.34 L 159.66 110.46 C 158.63 110.58 157.90 111.51 158.02 112.54 C 158.14 113.57 159.08 114.30 160.10 114.18 Z M 161.10 114.06 L 162.09 113.94 C 163.12 113.81 163.85 112.88 163.73 111.86 C 163.60 110.83 162.67 110.10 161.65 110.22 L 160.65 110.34 C 159.63 110.46 158.89 111.39 159.02 112.42 C 159.14 113.45 160.07 114.18 161.10 114.06 Z M 162.08 113.94 L 163.08 113.82 C 164.10 113.70 164.84 112.78 164.72 111.75 C 164.60 110.73 163.67 109.99 162.65 110.11 L 161.65 110.22 C 160.63 110.34 159.89 111.27 160.01 112.29 C 160.13 113.32 161.06 114.05 162.08 113.94 Z M 163.07 113.82 L 164.06 113.71 C 165.09 113.60 165.82 112.67 165.71 111.65 C 165.60 110.63 164.68 109.89 163.65 110.00 L 162.66 110.11 C 161.63 110.22 160.89 111.15 161.01 112.17 C 161.12 113.19 162.04 113.93 163.07 113.82 Z M 164.05 113.71 L 165.05 113.60 C 166.07 113.49 166.81 112.57 166.70 111.55 C 166.59 110.53 165.68 109.79 164.65 109.90 L 163.66 110.00 C 162.64 110.11 161.90 111.03 162.00 112.05 C 162.11 113.08 163.03 113.82 164.05 113.71 Z M 165.04 113.60 L 166.04 113.49 C 167.06 113.39 167.80 112.47 167.70 111.45 C 167.59 110.43 166.67 109.69 165.65 109.80 L 164.66 109.90 C 163.64 110.01 162.90 110.92 163.00 111.94 C 163.11 112.96 164.02 113.70 165.04 113.60 Z M 166.03 113.49 L 167.03 113.39 C 168.05 113.29 168.79 112.38 168.69 111.36 C 168.58 110.33 167.67 109.59 166.65 109.70 L 165.66 109.80 C 164.64 109.90 163.89 110.81 164.00 111.83 C 164.10 112.85 165.01 113.60 166.03 113.49 Z M 167.03 113.39 L 168.02 113.29 C 169.04 113.19 169.78 112.28 169.68 111.26 C 169.58 110.24 168.67 109.50 167.65 109.60 L 166.65 109.70 C 165.64 109.80 164.89 110.71 165.00 111.73 C 165.10 112.75 166.01 113.49 167.03 113.39 Z M 168.02 113.29 L 169.01 113.19 C 170.03 113.08 170.77 112.18 170.67 111.16 C 170.57 110.14 169.66 109.40 168.65 109.50 L 167.65 109.60 C 166.63 109.70 165.89 110.61 165.99 111.63 C 166.09 112.64 167.00 113.39 168.02 113.29 Z M 169.01 113.18 L 170.01 113.08 C 171.03 112.98 171.77 112.07 171.67 111.06 C 171.57 110.04 170.66 109.30 169.65 109.40 L 168.65 109.50 C 167.63 109.61 166.89 110.51 166.99 111.53 C 167.09 112.54 168.00 113.28 169.01 113.18 Z M 170.02 113.08 L 171.01 112.98 C 172.03 112.88 172.77 111.97 172.66 110.96 C 172.56 109.94 171.66 109.20 170.64 109.31 L 169.64 109.41 C 168.63 109.51 167.89 110.42 167.99 111.43 C 168.10 112.44 169.00 113.18 170.02 113.08 Z M 171.02 112.98 L 172.01 112.87 C 173.03 112.77 173.76 111.86 173.66 110.85 C 173.55 109.84 172.65 109.10 171.64 109.21 L 170.64 109.31 C 169.63 109.41 168.89 110.32 169.00 111.33 C 169.10 112.34 170.01 113.08 171.02 112.98 Z M 172.02 112.87 L 173.01 112.76 C 174.02 112.66 174.76 111.75 174.65 110.74 C 174.54 109.73 173.64 109.00 172.63 109.10 L 171.63 109.21 C 170.62 109.32 169.89 110.22 170.00 111.23 C 170.10 112.24 171.01 112.98 172.02 112.87 Z M 173.02 112.76 L 174.01 112.65 C 175.02 112.54 175.75 111.63 175.64 110.63 C 175.53 109.62 174.62 108.89 173.61 109.00 L 172.62 109.11 C 171.61 109.22 170.88 110.13 170.99 111.13 C 171.10 112.14 172.01 112.87 173.02 112.76 Z M 174.02 112.65 L 175.01 112.54 C 176.01 112.42 176.74 111.51 176.62 110.51 C 176.51 109.50 175.60 108.78 174.59 108.89 L 173.60 109.00 C 172.60 109.12 171.88 110.03 171.99 111.03 C 172.10 112.04 173.01 112.76 174.02 112.65 Z M 175.02 112.53 L 175.99 112.42 C 177.00 112.30 177.72 111.38 177.60 110.38 C 177.48 109.38 176.57 108.66 175.56 108.78 L 174.58 108.89 C 173.58 109.01 172.86 109.93 172.98 110.93 C 173.10 111.93 174.01 112.65 175.02 112.53 Z M 176.00 112.41 L 176.98 112.29 C 177.98 112.17 178.69 111.25 178.57 110.25 C 178.44 109.25 177.53 108.54 176.53 108.66 L 175.55 108.78 C 174.55 108.91 173.84 109.82 173.96 110.82 C 174.09 111.82 175.00 112.54 176.00 112.41 Z M 176.98 112.29 L 177.96 112.16 C 178.96 112.04 179.66 111.13 179.54 110.13 C 179.41 109.13 178.50 108.42 177.50 108.54 L 176.52 108.67 C 175.52 108.79 174.81 109.70 174.94 110.70 C 175.07 111.71 175.98 112.41 176.98 112.29 Z M 177.96 112.16 L 178.94 112.04 C 179.94 111.91 180.64 111.00 180.52 110.00 C 180.39 109.00 179.48 108.30 178.48 108.42 L 177.50 108.55 C 176.50 108.67 175.79 109.58 175.92 110.58 C 176.04 111.58 176.96 112.29 177.96 112.16 Z M 178.93 112.04 L 179.93 111.91 C 180.93 111.79 181.63 110.88 181.51 109.88 C 181.38 108.88 180.48 108.18 179.48 108.30 L 178.48 108.42 C 177.49 108.55 176.78 109.46 176.90 110.45 C 177.03 111.45 177.94 112.16 178.93 112.04 Z M 179.92 111.91 L 180.93 111.79 C 181.93 111.67 182.64 110.76 182.52 109.77 C 182.40 108.77 181.49 108.06 180.49 108.18 L 179.49 108.30 C 178.49 108.42 177.78 109.33 177.90 110.32 C 178.02 111.32 178.92 112.03 179.92 111.91 Z M 180.92 111.79 L 181.95 111.67 C 182.94 111.55 183.66 110.65 183.54 109.66 C 183.43 108.66 182.53 107.95 181.53 108.06 L 180.50 108.18 C 179.51 108.30 178.80 109.20 178.91 110.19 C 179.02 111.19 179.92 111.90 180.92 111.79 Z M 181.94 111.67 L 182.94 111.56 C 183.94 111.45 184.66 110.56 184.55 109.56 C 184.44 108.57 183.55 107.85 182.55 107.96 L 181.55 108.06 C 180.55 108.17 179.83 109.07 179.94 110.06 C 180.05 111.06 180.94 111.78 181.94 111.67 Z M 182.93 111.56 L 183.95 111.45 C 184.94 111.35 185.67 110.46 185.56 109.47 C 185.46 108.47 184.57 107.75 183.58 107.85 L 182.56 107.96 C 181.57 108.06 180.84 108.95 180.95 109.94 C 181.05 110.94 181.94 111.66 182.93 111.56 Z M 183.94 111.45 L 184.96 111.35 C 185.96 111.25 186.68 110.37 186.58 109.37 C 186.49 108.38 185.60 107.65 184.61 107.75 L 183.59 107.85 C 182.59 107.95 181.87 108.84 181.97 109.83 C 182.06 110.82 182.95 111.55 183.94 111.45 Z M 184.96 111.35 L 185.98 111.25 C 186.97 111.15 187.69 110.27 187.60 109.28 C 187.50 108.28 186.62 107.56 185.63 107.65 L 184.61 107.75 C 183.62 107.85 182.89 108.73 182.99 109.73 C 183.08 110.72 183.97 111.44 184.96 111.35 Z M 185.97 111.25 L 186.97 111.15 C 187.97 111.05 188.69 110.17 188.60 109.18 C 188.50 108.19 187.62 107.46 186.63 107.56 L 185.63 107.66 C 184.63 107.75 183.91 108.63 184.00 109.63 C 184.10 110.62 184.98 111.34 185.97 111.25 Z M 186.98 111.15 L 187.95 111.05 C 188.94 110.96 189.66 110.07 189.57 109.08 C 189.47 108.09 188.59 107.37 187.60 107.47 L 186.62 107.56 C 185.63 107.66 184.91 108.54 185.01 109.53 C 185.10 110.52 185.99 111.25 186.98 111.15 Z M 187.95 111.05 L 188.89 110.96 C 189.88 110.86 190.60 109.97 190.50 108.98 C 190.40 107.99 189.52 107.27 188.53 107.37 L 187.59 107.47 C 186.60 107.57 185.88 108.45 185.98 109.44 C 186.08 110.43 186.97 111.15 187.95 111.05 Z M 188.90 110.95 L 189.81 110.86 C 190.80 110.75 191.52 109.87 191.41 108.88 C 191.31 107.89 190.42 107.18 189.44 107.28 L 188.52 107.38 C 187.54 107.48 186.82 108.37 186.92 109.35 C 187.03 110.34 187.91 111.06 188.90 110.95 Z M 189.82 110.85 L 190.71 110.76 C 191.70 110.65 192.41 109.76 192.30 108.78 C 192.20 107.79 191.31 107.08 190.32 107.18 L 189.43 107.28 C 188.44 107.39 187.73 108.28 187.84 109.26 C 187.95 110.25 188.83 110.96 189.82 110.85 Z M 190.72 110.75 L 191.62 110.65 C 192.60 110.54 193.31 109.66 193.20 108.67 C 193.10 107.69 192.21 106.98 191.22 107.09 L 190.32 107.19 C 189.34 107.30 188.63 108.18 188.74 109.17 C 188.84 110.15 189.73 110.86 190.72 110.75 Z M 191.62 110.65 L 192.56 110.55 C 193.54 110.44 194.25 109.55 194.14 108.57 C 194.03 107.58 193.15 106.88 192.16 106.98 L 191.22 107.09 C 190.24 107.20 189.53 108.08 189.64 109.07 C 189.75 110.05 190.64 110.76 191.62 110.65 Z M 192.56 110.55 L 193.56 110.44 C 194.54 110.33 195.25 109.44 195.15 108.46 C 195.04 107.48 194.16 106.77 193.17 106.88 L 192.17 106.99 C 191.18 107.09 190.47 107.98 190.58 108.96 C 190.69 109.94 191.57 110.65 192.56 110.55 Z M 193.56 110.43 L 194.66 110.32 C 195.64 110.21 196.35 109.33 196.25 108.35 C 196.14 107.37 195.26 106.66 194.28 106.76 L 193.18 106.88 C 192.20 106.98 191.48 107.86 191.59 108.84 C 191.69 109.83 192.57 110.54 193.56 110.43 Z M 194.65 110.32 L 195.84 110.20 C 196.82 110.10 197.54 109.22 197.44 108.24 C 197.34 107.26 196.46 106.54 195.48 106.64 L 194.29 106.76 C 193.30 106.86 192.59 107.74 192.69 108.72 C 192.79 109.70 193.67 110.42 194.65 110.32 Z M 195.83 110.20 L 196.74 110.11 C 197.72 110.01 198.44 109.14 198.34 108.15 C 198.25 107.17 197.37 106.46 196.39 106.55 L 195.48 106.64 C 194.50 106.74 193.79 107.61 193.88 108.59 C 193.98 109.57 194.85 110.29 195.83 110.20 Z M 196.74 110.11 L 197.70 110.01 C 198.68 109.92 199.40 109.05 199.30 108.07 C 199.21 107.09 198.34 106.37 197.36 106.46 L 196.40 106.55 C 195.41 106.65 194.69 107.52 194.79 108.50 C 194.88 109.48 195.75 110.20 196.74 110.11 Z M 197.69 110.01 L 198.70 109.92 C 199.68 109.83 200.40 108.96 200.31 107.98 C 200.21 107.00 199.34 106.27 198.36 106.37 L 197.36 106.46 C 196.38 106.55 195.66 107.42 195.75 108.40 C 195.84 109.38 196.71 110.11 197.69 110.01 Z M 198.69 109.92 L 199.72 109.83 C 200.70 109.74 201.43 108.87 201.34 107.89 C 201.25 106.91 200.38 106.18 199.40 106.27 L 198.37 106.37 C 197.38 106.46 196.66 107.32 196.75 108.31 C 196.84 109.29 197.71 110.01 198.69 109.92 Z M 199.72 109.83 L 200.77 109.73 C 201.75 109.65 202.47 108.78 202.39 107.80 C 202.30 106.82 201.43 106.09 200.45 106.18 L 199.40 106.27 C 198.42 106.36 197.70 107.23 197.78 108.21 C 197.87 109.19 198.74 109.91 199.72 109.83 Z M 200.76 109.73 L 201.81 109.64 C 202.80 109.56 203.52 108.69 203.44 107.71 C 203.35 106.73 202.49 106.00 201.51 106.09 L 200.45 106.18 C 199.47 106.26 198.74 107.13 198.83 108.11 C 198.92 109.09 199.78 109.82 200.76 109.73 Z M 201.81 109.64 L 202.85 109.56 C 203.83 109.47 204.56 108.61 204.48 107.63 C 204.40 106.65 203.53 105.92 202.55 106.00 L 201.51 106.09 C 200.53 106.17 199.80 107.03 199.88 108.01 C 199.96 109.00 200.83 109.73 201.81 109.64 Z M 202.85 109.56 L 203.86 109.47 C 204.85 109.39 205.58 108.53 205.50 107.55 C 205.42 106.57 204.56 105.84 203.57 105.92 L 202.56 106.00 C 201.57 106.08 200.84 106.94 200.92 107.92 C 201.00 108.90 201.86 109.64 202.85 109.56 Z M 203.86 109.47 L 204.84 109.40 C 205.82 109.32 206.56 108.46 206.48 107.48 C 206.40 106.50 205.55 105.76 204.56 105.84 L 203.58 105.92 C 202.60 105.99 201.86 106.85 201.94 107.83 C 202.02 108.82 202.88 109.55 203.86 109.47 Z M 204.84 109.40 L 205.77 109.33 C 206.75 109.25 207.49 108.40 207.42 107.41 C 207.34 106.43 206.49 105.69 205.50 105.77 L 204.57 105.84 C 203.59 105.91 202.85 106.77 202.92 107.75 C 203.00 108.73 203.85 109.47 204.84 109.40 Z M 205.76 109.33 L 207.18 109.24 C 208.17 109.17 208.91 108.32 208.85 107.33 C 208.78 106.35 207.93 105.60 206.94 105.67 L 205.52 105.76 C 204.53 105.83 203.79 106.68 203.85 107.67 C 203.92 108.65 204.77 109.40 205.76 109.33 Z M 207.13 109.25 L 208.40 109.21 C 209.40 109.17 210.17 108.33 210.14 107.34 C 210.10 106.35 209.26 105.57 208.27 105.61 L 206.99 105.65 C 206.00 105.69 205.22 106.53 205.26 107.52 C 205.30 108.51 206.13 109.29 207.13 109.25 Z M 208.29 109.22 L 209.36 109.25 C 210.36 109.28 211.19 108.49 211.22 107.49 C 211.25 106.48 210.46 105.65 209.46 105.62 L 208.39 105.59 C 207.39 105.57 206.55 106.35 206.52 107.36 C 206.50 108.36 207.29 109.19 208.29 109.22 Z M 209.13 109.24 L 209.99 109.37 C 210.98 109.53 211.91 108.85 212.07 107.85 C 212.22 106.85 211.54 105.92 210.55 105.77 L 209.69 105.63 C 208.69 105.48 207.76 106.16 207.61 107.15 C 207.45 108.15 208.13 109.08 209.13 109.24 Z M 209.56 109.26 L 210.19 109.53 C 211.13 109.92 212.20 109.48 212.59 108.54 C 212.98 107.61 212.54 106.53 211.61 106.14 L 210.97 105.87 C 210.04 105.48 208.96 105.92 208.57 106.86 C 208.18 107.80 208.62 108.87 209.56 109.26 Z M 209.55 109.10 L 209.94 109.52 C 210.64 110.26 211.81 110.30 212.56 109.60 C 213.30 108.91 213.34 107.74 212.64 106.99 L 212.25 106.57 C 211.55 105.82 210.38 105.79 209.63 106.48 C 208.89 107.18 208.85 108.35 209.55 109.10 Z M 209.49 108.69 L 209.65 109.36 C 209.89 110.35 210.89 110.97 211.89 110.73 C 212.89 110.49 213.50 109.49 213.26 108.49 L 213.10 107.82 C 212.86 106.82 211.86 106.21 210.86 106.45 C 209.86 106.69 209.25 107.69 209.49 108.69 Z M 209.60 108.73 L 209.51 109.57 C 209.40 110.59 210.14 111.51 211.17 111.62 C 212.19 111.73 213.11 110.98 213.22 109.96 L 213.31 109.12 C 213.42 108.09 212.67 107.18 211.65 107.07 C 210.63 106.96 209.71 107.70 209.60 108.73 Z M 209.57 109.23 L 209.28 110.20 C 208.99 111.19 209.55 112.23 210.54 112.53 C 211.53 112.82 212.58 112.26 212.87 111.27 L 213.16 110.30 C 213.45 109.31 212.89 108.26 211.90 107.97 C 210.91 107.67 209.86 108.24 209.57 109.23 Z M 209.34 110.01 L 208.90 111.06 C 208.51 112.02 208.96 113.12 209.92 113.52 C 210.88 113.91 211.98 113.46 212.38 112.50 L 212.81 111.45 C 213.21 110.49 212.76 109.39 211.80 109.00 C 210.84 108.60 209.74 109.05 209.34 110.01 Z M 208.95 110.94 L 208.42 112.02 C 207.95 112.96 208.34 114.09 209.27 114.55 C 210.21 115.01 211.34 114.63 211.80 113.70 L 212.33 112.62 C 212.80 111.68 212.41 110.55 211.48 110.09 C 210.54 109.63 209.41 110.01 208.95 110.94 Z M 208.44 111.96 L 207.95 112.87 C 207.45 113.79 207.79 114.94 208.71 115.44 C 209.63 115.94 210.77 115.60 211.27 114.68 L 211.77 113.76 C 212.27 112.84 211.93 111.70 211.01 111.20 C 210.09 110.70 208.94 111.04 208.44 111.96 Z M 207.97 112.83 L 207.49 113.66 C 206.96 114.57 207.28 115.73 208.18 116.25 C 209.09 116.77 210.25 116.46 210.77 115.56 L 211.25 114.72 C 211.77 113.82 211.46 112.66 210.56 112.14 C 209.65 111.61 208.49 111.92 207.97 112.83 Z M 207.51 113.63 L 207.01 114.45 C 206.46 115.35 206.75 116.52 207.65 117.06 C 208.54 117.60 209.71 117.31 210.25 116.42 L 210.75 115.59 C 211.29 114.70 211.01 113.53 210.11 112.99 C 209.22 112.44 208.05 112.73 207.51 113.63 Z M 207.02 114.43 L 206.50 115.26 C 205.94 116.15 206.21 117.32 207.10 117.87 C 207.98 118.43 209.16 118.16 209.71 117.28 L 210.23 116.45 C 210.79 115.56 210.53 114.39 209.64 113.83 C 208.75 113.27 207.58 113.54 207.02 114.43 Z M 206.51 115.24 L 205.97 116.08 C 205.40 116.96 205.65 118.14 206.53 118.71 C 207.41 119.28 208.59 119.02 209.16 118.14 L 209.70 117.30 C 210.27 116.42 210.02 115.24 209.14 114.67 C 208.25 114.10 207.08 114.36 206.51 115.24 Z M 205.97 116.07 L 205.41 116.93 C 204.83 117.81 205.08 118.99 205.95 119.56 C 206.83 120.14 208.01 119.90 208.58 119.02 L 209.15 118.15 C 209.73 117.28 209.48 116.10 208.60 115.52 C 207.73 114.95 206.55 115.19 205.97 116.07 Z M 205.41 116.93 L 204.82 117.82 C 204.24 118.70 204.48 119.88 205.36 120.46 C 206.23 121.03 207.41 120.79 207.99 119.92 L 208.58 119.02 C 209.16 118.15 208.92 116.97 208.04 116.39 C 207.17 115.81 205.99 116.05 205.41 116.93 Z M 204.82 117.82 L 204.31 118.59 C 203.73 119.47 203.97 120.65 204.85 121.22 C 205.73 121.80 206.91 121.56 207.48 120.69 L 207.99 119.92 C 208.57 119.04 208.33 117.86 207.45 117.28 C 206.58 116.70 205.40 116.95 204.82 117.82 Z M 204.31 118.59 L 203.80 119.37 C 203.22 120.25 203.46 121.43 204.34 122.01 C 205.22 122.58 206.39 122.34 206.97 121.46 L 207.49 120.68 C 208.06 119.81 207.82 118.63 206.94 118.05 C 206.07 117.47 204.89 117.71 204.31 118.59 Z M 203.79 119.37 L 203.27 120.18 C 202.69 121.06 202.93 122.24 203.81 122.81 C 204.69 123.39 205.87 123.14 206.45 122.27 L 206.97 121.46 C 207.55 120.58 207.31 119.40 206.43 118.83 C 205.55 118.25 204.37 118.50 203.79 119.37 Z M 203.26 120.18 L 202.72 121.01 C 202.15 121.89 202.40 123.06 203.27 123.64 C 204.15 124.21 205.33 123.97 205.91 123.09 L 206.45 122.26 C 207.02 121.38 206.78 120.21 205.90 119.63 C 205.02 119.06 203.84 119.30 203.26 120.18 Z M 202.72 121.01 L 202.17 121.86 C 201.60 122.74 201.85 123.92 202.73 124.49 C 203.61 125.06 204.78 124.81 205.36 123.93 L 205.91 123.09 C 206.48 122.21 206.23 121.03 205.35 120.45 C 204.47 119.88 203.30 120.13 202.72 121.01 Z M 202.17 121.86 L 201.61 122.73 C 201.03 123.61 201.29 124.79 202.17 125.36 C 203.05 125.93 204.23 125.68 204.80 124.80 L 205.36 123.93 C 205.93 123.05 205.68 121.87 204.80 121.30 C 203.92 120.73 202.74 120.98 202.17 121.86 Z M 201.60 122.73 L 201.03 123.62 C 200.46 124.50 200.72 125.68 201.60 126.25 C 202.48 126.82 203.66 126.56 204.23 125.68 L 204.80 124.79 C 205.37 123.91 205.12 122.73 204.23 122.16 C 203.35 121.59 202.17 121.85 201.60 122.73 Z M 201.03 123.62 L 200.45 124.53 C 199.88 125.41 200.14 126.59 201.02 127.15 C 201.91 127.72 203.09 127.46 203.65 126.58 L 204.23 125.68 C 204.80 124.79 204.54 123.61 203.66 123.05 C 202.77 122.48 201.60 122.74 201.03 123.62 Z M 200.45 124.53 L 199.91 125.38 C 199.34 126.27 199.60 127.44 200.49 128.01 C 201.37 128.57 202.55 128.31 203.11 127.42 L 203.66 126.57 C 204.22 125.69 203.96 124.51 203.07 123.95 C 202.19 123.38 201.01 123.64 200.45 124.53 Z M 199.90 125.38 L 199.38 126.20 C 198.82 127.09 199.08 128.27 199.97 128.83 C 200.86 129.39 202.03 129.13 202.60 128.24 L 203.12 127.42 C 203.68 126.53 203.42 125.36 202.53 124.79 C 201.64 124.23 200.47 124.50 199.90 125.38 Z M 199.38 126.21 L 198.86 127.04 C 198.29 127.93 198.56 129.10 199.45 129.66 C 200.34 130.22 201.51 129.96 202.07 129.07 L 202.60 128.24 C 203.16 127.35 202.89 126.17 202.00 125.61 C 201.12 125.05 199.94 125.32 199.38 126.21 Z M 198.85 127.04 L 198.32 127.88 C 197.77 128.77 198.03 129.95 198.92 130.51 C 199.81 131.07 200.99 130.80 201.55 129.91 L 202.07 129.07 C 202.63 128.18 202.37 127.00 201.48 126.44 C 200.59 125.89 199.41 126.15 198.85 127.04 Z M 198.32 127.89 L 197.79 128.73 C 197.23 129.62 197.50 130.80 198.39 131.36 C 199.28 131.91 200.46 131.64 201.02 130.75 L 201.55 129.91 C 202.11 129.02 201.84 127.84 200.95 127.28 C 200.06 126.73 198.88 127.00 198.32 127.89 Z M 197.79 128.74 L 197.26 129.59 C 196.70 130.48 196.97 131.66 197.86 132.21 C 198.75 132.77 199.93 132.50 200.48 131.61 L 201.02 130.75 C 201.57 129.86 201.30 128.69 200.41 128.13 C 199.52 127.57 198.35 127.85 197.79 128.74 Z M 197.26 129.59 L 196.72 130.45 C 196.16 131.34 196.44 132.52 197.33 133.07 C 198.22 133.63 199.39 133.36 199.95 132.46 L 200.48 131.61 C 201.04 130.71 200.77 129.54 199.88 128.98 C 198.98 128.43 197.81 128.70 197.26 129.59 Z M 196.72 130.45 L 196.18 131.32 C 195.63 132.21 195.90 133.38 196.79 133.94 C 197.68 134.49 198.86 134.22 199.41 133.33 L 199.95 132.46 C 200.50 131.57 200.23 130.40 199.34 129.84 C 198.45 129.29 197.27 129.56 196.72 130.45 Z M 196.18 131.32 L 195.64 132.18 C 195.09 133.08 195.36 134.25 196.25 134.80 C 197.15 135.36 198.32 135.08 198.87 134.19 L 199.41 133.33 C 199.97 132.43 199.69 131.26 198.80 130.71 C 197.91 130.15 196.74 130.43 196.18 131.32 Z M 195.64 132.18 L 195.10 133.06 C 194.54 133.96 194.82 135.13 195.71 135.68 C 196.60 136.24 197.77 135.96 198.33 135.07 L 198.87 134.19 C 199.43 133.30 199.15 132.13 198.26 131.57 C 197.37 131.02 196.20 131.29 195.64 132.18 Z M 195.10 133.06 L 194.52 133.98 C 193.97 134.87 194.24 136.05 195.14 136.60 C 196.03 137.16 197.20 136.88 197.75 135.99 L 198.33 135.07 C 198.88 134.18 198.61 133.01 197.72 132.45 C 196.82 131.90 195.65 132.17 195.10 133.06 Z M 194.53 133.98 L 193.96 134.90 C 193.40 135.79 193.68 136.96 194.57 137.51 C 195.46 138.07 196.63 137.79 197.18 136.90 L 197.75 135.99 C 198.31 135.10 198.03 133.93 197.14 133.37 C 196.25 132.82 195.08 133.09 194.53 133.98 Z M 193.96 134.90 L 193.40 135.80 C 192.84 136.69 193.12 137.86 194.01 138.41 C 194.90 138.97 196.07 138.69 196.62 137.80 L 197.18 136.90 C 197.74 136.01 197.47 134.84 196.58 134.29 C 195.69 133.73 194.51 134.01 193.96 134.90 Z M 193.40 135.80 L 192.85 136.68 C 192.30 137.57 192.57 138.74 193.45 139.29 C 194.34 139.85 195.51 139.58 196.07 138.69 L 196.62 137.81 C 197.17 136.92 196.90 135.75 196.02 135.19 C 195.13 134.64 193.96 134.91 193.40 135.80 Z M 192.85 136.68 L 192.32 137.53 C 191.76 138.42 192.03 139.59 192.92 140.15 C 193.80 140.70 194.97 140.43 195.53 139.55 L 196.07 138.69 C 196.62 137.80 196.35 136.63 195.47 136.08 C 194.58 135.52 193.41 135.79 192.85 136.68 Z M 192.32 137.53 L 191.80 138.36 C 191.24 139.24 191.51 140.41 192.39 140.97 C 193.28 141.53 194.45 141.26 195.01 140.38 L 195.53 139.55 C 196.08 138.66 195.82 137.49 194.93 136.94 C 194.05 136.38 192.88 136.65 192.32 137.53 Z M 191.80 138.36 L 191.30 139.15 C 190.74 140.03 191.01 141.20 191.89 141.76 C 192.77 142.32 193.94 142.05 194.50 141.17 L 195.00 140.38 C 195.56 139.50 195.30 138.33 194.41 137.77 C 193.53 137.21 192.36 137.47 191.80 138.36 Z M 191.31 139.14 L 190.83 139.89 C 190.27 140.77 190.53 141.94 191.41 142.50 C 192.29 143.07 193.46 142.81 194.02 141.93 L 194.50 141.17 C 195.06 140.29 194.80 139.12 193.92 138.56 C 193.04 138.00 191.87 138.26 191.31 139.14 Z M 190.83 139.89 L 190.30 140.72 C 189.73 141.60 189.99 142.77 190.87 143.33 C 191.74 143.90 192.91 143.64 193.48 142.76 L 194.01 141.93 C 194.58 141.05 194.32 139.88 193.44 139.32 C 192.57 138.76 191.40 139.01 190.83 139.89 Z M 190.31 140.71 L 189.68 141.67 C 189.11 142.54 189.36 143.71 190.23 144.28 C 191.11 144.85 192.28 144.60 192.84 143.73 L 193.47 142.77 C 194.04 141.90 193.79 140.73 192.92 140.16 C 192.04 139.59 190.88 139.84 190.31 140.71 Z M 189.69 141.66 L 189.12 142.53 C 188.54 143.40 188.78 144.57 189.65 145.14 C 190.52 145.72 191.68 145.48 192.26 144.61 L 192.83 143.74 C 193.41 142.87 193.17 141.70 192.30 141.13 C 191.44 140.55 190.27 140.79 189.69 141.66 Z M 189.13 142.52 L 188.59 143.33 C 188.01 144.19 188.24 145.36 189.10 145.94 C 189.96 146.52 191.13 146.29 191.71 145.43 L 192.25 144.62 C 192.83 143.76 192.60 142.59 191.74 142.01 C 190.87 141.43 189.71 141.66 189.13 142.52 Z M 188.59 143.32 L 188.08 144.08 C 187.49 144.94 187.71 146.11 188.57 146.69 C 189.43 147.27 190.60 147.05 191.18 146.19 L 191.70 145.43 C 192.28 144.58 192.06 143.41 191.20 142.82 C 190.35 142.24 189.18 142.46 188.59 143.32 Z M 188.08 144.07 L 187.58 144.81 C 186.99 145.66 187.21 146.83 188.06 147.42 C 188.91 148.00 190.08 147.79 190.67 146.93 L 191.17 146.20 C 191.76 145.35 191.54 144.18 190.69 143.59 C 189.84 143.01 188.67 143.22 188.08 144.07 Z M 187.58 144.81 L 187.06 145.56 C 186.47 146.41 186.68 147.58 187.53 148.17 C 188.38 148.76 189.55 148.54 190.14 147.69 L 190.66 146.94 C 191.25 146.09 191.04 144.92 190.19 144.33 C 189.34 143.75 188.17 143.96 187.58 144.81 Z M 187.06 145.56 L 186.52 146.35 C 185.93 147.20 186.14 148.36 186.98 148.95 C 187.83 149.54 189.00 149.33 189.59 148.48 L 190.13 147.70 C 190.72 146.85 190.51 145.68 189.67 145.09 C 188.82 144.51 187.65 144.71 187.06 145.56 Z M 186.52 146.35 L 185.96 147.15 C 185.37 148.00 185.58 149.16 186.42 149.75 C 187.27 150.34 188.43 150.13 189.02 149.29 L 189.58 148.49 C 190.17 147.64 189.96 146.48 189.12 145.89 C 188.27 145.30 187.11 145.50 186.52 146.35 Z M 185.96 147.15 L 185.39 147.97 C 184.80 148.81 185.00 149.98 185.85 150.57 C 186.69 151.16 187.85 150.95 188.45 150.11 L 189.02 149.29 C 189.61 148.45 189.40 147.28 188.56 146.69 C 187.72 146.10 186.55 146.31 185.96 147.15 Z M 185.39 147.97 L 184.80 148.81 C 184.21 149.65 184.42 150.81 185.26 151.40 C 186.10 152.00 187.26 151.79 187.85 150.95 L 188.44 150.11 C 189.03 149.27 188.83 148.11 187.99 147.51 C 187.15 146.92 185.98 147.13 185.39 147.97 Z M 184.81 148.81 L 184.20 149.67 C 183.61 150.51 183.81 151.67 184.65 152.27 C 185.49 152.86 186.65 152.66 187.24 151.82 L 187.85 150.95 C 188.44 150.11 188.24 148.95 187.40 148.36 C 186.56 147.77 185.40 147.97 184.81 148.81 Z M 184.20 149.67 L 183.63 150.48 C 183.04 151.32 183.24 152.48 184.08 153.07 C 184.92 153.66 186.08 153.46 186.67 152.62 L 187.24 151.82 C 187.83 150.98 187.63 149.82 186.79 149.23 C 185.95 148.63 184.79 148.83 184.20 149.67 Z M 183.64 150.48 L 183.06 151.30 C 182.46 152.13 182.66 153.29 183.50 153.88 C 184.33 154.48 185.49 154.28 186.09 153.44 L 186.67 152.62 C 187.26 151.79 187.06 150.63 186.22 150.03 C 185.39 149.44 184.23 149.64 183.64 150.48 Z M 183.06 151.29 L 182.47 152.12 C 181.88 152.95 182.07 154.11 182.91 154.70 C 183.74 155.30 184.90 155.11 185.49 154.27 L 186.08 153.45 C 186.68 152.61 186.48 151.45 185.65 150.86 C 184.81 150.26 183.65 150.46 183.06 151.29 Z M 182.48 152.11 L 181.89 152.94 C 181.29 153.77 181.48 154.92 182.31 155.52 C 183.14 156.12 184.30 155.93 184.89 155.10 L 185.49 154.28 C 186.08 153.44 185.89 152.29 185.06 151.69 C 184.23 151.09 183.07 151.28 182.48 152.11 Z M 181.89 152.93 L 181.30 153.74 C 180.70 154.57 180.89 155.73 181.71 156.33 C 182.54 156.93 183.70 156.74 184.30 155.92 L 184.89 155.11 C 185.49 154.28 185.30 153.12 184.48 152.52 C 183.65 151.92 182.49 152.10 181.89 152.93 Z M 181.31 153.73 L 180.73 154.53 C 180.12 155.35 180.30 156.50 181.12 157.11 C 181.94 157.72 183.10 157.54 183.70 156.72 L 184.29 155.93 C 184.89 155.10 184.72 153.95 183.90 153.34 C 183.07 152.74 181.92 152.91 181.31 153.73 Z M 180.74 154.52 L 180.12 155.35 C 179.51 156.16 179.67 157.32 180.49 157.93 C 181.30 158.54 182.46 158.38 183.07 157.56 L 183.69 156.73 C 184.30 155.91 184.14 154.76 183.32 154.15 C 182.51 153.53 181.35 153.70 180.74 154.52 Z M 180.13 155.34 L 179.51 156.15 C 178.89 156.96 179.05 158.11 179.86 158.73 C 180.67 159.35 181.83 159.19 182.44 158.38 L 183.06 157.57 C 183.68 156.76 183.52 155.60 182.71 154.99 C 181.90 154.37 180.74 154.53 180.13 155.34 Z M 179.52 156.14 L 178.91 156.93 C 178.29 157.74 178.44 158.89 179.25 159.51 C 180.05 160.13 181.21 159.98 181.83 159.18 L 182.43 158.39 C 183.05 157.58 182.90 156.43 182.10 155.81 C 181.29 155.19 180.14 155.34 179.52 156.14 Z M 178.91 156.93 L 178.31 157.71 C 177.69 158.51 177.84 159.66 178.64 160.29 C 179.44 160.91 180.60 160.76 181.22 159.96 L 181.82 159.18 C 182.44 158.38 182.30 157.22 181.49 156.60 C 180.69 155.98 179.54 156.13 178.91 156.93 Z M 178.32 157.71 L 177.72 158.48 C 177.10 159.28 177.24 160.43 178.05 161.05 C 178.85 161.67 180.00 161.53 180.62 160.73 L 181.22 159.96 C 181.84 159.15 181.69 158.00 180.89 157.38 C 180.09 156.76 178.94 156.91 178.32 157.71 Z M 177.72 158.48 L 177.12 159.26 C 176.51 160.06 176.65 161.21 177.46 161.83 C 178.26 162.44 179.41 162.30 180.03 161.49 L 180.62 160.72 C 181.24 159.92 181.09 158.77 180.29 158.15 C 179.49 157.53 178.34 157.68 177.72 158.48 Z M 177.12 159.26 L 176.52 160.04 C 175.91 160.85 176.06 161.99 176.87 162.61 C 177.67 163.22 178.82 163.07 179.43 162.27 L 180.03 161.49 C 180.64 160.68 180.49 159.54 179.69 158.92 C 178.88 158.31 177.73 158.46 177.12 159.26 Z M 176.53 160.05 L 175.93 160.84 C 175.31 161.64 175.47 162.78 176.27 163.39 C 177.07 164.01 178.22 163.85 178.83 163.05 L 179.43 162.26 C 180.04 161.46 179.89 160.31 179.09 159.70 C 178.28 159.09 177.14 159.25 176.53 160.05 Z M 175.93 160.84 L 175.32 161.63 C 174.71 162.43 174.87 163.57 175.67 164.19 C 176.47 164.80 177.61 164.64 178.22 163.84 L 178.83 163.05 C 179.44 162.25 179.28 161.10 178.48 160.49 C 177.68 159.88 176.54 160.04 175.93 160.84 Z M 175.33 161.63 L 174.71 162.43 C 174.10 163.23 174.25 164.37 175.05 164.98 C 175.85 165.59 176.99 165.44 177.60 164.64 L 178.22 163.84 C 178.83 163.05 178.68 161.90 177.88 161.29 C 177.08 160.68 175.94 160.83 175.33 161.63 Z M 174.72 162.43 L 174.10 163.23 C 173.48 164.03 173.63 165.17 174.42 165.78 C 175.22 166.40 176.36 166.25 176.97 165.46 L 177.60 164.65 C 178.21 163.86 178.06 162.71 177.27 162.10 C 176.48 161.49 175.34 161.63 174.72 162.43 Z M 174.11 163.23 L 173.50 164.00 C 172.88 164.79 173.02 165.93 173.81 166.55 C 174.60 167.17 175.74 167.03 176.35 166.24 L 176.96 165.46 C 177.58 164.67 177.44 163.53 176.65 162.92 C 175.86 162.30 174.72 162.44 174.11 163.23 Z M 173.51 164.00 L 172.90 164.77 C 172.28 165.55 172.41 166.69 173.19 167.31 C 173.98 167.93 175.12 167.80 175.74 167.01 L 176.35 166.24 C 176.97 165.46 176.83 164.32 176.05 163.70 C 175.27 163.08 174.13 163.21 173.51 164.00 Z M 172.90 164.76 L 172.28 165.54 C 171.66 166.32 171.79 167.45 172.57 168.08 C 173.35 168.70 174.49 168.57 175.11 167.79 L 175.73 167.02 C 176.35 166.24 176.23 165.10 175.45 164.48 C 174.67 163.85 173.53 163.98 172.90 164.76 Z M 172.29 165.53 L 171.66 166.32 C 171.04 167.09 171.16 168.23 171.94 168.85 C 172.71 169.48 173.85 169.36 174.47 168.58 L 175.10 167.80 C 175.73 167.02 175.61 165.89 174.83 165.26 C 174.05 164.64 172.92 164.76 172.29 165.53 Z M 171.67 166.31 L 171.03 167.10 C 170.40 167.88 170.52 169.01 171.30 169.64 C 172.07 170.26 173.20 170.14 173.83 169.37 L 174.47 168.58 C 175.09 167.81 174.97 166.67 174.20 166.05 C 173.43 165.42 172.29 165.54 171.67 166.31 Z M 171.03 167.10 L 170.39 167.90 C 169.76 168.67 169.88 169.80 170.65 170.43 C 171.42 171.05 172.55 170.94 173.18 170.17 L 173.82 169.37 C 174.45 168.60 174.33 167.47 173.56 166.84 C 172.79 166.21 171.66 166.33 171.03 167.10 Z M 170.39 167.90 L 169.77 168.66 C 169.14 169.43 169.26 170.56 170.03 171.19 C 170.80 171.81 171.93 171.70 172.55 170.93 L 173.18 170.16 C 173.80 169.40 173.69 168.26 172.92 167.64 C 172.15 167.01 171.02 167.13 170.39 167.90 Z M 169.77 168.66 L 169.15 169.43 C 168.52 170.20 168.64 171.33 169.41 171.95 C 170.18 172.58 171.30 172.46 171.93 171.69 L 172.55 170.93 C 173.18 170.16 173.06 169.03 172.29 168.41 C 171.52 167.78 170.39 167.90 169.77 168.66 Z M 169.15 169.43 L 168.52 170.20 C 167.90 170.97 168.02 172.10 168.79 172.72 C 169.55 173.34 170.68 173.23 171.30 172.46 L 171.93 171.69 C 172.55 170.92 172.43 169.79 171.67 169.17 C 170.90 168.55 169.77 168.66 169.15 169.43 Z M 168.52 170.21 L 167.89 170.99 C 167.27 171.76 167.39 172.88 168.16 173.50 C 168.93 174.12 170.06 174.00 170.68 173.23 L 171.30 172.45 C 171.92 171.69 171.80 170.56 171.04 169.94 C 170.27 169.32 169.14 169.44 168.52 170.21 Z M 167.89 171.00 L 167.26 171.78 C 166.64 172.55 166.77 173.68 167.54 174.29 C 168.31 174.91 169.43 174.78 170.05 174.01 L 170.68 173.23 C 171.29 172.46 171.17 171.33 170.40 170.72 C 169.63 170.10 168.51 170.23 167.89 171.00 Z M 167.26 171.79 L 166.62 172.59 C 166.01 173.36 166.14 174.48 166.92 175.09 C 167.69 175.70 168.81 175.57 169.42 174.80 L 170.05 174.00 C 170.66 173.23 170.53 172.11 169.76 171.50 C 168.99 170.89 167.87 171.02 167.26 171.79 Z M 166.62 172.60 L 166.01 173.38 C 165.41 174.15 165.55 175.27 166.32 175.87 C 167.09 176.48 168.21 176.34 168.82 175.57 L 169.42 174.79 C 170.03 174.02 169.89 172.90 169.12 172.30 C 168.34 171.69 167.23 171.83 166.62 172.60 Z M 166.01 173.39 L 165.43 174.14 C 164.83 174.92 164.97 176.04 165.75 176.63 C 166.52 177.23 167.64 177.09 168.24 176.31 L 168.82 175.56 C 169.42 174.78 169.28 173.67 168.50 173.07 C 167.72 172.47 166.61 172.61 166.01 173.39 Z M 165.42 174.15 L 164.83 174.93 C 164.24 175.70 164.39 176.82 165.17 177.41 C 165.95 178.00 167.06 177.85 167.65 177.08 L 168.24 176.30 C 168.83 175.53 168.68 174.41 167.91 173.82 C 167.13 173.23 166.01 173.38 165.42 174.15 Z M 164.83 174.94 L 164.24 175.72 C 163.65 176.51 163.80 177.61 164.58 178.20 C 165.36 178.79 166.47 178.63 167.06 177.85 L 167.66 177.07 C 168.24 176.28 168.09 175.18 167.31 174.59 C 166.53 174.00 165.42 174.16 164.83 174.94 Z M 164.23 175.73 L 163.63 176.54 C 163.05 177.32 163.21 178.43 163.99 179.01 C 164.78 179.60 165.88 179.43 166.46 178.65 L 167.07 177.84 C 167.65 177.06 167.49 175.95 166.70 175.37 C 165.92 174.79 164.81 174.95 164.23 175.73 Z M 163.63 176.55 L 163.02 177.38 C 162.44 178.17 162.61 179.27 163.39 179.85 C 164.18 180.42 165.28 180.26 165.86 179.47 L 166.47 178.64 C 167.05 177.86 166.88 176.75 166.09 176.18 C 165.31 175.60 164.20 175.77 163.63 176.55 Z M 163.01 177.39 L 162.39 178.25 C 161.82 179.03 161.99 180.13 162.78 180.71 C 163.56 181.28 164.67 181.10 165.24 180.32 L 165.86 179.46 C 166.43 178.68 166.26 177.58 165.47 177.00 C 164.69 176.43 163.59 176.60 163.01 177.39 Z M 162.39 178.25 L 161.81 179.06 C 161.24 179.85 161.42 180.95 162.21 181.51 C 162.99 182.08 164.09 181.90 164.66 181.12 L 165.24 180.31 C 165.81 179.52 165.63 178.42 164.84 177.86 C 164.05 177.29 162.96 177.47 162.39 178.25 Z M 161.81 179.07 L 161.23 179.87 C 160.67 180.66 160.85 181.75 161.64 182.32 C 162.43 182.88 163.52 182.70 164.09 181.91 L 164.66 181.11 C 165.22 180.32 165.04 179.22 164.25 178.66 C 163.47 178.10 162.37 178.28 161.81 179.07 Z M 161.23 179.87 L 160.65 180.69 C 160.09 181.48 160.28 182.57 161.07 183.13 C 161.85 183.69 162.95 183.51 163.51 182.72 L 164.09 181.90 C 164.65 181.12 164.47 180.02 163.68 179.46 C 162.89 178.90 161.79 179.08 161.23 179.87 Z M 160.65 180.69 L 160.07 181.51 C 159.51 182.30 159.70 183.39 160.48 183.95 C 161.27 184.51 162.36 184.33 162.92 183.54 L 163.51 182.72 C 164.07 181.93 163.88 180.84 163.09 180.28 C 162.31 179.72 161.21 179.90 160.65 180.69 Z M 160.07 181.52 L 159.49 182.34 C 158.93 183.13 159.11 184.22 159.90 184.78 C 160.69 185.34 161.78 185.15 162.34 184.36 L 162.92 183.54 C 163.48 182.75 163.29 181.66 162.51 181.10 C 161.72 180.54 160.63 180.73 160.07 181.52 Z M 159.49 182.35 L 158.90 183.17 C 158.35 183.96 158.53 185.05 159.32 185.60 C 160.10 186.16 161.19 185.97 161.75 185.19 L 162.33 184.36 C 162.89 183.58 162.70 182.49 161.92 181.93 C 161.13 181.38 160.04 181.56 159.49 182.35 Z M 158.91 183.17 L 158.32 183.99 C 157.77 184.78 157.95 185.86 158.73 186.42 C 159.52 186.98 160.60 186.79 161.16 186.01 L 161.74 185.19 C 162.30 184.40 162.12 183.32 161.33 182.76 C 160.55 182.21 159.46 182.39 158.91 183.17 Z M 158.33 183.99 L 157.75 184.81 C 157.19 185.59 157.37 186.67 158.15 187.23 C 158.93 187.79 160.02 187.61 160.58 186.82 L 161.16 186.01 C 161.71 185.23 161.53 184.14 160.75 183.59 C 159.97 183.03 158.88 183.21 158.33 183.99 Z M 157.75 184.81 L 157.15 185.64 C 156.59 186.42 156.77 187.51 157.55 188.06 C 158.33 188.62 159.41 188.44 159.97 187.66 L 160.57 186.83 C 161.13 186.05 160.95 184.96 160.17 184.41 C 159.39 183.85 158.31 184.03 157.75 184.81 Z M 157.16 185.64 L 156.56 186.47 C 156.00 187.24 156.18 188.32 156.96 188.88 C 157.73 189.44 158.81 189.26 159.37 188.49 L 159.97 187.67 C 160.52 186.89 160.35 185.81 159.57 185.25 C 158.80 184.69 157.71 184.87 157.16 185.64 Z M 156.57 186.47 L 155.98 187.28 C 155.42 188.05 155.60 189.13 156.37 189.69 C 157.14 190.25 158.22 190.08 158.78 189.30 L 159.37 188.49 C 159.93 187.72 159.75 186.64 158.98 186.08 C 158.21 185.52 157.13 185.69 156.57 186.47 Z M 155.98 187.28 L 155.40 188.09 C 154.84 188.86 155.02 189.94 155.79 190.49 C 156.56 191.05 157.64 190.88 158.20 190.11 L 158.78 189.30 C 159.34 188.53 159.16 187.45 158.39 186.89 C 157.62 186.34 156.54 186.51 155.98 187.28 Z M 155.40 188.09 L 154.82 188.89 C 154.27 189.66 154.44 190.74 155.21 191.29 C 155.98 191.85 157.06 191.68 157.61 190.91 L 158.19 190.11 C 158.75 189.33 158.58 188.26 157.81 187.70 C 157.04 187.14 155.96 187.32 155.40 188.09 Z M 154.83 188.89 L 154.25 189.69 C 153.69 190.46 153.87 191.53 154.64 192.09 C 155.41 192.64 156.48 192.47 157.04 191.70 L 157.61 190.90 C 158.17 190.13 157.99 189.06 157.23 188.50 C 156.46 187.95 155.38 188.12 154.83 188.89 Z M 154.25 189.69 L 153.68 190.49 C 153.12 191.26 153.30 192.33 154.07 192.89 C 154.84 193.44 155.91 193.27 156.46 192.50 L 157.04 191.70 C 157.59 190.93 157.41 189.86 156.64 189.30 C 155.88 188.75 154.80 188.93 154.25 189.69 Z M 153.68 190.50 L 153.10 191.30 C 152.55 192.07 152.73 193.14 153.50 193.69 C 154.27 194.24 155.34 194.06 155.89 193.29 L 156.46 192.49 C 157.01 191.72 156.83 190.65 156.07 190.10 C 155.30 189.55 154.23 189.73 153.68 190.50 Z M 153.10 191.30 L 152.53 192.11 C 151.98 192.88 152.16 193.95 152.93 194.49 C 153.70 195.04 154.76 194.86 155.31 194.09 L 155.89 193.29 C 156.43 192.52 156.25 191.45 155.49 190.91 C 154.72 190.36 153.65 190.54 153.10 191.30 Z M 152.53 192.11 L 151.95 192.92 C 151.41 193.69 151.59 194.76 152.36 195.30 C 153.13 195.85 154.19 195.67 154.74 194.90 L 155.31 194.09 C 155.86 193.32 155.68 192.26 154.91 191.71 C 154.14 191.17 153.08 191.35 152.53 192.11 Z M 151.96 192.93 L 151.38 193.74 C 150.84 194.51 151.02 195.57 151.78 196.11 C 152.55 196.66 153.61 196.48 154.16 195.71 L 154.73 194.90 C 155.28 194.13 155.10 193.07 154.33 192.52 C 153.56 191.98 152.50 192.16 151.96 192.93 Z M 151.38 193.74 L 150.80 194.56 C 150.26 195.33 150.44 196.39 151.21 196.93 C 151.97 197.47 153.03 197.29 153.58 196.53 L 154.15 195.71 C 154.70 194.94 154.52 193.88 153.75 193.34 C 152.98 192.80 151.92 192.98 151.38 193.74 Z M 150.80 194.56 L 150.22 195.39 C 149.68 196.15 149.86 197.21 150.63 197.75 C 151.39 198.29 152.45 198.11 152.99 197.35 L 153.57 196.52 C 154.11 195.76 153.93 194.70 153.17 194.16 C 152.40 193.62 151.35 193.80 150.80 194.56 Z M 150.23 195.39 L 149.64 196.21 C 149.10 196.98 149.28 198.03 150.04 198.57 C 150.81 199.11 151.86 198.93 152.40 198.17 L 152.99 197.34 C 153.53 196.58 153.35 195.53 152.59 194.99 C 151.82 194.44 150.77 194.63 150.23 195.39 Z M 149.64 196.22 L 149.07 197.03 C 148.53 197.79 148.71 198.85 149.47 199.39 C 150.23 199.93 151.28 199.75 151.82 198.99 L 152.40 198.17 C 152.94 197.41 152.76 196.35 152.00 195.81 C 151.24 195.28 150.18 195.45 149.64 196.22 Z M 149.07 197.03 L 148.50 197.84 C 147.96 198.59 148.13 199.65 148.89 200.19 C 149.65 200.73 150.71 200.55 151.25 199.79 L 151.82 198.99 C 152.36 198.23 152.18 197.17 151.42 196.63 C 150.66 196.09 149.61 196.27 149.07 197.03 Z M 148.50 197.83 L 147.93 198.64 C 147.38 199.39 147.56 200.45 148.31 200.99 C 149.07 201.53 150.12 201.35 150.66 200.60 L 151.24 199.79 C 151.78 199.04 151.61 197.99 150.85 197.44 C 150.10 196.90 149.04 197.08 148.50 197.83 Z M 147.93 198.63 L 147.35 199.44 C 146.80 200.19 146.97 201.24 147.73 201.79 C 148.48 202.33 149.53 202.16 150.07 201.41 L 150.65 200.60 C 151.20 199.85 151.03 198.80 150.28 198.26 C 149.53 197.71 148.48 197.88 147.93 198.63 Z M 147.36 199.44 L 146.77 200.24 C 146.22 200.99 146.38 202.04 147.13 202.59 C 147.88 203.13 148.92 202.97 149.47 202.23 L 150.06 201.42 C 150.61 200.67 150.45 199.62 149.70 199.07 C 148.95 198.53 147.90 198.69 147.36 199.44 Z M 146.78 200.24 L 146.18 201.04 C 145.62 201.79 145.78 202.83 146.52 203.39 C 147.26 203.94 148.31 203.78 148.86 203.04 L 149.46 202.23 C 150.01 201.49 149.86 200.44 149.12 199.89 C 148.37 199.34 147.33 199.50 146.78 200.24 Z M 146.19 201.03 L 145.58 201.84 C 145.02 202.58 145.17 203.62 145.90 204.18 C 146.64 204.74 147.69 204.59 148.24 203.86 L 148.85 203.05 C 149.41 202.31 149.26 201.27 148.53 200.71 C 147.79 200.15 146.74 200.30 146.19 201.03 Z M 145.59 201.83 L 144.97 202.63 C 144.41 203.36 144.54 204.41 145.27 204.97 C 146.00 205.53 147.05 205.40 147.61 204.67 L 148.23 203.87 C 148.79 203.14 148.66 202.09 147.93 201.53 C 147.20 200.97 146.15 201.10 145.59 201.83 Z M 144.98 202.62 L 144.37 203.39 C 143.80 204.11 143.93 205.16 144.65 205.73 C 145.37 206.30 146.42 206.18 146.99 205.45 L 147.60 204.68 C 148.17 203.96 148.04 202.91 147.32 202.34 C 146.60 201.78 145.55 201.90 144.98 202.62 Z M 144.39 203.38 L 143.77 204.15 C 143.19 204.86 143.30 205.91 144.02 206.48 C 144.73 207.06 145.78 206.95 146.35 206.24 L 146.97 205.47 C 147.55 204.75 147.44 203.71 146.72 203.13 C 146.01 202.56 144.96 202.67 144.39 203.38 Z M 143.78 204.14 L 143.15 204.90 C 142.57 205.61 142.67 206.65 143.37 207.23 C 144.08 207.82 145.12 207.72 145.71 207.01 L 146.34 206.25 C 146.92 205.54 146.82 204.50 146.12 203.91 C 145.41 203.33 144.36 203.43 143.78 204.14 Z M 143.16 204.89 L 142.52 205.65 C 141.93 206.34 142.02 207.39 142.72 207.98 C 143.41 208.57 144.46 208.48 145.05 207.78 L 145.69 207.02 C 146.28 206.33 146.19 205.28 145.50 204.69 C 144.80 204.10 143.76 204.19 143.16 204.89 Z M 142.54 205.63 L 141.88 206.39 C 141.28 207.08 141.36 208.12 142.05 208.72 C 142.74 209.32 143.78 209.24 144.38 208.55 L 145.03 207.80 C 145.63 207.11 145.55 206.07 144.87 205.47 C 144.18 204.87 143.13 204.95 142.54 205.63 Z M 141.90 206.38 L 141.23 207.13 C 140.62 207.81 140.68 208.85 141.36 209.46 C 142.05 210.06 143.09 210.00 143.69 209.32 L 144.36 208.57 C 144.96 207.89 144.90 206.85 144.22 206.24 C 143.54 205.64 142.50 205.70 141.90 206.38 Z M 141.24 207.12 L 140.56 207.87 C 139.95 208.54 140.00 209.58 140.67 210.19 C 141.34 210.80 142.38 210.76 142.99 210.08 L 143.68 209.33 C 144.29 208.66 144.24 207.62 143.57 207.01 C 142.89 206.40 141.85 206.45 141.24 207.12 Z M 140.58 207.86 L 139.88 208.60 C 139.26 209.26 139.30 210.30 139.96 210.92 C 140.63 211.54 141.67 211.50 142.28 210.84 L 142.98 210.10 C 143.60 209.43 143.56 208.39 142.90 207.78 C 142.23 207.16 141.19 207.19 140.58 207.86 Z M 139.90 208.59 L 139.24 209.28 C 138.61 209.93 138.63 210.97 139.29 211.60 C 139.94 212.22 140.98 212.20 141.60 211.55 L 142.27 210.85 C 142.89 210.20 142.87 209.16 142.22 208.53 C 141.56 207.91 140.52 207.93 139.90 208.59 Z M 139.25 209.27 L 138.57 209.96 C 137.94 210.60 137.95 211.64 138.60 212.27 C 139.24 212.91 140.28 212.89 140.91 212.25 L 141.59 211.56 C 142.22 210.91 142.21 209.88 141.56 209.24 C 140.92 208.61 139.88 208.62 139.25 209.27 Z M 138.59 209.95 L 137.90 210.64 C 137.26 211.27 137.26 212.31 137.89 212.95 C 138.53 213.59 139.56 213.59 140.20 212.95 L 140.90 212.26 C 141.53 211.62 141.54 210.59 140.90 209.95 C 140.26 209.31 139.23 209.31 138.59 209.95 Z M 137.91 210.63 L 137.20 211.32 C 136.56 211.94 136.55 212.98 137.17 213.62 C 137.80 214.27 138.83 214.28 139.48 213.65 L 140.19 212.96 C 140.83 212.33 140.85 211.30 140.22 210.66 C 139.59 210.01 138.56 210.00 137.91 210.63 Z M 137.22 211.30 L 136.50 211.99 C 135.84 212.61 135.82 213.64 136.44 214.29 C 137.06 214.95 138.09 214.97 138.74 214.35 L 139.46 213.66 C 140.11 213.04 140.14 212.01 139.52 211.36 C 138.90 210.71 137.87 210.68 137.22 211.30 Z M 136.51 211.98 L 135.77 212.67 C 135.11 213.28 135.07 214.31 135.68 214.97 C 136.29 215.63 137.32 215.66 137.98 215.05 L 138.72 214.36 C 139.38 213.75 139.42 212.73 138.81 212.07 C 138.20 211.41 137.17 211.37 136.51 211.98 Z M 135.78 212.66 L 135.02 213.35 C 134.36 213.95 134.31 214.98 134.91 215.64 C 135.51 216.31 136.54 216.36 137.20 215.76 L 137.96 215.06 C 138.63 214.46 138.68 213.44 138.07 212.77 C 137.47 212.11 136.45 212.06 135.78 212.66 Z M 135.04 213.34 L 134.25 214.03 C 133.58 214.63 133.52 215.65 134.11 216.32 C 134.71 216.99 135.73 217.05 136.40 216.46 L 137.18 215.77 C 137.85 215.17 137.92 214.15 137.32 213.48 C 136.73 212.81 135.71 212.75 135.04 213.34 Z M 134.27 214.03 L 133.51 214.69 C 132.83 215.27 132.76 216.29 133.34 216.97 C 133.93 217.64 134.95 217.71 135.62 217.13 L 136.39 216.47 C 137.06 215.89 137.13 214.86 136.55 214.19 C 135.96 213.51 134.94 213.44 134.27 214.03 Z M 133.52 214.68 L 132.76 215.32 C 132.08 215.90 132.00 216.92 132.57 217.60 C 133.15 218.28 134.17 218.36 134.85 217.78 L 135.61 217.14 C 136.29 216.56 136.37 215.54 135.80 214.86 C 135.22 214.18 134.20 214.10 133.52 214.68 Z M 132.77 215.31 L 132.00 215.95 C 131.31 216.52 131.22 217.54 131.79 218.22 C 132.36 218.91 133.37 219.00 134.06 218.44 L 134.83 217.79 C 135.52 217.22 135.61 216.21 135.04 215.52 C 134.48 214.84 133.46 214.74 132.77 215.31 Z M 132.01 215.95 L 131.23 216.58 C 130.54 217.15 130.44 218.16 131.00 218.85 C 131.56 219.54 132.57 219.64 133.26 219.08 L 134.05 218.44 C 134.74 217.88 134.84 216.87 134.28 216.18 C 133.72 215.49 132.70 215.39 132.01 215.95 Z M 131.24 216.58 L 130.45 217.21 C 129.76 217.76 129.64 218.77 130.19 219.47 C 130.75 220.16 131.76 220.28 132.45 219.72 L 133.25 219.09 C 133.94 218.54 134.06 217.53 133.50 216.83 C 132.95 216.14 131.94 216.02 131.24 216.58 Z M 130.47 217.20 L 129.67 217.82 C 128.97 218.36 128.84 219.37 129.39 220.07 C 129.93 220.77 130.94 220.90 131.64 220.35 L 132.44 219.73 C 133.14 219.19 133.26 218.18 132.72 217.48 C 132.17 216.78 131.17 216.65 130.47 217.20 Z M 129.68 217.81 L 128.88 218.42 C 128.18 218.96 128.04 219.96 128.58 220.67 C 129.12 221.37 130.12 221.51 130.83 220.97 L 131.63 220.36 C 132.33 219.82 132.47 218.82 131.93 218.11 C 131.39 217.41 130.39 217.27 129.68 217.81 Z M 128.90 218.41 L 128.10 219.00 C 127.39 219.53 127.24 220.54 127.77 221.24 C 128.30 221.95 129.30 222.10 130.01 221.57 L 130.81 220.98 C 131.52 220.45 131.67 219.45 131.14 218.74 C 130.61 218.03 129.61 217.88 128.90 218.41 Z M 128.12 219.00 L 127.32 219.57 C 126.61 220.09 126.45 221.09 126.97 221.80 C 127.49 222.52 128.49 222.68 129.20 222.16 L 129.99 221.58 C 130.71 221.07 130.87 220.07 130.35 219.35 C 129.83 218.64 128.83 218.48 128.12 219.00 Z M 127.34 219.56 L 126.51 220.15 C 125.79 220.66 125.61 221.65 126.12 222.38 C 126.63 223.10 127.63 223.27 128.35 222.76 L 129.18 222.17 C 129.90 221.66 130.07 220.67 129.57 219.95 C 129.06 219.23 128.06 219.05 127.34 219.56 Z M 126.53 220.14 L 125.67 220.73 C 124.94 221.22 124.75 222.22 125.25 222.94 C 125.75 223.67 126.74 223.86 127.47 223.36 L 128.33 222.77 C 129.05 222.27 129.24 221.28 128.74 220.55 C 128.24 219.83 127.25 219.64 126.53 220.14 Z M 125.69 220.72 L 124.83 221.28 C 124.10 221.77 123.90 222.76 124.39 223.49 C 124.87 224.22 125.86 224.42 126.59 223.94 L 127.45 223.37 C 128.18 222.88 128.38 221.90 127.89 221.16 C 127.41 220.43 126.42 220.23 125.69 220.72 Z M 124.85 221.27 L 124.01 221.81 C 123.27 222.29 123.05 223.27 123.53 224.01 C 124.00 224.75 124.99 224.97 125.73 224.49 L 126.57 223.95 C 127.31 223.47 127.53 222.49 127.05 221.75 C 126.58 221.01 125.59 220.80 124.85 221.27 Z M 124.03 221.80 L 123.18 222.33 C 122.44 222.79 122.21 223.77 122.68 224.52 C 123.14 225.26 124.12 225.49 124.86 225.03 L 125.71 224.50 C 126.45 224.04 126.68 223.06 126.21 222.31 C 125.75 221.57 124.77 221.34 124.03 221.80 Z M 123.20 222.32 L 122.36 222.83 C 121.61 223.28 121.37 224.26 121.83 225.01 C 122.28 225.76 123.26 226.00 124.01 225.54 L 124.85 225.04 C 125.60 224.58 125.84 223.61 125.38 222.86 C 124.93 222.11 123.95 221.87 123.20 222.32 Z M 122.38 222.82 L 121.54 223.31 C 120.79 223.76 120.53 224.73 120.98 225.48 C 121.42 226.24 122.39 226.49 123.15 226.05 L 123.99 225.55 C 124.74 225.11 124.99 224.14 124.55 223.38 C 124.11 222.63 123.13 222.38 122.38 222.82 Z M 121.56 223.31 L 120.72 223.79 C 119.96 224.22 119.70 225.19 120.13 225.95 C 120.56 226.71 121.53 226.97 122.29 226.54 L 123.13 226.05 C 123.89 225.62 124.15 224.65 123.72 223.89 C 123.28 223.14 122.32 222.87 121.56 223.31 Z M 120.73 223.78 L 119.87 224.26 C 119.11 224.68 118.84 225.65 119.26 226.41 C 119.69 227.17 120.65 227.45 121.41 227.02 L 122.27 226.54 C 123.04 226.12 123.31 225.15 122.89 224.39 C 122.46 223.63 121.50 223.35 120.73 223.78 Z M 119.89 224.25 L 118.99 224.74 C 118.23 225.16 117.94 226.11 118.36 226.88 C 118.78 227.65 119.74 227.93 120.50 227.52 L 121.40 227.03 C 122.17 226.61 122.45 225.65 122.03 224.89 C 121.62 224.12 120.66 223.84 119.89 224.25 Z M 119.01 224.73 L 118.11 225.21 C 117.34 225.62 117.05 226.57 117.46 227.34 C 117.86 228.11 118.82 228.41 119.59 228.00 L 120.49 227.52 C 121.26 227.11 121.55 226.16 121.14 225.39 C 120.74 224.62 119.78 224.32 119.01 224.73 Z M 118.13 225.20 L 117.23 225.66 C 116.46 226.06 116.15 227.01 116.55 227.79 C 116.95 228.56 117.90 228.87 118.68 228.47 L 119.57 228.00 C 120.35 227.61 120.65 226.65 120.25 225.88 C 119.85 225.10 118.90 224.80 118.13 225.20 Z M 117.25 225.66 L 116.35 226.11 C 115.57 226.50 115.26 227.45 115.65 228.22 C 116.04 229.00 116.99 229.32 117.76 228.92 L 118.66 228.47 C 119.44 228.08 119.75 227.14 119.36 226.36 C 118.97 225.58 118.02 225.27 117.25 225.66 Z M 116.36 226.10 L 115.47 226.54 C 114.69 226.92 114.36 227.86 114.75 228.65 C 115.13 229.43 116.07 229.75 116.85 229.37 L 117.75 228.93 C 118.53 228.55 118.85 227.61 118.47 226.82 C 118.09 226.04 117.15 225.72 116.36 226.10 Z M 115.49 226.53 L 114.59 226.96 C 113.81 227.33 113.48 228.27 113.85 229.05 C 114.22 229.84 115.16 230.17 115.95 229.80 L 116.84 229.37 C 117.62 229.00 117.96 228.06 117.58 227.28 C 117.21 226.49 116.27 226.16 115.49 226.53 Z M 114.61 226.95 L 113.73 227.36 C 112.94 227.73 112.59 228.66 112.96 229.45 C 113.32 230.24 114.26 230.58 115.05 230.21 L 115.93 229.80 C 116.72 229.44 117.06 228.50 116.70 227.72 C 116.33 226.93 115.40 226.59 114.61 226.95 Z M 113.74 227.36 L 112.82 227.77 C 112.03 228.13 111.67 229.06 112.03 229.85 C 112.39 230.64 113.32 230.99 114.11 230.64 L 115.03 230.22 C 115.82 229.86 116.18 228.93 115.82 228.14 C 115.46 227.35 114.53 227.00 113.74 227.36 Z M 112.83 227.76 L 111.89 228.18 C 111.09 228.53 110.73 229.45 111.08 230.25 C 111.42 231.04 112.35 231.40 113.14 231.06 L 114.09 230.64 C 114.89 230.30 115.25 229.37 114.90 228.58 C 114.55 227.78 113.63 227.42 112.83 227.76 Z M 111.90 228.17 L 110.96 228.57 C 110.17 228.91 109.79 229.83 110.13 230.63 C 110.47 231.43 111.39 231.80 112.19 231.46 L 113.13 231.06 C 113.93 230.73 114.30 229.80 113.96 229.01 C 113.62 228.21 112.70 227.83 111.90 228.17 Z M 110.98 228.56 L 110.05 228.95 C 109.25 229.28 108.87 230.19 109.19 230.99 C 109.52 231.79 110.44 232.18 111.24 231.85 L 112.17 231.47 C 112.97 231.14 113.36 230.22 113.03 229.42 C 112.70 228.62 111.78 228.24 110.98 228.56 Z M 110.07 228.94 L 109.14 229.31 C 108.34 229.63 107.95 230.54 108.27 231.34 C 108.59 232.15 109.50 232.54 110.30 232.22 L 111.22 231.85 C 112.03 231.53 112.42 230.62 112.10 229.82 C 111.78 229.01 110.87 228.62 110.07 228.94 Z M 109.16 229.30 L 108.25 229.66 C 107.44 229.97 107.04 230.87 107.35 231.68 C 107.66 232.49 108.57 232.89 109.37 232.58 L 110.29 232.23 C 111.09 231.91 111.50 231.01 111.18 230.20 C 110.87 229.39 109.97 228.99 109.16 229.30 Z M 108.26 229.65 L 107.36 229.99 C 106.55 230.29 106.14 231.19 106.44 232.00 C 106.74 232.81 107.64 233.22 108.45 232.92 L 109.36 232.58 C 110.17 232.28 110.58 231.38 110.28 230.57 C 109.97 229.76 109.07 229.35 108.26 229.65 Z M 107.37 229.98 L 106.43 230.33 C 105.62 230.62 105.20 231.52 105.49 232.33 C 105.79 233.14 106.68 233.56 107.50 233.27 L 108.44 232.93 C 109.25 232.63 109.67 231.73 109.38 230.92 C 109.08 230.11 108.18 229.69 107.37 229.98 Z M 106.45 230.32 L 105.46 230.67 C 104.64 230.95 104.21 231.84 104.50 232.66 C 104.79 233.47 105.68 233.90 106.49 233.62 L 107.48 233.27 C 108.30 232.99 108.73 232.09 108.44 231.28 C 108.15 230.46 107.26 230.03 106.45 230.32 Z M 105.48 230.66 L 104.50 230.99 C 103.68 231.27 103.24 232.15 103.52 232.97 C 103.80 233.79 104.68 234.23 105.50 233.95 L 106.48 233.62 C 107.29 233.35 107.73 232.46 107.46 231.64 C 107.18 230.82 106.30 230.38 105.48 230.66 Z M 104.52 230.98 L 103.56 231.29 C 102.74 231.56 102.29 232.44 102.56 233.26 C 102.82 234.08 103.70 234.53 104.52 234.27 L 105.48 233.96 C 106.30 233.69 106.76 232.81 106.49 231.99 C 106.22 231.17 105.34 230.72 104.52 230.98 Z M 103.58 231.29 L 102.64 231.58 C 101.81 231.83 101.35 232.71 101.61 233.53 C 101.86 234.36 102.74 234.82 103.56 234.57 L 104.50 234.27 C 105.33 234.02 105.79 233.14 105.54 232.32 C 105.28 231.50 104.41 231.03 103.58 231.29 Z M 102.66 231.57 L 101.74 231.85 C 100.91 232.09 100.43 232.96 100.68 233.78 C 100.92 234.61 101.79 235.09 102.62 234.84 L 103.54 234.57 C 104.37 234.33 104.84 233.46 104.60 232.63 C 104.36 231.80 103.49 231.33 102.66 231.57 Z M 101.76 231.84 L 100.85 232.09 C 100.02 232.32 99.53 233.18 99.76 234.01 C 100.00 234.84 100.86 235.33 101.69 235.10 L 102.59 234.85 C 103.42 234.62 103.91 233.76 103.68 232.93 C 103.45 232.10 102.59 231.61 101.76 231.84 Z M 100.88 232.08 L 99.96 232.32 C 99.12 232.54 98.62 233.39 98.84 234.23 C 99.05 235.06 99.90 235.56 100.74 235.35 L 101.66 235.11 C 102.50 234.89 103.00 234.04 102.78 233.20 C 102.56 232.37 101.71 231.87 100.88 232.08 Z M 99.99 232.32 L 99.07 232.53 C 98.23 232.73 97.71 233.58 97.91 234.41 C 98.11 235.25 98.95 235.77 99.79 235.57 L 100.71 235.35 C 101.55 235.15 102.06 234.31 101.87 233.47 C 101.67 232.63 100.82 232.12 99.99 232.32 Z M 99.10 232.53 L 98.16 232.73 C 97.32 232.91 96.79 233.74 96.97 234.58 C 97.15 235.43 97.98 235.96 98.82 235.78 L 99.76 235.58 C 100.60 235.40 101.13 234.57 100.95 233.72 C 100.77 232.88 99.94 232.35 99.10 232.53 Z M 98.20 232.72 L 97.23 232.91 C 96.38 233.07 95.83 233.89 95.99 234.74 C 96.15 235.58 96.97 236.14 97.82 235.97 L 98.79 235.79 C 99.63 235.62 100.19 234.81 100.03 233.96 C 99.86 233.11 99.04 232.56 98.20 232.72 Z M 97.26 232.90 L 96.24 233.08 C 95.39 233.22 94.82 234.03 94.96 234.88 C 95.11 235.73 95.92 236.30 96.77 236.15 L 97.79 235.98 C 98.64 235.83 99.21 235.03 99.06 234.18 C 98.92 233.33 98.11 232.76 97.26 232.90 Z M 96.27 233.07 L 95.18 233.24 C 94.32 233.37 93.74 234.16 93.87 235.01 C 93.99 235.87 94.79 236.45 95.64 236.32 L 96.74 236.16 C 97.59 236.03 98.17 235.23 98.05 234.38 C 97.92 233.53 97.12 232.94 96.27 233.07 Z M 95.20 233.23 L 94.29 233.36 C 93.44 233.47 92.84 234.26 92.96 235.12 C 93.07 235.97 93.86 236.57 94.71 236.45 L 95.62 236.33 C 96.47 236.21 97.07 235.42 96.96 234.57 C 96.84 233.72 96.05 233.12 95.20 233.23 Z M 94.31 233.36 L 93.39 233.47 C 92.54 233.58 91.93 234.36 92.04 235.22 C 92.15 236.07 92.93 236.68 93.78 236.57 L 94.70 236.45 C 95.55 236.34 96.16 235.56 96.05 234.71 C 95.94 233.85 95.16 233.25 94.31 233.36 Z M 93.40 233.47 L 92.45 233.58 C 91.59 233.68 90.98 234.46 91.08 235.32 C 91.18 236.17 91.96 236.78 92.81 236.68 L 93.77 236.57 C 94.63 236.47 95.24 235.69 95.14 234.84 C 95.04 233.98 94.26 233.37 93.40 233.47 Z M 92.46 233.58 L 91.47 233.69 C 90.61 233.79 89.99 234.56 90.09 235.42 C 90.19 236.28 90.96 236.89 91.81 236.80 L 92.80 236.68 C 93.66 236.59 94.28 235.82 94.18 234.96 C 94.09 234.10 93.31 233.49 92.46 233.58 Z M 91.47 233.69 L 90.46 233.80 C 89.60 233.89 88.98 234.66 89.07 235.52 C 89.16 236.38 89.93 237.00 90.79 236.91 L 91.81 236.80 C 92.66 236.70 93.28 235.93 93.19 235.08 C 93.10 234.22 92.33 233.60 91.47 233.69 Z M 90.46 233.80 L 89.42 233.91 C 88.57 234.00 87.94 234.77 88.03 235.62 C 88.12 236.48 88.89 237.10 89.75 237.01 L 90.79 236.91 C 91.64 236.82 92.27 236.05 92.18 235.19 C 92.09 234.33 91.32 233.71 90.46 233.80 Z M 89.43 233.91 L 88.37 234.02 C 87.52 234.10 86.89 234.87 86.98 235.73 C 87.07 236.58 87.83 237.21 88.69 237.12 L 89.74 237.01 C 90.60 236.93 91.23 236.16 91.14 235.30 C 91.05 234.45 90.28 233.82 89.43 233.91 Z M 88.38 234.02 L 87.31 234.12 C 86.46 234.21 85.83 234.97 85.92 235.83 C 86.00 236.69 86.77 237.32 87.63 237.23 L 88.69 237.12 C 89.55 237.04 90.17 236.27 90.08 235.41 C 90.00 234.56 89.23 233.93 88.38 234.02 Z M 87.31 234.12 L 86.89 234.17 C 86.03 234.25 85.40 235.02 85.49 235.87 C 85.57 236.73 86.34 237.36 87.20 237.27 L 87.63 237.23 C 88.48 237.14 89.11 236.38 89.02 235.52 C 88.94 234.66 88.17 234.04 87.31 234.12 Z"
      fill="black"
      fill-rule="nonzero" /><path d="M 192.43 78.03 L 191.17 78.03 C 190.18 78.03 189.37 78.84 189.37 79.84 C 189.37 80.84 190.18 81.65 191.18 81.64 L 192.44 81.64 C 193.43 81.64 194.24 80.83 194.24 79.83 C 194.24 78.83 193.43 78.03 192.43 78.03 Z M 191.16 78.01 L 189.93 78.02 C 188.92 78.03 188.11 78.85 188.12 79.86 C 188.13 80.87 188.96 81.68 189.96 81.67 L 191.19 81.66 C 192.20 81.65 193.01 80.83 193.00 79.82 C 192.99 78.81 192.17 78.00 191.16 78.01 Z M 189.90 78.00 L 188.73 78.03 C 187.71 78.06 186.91 78.90 186.93 79.92 C 186.96 80.94 187.80 81.75 188.82 81.72 L 189.99 81.69 C 191.01 81.67 191.82 80.82 191.79 79.80 C 191.77 78.78 190.92 77.98 189.90 78.00 Z M 188.68 78.02 L 187.59 78.07 C 186.56 78.13 185.77 79.00 185.83 80.03 C 185.88 81.06 186.76 81.85 187.78 81.79 L 188.87 81.74 C 189.90 81.68 190.69 80.81 190.64 79.78 C 190.58 78.75 189.70 77.96 188.68 78.02 Z M 187.51 78.06 L 186.53 78.15 C 185.50 78.25 184.74 79.17 184.84 80.21 C 184.94 81.24 185.86 82.00 186.89 81.90 L 187.87 81.81 C 188.90 81.71 189.66 80.79 189.56 79.75 C 189.46 78.72 188.54 77.96 187.51 78.06 Z M 186.40 78.15 L 185.56 78.29 C 184.53 78.47 183.83 79.45 184.00 80.48 C 184.17 81.52 185.15 82.21 186.19 82.04 L 187.02 81.90 C 188.06 81.73 188.76 80.75 188.58 79.71 C 188.41 78.68 187.43 77.98 186.40 78.15 Z M 185.34 78.33 L 184.67 78.52 C 183.65 78.82 183.07 79.88 183.37 80.90 C 183.67 81.92 184.73 82.50 185.75 82.20 L 186.41 82.01 C 187.43 81.71 188.01 80.64 187.72 79.63 C 187.42 78.61 186.35 78.03 185.34 78.33 Z M 184.20 78.71 L 183.64 79.05 C 182.73 79.61 182.44 80.80 183.00 81.71 C 183.55 82.62 184.74 82.91 185.66 82.36 L 186.22 82.01 C 187.13 81.46 187.42 80.27 186.86 79.36 C 186.30 78.44 185.11 78.15 184.20 78.71 Z M 182.83 80.04 L 182.58 80.72 C 182.21 81.72 182.73 82.84 183.73 83.20 C 184.74 83.57 185.86 83.06 186.22 82.05 L 186.47 81.37 C 186.84 80.36 186.32 79.25 185.32 78.88 C 184.31 78.51 183.19 79.03 182.83 80.04 Z M 182.58 82.06 L 182.89 82.87 C 183.26 83.88 184.38 84.39 185.38 84.01 C 186.39 83.64 186.90 82.52 186.52 81.52 L 186.22 80.70 C 185.85 79.70 184.73 79.19 183.72 79.56 C 182.72 79.94 182.21 81.06 182.58 82.06 Z M 183.20 83.42 L 183.90 84.28 C 184.57 85.11 185.79 85.24 186.63 84.57 C 187.46 83.89 187.59 82.67 186.91 81.83 L 186.21 80.97 C 185.54 80.14 184.31 80.01 183.48 80.69 C 182.65 81.36 182.52 82.58 183.20 83.42 Z M 184.12 84.51 L 184.99 85.29 C 185.79 86.00 187.02 85.92 187.73 85.12 C 188.44 84.32 188.37 83.09 187.57 82.38 L 186.69 81.60 C 185.89 80.89 184.66 80.97 183.95 81.77 C 183.24 82.57 183.31 83.80 184.12 84.51 Z M 185.14 85.40 L 185.84 85.91 C 186.70 86.54 187.92 86.34 188.55 85.48 C 189.17 84.61 188.98 83.40 188.11 82.77 L 187.42 82.26 C 186.55 81.63 185.34 81.83 184.71 82.70 C 184.08 83.56 184.27 84.78 185.14 85.40 Z M 185.96 85.98 L 186.72 86.45 C 187.62 87.01 188.81 86.74 189.38 85.83 C 189.94 84.92 189.66 83.73 188.75 83.17 L 187.99 82.70 C 187.09 82.13 185.90 82.41 185.33 83.32 C 184.77 84.22 185.05 85.42 185.96 85.98 Z M 186.82 86.50 L 187.65 86.95 C 188.59 87.46 189.76 87.11 190.26 86.18 C 190.77 85.24 190.42 84.07 189.48 83.56 L 188.65 83.11 C 187.71 82.61 186.55 82.96 186.04 83.89 C 185.53 84.83 185.88 86.00 186.82 86.50 Z M 187.74 86.99 L 188.66 87.43 C 189.61 87.89 190.76 87.49 191.22 86.53 C 191.68 85.57 191.27 84.43 190.32 83.97 L 189.40 83.53 C 188.44 83.07 187.29 83.47 186.84 84.43 C 186.38 85.39 186.78 86.53 187.74 86.99 Z M 188.72 87.45 L 189.73 87.90 C 190.70 88.32 191.83 87.87 192.25 86.90 C 192.67 85.93 192.23 84.81 191.26 84.38 L 190.25 83.94 C 189.28 83.52 188.15 83.97 187.73 84.93 C 187.31 85.90 187.75 87.03 188.72 87.45 Z M 189.78 87.91 L 190.90 88.36 C 191.87 88.76 192.99 88.29 193.38 87.31 C 193.78 86.33 193.31 85.22 192.33 84.82 L 191.21 84.37 C 190.24 83.97 189.12 84.45 188.73 85.42 C 188.33 86.40 188.80 87.51 189.78 87.91 Z M 190.93 88.37 L 191.80 88.70 C 192.78 89.08 193.88 88.60 194.26 87.62 C 194.64 86.64 194.15 85.54 193.17 85.16 L 192.30 84.82 C 191.32 84.44 190.22 84.92 189.84 85.90 C 189.46 86.88 189.95 87.99 190.93 88.37 Z M 191.82 88.70 L 192.73 89.05 C 193.71 89.42 194.80 88.92 195.17 87.94 C 195.54 86.96 195.04 85.87 194.07 85.50 L 193.15 85.16 C 192.17 84.79 191.08 85.28 190.71 86.26 C 190.34 87.24 190.84 88.33 191.82 88.70 Z M 192.75 89.05 L 193.69 89.39 C 194.67 89.75 195.76 89.25 196.12 88.27 C 196.48 87.29 195.98 86.21 195.00 85.85 L 194.05 85.50 C 193.07 85.14 191.98 85.64 191.62 86.62 C 191.26 87.60 191.77 88.69 192.75 89.05 Z M 193.71 89.39 L 194.68 89.74 C 195.66 90.09 196.73 89.59 197.09 88.61 C 197.44 87.63 196.93 86.55 195.95 86.20 L 194.98 85.85 C 194.00 85.50 192.93 86.01 192.57 86.99 C 192.22 87.96 192.73 89.04 193.71 89.39 Z M 194.69 89.74 L 195.67 90.08 C 196.65 90.43 197.72 89.92 198.06 88.94 C 198.41 87.96 197.90 86.89 196.92 86.55 L 195.94 86.20 C 194.96 85.86 193.89 86.37 193.55 87.35 C 193.20 88.32 193.72 89.39 194.69 89.74 Z M 195.68 90.08 L 196.66 90.42 C 197.64 90.76 198.70 90.24 199.04 89.27 C 199.38 88.29 198.86 87.23 197.89 86.89 L 196.91 86.55 C 195.93 86.21 194.87 86.73 194.53 87.71 C 194.19 88.68 194.71 89.74 195.68 90.08 Z M 196.67 90.42 L 197.64 90.75 C 198.61 91.08 199.67 90.56 200.00 89.58 C 200.33 88.61 199.81 87.56 198.84 87.22 L 197.87 86.90 C 196.90 86.56 195.84 87.08 195.51 88.06 C 195.18 89.03 195.70 90.09 196.67 90.42 Z M 197.65 90.74 L 198.59 91.06 C 199.56 91.38 200.61 90.86 200.93 89.89 C 201.26 88.92 200.73 87.87 199.76 87.54 L 198.83 87.23 C 197.86 86.90 196.81 87.43 196.48 88.40 C 196.16 89.37 196.68 90.42 197.65 90.74 Z M 198.60 91.05 L 199.58 91.37 C 200.55 91.69 201.59 91.17 201.91 90.20 C 202.23 89.23 201.70 88.19 200.73 87.87 L 199.75 87.55 C 198.78 87.23 197.74 87.75 197.42 88.72 C 197.11 89.69 197.63 90.73 198.60 91.05 Z M 199.59 91.36 L 200.68 91.71 C 201.64 92.02 202.67 91.49 202.98 90.53 C 203.29 89.57 202.76 88.54 201.80 88.23 L 200.72 87.88 C 199.76 87.57 198.73 88.10 198.42 89.06 C 198.10 90.02 198.63 91.05 199.59 91.36 Z M 200.69 91.70 L 201.71 92.02 C 202.67 92.32 203.68 91.79 203.98 90.84 C 204.29 89.89 203.76 88.87 202.81 88.57 L 201.79 88.25 C 200.83 87.94 199.82 88.47 199.51 89.43 C 199.21 90.38 199.74 91.39 200.69 91.70 Z M 201.73 92.00 L 202.69 92.30 C 203.63 92.60 204.64 92.07 204.93 91.13 C 205.23 90.18 204.70 89.18 203.75 88.89 L 202.79 88.59 C 201.85 88.29 200.84 88.82 200.55 89.76 C 200.26 90.70 200.78 91.71 201.73 92.00 Z M 202.70 92.29 L 203.62 92.57 C 204.55 92.86 205.54 92.34 205.83 91.40 C 206.12 90.47 205.60 89.47 204.66 89.19 L 203.74 88.90 C 202.81 88.61 201.82 89.14 201.53 90.07 C 201.24 91.01 201.76 92.00 202.70 92.29 Z M 203.62 92.55 L 204.50 92.82 C 205.43 93.11 206.41 92.59 206.69 91.66 C 206.98 90.74 206.46 89.76 205.53 89.47 L 204.65 89.20 C 203.73 88.92 202.75 89.44 202.46 90.36 C 202.18 91.29 202.70 92.27 203.62 92.55 Z M 204.50 92.80 L 205.36 93.07 C 206.27 93.35 207.24 92.84 207.52 91.93 C 207.81 91.01 207.30 90.04 206.38 89.76 L 205.53 89.49 C 204.62 89.21 203.65 89.72 203.36 90.64 C 203.08 91.55 203.59 92.52 204.50 92.80 Z M 205.35 93.05 L 206.28 93.34 C 207.18 93.62 208.15 93.12 208.43 92.22 C 208.71 91.32 208.21 90.35 207.31 90.07 L 206.38 89.78 C 205.48 89.49 204.52 90.00 204.23 90.90 C 203.95 91.80 204.45 92.76 205.35 93.05 Z M 206.27 93.32 L 207.25 93.63 C 208.14 93.92 209.10 93.43 209.38 92.54 C 209.67 91.65 209.18 90.69 208.29 90.40 L 207.32 90.09 C 206.43 89.80 205.47 90.29 205.18 91.18 C 204.89 92.07 205.38 93.03 206.27 93.32 Z M 207.23 93.61 L 208.19 93.93 C 209.07 94.23 210.02 93.75 210.32 92.87 C 210.61 91.99 210.14 91.04 209.26 90.75 L 208.30 90.43 C 207.42 90.13 206.47 90.60 206.18 91.48 C 205.88 92.36 206.35 93.32 207.23 93.61 Z M 208.17 93.91 L 209.11 94.24 C 209.97 94.54 210.92 94.09 211.23 93.22 C 211.53 92.35 211.08 91.41 210.21 91.10 L 209.28 90.77 C 208.41 90.47 207.46 90.92 207.15 91.79 C 206.85 92.65 207.30 93.60 208.17 93.91 Z M 209.09 94.21 L 210.01 94.56 C 210.86 94.87 211.81 94.44 212.12 93.59 C 212.44 92.73 212.01 91.79 211.16 91.47 L 210.24 91.13 C 209.38 90.81 208.43 91.24 208.12 92.09 C 207.80 92.95 208.23 93.89 209.09 94.21 Z M 209.98 94.53 L 210.88 94.89 C 211.72 95.22 212.67 94.81 213.00 93.97 C 213.33 93.14 212.92 92.19 212.09 91.86 L 211.18 91.50 C 210.35 91.16 209.40 91.57 209.07 92.41 C 208.73 93.25 209.14 94.19 209.98 94.53 Z M 210.85 94.86 L 211.78 95.25 C 212.60 95.60 213.55 95.22 213.90 94.40 C 214.25 93.58 213.86 92.63 213.04 92.28 L 212.12 91.88 C 211.30 91.53 210.35 91.92 210.00 92.74 C 209.65 93.56 210.03 94.51 210.85 94.86 Z M 211.75 95.23 L 212.66 95.64 C 213.47 96.01 214.42 95.65 214.79 94.84 C 215.15 94.03 214.79 93.08 213.98 92.71 L 213.07 92.30 C 212.26 91.94 211.31 92.30 210.95 93.10 C 210.58 93.91 210.94 94.86 211.75 95.23 Z M 212.64 95.62 L 213.55 96.05 C 214.34 96.42 215.29 96.08 215.67 95.29 C 216.05 94.49 215.71 93.54 214.91 93.16 L 214.00 92.73 C 213.21 92.36 212.26 92.70 211.88 93.50 C 211.50 94.29 211.84 95.24 212.64 95.62 Z M 213.53 96.03 L 214.43 96.47 C 215.22 96.85 216.17 96.52 216.55 95.74 C 216.93 94.95 216.61 94.00 215.82 93.62 L 214.92 93.18 C 214.13 92.80 213.19 93.12 212.80 93.91 C 212.42 94.70 212.74 95.65 213.53 96.03 Z M 214.42 96.45 L 215.32 96.90 C 216.09 97.28 217.04 96.96 217.43 96.19 C 217.81 95.41 217.50 94.46 216.72 94.07 L 215.82 93.63 C 215.05 93.24 214.10 93.56 213.71 94.34 C 213.33 95.12 213.64 96.07 214.42 96.45 Z M 215.32 96.89 L 215.77 97.11 C 216.54 97.50 217.48 97.19 217.87 96.41 C 218.26 95.64 217.94 94.69 217.17 94.31 L 216.72 94.08 C 215.94 93.70 215.00 94.01 214.61 94.78 C 214.23 95.56 214.54 96.50 215.32 96.89 Z"
      fill="black"
      fill-rule="nonzero" /><path d="M 221.27 70.43 L 221.32 71.45 C 221.36 72.45 222.21 73.22 223.20 73.18 C 224.20 73.13 224.98 72.29 224.93 71.29 L 224.89 70.28 C 224.85 69.28 224.00 68.50 223.00 68.55 C 222.00 68.59 221.23 69.43 221.27 70.43 Z M 221.28 71.51 L 221.35 72.51 C 221.43 73.53 222.32 74.30 223.34 74.22 C 224.36 74.15 225.12 73.26 225.05 72.24 L 224.97 71.23 C 224.90 70.21 224.01 69.45 222.99 69.52 C 221.97 69.60 221.20 70.49 221.28 71.51 Z M 221.32 72.63 L 221.46 73.62 C 221.60 74.66 222.56 75.38 223.60 75.24 C 224.63 75.09 225.36 74.14 225.21 73.10 L 225.08 72.11 C 224.93 71.08 223.98 70.35 222.94 70.50 C 221.90 70.64 221.18 71.60 221.32 72.63 Z M 221.45 73.81 L 221.68 74.77 C 221.93 75.81 222.98 76.45 224.02 76.20 C 225.06 75.95 225.70 74.91 225.45 73.86 L 225.22 72.91 C 224.97 71.87 223.93 71.23 222.89 71.48 C 221.85 71.72 221.20 72.77 221.45 73.81 Z M 221.72 75.02 L 222.07 75.94 C 222.46 76.96 223.61 77.47 224.63 77.08 C 225.65 76.69 226.16 75.54 225.77 74.52 L 225.41 73.61 C 225.02 72.59 223.88 72.08 222.86 72.47 C 221.84 72.86 221.33 74.00 221.72 75.02 Z M 222.17 76.24 L 222.65 77.07 C 223.21 78.03 224.44 78.36 225.40 77.80 C 226.36 77.25 226.69 76.02 226.14 75.05 L 225.66 74.23 C 225.11 73.26 223.88 72.93 222.91 73.49 C 221.95 74.04 221.62 75.27 222.17 76.24 Z M 222.81 77.32 L 223.37 78.03 C 224.06 78.91 225.34 79.06 226.22 78.36 C 227.09 77.67 227.24 76.40 226.55 75.52 L 225.98 74.80 C 225.29 73.93 224.02 73.78 223.14 74.47 C 222.26 75.16 222.11 76.44 222.81 77.32 Z M 223.52 78.20 L 224.19 78.88 C 224.98 79.67 226.26 79.68 227.06 78.89 C 227.85 78.10 227.86 76.82 227.07 76.03 L 226.40 75.35 C 225.61 74.55 224.33 74.55 223.53 75.33 C 222.74 76.12 222.73 77.40 223.52 78.20 Z M 224.32 78.99 L 225.08 79.64 C 225.93 80.36 227.21 80.26 227.93 79.41 C 228.65 78.56 228.55 77.28 227.70 76.56 L 226.94 75.91 C 226.09 75.18 224.81 75.29 224.09 76.14 C 223.36 76.99 223.47 78.27 224.32 78.99 Z M 225.18 79.72 L 226.00 80.34 C 226.90 81.00 228.17 80.82 228.84 79.92 C 229.51 79.03 229.32 77.76 228.43 77.09 L 227.60 76.47 C 226.70 75.81 225.43 75.99 224.77 76.89 C 224.10 77.78 224.28 79.05 225.18 79.72 Z M 226.08 80.39 L 226.96 80.98 C 227.88 81.61 229.14 81.37 229.77 80.44 C 230.39 79.51 230.15 78.26 229.22 77.63 L 228.35 77.04 C 227.42 76.41 226.16 76.65 225.54 77.58 C 224.91 78.51 225.16 79.76 226.08 80.39 Z M 227.01 81.02 L 227.92 81.59 C 228.87 82.19 230.11 81.90 230.71 80.96 C 231.31 80.01 231.02 78.76 230.08 78.17 L 229.17 77.59 C 228.22 77.00 226.98 77.28 226.38 78.23 C 225.78 79.17 226.07 80.42 227.01 81.02 Z M 227.96 81.60 L 228.82 82.12 C 229.77 82.69 231.01 82.39 231.58 81.44 C 232.16 80.49 231.85 79.25 230.90 78.67 L 230.04 78.16 C 229.09 77.58 227.85 77.89 227.28 78.84 C 226.70 79.79 227.01 81.03 227.96 81.60 Z M 228.84 82.11 L 229.70 82.62 C 230.65 83.18 231.87 82.86 232.43 81.92 C 232.99 80.97 232.67 79.75 231.73 79.19 L 230.87 78.68 C 229.92 78.12 228.70 78.44 228.14 79.38 C 227.58 80.33 227.90 81.55 228.84 82.11 Z M 229.72 82.60 L 230.57 83.11 C 231.51 83.66 232.72 83.34 233.27 82.40 C 233.82 81.46 233.51 80.26 232.57 79.71 L 231.71 79.20 C 230.77 78.65 229.56 78.97 229.01 79.90 C 228.46 80.84 228.78 82.05 229.72 82.60 Z M 230.58 83.08 L 231.44 83.59 C 232.36 84.14 233.56 83.83 234.11 82.91 C 234.66 81.98 234.35 80.79 233.42 80.24 L 232.57 79.73 C 231.64 79.18 230.44 79.49 229.89 80.41 C 229.35 81.34 229.65 82.53 230.58 83.08 Z M 231.43 83.56 L 232.28 84.08 C 233.19 84.64 234.38 84.35 234.93 83.44 C 235.49 82.53 235.20 81.34 234.29 80.79 L 233.43 80.27 C 232.52 79.71 231.34 80.00 230.78 80.91 C 230.23 81.82 230.52 83.01 231.43 83.56 Z M 232.26 84.05 L 233.11 84.58 C 234.00 85.15 235.18 84.88 235.74 83.99 C 236.31 83.10 236.04 81.92 235.15 81.36 L 234.31 80.82 C 233.42 80.26 232.24 80.52 231.67 81.41 C 231.11 82.30 231.38 83.48 232.26 84.05 Z M 233.09 84.54 L 233.92 85.10 C 234.79 85.68 235.96 85.45 236.54 84.58 C 237.12 83.72 236.89 82.55 236.02 81.97 L 235.18 81.40 C 234.32 80.83 233.15 81.06 232.57 81.92 C 231.99 82.79 232.22 83.96 233.09 84.54 Z M 233.89 85.05 L 234.70 85.62 C 235.53 86.22 236.69 86.02 237.29 85.19 C 237.89 84.35 237.69 83.19 236.86 82.60 L 236.05 82.02 C 235.22 81.42 234.06 81.62 233.46 82.45 C 232.86 83.29 233.06 84.45 233.89 85.05 Z M 234.68 85.56 L 235.47 86.16 C 236.27 86.77 237.41 86.61 238.02 85.80 C 238.63 85.00 238.47 83.86 237.67 83.25 L 236.88 82.65 C 236.07 82.05 234.93 82.20 234.32 83.01 C 233.72 83.81 233.87 84.95 234.68 85.56 Z M 235.45 86.10 L 236.23 86.72 C 237.01 87.34 238.13 87.21 238.75 86.43 C 239.36 85.66 239.23 84.54 238.46 83.92 L 237.68 83.30 C 236.90 82.69 235.78 82.82 235.17 83.59 C 234.55 84.37 234.68 85.49 235.45 86.10 Z M 236.23 86.68 L 237.00 87.31 C 237.75 87.93 238.85 87.82 239.47 87.07 C 240.09 86.33 239.98 85.22 239.23 84.61 L 238.46 83.97 C 237.71 83.36 236.61 83.46 235.99 84.21 C 235.38 84.95 235.48 86.06 236.23 86.68 Z M 237.01 87.27 L 237.77 87.92 C 238.50 88.53 239.58 88.44 240.19 87.72 C 240.81 87.00 240.72 85.91 239.99 85.30 L 239.23 84.65 C 238.51 84.04 237.42 84.13 236.81 84.85 C 236.19 85.57 236.28 86.66 237.01 87.27 Z M 237.78 87.88 L 238.54 88.54 C 239.25 89.15 240.31 89.07 240.92 88.37 C 241.52 87.67 241.45 86.61 240.75 86.00 L 239.98 85.34 C 239.28 84.73 238.22 84.81 237.61 85.51 C 237.00 86.21 237.08 87.27 237.78 87.88 Z M 238.56 88.51 L 239.32 89.17 C 240.00 89.77 241.04 89.70 241.64 89.02 C 242.24 88.34 242.17 87.30 241.49 86.70 L 240.73 86.03 C 240.05 85.43 239.01 85.50 238.41 86.19 C 237.81 86.87 237.88 87.91 238.56 88.51 Z M 239.33 89.15 L 239.65 89.43 C 240.32 90.02 241.35 89.96 241.94 89.28 C 242.53 88.61 242.46 87.59 241.79 87.00 L 241.48 86.72 C 240.80 86.13 239.78 86.19 239.19 86.87 C 238.60 87.54 238.66 88.56 239.33 89.15 Z"
      fill="black"
      fill-rule="nonzero" /></svg>