<svg xmlns="http://www.w3.org/2000/svg" width="300" height="300" viewBox="0 0 300 300">
<path d="M 108.27 139.54 L 107.14 139.03 C 106.27 138.63 105.23 139.02 104.83 139.90 C 104.44 140.77 104.82 141.80 105.70 142.20 L 106.83 142.72 C 107.70 143.11 108.73 142.73 109.13 141.85 C 109.53 140.98 109.14 139.94 108.27 139.54 Z M 107.10 138.98 L 106.02 138.53 C 105.11 138.16 104.08 138.59 103.70 139.50 C 103.33 140.40 103.76 141.44 104.66 141.81 L 105.74 142.26 C 106.65 142.63 107.68 142.20 108.06 141.29 C 108.43 140.39 108.00 139.35 107.10 138.98 Z M 105.89 138.45 L 104.90 138.14 C 103.96 137.84 102.94 138.37 102.64 139.31 C 102.34 140.26 102.86 141.27 103.81 141.58 L 104.80 141.89 C 105.74 142.19 106.76 141.67 107.06 140.72 C 107.36 139.77 106.84 138.76 105.89 138.45 Z M 104.60 138.04 L 103.76 137.93 C 102.76 137.80 101.84 138.50 101.70 139.50 C 101.57 140.51 102.27 141.43 103.28 141.56 L 104.12 141.67 C 105.12 141.81 106.04 141.11 106.17 140.10 C 106.31 139.10 105.61 138.18 104.60 138.04 Z M 103.09 137.94 L 102.44 138.09 C 101.44 138.33 100.82 139.33 101.06 140.33 C 101.30 141.33 102.30 141.95 103.30 141.71 L 103.95 141.56 C 104.95 141.32 105.57 140.32 105.33 139.32 C 105.09 138.32 104.09 137.70 103.09 137.94 Z M 101.45 138.68 L 101.01 139.19 C 100.33 139.97 100.42 141.16 101.20 141.84 C 101.99 142.51 103.17 142.42 103.85 141.64 L 104.29 141.13 C 104.97 140.34 104.88 139.16 104.10 138.48 C 103.31 137.80 102.13 137.89 101.45 138.68 Z M 100.61 139.95 L 100.40 140.78 C 100.15 141.78 100.76 142.80 101.76 143.05 C 102.76 143.31 103.78 142.70 104.03 141.70 L 104.24 140.88 C 104.50 139.87 103.89 138.86 102.89 138.60 C 101.89 138.35 100.87 138.95 100.61 139.95 Z M 100.35 141.20 L 100.33 142.24 C 100.31 143.27 101.13 144.12 102.16 144.14 C 103.20 144.16 104.05 143.34 104.07 142.31 L 104.09 141.27 C 104.10 140.24 103.28 139.39 102.25 139.37 C 101.22 139.35 100.37 140.17 100.35 141.20 Z M 100.35 142.47 L 100.47 143.64 C 100.58 144.66 101.49 145.40 102.52 145.29 C 103.54 145.19 104.28 144.27 104.17 143.25 L 104.05 142.08 C 103.94 141.06 103.03 140.32 102.00 140.42 C 100.98 140.53 100.24 141.45 100.35 142.47 Z M 100.50 143.77 L 100.70 144.89 C 100.88 145.90 101.84 146.57 102.85 146.39 C 103.86 146.21 104.53 145.24 104.35 144.23 L 104.15 143.11 C 103.97 142.11 103.00 141.43 101.99 141.62 C 100.99 141.80 100.31 142.76 100.50 143.77 Z M 100.73 144.97 L 100.93 145.85 C 101.15 146.84 102.14 147.47 103.13 147.24 C 104.12 147.02 104.74 146.03 104.52 145.04 L 104.32 144.16 C 104.10 143.16 103.11 142.54 102.12 142.77 C 101.12 142.99 100.50 143.98 100.73 144.97 Z M 100.96 145.91 L 101.19 146.80 C 101.45 147.77 102.44 148.35 103.42 148.10 C 104.39 147.84 104.97 146.85 104.72 145.87 L 104.49 144.98 C 104.23 144.01 103.24 143.43 102.26 143.68 C 101.29 143.94 100.70 144.93 100.96 145.91 Z M 101.22 146.84 L 101.49 147.75 C 101.77 148.71 102.77 149.26 103.73 148.98 C 104.68 148.70 105.23 147.70 104.95 146.75 L 104.69 145.83 C 104.41 144.87 103.41 144.32 102.45 144.60 C 101.50 144.88 100.95 145.88 101.22 146.84 Z M 101.52 147.78 L 101.82 148.74 C 102.11 149.68 103.11 150.20 104.05 149.91 C 104.99 149.62 105.52 148.62 105.22 147.68 L 104.92 146.72 C 104.63 145.78 103.63 145.25 102.69 145.55 C 101.75 145.84 101.22 146.84 101.52 147.78 Z M 101.84 148.75 L 102.17 149.77 C 102.48 150.70 103.47 151.21 104.40 150.91 C 105.33 150.60 105.83 149.61 105.53 148.68 L 105.20 147.66 C 104.90 146.73 103.90 146.23 102.97 146.53 C 102.05 146.83 101.54 147.83 101.84 148.75 Z M 102.20 149.78 L 102.56 150.88 C 102.87 151.79 103.85 152.29 104.77 151.98 C 105.68 151.68 106.18 150.69 105.88 149.78 L 105.51 148.68 C 105.21 147.76 104.22 147.27 103.30 147.57 C 102.39 147.87 101.89 148.86 102.20 149.78 Z M 102.58 150.87 L 102.87 151.77 C 103.18 152.67 104.16 153.16 105.06 152.86 C 105.97 152.56 106.46 151.58 106.16 150.67 L 105.86 149.78 C 105.56 148.87 104.58 148.38 103.67 148.68 C 102.76 148.99 102.27 149.97 102.58 150.87 Z M 102.88 151.76 L 103.19 152.68 C 103.49 153.59 104.47 154.07 105.37 153.77 C 106.27 153.47 106.76 152.50 106.46 151.59 L 106.15 150.67 C 105.85 149.77 104.87 149.28 103.97 149.59 C 103.07 149.89 102.58 150.86 102.88 151.76 Z M 103.20 152.68 L 103.52 153.63 C 103.82 154.53 104.79 155.01 105.68 154.71 C 106.58 154.41 107.06 153.44 106.76 152.55 L 106.45 151.60 C 106.15 150.70 105.18 150.22 104.28 150.51 C 103.38 150.81 102.90 151.78 103.20 152.68 Z M 103.53 153.63 L 103.85 154.60 C 104.15 155.50 105.12 155.98 106.01 155.68 C 106.90 155.38 107.38 154.41 107.08 153.52 L 106.75 152.55 C 106.46 151.66 105.49 151.18 104.60 151.48 C 103.71 151.77 103.23 152.74 103.53 153.63 Z M 103.86 154.60 L 104.19 155.58 C 104.49 156.47 105.45 156.95 106.33 156.65 C 107.22 156.35 107.70 155.39 107.40 154.51 L 107.07 153.52 C 106.77 152.64 105.81 152.16 104.93 152.46 C 104.04 152.76 103.56 153.72 103.86 154.60 Z M 104.20 155.58 L 104.53 156.56 C 104.83 157.44 105.78 157.92 106.66 157.62 C 107.54 157.32 108.02 156.37 107.72 155.49 L 107.39 154.51 C 107.09 153.63 106.14 153.15 105.26 153.45 C 104.38 153.75 103.90 154.70 104.20 155.58 Z M 104.54 156.56 L 104.87 157.53 C 105.17 158.41 106.12 158.88 106.99 158.58 C 107.87 158.28 108.34 157.33 108.04 156.46 L 107.71 155.49 C 107.42 154.62 106.47 154.15 105.59 154.44 C 104.72 154.74 104.25 155.69 104.54 156.56 Z M 104.88 157.53 L 105.20 158.47 C 105.50 159.34 106.44 159.81 107.31 159.51 C 108.18 159.22 108.65 158.27 108.35 157.40 L 108.03 156.46 C 107.73 155.59 106.79 155.12 105.92 155.42 C 105.05 155.72 104.58 156.66 104.88 157.53 Z M 105.21 158.47 L 105.55 159.46 C 105.84 160.32 106.78 160.78 107.65 160.49 C 108.51 160.19 108.97 159.25 108.68 158.39 L 108.34 157.40 C 108.04 156.54 107.10 156.08 106.24 156.38 C 105.38 156.67 104.92 157.61 105.21 158.47 Z M 105.56 159.46 L 105.92 160.50 C 106.22 161.35 107.15 161.81 108.01 161.51 C 108.87 161.21 109.32 160.28 109.02 159.42 L 108.66 158.38 C 108.37 157.53 107.43 157.07 106.58 157.37 C 105.72 157.67 105.26 158.60 105.56 159.46 Z M 105.93 160.50 L 106.28 161.49 C 106.58 162.34 107.51 162.78 108.36 162.48 C 109.21 162.18 109.65 161.25 109.36 160.41 L 109.01 159.42 C 108.71 158.57 107.78 158.12 106.93 158.42 C 106.08 158.72 105.64 159.65 105.93 160.50 Z M 106.30 161.49 L 106.63 162.44 C 106.94 163.28 107.86 163.71 108.70 163.41 C 109.54 163.11 109.98 162.19 109.68 161.35 L 109.34 160.40 C 109.04 159.56 108.11 159.12 107.27 159.42 C 106.43 159.73 106.00 160.65 106.30 161.49 Z M 106.65 162.44 L 106.98 163.35 C 107.29 164.19 108.21 164.61 109.04 164.31 C 109.87 164.00 110.30 163.08 110.00 162.25 L 109.66 161.34 C 109.36 160.51 108.44 160.08 107.61 160.38 C 106.77 160.69 106.35 161.61 106.65 162.44 Z M 107.00 163.36 L 107.33 164.25 C 107.64 165.07 108.56 165.49 109.38 165.18 C 110.21 164.87 110.62 163.95 110.31 163.13 L 109.98 162.24 C 109.67 161.42 108.75 161.00 107.93 161.31 C 107.11 161.62 106.69 162.54 107.00 163.36 Z M 107.35 164.26 L 107.68 165.12 C 108.00 165.94 108.91 166.34 109.73 166.03 C 110.54 165.71 110.95 164.80 110.63 163.99 L 110.30 163.12 C 109.98 162.30 109.07 161.90 108.25 162.21 C 107.44 162.53 107.03 163.44 107.35 164.26 Z M 107.70 165.14 L 108.05 166.02 C 108.37 166.82 109.28 167.22 110.09 166.90 C 110.90 166.57 111.29 165.66 110.97 164.86 L 110.62 163.97 C 110.30 163.17 109.38 162.78 108.58 163.10 C 107.77 163.42 107.38 164.33 107.70 165.14 Z M 108.06 166.03 L 108.44 166.96 C 108.77 167.76 109.68 168.14 110.48 167.81 C 111.28 167.48 111.67 166.57 111.34 165.77 L 110.96 164.84 C 110.63 164.04 109.71 163.66 108.91 163.99 C 108.12 164.32 107.73 165.23 108.06 166.03 Z M 108.45 166.97 L 108.84 167.89 C 109.17 168.69 110.09 169.06 110.88 168.73 C 111.68 168.39 112.05 167.47 111.72 166.68 L 111.33 165.76 C 111.00 164.96 110.08 164.59 109.28 164.92 C 108.49 165.26 108.11 166.17 108.45 166.97 Z M 108.84 167.90 L 109.24 168.82 C 109.58 169.61 110.50 169.98 111.29 169.64 C 112.08 169.30 112.45 168.38 112.11 167.59 L 111.71 166.67 C 111.37 165.87 110.45 165.51 109.66 165.85 C 108.87 166.19 108.50 167.11 108.84 167.90 Z M 109.24 168.83 L 109.64 169.75 C 109.99 170.54 110.91 170.90 111.70 170.55 C 112.49 170.21 112.85 169.29 112.50 168.49 L 112.10 167.58 C 111.76 166.79 110.84 166.43 110.05 166.77 C 109.26 167.12 108.89 168.04 109.24 168.83 Z M 109.64 169.75 L 110.05 170.66 C 110.40 171.45 111.32 171.81 112.11 171.46 C 112.90 171.11 113.25 170.19 112.91 169.40 L 112.50 168.49 C 112.15 167.70 111.23 167.34 110.44 167.69 C 109.65 168.04 109.30 168.96 109.64 169.75 Z M 110.05 170.67 L 110.45 171.58 C 110.80 172.37 111.73 172.72 112.51 172.37 C 113.30 172.02 113.66 171.10 113.31 170.31 L 112.90 169.40 C 112.55 168.61 111.63 168.26 110.84 168.61 C 110.05 168.96 109.70 169.88 110.05 170.67 Z M 110.46 171.58 L 110.53 171.75 C 110.88 172.54 111.80 172.89 112.59 172.54 C 113.38 172.19 113.73 171.27 113.38 170.48 L 113.31 170.31 C 112.96 169.53 112.04 169.17 111.25 169.52 C 110.46 169.87 110.10 170.79 110.46 171.58 Z"
      fill="black"
      fill-rule="nonzero" /><path d="M 142.10 132.09 L 141.73 132.99 C 141.36 133.88 141.78 134.90 142.67 135.26 C 143.56 135.63 144.57 135.21 144.94 134.32 L 145.31 133.42 C 145.68 132.53 145.26 131.51 144.37 131.14 C 143.48 130.78 142.47 131.20 142.10 132.09 Z M 141.69 133.02 L 141.33 133.93 C 140.97 134.84 141.42 135.87 142.33 136.22 C 143.24 136.57 144.27 136.12 144.62 135.21 L 144.98 134.30 C 145.33 133.39 144.88 132.36 143.97 132.01 C 143.06 131.66 142.04 132.11 141.69 133.02 Z M 141.28 133.99 L 140.96 134.92 C 140.63 135.86 141.13 136.88 142.07 137.20 C 143.01 137.53 144.03 137.03 144.36 136.09 L 144.68 135.16 C 145.00 134.22 144.50 133.20 143.56 132.87 C 142.62 132.55 141.60 133.05 141.28 133.99 Z M 140.90 135.01 L 140.63 135.97 C 140.36 136.94 140.92 137.95 141.89 138.22 C 142.87 138.50 143.88 137.93 144.15 136.96 L 144.42 136.00 C 144.69 135.03 144.12 134.02 143.15 133.75 C 142.18 133.47 141.17 134.04 140.90 135.01 Z M 140.57 136.10 L 140.37 137.10 C 140.17 138.10 140.82 139.08 141.83 139.28 C 142.83 139.48 143.81 138.83 144.01 137.82 L 144.21 136.83 C 144.41 135.82 143.76 134.84 142.75 134.64 C 141.74 134.44 140.77 135.10 140.57 136.10 Z M 140.32 137.26 L 140.21 138.28 C 140.10 139.32 140.85 140.24 141.88 140.35 C 142.92 140.46 143.84 139.71 143.95 138.68 L 144.06 137.66 C 144.17 136.62 143.42 135.69 142.39 135.58 C 141.35 135.47 140.43 136.22 140.32 137.26 Z M 140.19 138.45 L 140.17 139.42 C 140.15 140.46 140.99 141.33 142.03 141.34 C 143.08 141.36 143.94 140.53 143.96 139.48 L 143.97 138.51 C 143.99 137.47 143.16 136.60 142.11 136.59 C 141.07 136.57 140.20 137.40 140.19 138.45 Z M 140.18 139.55 L 140.23 140.55 C 140.29 141.59 141.18 142.39 142.22 142.33 C 143.26 142.28 144.06 141.38 144.00 140.34 L 143.95 139.35 C 143.89 138.31 143.00 137.51 141.96 137.56 C 140.92 137.62 140.12 138.51 140.18 139.55 Z M 140.25 140.66 L 140.36 141.67 C 140.48 142.70 141.42 143.45 142.45 143.33 C 143.48 143.21 144.22 142.28 144.11 141.24 L 143.99 140.23 C 143.87 139.20 142.94 138.46 141.90 138.58 C 140.87 138.69 140.13 139.63 140.25 140.66 Z M 140.38 141.76 L 140.55 142.77 C 140.72 143.79 141.68 144.49 142.71 144.32 C 143.73 144.15 144.42 143.18 144.25 142.16 L 144.09 141.15 C 143.92 140.13 142.95 139.43 141.93 139.60 C 140.91 139.77 140.21 140.74 140.38 141.76 Z M 140.57 142.84 L 140.77 143.84 C 140.98 144.85 141.97 145.50 142.99 145.29 C 144.00 145.08 144.65 144.09 144.44 143.08 L 144.23 142.08 C 144.02 141.07 143.03 140.42 142.02 140.63 C 141.01 140.84 140.36 141.83 140.57 142.84 Z M 140.79 143.90 L 141.03 144.87 C 141.27 145.87 142.28 146.48 143.29 146.24 C 144.29 145.99 144.90 144.98 144.66 143.98 L 144.42 143.01 C 144.18 142.01 143.17 141.40 142.16 141.64 C 141.16 141.89 140.55 142.90 140.79 143.90 Z M 141.05 144.92 L 141.31 145.87 C 141.59 146.86 142.61 147.44 143.60 147.16 C 144.59 146.89 145.17 145.86 144.90 144.87 L 144.63 143.93 C 144.36 142.94 143.34 142.36 142.35 142.63 C 141.36 142.91 140.78 143.93 141.05 144.92 Z M 141.35 145.92 L 141.63 146.84 C 141.94 147.81 142.97 148.36 143.94 148.06 C 144.91 147.75 145.45 146.72 145.15 145.75 L 144.86 144.83 C 144.56 143.85 143.53 143.31 142.56 143.61 C 141.59 143.91 141.04 144.95 141.35 145.92 Z M 141.67 146.89 L 141.98 147.80 C 142.31 148.75 143.35 149.25 144.30 148.92 C 145.25 148.60 145.76 147.56 145.43 146.61 L 145.12 145.70 C 144.79 144.75 143.75 144.24 142.80 144.57 C 141.85 144.90 141.34 145.94 141.67 146.89 Z M 142.02 147.84 L 142.36 148.75 C 142.72 149.68 143.76 150.15 144.69 149.79 C 145.62 149.44 146.09 148.40 145.74 147.46 L 145.39 146.56 C 145.04 145.63 144.00 145.16 143.06 145.52 C 142.13 145.87 141.67 146.91 142.02 147.84 Z M 142.40 148.79 L 142.78 149.71 C 143.16 150.62 144.20 151.05 145.11 150.68 C 146.02 150.30 146.46 149.26 146.08 148.35 L 145.70 147.42 C 145.32 146.51 144.28 146.08 143.37 146.46 C 142.46 146.83 142.02 147.88 142.40 148.79 Z M 142.81 149.74 L 143.24 150.70 C 143.63 151.59 144.67 152.00 145.57 151.60 C 146.46 151.21 146.86 150.17 146.47 149.28 L 146.05 148.32 C 145.65 147.42 144.61 147.02 143.72 147.41 C 142.83 147.81 142.42 148.85 142.81 149.74 Z M 143.27 150.72 L 143.70 151.67 C 144.11 152.54 145.15 152.93 146.02 152.52 C 146.90 152.12 147.28 151.08 146.88 150.20 L 146.44 149.25 C 146.03 148.38 145.00 148.00 144.12 148.40 C 143.24 148.81 142.86 149.85 143.27 150.72 Z M 143.73 151.68 L 144.15 152.56 C 144.56 153.43 145.60 153.79 146.46 153.38 C 147.32 152.96 147.69 151.93 147.28 151.07 L 146.85 150.19 C 146.44 149.32 145.41 148.96 144.54 149.37 C 143.68 149.78 143.32 150.82 143.73 151.68 Z M 144.17 152.57 L 144.62 153.48 C 145.03 154.33 146.06 154.68 146.92 154.26 C 147.77 153.85 148.12 152.82 147.70 151.96 L 147.25 151.06 C 146.84 150.20 145.81 149.85 144.95 150.27 C 144.10 150.69 143.75 151.72 144.17 152.57 Z M 144.64 153.49 L 145.10 154.41 C 145.52 155.25 146.55 155.59 147.39 155.17 C 148.23 154.74 148.57 153.72 148.14 152.88 L 147.68 151.96 C 147.26 151.12 146.23 150.78 145.39 151.20 C 144.55 151.62 144.21 152.65 144.64 153.49 Z M 145.12 154.42 L 145.59 155.34 C 146.02 156.17 147.04 156.49 147.87 156.07 C 148.70 155.64 149.03 154.62 148.60 153.79 L 148.12 152.87 C 147.70 152.04 146.68 151.71 145.85 152.14 C 145.02 152.57 144.69 153.59 145.12 154.42 Z M 145.61 155.35 L 146.09 156.25 C 146.52 157.07 147.54 157.39 148.35 156.95 C 149.17 156.52 149.49 155.51 149.06 154.69 L 148.58 153.78 C 148.15 152.96 147.13 152.65 146.31 153.08 C 145.50 153.51 145.18 154.53 145.61 155.35 Z M 146.11 156.26 L 146.58 157.14 C 147.02 157.95 148.03 158.25 148.84 157.81 C 149.64 157.38 149.95 156.37 149.51 155.56 L 149.04 154.68 C 148.60 153.87 147.59 153.57 146.78 154.01 C 145.98 154.44 145.67 155.45 146.11 156.26 Z M 146.60 157.15 L 147.07 157.99 C 147.51 158.78 148.51 159.07 149.31 158.63 C 150.11 158.19 150.39 157.19 149.95 156.39 L 149.49 155.55 C 149.05 154.76 148.05 154.47 147.25 154.91 C 146.45 155.35 146.16 156.35 146.60 157.15 Z M 147.09 158.00 L 147.64 158.97 C 148.09 159.75 149.09 160.02 149.87 159.57 C 150.66 159.13 150.93 158.13 150.48 157.34 L 149.93 156.38 C 149.48 155.59 148.48 155.32 147.70 155.77 C 146.92 156.22 146.64 157.21 147.09 158.00 Z M 147.67 158.98 L 148.22 159.91 C 148.67 160.68 149.67 160.93 150.44 160.48 C 151.21 160.02 151.46 159.03 151.01 158.26 L 150.46 157.33 C 150.00 156.56 149.01 156.30 148.24 156.76 C 147.47 157.22 147.21 158.21 147.67 158.98 Z M 148.24 159.92 L 148.77 160.78 C 149.23 161.54 150.22 161.78 150.98 161.31 C 151.74 160.85 151.97 159.86 151.51 159.10 L 150.98 158.24 C 150.52 157.49 149.53 157.25 148.77 157.71 C 148.02 158.17 147.78 159.16 148.24 159.92 Z M 148.79 160.79 L 149.30 161.60 C 149.77 162.35 150.75 162.57 151.50 162.10 C 152.24 161.63 152.47 160.65 152.00 159.90 L 151.49 159.09 C 151.02 158.35 150.03 158.12 149.29 158.59 C 148.54 159.06 148.32 160.05 148.79 160.79 Z M 149.32 161.61 L 149.82 162.38 C 150.29 163.12 151.27 163.33 152.00 162.86 C 152.74 162.39 152.95 161.41 152.48 160.68 L 151.98 159.90 C 151.51 159.16 150.53 158.95 149.79 159.42 C 149.06 159.89 148.85 160.87 149.32 161.61 Z M 149.83 162.38 L 150.32 163.14 C 150.80 163.87 151.77 164.08 152.49 163.61 C 153.22 163.13 153.43 162.16 152.96 161.44 L 152.46 160.68 C 151.99 159.95 151.02 159.74 150.29 160.22 C 149.57 160.69 149.36 161.66 149.83 162.38 Z"
      fill="black"
      fill-rule="nonzero" /><path d="M 209.35 138.35 L 208.83 139.07 C 208.27 139.83 208.43 140.91 209.19 141.47 C 209.95 142.03 211.03 141.86 211.59 141.10 L 212.11 140.38 C 212.67 139.62 212.51 138.55 211.75 137.99 C 210.99 137.43 209.91 137.59 209.35 138.35 Z M 208.79 139.08 L 208.26 139.81 C 207.71 140.60 207.89 141.69 208.67 142.24 C 209.46 142.80 210.55 142.62 211.10 141.83 L 211.63 141.09 C 212.18 140.31 212.00 139.22 211.21 138.67 C 210.43 138.11 209.34 138.29 208.79 139.08 Z M 208.21 139.84 L 207.69 140.62 C 207.15 141.43 207.37 142.53 208.19 143.07 C 209.00 143.61 210.10 143.39 210.64 142.58 L 211.16 141.80 C 211.70 140.99 211.48 139.89 210.66 139.35 C 209.85 138.81 208.75 139.03 208.21 139.84 Z M 207.63 140.67 L 207.13 141.49 C 206.62 142.34 206.89 143.45 207.74 143.96 C 208.59 144.48 209.70 144.20 210.21 143.35 L 210.71 142.53 C 211.22 141.67 210.95 140.57 210.10 140.05 C 209.25 139.54 208.14 139.81 207.63 140.67 Z M 207.06 141.56 L 206.58 142.46 C 206.10 143.35 206.44 144.46 207.33 144.94 C 208.22 145.41 209.33 145.07 209.81 144.18 L 210.29 143.28 C 210.76 142.39 210.42 141.28 209.53 140.81 C 208.64 140.33 207.53 140.67 207.06 141.56 Z M 206.50 142.55 L 206.05 143.54 C 205.62 144.47 206.03 145.57 206.96 146.00 C 207.90 146.43 209.00 146.02 209.43 145.09 L 209.88 144.10 C 210.31 143.16 209.90 142.06 208.97 141.63 C 208.03 141.20 206.93 141.61 206.50 142.55 Z M 205.98 143.63 L 205.55 144.73 C 205.18 145.70 205.66 146.79 206.63 147.17 C 207.61 147.55 208.70 147.06 209.07 146.09 L 209.50 144.99 C 209.87 144.02 209.39 142.93 208.42 142.55 C 207.45 142.17 206.35 142.66 205.98 143.63 Z M 205.50 144.81 L 205.22 145.68 C 204.89 146.68 205.43 147.75 206.43 148.08 C 207.43 148.41 208.51 147.87 208.84 146.87 L 209.12 146.00 C 209.45 145.00 208.91 143.93 207.91 143.60 C 206.91 143.27 205.83 143.81 205.50 144.81 Z M 205.19 145.74 L 204.93 146.62 C 204.64 147.64 205.22 148.70 206.23 149.00 C 207.25 149.29 208.31 148.71 208.61 147.70 L 208.87 146.81 C 209.16 145.79 208.58 144.73 207.57 144.43 C 206.55 144.14 205.49 144.72 205.19 145.74 Z M 204.91 146.67 L 204.67 147.60 C 204.40 148.63 205.01 149.68 206.03 149.95 C 207.06 150.22 208.11 149.61 208.38 148.58 L 208.63 147.65 C 208.90 146.62 208.29 145.57 207.26 145.30 C 206.23 145.03 205.18 145.64 204.91 146.67 Z M 204.65 147.64 L 204.42 148.61 C 204.16 149.64 204.80 150.68 205.83 150.93 C 206.87 151.19 207.91 150.55 208.16 149.52 L 208.40 148.55 C 208.65 147.51 208.01 146.47 206.98 146.22 C 205.94 145.97 204.90 146.60 204.65 147.64 Z M 204.40 148.63 L 204.18 149.63 C 203.94 150.67 204.59 151.71 205.63 151.94 C 206.68 152.18 207.71 151.53 207.95 150.49 L 208.18 149.49 C 208.41 148.45 207.76 147.41 206.72 147.17 C 205.68 146.94 204.64 147.59 204.40 148.63 Z M 204.16 149.65 L 203.94 150.66 C 203.72 151.71 204.38 152.74 205.43 152.97 C 206.48 153.20 207.51 152.53 207.74 151.48 L 207.96 150.47 C 208.19 149.42 207.52 148.39 206.47 148.16 C 205.43 147.93 204.39 148.60 204.16 149.65 Z M 203.94 150.67 L 203.72 151.69 C 203.50 152.75 204.17 153.78 205.23 154.00 C 206.28 154.22 207.31 153.55 207.54 152.50 L 207.75 151.47 C 207.97 150.42 207.30 149.38 206.24 149.16 C 205.19 148.94 204.16 149.62 203.94 150.67 Z M 203.71 151.70 L 203.50 152.72 C 203.28 153.78 203.96 154.82 205.02 155.04 C 206.08 155.25 207.11 154.57 207.33 153.52 L 207.54 152.49 C 207.76 151.43 207.08 150.40 206.02 150.18 C 204.97 149.96 203.93 150.64 203.71 151.70 Z M 203.49 152.72 L 203.28 153.74 C 203.06 154.80 203.74 155.84 204.80 156.06 C 205.87 156.28 206.90 155.60 207.13 154.54 L 207.34 153.52 C 207.56 152.46 206.88 151.42 205.82 151.20 C 204.75 150.98 203.72 151.66 203.49 152.72 Z M 203.28 153.73 L 203.06 154.73 C 202.84 155.79 203.52 156.84 204.58 157.07 C 205.64 157.29 206.69 156.61 206.92 155.55 L 207.13 154.55 C 207.36 153.48 206.68 152.44 205.61 152.21 C 204.55 151.98 203.50 152.66 203.28 153.73 Z M 203.06 154.71 L 202.82 155.80 C 202.58 156.86 203.26 157.92 204.32 158.15 C 205.38 158.39 206.44 157.72 206.68 156.65 L 206.92 155.57 C 207.16 154.50 206.48 153.45 205.42 153.21 C 204.36 152.97 203.30 153.65 203.06 154.71 Z M 202.82 155.77 L 202.57 156.87 C 202.32 157.93 202.98 158.99 204.04 159.24 C 205.10 159.49 206.17 158.83 206.42 157.77 L 206.67 156.68 C 206.92 155.61 206.26 154.55 205.20 154.30 C 204.14 154.05 203.07 154.71 202.82 155.77 Z M 202.57 156.84 L 202.31 157.90 C 202.05 158.96 202.70 160.03 203.76 160.30 C 204.82 160.56 205.89 159.91 206.15 158.85 L 206.41 157.79 C 206.68 156.73 206.03 155.66 204.97 155.40 C 203.91 155.14 202.83 155.78 202.57 156.84 Z M 202.31 157.88 L 202.05 158.89 C 201.78 159.95 202.41 161.03 203.47 161.31 C 204.53 161.58 205.61 160.95 205.89 159.89 L 206.15 158.87 C 206.42 157.81 205.79 156.73 204.73 156.46 C 203.67 156.18 202.59 156.82 202.31 157.88 Z M 202.06 158.87 L 201.79 159.84 C 201.50 160.90 202.12 161.99 203.18 162.28 C 204.24 162.57 205.33 161.94 205.61 160.89 L 205.88 159.91 C 206.17 158.86 205.55 157.77 204.49 157.48 C 203.43 157.19 202.34 157.81 202.06 158.87 Z M 201.79 159.82 L 201.53 160.75 C 201.23 161.81 201.84 162.91 202.89 163.21 C 203.94 163.51 205.04 162.90 205.34 161.84 L 205.61 160.91 C 205.91 159.86 205.30 158.76 204.25 158.46 C 203.19 158.16 202.10 158.77 201.79 159.82 Z M 201.53 160.73 L 201.27 161.62 C 200.95 162.67 201.55 163.78 202.60 164.09 C 203.65 164.41 204.76 163.81 205.07 162.76 L 205.34 161.87 C 205.65 160.82 205.06 159.71 204.01 159.40 C 202.95 159.08 201.85 159.68 201.53 160.73 Z M 201.27 161.59 L 201.01 162.44 C 200.68 163.49 201.26 164.61 202.31 164.93 C 203.35 165.26 204.47 164.68 204.80 163.63 L 205.06 162.79 C 205.39 161.74 204.81 160.62 203.76 160.29 C 202.72 159.97 201.60 160.55 201.27 161.59 Z M 201.01 162.42 L 200.75 163.22 C 200.40 164.26 200.97 165.39 202.02 165.73 C 203.06 166.07 204.18 165.51 204.53 164.46 L 204.79 163.66 C 205.14 162.62 204.57 161.49 203.52 161.15 C 202.48 160.81 201.36 161.37 201.01 162.42 Z M 200.76 163.19 L 200.41 164.20 C 200.05 165.23 200.59 166.37 201.63 166.73 C 202.67 167.09 203.80 166.54 204.17 165.50 L 204.52 164.50 C 204.88 163.46 204.33 162.32 203.29 161.96 C 202.25 161.60 201.12 162.15 200.76 163.19 Z M 200.42 164.16 L 200.06 165.12 C 199.68 166.15 200.20 167.30 201.23 167.68 C 202.26 168.06 203.41 167.54 203.79 166.51 L 204.15 165.54 C 204.53 164.51 204.01 163.37 202.98 162.98 C 201.95 162.60 200.80 163.13 200.42 164.16 Z M 200.08 165.08 L 199.71 166.00 C 199.31 167.02 199.81 168.18 200.83 168.58 C 201.85 168.99 203.01 168.49 203.41 167.47 L 203.78 166.55 C 204.18 165.53 203.68 164.37 202.66 163.97 C 201.64 163.56 200.48 164.06 200.08 165.08 Z M 199.73 165.96 L 199.36 166.85 C 198.93 167.86 199.41 169.03 200.42 169.46 C 201.43 169.88 202.60 169.41 203.02 168.39 L 203.40 167.50 C 203.82 166.49 203.35 165.33 202.33 164.90 C 201.32 164.48 200.16 164.95 199.73 165.96 Z M 199.37 166.82 L 198.98 167.70 C 198.54 168.70 199.00 169.87 200.00 170.32 C 201.00 170.76 202.18 170.31 202.62 169.30 L 203.01 168.43 C 203.45 167.42 203.00 166.25 201.99 165.80 C 200.99 165.36 199.82 165.81 199.37 166.82 Z M 199.00 167.67 L 198.59 168.56 C 198.13 169.55 198.57 170.73 199.57 171.19 C 200.56 171.65 201.74 171.21 202.20 170.21 L 202.61 169.33 C 203.07 168.33 202.63 167.15 201.63 166.69 C 200.63 166.24 199.45 166.67 199.00 167.67 Z M 198.60 168.54 L 198.19 169.40 C 197.72 170.39 198.15 171.58 199.14 172.05 C 200.13 172.51 201.32 172.09 201.79 171.10 L 202.19 170.23 C 202.66 169.24 202.24 168.06 201.24 167.59 C 200.25 167.12 199.07 167.55 198.60 168.54 Z M 198.20 169.39 L 197.79 170.23 C 197.32 171.22 197.73 172.41 198.72 172.88 C 199.71 173.36 200.90 172.94 201.37 171.95 L 201.78 171.11 C 202.25 170.12 201.84 168.94 200.85 168.46 C 199.86 167.98 198.68 168.40 198.20 169.39 Z M 197.80 170.21 L 197.38 171.08 C 196.89 172.06 197.29 173.25 198.28 173.74 C 199.26 174.22 200.45 173.82 200.94 172.84 L 201.36 171.97 C 201.85 170.99 201.44 169.80 200.46 169.31 C 199.48 168.83 198.29 169.23 197.80 170.21 Z M 197.39 171.06 L 196.94 171.95 C 196.44 172.93 196.83 174.12 197.81 174.61 C 198.79 175.11 199.98 174.72 200.48 173.74 L 200.93 172.86 C 201.42 171.88 201.03 170.68 200.05 170.19 C 199.07 169.69 197.88 170.08 197.39 171.06 Z M 196.95 171.93 L 196.48 172.83 C 195.97 173.80 196.35 175.00 197.32 175.50 C 198.29 176.01 199.49 175.64 199.99 174.66 L 200.47 173.76 C 200.97 172.79 200.60 171.59 199.62 171.09 C 198.65 170.58 197.46 170.96 196.95 171.93 Z M 196.49 172.81 L 196.00 173.72 C 195.48 174.68 195.84 175.88 196.80 176.40 C 197.77 176.92 198.97 176.56 199.49 175.60 L 199.98 174.69 C 200.50 173.72 200.14 172.52 199.18 172.00 C 198.21 171.48 197.01 171.84 196.49 172.81 Z M 196.01 173.69 L 195.50 174.61 C 194.97 175.57 195.31 176.78 196.27 177.31 C 197.22 177.84 198.43 177.50 198.96 176.54 L 199.47 175.62 C 200.01 174.67 199.67 173.46 198.71 172.93 C 197.75 172.40 196.55 172.74 196.01 173.69 Z M 195.52 174.59 L 195.00 175.48 C 194.45 176.42 194.78 177.63 195.72 178.18 C 196.67 178.73 197.88 178.41 198.43 177.46 L 198.94 176.57 C 199.49 175.63 199.17 174.41 198.22 173.87 C 197.28 173.32 196.07 173.64 195.52 174.59 Z M 195.02 175.45 L 194.52 176.28 C 193.96 177.21 194.27 178.43 195.20 178.99 C 196.14 179.55 197.35 179.25 197.91 178.31 L 198.41 177.49 C 198.97 176.55 198.67 175.34 197.73 174.77 C 196.80 174.21 195.58 174.51 195.02 175.45 Z M 194.54 176.25 L 194.03 177.08 C 193.46 178.01 193.74 179.22 194.67 179.80 C 195.59 180.37 196.81 180.09 197.38 179.16 L 197.90 178.33 C 198.47 177.41 198.19 176.19 197.26 175.62 C 196.33 175.04 195.12 175.33 194.54 176.25 Z M 194.05 177.06 L 193.52 177.89 C 192.93 178.80 193.20 180.02 194.12 180.61 C 195.03 181.19 196.25 180.93 196.84 180.01 L 197.37 179.18 C 197.95 178.27 197.68 177.05 196.77 176.46 C 195.85 175.88 194.63 176.14 194.05 177.06 Z M 193.53 177.87 L 192.99 178.70 C 192.39 179.61 192.64 180.83 193.55 181.42 C 194.46 182.02 195.67 181.77 196.27 180.86 L 196.82 180.03 C 197.42 179.12 197.16 177.90 196.26 177.31 C 195.35 176.71 194.13 176.96 193.53 177.87 Z M 193.00 178.68 L 192.44 179.52 C 191.83 180.42 192.07 181.64 192.97 182.24 C 193.86 182.85 195.08 182.61 195.69 181.72 L 196.25 180.88 C 196.86 179.98 196.63 178.76 195.73 178.16 C 194.83 177.55 193.61 177.79 193.00 178.68 Z M 192.45 179.50 L 191.87 180.34 C 191.26 181.23 191.48 182.45 192.37 183.07 C 193.26 183.68 194.48 183.46 195.09 182.57 L 195.67 181.73 C 196.29 180.84 196.07 179.62 195.18 179.01 C 194.29 178.39 193.07 178.61 192.45 179.50 Z M 191.89 180.33 L 191.29 181.17 C 190.67 182.05 190.87 183.27 191.75 183.90 C 192.64 184.52 193.86 184.31 194.48 183.43 L 195.08 182.59 C 195.70 181.71 195.49 180.49 194.61 179.86 C 193.73 179.24 192.51 179.45 191.89 180.33 Z M 191.30 181.16 L 190.71 181.98 C 190.08 182.85 190.27 184.07 191.15 184.70 C 192.02 185.34 193.24 185.14 193.87 184.27 L 194.46 183.45 C 195.10 182.57 194.90 181.35 194.03 180.72 C 193.15 180.09 191.93 180.29 191.30 181.16 Z M 190.72 181.97 L 190.16 182.74 C 189.52 183.60 189.71 184.82 190.57 185.46 C 191.44 186.09 192.66 185.91 193.29 185.04 L 193.86 184.28 C 194.50 183.41 194.31 182.19 193.44 181.56 C 192.58 180.92 191.36 181.10 190.72 181.97 Z M 190.17 182.73 L 189.59 183.50 C 188.95 184.36 189.13 185.57 189.99 186.22 C 190.84 186.86 192.06 186.68 192.70 185.82 L 193.28 185.05 C 193.92 184.19 193.75 182.98 192.89 182.33 C 192.03 181.69 190.81 181.87 190.17 182.73 Z M 189.61 183.49 L 189.02 184.27 C 188.37 185.12 188.53 186.33 189.39 186.98 C 190.24 187.63 191.45 187.46 192.10 186.61 L 192.69 185.83 C 193.34 184.98 193.17 183.76 192.32 183.12 C 191.47 182.47 190.25 182.64 189.61 183.49 Z M 189.03 184.26 L 188.42 185.04 C 187.77 185.89 187.93 187.10 188.77 187.75 C 189.62 188.41 190.83 188.25 191.49 187.40 L 192.09 186.62 C 192.74 185.77 192.59 184.56 191.74 183.91 C 190.89 183.25 189.68 183.41 189.03 184.26 Z M 188.43 185.03 L 187.82 185.82 C 187.16 186.66 187.31 187.88 188.15 188.53 C 188.99 189.19 190.20 189.04 190.86 188.20 L 191.47 187.41 C 192.13 186.57 191.98 185.36 191.14 184.70 C 190.30 184.05 189.09 184.19 188.43 185.03 Z M 187.83 185.82 L 187.19 186.62 C 186.53 187.45 186.67 188.66 187.51 189.32 C 188.34 189.98 189.55 189.84 190.21 189.01 L 190.85 188.21 C 191.51 187.37 191.37 186.16 190.53 185.50 C 189.70 184.84 188.49 184.98 187.83 185.82 Z M 187.20 186.61 L 186.56 187.41 C 185.90 188.24 186.03 189.45 186.86 190.12 C 187.69 190.78 188.89 190.65 189.56 189.82 L 190.20 189.01 C 190.87 188.18 190.73 186.98 189.91 186.31 C 189.08 185.65 187.87 185.78 187.20 186.61 Z M 186.57 187.41 L 185.91 188.22 C 185.24 189.04 185.37 190.25 186.19 190.92 C 187.01 191.59 188.22 191.46 188.89 190.64 L 189.55 189.82 C 190.22 189.00 190.09 187.79 189.27 187.13 C 188.44 186.46 187.24 186.59 186.57 187.41 Z M 185.92 188.22 L 185.27 189.01 C 184.60 189.82 184.72 191.03 185.54 191.70 C 186.36 192.37 187.56 192.25 188.23 191.43 L 188.88 190.64 C 189.55 189.82 189.43 188.62 188.61 187.95 C 187.80 187.28 186.59 187.40 185.92 188.22 Z M 185.28 189.00 L 184.67 189.75 C 184.00 190.56 184.11 191.76 184.92 192.43 C 185.73 193.10 186.94 192.99 187.61 192.18 L 188.22 191.44 C 188.89 190.62 188.78 189.42 187.97 188.75 C 187.16 188.08 185.95 188.19 185.28 189.00 Z M 184.68 189.74 L 184.05 190.49 C 183.38 191.29 183.49 192.49 184.29 193.17 C 185.10 193.84 186.30 193.74 186.97 192.93 L 187.60 192.18 C 188.27 191.38 188.16 190.18 187.36 189.50 C 186.55 188.83 185.35 188.93 184.68 189.74 Z M 184.06 190.48 L 183.43 191.24 C 182.75 192.04 182.85 193.23 183.65 193.91 C 184.45 194.59 185.65 194.49 186.33 193.68 L 186.96 192.93 C 187.64 192.13 187.54 190.94 186.74 190.26 C 185.94 189.58 184.74 189.68 184.06 190.48 Z M 183.44 191.23 L 182.79 191.99 C 182.12 192.78 182.21 193.98 183.00 194.65 C 183.80 195.33 184.99 195.24 185.67 194.44 L 186.32 193.69 C 187.00 192.89 186.90 191.70 186.11 191.02 C 185.31 190.34 184.12 190.44 183.44 191.23 Z M 182.81 191.98 L 182.15 192.74 C 181.47 193.53 181.56 194.72 182.34 195.40 C 183.13 196.08 184.32 196.00 185.01 195.21 L 185.66 194.45 C 186.34 193.66 186.26 192.47 185.47 191.79 C 184.68 191.11 183.49 191.19 182.81 191.98 Z M 182.16 192.73 L 181.50 193.49 C 180.81 194.28 180.89 195.47 181.67 196.15 C 182.46 196.83 183.65 196.75 184.33 195.97 L 184.99 195.21 C 185.68 194.43 185.60 193.24 184.82 192.56 C 184.04 191.87 182.85 191.95 182.16 192.73 Z M 181.51 193.49 L 180.83 194.25 C 180.15 195.03 180.22 196.21 180.99 196.90 C 181.77 197.59 182.96 197.51 183.64 196.74 L 184.32 195.98 C 185.01 195.20 184.93 194.02 184.16 193.33 C 183.38 192.64 182.20 192.71 181.51 193.49 Z M 180.85 194.24 L 180.16 195.00 C 179.47 195.77 179.54 196.96 180.31 197.65 C 181.07 198.34 182.26 198.27 182.95 197.51 L 183.63 196.74 C 184.32 195.98 184.26 194.79 183.49 194.10 C 182.72 193.41 181.54 193.47 180.85 194.24 Z M 180.18 195.00 L 179.48 195.76 C 178.79 196.52 178.84 197.70 179.61 198.39 C 180.37 199.09 181.55 199.03 182.24 198.27 L 182.93 197.51 C 183.63 196.75 183.57 195.57 182.81 194.88 C 182.05 194.18 180.87 194.24 180.18 195.00 Z M 179.50 195.75 L 178.81 196.50 C 178.11 197.25 178.15 198.43 178.91 199.13 C 179.66 199.83 180.84 199.78 181.54 199.03 L 182.23 198.28 C 182.93 197.52 182.88 196.35 182.13 195.65 C 181.37 194.95 180.19 195.00 179.50 195.75 Z M 178.82 196.49 L 178.14 197.21 C 177.44 197.96 177.48 199.13 178.23 199.84 C 178.97 200.54 180.15 200.50 180.85 199.75 L 181.52 199.03 C 182.23 198.28 182.19 197.11 181.44 196.41 C 180.69 195.71 179.52 195.75 178.82 196.49 Z M 178.16 197.21 L 177.47 197.93 C 176.77 198.67 176.80 199.84 177.54 200.54 C 178.28 201.24 179.45 201.21 180.16 200.47 L 180.84 199.76 C 181.54 199.02 181.51 197.85 180.77 197.14 C 180.03 196.44 178.86 196.47 178.16 197.21 Z M 177.49 197.92 L 176.80 198.64 C 176.09 199.37 176.11 200.54 176.85 201.25 C 177.58 201.95 178.75 201.93 179.46 201.19 L 180.14 200.48 C 180.85 199.74 180.83 198.58 180.09 197.87 C 179.36 197.16 178.19 197.19 177.49 197.92 Z M 176.81 198.63 L 176.11 199.35 C 175.40 200.08 175.42 201.24 176.15 201.95 C 176.88 202.66 178.04 202.64 178.75 201.91 L 179.44 201.20 C 180.15 200.47 180.14 199.31 179.41 198.60 C 178.68 197.89 177.52 197.91 176.81 198.63 Z M 176.12 199.35 L 175.42 200.06 C 174.71 200.78 174.72 201.94 175.45 202.65 C 176.17 203.36 177.33 203.35 178.04 202.63 L 178.74 201.91 C 179.45 201.19 179.44 200.03 178.72 199.32 C 177.99 198.61 176.83 198.62 176.12 199.35 Z M 175.43 200.06 L 174.73 200.77 C 174.02 201.49 174.02 202.65 174.74 203.36 C 175.46 204.07 176.62 204.06 177.33 203.34 L 178.03 202.63 C 178.74 201.91 178.73 200.75 178.02 200.04 C 177.30 199.33 176.14 199.34 175.43 200.06 Z M 174.73 200.77 L 174.03 201.48 C 173.31 202.19 173.32 203.35 174.03 204.06 C 174.74 204.77 175.90 204.77 176.61 204.06 L 177.32 203.34 C 178.03 202.63 178.03 201.48 177.31 200.77 C 176.60 200.06 175.45 200.06 174.73 200.77 Z M 174.03 201.48 L 173.32 202.19 C 172.61 202.90 172.61 204.05 173.32 204.76 C 174.02 205.47 175.18 205.48 175.89 204.77 L 176.60 204.06 C 177.31 203.35 177.31 202.20 176.60 201.49 C 175.89 200.77 174.74 200.77 174.03 201.48 Z M 173.33 202.19 L 172.61 202.90 C 171.90 203.61 171.90 204.76 172.60 205.47 C 173.30 206.18 174.45 206.18 175.16 205.48 L 175.88 204.77 C 176.59 204.06 176.59 202.91 175.89 202.20 C 175.18 201.49 174.04 201.49 173.33 202.19 Z M 172.62 202.91 L 171.90 203.62 C 171.19 204.32 171.18 205.46 171.88 206.17 C 172.58 206.88 173.73 206.89 174.44 206.19 L 175.16 205.48 C 175.87 204.77 175.87 203.63 175.17 202.92 C 174.47 202.21 173.33 202.20 172.62 202.91 Z M 171.90 203.62 L 171.20 204.31 C 170.49 205.01 170.48 206.15 171.18 206.86 C 171.88 207.57 173.02 207.58 173.73 206.88 L 174.43 206.18 C 175.14 205.49 175.15 204.35 174.45 203.64 C 173.75 202.93 172.61 202.92 171.90 203.62 Z M 171.20 204.32 L 170.50 205.01 C 169.79 205.70 169.78 206.84 170.48 207.54 C 171.17 208.25 172.31 208.26 173.02 207.57 L 173.72 206.88 C 174.43 206.18 174.44 205.05 173.74 204.34 C 173.05 203.63 171.91 203.62 171.20 204.32 Z M 170.51 205.01 L 169.80 205.70 C 169.09 206.39 169.08 207.52 169.77 208.23 C 170.47 208.94 171.60 208.95 172.31 208.26 L 173.01 207.57 C 173.72 206.87 173.73 205.74 173.04 205.03 C 172.35 204.33 171.21 204.32 170.51 205.01 Z M 169.81 205.70 L 169.10 206.39 C 168.39 207.08 168.38 208.21 169.07 208.92 C 169.76 209.62 170.89 209.63 171.59 208.95 L 172.30 208.25 C 173.00 207.57 173.02 206.44 172.33 205.73 C 171.64 205.03 170.51 205.01 169.81 205.70 Z M 169.10 206.40 L 168.39 207.09 C 167.69 207.77 167.67 208.90 168.36 209.60 C 169.05 210.31 170.17 210.32 170.87 209.64 L 171.59 208.94 C 172.29 208.26 172.30 207.13 171.62 206.43 C 170.93 205.72 169.81 205.71 169.10 206.40 Z M 168.40 207.09 L 167.68 207.79 C 166.98 208.47 166.96 209.59 167.65 210.29 C 168.33 211.00 169.45 211.01 170.15 210.33 L 170.87 209.63 C 171.57 208.95 171.59 207.83 170.90 207.13 C 170.22 206.42 169.10 206.41 168.40 207.09 Z M 167.69 207.79 L 166.97 208.49 C 166.27 209.17 166.25 210.28 166.93 210.98 C 167.61 211.69 168.73 211.70 169.43 211.02 L 170.15 210.33 C 170.85 209.65 170.87 208.53 170.19 207.83 C 169.51 207.13 168.39 207.11 167.69 207.79 Z M 166.98 208.49 L 166.25 209.19 C 165.55 209.86 165.53 210.98 166.21 211.68 C 166.89 212.38 168.00 212.40 168.70 211.72 L 169.42 211.02 C 170.12 210.34 170.14 209.23 169.47 208.53 C 168.79 207.83 167.67 207.81 166.98 208.49 Z M 166.26 209.19 L 165.53 209.89 C 164.83 210.57 164.81 211.68 165.49 212.38 C 166.16 213.07 167.27 213.09 167.97 212.42 L 168.70 211.72 C 169.39 211.04 169.41 209.93 168.74 209.23 C 168.07 208.54 166.96 208.52 166.26 209.19 Z M 165.54 209.89 L 164.80 210.60 C 164.11 211.27 164.09 212.38 164.76 213.07 C 165.43 213.77 166.53 213.79 167.23 213.12 L 167.96 212.42 C 168.66 211.75 168.68 210.64 168.01 209.94 C 167.34 209.24 166.23 209.22 165.54 209.89 Z M 164.81 210.60 L 164.07 211.31 C 163.38 211.98 163.35 213.08 164.02 213.78 C 164.69 214.47 165.79 214.50 166.49 213.83 L 167.23 213.12 C 167.92 212.45 167.94 211.35 167.28 210.65 C 166.61 209.96 165.50 209.93 164.81 210.60 Z M 164.08 211.31 L 163.34 212.02 C 162.65 212.68 162.62 213.78 163.29 214.48 C 163.95 215.17 165.05 215.19 165.75 214.53 L 166.48 213.82 C 167.18 213.16 167.20 212.06 166.54 211.37 C 165.87 210.67 164.77 210.65 164.08 211.31 Z M 163.35 212.02 L 162.61 212.72 C 161.92 213.39 161.89 214.48 162.55 215.18 C 163.22 215.87 164.31 215.89 165.01 215.23 L 165.74 214.53 C 166.44 213.86 166.46 212.77 165.80 212.07 C 165.14 211.38 164.04 211.36 163.35 212.02 Z M 162.61 212.73 L 161.87 213.43 C 161.18 214.09 161.16 215.19 161.82 215.88 C 162.48 216.57 163.57 216.59 164.26 215.93 L 165.00 215.23 C 165.69 214.57 165.72 213.48 165.06 212.78 C 164.40 212.09 163.30 212.07 162.61 212.73 Z M 161.88 213.44 L 161.14 214.14 C 160.45 214.80 160.42 215.89 161.08 216.58 C 161.74 217.27 162.83 217.29 163.52 216.64 L 164.26 215.93 C 164.94 215.28 164.97 214.18 164.32 213.50 C 163.66 212.81 162.57 212.78 161.88 213.44 Z M 161.14 214.14 L 160.41 214.85 C 159.72 215.50 159.69 216.59 160.34 217.27 C 161.00 217.96 162.09 217.99 162.77 217.33 L 163.51 216.63 C 164.20 215.98 164.23 214.89 163.57 214.20 C 162.92 213.52 161.83 213.49 161.14 214.14 Z M 160.41 214.85 L 159.68 215.55 C 158.99 216.20 158.96 217.28 159.61 217.97 C 160.26 218.65 161.35 218.68 162.03 218.03 L 162.77 217.33 C 163.45 216.68 163.48 215.60 162.83 214.91 C 162.18 214.23 161.10 214.20 160.41 214.85 Z M 159.68 215.55 L 158.95 216.24 C 158.27 216.89 158.24 217.97 158.89 218.65 C 159.53 219.34 160.61 219.37 161.30 218.72 L 162.03 218.03 C 162.71 217.38 162.74 216.30 162.09 215.61 C 161.45 214.93 160.36 214.90 159.68 215.55 Z M 158.96 216.24 L 158.23 216.93 C 157.55 217.57 157.52 218.65 158.17 219.33 C 158.81 220.01 159.89 220.04 160.57 219.40 L 161.29 218.71 C 161.98 218.07 162.01 216.99 161.36 216.31 C 160.72 215.63 159.64 215.60 158.96 216.24 Z M 158.24 216.93 L 157.52 217.60 C 156.84 218.25 156.81 219.32 157.46 220.00 C 158.10 220.68 159.17 220.71 159.85 220.07 L 160.57 219.39 C 161.25 218.75 161.28 217.68 160.64 217.00 C 159.99 216.32 158.92 216.29 158.24 216.93 Z M 157.53 217.61 L 156.83 218.27 C 156.15 218.91 156.12 219.98 156.76 220.66 C 157.40 221.34 158.47 221.37 159.15 220.73 L 159.85 220.07 C 160.53 219.42 160.56 218.36 159.92 217.68 C 159.28 217.00 158.21 216.97 157.53 217.61 Z M 156.83 218.27 L 156.14 218.92 C 155.46 219.56 155.43 220.63 156.07 221.30 C 156.71 221.98 157.77 222.01 158.45 221.38 L 159.14 220.72 C 159.82 220.09 159.85 219.02 159.21 218.34 C 158.57 217.67 157.51 217.63 156.83 218.27 Z M 156.15 218.93 L 155.37 219.66 C 154.69 220.29 154.66 221.35 155.30 222.03 C 155.93 222.71 156.99 222.74 157.67 222.10 L 158.45 221.37 C 159.12 220.74 159.15 219.67 158.52 219.00 C 157.88 218.32 156.82 218.29 156.15 218.93 Z M 155.37 219.66 L 154.60 220.38 C 153.93 221.02 153.90 222.07 154.53 222.75 C 155.16 223.42 156.22 223.45 156.89 222.82 L 157.66 222.10 C 158.34 221.47 158.37 220.41 157.74 219.74 C 157.11 219.06 156.05 219.03 155.37 219.66 Z M 154.61 220.39 L 153.86 221.09 C 153.18 221.72 153.15 222.78 153.78 223.45 C 154.41 224.12 155.46 224.15 156.13 223.53 L 156.89 222.82 C 157.56 222.19 157.59 221.14 156.96 220.46 C 156.34 219.79 155.28 219.76 154.61 220.39 Z M 153.86 221.10 L 153.12 221.79 C 152.45 222.41 152.41 223.46 153.04 224.13 C 153.66 224.80 154.71 224.84 155.38 224.21 L 156.13 223.52 C 156.80 222.90 156.83 221.85 156.21 221.18 C 155.58 220.51 154.53 220.47 153.86 221.10 Z M 153.13 221.79 L 152.40 222.47 C 151.73 223.09 151.69 224.13 152.31 224.80 C 152.93 225.47 153.98 225.51 154.65 224.89 L 155.38 224.21 C 156.05 223.59 156.08 222.54 155.46 221.88 C 154.84 221.21 153.80 221.17 153.13 221.79 Z M 152.41 222.47 L 151.69 223.13 C 151.02 223.75 150.98 224.79 151.59 225.46 C 152.21 226.13 153.25 226.17 153.92 225.55 L 154.64 224.89 C 155.31 224.27 155.35 223.23 154.73 222.56 C 154.12 221.89 153.07 221.85 152.41 222.47 Z M 151.69 223.14 L 150.98 223.79 C 150.31 224.40 150.27 225.44 150.88 226.11 C 151.50 226.77 152.53 226.82 153.20 226.21 L 153.91 225.55 C 154.58 224.94 154.62 223.90 154.01 223.23 C 153.40 222.57 152.36 222.52 151.69 223.14 Z M 150.99 223.79 L 150.28 224.44 C 149.62 225.05 149.57 226.08 150.18 226.74 C 150.79 227.41 151.82 227.46 152.49 226.85 L 153.19 226.20 C 153.86 225.60 153.91 224.56 153.30 223.90 C 152.69 223.23 151.66 223.18 150.99 223.79 Z M 150.29 224.44 L 149.59 225.08 C 148.92 225.68 148.87 226.71 149.48 227.37 C 150.08 228.04 151.11 228.09 151.77 227.49 L 152.48 226.85 C 153.14 226.24 153.19 225.22 152.59 224.55 C 151.99 223.88 150.96 223.83 150.29 224.44 Z M 149.60 225.08 L 148.87 225.73 C 148.20 226.33 148.15 227.36 148.75 228.02 C 149.35 228.69 150.37 228.74 151.04 228.14 L 151.76 227.49 C 152.43 226.89 152.48 225.86 151.89 225.20 C 151.29 224.53 150.26 224.48 149.60 225.08 Z M 148.88 225.73 L 148.12 226.40 C 147.46 227.00 147.40 228.02 147.99 228.68 C 148.59 229.35 149.61 229.41 150.28 228.81 L 151.03 228.14 C 151.69 227.55 151.75 226.53 151.16 225.86 C 150.56 225.19 149.54 225.14 148.88 225.73 Z M 148.13 226.40 L 147.38 227.07 C 146.71 227.66 146.65 228.68 147.24 229.34 C 147.83 230.01 148.85 230.07 149.51 229.48 L 150.27 228.82 C 150.93 228.23 151.00 227.21 150.41 226.54 C 149.82 225.87 148.80 225.81 148.13 226.40 Z M 147.39 227.07 L 146.63 227.73 C 145.96 228.31 145.90 229.33 146.48 229.99 C 147.07 230.66 148.08 230.73 148.75 230.14 L 149.50 229.48 C 150.17 228.90 150.24 227.88 149.65 227.22 C 149.07 226.55 148.05 226.48 147.39 227.07 Z M 146.64 227.72 L 145.89 228.38 C 145.22 228.96 145.14 229.97 145.72 230.64 C 146.30 231.31 147.32 231.38 147.98 230.80 L 148.74 230.15 C 149.41 229.57 149.48 228.56 148.90 227.89 C 148.32 227.22 147.31 227.15 146.64 227.72 Z M 145.89 228.38 L 145.14 229.03 C 144.47 229.60 144.39 230.61 144.96 231.28 C 145.54 231.95 146.55 232.03 147.22 231.45 L 147.98 230.80 C 148.65 230.23 148.72 229.22 148.15 228.55 C 147.57 227.88 146.56 227.80 145.89 228.38 Z M 145.15 229.02 L 144.39 229.67 C 143.72 230.24 143.63 231.24 144.20 231.91 C 144.77 232.59 145.78 232.67 146.45 232.10 L 147.21 231.46 C 147.88 230.89 147.96 229.88 147.39 229.21 C 146.82 228.54 145.82 228.46 145.15 229.02 Z M 144.40 229.67 L 143.64 230.30 C 142.96 230.87 142.88 231.87 143.44 232.54 C 144.00 233.22 145.01 233.30 145.68 232.74 L 146.44 232.10 C 147.11 231.54 147.20 230.54 146.64 229.86 C 146.07 229.19 145.07 229.10 144.40 229.67 Z M 143.65 230.30 L 142.88 230.93 C 142.21 231.49 142.12 232.49 142.67 233.16 C 143.23 233.84 144.23 233.93 144.90 233.37 L 145.67 232.74 C 146.34 232.18 146.44 231.19 145.88 230.51 C 145.32 229.84 144.32 229.74 143.65 230.30 Z M 142.89 230.93 L 142.12 231.56 C 141.45 232.11 141.35 233.11 141.90 233.79 C 142.45 234.46 143.45 234.56 144.12 234.01 L 144.89 233.38 C 145.57 232.83 145.67 231.83 145.12 231.15 C 144.57 230.48 143.57 230.38 142.89 230.93 Z M 142.13 231.56 L 141.36 232.18 C 140.68 232.73 140.57 233.72 141.12 234.40 C 141.66 235.08 142.66 235.19 143.34 234.64 L 144.11 234.01 C 144.79 233.47 144.90 232.47 144.35 231.79 C 143.80 231.11 142.81 231.01 142.13 231.56 Z M 141.36 232.18 L 140.58 232.80 C 139.90 233.34 139.79 234.33 140.33 235.01 C 140.87 235.69 141.86 235.81 142.55 235.27 L 143.33 234.65 C 144.01 234.10 144.12 233.11 143.58 232.43 C 143.04 231.75 142.05 231.63 141.36 232.18 Z M 140.59 232.79 L 139.81 233.41 C 139.12 233.94 139.00 234.93 139.54 235.62 C 140.08 236.30 141.07 236.42 141.75 235.89 L 142.54 235.27 C 143.22 234.74 143.34 233.75 142.81 233.06 C 142.27 232.38 141.28 232.25 140.59 232.79 Z M 139.82 233.40 L 139.03 234.01 C 138.34 234.54 138.21 235.53 138.74 236.21 C 139.27 236.90 140.26 237.03 140.95 236.50 L 141.74 235.89 C 142.43 235.36 142.56 234.37 142.03 233.69 C 141.50 233.00 140.51 232.87 139.82 233.40 Z M 139.04 234.00 L 138.24 234.60 C 137.55 235.13 137.42 236.11 137.94 236.81 C 138.46 237.50 139.45 237.63 140.14 237.11 L 140.94 236.51 C 141.63 235.98 141.77 235.00 141.24 234.31 C 140.72 233.61 139.73 233.48 139.04 234.00 Z M 138.26 234.60 L 137.45 235.20 C 136.76 235.71 136.61 236.70 137.13 237.39 C 137.65 238.09 138.63 238.23 139.32 237.71 L 140.13 237.12 C 140.82 236.60 140.97 235.62 140.45 234.92 C 139.93 234.23 138.95 234.08 138.26 234.60 Z M 137.47 235.19 L 136.65 235.78 C 135.95 236.29 135.80 237.27 136.31 237.97 C 136.82 238.67 137.80 238.82 138.50 238.31 L 139.31 237.72 C 140.01 237.21 140.17 236.23 139.66 235.53 C 139.15 234.83 138.16 234.68 137.47 235.19 Z M 136.67 235.77 L 135.85 236.36 C 135.14 236.86 134.98 237.84 135.49 238.54 C 135.99 239.25 136.97 239.41 137.67 238.91 L 138.49 238.32 C 139.19 237.82 139.35 236.84 138.85 236.14 C 138.35 235.43 137.37 235.27 136.67 235.77 Z M 135.86 236.35 L 135.05 236.92 C 134.34 237.41 134.17 238.39 134.66 239.10 C 135.16 239.81 136.14 239.98 136.85 239.48 L 137.66 238.91 C 138.37 238.42 138.54 237.44 138.04 236.73 C 137.55 236.02 136.57 235.85 135.86 236.35 Z M 135.06 236.91 L 134.24 237.47 C 133.52 237.96 133.34 238.94 133.84 239.65 C 134.33 240.37 135.30 240.55 136.02 240.06 L 136.84 239.49 C 137.55 239.00 137.73 238.02 137.24 237.31 C 136.75 236.60 135.77 236.41 135.06 236.91 Z M 134.25 237.46 L 133.42 238.02 C 132.70 238.51 132.51 239.49 133.00 240.21 C 133.49 240.93 134.47 241.11 135.19 240.63 L 136.01 240.07 C 136.73 239.58 136.92 238.60 136.43 237.88 C 135.94 237.16 134.97 236.97 134.25 237.46 Z M 133.43 238.01 L 132.60 238.57 C 131.87 239.05 131.68 240.03 132.16 240.76 C 132.65 241.48 133.63 241.67 134.35 241.19 L 135.18 240.63 C 135.91 240.15 136.10 239.17 135.62 238.45 C 135.13 237.72 134.15 237.53 133.43 238.01 Z M 132.60 238.56 L 131.76 239.11 C 131.04 239.59 130.84 240.57 131.32 241.30 C 131.80 242.03 132.78 242.23 133.51 241.75 L 134.35 241.20 C 135.07 240.72 135.27 239.73 134.79 239.01 C 134.31 238.28 133.33 238.08 132.60 238.56 Z M 131.77 239.10 L 130.93 239.65 C 130.20 240.13 129.99 241.12 130.47 241.85 C 130.95 242.58 131.94 242.79 132.67 242.31 L 133.51 241.76 C 134.24 241.28 134.44 240.29 133.96 239.56 C 133.48 238.83 132.50 238.62 131.77 239.10 Z M 130.93 239.65 L 130.09 240.20 C 129.35 240.68 129.15 241.66 129.62 242.40 C 130.10 243.13 131.09 243.34 131.82 242.86 L 132.67 242.31 C 133.40 241.83 133.61 240.85 133.13 240.11 C 132.65 239.38 131.67 239.17 130.93 239.65 Z M 130.09 240.19 L 129.25 240.74 C 128.51 241.22 128.30 242.20 128.78 242.94 C 129.26 243.68 130.24 243.89 130.98 243.41 L 131.82 242.87 C 132.56 242.39 132.77 241.40 132.29 240.66 C 131.82 239.92 130.83 239.71 130.09 240.19 Z M 129.25 240.73 L 128.51 241.21 C 127.77 241.69 127.55 242.68 128.03 243.42 C 128.51 244.16 129.50 244.37 130.24 243.89 L 130.98 243.42 C 131.72 242.94 131.93 241.95 131.45 241.21 C 130.98 240.47 129.99 240.26 129.25 240.73 Z"
      fill="black"
      fill-rule="nonzero" /></svg>