<svg xmlns="http://www.w3.org/2000/svg" width="300" height="300" viewBox="0 0 300 300">
<path d="M 58.25 70.24 L 56.85 70.24 C 55.85 70.24 55.04 71.05 55.04 72.05 C 55.04 73.05 55.85 73.86 56.85 73.86 L 58.25 73.86 C 59.25 73.86 60.06 73.05 60.06 72.05 C 60.06 71.05 59.25 70.24 58.25 70.24 Z M 56.85 70.19 L 56.04 70.19 C 55.01 70.19 54.18 71.02 54.18 72.05 C 54.18 73.08 55.01 73.91 56.04 73.91 L 56.85 73.91 C 57.88 73.91 58.71 73.08 58.71 72.05 C 58.71 71.02 57.88 70.19 56.85 70.19 Z M 56.04 73.95 L 56.28 73.95 C 57.33 73.95 58.18 73.10 58.18 72.05 C 58.18 71.00 57.33 70.15 56.28 70.15 L 56.04 70.15 C 54.99 70.15 54.14 71.00 54.14 72.05 C 54.14 73.10 54.99 73.95 56.04 73.95 Z M 56.28 73.96 L 57.33 73.96 C 58.38 73.96 59.24 73.11 59.24 72.05 C 59.24 70.99 58.38 70.14 57.33 70.14 L 56.28 70.14 C 55.23 70.14 54.37 70.99 54.37 72.05 C 54.37 73.11 55.23 73.96 56.28 73.96 Z M 57.33 73.97 L 58.71 73.97 C 59.77 73.97 60.63 73.11 60.63 72.05 C 60.63 70.99 59.77 70.13 58.71 70.13 L 57.33 70.13 C 56.27 70.13 55.41 70.99 55.41 72.05 C 55.41 73.11 56.27 73.97 57.33 73.97 Z M 58.71 73.97 L 59.71 73.97 C 60.78 73.97 61.64 73.11 61.64 72.05 C 61.64 70.99 60.78 70.13 59.71 70.13 L 58.71 70.13 C 57.65 70.13 56.78 70.99 56.78 72.05 C 56.78 73.11 57.65 73.97 58.71 73.97 Z M 59.71 73.97 L 60.73 73.97 C 61.79 73.97 62.65 73.11 62.65 72.05 C 62.65 70.99 61.79 70.13 60.73 70.13 L 59.71 70.13 C 58.65 70.13 57.79 70.99 57.79 72.05 C 57.79 73.11 58.65 73.97 59.71 73.97 Z M 60.73 73.98 L 61.73 73.98 C 62.79 73.98 63.65 73.11 63.65 72.05 C 63.65 70.99 62.79 70.12 61.73 70.12 L 60.73 70.12 C 59.66 70.12 58.80 70.99 58.80 72.05 C 58.80 73.11 59.66 73.98 60.73 73.98 Z M 61.73 73.98 L 62.72 73.98 C 63.78 73.98 64.64 73.11 64.64 72.05 C 64.64 70.99 63.78 70.12 62.72 70.12 L 61.73 70.12 C 60.66 70.12 59.80 70.99 59.80 72.05 C 59.80 73.11 60.66 73.98 61.73 73.98 Z M 62.72 73.98 L 63.74 73.98 C 64.80 73.98 65.66 73.11 65.66 72.05 C 65.66 70.99 64.80 70.12 63.74 70.12 L 62.72 70.12 C 61.65 70.12 60.79 70.99 60.79 72.05 C 60.79 73.11 61.65 73.98 62.72 73.98 Z M 63.74 73.98 L 64.73 73.98 C 65.79 73.98 66.65 73.11 66.65 72.05 C 66.65 70.99 65.79 70.12 64.73 70.12 L 63.74 70.12 C 62.67 70.12 61.81 70.99 61.81 72.05 C 61.81 73.11 62.67 73.98 63.74 73.98 Z M 64.73 73.98 L 65.71 73.98 C 66.78 73.98 67.64 73.11 67.64 72.05 C 67.64 70.99 66.78 70.12 65.71 70.12 L 64.73 70.12 C 63.66 70.12 62.80 70.99 62.80 72.05 C 62.80 73.11 63.66 73.98 64.73 73.98 Z M 65.71 73.97 L 66.69 73.97 C 67.75 73.97 68.61 73.11 68.61 72.05 C 68.61 70.99 67.75 70.13 66.69 70.13 L 65.71 70.13 C 64.65 70.13 63.79 70.99 63.79 72.05 C 63.79 73.11 64.65 73.97 65.71 73.97 Z M 66.69 73.97 L 67.68 73.97 C 68.74 73.97 69.60 73.11 69.60 72.05 C 69.60 70.99 68.74 70.13 67.68 70.13 L 66.69 70.13 C 65.63 70.13 64.77 70.99 64.77 72.05 C 64.77 73.11 65.63 73.97 66.69 73.97 Z M 67.68 73.97 L 68.68 73.97 C 69.74 73.97 70.60 73.11 70.60 72.05 C 70.60 70.99 69.74 70.13 68.68 70.13 L 67.68 70.13 C 66.61 70.13 65.75 70.99 65.75 72.05 C 65.75 73.11 66.61 73.97 67.68 73.97 Z M 68.68 73.97 L 69.70 73.97 C 70.76 73.97 71.62 73.11 71.62 72.05 C 71.62 70.99 70.76 70.13 69.70 70.13 L 68.68 70.13 C 67.62 70.13 66.76 70.99 66.76 72.05 C 66.76 73.11 67.62 73.97 68.68 73.97 Z M 69.70 73.97 L 70.69 73.97 C 71.75 73.97 72.61 73.11 72.61 72.05 C 72.61 70.99 71.75 70.13 70.69 70.13 L 69.70 70.13 C 68.65 70.13 67.79 70.99 67.79 72.05 C 67.79 73.11 68.65 73.97 69.70 73.97 Z M 70.69 73.96 L 71.68 73.96 C 72.74 73.96 73.60 73.11 73.60 72.05 C 73.60 70.99 72.74 70.14 71.68 70.14 L 70.69 70.14 C 69.63 70.14 68.78 70.99 68.78 72.05 C 68.78 73.11 69.63 73.96 70.69 73.96 Z M 71.68 73.96 L 72.69 73.96 C 73.74 73.96 74.60 73.10 74.60 72.05 C 74.60 71.00 73.74 70.14 72.69 70.14 L 71.68 70.14 C 70.63 70.14 69.77 71.00 69.77 72.05 C 69.77 73.10 70.63 73.96 71.68 73.96 Z M 72.69 73.96 L 73.71 73.96 C 74.76 73.96 75.61 73.10 75.61 72.05 C 75.61 71.00 74.76 70.14 73.71 70.14 L 72.69 70.14 C 71.64 70.14 70.78 71.00 70.78 72.05 C 70.78 73.10 71.64 73.96 72.69 73.96 Z M 73.71 73.95 L 74.72 73.95 C 75.77 73.95 76.62 73.10 76.62 72.05 C 76.62 71.00 75.77 70.15 74.72 70.15 L 73.71 70.15 C 72.66 70.15 71.80 71.00 71.80 72.05 C 71.80 73.10 72.66 73.95 73.71 73.95 Z M 74.72 73.95 L 75.72 73.95 C 76.77 73.95 77.63 73.10 77.63 72.05 C 77.63 71.00 76.77 70.15 75.72 70.15 L 74.72 70.15 C 73.67 70.15 72.81 71.00 72.81 72.05 C 72.81 73.10 73.67 73.95 74.72 73.95 Z M 75.72 73.95 L 76.72 73.95 C 77.77 73.95 78.62 73.10 78.62 72.05 C 78.62 71.00 77.77 70.15 76.72 70.15 L 75.72 70.15 C 74.68 70.15 73.83 71.00 73.83 72.05 C 73.83 73.10 74.68 73.95 75.72 73.95 Z M 76.72 73.95 L 77.71 73.95 C 78.76 73.95 79.61 73.10 79.61 72.05 C 79.61 71.00 78.76 70.15 77.71 70.15 L 76.72 70.15 C 75.68 70.15 74.83 71.00 74.83 72.05 C 74.83 73.10 75.68 73.95 76.72 73.95 Z M 77.71 73.95 L 78.75 73.95 C 79.80 73.95 80.65 73.10 80.65 72.05 C 80.65 71.00 79.80 70.15 78.75 70.15 L 77.71 70.15 C 76.66 70.15 75.81 71.00 75.81 72.05 C 75.81 73.10 76.66 73.95 77.71 73.95 Z M 78.75 73.94 L 79.77 73.94 C 80.81 73.94 81.66 73.10 81.66 72.05 C 81.66 71.00 80.81 70.16 79.77 70.16 L 78.75 70.16 C 77.71 70.16 76.86 71.00 76.86 72.05 C 76.86 73.10 77.71 73.94 78.75 73.94 Z M 79.77 73.94 L 80.75 73.94 C 81.79 73.94 82.64 73.10 82.64 72.05 C 82.64 71.00 81.79 70.16 80.75 70.16 L 79.77 70.16 C 78.72 70.16 77.87 71.00 77.87 72.05 C 77.87 73.10 78.72 73.94 79.77 73.94 Z M 80.75 73.94 L 81.68 73.94 C 82.72 73.94 83.57 73.09 83.57 72.05 C 83.57 71.01 82.72 70.16 81.68 70.16 L 80.75 70.16 C 79.70 70.16 78.86 71.01 78.86 72.05 C 78.86 73.09 79.70 73.94 80.75 73.94 Z M 81.68 73.94 L 82.57 73.94 C 83.61 73.94 84.46 73.09 84.46 72.05 C 84.46 71.01 83.61 70.16 82.57 70.16 L 81.68 70.16 C 80.64 70.16 79.79 71.01 79.79 72.05 C 79.79 73.09 80.64 73.94 81.68 73.94 Z M 82.57 73.93 L 83.52 73.93 C 84.55 73.93 85.40 73.09 85.40 72.05 C 85.40 71.01 84.55 70.17 83.52 70.17 L 82.57 70.17 C 81.54 70.17 80.69 71.01 80.69 72.05 C 80.69 73.09 81.54 73.93 82.57 73.93 Z M 83.52 73.92 L 84.59 73.92 C 85.62 73.92 86.46 73.08 86.46 72.05 C 86.46 71.02 85.62 70.18 84.59 70.18 L 83.52 70.18 C 82.48 70.18 81.65 71.02 81.65 72.05 C 81.65 73.08 82.48 73.92 83.52 73.92 Z M 84.59 73.91 L 85.67 73.91 C 86.70 73.91 87.53 73.08 87.53 72.05 C 87.53 71.02 86.70 70.19 85.67 70.19 L 84.59 70.19 C 83.56 70.19 82.73 71.02 82.73 72.05 C 82.73 73.08 83.56 73.91 84.59 73.91 Z M 85.67 73.90 L 86.65 73.90 C 87.67 73.90 88.50 73.07 88.50 72.05 C 88.50 71.03 87.67 70.20 86.65 70.20 L 85.67 70.20 C 84.65 70.20 83.82 71.03 83.82 72.05 C 83.83 73.07 84.65 73.90 85.67 73.90 Z M 86.65 73.88 L 87.69 73.88 C 88.70 73.88 89.52 73.06 89.51 72.05 C 89.51 71.03 88.69 70.22 87.68 70.22 L 86.65 70.22 C 85.64 70.22 84.82 71.04 84.82 72.05 C 84.82 73.06 85.64 73.88 86.65 73.88 Z M 87.69 73.86 L 88.74 73.86 C 89.74 73.86 90.55 73.04 90.55 72.04 C 90.54 71.04 89.73 70.23 88.73 70.23 L 87.68 70.23 C 86.68 70.24 85.87 71.05 85.87 72.05 C 85.87 73.06 86.69 73.87 87.69 73.86 Z M 88.74 73.84 L 89.77 73.84 C 90.76 73.83 91.56 73.02 91.55 72.03 C 91.55 71.03 90.74 70.23 89.75 70.24 L 88.72 70.25 C 87.73 70.25 86.93 71.06 86.94 72.06 C 86.94 73.05 87.75 73.85 88.74 73.84 Z M 89.77 73.82 L 90.73 73.81 C 91.72 73.80 92.50 72.99 92.49 72.01 C 92.48 71.03 91.68 70.24 90.70 70.25 L 89.74 70.26 C 88.75 70.27 87.97 71.07 87.98 72.06 C 87.99 73.04 88.79 73.83 89.77 73.82 Z M 90.75 73.79 L 91.90 73.77 C 92.87 73.75 93.64 72.94 93.62 71.97 C 93.60 71.00 92.80 70.22 91.83 70.24 L 90.68 70.27 C 89.71 70.29 88.93 71.09 88.95 72.06 C 88.97 73.04 89.78 73.81 90.75 73.79 Z M 91.95 73.74 L 92.97 73.69 C 93.93 73.64 94.66 72.82 94.61 71.86 C 94.56 70.90 93.74 70.16 92.78 70.21 L 91.77 70.27 C 90.81 70.32 90.07 71.14 90.12 72.10 C 90.18 73.06 91.00 73.79 91.95 73.74 Z M 93.08 73.66 L 94.00 73.55 C 94.94 73.44 95.61 72.58 95.50 71.64 C 95.39 70.70 94.54 70.03 93.60 70.14 L 92.68 70.25 C 91.73 70.36 91.06 71.21 91.17 72.15 C 91.28 73.09 92.14 73.77 93.08 73.66 Z M 94.14 73.50 L 95.03 73.31 C 95.94 73.12 96.53 72.22 96.34 71.31 C 96.15 70.39 95.25 69.81 94.33 70.00 L 93.45 70.19 C 92.53 70.38 91.95 71.28 92.14 72.19 C 92.33 73.11 93.23 73.69 94.14 73.50 Z M 95.18 73.26 L 96.08 72.98 C 96.97 72.70 97.46 71.76 97.19 70.88 C 96.91 69.99 95.97 69.50 95.09 69.78 L 94.18 70.06 C 93.30 70.33 92.80 71.27 93.08 72.16 C 93.35 73.04 94.29 73.53 95.18 73.26 Z M 96.19 72.93 L 97.11 72.57 C 97.97 72.24 98.39 71.27 98.06 70.41 C 97.73 69.56 96.76 69.13 95.91 69.47 L 94.98 69.82 C 94.13 70.16 93.70 71.12 94.03 71.98 C 94.37 72.83 95.33 73.26 96.19 72.93 Z M 97.17 72.53 L 98.11 72.12 C 98.94 71.75 99.32 70.78 98.96 69.95 C 98.59 69.11 97.62 68.73 96.78 69.09 L 95.85 69.50 C 95.01 69.87 94.63 70.84 95.00 71.68 C 95.36 72.51 96.34 72.90 97.17 72.53 Z M 98.13 72.10 L 99.02 71.69 C 99.84 71.31 100.20 70.33 99.82 69.51 C 99.44 68.69 98.47 68.33 97.65 68.71 L 96.76 69.12 C 95.94 69.50 95.58 70.47 95.96 71.29 C 96.34 72.12 97.31 72.48 98.13 72.10 Z"
      fill="black"
      fill-rule="nonzero" /><path d="M 101.09 70.40 L 100.44 71.18 C 99.82 71.92 99.92 73.03 100.66 73.65 C 101.40 74.27 102.51 74.17 103.13 73.43 L 103.78 72.64 C 104.40 71.90 104.30 70.80 103.56 70.17 C 102.82 69.55 101.71 69.65 101.09 70.40 Z M 100.38 71.26 L 99.78 72.06 C 99.20 72.84 99.36 73.94 100.14 74.51 C 100.92 75.09 102.02 74.93 102.59 74.15 L 103.19 73.35 C 103.77 72.57 103.61 71.47 102.83 70.89 C 102.05 70.32 100.95 70.48 100.38 71.26 Z M 99.67 72.23 L 99.17 73.08 C 98.69 73.92 98.98 75.00 99.82 75.48 C 100.66 75.96 101.73 75.67 102.21 74.83 L 102.71 73.98 C 103.19 73.14 102.90 72.07 102.06 71.59 C 101.22 71.10 100.15 71.39 99.67 72.23 Z M 99.04 73.36 L 98.72 74.24 C 98.39 75.15 98.86 76.16 99.77 76.49 C 100.68 76.83 101.69 76.36 102.02 75.45 L 102.34 74.56 C 102.68 73.65 102.21 72.64 101.30 72.31 C 100.39 71.98 99.38 72.44 99.04 73.36 Z M 98.64 74.51 L 98.46 75.44 C 98.28 76.40 98.91 77.32 99.86 77.50 C 100.82 77.69 101.74 77.06 101.92 76.10 L 102.10 75.17 C 102.29 74.22 101.66 73.29 100.70 73.11 C 99.75 72.93 98.82 73.55 98.64 74.51 Z M 98.43 75.63 L 98.35 76.63 C 98.26 77.60 98.99 78.46 99.96 78.54 C 100.93 78.62 101.79 77.90 101.87 76.93 L 101.96 75.92 C 102.04 74.95 101.31 74.09 100.34 74.01 C 99.37 73.93 98.51 74.65 98.43 75.63 Z M 98.33 76.73 L 98.30 77.81 C 98.27 78.79 99.04 79.61 100.03 79.64 C 101.01 79.66 101.82 78.89 101.85 77.91 L 101.88 76.83 C 101.91 75.85 101.14 75.03 100.16 75.00 C 99.18 74.97 98.36 75.75 98.33 76.73 Z M 98.29 77.84 L 98.28 78.84 C 98.27 79.82 99.06 80.63 100.04 80.64 C 101.03 80.66 101.84 79.87 101.85 78.88 L 101.86 77.88 C 101.87 76.90 101.09 76.09 100.10 76.08 C 99.11 76.06 98.31 76.85 98.29 77.84 Z M 98.27 78.85 L 98.26 79.87 C 98.26 80.86 99.05 81.67 100.05 81.67 C 101.04 81.68 101.85 80.88 101.85 79.89 L 101.86 78.87 C 101.87 77.88 101.07 77.07 100.08 77.06 C 99.09 77.06 98.28 77.86 98.27 78.85 Z M 98.25 79.87 L 98.25 80.89 C 98.25 81.89 99.05 82.70 100.05 82.70 C 101.05 82.70 101.86 81.90 101.86 80.90 L 101.86 79.88 C 101.86 78.89 101.06 78.08 100.06 78.07 C 99.07 78.07 98.26 78.88 98.25 79.87 Z M 98.24 80.89 L 98.24 81.88 C 98.24 82.88 99.05 83.69 100.05 83.69 C 101.05 83.70 101.87 82.88 101.87 81.88 L 101.87 80.90 C 101.87 79.90 101.06 79.08 100.06 79.08 C 99.05 79.08 98.24 79.89 98.24 80.89 Z M 98.23 81.88 L 98.23 82.86 C 98.23 83.87 99.05 84.69 100.06 84.68 C 101.06 84.68 101.88 83.87 101.88 82.86 L 101.88 81.88 C 101.88 80.87 101.06 80.06 100.05 80.06 C 99.05 80.06 98.23 80.87 98.23 81.88 Z M 98.23 82.87 L 98.23 83.83 C 98.24 84.84 99.06 85.66 100.07 85.65 C 101.08 85.65 101.89 84.82 101.89 83.81 L 101.88 82.85 C 101.88 81.84 101.05 81.03 100.04 81.04 C 99.04 81.04 98.22 81.86 98.23 82.87 Z M 98.23 83.86 L 98.25 84.83 C 98.26 85.84 99.10 86.65 100.11 86.63 C 101.12 86.61 101.93 85.78 101.91 84.77 L 101.89 83.79 C 101.87 82.78 101.04 81.98 100.03 81.99 C 99.02 82.01 98.21 82.84 98.23 83.86 Z M 98.24 84.86 L 98.28 85.91 C 98.31 86.92 99.16 87.72 100.17 87.68 C 101.19 87.65 101.98 86.80 101.95 85.78 L 101.91 84.74 C 101.88 83.72 101.03 82.93 100.01 82.96 C 99.00 83.00 98.21 83.85 98.24 84.86 Z M 98.27 85.94 L 98.32 86.85 C 98.37 87.86 99.23 88.64 100.25 88.59 C 101.26 88.54 102.04 87.68 102.00 86.67 L 101.95 85.76 C 101.90 84.74 101.04 83.96 100.02 84.01 C 99.01 84.06 98.22 84.92 98.27 85.94 Z M 98.32 86.86 L 98.37 87.79 C 98.42 88.81 99.30 89.59 100.31 89.53 C 101.33 89.47 102.11 88.60 102.05 87.59 L 102.00 86.65 C 101.94 85.63 101.07 84.86 100.05 84.91 C 99.04 84.97 98.26 85.84 98.32 86.86 Z M 98.36 87.79 L 98.42 88.79 C 98.48 89.81 99.35 90.59 100.37 90.53 C 101.39 90.47 102.17 89.60 102.11 88.58 L 102.05 87.58 C 102.00 86.56 101.12 85.78 100.10 85.84 C 99.08 85.90 98.31 86.77 98.36 87.79 Z M 98.42 88.78 L 98.47 89.83 C 98.53 90.85 99.40 91.63 100.42 91.58 C 101.44 91.52 102.23 90.65 102.17 89.63 L 102.12 88.58 C 102.06 87.56 101.19 86.78 100.17 86.83 C 99.15 86.89 98.36 87.76 98.42 88.78 Z M 98.47 89.81 L 98.51 90.90 C 98.56 91.92 99.43 92.72 100.45 92.67 C 101.48 92.62 102.27 91.76 102.22 90.73 L 102.18 89.65 C 102.13 88.62 101.26 87.83 100.24 87.87 C 99.21 87.92 98.42 88.79 98.47 89.81 Z M 98.51 90.88 L 98.55 91.93 C 98.58 92.96 99.44 93.76 100.47 93.73 C 101.49 93.70 102.30 92.84 102.26 91.81 L 102.23 90.75 C 102.20 89.73 101.34 88.92 100.31 88.96 C 99.28 88.99 98.48 89.85 98.51 90.88 Z M 98.54 91.91 L 98.56 92.94 C 98.59 93.97 99.44 94.79 100.47 94.77 C 101.50 94.74 102.31 93.89 102.29 92.86 L 102.27 91.83 C 102.24 90.80 101.39 89.99 100.36 90.01 C 99.34 90.03 98.52 90.88 98.54 91.91 Z M 98.56 92.93 L 98.57 93.96 C 98.59 94.99 99.44 95.81 100.47 95.80 C 101.50 95.79 102.32 94.94 102.31 93.91 L 102.29 92.88 C 102.28 91.85 101.43 91.02 100.40 91.04 C 99.37 91.05 98.55 91.90 98.56 92.93 Z M 98.57 93.95 L 98.58 94.96 C 98.59 95.99 99.43 96.82 100.46 96.82 C 101.49 96.81 102.32 95.97 102.32 94.94 L 102.31 93.92 C 102.30 92.89 101.46 92.06 100.43 92.07 C 99.40 92.07 98.56 92.92 98.57 93.95 Z M 98.58 94.95 L 98.58 95.94 C 98.58 96.97 99.42 97.81 100.46 97.80 C 101.49 97.80 102.32 96.96 102.32 95.93 L 102.32 94.94 C 102.32 93.91 101.48 93.07 100.44 93.08 C 99.41 93.08 98.57 93.92 98.58 94.95 Z M 98.58 95.93 L 98.58 96.87 C 98.58 97.90 99.42 98.74 100.45 98.74 C 101.49 98.74 102.33 97.90 102.33 96.87 L 102.32 95.93 C 102.32 94.90 101.48 94.06 100.45 94.06 C 99.41 94.06 98.58 94.90 98.58 95.93 Z M 98.57 96.87 L 98.57 97.95 C 98.57 98.99 99.41 99.83 100.45 99.83 C 101.49 99.83 102.33 98.99 102.33 97.95 L 102.33 96.87 C 102.33 95.83 101.49 94.99 100.45 94.99 C 99.41 94.99 98.57 95.83 98.57 96.87 Z M 98.57 97.95 L 98.57 98.98 C 98.57 100.02 99.41 100.86 100.45 100.86 C 101.49 100.86 102.33 100.02 102.33 98.98 L 102.33 97.95 C 102.33 96.92 101.49 96.08 100.45 96.08 C 99.41 96.08 98.57 96.92 98.57 97.95 Z M 98.57 98.98 L 98.57 99.96 C 98.57 101.00 99.41 101.84 100.45 101.84 C 101.49 101.84 102.33 101.00 102.33 99.96 L 102.33 98.98 C 102.33 97.95 101.49 97.11 100.45 97.11 C 99.41 97.11 98.57 97.95 98.57 98.98 Z M 98.57 99.96 L 98.57 100.90 C 98.57 101.94 99.41 102.78 100.45 102.78 C 101.49 102.78 102.33 101.94 102.33 100.90 L 102.33 99.96 C 102.33 98.92 101.49 98.08 100.45 98.08 C 99.41 98.08 98.57 98.92 98.57 99.96 Z M 98.57 100.90 L 98.57 101.85 C 98.57 102.89 99.41 103.74 100.45 103.74 C 101.49 103.74 102.33 102.89 102.33 101.85 L 102.33 100.90 C 102.33 99.86 101.49 99.01 100.45 99.01 C 99.41 99.01 98.57 99.86 98.57 100.90 Z M 98.57 101.85 L 98.57 102.85 C 98.57 103.89 99.41 104.73 100.45 104.73 C 101.49 104.73 102.33 103.89 102.33 102.85 L 102.33 101.85 C 102.33 100.81 101.49 99.97 100.45 99.97 C 99.41 99.97 98.57 100.81 98.57 101.85 Z M 98.57 102.85 L 98.57 103.85 C 98.57 104.89 99.41 105.73 100.45 105.73 C 101.49 105.73 102.34 104.89 102.34 103.85 L 102.34 102.85 C 102.34 101.81 101.49 100.96 100.45 100.96 C 99.41 100.96 98.57 101.81 98.57 102.85 Z M 98.57 103.85 L 98.57 104.85 C 98.57 105.89 99.41 106.74 100.45 106.74 C 101.49 106.74 102.34 105.89 102.34 104.85 L 102.34 103.85 C 102.34 102.81 101.49 101.96 100.45 101.96 C 99.41 101.96 98.57 102.81 98.57 103.85 Z M 98.56 104.85 L 98.56 105.86 C 98.56 106.90 99.41 107.75 100.45 107.75 C 101.49 107.75 102.34 106.90 102.34 105.86 L 102.34 104.85 C 102.34 103.81 101.49 102.97 100.45 102.97 C 99.41 102.97 98.56 103.81 98.56 104.85 Z M 98.56 105.86 L 98.56 106.89 C 98.56 107.93 99.41 108.77 100.45 108.77 C 101.49 108.77 102.34 107.93 102.34 106.89 L 102.34 105.86 C 102.34 104.82 101.49 103.97 100.45 103.97 C 99.41 103.97 98.56 104.82 98.56 105.86 Z M 98.56 106.89 L 98.56 107.90 C 98.56 108.94 99.41 109.79 100.45 109.79 C 101.49 109.79 102.34 108.94 102.34 107.90 L 102.34 106.89 C 102.34 105.84 101.49 105.00 100.45 105.00 C 99.41 105.00 98.56 105.84 98.56 106.89 Z M 98.56 107.90 L 98.56 108.89 C 98.56 109.93 99.41 110.78 100.45 110.78 C 101.49 110.78 102.34 109.93 102.34 108.89 L 102.34 107.90 C 102.34 106.86 101.49 106.01 100.45 106.01 C 99.41 106.01 98.56 106.86 98.56 107.90 Z M 98.56 108.89 L 98.56 109.86 C 98.56 110.91 99.41 111.75 100.45 111.75 C 101.50 111.75 102.34 110.91 102.34 109.86 L 102.34 108.89 C 102.34 107.85 101.50 107.00 100.45 107.00 C 99.41 107.00 98.56 107.85 98.56 108.89 Z M 98.56 109.86 L 98.56 110.90 C 98.56 111.94 99.41 112.79 100.45 112.79 C 101.50 112.79 102.34 111.94 102.34 110.90 L 102.34 109.86 C 102.34 108.82 101.50 107.97 100.45 107.97 C 99.41 107.97 98.56 108.82 98.56 109.86 Z M 98.56 110.90 L 98.56 111.90 C 98.56 112.94 99.41 113.79 100.45 113.79 C 101.50 113.79 102.34 112.94 102.34 111.90 L 102.34 110.90 C 102.34 109.85 101.50 109.00 100.45 109.00 C 99.41 109.00 98.56 109.85 98.56 110.90 Z M 98.56 111.90 L 98.56 112.87 C 98.56 113.92 99.41 114.77 100.45 114.77 C 101.50 114.77 102.34 113.92 102.34 112.87 L 102.34 111.90 C 102.34 110.85 101.50 110.00 100.45 110.00 C 99.41 110.00 98.56 110.85 98.56 111.90 Z M 98.56 112.87 L 98.56 113.86 C 98.56 114.90 99.41 115.75 100.45 115.75 C 101.50 115.75 102.34 114.90 102.34 113.86 L 102.34 112.87 C 102.34 111.83 101.50 110.98 100.45 110.98 C 99.41 110.98 98.56 111.83 98.56 112.87 Z M 98.56 113.86 L 98.56 114.86 C 98.56 115.91 99.41 116.76 100.45 116.76 C 101.50 116.76 102.34 115.91 102.34 114.86 L 102.34 113.86 C 102.34 112.81 101.50 111.97 100.45 111.97 C 99.41 111.97 98.56 112.81 98.56 113.86 Z M 98.56 114.86 L 98.56 115.86 C 98.56 116.91 99.41 117.76 100.45 117.76 C 101.50 117.76 102.34 116.91 102.34 115.86 L 102.34 114.86 C 102.34 113.82 101.50 112.97 100.45 112.97 C 99.41 112.97 98.56 113.82 98.56 114.86 Z M 98.56 115.86 L 98.56 116.86 C 98.56 117.90 99.41 118.75 100.45 118.75 C 101.50 118.75 102.34 117.90 102.34 116.86 L 102.34 115.86 C 102.34 114.82 101.50 113.97 100.45 113.97 C 99.41 113.97 98.56 114.82 98.56 115.86 Z M 98.56 116.86 L 98.56 117.83 C 98.56 118.88 99.41 119.73 100.45 119.73 C 101.50 119.73 102.34 118.88 102.34 117.83 L 102.34 116.86 C 102.34 115.81 101.50 114.97 100.45 114.97 C 99.41 114.97 98.56 115.81 98.56 116.86 Z M 98.56 117.83 L 98.56 118.81 C 98.56 119.86 99.41 120.71 100.45 120.71 C 101.50 120.71 102.34 119.86 102.34 118.81 L 102.34 117.83 C 102.34 116.79 101.50 115.94 100.45 115.94 C 99.41 115.94 98.56 116.79 98.56 117.83 Z M 98.56 118.81 L 98.56 119.82 C 98.56 120.87 99.41 121.72 100.45 121.72 C 101.50 121.72 102.34 120.87 102.34 119.82 L 102.34 118.81 C 102.34 117.77 101.50 116.92 100.45 116.92 C 99.41 116.92 98.56 117.77 98.56 118.81 Z M 98.56 119.82 L 98.56 120.85 C 98.56 121.90 99.41 122.74 100.45 122.74 C 101.50 122.74 102.34 121.90 102.34 120.85 L 102.34 119.82 C 102.34 118.78 101.50 117.93 100.45 117.93 C 99.41 117.93 98.56 118.78 98.56 119.82 Z M 98.56 120.85 L 98.56 121.85 C 98.56 122.90 99.41 123.75 100.45 123.75 C 101.50 123.75 102.34 122.90 102.34 121.85 L 102.34 120.85 C 102.34 119.81 101.50 118.96 100.45 118.96 C 99.41 118.96 98.56 119.81 98.56 120.85 Z M 98.56 121.85 L 98.56 122.87 C 98.56 123.92 99.41 124.76 100.45 124.76 C 101.50 124.76 102.34 123.92 102.34 122.87 L 102.34 121.85 C 102.34 120.81 101.50 119.96 100.45 119.96 C 99.41 119.96 98.56 120.81 98.56 121.85 Z M 98.56 122.87 L 98.56 123.87 C 98.56 124.92 99.41 125.77 100.45 125.77 C 101.50 125.77 102.34 124.92 102.34 123.87 L 102.34 122.87 C 102.34 121.82 101.50 120.98 100.45 120.98 C 99.41 120.98 98.56 121.82 98.56 122.87 Z M 98.56 123.87 L 98.56 124.86 C 98.56 125.91 99.41 126.76 100.45 126.76 C 101.50 126.76 102.34 125.91 102.34 124.86 L 102.34 123.87 C 102.34 122.83 101.50 121.98 100.45 121.98 C 99.41 121.98 98.56 122.83 98.56 123.87 Z M 98.56 124.87 L 98.56 125.86 C 98.56 126.90 99.41 127.75 100.46 127.75 C 101.51 127.74 102.35 126.89 102.35 125.85 L 102.34 124.86 C 102.34 123.81 101.49 122.97 100.45 122.97 C 99.40 122.97 98.55 123.82 98.56 124.87 Z M 98.56 125.88 L 98.57 126.86 C 98.59 127.90 99.45 128.74 100.49 128.72 C 101.54 128.71 102.38 127.85 102.36 126.80 L 102.35 125.83 C 102.33 124.78 101.47 123.94 100.43 123.96 C 99.38 123.97 98.55 124.83 98.56 125.88 Z M 98.58 126.89 L 98.61 127.90 C 98.64 128.94 99.52 129.76 100.56 129.73 C 101.61 129.70 102.43 128.82 102.39 127.78 L 102.36 126.77 C 102.33 125.72 101.45 124.90 100.41 124.94 C 99.36 124.97 98.54 125.85 98.58 126.89 Z M 98.61 127.94 L 98.66 128.94 C 98.72 129.98 99.61 130.79 100.65 130.73 C 101.70 130.67 102.50 129.78 102.44 128.74 L 102.39 127.74 C 102.34 126.69 101.44 125.89 100.40 125.95 C 99.35 126.00 98.55 126.89 98.61 127.94 Z M 98.66 128.97 L 98.74 129.98 C 98.81 131.03 99.72 131.81 100.76 131.74 C 101.80 131.66 102.59 130.76 102.51 129.71 L 102.44 128.70 C 102.37 127.66 101.46 126.88 100.42 126.95 C 99.38 127.02 98.59 127.93 98.66 128.97 Z M 98.74 130.01 L 98.82 131.03 C 98.91 132.07 99.83 132.84 100.87 132.76 C 101.91 132.67 102.69 131.75 102.60 130.71 L 102.51 129.69 C 102.42 128.65 101.51 127.87 100.47 127.96 C 99.42 128.05 98.65 128.96 98.74 130.01 Z M 98.83 131.05 L 98.92 132.04 C 99.02 133.08 99.94 133.85 100.98 133.75 C 102.02 133.65 102.79 132.72 102.69 131.68 L 102.60 130.69 C 102.50 129.65 101.57 128.88 100.53 128.98 C 99.49 129.08 98.73 130.01 98.83 131.05 Z M 98.92 132.06 L 99.03 133.09 C 99.14 134.13 100.07 134.88 101.11 134.77 C 102.15 134.66 102.90 133.73 102.80 132.69 L 102.69 131.67 C 102.58 130.63 101.65 129.87 100.61 129.98 C 99.57 130.09 98.81 131.02 98.92 132.06 Z M 99.03 133.10 L 99.14 134.12 C 99.26 135.16 100.20 135.91 101.23 135.79 C 102.27 135.68 103.02 134.74 102.91 133.70 L 102.79 132.68 C 102.68 131.64 101.74 130.89 100.70 131.01 C 99.66 131.12 98.91 132.06 99.03 133.10 Z M 99.14 134.12 L 99.25 135.08 C 99.37 136.12 100.31 136.87 101.35 136.75 C 102.39 136.64 103.13 135.70 103.02 134.66 L 102.91 133.70 C 102.79 132.66 101.85 131.91 100.81 132.03 C 99.77 132.14 99.03 133.08 99.14 134.12 Z M 99.25 135.07 L 99.35 136.01 C 99.46 137.05 100.39 137.81 101.43 137.70 C 102.47 137.59 103.23 136.65 103.12 135.61 L 103.02 134.67 C 102.91 133.63 101.97 132.88 100.93 132.99 C 99.89 133.10 99.14 134.03 99.25 135.07 Z M 99.35 135.99 L 99.44 136.93 C 99.54 137.97 100.46 138.74 101.50 138.64 C 102.54 138.54 103.31 137.61 103.21 136.57 L 103.12 135.63 C 103.02 134.59 102.10 133.83 101.05 133.93 C 100.01 134.03 99.25 134.95 99.35 135.99 Z M 99.44 136.92 L 99.52 137.89 C 99.61 138.94 100.53 139.71 101.57 139.62 C 102.62 139.53 103.39 138.61 103.30 137.56 L 103.21 136.59 C 103.12 135.54 102.20 134.77 101.16 134.86 C 100.12 134.96 99.34 135.87 99.44 136.92 Z M 99.52 137.89 L 99.61 138.93 C 99.70 139.97 100.61 140.75 101.66 140.66 C 102.70 140.57 103.47 139.65 103.38 138.61 L 103.30 137.57 C 103.21 136.53 102.29 135.75 101.25 135.84 C 100.21 135.93 99.43 136.85 99.52 137.89 Z M 99.61 138.93 L 99.69 139.91 C 99.78 140.95 100.70 141.73 101.74 141.64 C 102.78 141.55 103.56 140.63 103.47 139.59 L 103.38 138.61 C 103.30 137.57 102.38 136.79 101.34 136.88 C 100.29 136.97 99.52 137.89 99.61 138.93 Z M 99.69 139.91 L 99.77 140.87 C 99.86 141.91 100.78 142.68 101.82 142.59 C 102.86 142.50 103.64 141.59 103.55 140.55 L 103.47 139.59 C 103.38 138.55 102.46 137.77 101.42 137.86 C 100.38 137.95 99.60 138.87 99.69 139.91 Z M 99.77 140.86 L 99.85 141.86 C 99.94 142.91 100.86 143.68 101.90 143.60 C 102.94 143.51 103.72 142.59 103.63 141.55 L 103.55 140.55 C 103.46 139.51 102.55 138.73 101.50 138.82 C 100.46 138.90 99.69 139.82 99.77 140.86 Z M 99.85 141.85 L 99.94 142.89 C 100.02 143.94 100.93 144.72 101.97 144.63 C 103.02 144.55 103.80 143.64 103.71 142.60 L 103.63 141.56 C 103.55 140.51 102.64 139.74 101.59 139.82 C 100.55 139.90 99.77 140.81 99.85 141.85 Z M 99.93 142.88 L 100.01 143.92 C 100.09 144.96 100.99 145.75 102.04 145.67 C 103.08 145.60 103.87 144.69 103.79 143.64 L 103.72 142.61 C 103.64 141.56 102.73 140.78 101.69 140.85 C 100.64 140.93 99.86 141.84 99.93 142.88 Z M 100.01 143.90 L 100.07 144.86 C 100.14 145.91 101.04 146.70 102.09 146.63 C 103.13 146.56 103.92 145.66 103.85 144.61 L 103.79 143.66 C 103.72 142.61 102.82 141.82 101.78 141.89 C 100.73 141.96 99.94 142.86 100.01 143.90 Z M 100.07 144.85 L 100.13 145.83 C 100.19 146.88 101.09 147.67 102.14 147.61 C 103.18 147.55 103.98 146.65 103.91 145.60 L 103.85 144.62 C 103.79 143.58 102.89 142.78 101.85 142.85 C 100.80 142.91 100.01 143.81 100.07 144.85 Z M 100.13 145.82 L 100.19 146.82 C 100.24 147.87 101.14 148.67 102.18 148.61 C 103.23 148.55 104.03 147.66 103.97 146.61 L 103.91 145.61 C 103.86 144.57 102.96 143.77 101.92 143.82 C 100.87 143.88 100.07 144.78 100.13 145.82 Z M 100.19 146.82 L 100.24 147.85 C 100.29 148.89 101.19 149.69 102.23 149.64 C 103.28 149.58 104.08 148.69 104.02 147.65 L 103.97 146.62 C 103.92 145.57 103.02 144.77 101.98 144.83 C 100.93 144.88 100.13 145.77 100.19 146.82 Z M 100.24 147.84 L 100.29 148.89 C 100.34 149.93 101.23 150.74 102.28 150.69 C 103.33 150.63 104.13 149.74 104.08 148.70 L 104.02 147.65 C 103.97 146.60 103.08 145.80 102.04 145.85 C 100.99 145.91 100.19 146.80 100.24 147.84 Z M 100.29 148.89 L 100.34 149.93 C 100.39 150.98 101.28 151.78 102.33 151.73 C 103.37 151.68 104.18 150.79 104.13 149.74 L 104.08 148.70 C 104.03 147.65 103.14 146.85 102.09 146.90 C 101.05 146.95 100.24 147.84 100.29 148.89 Z M 100.34 149.93 L 100.39 150.97 C 100.45 152.02 101.34 152.82 102.38 152.77 C 103.43 152.72 104.23 151.83 104.18 150.79 L 104.13 149.74 C 104.08 148.70 103.19 147.89 102.14 147.94 C 101.10 148.00 100.29 148.88 100.34 149.93 Z M 100.39 150.98 L 100.45 151.99 C 100.50 153.04 101.39 153.84 102.43 153.79 C 103.48 153.74 104.28 152.85 104.23 151.80 L 104.18 150.78 C 104.13 149.74 103.24 148.93 102.19 148.99 C 101.15 149.04 100.34 149.93 100.39 150.98 Z M 100.45 152.00 L 100.50 152.97 C 100.55 154.01 101.45 154.81 102.49 154.76 C 103.54 154.70 104.34 153.81 104.28 152.76 L 104.23 151.80 C 104.18 150.75 103.28 149.95 102.24 150.00 C 101.19 150.06 100.39 150.95 100.45 152.00 Z M 100.50 152.97 L 100.55 153.91 C 100.61 154.95 101.51 155.75 102.55 155.69 C 103.60 155.63 104.40 154.73 104.34 153.69 L 104.28 152.76 C 104.22 151.71 103.33 150.91 102.28 150.97 C 101.24 151.03 100.44 151.93 100.50 152.97 Z M 100.55 153.92 L 100.62 155.00 C 100.69 156.04 101.59 156.84 102.64 156.77 C 103.68 156.70 104.47 155.80 104.41 154.75 L 104.34 153.68 C 104.27 152.63 103.37 151.84 102.32 151.91 C 101.28 151.98 100.49 152.88 100.55 153.92 Z M 100.62 155.01 L 100.69 155.99 C 100.77 157.03 101.68 157.82 102.72 157.74 C 103.76 157.67 104.55 156.76 104.47 155.72 L 104.40 154.74 C 104.33 153.70 103.42 152.91 102.38 152.99 C 101.34 153.06 100.55 153.97 100.62 155.01 Z M 100.70 155.99 L 100.77 156.93 C 100.84 157.98 101.75 158.76 102.79 158.68 C 103.84 158.61 104.62 157.70 104.54 156.65 L 104.47 155.71 C 104.40 154.67 103.49 153.89 102.44 153.96 C 101.40 154.04 100.62 154.95 100.70 155.99 Z M 100.77 156.93 L 100.83 157.89 C 100.91 158.93 101.82 159.72 102.86 159.64 C 103.90 159.57 104.69 158.66 104.61 157.62 L 104.54 156.66 C 104.47 155.61 103.56 154.83 102.52 154.91 C 101.47 154.98 100.69 155.89 100.77 156.93 Z M 100.83 157.88 L 100.90 158.88 C 100.97 159.92 101.88 160.71 102.92 160.64 C 103.96 160.56 104.75 159.66 104.68 158.62 L 104.61 157.63 C 104.54 156.58 103.64 155.79 102.59 155.86 C 101.55 155.94 100.76 156.84 100.83 157.88 Z M 100.90 158.87 L 100.97 159.89 C 101.04 160.93 101.94 161.72 102.98 161.65 C 104.03 161.58 104.82 160.68 104.75 159.64 L 104.68 158.62 C 104.61 157.58 103.71 156.79 102.67 156.86 C 101.62 156.93 100.83 157.83 100.90 158.87 Z M 100.97 159.89 L 101.04 160.90 C 101.11 161.94 102.01 162.73 103.05 162.66 C 104.10 162.59 104.89 161.69 104.82 160.64 L 104.75 159.64 C 104.68 158.59 103.78 157.80 102.73 157.87 C 101.69 157.94 100.90 158.85 100.97 159.89 Z M 101.03 160.90 L 101.10 161.90 C 101.18 162.94 102.08 163.73 103.13 163.65 C 104.17 163.58 104.96 162.68 104.89 161.63 L 104.82 160.64 C 104.74 159.59 103.84 158.81 102.79 158.88 C 101.75 158.95 100.96 159.86 101.03 160.90 Z M 101.10 161.90 L 101.18 162.88 C 101.25 163.93 102.16 164.71 103.21 164.63 C 104.25 164.56 105.04 163.65 104.96 162.60 L 104.89 161.62 C 104.81 160.58 103.90 159.79 102.86 159.87 C 101.81 159.95 101.03 160.86 101.10 161.90 Z M 101.18 162.88 L 101.25 163.86 C 101.32 164.90 102.23 165.69 103.28 165.61 C 104.32 165.53 105.11 164.62 105.03 163.58 L 104.96 162.60 C 104.88 161.56 103.97 160.77 102.93 160.85 C 101.88 160.93 101.10 161.84 101.18 162.88 Z M 101.25 163.85 L 101.32 164.87 C 101.39 165.91 102.30 166.70 103.34 166.63 C 104.39 166.55 105.18 165.65 105.10 164.60 L 105.03 163.58 C 104.96 162.54 104.05 161.75 103.01 161.82 C 101.96 161.90 101.17 162.81 101.25 163.85 Z M 101.32 164.86 L 101.38 165.76 C 101.44 166.81 102.35 167.60 103.39 167.53 C 104.44 167.46 105.23 166.56 105.16 165.51 L 105.10 164.61 C 105.04 163.56 104.13 162.77 103.09 162.84 C 102.04 162.91 101.25 163.81 101.32 164.86 Z M 101.38 165.75 L 101.43 166.66 C 101.50 167.70 102.40 168.50 103.45 168.43 C 104.49 168.37 105.29 167.47 105.22 166.42 L 105.16 165.52 C 105.10 164.47 104.20 163.68 103.15 163.74 C 102.10 163.81 101.31 164.71 101.38 165.75 Z M 101.43 166.66 L 101.49 167.63 C 101.56 168.68 102.46 169.47 103.51 169.41 C 104.55 169.34 105.35 168.44 105.28 167.40 L 105.22 166.42 C 105.16 165.37 104.26 164.58 103.21 164.64 C 102.16 164.71 101.37 165.61 101.43 166.66 Z M 101.49 167.64 L 101.56 168.69 C 101.63 169.74 102.53 170.53 103.58 170.47 C 104.62 170.40 105.42 169.50 105.35 168.45 L 105.28 167.39 C 105.22 166.35 104.31 165.55 103.27 165.62 C 102.22 165.69 101.43 166.59 101.49 167.64 Z M 101.56 168.70 L 101.64 169.85 C 101.71 170.90 102.61 171.69 103.66 171.62 C 104.70 171.55 105.50 170.65 105.43 169.60 L 105.35 168.45 C 105.28 167.40 104.38 166.61 103.33 166.68 C 102.28 166.75 101.49 167.65 101.56 168.70 Z M 101.64 169.86 L 101.71 170.87 C 101.78 171.92 102.69 172.71 103.73 172.63 C 104.78 172.56 105.57 171.65 105.50 170.61 L 105.43 169.59 C 105.35 168.55 104.45 167.76 103.40 167.83 C 102.35 167.90 101.57 168.81 101.64 169.86 Z M 101.71 170.87 L 101.78 171.91 C 101.86 172.96 102.77 173.74 103.81 173.67 C 104.86 173.59 105.64 172.68 105.57 171.64 L 105.50 170.60 C 105.42 169.56 104.51 168.77 103.47 168.84 C 102.42 168.92 101.63 169.83 101.71 170.87 Z M 101.78 171.91 L 101.86 172.96 C 101.94 174.00 102.85 174.79 103.89 174.71 C 104.94 174.64 105.72 173.73 105.65 172.68 L 105.57 171.63 C 105.49 170.59 104.58 169.80 103.54 169.88 C 102.49 169.96 101.71 170.87 101.78 171.91 Z M 101.86 172.96 L 101.94 173.99 C 102.01 175.04 102.93 175.82 103.97 175.74 C 105.02 175.66 105.80 174.75 105.72 173.71 L 105.65 172.68 C 105.57 171.63 104.66 170.85 103.61 170.93 C 102.57 171.00 101.78 171.92 101.86 172.96 Z M 101.94 173.99 L 102.01 174.97 C 102.09 176.02 103.00 176.80 104.05 176.72 C 105.09 176.64 105.88 175.73 105.80 174.68 L 105.72 173.70 C 105.64 172.66 104.73 171.88 103.69 171.95 C 102.64 172.03 101.86 172.95 101.94 173.99 Z M 102.01 174.97 L 102.08 175.88 C 102.16 176.93 103.08 177.71 104.12 177.63 C 105.17 177.55 105.95 176.63 105.87 175.59 L 105.80 174.68 C 105.72 173.64 104.80 172.85 103.76 172.94 C 102.71 173.02 101.93 173.93 102.01 174.97 Z M 102.08 175.88 L 102.17 177.01 C 102.25 178.05 103.17 178.83 104.21 178.75 C 105.26 178.67 106.04 177.75 105.96 176.71 L 105.87 175.58 C 105.78 174.54 104.87 173.76 103.83 173.84 C 102.78 173.92 102.00 174.84 102.08 175.88 Z M 102.17 177.01 L 102.25 178.01 C 102.34 179.06 103.26 179.83 104.30 179.75 C 105.35 179.66 106.12 178.74 106.04 177.70 L 105.96 176.70 C 105.87 175.66 104.95 174.88 103.91 174.97 C 102.86 175.05 102.08 175.97 102.17 177.01 Z M 102.25 178.02 L 102.34 178.95 C 102.43 179.99 103.35 180.76 104.39 180.67 C 105.44 180.58 106.21 179.66 106.12 178.61 L 106.04 177.69 C 105.94 176.64 105.02 175.87 103.98 175.96 C 102.93 176.06 102.16 176.98 102.25 178.02 Z M 102.34 178.96 L 102.42 179.89 C 102.52 180.94 103.45 181.70 104.49 181.60 C 105.54 181.51 106.30 180.58 106.20 179.54 L 106.12 178.60 C 106.02 177.56 105.09 176.79 104.05 176.89 C 103.00 176.99 102.24 177.92 102.34 178.96 Z M 102.43 179.90 L 102.52 180.84 C 102.62 181.88 103.55 182.64 104.60 182.54 C 105.64 182.43 106.40 181.50 106.30 180.46 L 106.20 179.53 C 106.10 178.48 105.17 177.72 104.13 177.82 C 103.08 177.93 102.32 178.86 102.43 179.90 Z M 102.52 180.84 L 102.62 181.83 C 102.73 182.87 103.66 183.63 104.70 183.52 C 105.75 183.41 106.50 182.48 106.40 181.44 L 106.30 180.46 C 106.19 179.41 105.26 178.65 104.21 178.76 C 103.17 178.87 102.41 179.80 102.52 180.84 Z M 102.62 181.83 L 102.73 182.85 C 102.84 183.89 103.77 184.65 104.81 184.54 C 105.86 184.43 106.61 183.50 106.50 182.45 L 106.40 181.44 C 106.29 180.39 105.35 179.64 104.31 179.75 C 103.27 179.86 102.51 180.79 102.62 181.83 Z M 102.73 182.85 L 102.84 183.87 C 102.95 184.92 103.88 185.67 104.92 185.56 C 105.96 185.46 106.72 184.52 106.61 183.48 L 106.50 182.45 C 106.39 181.41 105.46 180.66 104.42 180.76 C 103.38 180.87 102.62 181.81 102.73 182.85 Z M 102.84 183.87 L 102.94 184.89 C 103.05 185.94 103.98 186.69 105.02 186.59 C 106.07 186.48 106.82 185.55 106.72 184.50 L 106.61 183.48 C 106.50 182.44 105.57 181.68 104.53 181.79 C 103.49 181.90 102.73 182.83 102.84 183.87 Z M 102.94 184.89 L 103.04 185.91 C 103.15 186.95 104.08 187.71 105.12 187.61 C 106.16 187.50 106.92 186.58 106.82 185.53 L 106.72 184.51 C 106.61 183.47 105.68 182.71 104.64 182.81 C 103.60 182.92 102.84 183.85 102.94 184.89 Z M 103.04 185.90 L 103.14 186.89 C 103.23 187.93 104.16 188.70 105.20 188.60 C 106.24 188.51 107.01 187.58 106.91 186.54 L 106.82 185.55 C 106.72 184.50 105.80 183.74 104.76 183.83 C 103.71 183.93 102.95 184.85 103.04 185.90 Z M 103.13 186.87 L 103.22 187.85 C 103.30 188.89 104.22 189.67 105.26 189.58 C 106.30 189.50 107.08 188.58 106.99 187.54 L 106.91 186.56 C 106.83 185.52 105.91 184.74 104.87 184.83 C 103.82 184.91 103.05 185.83 103.13 186.87 Z M 103.21 187.83 L 103.28 188.80 C 103.36 189.84 104.26 190.63 105.30 190.56 C 106.35 190.48 107.14 189.58 107.06 188.53 L 106.99 187.56 C 106.92 186.52 106.02 185.73 104.97 185.80 C 103.93 185.88 103.14 186.78 103.21 187.83 Z M 103.28 188.77 L 103.33 189.73 C 103.39 190.77 104.29 191.57 105.33 191.52 C 106.38 191.46 107.18 190.56 107.12 189.52 L 107.06 188.56 C 107.01 187.52 106.11 186.72 105.07 186.77 C 104.02 186.83 103.22 187.73 103.28 188.77 Z M 103.33 189.70 L 103.37 190.68 C 103.42 191.73 104.30 192.54 105.35 192.49 C 106.39 192.45 107.20 191.57 107.16 190.52 L 107.12 189.55 C 107.07 188.50 106.19 187.69 105.15 187.73 C 104.10 187.78 103.29 188.66 103.33 189.70 Z M 103.37 190.66 L 103.40 191.66 C 103.44 192.71 104.31 193.53 105.35 193.50 C 106.40 193.47 107.22 192.59 107.19 191.55 L 107.16 190.54 C 107.13 189.50 106.25 188.68 105.21 188.71 C 104.16 188.74 103.34 189.61 103.37 190.66 Z M 103.40 191.64 L 103.43 192.68 C 103.45 193.73 104.31 194.56 105.36 194.54 C 106.40 194.51 107.23 193.65 107.21 192.60 L 107.19 191.57 C 107.17 190.52 106.30 189.69 105.26 189.71 C 104.21 189.73 103.38 190.60 103.40 191.64 Z M 103.43 192.67 L 103.44 193.67 C 103.45 194.72 104.31 195.56 105.36 195.54 C 106.40 195.53 107.24 194.67 107.23 193.62 L 107.21 192.62 C 107.20 191.57 106.34 190.74 105.29 190.75 C 104.25 190.76 103.41 191.62 103.43 192.67 Z M 103.44 193.66 L 103.45 194.66 C 103.45 195.71 104.31 196.55 105.35 196.54 C 106.40 196.53 107.24 195.68 107.23 194.63 L 107.23 193.63 C 107.22 192.59 106.36 191.75 105.32 191.75 C 104.27 191.76 103.43 192.62 103.44 193.66 Z M 103.45 194.65 L 103.45 195.67 C 103.45 196.71 104.31 197.56 105.35 197.55 C 106.40 197.55 107.24 196.70 107.24 195.65 L 107.23 194.64 C 107.23 193.59 106.38 192.75 105.33 192.75 C 104.29 192.76 103.44 193.61 103.45 194.65 Z M 103.45 195.66 L 103.45 196.68 C 103.45 197.72 104.30 198.57 105.35 198.57 C 106.39 198.56 107.24 197.71 107.24 196.67 L 107.24 195.66 C 107.24 194.61 106.39 193.76 105.34 193.77 C 104.29 193.77 103.45 194.62 103.45 195.66 Z M 103.45 196.67 L 103.45 197.67 C 103.45 198.72 104.30 199.56 105.35 199.56 C 106.39 199.56 107.24 198.71 107.24 197.67 L 107.24 196.67 C 107.24 195.63 106.39 194.78 105.34 194.78 C 104.30 194.78 103.45 195.63 103.45 196.67 Z M 103.45 197.67 L 103.45 198.70 C 103.45 199.75 104.30 200.60 105.35 200.60 C 106.39 200.60 107.24 199.75 107.24 198.70 L 107.24 197.67 C 107.24 196.62 106.39 195.77 105.35 195.77 C 104.30 195.77 103.45 196.62 103.45 197.67 Z M 103.45 198.70 L 103.45 199.72 C 103.45 200.77 104.30 201.62 105.35 201.62 C 106.39 201.62 107.24 200.77 107.24 199.72 L 107.24 198.70 C 107.24 197.66 106.39 196.81 105.35 196.81 C 104.30 196.81 103.45 197.66 103.45 198.70 Z M 103.45 199.72 L 103.45 200.72 C 103.45 201.76 104.30 202.61 105.35 202.61 C 106.39 202.61 107.24 201.76 107.24 200.72 L 107.24 199.72 C 107.24 198.68 106.39 197.83 105.35 197.83 C 104.30 197.83 103.45 198.68 103.45 199.72 Z M 103.45 200.72 L 103.45 201.69 C 103.45 202.74 104.30 203.58 105.35 203.58 C 106.39 203.58 107.24 202.74 107.24 201.69 L 107.24 200.72 C 107.24 199.67 106.39 198.82 105.35 198.82 C 104.30 198.82 103.45 199.67 103.45 200.72 Z M 103.45 201.69 L 103.45 202.67 C 103.45 203.71 104.30 204.56 105.35 204.56 C 106.39 204.56 107.24 203.71 107.24 202.67 L 107.24 201.69 C 107.24 200.64 106.39 199.79 105.35 199.79 C 104.30 199.79 103.45 200.64 103.45 201.69 Z M 103.45 202.67 L 103.45 203.67 C 103.45 204.72 104.30 205.57 105.35 205.57 C 106.39 205.57 107.24 204.72 107.24 203.67 L 107.24 202.67 C 107.24 201.62 106.39 200.77 105.35 200.77 C 104.30 200.77 103.45 201.62 103.45 202.67 Z M 103.45 203.67 L 103.45 204.67 C 103.45 205.72 104.30 206.57 105.35 206.57 C 106.39 206.57 107.24 205.72 107.24 204.67 L 107.24 203.67 C 107.24 202.63 106.39 201.78 105.35 201.78 C 104.30 201.78 103.45 202.63 103.45 203.67 Z M 103.45 204.67 L 103.45 205.67 C 103.45 206.72 104.30 207.56 105.35 207.56 C 106.39 207.56 107.24 206.72 107.24 205.67 L 107.24 204.67 C 107.24 203.63 106.39 202.78 105.35 202.78 C 104.30 202.78 103.45 203.63 103.45 204.67 Z M 103.45 205.67 L 103.45 206.67 C 103.45 207.71 104.30 208.56 105.35 208.56 C 106.39 208.56 107.24 207.71 107.24 206.67 L 107.24 205.67 C 107.24 204.62 106.39 203.77 105.35 203.77 C 104.30 203.77 103.45 204.62 103.45 205.67 Z M 103.45 206.67 L 103.45 207.68 C 103.45 208.72 104.30 209.57 105.35 209.57 C 106.39 209.57 107.24 208.72 107.24 207.68 L 107.24 206.67 C 107.24 205.62 106.39 204.77 105.35 204.77 C 104.30 204.77 103.45 205.62 103.45 206.67 Z M 103.45 207.68 L 103.45 208.68 C 103.45 209.73 104.30 210.58 105.35 210.58 C 106.39 210.58 107.24 209.73 107.24 208.68 L 107.24 207.68 C 107.24 206.63 106.39 205.78 105.35 205.78 C 104.30 205.78 103.45 206.63 103.45 207.68 Z M 103.45 208.68 L 103.45 209.68 C 103.45 210.73 104.30 211.57 105.35 211.57 C 106.39 211.57 107.24 210.73 107.24 209.68 L 107.24 208.68 C 107.24 207.63 106.39 206.79 105.35 206.79 C 104.30 206.79 103.45 207.63 103.45 208.68 Z M 103.45 209.68 L 103.45 210.67 C 103.45 211.71 104.30 212.56 105.35 212.56 C 106.39 212.56 107.24 211.71 107.24 210.67 L 107.24 209.68 C 107.24 208.63 106.39 207.79 105.35 207.79 C 104.30 207.79 103.45 208.63 103.45 209.68 Z M 103.45 210.67 L 103.45 211.71 C 103.45 212.76 104.30 213.61 105.35 213.61 C 106.39 213.61 107.24 212.76 107.24 211.71 L 107.24 210.67 C 107.24 209.62 106.39 208.77 105.35 208.77 C 104.30 208.77 103.45 209.62 103.45 210.67 Z M 103.45 211.71 L 103.45 212.74 C 103.45 213.78 104.30 214.63 105.35 214.63 C 106.39 214.63 107.24 213.78 107.24 212.74 L 107.24 211.71 C 107.24 210.67 106.39 209.82 105.35 209.82 C 104.30 209.82 103.45 210.67 103.45 211.71 Z M 103.45 212.74 L 103.45 213.73 C 103.45 214.77 104.30 215.62 105.35 215.62 C 106.39 215.62 107.24 214.77 107.24 213.73 L 107.24 212.74 C 107.24 211.69 106.39 210.85 105.35 210.85 C 104.30 210.85 103.45 211.69 103.45 212.74 Z M 103.45 213.73 L 103.45 214.67 C 103.45 215.71 104.30 216.56 105.35 216.56 C 106.39 216.56 107.24 215.71 107.24 214.67 L 107.24 213.73 C 107.24 212.68 106.39 211.83 105.35 211.83 C 104.30 211.83 103.45 212.68 103.45 213.73 Z M 103.46 214.67 L 103.46 215.68 C 103.46 216.72 104.30 217.57 105.35 217.57 C 106.39 217.57 107.24 216.72 107.24 215.68 L 107.24 214.67 C 107.24 213.62 106.39 212.78 105.35 212.78 C 104.30 212.78 103.46 213.62 103.46 214.67 Z M 103.46 215.68 L 103.46 216.66 C 103.46 217.70 104.30 218.55 105.35 218.55 C 106.39 218.55 107.23 217.70 107.23 216.66 L 107.23 215.68 C 107.23 214.63 106.39 213.79 105.35 213.79 C 104.30 213.79 103.46 214.63 103.46 215.68 Z M 103.46 216.66 L 103.46 217.65 C 103.46 218.70 104.30 219.54 105.35 219.54 C 106.39 219.54 107.23 218.70 107.23 217.65 L 107.23 216.66 C 107.23 215.61 106.39 214.77 105.35 214.77 C 104.30 214.77 103.46 215.61 103.46 216.66 Z M 103.46 217.65 L 103.46 218.62 C 103.46 219.66 104.30 220.51 105.35 220.51 C 106.39 220.51 107.23 219.66 107.23 218.62 L 107.23 217.65 C 107.23 216.61 106.39 215.77 105.35 215.77 C 104.30 215.77 103.46 216.61 103.46 217.65 Z M 103.46 218.62 L 103.46 219.60 C 103.46 220.64 104.30 221.48 105.35 221.48 C 106.39 221.48 107.23 220.64 107.23 219.60 L 107.23 218.62 C 107.23 217.58 106.39 216.73 105.35 216.73 C 104.30 216.73 103.46 217.58 103.46 218.62 Z M 103.46 219.60 L 103.46 220.61 C 103.46 221.66 104.30 222.50 105.35 222.50 C 106.39 222.50 107.23 221.66 107.23 220.61 L 107.23 219.60 C 107.23 218.56 106.39 217.71 105.35 217.71 C 104.30 217.71 103.46 218.56 103.46 219.60 Z M 103.46 220.61 L 103.46 221.66 C 103.46 222.70 104.30 223.54 105.35 223.54 C 106.39 223.54 107.23 222.70 107.23 221.66 L 107.23 220.61 C 107.23 219.57 106.39 218.73 105.35 218.73 C 104.30 218.73 103.46 219.57 103.46 220.61 Z M 103.46 221.66 L 103.46 222.67 C 103.46 223.71 104.30 224.56 105.35 224.56 C 106.39 224.56 107.23 223.71 107.23 222.67 L 107.23 221.66 C 107.23 220.62 106.39 219.77 105.35 219.77 C 104.30 219.77 103.46 220.62 103.46 221.66 Z M 103.46 222.67 L 103.46 223.68 C 103.46 224.72 104.30 225.57 105.35 225.57 C 106.39 225.57 107.23 224.72 107.23 223.68 L 107.23 222.67 C 107.23 221.63 106.39 220.79 105.35 220.79 C 104.30 220.79 103.46 221.63 103.46 222.67 Z M 103.46 223.68 L 103.46 224.68 C 103.46 225.72 104.30 226.57 105.35 226.57 C 106.39 226.57 107.23 225.72 107.23 224.68 L 107.23 223.68 C 107.23 222.64 106.39 221.80 105.35 221.80 C 104.30 221.80 103.46 222.64 103.46 223.68 Z M 103.46 224.68 L 103.46 225.67 C 103.46 226.71 104.30 227.55 105.35 227.55 C 106.39 227.55 107.23 226.71 107.23 225.67 L 107.23 224.68 C 107.23 223.64 106.39 222.80 105.35 222.80 C 104.30 222.80 103.46 223.64 103.46 224.68 Z M 103.46 225.67 L 103.46 226.68 C 103.46 227.72 104.30 228.56 105.35 228.56 C 106.39 228.56 107.23 227.72 107.23 226.68 L 107.23 225.67 C 107.23 224.63 106.39 223.78 105.35 223.78 C 104.30 223.78 103.46 224.63 103.46 225.67 Z M 103.46 226.68 L 103.46 227.67 C 103.46 228.71 104.30 229.56 105.35 229.56 C 106.39 229.56 107.23 228.71 107.23 227.67 L 107.23 226.68 C 107.23 225.63 106.39 224.79 105.35 224.79 C 104.30 224.79 103.46 225.63 103.46 226.68 Z M 103.46 227.67 L 103.46 228.67 C 103.46 229.71 104.30 230.55 105.35 230.55 C 106.39 230.55 107.23 229.71 107.23 228.67 L 107.23 227.67 C 107.23 226.63 106.39 225.79 105.35 225.79 C 104.30 225.79 103.46 226.63 103.46 227.67 Z M 103.46 228.67 L 103.46 229.66 C 103.46 230.71 104.30 231.55 105.35 231.55 C 106.39 231.55 107.23 230.71 107.23 229.66 L 107.23 228.67 C 107.23 227.62 106.39 226.78 105.35 226.78 C 104.30 226.78 103.46 227.62 103.46 228.67 Z M 103.46 229.66 L 103.46 230.67 C 103.46 231.71 104.30 232.55 105.35 232.55 C 106.39 232.55 107.23 231.71 107.23 230.67 L 107.23 229.66 C 107.23 228.62 106.39 227.78 105.35 227.78 C 104.30 227.78 103.46 228.62 103.46 229.66 Z M 103.46 230.67 L 103.46 231.67 C 103.46 232.71 104.31 233.56 105.35 233.56 C 106.39 233.56 107.23 232.71 107.23 231.67 L 107.23 230.67 C 107.23 229.63 106.39 228.78 105.35 228.78 C 104.31 228.78 103.46 229.63 103.46 230.67 Z M 103.46 231.67 L 103.46 232.68 C 103.46 233.72 104.31 234.56 105.35 234.56 C 106.39 234.56 107.23 233.72 107.23 232.68 L 107.23 231.67 C 107.23 230.63 106.39 229.79 105.35 229.79 C 104.31 229.79 103.46 230.63 103.46 231.67 Z M 103.46 232.68 L 103.46 233.65 C 103.46 234.69 104.31 235.53 105.35 235.53 C 106.39 235.53 107.23 234.69 107.23 233.65 L 107.23 232.68 C 107.23 231.64 106.39 230.79 105.35 230.79 C 104.31 230.79 103.46 231.64 103.46 232.68 Z M 103.46 233.64 L 103.46 234.53 C 103.46 235.57 104.30 236.41 105.34 236.41 C 106.38 236.42 107.23 235.57 107.23 234.53 L 107.23 233.65 C 107.23 232.61 106.39 231.77 105.35 231.76 C 104.31 231.76 103.47 232.60 103.46 233.64 Z M 103.46 234.52 L 103.46 235.44 C 103.45 236.48 104.28 237.33 105.32 237.34 C 106.36 237.35 107.21 236.51 107.22 235.47 L 107.23 234.55 C 107.23 233.51 106.40 232.66 105.36 232.65 C 104.32 232.64 103.47 233.48 103.46 234.52 Z M 103.46 235.42 L 103.44 236.44 C 103.42 237.48 104.25 238.33 105.29 238.35 C 106.32 238.37 107.18 237.55 107.20 236.51 L 107.22 235.49 C 107.24 234.45 106.41 233.60 105.37 233.58 C 104.33 233.56 103.48 234.38 103.46 235.42 Z M 103.44 236.42 L 103.41 237.58 C 103.38 238.62 104.19 239.48 105.23 239.51 C 106.27 239.54 107.13 238.73 107.16 237.69 L 107.20 236.53 C 107.23 235.49 106.41 234.63 105.37 234.60 C 104.34 234.57 103.47 235.38 103.44 236.42 Z M 103.41 237.56 L 103.37 238.51 C 103.33 239.54 104.14 240.42 105.17 240.46 C 106.21 240.50 107.08 239.69 107.12 238.66 L 107.16 237.71 C 107.20 236.67 106.39 235.80 105.36 235.76 C 104.32 235.72 103.45 236.53 103.41 237.56 Z M 103.37 238.50 L 103.33 239.47 C 103.28 240.51 104.08 241.39 105.11 241.43 C 106.15 241.48 107.03 240.68 107.08 239.65 L 107.12 238.67 C 107.17 237.64 106.37 236.76 105.33 236.71 C 104.30 236.66 103.42 237.46 103.37 238.50 Z M 103.33 239.46 L 103.27 240.48 C 103.22 241.52 104.01 242.40 105.05 242.46 C 106.08 242.51 106.96 241.72 107.02 240.68 L 107.07 239.66 C 107.13 238.63 106.34 237.74 105.30 237.69 C 104.27 237.63 103.38 238.43 103.33 239.46 Z M 103.28 240.47 L 103.21 241.51 C 103.15 242.54 103.94 243.43 104.97 243.50 C 106.00 243.56 106.89 242.77 106.95 241.74 L 107.02 240.70 C 107.08 239.66 106.29 238.78 105.26 238.71 C 104.23 238.65 103.34 239.44 103.28 240.47 Z M 103.21 241.50 L 103.14 242.53 C 103.07 243.56 103.85 244.46 104.88 244.53 C 105.91 244.60 106.81 243.82 106.88 242.79 L 106.95 241.75 C 107.02 240.72 106.24 239.83 105.21 239.76 C 104.18 239.69 103.29 240.46 103.21 241.50 Z M 103.15 242.51 L 103.07 243.52 C 102.99 244.55 103.75 245.45 104.79 245.53 C 105.82 245.61 106.72 244.84 106.80 243.81 L 106.88 242.81 C 106.96 241.78 106.19 240.88 105.16 240.79 C 104.13 240.71 103.23 241.48 103.15 242.51 Z M 103.07 243.49 L 102.97 244.60 C 102.87 245.62 103.63 246.53 104.66 246.63 C 105.69 246.72 106.60 245.97 106.69 244.94 L 106.79 243.83 C 106.89 242.81 106.13 241.90 105.10 241.80 C 104.08 241.71 103.17 242.46 103.07 243.49 Z M 102.98 244.56 L 102.86 245.66 C 102.75 246.68 103.48 247.60 104.51 247.71 C 105.53 247.82 106.45 247.09 106.56 246.06 L 106.68 244.97 C 106.80 243.95 106.06 243.03 105.03 242.92 C 104.01 242.80 103.09 243.54 102.98 244.56 Z M 102.87 245.62 L 102.74 246.62 C 102.61 247.64 103.32 248.57 104.34 248.70 C 105.35 248.84 106.29 248.12 106.42 247.10 L 106.55 246.10 C 106.68 245.08 105.97 244.15 104.95 244.02 C 103.93 243.89 103.00 244.60 102.87 245.62 Z M 102.75 246.58 L 102.61 247.51 C 102.45 248.52 103.15 249.46 104.16 249.62 C 105.17 249.77 106.11 249.08 106.27 248.07 L 106.41 247.14 C 106.56 246.13 105.87 245.19 104.86 245.03 C 103.85 244.88 102.91 245.57 102.75 246.58 Z M 102.62 247.46 L 102.47 248.33 C 102.29 249.33 102.96 250.29 103.96 250.46 C 104.96 250.64 105.92 249.97 106.10 248.97 L 106.25 248.11 C 106.43 247.11 105.76 246.15 104.76 245.97 C 103.76 245.79 102.80 246.46 102.62 247.46 Z M 102.50 248.28 L 102.30 249.27 C 102.09 250.26 102.73 251.22 103.71 251.43 C 104.70 251.63 105.66 250.99 105.87 250.01 L 106.07 249.02 C 106.27 248.03 105.64 247.07 104.65 246.86 C 103.66 246.66 102.70 247.30 102.50 248.28 Z M 102.34 249.23 L 102.11 250.23 C 101.89 251.18 102.48 252.14 103.44 252.37 C 104.40 252.59 105.36 252.00 105.59 251.04 L 105.82 250.05 C 106.04 249.09 105.44 248.13 104.49 247.90 C 103.53 247.68 102.57 248.28 102.34 249.23 Z M 102.16 250.20 L 101.92 251.15 C 101.68 252.08 102.25 253.02 103.18 253.26 C 104.11 253.50 105.05 252.94 105.29 252.01 L 105.53 251.06 C 105.77 250.13 105.21 249.18 104.28 248.95 C 103.35 248.71 102.40 249.27 102.16 250.20 Z M 101.97 251.14 L 101.72 252.06 C 101.48 252.96 102.02 253.89 102.92 254.13 C 103.83 254.38 104.76 253.84 105.00 252.93 L 105.25 252.01 C 105.49 251.11 104.95 250.18 104.05 249.94 C 103.14 249.70 102.21 250.23 101.97 251.14 Z"
      fill="black"
      fill-rule="nonzero" /><path d="M 59.48 244.73 L 58.22 244.30 C 57.29 243.98 56.28 244.48 55.96 245.40 C 55.65 246.33 56.14 247.34 57.07 247.66 L 58.34 248.09 C 59.27 248.41 60.27 247.91 60.59 246.98 C 60.91 246.06 60.41 245.05 59.48 244.73 Z M 58.34 244.28 L 57.42 243.90 C 56.48 243.52 55.41 243.97 55.02 244.90 C 54.64 245.84 55.09 246.91 56.02 247.29 L 56.95 247.67 C 57.88 248.06 58.96 247.61 59.34 246.67 C 59.72 245.74 59.28 244.67 58.34 244.28 Z M 58.18 244.41 L 57.96 244.13 C 57.30 243.32 56.11 243.20 55.30 243.86 C 54.49 244.51 54.37 245.70 55.03 246.51 L 55.26 246.79 C 55.91 247.60 57.10 247.72 57.91 247.06 C 58.72 246.41 58.84 245.22 58.18 244.41 Z M 56.88 247.21 L 57.61 247.06 C 58.65 246.84 59.32 245.83 59.11 244.78 C 58.89 243.74 57.88 243.07 56.83 243.28 L 56.11 243.43 C 55.06 243.65 54.39 244.66 54.61 245.71 C 54.82 246.75 55.84 247.42 56.88 247.21 Z M 57.28 247.12 L 58.64 247.09 C 59.72 247.06 60.57 246.16 60.54 245.08 C 60.51 244.00 59.61 243.15 58.53 243.18 L 57.17 243.22 C 56.09 243.25 55.24 244.15 55.27 245.22 C 55.30 246.30 56.20 247.15 57.28 247.12 Z M 58.57 247.10 L 59.57 247.11 C 60.66 247.12 61.54 246.24 61.55 245.15 C 61.56 244.07 60.69 243.18 59.60 243.17 L 58.60 243.16 C 57.51 243.15 56.62 244.03 56.61 245.12 C 56.60 246.20 57.48 247.09 58.57 247.10 Z M 59.54 247.11 L 60.54 247.13 C 61.63 247.16 62.53 246.30 62.56 245.21 C 62.58 244.12 61.72 243.22 60.63 243.19 L 59.63 243.17 C 58.54 243.14 57.64 244.01 57.61 245.09 C 57.59 246.18 58.45 247.08 59.54 247.11 Z M 60.52 247.13 L 61.53 247.17 C 62.62 247.21 63.54 246.36 63.57 245.27 C 63.61 244.18 62.76 243.27 61.68 243.23 L 60.66 243.19 C 59.57 243.15 58.66 244.00 58.62 245.09 C 58.58 246.18 59.43 247.09 60.52 247.13 Z M 61.51 247.17 L 62.52 247.22 C 63.61 247.27 64.53 246.43 64.58 245.34 C 64.63 244.25 63.79 243.33 62.70 243.28 L 61.70 243.23 C 60.61 243.18 59.69 244.02 59.64 245.11 C 59.58 246.19 60.42 247.12 61.51 247.17 Z M 62.50 247.21 L 63.49 247.27 C 64.58 247.33 65.51 246.50 65.57 245.42 C 65.64 244.33 64.81 243.40 63.72 243.34 L 62.73 243.28 C 61.64 243.22 60.71 244.05 60.64 245.13 C 60.58 246.22 61.41 247.15 62.50 247.21 Z M 63.47 247.27 L 64.45 247.34 C 65.54 247.41 66.48 246.59 66.55 245.50 C 66.63 244.42 65.81 243.48 64.72 243.40 L 63.74 243.34 C 62.65 243.26 61.71 244.08 61.64 245.17 C 61.56 246.26 62.38 247.20 63.47 247.27 Z M 64.44 247.34 L 65.43 247.41 C 66.52 247.49 67.47 246.68 67.55 245.60 C 67.63 244.51 66.82 243.56 65.73 243.48 L 64.74 243.40 C 63.65 243.32 62.70 244.14 62.62 245.22 C 62.54 246.31 63.35 247.25 64.44 247.34 Z M 65.42 247.41 L 66.42 247.49 C 67.50 247.58 68.46 246.77 68.54 245.69 C 68.63 244.60 67.83 243.65 66.74 243.56 L 65.74 243.48 C 64.66 243.39 63.71 244.20 63.62 245.28 C 63.53 246.37 64.34 247.32 65.42 247.41 Z M 66.41 247.49 L 67.37 247.57 C 68.45 247.66 69.40 246.86 69.49 245.78 C 69.59 244.69 68.78 243.74 67.70 243.65 L 66.75 243.57 C 65.66 243.47 64.71 244.28 64.62 245.36 C 64.53 246.44 65.33 247.40 66.41 247.49 Z M 67.37 247.57 L 68.35 247.65 C 69.44 247.74 70.39 246.94 70.48 245.86 C 70.57 244.78 69.77 243.83 68.69 243.73 L 67.70 243.65 C 66.62 243.56 65.66 244.36 65.57 245.44 C 65.48 246.52 66.28 247.48 67.37 247.57 Z M 68.36 247.65 L 69.38 247.73 C 70.46 247.82 71.41 247.02 71.50 245.94 C 71.59 244.86 70.78 243.91 69.70 243.82 L 68.68 243.74 C 67.60 243.65 66.65 244.45 66.56 245.53 C 66.47 246.61 67.28 247.56 68.36 247.65 Z M 69.39 247.73 L 70.44 247.81 C 71.52 247.89 72.46 247.09 72.54 246.01 C 72.62 244.93 71.81 243.98 70.73 243.90 L 69.69 243.82 C 68.61 243.74 67.67 244.55 67.58 245.63 C 67.50 246.71 68.31 247.65 69.39 247.73 Z M 70.45 247.81 L 71.26 247.87 C 72.33 247.94 73.27 247.13 73.34 246.05 C 73.42 244.97 72.60 244.03 71.53 243.96 L 70.72 243.90 C 69.64 243.83 68.71 244.64 68.63 245.72 C 68.56 246.80 69.37 247.74 70.45 247.81 Z M 71.27 247.86 L 72.11 247.91 C 73.19 247.98 74.12 247.16 74.18 246.08 C 74.25 245.00 73.42 244.08 72.35 244.01 L 71.51 243.96 C 70.43 243.90 69.50 244.72 69.44 245.80 C 69.37 246.87 70.20 247.80 71.27 247.86 Z M 72.13 247.91 L 73.05 247.96 C 74.12 248.01 75.04 247.18 75.09 246.10 C 75.15 245.03 74.32 244.11 73.24 244.06 L 72.33 244.01 C 71.25 243.96 70.33 244.79 70.28 245.87 C 70.23 246.94 71.06 247.86 72.13 247.91 Z M 73.07 247.95 L 74.09 247.99 C 75.16 248.04 76.07 247.20 76.11 246.12 C 76.15 245.05 75.31 244.14 74.24 244.10 L 73.22 244.06 C 72.14 244.02 71.24 244.86 71.20 245.93 C 71.16 247.01 71.99 247.91 73.07 247.95 Z M 74.11 247.99 L 75.27 248.02 C 76.34 248.05 77.23 247.21 77.26 246.13 C 77.29 245.06 76.45 244.17 75.37 244.14 L 74.22 244.10 C 73.14 244.07 72.25 244.92 72.22 245.99 C 72.19 247.07 73.03 247.96 74.11 247.99 Z M 75.28 248.02 L 76.52 248.05 C 77.60 248.07 78.48 247.21 78.50 246.14 C 78.52 245.07 77.67 244.18 76.60 244.16 L 75.36 244.14 C 74.29 244.12 73.40 244.97 73.38 246.04 C 73.36 247.11 74.21 248.00 75.28 248.02 Z M 76.53 248.04 L 77.45 248.05 C 78.52 248.07 79.40 247.21 79.42 246.14 C 79.43 245.07 78.57 244.19 77.50 244.18 L 76.59 244.17 C 75.52 244.15 74.64 245.01 74.62 246.08 C 74.61 247.15 75.46 248.03 76.53 248.04 Z M 77.46 248.05 L 78.43 248.06 C 79.50 248.07 80.38 247.21 80.39 246.15 C 80.40 245.08 79.54 244.20 78.47 244.19 L 77.50 244.18 C 76.43 244.17 75.55 245.03 75.54 246.10 C 75.53 247.17 76.39 248.04 77.46 248.05 Z M 78.44 248.06 L 79.46 248.07 C 80.52 248.07 81.39 247.21 81.40 246.15 C 81.41 245.08 80.55 244.21 79.48 244.20 L 78.47 244.19 C 77.40 244.19 76.53 245.04 76.52 246.11 C 76.51 247.18 77.37 248.05 78.44 248.06 Z M 79.46 248.06 L 80.50 248.07 C 81.57 248.07 82.44 247.21 82.44 246.15 C 82.45 245.08 81.59 244.21 80.52 244.21 L 79.48 244.20 C 78.41 244.20 77.54 245.06 77.54 246.12 C 77.53 247.19 78.39 248.06 79.46 248.06 Z M 80.51 248.07 L 81.56 248.07 C 82.63 248.07 83.49 247.21 83.50 246.15 C 83.50 245.08 82.64 244.22 81.58 244.21 L 80.52 244.21 C 79.46 244.21 78.59 245.07 78.59 246.13 C 78.58 247.20 79.44 248.06 80.51 248.07 Z M 81.57 248.07 L 82.62 248.07 C 83.68 248.07 84.54 247.21 84.55 246.15 C 84.55 245.08 83.69 244.22 82.62 244.22 L 81.57 244.22 C 80.51 244.21 79.65 245.07 79.64 246.14 C 79.64 247.20 80.50 248.06 81.57 248.07 Z M 82.62 248.07 L 83.65 248.07 C 84.71 248.07 85.57 247.21 85.57 246.15 C 85.58 245.09 84.72 244.22 83.65 244.22 L 82.62 244.22 C 81.56 244.22 80.70 245.08 80.70 246.14 C 80.70 247.20 81.56 248.07 82.62 248.07 Z M 83.65 248.07 L 84.65 248.07 C 85.71 248.07 86.57 247.21 86.57 246.15 C 86.57 245.09 85.71 244.23 84.65 244.23 L 83.65 244.23 C 82.59 244.23 81.73 245.08 81.73 246.14 C 81.73 247.20 82.59 248.06 83.65 248.07 Z M 84.65 248.06 L 85.59 248.06 C 86.65 248.06 87.51 247.20 87.51 246.15 C 87.51 245.09 86.65 244.23 85.59 244.23 L 84.65 244.23 C 83.59 244.23 82.73 245.09 82.73 246.15 C 82.73 247.20 83.59 248.06 84.65 248.06 Z M 85.59 248.06 L 86.82 248.06 C 87.88 248.06 88.73 247.20 88.73 246.15 C 88.73 245.09 87.88 244.24 86.82 244.24 L 85.59 244.24 C 84.54 244.24 83.68 245.09 83.68 246.15 C 83.68 247.20 84.54 248.06 85.59 248.06 Z M 86.82 248.05 L 87.97 248.05 C 89.02 248.05 89.87 247.20 89.87 246.15 C 89.87 245.10 89.02 244.25 87.97 244.25 L 86.82 244.25 C 85.77 244.25 84.92 245.10 84.92 246.15 C 84.92 247.20 85.77 248.05 86.82 248.05 Z M 87.97 248.03 L 89.01 248.03 C 90.05 248.03 90.90 247.19 90.90 246.15 C 90.90 245.10 90.05 244.26 89.01 244.26 L 87.97 244.26 C 86.93 244.26 86.08 245.10 86.08 246.15 C 86.08 247.19 86.93 248.03 87.97 248.03 Z M 89.01 248.02 L 89.96 248.02 C 90.99 248.02 91.83 247.18 91.83 246.15 C 91.83 245.11 90.99 244.27 89.96 244.27 L 89.01 244.27 C 87.97 244.27 87.13 245.11 87.13 246.15 C 87.13 247.18 87.97 248.02 89.01 248.02 Z M 89.96 248.01 L 90.83 248.01 C 91.86 248.01 92.70 247.18 92.70 246.15 C 92.70 245.12 91.86 244.28 90.83 244.28 L 89.96 244.28 C 88.93 244.28 88.09 245.12 88.09 246.15 C 88.09 247.18 88.93 248.01 89.96 248.01 Z M 90.83 248.00 L 91.66 248.00 C 92.68 248.00 93.51 247.17 93.51 246.15 C 93.51 245.12 92.68 244.29 91.66 244.29 L 90.83 244.29 C 89.81 244.29 88.98 245.12 88.98 246.15 C 88.98 247.17 89.81 248.00 90.83 248.00 Z M 91.66 247.99 L 92.60 247.99 C 93.61 247.99 94.44 247.16 94.44 246.15 C 94.44 245.13 93.61 244.30 92.60 244.30 L 91.66 244.30 C 90.64 244.30 89.82 245.13 89.82 246.15 C 89.82 247.16 90.64 247.99 91.66 247.99 Z M 92.60 247.98 L 93.60 247.98 C 94.62 247.98 95.44 247.16 95.44 246.15 C 95.44 245.13 94.62 244.31 93.60 244.31 L 92.60 244.31 C 91.59 244.31 90.77 245.13 90.77 246.15 C 90.77 247.16 91.59 247.98 92.60 247.98 Z M 93.60 247.97 L 94.60 247.97 C 95.60 247.97 96.42 247.15 96.42 246.15 C 96.42 245.14 95.60 244.33 94.60 244.33 L 93.60 244.33 C 92.60 244.33 91.78 245.14 91.78 246.15 C 91.78 247.15 92.60 247.97 93.60 247.97 Z M 94.60 247.96 L 95.58 247.96 C 96.58 247.96 97.39 247.15 97.39 246.15 C 97.39 245.15 96.58 244.34 95.58 244.34 L 94.60 244.34 C 93.60 244.34 92.79 245.15 92.79 246.15 C 92.79 247.15 93.60 247.96 94.60 247.96 Z M 95.58 247.94 L 96.58 247.94 C 97.57 247.94 98.38 247.14 98.38 246.15 C 98.38 245.15 97.57 244.35 96.58 244.35 L 95.58 244.35 C 94.59 244.35 93.79 245.15 93.79 246.15 C 93.79 247.14 94.59 247.94 95.58 247.94 Z M 96.58 247.93 L 97.61 247.93 C 98.60 247.93 99.40 247.13 99.40 246.15 C 99.40 245.16 98.60 244.36 97.61 244.36 L 96.58 244.36 C 95.59 244.36 94.79 245.16 94.79 246.15 C 94.79 247.13 95.59 247.93 96.58 247.93 Z M 97.61 247.92 L 98.65 247.92 C 99.63 247.92 100.42 247.13 100.43 246.15 C 100.43 245.17 99.64 244.38 98.66 244.37 L 97.61 244.37 C 96.63 244.37 95.84 245.16 95.84 246.14 C 95.83 247.12 96.63 247.92 97.61 247.92 Z M 98.64 247.91 L 99.67 247.91 C 100.64 247.92 101.43 247.14 101.44 246.17 C 101.44 245.19 100.66 244.40 99.69 244.39 L 98.66 244.39 C 97.69 244.38 96.90 245.17 96.89 246.14 C 96.89 247.11 97.67 247.90 98.64 247.91 Z M 99.65 247.90 L 100.64 247.91 C 101.60 247.93 102.39 247.16 102.41 246.19 C 102.42 245.23 101.65 244.43 100.68 244.42 L 99.70 244.41 C 98.74 244.39 97.94 245.17 97.93 246.13 C 97.92 247.10 98.69 247.89 99.65 247.90 Z M 100.62 247.90 L 101.54 247.92 C 102.50 247.95 103.29 247.19 103.31 246.23 C 103.34 245.28 102.58 244.48 101.62 244.46 L 100.70 244.43 C 99.75 244.41 98.95 245.17 98.93 246.13 C 98.90 247.08 99.66 247.88 100.62 247.90 Z M 101.51 247.90 L 102.62 247.95 C 103.57 247.99 104.36 247.26 104.40 246.31 C 104.44 245.37 103.71 244.57 102.77 244.53 L 101.65 244.48 C 100.71 244.44 99.91 245.17 99.87 246.12 C 99.83 247.06 100.56 247.86 101.51 247.90 Z M 102.59 247.92 L 103.59 247.98 C 104.51 248.04 105.31 247.33 105.37 246.41 C 105.43 245.48 104.72 244.68 103.80 244.62 L 102.80 244.56 C 101.87 244.50 101.07 245.20 101.01 246.13 C 100.96 247.06 101.66 247.86 102.59 247.92 Z M 103.56 247.95 L 104.49 248.02 C 105.40 248.09 106.20 247.41 106.27 246.50 C 106.34 245.59 105.66 244.79 104.75 244.72 L 103.82 244.65 C 102.91 244.58 102.11 245.26 102.04 246.17 C 101.97 247.08 102.65 247.88 103.56 247.95 Z M 104.49 248.00 L 104.95 248.04 C 105.84 248.11 106.63 247.44 106.71 246.55 C 106.78 245.65 106.11 244.86 105.22 244.79 L 104.76 244.75 C 103.86 244.67 103.07 245.34 103.00 246.24 C 102.92 247.14 103.59 247.92 104.49 248.00 Z"
      fill="black"
      fill-rule="nonzero" /><path d="M 77.80 77.32 L 77.12 78.08 C 76.52 78.76 76.59 79.79 77.26 80.39 C 77.94 80.99 78.97 80.92 79.57 80.25 L 80.24 79.48 C 80.84 78.80 80.78 77.77 80.10 77.18 C 79.42 76.58 78.39 76.64 77.80 77.32 Z M 77.04 78.14 L 76.42 78.93 C 75.85 79.65 75.98 80.70 76.70 81.26 C 77.42 81.83 78.47 81.70 79.03 80.98 L 79.65 80.19 C 80.22 79.47 80.09 78.42 79.37 77.86 C 78.65 77.29 77.60 77.42 77.04 78.14 Z M 76.28 79.09 L 75.78 79.93 C 75.30 80.73 75.55 81.76 76.35 82.24 C 77.15 82.72 78.19 82.46 78.66 81.66 L 79.17 80.82 C 79.65 80.03 79.39 78.99 78.59 78.51 C 77.80 78.03 76.76 78.29 76.28 79.09 Z M 75.62 80.20 L 75.29 81.09 C 74.96 81.98 75.41 82.96 76.29 83.29 C 77.18 83.62 78.16 83.17 78.49 82.28 L 78.82 81.39 C 79.15 80.51 78.70 79.53 77.82 79.20 C 76.93 78.87 75.95 79.32 75.62 80.20 Z M 75.19 81.38 L 75.02 82.33 C 74.85 83.26 75.48 84.16 76.41 84.33 C 77.35 84.50 78.24 83.88 78.41 82.94 L 78.58 82.00 C 78.75 81.06 78.13 80.16 77.19 80.00 C 76.26 79.83 75.36 80.45 75.19 81.38 Z M 74.99 82.52 L 74.92 83.53 C 74.86 84.48 75.58 85.30 76.54 85.37 C 77.49 85.43 78.31 84.71 78.38 83.75 L 78.44 82.75 C 78.51 81.80 77.78 80.97 76.83 80.91 C 75.88 80.85 75.05 81.57 74.99 82.52 Z M 74.91 83.62 L 74.90 84.67 C 74.89 85.63 75.66 86.42 76.62 86.43 C 77.58 86.44 78.37 85.67 78.38 84.71 L 78.39 83.66 C 78.40 82.70 77.63 81.91 76.67 81.90 C 75.71 81.89 74.92 82.66 74.91 83.62 Z M 74.89 84.69 L 74.89 85.64 C 74.89 86.60 75.67 87.38 76.64 87.38 C 77.60 87.38 78.39 86.60 78.39 85.64 L 78.39 84.69 C 78.39 83.73 77.60 82.94 76.64 82.94 C 75.67 82.94 74.89 83.73 74.89 84.69 Z M 74.89 85.64 L 74.89 86.59 C 74.89 87.56 75.67 88.35 76.64 88.35 C 77.61 88.35 78.39 87.56 78.39 86.59 L 78.39 85.64 C 78.39 84.67 77.61 83.88 76.64 83.88 C 75.67 83.88 74.89 84.67 74.89 85.64 Z M 74.88 86.59 L 74.88 87.60 C 74.88 88.57 75.67 89.36 76.64 89.36 C 77.61 89.36 78.39 88.57 78.39 87.60 L 78.39 86.59 C 78.39 85.62 77.61 84.84 76.64 84.84 C 75.67 84.84 74.88 85.62 74.88 86.59 Z M 74.88 87.60 L 74.88 88.66 C 74.88 89.63 75.67 90.42 76.64 90.42 C 77.61 90.42 78.40 89.63 78.40 88.66 L 78.40 87.60 C 78.40 86.63 77.61 85.84 76.64 85.84 C 75.67 85.84 74.88 86.63 74.88 87.60 Z M 74.87 88.66 L 74.87 89.70 C 74.87 90.68 75.66 91.47 76.64 91.47 C 77.61 91.47 78.40 90.68 78.40 89.70 L 78.40 88.66 C 78.40 87.68 77.61 86.89 76.64 86.89 C 75.66 86.89 74.87 87.68 74.87 88.66 Z M 74.87 89.71 L 74.87 90.74 C 74.87 91.72 75.67 92.51 76.64 92.50 C 77.62 92.50 78.41 91.71 78.41 90.73 L 78.41 89.70 C 78.41 88.72 77.61 87.93 76.64 87.93 C 75.66 87.94 74.87 88.73 74.87 89.71 Z M 74.87 90.74 L 74.87 91.78 C 74.88 92.76 75.68 93.55 76.66 93.54 C 77.63 93.54 78.42 92.74 78.42 91.76 L 78.41 90.73 C 78.41 89.75 77.61 88.96 76.63 88.96 C 75.65 88.97 74.86 89.77 74.87 90.74 Z M 74.87 91.79 L 74.88 92.80 C 74.89 93.78 75.70 94.56 76.68 94.55 C 77.66 94.54 78.44 93.74 78.43 92.76 L 78.42 91.75 C 78.41 90.77 77.61 89.98 76.63 90.00 C 75.64 90.01 74.86 90.81 74.87 91.79 Z M 74.88 92.81 L 74.90 93.76 C 74.92 94.74 75.73 95.52 76.72 95.50 C 77.70 95.48 78.48 94.66 78.46 93.68 L 78.44 92.74 C 78.41 91.76 77.60 90.98 76.62 91.00 C 75.64 91.02 74.86 91.83 74.88 92.81 Z M 74.90 93.79 L 74.94 94.88 C 74.98 95.87 75.81 96.63 76.79 96.59 C 77.77 96.55 78.54 95.73 78.50 94.74 L 78.46 93.65 C 78.42 92.67 77.59 91.90 76.61 91.94 C 75.63 91.98 74.86 92.80 74.90 93.79 Z M 74.94 94.92 L 75.00 95.93 C 75.06 96.91 75.91 97.66 76.89 97.60 C 77.87 97.55 78.62 96.70 78.56 95.72 L 78.50 94.71 C 78.44 93.72 77.60 92.97 76.61 93.03 C 75.63 93.09 74.88 93.94 74.94 94.92 Z M 75.00 95.96 L 75.07 96.89 C 75.15 97.87 76.01 98.61 76.99 98.53 C 77.97 98.46 78.71 97.60 78.63 96.62 L 78.56 95.69 C 78.49 94.70 77.63 93.97 76.64 94.04 C 75.66 94.12 74.93 94.98 75.00 95.96 Z M 75.07 96.90 L 75.15 97.83 C 75.23 98.81 76.09 99.54 77.08 99.46 C 78.06 99.38 78.79 98.51 78.71 97.53 L 78.63 96.61 C 78.55 95.62 77.69 94.89 76.70 94.97 C 75.72 95.05 74.99 95.92 75.07 96.90 Z M 75.15 97.83 L 75.23 98.80 C 75.31 99.79 76.17 100.52 77.16 100.44 C 78.14 100.35 78.87 99.49 78.79 98.51 L 78.71 97.53 C 78.63 96.55 77.77 95.81 76.78 95.90 C 75.80 95.98 75.07 96.84 75.15 97.83 Z M 75.23 98.81 L 75.31 99.81 C 75.40 100.79 76.26 101.52 77.25 101.44 C 78.23 101.35 78.96 100.49 78.88 99.50 L 78.79 98.50 C 78.71 97.52 77.84 96.79 76.86 96.87 C 75.87 96.96 75.14 97.82 75.23 98.81 Z M 75.31 99.82 L 75.41 100.84 C 75.50 101.83 76.37 102.55 77.35 102.46 C 78.34 102.37 79.07 101.50 78.97 100.51 L 78.88 99.49 C 78.79 98.50 77.92 97.78 76.93 97.87 C 75.95 97.96 75.22 98.83 75.31 99.82 Z M 75.41 100.86 L 75.50 101.83 C 75.60 102.82 76.48 103.53 77.47 103.44 C 78.45 103.34 79.17 102.46 79.07 101.47 L 78.97 100.50 C 78.88 99.51 78.00 98.80 77.01 98.89 C 76.03 98.99 75.31 99.87 75.41 100.86 Z M 75.50 101.83 L 75.60 102.83 C 75.71 103.81 76.59 104.53 77.57 104.43 C 78.56 104.33 79.28 103.45 79.17 102.46 L 79.07 101.47 C 78.97 100.48 78.09 99.77 77.10 99.87 C 76.12 99.97 75.40 100.85 75.50 101.83 Z M 75.60 102.82 L 75.70 103.83 C 75.80 104.82 76.68 105.54 77.67 105.44 C 78.65 105.34 79.37 104.46 79.28 103.47 L 79.18 102.47 C 79.08 101.48 78.20 100.76 77.21 100.86 C 76.22 100.96 75.50 101.84 75.60 102.82 Z M 75.70 103.82 L 75.79 104.81 C 75.88 105.80 76.76 106.52 77.74 106.43 C 78.73 106.34 79.46 105.47 79.37 104.48 L 79.28 103.49 C 79.19 102.50 78.31 101.77 77.33 101.86 C 76.34 101.95 75.61 102.83 75.70 103.82 Z M 75.79 104.79 L 75.87 105.77 C 75.95 106.76 76.82 107.49 77.81 107.41 C 78.80 107.33 79.54 106.46 79.45 105.47 L 79.37 104.50 C 79.29 103.51 78.42 102.77 77.43 102.85 C 76.44 102.94 75.71 103.80 75.79 104.79 Z M 75.87 105.76 L 75.95 106.75 C 76.03 107.75 76.89 108.48 77.88 108.41 C 78.87 108.33 79.61 107.46 79.53 106.47 L 79.46 105.48 C 79.38 104.49 78.51 103.75 77.52 103.82 C 76.53 103.90 75.79 104.77 75.87 105.76 Z M 75.95 106.76 L 76.03 107.78 C 76.11 108.77 76.97 109.51 77.97 109.43 C 78.96 109.35 79.70 108.48 79.62 107.49 L 79.54 106.47 C 79.46 105.48 78.59 104.74 77.60 104.82 C 76.61 104.90 75.87 105.76 75.95 106.76 Z M 76.03 107.78 L 76.11 108.78 C 76.19 109.78 77.06 110.51 78.06 110.43 C 79.05 110.35 79.78 109.48 79.70 108.48 L 79.62 107.48 C 79.53 106.49 78.66 105.75 77.67 105.84 C 76.68 105.92 75.94 106.79 76.03 107.78 Z M 76.11 108.79 L 76.20 109.79 C 76.28 110.78 77.15 111.51 78.15 111.43 C 79.14 111.34 79.87 110.47 79.79 109.48 L 79.70 108.48 C 79.62 107.49 78.74 106.75 77.75 106.84 C 76.76 106.92 76.02 107.80 76.11 108.79 Z M 76.19 109.78 L 76.28 110.79 C 76.36 111.78 77.23 112.52 78.23 112.43 C 79.22 112.35 79.96 111.48 79.87 110.49 L 79.79 109.48 C 79.71 108.49 78.83 107.75 77.84 107.83 C 76.85 107.92 76.11 108.79 76.19 109.78 Z M 76.28 110.77 L 76.35 111.78 C 76.43 112.77 77.30 113.51 78.29 113.44 C 79.28 113.36 80.03 112.50 79.95 111.50 L 79.88 110.50 C 79.80 109.50 78.93 108.76 77.94 108.84 C 76.94 108.91 76.20 109.78 76.28 110.77 Z M 76.35 111.75 L 76.41 112.76 C 76.48 113.75 77.34 114.51 78.33 114.44 C 79.33 114.38 80.08 113.52 80.02 112.52 L 79.96 111.52 C 79.89 110.53 79.03 109.77 78.04 109.84 C 77.04 109.90 76.29 110.76 76.35 111.75 Z M 76.41 112.73 L 76.46 113.73 C 76.52 114.73 77.37 115.49 78.36 115.44 C 79.36 115.39 80.13 114.54 80.07 113.54 L 80.02 112.54 C 79.97 111.55 79.12 110.78 78.12 110.83 C 77.12 110.89 76.36 111.74 76.41 112.73 Z M 76.46 113.72 L 76.51 114.71 C 76.55 115.71 77.40 116.48 78.40 116.43 C 79.40 116.39 80.17 115.54 80.12 114.54 L 80.08 113.55 C 80.03 112.55 79.18 111.78 78.19 111.83 C 77.19 111.87 76.42 112.72 76.46 113.72 Z M 76.51 114.71 L 76.55 115.71 C 76.60 116.71 77.44 117.48 78.44 117.43 C 79.44 117.39 80.21 116.54 80.17 115.54 L 80.12 114.54 C 80.08 113.55 79.23 112.77 78.23 112.82 C 77.24 112.86 76.46 113.71 76.51 114.71 Z M 76.55 115.71 L 76.60 116.70 C 76.65 117.70 77.50 118.47 78.50 118.42 C 79.50 118.37 80.27 117.52 80.22 116.52 L 80.17 115.54 C 80.12 114.54 79.27 113.77 78.27 113.82 C 77.27 113.87 76.50 114.72 76.55 115.71 Z M 76.60 116.71 L 76.66 117.69 C 76.71 118.69 77.56 119.46 78.56 119.40 C 79.56 119.35 80.33 118.49 80.27 117.49 L 80.22 116.51 C 80.16 115.51 79.31 114.75 78.31 114.80 C 77.31 114.86 76.55 115.71 76.60 116.71 Z M 76.65 117.70 L 76.71 118.70 C 76.77 119.70 77.63 120.46 78.63 120.40 C 79.63 120.35 80.39 119.49 80.33 118.49 L 80.27 117.49 C 80.21 116.49 79.36 115.73 78.36 115.78 C 77.36 115.84 76.60 116.70 76.65 117.70 Z M 76.71 118.71 L 76.78 119.72 C 76.84 120.72 77.70 121.48 78.70 121.42 C 79.69 121.36 80.46 120.50 80.39 119.50 L 80.33 118.48 C 80.27 117.48 79.41 116.72 78.41 116.79 C 77.41 116.85 76.65 117.71 76.71 118.71 Z M 76.77 119.72 L 76.84 120.72 C 76.90 121.72 77.76 122.48 78.76 122.42 C 79.76 122.36 80.52 121.50 80.46 120.50 L 80.40 119.50 C 80.33 118.50 79.47 117.74 78.47 117.80 C 77.47 117.86 76.71 118.72 76.77 119.72 Z M 76.83 120.72 L 76.89 121.70 C 76.95 122.70 77.81 123.47 78.82 123.41 C 79.82 123.34 80.58 122.48 80.52 121.48 L 80.46 120.50 C 80.40 119.50 79.54 118.74 78.54 118.80 C 77.54 118.86 76.77 119.72 76.83 120.72 Z M 76.89 121.70 L 76.95 122.69 C 77.01 123.69 77.87 124.46 78.87 124.40 C 79.87 124.34 80.63 123.48 80.58 122.48 L 80.52 121.49 C 80.46 120.49 79.60 119.72 78.60 119.78 C 77.60 119.84 76.84 120.70 76.89 121.70 Z M 76.95 122.68 L 77.00 123.69 C 77.06 124.69 77.91 125.46 78.91 125.41 C 79.91 125.35 80.68 124.50 80.63 123.50 L 80.58 122.49 C 80.52 121.49 79.67 120.72 78.67 120.77 C 77.66 120.82 76.90 121.68 76.95 122.68 Z M 77.00 123.68 L 77.05 124.70 C 77.10 125.70 77.95 126.48 78.95 126.43 C 79.95 126.38 80.73 125.53 80.68 124.53 L 80.63 123.51 C 80.59 122.50 79.73 121.73 78.73 121.78 C 77.73 121.82 76.95 122.67 77.00 123.68 Z M 77.05 124.69 L 77.09 125.66 C 77.13 126.67 77.97 127.45 78.98 127.41 C 79.98 127.37 80.76 126.52 80.72 125.52 L 80.68 124.54 C 80.64 123.54 79.79 122.76 78.79 122.80 C 77.79 122.84 77.01 123.68 77.05 124.69 Z M 77.09 125.65 L 77.12 126.65 C 77.15 127.65 78.00 128.44 79.00 128.40 C 80.01 128.37 80.79 127.52 80.76 126.52 L 80.72 125.53 C 80.69 124.52 79.84 123.74 78.84 123.77 C 77.84 123.81 77.05 124.65 77.09 125.65 Z M 77.12 126.64 L 77.15 127.64 C 77.18 128.65 78.02 129.44 79.03 129.40 C 80.03 129.37 80.82 128.53 80.79 127.53 L 80.76 126.52 C 80.73 125.52 79.89 124.73 78.88 124.76 C 77.88 124.79 77.09 125.63 77.12 126.64 Z M 77.15 127.64 L 77.18 128.65 C 77.21 129.66 78.05 130.45 79.05 130.42 C 80.06 130.39 80.85 129.55 80.82 128.55 L 80.79 127.53 C 80.76 126.53 79.92 125.73 78.92 125.76 C 77.91 125.79 77.12 126.63 77.15 127.64 Z M 77.18 128.65 L 77.20 129.66 C 77.23 130.66 78.07 131.46 79.08 131.43 C 80.08 131.40 80.88 130.56 80.85 129.55 L 80.82 128.55 C 80.79 127.54 79.96 126.75 78.95 126.78 C 77.94 126.80 77.15 127.64 77.18 128.65 Z M 77.20 129.65 L 77.23 130.63 C 77.26 131.64 78.10 132.43 79.10 132.40 C 80.11 132.38 80.90 131.54 80.88 130.53 L 80.85 129.56 C 80.82 128.55 79.98 127.75 78.98 127.78 C 77.97 127.81 77.18 128.65 77.20 129.65 Z M 77.23 130.63 L 77.26 131.61 C 77.28 132.62 78.12 133.42 79.13 133.39 C 80.14 133.36 80.93 132.52 80.90 131.51 L 80.88 130.53 C 80.85 129.52 80.01 128.73 79.00 128.75 C 78.00 128.78 77.20 129.62 77.23 130.63 Z M 77.25 131.61 L 77.28 132.61 C 77.31 133.62 78.15 134.42 79.15 134.39 C 80.16 134.36 80.96 133.52 80.93 132.52 L 80.91 131.52 C 80.88 130.51 80.04 129.71 79.03 129.74 C 78.02 129.77 77.23 130.60 77.25 131.61 Z M 77.28 132.61 L 77.31 133.63 C 77.33 134.64 78.17 135.44 79.18 135.41 C 80.19 135.38 80.99 134.54 80.96 133.54 L 80.93 132.52 C 80.91 131.51 80.07 130.71 79.06 130.74 C 78.05 130.76 77.25 131.60 77.28 132.61 Z M 77.31 133.63 L 77.33 134.66 C 77.36 135.67 78.20 136.46 79.21 136.44 C 80.21 136.41 81.01 135.57 80.99 134.56 L 80.96 133.54 C 80.93 132.53 80.10 131.73 79.09 131.76 C 78.08 131.78 77.28 132.62 77.31 133.63 Z M 77.33 134.66 L 77.36 135.67 C 77.38 136.68 78.22 137.47 79.23 137.45 C 80.24 137.42 81.04 136.58 81.01 135.57 L 80.99 134.57 C 80.96 133.56 80.12 132.76 79.11 132.78 C 78.10 132.81 77.31 133.65 77.33 134.66 Z M 77.36 135.67 L 77.38 136.68 C 77.41 137.69 78.24 138.49 79.25 138.47 C 80.26 138.44 81.06 137.60 81.04 136.59 L 81.01 135.58 C 80.99 134.57 80.15 133.77 79.14 133.79 C 78.13 133.82 77.33 134.66 77.36 135.67 Z M 77.38 136.68 L 77.41 137.70 C 77.43 138.71 78.27 139.50 79.28 139.48 C 80.29 139.45 81.09 138.61 81.06 137.60 L 81.04 136.59 C 81.01 135.58 80.17 134.78 79.16 134.81 C 78.15 134.83 77.35 135.67 77.38 136.68 Z M 77.40 137.70 L 77.43 138.69 C 77.46 139.70 78.30 140.50 79.31 140.47 C 80.32 140.45 81.12 139.61 81.09 138.60 L 81.06 137.60 C 81.04 136.59 80.20 135.79 79.19 135.82 C 78.18 135.85 77.38 136.69 77.40 137.70 Z M 77.43 138.69 L 77.45 139.66 C 77.48 140.67 78.32 141.47 79.33 141.44 C 80.34 141.42 81.14 140.57 81.12 139.56 L 81.09 138.60 C 81.06 137.59 80.22 136.79 79.21 136.81 C 78.20 136.84 77.40 137.68 77.43 138.69 Z M 77.45 139.66 L 77.48 140.72 C 77.51 141.73 78.35 142.53 79.36 142.50 C 80.38 142.47 81.17 141.63 81.15 140.62 L 81.12 139.56 C 81.09 138.55 80.25 137.75 79.24 137.78 C 78.22 137.81 77.43 138.65 77.45 139.66 Z M 77.48 140.72 L 77.51 141.74 C 77.54 142.75 78.38 143.55 79.40 143.52 C 80.41 143.49 81.20 142.64 81.18 141.63 L 81.15 140.62 C 81.12 139.61 80.27 138.81 79.26 138.84 C 78.25 138.87 77.45 139.71 77.48 140.72 Z M 77.51 141.74 L 77.54 142.72 C 77.57 143.73 78.41 144.53 79.43 144.50 C 80.44 144.47 81.23 143.63 81.20 142.61 L 81.18 141.63 C 81.15 140.62 80.30 139.82 79.29 139.85 C 78.28 139.88 77.48 140.73 77.51 141.74 Z M 77.54 142.72 L 77.57 143.69 C 77.60 144.70 78.44 145.49 79.46 145.46 C 80.47 145.43 81.26 144.59 81.23 143.58 L 81.21 142.61 C 81.17 141.60 80.33 140.80 79.32 140.83 C 78.30 140.86 77.51 141.71 77.54 142.72 Z M 77.57 143.69 L 77.60 144.67 C 77.63 145.68 78.47 146.47 79.49 146.44 C 80.50 146.41 81.30 145.57 81.26 144.55 L 81.24 143.58 C 81.20 142.56 80.36 141.77 79.35 141.80 C 78.33 141.83 77.54 142.67 77.57 143.69 Z M 77.60 144.66 L 77.62 145.67 C 77.65 146.68 78.50 147.48 79.51 147.45 C 80.53 147.42 81.33 146.57 81.30 145.56 L 81.27 144.56 C 81.24 143.54 80.39 142.74 79.38 142.77 C 78.36 142.80 77.57 143.65 77.60 144.66 Z M 77.62 145.66 L 77.65 146.67 C 77.68 147.68 78.52 148.48 79.54 148.45 C 80.55 148.42 81.35 147.58 81.32 146.57 L 81.30 145.56 C 81.27 144.55 80.42 143.75 79.41 143.78 C 78.40 143.80 77.60 144.65 77.62 145.66 Z M 77.65 146.66 L 77.67 147.66 C 77.70 148.67 78.54 149.47 79.55 149.45 C 80.57 149.43 81.37 148.59 81.35 147.57 L 81.33 146.57 C 81.30 145.56 80.46 144.75 79.44 144.78 C 78.43 144.80 77.63 145.64 77.65 146.66 Z M 77.67 147.65 L 77.69 148.64 C 77.71 149.66 78.55 150.47 79.56 150.45 C 80.58 150.43 81.39 149.59 81.37 148.58 L 81.35 147.58 C 81.33 146.56 80.49 145.76 79.48 145.77 C 78.46 145.79 77.65 146.63 77.67 147.65 Z M 77.69 148.63 L 77.70 149.65 C 77.71 150.66 78.55 151.48 79.56 151.47 C 80.58 151.45 81.39 150.62 81.38 149.60 L 81.37 148.59 C 81.36 147.57 80.52 146.76 79.51 146.77 C 78.49 146.78 77.68 147.61 77.69 148.63 Z M 77.70 149.64 L 77.71 150.65 C 77.72 151.66 78.55 152.48 79.56 152.47 C 80.58 152.46 81.40 151.63 81.39 150.62 L 81.38 149.61 C 81.37 148.59 80.54 147.77 79.53 147.78 C 78.51 147.79 77.69 148.62 77.70 149.64 Z M 77.71 150.65 L 77.72 151.64 C 77.72 152.66 78.56 153.48 79.57 153.47 C 80.59 153.46 81.41 152.63 81.40 151.61 L 81.39 150.62 C 81.38 149.60 80.55 148.78 79.53 148.79 C 78.52 148.80 77.70 149.63 77.71 150.65 Z M 77.72 151.65 L 77.73 152.63 C 77.74 153.65 78.57 154.46 79.59 154.45 C 80.61 154.44 81.42 153.60 81.41 152.59 L 81.40 151.60 C 81.39 150.59 80.55 149.77 79.53 149.78 C 78.52 149.80 77.70 150.63 77.72 151.65 Z M 77.73 152.64 L 77.75 153.65 C 77.77 154.67 78.61 155.48 79.62 155.46 C 80.64 155.44 81.45 154.60 81.43 153.58 L 81.41 152.57 C 81.39 151.56 80.55 150.75 79.53 150.77 C 78.52 150.79 77.71 151.63 77.73 152.64 Z M 77.75 153.67 L 77.77 154.67 C 77.80 155.69 78.64 156.49 79.66 156.46 C 80.68 156.44 81.48 155.59 81.46 154.57 L 81.43 153.57 C 81.41 152.55 80.56 151.75 79.54 151.78 C 78.52 151.80 77.72 152.65 77.75 153.67 Z M 77.77 154.68 L 77.80 155.67 C 77.83 156.69 78.68 157.49 79.70 157.46 C 80.72 157.43 81.52 156.58 81.49 155.56 L 81.46 154.57 C 81.43 153.55 80.58 152.75 79.56 152.78 C 78.54 152.81 77.74 153.66 77.77 154.68 Z M 77.80 155.68 L 77.83 156.67 C 77.87 157.68 78.72 158.48 79.74 158.45 C 80.76 158.41 81.55 157.56 81.52 156.55 L 81.49 155.56 C 81.45 154.54 80.60 153.74 79.58 153.77 C 78.57 153.81 77.77 154.66 77.80 155.68 Z M 77.83 156.67 L 77.87 157.65 C 77.90 158.67 78.75 159.47 79.77 159.43 C 80.79 159.40 81.59 158.55 81.55 157.53 L 81.52 156.54 C 81.49 155.53 80.63 154.73 79.62 154.76 C 78.60 154.80 77.80 155.65 77.83 156.67 Z M 77.87 157.65 L 77.90 158.64 C 77.93 159.66 78.79 160.46 79.80 160.42 C 80.82 160.39 81.62 159.54 81.59 158.52 L 81.55 157.53 C 81.52 156.51 80.67 155.71 79.65 155.75 C 78.63 155.78 77.83 156.63 77.87 157.65 Z M 77.90 158.64 L 77.93 159.64 C 77.97 160.66 78.82 161.46 79.84 161.42 C 80.85 161.39 81.65 160.54 81.62 159.52 L 81.59 158.52 C 81.55 157.50 80.70 156.70 79.68 156.74 C 78.66 156.77 77.87 157.62 77.90 158.64 Z M 77.93 159.64 L 77.97 160.66 C 78.00 161.67 78.85 162.47 79.87 162.44 C 80.89 162.41 81.68 161.56 81.65 160.54 L 81.62 159.52 C 81.59 158.50 80.73 157.70 79.72 157.74 C 78.70 157.77 77.90 158.62 77.93 159.64 Z M 77.97 160.66 L 78.00 161.67 C 78.03 162.68 78.88 163.48 79.90 163.45 C 80.92 163.42 81.72 162.57 81.68 161.55 L 81.65 160.54 C 81.62 159.52 80.77 158.72 79.75 158.75 C 78.73 158.79 77.93 159.64 77.97 160.66 Z M 78.00 161.67 L 78.03 162.68 C 78.06 163.70 78.92 164.50 79.93 164.47 C 80.95 164.43 81.75 163.58 81.72 162.56 L 81.68 161.55 C 81.65 160.53 80.80 159.73 79.78 159.76 C 78.76 159.80 77.96 160.65 78.00 161.67 Z M 78.03 162.69 L 78.07 163.70 C 78.11 164.71 78.96 165.51 79.98 165.47 C 81.00 165.44 81.79 164.58 81.75 163.56 L 81.72 162.56 C 81.68 161.54 80.82 160.74 79.81 160.78 C 78.79 160.82 77.99 161.67 78.03 162.69 Z M 78.07 163.71 L 78.11 164.69 C 78.15 165.71 79.01 166.50 80.03 166.45 C 81.05 166.41 81.84 165.55 81.80 164.53 L 81.75 163.55 C 81.71 162.53 80.85 161.74 79.83 161.79 C 78.81 161.83 78.02 162.69 78.07 163.71 Z M 78.11 164.71 L 78.16 165.73 C 78.22 166.74 79.08 167.52 80.10 167.47 C 81.12 167.42 81.90 166.55 81.85 165.53 L 81.79 164.52 C 81.74 163.50 80.87 162.72 79.86 162.77 C 78.84 162.82 78.06 163.69 78.11 164.71 Z M 78.17 165.74 L 78.23 166.75 C 78.29 167.77 79.17 168.54 80.18 168.48 C 81.20 168.42 81.97 167.54 81.91 166.52 L 81.85 165.52 C 81.78 164.50 80.91 163.73 79.89 163.79 C 78.88 163.85 78.10 164.73 78.17 165.74 Z M 78.23 166.77 L 78.30 167.75 C 78.37 168.76 79.25 169.53 80.26 169.46 C 81.28 169.39 82.05 168.51 81.98 167.49 L 81.91 166.51 C 81.84 165.50 80.96 164.73 79.94 164.80 C 78.93 164.87 78.16 165.75 78.23 166.77 Z M 78.30 167.75 L 78.37 168.73 C 78.44 169.74 79.32 170.51 80.34 170.43 C 81.36 170.36 82.12 169.48 82.05 168.46 L 81.98 167.49 C 81.90 166.47 81.02 165.71 80.00 165.78 C 78.99 165.85 78.22 166.74 78.30 167.75 Z M 78.37 168.73 L 78.44 169.71 C 78.51 170.73 79.40 171.49 80.41 171.42 C 81.43 171.34 82.19 170.46 82.12 169.44 L 82.05 168.46 C 81.97 167.44 81.09 166.68 80.07 166.75 C 79.06 166.83 78.29 167.71 78.37 168.73 Z M 78.44 169.71 L 78.51 170.71 C 78.59 171.72 79.47 172.48 80.49 172.41 C 81.51 172.33 82.27 171.45 82.19 170.43 L 82.12 169.44 C 82.04 168.42 81.16 167.66 80.14 167.74 C 79.13 167.81 78.36 168.70 78.44 169.71 Z M 78.51 170.71 L 78.59 171.72 C 78.67 172.73 79.56 173.49 80.58 173.41 C 81.59 173.33 82.35 172.44 82.27 171.43 L 82.19 170.42 C 82.11 169.41 81.22 168.65 80.21 168.73 C 79.19 168.81 78.43 169.70 78.51 170.71 Z M 78.59 171.73 L 78.68 172.74 C 78.77 173.75 79.66 174.50 80.67 174.42 C 81.69 174.33 82.44 173.44 82.35 172.42 L 82.27 171.41 C 82.18 170.40 81.29 169.65 80.27 169.73 C 79.26 169.82 78.51 170.71 78.59 171.73 Z M 78.68 172.75 L 78.77 173.74 C 78.87 174.76 79.77 175.50 80.78 175.41 C 81.80 175.31 82.54 174.42 82.45 173.40 L 82.35 172.41 C 82.26 171.39 81.36 170.65 80.35 170.74 C 79.33 170.84 78.59 171.73 78.68 172.75 Z M 78.78 173.75 L 78.87 174.75 C 78.97 175.77 79.88 176.51 80.89 176.40 C 81.90 176.30 82.64 175.40 82.54 174.39 L 82.44 173.39 C 82.34 172.38 81.44 171.64 80.43 171.74 C 79.41 171.84 78.67 172.74 78.78 173.75 Z M 78.88 174.76 L 78.98 175.76 C 79.08 176.77 79.99 177.50 81.00 177.40 C 82.01 177.30 82.75 176.39 82.65 175.38 L 82.54 174.38 C 82.44 173.37 81.53 172.63 80.52 172.74 C 79.51 172.84 78.77 173.75 78.88 174.76 Z M 78.98 175.76 L 79.08 176.76 C 79.19 177.77 80.10 178.50 81.11 178.40 C 82.12 178.29 82.86 177.38 82.75 176.37 L 82.64 175.37 C 82.54 174.36 81.63 173.63 80.62 173.73 C 79.61 173.84 78.87 174.75 78.98 175.76 Z M 79.08 176.76 L 79.19 177.76 C 79.29 178.77 80.20 179.50 81.21 179.40 C 82.23 179.29 82.96 178.38 82.85 177.37 L 82.75 176.37 C 82.64 175.36 81.74 174.62 80.72 174.73 C 79.71 174.84 78.98 175.74 79.08 176.76 Z M 79.19 177.75 L 79.29 178.74 C 79.39 179.76 80.30 180.49 81.31 180.39 C 82.32 180.29 83.06 179.38 82.96 178.37 L 82.85 177.38 C 82.75 176.36 81.85 175.63 80.83 175.73 C 79.82 175.83 79.09 176.74 79.19 177.75 Z M 79.29 178.73 L 79.38 179.72 C 79.48 180.73 80.38 181.48 81.39 181.38 C 82.41 181.28 83.15 180.38 83.05 179.37 L 82.96 178.38 C 82.86 177.37 81.96 176.63 80.95 176.72 C 79.93 176.82 79.19 177.72 79.29 178.73 Z M 79.38 179.71 L 79.46 180.62 C 79.55 181.63 80.45 182.38 81.46 182.29 C 82.47 182.20 83.22 181.31 83.13 180.30 L 83.05 179.38 C 82.96 178.37 82.07 177.62 81.06 177.71 C 80.04 177.80 79.29 178.69 79.38 179.71 Z M 79.46 180.61 L 79.54 181.51 C 79.62 182.52 80.51 183.28 81.52 183.20 C 82.54 183.11 83.29 182.22 83.21 181.21 L 83.13 180.31 C 83.05 179.29 82.16 178.54 81.15 178.62 C 80.13 178.71 79.38 179.60 79.46 180.61 Z M 79.54 181.51 L 79.62 182.48 C 79.70 183.49 80.59 184.25 81.60 184.17 C 82.61 184.08 83.37 183.20 83.29 182.18 L 83.21 181.21 C 83.12 180.20 82.24 179.44 81.22 179.53 C 80.21 179.61 79.46 180.50 79.54 181.51 Z M 79.62 182.48 L 79.71 183.57 C 79.79 184.58 80.68 185.33 81.69 185.25 C 82.70 185.16 83.46 184.28 83.37 183.26 L 83.28 182.18 C 83.20 181.17 82.31 180.41 81.30 180.50 C 80.29 180.58 79.53 181.47 79.62 182.48 Z M 79.71 183.57 L 79.80 184.63 C 79.89 185.65 80.78 186.39 81.79 186.31 C 82.80 186.22 83.55 185.33 83.46 184.32 L 83.37 183.26 C 83.28 182.24 82.39 181.49 81.38 181.58 C 80.37 181.67 79.62 182.56 79.71 183.57 Z M 79.80 184.64 L 79.88 185.56 C 79.97 186.58 80.87 187.32 81.88 187.23 C 82.89 187.14 83.64 186.25 83.55 185.24 L 83.46 184.31 C 83.37 183.30 82.48 182.55 81.47 182.64 C 80.46 182.73 79.71 183.63 79.80 184.64 Z M 79.88 185.56 L 79.97 186.55 C 80.06 187.56 80.96 188.30 81.97 188.21 C 82.98 188.12 83.73 187.23 83.64 186.22 L 83.55 185.23 C 83.46 184.22 82.56 183.48 81.55 183.57 C 80.54 183.66 79.79 184.55 79.88 185.56 Z M 79.97 186.55 L 80.06 187.57 C 80.15 188.58 81.05 189.32 82.06 189.23 C 83.07 189.14 83.82 188.25 83.73 187.24 L 83.63 186.22 C 83.54 185.21 82.65 184.46 81.64 184.55 C 80.63 184.64 79.88 185.53 79.97 186.55 Z M 80.06 187.56 L 80.15 188.60 C 80.24 189.61 81.13 190.36 82.14 190.27 C 83.15 190.19 83.90 189.30 83.82 188.29 L 83.73 187.24 C 83.64 186.23 82.75 185.48 81.74 185.57 C 80.73 185.66 79.98 186.55 80.06 187.56 Z M 80.15 188.59 L 80.24 189.63 C 80.32 190.65 81.21 191.40 82.22 191.32 C 83.23 191.23 83.98 190.35 83.90 189.33 L 83.82 188.29 C 83.73 187.28 82.85 186.53 81.83 186.61 C 80.82 186.69 80.07 187.58 80.15 188.59 Z M 80.24 189.62 L 80.32 190.66 C 80.39 191.67 81.28 192.43 82.29 192.35 C 83.30 192.28 84.06 191.40 83.98 190.38 L 83.90 189.35 C 83.83 188.33 82.94 187.58 81.93 187.65 C 80.92 187.73 80.16 188.61 80.24 189.62 Z M 80.32 190.65 L 80.39 191.70 C 80.46 192.71 81.33 193.47 82.34 193.40 C 83.35 193.34 84.12 192.46 84.05 191.45 L 83.98 190.40 C 83.91 189.39 83.04 188.62 82.03 188.69 C 81.01 188.76 80.25 189.63 80.32 190.65 Z M 80.39 191.68 L 80.45 192.70 C 80.51 193.71 81.37 194.48 82.39 194.42 C 83.40 194.37 84.17 193.50 84.11 192.49 L 84.05 191.46 C 83.99 190.45 83.12 189.68 82.11 189.74 C 81.10 189.80 80.33 190.67 80.39 191.68 Z M 80.45 192.68 L 80.50 193.68 C 80.55 194.69 81.41 195.47 82.42 195.42 C 83.43 195.37 84.21 194.51 84.16 193.50 L 84.11 192.50 C 84.06 191.49 83.20 190.71 82.19 190.76 C 81.18 190.81 80.40 191.67 80.45 192.68 Z M 80.50 193.66 L 80.54 194.64 C 80.58 195.65 81.43 196.44 82.44 196.40 C 83.46 196.35 84.24 195.50 84.20 194.49 L 84.16 193.51 C 84.12 192.50 83.26 191.71 82.25 191.76 C 81.24 191.80 80.45 192.65 80.50 193.66 Z M 80.54 194.62 L 80.57 195.59 C 80.60 196.60 81.45 197.39 82.46 197.36 C 83.47 197.32 84.27 196.48 84.23 195.47 L 84.20 194.50 C 84.17 193.49 83.32 192.70 82.31 192.73 C 81.30 192.77 80.50 193.61 80.54 194.62 Z M 80.57 195.57 L 80.59 196.58 C 80.62 197.59 81.46 198.39 82.47 198.36 C 83.48 198.34 84.28 197.50 84.26 196.49 L 84.23 195.48 C 84.21 194.47 83.37 193.67 82.36 193.69 C 81.34 193.72 80.54 194.56 80.57 195.57 Z M 80.59 196.56 L 80.61 197.63 C 80.63 198.64 81.46 199.45 82.47 199.43 C 83.48 199.42 84.29 198.58 84.27 197.57 L 84.26 196.50 C 84.24 195.49 83.41 194.68 82.39 194.70 C 81.38 194.72 80.58 195.55 80.59 196.56 Z M 80.61 197.62 L 80.62 198.66 C 80.63 199.67 81.46 200.48 82.47 200.47 C 83.48 200.46 84.29 199.64 84.28 198.63 L 84.27 197.58 C 84.26 196.57 83.44 195.76 82.42 195.77 C 81.41 195.78 80.60 196.61 80.61 197.62 Z M 80.62 198.65 L 80.63 199.65 C 80.63 200.66 81.46 201.48 82.47 201.47 C 83.48 201.47 84.29 200.64 84.29 199.63 L 84.28 198.63 C 84.28 197.62 83.45 196.81 82.44 196.81 C 81.43 196.82 80.62 197.64 80.62 198.65 Z M 80.63 199.64 L 80.63 200.58 C 80.63 201.59 81.45 202.41 82.46 202.41 C 83.47 202.41 84.29 201.59 84.29 200.58 L 84.29 199.64 C 84.28 198.63 83.46 197.81 82.45 197.81 C 81.44 197.81 80.63 198.63 80.63 199.64 Z M 80.63 200.58 L 80.63 201.52 C 80.63 202.53 81.45 203.34 82.46 203.34 C 83.47 203.34 84.29 202.52 84.29 201.52 L 84.29 200.58 C 84.29 199.57 83.47 198.75 82.46 198.75 C 81.45 198.75 80.63 199.57 80.63 200.58 Z M 80.63 201.52 L 80.63 202.52 C 80.63 203.53 81.45 204.35 82.46 204.35 C 83.47 204.35 84.29 203.53 84.29 202.52 L 84.29 201.52 C 84.29 200.51 83.47 199.69 82.46 199.69 C 81.45 199.69 80.63 200.51 80.63 201.52 Z M 80.63 202.52 L 80.63 203.48 C 80.63 204.49 81.45 205.30 82.46 205.30 C 83.47 205.30 84.29 204.49 84.29 203.48 L 84.29 202.52 C 84.29 201.51 83.47 200.69 82.46 200.69 C 81.45 200.69 80.63 201.51 80.63 202.52 Z M 80.63 203.48 L 80.63 204.46 C 80.63 205.47 81.45 206.29 82.46 206.29 C 83.47 206.29 84.29 205.47 84.29 204.46 L 84.29 203.48 C 84.29 202.47 83.47 201.65 82.46 201.65 C 81.45 201.65 80.63 202.47 80.63 203.48 Z M 80.63 204.46 L 80.63 205.46 C 80.63 206.47 81.45 207.29 82.46 207.29 C 83.47 207.29 84.29 206.47 84.29 205.46 L 84.29 204.46 C 84.29 203.45 83.47 202.63 82.46 202.63 C 81.45 202.63 80.63 203.45 80.63 204.46 Z M 80.63 205.46 L 80.63 206.35 C 80.63 207.36 81.45 208.18 82.45 208.18 C 83.46 208.19 84.28 207.37 84.29 206.36 L 84.29 205.46 C 84.29 204.45 83.47 203.63 82.46 203.63 C 81.45 203.63 80.63 204.45 80.63 205.46 Z M 80.63 206.34 L 80.62 207.31 C 80.62 208.32 81.43 209.14 82.44 209.15 C 83.45 209.16 84.27 208.34 84.28 207.33 L 84.29 206.37 C 84.29 205.36 83.48 204.54 82.47 204.53 C 81.46 204.52 80.64 205.33 80.63 206.34 Z M 80.62 207.29 L 80.61 208.31 C 80.59 209.32 81.39 210.15 82.40 210.17 C 83.41 210.18 84.24 209.38 84.26 208.37 L 84.28 207.35 C 84.30 206.34 83.49 205.51 82.48 205.49 C 81.47 205.48 80.64 206.28 80.62 207.29 Z M 80.61 208.28 L 80.58 209.35 C 80.54 210.35 81.34 211.20 82.35 211.23 C 83.36 211.26 84.20 210.46 84.23 209.46 L 84.26 208.39 C 84.29 207.39 83.50 206.54 82.49 206.51 C 81.48 206.48 80.64 207.28 80.61 208.28 Z M 80.58 209.32 L 80.53 210.41 C 80.48 211.42 81.26 212.27 82.26 212.32 C 83.27 212.37 84.13 211.59 84.18 210.58 L 84.23 209.49 C 84.27 208.48 83.50 207.62 82.49 207.58 C 81.48 207.53 80.62 208.31 80.58 209.32 Z M 80.53 210.37 L 80.47 211.29 C 80.40 212.30 81.17 213.17 82.17 213.24 C 83.18 213.30 84.05 212.54 84.11 211.53 L 84.17 210.61 C 84.24 209.60 83.48 208.73 82.47 208.67 C 81.46 208.60 80.59 209.37 80.53 210.37 Z M 80.47 211.27 L 80.39 212.20 C 80.31 213.21 81.06 214.09 82.07 214.17 C 83.07 214.25 83.96 213.50 84.04 212.49 L 84.11 211.56 C 84.19 210.55 83.44 209.67 82.44 209.59 C 81.43 209.51 80.55 210.26 80.47 211.27 Z M 80.40 212.17 L 80.30 213.13 C 80.21 214.14 80.95 215.03 81.95 215.13 C 82.96 215.22 83.85 214.49 83.94 213.48 L 84.03 212.52 C 84.13 211.52 83.39 210.62 82.39 210.53 C 81.38 210.43 80.49 211.17 80.40 212.17 Z M 80.31 213.11 L 80.20 214.10 C 80.09 215.11 80.82 216.01 81.82 216.12 C 82.82 216.23 83.72 215.50 83.83 214.50 L 83.94 213.50 C 84.05 212.50 83.32 211.60 82.32 211.49 C 81.32 211.38 80.42 212.11 80.31 213.11 Z M 80.20 214.08 L 80.08 215.12 C 79.96 216.12 80.67 217.03 81.67 217.15 C 82.68 217.27 83.59 216.55 83.71 215.55 L 83.83 214.52 C 83.95 213.52 83.24 212.61 82.23 212.49 C 81.23 212.37 80.32 213.08 80.20 214.08 Z M 80.08 215.10 L 79.94 216.18 C 79.81 217.18 80.52 218.09 81.52 218.22 C 82.52 218.35 83.43 217.65 83.56 216.65 L 83.70 215.57 C 83.83 214.57 83.13 213.65 82.13 213.52 C 81.13 213.39 80.21 214.10 80.08 215.10 Z M 79.94 216.16 L 79.80 217.19 C 79.66 218.19 80.36 219.11 81.36 219.25 C 82.36 219.39 83.28 218.69 83.42 217.69 L 83.56 216.66 C 83.70 215.66 83.00 214.74 82.00 214.60 C 81.00 214.46 80.08 215.16 79.94 216.16 Z M 79.80 217.18 L 79.66 218.17 C 79.52 219.17 80.21 220.10 81.21 220.24 C 82.21 220.38 83.13 219.69 83.28 218.69 L 83.42 217.70 C 83.56 216.70 82.87 215.77 81.87 215.63 C 80.87 215.49 79.95 216.18 79.80 217.18 Z M 79.66 218.16 L 79.51 219.18 C 79.36 220.17 80.05 221.10 81.05 221.25 C 82.05 221.40 82.98 220.71 83.13 219.71 L 83.28 218.70 C 83.42 217.70 82.73 216.77 81.74 216.62 C 80.74 216.48 79.81 217.17 79.66 218.16 Z M 79.51 219.17 L 79.36 220.19 C 79.21 221.19 79.89 222.12 80.89 222.27 C 81.89 222.42 82.82 221.73 82.97 220.74 L 83.13 219.72 C 83.28 218.72 82.59 217.79 81.59 217.64 C 80.59 217.49 79.66 218.17 79.51 219.17 Z M 79.36 220.19 L 79.20 221.20 C 79.05 222.20 79.73 223.13 80.73 223.28 C 81.73 223.44 82.66 222.75 82.81 221.75 L 82.97 220.74 C 83.12 219.74 82.44 218.81 81.44 218.66 C 80.44 218.50 79.51 219.19 79.36 220.19 Z M 79.20 221.20 L 79.05 222.20 C 78.89 223.19 79.58 224.13 80.57 224.28 C 81.57 224.44 82.50 223.75 82.66 222.76 L 82.81 221.76 C 82.97 220.76 82.29 219.83 81.29 219.67 C 80.29 219.52 79.36 220.20 79.20 221.20 Z M 79.05 222.19 L 78.90 223.16 C 78.74 224.16 79.42 225.09 80.42 225.25 C 81.42 225.41 82.35 224.72 82.51 223.73 L 82.66 222.76 C 82.81 221.76 82.13 220.83 81.14 220.67 C 80.14 220.51 79.20 221.20 79.05 222.19 Z M 78.90 223.16 L 78.75 224.10 C 78.60 225.10 79.28 226.03 80.28 226.18 C 81.27 226.34 82.21 225.66 82.36 224.66 L 82.51 223.73 C 82.66 222.73 81.98 221.79 80.98 221.64 C 79.99 221.48 79.05 222.17 78.90 223.16 Z M 78.75 224.10 L 78.58 225.19 C 78.43 226.19 79.11 227.12 80.11 227.28 C 81.11 227.43 82.04 226.75 82.19 225.75 L 82.36 224.66 C 82.52 223.66 81.83 222.73 80.84 222.57 C 79.84 222.42 78.91 223.10 78.75 224.10 Z M 78.58 225.19 L 78.42 226.22 C 78.27 227.22 78.95 228.15 79.95 228.30 C 80.95 228.46 81.88 227.77 82.03 226.78 L 82.19 225.75 C 82.35 224.75 81.66 223.82 80.67 223.67 C 79.67 223.51 78.74 224.20 78.58 225.19 Z M 78.43 226.22 L 78.27 227.19 C 78.12 228.19 78.80 229.12 79.79 229.28 C 80.79 229.43 81.72 228.75 81.88 227.76 L 82.03 226.78 C 82.19 225.78 81.51 224.85 80.51 224.70 C 79.52 224.54 78.58 225.22 78.43 226.22 Z M 78.28 227.19 L 78.12 228.14 C 77.97 229.13 78.64 230.07 79.64 230.22 C 80.63 230.38 81.57 229.71 81.73 228.71 L 81.88 227.76 C 82.04 226.77 81.36 225.83 80.36 225.68 C 79.37 225.52 78.43 226.19 78.28 227.19 Z M 78.13 228.13 L 77.97 229.06 C 77.81 230.06 78.48 230.99 79.48 231.16 C 80.47 231.32 81.41 230.65 81.57 229.65 L 81.72 228.72 C 81.89 227.73 81.21 226.79 80.22 226.63 C 79.23 226.46 78.29 227.13 78.13 228.13 Z M 77.98 229.05 L 77.82 229.99 C 77.65 230.98 78.31 231.93 79.30 232.09 C 80.29 232.26 81.24 231.60 81.41 230.61 L 81.57 229.67 C 81.74 228.67 81.07 227.73 80.08 227.56 C 79.09 227.39 78.15 228.06 77.98 229.05 Z M 77.82 229.98 L 77.64 231.01 C 77.46 232.00 78.12 232.95 79.11 233.12 C 80.10 233.30 81.04 232.64 81.22 231.65 L 81.40 230.62 C 81.58 229.63 80.92 228.68 79.93 228.51 C 78.94 228.33 78.00 228.99 77.82 229.98 Z M 77.64 231.01 L 77.45 232.04 C 77.28 233.03 77.93 233.98 78.92 234.15 C 79.91 234.33 80.85 233.68 81.03 232.69 L 81.21 231.65 C 81.39 230.67 80.74 229.72 79.75 229.54 C 78.76 229.37 77.82 230.02 77.64 231.01 Z M 77.46 232.05 L 77.27 233.07 C 77.10 234.05 77.76 235.00 78.74 235.17 C 79.73 235.35 80.67 234.69 80.84 233.70 L 81.03 232.68 C 81.20 231.70 80.54 230.76 79.56 230.58 C 78.57 230.41 77.63 231.06 77.46 232.05 Z M 77.28 233.08 L 77.11 234.07 C 76.94 235.05 77.61 235.99 78.59 236.15 C 79.58 236.32 80.51 235.65 80.68 234.67 L 80.84 233.69 C 81.01 232.70 80.35 231.77 79.36 231.60 C 78.38 231.44 77.44 232.10 77.28 233.08 Z M 77.11 234.09 L 76.97 235.02 C 76.82 236.01 77.49 236.93 78.48 237.08 C 79.47 237.23 80.39 236.55 80.54 235.57 L 80.68 234.64 C 80.83 233.66 80.15 232.73 79.17 232.58 C 78.18 232.43 77.26 233.11 77.11 234.09 Z M 76.96 235.07 L 76.84 236.09 C 76.71 237.08 77.41 237.98 78.40 238.10 C 79.39 238.22 80.29 237.52 80.41 236.54 L 80.54 235.52 C 80.67 234.53 79.96 233.63 78.98 233.50 C 77.99 233.38 77.09 234.08 76.96 235.07 Z M 76.83 236.17 L 76.74 237.25 C 76.66 238.24 77.40 239.11 78.39 239.19 C 79.38 239.27 80.25 238.53 80.33 237.54 L 80.42 236.46 C 80.50 235.47 79.76 234.60 78.77 234.52 C 77.78 234.44 76.91 235.17 76.83 236.17 Z M 76.74 237.32 L 76.70 238.29 C 76.66 239.28 77.44 240.12 78.43 240.15 C 79.42 240.19 80.26 239.42 80.30 238.43 L 80.33 237.46 C 80.37 236.47 79.60 235.64 78.61 235.60 C 77.61 235.56 76.78 236.33 76.74 237.32 Z M 76.70 238.34 L 76.69 239.23 C 76.68 240.23 77.48 241.04 78.47 241.05 C 79.47 241.06 80.28 240.26 80.29 239.27 L 80.30 238.37 C 80.30 237.38 79.51 236.57 78.52 236.56 C 77.52 236.55 76.71 237.35 76.70 238.34 Z M 76.70 239.25 L 76.70 239.53 C 76.69 240.52 77.50 241.33 78.49 241.33 C 79.48 241.33 80.29 240.52 80.29 239.53 L 80.29 239.25 C 80.29 238.26 79.48 237.46 78.49 237.46 C 77.50 237.46 76.70 238.26 76.70 239.25 Z"
      fill="black"
      fill-rule="nonzero" /></svg>