<svg xmlns="http://www.w3.org/2000/svg" width="300" height="300" viewBox="0 0 300 300">
<path d="M 142.34 90.80 L 141.42 89.78 C 140.78 89.07 139.68 89.01 138.97 89.66 C 138.26 90.30 138.21 91.40 138.85 92.11 L 139.78 93.13 C 140.42 93.84 141.52 93.89 142.23 93.25 C 142.94 92.60 142.99 91.51 142.34 90.80 Z M 141.45 89.79 L 140.62 88.83 C 139.98 88.11 138.87 88.03 138.15 88.67 C 137.42 89.30 137.34 90.41 137.98 91.14 L 138.82 92.10 C 139.45 92.82 140.56 92.90 141.29 92.26 C 142.02 91.62 142.09 90.52 141.45 89.79 Z M 140.68 88.89 L 140.02 88.06 C 139.42 87.29 138.30 87.16 137.54 87.77 C 136.78 88.38 136.65 89.49 137.25 90.25 L 137.91 91.08 C 138.52 91.85 139.63 91.98 140.40 91.37 C 141.16 90.76 141.29 89.65 140.68 88.89 Z M 140.16 88.22 L 139.77 87.58 C 139.25 86.74 138.15 86.48 137.31 86.99 C 136.47 87.51 136.21 88.60 136.72 89.44 L 137.12 90.09 C 137.63 90.93 138.73 91.19 139.57 90.68 C 140.41 90.16 140.67 89.06 140.16 88.22 Z M 140.04 88.33 L 140.00 87.94 C 139.90 86.95 139.01 86.23 138.02 86.33 C 137.03 86.43 136.31 87.32 136.41 88.30 L 136.45 88.69 C 136.56 89.68 137.44 90.40 138.43 90.30 C 139.42 90.20 140.14 89.32 140.04 88.33 Z M 138.71 89.86 L 139.05 89.76 C 140.01 89.47 140.56 88.47 140.28 87.51 C 140.00 86.55 138.99 86.01 138.04 86.29 L 137.70 86.39 C 136.74 86.67 136.19 87.67 136.47 88.63 C 136.75 89.59 137.76 90.14 138.71 89.86 Z M 138.15 89.78 L 138.81 89.94 C 139.79 90.16 140.75 89.55 140.97 88.57 C 141.20 87.60 140.59 86.63 139.61 86.41 L 138.94 86.26 C 137.97 86.04 137.00 86.65 136.78 87.62 C 136.56 88.60 137.17 89.56 138.15 89.78 Z M 138.53 89.85 L 139.47 90.23 C 140.40 90.60 141.45 90.16 141.83 89.23 C 142.20 88.30 141.75 87.25 140.83 86.88 L 139.89 86.50 C 138.96 86.12 137.91 86.57 137.54 87.50 C 137.16 88.42 137.61 89.48 138.53 89.85 Z M 139.33 90.16 L 140.48 90.75 C 141.37 91.20 142.46 90.84 142.91 89.95 C 143.36 89.06 143.01 87.97 142.12 87.52 L 140.97 86.94 C 140.08 86.49 138.99 86.84 138.54 87.73 C 138.09 88.62 138.44 89.71 139.33 90.16 Z M 140.39 90.70 L 141.69 91.46 C 142.55 91.96 143.66 91.67 144.16 90.81 C 144.67 89.95 144.38 88.84 143.52 88.34 L 142.21 87.57 C 141.35 87.07 140.24 87.36 139.74 88.22 C 139.23 89.08 139.52 90.19 140.39 90.70 Z M 141.63 91.42 L 142.49 91.97 C 143.33 92.51 144.44 92.27 144.98 91.43 C 145.52 90.59 145.28 89.47 144.44 88.93 L 143.58 88.38 C 142.74 87.84 141.62 88.08 141.08 88.92 C 140.55 89.76 140.79 90.88 141.63 91.42 Z M 142.46 91.94 L 143.26 92.49 C 144.08 93.04 145.20 92.83 145.76 92.01 C 146.32 91.18 146.10 90.06 145.28 89.51 L 144.47 88.96 C 143.65 88.40 142.53 88.62 141.97 89.44 C 141.42 90.27 141.63 91.39 142.46 91.94 Z M 143.24 92.46 L 144.05 93.04 C 144.87 93.61 145.99 93.42 146.56 92.60 C 147.13 91.79 146.93 90.67 146.12 90.10 L 145.30 89.53 C 144.49 88.96 143.37 89.15 142.80 89.96 C 142.23 90.77 142.42 91.89 143.24 92.46 Z M 144.04 93.02 L 144.87 93.62 C 145.67 94.20 146.79 94.02 147.37 93.22 C 147.95 92.42 147.77 91.30 146.96 90.72 L 146.14 90.12 C 145.33 89.54 144.22 89.72 143.64 90.52 C 143.06 91.32 143.24 92.44 144.04 93.02 Z M 144.86 93.61 L 145.69 94.22 C 146.48 94.81 147.60 94.64 148.19 93.84 C 148.77 93.05 148.60 91.93 147.81 91.35 L 146.98 90.73 C 146.18 90.15 145.06 90.32 144.48 91.11 C 143.90 91.91 144.06 93.02 144.86 93.61 Z M 145.69 94.21 L 146.52 94.83 C 147.30 95.42 148.42 95.26 149.01 94.47 C 149.59 93.68 149.43 92.57 148.64 91.98 L 147.81 91.36 C 147.03 90.77 145.91 90.93 145.32 91.72 C 144.74 92.51 144.90 93.62 145.69 94.21 Z M 146.51 94.82 L 147.34 95.44 C 148.12 96.03 149.23 95.87 149.82 95.09 C 150.41 94.30 150.25 93.19 149.47 92.60 L 148.64 91.99 C 147.86 91.40 146.75 91.56 146.16 92.34 C 145.57 93.12 145.73 94.24 146.51 94.82 Z M 147.34 95.44 L 148.15 96.04 C 148.93 96.63 150.04 96.47 150.62 95.69 C 151.21 94.91 151.05 93.80 150.27 93.21 L 149.46 92.61 C 148.68 92.02 147.57 92.18 146.99 92.96 C 146.40 93.74 146.56 94.85 147.34 95.44 Z M 148.15 96.04 L 148.94 96.62 C 149.72 97.21 150.82 97.04 151.41 96.26 C 151.99 95.48 151.83 94.38 151.04 93.80 L 150.26 93.21 C 149.48 92.63 148.37 92.79 147.79 93.57 C 147.21 94.35 147.37 95.46 148.15 96.04 Z M 148.95 96.63 L 149.79 97.24 C 150.58 97.81 151.67 97.64 152.25 96.86 C 152.82 96.08 152.65 94.98 151.87 94.41 L 151.03 93.79 C 150.25 93.22 149.15 93.39 148.58 94.17 C 148.00 94.95 148.17 96.05 148.95 96.63 Z M 149.82 97.24 L 150.69 97.86 C 151.47 98.42 152.55 98.24 153.11 97.45 C 153.67 96.67 153.49 95.58 152.71 95.03 L 151.84 94.41 C 151.06 93.85 149.97 94.03 149.41 94.81 C 148.86 95.60 149.04 96.68 149.82 97.24 Z M 150.72 97.86 L 151.56 98.44 C 152.34 98.98 153.41 98.78 153.95 98.00 C 154.49 97.22 154.30 96.14 153.51 95.60 L 152.68 95.02 C 151.89 94.48 150.82 94.68 150.28 95.46 C 149.74 96.25 149.93 97.32 150.72 97.86 Z M 151.59 98.44 L 152.42 98.99 C 153.20 99.51 154.26 99.29 154.78 98.51 C 155.30 97.72 155.09 96.66 154.30 96.14 L 153.48 95.60 C 152.69 95.08 151.63 95.29 151.11 96.08 C 150.59 96.87 150.81 97.92 151.59 98.44 Z M 152.46 99.00 L 153.27 99.51 C 154.06 100.01 155.11 99.77 155.61 98.98 C 156.10 98.19 155.87 97.15 155.08 96.65 L 154.26 96.14 C 153.47 95.64 152.43 95.87 151.93 96.66 C 151.43 97.45 151.67 98.50 152.46 99.00 Z M 153.32 99.52 L 154.14 100.01 C 154.93 100.48 155.96 100.22 156.44 99.43 C 156.91 98.64 156.65 97.61 155.86 97.14 L 155.03 96.64 C 154.24 96.17 153.21 96.43 152.74 97.22 C 152.27 98.02 152.52 99.04 153.32 99.52 Z M 154.19 100.02 L 155.03 100.49 C 155.82 100.94 156.83 100.66 157.28 99.86 C 157.73 99.06 157.45 98.05 156.65 97.60 L 155.81 97.13 C 155.02 96.68 154.01 96.96 153.56 97.76 C 153.11 98.56 153.39 99.57 154.19 100.02 Z M 155.07 100.49 L 155.94 100.95 C 156.74 101.38 157.73 101.07 158.15 100.27 C 158.58 99.47 158.27 98.48 157.47 98.06 L 156.61 97.60 C 155.81 97.17 154.81 97.48 154.39 98.28 C 153.97 99.08 154.27 100.07 155.07 100.49 Z M 155.98 100.96 L 156.82 101.38 C 157.63 101.79 158.60 101.46 159.01 100.66 C 159.41 99.85 159.08 98.88 158.28 98.47 L 157.43 98.05 C 156.63 97.65 155.65 97.97 155.25 98.78 C 154.85 99.58 155.17 100.56 155.98 100.96 Z M 156.85 101.39 L 157.72 101.80 C 158.52 102.18 159.49 101.84 159.87 101.03 C 160.26 100.23 159.91 99.26 159.11 98.88 L 158.25 98.47 C 157.44 98.08 156.47 98.43 156.09 99.23 C 155.70 100.04 156.05 101.01 156.85 101.39 Z M 157.74 101.81 L 158.63 102.21 C 159.44 102.58 160.40 102.22 160.77 101.41 C 161.13 100.60 160.78 99.65 159.97 99.28 L 159.08 98.87 C 158.27 98.50 157.31 98.86 156.94 99.67 C 156.58 100.48 156.93 101.44 157.74 101.81 Z M 158.65 102.21 L 159.56 102.61 C 160.37 102.97 161.32 102.60 161.68 101.79 C 162.03 100.98 161.67 100.03 160.86 99.68 L 159.95 99.27 C 159.13 98.92 158.19 99.29 157.83 100.10 C 157.47 100.91 157.84 101.86 158.65 102.21 Z M 159.58 102.61 L 160.51 103.01 C 161.32 103.36 162.26 102.98 162.61 102.17 C 162.95 101.36 162.58 100.42 161.77 100.07 L 160.84 99.68 C 160.03 99.33 159.09 99.70 158.74 100.52 C 158.39 101.33 158.77 102.27 159.58 102.61 Z M 160.52 103.01 L 161.47 103.40 C 162.28 103.74 163.21 103.36 163.55 102.55 C 163.89 101.74 163.51 100.81 162.70 100.47 L 161.75 100.07 C 160.94 99.73 160.01 100.12 159.67 100.93 C 159.33 101.74 159.71 102.67 160.52 103.01 Z M 161.48 103.40 L 162.43 103.79 C 163.24 104.13 164.17 103.74 164.50 102.93 C 164.83 102.12 164.45 101.20 163.64 100.86 L 162.68 100.47 C 161.87 100.14 160.95 100.52 160.62 101.33 C 160.28 102.14 160.67 103.07 161.48 103.40 Z M 162.44 103.79 L 163.40 104.18 C 164.21 104.51 165.13 104.12 165.46 103.31 C 165.79 102.51 165.40 101.59 164.59 101.26 L 163.63 100.87 C 162.82 100.54 161.90 100.93 161.58 101.73 C 161.25 102.54 161.63 103.46 162.44 103.79 Z M 163.41 104.18 L 164.06 104.44 C 164.87 104.77 165.78 104.38 166.11 103.58 C 166.43 102.77 166.05 101.86 165.24 101.53 L 164.59 101.26 C 163.78 100.94 162.87 101.33 162.54 102.13 C 162.21 102.93 162.60 103.85 163.41 104.18 Z"
      fill="black"
      fill-rule="nonzero" /><path d="M 131.31 128.98 L 129.98 128.85 C 128.99 128.76 128.12 129.48 128.02 130.47 C 127.93 131.45 128.65 132.33 129.64 132.43 L 130.97 132.55 C 131.95 132.65 132.83 131.93 132.93 130.94 C 133.02 129.95 132.30 129.08 131.31 128.98 Z M 129.99 128.84 L 128.71 128.71 C 127.71 128.61 126.82 129.33 126.72 130.33 C 126.62 131.32 127.34 132.21 128.34 132.31 L 129.63 132.44 C 130.62 132.54 131.51 131.82 131.61 130.82 C 131.71 129.83 130.99 128.94 129.99 128.84 Z M 128.73 128.69 L 127.53 128.56 C 126.53 128.44 125.62 129.16 125.51 130.17 C 125.39 131.17 126.12 132.08 127.12 132.19 L 128.32 132.33 C 129.32 132.44 130.23 131.72 130.34 130.72 C 130.45 129.71 129.73 128.81 128.73 128.69 Z M 127.57 128.54 L 126.51 128.40 C 125.50 128.26 124.57 128.97 124.43 129.98 C 124.30 130.99 125.01 131.92 126.01 132.06 L 127.08 132.20 C 128.09 132.34 129.02 131.63 129.15 130.62 C 129.29 129.61 128.58 128.68 127.57 128.54 Z M 126.58 128.40 L 125.70 128.24 C 124.68 128.06 123.72 128.74 123.54 129.75 C 123.37 130.77 124.04 131.73 125.06 131.91 L 125.94 132.06 C 126.95 132.24 127.92 131.56 128.10 130.55 C 128.27 129.54 127.60 128.57 126.58 128.40 Z M 125.84 128.25 L 125.18 128.09 C 124.17 127.83 123.15 128.44 122.89 129.45 C 122.64 130.45 123.25 131.47 124.25 131.73 L 124.92 131.90 C 125.92 132.15 126.94 131.54 127.20 130.54 C 127.45 129.53 126.84 128.51 125.84 128.25 Z M 125.52 128.19 L 125.12 128.00 C 124.17 127.56 123.05 127.97 122.60 128.92 C 122.16 129.86 122.56 130.99 123.51 131.43 L 123.91 131.62 C 124.86 132.07 125.99 131.66 126.43 130.71 C 126.87 129.76 126.47 128.64 125.52 128.19 Z M 126.15 129.23 L 126.09 128.98 C 125.82 127.96 124.78 127.36 123.76 127.63 C 122.75 127.90 122.14 128.94 122.41 129.95 L 122.48 130.21 C 122.75 131.22 123.79 131.83 124.80 131.56 C 125.82 131.29 126.42 130.25 126.15 129.23 Z M 125.39 130.99 L 125.77 130.71 C 126.61 130.07 126.78 128.88 126.15 128.04 C 125.51 127.20 124.32 127.03 123.48 127.66 L 123.10 127.94 C 122.26 128.58 122.09 129.77 122.73 130.61 C 123.36 131.45 124.55 131.62 125.39 130.99 Z M 125.32 130.96 L 126.11 130.65 C 127.09 130.26 127.57 129.15 127.18 128.17 C 126.80 127.19 125.69 126.71 124.71 127.10 L 123.92 127.41 C 122.95 127.80 122.47 128.90 122.85 129.88 C 123.24 130.86 124.34 131.34 125.32 130.96 Z M 125.94 130.70 L 127.11 130.37 C 128.12 130.07 128.71 129.01 128.41 128.00 C 128.12 126.99 127.06 126.41 126.05 126.70 L 124.88 127.04 C 123.87 127.33 123.29 128.39 123.58 129.40 C 123.87 130.42 124.93 131.00 125.94 130.70 Z M 127.03 130.39 L 128.55 130.02 C 129.57 129.77 130.20 128.74 129.96 127.72 C 129.71 126.69 128.68 126.06 127.65 126.31 L 126.13 126.68 C 125.11 126.93 124.48 127.96 124.73 128.98 C 124.97 130.01 126.00 130.64 127.03 130.39 Z M 128.51 130.03 L 129.81 129.75 C 130.84 129.52 131.49 128.51 131.27 127.48 C 131.04 126.45 130.03 125.79 129.00 126.02 L 127.69 126.30 C 126.66 126.53 126.01 127.54 126.24 128.57 C 126.46 129.60 127.48 130.26 128.51 130.03 Z M 129.79 129.75 L 130.68 129.57 C 131.72 129.35 132.38 128.34 132.17 127.31 C 131.95 126.28 130.94 125.61 129.91 125.83 L 129.02 126.01 C 127.98 126.23 127.32 127.24 127.53 128.27 C 127.75 129.30 128.76 129.97 129.79 129.75 Z M 130.67 129.57 L 131.62 129.38 C 132.65 129.17 133.32 128.17 133.11 127.13 C 132.91 126.10 131.90 125.43 130.87 125.64 L 129.92 125.82 C 128.89 126.03 128.22 127.04 128.42 128.07 C 128.63 129.11 129.64 129.78 130.67 129.57 Z M 131.61 129.38 L 132.59 129.19 C 133.62 128.99 134.30 127.99 134.10 126.95 C 133.90 125.92 132.90 125.24 131.86 125.44 L 130.88 125.63 C 129.84 125.84 129.17 126.84 129.37 127.87 C 129.57 128.91 130.57 129.58 131.61 129.38 Z M 132.58 129.19 L 133.59 129.00 C 134.63 128.81 135.31 127.81 135.11 126.77 C 134.92 125.73 133.92 125.05 132.88 125.25 L 131.87 125.44 C 130.83 125.64 130.15 126.64 130.35 127.67 C 130.54 128.71 131.54 129.39 132.58 129.19 Z M 133.58 129.00 L 134.62 128.81 C 135.65 128.62 136.34 127.62 136.15 126.59 C 135.95 125.55 134.96 124.86 133.92 125.06 L 132.89 125.25 C 131.85 125.44 131.17 126.44 131.36 127.47 C 131.55 128.51 132.55 129.20 133.58 129.00 Z M 134.61 128.81 L 135.65 128.62 C 136.69 128.44 137.38 127.44 137.19 126.40 C 137.00 125.37 136.01 124.68 134.97 124.87 L 133.93 125.06 C 132.89 125.24 132.20 126.24 132.39 127.28 C 132.58 128.31 133.57 129.00 134.61 128.81 Z M 135.65 128.63 L 136.69 128.44 C 137.73 128.26 138.42 127.26 138.23 126.23 C 138.05 125.19 137.06 124.49 136.02 124.68 L 134.98 124.87 C 133.94 125.05 133.25 126.04 133.43 127.08 C 133.62 128.12 134.61 128.81 135.65 128.63 Z M 136.68 128.44 L 137.72 128.26 C 138.76 128.08 139.45 127.09 139.27 126.05 C 139.09 125.01 138.10 124.32 137.06 124.50 L 136.03 124.68 C 134.99 124.86 134.29 125.85 134.47 126.89 C 134.65 127.93 135.64 128.62 136.68 128.44 Z M 137.71 128.26 L 138.73 128.09 C 139.77 127.91 140.47 126.92 140.29 125.88 C 140.11 124.84 139.12 124.14 138.08 124.32 L 137.07 124.50 C 136.03 124.68 135.33 125.66 135.51 126.70 C 135.69 127.74 136.67 128.44 137.71 128.26 Z M 138.72 128.09 L 139.71 127.92 C 140.75 127.75 141.45 126.76 141.28 125.72 C 141.10 124.68 140.12 123.98 139.08 124.15 L 138.09 124.32 C 137.05 124.50 136.35 125.48 136.52 126.52 C 136.70 127.56 137.68 128.26 138.72 128.09 Z M 139.71 127.92 L 140.66 127.76 C 141.70 127.59 142.40 126.61 142.23 125.57 C 142.06 124.53 141.07 123.82 140.03 124.00 L 139.08 124.15 C 138.04 124.33 137.34 125.31 137.51 126.35 C 137.68 127.39 138.66 128.09 139.71 127.92 Z M 140.65 127.77 L 141.66 127.60 C 142.70 127.43 143.41 126.45 143.24 125.41 C 143.07 124.37 142.09 123.66 141.05 123.83 L 140.04 124.00 C 139.00 124.16 138.29 125.15 138.46 126.19 C 138.63 127.23 139.61 127.93 140.65 127.77 Z M 141.65 127.60 L 142.90 127.40 C 143.94 127.24 144.65 126.26 144.49 125.22 C 144.32 124.18 143.35 123.47 142.30 123.64 L 141.06 123.83 C 140.02 124.00 139.31 124.97 139.47 126.01 C 139.64 127.05 140.61 127.76 141.65 127.60 Z M 142.89 127.40 L 144.03 127.23 C 145.07 127.07 145.78 126.10 145.63 125.06 C 145.47 124.02 144.50 123.31 143.46 123.47 L 142.32 123.64 C 141.28 123.79 140.56 124.76 140.72 125.80 C 140.88 126.84 141.85 127.56 142.89 127.40 Z M 144.01 127.23 L 145.06 127.08 C 146.10 126.93 146.82 125.97 146.68 124.93 C 146.53 123.89 145.56 123.17 144.52 123.32 L 143.47 123.47 C 142.43 123.62 141.71 124.58 141.86 125.62 C 142.01 126.66 142.97 127.38 144.01 127.23 Z M 145.05 127.08 L 146.02 126.95 C 147.06 126.81 147.79 125.85 147.65 124.81 C 147.51 123.78 146.56 123.05 145.52 123.19 L 144.54 123.32 C 143.50 123.46 142.77 124.41 142.91 125.45 C 143.05 126.49 144.01 127.22 145.05 127.08 Z M 146.00 126.95 L 146.92 126.83 C 147.95 126.70 148.69 125.76 148.56 124.72 C 148.43 123.68 147.49 122.95 146.45 123.07 L 145.54 123.19 C 144.50 123.32 143.76 124.26 143.89 125.30 C 144.02 126.34 144.96 127.07 146.00 126.95 Z M 146.89 126.83 L 147.76 126.73 C 148.80 126.62 149.54 125.68 149.43 124.64 C 149.31 123.61 148.38 122.86 147.34 122.98 L 146.47 123.07 C 145.43 123.19 144.69 124.13 144.81 125.16 C 144.92 126.20 145.86 126.95 146.89 126.83 Z M 147.74 126.73 L 148.57 126.65 C 149.61 126.54 150.36 125.62 150.26 124.58 C 150.15 123.55 149.23 122.79 148.19 122.89 L 147.36 122.98 C 146.32 123.08 145.57 124.01 145.67 125.04 C 145.78 126.08 146.70 126.84 147.74 126.73 Z M 148.55 126.65 L 149.37 126.58 C 150.40 126.48 151.17 125.57 151.08 124.53 C 150.99 123.50 150.07 122.73 149.04 122.82 L 148.22 122.90 C 147.18 122.99 146.41 123.90 146.51 124.94 C 146.60 125.97 147.51 126.74 148.55 126.65 Z M 149.34 126.57 L 150.29 126.50 C 151.32 126.42 152.10 125.52 152.02 124.49 C 151.94 123.45 151.04 122.67 150.00 122.75 L 149.06 122.82 C 148.02 122.90 147.25 123.81 147.33 124.84 C 147.41 125.88 148.31 126.65 149.34 126.57 Z M 150.26 126.50 L 151.21 126.44 C 152.24 126.38 153.03 125.49 152.96 124.45 C 152.90 123.42 152.01 122.63 150.97 122.69 L 150.03 122.75 C 148.99 122.82 148.21 123.71 148.27 124.75 C 148.34 125.78 149.23 126.57 150.26 126.50 Z M 151.18 126.44 L 152.14 126.39 C 153.18 126.34 153.97 125.46 153.92 124.43 C 153.87 123.39 152.99 122.59 151.95 122.65 L 151.00 122.70 C 149.96 122.75 149.17 123.63 149.22 124.66 C 149.27 125.70 150.15 126.49 151.18 126.44 Z M 152.12 126.39 L 153.10 126.35 C 154.14 126.31 154.94 125.44 154.90 124.41 C 154.86 123.37 153.99 122.57 152.95 122.61 L 151.97 122.65 C 150.94 122.69 150.14 123.56 150.18 124.59 C 150.22 125.63 151.09 126.43 152.12 126.39 Z M 153.08 126.35 L 154.10 126.32 C 155.13 126.29 155.94 125.43 155.91 124.39 C 155.88 123.36 155.02 122.55 153.98 122.58 L 152.97 122.61 C 151.94 122.64 151.13 123.51 151.16 124.54 C 151.19 125.57 152.05 126.38 153.08 126.35 Z M 154.08 126.32 L 155.14 126.29 C 156.17 126.27 156.99 125.42 156.96 124.39 C 156.94 123.35 156.09 122.54 155.06 122.56 L 154.00 122.58 C 152.97 122.61 152.15 123.46 152.17 124.49 C 152.20 125.52 153.05 126.34 154.08 126.32 Z M 155.13 126.29 L 156.22 126.27 C 157.25 126.26 158.07 125.41 158.06 124.38 C 158.04 123.35 157.19 122.53 156.16 122.54 L 155.07 122.56 C 154.04 122.58 153.22 123.43 153.23 124.46 C 153.25 125.49 154.10 126.31 155.13 126.29 Z M 156.21 126.27 L 157.18 126.26 C 158.20 126.25 159.03 125.41 159.02 124.38 C 159.01 123.35 158.16 122.53 157.14 122.54 L 156.17 122.55 C 155.14 122.56 154.32 123.40 154.33 124.43 C 154.34 125.46 155.18 126.28 156.21 126.27 Z M 157.16 126.26 L 158.16 126.26 C 159.18 126.25 160.01 125.42 160.01 124.39 C 160.01 123.36 159.17 122.53 158.15 122.54 L 157.15 122.54 C 156.12 122.54 155.29 123.38 155.30 124.40 C 155.30 125.43 156.13 126.26 157.16 126.26 Z M 158.14 126.25 L 159.15 126.26 C 160.18 126.27 161.02 125.45 161.03 124.42 C 161.03 123.39 160.21 122.55 159.18 122.55 L 158.17 122.54 C 157.14 122.53 156.30 123.35 156.29 124.38 C 156.29 125.41 157.11 126.24 158.14 126.25 Z M 159.12 126.26 L 160.15 126.28 C 161.18 126.31 162.03 125.50 162.05 124.47 C 162.07 123.45 161.26 122.60 160.24 122.57 L 159.21 122.55 C 158.19 122.53 157.34 123.34 157.31 124.36 C 157.29 125.39 158.10 126.23 159.12 126.26 Z M 160.12 126.28 L 161.14 126.32 C 162.17 126.37 163.03 125.57 163.07 124.55 C 163.12 123.53 162.32 122.66 161.30 122.62 L 160.27 122.58 C 159.25 122.53 158.39 123.33 158.34 124.35 C 158.30 125.37 159.09 126.24 160.12 126.28 Z M 161.10 126.32 L 162.12 126.38 C 163.14 126.45 164.02 125.68 164.09 124.66 C 164.15 123.64 163.38 122.76 162.36 122.69 L 161.34 122.62 C 160.32 122.56 159.44 123.33 159.38 124.35 C 159.31 125.37 160.08 126.25 161.10 126.32 Z M 162.06 126.38 L 163.06 126.47 C 164.08 126.57 164.98 125.82 165.07 124.81 C 165.17 123.79 164.42 122.89 163.41 122.79 L 162.41 122.70 C 161.40 122.60 160.50 123.35 160.40 124.36 C 160.30 125.38 161.05 126.28 162.06 126.38 Z M 162.99 126.46 L 163.96 126.59 C 164.97 126.72 165.90 126.01 166.03 125.00 C 166.16 123.99 165.45 123.06 164.44 122.93 L 163.47 122.80 C 162.46 122.67 161.54 123.38 161.40 124.39 C 161.27 125.40 161.98 126.33 162.99 126.46 Z M 163.87 126.57 L 164.90 126.76 C 165.91 126.94 166.86 126.27 167.04 125.27 C 167.22 124.26 166.55 123.31 165.55 123.13 L 164.52 122.94 C 163.52 122.77 162.56 123.43 162.38 124.44 C 162.20 125.44 162.87 126.39 163.87 126.57 Z M 164.80 126.73 L 165.84 126.98 C 166.83 127.21 167.82 126.60 168.05 125.61 C 168.29 124.62 167.68 123.63 166.69 123.40 L 165.65 123.15 C 164.66 122.92 163.67 123.53 163.44 124.52 C 163.20 125.51 163.81 126.50 164.80 126.73 Z M 165.73 126.95 L 166.71 127.24 C 167.68 127.54 168.71 126.99 169.00 126.02 C 169.29 125.05 168.74 124.02 167.77 123.73 L 166.79 123.43 C 165.82 123.13 164.80 123.68 164.50 124.66 C 164.21 125.63 164.76 126.65 165.73 126.95 Z M 166.60 127.20 L 167.53 127.55 C 168.48 127.90 169.54 127.42 169.89 126.47 C 170.24 125.52 169.76 124.46 168.81 124.11 L 167.88 123.76 C 166.93 123.41 165.87 123.89 165.52 124.84 C 165.17 125.79 165.65 126.85 166.60 127.20 Z M 167.43 127.51 L 168.31 127.90 C 169.24 128.31 170.32 127.89 170.73 126.97 C 171.14 126.04 170.73 124.96 169.80 124.55 L 168.91 124.16 C 167.99 123.74 166.91 124.16 166.50 125.09 C 166.08 126.01 166.50 127.09 167.43 127.51 Z M 168.21 127.85 L 169.06 128.29 C 169.96 128.76 171.06 128.41 171.53 127.51 C 171.99 126.61 171.65 125.51 170.75 125.04 L 169.90 124.60 C 169.00 124.13 167.90 124.48 167.43 125.38 C 166.97 126.28 167.32 127.38 168.21 127.85 Z M 168.97 128.24 L 169.79 128.72 C 170.65 129.24 171.78 128.95 172.29 128.09 C 172.81 127.22 172.52 126.10 171.66 125.58 L 170.84 125.09 C 169.97 124.58 168.85 124.86 168.33 125.73 C 167.82 126.60 168.10 127.72 168.97 128.24 Z M 169.71 128.67 L 170.51 129.21 C 171.34 129.77 172.48 129.54 173.04 128.71 C 173.60 127.87 173.38 126.73 172.54 126.17 L 171.74 125.64 C 170.90 125.07 169.77 125.30 169.21 126.14 C 168.64 126.97 168.87 128.11 169.71 128.67 Z M 170.43 129.15 L 171.22 129.74 C 172.02 130.34 173.17 130.17 173.77 129.37 C 174.37 128.56 174.21 127.42 173.40 126.81 L 172.62 126.23 C 171.81 125.62 170.67 125.79 170.06 126.60 C 169.46 127.40 169.62 128.55 170.43 129.15 Z M 171.15 129.68 L 171.91 130.31 C 172.69 130.95 173.83 130.84 174.48 130.07 C 175.12 129.29 175.01 128.14 174.23 127.50 L 173.47 126.87 C 172.69 126.23 171.54 126.34 170.90 127.11 C 170.26 127.89 170.37 129.04 171.15 129.68 Z M 171.84 130.25 L 172.58 130.92 C 173.33 131.60 174.48 131.55 175.16 130.80 C 175.83 130.06 175.78 128.90 175.03 128.23 L 174.30 127.56 C 173.55 126.88 172.40 126.93 171.72 127.68 C 171.04 128.42 171.10 129.58 171.84 130.25 Z M 172.52 130.87 L 173.23 131.57 C 173.95 132.28 175.10 132.28 175.81 131.57 C 176.52 130.86 176.52 129.70 175.80 128.99 L 175.09 128.28 C 174.38 127.57 173.23 127.58 172.52 128.29 C 171.81 129.00 171.81 130.16 172.52 130.87 Z M 173.18 131.52 L 173.86 132.26 C 174.55 133.00 175.70 133.05 176.44 132.37 C 177.18 131.69 177.23 130.54 176.55 129.80 L 175.86 129.05 C 175.18 128.31 174.03 128.26 173.29 128.94 C 172.55 129.62 172.50 130.78 173.18 131.52 Z M 173.81 132.20 L 174.47 132.98 C 175.12 133.75 176.27 133.85 177.04 133.20 C 177.81 132.55 177.90 131.40 177.25 130.63 L 176.60 129.85 C 175.95 129.09 174.80 128.99 174.03 129.64 C 173.26 130.29 173.17 131.44 173.81 132.20 Z M 174.43 132.93 L 175.04 133.71 C 175.65 134.50 176.80 134.64 177.59 134.02 C 178.38 133.41 178.52 132.26 177.91 131.47 L 177.30 130.69 C 176.68 129.90 175.54 129.76 174.75 130.37 C 173.95 130.99 173.81 132.13 174.43 132.93 Z M 174.99 133.65 L 175.56 134.44 C 176.15 135.25 177.28 135.44 178.10 134.85 C 178.91 134.26 179.10 133.13 178.51 132.31 L 177.95 131.53 C 177.36 130.71 176.22 130.52 175.41 131.11 C 174.59 131.70 174.41 132.83 174.99 133.65 Z M 175.52 134.38 L 176.06 135.19 C 176.62 136.03 177.75 136.26 178.58 135.70 C 179.42 135.15 179.65 134.02 179.09 133.18 L 178.55 132.37 C 178.00 131.53 176.87 131.30 176.03 131.86 C 175.19 132.41 174.96 133.54 175.52 134.38 Z M 176.02 135.14 L 176.54 135.98 C 177.06 136.84 178.18 137.11 179.04 136.58 C 179.90 136.06 180.17 134.94 179.64 134.08 L 179.13 133.24 C 178.61 132.38 177.49 132.11 176.63 132.64 C 175.77 133.16 175.50 134.28 176.02 135.14 Z M 176.51 135.92 L 177.00 136.79 C 177.49 137.67 178.60 137.98 179.47 137.49 C 180.35 137.00 180.66 135.89 180.17 135.02 L 179.68 134.14 C 179.19 133.27 178.08 132.95 177.20 133.45 C 176.33 133.94 176.01 135.05 176.51 135.92 Z M 176.96 136.74 L 177.43 137.64 C 177.89 138.53 178.98 138.89 179.88 138.43 C 180.77 137.97 181.12 136.87 180.66 135.98 L 180.20 135.08 C 179.74 134.18 178.65 133.83 177.75 134.29 C 176.86 134.75 176.51 135.84 176.96 136.74 Z M 177.40 137.58 L 177.83 138.51 C 178.26 139.42 179.34 139.82 180.25 139.39 C 181.16 138.97 181.55 137.88 181.13 136.97 L 180.69 136.04 C 180.27 135.13 179.19 134.74 178.28 135.16 C 177.37 135.59 176.97 136.67 177.40 137.58 Z M 177.81 138.45 L 178.21 139.40 C 178.60 140.33 179.67 140.76 180.59 140.37 C 181.52 139.97 181.95 138.91 181.56 137.98 L 181.16 137.03 C 180.76 136.11 179.70 135.68 178.77 136.07 C 177.85 136.46 177.42 137.53 177.81 138.45 Z M 178.19 139.35 L 178.53 140.23 C 178.89 141.17 179.94 141.63 180.88 141.27 C 181.82 140.91 182.28 139.86 181.92 138.92 L 181.58 138.04 C 181.22 137.10 180.17 136.63 179.23 137.00 C 178.29 137.36 177.83 138.41 178.19 139.35 Z M 178.51 140.18 L 178.83 141.09 C 179.16 142.03 180.19 142.53 181.14 142.20 C 182.09 141.87 182.59 140.83 182.26 139.89 L 181.94 138.98 C 181.61 138.03 180.57 137.53 179.62 137.86 C 178.68 138.19 178.18 139.23 178.51 140.18 Z M 178.81 141.03 L 179.10 141.96 C 179.41 142.92 180.43 143.45 181.38 143.15 C 182.34 142.85 182.87 141.83 182.57 140.87 L 182.28 139.94 C 181.97 138.98 180.95 138.45 180.00 138.75 C 179.04 139.05 178.51 140.07 178.81 141.03 Z M 179.09 141.91 L 179.36 142.87 C 179.63 143.83 180.63 144.39 181.60 144.12 C 182.57 143.85 183.13 142.84 182.86 141.88 L 182.59 140.92 C 182.31 139.96 181.31 139.40 180.34 139.67 C 179.38 139.94 178.81 140.95 179.09 141.91 Z M 179.34 142.81 L 179.59 143.79 C 179.83 144.76 180.82 145.36 181.79 145.11 C 182.77 144.87 183.36 143.88 183.11 142.91 L 182.87 141.93 C 182.63 140.96 181.64 140.37 180.66 140.61 C 179.69 140.85 179.10 141.84 179.34 142.81 Z M 179.58 143.74 L 179.79 144.74 C 180.01 145.72 180.98 146.34 181.96 146.12 C 182.94 145.91 183.56 144.94 183.34 143.96 L 183.13 142.96 C 182.91 141.98 181.94 141.36 180.96 141.57 C 179.98 141.79 179.36 142.76 179.58 143.74 Z M 179.78 144.68 L 179.98 145.70 C 180.16 146.69 181.11 147.34 182.10 147.15 C 183.09 146.96 183.73 146.01 183.55 145.03 L 183.36 144.01 C 183.17 143.02 182.22 142.37 181.23 142.56 C 180.25 142.75 179.60 143.70 179.78 144.68 Z M 179.97 145.65 L 180.13 146.69 C 180.29 147.68 181.22 148.35 182.21 148.20 C 183.20 148.04 183.88 147.11 183.72 146.12 L 183.56 145.08 C 183.40 144.09 182.47 143.41 181.48 143.57 C 180.49 143.73 179.81 144.66 179.97 145.65 Z M 180.13 146.64 L 180.26 147.68 C 180.39 148.67 181.30 149.37 182.30 149.24 C 183.29 149.12 183.99 148.20 183.86 147.21 L 183.73 146.17 C 183.60 145.17 182.69 144.47 181.69 144.60 C 180.70 144.73 180.00 145.64 180.13 146.64 Z M 180.26 147.63 L 180.37 148.68 C 180.47 149.68 181.36 150.40 182.36 150.30 C 183.36 150.19 184.08 149.30 183.98 148.30 L 183.87 147.25 C 183.76 146.26 182.87 145.53 181.87 145.64 C 180.88 145.74 180.15 146.64 180.26 147.63 Z M 180.36 148.64 L 180.45 149.69 C 180.54 150.69 181.41 151.43 182.41 151.35 C 183.41 151.26 184.15 150.39 184.07 149.39 L 183.98 148.34 C 183.90 147.34 183.02 146.60 182.02 146.68 C 181.02 146.77 180.28 147.64 180.36 148.64 Z M 180.45 149.66 L 180.52 150.70 C 180.58 151.70 181.45 152.46 182.45 152.39 C 183.45 152.33 184.20 151.46 184.14 150.46 L 184.07 149.42 C 184.00 148.42 183.14 147.66 182.14 147.73 C 181.14 147.80 180.38 148.66 180.45 149.66 Z M 180.52 150.67 L 180.57 151.70 C 180.62 152.70 181.47 153.47 182.47 153.42 C 183.47 153.37 184.24 152.51 184.19 151.51 L 184.14 150.49 C 184.09 149.49 183.24 148.72 182.24 148.77 C 181.24 148.82 180.47 149.67 180.52 150.67 Z M 180.57 151.68 L 180.61 152.67 C 180.65 153.67 181.49 154.45 182.49 154.42 C 183.49 154.38 184.27 153.54 184.23 152.54 L 184.19 151.54 C 184.15 150.54 183.31 149.76 182.31 149.80 C 181.31 149.83 180.53 150.68 180.57 151.68 Z M 180.61 152.66 L 180.64 153.62 C 180.66 154.62 181.50 155.41 182.50 155.38 C 183.50 155.35 184.28 154.52 184.25 153.52 L 184.23 152.55 C 184.20 151.55 183.37 150.77 182.37 150.80 C 181.37 150.82 180.58 151.66 180.61 152.66 Z M 180.64 153.61 L 180.66 154.53 C 180.68 155.53 181.50 156.32 182.50 156.30 C 183.50 156.28 184.29 155.45 184.27 154.45 L 184.25 153.53 C 184.23 152.53 183.41 151.74 182.41 151.76 C 181.41 151.78 180.62 152.61 180.64 153.61 Z M 180.66 154.52 L 180.67 155.47 C 180.69 156.47 181.51 157.27 182.51 157.25 C 183.51 157.24 184.30 156.41 184.29 155.42 L 184.27 154.46 C 184.26 153.46 183.43 152.67 182.44 152.68 C 181.44 152.70 180.64 153.52 180.66 154.52 Z M 180.67 155.46 L 180.69 156.62 C 180.70 157.62 181.52 158.42 182.51 158.41 C 183.51 158.40 184.31 157.58 184.30 156.58 L 184.29 155.42 C 184.27 154.43 183.46 153.63 182.46 153.64 C 181.46 153.65 180.66 154.47 180.67 155.46 Z M 180.69 156.60 L 180.69 157.66 C 180.69 158.66 181.50 159.46 182.50 159.46 C 183.49 159.46 184.30 158.65 184.30 157.66 L 184.29 156.60 C 184.29 155.60 183.49 154.80 182.49 154.80 C 181.50 154.80 180.69 155.61 180.69 156.60 Z M 180.69 157.63 L 180.68 158.61 C 180.66 159.60 181.46 160.42 182.45 160.44 C 183.44 160.45 184.26 159.66 184.28 158.67 L 184.29 157.69 C 184.31 156.69 183.51 155.88 182.52 155.86 C 181.53 155.84 180.71 156.64 180.69 157.63 Z M 180.68 158.57 L 180.65 159.49 C 180.61 160.49 181.38 161.32 182.37 161.36 C 183.36 161.40 184.20 160.62 184.24 159.63 L 184.27 158.71 C 184.31 157.72 183.54 156.88 182.55 156.84 C 181.56 156.81 180.72 157.58 180.68 158.57 Z M 180.65 159.44 L 180.59 160.34 C 180.53 161.32 181.27 162.18 182.26 162.25 C 183.25 162.31 184.10 161.57 184.17 160.58 L 184.23 159.69 C 184.30 158.70 183.55 157.84 182.56 157.78 C 181.58 157.71 180.72 158.45 180.65 159.44 Z M 180.60 160.28 L 180.51 161.18 C 180.41 162.17 181.12 163.04 182.11 163.15 C 183.09 163.25 183.97 162.53 184.07 161.55 L 184.16 160.64 C 184.26 159.66 183.55 158.78 182.56 158.68 C 181.58 158.58 180.70 159.29 180.60 160.28 Z M 180.52 161.12 L 180.39 162.07 C 180.25 163.05 180.94 163.95 181.91 164.08 C 182.89 164.22 183.79 163.54 183.93 162.56 L 184.06 161.61 C 184.19 160.63 183.51 159.73 182.53 159.60 C 181.55 159.46 180.65 160.14 180.52 161.12 Z M 180.40 162.02 L 180.24 162.98 C 180.07 163.95 180.72 164.87 181.69 165.03 C 182.67 165.20 183.59 164.55 183.75 163.58 L 183.92 162.61 C 184.08 161.64 183.43 160.72 182.46 160.56 C 181.49 160.39 180.56 161.04 180.40 162.02 Z M 180.25 162.93 L 180.05 163.91 C 179.86 164.87 180.49 165.81 181.45 166.00 C 182.42 166.19 183.36 165.57 183.55 164.60 L 183.74 163.62 C 183.93 162.66 183.30 161.72 182.34 161.53 C 181.37 161.34 180.44 161.97 180.25 162.93 Z M 180.06 163.87 L 179.84 164.87 C 179.63 165.83 180.24 166.78 181.19 166.99 C 182.15 167.20 183.10 166.60 183.31 165.64 L 183.54 164.64 C 183.75 163.68 183.14 162.73 182.18 162.52 C 181.23 162.31 180.28 162.91 180.06 163.87 Z M 179.85 164.84 L 179.61 165.86 C 179.38 166.82 179.97 167.78 180.92 168.01 C 181.87 168.23 182.83 167.65 183.06 166.69 L 183.30 165.67 C 183.53 164.72 182.95 163.76 181.99 163.53 C 181.04 163.30 180.08 163.89 179.85 164.84 Z M 179.62 165.84 L 179.37 166.80 C 179.13 167.74 179.70 168.71 180.65 168.95 C 181.60 169.19 182.57 168.62 182.81 167.67 L 183.05 166.72 C 183.29 165.77 182.72 164.80 181.77 164.56 C 180.82 164.32 179.86 164.89 179.62 165.84 Z M 179.38 166.78 L 179.13 167.73 C 178.87 168.68 179.44 169.65 180.38 169.90 C 181.32 170.15 182.29 169.59 182.54 168.65 L 182.80 167.69 C 183.05 166.74 182.49 165.78 181.55 165.52 C 180.60 165.27 179.63 165.83 179.38 166.78 Z M 179.13 167.72 L 178.86 168.69 C 178.60 169.62 179.15 170.60 180.09 170.86 C 181.03 171.12 182.01 170.57 182.27 169.63 L 182.54 168.66 C 182.80 167.72 182.25 166.75 181.31 166.49 C 180.37 166.23 179.39 166.78 179.13 167.72 Z M 178.87 168.67 L 178.59 169.64 C 178.32 170.58 178.86 171.55 179.80 171.82 C 180.73 172.09 181.71 171.55 181.98 170.62 L 182.26 169.65 C 182.53 168.71 181.99 167.73 181.06 167.46 C 180.12 167.19 179.14 167.73 178.87 168.67 Z M 178.60 169.62 L 178.31 170.59 C 178.03 171.52 178.56 172.51 179.49 172.79 C 180.42 173.06 181.40 172.54 181.68 171.61 L 181.97 170.64 C 182.25 169.70 181.72 168.72 180.79 168.44 C 179.86 168.17 178.88 168.69 178.60 169.62 Z M 178.32 170.58 L 178.02 171.54 C 177.73 172.46 178.25 173.45 179.17 173.74 C 180.10 174.03 181.08 173.51 181.37 172.58 L 181.67 171.62 C 181.96 170.70 181.44 169.71 180.52 169.42 C 179.59 169.13 178.61 169.65 178.32 170.58 Z M 178.03 171.52 L 177.71 172.49 C 177.41 173.41 177.92 174.40 178.84 174.70 C 179.76 175.00 180.75 174.49 181.05 173.57 L 181.36 172.60 C 181.66 171.68 181.16 170.69 180.23 170.39 C 179.31 170.09 178.32 170.60 178.03 171.52 Z M 177.72 172.47 L 177.40 173.43 C 177.09 174.35 177.58 175.34 178.50 175.65 C 179.41 175.96 180.41 175.47 180.72 174.55 L 181.04 173.59 C 181.35 172.67 180.85 171.68 179.94 171.37 C 179.02 171.06 178.03 171.56 177.72 172.47 Z M 177.41 173.42 L 177.08 174.36 C 176.76 175.27 177.24 176.27 178.15 176.59 C 179.06 176.91 180.05 176.43 180.37 175.52 L 180.70 174.57 C 181.02 173.66 180.54 172.66 179.63 172.35 C 178.72 172.03 177.73 172.51 177.41 173.42 Z M 177.09 174.34 L 176.75 175.28 C 176.42 176.18 176.88 177.18 177.79 177.51 C 178.69 177.84 179.69 177.37 180.02 176.47 L 180.36 175.54 C 180.69 174.63 180.23 173.63 179.32 173.30 C 178.42 172.97 177.42 173.44 177.09 174.34 Z M 176.76 175.26 L 176.41 176.18 C 176.07 177.08 176.52 178.08 177.42 178.42 C 178.31 178.76 179.32 178.31 179.66 177.41 L 180.01 176.49 C 180.35 175.59 179.90 174.59 179.00 174.25 C 178.11 173.91 177.10 174.36 176.76 175.26 Z M 176.42 176.16 L 176.06 177.07 C 175.71 177.96 176.14 178.97 177.03 179.32 C 177.92 179.67 178.93 179.24 179.28 178.35 L 179.64 177.44 C 180.00 176.55 179.56 175.54 178.67 175.19 C 177.78 174.83 176.77 175.27 176.42 176.16 Z M 176.07 177.05 L 175.69 177.98 C 175.33 178.86 175.75 179.87 176.63 180.23 C 177.51 180.60 178.52 180.18 178.89 179.29 L 179.27 178.37 C 179.63 177.49 179.21 176.48 178.33 176.11 C 177.45 175.75 176.44 176.17 176.07 177.05 Z M 175.70 177.96 L 175.31 178.88 C 174.94 179.76 175.34 180.77 176.22 181.14 C 177.10 181.52 178.11 181.11 178.48 180.23 L 178.88 179.31 C 179.25 178.43 178.84 177.42 177.97 177.05 C 177.09 176.68 176.08 177.08 175.70 177.96 Z M 175.32 178.87 L 174.92 179.79 C 174.54 180.66 174.94 181.67 175.81 182.05 C 176.68 182.43 177.69 182.03 178.07 181.16 L 178.47 180.24 C 178.85 179.37 178.45 178.36 177.58 177.98 C 176.71 177.60 175.70 178.00 175.32 178.87 Z M 174.93 179.78 L 174.52 180.70 C 174.14 181.56 174.53 182.58 175.40 182.96 C 176.27 183.34 177.28 182.95 177.66 182.08 L 178.06 181.17 C 178.45 180.30 178.06 179.29 177.19 178.91 C 176.32 178.52 175.31 178.92 174.93 179.78 Z M 174.53 180.70 L 174.12 181.61 C 173.74 182.47 174.13 183.48 174.99 183.86 C 175.86 184.25 176.87 183.86 177.25 182.99 L 177.66 182.08 C 178.04 181.22 177.65 180.21 176.79 179.83 C 175.92 179.44 174.91 179.83 174.53 180.70 Z M 174.13 181.61 L 173.73 182.52 C 173.35 183.39 173.74 184.39 174.60 184.77 C 175.46 185.15 176.47 184.76 176.85 183.90 L 177.25 182.99 C 177.63 182.13 177.24 181.12 176.38 180.74 C 175.51 180.36 174.51 180.75 174.13 181.61 Z M 173.72 182.53 L 173.32 183.46 C 172.94 184.32 173.34 185.33 174.20 185.70 C 175.07 186.08 176.07 185.68 176.45 184.82 L 176.85 183.89 C 177.23 183.03 176.83 182.02 175.97 181.65 C 175.10 181.27 174.10 181.67 173.72 182.53 Z M 173.31 183.46 L 172.91 184.39 C 172.54 185.26 172.94 186.27 173.81 186.64 C 174.68 187.01 175.69 186.61 176.06 185.74 L 176.46 184.81 C 176.83 183.94 176.43 182.93 175.56 182.56 C 174.69 182.19 173.68 182.59 173.31 183.46 Z M 172.90 184.39 L 172.51 185.31 C 172.14 186.19 172.55 187.20 173.42 187.57 C 174.30 187.94 175.31 187.54 175.68 186.66 L 176.07 185.74 C 176.45 184.86 176.04 183.85 175.16 183.48 C 174.29 183.10 173.27 183.51 172.90 184.39 Z M 172.50 185.31 L 172.11 186.23 C 171.74 187.11 172.15 188.13 173.03 188.50 C 173.91 188.87 174.93 188.46 175.30 187.58 L 175.69 186.66 C 176.06 185.78 175.65 184.76 174.77 184.39 C 173.89 184.02 172.87 184.43 172.50 185.31 Z M 172.10 186.23 L 171.72 187.14 C 171.34 188.03 171.76 189.05 172.64 189.42 C 173.53 189.80 174.55 189.38 174.92 188.50 L 175.31 187.58 C 175.68 186.70 175.27 185.68 174.38 185.30 C 173.50 184.93 172.48 185.34 172.10 186.23 Z M 171.71 187.14 L 171.32 188.05 C 170.95 188.94 171.36 189.97 172.25 190.34 C 173.13 190.72 174.16 190.31 174.54 189.42 L 174.93 188.50 C 175.30 187.61 174.89 186.59 174.00 186.21 C 173.11 185.83 172.09 186.25 171.71 187.14 Z M 171.32 188.05 L 170.92 188.99 C 170.54 189.87 170.95 190.90 171.84 191.28 C 172.73 191.66 173.75 191.25 174.13 190.36 L 174.54 189.42 C 174.92 188.54 174.50 187.51 173.62 187.13 C 172.73 186.75 171.70 187.16 171.32 188.05 Z M 170.93 188.98 L 170.53 189.91 C 170.15 190.79 170.55 191.82 171.44 192.20 C 172.32 192.58 173.35 192.18 173.73 191.29 L 174.13 190.36 C 174.51 189.48 174.10 188.46 173.22 188.07 C 172.34 187.69 171.31 188.10 170.93 188.98 Z M 170.53 189.90 L 170.13 190.82 C 169.75 191.70 170.15 192.73 171.03 193.11 C 171.91 193.50 172.93 193.09 173.32 192.22 L 173.72 191.30 C 174.11 190.42 173.70 189.39 172.82 189.01 C 171.94 188.62 170.92 189.02 170.53 189.90 Z M 170.14 190.82 L 169.74 191.72 C 169.35 192.60 169.75 193.62 170.62 194.01 C 171.50 194.40 172.52 194.00 172.91 193.13 L 173.31 192.22 C 173.70 191.34 173.30 190.32 172.43 189.93 C 171.55 189.54 170.53 189.94 170.14 190.82 Z M 169.75 191.72 L 169.35 192.61 C 168.95 193.48 169.34 194.50 170.21 194.90 C 171.09 195.29 172.11 194.90 172.50 194.03 L 172.90 193.13 C 173.30 192.26 172.91 191.24 172.03 190.85 C 171.16 190.45 170.14 190.84 169.75 191.72 Z M 169.35 192.60 L 168.94 193.51 C 168.54 194.38 168.92 195.41 169.79 195.80 C 170.66 196.20 171.68 195.82 172.08 194.95 L 172.50 194.03 C 172.89 193.17 172.51 192.14 171.64 191.75 C 170.77 191.35 169.75 191.73 169.35 192.60 Z M 168.94 193.51 L 168.52 194.42 C 168.12 195.28 168.49 196.31 169.36 196.71 C 170.23 197.11 171.25 196.73 171.65 195.87 L 172.07 194.96 C 172.47 194.09 172.10 193.06 171.23 192.66 C 170.37 192.26 169.34 192.64 168.94 193.51 Z M 168.52 194.41 L 168.10 195.31 C 167.70 196.18 168.07 197.21 168.93 197.61 C 169.80 198.01 170.82 197.64 171.23 196.78 L 171.65 195.87 C 172.05 195.01 171.68 193.98 170.82 193.58 C 169.95 193.17 168.92 193.55 168.52 194.41 Z M 168.10 195.31 L 167.68 196.21 C 167.28 197.08 167.65 198.10 168.51 198.51 C 169.37 198.91 170.40 198.54 170.80 197.68 L 171.23 196.78 C 171.63 195.91 171.26 194.89 170.40 194.48 C 169.53 194.08 168.51 194.45 168.10 195.31 Z M 167.68 196.21 L 167.26 197.12 C 166.85 197.98 167.23 199.00 168.09 199.41 C 168.95 199.81 169.98 199.44 170.38 198.58 L 170.80 197.68 C 171.21 196.81 170.84 195.79 169.97 195.38 C 169.11 194.98 168.08 195.35 167.68 196.21 Z M 167.26 197.12 L 166.85 198.00 C 166.45 198.86 166.82 199.89 167.69 200.29 C 168.55 200.69 169.57 200.31 169.98 199.45 L 170.38 198.57 C 170.79 197.71 170.41 196.68 169.55 196.28 C 168.68 195.88 167.66 196.26 167.26 197.12 Z M 166.85 198.00 L 166.45 198.86 C 166.05 199.72 166.43 200.75 167.29 201.15 C 168.15 201.55 169.18 201.17 169.58 200.31 L 169.98 199.45 C 170.38 198.58 170.00 197.56 169.14 197.16 C 168.27 196.76 167.25 197.14 166.85 198.00 Z M 166.45 198.86 L 166.04 199.74 C 165.64 200.60 166.01 201.62 166.88 202.02 C 167.74 202.43 168.76 202.05 169.17 201.19 L 169.57 200.31 C 169.98 199.45 169.60 198.43 168.74 198.02 C 167.88 197.62 166.85 198.00 166.45 198.86 Z M 166.05 199.73 L 165.62 200.63 C 165.22 201.49 165.59 202.52 166.44 202.92 C 167.30 203.33 168.33 202.96 168.74 202.10 L 169.16 201.20 C 169.57 200.34 169.20 199.31 168.34 198.91 C 167.48 198.50 166.45 198.87 166.05 199.73 Z M 165.63 200.62 L 165.18 201.55 C 164.77 202.41 165.13 203.44 165.99 203.85 C 166.84 204.26 167.87 203.90 168.28 203.04 L 168.73 202.11 C 169.14 201.25 168.78 200.23 167.92 199.81 C 167.07 199.40 166.04 199.76 165.63 200.62 Z M 165.19 201.54 L 164.71 202.50 C 164.29 203.36 164.64 204.39 165.50 204.81 C 166.35 205.23 167.38 204.88 167.80 204.02 L 168.27 203.06 C 168.69 202.20 168.34 201.17 167.49 200.75 C 166.64 200.33 165.61 200.69 165.19 201.54 Z M 164.72 202.49 L 164.28 203.37 C 163.85 204.22 164.19 205.25 165.04 205.68 C 165.88 206.10 166.91 205.76 167.34 204.92 L 167.79 204.04 C 168.21 203.19 167.88 202.16 167.03 201.73 C 166.18 201.30 165.15 201.64 164.72 202.49 Z M 164.29 203.36 L 163.83 204.25 C 163.39 205.09 163.72 206.12 164.56 206.56 C 165.40 206.99 166.43 206.67 166.87 205.83 L 167.33 204.93 C 167.76 204.09 167.44 203.06 166.60 202.62 C 165.76 202.19 164.72 202.52 164.29 203.36 Z M 163.84 204.24 L 163.36 205.14 C 162.92 205.97 163.23 207.01 164.07 207.45 C 164.90 207.89 165.93 207.57 166.38 206.74 L 166.85 205.84 C 167.30 205.01 166.98 203.97 166.15 203.53 C 165.31 203.09 164.28 203.41 163.84 204.24 Z M 163.37 205.13 L 162.88 206.02 C 162.43 206.85 162.74 207.88 163.56 208.33 C 164.39 208.78 165.42 208.48 165.87 207.65 L 166.36 206.75 C 166.81 205.93 166.51 204.90 165.68 204.45 C 164.86 204.00 163.82 204.30 163.37 205.13 Z M 162.90 206.01 L 162.41 206.89 C 161.95 207.71 162.24 208.74 163.06 209.20 C 163.88 209.66 164.91 209.36 165.37 208.55 L 165.86 207.67 C 166.32 206.85 166.03 205.81 165.21 205.36 C 164.39 204.90 163.35 205.19 162.90 206.01 Z M 162.42 206.87 L 161.93 207.72 C 161.46 208.53 161.74 209.57 162.55 210.03 C 163.36 210.50 164.40 210.22 164.86 209.41 L 165.35 208.56 C 165.82 207.75 165.54 206.72 164.73 206.25 C 163.92 205.78 162.89 206.06 162.42 206.87 Z M 161.95 207.70 L 161.42 208.59 C 160.94 209.39 161.20 210.43 162.00 210.90 C 162.80 211.38 163.84 211.12 164.31 210.32 L 164.85 209.43 C 165.32 208.63 165.06 207.60 164.26 207.12 C 163.46 206.64 162.43 206.90 161.95 207.70 Z M 161.44 208.57 L 160.88 209.46 C 160.39 210.25 160.63 211.29 161.42 211.78 C 162.21 212.27 163.24 212.03 163.74 211.24 L 164.29 210.34 C 164.78 209.56 164.54 208.52 163.75 208.03 C 162.97 207.54 161.93 207.78 161.44 208.57 Z M 160.90 209.44 L 160.35 210.29 C 159.85 211.07 160.08 212.10 160.85 212.61 C 161.63 213.11 162.67 212.88 163.17 212.11 L 163.71 211.26 C 164.22 210.48 163.99 209.45 163.22 208.94 C 162.44 208.44 161.40 208.67 160.90 209.44 Z M 160.37 210.28 L 159.83 211.09 C 159.32 211.86 159.53 212.89 160.30 213.40 C 161.07 213.91 162.10 213.70 162.61 212.93 L 163.15 212.12 C 163.66 211.35 163.45 210.32 162.68 209.81 C 161.92 209.30 160.88 209.51 160.37 210.28 Z M 159.85 211.08 L 159.31 211.87 C 158.80 212.63 159.00 213.66 159.76 214.18 C 160.52 214.69 161.55 214.49 162.06 213.73 L 162.60 212.94 C 163.11 212.18 162.91 211.15 162.15 210.64 C 161.39 210.12 160.36 210.32 159.85 211.08 Z M 159.32 211.87 L 158.88 212.52 C 158.36 213.27 158.56 214.30 159.31 214.82 C 160.06 215.33 161.09 215.14 161.61 214.38 L 162.05 213.73 C 162.57 212.98 162.38 211.95 161.62 211.43 C 160.87 210.92 159.84 211.11 159.32 211.87 Z"
      fill="black"
      fill-rule="nonzero" /></svg>