<svg xmlns="http://www.w3.org/2000/svg" width="300" height="300" viewBox="0 0 300 300">
<path d="M 83.27 168.32 L 82.32 167.51 C 81.63 166.91 80.58 166.99 79.99 167.69 C 79.40 168.38 79.48 169.43 80.17 170.02 L 81.12 170.83 C 81.81 171.42 82.85 171.34 83.45 170.65 C 84.04 169.95 83.96 168.91 83.27 168.32 Z M 82.42 167.53 L 81.60 166.74 C 80.92 166.09 79.84 166.12 79.19 166.80 C 78.54 167.48 78.56 168.56 79.24 169.21 L 80.07 170.00 C 80.75 170.65 81.83 170.62 82.48 169.94 C 83.13 169.26 83.10 168.18 82.42 167.53 Z M 81.81 166.90 L 81.22 166.15 C 80.63 165.39 79.53 165.25 78.76 165.85 C 78.00 166.44 77.86 167.55 78.46 168.31 L 79.04 169.06 C 79.63 169.82 80.74 169.96 81.50 169.36 C 82.27 168.76 82.40 167.66 81.81 166.90 Z M 81.56 166.68 L 81.34 166.00 C 81.04 165.05 80.03 164.53 79.08 164.83 C 78.13 165.13 77.60 166.15 77.90 167.10 L 78.12 167.78 C 78.42 168.73 79.44 169.25 80.39 168.95 C 81.34 168.65 81.86 167.63 81.56 166.68 Z M 81.33 167.25 L 81.56 166.68 C 81.94 165.74 81.49 164.67 80.55 164.28 C 79.60 163.90 78.53 164.35 78.15 165.30 L 77.92 165.86 C 77.53 166.80 77.99 167.87 78.93 168.26 C 79.87 168.64 80.95 168.19 81.33 167.25 Z M 80.99 167.46 L 81.60 167.00 C 82.41 166.37 82.56 165.20 81.93 164.39 C 81.31 163.57 80.14 163.42 79.32 164.05 L 78.72 164.52 C 77.90 165.14 77.75 166.31 78.38 167.13 C 79.01 167.94 80.18 168.09 80.99 167.46 Z M 81.21 167.24 L 82.11 166.84 C 83.06 166.42 83.49 165.32 83.07 164.37 C 82.66 163.42 81.55 163.00 80.60 163.41 L 79.70 163.81 C 78.76 164.23 78.33 165.33 78.75 166.28 C 79.16 167.22 80.27 167.65 81.21 167.24 Z M 81.90 166.93 L 83.01 166.60 C 84.00 166.30 84.57 165.26 84.27 164.26 C 83.98 163.26 82.93 162.69 81.93 162.99 L 80.82 163.32 C 79.83 163.62 79.26 164.67 79.55 165.66 C 79.85 166.66 80.90 167.23 81.90 166.93 Z M 82.87 166.65 L 84.10 166.38 C 85.13 166.16 85.77 165.15 85.55 164.13 C 85.33 163.10 84.32 162.45 83.30 162.68 L 82.07 162.94 C 81.04 163.17 80.40 164.17 80.62 165.20 C 80.84 166.22 81.85 166.87 82.87 166.65 Z M 84.02 166.40 L 84.98 166.24 C 86.01 166.07 86.71 165.08 86.53 164.05 C 86.36 163.01 85.38 162.32 84.34 162.49 L 83.38 162.65 C 82.35 162.83 81.65 163.81 81.83 164.85 C 82.00 165.88 82.98 166.58 84.02 166.40 Z M 84.92 166.25 L 85.85 166.12 C 86.89 165.98 87.62 165.02 87.48 163.98 C 87.34 162.94 86.38 162.21 85.34 162.35 L 84.40 162.48 C 83.36 162.62 82.63 163.58 82.78 164.62 C 82.92 165.66 83.88 166.39 84.92 166.25 Z M 85.80 166.13 L 86.76 166.03 C 87.81 165.91 88.56 164.98 88.45 163.93 C 88.34 162.89 87.40 162.13 86.36 162.24 L 85.39 162.35 C 84.35 162.46 83.59 163.40 83.71 164.44 C 83.82 165.49 84.76 166.24 85.80 166.13 Z M 86.72 166.03 L 87.70 165.95 C 88.75 165.86 89.53 164.94 89.44 163.90 C 89.36 162.85 88.44 162.07 87.39 162.16 L 86.40 162.24 C 85.36 162.33 84.58 163.25 84.66 164.29 C 84.75 165.34 85.67 166.12 86.72 166.03 Z M 87.67 165.95 L 88.69 165.89 C 89.74 165.82 90.53 164.92 90.47 163.87 C 90.40 162.82 89.50 162.03 88.45 162.09 L 87.43 162.16 C 86.38 162.22 85.58 163.12 85.65 164.17 C 85.71 165.22 86.62 166.02 87.67 165.95 Z M 88.66 165.89 L 89.71 165.84 C 90.76 165.79 91.57 164.90 91.53 163.86 C 91.48 162.81 90.59 161.99 89.54 162.04 L 88.48 162.09 C 87.43 162.14 86.62 163.03 86.67 164.08 C 86.72 165.13 87.61 165.94 88.66 165.89 Z M 89.69 165.84 L 90.74 165.81 C 91.79 165.77 92.61 164.89 92.58 163.84 C 92.54 162.80 91.66 161.97 90.61 162.01 L 89.56 162.04 C 88.51 162.08 87.69 162.96 87.73 164.00 C 87.76 165.05 88.64 165.88 89.69 165.84 Z M 90.72 165.81 L 91.64 165.79 C 92.69 165.76 93.52 164.89 93.49 163.84 C 93.47 162.79 92.60 161.96 91.55 161.98 L 90.63 162.01 C 89.58 162.03 88.75 162.90 88.77 163.95 C 88.80 165.00 89.67 165.83 90.72 165.81 Z M 91.63 165.79 L 92.57 165.77 C 93.62 165.75 94.46 164.88 94.44 163.84 C 94.42 162.79 93.56 161.95 92.51 161.97 L 91.56 161.99 C 90.51 162.00 89.67 162.87 89.69 163.92 C 89.71 164.97 90.58 165.80 91.63 165.79 Z M 92.56 165.77 L 93.53 165.76 C 94.58 165.74 95.42 164.88 95.41 163.83 C 95.40 162.78 94.54 161.94 93.49 161.96 L 92.52 161.97 C 91.47 161.98 90.63 162.84 90.64 163.89 C 90.65 164.94 91.51 165.78 92.56 165.77 Z M 93.53 165.76 L 94.52 165.75 C 95.57 165.74 96.41 164.88 96.41 163.83 C 96.40 162.78 95.54 161.94 94.49 161.95 L 93.50 161.96 C 92.45 161.97 91.60 162.82 91.61 163.87 C 91.62 164.92 92.48 165.76 93.53 165.76 Z M 94.52 165.75 L 95.53 165.74 C 96.58 165.74 97.43 164.88 97.42 163.83 C 97.42 162.79 96.56 161.94 95.52 161.95 L 94.50 161.95 C 93.45 161.96 92.60 162.81 92.61 163.86 C 92.61 164.91 93.47 165.75 94.52 165.75 Z M 95.53 165.74 L 96.57 165.74 C 97.62 165.74 98.46 164.88 98.46 163.84 C 98.46 162.79 97.61 161.94 96.56 161.94 L 95.52 161.95 C 94.47 161.95 93.62 162.80 93.63 163.85 C 93.63 164.90 94.48 165.74 95.53 165.74 Z M 96.57 165.74 L 97.62 165.74 C 98.67 165.74 99.52 164.89 99.52 163.84 C 99.52 162.79 98.67 161.94 97.62 161.94 L 96.56 161.94 C 95.51 161.95 94.67 162.80 94.67 163.84 C 94.67 164.89 95.52 165.74 96.57 165.74 Z M 97.62 165.74 L 98.70 165.74 C 99.75 165.74 100.60 164.89 100.59 163.84 C 100.59 162.79 99.75 161.94 98.70 161.94 L 97.62 161.94 C 96.57 161.94 95.73 162.79 95.73 163.84 C 95.73 164.89 96.58 165.74 97.62 165.74 Z M 98.70 165.74 L 99.75 165.74 C 100.79 165.74 101.64 164.89 101.64 163.84 C 101.64 162.79 100.79 161.95 99.75 161.95 L 98.70 161.95 C 97.65 161.95 96.80 162.79 96.80 163.84 C 96.80 164.89 97.65 165.74 98.70 165.74 Z M 99.75 165.73 L 100.80 165.73 C 101.85 165.73 102.70 164.89 102.70 163.84 C 102.70 162.79 101.85 161.95 100.80 161.95 L 99.75 161.95 C 98.70 161.95 97.85 162.79 97.85 163.84 C 97.85 164.89 98.70 165.73 99.75 165.73 Z M 100.80 165.73 L 101.86 165.73 C 102.90 165.73 103.75 164.88 103.75 163.84 C 103.75 162.80 102.90 161.95 101.86 161.95 L 100.80 161.95 C 99.76 161.95 98.91 162.80 98.91 163.84 C 98.91 164.88 99.76 165.73 100.80 165.73 Z M 101.86 165.73 L 102.90 165.73 C 103.94 165.73 104.79 164.88 104.79 163.84 C 104.79 162.80 103.94 161.95 102.90 161.95 L 101.86 161.95 C 100.81 161.95 99.97 162.80 99.97 163.84 C 99.97 164.88 100.81 165.73 101.86 165.73 Z M 102.90 165.73 L 103.92 165.73 C 104.96 165.73 105.80 164.88 105.80 163.84 C 105.80 162.80 104.96 161.95 103.92 161.95 L 102.90 161.95 C 101.85 161.95 101.01 162.80 101.01 163.84 C 101.01 164.88 101.85 165.73 102.90 165.73 Z M 103.92 165.73 L 104.91 165.73 C 105.95 165.73 106.80 164.88 106.80 163.84 C 106.80 162.80 105.95 161.96 104.91 161.96 L 103.92 161.96 C 102.88 161.96 102.03 162.80 102.03 163.84 C 102.03 164.88 102.88 165.73 103.92 165.73 Z M 104.91 165.72 L 105.86 165.72 C 106.90 165.72 107.75 164.88 107.75 163.84 C 107.75 162.80 106.90 161.96 105.86 161.96 L 104.91 161.96 C 103.87 161.96 103.03 162.80 103.03 163.84 C 103.03 164.88 103.87 165.72 104.91 165.72 Z M 105.86 165.72 L 106.77 165.72 C 107.81 165.72 108.65 164.88 108.65 163.84 C 108.65 162.80 107.81 161.96 106.77 161.96 L 105.86 161.96 C 104.83 161.96 103.98 162.80 103.98 163.84 C 103.98 164.88 104.83 165.72 105.86 165.72 Z M 106.77 165.72 L 107.79 165.72 C 108.83 165.72 109.67 164.88 109.67 163.84 C 109.67 162.80 108.83 161.96 107.79 161.96 L 106.77 161.96 C 105.74 161.96 104.89 162.80 104.89 163.84 C 104.89 164.88 105.74 165.72 106.77 165.72 Z M 107.79 165.71 L 108.92 165.71 C 109.96 165.71 110.79 164.88 110.79 163.84 C 110.79 162.81 109.96 161.97 108.92 161.97 L 107.79 161.97 C 106.76 161.97 105.92 162.81 105.92 163.84 C 105.92 164.88 106.76 165.71 107.79 165.71 Z M 108.92 165.71 L 109.96 165.71 C 110.99 165.71 111.83 164.87 111.83 163.84 C 111.83 162.81 110.99 161.97 109.96 161.97 L 108.92 161.97 C 107.89 161.97 107.05 162.81 107.05 163.84 C 107.05 164.87 107.89 165.71 108.92 165.71 Z M 109.96 165.71 L 110.92 165.71 C 111.95 165.71 112.79 164.87 112.79 163.84 C 112.79 162.81 111.95 161.97 110.92 161.97 L 109.96 161.97 C 108.93 161.97 108.09 162.81 108.09 163.84 C 108.09 164.87 108.93 165.71 109.96 165.71 Z M 110.92 165.70 L 111.84 165.70 C 112.87 165.70 113.70 164.87 113.70 163.84 C 113.70 162.81 112.87 161.98 111.84 161.98 L 110.92 161.98 C 109.89 161.98 109.06 162.81 109.06 163.84 C 109.06 164.87 109.89 165.70 110.92 165.70 Z M 111.84 165.70 L 112.74 165.70 C 113.77 165.70 114.60 164.87 114.60 163.84 C 114.60 162.82 113.77 161.98 112.74 161.98 L 111.84 161.98 C 110.82 161.98 109.99 162.82 109.99 163.84 C 109.99 164.87 110.82 165.70 111.84 165.70 Z M 112.74 165.69 L 113.67 165.69 C 114.70 165.69 115.53 164.86 115.53 163.84 C 115.53 162.82 114.70 161.99 113.67 161.99 L 112.74 161.99 C 111.72 161.99 110.89 162.82 110.89 163.84 C 110.89 164.86 111.72 165.69 112.74 165.69 Z M 113.67 165.69 L 114.64 165.69 C 115.67 165.69 116.49 164.86 116.49 163.84 C 116.49 162.82 115.67 161.99 114.64 161.99 L 113.67 161.99 C 112.65 161.99 111.83 162.82 111.83 163.84 C 111.83 164.86 112.65 165.69 113.67 165.69 Z M 114.64 165.69 L 115.63 165.69 C 116.65 165.69 117.48 164.86 117.48 163.84 C 117.48 162.82 116.65 161.99 115.63 161.99 L 114.64 161.99 C 113.62 161.99 112.80 162.82 112.80 163.84 C 112.80 164.86 113.62 165.69 114.64 165.69 Z M 115.63 165.68 L 116.63 165.68 C 117.65 165.68 118.48 164.86 118.48 163.84 C 118.48 162.82 117.65 162.00 116.63 162.00 L 115.63 162.00 C 114.61 162.00 113.79 162.82 113.79 163.84 C 113.79 164.86 114.61 165.68 115.63 165.68 Z M 116.63 165.68 L 117.66 165.68 C 118.67 165.68 119.50 164.86 119.50 163.84 C 119.50 162.82 118.67 162.00 117.66 162.00 L 116.63 162.00 C 115.62 162.00 114.79 162.82 114.79 163.84 C 114.79 164.86 115.62 165.68 116.63 165.68 Z M 117.66 165.68 L 118.70 165.68 C 119.71 165.68 120.54 164.86 120.54 163.84 C 120.54 162.82 119.71 162.00 118.70 162.00 L 117.66 162.00 C 116.64 162.00 115.82 162.82 115.82 163.84 C 115.82 164.86 116.64 165.68 117.66 165.68 Z M 118.70 165.68 L 119.69 165.68 C 120.71 165.68 121.53 164.85 121.53 163.84 C 121.53 162.83 120.71 162.00 119.69 162.00 L 118.70 162.00 C 117.68 162.00 116.86 162.83 116.86 163.84 C 116.86 164.85 117.68 165.68 118.70 165.68 Z M 119.69 165.68 L 120.70 165.68 C 121.71 165.68 122.54 164.85 122.54 163.84 C 122.54 162.83 121.71 162.01 120.70 162.01 L 119.69 162.01 C 118.68 162.01 117.86 162.83 117.86 163.84 C 117.86 164.85 118.68 165.68 119.69 165.68 Z M 120.70 165.67 L 121.71 165.67 C 122.73 165.67 123.55 164.85 123.55 163.84 C 123.55 162.83 122.73 162.01 121.71 162.01 L 120.70 162.01 C 119.69 162.01 118.87 162.83 118.87 163.84 C 118.87 164.85 119.69 165.67 120.70 165.67 Z M 121.71 165.67 L 122.72 165.67 C 123.73 165.67 124.55 164.85 124.55 163.84 C 124.55 162.83 123.73 162.01 122.72 162.01 L 121.71 162.01 C 120.70 162.01 119.88 162.83 119.88 163.84 C 119.88 164.85 120.70 165.67 121.71 165.67 Z M 122.72 165.67 L 123.72 165.67 C 124.73 165.67 125.55 164.85 125.55 163.84 C 125.55 162.83 124.73 162.01 123.72 162.01 L 122.72 162.01 C 121.71 162.01 120.89 162.83 120.89 163.84 C 120.89 164.85 121.71 165.67 122.72 165.67 Z M 123.72 165.67 L 124.69 165.67 C 125.70 165.67 126.52 164.85 126.52 163.84 C 126.52 162.83 125.70 162.01 124.69 162.01 L 123.72 162.01 C 122.71 162.01 121.89 162.83 121.89 163.84 C 121.89 164.85 122.71 165.67 123.72 165.67 Z M 124.69 165.67 L 125.60 165.67 C 126.61 165.67 127.43 164.85 127.43 163.84 C 127.43 162.83 126.61 162.01 125.60 162.01 L 124.69 162.01 C 123.68 162.01 122.86 162.83 122.86 163.84 C 122.86 164.85 123.68 165.67 124.69 165.67 Z M 125.60 165.67 L 126.51 165.67 C 127.52 165.66 128.34 164.85 128.34 163.84 C 128.34 162.83 127.52 162.01 126.51 162.01 L 125.60 162.01 C 124.59 162.02 123.77 162.83 123.77 163.84 C 123.77 164.85 124.59 165.67 125.60 165.67 Z M 126.52 165.66 L 127.46 165.66 C 128.46 165.66 129.28 164.84 129.28 163.83 C 129.27 162.82 128.45 162.01 127.45 162.01 L 126.51 162.01 C 125.50 162.02 124.68 162.84 124.69 163.84 C 124.69 164.85 125.51 165.67 126.52 165.66 Z M 127.46 165.66 L 128.45 165.65 C 129.46 165.65 130.27 164.83 130.26 163.82 C 130.26 162.81 129.44 162.00 128.43 162.01 L 127.44 162.01 C 126.43 162.02 125.62 162.84 125.63 163.85 C 125.63 164.85 126.45 165.67 127.46 165.66 Z M 128.46 165.65 L 129.52 165.64 C 130.53 165.63 131.34 164.81 131.33 163.80 C 131.32 162.80 130.49 161.99 129.49 162.00 L 128.42 162.01 C 127.42 162.02 126.61 162.84 126.62 163.85 C 126.63 164.85 127.45 165.66 128.46 165.65 Z M 129.53 165.64 L 130.69 165.63 C 131.69 165.61 132.50 164.79 132.49 163.78 C 132.47 162.78 131.65 161.97 130.64 161.99 L 129.48 162.00 C 128.48 162.01 127.67 162.84 127.68 163.84 C 127.70 164.85 128.52 165.65 129.53 165.64 Z M 130.69 165.63 L 131.62 165.61 C 132.63 165.60 133.43 164.77 133.42 163.76 C 133.40 162.76 132.57 161.96 131.57 161.97 L 130.64 161.99 C 129.63 162.00 128.83 162.83 128.85 163.83 C 128.86 164.84 129.69 165.64 130.69 165.63 Z M 131.63 165.61 L 132.56 165.59 C 133.56 165.58 134.36 164.75 134.34 163.74 C 134.33 162.74 133.50 161.94 132.49 161.96 L 131.56 161.97 C 130.56 161.99 129.76 162.82 129.78 163.82 C 129.80 164.83 130.62 165.63 131.63 165.61 Z M 132.56 165.59 L 133.53 165.57 C 134.54 165.55 135.33 164.72 135.31 163.72 C 135.29 162.71 134.46 161.92 133.46 161.94 L 132.49 161.96 C 131.48 161.98 130.69 162.81 130.71 163.81 C 130.73 164.82 131.56 165.61 132.56 165.59 Z M 133.54 165.57 L 134.54 165.55 C 135.55 165.52 136.34 164.69 136.32 163.69 C 136.29 162.68 135.46 161.89 134.46 161.91 L 133.45 161.94 C 132.45 161.96 131.66 162.80 131.68 163.80 C 131.70 164.80 132.54 165.60 133.54 165.57 Z M 134.55 165.55 L 135.58 165.52 C 136.58 165.49 137.37 164.65 137.34 163.65 C 137.31 162.65 136.48 161.86 135.48 161.89 L 134.45 161.92 C 133.45 161.94 132.66 162.78 132.69 163.78 C 132.71 164.79 133.55 165.57 134.55 165.55 Z M 135.59 165.51 L 136.63 165.48 C 137.63 165.44 138.42 164.61 138.38 163.60 C 138.35 162.60 137.51 161.82 136.51 161.85 L 135.47 161.89 C 134.46 161.92 133.68 162.76 133.71 163.76 C 133.75 164.76 134.59 165.55 135.59 165.51 Z M 136.64 165.48 L 137.69 165.44 C 138.69 165.40 139.47 164.55 139.43 163.55 C 139.39 162.55 138.55 161.77 137.55 161.81 L 136.50 161.85 C 135.50 161.89 134.72 162.74 134.76 163.74 C 134.80 164.74 135.64 165.52 136.64 165.48 Z M 137.70 165.43 L 138.74 165.39 C 139.74 165.34 140.52 164.49 140.47 163.49 C 140.42 162.49 139.58 161.72 138.58 161.76 L 137.53 161.81 C 136.53 161.86 135.76 162.71 135.81 163.71 C 135.85 164.71 136.70 165.48 137.70 165.43 Z M 138.76 165.38 L 139.79 165.33 C 140.79 165.27 141.55 164.42 141.50 163.42 C 141.44 162.42 140.59 161.66 139.59 161.71 L 138.56 161.77 C 137.56 161.82 136.80 162.67 136.85 163.67 C 136.91 164.67 137.76 165.44 138.76 165.38 Z M 139.80 165.33 L 140.89 165.26 C 141.88 165.19 142.64 164.33 142.58 163.33 C 142.51 162.34 141.65 161.58 140.66 161.64 L 139.57 161.71 C 138.58 161.78 137.82 162.64 137.88 163.63 C 137.95 164.63 138.81 165.39 139.80 165.33 Z M 140.90 165.25 L 141.97 165.18 C 142.97 165.10 143.72 164.23 143.64 163.24 C 143.57 162.24 142.70 161.49 141.71 161.57 L 140.64 161.65 C 139.64 161.72 138.89 162.59 138.97 163.58 C 139.04 164.58 139.91 165.33 140.90 165.25 Z M 141.99 165.17 L 143.03 165.09 C 144.03 165.00 144.76 164.13 144.68 163.13 C 144.60 162.14 143.72 161.40 142.73 161.48 L 141.69 161.57 C 140.69 161.65 139.95 162.53 140.04 163.52 C 140.12 164.52 141.00 165.26 141.99 165.17 Z M 143.05 165.08 L 144.06 164.99 C 145.05 164.90 145.78 164.01 145.69 163.02 C 145.60 162.03 144.72 161.30 143.73 161.39 L 142.71 161.49 C 141.72 161.58 140.99 162.46 141.08 163.45 C 141.17 164.44 142.05 165.18 143.05 165.08 Z M 144.08 164.98 L 145.06 164.88 C 146.06 164.78 146.78 163.90 146.68 162.90 C 146.57 161.91 145.69 161.19 144.70 161.29 L 143.71 161.39 C 142.72 161.50 142.00 162.38 142.10 163.37 C 142.20 164.37 143.09 165.09 144.08 164.98 Z M 145.08 164.88 L 146.04 164.77 C 147.03 164.66 147.75 163.77 147.64 162.78 C 147.52 161.79 146.63 161.08 145.64 161.19 L 144.68 161.30 C 143.69 161.41 142.98 162.30 143.09 163.29 C 143.20 164.28 144.09 164.99 145.08 164.88 Z M 146.06 164.77 L 146.99 164.66 C 147.98 164.54 148.69 163.64 148.57 162.65 C 148.45 161.67 147.55 160.96 146.57 161.08 L 145.63 161.19 C 144.64 161.31 143.94 162.21 144.05 163.20 C 144.17 164.18 145.07 164.89 146.06 164.77 Z M 147.01 164.65 L 147.92 164.54 C 148.91 164.41 149.61 163.51 149.48 162.52 C 149.35 161.54 148.45 160.84 147.47 160.97 L 146.55 161.08 C 145.57 161.21 144.87 162.11 144.99 163.10 C 145.12 164.08 146.02 164.78 147.01 164.65 Z M 147.94 164.54 L 148.92 164.40 C 149.90 164.27 150.59 163.36 150.46 162.38 C 150.32 161.39 149.42 160.70 148.43 160.84 L 147.45 160.97 C 146.47 161.10 145.78 162.01 145.91 162.99 C 146.04 163.98 146.95 164.67 147.94 164.54 Z M 148.93 164.40 L 149.95 164.25 C 150.93 164.11 151.62 163.20 151.48 162.22 C 151.33 161.24 150.42 160.55 149.44 160.69 L 148.42 160.84 C 147.44 160.98 146.75 161.89 146.89 162.87 C 147.03 163.86 147.95 164.54 148.93 164.40 Z M 149.96 164.25 L 150.96 164.10 C 151.94 163.95 152.62 163.04 152.47 162.06 C 152.32 161.07 151.41 160.40 150.43 160.55 L 149.43 160.70 C 148.45 160.84 147.77 161.76 147.92 162.74 C 148.06 163.72 148.98 164.40 149.96 164.25 Z M 150.97 164.10 L 151.95 163.95 C 152.94 163.79 153.61 162.87 153.45 161.89 C 153.30 160.91 152.38 160.24 151.39 160.39 L 150.41 160.55 C 149.43 160.70 148.76 161.62 148.92 162.60 C 149.07 163.58 149.99 164.25 150.97 164.10 Z M 151.97 163.94 L 152.94 163.78 C 153.92 163.62 154.58 162.70 154.42 161.72 C 154.26 160.74 153.33 160.07 152.35 160.24 L 151.38 160.39 C 150.40 160.56 149.74 161.48 149.90 162.46 C 150.06 163.44 150.99 164.10 151.97 163.94 Z M 152.95 163.78 L 153.91 163.62 C 154.89 163.45 155.55 162.52 155.38 161.55 C 155.22 160.57 154.29 159.91 153.31 160.07 L 152.34 160.24 C 151.37 160.40 150.71 161.33 150.87 162.31 C 151.04 163.29 151.97 163.95 152.95 163.78 Z M 153.92 163.62 L 154.89 163.45 C 155.86 163.28 156.52 162.35 156.35 161.37 C 156.18 160.39 155.25 159.74 154.27 159.91 L 153.30 160.08 C 152.32 160.25 151.67 161.18 151.84 162.15 C 152.01 163.13 152.94 163.79 153.92 163.62 Z M 154.89 163.45 L 155.95 163.26 C 156.93 163.09 157.58 162.16 157.41 161.18 C 157.23 160.20 156.30 159.54 155.32 159.72 L 154.26 159.90 C 153.28 160.08 152.63 161.01 152.80 161.99 C 152.98 162.97 153.91 163.62 154.89 163.45 Z M 155.92 163.28 L 157.04 163.10 C 158.03 162.94 158.70 162.01 158.54 161.02 C 158.38 160.03 157.45 159.36 156.46 159.52 L 155.34 159.70 C 154.36 159.86 153.69 160.79 153.85 161.78 C 154.01 162.77 154.94 163.44 155.92 163.28 Z M 156.96 163.12 L 158.04 163.00 C 159.04 162.89 159.76 161.98 159.64 160.98 C 159.53 159.98 158.63 159.26 157.63 159.38 L 156.55 159.50 C 155.55 159.61 154.83 160.51 154.94 161.51 C 155.05 162.52 155.96 163.24 156.96 163.12 Z M 157.87 163.02 L 158.88 163.00 C 159.89 162.98 160.70 162.14 160.68 161.13 C 160.66 160.12 159.82 159.31 158.80 159.33 L 157.80 159.35 C 156.78 159.37 155.98 160.21 156.00 161.22 C 156.02 162.24 156.86 163.04 157.87 163.02 Z M 158.59 163.00 L 159.49 163.12 C 160.50 163.26 161.43 162.56 161.57 161.54 C 161.71 160.53 161.00 159.60 159.99 159.46 L 159.09 159.33 C 158.08 159.19 157.15 159.90 157.01 160.91 C 156.87 161.93 157.57 162.86 158.59 163.00 Z M 159.03 163.02 L 159.79 163.33 C 160.74 163.72 161.83 163.26 162.22 162.31 C 162.61 161.36 162.16 160.27 161.21 159.88 L 160.45 159.57 C 159.49 159.18 158.40 159.63 158.01 160.59 C 157.62 161.54 158.08 162.63 159.03 163.02 Z M 159.24 162.99 L 159.81 163.51 C 160.58 164.21 161.76 164.15 162.46 163.39 C 163.16 162.62 163.10 161.44 162.33 160.74 L 161.76 160.22 C 160.99 159.52 159.81 159.58 159.11 160.34 C 158.42 161.11 158.47 162.29 159.24 162.99 Z M 159.43 163.03 L 159.82 163.75 C 160.32 164.66 161.47 164.99 162.38 164.49 C 163.29 163.98 163.62 162.84 163.11 161.93 L 162.72 161.22 C 162.22 160.31 161.07 159.98 160.16 160.48 C 159.25 160.98 158.92 162.13 159.43 163.03 Z M 159.66 163.37 L 159.92 164.25 C 160.21 165.25 161.25 165.82 162.25 165.53 C 163.25 165.24 163.82 164.19 163.53 163.19 L 163.28 162.31 C 162.99 161.31 161.94 160.74 160.94 161.03 C 159.94 161.32 159.37 162.37 159.66 163.37 Z M 159.86 163.98 L 160.00 164.98 C 160.14 166.02 161.09 166.73 162.13 166.59 C 163.16 166.45 163.88 165.49 163.73 164.46 L 163.59 163.46 C 163.45 162.43 162.49 161.71 161.46 161.85 C 160.43 162.00 159.71 162.95 159.86 163.98 Z M 159.98 164.80 L 160.02 165.89 C 160.07 166.93 160.95 167.74 161.99 167.69 C 163.04 167.65 163.85 166.76 163.80 165.72 L 163.75 164.64 C 163.71 163.60 162.83 162.79 161.78 162.83 C 160.74 162.88 159.93 163.76 159.98 164.80 Z M 160.02 165.76 L 160.00 166.88 C 159.97 167.93 160.80 168.79 161.85 168.82 C 162.89 168.84 163.76 168.01 163.78 166.96 L 163.81 165.84 C 163.83 164.80 163.00 163.93 161.95 163.91 C 160.91 163.89 160.04 164.72 160.02 165.76 Z M 160.00 166.80 L 159.92 167.91 C 159.86 168.96 160.65 169.86 161.70 169.93 C 162.74 169.99 163.64 169.20 163.71 168.15 L 163.78 167.04 C 163.85 166.00 163.06 165.10 162.01 165.03 C 160.96 164.96 160.06 165.76 160.00 166.80 Z M 159.93 167.86 L 159.83 168.87 C 159.74 169.91 160.51 170.84 161.55 170.93 C 162.59 171.03 163.52 170.26 163.61 169.22 L 163.71 168.21 C 163.80 167.16 163.04 166.24 161.99 166.14 C 160.95 166.05 160.02 166.81 159.93 167.86 Z M 159.84 168.83 L 159.73 169.81 C 159.61 170.85 160.35 171.79 161.40 171.91 C 162.44 172.03 163.38 171.28 163.50 170.24 L 163.61 169.26 C 163.73 168.22 162.98 167.28 161.94 167.16 C 160.90 167.04 159.96 167.78 159.84 168.83 Z M 159.73 169.78 L 159.60 170.75 C 159.46 171.79 160.19 172.74 161.23 172.88 C 162.27 173.02 163.23 172.29 163.36 171.25 L 163.49 170.28 C 163.63 169.24 162.90 168.28 161.86 168.14 C 160.82 168.01 159.87 168.74 159.73 169.78 Z M 159.60 170.72 L 159.46 171.69 C 159.31 172.73 160.03 173.69 161.06 173.84 C 162.10 174.00 163.07 173.28 163.22 172.24 L 163.36 171.27 C 163.51 170.23 162.79 169.27 161.76 169.12 C 160.72 168.97 159.76 169.68 159.60 170.72 Z M 159.46 171.67 L 159.31 172.65 C 159.15 173.69 159.86 174.66 160.90 174.82 C 161.93 174.98 162.90 174.27 163.06 173.23 L 163.22 172.26 C 163.38 171.22 162.67 170.25 161.63 170.09 C 160.59 169.93 159.62 170.64 159.46 171.67 Z M 159.31 172.65 L 159.16 173.65 C 158.99 174.68 159.70 175.66 160.74 175.82 C 161.77 175.98 162.74 175.27 162.91 174.24 L 163.06 173.24 C 163.23 172.20 162.52 171.23 161.48 171.07 C 160.45 170.91 159.48 171.61 159.31 172.65 Z M 159.16 173.65 L 159.00 174.67 C 158.84 175.71 159.55 176.68 160.58 176.84 C 161.62 177.00 162.59 176.29 162.75 175.25 L 162.91 174.23 C 163.07 173.20 162.36 172.23 161.32 172.07 C 160.29 171.91 159.32 172.62 159.16 173.65 Z M 159.00 174.68 L 158.85 175.67 C 158.69 176.71 159.41 177.67 160.44 177.83 C 161.48 177.98 162.44 177.27 162.60 176.23 L 162.75 175.24 C 162.91 174.21 162.19 173.24 161.15 173.08 C 160.12 172.93 159.15 173.64 159.00 174.68 Z M 158.85 175.68 L 158.70 176.69 C 158.55 177.73 159.26 178.69 160.30 178.84 C 161.34 178.99 162.30 178.28 162.45 177.24 L 162.60 176.23 C 162.75 175.19 162.04 174.23 161.00 174.08 C 159.96 173.92 159.00 174.64 158.85 175.68 Z M 158.70 176.69 L 158.55 177.72 C 158.40 178.75 159.12 179.71 160.16 179.86 C 161.19 180.01 162.16 179.29 162.31 178.26 L 162.45 177.24 C 162.60 176.20 161.88 175.24 160.85 175.09 C 159.81 174.94 158.85 175.66 158.70 176.69 Z M 158.55 177.72 L 158.41 178.74 C 158.26 179.77 158.98 180.73 160.02 180.88 C 161.05 181.03 162.01 180.31 162.16 179.27 L 162.30 178.25 C 162.45 177.22 161.73 176.26 160.70 176.11 C 159.66 175.96 158.70 176.68 158.55 177.72 Z M 158.41 178.74 L 158.26 179.74 C 158.12 180.77 158.84 181.73 159.87 181.88 C 160.91 182.03 161.87 181.31 162.02 180.27 L 162.16 179.27 C 162.31 178.24 161.59 177.28 160.55 177.13 C 159.52 176.98 158.56 177.70 158.41 178.74 Z M 158.27 179.73 L 158.13 180.71 C 157.98 181.74 158.69 182.70 159.73 182.85 C 160.76 183.00 161.72 182.28 161.87 181.25 L 162.01 180.28 C 162.16 179.24 161.45 178.28 160.41 178.13 C 159.38 177.98 158.42 178.70 158.27 179.73 Z M 158.13 180.70 L 157.99 181.63 C 157.84 182.67 158.55 183.63 159.59 183.78 C 160.62 183.93 161.58 183.22 161.74 182.18 L 161.87 181.25 C 162.02 180.22 161.31 179.26 160.28 179.10 C 159.24 178.95 158.28 179.67 158.13 180.70 Z M 157.99 181.62 L 157.84 182.61 C 157.69 183.64 158.40 184.61 159.43 184.76 C 160.46 184.92 161.43 184.21 161.58 183.18 L 161.73 182.19 C 161.89 181.16 161.18 180.19 160.15 180.04 C 159.11 179.88 158.15 180.59 157.99 181.62 Z M 157.85 182.60 L 157.70 183.56 C 157.53 184.59 158.24 185.56 159.27 185.72 C 160.30 185.88 161.27 185.18 161.43 184.15 L 161.58 183.19 C 161.74 182.15 161.04 181.19 160.01 181.03 C 158.97 180.86 158.01 181.57 157.85 182.60 Z M 157.70 183.56 L 157.55 184.49 C 157.38 185.52 158.09 186.49 159.12 186.66 C 160.15 186.82 161.11 186.12 161.28 185.09 L 161.43 184.15 C 161.59 183.12 160.89 182.15 159.86 181.99 C 158.83 181.82 157.86 182.53 157.70 183.56 Z M 157.55 184.49 L 157.40 185.43 C 157.23 186.46 157.93 187.43 158.96 187.60 C 159.99 187.76 160.96 187.06 161.13 186.03 L 161.28 185.09 C 161.44 184.06 160.74 183.09 159.71 182.93 C 158.68 182.76 157.71 183.46 157.55 184.49 Z M 157.40 185.44 L 157.24 186.41 C 157.08 187.44 157.78 188.41 158.81 188.57 C 159.84 188.74 160.81 188.04 160.97 187.01 L 161.12 186.03 C 161.29 185.00 160.59 184.03 159.56 183.87 C 158.53 183.71 157.56 184.41 157.40 185.44 Z M 157.24 186.42 L 157.08 187.46 C 156.92 188.49 157.63 189.45 158.65 189.61 C 159.68 189.77 160.65 189.07 160.81 188.04 L 160.97 187.00 C 161.13 185.97 160.43 185.01 159.40 184.85 C 158.37 184.69 157.41 185.39 157.24 186.42 Z M 157.08 187.47 L 156.93 188.46 C 156.77 189.49 157.48 190.45 158.51 190.60 C 159.54 190.76 160.50 190.05 160.66 189.02 L 160.81 188.03 C 160.96 187.00 160.26 186.04 159.23 185.89 C 158.20 185.73 157.24 186.44 157.08 187.47 Z M 156.93 188.47 L 156.80 189.34 C 156.65 190.37 157.36 191.32 158.39 191.48 C 159.42 191.63 160.37 190.92 160.53 189.89 L 160.66 189.02 C 160.81 187.99 160.10 187.03 159.07 186.88 C 158.04 186.73 157.08 187.44 156.93 188.47 Z M 156.80 189.34 L 156.67 190.26 C 156.52 191.29 157.23 192.25 158.26 192.40 C 159.29 192.55 160.24 191.83 160.39 190.81 L 160.53 189.89 C 160.67 188.86 159.96 187.90 158.93 187.75 C 157.91 187.60 156.95 188.32 156.80 189.34 Z M 156.67 190.27 L 156.53 191.23 C 156.38 192.26 157.10 193.21 158.13 193.36 C 159.15 193.51 160.11 192.79 160.25 191.76 L 160.39 190.80 C 160.54 189.77 159.82 188.82 158.80 188.67 C 157.77 188.53 156.82 189.24 156.67 190.27 Z M 156.53 191.24 L 156.39 192.23 C 156.25 193.26 156.96 194.21 157.99 194.35 C 159.02 194.50 159.97 193.78 160.11 192.75 L 160.25 191.76 C 160.40 190.73 159.68 189.78 158.65 189.64 C 157.63 189.49 156.68 190.21 156.53 191.24 Z M 156.39 192.24 L 156.25 193.26 C 156.11 194.29 156.83 195.24 157.86 195.38 C 158.88 195.52 159.83 194.80 159.97 193.77 L 160.11 192.75 C 160.25 191.72 159.54 190.77 158.51 190.63 C 157.48 190.49 156.53 191.21 156.39 192.24 Z M 156.25 193.27 L 156.11 194.31 C 155.97 195.34 156.69 196.29 157.72 196.42 C 158.75 196.56 159.69 195.84 159.83 194.82 L 159.97 193.77 C 160.11 192.74 159.39 191.80 158.36 191.66 C 157.34 191.52 156.39 192.24 156.25 193.27 Z M 156.11 194.32 L 155.97 195.38 C 155.83 196.41 156.56 197.35 157.58 197.49 C 158.61 197.62 159.55 196.90 159.69 195.87 L 159.83 194.81 C 159.97 193.78 159.24 192.84 158.22 192.71 C 157.19 192.57 156.25 193.29 156.11 194.32 Z M 155.97 195.38 L 155.83 196.46 C 155.70 197.48 156.42 198.42 157.45 198.56 C 158.47 198.69 159.42 197.97 159.55 196.94 L 159.69 195.87 C 159.82 194.84 159.10 193.90 158.07 193.77 C 157.04 193.63 156.10 194.36 155.97 195.38 Z M 155.83 196.46 L 155.70 197.49 C 155.57 198.52 156.29 199.46 157.32 199.59 C 158.35 199.72 159.29 198.99 159.42 197.97 L 159.55 196.93 C 159.68 195.91 158.95 194.97 157.93 194.84 C 156.90 194.71 155.96 195.43 155.83 196.46 Z M 155.70 197.50 L 155.58 198.50 C 155.45 199.53 156.17 200.46 157.20 200.59 C 158.22 200.72 159.16 199.99 159.29 198.97 L 159.42 197.96 C 159.54 196.94 158.82 196.00 157.79 195.87 C 156.77 195.74 155.83 196.47 155.70 197.50 Z M 155.58 198.50 L 155.45 199.51 C 155.33 200.53 156.05 201.46 157.08 201.59 C 158.10 201.72 159.04 200.99 159.16 199.97 L 159.29 198.96 C 159.41 197.94 158.69 197.01 157.66 196.88 C 156.64 196.75 155.70 197.48 155.58 198.50 Z M 155.46 199.51 L 155.33 200.51 C 155.21 201.53 155.94 202.47 156.96 202.59 C 157.98 202.71 158.91 201.99 159.04 200.96 L 159.16 199.96 C 159.29 198.94 158.56 198.01 157.53 197.88 C 156.51 197.76 155.58 198.49 155.46 199.51 Z M 155.34 200.51 L 155.21 201.51 C 155.09 202.53 155.82 203.46 156.84 203.59 C 157.86 203.71 158.79 202.98 158.92 201.96 L 159.04 200.96 C 159.16 199.94 158.43 199.01 157.41 198.89 C 156.39 198.76 155.46 199.49 155.34 200.51 Z M 155.22 201.51 L 155.10 202.51 C 154.97 203.53 155.70 204.46 156.72 204.58 C 157.75 204.70 158.67 203.97 158.80 202.95 L 158.91 201.96 C 159.04 200.94 158.31 200.01 157.29 199.89 C 156.27 199.76 155.34 200.49 155.22 201.51 Z M 155.10 202.51 L 154.98 203.50 C 154.86 204.52 155.59 205.44 156.61 205.57 C 157.63 205.69 158.55 204.96 158.68 203.94 L 158.79 202.95 C 158.92 201.93 158.19 201.00 157.17 200.88 C 156.15 200.76 155.22 201.49 155.10 202.51 Z M 154.98 203.50 L 154.87 204.48 C 154.74 205.50 155.47 206.43 156.49 206.55 C 157.51 206.67 158.43 205.94 158.56 204.92 L 158.67 203.94 C 158.79 202.92 158.07 202.00 157.05 201.87 C 156.03 201.75 155.10 202.48 154.98 203.50 Z M 154.87 204.48 L 154.75 205.46 C 154.63 206.48 155.36 207.40 156.37 207.52 C 157.39 207.65 158.31 206.92 158.44 205.90 L 158.55 204.92 C 158.68 203.91 157.95 202.98 156.93 202.86 C 155.91 202.74 154.99 203.47 154.87 204.48 Z M 154.75 205.46 L 154.64 206.44 C 154.51 207.45 155.24 208.38 156.26 208.50 C 157.27 208.62 158.19 207.90 158.32 206.88 L 158.43 205.90 C 158.56 204.89 157.83 203.96 156.81 203.84 C 155.80 203.72 154.88 204.44 154.75 205.46 Z M 154.64 206.43 L 154.52 207.43 C 154.40 208.44 155.12 209.36 156.13 209.49 C 157.15 209.61 158.07 208.89 158.19 207.87 L 158.31 206.88 C 158.44 205.87 157.71 204.94 156.70 204.82 C 155.68 204.70 154.76 205.42 154.64 206.43 Z M 154.52 207.42 L 154.40 208.41 C 154.28 209.42 155.00 210.34 156.01 210.47 C 157.02 210.59 157.95 209.87 158.07 208.86 L 158.19 207.87 C 158.32 206.86 157.60 205.94 156.58 205.81 C 155.57 205.69 154.65 206.41 154.52 207.42 Z M 154.40 208.40 L 154.28 209.39 C 154.15 210.40 154.87 211.32 155.88 211.45 C 156.90 211.58 157.82 210.86 157.94 209.85 L 158.07 208.86 C 158.19 207.85 157.48 206.93 156.46 206.80 C 155.45 206.67 154.53 207.39 154.40 208.40 Z M 154.28 209.38 L 154.16 210.36 C 154.03 211.37 154.74 212.30 155.75 212.43 C 156.76 212.56 157.69 211.84 157.82 210.83 L 157.94 209.85 C 158.07 208.84 157.36 207.92 156.35 207.79 C 155.34 207.66 154.41 208.37 154.28 209.38 Z M 154.16 210.36 L 154.03 211.34 C 153.90 212.35 154.61 213.28 155.62 213.41 C 156.63 213.54 157.55 212.83 157.68 211.82 L 157.81 210.84 C 157.95 209.83 157.24 208.90 156.23 208.77 C 155.22 208.64 154.29 209.35 154.16 210.36 Z M 154.03 211.33 L 153.90 212.32 C 153.76 213.33 154.47 214.26 155.48 214.39 C 156.48 214.53 157.41 213.82 157.55 212.82 L 157.68 211.83 C 157.82 210.82 157.11 209.89 156.10 209.76 C 155.10 209.62 154.17 210.33 154.03 211.33 Z M 153.90 212.31 L 153.76 213.31 C 153.62 214.31 154.32 215.24 155.33 215.38 C 156.34 215.52 157.27 214.82 157.41 213.82 L 157.54 212.82 C 157.69 211.82 156.98 210.89 155.98 210.75 C 154.97 210.61 154.04 211.31 153.90 212.31 Z M 153.77 213.30 L 153.62 214.30 C 153.48 215.31 154.17 216.24 155.18 216.38 C 156.18 216.53 157.11 215.83 157.26 214.83 L 157.40 213.83 C 157.55 212.82 156.85 211.89 155.85 211.74 C 154.84 211.60 153.91 212.30 153.77 213.30 Z M 153.63 214.29 L 153.47 215.30 C 153.32 216.31 154.01 217.24 155.02 217.39 C 156.02 217.54 156.95 216.85 157.10 215.85 L 157.25 214.84 C 157.40 213.83 156.71 212.90 155.71 212.75 C 154.71 212.60 153.78 213.29 153.63 214.29 Z M 153.48 215.29 L 153.32 216.33 C 153.16 217.33 153.85 218.27 154.85 218.42 C 155.85 218.58 156.78 217.90 156.94 216.90 L 157.10 215.86 C 157.25 214.86 156.57 213.92 155.57 213.77 C 154.57 213.61 153.63 214.29 153.48 215.29 Z M 153.32 216.32 L 153.15 217.37 C 152.99 218.36 153.67 219.30 154.67 219.46 C 155.67 219.63 156.61 218.95 156.77 217.95 L 156.93 216.91 C 157.10 215.91 156.42 214.97 155.42 214.81 C 154.42 214.64 153.48 215.32 153.32 216.32 Z M 153.15 217.36 L 152.98 218.40 C 152.81 219.39 153.49 220.34 154.48 220.50 C 155.48 220.67 156.42 220.00 156.59 219.00 L 156.76 217.96 C 156.93 216.96 156.26 216.02 155.26 215.85 C 154.26 215.69 153.32 216.36 153.15 217.36 Z M 152.98 218.39 L 152.81 219.42 C 152.63 220.41 153.30 221.36 154.29 221.53 C 155.29 221.70 156.23 221.04 156.41 220.04 L 156.59 219.01 C 156.76 218.01 156.09 217.07 155.10 216.90 C 154.10 216.72 153.16 217.39 152.98 218.39 Z M 152.81 219.41 L 152.63 220.42 C 152.45 221.41 153.11 222.36 154.10 222.54 C 155.09 222.72 156.04 222.06 156.22 221.06 L 156.40 220.05 C 156.58 219.06 155.92 218.11 154.93 217.93 C 153.94 217.75 152.99 218.41 152.81 219.41 Z M 152.63 220.41 L 152.45 221.39 C 152.26 222.38 152.91 223.34 153.91 223.52 C 154.90 223.71 155.85 223.05 156.03 222.06 L 156.22 221.08 C 156.40 220.09 155.75 219.13 154.76 218.95 C 153.77 218.76 152.82 219.42 152.63 220.41 Z M 152.45 221.38 L 152.27 222.33 C 152.07 223.32 152.72 224.28 153.71 224.47 C 154.70 224.66 155.65 224.02 155.84 223.03 L 156.03 222.08 C 156.22 221.09 155.58 220.13 154.59 219.94 C 153.60 219.75 152.64 220.39 152.45 221.38 Z M 152.27 222.32 L 152.08 223.23 C 151.88 224.21 152.52 225.18 153.51 225.38 C 154.49 225.58 155.46 224.94 155.66 223.95 L 155.84 223.04 C 156.04 222.06 155.40 221.09 154.42 220.89 C 153.43 220.69 152.47 221.33 152.27 222.32 Z M 152.09 223.21 L 151.91 224.07 C 151.70 225.05 152.32 226.02 153.31 226.23 C 154.29 226.44 155.26 225.81 155.47 224.83 L 155.65 223.97 C 155.86 222.99 155.23 222.02 154.25 221.81 C 153.27 221.60 152.30 222.23 152.09 223.21 Z M 151.91 224.05 L 151.66 225.16 C 151.44 226.14 152.05 227.11 153.03 227.33 C 154.01 227.56 154.98 226.94 155.21 225.97 L 155.46 224.86 C 155.68 223.88 155.07 222.90 154.09 222.68 C 153.11 222.45 152.14 223.07 151.91 224.05 Z M 151.67 225.12 L 151.41 226.17 C 151.17 227.14 151.76 228.13 152.73 228.37 C 153.70 228.62 154.69 228.02 154.93 227.05 L 155.20 226.00 C 155.44 225.03 154.85 224.04 153.87 223.80 C 152.90 223.56 151.91 224.15 151.67 225.12 Z M 151.42 226.13 L 151.15 227.10 C 150.89 228.06 151.46 229.06 152.42 229.33 C 153.39 229.59 154.39 229.03 154.65 228.06 L 154.92 227.09 C 155.19 226.13 154.62 225.13 153.65 224.86 C 152.69 224.60 151.69 225.16 151.42 226.13 Z M 151.17 227.05 L 150.89 227.96 C 150.60 228.92 151.14 229.93 152.10 230.22 C 153.06 230.51 154.07 229.97 154.36 229.02 L 154.64 228.11 C 154.93 227.15 154.39 226.14 153.43 225.85 C 152.47 225.55 151.46 226.09 151.17 227.05 Z M 150.91 227.91 L 150.62 228.79 C 150.30 229.74 150.81 230.76 151.76 231.08 C 152.71 231.40 153.74 230.88 154.05 229.94 L 154.34 229.06 C 154.66 228.12 154.15 227.09 153.20 226.77 C 152.25 226.45 151.23 226.97 150.91 227.91 Z M 150.64 228.74 L 150.32 229.60 C 149.98 230.54 150.47 231.58 151.40 231.92 C 152.34 232.26 153.38 231.78 153.72 230.84 L 154.03 229.98 C 154.38 229.04 153.89 228.00 152.95 227.66 C 152.02 227.32 150.98 227.80 150.64 228.74 Z M 150.34 229.56 L 149.99 230.46 C 149.63 231.38 150.08 232.43 151.01 232.80 C 151.94 233.16 152.99 232.70 153.35 231.77 L 153.70 230.88 C 154.07 229.95 153.61 228.90 152.68 228.54 C 151.75 228.17 150.70 228.63 150.34 229.56 Z M 150.01 230.41 L 149.62 231.32 C 149.23 232.24 149.65 233.30 150.57 233.69 C 151.49 234.09 152.55 233.66 152.94 232.74 L 153.33 231.82 C 153.72 230.91 153.30 229.85 152.38 229.45 C 151.47 229.06 150.40 229.49 150.01 230.41 Z M 149.65 231.25 L 149.22 232.16 C 148.79 233.06 149.17 234.14 150.06 234.57 C 150.96 235.00 152.04 234.62 152.47 233.72 L 152.91 232.81 C 153.34 231.91 152.96 230.84 152.06 230.41 C 151.16 229.97 150.08 230.35 149.65 231.25 Z M 149.26 232.07 L 148.78 232.96 C 148.30 233.83 148.62 234.93 149.49 235.41 C 150.36 235.89 151.46 235.57 151.94 234.70 L 152.42 233.81 C 152.90 232.94 152.59 231.84 151.71 231.36 C 150.84 230.88 149.74 231.20 149.26 232.07 Z M 148.84 232.85 L 148.30 233.69 C 147.76 234.53 148.00 235.64 148.84 236.18 C 149.67 236.72 150.79 236.48 151.33 235.65 L 151.87 234.81 C 152.41 233.97 152.17 232.85 151.34 232.31 C 150.50 231.77 149.38 232.01 148.84 232.85 Z M 148.39 233.56 L 147.78 234.34 C 147.17 235.13 147.31 236.26 148.10 236.87 C 148.88 237.48 150.01 237.34 150.63 236.56 L 151.24 235.77 C 151.85 234.99 151.71 233.86 150.92 233.25 C 150.13 232.64 149.00 232.78 148.39 233.56 Z M 147.91 234.20 L 147.23 234.90 C 146.54 235.62 146.57 236.76 147.28 237.45 C 148.00 238.14 149.14 238.12 149.83 237.40 L 150.50 236.70 C 151.19 235.98 151.17 234.84 150.45 234.15 C 149.74 233.46 148.60 233.49 147.91 234.20 Z M 147.38 234.77 L 146.64 235.39 C 145.88 236.02 145.77 237.16 146.41 237.92 C 147.05 238.68 148.18 238.79 148.94 238.15 L 149.68 237.53 C 150.45 236.90 150.55 235.76 149.91 235.00 C 149.28 234.24 148.14 234.13 147.38 234.77 Z M 146.79 235.27 L 145.98 235.81 C 145.16 236.36 144.94 237.48 145.49 238.31 C 146.04 239.13 147.15 239.35 147.98 238.80 L 148.79 238.26 C 149.61 237.71 149.84 236.60 149.29 235.77 C 148.74 234.95 147.62 234.72 146.79 235.27 Z M 146.15 235.72 L 145.27 236.18 C 144.39 236.64 144.06 237.73 144.52 238.61 C 144.98 239.48 146.06 239.82 146.94 239.36 L 147.82 238.90 C 148.69 238.44 149.03 237.35 148.57 236.47 C 148.11 235.60 147.02 235.26 146.15 235.72 Z M 145.43 236.11 L 144.49 236.49 C 143.57 236.87 143.13 237.91 143.50 238.83 C 143.88 239.74 144.92 240.19 145.84 239.81 L 146.78 239.43 C 147.70 239.06 148.14 238.01 147.76 237.10 C 147.39 236.18 146.35 235.74 145.43 236.11 Z M 144.64 236.44 L 143.64 236.74 C 142.69 237.03 142.16 238.03 142.45 238.98 C 142.73 239.92 143.73 240.46 144.68 240.17 L 145.68 239.87 C 146.63 239.58 147.16 238.58 146.88 237.63 C 146.59 236.69 145.59 236.15 144.64 236.44 Z M 143.78 236.71 L 142.79 236.92 C 141.83 237.13 141.22 238.08 141.42 239.05 C 141.63 240.01 142.58 240.62 143.55 240.42 L 144.53 240.20 C 145.50 240.00 146.11 239.05 145.90 238.08 C 145.70 237.12 144.75 236.50 143.78 236.71 Z M 142.91 236.91 L 141.92 237.05 C 140.95 237.20 140.28 238.10 140.42 239.08 C 140.57 240.05 141.47 240.72 142.45 240.58 L 143.43 240.43 C 144.40 240.29 145.08 239.38 144.93 238.41 C 144.79 237.44 143.88 236.76 142.91 236.91 Z M 142.01 237.05 L 141.00 237.15 C 140.03 237.24 139.31 238.11 139.41 239.09 C 139.50 240.06 140.37 240.78 141.35 240.68 L 142.36 240.58 C 143.33 240.49 144.05 239.62 143.95 238.65 C 143.86 237.67 142.99 236.96 142.01 237.05 Z M 141.07 237.15 L 140.05 237.21 C 139.08 237.26 138.33 238.10 138.39 239.07 C 138.44 240.05 139.28 240.79 140.25 240.74 L 141.27 240.68 C 142.25 240.62 143.00 239.79 142.94 238.81 C 142.88 237.84 142.05 237.09 141.07 237.15 Z M 140.11 237.21 L 139.09 237.24 C 138.12 237.26 137.35 238.07 137.37 239.05 C 137.40 240.02 138.21 240.79 139.18 240.76 L 140.20 240.73 C 141.17 240.71 141.94 239.90 141.91 238.93 C 141.89 237.95 141.08 237.19 140.11 237.21 Z M 139.13 237.24 L 138.13 237.25 C 137.16 237.25 136.38 238.04 136.38 239.01 C 136.38 239.98 137.17 240.76 138.14 240.76 L 139.14 240.76 C 140.11 240.75 140.90 239.96 140.89 238.99 C 140.89 238.02 140.10 237.24 139.13 237.24 Z M 138.15 237.25 L 137.19 237.24 C 136.22 237.23 135.43 238.01 135.42 238.97 C 135.41 239.94 136.18 240.73 137.15 240.74 L 138.12 240.75 C 139.08 240.76 139.87 239.99 139.89 239.02 C 139.90 238.06 139.12 237.26 138.15 237.25 Z M 137.20 237.25 L 136.19 237.23 C 135.23 237.21 134.43 237.97 134.41 238.94 C 134.39 239.90 135.16 240.69 136.12 240.71 L 137.13 240.73 C 138.09 240.75 138.89 239.99 138.91 239.03 C 138.93 238.07 138.16 237.27 137.20 237.25 Z M 136.21 237.24 L 135.22 237.21 C 134.27 237.18 133.47 237.93 133.44 238.88 C 133.40 239.83 134.15 240.63 135.11 240.66 L 136.09 240.70 C 137.05 240.73 137.85 239.98 137.88 239.03 C 137.91 238.08 137.16 237.28 136.21 237.24 Z M 135.26 237.23 L 134.29 237.17 C 133.35 237.12 132.54 237.84 132.49 238.79 C 132.43 239.73 133.16 240.54 134.10 240.60 L 135.07 240.65 C 136.01 240.70 136.82 239.98 136.88 239.03 C 136.93 238.09 136.20 237.28 135.26 237.23 Z M 134.34 237.19 L 133.37 237.11 C 132.44 237.03 131.62 237.72 131.54 238.66 C 131.46 239.59 132.15 240.42 133.09 240.50 L 134.05 240.58 C 134.99 240.66 135.81 239.96 135.89 239.03 C 135.97 238.09 135.28 237.27 134.34 237.19 Z M 133.43 237.13 L 132.45 237.01 C 131.52 236.90 130.68 237.56 130.57 238.48 C 130.46 239.41 131.12 240.25 132.05 240.36 L 133.03 240.48 C 133.96 240.59 134.80 239.93 134.91 239.00 C 135.02 238.08 134.36 237.24 133.43 237.13 Z M 132.51 237.03 L 131.48 236.87 C 130.57 236.73 129.71 237.35 129.57 238.26 C 129.42 239.18 130.05 240.03 130.96 240.18 L 131.99 240.34 C 132.90 240.48 133.75 239.86 133.90 238.94 C 134.04 238.03 133.42 237.18 132.51 237.03 Z M 131.54 236.89 L 130.57 236.70 C 129.67 236.53 128.80 237.12 128.62 238.02 C 128.45 238.92 129.04 239.79 129.94 239.97 L 130.90 240.15 C 131.81 240.33 132.68 239.74 132.85 238.84 C 133.03 237.94 132.44 237.07 131.54 236.89 Z M 130.62 236.72 L 129.65 236.51 C 128.76 236.31 127.88 236.87 127.68 237.76 C 127.48 238.65 128.04 239.54 128.93 239.74 L 129.89 239.95 C 130.79 240.15 131.67 239.59 131.87 238.70 C 132.07 237.81 131.51 236.92 130.62 236.72 Z M 129.69 236.52 L 128.71 236.27 C 127.82 236.05 126.93 236.59 126.71 237.47 C 126.49 238.36 127.02 239.25 127.91 239.47 L 128.89 239.72 C 129.78 239.94 130.67 239.40 130.89 238.52 C 131.11 237.64 130.58 236.74 129.69 236.52 Z M 128.74 236.29 L 127.75 236.02 C 126.87 235.78 125.97 236.29 125.73 237.17 C 125.49 238.04 126.01 238.95 126.88 239.19 L 127.87 239.46 C 128.75 239.70 129.65 239.18 129.89 238.31 C 130.13 237.43 129.62 236.53 128.74 236.29 Z M 127.78 236.03 L 126.80 235.74 C 125.93 235.48 125.02 235.98 124.76 236.84 C 124.50 237.71 125.00 238.62 125.86 238.88 L 126.85 239.17 C 127.71 239.43 128.63 238.93 128.88 238.07 C 129.14 237.20 128.65 236.29 127.78 236.03 Z M 126.83 235.76 L 125.86 235.45 C 125.01 235.17 124.09 235.64 123.81 236.50 C 123.54 237.36 124.01 238.28 124.87 238.55 L 125.83 238.86 C 126.69 239.14 127.61 238.66 127.88 237.81 C 128.16 236.95 127.68 236.03 126.83 235.76 Z M 125.89 235.47 L 124.97 235.15 C 124.12 234.85 123.20 235.30 122.90 236.15 C 122.61 237.00 123.06 237.92 123.91 238.21 L 124.84 238.53 C 125.68 238.83 126.61 238.38 126.90 237.53 C 127.19 236.68 126.74 235.76 125.89 235.47 Z M 125.00 235.17 L 124.05 234.81 C 123.21 234.49 122.28 234.92 121.97 235.76 C 121.65 236.59 122.08 237.52 122.92 237.84 L 123.87 238.19 C 124.71 238.51 125.64 238.08 125.95 237.25 C 126.27 236.41 125.84 235.48 125.00 235.17 Z M 124.10 234.83 L 123.16 234.45 C 122.34 234.11 121.39 234.50 121.06 235.32 C 120.72 236.14 121.11 237.08 121.93 237.42 L 122.87 237.81 C 123.69 238.15 124.63 237.76 124.97 236.94 C 125.31 236.11 124.92 235.17 124.10 234.83 Z M 123.22 234.48 L 122.33 234.07 C 121.52 233.70 120.57 234.05 120.20 234.85 C 119.83 235.65 120.18 236.61 120.98 236.98 L 121.87 237.39 C 122.67 237.76 123.63 237.41 124.00 236.61 C 124.37 235.80 124.02 234.85 123.22 234.48 Z M 122.39 234.11 L 121.53 233.66 C 120.75 233.26 119.79 233.56 119.38 234.34 C 118.97 235.12 119.28 236.08 120.06 236.49 L 120.92 236.94 C 121.70 237.34 122.66 237.04 123.07 236.26 C 123.47 235.48 123.17 234.52 122.39 234.11 Z M 121.60 233.71 L 120.76 233.21 C 120.00 232.77 119.03 233.02 118.59 233.78 C 118.14 234.54 118.40 235.51 119.15 235.95 L 119.99 236.44 C 120.75 236.89 121.72 236.63 122.16 235.88 C 122.61 235.12 122.35 234.15 121.60 233.71 Z M 120.82 233.26 L 119.98 232.71 C 119.25 232.23 118.27 232.44 117.80 233.17 C 117.32 233.90 117.52 234.88 118.25 235.35 L 119.09 235.90 C 119.82 236.38 120.80 236.18 121.28 235.45 C 121.75 234.72 121.55 233.74 120.82 233.26 Z M 120.04 232.76 L 119.25 232.19 C 118.54 231.68 117.56 231.84 117.05 232.54 C 116.54 233.24 116.70 234.23 117.40 234.74 L 118.20 235.31 C 118.90 235.82 119.88 235.66 120.39 234.95 C 120.90 234.25 120.74 233.27 120.04 232.76 Z M 119.29 232.22 L 118.56 231.65 C 117.87 231.12 116.89 231.24 116.36 231.93 C 115.82 232.61 115.95 233.60 116.63 234.13 L 117.36 234.70 C 118.05 235.23 119.03 235.11 119.56 234.43 C 120.10 233.74 119.97 232.75 119.29 232.22 Z M 118.59 231.68 L 117.85 231.07 C 117.18 230.52 116.19 230.62 115.64 231.28 C 115.09 231.95 115.18 232.94 115.85 233.49 L 116.60 234.10 C 117.27 234.65 118.26 234.56 118.81 233.89 C 119.36 233.22 119.26 232.23 118.59 231.68 Z M 117.87 231.09 L 117.11 230.44 C 116.46 229.88 115.47 229.96 114.90 230.61 C 114.34 231.27 114.42 232.26 115.08 232.82 L 115.83 233.47 C 116.49 234.03 117.48 233.96 118.04 233.30 C 118.60 232.64 118.53 231.65 117.87 231.09 Z M 117.13 230.46 L 116.37 229.79 C 115.72 229.21 114.73 229.27 114.16 229.92 C 113.58 230.57 113.65 231.56 114.29 232.13 L 115.06 232.81 C 115.71 233.38 116.70 233.32 117.27 232.67 C 117.84 232.02 117.78 231.03 117.13 230.46 Z M 116.38 229.80 L 115.61 229.10 C 114.97 228.52 113.98 228.57 113.40 229.21 C 112.82 229.86 112.87 230.85 113.51 231.42 L 114.28 232.12 C 114.92 232.70 115.91 232.65 116.49 232.01 C 117.07 231.37 117.02 230.38 116.38 229.80 Z M 115.62 229.11 L 114.84 228.40 C 114.21 227.82 113.22 227.86 112.63 228.50 C 112.05 229.13 112.09 230.12 112.73 230.71 L 113.50 231.42 C 114.14 232.00 115.13 231.96 115.71 231.32 C 116.30 230.68 116.25 229.69 115.62 229.11 Z M 114.84 228.41 L 114.12 227.74 C 113.48 227.15 112.50 227.19 111.91 227.82 C 111.33 228.46 111.37 229.45 112.00 230.03 L 112.73 230.70 C 113.36 231.29 114.35 231.25 114.93 230.61 C 115.52 229.98 115.48 228.99 114.84 228.41 Z"
      fill="black"
      fill-rule="nonzero" /><path d="M 141.36 102.07 L 140.86 102.86 C 140.36 103.66 140.60 104.73 141.41 105.24 C 142.22 105.75 143.29 105.50 143.80 104.69 L 144.29 103.91 C 144.80 103.10 144.55 102.03 143.74 101.52 C 142.93 101.01 141.87 101.26 141.36 102.07 Z M 140.83 102.85 L 140.34 103.65 C 139.83 104.48 140.09 105.56 140.92 106.07 C 141.74 106.58 142.83 106.32 143.34 105.50 L 143.83 104.70 C 144.34 103.87 144.08 102.78 143.25 102.28 C 142.42 101.77 141.34 102.02 140.83 102.85 Z M 140.30 103.66 L 139.81 104.48 C 139.31 105.33 139.59 106.43 140.44 106.93 C 141.29 107.44 142.39 107.15 142.89 106.30 L 143.38 105.48 C 143.88 104.63 143.60 103.54 142.75 103.03 C 141.90 102.53 140.80 102.81 140.30 103.66 Z M 139.76 104.51 L 139.29 105.36 C 138.80 106.23 139.12 107.34 140.00 107.83 C 140.87 108.32 141.98 108.01 142.47 107.13 L 142.94 106.28 C 143.43 105.40 143.12 104.29 142.24 103.80 C 141.36 103.31 140.25 103.63 139.76 104.51 Z M 139.24 105.40 L 138.78 106.29 C 138.31 107.19 138.67 108.31 139.57 108.78 C 140.48 109.24 141.60 108.89 142.06 107.98 L 142.52 107.09 C 142.99 106.18 142.64 105.07 141.73 104.60 C 140.82 104.13 139.71 104.49 139.24 105.40 Z M 138.72 106.34 L 138.28 107.28 C 137.84 108.22 138.24 109.34 139.18 109.78 C 140.12 110.22 141.24 109.81 141.68 108.87 L 142.12 107.93 C 142.56 106.99 142.16 105.87 141.22 105.43 C 140.28 104.99 139.16 105.40 138.72 106.34 Z M 138.22 107.34 L 137.80 108.34 C 137.39 109.31 137.85 110.43 138.82 110.84 C 139.79 111.24 140.91 110.79 141.32 109.81 L 141.74 108.81 C 142.15 107.84 141.69 106.72 140.72 106.31 C 139.75 105.91 138.63 106.37 138.22 107.34 Z M 137.75 108.41 L 137.39 109.39 C 137.01 110.39 137.53 111.50 138.53 111.87 C 139.53 112.24 140.64 111.73 141.01 110.73 L 141.37 109.75 C 141.74 108.75 141.23 107.64 140.23 107.27 C 139.23 106.90 138.12 107.41 137.75 108.41 Z M 137.35 109.45 L 137.05 110.36 C 136.72 111.38 137.27 112.48 138.29 112.82 C 139.30 113.15 140.40 112.60 140.74 111.58 L 141.04 110.67 C 141.38 109.65 140.82 108.55 139.81 108.22 C 138.79 107.88 137.69 108.43 137.35 109.45 Z M 137.03 110.41 L 136.75 111.36 C 136.44 112.39 137.02 113.47 138.05 113.78 C 139.07 114.09 140.16 113.51 140.47 112.48 L 140.75 111.53 C 141.06 110.51 140.48 109.42 139.46 109.11 C 138.43 108.80 137.34 109.38 137.03 110.41 Z M 136.74 111.40 L 136.46 112.38 C 136.18 113.41 136.78 114.49 137.81 114.77 C 138.85 115.06 139.92 114.46 140.21 113.42 L 140.48 112.44 C 140.77 111.41 140.16 110.34 139.13 110.05 C 138.10 109.76 137.02 110.37 136.74 111.40 Z M 136.45 112.41 L 136.19 113.40 C 135.92 114.44 136.55 115.51 137.59 115.78 C 138.63 116.05 139.69 115.43 139.96 114.39 L 140.22 113.39 C 140.49 112.35 139.87 111.29 138.83 111.02 C 137.79 110.75 136.72 111.37 136.45 112.41 Z M 136.19 113.43 L 135.94 114.43 C 135.68 115.47 136.32 116.53 137.36 116.79 C 138.41 117.04 139.46 116.41 139.72 115.36 L 139.97 114.36 C 140.22 113.32 139.59 112.26 138.54 112.01 C 137.50 111.75 136.44 112.38 136.19 113.43 Z M 135.93 114.45 L 135.70 115.45 C 135.45 116.49 136.10 117.54 137.14 117.79 C 138.19 118.04 139.24 117.39 139.49 116.35 L 139.72 115.35 C 139.97 114.30 139.33 113.25 138.28 113.00 C 137.23 112.75 136.18 113.40 135.93 114.45 Z M 135.69 115.46 L 135.46 116.44 C 135.22 117.49 135.88 118.54 136.93 118.78 C 137.97 119.03 139.02 118.37 139.26 117.32 L 139.49 116.34 C 139.73 115.29 139.08 114.24 138.03 114.00 C 136.98 113.75 135.94 114.41 135.69 115.46 Z M 135.46 116.45 L 135.24 117.42 C 135.00 118.47 135.66 119.51 136.71 119.75 C 137.76 119.99 138.80 119.33 139.04 118.28 L 139.27 117.32 C 139.51 116.27 138.85 115.22 137.80 114.98 C 136.75 114.74 135.70 115.40 135.46 116.45 Z M 135.24 117.41 L 135.02 118.36 C 134.78 119.41 135.44 120.46 136.49 120.70 C 137.54 120.94 138.59 120.29 138.83 119.23 L 139.05 118.29 C 139.29 117.24 138.63 116.19 137.58 115.95 C 136.53 115.71 135.48 116.36 135.24 117.41 Z M 135.02 118.35 L 134.78 119.42 C 134.53 120.47 135.18 121.52 136.23 121.77 C 137.28 122.01 138.33 121.36 138.58 120.31 L 138.83 119.24 C 139.07 118.19 138.42 117.14 137.37 116.90 C 136.32 116.65 135.27 117.30 135.02 118.35 Z M 134.78 119.41 L 134.53 120.43 C 134.28 121.48 134.93 122.53 135.98 122.78 C 137.03 123.03 138.08 122.39 138.33 121.34 L 138.58 120.32 C 138.83 119.27 138.18 118.22 137.13 117.97 C 136.08 117.71 135.03 118.36 134.78 119.41 Z M 134.54 120.42 L 134.30 121.40 C 134.04 122.45 134.68 123.51 135.73 123.76 C 136.78 124.02 137.83 123.38 138.09 122.33 L 138.33 121.35 C 138.58 120.30 137.94 119.24 136.90 118.99 C 135.85 118.73 134.79 119.37 134.54 120.42 Z M 134.30 121.40 L 134.06 122.35 C 133.80 123.40 134.44 124.46 135.49 124.71 C 136.53 124.97 137.59 124.34 137.85 123.29 L 138.09 122.34 C 138.35 121.29 137.71 120.23 136.66 119.97 C 135.62 119.71 134.56 120.35 134.30 121.40 Z M 134.06 122.34 L 133.83 123.28 C 133.57 124.33 134.20 125.39 135.25 125.65 C 136.29 125.91 137.35 125.28 137.62 124.23 L 137.85 123.29 C 138.11 122.25 137.48 121.19 136.43 120.93 C 135.39 120.66 134.33 121.30 134.06 122.34 Z M 133.83 123.28 L 133.59 124.20 C 133.33 125.25 133.96 126.31 135.01 126.57 C 136.05 126.84 137.12 126.21 137.38 125.16 L 137.61 124.23 C 137.88 123.19 137.25 122.13 136.20 121.86 C 135.16 121.60 134.09 122.23 133.83 123.28 Z M 133.60 124.20 L 133.36 125.13 C 133.09 126.17 133.73 127.24 134.77 127.50 C 135.82 127.77 136.88 127.14 137.14 126.09 L 137.38 125.16 C 137.64 124.12 137.01 123.06 135.97 122.79 C 134.92 122.53 133.86 123.16 133.60 124.20 Z M 133.36 125.13 L 133.12 126.06 C 132.86 127.11 133.49 128.17 134.53 128.43 C 135.58 128.70 136.64 128.07 136.91 127.02 L 137.14 126.09 C 137.41 125.05 136.78 123.98 135.73 123.72 C 134.69 123.45 133.62 124.09 133.36 125.13 Z M 133.12 126.06 L 132.89 126.99 C 132.62 128.03 133.26 129.09 134.30 129.36 C 135.35 129.62 136.41 128.99 136.67 127.95 L 136.91 127.02 C 137.17 125.98 136.54 124.92 135.49 124.65 C 134.45 124.39 133.39 125.02 133.12 126.06 Z M 132.89 126.99 L 132.65 127.93 C 132.38 128.97 133.02 130.03 134.06 130.30 C 135.11 130.56 136.17 129.93 136.43 128.89 L 136.67 127.95 C 136.94 126.90 136.31 125.84 135.26 125.58 C 134.22 125.31 133.15 125.94 132.89 126.99 Z M 132.65 127.92 L 132.41 128.88 C 132.14 129.92 132.77 130.98 133.81 131.25 C 134.86 131.52 135.92 130.89 136.19 129.84 L 136.43 128.89 C 136.70 127.85 136.07 126.78 135.03 126.52 C 133.98 126.25 132.92 126.88 132.65 127.92 Z M 132.41 128.87 L 132.16 129.84 C 131.89 130.88 132.52 131.95 133.56 132.22 C 134.60 132.49 135.67 131.86 135.94 130.82 L 136.19 129.85 C 136.46 128.81 135.83 127.74 134.79 127.47 C 133.74 127.20 132.68 127.83 132.41 128.87 Z M 132.16 129.83 L 131.90 130.81 C 131.63 131.85 132.25 132.92 133.30 133.19 C 134.34 133.47 135.40 132.84 135.68 131.80 L 135.93 130.82 C 136.21 129.78 135.59 128.71 134.54 128.44 C 133.50 128.17 132.43 128.79 132.16 129.83 Z M 131.91 130.80 L 131.64 131.79 C 131.36 132.83 131.98 133.90 133.02 134.18 C 134.06 134.46 135.13 133.84 135.41 132.80 L 135.68 131.81 C 135.95 130.77 135.34 129.70 134.30 129.42 C 133.25 129.14 132.18 129.76 131.91 130.80 Z M 131.64 131.78 L 131.37 132.78 C 131.09 133.82 131.70 134.89 132.74 135.17 C 133.78 135.46 134.85 134.85 135.13 133.81 L 135.41 132.81 C 135.69 131.77 135.08 130.70 134.04 130.41 C 133.00 130.13 131.93 130.74 131.64 131.78 Z M 131.38 132.76 L 131.10 133.76 C 130.80 134.79 131.41 135.87 132.45 136.16 C 133.48 136.45 134.56 135.85 134.85 134.81 L 135.13 133.82 C 135.42 132.78 134.82 131.71 133.78 131.41 C 132.74 131.12 131.67 131.73 131.38 132.76 Z M 131.10 133.74 L 130.83 134.67 C 130.54 135.71 131.13 136.79 132.17 137.08 C 133.20 137.38 134.28 136.79 134.58 135.75 L 134.85 134.83 C 135.15 133.79 134.55 132.71 133.51 132.41 C 132.48 132.11 131.40 132.71 131.10 133.74 Z M 130.84 134.66 L 130.56 135.59 C 130.26 136.62 130.85 137.71 131.88 138.01 C 132.91 138.32 134.00 137.73 134.30 136.69 L 134.58 135.76 C 134.88 134.73 134.29 133.65 133.26 133.34 C 132.23 133.04 131.14 133.63 130.84 134.66 Z M 130.57 135.58 L 130.28 136.52 C 129.97 137.55 130.56 138.64 131.59 138.95 C 132.62 139.26 133.70 138.67 134.01 137.64 L 134.30 136.70 C 134.61 135.68 134.02 134.59 132.99 134.28 C 131.96 133.97 130.88 134.55 130.57 135.58 Z M 130.29 136.51 L 130.00 137.46 C 129.68 138.49 130.26 139.57 131.29 139.89 C 132.32 140.20 133.40 139.63 133.72 138.60 L 134.01 137.65 C 134.32 136.63 133.75 135.54 132.72 135.22 C 131.69 134.91 130.60 135.49 130.29 136.51 Z M 130.00 137.45 L 129.71 138.41 C 129.39 139.43 129.96 140.52 130.98 140.84 C 132.01 141.16 133.10 140.59 133.42 139.56 L 133.71 138.61 C 134.03 137.58 133.46 136.49 132.44 136.17 C 131.41 135.85 130.32 136.43 130.00 137.45 Z M 129.71 138.40 L 129.40 139.36 C 129.08 140.39 129.65 141.48 130.67 141.80 C 131.69 142.12 132.79 141.56 133.11 140.53 L 133.41 139.57 C 133.74 138.55 133.17 137.46 132.15 137.13 C 131.12 136.81 130.03 137.38 129.71 138.40 Z M 129.41 139.36 L 129.10 140.33 C 128.77 141.35 129.33 142.45 130.36 142.77 C 131.38 143.10 132.47 142.53 132.79 141.51 L 133.11 140.54 C 133.43 139.52 132.87 138.43 131.85 138.10 C 130.83 137.77 129.73 138.34 129.41 139.36 Z M 129.10 140.33 L 128.78 141.31 C 128.45 142.33 129.01 143.42 130.03 143.75 C 131.05 144.08 132.15 143.52 132.47 142.50 L 132.79 141.52 C 133.12 140.50 132.56 139.41 131.54 139.08 C 130.52 138.75 129.43 139.31 129.10 140.33 Z M 128.79 141.31 L 128.47 142.28 C 128.14 143.30 128.70 144.40 129.71 144.73 C 130.73 145.06 131.82 144.50 132.16 143.48 L 132.47 142.51 C 132.80 141.49 132.24 140.39 131.23 140.06 C 130.21 139.73 129.12 140.29 128.79 141.31 Z M 128.47 142.28 L 128.16 143.22 C 127.83 144.24 128.39 145.33 129.40 145.67 C 130.42 146.00 131.51 145.44 131.84 144.43 L 132.15 143.48 C 132.48 142.47 131.93 141.37 130.91 141.04 C 129.90 140.71 128.80 141.27 128.47 142.28 Z M 128.17 143.22 L 127.85 144.17 C 127.52 145.18 128.07 146.28 129.09 146.61 C 130.10 146.94 131.20 146.39 131.53 145.38 L 131.84 144.43 C 132.18 143.41 131.62 142.32 130.61 141.99 C 129.59 141.65 128.50 142.20 128.17 143.22 Z M 127.86 144.16 L 127.54 145.12 C 127.20 146.13 127.75 147.22 128.77 147.56 C 129.78 147.90 130.87 147.35 131.21 146.34 L 131.53 145.38 C 131.86 144.37 131.31 143.28 130.30 142.94 C 129.29 142.60 128.19 143.15 127.86 144.16 Z M 127.54 145.11 L 127.22 146.07 C 126.88 147.08 127.43 148.17 128.44 148.51 C 129.45 148.85 130.55 148.31 130.89 147.30 L 131.21 146.34 C 131.55 145.33 131.00 144.23 129.99 143.89 C 128.98 143.56 127.88 144.10 127.54 145.11 Z M 127.23 146.06 L 126.90 147.01 C 126.56 148.02 127.10 149.12 128.11 149.46 C 129.12 149.81 130.21 149.27 130.56 148.26 L 130.88 147.30 C 131.23 146.29 130.69 145.20 129.68 144.85 C 128.67 144.51 127.57 145.05 127.23 146.06 Z M 126.91 147.01 L 126.58 147.96 C 126.23 148.97 126.77 150.06 127.77 150.41 C 128.78 150.76 129.88 150.22 130.23 149.22 L 130.55 148.26 C 130.90 147.26 130.37 146.16 129.36 145.81 C 128.35 145.47 127.25 146.00 126.91 147.01 Z M 126.58 147.95 L 126.25 148.90 C 125.90 149.90 126.43 151.00 127.43 151.35 C 128.44 151.71 129.54 151.18 129.89 150.17 L 130.22 149.22 C 130.57 148.22 130.04 147.12 129.04 146.77 C 128.03 146.42 126.93 146.95 126.58 147.95 Z M 126.26 148.89 L 125.92 149.83 C 125.57 150.83 126.09 151.93 127.09 152.29 C 128.09 152.65 129.19 152.12 129.55 151.12 L 129.89 150.18 C 130.24 149.18 129.72 148.08 128.72 147.72 C 127.71 147.36 126.61 147.89 126.26 148.89 Z M 125.93 149.82 L 125.59 150.75 C 125.23 151.75 125.74 152.85 126.74 153.21 C 127.74 153.58 128.85 153.06 129.21 152.06 L 129.55 151.13 C 129.91 150.13 129.39 149.03 128.39 148.67 C 127.39 148.30 126.29 148.82 125.93 149.82 Z M 125.60 150.74 L 125.24 151.70 C 124.87 152.69 125.38 153.80 126.38 154.17 C 127.37 154.53 128.48 154.03 128.85 153.03 L 129.20 152.07 C 129.57 151.08 129.06 149.97 128.07 149.60 C 127.07 149.23 125.97 149.74 125.60 150.74 Z M 125.25 151.68 L 124.89 152.64 C 124.52 153.63 125.02 154.74 126.01 155.11 C 127.00 155.49 128.11 154.99 128.48 153.99 L 128.84 153.04 C 129.21 152.05 128.71 150.94 127.72 150.57 C 126.73 150.19 125.62 150.69 125.25 151.68 Z M 124.90 152.63 L 124.53 153.57 C 124.15 154.55 124.65 155.66 125.63 156.04 C 126.62 156.43 127.73 155.93 128.11 154.95 L 128.47 154.00 C 128.85 153.02 128.36 151.91 127.38 151.53 C 126.39 151.15 125.28 151.64 124.90 152.63 Z M 124.54 153.56 L 124.17 154.49 C 123.79 155.47 124.27 156.58 125.25 156.97 C 126.24 157.36 127.35 156.87 127.74 155.89 L 128.10 154.96 C 128.49 153.97 128.01 152.86 127.02 152.48 C 126.04 152.09 124.93 152.57 124.54 153.56 Z M 124.18 154.48 L 123.81 155.40 C 123.42 156.38 123.89 157.49 124.87 157.89 C 125.85 158.28 126.97 157.80 127.36 156.82 L 127.73 155.90 C 128.12 154.92 127.65 153.81 126.67 153.41 C 125.69 153.02 124.57 153.50 124.18 154.48 Z M 123.82 155.39 L 123.44 156.31 C 123.05 157.28 123.51 158.40 124.49 158.80 C 125.46 159.19 126.58 158.73 126.98 157.75 L 127.35 156.83 C 127.75 155.86 127.28 154.74 126.31 154.35 C 125.33 153.95 124.22 154.41 123.82 155.39 Z M 123.45 156.30 L 123.07 157.21 C 122.67 158.18 123.13 159.30 124.10 159.70 C 125.07 160.11 126.19 159.65 126.59 158.67 L 126.97 157.76 C 127.37 156.79 126.91 155.67 125.94 155.27 C 124.97 154.87 123.85 155.33 123.45 156.30 Z M 123.08 157.20 L 122.69 158.11 C 122.29 159.08 122.74 160.20 123.71 160.60 C 124.68 161.01 125.79 160.56 126.20 159.59 L 126.58 158.68 C 126.99 157.71 126.54 156.60 125.57 156.19 C 124.60 155.78 123.49 156.23 123.08 157.20 Z M 122.70 158.10 L 122.31 159.01 C 121.90 159.98 122.35 161.09 123.31 161.51 C 124.27 161.92 125.39 161.47 125.80 160.51 L 126.19 159.60 C 126.61 158.64 126.16 157.52 125.20 157.11 C 124.23 156.69 123.11 157.14 122.70 158.10 Z M 122.32 159.00 L 121.92 159.92 C 121.50 160.88 121.94 161.99 122.91 162.41 C 123.87 162.83 124.98 162.39 125.40 161.43 L 125.80 160.52 C 126.22 159.56 125.77 158.44 124.81 158.02 C 123.85 157.60 122.74 158.04 122.32 159.00 Z M 121.93 159.91 L 121.53 160.82 C 121.10 161.78 121.54 162.90 122.50 163.32 C 123.45 163.74 124.57 163.31 124.99 162.35 L 125.39 161.44 C 125.82 160.48 125.38 159.36 124.42 158.94 C 123.47 158.52 122.35 158.95 121.93 159.91 Z M 121.53 160.82 L 121.12 161.73 C 120.70 162.68 121.13 163.80 122.08 164.23 C 123.03 164.65 124.15 164.22 124.58 163.27 L 124.99 162.36 C 125.41 161.40 124.98 160.29 124.03 159.86 C 123.08 159.43 121.96 159.86 121.53 160.82 Z M 121.13 161.72 L 120.72 162.63 C 120.29 163.58 120.71 164.70 121.66 165.13 C 122.61 165.56 123.73 165.14 124.16 164.19 L 124.57 163.28 C 125.00 162.33 124.58 161.21 123.63 160.78 C 122.68 160.35 121.56 160.77 121.13 161.72 Z M 120.73 162.63 L 120.31 163.54 C 119.88 164.48 120.29 165.60 121.24 166.04 C 122.19 166.47 123.30 166.05 123.74 165.10 L 124.15 164.19 C 124.59 163.25 124.17 162.13 123.22 161.70 C 122.28 161.26 121.16 161.68 120.73 162.63 Z M 120.32 163.53 L 119.90 164.44 C 119.46 165.38 119.87 166.50 120.81 166.94 C 121.76 167.37 122.87 166.96 123.31 166.02 L 123.73 165.11 C 124.17 164.17 123.76 163.05 122.81 162.61 C 121.87 162.18 120.75 162.59 120.32 163.53 Z M 119.90 164.43 L 119.48 165.34 C 119.04 166.28 119.44 167.40 120.38 167.84 C 121.32 168.28 122.44 167.87 122.88 166.93 L 123.30 166.03 C 123.74 165.09 123.34 163.97 122.40 163.53 C 121.46 163.09 120.34 163.50 119.90 164.43 Z M 119.48 165.34 L 119.06 166.24 C 118.61 167.18 119.01 168.30 119.95 168.74 C 120.89 169.18 122.01 168.78 122.45 167.84 L 122.87 166.94 C 123.32 166.00 122.92 164.88 121.98 164.44 C 121.04 164.00 119.93 164.40 119.48 165.34 Z M 119.06 166.24 L 118.63 167.14 C 118.19 168.07 118.58 169.19 119.52 169.64 C 120.45 170.08 121.57 169.68 122.01 168.75 L 122.44 167.85 C 122.89 166.92 122.49 165.80 121.56 165.35 C 120.62 164.91 119.51 165.30 119.06 166.24 Z M 118.64 167.13 L 118.20 168.03 C 117.76 168.96 118.15 170.08 119.08 170.53 C 120.01 170.97 121.13 170.58 121.57 169.65 L 122.01 168.76 C 122.45 167.83 122.06 166.71 121.13 166.26 C 120.20 165.81 119.08 166.20 118.64 167.13 Z M 118.21 168.03 L 117.78 168.92 C 117.33 169.85 117.71 170.97 118.64 171.42 C 119.57 171.87 120.68 171.48 121.13 170.55 L 121.57 169.66 C 122.02 168.73 121.63 167.62 120.70 167.17 C 119.78 166.71 118.66 167.10 118.21 168.03 Z M 117.78 168.92 L 117.34 169.81 C 116.89 170.73 117.27 171.85 118.20 172.30 C 119.12 172.76 120.23 172.37 120.69 171.45 L 121.13 170.56 C 121.58 169.64 121.20 168.52 120.27 168.07 C 119.35 167.61 118.24 167.99 117.78 168.92 Z M 117.35 169.81 L 116.91 170.70 C 116.45 171.62 116.83 172.73 117.75 173.19 C 118.67 173.65 119.78 173.27 120.24 172.35 L 120.68 171.46 C 121.14 170.54 120.76 169.42 119.84 168.97 C 118.92 168.51 117.81 168.89 117.35 169.81 Z M 116.91 170.70 L 116.47 171.59 C 116.01 172.50 116.38 173.62 117.30 174.08 C 118.21 174.53 119.33 174.16 119.79 173.25 L 120.23 172.35 C 120.69 171.44 120.32 170.32 119.40 169.87 C 118.49 169.41 117.37 169.78 116.91 170.70 Z M 116.47 171.58 L 116.02 172.48 C 115.56 173.39 115.93 174.50 116.84 174.96 C 117.76 175.42 118.87 175.06 119.33 174.14 L 119.78 173.25 C 120.24 172.34 119.87 171.22 118.96 170.76 C 118.05 170.30 116.94 170.67 116.47 171.58 Z M 116.03 172.47 L 115.58 173.36 C 115.11 174.27 115.47 175.39 116.38 175.85 C 117.29 176.31 118.41 175.95 118.87 175.04 L 119.32 174.15 C 119.79 173.24 119.42 172.13 118.52 171.66 C 117.61 171.20 116.49 171.56 116.03 172.47 Z M 115.58 173.36 L 115.12 174.26 C 114.66 175.16 115.01 176.27 115.92 176.74 C 116.83 177.20 117.94 176.85 118.40 175.94 L 118.86 175.05 C 119.33 174.14 118.97 173.03 118.06 172.56 C 117.16 172.10 116.05 172.45 115.58 173.36 Z M 115.13 174.25 L 114.66 175.15 C 114.20 176.05 114.55 177.16 115.45 177.63 C 116.35 178.10 117.46 177.74 117.93 176.84 L 118.40 175.94 C 118.86 175.04 118.51 173.93 117.61 173.46 C 116.71 173.00 115.60 173.35 115.13 174.25 Z M 114.67 175.14 L 114.21 176.02 C 113.74 176.92 114.09 178.03 114.99 178.50 C 115.89 178.97 117.00 178.62 117.47 177.72 L 117.92 176.85 C 118.39 175.95 118.05 174.84 117.15 174.37 C 116.25 173.90 115.14 174.25 114.67 175.14 Z M 114.22 176.02 L 113.76 176.89 C 113.28 177.79 113.63 178.90 114.52 179.37 C 115.42 179.84 116.53 179.50 117.00 178.60 L 117.46 177.72 C 117.93 176.83 117.59 175.72 116.69 175.25 C 115.80 174.78 114.69 175.12 114.22 176.02 Z M 113.76 176.89 L 113.30 177.77 C 112.82 178.66 113.16 179.77 114.05 180.24 C 114.95 180.72 116.05 180.38 116.53 179.48 L 116.99 178.61 C 117.47 177.71 117.13 176.61 116.23 176.13 C 115.34 175.66 114.23 176.00 113.76 176.89 Z M 113.30 177.77 L 112.83 178.65 C 112.36 179.54 112.69 180.65 113.58 181.12 C 114.47 181.59 115.58 181.26 116.05 180.37 L 116.52 179.49 C 117.00 178.60 116.66 177.49 115.77 177.02 C 114.88 176.54 113.77 176.88 113.30 177.77 Z M 112.84 178.65 L 112.36 179.53 C 111.89 180.42 112.22 181.52 113.11 182.00 C 114.00 182.47 115.10 182.14 115.58 181.25 L 116.05 180.37 C 116.52 179.48 116.19 178.38 115.30 177.90 C 114.41 177.43 113.31 177.76 112.84 178.65 Z M 112.37 179.53 L 111.89 180.42 C 111.42 181.30 111.75 182.40 112.63 182.88 C 113.52 183.35 114.62 183.02 115.10 182.14 L 115.57 181.25 C 116.05 180.37 115.71 179.27 114.83 178.79 C 113.94 178.32 112.84 178.65 112.37 179.53 Z M 111.90 180.42 L 111.42 181.30 C 110.94 182.18 111.27 183.28 112.16 183.76 C 113.04 184.23 114.14 183.90 114.61 183.02 L 115.09 182.14 C 115.57 181.26 115.24 180.15 114.35 179.68 C 113.47 179.20 112.37 179.53 111.90 180.42 Z M 111.42 181.30 L 110.95 182.19 C 110.47 183.07 110.80 184.17 111.68 184.64 C 112.56 185.12 113.66 184.79 114.13 183.91 L 114.61 183.02 C 115.09 182.14 114.76 181.04 113.88 180.57 C 113.00 180.09 111.90 180.42 111.42 181.30 Z M 110.95 182.19 L 110.47 183.07 C 110.00 183.95 110.32 185.05 111.20 185.52 C 112.08 186.00 113.18 185.67 113.65 184.79 L 114.13 183.91 C 114.60 183.03 114.28 181.93 113.40 181.46 C 112.52 180.98 111.42 181.31 110.95 182.19 Z M 110.47 183.08 L 110.00 183.95 C 109.53 184.82 109.86 185.92 110.73 186.39 C 111.61 186.86 112.70 186.54 113.18 185.66 L 113.65 184.79 C 114.12 183.92 113.79 182.82 112.92 182.35 C 112.04 181.87 110.95 182.20 110.47 183.08 Z M 110.01 183.95 L 109.54 184.81 C 109.07 185.69 109.39 186.78 110.26 187.25 C 111.14 187.73 112.23 187.40 112.70 186.53 L 113.17 185.66 C 113.65 184.79 113.32 183.69 112.45 183.22 C 111.57 182.75 110.48 183.07 110.01 183.95 Z M 109.54 184.82 L 109.07 185.68 C 108.60 186.55 108.92 187.64 109.80 188.12 C 110.67 188.59 111.76 188.27 112.23 187.39 L 112.70 186.53 C 113.17 185.65 112.85 184.56 111.98 184.09 C 111.10 183.62 110.01 183.94 109.54 184.82 Z M 109.08 185.68 L 108.60 186.55 C 108.13 187.42 108.45 188.51 109.32 188.98 C 110.19 189.45 111.28 189.13 111.75 188.26 L 112.23 187.39 C 112.70 186.52 112.38 185.44 111.51 184.96 C 110.64 184.49 109.55 184.81 109.08 185.68 Z M 108.61 186.55 L 108.13 187.43 C 107.66 188.29 107.98 189.38 108.85 189.85 C 109.72 190.32 110.80 190.00 111.27 189.14 L 111.75 188.26 C 112.22 187.40 111.90 186.31 111.03 185.84 C 110.17 185.37 109.08 185.69 108.61 186.55 Z M 108.14 187.43 L 107.66 188.30 C 107.19 189.17 107.50 190.25 108.37 190.72 C 109.23 191.20 110.32 190.88 110.79 190.01 L 111.27 189.14 C 111.74 188.27 111.42 187.19 110.56 186.72 C 109.69 186.24 108.61 186.56 108.14 187.43 Z M 107.66 188.30 L 107.18 189.18 C 106.71 190.04 107.02 191.13 107.88 191.60 C 108.75 192.07 109.83 191.76 110.30 190.90 L 110.78 190.01 C 111.26 189.15 110.94 188.07 110.08 187.60 C 109.22 187.12 108.14 187.44 107.66 188.30 Z M 107.19 189.18 L 106.70 190.07 C 106.22 190.93 106.54 192.01 107.39 192.48 C 108.25 192.95 109.33 192.64 109.81 191.78 L 110.30 190.90 C 110.77 190.04 110.46 188.96 109.60 188.48 C 108.74 188.01 107.66 188.32 107.19 189.18 Z M 106.70 190.07 L 106.21 190.96 C 105.73 191.82 106.04 192.89 106.90 193.37 C 107.75 193.84 108.83 193.53 109.31 192.68 L 109.80 191.79 C 110.28 190.93 109.97 189.85 109.11 189.38 C 108.26 188.90 107.18 189.21 106.70 190.07 Z M 106.21 190.96 L 105.71 191.85 C 105.24 192.70 105.54 193.78 106.40 194.26 C 107.25 194.73 108.33 194.43 108.80 193.57 L 109.30 192.68 C 109.78 191.83 109.47 190.75 108.62 190.28 C 107.77 189.80 106.69 190.11 106.21 190.96 Z M 105.72 191.85 L 105.22 192.74 C 104.74 193.59 105.05 194.66 105.90 195.14 C 106.74 195.62 107.82 195.31 108.30 194.47 L 108.80 193.58 C 109.27 192.73 108.97 191.65 108.12 191.17 C 107.27 190.70 106.20 191.00 105.72 191.85 Z M 105.23 192.74 L 104.72 193.63 C 104.24 194.47 104.54 195.55 105.39 196.03 C 106.23 196.50 107.31 196.21 107.79 195.36 L 108.29 194.47 C 108.77 193.62 108.47 192.55 107.62 192.07 C 106.78 191.59 105.71 191.89 105.23 192.74 Z M 104.73 193.62 L 104.22 194.51 C 103.74 195.36 104.04 196.43 104.88 196.91 C 105.72 197.39 106.79 197.10 107.27 196.25 L 107.78 195.36 C 108.26 194.52 107.97 193.45 107.12 192.97 C 106.28 192.49 105.21 192.78 104.73 193.62 Z M 104.23 194.51 L 103.72 195.40 C 103.24 196.24 103.53 197.31 104.37 197.79 C 105.21 198.27 106.28 197.98 106.76 197.14 L 107.27 196.26 C 107.75 195.42 107.46 194.35 106.62 193.86 C 105.78 193.38 104.71 193.67 104.23 194.51 Z M 103.73 195.39 L 103.22 196.27 C 102.73 197.11 103.02 198.18 103.86 198.66 C 104.69 199.14 105.76 198.86 106.24 198.02 L 106.75 197.14 C 107.24 196.31 106.95 195.24 106.11 194.76 C 105.28 194.27 104.21 194.56 103.73 195.39 Z M 103.22 196.27 L 102.72 197.13 C 102.23 197.97 102.51 199.03 103.35 199.52 C 104.18 200.01 105.25 199.72 105.73 198.89 L 106.24 198.03 C 106.72 197.19 106.44 196.13 105.61 195.64 C 104.78 195.16 103.71 195.44 103.22 196.27 Z M 102.73 197.13 L 102.22 197.98 C 101.74 198.81 102.01 199.88 102.84 200.36 C 103.67 200.85 104.73 200.58 105.22 199.75 L 105.72 198.90 C 106.21 198.07 105.94 197.00 105.11 196.51 C 104.28 196.03 103.21 196.30 102.73 197.13 Z M 102.23 197.98 L 101.74 198.81 C 101.24 199.63 101.51 200.70 102.34 201.19 C 103.16 201.68 104.23 201.41 104.72 200.59 L 105.21 199.75 C 105.71 198.93 105.44 197.86 104.61 197.37 C 103.79 196.88 102.72 197.15 102.23 197.98 Z M 101.74 198.80 L 101.25 199.61 C 100.76 200.43 101.02 201.50 101.84 201.99 C 102.66 202.49 103.73 202.22 104.22 201.40 L 104.71 200.59 C 105.20 199.77 104.94 198.71 104.12 198.21 C 103.30 197.72 102.24 197.98 101.74 198.80 Z M 101.26 199.61 L 100.71 200.51 C 100.21 201.32 100.47 202.39 101.29 202.88 C 102.10 203.38 103.16 203.13 103.66 202.31 L 104.21 201.41 C 104.71 200.60 104.45 199.53 103.64 199.03 C 102.83 198.54 101.76 198.79 101.26 199.61 Z M 100.72 200.50 L 100.16 201.41 C 99.66 202.22 99.91 203.28 100.72 203.78 C 101.53 204.28 102.59 204.03 103.09 203.22 L 103.65 202.32 C 104.15 201.51 103.90 200.45 103.10 199.95 C 102.29 199.44 101.22 199.69 100.72 200.50 Z M 100.17 201.40 L 99.62 202.28 C 99.12 203.08 99.36 204.14 100.16 204.64 C 100.96 205.15 102.02 204.91 102.53 204.10 L 103.08 203.23 C 103.58 202.43 103.34 201.37 102.54 200.86 C 101.74 200.36 100.68 200.60 100.17 201.40 Z M 99.63 202.27 L 99.09 203.12 C 98.58 203.92 98.82 204.98 99.62 205.48 C 100.41 205.99 101.47 205.76 101.98 204.96 L 102.52 204.11 C 103.03 203.31 102.79 202.25 101.99 201.74 C 101.20 201.24 100.14 201.47 99.63 202.27 Z M 99.10 203.12 L 98.57 203.94 C 98.06 204.74 98.29 205.79 99.08 206.30 C 99.88 206.81 100.93 206.58 101.44 205.79 L 101.97 204.96 C 102.48 204.17 102.25 203.11 101.46 202.60 C 100.66 202.09 99.61 202.32 99.10 203.12 Z M 98.57 203.94 L 98.05 204.75 C 97.54 205.54 97.77 206.60 98.56 207.11 C 99.35 207.62 100.40 207.39 100.91 206.60 L 101.43 205.79 C 101.94 205.00 101.72 203.95 100.93 203.44 C 100.14 202.93 99.08 203.15 98.57 203.94 Z M 98.06 204.75 L 97.54 205.55 C 97.03 206.34 97.25 207.39 98.04 207.90 C 98.83 208.41 99.88 208.18 100.39 207.40 L 100.90 206.60 C 101.42 205.81 101.19 204.76 100.40 204.25 C 99.62 203.74 98.57 203.97 98.06 204.75 Z M 97.54 205.55 L 97.03 206.34 C 96.52 207.12 96.75 208.17 97.53 208.68 C 98.31 209.19 99.36 208.97 99.87 208.18 L 100.38 207.40 C 100.89 206.61 100.67 205.56 99.89 205.05 C 99.10 204.55 98.05 204.77 97.54 205.55 Z M 97.04 206.34 L 96.49 207.19 C 95.98 207.97 96.21 209.01 96.99 209.52 C 97.77 210.03 98.81 209.80 99.32 209.02 L 99.87 208.18 C 100.37 207.40 100.15 206.35 99.37 205.85 C 98.59 205.34 97.54 205.56 97.04 206.34 Z M 96.49 207.19 L 95.94 208.05 C 95.43 208.83 95.66 209.87 96.44 210.37 C 97.22 210.88 98.26 210.66 98.76 209.88 L 99.32 209.02 C 99.82 208.24 99.60 207.20 98.82 206.69 C 98.04 206.19 97.00 206.41 96.49 207.19 Z M 95.94 208.05 L 95.39 208.90 C 94.89 209.68 95.11 210.72 95.89 211.22 C 96.66 211.72 97.70 211.50 98.21 210.72 L 98.76 209.87 C 99.26 209.10 99.04 208.06 98.26 207.55 C 97.48 207.05 96.45 207.27 95.94 208.05 Z M 95.40 208.90 L 94.85 209.75 C 94.35 210.52 94.57 211.56 95.34 212.06 C 96.12 212.56 97.15 212.34 97.65 211.57 L 98.20 210.72 C 98.70 209.95 98.48 208.91 97.71 208.41 C 96.93 207.91 95.90 208.13 95.40 208.90 Z M 94.85 209.75 L 94.31 210.58 C 93.81 211.36 94.03 212.39 94.80 212.89 C 95.57 213.39 96.60 213.17 97.11 212.40 L 97.65 211.56 C 98.15 210.79 97.93 209.76 97.16 209.26 C 96.39 208.76 95.36 208.98 94.85 209.75 Z M 94.32 210.58 L 93.78 211.41 C 93.28 212.18 93.49 213.21 94.26 213.71 C 95.03 214.21 96.06 213.99 96.56 213.23 L 97.10 212.40 C 97.60 211.63 97.39 210.60 96.62 210.10 C 95.85 209.60 94.82 209.82 94.32 210.58 Z M 93.79 211.41 L 93.25 212.22 C 92.75 212.99 92.96 214.02 93.73 214.52 C 94.49 215.02 95.52 214.81 96.02 214.04 L 96.56 213.23 C 97.06 212.46 96.84 211.43 96.08 210.93 C 95.31 210.43 94.29 210.64 93.79 211.41 Z M 93.26 212.22 L 92.71 213.06 C 92.20 213.82 92.41 214.84 93.17 215.35 C 93.94 215.85 94.96 215.64 95.46 214.88 L 96.01 214.04 C 96.52 213.28 96.31 212.26 95.55 211.76 C 94.78 211.25 93.76 211.46 93.26 212.22 Z M 92.71 213.06 L 92.14 213.92 C 91.64 214.67 91.84 215.69 92.60 216.20 C 93.36 216.70 94.38 216.50 94.88 215.74 L 95.45 214.88 C 95.96 214.12 95.75 213.10 95.00 212.60 C 94.24 212.09 93.22 212.30 92.71 213.06 Z M 92.15 213.91 L 91.58 214.76 C 91.08 215.51 91.28 216.53 92.03 217.04 C 92.79 217.54 93.80 217.34 94.31 216.59 L 94.88 215.74 C 95.38 214.99 95.18 213.97 94.43 213.46 C 93.67 212.96 92.65 213.16 92.15 213.91 Z M 91.59 214.76 L 91.03 215.59 C 90.52 216.34 90.72 217.35 91.47 217.86 C 92.22 218.37 93.24 218.17 93.74 217.42 L 94.30 216.59 C 94.81 215.84 94.61 214.82 93.86 214.32 C 93.11 213.81 92.10 214.01 91.59 214.76 Z M 91.04 215.59 L 90.48 216.41 C 89.97 217.15 90.17 218.17 90.91 218.67 C 91.66 219.18 92.67 218.99 93.18 218.24 L 93.73 217.42 C 94.24 216.68 94.05 215.66 93.30 215.15 C 92.56 214.65 91.54 214.84 91.04 215.59 Z M 90.48 216.41 L 89.93 217.22 C 89.43 217.96 89.62 218.97 90.36 219.48 C 91.10 219.98 92.11 219.79 92.62 219.05 L 93.17 218.24 C 93.68 217.50 93.49 216.49 92.74 215.98 C 92.00 215.47 90.99 215.66 90.48 216.41 Z M 89.94 217.22 L 89.39 218.01 C 88.89 218.75 89.07 219.76 89.81 220.27 C 90.55 220.77 91.56 220.59 92.07 219.85 L 92.61 219.05 C 93.12 218.31 92.93 217.30 92.19 216.79 C 91.45 216.29 90.45 216.48 89.94 217.22 Z M 89.40 218.01 L 88.82 218.85 C 88.31 219.59 88.50 220.60 89.23 221.10 C 89.97 221.61 90.98 221.42 91.48 220.69 L 92.06 219.85 C 92.57 219.11 92.38 218.10 91.65 217.60 C 90.91 217.09 89.90 217.28 89.40 218.01 Z M 88.82 218.85 L 88.24 219.70 C 87.73 220.43 87.92 221.44 88.65 221.94 C 89.39 222.45 90.39 222.26 90.90 221.53 L 91.48 220.69 C 91.98 219.95 91.80 218.95 91.07 218.44 C 90.33 217.94 89.33 218.12 88.82 218.85 Z M 88.24 219.70 L 87.67 220.53 C 87.16 221.27 87.35 222.27 88.08 222.77 C 88.81 223.28 89.81 223.09 90.32 222.36 L 90.89 221.53 C 91.40 220.80 91.21 219.80 90.48 219.29 C 89.75 218.79 88.75 218.97 88.24 219.70 Z M 87.67 220.54 L 87.11 221.36 C 86.60 222.09 86.79 223.09 87.52 223.59 C 88.24 224.09 89.24 223.91 89.75 223.18 L 90.31 222.36 C 90.82 221.63 90.63 220.63 89.90 220.13 C 89.17 219.62 88.18 219.81 87.67 220.54 Z M 87.11 221.36 L 86.55 222.17 C 86.05 222.90 86.23 223.90 86.96 224.40 C 87.69 224.90 88.69 224.71 89.19 223.99 L 89.74 223.18 C 90.24 222.45 90.06 221.45 89.33 220.95 C 88.61 220.45 87.61 220.63 87.11 221.36 Z M 86.55 222.18 L 86.01 222.98 C 85.51 223.70 85.69 224.70 86.42 225.19 C 87.15 225.69 88.14 225.51 88.64 224.78 L 89.18 223.98 C 89.68 223.25 89.50 222.26 88.77 221.76 C 88.04 221.27 87.05 221.45 86.55 222.18 Z M 86.01 222.98 L 85.48 223.75 C 84.99 224.48 85.17 225.47 85.90 225.96 C 86.63 226.46 87.62 226.27 88.11 225.54 L 88.64 224.77 C 89.13 224.05 88.94 223.06 88.22 222.56 C 87.49 222.07 86.50 222.26 86.01 222.98 Z M 85.48 223.76 L 84.97 224.52 C 84.48 225.25 84.67 226.23 85.39 226.72 C 86.12 227.21 87.11 227.02 87.60 226.30 L 88.11 225.54 C 88.60 224.81 88.41 223.82 87.68 223.33 C 86.96 222.84 85.97 223.03 85.48 223.76 Z M 84.97 224.53 L 84.45 225.30 C 83.96 226.03 84.16 227.02 84.89 227.50 C 85.61 227.99 86.60 227.79 87.08 227.06 L 87.60 226.29 C 88.09 225.56 87.89 224.58 87.16 224.09 C 86.44 223.61 85.45 223.80 84.97 224.53 Z M 84.45 225.31 L 83.91 226.12 C 83.43 226.85 83.64 227.83 84.37 228.31 C 85.09 228.79 86.07 228.59 86.55 227.86 L 87.09 227.05 C 87.57 226.32 87.36 225.34 86.63 224.86 C 85.91 224.38 84.93 224.59 84.45 225.31 Z M 83.91 226.13 L 83.36 226.99 C 82.88 227.72 83.09 228.69 83.82 229.17 C 84.55 229.64 85.53 229.43 86.00 228.70 L 86.56 227.85 C 87.03 227.12 86.82 226.14 86.09 225.67 C 85.36 225.19 84.39 225.40 83.91 226.13 Z M 83.35 227.00 L 82.77 227.92 C 82.30 228.65 82.51 229.62 83.25 230.09 C 83.98 230.56 84.95 230.34 85.42 229.61 L 86.01 228.69 C 86.47 227.96 86.26 226.99 85.53 226.52 C 84.79 226.05 83.82 226.27 83.35 227.00 Z M 82.76 227.93 L 82.18 228.85 C 81.72 229.58 81.94 230.55 82.68 231.01 C 83.41 231.48 84.38 231.26 84.84 230.52 L 85.42 229.60 C 85.88 228.87 85.66 227.90 84.93 227.44 C 84.20 226.97 83.23 227.19 82.76 227.93 Z M 82.18 228.86 L 81.72 229.61 C 81.26 230.34 81.48 231.31 82.22 231.77 C 82.95 232.22 83.92 232.00 84.38 231.26 L 84.84 230.52 C 85.30 229.78 85.08 228.81 84.34 228.36 C 83.61 227.90 82.64 228.12 82.18 228.86 Z M 81.71 229.61 L 81.23 230.40 C 80.77 231.13 81.00 232.10 81.74 232.55 C 82.47 233.01 83.44 232.78 83.89 232.05 L 84.38 231.26 C 84.84 230.52 84.61 229.56 83.87 229.10 C 83.13 228.65 82.17 228.87 81.71 229.61 Z M 81.23 230.40 L 80.72 231.22 C 80.27 231.96 80.50 232.92 81.24 233.38 C 81.97 233.83 82.94 233.60 83.39 232.86 L 83.89 232.04 C 84.35 231.30 84.12 230.34 83.38 229.89 C 82.64 229.43 81.68 229.66 81.23 230.40 Z M 80.72 231.23 L 80.20 232.08 C 79.75 232.81 79.98 233.78 80.72 234.23 C 81.46 234.68 82.42 234.45 82.87 233.71 L 83.39 232.86 C 83.84 232.12 83.61 231.16 82.87 230.71 C 82.13 230.26 81.17 230.49 80.72 231.23 Z M 80.20 232.08 L 79.67 232.95 C 79.22 233.69 79.45 234.65 80.19 235.10 C 80.93 235.55 81.89 235.32 82.34 234.58 L 82.87 233.71 C 83.32 232.97 83.09 232.01 82.35 231.56 C 81.61 231.11 80.65 231.34 80.20 232.08 Z M 79.67 232.96 L 79.12 233.85 C 78.67 234.59 78.91 235.55 79.65 236.00 C 80.39 236.45 81.35 236.21 81.80 235.47 L 82.34 234.58 C 82.79 233.84 82.55 232.88 81.81 232.43 C 81.08 231.98 80.11 232.22 79.67 232.96 Z M 79.12 233.85 L 78.57 234.76 C 78.12 235.50 78.36 236.46 79.10 236.91 C 79.84 237.35 80.80 237.12 81.25 236.38 L 81.80 235.47 C 82.24 234.73 82.01 233.77 81.27 233.32 C 80.53 232.88 79.57 233.11 79.12 233.85 Z M 78.57 234.76 L 78.02 235.68 C 77.57 236.42 77.81 237.38 78.54 237.82 C 79.28 238.27 80.24 238.03 80.69 237.30 L 81.24 236.38 C 81.69 235.64 81.46 234.68 80.72 234.23 C 79.98 233.79 79.02 234.02 78.57 234.76 Z M 78.02 235.68 L 77.55 236.45 C 77.10 237.19 77.34 238.15 78.08 238.60 C 78.81 239.04 79.77 238.81 80.22 238.07 L 80.69 237.30 C 81.14 236.56 80.90 235.60 80.16 235.15 C 79.42 234.70 78.46 234.94 78.02 235.68 Z"
      fill="black"
      fill-rule="nonzero" /><path d="M 211.27 143.50 L 210.06 142.92 C 209.18 142.51 208.12 142.88 207.70 143.76 C 207.28 144.65 207.66 145.70 208.54 146.12 L 209.76 146.70 C 210.64 147.12 211.69 146.74 212.11 145.86 C 212.53 144.97 212.16 143.92 211.27 143.50 Z M 210.07 142.88 L 208.90 142.33 C 207.99 141.90 206.91 142.29 206.48 143.20 C 206.06 144.10 206.45 145.18 207.35 145.61 L 208.53 146.16 C 209.43 146.59 210.51 146.20 210.94 145.30 C 211.37 144.39 210.98 143.31 210.07 142.88 Z M 208.90 142.29 L 207.80 141.77 C 206.87 141.34 205.76 141.74 205.33 142.67 C 204.90 143.60 205.31 144.71 206.23 145.14 L 207.34 145.65 C 208.27 146.08 209.37 145.68 209.81 144.75 C 210.24 143.82 209.83 142.72 208.90 142.29 Z M 207.80 141.73 L 206.79 141.27 C 205.84 140.84 204.71 141.27 204.28 142.22 C 203.85 143.17 204.28 144.30 205.23 144.73 L 206.23 145.18 C 207.19 145.61 208.31 145.19 208.74 144.24 C 209.18 143.28 208.75 142.16 207.80 141.73 Z M 206.78 141.22 L 205.92 140.85 C 204.93 140.42 203.79 140.88 203.37 141.86 C 202.94 142.85 203.40 143.99 204.38 144.41 L 205.25 144.78 C 206.23 145.21 207.37 144.75 207.79 143.77 C 208.22 142.78 207.76 141.64 206.78 141.22 Z M 205.87 140.78 L 205.18 140.51 C 204.16 140.11 203.01 140.62 202.61 141.64 C 202.21 142.65 202.72 143.80 203.74 144.20 L 204.43 144.47 C 205.44 144.87 206.59 144.37 206.99 143.35 C 207.39 142.33 206.89 141.18 205.87 140.78 Z M 205.06 140.42 L 204.58 140.28 C 203.51 139.95 202.37 140.55 202.04 141.61 C 201.71 142.68 202.31 143.82 203.38 144.15 L 203.86 144.29 C 204.93 144.62 206.06 144.02 206.39 142.96 C 206.72 141.89 206.12 140.75 205.06 140.42 Z M 203.57 140.20 L 203.29 140.26 C 202.18 140.49 201.47 141.57 201.70 142.68 C 201.92 143.79 203.01 144.50 204.12 144.28 L 204.39 144.22 C 205.50 143.99 206.22 142.91 205.99 141.80 C 205.76 140.69 204.68 139.97 203.57 140.20 Z M 202.06 143.50 L 202.39 143.95 C 203.07 144.85 204.36 145.04 205.27 144.36 C 206.18 143.68 206.36 142.39 205.68 141.48 L 205.35 141.04 C 204.67 140.13 203.38 139.94 202.47 140.62 C 201.56 141.30 201.38 142.59 202.06 143.50 Z M 202.65 144.23 L 203.46 144.97 C 204.29 145.74 205.59 145.69 206.36 144.85 C 207.13 144.02 207.08 142.72 206.24 141.95 L 205.43 141.20 C 204.60 140.43 203.30 140.49 202.53 141.32 C 201.76 142.16 201.81 143.46 202.65 144.23 Z M 203.50 145.01 L 204.57 145.94 C 205.43 146.69 206.73 146.60 207.47 145.74 C 208.22 144.88 208.13 143.59 207.27 142.84 L 206.20 141.91 C 205.34 141.16 204.04 141.26 203.30 142.11 C 202.55 142.97 202.64 144.27 203.50 145.01 Z M 204.56 145.93 L 205.36 146.64 C 206.21 147.39 207.51 147.31 208.26 146.46 C 209.01 145.61 208.93 144.31 208.08 143.56 L 207.28 142.86 C 206.43 142.11 205.14 142.19 204.39 143.03 C 203.64 143.88 203.72 145.18 204.56 145.93 Z M 205.35 146.61 L 206.07 147.27 C 206.90 148.03 208.20 147.96 208.96 147.13 C 209.71 146.29 209.65 145.00 208.82 144.24 L 208.10 143.59 C 207.26 142.83 205.97 142.89 205.21 143.73 C 204.45 144.56 204.51 145.85 205.35 146.61 Z M 206.06 147.25 L 206.78 147.92 C 207.61 148.69 208.89 148.64 209.66 147.81 C 210.42 146.99 210.38 145.70 209.55 144.94 L 208.83 144.26 C 208.01 143.50 206.72 143.55 205.95 144.37 C 205.19 145.19 205.23 146.48 206.06 147.25 Z M 206.77 147.90 L 207.50 148.59 C 208.31 149.36 209.60 149.33 210.37 148.52 C 211.14 147.70 211.10 146.42 210.29 145.65 L 209.56 144.96 C 208.75 144.19 207.47 144.22 206.70 145.03 C 205.93 145.85 205.96 147.13 206.77 147.90 Z M 207.50 148.57 L 208.23 149.28 C 209.03 150.05 210.30 150.03 211.08 149.23 C 211.85 148.43 211.83 147.15 211.03 146.38 L 210.30 145.67 C 209.50 144.90 208.22 144.92 207.45 145.72 C 206.67 146.52 206.69 147.80 207.50 148.57 Z M 208.22 149.26 L 208.95 149.98 C 209.74 150.76 211.02 150.75 211.79 149.96 C 212.57 149.17 212.56 147.90 211.77 147.12 L 211.04 146.40 C 210.25 145.62 208.98 145.63 208.20 146.42 C 207.42 147.21 207.43 148.48 208.22 149.26 Z M 208.95 149.96 L 209.66 150.68 C 210.44 151.46 211.71 151.46 212.49 150.68 C 213.27 149.90 213.27 148.63 212.49 147.85 L 211.78 147.13 C 210.99 146.35 209.73 146.35 208.95 147.14 C 208.17 147.92 208.17 149.18 208.95 149.96 Z M 209.66 150.66 L 210.35 151.36 C 211.12 152.15 212.38 152.16 213.16 151.39 C 213.95 150.62 213.96 149.36 213.19 148.57 L 212.49 147.87 C 211.72 147.09 210.46 147.08 209.68 147.85 C 208.90 148.62 208.89 149.87 209.66 150.66 Z M 210.35 151.34 L 211.04 152.06 C 211.80 152.84 213.05 152.86 213.83 152.11 C 214.62 151.35 214.64 150.10 213.88 149.31 L 213.19 148.60 C 212.43 147.81 211.18 147.79 210.40 148.55 C 209.61 149.30 209.59 150.55 210.35 151.34 Z M 211.03 152.03 L 211.72 152.76 C 212.46 153.55 213.70 153.58 214.49 152.84 C 215.28 152.10 215.32 150.86 214.57 150.07 L 213.89 149.34 C 213.15 148.55 211.91 148.51 211.12 149.26 C 210.33 150.00 210.29 151.24 211.03 152.03 Z M 211.71 152.73 L 212.39 153.47 C 213.11 154.26 214.34 154.32 215.14 153.59 C 215.93 152.87 215.99 151.63 215.26 150.84 L 214.58 150.10 C 213.86 149.31 212.63 149.25 211.83 149.98 C 211.04 150.70 210.98 151.93 211.71 152.73 Z M 212.37 153.44 L 213.04 154.19 C 213.75 154.99 214.97 155.07 215.77 154.36 C 216.57 153.65 216.65 152.43 215.94 151.63 L 215.27 150.87 C 214.56 150.07 213.34 150.00 212.54 150.71 C 211.74 151.41 211.67 152.64 212.37 153.44 Z M 213.03 154.16 L 213.68 154.92 C 214.37 155.73 215.58 155.83 216.39 155.14 C 217.20 154.45 217.30 153.24 216.61 152.43 L 215.95 151.66 C 215.26 150.85 214.05 150.76 213.24 151.45 C 212.44 152.13 212.34 153.35 213.03 154.16 Z M 213.67 154.88 L 214.30 155.65 C 214.97 156.47 216.17 156.59 216.98 155.92 C 217.79 155.25 217.91 154.05 217.25 153.24 L 216.62 152.47 C 215.95 151.66 214.75 151.54 213.94 152.20 C 213.12 152.87 213.00 154.07 213.67 154.88 Z M 214.29 155.61 L 214.90 156.39 C 215.55 157.21 216.73 157.35 217.55 156.71 C 218.37 156.06 218.51 154.88 217.87 154.06 L 217.26 153.28 C 216.61 152.46 215.43 152.32 214.61 152.96 C 213.79 153.61 213.65 154.79 214.29 155.61 Z M 214.90 156.35 L 215.50 157.14 C 216.12 157.96 217.29 158.13 218.11 157.50 C 218.93 156.88 219.09 155.71 218.47 154.89 L 217.87 154.10 C 217.25 153.28 216.08 153.12 215.26 153.74 C 214.44 154.36 214.28 155.53 214.90 156.35 Z M 215.49 157.10 L 216.08 157.91 C 216.68 158.73 217.83 158.91 218.66 158.32 C 219.48 157.72 219.66 156.56 219.06 155.74 L 218.48 154.93 C 217.88 154.11 216.72 153.93 215.90 154.53 C 215.08 155.12 214.90 156.28 215.49 157.10 Z M 216.08 157.87 L 216.65 158.69 C 217.23 159.52 218.37 159.72 219.19 159.14 C 220.02 158.56 220.22 157.42 219.64 156.60 L 219.07 155.78 C 218.49 154.95 217.35 154.75 216.53 155.33 C 215.70 155.91 215.50 157.05 216.08 157.87 Z M 216.65 158.65 L 217.22 159.49 C 217.78 160.32 218.90 160.53 219.72 159.97 C 220.55 159.42 220.76 158.30 220.21 157.47 L 219.64 156.64 C 219.08 155.81 217.96 155.59 217.14 156.15 C 216.31 156.71 216.10 157.83 216.65 158.65 Z M 217.22 159.45 L 217.77 160.30 C 218.31 161.13 219.42 161.36 220.24 160.82 C 221.06 160.29 221.30 159.18 220.76 158.36 L 220.20 157.51 C 219.67 156.68 218.56 156.45 217.74 156.99 C 216.92 157.53 216.68 158.63 217.22 159.45 Z M 217.78 160.27 L 218.31 161.11 C 218.83 161.93 219.91 162.18 220.74 161.66 C 221.56 161.14 221.81 160.06 221.29 159.23 L 220.76 158.39 C 220.24 157.57 219.15 157.32 218.33 157.84 C 217.51 158.36 217.26 159.45 217.78 160.27 Z M 218.31 161.08 L 218.83 161.93 C 219.33 162.75 220.40 163.01 221.22 162.51 C 222.04 162.01 222.30 160.94 221.80 160.12 L 221.28 159.27 C 220.78 158.45 219.71 158.19 218.89 158.69 C 218.07 159.19 217.81 160.26 218.31 161.08 Z M 218.83 161.90 L 219.34 162.76 C 219.82 163.58 220.87 163.86 221.69 163.38 C 222.51 162.90 222.79 161.84 222.31 161.02 L 221.80 160.16 C 221.32 159.34 220.27 159.06 219.45 159.54 C 218.63 160.02 218.35 161.08 218.83 161.90 Z M 219.34 162.72 L 219.84 163.60 C 220.30 164.42 221.33 164.71 222.15 164.25 C 222.97 163.79 223.26 162.75 222.80 161.93 L 222.30 161.06 C 221.84 160.24 220.81 159.95 219.99 160.41 C 219.17 160.87 218.88 161.91 219.34 162.72 Z M 219.84 163.56 L 220.31 164.44 C 220.75 165.26 221.77 165.57 222.59 165.13 C 223.40 164.69 223.71 163.67 223.27 162.85 L 222.79 161.97 C 222.35 161.16 221.34 160.85 220.52 161.29 C 219.71 161.73 219.40 162.75 219.84 163.56 Z M 220.32 164.41 L 220.77 165.30 C 221.19 166.11 222.19 166.43 223.00 166.01 C 223.82 165.60 224.14 164.60 223.72 163.78 L 223.27 162.89 C 222.85 162.08 221.85 161.76 221.04 162.18 C 220.22 162.59 219.90 163.59 220.32 164.41 Z M 220.78 165.26 L 221.21 166.15 C 221.61 166.96 222.59 167.30 223.40 166.91 C 224.21 166.51 224.55 165.53 224.16 164.72 L 223.72 163.82 C 223.32 163.01 222.34 162.67 221.53 163.07 C 220.72 163.46 220.38 164.44 220.78 165.26 Z M 221.21 166.11 L 221.63 167.03 C 222.01 167.84 222.97 168.20 223.78 167.82 C 224.60 167.45 224.95 166.49 224.58 165.67 L 224.16 164.76 C 223.78 163.94 222.82 163.59 222.01 163.96 C 221.19 164.34 220.84 165.30 221.21 166.11 Z M 221.63 167.00 L 222.03 167.92 C 222.39 168.73 223.34 169.11 224.15 168.75 C 224.97 168.39 225.34 167.44 224.99 166.63 L 224.58 165.71 C 224.23 164.89 223.28 164.52 222.46 164.87 C 221.64 165.23 221.27 166.18 221.63 167.00 Z M 222.03 167.89 L 222.41 168.81 C 222.75 169.63 223.69 170.02 224.51 169.68 C 225.33 169.33 225.71 168.40 225.37 167.58 L 224.99 166.65 C 224.65 165.84 223.71 165.45 222.89 165.79 C 222.07 166.13 221.69 167.07 222.03 167.89 Z M 222.41 168.79 L 222.78 169.72 C 223.11 170.53 224.04 170.93 224.86 170.60 C 225.68 170.27 226.07 169.34 225.74 168.53 L 225.37 167.60 C 225.04 166.78 224.12 166.39 223.30 166.72 C 222.48 167.04 222.08 167.97 222.41 168.79 Z M 222.79 169.70 L 223.15 170.63 C 223.47 171.44 224.39 171.85 225.20 171.53 C 226.02 171.21 226.42 170.29 226.10 169.47 L 225.74 168.55 C 225.42 167.73 224.50 167.33 223.69 167.64 C 222.87 167.96 222.47 168.88 222.79 169.70 Z M 223.15 170.61 L 223.51 171.54 C 223.82 172.36 224.73 172.76 225.55 172.45 C 226.36 172.14 226.77 171.23 226.46 170.42 L 226.10 169.49 C 225.79 168.67 224.88 168.27 224.06 168.58 C 223.25 168.89 222.84 169.80 223.15 170.61 Z M 223.52 171.54 L 223.82 172.33 C 224.13 173.14 225.03 173.55 225.84 173.24 C 226.65 172.94 227.06 172.03 226.75 171.22 L 226.45 170.42 C 226.14 169.61 225.24 169.20 224.43 169.51 C 223.62 169.82 223.21 170.73 223.52 171.54 Z"
      fill="black"
      fill-rule="nonzero" /></svg>