<svg xmlns="http://www.w3.org/2000/svg" width="300" height="300" viewBox="0 0 300 300">
<path d="M 110.23 99.40 L 111.13 99.73 C 112.07 100.07 113.11 99.59 113.45 98.65 C 113.80 97.71 113.32 96.67 112.38 96.32 L 111.48 95.99 C 110.54 95.65 109.50 96.13 109.15 97.07 C 108.81 98.01 109.29 99.05 110.23 99.40 Z M 111.14 99.76 L 112.04 100.08 C 113.00 100.42 114.05 99.92 114.39 98.97 C 114.73 98.01 114.24 96.96 113.28 96.62 L 112.37 96.29 C 111.41 95.95 110.36 96.45 110.02 97.41 C 109.68 98.36 110.18 99.42 111.14 99.76 Z M 112.07 100.12 L 112.99 100.43 C 113.97 100.76 115.03 100.23 115.36 99.25 C 115.68 98.27 115.15 97.21 114.18 96.89 L 113.25 96.58 C 112.27 96.25 111.22 96.78 110.89 97.76 C 110.56 98.74 111.09 99.79 112.07 100.12 Z M 113.04 100.47 L 113.99 100.76 C 114.99 101.06 116.04 100.49 116.35 99.49 C 116.65 98.49 116.08 97.43 115.08 97.13 L 114.13 96.84 C 113.13 96.54 112.07 97.11 111.77 98.11 C 111.47 99.11 112.04 100.17 113.04 100.47 Z M 114.05 100.80 L 115.03 101.06 C 116.06 101.33 117.11 100.71 117.37 99.68 C 117.64 98.66 117.03 97.61 116.00 97.34 L 115.02 97.08 C 113.99 96.82 112.94 97.43 112.67 98.46 C 112.41 99.49 113.02 100.54 114.05 100.80 Z M 115.11 101.11 L 116.13 101.32 C 117.19 101.55 118.22 100.88 118.44 99.82 C 118.67 98.77 118.00 97.73 116.94 97.51 L 115.92 97.29 C 114.87 97.07 113.83 97.74 113.61 98.79 C 113.38 99.85 114.06 100.88 115.11 101.11 Z M 116.22 101.36 L 117.22 101.53 C 118.30 101.70 119.31 100.97 119.48 99.90 C 119.66 98.82 118.93 97.81 117.85 97.63 L 116.85 97.47 C 115.78 97.30 114.77 98.03 114.59 99.10 C 114.42 100.18 115.15 101.19 116.22 101.36 Z M 117.30 101.55 L 118.22 101.65 C 119.30 101.78 120.29 101.01 120.42 99.92 C 120.55 98.84 119.77 97.85 118.69 97.72 L 117.77 97.61 C 116.69 97.48 115.70 98.26 115.57 99.35 C 115.44 100.43 116.22 101.42 117.30 101.55 Z M 118.28 101.66 L 119.23 101.74 C 120.32 101.84 121.28 101.03 121.37 99.94 C 121.47 98.85 120.66 97.89 119.57 97.80 L 118.62 97.72 C 117.54 97.62 116.58 98.43 116.48 99.52 C 116.39 100.61 117.19 101.57 118.28 101.66 Z M 119.28 101.74 L 120.25 101.81 C 121.34 101.87 122.28 101.04 122.35 99.95 C 122.42 98.86 121.59 97.92 120.50 97.86 L 119.52 97.80 C 118.43 97.73 117.49 98.56 117.43 99.65 C 117.36 100.74 118.19 101.68 119.28 101.74 Z M 120.29 101.81 L 121.29 101.85 C 122.38 101.90 123.31 101.05 123.35 99.96 C 123.40 98.87 122.56 97.95 121.46 97.90 L 120.46 97.86 C 119.37 97.81 118.45 98.65 118.40 99.75 C 118.35 100.84 119.20 101.76 120.29 101.81 Z M 121.32 101.85 L 122.34 101.88 C 123.43 101.92 124.34 101.06 124.38 99.97 C 124.41 98.88 123.55 97.97 122.46 97.93 L 121.44 97.90 C 120.35 97.87 119.44 98.72 119.40 99.81 C 119.37 100.90 120.23 101.82 121.32 101.85 Z M 122.36 101.88 L 123.40 101.91 C 124.49 101.93 125.40 101.07 125.42 99.98 C 125.45 98.89 124.58 97.98 123.49 97.96 L 122.45 97.93 C 121.36 97.91 120.45 98.77 120.43 99.86 C 120.40 100.95 121.27 101.86 122.36 101.88 Z M 123.40 101.91 L 124.46 101.93 C 125.55 101.95 126.46 101.09 126.48 100.00 C 126.50 98.91 125.64 98.00 124.55 97.98 L 123.49 97.96 C 122.40 97.93 121.50 98.80 121.47 99.89 C 121.45 100.98 122.31 101.88 123.40 101.91 Z M 124.46 101.93 L 125.49 101.95 C 126.58 101.98 127.48 101.12 127.51 100.03 C 127.54 98.94 126.67 98.03 125.58 98.01 L 124.55 97.98 C 123.46 97.96 122.56 98.82 122.53 99.91 C 122.51 101.00 123.37 101.90 124.46 101.93 Z M 125.48 101.95 L 126.40 101.98 C 127.49 102.01 128.40 101.15 128.43 100.06 C 128.46 98.97 127.60 98.07 126.51 98.04 L 125.59 98.01 C 124.50 97.98 123.60 98.83 123.57 99.92 C 123.53 101.01 124.39 101.92 125.48 101.95 Z M 126.39 101.97 L 127.33 102.00 C 128.41 102.04 129.32 101.19 129.36 100.10 C 129.39 99.01 128.54 98.10 127.45 98.07 L 126.52 98.04 C 125.44 98.00 124.53 98.86 124.49 99.94 C 124.45 101.03 125.31 101.94 126.39 101.97 Z M 127.32 102.00 L 128.27 102.03 C 129.35 102.07 130.26 101.22 130.30 100.14 C 130.34 99.06 129.49 98.15 128.41 98.11 L 127.46 98.07 C 126.37 98.03 125.46 98.88 125.43 99.97 C 125.39 101.05 126.24 101.96 127.32 102.00 Z M 128.26 102.03 L 129.23 102.07 C 130.31 102.11 131.22 101.26 131.26 100.18 C 131.30 99.10 130.46 98.19 129.38 98.15 L 128.41 98.11 C 127.33 98.07 126.42 98.91 126.38 100.00 C 126.34 101.08 127.18 101.99 128.26 102.03 Z M 129.23 102.06 L 130.21 102.10 C 131.30 102.14 132.20 101.30 132.25 100.22 C 132.29 99.14 131.44 98.23 130.36 98.19 L 129.38 98.15 C 128.30 98.11 127.39 98.95 127.35 100.03 C 127.31 101.11 128.15 102.02 129.23 102.06 Z M 130.22 102.10 L 131.23 102.13 C 132.31 102.18 133.21 101.33 133.25 100.26 C 133.30 99.18 132.45 98.27 131.38 98.23 L 130.36 98.19 C 129.29 98.15 128.38 98.99 128.34 100.07 C 128.30 101.15 129.14 102.06 130.22 102.10 Z M 131.23 102.13 L 132.27 102.17 C 133.35 102.21 134.25 101.37 134.29 100.29 C 134.33 99.22 133.49 98.31 132.41 98.27 L 131.37 98.23 C 130.30 98.19 129.39 99.03 129.35 100.11 C 129.31 101.19 130.15 102.09 131.23 102.13 Z M 132.27 102.17 L 133.34 102.20 C 134.42 102.24 135.32 101.40 135.36 100.33 C 135.40 99.25 134.56 98.35 133.48 98.31 L 132.41 98.27 C 131.33 98.24 130.43 99.08 130.39 100.15 C 130.36 101.23 131.20 102.13 132.27 102.17 Z M 133.35 102.20 L 134.45 102.24 C 135.53 102.27 136.43 101.43 136.46 100.36 C 136.50 99.29 135.66 98.39 134.58 98.35 L 133.48 98.31 C 132.40 98.28 131.50 99.12 131.47 100.19 C 131.43 101.27 132.28 102.17 133.35 102.20 Z M 134.46 102.23 L 135.43 102.26 C 136.50 102.30 137.39 101.45 137.43 100.38 C 137.46 99.31 136.62 98.42 135.54 98.38 L 134.58 98.35 C 133.51 98.32 132.61 99.16 132.58 100.24 C 132.55 101.31 133.39 102.20 134.46 102.23 Z M 135.43 102.26 L 136.36 102.28 C 137.43 102.31 138.32 101.47 138.35 100.40 C 138.38 99.33 137.54 98.44 136.47 98.41 L 135.54 98.39 C 134.47 98.36 133.58 99.20 133.55 100.27 C 133.52 101.34 134.36 102.23 135.43 102.26 Z M 136.37 102.28 L 137.32 102.30 C 138.38 102.33 139.27 101.49 139.30 100.42 C 139.33 99.36 138.48 98.47 137.42 98.44 L 136.47 98.42 C 135.40 98.39 134.51 99.23 134.49 100.30 C 134.46 101.37 135.30 102.25 136.37 102.28 Z M 137.32 102.30 L 138.29 102.32 C 139.36 102.35 140.24 101.50 140.26 100.44 C 140.29 99.38 139.45 98.49 138.38 98.47 L 137.41 98.45 C 136.35 98.42 135.47 99.26 135.44 100.33 C 135.42 101.39 136.26 102.27 137.32 102.30 Z M 138.30 102.32 L 139.28 102.34 C 140.35 102.36 141.22 101.52 141.25 100.46 C 141.27 99.40 140.43 98.52 139.37 98.50 L 138.38 98.47 C 137.32 98.45 136.44 99.29 136.42 100.35 C 136.39 101.42 137.24 102.29 138.30 102.32 Z M 139.29 102.33 L 140.29 102.35 C 141.35 102.37 142.22 101.53 142.24 100.47 C 142.27 99.42 141.42 98.54 140.37 98.52 L 139.36 98.50 C 138.30 98.48 137.43 99.32 137.41 100.38 C 137.39 101.44 138.23 102.31 139.29 102.33 Z M 140.29 102.35 L 141.31 102.37 C 142.36 102.39 143.24 101.54 143.25 100.49 C 143.27 99.43 142.43 98.56 141.38 98.54 L 140.36 98.52 C 139.31 98.51 138.43 99.35 138.42 100.40 C 138.40 101.46 139.24 102.33 140.29 102.35 Z M 141.31 102.36 L 142.34 102.38 C 143.39 102.40 144.26 101.56 144.28 100.50 C 144.29 99.45 143.45 98.58 142.40 98.56 L 141.37 98.55 C 140.32 98.53 139.45 99.37 139.44 100.42 C 139.42 101.48 140.26 102.35 141.31 102.36 Z M 142.34 102.37 L 143.38 102.39 C 144.43 102.40 145.29 101.56 145.31 100.51 C 145.32 99.46 144.48 98.60 143.43 98.58 L 142.40 98.57 C 141.34 98.55 140.48 99.39 140.47 100.44 C 140.45 101.49 141.29 102.36 142.34 102.37 Z M 143.38 102.38 L 144.42 102.40 C 145.47 102.41 146.33 101.57 146.34 100.52 C 146.36 99.48 145.52 98.61 144.47 98.60 L 143.43 98.59 C 142.38 98.57 141.52 99.41 141.50 100.46 C 141.49 101.51 142.33 102.37 143.38 102.38 Z M 144.42 102.39 L 145.47 102.41 C 146.51 102.42 147.37 101.58 147.38 100.53 C 147.40 99.49 146.56 98.63 145.51 98.62 L 144.47 98.61 C 143.42 98.59 142.56 99.43 142.55 100.48 C 142.54 101.52 143.38 102.38 144.42 102.39 Z M 145.47 102.40 L 146.52 102.41 C 147.56 102.42 148.42 101.58 148.43 100.54 C 148.44 99.50 147.60 98.64 146.56 98.63 L 145.51 98.62 C 144.46 98.61 143.61 99.45 143.60 100.49 C 143.59 101.54 144.43 102.39 145.47 102.40 Z M 146.52 102.40 L 147.58 102.41 C 148.62 102.42 149.47 101.59 149.48 100.55 C 149.49 99.51 148.65 98.66 147.61 98.65 L 146.55 98.64 C 145.51 98.63 144.66 99.47 144.66 100.51 C 144.65 101.55 145.48 102.40 146.52 102.40 Z M 147.58 102.40 L 148.64 102.41 C 149.68 102.42 150.52 101.59 150.53 100.55 C 150.54 99.52 149.70 98.67 148.67 98.67 L 147.61 98.66 C 146.58 98.65 145.73 99.48 145.72 100.52 C 145.72 101.55 146.55 102.40 147.58 102.40 Z M 148.65 102.40 L 149.70 102.41 C 150.73 102.41 151.57 101.58 151.57 100.56 C 151.58 99.53 150.75 98.69 149.72 98.68 L 148.67 98.68 C 147.64 98.67 146.80 99.50 146.79 100.53 C 146.79 101.56 147.62 102.39 148.65 102.40 Z M 149.70 102.40 L 150.75 102.40 C 151.77 102.41 152.61 101.58 152.61 100.56 C 152.62 99.53 151.79 98.70 150.77 98.70 L 149.72 98.69 C 148.70 98.69 147.86 99.51 147.86 100.54 C 147.85 101.56 148.68 102.39 149.70 102.40 Z M 150.75 102.39 L 151.79 102.40 C 152.81 102.40 153.64 101.58 153.64 100.56 C 153.64 99.54 152.82 98.71 151.80 98.71 L 150.77 98.71 C 149.75 98.70 148.92 99.52 148.92 100.54 C 148.91 101.56 149.74 102.39 150.75 102.39 Z M 151.79 102.39 L 152.82 102.39 C 153.83 102.39 154.65 101.57 154.65 100.56 C 154.66 99.55 153.84 98.73 152.83 98.72 L 151.80 98.72 C 150.79 98.72 149.97 99.54 149.97 100.55 C 149.96 101.56 150.78 102.38 151.79 102.39 Z M 152.82 102.38 L 153.83 102.38 C 154.84 102.38 155.65 101.57 155.65 100.56 C 155.66 99.56 154.84 98.74 153.84 98.74 L 152.83 98.73 C 151.82 98.73 151.00 99.55 151.00 100.55 C 151.00 101.56 151.81 102.38 152.82 102.38 Z M 153.83 102.37 L 154.82 102.37 C 155.82 102.37 156.63 101.56 156.64 100.56 C 156.64 99.56 155.83 98.75 154.83 98.75 L 153.83 98.75 C 152.83 98.74 152.02 99.55 152.02 100.56 C 152.02 101.56 152.83 102.37 153.83 102.37 Z M 154.82 102.36 L 155.79 102.36 C 156.79 102.36 157.60 101.56 157.60 100.56 C 157.60 99.57 156.79 98.76 155.80 98.76 L 154.83 98.76 C 153.83 98.76 153.02 99.56 153.02 100.56 C 153.02 101.55 153.83 102.36 154.82 102.36 Z M 155.79 102.35 L 156.74 102.35 C 157.73 102.35 158.53 101.55 158.54 100.56 C 158.54 99.57 157.73 98.77 156.74 98.77 L 155.80 98.77 C 154.81 98.77 154.00 99.57 154.00 100.56 C 154.00 101.55 154.81 102.35 155.79 102.35 Z M 156.74 102.34 L 157.67 102.34 C 158.65 102.34 159.45 101.55 159.45 100.56 C 159.45 99.58 158.65 98.78 157.67 98.78 L 156.74 98.78 C 155.76 98.78 154.96 99.58 154.96 100.56 C 154.96 101.54 155.76 102.34 156.74 102.34 Z M 157.67 102.33 L 158.56 102.33 C 159.54 102.33 160.33 101.54 160.33 100.56 C 160.33 99.58 159.54 98.79 158.56 98.79 L 157.67 98.79 C 156.69 98.79 155.89 99.58 155.89 100.56 C 155.89 101.54 156.69 102.33 157.67 102.33 Z M 158.56 102.32 L 159.68 102.32 C 160.65 102.32 161.43 101.53 161.43 100.56 C 161.43 99.59 160.65 98.80 159.68 98.80 L 158.56 98.80 C 157.59 98.80 156.80 99.59 156.80 100.56 C 156.80 101.53 157.59 102.32 158.56 102.32 Z M 159.68 102.31 L 160.76 102.31 C 161.73 102.31 162.51 101.52 162.51 100.56 C 162.51 99.60 161.73 98.82 160.76 98.82 L 159.68 98.82 C 158.71 98.82 157.93 99.60 157.93 100.56 C 157.93 101.52 158.71 102.31 159.68 102.31 Z M 160.76 102.29 L 161.81 102.29 C 162.77 102.29 163.54 101.52 163.54 100.56 C 163.54 99.60 162.77 98.83 161.81 98.83 L 160.76 98.83 C 159.81 98.83 159.03 99.60 159.03 100.56 C 159.03 101.52 159.81 102.29 160.76 102.29 Z M 161.81 102.28 L 162.82 102.28 C 163.77 102.28 164.54 101.51 164.54 100.56 C 164.54 99.61 163.77 98.84 162.82 98.84 L 161.81 98.84 C 160.86 98.84 160.09 99.61 160.09 100.56 C 160.09 101.51 160.86 102.28 161.81 102.28 Z M 162.82 102.26 L 163.80 102.26 C 164.74 102.26 165.50 101.50 165.50 100.56 C 165.50 99.62 164.74 98.86 163.80 98.86 L 162.82 98.86 C 161.88 98.86 161.12 99.62 161.12 100.56 C 161.12 101.50 161.88 102.26 162.82 102.26 Z M 163.80 102.25 L 164.76 102.25 C 165.69 102.25 166.44 101.49 166.44 100.56 C 166.44 99.63 165.69 98.87 164.76 98.87 L 163.80 98.87 C 162.87 98.87 162.11 99.63 162.11 100.56 C 162.11 101.49 162.87 102.25 163.80 102.25 Z M 164.76 102.24 L 165.70 102.24 C 166.62 102.24 167.37 101.49 167.37 100.56 C 167.37 99.64 166.62 98.89 165.70 98.89 L 164.76 98.89 C 163.83 98.89 163.08 99.64 163.08 100.56 C 163.08 101.49 163.83 102.24 164.76 102.24 Z M 165.70 102.22 L 166.62 102.22 C 167.54 102.22 168.28 101.48 168.28 100.56 C 168.28 99.64 167.54 98.90 166.62 98.90 L 165.70 98.90 C 164.78 98.90 164.03 99.64 164.03 100.56 C 164.03 101.48 164.78 102.22 165.70 102.22 Z M 166.62 102.21 L 167.55 102.21 C 168.46 102.21 169.20 101.47 169.20 100.56 C 169.20 99.65 168.46 98.91 167.55 98.91 L 166.62 98.91 C 165.72 98.91 164.98 99.65 164.98 100.56 C 164.98 101.47 165.72 102.21 166.62 102.21 Z M 167.55 102.20 L 168.45 102.20 C 169.36 102.20 170.09 101.46 170.09 100.56 C 170.09 99.66 169.36 98.92 168.45 98.93 L 167.55 98.93 C 166.65 98.93 165.91 99.66 165.91 100.56 C 165.91 101.46 166.65 102.20 167.55 102.20 Z M 168.45 102.19 L 169.37 102.19 C 170.27 102.19 170.99 101.46 170.99 100.56 C 170.99 99.66 170.26 98.93 169.36 98.93 L 168.45 98.93 C 167.55 98.93 166.82 99.66 166.82 100.56 C 166.82 101.46 167.55 102.19 168.45 102.19 Z M 169.37 102.18 L 170.30 102.18 C 171.19 102.17 171.92 101.45 171.91 100.55 C 171.91 99.65 171.18 98.93 170.28 98.93 L 169.36 98.94 C 168.46 98.94 167.74 99.67 167.74 100.57 C 167.74 101.46 168.47 102.19 169.37 102.18 Z M 170.30 102.17 L 171.25 102.16 C 172.14 102.16 172.86 101.43 172.85 100.54 C 172.85 99.64 172.12 98.93 171.22 98.93 L 170.28 98.94 C 169.38 98.95 168.67 99.68 168.67 100.57 C 168.68 101.46 169.41 102.18 170.30 102.17 Z M 171.26 102.16 L 172.23 102.15 C 173.12 102.14 173.83 101.41 173.82 100.52 C 173.81 99.63 173.08 98.92 172.19 98.93 L 171.22 98.94 C 170.33 98.95 169.62 99.68 169.63 100.57 C 169.64 101.46 170.37 102.17 171.26 102.16 Z M 172.24 102.14 L 173.25 102.12 C 174.13 102.11 174.84 101.38 174.82 100.49 C 174.81 99.61 174.08 98.90 173.19 98.92 L 172.18 98.93 C 171.30 98.95 170.59 99.68 170.61 100.56 C 170.62 101.45 171.35 102.16 172.24 102.14 Z M 173.26 102.12 L 174.31 102.09 C 175.19 102.07 175.89 101.34 175.87 100.46 C 175.84 99.58 175.11 98.88 174.23 98.90 L 173.18 98.92 C 172.30 98.94 171.60 99.68 171.62 100.56 C 171.64 101.44 172.38 102.14 173.26 102.12 Z M 174.32 102.09 L 175.41 102.05 C 176.29 102.03 176.98 101.30 176.95 100.42 C 176.93 99.54 176.20 98.85 175.32 98.87 L 174.22 98.91 C 173.35 98.93 172.65 99.66 172.68 100.54 C 172.71 101.42 173.44 102.11 174.32 102.09 Z M 175.42 102.05 L 176.57 102.01 C 177.44 101.97 178.13 101.24 178.09 100.37 C 178.06 99.49 177.33 98.81 176.46 98.84 L 175.31 98.88 C 174.43 98.91 173.75 99.65 173.78 100.52 C 173.81 101.39 174.55 102.08 175.42 102.05 Z M 176.58 102.01 L 177.51 101.97 C 178.39 101.93 179.07 101.19 179.03 100.32 C 178.99 99.44 178.26 98.76 177.38 98.80 L 176.45 98.84 C 175.57 98.88 174.89 99.61 174.93 100.49 C 174.97 101.36 175.70 102.04 176.58 102.01 Z M 177.52 101.98 L 178.43 101.93 C 179.30 101.89 179.98 101.15 179.94 100.27 C 179.90 99.39 179.16 98.71 178.28 98.75 L 177.37 98.79 C 176.50 98.83 175.82 99.58 175.86 100.46 C 175.90 101.34 176.64 102.02 177.52 101.98 Z M 178.43 101.95 L 179.36 101.90 C 180.25 101.85 180.93 101.10 180.89 100.22 C 180.84 99.33 180.09 98.65 179.20 98.69 L 178.27 98.74 C 177.39 98.78 176.71 99.54 176.75 100.42 C 176.79 101.31 177.55 101.99 178.43 101.95 Z M 179.37 101.91 L 180.32 101.86 C 181.22 101.81 181.90 101.05 181.85 100.16 C 181.81 99.27 181.04 98.58 180.15 98.63 L 179.20 98.68 C 178.31 98.73 177.62 99.49 177.67 100.38 C 177.72 101.27 178.48 101.96 179.37 101.91 Z M 180.33 101.87 L 181.31 101.82 C 182.20 101.76 182.89 101.00 182.84 100.10 C 182.79 99.20 182.02 98.52 181.13 98.57 L 180.15 98.62 C 179.25 98.67 178.56 99.44 178.61 100.34 C 178.66 101.23 179.43 101.92 180.33 101.87 Z M 181.31 101.83 L 182.31 101.77 C 183.21 101.72 183.90 100.94 183.85 100.04 C 183.80 99.13 183.02 98.44 182.12 98.50 L 181.12 98.55 C 180.22 98.61 179.53 99.38 179.58 100.29 C 179.63 101.19 180.41 101.88 181.31 101.83 Z M 182.31 101.78 L 183.33 101.72 C 184.24 101.66 184.93 100.88 184.88 99.97 C 184.82 99.06 184.04 98.37 183.13 98.42 L 182.11 98.49 C 181.21 98.54 180.51 99.32 180.57 100.23 C 180.62 101.14 181.40 101.83 182.31 101.78 Z M 183.33 101.73 L 184.36 101.67 C 185.28 101.61 185.97 100.82 185.92 99.90 C 185.86 98.99 185.07 98.29 184.16 98.35 L 183.13 98.41 C 182.21 98.47 181.51 99.26 181.57 100.17 C 181.63 101.09 182.42 101.79 183.33 101.73 Z M 184.36 101.68 L 185.41 101.61 C 186.33 101.55 187.03 100.76 186.97 99.84 C 186.91 98.91 186.12 98.21 185.19 98.27 L 184.15 98.34 C 183.23 98.40 182.53 99.19 182.59 100.11 C 182.65 101.03 183.44 101.73 184.36 101.68 Z M 185.41 101.62 L 186.46 101.55 C 187.39 101.50 188.09 100.69 188.03 99.77 C 187.97 98.84 187.17 98.13 186.24 98.19 L 185.19 98.26 C 184.26 98.32 183.56 99.12 183.62 100.05 C 183.68 100.98 184.48 101.68 185.41 101.62 Z M 186.46 101.57 L 187.52 101.50 C 188.45 101.44 189.16 100.63 189.10 99.70 C 189.04 98.76 188.23 98.05 187.30 98.11 L 186.24 98.18 C 185.31 98.24 184.60 99.05 184.66 99.98 C 184.72 100.92 185.53 101.63 186.46 101.57 Z M 187.52 101.51 L 188.58 101.44 C 189.52 101.38 190.24 100.57 190.18 99.62 C 190.11 98.68 189.30 97.97 188.36 98.03 L 187.30 98.10 C 186.36 98.16 185.65 98.98 185.71 99.92 C 185.77 100.86 186.58 101.57 187.52 101.51 Z M 188.58 101.45 L 189.46 101.39 C 190.41 101.33 191.12 100.51 191.06 99.57 C 191.00 98.62 190.18 97.90 189.23 97.97 L 188.36 98.02 C 187.41 98.09 186.70 98.90 186.76 99.85 C 186.82 100.79 187.64 101.51 188.58 101.45 Z"
      fill="black"
      fill-rule="nonzero" /><path d="M 100.22 166.32 L 99.48 167.00 C 98.78 167.64 98.73 168.72 99.37 169.42 C 100.00 170.12 101.09 170.17 101.78 169.53 L 102.53 168.85 C 103.23 168.22 103.28 167.13 102.64 166.43 C 102.00 165.74 100.92 165.69 100.22 166.32 Z M 99.44 167.00 L 98.71 167.69 C 98.01 168.34 97.97 169.45 98.63 170.15 C 99.29 170.85 100.39 170.88 101.09 170.22 L 101.82 169.54 C 102.52 168.88 102.56 167.78 101.90 167.08 C 101.24 166.37 100.14 166.34 99.44 167.00 Z M 98.65 167.70 L 97.94 168.40 C 97.25 169.09 97.24 170.21 97.93 170.91 C 98.62 171.60 99.74 171.60 100.44 170.91 L 101.15 170.21 C 101.84 169.52 101.84 168.40 101.15 167.71 C 100.46 167.01 99.34 167.01 98.65 167.70 Z M 97.87 168.44 L 97.19 169.17 C 96.52 169.90 96.56 171.04 97.29 171.71 C 98.02 172.39 99.16 172.34 99.83 171.61 L 100.51 170.88 C 101.18 170.15 101.14 169.01 100.41 168.34 C 99.68 167.67 98.54 167.71 97.87 168.44 Z M 97.10 169.23 L 96.47 170.00 C 95.83 170.78 95.94 171.93 96.72 172.57 C 97.50 173.21 98.65 173.10 99.29 172.32 L 99.92 171.55 C 100.56 170.77 100.45 169.62 99.67 168.98 C 98.90 168.34 97.74 168.45 97.10 169.23 Z M 96.37 170.08 L 95.79 170.89 C 95.20 171.73 95.40 172.89 96.23 173.48 C 97.07 174.07 98.23 173.88 98.82 173.04 L 99.39 172.23 C 99.99 171.40 99.79 170.24 98.96 169.65 C 98.12 169.05 96.96 169.25 96.37 170.08 Z M 95.69 171.01 L 95.19 171.85 C 94.66 172.74 94.96 173.90 95.85 174.42 C 96.75 174.95 97.90 174.66 98.43 173.76 L 98.92 172.92 C 99.45 172.03 99.16 170.88 98.26 170.35 C 97.37 169.82 96.22 170.12 95.69 171.01 Z M 95.10 171.98 L 94.69 172.84 C 94.23 173.78 94.62 174.92 95.57 175.37 C 96.51 175.83 97.65 175.44 98.10 174.49 L 98.52 173.63 C 98.98 172.69 98.58 171.55 97.64 171.10 C 96.69 170.64 95.56 171.03 95.10 171.98 Z M 94.62 172.96 L 94.26 173.86 C 93.87 174.85 94.35 175.96 95.33 176.35 C 96.32 176.74 97.43 176.26 97.82 175.27 L 98.17 174.37 C 98.56 173.39 98.08 172.28 97.10 171.89 C 96.12 171.50 95.01 171.98 94.62 172.96 Z M 94.20 173.98 L 93.90 174.92 C 93.57 175.93 94.13 177.02 95.14 177.35 C 96.16 177.67 97.24 177.12 97.57 176.10 L 97.87 175.16 C 98.20 174.15 97.64 173.06 96.63 172.73 C 95.61 172.41 94.53 172.96 94.20 173.98 Z M 93.85 175.03 L 93.60 176.00 C 93.33 177.04 93.96 178.10 94.99 178.37 C 96.03 178.64 97.09 178.01 97.36 176.98 L 97.61 176.00 C 97.88 174.96 97.26 173.90 96.22 173.63 C 95.18 173.36 94.12 173.99 93.85 175.03 Z M 93.56 176.10 L 93.36 177.10 C 93.14 178.16 93.82 179.20 94.88 179.41 C 95.94 179.63 96.98 178.95 97.19 177.89 L 97.40 176.88 C 97.62 175.82 96.93 174.79 95.87 174.57 C 94.81 174.35 93.78 175.04 93.56 176.10 Z M 93.33 177.19 L 93.16 178.22 C 92.99 179.29 93.73 180.31 94.80 180.48 C 95.88 180.65 96.89 179.91 97.06 178.84 L 97.22 177.80 C 97.39 176.73 96.66 175.72 95.58 175.55 C 94.51 175.38 93.50 176.11 93.33 177.19 Z M 93.14 178.29 L 93.02 179.28 C 92.89 180.37 93.67 181.35 94.76 181.49 C 95.84 181.62 96.83 180.84 96.96 179.75 L 97.08 178.76 C 97.21 177.68 96.44 176.69 95.35 176.56 C 94.26 176.43 93.27 177.20 93.14 178.29 Z M 93.01 179.35 L 92.93 180.30 C 92.84 181.40 93.65 182.36 94.75 182.45 C 95.84 182.54 96.80 181.73 96.90 180.64 L 96.98 179.68 C 97.07 178.59 96.26 177.62 95.16 177.53 C 94.06 177.44 93.10 178.25 93.01 179.35 Z M 92.92 180.37 L 92.88 181.34 C 92.82 182.44 93.67 183.38 94.77 183.43 C 95.87 183.48 96.81 182.63 96.86 181.53 L 96.90 180.56 C 96.96 179.46 96.11 178.53 95.01 178.48 C 93.91 178.43 92.97 179.27 92.92 180.37 Z M 92.87 181.42 L 92.86 182.40 C 92.85 183.51 93.74 184.41 94.84 184.42 C 95.95 184.43 96.85 183.54 96.86 182.44 L 96.86 181.45 C 96.87 180.35 95.99 179.45 94.88 179.44 C 93.78 179.43 92.88 180.32 92.87 181.42 Z M 92.86 182.49 L 92.89 183.48 C 92.93 184.59 93.85 185.46 94.96 185.42 C 96.06 185.38 96.93 184.46 96.89 183.35 L 96.86 182.35 C 96.82 181.25 95.90 180.38 94.79 180.42 C 93.69 180.46 92.82 181.38 92.86 182.49 Z M 92.89 183.57 L 92.97 184.58 C 93.05 185.69 94.02 186.51 95.12 186.43 C 96.23 186.35 97.05 185.38 96.97 184.28 L 96.89 183.27 C 96.81 182.16 95.84 181.33 94.74 181.42 C 93.63 181.50 92.81 182.47 92.89 183.57 Z M 92.98 184.67 L 93.10 185.70 C 93.23 186.80 94.24 187.59 95.34 187.45 C 96.44 187.32 97.22 186.32 97.09 185.21 L 96.96 184.19 C 96.83 183.09 95.83 182.30 94.73 182.44 C 93.62 182.57 92.84 183.57 92.98 184.67 Z M 93.11 185.79 L 93.29 186.84 C 93.47 187.93 94.51 188.67 95.61 188.48 C 96.70 188.30 97.44 187.26 97.25 186.16 L 97.08 185.12 C 96.89 184.03 95.85 183.29 94.76 183.47 C 93.66 183.66 92.92 184.70 93.11 185.79 Z M 93.30 186.93 L 93.52 187.93 C 93.75 189.02 94.83 189.71 95.92 189.48 C 97.00 189.24 97.69 188.17 97.46 187.08 L 97.24 186.07 C 97.00 184.99 95.93 184.30 94.84 184.53 C 93.76 184.77 93.07 185.84 93.30 186.93 Z M 93.54 188.01 L 93.80 189.01 C 94.08 190.09 95.18 190.74 96.25 190.46 C 97.33 190.18 97.98 189.08 97.70 188.00 L 97.44 187.00 C 97.16 185.92 96.06 185.28 94.98 185.55 C 93.91 185.83 93.26 186.93 93.54 188.01 Z M 93.81 189.08 L 94.11 190.08 C 94.43 191.15 95.55 191.75 96.62 191.44 C 97.68 191.12 98.29 190.00 97.98 188.93 L 97.68 187.93 C 97.36 186.87 96.24 186.26 95.17 186.57 C 94.11 186.89 93.50 188.01 93.81 189.08 Z M 94.13 190.14 L 94.45 191.12 C 94.80 192.18 95.95 192.75 97.00 192.40 C 98.06 192.05 98.63 190.91 98.28 189.86 L 97.96 188.87 C 97.61 187.81 96.47 187.24 95.41 187.59 C 94.35 187.94 93.78 189.08 94.13 190.14 Z M 94.47 191.18 L 94.82 192.14 C 95.20 193.19 96.36 193.73 97.41 193.35 C 98.45 192.97 99.00 191.81 98.62 190.76 L 98.27 189.80 C 97.89 188.75 96.73 188.21 95.68 188.59 C 94.63 188.97 94.09 190.13 94.47 191.18 Z M 94.84 192.19 L 95.20 193.12 C 95.61 194.16 96.78 194.67 97.82 194.26 C 98.86 193.86 99.37 192.69 98.96 191.65 L 98.60 190.71 C 98.19 189.68 97.02 189.16 95.98 189.57 C 94.94 189.98 94.43 191.15 94.84 192.19 Z M 95.22 193.17 L 95.60 194.06 C 96.03 195.09 97.21 195.57 98.24 195.14 C 99.27 194.71 99.75 193.52 99.32 192.49 L 98.95 191.60 C 98.51 190.57 97.33 190.09 96.30 190.52 C 95.27 190.95 94.79 192.14 95.22 193.17 Z M 95.62 194.10 L 95.99 194.95 C 96.45 195.96 97.65 196.42 98.66 195.96 C 99.68 195.51 100.14 194.31 99.68 193.29 L 99.30 192.45 C 98.85 191.43 97.65 190.98 96.63 191.43 C 95.61 191.89 95.16 193.08 95.62 194.10 Z M 96.02 194.99 L 96.47 195.95 C 96.96 196.95 98.16 197.38 99.17 196.89 C 100.18 196.41 100.60 195.20 100.12 194.20 L 99.66 193.24 C 99.18 192.24 97.97 191.81 96.96 192.30 C 95.96 192.78 95.53 193.99 96.02 194.99 Z M 96.50 196.01 L 97.01 196.98 C 97.53 197.97 98.75 198.36 99.74 197.84 C 100.73 197.33 101.11 196.10 100.60 195.12 L 100.09 194.14 C 99.57 193.15 98.35 192.76 97.36 193.28 C 96.37 193.80 95.99 195.02 96.50 196.01 Z M 97.05 197.05 L 97.56 197.94 C 98.11 198.91 99.34 199.25 100.31 198.69 C 101.28 198.14 101.62 196.91 101.07 195.94 L 100.56 195.05 C 100.01 194.08 98.77 193.74 97.80 194.29 C 96.83 194.85 96.50 196.08 97.05 197.05 Z M 97.60 198.01 L 98.11 198.83 C 98.70 199.77 99.94 200.06 100.89 199.47 C 101.84 198.88 102.13 197.63 101.54 196.69 L 101.03 195.87 C 100.44 194.92 99.19 194.63 98.24 195.22 C 97.29 195.81 97.01 197.06 97.60 198.01 Z M 98.15 198.89 L 98.67 199.66 C 99.30 200.58 100.55 200.82 101.48 200.20 C 102.40 199.57 102.64 198.31 102.02 197.39 L 101.49 196.62 C 100.87 195.70 99.61 195.46 98.69 196.08 C 97.76 196.71 97.52 197.97 98.15 198.89 Z M 98.71 199.72 L 99.25 200.45 C 99.91 201.35 101.17 201.55 102.07 200.89 C 102.97 200.23 103.17 198.97 102.51 198.07 L 101.97 197.33 C 101.32 196.43 100.05 196.23 99.15 196.89 C 98.25 197.55 98.05 198.81 98.71 199.72 Z M 99.28 200.50 L 99.87 201.25 C 100.55 202.13 101.82 202.29 102.70 201.61 C 103.58 200.93 103.74 199.66 103.06 198.77 L 102.48 198.02 C 101.79 197.14 100.52 196.98 99.64 197.66 C 98.76 198.35 98.60 199.62 99.28 200.50 Z M 99.90 201.29 L 100.53 202.05 C 101.23 202.92 102.51 203.04 103.37 202.34 C 104.23 201.63 104.36 200.36 103.65 199.50 L 103.02 198.73 C 102.32 197.87 101.05 197.74 100.18 198.45 C 99.32 199.16 99.20 200.43 99.90 201.29 Z M 100.56 202.09 L 101.21 202.85 C 101.94 203.69 103.22 203.78 104.06 203.05 C 104.90 202.33 104.99 201.05 104.27 200.21 L 103.61 199.46 C 102.89 198.61 101.61 198.52 100.77 199.25 C 99.93 199.98 99.83 201.25 100.56 202.09 Z M 101.25 202.88 L 101.93 203.63 C 102.67 204.45 103.95 204.51 104.77 203.76 C 105.59 203.01 105.65 201.74 104.91 200.91 L 104.23 200.17 C 103.48 199.35 102.21 199.29 101.38 200.04 C 100.56 200.79 100.50 202.06 101.25 202.88 Z M 101.96 203.66 L 102.66 204.39 C 103.43 205.20 104.70 205.23 105.51 204.46 C 106.31 203.69 106.34 202.41 105.57 201.61 L 104.87 200.88 C 104.10 200.08 102.83 200.05 102.02 200.82 C 101.22 201.59 101.19 202.86 101.96 203.66 Z M 102.70 204.43 L 103.42 205.14 C 104.20 205.93 105.48 205.92 106.26 205.14 C 107.04 204.35 107.04 203.07 106.25 202.29 L 105.53 201.58 C 104.75 200.79 103.47 200.80 102.69 201.58 C 101.91 202.37 101.91 203.65 102.70 204.43 Z M 103.45 205.18 L 104.16 205.84 C 104.96 206.61 106.23 206.57 107.00 205.77 C 107.76 204.96 107.73 203.69 106.92 202.93 L 106.22 202.26 C 105.41 201.50 104.14 201.53 103.38 202.33 C 102.61 203.14 102.65 204.41 103.45 205.18 Z M 104.19 205.87 L 104.91 206.53 C 105.73 207.27 107.00 207.21 107.75 206.39 C 108.49 205.57 108.43 204.30 107.61 203.56 L 106.89 202.90 C 106.07 202.15 104.80 202.21 104.05 203.03 C 103.31 203.85 103.37 205.12 104.19 205.87 Z M 104.94 206.55 L 105.69 207.20 C 106.52 207.93 107.79 207.85 108.52 207.02 C 109.25 206.18 109.16 204.92 108.33 204.19 L 107.58 203.53 C 106.75 202.81 105.48 202.89 104.75 203.72 C 104.02 204.56 104.11 205.82 104.94 206.55 Z M 105.71 207.22 L 106.48 207.87 C 107.33 208.59 108.59 208.48 109.30 207.64 C 110.02 206.79 109.91 205.53 109.07 204.82 L 108.30 204.17 C 107.46 203.45 106.19 203.56 105.48 204.40 C 104.76 205.25 104.87 206.51 105.71 207.22 Z M 106.50 207.89 L 107.30 208.54 C 108.15 209.24 109.41 209.12 110.11 208.26 C 110.81 207.41 110.69 206.15 109.84 205.45 L 109.04 204.80 C 108.19 204.10 106.93 204.22 106.23 205.07 C 105.53 205.93 105.65 207.19 106.50 207.89 Z M 107.32 208.55 L 108.12 209.20 C 108.98 209.89 110.24 209.75 110.93 208.89 C 111.62 208.03 111.48 206.77 110.62 206.08 L 109.82 205.43 C 108.95 204.74 107.70 204.88 107.01 205.74 C 106.32 206.61 106.45 207.86 107.32 208.55 Z M 108.14 209.21 L 108.91 209.82 C 109.78 210.50 111.04 210.34 111.71 209.48 C 112.39 208.61 112.24 207.36 111.38 206.68 L 110.60 206.07 C 109.73 205.39 108.48 205.54 107.80 206.41 C 107.12 207.28 107.27 208.53 108.14 209.21 Z M 108.94 209.83 L 109.73 210.44 C 110.60 211.10 111.85 210.93 112.52 210.06 C 113.19 209.19 113.02 207.94 112.15 207.27 L 111.35 206.66 C 110.48 205.99 109.23 206.16 108.56 207.04 C 107.89 207.91 108.06 209.16 108.94 209.83 Z M 109.76 210.45 L 110.56 211.05 C 111.45 211.70 112.69 211.52 113.35 210.63 C 114.00 209.75 113.81 208.50 112.93 207.85 L 112.12 207.25 C 111.24 206.60 109.99 206.79 109.34 207.67 C 108.68 208.55 108.87 209.80 109.76 210.45 Z M 110.60 211.07 L 111.42 211.65 C 112.31 212.29 113.55 212.08 114.19 211.18 C 114.82 210.29 114.61 209.05 113.72 208.41 L 112.90 207.83 C 112.00 207.19 110.76 207.40 110.13 208.30 C 109.49 209.19 109.70 210.43 110.60 211.07 Z M 111.46 211.68 L 112.29 212.24 C 113.20 212.86 114.43 212.62 115.05 211.71 C 115.66 210.80 115.42 209.57 114.52 208.96 L 113.68 208.39 C 112.78 207.78 111.54 208.01 110.93 208.92 C 110.31 209.83 110.55 211.06 111.46 211.68 Z M 112.34 212.27 L 113.18 212.81 C 114.10 213.40 115.32 213.13 115.91 212.21 C 116.50 211.29 116.24 210.06 115.31 209.47 L 114.47 208.93 C 113.55 208.34 112.33 208.61 111.74 209.53 C 111.15 210.45 111.41 211.68 112.34 212.27 Z M 113.23 212.83 L 114.10 213.36 C 115.03 213.92 116.25 213.61 116.81 212.68 C 117.37 211.74 117.07 210.52 116.13 209.96 L 115.26 209.44 C 114.33 208.88 113.11 209.18 112.55 210.12 C 111.99 211.06 112.29 212.27 113.23 212.83 Z M 114.15 213.38 L 115.03 213.87 C 115.98 214.41 117.19 214.06 117.72 213.11 C 118.25 212.16 117.91 210.96 116.96 210.43 L 116.08 209.93 C 115.12 209.40 113.92 209.74 113.39 210.70 C 112.86 211.65 113.20 212.85 114.15 213.38 Z M 115.08 213.90 L 115.97 214.36 C 116.93 214.86 118.12 214.49 118.63 213.52 C 119.13 212.56 118.76 211.37 117.79 210.86 L 116.90 210.40 C 115.94 209.90 114.75 210.27 114.24 211.24 C 113.74 212.20 114.12 213.40 115.08 213.90 Z M 116.02 214.38 L 116.91 214.82 C 117.89 215.29 119.07 214.88 119.54 213.91 C 120.02 212.93 119.61 211.75 118.63 211.28 L 117.74 210.84 C 116.76 210.37 115.58 210.77 115.11 211.75 C 114.63 212.73 115.04 213.91 116.02 214.38 Z M 116.96 214.83 L 117.87 215.25 C 118.85 215.69 120.02 215.26 120.47 214.27 C 120.92 213.28 120.48 212.12 119.49 211.67 L 118.59 211.26 C 117.60 210.81 116.44 211.25 115.99 212.23 C 115.54 213.22 115.97 214.39 116.96 214.83 Z M 117.91 215.26 L 118.82 215.65 C 119.82 216.08 120.97 215.61 121.40 214.62 C 121.82 213.62 121.36 212.47 120.36 212.04 L 119.45 211.65 C 118.45 211.23 117.30 211.69 116.87 212.69 C 116.45 213.68 116.91 214.84 117.91 215.26 Z M 118.86 215.66 L 119.78 216.03 C 120.79 216.44 121.93 215.95 122.33 214.95 C 122.73 213.94 122.25 212.80 121.24 212.40 L 120.32 212.03 C 119.32 211.63 118.18 212.11 117.78 213.12 C 117.37 214.12 117.86 215.26 118.86 215.66 Z M 119.82 216.04 L 120.75 216.40 C 121.76 216.78 122.88 216.27 123.27 215.26 C 123.65 214.25 123.14 213.13 122.13 212.74 L 121.21 212.39 C 120.20 212.01 119.07 212.52 118.69 213.52 C 118.31 214.53 118.81 215.66 119.82 216.04 Z M 120.78 216.40 L 121.72 216.74 C 122.73 217.10 123.85 216.58 124.21 215.56 C 124.58 214.55 124.05 213.44 123.04 213.07 L 122.10 212.74 C 121.09 212.37 119.97 212.90 119.61 213.91 C 119.25 214.92 119.77 216.04 120.78 216.40 Z M 121.75 216.75 L 122.70 217.07 C 123.72 217.41 124.82 216.87 125.17 215.85 C 125.51 214.84 124.97 213.74 123.95 213.39 L 123.01 213.07 C 121.99 212.72 120.89 213.27 120.54 214.28 C 120.20 215.30 120.74 216.40 121.75 216.75 Z M 122.73 217.07 L 123.69 217.38 C 124.70 217.71 125.80 217.15 126.13 216.13 C 126.45 215.11 125.90 214.02 124.88 213.69 L 123.92 213.39 C 122.90 213.06 121.81 213.62 121.48 214.63 C 121.15 215.65 121.71 216.74 122.73 217.07 Z M 123.71 217.38 L 124.68 217.68 C 125.70 217.99 126.78 217.42 127.09 216.40 C 127.40 215.38 126.83 214.30 125.81 213.99 L 124.85 213.69 C 123.83 213.38 122.75 213.95 122.43 214.97 C 122.12 215.99 122.69 217.07 123.71 217.38 Z M 124.70 217.68 L 125.67 217.97 C 126.69 218.26 127.76 217.68 128.06 216.66 C 128.36 215.64 127.77 214.57 126.75 214.27 L 125.79 213.98 C 124.76 213.68 123.69 214.27 123.39 215.29 C 123.10 216.31 123.68 217.38 124.70 217.68 Z M 125.69 217.97 L 126.66 218.24 C 127.68 218.52 128.74 217.92 129.03 216.90 C 129.31 215.88 128.71 214.82 127.69 214.53 L 126.73 214.26 C 125.70 213.98 124.64 214.58 124.36 215.60 C 124.07 216.62 124.67 217.68 125.69 217.97 Z M 126.68 218.24 L 127.65 218.49 C 128.68 218.76 129.73 218.15 130.00 217.13 C 130.27 216.11 129.66 215.06 128.63 214.79 L 127.66 214.53 C 126.64 214.26 125.59 214.87 125.32 215.90 C 125.05 216.92 125.66 217.97 126.68 218.24 Z M 127.68 218.50 L 128.66 218.74 C 129.68 218.99 130.72 218.37 130.97 217.34 C 131.22 216.32 130.60 215.28 129.57 215.03 L 128.60 214.79 C 127.58 214.53 126.54 215.16 126.29 216.18 C 126.03 217.21 126.66 218.24 127.68 218.50 Z M 128.69 218.74 L 129.66 218.96 C 130.69 219.20 131.71 218.56 131.95 217.53 C 132.18 216.51 131.54 215.48 130.52 215.25 L 129.54 215.03 C 128.52 214.79 127.49 215.43 127.26 216.46 C 127.02 217.48 127.66 218.50 128.69 218.74 Z M 129.70 218.97 L 130.68 219.17 C 131.70 219.39 132.71 218.73 132.93 217.70 C 133.14 216.68 132.49 215.67 131.46 215.45 L 130.48 215.25 C 129.45 215.03 128.45 215.69 128.23 216.72 C 128.02 217.74 128.67 218.75 129.70 218.97 Z M 130.72 219.17 L 131.69 219.36 C 132.72 219.55 133.71 218.88 133.91 217.85 C 134.10 216.82 133.43 215.83 132.40 215.63 L 131.42 215.45 C 130.39 215.26 129.40 215.93 129.21 216.96 C 129.01 217.99 129.69 218.98 130.72 219.17 Z M 131.73 219.36 L 132.73 219.52 C 133.76 219.70 134.73 219.00 134.90 217.97 C 135.07 216.94 134.38 215.97 133.35 215.80 L 132.36 215.63 C 131.33 215.46 130.36 216.16 130.18 217.19 C 130.01 218.21 130.71 219.19 131.73 219.36 Z M 132.77 219.52 L 133.76 219.67 C 134.79 219.82 135.74 219.11 135.89 218.08 C 136.04 217.05 135.33 216.10 134.30 215.95 L 133.31 215.80 C 132.28 215.65 131.33 216.36 131.18 217.39 C 131.03 218.42 131.74 219.37 132.77 219.52 Z M 133.80 219.66 L 134.79 219.79 C 135.81 219.92 136.75 219.19 136.88 218.17 C 137.01 217.14 136.28 216.20 135.26 216.08 L 134.27 215.95 C 133.24 215.82 132.30 216.55 132.17 217.57 C 132.04 218.60 132.77 219.53 133.80 219.66 Z M 134.82 219.79 L 135.81 219.89 C 136.84 220.01 137.76 219.27 137.87 218.24 C 137.98 217.22 137.24 216.30 136.22 216.19 L 135.23 216.08 C 134.20 215.97 133.28 216.71 133.17 217.73 C 133.06 218.75 133.80 219.67 134.82 219.79 Z M 135.84 219.89 L 136.84 219.98 C 137.86 220.08 138.76 219.33 138.86 218.31 C 138.95 217.29 138.20 216.38 137.18 216.29 L 136.19 216.19 C 135.17 216.10 134.26 216.85 134.17 217.87 C 134.07 218.89 134.82 219.79 135.84 219.89 Z M 136.86 219.98 L 137.85 220.06 C 138.87 220.14 139.76 219.38 139.84 218.36 C 139.92 217.34 139.17 216.45 138.15 216.37 L 137.16 216.29 C 136.14 216.21 135.25 216.97 135.17 217.99 C 135.08 219.00 135.84 219.89 136.86 219.98 Z M 137.88 220.05 L 138.87 220.12 C 139.88 220.19 140.76 219.42 140.83 218.41 C 140.90 217.39 140.13 216.51 139.12 216.44 L 138.13 216.38 C 137.11 216.31 136.23 217.07 136.16 218.09 C 136.10 219.10 136.86 219.98 137.88 220.05 Z M 138.89 220.11 L 139.88 220.17 C 140.89 220.22 141.76 219.45 141.82 218.44 C 141.87 217.43 141.10 216.57 140.09 216.51 L 139.10 216.45 C 138.09 216.39 137.22 217.17 137.16 218.18 C 137.11 219.19 137.88 220.05 138.89 220.11 Z M 139.90 220.16 L 140.90 220.21 C 141.90 220.25 142.76 219.48 142.81 218.47 C 142.85 217.46 142.08 216.61 141.07 216.56 L 140.07 216.51 C 139.07 216.47 138.21 217.24 138.17 218.25 C 138.12 219.26 138.89 220.11 139.90 220.16 Z M 140.91 220.20 L 141.91 220.24 C 142.91 220.28 143.76 219.49 143.80 218.49 C 143.83 217.49 143.05 216.65 142.05 216.61 L 141.05 216.57 C 140.05 216.53 139.21 217.31 139.17 218.31 C 139.13 219.32 139.91 220.16 140.91 220.20 Z M 141.93 220.23 L 142.93 220.26 C 143.93 220.29 144.76 219.51 144.79 218.51 C 144.82 217.51 144.04 216.68 143.04 216.65 L 142.04 216.62 C 141.04 216.59 140.20 217.37 140.17 218.37 C 140.14 219.37 140.93 220.20 141.93 220.23 Z M 142.94 220.25 L 143.95 220.28 C 144.94 220.30 145.77 219.51 145.79 218.52 C 145.81 217.52 145.02 216.70 144.03 216.68 L 143.02 216.65 C 142.03 216.63 141.21 217.42 141.18 218.41 C 141.16 219.41 141.95 220.23 142.94 220.25 Z M 143.96 220.27 L 144.98 220.28 C 145.97 220.30 146.78 219.51 146.80 218.52 C 146.82 217.54 146.03 216.72 145.04 216.70 L 144.02 216.69 C 143.03 216.67 142.22 217.46 142.20 218.45 C 142.18 219.43 142.97 220.25 143.96 220.27 Z M 144.99 220.27 L 146.01 220.29 C 147.00 220.30 147.80 219.51 147.81 218.53 C 147.83 217.54 147.04 216.74 146.06 216.72 L 145.03 216.71 C 144.05 216.70 143.24 217.49 143.23 218.47 C 143.22 219.46 144.00 220.26 144.99 220.27 Z M 146.02 220.28 L 147.04 220.28 C 148.02 220.29 148.82 219.51 148.83 218.53 C 148.83 217.55 148.05 216.75 147.07 216.74 L 146.05 216.74 C 145.07 216.73 144.27 217.51 144.26 218.49 C 144.26 219.47 145.04 220.27 146.02 220.28 Z M 147.05 220.27 L 148.06 220.28 C 149.03 220.28 149.82 219.50 149.83 218.53 C 149.83 217.55 149.04 216.76 148.07 216.76 L 147.06 216.75 C 146.09 216.75 145.30 217.53 145.30 218.51 C 145.29 219.48 146.08 220.27 147.05 220.27 Z M 148.06 220.27 L 149.05 220.27 C 150.02 220.27 150.80 219.49 150.81 218.52 C 150.81 217.56 150.03 216.77 149.06 216.77 L 148.07 216.77 C 147.10 216.77 146.32 217.55 146.32 218.51 C 146.31 219.48 147.10 220.27 148.06 220.27 Z M 149.06 220.26 L 150.02 220.26 C 150.98 220.26 151.76 219.48 151.76 218.52 C 151.76 217.56 150.99 216.78 150.02 216.78 L 149.06 216.78 C 148.10 216.78 147.32 217.56 147.32 218.52 C 147.32 219.48 148.10 220.26 149.06 220.26 Z M 150.02 220.25 L 151.02 220.25 C 151.98 220.25 152.75 219.48 152.75 218.52 C 152.75 217.57 151.98 216.79 151.02 216.79 L 150.02 216.79 C 149.07 216.79 148.30 217.57 148.30 218.52 C 148.30 219.48 149.07 220.25 150.02 220.25 Z M 151.03 220.24 L 152.06 220.23 C 153.01 220.23 153.78 219.46 153.77 218.51 C 153.77 217.56 153.00 216.79 152.05 216.80 L 151.01 216.80 C 150.06 216.81 149.30 217.58 149.30 218.53 C 149.31 219.48 150.08 220.24 151.03 220.24 Z M 152.09 220.22 L 153.09 220.20 C 154.03 220.18 154.78 219.40 154.76 218.46 C 154.75 217.52 153.97 216.77 153.02 216.79 L 152.02 216.81 C 151.08 216.83 150.33 217.61 150.35 218.55 C 150.37 219.49 151.15 220.24 152.09 220.22 Z M 153.13 220.19 L 154.12 220.14 C 155.05 220.10 155.77 219.31 155.73 218.37 C 155.69 217.44 154.90 216.72 153.96 216.76 L 152.98 216.80 C 152.05 216.85 151.32 217.64 151.37 218.57 C 151.41 219.51 152.20 220.23 153.13 220.19 Z M 154.18 220.13 L 155.15 220.05 C 156.07 219.97 156.76 219.16 156.69 218.23 C 156.61 217.31 155.80 216.62 154.87 216.69 L 153.90 216.77 C 152.97 216.85 152.29 217.66 152.36 218.59 C 152.44 219.52 153.25 220.21 154.18 220.13 Z M 155.22 220.03 L 156.19 219.91 C 157.10 219.79 157.75 218.95 157.63 218.03 C 157.52 217.12 156.68 216.47 155.76 216.59 L 154.80 216.71 C 153.88 216.83 153.23 217.67 153.35 218.59 C 153.47 219.50 154.31 220.15 155.22 220.03 Z M 156.27 219.88 L 157.22 219.71 C 158.12 219.55 158.73 218.69 158.56 217.78 C 158.40 216.88 157.54 216.28 156.63 216.44 L 155.68 216.61 C 154.78 216.77 154.18 217.64 154.34 218.54 C 154.50 219.44 155.36 220.05 156.27 219.88 Z M 157.29 219.69 L 158.25 219.47 C 159.14 219.28 159.70 218.39 159.50 217.50 C 159.30 216.61 158.42 216.05 157.53 216.25 L 156.57 216.46 C 155.68 216.66 155.12 217.55 155.32 218.44 C 155.51 219.33 156.40 219.89 157.29 219.69 Z M 158.30 219.45 L 159.26 219.20 C 160.14 218.98 160.67 218.08 160.45 217.21 C 160.22 216.33 159.33 215.80 158.45 216.02 L 157.48 216.27 C 156.60 216.50 156.07 217.39 156.30 218.27 C 156.52 219.15 157.42 219.68 158.30 219.45 Z M 159.30 219.18 L 160.27 218.91 C 161.14 218.67 161.65 217.76 161.40 216.90 C 161.16 216.03 160.26 215.53 159.39 215.77 L 158.41 216.04 C 157.55 216.29 157.04 217.19 157.29 218.06 C 157.53 218.92 158.43 219.43 159.30 219.18 Z M 160.30 218.89 L 161.28 218.60 C 162.14 218.34 162.62 217.44 162.37 216.58 C 162.11 215.72 161.21 215.24 160.35 215.49 L 159.37 215.79 C 158.51 216.04 158.02 216.95 158.28 217.80 C 158.54 218.66 159.44 219.15 160.30 218.89 Z M 161.29 218.59 L 162.24 218.30 C 163.09 218.03 163.57 217.13 163.31 216.28 C 163.05 215.43 162.15 214.95 161.30 215.21 L 160.34 215.51 C 159.49 215.77 159.01 216.67 159.27 217.52 C 159.54 218.37 160.44 218.85 161.29 218.59 Z M 162.25 218.29 L 163.19 217.99 C 164.03 217.73 164.50 216.83 164.24 215.98 C 163.97 215.14 163.07 214.66 162.23 214.93 L 161.29 215.22 C 160.44 215.49 159.97 216.39 160.24 217.23 C 160.50 218.08 161.40 218.55 162.25 218.29 Z M 163.19 217.98 L 164.14 217.68 C 164.98 217.41 165.44 216.51 165.18 215.67 C 164.91 214.83 164.01 214.37 163.17 214.64 L 162.22 214.94 C 161.38 215.21 160.92 216.11 161.18 216.95 C 161.45 217.79 162.35 218.25 163.19 217.98 Z M 164.15 217.67 L 165.10 217.36 C 165.94 217.09 166.39 216.19 166.12 215.35 C 165.84 214.52 164.95 214.06 164.11 214.33 L 163.16 214.65 C 162.32 214.92 161.87 215.82 162.14 216.65 C 162.41 217.49 163.31 217.95 164.15 217.67 Z M 165.11 217.35 L 166.07 217.03 C 166.90 216.75 167.35 215.85 167.07 215.02 C 166.79 214.19 165.89 213.74 165.06 214.02 L 164.10 214.34 C 163.27 214.62 162.82 215.52 163.10 216.35 C 163.38 217.18 164.28 217.63 165.11 217.35 Z M 166.08 217.02 L 167.05 216.68 C 167.87 216.40 168.31 215.50 168.02 214.67 C 167.74 213.85 166.84 213.41 166.01 213.70 L 165.05 214.03 C 164.22 214.32 163.79 215.22 164.07 216.04 C 164.36 216.87 165.26 217.30 166.08 217.02 Z M 167.06 216.67 L 167.98 216.35 C 168.80 216.05 169.23 215.15 168.93 214.33 C 168.64 213.52 167.74 213.09 166.92 213.38 L 166.00 213.71 C 165.18 214.00 164.75 214.90 165.05 215.72 C 165.34 216.54 166.24 216.97 167.06 216.67 Z M 167.99 216.34 L 168.91 216.01 C 169.72 215.71 170.15 214.81 169.85 213.99 C 169.55 213.17 168.65 212.75 167.83 213.05 L 166.91 213.38 C 166.10 213.68 165.68 214.58 165.97 215.40 C 166.27 216.22 167.17 216.64 167.99 216.34 Z M 168.91 216.00 L 169.84 215.66 C 170.66 215.36 171.07 214.46 170.78 213.65 C 170.48 212.83 169.57 212.41 168.76 212.71 L 167.83 213.05 C 167.02 213.35 166.60 214.25 166.90 215.07 C 167.19 215.88 168.10 216.30 168.91 216.00 Z M 169.84 215.66 L 170.78 215.32 C 171.59 215.02 172.01 214.12 171.72 213.30 C 171.42 212.49 170.52 212.07 169.70 212.37 L 168.76 212.71 C 167.95 213.01 167.53 213.91 167.83 214.73 C 168.12 215.54 169.03 215.96 169.84 215.66 Z M 170.77 215.32 L 171.73 214.97 C 172.54 214.68 172.96 213.78 172.67 212.96 C 172.38 212.15 171.48 211.73 170.66 212.02 L 169.71 212.37 C 168.89 212.66 168.47 213.56 168.77 214.38 C 169.06 215.19 169.96 215.61 170.77 215.32 Z M 171.72 214.97 L 172.69 214.63 C 173.50 214.34 173.93 213.45 173.64 212.63 C 173.35 211.82 172.46 211.39 171.64 211.68 L 170.67 212.02 C 169.86 212.31 169.43 213.21 169.72 214.02 C 170.01 214.84 170.90 215.26 171.72 214.97 Z M 172.67 214.63 L 173.61 214.31 C 174.43 214.03 174.87 213.14 174.59 212.32 C 174.30 211.51 173.41 211.07 172.60 211.35 L 171.66 211.68 C 170.84 211.96 170.40 212.85 170.68 213.66 C 170.97 214.48 171.86 214.92 172.67 214.63 Z M 173.60 214.32 L 174.54 214.00 C 175.35 213.73 175.80 212.84 175.52 212.02 C 175.25 211.21 174.36 210.76 173.55 211.04 L 172.61 211.35 C 171.79 211.62 171.35 212.51 171.62 213.33 C 171.90 214.15 172.78 214.59 173.60 214.32 Z M 174.52 214.01 L 175.47 213.70 C 176.29 213.43 176.74 212.55 176.47 211.73 C 176.21 210.91 175.32 210.46 174.50 210.73 L 173.56 211.03 C 172.74 211.30 172.29 212.18 172.55 213.00 C 172.82 213.82 173.70 214.27 174.52 214.01 Z M 175.46 213.70 L 176.42 213.40 C 177.24 213.13 177.69 212.25 177.43 211.43 C 177.17 210.61 176.29 210.16 175.47 210.42 L 174.51 210.72 C 173.69 210.99 173.24 211.87 173.50 212.69 C 173.76 213.51 174.64 213.96 175.46 213.70 Z M 176.41 213.40 L 177.37 213.09 C 178.20 212.83 178.65 211.96 178.39 211.13 C 178.13 210.31 177.26 209.85 176.43 210.11 L 175.47 210.42 C 174.65 210.68 174.19 211.55 174.45 212.38 C 174.71 213.20 175.59 213.66 176.41 213.40 Z M 177.37 213.09 L 178.33 212.79 C 179.16 212.54 179.62 211.66 179.36 210.84 C 179.10 210.01 178.23 209.55 177.40 209.81 L 176.44 210.11 C 175.61 210.37 175.16 211.25 175.41 212.07 C 175.67 212.89 176.54 213.35 177.37 213.09 Z M 178.33 212.79 L 179.23 212.52 C 180.05 212.26 180.51 211.38 180.25 210.56 C 180.00 209.74 179.12 209.28 178.30 209.53 L 177.41 209.81 C 176.58 210.07 176.12 210.94 176.38 211.77 C 176.63 212.59 177.51 213.05 178.33 212.79 Z"
      fill="black"
      fill-rule="nonzero" /><path d="M 205.26 74.61 L 205.30 75.63 C 205.33 76.58 206.13 77.33 207.09 77.29 C 208.04 77.26 208.79 76.46 208.75 75.50 L 208.71 74.48 C 208.68 73.53 207.88 72.78 206.92 72.82 C 205.97 72.85 205.22 73.65 205.26 74.61 Z M 205.28 75.65 L 205.33 76.67 C 205.38 77.63 206.20 78.38 207.17 78.33 C 208.13 78.28 208.87 77.45 208.82 76.49 L 208.77 75.48 C 208.72 74.51 207.90 73.77 206.93 73.82 C 205.97 73.87 205.23 74.69 205.28 75.65 Z M 205.31 76.72 L 205.39 77.73 C 205.47 78.70 206.33 79.43 207.30 79.35 C 208.27 79.27 209.00 78.42 208.92 77.44 L 208.84 76.44 C 208.76 75.47 207.91 74.74 206.93 74.82 C 205.96 74.90 205.24 75.75 205.31 76.72 Z M 205.38 77.81 L 205.51 78.80 C 205.63 79.78 206.52 80.47 207.50 80.35 C 208.48 80.22 209.18 79.33 209.05 78.35 L 208.93 77.36 C 208.81 76.38 207.91 75.69 206.93 75.81 C 205.95 75.93 205.26 76.83 205.38 77.81 Z M 205.50 78.91 L 205.69 79.87 C 205.87 80.85 206.82 81.50 207.80 81.32 C 208.78 81.13 209.42 80.19 209.24 79.21 L 209.06 78.24 C 208.87 77.26 207.93 76.61 206.95 76.80 C 205.97 76.98 205.32 77.93 205.50 78.91 Z M 205.70 80.02 L 205.95 80.96 C 206.22 81.93 207.22 82.51 208.19 82.24 C 209.17 81.98 209.74 80.98 209.48 80.00 L 209.23 79.06 C 208.96 78.09 207.96 77.51 206.99 77.78 C 206.01 78.04 205.44 79.04 205.70 80.02 Z M 206.00 81.12 L 206.33 82.03 C 206.69 82.98 207.74 83.46 208.69 83.11 C 209.64 82.75 210.13 81.70 209.77 80.75 L 209.43 79.84 C 209.08 78.89 208.03 78.41 207.08 78.76 C 206.13 79.12 205.64 80.17 206.00 81.12 Z M 206.40 82.17 L 206.82 83.05 C 207.25 83.96 208.34 84.35 209.25 83.91 C 210.16 83.48 210.55 82.39 210.12 81.48 L 209.70 80.60 C 209.27 79.69 208.18 79.31 207.27 79.74 C 206.36 80.17 205.97 81.26 206.40 82.17 Z M 206.89 83.16 L 207.37 84.01 C 207.86 84.88 208.97 85.19 209.84 84.70 C 210.72 84.21 211.02 83.10 210.53 82.23 L 210.05 81.37 C 209.56 80.50 208.45 80.19 207.58 80.68 C 206.71 81.18 206.40 82.28 206.89 83.16 Z M 207.43 84.09 L 207.97 84.93 C 208.50 85.77 209.62 86.02 210.46 85.48 C 211.29 84.95 211.54 83.84 211.01 83.00 L 210.47 82.15 C 209.94 81.31 208.83 81.07 207.99 81.60 C 207.15 82.13 206.90 83.25 207.43 84.09 Z M 208.01 84.98 L 208.59 85.81 C 209.15 86.63 210.26 86.83 211.08 86.27 C 211.89 85.71 212.10 84.60 211.54 83.78 L 210.96 82.95 C 210.40 82.13 209.29 81.93 208.47 82.49 C 207.66 83.05 207.45 84.16 208.01 84.98 Z M 208.62 85.84 L 209.22 86.67 C 209.80 87.47 210.91 87.65 211.70 87.08 C 212.50 86.50 212.68 85.39 212.11 84.60 L 211.51 83.76 C 210.93 82.96 209.82 82.78 209.03 83.36 C 208.23 83.93 208.05 85.04 208.62 85.84 Z M 209.24 86.67 L 209.84 87.49 C 210.41 88.28 211.52 88.46 212.30 87.88 C 213.09 87.31 213.26 86.20 212.69 85.42 L 212.09 84.60 C 211.52 83.81 210.41 83.63 209.63 84.21 C 208.84 84.78 208.67 85.89 209.24 86.67 Z M 209.85 87.48 L 210.43 88.29 C 211.00 89.07 212.09 89.25 212.88 88.68 C 213.66 88.11 213.83 87.02 213.27 86.24 L 212.68 85.43 C 212.11 84.65 211.02 84.47 210.24 85.04 C 209.46 85.61 209.28 86.70 209.85 87.48 Z M 210.44 88.27 L 211.02 89.09 C 211.58 89.87 212.67 90.05 213.44 89.49 C 214.22 88.93 214.40 87.85 213.84 87.07 L 213.26 86.25 C 212.70 85.48 211.62 85.30 210.84 85.85 C 210.06 86.41 209.88 87.50 210.44 88.27 Z M 211.03 89.07 L 211.61 89.89 C 212.16 90.67 213.23 90.85 214.01 90.30 C 214.78 89.76 214.96 88.68 214.42 87.91 L 213.84 87.09 C 213.29 86.31 212.22 86.13 211.44 86.68 C 210.67 87.22 210.48 88.29 211.03 89.07 Z M 211.61 89.87 L 212.19 90.70 C 212.72 91.47 213.78 91.66 214.56 91.13 C 215.33 90.59 215.52 89.53 214.99 88.76 L 214.41 87.93 C 213.88 87.16 212.82 86.97 212.04 87.50 C 211.27 88.04 211.08 89.10 211.61 89.87 Z M 212.19 90.67 L 212.75 91.50 C 213.27 92.27 214.32 92.47 215.09 91.95 C 215.86 91.43 216.07 90.38 215.54 89.61 L 214.98 88.78 C 214.46 88.01 213.41 87.81 212.64 88.33 C 211.87 88.85 211.67 89.90 212.19 90.67 Z M 212.75 91.47 L 213.29 92.30 C 213.80 93.07 214.83 93.29 215.61 92.78 C 216.38 92.28 216.59 91.24 216.09 90.47 L 215.54 89.64 C 215.04 88.87 214.00 88.65 213.23 89.16 C 212.46 89.66 212.24 90.70 212.75 91.47 Z M 213.29 92.27 L 213.83 93.13 C 214.32 93.90 215.34 94.13 216.12 93.64 C 216.89 93.16 217.12 92.13 216.63 91.36 L 216.09 90.50 C 215.60 89.73 214.58 89.50 213.81 89.99 C 213.03 90.48 212.80 91.50 213.29 92.27 Z M 213.83 93.10 L 214.36 93.96 C 214.83 94.74 215.84 94.98 216.61 94.51 C 217.39 94.04 217.63 93.03 217.16 92.25 L 216.63 91.39 C 216.16 90.62 215.15 90.37 214.38 90.84 C 213.60 91.32 213.36 92.33 213.83 93.10 Z M 214.36 93.94 L 214.87 94.80 C 215.33 95.57 216.33 95.83 217.10 95.37 C 217.87 94.91 218.13 93.91 217.67 93.14 L 217.16 92.28 C 216.70 91.51 215.70 91.25 214.93 91.71 C 214.16 92.17 213.90 93.16 214.36 93.94 Z M 214.88 94.78 L 215.37 95.64 C 215.82 96.41 216.80 96.67 217.58 96.23 C 218.35 95.78 218.61 94.80 218.16 94.03 L 217.66 93.16 C 217.22 92.39 216.23 92.13 215.46 92.58 C 214.69 93.02 214.43 94.01 214.88 94.78 Z M 215.38 95.62 L 215.87 96.48 C 216.31 97.25 217.28 97.52 218.05 97.08 C 218.81 96.65 219.08 95.67 218.65 94.91 L 218.16 94.04 C 217.72 93.28 216.75 93.01 215.98 93.44 C 215.21 93.88 214.95 94.85 215.38 95.62 Z M 215.88 96.47 L 216.37 97.33 C 216.79 98.09 217.76 98.36 218.52 97.94 C 219.28 97.51 219.55 96.54 219.12 95.78 L 218.64 94.92 C 218.21 94.16 217.24 93.89 216.48 94.32 C 215.72 94.74 215.45 95.71 215.88 96.47 Z M 216.37 97.32 L 216.64 97.80 C 217.06 98.56 218.02 98.83 218.78 98.40 C 219.53 97.98 219.80 97.02 219.38 96.27 L 219.11 95.79 C 218.69 95.03 217.73 94.76 216.98 95.19 C 216.22 95.61 215.95 96.57 216.37 97.32 Z"
      fill="black"
      fill-rule="nonzero" /><path d="M 231.94 67.41 L 232.14 68.37 C 232.34 69.32 233.27 69.93 234.22 69.74 C 235.18 69.54 235.79 68.61 235.59 67.66 L 235.39 66.69 C 235.19 65.74 234.26 65.13 233.31 65.33 C 232.36 65.52 231.75 66.45 231.94 67.41 Z M 232.13 68.39 L 232.34 69.36 C 232.54 70.32 233.49 70.93 234.45 70.72 C 235.41 70.51 236.02 69.57 235.81 68.61 L 235.61 67.64 C 235.40 66.68 234.45 66.07 233.49 66.27 C 232.53 66.48 231.92 67.43 232.13 68.39 Z M 232.32 69.38 L 232.54 70.35 C 232.76 71.32 233.73 71.92 234.70 71.70 C 235.67 71.48 236.27 70.51 236.05 69.55 L 235.83 68.58 C 235.61 67.61 234.64 67.01 233.67 67.23 C 232.70 67.45 232.10 68.41 232.32 69.38 Z M 232.53 70.39 L 232.77 71.36 C 233.02 72.33 234.01 72.92 234.98 72.68 C 235.96 72.44 236.55 71.45 236.30 70.47 L 236.06 69.51 C 235.82 68.53 234.83 67.94 233.85 68.18 C 232.88 68.43 232.29 69.42 232.53 70.39 Z M 232.77 71.41 L 233.04 72.38 C 233.31 73.35 234.32 73.93 235.30 73.65 C 236.28 73.38 236.85 72.37 236.58 71.39 L 236.31 70.42 C 236.04 69.44 235.02 68.87 234.04 69.14 C 233.07 69.42 232.49 70.43 232.77 71.41 Z M 233.03 72.44 L 233.34 73.41 C 233.65 74.39 234.69 74.93 235.67 74.62 C 236.65 74.31 237.19 73.27 236.89 72.29 L 236.58 71.32 C 236.27 70.34 235.23 69.80 234.25 70.11 C 233.27 70.42 232.73 71.46 233.03 72.44 Z M 233.35 73.48 L 233.69 74.43 C 234.04 75.41 235.11 75.91 236.08 75.57 C 237.06 75.22 237.56 74.15 237.22 73.17 L 236.88 72.22 C 236.53 71.25 235.46 70.74 234.48 71.08 C 233.51 71.43 233.00 72.50 233.35 73.48 Z M 233.71 74.50 L 234.09 75.43 C 234.47 76.39 235.56 76.85 236.52 76.47 C 237.48 76.09 237.95 75.00 237.56 74.04 L 237.19 73.11 C 236.81 72.15 235.72 71.68 234.76 72.06 C 233.80 72.45 233.33 73.54 233.71 74.50 Z M 234.12 75.48 L 234.52 76.40 C 234.93 77.34 236.03 77.77 236.97 77.36 C 237.91 76.95 238.34 75.86 237.93 74.92 L 237.53 73.99 C 237.12 73.05 236.02 72.62 235.08 73.03 C 234.14 73.44 233.71 74.53 234.12 75.48 Z M 234.55 76.44 L 234.98 77.36 C 235.41 78.28 236.51 78.68 237.44 78.25 C 238.36 77.82 238.76 76.72 238.33 75.79 L 237.90 74.88 C 237.47 73.95 236.37 73.55 235.45 73.98 C 234.52 74.41 234.12 75.51 234.55 76.44 Z M 235.00 77.39 L 235.45 78.29 C 235.90 79.20 237.00 79.58 237.91 79.13 C 238.82 78.69 239.20 77.58 238.75 76.67 L 238.31 75.77 C 237.86 74.85 236.76 74.48 235.85 74.92 C 234.93 75.37 234.56 76.47 235.00 77.39 Z M 235.47 78.31 L 235.92 79.20 C 236.38 80.10 237.48 80.46 238.38 80.00 C 239.28 79.54 239.64 78.44 239.18 77.54 L 238.73 76.65 C 238.27 75.75 237.17 75.40 236.27 75.85 C 235.37 76.31 235.01 77.41 235.47 78.31 Z M 235.94 79.21 L 236.40 80.08 C 236.86 80.97 237.96 81.32 238.85 80.86 C 239.74 80.39 240.08 79.29 239.62 78.40 L 239.16 77.53 C 238.70 76.64 237.60 76.30 236.71 76.76 C 235.82 77.23 235.48 78.32 235.94 79.21 Z M 236.42 80.09 L 236.88 80.97 C 237.35 81.85 238.44 82.18 239.31 81.72 C 240.19 81.26 240.53 80.17 240.07 79.29 L 239.60 78.40 C 239.13 77.52 238.05 77.19 237.17 77.65 C 236.29 78.12 235.95 79.21 236.42 80.09 Z M 236.91 80.96 L 237.38 81.85 C 237.84 82.72 238.91 83.05 239.78 82.59 C 240.65 82.13 240.98 81.05 240.52 80.19 L 240.04 79.30 C 239.58 78.43 238.51 78.10 237.64 78.56 C 236.78 79.02 236.45 80.09 236.91 80.96 Z M 237.41 81.84 L 237.87 82.72 C 238.32 83.57 239.38 83.89 240.23 83.44 C 241.08 82.98 241.41 81.93 240.95 81.08 L 240.49 80.20 C 240.04 79.35 238.98 79.02 238.13 79.48 C 237.28 79.93 236.95 80.99 237.41 81.84 Z M 237.90 82.70 L 238.36 83.57 C 238.80 84.41 239.84 84.73 240.68 84.28 C 241.52 83.84 241.84 82.80 241.39 81.96 L 240.93 81.09 C 240.49 80.25 239.45 79.93 238.61 80.38 C 237.77 80.82 237.45 81.86 237.90 82.70 Z M 238.38 83.55 L 238.84 84.43 C 239.28 85.25 240.30 85.57 241.12 85.13 C 241.95 84.70 242.26 83.68 241.83 82.85 L 241.37 81.98 C 240.93 81.16 239.91 80.84 239.09 81.27 C 238.26 81.71 237.95 82.73 238.38 83.55 Z M 238.86 84.41 L 239.32 85.29 C 239.75 86.10 240.75 86.42 241.56 86.00 C 242.37 85.57 242.69 84.57 242.27 83.76 L 241.81 82.88 C 241.38 82.06 240.38 81.75 239.57 82.17 C 238.76 82.59 238.44 83.59 238.86 84.41 Z M 239.34 85.27 L 239.80 86.17 C 240.21 86.97 241.20 87.28 242.00 86.87 C 242.80 86.46 243.12 85.48 242.71 84.68 L 242.25 83.78 C 241.84 82.98 240.85 82.66 240.05 83.08 C 239.25 83.49 238.93 84.47 239.34 85.27 Z M 239.81 86.15 L 240.25 87.01 C 240.65 87.80 241.62 88.12 242.41 87.72 C 243.21 87.32 243.53 86.35 243.13 85.55 L 242.69 84.70 C 242.29 83.90 241.32 83.58 240.53 83.98 C 239.73 84.38 239.41 85.35 239.81 86.15 Z M 240.25 86.99 L 240.69 87.87 C 241.08 88.67 242.05 88.99 242.84 88.59 C 243.63 88.20 243.96 87.24 243.56 86.44 L 243.12 85.56 C 242.73 84.77 241.77 84.45 240.97 84.84 C 240.18 85.24 239.86 86.20 240.25 86.99 Z M 240.69 87.86 L 241.13 88.76 C 241.52 89.55 242.48 89.87 243.27 89.48 C 244.06 89.09 244.39 88.14 244.00 87.35 L 243.56 86.45 C 243.17 85.66 242.21 85.34 241.42 85.73 C 240.63 86.11 240.30 87.07 240.69 87.86 Z M 241.14 88.75 L 241.58 89.65 C 241.96 90.44 242.92 90.77 243.70 90.38 C 244.49 90.00 244.82 89.05 244.43 88.26 L 243.99 87.35 C 243.61 86.57 242.66 86.24 241.87 86.62 C 241.08 87.01 240.75 87.96 241.14 88.75 Z M 241.59 89.65 L 242.03 90.56 C 242.41 91.35 243.36 91.67 244.14 91.29 C 244.93 90.91 245.25 89.97 244.87 89.18 L 244.43 88.27 C 244.05 87.48 243.10 87.15 242.32 87.54 C 241.53 87.92 241.20 88.86 241.59 89.65 Z M 242.04 90.56 L 242.48 91.48 C 242.86 92.26 243.80 92.59 244.58 92.21 C 245.36 91.83 245.69 90.89 245.31 90.11 L 244.87 89.19 C 244.49 88.41 243.55 88.08 242.77 88.46 C 241.99 88.83 241.66 89.77 242.04 90.56 Z M 242.49 91.47 L 242.84 92.20 C 243.22 92.98 244.15 93.30 244.93 92.93 C 245.71 92.55 246.03 91.62 245.66 90.84 L 245.31 90.11 C 244.93 89.34 243.99 89.01 243.22 89.38 C 242.44 89.76 242.11 90.70 242.49 91.47 Z"
      fill="black"
      fill-rule="nonzero" /></svg>