<svg xmlns="http://www.w3.org/2000/svg" width="300" height="300" viewBox="0 0 300 300">
<path d="M 94.76 143.01 L 93.73 143.01 C 92.81 143.01 92.08 143.75 92.08 144.66 C 92.08 145.57 92.82 146.31 93.73 146.31 L 94.76 146.31 C 95.67 146.31 96.41 145.57 96.41 144.66 C 96.41 143.75 95.67 143.01 94.76 143.01 Z M 93.72 142.99 L 92.69 142.99 C 91.77 143.00 91.03 143.75 91.03 144.67 C 91.03 145.59 91.78 146.33 92.70 146.33 L 93.73 146.32 C 94.65 146.32 95.40 145.57 95.39 144.65 C 95.39 143.73 94.64 142.99 93.72 142.99 Z M 92.68 142.98 L 91.66 142.99 C 90.73 142.99 89.99 143.75 89.99 144.68 C 90.00 145.61 90.76 146.36 91.69 146.35 L 92.71 146.34 C 93.64 146.34 94.39 145.58 94.38 144.65 C 94.37 143.72 93.61 142.97 92.68 142.98 Z M 91.65 142.97 L 90.64 142.98 C 89.70 143.00 88.95 143.77 88.96 144.71 C 88.98 145.65 89.75 146.40 90.69 146.38 L 91.70 146.37 C 92.64 146.35 93.39 145.58 93.38 144.64 C 93.36 143.71 92.59 142.96 91.65 142.97 Z M 90.62 142.97 L 89.62 142.99 C 88.67 143.02 87.93 143.80 87.95 144.75 C 87.97 145.70 88.76 146.45 89.71 146.42 L 90.71 146.40 C 91.65 146.38 92.40 145.59 92.38 144.64 C 92.36 143.69 91.57 142.94 90.62 142.97 Z M 89.60 142.98 L 88.62 143.01 C 87.66 143.05 86.92 143.85 86.95 144.81 C 86.99 145.77 87.79 146.51 88.75 146.48 L 89.73 146.44 C 90.69 146.40 91.43 145.60 91.40 144.64 C 91.36 143.69 90.56 142.94 89.60 142.98 Z M 88.59 143.00 L 87.63 143.05 C 86.66 143.10 85.92 143.93 85.98 144.89 C 86.03 145.86 86.85 146.60 87.82 146.54 L 88.78 146.49 C 89.74 146.44 90.48 145.62 90.43 144.65 C 90.38 143.69 89.56 142.95 88.59 143.00 Z M 87.59 143.03 L 86.47 143.11 C 85.50 143.19 84.77 144.04 84.84 145.01 C 84.91 145.99 85.76 146.72 86.74 146.65 L 87.86 146.56 C 88.83 146.49 89.56 145.64 89.49 144.66 C 89.42 143.69 88.57 142.96 87.59 143.03 Z M 86.42 143.09 L 84.99 143.24 C 84.00 143.34 83.28 144.23 83.39 145.22 C 83.49 146.21 84.38 146.93 85.37 146.83 L 86.79 146.68 C 87.79 146.57 88.50 145.68 88.40 144.69 C 88.30 143.70 87.41 142.98 86.42 143.09 Z M 84.92 143.20 L 83.70 143.38 C 82.69 143.52 81.99 144.46 82.13 145.47 C 82.28 146.48 83.22 147.18 84.23 147.04 L 85.44 146.86 C 86.46 146.72 87.16 145.78 87.01 144.77 C 86.87 143.76 85.93 143.06 84.92 143.20 Z M 83.60 143.35 L 82.69 143.53 C 81.66 143.73 80.99 144.73 81.20 145.75 C 81.40 146.78 82.39 147.44 83.42 147.24 L 84.33 147.06 C 85.36 146.86 86.02 145.86 85.82 144.84 C 85.62 143.81 84.62 143.15 83.60 143.35 Z M 82.44 143.55 L 81.94 143.72 C 80.92 144.05 80.38 145.15 80.71 146.16 C 81.05 147.18 82.15 147.73 83.16 147.39 L 83.66 147.22 C 84.68 146.88 85.23 145.79 84.89 144.77 C 84.55 143.76 83.46 143.21 82.44 143.55 Z M 80.59 145.76 L 80.61 145.91 C 80.72 146.99 81.69 147.77 82.78 147.65 C 83.86 147.54 84.64 146.57 84.52 145.48 L 84.51 145.34 C 84.39 144.26 83.42 143.48 82.34 143.60 C 81.26 143.71 80.48 144.68 80.59 145.76 Z M 82.21 147.65 L 82.79 147.76 C 83.86 147.95 84.90 147.24 85.10 146.16 C 85.30 145.08 84.58 144.05 83.50 143.85 L 82.92 143.74 C 81.84 143.54 80.81 144.26 80.61 145.34 C 80.41 146.42 81.13 147.45 82.21 147.65 Z M 83.00 147.79 L 84.03 147.87 C 85.13 147.94 86.09 147.11 86.16 146.01 C 86.24 144.91 85.41 143.96 84.31 143.88 L 83.28 143.81 C 82.18 143.73 81.23 144.56 81.15 145.66 C 81.07 146.76 81.90 147.72 83.00 147.79 Z M 84.10 147.88 L 85.45 147.93 C 86.56 147.97 87.49 147.10 87.52 145.99 C 87.56 144.88 86.70 143.95 85.59 143.92 L 84.24 143.87 C 83.13 143.83 82.20 144.70 82.17 145.80 C 82.13 146.91 82.99 147.84 84.10 147.88 Z M 85.48 147.94 L 86.87 147.96 C 87.99 147.99 88.91 147.10 88.93 145.99 C 88.95 144.87 88.06 143.95 86.95 143.93 L 85.56 143.91 C 84.44 143.88 83.52 144.77 83.50 145.88 C 83.48 147.00 84.37 147.92 85.48 147.94 Z M 86.89 147.97 L 87.89 147.98 C 89.00 147.99 89.92 147.10 89.93 145.99 C 89.95 144.87 89.05 143.95 87.94 143.94 L 86.94 143.93 C 85.82 143.91 84.91 144.81 84.89 145.92 C 84.88 147.04 85.77 147.95 86.89 147.97 Z M 87.90 147.98 L 88.92 147.99 C 90.03 148.00 90.95 147.10 90.95 145.99 C 90.96 144.87 90.07 143.96 88.95 143.95 L 87.93 143.94 C 86.82 143.93 85.90 144.83 85.89 145.94 C 85.88 147.06 86.78 147.97 87.90 147.98 Z M 88.92 147.99 L 89.95 148.00 C 91.07 148.00 91.98 147.10 91.98 145.99 C 91.99 144.87 91.09 143.96 89.98 143.96 L 88.95 143.95 C 87.83 143.94 86.92 144.84 86.91 145.96 C 86.91 147.07 87.81 147.98 88.92 147.99 Z M 89.96 148.00 L 90.98 148.00 C 92.10 148.00 93.00 147.10 93.01 145.99 C 93.01 144.87 92.11 143.96 90.99 143.96 L 89.97 143.96 C 88.85 143.95 87.95 144.85 87.94 145.97 C 87.94 147.08 88.84 147.99 89.96 148.00 Z M 90.98 148.00 L 91.99 148.00 C 93.10 148.00 94.01 147.10 94.01 145.98 C 94.01 144.87 93.11 143.96 91.99 143.96 L 90.99 143.96 C 89.87 143.96 88.97 144.86 88.97 145.98 C 88.96 147.09 89.87 148.00 90.98 148.00 Z M 91.99 148.00 L 92.96 148.00 C 94.08 148.00 94.98 147.10 94.98 145.98 C 94.98 144.87 94.08 143.96 92.96 143.96 L 91.99 143.96 C 90.88 143.96 89.97 144.86 89.97 145.98 C 89.97 147.09 90.87 148.00 91.99 148.00 Z M 92.96 148.00 L 93.94 148.00 C 95.06 148.00 95.96 147.10 95.96 145.98 C 95.96 144.87 95.06 143.96 93.94 143.96 L 92.96 143.96 C 91.85 143.96 90.94 144.87 90.94 145.98 C 90.94 147.10 91.85 148.00 92.96 148.00 Z M 93.94 148.00 L 95.01 148.00 C 96.13 148.00 97.03 147.10 97.03 145.98 C 97.03 144.87 96.13 143.96 95.01 143.96 L 93.94 143.96 C 92.83 143.96 91.93 144.87 91.93 145.98 C 91.93 147.10 92.83 148.00 93.94 148.00 Z M 95.01 148.00 L 96.02 148.00 C 97.14 148.00 98.04 147.10 98.04 145.98 C 98.04 144.87 97.14 143.96 96.02 143.96 L 95.01 143.96 C 93.90 143.96 92.99 144.87 92.99 145.98 C 92.99 147.10 93.90 148.00 95.01 148.00 Z M 96.02 148.00 L 97.00 148.00 C 98.11 148.00 99.02 147.10 99.02 145.98 C 99.02 144.87 98.11 143.96 97.00 143.96 L 96.02 143.96 C 94.91 143.96 94.01 144.87 94.01 145.98 C 94.01 147.10 94.91 148.00 96.02 148.00 Z M 97.00 148.00 L 97.96 148.00 C 99.07 148.00 99.98 147.09 99.98 145.98 C 99.98 144.87 99.07 143.96 97.96 143.96 L 97.00 143.96 C 95.89 143.96 94.98 144.87 94.98 145.98 C 94.98 147.09 95.89 148.00 97.00 148.00 Z M 97.96 148.00 L 98.92 148.00 C 100.04 148.00 100.94 147.09 100.94 145.98 C 100.94 144.87 100.04 143.97 98.92 143.97 L 97.96 143.97 C 96.85 143.97 95.94 144.87 95.94 145.98 C 95.94 147.09 96.85 148.00 97.96 148.00 Z M 98.92 147.99 L 99.88 147.99 C 100.99 147.99 101.89 147.09 101.89 145.98 C 101.89 144.87 100.99 143.97 99.88 143.97 L 98.92 143.97 C 97.81 143.97 96.91 144.87 96.91 145.98 C 96.91 147.09 97.81 147.99 98.92 147.99 Z M 99.88 147.99 L 100.83 147.99 C 101.94 147.99 102.84 147.09 102.84 145.98 C 102.84 144.87 101.94 143.97 100.83 143.97 L 99.88 143.97 C 98.76 143.97 97.86 144.87 97.86 145.98 C 97.86 147.09 98.76 147.99 99.88 147.99 Z M 100.83 147.99 L 101.81 147.99 C 102.92 147.99 103.82 147.09 103.82 145.98 C 103.82 144.87 102.92 143.97 101.81 143.97 L 100.83 143.97 C 99.72 143.97 98.82 144.87 98.82 145.98 C 98.82 147.09 99.72 147.99 100.83 147.99 Z M 101.81 147.99 L 102.81 147.99 C 103.92 147.99 104.82 147.09 104.82 145.98 C 104.82 144.87 103.92 143.97 102.81 143.97 L 101.81 143.97 C 100.70 143.97 99.80 144.87 99.80 145.98 C 99.80 147.09 100.70 147.99 101.81 147.99 Z M 102.81 147.99 L 103.84 147.99 C 104.94 147.99 105.84 147.09 105.84 145.98 C 105.84 144.87 104.94 143.97 103.84 143.97 L 102.81 143.97 C 101.70 143.97 100.80 144.87 100.80 145.98 C 100.80 147.09 101.70 147.99 102.81 147.99 Z M 103.84 147.99 L 104.88 147.99 C 105.99 147.99 106.89 147.09 106.89 145.98 C 106.89 144.87 105.99 143.98 104.88 143.98 L 103.84 143.98 C 102.73 143.98 101.83 144.87 101.83 145.98 C 101.83 147.09 102.73 147.99 103.84 147.99 Z M 104.88 147.98 L 105.89 147.98 C 107.00 147.98 107.90 147.09 107.90 145.98 C 107.90 144.87 107.00 143.98 105.89 143.98 L 104.88 143.98 C 103.78 143.98 102.88 144.87 102.88 145.98 C 102.88 147.09 103.78 147.98 104.88 147.98 Z M 105.89 147.98 L 106.85 147.98 C 107.96 147.98 108.85 147.09 108.85 145.98 C 108.85 144.88 107.96 143.98 106.85 143.98 L 105.89 143.98 C 104.79 143.98 103.89 144.88 103.89 145.98 C 103.89 147.09 104.79 147.98 105.89 147.98 Z M 106.85 147.98 L 107.83 147.98 C 108.93 147.98 109.83 147.08 109.83 145.98 C 109.83 144.88 108.93 143.98 107.83 143.98 L 106.85 143.98 C 105.75 143.98 104.85 144.88 104.85 145.98 C 104.85 147.08 105.75 147.98 106.85 147.98 Z M 107.83 147.98 L 108.82 147.98 C 109.92 147.98 110.81 147.08 110.81 145.98 C 110.81 144.88 109.92 143.99 108.82 143.99 L 107.83 143.99 C 106.73 143.99 105.83 144.88 105.83 145.98 C 105.83 147.08 106.73 147.98 107.83 147.98 Z M 108.82 147.97 L 109.83 147.97 C 110.93 147.97 111.82 147.08 111.82 145.98 C 111.82 144.88 110.93 143.99 109.83 143.99 L 108.82 143.99 C 107.72 143.99 106.83 144.88 106.83 145.98 C 106.83 147.08 107.72 147.97 108.82 147.97 Z M 109.83 147.97 L 110.85 147.97 C 111.95 147.97 112.84 147.08 112.84 145.98 C 112.84 144.88 111.95 143.99 110.85 143.99 L 109.83 143.99 C 108.73 143.99 107.84 144.88 107.84 145.98 C 107.84 147.08 108.73 147.97 109.83 147.97 Z M 110.85 147.97 L 111.89 147.97 C 112.99 147.97 113.88 147.08 113.88 145.98 C 113.88 144.88 112.99 143.99 111.89 143.99 L 110.85 143.99 C 109.75 143.99 108.86 144.88 108.86 145.98 C 108.86 147.08 109.75 147.97 110.85 147.97 Z M 111.89 147.97 L 112.90 147.97 C 114.00 147.97 114.89 147.08 114.89 145.98 C 114.89 144.88 114.00 144.00 112.90 144.00 L 111.89 144.00 C 110.80 144.00 109.91 144.88 109.91 145.98 C 109.91 147.08 110.80 147.97 111.89 147.97 Z M 112.90 147.96 L 113.89 147.96 C 114.98 147.96 115.87 147.08 115.87 145.98 C 115.87 144.89 114.98 144.00 113.89 144.00 L 112.90 144.00 C 111.81 144.00 110.92 144.89 110.92 145.98 C 110.92 147.08 111.81 147.96 112.90 147.96 Z M 113.89 147.96 L 114.88 147.96 C 115.98 147.96 116.86 147.07 116.86 145.98 C 116.86 144.89 115.98 144.00 114.88 144.00 L 113.89 144.00 C 112.79 144.00 111.91 144.89 111.91 145.98 C 111.91 147.07 112.79 147.96 113.89 147.96 Z M 114.88 147.96 L 115.89 147.96 C 116.98 147.96 117.86 147.07 117.86 145.98 C 117.86 144.89 116.98 144.00 115.89 144.00 L 114.88 144.00 C 113.79 144.00 112.91 144.89 112.91 145.98 C 112.91 147.07 113.79 147.96 114.88 147.96 Z M 115.89 147.95 L 116.90 147.95 C 117.99 147.95 118.87 147.07 118.87 145.98 C 118.87 144.89 117.99 144.01 116.90 144.01 L 115.89 144.01 C 114.80 144.01 113.91 144.89 113.91 145.98 C 113.91 147.07 114.80 147.95 115.89 147.95 Z M 116.90 147.95 L 117.90 147.95 C 118.99 147.95 119.88 147.07 119.88 145.98 C 119.88 144.89 118.99 144.01 117.90 144.01 L 116.90 144.01 C 115.81 144.01 114.92 144.89 114.92 145.98 C 114.92 147.07 115.81 147.95 116.90 147.95 Z M 117.90 147.95 L 118.91 147.95 C 120.00 147.95 120.88 147.07 120.88 145.98 C 120.88 144.89 120.00 144.01 118.91 144.01 L 117.90 144.01 C 116.82 144.01 115.94 144.89 115.94 145.98 C 115.94 147.07 116.82 147.95 117.90 147.95 Z M 118.91 147.95 L 119.92 147.95 C 121.00 147.95 121.88 147.07 121.88 145.98 C 121.88 144.90 121.00 144.02 119.92 144.02 L 118.91 144.02 C 117.83 144.02 116.95 144.90 116.95 145.98 C 116.95 147.07 117.83 147.95 118.91 147.95 Z M 119.92 147.94 L 120.94 147.94 C 122.02 147.94 122.90 147.06 122.90 145.98 C 122.90 144.90 122.02 144.02 120.94 144.02 L 119.92 144.02 C 118.83 144.02 117.96 144.90 117.96 145.98 C 117.96 147.06 118.83 147.94 119.92 147.94 Z M 120.94 147.94 L 121.95 147.94 C 123.03 147.94 123.91 147.06 123.91 145.98 C 123.91 144.90 123.03 144.02 121.95 144.02 L 120.94 144.02 C 119.85 144.02 118.98 144.90 118.98 145.98 C 118.98 147.06 119.86 147.94 120.94 147.94 Z M 121.95 147.94 L 122.96 147.93 C 124.04 147.93 124.91 147.05 124.91 145.97 C 124.91 144.89 124.03 144.02 122.95 144.02 L 121.95 144.02 C 120.87 144.03 119.99 144.90 120.00 145.98 C 120.00 147.06 120.87 147.94 121.95 147.94 Z M 122.96 147.93 L 123.96 147.93 C 125.04 147.92 125.91 147.05 125.91 145.97 C 125.90 144.89 125.03 144.02 123.95 144.02 L 122.95 144.03 C 121.87 144.03 121.00 144.91 121.00 145.99 C 121.01 147.06 121.89 147.93 122.96 147.93 Z M 123.97 147.92 L 124.96 147.92 C 126.04 147.91 126.90 147.03 126.90 145.96 C 126.89 144.88 126.01 144.01 124.94 144.02 L 123.94 144.03 C 122.87 144.03 122.00 144.91 122.01 145.99 C 122.01 147.06 122.89 147.93 123.97 147.92 Z M 124.97 147.91 L 125.95 147.90 C 127.03 147.89 127.89 147.02 127.88 145.94 C 127.87 144.87 126.99 144.01 125.92 144.01 L 124.93 144.02 C 123.86 144.03 122.99 144.91 123.00 145.99 C 123.01 147.06 123.89 147.92 124.97 147.91 Z M 125.96 147.90 L 126.94 147.89 C 128.02 147.88 128.87 147.00 128.86 145.92 C 128.85 144.85 127.97 143.99 126.90 144.01 L 125.91 144.02 C 124.84 144.03 123.98 144.91 124.00 145.98 C 124.01 147.06 124.89 147.91 125.96 147.90 Z M 126.95 147.88 L 127.96 147.87 C 129.03 147.85 129.89 146.97 129.87 145.90 C 129.85 144.83 128.97 143.98 127.90 143.99 L 126.89 144.01 C 125.82 144.03 124.96 144.91 124.98 145.98 C 125.00 147.05 125.88 147.90 126.95 147.88 Z M 127.97 147.86 L 128.98 147.84 C 130.05 147.82 130.90 146.94 130.88 145.87 C 130.85 144.80 129.97 143.95 128.90 143.98 L 127.89 144.00 C 126.82 144.02 125.97 144.90 126.00 145.97 C 126.02 147.04 126.90 147.89 127.97 147.86 Z M 128.99 147.84 L 130.00 147.81 C 131.07 147.78 131.91 146.90 131.88 145.83 C 131.85 144.77 130.97 143.93 129.90 143.95 L 128.89 143.98 C 127.83 144.01 126.99 144.89 127.01 145.96 C 127.04 147.02 127.93 147.87 128.99 147.84 Z M 130.01 147.81 L 131.01 147.78 C 132.08 147.75 132.91 146.86 132.88 145.79 C 132.85 144.73 131.96 143.90 130.90 143.93 L 129.89 143.96 C 128.83 143.99 128.00 144.88 128.03 145.94 C 128.06 147.00 128.95 147.84 130.01 147.81 Z M 131.02 147.77 L 132.02 147.74 C 133.08 147.70 133.91 146.81 133.87 145.75 C 133.83 144.69 132.94 143.86 131.88 143.90 L 130.89 143.93 C 129.83 143.97 129.00 144.86 129.03 145.92 C 129.07 146.98 129.96 147.81 131.02 147.77 Z M 132.03 147.73 L 133.01 147.69 C 134.07 147.65 134.90 146.76 134.85 145.70 C 134.81 144.64 133.92 143.82 132.86 143.86 L 131.87 143.90 C 130.82 143.94 129.99 144.84 130.03 145.89 C 130.08 146.95 130.97 147.78 132.03 147.73 Z M 133.02 147.69 L 134.00 147.65 C 135.06 147.60 135.88 146.71 135.83 145.65 C 135.78 144.59 134.89 143.78 133.83 143.82 L 132.85 143.87 C 131.80 143.91 130.98 144.81 131.03 145.86 C 131.07 146.92 131.97 147.74 133.02 147.69 Z M 134.01 147.64 L 135.02 147.59 C 136.08 147.54 136.89 146.64 136.83 145.59 C 136.78 144.54 135.89 143.73 134.83 143.78 L 133.82 143.83 C 132.77 143.88 131.96 144.78 132.01 145.83 C 132.06 146.88 132.96 147.69 134.01 147.64 Z M 135.03 147.59 L 136.05 147.53 C 137.10 147.47 137.90 146.57 137.84 145.52 C 137.78 144.47 136.89 143.67 135.84 143.73 L 134.82 143.78 C 133.77 143.84 132.97 144.74 133.03 145.79 C 133.08 146.84 133.98 147.64 135.03 147.59 Z M 136.06 147.52 L 137.06 147.46 C 138.11 147.40 138.91 146.50 138.84 145.45 C 138.78 144.41 137.88 143.61 136.83 143.67 L 135.83 143.73 C 134.78 143.80 133.98 144.70 134.04 145.74 C 134.11 146.79 135.01 147.59 136.06 147.52 Z M 137.07 147.46 L 138.07 147.39 C 139.11 147.32 139.90 146.42 139.83 145.38 C 139.76 144.33 138.86 143.54 137.82 143.61 L 136.82 143.68 C 135.78 143.75 134.99 144.65 135.06 145.69 C 135.12 146.74 136.03 147.53 137.07 147.46 Z M 138.08 147.39 L 139.07 147.32 C 140.11 147.24 140.89 146.34 140.82 145.30 C 140.74 144.26 139.84 143.47 138.80 143.55 L 137.81 143.62 C 136.77 143.69 135.98 144.60 136.06 145.64 C 136.13 146.68 137.04 147.46 138.08 147.39 Z M 139.08 147.31 L 140.06 147.24 C 141.10 147.16 141.88 146.25 141.80 145.21 C 141.72 144.17 140.81 143.40 139.77 143.48 L 138.79 143.55 C 137.75 143.63 136.97 144.54 137.05 145.58 C 137.13 146.61 138.04 147.39 139.08 147.31 Z M 140.07 147.23 L 141.05 147.15 C 142.09 147.06 142.86 146.16 142.77 145.12 C 142.69 144.08 141.78 143.31 140.74 143.40 L 139.76 143.48 C 138.73 143.57 137.96 144.48 138.04 145.51 C 138.13 146.55 139.04 147.32 140.07 147.23 Z M 141.06 147.14 L 142.07 147.06 C 143.10 146.96 143.86 146.05 143.77 145.02 C 143.68 143.99 142.77 143.23 141.74 143.32 L 140.73 143.41 C 139.70 143.50 138.94 144.41 139.03 145.44 C 139.12 146.47 140.03 147.23 141.06 147.14 Z M 142.07 147.05 L 143.07 146.96 C 144.10 146.86 144.86 145.95 144.76 144.92 C 144.67 143.89 143.76 143.14 142.73 143.23 L 141.73 143.32 C 140.70 143.42 139.94 144.33 140.04 145.36 C 140.13 146.39 141.04 147.14 142.07 147.05 Z M 143.08 146.95 L 144.08 146.85 C 145.10 146.76 145.85 145.84 145.75 144.82 C 145.65 143.79 144.74 143.04 143.72 143.14 L 142.72 143.24 C 141.69 143.34 140.94 144.25 141.04 145.27 C 141.14 146.30 142.05 147.05 143.08 146.95 Z M 144.08 146.85 L 145.07 146.75 C 146.10 146.65 146.84 145.74 146.74 144.71 C 146.64 143.69 145.73 142.94 144.70 143.05 L 143.71 143.15 C 142.69 143.25 141.94 144.16 142.04 145.18 C 142.15 146.20 143.06 146.95 144.08 146.85 Z M 145.08 146.75 L 146.07 146.64 C 147.09 146.54 147.83 145.63 147.73 144.61 C 147.62 143.59 146.71 142.85 145.69 142.95 L 144.70 143.05 C 143.68 143.16 142.94 144.07 143.04 145.09 C 143.15 146.11 144.06 146.85 145.08 146.75 Z M 146.07 146.64 L 147.06 146.54 C 148.08 146.43 148.82 145.52 148.71 144.51 C 148.61 143.49 147.70 142.75 146.68 142.85 L 145.69 142.96 C 144.67 143.06 143.93 143.97 144.04 144.99 C 144.14 146.00 145.05 146.74 146.07 146.64 Z M 147.06 146.53 L 148.04 146.43 C 149.06 146.33 149.79 145.42 149.69 144.40 C 149.58 143.39 148.68 142.65 147.66 142.76 L 146.68 142.86 C 145.67 142.96 144.93 143.87 145.03 144.89 C 145.14 145.90 146.05 146.64 147.06 146.53 Z M 148.04 146.43 L 149.02 146.32 C 150.03 146.22 150.77 145.32 150.66 144.30 C 150.56 143.29 149.65 142.56 148.64 142.66 L 147.66 142.76 C 146.65 142.87 145.92 143.77 146.02 144.78 C 146.13 145.79 147.03 146.53 148.04 146.43 Z M 149.02 146.32 L 150.00 146.22 C 151.01 146.11 151.75 145.21 151.64 144.20 C 151.54 143.20 150.64 142.46 149.63 142.57 L 148.64 142.67 C 147.64 142.77 146.90 143.67 147.01 144.68 C 147.11 145.69 148.01 146.42 149.02 146.32 Z M 150.00 146.21 L 150.99 146.11 C 152.00 146.01 152.73 145.11 152.63 144.10 C 152.52 143.10 151.62 142.37 150.62 142.47 L 149.63 142.57 C 148.62 142.67 147.89 143.57 147.99 144.58 C 148.10 145.58 149.00 146.32 150.00 146.21 Z M 150.99 146.11 L 151.99 146.01 C 152.99 145.90 153.72 145.01 153.62 144.01 C 153.52 143.00 152.62 142.27 151.62 142.37 L 150.62 142.47 C 149.62 142.58 148.89 143.47 148.99 144.47 C 149.09 145.48 149.99 146.21 150.99 146.11 Z M 151.98 146.00 L 152.99 145.90 C 153.99 145.80 154.72 144.91 154.62 143.91 C 154.52 142.91 153.63 142.18 152.63 142.28 L 151.62 142.38 C 150.62 142.48 149.89 143.37 149.99 144.37 C 150.09 145.37 150.98 146.10 151.98 146.00 Z M 152.99 145.90 L 154.01 145.79 C 155.01 145.70 155.74 144.81 155.64 143.81 C 155.54 142.81 154.65 142.08 153.65 142.18 L 152.63 142.28 C 151.64 142.38 150.91 143.27 151.01 144.27 C 151.10 145.27 151.99 145.99 152.99 145.90 Z M 154.01 145.79 L 155.01 145.69 C 156.01 145.60 156.73 144.71 156.64 143.71 C 156.54 142.72 155.65 141.99 154.66 142.09 L 153.66 142.18 C 152.66 142.28 151.93 143.17 152.03 144.16 C 152.13 145.16 153.01 145.89 154.01 145.79 Z M 155.01 145.69 L 156.02 145.59 C 157.01 145.50 157.74 144.61 157.64 143.62 C 157.55 142.63 156.67 141.90 155.67 141.99 L 154.66 142.09 C 153.67 142.19 152.94 143.07 153.04 144.06 C 153.13 145.06 154.01 145.78 155.01 145.69 Z M 156.01 145.59 L 157.03 145.49 C 158.02 145.40 158.74 144.52 158.65 143.53 C 158.56 142.54 157.68 141.81 156.69 141.90 L 155.68 142.00 C 154.69 142.09 153.96 142.97 154.05 143.96 C 154.14 144.95 155.02 145.68 156.01 145.59 Z M 157.02 145.49 L 158.03 145.39 C 159.02 145.30 159.74 144.43 159.65 143.44 C 159.56 142.45 158.69 141.72 157.70 141.81 L 156.69 141.91 C 155.70 142.00 154.98 142.87 155.07 143.86 C 155.16 144.85 156.03 145.58 157.02 145.49 Z M 158.03 145.39 L 159.02 145.30 C 160.01 145.21 160.73 144.34 160.64 143.35 C 160.55 142.37 159.68 141.64 158.69 141.73 L 157.70 141.82 C 156.71 141.91 155.99 142.78 156.08 143.77 C 156.17 144.75 157.04 145.48 158.03 145.39 Z M 159.02 145.29 L 159.99 145.21 C 160.97 145.12 161.70 144.25 161.61 143.27 C 161.53 142.28 160.66 141.56 159.67 141.65 L 158.70 141.73 C 157.71 141.82 156.99 142.69 157.08 143.67 C 157.16 144.66 158.03 145.38 159.02 145.29 Z M 159.99 145.20 L 160.98 145.12 C 161.96 145.03 162.69 144.17 162.60 143.19 C 162.52 142.21 161.65 141.48 160.67 141.56 L 159.68 141.65 C 158.70 141.73 157.97 142.60 158.06 143.58 C 158.14 144.56 159.00 145.29 159.99 145.20 Z M 160.97 145.11 L 162.02 145.03 C 163.00 144.94 163.72 144.08 163.64 143.10 C 163.56 142.12 162.70 141.40 161.72 141.48 L 160.68 141.57 C 159.70 141.65 158.97 142.51 159.05 143.49 C 159.14 144.47 160.00 145.20 160.97 145.11 Z M 162.01 145.02 L 163.03 144.94 C 164.00 144.85 164.73 144.00 164.65 143.02 C 164.57 142.04 163.71 141.32 162.73 141.40 L 161.72 141.49 C 160.74 141.57 160.02 142.42 160.10 143.40 C 160.18 144.38 161.04 145.10 162.01 145.02 Z M 163.03 144.93 L 164.02 144.85 C 164.99 144.77 165.71 143.91 165.63 142.94 C 165.55 141.96 164.69 141.24 163.72 141.32 L 162.73 141.41 C 161.76 141.49 161.03 142.34 161.12 143.32 C 161.20 144.29 162.05 145.01 163.03 144.93 Z M 164.02 144.84 L 164.99 144.76 C 165.97 144.68 166.68 143.82 166.60 142.85 C 166.52 141.88 165.66 141.16 164.69 141.24 L 163.72 141.33 C 162.75 141.41 162.03 142.27 162.11 143.24 C 162.20 144.21 163.05 144.93 164.02 144.84 Z M 165.00 144.75 L 165.96 144.67 C 166.93 144.58 167.65 143.72 167.56 142.76 C 167.47 141.79 166.62 141.08 165.65 141.16 L 164.69 141.25 C 163.72 141.34 163.00 142.19 163.09 143.16 C 163.18 144.13 164.03 144.84 165.00 144.75 Z M 165.97 144.66 L 166.95 144.57 C 167.92 144.48 168.62 143.62 168.53 142.65 C 168.44 141.69 167.58 140.98 166.62 141.08 L 165.64 141.17 C 164.68 141.26 163.97 142.12 164.06 143.08 C 164.15 144.05 165.01 144.75 165.97 144.66 Z M 166.96 144.56 L 167.97 144.46 C 168.94 144.36 169.64 143.50 169.54 142.54 C 169.44 141.58 168.58 140.88 167.62 140.98 L 166.61 141.08 C 165.65 141.18 164.95 142.04 165.05 143.00 C 165.14 143.96 166.00 144.66 166.96 144.56 Z M 167.98 144.45 L 168.99 144.35 C 169.95 144.25 170.64 143.39 170.54 142.43 C 170.44 141.47 169.58 140.78 168.62 140.88 L 167.62 140.98 C 166.66 141.08 165.96 141.94 166.06 142.90 C 166.16 143.86 167.02 144.56 167.98 144.45 Z M 168.99 144.34 L 169.99 144.24 C 170.95 144.13 171.64 143.28 171.54 142.32 C 171.43 141.36 170.58 140.67 169.62 140.78 L 168.62 140.88 C 167.67 140.99 166.97 141.84 167.08 142.80 C 167.18 143.75 168.04 144.45 168.99 144.34 Z M 169.99 144.23 L 170.98 144.13 C 171.93 144.02 172.62 143.17 172.52 142.21 C 172.42 141.26 171.56 140.57 170.61 140.67 L 169.62 140.78 C 168.67 140.88 167.98 141.74 168.08 142.69 C 168.18 143.64 169.04 144.33 169.99 144.23 Z M 170.97 144.12 L 171.94 144.02 C 172.89 143.92 173.58 143.07 173.48 142.12 C 173.38 141.17 172.53 140.48 171.58 140.58 L 170.61 140.68 C 169.66 140.78 168.97 141.63 169.07 142.58 C 169.17 143.53 170.02 144.22 170.97 144.12 Z M 171.94 144.02 L 172.79 143.93 C 173.74 143.83 174.43 142.99 174.33 142.04 C 174.24 141.09 173.39 140.40 172.44 140.49 L 171.59 140.58 C 170.64 140.68 169.95 141.52 170.04 142.47 C 170.14 143.42 170.99 144.11 171.94 144.02 Z M 172.78 143.93 L 173.59 143.85 C 174.54 143.76 175.24 142.92 175.14 141.97 C 175.05 141.02 174.21 140.33 173.27 140.42 L 172.45 140.50 C 171.50 140.59 170.81 141.43 170.90 142.38 C 170.99 143.32 171.83 144.02 172.78 143.93 Z M 173.58 143.85 L 174.44 143.77 C 175.38 143.69 176.08 142.85 176.00 141.91 C 175.92 140.96 175.08 140.26 174.14 140.35 L 173.28 140.42 C 172.33 140.50 171.63 141.34 171.72 142.28 C 171.80 143.23 172.63 143.93 173.58 143.85 Z M 174.42 143.77 L 175.35 143.69 C 176.30 143.62 177.00 142.79 176.92 141.85 C 176.85 140.90 176.02 140.20 175.08 140.27 L 174.15 140.35 C 173.20 140.42 172.50 141.25 172.58 142.20 C 172.65 143.14 173.48 143.84 174.42 143.77 Z M 175.34 143.69 L 176.37 143.62 C 177.31 143.55 178.02 142.73 177.95 141.79 C 177.88 140.84 177.06 140.13 176.12 140.20 L 175.09 140.28 C 174.15 140.35 173.44 141.17 173.51 142.11 C 173.57 143.05 174.39 143.76 175.34 143.69 Z M 176.36 143.61 L 177.52 143.54 C 178.47 143.48 179.18 142.66 179.12 141.72 C 179.06 140.78 178.24 140.07 177.30 140.13 L 176.13 140.20 C 175.19 140.27 174.48 141.08 174.54 142.02 C 174.60 142.96 175.42 143.68 176.36 143.61 Z M 177.52 143.53 L 178.83 143.46 C 179.77 143.40 180.48 142.59 180.43 141.65 C 180.37 140.71 179.56 139.99 178.62 140.05 L 177.31 140.13 C 176.37 140.19 175.65 141.00 175.71 141.94 C 175.77 142.88 176.58 143.59 177.52 143.53 Z M 178.82 143.45 L 179.69 143.40 C 180.63 143.35 181.35 142.55 181.29 141.61 C 181.24 140.67 180.43 139.95 179.50 140.00 L 178.63 140.05 C 177.69 140.11 176.97 140.91 177.02 141.85 C 177.08 142.79 177.88 143.51 178.82 143.45 Z M 179.69 143.40 L 180.62 143.35 C 181.55 143.30 182.27 142.49 182.22 141.56 C 182.17 140.62 181.36 139.90 180.42 139.95 L 179.50 140.01 C 178.56 140.06 177.84 140.86 177.90 141.80 C 177.95 142.74 178.75 143.45 179.69 143.40 Z M 180.62 143.35 L 181.59 143.29 C 182.53 143.24 183.24 142.43 183.19 141.50 C 183.14 140.56 182.33 139.85 181.40 139.90 L 180.42 139.96 C 179.49 140.01 178.77 140.81 178.82 141.75 C 178.88 142.69 179.68 143.40 180.62 143.35 Z M 181.60 143.29 L 182.61 143.23 C 183.54 143.17 184.25 142.37 184.20 141.43 C 184.14 140.50 183.34 139.79 182.40 139.84 L 181.39 139.90 C 180.46 139.96 179.74 140.76 179.80 141.70 C 179.86 142.63 180.66 143.35 181.60 143.29 Z M 182.61 143.23 L 183.65 143.16 C 184.58 143.10 185.29 142.30 185.23 141.36 C 185.17 140.43 184.37 139.72 183.43 139.78 L 182.40 139.84 C 181.46 139.90 180.75 140.71 180.81 141.64 C 180.87 142.58 181.68 143.29 182.61 143.23 Z M 183.66 143.16 L 184.71 143.09 C 185.64 143.02 186.35 142.21 186.28 141.28 C 186.22 140.35 185.41 139.64 184.48 139.71 L 183.43 139.78 C 182.49 139.84 181.79 140.65 181.85 141.58 C 181.92 142.52 182.72 143.22 183.66 143.16 Z M 184.72 143.08 L 185.78 143.01 C 186.71 142.94 187.41 142.12 187.34 141.19 C 187.27 140.26 186.45 139.56 185.52 139.63 L 184.47 139.71 C 183.53 139.78 182.84 140.59 182.91 141.52 C 182.98 142.46 183.79 143.15 184.72 143.08 Z M 185.79 143.00 L 186.84 142.92 C 187.77 142.84 188.46 142.02 188.38 141.09 C 188.31 140.16 187.49 139.47 186.56 139.55 L 185.51 139.63 C 184.58 139.71 183.89 140.53 183.96 141.46 C 184.04 142.39 184.86 143.08 185.79 143.00 Z M 186.86 142.91 L 187.89 142.82 C 188.82 142.73 189.50 141.91 189.41 140.98 C 189.33 140.05 188.51 139.37 187.58 139.45 L 186.54 139.55 C 185.61 139.64 184.93 140.46 185.02 141.39 C 185.10 142.32 185.93 143.00 186.86 142.91 Z M 187.91 142.81 L 188.92 142.71 C 189.84 142.61 190.51 141.78 190.42 140.85 C 190.32 139.93 189.49 139.25 188.56 139.35 L 187.56 139.46 C 186.63 139.56 185.96 140.39 186.06 141.31 C 186.15 142.24 186.98 142.91 187.91 142.81 Z M 188.94 142.70 L 189.91 142.58 C 190.84 142.47 191.49 141.63 191.38 140.71 C 191.27 139.79 190.43 139.13 189.51 139.24 L 188.54 139.36 C 187.62 139.47 186.96 140.31 187.07 141.23 C 187.18 142.15 188.02 142.81 188.94 142.70 Z M 189.95 142.58 L 191.06 142.42 C 191.98 142.29 192.62 141.44 192.49 140.52 C 192.36 139.60 191.51 138.96 190.59 139.09 L 189.48 139.25 C 188.56 139.38 187.92 140.23 188.05 141.15 C 188.18 142.07 189.03 142.71 189.95 142.58 Z M 191.10 142.41 L 192.23 142.22 C 193.15 142.07 193.76 141.20 193.61 140.29 C 193.46 139.38 192.59 138.76 191.68 138.91 L 190.55 139.10 C 189.64 139.25 189.02 140.12 189.17 141.03 C 189.33 141.94 190.19 142.56 191.10 142.41 Z M 192.28 142.20 L 193.34 142.00 C 194.24 141.82 194.83 140.95 194.66 140.04 C 194.48 139.14 193.60 138.55 192.70 138.72 L 191.64 138.93 C 190.73 139.10 190.14 139.98 190.32 140.88 C 190.50 141.79 191.37 142.38 192.28 142.20 Z M 193.38 141.98 L 194.37 141.76 C 195.27 141.57 195.84 140.68 195.64 139.78 C 195.44 138.88 194.55 138.32 193.66 138.52 L 192.66 138.74 C 191.76 138.93 191.19 139.82 191.39 140.72 C 191.59 141.62 192.48 142.18 193.38 141.98 Z M 194.41 141.75 L 195.36 141.52 C 196.24 141.30 196.79 140.40 196.57 139.51 C 196.35 138.62 195.46 138.08 194.57 138.30 L 193.62 138.53 C 192.73 138.75 192.19 139.65 192.41 140.53 C 192.62 141.42 193.52 141.97 194.41 141.75 Z M 195.39 141.50 L 196.29 141.26 C 197.17 141.03 197.70 140.12 197.46 139.24 C 197.23 138.36 196.32 137.84 195.44 138.07 L 194.54 138.31 C 193.65 138.55 193.13 139.45 193.37 140.33 C 193.60 141.21 194.51 141.74 195.39 141.50 Z M 196.32 141.25 L 197.19 141.00 C 198.07 140.75 198.57 139.84 198.32 138.97 C 198.08 138.09 197.17 137.59 196.29 137.84 L 195.42 138.08 C 194.54 138.33 194.04 139.24 194.29 140.12 C 194.53 140.99 195.44 141.50 196.32 141.25 Z M 197.21 140.99 L 198.06 140.73 C 198.93 140.48 199.43 139.57 199.17 138.70 C 198.91 137.83 198.00 137.34 197.13 137.59 L 196.28 137.85 C 195.41 138.10 194.91 139.01 195.17 139.88 C 195.43 140.75 196.34 141.24 197.21 140.99 Z M 198.07 140.73 L 198.86 140.49 C 199.72 140.23 200.21 139.32 199.95 138.45 C 199.69 137.59 198.78 137.10 197.92 137.36 L 197.13 137.60 C 196.26 137.86 195.78 138.77 196.04 139.64 C 196.30 140.50 197.21 140.99 198.07 140.73 Z"
      fill="black"
      fill-rule="nonzero" /><path d="M 150.70 115.97 L 150.14 116.84 C 149.64 117.60 149.85 118.63 150.62 119.13 C 151.39 119.62 152.41 119.41 152.91 118.64 L 153.47 117.78 C 153.97 117.01 153.75 115.99 152.99 115.49 C 152.22 114.99 151.20 115.21 150.70 115.97 Z M 150.11 116.84 L 149.56 117.71 C 149.07 118.49 149.30 119.52 150.07 120.02 C 150.85 120.51 151.89 120.28 152.38 119.50 L 152.93 118.64 C 153.43 117.86 153.20 116.83 152.42 116.33 C 151.64 115.84 150.61 116.07 150.11 116.84 Z M 149.53 117.73 L 149.00 118.60 C 148.52 119.40 148.77 120.44 149.57 120.92 C 150.37 121.40 151.40 121.15 151.89 120.35 L 152.41 119.48 C 152.90 118.68 152.64 117.65 151.85 117.16 C 151.05 116.68 150.01 116.94 149.53 117.73 Z M 148.96 118.64 L 148.47 119.51 C 148.01 120.34 148.30 121.37 149.12 121.83 C 149.94 122.30 150.98 122.00 151.44 121.18 L 151.93 120.31 C 152.39 119.49 152.10 118.45 151.28 117.99 C 150.46 117.53 149.42 117.82 148.96 118.64 Z M 148.42 119.58 L 147.97 120.46 C 147.55 121.30 147.89 122.34 148.74 122.77 C 149.59 123.19 150.62 122.85 151.05 122.00 L 151.49 121.12 C 151.92 120.27 151.58 119.24 150.73 118.81 C 149.88 118.39 148.84 118.73 148.42 119.58 Z M 147.92 120.54 L 147.53 121.43 C 147.15 122.31 147.56 123.33 148.44 123.71 C 149.32 124.09 150.35 123.68 150.73 122.80 L 151.11 121.92 C 151.49 121.03 151.08 120.01 150.20 119.63 C 149.32 119.25 148.30 119.66 147.92 120.54 Z M 147.47 121.54 L 147.17 122.44 C 146.85 123.35 147.34 124.35 148.25 124.66 C 149.16 124.98 150.16 124.50 150.48 123.58 L 150.79 122.69 C 151.10 121.77 150.62 120.78 149.70 120.46 C 148.79 120.14 147.79 120.63 147.47 121.54 Z M 147.12 122.57 L 146.89 123.47 C 146.64 124.41 147.21 125.37 148.15 125.61 C 149.09 125.86 150.05 125.29 150.29 124.35 L 150.52 123.45 C 150.77 122.51 150.20 121.55 149.26 121.31 C 148.32 121.06 147.36 121.63 147.12 122.57 Z M 146.86 123.59 L 146.69 124.52 C 146.51 125.47 147.15 126.39 148.10 126.56 C 149.06 126.74 149.97 126.11 150.15 125.15 L 150.32 124.23 C 150.49 123.27 149.86 122.36 148.91 122.18 C 147.95 122.01 147.03 122.64 146.86 123.59 Z M 146.67 124.62 L 146.56 125.58 C 146.44 126.54 147.13 127.42 148.09 127.54 C 149.05 127.65 149.93 126.97 150.05 126.00 L 150.17 125.05 C 150.28 124.08 149.60 123.21 148.63 123.09 C 147.67 122.97 146.79 123.66 146.67 124.62 Z M 146.55 125.66 L 146.47 126.65 C 146.40 127.62 147.13 128.47 148.10 128.54 C 149.06 128.61 149.91 127.88 149.98 126.92 L 150.06 125.92 C 150.13 124.95 149.40 124.11 148.44 124.03 C 147.47 123.96 146.62 124.69 146.55 125.66 Z M 146.47 126.71 L 146.42 127.75 C 146.38 128.72 147.14 129.54 148.11 129.59 C 149.08 129.63 149.90 128.87 149.94 127.90 L 149.99 126.86 C 150.03 125.89 149.27 125.07 148.30 125.02 C 147.33 124.98 146.51 125.74 146.47 126.71 Z M 146.42 127.79 L 146.40 128.89 C 146.38 129.86 147.15 130.66 148.12 130.69 C 149.09 130.71 149.90 129.94 149.92 128.97 L 149.94 127.87 C 149.97 126.89 149.20 126.09 148.22 126.06 C 147.25 126.04 146.44 126.81 146.42 127.79 Z M 146.40 128.90 L 146.38 129.92 C 146.37 130.90 147.15 131.70 148.12 131.71 C 149.09 131.72 149.89 130.95 149.91 129.97 L 149.92 128.95 C 149.93 127.98 149.16 127.18 148.18 127.16 C 147.21 127.15 146.41 127.93 146.40 128.90 Z M 146.38 129.93 L 146.37 130.93 C 146.36 131.90 147.14 132.70 148.12 132.71 C 149.09 132.72 149.89 131.93 149.90 130.96 L 149.91 129.97 C 149.92 128.99 149.14 128.20 148.16 128.19 C 147.19 128.18 146.39 128.96 146.38 129.93 Z M 146.37 130.93 L 146.37 131.95 C 146.36 132.93 147.14 133.72 148.11 133.73 C 149.09 133.73 149.88 132.95 149.89 131.98 L 149.90 130.96 C 149.90 129.98 149.12 129.19 148.15 129.18 C 147.17 129.17 146.38 129.96 146.37 130.93 Z M 146.37 131.96 L 146.36 132.99 C 146.36 133.96 147.14 134.76 148.11 134.76 C 149.09 134.77 149.88 133.98 149.88 133.01 L 149.89 131.97 C 149.89 131.00 149.11 130.21 148.14 130.20 C 147.16 130.20 146.37 130.98 146.37 131.96 Z M 146.36 132.99 L 146.36 134.03 C 146.35 135.00 147.14 135.79 148.11 135.80 C 149.09 135.80 149.88 135.01 149.88 134.04 L 149.88 133.00 C 149.89 132.03 149.10 131.24 148.13 131.24 C 147.15 131.23 146.36 132.02 146.36 132.99 Z M 146.36 134.03 L 146.35 135.05 C 146.35 136.02 147.14 136.81 148.11 136.82 C 149.09 136.82 149.88 136.03 149.88 135.06 L 149.88 134.04 C 149.88 133.06 149.10 132.27 148.12 132.27 C 147.15 132.27 146.36 133.06 146.36 134.03 Z M 146.35 135.05 L 146.35 136.05 C 146.35 137.02 147.14 137.81 148.12 137.81 C 149.09 137.81 149.88 137.02 149.88 136.05 L 149.88 135.06 C 149.88 134.08 149.09 133.29 148.12 133.29 C 147.15 133.29 146.36 134.08 146.35 135.05 Z M 146.35 136.05 L 146.35 137.01 C 146.35 137.98 147.14 138.77 148.12 138.77 C 149.09 138.77 149.88 137.98 149.88 137.01 L 149.88 136.05 C 149.88 135.08 149.09 134.29 148.12 134.29 C 147.14 134.29 146.35 135.08 146.35 136.05 Z M 146.35 137.01 L 146.35 138.06 C 146.35 139.03 147.14 139.82 148.12 139.82 C 149.09 139.82 149.88 139.03 149.88 138.06 L 149.88 137.01 C 149.88 136.03 149.09 135.24 148.12 135.24 C 147.14 135.24 146.35 136.03 146.35 137.01 Z M 146.35 138.06 L 146.35 139.15 C 146.35 140.12 147.14 140.91 148.12 140.91 C 149.09 140.91 149.88 140.12 149.88 139.15 L 149.88 138.06 C 149.88 137.08 149.09 136.30 148.12 136.30 C 147.14 136.30 146.35 137.08 146.35 138.06 Z M 146.35 139.15 L 146.35 140.17 C 146.35 141.15 147.14 141.94 148.12 141.94 C 149.09 141.94 149.88 141.15 149.88 140.17 L 149.88 139.15 C 149.88 138.18 149.09 137.39 148.12 137.39 C 147.14 137.39 146.35 138.18 146.35 139.15 Z M 146.35 140.17 L 146.35 141.15 C 146.35 142.12 147.14 142.91 148.12 142.91 C 149.09 142.91 149.88 142.12 149.88 141.15 L 149.88 140.17 C 149.88 139.20 149.09 138.41 148.12 138.41 C 147.14 138.41 146.35 139.20 146.35 140.17 Z M 146.35 141.15 L 146.35 142.09 C 146.35 143.06 147.14 143.85 148.12 143.85 C 149.09 143.85 149.88 143.06 149.88 142.09 L 149.88 141.15 C 149.88 140.18 149.09 139.39 148.12 139.39 C 147.14 139.39 146.35 140.18 146.35 141.15 Z M 146.35 142.09 L 146.35 143.02 C 146.35 143.99 147.14 144.78 148.12 144.78 C 149.09 144.78 149.88 143.99 149.88 143.02 L 149.88 142.09 C 149.88 141.12 149.09 140.33 148.12 140.33 C 147.14 140.33 146.35 141.12 146.35 142.09 Z M 146.35 143.02 L 146.35 143.96 C 146.35 144.93 147.14 145.72 148.12 145.72 C 149.09 145.72 149.88 144.93 149.88 143.96 L 149.88 143.02 C 149.88 142.05 149.09 141.26 148.12 141.26 C 147.14 141.26 146.35 142.05 146.35 143.02 Z M 146.35 143.96 L 146.35 144.92 C 146.35 145.90 147.14 146.69 148.12 146.69 C 149.09 146.69 149.88 145.90 149.88 144.92 L 149.88 143.96 C 149.88 142.98 149.09 142.20 148.12 142.20 C 147.14 142.20 146.35 142.98 146.35 143.96 Z M 146.35 144.92 L 146.35 145.91 C 146.35 146.88 147.14 147.67 148.12 147.67 C 149.09 147.67 149.88 146.88 149.88 145.91 L 149.88 144.92 C 149.88 143.95 149.09 143.16 148.12 143.16 C 147.14 143.16 146.35 143.95 146.35 144.92 Z M 146.35 145.91 L 146.35 146.90 C 146.35 147.88 147.14 148.67 148.12 148.67 C 149.09 148.67 149.88 147.88 149.88 146.90 L 149.88 145.91 C 149.88 144.93 149.09 144.14 148.12 144.14 C 147.14 144.14 146.35 144.93 146.35 145.91 Z M 146.35 146.90 L 146.35 147.92 C 146.35 148.89 147.14 149.68 148.12 149.68 C 149.09 149.68 149.88 148.89 149.88 147.92 L 149.88 146.90 C 149.88 145.93 149.09 145.14 148.12 145.14 C 147.14 145.14 146.35 145.93 146.35 146.90 Z M 146.35 147.92 L 146.35 148.94 C 146.35 149.91 147.14 150.70 148.12 150.70 C 149.09 150.70 149.88 149.91 149.88 148.94 L 149.88 147.92 C 149.88 146.94 149.09 146.15 148.12 146.15 C 147.14 146.15 146.35 146.94 146.35 147.92 Z M 146.35 148.94 L 146.35 149.97 C 146.35 150.94 147.14 151.73 148.12 151.73 C 149.09 151.73 149.88 150.94 149.88 149.97 L 149.88 148.94 C 149.88 147.97 149.09 147.18 148.12 147.18 C 147.14 147.18 146.35 147.97 146.35 148.94 Z M 146.35 149.97 L 146.35 150.94 C 146.35 151.91 147.14 152.70 148.12 152.70 C 149.09 152.70 149.88 151.91 149.88 150.94 L 149.88 149.97 C 149.88 148.99 149.09 148.20 148.12 148.20 C 147.14 148.20 146.35 148.99 146.35 149.97 Z M 146.35 150.94 L 146.35 151.92 C 146.35 152.90 147.14 153.69 148.12 153.69 C 149.09 153.69 149.88 152.90 149.88 151.92 L 149.88 150.94 C 149.88 149.97 149.09 149.18 148.12 149.18 C 147.14 149.18 146.35 149.97 146.35 150.94 Z M 146.35 151.92 L 146.35 152.92 C 146.35 153.89 147.14 154.68 148.12 154.68 C 149.09 154.68 149.88 153.89 149.88 152.92 L 149.88 151.92 C 149.88 150.95 149.09 150.16 148.12 150.16 C 147.14 150.16 146.35 150.95 146.35 151.92 Z M 146.35 152.92 L 146.35 153.92 C 146.35 154.89 147.14 155.68 148.12 155.68 C 149.09 155.68 149.88 154.89 149.88 153.92 L 149.88 152.92 C 149.88 151.94 149.09 151.15 148.12 151.15 C 147.14 151.15 146.35 151.94 146.35 152.92 Z M 146.35 153.92 L 146.35 154.93 C 146.35 155.91 147.14 156.70 148.12 156.70 C 149.09 156.70 149.88 155.91 149.88 154.93 L 149.88 153.92 C 149.88 152.95 149.09 152.16 148.12 152.16 C 147.14 152.16 146.35 152.95 146.35 153.92 Z M 146.35 154.93 L 146.35 155.96 C 146.35 156.93 147.14 157.72 148.12 157.72 C 149.09 157.72 149.88 156.93 149.88 155.96 L 149.88 154.93 C 149.88 153.96 149.09 153.17 148.12 153.17 C 147.14 153.17 146.35 153.96 146.35 154.93 Z M 146.35 155.96 L 146.35 156.94 C 146.35 157.92 147.14 158.71 148.12 158.71 C 149.09 158.71 149.88 157.92 149.88 156.94 L 149.88 155.96 C 149.88 154.98 149.09 154.19 148.12 154.19 C 147.14 154.19 146.35 154.98 146.35 155.96 Z M 146.35 156.95 L 146.35 157.90 C 146.35 158.88 147.14 159.67 148.12 159.67 C 149.09 159.67 149.88 158.88 149.88 157.90 L 149.88 156.94 C 149.88 155.97 149.09 155.18 148.12 155.18 C 147.14 155.18 146.35 155.97 146.35 156.95 Z M 146.35 157.91 L 146.35 158.88 C 146.35 159.85 147.15 160.64 148.12 160.64 C 149.10 160.64 149.89 159.85 149.88 158.87 L 149.88 157.90 C 149.88 156.93 149.09 156.14 148.11 156.14 C 147.14 156.14 146.35 156.93 146.35 157.91 Z M 146.35 158.88 L 146.35 159.87 C 146.36 160.84 147.15 161.63 148.13 161.63 C 149.10 161.62 149.89 160.83 149.89 159.86 L 149.88 158.87 C 149.88 157.90 149.09 157.11 148.11 157.11 C 147.14 157.11 146.35 157.91 146.35 158.88 Z M 146.35 159.87 L 146.36 160.87 C 146.36 161.85 147.16 162.64 148.13 162.63 C 149.11 162.63 149.90 161.83 149.89 160.86 L 149.89 159.85 C 149.88 158.88 149.09 158.09 148.11 158.09 C 147.14 158.10 146.35 158.89 146.35 159.87 Z M 146.36 160.88 L 146.37 161.90 C 146.37 162.88 147.17 163.66 148.15 163.65 C 149.12 163.65 149.91 162.85 149.90 161.87 L 149.89 160.85 C 149.89 159.88 149.09 159.09 148.11 159.10 C 147.14 159.10 146.35 159.90 146.36 160.88 Z M 146.37 161.90 L 146.38 162.95 C 146.39 163.92 147.19 164.71 148.16 164.70 C 149.14 164.69 149.92 163.89 149.91 162.91 L 149.90 161.87 C 149.89 160.89 149.09 160.11 148.11 160.12 C 147.14 160.13 146.36 160.93 146.37 161.90 Z M 146.38 162.95 L 146.39 163.98 C 146.40 164.96 147.21 165.74 148.18 165.73 C 149.16 165.71 149.94 164.91 149.93 163.93 L 149.91 162.91 C 149.90 161.93 149.10 161.15 148.12 161.16 C 147.14 161.18 146.36 161.98 146.38 162.95 Z M 146.39 163.99 L 146.41 164.96 C 146.42 165.94 147.23 166.72 148.20 166.70 C 149.18 166.68 149.96 165.88 149.94 164.90 L 149.93 163.93 C 149.91 162.95 149.10 162.17 148.13 162.19 C 147.15 162.21 146.37 163.01 146.39 163.99 Z M 146.41 164.97 L 146.43 165.96 C 146.44 166.93 147.25 167.71 148.23 167.69 C 149.21 167.67 149.98 166.86 149.96 165.89 L 149.94 164.90 C 149.92 163.92 149.12 163.14 148.14 163.16 C 147.16 163.18 146.39 163.99 146.41 164.97 Z M 146.42 165.96 L 146.45 166.96 C 146.47 167.94 147.28 168.71 148.25 168.69 C 149.23 168.67 150.01 167.86 149.98 166.89 L 149.96 165.88 C 149.94 164.91 149.13 164.13 148.16 164.15 C 147.18 164.17 146.40 164.98 146.42 165.96 Z M 146.45 166.97 L 146.47 167.97 C 146.49 168.95 147.30 169.73 148.28 169.70 C 149.26 169.68 150.03 168.87 150.01 167.89 L 149.99 166.88 C 149.96 165.90 149.15 165.13 148.17 165.15 C 147.20 165.18 146.42 165.99 146.45 166.97 Z M 146.47 167.98 L 146.49 168.99 C 146.52 169.97 147.33 170.74 148.31 170.72 C 149.29 170.69 150.06 169.88 150.03 168.90 L 150.01 167.89 C 149.99 166.91 149.17 166.14 148.20 166.16 C 147.22 166.19 146.44 167.00 146.47 167.98 Z M 146.49 168.99 L 146.52 170.00 C 146.55 170.98 147.36 171.75 148.34 171.73 C 149.31 171.70 150.09 170.89 150.06 169.91 L 150.04 168.90 C 150.01 167.92 149.20 167.15 148.22 167.17 C 147.24 167.20 146.47 168.01 146.49 168.99 Z M 146.52 170.01 L 146.55 171.01 C 146.57 171.99 147.39 172.77 148.37 172.74 C 149.34 172.71 150.12 171.90 150.09 170.92 L 150.06 169.91 C 150.04 168.93 149.22 168.16 148.24 168.19 C 147.26 168.21 146.49 169.03 146.52 170.01 Z M 146.55 171.02 L 146.57 172.02 C 146.60 173.00 147.41 173.77 148.39 173.75 C 149.37 173.72 150.14 172.90 150.12 171.93 L 150.09 170.92 C 150.06 169.94 149.25 169.17 148.27 169.19 C 147.29 169.22 146.52 170.04 146.55 171.02 Z M 146.57 172.02 L 146.60 173.03 C 146.63 174.01 147.44 174.78 148.42 174.76 C 149.40 174.73 150.17 173.92 150.15 172.94 L 150.12 171.93 C 150.09 170.95 149.28 170.17 148.30 170.20 C 147.32 170.23 146.55 171.04 146.57 172.02 Z M 146.60 173.03 L 146.63 174.04 C 146.65 175.02 147.47 175.79 148.45 175.76 C 149.43 175.74 150.20 174.92 150.17 173.94 L 150.15 172.94 C 150.12 171.96 149.30 171.18 148.33 171.21 C 147.35 171.24 146.57 172.05 146.60 173.03 Z M 146.63 174.03 L 146.65 175.03 C 146.68 176.01 147.49 176.79 148.47 176.76 C 149.45 176.73 150.23 175.92 150.20 174.94 L 150.17 173.94 C 150.15 172.96 149.33 172.19 148.35 172.21 C 147.37 172.24 146.60 173.05 146.63 174.03 Z M 146.65 175.03 L 146.68 176.02 C 146.70 177.00 147.51 177.78 148.49 177.75 C 149.48 177.73 150.25 176.92 150.23 175.94 L 150.20 174.94 C 150.18 173.96 149.36 173.19 148.38 173.21 C 147.40 173.23 146.63 174.05 146.65 175.03 Z M 146.67 176.02 L 146.70 177.01 C 146.72 177.99 147.53 178.77 148.51 178.75 C 149.50 178.73 150.27 177.91 150.25 176.93 L 150.23 175.94 C 150.20 174.96 149.39 174.18 148.41 174.20 C 147.43 174.23 146.65 175.04 146.67 176.02 Z M 146.70 177.01 L 146.72 178.00 C 146.74 178.99 147.55 179.76 148.53 179.74 C 149.51 179.72 150.29 178.91 150.27 177.93 L 150.25 176.94 C 150.23 175.96 149.42 175.18 148.44 175.20 C 147.46 175.22 146.68 176.03 146.70 177.01 Z M 146.72 178.00 L 146.73 179.00 C 146.75 179.98 147.56 180.76 148.54 180.74 C 149.52 180.73 150.31 179.92 150.29 178.93 L 150.27 177.94 C 150.25 176.95 149.44 176.17 148.46 176.19 C 147.48 176.21 146.70 177.02 146.72 178.00 Z M 146.73 178.99 L 146.75 179.99 C 146.76 180.97 147.57 181.75 148.55 181.74 C 149.53 181.72 150.32 180.92 150.30 179.93 L 150.29 178.94 C 150.28 177.96 149.47 177.17 148.49 177.19 C 147.50 177.20 146.72 178.01 146.73 178.99 Z M 146.75 179.98 L 146.76 180.97 C 146.77 181.95 147.57 182.74 148.56 182.73 C 149.54 182.72 150.33 181.91 150.32 180.93 L 150.30 179.94 C 150.29 178.96 149.49 178.17 148.51 178.18 C 147.52 178.19 146.74 179.00 146.75 179.98 Z M 146.76 180.96 L 146.76 181.96 C 146.77 182.94 147.58 183.73 148.56 183.72 C 149.54 183.71 150.33 182.91 150.32 181.93 L 150.32 180.93 C 150.31 179.95 149.51 179.16 148.52 179.17 C 147.54 179.18 146.75 179.98 146.76 180.96 Z M 146.76 181.95 L 146.77 182.95 C 146.77 183.93 147.58 184.72 148.56 184.72 C 149.54 184.71 150.34 183.91 150.33 182.93 L 150.33 181.93 C 150.32 180.95 149.52 180.15 148.53 180.16 C 147.55 180.17 146.76 180.97 146.76 181.95 Z M 146.77 182.95 L 146.77 183.95 C 146.78 184.93 147.58 185.73 148.56 185.72 C 149.54 185.72 150.34 184.92 150.34 183.93 L 150.33 182.93 C 150.33 181.95 149.53 181.15 148.54 181.16 C 147.56 181.16 146.77 181.96 146.77 182.95 Z M 146.77 183.94 L 146.77 184.95 C 146.78 185.93 147.58 186.73 148.56 186.73 C 149.54 186.73 150.34 185.93 150.34 184.94 L 150.34 183.94 C 150.33 182.95 149.53 182.16 148.55 182.16 C 147.57 182.16 146.77 182.96 146.77 183.94 Z M 146.77 184.95 L 146.77 185.95 C 146.77 186.94 147.57 187.74 148.56 187.74 C 149.54 187.73 150.34 186.94 150.34 185.95 L 150.34 184.94 C 150.34 183.96 149.54 183.16 148.55 183.16 C 147.57 183.16 146.77 183.96 146.77 184.95 Z M 146.77 185.95 L 146.77 186.96 C 146.77 187.95 147.57 188.74 148.56 188.74 C 149.54 188.74 150.34 187.95 150.34 186.96 L 150.34 185.95 C 150.34 184.97 149.54 184.17 148.56 184.17 C 147.57 184.17 146.77 184.97 146.77 185.95 Z M 146.77 186.96 L 146.77 187.97 C 146.77 188.96 147.57 189.76 148.56 189.76 C 149.54 189.76 150.34 188.96 150.34 187.97 L 150.34 186.96 C 150.34 185.98 149.54 185.18 148.56 185.18 C 147.57 185.18 146.77 185.98 146.77 186.96 Z M 146.77 187.97 L 146.77 188.98 C 146.77 189.97 147.57 190.77 148.56 190.77 C 149.54 190.77 150.34 189.97 150.34 188.98 L 150.34 187.97 C 150.34 186.99 149.54 186.19 148.56 186.19 C 147.57 186.19 146.77 186.99 146.77 187.97 Z M 146.77 188.98 L 146.77 190.00 C 146.77 190.98 147.57 191.78 148.56 191.78 C 149.54 191.78 150.34 190.98 150.34 190.00 L 150.34 188.98 C 150.34 188.00 149.54 187.20 148.56 187.20 C 147.57 187.20 146.77 188.00 146.77 188.98 Z M 146.77 190.00 L 146.77 191.00 C 146.77 191.99 147.57 192.79 148.56 192.79 C 149.54 192.79 150.34 191.99 150.34 191.00 L 150.34 190.00 C 150.34 189.01 149.54 188.21 148.56 188.21 C 147.57 188.21 146.77 189.01 146.77 190.00 Z M 146.77 191.00 L 146.77 192.01 C 146.77 193.00 147.57 193.80 148.56 193.80 C 149.54 193.80 150.34 193.00 150.34 192.01 L 150.34 191.00 C 150.34 190.02 149.54 189.22 148.56 189.22 C 147.57 189.22 146.77 190.02 146.77 191.00 Z M 146.77 192.01 L 146.77 193.01 C 146.77 194.00 147.57 194.80 148.56 194.80 C 149.54 194.80 150.35 194.00 150.35 193.01 L 150.35 192.01 C 150.35 191.02 149.54 190.22 148.56 190.22 C 147.57 190.22 146.77 191.02 146.77 192.01 Z M 146.77 193.01 L 146.77 194.00 C 146.77 194.99 147.57 195.79 148.56 195.79 C 149.55 195.79 150.35 194.99 150.35 194.00 L 150.35 193.01 C 150.35 192.02 149.55 191.22 148.56 191.22 C 147.57 191.22 146.77 192.02 146.77 193.01 Z M 146.77 194.00 L 146.77 194.98 C 146.77 195.97 147.57 196.77 148.56 196.77 C 149.55 196.77 150.35 195.97 150.35 194.98 L 150.35 194.00 C 150.35 193.01 149.55 192.21 148.56 192.21 C 147.57 192.21 146.77 193.01 146.77 194.00 Z M 146.77 194.98 L 146.77 195.98 C 146.77 196.97 147.57 197.77 148.56 197.77 C 149.55 197.77 150.35 196.97 150.35 195.98 L 150.35 194.98 C 150.35 194.00 149.55 193.19 148.56 193.19 C 147.57 193.19 146.77 194.00 146.77 194.98 Z M 146.77 195.98 L 146.77 197.01 C 146.77 198.00 147.57 198.80 148.56 198.80 C 149.55 198.80 150.35 198.00 150.35 197.01 L 150.35 195.98 C 150.35 194.99 149.55 194.19 148.56 194.19 C 147.57 194.19 146.77 194.99 146.77 195.98 Z M 146.77 197.01 L 146.77 198.03 C 146.77 199.02 147.57 199.82 148.56 199.82 C 149.55 199.82 150.35 199.02 150.35 198.03 L 150.35 197.01 C 150.35 196.02 149.55 195.22 148.56 195.22 C 147.57 195.22 146.77 196.02 146.77 197.01 Z M 146.77 198.03 L 146.77 199.04 C 146.77 200.02 147.57 200.83 148.56 200.83 C 149.55 200.83 150.35 200.02 150.35 199.04 L 150.35 198.03 C 150.35 197.04 149.55 196.23 148.56 196.23 C 147.57 196.23 146.77 197.04 146.77 198.03 Z M 146.77 199.04 L 146.77 200.03 C 146.77 201.02 147.57 201.83 148.56 201.83 C 149.55 201.83 150.35 201.02 150.35 200.03 L 150.35 199.04 C 150.35 198.05 149.55 197.24 148.56 197.24 C 147.57 197.24 146.77 198.05 146.77 199.04 Z M 146.76 200.03 L 146.76 201.02 C 146.76 202.01 147.57 202.82 148.56 202.82 C 149.55 202.82 150.35 202.01 150.35 201.02 L 150.35 200.03 C 150.35 199.04 149.55 198.24 148.56 198.24 C 147.57 198.24 146.76 199.04 146.76 200.03 Z M 146.76 201.02 L 146.76 202.00 C 146.76 202.99 147.57 203.80 148.56 203.80 C 149.55 203.80 150.35 202.99 150.35 202.00 L 150.35 201.02 C 150.35 200.03 149.55 199.23 148.56 199.23 C 147.57 199.23 146.76 200.03 146.76 201.02 Z M 146.76 202.00 L 146.76 202.98 C 146.76 203.97 147.57 204.77 148.56 204.77 C 149.55 204.77 150.35 203.97 150.35 202.98 L 150.35 202.00 C 150.35 201.01 149.55 200.21 148.56 200.21 C 147.57 200.21 146.76 201.01 146.76 202.00 Z M 146.76 202.98 L 146.76 203.98 C 146.76 204.97 147.57 205.77 148.56 205.77 C 149.55 205.77 150.35 204.97 150.35 203.98 L 150.35 202.98 C 150.35 201.98 149.55 201.18 148.56 201.18 C 147.57 201.18 146.76 201.98 146.76 202.98 Z M 146.76 203.98 L 146.76 204.98 C 146.76 205.97 147.57 206.78 148.56 206.78 C 149.55 206.78 150.35 205.97 150.35 204.98 L 150.35 203.98 C 150.35 202.98 149.55 202.18 148.56 202.18 C 147.57 202.18 146.76 202.98 146.76 203.98 Z M 146.76 204.98 L 146.76 205.98 C 146.76 206.97 147.57 207.78 148.56 207.78 C 149.55 207.78 150.35 206.97 150.35 205.98 L 150.35 204.98 C 150.35 203.99 149.55 203.19 148.56 203.19 C 147.57 203.19 146.76 203.99 146.76 204.98 Z M 146.76 205.98 L 146.76 206.98 C 146.76 207.97 147.57 208.78 148.56 208.78 C 149.55 208.78 150.35 207.97 150.35 206.98 L 150.35 205.98 C 150.35 204.99 149.55 204.19 148.56 204.19 C 147.57 204.19 146.76 204.99 146.76 205.98 Z M 146.76 206.98 L 146.76 207.98 C 146.76 208.97 147.57 209.77 148.56 209.77 C 149.55 209.77 150.35 208.97 150.35 207.98 L 150.35 206.98 C 150.35 205.99 149.55 205.18 148.56 205.18 C 147.57 205.18 146.76 205.99 146.76 206.98 Z M 146.76 207.98 L 146.76 208.97 C 146.76 209.96 147.57 210.77 148.56 210.77 C 149.55 210.77 150.35 209.96 150.35 208.97 L 150.35 207.98 C 150.35 206.98 149.55 206.18 148.56 206.18 C 147.57 206.18 146.76 206.98 146.76 207.98 Z M 146.76 208.97 L 146.76 209.97 C 146.76 210.96 147.57 211.76 148.56 211.76 C 149.55 211.76 150.35 210.96 150.35 209.97 L 150.35 208.97 C 150.35 207.98 149.55 207.17 148.56 207.17 C 147.57 207.17 146.76 207.98 146.76 208.97 Z M 146.76 209.97 L 146.76 210.99 C 146.76 211.98 147.56 212.79 148.56 212.79 C 149.55 212.79 150.35 211.98 150.35 210.99 L 150.35 209.97 C 150.35 208.97 149.55 208.17 148.56 208.17 C 147.57 208.17 146.76 208.97 146.76 209.97 Z M 146.76 210.99 L 146.76 212.03 C 146.76 213.03 147.56 213.83 148.56 213.83 C 149.55 213.83 150.35 213.03 150.35 212.04 L 150.35 210.99 C 150.35 210.00 149.55 209.20 148.56 209.19 C 147.57 209.19 146.76 210.00 146.76 210.99 Z M 146.76 212.03 L 146.76 213.07 C 146.76 214.06 147.56 214.87 148.55 214.87 C 149.55 214.87 150.35 214.07 150.35 213.07 L 150.35 212.04 C 150.36 211.04 149.55 210.24 148.56 210.24 C 147.57 210.24 146.76 211.04 146.76 212.03 Z M 146.76 213.07 L 146.76 214.09 C 146.75 215.08 147.55 215.89 148.55 215.89 C 149.54 215.89 150.35 215.09 150.35 214.10 L 150.35 213.08 C 150.36 212.08 149.55 211.28 148.56 211.27 C 147.57 211.27 146.76 212.07 146.76 213.07 Z M 146.76 214.08 L 146.75 215.08 C 146.74 216.07 147.54 216.88 148.54 216.89 C 149.53 216.89 150.34 216.09 150.34 215.10 L 150.35 214.10 C 150.35 213.11 149.55 212.30 148.56 212.30 C 147.57 212.29 146.76 213.09 146.76 214.08 Z M 146.75 215.08 L 146.74 216.05 C 146.73 217.04 147.53 217.85 148.52 217.86 C 149.51 217.87 150.33 217.07 150.33 216.08 L 150.34 215.11 C 150.35 214.12 149.56 213.30 148.56 213.30 C 147.57 213.29 146.76 214.08 146.75 215.08 Z M 146.74 216.04 L 146.73 216.97 C 146.72 217.96 147.51 218.78 148.50 218.79 C 149.49 218.81 150.31 218.01 150.32 217.02 L 150.33 216.09 C 150.35 215.09 149.55 214.28 148.56 214.27 C 147.57 214.25 146.75 215.05 146.74 216.04 Z M 146.73 216.96 L 146.71 217.93 C 146.69 218.93 147.48 219.75 148.47 219.77 C 149.46 219.79 150.28 219.00 150.30 218.00 L 150.32 217.03 C 150.34 216.04 149.55 215.22 148.56 215.20 C 147.57 215.18 146.75 215.97 146.73 216.96 Z M 146.71 217.92 L 146.68 218.89 C 146.66 219.88 147.44 220.71 148.43 220.74 C 149.42 220.76 150.25 219.98 150.28 218.99 L 150.30 218.02 C 150.33 217.03 149.55 216.20 148.56 216.17 C 147.56 216.15 146.74 216.93 146.71 217.92 Z M 146.68 218.87 L 146.65 219.83 C 146.61 220.82 147.38 221.65 148.37 221.69 C 149.37 221.73 150.20 220.95 150.24 219.96 L 150.27 219.01 C 150.31 218.02 149.54 217.18 148.55 217.14 C 147.56 217.11 146.72 217.88 146.68 218.87 Z M 146.65 219.80 L 146.60 220.77 C 146.55 221.76 147.31 222.60 148.31 222.65 C 149.30 222.70 150.14 221.94 150.19 220.95 L 150.24 219.98 C 150.29 218.99 149.52 218.15 148.53 218.10 C 147.54 218.05 146.70 218.81 146.65 219.80 Z M 146.60 220.75 L 146.54 221.75 C 146.48 222.74 147.23 223.59 148.22 223.65 C 149.21 223.71 150.07 222.96 150.13 221.97 L 150.19 220.97 C 150.25 219.98 149.50 219.12 148.51 219.06 C 147.51 219.00 146.66 219.76 146.60 220.75 Z M 146.54 221.73 L 146.46 222.79 C 146.39 223.78 147.14 224.64 148.13 224.71 C 149.12 224.78 149.98 224.04 150.05 223.05 L 150.13 221.99 C 150.20 221.00 149.45 220.14 148.46 220.06 C 147.47 219.99 146.61 220.74 146.54 221.73 Z M 146.47 222.77 L 146.39 223.75 C 146.30 224.74 147.04 225.61 148.03 225.69 C 149.02 225.77 149.89 225.04 149.97 224.05 L 150.05 223.06 C 150.13 222.08 149.39 221.21 148.40 221.13 C 147.41 221.05 146.55 221.78 146.47 222.77 Z M 146.39 223.74 L 146.30 224.69 C 146.21 225.68 146.94 226.56 147.93 226.64 C 148.92 226.73 149.79 226.00 149.88 225.01 L 149.97 224.06 C 150.05 223.07 149.32 222.20 148.34 222.11 C 147.35 222.02 146.47 222.75 146.39 223.74 Z M 146.30 224.68 L 146.21 225.67 C 146.11 226.66 146.84 227.54 147.82 227.63 C 148.81 227.73 149.69 227.00 149.79 226.02 L 149.88 225.03 C 149.98 224.04 149.25 223.16 148.26 223.06 C 147.28 222.97 146.40 223.69 146.30 224.68 Z M 146.21 225.66 L 146.10 226.68 C 146.00 227.66 146.72 228.55 147.71 228.65 C 148.69 228.75 149.58 228.03 149.68 227.05 L 149.78 226.03 C 149.89 225.04 149.17 224.16 148.18 224.06 C 147.19 223.95 146.31 224.67 146.21 225.66 Z M 146.10 226.66 L 145.99 227.69 C 145.88 228.68 146.59 229.57 147.58 229.68 C 148.56 229.79 149.45 229.08 149.56 228.09 L 149.68 227.06 C 149.79 226.07 149.08 225.18 148.09 225.07 C 147.10 224.96 146.21 225.68 146.10 226.66 Z M 145.99 227.67 L 145.87 228.70 C 145.75 229.69 146.45 230.58 147.44 230.70 C 148.42 230.82 149.32 230.12 149.44 229.13 L 149.56 228.10 C 149.68 227.12 148.98 226.22 147.99 226.10 C 147.01 225.99 146.11 226.69 145.99 227.67 Z M 145.87 228.68 L 145.74 229.69 C 145.61 230.68 146.30 231.58 147.29 231.71 C 148.27 231.84 149.18 231.14 149.30 230.16 L 149.44 229.15 C 149.56 228.16 148.87 227.26 147.89 227.13 C 146.90 227.00 146.00 227.70 145.87 228.68 Z M 145.74 229.67 L 145.60 230.66 C 145.46 231.64 146.14 232.55 147.13 232.69 C 148.11 232.83 149.02 232.15 149.16 231.16 L 149.30 230.18 C 149.44 229.20 148.76 228.29 147.77 228.15 C 146.79 228.01 145.88 228.69 145.74 229.67 Z M 145.60 230.63 L 145.43 231.74 C 145.28 232.72 145.95 233.64 146.93 233.79 C 147.91 233.95 148.83 233.28 148.98 232.30 L 149.16 231.19 C 149.31 230.21 148.64 229.29 147.66 229.13 C 146.68 228.98 145.76 229.65 145.60 230.63 Z M 145.43 231.71 L 145.25 232.76 C 145.08 233.74 145.74 234.67 146.72 234.84 C 147.69 235.01 148.63 234.36 148.80 233.38 L 148.98 232.32 C 149.15 231.35 148.49 230.41 147.51 230.24 C 146.54 230.07 145.60 230.73 145.43 231.71 Z M 145.26 232.74 L 145.07 233.74 C 144.88 234.72 145.52 235.66 146.50 235.84 C 147.48 236.03 148.42 235.38 148.60 234.41 L 148.79 233.40 C 148.97 232.43 148.33 231.49 147.36 231.30 C 146.38 231.12 145.44 231.76 145.26 232.74 Z M 145.07 233.72 L 144.88 234.68 C 144.68 235.65 145.31 236.60 146.28 236.80 C 147.25 237.00 148.20 236.37 148.40 235.40 L 148.60 234.43 C 148.79 233.46 148.16 232.51 147.19 232.31 C 146.22 232.11 145.27 232.74 145.07 233.72 Z M 144.88 234.66 L 144.68 235.58 C 144.47 236.55 145.09 237.51 146.06 237.72 C 147.03 237.93 147.99 237.31 148.20 236.34 L 148.40 235.42 C 148.60 234.45 147.99 233.49 147.02 233.28 C 146.05 233.07 145.09 233.69 144.88 234.66 Z M 144.68 235.56 L 144.48 236.46 C 144.26 237.42 144.87 238.39 145.84 238.61 C 146.81 238.83 147.77 238.22 147.99 237.25 L 148.19 236.36 C 148.41 235.39 147.80 234.43 146.84 234.21 C 145.87 233.99 144.90 234.60 144.68 235.56 Z M 144.49 236.44 L 144.27 237.38 C 144.04 238.35 144.64 239.31 145.60 239.54 C 146.57 239.77 147.54 239.17 147.76 238.20 L 147.99 237.27 C 148.21 236.30 147.61 235.33 146.65 235.10 C 145.68 234.88 144.71 235.48 144.49 236.44 Z M 144.27 237.35 L 144.02 238.34 C 143.78 239.30 144.37 240.28 145.33 240.52 C 146.29 240.76 147.27 240.18 147.51 239.21 L 147.76 238.23 C 148.00 237.27 147.42 236.29 146.45 236.05 C 145.49 235.81 144.51 236.39 144.27 237.35 Z M 144.04 238.29 L 143.77 239.24 C 143.50 240.20 144.05 241.19 145.01 241.46 C 145.96 241.73 146.95 241.18 147.22 240.22 L 147.49 239.27 C 147.76 238.31 147.21 237.32 146.26 237.05 C 145.30 236.78 144.31 237.33 144.04 238.29 Z M 143.79 239.17 L 143.48 240.10 C 143.17 241.04 143.68 242.05 144.62 242.37 C 145.56 242.68 146.58 242.17 146.89 241.23 L 147.20 240.30 C 147.51 239.36 147.00 238.34 146.06 238.03 C 145.12 237.72 144.11 238.23 143.79 239.17 Z M 143.52 240.00 L 143.16 240.92 C 142.79 241.84 143.24 242.88 144.16 243.25 C 145.08 243.61 146.12 243.16 146.49 242.24 L 146.85 241.33 C 147.22 240.41 146.77 239.37 145.85 239.00 C 144.93 238.63 143.89 239.08 143.52 240.00 Z M 143.21 240.80 L 142.77 241.70 C 142.34 242.60 142.72 243.67 143.61 244.10 C 144.50 244.53 145.57 244.15 146.00 243.26 L 146.44 242.36 C 146.87 241.47 146.49 240.40 145.60 239.97 C 144.71 239.54 143.64 239.91 143.21 240.80 Z M 142.84 241.59 L 142.35 242.43 C 141.86 243.29 142.15 244.38 143.00 244.87 C 143.86 245.37 144.95 245.08 145.45 244.22 L 145.94 243.38 C 146.43 242.52 146.14 241.43 145.28 240.93 C 144.43 240.44 143.33 240.73 142.84 241.59 Z M 142.42 242.32 L 141.86 243.15 C 141.31 243.96 141.52 245.07 142.34 245.63 C 143.16 246.18 144.27 245.97 144.82 245.15 L 145.38 244.33 C 145.93 243.51 145.72 242.40 144.90 241.85 C 144.09 241.29 142.98 241.51 142.42 242.32 Z M 141.94 243.04 L 141.32 243.83 C 140.71 244.61 140.84 245.73 141.61 246.34 C 142.39 246.95 143.51 246.81 144.12 246.04 L 144.74 245.25 C 145.35 244.48 145.22 243.36 144.45 242.75 C 143.67 242.14 142.55 242.27 141.94 243.04 Z M 141.41 243.74 L 140.72 244.48 C 140.06 245.20 140.11 246.33 140.83 246.99 C 141.55 247.66 142.68 247.61 143.34 246.89 L 144.03 246.14 C 144.69 245.42 144.64 244.29 143.92 243.63 C 143.20 242.97 142.07 243.01 141.41 243.74 Z M 140.83 244.38 L 140.09 245.07 C 139.37 245.74 139.33 246.86 139.99 247.57 C 140.66 248.29 141.78 248.33 142.50 247.67 L 143.24 246.98 C 143.96 246.32 144.00 245.20 143.33 244.48 C 142.67 243.76 141.55 243.72 140.83 244.38 Z M 140.21 244.97 L 139.42 245.59 C 138.64 246.19 138.51 247.30 139.11 248.07 C 139.71 248.84 140.82 248.98 141.59 248.38 L 142.38 247.77 C 143.15 247.17 143.29 246.05 142.69 245.28 C 142.09 244.51 140.98 244.37 140.21 244.97 Z M 139.55 245.50 L 138.71 246.04 C 137.89 246.57 137.65 247.66 138.18 248.48 C 138.70 249.30 139.79 249.53 140.61 249.01 L 141.45 248.47 C 142.27 247.94 142.51 246.85 141.99 246.03 C 141.46 245.21 140.37 244.97 139.55 245.50 Z M 138.84 245.97 L 137.96 246.44 C 137.10 246.89 136.77 247.95 137.23 248.81 C 137.68 249.67 138.74 250.00 139.60 249.54 L 140.48 249.08 C 141.34 248.62 141.67 247.56 141.21 246.70 C 140.76 245.84 139.70 245.52 138.84 245.97 Z M 138.07 246.39 L 137.16 246.79 C 136.28 247.18 135.88 248.21 136.27 249.10 C 136.66 249.98 137.69 250.39 138.57 249.99 L 139.49 249.59 C 140.37 249.20 140.77 248.17 140.38 247.28 C 139.99 246.40 138.96 246.00 138.07 246.39 Z M 137.26 246.76 L 136.32 247.10 C 135.42 247.44 134.96 248.45 135.30 249.35 C 135.63 250.25 136.64 250.71 137.54 250.38 L 138.48 250.03 C 139.38 249.69 139.84 248.69 139.50 247.78 C 139.17 246.88 138.16 246.42 137.26 246.76 Z M 136.40 247.08 L 135.45 247.39 C 134.53 247.68 134.03 248.66 134.32 249.58 C 134.61 250.49 135.59 251.00 136.51 250.70 L 137.46 250.40 C 138.38 250.11 138.88 249.13 138.59 248.21 C 138.30 247.30 137.32 246.79 136.40 247.08 Z M 135.51 247.38 L 134.56 247.64 C 133.64 247.90 133.10 248.86 133.36 249.78 C 133.62 250.71 134.58 251.24 135.50 250.98 L 136.45 250.71 C 137.37 250.46 137.91 249.50 137.65 248.58 C 137.39 247.65 136.43 247.12 135.51 247.38 Z M 134.61 247.64 L 133.69 247.87 C 132.76 248.10 132.20 249.04 132.43 249.97 C 132.66 250.89 133.60 251.45 134.53 251.22 L 135.45 250.99 C 136.37 250.76 136.93 249.82 136.70 248.89 C 136.47 247.97 135.53 247.41 134.61 247.64 Z M 133.74 247.87 L 132.80 248.07 C 131.87 248.27 131.29 249.19 131.49 250.12 C 131.69 251.05 132.61 251.63 133.54 251.43 L 134.48 251.22 C 135.40 251.02 135.99 250.10 135.79 249.18 C 135.58 248.25 134.67 247.66 133.74 247.87 Z M 132.86 248.07 L 131.90 248.25 C 130.97 248.42 130.35 249.31 130.52 250.24 C 130.70 251.17 131.59 251.79 132.52 251.61 L 133.48 251.43 C 134.41 251.26 135.03 250.37 134.85 249.44 C 134.68 248.51 133.79 247.89 132.86 248.07 Z M 131.96 248.24 L 130.96 248.39 C 130.03 248.53 129.39 249.40 129.53 250.33 C 129.66 251.26 130.53 251.90 131.46 251.76 L 132.46 251.62 C 133.39 251.48 134.03 250.61 133.89 249.68 C 133.76 248.75 132.89 248.10 131.96 248.24 Z M 131.02 248.39 L 129.98 248.51 C 129.05 248.61 128.38 249.45 128.49 250.39 C 128.59 251.32 129.43 251.99 130.37 251.88 L 131.40 251.77 C 132.33 251.66 133.00 250.82 132.90 249.89 C 132.79 248.96 131.95 248.29 131.02 248.39 Z M 130.04 248.51 L 128.97 248.59 C 128.04 248.67 127.35 249.48 127.42 250.41 C 127.49 251.34 128.30 252.04 129.24 251.96 L 130.31 251.88 C 131.24 251.81 131.93 251.00 131.86 250.06 C 131.79 249.13 130.97 248.44 130.04 248.51 Z M 129.03 248.60 L 128.04 248.64 C 127.11 248.68 126.39 249.47 126.43 250.40 C 126.47 251.33 127.26 252.05 128.19 252.01 L 129.18 251.96 C 130.11 251.92 130.83 251.13 130.79 250.20 C 130.74 249.27 129.96 248.55 129.03 248.60 Z M 128.09 248.64 L 127.07 248.66 C 126.15 248.67 125.41 249.44 125.42 250.37 C 125.43 251.29 126.20 252.03 127.13 252.02 L 128.14 252.00 C 129.07 251.99 129.81 251.23 129.80 250.30 C 129.78 249.37 129.02 248.63 128.09 248.64 Z M 127.13 248.66 L 126.10 248.65 C 125.17 248.63 124.41 249.37 124.40 250.30 C 124.38 251.22 125.12 251.99 126.05 252.00 L 127.07 252.01 C 128.00 252.03 128.76 251.29 128.77 250.37 C 128.79 249.44 128.05 248.68 127.13 248.66 Z M 126.15 248.66 L 125.13 248.61 C 124.21 248.56 123.42 249.27 123.38 250.19 C 123.33 251.11 124.04 251.90 124.97 251.94 L 125.99 251.99 C 126.91 252.04 127.70 251.33 127.74 250.41 C 127.79 249.48 127.07 248.70 126.15 248.66 Z M 125.19 248.61 L 124.18 248.53 C 123.26 248.45 122.46 249.13 122.38 250.05 C 122.30 250.96 122.98 251.77 123.90 251.85 L 124.90 251.93 C 125.82 252.01 126.63 251.33 126.71 250.42 C 126.78 249.50 126.11 248.69 125.19 248.61 Z M 124.25 248.54 L 123.27 248.41 C 122.36 248.30 121.53 248.94 121.41 249.85 C 121.30 250.76 121.94 251.59 122.85 251.71 L 123.83 251.84 C 124.74 251.95 125.57 251.31 125.69 250.40 C 125.80 249.49 125.16 248.66 124.25 248.54 Z M 123.36 248.43 L 122.42 248.26 C 121.52 248.10 120.66 248.70 120.49 249.60 C 120.33 250.50 120.93 251.36 121.83 251.52 L 122.77 251.69 C 123.67 251.85 124.53 251.26 124.69 250.36 C 124.85 249.46 124.26 248.59 123.36 248.43 Z M 122.52 248.29 L 121.45 248.03 C 120.57 247.81 119.67 248.34 119.45 249.23 C 119.23 250.11 119.77 251.01 120.65 251.23 L 121.73 251.49 C 122.61 251.71 123.51 251.18 123.73 250.29 C 123.95 249.41 123.41 248.51 122.52 248.29 Z M 121.56 248.07 L 120.57 247.74 C 119.71 247.46 118.78 247.93 118.50 248.79 C 118.22 249.65 118.69 250.58 119.55 250.86 L 120.54 251.19 C 121.40 251.47 122.33 251.00 122.61 250.14 C 122.89 249.28 122.42 248.35 121.56 248.07 Z M 120.67 247.79 L 119.75 247.42 C 118.91 247.08 117.96 247.48 117.63 248.32 C 117.29 249.15 117.69 250.10 118.53 250.44 L 119.45 250.81 C 120.28 251.15 121.24 250.75 121.57 249.91 C 121.91 249.08 121.51 248.13 120.67 247.79 Z M 119.83 247.46 L 118.97 247.05 C 118.16 246.67 117.19 247.01 116.80 247.82 C 116.42 248.63 116.76 249.60 117.57 249.98 L 118.44 250.39 C 119.25 250.78 120.22 250.43 120.60 249.62 C 120.99 248.81 120.64 247.85 119.83 247.46 Z M 119.03 247.09 L 118.21 246.65 C 117.42 246.23 116.44 246.53 116.02 247.31 C 115.60 248.10 115.90 249.08 116.68 249.50 L 117.51 249.94 C 118.29 250.36 119.27 250.06 119.69 249.28 C 120.11 248.49 119.82 247.51 119.03 247.09 Z M 118.25 246.69 L 117.45 246.22 C 116.68 245.78 115.70 246.04 115.25 246.81 C 114.81 247.57 115.07 248.55 115.84 249.00 L 116.64 249.46 C 117.41 249.91 118.39 249.65 118.83 248.88 C 119.28 248.11 119.02 247.13 118.25 246.69 Z M 117.48 246.25 L 116.69 245.76 C 115.94 245.30 114.95 245.53 114.49 246.29 C 114.03 247.04 114.26 248.02 115.01 248.48 L 115.81 248.97 C 116.56 249.43 117.54 249.20 118.01 248.45 C 118.47 247.70 118.23 246.71 117.48 246.25 Z M 116.73 245.79 L 115.94 245.27 C 115.20 244.79 114.21 245.00 113.73 245.73 C 113.25 246.47 113.45 247.46 114.19 247.94 L 114.98 248.46 C 115.71 248.94 116.70 248.73 117.18 248.00 C 117.67 247.26 117.46 246.27 116.73 245.79 Z M 115.98 245.30 L 115.18 244.74 C 114.46 244.24 113.47 244.41 112.96 245.13 C 112.46 245.85 112.63 246.84 113.35 247.35 L 114.15 247.91 C 114.87 248.41 115.86 248.24 116.36 247.52 C 116.87 246.80 116.69 245.81 115.98 245.30 Z M 115.21 244.78 L 114.39 244.16 C 113.69 243.64 112.69 243.78 112.17 244.48 C 111.65 245.18 111.79 246.17 112.49 246.70 L 113.32 247.31 C 114.02 247.84 115.01 247.69 115.53 246.99 C 116.06 246.29 115.91 245.30 115.21 244.78 Z M 114.42 244.19 L 113.56 243.51 C 112.87 242.97 111.88 243.08 111.34 243.76 C 110.80 244.45 110.91 245.44 111.60 245.98 L 112.46 246.67 C 113.14 247.21 114.13 247.09 114.68 246.41 C 115.22 245.73 115.10 244.73 114.42 244.19 Z M 113.58 243.53 L 112.84 242.92 C 112.17 242.36 111.18 242.46 110.63 243.12 C 110.07 243.79 110.16 244.79 110.83 245.34 L 111.57 245.96 C 112.24 246.51 113.23 246.42 113.79 245.75 C 114.34 245.08 114.25 244.09 113.58 243.53 Z M 112.86 242.94 L 112.16 242.34 C 111.50 241.77 110.51 241.85 109.94 242.50 C 109.38 243.16 109.45 244.16 110.11 244.72 L 110.81 245.32 C 111.47 245.89 112.46 245.81 113.03 245.16 C 113.60 244.50 113.52 243.50 112.86 242.94 Z M 112.17 242.35 L 111.45 241.71 C 110.80 241.14 109.80 241.20 109.23 241.85 C 108.66 242.50 108.72 243.50 109.37 244.07 L 110.10 244.71 C 110.75 245.28 111.74 245.22 112.32 244.57 C 112.89 243.91 112.82 242.92 112.17 242.35 Z M 111.46 241.72 L 110.71 241.06 C 110.07 240.48 109.08 240.53 108.50 241.18 C 107.92 241.82 107.97 242.81 108.62 243.39 L 109.36 244.06 C 110.01 244.64 111.00 244.58 111.58 243.94 C 112.16 243.29 112.10 242.30 111.46 241.72 Z M 110.72 241.06 L 109.96 240.37 C 109.32 239.79 108.33 239.84 107.75 240.48 C 107.16 241.12 107.21 242.11 107.85 242.69 L 108.61 243.38 C 109.25 243.97 110.24 243.92 110.83 243.28 C 111.41 242.64 111.36 241.65 110.72 241.06 Z M 109.96 240.38 L 109.19 239.67 C 108.56 239.09 107.57 239.13 106.98 239.77 C 106.40 240.40 106.44 241.39 107.08 241.98 L 107.85 242.69 C 108.49 243.27 109.48 243.23 110.06 242.59 C 110.64 241.95 110.60 240.96 109.96 240.38 Z M 109.20 239.68 L 108.42 238.96 C 107.78 238.37 106.79 238.41 106.21 239.05 C 105.62 239.68 105.66 240.67 106.29 241.26 L 107.07 241.97 C 107.71 242.56 108.70 242.52 109.28 241.89 C 109.87 241.25 109.83 240.26 109.20 239.68 Z M 108.42 238.96 L 107.73 238.32 C 107.09 237.73 106.10 237.77 105.52 238.41 C 104.93 239.04 104.97 240.03 105.60 240.61 L 106.29 241.25 C 106.93 241.84 107.92 241.80 108.50 241.17 C 109.09 240.53 109.05 239.55 108.42 238.96 Z"
      fill="black"
      fill-rule="nonzero" /><path d="M 111.45 179.10 L 110.39 179.14 C 109.45 179.18 108.71 179.98 108.74 180.93 C 108.78 181.88 109.58 182.61 110.53 182.58 L 111.58 182.54 C 112.53 182.50 113.27 181.70 113.23 180.75 C 113.20 179.80 112.40 179.06 111.45 179.10 Z M 110.35 179.12 L 109.31 179.19 C 108.36 179.25 107.63 180.07 107.69 181.03 C 107.75 181.99 108.57 182.72 109.53 182.66 L 110.57 182.59 C 111.53 182.53 112.26 181.71 112.20 180.75 C 112.14 179.79 111.31 179.06 110.35 179.12 Z M 109.23 179.18 L 108.22 179.29 C 107.25 179.39 106.56 180.26 106.66 181.23 C 106.77 182.19 107.64 182.89 108.60 182.78 L 109.61 182.67 C 110.58 182.57 111.28 181.70 111.17 180.73 C 111.06 179.77 110.20 179.07 109.23 179.18 Z M 108.09 179.29 L 107.12 179.47 C 106.15 179.65 105.52 180.58 105.70 181.54 C 105.88 182.51 106.81 183.14 107.77 182.96 L 108.74 182.78 C 109.70 182.60 110.34 181.67 110.16 180.71 C 109.98 179.74 109.05 179.11 108.09 179.29 Z M 106.93 179.49 L 106.02 179.77 C 105.07 180.05 104.53 181.06 104.81 182.01 C 105.10 182.96 106.10 183.50 107.05 183.21 L 107.96 182.94 C 108.91 182.65 109.45 181.65 109.17 180.70 C 108.88 179.75 107.88 179.21 106.93 179.49 Z M 105.77 179.84 L 104.95 180.22 C 104.04 180.64 103.64 181.72 104.06 182.63 C 104.48 183.54 105.56 183.94 106.47 183.52 L 107.30 183.14 C 108.21 182.72 108.60 181.64 108.18 180.73 C 107.76 179.82 106.68 179.42 105.77 179.84 Z M 104.70 180.35 L 104.02 180.81 C 103.18 181.37 102.96 182.50 103.52 183.34 C 104.08 184.18 105.21 184.40 106.05 183.84 L 106.72 183.39 C 107.56 182.83 107.79 181.69 107.23 180.86 C 106.67 180.02 105.53 179.79 104.70 180.35 Z M 103.82 180.96 L 103.19 181.52 C 102.43 182.19 102.37 183.35 103.04 184.10 C 103.71 184.85 104.86 184.92 105.61 184.25 L 106.25 183.69 C 107.00 183.02 107.06 181.86 106.39 181.11 C 105.72 180.36 104.57 180.29 103.82 180.96 Z M 103.04 181.67 L 102.43 182.35 C 101.76 183.10 101.83 184.25 102.58 184.92 C 103.33 185.60 104.48 185.53 105.16 184.78 L 105.76 184.10 C 106.43 183.35 106.37 182.20 105.62 181.53 C 104.86 180.86 103.71 180.92 103.04 181.67 Z M 102.33 182.47 L 101.74 183.27 C 101.14 184.07 101.30 185.22 102.11 185.82 C 102.91 186.42 104.06 186.26 104.66 185.45 L 105.26 184.66 C 105.86 183.85 105.69 182.71 104.89 182.10 C 104.08 181.50 102.94 181.66 102.33 182.47 Z M 101.68 183.36 L 101.07 184.27 C 100.52 185.12 100.76 186.25 101.60 186.80 C 102.44 187.35 103.57 187.12 104.12 186.28 L 104.72 185.36 C 105.28 184.52 105.04 183.39 104.20 182.83 C 103.36 182.28 102.23 182.52 101.68 183.36 Z M 101.04 184.33 L 100.41 185.38 C 99.89 186.24 100.17 187.36 101.03 187.88 C 101.89 188.40 103.02 188.12 103.53 187.26 L 104.16 186.22 C 104.68 185.35 104.40 184.23 103.54 183.71 C 102.68 183.19 101.55 183.47 101.04 184.33 Z M 100.39 185.41 L 99.85 186.35 C 99.35 187.23 99.65 188.34 100.52 188.84 C 101.40 189.34 102.51 189.04 103.01 188.17 L 103.55 187.22 C 104.05 186.35 103.75 185.24 102.88 184.73 C 102.00 184.23 100.89 184.54 100.39 185.41 Z M 99.84 186.37 L 99.39 187.19 C 98.89 188.07 99.21 189.18 100.09 189.67 C 100.96 190.16 102.07 189.84 102.57 188.96 L 103.02 188.15 C 103.51 187.27 103.20 186.16 102.32 185.67 C 101.44 185.18 100.33 185.49 99.84 186.37 Z M 99.38 187.20 L 98.91 188.06 C 98.43 188.94 98.75 190.04 99.63 190.53 C 100.51 191.01 101.62 190.69 102.10 189.81 L 102.57 188.95 C 103.05 188.07 102.73 186.97 101.85 186.48 C 100.97 186.00 99.86 186.32 99.38 187.20 Z M 98.91 188.07 L 98.43 188.96 C 97.95 189.84 98.28 190.94 99.16 191.42 C 100.04 191.90 101.14 191.57 101.62 190.69 L 102.10 189.80 C 102.58 188.92 102.25 187.81 101.37 187.34 C 100.49 186.86 99.38 187.19 98.91 188.07 Z M 98.42 188.97 L 97.94 189.88 C 97.46 190.76 97.80 191.86 98.68 192.33 C 99.57 192.81 100.67 192.47 101.14 191.59 L 101.62 190.68 C 102.10 189.79 101.76 188.69 100.88 188.22 C 99.99 187.75 98.90 188.08 98.42 188.97 Z M 97.93 189.89 L 97.45 190.81 C 96.98 191.70 97.32 192.79 98.20 193.26 C 99.09 193.73 100.18 193.39 100.65 192.50 L 101.14 191.58 C 101.61 190.69 101.27 189.60 100.38 189.13 C 99.50 188.66 98.40 189.00 97.93 189.89 Z M 97.45 190.82 L 96.96 191.74 C 96.50 192.63 96.84 193.72 97.73 194.19 C 98.61 194.65 99.71 194.31 100.17 193.42 L 100.65 192.50 C 101.12 191.61 100.77 190.52 99.89 190.05 C 99.00 189.59 97.91 189.93 97.45 190.82 Z M 96.96 191.75 L 96.48 192.67 C 96.02 193.56 96.37 194.65 97.26 195.11 C 98.14 195.57 99.23 195.22 99.69 194.34 L 100.17 193.42 C 100.63 192.53 100.28 191.44 99.40 190.98 C 98.51 190.52 97.42 190.86 96.96 191.75 Z M 96.48 192.68 L 96.02 193.58 C 95.56 194.47 95.91 195.56 96.80 196.01 C 97.68 196.47 98.77 196.12 99.23 195.23 L 99.69 194.33 C 100.15 193.44 99.80 192.35 98.91 191.90 C 98.03 191.44 96.94 191.79 96.48 192.68 Z M 96.02 193.59 L 95.57 194.46 C 95.12 195.35 95.47 196.44 96.36 196.89 C 97.24 197.34 98.33 196.99 98.78 196.10 L 99.23 195.23 C 99.68 194.34 99.33 193.25 98.44 192.80 C 97.56 192.35 96.47 192.70 96.02 193.59 Z M 95.57 194.47 L 95.13 195.35 C 94.68 196.23 95.03 197.32 95.92 197.77 C 96.80 198.22 97.89 197.86 98.34 196.97 L 98.78 196.10 C 99.23 195.21 98.88 194.13 97.99 193.68 C 97.10 193.23 96.02 193.58 95.57 194.47 Z M 95.13 195.36 L 94.69 196.24 C 94.24 197.12 94.60 198.20 95.48 198.64 C 96.36 199.09 97.44 198.73 97.89 197.85 L 98.33 196.97 C 98.78 196.08 98.42 195.01 97.54 194.56 C 96.65 194.12 95.58 194.47 95.13 195.36 Z M 94.69 196.25 L 94.27 197.10 C 93.82 197.98 94.18 199.05 95.06 199.49 C 95.94 199.93 97.01 199.58 97.45 198.70 L 97.88 197.84 C 98.32 196.96 97.96 195.89 97.09 195.45 C 96.21 195.01 95.14 195.37 94.69 196.25 Z M 94.28 197.10 L 93.86 197.94 C 93.42 198.82 93.77 199.88 94.64 200.32 C 95.52 200.76 96.58 200.40 97.02 199.53 L 97.44 198.69 C 97.88 197.82 97.53 196.75 96.65 196.31 C 95.78 195.88 94.71 196.23 94.28 197.10 Z M 93.87 197.94 L 93.45 198.78 C 93.01 199.65 93.36 200.71 94.23 201.14 C 95.10 201.58 96.15 201.23 96.59 200.36 L 97.01 199.53 C 97.45 198.66 97.10 197.60 96.23 197.16 C 95.36 196.73 94.30 197.07 93.87 197.94 Z M 93.46 198.78 L 93.03 199.63 C 92.59 200.49 92.94 201.54 93.80 201.98 C 94.66 202.42 95.71 202.07 96.15 201.21 L 96.58 200.36 C 97.02 199.50 96.67 198.45 95.81 198.01 C 94.95 197.57 93.89 197.92 93.46 198.78 Z M 93.04 199.63 L 92.59 200.50 C 92.16 201.35 92.49 202.40 93.35 202.84 C 94.20 203.28 95.25 202.94 95.69 202.08 L 96.14 201.21 C 96.57 200.35 96.24 199.31 95.38 198.87 C 94.53 198.43 93.48 198.77 93.04 199.63 Z M 92.61 200.50 L 92.13 201.41 C 91.69 202.26 92.03 203.30 92.87 203.74 C 93.72 204.18 94.77 203.85 95.20 203.00 L 95.68 202.09 C 96.12 201.24 95.79 200.19 94.94 199.76 C 94.09 199.32 93.05 199.65 92.61 200.50 Z M 92.15 201.40 L 91.64 202.37 C 91.20 203.21 91.52 204.25 92.36 204.69 C 93.20 205.13 94.24 204.81 94.68 203.97 L 95.19 203.00 C 95.63 202.16 95.31 201.12 94.47 200.68 C 93.63 200.24 92.59 200.56 92.15 201.40 Z M 91.65 202.37 L 91.13 203.34 C 90.69 204.18 91.01 205.21 91.84 205.66 C 92.67 206.10 93.71 205.78 94.15 204.95 L 94.67 203.97 C 95.11 203.14 94.80 202.10 93.96 201.66 C 93.13 201.22 92.10 201.53 91.65 202.37 Z M 91.14 203.34 L 90.70 204.17 C 90.25 205.00 90.56 206.03 91.39 206.48 C 92.22 206.92 93.25 206.61 93.69 205.79 L 94.14 204.95 C 94.59 204.12 94.28 203.09 93.45 202.65 C 92.62 202.20 91.59 202.51 91.14 203.34 Z M 90.70 204.17 L 90.23 205.04 C 89.79 205.87 90.09 206.89 90.92 207.34 C 91.74 207.79 92.77 207.48 93.21 206.66 L 93.68 205.79 C 94.13 204.97 93.83 203.94 93.00 203.49 C 92.18 203.04 91.15 203.35 90.70 204.17 Z M 90.24 205.04 L 89.75 205.94 C 89.30 206.76 89.61 207.78 90.43 208.23 C 91.24 208.68 92.27 208.37 92.72 207.55 L 93.21 206.66 C 93.65 205.84 93.35 204.81 92.53 204.37 C 91.71 203.92 90.69 204.22 90.24 205.04 Z M 89.76 205.94 L 89.26 206.85 C 88.81 207.67 89.11 208.69 89.92 209.14 C 90.74 209.58 91.76 209.29 92.21 208.47 L 92.71 207.56 C 93.16 206.74 92.86 205.72 92.04 205.27 C 91.23 204.82 90.20 205.12 89.76 205.94 Z M 89.26 206.85 L 88.75 207.78 C 88.31 208.59 88.60 209.61 89.42 210.06 C 90.23 210.50 91.25 210.21 91.69 209.39 L 92.20 208.47 C 92.65 207.66 92.35 206.64 91.54 206.19 C 90.73 205.74 89.71 206.04 89.26 206.85 Z M 88.76 207.78 L 88.25 208.71 C 87.80 209.52 88.10 210.53 88.91 210.98 C 89.71 211.42 90.73 211.13 91.18 210.32 L 91.69 209.39 C 92.13 208.58 91.84 207.57 91.03 207.12 C 90.22 206.68 89.21 206.97 88.76 207.78 Z M 88.25 208.71 L 87.74 209.63 C 87.30 210.44 87.59 211.45 88.40 211.89 C 89.20 212.34 90.22 212.05 90.66 211.24 L 91.17 210.32 C 91.62 209.51 91.32 208.50 90.52 208.05 C 89.71 207.61 88.70 207.90 88.25 208.71 Z M 87.75 209.63 L 87.25 210.54 C 86.80 211.34 87.10 212.35 87.90 212.80 C 88.70 213.24 89.71 212.95 90.16 212.15 L 90.66 211.24 C 91.10 210.44 90.81 209.43 90.01 208.98 C 89.20 208.54 88.19 208.83 87.75 209.63 Z M 87.25 210.54 L 86.76 211.43 C 86.32 212.23 86.61 213.23 87.41 213.68 C 88.21 214.12 89.22 213.83 89.66 213.03 L 90.15 212.14 C 90.59 211.34 90.30 210.34 89.50 209.89 C 88.70 209.45 87.70 209.74 87.25 210.54 Z M 86.77 211.43 L 86.30 212.28 C 85.86 213.08 86.15 214.08 86.94 214.52 C 87.74 214.97 88.74 214.68 89.19 213.88 L 89.66 213.02 C 90.10 212.23 89.81 211.22 89.01 210.78 C 88.21 210.34 87.21 210.63 86.77 211.43 Z M 86.30 212.29 L 85.85 213.10 C 85.41 213.90 85.70 214.90 86.50 215.33 C 87.29 215.77 88.29 215.48 88.73 214.69 L 89.18 213.87 C 89.62 213.08 89.33 212.08 88.54 211.64 C 87.74 211.20 86.74 211.49 86.30 212.29 Z M 85.86 213.11 L 85.40 213.95 C 84.96 214.74 85.25 215.74 86.04 216.17 C 86.83 216.61 87.83 216.32 88.27 215.52 L 88.73 214.68 C 89.16 213.89 88.87 212.90 88.08 212.46 C 87.29 212.02 86.29 212.31 85.86 213.11 Z M 85.40 213.95 L 84.77 215.11 C 84.34 215.90 84.63 216.89 85.42 217.32 C 86.21 217.75 87.20 217.46 87.63 216.67 L 88.26 215.52 C 88.69 214.73 88.40 213.74 87.61 213.31 C 86.82 212.87 85.83 213.17 85.40 213.95 Z M 84.78 215.12 L 84.22 216.15 C 83.80 216.93 84.09 217.91 84.87 218.34 C 85.66 218.77 86.64 218.47 87.07 217.69 L 87.62 216.66 C 88.05 215.87 87.76 214.89 86.97 214.47 C 86.19 214.04 85.20 214.33 84.78 215.12 Z M 84.23 216.16 L 83.73 217.08 C 83.31 217.86 83.61 218.84 84.39 219.26 C 85.17 219.68 86.15 219.38 86.57 218.60 L 87.06 217.68 C 87.48 216.89 87.19 215.92 86.41 215.50 C 85.62 215.08 84.65 215.37 84.23 216.16 Z M 83.74 217.09 L 83.30 217.92 C 82.88 218.70 83.18 219.67 83.96 220.08 C 84.74 220.50 85.70 220.20 86.12 219.42 L 86.56 218.59 C 86.98 217.81 86.68 216.84 85.90 216.43 C 85.12 216.01 84.15 216.31 83.74 217.09 Z M 83.30 217.93 L 82.89 218.70 C 82.49 219.48 82.78 220.44 83.56 220.85 C 84.33 221.26 85.30 220.96 85.70 220.18 L 86.11 219.41 C 86.52 218.64 86.22 217.68 85.45 217.27 C 84.67 216.86 83.71 217.16 83.30 217.93 Z M 82.90 218.71 L 82.52 219.44 C 82.12 220.21 82.41 221.16 83.19 221.57 C 83.96 221.97 84.91 221.68 85.32 220.90 L 85.70 220.18 C 86.10 219.40 85.80 218.45 85.03 218.05 C 84.26 217.64 83.31 217.94 82.90 218.71 Z M 82.53 219.45 L 82.16 220.15 C 81.76 220.92 82.06 221.86 82.83 222.26 C 83.59 222.67 84.54 222.37 84.94 221.60 L 85.31 220.90 C 85.71 220.13 85.41 219.18 84.64 218.78 C 83.88 218.38 82.93 218.68 82.53 219.45 Z M 82.17 220.15 L 82.13 220.22 C 81.73 220.99 82.03 221.93 82.79 222.33 C 83.56 222.73 84.50 222.43 84.90 221.67 L 84.94 221.60 C 85.34 220.83 85.04 219.89 84.27 219.49 C 83.51 219.09 82.57 219.39 82.17 220.15 Z"
      fill="black"
      fill-rule="nonzero" /><path d="M 183.18 176.82 L 182.39 177.45 C 181.64 178.06 181.53 179.16 182.13 179.90 C 182.74 180.65 183.84 180.77 184.58 180.16 L 185.37 179.53 C 186.12 178.92 186.24 177.82 185.63 177.08 C 185.03 176.33 183.93 176.21 183.18 176.82 Z M 182.33 177.46 L 181.56 178.11 C 180.82 178.76 180.73 179.88 181.38 180.63 C 182.02 181.37 183.14 181.46 183.89 180.82 L 184.65 180.16 C 185.40 179.52 185.48 178.39 184.84 177.65 C 184.20 176.90 183.07 176.82 182.33 177.46 Z M 181.45 178.16 L 180.74 178.86 C 180.02 179.56 180.01 180.71 180.71 181.43 C 181.41 182.15 182.57 182.16 183.29 181.46 L 184.00 180.77 C 184.72 180.07 184.73 178.91 184.03 178.19 C 183.33 177.47 182.17 177.46 181.45 178.16 Z M 180.59 178.96 L 179.96 179.71 C 179.30 180.50 179.40 181.67 180.18 182.33 C 180.97 182.99 182.14 182.90 182.80 182.11 L 183.44 181.36 C 184.10 180.57 184.00 179.40 183.21 178.74 C 182.43 178.08 181.26 178.18 180.59 178.96 Z M 179.78 179.89 L 179.25 180.72 C 178.68 181.60 178.94 182.77 179.82 183.34 C 180.70 183.90 181.88 183.65 182.44 182.77 L 182.98 181.94 C 183.54 181.06 183.29 179.88 182.41 179.31 C 181.52 178.75 180.35 179.00 179.78 179.89 Z M 179.08 180.96 L 178.69 181.84 C 178.26 182.81 178.70 183.95 179.68 184.38 C 180.65 184.82 181.79 184.38 182.22 183.40 L 182.61 182.52 C 183.04 181.55 182.60 180.41 181.63 179.98 C 180.65 179.55 179.52 179.99 179.08 180.96 Z M 178.59 182.10 L 178.34 183.01 C 178.05 184.04 178.66 185.11 179.69 185.40 C 180.72 185.68 181.79 185.08 182.08 184.04 L 182.33 183.14 C 182.61 182.11 182.01 181.04 180.98 180.75 C 179.94 180.47 178.87 181.07 178.59 182.10 Z M 178.29 183.24 L 178.14 184.21 C 177.98 185.27 178.72 186.25 179.78 186.41 C 180.84 186.57 181.82 185.84 181.98 184.78 L 182.13 183.81 C 182.29 182.75 181.55 181.77 180.49 181.61 C 179.43 181.45 178.45 182.18 178.29 183.24 Z M 178.12 184.41 L 178.08 185.41 C 178.03 186.49 178.86 187.39 179.94 187.44 C 181.01 187.49 181.91 186.65 181.96 185.58 L 182.00 184.58 C 182.05 183.50 181.22 182.60 180.15 182.55 C 179.07 182.51 178.17 183.34 178.12 184.41 Z M 178.08 185.60 L 178.13 186.63 C 178.18 187.70 179.10 188.52 180.17 188.47 C 181.24 188.41 182.07 187.50 182.01 186.43 L 181.96 185.40 C 181.91 184.33 180.99 183.50 179.92 183.56 C 178.85 183.61 178.02 184.52 178.08 185.60 Z M 178.14 186.79 L 178.29 187.82 C 178.43 188.89 179.41 189.63 180.48 189.49 C 181.54 189.34 182.29 188.36 182.14 187.30 L 182.00 186.26 C 181.85 185.20 180.87 184.45 179.81 184.60 C 178.74 184.75 178.00 185.73 178.14 186.79 Z M 178.31 187.98 L 178.54 188.99 C 178.77 190.03 179.81 190.70 180.86 190.46 C 181.91 190.23 182.57 189.19 182.33 188.14 L 182.11 187.14 C 181.88 186.09 180.84 185.43 179.79 185.66 C 178.74 185.89 178.08 186.93 178.31 187.98 Z M 178.57 189.13 L 178.86 190.06 C 179.17 191.09 180.26 191.67 181.28 191.36 C 182.31 191.05 182.89 189.96 182.58 188.93 L 182.30 188.00 C 181.98 186.97 180.90 186.39 179.87 186.70 C 178.84 187.02 178.26 188.10 178.57 189.13 Z M 178.90 190.19 L 179.25 191.10 C 179.63 192.11 180.76 192.61 181.76 192.23 C 182.76 191.84 183.26 190.72 182.88 189.72 L 182.53 188.81 C 182.15 187.80 181.03 187.30 180.03 187.68 C 179.02 188.07 178.52 189.19 178.90 190.19 Z M 179.30 191.22 L 179.71 192.11 C 180.16 193.09 181.31 193.52 182.28 193.07 C 183.26 192.63 183.68 191.48 183.24 190.50 L 182.83 189.61 C 182.39 188.63 181.24 188.20 180.26 188.65 C 179.29 189.09 178.86 190.24 179.30 191.22 Z M 179.76 192.21 L 180.23 193.09 C 180.72 194.04 181.90 194.40 182.84 193.90 C 183.79 193.41 184.15 192.23 183.65 191.29 L 183.19 190.40 C 182.69 189.46 181.52 189.09 180.57 189.59 C 179.63 190.09 179.26 191.26 179.76 192.21 Z M 180.27 193.17 L 180.79 194.05 C 181.33 194.97 182.52 195.27 183.44 194.73 C 184.36 194.19 184.67 193.00 184.12 192.08 L 183.61 191.21 C 183.06 190.29 181.88 189.98 180.96 190.52 C 180.04 191.07 179.73 192.25 180.27 193.17 Z M 180.83 194.11 L 181.40 194.98 C 181.98 195.88 183.17 196.13 184.07 195.55 C 184.96 194.97 185.22 193.78 184.64 192.88 L 184.08 192.01 C 183.50 191.12 182.30 190.86 181.41 191.44 C 180.51 192.02 180.25 193.22 180.83 194.11 Z M 181.43 195.03 L 181.96 195.80 C 182.57 196.67 183.77 196.89 184.65 196.28 C 185.52 195.67 185.74 194.47 185.13 193.60 L 184.60 192.83 C 183.99 191.96 182.79 191.74 181.92 192.35 C 181.04 192.96 180.83 194.16 181.43 195.03 Z M 182.00 195.83 L 182.51 196.54 C 183.14 197.39 184.35 197.58 185.20 196.95 C 186.06 196.32 186.25 195.12 185.62 194.26 L 185.10 193.56 C 184.47 192.70 183.27 192.52 182.41 193.15 C 181.55 193.77 181.37 194.98 182.00 195.83 Z M 182.55 196.57 L 183.10 197.28 C 183.74 198.12 184.95 198.28 185.79 197.63 C 186.63 196.98 186.78 195.78 186.13 194.94 L 185.58 194.23 C 184.94 193.39 183.73 193.23 182.89 193.88 C 182.05 194.53 181.90 195.73 182.55 196.57 Z M 183.13 197.31 L 183.71 198.04 C 184.38 198.86 185.58 198.99 186.40 198.33 C 187.22 197.67 187.35 196.46 186.69 195.64 L 186.10 194.91 C 185.44 194.09 184.24 193.96 183.41 194.62 C 182.59 195.29 182.46 196.49 183.13 197.31 Z M 183.74 198.07 L 184.37 198.82 C 185.05 199.62 186.25 199.73 187.06 199.05 C 187.86 198.38 187.97 197.17 187.29 196.37 L 186.66 195.62 C 185.99 194.81 184.78 194.70 183.98 195.38 C 183.17 196.06 183.06 197.26 183.74 198.07 Z M 184.40 198.84 L 185.07 199.62 C 185.76 200.41 186.96 200.49 187.75 199.80 C 188.55 199.12 188.63 197.91 187.94 197.12 L 187.27 196.34 C 186.58 195.55 185.38 195.47 184.58 196.16 C 183.79 196.84 183.71 198.05 184.40 198.84 Z M 185.10 199.63 L 185.82 200.45 C 186.52 201.22 187.72 201.29 188.50 200.59 C 189.28 199.89 189.34 198.70 188.65 197.92 L 187.92 197.10 C 187.22 196.32 186.02 196.26 185.24 196.96 C 184.46 197.66 184.40 198.85 185.10 199.63 Z M 185.84 200.46 L 186.62 201.31 C 187.33 202.08 188.53 202.13 189.29 201.42 C 190.06 200.72 190.11 199.52 189.41 198.75 L 188.63 197.90 C 187.92 197.13 186.72 197.08 185.96 197.79 C 185.19 198.50 185.14 199.69 185.84 200.46 Z M 186.64 201.32 L 187.38 202.11 C 188.09 202.86 189.28 202.90 190.04 202.19 C 190.80 201.48 190.84 200.29 190.13 199.53 L 189.39 198.74 C 188.68 197.98 187.49 197.95 186.73 198.66 C 185.97 199.37 185.93 200.56 186.64 201.32 Z M 187.39 202.11 L 188.02 202.77 C 188.73 203.52 189.92 203.55 190.67 202.84 C 191.42 202.12 191.45 200.93 190.74 200.18 L 190.11 199.52 C 189.40 198.77 188.21 198.74 187.46 199.46 C 186.71 200.17 186.68 201.36 187.39 202.11 Z M 188.03 202.77 L 188.69 203.45 C 189.40 204.19 190.59 204.22 191.33 203.50 C 192.07 202.78 192.10 201.60 191.38 200.86 L 190.73 200.18 C 190.01 199.43 188.83 199.41 188.08 200.13 C 187.34 200.85 187.32 202.03 188.03 202.77 Z M 188.70 203.45 L 189.37 204.15 C 190.09 204.88 191.27 204.90 192.01 204.18 C 192.75 203.46 192.76 202.28 192.04 201.55 L 191.37 200.85 C 190.65 200.12 189.47 200.10 188.73 200.82 C 188.00 201.54 187.98 202.72 188.70 203.45 Z M 189.39 204.15 L 190.08 204.86 C 190.80 205.59 191.98 205.60 192.71 204.88 C 193.44 204.16 193.45 202.98 192.73 202.25 L 192.03 201.55 C 191.31 200.82 190.14 200.81 189.41 201.53 C 188.68 202.25 188.67 203.42 189.39 204.15 Z M 190.10 204.86 L 190.81 205.58 C 191.53 206.30 192.70 206.30 193.43 205.58 C 194.15 204.86 194.15 203.69 193.43 202.97 L 192.72 202.25 C 191.99 201.53 190.82 201.53 190.10 202.25 C 189.38 202.97 189.38 204.14 190.10 204.86 Z M 190.82 205.58 L 191.55 206.30 C 192.27 207.02 193.44 207.01 194.16 206.29 C 194.87 205.57 194.87 204.40 194.15 203.69 L 193.42 202.96 C 192.70 202.25 191.53 202.25 190.81 202.98 C 190.10 203.70 190.10 204.86 190.82 205.58 Z M 191.57 206.30 L 192.31 207.03 C 193.03 207.74 194.19 207.73 194.90 207.01 C 195.61 206.28 195.60 205.12 194.87 204.41 L 194.13 203.69 C 193.41 202.98 192.25 202.99 191.54 203.71 C 190.83 204.43 190.84 205.60 191.57 206.30 Z M 192.32 207.03 L 193.07 207.76 C 193.79 208.46 194.95 208.44 195.65 207.72 C 196.35 206.99 196.33 205.84 195.61 205.14 L 194.86 204.41 C 194.14 203.71 192.98 203.73 192.28 204.45 C 191.58 205.17 191.59 206.33 192.32 207.03 Z M 193.08 207.76 L 193.83 208.48 C 194.56 209.18 195.71 209.15 196.41 208.43 C 197.10 207.70 197.08 206.55 196.35 205.85 L 195.60 205.13 C 194.87 204.44 193.72 204.46 193.02 205.19 C 192.33 205.91 192.35 207.07 193.08 207.76 Z M 193.85 208.49 L 194.60 209.20 C 195.33 209.89 196.48 209.86 197.16 209.13 C 197.85 208.40 197.82 207.25 197.09 206.57 L 196.34 205.85 C 195.61 205.16 194.46 205.20 193.77 205.92 C 193.09 206.65 193.12 207.80 193.85 208.49 Z M 194.61 209.20 L 195.37 209.91 C 196.10 210.59 197.24 210.55 197.92 209.82 C 198.60 209.09 198.56 207.95 197.83 207.27 L 197.08 206.56 C 196.35 205.88 195.21 205.92 194.53 206.65 C 193.85 207.38 193.89 208.52 194.61 209.20 Z M 195.39 209.91 L 196.20 210.66 C 196.93 211.33 198.06 211.28 198.74 210.55 C 199.41 209.82 199.36 208.68 198.63 208.01 L 197.81 207.26 C 197.09 206.59 195.95 206.64 195.28 207.37 C 194.61 208.10 194.66 209.24 195.39 209.91 Z M 196.22 210.65 L 197.04 211.40 C 197.77 212.06 198.89 212.00 199.55 211.27 C 200.21 210.54 200.16 209.42 199.43 208.76 L 198.61 208.01 C 197.88 207.35 196.76 207.41 196.10 208.14 C 195.44 208.87 195.49 209.99 196.22 210.65 Z M 197.06 211.39 L 197.87 212.11 C 198.59 212.76 199.71 212.70 200.36 211.98 C 201.01 211.25 200.94 210.14 200.22 209.49 L 199.41 208.76 C 198.68 208.11 197.57 208.17 196.92 208.90 C 196.27 209.63 196.33 210.74 197.06 211.39 Z M 197.88 212.11 L 198.68 212.81 C 199.40 213.45 200.51 213.39 201.15 212.66 C 201.79 211.94 201.72 210.83 201.00 210.19 L 200.20 209.49 C 199.48 208.85 198.37 208.92 197.73 209.64 C 197.09 210.36 197.16 211.47 197.88 212.11 Z M 198.69 212.81 L 199.47 213.49 C 200.19 214.12 201.29 214.05 201.92 213.33 C 202.55 212.61 202.48 211.52 201.76 210.89 L 200.98 210.20 C 200.26 209.57 199.17 209.64 198.54 210.36 C 197.90 211.08 197.98 212.17 198.69 212.81 Z M 199.49 213.48 L 200.25 214.14 C 200.96 214.77 202.05 214.69 202.67 213.98 C 203.29 213.26 203.22 212.18 202.51 211.56 L 201.74 210.89 C 201.03 210.27 199.95 210.34 199.32 211.06 C 198.70 211.77 198.77 212.86 199.49 213.48 Z M 200.26 214.13 L 201.00 214.78 C 201.71 215.39 202.78 215.32 203.40 214.61 C 204.02 213.90 203.94 212.82 203.23 212.21 L 202.49 211.57 C 201.78 210.95 200.71 211.03 200.09 211.74 C 199.48 212.44 199.55 213.52 200.26 214.13 Z M 201.01 214.77 L 201.73 215.38 C 202.43 215.99 203.49 215.92 204.10 215.22 C 204.71 214.51 204.64 213.45 203.93 212.84 L 203.22 212.22 C 202.52 211.61 201.45 211.69 200.84 212.39 C 200.23 213.09 200.31 214.16 201.01 214.77 Z M 201.73 215.37 L 202.42 215.97 C 203.12 216.57 204.17 216.50 204.78 215.80 C 205.38 215.11 205.31 214.05 204.61 213.45 L 203.92 212.85 C 203.23 212.25 202.17 212.32 201.57 213.02 C 200.96 213.71 201.04 214.77 201.73 215.37 Z M 202.43 215.95 L 203.09 216.53 C 203.78 217.13 204.82 217.06 205.42 216.37 C 206.02 215.68 205.95 214.64 205.26 214.04 L 204.60 213.46 C 203.92 212.86 202.87 212.93 202.27 213.62 C 201.67 214.31 201.74 215.35 202.43 215.95 Z M 203.09 216.51 L 203.81 217.15 C 204.49 217.74 205.53 217.68 206.12 217.00 C 206.72 216.32 206.66 215.28 205.98 214.69 L 205.26 214.05 C 204.58 213.46 203.54 213.52 202.94 214.20 C 202.35 214.88 202.41 215.91 203.09 216.51 Z M 203.81 217.13 L 204.66 217.89 C 205.33 218.49 206.36 218.43 206.96 217.76 C 207.56 217.09 207.50 216.06 206.83 215.46 L 205.98 214.70 C 205.31 214.10 204.28 214.16 203.68 214.83 C 203.08 215.50 203.14 216.53 203.81 217.13 Z M 204.66 217.87 L 205.45 218.59 C 206.11 219.19 207.14 219.14 207.74 218.48 C 208.34 217.82 208.29 216.80 207.63 216.20 L 206.83 215.48 C 206.17 214.88 205.15 214.93 204.55 215.59 C 203.95 216.25 204.00 217.27 204.66 217.87 Z M 205.45 218.58 L 206.19 219.26 C 206.85 219.86 207.86 219.82 208.46 219.17 C 209.07 218.52 209.02 217.50 208.37 216.90 L 207.63 216.21 C 206.97 215.61 205.96 215.66 205.36 216.31 C 204.76 216.96 204.80 217.98 205.45 218.58 Z M 206.19 219.25 L 206.90 219.91 C 207.54 220.51 208.55 220.47 209.15 219.83 C 209.76 219.18 209.72 218.17 209.08 217.57 L 208.37 216.91 C 207.73 216.31 206.72 216.35 206.11 216.99 C 205.51 217.64 205.55 218.65 206.19 219.25 Z M 206.90 219.89 L 207.57 220.53 C 208.21 221.13 209.22 221.10 209.82 220.46 C 210.42 219.82 210.39 218.82 209.75 218.22 L 209.07 217.58 C 208.44 216.98 207.43 217.01 206.83 217.65 C 206.23 218.29 206.26 219.29 206.90 219.89 Z M 207.58 220.52 L 208.23 221.14 C 208.87 221.74 209.86 221.71 210.46 221.08 C 211.06 220.45 211.04 219.45 210.40 218.85 L 209.75 218.23 C 209.12 217.63 208.12 217.66 207.52 218.29 C 206.92 218.92 206.95 219.92 207.58 220.52 Z M 208.24 221.13 L 208.77 221.64 C 209.40 222.24 210.39 222.21 210.99 221.59 C 211.58 220.96 211.56 219.97 210.93 219.37 L 210.40 218.86 C 209.77 218.27 208.78 218.29 208.18 218.92 C 207.59 219.54 207.61 220.54 208.24 221.13 Z"
      fill="black"
      fill-rule="nonzero" /></svg>