<svg xmlns="http://www.w3.org/2000/svg" width="300" height="300" viewBox="0 0 300 300">
<path d="M 120.02 161.28 L 118.87 161.29 C 117.95 161.29 117.22 162.04 117.22 162.96 C 117.23 163.87 117.98 164.61 118.89 164.60 L 120.04 164.59 C 120.96 164.58 121.69 163.84 121.69 162.92 C 121.68 162.01 120.93 161.27 120.02 161.28 Z M 118.78 161.28 L 117.71 161.34 C 116.79 161.40 116.09 162.19 116.14 163.11 C 116.19 164.03 116.99 164.73 117.91 164.67 L 118.98 164.61 C 119.90 164.56 120.60 163.76 120.55 162.84 C 120.49 161.92 119.70 161.22 118.78 161.28 Z M 117.50 161.35 L 116.57 161.53 C 115.66 161.70 115.06 162.58 115.23 163.49 C 115.40 164.40 116.28 165.01 117.19 164.83 L 118.12 164.66 C 119.03 164.49 119.63 163.61 119.46 162.70 C 119.29 161.78 118.41 161.18 117.50 161.35 Z M 116.13 161.66 L 115.41 162.02 C 114.57 162.43 114.23 163.45 114.64 164.29 C 115.06 165.13 116.07 165.47 116.91 165.06 L 117.63 164.70 C 118.47 164.28 118.82 163.27 118.40 162.43 C 117.99 161.59 116.97 161.25 116.13 161.66 Z M 114.73 162.61 L 114.24 163.37 C 113.73 164.16 113.96 165.22 114.75 165.73 C 115.54 166.24 116.60 166.01 117.11 165.22 L 117.59 164.46 C 118.10 163.67 117.88 162.61 117.08 162.10 C 116.29 161.59 115.24 161.82 114.73 162.61 Z M 113.96 164.23 L 113.92 165.21 C 113.88 166.16 114.62 166.96 115.57 167.00 C 116.52 167.03 117.31 166.29 117.35 165.35 L 117.39 164.36 C 117.42 163.41 116.69 162.62 115.74 162.58 C 114.79 162.54 113.99 163.28 113.96 164.23 Z M 113.99 165.80 L 114.30 166.81 C 114.59 167.72 115.56 168.23 116.47 167.94 C 117.38 167.66 117.89 166.69 117.60 165.78 L 117.28 164.76 C 117.00 163.85 116.03 163.35 115.12 163.63 C 114.21 163.92 113.70 164.89 113.99 165.80 Z M 114.45 167.16 L 114.93 167.99 C 115.41 168.82 116.47 169.10 117.30 168.62 C 118.13 168.14 118.41 167.08 117.93 166.25 L 117.45 165.42 C 116.97 164.59 115.91 164.31 115.08 164.79 C 114.25 165.27 113.97 166.33 114.45 167.16 Z M 115.07 168.21 L 115.70 169.00 C 116.30 169.75 117.40 169.87 118.15 169.27 C 118.90 168.67 119.02 167.57 118.42 166.82 L 117.79 166.03 C 117.19 165.28 116.09 165.16 115.34 165.76 C 114.59 166.36 114.47 167.46 115.07 168.21 Z M 115.84 169.16 L 116.58 169.88 C 117.27 170.56 118.37 170.55 119.05 169.86 C 119.72 169.17 119.71 168.06 119.02 167.39 L 118.28 166.66 C 117.60 165.99 116.49 166.00 115.81 166.69 C 115.14 167.37 115.15 168.48 115.84 169.16 Z M 116.71 170.01 L 117.49 170.63 C 118.25 171.23 119.35 171.10 119.96 170.35 C 120.56 169.59 120.43 168.49 119.67 167.88 L 118.89 167.26 C 118.13 166.66 117.03 166.79 116.43 167.54 C 115.83 168.30 115.95 169.40 116.71 170.01 Z M 117.62 170.73 L 118.44 171.25 C 119.25 171.78 120.34 171.56 120.86 170.74 C 121.39 169.93 121.17 168.84 120.35 168.32 L 119.54 167.79 C 118.73 167.26 117.64 167.48 117.11 168.30 C 116.58 169.11 116.81 170.20 117.62 170.73 Z M 118.55 171.33 L 119.42 171.80 C 120.27 172.27 121.34 171.95 121.81 171.10 C 122.27 170.25 121.96 169.18 121.11 168.72 L 120.24 168.24 C 119.39 167.78 118.32 168.09 117.85 168.94 C 117.39 169.80 117.70 170.86 118.55 171.33 Z M 119.52 171.85 L 120.45 172.29 C 121.33 172.70 122.38 172.32 122.79 171.44 C 123.20 170.56 122.83 169.52 121.95 169.10 L 121.01 168.67 C 120.13 168.25 119.08 168.63 118.67 169.51 C 118.26 170.39 118.64 171.44 119.52 171.85 Z M 120.51 172.32 L 121.41 172.70 C 122.30 173.07 123.34 172.65 123.71 171.75 C 124.09 170.86 123.67 169.82 122.77 169.45 L 121.88 169.07 C 120.98 168.69 119.95 169.12 119.57 170.01 C 119.20 170.91 119.62 171.94 120.51 172.32 Z M 121.45 172.72 L 122.33 173.06 C 123.24 173.41 124.26 172.96 124.61 172.05 C 124.97 171.14 124.52 170.12 123.61 169.77 L 122.73 169.43 C 121.82 169.07 120.79 169.52 120.44 170.43 C 120.09 171.34 120.54 172.36 121.45 172.72 Z M 122.37 173.07 L 123.30 173.41 C 124.22 173.74 125.23 173.27 125.56 172.35 C 125.89 171.43 125.42 170.42 124.50 170.09 L 123.57 169.75 C 122.65 169.42 121.64 169.90 121.31 170.81 C 120.98 171.73 121.45 172.74 122.37 173.07 Z M 123.34 173.42 L 124.32 173.75 C 125.24 174.07 126.25 173.57 126.56 172.64 C 126.87 171.72 126.37 170.71 125.44 170.40 L 124.46 170.07 C 123.54 169.76 122.53 170.26 122.22 171.18 C 121.91 172.11 122.41 173.11 123.34 173.42 Z M 124.35 173.77 L 125.38 174.09 C 126.31 174.38 127.31 173.87 127.60 172.93 C 127.89 172.00 127.37 171.01 126.44 170.71 L 125.41 170.39 C 124.48 170.10 123.49 170.61 123.19 171.55 C 122.90 172.48 123.42 173.47 124.35 173.77 Z M 125.41 174.10 L 126.34 174.38 C 127.27 174.66 128.26 174.12 128.54 173.18 C 128.82 172.24 128.28 171.26 127.34 170.98 L 126.41 170.70 C 125.48 170.42 124.49 170.96 124.21 171.90 C 123.93 172.84 124.47 173.82 125.41 174.10 Z M 126.36 174.38 L 127.30 174.65 C 128.24 174.92 129.22 174.37 129.49 173.42 C 129.75 172.48 129.21 171.50 128.26 171.24 L 127.32 170.97 C 126.38 170.70 125.40 171.25 125.13 172.20 C 124.87 173.14 125.42 174.12 126.36 174.38 Z M 127.32 174.66 L 128.28 174.92 C 129.23 175.17 130.20 174.61 130.46 173.66 C 130.71 172.72 130.15 171.74 129.21 171.49 L 128.24 171.23 C 127.30 170.97 126.32 171.53 126.07 172.48 C 125.81 173.43 126.37 174.40 127.32 174.66 Z M 128.30 174.92 L 129.29 175.18 C 130.24 175.42 131.20 174.85 131.45 173.90 C 131.69 172.95 131.12 171.98 130.17 171.74 L 129.19 171.48 C 128.24 171.24 127.27 171.81 127.03 172.76 C 126.78 173.71 127.35 174.68 128.30 174.92 Z M 129.30 175.18 L 130.30 175.43 C 131.25 175.66 132.22 175.08 132.45 174.13 C 132.69 173.18 132.11 172.21 131.15 171.98 L 130.16 171.73 C 129.20 171.50 128.24 172.08 128.00 173.03 C 127.77 173.98 128.35 174.95 129.30 175.18 Z M 130.32 175.43 L 131.31 175.67 C 132.27 175.90 133.22 175.31 133.45 174.35 C 133.68 173.39 133.09 172.43 132.13 172.21 L 131.14 171.97 C 130.18 171.75 129.22 172.34 129.00 173.29 C 128.77 174.25 129.36 175.21 130.32 175.43 Z M 131.32 175.67 L 132.30 175.90 C 133.26 176.12 134.21 175.52 134.43 174.56 C 134.65 173.60 134.05 172.65 133.09 172.43 L 132.12 172.20 C 131.16 171.98 130.21 172.58 129.99 173.54 C 129.77 174.50 130.37 175.45 131.32 175.67 Z M 132.31 175.90 L 133.28 176.12 C 134.24 176.33 135.20 175.73 135.41 174.77 C 135.62 173.81 135.02 172.86 134.06 172.64 L 133.08 172.42 C 132.12 172.21 131.17 172.81 130.96 173.77 C 130.74 174.73 131.35 175.69 132.31 175.90 Z M 133.29 176.12 L 134.27 176.33 C 135.23 176.54 136.18 175.94 136.39 174.98 C 136.60 174.02 135.99 173.07 135.03 172.86 L 134.05 172.64 C 133.09 172.43 132.14 173.04 131.93 174.00 C 131.72 174.96 132.33 175.91 133.29 176.12 Z M 134.27 176.33 L 135.25 176.55 C 136.21 176.76 137.16 176.15 137.37 175.19 C 137.58 174.23 136.97 173.28 136.01 173.07 L 135.03 172.85 C 134.07 172.64 133.12 173.25 132.91 174.21 C 132.70 175.18 133.31 176.12 134.27 176.33 Z M 135.25 176.55 L 136.22 176.76 C 137.18 176.97 138.13 176.37 138.34 175.41 C 138.55 174.44 137.95 173.49 136.99 173.28 L 136.01 173.07 C 135.05 172.86 134.10 173.46 133.89 174.43 C 133.68 175.39 134.28 176.34 135.25 176.55 Z M 136.21 176.76 L 137.23 176.99 C 138.19 177.20 139.14 176.60 139.36 175.64 C 139.57 174.68 138.97 173.73 138.01 173.51 L 136.99 173.28 C 136.03 173.07 135.08 173.67 134.86 174.63 C 134.65 175.59 135.25 176.55 136.21 176.76 Z M 137.22 176.99 L 138.26 177.23 C 139.22 177.44 140.18 176.84 140.40 175.89 C 140.62 174.93 140.02 173.97 139.06 173.75 L 138.02 173.51 C 137.06 173.29 136.10 173.89 135.88 174.85 C 135.66 175.81 136.26 176.77 137.22 176.99 Z M 138.26 177.22 L 139.27 177.46 C 140.23 177.68 141.19 177.09 141.41 176.13 C 141.64 175.17 141.04 174.21 140.08 173.99 L 139.07 173.75 C 138.11 173.53 137.15 174.13 136.93 175.08 C 136.70 176.04 137.30 177.00 138.26 177.22 Z M 139.27 177.46 L 140.24 177.69 C 141.20 177.91 142.16 177.32 142.39 176.36 C 142.61 175.41 142.02 174.45 141.06 174.22 L 140.09 173.99 C 139.13 173.76 138.17 174.36 137.94 175.32 C 137.72 176.27 138.31 177.23 139.27 177.46 Z M 140.24 177.69 L 141.15 177.91 C 142.11 178.14 143.07 177.55 143.30 176.59 C 143.53 175.63 142.94 174.67 141.98 174.44 L 141.07 174.22 C 140.11 173.99 139.15 174.58 138.92 175.54 C 138.69 176.50 139.28 177.46 140.24 177.69 Z M 141.15 177.91 L 142.05 178.12 C 143.00 178.35 143.97 177.77 144.20 176.81 C 144.43 175.85 143.84 174.89 142.89 174.66 L 141.99 174.44 C 141.03 174.21 140.07 174.80 139.84 175.76 C 139.61 176.71 140.19 177.67 141.15 177.91 Z M 142.04 178.12 L 143.05 178.37 C 144.01 178.60 144.97 178.02 145.21 177.06 C 145.44 176.11 144.86 175.14 143.90 174.91 L 142.89 174.66 C 141.93 174.43 140.97 175.01 140.74 175.97 C 140.50 176.92 141.09 177.89 142.04 178.12 Z M 143.05 178.37 L 143.98 178.60 C 144.94 178.84 145.91 178.26 146.14 177.30 C 146.38 176.35 145.80 175.38 144.85 175.14 L 143.91 174.91 C 142.95 174.67 141.99 175.25 141.75 176.21 C 141.51 177.16 142.09 178.13 143.05 178.37 Z M 143.98 178.60 L 144.91 178.84 C 145.86 179.08 146.83 178.50 147.07 177.55 C 147.32 176.60 146.74 175.63 145.79 175.38 L 144.86 175.15 C 143.90 174.90 142.93 175.48 142.69 176.43 C 142.45 177.39 143.02 178.36 143.98 178.60 Z M 144.90 178.83 L 145.84 179.08 C 146.79 179.33 147.76 178.76 148.01 177.81 C 148.26 176.85 147.69 175.88 146.74 175.63 L 145.80 175.39 C 144.84 175.14 143.87 175.71 143.62 176.66 C 143.37 177.61 143.95 178.59 144.90 178.83 Z M 145.83 179.08 L 146.67 179.30 C 147.62 179.56 148.60 178.99 148.85 178.04 C 149.10 177.09 148.54 176.11 147.59 175.86 L 146.75 175.63 C 145.80 175.38 144.82 175.95 144.57 176.90 C 144.31 177.85 144.88 178.82 145.83 179.08 Z M 146.66 179.30 L 147.57 179.55 C 148.51 179.81 149.49 179.25 149.76 178.30 C 150.02 177.35 149.46 176.37 148.51 176.11 L 147.60 175.86 C 146.65 175.60 145.67 176.16 145.41 177.11 C 145.15 178.06 145.71 179.04 146.66 179.30 Z M 147.55 179.54 L 148.52 179.82 C 149.46 180.09 150.45 179.55 150.72 178.60 C 151.00 177.66 150.45 176.67 149.50 176.40 L 148.53 176.12 C 147.58 175.85 146.60 176.39 146.33 177.34 C 146.05 178.28 146.60 179.27 147.55 179.54 Z M 148.50 179.82 L 149.53 180.13 C 150.47 180.41 151.47 179.88 151.75 178.94 C 152.04 178.00 151.50 177.00 150.56 176.72 L 149.53 176.40 C 148.58 176.12 147.59 176.65 147.31 177.59 C 147.02 178.54 147.55 179.53 148.50 179.82 Z M 149.51 180.12 L 150.58 180.46 C 151.51 180.76 152.52 180.24 152.81 179.31 C 153.11 178.37 152.60 177.37 151.66 177.07 L 150.59 176.73 C 149.65 176.43 148.65 176.94 148.35 177.88 C 148.05 178.82 148.57 179.82 149.51 180.12 Z M 150.55 180.45 L 151.49 180.77 C 152.42 181.08 153.43 180.58 153.74 179.64 C 154.05 178.71 153.55 177.70 152.62 177.39 L 151.68 177.07 C 150.75 176.76 149.74 177.27 149.43 178.20 C 149.12 179.13 149.62 180.14 150.55 180.45 Z M 151.47 180.76 L 152.43 181.09 C 153.36 181.41 154.37 180.92 154.70 179.99 C 155.02 179.06 154.52 178.05 153.60 177.73 L 152.64 177.39 C 151.71 177.07 150.69 177.56 150.37 178.49 C 150.05 179.42 150.54 180.44 151.47 180.76 Z M 152.41 181.09 L 153.38 181.43 C 154.31 181.76 155.33 181.28 155.66 180.35 C 155.99 179.42 155.50 178.41 154.58 178.08 L 153.61 177.73 C 152.68 177.40 151.66 177.89 151.33 178.81 C 151.00 179.74 151.49 180.76 152.41 181.09 Z M 153.37 181.43 L 154.33 181.78 C 155.25 182.11 156.28 181.64 156.61 180.71 C 156.95 179.79 156.47 178.77 155.55 178.43 L 154.59 178.08 C 153.66 177.74 152.64 178.22 152.31 179.14 C 151.97 180.07 152.45 181.09 153.37 181.43 Z M 154.32 181.77 L 155.26 182.12 C 156.18 182.46 157.21 181.99 157.55 181.07 C 157.89 180.15 157.42 179.12 156.50 178.78 L 155.56 178.43 C 154.64 178.09 153.61 178.56 153.27 179.48 C 152.93 180.41 153.40 181.43 154.32 181.77 Z M 155.25 182.12 L 156.15 182.45 C 157.07 182.80 158.10 182.33 158.44 181.41 C 158.79 180.49 158.32 179.47 157.40 179.12 L 156.50 178.78 C 155.58 178.44 154.56 178.90 154.21 179.82 C 153.86 180.74 154.33 181.77 155.25 182.12 Z M 156.14 182.45 L 157.13 182.83 C 158.05 183.17 159.07 182.71 159.42 181.79 C 159.77 180.88 159.31 179.85 158.39 179.50 L 157.41 179.12 C 156.49 178.77 155.46 179.24 155.11 180.15 C 154.76 181.07 155.22 182.10 156.14 182.45 Z M 157.12 182.82 L 158.06 183.18 C 158.98 183.54 160.01 183.08 160.36 182.17 C 160.72 181.25 160.26 180.22 159.34 179.87 L 158.40 179.50 C 157.48 179.15 156.46 179.60 156.10 180.52 C 155.75 181.44 156.20 182.47 157.12 182.82 Z M 158.05 183.18 L 158.96 183.54 C 159.88 183.90 160.91 183.45 161.27 182.53 C 161.62 181.62 161.18 180.59 160.26 180.23 L 159.35 179.87 C 158.44 179.51 157.41 179.96 157.05 180.88 C 156.69 181.79 157.14 182.82 158.05 183.18 Z M 158.95 183.53 L 159.85 183.89 C 160.76 184.25 161.79 183.81 162.16 182.90 C 162.52 181.99 162.08 180.96 161.17 180.59 L 160.27 180.23 C 159.36 179.87 158.33 180.31 157.96 181.22 C 157.60 182.13 158.04 183.17 158.95 183.53 Z M 159.84 183.88 L 160.75 184.26 C 161.66 184.62 162.69 184.19 163.06 183.28 C 163.43 182.38 163.00 181.34 162.09 180.97 L 161.18 180.60 C 160.27 180.23 159.24 180.67 158.87 181.57 C 158.50 182.48 158.94 183.51 159.84 183.88 Z M 160.74 184.25 L 161.67 184.63 C 162.57 185.01 163.61 184.58 163.98 183.67 C 164.36 182.77 163.93 181.73 163.02 181.36 L 162.10 180.98 C 161.20 180.60 160.16 181.03 159.78 181.94 C 159.41 182.84 159.84 183.88 160.74 184.25 Z M 161.66 184.63 L 162.60 185.02 C 163.50 185.40 164.54 184.98 164.92 184.08 C 165.29 183.17 164.87 182.14 163.97 181.76 L 163.03 181.36 C 162.13 180.98 161.09 181.41 160.71 182.31 C 160.33 183.21 160.76 184.25 161.66 184.63 Z M 162.59 185.02 L 163.54 185.42 C 164.44 185.80 165.47 185.39 165.86 184.49 C 166.24 183.59 165.82 182.55 164.92 182.16 L 163.98 181.76 C 163.08 181.38 162.04 181.80 161.65 182.70 C 161.27 183.60 161.69 184.64 162.59 185.02 Z M 163.53 185.42 L 164.46 185.82 C 165.36 186.21 166.40 185.80 166.79 184.90 C 167.18 184.00 166.76 182.96 165.87 182.57 L 164.93 182.17 C 164.03 181.78 162.99 182.19 162.61 183.09 C 162.22 183.99 162.63 185.03 163.53 185.42 Z M 164.45 185.82 L 165.36 186.21 C 166.25 186.61 167.30 186.20 167.69 185.30 C 168.08 184.41 167.67 183.37 166.78 182.97 L 165.88 182.58 C 164.98 182.18 163.94 182.59 163.54 183.49 C 163.15 184.38 163.56 185.42 164.45 185.82 Z M 165.35 186.21 L 166.24 186.60 C 167.13 187.00 168.17 186.60 168.57 185.71 C 168.97 184.82 168.57 183.77 167.68 183.38 L 166.79 182.98 C 165.90 182.58 164.85 182.98 164.46 183.87 C 164.06 184.76 164.46 185.81 165.35 186.21 Z M 166.22 186.60 L 167.21 187.05 C 168.10 187.45 169.15 187.06 169.55 186.18 C 169.96 185.29 169.57 184.24 168.68 183.83 L 167.69 183.38 C 166.81 182.98 165.76 183.37 165.35 184.25 C 164.94 185.14 165.33 186.19 166.22 186.60 Z M 167.19 187.04 L 168.10 187.47 C 168.99 187.89 170.04 187.51 170.46 186.62 C 170.87 185.74 170.49 184.69 169.61 184.27 L 168.70 183.84 C 167.81 183.43 166.76 183.81 166.35 184.69 C 165.93 185.57 166.31 186.62 167.19 187.04 Z M 168.09 187.46 L 168.95 187.88 C 169.83 188.31 170.88 187.94 171.31 187.06 C 171.73 186.18 171.37 185.13 170.49 184.70 L 169.63 184.28 C 168.75 183.86 167.69 184.22 167.27 185.10 C 166.84 185.98 167.21 187.03 168.09 187.46 Z M 168.93 187.87 L 169.77 188.29 C 170.64 188.73 171.70 188.37 172.14 187.50 C 172.57 186.63 172.22 185.56 171.35 185.13 L 170.51 184.71 C 169.64 184.27 168.58 184.63 168.14 185.50 C 167.70 186.37 168.06 187.43 168.93 187.87 Z M 169.75 188.28 L 170.64 188.74 C 171.51 189.19 172.58 188.85 173.02 187.98 C 173.47 187.12 173.13 186.05 172.27 185.60 L 171.37 185.14 C 170.50 184.69 169.44 185.03 168.99 185.90 C 168.54 186.77 168.88 187.83 169.75 188.28 Z M 170.59 188.72 L 171.48 189.22 C 172.34 189.69 173.41 189.39 173.89 188.53 C 174.37 187.68 174.06 186.60 173.21 186.13 L 172.32 185.63 C 171.46 185.15 170.39 185.46 169.91 186.31 C 169.43 187.16 169.74 188.24 170.59 188.72 Z M 171.39 189.16 L 172.23 189.70 C 173.05 190.23 174.15 189.99 174.68 189.17 C 175.21 188.35 174.97 187.25 174.15 186.72 L 173.31 186.18 C 172.48 185.65 171.39 185.89 170.86 186.71 C 170.33 187.53 170.56 188.63 171.39 189.16 Z M 172.08 189.60 L 172.84 190.20 C 173.61 190.81 174.72 190.68 175.33 189.91 C 175.94 189.15 175.81 188.03 175.05 187.42 L 174.29 186.82 C 173.52 186.21 172.41 186.34 171.80 187.11 C 171.19 187.88 171.32 188.99 172.08 189.60 Z M 172.64 190.02 L 173.37 190.81 C 174.04 191.53 175.17 191.57 175.89 190.90 C 176.61 190.23 176.65 189.10 175.98 188.38 L 175.24 187.60 C 174.57 186.88 173.45 186.84 172.73 187.51 C 172.01 188.18 171.97 189.31 172.64 190.02 Z M 173.15 190.54 L 173.70 191.41 C 174.22 192.25 175.32 192.51 176.16 191.99 C 177.00 191.47 177.26 190.37 176.74 189.53 L 176.20 188.66 C 175.68 187.82 174.57 187.56 173.73 188.08 C 172.90 188.59 172.64 189.70 173.15 190.54 Z M 173.50 191.01 L 173.78 191.90 C 174.08 192.85 175.09 193.38 176.04 193.08 C 176.98 192.78 177.51 191.77 177.21 190.83 L 176.93 189.93 C 176.63 188.99 175.62 188.46 174.68 188.76 C 173.73 189.06 173.21 190.07 173.50 191.01 Z M 173.69 191.31 L 173.67 192.19 C 173.64 193.19 174.42 194.02 175.41 194.05 C 176.41 194.08 177.24 193.30 177.27 192.31 L 177.30 191.42 C 177.33 190.43 176.55 189.59 175.55 189.56 C 174.56 189.53 173.73 190.31 173.69 191.31 Z M 173.80 191.54 L 173.44 192.40 C 173.05 193.32 173.48 194.38 174.40 194.77 C 175.32 195.16 176.38 194.73 176.77 193.81 L 177.14 192.96 C 177.52 192.04 177.10 190.97 176.18 190.59 C 175.26 190.20 174.19 190.63 173.80 191.54 Z M 173.69 191.97 L 173.05 192.77 C 172.42 193.55 172.55 194.70 173.33 195.32 C 174.11 195.95 175.25 195.82 175.88 195.04 L 176.52 194.24 C 177.15 193.45 177.02 192.31 176.24 191.69 C 175.46 191.06 174.32 191.19 173.69 191.97 Z M 173.25 192.56 L 172.51 193.22 C 171.76 193.89 171.70 195.04 172.37 195.79 C 173.04 196.53 174.19 196.59 174.94 195.92 L 175.68 195.26 C 176.43 194.59 176.49 193.44 175.82 192.69 C 175.14 191.95 174.00 191.89 173.25 192.56 Z M 172.64 193.12 L 171.97 193.61 C 171.17 194.21 171.00 195.35 171.60 196.16 C 172.20 196.96 173.34 197.13 174.15 196.53 L 174.81 196.03 C 175.62 195.43 175.78 194.29 175.18 193.48 C 174.58 192.68 173.44 192.51 172.64 193.12 Z M 172.06 193.55 L 171.29 194.06 C 170.45 194.61 170.22 195.74 170.77 196.58 C 171.32 197.42 172.45 197.65 173.29 197.10 L 174.06 196.59 C 174.90 196.04 175.13 194.91 174.58 194.07 C 174.03 193.23 172.90 193.00 172.06 193.55 Z M 171.35 194.01 L 170.46 194.55 C 169.60 195.06 169.32 196.18 169.83 197.05 C 170.35 197.91 171.47 198.19 172.33 197.68 L 173.22 197.14 C 174.09 196.62 174.37 195.51 173.85 194.64 C 173.34 193.78 172.22 193.50 171.35 194.01 Z M 170.51 194.52 L 169.47 195.10 C 168.59 195.59 168.28 196.70 168.77 197.58 C 169.26 198.46 170.37 198.77 171.25 198.28 L 172.28 197.70 C 173.16 197.21 173.48 196.10 172.99 195.22 C 172.50 194.34 171.39 194.03 170.51 194.52 Z M 169.50 195.08 L 168.55 195.59 C 167.66 196.06 167.32 197.17 167.80 198.06 C 168.27 198.95 169.38 199.28 170.27 198.81 L 171.22 198.30 C 172.11 197.82 172.45 196.72 171.97 195.83 C 171.49 194.94 170.39 194.60 169.50 195.08 Z M 168.56 195.58 L 167.67 196.05 C 166.77 196.52 166.43 197.62 166.89 198.51 C 167.36 199.41 168.46 199.75 169.36 199.28 L 170.25 198.82 C 171.15 198.35 171.49 197.25 171.03 196.35 C 170.56 195.46 169.46 195.11 168.56 195.58 Z M 167.68 196.04 L 166.74 196.52 C 165.85 196.98 165.49 198.08 165.95 198.98 C 166.42 199.88 167.52 200.23 168.41 199.77 L 169.35 199.29 C 170.24 198.83 170.60 197.73 170.14 196.83 C 169.68 195.93 168.57 195.58 167.68 196.04 Z M 166.75 196.52 L 165.81 197.00 C 164.91 197.45 164.55 198.55 165.01 199.45 C 165.46 200.35 166.56 200.71 167.46 200.25 L 168.41 199.78 C 169.31 199.32 169.67 198.22 169.21 197.32 C 168.75 196.42 167.65 196.06 166.75 196.52 Z M 165.81 196.99 L 164.89 197.46 C 163.99 197.91 163.62 199.01 164.08 199.91 C 164.53 200.81 165.63 201.18 166.53 200.72 L 167.46 200.26 C 168.36 199.81 168.72 198.71 168.27 197.80 C 167.82 196.90 166.72 196.54 165.81 196.99 Z M 164.89 197.45 L 164.01 197.89 C 163.11 198.34 162.74 199.44 163.19 200.35 C 163.64 201.25 164.74 201.62 165.65 201.17 L 166.53 200.73 C 167.43 200.28 167.80 199.18 167.35 198.27 C 166.90 197.37 165.80 197.00 164.89 197.45 Z M 164.02 197.89 L 163.21 198.29 C 162.30 198.74 161.93 199.84 162.38 200.74 C 162.83 201.65 163.92 202.02 164.83 201.57 L 165.64 201.17 C 166.55 200.72 166.92 199.62 166.47 198.72 C 166.02 197.81 164.92 197.44 164.02 197.89 Z M 163.21 198.29 L 162.09 198.84 C 161.19 199.28 160.81 200.38 161.26 201.29 C 161.70 202.20 162.80 202.57 163.71 202.12 L 164.83 201.58 C 165.73 201.13 166.11 200.03 165.66 199.12 C 165.22 198.22 164.12 197.84 163.21 198.29 Z M 162.10 198.83 L 161.15 199.30 C 160.24 199.74 159.86 200.83 160.30 201.74 C 160.74 202.65 161.84 203.03 162.75 202.59 L 163.70 202.13 C 164.61 201.69 164.99 200.59 164.55 199.68 C 164.11 198.77 163.01 198.39 162.10 198.83 Z M 161.16 199.29 L 160.36 199.67 C 159.44 200.11 159.06 201.20 159.49 202.12 C 159.93 203.03 161.02 203.42 161.93 202.98 L 162.74 202.60 C 163.65 202.16 164.04 201.07 163.60 200.16 C 163.16 199.24 162.07 198.86 161.16 199.29 Z M 160.37 199.67 L 159.64 200.01 C 158.72 200.44 158.33 201.53 158.76 202.45 C 159.19 203.36 160.28 203.76 161.19 203.33 L 161.92 202.98 C 162.84 202.56 163.23 201.46 162.80 200.55 C 162.37 199.63 161.28 199.24 160.37 199.67 Z M 159.64 200.01 L 158.87 200.37 C 157.96 200.79 157.56 201.88 157.98 202.80 C 158.41 203.72 159.50 204.11 160.42 203.69 L 161.19 203.33 C 162.10 202.90 162.50 201.81 162.08 200.90 C 161.65 199.98 160.56 199.58 159.64 200.01 Z M 158.87 200.37 L 158.03 200.76 C 157.12 201.19 156.72 202.28 157.15 203.20 C 157.58 204.11 158.67 204.51 159.59 204.08 L 160.42 203.68 C 161.34 203.25 161.73 202.16 161.30 201.25 C 160.87 200.33 159.78 199.94 158.87 200.37 Z M 158.01 200.77 L 157.07 201.22 C 156.16 201.66 155.78 202.76 156.22 203.67 C 156.66 204.58 157.76 204.96 158.67 204.52 L 159.61 204.07 C 160.52 203.63 160.90 202.53 160.46 201.62 C 160.02 200.71 158.92 200.33 158.01 200.77 Z M 157.05 201.24 L 156.02 201.75 C 155.12 202.20 154.75 203.31 155.21 204.21 C 155.66 205.11 156.76 205.48 157.66 205.03 L 158.69 204.51 C 159.60 204.06 159.96 202.96 159.51 202.05 C 159.05 201.15 157.95 200.78 157.05 201.24 Z M 156.00 201.76 L 155.14 202.21 C 154.24 202.67 153.89 203.77 154.35 204.67 C 154.82 205.57 155.92 205.92 156.82 205.46 L 157.68 205.02 C 158.58 204.55 158.93 203.45 158.47 202.55 C 158.01 201.65 156.90 201.30 156.00 201.76 Z M 155.13 202.21 L 154.22 202.69 C 153.32 203.16 152.98 204.27 153.45 205.16 C 153.92 206.06 155.03 206.40 155.92 205.93 L 156.83 205.45 C 157.73 204.98 158.07 203.88 157.60 202.98 C 157.13 202.09 156.03 201.74 155.13 202.21 Z M 154.21 202.70 L 153.28 203.19 C 152.39 203.67 152.05 204.78 152.53 205.67 C 153.00 206.56 154.11 206.90 155.00 206.42 L 155.93 205.93 C 156.82 205.45 157.16 204.34 156.68 203.45 C 156.21 202.56 155.10 202.22 154.21 202.70 Z M 153.27 203.20 L 152.37 203.68 C 151.48 204.17 151.15 205.28 151.63 206.17 C 152.11 207.06 153.22 207.39 154.11 206.90 L 155.01 206.42 C 155.90 205.94 156.23 204.82 155.75 203.94 C 155.27 203.05 154.16 202.71 153.27 203.20 Z M 152.36 203.69 L 151.52 204.15 C 150.63 204.64 150.31 205.75 150.80 206.64 C 151.28 207.52 152.40 207.85 153.28 207.36 L 154.12 206.90 C 155.01 206.41 155.33 205.30 154.85 204.41 C 154.36 203.53 153.25 203.20 152.36 203.69 Z M 151.51 204.16 L 150.49 204.73 C 149.61 205.22 149.30 206.34 149.79 207.22 C 150.29 208.10 151.40 208.41 152.29 207.92 L 153.30 207.35 C 154.18 206.86 154.49 205.74 154.00 204.86 C 153.50 203.98 152.39 203.66 151.51 204.16 Z M 150.48 204.74 L 149.59 205.25 C 148.71 205.75 148.41 206.87 148.91 207.74 C 149.41 208.62 150.53 208.92 151.40 208.42 L 152.30 207.91 C 153.18 207.41 153.48 206.29 152.98 205.41 C 152.48 204.54 151.36 204.23 150.48 204.74 Z M 149.58 205.25 L 148.80 205.70 C 147.92 206.21 147.62 207.33 148.12 208.20 C 148.63 209.08 149.75 209.38 150.62 208.87 L 151.41 208.42 C 152.28 207.91 152.58 206.80 152.08 205.92 C 151.58 205.05 150.46 204.75 149.58 205.25 Z M 148.81 205.70 L 148.04 206.13 C 147.16 206.63 146.85 207.74 147.35 208.62 C 147.85 209.50 148.96 209.81 149.84 209.31 L 150.61 208.88 C 151.49 208.38 151.79 207.27 151.30 206.39 C 150.80 205.51 149.69 205.20 148.81 205.70 Z M 148.06 206.12 L 147.20 206.60 C 146.31 207.08 145.99 208.19 146.47 209.07 C 146.95 209.96 148.06 210.28 148.95 209.80 L 149.82 209.32 C 150.70 208.84 151.02 207.73 150.54 206.85 C 150.06 205.96 148.95 205.64 148.06 206.12 Z M 147.21 206.59 L 146.33 207.06 C 145.44 207.54 145.11 208.64 145.58 209.53 C 146.06 210.42 147.16 210.75 148.05 210.28 L 148.93 209.81 C 149.82 209.33 150.15 208.23 149.68 207.34 C 149.20 206.45 148.10 206.12 147.21 206.59 Z M 146.33 207.06 L 145.44 207.54 C 144.55 208.01 144.22 209.11 144.69 210.00 C 145.16 210.89 146.27 211.23 147.15 210.75 L 148.05 210.28 C 148.93 209.80 149.27 208.70 148.80 207.81 C 148.32 206.93 147.22 206.59 146.33 207.06 Z M 145.44 207.54 L 144.58 208.00 C 143.69 208.48 143.36 209.58 143.84 210.47 C 144.31 211.35 145.41 211.68 146.30 211.21 L 147.16 210.75 C 148.04 210.27 148.38 209.17 147.90 208.29 C 147.43 207.40 146.32 207.07 145.44 207.54 Z M 144.58 208.00 L 143.71 208.47 C 142.82 208.95 142.49 210.05 142.96 210.93 C 143.43 211.82 144.53 212.15 145.42 211.68 L 146.30 211.21 C 147.18 210.74 147.52 209.64 147.04 208.75 C 146.57 207.87 145.47 207.53 144.58 208.00 Z M 143.72 208.47 L 142.82 208.94 C 141.93 209.41 141.58 210.50 142.05 211.39 C 142.52 212.28 143.61 212.62 144.50 212.16 L 145.40 211.68 C 146.29 211.22 146.63 210.12 146.17 209.23 C 145.70 208.35 144.61 208.00 143.72 208.47 Z M 142.84 208.93 L 141.97 209.37 C 141.08 209.83 140.72 210.92 141.17 211.81 C 141.63 212.70 142.72 213.06 143.61 212.61 L 144.48 212.17 C 145.37 211.71 145.73 210.62 145.27 209.73 C 144.82 208.84 143.73 208.48 142.84 208.93 Z M 141.99 209.37 L 141.12 209.80 C 140.22 210.24 139.85 211.32 140.29 212.22 C 140.74 213.12 141.82 213.49 142.72 213.04 L 143.59 212.61 C 144.49 212.17 144.86 211.09 144.41 210.19 C 143.97 209.29 142.89 208.92 141.99 209.37 Z M 141.13 209.79 L 140.22 210.23 C 139.32 210.66 138.95 211.74 139.38 212.64 C 139.81 213.54 140.89 213.92 141.79 213.49 L 142.70 213.05 C 143.60 212.61 143.98 211.53 143.55 210.63 C 143.11 209.73 142.03 209.36 141.13 209.79 Z M 140.23 210.23 L 139.28 210.68 C 138.38 211.11 138.00 212.18 138.42 213.09 C 138.85 213.99 139.93 214.37 140.83 213.94 L 141.78 213.49 C 142.68 213.06 143.07 211.98 142.64 211.08 C 142.21 210.18 141.13 209.80 140.23 210.23 Z M 139.29 210.68 L 138.39 211.10 C 137.49 211.52 137.11 212.60 137.53 213.50 C 137.95 214.40 139.03 214.79 139.93 214.36 L 140.82 213.94 C 141.73 213.52 142.11 212.44 141.69 211.54 C 141.26 210.64 140.19 210.25 139.29 210.68 Z M 138.40 211.10 L 137.49 211.53 C 136.59 211.95 136.20 213.02 136.62 213.92 C 137.04 214.82 138.11 215.21 139.01 214.79 L 139.92 214.36 C 140.82 213.94 141.21 212.87 140.79 211.97 C 140.37 211.07 139.30 210.68 138.40 211.10 Z M 137.50 211.52 L 136.58 211.95 C 135.67 212.36 135.28 213.43 135.70 214.33 C 136.11 215.24 137.18 215.63 138.08 215.21 L 139.00 214.79 C 139.90 214.38 140.30 213.31 139.88 212.41 C 139.47 211.50 138.40 211.11 137.50 211.52 Z M 136.59 211.95 L 135.68 212.36 C 134.78 212.77 134.38 213.83 134.78 214.73 C 135.19 215.64 136.26 216.04 137.16 215.63 L 138.07 215.22 C 138.97 214.81 139.37 213.74 138.96 212.84 C 138.56 211.94 137.49 211.54 136.59 211.95 Z M 135.70 212.35 L 134.76 212.77 C 133.86 213.17 133.45 214.23 133.85 215.13 C 134.25 216.04 135.31 216.45 136.21 216.05 L 137.15 215.63 C 138.05 215.23 138.46 214.17 138.06 213.27 C 137.66 212.36 136.60 211.95 135.70 212.35 Z M 134.78 212.76 L 133.86 213.16 C 132.95 213.55 132.53 214.60 132.92 215.51 C 133.31 216.42 134.36 216.84 135.27 216.45 L 136.19 216.05 C 137.10 215.66 137.52 214.61 137.13 213.70 C 136.74 212.79 135.69 212.37 134.78 212.76 Z M 133.88 213.15 L 132.97 213.53 C 132.06 213.91 131.63 214.95 132.00 215.86 C 132.38 216.77 133.43 217.21 134.34 216.83 L 135.25 216.45 C 136.16 216.07 136.59 215.03 136.21 214.12 C 135.84 213.21 134.79 212.78 133.88 213.15 Z M 132.99 213.53 L 132.08 213.89 C 131.17 214.25 130.72 215.29 131.08 216.20 C 131.45 217.12 132.48 217.56 133.40 217.20 L 134.31 216.83 C 135.22 216.47 135.67 215.43 135.31 214.52 C 134.94 213.61 133.91 213.16 132.99 213.53 Z M 132.10 213.89 L 131.17 214.24 C 130.26 214.59 129.80 215.62 130.15 216.53 C 130.50 217.45 131.52 217.91 132.44 217.56 L 133.37 217.20 C 134.29 216.85 134.75 215.83 134.40 214.91 C 134.05 213.99 133.02 213.54 132.10 213.89 Z M 131.19 214.24 L 130.25 214.59 C 129.33 214.93 128.86 215.95 129.20 216.87 C 129.55 217.78 130.56 218.25 131.48 217.91 L 132.42 217.56 C 133.34 217.22 133.81 216.20 133.47 215.28 C 133.12 214.37 132.11 213.90 131.19 214.24 Z M 130.26 214.59 L 129.31 214.94 C 128.40 215.27 127.93 216.29 128.27 217.20 C 128.60 218.12 129.62 218.59 130.53 218.25 L 131.47 217.91 C 132.39 217.57 132.86 216.56 132.52 215.64 C 132.19 214.73 131.17 214.26 130.26 214.59 Z M 129.31 214.94 L 128.39 215.29 C 127.48 215.62 127.01 216.63 127.34 217.54 C 127.68 218.46 128.69 218.92 129.60 218.59 L 130.53 218.25 C 131.44 217.91 131.91 216.90 131.57 215.99 C 131.24 215.08 130.23 214.61 129.31 214.94 Z M 128.38 215.29 L 127.52 215.61 C 126.62 215.95 126.15 216.96 126.49 217.87 C 126.83 218.78 127.84 219.24 128.75 218.90 L 129.61 218.58 C 130.52 218.24 130.98 217.23 130.64 216.32 C 130.30 215.42 129.29 214.96 128.38 215.29 Z M 127.53 215.62 L 126.64 215.95 C 125.74 216.28 125.28 217.29 125.61 218.19 C 125.95 219.10 126.95 219.56 127.86 219.22 L 128.74 218.90 C 129.65 218.56 130.11 217.56 129.77 216.65 C 129.44 215.75 128.43 215.28 127.53 215.62 Z M 126.66 215.95 L 125.71 216.29 C 124.80 216.62 124.33 217.62 124.66 218.52 C 124.99 219.42 125.98 219.89 126.89 219.57 L 127.84 219.22 C 128.74 218.90 129.21 217.90 128.89 216.99 C 128.56 216.09 127.56 215.62 126.66 215.95 Z M 125.73 216.29 L 124.67 216.66 C 123.77 216.97 123.29 217.96 123.60 218.86 C 123.92 219.77 124.90 220.25 125.81 219.93 L 126.87 219.57 C 127.77 219.25 128.25 218.27 127.94 217.36 C 127.62 216.46 126.63 215.98 125.73 216.29 Z M 124.69 216.66 L 123.80 216.95 C 122.89 217.26 122.40 218.23 122.71 219.14 C 123.01 220.04 123.98 220.53 124.89 220.23 L 125.79 219.94 C 126.69 219.63 127.18 218.66 126.88 217.75 C 126.58 216.85 125.60 216.36 124.69 216.66 Z M 123.82 216.95 L 122.88 217.25 C 121.98 217.54 121.48 218.51 121.77 219.42 C 122.06 220.32 123.02 220.82 123.93 220.53 L 124.87 220.23 C 125.77 219.95 126.27 218.98 125.99 218.07 C 125.70 217.16 124.73 216.66 123.82 216.95 Z M 122.91 217.25 L 121.93 217.55 C 121.02 217.82 120.51 218.78 120.79 219.69 C 121.06 220.60 122.02 221.11 122.93 220.83 L 123.91 220.54 C 124.81 220.26 125.33 219.30 125.05 218.39 C 124.77 217.49 123.82 216.97 122.91 217.25 Z M 121.96 217.54 L 120.96 217.83 C 120.06 218.09 119.53 219.04 119.79 219.95 C 120.05 220.85 121.00 221.38 121.91 221.12 L 122.90 220.83 C 123.81 220.57 124.33 219.63 124.07 218.72 C 123.82 217.81 122.87 217.29 121.96 217.54 Z M 121.00 217.83 L 120.01 218.09 C 119.10 218.33 118.55 219.26 118.79 220.17 C 119.03 221.08 119.97 221.63 120.88 221.39 L 121.87 221.12 C 122.78 220.88 123.32 219.95 123.08 219.04 C 122.84 218.13 121.91 217.59 121.00 217.83 Z M 120.05 218.09 L 119.05 218.32 C 118.13 218.54 117.57 219.46 117.79 220.37 C 118.00 221.28 118.92 221.84 119.83 221.63 L 120.84 221.39 C 121.75 221.17 122.31 220.26 122.09 219.34 C 121.88 218.43 120.96 217.87 120.05 218.09 Z M 119.10 218.32 L 118.07 218.54 C 117.16 218.73 116.57 219.62 116.76 220.53 C 116.95 221.44 117.84 222.03 118.75 221.84 L 119.78 221.63 C 120.69 221.44 121.28 220.55 121.09 219.63 C 120.90 218.72 120.01 218.14 119.10 218.32 Z M 118.12 218.54 L 117.12 218.72 C 116.21 218.88 115.61 219.75 115.77 220.66 C 115.94 221.57 116.81 222.18 117.72 222.01 L 118.71 221.83 C 119.62 221.67 120.22 220.80 120.06 219.89 C 119.89 218.98 119.03 218.38 118.12 218.54 Z M 117.16 218.73 L 116.19 218.88 C 115.29 219.03 114.67 219.88 114.81 220.78 C 114.96 221.68 115.81 222.30 116.71 222.16 L 117.68 222.00 C 118.58 221.86 119.20 221.01 119.06 220.11 C 118.91 219.20 118.06 218.59 117.16 218.73 Z M 116.22 218.89 L 115.26 219.03 C 114.37 219.16 113.74 220.00 113.87 220.89 C 114.00 221.79 114.84 222.41 115.74 222.28 L 116.69 222.15 C 117.59 222.02 118.21 221.18 118.08 220.28 C 117.95 219.39 117.11 218.76 116.22 218.89 Z M 115.27 219.04 L 114.65 219.13 C 113.75 219.25 113.13 220.08 113.26 220.97 C 113.38 221.86 114.20 222.49 115.10 222.36 L 115.73 222.27 C 116.62 222.15 117.24 221.33 117.12 220.43 C 116.99 219.54 116.17 218.92 115.27 219.04 Z"
      fill="black"
      fill-rule="nonzero" /></svg>