<svg xmlns="http://www.w3.org/2000/svg" width="300" height="300" viewBox="0 0 300 300">
<path d="M 67.66 244.26 L 66.65 244.25 C 65.76 244.24 65.02 244.95 65.01 245.85 C 65.00 246.75 65.72 247.48 66.61 247.49 L 67.62 247.50 C 68.52 247.51 69.25 246.80 69.26 245.90 C 69.28 245.01 68.56 244.27 67.66 244.26 Z M 66.77 244.23 L 65.78 244.14 C 64.87 244.07 64.08 244.74 64.00 245.64 C 63.92 246.55 64.59 247.35 65.50 247.42 L 66.49 247.51 C 67.40 247.59 68.19 246.92 68.27 246.01 C 68.35 245.10 67.68 244.31 66.77 244.23 Z M 66.03 244.16 L 65.07 243.93 C 64.18 243.71 63.27 244.27 63.06 245.16 C 62.84 246.06 63.39 246.96 64.29 247.17 L 65.25 247.41 C 66.14 247.62 67.04 247.07 67.26 246.18 C 67.48 245.28 66.93 244.38 66.03 244.16 Z M 65.42 244.04 L 64.53 243.61 C 63.69 243.20 62.68 243.55 62.28 244.39 C 61.87 245.22 62.22 246.23 63.06 246.64 L 63.94 247.07 C 64.78 247.47 65.79 247.12 66.20 246.29 C 66.60 245.45 66.25 244.44 65.42 244.04 Z M 64.85 243.80 L 64.07 243.17 C 63.34 242.59 62.27 242.71 61.69 243.44 C 61.10 244.17 61.22 245.24 61.95 245.82 L 62.73 246.44 C 63.46 247.03 64.53 246.91 65.12 246.18 C 65.70 245.45 65.58 244.38 64.85 243.80 Z M 64.36 243.45 L 63.74 242.66 C 63.17 241.92 62.10 241.78 61.35 242.36 C 60.61 242.94 60.48 244.01 61.05 244.75 L 61.67 245.54 C 62.24 246.29 63.31 246.42 64.06 245.84 C 64.80 245.27 64.93 244.20 64.36 243.45 Z M 63.97 243.02 L 63.59 242.14 C 63.21 241.28 62.20 240.88 61.33 241.25 C 60.47 241.63 60.07 242.64 60.44 243.51 L 60.82 244.39 C 61.20 245.26 62.21 245.66 63.08 245.28 C 63.95 244.90 64.35 243.89 63.97 243.02 Z M 63.71 242.47 L 63.51 241.53 C 63.32 240.59 62.40 239.99 61.47 240.18 C 60.53 240.38 59.93 241.29 60.13 242.23 L 60.32 243.18 C 60.52 244.11 61.43 244.71 62.37 244.52 C 63.30 244.33 63.90 243.41 63.71 242.47 Z M 63.56 241.73 L 63.48 240.72 C 63.40 239.76 62.55 239.04 61.59 239.12 C 60.63 239.20 59.92 240.04 60.00 241.00 L 60.08 242.02 C 60.16 242.98 61.00 243.70 61.96 243.62 C 62.92 243.54 63.64 242.70 63.56 241.73 Z M 63.50 240.82 L 63.47 239.77 C 63.44 238.80 62.64 238.03 61.66 238.06 C 60.69 238.08 59.92 238.89 59.95 239.86 L 59.97 240.91 C 60.00 241.88 60.81 242.65 61.78 242.62 C 62.75 242.60 63.52 241.79 63.50 240.82 Z M 63.48 239.81 L 63.48 238.81 C 63.47 237.83 62.67 237.04 61.69 237.04 C 60.71 237.05 59.92 237.85 59.93 238.83 L 59.93 239.83 C 59.94 240.81 60.74 241.60 61.72 241.59 C 62.70 241.59 63.49 240.79 63.48 239.81 Z M 63.49 238.87 L 63.51 237.86 C 63.54 236.88 62.77 236.06 61.78 236.03 C 60.80 236.00 59.98 236.78 59.95 237.76 L 59.92 238.77 C 59.89 239.75 60.67 240.57 61.65 240.60 C 62.64 240.63 63.46 239.85 63.49 238.87 Z M 63.52 237.96 L 63.60 236.96 C 63.68 235.98 62.95 235.11 61.96 235.03 C 60.98 234.95 60.11 235.68 60.03 236.67 L 59.95 237.66 C 59.86 238.65 60.60 239.52 61.58 239.60 C 62.57 239.68 63.44 238.95 63.52 237.96 Z M 63.59 237.10 L 63.75 236.11 C 63.91 235.13 63.24 234.20 62.26 234.04 C 61.28 233.89 60.36 234.55 60.20 235.54 L 60.04 236.53 C 59.88 237.51 60.54 238.43 61.53 238.59 C 62.51 238.75 63.43 238.09 63.59 237.10 Z M 63.72 236.28 L 63.98 235.30 C 64.23 234.34 63.66 233.35 62.69 233.10 C 61.72 232.84 60.74 233.42 60.48 234.39 L 60.23 235.36 C 59.97 236.33 60.55 237.32 61.52 237.57 C 62.48 237.82 63.47 237.25 63.72 236.28 Z M 63.93 235.49 L 64.28 234.56 C 64.64 233.62 64.16 232.57 63.23 232.22 C 62.29 231.86 61.25 232.33 60.89 233.27 L 60.54 234.20 C 60.18 235.14 60.65 236.18 61.59 236.54 C 62.52 236.90 63.57 236.42 63.93 235.49 Z M 64.20 234.75 L 64.65 233.88 C 65.12 232.99 64.77 231.89 63.88 231.43 C 62.98 230.96 61.89 231.31 61.42 232.20 L 60.97 233.07 C 60.51 233.97 60.86 235.06 61.75 235.53 C 62.64 235.99 63.74 235.64 64.20 234.75 Z M 64.54 234.08 L 65.11 233.25 C 65.68 232.42 65.48 231.29 64.65 230.71 C 63.82 230.14 62.68 230.35 62.11 231.18 L 61.54 232.00 C 60.96 232.83 61.17 233.97 62.00 234.54 C 62.83 235.11 63.96 234.91 64.54 234.08 Z M 64.98 233.43 L 65.65 232.67 C 66.32 231.92 66.25 230.76 65.49 230.09 C 64.74 229.42 63.58 229.49 62.91 230.25 L 62.24 231.00 C 61.57 231.76 61.64 232.91 62.40 233.58 C 63.15 234.25 64.31 234.18 64.98 233.43 Z M 65.51 232.82 L 66.25 232.15 C 67.00 231.47 67.05 230.31 66.37 229.56 C 65.69 228.81 64.53 228.76 63.78 229.44 L 63.05 230.10 C 62.30 230.78 62.24 231.94 62.92 232.69 C 63.60 233.44 64.76 233.50 65.51 232.82 Z M 66.11 232.27 L 66.90 231.68 C 67.71 231.08 67.88 229.93 67.28 229.11 C 66.67 228.30 65.52 228.13 64.71 228.73 L 63.92 229.32 C 63.10 229.92 62.93 231.07 63.54 231.89 C 64.14 232.70 65.29 232.87 66.11 232.27 Z M 66.75 231.78 L 67.59 231.27 C 68.46 230.75 68.74 229.62 68.22 228.75 C 67.69 227.88 66.56 227.60 65.69 228.12 L 64.85 228.63 C 63.98 229.16 63.70 230.29 64.23 231.16 C 64.75 232.03 65.88 232.31 66.75 231.78 Z M 67.45 231.36 L 68.34 230.92 C 69.26 230.48 69.64 229.37 69.19 228.46 C 68.75 227.54 67.65 227.16 66.73 227.61 L 65.84 228.04 C 64.92 228.49 64.54 229.59 64.98 230.51 C 65.43 231.42 66.53 231.80 67.45 231.36 Z M 68.21 230.99 L 69.17 230.61 C 70.12 230.24 70.59 229.17 70.21 228.22 C 69.84 227.27 68.77 226.80 67.82 227.17 L 66.87 227.54 C 65.91 227.92 65.45 228.99 65.82 229.94 C 66.19 230.89 67.26 231.36 68.21 230.99 Z M 69.06 230.65 L 69.99 230.36 C 70.96 230.05 71.50 229.00 71.18 228.03 C 70.87 227.06 69.83 226.52 68.86 226.83 L 67.93 227.13 C 66.96 227.44 66.42 228.48 66.73 229.46 C 67.04 230.43 68.09 230.97 69.06 230.65 Z M 69.91 230.39 L 70.88 230.12 C 71.87 229.85 72.45 228.83 72.18 227.84 C 71.91 226.85 70.89 226.27 69.90 226.54 L 68.93 226.80 C 67.94 227.07 67.36 228.09 67.63 229.08 C 67.90 230.07 68.92 230.66 69.91 230.39 Z M 70.82 230.14 L 71.81 229.90 C 72.81 229.66 73.43 228.66 73.19 227.66 C 72.95 226.66 71.94 226.04 70.94 226.28 L 69.95 226.52 C 68.95 226.76 68.34 227.76 68.58 228.77 C 68.82 229.77 69.82 230.38 70.82 230.14 Z M 71.78 229.92 L 72.76 229.70 C 73.77 229.48 74.41 228.49 74.19 227.48 C 73.97 226.47 72.97 225.83 71.96 226.05 L 70.98 226.27 C 69.97 226.49 69.33 227.48 69.55 228.49 C 69.77 229.50 70.77 230.14 71.78 229.92 Z M 72.73 229.71 L 73.70 229.52 C 74.72 229.31 75.37 228.32 75.17 227.31 C 74.96 226.30 73.97 225.64 72.96 225.85 L 71.99 226.04 C 70.98 226.25 70.32 227.24 70.53 228.25 C 70.73 229.26 71.72 229.92 72.73 229.71 Z M 73.67 229.52 L 74.65 229.34 C 75.66 229.15 76.34 228.18 76.15 227.16 C 75.96 226.14 74.98 225.47 73.96 225.66 L 72.99 225.84 C 71.97 226.03 71.30 227.01 71.49 228.02 C 71.68 229.04 72.66 229.71 73.67 229.52 Z M 74.62 229.35 L 75.61 229.18 C 76.63 229.01 77.32 228.04 77.15 227.02 C 76.97 226.00 76.00 225.31 74.98 225.48 L 73.99 225.65 C 72.97 225.82 72.28 226.79 72.45 227.81 C 72.62 228.84 73.59 229.52 74.62 229.35 Z M 75.58 229.19 L 76.51 229.05 C 77.54 228.89 78.24 227.93 78.08 226.90 C 77.93 225.88 76.97 225.17 75.94 225.33 L 75.01 225.47 C 73.98 225.63 73.28 226.59 73.44 227.62 C 73.60 228.64 74.55 229.35 75.58 229.19 Z M 76.48 229.05 L 77.36 228.93 C 78.39 228.79 79.10 227.84 78.96 226.81 C 78.82 225.78 77.87 225.06 76.84 225.21 L 75.97 225.33 C 74.94 225.47 74.22 226.42 74.36 227.45 C 74.51 228.48 75.46 229.20 76.48 229.05 Z M 77.33 228.94 L 78.27 228.82 C 79.30 228.70 80.03 227.76 79.91 226.73 C 79.78 225.69 78.84 224.96 77.81 225.09 L 76.87 225.20 C 75.84 225.33 75.10 226.27 75.23 227.30 C 75.36 228.33 76.30 229.06 77.33 228.94 Z M 78.24 228.83 L 79.27 228.72 C 80.30 228.61 81.05 227.68 80.94 226.65 C 80.84 225.61 79.91 224.86 78.87 224.97 L 77.84 225.08 C 76.81 225.19 76.06 226.12 76.17 227.15 C 76.27 228.19 77.20 228.94 78.24 228.83 Z M 79.24 228.72 L 80.39 228.62 C 81.43 228.53 82.19 227.61 82.10 226.58 C 82.01 225.54 81.09 224.77 80.05 224.87 L 78.90 224.97 C 77.87 225.06 77.10 225.98 77.19 227.01 C 77.29 228.05 78.20 228.82 79.24 228.72 Z M 80.37 228.62 L 81.40 228.55 C 82.43 228.47 83.21 227.56 83.13 226.52 C 83.05 225.48 82.15 224.70 81.11 224.78 L 80.08 224.86 C 79.04 224.94 78.26 225.85 78.34 226.89 C 78.42 227.93 79.33 228.70 80.37 228.62 Z M 81.38 228.55 L 82.40 228.48 C 83.44 228.41 84.23 227.51 84.16 226.47 C 84.09 225.43 83.19 224.64 82.15 224.71 L 81.13 224.78 C 80.09 224.85 79.30 225.75 79.37 226.79 C 79.44 227.83 80.34 228.62 81.38 228.55 Z M 82.39 228.48 L 83.44 228.42 C 84.48 228.35 85.27 227.46 85.21 226.42 C 85.15 225.38 84.25 224.58 83.21 224.65 L 82.16 224.71 C 81.12 224.77 80.33 225.67 80.39 226.71 C 80.45 227.75 81.35 228.54 82.39 228.48 Z M 83.43 228.42 L 84.47 228.36 C 85.52 228.31 86.32 227.41 86.26 226.37 C 86.20 225.33 85.31 224.53 84.27 224.59 L 83.22 224.64 C 82.18 224.70 81.38 225.59 81.44 226.64 C 81.50 227.68 82.39 228.48 83.43 228.42 Z M 84.46 228.36 L 85.47 228.31 C 86.52 228.26 87.32 227.38 87.27 226.33 C 87.22 225.29 86.33 224.49 85.29 224.54 L 84.28 224.59 C 83.24 224.64 82.43 225.52 82.48 226.57 C 82.53 227.61 83.42 228.42 84.46 228.36 Z M 85.46 228.32 L 86.41 228.28 C 87.45 228.23 88.26 227.35 88.22 226.30 C 88.17 225.26 87.29 224.45 86.24 224.49 L 85.30 224.53 C 84.26 224.58 83.45 225.46 83.49 226.51 C 83.54 227.55 84.42 228.36 85.46 228.32 Z M 86.39 228.28 L 87.45 228.24 C 88.49 228.20 89.31 227.32 89.27 226.28 C 89.23 225.23 88.36 224.42 87.31 224.45 L 86.26 224.49 C 85.21 224.53 84.39 225.41 84.43 226.45 C 84.47 227.50 85.35 228.31 86.39 228.28 Z M 87.43 228.24 L 88.49 228.21 C 89.54 228.19 90.36 227.32 90.34 226.27 C 90.31 225.22 89.44 224.40 88.39 224.43 L 87.33 224.45 C 86.28 224.48 85.46 225.35 85.49 226.39 C 85.51 227.44 86.38 228.27 87.43 228.24 Z M 88.47 228.21 L 89.41 228.20 C 90.46 228.19 91.29 227.33 91.28 226.28 C 91.26 225.23 90.40 224.40 89.36 224.41 L 88.42 224.42 C 87.37 224.44 86.53 225.30 86.55 226.34 C 86.56 227.39 87.42 228.23 88.47 228.21 Z M 89.39 228.20 L 90.30 228.20 C 91.35 228.19 92.19 227.34 92.19 226.29 C 92.18 225.25 91.33 224.40 90.29 224.41 L 89.38 224.41 C 88.33 224.42 87.48 225.27 87.49 226.31 C 87.49 227.36 88.34 228.20 89.39 228.20 Z M 90.29 228.20 L 91.22 228.20 C 92.27 228.20 93.11 227.35 93.11 226.30 C 93.11 225.26 92.26 224.41 91.22 224.41 L 90.29 224.41 C 89.25 224.41 88.40 225.26 88.40 226.30 C 88.40 227.35 89.25 228.20 90.29 228.20 Z M 91.22 228.20 L 92.16 228.20 C 93.21 228.20 94.06 227.35 94.06 226.30 C 94.06 225.26 93.21 224.41 92.16 224.41 L 91.22 224.41 C 90.17 224.41 89.32 225.26 89.32 226.30 C 89.32 227.35 90.17 228.20 91.22 228.20 Z M 92.16 228.20 L 93.17 228.20 C 94.21 228.20 95.06 227.35 95.06 226.30 C 95.06 225.26 94.21 224.41 93.17 224.41 L 92.16 224.41 C 91.12 224.41 90.27 225.26 90.27 226.30 C 90.27 227.35 91.12 228.20 92.16 228.20 Z M 93.17 228.20 L 94.20 228.20 C 95.25 228.20 96.10 227.35 96.10 226.30 C 96.10 225.25 95.25 224.41 94.20 224.41 L 93.17 224.41 C 92.12 224.41 91.27 225.25 91.27 226.30 C 91.27 227.35 92.12 228.20 93.17 228.20 Z M 94.20 228.20 L 95.25 228.20 C 96.30 228.20 97.15 227.35 97.15 226.30 C 97.15 225.25 96.30 224.41 95.25 224.41 L 94.20 224.41 C 93.16 224.41 92.31 225.25 92.31 226.30 C 92.31 227.35 93.16 228.20 94.20 228.20 Z M 95.25 228.20 L 96.29 228.20 C 97.34 228.20 98.19 227.35 98.19 226.30 C 98.19 225.26 97.34 224.41 96.29 224.41 L 95.25 224.41 C 94.21 224.41 93.36 225.25 93.36 226.30 C 93.36 227.35 94.20 228.20 95.25 228.20 Z M 96.28 228.20 L 97.30 228.20 C 98.35 228.21 99.20 227.37 99.21 226.32 C 99.21 225.27 98.37 224.42 97.32 224.41 L 96.30 224.41 C 95.25 224.40 94.40 225.24 94.39 226.29 C 94.39 227.34 95.23 228.19 96.28 228.20 Z M 97.28 228.20 L 98.28 228.22 C 99.32 228.24 100.19 227.41 100.21 226.36 C 100.22 225.31 99.39 224.45 98.34 224.43 L 97.34 224.41 C 96.29 224.39 95.43 225.23 95.41 226.28 C 95.39 227.32 96.23 228.19 97.28 228.20 Z M 98.24 228.22 L 99.22 228.26 C 100.27 228.30 101.15 227.48 101.19 226.43 C 101.22 225.38 100.41 224.50 99.36 224.47 L 98.38 224.43 C 97.33 224.39 96.45 225.21 96.41 226.26 C 96.38 227.30 97.19 228.18 98.24 228.22 Z M 99.17 228.25 L 100.15 228.32 C 101.19 228.38 102.10 227.59 102.16 226.54 C 102.23 225.50 101.43 224.60 100.39 224.53 L 99.41 224.47 C 98.37 224.40 97.46 225.20 97.40 226.24 C 97.33 227.29 98.13 228.19 99.17 228.25 Z M 100.08 228.31 L 101.13 228.41 C 102.17 228.52 103.10 227.75 103.20 226.71 C 103.30 225.67 102.54 224.74 101.50 224.64 L 100.45 224.54 C 99.41 224.43 98.48 225.20 98.38 226.24 C 98.28 227.28 99.04 228.21 100.08 228.31 Z M 101.07 228.41 L 102.08 228.54 C 103.12 228.68 104.07 227.95 104.21 226.91 C 104.35 225.87 103.62 224.92 102.58 224.78 L 101.56 224.65 C 100.53 224.51 99.57 225.24 99.44 226.28 C 99.30 227.32 100.03 228.27 101.07 228.41 Z M 102.02 228.53 L 102.99 228.69 C 104.02 228.86 105.00 228.16 105.17 227.13 C 105.34 226.10 104.64 225.12 103.61 224.95 L 102.64 224.79 C 101.60 224.62 100.63 225.32 100.46 226.35 C 100.29 227.38 100.99 228.36 102.02 228.53 Z M 102.93 228.68 L 103.85 228.86 C 104.88 229.07 105.88 228.40 106.08 227.37 C 106.28 226.34 105.61 225.34 104.58 225.14 L 103.67 224.96 C 102.64 224.76 101.64 225.43 101.44 226.45 C 101.24 227.48 101.90 228.48 102.93 228.68 Z M 103.79 228.85 L 104.68 229.06 C 105.70 229.29 106.72 228.65 106.95 227.63 C 107.19 226.61 106.55 225.60 105.53 225.36 L 104.64 225.15 C 103.62 224.92 102.61 225.55 102.37 226.58 C 102.13 227.60 102.77 228.61 103.79 228.85 Z M 104.61 229.04 L 105.50 229.28 C 106.51 229.55 107.55 228.95 107.83 227.94 C 108.10 226.93 107.50 225.89 106.49 225.62 L 105.60 225.38 C 104.59 225.10 103.55 225.70 103.28 226.71 C 103.00 227.72 103.60 228.76 104.61 229.04 Z M 105.43 229.26 L 106.39 229.55 C 107.39 229.86 108.45 229.30 108.76 228.30 C 109.07 227.30 108.51 226.24 107.51 225.93 L 106.56 225.64 C 105.56 225.33 104.49 225.89 104.18 226.89 C 103.87 227.89 104.43 228.95 105.43 229.26 Z M 106.33 229.54 L 107.42 229.91 C 108.41 230.25 109.48 229.72 109.82 228.73 C 110.16 227.73 109.63 226.66 108.64 226.32 L 107.56 225.95 C 106.57 225.61 105.49 226.14 105.15 227.13 C 104.82 228.12 105.34 229.20 106.33 229.54 Z M 107.39 229.90 L 108.28 230.22 C 109.27 230.57 110.35 230.06 110.71 229.08 C 111.06 228.09 110.55 227.01 109.57 226.65 L 108.67 226.33 C 107.69 225.97 106.60 226.48 106.25 227.47 C 105.89 228.45 106.40 229.54 107.39 229.90 Z M 108.27 230.21 L 109.20 230.56 C 110.18 230.92 111.27 230.41 111.63 229.43 C 112.00 228.45 111.49 227.36 110.51 227.00 L 109.58 226.66 C 108.60 226.30 107.51 226.80 107.15 227.78 C 106.78 228.76 107.29 229.85 108.27 230.21 Z M 109.20 230.56 L 110.17 230.91 C 111.16 231.27 112.25 230.77 112.61 229.79 C 112.97 228.81 112.46 227.72 111.48 227.36 L 110.51 227.00 C 109.53 226.64 108.44 227.14 108.08 228.12 C 107.72 229.11 108.22 230.20 109.20 230.56 Z M 110.18 230.92 L 111.17 231.27 C 112.15 231.63 113.24 231.12 113.59 230.13 C 113.95 229.15 113.44 228.06 112.46 227.71 L 111.47 227.35 C 110.49 227.00 109.40 227.51 109.05 228.49 C 108.69 229.48 109.20 230.56 110.18 230.92 Z M 111.19 231.28 L 112.16 231.62 C 113.14 231.96 114.22 231.44 114.57 230.45 C 114.91 229.46 114.39 228.38 113.40 228.04 L 112.44 227.70 C 111.45 227.36 110.37 227.88 110.02 228.87 C 109.68 229.85 110.20 230.93 111.19 231.28 Z M 112.19 231.63 L 113.12 231.93 C 114.12 232.26 115.19 231.72 115.51 230.73 C 115.84 229.73 115.30 228.66 114.31 228.34 L 113.37 228.03 C 112.38 227.70 111.31 228.24 110.98 229.24 C 110.65 230.23 111.19 231.30 112.19 231.63 Z M 113.18 231.95 L 114.30 232.28 C 115.31 232.58 116.36 232.00 116.65 231.00 C 116.95 230.00 116.37 228.94 115.37 228.65 L 114.25 228.32 C 113.25 228.02 112.19 228.60 111.90 229.60 C 111.60 230.60 112.18 231.66 113.18 231.95 Z M 114.37 232.30 L 115.39 232.55 C 116.40 232.81 117.43 232.20 117.69 231.18 C 117.94 230.17 117.33 229.14 116.31 228.89 L 115.30 228.63 C 114.29 228.37 113.26 228.99 113.00 230.00 C 112.75 231.02 113.36 232.04 114.37 232.30 Z M 115.46 232.57 L 116.39 232.77 C 117.41 232.98 118.42 232.33 118.63 231.31 C 118.85 230.28 118.19 229.28 117.17 229.07 L 116.24 228.87 C 115.22 228.65 114.22 229.31 114.00 230.33 C 113.79 231.35 114.44 232.36 115.46 232.57 Z M 116.46 232.78 L 117.32 232.93 C 118.35 233.10 119.33 232.41 119.51 231.39 C 119.69 230.36 119.00 229.38 117.97 229.20 L 117.10 229.05 C 116.07 228.88 115.10 229.57 114.92 230.59 C 114.74 231.62 115.43 232.60 116.46 232.78 Z M 117.39 232.94 L 118.36 233.07 C 119.40 233.22 120.35 232.49 120.49 231.46 C 120.64 230.43 119.92 229.47 118.88 229.33 L 117.91 229.19 C 116.87 229.05 115.92 229.77 115.77 230.81 C 115.63 231.84 116.35 232.79 117.39 232.94 Z M 118.42 233.08 L 119.44 233.19 C 120.48 233.30 121.41 232.55 121.52 231.51 C 121.63 230.47 120.88 229.54 119.84 229.43 L 118.82 229.32 C 117.79 229.21 116.86 229.96 116.75 231.00 C 116.63 232.04 117.39 232.97 118.42 233.08 Z M 119.50 233.19 L 120.47 233.27 C 121.51 233.34 122.42 232.56 122.50 231.52 C 122.57 230.48 121.79 229.58 120.75 229.50 L 119.78 229.42 C 118.74 229.35 117.83 230.13 117.75 231.17 C 117.68 232.21 118.46 233.11 119.50 233.19 Z M 120.52 233.27 L 121.49 233.32 C 122.53 233.36 123.42 232.56 123.47 231.52 C 123.52 230.47 122.71 229.59 121.67 229.54 L 120.70 229.49 C 119.66 229.44 118.77 230.25 118.72 231.29 C 118.67 232.33 119.48 233.22 120.52 233.27 Z M 121.53 233.32 L 122.54 233.34 C 123.59 233.37 124.45 232.54 124.48 231.50 C 124.50 230.45 123.68 229.59 122.63 229.56 L 121.62 229.54 C 120.58 229.51 119.71 230.34 119.69 231.38 C 119.66 232.43 120.49 233.29 121.53 233.32 Z M 122.57 233.34 L 123.57 233.35 C 124.61 233.36 125.47 232.52 125.47 231.48 C 125.48 230.43 124.64 229.58 123.60 229.57 L 122.60 229.56 C 121.56 229.55 120.71 230.39 120.70 231.44 C 120.69 232.48 121.53 233.34 122.57 233.34 Z M 123.58 233.35 L 124.57 233.35 C 125.62 233.36 126.46 232.51 126.46 231.46 C 126.47 230.42 125.62 229.57 124.57 229.57 L 123.58 229.57 C 122.54 229.57 121.69 230.41 121.69 231.46 C 121.69 232.50 122.54 233.35 123.58 233.35 Z M 124.58 233.36 L 125.58 233.35 C 126.62 233.35 127.47 232.50 127.46 231.45 C 127.46 230.41 126.61 229.56 125.57 229.57 L 124.57 229.57 C 123.52 229.57 122.67 230.42 122.68 231.47 C 122.68 232.51 123.53 233.36 124.58 233.36 Z M 125.60 233.35 L 126.60 233.34 C 127.64 233.33 128.48 232.47 128.47 231.42 C 128.45 230.37 127.59 229.54 126.55 229.55 L 125.55 229.56 C 124.50 229.58 123.66 230.44 123.68 231.48 C 123.69 232.53 124.55 233.37 125.60 233.35 Z M 126.64 233.34 L 127.64 233.31 C 128.68 233.27 129.50 232.39 129.47 231.35 C 129.43 230.30 128.55 229.48 127.51 229.52 L 126.51 229.55 C 125.46 229.59 124.64 230.46 124.68 231.51 C 124.71 232.56 125.59 233.38 126.64 233.34 Z M 127.69 233.30 L 128.69 233.24 C 129.74 233.17 130.53 232.27 130.46 231.23 C 130.40 230.18 129.50 229.39 128.45 229.45 L 127.45 229.52 C 126.40 229.59 125.61 230.49 125.68 231.53 C 125.75 232.58 126.65 233.37 127.69 233.30 Z M 128.77 233.23 L 129.76 233.13 C 130.80 233.02 131.56 232.09 131.45 231.05 C 131.34 230.01 130.41 229.25 129.37 229.36 L 128.38 229.46 C 127.33 229.57 126.58 230.50 126.68 231.54 C 126.79 232.59 127.72 233.34 128.77 233.23 Z M 129.86 233.12 L 130.84 232.97 C 131.88 232.81 132.59 231.84 132.43 230.80 C 132.27 229.77 131.30 229.06 130.26 229.22 L 129.28 229.37 C 128.24 229.53 127.53 230.50 127.69 231.53 C 127.85 232.57 128.82 233.28 129.86 233.12 Z M 130.95 232.95 L 131.91 232.74 C 132.94 232.52 133.59 231.51 133.37 230.49 C 133.15 229.46 132.14 228.81 131.12 229.03 L 130.15 229.24 C 129.13 229.45 128.47 230.46 128.69 231.49 C 128.91 232.51 129.92 233.17 130.95 232.95 Z M 132.02 232.72 L 132.98 232.46 C 133.99 232.18 134.59 231.13 134.31 230.12 C 134.03 229.11 132.99 228.51 131.98 228.79 L 131.01 229.05 C 130.00 229.33 129.41 230.37 129.68 231.39 C 129.96 232.40 131.00 233.00 132.02 232.72 Z M 133.07 232.43 L 134.04 232.11 C 135.03 231.78 135.58 230.71 135.25 229.71 C 134.92 228.71 133.84 228.17 132.85 228.50 L 131.88 228.82 C 130.88 229.15 130.34 230.22 130.67 231.22 C 131.00 232.22 132.08 232.76 133.07 232.43 Z M 134.13 232.08 L 135.04 231.73 C 136.02 231.35 136.51 230.25 136.13 229.27 C 135.75 228.29 134.64 227.80 133.66 228.18 L 132.76 228.53 C 131.77 228.91 131.29 230.01 131.66 230.99 C 132.04 231.97 133.15 232.46 134.13 232.08 Z M 135.15 231.69 L 136.06 231.27 C 137.02 230.83 137.43 229.69 136.99 228.73 C 136.55 227.77 135.41 227.36 134.45 227.80 L 133.55 228.22 C 132.59 228.66 132.17 229.80 132.61 230.76 C 133.06 231.72 134.19 232.13 135.15 231.69 Z M 136.20 231.20 L 137.09 230.70 C 138.01 230.17 138.33 229.00 137.81 228.08 C 137.28 227.16 136.11 226.84 135.19 227.36 L 134.30 227.87 C 133.38 228.39 133.06 229.56 133.59 230.49 C 134.11 231.41 135.28 231.73 136.20 231.20 Z M 137.25 230.60 L 138.05 230.04 C 138.92 229.42 139.13 228.22 138.52 227.35 C 137.91 226.49 136.70 226.28 135.84 226.89 L 135.03 227.46 C 134.16 228.07 133.96 229.27 134.57 230.14 C 135.18 231.01 136.38 231.22 137.25 230.60 Z M 138.18 229.94 L 138.94 229.30 C 139.76 228.62 139.86 227.40 139.18 226.59 C 138.49 225.77 137.28 225.67 136.46 226.35 L 135.71 226.99 C 134.89 227.67 134.79 228.89 135.47 229.70 C 136.15 230.52 137.37 230.62 138.18 229.94 Z M 139.03 229.22 L 139.76 228.52 C 140.53 227.79 140.56 226.57 139.83 225.80 C 139.09 225.03 137.87 225.00 137.10 225.74 L 136.37 226.43 C 135.60 227.17 135.58 228.39 136.31 229.16 C 137.04 229.93 138.26 229.95 139.03 229.22 Z M 139.83 228.46 L 140.53 227.72 C 141.27 226.95 141.24 225.73 140.47 224.99 C 139.70 224.26 138.48 224.29 137.74 225.06 L 137.04 225.80 C 136.31 226.57 136.34 227.79 137.11 228.52 C 137.88 229.26 139.10 229.23 139.83 228.46 Z M 140.58 227.67 L 141.24 226.93 C 141.95 226.13 141.88 224.91 141.08 224.20 C 140.29 223.50 139.07 223.57 138.36 224.36 L 137.70 225.11 C 136.99 225.90 137.06 227.12 137.86 227.83 C 138.65 228.54 139.87 228.47 140.58 227.67 Z M 141.27 226.89 L 141.92 226.12 C 142.61 225.31 142.51 224.09 141.69 223.41 C 140.88 222.72 139.66 222.82 138.98 223.63 L 138.33 224.40 C 137.64 225.21 137.74 226.43 138.56 227.12 C 139.37 227.80 140.59 227.70 141.27 226.89 Z M 141.94 226.10 L 142.58 225.32 C 143.25 224.50 143.13 223.28 142.30 222.61 C 141.48 221.93 140.26 222.06 139.59 222.88 L 138.95 223.66 C 138.28 224.49 138.40 225.70 139.23 226.37 C 140.06 227.05 141.27 226.92 141.94 226.10 Z M 142.59 225.31 L 143.18 224.57 C 143.84 223.74 143.71 222.52 142.87 221.86 C 142.04 221.19 140.82 221.33 140.16 222.16 L 139.57 222.90 C 138.91 223.73 139.05 224.95 139.88 225.61 C 140.71 226.28 141.93 226.14 142.59 225.31 Z M 143.19 224.55 L 143.74 223.86 C 144.39 223.02 144.24 221.80 143.40 221.15 C 142.56 220.49 141.34 220.64 140.69 221.48 L 140.15 222.18 C 139.49 223.02 139.64 224.23 140.48 224.89 C 141.32 225.55 142.54 225.40 143.19 224.55 Z M 143.76 223.83 L 144.33 223.08 C 144.97 222.23 144.80 221.01 143.94 220.37 C 143.09 219.73 141.88 219.90 141.23 220.75 L 140.67 221.51 C 140.02 222.36 140.20 223.57 141.05 224.22 C 141.90 224.86 143.11 224.69 143.76 223.83 Z M 144.35 223.05 L 144.97 222.19 C 145.59 221.33 145.40 220.12 144.53 219.49 C 143.66 218.86 142.45 219.06 141.83 219.93 L 141.21 220.78 C 140.58 221.65 140.78 222.86 141.65 223.49 C 142.51 224.11 143.72 223.92 144.35 223.05 Z M 144.99 222.16 L 145.67 221.19 C 146.27 220.31 146.05 219.10 145.17 218.49 C 144.29 217.88 143.09 218.10 142.48 218.98 L 141.80 219.96 C 141.19 220.84 141.41 222.04 142.29 222.65 C 143.17 223.26 144.38 223.04 144.99 222.16 Z M 145.68 221.17 L 146.32 220.23 C 146.92 219.34 146.68 218.14 145.79 217.54 C 144.90 216.94 143.69 217.17 143.09 218.06 L 142.46 219.00 C 141.86 219.89 142.10 221.10 142.99 221.70 C 143.88 222.30 145.08 222.06 145.68 221.17 Z M 146.32 220.25 L 146.97 219.29 C 147.58 218.40 147.35 217.19 146.46 216.58 C 145.57 215.97 144.35 216.20 143.75 217.09 L 143.09 218.05 C 142.48 218.94 142.71 220.15 143.60 220.76 C 144.49 221.37 145.71 221.14 146.32 220.25 Z M 146.95 219.34 L 147.59 218.45 C 148.22 217.57 148.02 216.35 147.14 215.71 C 146.27 215.08 145.04 215.28 144.41 216.16 L 143.77 217.04 C 143.13 217.92 143.33 219.15 144.21 219.78 C 145.09 220.41 146.32 220.22 146.95 219.34 Z M 147.53 218.54 L 148.11 217.82 C 148.80 216.98 148.67 215.73 147.83 215.05 C 146.98 214.36 145.74 214.49 145.05 215.34 L 144.47 216.06 C 143.78 216.91 143.91 218.15 144.76 218.83 C 145.60 219.52 146.84 219.39 147.53 218.54 Z M 147.94 218.02 L 148.44 217.55 C 149.24 216.80 149.27 215.55 148.52 214.75 C 147.77 213.96 146.52 213.92 145.73 214.67 L 145.23 215.14 C 144.43 215.89 144.40 217.14 145.14 217.94 C 145.89 218.73 147.15 218.77 147.94 218.02 Z M 147.11 218.10 L 147.76 218.09 C 148.85 218.08 149.73 217.18 149.72 216.08 C 149.71 214.98 148.81 214.10 147.71 214.12 L 147.06 214.12 C 145.96 214.14 145.08 215.03 145.10 216.13 C 145.11 217.23 146.01 218.11 147.11 218.10 Z M 145.87 216.79 L 146.20 217.70 C 146.58 218.73 147.72 219.26 148.76 218.88 C 149.79 218.50 150.32 217.35 149.94 216.32 L 149.61 215.41 C 149.23 214.38 148.08 213.85 147.05 214.23 C 146.02 214.61 145.49 215.76 145.87 216.79 Z M 146.09 217.31 L 146.27 218.45 C 146.43 219.54 147.45 220.29 148.54 220.13 C 149.63 219.96 150.38 218.94 150.22 217.85 L 150.04 216.71 C 149.88 215.62 148.86 214.87 147.77 215.03 C 146.68 215.20 145.93 216.22 146.09 217.31 Z M 146.26 218.42 L 146.39 219.40 C 146.54 220.50 147.55 221.26 148.64 221.12 C 149.74 220.97 150.50 219.96 150.36 218.87 L 150.22 217.88 C 150.08 216.79 149.07 216.02 147.97 216.17 C 146.88 216.32 146.11 217.32 146.26 218.42 Z M 146.40 219.43 L 146.54 220.42 C 146.70 221.51 147.72 222.27 148.81 222.11 C 149.90 221.95 150.66 220.93 150.50 219.84 L 150.35 218.85 C 150.19 217.75 149.18 217.00 148.09 217.16 C 146.99 217.32 146.24 218.33 146.40 219.43 Z M 146.55 220.48 L 146.72 221.47 C 146.91 222.56 147.95 223.28 149.04 223.09 C 150.13 222.90 150.86 221.87 150.66 220.78 L 150.49 219.79 C 150.30 218.70 149.26 217.97 148.17 218.16 C 147.09 218.35 146.36 219.39 146.55 220.48 Z M 146.74 221.56 L 146.96 222.52 C 147.19 223.60 148.26 224.28 149.34 224.04 C 150.42 223.80 151.10 222.74 150.86 221.66 L 150.65 220.69 C 150.41 219.61 149.34 218.93 148.26 219.17 C 147.18 219.41 146.50 220.48 146.74 221.56 Z M 146.98 222.64 L 147.26 223.59 C 147.56 224.66 148.66 225.27 149.73 224.97 C 150.79 224.67 151.41 223.56 151.11 222.50 L 150.83 221.54 C 150.53 220.48 149.43 219.86 148.36 220.17 C 147.30 220.47 146.68 221.57 146.98 222.64 Z M 147.30 223.73 L 147.64 224.67 C 148.01 225.71 149.16 226.25 150.20 225.88 C 151.24 225.50 151.78 224.35 151.40 223.31 L 151.06 222.37 C 150.69 221.33 149.54 220.79 148.50 221.16 C 147.46 221.54 146.92 222.69 147.30 223.73 Z M 147.70 224.82 L 148.11 225.72 C 148.56 226.73 149.75 227.18 150.75 226.72 C 151.76 226.27 152.21 225.08 151.76 224.08 L 151.35 223.17 C 150.89 222.16 149.71 221.71 148.70 222.17 C 147.69 222.62 147.24 223.81 147.70 224.82 Z M 148.17 225.86 L 148.65 226.73 C 149.18 227.70 150.39 228.05 151.36 227.52 C 152.34 226.99 152.69 225.78 152.16 224.81 L 151.69 223.94 C 151.16 222.97 149.94 222.61 148.97 223.14 C 148.00 223.67 147.64 224.89 148.17 225.86 Z M 148.72 226.85 L 149.27 227.69 C 149.86 228.62 151.10 228.89 152.03 228.29 C 152.96 227.70 153.23 226.46 152.63 225.53 L 152.09 224.68 C 151.49 223.75 150.25 223.48 149.32 224.08 C 148.39 224.68 148.12 225.92 148.72 226.85 Z M 149.35 227.81 L 149.95 228.62 C 150.62 229.51 151.87 229.69 152.76 229.03 C 153.64 228.37 153.82 227.11 153.16 226.23 L 152.55 225.41 C 151.89 224.53 150.64 224.35 149.75 225.01 C 148.87 225.67 148.68 226.92 149.35 227.81 Z M 150.04 228.73 L 150.68 229.47 C 151.39 230.31 152.66 230.40 153.50 229.68 C 154.34 228.96 154.43 227.70 153.71 226.86 L 153.08 226.12 C 152.36 225.28 151.09 225.19 150.25 225.91 C 149.42 226.63 149.32 227.89 150.04 228.73 Z M 150.77 229.57 L 151.46 230.27 C 152.23 231.06 153.50 231.07 154.29 230.29 C 155.07 229.52 155.08 228.25 154.31 227.46 L 153.62 226.76 C 152.84 225.98 151.58 225.97 150.79 226.74 C 150.00 227.52 149.99 228.78 150.77 229.57 Z M 151.56 230.37 L 152.31 231.03 C 153.14 231.76 154.40 231.68 155.14 230.85 C 155.87 230.03 155.79 228.76 154.96 228.03 L 154.21 227.37 C 153.38 226.64 152.11 226.71 151.38 227.54 C 150.65 228.37 150.73 229.63 151.56 230.37 Z M 152.42 231.12 L 153.25 231.75 C 154.12 232.42 155.38 232.25 156.05 231.37 C 156.72 230.50 156.55 229.24 155.67 228.57 L 154.85 227.94 C 153.97 227.27 152.72 227.44 152.05 228.32 C 151.38 229.19 151.54 230.45 152.42 231.12 Z M 153.36 231.83 L 154.17 232.37 C 155.09 232.98 156.33 232.73 156.94 231.81 C 157.55 230.89 157.30 229.65 156.38 229.04 L 155.56 228.50 C 154.65 227.89 153.41 228.14 152.80 229.06 C 152.19 229.98 152.44 231.22 153.36 231.83 Z M 154.28 232.43 L 155.15 232.93 C 156.10 233.48 157.32 233.16 157.88 232.20 C 158.43 231.25 158.10 230.03 157.14 229.47 L 156.28 228.97 C 155.32 228.42 154.10 228.75 153.55 229.71 C 153.00 230.66 153.33 231.88 154.28 232.43 Z M 155.26 232.99 L 156.17 233.44 C 157.15 233.93 158.35 233.52 158.84 232.54 C 159.33 231.55 158.92 230.35 157.94 229.86 L 157.03 229.42 C 156.04 228.93 154.85 229.33 154.36 230.32 C 153.87 231.31 154.27 232.50 155.26 232.99 Z M 156.29 233.49 L 157.22 233.88 C 158.24 234.30 159.40 233.82 159.82 232.80 C 160.25 231.78 159.76 230.62 158.74 230.20 L 157.81 229.81 C 156.80 229.39 155.63 229.87 155.21 230.89 C 154.79 231.91 155.27 233.07 156.29 233.49 Z M 157.36 233.93 L 158.29 234.23 C 159.33 234.58 160.46 234.01 160.80 232.97 C 161.15 231.92 160.58 230.80 159.54 230.45 L 158.61 230.15 C 157.56 229.80 156.44 230.37 156.09 231.41 C 155.75 232.46 156.31 233.58 157.36 233.93 Z M 158.43 234.27 L 159.37 234.51 C 160.43 234.78 161.52 234.13 161.78 233.06 C 162.05 231.99 161.40 230.91 160.33 230.65 L 159.39 230.41 C 158.33 230.14 157.25 230.79 156.98 231.86 C 156.71 232.93 157.36 234.01 158.43 234.27 Z M 159.50 234.54 L 160.47 234.71 C 161.55 234.91 162.58 234.19 162.78 233.11 C 162.97 232.02 162.25 230.99 161.17 230.79 L 160.20 230.62 C 159.12 230.42 158.09 231.14 157.89 232.22 C 157.70 233.31 158.42 234.34 159.50 234.54 Z M 160.58 234.73 L 161.59 234.85 C 162.68 234.98 163.68 234.21 163.81 233.12 C 163.94 232.03 163.17 231.03 162.08 230.90 L 161.06 230.78 C 159.97 230.64 158.98 231.42 158.84 232.51 C 158.71 233.60 159.49 234.59 160.58 234.73 Z M 161.68 234.86 L 162.71 234.94 C 163.81 235.03 164.77 234.21 164.85 233.11 C 164.94 232.02 164.12 231.06 163.02 230.97 L 161.99 230.89 C 160.89 230.81 159.94 231.63 159.85 232.72 C 159.76 233.82 160.58 234.77 161.68 234.86 Z M 162.77 234.94 L 163.77 234.99 C 164.87 235.04 165.80 234.20 165.85 233.10 C 165.90 232.00 165.05 231.07 163.96 231.02 L 162.96 230.97 C 161.87 230.92 160.93 231.77 160.88 232.86 C 160.83 233.96 161.68 234.89 162.77 234.94 Z M 163.81 234.99 L 164.83 235.02 C 165.93 235.05 166.84 234.18 166.87 233.09 C 166.90 231.99 166.03 231.07 164.93 231.04 L 163.92 231.02 C 162.82 230.99 161.90 231.85 161.87 232.95 C 161.85 234.05 162.71 234.96 163.81 234.99 Z M 164.86 235.02 L 165.88 235.03 C 166.97 235.05 167.87 234.17 167.89 233.07 C 167.90 231.97 167.02 231.07 165.93 231.06 L 164.91 231.04 C 163.81 231.03 162.91 231.91 162.89 233.01 C 162.88 234.10 163.76 235.01 164.86 235.02 Z M 165.89 235.03 L 166.89 235.04 C 167.99 235.04 168.88 234.15 168.89 233.06 C 168.89 231.96 168.00 231.07 166.91 231.06 L 165.91 231.06 C 164.81 231.05 163.92 231.94 163.91 233.04 C 163.91 234.13 164.80 235.03 165.89 235.03 Z M 166.90 235.04 L 167.90 235.04 C 169.00 235.04 169.89 234.15 169.89 233.05 C 169.89 231.95 169.00 231.06 167.90 231.06 L 166.90 231.06 C 165.80 231.06 164.91 231.95 164.91 233.05 C 164.91 234.15 165.80 235.04 166.90 235.04 Z M 167.91 235.03 L 168.95 235.03 C 170.05 235.03 170.93 234.13 170.93 233.04 C 170.93 231.94 170.03 231.05 168.94 231.06 L 167.90 231.06 C 166.80 231.07 165.91 231.96 165.92 233.06 C 165.92 234.15 166.81 235.04 167.91 235.03 Z M 168.98 235.03 L 169.97 235.01 C 171.07 234.99 171.94 234.09 171.92 232.99 C 171.90 231.90 171.00 231.02 169.90 231.04 L 168.91 231.06 C 167.81 231.08 166.94 231.98 166.96 233.08 C 166.98 234.18 167.88 235.05 168.98 235.03 Z M 170.02 235.01 L 170.99 234.97 C 172.08 234.92 172.93 234.00 172.88 232.90 C 172.84 231.81 171.91 230.96 170.82 231.01 L 169.85 231.05 C 168.76 231.09 167.91 232.02 167.95 233.11 C 168.00 234.21 168.92 235.06 170.02 235.01 Z M 171.06 234.96 L 172.02 234.89 C 173.11 234.80 173.93 233.85 173.84 232.76 C 173.76 231.67 172.81 230.85 171.72 230.94 L 170.75 231.01 C 169.66 231.09 168.84 232.05 168.93 233.14 C 169.01 234.23 169.96 235.05 171.06 234.96 Z M 172.10 234.88 L 173.05 234.77 C 174.14 234.64 174.92 233.66 174.79 232.57 C 174.66 231.49 173.68 230.71 172.59 230.83 L 171.64 230.94 C 170.55 231.07 169.77 232.05 169.90 233.14 C 170.03 234.23 171.01 235.01 172.10 234.88 Z M 173.11 234.76 L 174.08 234.62 C 175.17 234.46 175.91 233.45 175.76 232.37 C 175.60 231.29 174.59 230.54 173.51 230.70 L 172.53 230.84 C 171.45 231.00 170.70 232.01 170.86 233.09 C 171.02 234.17 172.03 234.92 173.11 234.76 Z M 174.13 234.61 L 175.12 234.44 C 176.20 234.26 176.92 233.24 176.74 232.16 C 176.56 231.08 175.54 230.36 174.46 230.54 L 173.47 230.71 C 172.39 230.89 171.66 231.91 171.85 232.99 C 172.03 234.07 173.05 234.79 174.13 234.61 Z M 175.15 234.44 L 176.16 234.25 C 177.24 234.05 177.95 233.02 177.75 231.95 C 177.55 230.88 176.52 230.16 175.45 230.36 L 174.44 230.55 C 173.36 230.74 172.65 231.77 172.85 232.85 C 173.04 233.92 174.07 234.63 175.15 234.44 Z M 176.17 234.25 L 177.17 234.06 C 178.24 233.86 178.95 232.82 178.75 231.75 C 178.54 230.68 177.51 229.97 176.44 230.17 L 175.44 230.36 C 174.37 230.57 173.66 231.60 173.86 232.67 C 174.07 233.74 175.10 234.45 176.17 234.25 Z M 177.17 234.05 L 178.17 233.87 C 179.24 233.66 179.94 232.63 179.74 231.56 C 179.53 230.49 178.50 229.79 177.43 229.99 L 176.44 230.18 C 175.37 230.38 174.66 231.41 174.87 232.48 C 175.07 233.56 176.10 234.26 177.17 234.05 Z M 178.16 233.86 L 179.16 233.68 C 180.23 233.47 180.93 232.44 180.73 231.37 C 180.52 230.30 179.49 229.60 178.42 229.80 L 177.43 229.99 C 176.36 230.19 175.66 231.23 175.86 232.29 C 176.06 233.36 177.10 234.07 178.16 233.86 Z M 179.15 233.67 L 180.14 233.49 C 181.20 233.29 181.91 232.26 181.71 231.19 C 181.51 230.13 180.48 229.42 179.41 229.62 L 178.43 229.80 C 177.36 230.00 176.66 231.03 176.86 232.10 C 177.06 233.17 178.08 233.87 179.15 233.67 Z M 180.13 233.49 L 181.09 233.31 C 182.16 233.12 182.87 232.09 182.67 231.03 C 182.48 229.96 181.45 229.25 180.39 229.45 L 179.42 229.62 C 178.35 229.82 177.65 230.84 177.84 231.91 C 178.03 232.98 179.06 233.68 180.13 233.49 Z M 181.08 233.31 L 182.05 233.14 C 183.12 232.95 183.83 231.94 183.65 230.87 C 183.46 229.80 182.44 229.09 181.37 229.27 L 180.40 229.45 C 179.33 229.63 178.62 230.65 178.80 231.72 C 178.99 232.79 180.01 233.50 181.08 233.31 Z M 182.04 233.14 L 183.00 232.98 C 184.07 232.80 184.79 231.78 184.61 230.72 C 184.43 229.65 183.41 228.93 182.34 229.11 L 181.38 229.27 C 180.31 229.46 179.60 230.47 179.78 231.54 C 179.96 232.61 180.97 233.32 182.04 233.14 Z M 183.00 232.98 L 183.97 232.82 C 185.04 232.64 185.76 231.63 185.58 230.56 C 185.40 229.49 184.39 228.77 183.32 228.95 L 182.35 229.11 C 181.28 229.29 180.56 230.30 180.74 231.37 C 180.92 232.43 181.93 233.16 183.00 232.98 Z M 183.97 232.81 L 184.97 232.65 C 186.04 232.47 186.76 231.46 186.58 230.40 C 186.41 229.33 185.40 228.61 184.33 228.78 L 183.33 228.95 C 182.26 229.13 181.54 230.14 181.71 231.20 C 181.89 232.27 182.90 232.99 183.97 232.81 Z M 184.97 232.65 L 185.95 232.48 C 187.01 232.31 187.73 231.30 187.55 230.23 C 187.38 229.17 186.37 228.45 185.30 228.62 L 184.33 228.79 C 183.26 228.96 182.54 229.97 182.72 231.04 C 182.90 232.10 183.91 232.82 184.97 232.65 Z M 185.95 232.48 L 186.87 232.33 C 187.94 232.15 188.66 231.14 188.48 230.07 C 188.30 229.01 187.29 228.29 186.22 228.47 L 185.30 228.63 C 184.23 228.81 183.52 229.81 183.70 230.88 C 183.88 231.94 184.88 232.66 185.95 232.48 Z M 186.88 232.32 L 187.84 232.16 C 188.91 231.98 189.62 230.97 189.44 229.90 C 189.26 228.84 188.25 228.13 187.18 228.31 L 186.22 228.47 C 185.16 228.65 184.44 229.66 184.62 230.73 C 184.80 231.79 185.81 232.51 186.88 232.32 Z M 187.85 232.16 L 188.85 231.98 C 189.91 231.80 190.62 230.79 190.43 229.72 C 190.25 228.66 189.24 227.95 188.18 228.14 L 187.18 228.31 C 186.11 228.49 185.40 229.51 185.59 230.57 C 185.77 231.63 186.79 232.34 187.85 232.16 Z M 188.85 231.98 L 189.88 231.80 C 190.94 231.61 191.65 230.59 191.46 229.53 C 191.27 228.47 190.26 227.77 189.20 227.95 L 188.17 228.14 C 187.11 228.33 186.40 229.34 186.59 230.40 C 186.78 231.46 187.79 232.17 188.85 231.98 Z M 189.89 231.79 L 190.94 231.60 C 192.00 231.41 192.71 230.39 192.51 229.33 C 192.32 228.28 191.30 227.57 190.24 227.77 L 189.19 227.96 C 188.13 228.15 187.43 229.17 187.62 230.22 C 187.82 231.28 188.83 231.99 189.89 231.79 Z M 190.95 231.60 L 191.97 231.41 C 193.03 231.21 193.73 230.20 193.53 229.14 C 193.33 228.08 192.32 227.38 191.26 227.58 L 190.24 227.77 C 189.18 227.96 188.48 228.98 188.68 230.04 C 188.87 231.10 189.89 231.80 190.95 231.60 Z M 191.97 231.41 L 193.00 231.22 C 194.05 231.02 194.75 230.00 194.55 228.94 C 194.35 227.89 193.34 227.19 192.28 227.39 L 191.26 227.58 C 190.20 227.78 189.50 228.80 189.70 229.85 C 189.90 230.91 190.91 231.61 191.97 231.41 Z M 192.99 231.22 L 194.00 231.03 C 195.06 230.83 195.76 229.82 195.56 228.76 C 195.37 227.70 194.35 227.00 193.29 227.20 L 192.28 227.39 C 191.22 227.58 190.53 228.60 190.72 229.66 C 190.92 230.72 191.93 231.41 192.99 231.22 Z M 193.99 231.03 L 194.98 230.85 C 196.04 230.66 196.74 229.65 196.55 228.59 C 196.35 227.53 195.34 226.83 194.28 227.02 L 193.30 227.20 C 192.24 227.39 191.54 228.40 191.73 229.46 C 191.92 230.52 192.94 231.22 193.99 231.03 Z M 194.96 230.85 L 195.90 230.69 C 196.96 230.51 197.67 229.50 197.49 228.44 C 197.30 227.38 196.29 226.67 195.24 226.86 L 194.30 227.02 C 193.24 227.20 192.53 228.21 192.71 229.27 C 192.90 230.33 193.90 231.04 194.96 230.85 Z M 195.88 230.70 L 196.84 230.54 C 197.90 230.37 198.62 229.37 198.45 228.31 C 198.28 227.25 197.28 226.53 196.22 226.70 L 195.26 226.85 C 194.20 227.02 193.48 228.02 193.65 229.08 C 193.82 230.14 194.82 230.87 195.88 230.70 Z M 196.80 230.55 L 197.81 230.40 C 198.88 230.26 199.62 229.27 199.47 228.21 C 199.32 227.14 198.34 226.40 197.27 226.55 L 196.26 226.69 C 195.20 226.84 194.45 227.82 194.60 228.89 C 194.75 229.95 195.73 230.70 196.80 230.55 Z M 197.76 230.41 L 198.72 230.30 C 199.79 230.18 200.56 229.22 200.44 228.15 C 200.32 227.09 199.36 226.32 198.29 226.44 L 197.33 226.54 C 196.26 226.66 195.49 227.62 195.61 228.69 C 195.73 229.76 196.69 230.53 197.76 230.41 Z M 198.66 230.31 L 199.62 230.23 C 200.69 230.15 201.49 229.21 201.41 228.14 C 201.33 227.07 200.39 226.27 199.32 226.35 L 198.36 226.43 C 197.29 226.51 196.49 227.45 196.57 228.52 C 196.65 229.59 197.59 230.39 198.66 230.31 Z M 199.56 230.24 L 200.56 230.19 C 201.63 230.14 202.46 229.23 202.41 228.16 C 202.36 227.08 201.45 226.25 200.38 226.30 L 199.38 226.35 C 198.31 226.40 197.48 227.31 197.53 228.39 C 197.58 229.46 198.49 230.29 199.56 230.24 Z M 200.51 230.19 L 201.47 230.17 C 202.55 230.15 203.40 229.27 203.38 228.19 C 203.36 227.12 202.47 226.26 201.40 226.28 L 200.43 226.30 C 199.36 226.32 198.50 227.21 198.52 228.29 C 198.55 229.36 199.43 230.21 200.51 230.19 Z M 201.42 230.18 L 202.42 230.18 C 203.49 230.19 204.37 229.33 204.38 228.25 C 204.39 227.17 203.52 226.30 202.44 226.29 L 201.45 226.28 C 200.37 226.27 199.50 227.14 199.49 228.21 C 199.48 229.29 200.35 230.17 201.42 230.18 Z M 202.35 230.18 L 203.37 230.22 C 204.45 230.27 205.36 229.43 205.40 228.35 C 205.44 227.27 204.60 226.37 203.53 226.33 L 202.51 226.29 C 201.43 226.25 200.52 227.08 200.48 228.16 C 200.44 229.24 201.28 230.14 202.35 230.18 Z M 203.30 230.22 L 204.32 230.30 C 205.40 230.38 206.33 229.58 206.42 228.50 C 206.50 227.43 205.70 226.49 204.62 226.41 L 203.60 226.33 C 202.53 226.25 201.59 227.05 201.50 228.13 C 201.42 229.20 202.23 230.14 203.30 230.22 Z M 204.23 230.29 L 205.23 230.42 C 206.30 230.55 207.27 229.79 207.41 228.72 C 207.54 227.65 206.78 226.67 205.71 226.54 L 204.71 226.42 C 203.64 226.28 202.67 227.04 202.53 228.11 C 202.40 229.18 203.16 230.16 204.23 230.29 Z M 205.11 230.40 L 206.07 230.58 C 207.13 230.78 208.15 230.07 208.35 229.01 C 208.55 227.95 207.84 226.93 206.78 226.73 L 205.83 226.56 C 204.76 226.36 203.74 227.06 203.55 228.12 C 203.35 229.18 204.05 230.20 205.11 230.40 Z M 205.95 230.55 L 206.87 230.78 C 207.92 231.05 208.98 230.41 209.24 229.37 C 209.51 228.32 208.87 227.26 207.83 226.99 L 206.90 226.76 C 205.86 226.50 204.79 227.13 204.53 228.18 C 204.27 229.23 204.90 230.29 205.95 230.55 Z M 206.77 230.75 L 207.68 231.04 C 208.71 231.36 209.81 230.79 210.13 229.76 C 210.45 228.73 209.88 227.63 208.85 227.31 L 207.93 227.02 C 206.90 226.70 205.80 227.27 205.48 228.31 C 205.16 229.34 205.73 230.43 206.77 230.75 Z M 207.60 231.01 L 208.53 231.35 C 209.55 231.72 210.67 231.19 211.04 230.18 C 211.41 229.16 210.88 228.04 209.86 227.67 L 208.93 227.34 C 207.91 226.97 206.79 227.49 206.43 228.51 C 206.06 229.52 206.58 230.65 207.60 231.01 Z M 208.48 231.33 L 209.47 231.72 C 210.47 232.12 211.61 231.63 212.00 230.62 C 212.40 229.62 211.91 228.48 210.91 228.09 L 209.92 227.70 C 208.92 227.30 207.78 227.79 207.38 228.79 C 206.98 229.80 207.48 230.93 208.48 231.33 Z M 209.44 231.71 L 210.39 232.11 C 211.39 232.52 212.54 232.05 212.95 231.05 C 213.36 230.05 212.89 228.91 211.89 228.49 L 210.93 228.10 C 209.94 227.68 208.79 228.16 208.38 229.15 C 207.97 230.15 208.44 231.30 209.44 231.71 Z M 210.38 232.10 L 211.31 232.49 C 212.30 232.91 213.45 232.45 213.87 231.46 C 214.29 230.46 213.83 229.32 212.83 228.89 L 211.91 228.50 C 210.91 228.08 209.76 228.54 209.34 229.54 C 208.92 230.53 209.39 231.68 210.38 232.10 Z M 211.30 232.49 L 212.25 232.90 C 213.24 233.33 214.39 232.87 214.82 231.88 C 215.24 230.89 214.79 229.74 213.80 229.31 L 212.85 228.90 C 211.85 228.47 210.70 228.93 210.28 229.92 C 209.85 230.91 210.30 232.06 211.30 232.49 Z M 212.24 232.89 L 213.19 233.31 C 214.18 233.75 215.33 233.30 215.76 232.31 C 216.20 231.32 215.75 230.17 214.76 229.73 L 213.81 229.32 C 212.82 228.88 211.67 229.33 211.23 230.32 C 210.80 231.31 211.25 232.46 212.24 232.89 Z M 213.18 233.31 L 214.11 233.72 C 215.09 234.16 216.25 233.72 216.69 232.74 C 217.13 231.75 216.69 230.60 215.70 230.16 L 214.77 229.74 C 213.79 229.30 212.63 229.74 212.19 230.73 C 211.75 231.71 212.19 232.87 213.18 233.31 Z M 214.10 233.72 L 214.98 234.12 C 215.96 234.57 217.12 234.13 217.57 233.15 C 218.01 232.17 217.58 231.01 216.60 230.56 L 215.71 230.16 C 214.73 229.72 213.58 230.15 213.13 231.13 C 212.68 232.11 213.11 233.27 214.10 233.72 Z M 214.96 234.11 L 215.87 234.53 C 216.84 234.99 218.01 234.56 218.46 233.59 C 218.92 232.61 218.49 231.45 217.52 230.99 L 216.61 230.57 C 215.64 230.12 214.47 230.54 214.02 231.52 C 213.56 232.49 213.99 233.66 214.96 234.11 Z M 215.85 234.52 L 216.80 234.98 C 217.77 235.44 218.93 235.03 219.40 234.06 C 219.87 233.09 219.46 231.93 218.49 231.47 L 217.54 231.01 C 216.57 230.54 215.40 230.95 214.94 231.92 C 214.47 232.89 214.88 234.05 215.85 234.52 Z M 216.78 234.96 L 217.65 235.39 C 218.61 235.87 219.78 235.48 220.25 234.52 C 220.73 233.56 220.34 232.39 219.38 231.92 L 218.51 231.48 C 217.55 231.00 216.39 231.39 215.91 232.35 C 215.43 233.31 215.82 234.48 216.78 234.96 Z M 217.63 235.38 L 218.47 235.81 C 219.42 236.30 220.59 235.92 221.08 234.97 C 221.57 234.02 221.19 232.85 220.24 232.36 L 219.40 231.93 C 218.45 231.44 217.28 231.82 216.79 232.77 C 216.30 233.72 216.68 234.89 217.63 235.38 Z M 218.46 235.79 L 219.31 236.25 C 220.26 236.74 221.43 236.38 221.92 235.44 C 222.42 234.49 222.06 233.32 221.11 232.83 L 220.25 232.38 C 219.31 231.88 218.14 232.24 217.65 233.19 C 217.15 234.13 217.51 235.30 218.46 235.79 Z M 219.31 236.24 L 220.16 236.69 C 221.10 237.19 222.27 236.83 222.77 235.89 C 223.27 234.95 222.91 233.79 221.97 233.29 L 221.12 232.84 C 220.18 232.34 219.01 232.69 218.51 233.63 C 218.01 234.57 218.37 235.74 219.31 236.24 Z M 220.16 236.69 L 221.03 237.16 C 221.97 237.66 223.13 237.30 223.64 236.37 C 224.14 235.43 223.78 234.26 222.85 233.76 L 221.97 233.29 C 221.04 232.79 219.87 233.14 219.37 234.08 C 218.87 235.02 219.22 236.18 220.16 236.69 Z M 221.02 237.15 L 221.93 237.64 C 222.86 238.14 224.03 237.79 224.53 236.86 C 225.04 235.92 224.69 234.76 223.75 234.25 L 222.85 233.76 C 221.92 233.26 220.75 233.61 220.25 234.54 C 219.74 235.48 220.09 236.65 221.02 237.15 Z M 221.92 237.63 L 222.82 238.13 C 223.76 238.63 224.92 238.29 225.43 237.36 C 225.94 236.43 225.60 235.26 224.66 234.75 L 223.76 234.26 C 222.83 233.75 221.66 234.09 221.15 235.02 C 220.64 235.96 220.99 237.12 221.92 237.63 Z M 222.81 238.12 L 223.70 238.61 C 224.63 239.12 225.80 238.78 226.31 237.85 C 226.82 236.92 226.48 235.75 225.55 235.24 L 224.67 234.75 C 223.74 234.24 222.57 234.58 222.06 235.51 C 221.55 236.44 221.89 237.61 222.81 238.12 Z M 223.69 238.60 L 224.60 239.11 C 225.52 239.63 226.69 239.30 227.21 238.38 C 227.73 237.45 227.40 236.28 226.48 235.76 L 225.57 235.25 C 224.64 234.73 223.47 235.06 222.95 235.98 C 222.43 236.91 222.76 238.08 223.69 238.60 Z M 224.59 239.10 L 225.51 239.63 C 226.43 240.15 227.60 239.84 228.13 238.92 C 228.65 238.00 228.33 236.83 227.42 236.30 L 226.49 235.77 C 225.57 235.25 224.40 235.57 223.87 236.48 C 223.35 237.40 223.67 238.57 224.59 239.10 Z M 225.50 239.62 L 226.36 240.12 C 227.27 240.65 228.45 240.35 228.98 239.43 C 229.51 238.52 229.20 237.35 228.29 236.82 L 227.43 236.32 C 226.52 235.78 225.35 236.09 224.81 237.00 C 224.28 237.91 224.59 239.08 225.50 239.62 Z M 226.35 240.11 L 227.17 240.59 C 228.07 241.13 229.24 240.84 229.78 239.93 C 230.32 239.03 230.02 237.86 229.12 237.32 L 228.30 236.83 C 227.40 236.29 226.23 236.59 225.69 237.49 C 225.15 238.40 225.45 239.57 226.35 240.11 Z M 227.16 240.58 L 227.95 241.06 C 228.85 241.60 230.02 241.32 230.56 240.42 C 231.10 239.52 230.81 238.35 229.92 237.81 L 229.13 237.33 C 228.23 236.78 227.06 237.07 226.52 237.97 C 225.97 238.87 226.26 240.04 227.16 240.58 Z M 227.94 241.05 L 228.77 241.56 C 229.66 242.10 230.83 241.82 231.38 240.93 C 231.92 240.04 231.64 238.87 230.75 238.32 L 229.92 237.82 C 229.03 237.27 227.86 237.55 227.32 238.44 C 226.77 239.34 227.05 240.50 227.94 241.05 Z M 228.77 241.55 L 229.60 242.06 C 230.49 242.60 231.66 242.32 232.20 241.44 C 232.75 240.55 232.47 239.38 231.58 238.84 L 230.75 238.33 C 229.86 237.78 228.70 238.06 228.15 238.95 C 227.61 239.84 227.88 241.00 228.77 241.55 Z M 229.61 242.05 L 230.47 242.58 C 231.36 243.12 232.51 242.84 233.05 241.95 C 233.59 241.06 233.31 239.91 232.43 239.37 L 231.57 238.84 C 230.68 238.30 229.53 238.58 228.99 239.47 C 228.44 240.36 228.73 241.51 229.61 242.05 Z M 230.48 242.58 L 231.38 243.12 C 232.27 243.65 233.42 243.36 233.95 242.48 C 234.49 241.59 234.20 240.44 233.31 239.91 L 232.41 239.37 C 231.53 238.83 230.38 239.12 229.84 240.01 C 229.31 240.89 229.60 242.04 230.48 242.58 Z M 231.40 243.12 L 232.26 243.63 C 233.15 244.15 234.29 243.85 234.82 242.97 C 235.34 242.08 235.04 240.93 234.16 240.41 L 233.30 239.90 C 232.41 239.38 231.26 239.68 230.74 240.57 C 230.22 241.45 230.51 242.60 231.40 243.12 Z M 232.29 243.63 L 233.18 244.14 C 234.07 244.65 235.20 244.34 235.71 243.45 C 236.22 242.56 235.91 241.43 235.02 240.92 L 234.13 240.41 C 233.24 239.90 232.11 240.21 231.60 241.10 C 231.09 241.99 231.39 243.12 232.29 243.63 Z M 233.21 244.15 L 234.10 244.64 C 235.00 245.14 236.13 244.81 236.62 243.91 C 237.11 243.01 236.78 241.89 235.89 241.40 L 234.99 240.90 C 234.09 240.41 232.97 240.74 232.48 241.64 C 231.98 242.54 232.31 243.66 233.21 244.15 Z M 234.15 244.66 L 235.02 245.11 C 235.93 245.58 237.04 245.22 237.51 244.32 C 237.98 243.41 237.62 242.30 236.72 241.83 L 235.84 241.38 C 234.94 240.91 233.82 241.27 233.35 242.17 C 232.89 243.08 233.24 244.19 234.15 244.66 Z M 235.09 245.14 L 236.04 245.58 C 236.96 246.01 238.05 245.61 238.48 244.69 C 238.91 243.77 238.51 242.68 237.59 242.25 L 236.65 241.81 C 235.73 241.38 234.63 241.77 234.21 242.69 C 233.78 243.61 234.17 244.71 235.09 245.14 Z M 236.14 245.61 L 237.12 245.99 C 238.05 246.37 239.11 245.91 239.48 244.97 C 239.86 244.04 239.40 242.98 238.46 242.60 L 237.49 242.22 C 236.55 241.85 235.49 242.30 235.12 243.24 C 234.75 244.17 235.21 245.24 236.14 245.61 Z M 237.24 246.03 L 238.16 246.32 C 239.12 246.62 240.13 246.09 240.44 245.14 C 240.74 244.18 240.21 243.17 239.26 242.87 L 238.34 242.57 C 237.38 242.27 236.37 242.80 236.06 243.75 C 235.76 244.71 236.29 245.72 237.24 246.03 Z M 238.31 246.34 L 239.20 246.55 C 240.16 246.77 241.13 246.17 241.35 245.20 C 241.58 244.24 240.97 243.27 240.01 243.05 L 239.11 242.84 C 238.15 242.62 237.18 243.22 236.96 244.19 C 236.74 245.15 237.34 246.12 238.31 246.34 Z M 239.34 246.56 L 240.32 246.70 C 241.29 246.85 242.19 246.17 242.34 245.20 C 242.48 244.23 241.81 243.33 240.84 243.18 L 239.86 243.04 C 238.89 242.89 237.99 243.56 237.84 244.54 C 237.70 245.51 238.37 246.41 239.34 246.56 Z M 240.44 246.70 L 241.42 246.78 C 242.39 246.85 243.24 246.13 243.32 245.16 C 243.40 244.19 242.68 243.34 241.71 243.27 L 240.72 243.19 C 239.75 243.11 238.90 243.83 238.82 244.80 C 238.74 245.77 239.47 246.62 240.44 246.70 Z M 241.50 246.76 L 242.51 246.80 C 243.47 246.84 244.28 246.09 244.32 245.12 C 244.35 244.16 243.60 243.35 242.64 243.32 L 241.63 243.28 C 240.67 243.24 239.86 243.99 239.82 244.96 C 239.79 245.92 240.54 246.73 241.50 246.76 Z M 242.55 246.78 L 243.54 246.80 C 244.49 246.81 245.27 246.06 245.29 245.11 C 245.30 244.16 244.55 243.37 243.60 243.35 L 242.61 243.34 C 241.66 243.32 240.87 244.08 240.85 245.03 C 240.84 245.98 241.60 246.76 242.55 246.78 Z M 243.55 246.77 L 244.55 246.78 C 245.48 246.79 246.25 246.04 246.26 245.10 C 246.27 244.16 245.51 243.39 244.57 243.39 L 243.58 243.38 C 242.64 243.37 241.87 244.12 241.87 245.06 C 241.86 246.00 242.61 246.77 243.55 246.77 Z M 244.56 246.76 L 245.57 246.76 C 246.49 246.76 247.24 246.02 247.25 245.09 C 247.25 244.17 246.50 243.42 245.58 243.41 L 244.56 243.41 C 243.64 243.41 242.89 244.16 242.89 245.08 C 242.88 246.00 243.63 246.76 244.56 246.76 Z M 245.57 246.74 L 246.37 246.74 C 247.28 246.74 248.02 246.00 248.02 245.09 C 248.02 244.18 247.28 243.43 246.37 243.43 L 245.57 243.43 C 244.66 243.43 243.92 244.17 243.92 245.09 C 243.92 246.00 244.66 246.74 245.57 246.74 Z"
      fill="black"
      fill-rule="nonzero" /></svg>