<svg xmlns="http://www.w3.org/2000/svg" width="300" height="300" viewBox="0 0 300 300">
<path d="M 70.63 250.20 L 69.64 249.89 C 68.81 249.62 67.93 250.08 67.66 250.92 C 67.40 251.75 67.86 252.63 68.70 252.90 L 69.68 253.21 C 70.51 253.47 71.40 253.01 71.66 252.18 C 71.92 251.35 71.46 250.46 70.63 250.20 Z M 69.71 249.90 L 68.76 249.55 C 67.94 249.25 67.02 249.68 66.72 250.50 C 66.42 251.33 66.85 252.24 67.68 252.54 L 68.63 252.88 C 69.45 253.19 70.36 252.76 70.66 251.93 C 70.96 251.11 70.54 250.20 69.71 249.90 Z M 68.90 249.60 L 68.02 249.18 C 67.22 248.80 66.27 249.15 65.89 249.95 C 65.51 250.75 65.85 251.70 66.65 252.08 L 67.54 252.49 C 68.34 252.87 69.29 252.53 69.67 251.73 C 70.04 250.93 69.70 249.97 68.90 249.60 Z M 68.23 249.29 L 67.45 248.77 C 66.71 248.27 65.71 248.47 65.22 249.21 C 64.72 249.95 64.92 250.95 65.66 251.44 L 66.44 251.97 C 67.18 252.46 68.18 252.27 68.68 251.53 C 69.17 250.79 68.97 249.79 68.23 249.29 Z M 67.71 248.96 L 67.05 248.29 C 66.42 247.65 65.39 247.65 64.75 248.28 C 64.11 248.91 64.11 249.94 64.74 250.58 L 65.40 251.25 C 66.03 251.89 67.06 251.90 67.70 251.26 C 68.34 250.63 68.35 249.60 67.71 248.96 Z M 67.29 248.57 L 66.77 247.72 C 66.28 246.95 65.27 246.72 64.50 247.20 C 63.73 247.68 63.49 248.70 63.98 249.47 L 64.50 250.31 C 64.98 251.08 66.00 251.31 66.77 250.83 C 67.54 250.35 67.77 249.34 67.29 248.57 Z M 66.93 248.02 L 66.55 247.00 C 66.23 246.14 65.28 245.70 64.42 246.02 C 63.56 246.33 63.12 247.29 63.44 248.15 L 63.81 249.17 C 64.13 250.03 65.09 250.47 65.95 250.15 C 66.81 249.83 67.25 248.88 66.93 248.02 Z M 66.64 247.23 L 66.44 246.28 C 66.25 245.37 65.36 244.79 64.45 244.98 C 63.54 245.17 62.96 246.06 63.15 246.97 L 63.35 247.92 C 63.54 248.83 64.43 249.41 65.34 249.22 C 66.25 249.03 66.83 248.14 66.64 247.23 Z M 66.48 246.45 L 66.37 245.42 C 66.27 244.49 65.44 243.81 64.50 243.91 C 63.57 244.01 62.90 244.85 62.99 245.78 L 63.10 246.81 C 63.20 247.74 64.04 248.41 64.97 248.32 C 65.91 248.22 66.58 247.38 66.48 246.45 Z M 66.40 245.58 L 66.39 244.54 C 66.37 243.59 65.59 242.83 64.64 242.85 C 63.69 242.86 62.93 243.65 62.95 244.59 L 62.97 245.63 C 62.98 246.58 63.76 247.34 64.71 247.32 C 65.66 247.31 66.42 246.53 66.40 245.58 Z M 66.40 244.71 L 66.48 243.72 C 66.56 242.76 65.84 241.92 64.89 241.85 C 63.93 241.77 63.09 242.48 63.02 243.44 L 62.94 244.43 C 62.86 245.38 63.57 246.22 64.53 246.30 C 65.48 246.38 66.32 245.66 66.40 244.71 Z M 66.46 243.94 L 66.67 242.94 C 66.87 242.00 66.27 241.07 65.32 240.87 C 64.37 240.67 63.44 241.27 63.24 242.22 L 63.03 243.22 C 62.83 244.16 63.44 245.09 64.39 245.29 C 65.33 245.49 66.26 244.89 66.46 243.94 Z M 66.60 243.23 L 66.96 242.31 C 67.31 241.40 66.86 240.38 65.96 240.03 C 65.05 239.67 64.03 240.12 63.67 241.03 L 63.31 241.94 C 62.96 242.85 63.41 243.87 64.32 244.23 C 65.22 244.58 66.24 244.13 66.60 243.23 Z M 66.84 242.57 L 67.33 241.75 C 67.83 240.91 67.55 239.82 66.71 239.32 C 65.87 238.82 64.79 239.09 64.29 239.94 L 63.79 240.76 C 63.29 241.60 63.57 242.69 64.41 243.19 C 65.25 243.69 66.34 243.41 66.84 242.57 Z M 67.21 241.94 L 67.83 241.14 C 68.44 240.37 68.30 239.25 67.53 238.65 C 66.75 238.04 65.63 238.18 65.03 238.95 L 64.41 239.75 C 63.80 240.52 63.94 241.64 64.71 242.24 C 65.48 242.85 66.60 242.71 67.21 241.94 Z M 67.75 241.25 L 68.34 240.59 C 69.01 239.86 68.95 238.74 68.22 238.07 C 67.49 237.41 66.37 237.46 65.70 238.19 L 65.11 238.85 C 64.45 239.57 64.50 240.70 65.23 241.37 C 65.96 242.03 67.09 241.97 67.75 241.25 Z M 68.28 240.66 L 68.94 240.01 C 69.65 239.31 69.65 238.18 68.96 237.48 C 68.26 236.78 67.13 236.77 66.43 237.47 L 65.77 238.12 C 65.06 238.82 65.06 239.95 65.75 240.65 C 66.45 241.35 67.58 241.36 68.28 240.66 Z M 68.88 240.07 L 69.63 239.40 C 70.37 238.74 70.43 237.61 69.77 236.87 C 69.11 236.13 67.98 236.07 67.24 236.73 L 66.49 237.40 C 65.76 238.06 65.69 239.20 66.35 239.93 C 67.01 240.67 68.15 240.73 68.88 240.07 Z M 69.57 239.46 L 70.40 238.77 C 71.17 238.15 71.28 237.02 70.66 236.25 C 70.03 235.48 68.90 235.37 68.13 236.00 L 67.30 236.68 C 66.53 237.30 66.42 238.43 67.05 239.20 C 67.67 239.97 68.80 240.08 69.57 239.46 Z M 70.35 238.82 L 71.23 238.16 C 72.02 237.57 72.18 236.44 71.59 235.65 C 70.99 234.85 69.87 234.69 69.07 235.29 L 68.19 235.95 C 67.40 236.54 67.23 237.67 67.83 238.46 C 68.42 239.26 69.55 239.42 70.35 238.82 Z M 71.18 238.20 L 72.00 237.63 C 72.81 237.06 73.01 235.94 72.45 235.13 C 71.88 234.31 70.75 234.11 69.94 234.68 L 69.12 235.25 C 68.30 235.82 68.10 236.94 68.67 237.75 C 69.24 238.57 70.36 238.77 71.18 238.20 Z M 71.96 237.66 L 72.81 237.10 C 73.65 236.55 73.88 235.43 73.33 234.60 C 72.78 233.77 71.66 233.54 70.83 234.08 L 69.98 234.65 C 69.14 235.20 68.91 236.31 69.46 237.15 C 70.01 237.98 71.13 238.21 71.96 237.66 Z M 72.78 237.12 L 73.65 236.58 C 74.50 236.05 74.76 234.93 74.23 234.09 C 73.70 233.24 72.58 232.99 71.74 233.51 L 70.87 234.06 C 70.02 234.59 69.76 235.70 70.29 236.55 C 70.82 237.40 71.94 237.65 72.78 237.12 Z M 73.62 236.60 L 74.49 236.08 C 75.35 235.56 75.63 234.45 75.11 233.60 C 74.60 232.74 73.49 232.46 72.63 232.97 L 71.77 233.49 C 70.91 234.01 70.63 235.12 71.14 235.97 C 71.66 236.83 72.77 237.11 73.62 236.60 Z M 74.46 236.10 L 75.31 235.61 C 76.18 235.11 76.48 234.01 75.98 233.14 C 75.48 232.27 74.37 231.97 73.51 232.47 L 72.66 232.96 C 71.80 233.45 71.50 234.56 71.99 235.43 C 72.49 236.29 73.60 236.59 74.46 236.10 Z M 75.28 235.63 L 76.19 235.13 C 77.06 234.65 77.39 233.55 76.91 232.67 C 76.42 231.80 75.32 231.47 74.44 231.95 L 73.54 232.45 C 72.66 232.93 72.34 234.03 72.82 234.91 C 73.30 235.79 74.40 236.11 75.28 235.63 Z M 76.15 235.15 L 77.08 234.67 C 77.97 234.21 78.32 233.12 77.86 232.23 C 77.39 231.34 76.30 230.99 75.41 231.45 L 74.48 231.93 C 73.59 232.39 73.24 233.49 73.70 234.38 C 74.17 235.27 75.26 235.62 76.15 235.15 Z M 77.05 234.69 L 77.93 234.26 C 78.83 233.82 79.20 232.73 78.76 231.83 C 78.32 230.93 77.23 230.56 76.33 231.00 L 75.44 231.43 C 74.54 231.87 74.17 232.96 74.62 233.86 C 75.06 234.76 76.15 235.13 77.05 234.69 Z M 77.90 234.27 L 78.76 233.87 C 79.67 233.44 80.06 232.36 79.64 231.45 C 79.21 230.54 78.13 230.15 77.22 230.58 L 76.36 230.98 C 75.45 231.41 75.06 232.49 75.48 233.40 C 75.91 234.31 76.99 234.70 77.90 234.27 Z M 78.74 233.88 L 79.61 233.49 C 80.52 233.07 80.93 231.99 80.51 231.08 C 80.10 230.16 79.02 229.76 78.10 230.17 L 77.24 230.57 C 76.32 230.98 75.92 232.06 76.34 232.98 C 76.75 233.89 77.83 234.30 78.74 233.88 Z M 79.60 233.49 L 80.47 233.10 C 81.39 232.69 81.80 231.62 81.39 230.70 C 80.98 229.78 79.90 229.37 78.99 229.78 L 78.11 230.17 C 77.19 230.58 76.78 231.66 77.19 232.57 C 77.60 233.49 78.68 233.90 79.60 233.49 Z M 80.46 233.11 L 81.36 232.71 C 82.28 232.31 82.70 231.23 82.29 230.31 C 81.89 229.39 80.81 228.97 79.89 229.38 L 79.00 229.77 C 78.07 230.18 77.66 231.25 78.06 232.17 C 78.47 233.10 79.54 233.51 80.46 233.11 Z M 81.35 232.72 L 82.27 232.32 C 83.20 231.92 83.62 230.85 83.22 229.92 C 82.82 229.00 81.75 228.57 80.83 228.97 L 79.90 229.37 C 78.98 229.77 78.55 230.84 78.95 231.77 C 79.35 232.69 80.43 233.12 81.35 232.72 Z M 82.26 232.33 L 83.21 231.93 C 84.14 231.53 84.57 230.46 84.18 229.54 C 83.79 228.61 82.72 228.17 81.79 228.57 L 80.84 228.97 C 79.91 229.36 79.48 230.43 79.87 231.36 C 80.26 232.29 81.33 232.72 82.26 232.33 Z M 83.20 231.93 L 84.12 231.55 C 85.06 231.17 85.50 230.10 85.12 229.17 C 84.73 228.23 83.66 227.79 82.73 228.17 L 81.80 228.56 C 80.87 228.94 80.43 230.01 80.81 230.94 C 81.20 231.88 82.26 232.32 83.20 231.93 Z M 84.11 231.56 L 85.00 231.20 C 85.94 230.82 86.39 229.75 86.01 228.82 C 85.63 227.88 84.57 227.43 83.63 227.81 L 82.74 228.17 C 81.81 228.55 81.35 229.61 81.73 230.55 C 82.11 231.48 83.18 231.94 84.11 231.56 Z M 84.99 231.20 L 85.90 230.84 C 86.84 230.46 87.30 229.40 86.93 228.46 C 86.55 227.52 85.49 227.07 84.55 227.44 L 83.64 227.80 C 82.70 228.18 82.24 229.24 82.62 230.18 C 82.99 231.12 84.05 231.58 84.99 231.20 Z M 85.90 230.84 L 86.83 230.47 C 87.77 230.10 88.24 229.04 87.86 228.10 C 87.49 227.16 86.43 226.69 85.49 227.07 L 84.55 227.44 C 83.61 227.81 83.15 228.87 83.52 229.81 C 83.90 230.75 84.96 231.22 85.90 230.84 Z M 86.83 230.47 L 87.79 230.09 C 88.74 229.72 89.20 228.66 88.83 227.72 C 88.45 226.77 87.39 226.31 86.45 226.69 L 85.49 227.07 C 84.55 227.44 84.08 228.50 84.46 229.44 C 84.83 230.39 85.89 230.85 86.83 230.47 Z M 87.80 230.10 L 88.76 229.71 C 89.71 229.34 90.17 228.27 89.79 227.33 C 89.42 226.39 88.35 225.93 87.41 226.30 L 86.44 226.68 C 85.50 227.06 85.04 228.12 85.42 229.07 C 85.79 230.01 86.86 230.47 87.80 230.10 Z M 88.77 229.71 L 89.68 229.35 C 90.62 228.97 91.08 227.91 90.71 226.96 C 90.33 226.02 89.26 225.56 88.32 225.94 L 87.41 226.30 C 86.47 226.68 86.01 227.74 86.38 228.69 C 86.76 229.63 87.83 230.09 88.77 229.71 Z M 89.68 229.35 L 90.61 228.98 C 91.55 228.61 92.01 227.54 91.64 226.59 C 91.26 225.65 90.19 225.19 89.25 225.57 L 88.32 225.94 C 87.38 226.31 86.92 227.38 87.29 228.32 C 87.67 229.27 88.74 229.73 89.68 229.35 Z M 90.60 228.98 L 91.54 228.61 C 92.49 228.24 92.95 227.17 92.58 226.23 C 92.20 225.28 91.14 224.82 90.19 225.19 L 89.25 225.56 C 88.31 225.94 87.84 227.00 88.22 227.95 C 88.59 228.89 89.66 229.36 90.60 228.98 Z M 91.54 228.62 L 92.48 228.25 C 93.43 227.88 93.89 226.81 93.53 225.87 C 93.16 224.92 92.09 224.45 91.14 224.82 L 90.20 225.19 C 89.25 225.56 88.78 226.62 89.15 227.57 C 89.52 228.52 90.59 228.99 91.54 228.62 Z M 92.47 228.26 L 93.41 227.90 C 94.36 227.54 94.83 226.47 94.47 225.52 C 94.11 224.57 93.04 224.09 92.09 224.46 L 91.15 224.81 C 90.20 225.18 89.73 226.24 90.09 227.19 C 90.45 228.14 91.52 228.62 92.47 228.26 Z M 93.39 227.91 L 94.34 227.56 C 95.29 227.20 95.78 226.14 95.43 225.19 C 95.07 224.23 94.01 223.74 93.06 224.10 L 92.11 224.45 C 91.15 224.80 90.67 225.86 91.02 226.82 C 91.37 227.77 92.44 228.26 93.39 227.91 Z M 94.32 227.56 L 95.27 227.22 C 96.23 226.88 96.73 225.82 96.39 224.86 C 96.04 223.90 94.99 223.40 94.03 223.75 L 93.07 224.09 C 92.11 224.43 91.61 225.49 91.96 226.45 C 92.30 227.41 93.36 227.91 94.32 227.56 Z M 95.26 227.23 L 96.21 226.90 C 97.17 226.56 97.68 225.51 97.34 224.54 C 97.00 223.58 95.95 223.07 94.98 223.41 L 94.04 223.74 C 93.08 224.08 92.57 225.13 92.91 226.09 C 93.24 227.06 94.30 227.56 95.26 227.23 Z M 96.20 226.90 L 97.14 226.58 C 98.10 226.25 98.62 225.19 98.28 224.23 C 97.95 223.26 96.90 222.75 95.93 223.08 L 94.99 223.40 C 94.03 223.74 93.51 224.79 93.85 225.75 C 94.18 226.72 95.23 227.23 96.20 226.90 Z M 97.13 226.58 L 98.07 226.26 C 99.04 225.93 99.55 224.88 99.22 223.91 C 98.89 222.95 97.84 222.43 96.87 222.76 L 95.94 223.08 C 94.97 223.41 94.45 224.46 94.78 225.43 C 95.11 226.39 96.16 226.91 97.13 226.58 Z M 98.07 226.26 L 99.01 225.94 C 99.98 225.61 100.49 224.56 100.16 223.59 C 99.83 222.62 98.78 222.11 97.81 222.44 L 96.87 222.76 C 95.91 223.09 95.39 224.14 95.72 225.11 C 96.05 226.08 97.10 226.59 98.07 226.26 Z M 99.01 225.95 L 99.95 225.63 C 100.92 225.29 101.43 224.24 101.10 223.27 C 100.77 222.30 99.71 221.78 98.74 222.11 L 97.81 222.43 C 96.84 222.77 96.32 223.82 96.65 224.79 C 96.99 225.76 98.04 226.28 99.01 225.95 Z M 99.95 225.63 L 100.89 225.31 C 101.86 224.97 102.38 223.92 102.04 222.94 C 101.71 221.97 100.65 221.46 99.68 221.79 L 98.74 222.11 C 97.77 222.44 97.25 223.50 97.59 224.47 C 97.92 225.45 98.98 225.96 99.95 225.63 Z M 100.88 225.31 L 101.83 224.99 C 102.80 224.66 103.32 223.60 102.99 222.62 C 102.66 221.65 101.60 221.13 100.63 221.46 L 99.68 221.78 C 98.71 222.12 98.19 223.18 98.52 224.15 C 98.85 225.12 99.91 225.64 100.88 225.31 Z M 101.82 225.00 L 102.77 224.68 C 103.75 224.35 104.28 223.29 103.95 222.31 C 103.62 221.33 102.56 220.81 101.58 221.14 L 100.63 221.46 C 99.66 221.78 99.13 222.84 99.46 223.82 C 99.79 224.80 100.85 225.32 101.82 225.00 Z M 102.76 224.68 L 103.72 224.37 C 104.70 224.05 105.24 222.99 104.91 222.01 C 104.59 221.02 103.53 220.49 102.55 220.81 L 101.59 221.13 C 100.61 221.45 100.08 222.51 100.40 223.49 C 100.72 224.47 101.78 225.01 102.76 224.68 Z M 103.71 224.38 L 104.66 224.07 C 105.65 223.76 106.19 222.70 105.88 221.72 C 105.56 220.73 104.51 220.18 103.52 220.50 L 102.57 220.80 C 101.58 221.12 101.04 222.17 101.35 223.16 C 101.66 224.15 102.72 224.69 103.71 224.38 Z M 104.65 224.08 L 105.58 223.80 C 106.58 223.49 107.13 222.44 106.83 221.44 C 106.52 220.45 105.47 219.89 104.47 220.20 L 103.54 220.49 C 102.54 220.79 101.99 221.85 102.29 222.84 C 102.60 223.83 103.65 224.39 104.65 224.08 Z M 105.57 223.81 L 106.52 223.53 C 107.52 223.23 108.08 222.18 107.79 221.18 C 107.49 220.18 106.44 219.61 105.44 219.90 L 104.49 220.19 C 103.49 220.48 102.92 221.54 103.22 222.54 C 103.52 223.54 104.57 224.11 105.57 223.81 Z M 106.50 223.54 L 107.46 223.26 C 108.47 222.97 109.05 221.92 108.76 220.91 C 108.47 219.91 107.42 219.33 106.41 219.62 L 105.45 219.89 C 104.44 220.18 103.86 221.23 104.15 222.24 C 104.44 223.25 105.49 223.83 106.50 223.54 Z M 107.44 223.27 L 108.42 223.00 C 109.43 222.72 110.02 221.67 109.74 220.66 C 109.46 219.64 108.41 219.05 107.39 219.33 L 106.42 219.60 C 105.41 219.89 104.82 220.94 105.10 221.95 C 105.38 222.96 106.43 223.56 107.44 223.27 Z M 108.40 223.02 L 109.39 222.75 C 110.41 222.47 111.01 221.43 110.73 220.41 C 110.46 219.39 109.41 218.78 108.39 219.06 L 107.41 219.32 C 106.39 219.60 105.78 220.65 106.06 221.67 C 106.33 222.69 107.38 223.29 108.40 223.02 Z M 109.37 222.76 L 110.34 222.51 C 111.36 222.24 111.98 221.19 111.71 220.17 C 111.44 219.14 110.39 218.53 109.37 218.79 L 108.40 219.05 C 107.38 219.32 106.76 220.36 107.03 221.39 C 107.30 222.41 108.35 223.03 109.37 222.76 Z M 110.33 222.52 L 111.27 222.28 C 112.30 222.02 112.92 220.97 112.66 219.94 C 112.40 218.91 111.35 218.28 110.32 218.55 L 109.38 218.78 C 108.35 219.05 107.72 220.09 107.99 221.12 C 108.25 222.16 109.29 222.78 110.33 222.52 Z M 111.25 222.29 L 112.21 222.05 C 113.24 221.80 113.88 220.76 113.63 219.72 C 113.37 218.68 112.33 218.05 111.29 218.30 L 110.34 218.54 C 109.30 218.79 108.66 219.84 108.92 220.87 C 109.17 221.91 110.22 222.54 111.25 222.29 Z M 112.19 222.06 L 113.16 221.84 C 114.20 221.59 114.85 220.55 114.61 219.51 C 114.36 218.47 113.32 217.82 112.28 218.07 L 111.31 218.29 C 110.27 218.54 109.62 219.58 109.86 220.62 C 110.11 221.66 111.15 222.31 112.19 222.06 Z M 113.15 221.85 L 114.13 221.63 C 115.18 221.39 115.84 220.35 115.60 219.31 C 115.37 218.26 114.33 217.60 113.28 217.83 L 112.30 218.06 C 111.25 218.29 110.59 219.33 110.83 220.37 C 111.06 221.42 112.10 222.08 113.15 221.85 Z M 114.11 221.64 L 115.11 221.42 C 116.17 221.20 116.84 220.17 116.62 219.11 C 116.39 218.06 115.36 217.39 114.31 217.61 L 113.30 217.82 C 112.25 218.05 111.58 219.08 111.80 220.13 C 112.03 221.19 113.06 221.86 114.11 221.64 Z M 115.09 221.43 L 116.09 221.23 C 117.15 221.02 117.83 219.99 117.62 218.94 C 117.41 217.88 116.38 217.19 115.32 217.40 L 114.33 217.60 C 113.27 217.81 112.58 218.84 112.79 219.90 C 113.01 220.96 114.03 221.64 115.09 221.43 Z M 116.07 221.24 L 116.99 221.07 C 118.05 220.87 118.75 219.85 118.55 218.78 C 118.35 217.72 117.33 217.02 116.27 217.22 L 115.34 217.40 C 114.28 217.60 113.58 218.62 113.78 219.68 C 113.98 220.74 115.00 221.44 116.07 221.24 Z M 116.97 221.07 L 117.91 220.91 C 118.98 220.72 119.69 219.70 119.50 218.64 C 119.31 217.57 118.30 216.86 117.23 217.05 L 116.29 217.22 C 115.22 217.40 114.51 218.42 114.70 219.49 C 114.89 220.55 115.91 221.26 116.97 221.07 Z M 117.90 220.91 L 118.86 220.75 C 119.93 220.58 120.65 219.57 120.47 218.50 C 120.29 217.43 119.28 216.71 118.21 216.88 L 117.25 217.04 C 116.18 217.22 115.46 218.23 115.64 219.30 C 115.82 220.37 116.83 221.09 117.90 220.91 Z M 118.84 220.76 L 119.83 220.60 C 120.90 220.44 121.63 219.43 121.46 218.36 C 121.30 217.29 120.29 216.56 119.22 216.72 L 118.23 216.88 C 117.16 217.05 116.43 218.05 116.60 219.12 C 116.76 220.19 117.77 220.93 118.84 220.76 Z M 119.81 220.61 L 120.82 220.46 C 121.90 220.30 122.64 219.30 122.48 218.23 C 122.32 217.15 121.32 216.41 120.25 216.57 L 119.24 216.72 C 118.16 216.88 117.42 217.88 117.58 218.95 C 117.74 220.03 118.74 220.77 119.81 220.61 Z M 120.81 220.46 L 121.85 220.32 C 122.93 220.17 123.68 219.17 123.53 218.10 C 123.38 217.02 122.38 216.27 121.31 216.42 L 120.26 216.56 C 119.19 216.71 118.44 217.71 118.59 218.79 C 118.74 219.86 119.73 220.61 120.81 220.46 Z M 121.84 220.32 L 122.88 220.18 C 123.96 220.04 124.72 219.05 124.58 217.97 C 124.44 216.89 123.44 216.13 122.37 216.28 L 121.32 216.41 C 120.24 216.56 119.48 217.55 119.62 218.63 C 119.77 219.71 120.76 220.47 121.84 220.32 Z M 122.87 220.19 L 123.83 220.07 C 124.91 219.93 125.68 218.94 125.54 217.86 C 125.41 216.78 124.42 216.01 123.34 216.15 L 122.38 216.27 C 121.30 216.41 120.53 217.40 120.67 218.48 C 120.80 219.56 121.79 220.32 122.87 220.19 Z M 123.82 220.07 L 124.80 219.95 C 125.89 219.82 126.66 218.84 126.53 217.75 C 126.40 216.67 125.42 215.90 124.33 216.03 L 123.35 216.15 C 122.27 216.28 121.49 217.26 121.63 218.34 C 121.76 219.43 122.74 220.20 123.82 220.07 Z M 124.79 219.95 L 125.79 219.84 C 126.88 219.72 127.65 218.74 127.53 217.65 C 127.41 216.57 126.43 215.79 125.34 215.91 L 124.34 216.03 C 123.26 216.15 122.48 217.13 122.60 218.21 C 122.73 219.30 123.71 220.08 124.79 219.95 Z M 125.78 219.84 L 126.79 219.73 C 127.87 219.62 128.66 218.64 128.54 217.55 C 128.42 216.47 127.45 215.68 126.36 215.80 L 125.35 215.91 C 124.27 216.03 123.48 217.00 123.60 218.09 C 123.72 219.18 124.69 219.96 125.78 219.84 Z M 126.77 219.74 L 127.78 219.64 C 128.87 219.53 129.66 218.55 129.55 217.46 C 129.44 216.38 128.47 215.58 127.38 215.69 L 126.37 215.80 C 125.28 215.91 124.49 216.88 124.60 217.97 C 124.71 219.06 125.68 219.85 126.77 219.74 Z M 127.77 219.64 L 128.78 219.54 C 129.87 219.44 130.67 218.47 130.57 217.38 C 130.46 216.29 129.50 215.49 128.41 215.60 L 127.40 215.69 C 126.31 215.79 125.51 216.76 125.61 217.85 C 125.71 218.94 126.68 219.74 127.77 219.64 Z M 128.76 219.55 L 129.77 219.46 C 130.86 219.37 131.67 218.40 131.57 217.31 C 131.48 216.22 130.52 215.41 129.43 215.50 L 128.42 215.59 C 127.33 215.69 126.52 216.65 126.62 217.74 C 126.71 218.83 127.67 219.64 128.76 219.55 Z M 129.75 219.46 L 130.75 219.39 C 131.85 219.30 132.66 218.34 132.58 217.25 C 132.49 216.16 131.54 215.34 130.44 215.42 L 129.44 215.50 C 128.35 215.59 127.53 216.54 127.62 217.64 C 127.70 218.73 128.66 219.55 129.75 219.46 Z M 130.73 219.39 L 131.77 219.32 C 132.87 219.24 133.69 218.29 133.62 217.20 C 133.54 216.10 132.59 215.27 131.50 215.35 L 130.46 215.42 C 129.37 215.50 128.54 216.45 128.61 217.54 C 128.69 218.64 129.64 219.46 130.73 219.39 Z M 131.75 219.32 L 132.77 219.26 C 133.87 219.19 134.71 218.25 134.64 217.15 C 134.58 216.06 133.63 215.22 132.54 215.29 L 131.52 215.35 C 130.42 215.41 129.58 216.35 129.65 217.45 C 129.71 218.55 130.66 219.38 131.75 219.32 Z M 132.76 219.26 L 133.76 219.21 C 134.86 219.15 135.71 218.22 135.65 217.12 C 135.59 216.02 134.66 215.18 133.56 215.23 L 132.55 215.28 C 131.46 215.34 130.61 216.28 130.67 217.37 C 130.72 218.47 131.66 219.32 132.76 219.26 Z M 133.75 219.21 L 134.74 219.17 C 135.84 219.12 136.69 218.19 136.65 217.09 C 136.60 215.99 135.67 215.14 134.57 215.19 L 133.58 215.23 C 132.48 215.28 131.63 216.21 131.67 217.31 C 131.72 218.40 132.65 219.26 133.75 219.21 Z M 134.73 219.17 L 135.71 219.13 C 136.81 219.10 137.67 218.17 137.63 217.07 C 137.59 215.97 136.67 215.11 135.57 215.15 L 134.59 215.19 C 133.49 215.23 132.63 216.15 132.67 217.25 C 132.71 218.35 133.63 219.21 134.73 219.17 Z M 135.70 219.14 L 136.68 219.11 C 137.78 219.08 138.64 218.16 138.61 217.06 C 138.58 215.96 137.66 215.09 136.56 215.12 L 135.59 215.15 C 134.49 215.18 133.62 216.10 133.65 217.20 C 133.68 218.30 134.60 219.17 135.70 219.14 Z M 136.67 219.11 L 137.64 219.09 C 138.74 219.06 139.61 218.15 139.59 217.05 C 139.56 215.95 138.65 215.08 137.55 215.10 L 136.58 215.12 C 135.48 215.15 134.60 216.06 134.63 217.16 C 134.65 218.26 135.57 219.13 136.67 219.11 Z M 137.63 219.09 L 138.63 219.07 C 139.73 219.05 140.61 218.14 140.59 217.04 C 140.57 215.94 139.66 215.06 138.56 215.08 L 137.56 215.10 C 136.46 215.12 135.58 216.03 135.60 217.13 C 135.62 218.23 136.53 219.11 137.63 219.09 Z M 138.62 219.07 L 139.65 219.06 C 140.75 219.04 141.63 218.14 141.62 217.04 C 141.60 215.93 140.70 215.05 139.59 215.07 L 138.57 215.08 C 137.47 215.09 136.59 216.00 136.60 217.10 C 136.62 218.20 137.52 219.09 138.62 219.07 Z M 139.64 219.06 L 140.66 219.05 C 141.76 219.04 142.65 218.14 142.64 217.03 C 142.63 215.93 141.72 215.05 140.62 215.06 L 139.60 215.06 C 138.50 215.07 137.61 215.98 137.62 217.08 C 137.63 218.18 138.54 219.07 139.64 219.06 Z M 140.65 219.05 L 141.66 219.05 C 142.76 219.04 143.65 218.14 143.65 217.04 C 143.64 215.93 142.74 215.04 141.64 215.05 L 140.63 215.05 C 139.52 215.06 138.63 215.96 138.64 217.07 C 138.65 218.17 139.55 219.06 140.65 219.05 Z M 141.65 219.05 L 142.65 219.05 C 143.76 219.04 144.65 218.14 144.65 217.04 C 144.64 215.93 143.74 215.04 142.64 215.04 L 141.64 215.05 C 140.54 215.05 139.64 215.95 139.65 217.05 C 139.65 218.16 140.55 219.05 141.65 219.05 Z M 142.65 219.05 L 143.64 219.05 C 144.74 219.04 145.64 218.15 145.64 217.04 C 145.63 215.93 144.74 215.04 143.63 215.04 L 142.64 215.04 C 141.54 215.04 140.64 215.94 140.64 217.05 C 140.65 218.15 141.54 219.05 142.65 219.05 Z M 143.63 219.05 L 144.61 219.05 C 145.71 219.05 146.61 218.15 146.61 217.04 C 146.61 215.93 145.71 215.04 144.60 215.04 L 143.63 215.04 C 142.52 215.04 141.63 215.94 141.63 217.04 C 141.63 218.15 142.53 219.05 143.63 219.05 Z M 144.60 219.05 L 145.61 219.05 C 146.71 219.05 147.61 218.15 147.61 217.04 C 147.61 215.93 146.71 215.04 145.61 215.04 L 144.60 215.04 C 143.50 215.04 142.60 215.93 142.60 217.04 C 142.60 218.15 143.50 219.05 144.60 219.05 Z M 145.60 219.05 L 146.64 219.05 C 147.75 219.05 148.65 218.16 148.65 217.05 C 148.66 215.94 147.76 215.04 146.65 215.04 L 145.61 215.03 C 144.50 215.03 143.60 215.93 143.60 217.04 C 143.60 218.15 144.49 219.05 145.60 219.05 Z M 146.63 219.05 L 147.65 219.06 C 148.76 219.07 149.67 218.18 149.68 217.07 C 149.68 215.96 148.79 215.05 147.68 215.04 L 146.66 215.03 C 145.55 215.03 144.65 215.92 144.64 217.03 C 144.63 218.14 145.52 219.05 146.63 219.05 Z M 147.63 219.06 L 148.63 219.08 C 149.74 219.10 150.66 218.21 150.68 217.10 C 150.70 215.99 149.81 215.08 148.70 215.06 L 147.70 215.04 C 146.59 215.02 145.68 215.91 145.66 217.02 C 145.64 218.13 146.52 219.04 147.63 219.06 Z M 148.60 219.08 L 149.59 219.11 C 150.70 219.15 151.63 218.27 151.66 217.16 C 151.70 216.05 150.83 215.12 149.72 215.09 L 148.73 215.06 C 147.62 215.02 146.69 215.89 146.66 217.01 C 146.62 218.12 147.49 219.05 148.60 219.08 Z M 149.55 219.11 L 150.52 219.16 C 151.63 219.22 152.58 218.36 152.63 217.25 C 152.69 216.14 151.83 215.19 150.72 215.14 L 149.75 215.09 C 148.64 215.03 147.70 215.89 147.64 217.00 C 147.58 218.11 148.44 219.06 149.55 219.11 Z M 150.47 219.16 L 151.43 219.23 C 152.54 219.31 153.51 218.48 153.59 217.37 C 153.67 216.26 152.84 215.29 151.73 215.21 L 150.77 215.14 C 149.66 215.06 148.69 215.89 148.61 217.00 C 148.53 218.11 149.36 219.08 150.47 219.16 Z M 151.37 219.23 L 152.38 219.33 C 153.49 219.44 154.48 218.64 154.59 217.53 C 154.70 216.42 153.90 215.43 152.79 215.32 L 151.78 215.21 C 150.67 215.10 149.68 215.91 149.57 217.01 C 149.46 218.12 150.26 219.11 151.37 219.23 Z M 152.33 219.32 L 153.32 219.45 C 154.43 219.59 155.44 218.82 155.58 217.71 C 155.72 216.61 154.95 215.60 153.84 215.45 L 152.84 215.32 C 151.74 215.18 150.73 215.96 150.59 217.06 C 150.44 218.17 151.22 219.18 152.33 219.32 Z M 153.27 219.44 L 154.26 219.59 C 155.36 219.76 156.39 219.01 156.56 217.91 C 156.73 216.81 155.98 215.79 154.88 215.61 L 153.89 215.46 C 152.79 215.29 151.76 216.05 151.59 217.14 C 151.42 218.24 152.18 219.27 153.27 219.44 Z M 154.22 219.59 L 155.20 219.76 C 156.29 219.95 157.34 219.22 157.53 218.13 C 157.72 217.03 156.99 215.99 155.90 215.80 L 154.92 215.62 C 153.82 215.43 152.78 216.16 152.59 217.25 C 152.39 218.35 153.12 219.39 154.22 219.59 Z M 155.16 219.75 L 156.14 219.94 C 157.23 220.15 158.28 219.44 158.50 218.35 C 158.71 217.26 158.00 216.21 156.91 215.99 L 155.93 215.80 C 154.84 215.59 153.79 216.30 153.58 217.39 C 153.36 218.48 154.07 219.54 155.16 219.75 Z M 156.11 219.93 L 157.08 220.14 C 158.17 220.37 159.23 219.67 159.46 218.58 C 159.69 217.50 158.99 216.43 157.91 216.21 L 156.94 216.00 C 155.85 215.77 154.79 216.47 154.56 217.55 C 154.33 218.64 155.02 219.71 156.11 219.93 Z M 157.06 220.13 L 158.01 220.34 C 159.09 220.58 160.16 219.90 160.40 218.81 C 160.64 217.73 159.96 216.66 158.87 216.42 L 157.93 216.21 C 156.85 215.97 155.77 216.66 155.53 217.74 C 155.30 218.82 155.98 219.89 157.06 220.13 Z M 157.99 220.33 L 158.94 220.55 C 160.02 220.80 161.09 220.13 161.34 219.05 C 161.59 217.97 160.92 216.90 159.84 216.65 L 158.89 216.43 C 157.81 216.18 156.73 216.85 156.49 217.93 C 156.24 219.01 156.91 220.09 157.99 220.33 Z M 158.92 220.55 L 159.88 220.78 C 160.96 221.03 162.04 220.37 162.30 219.29 C 162.55 218.22 161.89 217.14 160.81 216.88 L 159.85 216.65 C 158.78 216.40 157.70 217.06 157.44 218.14 C 157.18 219.21 157.85 220.29 158.92 220.55 Z M 159.87 220.77 L 160.85 221.01 C 161.92 221.27 163.00 220.61 163.26 219.54 C 163.53 218.47 162.87 217.38 161.79 217.12 L 160.82 216.88 C 159.75 216.62 158.67 217.28 158.40 218.35 C 158.14 219.43 158.80 220.51 159.87 220.77 Z M 160.84 221.01 L 161.83 221.25 C 162.90 221.52 163.99 220.86 164.25 219.79 C 164.52 218.72 163.86 217.64 162.79 217.37 L 161.80 217.13 C 160.73 216.86 159.64 217.51 159.38 218.59 C 159.11 219.66 159.77 220.74 160.84 221.01 Z M 161.83 221.25 L 162.84 221.50 C 163.91 221.77 164.99 221.12 165.26 220.05 C 165.53 218.98 164.88 217.89 163.81 217.63 L 162.79 217.37 C 161.72 217.11 160.64 217.76 160.37 218.83 C 160.11 219.90 160.76 220.98 161.83 221.25 Z M 162.84 221.50 L 163.80 221.74 C 164.87 222.01 165.96 221.36 166.22 220.29 C 166.49 219.22 165.84 218.14 164.77 217.87 L 163.81 217.63 C 162.74 217.36 161.66 218.01 161.39 219.08 C 161.12 220.15 161.77 221.23 162.84 221.50 Z M 163.80 221.74 L 164.77 221.98 C 165.84 222.25 166.92 221.60 167.19 220.53 C 167.46 219.47 166.81 218.38 165.74 218.12 L 164.77 217.87 C 163.71 217.60 162.62 218.25 162.36 219.32 C 162.09 220.39 162.74 221.47 163.80 221.74 Z M 164.77 221.98 L 165.75 222.23 C 166.82 222.49 167.90 221.85 168.17 220.78 C 168.44 219.72 167.79 218.64 166.73 218.37 L 165.75 218.12 C 164.68 217.85 163.60 218.50 163.33 219.56 C 163.06 220.63 163.71 221.71 164.77 221.98 Z M 165.75 222.22 L 166.73 222.47 C 167.79 222.74 168.87 222.10 169.15 221.04 C 169.42 219.98 168.78 218.89 167.71 218.62 L 166.73 218.37 C 165.67 218.10 164.58 218.74 164.31 219.80 C 164.04 220.87 164.68 221.95 165.75 222.22 Z M 166.72 222.47 L 167.70 222.72 C 168.76 223.00 169.84 222.36 170.12 221.30 C 170.39 220.24 169.76 219.15 168.70 218.88 L 167.72 218.63 C 166.66 218.35 165.57 218.99 165.30 220.05 C 165.02 221.11 165.66 222.19 166.72 222.47 Z M 167.69 222.72 L 168.65 222.97 C 169.71 223.25 170.80 222.62 171.08 221.56 C 171.36 220.50 170.73 219.42 169.67 219.14 L 168.70 218.88 C 167.65 218.60 166.56 219.23 166.28 220.29 C 166.00 221.35 166.63 222.44 167.69 222.72 Z M 168.64 222.97 L 169.60 223.23 C 170.65 223.51 171.74 222.89 172.03 221.83 C 172.32 220.78 171.69 219.69 170.64 219.40 L 169.68 219.14 C 168.62 218.86 167.54 219.48 167.25 220.54 C 166.96 221.59 167.59 222.68 168.64 222.97 Z M 169.59 223.22 L 170.59 223.50 C 171.64 223.79 172.73 223.18 173.03 222.13 C 173.32 221.08 172.70 219.98 171.65 219.69 L 170.65 219.41 C 169.60 219.12 168.51 219.73 168.21 220.78 C 167.92 221.84 168.53 222.93 169.59 223.22 Z M 170.57 223.49 L 171.55 223.77 C 172.60 224.08 173.69 223.47 174.00 222.42 C 174.30 221.38 173.69 220.28 172.64 219.98 L 171.67 219.70 C 170.62 219.40 169.53 220.00 169.22 221.05 C 168.92 222.10 169.53 223.19 170.57 223.49 Z M 171.54 223.77 L 172.50 224.05 C 173.54 224.36 174.64 223.76 174.95 222.72 C 175.25 221.68 174.66 220.58 173.62 220.27 L 172.66 219.99 C 171.62 219.68 170.52 220.27 170.21 221.32 C 169.90 222.36 170.49 223.46 171.54 223.77 Z M 172.48 224.04 L 173.42 224.33 C 174.46 224.65 175.56 224.06 175.88 223.02 C 176.20 221.98 175.61 220.88 174.57 220.57 L 173.63 220.28 C 172.59 219.96 171.49 220.55 171.17 221.59 C 170.86 222.63 171.44 223.73 172.48 224.04 Z M 173.41 224.32 L 174.34 224.61 C 175.38 224.94 176.48 224.36 176.80 223.33 C 177.13 222.29 176.55 221.19 175.52 220.87 L 174.59 220.57 C 173.55 220.25 172.45 220.83 172.12 221.86 C 171.80 222.90 172.38 224.00 173.41 224.32 Z M 174.33 224.61 L 175.26 224.90 C 176.29 225.24 177.39 224.67 177.72 223.64 C 178.05 222.61 177.49 221.50 176.46 221.17 L 175.53 220.87 C 174.50 220.54 173.39 221.11 173.06 222.14 C 172.73 223.17 173.30 224.27 174.33 224.61 Z M 175.24 224.90 L 176.20 225.21 C 177.23 225.55 178.33 224.99 178.67 223.97 C 179.01 222.94 178.45 221.83 177.42 221.49 L 176.47 221.18 C 175.44 220.84 174.33 221.40 173.99 222.43 C 173.66 223.45 174.21 224.56 175.24 224.90 Z M 176.19 225.21 L 177.14 225.53 C 178.17 225.88 179.28 225.33 179.62 224.30 C 179.97 223.27 179.42 222.16 178.39 221.82 L 177.44 221.49 C 176.41 221.15 175.30 221.70 174.95 222.73 C 174.61 223.75 175.16 224.87 176.19 225.21 Z M 177.13 225.53 L 178.08 225.86 C 179.10 226.21 180.22 225.66 180.57 224.64 C 180.93 223.61 180.38 222.49 179.35 222.14 L 178.40 221.82 C 177.38 221.46 176.26 222.01 175.91 223.04 C 175.56 224.06 176.10 225.18 177.13 225.53 Z M 178.07 225.86 L 179.01 226.19 C 180.04 226.54 181.16 226.00 181.52 224.98 C 181.87 223.95 181.33 222.83 180.31 222.47 L 179.36 222.14 C 178.34 221.79 177.22 222.33 176.86 223.35 C 176.50 224.38 177.04 225.50 178.07 225.86 Z M 179.00 226.19 L 179.94 226.52 C 180.96 226.88 182.09 226.34 182.45 225.32 C 182.82 224.30 182.28 223.17 181.26 222.81 L 180.32 222.48 C 179.29 222.11 178.17 222.65 177.81 223.67 C 177.44 224.70 177.98 225.82 179.00 226.19 Z M 179.93 226.52 L 180.86 226.85 C 181.89 227.22 183.01 226.69 183.38 225.66 C 183.75 224.64 183.22 223.51 182.20 223.14 L 181.26 222.81 C 180.24 222.44 179.11 222.97 178.74 224.00 C 178.38 225.02 178.91 226.15 179.93 226.52 Z M 180.86 226.85 L 181.83 227.20 C 182.85 227.57 183.98 227.05 184.35 226.02 C 184.72 225.00 184.20 223.88 183.18 223.50 L 182.20 223.15 C 181.18 222.78 180.05 223.30 179.68 224.32 C 179.31 225.34 179.83 226.47 180.86 226.85 Z M 181.82 227.19 L 182.78 227.54 C 183.79 227.92 184.92 227.40 185.30 226.39 C 185.67 225.37 185.16 224.25 184.14 223.87 L 183.18 223.51 C 182.17 223.14 181.04 223.66 180.66 224.67 C 180.29 225.68 180.81 226.81 181.82 227.19 Z M 182.77 227.53 L 183.71 227.89 C 184.72 228.27 185.84 227.76 186.23 226.76 C 186.61 225.75 186.10 224.62 185.09 224.24 L 184.15 223.88 C 183.14 223.50 182.02 224.01 181.63 225.01 C 181.25 226.02 181.76 227.15 182.77 227.53 Z M 183.69 227.88 L 184.62 228.24 C 185.62 228.63 186.75 228.13 187.14 227.13 C 187.53 226.13 187.03 225.00 186.03 224.61 L 185.11 224.25 C 184.11 223.86 182.98 224.36 182.59 225.36 C 182.20 226.36 182.69 227.49 183.69 227.88 Z M 184.60 228.22 L 185.50 228.58 C 186.49 228.98 187.62 228.50 188.02 227.51 C 188.42 226.52 187.94 225.39 186.95 224.99 L 186.05 224.63 C 185.05 224.23 183.92 224.71 183.52 225.70 C 183.12 226.69 183.61 227.82 184.60 228.22 Z M 185.48 228.57 L 186.40 228.95 C 187.39 229.37 188.52 228.90 188.93 227.92 C 189.34 226.94 188.88 225.80 187.89 225.39 L 186.97 225.00 C 185.98 224.59 184.85 225.06 184.44 226.04 C 184.03 227.02 184.49 228.15 185.48 228.57 Z M 186.38 228.94 L 187.34 229.35 C 188.31 229.78 189.44 229.33 189.87 228.36 C 190.29 227.39 189.85 226.25 188.88 225.83 L 187.92 225.41 C 186.94 224.99 185.81 225.43 185.39 226.40 C 184.96 227.38 185.41 228.51 186.38 228.94 Z M 187.31 229.34 L 188.24 229.76 C 189.20 230.19 190.34 229.77 190.77 228.80 C 191.21 227.84 190.79 226.71 189.82 226.27 L 188.90 225.85 C 187.94 225.41 186.80 225.84 186.36 226.80 C 185.92 227.76 186.35 228.90 187.31 229.34 Z M 188.22 229.74 L 189.11 230.16 C 190.06 230.61 191.20 230.20 191.65 229.24 C 192.10 228.29 191.69 227.15 190.74 226.71 L 189.84 226.29 C 188.89 225.84 187.75 226.25 187.31 227.20 C 186.86 228.15 187.27 229.29 188.22 229.74 Z M 189.09 230.14 L 189.95 230.56 C 190.90 231.02 192.03 230.62 192.49 229.68 C 192.95 228.74 192.56 227.60 191.61 227.14 L 190.75 226.72 C 189.81 226.26 188.67 226.66 188.21 227.60 C 187.76 228.54 188.15 229.68 189.09 230.14 Z M 189.94 230.54 L 190.82 230.99 C 191.76 231.45 192.89 231.07 193.36 230.14 C 193.83 229.21 193.45 228.07 192.52 227.60 L 191.63 227.16 C 190.70 226.69 189.56 227.07 189.09 228.00 C 188.62 228.94 189.00 230.07 189.94 230.54 Z M 190.81 230.97 L 191.71 231.44 C 192.64 231.92 193.78 231.55 194.25 230.63 C 194.73 229.70 194.37 228.56 193.44 228.09 L 192.53 227.62 C 191.61 227.14 190.47 227.50 189.99 228.43 C 189.52 229.35 189.88 230.49 190.81 230.97 Z M 191.69 231.42 L 192.57 231.89 C 193.49 232.38 194.63 232.03 195.12 231.12 C 195.60 230.20 195.26 229.06 194.34 228.57 L 193.46 228.11 C 192.55 227.62 191.41 227.96 190.92 228.88 C 190.43 229.79 190.78 230.93 191.69 231.42 Z M 192.55 231.87 L 193.41 232.34 C 194.31 232.85 195.45 232.52 195.95 231.61 C 196.45 230.71 196.13 229.57 195.22 229.07 L 194.36 228.59 C 193.46 228.09 192.32 228.42 191.82 229.32 C 191.32 230.23 191.65 231.37 192.55 231.87 Z M 193.39 232.32 L 194.24 232.81 C 195.13 233.33 196.27 233.02 196.79 232.13 C 197.30 231.23 196.99 230.09 196.10 229.58 L 195.24 229.09 C 194.35 228.57 193.21 228.88 192.70 229.78 C 192.18 230.67 192.49 231.81 193.39 232.32 Z M 194.21 232.79 L 195.11 233.33 C 195.99 233.85 197.13 233.57 197.66 232.68 C 198.19 231.80 197.90 230.66 197.01 230.13 L 196.12 229.60 C 195.24 229.07 194.10 229.36 193.57 230.24 C 193.04 231.13 193.33 232.27 194.21 232.79 Z M 195.08 233.31 L 195.95 233.84 C 196.82 234.38 197.97 234.11 198.51 233.24 C 199.05 232.37 198.78 231.23 197.91 230.69 L 197.04 230.15 C 196.17 229.61 195.02 229.88 194.48 230.75 C 193.94 231.62 194.21 232.77 195.08 233.31 Z M 195.93 233.82 L 196.76 234.36 C 197.62 234.91 198.77 234.66 199.32 233.80 C 199.87 232.94 199.62 231.79 198.76 231.24 L 197.93 230.71 C 197.07 230.16 195.92 230.41 195.37 231.27 C 194.82 232.13 195.07 233.27 195.93 233.82 Z M 196.74 234.34 L 197.54 234.87 C 198.39 235.43 199.53 235.20 200.09 234.35 C 200.66 233.50 200.43 232.36 199.58 231.80 L 198.78 231.26 C 197.93 230.70 196.79 230.93 196.22 231.78 C 195.66 232.63 195.89 233.77 196.74 234.34 Z M 197.51 234.84 L 198.38 235.44 C 199.22 236.02 200.36 235.81 200.94 234.98 C 201.52 234.14 201.31 233.00 200.47 232.42 L 199.60 231.82 C 198.77 231.24 197.62 231.45 197.05 232.29 C 196.47 233.12 196.68 234.27 197.51 234.84 Z M 198.37 235.43 L 199.17 236.00 C 200.00 236.59 201.14 236.39 201.73 235.57 C 202.31 234.74 202.12 233.60 201.30 233.01 L 200.49 232.44 C 199.67 231.85 198.52 232.05 197.94 232.87 C 197.35 233.69 197.54 234.84 198.37 235.43 Z M 199.17 235.99 L 199.94 236.54 C 200.76 237.13 201.90 236.94 202.49 236.12 C 203.08 235.30 202.89 234.16 202.07 233.57 L 201.30 233.02 C 200.48 232.43 199.34 232.62 198.75 233.44 C 198.16 234.26 198.35 235.40 199.17 235.99 Z M 199.96 236.55 L 200.77 237.12 C 201.59 237.70 202.72 237.50 203.30 236.68 C 203.88 235.86 203.68 234.72 202.86 234.14 L 202.05 233.57 C 201.23 232.99 200.10 233.19 199.52 234.01 C 198.94 234.83 199.14 235.97 199.96 236.55 Z M 200.79 237.12 L 201.61 237.69 C 202.43 238.26 203.56 238.05 204.13 237.22 C 204.70 236.40 204.49 235.27 203.66 234.70 L 202.84 234.14 C 202.02 233.57 200.89 233.78 200.32 234.60 C 199.75 235.42 199.96 236.55 200.79 237.12 Z M 201.63 237.69 L 202.46 238.25 C 203.28 238.81 204.40 238.59 204.96 237.77 C 205.52 236.94 205.30 235.82 204.48 235.26 L 203.65 234.70 C 202.82 234.14 201.70 234.36 201.14 235.18 C 200.58 236.01 200.80 237.13 201.63 237.69 Z M 202.47 238.25 L 203.29 238.80 C 204.12 239.35 205.24 239.12 205.79 238.30 C 206.34 237.47 206.11 236.35 205.28 235.80 L 204.46 235.26 C 203.63 234.71 202.52 234.93 201.97 235.76 C 201.42 236.59 201.64 237.70 202.47 238.25 Z M 203.31 238.80 L 204.15 239.34 C 204.97 239.88 206.08 239.65 206.62 238.82 C 207.16 237.99 206.93 236.88 206.10 236.34 L 205.26 235.80 C 204.44 235.26 203.33 235.50 202.79 236.33 C 202.25 237.15 202.48 238.26 203.31 238.80 Z M 204.17 239.35 L 205.02 239.89 C 205.85 240.42 206.95 240.17 207.48 239.34 C 208.01 238.51 207.76 237.41 206.93 236.88 L 206.08 236.34 C 205.25 235.81 204.14 236.06 203.62 236.89 C 203.09 237.72 203.34 238.82 204.17 239.35 Z M 205.04 239.89 L 205.90 240.42 C 206.73 240.93 207.82 240.68 208.33 239.84 C 208.85 239.01 208.59 237.92 207.76 237.40 L 206.91 236.88 C 206.07 236.36 204.98 236.62 204.47 237.45 C 203.95 238.29 204.21 239.38 205.04 239.89 Z M 205.92 240.42 L 206.77 240.94 C 207.61 241.44 208.69 241.17 209.19 240.33 C 209.70 239.50 209.43 238.41 208.59 237.91 L 207.74 237.40 C 206.90 236.90 205.82 237.17 205.31 238.00 C 204.81 238.84 205.08 239.92 205.92 240.42 Z M 206.80 240.94 L 207.66 241.45 C 208.50 241.94 209.57 241.66 210.06 240.82 C 210.55 239.98 210.27 238.91 209.44 238.42 L 208.57 237.91 C 207.73 237.42 206.66 237.70 206.17 238.54 C 205.68 239.37 205.96 240.45 206.80 240.94 Z M 207.68 241.45 L 208.55 241.94 C 209.39 242.42 210.45 242.13 210.93 241.30 C 211.41 240.46 211.12 239.39 210.28 238.91 L 209.42 238.42 C 208.58 237.94 207.51 238.23 207.03 239.07 C 206.56 239.90 206.85 240.97 207.68 241.45 Z M 208.57 241.94 L 209.42 242.42 C 210.26 242.89 211.32 242.59 211.79 241.75 C 212.25 240.92 211.96 239.86 211.12 239.39 L 210.26 238.91 C 209.43 238.45 208.37 238.74 207.90 239.58 C 207.43 240.42 207.73 241.48 208.57 241.94 Z M 209.44 242.42 L 210.31 242.90 C 211.15 243.36 212.20 243.05 212.65 242.22 C 213.11 241.38 212.81 240.33 211.97 239.87 L 211.10 239.39 C 210.27 238.93 209.22 239.24 208.76 240.07 C 208.30 240.91 208.60 241.96 209.44 242.42 Z M 210.32 242.89 L 211.22 243.38 C 212.06 243.83 213.10 243.53 213.55 242.69 C 214.00 241.86 213.69 240.82 212.86 240.37 L 211.96 239.88 C 211.13 239.43 210.09 239.73 209.64 240.57 C 209.18 241.40 209.49 242.44 210.32 242.89 Z M 211.23 243.37 L 212.12 243.85 C 212.95 244.30 213.98 243.99 214.43 243.17 C 214.88 242.34 214.57 241.30 213.74 240.85 L 212.85 240.38 C 212.03 239.93 210.99 240.24 210.54 241.06 C 210.10 241.89 210.40 242.93 211.23 243.37 Z M 212.13 243.85 L 213.02 244.33 C 213.85 244.77 214.88 244.46 215.32 243.63 C 215.76 242.81 215.45 241.78 214.62 241.34 L 213.73 240.86 C 212.90 240.42 211.88 240.73 211.44 241.55 C 210.99 242.38 211.30 243.41 212.13 243.85 Z M 213.04 244.32 L 213.93 244.79 C 214.75 245.23 215.77 244.91 216.20 244.09 C 216.64 243.27 216.32 242.25 215.50 241.81 L 214.61 241.34 C 213.79 240.91 212.77 241.23 212.33 242.05 C 211.90 242.87 212.22 243.89 213.04 244.32 Z M 213.95 244.79 L 214.81 245.24 C 215.63 245.66 216.64 245.34 217.06 244.52 C 217.49 243.69 217.17 242.69 216.34 242.26 L 215.48 241.82 C 214.66 241.39 213.65 241.72 213.23 242.54 C 212.80 243.36 213.13 244.37 213.95 244.79 Z M 214.83 245.24 L 215.67 245.66 C 216.49 246.07 217.49 245.73 217.90 244.91 C 218.31 244.09 217.98 243.09 217.16 242.68 L 216.32 242.26 C 215.50 241.85 214.50 242.18 214.09 243.00 C 213.68 243.83 214.01 244.83 214.83 245.24 Z M 215.69 245.65 L 216.54 246.07 C 217.36 246.48 218.35 246.14 218.76 245.32 C 219.16 244.50 218.82 243.51 218.00 243.10 L 217.14 242.68 C 216.32 242.28 215.33 242.62 214.93 243.44 C 214.53 244.26 214.87 245.25 215.69 245.65 Z M 216.55 246.07 L 217.49 246.52 C 218.31 246.92 219.29 246.58 219.69 245.77 C 220.09 244.95 219.75 243.97 218.93 243.57 L 217.99 243.11 C 217.18 242.71 216.19 243.05 215.79 243.87 C 215.40 244.68 215.73 245.67 216.55 246.07 Z M 217.49 246.51 L 218.36 246.94 C 219.17 247.34 220.15 247.01 220.55 246.20 C 220.95 245.39 220.62 244.41 219.80 244.01 L 218.93 243.58 C 218.12 243.18 217.14 243.52 216.74 244.33 C 216.34 245.14 216.68 246.12 217.49 246.51 Z M 218.36 246.93 L 219.14 247.32 C 219.95 247.72 220.93 247.40 221.33 246.59 C 221.73 245.78 221.40 244.81 220.59 244.41 L 219.81 244.02 C 219.00 243.62 218.03 243.95 217.63 244.75 C 217.23 245.56 217.55 246.53 218.36 246.93 Z M 219.14 247.32 L 219.99 247.74 C 220.79 248.15 221.77 247.82 222.17 247.02 C 222.57 246.22 222.25 245.25 221.45 244.84 L 220.60 244.42 C 219.80 244.01 218.82 244.34 218.42 245.14 C 218.02 245.94 218.34 246.91 219.14 247.32 Z M 219.99 247.73 L 220.90 248.20 C 221.70 248.60 222.67 248.29 223.08 247.49 C 223.48 246.70 223.16 245.72 222.37 245.32 L 221.45 244.85 C 220.66 244.45 219.68 244.76 219.28 245.56 C 218.87 246.36 219.19 247.33 219.99 247.73 Z M 220.89 248.19 L 221.87 248.69 C 222.66 249.10 223.63 248.79 224.04 248.00 C 224.45 247.21 224.14 246.24 223.35 245.83 L 222.37 245.33 C 221.58 244.92 220.61 245.23 220.20 246.02 C 219.79 246.81 220.10 247.78 220.89 248.19 Z M 221.86 248.68 L 222.88 249.22 C 223.66 249.63 224.63 249.32 225.04 248.54 C 225.46 247.75 225.15 246.78 224.37 246.37 L 223.35 245.84 C 222.57 245.43 221.60 245.73 221.18 246.51 C 220.77 247.30 221.07 248.27 221.86 248.68 Z M 222.87 249.21 L 223.69 249.64 C 224.48 250.06 225.44 249.76 225.86 248.98 C 226.27 248.20 225.98 247.23 225.20 246.82 L 224.37 246.38 C 223.59 245.97 222.62 246.26 222.21 247.04 C 221.79 247.82 222.09 248.79 222.87 249.21 Z M 223.69 249.64 L 224.54 250.09 C 225.32 250.51 226.28 250.22 226.70 249.44 C 227.12 248.67 226.83 247.70 226.05 247.28 L 225.20 246.83 C 224.43 246.41 223.46 246.70 223.04 247.48 C 222.63 248.25 222.92 249.22 223.69 249.64 Z M 224.54 250.09 L 225.41 250.56 C 226.18 250.98 227.14 250.69 227.56 249.92 C 227.98 249.15 227.70 248.18 226.92 247.76 L 226.05 247.29 C 225.28 246.87 224.32 247.16 223.90 247.93 C 223.48 248.70 223.77 249.67 224.54 250.09 Z M 225.41 250.55 L 226.29 251.03 C 227.06 251.45 228.02 251.17 228.44 250.40 C 228.86 249.64 228.58 248.67 227.81 248.25 L 226.92 247.77 C 226.16 247.35 225.20 247.63 224.78 248.40 C 224.36 249.17 224.64 250.13 225.41 250.55 Z M 226.29 251.03 L 227.19 251.52 C 227.96 251.94 228.92 251.66 229.34 250.90 C 229.75 250.13 229.47 249.17 228.71 248.75 L 227.81 248.26 C 227.05 247.84 226.09 248.12 225.67 248.89 C 225.25 249.65 225.53 250.61 226.29 251.03 Z M 227.19 251.52 L 228.10 252.01 C 228.86 252.43 229.82 252.16 230.24 251.39 C 230.66 250.63 230.38 249.68 229.62 249.26 L 228.71 248.76 C 227.95 248.34 226.99 248.62 226.57 249.38 C 226.16 250.14 226.43 251.10 227.19 251.52 Z M 228.10 252.01 L 229.01 252.51 C 229.77 252.93 230.73 252.65 231.14 251.89 C 231.56 251.14 231.28 250.18 230.53 249.77 L 229.61 249.26 C 228.86 248.85 227.90 249.12 227.49 249.88 C 227.07 250.64 227.34 251.59 228.10 252.01 Z M 229.02 252.51 L 229.08 252.54 C 229.83 252.96 230.79 252.68 231.20 251.93 C 231.62 251.17 231.34 250.22 230.59 249.80 L 230.53 249.77 C 229.77 249.35 228.82 249.63 228.40 250.38 C 227.98 251.14 228.26 252.09 229.02 252.51 Z"
      fill="black"
      fill-rule="nonzero" /></svg>