<svg xmlns="http://www.w3.org/2000/svg" width="300" height="300" viewBox="0 0 300 300">
<path d="M 146.09 155.20 L 145.75 156.14 C 145.42 157.01 145.87 157.99 146.75 158.31 C 147.63 158.63 148.60 158.18 148.92 157.31 L 149.27 156.38 C 149.59 155.50 149.14 154.53 148.26 154.20 C 147.39 153.88 146.41 154.33 146.09 155.20 Z M 145.73 156.19 L 145.42 157.13 C 145.12 158.02 145.60 158.98 146.49 159.27 C 147.38 159.57 148.33 159.09 148.63 158.20 L 148.94 157.26 C 149.24 156.37 148.76 155.41 147.87 155.12 C 146.98 154.82 146.02 155.30 145.73 156.19 Z M 145.38 157.24 L 145.13 158.21 C 144.89 159.11 145.44 160.04 146.34 160.28 C 147.24 160.51 148.17 159.97 148.41 159.07 L 148.66 158.09 C 148.90 157.19 148.36 156.26 147.45 156.03 C 146.55 155.79 145.62 156.33 145.38 157.24 Z M 145.10 158.36 L 144.94 159.29 C 144.79 160.22 145.41 161.09 146.33 161.24 C 147.25 161.40 148.12 160.78 148.28 159.86 L 148.44 158.92 C 148.59 158.00 147.97 157.12 147.05 156.97 C 146.13 156.81 145.25 157.44 145.10 158.36 Z M 144.93 159.43 L 144.85 160.37 C 144.77 161.30 145.46 162.11 146.39 162.19 C 147.32 162.27 148.14 161.58 148.22 160.65 L 148.29 159.72 C 148.37 158.79 147.68 157.97 146.75 157.89 C 145.82 157.81 145.01 158.50 144.93 159.43 Z M 144.85 160.46 L 144.82 161.46 C 144.79 162.39 145.52 163.16 146.45 163.19 C 147.38 163.22 148.16 162.48 148.19 161.55 L 148.22 160.56 C 148.24 159.63 147.51 158.85 146.58 158.82 C 145.65 158.80 144.87 159.53 144.85 160.46 Z M 144.82 161.51 L 144.82 162.59 C 144.83 163.52 145.58 164.27 146.51 164.27 C 147.44 164.26 148.19 163.51 148.19 162.58 L 148.19 161.50 C 148.18 160.57 147.43 159.82 146.50 159.82 C 145.57 159.82 144.82 160.58 144.82 161.51 Z M 144.82 162.61 L 144.84 163.82 C 144.85 164.75 145.61 165.49 146.55 165.48 C 147.48 165.47 148.22 164.70 148.21 163.77 L 148.19 162.56 C 148.18 161.63 147.41 160.88 146.48 160.90 C 145.55 160.91 144.81 161.67 144.82 162.61 Z M 144.82 163.79 L 144.81 164.99 C 144.81 165.93 145.57 166.70 146.51 166.70 C 147.45 166.71 148.22 165.95 148.22 165.01 L 148.23 163.80 C 148.23 162.86 147.47 162.09 146.53 162.09 C 145.59 162.09 144.82 162.85 144.82 163.79 Z M 144.80 164.88 L 144.73 165.87 C 144.66 166.82 145.38 167.64 146.33 167.71 C 147.28 167.78 148.10 167.06 148.17 166.11 L 148.24 165.12 C 148.31 164.17 147.59 163.35 146.64 163.28 C 145.69 163.21 144.87 163.93 144.80 164.88 Z M 144.78 165.47 L 144.60 166.05 C 144.32 166.97 144.83 167.95 145.75 168.24 C 146.67 168.52 147.65 168.01 147.94 167.09 L 148.12 166.51 C 148.40 165.59 147.89 164.61 146.97 164.33 C 146.05 164.04 145.07 164.55 144.78 165.47 Z M 146.67 164.85 L 146.19 164.74 C 145.23 164.52 144.29 165.11 144.07 166.06 C 143.84 167.01 144.44 167.96 145.39 168.18 L 145.87 168.29 C 146.82 168.51 147.77 167.92 147.99 166.97 C 148.21 166.02 147.62 165.07 146.67 164.85 Z M 147.29 165.49 L 146.70 164.56 C 146.16 163.73 145.05 163.49 144.22 164.03 C 143.39 164.56 143.15 165.67 143.68 166.51 L 144.28 167.43 C 144.82 168.26 145.93 168.50 146.76 167.97 C 147.59 167.43 147.83 166.32 147.29 165.49 Z M 146.88 164.86 L 146.43 163.76 C 146.06 162.83 145.00 162.37 144.07 162.75 C 143.14 163.12 142.69 164.18 143.06 165.11 L 143.51 166.21 C 143.88 167.14 144.94 167.59 145.87 167.22 C 146.80 166.85 147.25 165.79 146.88 164.86 Z M 146.52 163.97 L 146.27 163.04 C 146.02 162.06 145.02 161.48 144.04 161.74 C 143.06 161.99 142.48 162.99 142.74 163.97 L 142.98 164.90 C 143.24 165.87 144.24 166.45 145.21 166.20 C 146.19 165.94 146.77 164.94 146.52 163.97 Z M 146.31 163.20 L 146.15 162.22 C 145.98 161.22 145.04 160.55 144.04 160.72 C 143.04 160.89 142.36 161.83 142.53 162.83 L 142.70 163.81 C 142.86 164.81 143.81 165.48 144.81 165.31 C 145.81 165.15 146.48 164.20 146.31 163.20 Z M 146.17 162.35 L 146.07 161.32 C 145.98 160.30 145.08 159.56 144.07 159.66 C 143.06 159.76 142.31 160.65 142.41 161.67 L 142.51 162.70 C 142.61 163.71 143.50 164.45 144.52 164.36 C 145.53 164.26 146.27 163.36 146.17 162.35 Z M 146.09 161.41 L 146.04 160.38 C 146.00 159.37 145.13 158.58 144.12 158.62 C 143.10 158.67 142.31 159.53 142.35 160.55 L 142.40 161.57 C 142.44 162.59 143.31 163.38 144.32 163.33 C 145.34 163.29 146.13 162.43 146.09 161.41 Z M 146.04 160.47 L 146.05 159.46 C 146.05 158.44 145.23 157.61 144.21 157.61 C 143.19 157.60 142.36 158.42 142.35 159.45 L 142.35 160.46 C 142.34 161.48 143.17 162.31 144.19 162.31 C 145.21 162.32 146.04 161.49 146.04 160.47 Z M 146.05 159.58 L 146.11 158.56 C 146.18 157.54 145.41 156.66 144.39 156.59 C 143.37 156.53 142.49 157.30 142.42 158.32 L 142.36 159.33 C 142.29 160.35 143.06 161.23 144.08 161.30 C 145.10 161.37 145.98 160.60 146.05 159.58 Z M 146.10 158.71 L 146.25 157.73 C 146.40 156.72 145.70 155.78 144.69 155.62 C 143.68 155.47 142.74 156.17 142.59 157.18 L 142.44 158.16 C 142.29 159.17 142.98 160.12 143.99 160.27 C 145.00 160.42 145.95 159.73 146.10 158.71 Z M 146.21 157.93 L 146.46 156.99 C 146.72 156.00 146.14 154.98 145.15 154.72 C 144.16 154.46 143.15 155.04 142.88 156.03 L 142.63 156.98 C 142.37 157.96 142.95 158.98 143.94 159.24 C 144.93 159.51 145.94 158.92 146.21 157.93 Z M 146.37 157.25 L 146.76 156.36 C 147.17 155.42 146.74 154.32 145.81 153.91 C 144.87 153.50 143.78 153.93 143.37 154.87 L 142.97 155.76 C 142.56 156.70 142.99 157.80 143.93 158.21 C 144.86 158.62 145.96 158.19 146.37 157.25 Z M 146.59 156.66 L 147.14 155.86 C 147.72 155.02 147.50 153.86 146.66 153.28 C 145.81 152.70 144.66 152.92 144.08 153.77 L 143.53 154.56 C 142.95 155.41 143.17 156.56 144.01 157.14 C 144.86 157.72 146.02 157.51 146.59 156.66 Z M 146.90 156.16 L 147.62 155.46 C 148.36 154.75 148.38 153.58 147.67 152.84 C 146.96 152.09 145.79 152.07 145.05 152.78 L 144.32 153.47 C 143.58 154.18 143.56 155.36 144.27 156.10 C 144.98 156.84 146.15 156.87 146.90 156.16 Z M 147.33 155.69 L 148.21 155.13 C 149.08 154.58 149.34 153.43 148.79 152.56 C 148.23 151.70 147.08 151.44 146.22 151.99 L 145.33 152.55 C 144.47 153.10 144.21 154.25 144.76 155.12 C 145.31 155.99 146.46 156.24 147.33 155.69 Z M 147.95 155.27 L 148.91 154.86 C 149.85 154.45 150.29 153.35 149.88 152.41 C 149.47 151.47 148.37 151.03 147.43 151.44 L 146.48 151.85 C 145.53 152.26 145.10 153.36 145.51 154.30 C 145.91 155.24 147.01 155.68 147.95 155.27 Z M 148.68 154.94 L 149.70 154.64 C 150.69 154.36 151.26 153.33 150.98 152.34 C 150.69 151.35 149.66 150.78 148.67 151.07 L 147.66 151.36 C 146.67 151.64 146.10 152.67 146.38 153.66 C 146.66 154.65 147.70 155.22 148.68 154.94 Z M 149.46 154.70 L 150.47 154.55 C 151.48 154.40 152.18 153.45 152.03 152.43 C 151.88 151.41 150.93 150.71 149.92 150.86 L 148.91 151.01 C 147.90 151.17 147.19 152.11 147.35 153.13 C 147.50 154.15 148.45 154.85 149.46 154.70 Z M 150.16 154.57 L 151.07 154.58 C 152.10 154.60 152.95 153.78 152.96 152.75 C 152.98 151.73 152.16 150.88 151.14 150.86 L 150.22 150.84 C 149.20 150.83 148.35 151.65 148.33 152.67 C 148.31 153.70 149.13 154.55 150.16 154.57 Z M 150.55 154.50 L 151.49 154.79 C 152.47 155.09 153.51 154.54 153.81 153.56 C 154.12 152.58 153.57 151.54 152.59 151.24 L 151.65 150.95 C 150.67 150.64 149.63 151.19 149.33 152.17 C 149.02 153.15 149.57 154.19 150.55 154.50 Z M 150.85 154.44 L 151.57 155.04 C 152.36 155.70 153.53 155.59 154.18 154.80 C 154.84 154.01 154.73 152.84 153.95 152.19 L 153.23 151.59 C 152.44 150.93 151.27 151.03 150.61 151.82 C 149.95 152.61 150.06 153.78 150.85 154.44 Z M 151.19 154.60 L 151.72 155.44 C 152.27 156.31 153.41 156.56 154.28 156.02 C 155.14 155.47 155.40 154.32 154.85 153.46 L 154.32 152.62 C 153.78 151.76 152.63 151.50 151.77 152.04 C 150.90 152.59 150.64 153.74 151.19 154.60 Z M 151.58 155.17 L 151.98 156.11 C 152.38 157.05 153.46 157.49 154.41 157.10 C 155.35 156.70 155.79 155.61 155.39 154.67 L 154.99 153.73 C 154.59 152.79 153.51 152.34 152.56 152.74 C 151.62 153.14 151.18 154.23 151.58 155.17 Z M 151.93 155.97 L 152.25 156.93 C 152.57 157.90 153.62 158.42 154.59 158.10 C 155.55 157.78 156.08 156.73 155.76 155.76 L 155.44 154.81 C 155.12 153.84 154.07 153.31 153.10 153.63 C 152.13 153.96 151.61 155.00 151.93 155.97 Z M 152.22 156.82 L 152.48 157.81 C 152.75 158.80 153.76 159.38 154.75 159.12 C 155.73 158.85 156.32 157.84 156.05 156.85 L 155.79 155.86 C 155.52 154.88 154.51 154.29 153.52 154.56 C 152.54 154.82 151.95 155.84 152.22 156.82 Z M 152.46 157.72 L 152.67 158.70 C 152.88 159.69 153.86 160.33 154.86 160.12 C 155.86 159.90 156.50 158.92 156.28 157.92 L 156.07 156.95 C 155.86 155.95 154.88 155.31 153.88 155.52 C 152.88 155.74 152.25 156.72 152.46 157.72 Z M 152.65 158.60 L 152.81 159.61 C 152.97 160.62 153.91 161.31 154.92 161.15 C 155.93 160.99 156.62 160.05 156.46 159.04 L 156.30 158.02 C 156.14 157.02 155.20 156.33 154.19 156.48 C 153.18 156.64 152.49 157.59 152.65 158.60 Z M 152.80 159.51 L 152.90 160.51 C 153.00 161.53 153.90 162.27 154.92 162.17 C 155.93 162.07 156.67 161.17 156.57 160.15 L 156.47 159.15 C 156.37 158.13 155.47 157.39 154.45 157.49 C 153.44 157.59 152.70 158.50 152.80 159.51 Z M 152.89 160.43 L 152.94 161.39 C 152.99 162.41 153.86 163.20 154.88 163.14 C 155.90 163.09 156.68 162.22 156.63 161.20 L 156.58 160.24 C 156.53 159.22 155.66 158.44 154.64 158.49 C 153.62 158.54 152.84 159.41 152.89 160.43 Z M 152.94 161.34 L 152.96 162.30 C 152.99 163.32 153.83 164.13 154.85 164.10 C 155.87 164.08 156.68 163.23 156.65 162.21 L 156.63 161.26 C 156.61 160.24 155.76 159.43 154.74 159.45 C 153.72 159.48 152.91 160.32 152.94 161.34 Z M 152.96 162.27 L 152.97 163.24 C 152.97 164.26 153.80 165.08 154.82 165.07 C 155.84 165.07 156.66 164.24 156.66 163.22 L 156.65 162.25 C 156.65 161.23 155.82 160.41 154.80 160.41 C 153.78 160.42 152.95 161.25 152.96 162.27 Z M 152.97 163.19 L 152.94 164.19 C 152.92 165.21 153.73 166.06 154.75 166.08 C 155.77 166.10 156.62 165.29 156.64 164.27 L 156.66 163.27 C 156.68 162.25 155.87 161.40 154.85 161.38 C 153.83 161.36 152.99 162.17 152.97 163.19 Z M 152.95 164.13 L 152.89 165.17 C 152.83 166.19 153.61 167.06 154.63 167.12 C 155.65 167.17 156.52 166.39 156.58 165.37 L 156.64 164.33 C 156.69 163.31 155.91 162.44 154.89 162.39 C 153.87 162.33 153.00 163.11 152.95 164.13 Z M 152.89 165.09 L 152.79 166.08 C 152.69 167.10 153.44 168.01 154.45 168.11 C 155.47 168.21 156.38 167.47 156.48 166.45 L 156.58 165.46 C 156.68 164.44 155.93 163.53 154.92 163.43 C 153.90 163.33 152.99 164.07 152.89 165.09 Z M 152.81 165.95 L 152.63 166.94 C 152.46 167.95 153.13 168.91 154.14 169.09 C 155.15 169.27 156.12 168.59 156.29 167.58 L 156.47 166.59 C 156.64 165.57 155.97 164.61 154.96 164.44 C 153.95 164.26 152.98 164.94 152.81 165.95 Z M 152.68 166.73 L 152.39 167.69 C 152.10 168.67 152.66 169.71 153.65 170.00 C 154.63 170.30 155.67 169.73 155.96 168.75 L 156.25 167.79 C 156.54 166.80 155.98 165.77 154.99 165.47 C 154.01 165.18 152.97 165.74 152.68 166.73 Z M 152.50 167.40 L 152.06 168.30 C 151.60 169.22 151.99 170.34 152.92 170.80 C 153.84 171.25 154.96 170.87 155.42 169.94 L 155.86 169.04 C 156.31 168.11 155.93 166.99 155.00 166.54 C 154.07 166.08 152.95 166.47 152.50 167.40 Z M 152.25 167.97 L 151.62 168.79 C 150.99 169.61 151.14 170.79 151.97 171.42 C 152.79 172.06 153.97 171.90 154.60 171.08 L 155.23 170.26 C 155.86 169.44 155.71 168.26 154.88 167.63 C 154.06 167.00 152.88 167.15 152.25 167.97 Z M 151.87 168.50 L 151.12 169.16 C 150.33 169.84 150.24 171.04 150.93 171.82 C 151.61 172.61 152.80 172.70 153.59 172.02 L 154.35 171.36 C 155.14 170.68 155.22 169.49 154.54 168.70 C 153.86 167.91 152.66 167.82 151.87 168.50 Z M 151.45 168.92 L 150.61 169.38 C 149.69 169.88 149.34 171.03 149.85 171.95 C 150.35 172.87 151.50 173.22 152.42 172.71 L 153.26 172.26 C 154.19 171.76 154.53 170.60 154.02 169.68 C 153.52 168.76 152.37 168.42 151.45 168.92 Z M 151.06 169.19 L 150.08 169.43 C 149.05 169.68 148.43 170.71 148.68 171.74 C 148.93 172.76 149.96 173.39 150.99 173.14 L 151.97 172.90 C 153.00 172.65 153.62 171.62 153.37 170.59 C 153.12 169.57 152.09 168.94 151.06 169.19 Z M 150.63 169.37 L 149.64 169.32 C 148.58 169.27 147.68 170.08 147.63 171.14 C 147.58 172.20 148.40 173.10 149.45 173.15 L 150.44 173.20 C 151.50 173.25 152.40 172.44 152.45 171.38 C 152.50 170.32 151.69 169.42 150.63 169.37 Z M 150.20 169.42 L 149.27 169.09 C 148.26 168.73 147.16 169.26 146.80 170.26 C 146.44 171.26 146.97 172.37 147.97 172.72 L 148.90 173.05 C 149.91 173.41 151.01 172.89 151.37 171.88 C 151.72 170.88 151.20 169.78 150.20 169.42 Z M 149.74 169.33 L 148.97 168.78 C 148.09 168.16 146.89 168.37 146.27 169.24 C 145.65 170.11 145.86 171.32 146.73 171.94 L 147.50 172.48 C 148.37 173.10 149.58 172.90 150.20 172.03 C 150.82 171.15 150.61 169.95 149.74 169.33 Z M 149.28 169.05 L 148.61 168.32 C 147.89 167.53 146.66 167.48 145.87 168.20 C 145.08 168.92 145.03 170.15 145.75 170.94 L 146.42 171.67 C 147.14 172.46 148.37 172.51 149.15 171.79 C 149.94 171.06 150.00 169.84 149.28 169.05 Z M 148.80 168.56 L 148.23 167.70 C 147.64 166.80 146.43 166.56 145.54 167.15 C 144.65 167.74 144.40 168.94 144.99 169.83 L 145.56 170.70 C 146.15 171.59 147.35 171.84 148.25 171.25 C 149.14 170.66 149.39 169.45 148.80 168.56 Z M 148.34 167.89 L 147.89 167.01 C 147.41 166.05 146.25 165.67 145.29 166.15 C 144.33 166.63 143.95 167.80 144.43 168.75 L 144.88 169.64 C 145.36 170.60 146.52 170.98 147.48 170.50 C 148.44 170.02 148.82 168.85 148.34 167.89 Z M 147.97 167.18 L 147.62 166.28 C 147.23 165.28 146.11 164.78 145.11 165.17 C 144.11 165.56 143.62 166.68 144.00 167.68 L 144.35 168.58 C 144.74 169.58 145.86 170.08 146.86 169.69 C 147.86 169.30 148.36 168.18 147.97 167.18 Z M 147.68 166.44 L 147.40 165.48 C 147.10 164.45 146.02 163.85 144.99 164.15 C 143.96 164.45 143.37 165.53 143.67 166.56 L 143.95 167.52 C 144.25 168.55 145.33 169.14 146.36 168.84 C 147.39 168.54 147.98 167.47 147.68 166.44 Z M 147.43 165.62 L 147.22 164.59 C 147.00 163.54 145.97 162.87 144.92 163.09 C 143.87 163.31 143.20 164.34 143.42 165.39 L 143.63 166.42 C 143.85 167.47 144.88 168.14 145.93 167.92 C 146.98 167.70 147.65 166.67 147.43 165.62 Z M 147.24 164.71 L 147.10 163.71 C 146.94 162.65 145.96 161.91 144.89 162.06 C 143.83 162.22 143.09 163.20 143.25 164.27 L 143.39 165.27 C 143.55 166.33 144.53 167.07 145.60 166.91 C 146.66 166.76 147.40 165.77 147.24 164.71 Z M 147.11 163.80 L 147.01 162.78 C 146.90 161.71 145.95 160.93 144.88 161.03 C 143.81 161.14 143.03 162.09 143.14 163.16 L 143.24 164.18 C 143.34 165.24 144.29 166.03 145.36 165.92 C 146.43 165.82 147.21 164.87 147.11 163.80 Z M 147.01 162.85 L 146.96 161.84 C 146.89 160.77 145.97 159.95 144.90 160.01 C 143.83 160.07 143.01 160.99 143.07 162.07 L 143.13 163.08 C 143.19 164.15 144.11 164.97 145.19 164.91 C 146.26 164.85 147.08 163.93 147.01 162.85 Z M 146.96 161.91 L 146.94 160.94 C 146.91 159.86 146.02 159.01 144.94 159.04 C 143.87 159.06 143.02 159.95 143.04 161.03 L 143.07 162.00 C 143.09 163.07 143.98 163.92 145.06 163.90 C 146.13 163.87 146.98 162.98 146.96 161.91 Z M 146.94 161.02 L 146.96 159.96 C 146.98 158.88 146.12 157.99 145.04 157.97 C 143.97 157.96 143.08 158.81 143.06 159.89 L 143.04 160.95 C 143.02 162.02 143.88 162.91 144.95 162.93 C 146.03 162.95 146.92 162.09 146.94 161.02 Z M 146.95 160.13 L 147.05 159.13 C 147.17 158.06 146.39 157.10 145.32 156.99 C 144.25 156.88 143.29 157.65 143.18 158.72 L 143.07 159.72 C 142.96 160.79 143.73 161.75 144.80 161.86 C 145.87 161.97 146.83 161.20 146.95 160.13 Z M 147.00 159.42 L 147.24 158.51 C 147.51 157.47 146.89 156.40 145.85 156.13 C 144.81 155.85 143.74 156.48 143.47 157.52 L 143.23 158.43 C 142.96 159.47 143.58 160.54 144.62 160.81 C 145.66 161.08 146.73 160.46 147.00 159.42 Z M 147.11 158.86 L 147.52 158.02 C 147.99 157.05 147.59 155.89 146.62 155.41 C 145.65 154.94 144.48 155.35 144.01 156.32 L 143.60 157.16 C 143.13 158.13 143.53 159.29 144.50 159.76 C 145.47 160.24 146.64 159.83 147.11 158.86 Z M 147.34 158.32 L 147.91 157.54 C 148.55 156.67 148.36 155.45 147.49 154.82 C 146.62 154.18 145.40 154.37 144.77 155.23 L 144.19 156.01 C 143.56 156.88 143.74 158.10 144.61 158.74 C 145.48 159.38 146.70 159.19 147.34 158.32 Z M 147.73 157.76 L 148.44 157.03 C 149.20 156.26 149.19 155.03 148.42 154.27 C 147.65 153.52 146.42 153.53 145.66 154.29 L 144.95 155.02 C 144.19 155.78 144.20 157.02 144.97 157.77 C 145.74 158.53 146.97 158.52 147.73 157.76 Z M 148.26 157.19 L 149.08 156.54 C 149.93 155.87 150.07 154.65 149.40 153.80 C 148.73 152.96 147.51 152.82 146.66 153.49 L 145.84 154.13 C 145.00 154.80 144.86 156.03 145.52 156.87 C 146.19 157.72 147.42 157.86 148.26 157.19 Z M 148.91 156.66 L 149.76 156.13 C 150.67 155.56 150.94 154.35 150.37 153.44 C 149.80 152.53 148.59 152.26 147.68 152.83 L 146.83 153.36 C 145.92 153.94 145.65 155.14 146.22 156.05 C 146.80 156.96 148.00 157.24 148.91 156.66 Z M 149.59 156.23 L 150.49 155.78 C 151.45 155.30 151.84 154.13 151.37 153.17 C 150.89 152.20 149.72 151.81 148.75 152.29 L 147.85 152.73 C 146.89 153.21 146.49 154.38 146.97 155.35 C 147.45 156.31 148.62 156.71 149.59 156.23 Z M 150.30 155.86 L 151.24 155.51 C 152.25 155.13 152.76 154.01 152.38 153.00 C 152.00 151.99 150.88 151.48 149.87 151.86 L 148.94 152.21 C 147.93 152.59 147.42 153.71 147.79 154.72 C 148.17 155.73 149.29 156.24 150.30 155.86 Z M 151.04 155.57 L 152.02 155.32 C 153.06 155.05 153.69 153.99 153.42 152.95 C 153.15 151.90 152.09 151.28 151.05 151.54 L 150.07 151.80 C 149.03 152.06 148.40 153.13 148.67 154.17 C 148.93 155.21 150.00 155.84 151.04 155.57 Z M 151.79 155.37 L 152.80 155.23 C 153.87 155.09 154.62 154.12 154.48 153.05 C 154.34 151.98 153.36 151.23 152.29 151.37 L 151.28 151.50 C 150.21 151.64 149.46 152.62 149.60 153.69 C 149.74 154.75 150.72 155.51 151.79 155.37 Z M 152.51 155.25 L 153.51 155.27 C 154.58 155.28 155.47 154.42 155.49 153.35 C 155.50 152.27 154.65 151.38 153.57 151.37 L 152.58 151.35 C 151.50 151.33 150.61 152.19 150.60 153.27 C 150.58 154.35 151.44 155.23 152.51 155.25 Z M 153.17 155.23 L 154.12 155.41 C 155.18 155.62 156.20 154.92 156.40 153.87 C 156.61 152.81 155.91 151.79 154.86 151.58 L 153.91 151.40 C 152.85 151.20 151.83 151.89 151.62 152.95 C 151.42 154.01 152.11 155.03 153.17 155.23 Z M 153.74 155.30 L 154.67 155.68 C 155.66 156.10 156.81 155.62 157.22 154.63 C 157.63 153.63 157.16 152.49 156.16 152.08 L 155.24 151.70 C 154.24 151.29 153.10 151.76 152.69 152.75 C 152.28 153.75 152.75 154.89 153.74 155.30 Z M 154.33 155.50 L 155.16 156.06 C 156.06 156.66 157.27 156.42 157.87 155.53 C 158.47 154.63 158.23 153.42 157.33 152.82 L 156.50 152.26 C 155.61 151.66 154.40 151.90 153.80 152.80 C 153.20 153.69 153.44 154.90 154.33 155.50 Z M 154.89 155.83 L 155.59 156.53 C 156.36 157.28 157.60 157.27 158.35 156.50 C 159.10 155.73 159.09 154.49 158.32 153.74 L 157.61 153.05 C 156.84 152.29 155.61 152.31 154.86 153.08 C 154.10 153.85 154.12 155.08 154.89 155.83 Z M 155.37 156.26 L 155.92 157.03 C 156.54 157.91 157.76 158.12 158.63 157.49 C 159.51 156.87 159.72 155.65 159.09 154.78 L 158.55 154.01 C 157.92 153.13 156.71 152.92 155.83 153.55 C 154.95 154.17 154.75 155.39 155.37 156.26 Z M 155.74 156.74 L 156.15 157.59 C 156.61 158.56 157.77 158.98 158.74 158.52 C 159.71 158.06 160.13 156.89 159.67 155.92 L 159.27 155.07 C 158.81 154.10 157.64 153.68 156.67 154.14 C 155.70 154.60 155.28 155.77 155.74 156.74 Z M 156.04 157.30 L 156.32 158.27 C 156.63 159.31 157.71 159.90 158.74 159.59 C 159.78 159.29 160.37 158.21 160.06 157.17 L 159.78 156.20 C 159.47 155.17 158.39 154.58 157.36 154.88 C 156.32 155.19 155.73 156.27 156.04 157.30 Z M 156.27 158.04 L 156.45 159.10 C 156.62 160.17 157.63 160.88 158.69 160.71 C 159.75 160.53 160.47 159.52 160.29 158.46 L 160.12 157.40 C 159.94 156.34 158.93 155.62 157.87 155.80 C 156.81 155.98 156.09 156.98 156.27 158.04 Z M 156.43 158.95 L 156.50 159.86 C 156.59 160.94 157.54 161.73 158.61 161.64 C 159.68 161.55 160.48 160.61 160.39 159.54 L 160.31 158.62 C 160.22 157.55 159.28 156.75 158.21 156.84 C 157.13 156.93 156.34 157.87 156.43 158.95 Z M 156.50 159.72 L 156.51 160.70 C 156.52 161.78 157.41 162.64 158.48 162.63 C 159.56 162.62 160.42 161.73 160.41 160.66 L 160.40 159.67 C 160.38 158.60 159.50 157.74 158.42 157.75 C 157.34 157.76 156.48 158.65 156.50 159.72 Z M 156.51 160.55 L 156.44 161.58 C 156.37 162.65 157.19 163.58 158.26 163.65 C 159.34 163.72 160.27 162.90 160.34 161.83 L 160.40 160.81 C 160.48 159.73 159.66 158.80 158.59 158.73 C 157.51 158.66 156.58 159.48 156.51 160.55 Z M 156.46 161.41 L 156.30 162.45 C 156.14 163.52 156.87 164.51 157.94 164.68 C 159.00 164.84 160.00 164.11 160.16 163.04 L 160.32 162.00 C 160.48 160.93 159.75 159.94 158.69 159.77 C 157.62 159.61 156.63 160.34 156.46 161.41 Z M 156.34 162.27 L 156.08 163.29 C 155.82 164.33 156.45 165.39 157.49 165.66 C 158.54 165.92 159.60 165.29 159.86 164.25 L 160.12 163.23 C 160.39 162.18 159.76 161.12 158.71 160.85 C 157.67 160.59 156.61 161.22 156.34 162.27 Z M 156.13 163.11 L 155.79 164.09 C 155.42 165.11 155.96 166.22 156.97 166.58 C 157.99 166.95 159.10 166.41 159.46 165.40 L 159.81 164.42 C 160.17 163.41 159.64 162.29 158.63 161.93 C 157.61 161.57 156.49 162.10 156.13 163.11 Z M 155.84 163.95 L 155.42 164.89 C 154.98 165.87 155.42 167.03 156.41 167.47 C 157.39 167.91 158.55 167.47 158.99 166.48 L 159.41 165.54 C 159.85 164.56 159.41 163.40 158.42 162.96 C 157.44 162.52 156.28 162.96 155.84 163.95 Z M 155.48 164.76 L 155.01 165.65 C 154.50 166.60 154.86 167.78 155.81 168.29 C 156.77 168.80 157.95 168.44 158.46 167.49 L 158.93 166.60 C 159.44 165.65 159.08 164.47 158.12 163.96 C 157.17 163.45 155.99 163.81 155.48 164.76 Z M 155.07 165.54 L 154.57 166.35 C 154.00 167.27 154.29 168.47 155.20 169.04 C 156.12 169.61 157.32 169.32 157.89 168.41 L 158.39 167.60 C 158.96 166.68 158.68 165.48 157.76 164.91 C 156.84 164.34 155.64 164.62 155.07 165.54 Z M 154.65 166.24 L 154.03 167.09 C 153.40 167.96 153.60 169.18 154.47 169.82 C 155.35 170.45 156.57 170.25 157.20 169.37 L 157.82 168.52 C 158.45 167.65 158.25 166.43 157.37 165.79 C 156.50 165.16 155.28 165.36 154.65 166.24 Z M 154.15 166.94 L 153.45 167.73 C 152.74 168.54 152.81 169.77 153.62 170.49 C 154.43 171.20 155.67 171.13 156.38 170.32 L 157.08 169.52 C 157.80 168.72 157.72 167.48 156.91 166.77 C 156.10 166.05 154.87 166.13 154.15 166.94 Z M 153.64 167.54 L 152.91 168.17 C 152.10 168.88 152.01 170.11 152.71 170.93 C 153.42 171.74 154.65 171.83 155.47 171.13 L 156.19 170.50 C 157.01 169.80 157.10 168.56 156.40 167.75 C 155.69 166.93 154.46 166.84 153.64 167.54 Z M 153.17 167.98 L 152.41 168.45 C 151.49 169.01 151.19 170.21 151.76 171.13 C 152.32 172.06 153.52 172.35 154.44 171.79 L 155.21 171.32 C 156.13 170.76 156.42 169.55 155.86 168.63 C 155.30 167.71 154.10 167.42 153.17 167.98 Z M 152.76 168.28 L 151.78 168.63 C 150.76 169.00 150.24 170.12 150.60 171.14 C 150.97 172.15 152.09 172.68 153.10 172.31 L 154.09 171.96 C 155.10 171.59 155.63 170.47 155.26 169.45 C 154.89 168.44 153.77 167.91 152.76 168.28 Z M 152.26 168.53 L 151.27 168.62 C 150.19 168.71 149.40 169.66 149.50 170.74 C 149.60 171.82 150.55 172.61 151.62 172.51 L 152.62 172.42 C 153.69 172.32 154.49 171.37 154.39 170.29 C 154.29 169.22 153.34 168.43 152.26 168.53 Z M 151.93 168.67 L 151.03 168.44 C 149.98 168.17 148.91 168.80 148.65 169.84 C 148.38 170.89 149.01 171.95 150.05 172.22 L 150.96 172.46 C 152.00 172.73 153.07 172.10 153.34 171.05 C 153.61 170.00 152.98 168.94 151.93 168.67 Z M 151.75 168.79 L 151.04 168.24 C 150.19 167.57 148.96 167.71 148.29 168.56 C 147.63 169.41 147.77 170.64 148.62 171.31 L 149.33 171.87 C 150.18 172.54 151.41 172.39 152.08 171.54 C 152.75 170.69 152.60 169.46 151.75 168.79 Z M 151.46 168.68 L 150.92 167.87 C 150.31 166.97 149.10 166.72 148.20 167.33 C 147.30 167.93 147.05 169.15 147.66 170.05 L 148.20 170.86 C 148.80 171.76 150.02 172.01 150.92 171.40 C 151.82 170.80 152.07 169.58 151.46 168.68 Z M 151.10 168.21 L 150.70 167.22 C 150.29 166.22 149.14 165.74 148.13 166.15 C 147.13 166.56 146.65 167.71 147.06 168.71 L 147.47 169.70 C 147.88 170.71 149.03 171.19 150.03 170.77 C 151.04 170.36 151.52 169.22 151.10 168.21 Z M 150.78 167.46 L 150.52 166.48 C 150.24 165.43 149.16 164.81 148.11 165.09 C 147.06 165.37 146.44 166.45 146.72 167.50 L 146.98 168.47 C 147.26 169.52 148.34 170.15 149.39 169.87 C 150.44 169.59 151.06 168.51 150.78 167.46 Z M 150.56 166.65 L 150.39 165.67 C 150.20 164.59 149.18 163.88 148.10 164.07 C 147.03 164.25 146.31 165.28 146.50 166.35 L 146.68 167.33 C 146.86 168.41 147.89 169.12 148.96 168.93 C 150.03 168.74 150.75 167.72 150.56 166.65 Z M 150.41 165.79 L 150.30 164.79 C 150.18 163.70 149.20 162.92 148.11 163.04 C 147.03 163.16 146.25 164.14 146.37 165.22 L 146.48 166.23 C 146.60 167.31 147.58 168.09 148.66 167.97 C 149.75 167.85 150.53 166.87 150.41 165.79 Z M 150.31 164.87 L 150.24 163.86 C 150.17 162.77 149.23 161.95 148.13 162.02 C 147.04 162.09 146.22 163.04 146.29 164.13 L 146.36 165.14 C 146.43 166.23 147.37 167.06 148.47 166.98 C 149.56 166.91 150.38 165.97 150.31 164.87 Z M 150.25 163.93 L 150.21 162.92 C 150.18 161.82 149.26 160.96 148.16 161.00 C 147.07 161.04 146.21 161.96 146.25 163.05 L 146.28 164.07 C 146.32 165.16 147.24 166.02 148.34 165.98 C 149.43 165.94 150.29 165.02 150.25 163.93 Z M 150.22 162.98 L 150.21 161.98 C 150.21 160.88 149.31 160.00 148.22 160.00 C 147.12 160.01 146.24 160.90 146.24 161.99 L 146.25 162.99 C 146.25 164.09 147.14 164.97 148.24 164.97 C 149.34 164.96 150.22 164.07 150.22 162.98 Z M 150.21 162.04 L 150.24 161.05 C 150.27 159.95 149.40 159.04 148.31 159.01 C 147.21 158.98 146.30 159.84 146.27 160.94 L 146.24 161.93 C 146.21 163.03 147.08 163.94 148.17 163.97 C 149.27 164.00 150.18 163.13 150.21 162.04 Z M 150.23 161.12 L 150.30 160.09 C 150.37 158.99 149.53 158.05 148.44 157.98 C 147.35 157.92 146.40 158.75 146.34 159.84 L 146.27 160.87 C 146.21 161.96 147.04 162.91 148.13 162.97 C 149.22 163.04 150.17 162.21 150.23 161.12 Z M 150.28 160.24 L 150.42 159.22 C 150.58 158.13 149.82 157.13 148.73 156.98 C 147.65 156.83 146.64 157.58 146.49 158.67 L 146.35 159.69 C 146.20 160.78 146.96 161.78 148.05 161.93 C 149.13 162.08 150.13 161.32 150.28 160.24 Z M 150.36 159.52 L 150.64 158.60 C 150.96 157.55 150.37 156.44 149.33 156.12 C 148.28 155.80 147.17 156.39 146.85 157.43 L 146.56 158.36 C 146.24 159.41 146.83 160.52 147.88 160.84 C 148.93 161.16 150.04 160.57 150.36 159.52 Z M 150.42 159.08 L 150.92 158.29 C 151.51 157.37 151.23 156.14 150.31 155.55 C 149.39 154.96 148.16 155.24 147.57 156.16 L 147.07 156.95 C 146.48 157.88 146.75 159.10 147.68 159.69 C 148.60 160.28 149.83 160.00 150.42 159.08 Z M 150.50 158.76 L 151.26 158.14 C 152.11 157.44 152.23 156.19 151.54 155.35 C 150.84 154.50 149.59 154.38 148.74 155.07 L 147.99 155.69 C 147.14 156.39 147.02 157.64 147.71 158.48 C 148.41 159.33 149.66 159.45 150.50 158.76 Z M 150.84 158.40 L 151.75 157.98 C 152.75 157.52 153.18 156.34 152.72 155.35 C 152.25 154.35 151.08 153.92 150.08 154.38 L 149.17 154.81 C 148.18 155.27 147.74 156.45 148.21 157.44 C 148.67 158.43 149.84 158.86 150.84 158.40 Z M 151.38 158.10 L 152.36 157.87 C 153.43 157.62 154.08 156.55 153.83 155.48 C 153.58 154.42 152.51 153.77 151.44 154.02 L 150.46 154.25 C 149.40 154.51 148.74 155.58 148.99 156.64 C 149.25 157.70 150.31 158.36 151.38 158.10 Z M 151.98 157.92 L 152.98 157.88 C 154.07 157.84 154.92 156.92 154.87 155.83 C 154.83 154.73 153.91 153.89 152.82 153.93 L 151.83 153.97 C 150.73 154.01 149.88 154.93 149.93 156.02 C 149.97 157.11 150.89 157.96 151.98 157.92 Z M 152.52 157.84 L 153.49 158.03 C 154.56 158.23 155.59 157.53 155.80 156.46 C 156.01 155.39 155.30 154.36 154.23 154.15 L 153.27 153.96 C 152.20 153.76 151.16 154.46 150.96 155.53 C 150.75 156.60 151.45 157.64 152.52 157.84 Z M 153.02 157.87 L 153.93 158.31 C 154.92 158.77 156.09 158.35 156.56 157.36 C 157.02 156.38 156.60 155.20 155.62 154.74 L 154.70 154.31 C 153.72 153.84 152.54 154.26 152.08 155.25 C 151.61 156.23 152.03 157.41 153.02 157.87 Z M 153.56 158.07 L 154.32 158.67 C 155.18 159.34 156.42 159.19 157.09 158.33 C 157.76 157.47 157.61 156.23 156.75 155.56 L 155.99 154.97 C 155.13 154.30 153.89 154.45 153.22 155.31 C 152.55 156.17 152.70 157.40 153.56 158.07 Z M 154.09 158.46 L 154.78 159.20 C 155.52 160.00 156.76 160.05 157.56 159.31 C 158.36 158.57 158.41 157.32 157.67 156.52 L 156.98 155.78 C 156.24 154.98 155.00 154.93 154.20 155.67 C 153.40 156.41 153.35 157.66 154.09 158.46 Z M 154.62 159.00 L 155.21 159.83 C 155.84 160.72 157.07 160.93 157.95 160.30 C 158.84 159.67 159.05 158.44 158.42 157.55 L 157.83 156.72 C 157.20 155.83 155.97 155.62 155.09 156.25 C 154.20 156.88 153.99 158.11 154.62 159.00 Z M 155.08 159.63 L 155.55 160.51 C 156.07 161.47 157.26 161.83 158.22 161.31 C 159.18 160.80 159.54 159.60 159.02 158.64 L 158.55 157.76 C 158.04 156.80 156.84 156.44 155.88 156.96 C 154.92 157.47 154.56 158.67 155.08 159.63 Z M 155.45 160.28 L 155.80 161.19 C 156.19 162.21 157.33 162.72 158.34 162.33 C 159.36 161.94 159.87 160.80 159.48 159.79 L 159.13 158.87 C 158.74 157.86 157.60 157.35 156.59 157.74 C 155.57 158.12 155.06 159.26 155.45 160.28 Z M 155.73 160.97 L 155.97 161.93 C 156.24 162.98 157.31 163.62 158.36 163.36 C 159.42 163.09 160.06 162.02 159.79 160.97 L 159.55 160.01 C 159.28 158.96 158.21 158.32 157.16 158.58 C 156.10 158.85 155.46 159.92 155.73 160.97 Z M 155.93 161.75 L 156.09 162.76 C 156.26 163.84 157.27 164.57 158.34 164.40 C 159.42 164.24 160.15 163.23 159.98 162.15 L 159.83 161.14 C 159.66 160.07 158.65 159.33 157.58 159.50 C 156.50 159.67 155.77 160.68 155.93 161.75 Z M 156.08 162.63 L 156.16 163.62 C 156.26 164.71 157.22 165.50 158.30 165.41 C 159.39 165.31 160.18 164.35 160.09 163.27 L 160.00 162.28 C 159.90 161.20 158.95 160.40 157.86 160.50 C 156.78 160.59 155.98 161.55 156.08 162.63 Z M 156.16 163.49 L 156.18 164.50 C 156.20 165.59 157.10 166.46 158.19 166.43 C 159.28 166.41 160.14 165.51 160.12 164.42 L 160.10 163.40 C 160.07 162.32 159.17 161.45 158.08 161.48 C 157.00 161.50 156.13 162.40 156.16 163.49 Z M 156.18 164.34 L 156.12 165.35 C 156.05 166.43 156.88 167.37 157.96 167.43 C 159.05 167.50 159.98 166.68 160.05 165.59 L 160.11 164.58 C 160.18 163.50 159.36 162.56 158.27 162.50 C 157.18 162.43 156.25 163.26 156.18 164.34 Z M 156.14 165.13 L 155.97 166.12 C 155.79 167.19 156.51 168.21 157.58 168.40 C 158.65 168.58 159.67 167.86 159.86 166.79 L 160.03 165.80 C 160.21 164.73 159.49 163.71 158.42 163.53 C 157.35 163.34 156.33 164.06 156.14 165.13 Z M 156.04 165.85 L 155.73 166.80 C 155.40 167.84 155.96 168.95 157.00 169.29 C 158.03 169.62 159.14 169.05 159.48 168.02 L 159.79 167.06 C 160.12 166.03 159.56 164.92 158.52 164.58 C 157.49 164.25 156.38 164.81 156.04 165.85 Z M 155.85 166.52 L 155.40 167.39 C 154.91 168.36 155.30 169.55 156.27 170.04 C 157.24 170.54 158.42 170.15 158.92 169.18 L 159.36 168.30 C 159.86 167.33 159.47 166.15 158.50 165.65 C 157.53 165.16 156.34 165.55 155.85 166.52 Z M 155.57 167.13 L 154.98 167.93 C 154.34 168.81 154.53 170.04 155.41 170.68 C 156.29 171.32 157.52 171.13 158.17 170.25 L 158.75 169.45 C 159.39 168.57 159.20 167.34 158.32 166.69 C 157.44 166.05 156.21 166.25 155.57 167.13 Z M 155.17 167.71 L 154.46 168.43 C 153.70 169.20 153.70 170.45 154.48 171.21 C 155.26 171.98 156.51 171.97 157.27 171.19 L 157.98 170.48 C 158.74 169.70 158.73 168.45 157.96 167.69 C 157.18 166.92 155.93 166.93 155.17 167.71 Z M 154.66 168.25 L 153.85 168.87 C 152.99 169.54 152.83 170.78 153.50 171.64 C 154.16 172.50 155.40 172.66 156.27 171.99 L 157.07 171.37 C 157.94 170.70 158.09 169.46 157.43 168.60 C 156.76 167.74 155.52 167.58 154.66 168.25 Z M 154.07 168.72 L 153.21 169.22 C 152.26 169.76 151.94 170.97 152.48 171.92 C 153.03 172.86 154.24 173.19 155.18 172.64 L 156.04 172.15 C 156.99 171.60 157.32 170.39 156.77 169.45 C 156.23 168.50 155.02 168.18 154.07 168.72 Z M 153.50 169.08 L 152.55 169.43 C 151.53 169.82 151.01 170.96 151.40 171.98 C 151.78 173.01 152.92 173.52 153.95 173.14 L 154.89 172.78 C 155.91 172.40 156.43 171.26 156.05 170.23 C 155.66 169.21 154.52 168.69 153.50 169.08 Z M 152.98 169.32 L 151.96 169.46 C 150.87 169.61 150.12 170.61 150.26 171.70 C 150.41 172.78 151.41 173.54 152.50 173.39 L 153.52 173.25 C 154.60 173.10 155.36 172.10 155.21 171.01 C 155.06 169.93 154.06 169.17 152.98 169.32 Z M 152.55 169.47 L 151.61 169.31 C 150.52 169.14 149.50 169.87 149.33 170.95 C 149.15 172.04 149.88 173.06 150.97 173.23 L 151.91 173.39 C 152.99 173.56 154.01 172.83 154.19 171.75 C 154.36 170.66 153.63 169.64 152.55 169.47 Z M 152.27 169.54 L 151.49 169.10 C 150.53 168.55 149.32 168.89 148.77 169.84 C 148.23 170.80 148.56 172.01 149.52 172.55 L 150.30 173.00 C 151.26 173.55 152.47 173.21 153.01 172.26 C 153.56 171.30 153.23 170.09 152.27 169.54 Z M 151.98 169.49 L 151.36 168.80 C 150.62 167.99 149.36 167.93 148.54 168.67 C 147.73 169.41 147.67 170.67 148.41 171.48 L 149.03 172.17 C 149.77 172.98 151.03 173.04 151.84 172.30 C 152.65 171.56 152.71 170.30 151.98 169.49 Z M 151.61 169.15 L 151.10 168.26 C 150.55 167.31 149.33 166.98 148.38 167.52 C 147.42 168.07 147.09 169.29 147.64 170.25 L 148.15 171.14 C 148.70 172.09 149.92 172.42 150.87 171.87 C 151.83 171.32 152.16 170.11 151.61 169.15 Z M 151.22 168.52 L 150.82 167.50 C 150.42 166.48 149.26 165.97 148.23 166.38 C 147.21 166.79 146.71 167.94 147.11 168.97 L 147.51 169.99 C 147.92 171.01 149.08 171.51 150.10 171.11 C 151.13 170.70 151.63 169.54 151.22 168.52 Z M 150.88 167.67 L 150.60 166.72 C 150.29 165.66 149.18 165.05 148.13 165.36 C 147.07 165.67 146.46 166.78 146.77 167.84 L 147.05 168.80 C 147.36 169.85 148.47 170.46 149.53 170.15 C 150.59 169.84 151.19 168.73 150.88 167.67 Z M 150.63 166.84 L 150.41 165.84 C 150.17 164.77 149.10 164.09 148.02 164.34 C 146.95 164.58 146.27 165.65 146.51 166.73 L 146.74 167.72 C 146.98 168.80 148.05 169.47 149.13 169.23 C 150.20 168.98 150.88 167.91 150.63 166.84 Z M 150.43 165.94 L 150.25 164.94 C 150.06 163.86 149.03 163.13 147.94 163.32 C 146.85 163.51 146.13 164.55 146.32 165.64 L 146.49 166.63 C 146.69 167.72 147.72 168.44 148.81 168.25 C 149.89 168.06 150.62 167.03 150.43 165.94 Z M 150.27 165.02 L 150.13 164.03 C 149.99 162.94 148.98 162.17 147.89 162.32 C 146.80 162.46 146.03 163.47 146.17 164.56 L 146.31 165.56 C 146.45 166.65 147.46 167.42 148.55 167.27 C 149.65 167.12 150.41 166.12 150.27 165.02 Z M 150.14 164.11 L 150.05 163.07 C 149.94 161.97 148.97 161.17 147.87 161.27 C 146.77 161.38 145.96 162.35 146.07 163.45 L 146.16 164.48 C 146.27 165.58 147.24 166.39 148.34 166.29 C 149.44 166.18 150.25 165.21 150.14 164.11 Z M 150.05 163.14 L 149.99 162.16 C 149.93 161.06 148.98 160.22 147.88 160.28 C 146.78 160.35 145.94 161.29 146.00 162.40 L 146.06 163.38 C 146.13 164.48 147.07 165.32 148.17 165.26 C 149.27 165.19 150.12 164.25 150.05 163.14 Z M 150.00 162.22 L 149.97 161.26 C 149.93 160.15 149.01 159.29 147.91 159.32 C 146.80 159.36 145.94 160.28 145.97 161.38 L 146.00 162.34 C 146.04 163.45 146.96 164.31 148.06 164.28 C 149.17 164.24 150.03 163.32 150.00 162.22 Z M 149.97 161.29 L 149.95 160.33 C 149.94 159.23 149.03 158.34 147.92 158.36 C 146.82 158.38 145.94 159.29 145.96 160.39 L 145.97 161.35 C 145.99 162.45 146.90 163.34 148.00 163.32 C 149.10 163.30 149.98 162.39 149.97 161.29 Z M 149.95 160.37 L 149.96 159.38 C 149.96 158.28 149.07 157.38 147.96 157.38 C 146.86 157.38 145.96 158.27 145.96 159.37 L 145.96 160.35 C 145.95 161.46 146.84 162.36 147.95 162.36 C 149.05 162.36 149.95 161.47 149.95 160.37 Z M 149.96 159.43 L 149.98 158.41 C 150.01 157.31 149.14 156.39 148.04 156.36 C 146.93 156.33 146.01 157.20 145.99 158.30 L 145.96 159.32 C 145.93 160.43 146.80 161.35 147.90 161.38 C 149.01 161.40 149.93 160.53 149.96 159.43 Z M 149.98 158.46 L 150.03 157.45 C 150.09 156.35 149.25 155.40 148.14 155.35 C 147.04 155.29 146.10 156.13 146.04 157.24 L 145.99 158.25 C 145.93 159.35 146.77 160.29 147.88 160.35 C 148.98 160.41 149.92 159.57 149.98 158.46 Z M 150.03 157.53 L 150.12 156.54 C 150.22 155.44 149.41 154.46 148.31 154.36 C 147.21 154.26 146.24 155.07 146.14 156.17 L 146.05 157.16 C 145.95 158.26 146.75 159.23 147.85 159.33 C 148.95 159.43 149.93 158.63 150.03 157.53 Z M 150.10 156.66 L 150.26 155.66 C 150.43 154.57 149.68 153.55 148.59 153.38 C 147.50 153.21 146.48 153.96 146.31 155.05 L 146.15 156.04 C 145.98 157.14 146.73 158.16 147.82 158.33 C 148.91 158.50 149.94 157.75 150.10 156.66 Z M 150.22 155.84 L 150.47 154.86 C 150.73 153.79 150.08 152.70 149.01 152.44 C 147.94 152.17 146.85 152.82 146.59 153.90 L 146.34 154.87 C 146.08 155.94 146.73 157.03 147.80 157.29 C 148.87 157.56 149.96 156.91 150.22 155.84 Z M 150.39 155.09 L 150.76 154.12 C 151.16 153.09 150.64 151.94 149.61 151.54 C 148.58 151.15 147.42 151.66 147.03 152.70 L 146.66 153.66 C 146.27 154.69 146.78 155.85 147.81 156.24 C 148.84 156.64 150.00 156.12 150.39 155.09 Z M 150.64 154.39 L 151.14 153.50 C 151.68 152.53 151.34 151.32 150.38 150.77 C 149.42 150.23 148.20 150.57 147.66 151.53 L 147.16 152.43 C 146.61 153.39 146.95 154.61 147.91 155.15 C 148.88 155.69 150.10 155.35 150.64 154.39 Z M 150.94 153.78 L 151.57 153.02 C 152.27 152.17 152.15 150.91 151.30 150.21 C 150.44 149.51 149.18 149.63 148.48 150.48 L 147.86 151.24 C 147.16 152.10 147.28 153.36 148.13 154.06 C 148.98 154.76 150.24 154.64 150.94 153.78 Z M 151.26 153.33 L 152.01 152.74 C 152.88 152.06 153.03 150.80 152.34 149.93 C 151.66 149.06 150.40 148.91 149.54 149.60 L 148.79 150.18 C 147.92 150.87 147.77 152.12 148.45 152.99 C 149.14 153.86 150.39 154.01 151.26 153.33 Z M 151.54 153.01 L 152.47 152.62 C 153.49 152.20 153.97 151.03 153.55 150.01 C 153.13 148.99 151.96 148.51 150.94 148.93 L 150.00 149.32 C 148.98 149.75 148.50 150.92 148.93 151.94 C 149.35 152.96 150.52 153.44 151.54 153.01 Z M 151.88 152.77 L 152.87 152.68 C 153.97 152.58 154.78 151.61 154.68 150.51 C 154.58 149.41 153.61 148.60 152.51 148.70 L 151.52 148.79 C 150.43 148.89 149.61 149.86 149.71 150.96 C 149.81 152.06 150.79 152.87 151.88 152.77 Z M 152.21 152.63 L 153.17 152.87 C 154.24 153.13 155.32 152.48 155.58 151.40 C 155.85 150.33 155.19 149.25 154.12 148.99 L 153.16 148.75 C 152.09 148.49 151.01 149.14 150.75 150.21 C 150.48 151.29 151.14 152.37 152.21 152.63 Z M 152.57 152.61 L 153.36 153.11 C 154.29 153.70 155.53 153.43 156.12 152.49 C 156.71 151.56 156.43 150.33 155.50 149.74 L 154.71 149.24 C 153.78 148.65 152.54 148.93 151.95 149.86 C 151.36 150.79 151.64 152.02 152.57 152.61 Z M 153.01 152.83 L 153.70 153.53 C 154.47 154.32 155.74 154.33 156.53 153.56 C 157.31 152.78 157.32 151.52 156.55 150.73 L 155.86 150.02 C 155.08 149.24 153.82 149.23 153.03 150.00 C 152.24 150.77 152.23 152.04 153.01 152.83 Z M 153.50 153.30 L 154.11 154.14 C 154.75 155.04 156.00 155.24 156.90 154.60 C 157.79 153.95 158.00 152.70 157.35 151.81 L 156.75 150.96 C 156.10 150.07 154.85 149.87 153.96 150.51 C 153.06 151.15 152.86 152.40 153.50 153.30 Z M 154.00 153.96 L 154.51 154.87 C 155.06 155.83 156.28 156.16 157.24 155.62 C 158.20 155.07 158.53 153.85 157.98 152.89 L 157.47 151.98 C 156.92 151.03 155.70 150.69 154.74 151.24 C 153.78 151.78 153.45 153.00 154.00 153.96 Z M 154.44 154.72 L 154.87 155.65 C 155.33 156.65 156.52 157.08 157.52 156.62 C 158.52 156.15 158.95 154.96 158.49 153.96 L 158.06 153.04 C 157.59 152.04 156.41 151.60 155.41 152.07 C 154.40 152.53 153.97 153.72 154.44 154.72 Z M 154.81 155.51 L 155.16 156.44 C 155.55 157.47 156.70 157.99 157.73 157.61 C 158.76 157.22 159.29 156.06 158.90 155.03 L 158.55 154.10 C 158.16 153.07 157.01 152.55 155.97 152.93 C 154.94 153.32 154.42 154.47 154.81 155.51 Z M 155.12 156.31 L 155.40 157.25 C 155.72 158.31 156.83 158.90 157.89 158.58 C 158.95 158.26 159.54 157.15 159.22 156.09 L 158.94 155.16 C 158.62 154.10 157.50 153.50 156.45 153.82 C 155.39 154.14 154.80 155.26 155.12 156.31 Z M 155.37 157.14 L 155.60 158.11 C 155.86 159.19 156.94 159.85 158.02 159.59 C 159.09 159.33 159.75 158.25 159.49 157.18 L 159.25 156.20 C 158.99 155.13 157.91 154.47 156.84 154.73 C 155.77 154.99 155.11 156.07 155.37 157.14 Z M 155.58 158.01 L 155.76 158.99 C 155.97 160.08 157.01 160.80 158.09 160.60 C 159.18 160.39 159.89 159.35 159.69 158.27 L 159.51 157.28 C 159.31 156.20 158.27 155.48 157.18 155.68 C 156.10 155.88 155.38 156.92 155.58 158.01 Z M 155.75 158.89 L 155.88 159.88 C 156.02 160.97 157.03 161.74 158.12 161.60 C 159.22 161.45 159.98 160.45 159.84 159.35 L 159.71 158.37 C 159.57 157.27 158.56 156.51 157.47 156.65 C 156.37 156.79 155.60 157.80 155.75 158.89 Z M 155.87 159.78 L 155.95 160.76 C 156.04 161.86 157.00 162.68 158.10 162.59 C 159.20 162.50 160.02 161.53 159.93 160.43 L 159.85 159.45 C 159.76 158.35 158.80 157.53 157.70 157.62 C 156.60 157.71 155.78 158.68 155.87 159.78 Z M 155.94 160.65 L 155.97 161.64 C 156.00 162.74 156.92 163.61 158.02 163.58 C 159.13 163.55 160.00 162.63 159.96 161.52 L 159.94 160.54 C 159.91 159.44 158.99 158.57 157.88 158.60 C 156.78 158.63 155.91 159.55 155.94 160.65 Z M 155.97 161.50 L 155.93 162.50 C 155.89 163.60 156.75 164.53 157.85 164.57 C 158.95 164.62 159.88 163.76 159.93 162.66 L 159.96 161.66 C 160.01 160.56 159.15 159.63 158.04 159.58 C 156.94 159.54 156.01 160.40 155.97 161.50 Z M 155.94 162.35 L 155.83 163.36 C 155.70 164.46 156.49 165.45 157.58 165.58 C 158.68 165.70 159.67 164.92 159.80 163.82 L 159.91 162.81 C 160.04 161.71 159.25 160.72 158.16 160.59 C 157.06 160.47 156.07 161.25 155.94 162.35 Z M 155.85 163.20 L 155.67 164.13 C 155.45 165.21 156.15 166.26 157.23 166.48 C 158.31 166.70 159.36 166.00 159.58 164.92 L 159.77 163.99 C 159.99 162.91 159.29 161.85 158.21 161.64 C 157.13 161.42 156.07 162.12 155.85 163.20 Z M 155.72 163.91 L 155.42 164.84 C 155.08 165.89 155.66 167.02 156.71 167.36 C 157.76 167.70 158.88 167.12 159.22 166.07 L 159.52 165.14 C 159.86 164.09 159.29 162.96 158.24 162.62 C 157.19 162.28 156.06 162.86 155.72 163.91 Z M 155.53 164.57 L 155.08 165.48 C 154.59 166.46 154.99 167.66 155.98 168.15 C 156.96 168.65 158.16 168.25 158.65 167.26 L 159.11 166.35 C 159.60 165.36 159.20 164.16 158.21 163.67 C 157.23 163.18 156.03 163.58 155.53 164.57 Z M 155.27 165.17 L 154.63 166.03 C 153.97 166.92 154.15 168.17 155.03 168.83 C 155.92 169.49 157.17 169.30 157.83 168.42 L 158.47 167.56 C 159.13 166.68 158.95 165.42 158.06 164.77 C 157.18 164.11 155.92 164.29 155.27 165.17 Z M 154.86 165.77 L 154.05 166.53 C 153.25 167.29 153.21 168.55 153.97 169.36 C 154.73 170.16 155.99 170.20 156.79 169.44 L 157.60 168.68 C 158.40 167.92 158.44 166.66 157.68 165.86 C 156.92 165.05 155.66 165.02 154.86 165.77 Z M 154.31 166.33 L 153.42 166.92 C 152.51 167.54 152.26 168.78 152.88 169.69 C 153.49 170.61 154.73 170.85 155.65 170.24 L 156.53 169.65 C 157.45 169.03 157.70 167.79 157.08 166.87 C 156.47 165.96 155.23 165.71 154.31 166.33 Z M 153.80 166.73 L 152.93 167.07 C 151.91 167.48 151.41 168.64 151.82 169.67 C 152.23 170.69 153.39 171.19 154.42 170.78 L 155.28 170.43 C 156.30 170.03 156.80 168.86 156.39 167.84 C 155.98 166.81 154.82 166.32 153.80 166.73 Z M 153.71 166.93 L 152.89 166.91 C 151.78 166.90 150.87 167.78 150.86 168.88 C 150.84 169.98 151.72 170.89 152.82 170.91 L 153.65 170.92 C 154.75 170.94 155.66 170.06 155.67 168.95 C 155.69 167.85 154.81 166.94 153.71 166.93 Z M 154.11 167.36 L 153.42 166.80 C 152.56 166.10 151.31 166.23 150.61 167.09 C 149.91 167.94 150.05 169.20 150.90 169.90 L 151.60 170.46 C 152.45 171.16 153.71 171.03 154.41 170.17 C 155.10 169.31 154.97 168.06 154.11 167.36 Z M 153.97 167.50 L 153.53 166.57 C 153.06 165.57 151.88 165.13 150.88 165.60 C 149.88 166.07 149.45 167.26 149.91 168.26 L 150.35 169.19 C 150.82 170.19 152.01 170.62 153.01 170.16 C 154.01 169.69 154.44 168.50 153.97 167.50 Z M 153.66 166.94 L 153.42 165.92 C 153.16 164.84 152.08 164.19 151.00 164.45 C 149.93 164.71 149.27 165.79 149.53 166.86 L 149.78 167.88 C 150.04 168.95 151.12 169.61 152.19 169.35 C 153.27 169.09 153.92 168.01 153.66 166.94 Z M 153.46 166.13 L 153.33 165.14 C 153.19 164.04 152.18 163.27 151.09 163.41 C 149.99 163.56 149.22 164.56 149.36 165.65 L 149.49 166.64 C 149.64 167.74 150.64 168.51 151.73 168.37 C 152.83 168.23 153.60 167.22 153.46 166.13 Z M 153.34 165.28 L 153.28 164.29 C 153.22 163.18 152.27 162.34 151.17 162.41 C 150.07 162.47 149.23 163.42 149.29 164.52 L 149.35 165.51 C 149.42 166.61 150.36 167.45 151.46 167.39 C 152.56 167.33 153.41 166.38 153.34 165.28 Z M 153.29 164.36 L 153.26 163.36 C 153.24 162.26 152.32 161.38 151.22 161.41 C 150.12 161.43 149.24 162.35 149.27 163.45 L 149.29 164.45 C 149.32 165.55 150.23 166.43 151.33 166.40 C 152.44 166.38 153.31 165.46 153.29 164.36 Z M 153.26 163.42 L 153.27 162.43 C 153.28 161.32 152.39 160.42 151.29 160.41 C 150.19 160.40 149.28 161.29 149.27 162.39 L 149.27 163.39 C 149.26 164.50 150.15 165.40 151.25 165.41 C 152.35 165.42 153.25 164.53 153.26 163.42 Z M 153.27 162.55 L 153.34 161.55 C 153.41 160.45 152.58 159.50 151.48 159.42 C 150.38 159.34 149.43 160.17 149.35 161.27 L 149.28 162.27 C 149.20 163.37 150.03 164.33 151.13 164.40 C 152.24 164.48 153.19 163.65 153.27 162.55 Z M 153.31 161.74 L 153.48 160.73 C 153.66 159.64 152.92 158.61 151.83 158.43 C 150.75 158.26 149.72 158.99 149.54 160.08 L 149.37 161.09 C 149.19 162.18 149.93 163.21 151.02 163.39 C 152.11 163.57 153.14 162.83 153.31 161.74 Z M 153.42 160.99 L 153.72 160.01 C 154.05 158.95 153.45 157.84 152.40 157.51 C 151.34 157.19 150.23 157.78 149.90 158.84 L 149.60 159.82 C 149.27 160.87 149.87 161.99 150.92 162.32 C 151.98 162.64 153.10 162.05 153.42 160.99 Z M 153.56 160.39 L 154.03 159.53 C 154.57 158.56 154.22 157.35 153.25 156.82 C 152.28 156.28 151.07 156.63 150.53 157.60 L 150.06 158.46 C 149.53 159.42 149.88 160.64 150.85 161.17 C 151.81 161.71 153.03 161.35 153.56 160.39 Z M 153.65 160.03 L 154.35 159.37 C 155.15 158.62 155.20 157.35 154.44 156.55 C 153.69 155.74 152.42 155.70 151.62 156.45 L 150.92 157.11 C 150.11 157.86 150.07 159.12 150.82 159.93 C 151.58 160.74 152.84 160.78 153.65 160.03 Z M 153.72 159.77 L 154.64 159.40 C 155.67 158.99 156.17 157.83 155.76 156.80 C 155.35 155.78 154.18 155.28 153.16 155.69 L 152.24 156.06 C 151.22 156.47 150.72 157.63 151.13 158.65 C 151.54 159.68 152.70 160.18 153.72 159.77 Z M 153.95 159.54 L 154.95 159.52 C 156.05 159.49 156.92 158.58 156.90 157.47 C 156.87 156.37 155.95 155.50 154.85 155.52 L 153.85 155.55 C 152.75 155.57 151.88 156.49 151.90 157.59 C 151.93 158.70 152.84 159.57 153.95 159.54 Z M 154.25 159.41 L 155.16 159.73 C 156.21 160.08 157.34 159.53 157.70 158.48 C 158.06 157.44 157.50 156.30 156.46 155.94 L 155.55 155.63 C 154.50 155.27 153.37 155.83 153.01 156.87 C 152.65 157.92 153.21 159.05 154.25 159.41 Z M 154.62 159.44 L 155.41 160.03 C 156.30 160.68 157.55 160.50 158.21 159.61 C 158.86 158.72 158.68 157.47 157.79 156.81 L 157.00 156.23 C 156.11 155.57 154.86 155.76 154.21 156.64 C 153.55 157.53 153.73 158.78 154.62 159.44 Z M 155.06 159.69 L 155.71 160.48 C 156.41 161.34 157.67 161.46 158.52 160.76 C 159.37 160.06 159.50 158.80 158.80 157.94 L 158.14 157.15 C 157.44 156.30 156.18 156.17 155.33 156.88 C 154.48 157.58 154.35 158.84 155.06 159.69 Z M 155.48 160.13 L 155.94 161.03 C 156.45 162.01 157.65 162.39 158.63 161.88 C 159.61 161.38 160.00 160.17 159.49 159.19 L 159.03 158.29 C 158.52 157.31 157.31 156.93 156.33 157.44 C 155.35 157.95 154.97 159.15 155.48 160.13 Z M 155.80 160.70 L 156.10 161.65 C 156.42 162.70 157.54 163.30 158.60 162.97 C 159.65 162.64 160.25 161.52 159.92 160.47 L 159.63 159.52 C 159.30 158.46 158.18 157.87 157.12 158.20 C 156.07 158.52 155.48 159.64 155.80 160.70 Z M 156.03 161.37 L 156.19 162.36 C 156.36 163.45 157.38 164.20 158.47 164.03 C 159.56 163.86 160.31 162.84 160.14 161.75 L 159.99 160.75 C 159.82 159.66 158.79 158.91 157.70 159.08 C 156.61 159.25 155.86 160.28 156.03 161.37 Z M 156.16 162.11 L 156.19 163.16 C 156.22 164.26 157.14 165.13 158.25 165.10 C 159.35 165.07 160.22 164.15 160.19 163.05 L 160.16 162.00 C 160.13 160.89 159.21 160.02 158.11 160.05 C 157.00 160.08 156.13 161.00 156.16 162.11 Z M 156.21 162.84 L 156.07 163.88 C 155.92 164.98 156.69 165.98 157.79 166.13 C 158.88 166.28 159.89 165.51 160.04 164.41 L 160.18 163.37 C 160.32 162.27 159.55 161.26 158.46 161.12 C 157.36 160.97 156.36 161.74 156.21 162.84 Z M 156.23 163.32 L 155.84 164.17 C 155.39 165.18 155.83 166.37 156.84 166.82 C 157.85 167.28 159.03 166.83 159.49 165.83 L 159.88 164.97 C 160.33 163.96 159.89 162.78 158.88 162.32 C 157.87 161.87 156.69 162.31 156.23 163.32 Z M 156.44 163.42 L 155.75 163.96 C 154.88 164.64 154.72 165.89 155.40 166.77 C 156.07 167.64 157.33 167.79 158.20 167.12 L 158.90 166.58 C 159.77 165.90 159.92 164.64 159.25 163.77 C 158.57 162.90 157.31 162.74 156.44 163.42 Z M 156.62 163.57 L 155.69 163.73 C 154.60 163.93 153.88 164.97 154.07 166.06 C 154.27 167.15 155.31 167.87 156.40 167.67 L 157.33 167.51 C 158.42 167.31 159.14 166.27 158.95 165.18 C 158.75 164.09 157.71 163.37 156.62 163.57 Z M 156.44 163.74 L 155.42 163.54 C 154.34 163.32 153.28 164.01 153.06 165.10 C 152.84 166.18 153.54 167.24 154.62 167.46 L 155.64 167.67 C 156.73 167.89 157.78 167.19 158.01 166.10 C 158.23 165.02 157.53 163.96 156.44 163.74 Z M 156.05 163.78 L 155.21 163.28 C 154.27 162.71 153.04 163.02 152.47 163.96 C 151.90 164.91 152.21 166.14 153.15 166.71 L 153.99 167.21 C 154.94 167.78 156.17 167.47 156.74 166.53 C 157.31 165.58 157.00 164.35 156.05 163.78 Z M 155.64 163.62 L 155.01 162.95 C 154.25 162.15 152.98 162.11 152.18 162.87 C 151.38 163.63 151.34 164.90 152.10 165.70 L 152.73 166.37 C 153.49 167.17 154.76 167.21 155.56 166.45 C 156.36 165.69 156.40 164.42 155.64 163.62 Z M 155.24 163.25 L 154.70 162.41 C 154.11 161.48 152.87 161.20 151.94 161.80 C 151.01 162.39 150.74 163.63 151.33 164.56 L 151.87 165.40 C 152.46 166.34 153.70 166.61 154.63 166.01 C 155.56 165.42 155.84 164.18 155.24 163.25 Z M 154.84 162.65 L 154.39 161.67 C 153.93 160.66 152.74 160.22 151.74 160.68 C 150.73 161.14 150.29 162.32 150.75 163.33 L 151.20 164.32 C 151.66 165.32 152.84 165.76 153.85 165.31 C 154.85 164.85 155.30 163.66 154.84 162.65 Z M 154.47 161.87 L 154.09 160.73 C 153.75 159.68 152.61 159.12 151.56 159.46 C 150.52 159.81 149.95 160.94 150.29 161.99 L 150.67 163.13 C 151.01 164.17 152.15 164.74 153.19 164.40 C 154.24 164.05 154.81 162.92 154.47 161.87 Z M 154.14 160.92 L 153.88 159.74 C 153.63 158.67 152.56 157.99 151.48 158.23 C 150.41 158.48 149.73 159.55 149.97 160.63 L 150.24 161.80 C 150.48 162.88 151.56 163.56 152.63 163.31 C 153.71 163.07 154.39 162.00 154.14 160.92 Z M 153.92 159.99 L 153.81 158.98 C 153.70 157.88 152.72 157.08 151.62 157.19 C 150.52 157.30 149.72 158.28 149.83 159.38 L 149.94 160.39 C 150.05 161.49 151.03 162.29 152.13 162.18 C 153.23 162.06 154.03 161.08 153.92 159.99 Z M 153.80 159.48 L 153.90 158.82 C 154.07 157.72 153.33 156.70 152.24 156.53 C 151.14 156.36 150.12 157.11 149.95 158.20 L 149.85 158.87 C 149.68 159.96 150.43 160.98 151.52 161.15 C 152.61 161.32 153.63 160.58 153.80 159.48 Z M 152.51 160.42 L 152.99 160.27 C 154.04 159.95 154.64 158.84 154.32 157.78 C 154.00 156.73 152.88 156.13 151.83 156.45 L 151.35 156.60 C 150.29 156.92 149.70 158.03 150.02 159.09 C 150.34 160.14 151.45 160.74 152.51 160.42 Z M 151.16 159.92 L 151.92 160.52 C 152.78 161.21 154.03 161.07 154.72 160.21 C 155.40 159.35 155.26 158.10 154.41 157.41 L 153.65 156.81 C 152.79 156.12 151.54 156.26 150.85 157.12 C 150.17 157.98 150.31 159.23 151.16 159.92 Z M 151.55 160.12 L 152.30 161.18 C 152.94 162.07 154.18 162.28 155.07 161.64 C 155.97 161.01 156.17 159.77 155.54 158.88 L 154.78 157.81 C 154.14 156.92 152.90 156.71 152.01 157.35 C 151.12 157.99 150.91 159.23 151.55 160.12 Z M 152.16 160.93 L 152.60 161.78 C 153.10 162.75 154.29 163.13 155.26 162.63 C 156.23 162.14 156.61 160.94 156.11 159.97 L 155.68 159.12 C 155.18 158.15 153.99 157.77 153.02 158.27 C 152.05 158.77 151.66 159.96 152.16 160.93 Z M 152.53 161.62 L 152.92 162.55 C 153.33 163.56 154.48 164.04 155.48 163.63 C 156.49 163.21 156.97 162.06 156.56 161.06 L 156.18 160.13 C 155.76 159.12 154.61 158.64 153.61 159.05 C 152.60 159.47 152.12 160.62 152.53 161.62 Z M 152.88 162.43 L 153.21 163.40 C 153.55 164.43 154.66 164.98 155.69 164.64 C 156.71 164.30 157.27 163.19 156.92 162.16 L 156.60 161.18 C 156.25 160.16 155.14 159.60 154.12 159.95 C 153.09 160.29 152.54 161.40 152.88 162.43 Z M 153.18 163.30 L 153.45 164.28 C 153.74 165.32 154.81 165.93 155.85 165.65 C 156.89 165.37 157.50 164.29 157.22 163.25 L 156.95 162.27 C 156.66 161.23 155.59 160.62 154.55 160.90 C 153.51 161.18 152.90 162.26 153.18 163.30 Z M 153.44 164.18 L 153.67 165.20 C 153.89 166.24 154.93 166.90 155.97 166.67 C 157.02 166.45 157.68 165.41 157.45 164.37 L 157.23 163.35 C 157.00 162.31 155.96 161.65 154.92 161.88 C 153.87 162.11 153.21 163.14 153.44 164.18 Z M 153.67 165.11 L 153.84 166.11 C 154.02 167.15 155.01 167.85 156.05 167.68 C 157.09 167.50 157.79 166.51 157.61 165.47 L 157.44 164.46 C 157.26 163.42 156.28 162.72 155.23 162.90 C 154.19 163.08 153.49 164.06 153.67 165.11 Z M 153.86 166.04 L 153.99 167.02 C 154.13 168.05 155.07 168.78 156.11 168.64 C 157.14 168.50 157.87 167.56 157.73 166.52 L 157.60 165.54 C 157.46 164.51 156.51 163.78 155.48 163.92 C 154.45 164.06 153.72 165.01 153.86 166.04 Z M 154.01 166.97 L 154.12 167.94 C 154.23 168.96 155.14 169.69 156.17 169.58 C 157.19 169.47 157.92 168.55 157.81 167.53 L 157.71 166.57 C 157.60 165.55 156.68 164.81 155.66 164.92 C 154.64 165.03 153.90 165.95 154.01 166.97 Z M 154.13 167.92 L 154.18 168.41 C 154.29 169.42 155.19 170.16 156.20 170.06 C 157.21 169.95 157.95 169.05 157.84 168.04 L 157.79 167.55 C 157.69 166.54 156.79 165.80 155.78 165.90 C 154.77 166.01 154.03 166.91 154.13 167.92 Z"
      fill="black"
      fill-rule="nonzero" /></svg>