<svg xmlns="http://www.w3.org/2000/svg" width="300" height="300" viewBox="0 0 300 300">
<path d="M 154.26 128.48 L 153.25 127.71 C 152.47 127.12 151.36 127.27 150.77 128.05 C 150.18 128.82 150.33 129.93 151.11 130.52 L 152.12 131.29 C 152.89 131.88 154.00 131.73 154.59 130.95 C 155.18 130.18 155.03 129.07 154.26 128.48 Z M 153.21 127.66 L 152.23 126.97 C 151.43 126.40 150.32 126.59 149.75 127.39 C 149.18 128.20 149.37 129.31 150.17 129.88 L 151.15 130.57 C 151.95 131.14 153.06 130.95 153.63 130.15 C 154.20 129.35 154.01 128.23 153.21 127.66 Z M 152.12 126.88 L 151.21 126.33 C 150.35 125.82 149.25 126.10 148.74 126.96 C 148.23 127.81 148.51 128.92 149.37 129.43 L 150.28 129.97 C 151.13 130.48 152.24 130.20 152.75 129.34 C 153.25 128.49 152.97 127.39 152.12 126.88 Z M 150.95 126.19 L 150.13 125.87 C 149.19 125.50 148.14 125.96 147.77 126.90 C 147.41 127.83 147.87 128.89 148.80 129.25 L 149.62 129.57 C 150.56 129.94 151.61 129.48 151.98 128.54 C 152.34 127.61 151.88 126.55 150.95 126.19 Z M 149.52 125.72 L 148.83 125.70 C 147.82 125.67 146.97 126.47 146.94 127.48 C 146.91 128.49 147.70 129.34 148.72 129.37 L 149.41 129.39 C 150.42 129.42 151.27 128.63 151.30 127.62 C 151.33 126.60 150.54 125.76 149.52 125.72 Z M 147.78 125.98 L 147.27 126.30 C 146.41 126.85 146.15 127.99 146.70 128.86 C 147.25 129.72 148.39 129.97 149.25 129.42 L 149.77 129.10 C 150.63 128.55 150.88 127.41 150.34 126.54 C 149.79 125.68 148.64 125.43 147.78 125.98 Z M 146.64 126.97 L 146.30 127.58 C 145.81 128.48 146.13 129.60 147.03 130.10 C 147.93 130.59 149.06 130.27 149.55 129.37 L 149.89 128.76 C 150.38 127.86 150.05 126.73 149.16 126.24 C 148.26 125.74 147.13 126.07 146.64 126.97 Z M 146.13 127.99 L 145.91 128.84 C 145.64 129.83 146.23 130.85 147.22 131.11 C 148.21 131.38 149.23 130.79 149.49 129.80 L 149.72 128.95 C 149.98 127.96 149.40 126.95 148.41 126.68 C 147.42 126.42 146.40 127.00 146.13 127.99 Z M 145.86 129.07 L 145.72 130.09 C 145.58 131.11 146.29 132.04 147.31 132.18 C 148.32 132.32 149.26 131.61 149.40 130.59 L 149.54 129.57 C 149.68 128.56 148.97 127.62 147.95 127.48 C 146.93 127.34 146.00 128.05 145.86 129.07 Z M 145.71 130.22 L 145.64 131.35 C 145.57 132.37 146.35 133.25 147.37 133.32 C 148.39 133.39 149.27 132.61 149.34 131.59 L 149.41 130.46 C 149.48 129.44 148.70 128.56 147.68 128.49 C 146.66 128.42 145.77 129.20 145.71 130.22 Z M 145.63 131.43 L 145.60 132.60 C 145.58 133.62 146.39 134.47 147.42 134.50 C 148.44 134.52 149.29 133.71 149.31 132.69 L 149.34 131.51 C 149.37 130.49 148.56 129.64 147.53 129.61 C 146.51 129.59 145.66 130.40 145.63 131.43 Z M 145.60 132.63 L 145.60 133.79 C 145.60 134.81 146.42 135.65 147.45 135.65 C 148.47 135.65 149.31 134.83 149.31 133.80 L 149.31 132.65 C 149.32 131.62 148.49 130.79 147.47 130.79 C 146.44 130.78 145.61 131.61 145.60 132.63 Z M 145.62 133.79 L 145.62 134.94 C 145.62 135.96 146.44 136.78 147.45 136.78 C 148.47 136.78 149.29 135.96 149.29 134.94 L 149.29 133.79 C 149.29 132.78 148.47 131.96 147.45 131.96 C 146.44 131.96 145.62 132.78 145.62 133.79 Z M 145.66 134.94 L 145.66 136.01 C 145.66 137.00 146.47 137.80 147.45 137.80 C 148.44 137.80 149.25 137.00 149.25 136.01 L 149.25 134.94 C 149.25 133.95 148.44 133.15 147.45 133.15 C 146.47 133.15 145.66 133.95 145.66 134.94 Z M 145.71 136.01 L 145.71 137.01 C 145.71 137.98 146.49 138.76 147.45 138.76 C 148.42 138.76 149.20 137.98 149.20 137.01 L 149.20 136.01 C 149.20 135.05 148.42 134.27 147.45 134.27 C 146.49 134.27 145.71 135.05 145.71 136.01 Z M 145.76 137.01 L 145.76 137.97 C 145.76 138.91 146.52 139.67 147.45 139.67 C 148.39 139.67 149.15 138.91 149.15 137.97 L 149.15 137.01 C 149.15 136.08 148.39 135.32 147.45 135.32 C 146.52 135.32 145.76 136.08 145.76 137.01 Z M 145.80 137.97 L 145.80 138.89 C 145.80 139.81 146.54 140.55 147.45 140.55 C 148.37 140.55 149.11 139.81 149.11 138.89 L 149.11 137.97 C 149.11 137.05 148.37 136.32 147.45 136.32 C 146.54 136.32 145.80 137.05 145.80 137.97 Z M 145.85 138.89 L 145.85 139.81 C 145.85 140.70 146.57 141.42 147.45 141.42 C 148.34 141.42 149.06 140.70 149.06 139.81 L 149.06 138.89 C 149.06 138.01 148.34 137.29 147.45 137.29 C 146.57 137.29 145.85 138.01 145.85 138.89 Z M 145.87 139.81 L 145.87 140.79 C 145.87 141.66 146.58 142.37 147.45 142.37 C 148.33 142.37 149.03 141.66 149.03 140.79 L 149.03 139.81 C 149.03 138.94 148.33 138.23 147.45 138.23 C 146.58 138.23 145.87 138.94 145.87 139.81 Z M 145.88 140.79 L 145.88 141.78 C 145.88 142.65 146.58 143.35 147.45 143.35 C 148.32 143.35 149.03 142.65 149.03 141.78 L 149.03 140.79 C 149.03 139.92 148.32 139.21 147.45 139.21 C 146.58 139.21 145.88 139.92 145.88 140.79 Z M 145.88 141.78 L 145.88 142.78 C 145.88 143.65 146.59 144.35 147.45 144.35 C 148.32 144.35 149.03 143.65 149.03 142.78 L 149.03 141.78 C 149.03 140.91 148.32 140.20 147.45 140.20 C 146.59 140.20 145.88 140.91 145.88 141.78 Z M 145.89 142.78 L 145.89 143.78 C 145.89 144.65 146.59 145.35 147.45 145.35 C 148.32 145.35 149.02 144.65 149.02 143.78 L 149.02 142.78 C 149.02 141.91 148.32 141.21 147.45 141.21 C 146.59 141.21 145.89 141.91 145.89 142.78 Z M 145.89 143.78 L 145.89 144.79 C 145.89 145.66 146.59 146.36 147.45 146.36 C 148.32 146.36 149.02 145.66 149.02 144.79 L 149.02 143.78 C 149.02 142.92 148.32 142.22 147.45 142.22 C 146.59 142.22 145.89 142.92 145.89 143.78 Z M 145.89 144.79 L 145.89 145.80 C 145.89 146.67 146.59 147.37 147.45 147.37 C 148.32 147.37 149.02 146.67 149.02 145.80 L 149.02 144.79 C 149.02 143.93 148.32 143.23 147.45 143.23 C 146.59 143.23 145.89 143.93 145.89 144.79 Z M 145.89 145.80 L 145.89 146.80 C 145.89 147.67 146.59 148.37 147.45 148.37 C 148.32 148.37 149.02 147.67 149.02 146.80 L 149.02 145.80 C 149.02 144.94 148.32 144.24 147.45 144.24 C 146.59 144.24 145.89 144.94 145.89 145.80 Z M 145.89 146.80 L 145.89 147.80 C 145.89 148.67 146.59 149.37 147.45 149.37 C 148.32 149.37 149.02 148.67 149.02 147.80 L 149.02 146.80 C 149.02 145.94 148.32 145.24 147.45 145.24 C 146.59 145.24 145.89 145.94 145.89 146.80 Z M 145.89 147.80 L 145.89 148.80 C 145.89 149.67 146.59 150.37 147.45 150.37 C 148.32 150.37 149.02 149.67 149.02 148.80 L 149.02 147.80 C 149.02 146.94 148.32 146.24 147.45 146.24 C 146.59 146.24 145.89 146.94 145.89 147.80 Z M 145.89 148.80 L 145.89 149.80 C 145.89 150.67 146.59 151.37 147.45 151.37 C 148.32 151.37 149.02 150.67 149.02 149.80 L 149.02 148.80 C 149.02 147.94 148.32 147.24 147.45 147.24 C 146.59 147.24 145.89 147.94 145.89 148.80 Z M 145.89 149.80 L 145.89 150.80 C 145.89 151.67 146.59 152.37 147.45 152.37 C 148.32 152.37 149.02 151.67 149.02 150.80 L 149.02 149.80 C 149.02 148.94 148.32 148.24 147.45 148.24 C 146.59 148.24 145.89 148.94 145.89 149.80 Z M 145.89 150.80 L 145.89 151.27 C 145.89 152.13 146.59 152.83 147.45 152.83 C 148.32 152.83 149.02 152.13 149.02 151.27 L 149.02 150.80 C 149.02 149.94 148.32 149.24 147.45 149.24 C 146.59 149.24 145.89 149.94 145.89 150.80 Z"
      fill="black"
      fill-rule="nonzero" /><path d="M 135.42 176.45 L 134.51 175.99 C 133.68 175.57 132.67 175.90 132.26 176.73 C 131.84 177.56 132.17 178.57 132.99 178.99 L 133.91 179.45 C 134.74 179.87 135.75 179.54 136.16 178.71 C 136.58 177.88 136.25 176.87 135.42 176.45 Z M 134.56 176.01 L 133.67 175.53 C 132.85 175.08 131.83 175.38 131.38 176.20 C 130.94 177.02 131.24 178.04 132.06 178.48 L 132.95 178.97 C 133.77 179.41 134.79 179.11 135.23 178.29 C 135.68 177.48 135.37 176.45 134.56 176.01 Z M 133.76 175.57 L 132.91 175.04 C 132.12 174.55 131.08 174.79 130.58 175.58 C 130.09 176.37 130.33 177.41 131.12 177.91 L 131.97 178.43 C 132.76 178.93 133.80 178.69 134.29 177.90 C 134.79 177.11 134.55 176.07 133.76 175.57 Z M 133.04 175.13 L 132.26 174.53 C 131.52 173.97 130.46 174.11 129.89 174.85 C 129.32 175.59 129.46 176.65 130.21 177.22 L 130.99 177.82 C 131.73 178.39 132.79 178.25 133.36 177.50 C 133.93 176.76 133.79 175.70 133.04 175.13 Z M 132.43 174.67 L 131.74 173.99 C 131.08 173.33 130.00 173.33 129.34 173.99 C 128.68 174.66 128.68 175.73 129.35 176.39 L 130.04 177.08 C 130.70 177.74 131.78 177.74 132.44 177.07 C 133.10 176.41 133.10 175.34 132.43 174.67 Z M 131.92 174.18 L 131.36 173.43 C 130.80 172.67 129.74 172.51 128.98 173.07 C 128.23 173.62 128.06 174.69 128.62 175.45 L 129.17 176.20 C 129.73 176.96 130.80 177.12 131.55 176.56 C 132.31 176.00 132.47 174.94 131.92 174.18 Z M 131.49 173.62 L 131.03 172.79 C 130.58 171.96 129.55 171.66 128.72 172.11 C 127.89 172.56 127.59 173.60 128.04 174.43 L 128.50 175.26 C 128.95 176.08 129.98 176.38 130.81 175.93 C 131.63 175.48 131.94 174.45 131.49 173.62 Z M 131.11 172.94 L 130.73 172.04 C 130.36 171.17 129.35 170.77 128.49 171.13 C 127.62 171.50 127.21 172.51 127.58 173.37 L 127.97 174.28 C 128.33 175.14 129.34 175.55 130.21 175.18 C 131.07 174.81 131.48 173.81 131.11 172.94 Z M 130.77 172.14 L 130.44 171.19 C 130.13 170.29 129.15 169.82 128.26 170.13 C 127.37 170.44 126.89 171.42 127.20 172.31 L 127.54 173.27 C 127.85 174.16 128.82 174.63 129.72 174.32 C 130.61 174.01 131.08 173.04 130.77 172.14 Z M 130.46 171.25 L 130.16 170.25 C 129.88 169.34 128.93 168.83 128.02 169.11 C 127.11 169.38 126.60 170.34 126.88 171.24 L 127.18 172.24 C 127.45 173.15 128.41 173.66 129.32 173.39 C 130.22 173.11 130.74 172.16 130.46 171.25 Z M 130.17 170.28 L 129.88 169.26 C 129.62 168.35 128.67 167.82 127.76 168.08 C 126.85 168.34 126.32 169.29 126.58 170.20 L 126.87 171.22 C 127.12 172.13 128.07 172.66 128.99 172.40 C 129.90 172.14 130.43 171.19 130.17 170.28 Z M 129.88 169.26 L 129.61 168.31 C 129.35 167.39 128.40 166.86 127.48 167.12 C 126.57 167.38 126.04 168.34 126.30 169.25 L 126.57 170.20 C 126.83 171.11 127.79 171.64 128.70 171.38 C 129.61 171.12 130.14 170.17 129.88 169.26 Z M 129.61 168.30 L 129.34 167.34 C 129.07 166.43 128.11 165.90 127.20 166.17 C 126.29 166.43 125.76 167.39 126.02 168.30 L 126.30 169.26 C 126.57 170.17 127.52 170.70 128.44 170.43 C 129.35 170.17 129.88 169.21 129.61 168.30 Z M 129.34 167.34 L 129.05 166.38 C 128.78 165.46 127.82 164.94 126.91 165.21 C 125.99 165.48 125.47 166.44 125.74 167.36 L 126.02 168.31 C 126.29 169.23 127.25 169.75 128.17 169.48 C 129.08 169.21 129.61 168.25 129.34 167.34 Z M 129.05 166.37 L 128.77 165.41 C 128.49 164.49 127.53 163.97 126.61 164.25 C 125.70 164.52 125.18 165.49 125.45 166.40 L 125.74 167.36 C 126.02 168.28 126.98 168.80 127.89 168.52 C 128.81 168.25 129.33 167.28 129.05 166.37 Z M 128.77 165.40 L 128.47 164.44 C 128.19 163.52 127.22 163.01 126.31 163.29 C 125.39 163.56 124.88 164.53 125.16 165.45 L 125.45 166.41 C 125.73 167.33 126.70 167.84 127.62 167.56 C 128.53 167.28 129.05 166.32 128.77 165.40 Z M 128.47 164.43 L 128.17 163.46 C 127.89 162.55 126.92 162.04 126.00 162.32 C 125.08 162.61 124.57 163.58 124.86 164.49 L 125.16 165.46 C 125.44 166.37 126.42 166.89 127.33 166.60 C 128.25 166.32 128.76 165.34 128.47 164.43 Z M 128.18 163.45 L 127.87 162.50 C 127.58 161.59 126.61 161.08 125.69 161.37 C 124.77 161.66 124.26 162.64 124.55 163.56 L 124.86 164.51 C 125.15 165.42 126.13 165.93 127.04 165.64 C 127.96 165.35 128.47 164.37 128.18 163.45 Z M 127.88 162.49 L 127.57 161.55 C 127.27 160.63 126.29 160.12 125.37 160.42 C 124.45 160.72 123.95 161.71 124.24 162.63 L 124.55 163.57 C 124.85 164.49 125.84 164.99 126.76 164.70 C 127.67 164.40 128.18 163.41 127.88 162.49 Z M 127.58 161.53 L 127.26 160.58 C 126.95 159.66 125.96 159.17 125.04 159.47 C 124.11 159.78 123.62 160.78 123.92 161.70 L 124.24 162.64 C 124.55 163.56 125.54 164.06 126.47 163.75 C 127.39 163.45 127.88 162.45 127.58 161.53 Z M 127.26 160.56 L 126.94 159.62 C 126.62 158.70 125.61 158.21 124.69 158.53 C 123.77 158.84 123.28 159.85 123.60 160.77 L 123.92 161.72 C 124.24 162.64 125.25 163.13 126.17 162.81 C 127.09 162.49 127.58 161.49 127.26 160.56 Z M 126.94 159.60 L 126.60 158.65 C 126.27 157.73 125.25 157.25 124.33 157.58 C 123.41 157.91 122.93 158.93 123.26 159.85 L 123.59 160.80 C 123.93 161.72 124.94 162.20 125.87 161.87 C 126.79 161.54 127.27 160.52 126.94 159.60 Z M 126.60 158.63 L 126.25 157.68 C 125.90 156.76 124.87 156.29 123.95 156.63 C 123.03 156.98 122.56 158.01 122.90 158.93 L 123.26 159.88 C 123.60 160.80 124.63 161.27 125.55 160.92 C 126.48 160.58 126.94 159.55 126.60 158.63 Z M 126.25 157.66 L 125.88 156.71 C 125.52 155.78 124.48 155.33 123.55 155.69 C 122.63 156.05 122.17 157.09 122.53 158.01 L 122.90 158.96 C 123.26 159.88 124.30 160.34 125.23 159.98 C 126.15 159.62 126.61 158.58 126.25 157.66 Z M 125.88 156.68 L 125.50 155.73 C 125.12 154.81 124.07 154.36 123.15 154.73 C 122.22 155.11 121.78 156.16 122.15 157.08 L 122.53 158.03 C 122.91 158.96 123.96 159.40 124.88 159.03 C 125.80 158.66 126.25 157.61 125.88 156.68 Z M 125.50 155.72 L 125.11 154.77 C 124.73 153.85 123.67 153.40 122.75 153.78 C 121.82 154.16 121.38 155.22 121.76 156.15 L 122.14 157.10 C 122.52 158.02 123.58 158.47 124.51 158.09 C 125.44 157.71 125.88 156.65 125.50 155.72 Z M 125.12 154.77 L 124.74 153.84 C 124.36 152.90 123.29 152.46 122.36 152.84 C 121.43 153.22 120.98 154.29 121.36 155.22 L 121.75 156.16 C 122.13 157.09 123.20 157.53 124.13 157.15 C 125.06 156.77 125.51 155.70 125.12 154.77 Z M 124.75 153.84 L 124.38 152.92 C 124.00 151.98 122.93 151.52 121.99 151.90 C 121.05 152.28 120.60 153.35 120.98 154.29 L 121.35 155.21 C 121.73 156.15 122.80 156.61 123.74 156.23 C 124.68 155.85 125.13 154.78 124.75 153.84 Z M 124.40 152.94 L 124.05 152.03 C 123.68 151.08 122.61 150.61 121.66 150.98 C 120.71 151.35 120.24 152.42 120.61 153.37 L 120.96 154.27 C 121.33 155.22 122.40 155.70 123.35 155.33 C 124.30 154.96 124.77 153.89 124.40 152.94 Z M 124.07 152.07 L 123.72 151.10 C 123.37 150.13 122.30 149.63 121.34 149.99 C 120.38 150.34 119.88 151.40 120.23 152.36 L 120.58 153.33 C 120.93 154.30 122.00 154.80 122.96 154.44 C 123.93 154.09 124.42 153.03 124.07 152.07 Z M 123.75 151.17 L 123.40 150.06 C 123.10 149.07 122.05 148.53 121.07 148.83 C 120.09 149.14 119.54 150.19 119.85 151.17 L 120.20 152.29 C 120.50 153.27 121.55 153.82 122.53 153.51 C 123.51 153.20 124.06 152.16 123.75 151.17 Z M 123.46 150.23 L 123.24 149.20 C 123.03 148.18 122.04 147.54 121.03 147.75 C 120.02 147.96 119.37 148.95 119.58 149.96 L 119.80 150.99 C 120.01 152.01 121.00 152.65 122.01 152.44 C 123.02 152.23 123.67 151.24 123.46 150.23 Z M 123.28 149.53 L 123.26 148.60 C 123.23 147.56 122.37 146.75 121.33 146.77 C 120.30 146.80 119.48 147.66 119.51 148.70 L 119.54 149.63 C 119.56 150.66 120.43 151.48 121.46 151.45 C 122.50 151.42 123.31 150.56 123.28 149.53 Z M 123.19 149.16 L 123.42 148.37 C 123.70 147.38 123.12 146.34 122.12 146.05 C 121.12 145.77 120.08 146.35 119.80 147.35 L 119.58 148.14 C 119.29 149.13 119.87 150.17 120.87 150.46 C 121.87 150.74 122.91 150.16 123.19 149.16 Z M 123.07 149.05 L 123.52 148.49 C 124.18 147.68 124.05 146.50 123.24 145.84 C 122.43 145.19 121.25 145.31 120.59 146.12 L 120.14 146.68 C 119.49 147.49 119.61 148.67 120.42 149.33 C 121.23 149.98 122.42 149.86 123.07 149.05 Z M 123.06 148.91 L 123.67 148.52 C 124.55 147.97 124.82 146.81 124.27 145.93 C 123.71 145.04 122.55 144.78 121.67 145.33 L 121.06 145.71 C 120.18 146.26 119.91 147.42 120.46 148.31 C 121.01 149.19 122.17 149.46 123.06 148.91 Z M 123.31 148.70 L 124.11 148.41 C 125.09 148.05 125.59 146.97 125.23 145.99 C 124.88 145.01 123.80 144.51 122.82 144.86 L 122.02 145.15 C 121.05 145.51 120.54 146.59 120.90 147.57 C 121.25 148.55 122.33 149.05 123.31 148.70 Z M 123.87 148.48 L 124.84 148.26 C 125.85 148.04 126.50 147.03 126.27 146.02 C 126.05 145.00 125.04 144.36 124.03 144.58 L 123.06 144.80 C 122.04 145.02 121.40 146.02 121.62 147.04 C 121.85 148.06 122.85 148.70 123.87 148.48 Z M 124.68 148.29 L 125.81 148.14 C 126.84 148.00 127.57 147.05 127.43 146.02 C 127.29 144.99 126.34 144.27 125.31 144.40 L 124.18 144.56 C 123.15 144.69 122.43 145.64 122.57 146.67 C 122.70 147.70 123.65 148.43 124.68 148.29 Z M 125.72 148.15 L 126.99 148.04 C 128.03 147.96 128.80 147.05 128.71 146.01 C 128.63 144.98 127.72 144.20 126.68 144.29 L 125.41 144.39 C 124.37 144.48 123.60 145.39 123.68 146.43 C 123.77 147.46 124.68 148.23 125.72 148.15 Z M 126.94 148.05 L 128.09 147.98 C 129.12 147.93 129.92 147.04 129.87 146.00 C 129.81 144.97 128.92 144.17 127.88 144.22 L 126.74 144.29 C 125.70 144.34 124.90 145.23 124.96 146.27 C 125.01 147.31 125.90 148.10 126.94 148.05 Z M 128.06 147.98 L 129.03 147.95 C 130.07 147.91 130.88 147.03 130.84 145.99 C 130.80 144.96 129.92 144.15 128.88 144.19 L 127.91 144.23 C 126.87 144.27 126.07 145.14 126.11 146.18 C 126.15 147.22 127.02 148.02 128.06 147.98 Z M 129.01 147.94 L 130.02 147.91 C 131.06 147.88 131.87 147.02 131.84 145.98 C 131.81 144.95 130.95 144.13 129.91 144.16 L 128.90 144.19 C 127.87 144.22 127.05 145.08 127.08 146.12 C 127.11 147.16 127.98 147.97 129.01 147.94 Z M 130.01 147.91 L 131.04 147.89 C 132.07 147.87 132.90 147.01 132.87 145.98 C 132.85 144.94 131.99 144.12 130.96 144.14 L 129.93 144.16 C 128.89 144.18 128.07 145.04 128.09 146.08 C 128.11 147.11 128.97 147.93 130.01 147.91 Z M 131.03 147.89 L 132.07 147.87 C 133.10 147.86 133.93 147.01 133.91 145.97 C 133.90 144.94 133.05 144.11 132.01 144.13 L 130.97 144.14 C 129.94 144.16 129.11 145.01 129.12 146.04 C 129.14 147.08 129.99 147.90 131.03 147.89 Z M 132.06 147.87 L 133.10 147.86 C 134.13 147.85 134.96 147.01 134.95 145.97 C 134.94 144.94 134.10 144.11 133.06 144.12 L 132.02 144.13 C 130.99 144.14 130.16 144.98 130.17 146.02 C 130.18 147.05 131.03 147.88 132.06 147.87 Z M 133.09 147.86 L 134.12 147.85 C 135.15 147.85 135.98 147.01 135.98 145.97 C 135.97 144.94 135.13 144.11 134.10 144.12 L 133.07 144.12 C 132.04 144.13 131.21 144.97 131.21 146.00 C 131.22 147.03 132.06 147.87 133.09 147.86 Z M 134.11 147.85 L 135.11 147.85 C 136.14 147.85 136.98 147.01 136.98 145.98 C 136.97 144.95 136.13 144.11 135.10 144.12 L 134.10 144.12 C 133.07 144.12 132.24 144.96 132.24 145.99 C 132.24 147.02 133.08 147.85 134.11 147.85 Z M 135.11 147.85 L 136.07 147.85 C 137.10 147.84 137.94 147.01 137.93 145.98 C 137.93 144.95 137.10 144.12 136.07 144.12 L 135.11 144.12 C 134.08 144.12 133.24 144.95 133.24 145.98 C 133.25 147.01 134.08 147.85 135.11 147.85 Z M 136.07 147.84 L 137.09 147.84 C 138.12 147.84 138.95 147.01 138.95 145.98 C 138.95 144.95 138.12 144.12 137.09 144.12 L 136.07 144.12 C 135.04 144.12 134.21 144.95 134.21 145.98 C 134.21 147.01 135.04 147.84 136.07 147.84 Z M 137.09 147.84 L 138.25 147.84 C 139.28 147.84 140.11 147.01 140.11 145.98 C 140.11 144.96 139.28 144.13 138.25 144.13 L 137.09 144.13 C 136.07 144.12 135.24 144.96 135.24 145.98 C 135.24 147.00 136.07 147.84 137.09 147.84 Z M 138.25 147.83 L 139.32 147.83 C 140.34 147.83 141.17 147.01 141.17 145.99 C 141.17 144.97 140.35 144.14 139.33 144.14 L 138.26 144.13 C 137.24 144.13 136.41 144.96 136.40 145.98 C 136.40 147.00 137.23 147.83 138.25 147.83 Z M 139.31 147.82 L 140.31 147.83 C 141.32 147.84 142.15 147.02 142.16 146.00 C 142.16 144.99 141.35 144.16 140.33 144.15 L 139.33 144.14 C 138.32 144.14 137.49 144.96 137.48 145.97 C 137.47 146.99 138.29 147.82 139.31 147.82 Z M 140.30 147.82 L 141.24 147.83 C 142.25 147.85 143.08 147.04 143.09 146.02 C 143.10 145.01 142.29 144.18 141.28 144.17 L 140.34 144.16 C 139.33 144.15 138.50 144.96 138.48 145.97 C 138.47 146.98 139.28 147.81 140.30 147.82 Z M 141.22 147.83 L 142.13 147.84 C 143.13 147.86 143.97 147.06 143.99 146.06 C 144.01 145.05 143.21 144.21 142.20 144.19 L 141.29 144.18 C 140.29 144.16 139.45 144.96 139.43 145.97 C 139.41 146.97 140.21 147.81 141.22 147.83 Z M 142.11 147.84 L 143.00 147.86 C 144.00 147.89 144.84 147.10 144.87 146.10 C 144.89 145.09 144.10 144.26 143.10 144.23 L 142.22 144.20 C 141.21 144.17 140.38 144.96 140.35 145.97 C 140.32 146.97 141.11 147.81 142.11 147.84 Z M 142.97 147.85 L 143.92 147.89 C 144.92 147.93 145.76 147.16 145.80 146.16 C 145.84 145.16 145.07 144.32 144.07 144.27 L 143.12 144.24 C 142.12 144.20 141.28 144.97 141.24 145.97 C 141.20 146.97 141.98 147.81 142.97 147.85 Z M 143.89 147.89 L 144.87 147.94 C 145.87 148.00 146.72 147.23 146.78 146.24 C 146.83 145.24 146.07 144.39 145.07 144.34 L 144.10 144.28 C 143.10 144.23 142.25 144.99 142.19 145.98 C 142.14 146.98 142.90 147.83 143.89 147.89 Z M 144.84 147.93 L 145.82 148.01 C 146.82 148.08 147.68 147.34 147.75 146.35 C 147.83 145.35 147.08 144.49 146.09 144.42 L 145.11 144.34 C 144.12 144.27 143.25 145.01 143.18 146.00 C 143.10 147.00 143.85 147.86 144.84 147.93 Z M 145.79 148.00 L 146.78 148.09 C 147.77 148.19 148.64 147.47 148.74 146.48 C 148.84 145.50 148.11 144.62 147.13 144.52 L 146.13 144.43 C 145.15 144.33 144.27 145.05 144.17 146.04 C 144.08 147.02 144.80 147.90 145.79 148.00 Z M 146.73 148.08 L 147.74 148.21 C 148.72 148.33 149.61 147.63 149.73 146.65 C 149.86 145.67 149.16 144.78 148.18 144.66 L 147.17 144.53 C 146.19 144.41 145.30 145.11 145.18 146.09 C 145.06 147.07 145.75 147.96 146.73 148.08 Z M 147.69 148.20 L 148.70 148.35 C 149.68 148.50 150.59 147.83 150.74 146.86 C 150.89 145.88 150.22 144.97 149.24 144.82 L 148.23 144.67 C 147.25 144.52 146.34 145.19 146.19 146.16 C 146.05 147.14 146.71 148.05 147.69 148.20 Z M 148.65 148.34 L 149.64 148.52 C 150.61 148.70 151.53 148.06 151.71 147.09 C 151.89 146.12 151.25 145.20 150.28 145.02 L 149.30 144.84 C 148.33 144.66 147.40 145.30 147.22 146.26 C 147.05 147.23 147.68 148.16 148.65 148.34 Z M 149.59 148.51 L 150.57 148.72 C 151.53 148.92 152.47 148.31 152.68 147.35 C 152.88 146.39 152.27 145.45 151.31 145.24 L 150.34 145.03 C 149.38 144.83 148.43 145.44 148.23 146.40 C 148.02 147.36 148.63 148.30 149.59 148.51 Z M 150.52 148.70 L 151.50 148.94 C 152.45 149.17 153.41 148.59 153.64 147.64 C 153.87 146.69 153.29 145.73 152.34 145.50 L 151.36 145.26 C 150.41 145.03 149.45 145.61 149.22 146.56 C 148.99 147.51 149.57 148.47 150.52 148.70 Z M 151.46 148.92 L 152.43 149.19 C 153.37 149.44 154.35 148.89 154.60 147.94 C 154.86 147.00 154.30 146.03 153.36 145.78 L 152.38 145.51 C 151.44 145.26 150.47 145.81 150.21 146.76 C 149.96 147.70 150.52 148.67 151.46 148.92 Z M 152.39 149.17 L 153.35 149.46 C 154.29 149.74 155.27 149.21 155.55 148.27 C 155.83 147.34 155.30 146.36 154.36 146.08 L 153.40 145.79 C 152.47 145.51 151.48 146.04 151.20 146.98 C 150.93 147.91 151.46 148.89 152.39 149.17 Z M 153.31 149.44 L 154.26 149.75 C 155.18 150.05 156.18 149.55 156.48 148.62 C 156.78 147.70 156.27 146.71 155.35 146.40 L 154.40 146.10 C 153.48 145.80 152.49 146.30 152.18 147.22 C 151.88 148.15 152.39 149.14 153.31 149.44 Z M 154.22 149.73 L 155.16 150.07 C 156.08 150.39 157.08 149.91 157.40 149.00 C 157.73 148.08 157.25 147.08 156.33 146.76 L 155.39 146.42 C 154.47 146.10 153.47 146.58 153.15 147.49 C 152.82 148.41 153.30 149.41 154.22 149.73 Z M 155.12 150.05 L 156.08 150.42 C 156.99 150.77 158.00 150.32 158.35 149.41 C 158.70 148.51 158.25 147.49 157.34 147.15 L 156.38 146.77 C 155.47 146.43 154.46 146.88 154.11 147.78 C 153.76 148.69 154.21 149.70 155.12 150.05 Z M 156.04 150.40 L 156.97 150.79 C 157.86 151.16 158.89 150.74 159.26 149.85 C 159.64 148.96 159.22 147.93 158.32 147.56 L 157.39 147.17 C 156.50 146.79 155.47 147.21 155.09 148.11 C 154.72 149.00 155.14 150.03 156.04 150.40 Z M 156.92 150.77 L 157.83 151.18 C 158.71 151.58 159.75 151.19 160.15 150.31 C 160.55 149.43 160.16 148.39 159.28 147.99 L 158.37 147.58 C 157.49 147.18 156.45 147.57 156.05 148.45 C 155.65 149.33 156.04 150.37 156.92 150.77 Z M 157.78 151.16 L 158.67 151.59 C 159.53 152.02 160.58 151.66 161.01 150.79 C 161.44 149.93 161.08 148.88 160.21 148.45 L 159.33 148.01 C 158.46 147.59 157.41 147.95 156.98 148.81 C 156.56 149.68 156.91 150.73 157.78 151.16 Z M 158.62 151.56 L 159.48 152.02 C 160.33 152.48 161.39 152.15 161.84 151.30 C 162.30 150.45 161.97 149.39 161.12 148.93 L 160.26 148.48 C 159.41 148.02 158.35 148.35 157.89 149.20 C 157.44 150.05 157.76 151.11 158.62 151.56 Z M 159.43 151.99 L 160.28 152.48 C 161.12 152.96 162.19 152.68 162.67 151.84 C 163.15 151.00 162.86 149.93 162.02 149.45 L 161.17 148.96 C 160.33 148.48 159.26 148.77 158.78 149.61 C 158.30 150.44 158.59 151.51 159.43 151.99 Z M 160.23 152.45 L 161.08 152.98 C 161.90 153.49 162.98 153.24 163.49 152.42 C 164.00 151.60 163.74 150.52 162.92 150.01 L 162.07 149.48 C 161.25 148.97 160.18 149.23 159.67 150.05 C 159.16 150.87 159.41 151.94 160.23 152.45 Z M 161.02 152.95 L 161.85 153.50 C 162.65 154.04 163.74 153.83 164.28 153.03 C 164.82 152.23 164.61 151.14 163.81 150.60 L 162.98 150.04 C 162.18 149.50 161.09 149.72 160.55 150.52 C 160.01 151.32 160.22 152.41 161.02 152.95 Z M 161.79 153.46 L 162.59 154.05 C 163.37 154.63 164.47 154.46 165.04 153.68 C 165.61 152.90 165.45 151.80 164.67 151.23 L 163.86 150.64 C 163.08 150.07 161.99 150.24 161.42 151.02 C 160.84 151.80 161.01 152.89 161.79 153.46 Z M 162.53 154.01 L 163.31 154.63 C 164.07 155.24 165.17 155.12 165.78 154.36 C 166.38 153.61 166.26 152.51 165.51 151.90 L 164.73 151.28 C 163.97 150.67 162.87 150.79 162.26 151.55 C 161.66 152.30 161.78 153.40 162.53 154.01 Z M 163.25 154.58 L 164.01 155.25 C 164.73 155.89 165.84 155.82 166.48 155.09 C 167.12 154.36 167.05 153.25 166.32 152.61 L 165.57 151.95 C 164.84 151.31 163.73 151.38 163.09 152.11 C 162.45 152.84 162.53 153.95 163.25 154.58 Z M 163.95 155.19 L 164.67 155.89 C 165.37 156.56 166.48 156.54 167.15 155.85 C 167.82 155.15 167.80 154.04 167.11 153.36 L 166.38 152.67 C 165.69 151.99 164.57 152.01 163.90 152.71 C 163.23 153.41 163.25 154.52 163.95 155.19 Z M 164.61 155.83 L 165.30 156.56 C 165.96 157.27 167.07 157.31 167.78 156.64 C 168.49 155.97 168.52 154.86 167.86 154.15 L 167.17 153.42 C 166.50 152.71 165.39 152.68 164.68 153.35 C 163.97 154.01 163.94 155.13 164.61 155.83 Z M 165.23 156.50 L 165.89 157.27 C 166.52 158.01 167.63 158.10 168.37 157.47 C 169.11 156.83 169.20 155.72 168.57 154.98 L 167.92 154.21 C 167.28 153.47 166.17 153.39 165.43 154.02 C 164.69 154.65 164.60 155.76 165.23 156.50 Z M 165.83 157.20 L 166.44 158.00 C 167.03 158.77 168.14 158.92 168.92 158.32 C 169.69 157.73 169.84 156.62 169.24 155.84 L 168.63 155.05 C 168.04 154.27 166.93 154.13 166.15 154.72 C 165.38 155.32 165.23 156.43 165.83 157.20 Z M 166.38 157.92 L 166.94 158.74 C 167.49 159.55 168.60 159.76 169.40 159.20 C 170.21 158.65 170.42 157.55 169.86 156.74 L 169.30 155.92 C 168.75 155.11 167.65 154.91 166.84 155.46 C 166.03 156.01 165.83 157.11 166.38 157.92 Z M 166.88 158.66 L 167.39 159.51 C 167.90 160.35 168.99 160.62 169.83 160.11 C 170.67 159.60 170.94 158.51 170.43 157.67 L 169.92 156.83 C 169.42 155.99 168.33 155.72 167.49 156.22 C 166.65 156.73 166.38 157.82 166.88 158.66 Z M 167.34 159.41 L 167.80 160.29 C 168.25 161.17 169.32 161.50 170.20 161.05 C 171.07 160.60 171.41 159.52 170.95 158.65 L 170.49 157.77 C 170.04 156.90 168.96 156.56 168.09 157.01 C 167.22 157.47 166.88 158.54 167.34 159.41 Z M 167.74 160.19 L 168.14 161.10 C 168.54 162.00 169.60 162.41 170.50 162.01 C 171.40 161.61 171.80 160.56 171.41 159.66 L 171.00 158.75 C 170.61 157.85 169.55 157.44 168.65 157.84 C 167.75 158.24 167.34 159.29 167.74 160.19 Z M 168.10 161.00 L 168.44 161.93 C 168.79 162.85 169.81 163.33 170.74 162.98 C 171.67 162.64 172.14 161.61 171.79 160.69 L 171.45 159.76 C 171.11 158.83 170.08 158.36 169.15 158.70 C 168.23 159.05 167.76 160.07 168.10 161.00 Z M 168.41 161.83 L 168.69 162.78 C 168.98 163.73 169.98 164.26 170.93 163.98 C 171.88 163.69 172.41 162.69 172.12 161.74 L 171.83 160.79 C 171.55 159.84 170.55 159.31 169.60 159.59 C 168.65 159.88 168.12 160.88 168.41 161.83 Z M 168.66 162.68 L 168.90 163.66 C 169.13 164.63 170.10 165.22 171.07 164.99 C 172.03 164.75 172.62 163.78 172.39 162.82 L 172.15 161.84 C 171.92 160.88 170.95 160.28 169.99 160.52 C 169.02 160.75 168.43 161.72 168.66 162.68 Z M 168.88 163.57 L 169.06 164.55 C 169.24 165.53 170.18 166.17 171.16 165.99 C 172.14 165.80 172.78 164.86 172.60 163.89 L 172.41 162.91 C 172.23 161.93 171.29 161.29 170.32 161.47 C 169.34 161.66 168.70 162.59 168.88 163.57 Z M 169.04 164.47 L 169.17 165.39 C 169.31 166.38 170.22 167.06 171.21 166.92 C 172.19 166.79 172.88 165.88 172.74 164.89 L 172.61 163.97 C 172.47 162.98 171.56 162.30 170.58 162.43 C 169.59 162.57 168.91 163.48 169.04 164.47 Z M 169.16 165.32 L 169.26 166.27 C 169.36 167.26 170.25 167.98 171.24 167.88 C 172.23 167.78 172.95 166.89 172.85 165.90 L 172.75 164.96 C 172.65 163.96 171.76 163.24 170.77 163.35 C 169.78 163.45 169.06 164.33 169.16 165.32 Z M 169.25 166.22 L 169.32 167.20 C 169.40 168.19 170.26 168.94 171.26 168.87 C 172.25 168.79 173.00 167.93 172.93 166.94 L 172.86 165.96 C 172.78 164.96 171.92 164.21 170.92 164.29 C 169.93 164.36 169.18 165.22 169.25 166.22 Z M 169.32 167.15 L 169.37 168.16 C 169.42 169.16 170.26 169.93 171.26 169.88 C 172.26 169.83 173.03 168.99 172.98 167.99 L 172.93 166.98 C 172.88 165.98 172.03 165.21 171.04 165.26 C 170.04 165.31 169.27 166.16 169.32 167.15 Z M 169.37 168.13 L 169.40 169.18 C 169.43 170.18 170.26 170.96 171.26 170.93 C 172.26 170.90 173.05 170.07 173.02 169.07 L 172.98 168.02 C 172.95 167.02 172.12 166.24 171.12 166.27 C 170.12 166.30 169.33 167.13 169.37 168.13 Z M 169.40 169.16 L 169.42 170.25 C 169.44 171.25 170.26 172.04 171.27 172.02 C 172.27 172.00 173.06 171.17 173.04 170.17 L 173.02 169.09 C 173.00 168.09 172.17 167.29 171.17 167.31 C 170.17 167.33 169.38 168.16 169.40 169.16 Z M 169.42 170.23 L 169.43 171.17 C 169.44 172.17 170.26 172.97 171.26 172.96 C 172.27 172.94 173.07 172.12 173.05 171.12 L 173.04 170.19 C 173.03 169.18 172.21 168.38 171.21 168.40 C 170.20 168.41 169.40 169.23 169.42 170.23 Z M 169.43 171.15 L 169.43 172.09 C 169.43 173.09 170.25 173.90 171.25 173.90 C 172.25 173.89 173.06 173.08 173.06 172.08 L 173.06 171.14 C 173.05 170.13 172.24 169.32 171.24 169.33 C 170.23 169.33 169.42 170.15 169.43 171.15 Z M 169.43 172.06 L 169.42 173.03 C 169.40 174.03 170.21 174.85 171.21 174.86 C 172.21 174.88 173.03 174.08 173.05 173.07 L 173.06 172.11 C 173.07 171.10 172.27 170.28 171.27 170.27 C 170.26 170.26 169.44 171.06 169.43 172.06 Z M 169.42 172.99 L 169.38 173.98 C 169.35 174.98 170.13 175.82 171.14 175.85 C 172.14 175.89 172.98 175.10 173.01 174.10 L 173.05 173.11 C 173.08 172.11 172.30 171.27 171.29 171.23 C 170.29 171.20 169.45 171.99 169.42 172.99 Z M 169.38 173.93 L 169.32 174.94 C 169.26 175.94 170.03 176.80 171.03 176.86 C 172.03 176.92 172.89 176.16 172.95 175.16 L 173.01 174.15 C 173.07 173.15 172.31 172.28 171.31 172.23 C 170.30 172.17 169.44 172.93 169.38 173.93 Z M 169.33 174.89 L 169.23 175.92 C 169.14 176.92 169.88 177.80 170.88 177.89 C 171.88 177.98 172.76 177.25 172.86 176.25 L 172.95 175.21 C 173.04 174.21 172.30 173.33 171.30 173.24 C 170.30 173.15 169.42 173.89 169.33 174.89 Z M 169.24 175.85 L 169.11 176.90 C 168.98 177.90 169.69 178.81 170.68 178.93 C 171.68 179.06 172.59 178.35 172.72 177.36 L 172.85 176.31 C 172.97 175.31 172.27 174.40 171.27 174.28 C 170.28 174.15 169.37 174.86 169.24 175.85 Z M 169.12 176.83 L 168.94 177.89 C 168.78 178.88 169.45 179.82 170.44 179.98 C 171.43 180.15 172.37 179.48 172.53 178.49 L 172.71 177.43 C 172.87 176.44 172.20 175.50 171.21 175.34 C 170.22 175.17 169.28 175.84 169.12 176.83 Z M 168.95 177.82 L 168.74 178.83 C 168.54 179.81 169.17 180.78 170.16 180.98 C 171.14 181.18 172.10 180.55 172.31 179.57 L 172.52 178.56 C 172.72 177.58 172.09 176.61 171.11 176.41 C 170.12 176.20 169.16 176.84 168.95 177.82 Z M 168.76 178.77 L 168.51 179.78 C 168.27 180.76 168.87 181.74 169.85 181.98 C 170.83 182.22 171.81 181.62 172.05 180.64 L 172.29 179.63 C 172.53 178.65 171.93 177.67 170.96 177.43 C 169.98 177.19 169.00 177.79 168.76 178.77 Z M 168.53 179.73 L 168.25 180.74 C 167.98 181.70 168.55 182.71 169.52 182.97 C 170.49 183.24 171.49 182.67 171.76 181.70 L 172.03 180.69 C 172.30 179.72 171.73 178.72 170.76 178.46 C 169.79 178.19 168.79 178.76 168.53 179.73 Z M 168.26 180.69 L 167.96 181.68 C 167.67 182.65 168.22 183.66 169.18 183.95 C 170.14 184.24 171.15 183.70 171.45 182.74 L 171.74 181.74 C 172.03 180.78 171.49 179.77 170.53 179.48 C 169.57 179.19 168.55 179.73 168.26 180.69 Z M 167.98 181.65 L 167.66 182.62 C 167.35 183.57 167.87 184.60 168.82 184.91 C 169.78 185.22 170.81 184.70 171.12 183.74 L 171.43 182.77 C 171.74 181.82 171.22 180.79 170.27 180.48 C 169.31 180.17 168.29 180.69 167.98 181.65 Z M 167.67 182.58 L 167.35 183.52 C 167.02 184.47 167.52 185.50 168.47 185.83 C 169.41 186.16 170.45 185.66 170.78 184.71 L 171.11 183.78 C 171.43 182.83 170.93 181.79 169.98 181.46 C 169.04 181.13 168.00 181.63 167.67 182.58 Z M 167.36 183.49 L 167.03 184.39 C 166.68 185.33 167.17 186.38 168.11 186.72 C 169.05 187.07 170.10 186.58 170.44 185.64 L 170.77 184.74 C 171.11 183.80 170.63 182.75 169.69 182.41 C 168.74 182.07 167.70 182.55 167.36 183.49 Z M 167.04 184.37 L 166.71 185.21 C 166.35 186.15 166.82 187.20 167.76 187.56 C 168.70 187.92 169.75 187.45 170.11 186.51 L 170.43 185.66 C 170.79 184.73 170.32 183.68 169.38 183.32 C 168.45 182.96 167.40 183.43 167.04 184.37 Z M 166.72 185.19 L 166.32 186.21 C 165.94 187.14 166.40 188.20 167.33 188.57 C 168.26 188.94 169.32 188.49 169.69 187.56 L 170.10 186.53 C 170.47 185.60 170.01 184.55 169.08 184.18 C 168.15 183.80 167.09 184.26 166.72 185.19 Z M 166.33 186.19 L 165.91 187.19 C 165.52 188.12 165.96 189.18 166.88 189.56 C 167.81 189.95 168.87 189.51 169.25 188.59 L 169.67 187.58 C 170.06 186.66 169.62 185.60 168.70 185.21 C 167.78 184.83 166.72 185.26 166.33 186.19 Z M 165.92 187.17 L 165.52 188.10 C 165.12 189.01 165.54 190.08 166.45 190.48 C 167.37 190.88 168.43 190.46 168.83 189.54 L 169.24 188.62 C 169.64 187.70 169.22 186.64 168.31 186.24 C 167.39 185.84 166.32 186.25 165.92 187.17 Z M 165.53 188.07 L 165.14 188.94 C 164.73 189.85 165.13 190.92 166.04 191.33 C 166.94 191.74 168.01 191.34 168.43 190.43 L 168.82 189.57 C 169.23 188.66 168.83 187.59 167.92 187.18 C 167.02 186.76 165.95 187.17 165.53 188.07 Z M 165.15 188.92 L 164.76 189.76 C 164.34 190.66 164.73 191.73 165.63 192.15 C 166.53 192.57 167.60 192.18 168.02 191.28 L 168.41 190.45 C 168.83 189.55 168.45 188.48 167.54 188.06 C 166.64 187.64 165.57 188.02 165.15 188.92 Z M 164.77 189.75 L 164.38 190.57 C 163.96 191.46 164.34 192.53 165.23 192.96 C 166.13 193.39 167.20 193.01 167.63 192.11 L 168.02 191.29 C 168.44 190.39 168.06 189.32 167.16 188.90 C 166.27 188.47 165.20 188.85 164.77 189.75 Z M 164.39 190.57 L 163.97 191.44 C 163.54 192.33 163.92 193.40 164.81 193.83 C 165.71 194.26 166.78 193.88 167.21 192.98 L 167.62 192.11 C 168.05 191.22 167.67 190.15 166.78 189.72 C 165.88 189.29 164.81 189.67 164.39 190.57 Z M 163.97 191.44 L 163.55 192.33 C 163.12 193.22 163.49 194.29 164.38 194.72 C 165.28 195.15 166.34 194.77 166.77 193.88 L 167.20 192.99 C 167.63 192.09 167.25 191.03 166.36 190.60 C 165.47 190.17 164.40 190.55 163.97 191.44 Z M 163.55 192.33 L 163.11 193.23 C 162.68 194.12 163.06 195.18 163.94 195.61 C 164.83 196.04 165.90 195.67 166.33 194.78 L 166.77 193.88 C 167.20 193.00 166.82 191.93 165.94 191.50 C 165.05 191.07 163.98 191.44 163.55 192.33 Z M 163.12 193.22 L 162.68 194.13 C 162.25 195.01 162.61 196.08 163.49 196.51 C 164.38 196.94 165.45 196.58 165.88 195.70 L 166.32 194.79 C 166.76 193.91 166.39 192.84 165.51 192.41 C 164.62 191.97 163.55 192.34 163.12 193.22 Z M 162.69 194.12 L 162.24 195.02 C 161.80 195.90 162.16 196.97 163.03 197.41 C 163.91 197.85 164.98 197.49 165.42 196.61 L 165.87 195.70 C 166.31 194.83 165.95 193.76 165.07 193.32 C 164.19 192.88 163.12 193.24 162.69 194.12 Z M 162.25 195.01 L 161.79 195.90 C 161.35 196.78 161.69 197.85 162.57 198.29 C 163.44 198.74 164.51 198.39 164.96 197.52 L 165.41 196.62 C 165.86 195.75 165.51 194.68 164.63 194.23 C 163.76 193.79 162.69 194.14 162.25 195.01 Z M 161.80 195.89 L 161.34 196.77 C 160.89 197.64 161.23 198.71 162.10 199.16 C 162.97 199.61 164.04 199.28 164.49 198.41 L 164.94 197.53 C 165.40 196.66 165.06 195.59 164.19 195.14 C 163.32 194.69 162.25 195.03 161.80 195.89 Z M 161.35 196.77 L 160.89 197.65 C 160.43 198.51 160.76 199.58 161.63 200.03 C 162.49 200.49 163.56 200.16 164.02 199.29 L 164.48 198.42 C 164.93 197.55 164.60 196.48 163.74 196.03 C 162.88 195.57 161.81 195.90 161.35 196.77 Z M 160.89 197.64 L 160.43 198.52 C 159.97 199.38 160.30 200.45 161.16 200.91 C 162.02 201.36 163.09 201.04 163.54 200.18 L 164.01 199.30 C 164.47 198.44 164.14 197.37 163.28 196.91 C 162.42 196.45 161.35 196.78 160.89 197.64 Z M 160.43 198.53 L 159.96 199.41 C 159.50 200.27 159.83 201.33 160.69 201.79 C 161.55 202.25 162.61 201.92 163.07 201.06 L 163.54 200.17 C 164.00 199.32 163.67 198.25 162.81 197.80 C 161.95 197.34 160.89 197.67 160.43 198.53 Z M 159.96 199.42 L 159.49 200.31 C 159.04 201.17 159.37 202.23 160.22 202.68 C 161.08 203.14 162.15 202.81 162.60 201.95 L 163.07 201.05 C 163.52 200.20 163.19 199.13 162.33 198.68 C 161.48 198.23 160.41 198.56 159.96 199.42 Z M 159.49 200.32 L 159.02 201.22 C 158.58 202.08 158.91 203.13 159.77 203.58 C 160.63 204.03 161.69 203.69 162.13 202.84 L 162.60 201.94 C 163.04 201.08 162.71 200.02 161.85 199.58 C 160.99 199.13 159.94 199.46 159.49 200.32 Z M 159.02 201.23 L 158.56 202.13 C 158.12 202.99 158.46 204.04 159.31 204.48 C 160.17 204.92 161.23 204.58 161.67 203.73 L 162.13 202.83 C 162.57 201.97 162.24 200.91 161.38 200.47 C 160.52 200.03 159.46 200.37 159.02 201.23 Z M 158.56 202.13 L 158.10 203.03 C 157.66 203.89 158.00 204.94 158.86 205.38 C 159.72 205.82 160.77 205.48 161.21 204.62 L 161.67 203.72 C 162.11 202.86 161.77 201.81 160.91 201.37 C 160.05 200.94 159.00 201.28 158.56 202.13 Z M 158.10 203.04 L 157.65 203.93 C 157.21 204.79 157.55 205.84 158.40 206.27 C 159.26 206.71 160.31 206.37 160.74 205.52 L 161.20 204.62 C 161.64 203.76 161.30 202.72 160.44 202.28 C 159.59 201.84 158.54 202.18 158.10 203.04 Z M 157.65 203.93 L 157.20 204.81 C 156.76 205.67 157.10 206.71 157.95 207.15 C 158.80 207.59 159.85 207.25 160.29 206.40 L 160.74 205.52 C 161.18 204.66 160.84 203.62 159.99 203.18 C 159.14 202.74 158.09 203.08 157.65 203.93 Z M 157.21 204.81 L 156.76 205.67 C 156.32 206.52 156.65 207.57 157.50 208.01 C 158.35 208.45 159.39 208.12 159.83 207.27 L 160.28 206.40 C 160.72 205.56 160.39 204.51 159.54 204.07 C 158.69 203.63 157.65 203.96 157.21 204.81 Z M 156.77 205.67 L 156.33 206.50 C 155.89 207.34 156.21 208.38 157.05 208.83 C 157.90 209.27 158.94 208.95 159.38 208.10 L 159.82 207.27 C 160.27 206.43 159.94 205.39 159.10 204.94 C 158.26 204.50 157.21 204.82 156.77 205.67 Z M 156.34 206.49 L 155.90 207.31 C 155.45 208.15 155.77 209.19 156.60 209.64 C 157.44 210.09 158.48 209.77 158.93 208.94 L 159.37 208.11 C 159.82 207.27 159.51 206.23 158.67 205.78 C 157.83 205.34 156.79 205.65 156.34 206.49 Z M 155.91 207.31 L 155.45 208.15 C 155.00 208.98 155.31 210.02 156.14 210.47 C 156.97 210.92 158.01 210.61 158.47 209.78 L 158.92 208.94 C 159.37 208.11 159.06 207.07 158.23 206.62 C 157.40 206.17 156.36 206.48 155.91 207.31 Z M 155.46 208.14 L 154.98 209.02 C 154.53 209.85 154.83 210.88 155.66 211.34 C 156.49 211.79 157.52 211.49 157.98 210.66 L 158.46 209.79 C 158.91 208.96 158.61 207.92 157.78 207.47 C 156.95 207.01 155.92 207.32 155.46 208.14 Z M 154.99 209.02 L 154.48 209.95 C 154.02 210.77 154.32 211.81 155.14 212.26 C 155.96 212.72 157.00 212.42 157.46 211.59 L 157.97 210.66 C 158.42 209.84 158.13 208.80 157.30 208.35 C 156.48 207.89 155.44 208.19 154.99 209.02 Z M 154.48 209.95 L 153.96 210.89 C 153.50 211.71 153.80 212.75 154.62 213.20 C 155.44 213.66 156.47 213.36 156.92 212.54 L 157.45 211.59 C 157.90 210.78 157.61 209.74 156.79 209.29 C 155.97 208.83 154.94 209.13 154.48 209.95 Z M 153.96 210.89 L 153.51 211.70 C 153.06 212.52 153.35 213.55 154.17 214.00 C 154.99 214.45 156.02 214.16 156.47 213.34 L 156.92 212.54 C 157.37 211.72 157.08 210.69 156.26 210.24 C 155.45 209.78 154.42 210.08 153.96 210.89 Z M 153.52 211.70 L 153.05 212.54 C 152.59 213.36 152.88 214.38 153.70 214.84 C 154.51 215.29 155.54 215.00 155.99 214.19 L 156.47 213.34 C 156.92 212.53 156.63 211.50 155.82 211.05 C 155.00 210.59 153.97 210.89 153.52 211.70 Z M 153.05 212.54 L 152.56 213.41 C 152.11 214.22 152.40 215.25 153.21 215.71 C 154.02 216.16 155.04 215.87 155.50 215.06 L 155.99 214.19 C 156.44 213.38 156.16 212.35 155.34 211.90 C 154.53 211.44 153.51 211.73 153.05 212.54 Z M 152.57 213.41 L 152.07 214.30 C 151.61 215.11 151.89 216.14 152.70 216.59 C 153.51 217.05 154.53 216.76 154.99 215.96 L 155.49 215.06 C 155.95 214.26 155.66 213.23 154.86 212.78 C 154.05 212.32 153.03 212.61 152.57 213.41 Z M 152.07 214.30 L 151.56 215.20 C 151.10 216.01 151.38 217.03 152.18 217.49 C 152.99 217.94 154.01 217.66 154.47 216.86 L 154.98 215.96 C 155.44 215.16 155.16 214.13 154.36 213.68 C 153.55 213.22 152.53 213.50 152.07 214.30 Z M 151.57 215.20 L 151.05 216.10 C 150.59 216.90 150.86 217.92 151.66 218.38 C 152.46 218.84 153.48 218.56 153.94 217.76 L 154.46 216.86 C 154.92 216.06 154.64 215.04 153.85 214.58 C 153.05 214.12 152.03 214.40 151.57 215.20 Z M 151.06 216.09 L 150.54 216.98 C 150.08 217.78 150.35 218.80 151.14 219.26 C 151.93 219.72 152.95 219.45 153.42 218.66 L 153.93 217.77 C 154.40 216.97 154.13 215.96 153.33 215.49 C 152.54 215.03 151.52 215.30 151.06 216.09 Z M 150.55 216.98 L 150.03 217.86 C 149.56 218.65 149.82 219.67 150.61 220.13 C 151.40 220.60 152.42 220.34 152.89 219.55 L 153.41 218.67 C 153.87 217.88 153.61 216.86 152.82 216.39 C 152.03 215.93 151.01 216.19 150.55 216.98 Z M 150.04 217.86 L 149.52 218.73 C 149.05 219.51 149.30 220.53 150.08 220.99 C 150.87 221.46 151.88 221.21 152.35 220.43 L 152.87 219.55 C 153.34 218.77 153.09 217.76 152.31 217.29 C 151.52 216.82 150.51 217.07 150.04 217.86 Z M 149.53 218.72 L 149.01 219.58 C 148.54 220.35 148.78 221.36 149.56 221.83 C 150.33 222.31 151.34 222.06 151.82 221.29 L 152.34 220.43 C 152.81 219.66 152.56 218.65 151.79 218.18 C 151.01 217.70 150.00 217.95 149.53 218.72 Z M 149.02 219.57 L 148.50 220.41 C 148.03 221.18 148.27 222.19 149.03 222.66 C 149.80 223.14 150.81 222.90 151.28 222.13 L 151.80 221.29 C 152.28 220.52 152.04 219.52 151.27 219.04 C 150.50 218.57 149.50 218.81 149.02 219.57 Z M 148.52 220.41 L 147.99 221.24 C 147.52 222.00 147.75 223.00 148.51 223.48 C 149.27 223.96 150.27 223.73 150.74 222.97 L 151.27 222.14 C 151.74 221.38 151.52 220.37 150.76 219.90 C 150.00 219.42 148.99 219.65 148.52 220.41 Z M 148.01 221.24 L 147.48 222.07 C 147.00 222.82 147.22 223.82 147.97 224.30 C 148.72 224.78 149.72 224.56 150.20 223.81 L 150.73 222.97 C 151.21 222.22 150.99 221.22 150.24 220.74 C 149.48 220.27 148.49 220.49 148.01 221.24 Z M 147.49 222.07 L 146.95 222.91 C 146.47 223.65 146.69 224.64 147.43 225.12 C 148.18 225.60 149.17 225.39 149.65 224.64 L 150.19 223.81 C 150.67 223.06 150.45 222.07 149.71 221.59 C 148.96 221.11 147.97 221.32 147.49 222.07 Z M 146.96 222.90 L 146.41 223.75 C 145.93 224.49 146.14 225.48 146.88 225.96 C 147.62 226.44 148.60 226.23 149.09 225.49 L 149.64 224.65 C 150.12 223.91 149.91 222.92 149.17 222.44 C 148.43 221.96 147.44 222.16 146.96 222.90 Z M 146.42 223.75 L 145.89 224.55 C 145.41 225.28 145.61 226.27 146.35 226.75 C 147.08 227.23 148.07 227.03 148.55 226.30 L 149.08 225.49 C 149.56 224.76 149.36 223.78 148.62 223.29 C 147.89 222.81 146.90 223.01 146.42 223.75 Z M 145.90 224.55 L 145.36 225.36 C 144.88 226.09 145.08 227.07 145.81 227.56 C 146.54 228.04 147.52 227.84 148.01 227.11 L 148.54 226.30 C 149.03 225.57 148.83 224.58 148.10 224.10 C 147.37 223.62 146.38 223.82 145.90 224.55 Z M 145.37 225.36 L 144.82 226.18 C 144.33 226.91 144.53 227.89 145.26 228.37 C 145.98 228.86 146.97 228.66 147.45 227.94 L 148.00 227.11 C 148.48 226.39 148.29 225.40 147.56 224.92 C 146.83 224.43 145.85 224.63 145.37 225.36 Z M 144.82 226.18 L 144.27 227.01 C 143.78 227.73 143.97 228.71 144.70 229.20 C 145.42 229.68 146.40 229.49 146.89 228.77 L 147.45 227.94 C 147.93 227.21 147.74 226.23 147.01 225.75 C 146.29 225.26 145.31 225.45 144.82 226.18 Z M 144.27 227.01 L 143.71 227.85 C 143.22 228.57 143.41 229.55 144.13 230.03 C 144.85 230.52 145.83 230.33 146.32 229.61 L 146.88 228.77 C 147.37 228.05 147.18 227.07 146.46 226.58 C 145.73 226.10 144.76 226.29 144.27 227.01 Z M 143.71 227.85 L 143.14 228.69 C 142.66 229.41 142.84 230.39 143.56 230.87 C 144.28 231.36 145.26 231.17 145.74 230.45 L 146.31 229.61 C 146.80 228.89 146.61 227.91 145.89 227.42 C 145.17 226.94 144.20 227.13 143.71 227.85 Z M 143.15 228.69 L 142.57 229.54 C 142.09 230.26 142.28 231.23 142.99 231.71 C 143.71 232.20 144.68 232.01 145.17 231.29 L 145.74 230.45 C 146.23 229.73 146.04 228.76 145.32 228.27 C 144.60 227.79 143.63 227.97 143.15 228.69 Z M 142.58 229.54 L 142.00 230.39 C 141.52 231.10 141.70 232.08 142.42 232.56 C 143.13 233.04 144.11 232.86 144.59 232.14 L 145.16 231.29 C 145.65 230.58 145.46 229.61 144.75 229.12 C 144.03 228.64 143.06 228.83 142.58 229.54 Z M 142.00 230.39 L 141.97 230.43 C 141.49 231.15 141.68 232.12 142.39 232.60 C 143.10 233.09 144.07 232.90 144.56 232.18 L 144.59 232.14 C 145.07 231.43 144.89 230.46 144.17 229.97 C 143.46 229.49 142.49 229.68 142.00 230.39 Z"
      fill="black"
      fill-rule="nonzero" /></svg>