<svg xmlns="http://www.w3.org/2000/svg" width="300" height="300" viewBox="0 0 300 300">
<path d="M 129.94 130.63 L 129.88 129.71 C 129.82 128.82 129.04 128.14 128.15 128.20 C 127.25 128.27 126.58 129.04 126.64 129.94 L 126.70 130.85 C 126.76 131.75 127.54 132.42 128.44 132.36 C 129.33 132.30 130.01 131.52 129.94 130.63 Z M 129.88 129.71 L 129.82 128.79 C 129.76 127.89 128.98 127.22 128.08 127.28 C 127.18 127.34 126.51 128.12 126.57 129.02 L 126.64 129.94 C 126.70 130.83 127.48 131.51 128.37 131.45 C 129.27 131.38 129.95 130.61 129.88 129.71 Z M 129.82 128.78 L 129.75 127.85 C 129.69 126.96 128.91 126.28 128.01 126.34 C 127.11 126.41 126.44 127.19 126.50 128.09 L 126.57 129.02 C 126.63 129.92 127.41 130.59 128.31 130.53 C 129.21 130.46 129.89 129.68 129.82 128.78 Z M 129.76 127.85 L 129.69 126.91 C 129.62 126.01 128.84 125.33 127.94 125.40 C 127.04 125.47 126.36 126.25 126.43 127.15 L 126.50 128.09 C 126.57 128.99 127.35 129.67 128.25 129.60 C 129.15 129.53 129.82 128.75 129.76 127.85 Z M 129.69 126.90 L 129.61 125.94 C 129.54 125.04 128.76 124.36 127.86 124.43 C 126.95 124.50 126.28 125.29 126.35 126.19 L 126.43 127.15 C 126.50 128.05 127.28 128.73 128.18 128.66 C 129.09 128.59 129.76 127.80 129.69 126.90 Z M 129.62 125.93 L 129.54 124.95 C 129.46 124.05 128.67 123.37 127.77 123.45 C 126.87 123.52 126.19 124.31 126.27 125.22 L 126.35 126.20 C 126.42 127.10 127.21 127.77 128.12 127.70 C 129.02 127.62 129.69 126.83 129.62 125.93 Z M 129.54 124.94 L 129.45 123.93 C 129.37 123.03 128.58 122.36 127.67 122.44 C 126.77 122.52 126.10 123.31 126.18 124.22 L 126.27 125.22 C 126.34 126.13 127.14 126.80 128.04 126.72 C 128.95 126.64 129.62 125.84 129.54 124.94 Z M 129.45 123.92 L 129.36 122.88 C 129.27 121.98 128.47 121.31 127.57 121.40 C 126.66 121.48 126.00 122.28 126.08 123.18 L 126.18 124.22 C 126.26 125.13 127.06 125.79 127.97 125.71 C 128.87 125.63 129.54 124.83 129.45 123.92 Z M 129.36 122.87 L 129.25 121.80 C 129.16 120.89 128.36 120.23 127.45 120.32 C 126.55 120.41 125.88 121.21 125.97 122.12 L 126.08 123.19 C 126.17 124.10 126.97 124.76 127.88 124.67 C 128.78 124.59 129.45 123.78 129.36 122.87 Z M 129.26 121.79 L 129.14 120.68 C 129.05 119.77 128.23 119.11 127.33 119.20 C 126.42 119.30 125.76 120.11 125.86 121.02 L 125.97 122.13 C 126.07 123.04 126.88 123.70 127.78 123.60 C 128.69 123.51 129.35 122.70 129.26 121.79 Z M 129.14 120.67 L 129.03 119.66 C 128.93 118.75 128.12 118.09 127.21 118.19 C 126.30 118.29 125.64 119.11 125.74 120.02 L 125.85 121.03 C 125.95 121.94 126.77 122.59 127.68 122.49 C 128.59 122.39 129.24 121.58 129.14 120.67 Z M 129.04 119.65 L 128.94 118.73 C 128.83 117.82 128.01 117.16 127.09 117.26 C 126.18 117.37 125.52 118.20 125.62 119.11 L 125.73 120.03 C 125.83 120.94 126.66 121.60 127.58 121.49 C 128.49 121.39 129.15 120.56 129.04 119.65 Z M 128.95 118.72 L 128.84 117.78 C 128.73 116.86 127.89 116.20 126.97 116.31 C 126.05 116.42 125.39 117.26 125.50 118.18 L 125.61 119.12 C 125.72 120.04 126.56 120.70 127.48 120.59 C 128.40 120.48 129.06 119.65 128.95 118.72 Z M 128.85 117.78 L 128.74 116.82 C 128.62 115.89 127.78 115.23 126.85 115.34 C 125.92 115.46 125.25 116.30 125.37 117.23 L 125.49 118.19 C 125.60 119.12 126.45 119.78 127.38 119.67 C 128.31 119.55 128.97 118.71 128.85 117.78 Z M 128.75 116.81 L 128.62 115.83 C 128.51 114.90 127.65 114.23 126.71 114.35 C 125.78 114.47 125.11 115.33 125.23 116.27 L 125.36 117.24 C 125.48 118.18 126.33 118.84 127.27 118.72 C 128.21 118.60 128.87 117.75 128.75 116.81 Z M 128.64 115.82 L 128.51 114.83 C 128.38 113.89 127.52 113.23 126.57 113.35 C 125.63 113.47 124.96 114.34 125.09 115.28 L 125.22 116.27 C 125.34 117.22 126.21 117.88 127.15 117.76 C 128.10 117.63 128.76 116.77 128.64 115.82 Z M 128.52 114.83 L 128.38 113.82 C 128.26 112.87 127.38 112.20 126.43 112.33 C 125.48 112.46 124.81 113.34 124.94 114.29 L 125.08 115.29 C 125.20 116.24 126.08 116.91 127.03 116.78 C 127.98 116.65 128.65 115.78 128.52 114.83 Z M 128.40 113.81 L 128.26 112.80 C 128.12 111.84 127.24 111.17 126.28 111.31 C 125.32 111.44 124.65 112.33 124.79 113.28 L 124.93 114.30 C 125.06 115.26 125.95 115.92 126.90 115.79 C 127.86 115.66 128.53 114.77 128.40 113.81 Z M 128.27 112.79 L 128.12 111.77 C 127.98 110.81 127.09 110.14 126.12 110.28 C 125.16 110.41 124.49 111.31 124.63 112.27 L 124.77 113.29 C 124.91 114.26 125.81 114.93 126.77 114.79 C 127.74 114.65 128.41 113.76 128.27 112.79 Z M 128.13 111.76 L 127.98 110.74 C 127.84 109.77 126.93 109.09 125.96 109.24 C 124.99 109.38 124.32 110.29 124.46 111.26 L 124.61 112.28 C 124.76 113.26 125.66 113.93 126.63 113.78 C 127.61 113.64 128.28 112.73 128.13 111.76 Z M 128.00 110.73 L 127.84 109.70 C 127.69 108.72 126.78 108.05 125.80 108.20 C 124.82 108.35 124.14 109.26 124.29 110.24 L 124.45 111.27 C 124.60 112.25 125.51 112.92 126.49 112.77 C 127.47 112.62 128.15 111.71 128.00 110.73 Z M 127.85 109.69 L 127.69 108.67 C 127.54 107.68 126.61 107.01 125.63 107.16 C 124.64 107.32 123.97 108.24 124.12 109.23 L 124.28 110.25 C 124.44 111.24 125.36 111.91 126.35 111.76 C 127.33 111.60 128.01 110.68 127.85 109.69 Z M 127.70 108.66 L 127.54 107.64 C 127.38 106.64 126.44 105.97 125.45 106.13 C 124.46 106.29 123.78 107.22 123.94 108.22 L 124.11 109.24 C 124.27 110.23 125.20 110.91 126.20 110.75 C 127.19 110.59 127.86 109.65 127.70 108.66 Z M 127.55 107.63 L 127.38 106.61 C 127.22 105.61 126.27 104.94 125.27 105.10 C 124.27 105.27 123.60 106.21 123.76 107.21 L 123.93 108.23 C 124.10 109.23 125.04 109.90 126.04 109.74 C 127.04 109.57 127.72 108.63 127.55 107.63 Z M 127.40 106.60 L 127.15 105.13 C 126.98 104.12 126.02 103.44 125.00 103.61 C 123.99 103.79 123.32 104.75 123.49 105.76 L 123.74 107.23 C 123.92 108.24 124.88 108.92 125.89 108.74 C 126.90 108.57 127.58 107.61 127.40 106.60 Z M 127.18 105.11 L 126.92 103.67 C 126.73 102.65 125.75 101.97 124.72 102.15 C 123.70 102.34 123.02 103.32 123.20 104.35 L 123.46 105.78 C 123.65 106.81 124.63 107.49 125.66 107.30 C 126.68 107.12 127.36 106.13 127.18 105.11 Z M 126.94 103.65 L 126.69 102.30 C 126.49 101.26 125.48 100.58 124.44 100.78 C 123.40 100.98 122.72 101.99 122.92 103.03 L 123.18 104.37 C 123.38 105.41 124.38 106.09 125.42 105.89 C 126.46 105.69 127.14 104.69 126.94 103.65 Z M 126.71 102.27 L 126.46 101.05 C 126.24 100.00 125.21 99.32 124.16 99.54 C 123.10 99.76 122.42 100.79 122.64 101.84 L 122.89 103.06 C 123.11 104.12 124.14 104.79 125.20 104.58 C 126.25 104.36 126.93 103.33 126.71 102.27 Z M 126.48 101.01 L 126.24 99.95 C 126.00 98.88 124.94 98.22 123.87 98.46 C 122.80 98.70 122.14 99.76 122.38 100.83 L 122.62 101.89 C 122.86 102.95 123.92 103.62 124.99 103.38 C 126.06 103.14 126.72 102.07 126.48 101.01 Z M 126.26 99.88 L 126.03 99.02 C 125.75 97.94 124.65 97.30 123.58 97.58 C 122.50 97.86 121.86 98.96 122.14 100.04 L 122.36 100.90 C 122.64 101.97 123.74 102.62 124.82 102.34 C 125.89 102.06 126.54 100.96 126.26 99.88 Z M 126.03 98.90 L 125.82 98.27 C 125.47 97.19 124.32 96.61 123.25 96.95 C 122.18 97.30 121.59 98.46 121.94 99.53 L 122.14 100.16 C 122.49 101.23 123.64 101.82 124.71 101.47 C 125.79 101.12 126.37 99.97 126.03 98.90 Z M 125.74 97.98 L 125.56 97.62 C 125.05 96.59 123.81 96.17 122.78 96.67 C 121.76 97.18 121.33 98.42 121.84 99.45 L 122.02 99.81 C 122.53 100.84 123.77 101.26 124.80 100.76 C 125.82 100.25 126.25 99.01 125.74 97.98 Z M 124.49 96.59 L 124.34 96.52 C 123.27 96.09 122.04 96.60 121.60 97.68 C 121.16 98.75 121.68 99.98 122.76 100.42 L 122.91 100.48 C 123.98 100.92 125.21 100.40 125.65 99.33 C 126.09 98.25 125.57 97.02 124.49 96.59 Z M 121.63 97.57 L 121.53 97.78 C 121.03 98.84 121.48 100.11 122.54 100.61 C 123.60 101.11 124.87 100.66 125.37 99.60 L 125.47 99.38 C 125.97 98.32 125.52 97.05 124.46 96.55 C 123.40 96.05 122.13 96.51 121.63 97.57 Z M 121.35 98.34 L 121.28 98.78 C 121.08 99.93 121.86 101.03 123.02 101.23 C 124.18 101.42 125.27 100.64 125.47 99.48 L 125.54 99.04 C 125.74 97.89 124.96 96.79 123.80 96.59 C 122.64 96.40 121.55 97.18 121.35 98.34 Z M 121.25 98.96 L 121.20 99.60 C 121.11 100.77 121.98 101.80 123.15 101.89 C 124.33 101.99 125.35 101.11 125.44 99.94 L 125.49 99.30 C 125.59 98.13 124.71 97.10 123.54 97.01 C 122.37 96.92 121.35 97.79 121.25 98.96 Z M 121.19 99.70 L 121.17 100.52 C 121.13 101.69 122.05 102.68 123.22 102.72 C 124.40 102.76 125.38 101.84 125.42 100.66 L 125.45 99.85 C 125.49 98.67 124.57 97.68 123.40 97.64 C 122.22 97.60 121.24 98.52 121.19 99.70 Z M 121.16 100.57 L 121.16 101.55 C 121.15 102.72 122.10 103.68 123.27 103.69 C 124.45 103.70 125.41 102.75 125.42 101.58 L 125.42 100.61 C 125.43 99.43 124.49 98.47 123.31 98.46 C 122.13 98.45 121.17 99.40 121.16 100.57 Z M 121.16 101.59 L 121.17 102.69 C 121.18 103.87 122.15 104.81 123.33 104.79 C 124.50 104.78 125.45 103.81 125.43 102.64 L 125.42 101.54 C 125.40 100.36 124.44 99.42 123.26 99.43 C 122.08 99.44 121.14 100.41 121.16 101.59 Z M 121.17 102.72 L 121.20 103.92 C 121.23 105.10 122.21 106.03 123.39 106.00 C 124.57 105.97 125.50 104.99 125.47 103.81 L 125.43 102.60 C 125.40 101.43 124.42 100.50 123.24 100.53 C 122.07 100.56 121.14 101.54 121.17 102.72 Z M 121.20 103.95 L 121.25 105.24 C 121.30 106.41 122.29 107.33 123.47 107.28 C 124.65 107.24 125.56 106.24 125.52 105.07 L 125.47 103.78 C 125.42 102.60 124.43 101.69 123.25 101.73 C 122.07 101.78 121.15 102.77 121.20 103.95 Z M 121.25 105.26 L 121.32 106.60 C 121.38 107.78 122.38 108.68 123.56 108.62 C 124.74 108.56 125.65 107.56 125.59 106.38 L 125.52 105.04 C 125.46 103.86 124.45 102.96 123.28 103.02 C 122.10 103.08 121.19 104.08 121.25 105.26 Z M 121.32 106.62 L 121.40 108.00 C 121.48 109.17 122.49 110.07 123.67 110.00 C 124.85 109.92 125.74 108.91 125.67 107.73 L 125.59 106.36 C 125.51 105.18 124.50 104.29 123.32 104.36 C 122.14 104.43 121.25 105.45 121.32 106.62 Z M 121.40 108.02 L 121.50 109.40 C 121.59 110.58 122.61 111.46 123.79 111.38 C 124.97 111.29 125.86 110.27 125.77 109.09 L 125.67 107.71 C 125.59 106.53 124.56 105.65 123.38 105.73 C 122.21 105.82 121.32 106.84 121.40 108.02 Z M 121.51 109.42 L 121.60 110.53 C 121.69 111.70 122.73 112.58 123.90 112.48 C 125.08 112.39 125.96 111.35 125.86 110.18 L 125.77 109.07 C 125.67 107.89 124.64 107.01 123.46 107.11 C 122.28 107.21 121.41 108.24 121.51 109.42 Z M 121.60 110.54 L 121.70 111.64 C 121.80 112.81 122.84 113.68 124.02 113.57 C 125.20 113.47 126.06 112.43 125.96 111.25 L 125.86 110.16 C 125.75 108.98 124.71 108.11 123.54 108.22 C 122.36 108.33 121.49 109.37 121.60 110.54 Z M 121.70 111.65 L 121.80 112.73 C 121.92 113.91 122.97 114.77 124.14 114.65 C 125.32 114.54 126.18 113.49 126.06 112.32 L 125.96 111.24 C 125.84 110.06 124.79 109.20 123.62 109.32 C 122.44 109.43 121.58 110.48 121.70 111.65 Z M 121.81 112.75 L 121.92 113.81 C 122.04 114.99 123.09 115.84 124.27 115.72 C 125.44 115.59 126.30 114.54 126.17 113.37 L 126.06 112.30 C 125.94 111.13 124.88 110.27 123.71 110.40 C 122.53 110.52 121.68 111.57 121.81 112.75 Z M 121.92 113.83 L 122.04 114.87 C 122.17 116.05 123.23 116.89 124.40 116.76 C 125.57 116.63 126.42 115.57 126.29 114.40 L 126.17 113.35 C 126.04 112.18 124.98 111.33 123.81 111.46 C 122.63 111.59 121.79 112.65 121.92 113.83 Z M 122.04 114.89 L 122.16 115.91 C 122.30 117.09 123.36 117.93 124.53 117.79 C 125.71 117.65 126.54 116.59 126.41 115.42 L 126.29 114.39 C 126.15 113.21 125.09 112.37 123.91 112.51 C 122.74 112.65 121.90 113.71 122.04 114.89 Z M 122.16 115.92 L 122.28 116.93 C 122.43 118.11 123.49 118.94 124.67 118.80 C 125.84 118.65 126.67 117.59 126.53 116.41 L 126.41 115.41 C 126.26 114.23 125.20 113.40 124.02 113.54 C 122.85 113.69 122.02 114.75 122.16 115.92 Z M 122.28 116.94 L 122.41 117.93 C 122.56 119.10 123.63 119.93 124.80 119.78 C 125.97 119.63 126.80 118.56 126.65 117.39 L 126.53 116.41 C 126.38 115.23 125.31 114.40 124.14 114.55 C 122.97 114.70 122.14 115.77 122.28 116.94 Z M 122.41 117.94 L 122.54 118.90 C 122.69 120.07 123.76 120.90 124.93 120.74 C 126.10 120.59 126.93 119.52 126.78 118.35 L 126.65 117.38 C 126.50 116.21 125.43 115.39 124.26 115.54 C 123.08 115.69 122.26 116.76 122.41 117.94 Z M 122.54 118.90 L 122.66 119.84 C 122.82 121.01 123.89 121.84 125.06 121.68 C 126.23 121.53 127.06 120.45 126.90 119.28 L 126.78 118.34 C 126.62 117.17 125.55 116.35 124.38 116.50 C 123.20 116.66 122.38 117.73 122.54 118.90 Z M 122.66 119.85 L 122.78 120.76 C 122.94 121.93 124.02 122.75 125.19 122.59 C 126.36 122.44 127.18 121.36 127.02 120.19 L 126.90 119.28 C 126.74 118.11 125.67 117.29 124.50 117.44 C 123.33 117.60 122.50 118.68 122.66 119.85 Z M 122.78 120.76 L 122.90 121.65 C 123.06 122.82 124.14 123.64 125.31 123.48 C 126.48 123.32 127.30 122.24 127.14 121.07 L 127.02 120.19 C 126.86 119.02 125.79 118.20 124.62 118.36 C 123.45 118.51 122.63 119.59 122.78 120.76 Z M 122.90 121.65 L 123.02 122.50 C 123.18 123.67 124.25 124.49 125.43 124.33 C 126.60 124.18 127.42 123.10 127.26 121.93 L 127.14 121.07 C 126.98 119.90 125.91 119.08 124.74 119.24 C 123.57 119.40 122.75 120.48 122.90 121.65 Z M 123.02 122.50 L 123.16 123.54 C 123.32 124.71 124.39 125.53 125.56 125.38 C 126.73 125.22 127.55 124.14 127.40 122.97 L 127.26 121.93 C 127.10 120.76 126.03 119.94 124.85 120.09 C 123.68 120.25 122.86 121.33 123.02 122.50 Z M 123.16 123.53 L 123.31 124.66 C 123.46 125.83 124.53 126.65 125.70 126.50 C 126.87 126.34 127.70 125.27 127.55 124.10 L 127.40 122.98 C 127.24 121.81 126.17 120.98 125.00 121.14 C 123.83 121.29 123.00 122.36 123.16 123.53 Z M 123.30 124.65 L 123.44 125.72 C 123.59 126.89 124.66 127.72 125.83 127.57 C 127.00 127.42 127.83 126.35 127.68 125.18 L 127.55 124.11 C 127.40 122.94 126.33 122.11 125.15 122.26 C 123.98 122.41 123.16 123.48 123.30 124.65 Z M 123.44 125.71 L 123.57 126.73 C 123.71 127.90 124.78 128.73 125.95 128.59 C 127.12 128.45 127.95 127.38 127.81 126.21 L 127.68 125.18 C 127.54 124.01 126.47 123.18 125.30 123.32 C 124.13 123.47 123.30 124.54 123.44 125.71 Z M 123.57 126.72 L 123.68 127.70 C 123.82 128.88 124.88 129.71 126.05 129.57 C 127.23 129.44 128.06 128.37 127.93 127.20 L 127.81 126.22 C 127.67 125.05 126.61 124.21 125.44 124.35 C 124.27 124.49 123.43 125.55 123.57 126.72 Z M 123.68 127.69 L 123.79 128.64 C 123.92 129.82 124.98 130.66 126.15 130.53 C 127.32 130.40 128.16 129.34 128.03 128.17 L 127.93 127.22 C 127.80 126.04 126.74 125.20 125.57 125.33 C 124.39 125.46 123.55 126.52 123.68 127.69 Z M 123.79 128.63 L 123.88 129.56 C 124.01 130.73 125.06 131.58 126.23 131.46 C 127.40 131.34 128.25 130.29 128.13 129.12 L 128.03 128.18 C 127.91 127.01 126.86 126.16 125.69 126.28 C 124.52 126.41 123.66 127.46 123.79 128.63 Z M 123.88 129.54 L 123.97 130.46 C 124.09 131.63 125.13 132.49 126.30 132.38 C 127.48 132.26 128.33 131.22 128.22 130.05 L 128.13 129.13 C 128.02 127.96 126.97 127.10 125.80 127.21 C 124.63 127.33 123.77 128.37 123.88 129.54 Z M 123.97 130.44 L 124.05 131.35 C 124.16 132.52 125.19 133.39 126.37 133.28 C 127.54 133.18 128.41 132.14 128.30 130.97 L 128.22 130.06 C 128.12 128.89 127.08 128.02 125.91 128.13 C 124.73 128.23 123.87 129.27 123.97 130.44 Z M 124.05 131.33 L 124.12 132.25 C 124.22 133.42 125.25 134.30 126.42 134.20 C 127.60 134.11 128.47 133.08 128.38 131.91 L 128.30 130.99 C 128.21 129.81 127.18 128.94 126.01 129.03 C 124.83 129.13 123.96 130.15 124.05 131.33 Z M 124.12 132.23 L 124.19 133.19 C 124.28 134.36 125.30 135.25 126.47 135.16 C 127.65 135.08 128.53 134.06 128.45 132.88 L 128.38 131.93 C 128.29 130.75 127.27 129.87 126.10 129.95 C 124.92 130.03 124.04 131.05 124.12 132.23 Z M 124.19 133.17 L 124.25 134.14 C 124.33 135.31 125.34 136.21 126.52 136.13 C 127.69 136.06 128.58 135.04 128.51 133.87 L 128.45 132.90 C 128.37 131.73 127.36 130.83 126.18 130.91 C 125.01 130.98 124.12 132.00 124.19 133.17 Z M 124.25 134.12 L 124.31 135.10 C 124.37 136.27 125.38 137.17 126.56 137.11 C 127.73 137.04 128.63 136.03 128.56 134.86 L 128.51 133.88 C 128.44 132.71 127.44 131.81 126.26 131.87 C 125.08 131.94 124.19 132.95 124.25 134.12 Z M 124.31 135.08 L 124.36 136.07 C 124.42 137.24 125.42 138.15 126.59 138.09 C 127.77 138.03 128.67 137.03 128.61 135.85 L 128.56 134.87 C 128.50 133.69 127.50 132.79 126.33 132.85 C 125.15 132.91 124.25 133.91 124.31 135.08 Z M 124.36 136.06 L 124.40 137.06 C 124.46 138.23 125.45 139.14 126.63 139.09 C 127.80 139.03 128.71 138.04 128.66 136.86 L 128.61 135.87 C 128.56 134.69 127.56 133.78 126.39 133.83 C 125.21 133.89 124.30 134.88 124.36 136.06 Z M 124.40 137.05 L 124.44 138.06 C 124.49 139.24 125.48 140.15 126.66 140.10 C 127.84 140.05 128.75 139.06 128.70 137.88 L 128.66 136.87 C 128.61 135.70 127.62 134.78 126.44 134.83 C 125.27 134.88 124.35 135.87 124.40 137.05 Z M 124.44 138.05 L 124.48 139.08 C 124.53 140.26 125.52 141.17 126.69 141.13 C 127.87 141.08 128.78 140.09 128.74 138.92 L 128.70 137.89 C 128.65 136.72 127.67 135.80 126.49 135.84 C 125.32 135.89 124.40 136.88 124.44 138.05 Z M 124.48 139.08 L 124.52 140.12 C 124.57 141.30 125.55 142.22 126.73 142.17 C 127.90 142.13 128.82 141.14 128.78 139.97 L 128.74 138.92 C 128.70 137.75 127.71 136.83 126.53 136.87 C 125.36 136.92 124.44 137.90 124.48 139.08 Z M 124.52 140.12 L 124.56 141.14 C 124.60 142.31 125.59 143.23 126.76 143.19 C 127.93 143.15 128.85 142.16 128.81 140.99 L 128.78 139.97 C 128.73 138.80 127.75 137.88 126.57 137.92 C 125.40 137.96 124.48 138.95 124.52 140.12 Z M 124.56 141.14 L 124.59 142.11 C 124.63 143.28 125.62 144.20 126.79 144.16 C 127.97 144.12 128.88 143.14 128.84 141.96 L 128.81 140.99 C 128.77 139.82 127.79 138.90 126.61 138.94 C 125.44 138.98 124.52 139.96 124.56 141.14 Z M 124.59 142.11 L 124.63 143.10 C 124.67 144.27 125.65 145.19 126.82 145.15 C 128.00 145.11 128.92 144.13 128.88 142.96 L 128.84 141.97 C 128.80 140.79 127.82 139.87 126.65 139.91 C 125.47 139.95 124.56 140.94 124.59 142.11 Z M 124.63 143.09 L 124.66 144.09 C 124.70 145.27 125.68 146.19 126.85 146.15 C 128.02 146.11 128.95 145.13 128.91 143.96 L 128.88 142.96 C 128.84 141.79 127.86 140.87 126.68 140.90 C 125.51 140.94 124.59 141.92 124.63 143.09 Z M 124.66 144.09 L 124.69 145.10 C 124.73 146.27 125.71 147.19 126.88 147.15 C 128.05 147.12 128.97 146.14 128.94 144.97 L 128.91 143.96 C 128.87 142.79 127.89 141.87 126.72 141.90 C 125.55 141.94 124.63 142.92 124.66 144.09 Z M 124.69 145.09 L 124.72 146.10 C 124.76 147.28 125.73 148.20 126.91 148.16 C 128.08 148.13 129.00 147.15 128.97 145.98 L 128.94 144.97 C 128.90 143.80 127.92 142.88 126.75 142.91 C 125.58 142.94 124.66 143.92 124.69 145.09 Z M 124.72 146.10 L 124.75 147.11 C 124.78 148.28 125.76 149.21 126.93 149.18 C 128.10 149.14 129.02 148.17 128.99 147.00 L 128.96 145.99 C 128.93 144.81 127.96 143.89 126.79 143.92 C 125.62 143.95 124.69 144.93 124.72 146.10 Z M 124.75 147.11 L 124.78 148.12 C 124.81 149.29 125.78 150.22 126.95 150.19 C 128.12 150.16 129.05 149.19 129.02 148.01 L 128.99 147.00 C 128.96 145.83 127.99 144.91 126.82 144.94 C 125.65 144.96 124.72 145.94 124.75 147.11 Z M 124.78 148.11 L 124.80 149.12 C 124.83 150.29 125.80 151.22 126.97 151.19 C 128.14 151.17 129.06 150.20 129.04 149.03 L 129.02 148.02 C 128.99 146.85 128.02 145.92 126.85 145.95 C 125.68 145.97 124.75 146.94 124.78 148.11 Z M 124.80 149.12 L 124.82 150.12 C 124.84 151.29 125.81 152.22 126.98 152.19 C 128.15 152.17 129.08 151.20 129.06 150.04 L 129.04 149.03 C 129.01 147.86 128.05 146.93 126.88 146.96 C 125.71 146.98 124.78 147.95 124.80 149.12 Z M 124.82 150.11 L 124.84 151.13 C 124.86 152.30 125.82 153.23 126.99 153.21 C 128.16 153.19 129.09 152.23 129.07 151.06 L 129.06 150.04 C 129.04 148.87 128.07 147.94 126.90 147.96 C 125.74 147.98 124.80 148.94 124.82 150.11 Z M 124.84 151.12 L 124.85 152.14 C 124.87 153.31 125.83 154.24 127.00 154.23 C 128.17 154.21 129.10 153.25 129.08 152.08 L 129.07 151.06 C 129.06 149.90 128.10 148.96 126.93 148.98 C 125.76 148.99 124.82 149.95 124.84 151.12 Z M 124.85 152.13 L 124.86 153.14 C 124.88 154.31 125.83 155.24 127.00 155.23 C 128.17 155.22 129.11 154.26 129.09 153.10 L 129.08 152.09 C 129.07 150.92 128.12 149.98 126.95 149.99 C 125.78 150.01 124.84 150.96 124.85 152.13 Z M 124.87 153.13 L 124.87 154.14 C 124.88 155.30 125.84 156.24 127.00 156.23 C 128.17 156.22 129.11 155.27 129.10 154.10 L 129.09 153.10 C 129.08 151.93 128.13 151.00 126.96 151.00 C 125.80 151.01 124.86 151.97 124.87 153.13 Z M 124.88 154.13 L 124.88 155.13 C 124.89 156.30 125.84 157.24 127.00 157.23 C 128.17 157.22 129.11 156.27 129.11 155.11 L 129.10 154.11 C 129.09 152.94 128.14 152.00 126.98 152.01 C 125.81 152.01 124.87 152.97 124.88 154.13 Z M 124.88 155.12 L 124.89 156.12 C 124.89 157.28 125.84 158.23 127.00 158.22 C 128.17 158.22 129.11 157.27 129.11 156.10 L 129.10 155.11 C 129.10 153.94 128.15 153.00 126.99 153.01 C 125.82 153.01 124.88 153.96 124.88 155.12 Z M 124.89 156.11 L 124.89 157.10 C 124.89 158.27 125.84 159.21 127.00 159.21 C 128.17 159.21 129.11 158.26 129.11 157.10 L 129.11 156.11 C 129.10 154.94 128.16 154.00 126.99 154.00 C 125.83 154.00 124.88 154.95 124.89 156.11 Z M 124.89 157.10 L 124.89 158.09 C 124.89 159.26 125.84 160.20 127.00 160.20 C 128.17 160.20 129.11 159.25 129.11 158.09 L 129.11 157.10 C 129.11 155.93 128.16 154.99 127.00 154.99 C 125.83 154.99 124.89 155.94 124.89 157.10 Z M 124.89 158.09 L 124.89 159.08 C 124.89 160.25 125.84 161.19 127.00 161.19 C 128.16 161.19 129.11 160.24 129.11 159.08 L 129.11 158.09 C 129.11 156.93 128.16 155.98 127.00 155.98 C 125.83 155.98 124.89 156.93 124.89 158.09 Z M 124.89 159.08 L 124.89 160.07 C 124.89 161.23 125.84 162.18 127.00 162.18 C 128.16 162.18 129.11 161.23 129.11 160.07 L 129.11 159.08 C 129.11 157.92 128.16 156.97 127.00 156.97 C 125.84 156.97 124.89 157.92 124.89 159.08 Z M 124.90 160.07 L 124.90 161.05 C 124.90 162.21 125.84 163.15 127.00 163.15 C 128.16 163.15 129.10 162.21 129.10 161.05 L 129.10 160.07 C 129.10 158.91 128.16 157.97 127.00 157.97 C 125.84 157.97 124.90 158.91 124.90 160.07 Z M 124.90 161.05 L 124.90 162.03 C 124.90 163.20 125.84 164.14 127.00 164.14 C 128.16 164.14 129.10 163.20 129.10 162.03 L 129.10 161.05 C 129.10 159.89 128.16 158.95 127.00 158.95 C 125.84 158.95 124.90 159.89 124.90 161.05 Z M 124.90 162.03 L 124.90 163.02 C 124.90 164.18 125.84 165.12 127.00 165.12 C 128.16 165.12 129.10 164.18 129.10 163.02 L 129.10 162.03 C 129.10 160.87 128.16 159.93 127.00 159.93 C 125.84 159.93 124.90 160.87 124.90 162.03 Z M 124.90 163.02 L 124.90 164.01 C 124.90 165.17 125.84 166.11 127.00 166.11 C 128.16 166.11 129.10 165.17 129.10 164.01 L 129.10 163.02 C 129.10 161.86 128.16 160.93 127.00 160.93 C 125.84 160.93 124.90 161.86 124.90 163.02 Z M 124.91 164.01 L 124.91 165.01 C 124.91 166.17 125.84 167.11 127.00 167.11 C 128.16 167.11 129.09 166.17 129.09 165.01 L 129.09 164.01 C 129.09 162.86 128.16 161.92 127.00 161.92 C 125.84 161.92 124.91 162.86 124.91 164.01 Z M 124.91 165.01 L 124.91 166.02 C 124.91 167.17 125.84 168.11 127.00 168.11 C 128.16 168.11 129.09 167.17 129.09 166.02 L 129.09 165.01 C 129.09 163.86 128.16 162.92 127.00 162.92 C 125.84 162.92 124.91 163.86 124.91 165.01 Z M 124.91 166.02 L 124.91 167.03 C 124.91 168.18 125.85 169.11 127.00 169.11 C 128.15 169.11 129.09 168.18 129.09 167.03 L 129.09 166.02 C 129.09 164.86 128.15 163.93 127.00 163.93 C 125.85 163.93 124.91 164.86 124.91 166.02 Z M 124.91 167.03 L 124.91 168.04 C 124.91 169.19 125.85 170.13 127.00 170.13 C 128.15 170.13 129.09 169.19 129.09 168.04 L 129.09 167.03 C 129.09 165.87 128.15 164.94 127.00 164.94 C 125.85 164.94 124.91 165.87 124.91 167.03 Z M 124.92 168.04 L 124.92 169.06 C 124.92 170.21 125.85 171.15 127.00 171.15 C 128.15 171.15 129.08 170.21 129.08 169.06 L 129.08 168.04 C 129.08 166.89 128.15 165.96 127.00 165.96 C 125.85 165.96 124.92 166.89 124.92 168.04 Z M 124.92 169.06 L 124.92 170.06 C 124.92 171.21 125.85 172.15 127.00 172.15 C 128.15 172.15 129.08 171.21 129.08 170.06 L 129.08 169.06 C 129.08 167.91 128.15 166.98 127.00 166.98 C 125.85 166.98 124.92 167.91 124.92 169.06 Z M 124.92 170.06 L 124.92 171.05 C 124.92 172.20 125.85 173.13 127.00 173.13 C 128.15 173.13 129.08 172.20 129.08 171.05 L 129.08 170.06 C 129.08 168.92 128.15 167.98 127.00 167.98 C 125.85 167.98 124.92 168.92 124.92 170.06 Z M 124.92 171.05 L 124.92 172.04 C 124.92 173.19 125.85 174.12 127.00 174.12 C 128.15 174.12 129.08 173.19 129.08 172.04 L 129.08 171.05 C 129.08 169.90 128.15 168.97 127.00 168.97 C 125.85 168.97 124.92 169.90 124.92 171.05 Z M 124.93 172.04 L 124.93 173.03 C 124.93 174.18 125.85 175.11 127.00 175.11 C 128.15 175.11 129.07 174.18 129.07 173.03 L 129.07 172.04 C 129.07 170.89 128.15 169.96 127.00 169.96 C 125.85 169.96 124.93 170.89 124.93 172.04 Z M 124.93 173.03 L 124.93 174.03 C 124.93 175.18 125.86 176.10 127.00 176.10 C 128.14 176.10 129.07 175.18 129.07 174.03 L 129.07 173.03 C 129.07 171.89 128.14 170.96 127.00 170.96 C 125.86 170.96 124.93 171.89 124.93 173.03 Z M 124.93 174.03 L 124.93 175.04 C 124.93 176.18 125.86 177.10 127.00 177.10 C 128.14 177.10 129.07 176.18 129.07 175.04 L 129.07 174.03 C 129.07 172.89 128.14 171.96 127.00 171.96 C 125.86 171.96 124.93 172.89 124.93 174.03 Z M 124.93 175.04 L 124.93 176.04 C 124.93 177.18 125.86 178.11 127.00 178.11 C 128.14 178.11 129.07 177.18 129.07 176.04 L 129.07 175.04 C 129.07 173.89 128.14 172.97 127.00 172.97 C 125.86 172.97 124.93 173.89 124.93 175.04 Z M 124.94 176.04 L 124.94 177.05 C 124.94 178.19 125.86 179.11 127.00 179.11 C 128.14 179.11 129.06 178.19 129.06 177.05 L 129.06 176.04 C 129.06 174.90 128.14 173.98 127.00 173.98 C 125.86 173.98 124.94 174.90 124.94 176.04 Z M 124.94 177.05 L 124.94 178.06 C 124.94 179.20 125.86 180.12 127.00 180.12 C 128.14 180.12 129.06 179.20 129.06 178.06 L 129.06 177.05 C 129.06 175.91 128.14 174.99 127.00 174.99 C 125.86 174.99 124.94 175.91 124.94 177.05 Z M 124.94 178.06 L 124.94 179.07 C 124.94 180.21 125.86 181.13 127.00 181.13 C 128.14 181.13 129.06 180.21 129.06 179.07 L 129.06 178.06 C 129.06 176.92 128.14 176.00 127.00 176.00 C 125.86 176.00 124.94 176.92 124.94 178.06 Z M 124.94 179.07 L 124.94 180.07 C 124.94 181.21 125.86 182.13 127.00 182.13 C 128.14 182.13 129.06 181.21 129.06 180.07 L 129.06 179.07 C 129.06 177.93 128.14 177.01 127.00 177.01 C 125.86 177.01 124.94 177.93 124.94 179.07 Z M 124.95 180.07 L 124.95 181.06 C 124.95 182.19 125.86 183.11 127.00 183.11 C 128.13 183.11 129.05 182.19 129.05 181.06 L 129.05 180.07 C 129.05 178.94 128.13 178.02 127.00 178.02 C 125.87 178.02 124.95 178.94 124.95 180.07 Z M 124.95 181.06 L 124.95 182.05 C 124.95 183.18 125.86 184.10 126.99 184.10 C 128.13 184.10 129.05 183.19 129.05 182.05 L 129.05 181.06 C 129.05 179.93 128.14 179.01 127.00 179.01 C 125.87 179.01 124.95 179.92 124.95 181.06 Z M 124.95 182.04 L 124.95 183.03 C 124.94 184.16 125.86 185.08 126.99 185.09 C 128.12 185.09 129.04 184.18 129.04 183.05 L 129.04 182.06 C 129.05 180.93 128.14 180.01 127.01 180.00 C 125.88 180.00 124.96 180.91 124.95 182.04 Z M 124.95 183.03 L 124.94 184.02 C 124.94 185.15 125.85 186.07 126.97 186.08 C 128.10 186.09 129.02 185.18 129.03 184.05 L 129.04 183.06 C 129.05 181.93 128.14 181.01 127.01 181.00 C 125.88 180.99 124.96 181.90 124.95 183.03 Z M 124.95 184.01 L 124.94 185.01 C 124.92 186.14 125.83 187.06 126.96 187.07 C 128.08 187.08 129.00 186.18 129.02 185.05 L 129.03 184.06 C 129.04 182.93 128.14 182.01 127.01 182.00 C 125.88 181.98 124.96 182.89 124.95 184.01 Z M 124.94 185.00 L 124.92 186.00 C 124.91 187.12 125.81 188.05 126.93 188.07 C 128.05 188.09 128.98 187.19 129.00 186.06 L 129.01 185.06 C 129.03 183.94 128.13 183.01 127.01 183.00 C 125.88 182.98 124.96 183.88 124.94 185.00 Z M 124.93 185.99 L 124.91 186.99 C 124.88 188.11 125.77 189.04 126.90 189.07 C 128.02 189.09 128.95 188.20 128.97 187.08 L 128.99 186.07 C 129.02 184.95 128.13 184.02 127.00 184.00 C 125.88 183.97 124.95 184.87 124.93 185.99 Z M 124.91 186.98 L 124.88 187.99 C 124.85 189.11 125.74 190.04 126.86 190.07 C 127.98 190.10 128.91 189.22 128.94 188.10 L 128.97 187.09 C 129.00 185.97 128.12 185.04 127.00 185.00 C 125.88 184.97 124.94 185.86 124.91 186.98 Z M 124.89 187.97 L 124.85 188.98 C 124.81 190.10 125.69 191.04 126.81 191.08 C 127.93 191.12 128.86 190.24 128.90 189.13 L 128.94 188.11 C 128.98 186.99 128.10 186.06 126.98 186.02 C 125.86 185.98 124.93 186.85 124.89 187.97 Z M 124.86 188.97 L 124.81 189.98 C 124.76 191.10 125.63 192.05 126.75 192.09 C 127.86 192.14 128.81 191.27 128.86 190.16 L 128.90 189.14 C 128.95 188.02 128.08 187.08 126.96 187.03 C 125.85 186.99 124.90 187.85 124.86 188.97 Z M 124.82 189.97 L 124.77 190.92 C 124.71 192.04 125.57 192.99 126.68 193.04 C 127.80 193.10 128.75 192.24 128.80 191.13 L 128.85 190.17 C 128.91 189.06 128.05 188.11 126.94 188.05 C 125.82 188.00 124.87 188.85 124.82 189.97 Z M 124.77 190.91 L 124.71 191.87 C 124.65 192.98 125.50 193.93 126.61 194.00 C 127.72 194.07 128.68 193.22 128.74 192.10 L 128.80 191.14 C 128.86 190.03 128.02 189.08 126.90 189.01 C 125.79 188.95 124.84 189.79 124.77 190.91 Z M 124.72 191.85 L 124.65 192.82 C 124.58 193.93 125.42 194.89 126.53 194.96 C 127.64 195.04 128.60 194.20 128.67 193.09 L 128.74 192.12 C 128.81 191.01 127.97 190.05 126.86 189.98 C 125.75 189.90 124.79 190.74 124.72 191.85 Z M 124.66 192.80 L 124.59 193.78 C 124.50 194.88 125.33 195.85 126.44 195.93 C 127.55 196.01 128.51 195.18 128.60 194.08 L 128.67 193.10 C 128.75 191.99 127.92 191.03 126.81 190.95 C 125.71 190.86 124.74 191.70 124.66 192.80 Z M 124.59 193.76 L 124.51 194.75 C 124.42 195.85 125.24 196.82 126.35 196.91 C 127.45 197.00 128.42 196.18 128.51 195.07 L 128.59 194.09 C 128.68 192.99 127.86 192.02 126.76 191.93 C 125.65 191.84 124.68 192.66 124.59 193.76 Z M 124.51 194.73 L 124.42 195.72 C 124.33 196.83 125.14 197.80 126.24 197.90 C 127.34 198.00 128.32 197.18 128.42 196.08 L 128.51 195.09 C 128.60 193.99 127.79 193.01 126.69 192.91 C 125.59 192.81 124.61 193.63 124.51 194.73 Z M 124.43 195.71 L 124.33 196.71 C 124.23 197.81 125.03 198.79 126.13 198.89 C 127.23 199.00 128.21 198.20 128.32 197.10 L 128.41 196.09 C 128.52 194.99 127.71 194.02 126.61 193.91 C 125.51 193.80 124.54 194.61 124.43 195.71 Z M 124.34 196.70 L 124.23 197.71 C 124.12 198.81 124.92 199.79 126.01 199.90 C 127.11 200.02 128.09 199.22 128.21 198.12 L 128.31 197.11 C 128.43 196.01 127.63 195.03 126.53 194.92 C 125.43 194.80 124.45 195.60 124.34 196.70 Z M 124.24 197.70 L 124.12 198.72 C 124.00 199.81 124.79 200.80 125.89 200.92 C 126.98 201.04 127.97 200.25 128.09 199.16 L 128.20 198.13 C 128.32 197.04 127.53 196.05 126.44 195.93 C 125.34 195.81 124.36 196.60 124.24 197.70 Z M 124.13 198.71 L 124.01 199.74 C 123.88 200.83 124.66 201.82 125.75 201.95 C 126.85 202.08 127.84 201.30 127.96 200.20 L 128.08 199.17 C 128.21 198.08 127.43 197.09 126.34 196.96 C 125.25 196.83 124.26 197.61 124.13 198.71 Z M 124.01 199.73 L 123.88 200.78 C 123.75 201.87 124.52 202.86 125.61 202.99 C 126.70 203.13 127.70 202.35 127.83 201.26 L 127.96 200.21 C 128.09 199.13 127.32 198.13 126.23 198.00 C 125.14 197.86 124.15 198.64 124.01 199.73 Z M 123.89 200.77 L 123.76 201.75 C 123.62 202.84 124.39 203.84 125.48 203.98 C 126.56 204.12 127.56 203.35 127.70 202.26 L 127.83 201.27 C 127.97 200.19 127.20 199.19 126.11 199.05 C 125.02 198.91 124.03 199.68 123.89 200.77 Z M 123.77 201.74 L 123.63 202.73 C 123.49 203.82 124.25 204.81 125.33 204.96 C 126.42 205.10 127.42 204.34 127.56 203.26 L 127.69 202.27 C 127.84 201.19 127.08 200.19 125.99 200.04 C 124.91 199.90 123.91 200.66 123.77 201.74 Z M 123.64 202.72 L 123.50 203.72 C 123.35 204.80 124.11 205.80 125.19 205.95 C 126.27 206.10 127.27 205.34 127.42 204.26 L 127.56 203.27 C 127.71 202.19 126.95 201.19 125.87 201.04 C 124.79 200.89 123.79 201.64 123.64 202.72 Z M 123.51 203.71 L 123.36 204.71 C 123.21 205.79 123.96 206.79 125.04 206.94 C 126.11 207.10 127.11 206.35 127.27 205.27 L 127.41 204.27 C 127.57 203.19 126.82 202.19 125.74 202.04 C 124.66 201.88 123.66 202.63 123.51 203.71 Z M 123.37 204.70 L 123.22 205.71 C 123.06 206.78 123.80 207.78 124.88 207.94 C 125.96 208.10 126.96 207.36 127.12 206.28 L 127.26 205.28 C 127.42 204.20 126.68 203.20 125.60 203.04 C 124.53 202.88 123.53 203.63 123.37 204.70 Z M 123.22 205.70 L 123.07 206.70 C 122.91 207.78 123.65 208.78 124.72 208.94 C 125.79 209.10 126.80 208.37 126.96 207.29 L 127.11 206.29 C 127.27 205.21 126.54 204.21 125.46 204.05 C 124.39 203.89 123.39 204.62 123.22 205.70 Z M 123.08 206.69 L 122.92 207.70 C 122.75 208.77 123.49 209.77 124.56 209.94 C 125.63 210.10 126.63 209.37 126.80 208.30 L 126.95 207.30 C 127.12 206.23 126.39 205.22 125.32 205.06 C 124.25 204.89 123.24 205.62 123.08 206.69 Z M 122.92 207.69 L 122.77 208.69 C 122.60 209.76 123.32 210.76 124.39 210.93 C 125.46 211.10 126.47 210.37 126.64 209.30 L 126.79 208.31 C 126.96 207.24 126.24 206.23 125.17 206.06 C 124.10 205.89 123.09 206.62 122.92 207.69 Z M 122.77 208.68 L 122.61 209.67 C 122.44 210.74 123.16 211.74 124.23 211.92 C 125.29 212.09 126.30 211.36 126.47 210.30 L 126.63 209.31 C 126.80 208.24 126.08 207.24 125.01 207.06 C 123.95 206.89 122.94 207.61 122.77 208.68 Z M 122.61 209.67 L 122.45 210.65 C 122.27 211.71 122.99 212.72 124.06 212.89 C 125.12 213.07 126.13 212.35 126.30 211.29 L 126.47 210.30 C 126.64 209.24 125.92 208.24 124.86 208.06 C 123.80 207.88 122.79 208.60 122.61 209.67 Z M 122.46 210.64 L 122.29 211.61 C 122.11 212.67 122.83 213.68 123.89 213.86 C 124.95 214.04 125.96 213.32 126.13 212.26 L 126.30 211.29 C 126.48 210.23 125.76 209.22 124.70 209.04 C 123.64 208.87 122.64 209.58 122.46 210.64 Z M 122.30 211.61 L 122.13 212.56 C 121.95 213.62 122.66 214.63 123.72 214.81 C 124.78 214.99 125.78 214.28 125.97 213.22 L 126.13 212.27 C 126.31 211.21 125.60 210.20 124.54 210.02 C 123.48 209.84 122.48 210.55 122.30 211.61 Z M 122.14 212.56 L 121.96 213.59 C 121.77 214.65 122.48 215.66 123.53 215.84 C 124.59 216.03 125.59 215.32 125.78 214.26 L 125.96 213.23 C 126.15 212.17 125.44 211.17 124.38 210.98 C 123.33 210.80 122.32 211.50 122.14 212.56 Z M 121.96 213.59 L 121.78 214.62 C 121.59 215.68 122.29 216.68 123.34 216.87 C 124.40 217.06 125.40 216.36 125.59 215.30 L 125.77 214.27 C 125.96 213.22 125.26 212.21 124.21 212.02 C 123.15 211.83 122.15 212.54 121.96 213.59 Z M 121.78 214.62 L 121.60 215.64 C 121.41 216.69 122.10 217.69 123.15 217.88 C 124.20 218.07 125.21 217.38 125.40 216.33 L 125.59 215.31 C 125.78 214.26 125.08 213.25 124.03 213.06 C 122.98 212.87 121.97 213.57 121.78 214.62 Z M 121.60 215.63 L 121.42 216.63 C 121.22 217.68 121.92 218.69 122.97 218.88 C 124.01 219.07 125.02 218.38 125.21 217.33 L 125.40 216.33 C 125.59 215.28 124.90 214.28 123.85 214.08 C 122.80 213.89 121.79 214.58 121.60 215.63 Z M 121.42 216.63 L 121.24 217.62 C 121.04 218.66 121.73 219.67 122.78 219.86 C 123.82 220.06 124.83 219.37 125.02 218.32 L 125.21 217.34 C 125.40 216.29 124.71 215.29 123.67 215.09 C 122.62 214.90 121.62 215.58 121.42 216.63 Z M 121.24 217.61 L 121.06 218.59 C 120.86 219.63 121.55 220.64 122.59 220.83 C 123.63 221.03 124.64 220.35 124.83 219.30 L 125.02 218.33 C 125.21 217.28 124.53 216.28 123.49 216.08 C 122.44 215.89 121.44 216.57 121.24 217.61 Z M 121.06 218.59 L 120.88 219.55 C 120.68 220.59 121.36 221.60 122.40 221.79 C 123.44 221.99 124.45 221.31 124.64 220.27 L 124.83 219.31 C 125.03 218.27 124.35 217.26 123.31 217.06 C 122.27 216.86 121.26 217.55 121.06 218.59 Z M 120.88 219.55 L 120.70 220.51 C 120.50 221.54 121.18 222.55 122.22 222.75 C 123.25 222.95 124.26 222.27 124.46 221.23 L 124.64 220.27 C 124.84 219.24 124.16 218.23 123.12 218.03 C 122.09 217.83 121.08 218.51 120.88 219.55 Z M 120.70 220.50 L 120.52 221.45 C 120.32 222.49 120.99 223.49 122.03 223.69 C 123.06 223.89 124.07 223.21 124.27 222.18 L 124.45 221.23 C 124.65 220.20 123.98 219.19 122.94 218.99 C 121.91 218.79 120.91 219.47 120.70 220.50 Z M 120.52 221.45 L 120.34 222.39 C 120.14 223.42 120.81 224.43 121.84 224.63 C 122.88 224.83 123.88 224.16 124.08 223.12 L 124.26 222.18 C 124.46 221.15 123.79 220.15 122.76 219.95 C 121.73 219.74 120.73 220.42 120.52 221.45 Z M 120.34 222.39 L 120.16 223.34 C 119.96 224.37 120.63 225.36 121.66 225.57 C 122.69 225.77 123.69 225.10 123.89 224.07 L 124.07 223.12 C 124.28 222.09 123.60 221.10 122.58 220.89 C 121.55 220.69 120.55 221.36 120.34 222.39 Z M 120.16 223.34 L 119.97 224.34 C 119.76 225.37 120.43 226.36 121.46 226.57 C 122.49 226.77 123.48 226.10 123.68 225.07 L 123.88 224.07 C 124.09 223.04 123.42 222.04 122.39 221.84 C 121.36 221.64 120.37 222.31 120.16 223.34 Z M 119.97 224.34 L 119.77 225.34 C 119.57 226.37 120.24 227.36 121.26 227.56 C 122.28 227.77 123.28 227.10 123.48 226.08 L 123.68 225.07 C 123.88 224.05 123.22 223.06 122.19 222.85 C 121.17 222.65 120.17 223.32 119.97 224.34 Z M 119.78 225.34 L 119.58 226.34 C 119.38 227.36 120.04 228.35 121.06 228.55 C 122.08 228.76 123.07 228.09 123.28 227.07 L 123.48 226.08 C 123.68 225.06 123.02 224.06 121.99 223.86 C 120.97 223.66 119.98 224.32 119.78 225.34 Z M 119.59 226.34 L 119.39 227.33 C 119.18 228.35 119.84 229.34 120.86 229.54 C 121.88 229.74 122.87 229.08 123.07 228.07 L 123.27 227.07 C 123.47 226.06 122.81 225.07 121.80 224.86 C 120.78 224.66 119.79 225.32 119.59 226.34 Z M 119.39 227.33 L 119.20 228.31 C 118.99 229.33 119.65 230.32 120.66 230.52 C 121.68 230.72 122.67 230.07 122.87 229.05 L 123.07 228.07 C 123.27 227.05 122.61 226.06 121.60 225.86 C 120.59 225.66 119.60 226.31 119.39 227.33 Z M 119.20 228.31 L 119.00 229.29 C 118.80 230.30 119.45 231.29 120.46 231.49 C 121.47 231.70 122.46 231.04 122.66 230.03 L 122.86 229.05 C 123.07 228.04 122.41 227.06 121.40 226.85 C 120.39 226.65 119.41 227.30 119.20 228.31 Z M 119.01 229.29 L 118.81 230.26 C 118.61 231.27 119.26 232.25 120.26 232.46 C 121.27 232.66 122.26 232.01 122.46 231.01 L 122.66 230.03 C 122.86 229.03 122.21 228.04 121.21 227.84 C 120.20 227.63 119.21 228.28 119.01 229.29 Z M 118.82 230.26 L 118.62 231.22 C 118.41 232.23 119.06 233.21 120.06 233.42 C 121.07 233.62 122.05 232.98 122.26 231.97 L 122.45 231.01 C 122.66 230.00 122.01 229.02 121.01 228.81 C 120.01 228.61 119.02 229.26 118.82 230.26 Z M 118.62 231.22 L 118.43 232.18 C 118.22 233.18 118.86 234.16 119.86 234.37 C 120.86 234.57 121.84 233.93 122.05 232.93 L 122.25 231.97 C 122.46 230.97 121.82 229.99 120.81 229.78 C 119.81 229.58 118.83 230.22 118.62 231.22 Z M 118.43 232.17 L 118.23 233.12 C 118.03 234.12 118.66 235.09 119.66 235.30 C 120.66 235.51 121.64 234.87 121.85 233.88 L 122.05 232.93 C 122.26 231.93 121.62 230.95 120.62 230.75 C 119.62 230.54 118.64 231.18 118.43 232.17 Z M 118.24 233.12 L 118.05 234.03 C 117.84 235.02 118.47 236.00 119.47 236.21 C 120.46 236.42 121.44 235.78 121.65 234.79 L 121.84 233.88 C 122.05 232.88 121.42 231.91 120.42 231.70 C 119.43 231.48 118.45 232.12 118.24 233.12 Z M 118.05 234.02 L 117.86 234.93 C 117.65 235.92 118.28 236.90 119.27 237.11 C 120.26 237.32 121.24 236.69 121.45 235.70 L 121.64 234.79 C 121.86 233.80 121.22 232.82 120.23 232.61 C 119.24 232.40 118.27 233.03 118.05 234.02 Z M 117.87 234.93 L 117.67 235.84 C 117.46 236.83 118.09 237.80 119.08 238.01 C 120.06 238.23 121.04 237.60 121.25 236.61 L 121.45 235.70 C 121.66 234.71 121.03 233.74 120.04 233.52 C 119.05 233.31 118.08 233.94 117.87 234.93 Z M 117.68 235.84 L 117.48 236.76 C 117.27 237.75 117.89 238.72 118.88 238.93 C 119.86 239.14 120.83 238.52 121.05 237.53 L 121.24 236.61 C 121.46 235.62 120.83 234.65 119.84 234.44 C 118.86 234.23 117.89 234.86 117.68 235.84 Z M 117.48 236.76 L 117.28 237.70 C 117.07 238.68 117.69 239.65 118.68 239.86 C 119.66 240.07 120.63 239.45 120.84 238.47 L 121.04 237.53 C 121.25 236.55 120.63 235.58 119.64 235.37 C 118.66 235.16 117.69 235.78 117.48 236.76 Z M 117.29 237.70 L 117.08 238.66 C 116.87 239.64 117.49 240.61 118.47 240.82 C 119.45 241.03 120.42 240.41 120.63 239.43 L 120.83 238.47 C 121.04 237.49 120.42 236.52 119.44 236.31 C 118.46 236.10 117.50 236.72 117.29 237.70 Z M 117.08 238.66 L 116.87 239.65 C 116.66 240.63 117.29 241.59 118.26 241.80 C 119.24 242.01 120.20 241.39 120.41 240.41 L 120.62 239.42 C 120.83 238.45 120.21 237.48 119.23 237.27 C 118.26 237.07 117.29 237.69 117.08 238.66 Z M 116.88 239.66 L 116.66 240.68 C 116.45 241.66 117.07 242.62 118.05 242.82 C 119.02 243.03 119.98 242.41 120.19 241.43 L 120.41 240.41 C 120.61 239.43 119.99 238.48 119.02 238.27 C 118.04 238.06 117.08 238.68 116.88 239.66 Z M 116.66 240.69 L 116.44 241.75 C 116.23 242.72 116.85 243.68 117.83 243.89 C 118.80 244.09 119.75 243.47 119.96 242.50 L 120.18 241.43 C 120.39 240.46 119.77 239.50 118.80 239.30 C 117.82 239.09 116.87 239.71 116.66 240.69 Z M 116.44 241.76 L 116.21 242.87 C 116.00 243.84 116.63 244.79 117.60 245.00 C 118.56 245.20 119.52 244.58 119.72 243.61 L 119.95 242.49 C 120.16 241.52 119.54 240.57 118.57 240.37 C 117.60 240.17 116.65 240.79 116.44 241.76 Z M 116.21 242.88 L 116.02 243.82 C 115.82 244.78 116.44 245.73 117.40 245.93 C 118.37 246.13 119.32 245.51 119.52 244.54 L 119.72 243.60 C 119.92 242.64 119.30 241.69 118.33 241.49 C 117.36 241.29 116.41 241.91 116.21 242.88 Z M 116.02 243.82 L 115.84 244.72 C 115.64 245.69 116.26 246.63 117.23 246.83 C 118.19 247.02 119.14 246.40 119.33 245.44 L 119.52 244.54 C 119.72 243.57 119.09 242.63 118.13 242.43 C 117.16 242.23 116.22 242.86 116.02 243.82 Z M 115.84 244.73 L 115.65 245.65 C 115.46 246.62 116.09 247.56 117.05 247.75 C 118.02 247.94 118.95 247.32 119.15 246.35 L 119.33 245.43 C 119.52 244.46 118.90 243.52 117.93 243.33 C 116.97 243.14 116.03 243.76 115.84 244.73 Z M 115.65 245.67 L 115.47 246.61 C 115.29 247.58 115.92 248.51 116.88 248.70 C 117.85 248.88 118.78 248.25 118.96 247.29 L 119.15 246.34 C 119.33 245.37 118.70 244.44 117.74 244.26 C 116.77 244.07 115.84 244.70 115.65 245.67 Z M 115.47 246.63 L 115.29 247.60 C 115.12 248.56 115.76 249.49 116.72 249.66 C 117.68 249.84 118.61 249.20 118.79 248.24 L 118.96 247.27 C 119.14 246.31 118.50 245.38 117.54 245.21 C 116.57 245.03 115.65 245.67 115.47 246.63 Z M 115.30 247.62 L 115.12 248.61 C 114.96 249.57 115.60 250.49 116.57 250.65 C 117.53 250.82 118.45 250.17 118.61 249.21 L 118.79 248.22 C 118.95 247.26 118.30 246.34 117.34 246.17 C 116.38 246.01 115.46 246.65 115.30 247.62 Z M 115.12 248.63 L 114.96 249.63 C 114.81 250.59 115.47 251.50 116.43 251.65 C 117.39 251.81 118.30 251.15 118.45 250.19 L 118.61 249.19 C 118.77 248.22 118.11 247.32 117.15 247.16 C 116.19 247.01 115.28 247.66 115.12 248.63 Z M 114.96 249.65 L 114.82 250.67 C 114.68 251.63 115.34 252.53 116.31 252.67 C 117.27 252.81 118.17 252.14 118.31 251.18 L 118.45 250.16 C 118.59 249.20 117.93 248.30 116.96 248.16 C 116.00 248.02 115.10 248.69 114.96 249.65 Z M 114.82 250.70 L 114.68 251.72 C 114.56 252.69 115.24 253.57 116.20 253.69 C 117.17 253.82 118.05 253.14 118.17 252.17 L 118.31 251.15 C 118.43 250.19 117.75 249.30 116.79 249.18 C 115.82 249.05 114.94 249.73 114.82 250.70 Z M 114.68 251.75 L 114.57 252.79 C 114.46 253.75 115.16 254.62 116.12 254.73 C 117.08 254.83 117.95 254.14 118.06 253.17 L 118.17 252.14 C 118.28 251.18 117.59 250.31 116.62 250.20 C 115.66 250.10 114.79 250.79 114.68 251.75 Z M 114.57 252.82 L 114.47 253.86 C 114.39 254.82 115.10 255.67 116.06 255.76 C 117.02 255.85 117.88 255.14 117.97 254.17 L 118.06 253.14 C 118.15 252.18 117.44 251.32 116.47 251.23 C 115.51 251.15 114.66 251.86 114.57 252.82 Z M 114.48 253.90 L 114.40 254.93 C 114.34 255.90 115.07 256.73 116.03 256.80 C 116.99 256.86 117.83 256.14 117.89 255.17 L 117.96 254.14 C 118.03 253.17 117.30 252.34 116.34 252.27 C 115.38 252.21 114.54 252.93 114.48 253.90 Z M 114.41 254.98 L 114.36 256.01 C 114.32 256.98 115.06 257.79 116.03 257.83 C 116.99 257.88 117.80 257.13 117.85 256.17 L 117.89 255.13 C 117.93 254.17 117.19 253.35 116.23 253.31 C 115.26 253.27 114.45 254.01 114.41 254.98 Z M 114.36 256.06 L 114.34 257.09 C 114.33 258.05 115.10 258.85 116.06 258.86 C 117.02 258.88 117.81 258.11 117.83 257.15 L 117.84 256.12 C 117.86 255.16 117.09 254.36 116.13 254.35 C 115.17 254.33 114.38 255.10 114.36 256.06 Z M 114.35 257.14 L 114.36 258.16 C 114.37 259.12 115.16 259.89 116.12 259.87 C 117.08 259.86 117.85 259.08 117.84 258.12 L 117.82 257.10 C 117.81 256.14 117.02 255.37 116.06 255.39 C 115.11 255.40 114.34 256.19 114.35 257.14 Z M 114.37 258.21 L 114.41 259.22 C 114.45 260.17 115.26 260.92 116.21 260.88 C 117.17 260.84 117.91 260.03 117.87 259.08 L 117.83 258.07 C 117.79 257.11 116.98 256.37 116.03 256.41 C 115.07 256.45 114.33 257.25 114.37 258.21 Z M 114.42 259.26 L 114.49 260.27 C 114.55 261.22 115.37 261.94 116.32 261.87 C 117.27 261.81 117.99 260.99 117.93 260.04 L 117.86 259.03 C 117.80 258.08 116.97 257.36 116.02 257.43 C 115.07 257.49 114.36 258.31 114.42 259.26 Z M 114.50 260.31 L 114.59 261.31 C 114.68 262.25 115.51 262.95 116.46 262.86 C 117.40 262.77 118.10 261.94 118.01 260.99 L 117.92 259.99 C 117.83 259.05 117.00 258.36 116.05 258.44 C 115.11 258.53 114.41 259.36 114.50 260.31 Z M 114.60 261.34 L 114.71 262.34 C 114.82 263.28 115.67 263.95 116.61 263.84 C 117.55 263.74 118.22 262.89 118.11 261.95 L 118.00 260.96 C 117.89 260.02 117.04 259.34 116.11 259.45 C 115.17 259.56 114.49 260.41 114.60 261.34 Z M 114.73 262.37 L 114.86 263.36 C 114.99 264.29 115.84 264.95 116.78 264.82 C 117.71 264.70 118.36 263.84 118.24 262.90 L 118.10 261.92 C 117.98 260.98 117.12 260.33 116.19 260.46 C 115.25 260.58 114.60 261.44 114.73 262.37 Z M 114.87 263.39 L 115.02 264.38 C 115.16 265.30 116.03 265.94 116.96 265.80 C 117.88 265.65 118.52 264.79 118.38 263.86 L 118.22 262.88 C 118.08 261.95 117.22 261.31 116.29 261.46 C 115.36 261.60 114.73 262.46 114.87 263.39 Z M 115.03 264.40 L 115.20 265.38 C 115.35 266.30 116.23 266.92 117.15 266.77 C 118.07 266.61 118.69 265.74 118.53 264.82 L 118.37 263.84 C 118.21 262.91 117.34 262.30 116.42 262.45 C 115.50 262.61 114.88 263.48 115.03 264.40 Z M 115.21 265.40 L 115.39 266.38 C 115.56 267.30 116.43 267.90 117.35 267.73 C 118.26 267.57 118.87 266.69 118.70 265.77 L 118.52 264.80 C 118.35 263.88 117.48 263.28 116.56 263.44 C 115.65 263.61 115.04 264.49 115.21 265.40 Z M 115.40 266.40 L 115.59 267.38 C 115.77 268.29 116.65 268.88 117.56 268.70 C 118.47 268.52 119.06 267.64 118.88 266.73 L 118.69 265.76 C 118.51 264.85 117.63 264.25 116.72 264.43 C 115.81 264.61 115.22 265.49 115.40 266.40 Z M 115.60 267.39 L 115.80 268.36 C 115.98 269.27 116.87 269.85 117.77 269.67 C 118.67 269.48 119.26 268.60 119.07 267.69 L 118.87 266.72 C 118.69 265.82 117.80 265.23 116.90 265.42 C 116.00 265.60 115.41 266.49 115.60 267.39 Z M 115.81 268.37 L 116.01 269.35 C 116.20 270.25 117.09 270.82 117.99 270.63 C 118.89 270.44 119.46 269.56 119.27 268.66 L 119.06 267.68 C 118.87 266.79 117.99 266.21 117.09 266.40 C 116.19 266.59 115.62 267.48 115.81 268.37 Z M 116.02 269.35 L 116.23 270.33 C 116.43 271.22 117.31 271.79 118.20 271.59 C 119.10 271.40 119.67 270.52 119.47 269.62 L 119.26 268.65 C 119.07 267.76 118.18 267.19 117.29 267.38 C 116.40 267.58 115.83 268.46 116.02 269.35 Z M 116.24 270.33 L 116.45 271.30 C 116.65 272.19 117.53 272.75 118.42 272.56 C 119.31 272.36 119.87 271.48 119.68 270.59 L 119.46 269.62 C 119.27 268.73 118.39 268.17 117.50 268.36 C 116.61 268.56 116.04 269.44 116.24 270.33 Z"
      fill="black"
      fill-rule="nonzero" /><path d="M 177.23 150.01 L 178.10 148.98 C 178.69 148.27 178.60 147.21 177.89 146.61 C 177.18 146.02 176.12 146.11 175.53 146.82 L 174.66 147.86 C 174.07 148.57 174.16 149.62 174.87 150.22 C 175.58 150.81 176.64 150.72 177.23 150.01 Z M 178.12 148.99 L 178.98 147.97 C 179.58 147.25 179.49 146.17 178.77 145.57 C 178.05 144.97 176.97 145.06 176.37 145.78 L 175.51 146.80 C 174.91 147.52 175.00 148.60 175.72 149.20 C 176.44 149.81 177.52 149.71 178.12 148.99 Z M 179.00 147.99 L 179.83 146.99 C 180.45 146.26 180.35 145.17 179.62 144.55 C 178.89 143.94 177.80 144.03 177.19 144.77 L 176.35 145.76 C 175.73 146.50 175.83 147.59 176.56 148.20 C 177.29 148.81 178.38 148.72 179.00 147.99 Z M 179.85 147.01 L 180.66 146.04 C 181.29 145.30 181.19 144.19 180.45 143.57 C 179.71 142.95 178.60 143.04 177.98 143.78 L 177.17 144.75 C 176.54 145.49 176.64 146.60 177.38 147.22 C 178.12 147.84 179.23 147.75 179.85 147.01 Z M 180.68 146.06 L 181.45 145.15 C 182.09 144.39 181.99 143.27 181.24 142.64 C 180.49 142.00 179.36 142.10 178.73 142.85 L 177.96 143.77 C 177.32 144.52 177.42 145.64 178.17 146.28 C 178.92 146.91 180.05 146.81 180.68 146.06 Z M 181.47 145.17 L 182.20 144.31 C 182.84 143.55 182.75 142.41 181.98 141.76 C 181.22 141.12 180.08 141.21 179.44 141.97 L 178.71 142.83 C 178.07 143.59 178.16 144.73 178.92 145.38 C 179.69 146.02 180.83 145.93 181.47 145.17 Z M 182.21 144.33 L 182.88 143.55 C 183.54 142.77 183.45 141.62 182.67 140.96 C 181.90 140.30 180.75 140.40 180.09 141.17 L 179.42 141.95 C 178.76 142.72 178.86 143.88 179.63 144.54 C 180.40 145.19 181.56 145.10 182.21 144.33 Z M 182.90 143.57 L 183.50 142.86 C 184.17 142.08 184.08 140.91 183.30 140.24 C 182.52 139.57 181.34 139.66 180.68 140.44 L 180.07 141.15 C 179.40 141.93 179.49 143.10 180.27 143.77 C 181.05 144.44 182.23 144.35 182.90 143.57 Z M 183.51 142.89 L 184.04 142.28 C 184.72 141.49 184.64 140.30 183.85 139.62 C 183.06 138.94 181.87 139.02 181.19 139.81 L 180.66 140.42 C 179.98 141.21 180.07 142.40 180.85 143.08 C 181.64 143.76 182.83 143.68 183.51 142.89 Z M 184.05 142.31 L 184.49 141.81 C 185.19 141.02 185.11 139.81 184.32 139.11 C 183.53 138.41 182.32 138.49 181.62 139.28 L 181.18 139.78 C 180.48 140.57 180.56 141.78 181.35 142.48 C 182.14 143.18 183.35 143.10 184.05 142.31 Z M 184.49 141.85 L 184.84 141.47 C 185.56 140.67 185.50 139.45 184.71 138.73 C 183.91 138.01 182.69 138.07 181.97 138.86 L 181.62 139.24 C 180.90 140.03 180.96 141.26 181.75 141.98 C 182.55 142.70 183.77 142.64 184.49 141.85 Z M 184.81 141.53 L 185.08 141.25 C 185.84 140.47 185.82 139.23 185.05 138.48 C 184.27 137.72 183.03 137.74 182.27 138.51 L 182.00 138.79 C 181.24 139.57 181.26 140.81 182.04 141.57 C 182.81 142.32 184.05 142.31 184.81 141.53 Z M 184.64 141.60 L 184.78 141.53 C 185.73 140.99 186.07 139.79 185.54 138.84 C 185.01 137.89 183.80 137.55 182.85 138.08 L 182.71 138.16 C 181.76 138.69 181.42 139.89 181.96 140.85 C 182.49 141.80 183.69 142.14 184.64 141.60 Z M 182.11 138.81 L 181.93 139.13 C 181.38 140.07 181.69 141.28 182.63 141.83 C 183.57 142.38 184.78 142.06 185.33 141.12 L 185.52 140.80 C 186.07 139.86 185.75 138.65 184.81 138.10 C 183.87 137.55 182.66 137.87 182.11 138.81 Z M 182.03 138.97 L 181.57 139.61 C 180.93 140.49 181.13 141.73 182.02 142.36 C 182.90 143.00 184.14 142.80 184.77 141.91 L 185.23 141.28 C 185.87 140.39 185.67 139.16 184.78 138.52 C 183.90 137.88 182.66 138.08 182.03 138.97 Z M 181.61 139.56 L 180.92 140.44 C 180.26 141.31 180.42 142.55 181.28 143.21 C 182.14 143.88 183.38 143.72 184.05 142.85 L 184.73 141.97 C 185.40 141.10 185.24 139.86 184.38 139.20 C 183.51 138.53 182.27 138.69 181.61 139.56 Z M 180.95 140.41 L 180.09 141.47 C 179.40 142.32 179.54 143.56 180.39 144.25 C 181.23 144.93 182.48 144.80 183.16 143.95 L 184.02 142.89 C 184.71 142.04 184.58 140.80 183.73 140.11 C 182.88 139.43 181.63 139.56 180.95 140.41 Z M 180.12 141.44 L 179.13 142.60 C 178.43 143.44 178.54 144.69 179.37 145.39 C 180.20 146.09 181.45 145.99 182.16 145.15 L 183.14 143.99 C 183.84 143.15 183.74 141.91 182.90 141.20 C 182.07 140.50 180.82 140.60 180.12 141.44 Z M 179.16 142.57 L 178.44 143.39 C 177.73 144.21 177.81 145.46 178.63 146.18 C 179.45 146.90 180.70 146.82 181.42 145.99 L 182.13 145.18 C 182.85 144.36 182.77 143.11 181.95 142.39 C 181.13 141.67 179.88 141.75 179.16 142.57 Z M 178.46 143.37 L 177.80 144.11 C 177.07 144.92 177.13 146.17 177.94 146.90 C 178.75 147.63 180.00 147.56 180.73 146.75 L 181.40 146.01 C 182.13 145.20 182.06 143.95 181.25 143.22 C 180.44 142.49 179.19 142.56 178.46 143.37 Z M 177.81 144.09 L 177.13 144.83 C 176.39 145.63 176.44 146.88 177.24 147.62 C 178.04 148.36 179.29 148.31 180.03 147.51 L 180.72 146.77 C 181.46 145.97 181.41 144.72 180.60 143.98 C 179.80 143.24 178.55 143.29 177.81 144.09 Z M 177.14 144.82 L 176.45 145.56 C 175.70 146.35 175.74 147.60 176.53 148.35 C 177.33 149.10 178.58 149.06 179.32 148.27 L 180.02 147.53 C 180.77 146.73 180.73 145.48 179.93 144.73 C 179.14 143.99 177.89 144.02 177.14 144.82 Z M 176.46 145.55 L 175.75 146.29 C 175.00 147.07 175.03 148.32 175.82 149.08 C 176.60 149.83 177.85 149.80 178.61 149.01 L 179.31 148.28 C 180.07 147.49 180.04 146.24 179.25 145.49 C 178.46 144.73 177.21 144.76 176.46 145.55 Z M 175.76 146.28 L 175.05 147.01 C 174.29 147.79 174.31 149.04 175.10 149.80 C 175.88 150.56 177.13 150.54 177.89 149.76 L 178.60 149.02 C 179.36 148.24 179.34 146.99 178.55 146.23 C 177.77 145.47 176.52 145.49 175.76 146.28 Z M 175.06 147.00 L 174.35 147.73 C 173.59 148.50 173.60 149.75 174.38 150.52 C 175.16 151.28 176.41 151.27 177.17 150.49 L 177.88 149.76 C 178.64 148.99 178.63 147.74 177.85 146.97 C 177.07 146.21 175.82 146.22 175.06 147.00 Z M 174.36 147.72 L 173.65 148.43 C 172.88 149.21 172.89 150.46 173.67 151.23 C 174.44 151.99 175.69 151.98 176.46 151.21 L 177.16 150.49 C 177.93 149.72 177.92 148.47 177.15 147.70 C 176.37 146.94 175.12 146.94 174.36 147.72 Z M 173.65 148.43 L 172.96 149.13 C 172.19 149.91 172.19 151.15 172.96 151.92 C 173.74 152.69 174.99 152.69 175.75 151.92 L 176.45 151.21 C 177.22 150.44 177.22 149.19 176.44 148.42 C 175.67 147.65 174.42 147.66 173.65 148.43 Z M 172.96 149.13 L 172.27 149.82 C 171.50 150.59 171.50 151.84 172.28 152.61 C 173.05 153.38 174.30 153.38 175.06 152.60 L 175.75 151.92 C 176.52 151.15 176.52 149.90 175.75 149.13 C 174.98 148.36 173.73 148.36 172.96 149.13 Z M 172.27 149.82 L 171.62 150.47 C 170.85 151.24 170.85 152.49 171.62 153.26 C 172.39 154.03 173.64 154.03 174.41 153.26 L 175.06 152.61 C 175.83 151.84 175.83 150.59 175.06 149.82 C 174.29 149.05 173.04 149.05 172.27 149.82 Z M 171.62 150.47 L 170.99 151.10 C 170.22 151.87 170.22 153.12 170.99 153.89 C 171.76 154.66 173.01 154.66 173.78 153.89 L 174.40 153.26 C 175.17 152.49 175.18 151.25 174.41 150.48 C 173.64 149.71 172.39 149.70 171.62 150.47 Z M 170.99 151.10 L 170.37 151.72 C 169.60 152.49 169.59 153.74 170.36 154.51 C 171.13 155.28 172.38 155.28 173.15 154.52 L 173.77 153.89 C 174.54 153.13 174.55 151.88 173.78 151.11 C 173.01 150.34 171.76 150.33 170.99 151.10 Z M 170.37 151.72 L 169.74 152.34 C 168.97 153.11 168.96 154.35 169.73 155.13 C 170.49 155.90 171.74 155.91 172.51 155.14 L 173.14 154.52 C 173.92 153.75 173.92 152.51 173.16 151.73 C 172.39 150.96 171.15 150.95 170.37 151.72 Z M 169.75 152.34 L 169.11 152.97 C 168.33 153.73 168.32 154.98 169.08 155.75 C 169.84 156.53 171.09 156.54 171.86 155.78 L 172.51 155.15 C 173.28 154.39 173.30 153.14 172.53 152.36 C 171.77 151.59 170.53 151.57 169.75 152.34 Z M 169.11 152.96 L 168.45 153.61 C 167.67 154.36 167.65 155.61 168.41 156.39 C 169.16 157.17 170.41 157.19 171.19 156.43 L 171.86 155.79 C 172.64 155.03 172.65 153.78 171.90 153.00 C 171.14 152.22 169.89 152.20 169.11 152.96 Z M 168.46 153.60 L 167.76 154.27 C 166.97 155.02 166.95 156.27 167.70 157.05 C 168.45 157.84 169.70 157.86 170.48 157.11 L 171.18 156.44 C 171.97 155.69 171.99 154.44 171.24 153.66 C 170.49 152.87 169.24 152.85 168.46 153.60 Z M 167.77 154.26 L 167.03 154.96 C 166.24 155.71 166.21 156.95 166.96 157.74 C 167.70 158.53 168.95 158.56 169.74 157.82 L 170.48 157.12 C 171.26 156.37 171.30 155.12 170.55 154.33 C 169.80 153.55 168.56 153.51 167.77 154.26 Z M 167.04 154.95 L 166.25 155.69 C 165.46 156.43 165.42 157.68 166.16 158.47 C 166.91 159.26 168.15 159.30 168.94 158.56 L 169.73 157.82 C 170.52 157.08 170.56 155.84 169.82 155.04 C 169.08 154.25 167.83 154.21 167.04 154.95 Z M 166.26 155.68 L 165.42 156.46 C 164.62 157.20 164.57 158.45 165.31 159.24 C 166.05 160.04 167.29 160.09 168.09 159.35 L 168.93 158.57 C 169.73 157.83 169.78 156.59 169.04 155.79 C 168.30 154.99 167.06 154.94 166.26 155.68 Z M 165.43 156.46 L 164.52 157.29 C 163.72 158.02 163.66 159.27 164.39 160.07 C 165.13 160.87 166.37 160.92 167.17 160.19 L 168.08 159.36 C 168.88 158.62 168.94 157.38 168.20 156.58 C 167.47 155.78 166.23 155.72 165.43 156.46 Z M 164.52 157.28 L 163.75 157.98 C 162.95 158.71 162.89 159.95 163.62 160.76 C 164.35 161.56 165.59 161.62 166.39 160.89 L 167.16 160.20 C 167.97 159.47 168.03 158.22 167.30 157.42 C 166.57 156.62 165.33 156.55 164.52 157.28 Z M 163.76 157.98 L 163.08 158.59 C 162.27 159.31 162.21 160.56 162.93 161.36 C 163.66 162.17 164.90 162.23 165.71 161.51 L 166.39 160.90 C 167.19 160.17 167.26 158.93 166.53 158.12 C 165.81 157.32 164.57 157.25 163.76 157.98 Z M 163.09 158.58 L 162.38 159.21 C 161.57 159.94 161.50 161.18 162.23 161.99 C 162.95 162.80 164.19 162.87 165.00 162.14 L 165.71 161.51 C 166.51 160.79 166.58 159.55 165.86 158.74 C 165.14 157.93 163.89 157.86 163.09 158.58 Z M 162.38 159.21 L 161.65 159.86 C 160.84 160.58 160.77 161.82 161.49 162.64 C 162.21 163.45 163.46 163.52 164.27 162.80 L 165.00 162.15 C 165.81 161.42 165.88 160.18 165.16 159.37 C 164.44 158.56 163.19 158.49 162.38 159.21 Z M 161.66 159.86 L 160.91 160.52 C 160.09 161.24 160.02 162.48 160.74 163.30 C 161.46 164.11 162.70 164.18 163.51 163.46 L 164.26 162.80 C 165.07 162.08 165.15 160.84 164.43 160.03 C 163.71 159.21 162.47 159.14 161.66 159.86 Z M 160.91 160.52 L 160.14 161.20 C 159.33 161.92 159.25 163.16 159.97 163.97 C 160.69 164.78 161.93 164.86 162.74 164.14 L 163.51 163.47 C 164.32 162.75 164.40 161.51 163.68 160.69 C 162.96 159.88 161.72 159.80 160.91 160.52 Z M 160.15 161.20 L 159.37 161.88 C 158.55 162.60 158.47 163.84 159.19 164.65 C 159.90 165.47 161.15 165.55 161.96 164.83 L 162.74 164.15 C 163.55 163.43 163.63 162.19 162.92 161.37 C 162.20 160.56 160.96 160.48 160.15 161.20 Z M 159.37 161.88 L 158.58 162.57 C 157.76 163.29 157.68 164.53 158.40 165.34 C 159.11 166.16 160.35 166.24 161.17 165.53 L 161.96 164.83 C 162.77 164.12 162.85 162.88 162.14 162.06 C 161.42 161.25 160.18 161.17 159.37 161.88 Z M 158.58 162.57 L 157.79 163.26 C 156.97 163.98 156.89 165.22 157.60 166.04 C 158.31 166.85 159.56 166.94 160.37 166.22 L 161.17 165.53 C 161.98 164.81 162.07 163.57 161.35 162.76 C 160.64 161.94 159.40 161.86 158.58 162.57 Z M 157.79 163.26 L 156.99 163.96 C 156.18 164.67 156.09 165.91 156.80 166.73 C 157.52 167.54 158.76 167.63 159.57 166.92 L 160.37 166.22 C 161.19 165.51 161.27 164.27 160.56 163.45 C 159.85 162.64 158.61 162.55 157.79 163.26 Z M 157.00 163.96 L 156.20 164.65 C 155.38 165.36 155.30 166.60 156.01 167.41 C 156.72 168.23 157.96 168.32 158.78 167.61 L 159.57 166.92 C 160.39 166.21 160.48 164.97 159.77 164.15 C 159.05 163.33 157.81 163.24 157.00 163.96 Z M 156.20 164.64 L 155.42 165.33 C 154.60 166.04 154.51 167.28 155.22 168.10 C 155.93 168.92 157.17 169.00 157.99 168.29 L 158.78 167.61 C 159.59 166.90 159.68 165.66 158.97 164.84 C 158.26 164.02 157.02 163.93 156.20 164.64 Z M 155.42 165.33 L 154.64 166.00 C 153.82 166.71 153.73 167.95 154.44 168.77 C 155.15 169.59 156.39 169.68 157.21 168.97 L 157.99 168.29 C 158.81 167.59 158.89 166.35 158.19 165.53 C 157.48 164.71 156.24 164.62 155.42 165.33 Z M 154.64 166.00 L 153.88 166.66 C 153.06 167.37 152.96 168.60 153.67 169.42 C 154.38 170.25 155.62 170.34 156.44 169.63 L 157.20 168.97 C 158.03 168.26 158.12 167.02 157.41 166.20 C 156.70 165.38 155.46 165.29 154.64 166.00 Z M 153.88 166.66 L 153.13 167.30 C 152.31 168.01 152.22 169.24 152.92 170.07 C 153.63 170.89 154.87 170.98 155.69 170.27 L 156.44 169.63 C 157.26 168.92 157.35 167.68 156.65 166.86 C 155.94 166.04 154.70 165.95 153.88 166.66 Z M 153.13 167.30 L 152.41 167.92 C 151.58 168.63 151.49 169.87 152.20 170.69 C 152.90 171.51 154.14 171.60 154.96 170.90 L 155.69 170.28 C 156.51 169.57 156.60 168.33 155.90 167.51 C 155.19 166.69 153.96 166.59 153.13 167.30 Z M 152.41 167.92 L 151.67 168.55 C 150.85 169.25 150.75 170.49 151.46 171.32 C 152.16 172.14 153.40 172.23 154.22 171.53 L 154.96 170.90 C 155.78 170.20 155.88 168.96 155.17 168.13 C 154.47 167.31 153.23 167.22 152.41 167.92 Z M 151.68 168.55 L 150.75 169.34 C 149.93 170.04 149.83 171.28 150.53 172.10 C 151.24 172.92 152.47 173.02 153.30 172.32 L 154.22 171.53 C 155.04 170.83 155.14 169.59 154.44 168.77 C 153.74 167.94 152.50 167.85 151.68 168.55 Z M 150.76 169.34 L 149.88 170.08 C 149.06 170.78 148.96 172.02 149.66 172.84 C 150.36 173.66 151.60 173.76 152.42 173.06 L 153.30 172.32 C 154.12 171.62 154.22 170.38 153.52 169.56 C 152.82 168.73 151.58 168.63 150.76 169.34 Z M 149.88 170.08 L 149.05 170.79 C 148.23 171.49 148.13 172.72 148.83 173.55 C 149.53 174.37 150.76 174.47 151.59 173.77 L 152.42 173.06 C 153.24 172.36 153.34 171.13 152.64 170.30 C 151.94 169.48 150.71 169.38 149.88 170.08 Z M 149.05 170.79 L 148.26 171.46 C 147.44 172.16 147.34 173.40 148.04 174.22 C 148.74 175.04 149.97 175.14 150.79 174.44 L 151.59 173.77 C 152.41 173.07 152.51 171.83 151.81 171.01 C 151.11 170.19 149.88 170.09 149.05 170.79 Z M 148.26 171.47 L 147.50 172.12 C 146.68 172.82 146.58 174.05 147.28 174.87 C 147.98 175.69 149.21 175.79 150.03 175.09 L 150.79 174.44 C 151.61 173.74 151.71 172.51 151.01 171.69 C 150.31 170.87 149.08 170.77 148.26 171.47 Z M 147.50 172.12 L 146.76 172.75 C 145.94 173.45 145.85 174.68 146.55 175.50 C 147.25 176.32 148.48 176.41 149.30 175.71 L 150.03 175.09 C 150.85 174.38 150.95 173.15 150.25 172.33 C 149.55 171.52 148.31 171.42 147.50 172.12 Z M 146.76 172.75 L 146.05 173.37 C 145.23 174.07 145.14 175.30 145.84 176.12 C 146.54 176.93 147.77 177.02 148.59 176.32 L 149.30 175.71 C 150.12 175.01 150.21 173.78 149.51 172.96 C 148.80 172.14 147.57 172.05 146.76 172.75 Z M 146.04 173.37 L 145.35 173.98 C 144.53 174.68 144.45 175.91 145.15 176.72 C 145.86 177.54 147.09 177.62 147.90 176.92 L 148.59 176.31 C 149.41 175.61 149.49 174.38 148.79 173.57 C 148.08 172.76 146.85 172.67 146.04 173.37 Z M 145.34 173.98 L 144.66 174.58 C 143.85 175.29 143.77 176.52 144.48 177.33 C 145.19 178.14 146.41 178.22 147.22 177.51 L 147.91 176.91 C 148.71 176.20 148.79 174.97 148.09 174.16 C 147.38 173.36 146.15 173.28 145.34 173.98 Z M 144.65 174.59 L 143.97 175.19 C 143.17 175.90 143.10 177.13 143.81 177.94 C 144.52 178.74 145.75 178.81 146.56 178.10 L 147.23 177.50 C 148.03 176.79 148.11 175.56 147.39 174.76 C 146.68 173.95 145.45 173.88 144.65 174.59 Z M 143.97 175.20 L 143.29 175.81 C 142.49 176.53 142.43 177.75 143.15 178.55 C 143.87 179.35 145.09 179.41 145.89 178.69 L 146.56 178.09 C 147.36 177.37 147.43 176.14 146.71 175.35 C 145.99 174.55 144.76 174.48 143.97 175.20 Z M 143.28 175.82 L 142.59 176.45 C 141.80 177.17 141.75 178.40 142.47 179.19 C 143.19 179.98 144.42 180.04 145.21 179.31 L 145.90 178.68 C 146.69 177.96 146.75 176.73 146.02 175.94 C 145.30 175.15 144.07 175.10 143.28 175.82 Z M 142.58 176.46 L 141.81 177.17 C 141.03 177.90 140.98 179.13 141.72 179.92 C 142.45 180.70 143.68 180.75 144.46 180.01 L 145.22 179.30 C 146.01 178.57 146.05 177.34 145.32 176.56 C 144.59 175.77 143.36 175.73 142.58 176.46 Z M 141.79 177.19 L 141.03 177.92 C 140.25 178.66 140.23 179.89 140.97 180.67 C 141.71 181.44 142.94 181.47 143.72 180.73 L 144.48 180.00 C 145.26 179.26 145.28 178.03 144.54 177.25 C 143.80 176.47 142.57 176.45 141.79 177.19 Z M 141.00 177.94 L 140.25 178.68 C 139.49 179.44 139.48 180.67 140.24 181.44 C 141.00 182.20 142.23 182.21 142.99 181.45 L 143.75 180.71 C 144.51 179.95 144.52 178.72 143.76 177.95 C 143.00 177.19 141.77 177.18 141.00 177.94 Z M 140.22 178.71 L 139.49 179.47 C 138.74 180.24 138.76 181.48 139.53 182.23 C 140.31 182.98 141.54 182.96 142.29 182.18 L 143.03 181.42 C 143.77 180.65 143.75 179.41 142.98 178.66 C 142.20 177.92 140.97 177.94 140.22 178.71 Z M 139.45 179.50 L 138.75 180.27 C 138.02 181.07 138.07 182.30 138.87 183.03 C 139.66 183.76 140.90 183.71 141.63 182.91 L 142.33 182.14 C 143.06 181.35 143.01 180.11 142.21 179.38 C 141.42 178.65 140.18 178.71 139.45 179.50 Z M 138.70 180.32 L 138.04 181.09 C 137.33 181.91 137.43 183.15 138.25 183.85 C 139.07 184.56 140.30 184.46 141.01 183.64 L 141.67 182.87 C 142.38 182.05 142.28 180.81 141.46 180.11 C 140.64 179.40 139.41 179.50 138.70 180.32 Z M 137.99 181.15 L 137.37 181.93 C 136.70 182.78 136.84 184.01 137.69 184.68 C 138.54 185.36 139.77 185.21 140.44 184.36 L 141.06 183.58 C 141.73 182.73 141.59 181.50 140.74 180.83 C 139.89 180.16 138.66 180.30 137.99 181.15 Z M 137.31 182.00 L 136.75 182.79 C 136.12 183.67 136.32 184.89 137.20 185.52 C 138.08 186.16 139.31 185.96 139.94 185.07 L 140.50 184.29 C 141.13 183.41 140.93 182.18 140.05 181.55 C 139.17 180.92 137.94 181.12 137.31 182.00 Z M 136.68 182.88 L 136.19 183.66 C 135.61 184.58 135.88 185.79 136.79 186.37 C 137.71 186.96 138.93 186.68 139.51 185.77 L 140.00 184.98 C 140.59 184.07 140.31 182.85 139.40 182.27 C 138.48 181.69 137.26 181.96 136.68 182.88 Z M 136.12 183.78 L 135.69 184.56 C 135.18 185.51 135.53 186.71 136.49 187.23 C 137.44 187.74 138.64 187.39 139.16 186.43 L 139.58 185.65 C 140.10 184.69 139.74 183.50 138.78 182.98 C 137.83 182.46 136.63 182.82 136.12 183.78 Z M 135.61 184.71 L 135.24 185.58 C 134.81 186.59 135.27 187.75 136.27 188.18 C 137.27 188.61 138.43 188.15 138.86 187.15 L 139.24 186.27 C 139.67 185.27 139.21 184.11 138.21 183.68 C 137.20 183.25 136.04 183.71 135.61 184.71 Z M 135.16 185.79 L 134.87 186.74 C 134.55 187.79 135.14 188.89 136.19 189.21 C 137.23 189.53 138.33 188.94 138.65 187.89 L 138.94 186.94 C 139.26 185.90 138.67 184.79 137.62 184.47 C 136.58 184.16 135.48 184.75 135.16 185.79 Z M 134.81 186.97 L 134.64 187.92 C 134.45 189.00 135.17 190.03 136.25 190.22 C 137.33 190.41 138.35 189.69 138.54 188.61 L 138.71 187.66 C 138.90 186.58 138.18 185.56 137.10 185.37 C 136.03 185.18 135.00 185.90 134.81 186.97 Z M 134.61 188.16 L 134.56 189.11 C 134.50 190.20 135.34 191.14 136.43 191.20 C 137.53 191.26 138.46 190.42 138.52 189.32 L 138.57 188.37 C 138.63 187.28 137.80 186.34 136.70 186.28 C 135.61 186.23 134.67 187.06 134.61 188.16 Z M 134.56 189.33 L 134.61 190.28 C 134.68 191.38 135.62 192.22 136.72 192.15 C 137.81 192.09 138.65 191.15 138.58 190.05 L 138.53 189.10 C 138.46 188.00 137.52 187.17 136.42 187.23 C 135.33 187.30 134.49 188.24 134.56 189.33 Z M 134.63 190.49 L 134.79 191.45 C 134.97 192.53 135.99 193.27 137.08 193.09 C 138.16 192.92 138.90 191.89 138.72 190.81 L 138.56 189.85 C 138.39 188.76 137.36 188.02 136.28 188.20 C 135.19 188.38 134.46 189.40 134.63 190.49 Z M 134.82 191.63 L 135.07 192.60 C 135.35 193.66 136.44 194.31 137.50 194.03 C 138.57 193.76 139.21 192.67 138.94 191.60 L 138.69 190.63 C 138.41 189.56 137.32 188.92 136.26 189.20 C 135.19 189.47 134.55 190.56 134.82 191.63 Z M 135.11 192.75 L 135.45 193.73 C 135.81 194.78 136.95 195.33 137.99 194.98 C 139.03 194.62 139.59 193.48 139.23 192.44 L 138.90 191.45 C 138.54 190.41 137.40 189.85 136.36 190.21 C 135.31 190.56 134.76 191.70 135.11 192.75 Z M 135.49 193.85 L 135.91 194.86 C 136.33 195.88 137.50 196.36 138.53 195.94 C 139.55 195.52 140.03 194.34 139.61 193.32 L 139.19 192.32 C 138.77 191.30 137.60 190.81 136.58 191.23 C 135.55 191.66 135.07 192.83 135.49 193.85 Z M 135.95 194.94 L 136.34 195.78 C 136.81 196.78 138.01 197.21 139.01 196.74 C 140.01 196.27 140.44 195.08 139.97 194.07 L 139.57 193.23 C 139.10 192.23 137.91 191.80 136.91 192.27 C 135.90 192.75 135.47 193.94 135.95 194.94 Z M 136.37 195.84 L 136.80 196.68 C 137.30 197.66 138.51 198.05 139.50 197.54 C 140.48 197.04 140.87 195.83 140.37 194.84 L 139.94 194.01 C 139.43 193.03 138.22 192.64 137.24 193.14 C 136.25 193.65 135.86 194.86 136.37 195.84 Z M 136.82 196.73 L 137.29 197.57 C 137.82 198.54 139.04 198.89 140.01 198.36 C 140.98 197.82 141.34 196.61 140.80 195.63 L 140.34 194.79 C 139.81 193.82 138.59 193.47 137.62 194.00 C 136.64 194.54 136.29 195.75 136.82 196.73 Z M 137.31 197.61 L 137.80 198.46 C 138.36 199.42 139.59 199.74 140.55 199.19 C 141.50 198.63 141.83 197.40 141.27 196.45 L 140.78 195.59 C 140.22 194.64 139.00 194.31 138.04 194.87 C 137.08 195.42 136.75 196.65 137.31 197.61 Z M 137.82 198.49 L 138.34 199.35 C 138.92 200.30 140.15 200.60 141.10 200.03 C 142.05 199.45 142.35 198.22 141.77 197.27 L 141.25 196.41 C 140.68 195.47 139.45 195.16 138.50 195.74 C 137.55 196.31 137.25 197.54 137.82 198.49 Z M 138.36 199.38 L 138.90 200.24 C 139.49 201.18 140.73 201.46 141.67 200.87 C 142.60 200.29 142.89 199.05 142.30 198.11 L 141.76 197.25 C 141.17 196.31 139.93 196.02 138.99 196.61 C 138.06 197.20 137.77 198.44 138.36 199.38 Z M 138.91 200.26 L 139.47 201.13 C 140.07 202.06 141.31 202.33 142.24 201.73 C 143.17 201.13 143.44 199.89 142.84 198.96 L 142.29 198.09 C 141.69 197.16 140.45 196.89 139.52 197.49 C 138.58 198.09 138.31 199.33 138.91 200.26 Z M 139.48 201.14 L 140.05 202.01 C 140.65 202.93 141.90 203.19 142.82 202.59 C 143.75 201.98 144.01 200.74 143.40 199.81 L 142.84 198.94 C 142.23 198.01 140.99 197.76 140.06 198.36 C 139.13 198.97 138.87 200.21 139.48 201.14 Z M 140.05 202.02 L 140.63 202.88 C 141.24 203.81 142.48 204.06 143.41 203.45 C 144.33 202.84 144.58 201.59 143.97 200.67 L 143.40 199.80 C 142.79 198.88 141.54 198.62 140.62 199.24 C 139.69 199.85 139.44 201.09 140.05 202.02 Z M 140.63 202.89 L 141.20 203.75 C 141.82 204.67 143.06 204.93 143.98 204.31 C 144.91 203.70 145.16 202.46 144.55 201.53 L 143.97 200.67 C 143.36 199.74 142.11 199.49 141.19 200.10 C 140.27 200.72 140.01 201.96 140.63 202.89 Z M 141.20 203.75 L 141.77 204.61 C 142.38 205.53 143.63 205.79 144.55 205.17 C 145.47 204.56 145.73 203.32 145.12 202.39 L 144.55 201.53 C 143.93 200.61 142.69 200.36 141.77 200.97 C 140.84 201.58 140.59 202.83 141.20 203.75 Z M 141.77 204.60 L 142.32 205.44 C 142.93 206.37 144.17 206.63 145.10 206.02 C 146.02 205.41 146.28 204.16 145.67 203.24 L 145.12 202.40 C 144.51 201.47 143.27 201.22 142.34 201.82 C 141.41 202.43 141.16 203.68 141.77 204.60 Z M 142.32 205.44 L 142.86 206.28 C 143.47 207.20 144.71 207.46 145.64 206.86 C 146.57 206.25 146.83 205.01 146.22 204.08 L 145.67 203.24 C 145.07 202.32 143.82 202.06 142.90 202.66 C 141.97 203.27 141.71 204.51 142.32 205.44 Z M 142.86 206.27 L 143.41 207.10 C 144.01 208.03 145.25 208.29 146.18 207.69 C 147.11 207.09 147.37 205.84 146.76 204.92 L 146.22 204.08 C 145.62 203.15 144.38 202.89 143.45 203.50 C 142.52 204.10 142.26 205.34 142.86 206.27 Z M 143.41 207.10 L 143.95 207.93 C 144.55 208.86 145.79 209.12 146.72 208.52 C 147.65 207.92 147.91 206.67 147.31 205.75 L 146.76 204.92 C 146.16 203.99 144.92 203.73 143.99 204.33 C 143.06 204.93 142.80 206.18 143.41 207.10 Z M 143.95 207.94 L 144.49 208.76 C 145.09 209.69 146.33 209.95 147.26 209.35 C 148.19 208.74 148.45 207.50 147.84 206.57 L 147.30 205.75 C 146.70 204.82 145.46 204.56 144.53 205.16 C 143.60 205.77 143.34 207.01 143.95 207.94 Z M 144.49 208.77 L 145.03 209.60 C 145.64 210.52 146.88 210.78 147.81 210.17 C 148.73 209.57 148.99 208.33 148.39 207.40 L 147.84 206.57 C 147.24 205.65 145.99 205.39 145.07 205.99 C 144.14 206.60 143.88 207.84 144.49 208.77 Z M 145.04 209.60 L 145.58 210.43 C 146.19 211.35 147.44 211.61 148.36 211.00 C 149.28 210.39 149.54 209.15 148.93 208.22 L 148.38 207.40 C 147.77 206.47 146.53 206.22 145.61 206.83 C 144.68 207.43 144.43 208.68 145.04 209.60 Z M 145.59 210.44 L 146.14 211.27 C 146.75 212.19 148.00 212.44 148.92 211.82 C 149.84 211.21 150.09 209.97 149.48 209.05 L 148.92 208.22 C 148.31 207.30 147.07 207.05 146.15 207.66 C 145.23 208.27 144.98 209.52 145.59 210.44 Z M 146.15 211.28 L 146.71 212.11 C 147.33 213.03 148.57 213.27 149.49 212.65 C 150.40 212.03 150.65 210.79 150.03 209.87 L 149.47 209.04 C 148.85 208.12 147.61 207.88 146.69 208.50 C 145.77 209.11 145.53 210.36 146.15 211.28 Z M 146.72 212.12 L 147.29 212.96 C 147.91 213.87 149.16 214.10 150.07 213.48 C 150.98 212.86 151.22 211.61 150.59 210.70 L 150.02 209.86 C 149.40 208.95 148.16 208.71 147.24 209.34 C 146.33 209.96 146.09 211.21 146.72 212.12 Z M 147.30 212.97 L 147.87 213.80 C 148.50 214.71 149.75 214.94 150.66 214.31 C 151.57 213.68 151.79 212.43 151.16 211.52 L 150.59 210.69 C 149.96 209.78 148.71 209.55 147.80 210.18 C 146.89 210.81 146.67 212.06 147.30 212.97 Z M 147.88 213.81 L 148.44 214.60 C 149.07 215.51 150.32 215.72 151.22 215.09 C 152.13 214.45 152.34 213.20 151.71 212.30 L 151.15 211.51 C 150.52 210.61 149.27 210.39 148.37 211.03 C 147.46 211.66 147.25 212.91 147.88 213.81 Z M 148.45 214.61 L 149.02 215.41 C 149.66 216.31 150.91 216.51 151.80 215.87 C 152.70 215.23 152.91 213.98 152.27 213.08 L 151.70 212.29 C 151.06 211.39 149.81 211.19 148.91 211.83 C 148.01 212.47 147.81 213.72 148.45 214.61 Z M 149.03 215.42 L 149.61 216.22 C 150.25 217.11 151.50 217.31 152.39 216.66 C 153.29 216.01 153.48 214.76 152.83 213.87 L 152.26 213.07 C 151.61 212.18 150.36 211.98 149.47 212.63 C 148.58 213.28 148.38 214.53 149.03 215.42 Z M 149.62 216.23 L 150.21 217.03 C 150.86 217.91 152.11 218.10 152.99 217.45 C 153.88 216.79 154.07 215.54 153.41 214.66 L 152.82 213.86 C 152.17 212.97 150.92 212.78 150.04 213.44 C 149.15 214.09 148.96 215.34 149.62 216.23 Z M 150.22 217.04 L 150.82 217.84 C 151.48 218.72 152.73 218.89 153.61 218.23 C 154.49 217.57 154.66 216.32 154.00 215.44 L 153.40 214.65 C 152.74 213.77 151.49 213.59 150.61 214.25 C 149.73 214.91 149.56 216.16 150.22 217.04 Z M 150.83 217.85 L 151.44 218.65 C 152.10 219.52 153.35 219.69 154.23 219.02 C 155.10 218.35 155.27 217.10 154.60 216.23 L 153.99 215.43 C 153.32 214.56 152.08 214.39 151.20 215.06 C 150.33 215.73 150.16 216.97 150.83 217.85 Z M 151.45 218.66 L 152.07 219.46 C 152.74 220.32 153.99 220.48 154.86 219.81 C 155.73 219.13 155.88 217.88 155.21 217.02 L 154.59 216.22 C 153.92 215.35 152.67 215.19 151.80 215.87 C 150.93 216.54 150.77 217.79 151.45 218.66 Z M 152.08 219.47 L 152.71 220.26 C 153.39 221.12 154.64 221.27 155.50 220.59 C 156.36 219.91 156.51 218.66 155.82 217.80 L 155.20 217.00 C 154.52 216.14 153.27 216.00 152.41 216.68 C 151.55 217.36 151.40 218.61 152.08 219.47 Z M 152.72 220.27 L 153.36 221.07 C 154.04 221.92 155.29 222.05 156.15 221.37 C 157.00 220.68 157.14 219.43 156.45 218.58 L 155.81 217.78 C 155.12 216.93 153.88 216.80 153.02 217.48 C 152.17 218.17 152.03 219.42 152.72 220.27 Z M 153.37 221.08 L 154.01 221.86 C 154.71 222.71 155.96 222.83 156.81 222.14 C 157.65 221.45 157.78 220.20 157.08 219.35 L 156.44 218.56 C 155.74 217.72 154.49 217.59 153.65 218.29 C 152.80 218.98 152.67 220.23 153.37 221.08 Z M 154.03 221.88 L 154.68 222.66 C 155.38 223.50 156.63 223.61 157.47 222.91 C 158.31 222.21 158.42 220.96 157.72 220.12 L 157.07 219.34 C 156.37 218.50 155.12 218.39 154.28 219.09 C 153.44 219.79 153.33 221.04 154.03 221.88 Z M 154.69 222.67 L 155.33 223.42 C 156.04 224.25 157.29 224.35 158.12 223.64 C 158.95 222.93 159.05 221.68 158.34 220.85 L 157.71 220.10 C 157.00 219.27 155.75 219.17 154.92 219.88 C 154.08 220.59 153.99 221.84 154.69 222.67 Z M 155.34 223.43 L 155.95 224.13 C 156.67 224.95 157.91 225.04 158.74 224.32 C 159.56 223.60 159.65 222.36 158.93 221.53 L 158.33 220.84 C 157.61 220.01 156.36 219.93 155.54 220.64 C 154.72 221.36 154.63 222.61 155.34 223.43 Z M 155.96 224.14 L 156.58 224.83 C 157.30 225.65 158.55 225.72 159.36 225.00 C 160.18 224.27 160.25 223.03 159.53 222.21 L 158.92 221.52 C 158.19 220.70 156.95 220.63 156.13 221.35 C 155.32 222.08 155.24 223.32 155.96 224.14 Z M 156.60 224.84 L 157.22 225.53 C 157.95 226.34 159.20 226.40 160.00 225.67 C 160.81 224.94 160.87 223.69 160.14 222.89 L 159.51 222.20 C 158.78 221.39 157.54 221.33 156.73 222.06 C 155.93 222.79 155.86 224.04 156.60 224.84 Z M 157.24 225.55 L 157.88 226.24 C 158.62 227.03 159.86 227.08 160.66 226.34 C 161.45 225.60 161.50 224.36 160.76 223.56 L 160.12 222.87 C 159.38 222.08 158.14 222.03 157.34 222.77 C 156.55 223.51 156.50 224.75 157.24 225.55 Z M 157.90 226.25 L 158.55 226.94 C 159.30 227.73 160.54 227.76 161.33 227.02 C 162.11 226.27 162.15 225.03 161.40 224.24 L 160.74 223.55 C 160.00 222.76 158.75 222.73 157.97 223.48 C 157.18 224.22 157.15 225.47 157.90 226.25 Z M 158.57 226.96 L 159.25 227.65 C 160.00 228.43 161.24 228.45 162.02 227.69 C 162.79 226.94 162.81 225.70 162.06 224.92 L 161.38 224.23 C 160.63 223.45 159.39 223.43 158.61 224.19 C 157.83 224.94 157.82 226.18 158.57 226.96 Z M 159.26 227.67 L 159.96 228.37 C 160.72 229.13 161.96 229.13 162.73 228.37 C 163.49 227.61 163.49 226.37 162.73 225.60 L 162.04 224.91 C 161.27 224.14 160.04 224.14 159.27 224.90 C 158.50 225.66 158.50 226.90 159.26 227.67 Z M 159.98 228.38 L 160.70 229.09 C 161.47 229.84 162.71 229.83 163.46 229.06 C 164.22 228.29 164.20 227.05 163.43 226.30 L 162.71 225.59 C 161.94 224.84 160.71 224.85 159.95 225.62 C 159.20 226.39 159.21 227.63 159.98 228.38 Z M 160.72 229.10 L 161.47 229.81 C 162.24 230.56 163.48 230.53 164.22 229.75 C 164.97 228.97 164.94 227.74 164.16 227.00 L 163.41 226.28 C 162.64 225.54 161.40 225.57 160.66 226.34 C 159.91 227.12 159.94 228.36 160.72 229.10 Z M 161.48 229.83 L 162.26 230.55 C 163.04 231.28 164.28 231.24 165.01 230.45 C 165.74 229.67 165.70 228.44 164.91 227.70 L 164.14 226.98 C 163.35 226.25 162.12 226.29 161.39 227.08 C 160.66 227.86 160.70 229.09 161.48 229.83 Z M 162.28 230.56 L 163.08 231.30 C 163.88 232.02 165.11 231.96 165.83 231.17 C 166.55 230.38 166.49 229.15 165.70 228.43 L 164.90 227.69 C 164.10 226.97 162.87 227.03 162.15 227.82 C 161.43 228.61 161.49 229.84 162.28 230.56 Z M 163.10 231.31 L 163.94 232.06 C 164.74 232.77 165.97 232.70 166.68 231.90 C 167.39 231.10 167.32 229.87 166.52 229.16 L 165.68 228.41 C 164.88 227.70 163.66 227.77 162.95 228.57 C 162.23 229.37 162.30 230.60 163.10 231.31 Z M 163.96 232.07 L 164.77 232.77 C 165.57 233.47 166.79 233.39 167.50 232.58 C 168.20 231.78 168.12 230.56 167.31 229.85 L 166.50 229.15 C 165.70 228.45 164.48 228.53 163.77 229.34 C 163.07 230.14 163.15 231.37 163.96 232.07 Z M 164.78 232.78 L 165.51 233.41 C 166.32 234.10 167.54 234.01 168.24 233.20 C 168.93 232.39 168.84 231.17 168.03 230.47 L 167.29 229.85 C 166.48 229.15 165.26 229.25 164.57 230.06 C 163.88 230.87 163.97 232.09 164.78 232.78 Z M 165.53 233.41 L 166.28 234.05 C 167.10 234.73 168.31 234.63 169.00 233.82 C 169.68 233.00 169.58 231.79 168.76 231.10 L 168.01 230.47 C 167.20 229.78 165.98 229.88 165.30 230.70 C 164.61 231.51 164.71 232.73 165.53 233.41 Z M 166.30 234.05 L 167.07 234.69 C 167.88 235.37 169.10 235.26 169.77 234.44 C 170.45 233.62 170.34 232.41 169.52 231.73 L 168.75 231.09 C 167.93 230.42 166.72 230.53 166.04 231.35 C 165.37 232.16 165.48 233.38 166.30 234.05 Z M 167.08 234.70 L 167.87 235.34 C 168.69 236.01 169.89 235.89 170.56 235.07 C 171.24 234.25 171.11 233.04 170.29 232.37 L 169.51 231.73 C 168.69 231.06 167.48 231.18 166.81 232.00 C 166.14 232.82 166.26 234.03 167.08 234.70 Z M 167.88 235.35 L 168.68 235.99 C 169.50 236.65 170.70 236.52 171.37 235.70 C 172.03 234.88 171.90 233.67 171.08 233.01 L 170.28 232.37 C 169.46 231.70 168.25 231.83 167.59 232.65 C 166.93 233.48 167.06 234.68 167.88 235.35 Z M 168.69 235.99 L 169.50 236.64 C 170.32 237.29 171.52 237.16 172.18 236.33 C 172.84 235.51 172.70 234.31 171.88 233.65 L 171.07 233.01 C 170.24 232.35 169.04 232.49 168.38 233.31 C 167.73 234.14 167.86 235.34 168.69 235.99 Z M 169.51 236.64 L 170.32 237.28 C 171.15 237.93 172.35 237.79 173.00 236.96 C 173.65 236.13 173.51 234.93 172.68 234.28 L 171.86 233.64 C 171.04 232.99 169.84 233.14 169.19 233.97 C 168.54 234.79 168.68 235.99 169.51 236.64 Z M 170.34 237.29 L 171.16 237.92 C 171.99 238.56 173.18 238.41 173.82 237.58 C 174.47 236.75 174.31 235.56 173.48 234.91 L 172.67 234.28 C 171.84 233.64 170.64 233.79 170.00 234.62 C 169.35 235.45 169.51 236.64 170.34 237.29 Z M 171.17 237.92 L 171.99 238.55 C 172.82 239.19 174.01 239.03 174.65 238.20 C 175.28 237.36 175.13 236.17 174.29 235.54 L 173.47 234.91 C 172.64 234.27 171.45 234.43 170.81 235.27 C 170.18 236.10 170.34 237.29 171.17 237.92 Z M 172.00 238.56 L 172.82 239.17 C 173.66 239.80 174.84 239.64 175.47 238.80 C 176.10 237.97 175.93 236.78 175.10 236.15 L 174.28 235.53 C 173.45 234.90 172.26 235.07 171.63 235.91 C 171.00 236.74 171.17 237.93 172.00 238.56 Z M 172.83 239.18 L 173.65 239.79 C 174.49 240.41 175.67 240.23 176.29 239.40 C 176.91 238.56 176.74 237.38 175.90 236.75 L 175.09 236.15 C 174.25 235.53 173.07 235.70 172.45 236.54 C 171.82 237.37 172.00 238.56 172.83 239.18 Z M 173.66 239.79 L 174.47 240.38 C 175.31 241.00 176.49 240.82 177.10 239.98 C 177.72 239.14 177.54 237.96 176.70 237.34 L 175.89 236.75 C 175.05 236.14 173.87 236.32 173.26 237.16 C 172.64 237.99 172.82 239.17 173.66 239.79 Z M 174.48 240.39 L 175.28 240.96 C 176.13 241.57 177.30 241.38 177.91 240.54 C 178.52 239.70 178.33 238.53 177.49 237.92 L 176.69 237.34 C 175.84 236.73 174.67 236.92 174.06 237.76 C 173.45 238.60 173.64 239.78 174.48 240.39 Z M 175.30 240.97 L 176.09 241.53 C 176.93 242.13 178.10 241.93 178.70 241.09 C 179.30 240.24 179.10 239.07 178.26 238.47 L 177.47 237.91 C 176.63 237.31 175.46 237.51 174.86 238.35 C 174.26 239.20 174.45 240.37 175.30 240.97 Z M 176.10 241.53 L 176.87 242.08 C 177.72 242.67 178.89 242.46 179.48 241.61 C 180.07 240.77 179.86 239.60 179.02 239.01 L 178.24 238.47 C 177.40 237.88 176.23 238.08 175.64 238.93 C 175.05 239.78 175.25 240.94 176.10 241.53 Z M 176.89 242.08 L 177.74 242.66 C 178.59 243.24 179.75 243.03 180.33 242.18 C 180.91 241.33 180.70 240.17 179.85 239.58 L 179.00 239.00 C 178.15 238.42 176.99 238.64 176.41 239.49 C 175.82 240.34 176.04 241.50 176.89 242.08 Z M 177.76 242.66 L 178.74 243.32 C 179.59 243.89 180.74 243.66 181.31 242.81 C 181.88 241.96 181.66 240.81 180.81 240.24 L 179.82 239.58 C 178.97 239.01 177.82 239.24 177.25 240.09 C 176.68 240.94 176.91 242.09 177.76 242.66 Z M 178.77 243.32 L 179.72 243.94 C 180.57 244.50 181.71 244.26 182.27 243.41 C 182.82 242.55 182.58 241.41 181.73 240.86 L 180.78 240.24 C 179.93 239.68 178.79 239.92 178.23 240.77 C 177.68 241.63 177.92 242.77 178.77 243.32 Z M 179.74 243.94 L 180.66 244.53 C 181.52 245.07 182.65 244.82 183.19 243.96 C 183.73 243.11 183.48 241.98 182.62 241.44 L 181.70 240.86 C 180.85 240.32 179.72 240.57 179.18 241.42 C 178.64 242.27 178.89 243.40 179.74 243.94 Z M 180.69 244.53 L 181.58 245.08 C 182.44 245.61 183.55 245.34 184.08 244.49 C 184.61 243.64 184.34 242.52 183.49 242.00 L 182.60 241.44 C 181.75 240.92 180.63 241.18 180.10 242.03 C 179.57 242.88 179.84 244.00 180.69 244.53 Z M 181.61 245.08 L 182.48 245.60 C 183.33 246.12 184.43 245.84 184.95 244.99 C 185.46 244.14 185.19 243.03 184.34 242.52 L 183.47 242.00 C 182.62 241.48 181.51 241.76 181.00 242.61 C 180.48 243.46 180.76 244.57 181.61 245.08 Z M 182.50 245.60 L 183.35 246.10 C 184.20 246.60 185.29 246.31 185.79 245.46 C 186.29 244.61 186.01 243.52 185.16 243.02 L 184.31 242.52 C 183.46 242.02 182.37 242.31 181.87 243.16 C 181.37 244.01 181.65 245.10 182.50 245.60 Z M 183.37 246.10 L 184.20 246.57 C 185.05 247.06 186.13 246.76 186.62 245.92 C 187.10 245.07 186.81 243.98 185.96 243.50 L 185.14 243.02 C 184.29 242.53 183.20 242.83 182.72 243.68 C 182.23 244.53 182.52 245.61 183.37 246.10 Z M 184.22 246.57 L 185.03 247.02 C 185.88 247.50 186.95 247.20 187.42 246.35 C 187.90 245.50 187.60 244.43 186.75 243.95 L 185.94 243.50 C 185.09 243.02 184.02 243.33 183.55 244.17 C 183.07 245.02 183.37 246.09 184.22 246.57 Z M 185.05 247.02 L 185.84 247.45 C 186.69 247.92 187.75 247.61 188.21 246.77 C 188.68 245.92 188.37 244.86 187.52 244.40 L 186.73 243.96 C 185.89 243.49 184.82 243.80 184.36 244.65 C 183.90 245.49 184.20 246.55 185.05 247.02 Z M 185.86 247.45 L 186.64 247.87 C 187.48 248.32 188.53 248.01 188.99 247.17 C 189.44 246.33 189.13 245.28 188.29 244.82 L 187.51 244.40 C 186.67 243.95 185.62 244.26 185.16 245.10 C 184.71 245.94 185.02 246.99 185.86 247.45 Z M 186.66 247.86 L 187.43 248.27 C 188.26 248.72 189.30 248.40 189.75 247.57 C 190.20 246.73 189.88 245.69 189.04 245.24 L 188.27 244.83 C 187.44 244.38 186.39 244.70 185.95 245.54 C 185.50 246.38 185.82 247.42 186.66 247.86 Z M 187.44 248.26 L 188.28 248.71 C 189.11 249.15 190.14 248.83 190.58 247.99 C 191.02 247.16 190.70 246.13 189.87 245.69 L 189.03 245.25 C 188.20 244.81 187.17 245.13 186.73 245.96 C 186.29 246.79 186.61 247.83 187.44 248.26 Z M 188.29 248.70 L 189.22 249.19 C 190.05 249.62 191.07 249.30 191.50 248.47 C 191.94 247.64 191.61 246.62 190.79 246.18 L 189.85 245.70 C 189.03 245.26 188.00 245.59 187.57 246.41 C 187.14 247.24 187.46 248.27 188.29 248.70 Z M 189.23 249.18 L 190.15 249.66 C 190.98 250.08 191.99 249.76 192.42 248.93 C 192.84 248.11 192.52 247.09 191.70 246.67 L 190.77 246.19 C 189.95 245.76 188.93 246.09 188.51 246.91 C 188.08 247.74 188.40 248.75 189.23 249.18 Z M 190.16 249.65 L 191.08 250.11 C 191.90 250.53 192.90 250.21 193.32 249.39 C 193.74 248.56 193.42 247.56 192.59 247.14 L 191.68 246.67 C 190.86 246.25 189.85 246.58 189.43 247.40 C 189.01 248.22 189.34 249.23 190.16 249.65 Z M 191.09 250.11 L 191.99 250.56 C 192.81 250.98 193.81 250.65 194.22 249.83 C 194.63 249.01 194.30 248.01 193.48 247.60 L 192.58 247.14 C 191.76 246.73 190.76 247.06 190.35 247.88 C 189.94 248.70 190.27 249.70 191.09 250.11 Z M 192.00 250.56 L 192.90 251.00 C 193.71 251.41 194.70 251.08 195.11 250.26 C 195.51 249.44 195.18 248.45 194.37 248.05 L 193.47 247.60 C 192.66 247.20 191.67 247.53 191.26 248.35 C 190.85 249.16 191.19 250.15 192.00 250.56 Z M 192.91 251.00 L 193.79 251.43 C 194.61 251.83 195.59 251.49 195.99 250.68 C 196.39 249.87 196.05 248.88 195.24 248.49 L 194.35 248.05 C 193.54 247.65 192.56 247.99 192.16 248.80 C 191.76 249.62 192.10 250.60 192.91 251.00 Z M 193.81 251.42 L 194.68 251.85 C 195.49 252.24 196.47 251.90 196.86 251.09 C 197.25 250.28 196.91 249.30 196.10 248.91 L 195.22 248.49 C 194.41 248.10 193.44 248.44 193.05 249.25 C 192.66 250.06 193.00 251.03 193.81 251.42 Z M 194.70 251.84 L 195.57 252.25 C 196.37 252.64 197.34 252.29 197.72 251.49 C 198.11 250.68 197.76 249.71 196.95 249.33 L 196.09 248.92 C 195.28 248.54 194.31 248.88 193.93 249.69 C 193.55 250.49 193.89 251.46 194.70 251.84 Z M 195.58 252.25 L 196.44 252.65 C 197.25 253.03 198.20 252.68 198.58 251.87 C 198.95 251.07 198.61 250.11 197.80 249.74 L 196.94 249.34 C 196.14 248.96 195.18 249.31 194.80 250.11 C 194.43 250.92 194.78 251.87 195.58 252.25 Z M 196.46 252.65 L 197.37 253.07 C 198.18 253.44 199.13 253.08 199.49 252.28 C 199.86 251.48 199.51 250.53 198.71 250.16 L 197.79 249.74 C 196.98 249.37 196.03 249.73 195.67 250.53 C 195.30 251.33 195.65 252.28 196.46 252.65 Z M 197.39 253.07 L 198.32 253.49 C 199.12 253.85 200.07 253.49 200.43 252.69 C 200.79 251.88 200.43 250.94 199.63 250.58 L 198.69 250.16 C 197.89 249.80 196.95 250.16 196.59 250.96 C 196.23 251.77 196.58 252.71 197.39 253.07 Z M 198.33 253.49 L 199.26 253.90 C 200.06 254.25 201.00 253.89 201.35 253.08 C 201.71 252.28 201.35 251.34 200.54 250.99 L 199.62 250.58 C 198.81 250.22 197.87 250.59 197.52 251.39 C 197.16 252.20 197.53 253.13 198.33 253.49 Z M 199.27 253.90 L 200.19 254.30 C 200.99 254.65 201.93 254.28 202.27 253.47 C 202.62 252.67 202.26 251.74 201.45 251.39 L 200.53 250.99 C 199.73 250.64 198.79 251.01 198.45 251.81 C 198.10 252.61 198.47 253.55 199.27 253.90 Z M 200.20 254.30 L 201.11 254.69 C 201.92 255.03 202.85 254.66 203.19 253.86 C 203.53 253.05 203.16 252.13 202.36 251.78 L 201.44 251.39 C 200.64 251.04 199.71 251.42 199.37 252.22 C 199.02 253.02 199.39 253.95 200.20 254.30 Z M 201.12 254.69 L 202.03 255.07 C 202.83 255.41 203.76 255.04 204.10 254.24 C 204.44 253.43 204.07 252.51 203.26 252.17 L 202.35 251.78 C 201.55 251.44 200.62 251.82 200.28 252.62 C 199.94 253.42 200.32 254.35 201.12 254.69 Z M 202.04 255.07 L 202.95 255.45 C 203.75 255.79 204.67 255.41 205.01 254.61 C 205.34 253.81 204.97 252.89 204.17 252.55 L 203.26 252.17 C 202.46 251.83 201.53 252.21 201.20 253.01 C 200.86 253.81 201.24 254.73 202.04 255.07 Z M 202.95 255.45 L 203.86 255.83 C 204.66 256.16 205.58 255.79 205.91 254.99 C 206.24 254.19 205.87 253.27 205.07 252.93 L 204.16 252.56 C 203.36 252.22 202.44 252.60 202.11 253.40 C 201.77 254.20 202.15 255.12 202.95 255.45 Z M 203.86 255.83 L 204.77 256.20 C 205.56 256.54 206.48 256.16 206.81 255.36 C 207.15 254.56 206.77 253.65 205.97 253.32 L 205.07 252.94 C 204.27 252.61 203.35 252.98 203.02 253.78 C 202.69 254.58 203.06 255.49 203.86 255.83 Z"
      fill="black"
      fill-rule="nonzero" /></svg>