<svg xmlns="http://www.w3.org/2000/svg" width="300" height="300" viewBox="0 0 300 300">
<path d="M 128.18 92.55 L 127.56 93.18 C 126.90 93.84 126.91 94.90 127.57 95.55 C 128.23 96.20 129.29 96.20 129.94 95.54 L 130.57 94.91 C 131.22 94.25 131.21 93.19 130.55 92.53 C 129.90 91.88 128.84 91.89 128.18 92.55 Z M 127.50 93.20 L 126.89 93.85 C 126.25 94.54 126.28 95.62 126.97 96.26 C 127.66 96.90 128.73 96.87 129.38 96.18 L 129.99 95.52 C 130.63 94.84 130.60 93.76 129.91 93.12 C 129.22 92.47 128.15 92.51 127.50 93.20 Z M 126.81 93.91 L 126.22 94.61 C 125.60 95.35 125.70 96.44 126.43 97.05 C 127.17 97.66 128.26 97.56 128.87 96.83 L 129.46 96.13 C 130.07 95.39 129.97 94.30 129.24 93.69 C 128.51 93.08 127.42 93.18 126.81 93.91 Z M 126.11 94.71 L 125.56 95.49 C 125.00 96.28 125.18 97.37 125.97 97.93 C 126.76 98.49 127.86 98.31 128.42 97.52 L 128.97 96.74 C 129.53 95.95 129.35 94.85 128.56 94.29 C 127.77 93.73 126.67 93.92 126.11 94.71 Z M 125.45 95.61 L 124.94 96.49 C 124.45 97.34 124.74 98.43 125.59 98.92 C 126.45 99.41 127.53 99.12 128.02 98.27 L 128.53 97.39 C 129.02 96.54 128.73 95.45 127.88 94.96 C 127.03 94.47 125.94 94.76 125.45 95.61 Z M 124.83 96.64 L 124.39 97.64 C 123.98 98.55 124.39 99.62 125.30 100.03 C 126.21 100.43 127.28 100.02 127.69 99.11 L 128.13 98.11 C 128.54 97.20 128.13 96.14 127.22 95.73 C 126.31 95.32 125.24 95.73 124.83 96.64 Z M 124.30 97.81 L 123.93 98.96 C 123.61 99.92 124.14 100.95 125.10 101.26 C 126.06 101.57 127.10 101.05 127.41 100.09 L 127.78 98.94 C 128.09 97.98 127.56 96.95 126.60 96.64 C 125.64 96.32 124.61 96.85 124.30 97.81 Z M 123.87 99.10 L 123.67 99.97 C 123.43 100.96 124.04 101.95 125.04 102.19 C 126.03 102.42 127.02 101.81 127.25 100.82 L 127.46 99.95 C 127.69 98.96 127.08 97.96 126.09 97.73 C 125.10 97.49 124.11 98.11 123.87 99.10 Z M 123.65 100.06 L 123.48 101.00 C 123.29 102.00 123.96 102.96 124.96 103.14 C 125.96 103.32 126.92 102.66 127.10 101.66 L 127.27 100.72 C 127.46 99.72 126.79 98.76 125.79 98.58 C 124.79 98.40 123.83 99.06 123.65 100.06 Z M 123.46 101.07 L 123.33 102.06 C 123.18 103.07 123.89 104.00 124.90 104.14 C 125.90 104.28 126.84 103.58 126.98 102.57 L 127.12 101.58 C 127.26 100.58 126.55 99.64 125.55 99.50 C 124.54 99.36 123.61 100.06 123.46 101.07 Z M 123.32 102.12 L 123.21 103.14 C 123.10 104.15 123.83 105.06 124.84 105.17 C 125.86 105.28 126.76 104.55 126.87 103.53 L 126.98 102.51 C 127.09 101.50 126.36 100.59 125.35 100.48 C 124.34 100.37 123.43 101.10 123.32 102.12 Z M 123.20 103.18 L 123.12 104.23 C 123.03 105.24 123.79 106.14 124.80 106.22 C 125.82 106.30 126.71 105.55 126.79 104.53 L 126.88 103.49 C 126.96 102.47 126.21 101.58 125.19 101.50 C 124.18 101.41 123.29 102.17 123.20 103.18 Z M 123.12 104.27 L 123.05 105.32 C 122.99 106.34 123.76 107.21 124.77 107.28 C 125.79 107.34 126.67 106.57 126.73 105.55 L 126.79 104.50 C 126.86 103.48 126.09 102.61 125.07 102.54 C 124.05 102.48 123.18 103.25 123.12 104.27 Z M 123.05 105.35 L 123.00 106.40 C 122.95 107.42 123.74 108.28 124.75 108.33 C 125.77 108.38 126.63 107.59 126.68 106.58 L 126.73 105.52 C 126.78 104.51 125.99 103.64 124.98 103.60 C 123.96 103.55 123.10 104.33 123.05 105.35 Z M 123.00 106.42 L 122.96 107.46 C 122.92 108.47 123.72 109.33 124.74 109.36 C 125.75 109.40 126.61 108.60 126.65 107.59 L 126.68 106.55 C 126.72 105.54 125.92 104.68 124.91 104.65 C 123.89 104.61 123.03 105.41 123.00 106.42 Z M 122.96 107.47 L 122.93 108.47 C 122.90 109.49 123.71 110.34 124.72 110.37 C 125.74 110.39 126.59 109.59 126.62 108.57 L 126.65 107.57 C 126.67 106.56 125.87 105.71 124.85 105.68 C 123.84 105.65 122.99 106.45 122.96 107.47 Z M 122.93 108.48 L 122.91 109.43 C 122.88 110.45 123.69 111.30 124.71 111.32 C 125.73 111.35 126.57 110.54 126.59 109.52 L 126.62 108.57 C 126.64 107.55 125.84 106.70 124.82 106.68 C 123.80 106.66 122.96 107.46 122.93 108.48 Z M 122.91 109.43 L 122.88 110.60 C 122.86 111.61 123.66 112.46 124.68 112.48 C 125.70 112.51 126.54 111.70 126.57 110.68 L 126.59 109.52 C 126.62 108.51 125.81 107.66 124.80 107.64 C 123.78 107.61 122.93 108.42 122.91 109.43 Z M 122.88 110.59 L 122.85 111.77 C 122.83 112.79 123.63 113.63 124.64 113.66 C 125.66 113.69 126.51 112.89 126.53 111.87 L 126.56 110.69 C 126.59 109.67 125.79 108.83 124.77 108.80 C 123.76 108.77 122.91 109.57 122.88 110.59 Z M 122.85 111.77 L 122.82 112.84 C 122.79 113.86 123.59 114.70 124.61 114.73 C 125.62 114.76 126.47 113.96 126.50 112.95 L 126.53 111.87 C 126.56 110.86 125.76 110.01 124.75 109.98 C 123.73 109.95 122.88 110.75 122.85 111.77 Z M 122.83 112.84 L 122.79 113.83 C 122.76 114.84 123.56 115.69 124.57 115.72 C 125.59 115.75 126.43 114.96 126.47 113.94 L 126.50 112.95 C 126.53 111.94 125.73 111.09 124.72 111.06 C 123.71 111.03 122.86 111.82 122.83 112.84 Z M 122.80 113.82 L 122.77 114.74 C 122.73 115.75 123.52 116.60 124.54 116.64 C 125.55 116.67 126.40 115.88 126.43 114.87 L 126.46 113.95 C 126.50 112.93 125.71 112.08 124.69 112.05 C 123.68 112.02 122.83 112.81 122.80 113.82 Z M 122.77 114.74 L 122.74 115.61 C 122.70 116.62 123.49 117.47 124.50 117.51 C 125.51 117.54 126.36 116.75 126.40 115.74 L 126.43 114.87 C 126.47 113.86 125.68 113.01 124.66 112.97 C 123.65 112.94 122.80 113.73 122.77 114.74 Z M 122.74 115.61 L 122.71 116.45 C 122.67 117.46 123.46 118.31 124.47 118.34 C 125.48 118.38 126.33 117.59 126.37 116.58 L 126.40 115.74 C 126.43 114.73 125.65 113.88 124.64 113.85 C 123.63 113.81 122.78 114.60 122.74 115.61 Z M 122.71 116.45 L 122.67 117.38 C 122.64 118.39 123.42 119.24 124.43 119.27 C 125.44 119.31 126.29 118.52 126.33 117.52 L 126.36 116.58 C 126.40 115.57 125.61 114.73 124.61 114.69 C 123.60 114.65 122.75 115.44 122.71 116.45 Z M 122.68 117.38 L 122.64 118.37 C 122.60 119.38 123.39 120.23 124.39 120.27 C 125.40 120.30 126.25 119.52 126.29 118.51 L 126.33 117.52 C 126.37 116.51 125.58 115.66 124.57 115.62 C 123.56 115.58 122.71 116.37 122.68 117.38 Z M 122.64 118.37 L 122.60 119.36 C 122.56 120.37 123.35 121.22 124.36 121.26 C 125.36 121.30 126.21 120.51 126.25 119.50 L 126.29 118.51 C 126.33 117.50 125.54 116.65 124.53 116.62 C 123.53 116.58 122.68 117.36 122.64 118.37 Z M 122.60 119.36 L 122.56 120.36 C 122.53 121.37 123.31 122.21 124.32 122.25 C 125.33 122.29 126.17 121.51 126.21 120.50 L 126.25 119.50 C 126.29 118.50 125.50 117.65 124.49 117.61 C 123.49 117.57 122.64 118.36 122.60 119.36 Z M 122.57 120.36 L 122.53 121.36 C 122.49 122.37 123.28 123.21 124.28 123.25 C 125.29 123.29 126.13 122.50 126.17 121.50 L 126.21 120.50 C 126.25 119.49 125.46 118.64 124.46 118.61 C 123.45 118.57 122.60 119.35 122.57 120.36 Z M 122.53 121.36 L 122.49 122.37 C 122.45 123.38 123.24 124.22 124.24 124.26 C 125.25 124.30 126.10 123.51 126.13 122.51 L 126.17 121.50 C 126.21 120.49 125.42 119.65 124.42 119.61 C 123.41 119.57 122.57 120.36 122.53 121.36 Z M 122.49 122.37 L 122.46 123.35 C 122.42 124.36 123.20 125.20 124.21 125.24 C 125.21 125.28 126.06 124.49 126.10 123.49 L 126.13 122.51 C 126.17 121.50 125.38 120.66 124.38 120.62 C 123.38 120.58 122.53 121.37 122.49 122.37 Z M 122.46 123.35 L 122.42 124.33 C 122.39 125.33 123.17 126.18 124.17 126.21 C 125.18 126.25 126.02 125.47 126.06 124.46 L 126.09 123.49 C 126.13 122.48 125.35 121.64 124.34 121.60 C 123.34 121.57 122.50 122.35 122.46 123.35 Z M 122.43 124.33 L 122.39 125.32 C 122.35 126.32 123.14 127.17 124.14 127.20 C 125.14 127.24 125.98 126.46 126.02 125.45 L 126.06 124.46 C 126.09 123.46 125.31 122.62 124.31 122.58 C 123.30 122.55 122.46 123.33 122.43 124.33 Z M 122.39 125.32 L 122.36 126.32 C 122.32 127.33 123.10 128.17 124.10 128.20 C 125.11 128.24 125.95 127.46 125.98 126.45 L 126.02 125.45 C 126.05 124.45 125.27 123.61 124.27 123.57 C 123.27 123.54 122.43 124.32 122.39 125.32 Z M 122.36 126.32 L 122.32 127.34 C 122.29 128.34 123.07 129.18 124.07 129.21 C 125.07 129.25 125.91 128.47 125.95 127.47 L 125.98 126.45 C 126.02 125.45 125.23 124.61 124.23 124.58 C 123.23 124.54 122.39 125.32 122.36 126.32 Z M 122.32 127.34 L 122.29 128.36 C 122.25 129.36 123.04 130.20 124.04 130.24 C 125.03 130.27 125.87 129.49 125.91 128.49 L 125.94 127.46 C 125.98 126.46 125.20 125.63 124.20 125.59 C 123.20 125.56 122.36 126.34 122.32 127.34 Z M 122.29 128.36 L 122.26 129.36 C 122.22 130.36 123.00 131.20 124.00 131.23 C 125.00 131.27 125.84 130.49 125.87 129.49 L 125.91 128.49 C 125.94 127.49 125.16 126.65 124.16 126.62 C 123.16 126.58 122.32 127.36 122.29 128.36 Z M 122.26 129.36 L 122.22 130.35 C 122.19 131.34 122.97 132.18 123.97 132.21 C 124.97 132.25 125.80 131.47 125.84 130.47 L 125.87 129.49 C 125.90 128.49 125.12 127.65 124.13 127.62 C 123.13 127.58 122.29 128.37 122.26 129.36 Z M 122.23 130.35 L 122.19 131.34 C 122.16 132.33 122.94 133.17 123.94 133.20 C 124.93 133.24 125.77 132.46 125.80 131.46 L 125.84 130.47 C 125.87 129.47 125.09 128.64 124.09 128.60 C 123.09 128.57 122.26 129.35 122.23 130.35 Z M 122.19 131.34 L 122.16 132.34 C 122.13 133.33 122.91 134.17 123.90 134.20 C 124.90 134.23 125.73 133.45 125.77 132.46 L 125.80 131.46 C 125.83 130.46 125.05 129.63 124.06 129.59 C 123.06 129.56 122.23 130.34 122.19 131.34 Z M 122.16 132.34 L 122.13 133.34 C 122.10 134.34 122.87 135.17 123.87 135.20 C 124.86 135.24 125.70 134.46 125.73 133.46 L 125.76 132.46 C 125.80 131.46 125.02 130.63 124.02 130.60 C 123.03 130.56 122.20 131.34 122.16 132.34 Z M 122.13 133.34 L 122.10 134.36 C 122.06 135.35 122.84 136.18 123.84 136.22 C 124.83 136.25 125.66 135.47 125.70 134.48 L 125.73 133.46 C 125.76 132.47 124.98 131.64 123.99 131.60 C 123.00 131.57 122.16 132.35 122.13 133.34 Z M 122.10 134.36 L 122.06 135.38 C 122.03 136.37 122.81 137.20 123.80 137.23 C 124.80 137.27 125.63 136.49 125.66 135.49 L 125.69 134.48 C 125.73 133.48 124.95 132.65 123.96 132.62 C 122.96 132.59 122.13 133.36 122.10 134.36 Z M 122.07 135.38 L 122.04 136.36 C 122.00 137.35 122.78 138.18 123.77 138.22 C 124.76 138.25 125.59 137.47 125.63 136.48 L 125.66 135.49 C 125.69 134.50 124.91 133.67 123.92 133.64 C 122.93 133.61 122.10 134.39 122.07 135.38 Z M 122.04 136.36 L 122.01 137.36 C 121.98 138.35 122.75 139.17 123.74 139.20 C 124.73 139.24 125.56 138.46 125.59 137.47 L 125.62 136.48 C 125.65 135.49 124.88 134.66 123.89 134.63 C 122.90 134.60 122.07 135.37 122.04 136.36 Z M 122.01 137.36 L 121.98 138.35 C 121.95 139.34 122.73 140.17 123.72 140.20 C 124.70 140.23 125.53 139.45 125.56 138.46 L 125.59 137.47 C 125.62 136.48 124.84 135.65 123.85 135.62 C 122.86 135.59 122.04 136.37 122.01 137.36 Z M 121.98 138.36 L 121.95 139.36 C 121.93 140.34 122.70 141.17 123.69 141.19 C 124.68 141.22 125.50 140.44 125.53 139.46 L 125.56 138.46 C 125.58 137.47 124.81 136.65 123.82 136.62 C 122.83 136.59 122.01 137.37 121.98 138.36 Z M 121.96 139.36 L 121.93 140.37 C 121.91 141.35 122.69 142.17 123.67 142.20 C 124.66 142.22 125.48 141.44 125.50 140.46 L 125.53 139.45 C 125.55 138.47 124.77 137.65 123.79 137.62 C 122.80 137.60 121.98 138.38 121.96 139.36 Z M 121.93 140.37 L 121.91 141.38 C 121.89 142.37 122.67 143.18 123.66 143.20 C 124.64 143.22 125.45 142.44 125.48 141.46 L 125.50 140.45 C 125.52 139.47 124.74 138.65 123.75 138.63 C 122.77 138.61 121.96 139.39 121.93 140.37 Z M 121.92 141.39 L 121.90 142.40 C 121.88 143.38 122.66 144.19 123.65 144.21 C 124.63 144.22 125.44 143.44 125.46 142.46 L 125.47 141.45 C 125.49 140.47 124.71 139.66 123.73 139.64 C 122.74 139.63 121.93 140.41 121.92 141.39 Z M 121.90 142.41 L 121.89 143.38 C 121.88 144.36 122.66 145.17 123.64 145.18 C 124.62 145.20 125.43 144.41 125.44 143.43 L 125.45 142.45 C 125.47 141.47 124.68 140.67 123.70 140.65 C 122.72 140.64 121.91 141.43 121.90 142.41 Z M 121.89 143.39 L 121.88 144.37 C 121.87 145.35 122.66 146.15 123.64 146.16 C 124.62 146.17 125.42 145.39 125.43 144.41 L 125.44 143.42 C 125.45 142.44 124.66 141.64 123.68 141.63 C 122.70 141.62 121.90 142.41 121.89 143.39 Z M 121.89 144.38 L 121.88 145.37 C 121.87 146.35 122.66 147.14 123.64 147.15 C 124.62 147.16 125.41 146.37 125.42 145.39 L 125.42 144.40 C 125.43 143.42 124.64 142.63 123.67 142.62 C 122.69 142.61 121.89 143.40 121.89 144.38 Z M 121.88 145.37 L 121.88 146.37 C 121.87 147.35 122.66 148.14 123.64 148.14 C 124.61 148.15 125.41 147.36 125.41 146.38 L 125.42 145.39 C 125.42 144.41 124.63 143.62 123.66 143.61 C 122.68 143.61 121.89 144.40 121.88 145.37 Z M 121.88 146.37 L 121.88 147.38 C 121.88 148.36 122.67 149.15 123.64 149.15 C 124.61 149.15 125.41 148.36 125.41 147.39 L 125.41 146.38 C 125.41 145.41 124.62 144.62 123.65 144.61 C 122.67 144.61 121.88 145.40 121.88 146.37 Z M 121.88 147.38 L 121.88 148.40 C 121.88 149.38 122.67 150.16 123.64 150.16 C 124.61 150.17 125.40 149.38 125.40 148.41 L 125.40 147.39 C 125.40 146.41 124.62 145.63 123.64 145.63 C 122.67 145.62 121.88 146.41 121.88 147.38 Z M 121.88 148.40 L 121.88 149.43 C 121.88 150.40 122.67 151.19 123.64 151.19 C 124.61 151.19 125.40 150.40 125.40 149.43 L 125.40 148.40 C 125.40 147.43 124.61 146.65 123.64 146.65 C 122.67 146.65 121.88 147.43 121.88 148.40 Z M 121.89 149.43 L 121.89 150.44 C 121.89 151.41 122.67 152.19 123.64 152.19 C 124.61 152.19 125.40 151.41 125.40 150.44 L 125.40 149.43 C 125.40 148.46 124.61 147.68 123.64 147.68 C 122.67 147.68 121.89 148.46 121.89 149.43 Z M 121.89 150.44 L 121.89 151.45 C 121.89 152.42 122.68 153.20 123.64 153.20 C 124.61 153.20 125.39 152.42 125.39 151.45 L 125.39 150.44 C 125.39 149.47 124.61 148.69 123.64 148.69 C 122.68 148.69 121.89 149.47 121.89 150.44 Z M 121.90 151.45 L 121.90 152.47 C 121.90 153.43 122.68 154.21 123.64 154.21 C 124.61 154.21 125.39 153.43 125.39 152.47 L 125.39 151.45 C 125.39 150.49 124.61 149.71 123.64 149.71 C 122.68 149.71 121.90 150.49 121.90 151.45 Z M 121.90 152.47 L 121.90 153.48 C 121.90 154.44 122.68 155.22 123.64 155.22 C 124.60 155.22 125.38 154.44 125.38 153.48 L 125.38 152.47 C 125.38 151.50 124.60 150.72 123.64 150.72 C 122.68 150.72 121.90 151.50 121.90 152.47 Z M 121.90 153.48 L 121.90 154.48 C 121.90 155.44 122.68 156.22 123.64 156.22 C 124.60 156.22 125.38 155.44 125.38 154.48 L 125.38 153.48 C 125.38 152.52 124.60 151.74 123.64 151.74 C 122.68 151.74 121.90 152.52 121.90 153.48 Z M 121.91 154.48 L 121.91 155.47 C 121.91 156.43 122.69 157.21 123.64 157.21 C 124.60 157.21 125.38 156.43 125.38 155.47 L 125.38 154.48 C 125.38 153.52 124.60 152.75 123.64 152.75 C 122.69 152.75 121.91 153.52 121.91 154.48 Z M 121.91 155.47 L 121.91 156.45 C 121.91 157.40 122.69 158.18 123.64 158.18 C 124.60 158.18 125.37 157.40 125.37 156.45 L 125.37 155.47 C 125.37 154.52 124.60 153.74 123.64 153.74 C 122.69 153.74 121.91 154.52 121.91 155.47 Z M 121.92 156.45 L 121.92 157.48 C 121.92 158.43 122.69 159.20 123.64 159.20 C 124.60 159.20 125.37 158.43 125.37 157.48 L 125.37 156.45 C 125.37 155.49 124.60 154.72 123.64 154.72 C 122.69 154.72 121.92 155.49 121.92 156.45 Z M 121.92 157.48 L 121.92 158.52 C 121.92 159.47 122.69 160.24 123.64 160.24 C 124.59 160.24 125.36 159.47 125.36 158.52 L 125.36 157.48 C 125.36 156.53 124.59 155.76 123.64 155.76 C 122.69 155.76 121.92 156.53 121.92 157.48 Z M 121.93 158.52 L 121.93 159.54 C 121.93 160.49 122.70 161.26 123.64 161.26 C 124.59 161.26 125.36 160.49 125.36 159.54 L 125.36 158.52 C 125.36 157.58 124.59 156.81 123.64 156.81 C 122.70 156.81 121.93 157.58 121.93 158.52 Z M 121.93 159.54 L 121.93 160.54 C 121.93 161.48 122.70 162.25 123.64 162.25 C 124.59 162.25 125.35 161.48 125.35 160.54 L 125.35 159.54 C 125.35 158.60 124.59 157.83 123.64 157.83 C 122.70 157.83 121.93 158.60 121.93 159.54 Z M 121.94 160.54 L 121.94 161.52 C 121.94 162.46 122.70 163.22 123.64 163.22 C 124.58 163.22 125.35 162.46 125.35 161.52 L 125.35 160.54 C 125.35 159.60 124.58 158.83 123.64 158.83 C 122.70 158.83 121.94 159.60 121.94 160.54 Z M 121.94 161.52 L 121.94 162.48 C 121.94 163.42 122.70 164.18 123.64 164.18 C 124.58 164.18 125.34 163.42 125.34 162.48 L 125.34 161.52 C 125.34 160.58 124.58 159.82 123.64 159.82 C 122.70 159.82 121.94 160.58 121.94 161.52 Z M 121.95 162.48 L 121.95 163.44 C 121.95 164.37 122.71 165.13 123.64 165.13 C 124.58 165.13 125.34 164.37 125.34 163.44 L 125.34 162.48 C 125.34 161.54 124.58 160.78 123.64 160.78 C 122.71 160.78 121.95 161.54 121.95 162.48 Z M 121.95 163.44 L 121.95 164.47 C 121.95 165.40 122.71 166.16 123.64 166.16 C 124.58 166.16 125.33 165.40 125.33 164.47 L 125.33 163.44 C 125.33 162.50 124.58 161.75 123.64 161.75 C 122.71 161.75 121.95 162.50 121.95 163.44 Z M 121.96 164.47 L 121.96 165.49 C 121.96 166.42 122.72 167.17 123.65 167.17 C 124.58 167.17 125.33 166.41 125.33 165.48 L 125.33 164.46 C 125.32 163.53 124.57 162.78 123.64 162.78 C 122.71 162.78 121.96 163.54 121.96 164.47 Z M 121.97 165.49 L 121.97 166.49 C 121.97 167.42 122.73 168.17 123.65 168.16 C 124.58 168.16 125.33 167.41 125.32 166.48 L 125.32 165.48 C 125.32 164.55 124.56 163.80 123.64 163.81 C 122.71 163.81 121.96 164.56 121.97 165.49 Z M 121.98 166.50 L 121.99 167.49 C 121.99 168.41 122.74 169.16 123.67 169.15 C 124.59 169.14 125.33 168.39 125.32 167.47 L 125.32 166.48 C 125.31 165.55 124.56 164.81 123.64 164.82 C 122.71 164.83 121.97 165.58 121.98 166.50 Z M 121.99 167.50 L 122.00 168.48 C 122.01 169.40 122.77 170.13 123.68 170.12 C 124.60 170.11 125.34 169.36 125.33 168.44 L 125.32 167.46 C 125.31 166.54 124.55 165.81 123.64 165.82 C 122.72 165.83 121.98 166.58 121.99 167.50 Z M 122.01 168.49 L 122.03 169.47 C 122.04 170.38 122.80 171.11 123.71 171.09 C 124.62 171.08 125.35 170.32 125.34 169.41 L 125.32 168.43 C 125.31 167.52 124.55 166.79 123.64 166.80 C 122.72 166.82 121.99 167.57 122.01 168.49 Z M 122.03 169.48 L 122.06 170.51 C 122.08 171.42 122.84 172.14 123.75 172.12 C 124.66 172.09 125.38 171.34 125.36 170.43 L 125.33 169.40 C 125.31 168.49 124.55 167.77 123.64 167.79 C 122.73 167.81 122.01 168.57 122.03 169.48 Z M 122.07 170.53 L 122.10 171.54 C 122.14 172.45 122.90 173.15 123.81 173.12 C 124.71 173.09 125.42 172.33 125.39 171.42 L 125.35 170.41 C 125.32 169.50 124.55 168.79 123.65 168.83 C 122.74 168.86 122.03 169.62 122.07 170.53 Z M 122.11 171.57 L 122.17 172.57 C 122.21 173.47 122.98 174.16 123.89 174.11 C 124.79 174.06 125.48 173.29 125.43 172.39 L 125.38 171.39 C 125.33 170.49 124.56 169.80 123.66 169.85 C 122.76 169.90 122.06 170.67 122.11 171.57 Z M 122.17 172.60 L 122.25 173.58 C 122.31 174.48 123.09 175.16 123.99 175.09 C 124.89 175.02 125.56 174.24 125.50 173.34 L 125.42 172.36 C 125.36 171.46 124.58 170.79 123.68 170.86 C 122.78 170.92 122.11 171.70 122.17 172.60 Z M 122.26 173.62 L 122.35 174.59 C 122.44 175.49 123.24 176.14 124.13 176.05 C 125.02 175.96 125.67 175.17 125.58 174.27 L 125.49 173.30 C 125.40 172.41 124.60 171.76 123.71 171.85 C 122.82 171.94 122.17 172.73 122.26 173.62 Z M 122.37 174.64 L 122.49 175.63 C 122.61 176.52 123.42 177.14 124.30 177.03 C 125.19 176.91 125.81 176.10 125.70 175.22 L 125.57 174.23 C 125.45 173.34 124.64 172.72 123.76 172.83 C 122.87 172.95 122.25 173.76 122.37 174.64 Z M 122.51 175.68 L 122.67 176.68 C 122.81 177.56 123.64 178.15 124.51 178.01 C 125.39 177.87 125.99 177.04 125.85 176.17 L 125.68 175.17 C 125.54 174.29 124.72 173.70 123.84 173.84 C 122.96 173.98 122.37 174.81 122.51 175.68 Z M 122.68 176.73 L 122.87 177.71 C 123.04 178.58 123.88 179.15 124.75 178.98 C 125.62 178.81 126.19 177.97 126.02 177.11 L 125.83 176.12 C 125.66 175.25 124.82 174.68 123.96 174.85 C 123.09 175.02 122.52 175.86 122.68 176.73 Z M 122.89 177.75 L 123.10 178.72 C 123.29 179.58 124.14 180.13 125.00 179.94 C 125.86 179.75 126.41 178.90 126.22 178.04 L 126.00 177.07 C 125.82 176.21 124.96 175.66 124.10 175.85 C 123.24 176.04 122.70 176.89 122.89 177.75 Z M 123.12 178.76 L 123.35 179.72 C 123.56 180.57 124.42 181.09 125.27 180.88 C 126.12 180.68 126.64 179.82 126.44 178.96 L 126.20 178.00 C 125.99 177.15 125.14 176.63 124.28 176.84 C 123.43 177.04 122.91 177.90 123.12 178.76 Z M 123.36 179.74 L 123.61 180.66 C 123.83 181.50 124.69 182.01 125.54 181.78 C 126.38 181.56 126.89 180.69 126.66 179.85 L 126.42 178.94 C 126.20 178.09 125.33 177.59 124.49 177.81 C 123.64 178.04 123.14 178.90 123.36 179.74 Z M 123.62 180.69 L 123.86 181.55 C 124.10 182.39 124.97 182.87 125.81 182.63 C 126.65 182.39 127.14 181.52 126.90 180.68 L 126.65 179.82 C 126.41 178.98 125.54 178.50 124.70 178.74 C 123.87 178.98 123.38 179.85 123.62 180.69 Z M 123.88 181.58 L 124.15 182.46 C 124.40 183.29 125.28 183.76 126.11 183.50 C 126.94 183.25 127.41 182.37 127.16 181.54 L 126.88 180.65 C 126.63 179.82 125.75 179.36 124.92 179.61 C 124.09 179.87 123.62 180.75 123.88 181.58 Z M 124.16 182.49 L 124.47 183.42 C 124.74 184.24 125.63 184.68 126.45 184.41 C 127.28 184.14 127.72 183.25 127.45 182.42 L 127.14 181.50 C 126.87 180.68 125.98 180.23 125.16 180.51 C 124.33 180.78 123.89 181.67 124.16 182.49 Z M 124.48 183.45 L 124.83 184.43 C 125.12 185.25 126.02 185.67 126.84 185.38 C 127.65 185.09 128.08 184.19 127.79 183.37 L 127.43 182.39 C 127.14 181.58 126.25 181.15 125.43 181.44 C 124.61 181.74 124.19 182.63 124.48 183.45 Z M 124.85 184.46 L 125.25 185.52 C 125.56 186.33 126.46 186.73 127.27 186.43 C 128.08 186.12 128.48 185.21 128.18 184.41 L 127.77 183.35 C 127.46 182.54 126.56 182.13 125.75 182.44 C 124.94 182.75 124.54 183.65 124.85 184.46 Z M 125.26 185.54 L 125.63 186.46 C 125.95 187.26 126.86 187.65 127.66 187.33 C 128.46 187.01 128.85 186.10 128.53 185.30 L 128.16 184.38 C 127.84 183.58 126.93 183.19 126.13 183.51 C 125.33 183.83 124.94 184.74 125.26 185.54 Z M 125.64 186.48 L 125.98 187.31 C 126.31 188.10 127.22 188.48 128.02 188.15 C 128.82 187.82 129.20 186.91 128.87 186.11 L 128.52 185.28 C 128.19 184.48 127.28 184.11 126.48 184.44 C 125.69 184.77 125.31 185.68 125.64 186.48 Z M 125.99 187.32 L 126.35 188.19 C 126.69 188.98 127.61 189.35 128.40 189.02 C 129.20 188.68 129.57 187.76 129.23 186.97 L 128.86 186.10 C 128.53 185.31 127.61 184.93 126.81 185.27 C 126.02 185.61 125.65 186.52 125.99 187.32 Z M 126.36 188.20 L 126.75 189.10 C 127.09 189.89 128.01 190.26 128.80 189.92 C 129.59 189.58 129.96 188.66 129.62 187.86 L 129.23 186.96 C 128.88 186.17 127.97 185.80 127.17 186.14 C 126.38 186.49 126.02 187.41 126.36 188.20 Z M 126.75 189.11 L 127.16 190.04 C 127.50 190.83 128.42 191.19 129.21 190.85 C 130.00 190.50 130.37 189.58 130.02 188.79 L 129.61 187.86 C 129.27 187.07 128.35 186.71 127.56 187.05 C 126.77 187.40 126.41 188.32 126.75 189.11 Z M 127.16 190.04 L 127.58 191.00 C 127.93 191.79 128.85 192.14 129.64 191.80 C 130.43 191.45 130.79 190.53 130.44 189.74 L 130.02 188.78 C 129.67 187.99 128.75 187.64 127.96 187.99 C 127.17 188.33 126.81 189.26 127.16 190.04 Z M 127.58 191.00 L 128.01 191.97 C 128.36 192.76 129.29 193.12 130.07 192.77 C 130.86 192.41 131.22 191.49 130.87 190.70 L 130.44 189.73 C 130.09 188.95 129.16 188.59 128.38 188.94 C 127.59 189.29 127.23 190.21 127.58 191.00 Z M 128.01 191.97 L 128.45 192.96 C 128.80 193.74 129.73 194.10 130.52 193.74 C 131.30 193.39 131.66 192.47 131.30 191.68 L 130.87 190.70 C 130.51 189.91 129.59 189.56 128.80 189.91 C 128.02 190.26 127.66 191.19 128.01 191.97 Z M 128.45 192.96 L 128.83 193.80 C 129.18 194.59 130.11 194.94 130.89 194.59 C 131.68 194.24 132.03 193.31 131.68 192.53 L 131.30 191.68 C 130.95 190.89 130.03 190.54 129.24 190.89 C 128.45 191.25 128.10 192.17 128.45 192.96 Z"
      fill="black"
      fill-rule="nonzero" /><path d="M 170.22 90.42 L 170.22 91.40 C 170.22 92.34 170.99 93.11 171.93 93.11 C 172.87 93.11 173.64 92.34 173.64 91.40 L 173.64 90.42 C 173.63 89.47 172.87 88.71 171.93 88.71 C 170.99 88.71 170.22 89.48 170.22 90.42 Z M 170.21 91.41 L 170.22 92.39 C 170.22 93.34 170.99 94.10 171.94 94.10 C 172.89 94.09 173.66 93.32 173.65 92.37 L 173.65 91.39 C 173.64 90.44 172.87 89.68 171.92 89.68 C 170.97 89.69 170.21 90.46 170.21 91.41 Z M 170.21 92.40 L 170.22 93.39 C 170.23 94.34 171.01 95.11 171.97 95.09 C 172.92 95.08 173.69 94.30 173.67 93.35 L 173.66 92.36 C 173.65 91.41 172.87 90.64 171.91 90.65 C 170.96 90.67 170.19 91.45 170.21 92.40 Z M 170.21 93.41 L 170.23 94.40 C 170.25 95.36 171.05 96.12 172.01 96.09 C 172.97 96.07 173.73 95.28 173.71 94.32 L 173.68 93.33 C 173.66 92.37 172.86 91.61 171.90 91.63 C 170.94 91.65 170.18 92.45 170.21 93.41 Z M 170.22 94.42 L 170.26 95.42 C 170.30 96.39 171.11 97.14 172.08 97.10 C 173.04 97.06 173.79 96.25 173.76 95.28 L 173.72 94.29 C 173.68 93.32 172.87 92.57 171.90 92.61 C 170.94 92.65 170.18 93.46 170.22 94.42 Z M 170.25 95.45 L 170.31 96.46 C 170.37 97.43 171.20 98.17 172.17 98.11 C 173.14 98.06 173.88 97.23 173.82 96.25 L 173.77 95.25 C 173.71 94.28 172.88 93.54 171.91 93.60 C 170.94 93.65 170.20 94.48 170.25 95.45 Z M 170.30 96.50 L 170.38 97.51 C 170.46 98.49 171.31 99.21 172.29 99.13 C 173.26 99.06 173.99 98.20 173.91 97.23 L 173.83 96.21 C 173.75 95.24 172.90 94.51 171.93 94.59 C 170.95 94.67 170.22 95.52 170.30 96.50 Z M 170.38 97.56 L 170.48 98.58 C 170.59 99.56 171.46 100.27 172.44 100.16 C 173.42 100.06 174.13 99.18 174.03 98.21 L 173.92 97.18 C 173.82 96.20 172.94 95.49 171.96 95.60 C 170.98 95.70 170.27 96.58 170.38 97.56 Z M 170.48 98.63 L 170.62 99.65 C 170.75 100.63 171.65 101.32 172.63 101.19 C 173.61 101.06 174.29 100.16 174.16 99.18 L 174.03 98.16 C 173.90 97.18 173.00 96.49 172.02 96.62 C 171.04 96.75 170.35 97.65 170.48 98.63 Z M 170.63 99.70 L 170.79 100.73 C 170.94 101.70 171.86 102.37 172.83 102.21 C 173.81 102.06 174.48 101.14 174.32 100.17 L 174.16 99.14 C 174.00 98.16 173.09 97.50 172.11 97.65 C 171.14 97.81 170.47 98.72 170.63 99.70 Z M 170.80 100.76 L 170.98 101.79 C 171.15 102.76 172.08 103.41 173.05 103.23 C 174.03 103.06 174.67 102.13 174.50 101.16 L 174.31 100.13 C 174.14 99.16 173.21 98.52 172.24 98.69 C 171.27 98.86 170.62 99.79 170.80 100.76 Z M 170.99 101.82 L 171.19 102.84 C 171.38 103.81 172.31 104.44 173.28 104.25 C 174.25 104.06 174.88 103.12 174.69 102.15 L 174.49 101.13 C 174.30 100.17 173.36 99.54 172.40 99.72 C 171.43 99.91 170.80 100.85 170.99 101.82 Z M 171.19 102.86 L 171.40 103.86 C 171.60 104.83 172.55 105.45 173.51 105.25 C 174.47 105.05 175.09 104.10 174.89 103.14 L 174.68 102.13 C 174.48 101.17 173.54 100.55 172.58 100.75 C 171.61 100.95 170.99 101.90 171.19 102.86 Z M 171.41 103.88 L 171.62 104.86 C 171.83 105.82 172.78 106.43 173.74 106.22 C 174.70 106.01 175.31 105.07 175.10 104.10 L 174.89 103.12 C 174.68 102.16 173.73 101.55 172.77 101.76 C 171.81 101.97 171.20 102.92 171.41 103.88 Z M 171.62 104.86 L 171.83 105.81 C 172.04 106.77 172.99 107.38 173.95 107.17 C 174.91 106.95 175.52 106.00 175.31 105.05 L 175.10 104.10 C 174.88 103.14 173.94 102.53 172.98 102.74 C 172.02 102.96 171.41 103.91 171.62 104.86 Z M 171.83 105.81 L 172.04 106.72 C 172.25 107.68 173.20 108.29 174.16 108.07 C 175.11 107.86 175.72 106.91 175.51 105.95 L 175.30 105.05 C 175.09 104.09 174.14 103.48 173.19 103.69 C 172.23 103.91 171.62 104.86 171.83 105.81 Z M 172.04 106.72 L 172.24 107.65 C 172.45 108.61 173.39 109.22 174.35 109.01 C 175.31 108.80 175.92 107.86 175.71 106.90 L 175.51 105.96 C 175.30 105.00 174.35 104.40 173.39 104.60 C 172.44 104.81 171.83 105.76 172.04 106.72 Z M 172.24 107.63 L 172.46 108.71 C 172.66 109.67 173.60 110.29 174.55 110.09 C 175.51 109.89 176.13 108.95 175.93 107.99 L 175.71 106.92 C 175.51 105.96 174.57 105.34 173.62 105.54 C 172.66 105.73 172.04 106.67 172.24 107.63 Z M 172.46 108.69 L 172.65 109.70 C 172.84 110.66 173.76 111.29 174.73 111.10 C 175.69 110.92 176.31 109.99 176.13 109.03 L 175.93 108.02 C 175.75 107.06 174.82 106.43 173.86 106.61 C 172.90 106.80 172.27 107.73 172.46 108.69 Z M 172.65 109.67 L 172.82 110.63 C 172.99 111.60 173.91 112.24 174.87 112.07 C 175.83 111.90 176.47 110.98 176.30 110.02 L 176.13 109.05 C 175.96 108.09 175.04 107.45 174.08 107.62 C 173.12 107.79 172.48 108.71 172.65 109.67 Z M 172.82 110.61 L 172.97 111.55 C 173.13 112.51 174.03 113.16 174.99 113.01 C 175.96 112.85 176.61 111.94 176.46 110.98 L 176.30 110.04 C 176.15 109.08 175.24 108.43 174.28 108.58 C 173.32 108.74 172.66 109.65 172.82 110.61 Z M 172.97 111.52 L 173.11 112.45 C 173.25 113.42 174.14 114.08 175.11 113.94 C 176.07 113.80 176.74 112.90 176.59 111.94 L 176.46 111.01 C 176.32 110.04 175.42 109.38 174.46 109.52 C 173.49 109.66 172.83 110.56 172.97 111.52 Z M 173.11 112.43 L 173.23 113.38 C 173.36 114.34 174.25 115.02 175.21 114.89 C 176.17 114.76 176.85 113.88 176.72 112.92 L 176.59 111.96 C 176.47 111.00 175.58 110.32 174.62 110.45 C 173.65 110.58 172.98 111.47 173.11 112.43 Z M 173.23 113.36 L 173.35 114.30 C 173.46 115.26 174.34 115.95 175.31 115.83 C 176.27 115.71 176.95 114.84 176.84 113.87 L 176.72 112.93 C 176.60 111.97 175.73 111.29 174.76 111.40 C 173.80 111.52 173.11 112.40 173.23 113.36 Z M 173.35 114.29 L 173.46 115.25 C 173.57 116.22 174.44 116.91 175.40 116.80 C 176.36 116.69 177.06 115.82 176.95 114.86 L 176.84 113.89 C 176.73 112.93 175.86 112.23 174.89 112.34 C 173.93 112.45 173.24 113.32 173.35 114.29 Z M 173.46 115.24 L 173.56 116.23 C 173.66 117.19 174.53 117.89 175.49 117.79 C 176.45 117.69 177.15 116.83 177.05 115.86 L 176.95 114.87 C 176.84 113.91 175.98 113.21 175.02 113.31 C 174.05 113.41 173.35 114.28 173.46 115.24 Z M 173.56 116.22 L 173.66 117.23 C 173.76 118.19 174.61 118.90 175.58 118.80 C 176.54 118.70 177.25 117.85 177.15 116.88 L 177.05 115.87 C 176.96 114.91 176.10 114.21 175.13 114.30 C 174.17 114.40 173.47 115.26 173.56 116.22 Z M 173.66 117.22 L 173.76 118.24 C 173.85 119.20 174.70 119.91 175.66 119.82 C 176.63 119.73 177.33 118.88 177.24 117.91 L 177.15 116.89 C 177.06 115.93 176.21 115.22 175.24 115.31 C 174.28 115.40 173.57 116.25 173.66 117.22 Z M 173.76 118.23 L 173.85 119.25 C 173.93 120.21 174.78 120.93 175.74 120.84 C 176.70 120.76 177.42 119.91 177.33 118.95 L 177.24 117.92 C 177.16 116.96 176.31 116.25 175.35 116.33 C 174.39 116.42 173.67 117.26 173.76 118.23 Z M 173.85 119.24 L 173.93 120.25 C 174.01 121.22 174.85 121.93 175.82 121.85 C 176.78 121.77 177.49 120.93 177.42 119.97 L 177.33 118.96 C 177.25 117.99 176.41 117.28 175.45 117.36 C 174.48 117.44 173.77 118.28 173.85 119.24 Z M 173.93 120.25 L 174.01 121.24 C 174.08 122.20 174.92 122.92 175.88 122.84 C 176.85 122.77 177.57 121.93 177.49 120.97 L 177.41 119.98 C 177.34 119.01 176.50 118.29 175.54 118.37 C 174.58 118.44 173.86 119.28 173.93 120.25 Z M 174.01 121.22 L 174.08 122.21 C 174.15 123.18 174.98 123.90 175.95 123.83 C 176.91 123.76 177.63 122.93 177.56 121.96 L 177.49 120.98 C 177.42 120.01 176.59 119.29 175.63 119.36 C 174.66 119.43 173.94 120.26 174.01 121.22 Z M 174.08 122.20 L 174.14 123.19 C 174.21 124.15 175.04 124.88 176.00 124.82 C 176.96 124.76 177.69 123.93 177.63 122.97 L 177.56 121.98 C 177.50 121.01 176.67 120.29 175.71 120.35 C 174.75 120.41 174.02 121.24 174.08 122.20 Z M 174.14 123.18 L 174.20 124.18 C 174.26 125.14 175.08 125.87 176.04 125.82 C 177.00 125.76 177.74 124.94 177.68 123.98 L 177.63 122.98 C 177.57 122.02 176.75 121.28 175.79 121.34 C 174.82 121.39 174.09 122.22 174.14 123.18 Z M 174.20 124.16 L 174.25 125.16 C 174.30 126.13 175.12 126.87 176.08 126.82 C 177.04 126.77 177.78 125.95 177.73 124.99 L 177.68 123.99 C 177.64 123.03 176.82 122.29 175.86 122.34 C 174.90 122.38 174.15 123.20 174.20 124.16 Z M 174.25 125.15 L 174.29 126.16 C 174.33 127.12 175.14 127.87 176.10 127.83 C 177.06 127.79 177.81 126.98 177.77 126.02 L 177.73 125.01 C 177.69 124.05 176.88 123.30 175.92 123.34 C 174.96 123.38 174.21 124.19 174.25 125.15 Z M 174.29 126.15 L 174.32 127.13 C 174.35 128.09 175.16 128.84 176.12 128.81 C 177.08 128.78 177.83 127.98 177.80 127.02 L 177.77 126.04 C 177.74 125.08 176.94 124.32 175.98 124.35 C 175.02 124.38 174.26 125.19 174.29 126.15 Z M 174.32 127.11 L 174.35 128.08 C 174.37 129.04 175.16 129.80 176.12 129.78 C 177.08 129.76 177.84 128.96 177.82 128.00 L 177.80 127.04 C 177.78 126.08 176.98 125.31 176.02 125.34 C 175.06 125.36 174.30 126.15 174.32 127.11 Z M 174.35 128.07 L 174.36 129.05 C 174.38 130.01 175.17 130.78 176.13 130.76 C 177.09 130.75 177.85 129.96 177.84 129.00 L 177.82 128.02 C 177.81 127.06 177.02 126.29 176.06 126.31 C 175.10 126.32 174.33 127.11 174.35 128.07 Z M 174.36 129.04 L 174.37 130.04 C 174.38 130.99 175.17 131.76 176.13 131.75 C 177.09 131.75 177.86 130.96 177.85 130.00 L 177.84 129.01 C 177.83 128.05 177.04 127.28 176.08 127.29 C 175.12 127.30 174.35 128.08 174.36 129.04 Z M 174.37 130.03 L 174.38 131.03 C 174.38 131.99 175.17 132.77 176.12 132.76 C 177.08 132.75 177.86 131.97 177.85 131.01 L 177.84 130.01 C 177.84 129.05 177.06 128.28 176.10 128.28 C 175.14 128.29 174.37 129.07 174.37 130.03 Z M 174.38 131.03 L 174.38 132.05 C 174.38 133.01 175.16 133.78 176.12 133.78 C 177.08 133.78 177.85 133.00 177.85 132.04 L 177.85 131.02 C 177.85 130.06 177.07 129.29 176.11 129.29 C 175.15 129.29 174.38 130.07 174.38 131.03 Z M 174.38 132.04 L 174.38 133.07 C 174.38 134.03 175.16 134.81 176.12 134.81 C 177.08 134.81 177.85 134.03 177.85 133.07 L 177.85 132.04 C 177.85 131.08 177.07 130.31 176.12 130.31 C 175.16 130.31 174.38 131.09 174.38 132.04 Z M 174.38 133.07 L 174.38 134.09 C 174.38 135.04 175.16 135.82 176.12 135.82 C 177.08 135.82 177.85 135.04 177.85 134.09 L 177.85 133.07 C 177.85 132.12 177.08 131.34 176.12 131.34 C 175.16 131.34 174.38 132.12 174.38 133.07 Z M 174.39 134.09 L 174.39 135.06 C 174.38 136.01 175.16 136.79 176.12 136.79 C 177.07 136.79 177.85 136.02 177.85 135.06 L 177.85 134.09 C 177.85 133.13 177.08 132.36 176.12 132.36 C 175.16 132.35 174.39 133.13 174.39 134.09 Z M 174.39 135.05 L 174.38 136.04 C 174.38 136.99 175.15 137.77 176.11 137.77 C 177.07 137.77 177.84 137.00 177.85 136.04 L 177.85 135.06 C 177.85 134.11 177.08 133.33 176.12 133.33 C 175.17 133.32 174.39 134.10 174.39 135.05 Z M 174.38 136.03 L 174.38 137.02 C 174.37 137.98 175.14 138.76 176.10 138.76 C 177.06 138.77 177.84 138.00 177.84 137.04 L 177.85 136.05 C 177.85 135.09 177.08 134.31 176.12 134.31 C 175.17 134.30 174.39 135.07 174.38 136.03 Z M 174.38 137.01 L 174.37 138.01 C 174.36 138.97 175.13 139.75 176.08 139.76 C 177.04 139.77 177.82 139.00 177.83 138.05 L 177.84 137.05 C 177.85 136.09 177.08 135.31 176.13 135.30 C 175.17 135.29 174.39 136.06 174.38 137.01 Z M 174.37 138.00 L 174.35 139.01 C 174.34 139.97 175.10 140.76 176.06 140.77 C 177.01 140.79 177.80 140.02 177.81 139.07 L 177.83 138.06 C 177.84 137.10 177.08 136.32 176.13 136.30 C 175.17 136.29 174.38 137.05 174.37 138.00 Z M 174.35 139.00 L 174.33 140.02 C 174.31 140.97 175.07 141.76 176.02 141.79 C 176.98 141.81 177.77 141.05 177.79 140.10 L 177.81 139.08 C 177.83 138.12 177.08 137.33 176.12 137.31 C 175.17 137.29 174.38 138.05 174.35 139.00 Z M 174.33 140.00 L 174.30 141.03 C 174.27 141.98 175.02 142.78 175.98 142.81 C 176.93 142.84 177.73 142.09 177.76 141.14 L 177.79 140.11 C 177.82 139.16 177.07 138.36 176.11 138.33 C 175.16 138.30 174.36 139.05 174.33 140.00 Z M 174.30 141.01 L 174.26 142.02 C 174.22 142.97 174.97 143.78 175.92 143.81 C 176.87 143.85 177.68 143.11 177.72 142.16 L 177.76 141.15 C 177.79 140.20 177.05 139.39 176.10 139.36 C 175.14 139.32 174.34 140.06 174.30 141.01 Z M 174.26 142.00 L 174.21 142.98 C 174.17 143.93 174.90 144.74 175.85 144.79 C 176.81 144.84 177.62 144.11 177.67 143.15 L 177.71 142.17 C 177.76 141.22 177.03 140.41 176.08 140.36 C 175.12 140.31 174.31 141.05 174.26 142.00 Z M 174.22 142.96 L 174.16 143.95 C 174.10 144.90 174.82 145.72 175.77 145.77 C 176.73 145.83 177.55 145.11 177.60 144.16 L 177.66 143.17 C 177.72 142.22 177.00 141.40 176.05 141.34 C 175.09 141.28 174.27 142.01 174.22 142.96 Z M 174.16 143.93 L 174.09 144.92 C 174.02 145.87 174.73 146.69 175.68 146.76 C 176.63 146.83 177.46 146.12 177.53 145.17 L 177.60 144.18 C 177.67 143.23 176.96 142.40 176.01 142.33 C 175.05 142.26 174.23 142.97 174.16 143.93 Z M 174.09 144.89 L 174.00 145.89 C 173.92 146.84 174.62 147.67 175.57 147.76 C 176.52 147.84 177.36 147.13 177.44 146.18 L 177.53 145.19 C 177.61 144.24 176.91 143.40 175.96 143.32 C 175.01 143.24 174.17 143.94 174.09 144.89 Z M 174.01 145.86 L 173.91 146.86 C 173.81 147.81 174.50 148.66 175.45 148.75 C 176.40 148.85 177.24 148.16 177.34 147.21 L 177.44 146.21 C 177.53 145.26 176.84 144.41 175.89 144.32 C 174.95 144.22 174.10 144.92 174.01 145.86 Z M 173.91 146.84 L 173.79 147.84 C 173.68 148.79 174.36 149.64 175.31 149.75 C 176.26 149.86 177.11 149.18 177.22 148.24 L 177.34 147.23 C 177.44 146.29 176.77 145.43 175.82 145.32 C 174.87 145.21 174.02 145.89 173.91 146.84 Z M 173.80 147.82 L 173.66 148.82 C 173.54 149.77 174.21 150.63 175.15 150.76 C 176.09 150.88 176.96 150.22 177.08 149.27 L 177.22 148.26 C 177.34 147.32 176.68 146.45 175.73 146.33 C 174.79 146.21 173.92 146.87 173.80 147.82 Z M 173.67 148.80 L 173.52 149.80 C 173.38 150.74 174.03 151.62 174.97 151.76 C 175.91 151.90 176.79 151.25 176.93 150.31 L 177.08 149.30 C 177.22 148.36 176.57 147.48 175.63 147.34 C 174.69 147.20 173.81 147.85 173.67 148.80 Z M 173.53 149.77 L 173.37 150.72 C 173.21 151.65 173.85 152.54 174.79 152.70 C 175.73 152.85 176.62 152.22 176.77 151.28 L 176.93 150.34 C 177.08 149.40 176.45 148.51 175.51 148.35 C 174.57 148.20 173.68 148.83 173.53 149.77 Z M 173.37 150.69 L 173.20 151.64 C 173.03 152.57 173.66 153.47 174.59 153.64 C 175.53 153.81 176.42 153.19 176.59 152.25 L 176.77 151.30 C 176.93 150.37 176.31 149.47 175.38 149.30 C 174.44 149.13 173.54 149.75 173.37 150.69 Z M 173.21 151.61 L 173.02 152.57 C 172.84 153.50 173.45 154.40 174.38 154.59 C 175.32 154.77 176.22 154.16 176.40 153.23 L 176.59 152.27 C 176.77 151.34 176.16 150.43 175.23 150.25 C 174.30 150.07 173.39 150.68 173.21 151.61 Z M 173.03 152.54 L 172.83 153.51 C 172.63 154.44 173.23 155.35 174.16 155.54 C 175.09 155.74 176.00 155.14 176.20 154.21 L 176.40 153.25 C 176.59 152.32 176.00 151.40 175.06 151.21 C 174.13 151.02 173.22 151.61 173.03 152.54 Z M 172.83 153.49 L 172.62 154.46 C 172.41 155.39 173.00 156.31 173.93 156.51 C 174.85 156.72 175.77 156.13 175.98 155.20 L 176.19 154.23 C 176.40 153.30 175.81 152.38 174.88 152.18 C 173.95 151.97 173.04 152.56 172.83 153.49 Z M 172.62 154.44 L 172.39 155.42 C 172.18 156.35 172.76 157.27 173.68 157.49 C 174.61 157.70 175.53 157.13 175.75 156.20 L 175.97 155.22 C 176.19 154.29 175.61 153.37 174.69 153.15 C 173.76 152.94 172.83 153.52 172.62 154.44 Z M 172.40 155.41 L 172.16 156.41 C 171.93 157.33 172.50 158.26 173.43 158.48 C 174.35 158.70 175.28 158.14 175.50 157.21 L 175.74 156.22 C 175.96 155.29 175.40 154.36 174.47 154.14 C 173.55 153.92 172.62 154.49 172.40 155.41 Z M 172.16 156.39 L 171.91 157.41 C 171.68 158.33 172.24 159.26 173.16 159.49 C 174.08 159.72 175.02 159.16 175.25 158.24 L 175.50 157.23 C 175.73 156.30 175.17 155.37 174.25 155.14 C 173.32 154.91 172.39 155.47 172.16 156.39 Z M 171.91 157.40 L 171.65 158.42 C 171.41 159.34 171.97 160.28 172.89 160.51 C 173.81 160.75 174.74 160.19 174.98 159.27 L 175.24 158.25 C 175.48 157.33 174.92 156.39 174.00 156.16 C 173.08 155.92 172.15 156.48 171.91 157.40 Z M 171.65 158.41 L 171.41 159.35 C 171.17 160.27 171.72 161.21 172.63 161.45 C 173.55 161.69 174.49 161.14 174.73 160.22 L 174.98 159.28 C 175.22 158.36 174.67 157.42 173.75 157.18 C 172.83 156.94 171.89 157.49 171.65 158.41 Z M 171.41 159.34 L 171.16 160.29 C 170.91 161.21 171.46 162.15 172.37 162.40 C 173.29 162.64 174.23 162.09 174.48 161.18 L 174.73 160.23 C 174.97 159.31 174.43 158.37 173.51 158.12 C 172.59 157.88 171.65 158.42 171.41 159.34 Z M 171.16 160.29 L 170.90 161.25 C 170.65 162.16 171.19 163.11 172.11 163.35 C 173.02 163.60 173.97 163.06 174.21 162.14 L 174.47 161.18 C 174.72 160.27 174.18 159.32 173.27 159.08 C 172.35 158.83 171.41 159.37 171.16 160.29 Z M 170.90 161.24 L 170.63 162.21 C 170.38 163.12 170.92 164.07 171.83 164.32 C 172.75 164.57 173.70 164.03 173.95 163.12 L 174.21 162.15 C 174.46 161.24 173.93 160.29 173.01 160.04 C 172.10 159.79 171.15 160.32 170.90 161.24 Z M 170.64 162.20 L 170.36 163.17 C 170.11 164.09 170.64 165.03 171.56 165.29 C 172.47 165.54 173.42 165.01 173.67 164.10 L 173.94 163.12 C 174.20 162.21 173.67 161.26 172.75 161.01 C 171.84 160.75 170.89 161.29 170.64 162.20 Z M 170.37 163.17 L 170.09 164.14 C 169.83 165.05 170.36 166.00 171.28 166.26 C 172.19 166.52 173.14 165.99 173.40 165.08 L 173.67 164.10 C 173.93 163.19 173.40 162.24 172.49 161.98 C 171.57 161.72 170.62 162.26 170.37 163.17 Z M 170.09 164.14 L 169.81 165.11 C 169.55 166.02 170.08 166.97 170.99 167.23 C 171.90 167.49 172.85 166.97 173.11 166.06 L 173.39 165.08 C 173.65 164.17 173.13 163.22 172.22 162.96 C 171.30 162.70 170.35 163.23 170.09 164.14 Z M 169.82 165.11 L 169.53 166.08 C 169.27 166.99 169.79 167.94 170.70 168.20 C 171.61 168.47 172.57 167.94 172.83 167.03 L 173.11 166.06 C 173.38 165.15 172.85 164.20 171.94 163.94 C 171.03 163.67 170.08 164.19 169.82 165.11 Z M 169.54 166.07 L 169.25 167.04 C 168.99 167.95 169.51 168.90 170.42 169.17 C 171.33 169.43 172.28 168.91 172.55 168.00 L 172.83 167.04 C 173.10 166.13 172.58 165.17 171.67 164.91 C 170.76 164.64 169.80 165.16 169.54 166.07 Z M 169.25 167.03 L 168.97 167.99 C 168.70 168.90 169.22 169.85 170.13 170.12 C 171.03 170.39 171.99 169.87 172.26 168.97 L 172.54 168.01 C 172.81 167.10 172.30 166.15 171.39 165.88 C 170.48 165.61 169.52 166.12 169.25 167.03 Z M 168.97 167.98 L 168.68 168.96 C 168.41 169.87 168.92 170.82 169.83 171.10 C 170.73 171.37 171.69 170.85 171.96 169.95 L 172.26 168.97 C 172.53 168.06 172.02 167.11 171.11 166.83 C 170.20 166.56 169.25 167.08 168.97 167.98 Z M 168.68 168.95 L 168.39 169.92 C 168.11 170.83 168.62 171.78 169.53 172.06 C 170.43 172.34 171.39 171.83 171.67 170.92 L 171.96 169.95 C 172.24 169.05 171.73 168.09 170.82 167.81 C 169.91 167.54 168.96 168.05 168.68 168.95 Z M 168.39 169.92 L 168.09 170.87 C 167.81 171.78 168.32 172.74 169.23 173.02 C 170.13 173.30 171.09 172.79 171.37 171.88 L 171.66 170.93 C 171.94 170.02 171.44 169.06 170.53 168.78 C 169.63 168.50 168.67 169.01 168.39 169.92 Z M 168.10 170.87 L 167.80 171.82 C 167.52 172.72 168.02 173.68 168.92 173.97 C 169.83 174.25 170.79 173.75 171.07 172.84 L 171.37 171.89 C 171.65 170.99 171.15 170.03 170.24 169.74 C 169.34 169.46 168.38 169.96 168.10 170.87 Z M 167.80 171.81 L 167.50 172.76 C 167.21 173.66 167.71 174.63 168.61 174.91 C 169.52 175.20 170.48 174.70 170.77 173.80 L 171.07 172.85 C 171.35 171.95 170.85 170.99 169.95 170.70 C 169.05 170.41 168.09 170.91 167.80 171.81 Z M 167.50 172.75 L 167.20 173.70 C 166.91 174.60 167.40 175.56 168.30 175.85 C 169.20 176.14 170.17 175.65 170.46 174.75 L 170.76 173.80 C 171.05 172.90 170.56 171.94 169.66 171.65 C 168.76 171.36 167.79 171.85 167.50 172.75 Z M 167.20 173.69 L 166.89 174.63 C 166.60 175.53 167.09 176.50 167.99 176.79 C 168.89 177.09 169.85 176.60 170.15 175.70 L 170.46 174.76 C 170.75 173.86 170.26 172.89 169.36 172.60 C 168.46 172.30 167.50 172.79 167.20 173.69 Z M 166.90 174.63 L 166.58 175.57 C 166.28 176.46 166.77 177.43 167.67 177.73 C 168.56 178.03 169.53 177.54 169.83 176.65 L 170.14 175.71 C 170.44 174.81 169.96 173.84 169.06 173.54 C 168.16 173.24 167.19 173.73 166.90 174.63 Z M 166.59 175.56 L 166.27 176.50 C 165.96 177.40 166.44 178.37 167.34 178.67 C 168.23 178.98 169.21 178.49 169.51 177.60 L 169.83 176.66 C 170.13 175.76 169.65 174.79 168.75 174.49 C 167.86 174.18 166.89 174.66 166.59 175.56 Z M 166.27 176.50 L 165.95 177.44 C 165.64 178.33 166.11 179.31 167.01 179.61 C 167.90 179.92 168.87 179.44 169.18 178.55 L 169.50 177.61 C 169.81 176.71 169.34 175.74 168.44 175.43 C 167.55 175.13 166.58 175.60 166.27 176.50 Z M 165.95 177.43 L 165.62 178.36 C 165.31 179.25 165.78 180.23 166.68 180.54 C 167.57 180.85 168.54 180.38 168.85 179.49 L 169.18 178.56 C 169.49 177.67 169.02 176.69 168.13 176.38 C 167.24 176.07 166.26 176.54 165.95 177.43 Z M 165.63 178.35 L 165.30 179.29 C 164.98 180.18 165.45 181.15 166.34 181.47 C 167.23 181.78 168.21 181.32 168.52 180.43 L 168.85 179.49 C 169.17 178.60 168.70 177.63 167.81 177.31 C 166.92 177.00 165.94 177.46 165.63 178.35 Z M 165.30 179.28 L 164.97 180.22 C 164.65 181.11 165.11 182.09 166.00 182.40 C 166.89 182.72 167.87 182.26 168.18 181.37 L 168.52 180.43 C 168.84 179.54 168.37 178.57 167.48 178.25 C 166.60 177.93 165.62 178.39 165.30 179.28 Z M 164.97 180.22 L 164.63 181.15 C 164.31 182.04 164.77 183.02 165.66 183.34 C 166.55 183.66 167.52 183.20 167.84 182.31 L 168.18 181.37 C 168.50 180.48 168.04 179.51 167.15 179.19 C 166.27 178.87 165.29 179.33 164.97 180.22 Z M 164.63 181.15 L 164.29 182.09 C 163.97 182.98 164.43 183.96 165.31 184.28 C 166.20 184.60 167.18 184.14 167.50 183.26 L 167.84 182.31 C 168.16 181.43 167.71 180.45 166.82 180.13 C 165.93 179.81 164.95 180.27 164.63 181.15 Z M 164.29 182.09 L 163.95 183.04 C 163.63 183.92 164.08 184.90 164.97 185.22 C 165.86 185.55 166.84 185.09 167.16 184.20 L 167.50 183.26 C 167.82 182.37 167.37 181.39 166.48 181.07 C 165.59 180.75 164.61 181.21 164.29 182.09 Z M 163.95 183.04 L 163.60 183.98 C 163.28 184.87 163.74 185.85 164.62 186.17 C 165.51 186.49 166.49 186.04 166.81 185.15 L 167.16 184.20 C 167.48 183.32 167.02 182.34 166.14 182.02 C 165.25 181.69 164.27 182.15 163.95 183.04 Z M 163.60 183.98 L 163.26 184.93 C 162.94 185.82 163.39 186.79 164.28 187.12 C 165.17 187.44 166.15 186.98 166.47 186.10 L 166.81 185.15 C 167.13 184.26 166.68 183.28 165.79 182.96 C 164.91 182.64 163.93 183.10 163.60 183.98 Z M 163.26 184.93 L 162.92 185.88 C 162.59 186.77 163.05 187.74 163.94 188.06 C 164.82 188.39 165.80 187.93 166.12 187.04 L 166.47 186.10 C 166.79 185.21 166.33 184.23 165.45 183.91 C 164.56 183.59 163.58 184.05 163.26 184.93 Z M 162.92 185.88 L 162.57 186.83 C 162.25 187.72 162.71 188.69 163.60 189.01 C 164.48 189.33 165.46 188.88 165.78 187.99 L 166.12 187.04 C 166.44 186.15 165.98 185.18 165.10 184.86 C 164.21 184.54 163.24 185.00 162.92 185.88 Z M 162.57 186.83 L 162.23 187.79 C 161.91 188.67 162.37 189.65 163.26 189.97 C 164.15 190.29 165.12 189.83 165.44 188.94 L 165.78 187.99 C 166.10 187.10 165.64 186.12 164.75 185.81 C 163.87 185.49 162.89 185.95 162.57 186.83 Z M 162.23 187.79 L 161.89 188.74 C 161.57 189.63 162.04 190.60 162.92 190.92 C 163.81 191.24 164.78 190.77 165.10 189.89 L 165.44 188.94 C 165.76 188.05 165.29 187.08 164.41 186.76 C 163.52 186.44 162.55 186.90 162.23 187.79 Z M 161.89 188.74 L 161.55 189.69 C 161.24 190.58 161.70 191.55 162.59 191.87 C 163.47 192.19 164.45 191.72 164.76 190.84 L 165.10 189.89 C 165.42 189.00 164.95 188.03 164.07 187.71 C 163.18 187.40 162.21 187.86 161.89 188.74 Z M 161.55 189.70 L 161.22 190.64 C 160.90 191.53 161.36 192.50 162.25 192.82 C 163.14 193.13 164.11 192.67 164.42 191.78 L 164.76 190.84 C 165.08 189.95 164.61 188.98 163.73 188.66 C 162.84 188.35 161.87 188.81 161.55 189.70 Z M 161.22 190.64 L 160.88 191.59 C 160.57 192.48 161.03 193.45 161.92 193.76 C 162.80 194.08 163.77 193.61 164.09 192.73 L 164.42 191.78 C 164.74 190.90 164.27 189.92 163.39 189.61 C 162.50 189.30 161.53 189.76 161.22 190.64 Z M 160.88 191.59 L 160.55 192.53 C 160.23 193.42 160.70 194.39 161.58 194.70 C 162.47 195.02 163.44 194.56 163.75 193.67 L 164.09 192.73 C 164.40 191.84 163.94 190.87 163.05 190.56 C 162.17 190.24 161.20 190.70 160.88 191.59 Z M 160.55 192.53 L 160.21 193.47 C 159.90 194.35 160.36 195.33 161.25 195.64 C 162.13 195.96 163.10 195.49 163.42 194.61 L 163.75 193.67 C 164.07 192.79 163.60 191.81 162.72 191.50 C 161.84 191.18 160.86 191.65 160.55 192.53 Z M 160.22 193.47 L 159.88 194.40 C 159.57 195.28 160.03 196.26 160.91 196.57 C 161.80 196.89 162.77 196.43 163.08 195.54 L 163.42 194.61 C 163.73 193.73 163.27 192.75 162.39 192.44 C 161.50 192.12 160.53 192.58 160.22 193.47 Z M 159.88 194.40 L 159.55 195.33 C 159.23 196.21 159.69 197.18 160.58 197.50 C 161.46 197.82 162.43 197.36 162.75 196.47 L 163.08 195.55 C 163.40 194.66 162.94 193.69 162.06 193.37 C 161.17 193.06 160.20 193.52 159.88 194.40 Z M 159.55 195.32 L 159.22 196.26 C 158.90 197.14 159.35 198.11 160.24 198.43 C 161.12 198.75 162.09 198.29 162.41 197.41 L 162.75 196.48 C 163.07 195.59 162.61 194.62 161.73 194.30 C 160.85 193.98 159.87 194.44 159.55 195.32 Z M 159.22 196.26 L 158.86 197.23 C 158.54 198.11 159.00 199.08 159.88 199.40 C 160.76 199.72 161.74 199.27 162.06 198.39 L 162.41 197.42 C 162.73 196.53 162.27 195.56 161.39 195.24 C 160.51 194.92 159.54 195.37 159.22 196.26 Z M 158.87 197.22 L 158.51 198.19 C 158.19 199.07 158.64 200.04 159.52 200.36 C 160.40 200.69 161.38 200.23 161.70 199.35 L 162.05 198.39 C 162.38 197.51 161.92 196.54 161.04 196.21 C 160.16 195.89 159.19 196.34 158.87 197.22 Z M 158.52 198.19 L 158.16 199.14 C 157.84 200.02 158.29 201.00 159.17 201.32 C 160.05 201.64 161.02 201.19 161.35 200.31 L 161.70 199.36 C 162.02 198.48 161.57 197.50 160.69 197.18 C 159.81 196.86 158.84 197.31 158.52 198.19 Z M 158.17 199.14 L 157.82 200.09 C 157.49 200.97 157.94 201.94 158.82 202.26 C 159.70 202.59 160.67 202.14 161.00 201.26 L 161.35 200.31 C 161.67 199.44 161.22 198.46 160.34 198.14 C 159.46 197.81 158.49 198.26 158.17 199.14 Z M 157.82 200.09 L 157.47 201.03 C 157.15 201.90 157.59 202.88 158.47 203.20 C 159.35 203.53 160.32 203.08 160.65 202.20 L 161.00 201.26 C 161.32 200.38 160.87 199.41 159.99 199.09 C 159.12 198.76 158.14 199.21 157.82 200.09 Z M 157.47 201.02 L 157.13 201.95 C 156.80 202.83 157.25 203.81 158.13 204.13 C 159.00 204.46 159.98 204.01 160.30 203.13 L 160.65 202.20 C 160.97 201.32 160.52 200.35 159.65 200.03 C 158.77 199.70 157.80 200.15 157.47 201.02 Z M 157.13 201.95 L 156.79 202.88 C 156.46 203.75 156.91 204.73 157.79 205.05 C 158.66 205.38 159.64 204.93 159.96 204.05 L 160.30 203.13 C 160.63 202.25 160.18 201.28 159.30 200.96 C 158.43 200.63 157.45 201.08 157.13 201.95 Z M 156.79 202.88 L 156.45 203.79 C 156.13 204.66 156.57 205.64 157.45 205.96 C 158.33 206.29 159.30 205.84 159.62 204.96 L 159.96 204.05 C 160.28 203.17 159.84 202.20 158.96 201.88 C 158.08 201.55 157.11 202.00 156.79 202.88 Z M 156.45 203.79 L 156.12 204.69 C 155.79 205.57 156.24 206.54 157.12 206.86 C 157.99 207.19 158.97 206.74 159.29 205.86 L 159.62 204.96 C 159.95 204.08 159.50 203.11 158.62 202.79 C 157.75 202.46 156.77 202.91 156.45 203.79 Z M 156.12 204.69 L 155.77 205.65 C 155.44 206.52 155.89 207.50 156.77 207.82 C 157.64 208.14 158.62 207.69 158.94 206.82 L 159.29 205.86 C 159.61 204.98 159.16 204.01 158.29 203.69 C 157.41 203.37 156.44 203.82 156.12 204.69 Z M 155.77 205.65 L 155.42 206.61 C 155.10 207.48 155.55 208.45 156.42 208.77 C 157.30 209.09 158.27 208.64 158.59 207.77 L 158.94 206.81 C 159.26 205.94 158.81 204.97 157.93 204.65 C 157.06 204.33 156.09 204.78 155.77 205.65 Z M 155.42 206.61 L 155.07 207.55 C 154.75 208.43 155.20 209.40 156.08 209.72 C 156.95 210.04 157.92 209.59 158.24 208.71 L 158.59 207.77 C 158.91 206.89 158.46 205.92 157.58 205.60 C 156.71 205.28 155.74 205.73 155.42 206.61 Z M 155.07 207.55 L 154.73 208.49 C 154.41 209.37 154.86 210.33 155.74 210.65 C 156.61 210.97 157.58 210.52 157.90 209.65 L 158.24 208.71 C 158.56 207.84 158.11 206.87 157.23 206.55 C 156.36 206.23 155.39 206.68 155.07 207.55 Z M 154.73 208.49 L 154.39 209.43 C 154.07 210.30 154.52 211.27 155.40 211.58 C 156.27 211.90 157.23 211.45 157.55 210.58 L 157.89 209.65 C 158.21 208.77 157.76 207.81 156.89 207.49 C 156.02 207.17 155.05 207.62 154.73 208.49 Z M 154.39 209.43 L 154.05 210.36 C 153.73 211.23 154.18 212.19 155.06 212.51 C 155.93 212.83 156.89 212.38 157.21 211.51 L 157.55 210.58 C 157.87 209.71 157.42 208.74 156.55 208.42 C 155.68 208.11 154.71 208.55 154.39 209.43 Z M 154.06 210.36 L 153.72 211.28 C 153.40 212.15 153.84 213.12 154.71 213.44 C 155.59 213.76 156.55 213.31 156.87 212.44 L 157.21 211.51 C 157.53 210.64 157.08 209.68 156.21 209.36 C 155.34 209.04 154.37 209.48 154.06 210.36 Z M 153.72 211.28 L 153.38 212.21 C 153.06 213.08 153.50 214.04 154.37 214.36 C 155.24 214.68 156.21 214.24 156.53 213.37 L 156.87 212.44 C 157.19 211.57 156.74 210.61 155.87 210.29 C 155.00 209.97 154.04 210.41 153.72 211.28 Z M 153.38 212.21 L 153.03 213.15 C 152.71 214.02 153.15 214.98 154.02 215.31 C 154.89 215.63 155.85 215.18 156.18 214.31 L 156.52 213.37 C 156.84 212.50 156.40 211.54 155.53 211.22 C 154.66 210.90 153.70 211.34 153.38 212.21 Z M 153.03 213.15 L 152.67 214.13 C 152.35 215.00 152.79 215.97 153.65 216.29 C 154.52 216.61 155.48 216.17 155.81 215.30 L 156.17 214.32 C 156.49 213.45 156.05 212.49 155.19 212.16 C 154.32 211.84 153.36 212.28 153.03 213.15 Z M 152.67 214.13 L 152.30 215.11 C 151.98 215.98 152.42 216.94 153.28 217.27 C 154.15 217.59 155.11 217.15 155.44 216.28 L 155.80 215.30 C 156.13 214.44 155.69 213.47 154.82 213.15 C 153.96 212.83 152.99 213.27 152.67 214.13 Z M 152.31 215.11 L 151.94 216.08 C 151.62 216.95 152.05 217.91 152.92 218.23 C 153.78 218.56 154.74 218.12 155.07 217.26 L 155.43 216.29 C 155.76 215.42 155.32 214.46 154.46 214.14 C 153.59 213.81 152.63 214.25 152.31 215.11 Z M 151.94 216.08 L 151.58 217.04 C 151.26 217.90 151.69 218.86 152.55 219.19 C 153.41 219.51 154.38 219.08 154.70 218.22 L 155.07 217.26 C 155.39 216.40 154.96 215.44 154.10 215.11 C 153.23 214.78 152.27 215.22 151.94 216.08 Z M 151.59 217.03 L 151.23 217.97 C 150.90 218.83 151.33 219.79 152.19 220.12 C 153.05 220.45 154.02 220.02 154.34 219.16 L 154.70 218.22 C 155.03 217.36 154.60 216.40 153.74 216.07 C 152.88 215.74 151.91 216.17 151.59 217.03 Z M 151.23 217.97 L 150.88 218.88 C 150.55 219.73 150.98 220.70 151.84 221.03 C 152.70 221.36 153.66 220.93 153.99 220.07 L 154.34 219.16 C 154.67 218.30 154.24 217.34 153.38 217.01 C 152.52 216.68 151.56 217.11 151.23 217.97 Z M 150.89 218.87 L 150.55 219.75 C 150.21 220.61 150.64 221.57 151.49 221.90 C 152.35 222.23 153.31 221.81 153.65 220.95 L 153.99 220.07 C 154.32 219.22 153.89 218.25 153.04 217.92 C 152.18 217.59 151.22 218.02 150.89 218.87 Z M 150.55 219.74 L 150.21 220.61 C 149.88 221.46 150.30 222.42 151.15 222.76 C 152.01 223.09 152.97 222.67 153.31 221.82 L 153.64 220.96 C 153.98 220.10 153.56 219.14 152.70 218.80 C 151.85 218.47 150.88 218.89 150.55 219.74 Z M 150.22 220.60 L 149.80 221.66 C 149.46 222.51 149.88 223.47 150.73 223.81 C 151.58 224.15 152.54 223.73 152.88 222.88 L 153.30 221.82 C 153.64 220.97 153.22 220.01 152.37 219.67 C 151.52 219.33 150.56 219.75 150.22 220.60 Z M 149.81 221.65 L 149.41 222.64 C 149.06 223.49 149.47 224.45 150.32 224.79 C 151.17 225.14 152.13 224.73 152.47 223.88 L 152.87 222.89 C 153.22 222.04 152.80 221.08 151.96 220.73 C 151.11 220.39 150.15 220.80 149.81 221.65 Z M 149.41 222.64 L 149.03 223.57 C 148.69 224.42 149.09 225.38 149.93 225.72 C 150.78 226.07 151.74 225.66 152.09 224.82 L 152.47 223.88 C 152.81 223.04 152.41 222.08 151.56 221.73 C 150.72 221.39 149.76 221.79 149.41 222.64 Z M 149.04 223.57 L 148.67 224.45 C 148.32 225.29 148.72 226.26 149.56 226.60 C 150.40 226.95 151.37 226.55 151.71 225.71 L 152.08 224.82 C 152.43 223.98 152.03 223.02 151.19 222.67 C 150.35 222.33 149.38 222.73 149.04 223.57 Z M 148.68 224.45 L 148.32 225.30 C 147.97 226.14 148.37 227.10 149.20 227.45 C 150.04 227.80 151.00 227.40 151.35 226.57 L 151.71 225.72 C 152.06 224.88 151.66 223.92 150.82 223.57 C 149.99 223.22 149.03 223.61 148.68 224.45 Z M 148.33 225.30 L 147.98 226.12 C 147.63 226.95 148.02 227.91 148.85 228.27 C 149.69 228.62 150.65 228.22 151.00 227.39 L 151.35 226.57 C 151.70 225.74 151.31 224.78 150.47 224.42 C 149.64 224.07 148.68 224.46 148.33 225.30 Z M 147.99 226.12 L 147.61 227.00 C 147.26 227.83 147.65 228.78 148.48 229.14 C 149.31 229.49 150.27 229.10 150.62 228.27 L 150.99 227.39 C 151.35 226.56 150.96 225.60 150.13 225.25 C 149.30 224.90 148.34 225.29 147.99 226.12 Z M 147.62 226.99 L 147.25 227.86 C 146.89 228.69 147.27 229.65 148.10 230.00 C 148.93 230.36 149.89 229.98 150.24 229.15 L 150.62 228.28 C 150.97 227.45 150.59 226.49 149.76 226.14 C 148.93 225.78 147.98 226.16 147.62 226.99 Z M 147.26 227.85 L 146.87 228.74 C 146.51 229.56 146.88 230.52 147.70 230.88 C 148.52 231.24 149.48 230.87 149.84 230.04 L 150.23 229.16 C 150.59 228.34 150.22 227.38 149.40 227.02 C 148.57 226.66 147.62 227.03 147.26 227.85 Z M 146.88 228.73 L 146.47 229.64 C 146.10 230.46 146.46 231.41 147.28 231.78 C 148.10 232.15 149.05 231.79 149.42 230.97 L 149.83 230.06 C 150.20 229.24 149.84 228.28 149.02 227.91 C 148.20 227.55 147.25 227.91 146.88 228.73 Z M 146.48 229.62 L 146.04 230.58 C 145.66 231.39 146.01 232.35 146.82 232.73 C 147.63 233.10 148.59 232.75 148.97 231.94 L 149.41 230.98 C 149.79 230.17 149.43 229.21 148.62 228.84 C 147.82 228.46 146.85 228.81 146.48 229.62 Z M 146.05 230.57 L 145.60 231.50 C 145.22 232.30 145.56 233.26 146.36 233.65 C 147.16 234.03 148.12 233.69 148.51 232.89 L 148.95 231.96 C 149.34 231.15 149.00 230.19 148.20 229.81 C 147.39 229.42 146.43 229.76 146.05 230.57 Z M 145.61 231.48 L 145.20 232.32 C 144.81 233.12 145.13 234.08 145.93 234.47 C 146.73 234.87 147.69 234.54 148.08 233.74 L 148.50 232.91 C 148.89 232.11 148.56 231.15 147.77 230.75 C 146.97 230.36 146.01 230.69 145.61 231.48 Z M 145.21 232.30 L 144.77 233.17 C 144.37 233.96 144.68 234.92 145.47 235.33 C 146.25 235.73 147.22 235.42 147.62 234.63 L 148.07 233.76 C 148.47 232.97 148.16 232.01 147.37 231.60 C 146.58 231.20 145.62 231.51 145.21 232.30 Z M 144.79 233.14 L 144.31 234.03 C 143.89 234.81 144.19 235.78 144.97 236.19 C 145.74 236.61 146.71 236.32 147.13 235.54 L 147.61 234.66 C 148.02 233.88 147.73 232.91 146.95 232.49 C 146.17 232.07 145.20 232.36 144.79 233.14 Z M 144.33 234.00 L 143.83 234.89 C 143.39 235.65 143.66 236.63 144.43 237.06 C 145.20 237.50 146.17 237.23 146.61 236.46 L 147.11 235.57 C 147.55 234.80 147.28 233.83 146.51 233.39 C 145.74 232.96 144.77 233.23 144.33 234.00 Z M 143.85 234.85 L 143.32 235.74 C 142.86 236.49 143.11 237.47 143.86 237.92 C 144.61 238.38 145.59 238.14 146.05 237.38 L 146.58 236.50 C 147.04 235.74 146.79 234.76 146.04 234.31 C 145.29 233.86 144.31 234.10 143.85 234.85 Z M 143.35 235.69 L 142.78 236.56 C 142.31 237.30 142.52 238.28 143.25 238.76 C 143.99 239.24 144.97 239.03 145.45 238.30 L 146.02 237.43 C 146.49 236.69 146.28 235.70 145.55 235.23 C 144.81 234.75 143.83 234.96 143.35 235.69 Z M 142.82 236.52 L 142.23 237.36 C 141.72 238.07 141.89 239.06 142.61 239.57 C 143.32 240.07 144.31 239.90 144.82 239.19 L 145.41 238.34 C 145.92 237.63 145.75 236.64 145.03 236.13 C 144.32 235.63 143.33 235.80 142.82 236.52 Z M 142.27 237.31 L 141.65 238.11 C 141.12 238.80 141.25 239.79 141.94 240.33 C 142.63 240.86 143.63 240.73 144.16 240.04 L 144.78 239.24 C 145.31 238.54 145.18 237.55 144.49 237.02 C 143.80 236.48 142.80 236.61 142.27 237.31 Z M 141.69 238.06 L 141.05 238.84 C 140.49 239.51 140.59 240.50 141.26 241.06 C 141.93 241.62 142.93 241.52 143.48 240.85 L 144.12 240.08 C 144.68 239.41 144.59 238.41 143.91 237.86 C 143.24 237.30 142.25 237.39 141.69 238.06 Z M 141.08 238.80 L 140.42 239.55 C 139.85 240.21 139.91 241.20 140.56 241.78 C 141.22 242.35 142.21 242.29 142.79 241.64 L 143.45 240.89 C 144.02 240.24 143.96 239.24 143.31 238.66 C 142.66 238.09 141.66 238.15 141.08 238.80 Z M 140.45 239.53 L 139.77 240.26 C 139.18 240.89 139.22 241.89 139.86 242.48 C 140.50 243.07 141.49 243.03 142.08 242.40 L 142.76 241.66 C 143.35 241.03 143.31 240.03 142.67 239.44 C 142.04 238.85 141.04 238.89 140.45 239.53 Z M 139.80 240.24 L 139.11 240.95 C 138.51 241.58 138.52 242.57 139.15 243.17 C 139.77 243.78 140.77 243.76 141.37 243.13 L 142.06 242.41 C 142.66 241.79 142.64 240.80 142.02 240.19 C 141.39 239.59 140.40 239.61 139.80 240.24 Z M 139.12 240.94 L 138.42 241.65 C 137.82 242.27 137.82 243.26 138.44 243.87 C 139.06 244.47 140.05 244.47 140.66 243.85 L 141.35 243.14 C 141.96 242.53 141.95 241.53 141.34 240.93 C 140.72 240.32 139.73 240.33 139.12 240.94 Z M 138.43 241.65 L 137.75 242.33 C 137.14 242.94 137.14 243.93 137.75 244.54 C 138.36 245.15 139.35 245.15 139.96 244.54 L 140.65 243.86 C 141.26 243.24 141.26 242.25 140.64 241.64 C 140.03 241.03 139.04 241.03 138.43 241.65 Z"
      fill="black"
      fill-rule="nonzero" /></svg>