<svg xmlns="http://www.w3.org/2000/svg" width="300" height="300" viewBox="0 0 300 300">
<path d="M 148.40 91.24 L 147.82 89.94 C 147.42 89.05 146.38 88.65 145.49 89.05 C 144.60 89.45 144.20 90.49 144.60 91.38 L 145.18 92.68 C 145.58 93.57 146.62 93.97 147.51 93.57 C 148.40 93.17 148.80 92.13 148.40 91.24 Z M 147.82 89.91 L 147.26 88.69 C 146.85 87.80 145.79 87.42 144.90 87.83 C 144.01 88.24 143.62 89.30 144.03 90.19 L 144.60 91.41 C 145.01 92.30 146.07 92.69 146.96 92.27 C 147.85 91.86 148.24 90.80 147.82 89.91 Z M 147.25 88.63 L 146.72 87.59 C 146.28 86.71 145.20 86.35 144.31 86.80 C 143.43 87.25 143.07 88.33 143.52 89.21 L 144.05 90.25 C 144.49 91.14 145.57 91.49 146.46 91.04 C 147.34 90.60 147.70 89.52 147.25 88.63 Z M 146.67 87.47 L 146.21 86.69 C 145.69 85.83 144.58 85.56 143.72 86.07 C 142.86 86.59 142.59 87.70 143.10 88.56 L 143.57 89.34 C 144.09 90.19 145.20 90.47 146.06 89.95 C 146.91 89.44 147.19 88.32 146.67 87.47 Z M 146.00 86.39 L 145.61 85.96 C 144.92 85.22 143.77 85.17 143.03 85.86 C 142.28 86.54 142.24 87.70 142.92 88.44 L 143.31 88.86 C 143.99 89.61 145.15 89.65 145.89 88.97 C 146.63 88.29 146.68 87.13 146.00 86.39 Z M 144.17 85.36 L 143.88 85.38 C 142.86 85.43 142.08 86.29 142.13 87.31 C 142.18 88.32 143.04 89.11 144.06 89.06 L 144.36 89.04 C 145.37 88.99 146.16 88.12 146.10 87.11 C 146.05 86.09 145.19 85.31 144.17 85.36 Z M 142.27 86.49 L 142.11 86.86 C 141.71 87.80 142.15 88.88 143.09 89.28 C 144.03 89.68 145.12 89.24 145.51 88.31 L 145.67 87.94 C 146.07 87.00 145.63 85.91 144.69 85.51 C 143.75 85.11 142.67 85.55 142.27 86.49 Z M 141.99 87.32 L 141.89 87.96 C 141.75 88.97 142.45 89.90 143.45 90.05 C 144.46 90.20 145.40 89.50 145.55 88.49 L 145.64 87.85 C 145.79 86.84 145.09 85.90 144.08 85.76 C 143.07 85.61 142.13 86.31 141.99 87.32 Z M 141.88 88.13 L 141.84 89.01 C 141.79 90.02 142.57 90.89 143.58 90.94 C 144.60 90.99 145.46 90.21 145.51 89.19 L 145.56 88.32 C 145.61 87.30 144.83 86.44 143.81 86.39 C 142.80 86.34 141.93 87.12 141.88 88.13 Z M 141.84 89.09 L 141.83 90.14 C 141.83 91.16 142.65 91.98 143.66 91.99 C 144.68 91.99 145.50 91.17 145.51 90.16 L 145.51 89.11 C 145.52 88.09 144.70 87.26 143.68 87.26 C 142.67 87.26 141.84 88.08 141.84 89.09 Z M 141.84 90.19 L 141.86 91.37 C 141.88 92.39 142.72 93.19 143.73 93.17 C 144.74 93.15 145.55 92.31 145.53 91.30 L 145.50 90.11 C 145.48 89.10 144.65 88.30 143.63 88.32 C 142.62 88.34 141.82 89.18 141.84 90.19 Z M 141.87 91.40 L 141.91 92.66 C 141.94 93.67 142.79 94.47 143.80 94.43 C 144.81 94.40 145.60 93.55 145.57 92.54 L 145.52 91.28 C 145.49 90.27 144.65 89.48 143.64 89.51 C 142.63 89.54 141.83 90.39 141.87 91.40 Z M 141.91 92.67 L 141.96 93.97 C 142.00 94.98 142.85 95.77 143.85 95.73 C 144.86 95.69 145.65 94.85 145.61 93.84 L 145.56 92.54 C 145.52 91.53 144.68 90.74 143.67 90.78 C 142.66 90.82 141.87 91.67 141.91 92.67 Z M 141.97 93.97 L 142.01 95.21 C 142.05 96.22 142.89 97.00 143.89 96.97 C 144.90 96.93 145.68 96.09 145.65 95.09 L 145.60 93.84 C 145.57 92.84 144.73 92.05 143.72 92.09 C 142.72 92.12 141.93 92.97 141.97 93.97 Z M 142.03 95.20 L 142.06 96.32 C 142.09 97.31 142.92 98.10 143.91 98.07 C 144.91 98.04 145.69 97.21 145.66 96.21 L 145.63 95.10 C 145.60 94.10 144.77 93.32 143.78 93.35 C 142.78 93.38 142.00 94.21 142.03 95.20 Z M 142.08 96.31 L 142.10 97.38 C 142.13 98.37 142.94 99.15 143.92 99.12 C 144.91 99.10 145.69 98.29 145.67 97.30 L 145.64 96.23 C 145.62 95.24 144.80 94.46 143.82 94.48 C 142.84 94.51 142.06 95.32 142.08 96.31 Z M 142.13 97.37 L 142.14 98.42 C 142.16 99.39 142.96 100.16 143.93 100.15 C 144.90 100.13 145.68 99.33 145.66 98.36 L 145.64 97.31 C 145.63 96.34 144.83 95.57 143.85 95.58 C 142.88 95.60 142.11 96.40 142.13 97.37 Z M 142.16 98.41 L 142.18 99.42 C 142.19 100.38 142.97 101.14 143.93 101.13 C 144.89 101.12 145.66 100.33 145.65 99.38 L 145.64 98.37 C 145.63 97.41 144.84 96.64 143.88 96.65 C 142.92 96.66 142.15 97.45 142.16 98.41 Z M 142.20 99.41 L 142.21 100.39 C 142.21 101.33 142.99 102.10 143.93 102.09 C 144.88 102.08 145.64 101.31 145.64 100.36 L 145.63 99.38 C 145.62 98.43 144.85 97.67 143.90 97.68 C 142.95 97.69 142.19 98.46 142.20 99.41 Z M 142.23 100.38 L 142.23 101.33 C 142.24 102.26 143.00 103.02 143.93 103.02 C 144.87 103.01 145.62 102.25 145.62 101.31 L 145.61 100.37 C 145.61 99.43 144.85 98.68 143.91 98.68 C 142.98 98.68 142.22 99.45 142.23 100.38 Z M 142.25 101.32 L 142.25 102.24 C 142.26 103.17 143.01 103.92 143.93 103.91 C 144.85 103.91 145.60 103.16 145.60 102.24 L 145.60 101.32 C 145.60 100.40 144.85 99.65 143.92 99.65 C 143.00 99.65 142.25 100.40 142.25 101.32 Z M 142.28 102.24 L 142.28 103.14 C 142.28 104.05 143.02 104.79 143.93 104.79 C 144.84 104.79 145.58 104.05 145.58 103.14 L 145.58 102.24 C 145.58 101.33 144.84 100.59 143.93 100.59 C 143.01 100.59 142.28 101.33 142.28 102.24 Z M 142.29 103.14 L 142.29 104.15 C 142.29 105.05 143.02 105.79 143.93 105.79 C 144.83 105.79 145.57 105.05 145.57 104.15 L 145.57 103.14 C 145.57 102.23 144.83 101.50 143.93 101.50 C 143.02 101.50 142.29 102.23 142.29 103.14 Z M 142.29 104.15 L 142.29 105.18 C 142.29 106.08 143.02 106.82 143.93 106.82 C 144.83 106.82 145.57 106.08 145.57 105.18 L 145.57 104.15 C 145.57 103.24 144.83 102.51 143.93 102.51 C 143.02 102.51 142.29 103.24 142.29 104.15 Z M 142.28 105.18 L 142.28 106.18 C 142.28 107.09 143.02 107.83 143.93 107.83 C 144.84 107.83 145.57 107.09 145.57 106.18 L 145.57 105.18 C 145.57 104.27 144.84 103.53 143.93 103.53 C 143.02 103.53 142.28 104.27 142.28 105.18 Z M 142.28 106.18 L 142.28 107.17 C 142.28 108.08 143.02 108.82 143.93 108.82 C 144.84 108.82 145.58 108.08 145.58 107.17 L 145.58 106.18 C 145.58 105.27 144.84 104.53 143.93 104.53 C 143.02 104.53 142.28 105.27 142.28 106.18 Z M 142.27 107.17 L 142.27 108.15 C 142.27 109.07 143.01 109.81 143.93 109.81 C 144.84 109.81 145.58 109.07 145.58 108.15 L 145.58 107.17 C 145.58 106.26 144.84 105.51 143.93 105.51 C 143.01 105.51 142.27 106.26 142.27 107.17 Z M 142.27 108.15 L 142.27 109.13 C 142.27 110.05 143.01 110.79 143.93 110.79 C 144.84 110.79 145.59 110.05 145.59 109.13 L 145.59 108.15 C 145.59 107.23 144.84 106.49 143.93 106.49 C 143.01 106.49 142.27 107.23 142.27 108.15 Z M 142.26 109.13 L 142.26 110.11 C 142.26 111.03 143.01 111.78 143.93 111.78 C 144.85 111.78 145.59 111.03 145.59 110.11 L 145.59 109.13 C 145.59 108.21 144.85 107.46 143.93 107.46 C 143.01 107.46 142.26 108.21 142.26 109.13 Z M 142.26 110.11 L 142.26 111.08 C 142.26 112.00 143.01 112.74 143.93 112.74 C 144.85 112.74 145.60 112.00 145.60 111.08 L 145.60 110.11 C 145.60 109.19 144.85 108.44 143.93 108.44 C 143.01 108.44 142.26 109.19 142.26 110.11 Z M 142.26 111.07 L 142.26 112.04 C 142.26 112.96 143.00 113.71 143.92 113.71 C 144.84 113.71 145.59 112.97 145.59 112.05 L 145.59 111.08 C 145.59 110.16 144.85 109.41 143.93 109.41 C 143.01 109.41 142.26 110.15 142.26 111.07 Z M 142.27 112.03 L 142.26 113.01 C 142.25 113.93 142.99 114.68 143.91 114.69 C 144.82 114.69 145.57 113.96 145.58 113.04 L 145.58 112.06 C 145.59 111.14 144.85 110.39 143.94 110.39 C 143.02 110.38 142.27 111.12 142.27 112.03 Z M 142.26 113.00 L 142.25 114.00 C 142.23 114.91 142.96 115.66 143.88 115.67 C 144.79 115.69 145.54 114.96 145.56 114.05 L 145.57 113.05 C 145.58 112.14 144.86 111.39 143.94 111.37 C 143.03 111.36 142.28 112.09 142.26 113.00 Z M 142.25 113.98 L 142.23 114.99 C 142.21 115.90 142.92 116.65 143.83 116.68 C 144.74 116.70 145.50 115.98 145.52 115.07 L 145.55 114.06 C 145.57 113.15 144.85 112.40 143.94 112.37 C 143.03 112.35 142.28 113.07 142.25 113.98 Z M 142.23 114.96 L 142.20 115.98 C 142.16 116.89 142.87 117.65 143.77 117.69 C 144.68 117.72 145.44 117.02 145.48 116.11 L 145.52 115.09 C 145.55 114.18 144.85 113.42 143.94 113.39 C 143.03 113.35 142.27 114.06 142.23 114.96 Z M 142.20 115.96 L 142.15 116.99 C 142.10 117.89 142.79 118.67 143.69 118.71 C 144.60 118.76 145.37 118.07 145.42 117.17 L 145.47 116.14 C 145.52 115.23 144.83 114.46 143.93 114.41 C 143.02 114.36 142.25 115.06 142.20 115.96 Z M 142.15 116.96 L 142.08 117.97 C 142.02 118.87 142.69 119.65 143.59 119.71 C 144.49 119.78 145.27 119.10 145.34 118.20 L 145.41 117.19 C 145.47 116.30 144.80 115.51 143.90 115.45 C 143.00 115.39 142.22 116.06 142.15 116.96 Z M 142.09 117.94 L 142.00 118.92 C 141.92 119.81 142.59 120.60 143.48 120.68 C 144.38 120.76 145.17 120.10 145.24 119.20 L 145.33 118.23 C 145.41 117.33 144.75 116.54 143.85 116.47 C 142.96 116.39 142.17 117.05 142.09 117.94 Z M 142.01 118.90 L 141.91 119.88 C 141.82 120.77 142.47 121.57 143.36 121.66 C 144.25 121.75 145.05 121.10 145.14 120.21 L 145.24 119.23 C 145.33 118.33 144.68 117.54 143.79 117.45 C 142.90 117.36 142.10 118.01 142.01 118.90 Z M 141.92 119.86 L 141.81 120.85 C 141.71 121.74 142.34 122.54 143.23 122.64 C 144.12 122.74 144.92 122.10 145.02 121.22 L 145.13 120.23 C 145.23 119.34 144.59 118.54 143.71 118.44 C 142.82 118.34 142.02 118.98 141.92 119.86 Z M 141.81 120.84 L 141.69 121.83 C 141.58 122.72 142.21 123.52 143.09 123.63 C 143.98 123.74 144.78 123.11 144.89 122.23 L 145.01 121.23 C 145.12 120.35 144.49 119.54 143.61 119.44 C 142.73 119.33 141.92 119.96 141.81 120.84 Z M 141.70 121.82 L 141.57 122.83 C 141.45 123.70 142.07 124.51 142.95 124.62 C 143.83 124.74 144.64 124.12 144.75 123.24 L 144.88 122.24 C 144.99 121.36 144.37 120.55 143.50 120.44 C 142.62 120.33 141.81 120.95 141.70 121.82 Z M 141.57 122.82 L 141.44 123.82 C 141.32 124.70 141.93 125.50 142.81 125.62 C 143.68 125.74 144.49 125.13 144.61 124.25 L 144.74 123.25 C 144.86 122.37 144.25 121.57 143.37 121.45 C 142.50 121.33 141.69 121.94 141.57 122.82 Z M 141.45 123.82 L 141.31 124.82 C 141.19 125.70 141.80 126.50 142.67 126.62 C 143.54 126.74 144.34 126.13 144.46 125.26 L 144.60 124.25 C 144.72 123.38 144.11 122.58 143.24 122.46 C 142.37 122.34 141.57 122.95 141.45 123.82 Z M 141.31 124.82 L 141.25 125.26 C 141.13 126.13 141.74 126.93 142.61 127.05 C 143.48 127.17 144.28 126.56 144.40 125.69 L 144.46 125.26 C 144.58 124.39 143.97 123.59 143.10 123.47 C 142.23 123.35 141.43 123.95 141.31 124.82 Z"
      fill="black"
      fill-rule="nonzero" /><path d="M 124.72 159.46 L 124.22 158.58 C 123.75 157.74 122.69 157.44 121.85 157.91 C 121.01 158.38 120.72 159.44 121.19 160.28 L 121.68 161.17 C 122.16 162.00 123.22 162.30 124.05 161.83 C 124.89 161.36 125.19 160.30 124.72 159.46 Z M 124.23 158.60 L 123.75 157.71 C 123.29 156.86 122.23 156.55 121.39 157.01 C 120.54 157.47 120.23 158.53 120.69 159.37 L 121.18 160.26 C 121.63 161.10 122.69 161.42 123.54 160.96 C 124.38 160.50 124.69 159.44 124.23 158.60 Z M 123.77 157.75 L 123.32 156.86 C 122.88 156.00 121.83 155.66 120.98 156.09 C 120.12 156.53 119.78 157.58 120.21 158.44 L 120.67 159.33 C 121.10 160.19 122.15 160.53 123.01 160.09 C 123.87 159.66 124.21 158.61 123.77 157.75 Z M 123.35 156.92 L 122.94 156.02 C 122.54 155.14 121.50 154.76 120.63 155.15 C 119.75 155.55 119.37 156.59 119.77 157.46 L 120.18 158.37 C 120.58 159.24 121.61 159.63 122.49 159.23 C 123.36 158.83 123.75 157.80 123.35 156.92 Z M 122.98 156.11 L 122.62 155.19 C 122.27 154.29 121.26 153.85 120.36 154.20 C 119.47 154.54 119.02 155.55 119.37 156.45 L 119.73 157.37 C 120.08 158.27 121.09 158.71 121.98 158.37 C 122.88 158.02 123.33 157.01 122.98 156.11 Z M 122.66 155.31 L 122.38 154.38 C 122.09 153.46 121.12 152.94 120.20 153.22 C 119.28 153.50 118.76 154.48 119.04 155.40 L 119.33 156.33 C 119.61 157.25 120.59 157.77 121.51 157.49 C 122.43 157.21 122.95 156.23 122.66 155.31 Z M 122.41 154.51 L 122.20 153.57 C 121.99 152.62 121.06 152.03 120.12 152.24 C 119.18 152.45 118.58 153.39 118.79 154.33 L 119.01 155.27 C 119.22 156.21 120.15 156.80 121.09 156.59 C 122.03 156.38 122.62 155.45 122.41 154.51 Z M 122.23 153.68 L 122.08 152.71 C 121.93 151.76 121.03 151.11 120.08 151.26 C 119.12 151.41 118.47 152.30 118.62 153.25 L 118.77 154.22 C 118.92 155.17 119.82 155.82 120.77 155.67 C 121.72 155.52 122.38 154.63 122.23 153.68 Z M 122.09 152.80 L 121.98 151.81 C 121.88 150.85 121.02 150.16 120.06 150.26 C 119.10 150.36 118.40 151.22 118.50 152.18 L 118.61 153.17 C 118.71 154.13 119.57 154.83 120.54 154.72 C 121.50 154.62 122.19 153.76 122.09 152.80 Z M 121.99 151.87 L 121.92 150.86 C 121.84 149.90 121.00 149.17 120.04 149.24 C 119.07 149.31 118.35 150.16 118.42 151.12 L 118.50 152.13 C 118.57 153.09 119.41 153.82 120.37 153.75 C 121.34 153.67 122.06 152.83 121.99 151.87 Z M 121.92 150.89 L 121.86 149.86 C 121.81 148.89 120.98 148.15 120.01 148.21 C 119.04 148.26 118.30 149.09 118.36 150.06 L 118.42 151.09 C 118.47 152.06 119.30 152.80 120.27 152.74 C 121.23 152.69 121.97 151.86 121.92 150.89 Z M 121.86 149.86 L 121.81 148.91 C 121.76 147.94 120.93 147.20 119.96 147.25 C 119.00 147.30 118.25 148.13 118.31 149.10 L 118.36 150.05 C 118.41 151.02 119.23 151.76 120.20 151.71 C 121.17 151.66 121.91 150.83 121.86 149.86 Z M 121.81 148.91 L 121.77 148.07 C 121.71 147.10 120.88 146.36 119.91 146.41 C 118.94 146.47 118.20 147.30 118.26 148.27 L 118.30 149.10 C 118.36 150.07 119.19 150.82 120.16 150.76 C 121.13 150.71 121.87 149.88 121.81 148.91 Z M 121.77 148.07 L 121.72 147.19 C 121.66 146.22 120.83 145.48 119.86 145.54 C 118.89 145.59 118.15 146.43 118.20 147.40 L 118.25 148.27 C 118.31 149.24 119.14 149.98 120.11 149.92 C 121.08 149.87 121.82 149.04 121.77 148.07 Z M 121.72 147.19 L 121.67 146.27 C 121.61 145.30 120.78 144.56 119.81 144.62 C 118.84 144.67 118.09 145.50 118.15 146.48 L 118.20 147.40 C 118.26 148.37 119.09 149.11 120.06 149.05 C 121.03 149.00 121.78 148.16 121.72 147.19 Z M 121.67 146.28 L 121.61 145.30 C 121.56 144.32 120.73 143.58 119.75 143.64 C 118.78 143.69 118.04 144.52 118.09 145.49 L 118.15 146.47 C 118.20 147.45 119.03 148.19 120.01 148.13 C 120.98 148.08 121.72 147.25 121.67 146.28 Z M 121.62 145.30 L 121.56 144.25 C 121.51 143.28 120.67 142.53 119.70 142.58 C 118.73 142.63 117.98 143.47 118.03 144.44 L 118.09 145.49 C 118.14 146.46 118.97 147.21 119.95 147.16 C 120.92 147.11 121.67 146.27 121.62 145.30 Z M 121.56 144.25 L 121.50 143.12 C 121.45 142.14 120.62 141.39 119.65 141.44 C 118.67 141.49 117.92 142.32 117.97 143.30 L 118.03 144.43 C 118.08 145.41 118.91 146.16 119.89 146.11 C 120.86 146.06 121.61 145.23 121.56 144.25 Z M 121.50 143.12 L 121.45 141.89 C 121.40 140.91 120.57 140.16 119.60 140.21 C 118.62 140.25 117.87 141.08 117.91 142.06 L 117.97 143.29 C 118.02 144.27 118.85 145.02 119.82 144.97 C 120.80 144.93 121.55 144.10 121.50 143.12 Z M 121.45 141.89 L 121.41 140.96 C 121.36 139.99 120.54 139.23 119.56 139.27 C 118.58 139.32 117.83 140.14 117.87 141.12 L 117.91 142.05 C 117.95 143.03 118.78 143.78 119.76 143.74 C 120.73 143.70 121.49 142.87 121.45 141.89 Z M 121.41 140.97 L 121.37 140.04 C 121.33 139.06 120.50 138.30 119.53 138.35 C 118.55 138.39 117.79 139.21 117.83 140.19 L 117.87 141.12 C 117.91 142.10 118.74 142.86 119.71 142.81 C 120.69 142.77 121.45 141.95 121.41 140.97 Z M 121.37 140.04 L 121.33 139.08 C 121.29 138.10 120.47 137.34 119.49 137.38 C 118.51 137.42 117.75 138.25 117.79 139.23 L 117.83 140.19 C 117.87 141.17 118.69 141.93 119.67 141.89 C 120.65 141.85 121.41 141.02 121.37 140.04 Z M 121.34 139.08 L 121.30 138.09 C 121.26 137.11 120.43 136.35 119.45 136.39 C 118.47 136.43 117.70 137.26 117.74 138.24 L 117.78 139.23 C 117.82 140.21 118.65 140.97 119.63 140.93 C 120.61 140.89 121.38 140.06 121.34 139.08 Z M 121.30 138.09 L 121.26 137.08 C 121.22 136.09 120.39 135.33 119.41 135.37 C 118.42 135.41 117.66 136.24 117.70 137.22 L 117.74 138.24 C 117.78 139.22 118.61 139.98 119.59 139.94 C 120.58 139.90 121.34 139.07 121.30 138.09 Z M 121.26 137.07 L 121.22 136.04 C 121.18 135.06 120.34 134.29 119.36 134.34 C 118.38 134.38 117.61 135.21 117.65 136.19 L 117.70 137.22 C 117.74 138.21 118.57 138.97 119.55 138.93 C 120.54 138.89 121.30 138.06 121.26 137.07 Z M 121.22 136.04 L 121.17 135.00 C 121.13 134.01 120.30 133.25 119.31 133.29 C 118.33 133.33 117.56 134.17 117.61 135.15 L 117.65 136.19 C 117.69 137.18 118.53 137.94 119.51 137.90 C 120.50 137.86 121.26 137.03 121.22 136.04 Z M 121.18 135.00 L 121.13 133.95 C 121.09 132.97 120.25 132.20 119.26 132.25 C 118.28 132.29 117.51 133.13 117.56 134.11 L 117.60 135.16 C 117.65 136.14 118.48 136.91 119.47 136.86 C 120.46 136.82 121.22 135.98 121.18 135.00 Z M 121.13 133.95 L 121.08 132.91 C 121.04 131.92 120.20 131.16 119.21 131.20 C 118.22 131.25 117.46 132.09 117.50 133.08 L 117.55 134.12 C 117.60 135.10 118.44 135.87 119.43 135.82 C 120.42 135.77 121.18 134.94 121.13 133.95 Z M 121.08 132.90 L 121.03 131.87 C 120.98 130.88 120.14 130.12 119.15 130.17 C 118.16 130.22 117.40 131.06 117.45 132.05 L 117.50 133.08 C 117.55 134.07 118.39 134.83 119.38 134.78 C 120.37 134.73 121.13 133.89 121.08 132.90 Z M 121.03 131.86 L 120.98 130.85 C 120.93 129.86 120.08 129.10 119.09 129.16 C 118.10 129.21 117.34 130.06 117.39 131.05 L 117.45 132.06 C 117.50 133.05 118.35 133.81 119.34 133.76 C 120.33 133.70 121.09 132.86 121.03 131.86 Z M 120.98 130.84 L 120.91 129.69 C 120.86 128.69 120.00 127.94 119.01 128.00 C 118.02 128.05 117.26 128.91 117.32 129.90 L 117.39 131.06 C 117.45 132.05 118.30 132.80 119.29 132.75 C 120.28 132.69 121.04 131.84 120.98 130.84 Z M 120.92 129.69 L 120.85 128.42 C 120.79 127.43 119.94 126.67 118.94 126.73 C 117.94 126.78 117.18 127.64 117.24 128.63 L 117.31 129.90 C 117.37 130.89 118.23 131.65 119.22 131.60 C 120.22 131.54 120.98 130.68 120.92 129.69 Z M 120.86 128.45 L 120.81 127.26 C 120.76 126.26 119.91 125.48 118.91 125.52 C 117.91 125.57 117.14 126.41 117.18 127.41 L 117.23 128.61 C 117.28 129.61 118.12 130.39 119.12 130.34 C 120.12 130.30 120.90 129.45 120.86 128.45 Z M 120.81 127.32 L 120.80 126.20 C 120.79 125.20 119.97 124.39 118.96 124.40 C 117.95 124.41 117.15 125.24 117.16 126.24 L 117.17 127.36 C 117.18 128.36 118.01 129.17 119.01 129.16 C 120.02 129.15 120.83 128.32 120.81 127.32 Z M 120.81 126.31 L 120.85 125.29 C 120.90 124.28 120.12 123.42 119.11 123.38 C 118.10 123.33 117.24 124.12 117.20 125.12 L 117.15 126.14 C 117.11 127.15 117.89 128.01 118.90 128.05 C 119.91 128.10 120.76 127.32 120.81 126.31 Z M 120.85 125.45 L 120.97 124.54 C 121.10 123.54 120.40 122.61 119.39 122.48 C 118.39 122.34 117.46 123.05 117.33 124.05 L 117.20 124.96 C 117.07 125.97 117.78 126.89 118.78 127.03 C 119.79 127.16 120.71 126.46 120.85 125.45 Z M 120.93 124.79 L 121.14 124.00 C 121.41 123.02 120.83 122.00 119.85 121.73 C 118.87 121.46 117.85 122.04 117.58 123.02 L 117.37 123.81 C 117.10 124.79 117.68 125.81 118.66 126.08 C 119.64 126.35 120.66 125.77 120.93 124.79 Z M 121.02 124.34 L 121.35 123.69 C 121.81 122.78 121.44 121.66 120.52 121.20 C 119.61 120.74 118.50 121.11 118.04 122.03 L 117.71 122.68 C 117.25 123.59 117.62 124.71 118.53 125.17 C 119.45 125.63 120.56 125.26 121.02 124.34 Z M 121.07 124.11 L 121.53 123.60 C 122.22 122.84 122.16 121.67 121.40 120.98 C 120.64 120.28 119.46 120.34 118.77 121.10 L 118.31 121.61 C 117.62 122.37 117.68 123.54 118.44 124.23 C 119.20 124.93 120.38 124.87 121.07 124.11 Z M 121.06 123.98 L 121.74 123.60 C 122.64 123.09 122.96 121.96 122.46 121.06 C 121.95 120.16 120.82 119.84 119.92 120.34 L 119.24 120.73 C 118.34 121.23 118.02 122.37 118.53 123.27 C 119.03 124.16 120.17 124.48 121.06 123.98 Z M 121.29 123.78 L 122.12 123.57 C 123.12 123.32 123.72 122.30 123.47 121.30 C 123.22 120.30 122.20 119.70 121.20 119.95 L 120.37 120.16 C 119.37 120.42 118.77 121.43 119.02 122.43 C 119.28 123.43 120.29 124.03 121.29 123.78 Z M 121.80 123.62 L 122.74 123.55 C 123.77 123.48 124.54 122.58 124.47 121.56 C 124.39 120.53 123.50 119.76 122.47 119.83 L 121.53 119.90 C 120.50 119.98 119.73 120.87 119.80 121.90 C 119.88 122.92 120.77 123.70 121.80 123.62 Z M 122.53 123.56 L 123.56 123.60 C 124.59 123.64 125.46 122.84 125.50 121.81 C 125.54 120.78 124.74 119.91 123.71 119.87 L 122.68 119.83 C 121.66 119.78 120.79 120.59 120.74 121.61 C 120.70 122.64 121.50 123.51 122.53 123.56 Z M 123.42 123.59 L 124.50 123.71 C 125.52 123.83 126.45 123.09 126.57 122.07 C 126.68 121.05 125.95 120.12 124.93 120.00 L 123.85 119.88 C 122.83 119.76 121.90 120.50 121.78 121.52 C 121.67 122.54 122.40 123.47 123.42 123.59 Z M 124.41 123.70 L 125.50 123.88 C 126.52 124.04 127.48 123.35 127.64 122.33 C 127.80 121.31 127.11 120.36 126.10 120.19 L 125.01 120.01 C 123.99 119.85 123.03 120.54 122.87 121.56 C 122.70 122.58 123.40 123.53 124.41 123.70 Z M 125.46 123.87 L 126.52 124.07 C 127.53 124.25 128.51 123.58 128.70 122.57 C 128.89 121.56 128.22 120.58 127.20 120.40 L 126.14 120.20 C 125.13 120.01 124.15 120.68 123.96 121.69 C 123.77 122.71 124.44 123.68 125.46 123.87 Z M 126.52 124.06 L 127.61 124.27 C 128.62 124.46 129.59 123.79 129.79 122.78 C 129.98 121.77 129.31 120.79 128.30 120.60 L 127.21 120.40 C 126.19 120.21 125.22 120.87 125.03 121.88 C 124.84 122.90 125.50 123.87 126.52 124.06 Z M 127.63 124.27 L 128.76 124.47 C 129.77 124.65 130.74 123.97 130.92 122.96 C 131.10 121.94 130.42 120.97 129.40 120.80 L 128.27 120.60 C 127.26 120.42 126.29 121.10 126.11 122.11 C 125.93 123.13 126.61 124.10 127.63 124.27 Z M 128.79 124.48 L 129.83 124.64 C 130.84 124.81 131.80 124.11 131.96 123.09 C 132.13 122.08 131.43 121.12 130.41 120.96 L 129.38 120.79 C 128.36 120.63 127.40 121.32 127.24 122.34 C 127.08 123.36 127.77 124.32 128.79 124.48 Z M 129.86 124.65 L 130.82 124.79 C 131.85 124.93 132.79 124.22 132.94 123.20 C 133.08 122.18 132.37 121.24 131.35 121.09 L 130.39 120.95 C 129.36 120.81 128.42 121.51 128.27 122.54 C 128.13 123.56 128.84 124.50 129.86 124.65 Z M 130.85 124.79 L 131.77 124.91 C 132.80 125.04 133.73 124.32 133.86 123.29 C 133.99 122.27 133.27 121.34 132.25 121.20 L 131.33 121.09 C 130.30 120.96 129.37 121.68 129.24 122.70 C 129.11 123.73 129.83 124.66 130.85 124.79 Z M 131.80 124.91 L 132.69 125.01 C 133.72 125.13 134.64 124.39 134.76 123.37 C 134.87 122.34 134.14 121.42 133.11 121.30 L 132.22 121.20 C 131.20 121.09 130.27 121.82 130.16 122.85 C 130.04 123.87 130.77 124.79 131.80 124.91 Z M 132.71 125.01 L 133.61 125.11 C 134.64 125.21 135.55 124.47 135.66 123.44 C 135.77 122.42 135.02 121.50 133.99 121.39 L 133.09 121.30 C 132.07 121.20 131.15 121.94 131.05 122.97 C 130.94 123.99 131.69 124.91 132.71 125.01 Z M 133.63 125.11 L 134.60 125.20 C 135.63 125.30 136.54 124.54 136.63 123.52 C 136.73 122.49 135.98 121.58 134.95 121.48 L 133.98 121.39 C 132.95 121.30 132.04 122.05 131.95 123.08 C 131.85 124.10 132.60 125.01 133.63 125.11 Z M 134.62 125.20 L 135.60 125.29 C 136.63 125.37 137.53 124.61 137.62 123.59 C 137.71 122.56 136.95 121.66 135.92 121.57 L 134.94 121.48 C 133.91 121.40 133.01 122.16 132.92 123.18 C 132.83 124.21 133.59 125.11 134.62 125.20 Z M 135.62 125.29 L 136.61 125.37 C 137.64 125.45 138.54 124.68 138.62 123.65 C 138.70 122.63 137.93 121.73 136.91 121.65 L 135.91 121.57 C 134.88 121.49 133.98 122.25 133.90 123.28 C 133.82 124.31 134.59 125.21 135.62 125.29 Z M 136.63 125.37 L 137.63 125.44 C 138.66 125.51 139.55 124.74 139.62 123.71 C 139.70 122.68 138.92 121.79 137.90 121.72 L 136.89 121.65 C 135.86 121.57 134.97 122.35 134.90 123.37 C 134.83 124.40 135.60 125.29 136.63 125.37 Z M 137.65 125.44 L 138.66 125.50 C 139.69 125.57 140.57 124.79 140.64 123.76 C 140.71 122.73 139.93 121.85 138.90 121.78 L 137.88 121.72 C 136.86 121.65 135.97 122.43 135.91 123.46 C 135.84 124.49 136.62 125.37 137.65 125.44 Z M 138.67 125.50 L 139.64 125.56 C 140.67 125.62 141.55 124.83 141.61 123.80 C 141.67 122.78 140.88 121.90 139.86 121.84 L 138.89 121.78 C 137.86 121.72 136.98 122.51 136.92 123.54 C 136.86 124.56 137.65 125.44 138.67 125.50 Z M 139.65 125.56 L 140.57 125.60 C 141.60 125.66 142.47 124.87 142.53 123.84 C 142.58 122.82 141.79 121.94 140.76 121.89 L 139.85 121.84 C 138.82 121.79 137.94 122.58 137.89 123.60 C 137.84 124.63 138.63 125.50 139.65 125.56 Z M 140.58 125.60 L 141.52 125.65 C 142.54 125.70 143.41 124.91 143.46 123.88 C 143.51 122.86 142.72 121.98 141.70 121.93 L 140.76 121.89 C 139.73 121.84 138.86 122.63 138.81 123.66 C 138.76 124.68 139.55 125.55 140.58 125.60 Z M 141.52 125.65 L 142.49 125.69 C 143.51 125.74 144.38 124.95 144.43 123.93 C 144.48 122.90 143.69 122.03 142.67 121.98 L 141.70 121.94 C 140.67 121.89 139.80 122.68 139.75 123.70 C 139.70 124.73 140.49 125.60 141.52 125.65 Z M 142.49 125.69 L 143.50 125.74 C 144.52 125.79 145.39 125.00 145.44 123.98 C 145.49 122.96 144.71 122.08 143.68 122.03 L 142.67 121.98 C 141.64 121.93 140.77 122.72 140.72 123.75 C 140.67 124.77 141.46 125.64 142.49 125.69 Z M 143.49 125.74 L 144.56 125.80 C 145.58 125.85 146.45 125.06 146.51 124.04 C 146.56 123.02 145.78 122.14 144.75 122.09 L 143.69 122.04 C 142.66 121.98 141.79 122.77 141.74 123.79 C 141.68 124.81 142.47 125.69 143.49 125.74 Z M 144.55 125.79 L 145.68 125.86 C 146.70 125.91 147.57 125.13 147.63 124.11 C 147.69 123.09 146.91 122.21 145.89 122.16 L 144.76 122.09 C 143.74 122.04 142.86 122.82 142.81 123.84 C 142.75 124.86 143.53 125.74 144.55 125.79 Z M 145.67 125.85 L 146.63 125.91 C 147.65 125.98 148.53 125.20 148.59 124.18 C 148.66 123.16 147.88 122.28 146.86 122.22 L 145.89 122.16 C 144.87 122.10 144.00 122.87 143.93 123.89 C 143.87 124.91 144.65 125.79 145.67 125.85 Z M 146.63 125.91 L 147.63 125.98 C 148.65 126.04 149.53 125.27 149.59 124.25 C 149.66 123.23 148.89 122.35 147.87 122.29 L 146.87 122.22 C 145.85 122.15 144.97 122.93 144.90 123.95 C 144.84 124.96 145.61 125.84 146.63 125.91 Z M 147.62 125.97 L 148.64 126.04 C 149.66 126.11 150.54 125.34 150.61 124.33 C 150.68 123.31 149.91 122.43 148.90 122.36 L 147.87 122.29 C 146.86 122.22 145.97 122.99 145.90 124.00 C 145.83 125.02 146.60 125.90 147.62 125.97 Z M 148.64 126.04 L 149.67 126.12 C 150.68 126.19 151.57 125.42 151.64 124.41 C 151.71 123.39 150.95 122.51 149.93 122.43 L 148.90 122.36 C 147.89 122.29 147.00 123.05 146.93 124.07 C 146.86 125.08 147.62 125.97 148.64 126.04 Z M 149.66 126.11 L 150.69 126.19 C 151.70 126.27 152.59 125.51 152.67 124.49 C 152.74 123.48 151.98 122.59 150.97 122.52 L 149.94 122.44 C 148.93 122.36 148.04 123.12 147.96 124.14 C 147.89 125.15 148.65 126.04 149.66 126.11 Z M 150.68 126.19 L 151.69 126.27 C 152.71 126.35 153.59 125.59 153.67 124.58 C 153.75 123.57 153.00 122.68 151.98 122.60 L 150.97 122.52 C 149.96 122.44 149.07 123.19 148.99 124.21 C 148.91 125.22 149.67 126.11 150.68 126.19 Z M 151.69 126.27 L 152.67 126.35 C 153.68 126.43 154.57 125.68 154.65 124.67 C 154.74 123.66 153.98 122.77 152.97 122.68 L 151.99 122.60 C 150.98 122.52 150.09 123.27 150.01 124.28 C 149.92 125.29 150.67 126.18 151.69 126.27 Z M 152.66 126.35 L 153.60 126.43 C 154.62 126.52 155.51 125.77 155.60 124.76 C 155.69 123.75 154.94 122.86 153.93 122.77 L 152.98 122.69 C 151.97 122.60 151.08 123.34 150.99 124.35 C 150.90 125.36 151.65 126.26 152.66 126.35 Z M 153.59 126.43 L 154.65 126.53 C 155.66 126.62 156.55 125.88 156.65 124.87 C 156.74 123.87 156.00 122.97 155.00 122.87 L 153.94 122.77 C 152.93 122.68 152.04 123.42 151.94 124.43 C 151.84 125.43 152.58 126.33 153.59 126.43 Z M 154.63 126.52 L 155.63 126.63 C 156.63 126.73 157.53 126.00 157.64 125.00 C 157.75 123.99 157.02 123.09 156.01 122.99 L 155.01 122.88 C 154.01 122.77 153.11 123.50 153.00 124.51 C 152.90 125.51 153.62 126.41 154.63 126.52 Z M 155.60 126.62 L 156.57 126.73 C 157.57 126.85 158.48 126.14 158.60 125.14 C 158.72 124.13 158.00 123.23 157.00 123.11 L 156.04 122.99 C 155.03 122.87 154.13 123.59 154.01 124.59 C 153.89 125.59 154.60 126.50 155.60 126.62 Z M 156.54 126.73 L 157.49 126.85 C 158.49 126.99 159.41 126.29 159.54 125.29 C 159.68 124.30 158.98 123.38 157.98 123.24 L 157.03 123.11 C 156.03 122.98 155.11 123.68 154.98 124.68 C 154.84 125.67 155.54 126.59 156.54 126.73 Z M 157.46 126.85 L 158.42 126.99 C 159.41 127.15 160.34 126.46 160.49 125.47 C 160.64 124.48 159.96 123.55 158.97 123.40 L 158.01 123.25 C 157.02 123.10 156.09 123.78 155.94 124.77 C 155.78 125.77 156.47 126.69 157.46 126.85 Z M 158.39 126.98 L 159.38 127.15 C 160.36 127.32 161.30 126.66 161.47 125.67 C 161.64 124.68 160.98 123.75 159.99 123.58 L 159.00 123.41 C 158.01 123.24 157.07 123.90 156.90 124.89 C 156.74 125.88 157.40 126.81 158.39 126.98 Z M 159.35 127.14 L 160.31 127.33 C 161.30 127.51 162.24 126.87 162.43 125.88 C 162.62 124.90 161.97 123.95 160.99 123.77 L 160.02 123.58 C 159.04 123.40 158.09 124.05 157.90 125.03 C 157.72 126.01 158.36 126.96 159.35 127.14 Z M 160.29 127.32 L 161.20 127.51 C 162.18 127.70 163.14 127.07 163.34 126.09 C 163.53 125.11 162.90 124.16 161.92 123.96 L 161.01 123.77 C 160.03 123.58 159.08 124.21 158.88 125.19 C 158.68 126.17 159.31 127.12 160.29 127.32 Z M 161.18 127.50 L 162.13 127.70 C 163.10 127.91 164.07 127.29 164.28 126.32 C 164.49 125.34 163.87 124.38 162.89 124.17 L 161.94 123.97 C 160.97 123.76 160.01 124.38 159.80 125.35 C 159.59 126.33 160.21 127.29 161.18 127.50 Z M 162.11 127.70 L 163.08 127.92 C 164.05 128.14 165.02 127.53 165.24 126.56 C 165.46 125.59 164.86 124.62 163.88 124.40 L 162.91 124.18 C 161.94 123.95 160.97 124.56 160.75 125.53 C 160.53 126.51 161.14 127.48 162.11 127.70 Z M 163.06 127.91 L 164.05 128.15 C 165.02 128.38 165.99 127.79 166.23 126.82 C 166.46 125.85 165.86 124.88 164.90 124.64 L 163.90 124.40 C 162.94 124.17 161.96 124.77 161.73 125.74 C 161.49 126.71 162.09 127.68 163.06 127.91 Z M 164.03 128.14 L 165.03 128.40 C 166.00 128.64 166.98 128.06 167.22 127.09 C 167.47 126.13 166.88 125.15 165.92 124.90 L 164.92 124.65 C 163.95 124.41 162.97 124.99 162.73 125.95 C 162.48 126.92 163.07 127.90 164.03 128.14 Z M 165.01 128.39 L 166.02 128.66 C 166.98 128.91 167.96 128.34 168.22 127.38 C 168.47 126.42 167.90 125.43 166.94 125.18 L 165.94 124.91 C 164.98 124.66 163.99 125.23 163.73 126.19 C 163.48 127.15 164.05 128.13 165.01 128.39 Z M 165.99 128.65 L 166.99 128.93 C 167.95 129.20 168.94 128.64 169.21 127.68 C 169.48 126.73 168.92 125.73 167.96 125.47 L 166.96 125.19 C 166.01 124.92 165.01 125.48 164.75 126.43 C 164.48 127.39 165.04 128.38 165.99 128.65 Z M 166.97 128.92 L 167.96 129.22 C 168.92 129.50 169.91 128.95 170.20 128.00 C 170.48 127.05 169.93 126.05 168.98 125.77 L 167.99 125.47 C 167.03 125.19 166.03 125.74 165.75 126.69 C 165.47 127.64 166.02 128.64 166.97 128.92 Z M 167.94 129.21 L 168.93 129.52 C 169.87 129.81 170.88 129.28 171.18 128.34 C 171.47 127.39 170.94 126.38 170.00 126.09 L 169.01 125.78 C 168.06 125.48 167.05 126.01 166.76 126.96 C 166.46 127.90 166.99 128.91 167.94 129.21 Z M 168.90 129.51 L 169.87 129.83 C 170.81 130.13 171.83 129.62 172.14 128.68 C 172.45 127.74 171.93 126.72 170.99 126.41 L 170.02 126.10 C 169.08 125.79 168.06 126.30 167.76 127.24 C 167.45 128.18 167.96 129.20 168.90 129.51 Z M 169.84 129.82 L 170.80 130.15 C 171.74 130.47 172.76 129.97 173.08 129.04 C 173.41 128.10 172.91 127.08 171.97 126.75 L 171.02 126.42 C 170.08 126.10 169.06 126.60 168.74 127.53 C 168.41 128.47 168.91 129.49 169.84 129.82 Z M 170.77 130.13 L 171.71 130.48 C 172.64 130.81 173.67 130.33 174.01 129.40 C 174.35 128.47 173.87 127.44 172.94 127.11 L 172.00 126.76 C 171.07 126.43 170.04 126.91 169.70 127.84 C 169.36 128.77 169.84 129.80 170.77 130.13 Z M 171.68 130.46 L 172.60 130.82 C 173.53 131.17 174.56 130.71 174.92 129.78 C 175.27 128.86 174.81 127.82 173.88 127.47 L 172.96 127.12 C 172.04 126.76 171.00 127.23 170.65 128.15 C 170.30 129.08 170.76 130.11 171.68 130.46 Z M 172.58 130.81 L 173.48 131.17 C 174.40 131.54 175.44 131.09 175.81 130.17 C 176.18 129.25 175.73 128.21 174.82 127.84 L 173.91 127.48 C 172.99 127.11 171.95 127.56 171.58 128.48 C 171.21 129.39 171.66 130.44 172.58 130.81 Z M 173.46 131.16 L 174.35 131.53 C 175.26 131.91 176.31 131.48 176.69 130.57 C 177.07 129.66 176.64 128.61 175.73 128.23 L 174.84 127.85 C 173.93 127.47 172.88 127.90 172.50 128.81 C 172.12 129.72 172.54 130.77 173.46 131.16 Z M 174.32 131.52 L 175.26 131.93 C 176.17 132.33 177.22 131.92 177.62 131.02 C 178.02 130.11 177.61 129.05 176.71 128.66 L 175.76 128.24 C 174.86 127.84 173.80 128.25 173.40 129.16 C 173.00 130.06 173.41 131.12 174.32 131.52 Z M 175.23 131.92 L 176.18 132.36 C 177.08 132.78 178.15 132.39 178.56 131.49 C 178.98 130.60 178.59 129.53 177.69 129.11 L 176.74 128.67 C 175.84 128.25 174.78 128.64 174.36 129.54 C 173.94 130.44 174.33 131.50 175.23 131.92 Z M 176.14 132.35 L 177.07 132.81 C 177.96 133.25 179.04 132.88 179.48 131.99 C 179.92 131.10 179.55 130.03 178.66 129.59 L 177.73 129.13 C 176.85 128.69 175.77 129.05 175.33 129.94 C 174.89 130.83 175.26 131.91 176.14 132.35 Z M 177.03 132.79 L 177.92 133.26 C 178.80 133.72 179.89 133.39 180.35 132.51 C 180.82 131.63 180.48 130.55 179.60 130.08 L 178.71 129.61 C 177.83 129.14 176.74 129.48 176.28 130.36 C 175.81 131.23 176.15 132.32 177.03 132.79 Z M 177.87 133.23 L 178.73 133.72 C 179.59 134.22 180.69 133.92 181.18 133.05 C 181.68 132.19 181.38 131.09 180.51 130.60 L 179.66 130.11 C 178.79 129.61 177.69 129.92 177.20 130.78 C 176.71 131.64 177.01 132.74 177.87 133.23 Z M 178.67 133.69 L 179.49 134.20 C 180.33 134.72 181.44 134.46 181.97 133.62 C 182.49 132.77 182.23 131.66 181.39 131.14 L 180.57 130.63 C 179.73 130.10 178.62 130.36 178.09 131.21 C 177.57 132.06 177.83 133.17 178.67 133.69 Z M 179.42 134.16 L 180.19 134.68 C 181.01 135.24 182.13 135.03 182.70 134.21 C 183.26 133.38 183.05 132.26 182.22 131.70 L 181.45 131.18 C 180.63 130.61 179.51 130.83 178.95 131.65 C 178.38 132.47 178.60 133.60 179.42 134.16 Z M 180.11 134.63 L 180.91 135.24 C 181.71 135.85 182.84 135.69 183.45 134.90 C 184.05 134.11 183.90 132.97 183.11 132.37 L 182.30 131.75 C 181.51 131.15 180.37 131.30 179.77 132.09 C 179.16 132.89 179.31 134.02 180.11 134.63 Z M 180.82 135.17 L 181.59 135.84 C 182.34 136.50 183.48 136.42 184.14 135.66 C 184.80 134.91 184.72 133.77 183.97 133.11 L 183.20 132.44 C 182.45 131.78 181.30 131.86 180.64 132.61 C 179.99 133.37 180.06 134.51 180.82 135.17 Z M 181.49 135.75 L 182.18 136.46 C 182.89 137.17 184.04 137.18 184.75 136.47 C 185.46 135.77 185.47 134.62 184.77 133.90 L 184.07 133.20 C 183.36 132.49 182.21 132.48 181.50 133.18 C 180.79 133.89 180.78 135.04 181.49 135.75 Z M 182.08 136.35 L 182.71 137.10 C 183.36 137.87 184.51 137.97 185.28 137.32 C 186.04 136.67 186.14 135.53 185.50 134.76 L 184.87 134.01 C 184.22 133.24 183.07 133.14 182.30 133.79 C 181.54 134.44 181.44 135.58 182.08 136.35 Z M 182.62 136.98 L 183.19 137.78 C 183.77 138.60 184.91 138.79 185.73 138.21 C 186.55 137.63 186.74 136.49 186.16 135.67 L 185.59 134.87 C 185.01 134.05 183.87 133.86 183.05 134.44 C 182.23 135.03 182.04 136.16 182.62 136.98 Z M 183.10 137.66 L 183.61 138.51 C 184.12 139.38 185.24 139.66 186.11 139.15 C 186.98 138.64 187.26 137.52 186.75 136.65 L 186.24 135.80 C 185.73 134.93 184.61 134.64 183.74 135.16 C 182.87 135.67 182.59 136.79 183.10 137.66 Z M 183.54 138.39 L 183.97 139.27 C 184.42 140.17 185.52 140.55 186.42 140.10 C 187.33 139.65 187.70 138.56 187.25 137.65 L 186.82 136.77 C 186.37 135.87 185.28 135.49 184.37 135.94 C 183.47 136.39 183.09 137.48 183.54 138.39 Z M 183.92 139.16 L 184.30 140.08 C 184.68 141.01 185.75 141.46 186.69 141.07 C 187.62 140.69 188.07 139.62 187.68 138.68 L 187.30 137.76 C 186.92 136.83 185.85 136.38 184.92 136.77 C 183.98 137.15 183.54 138.22 183.92 139.16 Z M 184.26 139.98 L 184.59 140.93 C 184.92 141.89 185.96 142.40 186.92 142.07 C 187.87 141.74 188.38 140.70 188.05 139.74 L 187.72 138.79 C 187.39 137.83 186.35 137.32 185.40 137.65 C 184.44 137.98 183.93 139.02 184.26 139.98 Z M 184.56 140.84 L 184.84 141.82 C 185.12 142.79 186.13 143.35 187.10 143.07 C 188.08 142.79 188.64 141.78 188.36 140.81 L 188.08 139.83 C 187.80 138.86 186.79 138.30 185.82 138.57 C 184.84 138.85 184.28 139.87 184.56 140.84 Z M 184.81 141.73 L 185.04 142.71 C 185.28 143.70 186.26 144.31 187.25 144.08 C 188.24 143.85 188.85 142.86 188.62 141.88 L 188.39 140.89 C 188.15 139.91 187.17 139.29 186.18 139.53 C 185.19 139.76 184.58 140.74 184.81 141.73 Z M 185.03 142.63 L 185.21 143.61 C 185.40 144.61 186.35 145.26 187.35 145.08 C 188.35 144.89 189.00 143.93 188.82 142.93 L 188.63 141.96 C 188.45 140.96 187.49 140.30 186.49 140.49 C 185.50 140.68 184.84 141.64 185.03 142.63 Z M 185.19 143.53 L 185.33 144.53 C 185.48 145.53 186.41 146.23 187.41 146.09 C 188.42 145.95 189.12 145.02 188.97 144.01 L 188.83 143.02 C 188.69 142.01 187.76 141.31 186.76 141.45 C 185.75 141.60 185.05 142.53 185.19 143.53 Z M 185.32 144.44 L 185.41 145.43 C 185.51 146.44 186.40 147.19 187.41 147.10 C 188.42 147.00 189.17 146.11 189.08 145.10 L 188.98 144.10 C 188.89 143.09 188.00 142.35 186.99 142.44 C 185.98 142.53 185.23 143.43 185.32 144.44 Z M 185.41 145.33 L 185.44 146.32 C 185.48 147.33 186.33 148.13 187.35 148.09 C 188.36 148.05 189.15 147.20 189.12 146.19 L 189.08 145.20 C 189.05 144.19 188.19 143.39 187.18 143.43 C 186.16 143.47 185.37 144.32 185.41 145.33 Z M 185.44 146.21 L 185.42 147.19 C 185.40 148.21 186.20 149.05 187.22 149.07 C 188.23 149.10 189.07 148.29 189.10 147.28 L 189.12 146.29 C 189.14 145.28 188.34 144.44 187.32 144.41 C 186.31 144.39 185.46 145.20 185.44 146.21 Z M 185.42 147.08 L 185.34 148.07 C 185.26 149.09 186.01 149.97 187.02 150.06 C 188.04 150.14 188.93 149.39 189.01 148.38 L 189.09 147.39 C 189.18 146.37 188.42 145.49 187.41 145.40 C 186.40 145.32 185.51 146.07 185.42 147.08 Z M 185.35 147.96 L 185.21 148.97 C 185.07 149.97 185.76 150.91 186.77 151.05 C 187.78 151.20 188.71 150.50 188.85 149.49 L 189.00 148.49 C 189.14 147.48 188.44 146.55 187.44 146.40 C 186.43 146.26 185.50 146.96 185.35 147.96 Z M 185.23 148.87 L 185.05 149.78 C 184.85 150.78 185.49 151.75 186.49 151.95 C 187.49 152.14 188.46 151.50 188.66 150.50 L 188.84 149.59 C 189.04 148.59 188.39 147.62 187.39 147.42 C 186.39 147.23 185.43 147.87 185.23 148.87 Z M 185.06 149.70 L 184.84 150.60 C 184.60 151.59 185.20 152.59 186.19 152.83 C 187.17 153.07 188.17 152.47 188.41 151.49 L 188.64 150.58 C 188.88 149.60 188.28 148.60 187.29 148.35 C 186.31 148.11 185.31 148.71 185.06 149.70 Z M 184.86 150.53 L 184.59 151.45 C 184.31 152.43 184.87 153.45 185.84 153.73 C 186.82 154.02 187.84 153.46 188.13 152.48 L 188.39 151.56 C 188.68 150.58 188.12 149.56 187.14 149.28 C 186.17 148.99 185.14 149.55 184.86 150.53 Z M 184.61 151.39 L 184.30 152.33 C 183.98 153.30 184.50 154.34 185.47 154.66 C 186.43 154.98 187.47 154.45 187.79 153.49 L 188.11 152.54 C 188.43 151.58 187.90 150.54 186.94 150.22 C 185.97 149.90 184.93 150.42 184.61 151.39 Z M 184.32 152.27 L 183.96 153.24 C 183.61 154.19 184.10 155.25 185.06 155.60 C 186.01 155.95 187.07 155.46 187.42 154.51 L 187.77 153.54 C 188.13 152.59 187.64 151.53 186.68 151.18 C 185.73 150.83 184.67 151.32 184.32 152.27 Z M 183.98 153.19 L 183.59 154.18 C 183.21 155.12 183.67 156.19 184.61 156.57 C 185.56 156.95 186.63 156.49 187.00 155.55 L 187.40 154.56 C 187.78 153.62 187.32 152.54 186.38 152.17 C 185.43 151.79 184.36 152.25 183.98 153.19 Z M 183.61 154.13 L 183.17 155.14 C 182.77 156.08 183.20 157.16 184.13 157.56 C 185.07 157.97 186.15 157.53 186.55 156.60 L 186.99 155.59 C 187.39 154.66 186.96 153.57 186.02 153.17 C 185.09 152.77 184.01 153.20 183.61 154.13 Z M 183.19 155.11 L 182.80 155.95 C 182.38 156.87 182.79 157.96 183.72 158.38 C 184.64 158.81 185.73 158.40 186.16 157.47 L 186.54 156.64 C 186.96 155.71 186.55 154.62 185.62 154.20 C 184.70 153.78 183.61 154.18 183.19 155.11 Z M 182.82 155.92 L 182.41 156.77 C 181.98 157.69 182.36 158.79 183.28 159.22 C 184.20 159.66 185.30 159.27 185.73 158.35 L 186.14 157.50 C 186.58 156.58 186.19 155.49 185.27 155.05 C 184.35 154.61 183.26 155.00 182.82 155.92 Z M 182.43 156.74 L 182.00 157.61 C 181.54 158.52 181.91 159.62 182.82 160.07 C 183.73 160.53 184.84 160.16 185.29 159.25 L 185.72 158.38 C 186.17 157.47 185.80 156.37 184.89 155.91 C 183.98 155.46 182.88 155.83 182.43 156.74 Z M 182.01 157.58 L 181.56 158.46 C 181.09 159.36 181.44 160.47 182.34 160.94 C 183.24 161.40 184.35 161.05 184.82 160.15 L 185.28 159.27 C 185.74 158.37 185.39 157.26 184.49 156.79 C 183.59 156.33 182.48 156.68 182.01 157.58 Z M 181.57 158.43 L 181.09 159.32 C 180.61 160.22 180.94 161.33 181.84 161.81 C 182.73 162.29 183.85 161.96 184.33 161.06 L 184.81 160.18 C 185.29 159.28 184.95 158.17 184.06 157.68 C 183.17 157.20 182.05 157.54 181.57 158.43 Z M 181.10 159.30 L 180.60 160.20 C 180.11 161.08 180.43 162.20 181.31 162.70 C 182.20 163.19 183.32 162.87 183.81 161.99 L 184.32 161.09 C 184.81 160.20 184.49 159.08 183.61 158.59 C 182.72 158.09 181.60 158.41 181.10 159.30 Z M 180.62 160.17 L 180.09 161.08 C 179.59 161.96 179.89 163.08 180.77 163.59 C 181.64 164.10 182.77 163.80 183.28 162.92 L 183.80 162.01 C 184.31 161.13 184.01 160.01 183.13 159.50 C 182.25 158.99 181.13 159.29 180.62 160.17 Z M 180.11 161.06 L 179.56 161.97 C 179.04 162.84 179.32 163.97 180.20 164.49 C 181.07 165.01 182.20 164.73 182.72 163.86 L 183.26 162.94 C 183.78 162.07 183.50 160.94 182.63 160.42 C 181.76 159.90 180.63 160.19 180.11 161.06 Z M 179.57 161.95 L 179.02 162.85 C 178.49 163.71 178.76 164.84 179.62 165.37 C 180.49 165.90 181.62 165.64 182.15 164.77 L 182.70 163.88 C 183.23 163.02 182.96 161.88 182.10 161.35 C 181.24 160.82 180.11 161.09 179.57 161.95 Z M 179.04 162.83 L 178.48 163.71 C 177.94 164.56 178.19 165.70 179.05 166.24 C 179.90 166.78 181.04 166.53 181.58 165.67 L 182.14 164.79 C 182.68 163.94 182.42 162.80 181.57 162.26 C 180.71 161.72 179.58 161.97 179.04 162.83 Z M 178.49 163.69 L 177.92 164.57 C 177.37 165.42 177.61 166.55 178.46 167.10 C 179.31 167.65 180.45 167.41 181.00 166.56 L 181.57 165.69 C 182.12 164.84 181.87 163.70 181.03 163.15 C 180.18 162.60 179.04 162.84 178.49 163.69 Z M 177.93 164.56 L 177.36 165.42 C 176.80 166.27 177.03 167.40 177.88 167.96 C 178.72 168.52 179.85 168.29 180.41 167.44 L 180.99 166.58 C 181.54 165.73 181.31 164.60 180.47 164.04 C 179.63 163.48 178.49 163.71 177.93 164.56 Z M 177.37 165.41 L 176.80 166.27 C 176.23 167.10 176.46 168.24 177.29 168.80 C 178.13 169.37 179.27 169.14 179.83 168.31 L 180.40 167.45 C 180.97 166.62 180.74 165.48 179.91 164.92 C 179.07 164.35 177.93 164.58 177.37 165.41 Z M 176.80 166.26 L 176.24 167.09 C 175.67 167.93 175.88 169.06 176.72 169.63 C 177.55 170.20 178.68 169.98 179.25 169.15 L 179.82 168.31 C 180.39 167.48 180.17 166.35 179.34 165.78 C 178.51 165.21 177.37 165.43 176.80 166.26 Z M 176.24 167.09 L 175.69 167.89 C 175.12 168.72 175.32 169.86 176.15 170.43 C 176.98 171.00 178.12 170.79 178.69 169.96 L 179.24 169.16 C 179.82 168.33 179.61 167.19 178.78 166.62 C 177.95 166.05 176.82 166.26 176.24 167.09 Z M 175.69 167.89 L 175.15 168.67 C 174.58 169.49 174.78 170.63 175.61 171.20 C 176.43 171.77 177.57 171.57 178.14 170.75 L 178.68 169.97 C 179.25 169.14 179.05 168.01 178.23 167.44 C 177.40 166.86 176.27 167.06 175.69 167.89 Z M 175.16 168.66 L 174.64 169.41 C 174.06 170.23 174.26 171.36 175.09 171.94 C 175.91 172.51 177.04 172.31 177.62 171.49 L 178.13 170.75 C 178.71 169.93 178.51 168.79 177.69 168.22 C 176.87 167.64 175.73 167.84 175.16 168.66 Z M 174.64 169.41 L 174.00 170.32 C 173.43 171.14 173.63 172.27 174.45 172.84 C 175.26 173.42 176.40 173.22 176.97 172.40 L 177.61 171.49 C 178.19 170.67 177.99 169.54 177.17 168.96 C 176.35 168.39 175.22 168.59 174.64 169.41 Z M 174.01 170.32 L 173.39 171.20 C 172.81 172.02 173.01 173.15 173.82 173.72 C 174.64 174.30 175.77 174.10 176.34 173.28 L 176.96 172.40 C 177.54 171.58 177.34 170.46 176.53 169.88 C 175.71 169.31 174.59 169.50 174.01 170.32 Z M 173.39 171.21 L 172.81 172.04 C 172.23 172.85 172.43 173.97 173.24 174.55 C 174.05 175.12 175.18 174.92 175.75 174.11 L 176.33 173.28 C 176.91 172.47 176.71 171.34 175.90 170.77 C 175.09 170.20 173.96 170.40 173.39 171.21 Z M 172.81 172.05 L 172.26 172.84 C 171.69 173.65 171.88 174.76 172.69 175.33 C 173.50 175.90 174.62 175.71 175.19 174.90 L 175.74 174.11 C 176.31 173.30 176.12 172.18 175.31 171.61 C 174.50 171.04 173.38 171.24 172.81 172.05 Z M 172.26 172.84 L 171.72 173.61 C 171.16 174.42 171.36 175.53 172.17 176.10 C 172.97 176.66 174.09 176.46 174.65 175.65 L 175.19 174.89 C 175.75 174.08 175.55 172.97 174.74 172.40 C 173.94 171.84 172.82 172.04 172.26 172.84 Z M 171.73 173.62 L 171.20 174.37 C 170.65 175.18 170.85 176.29 171.66 176.85 C 172.46 177.41 173.57 177.20 174.13 176.40 L 174.65 175.64 C 175.21 174.84 175.01 173.73 174.20 173.17 C 173.39 172.61 172.28 172.81 171.73 173.62 Z M 171.20 174.39 L 170.68 175.16 C 170.13 175.96 170.33 177.07 171.14 177.62 C 171.95 178.17 173.05 177.96 173.61 177.15 L 174.13 176.38 C 174.68 175.58 174.47 174.47 173.67 173.92 C 172.86 173.37 171.76 173.58 171.20 174.39 Z M 170.68 175.17 L 170.14 175.97 C 169.59 176.78 169.81 177.88 170.62 178.42 C 171.43 178.97 172.52 178.75 173.07 177.94 L 173.61 177.14 C 174.15 176.33 173.94 175.23 173.13 174.69 C 172.32 174.14 171.22 174.36 170.68 175.17 Z M 170.14 175.98 L 169.60 176.79 C 169.06 177.60 169.28 178.70 170.09 179.24 C 170.90 179.77 171.99 179.55 172.53 178.74 L 173.07 177.93 C 173.61 177.12 173.39 176.03 172.58 175.49 C 171.77 174.95 170.67 175.17 170.14 175.98 Z M 169.59 176.80 L 169.05 177.63 C 168.52 178.44 168.74 179.53 169.55 180.07 C 170.36 180.60 171.45 180.37 171.99 179.56 L 172.53 178.73 C 173.06 177.92 172.84 176.83 172.03 176.30 C 171.22 175.77 170.13 175.99 169.59 176.80 Z M 169.05 177.64 L 168.50 178.49 C 167.97 179.30 168.20 180.39 169.01 180.92 C 169.82 181.44 170.91 181.21 171.44 180.40 L 171.99 179.55 C 172.51 178.74 172.28 177.66 171.47 177.13 C 170.66 176.60 169.58 176.83 169.05 177.64 Z M 168.50 178.50 L 167.94 179.37 C 167.41 180.18 167.65 181.26 168.46 181.78 C 169.27 182.31 170.35 182.07 170.87 181.26 L 171.43 180.39 C 171.96 179.58 171.72 178.50 170.91 177.98 C 170.10 177.45 169.02 177.69 168.50 178.50 Z M 167.94 179.37 L 167.38 180.24 C 166.86 181.06 167.10 182.13 167.91 182.65 C 168.72 183.17 169.80 182.94 170.32 182.13 L 170.87 181.26 C 171.39 180.45 171.16 179.37 170.35 178.85 C 169.54 178.33 168.46 178.56 167.94 179.37 Z M 167.38 180.25 L 166.85 181.09 C 166.33 181.89 166.57 182.97 167.38 183.49 C 168.19 184.00 169.26 183.76 169.78 182.96 L 170.31 182.12 C 170.83 181.31 170.59 180.24 169.78 179.72 C 168.97 179.20 167.90 179.44 167.38 180.25 Z M 166.85 181.09 L 166.31 181.94 C 165.80 182.74 166.04 183.82 166.85 184.33 C 167.65 184.84 168.73 184.61 169.24 183.80 L 169.78 182.95 C 170.29 182.14 170.05 181.07 169.25 180.56 C 168.44 180.04 167.37 180.28 166.85 181.09 Z M 166.32 181.94 L 165.78 182.79 C 165.26 183.60 165.50 184.67 166.31 185.18 C 167.11 185.69 168.18 185.45 168.69 184.65 L 169.24 183.79 C 169.75 182.99 169.51 181.92 168.70 181.41 C 167.90 180.90 166.83 181.13 166.32 181.94 Z M 165.78 182.80 L 165.24 183.65 C 164.73 184.45 164.97 185.52 165.77 186.03 C 166.57 186.54 167.64 186.30 168.15 185.50 L 168.69 184.64 C 169.20 183.84 168.96 182.78 168.16 182.27 C 167.36 181.76 166.29 181.99 165.78 182.80 Z M 165.24 183.65 L 164.70 184.50 C 164.19 185.30 164.43 186.36 165.23 186.87 C 166.03 187.38 167.10 187.15 167.60 186.34 L 168.14 185.50 C 168.65 184.70 168.42 183.63 167.62 183.12 C 166.81 182.61 165.75 182.85 165.24 183.65 Z M 164.71 184.50 L 164.18 185.34 C 163.67 186.14 163.90 187.20 164.70 187.71 C 165.50 188.21 166.56 187.98 167.07 187.18 L 167.60 186.34 C 168.11 185.55 167.87 184.49 167.08 183.98 C 166.28 183.47 165.22 183.70 164.71 184.50 Z M 164.18 185.34 L 163.63 186.19 C 163.12 186.99 163.36 188.05 164.15 188.55 C 164.95 189.06 166.00 188.83 166.51 188.04 L 167.06 187.18 C 167.57 186.39 167.34 185.33 166.54 184.82 C 165.75 184.31 164.69 184.54 164.18 185.34 Z M 163.64 186.20 L 163.08 187.06 C 162.58 187.85 162.81 188.90 163.60 189.41 C 164.39 189.92 165.44 189.69 165.95 188.90 L 166.51 188.04 C 167.01 187.25 166.78 186.19 165.99 185.68 C 165.20 185.17 164.15 185.40 163.64 186.20 Z M 163.09 187.06 L 162.55 187.91 C 162.04 188.70 162.27 189.75 163.06 190.25 C 163.84 190.76 164.89 190.53 165.40 189.74 L 165.95 188.90 C 166.45 188.11 166.22 187.06 165.43 186.55 C 164.65 186.05 163.60 186.27 163.09 187.06 Z M 162.55 187.92 L 162.01 188.75 C 161.51 189.54 161.74 190.58 162.52 191.09 C 163.31 191.59 164.36 191.36 164.86 190.58 L 165.40 189.74 C 165.90 188.95 165.67 187.91 164.88 187.40 C 164.10 186.90 163.05 187.13 162.55 187.92 Z M 162.01 188.76 L 161.49 189.59 C 160.99 190.38 161.22 191.42 162.01 191.92 C 162.79 192.42 163.83 192.18 164.33 191.40 L 164.86 190.57 C 165.36 189.78 165.13 188.74 164.34 188.24 C 163.56 187.74 162.51 187.97 162.01 188.76 Z M 161.49 189.60 L 160.97 190.43 C 160.47 191.22 160.71 192.25 161.49 192.75 C 162.28 193.24 163.32 193.00 163.81 192.22 L 164.33 191.39 C 164.82 190.60 164.59 189.57 163.80 189.07 C 163.02 188.58 161.98 188.82 161.49 189.60 Z M 160.97 190.44 L 160.45 191.28 C 159.96 192.07 160.20 193.10 160.99 193.59 C 161.77 194.07 162.81 193.83 163.29 193.04 L 163.81 192.20 C 164.30 191.42 164.05 190.39 163.27 189.90 C 162.48 189.41 161.45 189.66 160.97 190.44 Z M 160.44 191.30 L 159.92 192.16 C 159.44 192.95 159.69 193.97 160.48 194.45 C 161.26 194.93 162.29 194.68 162.77 193.89 L 163.29 193.03 C 163.77 192.24 163.52 191.22 162.74 190.74 C 161.95 190.26 160.92 190.51 160.44 191.30 Z M 159.92 192.17 L 159.40 193.04 C 158.93 193.82 159.18 194.84 159.97 195.32 C 160.76 195.79 161.78 195.53 162.25 194.75 L 162.77 193.88 C 163.24 193.09 162.99 192.07 162.20 191.60 C 161.41 191.13 160.39 191.38 159.92 192.17 Z M 159.40 193.05 L 158.89 193.91 C 158.42 194.70 158.68 195.71 159.47 196.18 C 160.25 196.65 161.27 196.39 161.74 195.60 L 162.25 194.74 C 162.72 193.95 162.46 192.93 161.67 192.47 C 160.88 192.00 159.87 192.26 159.40 193.05 Z M 158.89 193.92 L 158.38 194.78 C 157.92 195.56 158.18 196.57 158.97 197.04 C 159.75 197.50 160.76 197.24 161.23 196.45 L 161.73 195.59 C 162.20 194.81 161.94 193.80 161.15 193.33 C 160.36 192.87 159.35 193.13 158.89 193.92 Z M 158.39 194.78 L 157.88 195.64 C 157.42 196.42 157.69 197.43 158.47 197.89 C 159.25 198.35 160.26 198.09 160.72 197.30 L 161.22 196.45 C 161.68 195.66 161.42 194.66 160.64 194.20 C 159.85 193.74 158.85 194.00 158.39 194.78 Z M 157.89 195.64 L 157.40 196.46 C 156.95 197.25 157.21 198.25 157.99 198.71 C 158.77 199.17 159.78 198.91 160.23 198.12 L 160.72 197.30 C 161.18 196.52 160.92 195.51 160.13 195.05 C 159.35 194.60 158.35 194.86 157.89 195.64 Z M 157.41 196.47 L 156.95 197.25 C 156.49 198.03 156.75 199.03 157.53 199.49 C 158.31 199.94 159.31 199.68 159.77 198.90 L 160.23 198.12 C 160.69 197.34 160.43 196.34 159.65 195.88 C 158.87 195.43 157.87 195.69 157.41 196.47 Z M 156.95 197.25 L 156.49 198.04 C 156.03 198.82 156.29 199.82 157.07 200.27 C 157.85 200.73 158.85 200.47 159.30 199.69 L 159.77 198.90 C 160.22 198.13 159.96 197.13 159.19 196.67 C 158.41 196.21 157.41 196.47 156.95 197.25 Z M 156.49 198.04 L 156.01 198.86 C 155.56 199.64 155.82 200.63 156.59 201.09 C 157.37 201.54 158.36 201.28 158.82 200.51 L 159.30 199.69 C 159.75 198.92 159.49 197.92 158.72 197.46 C 157.94 197.01 156.95 197.27 156.49 198.04 Z M 156.01 198.87 L 155.51 199.73 C 155.06 200.50 155.32 201.49 156.09 201.95 C 156.86 202.40 157.86 202.14 158.31 201.37 L 158.81 200.51 C 159.27 199.73 159.01 198.74 158.23 198.29 C 157.46 197.83 156.47 198.09 156.01 198.87 Z M 155.51 199.73 L 154.97 200.65 C 154.52 201.42 154.78 202.41 155.56 202.86 C 156.33 203.32 157.32 203.06 157.77 202.28 L 158.31 201.36 C 158.76 200.59 158.50 199.60 157.73 199.15 C 156.95 198.70 155.96 198.96 155.51 199.73 Z M 154.98 200.66 L 154.40 201.65 C 153.95 202.42 154.21 203.41 154.98 203.86 C 155.75 204.31 156.74 204.05 157.19 203.28 L 157.77 202.28 C 158.21 201.51 157.95 200.52 157.18 200.07 C 156.41 199.63 155.43 199.89 154.98 200.66 Z M 154.40 201.66 L 153.90 202.51 C 153.46 203.28 153.72 204.27 154.49 204.71 C 155.26 205.16 156.24 204.90 156.69 204.13 L 157.18 203.27 C 157.63 202.50 157.37 201.52 156.60 201.07 C 155.83 200.63 154.85 200.89 154.40 201.66 Z M 153.90 202.52 L 153.41 203.37 C 152.96 204.14 153.23 205.12 153.99 205.57 C 154.76 206.01 155.74 205.75 156.19 204.98 L 156.69 204.13 C 157.13 203.36 156.87 202.38 156.10 201.93 C 155.33 201.49 154.35 201.75 153.90 202.52 Z M 153.41 203.37 L 152.90 204.26 C 152.45 205.03 152.72 206.01 153.48 206.45 C 154.25 206.90 155.23 206.63 155.68 205.87 L 156.19 204.98 C 156.63 204.21 156.37 203.23 155.60 202.79 C 154.83 202.35 153.85 202.61 153.41 203.37 Z M 152.90 204.26 L 152.38 205.16 C 151.94 205.93 152.20 206.91 152.96 207.35 C 153.73 207.80 154.71 207.53 155.15 206.77 L 155.67 205.87 C 156.12 205.10 155.85 204.12 155.09 203.68 C 154.32 203.23 153.34 203.50 152.90 204.26 Z M 152.38 205.17 L 151.86 206.07 C 151.42 206.84 151.68 207.81 152.44 208.26 C 153.21 208.70 154.18 208.44 154.63 207.67 L 155.15 206.77 C 155.59 206.00 155.33 205.02 154.57 204.58 C 153.80 204.14 152.82 204.40 152.38 205.17 Z M 151.86 206.07 L 151.34 206.97 C 150.90 207.73 151.16 208.71 151.92 209.15 C 152.69 209.59 153.66 209.33 154.11 208.57 L 154.62 207.67 C 155.06 206.91 154.80 205.93 154.04 205.49 C 153.28 205.05 152.30 205.31 151.86 206.07 Z M 151.35 206.97 L 150.84 207.84 C 150.40 208.60 150.66 209.58 151.42 210.02 C 152.18 210.46 153.16 210.20 153.60 209.44 L 154.10 208.57 C 154.54 207.80 154.28 206.83 153.52 206.39 C 152.76 205.95 151.79 206.21 151.35 206.97 Z M 150.84 207.84 L 150.36 208.67 C 149.92 209.43 150.18 210.41 150.93 210.85 C 151.69 211.29 152.67 211.03 153.11 210.27 L 153.59 209.44 C 154.04 208.68 153.78 207.70 153.02 207.26 C 152.26 206.82 151.28 207.08 150.84 207.84 Z M 150.36 208.67 L 149.86 209.54 C 149.42 210.29 149.67 211.27 150.43 211.71 C 151.19 212.15 152.16 211.89 152.60 211.14 L 153.11 210.27 C 153.55 209.52 153.29 208.54 152.53 208.10 C 151.78 207.66 150.80 207.92 150.36 208.67 Z M 149.86 209.53 L 149.27 210.54 C 148.83 211.30 149.08 212.27 149.84 212.71 C 150.59 213.15 151.56 212.90 152.01 212.14 L 152.60 211.14 C 153.04 210.38 152.79 209.41 152.03 208.97 C 151.28 208.53 150.31 208.78 149.86 209.53 Z M 149.28 210.54 L 148.74 211.45 C 148.29 212.20 148.54 213.17 149.29 213.61 C 150.04 214.06 151.01 213.81 151.46 213.06 L 152.00 212.15 C 152.44 211.40 152.20 210.43 151.45 209.98 C 150.70 209.54 149.73 209.79 149.28 210.54 Z M 148.75 211.44 L 148.24 212.28 C 147.79 213.03 148.03 213.99 148.78 214.45 C 149.52 214.90 150.49 214.66 150.94 213.91 L 151.45 213.07 C 151.90 212.33 151.66 211.36 150.91 210.91 C 150.17 210.46 149.20 210.70 148.75 211.44 Z M 148.25 212.27 L 147.77 213.06 C 147.31 213.80 147.54 214.76 148.28 215.22 C 149.02 215.68 149.99 215.45 150.44 214.71 L 150.93 213.92 C 151.38 213.18 151.16 212.21 150.42 211.76 C 149.68 211.30 148.71 211.53 148.25 212.27 Z M 147.78 213.04 L 147.30 213.80 C 146.84 214.53 147.05 215.50 147.78 215.96 C 148.52 216.43 149.49 216.21 149.95 215.48 L 150.43 214.72 C 150.89 213.99 150.68 213.02 149.94 212.56 C 149.21 212.09 148.24 212.31 147.78 213.04 Z M 147.31 213.78 L 146.82 214.54 C 146.35 215.26 146.55 216.23 147.28 216.71 C 148.00 217.18 148.97 216.97 149.44 216.25 L 149.94 215.49 C 150.41 214.77 150.20 213.80 149.48 213.33 C 148.76 212.86 147.79 213.06 147.31 213.78 Z M 146.83 214.52 L 146.29 215.34 C 145.81 216.05 146.00 217.02 146.71 217.50 C 147.43 217.99 148.40 217.79 148.88 217.08 L 149.43 216.27 C 149.91 215.55 149.72 214.58 149.00 214.10 C 148.29 213.62 147.31 213.81 146.83 214.52 Z M 146.30 215.32 L 145.74 216.14 C 145.25 216.85 145.43 217.82 146.14 218.31 C 146.85 218.80 147.82 218.62 148.31 217.91 L 148.87 217.09 C 149.36 216.38 149.18 215.41 148.47 214.92 C 147.76 214.43 146.79 214.61 146.30 215.32 Z M 145.74 216.13 L 145.17 216.95 C 144.67 217.66 144.85 218.63 145.55 219.13 C 146.26 219.62 147.24 219.45 147.73 218.74 L 148.30 217.92 C 148.80 217.21 148.63 216.24 147.92 215.74 C 147.21 215.25 146.24 215.42 145.74 216.13 Z M 145.17 216.94 L 144.59 217.77 C 144.09 218.47 144.26 219.45 144.96 219.95 C 145.67 220.44 146.64 220.28 147.14 219.57 L 147.72 218.75 C 148.22 218.04 148.06 217.07 147.35 216.57 C 146.65 216.07 145.67 216.24 145.17 216.94 Z M 144.59 217.76 L 144.01 218.59 C 143.50 219.29 143.67 220.27 144.37 220.77 C 145.07 221.27 146.05 221.11 146.55 220.40 L 147.14 219.58 C 147.64 218.87 147.47 217.90 146.77 217.40 C 146.07 216.90 145.09 217.06 144.59 217.76 Z M 144.01 218.59 L 143.76 218.94 C 143.26 219.64 143.42 220.61 144.12 221.11 C 144.82 221.62 145.80 221.45 146.30 220.75 L 146.55 220.41 C 147.05 219.70 146.89 218.73 146.18 218.23 C 145.48 217.73 144.51 217.89 144.01 218.59 Z"
      fill="black"
      fill-rule="nonzero" /></svg>