<svg xmlns="http://www.w3.org/2000/svg" width="300" height="300" viewBox="0 0 300 300">
<path d="M 124.52 112.27 L 123.59 111.43 C 122.88 110.79 121.79 110.85 121.16 111.55 C 120.52 112.25 120.57 113.34 121.28 113.98 L 122.21 114.82 C 122.91 115.46 124.00 115.40 124.64 114.70 C 125.27 113.99 125.22 112.91 124.52 112.27 Z M 123.60 111.41 L 122.67 110.58 C 121.96 109.94 120.86 110.00 120.21 110.71 C 119.57 111.43 119.63 112.53 120.35 113.17 L 121.27 114.00 C 121.99 114.64 123.09 114.58 123.73 113.87 C 124.37 113.15 124.31 112.05 123.60 111.41 Z M 122.67 110.55 L 121.76 109.75 C 121.03 109.10 119.92 109.17 119.27 109.90 C 118.63 110.64 118.70 111.75 119.43 112.39 L 120.34 113.20 C 121.07 113.84 122.19 113.77 122.83 113.04 C 123.48 112.31 123.41 111.20 122.67 110.55 Z M 121.76 109.72 L 120.87 108.95 C 120.12 108.31 118.99 108.40 118.35 109.14 C 117.71 109.89 117.79 111.02 118.54 111.66 L 119.44 112.43 C 120.18 113.07 121.31 112.98 121.95 112.23 C 122.59 111.48 122.51 110.36 121.76 109.72 Z M 120.85 108.91 L 119.98 108.20 C 119.21 107.56 118.07 107.67 117.44 108.44 C 116.81 109.21 116.92 110.35 117.69 110.98 L 118.56 111.70 C 119.33 112.33 120.46 112.22 121.10 111.45 C 121.73 110.68 121.62 109.54 120.85 108.91 Z M 119.96 108.15 L 119.12 107.49 C 118.32 106.87 117.17 107.02 116.55 107.81 C 115.93 108.61 116.08 109.76 116.87 110.38 L 117.71 111.03 C 118.51 111.65 119.66 111.51 120.28 110.71 C 120.90 109.92 120.76 108.77 119.96 108.15 Z M 119.08 107.44 L 118.28 106.86 C 117.45 106.26 116.29 106.45 115.69 107.28 C 115.10 108.11 115.28 109.27 116.11 109.86 L 116.92 110.44 C 117.75 111.04 118.90 110.85 119.50 110.02 C 120.10 109.19 119.91 108.03 119.08 107.44 Z M 118.21 106.79 L 117.45 106.30 C 116.58 105.74 115.42 105.99 114.86 106.86 C 114.30 107.73 114.55 108.89 115.42 109.45 L 116.18 109.94 C 117.05 110.49 118.21 110.24 118.77 109.37 C 119.33 108.50 119.08 107.35 118.21 106.79 Z M 117.34 106.21 L 116.63 105.82 C 115.71 105.32 114.56 105.66 114.06 106.58 C 113.56 107.50 113.90 108.65 114.82 109.15 L 115.53 109.53 C 116.45 110.04 117.60 109.70 118.10 108.78 C 118.60 107.86 118.26 106.71 117.34 106.21 Z M 116.46 105.72 L 115.81 105.44 C 114.83 105.03 113.71 105.49 113.30 106.47 C 112.89 107.45 113.35 108.57 114.33 108.98 L 114.98 109.25 C 115.96 109.66 117.08 109.20 117.49 108.22 C 117.90 107.25 117.44 106.13 116.46 105.72 Z M 115.54 105.33 L 114.94 105.18 C 113.90 104.92 112.85 105.55 112.59 106.59 C 112.33 107.63 112.96 108.68 114.00 108.94 L 114.60 109.09 C 115.64 109.35 116.69 108.72 116.95 107.68 C 117.21 106.64 116.58 105.59 115.54 105.33 Z M 114.45 105.11 L 113.81 105.11 C 112.73 105.12 111.87 106.01 111.88 107.09 C 111.89 108.16 112.77 109.03 113.85 109.02 L 114.49 109.02 C 115.57 109.01 116.44 108.12 116.43 107.04 C 116.42 105.96 115.53 105.10 114.45 105.11 Z M 113.08 105.25 L 112.48 105.50 C 111.48 105.91 111.00 107.06 111.42 108.06 C 111.83 109.07 112.98 109.54 113.98 109.13 L 114.58 108.88 C 115.58 108.47 116.06 107.32 115.65 106.32 C 115.23 105.31 114.08 104.84 113.08 105.25 Z M 111.85 105.90 L 111.36 106.38 C 110.58 107.15 110.57 108.40 111.34 109.17 C 112.10 109.95 113.35 109.97 114.13 109.20 L 114.61 108.72 C 115.39 107.96 115.41 106.71 114.64 105.93 C 113.88 105.15 112.63 105.14 111.85 105.90 Z M 111.02 106.81 L 110.63 107.51 C 110.09 108.46 110.42 109.67 111.37 110.21 C 112.32 110.75 113.53 110.42 114.07 109.47 L 114.47 108.77 C 115.01 107.82 114.67 106.61 113.72 106.07 C 112.77 105.53 111.56 105.86 111.02 106.81 Z M 110.47 107.83 L 110.16 108.71 C 109.80 109.75 110.34 110.88 111.38 111.25 C 112.42 111.61 113.55 111.07 113.91 110.03 L 114.23 109.15 C 114.59 108.11 114.05 106.97 113.01 106.61 C 111.97 106.25 110.84 106.79 110.47 107.83 Z M 110.09 108.93 L 109.85 109.98 C 109.61 111.06 110.28 112.13 111.35 112.37 C 112.43 112.62 113.50 111.94 113.74 110.87 L 113.98 109.81 C 114.23 108.74 113.56 107.67 112.48 107.42 C 111.41 107.18 110.34 107.85 110.09 108.93 Z M 109.82 110.13 L 109.63 111.33 C 109.47 112.43 110.22 113.45 111.32 113.61 C 112.41 113.78 113.43 113.03 113.60 111.93 L 113.78 110.73 C 113.94 109.63 113.19 108.61 112.10 108.45 C 111.00 108.28 109.98 109.03 109.82 110.13 Z M 109.61 111.43 L 109.48 112.76 C 109.36 113.87 110.17 114.86 111.27 114.97 C 112.38 115.08 113.36 114.28 113.48 113.18 L 113.62 111.84 C 113.73 110.73 112.93 109.75 111.82 109.63 C 110.72 109.52 109.73 110.32 109.61 111.43 Z M 109.47 112.82 L 109.37 114.07 C 109.29 115.18 110.12 116.15 111.24 116.23 C 112.35 116.31 113.32 115.48 113.40 114.37 L 113.49 113.12 C 113.57 112.01 112.74 111.04 111.63 110.96 C 110.52 110.88 109.55 111.71 109.47 112.82 Z M 109.37 114.10 L 109.32 114.92 C 109.25 116.03 110.10 116.99 111.22 117.05 C 112.33 117.12 113.29 116.27 113.35 115.15 L 113.40 114.34 C 113.47 113.22 112.62 112.27 111.50 112.20 C 110.39 112.14 109.43 112.99 109.37 114.10 Z M 109.32 114.94 L 109.28 115.78 C 109.22 116.90 110.08 117.84 111.20 117.90 C 112.31 117.95 113.26 117.09 113.31 115.98 L 113.36 115.13 C 113.41 114.02 112.55 113.07 111.43 113.02 C 110.32 112.96 109.37 113.82 109.32 114.94 Z M 109.28 115.80 L 109.24 116.67 C 109.20 117.79 110.07 118.73 111.19 118.77 C 112.30 118.81 113.24 117.94 113.28 116.83 L 113.32 115.96 C 113.36 114.84 112.49 113.90 111.37 113.86 C 110.26 113.82 109.32 114.69 109.28 115.80 Z M 109.24 116.69 L 109.22 117.59 C 109.18 118.71 110.06 119.64 111.18 119.67 C 112.29 119.70 113.22 118.82 113.26 117.71 L 113.28 116.81 C 113.31 115.70 112.44 114.76 111.32 114.73 C 110.21 114.70 109.28 115.58 109.24 116.69 Z M 109.22 117.61 L 109.20 118.54 C 109.18 119.65 110.06 120.58 111.18 120.60 C 112.29 120.62 113.22 119.73 113.24 118.62 L 113.26 117.69 C 113.28 116.58 112.39 115.65 111.28 115.63 C 110.16 115.61 109.24 116.50 109.22 117.61 Z M 109.20 118.56 L 109.19 119.51 C 109.18 120.62 110.07 121.54 111.19 121.55 C 112.30 121.56 113.22 120.67 113.23 119.55 L 113.24 118.60 C 113.25 117.48 112.36 116.57 111.24 116.56 C 110.12 116.54 109.21 117.44 109.20 118.56 Z M 109.19 119.53 L 109.19 120.50 C 109.18 121.62 110.09 122.53 111.20 122.53 C 112.32 122.53 113.22 121.63 113.23 120.51 L 113.23 119.53 C 113.23 118.42 112.33 117.51 111.21 117.51 C 110.10 117.51 109.19 118.41 109.19 119.53 Z M 109.19 120.52 L 109.19 121.52 C 109.20 122.64 110.11 123.54 111.22 123.53 C 112.34 123.53 113.24 122.62 113.23 121.50 L 113.23 120.50 C 113.22 119.38 112.31 118.48 111.19 118.49 C 110.08 118.49 109.18 119.40 109.19 120.52 Z M 109.19 121.54 L 109.21 122.57 C 109.22 123.69 110.14 124.58 111.26 124.56 C 112.37 124.55 113.26 123.63 113.25 122.51 L 113.23 121.48 C 113.22 120.37 112.30 119.48 111.18 119.49 C 110.07 119.51 109.18 120.43 109.19 121.54 Z M 109.21 122.59 L 109.23 123.64 C 109.26 124.76 110.18 125.64 111.30 125.62 C 112.41 125.59 113.30 124.67 113.27 123.55 L 113.25 122.50 C 113.22 121.38 112.30 120.50 111.18 120.52 C 110.07 120.55 109.18 121.47 109.21 122.59 Z M 109.23 123.66 L 109.26 124.74 C 109.30 125.85 110.23 126.73 111.34 126.70 C 112.46 126.67 113.34 125.73 113.30 124.62 L 113.27 123.54 C 113.24 122.42 112.31 121.55 111.19 121.58 C 110.07 121.61 109.20 122.54 109.23 123.66 Z M 109.26 124.75 L 109.30 125.86 C 109.35 126.97 110.28 127.84 111.40 127.80 C 112.51 127.76 113.38 126.82 113.34 125.71 L 113.30 124.60 C 113.26 123.49 112.32 122.62 111.21 122.66 C 110.09 122.70 109.22 123.64 109.26 124.75 Z M 109.31 125.87 L 109.36 127.00 C 109.41 128.12 110.35 128.98 111.46 128.93 C 112.58 128.88 113.44 127.94 113.39 126.82 L 113.34 125.69 C 113.29 124.58 112.35 123.72 111.23 123.77 C 110.12 123.82 109.26 124.76 109.31 125.87 Z M 109.36 127.02 L 109.42 128.17 C 109.47 129.29 110.42 130.14 111.54 130.09 C 112.65 130.03 113.51 129.08 113.45 127.96 L 113.39 126.81 C 113.33 125.70 112.38 124.84 111.27 124.90 C 110.16 124.95 109.30 125.90 109.36 127.02 Z M 109.42 128.19 L 109.49 129.37 C 109.55 130.48 110.51 131.33 111.62 131.26 C 112.74 131.20 113.59 130.24 113.52 129.13 L 113.45 127.95 C 113.39 126.84 112.43 125.99 111.32 126.05 C 110.20 126.12 109.35 127.07 109.42 128.19 Z M 109.49 129.38 L 109.56 130.42 C 109.63 131.53 110.59 132.38 111.70 132.30 C 112.82 132.23 113.66 131.27 113.59 130.16 L 113.52 129.12 C 113.45 128.00 112.49 127.16 111.37 127.23 C 110.26 127.30 109.42 128.27 109.49 129.38 Z M 109.56 130.43 L 109.63 131.47 C 109.71 132.58 110.67 133.42 111.79 133.34 C 112.90 133.26 113.74 132.30 113.66 131.18 L 113.59 130.15 C 113.51 129.03 112.54 128.20 111.43 128.27 C 110.32 128.35 109.48 129.32 109.56 130.43 Z M 109.63 131.48 L 109.71 132.53 C 109.80 133.64 110.76 134.47 111.88 134.39 C 112.99 134.30 113.82 133.34 113.74 132.22 L 113.66 131.17 C 113.57 130.06 112.60 129.23 111.49 129.31 C 110.38 129.40 109.55 130.37 109.63 131.48 Z M 109.71 132.54 L 109.80 133.59 C 109.89 134.70 110.86 135.53 111.97 135.44 C 113.08 135.36 113.91 134.38 113.82 133.27 L 113.73 132.22 C 113.65 131.11 112.67 130.28 111.56 130.36 C 110.45 130.45 109.62 131.43 109.71 132.54 Z M 109.80 133.60 L 109.89 134.66 C 109.98 135.77 110.95 136.60 112.06 136.50 C 113.17 136.41 114.00 135.44 113.91 134.33 L 113.82 133.27 C 113.72 132.16 112.75 131.33 111.64 131.42 C 110.53 131.52 109.71 132.49 109.80 133.60 Z M 109.89 134.67 L 109.98 135.73 C 110.08 136.84 111.05 137.66 112.16 137.56 C 113.27 137.47 114.09 136.49 114.00 135.38 L 113.90 134.32 C 113.81 133.21 112.83 132.39 111.72 132.49 C 110.61 132.58 109.79 133.56 109.89 134.67 Z M 109.98 135.74 L 110.08 136.80 C 110.18 137.91 111.15 138.72 112.26 138.62 C 113.37 138.53 114.19 137.55 114.09 136.44 L 113.99 135.38 C 113.90 134.27 112.92 133.45 111.81 133.55 C 110.70 133.65 109.88 134.63 109.98 135.74 Z M 110.08 136.80 L 110.17 137.86 C 110.28 138.96 111.26 139.78 112.36 139.68 C 113.47 139.58 114.29 138.60 114.18 137.49 L 114.09 136.43 C 113.99 135.33 113.01 134.51 111.90 134.61 C 110.79 134.71 109.98 135.69 110.08 136.80 Z M 110.18 137.86 L 110.27 138.91 C 110.38 140.01 111.36 140.83 112.47 140.72 C 113.57 140.62 114.38 139.64 114.28 138.53 L 114.18 137.49 C 114.08 136.38 113.10 135.57 111.99 135.67 C 110.89 135.77 110.07 136.75 110.18 137.86 Z M 110.28 138.91 L 110.37 139.95 C 110.48 141.05 111.46 141.86 112.57 141.76 C 113.67 141.65 114.48 140.67 114.38 139.57 L 114.28 138.53 C 114.17 137.42 113.19 136.61 112.09 136.72 C 110.98 136.82 110.17 137.81 110.28 138.91 Z M 110.38 139.95 L 110.47 140.97 C 110.58 142.07 111.56 142.88 112.67 142.78 C 113.77 142.67 114.58 141.69 114.48 140.58 L 114.38 139.56 C 114.27 138.46 113.29 137.65 112.18 137.76 C 111.08 137.86 110.27 138.84 110.38 139.95 Z M 110.48 140.97 L 110.57 141.97 C 110.68 143.08 111.66 143.89 112.77 143.78 C 113.87 143.67 114.68 142.69 114.57 141.58 L 114.47 140.58 C 114.37 139.48 113.38 138.67 112.28 138.78 C 111.18 138.88 110.37 139.87 110.48 140.97 Z M 110.57 141.97 L 110.67 142.95 C 110.78 144.06 111.76 144.87 112.86 144.76 C 113.97 144.65 114.78 143.67 114.67 142.56 L 114.57 141.58 C 114.46 140.48 113.48 139.67 112.38 139.78 C 111.27 139.89 110.47 140.87 110.57 141.97 Z M 110.67 142.95 L 110.76 143.91 C 110.87 145.01 111.85 145.82 112.96 145.71 C 114.06 145.60 114.87 144.62 114.76 143.52 L 114.67 142.56 C 114.56 141.46 113.58 140.65 112.47 140.76 C 111.37 140.87 110.56 141.85 110.67 142.95 Z M 110.77 143.91 L 110.86 144.84 C 110.96 145.94 111.95 146.75 113.05 146.64 C 114.15 146.53 114.96 145.55 114.85 144.45 L 114.76 143.52 C 114.65 142.42 113.67 141.61 112.57 141.72 C 111.46 141.82 110.66 142.81 110.77 143.91 Z M 110.86 144.83 L 110.94 145.73 C 111.05 146.83 112.03 147.64 113.13 147.53 C 114.24 147.43 115.04 146.45 114.94 145.34 L 114.85 144.45 C 114.74 143.35 113.76 142.54 112.66 142.65 C 111.56 142.75 110.75 143.73 110.86 144.83 Z M 110.94 145.73 L 111.03 146.59 C 111.13 147.69 112.11 148.50 113.21 148.39 C 114.31 148.29 115.12 147.31 115.02 146.21 L 114.93 145.35 C 114.83 144.24 113.85 143.44 112.75 143.54 C 111.65 143.65 110.84 144.63 110.94 145.73 Z M 111.03 146.58 L 111.10 147.41 C 111.21 148.51 112.18 149.32 113.29 149.22 C 114.39 149.11 115.20 148.14 115.09 147.03 L 115.02 146.21 C 114.91 145.11 113.94 144.30 112.84 144.40 C 111.73 144.51 110.92 145.48 111.03 146.58 Z M 111.11 147.40 L 111.22 148.71 C 111.32 149.81 112.30 150.62 113.40 150.52 C 114.50 150.42 115.31 149.45 115.21 148.35 L 115.09 147.04 C 114.99 145.94 114.02 145.13 112.92 145.23 C 111.82 145.33 111.01 146.30 111.11 147.40 Z M 111.23 148.70 L 111.34 149.97 C 111.43 151.07 112.40 151.88 113.49 151.79 C 114.59 151.70 115.40 150.73 115.31 149.63 L 115.20 148.36 C 115.11 147.26 114.15 146.45 113.05 146.54 C 111.95 146.63 111.14 147.60 111.23 148.70 Z M 111.34 149.96 L 111.43 151.12 C 111.52 152.21 112.48 153.03 113.57 152.95 C 114.67 152.86 115.48 151.90 115.40 150.81 L 115.31 149.65 C 115.22 148.55 114.26 147.73 113.17 147.82 C 112.07 147.91 111.26 148.86 111.34 149.96 Z M 111.44 151.11 L 111.52 152.17 C 111.60 153.26 112.54 154.09 113.64 154.01 C 114.73 153.93 115.55 152.98 115.47 151.89 L 115.39 150.82 C 115.31 149.73 114.36 148.91 113.27 148.99 C 112.18 149.07 111.36 150.02 111.44 151.11 Z M 111.52 152.16 L 111.59 153.14 C 111.66 154.23 112.60 155.06 113.69 154.98 C 114.77 154.91 115.60 153.97 115.53 152.89 L 115.46 151.90 C 115.39 150.81 114.45 149.99 113.36 150.06 C 112.28 150.13 111.45 151.07 111.52 152.16 Z M 111.59 153.13 L 111.65 154.05 C 111.71 155.13 112.64 155.96 113.73 155.89 C 114.81 155.83 115.64 154.90 115.58 153.81 L 115.52 152.90 C 115.46 151.81 114.52 150.99 113.44 151.05 C 112.36 151.12 111.53 152.05 111.59 153.13 Z M 111.65 154.04 L 111.70 154.90 C 111.76 155.98 112.68 156.81 113.76 156.75 C 114.84 156.69 115.67 155.77 115.62 154.69 L 115.57 153.82 C 115.51 152.74 114.59 151.91 113.51 151.97 C 112.43 152.03 111.60 152.95 111.65 154.04 Z M 111.71 154.89 L 111.75 155.71 C 111.80 156.78 112.72 157.62 113.79 157.56 C 114.87 157.51 115.70 156.59 115.65 155.52 L 115.61 154.70 C 115.56 153.62 114.64 152.79 113.56 152.84 C 112.49 152.89 111.65 153.81 111.71 154.89 Z M 111.75 155.70 L 111.79 156.49 C 111.84 157.57 112.75 158.40 113.82 158.35 C 114.90 158.30 115.73 157.39 115.68 156.32 L 115.64 155.52 C 115.60 154.45 114.68 153.62 113.61 153.67 C 112.54 153.71 111.70 154.62 111.75 155.70 Z M 111.80 156.49 L 111.83 157.27 C 111.88 158.34 112.78 159.17 113.85 159.13 C 114.92 159.08 115.75 158.18 115.71 157.11 L 115.67 156.32 C 115.63 155.25 114.72 154.42 113.65 154.47 C 112.58 154.51 111.75 155.42 111.80 156.49 Z M 111.83 157.27 L 111.88 158.23 C 111.92 159.30 112.82 160.12 113.89 160.08 C 114.96 160.03 115.79 159.13 115.74 158.06 L 115.70 157.11 C 115.66 156.04 114.75 155.21 113.69 155.26 C 112.62 155.30 111.79 156.20 111.83 157.27 Z M 111.88 158.23 L 111.92 159.21 C 111.96 160.27 112.86 161.10 113.93 161.06 C 114.99 161.01 115.82 160.11 115.78 159.05 L 115.74 158.07 C 115.69 157.00 114.79 156.17 113.73 156.22 C 112.66 156.26 111.83 157.16 111.88 158.23 Z M 111.92 159.20 L 111.96 160.19 C 112.01 161.25 112.90 162.08 113.97 162.04 C 115.03 162.00 115.86 161.10 115.81 160.04 L 115.77 159.05 C 115.73 157.99 114.84 157.16 113.77 157.20 C 112.71 157.24 111.88 158.14 111.92 159.20 Z M 111.97 160.18 L 112.00 161.18 C 112.04 162.24 112.94 163.07 114.00 163.03 C 115.06 162.99 115.89 162.09 115.85 161.03 L 115.81 160.04 C 115.77 158.98 114.88 158.15 113.82 158.19 C 112.75 158.23 111.93 159.12 111.97 160.18 Z M 112.01 161.17 L 112.04 162.17 C 112.08 163.23 112.97 164.06 114.03 164.02 C 115.09 163.99 115.92 163.10 115.88 162.04 L 115.84 161.04 C 115.81 159.98 114.92 159.15 113.86 159.19 C 112.80 159.22 111.97 160.11 112.01 161.17 Z M 112.05 162.17 L 112.08 163.18 C 112.11 164.23 113.00 165.06 114.05 165.03 C 115.11 165.00 115.94 164.11 115.91 163.06 L 115.87 162.05 C 115.84 160.99 114.96 160.16 113.90 160.19 C 112.84 160.23 112.01 161.11 112.05 162.17 Z M 112.08 163.17 L 112.11 164.19 C 112.14 165.24 113.02 166.07 114.07 166.04 C 115.13 166.01 115.96 165.14 115.93 164.08 L 115.90 163.06 C 115.87 162.01 115.00 161.18 113.94 161.21 C 112.89 161.23 112.05 162.11 112.08 163.17 Z M 112.11 164.18 L 112.14 165.21 C 112.16 166.26 113.04 167.09 114.09 167.07 C 115.14 167.04 115.97 166.17 115.95 165.12 L 115.93 164.09 C 115.90 163.04 115.03 162.20 113.98 162.23 C 112.92 162.25 112.09 163.13 112.11 164.18 Z M 112.14 165.20 L 112.16 166.17 C 112.18 167.22 113.05 168.06 114.10 168.04 C 115.15 168.02 115.98 167.16 115.96 166.10 L 115.95 165.13 C 115.93 164.08 115.06 163.24 114.01 163.26 C 112.96 163.28 112.12 164.15 112.14 165.20 Z M 112.16 166.17 L 112.18 167.15 C 112.19 168.19 113.05 169.03 114.10 169.02 C 115.15 169.00 115.99 168.14 115.97 167.09 L 115.96 166.11 C 115.95 165.06 115.08 164.23 114.04 164.24 C 112.99 164.26 112.15 165.12 112.16 166.17 Z M 112.18 167.14 L 112.19 168.13 C 112.20 169.17 113.06 170.01 114.10 170.00 C 115.15 169.99 115.99 169.13 115.98 168.09 L 115.97 167.10 C 115.96 166.05 115.10 165.21 114.06 165.23 C 113.01 165.24 112.17 166.09 112.18 167.14 Z M 112.20 168.12 L 112.20 169.12 C 112.21 170.16 113.06 171.00 114.11 170.99 C 115.15 170.98 115.99 170.13 115.98 169.09 L 115.98 168.09 C 115.97 167.05 115.12 166.21 114.07 166.22 C 113.03 166.22 112.19 167.08 112.20 168.12 Z M 112.21 169.11 L 112.21 170.11 C 112.22 171.15 113.06 172.00 114.11 171.99 C 115.15 171.99 115.99 171.14 115.98 170.10 L 115.98 169.09 C 115.97 168.05 115.13 167.21 114.08 167.22 C 113.04 167.22 112.20 168.07 112.21 169.11 Z M 112.22 170.11 L 112.22 171.12 C 112.22 172.16 113.07 173.00 114.10 172.99 C 115.14 172.99 115.98 172.15 115.98 171.11 L 115.98 170.10 C 115.98 169.06 115.13 168.22 114.09 168.22 C 113.05 168.23 112.21 169.07 112.22 170.11 Z M 112.22 171.12 L 112.22 172.13 C 112.23 173.17 113.07 174.01 114.10 174.01 C 115.14 174.00 115.98 173.16 115.98 172.13 L 115.98 171.11 C 115.98 170.08 115.13 169.24 114.10 169.24 C 113.06 169.24 112.22 170.08 112.22 171.12 Z M 112.23 172.13 L 112.23 173.15 C 112.23 174.18 113.07 175.02 114.10 175.02 C 115.14 175.02 115.97 174.18 115.97 173.15 L 115.97 172.13 C 115.97 171.09 115.13 170.26 114.10 170.26 C 113.07 170.26 112.23 171.10 112.23 172.13 Z M 112.23 173.15 L 112.23 174.15 C 112.23 175.18 113.07 176.02 114.10 176.02 C 115.13 176.02 115.97 175.18 115.97 174.15 L 115.97 173.15 C 115.97 172.12 115.13 171.28 114.10 171.28 C 113.07 171.28 112.23 172.12 112.23 173.15 Z M 112.24 174.15 L 112.24 175.12 C 112.24 176.15 113.07 176.98 114.10 176.98 C 115.13 176.98 115.96 176.15 115.96 175.12 L 115.96 174.15 C 115.96 173.12 115.13 172.29 114.10 172.29 C 113.07 172.29 112.24 173.12 112.24 174.15 Z M 112.24 175.12 L 112.24 176.09 C 112.24 177.12 113.08 177.95 114.10 177.95 C 115.13 177.95 115.96 177.12 115.96 176.09 L 115.96 175.12 C 115.96 174.09 115.13 173.26 114.10 173.26 C 113.08 173.26 112.24 174.09 112.24 175.12 Z M 112.25 176.09 L 112.25 177.07 C 112.25 178.10 113.08 178.93 114.10 178.93 C 115.13 178.93 115.95 178.10 115.95 177.07 L 115.95 176.09 C 115.95 175.07 115.13 174.24 114.10 174.24 C 113.08 174.24 112.25 175.07 112.25 176.09 Z M 112.25 177.07 L 112.25 178.06 C 112.25 179.08 113.08 179.91 114.10 179.91 C 115.12 179.91 115.95 179.08 115.95 178.06 L 115.95 177.07 C 115.95 176.05 115.12 175.22 114.10 175.22 C 113.08 175.22 112.25 176.05 112.25 177.07 Z M 112.26 178.06 L 112.26 179.06 C 112.26 180.08 113.08 180.90 114.10 180.90 C 115.12 180.90 115.94 180.08 115.94 179.06 L 115.94 178.06 C 115.94 177.04 115.12 176.22 114.10 176.22 C 113.08 176.22 112.26 177.04 112.26 178.06 Z M 112.26 179.06 L 112.26 180.07 C 112.26 181.09 113.09 181.91 114.10 181.91 C 115.12 181.91 115.94 181.09 115.94 180.07 L 115.94 179.06 C 115.94 178.05 115.12 177.22 114.10 177.22 C 113.09 177.22 112.26 178.05 112.26 179.06 Z M 112.27 180.07 L 112.27 181.09 C 112.27 182.11 113.09 182.93 114.10 182.93 C 115.11 182.93 115.93 182.11 115.93 181.09 L 115.93 180.07 C 115.93 179.06 115.11 178.24 114.10 178.24 C 113.09 178.24 112.27 179.06 112.27 180.07 Z M 112.27 181.09 L 112.27 182.13 C 112.27 183.14 113.09 183.96 114.10 183.96 C 115.11 183.96 115.93 183.14 115.93 182.13 L 115.93 181.09 C 115.93 180.08 115.11 179.26 114.10 179.26 C 113.09 179.26 112.27 180.08 112.27 181.09 Z M 112.28 182.13 L 112.28 183.16 C 112.28 184.17 113.09 184.98 114.10 184.98 C 115.11 184.98 115.92 184.17 115.92 183.16 L 115.92 182.13 C 115.92 181.12 115.11 180.31 114.10 180.31 C 113.09 180.31 112.28 181.12 112.28 182.13 Z M 112.28 183.16 L 112.28 184.15 C 112.28 185.15 113.10 185.96 114.10 185.96 C 115.11 185.96 115.92 185.15 115.92 184.15 L 115.92 183.16 C 115.92 182.15 115.11 181.34 114.10 181.34 C 113.10 181.34 112.28 182.15 112.28 183.16 Z M 112.29 184.15 L 112.29 185.14 C 112.29 186.14 113.10 186.96 114.10 186.96 C 115.10 186.96 115.91 186.14 115.91 185.14 L 115.91 184.15 C 115.91 183.14 115.10 182.33 114.10 182.33 C 113.10 182.33 112.29 183.14 112.29 184.15 Z M 112.29 185.14 L 112.29 186.15 C 112.29 187.15 113.10 187.96 114.10 187.96 C 115.10 187.96 115.91 187.15 115.91 186.15 L 115.91 185.14 C 115.91 184.14 115.10 183.34 114.10 183.34 C 113.10 183.34 112.29 184.14 112.29 185.14 Z M 112.30 186.15 L 112.30 187.16 C 112.30 188.15 113.11 188.96 114.10 188.96 C 115.10 188.96 115.90 188.15 115.90 187.16 L 115.90 186.15 C 115.90 185.15 115.10 184.35 114.10 184.35 C 113.11 184.35 112.30 185.15 112.30 186.15 Z M 112.30 187.16 L 112.30 188.17 C 112.30 189.16 113.11 189.97 114.10 189.97 C 115.09 189.97 115.90 189.16 115.90 188.17 L 115.90 187.16 C 115.90 186.16 115.09 185.36 114.10 185.36 C 113.11 185.36 112.30 186.16 112.30 187.16 Z M 112.31 188.17 L 112.31 189.18 C 112.31 190.17 113.11 190.97 114.10 190.97 C 115.09 190.97 115.89 190.17 115.89 189.18 L 115.89 188.17 C 115.89 187.18 115.09 186.38 114.10 186.38 C 113.11 186.38 112.31 187.18 112.31 188.17 Z M 112.31 189.18 L 112.31 190.18 C 112.31 191.17 113.11 191.97 114.10 191.97 C 115.09 191.97 115.89 191.17 115.89 190.18 L 115.89 189.18 C 115.89 188.19 115.09 187.39 114.10 187.39 C 113.11 187.39 112.31 188.19 112.31 189.18 Z M 112.32 190.18 L 112.32 191.18 C 112.32 192.17 113.12 192.97 114.10 192.97 C 115.09 192.97 115.88 192.17 115.88 191.18 L 115.88 190.18 C 115.88 189.20 115.09 188.40 114.10 188.40 C 113.12 188.40 112.32 189.20 112.32 190.18 Z M 112.32 191.18 L 112.32 192.17 C 112.32 193.16 113.12 193.95 114.10 193.95 C 115.08 193.95 115.88 193.16 115.88 192.17 L 115.88 191.18 C 115.88 190.20 115.08 189.41 114.10 189.41 C 113.12 189.41 112.32 190.20 112.32 191.18 Z M 112.33 192.17 L 112.33 193.19 C 112.33 194.17 113.12 194.96 114.10 194.96 C 115.08 194.96 115.87 194.17 115.87 193.19 L 115.87 192.17 C 115.87 191.20 115.08 190.40 114.10 190.40 C 113.12 190.40 112.33 191.20 112.33 192.17 Z M 112.34 193.19 L 112.34 194.23 C 112.34 195.20 113.13 195.99 114.10 195.99 C 115.08 195.99 115.87 195.20 115.87 194.23 L 115.87 193.19 C 115.87 192.21 115.08 191.42 114.10 191.42 C 113.13 191.42 112.34 192.21 112.34 193.19 Z M 112.34 194.23 L 112.34 195.25 C 112.34 196.23 113.13 197.01 114.10 197.01 C 115.07 197.01 115.86 196.23 115.86 195.25 L 115.86 194.23 C 115.86 193.26 115.07 192.47 114.10 192.47 C 113.13 192.47 112.34 193.26 112.34 194.23 Z M 112.35 195.25 L 112.35 196.27 C 112.35 197.24 113.13 198.02 114.10 198.02 C 115.07 198.02 115.86 197.24 115.86 196.27 L 115.86 195.25 C 115.86 194.28 115.07 193.50 114.10 193.50 C 113.13 193.50 112.35 194.28 112.35 195.25 Z M 112.35 196.27 L 112.35 197.27 C 112.35 198.23 113.14 199.02 114.10 199.02 C 115.07 199.02 115.85 198.23 115.85 197.27 L 115.85 196.27 C 115.85 195.30 115.07 194.52 114.10 194.52 C 113.14 194.52 112.35 195.30 112.35 196.27 Z M 112.36 197.27 L 112.36 198.26 C 112.36 199.22 113.14 200.00 114.10 200.00 C 115.06 200.00 115.85 199.22 115.85 198.26 L 115.85 197.27 C 115.85 196.31 115.06 195.52 114.10 195.52 C 113.14 195.52 112.36 196.31 112.36 197.27 Z M 112.36 198.26 L 112.36 199.24 C 112.36 200.20 113.14 200.98 114.10 200.98 C 115.06 200.98 115.84 200.20 115.84 199.24 L 115.84 198.26 C 115.84 197.30 115.06 196.52 114.10 196.52 C 113.14 196.52 112.36 197.30 112.36 198.26 Z M 112.37 199.24 L 112.37 200.22 C 112.37 201.17 113.14 201.95 114.10 201.95 C 115.06 201.95 115.83 201.17 115.83 200.22 L 115.83 199.24 C 115.83 198.29 115.06 197.51 114.10 197.51 C 113.14 197.51 112.37 198.29 112.37 199.24 Z M 112.37 200.22 L 112.37 201.19 C 112.37 202.14 113.15 202.91 114.10 202.91 C 115.06 202.91 115.83 202.14 115.83 201.19 L 115.83 200.22 C 115.83 199.26 115.06 198.49 114.10 198.49 C 113.15 198.49 112.37 199.26 112.37 200.22 Z M 112.38 201.19 L 112.38 202.17 C 112.38 203.12 113.15 203.89 114.10 203.89 C 115.05 203.89 115.82 203.12 115.82 202.17 L 115.82 201.19 C 115.82 200.24 115.05 199.47 114.10 199.47 C 113.15 199.47 112.38 200.24 112.38 201.19 Z M 112.39 202.17 L 112.39 203.19 C 112.39 204.14 113.15 204.91 114.10 204.91 C 115.05 204.91 115.82 204.14 115.82 203.20 L 115.82 202.17 C 115.82 201.23 115.05 200.46 114.10 200.46 C 113.15 200.46 112.39 201.23 112.39 202.17 Z M 112.39 203.19 L 112.39 204.21 C 112.39 205.15 113.15 205.92 114.10 205.92 C 115.04 205.92 115.81 205.16 115.81 204.21 L 115.81 203.20 C 115.81 202.25 115.05 201.49 114.10 201.49 C 113.16 201.48 112.39 202.25 112.39 203.19 Z M 112.40 204.21 L 112.39 205.22 C 112.39 206.16 113.15 206.92 114.09 206.93 C 115.04 206.93 115.80 206.17 115.80 205.23 L 115.80 204.22 C 115.81 203.27 115.05 202.51 114.10 202.51 C 113.16 202.51 112.40 203.27 112.40 204.21 Z M 112.40 205.22 L 112.40 206.22 C 112.39 207.16 113.15 207.92 114.09 207.93 C 115.03 207.93 115.79 207.17 115.79 206.23 L 115.80 205.23 C 115.80 204.29 115.04 203.53 114.10 203.52 C 113.17 203.52 112.40 204.28 112.40 205.22 Z M 112.40 206.22 L 112.39 207.21 C 112.39 208.15 113.14 208.91 114.08 208.92 C 115.01 208.92 115.77 208.17 115.78 207.23 L 115.79 206.24 C 115.79 205.30 115.04 204.54 114.10 204.53 C 113.17 204.53 112.41 205.28 112.40 206.22 Z M 112.40 207.21 L 112.39 208.20 C 112.38 209.13 113.13 209.89 114.06 209.90 C 114.99 209.91 115.76 209.16 115.77 208.23 L 115.78 207.24 C 115.78 206.31 115.04 205.54 114.10 205.54 C 113.17 205.53 112.41 206.28 112.40 207.21 Z M 112.40 208.19 L 112.38 209.17 C 112.37 210.10 113.12 210.87 114.04 210.88 C 114.97 210.89 115.74 210.15 115.75 209.22 L 115.76 208.24 C 115.77 207.31 115.03 206.54 114.10 206.53 C 113.17 206.52 112.41 207.26 112.40 208.19 Z M 112.39 209.17 L 112.37 210.14 C 112.36 211.07 113.10 211.83 114.02 211.85 C 114.95 211.86 115.71 211.12 115.73 210.20 L 115.74 209.22 C 115.76 208.30 115.02 207.54 114.09 207.52 C 113.17 207.50 112.41 208.24 112.39 209.17 Z M 112.38 210.13 L 112.36 211.07 C 112.34 211.99 113.07 212.76 113.99 212.78 C 114.92 212.80 115.68 212.06 115.70 211.14 L 115.72 210.21 C 115.74 209.28 115.01 208.52 114.09 208.50 C 113.16 208.48 112.40 209.21 112.38 210.13 Z M 112.36 211.06 L 112.34 211.99 C 112.32 212.91 113.04 213.67 113.96 213.70 C 114.88 213.72 115.65 213.00 115.67 212.08 L 115.69 211.15 C 115.72 210.23 114.99 209.46 114.07 209.44 C 113.15 209.42 112.39 210.14 112.36 211.06 Z M 112.35 211.98 L 112.32 212.92 C 112.29 213.83 113.01 214.60 113.93 214.63 C 114.84 214.65 115.61 213.93 115.64 213.02 L 115.67 212.08 C 115.69 211.17 114.97 210.40 114.06 210.37 C 113.14 210.34 112.37 211.06 112.35 211.98 Z M 112.32 212.91 L 112.29 213.86 C 112.26 214.77 112.97 215.54 113.89 215.57 C 114.80 215.60 115.57 214.88 115.60 213.97 L 115.63 213.02 C 115.66 212.11 114.95 211.34 114.03 211.31 C 113.12 211.28 112.35 211.99 112.32 212.91 Z M 112.29 213.85 L 112.26 214.82 C 112.22 215.73 112.93 216.50 113.85 216.53 C 114.76 216.57 115.52 215.86 115.56 214.95 L 115.59 213.98 C 115.63 213.06 114.92 212.30 114.01 212.26 C 113.10 212.23 112.33 212.94 112.29 213.85 Z M 112.26 214.82 L 112.22 215.82 C 112.18 216.73 112.89 217.49 113.80 217.53 C 114.71 217.57 115.47 216.86 115.51 215.95 L 115.55 214.95 C 115.59 214.04 114.88 213.28 113.97 213.24 C 113.07 213.20 112.30 213.91 112.26 214.82 Z M 112.23 215.81 L 112.18 216.85 C 112.14 217.76 112.84 218.52 113.75 218.56 C 114.66 218.60 115.42 217.90 115.46 216.99 L 115.51 215.96 C 115.55 215.05 114.84 214.28 113.94 214.24 C 113.03 214.21 112.27 214.91 112.23 215.81 Z M 112.19 216.85 L 112.14 217.93 C 112.10 218.84 112.80 219.60 113.70 219.64 C 114.60 219.68 115.37 218.99 115.41 218.08 L 115.46 217.00 C 115.50 216.09 114.80 215.33 113.90 215.29 C 112.99 215.25 112.23 215.95 112.19 216.85 Z M 112.14 217.93 L 112.09 219.07 C 112.05 219.97 112.74 220.74 113.64 220.78 C 114.54 220.82 115.31 220.12 115.35 219.22 L 115.40 218.09 C 115.44 217.19 114.75 216.42 113.85 216.38 C 112.95 216.34 112.19 217.03 112.14 217.93 Z M 112.09 219.07 L 112.05 220.01 C 112.01 220.91 112.70 221.67 113.60 221.71 C 114.49 221.75 115.26 221.06 115.30 220.16 L 115.34 219.23 C 115.39 218.33 114.69 217.57 113.80 217.52 C 112.90 217.48 112.14 218.17 112.09 219.07 Z M 112.05 220.01 L 112.01 220.96 C 111.96 221.86 112.65 222.62 113.55 222.66 C 114.45 222.71 115.21 222.02 115.25 221.12 L 115.30 220.16 C 115.34 219.27 114.65 218.51 113.75 218.46 C 112.86 218.42 112.10 219.11 112.05 220.01 Z M 112.01 220.96 L 111.96 221.95 C 111.92 222.84 112.61 223.60 113.50 223.64 C 114.40 223.69 115.16 223.00 115.20 222.10 L 115.25 221.12 C 115.29 220.23 114.60 219.47 113.71 219.42 C 112.81 219.38 112.05 220.07 112.01 220.96 Z M 111.96 221.95 L 111.92 222.95 C 111.87 223.84 112.56 224.60 113.46 224.64 C 114.35 224.69 115.11 224.00 115.15 223.11 L 115.20 222.10 C 115.24 221.21 114.55 220.45 113.66 220.41 C 112.77 220.37 112.01 221.06 111.96 221.95 Z M 111.92 222.95 L 111.87 223.97 C 111.83 224.86 112.52 225.62 113.41 225.66 C 114.30 225.70 115.06 225.01 115.10 224.12 L 115.15 223.10 C 115.19 222.21 114.50 221.46 113.61 221.42 C 112.72 221.37 111.96 222.06 111.92 222.95 Z M 111.87 223.97 L 111.83 225.00 C 111.79 225.89 112.47 226.64 113.36 226.69 C 114.25 226.73 115.01 226.04 115.05 225.15 L 115.09 224.12 C 115.13 223.23 114.45 222.48 113.56 222.44 C 112.67 222.40 111.92 223.08 111.87 223.97 Z M 111.83 225.00 L 111.78 226.04 C 111.75 226.92 112.43 227.68 113.32 227.71 C 114.21 227.75 114.96 227.07 115.00 226.18 L 115.04 225.15 C 115.08 224.26 114.40 223.51 113.51 223.47 C 112.62 223.43 111.87 224.12 111.83 225.00 Z M 111.79 226.04 L 111.74 227.07 C 111.71 227.96 112.39 228.70 113.28 228.74 C 114.17 228.78 114.91 228.09 114.95 227.21 L 115.00 226.18 C 115.03 225.29 114.35 224.54 113.46 224.50 C 112.57 224.47 111.83 225.15 111.79 226.04 Z M 111.75 227.07 L 111.71 228.10 C 111.67 228.98 112.36 229.73 113.24 229.76 C 114.13 229.80 114.87 229.11 114.91 228.23 L 114.95 227.20 C 114.98 226.32 114.30 225.57 113.41 225.54 C 112.53 225.50 111.78 226.19 111.75 227.07 Z M 111.71 228.10 L 111.67 229.11 C 111.64 229.99 112.33 230.74 113.21 230.77 C 114.09 230.80 114.83 230.11 114.87 229.23 L 114.90 228.22 C 114.94 227.34 114.25 226.60 113.37 226.56 C 112.48 226.53 111.74 227.22 111.71 228.10 Z M 111.67 229.12 L 111.64 230.11 C 111.61 230.99 112.30 231.73 113.18 231.76 C 114.06 231.79 114.80 231.10 114.83 230.22 L 114.86 229.22 C 114.89 228.34 114.20 227.61 113.32 227.58 C 112.44 227.55 111.70 228.24 111.67 229.12 Z M 111.64 230.11 L 111.61 231.15 C 111.59 232.03 112.28 232.77 113.16 232.79 C 114.04 232.82 114.77 232.13 114.80 231.25 L 114.83 230.21 C 114.85 229.33 114.16 228.60 113.28 228.57 C 112.40 228.54 111.67 229.23 111.64 230.11 Z M 111.62 231.16 L 111.59 232.25 C 111.57 233.13 112.26 233.86 113.14 233.88 C 114.02 233.90 114.74 233.21 114.77 232.33 L 114.79 231.24 C 114.82 230.36 114.12 229.63 113.24 229.61 C 112.37 229.59 111.64 230.28 111.62 231.16 Z M 111.59 232.26 L 111.57 233.31 C 111.55 234.19 112.25 234.91 113.12 234.93 C 114.00 234.95 114.72 234.25 114.74 233.38 L 114.76 232.32 C 114.78 231.45 114.09 230.72 113.21 230.70 C 112.33 230.68 111.61 231.38 111.59 232.26 Z M 111.57 233.32 L 111.56 234.35 C 111.54 235.22 112.24 235.94 113.11 235.96 C 113.99 235.97 114.71 235.27 114.72 234.40 L 114.74 233.37 C 114.75 232.50 114.06 231.78 113.18 231.76 C 112.31 231.75 111.59 232.45 111.57 233.32 Z M 111.56 234.36 L 111.55 235.36 C 111.54 236.23 112.24 236.95 113.11 236.96 C 113.98 236.97 114.70 236.27 114.71 235.40 L 114.72 234.39 C 114.73 233.52 114.03 232.80 113.16 232.79 C 112.29 232.78 111.57 233.48 111.56 234.36 Z M 111.55 235.37 L 111.54 236.35 C 111.53 237.22 112.24 237.93 113.11 237.94 C 113.98 237.95 114.69 237.25 114.70 236.38 L 114.70 235.39 C 114.71 234.52 114.01 233.81 113.14 233.80 C 112.27 233.79 111.56 234.49 111.55 235.37 Z M 111.55 236.35 L 111.54 237.32 C 111.54 238.19 112.24 238.90 113.11 238.90 C 113.97 238.91 114.68 238.21 114.69 237.34 L 114.69 236.37 C 114.70 235.50 114.00 234.79 113.13 234.79 C 112.26 234.78 111.55 235.48 111.55 236.35 Z M 111.54 237.33 L 111.54 238.28 C 111.54 239.15 112.24 239.85 113.11 239.86 C 113.97 239.86 114.68 239.16 114.68 238.29 L 114.68 237.33 C 114.69 236.47 113.99 235.76 113.12 235.76 C 112.25 235.76 111.55 236.46 111.54 237.33 Z M 111.54 238.28 L 111.54 239.23 C 111.54 240.09 112.24 240.80 113.11 240.80 C 113.97 240.80 114.68 240.10 114.68 239.23 L 114.68 238.29 C 114.68 237.42 113.98 236.72 113.11 236.72 C 112.25 236.72 111.54 237.42 111.54 238.28 Z M 111.55 239.23 L 111.55 240.17 C 111.54 241.03 112.24 241.73 113.11 241.73 C 113.97 241.73 114.67 241.03 114.67 240.17 L 114.67 239.23 C 114.67 238.37 113.97 237.67 113.11 237.67 C 112.25 237.67 111.55 238.37 111.55 239.23 Z M 111.55 240.17 L 111.55 240.54 C 111.55 241.41 112.25 242.11 113.11 242.11 C 113.97 242.11 114.67 241.41 114.67 240.54 L 114.67 240.17 C 114.67 239.31 113.97 238.61 113.11 238.61 C 112.25 238.61 111.55 239.31 111.55 240.17 Z"
      fill="black"
      fill-rule="nonzero" /><path d="M 123.56 121.77 L 122.78 121.09 C 122.03 120.43 120.88 120.51 120.23 121.26 C 119.57 122.01 119.64 123.15 120.40 123.81 L 121.18 124.50 C 121.93 125.16 123.07 125.08 123.73 124.33 C 124.39 123.58 124.31 122.43 123.56 121.77 Z M 122.79 121.08 L 122.02 120.39 C 121.26 119.73 120.10 119.80 119.44 120.56 C 118.77 121.32 118.85 122.47 119.60 123.14 L 120.38 123.82 C 121.14 124.49 122.29 124.41 122.96 123.66 C 123.63 122.90 123.55 121.75 122.79 121.08 Z M 122.03 120.39 L 121.26 119.70 C 120.50 119.03 119.33 119.10 118.66 119.86 C 117.98 120.62 118.05 121.79 118.81 122.46 L 119.59 123.15 C 120.35 123.82 121.51 123.75 122.19 122.99 C 122.86 122.23 122.79 121.06 122.03 120.39 Z M 121.28 119.70 L 120.52 119.01 C 119.75 118.33 118.58 118.39 117.89 119.16 C 117.20 119.92 117.27 121.10 118.03 121.78 L 118.79 122.47 C 119.56 123.15 120.74 123.09 121.42 122.32 C 122.11 121.56 122.04 120.38 121.28 119.70 Z M 120.54 119.01 L 119.79 118.33 C 119.02 117.63 117.84 117.68 117.14 118.45 C 116.44 119.21 116.49 120.40 117.26 121.10 L 118.01 121.78 C 118.77 122.48 119.96 122.43 120.66 121.66 C 121.36 120.90 121.30 119.71 120.54 119.01 Z M 119.82 118.33 L 119.08 117.64 C 118.32 116.93 117.12 116.97 116.41 117.74 C 115.69 118.50 115.73 119.70 116.50 120.41 L 117.23 121.10 C 118.00 121.81 119.20 121.77 119.91 121.00 C 120.62 120.24 120.58 119.04 119.82 118.33 Z M 119.11 117.65 L 118.40 116.96 C 117.63 116.23 116.42 116.26 115.69 117.02 C 114.97 117.79 114.99 118.99 115.75 119.72 L 116.47 120.41 C 117.23 121.14 118.44 121.11 119.17 120.35 C 119.90 119.59 119.87 118.38 119.11 117.65 Z M 118.43 116.97 L 117.74 116.29 C 116.98 115.54 115.76 115.55 115.01 116.31 C 114.26 117.06 114.27 118.28 115.03 119.03 L 115.72 119.71 C 116.48 120.46 117.70 120.45 118.45 119.70 C 119.19 118.94 119.19 117.72 118.43 116.97 Z M 117.77 116.30 L 117.10 115.62 C 116.36 114.85 115.12 114.83 114.36 115.58 C 113.59 116.33 113.57 117.56 114.32 118.33 L 114.99 119.02 C 115.74 119.78 116.97 119.80 117.74 119.05 C 118.51 118.30 118.52 117.07 117.77 116.30 Z M 117.15 115.64 L 116.51 114.95 C 115.77 114.16 114.53 114.12 113.74 114.86 C 112.95 115.60 112.90 116.84 113.64 117.63 L 114.28 118.31 C 115.02 119.10 116.26 119.15 117.05 118.41 C 117.84 117.67 117.89 116.43 117.15 115.64 Z M 116.56 114.99 L 115.74 114.05 C 115.02 113.23 113.77 113.15 112.95 113.87 C 112.13 114.59 112.05 115.84 112.77 116.66 L 113.59 117.59 C 114.31 118.41 115.56 118.49 116.38 117.78 C 117.20 117.06 117.28 115.81 116.56 114.99 Z M 115.81 114.11 L 115.04 113.15 C 114.35 112.29 113.10 112.14 112.24 112.83 C 111.38 113.51 111.24 114.77 111.92 115.63 L 112.70 116.59 C 113.38 117.45 114.63 117.59 115.49 116.91 C 116.35 116.22 116.49 114.97 115.81 114.11 Z M 115.13 113.25 L 114.48 112.31 C 113.85 111.40 112.60 111.17 111.69 111.80 C 110.78 112.43 110.55 113.68 111.18 114.59 L 111.83 115.53 C 112.46 116.44 113.71 116.66 114.62 116.03 C 115.53 115.40 115.76 114.16 115.13 113.25 Z M 114.60 112.47 L 114.10 111.57 C 113.56 110.60 112.33 110.25 111.35 110.79 C 110.38 111.34 110.03 112.57 110.57 113.54 L 111.07 114.43 C 111.61 115.40 112.84 115.75 113.82 115.21 C 114.79 114.67 115.14 113.44 114.60 112.47 Z M 114.24 111.83 L 113.92 111.00 C 113.52 109.95 112.35 109.43 111.30 109.83 C 110.25 110.22 109.72 111.40 110.12 112.45 L 110.44 113.28 C 110.83 114.33 112.01 114.85 113.06 114.46 C 114.11 114.06 114.63 112.88 114.24 111.83 Z M 114.05 111.44 L 113.94 110.69 C 113.79 109.57 112.75 108.79 111.64 108.94 C 110.52 109.10 109.73 110.13 109.89 111.25 L 109.99 112.01 C 110.15 113.13 111.18 113.91 112.30 113.75 C 113.42 113.60 114.20 112.56 114.05 111.44 Z M 113.93 111.39 L 114.07 110.73 C 114.30 109.62 113.59 108.52 112.47 108.29 C 111.36 108.06 110.27 108.78 110.03 109.89 L 109.90 110.55 C 109.67 111.67 110.38 112.76 111.50 112.99 C 112.61 113.22 113.70 112.51 113.93 111.39 Z M 113.74 111.51 L 114.11 110.98 C 114.78 110.05 114.56 108.76 113.63 108.10 C 112.70 107.43 111.41 107.65 110.74 108.58 L 110.37 109.11 C 109.70 110.04 109.92 111.33 110.85 112.00 C 111.78 112.66 113.08 112.44 113.74 111.51 Z M 113.65 111.46 L 114.24 111.03 C 115.16 110.36 115.37 109.06 114.70 108.14 C 114.02 107.21 112.73 107.00 111.80 107.68 L 111.21 108.11 C 110.28 108.78 110.08 110.08 110.75 111.00 C 111.43 111.93 112.72 112.13 113.65 111.46 Z M 113.87 111.25 L 114.64 110.90 C 115.69 110.43 116.16 109.20 115.69 108.16 C 115.22 107.11 113.99 106.65 112.95 107.11 L 112.17 107.46 C 111.12 107.93 110.66 109.16 111.13 110.20 C 111.60 111.25 112.82 111.72 113.87 111.25 Z M 114.39 110.99 L 115.32 110.72 C 116.42 110.39 117.04 109.23 116.72 108.14 C 116.39 107.04 115.23 106.41 114.13 106.74 L 113.20 107.02 C 112.10 107.34 111.48 108.50 111.81 109.60 C 112.13 110.70 113.29 111.32 114.39 110.99 Z M 115.15 110.76 L 116.20 110.55 C 117.32 110.31 118.05 109.22 117.82 108.09 C 117.59 106.97 116.49 106.25 115.37 106.48 L 114.31 106.69 C 113.19 106.93 112.46 108.02 112.69 109.15 C 112.92 110.27 114.02 110.99 115.15 110.76 Z M 116.08 110.57 L 117.23 110.40 C 118.37 110.24 119.15 109.18 118.99 108.05 C 118.82 106.91 117.77 106.12 116.63 106.29 L 115.49 106.45 C 114.35 106.62 113.56 107.67 113.73 108.81 C 113.89 109.94 114.95 110.73 116.08 110.57 Z M 117.15 110.41 L 118.36 110.29 C 119.50 110.17 120.33 109.15 120.21 108.00 C 120.09 106.86 119.07 106.03 117.93 106.15 L 116.72 106.28 C 115.58 106.40 114.75 107.42 114.86 108.56 C 114.98 109.70 116.01 110.53 117.15 110.41 Z M 118.30 110.29 L 119.48 110.20 C 120.63 110.11 121.48 109.11 121.40 107.97 C 121.31 106.82 120.31 105.97 119.16 106.05 L 117.98 106.15 C 116.84 106.23 115.98 107.23 116.07 108.38 C 116.16 109.52 117.16 110.38 118.30 110.29 Z M 119.45 110.20 L 120.40 110.15 C 121.55 110.08 122.43 109.09 122.36 107.95 C 122.29 106.80 121.30 105.93 120.15 105.99 L 119.20 106.05 C 118.05 106.12 117.18 107.11 117.25 108.25 C 117.31 109.40 118.30 110.27 119.45 110.20 Z M 120.38 110.15 L 121.34 110.10 C 122.49 110.05 123.37 109.08 123.32 107.93 C 123.27 106.78 122.29 105.89 121.15 105.95 L 120.18 105.99 C 119.03 106.05 118.15 107.02 118.20 108.17 C 118.26 109.32 119.23 110.20 120.38 110.15 Z M 121.32 110.10 L 122.29 110.07 C 123.43 110.03 124.33 109.07 124.29 107.92 C 124.25 106.77 123.29 105.87 122.14 105.91 L 121.17 105.95 C 120.02 105.99 119.12 106.95 119.16 108.10 C 119.20 109.25 120.17 110.14 121.32 110.10 Z M 122.26 110.07 L 123.24 110.05 C 124.39 110.02 125.30 109.07 125.27 107.92 C 125.24 106.77 124.29 105.86 123.14 105.89 L 122.16 105.91 C 121.01 105.94 120.11 106.89 120.13 108.04 C 120.16 109.19 121.12 110.10 122.26 110.07 Z M 123.22 110.05 L 124.21 110.03 C 125.36 110.02 126.28 109.07 126.26 107.92 C 126.25 106.77 125.30 105.86 124.15 105.87 L 123.16 105.89 C 122.01 105.91 121.10 106.85 121.11 108.00 C 121.13 109.15 122.08 110.06 123.22 110.05 Z M 124.20 110.03 L 125.20 110.03 C 126.35 110.02 127.27 109.08 127.26 107.93 C 127.26 106.79 126.32 105.86 125.17 105.87 L 124.17 105.87 C 123.02 105.88 122.10 106.82 122.10 107.97 C 122.11 109.11 123.05 110.04 124.20 110.03 Z M 125.18 110.03 L 126.20 110.03 C 127.35 110.03 128.28 109.10 128.28 107.95 C 128.28 106.80 127.35 105.87 126.20 105.87 L 125.19 105.87 C 124.04 105.87 123.11 106.80 123.11 107.95 C 123.11 109.09 124.04 110.02 125.18 110.03 Z M 126.19 110.03 L 127.22 110.03 C 128.37 110.04 129.31 109.12 129.31 107.97 C 129.32 106.82 128.40 105.88 127.25 105.88 L 126.22 105.87 C 125.07 105.86 124.13 106.79 124.12 107.93 C 124.12 109.08 125.04 110.02 126.19 110.03 Z M 127.21 110.03 L 128.26 110.05 C 129.41 110.06 130.35 109.14 130.36 107.99 C 130.38 106.84 129.46 105.90 128.31 105.89 L 127.26 105.88 C 126.11 105.86 125.17 106.78 125.16 107.93 C 125.14 109.08 126.06 110.02 127.21 110.03 Z M 128.25 110.04 L 129.28 110.06 C 130.43 110.08 131.37 109.16 131.39 108.01 C 131.41 106.87 130.49 105.92 129.34 105.90 L 128.32 105.89 C 127.17 105.87 126.22 106.79 126.21 107.94 C 126.19 109.08 127.10 110.03 128.25 110.04 Z M 129.27 110.06 L 130.23 110.08 C 131.38 110.10 132.33 109.18 132.35 108.04 C 132.37 106.89 131.46 105.94 130.31 105.92 L 129.35 105.90 C 128.20 105.88 127.25 106.80 127.23 107.94 C 127.21 109.09 128.13 110.04 129.27 110.06 Z M 130.23 110.08 L 131.20 110.10 C 132.35 110.12 133.30 109.21 133.32 108.07 C 133.35 106.92 132.44 105.97 131.29 105.94 L 130.32 105.92 C 129.17 105.90 128.22 106.81 128.20 107.95 C 128.17 109.10 129.08 110.05 130.23 110.08 Z M 131.19 110.10 L 132.18 110.12 C 133.32 110.15 134.28 109.25 134.31 108.10 C 134.34 106.96 133.44 106.00 132.29 105.97 L 131.30 105.95 C 130.16 105.92 129.20 106.82 129.17 107.97 C 129.14 109.11 130.05 110.07 131.19 110.10 Z M 132.17 110.12 L 133.16 110.15 C 134.31 110.19 135.27 109.29 135.30 108.15 C 135.34 107.00 134.44 106.04 133.30 106.01 L 132.30 105.97 C 131.15 105.94 130.20 106.83 130.16 107.98 C 130.12 109.13 131.02 110.08 132.17 110.12 Z M 133.15 110.15 L 134.15 110.19 C 135.30 110.24 136.26 109.34 136.31 108.20 C 136.35 107.05 135.46 106.09 134.31 106.05 L 133.31 106.01 C 132.17 105.96 131.20 106.85 131.16 108.00 C 131.11 109.14 132.00 110.11 133.15 110.15 Z M 134.14 110.19 L 135.15 110.24 C 136.29 110.29 137.26 109.41 137.31 108.26 C 137.37 107.12 136.48 106.15 135.34 106.09 L 134.33 106.05 C 133.19 105.99 132.21 106.88 132.16 108.02 C 132.11 109.17 132.99 110.14 134.14 110.19 Z M 135.13 110.24 L 136.14 110.29 C 137.29 110.35 138.26 109.48 138.33 108.33 C 138.39 107.19 137.51 106.21 136.37 106.15 L 135.36 106.10 C 134.21 106.03 133.24 106.91 133.17 108.05 C 133.11 109.20 133.99 110.17 135.13 110.24 Z M 136.12 110.29 L 137.14 110.35 C 138.28 110.43 139.27 109.56 139.34 108.42 C 139.41 107.28 138.55 106.29 137.40 106.22 L 136.39 106.15 C 135.25 106.08 134.26 106.95 134.19 108.09 C 134.12 109.23 134.98 110.22 136.12 110.29 Z M 137.12 110.35 L 138.13 110.43 C 139.27 110.51 140.27 109.66 140.35 108.52 C 140.44 107.37 139.58 106.38 138.44 106.30 L 137.43 106.22 C 136.28 106.13 135.29 106.99 135.21 108.13 C 135.12 109.27 135.98 110.27 137.12 110.35 Z M 138.11 110.42 L 139.12 110.51 C 140.26 110.61 141.27 109.77 141.36 108.63 C 141.46 107.49 140.62 106.48 139.48 106.39 L 138.46 106.30 C 137.33 106.20 136.32 107.04 136.22 108.18 C 136.13 109.32 136.97 110.33 138.11 110.42 Z M 139.10 110.51 L 140.10 110.61 C 141.24 110.72 142.26 109.89 142.37 108.75 C 142.48 107.61 141.65 106.60 140.51 106.49 L 139.50 106.39 C 138.37 106.28 137.35 107.11 137.24 108.24 C 137.13 109.38 137.96 110.40 139.10 110.51 Z M 140.08 110.60 L 141.07 110.72 C 142.20 110.84 143.23 110.03 143.36 108.89 C 143.48 107.75 142.67 106.73 141.53 106.60 L 140.54 106.49 C 139.40 106.36 138.38 107.18 138.25 108.32 C 138.12 109.45 138.94 110.48 140.08 110.60 Z M 141.04 110.71 L 142.03 110.83 C 143.16 110.98 144.20 110.17 144.34 109.04 C 144.48 107.91 143.68 106.87 142.54 106.73 L 141.56 106.61 C 140.42 106.47 139.39 107.27 139.25 108.40 C 139.11 109.53 139.91 110.57 141.04 110.71 Z M 142.00 110.83 L 142.99 110.97 C 144.12 111.12 145.16 110.33 145.32 109.20 C 145.47 108.07 144.68 107.03 143.55 106.87 L 142.57 106.74 C 141.44 106.58 140.40 107.37 140.24 108.50 C 140.08 109.63 140.87 110.67 142.00 110.83 Z M 142.96 110.96 L 143.94 111.11 C 145.07 111.28 146.12 110.50 146.29 109.38 C 146.46 108.25 145.69 107.20 144.56 107.03 L 143.58 106.88 C 142.45 106.71 141.40 107.48 141.23 108.61 C 141.06 109.74 141.83 110.79 142.96 110.96 Z M 143.92 111.10 L 144.90 111.26 C 146.02 111.45 147.08 110.69 147.27 109.56 C 147.45 108.44 146.69 107.38 145.57 107.19 L 144.58 107.03 C 143.46 106.85 142.40 107.61 142.21 108.73 C 142.03 109.86 142.79 110.92 143.92 111.10 Z M 144.87 111.26 L 145.85 111.43 C 146.98 111.63 148.05 110.88 148.24 109.76 C 148.44 108.64 147.69 107.57 146.57 107.37 L 145.59 107.20 C 144.47 107.00 143.40 107.75 143.20 108.87 C 143.00 109.99 143.75 111.06 144.87 111.26 Z M 145.83 111.43 L 146.81 111.61 C 147.93 111.82 149.01 111.08 149.22 109.96 C 149.43 108.85 148.69 107.77 147.57 107.56 L 146.59 107.37 C 145.47 107.17 144.40 107.90 144.19 109.02 C 143.98 110.14 144.71 111.22 145.83 111.43 Z M 146.79 111.60 L 147.77 111.80 C 148.89 112.02 149.97 111.30 150.19 110.18 C 150.42 109.07 149.69 107.98 148.57 107.76 L 147.59 107.56 C 146.48 107.34 145.39 108.07 145.17 109.18 C 144.95 110.30 145.67 111.38 146.79 111.60 Z M 147.75 111.79 L 148.74 112.00 C 149.85 112.23 150.94 111.52 151.17 110.41 C 151.41 109.29 150.69 108.20 149.58 107.97 L 148.60 107.76 C 147.48 107.53 146.39 108.24 146.16 109.36 C 145.93 110.47 146.64 111.56 147.75 111.79 Z M 148.72 111.99 L 149.70 112.21 C 150.81 112.46 151.91 111.75 152.15 110.64 C 152.40 109.53 151.70 108.44 150.59 108.19 L 149.60 107.98 C 148.49 107.73 147.39 108.43 147.15 109.54 C 146.90 110.65 147.61 111.75 148.72 111.99 Z M 149.68 112.21 L 150.68 112.43 C 151.78 112.69 152.89 112.00 153.14 110.89 C 153.39 109.78 152.70 108.68 151.60 108.43 L 150.60 108.20 C 149.50 107.94 148.40 108.64 148.14 109.74 C 147.89 110.85 148.58 111.95 149.68 112.21 Z M 150.66 112.43 L 151.60 112.65 C 152.70 112.92 153.81 112.23 154.08 111.13 C 154.34 110.03 153.66 108.92 152.55 108.66 L 151.61 108.43 C 150.51 108.17 149.40 108.85 149.14 109.95 C 148.87 111.06 149.56 112.17 150.66 112.43 Z M 151.59 112.65 L 152.52 112.88 C 153.63 113.15 154.74 112.48 155.01 111.38 C 155.28 110.28 154.61 109.16 153.51 108.89 L 152.57 108.66 C 151.47 108.39 150.36 109.06 150.08 110.16 C 149.81 111.26 150.48 112.38 151.59 112.65 Z M 152.51 112.88 L 153.45 113.11 C 154.55 113.39 155.67 112.73 155.95 111.63 C 156.23 110.53 155.56 109.42 154.46 109.14 L 153.52 108.90 C 152.42 108.62 151.31 109.28 151.03 110.38 C 150.75 111.48 151.41 112.60 152.51 112.88 Z M 153.44 113.11 L 154.39 113.36 C 155.49 113.64 156.61 112.99 156.89 111.89 C 157.18 110.80 156.52 109.68 155.43 109.39 L 154.48 109.14 C 153.38 108.85 152.26 109.51 151.97 110.61 C 151.69 111.70 152.34 112.82 153.44 113.11 Z M 154.38 113.35 L 155.33 113.61 C 156.42 113.90 157.55 113.25 157.84 112.16 C 158.14 111.07 157.49 109.94 156.39 109.65 L 155.44 109.39 C 154.34 109.10 153.22 109.75 152.93 110.84 C 152.63 111.94 153.28 113.06 154.38 113.35 Z M 155.32 113.61 L 156.28 113.87 C 157.37 114.17 158.50 113.53 158.80 112.43 C 159.10 111.34 158.45 110.21 157.36 109.92 L 156.40 109.65 C 155.31 109.35 154.18 110.00 153.88 111.09 C 153.59 112.18 154.23 113.31 155.32 113.61 Z M 156.27 113.86 L 157.23 114.13 C 158.32 114.44 159.45 113.80 159.76 112.71 C 160.06 111.62 159.43 110.49 158.34 110.19 L 157.37 109.92 C 156.28 109.61 155.15 110.25 154.85 111.34 C 154.54 112.43 155.18 113.56 156.27 113.86 Z M 157.23 114.13 L 158.20 114.41 C 159.28 114.72 160.42 114.09 160.73 113.00 C 161.04 111.91 160.40 110.78 159.32 110.47 L 158.35 110.19 C 157.26 109.88 156.13 110.51 155.82 111.60 C 155.51 112.69 156.14 113.82 157.23 114.13 Z M 158.19 114.40 L 159.17 114.69 C 160.25 115.00 161.39 114.37 161.70 113.29 C 162.01 112.20 161.39 111.07 160.30 110.75 L 159.32 110.47 C 158.24 110.16 157.10 110.78 156.79 111.87 C 156.48 112.96 157.10 114.09 158.19 114.40 Z M 159.16 114.68 L 160.14 114.97 C 161.23 115.29 162.36 114.67 162.68 113.58 C 163.00 112.50 162.38 111.36 161.29 111.04 L 160.31 110.76 C 159.22 110.44 158.09 111.06 157.77 112.14 C 157.45 113.23 158.07 114.37 159.16 114.68 Z M 160.14 114.97 L 161.12 115.26 C 162.21 115.58 163.35 114.97 163.67 113.88 C 163.99 112.80 163.37 111.66 162.29 111.34 L 161.30 111.05 C 160.22 110.73 159.08 111.34 158.76 112.43 C 158.44 113.51 159.05 114.65 160.14 114.97 Z M 161.12 115.26 L 162.12 115.56 C 163.20 115.88 164.34 115.27 164.66 114.19 C 164.98 113.10 164.37 111.97 163.29 111.64 L 162.29 111.34 C 161.21 111.02 160.07 111.63 159.75 112.71 C 159.42 113.80 160.04 114.93 161.12 115.26 Z M 162.11 115.55 L 163.06 115.84 C 164.14 116.17 165.28 115.56 165.61 114.48 C 165.94 113.40 165.33 112.26 164.25 111.93 L 163.29 111.64 C 162.21 111.32 161.07 111.93 160.75 113.01 C 160.42 114.09 161.03 115.23 162.11 115.55 Z M 163.06 115.84 L 164.01 116.13 C 165.09 116.46 166.23 115.85 166.56 114.77 C 166.88 113.69 166.28 112.55 165.20 112.22 L 164.25 111.94 C 163.17 111.61 162.03 112.21 161.70 113.29 C 161.37 114.37 161.98 115.51 163.06 115.84 Z M 164.00 116.13 L 164.95 116.42 C 166.03 116.75 167.17 116.15 167.50 115.07 C 167.84 113.99 167.23 112.85 166.16 112.52 L 165.20 112.23 C 164.13 111.89 162.98 112.50 162.65 113.58 C 162.32 114.65 162.93 115.79 164.00 116.13 Z M 164.95 116.42 L 165.90 116.71 C 166.98 117.05 168.12 116.45 168.46 115.37 C 168.79 114.30 168.19 113.16 167.12 112.82 L 166.16 112.52 C 165.09 112.19 163.94 112.79 163.61 113.86 C 163.27 114.94 163.87 116.08 164.95 116.42 Z M 165.90 116.71 L 166.85 117.01 C 167.93 117.35 169.07 116.76 169.41 115.68 C 169.75 114.61 169.15 113.47 168.08 113.13 L 167.12 112.82 C 166.05 112.48 164.91 113.08 164.57 114.15 C 164.23 115.23 164.82 116.37 165.90 116.71 Z M 166.84 117.01 L 167.80 117.32 C 168.87 117.66 170.02 117.07 170.36 116.00 C 170.71 114.93 170.12 113.78 169.05 113.44 L 168.09 113.13 C 167.02 112.79 165.87 113.38 165.53 114.45 C 165.18 115.52 165.77 116.67 166.84 117.01 Z M 167.79 117.31 L 168.75 117.63 C 169.82 117.97 170.97 117.39 171.32 116.32 C 171.66 115.25 171.08 114.10 170.01 113.75 L 169.05 113.44 C 167.99 113.09 166.84 113.68 166.49 114.75 C 166.14 115.82 166.72 116.96 167.79 117.31 Z M 168.74 117.62 L 169.69 117.94 C 170.76 118.29 171.91 117.71 172.27 116.65 C 172.62 115.58 172.04 114.43 170.98 114.07 L 170.02 113.76 C 168.95 113.40 167.80 113.98 167.45 115.05 C 167.09 116.11 167.67 117.27 168.74 117.62 Z M 169.68 117.93 L 170.64 118.26 C 171.70 118.62 172.86 118.04 173.22 116.98 C 173.58 115.92 173.00 114.76 171.94 114.40 L 170.99 114.08 C 169.92 113.72 168.77 114.29 168.41 115.35 C 168.05 116.42 168.62 117.57 169.68 117.93 Z M 170.62 118.25 L 171.57 118.58 C 172.64 118.94 173.79 118.38 174.16 117.32 C 174.53 116.26 173.96 115.10 172.90 114.73 L 171.95 114.41 C 170.89 114.04 169.73 114.60 169.37 115.66 C 169.00 116.73 169.56 117.88 170.62 118.25 Z M 171.56 118.57 L 172.51 118.91 C 173.56 119.28 174.73 118.72 175.10 117.67 C 175.47 116.61 174.92 115.45 173.86 115.07 L 172.91 114.74 C 171.86 114.37 170.69 114.92 170.32 115.98 C 169.95 117.04 170.50 118.20 171.56 118.57 Z M 172.49 118.90 L 173.43 119.24 C 174.49 119.62 175.65 119.07 176.03 118.02 C 176.41 116.96 175.87 115.80 174.81 115.42 L 173.87 115.08 C 172.82 114.70 171.65 115.24 171.27 116.30 C 170.89 117.35 171.44 118.52 172.49 118.90 Z M 173.42 119.23 L 174.35 119.58 C 175.40 119.97 176.57 119.43 176.96 118.38 C 177.35 117.33 176.81 116.16 175.76 115.77 L 174.83 115.42 C 173.77 115.04 172.61 115.57 172.22 116.62 C 171.83 117.68 172.36 118.84 173.42 119.23 Z M 174.33 119.57 L 175.30 119.94 C 176.35 120.34 177.52 119.81 177.92 118.76 C 178.31 117.71 177.79 116.54 176.74 116.14 L 175.77 115.78 C 174.73 115.38 173.55 115.90 173.16 116.95 C 172.76 118.00 173.28 119.17 174.33 119.57 Z M 175.28 119.93 L 176.24 120.30 C 177.28 120.71 178.46 120.20 178.87 119.15 C 179.27 118.11 178.76 116.93 177.71 116.52 L 176.76 116.15 C 175.71 115.74 174.54 116.26 174.13 117.30 C 173.72 118.35 174.24 119.52 175.28 119.93 Z M 176.22 120.30 L 177.17 120.68 C 178.21 121.09 179.39 120.59 179.81 119.55 C 180.22 118.51 179.72 117.33 178.68 116.91 L 177.73 116.53 C 176.69 116.11 175.51 116.62 175.09 117.66 C 174.68 118.70 175.18 119.88 176.22 120.30 Z M 177.15 120.67 L 178.09 121.06 C 179.12 121.48 180.31 120.99 180.74 119.96 C 181.16 118.92 180.67 117.74 179.64 117.31 L 178.70 116.92 C 177.66 116.49 176.48 116.99 176.05 118.02 C 175.62 119.06 176.11 120.24 177.15 120.67 Z M 178.07 121.05 L 179.00 121.44 C 180.03 121.88 181.22 121.40 181.66 120.37 C 182.09 119.34 181.61 118.15 180.58 117.71 L 179.65 117.32 C 178.62 116.88 177.43 117.36 177.00 118.39 C 176.56 119.42 177.04 120.61 178.07 121.05 Z M 178.98 121.43 L 179.90 121.84 C 180.92 122.29 182.12 121.82 182.57 120.79 C 183.02 119.77 182.55 118.57 181.52 118.12 L 180.60 117.72 C 179.58 117.27 178.38 117.74 177.93 118.76 C 177.49 119.79 177.95 120.99 178.98 121.43 Z M 179.88 121.83 L 180.79 122.24 C 181.81 122.70 183.01 122.24 183.47 121.22 C 183.93 120.20 183.47 119.00 182.45 118.54 L 181.54 118.13 C 180.52 117.67 179.32 118.13 178.86 119.15 C 178.40 120.17 178.86 121.37 179.88 121.83 Z M 180.77 122.23 L 181.66 122.65 C 182.68 123.12 183.88 122.68 184.36 121.66 C 184.83 120.65 184.39 119.44 183.37 118.97 L 182.47 118.55 C 181.46 118.08 180.25 118.52 179.78 119.54 C 179.31 120.55 179.75 121.76 180.77 122.23 Z M 181.64 122.63 L 182.53 123.06 C 183.54 123.54 184.75 123.12 185.23 122.11 C 185.72 121.10 185.29 119.89 184.28 119.41 L 183.39 118.98 C 182.39 118.50 181.18 118.93 180.69 119.93 C 180.21 120.94 180.64 122.15 181.64 122.63 Z M 182.51 123.05 L 183.39 123.48 C 184.39 123.98 185.61 123.57 186.10 122.57 C 186.60 121.56 186.19 120.35 185.18 119.86 L 184.30 119.42 C 183.30 118.93 182.09 119.34 181.59 120.34 C 181.10 121.34 181.51 122.55 182.51 123.05 Z M 183.37 123.47 L 184.24 123.91 C 185.23 124.42 186.45 124.03 186.96 123.03 C 187.47 122.04 187.07 120.82 186.07 120.31 L 185.21 119.87 C 184.21 119.36 182.99 119.75 182.48 120.75 C 181.98 121.75 182.37 122.96 183.37 123.47 Z M 184.21 123.90 L 185.07 124.35 C 186.06 124.87 187.28 124.49 187.80 123.51 C 188.32 122.52 187.94 121.29 186.95 120.77 L 186.10 120.32 C 185.11 119.80 183.89 120.18 183.36 121.17 C 182.84 122.16 183.22 123.38 184.21 123.90 Z M 185.05 124.34 L 185.93 124.82 C 186.91 125.35 188.14 124.99 188.67 124.01 C 189.21 123.03 188.84 121.80 187.86 121.27 L 186.98 120.79 C 186.00 120.25 184.77 120.62 184.24 121.60 C 183.70 122.58 184.06 123.81 185.05 124.34 Z M 185.90 124.81 L 186.79 125.31 C 187.76 125.85 189.00 125.51 189.55 124.53 C 190.09 123.56 189.75 122.33 188.77 121.78 L 187.89 121.28 C 186.91 120.73 185.68 121.08 185.13 122.05 C 184.59 123.03 184.93 124.26 185.90 124.81 Z M 186.77 125.29 L 187.64 125.80 C 188.61 126.36 189.84 126.03 190.41 125.07 C 190.97 124.10 190.64 122.87 189.67 122.30 L 188.80 121.79 C 187.83 121.23 186.60 121.56 186.03 122.53 C 185.47 123.49 185.80 124.73 186.77 125.29 Z M 187.61 125.78 L 188.48 126.30 C 189.43 126.88 190.68 126.57 191.25 125.61 C 191.83 124.66 191.52 123.41 190.56 122.84 L 189.70 122.32 C 188.74 121.74 187.50 122.05 186.92 123.01 C 186.35 123.97 186.66 125.21 187.61 125.78 Z M 188.45 126.29 L 189.30 126.82 C 190.25 127.41 191.50 127.12 192.09 126.17 C 192.68 125.22 192.39 123.97 191.44 123.38 L 190.59 122.85 C 189.64 122.26 188.39 122.55 187.80 123.50 C 187.21 124.45 187.50 125.70 188.45 126.29 Z M 189.28 126.80 L 190.11 127.34 C 191.05 127.95 192.31 127.68 192.91 126.74 C 193.52 125.80 193.25 124.55 192.31 123.94 L 191.47 123.40 C 190.53 122.80 189.28 123.07 188.67 124.01 C 188.06 124.94 188.34 126.20 189.28 126.80 Z M 190.09 127.33 L 190.92 127.88 C 191.85 128.50 193.10 128.25 193.72 127.32 C 194.34 126.39 194.09 125.13 193.16 124.51 L 192.33 123.96 C 191.40 123.34 190.15 123.59 189.53 124.52 C 188.91 125.45 189.16 126.71 190.09 127.33 Z M 190.89 127.86 L 191.71 128.42 C 192.63 129.06 193.89 128.83 194.52 127.91 C 195.16 126.99 194.93 125.73 194.01 125.09 L 193.19 124.53 C 192.27 123.89 191.01 124.13 190.37 125.05 C 189.74 125.97 189.97 127.23 190.89 127.86 Z M 191.68 128.41 L 192.49 128.98 C 193.40 129.63 194.66 129.42 195.31 128.51 C 195.96 127.60 195.75 126.33 194.84 125.68 L 194.03 125.11 C 193.12 124.46 191.86 124.67 191.21 125.58 C 190.56 126.49 190.77 127.76 191.68 128.41 Z M 192.46 128.96 L 193.26 129.55 C 194.16 130.21 195.43 130.02 196.09 129.12 C 196.75 128.22 196.56 126.95 195.66 126.29 L 194.86 125.70 C 193.96 125.04 192.70 125.23 192.03 126.13 C 191.37 127.03 191.56 128.30 192.46 128.96 Z M 193.23 129.53 L 194.02 130.13 C 194.91 130.81 196.18 130.63 196.86 129.75 C 197.53 128.86 197.36 127.59 196.47 126.91 L 195.69 126.31 C 194.80 125.63 193.53 125.80 192.85 126.69 C 192.17 127.58 192.34 128.85 193.23 129.53 Z M 193.99 130.11 L 194.78 130.73 C 195.65 131.42 196.93 131.27 197.62 130.39 C 198.31 129.51 198.16 128.24 197.28 127.54 L 196.50 126.93 C 195.62 126.24 194.35 126.39 193.66 127.27 C 192.96 128.14 193.12 129.42 193.99 130.11 Z M 194.75 130.70 L 195.56 131.36 C 196.42 132.07 197.70 131.94 198.41 131.07 C 199.11 130.21 198.98 128.93 198.12 128.22 L 197.31 127.57 C 196.44 126.86 195.17 126.99 194.46 127.86 C 193.75 128.72 193.88 130.00 194.75 130.70 Z M 195.53 131.34 L 196.32 132.01 C 197.18 132.73 198.45 132.63 199.18 131.77 C 199.90 130.92 199.79 129.64 198.94 128.92 L 198.15 128.25 C 197.29 127.52 196.01 127.63 195.29 128.48 C 194.57 129.34 194.67 130.62 195.53 131.34 Z M 196.29 131.99 L 197.07 132.67 C 197.91 133.41 199.19 133.33 199.93 132.49 C 200.67 131.65 200.59 130.37 199.75 129.63 L 198.97 128.94 C 198.13 128.20 196.85 128.28 196.11 129.12 C 195.37 129.96 195.45 131.25 196.29 131.99 Z M 197.03 132.64 L 197.79 133.34 C 198.62 134.09 199.90 134.04 200.66 133.21 C 201.41 132.39 201.36 131.11 200.53 130.35 L 199.78 129.65 C 198.95 128.89 197.67 128.95 196.91 129.77 C 196.15 130.60 196.21 131.88 197.03 132.64 Z M 197.76 133.31 L 198.49 134.01 C 199.30 134.79 200.58 134.76 201.36 133.95 C 202.14 133.15 202.11 131.86 201.30 131.08 L 200.57 130.38 C 199.76 129.60 198.48 129.63 197.70 130.44 C 196.92 131.24 196.95 132.53 197.76 133.31 Z M 198.45 133.98 L 199.16 134.69 C 199.95 135.49 201.24 135.49 202.03 134.71 C 202.83 133.92 202.84 132.63 202.05 131.83 L 201.34 131.12 C 200.55 130.32 199.26 130.31 198.47 131.10 C 197.67 131.89 197.66 133.18 198.45 133.98 Z M 199.12 134.65 L 199.80 135.38 C 200.57 136.20 201.86 136.24 202.68 135.47 C 203.49 134.70 203.53 133.41 202.77 132.59 L 202.09 131.87 C 201.32 131.05 200.03 131.01 199.21 131.78 C 198.39 132.55 198.35 133.84 199.12 134.65 Z M 199.76 135.34 L 200.41 136.07 C 201.16 136.91 202.44 136.99 203.28 136.24 C 204.12 135.50 204.20 134.21 203.46 133.37 L 202.81 132.64 C 202.06 131.80 200.78 131.72 199.94 132.46 C 199.10 133.21 199.02 134.50 199.76 135.34 Z M 200.37 136.02 L 200.99 136.76 C 201.71 137.63 202.99 137.74 203.85 137.02 C 204.72 136.30 204.83 135.02 204.11 134.16 L 203.50 133.42 C 202.78 132.55 201.50 132.44 200.63 133.15 C 199.77 133.87 199.65 135.16 200.37 136.02 Z M 200.94 136.71 L 201.52 137.45 C 202.21 138.34 203.49 138.50 204.38 137.82 C 205.27 137.13 205.43 135.85 204.74 134.96 L 204.16 134.21 C 203.47 133.32 202.19 133.16 201.30 133.85 C 200.41 134.54 200.25 135.82 200.94 136.71 Z M 201.47 137.39 L 202.02 138.16 C 202.68 139.07 203.95 139.28 204.86 138.62 C 205.78 137.97 205.99 136.70 205.33 135.78 L 204.79 135.02 C 204.13 134.10 202.86 133.90 201.94 134.55 C 201.03 135.21 200.82 136.48 201.47 137.39 Z M 201.97 138.09 L 202.50 138.89 C 203.12 139.83 204.38 140.10 205.32 139.48 C 206.26 138.86 206.53 137.60 205.91 136.66 L 205.38 135.85 C 204.77 134.91 203.50 134.65 202.56 135.26 C 201.62 135.88 201.35 137.14 201.97 138.09 Z M 202.45 138.81 L 202.93 139.63 C 203.50 140.60 204.75 140.92 205.72 140.35 C 206.69 139.78 207.02 138.53 206.44 137.56 L 205.96 136.74 C 205.39 135.77 204.14 135.44 203.17 136.02 C 202.20 136.59 201.87 137.84 202.45 138.81 Z M 202.88 139.54 L 203.32 140.38 C 203.85 141.38 205.08 141.76 206.08 141.24 C 207.08 140.71 207.46 139.48 206.93 138.48 L 206.49 137.64 C 205.97 136.64 204.74 136.26 203.74 136.79 C 202.74 137.31 202.36 138.55 202.88 139.54 Z M 203.27 140.29 L 203.67 141.15 C 204.15 142.17 205.36 142.62 206.38 142.14 C 207.41 141.67 207.85 140.45 207.38 139.43 L 206.98 138.57 C 206.51 137.55 205.29 137.10 204.27 137.58 C 203.24 138.05 202.80 139.26 203.27 140.29 Z M 203.63 141.05 L 203.99 141.94 C 204.41 142.99 205.60 143.50 206.65 143.07 C 207.70 142.65 208.20 141.46 207.78 140.41 L 207.42 139.52 C 207.00 138.48 205.81 137.97 204.76 138.39 C 203.71 138.81 203.21 140.01 203.63 141.05 Z M 203.95 141.85 L 204.27 142.77 C 204.64 143.84 205.80 144.40 206.87 144.03 C 207.94 143.66 208.51 142.50 208.14 141.43 L 207.82 140.51 C 207.45 139.44 206.28 138.87 205.21 139.24 C 204.15 139.61 203.58 140.78 203.95 141.85 Z M 204.24 142.68 L 204.52 143.64 C 204.84 144.72 205.98 145.35 207.06 145.03 C 208.15 144.71 208.77 143.57 208.45 142.49 L 208.17 141.52 C 207.85 140.44 206.71 139.82 205.63 140.14 C 204.54 140.45 203.92 141.59 204.24 142.68 Z M 204.50 143.55 L 204.74 144.56 C 205.01 145.66 206.12 146.33 207.22 146.06 C 208.32 145.79 208.99 144.68 208.72 143.58 L 208.48 142.57 C 208.21 141.48 207.10 140.80 206.00 141.07 C 204.90 141.34 204.23 142.45 204.50 143.55 Z M 204.72 144.47 L 204.93 145.53 C 205.16 146.64 206.24 147.36 207.35 147.14 C 208.46 146.91 209.18 145.83 208.96 144.72 L 208.74 143.67 C 208.52 142.56 207.44 141.84 206.33 142.06 C 205.22 142.28 204.50 143.36 204.72 144.47 Z M 204.92 145.45 L 205.10 146.57 C 205.28 147.69 206.33 148.45 207.45 148.27 C 208.57 148.09 209.33 147.03 209.15 145.91 L 208.97 144.80 C 208.79 143.68 207.74 142.92 206.62 143.10 C 205.50 143.28 204.74 144.34 204.92 145.45 Z M 205.09 146.51 L 205.21 147.43 C 205.35 148.55 206.39 149.35 207.51 149.20 C 208.63 149.05 209.43 148.02 209.28 146.90 L 209.16 145.98 C 209.01 144.85 207.98 144.06 206.86 144.20 C 205.74 144.35 204.94 145.38 205.09 146.51 Z M 205.20 147.38 L 205.30 148.29 C 205.42 149.42 206.43 150.24 207.55 150.12 C 208.68 150.00 209.50 148.99 209.38 147.87 L 209.29 146.95 C 209.17 145.82 208.16 145.00 207.03 145.12 C 205.90 145.24 205.08 146.25 205.20 147.38 Z M 205.29 148.24 L 205.37 149.19 C 205.46 150.32 206.45 151.16 207.58 151.07 C 208.71 150.98 209.55 149.99 209.46 148.86 L 209.39 147.92 C 209.30 146.79 208.31 145.94 207.18 146.03 C 206.05 146.12 205.20 147.11 205.29 148.24 Z M 205.36 149.14 L 205.42 150.11 C 205.48 151.24 206.45 152.11 207.58 152.05 C 208.72 151.98 209.58 151.01 209.52 149.88 L 209.47 148.91 C 209.40 147.78 208.43 146.91 207.30 146.97 C 206.17 147.04 205.30 148.01 205.36 149.14 Z M 205.42 150.06 L 205.45 151.05 C 205.48 152.18 206.43 153.07 207.57 153.04 C 208.70 153.00 209.59 152.05 209.56 150.92 L 209.52 149.93 C 209.49 148.79 208.54 147.90 207.40 147.94 C 206.27 147.98 205.38 148.92 205.42 150.06 Z M 205.45 151.00 L 205.45 152.01 C 205.46 153.14 206.39 154.05 207.52 154.05 C 208.66 154.04 209.57 153.11 209.56 151.98 L 209.56 150.97 C 209.55 149.83 208.62 148.92 207.49 148.93 C 206.35 148.94 205.44 149.86 205.45 151.00 Z M 205.45 151.95 L 205.43 152.97 C 205.41 154.11 206.32 155.05 207.45 155.07 C 208.59 155.09 209.53 154.18 209.55 153.05 L 209.56 152.03 C 209.58 150.89 208.68 149.95 207.55 149.93 C 206.41 149.91 205.47 150.82 205.45 151.95 Z M 205.44 152.92 L 205.39 153.95 C 205.34 155.08 206.22 156.04 207.36 156.09 C 208.49 156.14 209.45 155.26 209.50 154.13 L 209.55 153.10 C 209.59 151.96 208.71 151.00 207.58 150.95 C 206.44 150.90 205.48 151.78 205.44 152.92 Z M 205.39 153.89 L 205.32 154.92 C 205.24 156.06 206.09 157.04 207.23 157.12 C 208.36 157.20 209.34 156.35 209.42 155.21 L 209.50 154.18 C 209.58 153.05 208.72 152.06 207.59 151.98 C 206.46 151.90 205.47 152.76 205.39 153.89 Z M 205.32 154.87 L 205.22 155.90 C 205.11 157.03 205.94 158.04 207.07 158.15 C 208.20 158.26 209.21 157.44 209.32 156.31 L 209.42 155.27 C 209.53 154.14 208.71 153.13 207.57 153.02 C 206.44 152.91 205.44 153.74 205.32 154.87 Z M 205.23 155.84 L 205.10 156.87 C 204.95 158.00 205.75 159.03 206.87 159.18 C 208.00 159.32 209.03 158.52 209.18 157.40 L 209.31 156.37 C 209.46 155.24 208.66 154.21 207.53 154.06 C 206.41 153.92 205.37 154.71 205.23 155.84 Z M 205.10 156.81 L 204.94 157.83 C 204.76 158.95 205.52 160.01 206.65 160.19 C 207.77 160.37 208.83 159.61 209.01 158.48 L 209.17 157.46 C 209.35 156.34 208.59 155.28 207.46 155.10 C 206.34 154.92 205.29 155.68 205.10 156.81 Z M 204.95 157.76 L 204.75 158.78 C 204.54 159.89 205.26 160.97 206.38 161.19 C 207.50 161.41 208.58 160.68 208.80 159.56 L 208.99 158.55 C 209.21 157.44 208.48 156.35 207.37 156.14 C 206.25 155.92 205.17 156.65 204.95 157.76 Z M 204.77 158.70 L 204.54 159.70 C 204.28 160.81 204.97 161.91 206.08 162.17 C 207.19 162.43 208.29 161.74 208.55 160.63 L 208.78 159.64 C 209.04 158.53 208.35 157.42 207.24 157.16 C 206.13 156.91 205.03 157.59 204.77 158.70 Z M 204.56 159.62 L 204.29 160.59 C 203.99 161.69 204.64 162.82 205.74 163.12 C 206.84 163.42 207.97 162.77 208.27 161.67 L 208.53 160.71 C 208.83 159.61 208.18 158.48 207.08 158.18 C 205.99 157.88 204.85 158.53 204.56 159.62 Z M 204.31 160.52 L 204.02 161.47 C 203.68 162.56 204.29 163.71 205.37 164.05 C 206.46 164.39 207.62 163.78 207.95 162.69 L 208.25 161.74 C 208.59 160.66 207.98 159.50 206.89 159.16 C 205.81 158.83 204.65 159.43 204.31 160.52 Z M 204.04 161.40 L 203.71 162.34 C 203.34 163.41 203.91 164.59 204.98 164.96 C 206.05 165.34 207.23 164.77 207.60 163.70 L 207.93 162.76 C 208.31 161.69 207.74 160.51 206.67 160.14 C 205.59 159.76 204.42 160.33 204.04 161.40 Z M 203.74 162.27 L 203.38 163.19 C 202.97 164.26 203.50 165.45 204.56 165.86 C 205.62 166.27 206.81 165.74 207.22 164.68 L 207.58 163.76 C 207.99 162.70 207.46 161.51 206.40 161.10 C 205.34 160.68 204.15 161.21 203.74 162.27 Z M 203.41 163.13 L 203.02 164.04 C 202.58 165.09 203.06 166.30 204.11 166.74 C 205.16 167.19 206.37 166.70 206.81 165.65 L 207.20 164.74 C 207.64 163.69 207.15 162.49 206.11 162.04 C 205.06 161.60 203.85 162.09 203.41 163.13 Z M 203.04 163.99 L 202.63 164.89 C 202.16 165.92 202.61 167.14 203.64 167.62 C 204.68 168.09 205.90 167.64 206.38 166.61 L 206.79 165.71 C 207.26 164.67 206.81 163.45 205.78 162.98 C 204.74 162.50 203.52 162.95 203.04 163.99 Z M 202.66 164.83 L 202.22 165.72 C 201.71 166.74 202.13 167.98 203.15 168.48 C 204.17 168.98 205.41 168.57 205.91 167.55 L 206.35 166.66 C 206.86 165.64 206.44 164.40 205.42 163.90 C 204.40 163.39 203.16 163.81 202.66 164.83 Z M 202.24 165.67 L 201.78 166.55 C 201.25 167.56 201.63 168.80 202.64 169.33 C 203.65 169.87 204.89 169.48 205.42 168.47 L 205.89 167.59 C 206.42 166.59 206.03 165.34 205.03 164.81 C 204.02 164.28 202.77 164.67 202.24 165.67 Z M 201.80 166.51 L 201.32 167.38 C 200.76 168.37 201.12 169.63 202.11 170.18 C 203.10 170.74 204.36 170.38 204.91 169.39 L 205.40 168.52 C 205.96 167.52 205.60 166.27 204.61 165.71 C 203.61 165.16 202.36 165.51 201.80 166.51 Z M 201.34 167.34 L 200.83 168.20 C 200.25 169.18 200.58 170.44 201.56 171.02 C 202.54 171.60 203.81 171.27 204.38 170.29 L 204.89 169.43 C 205.47 168.45 205.14 167.18 204.16 166.61 C 203.18 166.03 201.92 166.36 201.34 167.34 Z M 200.85 168.17 L 200.32 169.02 C 199.73 169.99 200.03 171.26 201.00 171.86 C 201.97 172.46 203.23 172.15 203.83 171.19 L 204.36 170.33 C 204.96 169.36 204.66 168.09 203.69 167.49 C 202.72 166.90 201.45 167.20 200.85 168.17 Z M 200.34 168.99 L 199.80 169.84 C 199.18 170.80 199.46 172.08 200.42 172.69 C 201.37 173.31 202.65 173.03 203.26 172.07 L 203.81 171.22 C 204.43 170.26 204.15 168.99 203.19 168.37 C 202.23 167.76 200.96 168.03 200.34 168.99 Z M 199.82 169.82 L 199.25 170.67 C 198.62 171.61 198.88 172.89 199.82 173.52 C 200.77 174.15 202.05 173.90 202.68 172.95 L 203.25 172.10 C 203.88 171.15 203.62 169.87 202.67 169.24 C 201.72 168.61 200.45 168.87 199.82 169.82 Z M 199.27 170.64 L 198.68 171.49 C 198.04 172.43 198.27 173.71 199.21 174.36 C 200.15 175.00 201.43 174.77 202.08 173.83 L 202.66 172.97 C 203.31 172.04 203.07 170.75 202.13 170.11 C 201.19 169.46 199.91 169.70 199.27 170.64 Z M 198.70 171.47 L 198.09 172.34 C 197.43 173.27 197.65 174.55 198.58 175.21 C 199.51 175.86 200.79 175.64 201.45 174.71 L 202.06 173.85 C 202.72 172.92 202.50 171.64 201.57 170.98 C 200.64 170.32 199.35 170.54 198.70 171.47 Z M 198.10 172.32 L 197.48 173.18 C 196.81 174.10 197.02 175.38 197.94 176.05 C 198.86 176.72 200.14 176.51 200.81 175.59 L 201.43 174.73 C 202.10 173.81 201.90 172.53 200.98 171.86 C 200.05 171.19 198.77 171.40 198.10 172.32 Z M 197.49 173.16 L 196.86 174.01 C 196.18 174.92 196.37 176.21 197.29 176.89 C 198.20 177.57 199.49 177.38 200.16 176.46 L 200.80 175.61 C 201.47 174.70 201.28 173.41 200.37 172.73 C 199.46 172.05 198.17 172.25 197.49 173.16 Z M 196.87 173.99 L 196.23 174.84 C 195.55 175.74 195.73 177.03 196.63 177.72 C 197.54 178.40 198.83 178.23 199.51 177.32 L 200.15 176.48 C 200.84 175.57 200.66 174.28 199.75 173.60 C 198.85 172.91 197.56 173.09 196.87 173.99 Z M 196.25 174.82 L 195.60 175.65 C 194.91 176.55 195.08 177.84 195.97 178.54 C 196.87 179.23 198.16 179.07 198.86 178.17 L 199.50 177.34 C 200.19 176.44 200.03 175.15 199.13 174.45 C 198.23 173.76 196.94 173.92 196.25 174.82 Z M 195.62 175.64 L 194.97 176.46 C 194.27 177.35 194.43 178.64 195.32 179.34 C 196.21 180.04 197.50 179.89 198.20 179.00 L 198.85 178.18 C 199.55 177.29 199.39 176.00 198.50 175.30 C 197.61 174.59 196.32 174.75 195.62 175.64 Z M 194.98 176.45 L 194.34 177.25 C 193.64 178.13 193.78 179.42 194.67 180.13 C 195.55 180.84 196.84 180.70 197.55 179.81 L 198.19 179.01 C 198.90 178.12 198.76 176.83 197.87 176.12 C 196.98 175.42 195.69 175.56 194.98 176.45 Z M 194.35 177.24 L 193.72 178.02 C 193.00 178.90 193.14 180.19 194.02 180.91 C 194.90 181.62 196.19 181.49 196.91 180.60 L 197.54 179.82 C 198.26 178.94 198.12 177.65 197.24 176.93 C 196.36 176.22 195.07 176.36 194.35 177.24 Z M 193.73 178.01 L 193.10 178.77 C 192.38 179.65 192.51 180.94 193.38 181.66 C 194.26 182.38 195.55 182.25 196.27 181.38 L 196.90 180.61 C 197.62 179.74 197.49 178.45 196.62 177.73 C 195.74 177.01 194.45 177.13 193.73 178.01 Z M 193.11 178.76 L 192.50 179.50 C 191.77 180.37 191.89 181.66 192.76 182.39 C 193.63 183.11 194.92 183.00 195.65 182.13 L 196.26 181.39 C 196.99 180.52 196.87 179.22 196.00 178.50 C 195.13 177.77 193.84 177.89 193.11 178.76 Z M 192.50 179.49 L 191.90 180.21 C 191.17 181.07 191.28 182.36 192.15 183.09 C 193.01 183.82 194.31 183.71 195.04 182.85 L 195.64 182.13 C 196.37 181.27 196.26 179.97 195.39 179.25 C 194.53 178.52 193.23 178.63 192.50 179.49 Z M 191.91 180.20 L 191.32 180.88 C 190.59 181.75 190.69 183.04 191.56 183.77 C 192.42 184.51 193.71 184.40 194.44 183.54 L 195.03 182.85 C 195.76 181.99 195.66 180.70 194.80 179.97 C 193.94 179.23 192.64 179.34 191.91 180.20 Z M 191.33 180.88 L 190.77 181.53 C 190.03 182.39 190.13 183.68 190.98 184.42 C 191.84 185.16 193.13 185.06 193.87 184.20 L 194.44 183.55 C 195.17 182.69 195.08 181.40 194.22 180.66 C 193.36 179.92 192.07 180.02 191.33 180.88 Z M 190.78 181.53 L 190.02 182.40 C 189.28 183.25 189.37 184.54 190.22 185.28 C 191.07 186.03 192.37 185.94 193.11 185.08 L 193.86 184.21 C 194.60 183.36 194.51 182.07 193.66 181.33 C 192.81 180.58 191.52 180.68 190.78 181.53 Z M 190.03 182.39 L 189.26 183.26 C 188.52 184.11 188.60 185.40 189.45 186.14 C 190.29 186.89 191.58 186.81 192.33 185.96 L 193.10 185.09 C 193.84 184.24 193.76 182.95 192.91 182.21 C 192.07 181.46 190.77 181.54 190.03 182.39 Z M 189.28 183.25 L 188.55 184.06 C 187.80 184.90 187.88 186.19 188.72 186.94 C 189.56 187.69 190.84 187.62 191.59 186.78 L 192.32 185.97 C 193.07 185.13 192.99 183.84 192.15 183.09 C 191.32 182.34 190.03 182.41 189.28 183.25 Z M 188.57 184.05 L 187.88 184.81 C 187.12 185.65 187.19 186.93 188.02 187.69 C 188.85 188.44 190.14 188.38 190.89 187.55 L 191.58 186.79 C 192.34 185.95 192.27 184.67 191.44 183.91 C 190.61 183.16 189.32 183.22 188.57 184.05 Z M 187.89 184.80 L 187.23 185.52 C 186.47 186.35 186.53 187.63 187.35 188.39 C 188.18 189.15 189.46 189.10 190.22 188.27 L 190.88 187.55 C 191.64 186.73 191.59 185.44 190.76 184.68 C 189.93 183.93 188.65 183.98 187.89 184.80 Z M 187.24 185.51 L 186.61 186.20 C 185.84 187.02 185.89 188.30 186.71 189.06 C 187.53 189.83 188.81 189.78 189.57 188.96 L 190.21 188.28 C 190.97 187.46 190.93 186.18 190.11 185.41 C 189.29 184.65 188.01 184.69 187.24 185.51 Z M 186.62 186.19 L 186.00 186.85 C 185.23 187.66 185.27 188.94 186.08 189.71 C 186.89 190.47 188.17 190.44 188.94 189.63 L 189.56 188.97 C 190.33 188.16 190.29 186.88 189.48 186.11 C 188.67 185.34 187.39 185.38 186.62 186.19 Z M 186.01 186.84 L 185.40 187.48 C 184.63 188.28 184.66 189.56 185.46 190.33 C 186.27 191.11 187.55 191.08 188.32 190.27 L 188.93 189.63 C 189.70 188.83 189.67 187.55 188.87 186.78 C 188.06 186.00 186.78 186.03 186.01 186.84 Z M 185.41 187.47 L 184.80 188.10 C 184.03 188.90 184.05 190.18 184.85 190.95 C 185.65 191.73 186.93 191.70 187.70 190.90 L 188.31 190.27 C 189.08 189.47 189.06 188.20 188.26 187.42 C 187.46 186.65 186.18 186.67 185.41 187.47 Z M 184.81 188.10 L 184.14 188.79 C 183.36 189.59 183.38 190.86 184.18 191.64 C 184.97 192.41 186.25 192.39 187.02 191.60 L 187.69 190.91 C 188.47 190.11 188.45 188.83 187.66 188.06 C 186.86 187.28 185.58 187.30 184.81 188.10 Z M 184.14 188.79 L 183.45 189.49 C 182.68 190.29 182.69 191.56 183.49 192.33 C 184.28 193.11 185.55 193.10 186.33 192.30 L 187.02 191.60 C 187.79 190.80 187.78 189.53 186.99 188.76 C 186.19 187.98 184.92 187.99 184.14 188.79 Z M 183.46 189.49 L 182.76 190.20 C 181.99 190.99 182.00 192.26 182.79 193.04 C 183.58 193.81 184.86 193.80 185.63 193.01 L 186.32 192.30 C 187.10 191.51 187.09 190.24 186.30 189.46 C 185.50 188.69 184.23 188.70 183.46 189.49 Z M 182.77 190.20 L 182.07 190.91 C 181.30 191.70 181.31 192.97 182.10 193.75 C 182.89 194.52 184.16 194.51 184.93 193.72 L 185.63 193.01 C 186.40 192.22 186.39 190.95 185.60 190.17 C 184.81 189.40 183.54 189.41 182.77 190.20 Z M 182.07 190.92 L 181.37 191.63 C 180.60 192.42 180.61 193.69 181.40 194.46 C 182.19 195.23 183.46 195.22 184.23 194.43 L 184.93 193.71 C 185.71 192.92 185.69 191.66 184.90 190.88 C 184.11 190.11 182.84 190.13 182.07 190.92 Z M 181.37 191.64 L 180.67 192.36 C 179.90 193.15 179.92 194.42 180.71 195.19 C 181.50 195.95 182.77 195.94 183.53 195.14 L 184.24 194.42 C 185.00 193.63 184.99 192.37 184.19 191.60 C 183.40 190.83 182.14 190.85 181.37 191.64 Z M 180.66 192.37 L 179.96 193.10 C 179.20 193.89 179.22 195.16 180.01 195.92 C 180.81 196.68 182.07 196.66 182.84 195.87 L 183.54 195.14 C 184.30 194.34 184.28 193.08 183.49 192.32 C 182.69 191.55 181.43 191.58 180.66 192.37 Z M 179.96 193.11 L 179.25 193.85 C 178.49 194.64 178.52 195.90 179.32 196.66 C 180.12 197.42 181.38 197.39 182.14 196.59 L 182.84 195.86 C 183.60 195.06 183.57 193.80 182.77 193.04 C 181.98 192.28 180.72 192.31 179.96 193.11 Z M 179.25 193.86 L 178.62 194.52 C 177.87 195.32 177.91 196.58 178.71 197.34 C 179.51 198.09 180.76 198.05 181.52 197.25 L 182.14 196.58 C 182.90 195.78 182.86 194.53 182.06 193.77 C 181.26 193.02 180.00 193.06 179.25 193.86 Z M 178.62 194.53 L 178.00 195.19 C 177.25 196.00 177.30 197.25 178.10 198.00 C 178.90 198.75 180.16 198.70 180.90 197.90 L 181.52 197.24 C 182.27 196.44 182.22 195.18 181.42 194.43 C 180.62 193.69 179.36 193.73 178.62 194.53 Z M 178.00 195.20 L 177.37 195.87 C 176.63 196.68 176.68 197.93 177.48 198.67 C 178.28 199.42 179.54 199.37 180.28 198.57 L 180.91 197.89 C 181.65 197.09 181.60 195.84 180.80 195.09 C 180.00 194.35 178.74 194.40 178.00 195.20 Z M 177.38 195.88 L 176.74 196.57 C 175.99 197.37 176.04 198.62 176.85 199.37 C 177.65 200.11 178.90 200.06 179.64 199.26 L 180.28 198.56 C 181.02 197.76 180.97 196.51 180.17 195.77 C 179.37 195.03 178.12 195.08 177.38 195.88 Z M 176.74 196.57 L 176.08 197.29 C 175.34 198.09 175.39 199.34 176.19 200.08 C 176.99 200.82 178.24 200.77 178.98 199.97 L 179.64 199.25 C 180.38 198.45 180.33 197.20 179.53 196.46 C 178.73 195.72 177.48 195.77 176.74 196.57 Z M 176.09 197.29 L 175.40 198.02 C 174.66 198.82 174.71 200.07 175.51 200.81 C 176.30 201.55 177.55 201.50 178.29 200.70 L 178.97 199.97 C 179.71 199.17 179.67 197.92 178.87 197.18 C 178.07 196.44 176.83 196.49 176.09 197.29 Z M 175.41 198.02 L 174.70 198.79 C 173.95 199.58 174.00 200.82 174.79 201.57 C 175.59 202.31 176.83 202.26 177.57 201.47 L 178.28 200.70 C 179.03 199.91 178.98 198.67 178.19 197.92 C 177.39 197.18 176.15 197.23 175.41 198.02 Z M 174.70 198.78 L 173.96 199.58 C 173.21 200.37 173.25 201.61 174.04 202.35 C 174.83 203.10 176.07 203.06 176.82 202.27 L 177.56 201.47 C 178.31 200.68 178.27 199.44 177.48 198.70 C 176.69 197.95 175.45 197.99 174.70 198.78 Z M 173.96 199.57 L 173.18 200.40 C 172.43 201.19 172.46 202.43 173.25 203.17 C 174.03 203.92 175.27 203.89 176.02 203.10 L 176.81 202.27 C 177.55 201.49 177.52 200.25 176.73 199.50 C 175.95 198.76 174.71 198.79 173.96 199.57 Z M 173.19 200.40 L 172.49 201.12 C 171.74 201.90 171.77 203.14 172.55 203.89 C 173.33 204.64 174.57 204.61 175.31 203.83 L 176.01 203.11 C 176.76 202.33 176.73 201.09 175.95 200.34 C 175.17 199.59 173.93 199.62 173.19 200.40 Z M 172.50 201.12 L 171.86 201.79 C 171.11 202.56 171.13 203.80 171.90 204.55 C 172.68 205.30 173.91 205.28 174.66 204.50 L 175.31 203.84 C 176.06 203.06 176.03 201.82 175.26 201.07 C 174.48 200.32 173.25 200.35 172.50 201.12 Z M 171.86 201.78 L 171.20 202.46 C 170.45 203.23 170.46 204.47 171.23 205.22 C 172.00 205.97 173.24 205.96 173.99 205.19 L 174.65 204.50 C 175.41 203.73 175.39 202.50 174.62 201.75 C 173.85 201.00 172.61 201.01 171.86 201.78 Z M 171.21 202.46 L 170.52 203.16 C 169.77 203.92 169.78 205.16 170.55 205.91 C 171.31 206.66 172.55 206.65 173.30 205.89 L 173.98 205.19 C 174.74 204.42 174.72 203.19 173.96 202.44 C 173.19 201.68 171.96 201.69 171.21 202.46 Z M 170.53 203.15 L 169.83 203.86 C 169.07 204.62 169.08 205.86 169.84 206.61 C 170.61 207.36 171.84 207.36 172.59 206.60 L 173.29 205.89 C 174.05 205.13 174.04 203.89 173.28 203.14 C 172.51 202.39 171.28 202.39 170.53 203.15 Z M 169.84 203.86 L 169.12 204.58 C 168.37 205.33 168.37 206.56 169.13 207.32 C 169.88 208.08 171.11 208.07 171.87 207.31 L 172.58 206.60 C 173.34 205.84 173.34 204.61 172.58 203.86 C 171.82 203.10 170.59 203.10 169.84 203.86 Z M 169.13 204.57 L 168.40 205.30 C 167.65 206.05 167.64 207.28 168.40 208.03 C 169.15 208.79 170.38 208.79 171.14 208.04 L 171.86 207.32 C 172.62 206.56 172.62 205.34 171.87 204.58 C 171.11 203.82 169.89 203.82 169.13 204.57 Z M 168.41 205.29 L 167.68 206.02 C 166.92 206.77 166.91 207.99 167.66 208.75 C 168.41 209.51 169.64 209.52 170.40 208.77 L 171.13 208.04 C 171.89 207.29 171.90 206.07 171.15 205.31 C 170.39 204.55 169.17 204.54 168.41 205.29 Z M 167.68 206.01 L 166.94 206.74 C 166.18 207.49 166.17 208.71 166.92 209.47 C 167.66 210.23 168.89 210.24 169.65 209.50 L 170.39 208.77 C 171.15 208.02 171.16 206.80 170.41 206.04 C 169.67 205.28 168.45 205.27 167.68 206.01 Z M 166.95 206.74 L 166.21 207.46 C 165.45 208.20 165.43 209.42 166.17 210.19 C 166.91 210.95 168.13 210.97 168.90 210.22 L 169.64 209.50 C 170.40 208.76 170.42 207.54 169.68 206.77 C 168.94 206.01 167.72 206.00 166.95 206.74 Z M 166.22 207.46 L 165.47 208.18 C 164.71 208.91 164.69 210.13 165.42 210.90 C 166.16 211.66 167.38 211.68 168.14 210.94 L 168.89 210.23 C 169.65 209.49 169.68 208.27 168.94 207.51 C 168.20 206.74 166.98 206.72 166.22 207.46 Z M 165.48 208.17 L 164.74 208.88 C 163.97 209.61 163.95 210.83 164.68 211.60 C 165.41 212.36 166.63 212.39 167.39 211.66 L 168.14 210.95 C 168.90 210.21 168.93 209.00 168.20 208.23 C 167.46 207.47 166.25 207.44 165.48 208.17 Z M 164.75 208.88 L 164.01 209.58 C 163.24 210.30 163.21 211.52 163.94 212.29 C 164.67 213.05 165.88 213.09 166.65 212.36 L 167.39 211.66 C 168.15 210.93 168.19 209.72 167.46 208.95 C 166.73 208.18 165.52 208.15 164.75 208.88 Z M 164.02 209.57 L 163.29 210.26 C 162.52 210.98 162.48 212.19 163.20 212.96 C 163.93 213.73 165.13 213.77 165.90 213.05 L 166.64 212.36 C 167.41 211.64 167.44 210.43 166.72 209.66 C 166.00 208.89 164.79 208.85 164.02 209.57 Z M 163.30 210.26 L 162.58 210.94 C 161.81 211.65 161.76 212.85 162.47 213.62 C 163.19 214.39 164.39 214.44 165.16 213.72 L 165.89 213.05 C 166.66 212.33 166.71 211.13 165.99 210.36 C 165.28 209.59 164.07 209.55 163.30 210.26 Z M 162.59 210.93 L 161.86 211.60 C 161.09 212.31 161.04 213.50 161.75 214.28 C 162.45 215.05 163.65 215.10 164.42 214.39 L 165.15 213.73 C 165.92 213.02 165.97 211.82 165.26 211.05 C 164.56 210.28 163.36 210.23 162.59 210.93 Z M 161.88 211.60 L 161.15 212.26 C 160.38 212.96 160.32 214.15 161.02 214.92 C 161.71 215.69 162.91 215.75 163.68 215.05 L 164.41 214.39 C 165.18 213.70 165.24 212.50 164.54 211.73 C 163.84 210.96 162.65 210.90 161.88 211.60 Z M 161.16 212.25 L 160.43 212.91 C 159.66 213.60 159.59 214.78 160.28 215.56 C 160.97 216.33 162.16 216.40 162.93 215.71 L 163.66 215.06 C 164.44 214.37 164.50 213.18 163.81 212.41 C 163.12 211.63 161.94 211.56 161.16 212.25 Z M 160.45 212.90 L 159.71 213.55 C 158.94 214.23 158.86 215.41 159.54 216.19 C 160.22 216.96 161.40 217.04 162.18 216.36 L 162.92 215.71 C 163.69 215.03 163.77 213.85 163.09 213.07 C 162.40 212.30 161.22 212.22 160.45 212.90 Z M 159.73 213.55 L 158.98 214.19 C 158.21 214.86 158.12 216.04 158.79 216.82 C 159.47 217.59 160.64 217.68 161.42 217.01 L 162.16 216.36 C 162.94 215.69 163.02 214.51 162.35 213.74 C 161.68 212.96 160.51 212.88 159.73 213.55 Z M 159.00 214.19 L 158.25 214.83 C 157.47 215.50 157.37 216.66 158.04 217.44 C 158.70 218.22 159.87 218.31 160.65 217.65 L 161.40 217.01 C 162.18 216.35 162.27 215.18 161.61 214.40 C 160.95 213.62 159.78 213.53 159.00 214.19 Z M 158.26 214.83 L 157.49 215.47 C 156.71 216.13 156.61 217.29 157.27 218.07 C 157.92 218.85 159.08 218.95 159.86 218.30 L 160.63 217.65 C 161.41 217.00 161.51 215.84 160.86 215.06 C 160.20 214.28 159.04 214.18 158.26 214.83 Z M 157.51 215.47 L 156.73 216.11 C 155.95 216.76 155.84 217.91 156.48 218.70 C 157.13 219.48 158.28 219.59 159.06 218.95 L 159.85 218.30 C 160.63 217.66 160.74 216.50 160.09 215.72 C 159.45 214.94 158.29 214.83 157.51 215.47 Z M 156.75 216.11 L 155.95 216.76 C 155.16 217.39 155.04 218.54 155.68 219.33 C 156.31 220.11 157.46 220.23 158.25 219.60 L 159.05 218.95 C 159.83 218.31 159.95 217.16 159.31 216.38 C 158.68 215.60 157.53 215.48 156.75 216.11 Z M 155.96 216.76 L 155.15 217.41 C 154.36 218.04 154.23 219.18 154.86 219.96 C 155.48 220.75 156.63 220.88 157.41 220.25 L 158.23 219.60 C 159.02 218.97 159.14 217.83 158.52 217.04 C 157.89 216.26 156.75 216.13 155.96 216.76 Z M 155.16 217.41 L 154.36 218.04 C 153.58 218.65 153.44 219.79 154.06 220.58 C 154.67 221.36 155.81 221.50 156.60 220.88 L 157.40 220.25 C 158.18 219.64 158.32 218.50 157.70 217.71 C 157.09 216.93 155.95 216.79 155.16 217.41 Z M 154.38 218.04 L 153.56 218.67 C 152.78 219.27 152.63 220.40 153.24 221.19 C 153.85 221.98 154.98 222.12 155.77 221.51 L 156.58 220.88 C 157.37 220.27 157.51 219.14 156.90 218.36 C 156.29 217.57 155.16 217.43 154.38 218.04 Z M 153.58 218.66 L 152.75 219.29 C 151.97 219.89 151.81 221.02 152.41 221.80 C 153.01 222.59 154.14 222.74 154.92 222.14 L 155.75 221.51 C 156.54 220.91 156.69 219.79 156.09 219.00 C 155.49 218.22 154.37 218.07 153.58 218.66 Z M 152.77 219.29 L 151.93 219.92 C 151.15 220.51 150.99 221.63 151.58 222.41 C 152.17 223.20 153.28 223.36 154.07 222.77 L 154.91 222.14 C 155.69 221.55 155.85 220.44 155.26 219.65 C 154.67 218.86 153.56 218.70 152.77 219.29 Z M 151.95 219.92 L 151.11 220.54 C 150.32 221.12 150.16 222.23 150.74 223.02 C 151.32 223.80 152.42 223.97 153.21 223.39 L 154.05 222.77 C 154.84 222.19 155.01 221.08 154.43 220.29 C 153.85 219.51 152.74 219.34 151.95 219.92 Z M 151.13 220.54 L 150.28 221.15 C 149.50 221.72 149.32 222.82 149.89 223.61 C 150.46 224.40 151.56 224.57 152.35 224.00 L 153.19 223.39 C 153.98 222.82 154.16 221.72 153.59 220.93 C 153.01 220.14 151.91 219.97 151.13 220.54 Z M 150.30 221.15 L 149.46 221.75 C 148.67 222.31 148.49 223.41 149.05 224.19 C 149.61 224.98 150.71 225.16 151.49 224.60 L 152.33 224.00 C 153.12 223.44 153.31 222.35 152.74 221.56 C 152.18 220.77 151.09 220.59 150.30 221.15 Z M 149.48 221.75 L 148.64 222.33 C 147.85 222.89 147.66 223.97 148.21 224.76 C 148.77 225.55 149.85 225.74 150.64 225.19 L 151.47 224.60 C 152.26 224.05 152.46 222.97 151.90 222.18 C 151.35 221.39 150.27 221.20 149.48 221.75 Z M 148.66 222.33 L 147.84 222.90 C 147.05 223.44 146.84 224.52 147.39 225.31 C 147.93 226.10 149.00 226.30 149.79 225.76 L 150.62 225.19 C 151.41 224.65 151.61 223.57 151.07 222.78 C 150.53 221.99 149.45 221.79 148.66 222.33 Z M 147.86 222.90 L 147.04 223.44 C 146.25 223.97 146.04 225.04 146.57 225.83 C 147.10 226.62 148.17 226.83 148.96 226.30 L 149.77 225.76 C 150.56 225.23 150.77 224.16 150.25 223.37 C 149.72 222.58 148.65 222.37 147.86 222.90 Z M 147.06 223.44 L 146.27 223.96 C 145.47 224.48 145.25 225.54 145.77 226.33 C 146.29 227.12 147.35 227.35 148.14 226.83 L 148.94 226.31 C 149.73 225.79 149.95 224.73 149.43 223.94 C 148.92 223.14 147.86 222.92 147.06 223.44 Z M 146.29 223.96 L 145.51 224.45 C 144.72 224.96 144.48 226.01 144.99 226.80 C 145.49 227.60 146.55 227.83 147.34 227.33 L 148.12 226.83 C 148.91 226.33 149.15 225.28 148.64 224.48 C 148.14 223.69 147.08 223.45 146.29 223.96 Z M 145.54 224.45 L 144.78 224.91 C 143.99 225.40 143.74 226.44 144.23 227.24 C 144.72 228.04 145.76 228.29 146.56 227.80 L 147.31 227.33 C 148.11 226.84 148.36 225.80 147.87 225.00 C 147.38 224.20 146.33 223.96 145.54 224.45 Z M 144.82 224.90 L 143.79 225.51 C 142.99 225.98 142.72 227.01 143.20 227.81 C 143.67 228.61 144.70 228.88 145.50 228.41 L 146.53 227.80 C 147.33 227.33 147.59 226.30 147.12 225.50 C 146.65 224.70 145.62 224.43 144.82 224.90 Z M 143.83 225.50 L 142.84 226.05 C 142.04 226.50 141.75 227.52 142.19 228.32 C 142.64 229.13 143.66 229.42 144.46 228.97 L 145.46 228.42 C 146.26 227.97 146.55 226.95 146.10 226.15 C 145.66 225.34 144.64 225.05 143.83 225.50 Z M 142.88 226.05 L 141.93 226.54 C 141.12 226.97 140.81 227.97 141.24 228.78 C 141.66 229.59 142.66 229.90 143.47 229.47 L 144.42 228.98 C 145.23 228.55 145.54 227.55 145.12 226.74 C 144.69 225.93 143.69 225.62 142.88 226.05 Z M 141.97 226.54 L 141.06 226.99 C 140.25 227.39 139.92 228.38 140.32 229.19 C 140.73 230.00 141.71 230.33 142.52 229.93 L 143.43 229.48 C 144.24 229.08 144.58 228.09 144.17 227.28 C 143.77 226.47 142.79 226.14 141.97 226.54 Z M 141.10 226.99 L 140.22 227.40 C 139.41 227.78 139.06 228.75 139.44 229.56 C 139.82 230.38 140.79 230.73 141.61 230.35 L 142.48 229.93 C 143.30 229.55 143.65 228.58 143.27 227.77 C 142.88 226.96 141.91 226.61 141.10 226.99 Z M 140.26 227.40 L 139.40 227.78 C 138.59 228.14 138.23 229.10 138.59 229.91 C 138.95 230.73 139.91 231.09 140.72 230.73 L 141.57 230.35 C 142.39 229.98 142.75 229.03 142.39 228.21 C 142.02 227.40 141.07 227.04 140.26 227.40 Z M 139.43 227.78 L 138.60 228.14 C 137.79 228.49 137.41 229.43 137.76 230.24 C 138.11 231.05 139.05 231.43 139.86 231.08 L 140.69 230.72 C 141.51 230.37 141.88 229.43 141.53 228.62 C 141.18 227.81 140.24 227.44 139.43 227.78 Z M 138.62 228.15 L 137.80 228.49 C 136.99 228.83 136.61 229.75 136.95 230.56 C 137.28 231.37 138.21 231.75 139.02 231.42 L 139.84 231.07 C 140.65 230.74 141.03 229.81 140.69 229.00 C 140.36 228.19 139.43 227.81 138.62 228.15 Z M 137.81 228.50 L 137.00 228.83 C 136.20 229.16 135.81 230.08 136.14 230.88 C 136.47 231.69 137.39 232.07 138.19 231.74 L 139.01 231.41 C 139.81 231.08 140.19 230.16 139.86 229.36 C 139.54 228.55 138.62 228.17 137.81 228.50 Z"
      fill="black"
      fill-rule="nonzero" /></svg>