<svg xmlns="http://www.w3.org/2000/svg" width="300" height="300" viewBox="0 0 300 300">
<path d="M 169.05 162.49 L 169.05 161.46 C 169.04 160.52 168.28 159.76 167.34 159.76 C 166.41 159.77 165.65 160.53 165.65 161.47 L 165.65 162.50 C 165.65 163.43 166.41 164.19 167.35 164.19 C 168.29 164.19 169.05 163.43 169.05 162.49 Z M 169.07 161.44 L 169.06 160.42 C 169.04 159.47 168.26 158.70 167.31 158.72 C 166.36 158.73 165.60 159.51 165.61 160.46 L 165.62 161.49 C 165.64 162.44 166.42 163.20 167.37 163.19 C 168.32 163.17 169.08 162.39 169.07 161.44 Z M 169.08 160.38 L 169.04 159.36 C 169.01 158.40 168.20 157.65 167.23 157.68 C 166.27 157.71 165.52 158.52 165.55 159.49 L 165.59 160.50 C 165.62 161.47 166.43 162.22 167.40 162.18 C 168.36 162.15 169.11 161.34 169.08 160.38 Z M 169.06 159.30 L 168.99 158.30 C 168.92 157.32 168.08 156.59 167.10 156.66 C 166.13 156.73 165.39 157.57 165.46 158.55 L 165.53 159.55 C 165.60 160.52 166.45 161.26 167.42 161.19 C 168.40 161.12 169.13 160.27 169.06 159.30 Z M 169.01 158.21 L 168.89 157.23 C 168.77 156.24 167.88 155.54 166.90 155.66 C 165.91 155.77 165.21 156.67 165.33 157.65 L 165.45 158.63 C 165.56 159.62 166.45 160.32 167.44 160.20 C 168.42 160.08 169.12 159.19 169.01 158.21 Z M 168.89 157.11 L 168.72 156.15 C 168.54 155.16 167.60 154.51 166.61 154.69 C 165.62 154.87 164.97 155.81 165.15 156.80 L 165.32 157.76 C 165.50 158.75 166.45 159.40 167.43 159.22 C 168.42 159.04 169.07 158.10 168.89 157.11 Z M 168.71 156.01 L 168.47 155.07 C 168.21 154.09 167.21 153.50 166.23 153.76 C 165.24 154.01 164.65 155.02 164.91 156.00 L 165.15 156.94 C 165.41 157.92 166.41 158.51 167.40 158.25 C 168.38 158.00 168.97 156.99 168.71 156.01 Z M 168.44 154.91 L 168.11 154.00 C 167.77 153.03 166.70 152.53 165.74 152.88 C 164.77 153.22 164.27 154.29 164.61 155.25 L 164.94 156.16 C 165.29 157.13 166.35 157.63 167.32 157.29 C 168.28 156.94 168.79 155.88 168.44 154.91 Z M 168.05 153.82 L 167.63 152.94 C 167.19 152.01 166.08 151.61 165.14 152.05 C 164.21 152.50 163.81 153.61 164.26 154.54 L 164.68 155.43 C 165.12 156.36 166.23 156.76 167.16 156.31 C 168.10 155.87 168.49 154.76 168.05 153.82 Z M 167.55 152.77 L 167.04 151.94 C 166.50 151.05 165.35 150.77 164.47 151.30 C 163.59 151.84 163.30 152.99 163.84 153.87 L 164.34 154.71 C 164.88 155.60 166.03 155.88 166.91 155.34 C 167.80 154.81 168.08 153.66 167.55 152.77 Z M 166.93 151.78 L 166.34 150.99 C 165.72 150.17 164.54 150.00 163.72 150.63 C 162.89 151.25 162.73 152.43 163.35 153.25 L 163.94 154.04 C 164.57 154.86 165.74 155.03 166.57 154.40 C 167.39 153.78 167.56 152.60 166.93 151.78 Z M 166.22 150.84 L 165.54 150.12 C 164.83 149.36 163.64 149.32 162.89 150.03 C 162.13 150.74 162.09 151.92 162.80 152.68 L 163.48 153.40 C 164.18 154.16 165.37 154.20 166.13 153.49 C 166.89 152.78 166.92 151.60 166.22 150.84 Z M 165.40 149.97 L 164.64 149.32 C 163.85 148.64 162.66 148.73 161.99 149.52 C 161.31 150.30 161.40 151.49 162.18 152.17 L 162.94 152.82 C 163.73 153.50 164.92 153.41 165.59 152.63 C 166.27 151.84 166.18 150.65 165.40 149.97 Z M 164.48 149.19 L 163.64 148.62 C 162.78 148.03 161.61 148.25 161.02 149.10 C 160.43 149.96 160.65 151.13 161.51 151.72 L 162.34 152.30 C 163.20 152.89 164.37 152.67 164.96 151.81 C 165.55 150.95 165.33 149.78 164.48 149.19 Z M 163.46 148.51 L 162.55 148.02 C 161.63 147.53 160.49 147.87 160.00 148.79 C 159.51 149.71 159.85 150.85 160.77 151.34 L 161.68 151.83 C 162.60 152.32 163.74 151.98 164.24 151.06 C 164.73 150.14 164.38 149.00 163.46 148.51 Z M 162.37 147.93 L 161.47 147.56 C 160.50 147.17 159.40 147.63 159.00 148.60 C 158.61 149.57 159.08 150.67 160.04 151.06 L 160.95 151.43 C 161.91 151.82 163.02 151.36 163.41 150.39 C 163.80 149.42 163.34 148.32 162.37 147.93 Z M 161.31 147.50 L 160.39 147.22 C 159.39 146.91 158.33 147.48 158.02 148.48 C 157.72 149.48 158.28 150.54 159.28 150.85 L 160.20 151.13 C 161.20 151.43 162.26 150.87 162.57 149.87 C 162.88 148.87 162.31 147.81 161.31 147.50 Z M 160.26 147.17 L 159.31 146.96 C 158.28 146.72 157.26 147.36 157.02 148.39 C 156.79 149.41 157.43 150.44 158.46 150.67 L 159.41 150.89 C 160.44 151.13 161.46 150.48 161.70 149.46 C 161.93 148.43 161.29 147.41 160.26 147.17 Z M 159.20 146.93 L 158.21 146.76 C 157.17 146.58 156.18 147.29 156.01 148.33 C 155.83 149.37 156.53 150.36 157.58 150.53 L 158.56 150.70 C 159.61 150.88 160.59 150.17 160.77 149.13 C 160.95 148.09 160.24 147.10 159.20 146.93 Z M 158.12 146.74 L 157.11 146.62 C 156.06 146.49 155.10 147.24 154.98 148.30 C 154.85 149.35 155.60 150.31 156.66 150.43 L 157.66 150.56 C 158.72 150.68 159.68 149.93 159.80 148.88 C 159.93 147.82 159.18 146.87 158.12 146.74 Z M 157.04 146.60 L 156.02 146.52 C 154.96 146.43 154.03 147.22 153.94 148.28 C 153.85 149.34 154.64 150.28 155.70 150.36 L 156.73 150.45 C 157.79 150.54 158.72 149.75 158.81 148.68 C 158.90 147.62 158.11 146.69 157.04 146.60 Z M 155.97 146.50 L 154.94 146.45 C 153.88 146.39 152.96 147.21 152.90 148.28 C 152.84 149.35 153.66 150.26 154.73 150.32 L 155.76 150.38 C 156.83 150.44 157.74 149.62 157.80 148.55 C 157.86 147.48 157.04 146.56 155.97 146.50 Z M 154.91 146.44 L 153.89 146.40 C 152.81 146.37 151.91 147.21 151.87 148.28 C 151.84 149.36 152.68 150.26 153.75 150.30 L 154.77 150.33 C 155.85 150.37 156.75 149.53 156.79 148.45 C 156.82 147.38 155.98 146.48 154.91 146.44 Z M 153.87 146.39 L 152.86 146.37 C 151.78 146.35 150.89 147.20 150.86 148.28 C 150.84 149.36 151.70 150.26 152.78 150.28 L 153.78 150.30 C 154.86 150.33 155.75 149.47 155.78 148.39 C 155.80 147.31 154.95 146.42 153.87 146.39 Z M 152.85 146.37 L 151.80 146.35 C 150.72 146.33 149.83 147.19 149.81 148.27 C 149.79 149.36 150.65 150.25 151.73 150.27 L 152.79 150.29 C 153.87 150.31 154.76 149.44 154.78 148.36 C 154.80 147.28 153.94 146.38 152.85 146.37 Z M 151.79 146.35 L 150.76 146.33 C 149.68 146.32 148.79 147.19 148.78 148.27 C 148.76 149.35 149.63 150.24 150.71 150.26 L 151.74 150.27 C 152.83 150.28 153.71 149.42 153.73 148.33 C 153.74 147.25 152.87 146.36 151.79 146.35 Z M 150.75 146.33 L 149.75 146.33 C 148.66 146.32 147.78 147.19 147.77 148.27 C 147.76 149.35 148.63 150.24 149.71 150.25 L 150.72 150.26 C 151.81 150.26 152.69 149.39 152.70 148.31 C 152.71 147.23 151.84 146.34 150.75 146.33 Z M 149.74 146.33 L 148.74 146.32 C 147.66 146.32 146.78 147.20 146.78 148.28 C 146.77 149.36 147.65 150.24 148.73 150.25 L 149.72 150.25 C 150.81 150.25 151.69 149.38 151.69 148.29 C 151.69 147.21 150.82 146.33 149.74 146.33 Z M 148.73 146.32 L 147.75 146.33 C 146.67 146.33 145.79 147.21 145.79 148.29 C 145.80 149.37 146.68 150.25 147.76 150.25 L 148.74 150.25 C 149.82 150.24 150.70 149.36 150.70 148.28 C 150.70 147.20 149.82 146.32 148.73 146.32 Z M 147.74 146.33 L 146.76 146.33 C 145.68 146.34 144.81 147.23 144.82 148.31 C 144.82 149.39 145.71 150.26 146.79 150.26 L 147.77 150.25 C 148.85 150.24 149.72 149.36 149.72 148.27 C 149.71 147.19 148.82 146.32 147.74 146.33 Z M 146.75 146.33 L 145.78 146.35 C 144.69 146.36 143.83 147.25 143.84 148.33 C 143.85 149.42 144.74 150.28 145.83 150.27 L 146.80 150.26 C 147.89 150.24 148.75 149.35 148.74 148.27 C 148.73 147.19 147.84 146.32 146.75 146.33 Z M 145.77 146.35 L 144.78 146.36 C 143.70 146.38 142.84 147.28 142.86 148.36 C 142.88 149.44 143.77 150.31 144.85 150.29 L 145.84 150.27 C 146.92 150.25 147.78 149.35 147.76 148.27 C 147.74 147.19 146.85 146.33 145.77 146.35 Z M 144.77 146.36 L 143.82 146.39 C 142.74 146.41 141.88 147.31 141.91 148.39 C 141.93 149.48 142.83 150.33 143.91 150.31 L 144.87 150.29 C 145.95 150.26 146.81 149.36 146.78 148.28 C 146.76 147.20 145.86 146.34 144.77 146.36 Z M 143.80 146.39 L 142.84 146.42 C 141.76 146.46 140.91 147.36 140.95 148.45 C 140.98 149.53 141.89 150.38 142.97 150.34 L 143.93 150.31 C 145.02 150.27 145.86 149.36 145.83 148.28 C 145.79 147.20 144.88 146.35 143.80 146.39 Z M 142.81 146.42 L 141.84 146.47 C 140.76 146.52 139.92 147.44 139.98 148.52 C 140.03 149.61 140.95 150.44 142.03 150.39 L 143.00 150.34 C 144.09 150.29 144.92 149.36 144.87 148.28 C 144.81 147.20 143.89 146.37 142.81 146.42 Z M 141.80 146.47 L 140.82 146.54 C 139.74 146.62 138.92 147.55 139.00 148.63 C 139.07 149.71 140.01 150.53 141.09 150.45 L 142.07 150.38 C 143.15 150.31 143.97 149.37 143.89 148.29 C 143.82 147.21 142.88 146.39 141.80 146.47 Z M 140.77 146.54 L 139.77 146.64 C 138.70 146.74 137.91 147.70 138.01 148.78 C 138.11 149.86 139.07 150.65 140.15 150.54 L 141.14 150.45 C 142.22 150.34 143.01 149.39 142.91 148.31 C 142.80 147.23 141.85 146.44 140.77 146.54 Z M 139.71 146.65 L 138.71 146.77 C 137.63 146.91 136.87 147.89 137.01 148.97 C 137.15 150.04 138.13 150.80 139.20 150.67 L 140.21 150.54 C 141.28 150.40 142.04 149.42 141.91 148.34 C 141.77 147.27 140.79 146.51 139.71 146.65 Z M 138.64 146.78 L 137.62 146.95 C 136.55 147.12 135.83 148.13 136.00 149.20 C 136.18 150.27 137.19 151.00 138.25 150.82 L 139.27 150.66 C 140.34 150.48 141.07 149.47 140.89 148.40 C 140.72 147.34 139.71 146.61 138.64 146.78 Z M 137.55 146.96 L 136.52 147.17 C 135.46 147.39 134.77 148.42 134.99 149.49 C 135.20 150.55 136.24 151.23 137.30 151.02 L 138.33 150.81 C 139.39 150.59 140.08 149.56 139.86 148.50 C 139.65 147.43 138.61 146.75 137.55 146.96 Z M 136.44 147.19 L 135.45 147.43 C 134.40 147.69 133.76 148.75 134.01 149.81 C 134.27 150.86 135.34 151.50 136.39 151.24 L 137.38 151.00 C 138.43 150.74 139.07 149.68 138.81 148.63 C 138.55 147.57 137.49 146.93 136.44 147.19 Z M 135.38 147.45 L 134.43 147.73 C 133.39 148.03 132.79 149.11 133.09 150.15 C 133.39 151.19 134.47 151.79 135.51 151.49 L 136.46 151.22 C 137.50 150.92 138.10 149.84 137.80 148.80 C 137.50 147.76 136.42 147.15 135.38 147.45 Z M 134.36 147.75 L 133.41 148.06 C 132.38 148.39 131.82 149.50 132.16 150.53 C 132.49 151.56 133.60 152.12 134.63 151.78 L 135.58 151.47 C 136.61 151.14 137.17 150.03 136.83 149.00 C 136.50 147.97 135.39 147.41 134.36 147.75 Z M 133.35 148.08 L 132.40 148.43 C 131.38 148.80 130.86 149.92 131.23 150.94 C 131.60 151.95 132.72 152.48 133.74 152.11 L 134.69 151.76 C 135.70 151.39 136.23 150.27 135.86 149.25 C 135.49 148.24 134.36 147.71 133.35 148.08 Z M 132.34 148.45 L 131.40 148.83 C 130.39 149.24 129.91 150.37 130.31 151.38 C 130.72 152.38 131.85 152.86 132.86 152.46 L 133.80 152.08 C 134.80 151.68 135.29 150.54 134.88 149.54 C 134.48 148.53 133.34 148.05 132.34 148.45 Z M 131.34 148.86 L 130.41 149.27 C 129.42 149.70 128.97 150.86 129.41 151.85 C 129.84 152.83 131.00 153.28 131.99 152.84 L 132.92 152.43 C 133.90 152.00 134.35 150.85 133.91 149.86 C 133.48 148.87 132.33 148.42 131.34 148.86 Z M 130.35 149.30 L 129.44 149.73 C 128.47 150.20 128.06 151.37 128.52 152.34 C 128.99 153.31 130.16 153.72 131.13 153.26 L 132.04 152.82 C 133.02 152.35 133.42 151.18 132.96 150.21 C 132.49 149.24 131.32 148.83 130.35 149.30 Z M 129.38 149.77 L 128.49 150.23 C 127.54 150.73 127.17 151.91 127.67 152.86 C 128.17 153.82 129.34 154.19 130.30 153.69 L 131.19 153.22 C 132.14 152.73 132.51 151.55 132.01 150.59 C 131.52 149.64 130.34 149.27 129.38 149.77 Z M 128.43 150.26 L 127.57 150.75 C 126.64 151.28 126.31 152.47 126.84 153.41 C 127.37 154.35 128.56 154.67 129.50 154.14 L 130.36 153.66 C 131.29 153.12 131.62 151.93 131.09 151.00 C 130.56 150.06 129.37 149.73 128.43 150.26 Z M 127.51 150.79 L 126.66 151.31 C 125.75 151.88 125.46 153.08 126.03 153.99 C 126.59 154.91 127.79 155.19 128.71 154.63 L 129.56 154.11 C 130.47 153.54 130.76 152.34 130.19 151.42 C 129.63 150.51 128.43 150.22 127.51 150.79 Z M 126.60 151.36 L 125.71 151.96 C 124.82 152.56 124.59 153.77 125.19 154.66 C 125.79 155.55 127.00 155.78 127.89 155.18 L 128.78 154.58 C 129.67 153.98 129.90 152.77 129.30 151.88 C 128.70 150.99 127.49 150.76 126.60 151.36 Z M 125.63 152.02 L 124.80 152.65 C 123.94 153.29 123.77 154.51 124.41 155.37 C 125.06 156.22 126.28 156.40 127.14 155.75 L 127.97 155.12 C 128.83 154.48 129.00 153.26 128.35 152.40 C 127.71 151.54 126.49 151.37 125.63 152.02 Z M 124.71 152.72 L 123.93 153.38 C 123.12 154.07 123.02 155.30 123.71 156.11 C 124.41 156.93 125.63 157.03 126.45 156.34 L 127.22 155.68 C 128.04 154.98 128.14 153.76 127.44 152.94 C 126.75 152.13 125.53 152.03 124.71 152.72 Z M 123.84 153.47 L 123.13 154.16 C 122.36 154.91 122.34 156.13 123.09 156.90 C 123.83 157.67 125.06 157.68 125.83 156.94 L 126.54 156.25 C 127.31 155.50 127.32 154.28 126.58 153.51 C 125.84 152.74 124.61 152.72 123.84 153.47 Z M 123.03 154.27 L 122.38 155.00 C 121.67 155.80 121.75 157.02 122.55 157.73 C 123.34 158.43 124.57 158.36 125.28 157.56 L 125.92 156.83 C 126.63 156.03 126.56 154.81 125.76 154.10 C 124.96 153.40 123.74 153.47 123.03 154.27 Z M 122.29 155.12 L 121.71 155.89 C 121.07 156.74 121.24 157.95 122.09 158.59 C 122.95 159.23 124.16 159.06 124.80 158.21 L 125.37 157.44 C 126.01 156.59 125.84 155.38 124.99 154.74 C 124.13 154.10 122.93 154.27 122.29 155.12 Z M 121.61 156.04 L 121.11 156.85 C 120.55 157.75 120.83 158.94 121.74 159.50 C 122.64 160.06 123.83 159.78 124.39 158.88 L 124.89 158.06 C 125.45 157.16 125.17 155.97 124.27 155.41 C 123.36 154.85 122.17 155.13 121.61 156.04 Z M 121.03 157.01 L 120.60 157.87 C 120.13 158.82 120.52 159.97 121.47 160.44 C 122.42 160.91 123.58 160.52 124.05 159.57 L 124.47 158.71 C 124.94 157.76 124.55 156.61 123.60 156.14 C 122.65 155.67 121.50 156.06 121.03 157.01 Z M 120.53 158.04 L 120.18 158.98 C 119.80 159.97 120.31 161.08 121.30 161.45 C 122.29 161.82 123.40 161.32 123.77 160.33 L 124.12 159.40 C 124.50 158.40 123.99 157.30 123.00 156.92 C 122.01 156.55 120.90 157.05 120.53 158.04 Z M 120.12 159.15 L 119.86 160.13 C 119.59 161.15 120.19 162.20 121.22 162.47 C 122.24 162.75 123.29 162.14 123.57 161.12 L 123.83 160.15 C 124.10 159.13 123.49 158.07 122.47 157.80 C 121.45 157.53 120.40 158.13 120.12 159.15 Z M 119.83 160.31 L 119.66 161.30 C 119.48 162.34 120.19 163.33 121.23 163.51 C 122.27 163.68 123.26 162.98 123.43 161.94 L 123.60 160.94 C 123.78 159.90 123.07 158.91 122.03 158.74 C 120.99 158.56 120.00 159.26 119.83 160.31 Z M 119.64 161.48 L 119.57 162.49 C 119.49 163.54 120.29 164.46 121.34 164.53 C 122.39 164.61 123.31 163.81 123.38 162.76 L 123.45 161.75 C 123.53 160.70 122.73 159.79 121.68 159.71 C 120.63 159.64 119.72 160.43 119.64 161.48 Z M 119.57 162.68 L 119.59 163.68 C 119.62 164.74 120.50 165.57 121.55 165.54 C 122.60 165.51 123.44 164.63 123.41 163.58 L 123.38 162.58 C 123.35 161.52 122.48 160.69 121.42 160.72 C 120.37 160.75 119.54 161.62 119.57 162.68 Z M 119.61 163.88 L 119.74 164.86 C 119.88 165.91 120.83 166.64 121.87 166.51 C 122.91 166.38 123.65 165.42 123.52 164.38 L 123.39 163.39 C 123.25 162.35 122.30 161.61 121.26 161.74 C 120.22 161.88 119.48 162.83 119.61 163.88 Z M 119.78 165.07 L 120.01 166.03 C 120.26 167.05 121.28 167.67 122.30 167.43 C 123.32 167.18 123.95 166.16 123.71 165.14 L 123.48 164.18 C 123.23 163.16 122.20 162.53 121.18 162.77 C 120.16 163.02 119.54 164.05 119.78 165.07 Z M 120.08 166.24 L 120.42 167.15 C 120.78 168.14 121.87 168.64 122.85 168.28 C 123.83 167.92 124.34 166.83 123.98 165.84 L 123.64 164.93 C 123.28 163.94 122.19 163.44 121.21 163.80 C 120.22 164.16 119.72 165.25 120.08 166.24 Z M 120.51 167.36 L 120.95 168.22 C 121.43 169.15 122.57 169.52 123.50 169.04 C 124.43 168.57 124.80 167.42 124.32 166.49 L 123.88 165.63 C 123.40 164.70 122.26 164.34 121.33 164.81 C 120.40 165.29 120.03 166.43 120.51 167.36 Z M 121.06 168.40 L 121.60 169.21 C 122.17 170.08 123.35 170.32 124.22 169.74 C 125.09 169.17 125.33 167.99 124.75 167.12 L 124.22 166.31 C 123.64 165.44 122.46 165.20 121.59 165.78 C 120.72 166.36 120.48 167.53 121.06 168.40 Z M 121.70 169.36 L 122.32 170.12 C 122.98 170.93 124.17 171.05 124.98 170.40 C 125.79 169.74 125.92 168.55 125.26 167.74 L 124.64 166.98 C 123.99 166.16 122.80 166.04 121.98 166.70 C 121.17 167.35 121.05 168.54 121.70 169.36 Z M 122.42 170.23 L 123.11 170.95 C 123.82 171.71 125.02 171.74 125.78 171.02 C 126.53 170.30 126.56 169.10 125.84 168.35 L 125.16 167.63 C 124.44 166.87 123.25 166.84 122.49 167.56 C 121.73 168.28 121.70 169.47 122.42 170.23 Z M 123.19 171.03 L 123.93 171.72 C 124.70 172.43 125.89 172.38 126.60 171.62 C 127.31 170.85 127.26 169.66 126.50 168.95 L 125.76 168.26 C 124.99 167.56 123.80 167.60 123.09 168.37 C 122.38 169.13 122.43 170.32 123.19 171.03 Z M 124.00 171.78 L 124.78 172.43 C 125.58 173.10 126.77 173.00 127.44 172.20 C 128.11 171.40 128.00 170.21 127.21 169.54 L 126.43 168.89 C 125.63 168.22 124.44 168.32 123.77 169.12 C 123.10 169.92 123.21 171.11 124.00 171.78 Z M 124.84 172.47 L 125.65 173.10 C 126.47 173.74 127.65 173.59 128.29 172.77 C 128.93 171.95 128.78 170.77 127.96 170.13 L 127.15 169.50 C 126.33 168.86 125.15 169.01 124.51 169.83 C 123.87 170.65 124.02 171.84 124.84 172.47 Z M 125.68 173.13 L 126.51 173.73 C 127.34 174.35 128.52 174.17 129.14 173.34 C 129.75 172.50 129.58 171.33 128.74 170.71 L 127.92 170.10 C 127.08 169.48 125.91 169.66 125.29 170.50 C 124.67 171.33 124.85 172.51 125.68 173.13 Z M 126.53 173.75 L 127.17 174.21 C 128.02 174.82 129.19 174.62 129.80 173.78 C 130.40 172.94 130.21 171.76 129.37 171.16 L 128.72 170.69 C 127.88 170.09 126.70 170.28 126.10 171.13 C 125.49 171.97 125.68 173.14 126.53 173.75 Z M 127.19 174.22 L 127.84 174.68 C 128.69 175.27 129.86 175.07 130.45 174.22 C 131.05 173.37 130.84 172.20 130.00 171.60 L 129.35 171.15 C 128.50 170.55 127.33 170.76 126.73 171.61 C 126.14 172.46 126.34 173.63 127.19 174.22 Z M 127.86 174.69 L 128.53 175.15 C 129.39 175.73 130.55 175.51 131.14 174.65 C 131.72 173.80 131.50 172.63 130.65 172.05 L 129.97 171.59 C 129.12 171.01 127.95 171.23 127.37 172.08 C 126.79 172.94 127.01 174.10 127.86 174.69 Z M 128.56 175.16 L 129.26 175.63 C 130.12 176.20 131.28 175.96 131.86 175.10 C 132.43 174.24 132.19 173.08 131.33 172.51 L 130.62 172.04 C 129.76 171.47 128.60 171.70 128.03 172.56 C 127.46 173.43 127.69 174.59 128.56 175.16 Z M 129.28 175.64 L 130.04 176.12 C 130.90 176.68 132.06 176.43 132.62 175.56 C 133.18 174.69 132.93 173.54 132.06 172.98 L 131.31 172.49 C 130.44 171.94 129.28 172.19 128.72 173.05 C 128.17 173.92 128.42 175.08 129.28 175.64 Z M 130.06 176.13 L 130.87 176.64 C 131.74 177.19 132.89 176.92 133.44 176.05 C 133.99 175.17 133.72 174.02 132.85 173.48 L 132.04 172.97 C 131.16 172.42 130.01 172.69 129.47 173.56 C 128.92 174.43 129.18 175.59 130.06 176.13 Z M 130.89 176.65 L 131.77 177.18 C 132.65 177.72 133.80 177.44 134.33 176.56 C 134.87 175.68 134.59 174.54 133.71 174.00 L 132.83 173.47 C 131.95 172.93 130.80 173.21 130.27 174.09 C 129.73 174.97 130.01 176.11 130.89 176.65 Z M 131.79 177.19 L 132.75 177.76 C 133.63 178.29 134.78 178.00 135.30 177.12 C 135.83 176.23 135.54 175.09 134.65 174.57 L 133.69 173.99 C 132.81 173.47 131.67 173.76 131.14 174.64 C 130.62 175.53 130.91 176.67 131.79 177.19 Z M 132.77 177.77 L 133.82 178.39 C 134.71 178.90 135.85 178.60 136.36 177.71 C 136.88 176.83 136.58 175.69 135.69 175.17 L 134.64 174.56 C 133.75 174.04 132.61 174.34 132.10 175.23 C 131.58 176.12 131.88 177.26 132.77 177.77 Z M 133.84 178.39 L 135.00 179.05 C 135.89 179.56 137.02 179.25 137.53 178.36 C 138.04 177.47 137.73 176.34 136.84 175.83 L 135.68 175.17 C 134.79 174.66 133.65 174.97 133.15 175.86 C 132.64 176.75 132.95 177.88 133.84 178.39 Z M 135.01 179.06 L 135.96 179.60 C 136.86 180.10 137.99 179.78 138.49 178.89 C 138.99 178.00 138.67 176.87 137.78 176.37 L 136.83 175.83 C 135.94 175.33 134.81 175.64 134.30 176.53 C 133.80 177.43 134.12 178.56 135.01 179.06 Z M 135.97 179.60 L 136.72 180.01 C 137.61 180.51 138.74 180.19 139.23 179.30 C 139.73 178.41 139.41 177.28 138.52 176.78 L 137.78 176.36 C 136.88 175.87 135.75 176.19 135.26 177.08 C 134.76 177.97 135.08 179.10 135.97 179.60 Z M 136.72 180.01 L 137.50 180.45 C 138.39 180.94 139.52 180.62 140.01 179.72 C 140.51 178.83 140.19 177.71 139.29 177.21 L 138.51 176.78 C 137.62 176.28 136.50 176.61 136.00 177.50 C 135.50 178.39 135.83 179.52 136.72 180.01 Z M 137.50 180.45 L 138.31 180.89 C 139.20 181.39 140.33 181.06 140.82 180.17 C 141.31 179.27 140.99 178.15 140.09 177.65 L 139.29 177.21 C 138.39 176.72 137.27 177.04 136.78 177.93 C 136.28 178.83 136.61 179.95 137.50 180.45 Z M 138.31 180.89 L 139.15 181.35 C 140.04 181.84 141.16 181.51 141.65 180.62 C 142.15 179.73 141.82 178.60 140.92 178.11 L 140.09 177.65 C 139.20 177.16 138.07 177.49 137.58 178.38 C 137.09 179.28 137.42 180.40 138.31 180.89 Z M 139.15 181.35 L 140.01 181.82 C 140.90 182.31 142.02 181.98 142.51 181.09 C 143.00 180.19 142.67 179.07 141.78 178.58 L 140.92 178.11 C 140.03 177.62 138.91 177.95 138.42 178.84 C 137.93 179.74 138.25 180.86 139.15 181.35 Z M 140.01 181.82 L 140.89 182.30 C 141.78 182.79 142.90 182.46 143.39 181.56 C 143.88 180.67 143.55 179.55 142.65 179.06 L 141.78 178.58 C 140.88 178.09 139.76 178.42 139.27 179.32 C 138.78 180.21 139.11 181.33 140.01 181.82 Z M 140.89 182.30 L 141.78 182.79 C 142.68 183.27 143.80 182.94 144.28 182.05 C 144.77 181.15 144.44 180.03 143.55 179.55 L 142.65 179.06 C 141.76 178.57 140.64 178.90 140.15 179.80 C 139.66 180.69 139.99 181.81 140.89 182.30 Z M 141.78 182.79 L 142.69 183.28 C 143.59 183.77 144.71 183.44 145.19 182.54 C 145.68 181.65 145.35 180.53 144.45 180.04 L 143.55 179.55 C 142.65 179.06 141.53 179.39 141.05 180.29 C 140.56 181.18 140.89 182.30 141.78 182.79 Z M 142.69 183.28 L 143.61 183.78 C 144.51 184.26 145.63 183.93 146.11 183.04 C 146.60 182.15 146.27 181.03 145.37 180.54 L 144.45 180.04 C 143.56 179.56 142.44 179.89 141.95 180.78 C 141.47 181.68 141.80 182.79 142.69 183.28 Z M 143.62 183.78 L 144.54 184.28 C 145.44 184.77 146.55 184.44 147.04 183.54 C 147.52 182.65 147.19 181.53 146.30 181.05 L 145.37 180.54 C 144.48 180.06 143.36 180.39 142.88 181.28 C 142.39 182.18 142.72 183.29 143.62 183.78 Z M 144.54 184.28 L 145.48 184.79 C 146.37 185.27 147.49 184.94 147.97 184.05 C 148.46 183.15 148.12 182.04 147.23 181.55 L 146.30 181.05 C 145.41 180.56 144.29 180.89 143.80 181.79 C 143.32 182.68 143.65 183.80 144.54 184.28 Z M 145.48 184.79 L 146.41 185.29 C 147.30 185.78 148.42 185.45 148.90 184.56 C 149.39 183.66 149.06 182.55 148.17 182.06 L 147.23 181.55 C 146.34 181.07 145.22 181.40 144.74 182.29 C 144.25 183.19 144.58 184.30 145.48 184.79 Z M 146.41 185.29 L 147.34 185.80 C 148.24 186.28 149.35 185.95 149.84 185.06 C 150.32 184.17 149.99 183.05 149.10 182.57 L 148.17 182.06 C 147.27 181.58 146.16 181.91 145.67 182.80 C 145.19 183.69 145.52 184.81 146.41 185.29 Z M 147.34 185.80 L 148.27 186.30 C 149.16 186.79 150.28 186.46 150.76 185.57 C 151.25 184.68 150.92 183.56 150.03 183.08 L 149.10 182.57 C 148.21 182.09 147.09 182.42 146.61 183.31 C 146.12 184.20 146.45 185.31 147.34 185.80 Z M 148.27 186.30 L 149.19 186.80 C 150.08 187.29 151.20 186.96 151.68 186.07 C 152.17 185.18 151.84 184.06 150.95 183.58 L 150.03 183.08 C 149.14 182.59 148.02 182.92 147.54 183.81 C 147.05 184.70 147.38 185.82 148.27 186.30 Z M 149.19 186.80 L 150.10 187.30 C 150.99 187.78 152.10 187.46 152.59 186.57 C 153.08 185.68 152.75 184.56 151.86 184.08 L 150.95 183.58 C 150.06 183.10 148.95 183.42 148.46 184.31 C 147.97 185.20 148.30 186.32 149.19 186.80 Z M 150.10 187.30 L 151.00 187.79 C 151.88 188.27 153.00 187.95 153.48 187.06 C 153.97 186.17 153.64 185.06 152.76 184.57 L 151.86 184.08 C 150.97 183.59 149.86 183.92 149.37 184.81 C 148.89 185.70 149.21 186.81 150.10 187.30 Z M 150.99 187.78 L 151.87 188.27 C 152.76 188.75 153.87 188.43 154.36 187.54 C 154.85 186.66 154.52 185.54 153.64 185.06 L 152.76 184.57 C 151.87 184.09 150.76 184.41 150.27 185.30 C 149.78 186.18 150.11 187.30 150.99 187.78 Z M 151.87 188.26 L 152.87 188.81 C 153.75 189.30 154.87 188.98 155.35 188.10 C 155.84 187.21 155.52 186.10 154.64 185.61 L 153.64 185.06 C 152.75 184.57 151.64 184.89 151.15 185.78 C 150.66 186.66 150.99 187.78 151.87 188.26 Z M 152.86 188.81 L 153.86 189.36 C 154.75 189.85 155.86 189.54 156.35 188.65 C 156.84 187.77 156.52 186.66 155.64 186.17 L 154.64 185.61 C 153.76 185.12 152.64 185.44 152.15 186.33 C 151.66 187.21 151.98 188.32 152.86 188.81 Z M 153.86 189.36 L 154.83 189.90 C 155.71 190.39 156.82 190.08 157.32 189.20 C 157.81 188.32 157.49 187.21 156.61 186.72 L 155.64 186.17 C 154.76 185.68 153.65 186.00 153.16 186.88 C 152.67 187.76 152.98 188.87 153.86 189.36 Z M 154.83 189.90 L 155.78 190.43 C 156.65 190.92 157.76 190.61 158.26 189.74 C 158.75 188.86 158.44 187.75 157.56 187.25 L 156.62 186.72 C 155.74 186.23 154.63 186.54 154.13 187.42 C 153.64 188.29 153.95 189.40 154.83 189.90 Z M 155.77 190.43 L 156.69 190.95 C 157.57 191.44 158.68 191.14 159.17 190.26 C 159.67 189.39 159.36 188.28 158.49 187.78 L 157.57 187.26 C 156.69 186.76 155.58 187.07 155.09 187.94 C 154.59 188.82 154.90 189.93 155.77 190.43 Z M 156.69 190.94 L 157.59 191.46 C 158.46 191.96 159.57 191.65 160.07 190.78 C 160.57 189.91 160.26 188.80 159.39 188.30 L 158.49 187.79 C 157.62 187.29 156.51 187.59 156.01 188.46 C 155.51 189.33 155.82 190.44 156.69 190.94 Z M 157.58 191.45 L 158.46 191.96 C 159.33 192.46 160.44 192.16 160.94 191.29 C 161.44 190.43 161.14 189.32 160.27 188.81 L 159.40 188.31 C 158.53 187.81 157.42 188.10 156.92 188.97 C 156.42 189.84 156.71 190.95 157.58 191.45 Z M 158.45 191.95 L 159.31 192.45 C 160.17 192.96 161.28 192.67 161.79 191.80 C 162.29 190.94 162.00 189.83 161.14 189.32 L 160.28 188.82 C 159.42 188.32 158.31 188.61 157.80 189.47 C 157.30 190.34 157.59 191.45 158.45 191.95 Z M 159.30 192.44 L 160.14 192.94 C 161.00 193.45 162.11 193.16 162.62 192.30 C 163.13 191.44 162.84 190.33 161.98 189.82 L 161.14 189.33 C 160.28 188.82 159.17 189.10 158.66 189.97 C 158.16 190.83 158.44 191.94 159.30 192.44 Z M 160.13 192.93 L 160.95 193.42 C 161.81 193.94 162.92 193.66 163.43 192.80 C 163.94 191.94 163.66 190.83 162.81 190.32 L 161.99 189.83 C 161.13 189.32 160.02 189.60 159.51 190.45 C 159.00 191.31 159.27 192.42 160.13 192.93 Z M 160.94 193.42 L 161.75 193.90 C 162.60 194.42 163.71 194.15 164.23 193.30 C 164.74 192.44 164.47 191.33 163.62 190.82 L 162.82 190.33 C 161.96 189.81 160.85 190.08 160.34 190.94 C 159.82 191.79 160.09 192.90 160.94 193.42 Z M 161.74 193.89 L 162.53 194.38 C 163.38 194.90 164.49 194.64 165.01 193.79 C 165.53 192.94 165.26 191.83 164.42 191.31 L 163.63 190.82 C 162.78 190.30 161.67 190.57 161.15 191.42 C 160.63 192.26 160.89 193.37 161.74 193.89 Z M 162.52 194.37 L 163.29 194.86 C 164.14 195.38 165.25 195.12 165.77 194.28 C 166.30 193.44 166.04 192.33 165.20 191.80 L 164.42 191.32 C 163.58 190.79 162.47 191.05 161.94 191.89 C 161.42 192.73 161.68 193.85 162.52 194.37 Z M 163.29 194.85 L 164.05 195.33 C 164.89 195.86 166.00 195.61 166.53 194.77 C 167.06 193.93 166.81 192.82 165.97 192.29 L 165.21 191.81 C 164.37 191.28 163.26 191.53 162.73 192.37 C 162.20 193.20 162.45 194.32 163.29 194.85 Z M 164.04 195.32 L 164.79 195.81 C 165.63 196.34 166.74 196.10 167.27 195.27 C 167.81 194.43 167.57 193.32 166.73 192.79 L 165.98 192.30 C 165.15 191.77 164.04 192.01 163.50 192.84 C 162.96 193.67 163.21 194.78 164.04 195.32 Z M 164.78 195.80 L 165.56 196.31 C 166.39 196.85 167.50 196.62 168.04 195.79 C 168.59 194.96 168.35 193.85 167.52 193.31 L 166.75 192.80 C 165.92 192.25 164.80 192.49 164.26 193.31 C 163.72 194.14 163.95 195.25 164.78 195.80 Z M 165.55 196.30 L 166.46 196.91 C 167.28 197.46 168.40 197.23 168.95 196.41 C 169.50 195.58 169.27 194.47 168.45 193.92 L 167.54 193.31 C 166.71 192.76 165.60 192.99 165.05 193.81 C 164.50 194.64 164.72 195.75 165.55 196.30 Z M 166.44 196.90 L 167.34 197.51 C 168.16 198.07 169.28 197.86 169.84 197.03 C 170.40 196.21 170.18 195.10 169.36 194.54 L 168.47 193.93 C 167.64 193.37 166.53 193.58 165.97 194.40 C 165.41 195.22 165.62 196.34 166.44 196.90 Z M 167.32 197.50 L 168.21 198.11 C 169.02 198.68 170.14 198.48 170.71 197.66 C 171.28 196.84 171.08 195.72 170.26 195.15 L 169.38 194.54 C 168.56 193.98 167.44 194.18 166.87 195.00 C 166.30 195.81 166.51 196.94 167.32 197.50 Z M 168.19 198.11 L 169.05 198.72 C 169.87 199.29 170.99 199.10 171.57 198.29 C 172.14 197.47 171.95 196.35 171.14 195.77 L 170.27 195.16 C 169.46 194.59 168.33 194.78 167.76 195.59 C 167.18 196.41 167.38 197.53 168.19 198.11 Z M 169.04 198.71 L 169.88 199.32 C 170.69 199.91 171.82 199.72 172.41 198.91 C 172.99 198.10 172.81 196.97 172.00 196.39 L 171.15 195.78 C 170.34 195.20 169.21 195.38 168.63 196.19 C 168.05 197.00 168.23 198.13 169.04 198.71 Z M 169.87 199.31 L 170.69 199.92 C 171.50 200.51 172.63 200.34 173.22 199.54 C 173.82 198.73 173.64 197.60 172.84 197.00 L 172.01 196.40 C 171.21 195.80 170.08 195.98 169.48 196.78 C 168.89 197.59 169.06 198.72 169.87 199.31 Z M 170.68 199.91 L 171.48 200.52 C 172.28 201.12 173.42 200.96 174.02 200.16 C 174.62 199.35 174.46 198.22 173.66 197.61 L 172.85 197.01 C 172.05 196.41 170.92 196.57 170.31 197.37 C 169.71 198.17 169.87 199.31 170.68 199.91 Z M 171.46 200.51 L 172.24 201.11 C 173.04 201.72 174.18 201.57 174.79 200.77 C 175.40 199.97 175.25 198.83 174.45 198.22 L 173.67 197.62 C 172.88 197.01 171.74 197.16 171.13 197.96 C 170.51 198.76 170.67 199.90 171.46 200.51 Z M 172.22 201.10 L 172.98 201.69 C 173.77 202.31 174.92 202.17 175.54 201.38 C 176.16 200.58 176.02 199.44 175.22 198.82 L 174.47 198.23 C 173.68 197.61 172.53 197.75 171.91 198.54 C 171.29 199.33 171.43 200.48 172.22 201.10 Z M 172.96 201.68 L 173.69 202.26 C 174.48 202.89 175.62 202.76 176.25 201.98 C 176.88 201.19 176.76 200.04 175.97 199.41 L 175.24 198.83 C 174.45 198.20 173.31 198.33 172.68 199.11 C 172.05 199.90 172.18 201.05 172.96 201.68 Z M 173.67 202.25 L 174.37 202.82 C 175.15 203.46 176.31 203.35 176.94 202.57 C 177.58 201.79 177.47 200.64 176.69 200.00 L 175.99 199.42 C 175.21 198.78 174.06 198.90 173.42 199.68 C 172.78 200.46 172.89 201.61 173.67 202.25 Z M 174.35 202.81 L 175.03 203.38 C 175.80 204.03 176.95 203.92 177.60 203.15 C 178.25 202.37 178.15 201.22 177.38 200.57 L 176.71 200.01 C 175.93 199.36 174.78 199.46 174.13 200.23 C 173.48 201.01 173.58 202.16 174.35 202.81 Z M 175.00 203.36 L 175.80 204.05 C 176.56 204.71 177.72 204.62 178.38 203.86 C 179.05 203.09 178.96 201.93 178.19 201.27 L 177.40 200.58 C 176.63 199.92 175.47 200.01 174.81 200.77 C 174.15 201.54 174.24 202.70 175.00 203.36 Z M 175.76 204.03 L 176.60 204.77 C 177.35 205.45 178.52 205.39 179.19 204.63 C 179.87 203.88 179.81 202.71 179.06 202.03 L 178.22 201.29 C 177.47 200.61 176.30 200.67 175.63 201.43 C 174.95 202.18 175.01 203.35 175.76 204.03 Z M 176.56 204.74 L 177.33 205.48 C 178.07 206.18 179.24 206.14 179.94 205.40 C 180.64 204.66 180.61 203.49 179.87 202.79 L 179.09 202.06 C 178.35 201.36 177.18 201.39 176.48 202.13 C 175.78 202.88 175.82 204.04 176.56 204.74 Z M 177.29 205.44 L 178.01 206.17 C 178.73 206.89 179.90 206.89 180.63 206.17 C 181.35 205.45 181.35 204.28 180.63 203.55 L 179.91 202.83 C 179.19 202.10 178.02 202.10 177.29 202.82 C 176.57 203.54 176.57 204.72 177.29 205.44 Z M 177.96 206.12 L 178.63 206.84 C 179.32 207.60 180.50 207.64 181.25 206.95 C 182.00 206.25 182.05 205.07 181.35 204.32 L 180.68 203.60 C 179.99 202.84 178.81 202.80 178.06 203.50 C 177.30 204.19 177.26 205.37 177.96 206.12 Z M 178.57 206.79 L 179.19 207.52 C 179.86 208.30 181.04 208.40 181.82 207.73 C 182.60 207.06 182.70 205.88 182.03 205.10 L 181.41 204.37 C 180.74 203.59 179.56 203.50 178.78 204.16 C 178.00 204.83 177.90 206.01 178.57 206.79 Z M 179.14 207.46 L 179.71 208.20 C 180.35 209.01 181.52 209.16 182.33 208.52 C 183.15 207.89 183.30 206.71 182.66 205.90 L 182.09 205.16 C 181.45 204.35 180.28 204.20 179.46 204.83 C 178.65 205.47 178.50 206.64 179.14 207.46 Z M 179.65 208.13 L 180.18 208.88 C 180.78 209.73 181.95 209.93 182.80 209.34 C 183.64 208.74 183.85 207.57 183.25 206.72 L 182.72 205.97 C 182.12 205.12 180.95 204.92 180.11 205.51 C 179.26 206.11 179.06 207.28 179.65 208.13 Z M 180.13 208.81 L 180.62 209.59 C 181.17 210.47 182.34 210.73 183.21 210.17 C 184.09 209.62 184.36 208.46 183.80 207.58 L 183.31 206.80 C 182.75 205.92 181.59 205.66 180.71 206.21 C 179.84 206.77 179.57 207.93 180.13 208.81 Z M 180.56 209.51 L 181.03 210.34 C 181.54 211.25 182.69 211.58 183.60 211.07 C 184.51 210.56 184.84 209.41 184.33 208.50 L 183.86 207.66 C 183.35 206.75 182.20 206.43 181.29 206.94 C 180.38 207.45 180.05 208.60 180.56 209.51 Z M 180.98 210.26 L 181.42 211.15 C 181.88 212.09 183.02 212.47 183.96 212.01 C 184.90 211.54 185.28 210.41 184.82 209.47 L 184.38 208.58 C 183.92 207.64 182.78 207.26 181.84 207.72 C 180.90 208.18 180.52 209.32 180.98 210.26 Z M 181.37 211.06 L 181.76 211.98 C 182.18 212.94 183.30 213.39 184.27 212.97 C 185.23 212.55 185.68 211.43 185.26 210.47 L 184.87 209.55 C 184.45 208.59 183.33 208.14 182.36 208.56 C 181.40 208.98 180.95 210.10 181.37 211.06 Z M 181.72 211.89 L 182.07 212.83 C 182.44 213.82 183.55 214.33 184.54 213.95 C 185.53 213.58 186.03 212.48 185.66 211.49 L 185.30 210.55 C 184.93 209.56 183.83 209.06 182.84 209.43 C 181.85 209.80 181.35 210.90 181.72 211.89 Z M 182.03 212.75 L 182.34 213.71 C 182.67 214.72 183.75 215.28 184.76 214.95 C 185.77 214.63 186.33 213.55 186.00 212.53 L 185.70 211.58 C 185.37 210.56 184.29 210.01 183.28 210.33 C 182.27 210.66 181.71 211.74 182.03 212.75 Z M 182.31 213.62 L 182.57 214.60 C 182.85 215.63 183.91 216.24 184.94 215.96 C 185.97 215.68 186.58 214.62 186.30 213.59 L 186.04 212.62 C 185.76 211.59 184.70 210.98 183.67 211.26 C 182.64 211.53 182.03 212.59 182.31 213.62 Z M 182.54 214.51 L 182.76 215.49 C 182.99 216.54 184.02 217.20 185.07 216.97 C 186.11 216.74 186.77 215.71 186.54 214.66 L 186.33 213.68 C 186.10 212.63 185.07 211.97 184.02 212.20 C 182.97 212.43 182.31 213.46 182.54 214.51 Z M 182.73 215.40 L 182.90 216.39 C 183.08 217.45 184.08 218.17 185.14 217.99 C 186.21 217.81 186.92 216.80 186.74 215.74 L 186.57 214.75 C 186.39 213.69 185.38 212.98 184.32 213.16 C 183.26 213.34 182.55 214.34 182.73 215.40 Z M 182.88 216.30 L 182.99 217.29 C 183.12 218.36 184.10 219.13 185.17 219.00 C 186.24 218.87 187.01 217.89 186.88 216.82 L 186.76 215.83 C 186.63 214.76 185.66 213.99 184.58 214.12 C 183.51 214.25 182.75 215.23 182.88 216.30 Z M 182.98 217.19 L 183.05 218.22 C 183.12 219.30 184.06 220.12 185.14 220.04 C 186.22 219.97 187.04 219.03 186.97 217.95 L 186.90 216.92 C 186.82 215.84 185.89 215.02 184.80 215.10 C 183.72 215.17 182.90 216.11 182.98 217.19 Z M 183.04 218.10 L 183.05 219.12 C 183.06 220.21 183.94 221.08 185.03 221.07 C 186.12 221.06 187.00 220.18 186.99 219.09 L 186.98 218.07 C 186.97 216.98 186.08 216.11 184.99 216.11 C 183.90 216.12 183.03 217.01 183.04 218.10 Z M 183.04 218.99 L 182.98 219.99 C 182.92 221.08 183.75 222.02 184.84 222.08 C 185.93 222.15 186.86 221.32 186.93 220.23 L 186.99 219.22 C 187.05 218.13 186.22 217.20 185.13 217.13 C 184.04 217.07 183.11 217.90 183.04 218.99 Z M 182.99 219.84 L 182.86 220.82 C 182.71 221.91 183.47 222.91 184.55 223.06 C 185.64 223.21 186.64 222.45 186.79 221.36 L 186.92 220.38 C 187.07 219.29 186.31 218.29 185.23 218.14 C 184.14 218.00 183.14 218.76 182.99 219.84 Z M 182.88 220.66 L 182.67 221.62 C 182.43 222.69 183.10 223.75 184.17 223.99 C 185.24 224.23 186.30 223.56 186.55 222.49 L 186.76 221.53 C 187.00 220.46 186.33 219.40 185.26 219.15 C 184.19 218.91 183.12 219.59 182.88 220.66 Z M 182.71 221.43 L 182.41 222.36 C 182.06 223.41 182.63 224.54 183.68 224.88 C 184.73 225.22 185.85 224.65 186.20 223.60 L 186.50 222.67 C 186.84 221.63 186.27 220.50 185.23 220.16 C 184.18 219.82 183.05 220.39 182.71 221.43 Z M 182.47 222.17 L 182.07 223.07 C 181.63 224.07 182.08 225.26 183.09 225.71 C 184.10 226.16 185.28 225.70 185.73 224.69 L 186.13 223.80 C 186.58 222.79 186.12 221.61 185.12 221.16 C 184.11 220.71 182.92 221.16 182.47 222.17 Z M 182.17 222.87 L 181.67 223.72 C 181.11 224.68 181.43 225.91 182.39 226.47 C 183.34 227.03 184.57 226.71 185.13 225.75 L 185.63 224.89 C 186.19 223.94 185.87 222.71 184.91 222.15 C 183.96 221.59 182.73 221.91 182.17 222.87 Z M 181.78 223.54 L 181.26 224.26 C 180.60 225.15 180.79 226.41 181.68 227.07 C 182.58 227.73 183.83 227.54 184.49 226.64 L 185.02 225.93 C 185.68 225.04 185.49 223.78 184.59 223.12 C 183.70 222.46 182.44 222.65 181.78 223.54 Z M 181.37 224.12 L 180.78 224.78 C 180.04 225.62 180.11 226.89 180.95 227.63 C 181.78 228.36 183.05 228.29 183.79 227.46 L 184.38 226.79 C 185.12 225.96 185.04 224.68 184.21 223.95 C 183.38 223.21 182.11 223.28 181.37 224.12 Z M 180.89 224.67 L 180.22 225.31 C 179.42 226.08 179.39 227.35 180.16 228.15 C 180.93 228.96 182.21 228.98 183.01 228.21 L 183.68 227.57 C 184.48 226.80 184.50 225.53 183.73 224.72 C 182.96 223.92 181.69 223.90 180.89 224.67 Z M 180.32 225.21 L 179.59 225.82 C 178.74 226.53 178.62 227.80 179.33 228.66 C 180.05 229.52 181.32 229.63 182.18 228.92 L 182.91 228.31 C 183.76 227.59 183.88 226.32 183.16 225.47 C 182.45 224.61 181.18 224.50 180.32 225.21 Z M 179.69 225.74 L 178.89 226.32 C 178.00 226.98 177.80 228.25 178.46 229.15 C 179.12 230.05 180.39 230.24 181.28 229.58 L 182.08 229.00 C 182.98 228.34 183.17 227.07 182.51 226.17 C 181.85 225.28 180.59 225.08 179.69 225.74 Z M 178.98 226.26 L 178.13 226.82 C 177.20 227.43 176.93 228.68 177.55 229.62 C 178.16 230.55 179.41 230.81 180.34 230.20 L 181.20 229.64 C 182.13 229.03 182.39 227.78 181.78 226.85 C 181.17 225.91 179.92 225.65 178.98 226.26 Z M 178.21 226.77 L 177.30 227.30 C 176.34 227.87 176.02 229.11 176.59 230.07 C 177.16 231.03 178.40 231.35 179.36 230.79 L 180.26 230.25 C 181.23 229.69 181.55 228.44 180.98 227.48 C 180.41 226.52 179.17 226.20 178.21 226.77 Z M 177.37 227.26 L 176.42 227.77 C 175.43 228.30 175.06 229.53 175.59 230.51 C 176.12 231.50 177.35 231.87 178.33 231.34 L 179.29 230.83 C 180.27 230.30 180.65 229.07 180.12 228.09 C 179.59 227.10 178.36 226.73 177.37 227.26 Z M 176.48 227.74 L 175.48 228.23 C 174.48 228.72 174.07 229.94 174.56 230.94 C 175.05 231.95 176.27 232.36 177.27 231.87 L 178.27 231.38 C 179.28 230.88 179.69 229.67 179.20 228.66 C 178.70 227.66 177.49 227.24 176.48 227.74 Z M 175.54 228.20 L 174.55 228.65 C 173.53 229.11 173.08 230.32 173.54 231.34 C 174.01 232.36 175.21 232.81 176.23 232.34 L 177.22 231.89 C 178.24 231.43 178.69 230.23 178.23 229.21 C 177.76 228.19 176.56 227.74 175.54 228.20 Z M 174.60 228.63 L 173.67 229.02 C 172.63 229.46 172.15 230.66 172.59 231.69 C 173.03 232.72 174.23 233.20 175.26 232.76 L 176.19 232.36 C 177.22 231.93 177.70 230.73 177.26 229.70 C 176.82 228.67 175.63 228.19 174.60 228.63 Z M 173.71 229.01 L 172.76 229.39 C 171.71 229.81 171.21 230.99 171.63 232.03 C 172.04 233.07 173.23 233.58 174.27 233.16 L 175.22 232.78 C 176.26 232.36 176.77 231.18 176.35 230.14 C 175.93 229.09 174.75 228.59 173.71 229.01 Z M 172.79 229.37 L 171.83 229.74 C 170.78 230.13 170.25 231.31 170.65 232.36 C 171.04 233.41 172.22 233.94 173.27 233.54 L 174.23 233.17 C 175.28 232.78 175.81 231.60 175.41 230.55 C 175.02 229.50 173.84 228.97 172.79 229.37 Z M 171.86 229.72 L 170.89 230.07 C 169.83 230.45 169.28 231.61 169.66 232.67 C 170.04 233.73 171.20 234.28 172.26 233.90 L 173.23 233.55 C 174.29 233.18 174.84 232.01 174.46 230.95 C 174.09 229.90 172.92 229.34 171.86 229.72 Z M 170.93 230.06 L 169.95 230.39 C 168.88 230.75 168.31 231.90 168.67 232.96 C 169.03 234.03 170.18 234.60 171.25 234.24 L 172.23 233.91 C 173.29 233.55 173.86 232.40 173.50 231.34 C 173.14 230.27 171.99 229.70 170.93 230.06 Z M 169.98 230.37 L 169.01 230.68 C 167.94 231.02 167.34 232.17 167.69 233.24 C 168.03 234.31 169.17 234.90 170.24 234.56 L 171.22 234.25 C 172.29 233.91 172.88 232.77 172.54 231.70 C 172.20 230.63 171.05 230.03 169.98 230.37 Z M 169.04 230.67 L 168.07 230.96 C 167.00 231.29 166.39 232.42 166.71 233.50 C 167.03 234.58 168.17 235.19 169.24 234.86 L 170.21 234.57 C 171.29 234.25 171.90 233.12 171.58 232.04 C 171.25 230.96 170.12 230.35 169.04 230.67 Z M 168.11 230.95 L 167.15 231.22 C 166.07 231.53 165.44 232.65 165.74 233.73 C 166.05 234.82 167.17 235.45 168.26 235.14 L 169.21 234.87 C 170.29 234.57 170.92 233.44 170.62 232.36 C 170.32 231.28 169.19 230.65 168.11 230.95 Z M 167.19 231.21 L 166.25 231.46 C 165.16 231.74 164.51 232.86 164.80 233.95 C 165.09 235.04 166.20 235.69 167.29 235.40 L 168.22 235.15 C 169.31 234.87 169.96 233.75 169.68 232.66 C 169.39 231.57 168.28 230.92 167.19 231.21 Z M 166.29 231.45 L 165.38 231.67 C 164.28 231.94 163.61 233.04 163.88 234.13 C 164.15 235.23 165.25 235.90 166.35 235.63 L 167.26 235.41 C 168.35 235.14 169.02 234.04 168.75 232.94 C 168.49 231.85 167.38 231.18 166.29 231.45 Z M 165.42 231.66 L 164.42 231.88 C 163.32 232.13 162.63 233.22 162.88 234.32 C 163.13 235.42 164.22 236.11 165.32 235.86 L 166.31 235.64 C 167.41 235.39 168.10 234.30 167.85 233.20 C 167.61 232.10 166.52 231.41 165.42 231.66 Z M 164.47 231.87 L 163.38 232.09 C 162.27 232.31 161.56 233.39 161.78 234.49 C 162.00 235.60 163.07 236.31 164.18 236.09 L 165.27 235.87 C 166.37 235.65 167.09 234.58 166.87 233.47 C 166.65 232.37 165.57 231.65 164.47 231.87 Z M 163.43 232.08 L 162.38 232.26 C 161.27 232.45 160.53 233.51 160.72 234.62 C 160.91 235.73 161.97 236.48 163.08 236.28 L 164.13 236.10 C 165.24 235.91 165.98 234.85 165.79 233.74 C 165.59 232.63 164.54 231.89 163.43 232.08 Z M 162.43 232.25 L 161.42 232.40 C 160.31 232.57 159.54 233.60 159.70 234.72 C 159.87 235.83 160.91 236.60 162.02 236.44 L 163.03 236.29 C 164.14 236.13 164.91 235.09 164.75 233.97 C 164.58 232.86 163.55 232.09 162.43 232.25 Z M 161.47 232.40 L 160.50 232.52 C 159.38 232.65 158.58 233.67 158.72 234.79 C 158.86 235.91 159.88 236.70 161.00 236.57 L 161.97 236.45 C 163.09 236.31 163.89 235.29 163.75 234.17 C 163.61 233.05 162.59 232.26 161.47 232.40 Z M 160.54 232.51 L 159.59 232.61 C 158.47 232.72 157.65 233.72 157.76 234.84 C 157.88 235.96 158.88 236.78 160.00 236.67 L 160.95 236.57 C 162.07 236.46 162.89 235.46 162.78 234.34 C 162.66 233.22 161.66 232.40 160.54 232.51 Z M 159.63 232.60 L 158.70 232.68 C 157.57 232.77 156.73 233.75 156.82 234.87 C 156.91 236.00 157.90 236.83 159.02 236.74 L 159.96 236.67 C 161.08 236.58 161.92 235.60 161.83 234.48 C 161.74 233.35 160.75 232.51 159.63 232.60 Z M 158.73 232.68 L 157.81 232.73 C 156.68 232.80 155.83 233.77 155.90 234.89 C 155.97 236.02 156.93 236.87 158.06 236.80 L 158.98 236.75 C 160.11 236.68 160.96 235.71 160.89 234.59 C 160.82 233.46 159.86 232.61 158.73 232.68 Z M 157.83 232.73 L 156.91 232.78 C 155.78 232.83 154.91 233.79 154.97 234.91 C 155.02 236.04 155.98 236.90 157.10 236.85 L 158.03 236.81 C 159.15 236.75 160.02 235.80 159.97 234.67 C 159.91 233.55 158.96 232.68 157.83 232.73 Z M 156.93 232.78 L 155.96 232.81 C 154.83 232.85 153.95 233.80 153.99 234.92 C 154.03 236.05 154.98 236.93 156.11 236.89 L 157.08 236.85 C 158.21 236.81 159.09 235.86 159.04 234.74 C 159.00 233.61 158.06 232.73 156.93 232.78 Z M 155.97 232.81 L 154.99 232.84 C 153.87 232.87 152.98 233.81 153.01 234.93 C 153.04 236.06 153.98 236.94 155.11 236.91 L 156.09 236.89 C 157.21 236.86 158.10 235.92 158.07 234.79 C 158.04 233.67 157.10 232.78 155.97 232.81 Z M 155.01 232.84 L 154.02 232.86 C 152.90 232.88 152.00 233.81 152.03 234.94 C 152.05 236.06 152.98 236.95 154.10 236.93 L 155.09 236.91 C 156.21 236.89 157.11 235.96 157.09 234.84 C 157.06 233.71 156.13 232.82 155.01 232.84 Z M 154.04 232.86 L 153.04 232.87 C 151.92 232.89 151.02 233.81 151.03 234.93 C 151.05 236.06 151.97 236.96 153.09 236.94 L 154.09 236.93 C 155.21 236.92 156.11 235.99 156.10 234.87 C 156.08 233.74 155.16 232.85 154.04 232.86 Z M 153.05 232.87 L 152.05 232.88 C 150.93 232.89 150.02 233.81 150.03 234.93 C 150.04 236.06 150.96 236.96 152.08 236.95 L 153.08 236.94 C 154.21 236.93 155.11 236.02 155.10 234.89 C 155.09 233.77 154.18 232.87 153.05 232.87 Z M 152.06 232.88 L 151.05 232.89 C 149.92 232.89 149.02 233.81 149.02 234.93 C 149.03 236.05 149.94 236.96 151.06 236.95 L 152.07 236.95 C 153.20 236.95 154.10 236.03 154.10 234.91 C 154.09 233.79 153.18 232.88 152.06 232.88 Z M 151.05 232.89 L 150.03 232.89 C 148.91 232.89 148.00 233.80 148.00 234.92 C 148.00 236.05 148.91 236.96 150.04 236.95 L 151.06 236.95 C 152.18 236.95 153.09 236.04 153.09 234.92 C 153.09 233.79 152.17 232.89 151.05 232.89 Z M 150.03 232.89 L 149.01 232.89 C 147.88 232.89 146.98 233.80 146.98 234.92 C 146.98 236.04 147.89 236.95 149.01 236.95 L 150.03 236.95 C 151.16 236.95 152.07 236.04 152.07 234.92 C 152.07 233.80 151.16 232.89 150.03 232.89 Z M 149.01 232.89 L 148.03 232.89 C 146.91 232.89 146.00 233.80 146.00 234.92 C 145.99 236.04 146.90 236.95 148.02 236.95 L 149.01 236.95 C 150.13 236.95 151.04 236.04 151.04 234.92 C 151.04 233.80 150.13 232.89 149.01 232.89 Z M 148.04 232.90 L 147.05 232.89 C 145.93 232.88 145.02 233.79 145.01 234.90 C 145.00 236.02 145.90 236.94 147.02 236.94 L 148.01 236.95 C 149.13 236.95 150.04 236.05 150.05 234.93 C 150.06 233.81 149.15 232.90 148.04 232.90 Z M 147.06 232.89 L 146.07 232.88 C 144.95 232.86 144.03 233.76 144.02 234.87 C 144.00 235.99 144.89 236.91 146.01 236.92 L 147.01 236.94 C 148.12 236.95 149.04 236.06 149.06 234.94 C 149.07 233.83 148.18 232.91 147.06 232.89 Z M 146.09 232.88 L 145.09 232.86 C 143.98 232.82 143.05 233.70 143.02 234.82 C 142.99 235.93 143.87 236.86 144.98 236.89 L 145.98 236.92 C 147.10 236.95 148.03 236.07 148.06 234.96 C 148.09 233.84 147.21 232.91 146.09 232.88 Z M 145.13 232.86 L 144.13 232.81 C 143.01 232.76 142.07 233.63 142.02 234.74 C 141.97 235.85 142.83 236.79 143.95 236.84 L 144.95 236.89 C 146.06 236.94 147.00 236.08 147.05 234.96 C 147.10 233.85 146.24 232.91 145.13 232.86 Z M 144.17 232.82 L 143.17 232.75 C 142.06 232.68 141.10 233.52 141.02 234.63 C 140.95 235.74 141.79 236.69 142.90 236.77 L 143.90 236.84 C 145.01 236.91 145.97 236.07 146.04 234.96 C 146.12 233.85 145.28 232.89 144.17 232.82 Z M 143.22 232.76 L 142.22 232.67 C 141.11 232.56 140.13 233.38 140.03 234.48 C 139.93 235.58 140.74 236.56 141.84 236.67 L 142.85 236.76 C 143.95 236.86 144.93 236.05 145.03 234.95 C 145.14 233.84 144.32 232.86 143.22 232.76 Z M 142.28 232.68 L 141.28 232.55 C 140.18 232.41 139.17 233.20 139.04 234.29 C 138.90 235.39 139.68 236.40 140.78 236.53 L 141.78 236.66 C 142.88 236.79 143.88 236.01 144.02 234.92 C 144.16 233.82 143.38 232.81 142.28 232.68 Z M 141.34 232.57 L 140.37 232.41 C 139.27 232.23 138.25 232.98 138.07 234.07 C 137.90 235.16 138.64 236.19 139.73 236.36 L 140.71 236.52 C 141.80 236.69 142.83 235.95 143.01 234.86 C 143.18 233.77 142.44 232.74 141.34 232.57 Z M 140.43 232.43 L 139.47 232.24 C 138.39 232.03 137.34 232.73 137.13 233.81 C 136.92 234.90 137.62 235.94 138.70 236.16 L 139.67 236.35 C 140.75 236.56 141.80 235.85 142.01 234.77 C 142.22 233.69 141.52 232.64 140.43 232.43 Z M 139.54 232.26 L 138.58 232.04 C 137.51 231.79 136.44 232.46 136.19 233.53 C 135.94 234.60 136.61 235.67 137.68 235.91 L 138.64 236.14 C 139.71 236.38 140.78 235.72 141.03 234.65 C 141.27 233.58 140.61 232.51 139.54 232.26 Z M 138.64 232.06 L 137.68 231.80 C 136.62 231.52 135.54 232.15 135.26 233.21 C 134.97 234.27 135.60 235.36 136.66 235.64 L 137.62 235.89 C 138.68 236.17 139.76 235.54 140.05 234.49 C 140.33 233.43 139.70 232.34 138.64 232.06 Z M 137.74 231.83 L 136.79 231.54 C 135.74 231.23 134.64 231.82 134.33 232.87 C 134.01 233.92 134.61 235.02 135.65 235.33 L 136.61 235.62 C 137.65 235.93 138.76 235.34 139.07 234.29 C 139.38 233.24 138.79 232.14 137.74 231.83 Z M 136.84 231.56 L 135.89 231.25 C 134.86 230.91 133.74 231.47 133.40 232.50 C 133.05 233.53 133.61 234.65 134.65 234.99 L 135.60 235.31 C 136.63 235.65 137.75 235.09 138.09 234.06 C 138.44 233.02 137.88 231.91 136.84 231.56 Z M 135.94 231.27 L 134.99 230.93 C 133.97 230.56 132.84 231.08 132.47 232.11 C 132.10 233.13 132.63 234.25 133.65 234.62 L 134.60 234.97 C 135.62 235.34 136.75 234.81 137.12 233.79 C 137.49 232.77 136.96 231.64 135.94 231.27 Z M 135.04 230.95 L 134.09 230.58 C 133.08 230.18 131.94 230.68 131.55 231.69 C 131.15 232.69 131.65 233.83 132.65 234.23 L 133.60 234.60 C 134.61 235.00 135.75 234.50 136.14 233.49 C 136.54 232.49 136.04 231.35 135.04 230.95 Z M 134.13 230.60 L 133.18 230.20 C 132.19 229.78 131.04 230.25 130.62 231.24 C 130.20 232.24 130.67 233.38 131.66 233.80 L 132.61 234.20 C 133.61 234.62 134.75 234.16 135.17 233.16 C 135.59 232.17 135.13 231.02 134.13 230.60 Z M 133.22 230.23 L 132.35 229.84 C 131.37 229.40 130.22 229.83 129.77 230.81 C 129.33 231.79 129.77 232.95 130.75 233.39 L 131.63 233.78 C 132.61 234.22 133.76 233.78 134.20 232.80 C 134.64 231.82 134.20 230.67 133.22 230.23 Z M 132.38 229.86 L 131.52 229.45 C 130.55 228.99 129.40 229.40 128.94 230.37 C 128.48 231.34 128.89 232.49 129.86 232.95 L 130.72 233.36 C 131.69 233.82 132.84 233.41 133.30 232.44 C 133.76 231.48 133.35 230.32 132.38 229.86 Z M 131.55 229.48 L 130.69 229.05 C 129.74 228.57 128.58 228.95 128.10 229.91 C 127.63 230.86 128.01 232.02 128.96 232.49 L 129.83 232.93 C 130.78 233.40 131.93 233.02 132.41 232.07 C 132.89 231.11 132.50 229.96 131.55 229.48 Z M 130.72 229.07 L 129.86 228.62 C 128.92 228.12 127.76 228.48 127.27 229.42 C 126.77 230.36 127.13 231.52 128.07 232.01 L 128.93 232.47 C 129.87 232.96 131.03 232.60 131.52 231.66 C 132.02 230.73 131.66 229.57 130.72 229.07 Z M 129.89 228.65 L 129.02 228.17 C 128.10 227.65 126.94 227.99 126.43 228.91 C 125.92 229.83 126.25 230.99 127.17 231.50 L 128.04 231.98 C 128.96 232.49 130.12 232.16 130.63 231.24 C 131.14 230.32 130.81 229.16 129.89 228.65 Z M 129.05 228.19 L 128.19 227.69 C 127.28 227.16 126.12 227.47 125.59 228.37 C 125.06 229.28 125.37 230.44 126.27 230.97 L 127.14 231.47 C 128.05 232.00 129.21 231.70 129.74 230.79 C 130.26 229.88 129.96 228.72 129.05 228.19 Z M 128.21 227.72 L 127.35 227.18 C 126.45 226.64 125.29 226.92 124.75 227.81 C 124.20 228.70 124.48 229.86 125.37 230.41 L 126.24 230.94 C 127.13 231.48 128.30 231.20 128.84 230.31 C 129.39 229.42 129.10 228.26 128.21 227.72 Z M 127.37 227.21 L 126.50 226.66 C 125.63 226.10 124.46 226.35 123.90 227.23 C 123.35 228.10 123.60 229.26 124.47 229.82 L 125.35 230.38 C 126.22 230.94 127.38 230.68 127.94 229.81 C 128.50 228.94 128.25 227.77 127.37 227.21 Z M 126.53 226.68 L 125.65 226.10 C 124.80 225.52 123.63 225.75 123.06 226.61 C 122.48 227.47 122.71 228.63 123.57 229.21 L 124.45 229.79 C 125.31 230.37 126.47 230.14 127.04 229.28 C 127.62 228.42 127.39 227.26 126.53 226.68 Z M 125.68 226.13 L 124.83 225.53 C 123.99 224.95 122.83 225.15 122.24 225.99 C 121.65 226.84 121.86 228.00 122.70 228.58 L 123.55 229.18 C 124.39 229.77 125.55 229.56 126.14 228.72 C 126.73 227.88 126.52 226.72 125.68 226.13 Z M 124.85 225.56 L 124.08 225.00 C 123.25 224.40 122.10 224.59 121.50 225.41 C 120.90 226.24 121.08 227.40 121.91 228.00 L 122.68 228.56 C 123.50 229.16 124.66 228.97 125.26 228.15 C 125.86 227.32 125.68 226.16 124.85 225.56 Z M 124.10 225.03 L 123.33 224.45 C 122.52 223.84 121.37 224.00 120.75 224.81 C 120.14 225.62 120.31 226.77 121.12 227.39 L 121.89 227.97 C 122.70 228.58 123.85 228.42 124.46 227.61 C 125.07 226.80 124.91 225.64 124.10 225.03 Z M 123.35 224.48 L 122.58 223.88 C 121.78 223.26 120.64 223.40 120.01 224.19 C 119.39 224.98 119.53 226.13 120.33 226.75 L 121.10 227.36 C 121.89 227.98 123.04 227.84 123.66 227.04 C 124.28 226.25 124.14 225.10 123.35 224.48 Z M 122.60 223.91 L 121.83 223.28 C 121.05 222.65 119.91 222.77 119.28 223.55 C 118.64 224.32 118.76 225.47 119.54 226.10 L 120.31 226.72 C 121.08 227.35 122.23 227.24 122.86 226.46 C 123.49 225.68 123.37 224.54 122.60 223.91 Z M 121.85 223.32 L 121.08 222.67 C 120.33 222.03 119.19 222.12 118.55 222.88 C 117.90 223.64 118.00 224.78 118.76 225.42 L 119.52 226.07 C 120.28 226.71 121.42 226.61 122.06 225.85 C 122.70 225.09 122.61 223.96 121.85 223.32 Z M 121.10 222.70 L 120.35 222.04 C 119.61 221.38 118.48 221.45 117.82 222.20 C 117.17 222.94 117.24 224.07 117.98 224.72 L 118.74 225.39 C 119.48 226.04 120.61 225.97 121.26 225.23 C 121.92 224.49 121.85 223.36 121.10 222.70 Z M 120.37 222.07 L 119.62 221.38 C 118.90 220.72 117.77 220.77 117.11 221.49 C 116.44 222.21 116.49 223.34 117.21 224.00 L 117.96 224.69 C 118.69 225.35 119.81 225.30 120.47 224.58 C 121.14 223.86 121.09 222.73 120.37 222.07 Z M 119.64 221.42 L 118.90 220.71 C 118.20 220.04 117.08 220.06 116.40 220.76 C 115.73 221.47 115.75 222.59 116.46 223.26 L 117.20 223.97 C 117.90 224.64 119.02 224.62 119.69 223.91 C 120.37 223.21 120.34 222.09 119.64 221.42 Z M 118.92 220.75 L 118.19 220.02 C 117.51 219.33 116.40 219.33 115.71 220.02 C 115.03 220.70 115.03 221.81 115.71 222.50 L 116.44 223.23 C 117.12 223.91 118.23 223.91 118.92 223.23 C 119.60 222.54 119.60 221.43 118.92 220.75 Z M 118.21 220.06 L 117.50 219.31 C 116.84 218.61 115.73 218.59 115.04 219.25 C 114.34 219.92 114.32 221.02 114.98 221.72 L 115.69 222.46 C 116.36 223.16 117.46 223.18 118.16 222.52 C 118.85 221.86 118.88 220.75 118.21 220.06 Z M 117.52 219.35 L 116.83 218.59 C 116.19 217.89 115.09 217.84 114.39 218.48 C 113.68 219.12 113.63 220.22 114.27 220.92 L 114.96 221.68 C 115.60 222.38 116.70 222.44 117.41 221.79 C 118.11 221.15 118.16 220.05 117.52 219.35 Z M 116.85 218.63 L 116.20 217.88 C 115.58 217.17 114.49 217.09 113.78 217.71 C 113.06 218.34 112.98 219.42 113.61 220.14 L 114.26 220.89 C 114.88 221.60 115.96 221.68 116.68 221.06 C 117.40 220.43 117.47 219.35 116.85 218.63 Z M 116.22 217.92 L 115.58 217.16 C 114.98 216.43 113.90 216.33 113.18 216.93 C 112.45 217.54 112.35 218.61 112.95 219.34 L 113.59 220.10 C 114.19 220.83 115.27 220.93 115.99 220.32 C 116.72 219.72 116.82 218.64 116.22 217.92 Z M 115.60 217.19 L 114.98 216.41 C 114.39 215.68 113.33 215.56 112.59 216.14 C 111.86 216.72 111.74 217.79 112.32 218.52 L 112.94 219.30 C 113.52 220.04 114.59 220.16 115.32 219.57 C 116.06 218.99 116.18 217.92 115.60 217.19 Z M 114.99 216.45 L 114.39 215.65 C 113.82 214.91 112.76 214.77 112.02 215.33 C 111.28 215.90 111.14 216.95 111.70 217.69 L 112.31 218.49 C 112.87 219.23 113.93 219.37 114.67 218.81 C 115.41 218.24 115.55 217.19 114.99 216.45 Z M 114.40 215.69 L 113.81 214.88 C 113.26 214.13 112.21 213.97 111.47 214.51 C 110.72 215.06 110.56 216.11 111.10 216.85 L 111.69 217.66 C 112.24 218.41 113.28 218.57 114.03 218.03 C 114.78 217.48 114.94 216.43 114.40 215.69 Z M 113.82 214.91 L 113.24 214.09 C 112.72 213.34 111.68 213.16 110.93 213.68 C 110.17 214.21 109.99 215.25 110.52 216.00 L 111.09 216.82 C 111.62 217.57 112.66 217.75 113.41 217.23 C 114.16 216.70 114.34 215.66 113.82 214.91 Z M 113.25 214.12 L 112.69 213.29 C 112.18 212.53 111.16 212.33 110.40 212.84 C 109.64 213.35 109.44 214.38 109.95 215.13 L 110.51 215.97 C 111.02 216.72 112.04 216.92 112.80 216.42 C 113.56 215.91 113.76 214.88 113.25 214.12 Z M 112.70 213.32 L 112.15 212.48 C 111.66 211.72 110.65 211.50 109.89 211.99 C 109.13 212.48 108.91 213.50 109.40 214.26 L 109.94 215.10 C 110.43 215.86 111.45 216.08 112.21 215.59 C 112.97 215.10 113.19 214.08 112.70 213.32 Z M 112.16 212.51 L 111.63 211.66 C 111.16 210.89 110.15 210.66 109.39 211.13 C 108.62 211.60 108.39 212.61 108.86 213.37 L 109.39 214.23 C 109.87 214.99 110.87 215.23 111.63 214.75 C 112.40 214.28 112.63 213.27 112.16 212.51 Z M 111.64 211.69 L 111.12 210.82 C 110.66 210.05 109.67 209.80 108.90 210.26 C 108.14 210.72 107.89 211.71 108.34 212.48 L 108.86 213.34 C 109.31 214.11 110.31 214.36 111.07 213.90 C 111.84 213.45 112.09 212.45 111.64 211.69 Z M 111.13 210.85 L 110.63 209.98 C 110.19 209.21 109.20 208.94 108.43 209.38 C 107.66 209.82 107.40 210.81 107.84 211.58 L 108.34 212.45 C 108.78 213.22 109.76 213.49 110.53 213.04 C 111.30 212.60 111.57 211.62 111.13 210.85 Z M 110.63 210.01 L 110.15 209.13 C 109.72 208.36 108.75 208.08 107.98 208.50 C 107.21 208.93 106.92 209.90 107.35 210.67 L 107.83 211.55 C 108.26 212.32 109.23 212.60 110.00 212.18 C 110.78 211.75 111.06 210.78 110.63 210.01 Z M 110.16 209.15 L 109.69 208.27 C 109.28 207.49 108.31 207.20 107.53 207.61 C 106.76 208.02 106.46 208.99 106.87 209.77 L 107.34 210.65 C 107.75 211.43 108.72 211.72 109.50 211.31 C 110.28 210.90 110.57 209.93 110.16 209.15 Z M 109.70 208.29 L 109.24 207.40 C 108.84 206.62 107.88 206.31 107.10 206.71 C 106.32 207.11 106.01 208.07 106.41 208.86 L 106.87 209.74 C 107.27 210.53 108.23 210.84 109.01 210.43 C 109.79 210.03 110.10 209.07 109.70 208.29 Z M 109.25 207.42 L 108.80 206.53 C 108.41 205.74 107.46 205.42 106.67 205.81 C 105.89 206.20 105.57 207.16 105.96 207.94 L 106.40 208.84 C 106.79 209.62 107.75 209.94 108.53 209.55 C 109.32 209.16 109.64 208.21 109.25 207.42 Z M 108.81 206.54 L 108.37 205.64 C 107.99 204.86 107.04 204.53 106.26 204.91 C 105.47 205.29 105.14 206.24 105.52 207.02 L 105.95 207.92 C 106.33 208.71 107.28 209.04 108.07 208.66 C 108.86 208.28 109.19 207.33 108.81 206.54 Z M 108.38 205.66 L 107.95 204.76 C 107.58 203.97 106.64 203.63 105.85 204.00 C 105.06 204.37 104.72 205.31 105.09 206.10 L 105.52 207.01 C 105.89 207.80 106.83 208.14 107.62 207.76 C 108.41 207.39 108.75 206.45 108.38 205.66 Z M 107.95 204.77 L 107.53 203.86 C 107.17 203.07 106.23 202.72 105.44 203.09 C 104.65 203.45 104.30 204.39 104.67 205.18 L 105.09 206.09 C 105.45 206.88 106.39 207.23 107.18 206.86 C 107.97 206.50 108.32 205.56 107.95 204.77 Z M 107.53 203.87 L 107.12 202.96 C 106.76 202.17 105.83 201.82 105.04 202.18 C 104.25 202.54 103.89 203.47 104.25 204.26 L 104.67 205.17 C 105.03 205.96 105.96 206.32 106.75 205.96 C 107.54 205.60 107.89 204.66 107.53 203.87 Z M 107.12 202.97 L 106.71 202.06 C 106.36 201.26 105.43 200.91 104.64 201.26 C 103.85 201.62 103.49 202.55 103.85 203.34 L 104.25 204.25 C 104.61 205.04 105.54 205.40 106.33 205.05 C 107.12 204.69 107.48 203.76 107.12 202.97 Z M 106.71 202.06 L 106.31 201.15 C 105.96 200.36 105.03 200.00 104.24 200.35 C 103.45 200.70 103.09 201.62 103.44 202.42 L 103.85 203.33 C 104.20 204.12 105.12 204.48 105.91 204.13 C 106.71 203.78 107.06 202.86 106.71 202.06 Z M 106.31 201.15 L 105.91 200.24 C 105.56 199.45 104.64 199.09 103.84 199.43 C 103.05 199.78 102.69 200.70 103.04 201.50 L 103.44 202.41 C 103.79 203.20 104.71 203.56 105.50 203.22 C 106.30 202.87 106.66 201.95 106.31 201.15 Z M 105.90 200.24 L 105.61 199.57 C 105.26 198.78 104.34 198.42 103.55 198.76 C 102.76 199.11 102.40 200.03 102.75 200.82 L 103.04 201.49 C 103.39 202.28 104.31 202.64 105.10 202.30 C 105.89 201.95 106.25 201.03 105.90 200.24 Z"
      fill="black"
      fill-rule="nonzero" /></svg>