<svg xmlns="http://www.w3.org/2000/svg" width="300" height="300" viewBox="0 0 300 300">
<path d="M 100.00 93.89 L 99.57 94.79 C 99.14 95.67 99.51 96.73 100.39 97.15 C 101.27 97.57 102.33 97.20 102.75 96.32 L 103.19 95.42 C 103.61 94.54 103.24 93.48 102.36 93.06 C 101.48 92.64 100.42 93.01 100.00 93.89 Z M 99.55 94.80 L 99.13 95.71 C 98.71 96.59 99.09 97.65 99.98 98.07 C 100.87 98.48 101.92 98.10 102.34 97.22 L 102.77 96.31 C 103.18 95.42 102.80 94.37 101.91 93.95 C 101.03 93.53 99.97 93.91 99.55 94.80 Z M 99.11 95.73 L 98.70 96.65 C 98.30 97.54 98.70 98.60 99.60 99.00 C 100.50 99.40 101.55 99.00 101.95 98.10 L 102.36 97.19 C 102.76 96.29 102.36 95.24 101.46 94.84 C 100.56 94.44 99.51 94.84 99.11 95.73 Z M 98.68 96.69 L 98.29 97.61 C 97.91 98.52 98.35 99.57 99.26 99.95 C 100.17 100.32 101.22 99.89 101.59 98.98 L 101.98 98.06 C 102.35 97.15 101.92 96.10 101.01 95.72 C 100.10 95.35 99.05 95.78 98.68 96.69 Z M 98.26 97.67 L 97.92 98.61 C 97.57 99.53 98.04 100.57 98.97 100.91 C 99.90 101.26 100.93 100.78 101.28 99.86 L 101.62 98.92 C 101.97 97.99 101.50 96.96 100.57 96.62 C 99.64 96.27 98.61 96.74 98.26 97.67 Z M 97.88 98.68 L 97.58 99.63 C 97.28 100.58 97.80 101.59 98.74 101.89 C 99.69 102.20 100.70 101.68 101.01 100.73 L 101.31 99.78 C 101.61 98.83 101.09 97.82 100.14 97.52 C 99.20 97.21 98.19 97.74 97.88 98.68 Z M 97.54 99.73 L 97.29 100.69 C 97.04 101.66 97.62 102.64 98.59 102.90 C 99.55 103.15 100.54 102.57 100.79 101.60 L 101.04 100.63 C 101.29 99.67 100.71 98.68 99.75 98.43 C 98.78 98.18 97.80 98.76 97.54 99.73 Z M 97.27 100.80 L 97.08 101.73 C 96.89 102.71 97.53 103.66 98.51 103.85 C 99.49 104.05 100.44 103.41 100.63 102.43 L 100.81 101.50 C 101.01 100.52 100.37 99.57 99.39 99.37 C 98.41 99.18 97.46 99.82 97.27 100.80 Z M 97.07 101.82 L 96.93 102.77 C 96.79 103.76 97.48 104.67 98.47 104.82 C 99.45 104.96 100.37 104.27 100.51 103.28 L 100.65 102.33 C 100.79 101.35 100.10 100.43 99.11 100.29 C 98.12 100.15 97.21 100.83 97.07 101.82 Z M 96.92 102.85 L 96.83 103.81 C 96.73 104.81 97.46 105.69 98.45 105.79 C 99.44 105.89 100.33 105.16 100.43 104.17 L 100.52 103.20 C 100.62 102.21 99.89 101.32 98.90 101.22 C 97.90 101.13 97.02 101.85 96.92 102.85 Z M 96.82 103.88 L 96.76 104.86 C 96.70 105.86 97.45 106.72 98.45 106.78 C 99.45 106.84 100.31 106.09 100.37 105.09 L 100.43 104.10 C 100.49 103.11 99.74 102.25 98.74 102.18 C 97.74 102.12 96.88 102.88 96.82 103.88 Z M 96.76 104.91 L 96.72 105.92 C 96.69 106.92 97.47 107.76 98.46 107.79 C 99.46 107.83 100.30 107.05 100.34 106.05 L 100.37 105.04 C 100.41 104.04 99.63 103.20 98.63 103.17 C 97.63 103.13 96.79 103.91 96.76 104.91 Z M 96.72 105.95 L 96.70 106.98 C 96.69 107.98 97.48 108.80 98.48 108.82 C 99.48 108.84 100.30 108.04 100.32 107.04 L 100.34 106.01 C 100.35 105.01 99.56 104.19 98.56 104.17 C 97.56 104.16 96.74 104.95 96.72 105.95 Z M 96.70 107.00 L 96.70 108.05 C 96.69 109.05 97.50 109.87 98.50 109.87 C 99.50 109.88 100.31 109.07 100.32 108.07 L 100.32 107.02 C 100.33 106.02 99.52 105.21 98.52 105.20 C 97.52 105.20 96.71 106.00 96.70 107.00 Z M 96.70 108.06 L 96.70 109.09 C 96.70 110.09 97.51 110.90 98.51 110.90 C 99.51 110.90 100.32 110.09 100.32 109.09 L 100.32 108.06 C 100.32 107.07 99.51 106.26 98.51 106.26 C 97.51 106.25 96.70 107.06 96.70 108.06 Z M 96.70 109.09 L 96.70 110.06 C 96.70 111.06 97.51 111.87 98.51 111.87 C 99.50 111.87 100.31 111.06 100.31 110.06 L 100.31 109.09 C 100.32 108.10 99.51 107.29 98.51 107.29 C 97.51 107.29 96.70 108.10 96.70 109.09 Z M 96.70 110.06 L 96.70 111.04 C 96.70 112.04 97.50 112.85 98.50 112.85 C 99.50 112.85 100.31 112.04 100.31 111.05 L 100.31 110.06 C 100.32 109.07 99.51 108.26 98.51 108.25 C 97.51 108.25 96.70 109.06 96.70 110.06 Z M 96.70 111.04 L 96.70 112.03 C 96.69 113.03 97.50 113.84 98.50 113.84 C 99.50 113.85 100.31 113.04 100.31 112.04 L 100.31 111.05 C 100.31 110.05 99.51 109.24 98.51 109.24 C 97.51 109.23 96.70 110.04 96.70 111.04 Z M 96.70 112.03 L 96.69 113.03 C 96.69 114.03 97.49 114.84 98.49 114.85 C 99.49 114.85 100.30 114.05 100.30 113.05 L 100.31 112.05 C 100.31 111.05 99.51 110.24 98.51 110.23 C 97.51 110.23 96.70 111.03 96.70 112.03 Z M 96.69 113.03 L 96.68 114.04 C 96.68 115.03 97.48 115.85 98.47 115.86 C 99.47 115.87 100.29 115.06 100.29 114.07 L 100.30 113.06 C 100.31 112.06 99.51 111.24 98.51 111.24 C 97.51 111.23 96.70 112.03 96.69 113.03 Z M 96.68 114.03 L 96.67 115.05 C 96.66 116.04 97.46 116.86 98.46 116.87 C 99.45 116.88 100.27 116.09 100.28 115.09 L 100.29 114.07 C 100.31 113.08 99.51 112.26 98.51 112.25 C 97.51 112.24 96.70 113.03 96.68 114.03 Z M 96.67 115.04 L 96.66 116.06 C 96.64 117.05 97.44 117.87 98.43 117.89 C 99.43 117.91 100.25 117.11 100.26 116.12 L 100.28 115.10 C 100.30 114.10 99.50 113.28 98.51 113.26 C 97.51 113.25 96.69 114.04 96.67 115.04 Z M 96.66 116.05 L 96.64 117.07 C 96.61 118.06 97.40 118.89 98.40 118.91 C 99.40 118.93 100.22 118.14 100.24 117.14 L 100.26 116.12 C 100.28 115.13 99.49 114.30 98.50 114.28 C 97.50 114.26 96.68 115.05 96.66 116.05 Z M 96.64 117.06 L 96.61 118.05 C 96.58 119.04 97.37 119.87 98.36 119.90 C 99.36 119.93 100.19 119.14 100.21 118.15 L 100.24 117.15 C 100.27 116.16 99.48 115.33 98.49 115.30 C 97.49 115.28 96.66 116.06 96.64 117.06 Z M 96.61 118.04 L 96.58 119.02 C 96.55 120.02 97.33 120.85 98.32 120.88 C 99.31 120.91 100.15 120.13 100.18 119.14 L 100.21 118.16 C 100.24 117.16 99.46 116.33 98.47 116.30 C 97.48 116.27 96.65 117.04 96.61 118.04 Z M 96.58 119.01 L 96.55 120.00 C 96.51 120.99 97.28 121.82 98.27 121.86 C 99.27 121.90 100.10 121.13 100.14 120.14 L 100.18 119.15 C 100.21 118.16 99.44 117.32 98.45 117.29 C 97.46 117.25 96.62 118.02 96.58 119.01 Z M 96.55 119.99 L 96.50 120.97 C 96.46 121.97 97.23 122.80 98.22 122.85 C 99.21 122.89 100.05 122.12 100.09 121.13 L 100.14 120.15 C 100.18 119.15 99.41 118.32 98.42 118.27 C 97.43 118.23 96.59 119.00 96.55 119.99 Z M 96.51 120.96 L 96.46 121.96 C 96.41 122.95 97.17 123.79 98.16 123.84 C 99.15 123.89 99.99 123.12 100.04 122.13 L 100.09 121.14 C 100.14 120.15 99.38 119.31 98.39 119.26 C 97.40 119.21 96.56 119.98 96.51 120.96 Z M 96.46 121.95 L 96.41 122.95 C 96.35 123.93 97.11 124.78 98.10 124.83 C 99.08 124.89 99.93 124.13 99.98 123.14 L 100.04 122.14 C 100.09 121.16 99.34 120.31 98.35 120.26 C 97.36 120.20 96.52 120.96 96.46 121.95 Z M 96.41 122.94 L 96.35 123.94 C 96.29 124.93 97.04 125.78 98.03 125.84 C 99.01 125.89 99.86 125.14 99.92 124.16 L 99.98 123.15 C 100.04 122.16 99.29 121.32 98.30 121.26 C 97.32 121.20 96.47 121.95 96.41 122.94 Z M 96.35 123.93 L 96.29 124.95 C 96.22 125.94 96.97 126.79 97.95 126.85 C 98.94 126.91 99.79 126.17 99.85 125.18 L 99.92 124.17 C 99.98 123.18 99.23 122.33 98.25 122.27 C 97.27 122.20 96.42 122.95 96.35 123.93 Z M 96.29 124.94 L 96.22 125.97 C 96.15 126.95 96.89 127.81 97.87 127.88 C 98.85 127.94 99.71 127.20 99.78 126.22 L 99.85 125.19 C 99.92 124.21 99.18 123.36 98.19 123.29 C 97.21 123.22 96.36 123.96 96.29 124.94 Z M 96.22 125.96 L 96.15 126.92 C 96.08 127.90 96.81 128.75 97.79 128.82 C 98.77 128.90 99.63 128.16 99.70 127.18 L 99.77 126.23 C 99.84 125.25 99.11 124.39 98.13 124.32 C 97.15 124.25 96.29 124.98 96.22 125.96 Z M 96.15 126.91 L 96.08 127.87 C 96.00 128.85 96.73 129.70 97.71 129.78 C 98.69 129.85 99.54 129.12 99.62 128.15 L 99.70 127.19 C 99.77 126.21 99.04 125.35 98.06 125.28 C 97.09 125.20 96.23 125.93 96.15 126.91 Z M 96.08 127.86 L 96.00 128.83 C 95.92 129.81 96.65 130.66 97.62 130.74 C 98.60 130.82 99.46 130.10 99.54 129.12 L 99.62 128.15 C 99.70 127.18 98.97 126.32 98.00 126.24 C 97.02 126.16 96.17 126.89 96.08 127.86 Z M 96.01 128.82 L 95.92 129.80 C 95.84 130.78 96.56 131.63 97.53 131.72 C 98.50 131.80 99.36 131.08 99.45 130.11 L 99.53 129.13 C 99.62 128.16 98.90 127.30 97.92 127.22 C 96.95 127.13 96.09 127.85 96.01 128.82 Z M 95.93 129.80 L 95.84 130.79 C 95.75 131.76 96.46 132.62 97.43 132.71 C 98.40 132.80 99.26 132.08 99.35 131.11 L 99.44 130.12 C 99.53 129.15 98.82 128.29 97.85 128.20 C 96.88 128.11 96.02 128.83 95.93 129.80 Z M 95.84 130.78 L 95.75 131.78 C 95.65 132.75 96.36 133.61 97.33 133.70 C 98.29 133.80 99.15 133.09 99.25 132.12 L 99.34 131.12 C 99.44 130.15 98.73 129.29 97.76 129.20 C 96.80 129.11 95.94 129.81 95.84 130.78 Z M 95.75 131.78 L 95.65 132.79 C 95.55 133.75 96.25 134.61 97.21 134.71 C 98.18 134.81 99.04 134.11 99.14 133.14 L 99.24 132.13 C 99.34 131.17 98.64 130.31 97.67 130.21 C 96.71 130.11 95.85 130.81 95.75 131.78 Z M 95.65 132.78 L 95.54 133.80 C 95.44 134.76 96.14 135.63 97.10 135.73 C 98.06 135.83 98.92 135.14 99.02 134.18 L 99.13 133.15 C 99.24 132.19 98.54 131.33 97.58 131.23 C 96.62 131.12 95.76 131.82 95.65 132.78 Z M 95.55 133.79 L 95.43 134.83 C 95.32 135.78 96.01 136.65 96.97 136.76 C 97.93 136.86 98.79 136.17 98.90 135.22 L 99.02 134.18 C 99.12 133.23 98.44 132.36 97.48 132.25 C 96.52 132.15 95.66 132.84 95.55 133.79 Z M 95.44 134.82 L 95.32 135.83 C 95.21 136.78 95.89 137.65 96.84 137.76 C 97.80 137.88 98.66 137.19 98.78 136.24 L 98.89 135.23 C 99.01 134.27 98.33 133.41 97.37 133.29 C 96.42 133.18 95.55 133.86 95.44 134.82 Z M 95.32 135.82 L 95.21 136.75 C 95.09 137.70 95.77 138.57 96.72 138.68 C 97.67 138.80 98.54 138.13 98.66 137.17 L 98.77 136.25 C 98.89 135.29 98.21 134.43 97.26 134.31 C 96.31 134.19 95.44 134.87 95.32 135.82 Z M 95.22 136.74 L 95.10 137.68 C 94.97 138.63 95.64 139.49 96.59 139.62 C 97.54 139.74 98.41 139.07 98.53 138.12 L 98.65 137.18 C 98.77 136.23 98.10 135.37 97.15 135.25 C 96.20 135.12 95.34 135.79 95.22 136.74 Z M 95.10 137.67 L 94.97 138.62 C 94.85 139.56 95.51 140.43 96.46 140.56 C 97.40 140.68 98.27 140.02 98.40 139.07 L 98.52 138.13 C 98.65 137.18 97.99 136.31 97.04 136.19 C 96.10 136.06 95.23 136.73 95.10 137.67 Z M 94.98 138.61 L 94.85 139.57 C 94.72 140.51 95.37 141.38 96.32 141.51 C 97.26 141.64 98.13 140.98 98.26 140.04 L 98.39 139.08 C 98.52 138.14 97.86 137.27 96.92 137.14 C 95.98 137.01 95.11 137.67 94.98 138.61 Z M 94.85 139.56 L 94.71 140.53 C 94.58 141.47 95.23 142.34 96.17 142.48 C 97.11 142.61 97.98 141.96 98.11 141.02 L 98.25 140.05 C 98.39 139.11 97.74 138.24 96.80 138.11 C 95.86 137.97 94.99 138.62 94.85 139.56 Z M 94.72 140.52 L 94.57 141.51 C 94.43 142.45 95.08 143.32 96.01 143.46 C 96.95 143.60 97.82 142.95 97.96 142.02 L 98.11 141.03 C 98.25 140.09 97.60 139.22 96.67 139.08 C 95.73 138.94 94.86 139.59 94.72 140.52 Z M 94.58 141.50 L 94.42 142.50 C 94.28 143.44 94.92 144.31 95.85 144.45 C 96.78 144.60 97.65 143.96 97.80 143.02 L 97.95 142.02 C 98.10 141.09 97.46 140.22 96.53 140.08 C 95.59 139.93 94.72 140.57 94.58 141.50 Z M 94.43 142.50 L 94.27 143.51 C 94.12 144.44 94.75 145.32 95.68 145.46 C 96.61 145.61 97.48 144.98 97.63 144.05 L 97.79 143.03 C 97.94 142.10 97.31 141.23 96.38 141.08 C 95.45 140.93 94.58 141.57 94.43 142.50 Z M 94.27 143.51 L 94.10 144.54 C 93.95 145.47 94.58 146.34 95.50 146.49 C 96.43 146.65 97.30 146.02 97.45 145.10 L 97.62 144.06 C 97.78 143.13 97.15 142.26 96.22 142.11 C 95.30 141.96 94.43 142.58 94.27 143.51 Z M 94.11 144.54 L 93.93 145.59 C 93.77 146.51 94.39 147.39 95.31 147.54 C 96.24 147.70 97.11 147.08 97.27 146.16 L 97.45 145.10 C 97.60 144.18 96.98 143.31 96.06 143.15 C 95.14 142.99 94.26 143.61 94.11 144.54 Z M 93.94 145.59 L 93.75 146.62 C 93.59 147.54 94.21 148.42 95.13 148.58 C 96.04 148.74 96.92 148.12 97.08 147.20 L 97.26 146.17 C 97.42 145.25 96.81 144.37 95.89 144.21 C 94.97 144.05 94.10 144.67 93.94 145.59 Z M 93.76 146.62 L 93.59 147.56 C 93.43 148.47 94.04 149.35 94.95 149.51 C 95.87 149.68 96.74 149.07 96.91 148.15 L 97.07 147.21 C 97.24 146.30 96.63 145.42 95.71 145.26 C 94.80 145.09 93.92 145.70 93.76 146.62 Z M 93.60 147.55 L 93.42 148.50 C 93.25 149.42 93.86 150.29 94.77 150.46 C 95.68 150.63 96.56 150.02 96.73 149.11 L 96.90 148.16 C 97.07 147.24 96.46 146.37 95.55 146.20 C 94.64 146.03 93.76 146.64 93.60 147.55 Z M 93.43 148.50 L 93.25 149.46 C 93.08 150.37 93.67 151.25 94.58 151.42 C 95.49 151.59 96.37 150.99 96.54 150.08 L 96.72 149.12 C 96.89 148.21 96.29 147.33 95.38 147.16 C 94.47 146.99 93.60 147.59 93.43 148.50 Z M 93.25 149.46 L 93.06 150.43 C 92.89 151.34 93.48 152.22 94.39 152.39 C 95.30 152.56 96.17 151.97 96.35 151.06 L 96.54 150.09 C 96.71 149.18 96.11 148.30 95.21 148.13 C 94.30 147.96 93.43 148.55 93.25 149.46 Z M 93.07 150.43 L 92.88 151.41 C 92.70 152.31 93.29 153.19 94.19 153.37 C 95.10 153.54 95.97 152.95 96.15 152.05 L 96.34 151.07 C 96.52 150.16 95.93 149.29 95.03 149.11 C 94.12 148.93 93.25 149.52 93.07 150.43 Z M 92.88 151.40 L 92.68 152.39 C 92.50 153.29 93.09 154.17 93.99 154.35 C 94.89 154.53 95.77 153.95 95.95 153.05 L 96.14 152.06 C 96.33 151.16 95.74 150.28 94.84 150.10 C 93.94 149.92 93.06 150.50 92.88 151.40 Z M 92.69 152.39 L 92.49 153.38 C 92.30 154.28 92.88 155.15 93.78 155.34 C 94.68 155.52 95.55 154.94 95.74 154.05 L 95.94 153.05 C 96.13 152.15 95.55 151.28 94.65 151.09 C 93.75 150.91 92.87 151.49 92.69 152.39 Z M 92.49 153.37 L 92.28 154.37 C 92.09 155.26 92.67 156.14 93.56 156.33 C 94.46 156.52 95.34 155.94 95.52 155.05 L 95.73 154.05 C 95.92 153.16 95.35 152.28 94.45 152.09 C 93.56 151.90 92.68 152.48 92.49 153.37 Z M 92.29 154.36 L 92.07 155.36 C 91.88 156.25 92.45 157.13 93.34 157.32 C 94.23 157.51 95.11 156.94 95.30 156.05 L 95.52 155.06 C 95.71 154.16 95.14 153.29 94.25 153.09 C 93.36 152.90 92.48 153.47 92.29 154.36 Z M 92.08 155.35 L 91.86 156.35 C 91.67 157.24 92.23 158.11 93.12 158.31 C 94.01 158.51 94.88 157.94 95.08 157.05 L 95.30 156.06 C 95.49 155.17 94.93 154.29 94.04 154.10 C 93.15 153.90 92.27 154.46 92.08 155.35 Z M 91.87 156.34 L 91.64 157.33 C 91.44 158.22 92.00 159.10 92.89 159.30 C 93.77 159.50 94.65 158.94 94.85 158.05 L 95.07 157.06 C 95.27 156.18 94.72 155.30 93.83 155.10 C 92.95 154.90 92.07 155.45 91.87 156.34 Z M 91.65 157.32 L 91.42 158.31 C 91.22 159.19 91.77 160.07 92.65 160.28 C 93.53 160.48 94.41 159.93 94.62 159.05 L 94.84 158.06 C 95.05 157.18 94.50 156.30 93.62 156.10 C 92.73 155.89 91.85 156.44 91.65 157.32 Z M 91.43 158.30 L 91.19 159.32 C 90.98 160.20 91.52 161.08 92.40 161.29 C 93.28 161.49 94.16 160.95 94.37 160.07 L 94.61 159.06 C 94.82 158.18 94.27 157.30 93.40 157.09 C 92.52 156.88 91.64 157.42 91.43 158.30 Z M 91.20 159.31 L 90.94 160.36 C 90.73 161.24 91.26 162.12 92.14 162.33 C 93.01 162.54 93.90 162.01 94.11 161.13 L 94.36 160.08 C 94.58 159.20 94.04 158.32 93.16 158.11 C 92.29 157.90 91.41 158.43 91.20 159.31 Z M 90.95 160.35 L 90.69 161.39 C 90.47 162.26 91.00 163.15 91.87 163.36 C 92.74 163.58 93.62 163.05 93.84 162.18 L 94.10 161.14 C 94.32 160.27 93.79 159.39 92.92 159.17 C 92.05 158.95 91.17 159.48 90.95 160.35 Z M 90.70 161.38 L 90.43 162.41 C 90.21 163.28 90.73 164.16 91.60 164.38 C 92.46 164.60 93.35 164.08 93.57 163.22 L 93.83 162.19 C 94.06 161.32 93.53 160.44 92.67 160.22 C 91.80 160.00 90.92 160.52 90.70 161.38 Z M 90.44 162.40 L 90.17 163.41 C 89.95 164.27 90.46 165.16 91.32 165.38 C 92.18 165.61 93.07 165.10 93.30 164.24 L 93.56 163.23 C 93.79 162.36 93.28 161.48 92.41 161.25 C 91.55 161.02 90.67 161.54 90.44 162.40 Z M 90.18 163.40 L 89.91 164.39 C 89.68 165.25 90.18 166.14 91.04 166.37 C 91.90 166.60 92.78 166.10 93.02 165.24 L 93.29 164.25 C 93.52 163.39 93.01 162.50 92.16 162.27 C 91.30 162.04 90.41 162.54 90.18 163.40 Z M 89.92 164.38 L 89.65 165.36 C 89.41 166.21 89.91 167.10 90.76 167.33 C 91.61 167.57 92.50 167.08 92.74 166.22 L 93.01 165.25 C 93.25 164.40 92.75 163.51 91.90 163.27 C 91.04 163.03 90.16 163.53 89.92 164.38 Z M 89.66 165.35 L 89.38 166.30 C 89.14 167.15 89.63 168.03 90.47 168.28 C 91.32 168.52 92.21 168.03 92.45 167.18 L 92.73 166.23 C 92.97 165.38 92.48 164.50 91.64 164.25 C 90.79 164.01 89.90 164.50 89.66 165.35 Z M 89.39 166.29 L 89.11 167.22 C 88.86 168.06 89.34 168.95 90.19 169.20 C 91.03 169.45 91.92 168.97 92.17 168.12 L 92.45 167.20 C 92.70 166.35 92.22 165.46 91.37 165.21 C 90.53 164.96 89.64 165.44 89.39 166.29 Z M 89.12 167.20 L 88.84 168.11 C 88.59 168.95 89.06 169.83 89.90 170.09 C 90.74 170.35 91.62 169.88 91.88 169.04 L 92.16 168.14 C 92.42 167.30 91.95 166.41 91.11 166.15 C 90.27 165.89 89.38 166.36 89.12 167.20 Z M 88.85 168.09 L 88.58 168.97 C 88.31 169.80 88.77 170.69 89.61 170.96 C 90.44 171.22 91.33 170.76 91.59 169.93 L 91.87 169.05 C 92.14 168.22 91.68 167.33 90.84 167.06 C 90.01 166.80 89.12 167.26 88.85 168.09 Z M 88.59 168.96 L 88.31 169.80 C 88.03 170.63 88.48 171.52 89.31 171.80 C 90.14 172.07 91.03 171.62 91.30 170.79 L 91.58 169.94 C 91.86 169.12 91.41 168.22 90.58 167.95 C 89.75 167.68 88.86 168.13 88.59 168.96 Z M 88.32 169.79 L 87.98 170.76 C 87.70 171.58 88.14 172.48 88.96 172.76 C 89.78 173.04 90.68 172.60 90.96 171.78 L 91.29 170.81 C 91.58 169.99 91.14 169.09 90.32 168.81 C 89.49 168.53 88.60 168.96 88.32 169.79 Z M 87.99 170.74 L 87.62 171.77 C 87.33 172.59 87.75 173.49 88.57 173.79 C 89.38 174.08 90.29 173.66 90.58 172.84 L 90.95 171.80 C 91.25 170.98 90.82 170.08 90.00 169.79 C 89.19 169.50 88.29 169.92 87.99 170.74 Z M 87.63 171.75 L 87.26 172.74 C 86.95 173.56 87.36 174.46 88.17 174.77 C 88.99 175.07 89.89 174.66 90.20 173.85 L 90.57 172.86 C 90.88 172.05 90.46 171.14 89.65 170.84 C 88.84 170.53 87.93 170.94 87.63 171.75 Z M 87.27 172.72 L 86.89 173.68 C 86.58 174.48 86.97 175.39 87.78 175.71 C 88.59 176.03 89.50 175.63 89.82 174.82 L 90.19 173.87 C 90.50 173.06 90.11 172.15 89.30 171.84 C 88.49 171.52 87.58 171.92 87.27 172.72 Z M 86.90 173.66 L 86.53 174.58 C 86.20 175.38 86.59 176.29 87.39 176.62 C 88.19 176.94 89.11 176.56 89.43 175.76 L 89.81 174.84 C 90.13 174.04 89.75 173.12 88.94 172.80 C 88.14 172.47 87.23 172.86 86.90 173.66 Z M 86.54 174.56 L 86.16 175.45 C 85.83 176.25 86.21 177.17 87.00 177.50 C 87.80 177.83 88.72 177.46 89.05 176.66 L 89.43 175.77 C 89.76 174.97 89.38 174.05 88.59 173.72 C 87.79 173.39 86.87 173.76 86.54 174.56 Z M 86.17 175.44 L 85.80 176.31 C 85.46 177.10 85.83 178.02 86.62 178.36 C 87.41 178.70 88.33 178.34 88.67 177.54 L 89.05 176.67 C 89.39 175.88 89.02 174.96 88.23 174.62 C 87.43 174.28 86.51 174.64 86.17 175.44 Z M 85.80 176.30 L 85.43 177.16 C 85.09 177.95 85.45 178.87 86.24 179.21 C 87.03 179.56 87.95 179.20 88.30 178.41 L 88.67 177.55 C 89.01 176.76 88.65 175.84 87.86 175.49 C 87.07 175.15 86.15 175.51 85.80 176.30 Z M 85.43 177.15 L 85.06 178.00 C 84.71 178.79 85.07 179.71 85.86 180.06 C 86.65 180.40 87.57 180.05 87.92 179.26 L 88.29 178.41 C 88.64 177.62 88.28 176.70 87.49 176.35 C 86.70 176.00 85.78 176.36 85.43 177.15 Z M 85.06 178.00 L 84.95 178.25 C 84.60 179.04 84.96 179.96 85.75 180.31 C 86.54 180.65 87.46 180.30 87.81 179.51 L 87.92 179.26 C 88.27 178.47 87.91 177.55 87.12 177.20 C 86.33 176.85 85.41 177.21 85.06 178.00 Z"
      fill="black"
      fill-rule="nonzero" /><path d="M 78.29 190.24 L 78.46 189.29 C 78.64 188.28 77.97 187.31 76.96 187.13 C 75.95 186.94 74.98 187.61 74.80 188.62 L 74.63 189.57 C 74.44 190.58 75.12 191.55 76.13 191.73 C 77.14 191.92 78.10 191.25 78.29 190.24 Z M 78.46 189.32 L 78.65 188.38 C 78.85 187.37 78.20 186.38 77.19 186.18 C 76.18 185.98 75.20 186.63 74.99 187.64 L 74.80 188.59 C 74.60 189.60 75.25 190.58 76.26 190.78 C 77.27 190.99 78.26 190.33 78.46 189.32 Z M 78.64 188.45 L 78.87 187.50 C 79.11 186.49 78.49 185.48 77.48 185.24 C 76.48 185.00 75.47 185.62 75.23 186.63 L 75.00 187.57 C 74.76 188.58 75.38 189.59 76.38 189.83 C 77.39 190.07 78.40 189.45 78.64 188.45 Z M 78.85 187.60 L 79.13 186.65 C 79.42 185.66 78.86 184.61 77.86 184.32 C 76.87 184.02 75.83 184.59 75.53 185.58 L 75.25 186.53 C 74.95 187.52 75.52 188.56 76.51 188.86 C 77.51 189.16 78.55 188.59 78.85 187.60 Z M 79.09 186.78 L 79.45 185.83 C 79.81 184.86 79.32 183.77 78.34 183.41 C 77.37 183.04 76.29 183.54 75.92 184.51 L 75.57 185.46 C 75.20 186.43 75.70 187.51 76.67 187.88 C 77.64 188.24 78.73 187.75 79.09 186.78 Z M 79.39 185.97 L 79.84 185.03 C 80.28 184.09 79.88 182.96 78.94 182.52 C 77.99 182.07 76.87 182.48 76.43 183.42 L 75.98 184.37 C 75.53 185.31 75.94 186.43 76.88 186.88 C 77.82 187.32 78.95 186.92 79.39 185.97 Z M 79.76 185.17 L 80.26 184.31 C 80.79 183.41 80.48 182.25 79.58 181.73 C 78.68 181.20 77.52 181.51 77.00 182.41 L 76.50 183.27 C 75.97 184.18 76.28 185.33 77.18 185.86 C 78.08 186.38 79.24 186.07 79.76 185.17 Z M 80.19 184.42 L 80.71 183.65 C 81.30 182.79 81.08 181.62 80.22 181.03 C 79.36 180.45 78.19 180.67 77.60 181.53 L 77.08 182.30 C 76.49 183.16 76.71 184.33 77.57 184.91 C 78.43 185.50 79.60 185.28 80.19 184.42 Z M 80.65 183.73 L 81.24 182.96 C 81.87 182.14 81.71 180.97 80.89 180.33 C 80.07 179.70 78.89 179.86 78.26 180.68 L 77.67 181.45 C 77.04 182.27 77.19 183.44 78.02 184.08 C 78.84 184.71 80.01 184.55 80.65 183.73 Z M 81.18 183.03 L 81.82 182.26 C 82.49 181.47 82.39 180.30 81.60 179.63 C 80.81 178.97 79.63 179.07 78.96 179.86 L 78.32 180.62 C 77.66 181.41 77.76 182.58 78.55 183.25 C 79.33 183.91 80.51 183.81 81.18 183.03 Z M 81.77 182.31 L 82.45 181.55 C 83.14 180.79 83.09 179.62 82.33 178.93 C 81.57 178.24 80.39 178.29 79.70 179.05 L 79.01 179.81 C 78.32 180.57 78.38 181.75 79.14 182.44 C 79.90 183.13 81.08 183.07 81.77 182.31 Z M 82.41 181.59 L 83.13 180.84 C 83.84 180.10 83.81 178.93 83.08 178.22 C 82.34 177.51 81.16 177.54 80.46 178.28 L 79.74 179.02 C 79.03 179.76 79.06 180.93 79.79 181.64 C 80.53 182.35 81.70 182.33 82.41 181.59 Z M 83.09 180.87 L 83.83 180.13 C 84.55 179.41 84.55 178.25 83.83 177.52 C 83.12 176.80 81.95 176.80 81.23 177.52 L 80.49 178.25 C 79.77 178.97 79.77 180.14 80.49 180.86 C 81.20 181.58 82.37 181.59 83.09 180.87 Z M 83.80 180.15 L 84.55 179.43 C 85.28 178.72 85.30 177.56 84.59 176.83 C 83.89 176.10 82.73 176.08 82.00 176.79 L 81.25 177.50 C 80.52 178.21 80.50 179.37 81.21 180.10 C 81.91 180.83 83.07 180.85 83.80 180.15 Z M 84.53 179.44 L 85.28 178.72 C 86.02 178.03 86.05 176.87 85.35 176.14 C 84.66 175.41 83.50 175.37 82.77 176.07 L 82.02 176.78 C 81.28 177.47 81.25 178.63 81.94 179.36 C 82.64 180.10 83.80 180.13 84.53 179.44 Z M 85.26 178.73 L 86.02 178.02 C 86.75 177.34 86.80 176.19 86.11 175.46 C 85.43 174.72 84.28 174.68 83.55 175.36 L 82.79 176.07 C 82.05 176.75 82.01 177.90 82.70 178.63 C 83.38 179.37 84.53 179.41 85.26 178.73 Z M 86.00 178.02 L 86.75 177.34 C 87.49 176.66 87.54 175.52 86.86 174.79 C 86.19 174.05 85.05 174.00 84.32 174.68 L 83.56 175.36 C 82.83 176.03 82.78 177.18 83.45 177.91 C 84.12 178.65 85.26 178.70 86.00 178.02 Z M 86.73 177.34 L 87.48 176.67 C 88.21 176.00 88.27 174.87 87.61 174.14 C 86.95 173.40 85.82 173.34 85.08 174.00 L 84.33 174.67 C 83.60 175.34 83.54 176.47 84.20 177.20 C 84.86 177.94 86.00 178.00 86.73 177.34 Z M 87.46 176.67 L 88.20 176.01 C 88.94 175.36 89.01 174.23 88.36 173.50 C 87.70 172.76 86.58 172.69 85.85 173.34 L 85.10 174.00 C 84.37 174.65 84.30 175.78 84.95 176.51 C 85.60 177.25 86.72 177.32 87.46 176.67 Z M 88.18 176.01 L 88.93 175.36 C 89.66 174.72 89.74 173.60 89.10 172.87 C 88.46 172.13 87.34 172.06 86.61 172.70 L 85.86 173.34 C 85.13 173.98 85.05 175.10 85.69 175.83 C 86.33 176.57 87.45 176.65 88.18 176.01 Z M 88.91 175.36 L 89.65 174.72 C 90.39 174.09 90.47 172.99 89.84 172.25 C 89.21 171.52 88.11 171.43 87.37 172.06 L 86.63 172.70 C 85.89 173.33 85.81 174.43 86.44 175.17 C 87.07 175.90 88.17 175.99 88.91 175.36 Z M 89.63 174.72 L 90.38 174.10 C 91.11 173.48 91.21 172.38 90.59 171.64 C 89.97 170.91 88.87 170.81 88.14 171.43 L 87.39 172.06 C 86.65 172.68 86.56 173.78 87.18 174.51 C 87.80 175.25 88.90 175.34 89.63 174.72 Z M 90.36 174.10 L 91.12 173.47 C 91.86 172.86 91.96 171.77 91.35 171.03 C 90.74 170.30 89.65 170.19 88.92 170.80 L 88.15 171.43 C 87.42 172.04 87.32 173.13 87.92 173.87 C 88.53 174.60 89.62 174.70 90.36 174.10 Z M 91.10 173.47 L 91.87 172.84 C 92.61 172.24 92.72 171.16 92.12 170.42 C 91.52 169.69 90.44 169.57 89.70 170.17 L 88.93 170.80 C 88.20 171.40 88.09 172.48 88.68 173.22 C 89.28 173.95 90.37 174.07 91.10 173.47 Z M 91.86 172.84 L 92.63 172.22 C 93.37 171.63 93.49 170.56 92.90 169.82 C 92.31 169.08 91.24 168.96 90.50 169.55 L 89.72 170.17 C 88.99 170.76 88.87 171.84 89.45 172.57 C 90.04 173.31 91.12 173.43 91.86 172.84 Z M 92.61 172.22 L 93.40 171.61 C 94.14 171.03 94.27 169.96 93.69 169.22 C 93.11 168.48 92.04 168.35 91.30 168.93 L 90.52 169.55 C 89.78 170.13 89.65 171.20 90.23 171.93 C 90.81 172.67 91.88 172.80 92.61 172.22 Z M 93.38 171.61 L 94.17 171.00 C 94.91 170.43 95.05 169.37 94.48 168.63 C 93.91 167.89 92.85 167.75 92.11 168.32 L 91.32 168.93 C 90.58 169.50 90.44 170.56 91.01 171.30 C 91.58 172.04 92.64 172.18 93.38 171.61 Z M 94.15 171.00 L 94.95 170.40 C 95.69 169.84 95.84 168.79 95.28 168.05 C 94.72 167.31 93.67 167.16 92.93 167.72 L 92.13 168.32 C 91.39 168.88 91.24 169.93 91.80 170.67 C 92.36 171.41 93.41 171.56 94.15 171.00 Z M 94.93 170.40 L 95.74 169.80 C 96.48 169.25 96.64 168.21 96.09 167.47 C 95.54 166.73 94.50 166.57 93.76 167.12 L 92.95 167.72 C 92.21 168.27 92.05 169.31 92.60 170.05 C 93.15 170.79 94.19 170.95 94.93 170.40 Z M 95.72 169.80 L 96.54 169.21 C 97.28 168.67 97.45 167.63 96.91 166.89 C 96.37 166.15 95.33 165.98 94.59 166.52 L 93.77 167.12 C 93.03 167.65 92.87 168.69 93.41 169.43 C 93.94 170.17 94.98 170.34 95.72 169.80 Z M 96.52 169.21 L 97.31 168.65 C 98.06 168.12 98.23 167.09 97.70 166.35 C 97.17 165.60 96.14 165.43 95.40 165.96 L 94.61 166.52 C 93.87 167.05 93.69 168.08 94.22 168.82 C 94.75 169.56 95.78 169.74 96.52 169.21 Z M 97.30 168.65 L 98.10 168.09 C 98.84 167.57 99.02 166.55 98.51 165.80 C 97.99 165.06 96.96 164.88 96.22 165.40 L 95.42 165.96 C 94.67 166.48 94.49 167.50 95.01 168.24 C 95.53 168.99 96.55 169.17 97.30 168.65 Z M 98.08 168.09 L 98.90 167.53 C 99.64 167.02 99.83 166.00 99.32 165.26 C 98.81 164.52 97.79 164.33 97.05 164.84 L 96.23 165.39 C 95.49 165.90 95.30 166.92 95.81 167.67 C 96.32 168.41 97.34 168.60 98.08 168.09 Z M 98.88 167.53 L 99.71 166.98 C 100.45 166.48 100.65 165.47 100.15 164.72 C 99.64 163.98 98.63 163.78 97.89 164.28 L 97.06 164.84 C 96.32 165.34 96.12 166.35 96.62 167.09 C 97.12 167.84 98.14 168.04 98.88 167.53 Z M 99.69 166.98 L 100.53 166.43 C 101.27 165.93 101.48 164.93 100.98 164.18 C 100.49 163.44 99.49 163.23 98.74 163.73 L 97.90 164.28 C 97.16 164.77 96.95 165.78 97.45 166.52 C 97.94 167.27 98.94 167.47 99.69 166.98 Z M 100.51 166.43 L 101.36 165.87 C 102.11 165.39 102.32 164.39 101.83 163.64 C 101.35 162.90 100.35 162.69 99.60 163.17 L 98.75 163.72 C 98.01 164.21 97.80 165.21 98.28 165.95 C 98.77 166.70 99.77 166.91 100.51 166.43 Z M 101.35 165.87 L 102.21 165.32 C 102.95 164.85 103.17 163.85 102.70 163.11 C 102.22 162.36 101.23 162.14 100.48 162.62 L 99.62 163.17 C 98.87 163.65 98.65 164.64 99.13 165.39 C 99.61 166.13 100.60 166.35 101.35 165.87 Z M 102.19 165.32 L 103.07 164.77 C 103.81 164.30 104.04 163.32 103.57 162.57 C 103.10 161.83 102.11 161.60 101.37 162.07 L 100.49 162.62 C 99.75 163.09 99.52 164.08 99.99 164.82 C 100.46 165.57 101.45 165.79 102.19 165.32 Z M 103.06 164.77 L 103.91 164.25 C 104.65 163.78 104.88 162.80 104.42 162.06 C 103.96 161.31 102.98 161.08 102.23 161.54 L 101.38 162.07 C 100.63 162.53 100.40 163.51 100.87 164.26 C 101.33 165.01 102.31 165.24 103.06 164.77 Z M 103.90 164.25 L 104.75 163.72 C 105.50 163.26 105.74 162.29 105.28 161.54 C 104.82 160.79 103.84 160.56 103.10 161.02 L 102.24 161.54 C 101.49 162.00 101.26 162.98 101.71 163.72 C 102.17 164.47 103.15 164.71 103.90 164.25 Z M 104.75 163.72 L 105.61 163.20 C 106.36 162.75 106.60 161.77 106.14 161.02 C 105.69 160.28 104.71 160.04 103.97 160.49 L 103.10 161.02 C 102.35 161.47 102.12 162.44 102.57 163.19 C 103.02 163.94 104.00 164.18 104.75 163.72 Z M 105.60 163.20 L 106.47 162.68 C 107.22 162.23 107.46 161.26 107.01 160.51 C 106.56 159.76 105.59 159.52 104.84 159.97 L 103.97 160.49 C 103.22 160.94 102.98 161.91 103.43 162.66 C 103.88 163.41 104.86 163.65 105.60 163.20 Z M 106.46 162.68 L 107.33 162.16 C 108.08 161.71 108.32 160.74 107.87 159.99 C 107.42 159.25 106.45 159.00 105.71 159.45 L 104.84 159.97 C 104.10 160.42 103.85 161.39 104.30 162.14 C 104.75 162.88 105.72 163.12 106.46 162.68 Z M 107.33 162.16 L 108.19 161.64 C 108.93 161.19 109.17 160.23 108.73 159.48 C 108.28 158.74 107.32 158.49 106.57 158.94 L 105.71 159.45 C 104.96 159.90 104.72 160.87 105.17 161.61 C 105.61 162.36 106.58 162.60 107.33 162.16 Z M 108.18 161.64 L 109.04 161.13 C 109.78 160.68 110.02 159.72 109.58 158.97 C 109.13 158.23 108.17 157.99 107.42 158.43 L 106.57 158.94 C 105.83 159.39 105.59 160.35 106.03 161.10 C 106.48 161.84 107.44 162.08 108.18 161.64 Z M 109.04 161.12 L 109.88 160.62 C 110.62 160.17 110.86 159.21 110.41 158.47 C 109.97 157.73 109.01 157.49 108.26 157.93 L 107.42 158.44 C 106.68 158.88 106.44 159.84 106.89 160.59 C 107.33 161.33 108.30 161.57 109.04 161.12 Z M 109.88 160.61 L 110.75 160.09 C 111.49 159.64 111.73 158.68 111.28 157.94 C 110.84 157.20 109.88 156.96 109.14 157.41 L 108.26 157.94 C 107.52 158.38 107.29 159.34 107.73 160.08 C 108.18 160.82 109.14 161.06 109.88 160.61 Z M 110.76 160.08 L 111.64 159.55 C 112.37 159.10 112.61 158.14 112.16 157.40 C 111.71 156.66 110.75 156.43 110.01 156.88 L 109.13 157.41 C 108.39 157.86 108.16 158.82 108.61 159.56 C 109.06 160.30 110.02 160.53 110.76 160.08 Z M 111.64 159.55 L 112.50 159.02 C 113.24 158.57 113.47 157.61 113.02 156.87 C 112.57 156.13 111.61 155.90 110.87 156.35 L 110.01 156.88 C 109.27 157.33 109.04 158.29 109.49 159.03 C 109.94 159.76 110.90 160.00 111.64 159.55 Z M 112.51 159.02 L 113.36 158.49 C 114.10 158.04 114.33 157.08 113.87 156.34 C 113.42 155.61 112.46 155.38 111.72 155.83 L 110.87 156.35 C 110.14 156.80 109.91 157.77 110.36 158.50 C 110.81 159.24 111.77 159.47 112.51 159.02 Z M 113.36 158.49 L 114.21 157.97 C 114.94 157.52 115.17 156.55 114.72 155.82 C 114.26 155.09 113.30 154.86 112.57 155.31 L 111.72 155.83 C 110.99 156.28 110.76 157.25 111.21 157.98 C 111.67 158.71 112.63 158.94 113.36 158.49 Z M 114.21 157.97 L 115.04 157.45 C 115.78 157.00 116.00 156.03 115.55 155.30 C 115.10 154.57 114.13 154.34 113.40 154.79 L 112.56 155.31 C 111.83 155.77 111.60 156.73 112.06 157.46 C 112.51 158.20 113.47 158.42 114.21 157.97 Z M 115.04 157.45 L 115.88 156.93 C 116.61 156.48 116.83 155.52 116.38 154.78 C 115.93 154.05 114.96 153.83 114.23 154.28 L 113.40 154.80 C 112.67 155.25 112.44 156.21 112.89 156.95 C 113.35 157.68 114.31 157.90 115.04 157.45 Z M 115.88 156.93 L 116.70 156.42 C 117.44 155.97 117.66 155.00 117.21 154.27 C 116.75 153.54 115.79 153.31 115.06 153.77 L 114.23 154.28 C 113.50 154.74 113.27 155.70 113.73 156.43 C 114.18 157.16 115.14 157.39 115.88 156.93 Z M 116.70 156.42 L 116.75 156.39 C 117.48 155.94 117.71 154.98 117.25 154.24 C 116.80 153.51 115.83 153.29 115.10 153.74 L 115.06 153.77 C 114.33 154.22 114.10 155.18 114.56 155.92 C 115.01 156.65 115.97 156.87 116.70 156.42 Z"
      fill="black"
      fill-rule="nonzero" /><path d="M 138.92 121.48 L 138.22 122.24 C 137.57 122.93 137.61 124.02 138.31 124.66 C 139.00 125.31 140.09 125.27 140.73 124.58 L 141.44 123.83 C 142.08 123.13 142.05 122.04 141.35 121.40 C 140.66 120.75 139.57 120.79 138.92 121.48 Z M 138.17 122.26 L 137.49 123.02 C 136.86 123.75 136.93 124.85 137.65 125.48 C 138.38 126.12 139.48 126.05 140.12 125.32 L 140.79 124.56 C 141.42 123.83 141.35 122.73 140.63 122.10 C 139.90 121.46 138.80 121.53 138.17 122.26 Z M 137.40 123.09 L 136.79 123.88 C 136.19 124.65 136.34 125.77 137.11 126.36 C 137.88 126.96 139.00 126.82 139.60 126.05 L 140.21 125.26 C 140.81 124.48 140.66 123.37 139.89 122.77 C 139.12 122.17 138.00 122.31 137.40 123.09 Z M 136.67 124.01 L 136.15 124.83 C 135.62 125.67 135.87 126.78 136.72 127.31 C 137.56 127.84 138.67 127.59 139.20 126.75 L 139.72 125.92 C 140.25 125.08 139.99 123.97 139.15 123.44 C 138.31 122.91 137.20 123.16 136.67 124.01 Z M 136.01 125.03 L 135.61 125.91 C 135.20 126.83 135.60 127.91 136.52 128.33 C 137.43 128.75 138.51 128.34 138.93 127.42 L 139.33 126.55 C 139.75 125.63 139.35 124.55 138.43 124.13 C 137.51 123.71 136.43 124.12 136.01 125.03 Z M 135.50 126.17 L 135.26 127.04 C 134.99 128.01 135.56 129.03 136.54 129.30 C 137.52 129.57 138.53 129.00 138.80 128.02 L 139.04 127.16 C 139.31 126.18 138.74 125.17 137.77 124.90 C 136.79 124.63 135.78 125.20 135.50 126.17 Z M 135.21 127.31 L 135.10 128.22 C 134.98 129.23 135.69 130.14 136.70 130.27 C 137.70 130.39 138.62 129.67 138.74 128.67 L 138.85 127.75 C 138.97 126.75 138.26 125.83 137.26 125.71 C 136.25 125.59 135.34 126.30 135.21 127.31 Z M 135.09 128.48 L 135.11 129.45 C 135.12 130.46 135.96 131.26 136.97 131.25 C 137.98 131.23 138.78 130.40 138.77 129.39 L 138.75 128.42 C 138.73 127.41 137.90 126.60 136.89 126.62 C 135.88 126.64 135.07 127.47 135.09 128.48 Z M 135.13 129.67 L 135.27 130.69 C 135.41 131.69 136.34 132.39 137.34 132.25 C 138.33 132.11 139.03 131.18 138.89 130.18 L 138.74 129.16 C 138.60 128.16 137.68 127.47 136.68 127.61 C 135.68 127.75 134.99 128.67 135.13 129.67 Z M 135.31 130.89 L 135.59 131.96 C 135.83 132.94 136.83 133.53 137.80 133.28 C 138.78 133.03 139.37 132.04 139.12 131.07 L 138.85 129.99 C 138.60 129.01 137.61 128.42 136.63 128.67 C 135.66 128.92 135.07 129.91 135.31 130.89 Z M 135.64 132.11 L 135.96 133.03 C 136.29 133.98 137.32 134.48 138.27 134.15 C 139.22 133.82 139.72 132.79 139.39 131.84 L 139.07 130.92 C 138.74 129.97 137.71 129.47 136.76 129.80 C 135.81 130.13 135.31 131.16 135.64 132.11 Z M 136.01 133.13 L 136.35 133.95 C 136.73 134.87 137.79 135.30 138.71 134.92 C 139.63 134.54 140.06 133.48 139.68 132.56 L 139.34 131.74 C 138.96 130.82 137.90 130.39 136.98 130.77 C 136.06 131.15 135.63 132.21 136.01 133.13 Z M 136.39 134.02 L 136.79 134.86 C 137.21 135.76 138.27 136.14 139.17 135.72 C 140.06 135.30 140.45 134.24 140.03 133.34 L 139.64 132.50 C 139.22 131.60 138.15 131.22 137.25 131.64 C 136.36 132.05 135.97 133.12 136.39 134.02 Z M 136.83 134.91 L 137.28 135.78 C 137.72 136.65 138.79 137.00 139.67 136.55 C 140.54 136.10 140.88 135.03 140.44 134.16 L 139.99 133.29 C 139.54 132.42 138.47 132.07 137.60 132.52 C 136.73 132.97 136.38 134.04 136.83 134.91 Z M 137.31 135.82 L 137.80 136.71 C 138.27 137.56 139.34 137.87 140.19 137.40 C 141.05 136.94 141.36 135.86 140.89 135.01 L 140.40 134.12 C 139.93 133.27 138.86 132.96 138.01 133.43 C 137.15 133.89 136.84 134.97 137.31 135.82 Z M 137.83 136.74 L 138.36 137.65 C 138.85 138.48 139.92 138.77 140.75 138.29 C 141.59 137.80 141.87 136.73 141.39 135.90 L 140.86 134.98 C 140.37 134.15 139.30 133.86 138.47 134.35 C 137.63 134.83 137.35 135.90 137.83 136.74 Z M 138.39 137.67 L 138.95 138.60 C 139.45 139.42 140.51 139.69 141.33 139.19 C 142.15 138.70 142.42 137.63 141.92 136.81 L 141.36 135.88 C 140.87 135.06 139.80 134.79 138.98 135.29 C 138.16 135.78 137.89 136.85 138.39 137.67 Z M 138.97 138.61 L 139.57 139.57 C 140.07 140.37 141.13 140.62 141.93 140.12 C 142.74 139.62 142.99 138.56 142.49 137.75 L 141.90 136.80 C 141.40 135.99 140.34 135.74 139.53 136.24 C 138.72 136.75 138.47 137.81 138.97 138.61 Z M 139.58 139.57 L 140.10 140.38 C 140.60 141.18 141.65 141.42 142.45 140.92 C 143.25 140.41 143.49 139.36 142.98 138.56 L 142.47 137.75 C 141.97 136.95 140.91 136.72 140.12 137.22 C 139.32 137.72 139.08 138.77 139.58 139.57 Z M 140.11 140.38 L 140.63 141.20 C 141.14 141.98 142.18 142.22 142.97 141.71 C 143.76 141.21 143.99 140.16 143.49 139.38 L 142.97 138.56 C 142.46 137.77 141.42 137.54 140.63 138.05 C 139.84 138.55 139.61 139.60 140.11 140.38 Z M 140.65 141.20 L 141.18 142.02 C 141.69 142.80 142.72 143.02 143.50 142.52 C 144.28 142.02 144.50 140.98 144.00 140.20 L 143.47 139.38 C 142.97 138.60 141.93 138.37 141.15 138.88 C 140.37 139.38 140.15 140.42 140.65 141.20 Z M 141.20 142.02 L 141.74 142.85 C 142.24 143.62 143.27 143.84 144.04 143.34 C 144.81 142.84 145.03 141.81 144.53 141.04 L 143.99 140.20 C 143.48 139.43 142.45 139.22 141.68 139.72 C 140.91 140.22 140.70 141.25 141.20 142.02 Z M 141.76 142.85 L 142.31 143.69 C 142.81 144.45 143.83 144.66 144.59 144.16 C 145.35 143.66 145.57 142.64 145.07 141.88 L 144.51 141.04 C 144.01 140.28 142.99 140.07 142.23 140.57 C 141.47 141.07 141.26 142.09 141.76 142.85 Z M 142.32 143.69 L 142.88 144.53 C 143.38 145.29 144.39 145.49 145.15 145.00 C 145.90 144.50 146.11 143.48 145.61 142.73 L 145.05 141.88 C 144.55 141.13 143.54 140.92 142.79 141.42 C 142.03 141.92 141.82 142.93 142.32 143.69 Z M 142.89 144.53 L 143.46 145.38 C 143.95 146.12 144.96 146.33 145.71 145.83 C 146.45 145.34 146.66 144.33 146.16 143.59 L 145.60 142.74 C 145.10 141.99 144.10 141.79 143.35 142.28 C 142.60 142.77 142.40 143.78 142.89 144.53 Z M 143.47 145.37 L 144.04 146.23 C 144.53 146.97 145.53 147.17 146.27 146.67 C 147.01 146.18 147.21 145.19 146.72 144.45 L 146.15 143.59 C 145.66 142.85 144.66 142.65 143.92 143.14 C 143.18 143.64 142.98 144.63 143.47 145.37 Z M 144.05 146.22 L 144.62 147.08 C 145.11 147.81 146.10 148.01 146.83 147.52 C 147.56 147.03 147.76 146.04 147.28 145.31 L 146.70 144.45 C 146.22 143.72 145.23 143.52 144.50 144.01 C 143.76 144.50 143.57 145.49 144.05 146.22 Z M 144.63 147.07 L 144.81 147.35 C 145.30 148.07 146.28 148.27 147.01 147.78 C 147.74 147.30 147.94 146.32 147.45 145.59 L 147.27 145.31 C 146.78 144.59 145.80 144.39 145.07 144.88 C 144.34 145.36 144.15 146.34 144.63 147.07 Z"
      fill="black"
      fill-rule="nonzero" /><path d="M 177.97 91.31 L 179.02 90.94 C 179.85 90.64 180.28 89.74 179.99 88.91 C 179.70 88.08 178.79 87.64 177.96 87.93 L 176.91 88.30 C 176.08 88.59 175.65 89.50 175.94 90.33 C 176.23 91.16 177.14 91.60 177.97 91.31 Z M 178.95 90.99 L 179.98 90.68 C 180.84 90.42 181.32 89.52 181.07 88.66 C 180.81 87.81 179.91 87.32 179.05 87.57 L 178.03 87.88 C 177.17 88.14 176.68 89.04 176.94 89.90 C 177.19 90.75 178.10 91.24 178.95 90.99 Z M 179.82 90.74 L 180.80 90.56 C 181.70 90.39 182.29 89.53 182.12 88.64 C 181.95 87.75 181.09 87.16 180.20 87.32 L 179.21 87.51 C 178.32 87.68 177.73 88.54 177.90 89.43 C 178.07 90.32 178.93 90.91 179.82 90.74 Z M 180.50 90.61 L 181.42 90.61 C 182.34 90.61 183.09 89.86 183.09 88.94 C 183.09 88.02 182.34 87.27 181.42 87.27 L 180.50 87.27 C 179.58 87.27 178.83 88.02 178.83 88.94 C 178.83 89.87 179.58 90.61 180.50 90.61 Z M 180.94 90.57 L 181.78 90.82 C 182.68 91.08 183.62 90.56 183.88 89.66 C 184.15 88.76 183.63 87.82 182.73 87.56 L 181.90 87.31 C 181.00 87.05 180.05 87.56 179.79 88.46 C 179.53 89.36 180.04 90.31 180.94 90.57 Z M 181.25 90.58 L 181.91 91.05 C 182.68 91.61 183.75 91.43 184.31 90.66 C 184.86 89.89 184.68 88.81 183.91 88.26 L 183.25 87.79 C 182.48 87.24 181.41 87.41 180.86 88.18 C 180.30 88.96 180.48 90.03 181.25 90.58 Z M 181.58 90.76 L 182.13 91.43 C 182.74 92.16 183.83 92.27 184.57 91.66 C 185.30 91.05 185.41 89.95 184.80 89.22 L 184.25 88.55 C 183.64 87.81 182.54 87.71 181.81 88.32 C 181.07 88.93 180.97 90.02 181.58 90.76 Z M 181.95 91.18 L 182.42 92.02 C 182.90 92.85 183.96 93.15 184.80 92.67 C 185.63 92.19 185.93 91.13 185.45 90.29 L 184.98 89.46 C 184.50 88.62 183.44 88.33 182.60 88.81 C 181.76 89.28 181.47 90.35 181.95 91.18 Z M 182.32 91.83 L 182.72 92.79 C 183.09 93.69 184.12 94.11 185.01 93.73 C 185.91 93.36 186.33 92.33 185.96 91.44 L 185.55 90.48 C 185.18 89.58 184.15 89.16 183.26 89.53 C 182.36 89.91 181.94 90.94 182.32 91.83 Z M 182.65 92.65 L 182.99 93.70 C 183.28 94.63 184.27 95.14 185.20 94.85 C 186.13 94.55 186.65 93.56 186.35 92.63 L 186.02 91.58 C 185.73 90.65 184.73 90.13 183.80 90.43 C 182.87 90.73 182.36 91.72 182.65 92.65 Z M 182.94 93.58 L 183.21 94.68 C 183.44 95.63 184.41 96.22 185.36 95.98 C 186.31 95.75 186.90 94.79 186.66 93.83 L 186.40 92.74 C 186.16 91.78 185.20 91.20 184.25 91.43 C 183.29 91.67 182.71 92.63 182.94 93.58 Z M 183.18 94.59 L 183.36 95.54 C 183.55 96.50 184.48 97.14 185.45 96.95 C 186.42 96.77 187.06 95.83 186.87 94.86 L 186.69 93.92 C 186.51 92.95 185.57 92.32 184.60 92.50 C 183.63 92.69 183.00 93.62 183.18 94.59 Z M 183.34 95.46 L 183.47 96.33 C 183.62 97.31 184.53 97.99 185.51 97.84 C 186.49 97.70 187.17 96.78 187.02 95.80 L 186.89 94.93 C 186.74 93.95 185.83 93.28 184.85 93.43 C 183.87 93.57 183.20 94.49 183.34 95.46 Z M 183.46 96.27 L 183.56 97.16 C 183.67 98.15 184.56 98.86 185.55 98.75 C 186.54 98.63 187.25 97.74 187.13 96.76 L 187.03 95.87 C 186.92 94.88 186.03 94.17 185.05 94.28 C 184.06 94.39 183.35 95.29 183.46 96.27 Z M 183.55 97.11 L 183.63 98.03 C 183.71 99.02 184.58 99.76 185.57 99.68 C 186.56 99.60 187.30 98.73 187.22 97.74 L 187.14 96.81 C 187.06 95.82 186.19 95.08 185.20 95.16 C 184.21 95.25 183.47 96.12 183.55 97.11 Z M 183.62 97.99 L 183.68 98.96 C 183.73 99.96 184.59 100.72 185.58 100.66 C 186.58 100.61 187.34 99.76 187.28 98.76 L 187.23 97.78 C 187.17 96.79 186.32 96.03 185.32 96.08 C 184.33 96.14 183.57 96.99 183.62 97.99 Z M 183.67 98.93 L 183.71 99.97 C 183.75 100.97 184.58 101.75 185.58 101.71 C 186.58 101.67 187.36 100.83 187.33 99.83 L 187.29 98.79 C 187.25 97.80 186.41 97.02 185.41 97.05 C 184.41 97.09 183.63 97.93 183.67 98.93 Z M 183.70 99.94 L 183.73 101.06 C 183.75 102.06 184.58 102.86 185.58 102.83 C 186.59 102.81 187.38 101.98 187.36 100.98 L 187.33 99.86 C 187.31 98.86 186.48 98.06 185.48 98.09 C 184.47 98.11 183.68 98.94 183.70 99.94 Z M 183.72 101.04 L 183.74 102.26 C 183.76 103.26 184.58 104.06 185.59 104.05 C 186.59 104.03 187.39 103.21 187.38 102.20 L 187.36 100.99 C 187.35 99.99 186.52 99.19 185.52 99.20 C 184.51 99.21 183.71 100.04 183.72 101.04 Z M 183.74 102.25 L 183.75 103.23 C 183.76 104.23 184.58 105.04 185.59 105.03 C 186.60 105.02 187.40 104.20 187.39 103.19 L 187.38 102.21 C 187.37 101.20 186.55 100.40 185.54 100.41 C 184.54 100.42 183.73 101.24 183.74 102.25 Z M 183.75 103.22 L 183.75 104.21 C 183.76 105.21 184.58 106.02 185.59 106.02 C 186.60 106.01 187.41 105.19 187.40 104.18 L 187.39 103.19 C 187.39 102.19 186.56 101.38 185.56 101.38 C 184.55 101.39 183.74 102.21 183.75 103.22 Z M 183.75 104.20 L 183.76 105.22 C 183.76 106.23 184.58 107.04 185.59 107.04 C 186.60 107.03 187.41 106.21 187.41 105.20 L 187.40 104.18 C 187.40 103.18 186.58 102.36 185.57 102.37 C 184.56 102.37 183.75 103.19 183.75 104.20 Z M 183.76 105.22 L 183.76 106.26 C 183.76 107.27 184.58 108.09 185.59 108.08 C 186.60 108.08 187.42 107.26 187.41 106.25 L 187.41 105.21 C 187.41 104.20 186.59 103.38 185.58 103.39 C 184.57 103.39 183.75 104.21 183.76 105.22 Z M 183.76 106.26 L 183.76 107.31 C 183.76 108.32 184.58 109.14 185.59 109.14 C 186.60 109.14 187.41 108.32 187.41 107.31 L 187.41 106.26 C 187.41 105.25 186.60 104.43 185.59 104.43 C 184.58 104.43 183.76 105.25 183.76 106.26 Z M 183.76 107.31 L 183.75 108.36 C 183.75 109.37 184.57 110.19 185.58 110.20 C 186.59 110.20 187.41 109.38 187.41 108.37 L 187.42 107.32 C 187.42 106.31 186.60 105.49 185.59 105.48 C 184.58 105.48 183.76 106.30 183.76 107.31 Z M 183.75 108.36 L 183.75 109.40 C 183.74 110.41 184.56 111.24 185.57 111.24 C 186.58 111.25 187.40 110.43 187.41 109.42 L 187.41 108.38 C 187.42 107.37 186.60 106.54 185.59 106.54 C 184.58 106.53 183.76 107.35 183.75 108.36 Z M 183.75 109.40 L 183.74 110.42 C 183.73 111.43 184.54 112.26 185.55 112.27 C 186.57 112.27 187.39 111.46 187.40 110.45 L 187.41 109.43 C 187.42 108.42 186.61 107.59 185.59 107.58 C 184.58 107.57 183.75 108.39 183.75 109.40 Z M 183.74 110.41 L 183.72 111.40 C 183.71 112.41 184.52 113.24 185.54 113.25 C 186.55 113.27 187.38 112.46 187.39 111.44 L 187.40 110.46 C 187.42 109.44 186.60 108.61 185.59 108.60 C 184.58 108.59 183.75 109.40 183.74 110.41 Z M 183.72 111.39 L 183.71 112.33 C 183.69 113.35 184.50 114.18 185.51 114.20 C 186.53 114.21 187.36 113.41 187.38 112.39 L 187.39 111.45 C 187.41 110.44 186.60 109.60 185.59 109.59 C 184.57 109.57 183.74 110.38 183.72 111.39 Z M 183.71 112.32 L 183.69 113.25 C 183.66 114.27 184.47 115.11 185.48 115.13 C 186.50 115.15 187.34 114.35 187.36 113.33 L 187.38 112.40 C 187.40 111.39 186.60 110.55 185.58 110.53 C 184.57 110.50 183.73 111.31 183.71 112.32 Z M 183.69 113.24 L 183.65 114.54 C 183.62 115.55 184.41 116.40 185.43 116.43 C 186.44 116.46 187.29 115.66 187.32 114.65 L 187.36 113.35 C 187.39 112.33 186.59 111.49 185.58 111.46 C 184.56 111.42 183.72 112.22 183.69 113.24 Z M 183.65 114.51 L 183.60 115.66 C 183.55 116.68 184.34 117.54 185.35 117.58 C 186.37 117.62 187.22 116.84 187.27 115.82 L 187.32 114.68 C 187.36 113.66 186.58 112.80 185.56 112.76 C 184.55 112.71 183.69 113.50 183.65 114.51 Z M 183.60 115.63 L 183.54 116.65 C 183.47 117.67 184.25 118.54 185.26 118.60 C 186.27 118.66 187.14 117.89 187.21 116.88 L 187.27 115.86 C 187.33 114.84 186.56 113.97 185.54 113.91 C 184.53 113.85 183.66 114.62 183.60 115.63 Z M 183.54 116.62 L 183.46 117.54 C 183.38 118.55 184.14 119.44 185.15 119.52 C 186.16 119.60 187.05 118.85 187.13 117.84 L 187.20 116.91 C 187.29 115.90 186.53 115.02 185.52 114.93 C 184.51 114.85 183.62 115.61 183.54 116.62 Z M 183.47 117.50 L 183.38 118.35 C 183.27 119.36 184.01 120.27 185.02 120.37 C 186.03 120.48 186.93 119.74 187.04 118.73 L 187.13 117.88 C 187.23 116.87 186.50 115.96 185.48 115.86 C 184.47 115.76 183.57 116.49 183.47 117.50 Z M 183.38 118.31 L 183.28 119.12 C 183.15 120.12 183.87 121.04 184.87 121.17 C 185.88 121.30 186.80 120.59 186.93 119.58 L 187.03 118.77 C 187.16 117.76 186.45 116.84 185.44 116.72 C 184.43 116.59 183.51 117.30 183.38 118.31 Z M 183.29 119.07 L 183.15 119.96 C 183.00 120.96 183.70 121.90 184.70 122.05 C 185.71 122.20 186.64 121.51 186.79 120.50 L 186.93 119.62 C 187.08 118.61 186.38 117.68 185.38 117.53 C 184.37 117.38 183.44 118.07 183.29 119.07 Z M 183.16 119.92 L 182.99 120.89 C 182.82 121.90 183.49 122.85 184.49 123.02 C 185.49 123.20 186.44 122.52 186.62 121.52 L 186.79 120.54 C 186.96 119.54 186.29 118.59 185.29 118.42 C 184.29 118.24 183.33 118.91 183.16 119.92 Z M 183.00 120.85 L 182.81 121.83 C 182.61 122.83 183.26 123.80 184.26 123.99 C 185.26 124.19 186.22 123.54 186.42 122.54 L 186.61 121.56 C 186.81 120.56 186.16 119.60 185.16 119.40 C 184.16 119.21 183.19 119.86 183.00 120.85 Z M 182.81 121.79 L 182.60 122.77 C 182.39 123.76 183.02 124.74 184.01 124.96 C 185.01 125.17 185.99 124.54 186.20 123.55 L 186.41 122.57 C 186.63 121.58 186.00 120.60 185.00 120.39 C 184.01 120.17 183.03 120.80 182.81 121.79 Z M 182.61 122.74 L 182.38 123.72 C 182.15 124.71 182.76 125.70 183.75 125.93 C 184.74 126.16 185.73 125.55 185.96 124.56 L 186.19 123.58 C 186.43 122.59 185.81 121.60 184.82 121.37 C 183.83 121.14 182.84 121.75 182.61 122.74 Z M 182.39 123.69 L 182.14 124.66 C 181.89 125.65 182.49 126.65 183.48 126.90 C 184.46 127.15 185.46 126.55 185.71 125.56 L 185.96 124.59 C 186.20 123.60 185.61 122.60 184.62 122.35 C 183.63 122.10 182.63 122.70 182.39 123.69 Z M 182.15 124.64 L 181.89 125.59 C 181.63 126.57 182.22 127.58 183.20 127.84 C 184.19 128.10 185.19 127.52 185.45 126.54 L 185.71 125.59 C 185.97 124.60 185.38 123.59 184.40 123.33 C 183.42 123.07 182.41 123.66 182.15 124.64 Z M 181.90 125.57 L 181.63 126.53 C 181.36 127.51 181.93 128.52 182.91 128.79 C 183.89 129.07 184.91 128.49 185.18 127.52 L 185.45 126.56 C 185.72 125.58 185.15 124.56 184.17 124.29 C 183.19 124.02 182.17 124.59 181.90 125.57 Z M 181.64 126.50 L 181.36 127.46 C 181.07 128.44 181.63 129.46 182.61 129.75 C 183.58 130.03 184.61 129.48 184.89 128.50 L 185.17 127.54 C 185.46 126.56 184.90 125.54 183.93 125.25 C 182.95 124.97 181.93 125.53 181.64 126.50 Z M 181.37 127.44 L 181.07 128.40 C 180.77 129.38 181.32 130.41 182.29 130.71 C 183.26 131.00 184.29 130.46 184.59 129.49 L 184.89 128.52 C 185.18 127.55 184.64 126.52 183.67 126.22 C 182.69 125.92 181.66 126.47 181.37 127.44 Z M 181.08 128.38 L 180.77 129.35 C 180.45 130.31 180.99 131.35 181.95 131.66 C 182.92 131.98 183.96 131.44 184.27 130.48 L 184.58 129.51 C 184.89 128.54 184.36 127.50 183.39 127.19 C 182.43 126.88 181.39 127.41 181.08 128.38 Z M 180.77 129.32 L 180.45 130.27 C 180.13 131.23 180.65 132.28 181.61 132.60 C 182.58 132.93 183.62 132.41 183.94 131.45 L 184.26 130.50 C 184.59 129.53 184.07 128.49 183.11 128.17 C 182.14 127.84 181.10 128.36 180.77 129.32 Z M 180.46 130.25 L 180.13 131.19 C 179.80 132.15 180.30 133.20 181.26 133.54 C 182.22 133.87 183.27 133.37 183.61 132.41 L 183.94 131.47 C 184.27 130.51 183.77 129.46 182.81 129.12 C 181.85 128.78 180.80 129.29 180.46 130.25 Z M 180.14 131.17 L 179.80 132.12 C 179.46 133.07 179.95 134.13 180.91 134.47 C 181.87 134.81 182.92 134.32 183.26 133.36 L 183.60 132.42 C 183.95 131.46 183.45 130.41 182.49 130.07 C 181.54 129.72 180.48 130.22 180.14 131.17 Z M 179.81 132.10 L 179.46 133.04 C 179.11 134.00 179.60 135.06 180.55 135.41 C 181.51 135.76 182.56 135.27 182.91 134.31 L 183.26 133.37 C 183.61 132.42 183.12 131.36 182.17 131.01 C 181.21 130.66 180.16 131.15 179.81 132.10 Z M 179.46 133.04 L 179.11 133.98 C 178.76 134.93 179.24 135.99 180.19 136.34 C 181.15 136.70 182.21 136.21 182.56 135.26 L 182.91 134.32 C 183.26 133.37 182.78 132.31 181.83 131.96 C 180.88 131.60 179.82 132.08 179.46 133.04 Z M 179.11 133.97 L 178.76 134.91 C 178.41 135.86 178.89 136.92 179.84 137.28 C 180.79 137.64 181.85 137.16 182.21 136.20 L 182.56 135.26 C 182.91 134.31 182.43 133.25 181.48 132.90 C 180.53 132.54 179.47 133.02 179.11 133.97 Z M 178.76 134.91 L 178.41 135.85 C 178.06 136.80 178.54 137.86 179.49 138.21 C 180.44 138.57 181.50 138.09 181.85 137.14 L 182.21 136.21 C 182.56 135.25 182.08 134.19 181.13 133.84 C 180.18 133.48 179.12 133.96 178.76 134.91 Z M 178.41 135.85 L 178.06 136.78 C 177.70 137.73 178.18 138.79 179.13 139.15 C 180.08 139.50 181.14 139.03 181.50 138.08 L 181.85 137.14 C 182.21 136.19 181.73 135.13 180.78 134.77 C 179.83 134.42 178.77 134.90 178.41 135.85 Z M 178.06 136.78 L 177.71 137.71 C 177.35 138.66 177.83 139.72 178.78 140.08 C 179.72 140.44 180.78 139.96 181.14 139.01 L 181.50 138.08 C 181.86 137.13 181.38 136.07 180.43 135.71 C 179.48 135.35 178.42 135.83 178.06 136.78 Z M 177.71 137.70 L 177.35 138.64 C 176.99 139.58 177.46 140.65 178.41 141.01 C 179.36 141.37 180.42 140.90 180.78 139.95 L 181.14 139.02 C 181.50 138.07 181.03 137.01 180.08 136.65 C 179.14 136.28 178.08 136.76 177.71 137.70 Z M 177.36 138.63 L 176.99 139.56 C 176.63 140.51 177.10 141.57 178.04 141.94 C 178.98 142.31 180.05 141.84 180.42 140.90 L 180.78 139.96 C 181.15 139.02 180.68 137.95 179.73 137.59 C 178.79 137.22 177.73 137.69 177.36 138.63 Z M 177.00 139.56 L 176.63 140.48 C 176.26 141.42 176.72 142.49 177.67 142.86 C 178.61 143.23 179.67 142.77 180.05 141.83 L 180.41 140.90 C 180.78 139.96 180.32 138.90 179.38 138.52 C 178.44 138.15 177.37 138.61 177.00 139.56 Z M 176.64 140.47 L 176.27 141.38 C 175.89 142.32 176.35 143.39 177.29 143.77 C 178.23 144.15 179.30 143.69 179.67 142.75 L 180.04 141.84 C 180.42 140.90 179.96 139.83 179.02 139.45 C 178.08 139.08 177.02 139.53 176.64 140.47 Z M 176.28 141.38 L 175.90 142.29 C 175.52 143.23 175.97 144.30 176.91 144.68 C 177.84 145.06 178.91 144.61 179.29 143.68 L 179.67 142.76 C 180.05 141.82 179.60 140.75 178.66 140.37 C 177.73 139.99 176.66 140.44 176.28 141.38 Z M 175.91 142.29 L 175.53 143.21 C 175.14 144.14 175.59 145.21 176.52 145.60 C 177.45 145.98 178.52 145.54 178.91 144.60 L 179.29 143.68 C 179.68 142.75 179.23 141.68 178.30 141.29 C 177.36 140.91 176.29 141.35 175.91 142.29 Z M 175.53 143.20 L 175.14 144.13 C 174.76 145.07 175.20 146.14 176.13 146.52 C 177.06 146.91 178.13 146.47 178.52 145.54 L 178.91 144.61 C 179.29 143.68 178.85 142.61 177.92 142.22 C 176.99 141.83 175.92 142.27 175.53 143.20 Z M 175.15 144.13 L 174.75 145.07 C 174.36 146.00 174.80 147.07 175.73 147.46 C 176.66 147.85 177.73 147.41 178.12 146.48 L 178.52 145.54 C 178.90 144.61 178.47 143.54 177.54 143.15 C 176.61 142.76 175.54 143.20 175.15 144.13 Z M 174.76 145.07 L 174.39 145.93 C 174.00 146.86 174.44 147.93 175.37 148.32 C 176.30 148.71 177.37 148.27 177.76 147.34 L 178.12 146.48 C 178.51 145.55 178.07 144.49 177.14 144.09 C 176.22 143.70 175.15 144.14 174.76 145.07 Z M 174.40 145.93 L 174.05 146.76 C 173.65 147.68 174.09 148.75 175.01 149.14 C 175.94 149.54 177.01 149.10 177.40 148.18 L 177.75 147.35 C 178.15 146.42 177.71 145.35 176.79 144.96 C 175.86 144.57 174.79 145.00 174.40 145.93 Z M 174.05 146.75 L 173.69 147.60 C 173.29 148.53 173.72 149.60 174.64 149.99 C 175.57 150.39 176.64 149.96 177.03 149.04 L 177.40 148.18 C 177.79 147.26 177.37 146.19 176.44 145.79 C 175.52 145.40 174.45 145.82 174.05 146.75 Z M 173.69 147.59 L 173.31 148.48 C 172.90 149.40 173.32 150.47 174.24 150.87 C 175.16 151.27 176.24 150.85 176.64 149.93 L 177.03 149.05 C 177.43 148.13 177.01 147.05 176.09 146.65 C 175.17 146.25 174.09 146.67 173.69 147.59 Z M 173.31 148.47 L 172.90 149.40 C 172.49 150.31 172.90 151.39 173.82 151.80 C 174.73 152.20 175.81 151.79 176.21 150.88 L 176.63 149.95 C 177.04 149.03 176.63 147.96 175.71 147.55 C 174.80 147.14 173.72 147.55 173.31 148.47 Z M 172.91 149.38 L 172.46 150.36 C 172.04 151.27 172.44 152.35 173.35 152.77 C 174.26 153.19 175.34 152.79 175.76 151.87 L 176.21 150.89 C 176.62 149.98 176.22 148.90 175.31 148.49 C 174.40 148.07 173.32 148.47 172.91 149.38 Z M 172.47 150.35 L 171.98 151.39 C 171.55 152.30 171.94 153.38 172.85 153.80 C 173.75 154.23 174.83 153.84 175.26 152.93 L 175.75 151.89 C 176.17 150.98 175.78 149.90 174.88 149.48 C 173.97 149.05 172.89 149.44 172.47 150.35 Z M 171.98 151.38 L 171.62 152.13 C 171.19 153.03 171.57 154.11 172.47 154.54 C 173.37 154.98 174.46 154.60 174.89 153.69 L 175.25 152.95 C 175.68 152.04 175.30 150.96 174.40 150.53 C 173.50 150.10 172.42 150.48 171.98 151.38 Z M 171.63 152.12 L 171.28 152.84 C 170.84 153.74 171.21 154.82 172.11 155.26 C 173.01 155.70 174.09 155.33 174.53 154.43 L 174.88 153.70 C 175.32 152.81 174.95 151.72 174.05 151.28 C 173.15 150.85 172.07 151.22 171.63 152.12 Z M 171.28 152.83 L 170.91 153.59 C 170.46 154.48 170.83 155.57 171.72 156.01 C 172.62 156.45 173.70 156.09 174.15 155.20 L 174.52 154.44 C 174.97 153.54 174.60 152.46 173.71 152.02 C 172.81 151.57 171.73 151.94 171.28 152.83 Z M 170.91 153.58 L 170.52 154.37 C 170.07 155.26 170.42 156.35 171.32 156.80 C 172.21 157.25 173.29 156.89 173.74 156.00 L 174.14 155.20 C 174.59 154.31 174.23 153.23 173.34 152.78 C 172.45 152.33 171.36 152.69 170.91 153.58 Z M 170.52 154.36 L 170.10 155.19 C 169.64 156.08 169.99 157.17 170.88 157.62 C 171.77 158.08 172.86 157.72 173.31 156.84 L 173.73 156.01 C 174.19 155.12 173.84 154.03 172.95 153.58 C 172.06 153.12 170.98 153.48 170.52 154.36 Z M 170.10 155.19 L 169.65 156.06 C 169.19 156.94 169.54 158.03 170.42 158.49 C 171.30 158.95 172.39 158.60 172.85 157.72 L 173.30 156.85 C 173.76 155.96 173.42 154.87 172.53 154.42 C 171.65 153.96 170.56 154.30 170.10 155.19 Z M 169.66 156.05 L 169.17 156.97 C 168.71 157.85 169.05 158.94 169.93 159.40 C 170.81 159.86 171.90 159.52 172.36 158.64 L 172.85 157.73 C 173.31 156.85 172.97 155.76 172.09 155.29 C 171.21 154.83 170.12 155.17 169.66 156.05 Z M 169.18 156.96 L 168.67 157.92 C 168.20 158.80 168.53 159.89 169.41 160.35 C 170.29 160.82 171.38 160.49 171.85 159.61 L 172.36 158.65 C 172.83 157.77 172.49 156.68 171.62 156.21 C 170.74 155.75 169.65 156.08 169.18 156.96 Z M 168.67 157.91 L 168.13 158.92 C 167.66 159.80 167.98 160.89 168.86 161.36 C 169.73 161.83 170.82 161.50 171.30 160.63 L 171.84 159.62 C 172.31 158.74 171.98 157.65 171.11 157.18 C 170.24 156.71 169.15 157.04 168.67 157.91 Z M 168.13 158.92 L 167.56 159.98 C 167.08 160.85 167.40 161.94 168.27 162.42 C 169.14 162.89 170.24 162.57 170.71 161.70 L 171.29 160.64 C 171.77 159.77 171.44 158.67 170.57 158.20 C 169.70 157.72 168.61 158.04 168.13 158.92 Z M 167.56 159.97 L 166.95 161.07 C 166.47 161.94 166.79 163.03 167.66 163.51 C 168.53 163.99 169.62 163.68 170.10 162.81 L 170.71 161.71 C 171.18 160.84 170.87 159.74 170.00 159.27 C 169.13 158.79 168.04 159.10 167.56 159.97 Z M 166.96 161.07 L 166.48 161.93 C 166.00 162.79 166.31 163.88 167.18 164.36 C 168.04 164.85 169.14 164.53 169.62 163.67 L 170.09 162.81 C 170.57 161.95 170.26 160.85 169.40 160.37 C 168.53 159.89 167.44 160.20 166.96 161.07 Z M 166.49 161.92 L 165.99 162.80 C 165.51 163.67 165.82 164.76 166.68 165.24 C 167.55 165.72 168.64 165.42 169.12 164.55 L 169.61 163.67 C 170.10 162.81 169.79 161.72 168.92 161.23 C 168.06 160.75 166.97 161.06 166.49 161.92 Z M 166.00 162.80 L 165.49 163.70 C 165.01 164.56 165.31 165.65 166.17 166.14 C 167.03 166.62 168.12 166.32 168.61 165.46 L 169.11 164.56 C 169.60 163.70 169.29 162.61 168.43 162.12 C 167.57 161.64 166.48 161.94 166.00 162.80 Z M 165.50 163.70 L 164.98 164.61 C 164.49 165.47 164.80 166.56 165.65 167.05 C 166.51 167.53 167.60 167.23 168.09 166.37 L 168.60 165.46 C 169.09 164.60 168.79 163.51 167.93 163.03 C 167.07 162.54 165.98 162.84 165.50 163.70 Z M 164.98 164.61 L 164.46 165.53 C 163.97 166.39 164.27 167.48 165.13 167.96 C 165.98 168.45 167.07 168.15 167.56 167.30 L 168.08 166.37 C 168.57 165.52 168.27 164.43 167.41 163.94 C 166.56 163.46 165.47 163.76 164.98 164.61 Z M 164.46 165.53 L 163.93 166.46 C 163.45 167.31 163.74 168.40 164.59 168.88 C 165.45 169.37 166.53 169.08 167.02 168.22 L 167.55 167.30 C 168.04 166.45 167.74 165.36 166.89 164.87 C 166.04 164.38 164.95 164.68 164.46 165.53 Z M 163.94 166.45 L 163.41 167.38 C 162.92 168.23 163.21 169.31 164.06 169.80 C 164.91 170.29 166.00 170.00 166.49 169.15 L 167.02 168.23 C 167.51 167.38 167.21 166.29 166.36 165.80 C 165.51 165.31 164.43 165.60 163.94 166.45 Z M 163.41 167.37 L 162.88 168.29 C 162.39 169.14 162.68 170.22 163.53 170.71 C 164.38 171.20 165.46 170.91 165.95 170.06 L 166.48 169.15 C 166.97 168.30 166.68 167.22 165.84 166.73 C 164.99 166.24 163.90 166.53 163.41 167.37 Z M 162.89 168.29 L 162.37 169.18 C 161.87 170.03 162.16 171.11 163.01 171.61 C 163.85 172.10 164.93 171.81 165.43 170.97 L 165.95 170.07 C 166.44 169.22 166.15 168.14 165.31 167.65 C 164.46 167.15 163.38 167.44 162.89 168.29 Z M 162.37 169.18 L 161.86 170.06 C 161.36 170.90 161.65 171.99 162.49 172.48 C 163.33 172.97 164.41 172.69 164.91 171.85 L 165.42 170.97 C 165.91 170.12 165.63 169.04 164.79 168.55 C 163.95 168.06 162.86 168.34 162.37 169.18 Z M 161.86 170.06 L 161.36 170.91 C 160.86 171.75 161.14 172.84 161.98 173.33 C 162.82 173.82 163.91 173.54 164.40 172.70 L 164.90 171.85 C 165.40 171.01 165.12 169.93 164.28 169.43 C 163.44 168.94 162.36 169.22 161.86 170.06 Z M 161.36 170.91 L 160.88 171.73 C 160.38 172.57 160.66 173.65 161.49 174.15 C 162.33 174.64 163.41 174.37 163.91 173.53 L 164.39 172.71 C 164.89 171.87 164.61 170.79 163.78 170.29 C 162.94 169.80 161.86 170.07 161.36 170.91 Z M 160.88 171.73 L 160.41 172.52 C 159.91 173.35 160.19 174.43 161.02 174.93 C 161.85 175.43 162.93 175.15 163.43 174.32 L 163.90 173.53 C 164.40 172.70 164.13 171.62 163.29 171.12 C 162.46 170.62 161.38 170.90 160.88 171.73 Z M 160.42 172.51 L 159.97 173.26 C 159.47 174.09 159.74 175.17 160.57 175.67 C 161.40 176.17 162.48 175.90 162.98 175.07 L 163.43 174.32 C 163.93 173.49 163.66 172.41 162.83 171.91 C 162.00 171.41 160.92 171.68 160.42 172.51 Z M 159.98 173.25 L 159.42 174.17 C 158.92 175.00 159.18 176.07 160.00 176.58 C 160.83 177.08 161.91 176.82 162.41 175.99 L 162.97 175.07 C 163.47 174.25 163.21 173.17 162.38 172.67 C 161.56 172.17 160.48 172.43 159.98 173.25 Z M 159.44 174.16 L 158.71 175.33 C 158.21 176.15 158.46 177.22 159.27 177.73 C 160.09 178.23 161.16 177.98 161.67 177.17 L 162.39 176.00 C 162.90 175.18 162.65 174.11 161.83 173.60 C 161.02 173.10 159.94 173.35 159.44 174.16 Z M 158.74 175.32 L 158.09 176.34 C 157.58 177.14 157.81 178.20 158.62 178.72 C 159.42 179.23 160.48 178.99 161.00 178.19 L 161.64 177.18 C 162.15 176.37 161.92 175.31 161.12 174.80 C 160.31 174.28 159.25 174.52 158.74 175.32 Z M 158.12 176.32 L 157.54 177.20 C 157.02 177.99 157.24 179.05 158.02 179.57 C 158.81 180.09 159.87 179.87 160.39 179.08 L 160.97 178.20 C 161.49 177.41 161.27 176.36 160.48 175.84 C 159.70 175.32 158.64 175.54 158.12 176.32 Z M 157.57 177.19 L 157.04 177.96 C 156.51 178.73 156.71 179.78 157.48 180.31 C 158.25 180.84 159.30 180.64 159.83 179.87 L 160.36 179.10 C 160.89 178.33 160.69 177.27 159.92 176.75 C 159.15 176.22 158.09 176.42 157.57 177.19 Z M 157.07 177.94 L 156.59 178.62 C 156.05 179.38 156.22 180.42 156.98 180.96 C 157.73 181.50 158.78 181.32 159.31 180.57 L 159.80 179.89 C 160.34 179.13 160.16 178.09 159.41 177.55 C 158.66 177.01 157.61 177.19 157.07 177.94 Z M 156.62 178.61 L 156.16 179.23 C 155.61 179.96 155.76 181.00 156.50 181.55 C 157.23 182.09 158.27 181.94 158.82 181.21 L 159.28 180.59 C 159.83 179.85 159.67 178.81 158.94 178.27 C 158.20 177.72 157.16 177.87 156.62 178.61 Z M 156.19 179.21 L 155.74 179.79 C 155.19 180.51 155.32 181.54 156.04 182.09 C 156.75 182.65 157.79 182.52 158.34 181.80 L 158.79 181.22 C 159.34 180.50 159.21 179.47 158.49 178.92 C 157.78 178.36 156.74 178.49 156.19 179.21 Z M 155.77 179.77 L 155.19 180.49 C 154.63 181.20 154.74 182.22 155.45 182.78 C 156.15 183.35 157.17 183.23 157.73 182.53 L 158.31 181.81 C 158.87 181.11 158.76 180.09 158.06 179.52 C 157.36 178.96 156.33 179.07 155.77 179.77 Z M 155.22 180.48 L 154.58 181.26 C 154.00 181.94 154.10 182.96 154.79 183.53 C 155.47 184.10 156.49 184.01 157.06 183.32 L 157.71 182.55 C 158.28 181.86 158.18 180.84 157.50 180.27 C 156.81 179.70 155.79 179.79 155.22 180.48 Z M 154.60 181.25 L 153.95 182.01 C 153.37 182.68 153.45 183.70 154.13 184.27 C 154.80 184.85 155.82 184.77 156.39 184.09 L 157.04 183.33 C 157.62 182.66 157.54 181.64 156.86 181.07 C 156.19 180.49 155.17 180.57 154.60 181.25 Z M 153.97 182.00 L 153.31 182.75 C 152.73 183.41 152.80 184.42 153.47 185.00 C 154.13 185.58 155.14 185.52 155.72 184.85 L 156.37 184.10 C 156.95 183.44 156.89 182.43 156.22 181.85 C 155.56 181.27 154.55 181.33 153.97 182.00 Z M 153.33 182.75 L 152.67 183.49 C 152.09 184.15 152.15 185.15 152.81 185.73 C 153.47 186.31 154.47 186.25 155.05 185.59 L 155.71 184.85 C 156.29 184.19 156.23 183.19 155.57 182.61 C 154.91 182.03 153.91 182.09 153.33 182.75 Z M 152.68 183.49 L 152.23 184.00 C 151.65 184.66 151.71 185.65 152.36 186.23 C 153.01 186.81 154.01 186.75 154.59 186.10 L 155.04 185.59 C 155.62 184.94 155.56 183.94 154.91 183.36 C 154.26 182.78 153.26 182.84 152.68 183.49 Z"
      fill="black"
      fill-rule="nonzero" /><path d="M 184.41 143.22 L 185.18 143.76 C 185.95 144.29 187.00 144.11 187.53 143.34 C 188.07 142.58 187.88 141.52 187.12 140.99 L 186.34 140.45 C 185.58 139.92 184.53 140.11 183.99 140.87 C 183.46 141.64 183.65 142.69 184.41 143.22 Z M 185.16 143.77 L 185.94 144.31 C 186.71 144.86 187.77 144.68 188.32 143.91 C 188.86 143.14 188.68 142.07 187.91 141.53 L 187.13 140.98 C 186.37 140.44 185.30 140.62 184.76 141.39 C 184.21 142.16 184.40 143.22 185.16 143.77 Z M 185.91 144.31 L 186.69 144.88 C 187.46 145.44 188.54 145.27 189.10 144.50 C 189.65 143.73 189.49 142.66 188.72 142.10 L 187.94 141.53 C 187.17 140.97 186.09 141.14 185.53 141.91 C 184.97 142.68 185.14 143.75 185.91 144.31 Z M 186.65 144.88 L 187.44 145.47 C 188.21 146.05 189.30 145.90 189.88 145.14 C 190.46 144.37 190.31 143.28 189.54 142.70 L 188.75 142.10 C 187.99 141.52 186.90 141.67 186.32 142.44 C 185.74 143.21 185.89 144.30 186.65 144.88 Z M 187.40 145.46 L 188.20 146.10 C 188.96 146.70 190.06 146.58 190.67 145.82 C 191.27 145.06 191.14 143.96 190.39 143.35 L 189.58 142.71 C 188.83 142.11 187.72 142.24 187.12 142.99 C 186.52 143.75 186.64 144.86 187.40 145.46 Z M 188.15 146.08 L 188.97 146.77 C 189.72 147.40 190.84 147.30 191.47 146.55 C 192.10 145.81 192.00 144.69 191.25 144.06 L 190.43 143.37 C 189.69 142.74 188.57 142.84 187.94 143.58 C 187.31 144.33 187.40 145.45 188.15 146.08 Z M 188.92 146.74 L 189.69 147.43 C 190.43 148.09 191.55 148.02 192.21 147.29 C 192.87 146.55 192.80 145.43 192.07 144.77 L 191.30 144.08 C 190.56 143.43 189.44 143.49 188.78 144.22 C 188.12 144.96 188.19 146.09 188.92 146.74 Z M 189.65 147.41 L 190.34 148.05 C 191.06 148.73 192.20 148.70 192.88 147.98 C 193.55 147.25 193.52 146.12 192.80 145.44 L 192.11 144.80 C 191.39 144.12 190.25 144.15 189.58 144.87 C 188.90 145.59 188.93 146.73 189.65 147.41 Z M 190.32 148.03 L 191.01 148.71 C 191.72 149.41 192.86 149.39 193.55 148.69 C 194.24 147.98 194.23 146.84 193.52 146.15 L 192.82 145.47 C 192.12 144.77 190.98 144.79 190.29 145.49 C 189.60 146.20 189.61 147.34 190.32 148.03 Z M 190.99 148.69 L 191.69 149.40 C 192.39 150.11 193.53 150.12 194.23 149.42 C 194.94 148.73 194.95 147.59 194.25 146.88 L 193.55 146.17 C 192.85 145.47 191.71 145.46 191.01 146.15 C 190.30 146.85 190.29 147.99 190.99 148.69 Z M 191.67 149.39 L 192.38 150.12 C 193.06 150.84 194.20 150.86 194.92 150.18 C 195.63 149.49 195.66 148.35 194.97 147.63 L 194.27 146.90 C 193.58 146.18 192.44 146.16 191.73 146.85 C 191.01 147.53 190.99 148.67 191.67 149.39 Z M 192.36 150.11 L 193.06 150.86 C 193.74 151.58 194.88 151.62 195.60 150.94 C 196.33 150.27 196.37 149.13 195.69 148.40 L 194.99 147.65 C 194.31 146.92 193.17 146.88 192.45 147.56 C 191.72 148.24 191.68 149.38 192.36 150.11 Z M 193.04 150.84 L 193.74 151.60 C 194.41 152.34 195.55 152.39 196.28 151.72 C 197.02 151.05 197.07 149.91 196.40 149.17 L 195.71 148.41 C 195.03 147.68 193.90 147.63 193.16 148.30 C 192.42 148.97 192.37 150.11 193.04 150.84 Z M 193.72 151.59 L 194.41 152.36 C 195.07 153.10 196.21 153.16 196.95 152.50 C 197.70 151.83 197.76 150.69 197.10 149.95 L 196.41 149.19 C 195.75 148.44 194.61 148.38 193.87 149.04 C 193.12 149.71 193.06 150.85 193.72 151.59 Z M 194.39 152.34 L 195.06 153.11 C 195.72 153.86 196.86 153.93 197.61 153.27 C 198.36 152.62 198.44 151.47 197.78 150.72 L 197.11 149.96 C 196.45 149.21 195.31 149.14 194.56 149.80 C 193.81 150.45 193.74 151.59 194.39 152.34 Z M 195.05 153.10 L 195.71 153.86 C 196.36 154.61 197.50 154.70 198.26 154.04 C 199.01 153.39 199.10 152.25 198.44 151.50 L 197.79 150.74 C 197.14 149.98 196.00 149.90 195.24 150.55 C 194.48 151.20 194.40 152.34 195.05 153.10 Z M 195.70 153.85 L 196.34 154.60 C 196.99 155.36 198.13 155.46 198.89 154.81 C 199.65 154.17 199.74 153.03 199.10 152.27 L 198.45 151.51 C 197.81 150.75 196.67 150.65 195.91 151.30 C 195.15 151.95 195.05 153.09 195.70 153.85 Z M 196.33 154.59 L 196.97 155.35 C 197.61 156.12 198.75 156.22 199.51 155.58 C 200.28 154.94 200.38 153.80 199.74 153.04 L 199.11 152.28 C 198.47 151.51 197.33 151.41 196.56 152.05 C 195.80 152.69 195.70 153.83 196.33 154.59 Z M 196.96 155.34 L 197.58 156.10 C 198.22 156.87 199.35 156.99 200.13 156.35 C 200.90 155.72 201.01 154.58 200.38 153.81 L 199.75 153.05 C 199.12 152.28 197.98 152.17 197.21 152.80 C 196.44 153.43 196.33 154.57 196.96 155.34 Z M 197.58 156.09 L 198.20 156.86 C 198.82 157.64 199.96 157.76 200.74 157.13 C 201.51 156.51 201.63 155.37 201.01 154.60 L 200.39 153.82 C 199.76 153.05 198.62 152.93 197.85 153.55 C 197.07 154.18 196.95 155.32 197.58 156.09 Z M 198.19 156.85 L 198.81 157.63 C 199.43 158.41 200.56 158.55 201.35 157.93 C 202.13 157.31 202.26 156.17 201.64 155.39 L 201.02 154.61 C 200.40 153.83 199.26 153.70 198.48 154.31 C 197.70 154.93 197.57 156.07 198.19 156.85 Z M 198.80 157.62 L 199.42 158.42 C 200.04 159.20 201.17 159.34 201.96 158.73 C 202.74 158.12 202.88 156.98 202.27 156.20 L 201.65 155.40 C 201.03 154.61 199.90 154.48 199.11 155.09 C 198.33 155.70 198.19 156.84 198.80 157.62 Z M 199.42 158.41 L 200.04 159.22 C 200.65 160.01 201.78 160.16 202.57 159.55 C 203.36 158.94 203.51 157.81 202.90 157.02 L 202.28 156.21 C 201.67 155.42 200.53 155.27 199.75 155.88 C 198.96 156.49 198.81 157.62 199.42 158.41 Z M 200.04 159.21 L 200.66 160.04 C 201.27 160.83 202.40 160.99 203.19 160.39 C 203.98 159.78 204.14 158.65 203.54 157.86 L 202.91 157.03 C 202.31 156.24 201.17 156.08 200.38 156.69 C 199.59 157.29 199.43 158.42 200.04 159.21 Z M 200.66 160.03 L 201.29 160.87 C 201.88 161.66 203.01 161.83 203.81 161.23 C 204.60 160.63 204.77 159.51 204.17 158.71 L 203.54 157.87 C 202.95 157.07 201.82 156.91 201.02 157.51 C 200.22 158.10 200.06 159.23 200.66 160.03 Z M 201.28 160.86 L 201.90 161.70 C 202.49 162.50 203.62 162.67 204.42 162.08 C 205.21 161.49 205.38 160.36 204.80 159.56 L 204.17 158.72 C 203.59 157.92 202.46 157.75 201.66 158.34 C 200.86 158.93 200.69 160.06 201.28 160.86 Z M 201.89 161.68 L 202.50 162.52 C 203.08 163.32 204.21 163.50 205.01 162.92 C 205.81 162.33 205.99 161.21 205.41 160.41 L 204.80 159.57 C 204.22 158.77 203.09 158.59 202.29 159.18 C 201.49 159.76 201.31 160.88 201.89 161.68 Z M 202.49 162.51 L 203.08 163.33 C 203.66 164.14 204.78 164.32 205.58 163.75 C 206.39 163.17 206.58 162.05 206.00 161.24 L 205.41 160.42 C 204.84 159.62 203.72 159.43 202.91 160.00 C 202.11 160.58 201.92 161.70 202.49 162.51 Z M 203.07 163.32 L 203.64 164.12 C 204.20 164.93 205.32 165.12 206.13 164.56 C 206.94 163.99 207.14 162.87 206.57 162.06 L 206.01 161.26 C 205.44 160.45 204.32 160.25 203.51 160.82 C 202.70 161.39 202.51 162.50 203.07 163.32 Z M 203.63 164.10 L 204.16 164.87 C 204.72 165.69 205.83 165.90 206.65 165.34 C 207.46 164.78 207.67 163.66 207.11 162.85 L 206.58 162.08 C 206.02 161.26 204.91 161.05 204.09 161.61 C 203.28 162.17 203.07 163.29 203.63 164.10 Z M 204.15 164.85 L 204.65 165.61 C 205.20 166.43 206.31 166.65 207.13 166.10 C 207.95 165.55 208.17 164.44 207.62 163.62 L 207.12 162.87 C 206.57 162.05 205.46 161.83 204.64 162.37 C 203.82 162.92 203.60 164.03 204.15 164.85 Z M 204.64 165.58 L 205.18 166.42 C 205.71 167.25 206.82 167.49 207.65 166.96 C 208.47 166.42 208.71 165.32 208.18 164.49 L 207.64 163.65 C 207.10 162.82 206.00 162.58 205.17 163.12 C 204.34 163.65 204.11 164.75 204.64 165.58 Z M 205.17 166.39 L 205.67 167.20 C 206.18 168.04 207.28 168.30 208.11 167.78 C 208.95 167.26 209.21 166.17 208.69 165.33 L 208.19 164.52 C 207.68 163.69 206.58 163.43 205.75 163.95 C 204.91 164.46 204.65 165.56 205.17 166.39 Z M 205.65 167.17 L 206.13 167.97 C 206.63 168.81 207.71 169.09 208.55 168.59 C 209.40 168.10 209.68 167.01 209.18 166.17 L 208.70 165.37 C 208.21 164.52 207.12 164.24 206.28 164.74 C 205.44 165.24 205.16 166.33 205.65 167.17 Z M 206.12 167.94 L 206.58 168.77 C 207.07 169.61 208.14 169.91 208.99 169.43 C 209.84 168.95 210.14 167.87 209.66 167.02 L 209.19 166.20 C 208.71 165.35 207.63 165.05 206.78 165.53 C 205.93 166.02 205.64 167.09 206.12 167.94 Z M 206.58 168.74 L 207.06 169.61 C 207.53 170.47 208.60 170.78 209.45 170.31 C 210.30 169.84 210.61 168.77 210.14 167.92 L 209.66 167.05 C 209.20 166.19 208.12 165.88 207.27 166.35 C 206.42 166.82 206.11 167.89 206.58 168.74 Z M 207.06 169.60 L 207.57 170.55 C 208.02 171.40 209.09 171.72 209.94 171.26 C 210.80 170.80 211.12 169.74 210.66 168.88 L 210.15 167.94 C 209.69 167.08 208.62 166.76 207.77 167.22 C 206.92 167.68 206.60 168.74 207.06 169.60 Z M 207.57 170.54 L 208.06 171.46 C 208.51 172.31 209.57 172.64 210.42 172.18 C 211.28 171.73 211.60 170.67 211.15 169.82 L 210.66 168.89 C 210.20 168.04 209.14 167.72 208.29 168.17 C 207.44 168.62 207.11 169.68 207.57 170.54 Z M 208.06 171.45 L 208.50 172.29 C 208.95 173.15 210.01 173.47 210.86 173.02 C 211.71 172.57 212.04 171.51 211.59 170.66 L 211.15 169.82 C 210.69 168.97 209.64 168.64 208.79 169.09 C 207.93 169.55 207.61 170.60 208.06 171.45 Z M 208.50 172.29 L 208.97 173.17 C 209.41 174.02 210.47 174.35 211.32 173.90 C 212.17 173.46 212.50 172.40 212.05 171.55 L 211.59 170.67 C 211.14 169.81 210.09 169.49 209.23 169.93 C 208.38 170.38 208.05 171.44 208.50 172.29 Z M 208.97 173.17 L 209.44 174.08 C 209.89 174.93 210.94 175.26 211.79 174.82 C 212.65 174.37 212.98 173.32 212.53 172.47 L 212.05 171.55 C 211.61 170.70 210.56 170.37 209.70 170.82 C 208.85 171.26 208.52 172.31 208.97 173.17 Z M 209.44 174.08 L 209.93 175.01 C 210.37 175.86 211.42 176.19 212.27 175.75 C 213.12 175.31 213.46 174.26 213.01 173.41 L 212.53 172.48 C 212.09 171.62 211.04 171.29 210.19 171.73 C 209.34 172.17 209.00 173.22 209.44 174.08 Z M 209.93 175.00 L 210.41 175.94 C 210.85 176.79 211.89 177.12 212.75 176.69 C 213.60 176.25 213.93 175.20 213.50 174.35 L 213.01 173.41 C 212.58 172.56 211.53 172.23 210.68 172.66 C 209.82 173.10 209.49 174.15 209.93 175.00 Z M 210.41 175.93 L 210.88 176.85 C 211.31 177.71 212.36 178.05 213.21 177.61 C 214.06 177.18 214.40 176.13 213.97 175.28 L 213.50 174.36 C 213.06 173.50 212.02 173.16 211.17 173.60 C 210.31 174.03 209.97 175.08 210.41 175.93 Z M 210.88 176.85 L 211.33 177.75 C 211.76 178.60 212.80 178.94 213.65 178.51 C 214.51 178.09 214.85 177.05 214.42 176.19 L 213.97 175.29 C 213.54 174.44 212.50 174.09 211.65 174.52 C 210.79 174.95 210.45 175.99 210.88 176.85 Z M 211.33 177.74 L 211.76 178.60 C 212.18 179.45 213.21 179.80 214.07 179.38 C 214.93 178.96 215.27 177.92 214.85 177.07 L 214.42 176.20 C 214.00 175.35 212.96 175.00 212.11 175.42 C 211.25 175.84 210.90 176.88 211.33 177.74 Z M 211.75 178.58 L 212.20 179.50 C 212.61 180.36 213.64 180.72 214.50 180.30 C 215.36 179.89 215.72 178.86 215.30 178.00 L 214.85 177.08 C 214.44 176.22 213.41 175.87 212.55 176.28 C 211.69 176.70 211.34 177.73 211.75 178.58 Z M 212.19 179.48 L 212.65 180.46 C 213.06 181.32 214.08 181.69 214.94 181.29 C 215.80 180.88 216.17 179.86 215.76 179.00 L 215.30 178.02 C 214.90 177.16 213.88 176.79 213.02 177.20 C 212.16 177.60 211.79 178.62 212.19 179.48 Z M 212.65 180.44 L 213.06 181.35 C 213.45 182.21 214.47 182.59 215.33 182.21 C 216.19 181.82 216.57 180.80 216.18 179.94 L 215.77 179.03 C 215.38 178.17 214.37 177.78 213.51 178.17 C 212.64 178.56 212.26 179.58 212.65 180.44 Z M 213.06 181.32 L 213.44 182.20 C 213.81 183.06 214.81 183.46 215.68 183.09 C 216.54 182.71 216.94 181.71 216.57 180.85 L 216.19 179.97 C 215.81 179.11 214.81 178.71 213.95 179.08 C 213.08 179.46 212.69 180.46 213.06 181.32 Z M 213.43 182.17 L 213.79 183.04 C 214.15 183.90 215.14 184.31 216.01 183.96 C 216.87 183.60 217.28 182.61 216.93 181.74 L 216.57 180.88 C 216.21 180.01 215.22 179.60 214.35 179.96 C 213.49 180.31 213.08 181.31 213.43 182.17 Z M 213.79 183.01 L 214.14 183.89 C 214.49 184.76 215.47 185.18 216.33 184.84 C 217.20 184.50 217.62 183.51 217.28 182.65 L 216.93 181.77 C 216.58 180.90 215.60 180.48 214.74 180.82 C 213.87 181.16 213.45 182.15 213.79 183.01 Z M 214.14 183.87 L 214.50 184.80 C 214.83 185.66 215.80 186.10 216.67 185.76 C 217.54 185.43 217.97 184.46 217.63 183.59 L 217.28 182.67 C 216.95 181.80 215.97 181.37 215.11 181.70 C 214.24 182.03 213.81 183.01 214.14 183.87 Z M 214.50 184.79 L 214.83 185.66 C 215.16 186.53 216.12 186.97 216.99 186.64 C 217.85 186.31 218.29 185.35 217.96 184.48 L 217.63 183.60 C 217.31 182.74 216.34 182.30 215.48 182.63 C 214.61 182.95 214.17 183.92 214.50 184.79 Z M 214.83 185.66 L 215.15 186.51 C 215.47 187.38 216.43 187.82 217.30 187.50 C 218.16 187.18 218.60 186.22 218.28 185.35 L 217.96 184.49 C 217.64 183.63 216.68 183.18 215.81 183.51 C 214.95 183.83 214.51 184.79 214.83 185.66 Z M 215.15 186.51 L 215.48 187.41 C 215.80 188.27 216.76 188.72 217.62 188.40 C 218.49 188.08 218.93 187.12 218.61 186.26 L 218.28 185.36 C 217.96 184.49 217.01 184.05 216.14 184.37 C 215.28 184.68 214.83 185.64 215.15 186.51 Z M 215.48 187.40 L 215.82 188.34 C 216.13 189.20 217.09 189.65 217.95 189.33 C 218.82 189.02 219.27 188.06 218.95 187.20 L 218.61 186.26 C 218.30 185.40 217.34 184.95 216.48 185.27 C 215.61 185.58 215.17 186.54 215.48 187.40 Z M 215.82 188.33 L 216.17 189.29 C 216.48 190.16 217.43 190.60 218.30 190.29 C 219.16 189.98 219.61 189.03 219.30 188.17 L 218.95 187.20 C 218.64 186.34 217.69 185.89 216.82 186.20 C 215.96 186.51 215.51 187.47 215.82 188.33 Z M 216.17 189.29 L 216.52 190.27 C 216.83 191.13 217.78 191.58 218.64 191.27 C 219.50 190.96 219.95 190.01 219.64 189.15 L 219.30 188.17 C 218.99 187.31 218.04 186.86 217.17 187.16 C 216.31 187.47 215.86 188.42 216.17 189.29 Z M 216.52 190.26 L 216.87 191.25 C 217.17 192.11 218.12 192.57 218.98 192.26 C 219.85 191.96 220.30 191.01 219.99 190.15 L 219.64 189.16 C 219.34 188.29 218.39 187.84 217.53 188.15 C 216.67 188.45 216.21 189.40 216.52 190.26 Z M 216.87 191.25 L 217.22 192.24 C 217.52 193.10 218.47 193.56 219.33 193.26 C 220.19 192.95 220.64 192.01 220.34 191.15 L 219.99 190.15 C 219.69 189.29 218.75 188.84 217.88 189.14 C 217.02 189.44 216.57 190.38 216.87 191.25 Z M 217.22 192.24 L 217.57 193.24 C 217.87 194.10 218.81 194.56 219.67 194.26 C 220.53 193.96 220.99 193.02 220.69 192.16 L 220.34 191.15 C 220.04 190.29 219.10 189.84 218.24 190.13 C 217.38 190.43 216.92 191.37 217.22 192.24 Z M 217.57 193.23 L 217.93 194.26 C 218.22 195.12 219.16 195.58 220.02 195.28 C 220.88 194.99 221.34 194.05 221.04 193.19 L 220.69 192.16 C 220.39 191.30 219.45 190.85 218.59 191.14 C 217.73 191.44 217.28 192.37 217.57 193.23 Z M 217.93 194.25 L 218.27 195.27 C 218.57 196.12 219.50 196.58 220.36 196.29 C 221.21 196.00 221.67 195.07 221.38 194.21 L 221.04 193.20 C 220.74 192.34 219.81 191.88 218.95 192.17 C 218.10 192.46 217.64 193.40 217.93 194.25 Z M 218.28 195.26 L 218.61 196.25 C 218.90 197.11 219.83 197.57 220.68 197.28 C 221.54 196.99 222.00 196.06 221.71 195.21 L 221.38 194.22 C 221.09 193.36 220.16 192.90 219.31 193.19 C 218.45 193.48 217.99 194.40 218.28 195.26 Z M 218.62 196.24 L 218.94 197.21 C 219.22 198.06 220.14 198.52 221.00 198.24 C 221.85 197.96 222.31 197.04 222.03 196.18 L 221.71 195.22 C 221.42 194.36 220.50 193.90 219.65 194.18 C 218.79 194.47 218.33 195.39 218.62 196.24 Z M 218.94 197.20 L 219.25 198.14 C 219.53 198.99 220.44 199.45 221.29 199.18 C 222.14 198.90 222.61 197.98 222.33 197.13 L 222.02 196.19 C 221.75 195.34 220.83 194.88 219.98 195.16 C 219.13 195.43 218.66 196.35 218.94 197.20 Z M 219.25 198.13 L 219.54 199.03 C 219.81 199.88 220.72 200.35 221.57 200.08 C 222.42 199.81 222.89 198.90 222.62 198.05 L 222.33 197.14 C 222.05 196.29 221.14 195.82 220.30 196.10 C 219.45 196.37 218.98 197.28 219.25 198.13 Z M 219.54 199.02 L 219.82 199.89 C 220.08 200.74 220.99 201.21 221.84 200.94 C 222.68 200.68 223.16 199.77 222.89 198.92 L 222.62 198.06 C 222.35 197.21 221.44 196.74 220.60 197.00 C 219.75 197.27 219.28 198.18 219.54 199.02 Z M 219.82 199.88 L 220.10 200.79 C 220.36 201.63 221.25 202.11 222.10 201.85 C 222.95 201.59 223.42 200.69 223.16 199.85 L 222.89 198.94 C 222.63 198.09 221.73 197.62 220.88 197.87 C 220.04 198.13 219.56 199.03 219.82 199.88 Z M 220.10 200.77 L 220.41 201.83 C 220.66 202.67 221.55 203.16 222.40 202.91 C 223.24 202.66 223.73 201.77 223.48 200.92 L 223.16 199.86 C 222.91 199.02 222.03 198.53 221.18 198.78 C 220.33 199.03 219.85 199.92 220.10 200.77 Z M 220.41 201.80 L 220.69 202.80 C 220.93 203.65 221.81 204.14 222.65 203.90 C 223.50 203.67 223.99 202.79 223.76 201.94 L 223.48 200.95 C 223.24 200.10 222.36 199.61 221.51 199.84 C 220.67 200.08 220.17 200.96 220.41 201.80 Z M 220.69 202.77 L 220.94 203.72 C 221.16 204.57 222.03 205.08 222.88 204.85 C 223.72 204.63 224.23 203.76 224.01 202.91 L 223.76 201.97 C 223.53 201.12 222.67 200.61 221.82 200.84 C 220.97 201.06 220.47 201.93 220.69 202.77 Z M 220.94 203.70 L 221.17 204.61 C 221.37 205.46 222.23 205.98 223.08 205.77 C 223.92 205.56 224.44 204.71 224.23 203.86 L 224.01 202.94 C 223.80 202.10 222.94 201.58 222.10 201.79 C 221.25 201.99 220.73 202.85 220.94 203.70 Z M 221.16 204.59 L 221.37 205.49 C 221.56 206.34 222.41 206.87 223.25 206.68 C 224.10 206.49 224.63 205.64 224.44 204.80 L 224.23 203.89 C 224.04 203.04 223.20 202.51 222.35 202.70 C 221.50 202.90 220.97 203.74 221.16 204.59 Z M 221.37 205.47 L 221.56 206.40 C 221.74 207.25 222.57 207.79 223.42 207.61 C 224.27 207.44 224.81 206.60 224.63 205.76 L 224.44 204.82 C 224.26 203.98 223.43 203.43 222.58 203.61 C 221.74 203.79 221.19 204.62 221.37 205.47 Z M 221.56 206.37 L 221.75 207.34 C 221.91 208.19 222.73 208.75 223.58 208.59 C 224.43 208.42 224.99 207.60 224.82 206.75 L 224.64 205.78 C 224.47 204.93 223.65 204.38 222.80 204.54 C 221.95 204.70 221.40 205.52 221.56 206.37 Z M 221.75 207.32 L 221.92 208.31 C 222.08 209.16 222.89 209.72 223.74 209.57 C 224.59 209.42 225.16 208.60 225.00 207.75 L 224.83 206.77 C 224.67 205.92 223.86 205.35 223.01 205.51 C 222.16 205.66 221.59 206.47 221.75 207.32 Z M 221.92 208.29 L 222.09 209.28 C 222.23 210.13 223.04 210.71 223.89 210.56 C 224.74 210.42 225.32 209.61 225.17 208.76 L 225.00 207.77 C 224.86 206.92 224.05 206.34 223.20 206.49 C 222.35 206.63 221.78 207.44 221.92 208.29 Z M 222.09 209.27 L 222.25 210.27 C 222.39 211.12 223.20 211.70 224.05 211.56 C 224.90 211.42 225.48 210.61 225.34 209.76 L 225.17 208.77 C 225.03 207.91 224.23 207.34 223.38 207.48 C 222.53 207.62 221.95 208.42 222.09 209.27 Z M 222.25 210.26 L 222.41 211.26 C 222.55 212.11 223.35 212.69 224.20 212.55 C 225.05 212.42 225.63 211.62 225.50 210.76 L 225.34 209.77 C 225.20 208.91 224.40 208.33 223.55 208.47 C 222.69 208.61 222.12 209.41 222.25 210.26 Z M 222.41 211.26 L 222.42 211.32 C 222.56 212.17 223.36 212.75 224.21 212.61 C 225.06 212.47 225.64 211.67 225.51 210.82 L 225.50 210.76 C 225.36 209.91 224.56 209.33 223.71 209.47 C 222.86 209.61 222.28 210.41 222.41 211.26 Z"
      fill="black"
      fill-rule="nonzero" /></svg>