<svg xmlns="http://www.w3.org/2000/svg" width="300" height="300" viewBox="0 0 300 300">
<path d="M 88.28 100.86 L 87.92 101.78 C 87.58 102.68 88.02 103.69 88.92 104.03 C 89.82 104.38 90.83 103.94 91.18 103.04 L 91.53 102.12 C 91.88 101.22 91.44 100.21 90.54 99.86 C 89.64 99.51 88.63 99.96 88.28 100.86 Z M 87.91 101.80 L 87.57 102.73 C 87.23 103.63 87.69 104.64 88.60 104.97 C 89.50 105.31 90.51 104.85 90.84 103.94 L 91.19 103.02 C 91.52 102.11 91.06 101.11 90.16 100.77 C 89.25 100.44 88.25 100.90 87.91 101.80 Z M 87.55 102.78 L 87.23 103.72 C 86.92 104.63 87.41 105.62 88.33 105.93 C 89.24 106.24 90.23 105.75 90.54 104.84 L 90.86 103.90 C 91.17 102.98 90.68 101.99 89.77 101.68 C 88.85 101.37 87.86 101.86 87.55 102.78 Z M 87.20 103.79 L 86.93 104.75 C 86.66 105.68 87.19 106.65 88.12 106.92 C 89.05 107.19 90.02 106.66 90.29 105.73 L 90.57 104.77 C 90.84 103.84 90.31 102.86 89.38 102.59 C 88.45 102.32 87.47 102.86 87.20 103.79 Z M 86.90 104.85 L 86.67 105.83 C 86.45 106.78 87.05 107.72 87.99 107.94 C 88.94 108.15 89.88 107.56 90.09 106.62 L 90.32 105.63 C 90.54 104.68 89.95 103.74 89.00 103.53 C 88.06 103.31 87.11 103.90 86.90 104.85 Z M 86.65 105.95 L 86.50 106.87 C 86.34 107.83 87.00 108.73 87.95 108.88 C 88.91 109.04 89.81 108.38 89.97 107.43 L 90.12 106.50 C 90.27 105.55 89.62 104.64 88.66 104.49 C 87.70 104.34 86.80 104.99 86.65 105.95 Z M 86.48 106.98 L 86.40 107.83 C 86.31 108.80 87.02 109.66 87.98 109.75 C 88.95 109.84 89.81 109.14 89.90 108.17 L 89.98 107.32 C 90.08 106.35 89.37 105.49 88.40 105.40 C 87.44 105.30 86.58 106.01 86.48 106.98 Z M 86.39 107.93 L 86.36 108.82 C 86.32 109.80 87.08 110.61 88.05 110.65 C 89.02 110.69 89.84 109.93 89.87 108.96 L 89.91 108.07 C 89.95 107.10 89.19 106.28 88.22 106.24 C 87.25 106.20 86.43 106.96 86.39 107.93 Z M 86.36 108.92 L 86.37 109.86 C 86.38 110.83 87.18 111.61 88.15 111.60 C 89.12 111.59 89.90 110.79 89.89 109.82 L 89.87 108.87 C 89.86 107.90 89.06 107.12 88.09 107.14 C 87.12 107.15 86.34 107.94 86.36 108.92 Z M 86.37 109.94 L 86.43 110.96 C 86.49 111.93 87.32 112.67 88.29 112.61 C 89.26 112.55 90.00 111.72 89.94 110.75 L 89.88 109.74 C 89.83 108.77 89.00 108.03 88.03 108.08 C 87.06 108.14 86.31 108.97 86.37 109.94 Z M 86.44 111.02 L 86.54 112.11 C 86.64 113.08 87.50 113.79 88.47 113.69 C 89.43 113.60 90.14 112.74 90.05 111.77 L 89.94 110.68 C 89.84 109.71 88.98 109.01 88.02 109.10 C 87.05 109.20 86.34 110.06 86.44 111.02 Z M 86.55 112.17 L 86.70 113.35 C 86.83 114.31 87.71 114.99 88.68 114.86 C 89.64 114.74 90.32 113.85 90.19 112.89 L 90.04 111.71 C 89.91 110.75 89.03 110.07 88.07 110.20 C 87.10 110.32 86.42 111.21 86.55 112.17 Z M 86.71 113.39 L 86.86 114.39 C 87.01 115.35 87.91 116.01 88.87 115.86 C 89.83 115.71 90.49 114.81 90.34 113.85 L 90.19 112.85 C 90.04 111.89 89.14 111.23 88.18 111.38 C 87.22 111.53 86.56 112.43 86.71 113.39 Z M 86.87 114.41 L 87.02 115.32 C 87.19 116.28 88.10 116.93 89.06 116.76 C 90.01 116.60 90.66 115.69 90.49 114.73 L 90.34 113.82 C 90.17 112.86 89.26 112.22 88.31 112.38 C 87.35 112.55 86.70 113.46 86.87 114.41 Z M 87.03 115.34 L 87.20 116.29 C 87.38 117.25 88.29 117.88 89.25 117.71 C 90.20 117.53 90.84 116.61 90.66 115.66 L 90.49 114.71 C 90.32 113.75 89.40 113.12 88.44 113.30 C 87.49 113.47 86.85 114.39 87.03 115.34 Z M 87.20 116.31 L 87.39 117.28 C 87.57 118.24 88.50 118.86 89.45 118.68 C 90.41 118.50 91.03 117.57 90.85 116.62 L 90.66 115.64 C 90.48 114.69 89.55 114.06 88.60 114.25 C 87.65 114.43 87.02 115.35 87.20 116.31 Z M 87.39 117.29 L 87.59 118.29 C 87.78 119.25 88.71 119.86 89.66 119.67 C 90.62 119.48 91.23 118.56 91.04 117.60 L 90.85 116.61 C 90.66 115.65 89.73 115.03 88.78 115.22 C 87.82 115.41 87.20 116.34 87.39 117.29 Z M 87.59 118.30 L 87.80 119.31 C 88.00 120.27 88.93 120.88 89.88 120.68 C 90.83 120.49 91.45 119.56 91.25 118.61 L 91.04 117.59 C 90.85 116.64 89.92 116.03 88.96 116.22 C 88.01 116.42 87.40 117.35 87.59 118.30 Z M 87.80 119.32 L 88.02 120.34 C 88.22 121.29 89.15 121.90 90.10 121.70 C 91.05 121.50 91.66 120.57 91.46 119.62 L 91.25 118.60 C 91.05 117.65 90.12 117.04 89.17 117.24 C 88.21 117.44 87.60 118.37 87.80 119.32 Z M 88.02 120.35 L 88.23 121.37 C 88.44 122.32 89.37 122.92 90.32 122.72 C 91.27 122.52 91.88 121.59 91.68 120.63 L 91.46 119.61 C 91.26 118.66 90.32 118.06 89.37 118.26 C 88.42 118.46 87.82 119.39 88.02 120.35 Z M 88.23 121.37 L 88.45 122.38 C 88.65 123.33 89.59 123.94 90.54 123.73 C 91.49 123.53 92.10 122.60 91.89 121.64 L 91.68 120.63 C 91.47 119.68 90.54 119.08 89.59 119.28 C 88.64 119.48 88.03 120.42 88.23 121.37 Z M 88.45 122.38 L 88.67 123.38 C 88.87 124.33 89.80 124.94 90.75 124.73 C 91.71 124.53 92.31 123.59 92.11 122.64 L 91.89 121.64 C 91.69 120.69 90.75 120.09 89.80 120.29 C 88.85 120.50 88.25 121.43 88.45 122.38 Z M 88.67 123.38 L 88.88 124.36 C 89.08 125.31 90.01 125.92 90.96 125.72 C 91.91 125.51 92.52 124.58 92.32 123.63 L 92.11 122.64 C 91.90 121.69 90.97 121.09 90.02 121.29 C 89.07 121.49 88.46 122.43 88.67 123.38 Z M 88.88 124.36 L 89.08 125.33 C 89.28 126.28 90.21 126.89 91.16 126.68 C 92.11 126.48 92.72 125.55 92.52 124.60 L 92.32 123.63 C 92.12 122.68 91.18 122.07 90.23 122.28 C 89.28 122.48 88.67 123.41 88.88 124.36 Z M 89.08 125.32 L 89.28 126.28 C 89.48 127.23 90.41 127.84 91.36 127.64 C 92.31 127.44 92.92 126.51 92.72 125.56 L 92.52 124.61 C 92.32 123.66 91.39 123.05 90.44 123.24 C 89.49 123.44 88.88 124.37 89.08 125.32 Z M 89.28 126.27 L 89.48 127.22 C 89.67 128.17 90.60 128.78 91.55 128.59 C 92.50 128.39 93.11 127.46 92.92 126.51 L 92.72 125.57 C 92.52 124.62 91.60 124.00 90.65 124.20 C 89.70 124.39 89.09 125.32 89.28 126.27 Z M 89.48 127.22 L 89.67 128.16 C 89.86 129.11 90.78 129.73 91.73 129.54 C 92.68 129.34 93.30 128.42 93.11 127.47 L 92.92 126.52 C 92.72 125.57 91.80 124.96 90.85 125.15 C 89.90 125.34 89.28 126.27 89.48 127.22 Z M 89.67 128.16 L 89.86 129.11 C 90.04 130.06 90.97 130.68 91.92 130.49 C 92.87 130.30 93.48 129.38 93.30 128.43 L 93.11 127.48 C 92.92 126.53 92.00 125.91 91.05 126.10 C 90.10 126.28 89.48 127.21 89.67 128.16 Z M 89.86 129.10 L 90.04 130.07 C 90.23 131.02 91.15 131.64 92.10 131.46 C 93.05 131.28 93.67 130.36 93.48 129.41 L 93.30 128.44 C 93.11 127.49 92.19 126.87 91.24 127.05 C 90.29 127.24 89.67 128.15 89.86 129.10 Z M 90.04 130.07 L 90.23 131.06 C 90.41 132.01 91.32 132.63 92.27 132.45 C 93.22 132.27 93.85 131.36 93.67 130.41 L 93.48 129.42 C 93.30 128.47 92.39 127.84 91.44 128.02 C 90.49 128.20 89.86 129.12 90.04 130.07 Z M 90.23 131.05 L 90.42 132.07 C 90.59 133.02 91.50 133.64 92.45 133.47 C 93.40 133.29 94.03 132.38 93.86 131.43 L 93.67 130.42 C 93.50 129.46 92.58 128.84 91.63 129.01 C 90.68 129.19 90.06 130.10 90.23 131.05 Z M 90.42 132.06 L 90.60 133.11 C 90.77 134.06 91.68 134.69 92.63 134.52 C 93.58 134.35 94.22 133.44 94.05 132.49 L 93.86 131.44 C 93.69 130.49 92.78 129.86 91.83 130.03 C 90.88 130.20 90.25 131.11 90.42 132.06 Z M 90.61 133.10 L 90.77 134.07 C 90.94 135.02 91.84 135.66 92.79 135.49 C 93.74 135.33 94.38 134.42 94.21 133.47 L 94.05 132.50 C 93.88 131.55 92.98 130.92 92.03 131.08 C 91.08 131.25 90.44 132.15 90.61 133.10 Z M 90.78 134.06 L 90.94 135.02 C 91.10 135.97 92.00 136.61 92.95 136.45 C 93.90 136.29 94.54 135.39 94.38 134.44 L 94.21 133.48 C 94.05 132.53 93.15 131.89 92.20 132.05 C 91.25 132.21 90.61 133.11 90.78 134.06 Z M 90.94 135.02 L 91.10 136.00 C 91.26 136.95 92.16 137.59 93.11 137.43 C 94.05 137.27 94.70 136.38 94.54 135.43 L 94.38 134.45 C 94.22 133.50 93.32 132.86 92.37 133.01 C 91.42 133.17 90.78 134.07 90.94 135.02 Z M 91.10 135.99 L 91.27 136.99 C 91.42 137.94 92.31 138.58 93.26 138.43 C 94.21 138.28 94.85 137.38 94.70 136.44 L 94.54 135.44 C 94.38 134.49 93.49 133.85 92.54 134.00 C 91.60 134.15 90.95 135.04 91.10 135.99 Z M 91.27 136.98 L 91.43 137.99 C 91.58 138.94 92.46 139.59 93.41 139.44 C 94.36 139.29 95.00 138.40 94.86 137.46 L 94.70 136.44 C 94.55 135.50 93.66 134.85 92.71 135.00 C 91.77 135.15 91.12 136.04 91.27 136.98 Z M 91.43 137.99 L 91.58 139.00 C 91.73 139.95 92.61 140.60 93.56 140.45 C 94.50 140.31 95.15 139.43 95.01 138.48 L 94.85 137.46 C 94.71 136.52 93.83 135.87 92.88 136.01 C 91.93 136.16 91.28 137.04 91.43 137.99 Z M 91.58 138.99 L 91.73 140.01 C 91.87 140.96 92.75 141.61 93.70 141.47 C 94.64 141.33 95.30 140.45 95.16 139.51 L 95.01 138.49 C 94.87 137.54 93.99 136.89 93.04 137.03 C 92.10 137.17 91.45 138.05 91.58 138.99 Z M 91.74 140.00 L 91.88 141.02 C 92.01 141.96 92.89 142.62 93.83 142.48 C 94.78 142.35 95.43 141.48 95.30 140.53 L 95.16 139.52 C 95.02 138.57 94.15 137.92 93.20 138.05 C 92.26 138.18 91.60 139.06 91.74 140.00 Z M 91.88 141.01 L 92.02 142.01 C 92.15 142.95 93.02 143.61 93.96 143.49 C 94.90 143.36 95.56 142.49 95.44 141.54 L 95.30 140.54 C 95.17 139.60 94.30 138.94 93.36 139.06 C 92.41 139.19 91.75 140.06 91.88 141.01 Z M 92.02 142.00 L 92.15 142.99 C 92.27 143.93 93.13 144.60 94.08 144.47 C 95.02 144.35 95.68 143.49 95.56 142.54 L 95.43 141.56 C 95.31 140.61 94.45 139.95 93.51 140.07 C 92.56 140.19 91.90 141.06 92.02 142.00 Z M 92.15 142.98 L 92.27 143.94 C 92.38 144.89 93.24 145.56 94.18 145.44 C 95.13 145.33 95.80 144.47 95.68 143.53 L 95.56 142.56 C 95.45 141.61 94.59 140.94 93.65 141.06 C 92.70 141.18 92.03 142.03 92.15 142.98 Z M 92.27 143.93 L 92.38 144.92 C 92.49 145.86 93.34 146.54 94.28 146.43 C 95.22 146.32 95.90 145.47 95.79 144.53 L 95.68 143.54 C 95.57 142.60 94.72 141.92 93.78 142.03 C 92.84 142.14 92.16 142.99 92.27 143.93 Z M 92.39 144.90 L 92.50 146.02 C 92.60 146.96 93.44 147.64 94.38 147.54 C 95.32 147.44 96.00 146.60 95.90 145.66 L 95.79 144.55 C 95.69 143.61 94.85 142.92 93.91 143.02 C 92.97 143.12 92.29 143.96 92.39 144.90 Z M 92.51 146.00 L 92.61 147.08 C 92.70 148.02 93.53 148.70 94.46 148.62 C 95.40 148.53 96.09 147.70 96.00 146.76 L 95.90 145.68 C 95.81 144.75 94.98 144.06 94.05 144.15 C 93.11 144.24 92.42 145.07 92.51 146.00 Z M 92.62 147.06 L 92.70 148.10 C 92.78 149.04 93.60 149.73 94.53 149.65 C 95.46 149.58 96.16 148.76 96.08 147.82 L 95.99 146.78 C 95.92 145.85 95.10 145.16 94.17 145.23 C 93.23 145.31 92.54 146.13 92.62 147.06 Z M 92.71 148.09 L 92.78 149.10 C 92.85 150.03 93.66 150.72 94.59 150.66 C 95.52 150.59 96.21 149.78 96.15 148.85 L 96.07 147.84 C 96.01 146.91 95.20 146.22 94.27 146.28 C 93.34 146.35 92.64 147.16 92.71 148.09 Z M 92.79 149.08 L 92.85 150.06 C 92.91 150.99 93.71 151.69 94.63 151.63 C 95.56 151.58 96.26 150.78 96.20 149.85 L 96.14 148.87 C 96.08 147.95 95.29 147.24 94.36 147.30 C 93.44 147.36 92.73 148.15 92.79 149.08 Z M 92.86 150.05 L 92.91 151.01 C 92.96 151.93 93.75 152.63 94.67 152.58 C 95.59 152.54 96.30 151.75 96.25 150.83 L 96.20 149.87 C 96.15 148.95 95.36 148.24 94.44 148.29 C 93.52 148.34 92.81 149.13 92.86 150.05 Z M 92.92 150.99 L 92.96 151.93 C 93.00 152.85 93.78 153.56 94.69 153.52 C 95.61 153.48 96.32 152.70 96.28 151.78 L 96.24 150.84 C 96.20 149.92 95.42 149.21 94.50 149.26 C 93.59 149.30 92.88 150.07 92.92 150.99 Z M 92.97 151.92 L 93.00 152.84 C 93.03 153.75 93.80 154.46 94.71 154.43 C 95.63 154.40 96.34 153.63 96.31 152.72 L 96.27 151.79 C 96.24 150.88 95.47 150.17 94.56 150.20 C 93.65 150.23 92.93 151.00 92.97 151.92 Z M 93.01 152.83 L 93.03 153.74 C 93.06 154.65 93.82 155.36 94.73 155.33 C 95.64 155.31 96.35 154.55 96.33 153.64 L 96.30 152.73 C 96.27 151.82 95.51 151.10 94.60 151.13 C 93.69 151.16 92.98 151.92 93.01 152.83 Z M 93.04 153.73 L 93.07 154.72 C 93.09 155.63 93.84 156.34 94.74 156.32 C 95.65 156.30 96.37 155.55 96.34 154.64 L 96.32 153.65 C 96.30 152.74 95.55 152.02 94.64 152.05 C 93.74 152.07 93.02 152.82 93.04 153.73 Z M 93.07 154.71 L 93.09 155.72 C 93.11 156.62 93.85 157.34 94.75 157.32 C 95.66 157.30 96.37 156.56 96.36 155.66 L 96.34 154.65 C 96.32 153.75 95.58 153.03 94.67 153.05 C 93.77 153.06 93.05 153.81 93.07 154.71 Z M 93.10 155.71 L 93.11 156.71 C 93.12 157.61 93.86 158.33 94.76 158.32 C 95.66 158.30 96.38 157.56 96.36 156.67 L 96.35 155.66 C 96.34 154.77 95.60 154.05 94.70 154.06 C 93.80 154.07 93.08 154.81 93.10 155.71 Z M 93.12 156.70 L 93.13 157.70 C 93.13 158.60 93.87 159.31 94.76 159.31 C 95.66 159.30 96.38 158.56 96.37 157.67 L 96.36 156.67 C 96.35 155.78 95.62 155.06 94.72 155.07 C 93.83 155.07 93.11 155.81 93.12 156.70 Z M 93.13 157.69 L 93.14 158.69 C 93.14 159.58 93.87 160.30 94.76 160.29 C 95.66 160.29 96.37 159.56 96.37 158.67 L 96.36 157.67 C 96.36 156.78 95.63 156.06 94.74 156.07 C 93.84 156.07 93.13 156.80 93.13 157.69 Z M 93.14 158.68 L 93.15 159.68 C 93.15 160.57 93.87 161.28 94.76 161.28 C 95.65 161.28 96.37 160.56 96.37 159.67 L 96.36 158.67 C 96.36 157.78 95.64 157.07 94.75 157.07 C 93.86 157.07 93.14 157.80 93.14 158.68 Z M 93.15 159.67 L 93.16 160.67 C 93.16 161.56 93.88 162.27 94.76 162.27 C 95.65 162.27 96.36 161.55 96.36 160.67 L 96.36 159.67 C 96.36 158.78 95.64 158.07 94.75 158.07 C 93.87 158.07 93.15 158.79 93.15 159.67 Z M 93.16 160.67 L 93.16 161.67 C 93.16 162.55 93.88 163.26 94.76 163.26 C 95.64 163.26 96.36 162.55 96.36 161.67 L 96.36 160.67 C 96.35 159.78 95.64 159.07 94.76 159.07 C 93.88 159.07 93.16 159.79 93.16 160.67 Z M 93.17 161.67 L 93.17 162.66 C 93.17 163.53 93.88 164.25 94.76 164.25 C 95.64 164.25 96.35 163.53 96.35 162.66 L 96.35 161.67 C 96.35 160.79 95.64 160.08 94.76 160.07 C 93.88 160.07 93.17 160.79 93.17 161.67 Z M 93.17 162.65 L 93.17 163.63 C 93.17 164.51 93.88 165.22 94.75 165.22 C 95.63 165.22 96.34 164.51 96.34 163.64 L 96.35 162.66 C 96.35 161.78 95.64 161.07 94.76 161.07 C 93.88 161.07 93.17 161.78 93.17 162.65 Z M 93.17 163.62 L 93.17 164.61 C 93.16 165.48 93.86 166.20 94.74 166.20 C 95.61 166.21 96.33 165.50 96.33 164.63 L 96.34 163.65 C 96.35 162.77 95.64 162.06 94.77 162.05 C 93.89 162.04 93.18 162.75 93.17 163.62 Z M 93.17 164.59 L 93.15 165.58 C 93.14 166.46 93.84 167.18 94.71 167.19 C 95.58 167.20 96.30 166.51 96.32 165.63 L 96.33 164.64 C 96.34 163.77 95.65 163.05 94.77 163.04 C 93.90 163.02 93.18 163.72 93.17 164.59 Z M 93.16 165.57 L 93.13 166.56 C 93.11 167.43 93.79 168.16 94.66 168.18 C 95.53 168.21 96.26 167.52 96.28 166.65 L 96.31 165.65 C 96.34 164.78 95.65 164.06 94.78 164.03 C 93.91 164.01 93.18 164.69 93.16 165.57 Z M 93.13 166.54 L 93.09 167.54 C 93.05 168.41 93.73 169.14 94.60 169.18 C 95.47 169.22 96.20 168.54 96.24 167.67 L 96.28 166.67 C 96.32 165.80 95.64 165.07 94.77 165.03 C 93.91 165.00 93.17 165.67 93.13 166.54 Z M 93.10 167.51 L 93.03 168.52 C 92.98 169.39 93.64 170.13 94.51 170.18 C 95.37 170.24 96.12 169.58 96.17 168.71 L 96.23 167.70 C 96.29 166.84 95.63 166.09 94.76 166.04 C 93.89 165.99 93.15 166.65 93.10 167.51 Z M 93.04 168.49 L 92.96 169.50 C 92.89 170.36 93.53 171.12 94.39 171.19 C 95.25 171.26 96.01 170.62 96.08 169.76 L 96.16 168.74 C 96.24 167.88 95.59 167.12 94.73 167.05 C 93.87 166.98 93.11 167.62 93.04 168.49 Z M 92.96 169.46 L 92.85 170.48 C 92.76 171.34 93.38 172.11 94.24 172.20 C 95.10 172.30 95.87 171.68 95.96 170.82 L 96.07 169.80 C 96.17 168.94 95.55 168.17 94.69 168.07 C 93.83 167.98 93.06 168.60 92.96 169.46 Z M 92.86 170.44 L 92.73 171.42 C 92.62 172.27 93.22 173.06 94.07 173.17 C 94.93 173.29 95.71 172.69 95.83 171.83 L 95.96 170.86 C 96.07 170.00 95.47 169.22 94.62 169.10 C 93.76 168.99 92.98 169.59 92.86 170.44 Z M 92.74 171.38 L 92.58 172.35 C 92.45 173.20 93.03 174.00 93.88 174.13 C 94.73 174.27 95.53 173.69 95.67 172.84 L 95.82 171.87 C 95.96 171.01 95.37 170.21 94.52 170.08 C 93.67 169.95 92.87 170.53 92.74 171.38 Z M 92.59 172.32 L 92.41 173.29 C 92.26 174.14 92.83 174.95 93.68 175.10 C 94.52 175.26 95.34 174.69 95.49 173.84 L 95.66 172.87 C 95.81 172.02 95.25 171.21 94.40 171.05 C 93.55 170.90 92.74 171.47 92.59 172.32 Z M 92.42 173.26 L 92.23 174.24 C 92.06 175.09 92.61 175.91 93.46 176.08 C 94.30 176.24 95.12 175.69 95.29 174.84 L 95.48 173.87 C 95.65 173.02 95.10 172.20 94.25 172.03 C 93.41 171.87 92.59 172.42 92.42 173.26 Z M 92.23 174.22 L 92.02 175.20 C 91.84 176.04 92.38 176.87 93.23 177.05 C 94.07 177.23 94.90 176.69 95.08 175.85 L 95.29 174.87 C 95.46 174.02 94.93 173.19 94.08 173.02 C 93.24 172.84 92.41 173.38 92.23 174.22 Z M 92.03 175.18 L 91.81 176.17 C 91.62 177.01 92.15 177.84 92.99 178.03 C 93.83 178.22 94.67 177.69 94.85 176.85 L 95.07 175.86 C 95.26 175.02 94.73 174.19 93.89 174.00 C 93.05 173.81 92.22 174.34 92.03 175.18 Z M 91.81 176.15 L 91.58 177.14 C 91.39 177.98 91.91 178.82 92.75 179.01 C 93.59 179.21 94.43 178.68 94.62 177.85 L 94.85 176.86 C 95.05 176.02 94.53 175.18 93.69 174.99 C 92.85 174.79 92.01 175.31 91.81 176.15 Z M 91.58 177.13 L 91.35 178.11 C 91.15 178.95 91.66 179.79 92.50 180.00 C 93.34 180.20 94.18 179.68 94.38 178.84 L 94.62 177.85 C 94.82 177.02 94.30 176.17 93.47 175.97 C 92.63 175.77 91.78 176.29 91.58 177.13 Z M 91.35 178.11 L 91.11 179.10 C 90.91 179.93 91.42 180.78 92.26 180.98 C 93.10 181.18 93.94 180.67 94.14 179.83 L 94.38 178.85 C 94.59 178.01 94.07 177.16 93.23 176.96 C 92.40 176.76 91.55 177.27 91.35 178.11 Z M 91.11 179.09 L 91.04 179.39 C 90.83 180.23 91.35 181.07 92.18 181.28 C 93.02 181.48 93.87 180.97 94.07 180.13 L 94.14 179.83 C 94.35 179.00 93.83 178.15 93.00 177.95 C 92.16 177.74 91.31 178.26 91.11 179.09 Z"
      fill="black"
      fill-rule="nonzero" /><path d="M 80.26 194.59 L 80.51 193.77 C 80.78 192.89 80.29 191.95 79.41 191.68 C 78.53 191.41 77.59 191.90 77.32 192.78 L 77.07 193.60 C 76.79 194.48 77.29 195.42 78.17 195.69 C 79.05 195.96 79.99 195.47 80.26 194.59 Z M 80.52 193.82 L 80.80 193.00 C 81.11 192.11 80.63 191.14 79.74 190.84 C 78.86 190.54 77.89 191.01 77.59 191.90 L 77.31 192.73 C 77.01 193.62 77.48 194.58 78.37 194.88 C 79.26 195.19 80.22 194.71 80.52 193.82 Z M 80.80 193.09 L 81.14 192.24 C 81.49 191.35 81.06 190.35 80.18 190.00 C 79.29 189.64 78.29 190.07 77.94 190.96 L 77.60 191.81 C 77.24 192.69 77.67 193.70 78.56 194.05 C 79.44 194.40 80.45 193.97 80.80 193.09 Z M 81.12 192.36 L 81.54 191.47 C 81.96 190.60 81.60 189.55 80.73 189.13 C 79.85 188.71 78.81 189.08 78.39 189.95 L 77.96 190.84 C 77.54 191.71 77.91 192.76 78.78 193.18 C 79.65 193.60 80.70 193.23 81.12 192.36 Z M 81.50 191.61 L 82.05 190.67 C 82.54 189.82 82.25 188.73 81.40 188.24 C 80.56 187.74 79.47 188.03 78.97 188.88 L 78.43 189.82 C 77.93 190.66 78.22 191.75 79.07 192.25 C 79.92 192.74 81.01 192.45 81.50 191.61 Z M 81.99 190.81 L 82.68 189.81 C 83.25 188.99 83.05 187.87 82.23 187.30 C 81.41 186.73 80.28 186.93 79.72 187.75 L 79.03 188.75 C 78.46 189.57 78.66 190.69 79.48 191.26 C 80.30 191.83 81.42 191.62 81.99 190.81 Z M 82.62 189.91 L 83.24 189.14 C 83.86 188.35 83.73 187.21 82.95 186.58 C 82.16 185.96 81.02 186.09 80.39 186.87 L 79.78 187.65 C 79.15 188.44 79.28 189.58 80.07 190.21 C 80.85 190.83 82.00 190.70 82.62 189.91 Z M 83.19 189.19 L 83.81 188.47 C 84.46 187.72 84.38 186.57 83.63 185.92 C 82.87 185.26 81.73 185.34 81.07 186.10 L 80.45 186.82 C 79.79 187.58 79.87 188.72 80.63 189.38 C 81.39 190.03 82.53 189.95 83.19 189.19 Z M 83.77 188.51 L 84.44 187.77 C 85.12 187.04 85.07 185.90 84.34 185.22 C 83.60 184.55 82.47 184.60 81.79 185.33 L 81.11 186.07 C 80.44 186.80 80.49 187.94 81.22 188.61 C 81.95 189.29 83.09 189.24 83.77 188.51 Z M 84.41 187.79 L 85.12 187.05 C 85.81 186.34 85.79 185.20 85.08 184.52 C 84.37 183.83 83.23 183.85 82.55 184.56 L 81.83 185.31 C 81.14 186.02 81.16 187.15 81.88 187.84 C 82.59 188.52 83.72 188.50 84.41 187.79 Z M 85.09 187.06 L 85.84 186.32 C 86.53 185.62 86.53 184.50 85.84 183.80 C 85.15 183.11 84.02 183.11 83.32 183.80 L 82.58 184.55 C 81.88 185.24 81.88 186.37 82.58 187.06 C 83.27 187.76 84.40 187.76 85.09 187.06 Z M 85.81 186.33 L 86.57 185.59 C 87.27 184.91 87.29 183.79 86.61 183.09 C 85.93 182.39 84.81 182.37 84.11 183.05 L 83.35 183.79 C 82.65 184.47 82.63 185.59 83.31 186.29 C 83.99 186.99 85.11 187.01 85.81 186.33 Z M 86.55 185.60 L 87.31 184.88 C 88.01 184.21 88.04 183.10 87.37 182.40 C 86.70 181.69 85.59 181.66 84.89 182.33 L 84.13 183.05 C 83.43 183.72 83.40 184.83 84.06 185.53 C 84.73 186.24 85.84 186.27 86.55 185.60 Z M 87.29 184.88 L 88.03 184.19 C 88.74 183.53 88.78 182.43 88.12 181.72 C 87.46 181.02 86.36 180.98 85.65 181.63 L 84.91 182.33 C 84.20 182.99 84.16 184.09 84.82 184.80 C 85.48 185.50 86.58 185.54 87.29 184.88 Z M 88.02 184.19 L 88.73 183.53 C 89.44 182.88 89.48 181.79 88.83 181.08 C 88.18 180.37 87.09 180.33 86.38 180.98 L 85.66 181.64 C 84.96 182.28 84.91 183.38 85.56 184.09 C 86.21 184.79 87.31 184.84 88.02 184.19 Z M 88.72 183.53 L 89.48 182.84 C 90.18 182.19 90.23 181.10 89.59 180.40 C 88.95 179.69 87.86 179.65 87.15 180.29 L 86.39 180.98 C 85.69 181.62 85.64 182.71 86.28 183.42 C 86.92 184.12 88.01 184.17 88.72 183.53 Z M 89.47 182.83 L 90.35 182.02 C 91.05 181.39 91.10 180.31 90.47 179.61 C 89.83 178.91 88.75 178.86 88.05 179.49 L 87.17 180.30 C 86.47 180.93 86.42 182.01 87.05 182.71 C 87.69 183.41 88.77 183.46 89.47 182.83 Z M 90.34 182.01 L 91.14 181.29 C 91.83 180.66 91.89 179.59 91.26 178.90 C 90.63 178.21 89.56 178.15 88.87 178.78 L 88.07 179.50 C 87.37 180.13 87.32 181.20 87.94 181.89 C 88.57 182.58 89.64 182.64 90.34 182.01 Z M 91.12 181.28 L 91.86 180.62 C 92.55 180.00 92.60 178.95 91.99 178.26 C 91.37 177.57 90.31 177.51 89.62 178.13 L 88.88 178.79 C 88.20 179.40 88.14 180.46 88.75 181.15 C 89.37 181.84 90.43 181.90 91.12 181.28 Z M 91.84 180.61 L 92.53 180.00 C 93.21 179.39 93.28 178.34 92.67 177.66 C 92.06 176.98 91.01 176.91 90.33 177.52 L 89.64 178.14 C 88.95 178.74 88.89 179.79 89.50 180.48 C 90.11 181.16 91.16 181.22 91.84 180.61 Z M 92.51 179.99 L 93.18 179.41 C 93.86 178.81 93.92 177.77 93.32 177.09 C 92.72 176.41 91.69 176.35 91.01 176.95 L 90.34 177.53 C 89.66 178.13 89.60 179.17 90.20 179.85 C 90.80 180.53 91.83 180.59 92.51 179.99 Z M 93.16 179.40 L 93.82 178.82 C 94.49 178.23 94.56 177.21 93.97 176.53 C 93.38 175.86 92.35 175.79 91.68 176.38 L 91.02 176.95 C 90.35 177.55 90.28 178.57 90.87 179.25 C 91.46 179.92 92.49 179.99 93.16 179.40 Z M 93.80 178.82 L 94.51 178.20 C 95.19 177.62 95.26 176.60 94.67 175.93 C 94.09 175.26 93.07 175.18 92.40 175.77 L 91.69 176.39 C 91.02 176.97 90.95 177.99 91.53 178.66 C 92.11 179.33 93.13 179.40 93.80 178.82 Z M 94.51 178.20 L 95.25 177.56 C 95.92 176.98 95.99 175.97 95.41 175.29 C 94.83 174.62 93.82 174.55 93.15 175.13 L 92.41 175.77 C 91.74 176.35 91.66 177.36 92.24 178.03 C 92.82 178.71 93.84 178.78 94.51 178.20 Z M 95.24 177.56 L 95.99 176.91 C 96.66 176.33 96.74 175.32 96.16 174.65 C 95.59 173.98 94.58 173.91 93.91 174.48 L 93.15 175.13 C 92.48 175.71 92.41 176.72 92.98 177.39 C 93.56 178.06 94.57 178.14 95.24 177.56 Z M 95.99 176.91 L 96.75 176.26 C 97.42 175.68 97.50 174.68 96.93 174.01 C 96.36 173.34 95.35 173.26 94.68 173.83 L 93.91 174.48 C 93.24 175.06 93.16 176.06 93.74 176.73 C 94.31 177.40 95.32 177.48 95.99 176.91 Z M 96.75 176.26 L 97.52 175.60 C 98.19 175.03 98.28 174.02 97.71 173.35 C 97.14 172.68 96.14 172.60 95.46 173.17 L 94.69 173.83 C 94.02 174.40 93.93 175.40 94.50 176.07 C 95.07 176.74 96.08 176.82 96.75 176.26 Z M 97.52 175.60 L 98.30 174.94 C 98.97 174.37 99.06 173.37 98.49 172.70 C 97.93 172.03 96.93 171.94 96.26 172.51 L 95.47 173.17 C 94.80 173.73 94.72 174.73 95.28 175.41 C 95.84 176.08 96.85 176.16 97.52 175.60 Z M 98.29 174.94 L 99.06 174.30 C 99.73 173.74 99.82 172.74 99.26 172.07 C 98.70 171.40 97.70 171.31 97.03 171.87 L 96.27 172.51 C 95.59 173.07 95.50 174.07 96.07 174.74 C 96.63 175.41 97.62 175.50 98.29 174.94 Z M 99.05 174.30 L 99.82 173.67 C 100.49 173.11 100.58 172.11 100.02 171.44 C 99.47 170.77 98.47 170.68 97.80 171.23 L 97.04 171.87 C 96.36 172.42 96.27 173.42 96.83 174.09 C 97.39 174.76 98.38 174.86 99.05 174.30 Z M 99.81 173.67 L 100.58 173.03 C 101.25 172.48 101.35 171.49 100.80 170.81 C 100.24 170.14 99.25 170.05 98.58 170.60 L 97.81 171.23 C 97.13 171.79 97.04 172.78 97.59 173.45 C 98.14 174.12 99.14 174.22 99.81 173.67 Z M 100.57 173.04 L 101.35 172.40 C 102.02 171.85 102.12 170.86 101.57 170.19 C 101.02 169.51 100.03 169.41 99.36 169.96 L 98.58 170.60 C 97.91 171.15 97.81 172.14 98.36 172.81 C 98.91 173.49 99.90 173.59 100.57 173.04 Z M 101.34 172.40 L 102.12 171.77 C 102.80 171.22 102.90 170.23 102.35 169.56 C 101.81 168.89 100.82 168.78 100.14 169.33 L 99.36 169.96 C 98.69 170.51 98.59 171.50 99.13 172.17 C 99.68 172.85 100.67 172.95 101.34 172.40 Z M 102.12 171.77 L 102.90 171.14 C 103.58 170.60 103.68 169.61 103.14 168.93 C 102.60 168.26 101.61 168.15 100.93 168.70 L 100.15 169.33 C 99.47 169.87 99.37 170.86 99.91 171.53 C 100.45 172.21 101.44 172.32 102.12 171.77 Z M 102.90 171.14 L 103.68 170.51 C 104.36 169.97 104.47 168.99 103.93 168.31 C 103.39 167.64 102.40 167.53 101.72 168.07 L 100.94 168.69 C 100.26 169.23 100.15 170.22 100.70 170.90 C 101.24 171.57 102.22 171.68 102.90 171.14 Z M 103.68 170.52 L 104.46 169.89 C 105.14 169.35 105.25 168.37 104.71 167.69 C 104.17 167.02 103.19 166.90 102.51 167.44 L 101.73 168.06 C 101.05 168.60 100.94 169.59 101.48 170.26 C 102.02 170.94 103.00 171.05 103.68 170.52 Z M 104.46 169.89 L 105.24 169.27 C 105.92 168.74 106.03 167.75 105.50 167.07 C 104.96 166.40 103.98 166.28 103.30 166.82 L 102.51 167.44 C 101.84 167.98 101.72 168.96 102.26 169.64 C 102.80 170.32 103.78 170.43 104.46 169.89 Z M 105.24 169.27 L 106.03 168.65 C 106.70 168.11 106.82 167.13 106.28 166.45 C 105.75 165.78 104.76 165.66 104.08 166.20 L 103.30 166.82 C 102.62 167.36 102.51 168.34 103.04 169.02 C 103.58 169.69 104.56 169.81 105.24 169.27 Z M 106.03 168.65 L 106.81 168.03 C 107.49 167.49 107.60 166.51 107.07 165.83 C 106.53 165.15 105.55 165.04 104.87 165.58 L 104.08 166.20 C 103.41 166.73 103.29 167.72 103.83 168.39 C 104.37 169.07 105.35 169.19 106.03 168.65 Z M 106.81 168.03 L 107.60 167.40 C 108.27 166.87 108.39 165.88 107.85 165.21 C 107.31 164.53 106.33 164.42 105.65 164.96 L 104.87 165.58 C 104.19 166.11 104.08 167.10 104.62 167.77 C 105.15 168.45 106.14 168.56 106.81 168.03 Z M 107.60 167.40 L 108.38 166.78 C 109.05 166.24 109.17 165.26 108.63 164.58 C 108.09 163.91 107.11 163.80 106.43 164.34 L 105.65 164.96 C 104.97 165.50 104.86 166.48 105.40 167.16 C 105.94 167.83 106.92 167.94 107.60 167.40 Z M 108.38 166.77 L 109.17 166.14 C 109.85 165.60 109.95 164.62 109.41 163.94 C 108.87 163.27 107.89 163.16 107.22 163.70 L 106.43 164.34 C 105.75 164.88 105.65 165.86 106.19 166.53 C 106.73 167.21 107.71 167.31 108.38 166.77 Z M 109.18 166.14 L 109.96 165.50 C 110.63 164.96 110.74 163.98 110.20 163.31 C 109.65 162.63 108.67 162.53 108.00 163.07 L 107.21 163.71 C 106.54 164.25 106.44 165.23 106.98 165.90 C 107.52 166.57 108.51 166.68 109.18 166.14 Z M 109.97 165.50 L 110.75 164.87 C 111.41 164.32 111.52 163.34 110.97 162.67 C 110.43 162.00 109.45 161.90 108.78 162.44 L 108.00 163.07 C 107.33 163.62 107.23 164.60 107.77 165.27 C 108.31 165.94 109.30 166.04 109.97 165.50 Z M 110.75 164.87 L 111.52 164.24 C 112.19 163.69 112.29 162.71 111.75 162.04 C 111.20 161.37 110.22 161.27 109.55 161.81 L 108.78 162.44 C 108.11 162.99 108.01 163.97 108.55 164.64 C 109.09 165.31 110.08 165.41 110.75 164.87 Z M 111.52 164.24 L 112.29 163.61 C 112.96 163.06 113.06 162.08 112.51 161.41 C 111.97 160.74 110.99 160.64 110.32 161.19 L 109.55 161.81 C 108.88 162.36 108.78 163.34 109.32 164.01 C 109.87 164.68 110.85 164.78 111.52 164.24 Z M 112.29 163.61 L 113.05 162.99 C 113.72 162.44 113.82 161.46 113.28 160.79 C 112.73 160.12 111.75 160.02 111.08 160.57 L 110.32 161.19 C 109.65 161.73 109.55 162.72 110.09 163.38 C 110.64 164.05 111.62 164.15 112.29 163.61 Z M 113.05 162.99 L 113.83 162.35 C 114.50 161.81 114.60 160.82 114.06 160.16 C 113.52 159.49 112.53 159.39 111.86 159.93 L 111.08 160.57 C 110.41 161.11 110.31 162.09 110.85 162.76 C 111.40 163.43 112.38 163.53 113.05 162.99 Z M 113.83 162.35 L 114.61 161.72 C 115.28 161.17 115.39 160.19 114.84 159.52 C 114.30 158.85 113.32 158.75 112.65 159.29 L 111.87 159.93 C 111.20 160.47 111.09 161.46 111.64 162.12 C 112.18 162.79 113.16 162.90 113.83 162.35 Z M 114.61 161.72 L 115.39 161.09 C 116.06 160.54 116.16 159.56 115.62 158.89 C 115.08 158.22 114.09 158.12 113.42 158.66 L 112.65 159.29 C 111.98 159.84 111.88 160.82 112.42 161.49 C 112.96 162.16 113.94 162.26 114.61 161.72 Z M 115.39 161.09 L 116.16 160.46 C 116.83 159.92 116.94 158.94 116.39 158.27 C 115.85 157.60 114.87 157.49 114.20 158.04 L 113.43 158.66 C 112.76 159.21 112.65 160.19 113.20 160.86 C 113.74 161.53 114.72 161.63 115.39 161.09 Z M 116.16 160.46 L 116.94 159.84 C 117.61 159.29 117.71 158.31 117.17 157.64 C 116.62 156.97 115.64 156.87 114.97 157.41 L 114.20 158.04 C 113.53 158.58 113.43 159.56 113.97 160.23 C 114.51 160.90 115.49 161.00 116.16 160.46 Z M 116.94 159.84 L 117.71 159.21 C 118.38 158.67 118.48 157.69 117.94 157.02 C 117.40 156.35 116.41 156.24 115.74 156.79 L 114.97 157.41 C 114.30 157.95 114.20 158.94 114.74 159.61 C 115.28 160.28 116.27 160.38 116.94 159.84 Z M 117.71 159.21 L 117.79 159.15 C 118.46 158.60 118.56 157.62 118.02 156.95 C 117.48 156.28 116.50 156.18 115.83 156.72 L 115.74 156.79 C 115.07 157.33 114.97 158.31 115.51 158.98 C 116.05 159.65 117.04 159.75 117.71 159.21 Z"
      fill="black"
      fill-rule="nonzero" /><path d="M 131.53 127.06 L 131.90 127.94 C 132.26 128.82 133.27 129.24 134.15 128.88 C 135.02 128.51 135.44 127.51 135.08 126.63 L 134.71 125.75 C 134.35 124.87 133.34 124.45 132.47 124.81 C 131.59 125.18 131.17 126.18 131.53 127.06 Z M 131.89 127.99 L 132.28 128.87 C 132.66 129.75 133.69 130.15 134.58 129.76 C 135.46 129.37 135.86 128.34 135.47 127.46 L 135.09 126.58 C 134.70 125.70 133.67 125.30 132.79 125.69 C 131.90 126.07 131.50 127.10 131.89 127.99 Z M 132.29 128.95 L 132.72 129.82 C 133.15 130.70 134.21 131.06 135.09 130.63 C 135.96 130.20 136.32 129.14 135.89 128.26 L 135.46 127.38 C 135.03 126.51 133.97 126.15 133.09 126.58 C 132.22 127.01 131.86 128.07 132.29 128.95 Z M 132.75 129.93 L 133.25 130.80 C 133.74 131.66 134.84 131.96 135.70 131.47 C 136.55 130.98 136.85 129.88 136.36 129.02 L 135.86 128.15 C 135.37 127.29 134.28 126.99 133.42 127.49 C 132.56 127.98 132.26 129.07 132.75 129.93 Z M 133.30 130.93 L 133.89 131.80 C 134.46 132.63 135.58 132.85 136.41 132.28 C 137.24 131.72 137.46 130.59 136.90 129.76 L 136.31 128.89 C 135.74 128.06 134.62 127.85 133.79 128.41 C 132.96 128.98 132.74 130.10 133.30 130.93 Z M 133.97 131.93 L 134.59 132.70 C 135.22 133.48 136.37 133.61 137.16 132.97 C 137.95 132.34 138.07 131.19 137.44 130.40 L 136.82 129.64 C 136.19 128.85 135.03 128.72 134.25 129.36 C 133.46 129.99 133.34 131.14 133.97 131.93 Z M 134.67 132.78 L 135.29 133.45 C 135.97 134.19 137.12 134.24 137.86 133.55 C 138.60 132.87 138.65 131.72 137.96 130.98 L 137.35 130.32 C 136.67 129.58 135.52 129.53 134.78 130.21 C 134.04 130.89 133.99 132.04 134.67 132.78 Z M 135.36 133.49 L 136.03 134.16 C 136.74 134.86 137.88 134.86 138.58 134.15 C 139.28 133.45 139.27 132.30 138.57 131.60 L 137.89 130.94 C 137.19 130.24 136.05 130.24 135.35 130.95 C 134.65 131.65 134.65 132.79 135.36 133.49 Z M 136.09 134.19 L 136.81 134.86 C 137.53 135.53 138.66 135.49 139.33 134.77 C 140.00 134.05 139.96 132.92 139.24 132.25 L 138.51 131.58 C 137.79 130.91 136.66 130.95 135.99 131.67 C 135.32 132.39 135.37 133.52 136.09 134.19 Z M 136.85 134.87 L 137.61 135.55 C 138.34 136.20 139.45 136.14 140.10 135.41 C 140.75 134.69 140.69 133.57 139.96 132.92 L 139.20 132.24 C 138.47 131.59 137.36 131.66 136.71 132.38 C 136.06 133.11 136.12 134.22 136.85 134.87 Z M 137.64 135.55 L 138.43 136.24 C 139.16 136.88 140.26 136.80 140.89 136.08 C 141.53 135.35 141.45 134.25 140.73 133.62 L 139.93 132.93 C 139.21 132.29 138.11 132.37 137.47 133.09 C 136.84 133.82 136.91 134.92 137.64 135.55 Z M 138.45 136.23 L 139.26 136.94 C 139.98 137.57 141.07 137.49 141.69 136.78 C 142.32 136.06 142.25 134.97 141.53 134.34 L 140.71 133.63 C 140.00 133.01 138.91 133.08 138.28 133.80 C 137.65 134.52 137.73 135.61 138.45 136.23 Z M 139.26 136.92 L 140.05 137.62 C 140.76 138.24 141.84 138.18 142.46 137.47 C 143.09 136.77 143.02 135.69 142.31 135.06 L 141.52 134.36 C 140.82 133.74 139.74 133.80 139.12 134.51 C 138.49 135.22 138.56 136.30 139.26 136.92 Z M 140.05 137.60 L 140.79 138.27 C 141.49 138.89 142.56 138.84 143.18 138.15 C 143.81 137.45 143.76 136.38 143.06 135.76 L 142.32 135.09 C 141.63 134.46 140.56 134.51 139.93 135.21 C 139.30 135.90 139.36 136.97 140.05 137.60 Z M 140.79 138.25 L 141.53 138.93 C 142.21 139.56 143.28 139.52 143.90 138.84 C 144.53 138.15 144.49 137.09 143.81 136.46 L 143.07 135.78 C 142.38 135.15 141.32 135.19 140.69 135.87 C 140.06 136.56 140.11 137.62 140.79 138.25 Z M 141.53 138.91 L 142.27 139.61 C 142.94 140.24 143.99 140.20 144.62 139.53 C 145.25 138.86 145.22 137.81 144.55 137.18 L 143.81 136.48 C 143.14 135.85 142.09 135.89 141.46 136.56 C 140.82 137.23 140.86 138.28 141.53 138.91 Z M 142.26 139.59 L 143.00 140.29 C 143.66 140.92 144.70 140.90 145.34 140.23 C 145.97 139.57 145.94 138.53 145.28 137.90 L 144.55 137.20 C 143.89 136.56 142.84 136.59 142.21 137.25 C 141.58 137.91 141.60 138.96 142.26 139.59 Z M 142.99 140.27 L 143.72 140.97 C 144.37 141.60 145.41 141.59 146.04 140.94 C 146.67 140.29 146.66 139.25 146.01 138.62 L 145.28 137.91 C 144.63 137.28 143.60 137.30 142.96 137.95 C 142.33 138.60 142.35 139.64 142.99 140.27 Z M 143.72 140.95 L 144.42 141.65 C 145.06 142.28 146.09 142.28 146.73 141.64 C 147.36 141.00 147.35 139.97 146.71 139.33 L 146.01 138.63 C 145.37 138.00 144.34 138.01 143.70 138.65 C 143.07 139.29 143.08 140.32 143.72 140.95 Z M 144.42 141.63 L 145.11 142.33 C 145.74 142.96 146.77 142.96 147.40 142.33 C 148.03 141.70 148.03 140.68 147.40 140.05 L 146.71 139.35 C 146.08 138.72 145.06 138.72 144.43 139.35 C 143.80 139.98 143.79 141.00 144.42 141.63 Z M 145.11 142.31 L 145.82 143.03 C 146.44 143.67 147.46 143.68 148.09 143.06 C 148.73 142.44 148.74 141.42 148.12 140.79 L 147.41 140.06 C 146.79 139.43 145.77 139.42 145.14 140.04 C 144.50 140.66 144.49 141.68 145.11 142.31 Z M 145.82 143.02 L 146.54 143.77 C 147.15 144.40 148.16 144.42 148.80 143.81 C 149.43 143.20 149.45 142.19 148.84 141.55 L 148.12 140.80 C 147.51 140.17 146.50 140.15 145.86 140.76 C 145.22 141.37 145.21 142.38 145.82 143.02 Z M 146.53 143.76 L 147.23 144.49 C 147.84 145.13 148.85 145.16 149.48 144.55 C 150.12 143.95 150.15 142.94 149.54 142.30 L 148.84 141.57 C 148.24 140.93 147.23 140.90 146.59 141.51 C 145.96 142.11 145.93 143.12 146.53 143.76 Z M 147.23 144.48 L 147.91 145.21 C 148.51 145.85 149.52 145.89 150.16 145.29 C 150.80 144.69 150.83 143.68 150.23 143.04 L 149.55 142.31 C 148.95 141.68 147.94 141.64 147.31 142.24 C 146.67 142.84 146.63 143.84 147.23 144.48 Z M 147.91 145.20 L 148.58 145.93 C 149.18 146.57 150.18 146.60 150.82 146.01 C 151.46 145.42 151.49 144.42 150.90 143.78 L 150.23 143.05 C 149.64 142.41 148.64 142.38 148.00 142.97 C 147.36 143.56 147.32 144.56 147.91 145.20 Z M 148.58 145.92 L 149.24 146.64 C 149.83 147.28 150.83 147.32 151.47 146.73 C 152.11 146.14 152.15 145.14 151.56 144.50 L 150.90 143.79 C 150.31 143.15 149.32 143.10 148.68 143.69 C 148.04 144.28 147.99 145.28 148.58 145.92 Z M 149.24 146.63 L 149.90 147.34 C 150.48 147.98 151.48 148.03 152.12 147.44 C 152.75 146.86 152.80 145.87 152.21 145.23 L 151.56 144.51 C 150.97 143.87 149.98 143.83 149.34 144.41 C 148.70 145.00 148.66 145.99 149.24 146.63 Z M 149.90 147.34 L 150.27 147.74 C 150.85 148.38 151.84 148.42 152.48 147.84 C 153.12 147.26 153.16 146.27 152.58 145.63 L 152.21 145.23 C 151.63 144.59 150.64 144.55 150.00 145.13 C 149.36 145.71 149.32 146.70 149.90 147.34 Z"
      fill="black"
      fill-rule="nonzero" /><path d="M 178.33 102.81 L 178.33 103.87 C 178.33 104.84 179.12 105.62 180.09 105.62 C 181.05 105.63 181.84 104.84 181.84 103.87 L 181.84 102.81 C 181.84 101.84 181.05 101.06 180.09 101.06 C 179.12 101.06 178.33 101.84 178.33 102.81 Z M 178.32 103.87 L 178.32 104.93 C 178.32 105.90 179.11 106.70 180.08 106.70 C 181.06 106.70 181.85 105.91 181.85 104.93 L 181.85 103.88 C 181.85 102.90 181.06 102.11 180.09 102.11 C 179.11 102.10 178.32 102.89 178.32 103.87 Z M 178.30 104.92 L 178.30 105.97 C 178.30 106.96 179.09 107.76 180.07 107.76 C 181.06 107.76 181.86 106.97 181.86 105.99 L 181.87 104.94 C 181.87 103.95 181.08 103.15 180.09 103.15 C 179.11 103.14 178.31 103.94 178.30 104.92 Z M 178.29 105.96 L 178.28 107.00 C 178.27 107.99 179.07 108.80 180.06 108.81 C 181.05 108.82 181.86 108.02 181.87 107.03 L 181.88 105.99 C 181.88 105.00 181.09 104.19 180.10 104.18 C 179.10 104.18 178.29 104.97 178.29 105.96 Z M 178.26 106.99 L 178.25 108.01 C 178.24 109.01 179.03 109.83 180.03 109.84 C 181.03 109.86 181.85 109.06 181.87 108.06 L 181.88 107.04 C 181.90 106.04 181.10 105.22 180.10 105.20 C 179.10 105.19 178.28 105.99 178.26 106.99 Z M 178.23 108.00 L 178.21 108.99 C 178.19 110.00 178.99 110.83 180.00 110.85 C 181.01 110.87 181.84 110.07 181.86 109.07 L 181.88 108.07 C 181.90 107.06 181.10 106.23 180.10 106.21 C 179.09 106.19 178.26 106.99 178.23 108.00 Z M 178.20 108.98 L 178.17 109.95 C 178.14 110.96 178.94 111.81 179.96 111.84 C 180.97 111.87 181.82 111.07 181.85 110.06 L 181.88 109.08 C 181.91 108.07 181.11 107.22 180.09 107.19 C 179.08 107.16 178.23 107.96 178.20 108.98 Z M 178.16 109.93 L 178.12 110.87 C 178.08 111.89 178.87 112.75 179.90 112.79 C 180.92 112.83 181.78 112.04 181.82 111.02 L 181.86 110.08 C 181.90 109.05 181.11 108.19 180.08 108.15 C 179.06 108.11 178.20 108.90 178.16 109.93 Z M 178.11 110.84 L 178.06 111.75 C 178.00 112.78 178.79 113.66 179.82 113.71 C 180.85 113.77 181.73 112.98 181.79 111.95 L 181.84 111.04 C 181.89 110.01 181.10 109.13 180.07 109.08 C 179.04 109.02 178.16 109.81 178.11 110.84 Z M 178.05 111.71 L 177.98 112.72 C 177.90 113.75 178.68 114.65 179.72 114.73 C 180.75 114.80 181.65 114.02 181.72 112.99 L 181.79 111.98 C 181.87 110.95 181.09 110.05 180.06 109.97 C 179.02 109.90 178.12 110.68 178.05 111.71 Z M 177.98 112.68 L 177.88 113.70 C 177.78 114.74 178.54 115.65 179.58 115.75 C 180.61 115.85 181.53 115.09 181.62 114.06 L 181.72 113.03 C 181.82 112.00 181.06 111.08 180.03 110.98 C 178.99 110.88 178.08 111.64 177.98 112.68 Z M 177.89 113.66 L 177.77 114.65 C 177.65 115.68 178.38 116.61 179.41 116.74 C 180.44 116.86 181.38 116.12 181.50 115.09 L 181.62 114.10 C 181.74 113.07 181.01 112.14 179.98 112.01 C 178.94 111.89 178.01 112.63 177.89 113.66 Z M 177.77 114.60 L 177.64 115.56 C 177.49 116.59 178.20 117.54 179.23 117.69 C 180.26 117.84 181.21 117.13 181.36 116.10 L 181.50 115.14 C 181.64 114.11 180.93 113.16 179.90 113.01 C 178.88 112.86 177.92 113.57 177.77 114.60 Z M 177.64 115.52 L 177.48 116.47 C 177.31 117.50 178.00 118.47 179.02 118.64 C 180.05 118.81 181.02 118.12 181.19 117.10 L 181.35 116.14 C 181.52 115.12 180.83 114.15 179.81 113.98 C 178.78 113.80 177.81 114.49 177.64 115.52 Z M 177.49 116.43 L 177.31 117.38 C 177.11 118.41 177.78 119.39 178.80 119.59 C 179.82 119.78 180.81 119.11 181.00 118.09 L 181.18 117.14 C 181.38 116.12 180.71 115.13 179.69 114.94 C 178.67 114.74 177.68 115.41 177.49 116.43 Z M 177.31 117.35 L 177.11 118.32 C 176.89 119.34 177.54 120.34 178.56 120.55 C 179.58 120.77 180.58 120.12 180.79 119.10 L 181.00 118.13 C 181.21 117.11 180.56 116.11 179.54 115.90 C 178.53 115.68 177.53 116.33 177.31 117.35 Z M 177.11 118.29 L 176.89 119.28 C 176.66 120.29 177.29 121.30 178.31 121.53 C 179.32 121.76 180.33 121.13 180.56 120.11 L 180.78 119.13 C 181.01 118.11 180.38 117.11 179.37 116.88 C 178.35 116.65 177.34 117.28 177.11 118.29 Z M 176.90 119.26 L 176.67 120.21 C 176.43 121.22 177.05 122.23 178.06 122.48 C 179.07 122.72 180.09 122.09 180.33 121.08 L 180.55 120.14 C 180.80 119.13 180.17 118.11 179.16 117.87 C 178.15 117.63 177.14 118.25 176.90 119.26 Z M 176.67 120.19 L 176.43 121.16 C 176.18 122.17 176.79 123.19 177.80 123.44 C 178.81 123.69 179.83 123.08 180.08 122.07 L 180.32 121.10 C 180.57 120.09 179.96 119.07 178.95 118.82 C 177.95 118.57 176.92 119.18 176.67 120.19 Z M 176.44 121.15 L 176.18 122.14 C 175.92 123.14 176.53 124.17 177.53 124.43 C 178.54 124.69 179.56 124.08 179.82 123.08 L 180.07 122.09 C 180.33 121.08 179.73 120.06 178.72 119.80 C 177.72 119.54 176.69 120.15 176.44 121.15 Z M 176.19 122.13 L 175.92 123.12 C 175.66 124.12 176.26 125.15 177.26 125.42 C 178.26 125.68 179.29 125.08 179.55 124.08 L 179.82 123.09 C 180.08 122.08 179.48 121.06 178.48 120.79 C 177.48 120.53 176.45 121.13 176.19 122.13 Z M 175.93 123.11 L 175.66 124.10 C 175.39 125.10 175.98 126.13 176.98 126.40 C 177.98 126.67 179.01 126.08 179.28 125.08 L 179.55 124.09 C 179.82 123.09 179.23 122.06 178.23 121.79 C 177.23 121.52 176.20 122.11 175.93 123.11 Z M 175.66 124.09 L 175.39 125.07 C 175.12 126.07 175.71 127.10 176.71 127.38 C 177.70 127.65 178.74 127.06 179.01 126.06 L 179.28 125.09 C 179.55 124.09 178.97 123.06 177.97 122.78 C 176.97 122.51 175.94 123.10 175.66 124.09 Z M 175.40 125.06 L 175.13 126.02 C 174.85 127.01 175.44 128.05 176.43 128.33 C 177.43 128.60 178.46 128.02 178.74 127.02 L 179.01 126.07 C 179.28 125.07 178.70 124.04 177.71 123.76 C 176.71 123.49 175.68 124.07 175.40 125.06 Z M 175.13 126.01 L 174.88 126.93 C 174.59 127.93 175.17 128.96 176.17 129.24 C 177.16 129.52 178.20 128.94 178.48 127.95 L 178.74 127.03 C 179.02 126.03 178.44 125.00 177.45 124.72 C 176.45 124.44 175.42 125.02 175.13 126.01 Z M 174.88 126.93 L 174.57 128.01 C 174.29 129.00 174.86 130.03 175.86 130.32 C 176.85 130.60 177.88 130.02 178.17 129.03 L 178.47 127.95 C 178.76 126.96 178.18 125.93 177.19 125.64 C 176.20 125.36 175.16 125.94 174.88 126.93 Z M 174.58 128.00 L 174.28 129.03 C 174.00 130.02 174.57 131.05 175.56 131.34 C 176.54 131.62 177.58 131.05 177.86 130.06 L 178.16 129.04 C 178.45 128.05 177.88 127.01 176.89 126.73 C 175.90 126.44 174.86 127.01 174.58 128.00 Z M 174.29 129.02 L 174.00 130.00 C 173.71 130.98 174.27 132.02 175.26 132.31 C 176.25 132.60 177.28 132.03 177.57 131.05 L 177.86 130.07 C 178.15 129.08 177.58 128.05 176.60 127.76 C 175.61 127.47 174.58 128.03 174.29 129.02 Z M 174.01 129.99 L 173.73 130.92 C 173.43 131.91 173.99 132.94 174.97 133.24 C 175.95 133.53 176.99 132.97 177.28 131.99 L 177.56 131.06 C 177.86 130.07 177.30 129.04 176.32 128.74 C 175.34 128.45 174.30 129.01 174.01 129.99 Z M 173.73 130.91 L 173.46 131.82 C 173.15 132.80 173.70 133.83 174.68 134.13 C 175.66 134.43 176.69 133.89 176.99 132.91 L 177.27 132.00 C 177.57 131.03 177.03 129.99 176.05 129.69 C 175.07 129.39 174.04 129.94 173.73 130.91 Z M 173.46 131.81 L 173.19 132.69 C 172.88 133.66 173.42 134.70 174.39 135.01 C 175.36 135.31 176.40 134.77 176.71 133.80 L 176.99 132.92 C 177.29 131.95 176.75 130.91 175.78 130.60 C 174.81 130.30 173.77 130.83 173.46 131.81 Z M 173.19 132.67 L 172.90 133.57 C 172.59 134.54 173.12 135.58 174.08 135.89 C 175.05 136.21 176.09 135.68 176.41 134.71 L 176.70 133.82 C 177.01 132.85 176.48 131.81 175.52 131.49 C 174.55 131.18 173.51 131.71 173.19 132.67 Z M 172.91 133.56 L 172.59 134.50 C 172.27 135.47 172.79 136.51 173.75 136.83 C 174.72 137.15 175.76 136.64 176.08 135.67 L 176.40 134.73 C 176.72 133.76 176.20 132.72 175.24 132.40 C 174.28 132.08 173.23 132.59 172.91 133.56 Z M 172.60 134.49 L 172.28 135.43 C 171.95 136.39 172.46 137.43 173.42 137.76 C 174.37 138.09 175.42 137.58 175.75 136.63 L 176.07 135.69 C 176.40 134.73 175.89 133.68 174.93 133.35 C 173.98 133.02 172.93 133.53 172.60 134.49 Z M 172.29 135.42 L 171.96 136.36 C 171.62 137.31 172.12 138.36 173.08 138.69 C 174.03 139.03 175.08 138.53 175.41 137.57 L 175.74 136.64 C 176.08 135.68 175.58 134.64 174.62 134.30 C 173.67 133.97 172.62 134.47 172.29 135.42 Z M 171.96 136.35 L 171.63 137.29 C 171.29 138.24 171.78 139.29 172.73 139.63 C 173.68 139.97 174.73 139.47 175.07 138.52 L 175.40 137.58 C 175.74 136.63 175.25 135.59 174.30 135.25 C 173.35 134.91 172.30 135.40 171.96 136.35 Z M 171.63 137.28 L 171.29 138.23 C 170.95 139.18 171.44 140.22 172.38 140.56 C 173.33 140.91 174.38 140.42 174.72 139.47 L 175.06 138.53 C 175.41 137.58 174.92 136.53 173.97 136.19 C 173.02 135.85 171.98 136.34 171.63 137.28 Z M 171.30 138.23 L 170.95 139.17 C 170.61 140.11 171.09 141.16 172.04 141.50 C 172.98 141.84 174.03 141.36 174.37 140.41 L 174.71 139.47 C 175.06 138.53 174.57 137.49 173.63 137.14 C 172.69 136.80 171.64 137.28 171.30 138.23 Z M 170.96 139.17 L 170.62 140.09 C 170.27 141.03 170.76 142.07 171.70 142.42 C 172.64 142.76 173.68 142.28 174.03 141.34 L 174.37 140.42 C 174.71 139.47 174.23 138.43 173.29 138.09 C 172.35 137.74 171.30 138.22 170.96 139.17 Z M 170.62 140.09 L 170.28 141.02 C 169.93 141.96 170.42 143.00 171.35 143.35 C 172.29 143.69 173.34 143.21 173.68 142.27 L 174.02 141.34 C 174.37 140.40 173.89 139.36 172.95 139.01 C 172.01 138.67 170.97 139.15 170.62 140.09 Z M 170.28 141.02 L 169.94 141.96 C 169.59 142.90 170.07 143.94 171.01 144.28 C 171.95 144.63 172.98 144.15 173.33 143.21 L 173.68 142.27 C 174.02 141.34 173.54 140.30 172.61 139.95 C 171.67 139.60 170.63 140.08 170.28 141.02 Z M 169.94 141.96 L 169.59 142.90 C 169.25 143.84 169.72 144.88 170.66 145.22 C 171.59 145.57 172.63 145.09 172.98 144.16 L 173.33 143.21 C 173.67 142.28 173.19 141.24 172.26 140.89 C 171.32 140.55 170.29 141.03 169.94 141.96 Z M 169.60 142.91 L 169.25 143.85 C 168.90 144.79 169.38 145.82 170.31 146.17 C 171.24 146.51 172.28 146.04 172.62 145.10 L 172.97 144.16 C 173.32 143.22 172.84 142.19 171.91 141.84 C 170.98 141.50 169.94 141.97 169.60 142.91 Z M 169.25 143.85 L 168.90 144.80 C 168.55 145.73 169.03 146.77 169.96 147.11 C 170.89 147.46 171.92 146.98 172.27 146.05 L 172.62 145.10 C 172.96 144.17 172.49 143.14 171.56 142.79 C 170.63 142.45 169.59 142.92 169.25 143.85 Z M 168.90 144.80 L 168.56 145.74 C 168.21 146.67 168.69 147.70 169.61 148.04 C 170.54 148.38 171.57 147.91 171.92 146.98 L 172.26 146.05 C 172.61 145.12 172.13 144.09 171.21 143.75 C 170.28 143.40 169.25 143.88 168.90 144.80 Z M 168.56 145.74 L 168.21 146.67 C 167.87 147.60 168.34 148.62 169.26 148.97 C 170.19 149.31 171.22 148.84 171.56 147.92 L 171.91 146.98 C 172.26 146.06 171.79 145.03 170.86 144.69 C 169.94 144.34 168.91 144.81 168.56 145.74 Z M 168.22 146.67 L 167.87 147.60 C 167.52 148.52 167.99 149.55 168.91 149.90 C 169.83 150.24 170.86 149.78 171.21 148.86 L 171.56 147.92 C 171.90 147.00 171.44 145.97 170.52 145.63 C 169.60 145.28 168.57 145.75 168.22 146.67 Z M 167.88 147.59 L 167.52 148.53 C 167.17 149.45 167.63 150.47 168.55 150.82 C 169.46 151.17 170.49 150.71 170.84 149.80 L 171.20 148.86 C 171.55 147.95 171.09 146.92 170.17 146.57 C 169.25 146.22 168.23 146.68 167.88 147.59 Z M 167.53 148.52 L 167.16 149.45 C 166.81 150.37 167.26 151.39 168.17 151.75 C 169.09 152.10 170.11 151.65 170.47 150.74 L 170.83 149.81 C 171.19 148.89 170.74 147.87 169.82 147.51 C 168.91 147.15 167.88 147.61 167.53 148.52 Z M 167.17 149.44 L 166.80 150.38 C 166.44 151.28 166.88 152.31 167.79 152.67 C 168.70 153.03 169.73 152.59 170.09 151.69 L 170.46 150.75 C 170.82 149.84 170.38 148.82 169.47 148.45 C 168.56 148.09 167.54 148.53 167.17 149.44 Z M 166.81 150.36 L 166.43 151.29 C 166.06 152.19 166.49 153.22 167.40 153.59 C 168.30 153.96 169.33 153.53 169.70 152.63 L 170.08 151.70 C 170.45 150.80 170.01 149.77 169.11 149.40 C 168.21 149.03 167.18 149.46 166.81 150.36 Z M 166.44 151.28 L 166.05 152.20 C 165.68 153.10 166.10 154.13 167.00 154.50 C 167.89 154.88 168.92 154.46 169.30 153.56 L 169.69 152.64 C 170.06 151.74 169.64 150.71 168.74 150.34 C 167.85 149.96 166.82 150.38 166.44 151.28 Z M 166.06 152.19 L 165.67 153.12 C 165.29 154.01 165.70 155.04 166.59 155.42 C 167.48 155.80 168.52 155.38 168.90 154.49 L 169.29 153.57 C 169.67 152.68 169.26 151.65 168.37 151.27 C 167.47 150.89 166.44 151.30 166.06 152.19 Z M 165.68 153.11 L 165.28 154.03 C 164.90 154.92 165.30 155.95 166.19 156.33 C 167.08 156.71 168.11 156.31 168.49 155.42 L 168.89 154.50 C 169.27 153.61 168.86 152.58 167.98 152.20 C 167.09 151.82 166.06 152.22 165.68 153.11 Z M 165.29 154.03 L 164.89 154.95 C 164.50 155.83 164.91 156.86 165.79 157.24 C 166.67 157.63 167.70 157.22 168.08 156.34 L 168.48 155.42 C 168.87 154.54 168.46 153.51 167.58 153.13 C 166.70 152.74 165.67 153.15 165.29 154.03 Z M 164.89 154.95 L 164.49 155.86 C 164.11 156.74 164.51 157.77 165.39 158.15 C 166.27 158.54 167.30 158.13 167.68 157.25 L 168.08 156.34 C 168.46 155.46 168.06 154.43 167.18 154.05 C 166.30 153.66 165.27 154.07 164.89 154.95 Z M 164.50 155.87 L 164.10 156.78 C 163.72 157.66 164.12 158.68 165.00 159.06 C 165.88 159.44 166.90 159.04 167.28 158.16 L 167.68 157.25 C 168.06 156.37 167.66 155.35 166.78 154.97 C 165.90 154.58 164.88 154.99 164.50 155.87 Z M 164.10 156.78 L 163.71 157.70 C 163.33 158.58 163.73 159.59 164.61 159.97 C 165.49 160.35 166.50 159.95 166.88 159.07 L 167.28 158.15 C 167.66 157.28 167.25 156.26 166.38 155.88 C 165.50 155.50 164.48 155.91 164.10 156.78 Z M 163.71 157.70 L 163.32 158.62 C 162.94 159.49 163.35 160.51 164.22 160.88 C 165.10 161.26 166.11 160.85 166.49 159.98 L 166.88 159.06 C 167.26 158.19 166.85 157.18 165.97 156.80 C 165.10 156.42 164.09 156.83 163.71 157.70 Z M 163.32 158.62 L 162.93 159.54 C 162.56 160.41 162.96 161.42 163.84 161.79 C 164.71 162.17 165.72 161.76 166.09 160.89 L 166.48 159.97 C 166.86 159.10 166.45 158.09 165.58 157.72 C 164.70 157.34 163.69 157.75 163.32 158.62 Z M 162.94 159.54 L 162.54 160.46 C 162.17 161.33 162.58 162.34 163.45 162.71 C 164.32 163.08 165.33 162.67 165.70 161.80 L 166.09 160.88 C 166.46 160.01 166.05 159.01 165.18 158.64 C 164.31 158.26 163.31 158.67 162.94 159.54 Z M 162.55 160.46 L 162.16 161.38 C 161.79 162.25 162.19 163.26 163.06 163.63 C 163.93 163.99 164.93 163.59 165.30 162.72 L 165.69 161.80 C 166.06 160.93 165.66 159.93 164.79 159.56 C 163.92 159.19 162.92 159.59 162.55 160.46 Z M 162.16 161.39 L 161.77 162.32 C 161.40 163.18 161.80 164.18 162.67 164.55 C 163.53 164.92 164.53 164.52 164.90 163.65 L 165.30 162.72 C 165.67 161.85 165.26 160.85 164.40 160.49 C 163.53 160.12 162.53 160.52 162.16 161.39 Z M 161.77 162.32 L 161.37 163.26 C 161.00 164.12 161.40 165.12 162.27 165.48 C 163.13 165.85 164.13 165.45 164.50 164.59 L 164.90 163.65 C 165.26 162.79 164.86 161.79 164.00 161.42 C 163.14 161.05 162.14 161.45 161.77 162.32 Z M 161.38 163.26 L 160.97 164.20 C 160.61 165.06 161.00 166.05 161.86 166.42 C 162.72 166.79 163.72 166.39 164.09 165.53 L 164.49 164.59 C 164.86 163.73 164.46 162.73 163.60 162.37 C 162.74 162.00 161.74 162.40 161.38 163.26 Z M 160.98 164.20 L 160.58 165.14 C 160.21 165.99 160.60 166.98 161.46 167.35 C 162.32 167.72 163.31 167.33 163.68 166.47 L 164.08 165.53 C 164.45 164.67 164.05 163.68 163.20 163.31 C 162.34 162.94 161.35 163.34 160.98 164.20 Z M 160.58 165.13 L 160.18 166.06 C 159.81 166.91 160.20 167.90 161.06 168.27 C 161.91 168.64 162.90 168.25 163.27 167.40 L 163.67 166.47 C 164.04 165.62 163.65 164.63 162.80 164.26 C 161.94 163.89 160.95 164.28 160.58 165.13 Z M 160.19 166.06 L 159.79 166.96 C 159.42 167.81 159.81 168.80 160.66 169.17 C 161.50 169.55 162.49 169.16 162.86 168.31 L 163.26 167.40 C 163.63 166.55 163.25 165.56 162.40 165.19 C 161.55 164.82 160.56 165.21 160.19 166.06 Z M 159.80 166.96 L 159.41 167.84 C 159.03 168.69 159.42 169.67 160.26 170.05 C 161.10 170.42 162.09 170.04 162.47 169.19 L 162.86 168.31 C 163.23 167.47 162.85 166.48 162.00 166.11 C 161.16 165.73 160.17 166.12 159.80 166.96 Z M 159.42 167.83 L 159.02 168.71 C 158.64 169.55 159.02 170.54 159.86 170.92 C 160.70 171.30 161.69 170.92 162.06 170.08 L 162.46 169.20 C 162.84 168.36 162.46 167.37 161.62 167.00 C 160.78 166.62 159.79 166.99 159.42 167.83 Z M 159.03 168.71 L 158.63 169.58 C 158.25 170.42 158.62 171.40 159.45 171.79 C 160.28 172.17 161.27 171.80 161.65 170.97 L 162.05 170.09 C 162.43 169.25 162.07 168.27 161.23 167.89 C 160.40 167.51 159.41 167.87 159.03 168.71 Z M 158.64 169.58 L 158.24 170.44 C 157.85 171.27 158.21 172.25 159.04 172.64 C 159.87 173.03 160.85 172.67 161.24 171.84 L 161.64 170.97 C 162.03 170.14 161.67 169.16 160.84 168.77 C 160.01 168.39 159.03 168.75 158.64 169.58 Z M 158.25 170.43 L 157.83 171.31 C 157.44 172.13 157.79 173.12 158.62 173.51 C 159.44 173.90 160.42 173.55 160.81 172.72 L 161.23 171.85 C 161.62 171.02 161.27 170.04 160.44 169.65 C 159.62 169.26 158.64 169.61 158.25 170.43 Z M 157.84 171.30 L 157.41 172.21 C 157.01 173.03 157.36 174.01 158.17 174.40 C 158.99 174.80 159.98 174.45 160.37 173.63 L 160.80 172.73 C 161.20 171.91 160.85 170.93 160.04 170.53 C 159.22 170.14 158.24 170.48 157.84 171.30 Z M 157.41 172.20 L 156.95 173.16 C 156.55 173.98 156.89 174.96 157.70 175.35 C 158.52 175.75 159.50 175.41 159.89 174.60 L 160.36 173.64 C 160.76 172.83 160.42 171.84 159.60 171.45 C 158.79 171.05 157.81 171.39 157.41 172.20 Z M 156.96 173.16 L 156.52 174.05 C 156.12 174.86 156.45 175.84 157.26 176.24 C 158.07 176.63 159.05 176.30 159.45 175.49 L 159.89 174.60 C 160.28 173.79 159.95 172.81 159.14 172.41 C 158.33 172.02 157.35 172.35 156.96 173.16 Z M 156.53 174.04 L 156.10 174.89 C 155.70 175.69 156.03 176.67 156.83 177.07 C 157.64 177.48 158.62 177.15 159.02 176.34 L 159.44 175.50 C 159.84 174.69 159.51 173.71 158.71 173.31 C 157.90 172.91 156.93 173.24 156.53 174.04 Z M 156.12 174.88 L 155.67 175.75 C 155.26 176.55 155.57 177.53 156.37 177.94 C 157.17 178.35 158.15 178.03 158.56 177.23 L 159.01 176.36 C 159.42 175.56 159.10 174.58 158.30 174.17 C 157.50 173.76 156.52 174.08 156.12 174.88 Z M 155.68 175.73 L 155.21 176.62 C 154.79 177.41 155.08 178.39 155.87 178.82 C 156.66 179.24 157.65 178.94 158.07 178.15 L 158.54 177.25 C 158.96 176.46 158.66 175.48 157.87 175.06 C 157.08 174.64 156.10 174.94 155.68 175.73 Z M 155.23 176.59 L 154.72 177.49 C 154.29 178.27 154.57 179.26 155.34 179.69 C 156.12 180.13 157.11 179.85 157.55 179.07 L 158.05 178.17 C 158.48 177.40 158.21 176.41 157.43 175.97 C 156.65 175.54 155.66 175.82 155.23 176.59 Z M 154.75 177.46 L 154.22 178.35 C 153.76 179.11 154.01 180.10 154.78 180.56 C 155.55 181.01 156.54 180.76 156.99 180.00 L 157.52 179.11 C 157.98 178.34 157.72 177.35 156.96 176.90 C 156.19 176.44 155.20 176.69 154.75 177.46 Z M 154.25 178.30 L 153.69 179.17 C 153.21 179.92 153.43 180.91 154.18 181.39 C 154.93 181.87 155.92 181.66 156.40 180.91 L 156.96 180.04 C 157.44 179.29 157.22 178.30 156.47 177.82 C 155.72 177.34 154.73 177.55 154.25 178.30 Z M 153.73 179.12 L 153.15 179.95 C 152.64 180.68 152.82 181.68 153.55 182.19 C 154.27 182.70 155.27 182.52 155.78 181.79 L 156.36 180.96 C 156.87 180.23 156.69 179.23 155.97 178.72 C 155.24 178.22 154.24 178.39 153.73 179.12 Z M 153.20 179.90 L 152.57 180.72 C 152.03 181.42 152.16 182.42 152.86 182.96 C 153.56 183.50 154.56 183.37 155.10 182.67 L 155.73 181.85 C 156.27 181.15 156.14 180.15 155.44 179.61 C 154.74 179.07 153.74 179.20 153.20 179.90 Z M 152.62 180.66 L 151.96 181.44 C 151.39 182.11 151.47 183.12 152.15 183.69 C 152.82 184.26 153.83 184.17 154.40 183.50 L 155.05 182.72 C 155.62 182.05 155.54 181.04 154.86 180.47 C 154.19 179.91 153.18 179.99 152.62 180.66 Z M 152.00 181.40 L 151.33 182.14 C 150.73 182.79 150.78 183.79 151.43 184.38 C 152.08 184.98 153.08 184.93 153.67 184.28 L 154.35 183.54 C 154.94 182.89 154.90 181.89 154.25 181.30 C 153.60 180.70 152.60 180.75 152.00 181.40 Z M 151.36 182.10 L 150.67 182.82 C 150.06 183.44 150.07 184.45 150.70 185.06 C 151.33 185.67 152.33 185.66 152.94 185.03 L 153.64 184.32 C 154.25 183.69 154.23 182.69 153.61 182.08 C 152.98 181.46 151.98 181.48 151.36 182.10 Z M 150.70 182.79 L 150.00 183.48 C 149.37 184.09 149.36 185.09 149.97 185.72 C 150.58 186.34 151.58 186.35 152.20 185.74 L 152.91 185.05 C 153.54 184.45 153.55 183.44 152.94 182.82 C 152.33 182.19 151.33 182.18 150.70 182.79 Z M 150.02 183.46 L 149.30 184.14 C 148.67 184.73 148.64 185.73 149.23 186.37 C 149.83 187.00 150.83 187.03 151.46 186.43 L 152.18 185.76 C 152.81 185.16 152.84 184.17 152.25 183.53 C 151.65 182.90 150.65 182.87 150.02 183.46 Z M 149.32 184.13 L 148.60 184.80 C 147.96 185.38 147.92 186.38 148.51 187.02 C 149.09 187.65 150.09 187.69 150.73 187.11 L 151.45 186.44 C 152.09 185.85 152.13 184.86 151.54 184.22 C 150.95 183.58 149.96 183.54 149.32 184.13 Z M 148.60 184.80 L 148.38 185.00 C 147.74 185.58 147.70 186.58 148.28 187.21 C 148.87 187.85 149.86 187.90 150.50 187.31 L 150.72 187.11 C 151.36 186.52 151.40 185.53 150.82 184.89 C 150.23 184.25 149.24 184.21 148.60 184.80 Z"
      fill="black"
      fill-rule="nonzero" /><path d="M 174.89 147.32 L 175.76 147.77 C 176.59 148.21 177.62 147.88 178.06 147.05 C 178.50 146.22 178.17 145.19 177.34 144.75 L 176.47 144.30 C 175.63 143.86 174.60 144.18 174.17 145.02 C 173.73 145.85 174.05 146.88 174.89 147.32 Z M 175.74 147.79 L 176.62 148.25 C 177.46 148.69 178.50 148.37 178.95 147.53 C 179.39 146.69 179.07 145.65 178.23 145.20 L 177.36 144.74 C 176.52 144.29 175.47 144.61 175.03 145.46 C 174.58 146.30 174.90 147.34 175.74 147.79 Z M 176.59 148.26 L 177.46 148.73 C 178.31 149.19 179.37 148.88 179.83 148.03 C 180.29 147.18 179.98 146.12 179.13 145.66 L 178.26 145.19 C 177.41 144.73 176.35 145.04 175.89 145.89 C 175.43 146.74 175.74 147.80 176.59 148.26 Z M 177.43 148.74 L 178.30 149.23 C 179.15 149.71 180.23 149.40 180.71 148.55 C 181.19 147.70 180.89 146.62 180.03 146.15 L 179.16 145.66 C 178.31 145.18 177.23 145.48 176.75 146.33 C 176.28 147.18 176.58 148.26 177.43 148.74 Z M 178.26 149.23 L 179.14 149.74 C 179.99 150.24 181.08 149.96 181.58 149.11 C 182.08 148.25 181.80 147.16 180.95 146.66 L 180.07 146.14 C 179.22 145.64 178.13 145.93 177.63 146.78 C 177.13 147.63 177.41 148.73 178.26 149.23 Z M 179.09 149.74 L 179.95 150.27 C 180.80 150.80 181.91 150.54 182.44 149.69 C 182.97 148.84 182.70 147.72 181.85 147.19 L 180.99 146.66 C 180.14 146.13 179.03 146.40 178.50 147.25 C 177.98 148.10 178.24 149.21 179.09 149.74 Z M 179.90 150.27 L 180.70 150.79 C 181.55 151.34 182.68 151.11 183.24 150.26 C 183.79 149.41 183.55 148.28 182.71 147.72 L 181.90 147.20 C 181.06 146.65 179.92 146.88 179.37 147.73 C 178.82 148.58 179.05 149.71 179.90 150.27 Z M 180.66 150.78 L 181.46 151.34 C 182.30 151.91 183.46 151.70 184.04 150.86 C 184.61 150.01 184.40 148.86 183.56 148.28 L 182.75 147.73 C 181.91 147.15 180.76 147.37 180.18 148.21 C 179.60 149.05 179.81 150.21 180.66 150.78 Z M 181.42 151.33 L 182.22 151.91 C 183.06 152.51 184.23 152.32 184.84 151.48 C 185.44 150.64 185.25 149.46 184.41 148.86 L 183.60 148.29 C 182.76 147.68 181.59 147.88 180.98 148.72 C 180.38 149.56 180.58 150.73 181.42 151.33 Z M 182.18 151.91 L 182.99 152.51 C 183.83 153.13 185.02 152.96 185.64 152.12 C 186.27 151.28 186.09 150.09 185.25 149.47 L 184.45 148.87 C 183.61 148.24 182.42 148.41 181.79 149.25 C 181.17 150.09 181.34 151.28 182.18 151.91 Z M 182.95 152.51 L 183.77 153.13 C 184.60 153.78 185.81 153.62 186.45 152.78 C 187.10 151.94 186.94 150.74 186.10 150.10 L 185.29 149.47 C 184.45 148.82 183.25 148.98 182.61 149.82 C 181.96 150.66 182.12 151.86 182.95 152.51 Z M 183.73 153.13 L 184.55 153.78 C 185.38 154.45 186.60 154.31 187.27 153.47 C 187.93 152.63 187.79 151.41 186.96 150.75 L 186.14 150.10 C 185.30 149.43 184.08 149.57 183.42 150.41 C 182.75 151.25 182.89 152.46 183.73 153.13 Z M 184.52 153.78 L 185.20 154.33 C 186.03 155.01 187.26 154.89 187.95 154.05 C 188.63 153.21 188.50 151.98 187.67 151.30 L 186.99 150.75 C 186.15 150.07 184.92 150.19 184.24 151.03 C 183.56 151.87 183.68 153.10 184.52 153.78 Z M 185.18 154.33 L 185.85 154.88 C 186.68 155.58 187.92 155.46 188.61 154.63 C 189.30 153.79 189.19 152.56 188.36 151.86 L 187.69 151.31 C 186.85 150.61 185.62 150.73 184.92 151.56 C 184.23 152.39 184.34 153.63 185.18 154.33 Z M 185.83 154.88 L 186.51 155.46 C 187.34 156.16 188.59 156.06 189.29 155.23 C 190.00 154.40 189.89 153.16 189.06 152.45 L 188.38 151.87 C 187.55 151.16 186.30 151.27 185.60 152.10 C 184.89 152.93 184.99 154.17 185.83 154.88 Z M 186.49 155.46 L 187.21 156.07 C 188.04 156.79 189.29 156.70 190.00 155.87 C 190.72 155.04 190.63 153.79 189.80 153.07 L 189.08 152.46 C 188.26 151.74 187.00 151.83 186.29 152.66 C 185.57 153.49 185.67 154.74 186.49 155.46 Z M 187.19 156.07 L 187.94 156.73 C 188.77 157.45 190.02 157.37 190.75 156.54 C 191.47 155.72 191.39 154.46 190.56 153.73 L 189.82 153.08 C 188.99 152.35 187.73 152.43 187.01 153.26 C 186.28 154.09 186.36 155.35 187.19 156.07 Z M 187.92 156.73 L 188.72 157.43 C 189.54 158.16 190.81 158.09 191.54 157.26 C 192.27 156.44 192.20 155.17 191.37 154.44 L 190.58 153.74 C 189.76 153.00 188.49 153.08 187.76 153.90 C 187.02 154.73 187.10 155.99 187.92 156.73 Z M 188.70 157.43 L 189.55 158.19 C 190.37 158.93 191.64 158.86 192.38 158.04 C 193.12 157.21 193.06 155.94 192.23 155.20 L 191.39 154.44 C 190.56 153.70 189.29 153.77 188.55 154.59 C 187.81 155.42 187.88 156.69 188.70 157.43 Z M 189.53 158.19 L 190.44 159.01 C 191.26 159.75 192.54 159.69 193.28 158.87 C 194.03 158.04 193.97 156.76 193.15 156.02 L 192.24 155.20 C 191.42 154.45 190.14 154.51 189.39 155.34 C 188.65 156.16 188.71 157.44 189.53 158.19 Z M 190.43 159.01 L 191.10 159.62 C 191.93 160.37 193.21 160.32 193.96 159.49 C 194.71 158.67 194.66 157.39 193.83 156.63 L 193.15 156.02 C 192.33 155.26 191.05 155.32 190.30 156.15 C 189.54 156.97 189.60 158.25 190.43 159.01 Z M 191.10 159.62 L 191.79 160.26 C 192.62 161.02 193.90 160.96 194.66 160.14 C 195.41 159.31 195.36 158.03 194.53 157.27 L 193.83 156.63 C 193.01 155.88 191.73 155.93 190.97 156.76 C 190.22 157.58 190.27 158.86 191.10 159.62 Z M 191.79 160.26 L 192.51 160.92 C 193.33 161.68 194.62 161.63 195.38 160.80 C 196.13 159.98 196.08 158.70 195.26 157.94 L 194.54 157.27 C 193.71 156.52 192.43 156.57 191.67 157.39 C 190.91 158.22 190.96 159.50 191.79 160.26 Z M 192.50 160.92 L 193.24 161.60 C 194.06 162.37 195.35 162.32 196.11 161.49 C 196.87 160.67 196.82 159.38 196.00 158.62 L 195.26 157.94 C 194.44 157.18 193.15 157.23 192.39 158.05 C 191.63 158.87 191.68 160.16 192.50 160.92 Z M 193.23 161.60 L 193.98 162.30 C 194.81 163.06 196.09 163.02 196.86 162.19 C 197.62 161.37 197.58 160.08 196.76 159.32 L 196.01 158.62 C 195.18 157.86 193.90 157.90 193.13 158.73 C 192.37 159.55 192.41 160.84 193.23 161.60 Z M 193.98 162.30 L 194.74 163.00 C 195.56 163.77 196.85 163.73 197.61 162.91 C 198.38 162.09 198.34 160.80 197.52 160.03 L 196.76 159.32 C 195.94 158.55 194.65 158.60 193.88 159.42 C 193.11 160.24 193.16 161.53 193.98 162.30 Z M 194.73 163.00 L 195.49 163.71 C 196.31 164.49 197.60 164.45 198.37 163.63 C 199.14 162.80 199.10 161.51 198.28 160.74 L 197.52 160.03 C 196.70 159.26 195.41 159.30 194.64 160.12 C 193.87 160.94 193.91 162.23 194.73 163.00 Z M 195.48 163.71 L 196.24 164.43 C 197.06 165.20 198.35 165.16 199.12 164.34 C 199.90 163.52 199.86 162.23 199.04 161.46 L 198.29 160.74 C 197.47 159.97 196.17 160.01 195.40 160.83 C 194.63 161.65 194.66 162.94 195.48 163.71 Z M 196.23 164.42 L 196.98 165.13 C 197.79 165.91 199.09 165.88 199.87 165.06 C 200.64 164.24 200.61 162.95 199.79 162.17 L 199.05 161.46 C 198.23 160.68 196.94 160.71 196.16 161.53 C 195.38 162.35 195.41 163.64 196.23 164.42 Z M 196.97 165.13 L 197.70 165.83 C 198.52 166.61 199.81 166.58 200.60 165.77 C 201.38 164.95 201.35 163.65 200.53 162.87 L 199.80 162.17 C 198.98 161.39 197.69 161.42 196.91 162.23 C 196.12 163.05 196.15 164.35 196.97 165.13 Z M 197.69 165.83 L 198.40 166.51 C 199.22 167.30 200.52 167.28 201.30 166.46 C 202.09 165.65 202.07 164.35 201.25 163.56 L 200.54 162.88 C 199.73 162.09 198.43 162.11 197.64 162.93 C 196.85 163.74 196.88 165.04 197.69 165.83 Z M 198.40 166.51 L 199.17 167.26 C 199.98 168.05 201.28 168.04 202.07 167.23 C 202.86 166.41 202.85 165.11 202.04 164.32 L 201.26 163.57 C 200.45 162.78 199.15 162.80 198.36 163.61 C 197.57 164.42 197.59 165.72 198.40 166.51 Z M 199.16 167.26 L 199.94 168.02 C 200.75 168.82 202.05 168.81 202.84 168.00 C 203.64 167.19 203.63 165.90 202.82 165.10 L 202.04 164.33 C 201.24 163.54 199.94 163.55 199.14 164.35 C 198.35 165.16 198.36 166.46 199.16 167.26 Z M 199.93 168.01 L 200.68 168.76 C 201.48 169.56 202.78 169.56 203.58 168.76 C 204.38 167.96 204.38 166.66 203.58 165.86 L 202.83 165.11 C 202.03 164.31 200.73 164.31 199.93 165.11 C 199.13 165.91 199.13 167.21 199.93 168.01 Z M 200.67 168.75 L 201.39 169.48 C 202.19 170.29 203.49 170.29 204.29 169.50 C 205.10 168.70 205.11 167.40 204.31 166.60 L 203.59 165.87 C 202.79 165.06 201.50 165.05 200.69 165.85 C 199.88 166.64 199.87 167.94 200.67 168.75 Z M 201.38 169.47 L 202.07 170.18 C 202.86 170.99 204.16 171.01 204.98 170.22 C 205.79 169.43 205.81 168.13 205.02 167.32 L 204.32 166.61 C 203.53 165.80 202.23 165.78 201.42 166.57 C 200.61 167.36 200.59 168.66 201.38 169.47 Z M 202.06 170.17 L 202.74 170.87 C 203.52 171.69 204.82 171.72 205.64 170.94 C 206.45 170.16 206.48 168.86 205.70 168.04 L 205.03 167.33 C 204.24 166.52 202.95 166.49 202.13 167.27 C 201.31 168.05 201.28 169.35 202.06 170.17 Z M 202.72 170.86 L 203.38 171.56 C 204.15 172.38 205.45 172.42 206.28 171.65 C 207.10 170.87 207.14 169.57 206.37 168.75 L 205.71 168.05 C 204.94 167.23 203.64 167.19 202.81 167.96 C 201.99 168.74 201.95 170.04 202.72 170.86 Z M 203.37 171.54 L 204.00 172.23 C 204.77 173.07 206.07 173.12 206.90 172.35 C 207.73 171.58 207.79 170.28 207.02 169.45 L 206.38 168.76 C 205.61 167.93 204.31 167.88 203.48 168.65 C 202.65 169.41 202.60 170.71 203.37 171.54 Z M 203.99 172.22 L 204.62 172.91 C 205.38 173.75 206.67 173.81 207.51 173.05 C 208.35 172.29 208.42 171.00 207.65 170.16 L 207.03 169.47 C 206.27 168.63 204.97 168.56 204.13 169.32 C 203.29 170.08 203.23 171.38 203.99 172.22 Z M 204.60 172.89 L 205.23 173.60 C 205.98 174.44 207.27 174.52 208.12 173.77 C 208.97 173.01 209.04 171.72 208.29 170.87 L 207.67 170.17 C 206.92 169.32 205.62 169.25 204.77 170.00 C 203.93 170.75 203.85 172.05 204.60 172.89 Z M 205.22 173.58 L 205.87 174.33 C 206.62 175.19 207.91 175.27 208.76 174.53 C 209.61 173.79 209.70 172.50 208.96 171.64 L 208.30 170.89 C 207.56 170.04 206.27 169.95 205.41 170.69 C 204.56 171.43 204.47 172.73 205.22 173.58 Z M 205.86 174.31 L 206.51 175.07 C 207.24 175.93 208.53 176.04 209.39 175.30 C 210.25 174.57 210.35 173.28 209.62 172.42 L 208.97 171.66 C 208.24 170.80 206.95 170.70 206.09 171.43 C 205.23 172.17 205.13 173.46 205.86 174.31 Z M 206.50 175.06 L 207.14 175.82 C 207.86 176.69 209.15 176.80 210.01 176.08 C 210.88 175.36 210.99 174.07 210.27 173.21 L 209.63 172.44 C 208.91 171.58 207.62 171.46 206.76 172.18 C 205.89 172.91 205.78 174.19 206.50 175.06 Z M 207.13 175.80 L 207.76 176.58 C 208.47 177.45 209.75 177.58 210.62 176.86 C 211.49 176.15 211.62 174.87 210.91 174.00 L 210.28 173.23 C 209.57 172.36 208.29 172.23 207.42 172.94 C 206.55 173.65 206.42 174.93 207.13 175.80 Z M 207.75 176.56 L 208.37 177.34 C 209.07 178.21 210.35 178.36 211.23 177.66 C 212.10 176.96 212.25 175.68 211.55 174.80 L 210.92 174.02 C 210.22 173.15 208.95 173.00 208.07 173.70 C 207.19 174.40 207.05 175.68 207.75 176.56 Z M 208.36 177.32 L 208.98 178.10 C 209.67 178.99 210.94 179.14 211.82 178.45 C 212.70 177.77 212.86 176.49 212.17 175.61 L 211.56 174.82 C 210.87 173.94 209.60 173.78 208.71 174.47 C 207.83 175.16 207.67 176.43 208.36 177.32 Z M 208.97 178.08 L 209.57 178.88 C 210.25 179.77 211.52 179.94 212.41 179.26 C 213.30 178.58 213.47 177.31 212.79 176.43 L 212.18 175.63 C 211.51 174.74 210.24 174.57 209.35 175.25 C 208.46 175.93 208.29 177.19 208.97 178.08 Z M 209.56 178.86 L 210.16 179.66 C 210.83 180.56 212.09 180.74 212.98 180.08 C 213.88 179.41 214.06 178.15 213.40 177.25 L 212.80 176.45 C 212.14 175.55 210.87 175.37 209.98 176.03 C 209.08 176.70 208.90 177.96 209.56 178.86 Z M 210.15 179.64 L 210.74 180.46 C 211.40 181.36 212.66 181.56 213.56 180.91 C 214.46 180.25 214.66 178.99 214.00 178.09 L 213.41 177.27 C 212.76 176.37 211.50 176.17 210.60 176.83 C 209.70 177.48 209.50 178.74 210.15 179.64 Z M 210.74 180.44 L 211.33 181.28 C 211.97 182.18 213.23 182.40 214.13 181.76 C 215.04 181.12 215.25 179.87 214.61 178.96 L 214.01 178.12 C 213.37 177.21 212.12 177.00 211.22 177.64 C 210.31 178.28 210.10 179.53 210.74 180.44 Z M 211.33 181.26 L 211.91 182.11 C 212.54 183.01 213.79 183.24 214.69 182.61 C 215.60 181.99 215.83 180.74 215.20 179.83 L 214.62 178.98 C 213.99 178.08 212.74 177.85 211.84 178.47 C 210.93 179.10 210.70 180.35 211.33 181.26 Z M 211.91 182.08 L 212.48 182.93 C 213.09 183.84 214.33 184.09 215.24 183.47 C 216.16 182.86 216.40 181.62 215.78 180.71 L 215.21 179.86 C 214.60 178.94 213.36 178.70 212.45 179.32 C 211.53 179.93 211.29 181.17 211.91 182.08 Z M 212.47 182.91 L 213.03 183.76 C 213.63 184.67 214.86 184.93 215.78 184.33 C 216.69 183.72 216.95 182.49 216.35 181.58 L 215.79 180.73 C 215.19 179.81 213.96 179.56 213.04 180.16 C 212.13 180.76 211.87 181.99 212.47 182.91 Z M 213.02 183.73 L 213.57 184.58 C 214.15 185.50 215.38 185.77 216.30 185.18 C 217.22 184.59 217.48 183.36 216.89 182.45 L 216.35 181.60 C 215.76 180.68 214.54 180.42 213.62 181.00 C 212.70 181.59 212.44 182.82 213.02 183.73 Z M 213.56 184.56 L 214.08 185.39 C 214.66 186.31 215.87 186.59 216.80 186.02 C 217.72 185.44 218.00 184.23 217.42 183.30 L 216.90 182.47 C 216.32 181.55 215.11 181.27 214.19 181.84 C 213.26 182.42 212.98 183.63 213.56 184.56 Z M 214.08 185.37 L 214.58 186.19 C 215.14 187.12 216.35 187.41 217.27 186.85 C 218.20 186.29 218.49 185.08 217.93 184.15 L 217.43 183.33 C 216.86 182.40 215.66 182.11 214.73 182.67 C 213.81 183.24 213.51 184.44 214.08 185.37 Z M 214.57 186.17 L 215.05 186.98 C 215.60 187.91 216.80 188.22 217.73 187.67 C 218.66 187.12 218.97 185.92 218.42 184.99 L 217.94 184.18 C 217.39 183.25 216.19 182.94 215.26 183.49 C 214.33 184.04 214.02 185.24 214.57 186.17 Z M 215.05 186.95 L 215.58 187.88 C 216.12 188.81 217.31 189.13 218.24 188.60 C 219.17 188.07 219.49 186.88 218.95 185.95 L 218.42 185.02 C 217.89 184.09 216.70 183.77 215.77 184.30 C 214.84 184.83 214.52 186.02 215.05 186.95 Z M 215.58 187.85 L 216.10 188.79 C 216.62 189.72 217.79 190.06 218.72 189.54 C 219.66 189.03 219.99 187.86 219.48 186.92 L 218.96 185.98 C 218.44 185.05 217.27 184.71 216.34 185.23 C 215.40 185.74 215.07 186.92 215.58 187.85 Z M 216.10 188.76 L 216.59 189.67 C 217.09 190.61 218.24 190.96 219.18 190.46 C 220.11 189.97 220.46 188.81 219.97 187.88 L 219.48 186.96 C 218.98 186.03 217.83 185.67 216.89 186.17 C 215.96 186.66 215.61 187.82 216.10 188.76 Z M 216.59 189.64 L 217.04 190.53 C 217.52 191.46 218.66 191.84 219.60 191.36 C 220.53 190.88 220.90 189.74 220.43 188.81 L 219.97 187.91 C 219.49 186.98 218.35 186.61 217.42 187.08 C 216.48 187.56 216.11 188.70 216.59 189.64 Z M 217.04 190.49 L 217.46 191.36 C 217.92 192.30 219.05 192.69 219.98 192.23 C 220.92 191.78 221.31 190.65 220.85 189.72 L 220.43 188.84 C 219.97 187.91 218.85 187.52 217.91 187.97 C 216.97 188.43 216.59 189.56 217.04 190.49 Z M 217.46 191.33 L 217.86 192.18 C 218.29 193.11 219.40 193.52 220.34 193.09 C 221.27 192.65 221.68 191.54 221.25 190.61 L 220.85 189.75 C 220.42 188.82 219.31 188.41 218.37 188.85 C 217.44 189.28 217.03 190.39 217.46 191.33 Z M 217.86 192.14 L 218.22 192.97 C 218.63 193.91 219.73 194.33 220.67 193.92 C 221.60 193.51 222.03 192.41 221.62 191.48 L 221.25 190.64 C 220.84 189.71 219.74 189.28 218.81 189.69 C 217.87 190.11 217.44 191.20 217.86 192.14 Z M 218.22 192.93 L 218.60 193.84 C 218.99 194.78 220.06 195.22 221.00 194.83 C 221.94 194.44 222.38 193.37 221.99 192.43 L 221.61 191.52 C 221.23 190.58 220.15 190.14 219.22 190.53 C 218.28 190.92 217.83 191.99 218.22 192.93 Z M 218.60 193.79 L 218.96 194.72 C 219.32 195.65 220.37 196.12 221.31 195.76 C 222.25 195.40 222.71 194.34 222.35 193.41 L 221.99 192.48 C 221.63 191.55 220.58 191.08 219.64 191.44 C 218.71 191.80 218.24 192.86 218.60 193.79 Z M 218.96 194.67 L 219.29 195.59 C 219.63 196.52 220.65 197.01 221.59 196.68 C 222.52 196.35 223.01 195.32 222.68 194.39 L 222.35 193.46 C 222.02 192.53 220.99 192.04 220.05 192.37 C 219.12 192.70 218.63 193.73 218.96 194.67 Z M 219.30 195.54 L 219.60 196.47 C 219.90 197.40 220.91 197.91 221.84 197.61 C 222.77 197.31 223.28 196.30 222.98 195.37 L 222.67 194.44 C 222.37 193.51 221.37 193.00 220.43 193.30 C 219.50 193.60 218.99 194.61 219.30 195.54 Z M 219.61 196.42 L 219.89 197.37 C 220.16 198.30 221.14 198.83 222.07 198.56 C 223.00 198.28 223.53 197.31 223.25 196.38 L 222.97 195.42 C 222.70 194.49 221.72 193.96 220.79 194.24 C 219.86 194.51 219.33 195.49 219.61 196.42 Z M 219.90 197.33 L 220.16 198.31 C 220.41 199.24 221.36 199.79 222.29 199.54 C 223.21 199.29 223.76 198.34 223.51 197.41 L 223.25 196.43 C 223.00 195.50 222.05 194.95 221.12 195.20 C 220.20 195.45 219.65 196.40 219.90 197.33 Z M 220.17 198.27 L 220.40 199.21 C 220.63 200.13 221.56 200.69 222.48 200.47 C 223.40 200.24 223.96 199.31 223.73 198.39 L 223.50 197.45 C 223.28 196.53 222.35 195.97 221.43 196.20 C 220.51 196.42 219.94 197.35 220.17 198.27 Z M 220.41 199.18 L 220.62 200.11 C 220.83 201.03 221.74 201.60 222.66 201.39 C 223.57 201.18 224.15 200.27 223.94 199.36 L 223.73 198.42 C 223.52 197.51 222.61 196.93 221.69 197.14 C 220.77 197.35 220.20 198.26 220.41 199.18 Z M 220.63 200.09 L 220.84 201.05 C 221.03 201.96 221.93 202.54 222.84 202.35 C 223.75 202.15 224.33 201.25 224.13 200.34 L 223.93 199.38 C 223.73 198.47 222.84 197.89 221.93 198.09 C 221.02 198.28 220.44 199.18 220.63 200.09 Z M 220.85 201.03 L 221.05 202.02 C 221.23 202.92 222.12 203.50 223.02 203.32 C 223.92 203.14 224.51 202.25 224.32 201.35 L 224.12 200.36 C 223.94 199.46 223.06 198.88 222.15 199.06 C 221.25 199.24 220.67 200.13 220.85 201.03 Z M 221.06 202.00 L 221.26 203.00 C 221.43 203.90 222.30 204.49 223.20 204.31 C 224.10 204.13 224.68 203.26 224.51 202.37 L 224.31 201.36 C 224.14 200.47 223.27 199.88 222.37 200.06 C 221.47 200.23 220.89 201.10 221.06 202.00 Z M 221.27 202.99 L 221.47 204.01 C 221.64 204.90 222.49 205.48 223.38 205.31 C 224.27 205.14 224.86 204.28 224.69 203.39 L 224.50 202.38 C 224.33 201.49 223.47 200.90 222.58 201.07 C 221.69 201.24 221.10 202.10 221.27 202.99 Z M 221.48 204.00 L 221.67 205.02 C 221.84 205.90 222.69 206.48 223.57 206.32 C 224.45 206.15 225.03 205.30 224.87 204.42 L 224.67 203.40 C 224.51 202.52 223.66 201.94 222.78 202.10 C 221.89 202.27 221.31 203.12 221.48 204.00 Z M 221.68 205.02 L 221.71 205.19 C 221.88 206.07 222.72 206.65 223.60 206.48 C 224.48 206.32 225.06 205.48 224.89 204.60 L 224.86 204.42 C 224.69 203.54 223.85 202.97 222.97 203.13 C 222.09 203.29 221.52 204.14 221.68 205.02 Z"
      fill="black"
      fill-rule="nonzero" /></svg>