<svg xmlns="http://www.w3.org/2000/svg" width="300" height="300" viewBox="0 0 300 300">
<path d="M 64.21 83.35 L 63.34 83.85 C 62.41 84.38 62.09 85.56 62.62 86.48 C 63.15 87.41 64.33 87.73 65.26 87.20 L 66.13 86.69 C 67.05 86.16 67.37 84.98 66.84 84.06 C 66.31 83.14 65.13 82.82 64.21 83.35 Z M 63.15 83.97 L 62.38 84.53 C 61.53 85.17 61.34 86.38 61.98 87.23 C 62.61 88.09 63.82 88.27 64.68 87.64 L 65.44 87.07 C 66.30 86.44 66.48 85.23 65.85 84.37 C 65.21 83.52 64.00 83.34 63.15 83.97 Z M 62.01 84.89 L 61.47 85.58 C 60.81 86.42 60.95 87.64 61.79 88.30 C 62.63 88.96 63.84 88.81 64.50 87.97 L 65.05 87.28 C 65.71 86.44 65.56 85.23 64.73 84.57 C 63.89 83.91 62.67 84.05 62.01 84.89 Z M 61.11 86.32 L 60.89 87.20 C 60.64 88.24 61.27 89.29 62.31 89.54 C 63.34 89.80 64.39 89.16 64.65 88.12 L 64.86 87.24 C 65.12 86.20 64.48 85.16 63.45 84.90 C 62.41 84.65 61.36 85.28 61.11 86.32 Z M 60.87 88.02 L 61.07 89.12 C 61.27 90.17 62.28 90.86 63.33 90.67 C 64.38 90.47 65.07 89.46 64.88 88.41 L 64.67 87.31 C 64.47 86.26 63.46 85.56 62.41 85.76 C 61.36 85.96 60.67 86.97 60.87 88.02 Z M 61.20 89.54 L 61.48 90.19 C 61.91 91.18 63.05 91.63 64.03 91.20 C 65.01 90.78 65.46 89.64 65.04 88.65 L 64.75 88.00 C 64.33 87.01 63.19 86.56 62.21 86.99 C 61.22 87.41 60.77 88.55 61.20 89.54 Z M 61.56 90.36 L 61.95 91.08 C 62.47 92.02 63.65 92.36 64.59 91.85 C 65.53 91.33 65.87 90.15 65.36 89.21 L 64.96 88.49 C 64.45 87.55 63.27 87.21 62.33 87.72 C 61.39 88.24 61.04 89.42 61.56 90.36 Z M 62.01 91.19 L 62.50 91.96 C 63.08 92.87 64.28 93.14 65.19 92.56 C 66.10 91.99 66.37 90.79 65.79 89.88 L 65.30 89.11 C 64.73 88.20 63.52 87.93 62.62 88.50 C 61.71 89.08 61.44 90.28 62.01 91.19 Z M 62.55 92.03 L 63.11 92.85 C 63.73 93.73 64.94 93.95 65.83 93.34 C 66.71 92.72 66.93 91.51 66.31 90.62 L 65.75 89.81 C 65.13 88.92 63.92 88.71 63.03 89.32 C 62.15 89.94 61.93 91.15 62.55 92.03 Z M 63.15 92.90 L 63.77 93.74 C 64.42 94.61 65.64 94.79 66.51 94.15 C 67.37 93.51 67.55 92.28 66.91 91.42 L 66.28 90.57 C 65.64 89.71 64.42 89.52 63.55 90.17 C 62.68 90.81 62.50 92.03 63.15 92.90 Z M 63.79 93.78 L 64.47 94.64 C 65.13 95.50 66.36 95.65 67.21 94.99 C 68.07 94.33 68.22 93.10 67.56 92.24 L 66.89 91.38 C 66.22 90.53 64.99 90.37 64.14 91.03 C 63.29 91.70 63.13 92.93 63.79 93.78 Z M 64.48 94.67 L 65.18 95.54 C 65.85 96.38 67.09 96.52 67.93 95.84 C 68.78 95.17 68.92 93.93 68.24 93.09 L 67.54 92.22 C 66.87 91.37 65.63 91.24 64.79 91.91 C 63.94 92.59 63.80 93.82 64.48 94.67 Z M 65.18 95.55 L 65.89 96.42 C 66.58 97.26 67.81 97.39 68.65 96.70 C 69.50 96.02 69.62 94.78 68.94 93.94 L 68.23 93.07 C 67.55 92.23 66.31 92.10 65.47 92.79 C 64.62 93.48 64.50 94.71 65.18 95.55 Z M 65.89 96.43 L 66.59 97.28 C 67.28 98.12 68.52 98.24 69.36 97.55 C 70.20 96.86 70.32 95.62 69.63 94.78 L 68.94 93.93 C 68.25 93.09 67.00 92.97 66.16 93.66 C 65.32 94.35 65.20 95.59 65.89 96.43 Z M 66.58 97.28 L 67.26 98.10 C 67.95 98.95 69.19 99.07 70.03 98.38 C 70.88 97.69 71.00 96.45 70.31 95.61 L 69.64 94.78 C 68.95 93.94 67.71 93.81 66.86 94.50 C 66.02 95.19 65.89 96.43 66.58 97.28 Z M 67.25 98.09 L 67.97 98.99 C 68.65 99.84 69.90 99.98 70.75 99.29 C 71.60 98.61 71.73 97.37 71.05 96.52 L 70.32 95.62 C 69.64 94.77 68.40 94.63 67.55 95.32 C 66.70 96.00 66.56 97.24 67.25 98.09 Z M 67.95 98.98 L 68.64 99.84 C 69.31 100.70 70.55 100.85 71.41 100.18 C 72.27 99.50 72.42 98.26 71.74 97.40 L 71.06 96.53 C 70.39 95.68 69.14 95.53 68.29 96.20 C 67.43 96.88 67.28 98.12 67.95 98.98 Z M 68.62 99.83 L 69.26 100.66 C 69.92 101.52 71.16 101.69 72.03 101.02 C 72.90 100.36 73.06 99.11 72.40 98.25 L 71.76 97.42 C 71.09 96.55 69.85 96.39 68.99 97.05 C 68.12 97.72 67.96 98.96 68.62 99.83 Z M 69.24 100.64 L 69.84 101.44 C 70.50 102.31 71.74 102.49 72.61 101.84 C 73.49 101.18 73.66 99.94 73.01 99.07 L 72.41 98.27 C 71.76 97.39 70.52 97.21 69.64 97.87 C 68.77 98.52 68.59 99.76 69.24 100.64 Z M 69.83 101.42 L 70.40 102.20 C 71.04 103.08 72.28 103.28 73.16 102.63 C 74.04 101.99 74.24 100.75 73.59 99.87 L 73.03 99.09 C 72.38 98.20 71.14 98.01 70.26 98.65 C 69.38 99.30 69.18 100.54 69.83 101.42 Z M 70.38 102.18 L 70.93 102.95 C 71.56 103.84 72.80 104.05 73.69 103.41 C 74.58 102.78 74.79 101.54 74.15 100.65 L 73.61 99.89 C 72.98 98.99 71.74 98.79 70.85 99.42 C 69.96 100.05 69.75 101.29 70.38 102.18 Z M 70.91 102.93 L 71.44 103.69 C 72.06 104.59 73.30 104.81 74.20 104.19 C 75.10 103.57 75.32 102.33 74.70 101.43 L 74.17 100.67 C 73.54 99.77 72.31 99.55 71.41 100.17 C 70.51 100.80 70.29 102.03 70.91 102.93 Z M 71.43 103.68 L 71.95 104.44 C 72.56 105.35 73.79 105.58 74.70 104.97 C 75.61 104.35 75.84 103.12 75.23 102.21 L 74.71 101.45 C 74.10 100.54 72.86 100.31 71.96 100.92 C 71.05 101.54 70.81 102.77 71.43 103.68 Z M 71.94 104.43 L 72.45 105.20 C 73.06 106.11 74.29 106.36 75.20 105.75 C 76.11 105.15 76.36 103.92 75.76 103.00 L 75.24 102.23 C 74.63 101.32 73.40 101.07 72.49 101.68 C 71.58 102.28 71.33 103.51 71.94 104.43 Z M 72.44 105.19 L 72.96 105.98 C 73.56 106.90 74.79 107.15 75.71 106.55 C 76.62 105.95 76.88 104.72 76.28 103.81 L 75.76 103.02 C 75.16 102.10 73.93 101.84 73.02 102.44 C 72.10 103.04 71.84 104.27 72.44 105.19 Z M 72.95 105.97 L 73.47 106.77 C 74.06 107.70 75.29 107.96 76.21 107.37 C 77.13 106.78 77.40 105.55 76.81 104.63 L 76.29 103.82 C 75.70 102.90 74.47 102.63 73.55 103.22 C 72.62 103.82 72.36 105.04 72.95 105.97 Z M 73.46 106.76 L 73.98 107.58 C 74.57 108.51 75.79 108.79 76.72 108.20 C 77.65 107.62 77.92 106.39 77.34 105.46 L 76.82 104.64 C 76.23 103.71 75.01 103.43 74.08 104.02 C 73.15 104.61 72.87 105.83 73.46 106.76 Z M 73.97 107.57 L 74.49 108.41 C 75.07 109.34 76.29 109.63 77.23 109.06 C 78.16 108.48 78.45 107.25 77.87 106.32 L 77.35 105.48 C 76.77 104.55 75.55 104.26 74.61 104.83 C 73.68 105.41 73.39 106.64 73.97 107.57 Z M 74.48 108.40 L 75.00 109.26 C 75.57 110.19 76.79 110.49 77.73 109.92 C 78.67 109.35 78.97 108.13 78.40 107.19 L 77.88 106.33 C 77.31 105.40 76.09 105.10 75.15 105.67 C 74.21 106.24 73.91 107.46 74.48 108.40 Z M 74.99 109.24 L 75.51 110.12 C 76.07 111.06 77.30 111.37 78.24 110.81 C 79.18 110.25 79.49 109.03 78.93 108.08 L 78.41 107.21 C 77.85 106.26 76.63 105.95 75.69 106.52 C 74.74 107.08 74.43 108.30 74.99 109.24 Z M 75.50 110.10 L 76.02 110.99 C 76.58 111.94 77.79 112.27 78.74 111.71 C 79.69 111.16 80.01 109.94 79.46 108.99 L 78.94 108.10 C 78.39 107.15 77.17 106.83 76.22 107.38 C 75.27 107.93 74.95 109.15 75.50 110.10 Z M 76.01 110.98 L 76.53 111.89 C 77.07 112.84 78.29 113.18 79.24 112.63 C 80.20 112.09 80.53 110.88 79.99 109.92 L 79.47 109.01 C 78.93 108.05 77.71 107.72 76.76 108.26 C 75.80 108.81 75.47 110.02 76.01 110.98 Z M 76.52 111.87 L 77.03 112.78 C 77.56 113.74 78.77 114.09 79.73 113.55 C 80.69 113.02 81.04 111.81 80.51 110.85 L 80.00 109.94 C 79.47 108.98 78.25 108.63 77.29 109.16 C 76.33 109.70 75.99 110.91 76.52 111.87 Z M 77.02 112.76 L 77.50 113.66 C 78.03 114.62 79.23 114.98 80.20 114.45 C 81.17 113.93 81.52 112.72 81.00 111.75 L 80.51 110.86 C 79.99 109.90 78.78 109.54 77.81 110.06 C 76.85 110.59 76.49 111.80 77.02 112.76 Z M 77.49 113.64 L 77.97 114.54 C 78.49 115.51 79.69 115.88 80.67 115.36 C 81.64 114.85 82.00 113.64 81.49 112.67 L 81.01 111.77 C 80.49 110.80 79.29 110.43 78.31 110.95 C 77.34 111.46 76.98 112.67 77.49 113.64 Z M 77.96 114.53 L 78.44 115.43 C 78.95 116.41 80.15 116.79 81.12 116.28 C 82.10 115.77 82.48 114.57 81.97 113.59 L 81.50 112.68 C 80.99 111.71 79.78 111.33 78.81 111.84 C 77.83 112.35 77.45 113.55 77.96 114.53 Z M 78.43 115.42 L 78.89 116.33 C 79.40 117.31 80.60 117.70 81.58 117.19 C 82.56 116.69 82.94 115.49 82.44 114.51 L 81.98 113.60 C 81.47 112.63 80.27 112.24 79.29 112.74 C 78.32 113.24 77.93 114.44 78.43 115.42 Z M 78.89 116.32 L 79.34 117.22 C 79.84 118.21 81.03 118.60 82.02 118.11 C 83.00 117.61 83.40 116.41 82.90 115.43 L 82.45 114.53 C 81.95 113.54 80.76 113.15 79.77 113.64 C 78.79 114.14 78.39 115.33 78.89 116.32 Z M 79.34 117.21 L 79.78 118.11 C 80.27 119.09 81.46 119.50 82.45 119.01 C 83.44 118.53 83.84 117.33 83.35 116.34 L 82.91 115.44 C 82.42 114.46 81.23 114.05 80.24 114.54 C 79.25 115.03 78.85 116.22 79.34 117.21 Z M 79.77 118.10 L 80.20 118.98 C 80.68 119.97 81.88 120.39 82.87 119.91 C 83.86 119.43 84.27 118.23 83.79 117.24 L 83.36 116.36 C 82.88 115.36 81.69 114.95 80.70 115.43 C 79.71 115.91 79.29 117.10 79.77 118.10 Z M 80.20 118.97 L 80.61 119.84 C 81.09 120.84 82.28 121.26 83.27 120.79 C 84.27 120.31 84.69 119.12 84.21 118.13 L 83.80 117.25 C 83.32 116.26 82.13 115.84 81.14 116.31 C 80.15 116.79 79.72 117.98 80.20 118.97 Z M 80.61 119.83 L 81.01 120.70 C 81.48 121.70 82.67 122.13 83.67 121.66 C 84.66 121.19 85.09 120.01 84.63 119.01 L 84.22 118.14 C 83.75 117.14 82.57 116.71 81.57 117.18 C 80.57 117.65 80.14 118.83 80.61 119.83 Z M 81.01 120.69 L 81.46 121.68 C 81.92 122.68 83.10 123.12 84.11 122.66 C 85.11 122.20 85.55 121.02 85.09 120.01 L 84.63 119.02 C 84.17 118.02 82.99 117.58 81.99 118.04 C 80.99 118.50 80.55 119.69 81.01 120.69 Z M 81.45 121.66 L 81.89 122.62 C 82.34 123.63 83.52 124.08 84.52 123.63 C 85.53 123.18 85.98 122.00 85.53 120.99 L 85.10 120.03 C 84.64 119.02 83.46 118.57 82.46 119.03 C 81.45 119.48 81.00 120.66 81.45 121.66 Z M 81.88 122.61 L 82.29 123.54 C 82.73 124.55 83.91 125.01 84.92 124.57 C 85.93 124.13 86.39 122.95 85.94 121.94 L 85.53 121.01 C 85.09 120.00 83.91 119.54 82.90 119.98 C 81.90 120.42 81.44 121.60 81.88 122.61 Z M 82.28 123.53 L 82.67 124.44 C 83.11 125.46 84.28 125.93 85.29 125.49 C 86.31 125.06 86.78 123.89 86.34 122.87 L 85.95 121.96 C 85.52 120.94 84.34 120.47 83.33 120.91 C 82.32 121.34 81.85 122.52 82.28 123.53 Z M 82.67 124.43 L 83.04 125.33 C 83.47 126.34 84.64 126.82 85.66 126.40 C 86.67 125.97 87.15 124.80 86.72 123.78 L 86.35 122.89 C 85.92 121.87 84.75 121.39 83.74 121.82 C 82.72 122.24 82.24 123.41 82.67 124.43 Z M 83.04 125.31 L 83.40 126.20 C 83.82 127.22 84.98 127.70 86.00 127.29 C 87.02 126.87 87.51 125.70 87.09 124.68 L 86.73 123.80 C 86.31 122.78 85.15 122.29 84.13 122.71 C 83.11 123.13 82.62 124.29 83.04 125.31 Z M 83.39 126.18 L 83.75 127.06 C 84.16 128.08 85.32 128.58 86.34 128.17 C 87.37 127.75 87.86 126.59 87.45 125.57 L 87.10 124.70 C 86.69 123.67 85.53 123.18 84.50 123.59 C 83.48 124.00 82.98 125.16 83.39 126.18 Z M 83.74 127.05 L 84.10 127.95 C 84.50 128.97 85.66 129.48 86.69 129.07 C 87.71 128.67 88.22 127.51 87.81 126.48 L 87.45 125.58 C 87.05 124.56 85.89 124.05 84.87 124.46 C 83.84 124.86 83.34 126.02 83.74 127.05 Z M 84.09 127.94 L 84.46 128.90 C 84.86 129.92 86.02 130.43 87.05 130.04 C 88.07 129.64 88.58 128.48 88.19 127.45 L 87.82 126.49 C 87.42 125.47 86.26 124.96 85.23 125.35 C 84.20 125.75 83.69 126.91 84.09 127.94 Z M 84.46 128.88 L 84.82 129.84 C 85.21 130.87 86.37 131.39 87.40 130.99 C 88.43 130.60 88.95 129.45 88.55 128.42 L 88.19 127.47 C 87.80 126.43 86.65 125.92 85.62 126.31 C 84.59 126.70 84.07 127.85 84.46 128.88 Z M 84.82 129.83 L 85.17 130.77 C 85.56 131.81 86.71 132.33 87.74 131.94 C 88.77 131.56 89.30 130.41 88.91 129.37 L 88.56 128.43 C 88.17 127.40 87.02 126.87 85.99 127.26 C 84.96 127.64 84.43 128.79 84.82 129.83 Z M 85.17 130.76 L 85.51 131.70 C 85.89 132.73 87.04 133.26 88.07 132.88 C 89.11 132.50 89.64 131.36 89.26 130.32 L 88.91 129.38 C 88.53 128.35 87.39 127.82 86.35 128.20 C 85.32 128.58 84.79 129.73 85.17 130.76 Z M 85.51 131.69 L 85.84 132.62 C 86.22 133.65 87.36 134.19 88.40 133.81 C 89.44 133.44 89.97 132.29 89.60 131.26 L 89.26 130.33 C 88.89 129.29 87.74 128.76 86.71 129.13 C 85.67 129.51 85.13 130.65 85.51 131.69 Z M 85.84 132.61 L 86.17 133.52 C 86.54 134.56 87.68 135.10 88.72 134.73 C 89.76 134.36 90.30 133.22 89.93 132.18 L 89.60 131.27 C 89.23 130.23 88.09 129.69 87.05 130.06 C 86.01 130.43 85.47 131.57 85.84 132.61 Z M 86.16 133.51 L 86.49 134.45 C 86.86 135.49 88.00 136.04 89.04 135.67 C 90.08 135.31 90.62 134.17 90.26 133.13 L 89.93 132.19 C 89.56 131.15 88.43 130.60 87.38 130.97 C 86.34 131.33 85.80 132.47 86.16 133.51 Z M 86.49 134.44 L 86.83 135.42 C 87.19 136.46 88.33 137.01 89.37 136.65 C 90.41 136.29 90.96 135.15 90.60 134.11 L 90.26 133.13 C 89.90 132.09 88.76 131.54 87.72 131.90 C 86.68 132.26 86.13 133.40 86.49 134.44 Z M 86.83 135.42 L 87.16 136.38 C 87.52 137.42 88.65 137.97 89.70 137.61 C 90.74 137.25 91.29 136.12 90.93 135.07 L 90.60 134.11 C 90.24 133.07 89.11 132.52 88.06 132.88 C 87.02 133.24 86.47 134.37 86.83 135.42 Z M 87.16 136.38 L 87.49 137.32 C 87.85 138.37 88.98 138.92 90.02 138.56 C 91.07 138.20 91.62 137.06 91.26 136.02 L 90.93 135.07 C 90.57 134.03 89.44 133.48 88.39 133.84 C 87.35 134.20 86.80 135.33 87.16 136.38 Z M 87.49 137.33 L 87.81 138.26 C 88.17 139.30 89.31 139.85 90.35 139.49 C 91.39 139.13 91.95 137.99 91.58 136.95 L 91.26 136.02 C 90.90 134.97 89.76 134.42 88.72 134.79 C 87.68 135.15 87.13 136.29 87.49 137.33 Z M 87.81 138.27 L 88.14 139.19 C 88.51 140.23 89.65 140.77 90.69 140.41 C 91.73 140.04 92.27 138.90 91.90 137.86 L 91.58 136.94 C 91.21 135.90 90.07 135.36 89.03 135.72 C 87.99 136.09 87.45 137.23 87.81 138.27 Z M 88.14 139.20 L 88.47 140.11 C 88.85 141.15 89.99 141.69 91.03 141.31 C 92.07 140.94 92.60 139.80 92.23 138.76 L 91.90 137.85 C 91.53 136.81 90.38 136.27 89.34 136.65 C 88.31 137.02 87.77 138.17 88.14 139.20 Z M 88.48 140.13 L 88.83 141.09 C 89.22 142.12 90.37 142.65 91.40 142.26 C 92.43 141.88 92.96 140.73 92.58 139.70 L 92.22 138.74 C 91.84 137.71 90.69 137.18 89.66 137.56 C 88.62 137.95 88.10 139.10 88.48 140.13 Z M 88.84 141.10 L 89.20 142.05 C 89.59 143.08 90.75 143.59 91.78 143.20 C 92.81 142.81 93.32 141.66 92.93 140.63 L 92.57 139.68 C 92.18 138.65 91.03 138.13 90.00 138.53 C 88.97 138.92 88.45 140.07 88.84 141.10 Z M 89.21 142.06 L 89.57 142.99 C 89.97 144.02 91.13 144.53 92.15 144.13 C 93.18 143.73 93.69 142.57 93.29 141.55 L 92.92 140.61 C 92.52 139.58 91.37 139.08 90.34 139.48 C 89.31 139.88 88.81 141.03 89.21 142.06 Z M 89.57 143.01 L 89.94 143.93 C 90.35 144.96 91.51 145.46 92.53 145.05 C 93.56 144.64 94.06 143.48 93.65 142.46 L 93.28 141.53 C 92.88 140.51 91.72 140.01 90.69 140.42 C 89.67 140.82 89.17 141.98 89.57 143.01 Z M 89.95 143.94 L 90.31 144.86 C 90.73 145.88 91.89 146.37 92.91 145.96 C 93.93 145.55 94.43 144.39 94.02 143.37 L 93.65 142.45 C 93.24 141.43 92.07 140.93 91.05 141.34 C 90.03 141.76 89.53 142.92 89.95 143.94 Z M 90.32 144.86 L 90.69 145.78 C 91.10 146.80 92.27 147.29 93.29 146.87 C 94.31 146.46 94.80 145.29 94.38 144.27 L 94.01 143.36 C 93.60 142.34 92.43 141.85 91.41 142.26 C 90.39 142.68 89.90 143.84 90.32 144.86 Z M 90.69 145.78 L 91.08 146.73 C 91.50 147.75 92.66 148.23 93.68 147.82 C 94.70 147.40 95.19 146.23 94.77 145.21 L 94.38 144.27 C 93.96 143.25 92.80 142.76 91.78 143.18 C 90.76 143.60 90.27 144.76 90.69 145.78 Z M 91.08 146.74 L 91.47 147.67 C 91.90 148.69 93.06 149.17 94.08 148.75 C 95.10 148.33 95.58 147.16 95.15 146.14 L 94.77 145.21 C 94.34 144.19 93.18 143.71 92.16 144.13 C 91.14 144.55 90.66 145.72 91.08 146.74 Z M 91.48 147.69 L 91.87 148.61 C 92.30 149.62 93.47 150.10 94.48 149.67 C 95.50 149.24 95.97 148.07 95.54 147.06 L 95.15 146.13 C 94.72 145.12 93.55 144.65 92.54 145.07 C 91.52 145.50 91.05 146.67 91.48 147.69 Z M 91.88 148.63 L 92.28 149.54 C 92.71 150.55 93.89 151.01 94.90 150.57 C 95.90 150.13 96.37 148.96 95.93 147.95 L 95.53 147.04 C 95.09 146.03 93.92 145.57 92.91 146.01 C 91.90 146.45 91.44 147.62 91.88 148.63 Z M 92.29 149.56 L 92.69 150.45 C 93.14 151.46 94.31 151.91 95.32 151.46 C 96.32 151.01 96.77 149.83 96.32 148.83 L 95.92 147.93 C 95.47 146.93 94.29 146.48 93.29 146.93 C 92.29 147.38 91.84 148.56 92.29 149.56 Z M 92.70 150.48 L 93.12 151.37 C 93.58 152.37 94.76 152.80 95.76 152.34 C 96.76 151.88 97.19 150.69 96.72 149.70 L 96.31 148.80 C 95.84 147.80 94.66 147.37 93.66 147.84 C 92.67 148.30 92.24 149.48 92.70 150.48 Z M 93.13 151.41 L 93.57 152.31 C 94.05 153.30 95.24 153.71 96.23 153.23 C 97.22 152.75 97.63 151.56 97.15 150.58 L 96.71 149.67 C 96.23 148.68 95.04 148.27 94.05 148.75 C 93.06 149.23 92.65 150.42 93.13 151.41 Z M 93.59 152.35 L 94.05 153.24 C 94.55 154.22 95.75 154.60 96.72 154.10 C 97.70 153.60 98.09 152.40 97.59 151.43 L 97.13 150.54 C 96.63 149.56 95.43 149.18 94.46 149.68 C 93.48 150.18 93.09 151.37 93.59 152.35 Z M 94.07 153.28 L 94.55 154.15 C 95.07 155.12 96.27 155.47 97.24 154.95 C 98.20 154.43 98.56 153.22 98.04 152.26 L 97.56 151.39 C 97.04 150.42 95.83 150.07 94.87 150.59 C 93.91 151.11 93.55 152.32 94.07 153.28 Z M 94.57 154.20 L 95.07 155.06 C 95.62 156.01 96.83 156.33 97.78 155.78 C 98.73 155.24 99.05 154.02 98.51 153.08 L 98.01 152.22 C 97.46 151.27 96.25 150.94 95.30 151.49 C 94.35 152.04 94.03 153.25 94.57 154.20 Z M 95.10 155.11 L 95.62 155.95 C 96.20 156.89 97.42 157.18 98.35 156.60 C 99.28 156.03 99.57 154.81 99.00 153.88 L 98.48 153.03 C 97.90 152.10 96.68 151.80 95.75 152.38 C 94.82 152.95 94.53 154.17 95.10 155.11 Z M 95.65 156.00 L 96.20 156.83 C 96.80 157.75 98.03 158.00 98.94 157.40 C 99.85 156.80 100.11 155.58 99.51 154.66 L 98.97 153.83 C 98.37 152.92 97.14 152.66 96.22 153.26 C 95.31 153.86 95.05 155.09 95.65 156.00 Z M 96.23 156.87 L 96.80 157.69 C 97.41 158.59 98.65 158.82 99.55 158.20 C 100.44 157.58 100.67 156.35 100.05 155.45 L 99.48 154.63 C 98.86 153.73 97.63 153.50 96.73 154.12 C 95.83 154.74 95.61 155.97 96.23 156.87 Z M 96.82 157.72 L 97.40 158.54 C 98.04 159.42 99.27 159.63 100.16 158.99 C 101.04 158.36 101.25 157.13 100.61 156.24 L 100.03 155.42 C 99.39 154.54 98.16 154.33 97.27 154.97 C 96.39 155.60 96.18 156.83 96.82 157.72 Z M 97.42 158.55 L 98.01 159.36 C 98.65 160.24 99.89 160.43 100.77 159.79 C 101.64 159.14 101.83 157.91 101.19 157.03 L 100.60 156.22 C 99.95 155.35 98.72 155.16 97.84 155.80 C 96.96 156.44 96.77 157.68 97.42 158.55 Z M 98.02 159.37 L 98.61 160.17 C 99.26 161.05 100.50 161.23 101.37 160.58 C 102.24 159.93 102.42 158.70 101.78 157.83 L 101.18 157.03 C 100.53 156.15 99.30 155.97 98.43 156.62 C 97.55 157.27 97.37 158.50 98.02 159.37 Z M 98.61 160.17 L 99.22 160.99 C 99.87 161.87 101.10 162.05 101.97 161.40 C 102.85 160.76 103.03 159.53 102.39 158.65 L 101.78 157.83 C 101.13 156.96 99.90 156.77 99.03 157.42 C 98.15 158.07 97.97 159.30 98.61 160.17 Z M 99.19 160.94 L 99.77 161.78 C 100.39 162.68 101.61 162.90 102.50 162.28 C 103.40 161.67 103.62 160.44 103.00 159.55 L 102.42 158.71 C 101.81 157.81 100.58 157.59 99.69 158.21 C 98.80 158.82 98.57 160.05 99.19 160.94 Z M 99.68 161.64 L 100.17 162.50 C 100.71 163.45 101.91 163.77 102.85 163.23 C 103.80 162.70 104.12 161.50 103.59 160.55 L 103.09 159.69 C 102.55 158.75 101.35 158.42 100.41 158.96 C 99.47 159.50 99.14 160.70 99.68 161.64 Z M 100.05 162.25 L 100.40 163.14 C 100.80 164.15 101.94 164.65 102.95 164.25 C 103.96 163.86 104.46 162.72 104.06 161.71 L 103.71 160.81 C 103.31 159.80 102.17 159.30 101.16 159.70 C 100.15 160.10 99.65 161.24 100.05 162.25 Z M 100.30 162.76 L 100.46 163.71 C 100.65 164.78 101.66 165.49 102.73 165.31 C 103.80 165.12 104.52 164.11 104.33 163.04 L 104.17 162.09 C 103.98 161.02 102.97 160.31 101.90 160.49 C 100.83 160.68 100.11 161.69 100.30 162.76 Z M 100.44 163.26 L 100.38 164.18 C 100.31 165.26 101.14 166.20 102.22 166.26 C 103.31 166.33 104.24 165.50 104.30 164.42 L 104.36 163.49 C 104.42 162.41 103.60 161.48 102.51 161.41 C 101.43 161.35 100.50 162.17 100.44 163.26 Z M 100.43 163.82 L 100.21 164.72 C 99.95 165.77 100.59 166.84 101.64 167.10 C 102.70 167.37 103.77 166.72 104.03 165.67 L 104.25 164.77 C 104.51 163.72 103.87 162.65 102.82 162.39 C 101.76 162.13 100.69 162.77 100.43 163.82 Z M 100.27 164.49 L 99.92 165.41 C 99.54 166.43 100.05 167.57 101.07 167.96 C 102.09 168.35 103.23 167.83 103.61 166.82 L 103.96 165.89 C 104.35 164.88 103.84 163.73 102.82 163.35 C 101.80 162.96 100.66 163.47 100.27 164.49 Z M 99.98 165.26 L 99.54 166.20 C 99.07 167.19 99.49 168.37 100.48 168.84 C 101.46 169.30 102.64 168.88 103.11 167.90 L 103.56 166.96 C 104.03 165.98 103.61 164.79 102.62 164.33 C 101.63 163.86 100.45 164.28 99.98 165.26 Z M 99.58 166.10 L 99.08 167.03 C 98.56 168.00 98.92 169.20 99.88 169.72 C 100.85 170.24 102.05 169.88 102.57 168.92 L 103.07 167.99 C 103.59 167.02 103.23 165.82 102.27 165.30 C 101.30 164.78 100.10 165.14 99.58 166.10 Z M 99.10 166.98 L 98.58 167.89 C 98.03 168.84 98.36 170.06 99.31 170.61 C 100.27 171.16 101.48 170.83 102.03 169.87 L 102.55 168.97 C 103.10 168.01 102.77 166.80 101.82 166.25 C 100.86 165.70 99.65 166.03 99.10 166.98 Z M 98.58 167.88 L 98.09 168.72 C 97.53 169.67 97.86 170.89 98.81 171.45 C 99.76 172.00 100.98 171.68 101.54 170.73 L 102.03 169.89 C 102.58 168.93 102.26 167.71 101.31 167.16 C 100.36 166.60 99.14 166.92 98.58 167.88 Z M 98.08 168.73 L 97.63 169.50 C 97.09 170.46 97.42 171.68 98.37 172.23 C 99.33 172.78 100.55 172.45 101.10 171.49 L 101.55 170.72 C 102.10 169.76 101.77 168.54 100.81 167.99 C 99.85 167.44 98.63 167.77 98.08 168.73 Z M 97.62 169.52 L 97.19 170.30 C 96.65 171.26 96.99 172.48 97.96 173.02 C 98.92 173.56 100.14 173.22 100.68 172.25 L 101.11 171.48 C 101.65 170.51 101.31 169.29 100.35 168.75 C 99.38 168.21 98.16 168.56 97.62 169.52 Z M 97.18 170.32 L 96.74 171.13 C 96.21 172.10 96.57 173.31 97.54 173.84 C 98.51 174.37 99.72 174.01 100.25 173.04 L 100.69 172.23 C 101.22 171.26 100.86 170.05 99.89 169.52 C 98.92 168.99 97.70 169.35 97.18 170.32 Z M 96.72 171.15 L 96.26 172.02 C 95.75 173.00 96.12 174.21 97.10 174.72 C 98.08 175.24 99.29 174.87 99.81 173.89 L 100.26 173.02 C 100.78 172.04 100.41 170.83 99.43 170.31 C 98.45 169.80 97.24 170.17 96.72 171.15 Z M 96.25 172.04 L 95.76 173.00 C 95.25 173.98 95.64 175.19 96.63 175.70 C 97.61 176.20 98.82 175.81 99.32 174.83 L 99.82 173.87 C 100.32 172.88 99.93 171.68 98.95 171.17 C 97.96 170.67 96.76 171.05 96.25 172.04 Z M 95.75 173.02 L 95.21 174.10 C 94.71 175.09 95.12 176.29 96.11 176.78 C 97.10 177.28 98.30 176.88 98.79 175.89 L 99.33 174.81 C 99.83 173.82 99.43 172.62 98.44 172.12 C 97.45 171.63 96.25 172.03 95.75 173.02 Z M 95.20 174.11 L 94.77 174.99 C 94.28 175.99 94.69 177.19 95.68 177.68 C 96.68 178.16 97.88 177.75 98.37 176.76 L 98.80 175.88 C 99.29 174.88 98.88 173.68 97.89 173.19 C 96.89 172.70 95.69 173.11 95.20 174.11 Z M 94.76 175.00 L 94.35 175.86 C 93.86 176.86 94.28 178.06 95.27 178.54 C 96.27 179.02 97.47 178.61 97.95 177.61 L 98.37 176.75 C 98.86 175.76 98.44 174.56 97.44 174.07 C 96.45 173.59 95.25 174.00 94.76 175.00 Z M 94.34 175.87 L 93.91 176.77 C 93.43 177.77 93.85 178.97 94.85 179.45 C 95.84 179.93 97.04 179.51 97.52 178.51 L 97.96 177.61 C 98.44 176.61 98.02 175.41 97.02 174.93 C 96.02 174.45 94.82 174.87 94.34 175.87 Z M 93.90 176.78 L 93.46 177.71 C 92.98 178.71 93.40 179.91 94.40 180.39 C 95.40 180.86 96.60 180.44 97.08 179.44 L 97.53 178.50 C 98.00 177.50 97.58 176.31 96.58 175.83 C 95.58 175.35 94.38 175.78 93.90 176.78 Z M 93.45 177.72 L 93.00 178.67 C 92.53 179.67 92.96 180.87 93.96 181.34 C 94.96 181.82 96.16 181.39 96.63 180.39 L 97.08 179.44 C 97.56 178.43 97.13 177.24 96.13 176.76 C 95.13 176.29 93.93 176.71 93.45 177.72 Z M 93.00 178.68 L 92.55 179.63 C 92.08 180.64 92.51 181.83 93.51 182.31 C 94.51 182.78 95.71 182.35 96.18 181.34 L 96.63 180.38 C 97.11 179.38 96.67 178.19 95.67 177.71 C 94.67 177.24 93.47 177.67 93.00 178.68 Z M 92.55 179.64 L 92.10 180.59 C 91.63 181.60 92.07 182.79 93.07 183.26 C 94.08 183.73 95.27 183.30 95.74 182.29 L 96.19 181.34 C 96.65 180.33 96.22 179.14 95.22 178.67 C 94.21 178.20 93.01 178.63 92.55 179.64 Z M 92.10 180.60 L 91.67 181.52 C 91.20 182.53 91.64 183.73 92.65 184.19 C 93.65 184.66 94.85 184.22 95.31 183.21 L 95.74 182.28 C 96.21 181.28 95.77 180.08 94.77 179.62 C 93.76 179.15 92.57 179.59 92.10 180.60 Z M 91.66 181.53 L 91.25 182.42 C 90.79 183.43 91.23 184.63 92.24 185.09 C 93.25 185.55 94.44 185.11 94.91 184.10 L 95.32 183.21 C 95.78 182.20 95.34 181.01 94.33 180.54 C 93.32 180.08 92.13 180.52 91.66 181.53 Z M 91.25 182.43 L 90.86 183.28 C 90.40 184.29 90.85 185.48 91.86 185.94 C 92.87 186.40 94.06 185.95 94.52 184.94 L 94.91 184.10 C 95.37 183.09 94.92 181.89 93.91 181.43 C 92.90 180.97 91.71 181.42 91.25 182.43 Z M 90.86 183.29 L 90.36 184.40 C 89.90 185.41 90.36 186.60 91.37 187.06 C 92.38 187.51 93.57 187.06 94.03 186.05 L 94.53 184.93 C 94.98 183.92 94.53 182.73 93.52 182.28 C 92.51 181.82 91.32 182.27 90.86 183.29 Z M 90.35 184.41 L 89.88 185.48 C 89.43 186.50 89.89 187.69 90.91 188.13 C 91.93 188.58 93.11 188.12 93.56 187.11 L 94.03 186.04 C 94.48 185.02 94.02 183.83 93.01 183.38 C 91.99 182.94 90.80 183.40 90.35 184.41 Z M 89.88 185.50 L 89.46 186.46 C 89.02 187.48 89.49 188.66 90.51 189.10 C 91.53 189.54 92.71 189.07 93.15 188.05 L 93.57 187.09 C 94.01 186.07 93.54 184.89 92.52 184.45 C 91.50 184.01 90.32 184.48 89.88 185.50 Z M 89.45 186.47 L 89.08 187.34 C 88.65 188.37 89.13 189.55 90.15 189.98 C 91.17 190.41 92.35 189.94 92.79 188.91 L 93.16 188.04 C 93.59 187.02 93.11 185.84 92.09 185.40 C 91.07 184.97 89.89 185.45 89.45 186.47 Z M 89.08 187.36 L 88.74 188.16 C 88.32 189.19 88.80 190.37 89.83 190.79 C 90.85 191.22 92.03 190.74 92.45 189.71 L 92.79 188.90 C 93.22 187.88 92.73 186.70 91.71 186.27 C 90.68 185.85 89.51 186.33 89.08 187.36 Z M 88.74 188.17 L 88.42 188.94 C 88.00 189.97 88.49 191.14 89.52 191.57 C 90.54 191.99 91.72 191.50 92.14 190.47 L 92.46 189.70 C 92.88 188.68 92.39 187.50 91.36 187.08 C 90.34 186.66 89.16 187.15 88.74 188.17 Z M 88.42 188.95 L 88.09 189.76 C 87.67 190.78 88.16 191.96 89.19 192.38 C 90.22 192.80 91.39 192.31 91.81 191.28 L 92.14 190.47 C 92.56 189.44 92.07 188.27 91.04 187.85 C 90.02 187.43 88.84 187.92 88.42 188.95 Z M 88.09 189.76 L 87.72 190.67 C 87.30 191.69 87.79 192.87 88.81 193.29 C 89.84 193.71 91.02 193.22 91.44 192.19 L 91.81 191.28 C 92.23 190.25 91.74 189.08 90.71 188.66 C 89.69 188.24 88.51 188.73 88.09 189.76 Z M 87.72 190.66 L 87.34 191.58 C 86.92 192.60 87.41 193.78 88.43 194.20 C 89.46 194.62 90.64 194.13 91.06 193.11 L 91.44 192.19 C 91.86 191.17 91.37 189.99 90.34 189.57 C 89.32 189.15 88.14 189.64 87.72 190.66 Z M 87.35 191.57 L 86.96 192.49 C 86.53 193.51 87.02 194.69 88.04 195.12 C 89.07 195.55 90.24 195.06 90.67 194.04 L 91.06 193.12 C 91.48 192.09 91.00 190.91 89.97 190.49 C 88.95 190.06 87.77 190.54 87.35 191.57 Z M 86.97 192.48 L 86.57 193.41 C 86.14 194.43 86.62 195.61 87.64 196.04 C 88.66 196.48 89.84 196.00 90.27 194.98 L 90.67 194.05 C 91.10 193.02 90.62 191.84 89.60 191.41 C 88.58 190.98 87.40 191.46 86.97 192.48 Z M 86.58 193.40 L 86.17 194.34 C 85.73 195.36 86.20 196.54 87.22 196.98 C 88.24 197.42 89.42 196.95 89.86 195.93 L 90.27 194.99 C 90.71 193.97 90.24 192.79 89.22 192.35 C 88.20 191.91 87.02 192.38 86.58 193.40 Z M 86.18 194.33 L 85.79 195.21 C 85.34 196.23 85.81 197.41 86.82 197.86 C 87.84 198.30 89.02 197.84 89.47 196.83 L 89.86 195.94 C 90.30 194.93 89.84 193.74 88.82 193.30 C 87.81 192.85 86.62 193.31 86.18 194.33 Z M 85.79 195.20 L 85.40 196.10 C 84.95 197.11 85.40 198.30 86.42 198.75 C 87.43 199.20 88.62 198.74 89.07 197.73 L 89.47 196.83 C 89.92 195.82 89.46 194.63 88.45 194.18 C 87.43 193.73 86.25 194.19 85.79 195.20 Z M 85.40 196.09 L 84.99 197.00 C 84.54 198.01 84.99 199.20 86.01 199.66 C 87.02 200.11 88.21 199.65 88.66 198.64 L 89.06 197.73 C 89.52 196.72 89.06 195.53 88.05 195.08 C 87.04 194.63 85.85 195.08 85.40 196.09 Z M 84.99 197.00 L 84.58 197.92 C 84.13 198.94 84.58 200.12 85.59 200.58 C 86.60 201.03 87.79 200.58 88.24 199.56 L 88.66 198.64 C 89.11 197.63 88.66 196.44 87.65 195.99 C 86.63 195.54 85.45 195.99 84.99 197.00 Z M 84.58 197.93 L 84.16 198.86 C 83.71 199.87 84.17 201.06 85.18 201.51 C 86.19 201.96 87.38 201.51 87.83 200.50 L 88.25 199.56 C 88.70 198.55 88.24 197.36 87.23 196.91 C 86.22 196.46 85.03 196.92 84.58 197.93 Z M 84.16 198.87 L 83.75 199.80 C 83.30 200.82 83.76 202.00 84.77 202.45 C 85.79 202.90 86.97 202.44 87.42 201.42 L 87.83 200.49 C 88.28 199.48 87.82 198.29 86.81 197.84 C 85.79 197.40 84.61 197.86 84.16 198.87 Z M 83.75 199.81 L 83.35 200.71 C 82.91 201.73 83.37 202.91 84.39 203.35 C 85.40 203.80 86.58 203.33 87.03 202.32 L 87.42 201.42 C 87.86 200.40 87.40 199.22 86.39 198.78 C 85.37 198.33 84.19 198.80 83.75 199.81 Z M 83.35 200.72 L 82.96 201.63 C 82.52 202.64 82.98 203.82 84.00 204.26 C 85.01 204.70 86.19 204.24 86.63 203.22 L 87.03 202.31 C 87.47 201.30 87.00 200.12 85.99 199.68 C 84.97 199.24 83.79 199.70 83.35 200.72 Z M 82.96 201.63 L 82.56 202.55 C 82.12 203.56 82.59 204.74 83.60 205.18 C 84.62 205.62 85.80 205.15 86.24 204.14 L 86.63 203.22 C 87.07 202.20 86.61 201.03 85.59 200.59 C 84.57 200.15 83.40 200.62 82.96 201.63 Z M 82.56 202.55 L 82.16 203.47 C 81.72 204.49 82.19 205.66 83.20 206.10 C 84.22 206.54 85.40 206.08 85.84 205.06 L 86.24 204.14 C 86.68 203.12 86.21 201.95 85.19 201.51 C 84.18 201.07 83.00 201.53 82.56 202.55 Z M 82.16 203.47 L 81.76 204.39 C 81.32 205.41 81.78 206.59 82.80 207.03 C 83.81 207.47 84.99 207.01 85.43 205.99 L 85.83 205.07 C 86.28 204.05 85.81 202.87 84.80 202.43 C 83.78 201.99 82.61 202.45 82.16 203.47 Z M 81.76 204.39 L 81.36 205.32 C 80.91 206.33 81.37 207.51 82.38 207.95 C 83.39 208.40 84.57 207.94 85.02 206.93 L 85.43 206.00 C 85.87 204.99 85.41 203.81 84.40 203.36 C 83.39 202.92 82.21 203.38 81.76 204.39 Z M 81.36 205.31 L 80.95 206.22 C 80.50 207.23 80.96 208.41 81.97 208.86 C 82.97 209.31 84.16 208.86 84.61 207.85 L 85.01 206.94 C 85.46 205.93 85.01 204.74 84.00 204.30 C 82.99 203.85 81.81 204.30 81.36 205.31 Z M 80.96 206.21 L 80.55 207.13 C 80.09 208.13 80.54 209.32 81.55 209.77 C 82.55 210.22 83.73 209.78 84.19 208.77 L 84.60 207.86 C 85.05 206.85 84.61 205.67 83.60 205.22 C 82.60 204.76 81.41 205.21 80.96 206.21 Z M 80.55 207.12 L 80.14 208.03 C 79.68 209.04 80.12 210.22 81.12 210.68 C 82.13 211.13 83.31 210.69 83.77 209.69 L 84.18 208.78 C 84.64 207.78 84.20 206.59 83.20 206.13 C 82.19 205.68 81.01 206.12 80.55 207.12 Z M 80.14 208.03 L 79.72 208.94 C 79.26 209.94 79.70 211.12 80.70 211.58 C 81.70 212.04 82.88 211.61 83.34 210.61 L 83.76 209.70 C 84.22 208.70 83.79 207.51 82.79 207.05 C 81.79 206.59 80.60 207.03 80.14 208.03 Z M 79.73 208.93 L 79.31 209.84 C 78.84 210.83 79.27 212.02 80.27 212.48 C 81.27 212.95 82.45 212.51 82.92 211.52 L 83.34 210.61 C 83.80 209.61 83.37 208.43 82.37 207.97 C 81.37 207.50 80.19 207.93 79.73 208.93 Z M 79.31 209.83 L 78.89 210.73 C 78.42 211.73 78.85 212.91 79.85 213.38 C 80.84 213.85 82.03 213.42 82.49 212.42 L 82.91 211.52 C 83.38 210.53 82.95 209.34 81.96 208.87 C 80.96 208.41 79.78 208.84 79.31 209.83 Z M 78.89 210.73 L 78.47 211.63 C 78.00 212.63 78.42 213.81 79.42 214.28 C 80.41 214.75 81.59 214.32 82.06 213.33 L 82.49 212.43 C 82.96 211.43 82.53 210.25 81.54 209.78 C 80.54 209.31 79.36 209.74 78.89 210.73 Z M 78.47 211.63 L 78.04 212.53 C 77.57 213.52 77.99 214.71 78.98 215.18 C 79.98 215.65 81.16 215.23 81.63 214.23 L 82.06 213.33 C 82.53 212.34 82.11 211.16 81.11 210.69 C 80.12 210.22 78.94 210.64 78.47 211.63 Z M 78.05 212.53 L 77.62 213.43 C 77.14 214.42 77.56 215.60 78.55 216.07 C 79.54 216.54 80.72 216.13 81.20 215.14 L 81.63 214.24 C 82.10 213.25 81.68 212.07 80.69 211.59 C 79.70 211.12 78.52 211.54 78.05 212.53 Z M 77.62 213.42 L 77.19 214.32 C 76.71 215.31 77.13 216.49 78.12 216.97 C 79.10 217.44 80.29 217.03 80.76 216.04 L 81.19 215.14 C 81.67 214.15 81.25 212.97 80.26 212.50 C 79.28 212.02 78.10 212.44 77.62 213.42 Z M 77.19 214.32 L 76.76 215.22 C 76.28 216.20 76.69 217.39 77.68 217.86 C 78.66 218.34 79.84 217.93 80.32 216.94 L 80.76 216.04 C 81.23 215.06 80.82 213.88 79.84 213.40 C 78.85 212.92 77.67 213.34 77.19 214.32 Z M 76.76 215.22 L 76.32 216.12 C 75.84 217.10 76.25 218.28 77.23 218.76 C 78.21 219.24 79.40 218.83 79.88 217.85 L 80.32 216.95 C 80.79 215.97 80.39 214.78 79.40 214.30 C 78.42 213.83 77.24 214.23 76.76 215.22 Z M 76.33 216.11 L 75.90 216.98 C 75.42 217.96 75.83 219.14 76.81 219.62 C 77.78 220.10 78.97 219.69 79.45 218.72 L 79.87 217.85 C 80.35 216.87 79.95 215.69 78.97 215.21 C 77.99 214.73 76.81 215.14 76.33 216.11 Z M 75.91 216.97 L 75.49 217.82 C 75.01 218.79 75.41 219.97 76.39 220.46 C 77.36 220.94 78.54 220.54 79.03 219.56 L 79.44 218.72 C 79.92 217.74 79.52 216.56 78.55 216.08 C 77.57 215.60 76.39 216.00 75.91 216.97 Z M 75.50 217.81 L 75.07 218.67 C 74.59 219.64 74.98 220.82 75.96 221.30 C 76.93 221.79 78.11 221.39 78.59 220.42 L 79.02 219.57 C 79.51 218.59 79.11 217.41 78.14 216.93 C 77.16 216.44 75.98 216.84 75.50 217.81 Z M 75.08 218.66 L 74.64 219.54 C 74.15 220.51 74.54 221.69 75.51 222.17 C 76.48 222.66 77.66 222.27 78.15 221.30 L 78.59 220.43 C 79.08 219.46 78.69 218.28 77.72 217.79 C 76.75 217.30 75.57 217.69 75.08 218.66 Z M 74.64 219.53 L 74.19 220.43 C 73.70 221.40 74.08 222.58 75.05 223.07 C 76.01 223.56 77.19 223.17 77.68 222.21 L 78.14 221.31 C 78.63 220.34 78.25 219.16 77.28 218.67 C 76.32 218.18 75.14 218.56 74.64 219.53 Z M 74.19 220.42 L 73.71 221.35 C 73.22 222.32 73.60 223.50 74.56 223.99 C 75.52 224.49 76.70 224.11 77.20 223.15 L 77.68 222.22 C 78.17 221.25 77.79 220.07 76.83 219.58 C 75.87 219.08 74.69 219.46 74.19 220.42 Z M 73.72 221.35 L 73.22 222.32 C 72.72 223.27 73.09 224.46 74.05 224.95 C 75.01 225.45 76.19 225.08 76.69 224.12 L 77.19 223.15 C 77.69 222.20 77.32 221.01 76.36 220.52 C 75.40 220.02 74.22 220.39 73.72 221.35 Z M 73.22 222.31 L 72.78 223.16 C 72.28 224.11 72.64 225.29 73.60 225.79 C 74.55 226.29 75.73 225.93 76.23 224.97 L 76.68 224.13 C 77.18 223.17 76.82 221.99 75.86 221.49 C 74.91 220.99 73.73 221.36 73.22 222.31 Z M 72.79 223.15 L 72.34 223.99 C 71.83 224.94 72.19 226.12 73.15 226.63 C 74.10 227.13 75.28 226.77 75.78 225.82 L 76.23 224.98 C 76.73 224.03 76.37 222.85 75.42 222.34 C 74.47 221.84 73.29 222.20 72.79 223.15 Z M 72.35 223.99 L 71.88 224.85 C 71.37 225.79 71.73 226.97 72.68 227.48 C 73.62 227.99 74.80 227.63 75.31 226.69 L 75.77 225.83 C 76.28 224.88 75.93 223.70 74.98 223.19 C 74.03 222.68 72.85 223.04 72.35 223.99 Z M 71.89 224.84 L 71.41 225.72 C 70.90 226.66 71.25 227.84 72.20 228.35 C 73.14 228.87 74.32 228.51 74.83 227.57 L 75.31 226.69 C 75.82 225.75 75.47 224.57 74.52 224.06 C 73.58 223.55 72.40 223.90 71.89 224.84 Z M 71.42 225.71 L 70.93 226.60 C 70.42 227.54 70.76 228.72 71.70 229.24 C 72.64 229.75 73.82 229.41 74.34 228.47 L 74.82 227.58 C 75.34 226.64 74.99 225.46 74.05 224.94 C 73.11 224.43 71.93 224.77 71.42 225.71 Z M 70.94 226.60 L 70.44 227.50 C 69.92 228.43 70.26 229.61 71.20 230.13 C 72.13 230.65 73.31 230.31 73.83 229.37 L 74.33 228.47 C 74.85 227.54 74.51 226.36 73.57 225.84 C 72.64 225.32 71.46 225.66 70.94 226.60 Z M 70.45 227.49 L 69.94 228.39 C 69.42 229.33 69.76 230.50 70.69 231.03 C 71.62 231.55 72.80 231.21 73.32 230.28 L 73.82 229.38 C 74.35 228.45 74.01 227.27 73.08 226.75 C 72.15 226.23 70.97 226.56 70.45 227.49 Z M 69.95 228.39 L 69.44 229.29 C 68.91 230.22 69.24 231.40 70.17 231.92 C 71.10 232.45 72.27 232.12 72.80 231.19 L 73.31 230.29 C 73.84 229.36 73.51 228.18 72.58 227.66 C 71.65 227.13 70.48 227.46 69.95 228.39 Z M 69.45 229.28 L 68.92 230.20 C 68.39 231.12 68.71 232.30 69.63 232.83 C 70.56 233.36 71.73 233.04 72.26 232.12 L 72.79 231.20 C 73.32 230.28 73.00 229.10 72.08 228.57 C 71.16 228.04 69.98 228.36 69.45 229.28 Z M 68.93 230.20 L 68.40 231.13 C 67.86 232.04 68.18 233.22 69.09 233.75 C 70.01 234.28 71.18 233.97 71.71 233.05 L 72.25 232.12 C 72.78 231.21 72.47 230.03 71.55 229.50 C 70.64 228.97 69.47 229.28 68.93 230.20 Z M 68.41 231.13 L 67.87 232.04 C 67.34 232.95 67.65 234.12 68.55 234.65 C 69.46 235.18 70.63 234.88 71.16 233.97 L 71.70 233.05 C 72.23 232.14 71.93 230.97 71.02 230.44 C 70.11 229.91 68.94 230.22 68.41 231.13 Z M 67.88 232.05 L 67.35 232.94 C 66.82 233.85 67.13 235.01 68.03 235.54 C 68.93 236.07 70.10 235.77 70.63 234.86 L 71.15 233.97 C 71.69 233.06 71.38 231.90 70.48 231.37 C 69.57 230.84 68.41 231.14 67.88 232.05 Z M 67.36 232.95 L 66.85 233.82 C 66.32 234.72 66.62 235.88 67.52 236.41 C 68.42 236.94 69.58 236.64 70.11 235.74 L 70.62 234.86 C 71.15 233.96 70.85 232.80 69.95 232.28 C 69.05 231.75 67.89 232.05 67.36 232.95 Z M 66.85 233.83 L 66.36 234.68 C 65.84 235.58 66.14 236.73 67.03 237.25 C 67.93 237.78 69.08 237.47 69.60 236.58 L 70.10 235.73 C 70.62 234.83 70.32 233.68 69.42 233.16 C 68.53 232.63 67.38 232.94 66.85 233.83 Z M 66.36 234.69 L 65.89 235.51 C 65.37 236.41 65.68 237.55 66.57 238.07 C 67.47 238.58 68.61 238.28 69.13 237.38 L 69.60 236.56 C 70.12 235.67 69.81 234.53 68.92 234.01 C 68.02 233.50 66.88 233.80 66.36 234.69 Z M 65.89 235.53 L 65.45 236.31 C 64.94 237.21 65.25 238.34 66.14 238.85 C 67.04 239.36 68.17 239.04 68.68 238.15 L 69.12 237.37 C 69.63 236.47 69.32 235.34 68.43 234.83 C 67.53 234.32 66.40 234.64 65.89 235.53 Z M 65.45 236.34 L 64.95 237.23 C 64.46 238.13 64.78 239.25 65.67 239.74 C 66.56 240.24 67.69 239.91 68.18 239.02 L 68.68 238.13 C 69.17 237.24 68.85 236.11 67.96 235.62 C 67.06 235.12 65.94 235.45 65.45 236.34 Z M 64.96 237.27 L 64.44 238.24 C 63.96 239.13 64.30 240.23 65.19 240.71 C 66.08 241.18 67.18 240.85 67.66 239.96 L 68.18 238.99 C 68.65 238.10 68.31 236.99 67.43 236.52 C 66.54 236.04 65.43 236.38 64.96 237.27 Z M 64.45 238.28 L 63.98 239.19 C 63.52 240.07 63.87 241.16 64.76 241.61 C 65.64 242.07 66.72 241.72 67.18 240.83 L 67.65 239.92 C 68.10 239.04 67.75 237.95 66.87 237.50 C 65.99 237.05 64.90 237.39 64.45 238.28 Z M 63.99 239.22 L 63.56 240.09 C 63.12 240.96 63.48 242.03 64.36 242.47 C 65.23 242.90 66.30 242.54 66.74 241.67 L 67.17 240.80 C 67.60 239.92 67.25 238.86 66.37 238.42 C 65.49 237.99 64.43 238.34 63.99 239.22 Z M 63.57 240.11 L 63.17 240.95 C 62.75 241.82 63.11 242.86 63.98 243.29 C 64.85 243.71 65.90 243.34 66.32 242.48 L 66.72 241.64 C 67.14 240.77 66.78 239.73 65.91 239.30 C 65.04 238.88 64.00 239.24 63.57 240.11 Z M 63.19 240.97 L 62.80 241.79 C 62.39 242.65 62.75 243.67 63.61 244.09 C 64.47 244.50 65.50 244.13 65.91 243.27 L 66.30 242.46 C 66.71 241.60 66.35 240.57 65.49 240.16 C 64.63 239.75 63.60 240.11 63.19 240.97 Z M 62.81 241.80 L 62.74 241.93 C 62.34 242.79 62.70 243.81 63.55 244.21 C 64.40 244.62 65.42 244.26 65.83 243.40 L 65.90 243.26 C 66.30 242.41 65.94 241.39 65.09 240.99 C 64.23 240.58 63.22 240.94 62.81 241.80 Z"
      fill="black"
      fill-rule="nonzero" /><path d="M 92.09 83.65 L 91.54 84.54 C 91.03 85.39 91.30 86.48 92.14 87.00 C 92.98 87.51 94.08 87.24 94.59 86.40 L 95.13 85.51 C 95.65 84.67 95.38 83.57 94.54 83.06 C 93.70 82.54 92.60 82.81 92.09 83.65 Z M 91.49 84.59 L 90.99 85.49 C 90.50 86.36 90.81 87.46 91.68 87.95 C 92.56 88.43 93.66 88.12 94.14 87.25 L 94.64 86.35 C 95.13 85.48 94.82 84.38 93.95 83.90 C 93.07 83.41 91.97 83.72 91.49 84.59 Z M 90.90 85.62 L 90.49 86.52 C 90.07 87.44 90.48 88.53 91.40 88.94 C 92.31 89.36 93.40 88.96 93.82 88.04 L 94.23 87.13 C 94.65 86.21 94.24 85.13 93.32 84.71 C 92.40 84.29 91.32 84.70 90.90 85.62 Z M 90.38 86.74 L 90.10 87.67 C 89.81 88.64 90.36 89.68 91.34 89.97 C 92.31 90.27 93.35 89.72 93.64 88.74 L 93.92 87.82 C 94.22 86.84 93.67 85.81 92.69 85.51 C 91.71 85.21 90.68 85.77 90.38 86.74 Z M 90.01 88.00 L 89.91 88.94 C 89.80 89.97 90.54 90.89 91.57 91.00 C 92.59 91.12 93.52 90.37 93.63 89.35 L 93.73 88.41 C 93.84 87.38 93.10 86.45 92.07 86.34 C 91.05 86.23 90.12 86.97 90.01 88.00 Z M 89.89 89.35 L 89.99 90.25 C 90.11 91.29 91.04 92.03 92.07 91.92 C 93.11 91.81 93.85 90.88 93.74 89.84 L 93.64 88.94 C 93.53 87.90 92.60 87.16 91.57 87.27 C 90.53 87.38 89.78 88.31 89.89 89.35 Z M 90.05 90.58 L 90.32 91.48 C 90.61 92.49 91.66 93.06 92.67 92.77 C 93.67 92.47 94.24 91.42 93.95 90.42 L 93.68 89.51 C 93.39 88.51 92.34 87.94 91.33 88.23 C 90.33 88.53 89.76 89.58 90.05 90.58 Z M 90.40 91.71 L 90.80 92.62 C 91.22 93.58 92.33 94.02 93.29 93.60 C 94.25 93.18 94.69 92.06 94.27 91.10 L 93.87 90.19 C 93.45 89.23 92.33 88.80 91.37 89.22 C 90.41 89.64 89.98 90.75 90.40 91.71 Z M 90.87 92.77 L 91.36 93.68 C 91.87 94.60 93.02 94.93 93.94 94.43 C 94.86 93.93 95.20 92.77 94.69 91.85 L 94.20 90.95 C 93.69 90.03 92.54 89.69 91.62 90.20 C 90.70 90.70 90.36 91.85 90.87 92.77 Z M 91.42 93.78 L 91.97 94.67 C 92.53 95.56 93.70 95.83 94.60 95.27 C 95.49 94.72 95.76 93.54 95.20 92.65 L 94.64 91.76 C 94.08 90.87 92.91 90.60 92.02 91.15 C 91.13 91.71 90.86 92.88 91.42 93.78 Z M 92.01 94.72 L 92.59 95.59 C 93.18 96.46 94.36 96.69 95.23 96.11 C 96.11 95.52 96.34 94.34 95.75 93.46 L 95.17 92.60 C 94.58 91.72 93.40 91.49 92.52 92.08 C 91.65 92.67 91.42 93.85 92.01 94.72 Z M 92.60 95.62 L 93.18 96.44 C 93.78 97.30 94.97 97.51 95.83 96.91 C 96.69 96.31 96.91 95.12 96.31 94.26 L 95.73 93.44 C 95.13 92.57 93.94 92.36 93.08 92.96 C 92.22 93.56 92.00 94.75 92.60 95.62 Z M 93.19 96.46 L 93.76 97.26 C 94.37 98.12 95.56 98.32 96.42 97.71 C 97.28 97.10 97.48 95.91 96.87 95.05 L 96.30 94.24 C 95.68 93.38 94.49 93.18 93.63 93.79 C 92.78 94.41 92.58 95.60 93.19 96.46 Z M 93.77 97.27 L 94.35 98.07 C 94.97 98.93 96.16 99.12 97.01 98.50 C 97.87 97.88 98.06 96.69 97.44 95.83 L 96.86 95.03 C 96.24 94.18 95.05 93.99 94.20 94.61 C 93.34 95.23 93.15 96.42 93.77 97.27 Z M 94.35 98.08 L 94.94 98.88 C 95.56 99.74 96.76 99.92 97.61 99.30 C 98.46 98.68 98.65 97.48 98.02 96.63 L 97.44 95.83 C 96.81 94.97 95.62 94.79 94.77 95.41 C 93.92 96.03 93.73 97.23 94.35 98.08 Z M 94.94 98.89 L 95.53 99.70 C 96.16 100.55 97.35 100.74 98.21 100.11 C 99.06 99.49 99.24 98.29 98.62 97.44 L 98.02 96.63 C 97.40 95.78 96.20 95.59 95.35 96.21 C 94.50 96.84 94.32 98.03 94.94 98.89 Z M 95.53 99.70 L 96.09 100.47 C 96.72 101.32 97.91 101.51 98.77 100.89 C 99.62 100.27 99.81 99.07 99.19 98.22 L 98.62 97.45 C 98.00 96.59 96.81 96.40 95.95 97.02 C 95.10 97.65 94.91 98.84 95.53 99.70 Z M 96.09 100.46 L 96.60 101.17 C 97.22 102.03 98.41 102.22 99.27 101.60 C 100.13 100.98 100.32 99.79 99.70 98.93 L 99.19 98.22 C 98.57 97.37 97.38 97.17 96.52 97.79 C 95.66 98.41 95.47 99.61 96.09 100.46 Z M 96.59 101.16 L 97.12 101.90 C 97.74 102.76 98.93 102.96 99.79 102.34 C 100.65 101.73 100.85 100.53 100.23 99.67 L 99.71 98.94 C 99.09 98.08 97.89 97.88 97.04 98.49 C 96.18 99.11 95.98 100.30 96.59 101.16 Z M 97.12 101.89 L 97.66 102.67 C 98.28 103.53 99.47 103.73 100.33 103.12 C 101.20 102.51 101.40 101.31 100.79 100.45 L 100.24 99.68 C 99.62 98.81 98.43 98.61 97.57 99.22 C 96.70 99.84 96.50 101.03 97.12 101.89 Z M 97.66 102.66 L 98.24 103.48 C 98.85 104.35 100.04 104.55 100.91 103.94 C 101.77 103.33 101.98 102.14 101.37 101.27 L 100.79 100.45 C 100.18 99.59 98.99 99.38 98.12 99.99 C 97.26 100.60 97.05 101.80 97.66 102.66 Z M 98.23 103.48 L 98.84 104.35 C 99.45 105.21 100.65 105.42 101.51 104.82 C 102.38 104.21 102.59 103.01 101.98 102.15 L 101.37 101.28 C 100.76 100.41 99.57 100.20 98.70 100.81 C 97.84 101.41 97.63 102.61 98.23 103.48 Z M 98.84 104.34 L 99.49 105.28 C 100.10 106.15 101.29 106.36 102.16 105.75 C 103.03 105.15 103.24 103.95 102.64 103.09 L 101.99 102.15 C 101.38 101.28 100.19 101.07 99.32 101.67 C 98.45 102.28 98.23 103.47 98.84 104.34 Z M 99.49 105.27 L 100.11 106.18 C 100.72 107.05 101.91 107.27 102.78 106.66 C 103.65 106.06 103.87 104.86 103.27 103.99 L 102.64 103.09 C 102.04 102.22 100.84 102.00 99.97 102.60 C 99.10 103.21 98.88 104.40 99.49 105.27 Z M 100.11 106.18 L 100.64 106.94 C 101.24 107.82 102.44 108.04 103.31 107.43 C 104.18 106.83 104.40 105.64 103.80 104.76 L 103.27 104.00 C 102.67 103.12 101.47 102.90 100.60 103.51 C 99.73 104.11 99.51 105.30 100.11 106.18 Z M 100.64 106.94 L 101.19 107.74 C 101.79 108.62 102.98 108.84 103.86 108.24 C 104.73 107.64 104.95 106.44 104.35 105.57 L 103.80 104.77 C 103.20 103.89 102.01 103.67 101.13 104.27 C 100.26 104.87 100.04 106.07 100.64 106.94 Z M 101.19 107.74 L 101.75 108.56 C 102.35 109.44 103.54 109.66 104.42 109.06 C 105.30 108.46 105.52 107.27 104.92 106.39 L 104.36 105.57 C 103.76 104.69 102.56 104.47 101.69 105.07 C 100.81 105.67 100.59 106.86 101.19 107.74 Z M 101.75 108.56 L 102.32 109.40 C 102.92 110.28 104.11 110.51 104.99 109.91 C 105.87 109.31 106.09 108.12 105.50 107.24 L 104.92 106.40 C 104.33 105.52 103.13 105.29 102.25 105.89 C 101.38 106.49 101.15 107.68 101.75 108.56 Z M 102.32 109.40 L 102.90 110.25 C 103.49 111.13 104.69 111.36 105.57 110.77 C 106.44 110.17 106.67 108.98 106.08 108.10 L 105.50 107.24 C 104.90 106.36 103.71 106.13 102.83 106.73 C 101.95 107.33 101.72 108.52 102.32 109.40 Z M 102.89 110.25 L 103.47 111.11 C 104.06 111.99 105.26 112.22 106.14 111.63 C 107.02 111.03 107.25 109.84 106.66 108.96 L 106.08 108.10 C 105.49 107.22 104.29 106.99 103.41 107.58 C 102.53 108.17 102.30 109.37 102.89 110.25 Z M 103.47 111.10 L 104.04 111.96 C 104.63 112.84 105.83 113.08 106.71 112.49 C 107.59 111.90 107.83 110.70 107.24 109.82 L 106.66 108.96 C 106.07 108.08 104.88 107.84 104.00 108.44 C 103.11 109.03 102.88 110.22 103.47 111.10 Z M 104.04 111.96 L 104.60 112.80 C 105.19 113.69 106.38 113.93 107.27 113.34 C 108.15 112.75 108.39 111.56 107.81 110.68 L 107.24 109.83 C 106.65 108.94 105.46 108.70 104.58 109.29 C 103.69 109.88 103.45 111.07 104.04 111.96 Z M 104.60 112.80 L 105.15 113.63 C 105.73 114.52 106.92 114.77 107.81 114.18 C 108.70 113.60 108.95 112.40 108.36 111.52 L 107.81 110.68 C 107.23 109.79 106.03 109.55 105.15 110.13 C 104.26 110.72 104.01 111.91 104.60 112.80 Z M 105.14 113.63 L 105.72 114.51 C 106.30 115.40 107.49 115.65 108.38 115.07 C 109.27 114.49 109.52 113.30 108.94 112.41 L 108.37 111.52 C 107.79 110.63 106.59 110.38 105.70 110.96 C 104.81 111.54 104.56 112.73 105.14 113.63 Z M 105.71 114.50 L 106.29 115.40 C 106.87 116.30 108.06 116.56 108.95 115.98 C 109.85 115.41 110.11 114.21 109.53 113.32 L 108.95 112.42 C 108.37 111.52 107.18 111.27 106.29 111.84 C 105.39 112.42 105.14 113.61 105.71 114.50 Z M 106.29 115.40 L 106.85 116.27 C 107.42 117.17 108.61 117.43 109.50 116.86 C 110.40 116.29 110.67 115.10 110.09 114.20 L 109.54 113.33 C 108.96 112.43 107.77 112.17 106.88 112.74 C 105.98 113.31 105.72 114.50 106.29 115.40 Z M 106.84 116.27 L 107.38 117.12 C 107.95 118.02 109.14 118.29 110.04 117.72 C 110.94 117.16 111.21 115.97 110.64 115.07 L 110.10 114.21 C 109.53 113.31 108.34 113.04 107.44 113.61 C 106.54 114.18 106.27 115.37 106.84 116.27 Z M 107.38 117.12 L 107.90 117.95 C 108.46 118.86 109.65 119.13 110.55 118.57 C 111.46 118.00 111.73 116.81 111.17 115.91 L 110.64 115.07 C 110.08 114.17 108.89 113.90 107.99 114.46 C 107.09 115.02 106.81 116.21 107.38 117.12 Z M 107.90 117.95 L 108.41 118.77 C 108.97 119.68 110.15 119.95 111.06 119.39 C 111.96 118.83 112.24 117.65 111.68 116.74 L 111.17 115.92 C 110.61 115.01 109.42 114.73 108.52 115.30 C 107.61 115.86 107.33 117.04 107.90 117.95 Z M 108.40 118.77 L 108.91 119.58 C 109.46 120.49 110.65 120.77 111.56 120.21 C 112.46 119.65 112.74 118.47 112.19 117.56 L 111.68 116.75 C 111.13 115.84 109.94 115.56 109.03 116.12 C 108.13 116.68 107.85 117.86 108.40 118.77 Z M 108.90 119.58 L 109.40 120.39 C 109.96 121.29 111.14 121.58 112.05 121.02 C 112.96 120.46 113.24 119.28 112.68 118.37 L 112.19 117.56 C 111.63 116.66 110.44 116.37 109.54 116.93 C 108.63 117.49 108.35 118.67 108.90 119.58 Z M 109.40 120.39 L 109.90 121.20 C 110.45 122.10 111.64 122.39 112.55 121.83 C 113.45 121.27 113.74 120.09 113.18 119.18 L 112.68 118.37 C 112.13 117.46 110.94 117.18 110.03 117.74 C 109.13 118.29 108.84 119.48 109.40 120.39 Z M 109.89 121.20 L 110.42 122.04 C 110.97 122.95 112.16 123.24 113.07 122.68 C 113.97 122.12 114.26 120.94 113.70 120.03 L 113.18 119.18 C 112.62 118.27 111.44 117.99 110.53 118.55 C 109.62 119.10 109.34 120.29 109.89 121.20 Z M 110.42 122.04 L 110.94 122.89 C 111.49 123.80 112.68 124.09 113.59 123.53 C 114.49 122.97 114.78 121.79 114.22 120.88 L 113.70 120.03 C 113.15 119.12 111.96 118.84 111.05 119.39 C 110.14 119.95 109.86 121.14 110.42 122.04 Z M 110.94 122.89 L 111.46 123.74 C 112.01 124.65 113.20 124.94 114.11 124.38 C 115.01 123.83 115.30 122.64 114.74 121.73 L 114.22 120.88 C 113.67 119.97 112.48 119.69 111.57 120.24 C 110.67 120.80 110.38 121.99 110.94 122.89 Z M 111.45 123.74 L 111.98 124.60 C 112.53 125.50 113.72 125.79 114.62 125.23 C 115.53 124.68 115.82 123.49 115.26 122.59 L 114.74 121.73 C 114.19 120.83 113.00 120.54 112.09 121.09 C 111.19 121.65 110.90 122.83 111.45 123.74 Z M 111.97 124.59 L 112.50 125.45 C 113.05 126.36 114.24 126.64 115.14 126.09 C 116.05 125.54 116.34 124.35 115.79 123.44 L 115.27 122.59 C 114.71 121.68 113.53 121.39 112.62 121.94 C 111.71 122.50 111.42 123.68 111.97 124.59 Z M 112.49 125.45 L 113.01 126.30 C 113.57 127.21 114.75 127.50 115.66 126.95 C 116.57 126.39 116.86 125.21 116.31 124.30 L 115.79 123.44 C 115.23 122.53 114.05 122.24 113.14 122.80 C 112.23 123.35 111.94 124.54 112.49 125.45 Z M 113.01 126.30 L 113.53 127.16 C 114.09 128.07 115.27 128.36 116.18 127.81 C 117.09 127.26 117.38 126.07 116.83 125.16 L 116.31 124.30 C 115.76 123.39 114.57 123.10 113.66 123.65 C 112.75 124.20 112.46 125.39 113.01 126.30 Z M 113.53 127.16 L 114.05 128.02 C 114.60 128.93 115.79 129.22 116.70 128.67 C 117.61 128.12 117.90 126.93 117.35 126.02 L 116.83 125.16 C 116.28 124.25 115.10 123.96 114.19 124.51 C 113.27 125.06 112.98 126.24 113.53 127.16 Z M 114.05 128.01 L 114.57 128.87 C 115.12 129.79 116.30 130.08 117.21 129.53 C 118.13 128.98 118.42 127.80 117.87 126.89 L 117.35 126.03 C 116.80 125.11 115.62 124.82 114.71 125.37 C 113.80 125.92 113.50 127.10 114.05 128.01 Z M 114.57 128.87 L 115.08 129.73 C 115.63 130.65 116.82 130.94 117.73 130.39 C 118.64 129.85 118.94 128.66 118.39 127.75 L 117.87 126.89 C 117.32 125.98 116.14 125.68 115.23 126.23 C 114.32 126.77 114.02 127.96 114.57 128.87 Z M 115.08 129.73 L 115.60 130.59 C 116.15 131.51 117.33 131.81 118.24 131.26 C 119.16 130.71 119.45 129.53 118.91 128.62 L 118.39 127.75 C 117.84 126.84 116.66 126.54 115.75 127.09 C 114.83 127.63 114.54 128.82 115.08 129.73 Z M 115.60 130.59 L 116.11 131.46 C 116.66 132.37 117.84 132.67 118.76 132.12 C 119.67 131.58 119.97 130.39 119.42 129.48 L 118.91 128.62 C 118.36 127.70 117.18 127.40 116.26 127.95 C 115.35 128.50 115.05 129.68 115.60 130.59 Z M 116.11 131.45 L 116.63 132.31 C 117.17 133.23 118.35 133.53 119.27 132.98 C 120.18 132.44 120.48 131.25 119.94 130.34 L 119.42 129.48 C 118.88 128.57 117.69 128.27 116.78 128.81 C 115.87 129.36 115.57 130.54 116.11 131.45 Z M 116.63 132.31 L 117.14 133.17 C 117.68 134.09 118.87 134.39 119.78 133.84 C 120.69 133.30 120.99 132.11 120.45 131.20 L 119.94 130.34 C 119.39 129.43 118.21 129.13 117.29 129.67 C 116.38 130.22 116.08 131.40 116.63 132.31 Z M 117.14 133.17 L 117.65 134.03 C 118.19 134.94 119.37 135.24 120.29 134.69 C 121.20 134.15 121.50 132.97 120.96 132.05 L 120.45 131.20 C 119.90 130.28 118.72 129.99 117.81 130.53 C 116.89 131.07 116.59 132.26 117.14 133.17 Z M 117.65 134.03 L 118.15 134.87 C 118.70 135.79 119.88 136.09 120.79 135.54 C 121.71 135.00 122.01 133.81 121.46 132.90 L 120.96 132.05 C 120.41 131.14 119.23 130.84 118.31 131.38 C 117.40 131.93 117.10 133.11 117.65 134.03 Z M 118.15 134.87 L 118.69 135.77 C 119.24 136.69 120.42 136.99 121.33 136.44 C 122.25 135.89 122.54 134.71 122.00 133.80 L 121.46 132.90 C 120.92 131.99 119.73 131.69 118.82 132.23 C 117.91 132.78 117.61 133.96 118.15 134.87 Z M 118.69 135.77 L 119.22 136.66 C 119.77 137.58 120.95 137.88 121.86 137.33 C 122.78 136.78 123.07 135.60 122.53 134.69 L 122.00 133.80 C 121.45 132.88 120.27 132.59 119.36 133.13 C 118.44 133.68 118.14 134.86 118.69 135.77 Z M 119.22 136.66 L 119.75 137.54 C 120.29 138.46 121.47 138.75 122.39 138.21 C 123.30 137.66 123.60 136.48 123.05 135.57 L 122.53 134.69 C 121.98 133.78 120.80 133.48 119.89 134.02 C 118.98 134.57 118.68 135.75 119.22 136.66 Z M 119.75 137.54 L 120.26 138.41 C 120.81 139.32 121.99 139.62 122.90 139.08 C 123.82 138.53 124.11 137.35 123.57 136.44 L 123.05 135.57 C 122.51 134.66 121.33 134.36 120.42 134.90 C 119.50 135.45 119.20 136.63 119.75 137.54 Z M 120.26 138.41 L 120.77 139.26 C 121.31 140.17 122.49 140.47 123.41 139.93 C 124.32 139.39 124.62 138.21 124.08 137.30 L 123.57 136.44 C 123.03 135.53 121.85 135.23 120.94 135.77 C 120.02 136.31 119.72 137.49 120.26 138.41 Z M 120.77 139.26 L 121.26 140.09 C 121.80 141.01 122.98 141.31 123.90 140.77 C 124.81 140.23 125.12 139.05 124.58 138.14 L 124.08 137.30 C 123.54 136.38 122.36 136.08 121.45 136.62 C 120.53 137.16 120.23 138.34 120.77 139.26 Z M 121.26 140.09 L 121.74 140.91 C 122.28 141.83 123.46 142.13 124.37 141.60 C 125.29 141.06 125.60 139.88 125.06 138.96 L 124.58 138.14 C 124.04 137.23 122.86 136.92 121.95 137.46 C 121.03 137.99 120.72 139.17 121.26 140.09 Z M 121.74 140.90 L 122.24 141.77 C 122.78 142.69 123.95 143.00 124.87 142.46 C 125.79 141.93 126.10 140.75 125.57 139.84 L 125.06 138.97 C 124.53 138.05 123.35 137.74 122.43 138.28 C 121.52 138.81 121.21 139.99 121.74 140.90 Z M 122.24 141.76 L 122.78 142.69 C 123.31 143.61 124.48 143.92 125.40 143.39 C 126.32 142.86 126.63 141.69 126.10 140.77 L 125.57 139.84 C 125.04 138.92 123.86 138.61 122.94 139.14 C 122.03 139.67 121.71 140.84 122.24 141.76 Z M 122.78 142.69 L 123.29 143.59 C 123.82 144.50 124.99 144.82 125.91 144.29 C 126.83 143.77 127.15 142.59 126.62 141.67 L 126.10 140.77 C 125.58 139.85 124.40 139.54 123.48 140.07 C 122.56 140.59 122.25 141.77 122.78 142.69 Z M 123.29 143.58 L 123.79 144.46 C 124.32 145.37 125.49 145.69 126.41 145.16 C 127.33 144.64 127.65 143.46 127.12 142.55 L 126.62 141.67 C 126.09 140.75 124.92 140.44 124.00 140.97 C 123.08 141.49 122.77 142.67 123.29 143.58 Z M 123.80 144.46 L 124.29 145.30 C 124.82 146.22 125.99 146.53 126.90 146.00 C 127.82 145.48 128.13 144.30 127.60 143.39 L 127.12 142.54 C 126.59 141.63 125.42 141.31 124.50 141.84 C 123.58 142.37 123.27 143.54 123.80 144.46 Z M 124.29 145.31 L 124.77 146.13 C 125.30 147.04 126.48 147.35 127.39 146.82 C 128.30 146.28 128.61 145.11 128.08 144.20 L 127.60 143.38 C 127.07 142.47 125.89 142.16 124.98 142.69 C 124.07 143.23 123.76 144.40 124.29 145.31 Z M 124.78 146.14 L 125.25 146.94 C 125.79 147.85 126.97 148.14 127.87 147.60 C 128.78 147.07 129.08 145.89 128.54 144.98 L 128.07 144.19 C 127.53 143.28 126.35 142.98 125.45 143.52 C 124.54 144.06 124.24 145.23 124.78 146.14 Z M 125.26 146.95 L 125.80 147.83 C 126.35 148.73 127.52 149.02 128.43 148.47 C 129.33 147.92 129.61 146.75 129.06 145.84 L 128.53 144.97 C 127.98 144.06 126.80 143.78 125.90 144.33 C 125.00 144.88 124.72 146.05 125.26 146.95 Z M 125.81 147.85 L 126.34 148.70 C 126.90 149.60 128.08 149.87 128.97 149.31 C 129.87 148.75 130.14 147.57 129.58 146.68 L 129.05 145.83 C 128.49 144.93 127.32 144.66 126.42 145.22 C 125.53 145.78 125.25 146.95 125.81 147.85 Z M 126.35 148.72 L 126.89 149.55 C 127.45 150.44 128.63 150.70 129.52 150.13 C 130.41 149.57 130.67 148.39 130.10 147.50 L 129.57 146.66 C 129.00 145.78 127.83 145.51 126.94 146.08 C 126.05 146.65 125.79 147.83 126.35 148.72 Z M 126.90 149.56 L 127.43 150.39 C 128.01 151.27 129.19 151.52 130.07 150.95 C 130.95 150.38 131.20 149.19 130.63 148.31 L 130.09 147.49 C 129.52 146.60 128.34 146.35 127.46 146.93 C 126.57 147.50 126.32 148.68 126.90 149.56 Z M 127.44 150.40 L 127.99 151.23 C 128.57 152.10 129.75 152.35 130.63 151.77 C 131.50 151.19 131.75 150.01 131.17 149.13 L 130.62 148.30 C 130.04 147.42 128.86 147.18 127.98 147.76 C 127.10 148.34 126.86 149.52 127.44 150.40 Z M 127.99 151.23 L 128.55 152.06 C 129.13 152.94 130.31 153.17 131.19 152.59 C 132.06 152.01 132.30 150.83 131.71 149.95 L 131.16 149.12 C 130.58 148.25 129.40 148.01 128.52 148.59 C 127.65 149.18 127.41 150.36 127.99 151.23 Z M 128.55 152.07 L 129.11 152.90 C 129.70 153.77 130.88 154.00 131.75 153.42 C 132.62 152.83 132.86 151.65 132.27 150.78 L 131.71 149.94 C 131.12 149.07 129.94 148.84 129.07 149.43 C 128.20 150.02 127.97 151.20 128.55 152.07 Z M 129.12 152.91 L 129.69 153.75 C 130.28 154.61 131.46 154.84 132.33 154.25 C 133.20 153.66 133.42 152.47 132.83 151.61 L 132.26 150.77 C 131.67 149.90 130.49 149.68 129.62 150.27 C 128.75 150.86 128.53 152.04 129.12 152.91 Z M 129.70 153.75 L 130.27 154.59 C 130.87 155.45 132.05 155.67 132.91 155.07 C 133.78 154.47 133.99 153.29 133.40 152.43 L 132.82 151.60 C 132.23 150.73 131.04 150.52 130.18 151.11 C 129.32 151.71 129.10 152.89 129.70 153.75 Z M 130.28 154.60 L 130.85 155.42 C 131.46 156.27 132.64 156.48 133.50 155.88 C 134.36 155.28 134.56 154.09 133.96 153.23 L 133.39 152.42 C 132.79 151.56 131.60 151.35 130.74 151.95 C 129.89 152.55 129.68 153.74 130.28 154.60 Z M 130.87 155.43 L 131.44 156.23 C 132.05 157.08 133.23 157.28 134.08 156.67 C 134.94 156.06 135.13 154.87 134.52 154.02 L 133.95 153.22 C 133.34 152.37 132.16 152.17 131.30 152.78 C 130.45 153.39 130.26 154.58 130.87 155.43 Z M 131.45 156.24 L 132.06 157.08 C 132.68 157.92 133.86 158.11 134.71 157.49 C 135.55 156.87 135.74 155.68 135.12 154.84 L 134.51 154.01 C 133.89 153.16 132.71 152.98 131.86 153.59 C 131.02 154.21 130.83 155.40 131.45 156.24 Z M 132.06 157.08 L 132.66 157.90 C 133.28 158.74 134.47 158.92 135.31 158.30 C 136.16 157.68 136.34 156.50 135.72 155.65 L 135.12 154.83 C 134.49 153.99 133.31 153.81 132.47 154.43 C 131.62 155.05 131.44 156.24 132.06 157.08 Z M 132.66 157.89 L 133.24 158.69 C 133.86 159.54 135.04 159.73 135.89 159.12 C 136.73 158.50 136.92 157.32 136.31 156.47 L 135.72 155.66 C 135.11 154.82 133.93 154.63 133.08 155.24 C 132.23 155.86 132.04 157.04 132.66 157.89 Z M 133.22 158.67 L 133.78 159.47 C 134.38 160.33 135.56 160.54 136.42 159.94 C 137.28 159.34 137.49 158.16 136.89 157.30 L 136.33 156.50 C 135.73 155.64 134.55 155.43 133.69 156.03 C 132.83 156.63 132.62 157.81 133.22 158.67 Z M 133.75 159.43 L 134.29 160.24 C 134.86 161.12 136.04 161.36 136.91 160.79 C 137.79 160.21 138.03 159.04 137.46 158.16 L 136.92 157.35 C 136.35 156.47 135.17 156.23 134.30 156.80 C 133.42 157.38 133.18 158.55 133.75 159.43 Z M 134.25 160.18 L 134.76 161.03 C 135.30 161.92 136.46 162.22 137.36 161.68 C 138.25 161.14 138.55 159.98 138.01 159.08 L 137.50 158.23 C 136.96 157.33 135.80 157.04 134.90 157.58 C 134.00 158.12 133.71 159.28 134.25 160.18 Z M 134.71 160.93 L 135.17 161.81 C 135.65 162.74 136.79 163.10 137.72 162.62 C 138.65 162.13 139.01 160.99 138.52 160.06 L 138.06 159.18 C 137.58 158.25 136.44 157.89 135.51 158.38 C 134.58 158.86 134.22 160.00 134.71 160.93 Z M 135.10 161.67 L 135.48 162.59 C 135.88 163.55 136.99 164.01 137.96 163.60 C 138.92 163.20 139.38 162.09 138.98 161.13 L 138.59 160.21 C 138.19 159.24 137.08 158.79 136.12 159.19 C 135.15 159.59 134.70 160.70 135.10 161.67 Z M 135.41 162.39 L 135.69 163.34 C 135.98 164.34 137.03 164.92 138.04 164.63 C 139.04 164.33 139.62 163.28 139.32 162.28 L 139.05 161.32 C 138.75 160.32 137.70 159.75 136.70 160.04 C 135.69 160.33 135.12 161.38 135.41 162.39 Z M 135.63 163.09 L 135.78 164.08 C 135.94 165.11 136.90 165.83 137.94 165.67 C 138.97 165.52 139.68 164.55 139.53 163.52 L 139.38 162.53 C 139.22 161.49 138.26 160.78 137.23 160.94 C 136.19 161.09 135.48 162.05 135.63 163.09 Z M 135.76 163.81 L 135.76 164.73 C 135.77 165.78 136.62 166.62 137.66 166.62 C 138.71 166.62 139.56 165.76 139.55 164.72 L 139.55 163.79 C 139.55 162.75 138.70 161.90 137.65 161.90 C 136.60 161.91 135.76 162.76 135.76 163.81 Z M 135.78 164.50 L 135.67 165.40 C 135.54 166.44 136.28 167.39 137.32 167.51 C 138.36 167.64 139.31 166.90 139.43 165.86 L 139.54 164.95 C 139.67 163.91 138.92 162.97 137.88 162.84 C 136.84 162.72 135.90 163.46 135.78 164.50 Z M 135.70 165.23 L 135.49 166.17 C 135.27 167.19 135.92 168.20 136.95 168.42 C 137.97 168.64 138.98 167.99 139.20 166.97 L 139.40 166.03 C 139.63 165.01 138.97 164.00 137.95 163.78 C 136.93 163.55 135.92 164.21 135.70 165.23 Z M 135.52 166.04 L 135.24 167.00 C 134.95 168.01 135.53 169.06 136.54 169.36 C 137.54 169.65 138.60 169.07 138.89 168.06 L 139.17 167.10 C 139.46 166.09 138.88 165.04 137.88 164.74 C 136.87 164.45 135.82 165.03 135.52 166.04 Z M 135.27 166.91 L 134.93 167.91 C 134.58 168.90 135.11 169.98 136.10 170.33 C 137.09 170.67 138.17 170.14 138.52 169.15 L 138.86 168.15 C 139.21 167.16 138.68 166.08 137.69 165.74 C 136.70 165.39 135.61 165.92 135.27 166.91 Z M 134.95 167.85 L 134.55 168.88 C 134.17 169.86 134.66 170.96 135.64 171.34 C 136.62 171.71 137.73 171.22 138.10 170.24 L 138.50 169.21 C 138.87 168.23 138.38 167.13 137.40 166.76 C 136.42 166.38 135.32 166.87 134.95 167.85 Z M 134.56 168.85 L 134.19 169.76 C 133.80 170.73 134.27 171.84 135.24 172.24 C 136.21 172.63 137.32 172.16 137.72 171.19 L 138.09 170.28 C 138.48 169.30 138.02 168.19 137.04 167.80 C 136.07 167.40 134.96 167.87 134.56 168.85 Z M 134.20 169.74 L 133.84 170.62 C 133.43 171.59 133.89 172.70 134.85 173.10 C 135.82 173.51 136.94 173.05 137.34 172.09 L 137.71 171.21 C 138.11 170.24 137.66 169.13 136.69 168.72 C 135.72 168.32 134.61 168.77 134.20 169.74 Z M 133.84 170.60 L 133.46 171.50 C 133.05 172.46 133.49 173.58 134.46 173.99 C 135.42 174.40 136.54 173.96 136.95 172.99 L 137.33 172.10 C 137.75 171.14 137.30 170.02 136.34 169.61 C 135.37 169.19 134.26 169.64 133.84 170.60 Z M 133.47 171.49 L 133.07 172.40 C 132.65 173.36 133.09 174.48 134.05 174.90 C 135.01 175.31 136.13 174.87 136.55 173.92 L 136.94 173.00 C 137.36 172.04 136.92 170.93 135.96 170.51 C 135.00 170.09 133.89 170.53 133.47 171.49 Z M 133.08 172.39 L 132.67 173.32 C 132.24 174.28 132.68 175.39 133.63 175.82 C 134.59 176.24 135.71 175.81 136.13 174.85 L 136.54 173.92 C 136.96 172.97 136.53 171.85 135.57 171.42 C 134.62 171.00 133.50 171.44 133.08 172.39 Z M 132.67 173.32 L 132.25 174.26 C 131.83 175.21 132.26 176.33 133.21 176.76 C 134.16 177.18 135.28 176.75 135.71 175.80 L 136.13 174.85 C 136.55 173.90 136.12 172.78 135.17 172.36 C 134.21 171.93 133.09 172.36 132.67 173.32 Z M 132.25 174.26 L 131.83 175.21 C 131.40 176.17 131.83 177.28 132.78 177.71 C 133.73 178.13 134.85 177.71 135.28 176.75 L 135.70 175.80 C 136.13 174.85 135.70 173.73 134.75 173.30 C 133.80 172.88 132.68 173.30 132.25 174.26 Z M 131.83 175.22 L 131.40 176.18 C 130.97 177.13 131.40 178.24 132.35 178.67 C 133.30 179.09 134.42 178.67 134.84 177.72 L 135.27 176.75 C 135.70 175.80 135.27 174.69 134.32 174.26 C 133.37 173.84 132.25 174.26 131.83 175.22 Z M 131.40 176.18 L 130.98 177.14 C 130.56 178.09 130.98 179.20 131.93 179.62 C 132.88 180.04 133.99 179.62 134.42 178.67 L 134.84 177.71 C 135.26 176.76 134.84 175.65 133.89 175.23 C 132.94 174.81 131.83 175.23 131.40 176.18 Z M 130.98 177.14 L 130.56 178.10 C 130.14 179.04 130.57 180.15 131.51 180.57 C 132.46 180.99 133.57 180.57 133.99 179.62 L 134.41 178.66 C 134.83 177.72 134.40 176.61 133.46 176.19 C 132.51 175.77 131.40 176.19 130.98 177.14 Z M 130.56 178.10 L 130.14 179.05 C 129.73 179.99 130.15 181.10 131.10 181.52 C 132.04 181.93 133.14 181.51 133.56 180.56 L 133.98 179.61 C 134.40 178.67 133.97 177.57 133.03 177.15 C 132.08 176.73 130.98 177.16 130.56 178.10 Z M 130.15 179.05 L 129.74 179.99 C 129.32 180.93 129.75 182.03 130.69 182.44 C 131.63 182.86 132.73 182.43 133.15 181.49 L 133.56 180.56 C 133.97 179.62 133.55 178.52 132.60 178.10 C 131.66 177.69 130.56 178.11 130.15 179.05 Z M 129.74 179.99 L 129.34 180.90 C 128.93 181.84 129.35 182.93 130.29 183.35 C 131.23 183.76 132.33 183.33 132.74 182.40 L 133.14 181.49 C 133.55 180.55 133.13 179.45 132.19 179.04 C 131.25 178.63 130.15 179.05 129.74 179.99 Z M 129.35 180.90 L 128.96 181.78 C 128.55 182.72 128.98 183.81 129.91 184.22 C 130.85 184.63 131.94 184.20 132.35 183.27 L 132.74 182.39 C 133.15 181.46 132.72 180.36 131.78 179.95 C 130.85 179.54 129.76 179.97 129.35 180.90 Z M 128.97 181.79 L 128.60 182.62 C 128.19 183.56 128.62 184.64 129.55 185.05 C 130.48 185.46 131.57 185.03 131.98 184.10 L 132.35 183.26 C 132.75 182.33 132.33 181.24 131.40 180.84 C 130.46 180.43 129.37 180.85 128.97 181.79 Z M 128.61 182.63 L 128.18 183.61 C 127.77 184.54 128.20 185.62 129.13 186.03 C 130.06 186.43 131.14 186.01 131.55 185.08 L 131.97 184.10 C 132.38 183.17 131.95 182.08 131.02 181.68 C 130.09 181.27 129.01 181.70 128.61 182.63 Z M 128.18 183.62 L 127.76 184.58 C 127.36 185.51 127.78 186.59 128.71 186.99 C 129.64 187.39 130.72 186.97 131.12 186.04 L 131.54 185.07 C 131.94 184.15 131.52 183.07 130.59 182.67 C 129.66 182.26 128.59 182.69 128.18 183.62 Z M 127.77 184.59 L 127.37 185.50 C 126.97 186.42 127.39 187.50 128.32 187.90 C 129.24 188.30 130.32 187.88 130.72 186.95 L 131.11 186.04 C 131.52 185.12 131.09 184.04 130.17 183.64 C 129.24 183.24 128.17 183.66 127.77 184.59 Z M 127.38 185.50 L 127.00 186.38 C 126.60 187.30 127.02 188.37 127.94 188.77 C 128.86 189.17 129.93 188.75 130.33 187.83 L 130.71 186.95 C 131.11 186.03 130.69 184.96 129.77 184.56 C 128.85 184.16 127.78 184.58 127.38 185.50 Z M 127.00 186.38 L 126.63 187.24 C 126.22 188.16 126.64 189.22 127.56 189.63 C 128.47 190.03 129.54 189.61 129.94 188.69 L 130.32 187.83 C 130.72 186.92 130.30 185.85 129.39 185.45 C 128.47 185.05 127.41 185.46 127.00 186.38 Z M 126.63 187.24 L 126.25 188.10 C 125.85 189.01 126.26 190.08 127.17 190.48 C 128.08 190.88 129.15 190.47 129.55 189.56 L 129.93 188.70 C 130.34 187.79 129.92 186.72 129.01 186.32 C 128.10 185.92 127.04 186.33 126.63 187.24 Z M 126.26 188.10 L 125.87 188.96 C 125.47 189.87 125.87 190.93 126.78 191.34 C 127.69 191.74 128.75 191.34 129.16 190.43 L 129.54 189.57 C 129.95 188.66 129.54 187.60 128.64 187.19 C 127.73 186.78 126.67 187.19 126.26 188.10 Z M 125.88 188.96 L 125.48 189.84 C 125.07 190.74 125.47 191.80 126.38 192.21 C 127.28 192.62 128.34 192.22 128.75 191.32 L 129.15 190.43 C 129.56 189.53 129.16 188.47 128.25 188.06 C 127.35 187.65 126.29 188.05 125.88 188.96 Z M 125.49 189.83 L 125.08 190.74 C 124.66 191.64 125.06 192.70 125.96 193.11 C 126.86 193.52 127.92 193.12 128.33 192.22 L 128.74 191.32 C 129.15 190.42 128.76 189.36 127.86 188.95 C 126.96 188.54 125.90 188.94 125.49 189.83 Z M 125.08 190.73 L 124.66 191.65 C 124.24 192.55 124.63 193.61 125.53 194.02 C 126.43 194.44 127.49 194.05 127.90 193.15 L 128.33 192.23 C 128.74 191.33 128.35 190.27 127.45 189.86 C 126.56 189.45 125.49 189.84 125.08 190.73 Z M 124.66 191.65 L 124.22 192.59 C 123.81 193.48 124.20 194.54 125.09 194.96 C 125.98 195.38 127.04 194.99 127.46 194.10 L 127.89 193.16 C 128.31 192.26 127.92 191.20 127.03 190.79 C 126.14 190.37 125.08 190.76 124.66 191.65 Z M 124.23 192.59 L 123.79 193.52 C 123.37 194.41 123.76 195.47 124.65 195.89 C 125.53 196.30 126.59 195.92 127.01 195.03 L 127.45 194.10 C 127.87 193.21 127.48 192.15 126.60 191.74 C 125.71 191.32 124.65 191.70 124.23 192.59 Z M 123.80 193.52 L 123.39 194.39 C 122.97 195.27 123.35 196.33 124.23 196.75 C 125.12 197.17 126.18 196.79 126.59 195.90 L 127.01 195.04 C 127.42 194.15 127.05 193.09 126.16 192.67 C 125.27 192.25 124.22 192.63 123.80 193.52 Z M 123.39 194.39 L 122.97 195.27 C 122.55 196.15 122.93 197.21 123.81 197.63 C 124.69 198.05 125.75 197.67 126.17 196.79 L 126.59 195.91 C 127.01 195.02 126.63 193.97 125.75 193.55 C 124.87 193.13 123.81 193.50 123.39 194.39 Z M 122.98 195.27 L 122.55 196.16 C 122.13 197.04 122.50 198.10 123.38 198.52 C 124.26 198.94 125.31 198.57 125.74 197.69 L 126.16 196.79 C 126.59 195.91 126.21 194.86 125.33 194.43 C 124.45 194.01 123.40 194.39 122.98 195.27 Z M 122.55 196.16 L 122.12 197.07 C 121.69 197.95 122.06 199.00 122.94 199.43 C 123.82 199.85 124.87 199.48 125.29 198.60 L 125.73 197.69 C 126.15 196.81 125.78 195.76 124.90 195.34 C 124.03 194.91 122.97 195.29 122.55 196.16 Z M 122.12 197.07 L 121.68 197.99 C 121.25 198.87 121.62 199.92 122.50 200.34 C 123.37 200.76 124.43 200.40 124.85 199.52 L 125.29 198.60 C 125.71 197.72 125.34 196.67 124.47 196.25 C 123.59 195.83 122.54 196.20 122.12 197.07 Z M 121.68 197.99 L 121.23 198.93 C 120.81 199.80 121.18 200.85 122.05 201.27 C 122.92 201.69 123.97 201.33 124.39 200.45 L 124.84 199.52 C 125.26 198.65 124.90 197.60 124.02 197.18 C 123.15 196.75 122.10 197.12 121.68 197.99 Z M 121.23 198.93 L 120.80 199.82 C 120.38 200.69 120.75 201.74 121.62 202.16 C 122.49 202.58 123.54 202.22 123.96 201.34 L 124.39 200.45 C 124.81 199.58 124.45 198.53 123.57 198.11 C 122.70 197.69 121.65 198.06 121.23 198.93 Z M 120.81 199.82 L 120.38 200.70 C 119.96 201.57 120.33 202.62 121.20 203.04 C 122.07 203.46 123.11 203.09 123.53 202.22 L 123.96 201.34 C 124.38 200.47 124.01 199.43 123.14 199.01 C 122.27 198.59 121.23 198.95 120.81 199.82 Z M 120.39 200.70 L 119.96 201.59 C 119.54 202.46 119.90 203.50 120.77 203.92 C 121.64 204.34 122.68 203.98 123.10 203.11 L 123.53 202.22 C 123.95 201.35 123.58 200.31 122.72 199.89 C 121.85 199.47 120.80 199.84 120.39 200.70 Z M 119.96 201.59 L 119.53 202.49 C 119.11 203.36 119.47 204.40 120.34 204.82 C 121.20 205.24 122.25 204.87 122.66 204.01 L 123.10 203.11 C 123.52 202.24 123.15 201.20 122.29 200.78 C 121.42 200.36 120.38 200.73 119.96 201.59 Z M 119.53 202.49 L 119.09 203.40 C 118.68 204.26 119.04 205.30 119.90 205.72 C 120.77 206.14 121.81 205.78 122.22 204.91 L 122.66 204.00 C 123.08 203.14 122.72 202.10 121.85 201.68 C 120.99 201.27 119.95 201.63 119.53 202.49 Z M 119.10 203.40 L 118.65 204.32 C 118.24 205.18 118.60 206.22 119.46 206.63 C 120.32 207.05 121.36 206.69 121.78 205.82 L 122.22 204.91 C 122.64 204.05 122.27 203.01 121.41 202.59 C 120.55 202.18 119.51 202.54 119.10 203.40 Z M 118.66 204.32 L 118.21 205.24 C 117.79 206.10 118.16 207.14 119.02 207.55 C 119.88 207.97 120.91 207.61 121.33 206.75 L 121.77 205.82 C 122.19 204.96 121.83 203.93 120.97 203.51 C 120.11 203.10 119.07 203.46 118.66 204.32 Z M 118.21 205.24 L 117.77 206.16 C 117.36 207.02 117.72 208.05 118.58 208.46 C 119.43 208.88 120.47 208.52 120.88 207.66 L 121.32 206.75 C 121.74 205.89 121.38 204.85 120.52 204.44 C 119.66 204.02 118.63 204.38 118.21 205.24 Z M 117.78 206.16 L 117.34 207.07 C 116.92 207.92 117.28 208.95 118.14 209.37 C 118.99 209.78 120.02 209.43 120.44 208.57 L 120.88 207.66 C 121.29 206.80 120.94 205.77 120.08 205.36 C 119.22 204.94 118.19 205.30 117.78 206.16 Z M 117.34 207.07 L 116.90 207.98 C 116.48 208.83 116.84 209.86 117.69 210.28 C 118.55 210.69 119.58 210.33 119.99 209.48 L 120.43 208.57 C 120.85 207.71 120.49 206.69 119.64 206.27 C 118.78 205.86 117.76 206.21 117.34 207.07 Z M 116.90 207.98 L 116.46 208.88 C 116.04 209.74 116.40 210.76 117.25 211.18 C 118.10 211.60 119.13 211.24 119.54 210.39 L 119.99 209.48 C 120.40 208.63 120.05 207.60 119.20 207.19 C 118.35 206.77 117.32 207.12 116.90 207.98 Z M 116.46 208.88 L 116.02 209.79 C 115.60 210.63 115.95 211.66 116.80 212.08 C 117.65 212.49 118.68 212.14 119.10 211.30 L 119.54 210.39 C 119.96 209.54 119.61 208.52 118.76 208.10 C 117.91 207.68 116.88 208.03 116.46 208.88 Z M 116.03 209.78 L 115.58 210.67 C 115.17 211.52 115.51 212.55 116.36 212.96 C 117.20 213.38 118.23 213.04 118.65 212.19 L 119.09 211.30 C 119.51 210.45 119.16 209.43 118.32 209.01 C 117.47 208.59 116.45 208.94 116.03 209.78 Z M 115.59 210.67 L 115.15 211.55 C 114.73 212.39 115.07 213.42 115.91 213.84 C 116.75 214.26 117.78 213.92 118.20 213.08 L 118.64 212.20 C 119.06 211.35 118.72 210.33 117.88 209.91 C 117.04 209.49 116.01 209.83 115.59 210.67 Z M 115.16 211.54 L 114.71 212.43 C 114.28 213.27 114.62 214.29 115.46 214.72 C 116.29 215.14 117.32 214.81 117.74 213.97 L 118.19 213.08 C 118.62 212.24 118.28 211.22 117.44 210.80 C 116.61 210.37 115.58 210.71 115.16 211.54 Z M 114.72 212.42 L 114.23 213.36 C 113.81 214.19 114.13 215.22 114.97 215.65 C 115.80 216.07 116.82 215.75 117.25 214.91 L 117.73 213.98 C 118.16 213.14 117.83 212.12 117.00 211.69 C 116.17 211.26 115.15 211.59 114.72 212.42 Z M 114.24 213.35 L 113.77 214.27 C 113.33 215.09 113.65 216.12 114.48 216.55 C 115.31 216.98 116.33 216.66 116.76 215.83 L 117.24 214.92 C 117.67 214.09 117.35 213.07 116.53 212.64 C 115.70 212.21 114.68 212.53 114.24 213.35 Z M 113.77 214.26 L 113.30 215.15 C 112.87 215.97 113.18 217.00 114.00 217.43 C 114.83 217.87 115.85 217.55 116.28 216.73 L 116.76 215.84 C 117.19 215.02 116.88 214.00 116.06 213.56 C 115.23 213.12 114.21 213.44 113.77 214.26 Z M 113.31 215.15 L 112.84 216.02 C 112.40 216.84 112.71 217.85 113.53 218.29 C 114.35 218.73 115.37 218.43 115.81 217.61 L 116.28 216.74 C 116.72 215.92 116.41 214.90 115.59 214.46 C 114.77 214.02 113.75 214.33 113.31 215.15 Z M 112.85 216.01 L 112.39 216.86 C 111.95 217.68 112.25 218.70 113.06 219.14 C 113.88 219.58 114.90 219.28 115.34 218.46 L 115.80 217.61 C 116.24 216.80 115.94 215.78 115.13 215.34 C 114.31 214.90 113.29 215.20 112.85 216.01 Z M 112.40 216.86 L 111.94 217.69 C 111.50 218.50 111.79 219.52 112.60 219.96 C 113.41 220.41 114.43 220.11 114.88 219.30 L 115.33 218.47 C 115.78 217.66 115.48 216.64 114.67 216.20 C 113.86 215.75 112.84 216.05 112.40 216.86 Z M 111.95 217.69 L 111.50 218.51 C 111.05 219.32 111.34 220.33 112.15 220.78 C 112.96 221.22 113.97 220.93 114.42 220.12 L 114.87 219.30 C 115.31 218.50 115.02 217.48 114.21 217.04 C 113.41 216.59 112.39 216.88 111.95 217.69 Z M 111.50 218.51 L 111.05 219.32 C 110.61 220.12 110.90 221.14 111.70 221.58 C 112.50 222.03 113.52 221.74 113.96 220.93 L 114.41 220.12 C 114.86 219.32 114.57 218.31 113.76 217.86 C 112.96 217.41 111.95 217.70 111.50 218.51 Z M 111.06 219.32 L 110.60 220.14 C 110.15 220.94 110.44 221.95 111.24 222.40 C 112.04 222.84 113.05 222.56 113.50 221.75 L 113.96 220.93 C 114.40 220.13 114.11 219.12 113.31 218.68 C 112.51 218.23 111.50 218.52 111.06 219.32 Z M 110.60 220.14 L 110.13 220.99 C 109.69 221.79 109.98 222.79 110.77 223.24 C 111.57 223.68 112.58 223.40 113.02 222.60 L 113.49 221.75 C 113.94 220.95 113.65 219.95 112.85 219.50 C 112.06 219.06 111.05 219.35 110.60 220.14 Z M 110.14 220.99 L 109.65 221.88 C 109.20 222.67 109.49 223.68 110.29 224.12 C 111.08 224.56 112.09 224.28 112.53 223.48 L 113.02 222.59 C 113.46 221.80 113.18 220.79 112.38 220.35 C 111.58 219.91 110.58 220.20 110.14 220.99 Z M 109.65 221.88 L 109.13 222.82 C 108.69 223.61 108.98 224.62 109.77 225.05 C 110.57 225.49 111.57 225.21 112.01 224.41 L 112.53 223.47 C 112.97 222.68 112.68 221.68 111.88 221.24 C 111.09 220.80 110.09 221.09 109.65 221.88 Z M 109.13 222.83 L 108.60 223.80 C 108.16 224.59 108.45 225.59 109.24 226.03 C 110.04 226.46 111.03 226.17 111.47 225.38 L 112.01 224.41 C 112.44 223.61 112.15 222.62 111.36 222.18 C 110.57 221.74 109.57 222.03 109.13 222.83 Z M 108.60 223.81 L 108.19 224.56 C 107.75 225.35 108.04 226.35 108.84 226.78 C 109.63 227.21 110.62 226.92 111.06 226.13 L 111.47 225.38 C 111.90 224.58 111.61 223.59 110.82 223.16 C 110.03 222.72 109.03 223.01 108.60 223.81 Z M 108.19 224.56 L 107.76 225.35 C 107.32 226.14 107.62 227.14 108.41 227.57 C 109.20 228.00 110.19 227.71 110.62 226.92 L 111.05 226.13 C 111.48 225.33 111.19 224.34 110.40 223.91 C 109.61 223.48 108.62 223.77 108.19 224.56 Z M 107.76 225.36 L 107.31 226.18 C 106.88 226.97 107.17 227.96 107.96 228.39 C 108.75 228.82 109.74 228.53 110.17 227.74 L 110.62 226.92 C 111.05 226.13 110.76 225.14 109.97 224.71 C 109.18 224.27 108.19 224.57 107.76 225.36 Z M 107.31 226.18 L 106.84 227.04 C 106.41 227.82 106.70 228.81 107.49 229.24 C 108.28 229.67 109.27 229.38 109.70 228.60 L 110.16 227.74 C 110.60 226.95 110.31 225.96 109.52 225.53 C 108.73 225.10 107.74 225.39 107.31 226.18 Z M 106.85 227.04 L 106.36 227.92 C 105.93 228.71 106.22 229.69 107.01 230.12 C 107.79 230.55 108.78 230.27 109.21 229.48 L 109.69 228.60 C 110.12 227.81 109.84 226.82 109.05 226.39 C 108.26 225.96 107.28 226.25 106.85 227.04 Z M 106.37 227.92 L 105.87 228.83 C 105.44 229.61 105.72 230.60 106.50 231.03 C 107.29 231.46 108.27 231.17 108.70 230.39 L 109.20 229.48 C 109.64 228.70 109.35 227.71 108.57 227.28 C 107.78 226.85 106.80 227.14 106.37 227.92 Z M 105.87 228.83 L 105.36 229.76 C 104.92 230.54 105.21 231.52 105.99 231.95 C 106.77 232.39 107.75 232.10 108.18 231.32 L 108.70 230.39 C 109.13 229.61 108.85 228.63 108.07 228.20 C 107.29 227.76 106.30 228.05 105.87 228.83 Z M 105.36 229.76 L 104.83 230.71 C 104.40 231.48 104.68 232.47 105.45 232.90 C 106.23 233.33 107.21 233.05 107.65 232.28 L 108.18 231.33 C 108.61 230.55 108.33 229.57 107.55 229.13 C 106.78 228.70 105.80 228.98 105.36 229.76 Z M 104.84 230.70 L 104.29 231.67 C 103.86 232.45 104.13 233.43 104.91 233.86 C 105.68 234.30 106.66 234.02 107.10 233.25 L 107.64 232.28 C 108.08 231.51 107.80 230.53 107.03 230.09 C 106.25 229.66 105.27 229.93 104.84 230.70 Z M 104.30 231.67 L 103.81 232.54 C 103.37 233.31 103.64 234.29 104.41 234.73 C 105.18 235.16 106.16 234.89 106.60 234.12 L 107.09 233.25 C 107.53 232.48 107.26 231.50 106.49 231.06 C 105.72 230.63 104.74 230.90 104.30 231.67 Z M 103.81 232.54 L 103.33 233.38 C 102.89 234.14 103.16 235.12 103.93 235.56 C 104.69 236.00 105.67 235.73 106.11 234.97 L 106.59 234.12 C 107.03 233.36 106.76 232.38 106.00 231.94 C 105.23 231.50 104.25 231.77 103.81 232.54 Z M 103.34 233.37 L 102.85 234.22 C 102.41 234.99 102.67 235.96 103.44 236.40 C 104.20 236.84 105.18 236.58 105.62 235.82 L 106.11 234.97 C 106.55 234.20 106.28 233.23 105.52 232.79 C 104.75 232.35 103.78 232.61 103.34 233.37 Z M 102.85 234.22 L 102.36 235.08 C 101.92 235.84 102.18 236.81 102.94 237.25 C 103.70 237.70 104.67 237.44 105.12 236.67 L 105.61 235.82 C 106.05 235.06 105.79 234.08 105.03 233.64 C 104.27 233.20 103.29 233.46 102.85 234.22 Z M 102.36 235.08 L 101.86 235.94 C 101.42 236.70 101.68 237.67 102.44 238.11 C 103.19 238.55 104.17 238.30 104.61 237.54 L 105.11 236.68 C 105.55 235.92 105.30 234.94 104.54 234.50 C 103.78 234.06 102.80 234.32 102.36 235.08 Z M 101.87 235.94 L 101.36 236.80 C 100.92 237.56 101.17 238.53 101.93 238.97 C 102.68 239.41 103.66 239.16 104.10 238.40 L 104.60 237.54 C 105.05 236.78 104.79 235.81 104.04 235.37 C 103.28 234.93 102.31 235.18 101.87 235.94 Z M 101.36 236.80 L 100.85 237.67 C 100.41 238.43 100.66 239.40 101.42 239.84 C 102.17 240.28 103.14 240.03 103.58 239.28 L 104.09 238.40 C 104.54 237.65 104.28 236.68 103.53 236.24 C 102.78 235.80 101.81 236.05 101.36 236.80 Z M 100.86 237.68 L 100.34 238.55 C 99.90 239.30 100.15 240.27 100.90 240.71 C 101.65 241.15 102.62 240.90 103.06 240.15 L 103.58 239.28 C 104.02 238.52 103.77 237.56 103.02 237.11 C 102.27 236.67 101.30 236.92 100.86 237.68 Z M 100.35 238.55 L 99.83 239.43 C 99.39 240.18 99.64 241.14 100.39 241.58 C 101.14 242.02 102.10 241.78 102.54 241.03 L 103.06 240.15 C 103.50 239.40 103.25 238.44 102.50 237.99 C 101.75 237.55 100.79 237.80 100.35 238.55 Z M 99.83 239.43 L 99.32 240.31 C 98.87 241.05 99.12 242.02 99.87 242.46 C 100.62 242.90 101.58 242.65 102.02 241.90 L 102.54 241.03 C 102.98 240.28 102.73 239.32 101.98 238.87 C 101.24 238.43 100.28 238.68 99.83 239.43 Z M 99.32 240.31 L 98.80 241.19 C 98.36 241.93 98.61 242.90 99.35 243.34 C 100.10 243.78 101.06 243.53 101.50 242.78 L 102.02 241.90 C 102.46 241.16 102.21 240.20 101.46 239.76 C 100.72 239.32 99.76 239.56 99.32 240.31 Z M 98.80 241.19 L 98.66 241.43 C 98.22 242.18 98.47 243.13 99.21 243.57 C 99.95 244.01 100.91 243.77 101.35 243.02 L 101.49 242.78 C 101.93 242.04 101.69 241.08 100.94 240.64 C 100.20 240.20 99.24 240.45 98.80 241.19 Z"
      fill="black"
      fill-rule="nonzero" /></svg>