<svg xmlns="http://www.w3.org/2000/svg" width="300" height="300" viewBox="0 0 300 300">
<path d="M 145.63 142.79 L 145.33 143.74 C 145.01 144.75 145.56 145.82 146.57 146.15 C 147.57 146.47 148.65 145.92 148.97 144.91 L 149.28 143.97 C 149.60 142.96 149.05 141.88 148.04 141.56 C 147.03 141.24 145.96 141.79 145.63 142.79 Z M 145.36 143.71 L 145.04 144.66 C 144.70 145.65 145.23 146.72 146.22 147.06 C 147.21 147.40 148.29 146.87 148.63 145.88 L 148.95 144.94 C 149.28 143.95 148.75 142.87 147.76 142.53 C 146.77 142.19 145.69 142.72 145.36 143.71 Z M 145.07 144.60 L 144.72 145.53 C 144.35 146.50 144.84 147.59 145.81 147.95 C 146.78 148.32 147.87 147.83 148.24 146.86 L 148.59 145.93 C 148.96 144.96 148.47 143.88 147.50 143.51 C 146.53 143.14 145.44 143.63 145.07 144.60 Z M 144.77 145.45 L 144.37 146.36 C 143.96 147.31 144.38 148.41 145.33 148.82 C 146.27 149.23 147.37 148.80 147.78 147.86 L 148.18 146.95 C 148.60 146.00 148.17 144.91 147.23 144.49 C 146.28 144.08 145.19 144.51 144.77 145.45 Z M 144.44 146.26 L 143.97 147.16 C 143.50 148.06 143.85 149.18 144.75 149.65 C 145.66 150.12 146.77 149.77 147.24 148.86 L 147.71 147.97 C 148.18 147.06 147.83 145.95 146.93 145.48 C 146.03 145.01 144.91 145.36 144.44 146.26 Z M 144.05 147.03 L 143.53 147.86 C 142.99 148.72 143.25 149.86 144.11 150.40 C 144.97 150.94 146.10 150.68 146.64 149.82 L 147.16 148.99 C 147.70 148.13 147.44 146.99 146.58 146.45 C 145.73 145.91 144.59 146.17 144.05 147.03 Z M 143.62 147.73 L 143.02 148.51 C 142.41 149.32 142.56 150.48 143.37 151.09 C 144.18 151.71 145.34 151.55 145.95 150.74 L 146.55 149.96 C 147.17 149.15 147.01 147.99 146.20 147.38 C 145.39 146.76 144.24 146.92 143.62 147.73 Z M 143.15 148.36 L 142.46 149.09 C 141.77 149.83 141.80 150.99 142.54 151.69 C 143.28 152.39 144.45 152.36 145.15 151.62 L 145.83 150.89 C 146.53 150.15 146.49 148.98 145.75 148.28 C 145.01 147.59 143.84 147.62 143.15 148.36 Z M 142.62 148.93 L 141.85 149.57 C 141.07 150.22 140.96 151.39 141.62 152.17 C 142.27 152.96 143.43 153.06 144.22 152.41 L 144.99 151.77 C 145.77 151.12 145.88 149.95 145.23 149.17 C 144.57 148.38 143.41 148.28 142.62 148.93 Z M 142.06 149.42 L 141.20 149.95 C 140.33 150.49 140.06 151.64 140.60 152.50 C 141.14 153.37 142.29 153.64 143.15 153.10 L 144.02 152.56 C 144.88 152.02 145.15 150.88 144.61 150.01 C 144.07 149.14 142.93 148.88 142.06 149.42 Z M 141.44 149.82 L 140.48 150.23 C 139.54 150.64 139.11 151.73 139.51 152.67 C 139.92 153.61 141.01 154.05 141.95 153.64 L 142.91 153.23 C 143.85 152.83 144.29 151.74 143.88 150.79 C 143.48 149.85 142.39 149.42 141.44 149.82 Z M 140.75 150.14 L 139.72 150.41 C 138.72 150.67 138.13 151.68 138.39 152.68 C 138.65 153.67 139.66 154.27 140.66 154.01 L 141.69 153.74 C 142.68 153.48 143.28 152.46 143.02 151.47 C 142.76 150.47 141.74 149.88 140.75 150.14 Z M 139.99 150.35 L 138.94 150.47 C 137.91 150.58 137.17 151.50 137.28 152.52 C 137.40 153.55 138.32 154.29 139.34 154.18 L 140.39 154.06 C 141.41 153.95 142.15 153.03 142.04 152.01 C 141.93 150.98 141.01 150.24 139.99 150.35 Z M 139.24 150.45 L 138.24 150.40 C 137.21 150.34 136.32 151.13 136.27 152.16 C 136.21 153.19 137.00 154.08 138.03 154.13 L 139.04 154.19 C 140.07 154.25 140.95 153.46 141.01 152.42 C 141.06 151.39 140.27 150.51 139.24 150.45 Z M 138.61 150.45 L 137.70 150.21 C 136.70 149.95 135.67 150.55 135.41 151.55 C 135.15 152.56 135.75 153.58 136.75 153.84 L 137.66 154.08 C 138.66 154.34 139.69 153.74 139.95 152.74 C 140.21 151.74 139.61 150.71 138.61 150.45 Z M 138.16 150.40 L 137.41 149.96 C 136.51 149.45 135.36 149.76 134.84 150.66 C 134.32 151.56 134.63 152.71 135.53 153.22 L 136.29 153.66 C 137.19 154.18 138.34 153.87 138.86 152.97 C 139.37 152.06 139.06 150.92 138.16 150.40 Z M 137.89 150.35 L 137.31 149.69 C 136.63 148.91 135.44 148.83 134.65 149.52 C 133.87 150.20 133.79 151.40 134.48 152.18 L 135.05 152.84 C 135.74 153.62 136.93 153.70 137.71 153.01 C 138.50 152.33 138.58 151.13 137.89 150.35 Z M 137.62 150.15 L 137.23 149.31 C 136.80 148.36 135.67 147.95 134.72 148.38 C 133.77 148.82 133.36 149.94 133.79 150.89 L 134.18 151.73 C 134.61 152.68 135.74 153.09 136.69 152.66 C 137.64 152.22 138.05 151.10 137.62 150.15 Z M 137.37 149.69 L 137.15 148.72 C 136.92 147.69 135.90 147.05 134.88 147.28 C 133.86 147.51 133.21 148.53 133.44 149.55 L 133.66 150.52 C 133.89 151.54 134.90 152.19 135.93 151.96 C 136.95 151.73 137.60 150.71 137.37 149.69 Z M 137.20 148.99 L 137.12 147.93 C 137.04 146.88 136.13 146.09 135.07 146.17 C 134.02 146.25 133.24 147.16 133.31 148.21 L 133.39 149.27 C 133.47 150.33 134.39 151.11 135.44 151.04 C 136.49 150.96 137.28 150.04 137.20 148.99 Z M 137.13 148.13 L 137.16 147.01 C 137.19 145.95 136.36 145.07 135.30 145.04 C 134.25 145.01 133.37 145.84 133.34 146.90 L 133.30 148.01 C 133.27 149.07 134.10 149.95 135.16 149.98 C 136.22 150.01 137.10 149.18 137.13 148.13 Z M 137.16 147.15 L 137.26 146.16 C 137.37 145.10 136.60 144.16 135.54 144.06 C 134.49 143.95 133.55 144.72 133.44 145.77 L 133.34 146.76 C 133.23 147.81 134.00 148.76 135.05 148.86 C 136.11 148.97 137.05 148.20 137.16 147.15 Z M 137.25 146.28 L 137.41 145.30 C 137.58 144.25 136.87 143.26 135.82 143.09 C 134.77 142.92 133.78 143.63 133.61 144.68 L 133.45 145.65 C 133.28 146.70 133.99 147.69 135.04 147.86 C 136.09 148.04 137.08 147.33 137.25 146.28 Z M 137.39 145.41 L 137.61 144.44 C 137.84 143.40 137.19 142.37 136.15 142.13 C 135.11 141.90 134.08 142.55 133.85 143.59 L 133.63 144.56 C 133.39 145.60 134.05 146.64 135.09 146.87 C 136.12 147.10 137.16 146.45 137.39 145.41 Z M 137.59 144.55 L 137.86 143.58 C 138.16 142.56 137.57 141.48 136.54 141.19 C 135.51 140.89 134.44 141.49 134.15 142.51 L 133.87 143.48 C 133.58 144.50 134.17 145.58 135.19 145.87 C 136.22 146.17 137.29 145.57 137.59 144.55 Z M 137.83 143.69 L 138.17 142.74 C 138.52 141.73 137.99 140.62 136.99 140.27 C 135.98 139.91 134.87 140.44 134.51 141.45 L 134.18 142.40 C 133.82 143.41 134.35 144.52 135.36 144.88 C 136.37 145.23 137.48 144.70 137.83 143.69 Z M 138.13 142.85 L 138.52 141.92 C 138.94 140.93 138.47 139.79 137.48 139.37 C 136.50 138.96 135.36 139.42 134.94 140.41 L 134.55 141.34 C 134.14 142.33 134.60 143.47 135.59 143.89 C 136.58 144.30 137.72 143.84 138.13 142.85 Z M 138.48 142.02 L 138.93 141.11 C 139.40 140.14 139.00 138.98 138.04 138.50 C 137.07 138.03 135.91 138.43 135.43 139.39 L 134.99 140.31 C 134.51 141.27 134.91 142.44 135.88 142.91 C 136.84 143.38 138.01 142.99 138.48 142.02 Z M 138.88 141.20 L 139.38 140.32 C 139.90 139.38 139.57 138.19 138.63 137.66 C 137.69 137.14 136.50 137.47 135.97 138.41 L 135.48 139.30 C 134.95 140.24 135.29 141.43 136.23 141.95 C 137.17 142.48 138.36 142.14 138.88 141.20 Z M 139.33 140.40 L 139.87 139.54 C 140.44 138.63 140.16 137.42 139.25 136.85 C 138.33 136.28 137.13 136.56 136.55 137.47 L 136.02 138.33 C 135.45 139.25 135.72 140.45 136.64 141.02 C 137.56 141.60 138.76 141.32 139.33 140.40 Z M 139.83 139.62 L 140.39 138.79 C 141.01 137.90 140.78 136.68 139.89 136.07 C 138.99 135.45 137.77 135.68 137.16 136.57 L 136.60 137.40 C 135.98 138.29 136.21 139.51 137.10 140.12 C 138.00 140.74 139.22 140.51 139.83 139.62 Z M 140.35 138.85 L 140.94 138.06 C 141.59 137.19 141.41 135.96 140.54 135.31 C 139.67 134.67 138.44 134.85 137.79 135.72 L 137.20 136.51 C 136.55 137.38 136.74 138.61 137.61 139.26 C 138.48 139.91 139.71 139.73 140.35 138.85 Z M 140.91 138.12 L 141.51 137.36 C 142.19 136.51 142.05 135.27 141.20 134.59 C 140.35 133.91 139.11 134.05 138.43 134.90 L 137.83 135.66 C 137.15 136.51 137.29 137.75 138.14 138.43 C 138.99 139.11 140.23 138.97 140.91 138.12 Z M 141.48 137.42 L 142.17 136.61 C 142.88 135.78 142.78 134.53 141.95 133.82 C 141.12 133.11 139.87 133.20 139.16 134.03 L 138.47 134.85 C 137.76 135.68 137.86 136.92 138.69 137.63 C 139.52 138.34 140.77 138.25 141.48 137.42 Z M 142.12 136.69 L 142.83 135.94 C 143.58 135.14 143.55 133.87 142.75 133.12 C 141.95 132.36 140.69 132.40 139.93 133.20 L 139.22 133.95 C 138.46 134.75 138.50 136.01 139.30 136.77 C 140.10 137.52 141.36 137.49 142.12 136.69 Z M 142.74 136.04 L 143.48 135.36 C 144.29 134.61 144.34 133.34 143.59 132.52 C 142.84 131.71 141.57 131.66 140.75 132.41 L 140.02 133.09 C 139.20 133.84 139.15 135.11 139.90 135.93 C 140.66 136.74 141.93 136.79 142.74 136.04 Z M 143.35 135.49 L 144.12 134.90 C 145.00 134.22 145.17 132.95 144.48 132.06 C 143.80 131.18 142.53 131.01 141.64 131.69 L 140.88 132.28 C 139.99 132.97 139.83 134.24 140.51 135.12 C 141.19 136.01 142.47 136.17 143.35 135.49 Z M 143.94 135.04 L 144.74 134.55 C 145.71 133.97 146.01 132.71 145.43 131.75 C 144.84 130.79 143.59 130.48 142.63 131.07 L 141.82 131.55 C 140.86 132.14 140.55 133.39 141.14 134.36 C 141.72 135.32 142.98 135.62 143.94 135.04 Z M 144.49 134.69 L 145.45 134.28 C 146.49 133.84 146.97 132.63 146.52 131.59 C 146.08 130.55 144.87 130.07 143.83 130.51 L 142.88 130.92 C 141.84 131.37 141.36 132.57 141.80 133.61 C 142.25 134.65 143.45 135.14 144.49 134.69 Z M 145.10 134.40 L 146.13 134.16 C 147.23 133.91 147.92 132.80 147.66 131.70 C 147.41 130.60 146.31 129.91 145.20 130.16 L 144.18 130.40 C 143.08 130.65 142.39 131.76 142.64 132.86 C 142.90 133.96 144.00 134.65 145.10 134.40 Z M 145.66 134.21 L 146.64 134.22 C 147.77 134.22 148.69 133.30 148.70 132.17 C 148.70 131.04 147.78 130.12 146.65 130.11 L 145.67 130.11 C 144.54 130.11 143.62 131.02 143.61 132.16 C 143.61 133.29 144.52 134.21 145.66 134.21 Z M 146.02 134.12 L 146.90 134.40 C 147.97 134.75 149.13 134.16 149.48 133.08 C 149.83 132.00 149.23 130.85 148.16 130.50 L 147.28 130.21 C 146.20 129.86 145.04 130.46 144.69 131.53 C 144.35 132.61 144.94 133.77 146.02 134.12 Z M 146.22 134.03 L 146.90 134.59 C 147.77 135.31 149.06 135.19 149.79 134.32 C 150.51 133.45 150.39 132.15 149.51 131.43 L 148.83 130.87 C 147.96 130.15 146.67 130.27 145.95 131.14 C 145.22 132.01 145.35 133.31 146.22 134.03 Z M 146.47 134.10 L 146.89 134.78 C 147.49 135.74 148.76 136.03 149.72 135.43 C 150.68 134.83 150.97 133.56 150.37 132.60 L 149.94 131.92 C 149.34 130.96 148.08 130.67 147.12 131.27 C 146.16 131.87 145.87 133.14 146.47 134.10 Z M 146.71 134.42 L 147.03 135.26 C 147.44 136.32 148.62 136.85 149.68 136.45 C 150.74 136.04 151.27 134.86 150.87 133.80 L 150.54 132.96 C 150.14 131.90 148.96 131.37 147.90 131.77 C 146.84 132.18 146.31 133.36 146.71 134.42 Z M 146.96 135.01 L 147.19 135.99 C 147.46 137.09 148.57 137.76 149.67 137.50 C 150.77 137.23 151.44 136.13 151.18 135.03 L 150.94 134.05 C 150.68 132.95 149.57 132.27 148.47 132.54 C 147.37 132.81 146.69 133.91 146.96 135.01 Z M 147.16 135.82 L 147.33 136.90 C 147.50 138.01 148.55 138.78 149.66 138.61 C 150.78 138.43 151.55 137.39 151.38 136.27 L 151.21 135.20 C 151.04 134.08 149.99 133.31 148.87 133.48 C 147.76 133.66 146.99 134.70 147.16 135.82 Z M 147.32 136.79 L 147.43 137.93 C 147.54 139.05 148.54 139.87 149.67 139.76 C 150.79 139.65 151.61 138.65 151.50 137.52 L 151.39 136.38 C 151.28 135.26 150.27 134.43 149.15 134.55 C 148.02 134.66 147.20 135.66 147.32 136.79 Z M 147.42 137.86 L 147.50 138.92 C 147.57 140.05 148.55 140.90 149.67 140.83 C 150.80 140.75 151.65 139.77 151.58 138.65 L 151.51 137.59 C 151.43 136.46 150.45 135.61 149.33 135.68 C 148.20 135.76 147.35 136.73 147.42 137.86 Z M 147.50 138.87 L 147.54 139.80 C 147.59 140.93 148.54 141.80 149.67 141.75 C 150.79 141.70 151.67 140.75 151.62 139.62 L 151.58 138.70 C 151.53 137.57 150.57 136.70 149.45 136.74 C 148.32 136.79 147.45 137.75 147.50 138.87 Z M 147.54 139.74 L 147.55 140.69 C 147.57 141.81 148.50 142.71 149.62 142.70 C 150.75 142.68 151.65 141.75 151.63 140.63 L 151.62 139.68 C 151.60 138.56 150.67 137.66 149.55 137.68 C 148.42 137.69 147.52 138.62 147.54 139.74 Z M 147.56 140.62 L 147.54 141.58 C 147.51 142.70 148.40 143.63 149.53 143.66 C 150.65 143.68 151.58 142.79 151.61 141.66 L 151.63 140.70 C 151.65 139.58 150.76 138.65 149.63 138.62 C 148.51 138.60 147.58 139.49 147.56 140.62 Z M 147.54 141.49 L 147.48 142.48 C 147.41 143.60 148.26 144.57 149.38 144.64 C 150.50 144.71 151.47 143.86 151.54 142.74 L 151.60 141.75 C 151.67 140.63 150.82 139.66 149.70 139.59 C 148.58 139.52 147.61 140.37 147.54 141.49 Z M 147.49 142.39 L 147.38 143.41 C 147.26 144.52 148.06 145.52 149.18 145.64 C 150.29 145.76 151.29 144.96 151.41 143.85 L 151.53 142.83 C 151.65 141.72 150.84 140.71 149.73 140.59 C 148.62 140.47 147.61 141.28 147.49 142.39 Z M 147.40 143.31 L 147.23 144.36 C 147.05 145.46 147.81 146.50 148.91 146.68 C 150.02 146.85 151.05 146.10 151.23 145.00 L 151.40 143.95 C 151.57 142.84 150.82 141.80 149.72 141.63 C 148.61 141.45 147.58 142.20 147.40 143.31 Z M 147.25 144.26 L 147.02 145.35 C 146.79 146.44 147.49 147.51 148.58 147.75 C 149.67 147.98 150.74 147.28 150.98 146.19 L 151.21 145.10 C 151.44 144.01 150.74 142.93 149.65 142.70 C 148.56 142.47 147.49 143.17 147.25 144.26 Z M 147.05 145.26 L 146.79 146.22 C 146.51 147.29 147.15 148.40 148.23 148.68 C 149.31 148.96 150.41 148.32 150.70 147.24 L 150.95 146.28 C 151.23 145.21 150.59 144.10 149.51 143.82 C 148.43 143.54 147.33 144.18 147.05 145.26 Z M 146.82 146.14 L 146.52 147.12 C 146.19 148.18 146.79 149.30 147.85 149.63 C 148.91 149.96 150.04 149.36 150.37 148.30 L 150.67 147.32 C 151.00 146.26 150.40 145.13 149.34 144.81 C 148.28 144.48 147.15 145.08 146.82 146.14 Z M 146.55 147.04 L 146.21 148.02 C 145.84 149.07 146.39 150.21 147.43 150.58 C 148.48 150.95 149.62 150.40 149.99 149.36 L 150.34 148.37 C 150.71 147.33 150.16 146.18 149.11 145.82 C 148.07 145.45 146.92 146.00 146.55 147.04 Z M 146.24 147.95 L 145.85 148.92 C 145.44 149.94 145.94 151.11 146.97 151.52 C 148.00 151.93 149.16 151.43 149.57 150.40 L 149.96 149.43 C 150.37 148.40 149.87 147.24 148.84 146.83 C 147.81 146.42 146.65 146.92 146.24 147.95 Z M 145.89 148.84 L 145.47 149.79 C 145.01 150.79 145.46 151.97 146.47 152.43 C 147.48 152.88 148.66 152.43 149.11 151.42 L 149.53 150.48 C 149.98 149.47 149.54 148.29 148.53 147.84 C 147.52 147.39 146.34 147.84 145.89 148.84 Z M 145.51 149.71 L 145.05 150.61 C 144.56 151.59 144.95 152.79 145.93 153.29 C 146.91 153.78 148.11 153.39 148.61 152.41 L 149.06 151.50 C 149.56 150.52 149.17 149.32 148.19 148.83 C 147.20 148.33 146.01 148.72 145.51 149.71 Z M 145.11 150.52 L 144.62 151.37 C 144.07 152.33 144.40 153.54 145.35 154.09 C 146.30 154.63 147.52 154.30 148.06 153.35 L 148.55 152.50 C 149.10 151.55 148.77 150.33 147.82 149.79 C 146.86 149.24 145.65 149.57 145.11 150.52 Z M 144.68 151.28 L 144.17 152.06 C 143.57 152.97 143.82 154.20 144.74 154.80 C 145.65 155.40 146.88 155.15 147.48 154.23 L 148.00 153.45 C 148.60 152.54 148.34 151.31 147.43 150.71 C 146.51 150.11 145.29 150.36 144.68 151.28 Z M 144.26 151.94 L 143.65 152.73 C 142.98 153.59 143.13 154.84 144.00 155.50 C 144.86 156.17 146.10 156.02 146.77 155.15 L 147.39 154.36 C 148.06 153.50 147.90 152.25 147.04 151.59 C 146.17 150.92 144.93 151.07 144.26 151.94 Z M 143.80 152.56 L 142.94 153.44 C 142.17 154.21 142.18 155.46 142.96 156.23 C 143.74 156.99 144.99 156.98 145.75 156.21 L 146.62 155.33 C 147.38 154.55 147.37 153.30 146.59 152.54 C 145.82 151.77 144.57 151.78 143.80 152.56 Z M 143.17 153.23 L 142.29 153.88 C 141.41 154.53 141.23 155.76 141.87 156.64 C 142.52 157.52 143.75 157.71 144.63 157.06 L 145.51 156.41 C 146.39 155.76 146.58 154.53 145.93 153.65 C 145.29 152.77 144.05 152.59 143.17 153.23 Z M 142.62 153.69 L 141.74 154.10 C 140.75 154.57 140.33 155.74 140.80 156.73 C 141.26 157.71 142.44 158.14 143.42 157.67 L 144.30 157.26 C 145.29 156.79 145.71 155.61 145.25 154.63 C 144.78 153.64 143.60 153.22 142.62 153.69 Z M 142.19 153.95 L 141.34 154.12 C 140.27 154.34 139.58 155.38 139.80 156.45 C 140.01 157.52 141.05 158.21 142.12 157.99 L 142.97 157.82 C 144.04 157.60 144.73 156.56 144.52 155.49 C 144.30 154.43 143.26 153.74 142.19 153.95 Z M 141.92 154.09 L 141.12 154.02 C 140.03 153.91 139.07 154.71 138.96 155.79 C 138.86 156.87 139.65 157.84 140.74 157.94 L 141.54 158.02 C 142.62 158.13 143.59 157.33 143.69 156.25 C 143.80 155.16 143.01 154.20 141.92 154.09 Z M 141.74 154.18 L 141.02 153.85 C 140.03 153.40 138.86 153.84 138.41 154.84 C 137.96 155.83 138.40 157.00 139.39 157.45 L 140.11 157.78 C 141.11 158.23 142.28 157.79 142.73 156.80 C 143.18 155.80 142.74 154.63 141.74 154.18 Z M 141.50 154.15 L 140.86 153.60 C 140.03 152.88 138.78 152.98 138.07 153.81 C 137.35 154.64 137.44 155.89 138.27 156.61 L 138.91 157.16 C 139.74 157.87 141.00 157.78 141.71 156.95 C 142.43 156.12 142.33 154.86 141.50 154.15 Z M 141.15 153.88 L 140.58 153.15 C 139.91 152.27 138.65 152.11 137.78 152.78 C 136.91 153.46 136.75 154.71 137.42 155.58 L 137.99 156.32 C 138.66 157.20 139.91 157.36 140.79 156.68 C 141.66 156.01 141.82 154.76 141.15 153.88 Z M 140.75 153.37 L 140.24 152.48 C 139.69 151.52 138.47 151.18 137.50 151.73 C 136.54 152.27 136.20 153.50 136.75 154.46 L 137.25 155.36 C 137.80 156.32 139.03 156.66 139.99 156.11 C 140.96 155.56 141.29 154.34 140.75 153.37 Z M 140.34 152.65 L 139.89 151.65 C 139.44 150.63 138.25 150.17 137.23 150.62 C 136.21 151.08 135.75 152.27 136.20 153.29 L 136.65 154.29 C 137.10 155.31 138.30 155.77 139.32 155.32 C 140.33 154.87 140.79 153.67 140.34 152.65 Z M 139.96 151.77 L 139.56 150.69 C 139.18 149.64 138.01 149.09 136.96 149.48 C 135.90 149.86 135.36 151.03 135.74 152.08 L 136.14 153.16 C 136.52 154.22 137.69 154.76 138.74 154.38 C 139.80 153.99 140.34 152.83 139.96 151.77 Z M 139.60 150.78 L 139.29 149.80 C 138.96 148.72 137.81 148.12 136.74 148.45 C 135.66 148.79 135.06 149.93 135.40 151.01 L 135.70 151.99 C 136.04 153.07 137.18 153.67 138.26 153.33 C 139.34 153.00 139.94 151.85 139.60 150.78 Z M 139.32 149.86 L 139.06 148.90 C 138.76 147.81 137.64 147.17 136.55 147.47 C 135.45 147.76 134.81 148.89 135.11 149.98 L 135.37 150.94 C 135.67 152.03 136.79 152.68 137.88 152.38 C 138.98 152.08 139.62 150.96 139.32 149.86 Z M 139.08 148.97 L 138.85 147.99 C 138.59 146.89 137.48 146.21 136.38 146.47 C 135.27 146.73 134.59 147.84 134.85 148.94 L 135.09 149.92 C 135.35 151.02 136.46 151.70 137.56 151.44 C 138.66 151.18 139.35 150.07 139.08 148.97 Z M 138.87 148.05 L 138.67 147.06 C 138.44 145.95 137.35 145.23 136.23 145.46 C 135.12 145.69 134.40 146.78 134.63 147.90 L 134.83 148.88 C 135.06 150.00 136.15 150.71 137.27 150.48 C 138.38 150.25 139.10 149.16 138.87 148.05 Z M 138.68 147.12 L 138.51 146.13 C 138.31 145.00 137.23 144.25 136.11 144.45 C 134.98 144.65 134.24 145.73 134.44 146.85 L 134.61 147.84 C 134.81 148.97 135.89 149.72 137.01 149.52 C 138.14 149.32 138.88 148.24 138.68 147.12 Z M 138.52 146.18 L 138.37 145.19 C 138.20 144.05 137.14 143.27 136.01 143.45 C 134.88 143.62 134.10 144.68 134.27 145.81 L 134.42 146.80 C 134.59 147.93 135.65 148.71 136.78 148.54 C 137.92 148.37 138.69 147.31 138.52 146.18 Z M 138.38 145.23 L 138.26 144.24 C 138.11 143.11 137.07 142.30 135.93 142.45 C 134.79 142.59 133.98 143.63 134.13 144.77 L 134.26 145.76 C 134.40 146.90 135.45 147.71 136.59 147.56 C 137.72 147.42 138.53 146.37 138.38 145.23 Z M 138.27 144.29 L 138.16 143.28 C 138.04 142.14 137.01 141.31 135.87 141.43 C 134.72 141.55 133.89 142.57 134.01 143.72 L 134.12 144.73 C 134.24 145.87 135.27 146.70 136.41 146.58 C 137.56 146.46 138.39 145.44 138.27 144.29 Z M 138.16 143.33 L 138.08 142.32 C 137.99 141.17 136.98 140.32 135.83 140.41 C 134.69 140.51 133.83 141.51 133.93 142.66 L 134.01 143.67 C 134.10 144.82 135.11 145.67 136.26 145.58 C 137.40 145.48 138.26 144.48 138.16 143.33 Z M 138.09 142.37 L 138.03 141.37 C 137.96 140.22 136.97 139.34 135.83 139.41 C 134.68 139.47 133.80 140.46 133.86 141.61 L 133.92 142.61 C 133.99 143.76 134.98 144.64 136.13 144.57 C 137.27 144.51 138.15 143.52 138.09 142.37 Z M 138.03 141.42 L 138.00 140.42 C 137.96 139.27 136.99 138.37 135.84 138.41 C 134.69 138.45 133.79 139.41 133.83 140.56 L 133.86 141.56 C 133.90 142.71 134.87 143.61 136.02 143.57 C 137.17 143.53 138.07 142.57 138.03 141.42 Z M 138.00 140.47 L 137.99 139.48 C 137.98 138.33 137.04 137.41 135.88 137.42 C 134.73 137.43 133.81 138.37 133.82 139.52 L 133.83 140.51 C 133.84 141.66 134.78 142.59 135.93 142.58 C 137.08 142.57 138.01 141.63 138.00 140.47 Z M 137.99 139.53 L 138.00 138.55 C 138.02 137.39 137.10 136.45 135.95 136.43 C 134.80 136.41 133.85 137.33 133.83 138.48 L 133.82 139.47 C 133.80 140.62 134.72 141.57 135.87 141.59 C 137.02 141.60 137.97 140.69 137.99 139.53 Z M 138.00 138.60 L 138.04 137.60 C 138.09 136.45 137.19 135.48 136.04 135.43 C 134.89 135.39 133.92 136.28 133.88 137.43 L 133.84 138.43 C 133.79 139.58 134.68 140.55 135.83 140.60 C 136.98 140.64 137.96 139.75 138.00 138.60 Z M 138.04 137.66 L 138.11 136.62 C 138.19 135.47 137.32 134.48 136.18 134.40 C 135.03 134.32 134.03 135.19 133.95 136.33 L 133.88 137.37 C 133.80 138.52 134.67 139.52 135.82 139.60 C 136.96 139.68 137.96 138.81 138.04 137.66 Z M 138.10 136.70 L 138.22 135.68 C 138.34 134.53 137.51 133.50 136.37 133.38 C 135.22 133.25 134.20 134.08 134.07 135.23 L 133.96 136.25 C 133.83 137.40 134.66 138.43 135.81 138.55 C 136.95 138.68 137.98 137.85 138.10 136.70 Z M 138.20 135.79 L 138.36 134.78 C 138.55 133.65 137.78 132.57 136.64 132.39 C 135.50 132.21 134.43 132.98 134.25 134.11 L 134.09 135.12 C 133.90 136.25 134.67 137.32 135.81 137.51 C 136.95 137.69 138.02 136.92 138.20 135.79 Z M 138.34 134.92 L 138.56 133.95 C 138.82 132.83 138.13 131.71 137.00 131.45 C 135.88 131.19 134.76 131.89 134.50 133.01 L 134.28 133.98 C 134.01 135.10 134.71 136.22 135.83 136.48 C 136.95 136.74 138.08 136.04 138.34 134.92 Z M 138.51 134.12 L 138.81 133.20 C 139.17 132.11 138.57 130.93 137.47 130.57 C 136.38 130.22 135.20 130.82 134.85 131.91 L 134.55 132.84 C 134.19 133.93 134.79 135.11 135.89 135.46 C 136.98 135.82 138.16 135.22 138.51 134.12 Z M 138.74 133.40 L 139.12 132.54 C 139.59 131.49 139.11 130.26 138.06 129.79 C 137.01 129.32 135.78 129.80 135.31 130.85 L 134.93 131.71 C 134.46 132.76 134.93 134.00 135.98 134.46 C 137.04 134.93 138.27 134.46 138.74 133.40 Z M 139.00 132.77 L 139.49 131.95 C 140.09 130.97 139.77 129.69 138.79 129.09 C 137.80 128.50 136.52 128.81 135.92 129.80 L 135.43 130.62 C 134.84 131.60 135.15 132.88 136.14 133.48 C 137.12 134.07 138.40 133.76 139.00 132.77 Z M 139.33 132.18 L 139.93 131.43 C 140.65 130.54 140.51 129.22 139.61 128.50 C 138.71 127.78 137.40 127.93 136.68 128.83 L 136.08 129.57 C 135.36 130.47 135.51 131.78 136.40 132.50 C 137.30 133.22 138.61 133.08 139.33 132.18 Z M 139.75 131.63 L 140.45 130.96 C 141.28 130.17 141.30 128.85 140.51 128.02 C 139.71 127.19 138.39 127.16 137.56 127.96 L 136.87 128.63 C 136.04 129.42 136.01 130.74 136.80 131.57 C 137.60 132.40 138.92 132.43 139.75 131.63 Z M 140.25 131.13 L 141.04 130.54 C 141.96 129.85 142.16 128.55 141.47 127.63 C 140.78 126.70 139.48 126.51 138.55 127.20 L 137.76 127.79 C 136.84 128.48 136.65 129.78 137.33 130.70 C 138.02 131.63 139.33 131.82 140.25 131.13 Z M 140.84 130.67 L 141.72 130.16 C 142.72 129.59 143.06 128.32 142.48 127.32 C 141.91 126.32 140.64 125.98 139.64 126.56 L 138.76 127.07 C 137.76 127.64 137.42 128.92 137.99 129.91 C 138.57 130.91 139.84 131.25 140.84 130.67 Z M 141.52 130.26 L 142.49 129.83 C 143.55 129.37 144.02 128.14 143.56 127.09 C 143.09 126.04 141.86 125.56 140.81 126.03 L 139.84 126.46 C 138.79 126.92 138.31 128.15 138.78 129.20 C 139.24 130.25 140.47 130.73 141.52 130.26 Z M 142.31 129.91 L 143.29 129.58 C 144.38 129.22 144.97 128.04 144.61 126.95 C 144.25 125.86 143.07 125.27 141.98 125.63 L 141.00 125.96 C 139.91 126.32 139.32 127.50 139.68 128.59 C 140.04 129.68 141.22 130.27 142.31 129.91 Z M 143.13 129.63 L 144.13 129.38 C 145.24 129.11 145.93 127.99 145.66 126.87 C 145.39 125.76 144.27 125.07 143.15 125.34 L 142.15 125.58 C 141.03 125.85 140.35 126.98 140.62 128.09 C 140.89 129.21 142.01 129.89 143.13 129.63 Z M 143.96 129.42 L 144.98 129.26 C 146.12 129.08 146.89 128.02 146.72 126.88 C 146.54 125.75 145.48 124.97 144.35 125.15 L 143.32 125.31 C 142.18 125.48 141.41 126.55 141.58 127.68 C 141.76 128.82 142.82 129.59 143.96 129.42 Z M 144.80 129.28 L 145.83 129.21 C 146.98 129.13 147.84 128.14 147.77 127.00 C 147.69 125.85 146.70 124.99 145.56 125.06 L 144.53 125.13 C 143.38 125.21 142.52 126.20 142.59 127.34 C 142.67 128.49 143.66 129.35 144.80 129.28 Z M 145.63 129.21 L 146.63 129.24 C 147.78 129.28 148.74 128.38 148.77 127.23 C 148.81 126.09 147.91 125.13 146.76 125.09 L 145.76 125.06 C 144.61 125.02 143.65 125.92 143.62 127.07 C 143.58 128.21 144.48 129.17 145.63 129.21 Z M 146.40 129.22 L 147.36 129.36 C 148.49 129.53 149.54 128.74 149.71 127.61 C 149.88 126.48 149.09 125.42 147.96 125.25 L 147.00 125.11 C 145.87 124.95 144.81 125.73 144.65 126.86 C 144.48 128.00 145.26 129.05 146.40 129.22 Z M 147.07 129.30 L 147.96 129.56 C 149.06 129.88 150.21 129.25 150.53 128.15 C 150.86 127.05 150.23 125.90 149.13 125.58 L 148.24 125.32 C 147.14 125.00 145.99 125.63 145.67 126.72 C 145.35 127.82 145.98 128.98 147.07 129.30 Z M 147.63 129.43 L 148.46 129.84 C 149.49 130.34 150.73 129.92 151.24 128.89 C 151.74 127.87 151.32 126.62 150.29 126.12 L 149.46 125.71 C 148.43 125.20 147.19 125.62 146.68 126.65 C 146.18 127.68 146.60 128.92 147.63 129.43 Z M 148.13 129.63 L 148.87 130.19 C 149.78 130.87 151.08 130.69 151.77 129.78 C 152.46 128.87 152.27 127.57 151.36 126.88 L 150.63 126.32 C 149.71 125.63 148.41 125.82 147.72 126.73 C 147.04 127.64 147.22 128.94 148.13 129.63 Z M 148.59 129.94 L 149.22 130.62 C 150.00 131.46 151.31 131.52 152.15 130.74 C 152.99 129.97 153.04 128.65 152.27 127.81 L 151.64 127.13 C 150.86 126.29 149.55 126.23 148.71 127.01 C 147.87 127.78 147.82 129.09 148.59 129.94 Z M 149.02 130.36 L 149.56 131.18 C 150.19 132.13 151.48 132.39 152.43 131.76 C 153.38 131.12 153.64 129.84 153.01 128.88 L 152.47 128.07 C 151.84 127.12 150.55 126.86 149.60 127.49 C 148.65 128.13 148.39 129.41 149.02 130.36 Z M 149.42 130.93 L 149.87 131.86 C 150.37 132.89 151.61 133.32 152.64 132.82 C 153.67 132.32 154.10 131.08 153.60 130.05 L 153.15 129.13 C 152.65 128.10 151.41 127.67 150.38 128.17 C 149.35 128.67 148.92 129.91 149.42 130.93 Z M 149.79 131.65 L 150.16 132.69 C 150.54 133.77 151.72 134.33 152.80 133.95 C 153.88 133.56 154.44 132.38 154.06 131.30 L 153.69 130.26 C 153.30 129.19 152.12 128.63 151.04 129.01 C 149.97 129.39 149.40 130.58 149.79 131.65 Z M 150.11 132.52 L 150.38 133.55 C 150.67 134.65 151.80 135.31 152.90 135.02 C 154.01 134.73 154.67 133.60 154.38 132.50 L 154.11 131.47 C 153.82 130.36 152.68 129.71 151.58 130.00 C 150.47 130.29 149.81 131.42 150.11 132.52 Z M 150.35 133.43 L 150.54 134.39 C 150.76 135.51 151.85 136.24 152.97 136.02 C 154.09 135.80 154.82 134.71 154.60 133.59 L 154.41 132.62 C 154.18 131.50 153.09 130.77 151.97 130.99 C 150.85 131.22 150.13 132.31 150.35 133.43 Z M 150.52 134.29 L 150.67 135.30 C 150.84 136.43 151.89 137.21 153.02 137.04 C 154.15 136.87 154.93 135.82 154.76 134.69 L 154.61 133.69 C 154.45 132.56 153.39 131.78 152.27 131.95 C 151.14 132.11 150.36 133.16 150.52 134.29 Z M 150.66 135.21 L 150.77 136.24 C 150.89 137.38 151.91 138.20 153.04 138.08 C 154.18 137.96 155.00 136.94 154.88 135.81 L 154.77 134.78 C 154.65 133.64 153.64 132.82 152.50 132.94 C 151.37 133.06 150.54 134.08 150.66 135.21 Z M 150.76 136.16 L 150.83 137.20 C 150.91 138.34 151.90 139.20 153.03 139.12 C 154.17 139.05 155.03 138.06 154.96 136.92 L 154.89 135.89 C 154.81 134.75 153.83 133.89 152.69 133.96 C 151.55 134.04 150.69 135.02 150.76 136.16 Z M 150.83 137.12 L 150.86 138.15 C 150.90 139.29 151.85 140.19 152.99 140.15 C 154.13 140.12 155.03 139.16 154.99 138.02 L 154.96 137.00 C 154.93 135.86 153.97 134.96 152.83 135.00 C 151.69 135.03 150.80 135.98 150.83 137.12 Z M 150.86 138.08 L 150.86 139.08 C 150.85 140.22 151.78 141.15 152.92 141.15 C 154.06 141.15 154.99 140.23 154.99 139.09 L 154.99 138.09 C 155.00 136.95 154.08 136.02 152.94 136.02 C 151.80 136.02 150.87 136.94 150.86 138.08 Z M 150.86 139.00 L 150.82 139.96 C 150.78 141.10 151.67 142.06 152.80 142.10 C 153.94 142.15 154.90 141.26 154.95 140.12 L 154.99 139.17 C 155.03 138.03 154.15 137.07 153.01 137.02 C 151.87 136.98 150.91 137.86 150.86 139.00 Z M 150.83 139.87 L 150.74 140.90 C 150.65 142.04 151.50 143.03 152.64 143.12 C 153.77 143.22 154.77 142.37 154.86 141.23 L 154.94 140.21 C 155.04 139.07 154.19 138.08 153.05 137.98 C 151.92 137.89 150.92 138.74 150.83 139.87 Z M 150.76 140.77 L 150.61 141.82 C 150.45 142.95 151.23 144.00 152.36 144.16 C 153.49 144.32 154.54 143.53 154.70 142.40 L 154.85 141.36 C 155.01 140.23 154.22 139.18 153.09 139.02 C 151.96 138.86 150.92 139.65 150.76 140.77 Z M 150.64 141.65 L 150.42 142.62 C 150.16 143.73 150.86 144.84 151.97 145.09 C 153.08 145.35 154.19 144.66 154.45 143.54 L 154.67 142.58 C 154.92 141.46 154.23 140.36 153.12 140.10 C 152.01 139.84 150.90 140.54 150.64 141.65 Z M 150.48 142.41 L 150.17 143.30 C 149.79 144.38 150.37 145.56 151.45 145.93 C 152.53 146.31 153.70 145.73 154.08 144.65 L 154.39 143.75 C 154.76 142.67 154.19 141.50 153.11 141.12 C 152.03 140.75 150.85 141.33 150.48 142.41 Z M 150.26 143.07 L 149.85 143.92 C 149.35 144.95 149.78 146.19 150.80 146.69 C 151.83 147.19 153.07 146.76 153.57 145.73 L 153.98 144.88 C 154.48 143.85 154.05 142.62 153.03 142.12 C 152.00 141.62 150.76 142.05 150.26 143.07 Z M 149.97 143.70 L 149.44 144.52 C 148.82 145.47 149.09 146.76 150.05 147.38 C 151.01 148.00 152.29 147.73 152.92 146.77 L 153.45 145.96 C 154.07 145.00 153.80 143.71 152.84 143.09 C 151.88 142.47 150.60 142.74 149.97 143.70 Z M 149.58 144.32 L 148.95 145.09 C 148.22 145.98 148.34 147.28 149.23 148.01 C 150.11 148.74 151.42 148.61 152.14 147.73 L 152.78 146.96 C 153.51 146.08 153.38 144.77 152.50 144.04 C 151.62 143.32 150.31 143.44 149.58 144.32 Z M 149.07 144.95 L 148.39 145.64 C 147.59 146.45 147.59 147.77 148.41 148.57 C 149.22 149.38 150.53 149.37 151.34 148.56 L 152.02 147.87 C 152.83 147.06 152.82 145.74 152.01 144.94 C 151.19 144.13 149.88 144.14 149.07 144.95 Z M 148.50 145.53 L 147.74 146.20 C 146.88 146.95 146.79 148.26 147.54 149.13 C 148.29 149.99 149.61 150.08 150.47 149.33 L 151.23 148.66 C 152.09 147.91 152.18 146.60 151.43 145.73 C 150.68 144.87 149.36 144.78 148.50 145.53 Z M 147.84 146.11 L 147.02 146.74 C 146.11 147.44 145.93 148.75 146.63 149.66 C 147.33 150.57 148.63 150.74 149.54 150.04 L 150.37 149.41 C 151.28 148.71 151.45 147.41 150.75 146.50 C 150.06 145.59 148.75 145.42 147.84 146.11 Z M 147.12 146.67 L 146.26 147.25 C 145.30 147.89 145.05 149.19 145.69 150.14 C 146.34 151.09 147.63 151.34 148.58 150.70 L 149.44 150.12 C 150.40 149.48 150.65 148.18 150.00 147.23 C 149.36 146.28 148.07 146.03 147.12 146.67 Z M 146.36 147.18 L 145.48 147.70 C 144.49 148.29 144.16 149.56 144.74 150.55 C 145.33 151.54 146.60 151.87 147.59 151.29 L 148.47 150.77 C 149.46 150.18 149.79 148.91 149.21 147.92 C 148.63 146.93 147.35 146.60 146.36 147.18 Z M 145.60 147.64 L 144.71 148.08 C 143.69 148.60 143.28 149.85 143.79 150.88 C 144.31 151.91 145.57 152.32 146.59 151.80 L 147.47 151.35 C 148.50 150.84 148.91 149.58 148.39 148.56 C 147.87 147.53 146.62 147.12 145.60 147.64 Z M 144.86 148.02 L 143.95 148.39 C 142.88 148.83 142.38 150.05 142.82 151.11 C 143.25 152.18 144.47 152.68 145.54 152.24 L 146.45 151.87 C 147.51 151.43 148.02 150.21 147.58 149.15 C 147.14 148.08 145.92 147.58 144.86 148.02 Z M 144.16 148.31 L 143.03 148.64 C 141.92 148.96 141.28 150.11 141.60 151.22 C 141.92 152.33 143.08 152.97 144.19 152.65 L 145.32 152.32 C 146.43 152.01 147.07 150.85 146.75 149.74 C 146.43 148.63 145.27 147.99 144.16 148.31 Z M 143.35 148.57 L 142.30 148.70 C 141.15 148.85 140.34 149.89 140.48 151.04 C 140.63 152.19 141.68 153.00 142.82 152.85 L 143.87 152.72 C 145.02 152.58 145.83 151.53 145.69 150.38 C 145.54 149.23 144.49 148.42 143.35 148.57 Z M 142.69 148.68 L 141.74 148.62 C 140.58 148.55 139.59 149.43 139.51 150.58 C 139.44 151.74 140.32 152.74 141.47 152.81 L 142.43 152.87 C 143.59 152.94 144.58 152.07 144.66 150.91 C 144.73 149.75 143.85 148.76 142.69 148.68 Z M 142.21 148.70 L 141.35 148.45 C 140.24 148.11 139.07 148.75 138.74 149.86 C 138.41 150.98 139.04 152.15 140.15 152.48 L 141.01 152.73 C 142.12 153.06 143.29 152.43 143.62 151.32 C 143.95 150.20 143.32 149.03 142.21 148.70 Z M 141.84 148.66 L 141.10 148.21 C 140.10 147.61 138.81 147.93 138.21 148.93 C 137.60 149.93 137.93 151.22 138.92 151.82 L 139.67 152.27 C 140.66 152.87 141.96 152.55 142.56 151.55 C 143.16 150.55 142.84 149.26 141.84 148.66 Z M 141.51 148.53 L 140.91 147.92 C 140.08 147.10 138.75 147.09 137.92 147.92 C 137.09 148.74 137.09 150.08 137.91 150.90 L 138.52 151.51 C 139.34 152.33 140.68 152.33 141.50 151.51 C 142.33 150.69 142.33 149.35 141.51 148.53 Z M 141.17 148.25 L 140.67 147.49 C 140.03 146.52 138.72 146.25 137.75 146.89 C 136.77 147.53 136.50 148.84 137.15 149.81 L 137.65 150.57 C 138.29 151.55 139.60 151.82 140.57 151.18 C 141.55 150.53 141.81 149.22 141.17 148.25 Z M 140.83 147.78 L 140.43 146.89 C 139.95 145.82 138.70 145.35 137.63 145.83 C 136.57 146.31 136.10 147.56 136.58 148.63 L 136.98 149.52 C 137.47 150.58 138.72 151.06 139.78 150.58 C 140.84 150.10 141.31 148.84 140.83 147.78 Z M 140.52 147.13 L 140.21 146.12 C 139.86 145.00 138.68 144.38 137.56 144.73 C 136.45 145.08 135.83 146.26 136.17 147.37 L 136.49 148.38 C 136.83 149.50 138.02 150.12 139.13 149.77 C 140.25 149.43 140.87 148.24 140.52 147.13 Z M 140.26 146.31 L 140.03 145.21 C 139.79 144.07 138.67 143.33 137.53 143.57 C 136.39 143.81 135.65 144.93 135.89 146.07 L 136.12 147.18 C 136.36 148.32 137.48 149.05 138.62 148.81 C 139.76 148.58 140.50 147.46 140.26 146.31 Z M 140.05 145.36 L 139.92 144.33 C 139.76 143.18 138.70 142.36 137.55 142.52 C 136.39 142.67 135.58 143.73 135.73 144.89 L 135.87 145.92 C 136.02 147.07 137.08 147.89 138.24 147.73 C 139.39 147.58 140.21 146.52 140.05 145.36 Z M 139.93 144.46 L 139.86 143.47 C 139.77 142.30 138.76 141.43 137.60 141.51 C 136.43 141.60 135.56 142.61 135.64 143.77 L 135.72 144.77 C 135.80 145.93 136.81 146.80 137.98 146.72 C 139.14 146.63 140.01 145.62 139.93 144.46 Z M 139.86 143.58 L 139.84 142.57 C 139.82 141.40 138.86 140.48 137.69 140.50 C 136.53 140.52 135.60 141.48 135.62 142.65 L 135.64 143.66 C 135.66 144.83 136.62 145.75 137.79 145.73 C 138.96 145.71 139.88 144.75 139.86 143.58 Z M 139.84 142.69 L 139.88 141.67 C 139.92 140.50 139.01 139.52 137.85 139.48 C 136.68 139.44 135.70 140.35 135.66 141.51 L 135.62 142.53 C 135.58 143.70 136.49 144.68 137.65 144.72 C 138.82 144.76 139.80 143.85 139.84 142.69 Z M 139.87 141.79 L 139.97 140.78 C 140.08 139.62 139.23 138.59 138.06 138.48 C 136.90 138.37 135.87 139.22 135.76 140.38 L 135.67 141.39 C 135.56 142.55 136.41 143.58 137.57 143.69 C 138.73 143.80 139.76 142.95 139.87 141.79 Z M 139.95 140.91 L 140.11 139.92 C 140.29 138.77 139.50 137.69 138.35 137.51 C 137.20 137.32 136.12 138.11 135.94 139.26 L 135.78 140.25 C 135.60 141.40 136.38 142.48 137.53 142.67 C 138.69 142.85 139.77 142.06 139.95 140.91 Z M 140.08 140.07 L 140.30 139.11 C 140.56 137.97 139.85 136.84 138.72 136.58 C 137.58 136.32 136.45 137.02 136.19 138.16 L 135.96 139.12 C 135.70 140.25 136.41 141.39 137.55 141.65 C 138.68 141.91 139.82 141.20 140.08 140.07 Z M 140.26 139.28 L 140.57 138.29 C 140.92 137.17 140.31 135.99 139.20 135.63 C 138.09 135.28 136.90 135.89 136.54 137.00 L 136.23 138.00 C 135.88 139.11 136.49 140.29 137.60 140.65 C 138.71 141.00 139.90 140.39 140.26 139.28 Z M 140.51 138.45 L 140.90 137.52 C 141.35 136.44 140.83 135.20 139.75 134.76 C 138.68 134.31 137.44 134.82 136.99 135.90 L 136.60 136.84 C 136.16 137.91 136.67 139.15 137.75 139.60 C 138.83 140.05 140.06 139.53 140.51 138.45 Z M 140.83 137.68 L 141.28 136.79 C 141.82 135.75 141.41 134.47 140.37 133.94 C 139.32 133.41 138.05 133.82 137.52 134.86 L 137.06 135.74 C 136.53 136.78 136.94 138.06 137.98 138.59 C 139.02 139.13 140.30 138.72 140.83 137.68 Z M 141.21 136.93 L 141.72 136.09 C 142.33 135.09 142.02 133.79 141.02 133.18 C 140.02 132.57 138.72 132.88 138.11 133.88 L 137.59 134.72 C 136.98 135.72 137.29 137.02 138.29 137.63 C 139.29 138.24 140.60 137.93 141.21 136.93 Z M 141.64 136.21 L 142.21 135.41 C 142.89 134.46 142.67 133.13 141.71 132.46 C 140.76 131.78 139.43 132.00 138.75 132.96 L 138.18 133.75 C 137.51 134.71 137.73 136.03 138.68 136.71 C 139.64 137.39 140.96 137.17 141.64 136.21 Z M 142.13 135.52 L 142.75 134.75 C 143.49 133.84 143.35 132.50 142.43 131.77 C 141.52 131.03 140.18 131.17 139.45 132.09 L 138.83 132.85 C 138.09 133.76 138.24 135.10 139.15 135.84 C 140.06 136.57 141.40 136.43 142.13 135.52 Z M 142.68 134.85 L 143.38 134.07 C 144.17 133.20 144.10 131.86 143.23 131.07 C 142.36 130.28 141.01 130.34 140.23 131.22 L 139.52 131.99 C 138.73 132.86 138.80 134.21 139.67 135.00 C 140.54 135.78 141.89 135.72 142.68 134.85 Z M 143.29 134.17 L 144.03 133.45 C 144.88 132.63 144.90 131.28 144.08 130.43 C 143.26 129.59 141.91 129.57 141.06 130.39 L 140.32 131.12 C 139.47 131.94 139.45 133.28 140.27 134.13 C 141.09 134.97 142.44 134.99 143.29 134.17 Z M 143.92 133.56 L 144.70 132.90 C 145.60 132.15 145.72 130.80 144.97 129.90 C 144.21 128.99 142.86 128.87 141.96 129.63 L 141.18 130.28 C 140.27 131.04 140.15 132.38 140.91 133.29 C 141.67 134.19 143.01 134.31 143.92 133.56 Z M 144.55 133.02 L 145.36 132.45 C 146.33 131.78 146.57 130.45 145.89 129.48 C 145.22 128.51 143.89 128.27 142.92 128.95 L 142.11 129.51 C 141.14 130.19 140.90 131.52 141.57 132.49 C 142.25 133.46 143.58 133.69 144.55 133.02 Z M 145.17 132.58 L 146.01 132.12 C 147.04 131.55 147.42 130.25 146.85 129.21 C 146.28 128.17 144.98 127.79 143.94 128.36 L 143.11 128.82 C 142.07 129.39 141.69 130.69 142.26 131.73 C 142.83 132.77 144.13 133.15 145.17 132.58 Z M 145.74 132.25 L 146.67 131.89 C 147.78 131.47 148.33 130.22 147.90 129.12 C 147.48 128.01 146.24 127.46 145.13 127.88 L 144.21 128.24 C 143.10 128.66 142.55 129.90 142.97 131.01 C 143.40 132.12 144.64 132.67 145.74 132.25 Z M 146.31 132.00 L 147.38 131.79 C 148.55 131.56 149.31 130.43 149.08 129.27 C 148.85 128.10 147.73 127.34 146.56 127.57 L 145.49 127.78 C 144.33 128.00 143.57 129.13 143.79 130.30 C 144.02 131.46 145.15 132.22 146.31 132.00 Z M 146.93 131.83 L 147.95 131.85 C 149.14 131.87 150.12 130.92 150.14 129.73 C 150.16 128.55 149.22 127.57 148.03 127.55 L 147.01 127.53 C 145.82 127.51 144.84 128.45 144.82 129.64 C 144.80 130.83 145.75 131.81 146.93 131.83 Z M 147.42 131.77 L 148.33 132.02 C 149.48 132.34 150.66 131.66 150.98 130.52 C 151.29 129.37 150.62 128.19 149.47 127.87 L 148.56 127.62 C 147.41 127.31 146.23 127.98 145.92 129.13 C 145.60 130.27 146.27 131.46 147.42 131.77 Z M 147.72 131.75 L 148.47 132.24 C 149.47 132.89 150.81 132.61 151.46 131.62 C 152.11 130.62 151.83 129.29 150.83 128.63 L 150.08 128.14 C 149.09 127.49 147.75 127.77 147.10 128.77 C 146.45 129.76 146.73 131.10 147.72 131.75 Z M 147.94 131.74 L 148.44 132.40 C 149.17 133.35 150.52 133.53 151.46 132.81 C 152.41 132.09 152.59 130.74 151.87 129.79 L 151.37 129.13 C 150.64 128.18 149.29 128.00 148.35 128.72 C 147.40 129.45 147.22 130.80 147.94 131.74 Z M 148.16 131.92 L 148.50 132.73 C 148.95 133.83 150.21 134.36 151.31 133.91 C 152.41 133.46 152.94 132.20 152.49 131.10 L 152.15 130.28 C 151.70 129.18 150.44 128.65 149.34 129.10 C 148.24 129.56 147.71 130.81 148.16 131.92 Z M 148.39 132.39 L 148.61 133.34 C 148.86 134.50 150.02 135.23 151.18 134.98 C 152.34 134.72 153.07 133.56 152.81 132.40 L 152.59 131.45 C 152.33 130.29 151.18 129.56 150.02 129.81 C 148.86 130.07 148.13 131.22 148.39 132.39 Z M 148.57 133.12 L 148.69 134.19 C 148.83 135.37 149.90 136.21 151.08 136.08 C 152.26 135.94 153.11 134.87 152.97 133.69 L 152.84 132.62 C 152.71 131.44 151.64 130.60 150.46 130.74 C 149.28 130.87 148.43 131.94 148.57 133.12 Z M 148.68 134.06 L 148.75 135.20 C 148.82 136.39 149.84 137.30 151.02 137.23 C 152.21 137.16 153.12 136.14 153.05 134.95 L 152.98 133.81 C 152.91 132.63 151.89 131.72 150.71 131.79 C 149.52 131.86 148.61 132.88 148.68 134.06 Z M 148.75 135.15 L 148.78 136.13 C 148.82 137.31 149.82 138.24 151.00 138.21 C 152.19 138.17 153.12 137.17 153.08 135.98 L 153.05 135.01 C 153.01 133.82 152.01 132.89 150.83 132.93 C 149.64 132.97 148.71 133.96 148.75 135.15 Z M 148.78 136.08 L 148.79 137.01 C 148.80 138.20 149.78 139.15 150.96 139.14 C 152.15 139.13 153.10 138.15 153.09 136.97 L 153.08 136.03 C 153.07 134.85 152.09 133.89 150.91 133.91 C 149.72 133.92 148.77 134.89 148.78 136.08 Z M 148.79 136.94 L 148.77 137.89 C 148.74 139.08 149.68 140.07 150.86 140.09 C 152.05 140.12 153.03 139.19 153.06 138.00 L 153.09 137.04 C 153.12 135.86 152.18 134.87 150.99 134.84 C 149.81 134.81 148.82 135.75 148.79 136.94 Z M 148.78 137.80 L 148.71 138.78 C 148.62 139.96 149.51 140.99 150.69 141.07 C 151.88 141.16 152.90 140.27 152.99 139.08 L 153.06 138.10 C 153.14 136.92 152.25 135.89 151.07 135.81 C 149.89 135.72 148.86 136.61 148.78 137.80 Z M 148.72 138.66 L 148.59 139.67 C 148.44 140.85 149.27 141.92 150.44 142.07 C 151.62 142.22 152.69 141.39 152.84 140.22 L 152.97 139.20 C 153.12 138.03 152.29 136.96 151.12 136.81 C 149.94 136.66 148.87 137.49 148.72 138.66 Z M 148.61 139.54 L 148.41 140.58 C 148.19 141.75 148.94 142.87 150.11 143.10 C 151.27 143.32 152.39 142.56 152.62 141.40 L 152.82 140.35 C 153.05 139.19 152.29 138.07 151.13 137.84 C 149.96 137.62 148.84 138.38 148.61 139.54 Z M 148.45 140.44 L 148.15 141.53 C 147.85 142.67 148.53 143.84 149.67 144.15 C 150.81 144.46 151.98 143.78 152.29 142.64 L 152.58 141.55 C 152.89 140.40 152.21 139.23 151.07 138.92 C 149.93 138.62 148.75 139.30 148.45 140.44 Z M 148.20 141.38 L 147.80 142.54 C 147.41 143.66 148.00 144.88 149.12 145.26 C 150.24 145.65 151.46 145.06 151.84 143.94 L 152.24 142.78 C 152.63 141.67 152.04 140.45 150.92 140.06 C 149.81 139.67 148.59 140.27 148.20 141.38 Z M 147.85 142.41 L 147.38 143.53 C 146.92 144.62 147.43 145.87 148.52 146.33 C 149.60 146.79 150.86 146.28 151.32 145.19 L 151.79 144.07 C 152.25 142.99 151.74 141.73 150.65 141.27 C 149.57 140.81 148.31 141.32 147.85 142.41 Z M 147.44 143.40 L 146.93 144.41 C 146.39 145.47 146.82 146.75 147.87 147.28 C 148.92 147.82 150.20 147.40 150.74 146.34 L 151.25 145.33 C 151.78 144.27 151.36 142.99 150.31 142.46 C 149.26 141.92 147.98 142.34 147.44 143.40 Z M 147.02 144.25 L 146.49 145.10 C 145.87 146.10 146.18 147.42 147.18 148.04 C 148.18 148.66 149.49 148.35 150.11 147.35 L 150.64 146.51 C 151.26 145.51 150.96 144.19 149.96 143.57 C 148.96 142.95 147.64 143.25 147.02 144.25 Z M 146.66 144.87 L 146.15 145.48 C 145.40 146.39 145.53 147.73 146.43 148.48 C 147.34 149.23 148.68 149.11 149.43 148.20 L 149.94 147.59 C 150.69 146.68 150.57 145.34 149.66 144.59 C 148.76 143.84 147.42 143.96 146.66 144.87 Z M 146.59 145.08 L 146.13 145.40 C 145.16 146.06 144.91 147.39 145.57 148.36 C 146.23 149.33 147.56 149.58 148.53 148.92 L 148.99 148.60 C 149.96 147.94 150.21 146.62 149.55 145.64 C 148.89 144.67 147.57 144.42 146.59 145.08 Z M 147.81 145.08 L 147.30 144.97 C 146.16 144.70 145.02 145.41 144.75 146.56 C 144.48 147.70 145.20 148.85 146.34 149.11 L 146.85 149.23 C 147.99 149.50 149.14 148.78 149.40 147.64 C 149.67 146.49 148.96 145.35 147.81 145.08 Z M 148.65 145.95 L 148.26 145.30 C 147.66 144.29 146.35 143.96 145.34 144.56 C 144.33 145.16 144.00 146.47 144.60 147.48 L 144.99 148.13 C 145.60 149.14 146.90 149.47 147.91 148.87 C 148.92 148.27 149.25 146.96 148.65 145.95 Z M 148.49 145.83 L 148.21 144.80 C 147.90 143.67 146.73 143.00 145.59 143.31 C 144.45 143.62 143.79 144.79 144.10 145.93 L 144.38 146.95 C 144.69 148.09 145.86 148.76 147.00 148.45 C 148.13 148.13 148.80 146.96 148.49 145.83 Z M 148.26 145.03 L 148.07 143.80 C 147.89 142.64 146.79 141.84 145.63 142.02 C 144.46 142.21 143.67 143.30 143.85 144.47 L 144.04 145.70 C 144.23 146.86 145.32 147.66 146.49 147.48 C 147.65 147.29 148.45 146.20 148.26 145.03 Z M 148.09 143.92 L 147.97 142.72 C 147.85 141.55 146.80 140.69 145.62 140.81 C 144.45 140.93 143.59 141.98 143.71 143.15 L 143.83 144.35 C 143.95 145.52 145.00 146.38 146.17 146.26 C 147.35 146.14 148.20 145.09 148.09 143.92 Z M 147.97 142.80 L 147.91 141.77 C 147.83 140.59 146.81 139.69 145.63 139.77 C 144.45 139.85 143.56 140.87 143.64 142.05 L 143.70 143.08 C 143.78 144.26 144.80 145.15 145.98 145.07 C 147.16 144.99 148.05 143.97 147.97 142.80 Z M 147.91 141.83 L 147.88 140.83 C 147.84 139.65 146.85 138.72 145.66 138.76 C 144.48 138.80 143.56 139.79 143.60 140.98 L 143.63 141.98 C 143.67 143.16 144.66 144.09 145.84 144.05 C 147.03 144.01 147.95 143.02 147.91 141.83 Z M 147.88 140.90 L 147.88 139.91 C 147.88 138.73 146.92 137.77 145.73 137.77 C 144.55 137.77 143.59 138.73 143.59 139.92 L 143.59 140.90 C 143.59 142.09 144.55 143.05 145.74 143.05 C 146.92 143.05 147.88 142.09 147.88 140.90 Z M 147.88 139.98 L 147.91 139.01 C 147.95 137.82 147.02 136.83 145.83 136.79 C 144.65 136.75 143.66 137.68 143.62 138.87 L 143.59 139.85 C 143.55 141.03 144.48 142.03 145.67 142.06 C 146.85 142.10 147.85 141.17 147.88 139.98 Z M 147.91 139.07 L 147.97 138.10 C 148.05 136.91 147.15 135.89 145.96 135.82 C 144.78 135.74 143.76 136.64 143.68 137.83 L 143.62 138.80 C 143.55 139.99 144.45 141.01 145.63 141.08 C 146.82 141.16 147.84 140.26 147.91 139.07 Z M 147.97 138.17 L 148.10 136.85 C 148.22 135.67 147.35 134.61 146.17 134.50 C 144.99 134.38 143.93 135.24 143.82 136.43 L 143.68 137.75 C 143.57 138.93 144.43 139.99 145.62 140.10 C 146.80 140.22 147.85 139.36 147.97 138.17 Z M 148.09 136.97 L 148.28 135.75 C 148.46 134.58 147.66 133.47 146.48 133.29 C 145.31 133.11 144.20 133.91 144.02 135.09 L 143.83 136.31 C 143.64 137.48 144.45 138.58 145.63 138.77 C 146.80 138.95 147.90 138.15 148.09 136.97 Z M 148.23 136.01 L 148.47 135.15 C 148.79 134.00 148.13 132.81 146.98 132.49 C 145.83 132.16 144.64 132.83 144.32 133.97 L 144.07 134.83 C 143.75 135.98 144.42 137.17 145.56 137.50 C 146.71 137.82 147.90 137.15 148.23 136.01 Z M 147.93 136.08 L 148.22 135.78 C 149.06 134.93 149.05 133.57 148.20 132.73 C 147.35 131.89 145.98 131.90 145.14 132.75 L 144.85 133.05 C 144.02 133.90 144.03 135.26 144.88 136.10 C 145.73 136.94 147.09 136.93 147.93 136.08 Z M 145.06 135.69 L 145.36 136.03 C 146.15 136.92 147.51 137.01 148.40 136.23 C 149.30 135.44 149.39 134.08 148.60 133.18 L 148.30 132.84 C 147.52 131.95 146.15 131.86 145.26 132.65 C 144.36 133.43 144.28 134.79 145.06 135.69 Z M 144.97 135.36 L 145.28 136.18 C 145.69 137.29 146.93 137.85 148.04 137.43 C 149.15 137.02 149.71 135.78 149.30 134.67 L 148.99 133.85 C 148.57 132.74 147.34 132.18 146.23 132.60 C 145.12 133.01 144.55 134.25 144.97 135.36 Z M 145.21 135.94 L 145.50 137.08 C 145.78 138.23 146.94 138.92 148.09 138.64 C 149.23 138.35 149.93 137.19 149.64 136.04 L 149.36 134.90 C 149.07 133.76 147.91 133.06 146.77 133.35 C 145.62 133.64 144.93 134.80 145.21 135.94 Z M 145.48 136.94 L 145.71 138.25 C 145.92 139.41 147.03 140.18 148.19 139.97 C 149.34 139.76 150.11 138.65 149.90 137.50 L 149.66 136.19 C 149.46 135.03 148.35 134.26 147.19 134.47 C 146.04 134.68 145.27 135.79 145.48 136.94 Z M 145.70 138.13 L 145.86 139.49 C 146.00 140.65 147.06 141.48 148.22 141.35 C 149.39 141.21 150.22 140.15 150.08 138.99 L 149.92 137.62 C 149.78 136.46 148.72 135.63 147.56 135.77 C 146.39 135.91 145.56 136.96 145.70 138.13 Z M 145.85 139.33 L 145.90 140.58 C 145.95 141.75 146.95 142.66 148.12 142.61 C 149.29 142.56 150.20 141.56 150.15 140.39 L 150.09 139.14 C 150.04 137.97 149.05 137.06 147.88 137.11 C 146.70 137.17 145.79 138.16 145.85 139.33 Z M 145.90 140.31 L 145.82 141.30 C 145.73 142.47 146.60 143.50 147.77 143.59 C 148.95 143.69 149.98 142.81 150.07 141.64 L 150.15 140.66 C 150.24 139.48 149.37 138.46 148.20 138.36 C 147.02 138.27 146.00 139.14 145.90 140.31 Z M 145.97 140.65 L 145.73 141.23 C 145.28 142.32 145.80 143.57 146.89 144.02 C 147.98 144.47 149.23 143.95 149.68 142.86 L 149.92 142.29 C 150.37 141.19 149.85 139.94 148.76 139.49 C 147.67 139.04 146.42 139.56 145.97 140.65 Z M 147.43 139.92 L 147.03 139.97 C 145.86 140.12 145.03 141.20 145.18 142.37 C 145.33 143.55 146.41 144.37 147.58 144.22 L 147.98 144.17 C 149.16 144.02 149.98 142.94 149.83 141.77 C 149.68 140.60 148.60 139.77 147.43 139.92 Z M 148.67 140.44 L 148.15 140.01 C 147.23 139.26 145.88 139.39 145.13 140.30 C 144.37 141.22 144.50 142.57 145.42 143.33 L 145.94 143.76 C 146.86 144.51 148.21 144.38 148.96 143.46 C 149.72 142.55 149.59 141.19 148.67 140.44 Z M 148.55 140.43 L 147.97 139.61 C 147.28 138.64 145.94 138.40 144.96 139.09 C 143.99 139.78 143.76 141.12 144.45 142.09 L 145.03 142.91 C 145.71 143.88 147.06 144.11 148.03 143.43 C 149.00 142.74 149.23 141.40 148.55 140.43 Z M 148.14 139.88 L 147.57 138.75 C 147.03 137.69 145.74 137.26 144.67 137.79 C 143.60 138.33 143.17 139.62 143.71 140.69 L 144.28 141.82 C 144.81 142.88 146.11 143.31 147.18 142.78 C 148.24 142.24 148.67 140.95 148.14 139.88 Z M 147.68 138.99 L 147.20 137.67 C 146.80 136.55 145.56 135.96 144.43 136.37 C 143.31 136.77 142.72 138.01 143.13 139.14 L 143.60 140.45 C 144.01 141.58 145.25 142.16 146.37 141.76 C 147.50 141.35 148.08 140.11 147.68 138.99 Z M 147.27 137.88 L 146.94 136.59 C 146.65 135.43 145.48 134.73 144.31 135.02 C 143.15 135.31 142.45 136.49 142.74 137.65 L 143.06 138.93 C 143.36 140.09 144.53 140.80 145.69 140.51 C 146.86 140.22 147.56 139.04 147.27 137.88 Z M 146.98 136.74 L 146.75 135.49 C 146.54 134.31 145.41 133.53 144.24 133.74 C 143.06 133.95 142.27 135.08 142.49 136.26 L 142.71 137.50 C 142.92 138.68 144.05 139.46 145.23 139.25 C 146.40 139.04 147.19 137.91 146.98 136.74 Z M 146.77 135.61 L 146.64 134.55 C 146.50 133.36 145.42 132.51 144.23 132.66 C 143.04 132.80 142.20 133.88 142.34 135.07 L 142.47 136.14 C 142.61 137.32 143.69 138.17 144.88 138.03 C 146.07 137.88 146.92 136.80 146.77 135.61 Z M 146.66 134.70 L 146.62 133.95 C 146.55 132.75 145.53 131.83 144.34 131.90 C 143.14 131.96 142.22 132.98 142.29 134.18 L 142.33 134.92 C 142.39 136.12 143.41 137.04 144.60 136.98 C 145.80 136.91 146.72 135.89 146.66 134.70 Z M 146.59 134.39 L 146.64 134.10 C 146.82 132.91 146.01 131.81 144.83 131.63 C 143.64 131.44 142.54 132.26 142.36 133.44 L 142.31 133.73 C 142.13 134.92 142.94 136.02 144.12 136.20 C 145.30 136.39 146.41 135.58 146.59 134.39 Z M 142.56 134.72 L 142.68 134.97 C 143.20 136.05 144.50 136.49 145.57 135.97 C 146.64 135.44 147.09 134.15 146.56 133.08 L 146.44 132.82 C 145.91 131.75 144.62 131.30 143.55 131.83 C 142.48 132.35 142.03 133.64 142.56 134.72 Z M 142.53 134.53 L 142.71 135.28 C 142.99 136.43 144.15 137.14 145.31 136.87 C 146.46 136.59 147.17 135.43 146.89 134.27 L 146.71 133.52 C 146.44 132.37 145.27 131.66 144.12 131.93 C 142.97 132.21 142.25 133.37 142.53 134.53 Z M 142.70 135.16 L 142.91 136.31 C 143.12 137.47 144.23 138.24 145.40 138.03 C 146.56 137.82 147.33 136.70 147.12 135.54 L 146.91 134.39 C 146.70 133.23 145.58 132.46 144.42 132.67 C 143.26 132.88 142.49 134.00 142.70 135.16 Z M 142.91 136.23 L 143.12 137.67 C 143.29 138.84 144.37 139.64 145.53 139.47 C 146.69 139.30 147.50 138.22 147.33 137.06 L 147.12 135.62 C 146.95 134.45 145.87 133.65 144.70 133.82 C 143.54 133.99 142.74 135.07 142.91 136.23 Z M 143.12 137.61 L 143.27 138.91 C 143.40 140.07 144.46 140.90 145.62 140.77 C 146.78 140.63 147.61 139.58 147.48 138.42 L 147.33 137.12 C 147.19 135.96 146.14 135.13 144.98 135.26 C 143.81 135.40 142.98 136.45 143.12 137.61 Z M 143.27 138.86 L 143.37 139.85 C 143.47 141.01 144.50 141.86 145.67 141.75 C 146.83 141.64 147.68 140.61 147.57 139.45 L 147.47 138.46 C 147.37 137.30 146.34 136.45 145.18 136.56 C 144.01 136.67 143.16 137.70 143.27 138.86 Z M 143.37 139.81 L 143.45 140.83 C 143.54 141.99 144.55 142.86 145.71 142.77 C 146.86 142.68 147.73 141.67 147.64 140.51 L 147.56 139.49 C 147.48 138.33 146.46 137.47 145.31 137.55 C 144.15 137.64 143.28 138.65 143.37 139.81 Z M 143.45 140.79 L 143.51 141.83 C 143.58 142.98 144.57 143.86 145.73 143.80 C 146.89 143.73 147.77 142.74 147.70 141.58 L 147.64 140.55 C 147.57 139.39 146.58 138.51 145.42 138.58 C 144.27 138.65 143.38 139.64 143.45 140.79 Z M 143.52 141.79 L 143.56 142.83 C 143.61 143.98 144.58 144.87 145.74 144.83 C 146.89 144.78 147.78 143.81 147.74 142.65 L 147.69 141.62 C 147.64 140.47 146.67 139.57 145.52 139.62 C 144.37 139.67 143.47 140.64 143.52 141.79 Z M 143.57 142.79 L 143.59 143.81 C 143.62 144.96 144.57 145.87 145.72 145.85 C 146.87 145.82 147.78 144.87 147.75 143.72 L 147.73 142.69 C 147.70 141.55 146.75 140.63 145.60 140.66 C 144.45 140.69 143.54 141.64 143.57 142.79 Z M 143.60 143.77 L 143.60 144.77 C 143.60 145.91 144.53 146.84 145.68 146.84 C 146.82 146.84 147.75 145.91 147.75 144.76 L 147.74 143.76 C 147.74 142.62 146.81 141.69 145.67 141.69 C 144.52 141.69 143.60 142.62 143.60 143.77 Z M 143.61 144.72 L 143.59 145.68 C 143.56 146.82 144.46 147.77 145.60 147.79 C 146.74 147.82 147.69 146.92 147.72 145.78 L 147.74 144.81 C 147.76 143.67 146.86 142.73 145.72 142.70 C 144.58 142.67 143.63 143.58 143.61 144.72 Z M 143.59 145.62 L 143.54 146.68 C 143.48 147.82 144.35 148.79 145.48 148.85 C 146.62 148.91 147.59 148.04 147.65 146.91 L 147.71 145.84 C 147.77 144.70 146.90 143.73 145.76 143.67 C 144.63 143.61 143.66 144.48 143.59 145.62 Z M 143.54 146.57 L 143.39 147.98 C 143.27 149.12 144.09 150.13 145.22 150.26 C 146.35 150.38 147.37 149.56 147.49 148.43 L 147.64 147.02 C 147.77 145.88 146.95 144.87 145.82 144.74 C 144.68 144.62 143.67 145.44 143.54 146.57 Z M 143.41 147.79 L 143.18 148.92 C 142.95 150.04 143.67 151.14 144.78 151.37 C 145.90 151.60 147.00 150.88 147.23 149.76 L 147.47 148.63 C 147.70 147.51 146.98 146.41 145.86 146.18 C 144.74 145.95 143.65 146.67 143.41 147.79 Z M 143.28 148.57 L 142.96 149.36 C 142.53 150.43 143.04 151.64 144.11 152.07 C 145.17 152.49 146.38 151.98 146.81 150.91 L 147.13 150.12 C 147.56 149.05 147.04 147.84 145.98 147.42 C 144.92 146.99 143.71 147.50 143.28 148.57 Z M 143.45 148.63 L 143.04 149.01 C 142.21 149.80 142.17 151.12 142.96 151.96 C 143.76 152.80 145.08 152.83 145.91 152.04 L 146.32 151.65 C 147.15 150.86 147.19 149.54 146.40 148.70 C 145.60 147.87 144.28 147.83 143.45 148.63 Z M 144.82 148.46 L 144.33 148.38 C 143.19 148.19 142.12 148.97 141.93 150.11 C 141.74 151.25 142.52 152.32 143.66 152.51 L 144.14 152.59 C 145.28 152.78 146.36 152.00 146.54 150.86 C 146.73 149.72 145.96 148.65 144.82 148.46 Z M 145.41 148.89 L 144.88 148.40 C 144.02 147.62 142.69 147.68 141.91 148.54 C 141.12 149.39 141.18 150.72 142.04 151.51 L 142.58 152.00 C 143.43 152.78 144.76 152.72 145.55 151.87 C 146.33 151.01 146.27 149.68 145.41 148.89 Z M 145.19 148.73 L 144.62 147.93 C 143.94 146.98 142.62 146.75 141.67 147.43 C 140.72 148.10 140.49 149.42 141.17 150.38 L 141.73 151.18 C 142.41 152.13 143.73 152.36 144.68 151.68 C 145.63 151.01 145.86 149.69 145.19 148.73 Z M 144.75 148.12 L 144.19 147.11 C 143.61 146.08 142.32 145.71 141.29 146.29 C 140.27 146.86 139.90 148.15 140.47 149.18 L 141.04 150.19 C 141.61 151.22 142.90 151.58 143.93 151.01 C 144.95 150.44 145.32 149.15 144.75 148.12 Z M 144.26 147.23 L 143.73 146.11 C 143.23 145.04 141.96 144.58 140.89 145.09 C 139.82 145.59 139.36 146.86 139.87 147.93 L 140.39 149.05 C 140.90 150.12 142.17 150.58 143.24 150.08 C 144.31 149.57 144.76 148.30 144.26 147.23 Z M 143.79 146.21 L 143.36 145.16 C 142.91 144.06 141.66 143.54 140.56 143.98 C 139.47 144.43 138.94 145.68 139.39 146.78 L 139.81 147.83 C 140.26 148.93 141.51 149.45 142.61 149.01 C 143.71 148.56 144.23 147.31 143.79 146.21 Z M 143.40 145.25 L 143.05 144.28 C 142.65 143.16 141.42 142.57 140.30 142.97 C 139.19 143.37 138.60 144.60 139.00 145.72 L 139.35 146.69 C 139.75 147.81 140.98 148.39 142.09 147.99 C 143.21 147.60 143.79 146.37 143.40 145.25 Z M 143.07 144.35 L 142.77 143.39 C 142.42 142.26 141.21 141.63 140.08 141.99 C 138.95 142.34 138.32 143.55 138.67 144.68 L 138.97 145.64 C 139.33 146.77 140.53 147.40 141.67 147.05 C 142.80 146.69 143.43 145.49 143.07 144.35 Z M 142.79 143.46 L 142.53 142.51 C 142.21 141.37 141.03 140.70 139.88 141.02 C 138.74 141.33 138.07 142.52 138.39 143.66 L 138.65 144.61 C 138.97 145.76 140.16 146.42 141.30 146.11 C 142.44 145.79 143.11 144.60 142.79 143.46 Z M 142.54 142.56 L 142.31 141.62 C 142.02 140.47 140.85 139.77 139.70 140.06 C 138.55 140.35 137.85 141.52 138.14 142.67 L 138.38 143.61 C 138.67 144.76 139.83 145.46 140.99 145.17 C 142.14 144.88 142.83 143.71 142.54 142.56 Z M 142.32 141.65 L 142.10 140.72 C 141.82 139.56 140.67 138.84 139.51 139.11 C 138.35 139.39 137.64 140.54 137.91 141.70 L 138.13 142.64 C 138.40 143.79 139.56 144.51 140.71 144.24 C 141.87 143.97 142.59 142.81 142.32 141.65 Z M 142.10 140.74 L 141.79 139.35 C 141.53 138.19 140.39 137.46 139.23 137.71 C 138.07 137.97 137.34 139.12 137.59 140.28 L 137.90 141.67 C 138.16 142.83 139.31 143.56 140.47 143.31 C 141.63 143.05 142.36 141.90 142.10 140.74 Z M 141.80 139.40 L 141.57 138.21 C 141.34 137.05 140.22 136.29 139.05 136.51 C 137.88 136.74 137.12 137.87 137.35 139.03 L 137.58 140.22 C 137.81 141.39 138.94 142.15 140.10 141.92 C 141.27 141.70 142.03 140.57 141.80 139.40 Z M 141.60 138.38 L 141.52 137.64 C 141.38 136.46 140.32 135.61 139.14 135.75 C 137.96 135.88 137.11 136.94 137.24 138.12 L 137.32 138.86 C 137.46 140.04 138.52 140.89 139.70 140.76 C 140.88 140.63 141.73 139.56 141.60 138.38 Z M 140.67 139.60 L 140.78 139.52 C 141.73 138.81 141.92 137.46 141.21 136.51 C 140.50 135.56 139.15 135.37 138.20 136.08 L 138.09 136.17 C 137.14 136.88 136.95 138.22 137.66 139.17 C 138.37 140.12 139.72 140.31 140.67 139.60 Z M 137.63 138.86 L 137.87 139.27 C 138.45 140.29 139.76 140.65 140.78 140.07 C 141.81 139.49 142.17 138.18 141.58 137.16 L 141.35 136.74 C 140.76 135.72 139.46 135.36 138.43 135.94 C 137.41 136.53 137.05 137.83 137.63 138.86 Z M 137.77 139.03 L 138.10 139.81 C 138.55 140.89 139.79 141.40 140.87 140.96 C 141.95 140.51 142.46 139.27 142.01 138.19 L 141.68 137.40 C 141.23 136.32 139.99 135.81 138.91 136.26 C 137.83 136.71 137.32 137.95 137.77 139.03 Z M 138.07 139.69 L 138.45 140.78 C 138.83 141.88 140.02 142.46 141.12 142.08 C 142.22 141.70 142.80 140.50 142.42 139.41 L 142.04 138.31 C 141.66 137.22 140.46 136.63 139.37 137.01 C 138.27 137.39 137.69 138.59 138.07 139.69 Z M 138.43 140.68 L 138.82 142.02 C 139.15 143.12 140.30 143.75 141.41 143.43 C 142.51 143.11 143.14 141.95 142.82 140.85 L 142.43 139.51 C 142.11 138.41 140.95 137.77 139.85 138.09 C 138.74 138.42 138.11 139.57 138.43 140.68 Z M 138.81 141.92 L 139.16 143.35 C 139.42 144.46 140.54 145.15 141.65 144.88 C 142.76 144.61 143.45 143.50 143.18 142.38 L 142.83 140.95 C 142.57 139.84 141.45 139.15 140.34 139.42 C 139.23 139.69 138.54 140.80 138.81 141.92 Z M 139.14 143.27 L 139.42 144.64 C 139.64 145.76 140.72 146.48 141.84 146.26 C 142.96 146.04 143.69 144.95 143.47 143.83 L 143.19 142.47 C 142.97 141.35 141.88 140.62 140.77 140.84 C 139.65 141.07 138.92 142.15 139.14 143.27 Z M 139.40 144.59 L 139.63 145.90 C 139.83 147.02 140.89 147.78 142.02 147.58 C 143.14 147.39 143.90 146.32 143.70 145.19 L 143.48 143.88 C 143.28 142.76 142.21 142.00 141.09 142.20 C 139.96 142.39 139.21 143.46 139.40 144.59 Z M 139.62 145.87 L 139.80 147.00 C 139.98 148.13 141.04 148.90 142.17 148.73 C 143.29 148.55 144.07 147.49 143.89 146.36 L 143.71 145.22 C 143.53 144.10 142.48 143.32 141.35 143.50 C 140.22 143.68 139.45 144.74 139.62 145.87 Z M 139.80 146.99 L 139.92 147.83 C 140.09 148.97 141.14 149.75 142.28 149.58 C 143.41 149.41 144.19 148.36 144.02 147.23 L 143.89 146.38 C 143.73 145.25 142.67 144.46 141.54 144.63 C 140.41 144.80 139.63 145.86 139.80 146.99 Z M 139.92 147.86 L 139.99 148.30 C 140.17 149.43 141.24 150.20 142.37 150.02 C 143.50 149.84 144.27 148.78 144.09 147.65 L 144.02 147.20 C 143.84 146.07 142.78 145.30 141.65 145.48 C 140.51 145.66 139.74 146.72 139.92 147.86 Z M 144.10 148.27 L 144.11 148.19 C 144.28 147.06 143.49 146.00 142.36 145.83 C 141.22 145.67 140.17 146.45 140.00 147.59 L 139.99 147.67 C 139.82 148.81 140.61 149.86 141.74 150.03 C 142.88 150.19 143.93 149.41 144.10 148.27 Z M 144.13 147.79 L 144.10 147.16 C 144.04 146.02 143.07 145.13 141.92 145.19 C 140.77 145.25 139.89 146.22 139.95 147.37 L 139.98 147.99 C 140.03 149.14 141.01 150.02 142.16 149.97 C 143.30 149.91 144.19 148.93 144.13 147.79 Z M 144.10 147.19 L 144.07 146.18 C 144.02 145.03 143.06 144.13 141.91 144.17 C 140.76 144.21 139.86 145.18 139.91 146.33 L 139.94 147.34 C 139.99 148.49 140.95 149.39 142.10 149.35 C 143.25 149.31 144.14 148.34 144.10 147.19 Z M 144.07 146.24 L 144.06 144.99 C 144.06 143.84 143.12 142.91 141.97 142.91 C 140.82 142.92 139.89 143.85 139.90 145.00 L 139.90 146.26 C 139.91 147.41 140.84 148.34 141.99 148.33 C 143.14 148.33 144.07 147.39 144.07 146.24 Z M 144.06 145.10 L 144.13 143.75 C 144.18 142.60 143.30 141.62 142.15 141.56 C 141.00 141.51 140.02 142.40 139.96 143.55 L 139.90 144.89 C 139.84 146.04 140.73 147.02 141.88 147.08 C 143.03 147.13 144.01 146.25 144.06 145.10 Z M 144.11 143.93 L 144.29 142.64 C 144.45 141.49 143.65 140.44 142.51 140.29 C 141.36 140.13 140.31 140.93 140.16 142.07 L 139.98 143.36 C 139.82 144.51 140.62 145.56 141.76 145.71 C 142.91 145.87 143.96 145.07 144.11 143.93 Z M 144.23 142.91 L 144.55 141.76 C 144.85 140.65 144.20 139.51 143.10 139.20 C 141.99 138.89 140.84 139.54 140.53 140.65 L 140.22 141.80 C 139.91 142.91 140.56 144.05 141.67 144.36 C 142.78 144.67 143.92 144.02 144.23 142.91 Z M 144.42 142.08 L 144.87 141.12 C 145.35 140.08 144.90 138.85 143.86 138.37 C 142.82 137.88 141.58 138.33 141.10 139.37 L 140.66 140.33 C 140.17 141.37 140.62 142.61 141.66 143.09 C 142.71 143.57 143.94 143.12 144.42 142.08 Z M 144.66 141.47 L 145.22 140.70 C 145.89 139.77 145.69 138.48 144.76 137.81 C 143.84 137.13 142.54 137.34 141.87 138.26 L 141.31 139.03 C 140.64 139.96 140.84 141.25 141.77 141.92 C 142.69 142.60 143.99 142.39 144.66 141.47 Z M 144.91 141.03 L 145.56 140.46 C 146.42 139.71 146.51 138.40 145.76 137.54 C 145.01 136.68 143.70 136.60 142.84 137.35 L 142.18 137.93 C 141.33 138.68 141.24 139.98 141.99 140.84 C 142.74 141.70 144.05 141.79 144.91 141.03 Z M 145.15 140.73 L 145.90 140.35 C 146.91 139.83 147.31 138.58 146.78 137.57 C 146.26 136.56 145.02 136.17 144.01 136.69 L 143.26 137.07 C 142.25 137.59 141.85 138.84 142.37 139.85 C 142.89 140.86 144.14 141.25 145.15 140.73 Z M 145.39 140.52 L 146.34 140.32 C 147.45 140.08 148.16 138.99 147.92 137.88 C 147.68 136.77 146.59 136.06 145.48 136.30 L 144.52 136.51 C 143.41 136.75 142.71 137.84 142.95 138.95 C 143.19 140.06 144.28 140.76 145.39 140.52 Z M 145.83 140.36 L 146.82 140.40 C 147.95 140.45 148.90 139.57 148.95 138.44 C 149.00 137.31 148.12 136.36 146.99 136.31 L 146.00 136.27 C 144.87 136.22 143.92 137.09 143.87 138.22 C 143.82 139.35 144.70 140.31 145.83 140.36 Z M 146.35 140.32 L 147.32 140.59 C 148.40 140.90 149.53 140.27 149.84 139.18 C 150.14 138.10 149.51 136.97 148.43 136.66 L 147.46 136.39 C 146.38 136.08 145.25 136.71 144.94 137.80 C 144.64 138.88 145.27 140.01 146.35 140.32 Z M 146.88 140.40 L 147.76 140.89 C 148.74 141.44 149.98 141.09 150.53 140.10 C 151.07 139.12 150.72 137.88 149.74 137.34 L 148.86 136.85 C 147.88 136.30 146.64 136.66 146.09 137.64 C 145.55 138.62 145.90 139.86 146.88 140.40 Z M 147.36 140.60 L 148.07 141.26 C 148.89 142.03 150.18 141.99 150.95 141.17 C 151.71 140.35 151.67 139.06 150.85 138.29 L 150.14 137.63 C 149.32 136.86 148.03 136.91 147.26 137.73 C 146.50 138.55 146.54 139.83 147.36 140.60 Z M 147.76 140.90 L 148.29 141.71 C 148.91 142.65 150.17 142.91 151.11 142.29 C 152.05 141.67 152.31 140.41 151.70 139.47 L 151.16 138.66 C 150.55 137.72 149.28 137.46 148.34 138.08 C 147.40 138.69 147.14 139.96 147.76 140.90 Z M 148.08 141.32 L 148.44 142.25 C 148.85 143.30 150.03 143.83 151.09 143.42 C 152.14 143.01 152.66 141.83 152.26 140.77 L 151.90 139.85 C 151.49 138.80 150.31 138.27 149.26 138.68 C 148.20 139.09 147.68 140.27 148.08 141.32 Z M 148.33 141.86 L 148.50 142.86 C 148.70 143.98 149.76 144.73 150.88 144.53 C 151.99 144.34 152.74 143.27 152.55 142.16 L 152.37 141.16 C 152.18 140.04 151.11 139.29 149.99 139.49 C 148.88 139.68 148.13 140.75 148.33 141.86 Z M 148.46 142.48 L 148.45 143.52 C 148.43 144.66 149.35 145.60 150.48 145.61 C 151.62 145.63 152.56 144.71 152.57 143.58 L 152.59 142.54 C 152.60 141.40 151.69 140.46 150.55 140.45 C 149.41 140.43 148.48 141.35 148.46 142.48 Z M 148.48 143.16 L 148.29 144.15 C 148.07 145.27 148.80 146.36 149.93 146.57 C 151.05 146.79 152.13 146.06 152.35 144.94 L 152.54 143.94 C 152.76 142.82 152.03 141.73 150.90 141.52 C 149.78 141.30 148.70 142.03 148.48 143.16 Z M 148.38 143.81 L 148.02 144.75 C 147.61 145.83 148.15 147.02 149.22 147.43 C 150.29 147.84 151.49 147.30 151.90 146.23 L 152.26 145.28 C 152.67 144.21 152.13 143.01 151.06 142.60 C 149.98 142.19 148.78 142.73 148.38 143.81 Z M 148.17 144.41 L 147.66 145.27 C 147.06 146.25 147.38 147.54 148.36 148.13 C 149.34 148.73 150.63 148.41 151.22 147.43 L 151.74 146.57 C 152.34 145.59 152.02 144.30 151.04 143.71 C 150.05 143.11 148.77 143.43 148.17 144.41 Z M 147.90 144.93 L 147.24 145.65 C 146.45 146.50 146.50 147.82 147.35 148.61 C 148.20 149.39 149.52 149.34 150.31 148.49 L 150.97 147.77 C 151.76 146.92 151.71 145.60 150.86 144.81 C 150.01 144.03 148.69 144.08 147.90 144.93 Z M 147.60 145.33 L 146.80 145.86 C 145.84 146.51 145.58 147.81 146.22 148.78 C 146.87 149.74 148.17 150.00 149.13 149.35 L 149.94 148.82 C 150.90 148.17 151.16 146.87 150.52 145.90 C 149.87 144.94 148.57 144.68 147.60 145.33 Z M 147.26 145.63 L 146.37 145.94 C 145.28 146.33 144.71 147.53 145.10 148.63 C 145.48 149.72 146.69 150.29 147.78 149.91 L 148.67 149.59 C 149.76 149.20 150.34 148.00 149.95 146.91 C 149.56 145.81 148.36 145.24 147.26 145.63 Z M 146.81 145.84 L 145.84 145.96 C 144.69 146.11 143.87 147.17 144.02 148.32 C 144.17 149.47 145.23 150.28 146.38 150.13 L 147.34 150.01 C 148.50 149.86 149.31 148.81 149.16 147.66 C 149.01 146.51 147.96 145.69 146.81 145.84 Z M 146.22 145.95 L 145.21 145.90 C 144.05 145.84 143.06 146.73 143.00 147.88 C 142.94 149.04 143.83 150.03 144.99 150.10 L 146.00 150.15 C 147.16 150.21 148.15 149.32 148.21 148.16 C 148.27 147.00 147.38 146.01 146.22 145.95 Z M 145.55 145.94 L 144.54 145.72 C 143.41 145.48 142.29 146.20 142.04 147.33 C 141.80 148.47 142.52 149.59 143.65 149.83 L 144.66 150.05 C 145.79 150.30 146.91 149.58 147.16 148.44 C 147.40 147.31 146.68 146.19 145.55 145.94 Z M 144.84 145.81 L 143.87 145.44 C 142.79 145.03 141.57 145.57 141.16 146.66 C 140.74 147.74 141.29 148.96 142.37 149.37 L 143.35 149.74 C 144.43 150.16 145.64 149.61 146.06 148.53 C 146.47 147.44 145.93 146.23 144.84 145.81 Z M 144.19 145.60 L 143.12 144.98 C 142.13 144.39 140.84 144.72 140.25 145.72 C 139.67 146.71 140.00 148.00 141.00 148.59 L 142.06 149.21 C 143.06 149.80 144.34 149.47 144.93 148.47 C 145.52 147.47 145.18 146.19 144.19 145.60 Z M 143.46 145.24 L 142.65 144.50 C 141.79 143.72 140.48 143.79 139.70 144.64 C 138.93 145.49 138.99 146.81 139.84 147.58 L 140.66 148.32 C 141.51 149.10 142.83 149.03 143.60 148.18 C 144.38 147.33 144.31 146.01 143.46 145.24 Z M 143.04 145.01 L 142.60 144.25 C 142.03 143.25 140.77 142.91 139.78 143.48 C 138.78 144.05 138.44 145.32 139.01 146.31 L 139.45 147.07 C 140.02 148.06 141.28 148.41 142.28 147.84 C 143.27 147.27 143.61 146.00 143.04 145.01 Z M 142.86 145.48 L 142.92 144.78 C 143.03 143.65 142.20 142.64 141.07 142.53 C 139.94 142.42 138.93 143.25 138.82 144.38 L 138.76 145.08 C 138.65 146.21 139.48 147.22 140.61 147.33 C 141.74 147.44 142.75 146.61 142.86 145.48 Z M 142.24 146.11 L 142.77 145.63 C 143.62 144.88 143.69 143.58 142.94 142.74 C 142.18 141.90 140.89 141.83 140.05 142.58 L 139.51 143.06 C 138.67 143.81 138.60 145.10 139.35 145.94 C 140.10 146.79 141.39 146.86 142.24 146.11 Z M 142.12 146.00 L 142.99 145.68 C 144.04 145.28 144.57 144.11 144.18 143.06 C 143.79 142.01 142.62 141.48 141.57 141.88 L 140.70 142.20 C 139.65 142.60 139.12 143.77 139.51 144.82 C 139.90 145.87 141.07 146.40 142.12 146.00 Z M 142.58 145.77 L 143.64 145.61 C 144.74 145.45 145.50 144.42 145.34 143.32 C 145.17 142.22 144.15 141.46 143.05 141.63 L 141.98 141.78 C 140.88 141.95 140.12 142.97 140.29 144.07 C 140.45 145.17 141.47 145.93 142.58 145.77 Z M 143.28 145.62 L 144.40 145.65 C 145.51 145.69 146.43 144.82 146.46 143.72 C 146.50 142.61 145.63 141.69 144.53 141.66 L 143.41 141.62 C 142.30 141.59 141.38 142.45 141.35 143.56 C 141.31 144.66 142.18 145.58 143.28 145.62 Z M 143.99 145.58 L 145.04 145.84 C 146.10 146.10 147.18 145.45 147.44 144.39 C 147.71 143.32 147.06 142.25 145.99 141.99 L 144.94 141.73 C 143.88 141.46 142.80 142.11 142.54 143.18 C 142.28 144.24 142.93 145.32 143.99 145.58 Z M 144.45 145.59 L 145.61 146.33 C 146.54 146.93 147.77 146.66 148.36 145.73 C 148.95 144.81 148.68 143.58 147.76 142.99 L 146.59 142.24 C 145.66 141.65 144.43 141.92 143.84 142.84 C 143.25 143.77 143.52 144.99 144.45 145.59 Z M 145.18 145.99 L 145.88 146.79 C 146.62 147.62 147.89 147.70 148.72 146.97 C 149.55 146.23 149.63 144.96 148.90 144.13 L 148.19 143.33 C 147.46 142.50 146.19 142.42 145.36 143.16 C 144.53 143.89 144.45 145.16 145.18 145.99 Z M 145.77 146.68 L 146.05 147.05 C 146.73 147.94 148.00 148.12 148.89 147.44 C 149.78 146.77 149.96 145.50 149.28 144.60 L 149.01 144.24 C 148.33 143.35 147.06 143.17 146.17 143.84 C 145.27 144.52 145.10 145.79 145.77 146.68 Z M 149.65 145.42 L 149.54 144.86 C 149.32 143.76 148.24 143.05 147.15 143.28 C 146.05 143.50 145.34 144.57 145.57 145.67 L 145.68 146.23 C 145.90 147.33 146.98 148.04 148.07 147.81 C 149.17 147.59 149.88 146.52 149.65 145.42 Z M 149.52 144.84 L 149.26 143.64 C 149.03 142.56 147.96 141.87 146.87 142.10 C 145.79 142.33 145.10 143.40 145.33 144.49 L 145.59 145.68 C 145.82 146.77 146.89 147.46 147.97 147.23 C 149.06 146.99 149.75 145.93 149.52 144.84 Z M 149.28 144.17 L 149.33 143.23 C 149.38 142.13 148.54 141.20 147.45 141.14 C 146.35 141.08 145.42 141.92 145.36 143.02 L 145.31 143.96 C 145.26 145.05 146.10 145.99 147.19 146.05 C 148.28 146.10 149.22 145.26 149.28 144.17 Z M 147.64 145.08 L 148.11 145.01 C 149.20 144.85 149.94 143.83 149.78 142.75 C 149.61 141.67 148.60 140.92 147.51 141.09 L 147.04 141.16 C 145.96 141.33 145.22 142.34 145.38 143.42 C 145.55 144.51 146.56 145.25 147.64 145.08 Z M 146.70 144.72 L 147.43 145.21 C 148.35 145.83 149.60 145.58 150.21 144.66 C 150.83 143.74 150.59 142.50 149.67 141.88 L 148.93 141.39 C 148.01 140.77 146.77 141.01 146.15 141.93 C 145.53 142.85 145.78 144.10 146.70 144.72 Z M 147.01 144.87 L 147.82 145.80 C 148.55 146.65 149.84 146.74 150.68 146.01 C 151.53 145.28 151.62 144.00 150.89 143.15 L 150.08 142.22 C 149.35 141.37 148.07 141.28 147.22 142.01 C 146.37 142.74 146.28 144.02 147.01 144.87 Z M 147.58 145.50 L 148.18 146.53 C 148.74 147.51 149.99 147.84 150.97 147.28 C 151.95 146.71 152.29 145.46 151.72 144.48 L 151.13 143.46 C 150.56 142.48 149.31 142.14 148.33 142.71 C 147.35 143.27 147.02 144.52 147.58 145.50 Z M 148.04 146.27 L 148.36 147.07 C 148.78 148.13 149.98 148.64 151.03 148.22 C 152.08 147.80 152.60 146.61 152.18 145.55 L 151.86 144.75 C 151.44 143.69 150.24 143.18 149.19 143.60 C 148.14 144.02 147.62 145.21 148.04 146.27 Z M 148.30 146.88 L 148.55 147.77 C 148.87 148.86 150.01 149.48 151.10 149.17 C 152.19 148.85 152.81 147.71 152.50 146.62 L 152.24 145.74 C 151.93 144.65 150.79 144.02 149.70 144.34 C 148.61 144.65 147.98 145.79 148.30 146.88 Z M 148.51 147.61 L 148.71 148.57 C 148.94 149.68 150.03 150.39 151.14 150.16 C 152.25 149.93 152.97 148.85 152.74 147.73 L 152.54 146.78 C 152.31 145.67 151.22 144.95 150.11 145.18 C 149.00 145.41 148.28 146.50 148.51 147.61 Z M 148.69 148.45 L 148.84 149.48 C 149.00 150.60 150.05 151.38 151.17 151.21 C 152.29 151.05 153.07 150.01 152.91 148.88 L 152.76 147.86 C 152.59 146.73 151.55 145.95 150.43 146.12 C 149.30 146.28 148.53 147.32 148.69 148.45 Z M 148.83 149.39 L 148.94 150.48 C 149.05 151.61 150.06 152.44 151.19 152.32 C 152.32 152.21 153.14 151.20 153.03 150.07 L 152.92 148.97 C 152.81 147.84 151.80 147.02 150.67 147.13 C 149.54 147.25 148.71 148.26 148.83 149.39 Z M 148.93 150.42 L 149.01 151.56 C 149.09 152.69 150.07 153.55 151.20 153.47 C 152.34 153.39 153.19 152.41 153.11 151.28 L 153.03 150.14 C 152.96 149.00 151.98 148.15 150.84 148.23 C 149.71 148.31 148.85 149.29 148.93 150.42 Z M 149.01 151.52 L 149.05 152.45 C 149.11 153.59 150.07 154.46 151.21 154.41 C 152.34 154.35 153.22 153.39 153.16 152.25 L 153.11 151.32 C 153.06 150.18 152.10 149.31 150.96 149.36 C 149.83 149.42 148.95 150.38 149.01 151.52 Z M 149.06 152.42 L 149.09 153.39 C 149.12 154.52 150.07 155.41 151.20 155.37 C 152.34 155.34 153.23 154.39 153.19 153.26 L 153.16 152.29 C 153.12 151.15 152.18 150.27 151.04 150.30 C 149.91 150.34 149.02 151.28 149.06 152.42 Z M 149.09 153.35 L 149.10 154.34 C 149.12 155.47 150.05 156.38 151.18 156.36 C 152.31 156.35 153.22 155.42 153.20 154.28 L 153.19 153.29 C 153.17 152.16 152.24 151.25 151.11 151.27 C 149.98 151.29 149.07 152.22 149.09 153.35 Z M 149.10 154.31 L 149.10 155.32 C 149.10 156.45 150.01 157.37 151.14 157.37 C 152.27 157.38 153.19 156.46 153.20 155.33 L 153.20 154.32 C 153.20 153.19 152.29 152.27 151.16 152.26 C 150.03 152.26 149.11 153.17 149.10 154.31 Z M 149.10 155.28 L 149.08 156.30 C 149.05 157.43 149.95 158.37 151.08 158.39 C 152.21 158.42 153.14 157.52 153.17 156.39 L 153.19 155.37 C 153.22 154.24 152.32 153.30 151.20 153.28 C 150.07 153.25 149.13 154.15 149.10 155.28 Z M 149.08 156.26 L 149.04 157.28 C 148.99 158.41 149.86 159.37 150.99 159.42 C 152.12 159.46 153.07 158.59 153.12 157.46 L 153.17 156.44 C 153.22 155.31 152.34 154.35 151.21 154.30 C 150.09 154.26 149.13 155.13 149.08 156.26 Z M 149.04 157.24 L 148.97 158.26 C 148.90 159.39 149.75 160.36 150.88 160.44 C 152.00 160.51 152.97 159.66 153.05 158.53 L 153.12 157.51 C 153.19 156.38 152.34 155.41 151.21 155.34 C 150.09 155.26 149.12 156.11 149.04 157.24 Z M 148.98 158.21 L 148.89 159.23 C 148.79 160.35 149.61 161.34 150.74 161.45 C 151.86 161.55 152.85 160.72 152.95 159.60 L 153.04 158.58 C 153.14 157.46 152.32 156.47 151.20 156.37 C 150.07 156.27 149.08 157.09 148.98 158.21 Z M 148.90 159.18 L 148.78 160.19 C 148.65 161.30 149.45 162.31 150.56 162.44 C 151.68 162.57 152.69 161.78 152.82 160.66 L 152.94 159.65 C 153.07 158.54 152.27 157.53 151.16 157.40 C 150.04 157.27 149.03 158.06 148.90 159.18 Z M 148.81 160.13 L 148.66 161.13 C 148.50 162.23 149.26 163.25 150.37 163.41 C 151.47 163.57 152.49 162.81 152.65 161.71 L 152.79 160.71 C 152.95 159.61 152.19 158.59 151.09 158.43 C 149.99 158.27 148.97 159.03 148.81 160.13 Z M 148.69 161.08 L 148.52 162.06 C 148.33 163.15 149.06 164.19 150.14 164.37 C 151.23 164.56 152.27 163.83 152.45 162.75 L 152.62 161.76 C 152.81 160.67 152.08 159.64 151.00 159.45 C 149.91 159.26 148.87 159.99 148.69 161.08 Z M 148.54 162.02 L 148.35 162.99 C 148.13 164.07 148.83 165.11 149.90 165.32 C 150.98 165.54 152.02 164.84 152.23 163.77 L 152.43 162.79 C 152.64 161.72 151.95 160.68 150.87 160.46 C 149.80 160.25 148.76 160.94 148.54 162.02 Z M 148.37 162.95 L 148.15 163.92 C 147.92 164.97 148.58 166.03 149.64 166.26 C 150.70 166.50 151.75 165.84 151.99 164.78 L 152.21 163.81 C 152.45 162.75 151.78 161.70 150.72 161.46 C 149.66 161.22 148.61 161.89 148.37 162.95 Z M 148.18 163.87 L 147.94 164.84 C 147.68 165.88 148.31 166.94 149.36 167.20 C 150.40 167.46 151.46 166.83 151.72 165.78 L 151.96 164.82 C 152.23 163.78 151.59 162.72 150.55 162.46 C 149.50 162.19 148.44 162.83 148.18 163.87 Z M 147.97 164.80 L 147.70 165.76 C 147.42 166.79 148.03 167.85 149.06 168.14 C 150.09 168.42 151.15 167.81 151.43 166.78 L 151.70 165.82 C 151.98 164.79 151.37 163.73 150.34 163.45 C 149.31 163.16 148.25 163.77 147.97 164.80 Z M 147.73 165.73 L 147.45 166.69 C 147.15 167.71 147.73 168.77 148.74 169.07 C 149.76 169.37 150.82 168.79 151.12 167.77 L 151.41 166.81 C 151.71 165.80 151.13 164.73 150.11 164.43 C 149.10 164.13 148.03 164.71 147.73 165.73 Z M 147.47 166.66 L 147.18 167.60 C 146.86 168.60 147.42 169.67 148.42 169.98 C 149.42 170.30 150.49 169.74 150.80 168.74 L 151.10 167.80 C 151.41 166.80 150.86 165.74 149.86 165.42 C 148.86 165.10 147.79 165.66 147.47 166.66 Z M 147.20 167.57 L 146.89 168.50 C 146.57 169.49 147.10 170.56 148.09 170.88 C 149.07 171.21 150.14 170.68 150.47 169.69 L 150.78 168.76 C 151.11 167.78 150.57 166.71 149.59 166.38 C 148.60 166.05 147.53 166.59 147.20 167.57 Z M 146.92 168.48 L 146.59 169.41 C 146.25 170.39 146.77 171.45 147.74 171.79 C 148.71 172.13 149.78 171.62 150.12 170.65 L 150.44 169.71 C 150.78 168.74 150.27 167.68 149.30 167.34 C 148.32 167.00 147.26 167.51 146.92 168.48 Z M 146.62 169.40 L 146.28 170.33 C 145.93 171.29 146.42 172.35 147.38 172.70 C 148.34 173.05 149.40 172.56 149.75 171.60 L 150.09 170.67 C 150.44 169.71 149.95 168.65 148.99 168.30 C 148.03 167.94 146.97 168.44 146.62 169.40 Z M 146.30 170.31 L 145.95 171.25 C 145.59 172.20 146.06 173.25 147.01 173.61 C 147.95 173.97 149.01 173.50 149.37 172.55 L 149.72 171.62 C 150.08 170.67 149.61 169.61 148.66 169.25 C 147.72 168.89 146.66 169.37 146.30 170.31 Z M 145.97 171.24 L 145.60 172.18 C 145.23 173.11 145.69 174.16 146.62 174.53 C 147.55 174.90 148.61 174.44 148.97 173.51 L 149.34 172.57 C 149.71 171.64 149.25 170.58 148.32 170.21 C 147.39 169.85 146.34 170.31 145.97 171.24 Z M 145.62 172.16 L 145.24 173.10 C 144.87 174.02 145.31 175.07 146.23 175.44 C 147.15 175.82 148.20 175.38 148.57 174.46 L 148.95 173.52 C 149.33 172.60 148.88 171.55 147.96 171.18 C 147.04 170.80 146.00 171.24 145.62 172.16 Z M 145.26 173.09 L 144.87 174.03 C 144.49 174.94 144.92 175.98 145.83 176.36 C 146.73 176.74 147.77 176.31 148.15 175.41 L 148.55 174.47 C 148.93 173.56 148.50 172.52 147.59 172.14 C 146.69 171.76 145.64 172.19 145.26 173.09 Z M 144.89 174.02 L 144.49 174.96 C 144.11 175.85 144.52 176.89 145.42 177.27 C 146.31 177.66 147.35 177.24 147.73 176.35 L 148.13 175.41 C 148.52 174.52 148.10 173.48 147.21 173.10 C 146.31 172.72 145.28 173.13 144.89 174.02 Z M 144.51 174.95 L 144.11 175.87 C 143.72 176.76 144.12 177.79 145.01 178.17 C 145.89 178.56 146.92 178.16 147.31 177.28 L 147.71 176.35 C 148.10 175.47 147.70 174.44 146.81 174.05 C 145.93 173.67 144.90 174.07 144.51 174.95 Z M 144.13 175.87 L 143.72 176.79 C 143.32 177.66 143.71 178.68 144.59 179.07 C 145.46 179.46 146.48 179.07 146.87 178.20 L 147.28 177.28 C 147.68 176.41 147.29 175.39 146.42 175.00 C 145.54 174.61 144.52 175.00 144.13 175.87 Z M 143.74 176.78 L 143.32 177.70 C 142.92 178.55 143.30 179.57 144.16 179.97 C 145.02 180.36 146.03 179.99 146.43 179.13 L 146.85 178.21 C 147.25 177.35 146.87 176.33 146.01 175.94 C 145.15 175.54 144.13 175.92 143.74 176.78 Z M 143.34 177.69 L 142.91 178.60 C 142.51 179.45 142.87 180.46 143.72 180.86 C 144.57 181.26 145.58 180.89 145.98 180.04 L 146.41 179.13 C 146.81 178.29 146.44 177.28 145.60 176.88 C 144.75 176.48 143.74 176.84 143.34 177.69 Z M 142.93 178.59 L 142.49 179.49 C 142.09 180.33 142.44 181.33 143.28 181.74 C 144.11 182.14 145.12 181.79 145.52 180.96 L 145.96 180.05 C 146.36 179.22 146.01 178.21 145.17 177.81 C 144.34 177.40 143.33 177.75 142.93 178.59 Z M 142.52 179.48 L 142.07 180.38 C 141.66 181.20 142.00 182.20 142.82 182.61 C 143.65 183.02 144.64 182.68 145.05 181.86 L 145.50 180.96 C 145.91 180.14 145.57 179.14 144.75 178.73 C 143.92 178.33 142.93 178.66 142.52 179.48 Z M 142.10 180.37 L 141.65 181.25 C 141.23 182.06 141.55 183.05 142.36 183.47 C 143.17 183.88 144.17 183.56 144.58 182.75 L 145.03 181.87 C 145.44 181.06 145.12 180.06 144.31 179.65 C 143.50 179.24 142.51 179.56 142.10 180.37 Z M 141.67 181.24 L 141.21 182.11 C 140.79 182.91 141.10 183.90 141.90 184.31 C 142.70 184.73 143.68 184.43 144.10 183.63 L 144.56 182.76 C 144.98 181.96 144.67 180.98 143.87 180.56 C 143.07 180.14 142.09 180.44 141.67 181.24 Z M 141.23 182.10 L 140.75 182.99 C 140.33 183.78 140.62 184.76 141.40 185.18 C 142.19 185.61 143.17 185.32 143.60 184.53 L 144.08 183.64 C 144.50 182.85 144.21 181.87 143.43 181.45 C 142.64 181.02 141.66 181.31 141.23 182.10 Z M 140.77 182.98 L 140.27 183.87 C 139.84 184.64 140.12 185.62 140.89 186.06 C 141.67 186.49 142.65 186.21 143.09 185.43 L 143.58 184.54 C 144.01 183.77 143.73 182.79 142.96 182.35 C 142.18 181.92 141.20 182.20 140.77 182.98 Z M 140.29 183.85 L 139.79 184.73 C 139.35 185.50 139.61 186.48 140.38 186.92 C 141.15 187.36 142.13 187.09 142.57 186.32 L 143.07 185.45 C 143.51 184.68 143.24 183.70 142.47 183.26 C 141.71 182.82 140.73 183.09 140.29 183.85 Z M 139.80 184.72 L 139.29 185.58 C 138.85 186.35 139.11 187.32 139.87 187.77 C 140.63 188.21 141.61 187.96 142.05 187.20 L 142.56 186.33 C 143.00 185.57 142.75 184.59 141.98 184.15 C 141.22 183.70 140.24 183.96 139.80 184.72 Z M 139.31 185.58 L 138.80 186.43 C 138.35 187.19 138.60 188.16 139.35 188.61 C 140.11 189.06 141.08 188.81 141.53 188.06 L 142.04 187.20 C 142.49 186.45 142.24 185.47 141.49 185.02 C 140.73 184.57 139.75 184.82 139.31 185.58 Z M 138.81 186.43 L 138.30 187.28 C 137.85 188.03 138.09 189.00 138.84 189.45 C 139.59 189.90 140.56 189.66 141.01 188.91 L 141.52 188.06 C 141.97 187.31 141.73 186.34 140.98 185.89 C 140.23 185.44 139.26 185.68 138.81 186.43 Z M 138.31 187.27 L 137.79 188.12 C 137.34 188.86 137.58 189.83 138.32 190.29 C 139.06 190.74 140.04 190.50 140.49 189.76 L 141.00 188.91 C 141.45 188.17 141.22 187.20 140.47 186.75 C 139.73 186.29 138.76 186.53 138.31 187.27 Z M 137.80 188.12 L 137.29 188.96 C 136.83 189.70 137.07 190.67 137.81 191.12 C 138.55 191.57 139.51 191.34 139.97 190.60 L 140.48 189.76 C 140.93 189.02 140.70 188.05 139.96 187.60 C 139.22 187.15 138.25 187.38 137.80 188.12 Z M 137.29 188.96 L 137.08 189.31 C 136.63 190.04 136.86 191.01 137.60 191.46 C 138.33 191.91 139.30 191.68 139.75 190.94 L 139.96 190.60 C 140.41 189.86 140.18 188.90 139.44 188.44 C 138.71 187.99 137.74 188.22 137.29 188.96 Z"
      fill="black"
      fill-rule="nonzero" /></svg>