<svg xmlns="http://www.w3.org/2000/svg" width="300" height="300" viewBox="0 0 300 300">
<path d="M 138.45 137.97 L 138.63 138.94 C 138.81 139.89 139.73 140.52 140.69 140.34 C 141.64 140.16 142.27 139.24 142.09 138.28 L 141.91 137.32 C 141.73 136.37 140.81 135.74 139.85 135.92 C 138.90 136.10 138.27 137.02 138.45 137.97 Z M 138.62 138.90 L 138.79 139.87 C 138.95 140.83 139.86 141.47 140.82 141.31 C 141.77 141.15 142.42 140.24 142.26 139.28 L 142.10 138.32 C 141.93 137.36 141.03 136.71 140.07 136.87 C 139.11 137.03 138.46 137.94 138.62 138.90 Z M 138.78 139.80 L 138.90 140.78 C 139.03 141.74 139.91 142.42 140.87 142.30 C 141.84 142.17 142.52 141.29 142.39 140.33 L 142.27 139.35 C 142.15 138.39 141.26 137.71 140.30 137.83 C 139.33 137.95 138.65 138.84 138.78 139.80 Z M 138.89 140.67 L 138.96 141.67 C 139.03 142.64 139.87 143.37 140.84 143.30 C 141.81 143.23 142.54 142.39 142.47 141.42 L 142.40 140.43 C 142.34 139.46 141.50 138.73 140.53 138.80 C 139.56 138.86 138.83 139.71 138.89 140.67 Z M 138.96 141.54 L 138.95 142.55 C 138.95 143.52 139.73 144.31 140.70 144.32 C 141.68 144.32 142.47 143.54 142.47 142.57 L 142.48 141.55 C 142.48 140.58 141.70 139.79 140.73 139.78 C 139.76 139.78 138.96 140.56 138.96 141.54 Z M 138.96 142.39 L 138.86 143.43 C 138.77 144.39 139.48 145.25 140.45 145.34 C 141.42 145.44 142.28 144.73 142.37 143.76 L 142.47 142.72 C 142.56 141.76 141.85 140.90 140.88 140.81 C 139.91 140.71 139.05 141.42 138.96 142.39 Z M 138.89 143.27 L 138.71 144.24 C 138.53 145.19 139.15 146.11 140.11 146.29 C 141.06 146.47 141.98 145.85 142.16 144.89 L 142.34 143.92 C 142.52 142.97 141.90 142.05 140.94 141.87 C 139.99 141.69 139.07 142.31 138.89 143.27 Z M 138.74 144.10 L 138.47 145.08 C 138.21 146.01 138.76 146.97 139.69 147.23 C 140.62 147.49 141.59 146.95 141.85 146.02 L 142.12 145.04 C 142.38 144.11 141.83 143.14 140.90 142.88 C 139.97 142.62 139.00 143.17 138.74 144.10 Z M 138.52 144.94 L 138.16 145.90 C 137.83 146.80 138.29 147.81 139.19 148.14 C 140.10 148.48 141.10 148.02 141.44 147.11 L 141.80 146.15 C 142.13 145.25 141.67 144.24 140.77 143.91 C 139.86 143.57 138.86 144.03 138.52 144.94 Z M 138.23 145.76 L 137.79 146.68 C 137.38 147.55 137.75 148.59 138.62 149.00 C 139.49 149.41 140.53 149.04 140.94 148.17 L 141.38 147.25 C 141.79 146.38 141.42 145.34 140.55 144.93 C 139.68 144.52 138.64 144.89 138.23 145.76 Z M 137.87 146.54 L 137.36 147.40 C 136.87 148.23 137.15 149.29 137.97 149.78 C 138.80 150.27 139.86 150.00 140.35 149.17 L 140.86 148.31 C 141.35 147.49 141.08 146.42 140.25 145.93 C 139.43 145.45 138.36 145.72 137.87 146.54 Z M 137.47 147.25 L 136.89 148.03 C 136.32 148.80 136.48 149.88 137.24 150.46 C 138.01 151.03 139.10 150.87 139.67 150.10 L 140.25 149.32 C 140.82 148.56 140.66 147.47 139.89 146.90 C 139.12 146.33 138.04 146.49 137.47 147.25 Z M 137.04 147.86 L 136.28 148.65 C 135.61 149.33 135.62 150.42 136.30 151.09 C 136.99 151.75 138.08 151.74 138.75 151.06 L 139.51 150.27 C 140.18 149.59 140.17 148.50 139.48 147.83 C 138.80 147.16 137.71 147.18 137.04 147.86 Z M 136.49 148.46 L 135.55 149.15 C 134.78 149.71 134.61 150.79 135.17 151.56 C 135.73 152.33 136.81 152.50 137.58 151.94 L 138.53 151.24 C 139.30 150.68 139.46 149.60 138.90 148.84 C 138.34 148.07 137.26 147.90 136.49 148.46 Z M 135.83 148.99 L 134.87 149.44 C 134.01 149.85 133.65 150.87 134.05 151.73 C 134.46 152.59 135.48 152.96 136.34 152.55 L 137.30 152.10 C 138.16 151.69 138.52 150.67 138.12 149.81 C 137.71 148.95 136.69 148.58 135.83 148.99 Z M 135.24 149.32 L 134.35 149.51 C 133.42 149.71 132.83 150.63 133.03 151.55 C 133.23 152.48 134.14 153.07 135.07 152.87 L 135.97 152.67 C 136.89 152.47 137.48 151.56 137.28 150.64 C 137.08 149.71 136.17 149.12 135.24 149.32 Z M 134.90 149.49 L 134.13 149.40 C 133.19 149.30 132.34 149.98 132.24 150.92 C 132.13 151.85 132.81 152.70 133.75 152.81 L 134.52 152.89 C 135.46 153.00 136.30 152.32 136.41 151.38 C 136.51 150.44 135.84 149.59 134.90 149.49 Z M 134.91 149.70 L 134.29 149.27 C 133.52 148.74 132.45 148.93 131.92 149.71 C 131.38 150.48 131.58 151.55 132.35 152.08 L 132.97 152.51 C 133.74 153.05 134.81 152.85 135.34 152.08 C 135.88 151.30 135.69 150.24 134.91 149.70 Z M 134.83 149.87 L 134.42 149.12 C 133.98 148.29 132.94 147.98 132.11 148.42 C 131.28 148.87 130.97 149.90 131.42 150.73 L 131.82 151.49 C 132.27 152.32 133.30 152.63 134.13 152.18 C 134.96 151.74 135.27 150.70 134.83 149.87 Z M 134.58 149.55 L 134.35 148.56 C 134.15 147.65 133.23 147.07 132.32 147.28 C 131.40 147.49 130.83 148.40 131.03 149.32 L 131.26 150.30 C 131.47 151.22 132.38 151.79 133.30 151.59 C 134.21 151.38 134.79 150.46 134.58 149.55 Z M 134.39 148.79 L 134.29 147.66 C 134.21 146.73 133.38 146.04 132.45 146.12 C 131.51 146.20 130.82 147.03 130.90 147.96 L 131.00 149.09 C 131.08 150.03 131.91 150.72 132.84 150.63 C 133.78 150.55 134.47 149.73 134.39 148.79 Z M 134.29 147.77 L 134.26 146.67 C 134.24 145.73 133.46 144.99 132.52 145.01 C 131.58 145.04 130.84 145.82 130.87 146.76 L 130.90 147.86 C 130.92 148.80 131.70 149.54 132.64 149.51 C 133.58 149.49 134.32 148.71 134.29 147.77 Z M 134.27 146.72 L 134.28 145.73 C 134.28 144.79 133.53 144.02 132.59 144.01 C 131.65 144.00 130.88 144.76 130.87 145.70 L 130.86 146.70 C 130.85 147.64 131.61 148.41 132.55 148.41 C 133.49 148.42 134.26 147.67 134.27 146.72 Z M 134.28 145.80 L 134.33 144.81 C 134.38 143.87 133.66 143.06 132.72 143.01 C 131.77 142.96 130.97 143.69 130.92 144.63 L 130.87 145.62 C 130.82 146.57 131.54 147.37 132.48 147.42 C 133.43 147.47 134.23 146.75 134.28 145.80 Z M 134.33 144.91 L 134.44 143.92 C 134.55 142.98 133.87 142.13 132.93 142.02 C 131.99 141.92 131.14 142.60 131.03 143.54 L 130.92 144.53 C 130.81 145.47 131.49 146.32 132.44 146.43 C 133.38 146.53 134.23 145.85 134.33 144.91 Z M 134.43 144.04 L 134.61 143.06 C 134.79 142.12 134.17 141.22 133.23 141.05 C 132.30 140.88 131.40 141.49 131.22 142.43 L 131.04 143.42 C 130.87 144.35 131.49 145.25 132.42 145.42 C 133.36 145.60 134.26 144.98 134.43 144.04 Z M 134.59 143.20 L 134.85 142.24 C 135.10 141.31 134.56 140.36 133.64 140.11 C 132.71 139.86 131.76 140.40 131.51 141.33 L 131.25 142.29 C 131.00 143.21 131.54 144.16 132.46 144.41 C 133.39 144.67 134.34 144.12 134.59 143.20 Z M 134.81 142.38 L 135.15 141.45 C 135.48 140.55 135.01 139.55 134.11 139.22 C 133.21 138.89 132.21 139.36 131.89 140.26 L 131.55 141.19 C 131.22 142.09 131.69 143.09 132.59 143.41 C 133.49 143.74 134.49 143.28 134.81 142.38 Z M 135.11 141.57 L 135.52 140.66 C 135.91 139.78 135.52 138.74 134.64 138.35 C 133.76 137.96 132.73 138.35 132.33 139.23 L 131.93 140.14 C 131.53 141.02 131.93 142.06 132.81 142.45 C 133.69 142.84 134.72 142.45 135.11 141.57 Z M 135.48 140.75 L 135.94 139.86 C 136.39 139.00 136.06 137.95 135.20 137.50 C 134.34 137.05 133.29 137.38 132.84 138.24 L 132.37 139.14 C 131.93 139.99 132.26 141.05 133.12 141.50 C 133.97 141.94 135.03 141.61 135.48 140.75 Z M 135.91 139.94 L 136.42 139.07 C 136.91 138.23 136.63 137.16 135.79 136.67 C 134.96 136.17 133.88 136.45 133.39 137.29 L 132.88 138.16 C 132.39 139.00 132.66 140.07 133.50 140.56 C 134.34 141.06 135.41 140.78 135.91 139.94 Z M 136.38 139.14 L 136.93 138.29 C 137.46 137.48 137.23 136.39 136.41 135.86 C 135.59 135.33 134.50 135.56 133.97 136.38 L 133.42 137.22 C 132.89 138.04 133.13 139.13 133.94 139.66 C 134.76 140.19 135.85 139.96 136.38 139.14 Z M 136.90 138.36 L 137.47 137.54 C 138.04 136.74 137.85 135.64 137.05 135.07 C 136.25 134.51 135.15 134.70 134.58 135.50 L 134.01 136.31 C 133.44 137.11 133.63 138.22 134.43 138.78 C 135.23 139.34 136.33 139.15 136.90 138.36 Z M 137.43 137.61 L 138.04 136.83 C 138.64 136.06 138.51 134.94 137.73 134.34 C 136.96 133.74 135.85 133.87 135.24 134.64 L 134.63 135.42 C 134.03 136.20 134.16 137.31 134.93 137.91 C 135.71 138.52 136.82 138.38 137.43 137.61 Z M 137.97 136.92 L 138.63 136.18 C 139.28 135.44 139.21 134.32 138.48 133.66 C 137.74 133.01 136.62 133.08 135.97 133.81 L 135.31 134.56 C 134.66 135.29 134.72 136.42 135.46 137.07 C 136.19 137.72 137.32 137.65 137.97 136.92 Z M 138.54 136.27 L 139.26 135.58 C 139.96 134.89 139.98 133.76 139.29 133.05 C 138.60 132.35 137.47 132.33 136.76 133.02 L 136.05 133.72 C 135.34 134.41 135.33 135.54 136.02 136.24 C 136.71 136.95 137.84 136.96 138.54 136.27 Z M 139.15 135.68 L 139.93 135.03 C 140.69 134.40 140.80 133.27 140.17 132.51 C 139.53 131.75 138.41 131.64 137.64 132.28 L 136.87 132.92 C 136.11 133.55 136.00 134.68 136.63 135.44 C 137.26 136.21 138.39 136.31 139.15 135.68 Z M 139.81 135.13 L 140.65 134.55 C 141.46 133.99 141.66 132.87 141.10 132.05 C 140.53 131.24 139.41 131.03 138.60 131.60 L 137.76 132.18 C 136.95 132.74 136.75 133.86 137.31 134.68 C 137.88 135.49 139.00 135.70 139.81 135.13 Z M 140.51 134.65 L 141.40 134.14 C 142.26 133.65 142.57 132.55 142.08 131.68 C 141.58 130.82 140.48 130.51 139.62 131.00 L 138.73 131.51 C 137.86 132.00 137.56 133.10 138.05 133.97 C 138.54 134.83 139.64 135.14 140.51 134.65 Z M 141.24 134.23 L 142.17 133.82 C 143.09 133.41 143.50 132.34 143.09 131.43 C 142.69 130.51 141.62 130.10 140.71 130.51 L 139.78 130.92 C 138.86 131.32 138.45 132.39 138.85 133.31 C 139.26 134.22 140.32 134.63 141.24 134.23 Z M 141.98 133.90 L 142.93 133.60 C 143.89 133.31 144.43 132.29 144.13 131.33 C 143.83 130.37 142.82 129.83 141.86 130.13 L 140.90 130.42 C 139.94 130.72 139.40 131.74 139.70 132.70 C 140.00 133.66 141.02 134.20 141.98 133.90 Z M 142.69 133.67 L 143.65 133.51 C 144.65 133.35 145.32 132.41 145.16 131.42 C 145.00 130.42 144.06 129.75 143.06 129.91 L 142.10 130.06 C 141.11 130.23 140.43 131.16 140.59 132.16 C 140.75 133.16 141.69 133.83 142.69 133.67 Z M 143.35 133.54 L 144.32 133.55 C 145.33 133.55 146.15 132.74 146.16 131.73 C 146.17 130.72 145.35 129.89 144.34 129.88 L 143.37 129.88 C 142.36 129.87 141.53 130.69 141.53 131.70 C 141.52 132.71 142.33 133.53 143.35 133.54 Z M 143.97 133.52 L 144.95 133.71 C 145.94 133.91 146.91 133.26 147.11 132.27 C 147.31 131.28 146.66 130.31 145.67 130.11 L 144.69 129.92 C 143.69 129.72 142.73 130.36 142.53 131.36 C 142.33 132.35 142.98 133.32 143.97 133.52 Z M 144.62 133.61 L 145.54 133.99 C 146.48 134.37 147.55 133.92 147.93 132.98 C 148.31 132.04 147.86 130.97 146.92 130.58 L 146.00 130.21 C 145.06 129.83 143.99 130.28 143.61 131.22 C 143.22 132.16 143.68 133.23 144.62 133.61 Z M 145.23 133.83 L 146.07 134.37 C 146.92 134.92 148.06 134.67 148.61 133.82 C 149.16 132.96 148.91 131.83 148.06 131.28 L 147.22 130.74 C 146.37 130.19 145.23 130.44 144.68 131.29 C 144.13 132.14 144.38 133.28 145.23 133.83 Z M 145.80 134.16 L 146.53 134.84 C 147.27 135.54 148.43 135.51 149.13 134.77 C 149.82 134.03 149.79 132.87 149.05 132.17 L 148.33 131.49 C 147.59 130.79 146.42 130.82 145.73 131.56 C 145.03 132.30 145.06 133.46 145.80 134.16 Z M 146.30 134.59 L 146.88 135.39 C 147.48 136.21 148.63 136.40 149.45 135.80 C 150.27 135.21 150.46 134.06 149.86 133.24 L 149.28 132.43 C 148.68 131.61 147.53 131.42 146.71 132.02 C 145.89 132.61 145.70 133.76 146.30 134.59 Z M 146.72 135.12 L 147.13 135.97 C 147.57 136.89 148.67 137.27 149.59 136.83 C 150.50 136.38 150.89 135.28 150.44 134.37 L 150.03 133.51 C 149.59 132.60 148.49 132.21 147.57 132.66 C 146.66 133.10 146.27 134.20 146.72 135.12 Z M 147.04 135.74 L 147.34 136.67 C 147.65 137.63 148.69 138.17 149.66 137.85 C 150.62 137.54 151.15 136.50 150.84 135.53 L 150.54 134.60 C 150.23 133.64 149.19 133.10 148.22 133.42 C 147.25 133.73 146.72 134.77 147.04 135.74 Z M 147.29 136.48 L 147.50 137.47 C 147.71 138.46 148.69 139.10 149.68 138.89 C 150.68 138.67 151.31 137.70 151.10 136.70 L 150.89 135.72 C 150.68 134.72 149.70 134.09 148.70 134.30 C 147.71 134.51 147.08 135.49 147.29 136.48 Z M 147.47 137.33 L 147.61 138.35 C 147.75 139.36 148.68 140.06 149.69 139.93 C 150.69 139.79 151.40 138.86 151.26 137.85 L 151.12 136.84 C 150.99 135.83 150.06 135.12 149.05 135.26 C 148.04 135.40 147.33 136.32 147.47 137.33 Z M 147.60 138.26 L 147.69 139.28 C 147.77 140.30 148.67 141.05 149.68 140.96 C 150.70 140.87 151.45 139.98 151.36 138.97 L 151.27 137.94 C 151.19 136.93 150.29 136.18 149.28 136.26 C 148.26 136.35 147.51 137.24 147.60 138.26 Z M 147.68 139.23 L 147.74 140.27 C 147.80 141.28 148.67 142.06 149.69 142.00 C 150.70 141.95 151.48 141.08 151.42 140.06 L 151.37 139.02 C 151.31 138.00 150.44 137.23 149.42 137.28 C 148.40 137.34 147.63 138.21 147.68 139.23 Z M 147.74 140.21 L 147.77 141.25 C 147.80 142.26 148.65 143.07 149.66 143.04 C 150.68 143.01 151.49 142.16 151.46 141.14 L 151.43 140.11 C 151.40 139.09 150.55 138.29 149.53 138.32 C 148.51 138.35 147.71 139.20 147.74 140.21 Z M 147.77 141.17 L 147.76 142.18 C 147.75 143.20 148.56 144.04 149.58 144.05 C 150.60 144.06 151.44 143.24 151.45 142.22 L 151.46 141.21 C 151.47 140.19 150.65 139.36 149.63 139.35 C 148.61 139.34 147.78 140.16 147.77 141.17 Z M 147.76 142.09 L 147.70 143.07 C 147.64 144.09 148.41 144.97 149.43 145.03 C 150.44 145.09 151.32 144.32 151.38 143.30 L 151.44 142.32 C 151.51 141.30 150.73 140.42 149.71 140.36 C 148.70 140.30 147.82 141.07 147.76 142.09 Z M 147.71 142.96 L 147.59 143.92 C 147.46 144.93 148.18 145.85 149.19 145.98 C 150.20 146.11 151.12 145.39 151.25 144.38 L 151.37 143.42 C 151.50 142.41 150.78 141.48 149.77 141.36 C 148.76 141.23 147.84 141.95 147.71 142.96 Z M 147.61 143.78 L 147.42 144.73 C 147.21 145.72 147.86 146.70 148.86 146.90 C 149.85 147.11 150.83 146.46 151.03 145.47 L 151.23 144.52 C 151.43 143.52 150.79 142.55 149.79 142.34 C 148.79 142.14 147.82 142.78 147.61 143.78 Z M 147.46 144.57 L 147.18 145.52 C 146.89 146.49 147.44 147.52 148.42 147.81 C 149.40 148.10 150.42 147.54 150.71 146.57 L 150.99 145.62 C 151.28 144.64 150.73 143.62 149.75 143.33 C 148.77 143.04 147.75 143.59 147.46 144.57 Z M 147.23 145.36 L 146.87 146.28 C 146.49 147.22 146.96 148.29 147.90 148.67 C 148.85 149.04 149.92 148.58 150.29 147.64 L 150.66 146.72 C 151.03 145.77 150.57 144.70 149.62 144.33 C 148.68 143.95 147.61 144.42 147.23 145.36 Z M 146.94 146.13 L 146.49 147.02 C 146.03 147.93 146.40 149.03 147.31 149.49 C 148.21 149.95 149.32 149.58 149.78 148.67 L 150.22 147.79 C 150.68 146.88 150.32 145.77 149.41 145.32 C 148.50 144.86 147.39 145.22 146.94 146.13 Z M 146.57 146.88 L 146.04 147.74 C 145.50 148.60 145.77 149.73 146.63 150.27 C 147.50 150.80 148.63 150.54 149.16 149.67 L 149.70 148.81 C 150.23 147.95 149.96 146.82 149.10 146.28 C 148.24 145.75 147.10 146.02 146.57 146.88 Z M 146.13 147.61 L 145.52 148.43 C 144.92 149.24 145.08 150.39 145.90 151.00 C 146.71 151.60 147.86 151.43 148.47 150.62 L 149.08 149.80 C 149.68 148.99 149.51 147.84 148.70 147.23 C 147.88 146.63 146.73 146.80 146.13 147.61 Z M 145.62 148.32 L 144.97 149.06 C 144.30 149.82 144.37 150.98 145.13 151.64 C 145.90 152.31 147.05 152.24 147.72 151.47 L 148.37 150.73 C 149.04 149.97 148.96 148.81 148.20 148.15 C 147.44 147.48 146.28 147.56 145.62 148.32 Z M 145.07 148.95 L 144.35 149.65 C 143.63 150.35 143.61 151.51 144.31 152.23 C 145.01 152.96 146.17 152.98 146.90 152.27 L 147.61 151.58 C 148.34 150.88 148.36 149.72 147.66 148.99 C 146.95 148.27 145.80 148.25 145.07 148.95 Z M 144.48 149.55 L 143.70 150.18 C 142.91 150.82 142.80 151.96 143.43 152.75 C 144.07 153.53 145.21 153.64 146.00 153.01 L 146.78 152.38 C 147.56 151.74 147.67 150.59 147.04 149.81 C 146.40 149.03 145.26 148.91 144.48 149.55 Z M 143.84 150.08 L 143.00 150.64 C 142.16 151.20 141.94 152.33 142.50 153.16 C 143.05 154.00 144.18 154.22 145.02 153.67 L 145.85 153.11 C 146.69 152.55 146.91 151.42 146.36 150.59 C 145.80 149.75 144.67 149.53 143.84 150.08 Z M 143.16 150.55 L 142.28 151.02 C 141.39 151.48 141.05 152.58 141.52 153.47 C 141.98 154.35 143.08 154.69 143.97 154.23 L 144.85 153.76 C 145.74 153.29 146.08 152.19 145.61 151.31 C 145.15 150.42 144.05 150.08 143.16 150.55 Z M 142.47 150.93 L 141.50 151.31 C 140.57 151.67 140.11 152.71 140.47 153.65 C 140.82 154.58 141.87 155.04 142.80 154.68 L 143.77 154.31 C 144.70 153.95 145.17 152.90 144.81 151.97 C 144.45 151.04 143.40 150.58 142.47 150.93 Z M 141.73 151.24 L 140.72 151.49 C 139.75 151.72 139.15 152.69 139.39 153.66 C 139.62 154.63 140.59 155.22 141.56 154.99 L 142.57 154.75 C 143.54 154.52 144.14 153.54 143.90 152.58 C 143.67 151.61 142.70 151.01 141.73 151.24 Z M 140.99 151.45 L 139.98 151.53 C 139.00 151.61 138.26 152.48 138.34 153.47 C 138.42 154.46 139.29 155.19 140.28 155.11 L 141.28 155.03 C 142.27 154.95 143.01 154.08 142.93 153.09 C 142.85 152.10 141.98 151.37 140.99 151.45 Z M 140.32 151.54 L 139.35 151.44 C 138.37 151.34 137.49 152.05 137.38 153.03 C 137.28 154.02 137.99 154.90 138.98 155.00 L 139.94 155.10 C 140.93 155.20 141.81 154.49 141.91 153.51 C 142.01 152.52 141.30 151.64 140.32 151.54 Z M 139.74 151.53 L 138.85 151.23 C 137.92 150.91 136.90 151.40 136.58 152.33 C 136.26 153.27 136.76 154.28 137.69 154.60 L 138.59 154.91 C 139.52 155.23 140.53 154.73 140.85 153.80 C 141.17 152.87 140.67 151.85 139.74 151.53 Z M 139.25 151.43 L 138.52 150.94 C 137.70 150.40 136.59 150.62 136.05 151.44 C 135.51 152.26 135.73 153.36 136.55 153.91 L 137.29 154.40 C 138.11 154.94 139.21 154.71 139.75 153.90 C 140.30 153.08 140.07 151.97 139.25 151.43 Z M 138.83 151.20 L 138.23 150.58 C 137.56 149.86 136.44 149.83 135.72 150.51 C 135.01 151.18 134.98 152.30 135.65 153.02 L 136.24 153.64 C 136.91 154.36 138.04 154.39 138.75 153.72 C 139.47 153.04 139.50 151.92 138.83 151.20 Z M 138.43 150.82 L 137.92 150.05 C 137.38 149.23 136.28 149.00 135.46 149.54 C 134.64 150.08 134.41 151.18 134.95 152.00 L 135.46 152.77 C 136.00 153.59 137.10 153.82 137.92 153.28 C 138.74 152.74 138.97 151.64 138.43 150.82 Z M 138.04 150.26 L 137.60 149.36 C 137.18 148.47 136.12 148.10 135.23 148.52 C 134.35 148.95 133.98 150.01 134.40 150.89 L 134.83 151.79 C 135.26 152.68 136.32 153.05 137.20 152.63 C 138.09 152.20 138.46 151.14 138.04 150.26 Z M 137.67 149.52 L 137.31 148.52 C 136.98 147.59 135.96 147.11 135.04 147.45 C 134.12 147.78 133.64 148.80 133.97 149.72 L 134.33 150.73 C 134.66 151.65 135.68 152.13 136.60 151.80 C 137.53 151.46 138.01 150.45 137.67 149.52 Z M 137.35 148.65 L 137.06 147.56 C 136.80 146.61 135.82 146.05 134.88 146.31 C 133.93 146.57 133.37 147.55 133.63 148.49 L 133.93 149.58 C 134.18 150.53 135.16 151.09 136.11 150.83 C 137.05 150.57 137.61 149.60 137.35 148.65 Z M 137.08 147.66 L 136.86 146.61 C 136.66 145.65 135.72 145.03 134.76 145.23 C 133.80 145.44 133.18 146.38 133.38 147.34 L 133.60 148.39 C 133.80 149.35 134.75 149.97 135.71 149.77 C 136.67 149.57 137.28 148.62 137.08 147.66 Z M 136.88 146.69 L 136.72 145.70 C 136.56 144.73 135.65 144.08 134.68 144.23 C 133.71 144.39 133.05 145.30 133.21 146.27 L 133.37 147.26 C 133.53 148.23 134.44 148.89 135.41 148.73 C 136.38 148.57 137.04 147.66 136.88 146.69 Z M 136.73 145.77 L 136.61 144.76 C 136.49 143.79 135.60 143.10 134.63 143.21 C 133.65 143.33 132.96 144.22 133.08 145.20 L 133.20 146.20 C 133.32 147.18 134.20 147.87 135.18 147.75 C 136.15 147.63 136.85 146.75 136.73 145.77 Z M 136.61 144.83 L 136.53 143.81 C 136.44 142.83 135.58 142.11 134.60 142.19 C 133.62 142.27 132.90 143.13 132.98 144.11 L 133.07 145.13 C 133.15 146.11 134.01 146.84 134.99 146.75 C 135.97 146.67 136.70 145.81 136.61 144.83 Z M 136.53 143.87 L 136.48 142.86 C 136.43 141.87 135.59 141.12 134.61 141.17 C 133.63 141.22 132.87 142.05 132.92 143.04 L 132.98 144.05 C 133.02 145.03 133.86 145.79 134.84 145.74 C 135.83 145.69 136.58 144.85 136.53 143.87 Z M 136.48 142.92 L 136.47 141.91 C 136.45 140.93 135.64 140.14 134.66 140.16 C 133.67 140.17 132.89 140.99 132.90 141.97 L 132.92 142.97 C 132.94 143.96 133.75 144.74 134.73 144.73 C 135.72 144.71 136.50 143.90 136.48 142.92 Z M 136.47 141.97 L 136.49 140.99 C 136.50 140.00 135.72 139.19 134.74 139.17 C 133.75 139.16 132.94 139.94 132.92 140.92 L 132.90 141.91 C 132.89 142.89 133.67 143.71 134.65 143.72 C 135.64 143.74 136.45 142.96 136.47 141.97 Z M 136.49 141.05 L 136.54 140.07 C 136.59 139.08 135.84 138.24 134.86 138.19 C 133.87 138.13 133.03 138.88 132.98 139.87 L 132.92 140.86 C 132.87 141.84 133.62 142.68 134.61 142.74 C 135.59 142.79 136.43 142.04 136.49 141.05 Z M 136.54 140.15 L 136.64 139.07 C 136.74 138.09 136.03 137.21 135.04 137.11 C 134.06 137.01 133.19 137.73 133.09 138.71 L 132.98 139.79 C 132.88 140.77 133.60 141.65 134.58 141.75 C 135.56 141.84 136.44 141.13 136.54 140.15 Z M 136.64 139.17 L 136.80 138.15 C 136.95 137.17 136.28 136.25 135.31 136.10 C 134.33 135.95 133.41 136.61 133.26 137.59 L 133.10 138.61 C 132.94 139.59 133.61 140.51 134.59 140.66 C 135.56 140.82 136.48 140.15 136.64 139.17 Z M 136.78 138.26 L 137.00 137.29 C 137.21 136.33 136.61 135.37 135.64 135.15 C 134.67 134.93 133.71 135.54 133.49 136.50 L 133.28 137.48 C 133.06 138.44 133.66 139.40 134.63 139.62 C 135.60 139.84 136.56 139.23 136.78 138.26 Z M 136.97 137.42 L 137.25 136.50 C 137.54 135.55 137.00 134.54 136.05 134.25 C 135.10 133.96 134.09 134.50 133.81 135.45 L 133.52 136.38 C 133.23 137.33 133.77 138.33 134.72 138.62 C 135.67 138.91 136.68 138.37 136.97 137.42 Z M 137.20 136.64 L 137.55 135.76 C 137.92 134.83 137.46 133.78 136.54 133.42 C 135.61 133.05 134.56 133.50 134.20 134.43 L 133.85 135.31 C 133.48 136.24 133.94 137.29 134.86 137.65 C 135.79 138.02 136.84 137.56 137.20 136.64 Z M 137.49 135.90 L 137.92 135.05 C 138.36 134.16 138.00 133.07 137.11 132.63 C 136.21 132.18 135.13 132.54 134.68 133.44 L 134.26 134.29 C 133.81 135.18 134.17 136.26 135.07 136.71 C 135.96 137.16 137.05 136.79 137.49 135.90 Z M 137.84 135.20 L 138.37 134.35 C 138.90 133.50 138.63 132.38 137.78 131.85 C 136.93 131.33 135.82 131.59 135.29 132.44 L 134.76 133.29 C 134.23 134.14 134.49 135.26 135.34 135.78 C 136.19 136.31 137.31 136.05 137.84 135.20 Z M 138.27 134.49 L 138.88 133.69 C 139.49 132.90 139.34 131.76 138.54 131.15 C 137.74 130.54 136.60 130.69 135.99 131.49 L 135.38 132.29 C 134.77 133.09 134.93 134.23 135.73 134.84 C 136.53 135.45 137.67 135.29 138.27 134.49 Z M 138.77 133.83 L 139.45 133.10 C 140.14 132.36 140.10 131.21 139.36 130.52 C 138.62 129.84 137.47 129.88 136.78 130.62 L 136.10 131.35 C 135.41 132.09 135.46 133.25 136.20 133.93 C 136.93 134.62 138.09 134.57 138.77 133.83 Z M 139.33 133.23 L 140.08 132.57 C 140.83 131.90 140.91 130.75 140.24 129.99 C 139.57 129.23 138.42 129.16 137.66 129.83 L 136.91 130.49 C 136.15 131.15 136.08 132.31 136.74 133.07 C 137.41 133.83 138.57 133.90 139.33 133.23 Z M 139.93 132.70 L 140.74 132.12 C 141.57 131.54 141.76 130.40 141.18 129.57 C 140.59 128.74 139.45 128.54 138.62 129.13 L 137.81 129.70 C 136.98 130.28 136.78 131.43 137.37 132.26 C 137.95 133.08 139.10 133.28 139.93 132.70 Z M 140.56 132.24 L 141.46 131.75 C 142.35 131.27 142.68 130.15 142.19 129.26 C 141.71 128.37 140.59 128.04 139.70 128.52 L 138.80 129.01 C 137.91 129.50 137.58 130.61 138.06 131.51 C 138.55 132.40 139.67 132.73 140.56 132.24 Z M 141.25 131.86 L 142.24 131.47 C 143.19 131.10 143.66 130.03 143.29 129.08 C 142.92 128.13 141.85 127.66 140.90 128.03 L 139.90 128.42 C 138.95 128.79 138.48 129.86 138.85 130.81 C 139.23 131.76 140.30 132.23 141.25 131.86 Z M 142.00 131.55 L 143.01 131.31 C 144.01 131.07 144.62 130.07 144.38 129.07 C 144.14 128.08 143.14 127.46 142.15 127.70 L 141.13 127.95 C 140.14 128.19 139.53 129.19 139.77 130.18 C 140.01 131.18 141.01 131.79 142.00 131.55 Z M 142.74 131.36 L 143.73 131.28 C 144.76 131.19 145.52 130.29 145.43 129.27 C 145.34 128.24 144.44 127.48 143.42 127.57 L 142.42 127.65 C 141.40 127.74 140.64 128.64 140.72 129.66 C 140.81 130.69 141.71 131.45 142.74 131.36 Z M 143.40 131.28 L 144.34 131.37 C 145.37 131.47 146.28 130.72 146.38 129.69 C 146.48 128.66 145.72 127.75 144.70 127.65 L 143.75 127.56 C 142.72 127.47 141.81 128.22 141.71 129.25 C 141.62 130.27 142.37 131.19 143.40 131.28 Z M 143.94 131.30 L 144.80 131.58 C 145.79 131.90 146.84 131.36 147.16 130.37 C 147.48 129.39 146.94 128.33 145.96 128.01 L 145.10 127.73 C 144.11 127.41 143.05 127.95 142.73 128.93 C 142.41 129.92 142.95 130.98 143.94 131.30 Z M 144.36 131.37 L 145.16 131.88 C 146.03 132.44 147.19 132.19 147.75 131.32 C 148.32 130.44 148.06 129.28 147.19 128.72 L 146.40 128.21 C 145.52 127.65 144.36 127.90 143.80 128.78 C 143.24 129.65 143.49 130.81 144.36 131.37 Z M 144.82 131.61 L 145.49 132.30 C 146.21 133.05 147.40 133.07 148.15 132.35 C 148.90 131.63 148.92 130.44 148.20 129.69 L 147.53 128.99 C 146.80 128.25 145.61 128.23 144.87 128.95 C 144.12 129.67 144.10 130.86 144.82 131.61 Z M 145.27 132.04 L 145.83 132.87 C 146.40 133.74 147.57 133.97 148.44 133.40 C 149.31 132.82 149.54 131.65 148.96 130.78 L 148.41 129.95 C 147.83 129.09 146.66 128.85 145.80 129.43 C 144.93 130.00 144.70 131.17 145.27 132.04 Z M 145.70 132.65 L 146.15 133.58 C 146.60 134.52 147.73 134.91 148.66 134.46 C 149.60 134.00 150.00 132.88 149.54 131.94 L 149.09 131.01 C 148.64 130.07 147.51 129.68 146.58 130.13 C 145.64 130.58 145.25 131.71 145.70 132.65 Z M 146.07 133.40 L 146.42 134.38 C 146.77 135.36 147.85 135.87 148.83 135.51 C 149.81 135.16 150.32 134.08 149.97 133.10 L 149.62 132.12 C 149.27 131.14 148.19 130.63 147.21 130.98 C 146.23 131.33 145.72 132.41 146.07 133.40 Z M 146.37 134.23 L 146.63 135.20 C 146.90 136.21 147.94 136.81 148.94 136.54 C 149.95 136.27 150.55 135.24 150.28 134.23 L 150.02 133.25 C 149.75 132.25 148.72 131.65 147.71 131.92 C 146.70 132.18 146.10 133.22 146.37 134.23 Z M 146.60 135.07 L 146.79 136.05 C 146.99 137.08 147.98 137.75 149.00 137.55 C 150.03 137.35 150.70 136.36 150.50 135.34 L 150.31 134.36 C 150.11 133.33 149.12 132.66 148.10 132.86 C 147.08 133.06 146.41 134.05 146.60 135.07 Z M 146.78 135.95 L 146.91 136.93 C 147.05 137.97 147.99 138.69 149.03 138.56 C 150.06 138.42 150.79 137.47 150.65 136.44 L 150.52 135.45 C 150.38 134.42 149.43 133.69 148.40 133.83 C 147.36 133.96 146.64 134.91 146.78 135.95 Z M 146.90 136.85 L 146.99 137.84 C 147.08 138.88 147.99 139.65 149.03 139.56 C 150.07 139.47 150.84 138.55 150.75 137.51 L 150.66 136.52 C 150.57 135.48 149.65 134.71 148.61 134.81 C 147.57 134.90 146.81 135.81 146.90 136.85 Z M 146.98 137.78 L 147.04 138.78 C 147.10 139.82 147.99 140.61 149.03 140.55 C 150.07 140.50 150.86 139.61 150.81 138.56 L 150.75 137.57 C 150.69 136.53 149.80 135.73 148.76 135.79 C 147.72 135.85 146.92 136.74 146.98 137.78 Z M 147.04 138.74 L 147.07 139.72 C 147.11 140.76 147.98 141.57 149.02 141.54 C 150.06 141.50 150.88 140.62 150.84 139.58 L 150.81 138.60 C 150.77 137.56 149.89 136.75 148.85 136.79 C 147.81 136.82 147.00 137.70 147.04 138.74 Z M 147.07 139.68 L 147.09 140.66 C 147.10 141.70 147.96 142.53 149.00 142.52 C 150.04 142.50 150.87 141.65 150.85 140.61 L 150.84 139.62 C 150.83 138.58 149.97 137.75 148.93 137.77 C 147.89 137.78 147.06 138.64 147.07 139.68 Z M 147.09 140.61 L 147.08 141.60 C 147.07 142.64 147.90 143.49 148.94 143.51 C 149.98 143.52 150.83 142.68 150.84 141.65 L 150.85 140.65 C 150.86 139.61 150.03 138.76 148.99 138.75 C 147.95 138.74 147.10 139.57 147.09 140.61 Z M 147.08 141.55 L 147.04 142.55 C 147.00 143.59 147.80 144.47 148.84 144.51 C 149.88 144.55 150.75 143.74 150.80 142.71 L 150.84 141.70 C 150.88 140.66 150.07 139.79 149.04 139.75 C 148.00 139.70 147.12 140.51 147.08 141.55 Z M 147.05 142.49 L 146.97 143.51 C 146.89 144.55 147.67 145.45 148.70 145.53 C 149.74 145.60 150.64 144.83 150.71 143.79 L 150.79 142.77 C 150.87 141.74 150.09 140.83 149.06 140.76 C 148.02 140.68 147.12 141.46 147.05 142.49 Z M 146.98 143.45 L 146.87 144.43 C 146.75 145.46 147.49 146.39 148.52 146.51 C 149.55 146.62 150.48 145.88 150.59 144.85 L 150.70 143.86 C 150.82 142.83 150.08 141.91 149.05 141.79 C 148.02 141.68 147.09 142.42 146.98 143.45 Z M 146.89 144.32 L 146.72 145.29 C 146.54 146.31 147.23 147.28 148.24 147.46 C 149.26 147.63 150.23 146.95 150.41 145.93 L 150.58 144.96 C 150.75 143.94 150.07 142.97 149.05 142.80 C 148.03 142.62 147.06 143.30 146.89 144.32 Z M 146.76 145.12 L 146.50 146.07 C 146.23 147.07 146.82 148.10 147.81 148.37 C 148.81 148.64 149.83 148.05 150.11 147.06 L 150.37 146.11 C 150.64 145.11 150.05 144.08 149.05 143.81 C 148.06 143.54 147.03 144.13 146.76 145.12 Z M 146.59 145.84 L 146.20 146.75 C 145.80 147.69 146.24 148.79 147.19 149.19 C 148.14 149.59 149.24 149.15 149.64 148.20 L 150.02 147.29 C 150.42 146.34 149.98 145.25 149.03 144.85 C 148.08 144.45 146.99 144.89 146.59 145.84 Z M 146.35 146.46 L 145.81 147.30 C 145.26 148.17 145.51 149.32 146.37 149.88 C 147.23 150.43 148.39 150.18 148.94 149.32 L 149.48 148.48 C 150.04 147.62 149.79 146.46 148.93 145.91 C 148.06 145.35 146.91 145.60 146.35 146.46 Z M 146.05 147.01 L 145.33 147.75 C 144.61 148.49 144.63 149.66 145.36 150.38 C 146.10 151.10 147.27 151.08 147.99 150.35 L 148.71 149.61 C 149.43 148.87 149.41 147.70 148.68 146.98 C 147.94 146.26 146.76 146.28 146.05 147.01 Z M 145.60 147.53 L 144.77 148.11 C 143.92 148.69 143.72 149.85 144.30 150.69 C 144.89 151.53 146.05 151.74 146.89 151.15 L 147.72 150.57 C 148.56 149.99 148.77 148.83 148.18 147.99 C 147.59 147.15 146.44 146.94 145.60 147.53 Z M 145.01 147.96 L 144.06 148.43 C 143.14 148.88 142.76 150.00 143.21 150.91 C 143.67 151.83 144.78 152.21 145.70 151.76 L 146.65 151.29 C 147.57 150.84 147.94 149.73 147.49 148.81 C 147.04 147.89 145.93 147.51 145.01 147.96 Z M 144.30 148.34 L 143.29 148.67 C 142.32 148.99 141.79 150.04 142.11 151.01 C 142.44 151.98 143.48 152.51 144.46 152.19 L 145.46 151.86 C 146.44 151.53 146.96 150.48 146.64 149.51 C 146.32 148.54 145.27 148.01 144.30 148.34 Z M 143.54 148.60 L 142.53 148.79 C 141.53 148.97 140.86 149.93 141.04 150.94 C 141.22 151.95 142.19 152.62 143.19 152.44 L 144.20 152.25 C 145.21 152.07 145.88 151.11 145.70 150.10 C 145.52 149.09 144.55 148.42 143.54 148.60 Z M 142.84 148.76 L 141.88 148.77 C 140.86 148.78 140.04 149.63 140.05 150.65 C 140.07 151.67 140.91 152.49 141.93 152.48 L 142.89 152.46 C 143.91 152.45 144.73 151.61 144.72 150.59 C 144.70 149.56 143.86 148.75 142.84 148.76 Z M 142.28 148.81 L 141.43 148.63 C 140.43 148.43 139.45 149.07 139.25 150.07 C 139.04 151.07 139.68 152.05 140.68 152.26 L 141.53 152.44 C 142.53 152.65 143.51 152.00 143.72 151.00 C 143.93 150.00 143.28 149.02 142.28 148.81 Z M 141.97 148.84 L 141.20 148.40 C 140.31 147.90 139.18 148.21 138.68 149.10 C 138.18 150.00 138.49 151.12 139.38 151.63 L 140.15 152.06 C 141.04 152.56 142.17 152.25 142.67 151.36 C 143.17 150.47 142.86 149.34 141.97 148.84 Z M 141.68 148.78 L 141.09 148.13 C 140.41 147.36 139.24 147.29 138.48 147.97 C 137.71 148.65 137.64 149.83 138.32 150.59 L 138.91 151.25 C 139.59 152.01 140.76 152.08 141.52 151.40 C 142.29 150.72 142.36 149.55 141.68 148.78 Z M 141.36 148.51 L 140.92 147.67 C 140.46 146.76 139.34 146.40 138.43 146.87 C 137.52 147.33 137.16 148.45 137.63 149.36 L 138.06 150.20 C 138.53 151.11 139.64 151.47 140.55 151.01 C 141.46 150.54 141.82 149.42 141.36 148.51 Z M 141.04 147.97 L 140.74 146.98 C 140.43 146.00 139.40 145.46 138.42 145.76 C 137.44 146.06 136.90 147.10 137.20 148.08 L 137.51 149.06 C 137.81 150.04 138.85 150.59 139.82 150.28 C 140.80 149.98 141.35 148.94 141.04 147.97 Z M 140.79 147.18 L 140.58 146.08 C 140.38 145.08 139.41 144.42 138.41 144.62 C 137.40 144.81 136.75 145.78 136.94 146.79 L 137.15 147.88 C 137.34 148.88 138.31 149.54 139.32 149.35 C 140.32 149.15 140.98 148.18 140.79 147.18 Z M 140.59 146.20 L 140.46 145.14 C 140.33 144.12 139.41 143.40 138.39 143.53 C 137.38 143.66 136.66 144.58 136.79 145.60 L 136.92 146.67 C 137.05 147.68 137.97 148.40 138.99 148.27 C 140.00 148.14 140.72 147.22 140.59 146.20 Z M 140.47 145.21 L 140.39 144.23 C 140.30 143.21 139.41 142.45 138.39 142.53 C 137.37 142.62 136.61 143.51 136.70 144.53 L 136.78 145.52 C 136.86 146.54 137.76 147.30 138.78 147.21 C 139.79 147.13 140.55 146.23 140.47 145.21 Z M 140.39 144.30 L 140.35 143.30 C 140.31 142.28 139.44 141.48 138.42 141.53 C 137.40 141.57 136.61 142.43 136.65 143.45 L 136.69 144.46 C 136.73 145.48 137.60 146.27 138.62 146.23 C 139.64 146.19 140.44 145.32 140.39 144.30 Z M 140.35 143.38 L 140.35 142.37 C 140.35 141.34 139.52 140.51 138.50 140.51 C 137.48 140.51 136.65 141.34 136.65 142.36 L 136.65 143.38 C 136.65 144.40 137.48 145.23 138.50 145.23 C 139.52 145.23 140.35 144.40 140.35 143.38 Z M 140.35 142.45 L 140.40 141.44 C 140.44 140.42 139.65 139.55 138.63 139.50 C 137.61 139.46 136.74 140.25 136.70 141.27 L 136.65 142.28 C 136.60 143.30 137.39 144.17 138.42 144.22 C 139.44 144.26 140.30 143.47 140.35 142.45 Z M 140.39 141.53 L 140.48 140.53 C 140.58 139.51 139.83 138.61 138.81 138.51 C 137.80 138.41 136.89 139.16 136.80 140.18 L 136.70 141.18 C 136.61 142.20 137.35 143.10 138.37 143.20 C 139.39 143.30 140.29 142.55 140.39 141.53 Z M 140.47 140.63 L 140.62 139.65 C 140.77 138.63 140.07 137.69 139.06 137.54 C 138.05 137.39 137.10 138.09 136.95 139.10 L 136.81 140.08 C 136.66 141.10 137.36 142.04 138.37 142.19 C 139.38 142.34 140.32 141.64 140.47 140.63 Z M 140.60 139.76 L 140.82 138.71 C 141.04 137.71 140.40 136.72 139.40 136.51 C 138.40 136.30 137.41 136.94 137.20 137.94 L 136.97 138.99 C 136.76 139.99 137.40 140.97 138.40 141.19 C 139.40 141.40 140.39 140.76 140.60 139.76 Z M 140.79 138.85 L 141.09 137.83 C 141.38 136.84 140.82 135.81 139.84 135.52 C 138.85 135.23 137.82 135.79 137.53 136.78 L 137.23 137.80 C 136.94 138.78 137.50 139.82 138.49 140.11 C 139.47 140.39 140.50 139.83 140.79 138.85 Z M 141.04 137.98 L 141.42 137.03 C 141.80 136.07 141.33 134.99 140.37 134.62 C 139.42 134.24 138.34 134.71 137.96 135.66 L 137.58 136.62 C 137.20 137.57 137.67 138.65 138.63 139.03 C 139.58 139.41 140.66 138.94 141.04 137.98 Z M 141.34 137.21 L 141.79 136.34 C 142.27 135.43 141.92 134.30 141.01 133.82 C 140.10 133.35 138.97 133.70 138.49 134.61 L 138.04 135.48 C 137.56 136.39 137.91 137.52 138.82 138.00 C 139.73 138.47 140.86 138.12 141.34 137.21 Z M 141.67 136.54 L 142.21 135.77 C 142.80 134.93 142.60 133.77 141.75 133.17 C 140.91 132.58 139.74 132.79 139.15 133.63 L 138.61 134.41 C 138.02 135.25 138.23 136.41 139.07 137.00 C 139.92 137.60 141.08 137.39 141.67 136.54 Z M 142.04 136.00 L 142.66 135.34 C 143.37 134.59 143.35 133.41 142.60 132.70 C 141.85 131.98 140.67 132.01 139.96 132.76 L 139.33 133.41 C 138.62 134.16 138.65 135.34 139.39 136.06 C 140.14 136.77 141.32 136.74 142.04 136.00 Z M 142.39 135.58 L 143.26 134.97 C 144.10 134.37 144.30 133.20 143.70 132.35 C 143.10 131.51 141.93 131.31 141.09 131.91 L 140.23 132.52 C 139.38 133.12 139.18 134.29 139.78 135.13 C 140.38 135.98 141.55 136.18 142.39 135.58 Z M 142.91 135.17 L 143.86 134.76 C 144.82 134.36 145.26 133.25 144.86 132.30 C 144.45 131.34 143.35 130.90 142.40 131.30 L 141.44 131.71 C 140.49 132.11 140.04 133.22 140.45 134.17 C 140.85 135.12 141.95 135.57 142.91 135.17 Z M 143.45 134.89 L 144.43 134.71 C 145.45 134.54 146.14 133.56 145.96 132.54 C 145.78 131.52 144.81 130.83 143.78 131.01 L 142.81 131.18 C 141.78 131.36 141.10 132.33 141.28 133.35 C 141.45 134.38 142.43 135.06 143.45 134.89 Z M 143.94 134.74 L 144.89 134.82 C 145.92 134.91 146.84 134.15 146.93 133.11 C 147.02 132.07 146.25 131.16 145.21 131.07 L 144.27 130.98 C 143.23 130.89 142.32 131.66 142.23 132.70 C 142.14 133.73 142.91 134.65 143.94 134.74 Z M 144.33 134.69 L 145.17 135.04 C 146.14 135.44 147.24 134.98 147.64 134.01 C 148.04 133.05 147.58 131.95 146.62 131.55 L 145.77 131.20 C 144.81 130.80 143.70 131.26 143.30 132.22 C 142.91 133.19 143.36 134.29 144.33 134.69 Z M 144.67 134.73 L 145.34 135.31 C 146.14 135.98 147.33 135.88 148.01 135.09 C 148.68 134.29 148.59 133.10 147.79 132.42 L 147.12 131.85 C 146.32 131.18 145.13 131.27 144.45 132.07 C 143.78 132.87 143.87 134.06 144.67 134.73 Z M 145.04 134.98 L 145.60 135.75 C 146.22 136.59 147.40 136.77 148.24 136.15 C 149.09 135.54 149.27 134.35 148.65 133.51 L 148.09 132.75 C 147.48 131.90 146.29 131.72 145.45 132.34 C 144.61 132.96 144.42 134.14 145.04 134.98 Z M 145.44 135.48 L 145.89 136.38 C 146.36 137.32 147.50 137.69 148.43 137.23 C 149.36 136.76 149.74 135.62 149.27 134.69 L 148.82 133.78 C 148.35 132.85 147.21 132.47 146.28 132.94 C 145.34 133.41 144.97 134.54 145.44 135.48 Z M 145.80 136.18 L 146.16 137.18 C 146.52 138.16 147.60 138.67 148.59 138.32 C 149.57 137.96 150.08 136.88 149.72 135.89 L 149.36 134.89 C 149.01 133.91 147.92 133.40 146.94 133.76 C 145.96 134.11 145.45 135.20 145.80 136.18 Z M 146.12 137.02 L 146.39 138.06 C 146.66 139.07 147.69 139.68 148.70 139.41 C 149.71 139.14 150.31 138.11 150.05 137.10 L 149.77 136.05 C 149.50 135.04 148.47 134.44 147.46 134.71 C 146.45 134.98 145.85 136.01 146.12 137.02 Z M 146.36 137.93 L 146.56 138.97 C 146.76 139.99 147.74 140.67 148.77 140.47 C 149.80 140.27 150.47 139.28 150.27 138.26 L 150.08 137.23 C 149.88 136.20 148.89 135.53 147.87 135.72 C 146.84 135.92 146.17 136.91 146.36 137.93 Z M 146.54 138.82 L 146.65 139.84 C 146.77 140.88 147.70 141.62 148.74 141.51 C 149.77 141.39 150.52 140.46 150.41 139.42 L 150.29 138.40 C 150.18 137.37 149.24 136.62 148.21 136.74 C 147.17 136.85 146.42 137.78 146.54 138.82 Z M 146.64 139.67 L 146.66 140.66 C 146.68 141.71 147.54 142.53 148.58 142.52 C 149.62 142.50 150.45 141.64 150.43 140.59 L 150.42 139.60 C 150.40 138.55 149.54 137.73 148.49 137.74 C 147.45 137.76 146.62 138.62 146.64 139.67 Z M 146.67 140.46 L 146.58 141.43 C 146.49 142.47 147.25 143.38 148.29 143.48 C 149.33 143.57 150.25 142.81 150.34 141.77 L 150.43 140.80 C 150.52 139.76 149.75 138.84 148.72 138.75 C 147.68 138.66 146.76 139.42 146.67 140.46 Z M 146.62 141.20 L 146.42 142.14 C 146.19 143.15 146.84 144.16 147.86 144.38 C 148.87 144.60 149.88 143.96 150.10 142.94 L 150.30 142.00 C 150.52 140.98 149.88 139.98 148.86 139.76 C 147.84 139.54 146.84 140.18 146.62 141.20 Z M 146.50 141.87 L 146.11 142.89 C 145.75 143.86 146.24 144.94 147.21 145.31 C 148.18 145.68 149.26 145.19 149.63 144.22 L 150.01 143.20 C 150.38 142.23 149.89 141.15 148.92 140.78 C 147.95 140.41 146.87 140.90 146.50 141.87 Z M 146.26 142.60 L 145.71 143.54 C 145.18 144.43 145.48 145.58 146.37 146.10 C 147.26 146.63 148.40 146.33 148.93 145.44 L 149.48 144.51 C 150.00 143.62 149.71 142.47 148.82 141.95 C 147.93 141.42 146.79 141.72 146.26 142.60 Z M 145.95 143.23 L 145.28 143.97 C 144.58 144.72 144.63 145.89 145.38 146.59 C 146.14 147.29 147.31 147.24 148.01 146.48 L 148.68 145.75 C 149.38 145.00 149.33 143.82 148.58 143.13 C 147.82 142.43 146.65 142.48 145.95 143.23 Z M 145.71 143.63 L 144.95 144.08 C 144.07 144.59 143.77 145.72 144.28 146.60 C 144.79 147.48 145.92 147.78 146.80 147.27 L 147.57 146.82 C 148.45 146.31 148.75 145.18 148.23 144.30 C 147.72 143.42 146.59 143.12 145.71 143.63 Z M 145.69 143.85 L 144.89 143.93 C 143.88 144.03 143.15 144.93 143.25 145.94 C 143.35 146.95 144.26 147.68 145.26 147.58 L 146.06 147.50 C 147.07 147.40 147.80 146.49 147.70 145.49 C 147.60 144.48 146.70 143.74 145.69 143.85 Z M 145.68 144.02 L 144.90 143.75 C 143.95 143.42 142.90 143.93 142.57 144.89 C 142.24 145.85 142.75 146.89 143.71 147.22 L 144.48 147.49 C 145.44 147.82 146.48 147.31 146.81 146.35 C 147.14 145.39 146.63 144.35 145.68 144.02 Z M 145.40 144.00 L 144.64 143.45 C 143.82 142.85 142.67 143.02 142.07 143.84 C 141.46 144.66 141.64 145.81 142.46 146.42 L 143.21 146.97 C 144.03 147.57 145.19 147.40 145.79 146.58 C 146.39 145.76 146.22 144.61 145.40 144.00 Z M 144.93 143.71 L 144.23 142.91 C 143.56 142.15 142.39 142.08 141.62 142.76 C 140.86 143.43 140.79 144.60 141.47 145.36 L 142.17 146.16 C 142.84 146.92 144.01 146.99 144.78 146.32 C 145.54 145.64 145.61 144.47 144.93 143.71 Z M 144.42 143.15 L 143.80 142.17 C 143.26 141.31 142.12 141.04 141.25 141.59 C 140.38 142.13 140.12 143.28 140.66 144.15 L 141.28 145.13 C 141.82 145.99 142.97 146.25 143.83 145.71 C 144.70 145.17 144.96 144.02 144.42 143.15 Z M 143.93 142.40 L 143.46 141.36 C 143.04 140.42 141.94 140.00 141.01 140.42 C 140.07 140.85 139.65 141.95 140.07 142.88 L 140.54 143.92 C 140.96 144.86 142.06 145.28 142.99 144.86 C 143.93 144.44 144.35 143.34 143.93 142.40 Z M 143.55 141.57 L 143.23 140.53 C 142.92 139.54 141.88 138.99 140.90 139.29 C 139.91 139.60 139.36 140.64 139.67 141.62 L 139.99 142.67 C 140.29 143.65 141.33 144.20 142.32 143.90 C 143.30 143.60 143.85 142.56 143.55 141.57 Z M 143.28 140.75 L 143.10 139.70 C 142.92 138.68 141.95 138.01 140.93 138.19 C 139.92 138.37 139.24 139.33 139.42 140.35 L 139.61 141.40 C 139.79 142.41 140.76 143.09 141.77 142.91 C 142.79 142.73 143.46 141.76 143.28 140.75 Z M 143.13 139.96 L 143.09 138.96 C 143.06 137.93 142.20 137.12 141.17 137.16 C 140.14 137.19 139.33 138.05 139.36 139.08 L 139.39 140.08 C 139.43 141.11 140.29 141.92 141.32 141.89 C 142.35 141.86 143.16 140.99 143.13 139.96 Z M 143.07 139.31 L 143.22 138.42 C 143.38 137.40 142.68 136.44 141.66 136.28 C 140.64 136.12 139.68 136.82 139.52 137.84 L 139.38 138.73 C 139.22 139.75 139.92 140.71 140.94 140.87 C 141.96 141.03 142.91 140.33 143.07 139.31 Z M 143.07 138.92 L 143.42 138.15 C 143.86 137.21 143.45 136.10 142.52 135.66 C 141.58 135.23 140.47 135.63 140.03 136.57 L 139.67 137.34 C 139.23 138.28 139.64 139.39 140.58 139.83 C 141.51 140.26 142.63 139.86 143.07 138.92 Z M 142.97 138.77 L 143.68 138.14 C 144.45 137.45 144.53 136.27 143.84 135.49 C 143.16 134.72 141.97 134.64 141.20 135.33 L 140.49 135.95 C 139.71 136.64 139.64 137.82 140.32 138.60 C 141.01 139.38 142.19 139.45 142.97 138.77 Z M 142.99 138.52 L 143.90 138.24 C 144.89 137.94 145.45 136.89 145.14 135.90 C 144.83 134.91 143.79 134.35 142.80 134.66 L 141.88 134.94 C 140.89 135.25 140.34 136.30 140.65 137.29 C 140.95 138.27 142.00 138.83 142.99 138.52 Z M 143.23 138.32 L 144.23 138.39 C 145.26 138.46 146.15 137.67 146.22 136.64 C 146.29 135.61 145.51 134.72 144.47 134.65 L 143.47 134.58 C 142.44 134.51 141.55 135.29 141.48 136.33 C 141.41 137.36 142.19 138.25 143.23 138.32 Z M 143.61 138.24 L 144.58 138.65 C 145.53 139.06 146.63 138.62 147.04 137.67 C 147.44 136.72 147.00 135.61 146.05 135.21 L 145.09 134.79 C 144.14 134.39 143.03 134.83 142.63 135.78 C 142.22 136.73 142.66 137.83 143.61 138.24 Z M 144.11 138.37 L 144.79 138.93 C 145.59 139.59 146.77 139.49 147.43 138.69 C 148.09 137.89 147.98 136.71 147.19 136.05 L 146.51 135.49 C 145.72 134.83 144.53 134.94 143.87 135.73 C 143.21 136.53 143.32 137.71 144.11 138.37 Z M 144.52 138.66 L 145.11 139.40 C 145.76 140.21 146.94 140.34 147.75 139.69 C 148.56 139.05 148.69 137.87 148.04 137.06 L 147.45 136.32 C 146.81 135.51 145.63 135.38 144.82 136.03 C 144.01 136.67 143.88 137.85 144.52 138.66 Z M 144.95 139.16 L 145.45 140.04 C 145.97 140.93 147.11 141.24 148.01 140.73 C 148.91 140.21 149.22 139.07 148.70 138.17 L 148.20 137.30 C 147.69 136.40 146.54 136.09 145.64 136.60 C 144.75 137.12 144.44 138.26 144.95 139.16 Z M 145.35 139.83 L 145.77 140.81 C 146.17 141.76 147.27 142.20 148.22 141.80 C 149.18 141.39 149.62 140.29 149.22 139.34 L 148.80 138.37 C 148.40 137.42 147.30 136.97 146.35 137.38 C 145.39 137.78 144.95 138.88 145.35 139.83 Z M 145.70 140.63 L 146.02 141.66 C 146.33 142.65 147.38 143.20 148.37 142.89 C 149.36 142.58 149.91 141.53 149.60 140.54 L 149.28 139.51 C 148.97 138.53 147.92 137.98 146.93 138.28 C 145.94 138.59 145.39 139.64 145.70 140.63 Z M 145.98 141.50 L 146.21 142.56 C 146.43 143.57 147.43 144.21 148.44 143.99 C 149.46 143.77 150.10 142.77 149.88 141.76 L 149.65 140.70 C 149.43 139.69 148.43 139.05 147.41 139.27 C 146.40 139.49 145.76 140.49 145.98 141.50 Z M 146.18 142.39 L 146.31 143.44 C 146.43 144.47 147.37 145.20 148.40 145.08 C 149.43 144.95 150.16 144.01 150.04 142.98 L 149.91 141.93 C 149.78 140.90 148.85 140.17 147.82 140.29 C 146.79 140.42 146.05 141.36 146.18 142.39 Z M 146.29 143.23 L 146.30 144.25 C 146.31 145.29 147.17 146.13 148.21 146.12 C 149.25 146.10 150.08 145.25 150.07 144.21 L 150.06 143.19 C 150.04 142.15 149.19 141.32 148.15 141.33 C 147.11 141.34 146.28 142.19 146.29 143.23 Z M 146.31 144.01 L 146.19 144.98 C 146.07 146.01 146.80 146.95 147.84 147.08 C 148.87 147.20 149.82 146.47 149.94 145.43 L 150.06 144.46 C 150.18 143.42 149.45 142.48 148.41 142.36 C 147.38 142.23 146.44 142.97 146.31 144.01 Z M 146.25 144.68 L 145.99 145.57 C 145.70 146.58 146.28 147.63 147.28 147.92 C 148.28 148.21 149.33 147.63 149.62 146.63 L 149.88 145.73 C 150.17 144.73 149.60 143.68 148.59 143.39 C 147.59 143.09 146.54 143.67 146.25 144.68 Z M 146.13 145.22 L 145.68 146.06 C 145.20 146.99 145.55 148.14 146.48 148.62 C 147.40 149.11 148.55 148.76 149.04 147.83 L 149.48 146.98 C 149.97 146.06 149.62 144.91 148.69 144.42 C 147.76 143.93 146.62 144.29 146.13 145.22 Z M 145.93 145.70 L 145.25 146.47 C 144.57 147.26 144.65 148.46 145.44 149.15 C 146.22 149.84 147.42 149.76 148.11 148.97 L 148.79 148.20 C 149.48 147.41 149.40 146.21 148.61 145.52 C 147.82 144.83 146.62 144.91 145.93 145.70 Z M 145.58 146.18 L 144.76 146.76 C 143.91 147.37 143.71 148.55 144.32 149.41 C 144.92 150.26 146.11 150.46 146.96 149.85 L 147.78 149.27 C 148.64 148.66 148.84 147.47 148.23 146.62 C 147.62 145.77 146.44 145.57 145.58 146.18 Z M 145.15 146.55 L 144.24 146.91 C 143.27 147.30 142.80 148.41 143.19 149.38 C 143.58 150.35 144.68 150.83 145.66 150.43 L 146.57 150.07 C 147.54 149.68 148.01 148.57 147.62 147.60 C 147.23 146.63 146.13 146.15 145.15 146.55 Z M 144.72 146.79 L 143.77 146.91 C 142.73 147.04 141.99 147.98 142.12 149.02 C 142.25 150.07 143.19 150.80 144.24 150.68 L 145.18 150.56 C 146.22 150.43 146.96 149.48 146.83 148.44 C 146.70 147.40 145.76 146.66 144.72 146.79 Z M 144.29 146.91 L 143.47 146.79 C 142.43 146.63 141.46 147.34 141.30 148.37 C 141.14 149.41 141.85 150.38 142.89 150.54 L 143.71 150.67 C 144.75 150.83 145.72 150.12 145.88 149.08 C 146.04 148.04 145.33 147.07 144.29 146.91 Z M 143.96 146.93 L 143.19 146.59 C 142.24 146.16 141.11 146.58 140.68 147.54 C 140.25 148.49 140.67 149.62 141.63 150.05 L 142.39 150.39 C 143.35 150.83 144.47 150.40 144.91 149.44 C 145.34 148.49 144.91 147.36 143.96 146.93 Z M 143.60 146.84 L 142.89 146.27 C 142.07 145.61 140.88 145.74 140.22 146.56 C 139.56 147.37 139.69 148.57 140.51 149.23 L 141.22 149.80 C 142.04 150.46 143.23 150.33 143.89 149.51 C 144.55 148.69 144.42 147.49 143.60 146.84 Z M 143.19 146.56 L 142.54 145.76 C 141.89 144.94 140.69 144.80 139.87 145.45 C 139.05 146.11 138.92 147.30 139.57 148.12 L 140.21 148.93 C 140.87 149.75 142.06 149.89 142.88 149.23 C 143.70 148.58 143.84 147.38 143.19 146.56 Z M 142.73 146.05 L 142.18 145.00 C 141.69 144.07 140.54 143.72 139.61 144.21 C 138.68 144.70 138.33 145.85 138.82 146.78 L 139.38 147.83 C 139.87 148.76 141.02 149.11 141.95 148.62 C 142.87 148.13 143.23 146.98 142.73 146.05 Z M 142.28 145.24 L 141.90 144.18 C 141.54 143.19 140.45 142.68 139.46 143.04 C 138.48 143.40 137.97 144.49 138.33 145.47 L 138.71 146.54 C 139.07 147.52 140.16 148.03 141.15 147.67 C 142.13 147.31 142.64 146.22 142.28 145.24 Z M 141.95 144.34 L 141.70 143.40 C 141.43 142.38 140.39 141.78 139.38 142.04 C 138.36 142.31 137.76 143.35 138.03 144.37 L 138.27 145.31 C 138.54 146.32 139.58 146.93 140.60 146.66 C 141.61 146.39 142.22 145.35 141.95 144.34 Z M 141.73 143.52 L 141.53 142.51 C 141.33 141.48 140.34 140.80 139.30 141.00 C 138.27 141.20 137.60 142.20 137.80 143.23 L 138.00 144.24 C 138.20 145.28 139.20 145.95 140.23 145.75 C 141.26 145.55 141.93 144.55 141.73 143.52 Z M 141.55 142.62 L 141.41 141.57 C 141.28 140.53 140.32 139.79 139.27 139.93 C 138.23 140.07 137.50 141.03 137.64 142.07 L 137.78 143.12 C 137.92 144.17 138.88 144.90 139.92 144.76 C 140.96 144.62 141.69 143.66 141.55 142.62 Z M 141.43 141.68 L 141.35 140.62 C 141.27 139.57 140.35 138.78 139.30 138.86 C 138.25 138.94 137.47 139.85 137.55 140.90 L 137.63 141.96 C 137.70 143.01 138.62 143.80 139.67 143.72 C 140.72 143.64 141.51 142.73 141.43 141.68 Z M 141.35 140.73 L 141.34 139.68 C 141.32 138.63 140.46 137.79 139.40 137.80 C 138.35 137.82 137.51 138.69 137.52 139.74 L 137.54 140.79 C 137.55 141.84 138.42 142.68 139.47 142.67 C 140.53 142.65 141.37 141.78 141.35 140.73 Z M 141.34 139.81 L 141.39 138.81 C 141.45 137.76 140.64 136.86 139.58 136.80 C 138.53 136.75 137.63 137.56 137.58 138.61 L 137.52 139.61 C 137.47 140.67 138.28 141.56 139.33 141.62 C 140.38 141.68 141.28 140.87 141.34 139.81 Z M 141.38 138.97 L 141.50 138.04 C 141.65 136.99 140.91 136.03 139.87 135.89 C 138.82 135.75 137.86 136.48 137.71 137.53 L 137.59 138.46 C 137.45 139.50 138.18 140.46 139.23 140.61 C 140.27 140.75 141.24 140.01 141.38 138.97 Z M 141.46 138.25 L 141.71 137.29 C 141.97 136.27 141.35 135.22 140.33 134.96 C 139.30 134.70 138.26 135.32 138.00 136.34 L 137.76 137.31 C 137.49 138.33 138.11 139.38 139.14 139.64 C 140.16 139.90 141.20 139.28 141.46 138.25 Z M 141.59 137.63 L 142.07 136.59 C 142.52 135.63 142.10 134.49 141.14 134.05 C 140.18 133.60 139.04 134.02 138.60 134.98 L 138.12 136.01 C 137.67 136.97 138.09 138.11 139.05 138.56 C 140.01 139.00 141.15 138.58 141.59 137.63 Z M 141.83 136.99 L 142.46 136.20 C 143.12 135.38 142.99 134.17 142.16 133.51 C 141.34 132.84 140.13 132.98 139.47 133.80 L 138.84 134.59 C 138.17 135.41 138.31 136.62 139.13 137.28 C 139.96 137.95 141.17 137.81 141.83 136.99 Z M 142.12 136.53 L 142.87 135.97 C 143.71 135.33 143.88 134.13 143.24 133.28 C 142.60 132.43 141.39 132.27 140.55 132.91 L 139.80 133.47 C 138.96 134.11 138.79 135.32 139.43 136.16 C 140.07 137.01 141.28 137.18 142.12 136.53 Z M 142.50 136.19 L 143.33 135.82 C 144.30 135.39 144.73 134.25 144.29 133.28 C 143.86 132.31 142.72 131.88 141.75 132.31 L 140.92 132.68 C 139.95 133.12 139.52 134.26 139.95 135.23 C 140.39 136.20 141.53 136.63 142.50 136.19 Z M 142.98 135.94 L 143.87 135.73 C 144.91 135.48 145.55 134.44 145.30 133.41 C 145.06 132.37 144.02 131.73 142.98 131.98 L 142.09 132.19 C 141.06 132.44 140.42 133.48 140.66 134.51 C 140.91 135.55 141.95 136.19 142.98 135.94 Z M 143.56 135.78 L 144.57 135.71 C 145.63 135.64 146.44 134.72 146.36 133.66 C 146.29 132.59 145.37 131.79 144.31 131.86 L 143.30 131.93 C 142.24 132.00 141.43 132.92 141.51 133.98 C 141.58 135.05 142.50 135.85 143.56 135.78 Z M 144.23 135.70 L 145.23 135.81 C 146.29 135.93 147.24 135.17 147.36 134.11 C 147.47 133.05 146.71 132.10 145.65 131.98 L 144.65 131.87 C 143.60 131.75 142.64 132.51 142.52 133.57 C 142.41 134.63 143.17 135.59 144.23 135.70 Z M 144.85 135.73 L 145.79 136.03 C 146.81 136.36 147.89 135.80 148.22 134.78 C 148.54 133.77 147.98 132.68 146.97 132.36 L 146.03 132.06 C 145.01 131.73 143.92 132.29 143.60 133.31 C 143.28 134.33 143.84 135.41 144.85 135.73 Z M 145.40 135.86 L 146.24 136.36 C 147.16 136.90 148.34 136.60 148.88 135.68 C 149.43 134.77 149.13 133.58 148.21 133.04 L 147.37 132.54 C 146.45 131.99 145.27 132.30 144.72 133.21 C 144.18 134.13 144.48 135.31 145.40 135.86 Z M 145.86 136.06 L 146.54 136.75 C 147.29 137.50 148.52 137.50 149.27 136.75 C 150.03 135.99 150.03 134.77 149.27 134.02 L 148.59 133.33 C 147.84 132.58 146.61 132.58 145.86 133.33 C 145.11 134.08 145.10 135.31 145.86 136.06 Z M 146.26 136.40 L 146.76 137.20 C 147.32 138.11 148.51 138.39 149.42 137.83 C 150.33 137.27 150.61 136.08 150.05 135.17 L 149.55 134.37 C 148.99 133.46 147.80 133.18 146.89 133.74 C 145.98 134.30 145.70 135.49 146.26 136.40 Z M 146.60 136.89 L 146.96 137.81 C 147.35 138.80 148.47 139.29 149.47 138.90 C 150.46 138.52 150.95 137.40 150.56 136.40 L 150.20 135.48 C 149.81 134.49 148.69 134.00 147.70 134.39 C 146.71 134.77 146.22 135.89 146.60 136.89 Z M 146.88 137.53 L 147.10 138.53 C 147.34 139.57 148.37 140.22 149.41 139.99 C 150.45 139.76 151.10 138.72 150.87 137.68 L 150.65 136.68 C 150.41 135.64 149.38 134.99 148.34 135.22 C 147.30 135.45 146.65 136.49 146.88 137.53 Z M 147.06 138.27 L 147.15 139.30 C 147.24 140.36 148.17 141.15 149.24 141.06 C 150.30 140.97 151.09 140.04 151.00 138.97 L 150.91 137.94 C 150.82 136.88 149.89 136.09 148.82 136.18 C 147.76 136.27 146.97 137.20 147.06 138.27 Z M 147.15 139.04 L 147.10 140.07 C 147.05 141.14 147.87 142.04 148.93 142.09 C 150.00 142.14 150.90 141.32 150.95 140.26 L 151.00 139.23 C 151.05 138.16 150.23 137.26 149.17 137.21 C 148.10 137.16 147.20 137.98 147.15 139.04 Z M 147.13 139.80 L 146.94 140.82 C 146.74 141.87 147.42 142.88 148.47 143.08 C 149.52 143.27 150.53 142.59 150.73 141.54 L 150.92 140.52 C 151.12 139.48 150.43 138.47 149.39 138.27 C 148.34 138.07 147.33 138.76 147.13 139.80 Z M 147.01 140.55 L 146.68 141.50 C 146.33 142.51 146.87 143.61 147.87 143.96 C 148.88 144.30 149.98 143.77 150.32 142.76 L 150.65 141.81 C 151.00 140.80 150.47 139.71 149.46 139.36 C 148.46 139.01 147.36 139.54 147.01 140.55 Z M 146.79 141.25 L 146.34 142.13 C 145.85 143.07 146.22 144.23 147.16 144.72 C 148.11 145.21 149.27 144.84 149.76 143.90 L 150.21 143.02 C 150.70 142.07 150.33 140.91 149.39 140.42 C 148.44 139.93 147.28 140.30 146.79 141.25 Z M 146.48 141.89 L 145.91 142.69 C 145.29 143.55 145.49 144.75 146.35 145.37 C 147.22 145.99 148.42 145.79 149.04 144.93 L 149.61 144.13 C 150.23 143.27 150.03 142.07 149.17 141.45 C 148.30 140.83 147.10 141.03 146.48 141.89 Z M 146.09 142.47 L 145.41 143.18 C 144.67 143.95 144.69 145.16 145.46 145.90 C 146.22 146.64 147.44 146.62 148.17 145.85 L 148.86 145.14 C 149.60 144.38 149.57 143.16 148.81 142.43 C 148.05 141.69 146.83 141.71 146.09 142.47 Z M 145.65 142.98 L 144.69 143.68 C 143.84 144.32 143.66 145.52 144.29 146.37 C 144.93 147.22 146.13 147.40 146.98 146.77 L 147.93 146.06 C 148.79 145.43 148.96 144.23 148.33 143.37 C 147.70 142.52 146.50 142.34 145.65 142.98 Z M 145.06 143.47 L 144.08 143.91 C 143.12 144.34 142.68 145.47 143.11 146.44 C 143.54 147.41 144.68 147.84 145.64 147.41 L 146.62 146.98 C 147.58 146.55 148.02 145.41 147.59 144.45 C 147.16 143.48 146.02 143.04 145.06 143.47 Z M 144.76 143.75 L 143.90 143.79 C 142.84 143.85 142.03 144.75 142.09 145.81 C 142.15 146.87 143.05 147.68 144.11 147.62 L 144.97 147.57 C 146.02 147.51 146.83 146.61 146.78 145.55 C 146.72 144.50 145.82 143.69 144.76 143.75 Z M 145.12 144.15 L 144.49 143.70 C 143.63 143.09 142.44 143.29 141.82 144.14 C 141.21 145.00 141.41 146.20 142.26 146.81 L 142.89 147.26 C 143.75 147.88 144.94 147.68 145.56 146.82 C 146.17 145.96 145.98 144.77 145.12 144.15 Z M 145.20 144.65 L 144.93 143.85 C 144.59 142.85 143.51 142.30 142.51 142.64 C 141.50 142.97 140.96 144.06 141.29 145.06 L 141.56 145.86 C 141.90 146.87 142.98 147.41 143.98 147.07 C 144.99 146.74 145.53 145.66 145.20 144.65 Z M 145.03 144.39 L 145.00 143.34 C 144.96 142.28 144.08 141.45 143.01 141.49 C 141.95 141.52 141.12 142.41 141.16 143.47 L 141.19 144.52 C 141.22 145.58 142.11 146.41 143.17 146.38 C 144.23 146.34 145.07 145.45 145.03 144.39 Z M 144.98 143.71 L 145.16 142.60 C 145.32 141.55 144.60 140.56 143.55 140.40 C 142.50 140.23 141.51 140.95 141.34 142.00 L 141.17 143.11 C 141.01 144.16 141.73 145.15 142.78 145.31 C 143.83 145.48 144.82 144.76 144.98 143.71 Z M 145.07 142.96 L 145.42 141.99 C 145.79 140.99 145.27 139.87 144.27 139.51 C 143.26 139.14 142.15 139.66 141.78 140.67 L 141.43 141.64 C 141.06 142.65 141.58 143.76 142.59 144.12 C 143.59 144.49 144.70 143.97 145.07 142.96 Z M 145.13 142.53 L 145.66 141.87 C 146.32 141.02 146.18 139.80 145.33 139.14 C 144.49 138.47 143.27 138.62 142.60 139.46 L 142.08 140.13 C 141.41 140.97 141.56 142.19 142.40 142.86 C 143.24 143.52 144.47 143.38 145.13 142.53 Z M 144.65 142.54 L 145.38 142.34 C 146.41 142.05 147.02 140.97 146.73 139.94 C 146.44 138.90 145.36 138.30 144.33 138.59 L 143.60 138.79 C 142.57 139.08 141.96 140.15 142.25 141.19 C 142.54 142.22 143.62 142.83 144.65 142.54 Z M 144.18 142.29 L 144.98 142.58 C 145.99 142.96 147.11 142.44 147.48 141.43 C 147.85 140.43 147.34 139.31 146.33 138.93 L 145.53 138.64 C 144.52 138.26 143.40 138.78 143.03 139.79 C 142.66 140.79 143.17 141.91 144.18 142.29 Z M 144.37 142.21 L 145.17 142.92 C 145.97 143.63 147.20 143.56 147.91 142.75 C 148.62 141.95 148.55 140.72 147.74 140.01 L 146.94 139.30 C 146.14 138.59 144.91 138.67 144.20 139.47 C 143.49 140.27 143.56 141.50 144.37 142.21 Z M 144.86 142.58 L 145.59 143.61 C 146.20 144.49 147.41 144.71 148.29 144.09 C 149.17 143.48 149.38 142.27 148.77 141.39 L 148.05 140.35 C 147.43 139.48 146.22 139.26 145.34 139.88 C 144.46 140.49 144.25 141.70 144.86 142.58 Z M 145.43 143.35 L 145.82 144.15 C 146.29 145.11 147.46 145.51 148.42 145.04 C 149.39 144.57 149.78 143.40 149.31 142.44 L 148.92 141.65 C 148.45 140.68 147.29 140.28 146.32 140.76 C 145.36 141.23 144.96 142.39 145.43 143.35 Z M 145.74 143.98 L 146.07 144.84 C 146.44 145.85 147.57 146.36 148.57 145.98 C 149.58 145.61 150.09 144.48 149.71 143.48 L 149.39 142.61 C 149.01 141.61 147.89 141.10 146.89 141.47 C 145.88 141.85 145.37 142.97 145.74 143.98 Z M 146.02 144.70 L 146.29 145.63 C 146.58 146.67 147.67 147.26 148.70 146.97 C 149.74 146.67 150.33 145.59 150.03 144.55 L 149.76 143.62 C 149.47 142.58 148.38 141.99 147.35 142.28 C 146.31 142.58 145.72 143.66 146.02 144.70 Z M 146.25 145.52 L 146.47 146.51 C 146.71 147.56 147.75 148.23 148.80 147.99 C 149.86 147.76 150.52 146.71 150.29 145.66 L 150.07 144.67 C 149.83 143.61 148.79 142.95 147.73 143.18 C 146.68 143.42 146.02 144.46 146.25 145.52 Z M 146.45 146.41 L 146.63 147.45 C 146.81 148.52 147.82 149.23 148.89 149.05 C 149.95 148.87 150.67 147.86 150.49 146.79 L 150.31 145.75 C 150.13 144.69 149.12 143.97 148.05 144.15 C 146.98 144.34 146.27 145.35 146.45 146.41 Z M 146.61 147.37 L 146.75 148.45 C 146.89 149.52 147.87 150.28 148.95 150.14 C 150.02 150.00 150.78 149.02 150.64 147.94 L 150.50 146.87 C 150.36 145.80 149.38 145.04 148.31 145.18 C 147.23 145.32 146.47 146.30 146.61 147.37 Z M 146.74 148.39 L 146.84 149.46 C 146.95 150.54 147.91 151.33 148.99 151.23 C 150.07 151.12 150.86 150.16 150.76 149.08 L 150.65 148.01 C 150.55 146.93 149.59 146.14 148.51 146.24 C 147.43 146.35 146.64 147.31 146.74 148.39 Z M 146.84 149.41 L 146.91 150.43 C 146.99 151.51 147.93 152.33 149.01 152.25 C 150.10 152.17 150.91 151.23 150.84 150.15 L 150.76 149.13 C 150.69 148.05 149.74 147.23 148.66 147.31 C 147.58 147.38 146.76 148.33 146.84 149.41 Z M 146.91 150.38 L 146.96 151.41 C 147.01 152.49 147.94 153.33 149.02 153.27 C 150.11 153.22 150.95 152.29 150.89 151.21 L 150.84 150.19 C 150.78 149.10 149.86 148.26 148.77 148.32 C 147.69 148.37 146.85 149.30 146.91 150.38 Z M 146.96 151.37 L 146.99 152.39 C 147.02 153.48 147.93 154.33 149.02 154.30 C 150.11 154.26 150.96 153.35 150.93 152.26 L 150.89 151.24 C 150.86 150.16 149.95 149.30 148.86 149.34 C 147.77 149.37 146.92 150.28 146.96 151.37 Z M 146.99 152.36 L 147.00 153.37 C 147.02 154.46 147.92 155.33 149.01 155.31 C 150.10 155.29 150.96 154.39 150.95 153.30 L 150.93 152.29 C 150.91 151.20 150.01 150.34 148.92 150.36 C 147.83 150.37 146.97 151.27 146.99 152.36 Z M 147.00 153.35 L 147.01 154.34 C 147.01 155.43 147.90 156.31 148.99 156.31 C 150.08 156.30 150.96 155.42 150.95 154.33 L 150.95 153.33 C 150.94 152.24 150.05 151.36 148.97 151.37 C 147.88 151.37 147.00 152.26 147.00 153.35 Z M 147.01 154.32 L 147.00 155.30 C 147.00 156.39 147.87 157.28 148.96 157.29 C 150.05 157.29 150.94 156.41 150.95 155.32 L 150.95 154.35 C 150.96 153.26 150.08 152.37 148.99 152.36 C 147.90 152.36 147.01 153.23 147.01 154.32 Z M 147.00 155.29 L 146.99 156.24 C 146.97 157.33 147.85 158.22 148.94 158.24 C 150.03 158.25 150.92 157.38 150.94 156.29 L 150.95 155.34 C 150.96 154.25 150.09 153.35 149.00 153.34 C 147.91 153.32 147.01 154.20 147.00 155.29 Z M 146.99 156.23 L 146.97 157.29 C 146.94 158.38 147.81 159.29 148.90 159.31 C 149.99 159.33 150.90 158.46 150.92 157.37 L 150.94 156.30 C 150.96 155.21 150.09 154.31 149.00 154.29 C 147.91 154.27 147.01 155.13 146.99 156.23 Z M 146.97 157.27 L 146.93 158.31 C 146.90 159.40 147.76 160.31 148.85 160.34 C 149.94 160.38 150.85 159.52 150.88 158.43 L 150.92 157.39 C 150.95 156.30 150.09 155.39 149.00 155.36 C 147.91 155.32 147.00 156.18 146.97 157.27 Z M 146.94 158.28 L 146.89 159.28 C 146.84 160.37 147.68 161.30 148.77 161.35 C 149.86 161.40 150.78 160.56 150.84 159.47 L 150.88 158.46 C 150.94 157.37 150.09 156.45 149.00 156.40 C 147.91 156.34 146.99 157.19 146.94 158.28 Z M 146.89 159.23 L 146.82 160.21 C 146.74 161.30 147.56 162.25 148.65 162.32 C 149.74 162.40 150.68 161.58 150.76 160.49 L 150.83 159.52 C 150.91 158.43 150.09 157.48 149.00 157.40 C 147.91 157.33 146.97 158.15 146.89 159.23 Z M 146.83 160.15 L 146.73 161.11 C 146.62 162.20 147.41 163.17 148.50 163.28 C 149.58 163.39 150.55 162.60 150.66 161.51 L 150.76 160.55 C 150.87 159.47 150.08 158.50 148.99 158.39 C 147.91 158.28 146.94 159.07 146.83 160.15 Z M 146.74 161.04 L 146.61 161.99 C 146.46 163.07 147.21 164.06 148.30 164.21 C 149.38 164.36 150.37 163.61 150.52 162.52 L 150.65 161.58 C 150.80 160.50 150.04 159.50 148.96 159.35 C 147.88 159.21 146.89 159.96 146.74 161.04 Z M 146.62 161.91 L 146.45 162.88 C 146.25 163.95 146.97 164.98 148.04 165.17 C 149.12 165.36 150.14 164.65 150.33 163.57 L 150.51 162.60 C 150.70 161.53 149.99 160.50 148.91 160.31 C 147.84 160.12 146.81 160.83 146.62 161.91 Z M 146.46 162.80 L 146.25 163.77 C 146.01 164.84 146.68 165.89 147.75 166.13 C 148.81 166.37 149.86 165.69 150.10 164.63 L 150.32 163.65 C 150.55 162.59 149.88 161.54 148.82 161.30 C 147.75 161.06 146.70 161.73 146.46 162.80 Z M 146.27 163.70 L 146.01 164.67 C 145.74 165.72 146.37 166.80 147.42 167.08 C 148.47 167.35 149.55 166.72 149.83 165.67 L 150.08 164.70 C 150.36 163.65 149.73 162.57 148.67 162.29 C 147.62 162.02 146.54 162.65 146.27 163.70 Z M 146.03 164.61 L 145.75 165.57 C 145.43 166.61 146.03 167.71 147.07 168.02 C 148.11 168.33 149.21 167.74 149.52 166.69 L 149.81 165.73 C 150.12 164.69 149.53 163.59 148.48 163.28 C 147.44 162.97 146.34 163.56 146.03 164.61 Z M 145.76 165.51 L 145.45 166.46 C 145.11 167.49 145.67 168.61 146.70 168.95 C 147.73 169.29 148.85 168.73 149.19 167.70 L 149.50 166.75 C 149.84 165.72 149.28 164.60 148.25 164.26 C 147.22 163.92 146.11 164.48 145.76 165.51 Z M 145.47 166.41 L 145.13 167.35 C 144.76 168.37 145.29 169.50 146.31 169.87 C 147.34 170.24 148.46 169.71 148.83 168.69 L 149.17 167.75 C 149.54 166.73 149.01 165.60 147.99 165.23 C 146.96 164.86 145.84 165.39 145.47 166.41 Z M 145.15 167.31 L 144.79 168.24 C 144.40 169.25 144.90 170.39 145.91 170.78 C 146.92 171.17 148.06 170.67 148.45 169.66 L 148.81 168.73 C 149.20 167.72 148.70 166.58 147.69 166.19 C 146.68 165.79 145.54 166.30 145.15 167.31 Z M 144.81 168.20 L 144.43 169.12 C 144.02 170.12 144.50 171.27 145.50 171.68 C 146.50 172.09 147.64 171.61 148.06 170.61 L 148.43 169.69 C 148.85 168.69 148.37 167.55 147.37 167.13 C 146.36 166.72 145.22 167.20 144.81 168.20 Z M 144.45 169.09 L 144.05 170.00 C 143.63 170.99 144.08 172.14 145.07 172.57 C 146.06 173.00 147.21 172.55 147.64 171.56 L 148.04 170.64 C 148.47 169.65 148.01 168.50 147.02 168.07 C 146.03 167.64 144.88 168.10 144.45 169.09 Z M 144.07 169.98 L 143.66 170.88 C 143.22 171.87 143.65 173.02 144.63 173.46 C 145.62 173.91 146.77 173.47 147.21 172.49 L 147.63 171.58 C 148.07 170.60 147.63 169.45 146.65 169.00 C 145.67 168.56 144.52 168.99 144.07 169.98 Z M 143.68 170.86 L 143.25 171.77 C 142.79 172.74 143.21 173.90 144.19 174.36 C 145.16 174.81 146.32 174.39 146.77 173.42 L 147.20 172.51 C 147.66 171.54 147.24 170.38 146.26 169.93 C 145.29 169.47 144.13 169.89 143.68 170.86 Z M 143.26 171.75 L 142.82 172.66 C 142.36 173.63 142.76 174.79 143.73 175.25 C 144.69 175.72 145.85 175.32 146.32 174.35 L 146.76 173.44 C 147.23 172.47 146.82 171.31 145.86 170.85 C 144.89 170.38 143.73 170.79 143.26 171.75 Z M 142.84 172.65 L 142.42 173.51 C 141.94 174.47 142.34 175.62 143.29 176.10 C 144.25 176.57 145.41 176.18 145.88 175.22 L 146.31 174.36 C 146.78 173.41 146.39 172.25 145.43 171.77 C 144.47 171.30 143.31 171.69 142.84 172.65 Z M 142.43 173.49 L 142.00 174.35 C 141.52 175.30 141.90 176.45 142.84 176.93 C 143.79 177.42 144.95 177.04 145.43 176.09 L 145.87 175.24 C 146.35 174.29 145.97 173.13 145.02 172.65 C 144.07 172.17 142.91 172.54 142.43 173.49 Z M 142.02 174.33 L 141.57 175.19 C 141.07 176.13 141.43 177.28 142.37 177.78 C 143.30 178.27 144.46 177.91 144.96 176.97 L 145.41 176.11 C 145.90 175.17 145.54 174.02 144.61 173.52 C 143.67 173.03 142.51 173.39 142.02 174.33 Z M 141.59 175.16 L 141.11 176.04 C 140.60 176.96 140.94 178.12 141.86 178.63 C 142.79 179.13 143.94 178.80 144.45 177.87 L 144.93 177.00 C 145.44 176.08 145.10 174.92 144.18 174.41 C 143.26 173.91 142.10 174.24 141.59 175.16 Z M 141.14 176.01 L 140.63 176.90 C 140.10 177.80 140.42 178.96 141.32 179.49 C 142.23 180.01 143.39 179.70 143.91 178.79 L 144.42 177.90 C 144.95 177.00 144.63 175.84 143.73 175.31 C 142.82 174.79 141.66 175.10 141.14 176.01 Z M 140.66 176.86 L 140.11 177.76 C 139.57 178.65 139.85 179.81 140.75 180.35 C 141.64 180.90 142.80 180.61 143.34 179.72 L 143.88 178.82 C 144.42 177.93 144.14 176.77 143.25 176.23 C 142.36 175.69 141.20 175.97 140.66 176.86 Z M 140.14 177.73 L 139.60 178.58 C 139.04 179.46 139.29 180.62 140.17 181.17 C 141.04 181.73 142.20 181.48 142.76 180.61 L 143.30 179.75 C 143.86 178.88 143.61 177.72 142.74 177.16 C 141.86 176.60 140.70 176.86 140.14 177.73 Z M 139.63 178.56 L 139.10 179.35 C 138.52 180.21 138.75 181.37 139.61 181.94 C 140.46 182.51 141.62 182.29 142.19 181.43 L 142.73 180.63 C 143.30 179.78 143.07 178.62 142.22 178.04 C 141.36 177.47 140.20 177.70 139.63 178.56 Z M 139.12 179.33 L 138.56 180.14 C 137.98 180.98 138.19 182.13 139.02 182.72 C 139.86 183.30 141.02 183.09 141.60 182.26 L 142.16 181.45 C 142.75 180.61 142.54 179.46 141.70 178.87 C 140.86 178.29 139.71 178.49 139.12 179.33 Z M 138.59 180.12 L 138.01 180.93 C 137.41 181.76 137.60 182.91 138.42 183.50 C 139.25 184.09 140.40 183.91 140.99 183.08 L 141.58 182.27 C 142.17 181.45 141.98 180.30 141.16 179.71 C 140.33 179.11 139.18 179.30 138.59 180.12 Z M 138.03 180.92 L 137.43 181.74 C 136.83 182.55 137.00 183.69 137.81 184.29 C 138.62 184.89 139.76 184.72 140.36 183.91 L 140.97 183.10 C 141.57 182.29 141.40 181.14 140.59 180.54 C 139.78 179.94 138.63 180.11 138.03 180.92 Z M 137.45 181.73 L 136.83 182.54 C 136.23 183.34 136.38 184.47 137.18 185.08 C 137.98 185.69 139.12 185.53 139.72 184.73 L 140.34 183.92 C 140.95 183.12 140.79 181.98 139.99 181.38 C 139.20 180.77 138.06 180.93 137.45 181.73 Z M 136.86 182.53 L 136.23 183.34 C 135.62 184.13 135.76 185.26 136.55 185.87 C 137.33 186.48 138.46 186.34 139.07 185.55 L 139.70 184.74 C 140.31 183.95 140.17 182.82 139.38 182.21 C 138.60 181.60 137.47 181.75 136.86 182.53 Z M 136.25 183.34 L 135.61 184.15 C 135.00 184.92 135.13 186.04 135.90 186.66 C 136.68 187.27 137.80 187.14 138.41 186.36 L 139.05 185.56 C 139.66 184.78 139.53 183.66 138.76 183.05 C 137.98 182.43 136.86 182.56 136.25 183.34 Z M 135.63 184.14 L 134.98 184.96 C 134.36 185.72 134.48 186.84 135.25 187.45 C 136.01 188.06 137.12 187.94 137.73 187.18 L 138.39 186.36 C 139.00 185.60 138.88 184.49 138.12 183.87 C 137.36 183.26 136.25 183.38 135.63 184.14 Z M 135.00 184.96 L 134.34 185.76 C 133.73 186.51 133.84 187.61 134.59 188.23 C 135.33 188.84 136.44 188.73 137.05 187.98 L 137.71 187.18 C 138.32 186.43 138.21 185.33 137.46 184.72 C 136.72 184.11 135.62 184.21 135.00 184.96 Z M 134.37 185.76 L 133.71 186.55 C 133.10 187.28 133.20 188.37 133.93 188.98 C 134.66 189.60 135.75 189.50 136.36 188.77 L 137.02 187.98 C 137.63 187.25 137.54 186.16 136.81 185.55 C 136.07 184.94 134.99 185.03 134.37 185.76 Z M 133.74 186.55 L 133.09 187.31 C 132.47 188.03 132.55 189.10 133.27 189.72 C 133.98 190.33 135.06 190.25 135.67 189.54 L 136.33 188.77 C 136.94 188.06 136.86 186.98 136.15 186.37 C 135.43 185.75 134.36 185.83 133.74 186.55 Z M 133.12 187.31 L 132.46 188.05 C 131.85 188.75 131.91 189.81 132.61 190.43 C 133.30 191.04 134.37 190.98 134.99 190.28 L 135.64 189.54 C 136.26 188.84 136.19 187.78 135.49 187.16 C 134.80 186.55 133.73 186.61 133.12 187.31 Z M 132.50 188.04 L 131.85 188.76 C 131.23 189.43 131.27 190.49 131.95 191.11 C 132.63 191.72 133.68 191.68 134.30 191.00 L 134.95 190.29 C 135.57 189.61 135.52 188.56 134.85 187.94 C 134.17 187.32 133.12 187.37 132.50 188.04 Z M 131.88 188.75 L 131.24 189.43 C 130.61 190.08 130.64 191.12 131.30 191.75 C 131.96 192.37 133.00 192.34 133.62 191.69 L 134.26 191.01 C 134.89 190.35 134.86 189.31 134.20 188.69 C 133.55 188.06 132.51 188.09 131.88 188.75 Z M 131.28 189.41 L 130.54 190.15 C 129.91 190.79 129.91 191.82 130.55 192.45 C 131.18 193.08 132.21 193.08 132.84 192.44 L 133.58 191.70 C 134.21 191.07 134.21 190.04 133.57 189.40 C 132.94 188.77 131.91 188.78 131.28 189.41 Z M 130.58 190.14 L 129.83 190.85 C 129.18 191.47 129.16 192.49 129.78 193.13 C 130.39 193.78 131.42 193.80 132.06 193.18 L 132.81 192.46 C 133.45 191.85 133.47 190.83 132.86 190.18 C 132.24 189.54 131.22 189.52 130.58 190.14 Z M 129.86 190.84 L 129.12 191.52 C 128.47 192.12 128.42 193.13 129.02 193.78 C 129.62 194.43 130.63 194.48 131.28 193.88 L 132.03 193.20 C 132.68 192.60 132.72 191.59 132.12 190.93 C 131.52 190.28 130.51 190.24 129.86 190.84 Z M 129.14 191.51 L 128.41 192.16 C 127.75 192.74 127.69 193.75 128.28 194.41 C 128.86 195.06 129.87 195.12 130.52 194.54 L 131.26 193.89 C 131.91 193.31 131.97 192.30 131.39 191.64 C 130.81 190.98 129.80 190.92 129.14 191.51 Z M 128.43 192.16 L 127.70 192.79 C 127.04 193.36 126.97 194.36 127.54 195.02 C 128.11 195.68 129.11 195.75 129.77 195.18 L 130.50 194.55 C 131.16 193.97 131.23 192.98 130.66 192.32 C 130.09 191.66 129.09 191.58 128.43 192.16 Z M 127.72 192.79 L 126.99 193.41 C 126.33 193.97 126.25 194.96 126.81 195.62 C 127.38 196.28 128.37 196.36 129.03 195.80 L 129.76 195.18 C 130.41 194.61 130.49 193.62 129.93 192.96 C 129.37 192.30 128.38 192.23 127.72 192.79 Z M 127.00 193.41 L 126.82 193.56 C 126.16 194.12 126.08 195.11 126.64 195.77 C 127.20 196.42 128.19 196.50 128.84 195.94 L 129.02 195.79 C 129.68 195.24 129.76 194.25 129.20 193.59 C 128.64 192.93 127.65 192.85 127.00 193.41 Z"
      fill="black"
      fill-rule="nonzero" /></svg>