<svg xmlns="http://www.w3.org/2000/svg" width="300" height="300" viewBox="0 0 300 300">
<path d="M 125.74 105.88 L 126.65 105.82 C 127.61 105.75 128.34 104.92 128.27 103.96 C 128.21 103.00 127.38 102.27 126.42 102.33 L 125.51 102.39 C 124.55 102.45 123.82 103.29 123.88 104.25 C 123.95 105.21 124.78 105.94 125.74 105.88 Z M 126.66 105.83 L 127.57 105.77 C 128.55 105.70 129.28 104.85 129.20 103.88 C 129.13 102.91 128.29 102.18 127.32 102.25 L 126.40 102.31 C 125.43 102.39 124.70 103.23 124.77 104.20 C 124.84 105.17 125.69 105.90 126.66 105.83 Z M 127.60 105.78 L 128.53 105.70 C 129.51 105.62 130.24 104.75 130.15 103.77 C 130.07 102.79 129.20 102.07 128.22 102.15 L 127.29 102.23 C 126.31 102.32 125.58 103.18 125.67 104.16 C 125.75 105.14 126.62 105.87 127.60 105.78 Z M 128.57 105.72 L 129.53 105.62 C 130.52 105.51 131.23 104.62 131.13 103.63 C 131.02 102.65 130.14 101.93 129.15 102.03 L 128.19 102.14 C 127.20 102.24 126.48 103.13 126.59 104.12 C 126.69 105.11 127.58 105.82 128.57 105.72 Z M 129.57 105.63 L 130.57 105.50 C 131.57 105.37 132.27 104.45 132.14 103.46 C 132.01 102.46 131.09 101.76 130.10 101.89 L 129.10 102.02 C 128.10 102.15 127.40 103.07 127.53 104.06 C 127.66 105.06 128.58 105.76 129.57 105.63 Z M 130.62 105.51 L 131.66 105.34 C 132.67 105.18 133.35 104.24 133.19 103.24 C 133.03 102.24 132.09 101.55 131.09 101.71 L 130.04 101.88 C 129.04 102.04 128.36 102.98 128.52 103.98 C 128.68 104.99 129.62 105.67 130.62 105.51 Z M 131.72 105.35 L 132.82 105.14 C 133.83 104.95 134.49 103.98 134.29 102.97 C 134.10 101.97 133.13 101.31 132.12 101.50 L 131.03 101.71 C 130.02 101.90 129.36 102.87 129.55 103.87 C 129.74 104.88 130.72 105.54 131.72 105.35 Z M 132.88 105.14 L 133.90 104.92 C 134.91 104.69 135.55 103.70 135.32 102.69 C 135.10 101.68 134.10 101.04 133.09 101.27 L 132.07 101.49 C 131.06 101.72 130.42 102.71 130.65 103.72 C 130.87 104.73 131.87 105.37 132.88 105.14 Z M 133.94 104.91 L 134.84 104.69 C 135.84 104.45 136.46 103.43 136.21 102.43 C 135.96 101.42 134.95 100.81 133.94 101.05 L 133.05 101.27 C 132.05 101.52 131.43 102.53 131.68 103.54 C 131.93 104.54 132.94 105.16 133.94 104.91 Z M 134.87 104.68 L 135.79 104.44 C 136.79 104.17 137.39 103.15 137.12 102.15 C 136.86 101.15 135.83 100.55 134.83 100.82 L 133.91 101.06 C 132.91 101.33 132.31 102.35 132.58 103.35 C 132.84 104.35 133.87 104.95 134.87 104.68 Z M 135.82 104.43 L 136.77 104.16 C 137.76 103.88 138.34 102.85 138.06 101.86 C 137.78 100.86 136.75 100.28 135.75 100.56 L 134.81 100.83 C 133.81 101.11 133.23 102.14 133.51 103.14 C 133.79 104.13 134.82 104.71 135.82 104.43 Z M 136.79 104.16 L 137.75 103.87 C 138.74 103.58 139.31 102.54 139.02 101.55 C 138.73 100.56 137.68 99.99 136.69 100.28 L 135.73 100.57 C 134.74 100.86 134.17 101.90 134.46 102.89 C 134.76 103.88 135.80 104.45 136.79 104.16 Z M 137.77 103.87 L 138.75 103.56 C 139.74 103.26 140.29 102.21 139.99 101.23 C 139.69 100.24 138.64 99.69 137.65 99.99 L 136.67 100.29 C 135.69 100.59 135.13 101.64 135.44 102.63 C 135.74 103.61 136.79 104.17 137.77 103.87 Z M 138.77 103.56 L 139.75 103.24 C 140.74 102.93 141.28 101.88 140.97 100.90 C 140.66 99.91 139.61 99.37 138.62 99.68 L 137.64 100.00 C 136.65 100.31 136.11 101.36 136.42 102.34 C 136.73 103.33 137.78 103.87 138.77 103.56 Z M 139.77 103.24 L 140.76 102.92 C 141.74 102.60 142.27 101.54 141.95 100.56 C 141.63 99.58 140.58 99.04 139.60 99.36 L 138.61 99.69 C 137.63 100.01 137.09 101.06 137.41 102.04 C 137.73 103.02 138.79 103.56 139.77 103.24 Z M 140.77 102.91 L 141.75 102.58 C 142.73 102.25 143.26 101.20 142.93 100.22 C 142.61 99.24 141.55 98.71 140.57 99.04 L 139.58 99.37 C 138.61 99.70 138.08 100.75 138.41 101.73 C 138.73 102.71 139.79 103.24 140.77 102.91 Z M 141.76 102.58 L 142.74 102.24 C 143.72 101.91 144.24 100.85 143.90 99.88 C 143.57 98.90 142.51 98.38 141.53 98.71 L 140.56 99.04 C 139.58 99.38 139.06 100.44 139.39 101.41 C 139.73 102.39 140.79 102.91 141.76 102.58 Z M 142.75 102.24 L 143.73 101.90 C 144.70 101.56 145.22 100.50 144.88 99.53 C 144.55 98.55 143.48 98.04 142.51 98.37 L 141.53 98.71 C 140.55 99.05 140.04 100.12 140.37 101.09 C 140.71 102.06 141.78 102.58 142.75 102.24 Z M 143.74 101.90 L 144.80 101.52 C 145.77 101.18 146.28 100.12 145.94 99.15 C 145.59 98.18 144.53 97.67 143.56 98.01 L 142.50 98.38 C 141.53 98.72 141.02 99.78 141.36 100.76 C 141.70 101.73 142.77 102.24 143.74 101.90 Z M 144.80 101.52 L 145.84 101.15 C 146.80 100.80 147.31 99.74 146.96 98.77 C 146.62 97.80 145.55 97.30 144.59 97.64 L 143.55 98.01 C 142.59 98.36 142.08 99.42 142.43 100.39 C 142.77 101.36 143.84 101.86 144.80 101.52 Z M 145.84 101.14 L 146.85 100.78 C 147.81 100.43 148.31 99.37 147.96 98.40 C 147.61 97.44 146.55 96.94 145.58 97.29 L 144.58 97.65 C 143.61 98.00 143.12 99.06 143.46 100.03 C 143.81 100.99 144.88 101.49 145.84 101.14 Z M 146.85 100.77 L 147.83 100.42 C 148.79 100.06 149.28 99.00 148.93 98.04 C 148.58 97.08 147.51 96.58 146.55 96.94 L 145.58 97.29 C 144.62 97.65 144.12 98.71 144.47 99.67 C 144.83 100.63 145.89 101.13 146.85 100.77 Z M 147.83 100.41 L 148.77 100.06 C 149.73 99.71 150.22 98.64 149.86 97.68 C 149.51 96.73 148.44 96.24 147.49 96.59 L 146.54 96.94 C 145.59 97.30 145.10 98.36 145.45 99.32 C 145.81 100.28 146.87 100.77 147.83 100.41 Z M 148.78 100.06 L 149.69 99.72 C 150.64 99.36 151.12 98.29 150.77 97.34 C 150.41 96.38 149.34 95.90 148.39 96.26 L 147.48 96.60 C 146.53 96.96 146.04 98.02 146.40 98.98 C 146.76 99.93 147.82 100.42 148.78 100.06 Z M 149.69 99.71 L 150.56 99.38 C 151.51 99.02 151.99 97.95 151.63 97.00 C 151.27 96.05 150.20 95.57 149.25 95.93 L 148.38 96.26 C 147.43 96.62 146.95 97.69 147.31 98.64 C 147.68 99.59 148.74 100.07 149.69 99.71 Z M 150.57 99.37 L 151.40 99.05 C 152.35 98.69 152.82 97.62 152.46 96.68 C 152.09 95.73 151.03 95.25 150.08 95.62 L 149.25 95.94 C 148.30 96.30 147.82 97.37 148.19 98.32 C 148.55 99.26 149.62 99.74 150.57 99.37 Z M 151.41 99.05 L 152.21 98.73 C 153.16 98.37 153.63 97.30 153.26 96.36 C 152.89 95.41 151.83 94.94 150.88 95.31 L 150.07 95.62 C 149.13 95.99 148.66 97.06 149.03 98.00 C 149.40 98.95 150.46 99.42 151.41 99.05 Z M 152.22 98.73 L 153.29 98.30 C 154.24 97.93 154.70 96.87 154.33 95.93 C 153.96 94.99 152.89 94.52 151.95 94.89 L 150.88 95.32 C 149.93 95.69 149.47 96.75 149.84 97.69 C 150.21 98.64 151.28 99.10 152.22 98.73 Z M 153.30 98.30 L 154.30 97.90 C 155.24 97.52 155.69 96.46 155.32 95.52 C 154.94 94.58 153.88 94.13 152.94 94.50 L 151.94 94.90 C 151.01 95.28 150.55 96.34 150.92 97.28 C 151.30 98.21 152.36 98.67 153.30 98.30 Z M 154.30 97.89 L 155.24 97.51 C 156.17 97.13 156.62 96.07 156.25 95.14 C 155.87 94.21 154.81 93.76 153.88 94.13 L 152.94 94.51 C 152.01 94.89 151.56 95.95 151.93 96.88 C 152.31 97.81 153.37 98.27 154.30 97.89 Z M 155.24 97.50 L 156.13 97.14 C 157.06 96.76 157.51 95.70 157.13 94.78 C 156.75 93.85 155.69 93.40 154.76 93.78 L 153.87 94.14 C 152.95 94.52 152.50 95.58 152.88 96.51 C 153.25 97.43 154.31 97.88 155.24 97.50 Z M 156.13 97.14 L 156.98 96.79 C 157.91 96.41 158.35 95.35 157.98 94.43 C 157.60 93.50 156.54 93.06 155.62 93.44 L 154.76 93.78 C 153.84 94.16 153.39 95.22 153.77 96.14 C 154.15 97.07 155.20 97.51 156.13 97.14 Z M 156.98 96.78 L 157.81 96.45 C 158.73 96.07 159.18 95.02 158.80 94.09 C 158.43 93.17 157.37 92.73 156.45 93.10 L 155.62 93.44 C 154.70 93.82 154.25 94.87 154.63 95.79 C 155.00 96.72 156.06 97.16 156.98 96.78 Z M 157.80 96.44 L 158.71 96.08 C 159.63 95.71 160.08 94.66 159.71 93.74 C 159.34 92.81 158.29 92.37 157.37 92.74 L 156.46 93.10 C 155.54 93.48 155.09 94.52 155.46 95.45 C 155.83 96.37 156.88 96.82 157.80 96.44 Z M 158.70 96.08 L 159.64 95.71 C 160.56 95.34 161.01 94.30 160.64 93.37 C 160.27 92.45 159.23 92.00 158.31 92.37 L 157.38 92.74 C 156.45 93.11 156.00 94.15 156.37 95.07 C 156.74 95.99 157.78 96.44 158.70 96.08 Z M 159.62 95.71 L 160.55 95.34 C 161.48 94.98 161.93 93.94 161.57 93.02 C 161.21 92.10 160.17 91.64 159.25 92.01 L 158.32 92.37 C 157.40 92.73 156.94 93.77 157.30 94.69 C 157.66 95.61 158.70 96.07 159.62 95.71 Z M 160.54 95.34 L 161.47 94.99 C 162.39 94.63 162.85 93.60 162.50 92.68 C 162.15 91.76 161.11 91.30 160.19 91.65 L 159.26 92.00 C 158.34 92.36 157.88 93.39 158.23 94.31 C 158.59 95.23 159.62 95.70 160.54 95.34 Z M 161.46 94.99 L 162.39 94.64 C 163.31 94.29 163.78 93.27 163.44 92.34 C 163.09 91.42 162.06 90.95 161.14 91.30 L 160.21 91.65 C 159.29 91.99 158.82 93.02 159.16 93.94 C 159.51 94.86 160.54 95.33 161.46 94.99 Z M 162.37 94.64 L 163.31 94.30 C 164.23 93.96 164.71 92.94 164.37 92.02 C 164.04 91.09 163.02 90.62 162.09 90.96 L 161.16 91.30 C 160.23 91.63 159.76 92.65 160.09 93.58 C 160.43 94.50 161.45 94.98 162.37 94.64 Z M 163.29 94.30 L 164.23 93.97 C 165.16 93.64 165.64 92.62 165.31 91.70 C 164.98 90.78 163.97 90.29 163.05 90.62 L 162.11 90.95 C 161.18 91.28 160.70 92.30 161.03 93.22 C 161.36 94.14 162.37 94.63 163.29 94.30 Z M 164.22 93.97 L 165.16 93.64 C 166.09 93.32 166.57 92.31 166.25 91.39 C 165.93 90.46 164.93 89.98 164.00 90.30 L 163.06 90.62 C 162.14 90.94 161.65 91.95 161.97 92.87 C 162.29 93.80 163.30 94.29 164.22 93.97 Z M 165.15 93.64 L 166.10 93.32 C 167.02 93.00 167.51 92.00 167.20 91.08 C 166.89 90.15 165.88 89.66 164.96 89.97 L 164.01 90.30 C 163.09 90.61 162.60 91.61 162.91 92.54 C 163.23 93.46 164.23 93.95 165.15 93.64 Z M 166.09 93.31 L 167.04 92.99 C 167.96 92.68 168.46 91.69 168.15 90.76 C 167.84 89.84 166.84 89.35 165.92 89.66 L 164.97 89.98 C 164.05 90.29 163.55 91.28 163.86 92.21 C 164.17 93.13 165.17 93.62 166.09 93.31 Z M 167.04 92.99 L 167.99 92.67 C 168.91 92.36 169.40 91.37 169.10 90.45 C 168.79 89.53 167.80 89.03 166.88 89.34 L 165.92 89.66 C 165.00 89.97 164.51 90.96 164.81 91.88 C 165.12 92.80 166.12 93.30 167.04 92.99 Z M 167.99 92.67 L 168.94 92.35 C 169.86 92.04 170.35 91.05 170.05 90.14 C 169.74 89.22 168.75 88.72 167.83 89.03 L 166.88 89.35 C 165.96 89.65 165.47 90.64 165.77 91.56 C 166.08 92.48 167.07 92.97 167.99 92.67 Z M 168.94 92.35 L 169.89 92.03 C 170.81 91.72 171.30 90.73 171.00 89.82 C 170.70 88.90 169.71 88.41 168.79 88.71 L 167.84 89.03 C 166.92 89.34 166.43 90.32 166.73 91.24 C 167.03 92.15 168.02 92.65 168.94 92.35 Z M 169.89 92.02 L 170.84 91.71 C 171.76 91.41 172.25 90.42 171.95 89.51 C 171.65 88.59 170.66 88.10 169.75 88.40 L 168.80 88.72 C 167.88 89.02 167.39 90.01 167.69 90.92 C 167.99 91.83 168.98 92.33 169.89 92.02 Z M 170.84 91.70 L 171.79 91.39 C 172.70 91.09 173.20 90.11 172.90 89.20 C 172.60 88.29 171.62 87.79 170.70 88.09 L 169.75 88.41 C 168.84 88.70 168.35 89.69 168.65 90.60 C 168.95 91.51 169.93 92.00 170.84 91.70 Z M 171.78 91.39 L 172.73 91.08 C 173.64 90.79 174.13 89.81 173.84 88.90 C 173.54 87.99 172.57 87.49 171.66 87.79 L 170.71 88.10 C 169.80 88.39 169.30 89.37 169.60 90.28 C 169.90 91.19 170.87 91.69 171.78 91.39 Z M 172.72 91.08 L 173.65 90.78 C 174.55 90.49 175.05 89.52 174.76 88.61 C 174.47 87.70 173.50 87.20 172.59 87.49 L 171.66 87.79 C 170.76 88.08 170.26 89.05 170.55 89.96 C 170.84 90.87 171.81 91.37 172.72 91.08 Z M 173.64 90.78 L 174.48 90.51 C 175.39 90.23 175.90 89.26 175.61 88.35 C 175.32 87.45 174.36 86.94 173.45 87.23 L 172.60 87.50 C 171.69 87.78 171.19 88.75 171.47 89.66 C 171.76 90.56 172.73 91.07 173.64 90.78 Z M 174.47 90.51 L 175.34 90.25 C 176.24 89.97 176.75 89.01 176.48 88.10 C 176.20 87.19 175.24 86.68 174.33 86.96 L 173.46 87.23 C 172.55 87.51 172.04 88.47 172.32 89.37 C 172.60 90.28 173.56 90.79 174.47 90.51 Z M 175.32 90.25 L 176.23 89.98 C 177.13 89.71 177.65 88.76 177.38 87.85 C 177.11 86.94 176.16 86.42 175.25 86.69 L 174.35 86.96 C 173.44 87.23 172.92 88.18 173.19 89.09 C 173.46 90.00 174.41 90.52 175.32 90.25 Z M 176.21 89.98 L 177.17 89.71 C 178.08 89.45 178.61 88.50 178.35 87.59 C 178.09 86.69 177.15 86.16 176.24 86.42 L 175.27 86.69 C 174.36 86.95 173.84 87.89 174.09 88.80 C 174.35 89.71 175.30 90.24 176.21 89.98 Z M 177.15 89.71 L 178.20 89.42 C 179.11 89.18 179.65 88.24 179.40 87.33 C 179.15 86.42 178.22 85.88 177.31 86.13 L 176.26 86.42 C 175.35 86.66 174.81 87.60 175.06 88.51 C 175.31 89.42 176.24 89.96 177.15 89.71 Z M 178.18 89.43 L 179.32 89.13 C 180.23 88.89 180.78 87.96 180.54 87.05 C 180.31 86.14 179.38 85.60 178.47 85.83 L 177.33 86.13 C 176.42 86.37 175.87 87.29 176.11 88.20 C 176.34 89.11 177.27 89.66 178.18 89.43 Z M 179.31 89.13 L 180.20 88.91 C 181.11 88.68 181.66 87.76 181.44 86.85 C 181.21 85.94 180.29 85.38 179.38 85.61 L 178.49 85.83 C 177.58 86.06 177.02 86.98 177.25 87.89 C 177.48 88.80 178.40 89.36 179.31 89.13 Z M 180.19 88.91 L 181.13 88.68 C 182.04 88.46 182.60 87.54 182.38 86.63 C 182.16 85.72 181.24 85.16 180.33 85.38 L 179.39 85.61 C 178.48 85.83 177.92 86.75 178.14 87.66 C 178.36 88.57 179.28 89.13 180.19 88.91 Z M 181.12 88.68 L 182.10 88.45 C 183.01 88.23 183.57 87.32 183.36 86.41 C 183.14 85.50 182.23 84.94 181.32 85.15 L 180.34 85.38 C 179.43 85.60 178.87 86.51 179.08 87.42 C 179.30 88.33 180.21 88.89 181.12 88.68 Z M 182.08 88.45 L 183.09 88.22 C 184.00 88.01 184.57 87.11 184.36 86.20 C 184.15 85.29 183.25 84.72 182.34 84.93 L 181.34 85.15 C 180.43 85.36 179.86 86.27 180.06 87.18 C 180.27 88.09 181.17 88.65 182.08 88.45 Z M 183.08 88.22 L 184.09 88.00 C 185.00 87.80 185.58 86.90 185.38 85.99 C 185.18 85.08 184.28 84.50 183.37 84.70 L 182.35 84.93 C 181.44 85.13 180.87 86.02 181.07 86.93 C 181.27 87.84 182.17 88.42 183.08 88.22 Z M 184.08 88.00 L 185.09 87.78 C 186.00 87.59 186.59 86.70 186.39 85.79 C 186.20 84.88 185.31 84.30 184.40 84.49 L 183.38 84.70 C 182.47 84.89 181.89 85.79 182.08 86.70 C 182.28 87.61 183.17 88.19 184.08 88.00 Z M 185.08 87.78 L 186.08 87.58 C 186.99 87.40 187.58 86.51 187.40 85.60 C 187.21 84.69 186.33 84.10 185.42 84.29 L 184.41 84.49 C 183.50 84.67 182.92 85.56 183.10 86.47 C 183.28 87.38 184.17 87.96 185.08 87.78 Z M 186.06 87.58 L 187.04 87.39 C 187.95 87.22 188.55 86.34 188.37 85.43 C 188.20 84.52 187.32 83.92 186.41 84.10 L 185.43 84.29 C 184.53 84.46 183.93 85.34 184.10 86.25 C 184.28 87.16 185.16 87.75 186.06 87.58 Z M 187.02 87.39 L 188.07 87.20 C 188.98 87.04 189.59 86.17 189.43 85.27 C 189.27 84.36 188.40 83.75 187.49 83.91 L 186.43 84.10 C 185.53 84.26 184.92 85.13 185.08 86.04 C 185.24 86.95 186.11 87.55 187.02 87.39 Z M 188.04 87.20 L 189.17 87.03 C 190.08 86.89 190.70 86.04 190.56 85.13 C 190.42 84.22 189.57 83.59 188.66 83.74 L 187.52 83.91 C 186.62 84.05 185.99 84.90 186.13 85.81 C 186.28 86.72 187.13 87.35 188.04 87.20 Z M 189.11 87.03 L 190.17 86.90 C 191.08 86.79 191.73 85.97 191.62 85.06 C 191.52 84.15 190.69 83.50 189.78 83.61 L 188.72 83.73 C 187.81 83.84 187.16 84.67 187.26 85.58 C 187.37 86.49 188.20 87.14 189.11 87.03 Z M 190.09 86.90 L 191.09 86.83 C 192.00 86.77 192.69 85.99 192.63 85.08 C 192.57 84.17 191.78 83.48 190.87 83.54 L 189.87 83.61 C 188.96 83.67 188.27 84.46 188.33 85.37 C 188.39 86.28 189.18 86.96 190.09 86.90 Z M 190.98 86.83 L 191.93 86.83 C 192.83 86.83 193.57 86.10 193.57 85.19 C 193.57 84.28 192.84 83.55 191.93 83.54 L 190.98 83.54 C 190.08 83.54 189.34 84.28 189.34 85.18 C 189.34 86.09 190.07 86.83 190.98 86.83 Z M 191.78 86.82 L 192.68 86.90 C 193.58 86.98 194.38 86.32 194.46 85.42 C 194.54 84.52 193.87 83.72 192.97 83.64 L 192.08 83.56 C 191.18 83.48 190.38 84.14 190.30 85.04 C 190.22 85.94 190.88 86.74 191.78 86.82 Z M 192.51 86.87 L 193.36 87.04 C 194.24 87.21 195.10 86.64 195.28 85.76 C 195.45 84.88 194.88 84.02 194.00 83.84 L 193.15 83.67 C 192.26 83.50 191.41 84.07 191.23 84.95 C 191.05 85.83 191.63 86.69 192.51 86.87 Z M 193.16 86.98 L 194.05 87.28 C 194.90 87.56 195.82 87.11 196.11 86.26 C 196.39 85.41 195.94 84.49 195.09 84.20 L 194.20 83.90 C 193.35 83.62 192.43 84.07 192.14 84.92 C 191.86 85.77 192.31 86.69 193.16 86.98 Z M 193.86 87.19 L 194.74 87.62 C 195.54 88.01 196.51 87.67 196.90 86.87 C 197.29 86.06 196.95 85.10 196.15 84.71 L 195.27 84.28 C 194.47 83.90 193.50 84.23 193.11 85.04 C 192.72 85.84 193.06 86.81 193.86 87.19 Z M 194.60 87.53 L 195.44 88.05 C 196.20 88.52 197.19 88.28 197.65 87.52 C 198.12 86.77 197.88 85.77 197.13 85.31 L 196.29 84.79 C 195.53 84.32 194.54 84.56 194.07 85.32 C 193.61 86.08 193.84 87.07 194.60 87.53 Z M 195.34 87.98 L 196.15 88.57 C 196.87 89.09 197.88 88.93 198.40 88.21 C 198.92 87.49 198.75 86.49 198.04 85.97 L 197.22 85.38 C 196.51 84.86 195.50 85.02 194.98 85.74 C 194.46 86.46 194.62 87.46 195.34 87.98 Z M 196.09 88.51 L 196.89 89.15 C 197.58 89.70 198.58 89.59 199.14 88.90 C 199.69 88.21 199.58 87.21 198.89 86.66 L 198.10 86.02 C 197.41 85.47 196.40 85.58 195.85 86.27 C 195.29 86.95 195.41 87.96 196.09 88.51 Z M 196.86 89.12 L 197.64 89.78 C 198.31 90.35 199.32 90.27 199.89 89.60 C 200.46 88.92 200.37 87.92 199.70 87.35 L 198.92 86.69 C 198.25 86.12 197.24 86.20 196.67 86.87 C 196.10 87.55 196.19 88.55 196.86 89.12 Z M 197.64 89.77 L 197.79 89.91 C 198.46 90.48 199.46 90.40 200.04 89.73 C 200.61 89.07 200.53 88.06 199.86 87.49 L 199.71 87.36 C 199.04 86.79 198.04 86.86 197.46 87.53 C 196.89 88.20 196.97 89.20 197.64 89.77 Z"
      fill="black"
      fill-rule="nonzero" /><path d="M 115.93 147.83 L 114.51 147.83 C 113.56 147.83 112.79 148.60 112.79 149.55 C 112.79 150.50 113.56 151.28 114.51 151.28 L 115.92 151.28 C 116.88 151.28 117.65 150.51 117.65 149.55 C 117.65 148.60 116.88 147.83 115.93 147.83 Z M 114.51 147.81 L 113.20 147.81 C 112.24 147.81 111.46 148.58 111.46 149.54 C 111.45 150.50 112.23 151.28 113.19 151.29 L 114.50 151.29 C 115.46 151.29 116.24 150.52 116.25 149.56 C 116.25 148.60 115.47 147.82 114.51 147.81 Z M 113.21 147.80 L 112.10 147.79 C 111.13 147.78 110.34 148.55 110.33 149.52 C 110.32 150.49 111.10 151.28 112.06 151.29 L 113.18 151.30 C 114.15 151.31 114.94 150.53 114.95 149.57 C 114.96 148.60 114.18 147.81 113.21 147.80 Z M 112.13 147.77 L 111.32 147.75 C 110.34 147.73 109.53 148.50 109.50 149.47 C 109.48 150.45 110.25 151.26 111.23 151.29 L 112.04 151.31 C 113.01 151.33 113.82 150.56 113.85 149.58 C 113.87 148.61 113.10 147.80 112.13 147.77 Z M 111.42 147.74 L 111.02 147.71 C 110.03 147.62 109.17 148.35 109.09 149.33 C 109.01 150.31 109.73 151.18 110.72 151.26 L 111.12 151.29 C 112.10 151.38 112.96 150.65 113.05 149.67 C 113.13 148.69 112.40 147.82 111.42 147.74 Z M 111.87 150.98 L 111.94 150.92 C 112.77 150.37 112.99 149.26 112.43 148.43 C 111.88 147.61 110.77 147.39 109.94 147.94 L 109.87 147.99 C 109.04 148.54 108.82 149.66 109.37 150.48 C 109.93 151.31 111.04 151.53 111.87 150.98 Z M 111.19 151.22 L 111.73 151.15 C 112.72 151.01 113.40 150.09 113.26 149.11 C 113.12 148.12 112.21 147.43 111.22 147.57 L 110.69 147.64 C 109.70 147.78 109.01 148.70 109.15 149.69 C 109.29 150.67 110.21 151.36 111.19 151.22 Z M 111.68 151.17 L 112.62 151.06 C 113.62 150.95 114.34 150.04 114.22 149.04 C 114.11 148.05 113.21 147.33 112.21 147.44 L 111.27 147.55 C 110.27 147.66 109.55 148.56 109.67 149.56 C 109.78 150.56 110.68 151.28 111.68 151.17 Z M 112.62 151.07 L 113.92 150.92 C 114.93 150.81 115.65 149.90 115.54 148.90 C 115.42 147.89 114.52 147.17 113.51 147.28 L 112.21 147.43 C 111.20 147.54 110.48 148.45 110.59 149.46 C 110.71 150.46 111.62 151.18 112.62 151.07 Z M 113.94 150.93 L 115.56 150.74 C 116.57 150.62 117.29 149.70 117.17 148.69 C 117.04 147.68 116.12 146.96 115.11 147.08 L 113.50 147.27 C 112.49 147.40 111.76 148.31 111.89 149.32 C 112.01 150.34 112.93 151.06 113.94 150.93 Z M 115.57 150.74 L 116.63 150.61 C 117.65 150.47 118.36 149.54 118.23 148.53 C 118.10 147.52 117.17 146.80 116.15 146.93 L 115.10 147.07 C 114.08 147.20 113.37 148.13 113.50 149.15 C 113.63 150.16 114.56 150.87 115.57 150.74 Z M 116.64 150.60 L 117.53 150.48 C 118.54 150.35 119.25 149.41 119.11 148.40 C 118.97 147.38 118.04 146.68 117.03 146.81 L 116.14 146.93 C 115.13 147.07 114.42 148.01 114.56 149.02 C 114.70 150.03 115.63 150.74 116.64 150.60 Z M 117.54 150.48 L 118.46 150.35 C 119.48 150.21 120.18 149.27 120.04 148.26 C 119.90 147.24 118.96 146.54 117.95 146.68 L 117.02 146.81 C 116.01 146.96 115.30 147.90 115.44 148.91 C 115.59 149.92 116.53 150.63 117.54 150.48 Z M 118.47 150.35 L 119.43 150.21 C 120.45 150.06 121.15 149.12 121.00 148.11 C 120.85 147.10 119.91 146.40 118.90 146.54 L 117.94 146.68 C 116.92 146.83 116.22 147.77 116.37 148.79 C 116.52 149.80 117.46 150.50 118.47 150.35 Z M 119.44 150.21 L 120.43 150.06 C 121.45 149.91 122.14 148.96 121.99 147.95 C 121.84 146.94 120.89 146.24 119.88 146.40 L 118.89 146.55 C 117.88 146.70 117.18 147.64 117.33 148.65 C 117.49 149.66 118.43 150.36 119.44 150.21 Z M 120.44 150.06 L 121.45 149.90 C 122.47 149.75 123.16 148.80 123.00 147.79 C 122.85 146.78 121.90 146.08 120.89 146.24 L 119.87 146.40 C 118.86 146.55 118.17 147.50 118.33 148.51 C 118.48 149.52 119.43 150.21 120.44 150.06 Z M 121.46 149.90 L 122.49 149.74 C 123.50 149.58 124.19 148.63 124.03 147.62 C 123.87 146.61 122.92 145.92 121.91 146.08 L 120.88 146.24 C 119.87 146.40 119.18 147.35 119.34 148.36 C 119.50 149.37 120.45 150.06 121.46 149.90 Z M 122.50 149.74 L 123.54 149.57 C 124.55 149.40 125.24 148.45 125.07 147.44 C 124.91 146.43 123.95 145.75 122.94 145.91 L 121.90 146.08 C 120.89 146.24 120.21 147.20 120.37 148.20 C 120.54 149.21 121.49 149.90 122.50 149.74 Z M 123.55 149.57 L 124.59 149.39 C 125.60 149.22 126.28 148.27 126.11 147.26 C 125.95 146.25 124.99 145.57 123.98 145.74 L 122.94 145.91 C 121.93 146.08 121.25 147.03 121.42 148.04 C 121.58 149.05 122.54 149.73 123.55 149.57 Z M 124.60 149.39 L 125.64 149.21 C 126.65 149.04 127.33 148.08 127.16 147.07 C 126.98 146.06 126.02 145.39 125.02 145.56 L 123.97 145.74 C 122.97 145.91 122.29 146.87 122.46 147.88 C 122.63 148.88 123.59 149.56 124.60 149.39 Z M 125.65 149.21 L 126.68 149.03 C 127.69 148.85 128.36 147.89 128.19 146.88 C 128.01 145.88 127.05 145.20 126.04 145.38 L 125.01 145.56 C 124.00 145.74 123.33 146.70 123.50 147.71 C 123.68 148.71 124.64 149.39 125.65 149.21 Z M 126.69 149.03 L 127.76 148.83 C 128.77 148.65 129.44 147.69 129.25 146.68 C 129.07 145.67 128.11 145.01 127.10 145.19 L 126.03 145.38 C 125.03 145.56 124.36 146.53 124.54 147.53 C 124.72 148.54 125.68 149.21 126.69 149.03 Z M 127.77 148.83 L 128.89 148.62 C 129.90 148.44 130.56 147.47 130.38 146.46 C 130.19 145.46 129.22 144.79 128.22 144.98 L 127.09 145.19 C 126.09 145.38 125.42 146.34 125.61 147.35 C 125.80 148.35 126.76 149.02 127.77 148.83 Z M 128.90 148.62 L 130.00 148.41 C 131.00 148.22 131.66 147.25 131.47 146.24 C 131.28 145.24 130.31 144.58 129.31 144.77 L 128.21 144.98 C 127.20 145.18 126.55 146.15 126.74 147.15 C 126.93 148.15 127.90 148.81 128.90 148.62 Z M 130.01 148.41 L 131.08 148.20 C 132.08 148.00 132.73 147.03 132.53 146.03 C 132.34 145.02 131.37 144.37 130.36 144.57 L 129.30 144.78 C 128.29 144.97 127.64 145.95 127.84 146.95 C 128.04 147.95 129.01 148.60 130.01 148.41 Z M 131.08 148.19 L 132.12 147.99 C 133.12 147.79 133.77 146.81 133.57 145.81 C 133.36 144.81 132.39 144.16 131.39 144.36 L 130.36 144.57 C 129.35 144.77 128.71 145.75 128.91 146.75 C 129.11 147.75 130.08 148.40 131.08 148.19 Z M 132.13 147.98 L 133.12 147.78 C 134.12 147.57 134.77 146.60 134.56 145.60 C 134.35 144.60 133.38 143.95 132.38 144.16 L 131.38 144.37 C 130.38 144.57 129.74 145.55 129.94 146.55 C 130.15 147.55 131.13 148.19 132.13 147.98 Z M 133.13 147.78 L 134.09 147.57 C 135.09 147.36 135.73 146.39 135.52 145.39 C 135.31 144.39 134.33 143.75 133.33 143.96 L 132.37 144.16 C 131.37 144.37 130.73 145.35 130.94 146.35 C 131.15 147.35 132.13 147.99 133.13 147.78 Z M 134.10 147.57 L 135.01 147.37 C 136.01 147.16 136.64 146.18 136.43 145.18 C 136.22 144.19 135.23 143.55 134.24 143.77 L 133.32 143.96 C 132.32 144.18 131.69 145.16 131.90 146.16 C 132.12 147.15 133.10 147.79 134.10 147.57 Z M 135.02 147.37 L 135.89 147.18 C 136.89 146.96 137.52 145.98 137.30 144.98 C 137.08 143.99 136.10 143.36 135.10 143.58 L 134.23 143.77 C 133.24 143.99 132.61 144.97 132.82 145.97 C 133.04 146.96 134.03 147.59 135.02 147.37 Z M 135.90 147.18 L 136.72 146.99 C 137.72 146.77 138.34 145.79 138.12 144.79 C 137.90 143.80 136.91 143.17 135.92 143.40 L 135.10 143.58 C 134.10 143.80 133.48 144.79 133.70 145.78 C 133.92 146.77 134.91 147.40 135.90 147.18 Z M 136.73 146.99 L 137.65 146.78 C 138.64 146.55 139.26 145.57 139.04 144.58 C 138.81 143.58 137.83 142.96 136.83 143.19 L 135.91 143.40 C 134.92 143.63 134.30 144.61 134.53 145.60 C 134.75 146.60 135.74 147.22 136.73 146.99 Z M 137.66 146.78 L 138.82 146.50 C 139.81 146.27 140.42 145.28 140.19 144.29 C 139.96 143.31 138.97 142.69 137.98 142.92 L 136.82 143.20 C 135.83 143.43 135.22 144.42 135.45 145.41 C 135.69 146.39 136.67 147.01 137.66 146.78 Z M 138.84 146.50 L 139.88 146.24 C 140.87 146.00 141.47 145.01 141.23 144.03 C 140.99 143.04 140.00 142.44 139.01 142.68 L 137.97 142.93 C 136.98 143.17 136.38 144.16 136.62 145.15 C 136.86 146.13 137.85 146.74 138.84 146.50 Z M 139.90 146.23 L 140.85 145.99 C 141.83 145.74 142.43 144.75 142.18 143.77 C 141.93 142.79 140.93 142.19 139.95 142.44 L 139.00 142.68 C 138.02 142.93 137.42 143.93 137.67 144.91 C 137.92 145.89 138.92 146.48 139.90 146.23 Z M 140.87 145.98 L 141.76 145.75 C 142.73 145.49 143.31 144.49 143.06 143.52 C 142.80 142.54 141.80 141.96 140.82 142.22 L 139.94 142.45 C 138.96 142.71 138.38 143.71 138.63 144.68 C 138.89 145.66 139.89 146.24 140.87 145.98 Z M 141.77 145.74 L 142.61 145.51 C 143.58 145.24 144.15 144.24 143.89 143.27 C 143.62 142.30 142.62 141.73 141.64 141.99 L 140.80 142.22 C 139.83 142.49 139.26 143.50 139.53 144.47 C 139.80 145.44 140.80 146.01 141.77 145.74 Z M 142.63 145.50 L 143.48 145.26 C 144.44 144.98 145.00 143.98 144.72 143.01 C 144.45 142.04 143.44 141.48 142.47 141.76 L 141.63 142.00 C 140.66 142.28 140.10 143.29 140.38 144.25 C 140.65 145.22 141.66 145.78 142.63 145.50 Z M 143.49 145.25 L 144.45 144.97 C 145.42 144.68 145.96 143.67 145.68 142.71 C 145.39 141.75 144.38 141.20 143.42 141.48 L 142.46 141.77 C 141.50 142.05 140.95 143.06 141.23 144.03 C 141.52 144.99 142.53 145.54 143.49 145.25 Z M 144.47 144.96 L 145.43 144.66 C 146.38 144.37 146.92 143.36 146.63 142.40 C 146.33 141.44 145.32 140.90 144.36 141.20 L 143.40 141.49 C 142.45 141.78 141.91 142.80 142.20 143.76 C 142.50 144.71 143.51 145.25 144.47 144.96 Z M 145.44 144.66 L 146.39 144.35 C 147.35 144.05 147.87 143.03 147.57 142.08 C 147.27 141.13 146.25 140.60 145.30 140.90 L 144.34 141.20 C 143.39 141.51 142.86 142.53 143.17 143.48 C 143.47 144.43 144.49 144.96 145.44 144.66 Z M 146.41 144.35 L 147.36 144.04 C 148.30 143.72 148.82 142.70 148.51 141.76 C 148.20 140.81 147.18 140.29 146.23 140.60 L 145.28 140.91 C 144.33 141.22 143.82 142.24 144.13 143.19 C 144.44 144.14 145.46 144.66 146.41 144.35 Z M 147.37 144.03 L 148.31 143.71 C 149.26 143.39 149.77 142.37 149.45 141.42 C 149.13 140.48 148.11 139.97 147.16 140.29 L 146.22 140.61 C 145.27 140.93 144.76 141.95 145.08 142.89 C 145.40 143.84 146.42 144.35 147.37 144.03 Z M 148.33 143.70 L 149.26 143.38 C 150.20 143.05 150.70 142.03 150.37 141.09 C 150.05 140.15 149.02 139.65 148.08 139.97 L 147.15 140.30 C 146.21 140.62 145.71 141.65 146.04 142.59 C 146.36 143.53 147.39 144.03 148.33 143.70 Z M 149.27 143.37 L 150.21 143.04 C 151.14 142.71 151.63 141.68 151.30 140.75 C 150.97 139.81 149.94 139.32 149.01 139.65 L 148.07 139.98 C 147.14 140.31 146.65 141.34 146.98 142.28 C 147.31 143.21 148.34 143.70 149.27 143.37 Z M 150.22 143.03 L 151.16 142.69 C 152.09 142.36 152.57 141.33 152.23 140.40 C 151.90 139.46 150.87 138.98 149.94 139.32 L 149.00 139.66 C 148.07 139.99 147.58 141.02 147.92 141.95 C 148.26 142.89 149.29 143.37 150.22 143.03 Z M 151.16 142.69 L 152.11 142.34 C 153.04 142.00 153.51 140.97 153.17 140.04 C 152.83 139.11 151.80 138.64 150.87 138.98 L 149.93 139.33 C 149.00 139.67 148.52 140.70 148.87 141.62 C 149.21 142.55 150.24 143.03 151.16 142.69 Z M 152.12 142.33 L 153.07 141.98 C 153.99 141.63 154.46 140.60 154.11 139.68 C 153.77 138.75 152.74 138.28 151.81 138.63 L 150.86 138.99 C 149.94 139.33 149.47 140.36 149.82 141.28 C 150.16 142.21 151.19 142.68 152.12 142.33 Z M 153.07 141.97 L 153.98 141.63 C 154.90 141.28 155.36 140.25 155.01 139.33 C 154.66 138.41 153.63 137.94 152.71 138.29 L 151.81 138.64 C 150.89 138.99 150.42 140.01 150.77 140.93 C 151.12 141.86 152.15 142.32 153.07 141.97 Z M 153.98 141.62 L 154.89 141.27 C 155.81 140.92 156.27 139.90 155.92 138.98 C 155.57 138.06 154.54 137.60 153.62 137.95 L 152.71 138.30 C 151.80 138.65 151.34 139.68 151.69 140.59 C 152.04 141.51 153.06 141.97 153.98 141.62 Z M 154.89 141.27 L 155.81 140.91 C 156.72 140.57 157.18 139.54 156.83 138.63 C 156.49 137.72 155.46 137.26 154.55 137.61 L 153.63 137.96 C 152.71 138.31 152.25 139.33 152.60 140.24 C 152.95 141.15 153.97 141.61 154.89 141.27 Z M 155.80 140.91 L 156.75 140.55 C 157.66 140.21 158.12 139.19 157.77 138.28 C 157.43 137.37 156.41 136.91 155.50 137.25 L 154.56 137.61 C 153.65 137.95 153.19 138.97 153.53 139.88 C 153.87 140.79 154.89 141.25 155.80 140.91 Z M 156.73 140.55 L 157.70 140.20 C 158.61 139.86 159.07 138.85 158.74 137.94 C 158.40 137.03 157.39 136.56 156.48 136.90 L 155.51 137.26 C 154.60 137.59 154.14 138.61 154.48 139.52 C 154.81 140.43 155.82 140.89 156.73 140.55 Z M 157.68 140.19 L 158.65 139.84 C 159.56 139.52 160.03 138.51 159.70 137.60 C 159.37 136.69 158.37 136.22 157.46 136.55 L 156.49 136.90 C 155.58 137.23 155.11 138.23 155.44 139.14 C 155.77 140.05 156.77 140.52 157.68 140.19 Z M 158.64 139.84 L 159.57 139.51 C 160.48 139.19 160.96 138.19 160.64 137.29 C 160.31 136.38 159.32 135.90 158.41 136.22 L 157.47 136.55 C 156.56 136.87 156.09 137.87 156.41 138.78 C 156.73 139.69 157.73 140.16 158.64 139.84 Z M 159.56 139.51 L 160.51 139.18 C 161.42 138.86 161.90 137.87 161.58 136.96 C 161.27 136.06 160.28 135.58 159.37 135.89 L 158.42 136.22 C 157.51 136.54 157.03 137.53 157.35 138.44 C 157.66 139.35 158.66 139.83 159.56 139.51 Z M 160.51 139.18 L 161.46 138.84 C 162.37 138.53 162.85 137.54 162.53 136.64 C 162.22 135.73 161.23 135.25 160.33 135.57 L 159.37 135.90 C 158.47 136.21 157.99 137.20 158.30 138.10 C 158.61 139.01 159.60 139.49 160.51 139.18 Z M 161.46 138.84 L 162.42 138.51 C 163.32 138.19 163.79 137.21 163.48 136.31 C 163.17 135.41 162.18 134.93 161.28 135.24 L 160.33 135.57 C 159.43 135.89 158.95 136.87 159.26 137.77 C 159.58 138.67 160.56 139.15 161.46 138.84 Z M 162.42 138.50 L 163.36 138.17 C 164.26 137.85 164.73 136.87 164.42 135.97 C 164.10 135.07 163.12 134.60 162.22 134.92 L 161.28 135.25 C 160.38 135.56 159.91 136.55 160.22 137.45 C 160.54 138.34 161.52 138.82 162.42 138.50 Z M 163.37 138.16 L 164.27 137.84 C 165.17 137.52 165.63 136.53 165.31 135.64 C 164.99 134.75 164.01 134.28 163.12 134.60 L 162.21 134.93 C 161.32 135.25 160.85 136.23 161.17 137.12 C 161.49 138.02 162.48 138.48 163.37 138.16 Z M 164.28 137.83 L 165.14 137.51 C 166.03 137.19 166.48 136.21 166.16 135.32 C 165.83 134.43 164.85 133.97 163.96 134.30 L 163.11 134.61 C 162.22 134.94 161.76 135.92 162.09 136.81 C 162.41 137.70 163.40 138.15 164.28 137.83 Z M 165.14 137.51 L 166.01 137.19 C 166.89 136.86 167.34 135.88 167.01 134.99 C 166.69 134.11 165.70 133.66 164.82 133.98 L 163.96 134.30 C 163.07 134.63 162.62 135.61 162.95 136.50 C 163.28 137.38 164.26 137.84 165.14 137.51 Z M 166.00 137.19 L 166.89 136.86 C 167.78 136.53 168.23 135.55 167.90 134.67 C 167.58 133.79 166.60 133.33 165.71 133.66 L 164.82 133.99 C 163.94 134.31 163.49 135.29 163.81 136.18 C 164.14 137.06 165.12 137.51 166.00 137.19 Z M 166.89 136.85 L 167.83 136.51 C 168.71 136.19 169.16 135.21 168.84 134.33 C 168.52 133.45 167.54 133.00 166.66 133.32 L 165.72 133.66 C 164.84 133.98 164.38 134.96 164.71 135.84 C 165.03 136.72 166.00 137.18 166.89 136.85 Z M 167.81 136.51 L 168.82 136.15 C 169.71 135.83 170.16 134.86 169.85 133.98 C 169.53 133.10 168.56 132.64 167.68 132.96 L 166.67 133.32 C 165.79 133.63 165.33 134.60 165.65 135.49 C 165.96 136.37 166.93 136.83 167.81 136.51 Z M 168.81 136.15 L 169.91 135.77 C 170.79 135.46 171.26 134.49 170.95 133.61 C 170.64 132.73 169.68 132.27 168.80 132.57 L 167.70 132.96 C 166.82 133.26 166.35 134.23 166.66 135.11 C 166.96 135.99 167.93 136.46 168.81 136.15 Z M 169.90 135.77 L 170.74 135.48 C 171.63 135.18 172.10 134.22 171.80 133.34 C 171.50 132.46 170.54 131.99 169.66 132.29 L 168.81 132.57 C 167.93 132.87 167.46 133.83 167.76 134.71 C 168.06 135.59 169.02 136.07 169.90 135.77 Z M 170.73 135.48 L 171.61 135.19 C 172.50 134.89 172.97 133.94 172.68 133.06 C 172.38 132.17 171.43 131.70 170.55 131.99 L 169.67 132.29 C 168.79 132.58 168.31 133.53 168.60 134.42 C 168.90 135.30 169.85 135.77 170.73 135.48 Z M 171.61 135.19 L 172.53 134.88 C 173.41 134.59 173.89 133.64 173.60 132.76 C 173.31 131.88 172.36 131.40 171.48 131.69 L 170.56 131.99 C 169.68 132.28 169.20 133.23 169.48 134.11 C 169.77 134.99 170.72 135.47 171.61 135.19 Z M 172.52 134.88 L 173.47 134.58 C 174.35 134.29 174.84 133.35 174.55 132.46 C 174.27 131.58 173.32 131.10 172.44 131.38 L 171.49 131.69 C 170.61 131.97 170.12 132.92 170.41 133.80 C 170.69 134.68 171.64 135.17 172.52 134.88 Z M 173.46 134.57 L 174.44 134.26 C 175.32 133.98 175.81 133.04 175.53 132.16 C 175.25 131.28 174.31 130.79 173.43 131.07 L 172.45 131.38 C 171.57 131.66 171.08 132.60 171.36 133.49 C 171.64 134.37 172.58 134.85 173.46 134.57 Z M 174.43 134.26 L 175.43 133.95 C 176.31 133.68 176.80 132.74 176.52 131.86 C 176.25 130.98 175.31 130.49 174.43 130.76 L 173.44 131.07 C 172.55 131.35 172.06 132.29 172.34 133.17 C 172.61 134.05 173.55 134.54 174.43 134.26 Z M 175.42 133.95 L 176.42 133.64 C 177.30 133.37 177.80 132.44 177.53 131.56 C 177.26 130.68 176.32 130.18 175.44 130.45 L 174.44 130.76 C 173.56 131.03 173.06 131.97 173.33 132.85 C 173.61 133.73 174.54 134.22 175.42 133.95 Z M 176.41 133.64 L 177.42 133.34 C 178.30 133.07 178.80 132.14 178.53 131.26 C 178.27 130.38 177.34 129.88 176.46 130.15 L 175.45 130.45 C 174.57 130.72 174.07 131.65 174.34 132.53 C 174.60 133.41 175.53 133.91 176.41 133.64 Z M 177.41 133.34 L 178.41 133.04 C 179.29 132.78 179.79 131.86 179.53 130.98 C 179.27 130.10 178.34 129.59 177.46 129.86 L 176.47 130.15 C 175.58 130.41 175.08 131.34 175.34 132.22 C 175.60 133.10 176.53 133.60 177.41 133.34 Z M 178.40 133.04 L 179.42 132.74 C 180.30 132.49 180.81 131.57 180.55 130.69 C 180.30 129.81 179.38 129.30 178.50 129.56 L 177.47 129.86 C 176.59 130.11 176.09 131.03 176.34 131.91 C 176.60 132.79 177.52 133.30 178.40 133.04 Z M 179.41 132.74 L 180.42 132.46 C 181.30 132.21 181.81 131.29 181.57 130.41 C 181.32 129.54 180.40 129.03 179.52 129.27 L 178.51 129.56 C 177.63 129.81 177.12 130.72 177.37 131.60 C 177.62 132.48 178.53 132.99 179.41 132.74 Z M 180.41 132.45 L 181.41 132.18 C 182.29 131.94 182.80 131.03 182.56 130.16 C 182.32 129.28 181.42 128.76 180.54 129.00 L 179.54 129.28 C 178.66 129.52 178.15 130.42 178.39 131.30 C 178.63 132.18 179.53 132.69 180.41 132.45 Z M 181.39 132.18 L 182.38 131.92 C 183.25 131.69 183.78 130.79 183.54 129.91 C 183.31 129.04 182.41 128.51 181.54 128.74 L 180.55 129.00 C 179.68 129.23 179.15 130.13 179.39 131.01 C 179.62 131.89 180.52 132.41 181.39 132.18 Z M 182.36 131.92 L 183.33 131.67 C 184.20 131.45 184.73 130.56 184.51 129.69 C 184.29 128.81 183.40 128.28 182.53 128.50 L 181.56 128.74 C 180.68 128.97 180.15 129.85 180.37 130.73 C 180.59 131.61 181.48 132.14 182.36 131.92 Z M 183.30 131.67 L 184.26 131.45 C 185.13 131.24 185.67 130.36 185.47 129.48 C 185.26 128.61 184.38 128.06 183.50 128.27 L 182.55 128.50 C 181.67 128.71 181.13 129.59 181.34 130.47 C 181.55 131.34 182.43 131.88 183.30 131.67 Z M 184.23 131.45 L 185.17 131.24 C 186.05 131.04 186.60 130.17 186.41 129.30 C 186.21 128.42 185.34 127.87 184.47 128.06 L 183.53 128.27 C 182.65 128.47 182.10 129.34 182.29 130.21 C 182.49 131.09 183.36 131.64 184.23 131.45 Z M 185.15 131.24 L 186.08 131.04 C 186.95 130.86 187.52 130.01 187.33 129.13 C 187.15 128.25 186.30 127.69 185.42 127.87 L 184.49 128.06 C 183.62 128.24 183.05 129.10 183.23 129.98 C 183.41 130.85 184.27 131.42 185.15 131.24 Z M 186.05 131.04 L 186.98 130.87 C 187.85 130.71 188.43 129.86 188.26 128.99 C 188.10 128.11 187.26 127.53 186.38 127.70 L 185.45 127.87 C 184.57 128.04 184.00 128.88 184.16 129.76 C 184.33 130.63 185.17 131.21 186.05 131.04 Z M 186.94 130.87 L 187.96 130.70 C 188.84 130.55 189.43 129.72 189.29 128.85 C 189.14 127.97 188.31 127.38 187.43 127.53 L 186.41 127.70 C 185.54 127.84 184.94 128.67 185.09 129.55 C 185.24 130.43 186.07 131.02 186.94 130.87 Z M 187.93 130.70 L 188.94 130.55 C 189.82 130.42 190.43 129.61 190.30 128.73 C 190.17 127.85 189.35 127.25 188.48 127.38 L 187.47 127.52 C 186.59 127.65 185.98 128.47 186.11 129.35 C 186.24 130.22 187.06 130.83 187.93 130.70 Z M 188.91 130.55 L 189.91 130.42 C 190.79 130.31 191.41 129.51 191.29 128.63 C 191.18 127.75 190.38 127.13 189.50 127.25 L 188.50 127.38 C 187.63 127.49 187.01 128.29 187.12 129.17 C 187.24 130.05 188.04 130.67 188.91 130.55 Z M 189.89 130.42 L 190.88 130.31 C 191.76 130.21 192.38 129.41 192.28 128.54 C 192.18 127.66 191.39 127.03 190.51 127.13 L 189.52 127.25 C 188.65 127.35 188.02 128.14 188.12 129.02 C 188.22 129.89 189.01 130.52 189.89 130.42 Z M 190.86 130.30 L 191.84 130.20 C 192.72 130.11 193.35 129.33 193.26 128.45 C 193.17 127.58 192.39 126.94 191.51 127.03 L 190.53 127.14 C 189.66 127.23 189.02 128.01 189.11 128.89 C 189.20 129.76 189.99 130.40 190.86 130.30 Z M 191.83 130.20 L 192.81 130.11 C 193.68 130.02 194.32 129.25 194.24 128.37 C 194.15 127.50 193.38 126.86 192.51 126.94 L 191.53 127.04 C 190.65 127.12 190.01 127.90 190.10 128.77 C 190.18 129.64 190.96 130.28 191.83 130.20 Z M 192.80 130.10 L 193.77 130.01 C 194.65 129.94 195.29 129.17 195.21 128.29 C 195.13 127.42 194.36 126.78 193.49 126.86 L 192.51 126.95 C 191.64 127.03 191.00 127.80 191.08 128.67 C 191.16 129.54 191.93 130.18 192.80 130.10 Z M 193.77 130.01 L 194.34 129.96 C 195.21 129.88 195.85 129.12 195.77 128.25 C 195.70 127.38 194.93 126.74 194.06 126.81 L 193.49 126.86 C 192.62 126.94 191.98 127.71 192.06 128.58 C 192.13 129.45 192.90 130.09 193.77 130.01 Z"
      fill="black"
      fill-rule="nonzero" /><path d="M 160.16 97.89 L 159.46 98.59 C 158.81 99.25 158.82 100.30 159.47 100.95 C 160.13 101.60 161.18 101.60 161.83 100.94 L 162.53 100.24 C 163.18 99.58 163.18 98.53 162.52 97.88 C 161.87 97.23 160.81 97.23 160.16 97.89 Z M 159.43 98.61 L 158.75 99.33 C 158.11 100.01 158.14 101.07 158.81 101.71 C 159.49 102.34 160.55 102.31 161.19 101.64 L 161.87 100.92 C 162.50 100.25 162.47 99.18 161.80 98.55 C 161.13 97.91 160.06 97.94 159.43 98.61 Z M 158.68 99.39 L 158.04 100.14 C 157.43 100.85 157.52 101.91 158.23 102.52 C 158.93 103.13 160.00 103.04 160.61 102.34 L 161.25 101.58 C 161.86 100.88 161.77 99.81 161.07 99.20 C 160.36 98.60 159.29 98.68 158.68 99.39 Z M 157.96 100.23 L 157.37 101.03 C 156.81 101.78 156.98 102.85 157.73 103.40 C 158.49 103.96 159.55 103.80 160.11 103.04 L 160.69 102.24 C 161.25 101.49 161.09 100.42 160.33 99.87 C 159.58 99.31 158.51 99.48 157.96 100.23 Z M 157.27 101.16 L 156.76 102.02 C 156.27 102.83 156.54 103.88 157.35 104.36 C 158.16 104.85 159.21 104.58 159.69 103.77 L 160.21 102.91 C 160.69 102.10 160.42 101.05 159.61 100.57 C 158.80 100.08 157.75 100.35 157.27 101.16 Z M 156.66 102.19 L 156.24 103.13 C 155.85 103.99 156.24 105.01 157.11 105.40 C 157.97 105.78 158.99 105.40 159.38 104.53 L 159.79 103.60 C 160.18 102.73 159.79 101.71 158.93 101.33 C 158.06 100.94 157.04 101.33 156.66 102.19 Z M 156.16 103.31 L 155.89 104.17 C 155.60 105.08 156.11 106.05 157.02 106.33 C 157.93 106.62 158.90 106.12 159.18 105.21 L 159.45 104.35 C 159.74 103.44 159.24 102.47 158.33 102.18 C 157.42 101.89 156.45 102.40 156.16 103.31 Z M 155.85 104.31 L 155.64 105.23 C 155.44 106.16 156.03 107.09 156.96 107.29 C 157.89 107.50 158.82 106.91 159.02 105.98 L 159.23 105.06 C 159.43 104.13 158.84 103.20 157.91 103.00 C 156.98 102.79 156.05 103.38 155.85 104.31 Z M 155.62 105.34 L 155.47 106.31 C 155.33 107.26 155.98 108.14 156.93 108.28 C 157.88 108.43 158.76 107.77 158.90 106.83 L 159.05 105.86 C 159.19 104.91 158.54 104.03 157.59 103.89 C 156.64 103.74 155.76 104.40 155.62 105.34 Z M 155.46 106.40 L 155.36 107.40 C 155.27 108.36 155.96 109.21 156.92 109.30 C 157.88 109.40 158.73 108.70 158.82 107.74 L 158.92 106.74 C 159.01 105.78 158.31 104.93 157.36 104.84 C 156.40 104.74 155.55 105.44 155.46 106.40 Z M 155.35 107.47 L 155.29 108.50 C 155.23 109.47 155.96 110.29 156.93 110.35 C 157.89 110.41 158.71 109.67 158.77 108.71 L 158.83 107.68 C 158.89 106.71 158.16 105.89 157.19 105.83 C 156.23 105.77 155.41 106.51 155.35 107.47 Z M 155.28 108.55 L 155.25 109.61 C 155.21 110.57 155.97 111.38 156.93 111.41 C 157.90 111.45 158.71 110.69 158.74 109.72 L 158.78 108.67 C 158.81 107.70 158.05 106.89 157.09 106.86 C 156.12 106.83 155.31 107.58 155.28 108.55 Z M 155.24 109.63 L 155.22 110.70 C 155.20 111.67 155.97 112.47 156.94 112.49 C 157.91 112.51 158.71 111.74 158.73 110.77 L 158.75 109.70 C 158.76 108.73 157.99 107.93 157.03 107.91 C 156.06 107.89 155.26 108.66 155.24 109.63 Z M 155.22 110.71 L 155.20 111.69 C 155.19 112.66 155.97 113.45 156.94 113.47 C 157.91 113.48 158.70 112.70 158.72 111.73 L 158.73 110.76 C 158.74 109.79 157.97 108.99 157.00 108.98 C 156.03 108.97 155.23 109.74 155.22 110.71 Z M 155.20 111.69 L 155.19 112.67 C 155.19 113.64 155.96 114.43 156.93 114.44 C 157.90 114.45 158.70 113.67 158.71 112.70 L 158.72 111.73 C 158.73 110.76 157.95 109.96 156.98 109.95 C 156.01 109.94 155.21 110.72 155.20 111.69 Z M 155.19 112.67 L 155.19 113.65 C 155.18 114.62 155.96 115.42 156.93 115.42 C 157.90 115.43 158.70 114.65 158.70 113.68 L 158.71 112.70 C 158.72 111.73 157.93 110.93 156.96 110.93 C 155.99 110.92 155.20 111.70 155.19 112.67 Z M 155.19 113.66 L 155.18 114.65 C 155.18 115.62 155.96 116.41 156.93 116.41 C 157.90 116.42 158.69 115.64 158.70 114.66 L 158.70 113.67 C 158.71 112.70 157.92 111.91 156.95 111.91 C 155.98 111.90 155.19 112.69 155.19 113.66 Z M 155.18 114.65 L 155.18 115.65 C 155.18 116.62 155.96 117.41 156.93 117.42 C 157.90 117.42 158.69 116.63 158.70 115.66 L 158.70 114.66 C 158.70 113.69 157.92 112.90 156.94 112.90 C 155.97 112.90 155.18 113.68 155.18 114.65 Z M 155.18 115.66 L 155.18 116.67 C 155.18 117.64 155.96 118.43 156.93 118.43 C 157.91 118.43 158.69 117.65 158.70 116.67 L 158.70 115.66 C 158.70 114.69 157.91 113.90 156.94 113.90 C 155.97 113.90 155.18 114.68 155.18 115.66 Z M 155.18 116.67 L 155.18 117.70 C 155.18 118.67 155.96 119.46 156.93 119.46 C 157.91 119.46 158.69 118.67 158.70 117.70 L 158.70 116.67 C 158.70 115.70 157.91 114.91 156.94 114.91 C 155.97 114.91 155.18 115.70 155.18 116.67 Z M 155.18 117.70 L 155.18 118.74 C 155.18 119.71 155.96 120.50 156.94 120.50 C 157.91 120.50 158.70 119.71 158.70 118.74 L 158.70 117.70 C 158.70 116.73 157.91 115.94 156.94 115.94 C 155.96 115.94 155.18 116.73 155.18 117.70 Z M 155.18 118.74 L 155.18 119.78 C 155.18 120.75 155.96 121.54 156.94 121.54 C 157.91 121.54 158.70 120.75 158.70 119.78 L 158.70 118.74 C 158.70 117.77 157.91 116.98 156.94 116.98 C 155.96 116.98 155.18 117.77 155.18 118.74 Z M 155.18 119.78 L 155.18 120.83 C 155.18 121.80 155.97 122.59 156.94 122.59 C 157.91 122.59 158.70 121.80 158.70 120.83 L 158.70 119.78 C 158.69 118.81 157.91 118.02 156.93 118.02 C 155.96 118.02 155.18 118.81 155.18 119.78 Z M 155.18 120.83 L 155.18 121.88 C 155.18 122.85 155.97 123.63 156.94 123.63 C 157.91 123.63 158.70 122.84 158.70 121.87 L 158.70 120.83 C 158.69 119.86 157.91 119.07 156.93 119.07 C 155.96 119.07 155.18 119.86 155.18 120.83 Z M 155.18 121.88 L 155.18 122.91 C 155.18 123.88 155.97 124.67 156.95 124.67 C 157.92 124.66 158.70 123.87 158.70 122.90 L 158.70 121.87 C 158.69 120.90 157.90 120.11 156.93 120.12 C 155.96 120.12 155.18 120.91 155.18 121.88 Z M 155.18 122.91 L 155.19 123.93 C 155.19 124.90 155.98 125.68 156.95 125.68 C 157.92 125.67 158.71 124.88 158.70 123.91 L 158.70 122.90 C 158.69 121.93 157.90 121.14 156.93 121.15 C 155.96 121.15 155.18 121.94 155.18 122.91 Z M 155.19 123.93 L 155.19 124.91 C 155.20 125.88 155.99 126.66 156.96 126.66 C 157.93 126.65 158.72 125.86 158.71 124.89 L 158.70 123.91 C 158.70 122.94 157.90 122.15 156.93 122.16 C 155.96 122.17 155.18 122.96 155.19 123.93 Z M 155.19 124.92 L 155.20 125.86 C 155.21 126.83 156.01 127.61 156.98 127.60 C 157.95 127.59 158.73 126.79 158.72 125.82 L 158.71 124.88 C 158.70 123.91 157.90 123.13 156.93 123.14 C 155.96 123.15 155.18 123.95 155.19 124.92 Z M 155.20 125.86 L 155.22 126.78 C 155.23 127.75 156.03 128.53 157.00 128.51 C 157.97 128.50 158.74 127.70 158.73 126.73 L 158.72 125.81 C 158.70 124.84 157.91 124.07 156.94 124.08 C 155.97 124.10 155.19 124.89 155.20 125.86 Z M 155.22 126.79 L 155.24 127.93 C 155.26 128.90 156.06 129.67 157.03 129.65 C 158.00 129.63 158.77 128.83 158.75 127.86 L 158.73 126.72 C 158.71 125.75 157.91 124.98 156.94 125.00 C 155.97 125.02 155.20 125.82 155.22 126.79 Z M 155.25 127.94 L 155.27 129.00 C 155.30 129.97 156.10 130.73 157.07 130.70 C 158.04 130.68 158.80 129.87 158.78 128.90 L 158.75 127.85 C 158.72 126.88 157.92 126.12 156.95 126.15 C 155.98 126.17 155.22 126.98 155.25 127.94 Z M 155.28 129.01 L 155.31 129.99 C 155.34 130.96 156.15 131.72 157.11 131.69 C 158.08 131.65 158.84 130.85 158.80 129.88 L 158.77 128.89 C 158.74 127.93 157.93 127.17 156.97 127.20 C 156.00 127.24 155.25 128.04 155.28 129.01 Z M 155.31 130.00 L 155.35 130.94 C 155.38 131.91 156.19 132.66 157.16 132.62 C 158.12 132.59 158.87 131.78 158.84 130.81 L 158.80 129.87 C 158.77 128.91 157.95 128.16 156.99 128.19 C 156.03 128.23 155.28 129.04 155.31 130.00 Z M 155.35 130.95 L 155.39 131.87 C 155.43 132.83 156.24 133.58 157.20 133.54 C 158.16 133.50 158.91 132.69 158.87 131.72 L 158.83 130.81 C 158.79 129.85 157.98 129.10 157.02 129.14 C 156.06 129.18 155.31 129.99 155.35 130.95 Z M 155.39 131.87 L 155.43 132.80 C 155.47 133.76 156.28 134.51 157.24 134.47 C 158.20 134.43 158.95 133.62 158.91 132.66 L 158.87 131.72 C 158.83 130.76 158.02 130.02 157.06 130.06 C 156.10 130.10 155.35 130.91 155.39 131.87 Z M 155.43 132.80 L 155.47 133.78 C 155.51 134.74 156.32 135.49 157.28 135.45 C 158.24 135.41 158.98 134.60 158.94 133.64 L 158.90 132.66 C 158.86 131.70 158.06 130.95 157.10 130.99 C 156.14 131.03 155.39 131.84 155.43 132.80 Z M 155.48 133.78 L 155.52 134.78 C 155.56 135.73 156.36 136.48 157.32 136.44 C 158.28 136.40 159.02 135.59 158.98 134.64 L 158.94 133.64 C 158.90 132.68 158.10 131.94 157.14 131.98 C 156.18 132.02 155.44 132.82 155.48 133.78 Z M 155.52 134.78 L 155.56 135.78 C 155.60 136.73 156.40 137.48 157.36 137.44 C 158.32 137.40 159.06 136.60 159.02 135.64 L 158.98 134.64 C 158.94 133.68 158.14 132.94 157.18 132.97 C 156.22 133.01 155.48 133.82 155.52 134.78 Z M 155.56 135.78 L 155.60 136.79 C 155.64 137.74 156.45 138.48 157.40 138.45 C 158.35 138.41 159.10 137.60 159.06 136.65 L 159.02 135.64 C 158.98 134.68 158.18 133.94 157.22 133.98 C 156.27 134.02 155.52 134.82 155.56 135.78 Z M 155.60 136.79 L 155.64 137.80 C 155.68 138.75 156.49 139.49 157.44 139.46 C 158.39 139.42 159.14 138.61 159.10 137.66 L 159.06 136.65 C 159.02 135.70 158.22 134.95 157.26 134.99 C 156.31 135.03 155.57 135.83 155.60 136.79 Z M 155.65 137.80 L 155.69 138.78 C 155.72 139.74 156.53 140.48 157.48 140.44 C 158.43 140.40 159.17 139.60 159.13 138.65 L 159.10 137.66 C 159.06 136.71 158.25 135.97 157.30 136.01 C 156.35 136.04 155.61 136.85 155.65 137.80 Z M 155.69 138.78 L 155.73 139.76 C 155.76 140.72 156.56 141.46 157.51 141.42 C 158.47 141.38 159.21 140.58 159.17 139.63 L 159.13 138.65 C 159.10 137.70 158.29 136.96 157.34 136.99 C 156.39 137.03 155.65 137.83 155.69 138.78 Z M 155.73 139.76 L 155.76 140.75 C 155.80 141.70 156.60 142.44 157.55 142.41 C 158.50 142.37 159.24 141.58 159.20 140.63 L 159.17 139.64 C 159.13 138.69 158.34 137.94 157.39 137.98 C 156.44 138.01 155.69 138.81 155.73 139.76 Z M 155.77 140.74 L 155.80 141.74 C 155.83 142.69 156.62 143.44 157.57 143.41 C 158.52 143.38 159.26 142.58 159.23 141.63 L 159.20 140.63 C 159.17 139.68 158.38 138.94 157.43 138.97 C 156.48 139.00 155.74 139.80 155.77 140.74 Z M 155.80 141.74 L 155.83 142.75 C 155.85 143.70 156.64 144.45 157.59 144.42 C 158.54 144.39 159.28 143.61 159.26 142.66 L 159.23 141.64 C 159.21 140.70 158.42 139.95 157.47 139.97 C 156.52 140.00 155.78 140.79 155.80 141.74 Z M 155.83 142.74 L 155.85 143.76 C 155.87 144.71 156.65 145.46 157.60 145.44 C 158.55 145.42 159.30 144.64 159.28 143.69 L 159.26 142.67 C 159.24 141.72 158.45 140.97 157.51 140.99 C 156.56 141.01 155.81 141.79 155.83 142.74 Z M 155.85 143.75 L 155.87 144.74 C 155.88 145.69 156.66 146.44 157.60 146.43 C 158.55 146.41 159.30 145.64 159.29 144.69 L 159.28 143.70 C 159.26 142.76 158.48 142.00 157.54 142.01 C 156.60 142.03 155.84 142.80 155.85 143.75 Z M 155.87 144.73 L 155.88 145.74 C 155.89 146.68 156.66 147.44 157.60 147.43 C 158.55 147.42 159.30 146.65 159.30 145.71 L 159.29 144.70 C 159.28 143.76 158.51 143.00 157.56 143.01 C 156.62 143.02 155.86 143.79 155.87 144.73 Z M 155.88 145.73 L 155.89 146.74 C 155.89 147.68 156.66 148.44 157.60 148.44 C 158.54 148.43 159.30 147.66 159.30 146.72 L 159.29 145.71 C 159.29 144.77 158.52 144.01 157.58 144.02 C 156.64 144.02 155.88 144.79 155.88 145.73 Z M 155.89 146.74 L 155.90 147.74 C 155.90 148.68 156.66 149.44 157.60 149.44 C 158.54 149.44 159.30 148.67 159.30 147.73 L 159.30 146.73 C 159.29 145.79 158.53 145.03 157.59 145.03 C 156.65 145.03 155.89 145.80 155.89 146.74 Z M 155.90 147.74 L 155.90 148.74 C 155.90 149.68 156.66 150.44 157.60 150.44 C 158.54 150.43 159.30 149.67 159.30 148.74 L 159.29 147.74 C 159.29 146.80 158.53 146.04 157.60 146.04 C 156.66 146.04 155.90 146.80 155.90 147.74 Z M 155.90 148.74 L 155.90 149.74 C 155.90 150.67 156.66 151.43 157.60 151.43 C 158.53 151.43 159.29 150.67 159.29 149.74 L 159.29 148.74 C 159.29 147.80 158.53 147.04 157.60 147.04 C 156.66 147.04 155.90 147.80 155.90 148.74 Z M 155.91 149.74 L 155.91 150.75 C 155.91 151.69 156.66 152.45 157.60 152.45 C 158.53 152.45 159.29 151.69 159.29 150.75 L 159.29 149.74 C 159.29 148.80 158.53 148.05 157.60 148.05 C 156.66 148.05 155.91 148.80 155.91 149.74 Z M 155.91 150.75 L 155.91 151.76 C 155.91 152.69 156.67 153.45 157.60 153.45 C 158.53 153.45 159.29 152.69 159.29 151.76 L 159.29 150.75 C 159.29 149.82 158.53 149.07 157.60 149.07 C 156.67 149.07 155.91 149.82 155.91 150.75 Z M 155.91 151.76 L 155.91 152.75 C 155.91 153.68 156.67 154.44 157.60 154.44 C 158.53 154.44 159.28 153.68 159.28 152.75 L 159.28 151.76 C 159.28 150.83 158.53 150.07 157.60 150.07 C 156.67 150.07 155.91 150.83 155.91 151.76 Z M 155.92 152.75 L 155.92 153.74 C 155.92 154.67 156.67 155.42 157.60 155.42 C 158.53 155.42 159.28 154.67 159.28 153.74 L 159.28 152.75 C 159.28 151.82 158.53 151.07 157.60 151.07 C 156.67 151.07 155.92 151.82 155.92 152.75 Z M 155.92 153.74 L 155.92 154.73 C 155.92 155.66 156.67 156.41 157.60 156.41 C 158.52 156.41 159.27 155.66 159.27 154.73 L 159.27 153.74 C 159.27 152.82 158.52 152.06 157.60 152.06 C 156.67 152.06 155.92 152.82 155.92 153.74 Z M 155.92 154.73 L 155.92 155.73 C 155.92 156.65 156.67 157.40 157.60 157.40 C 158.52 157.40 159.27 156.65 159.27 155.73 L 159.27 154.73 C 159.27 153.81 158.52 153.06 157.60 153.06 C 156.67 153.06 155.92 153.81 155.92 154.73 Z M 155.93 155.73 L 155.93 156.73 C 155.93 157.65 156.68 158.39 157.60 158.39 C 158.52 158.39 159.27 157.65 159.27 156.73 L 159.27 155.73 C 159.27 154.80 158.52 154.06 157.60 154.06 C 156.68 154.06 155.93 154.80 155.93 155.73 Z M 155.93 156.73 L 155.93 157.73 C 155.93 158.65 156.68 159.39 157.60 159.39 C 158.52 159.39 159.26 158.65 159.26 157.73 L 159.26 156.73 C 159.26 155.81 158.52 155.06 157.60 155.06 C 156.68 155.06 155.93 155.81 155.93 156.73 Z M 155.94 157.73 L 155.94 158.73 C 155.94 159.65 156.68 160.39 157.60 160.39 C 158.51 160.39 159.26 159.65 159.26 158.73 L 159.26 157.73 C 159.26 156.81 158.51 156.07 157.60 156.07 C 156.68 156.07 155.94 156.81 155.94 157.73 Z M 155.94 158.73 L 155.94 159.73 C 155.94 160.65 156.68 161.39 157.60 161.39 C 158.51 161.39 159.25 160.65 159.25 159.73 L 159.25 158.73 C 159.25 157.82 158.51 157.07 157.60 157.07 C 156.68 157.07 155.94 157.82 155.94 158.73 Z M 155.94 159.73 L 155.94 160.73 C 155.94 161.64 156.68 162.38 157.60 162.38 C 158.51 162.38 159.25 161.64 159.25 160.73 L 159.25 159.73 C 159.25 158.82 158.51 158.08 157.60 158.08 C 156.68 158.08 155.94 158.82 155.94 159.73 Z M 155.95 160.73 L 155.95 161.72 C 155.95 162.64 156.68 163.37 157.60 163.37 C 158.51 163.37 159.25 162.64 159.25 161.73 L 159.25 160.73 C 159.25 159.82 158.51 159.08 157.60 159.08 C 156.69 159.08 155.95 159.82 155.95 160.73 Z M 155.95 161.72 L 155.95 162.71 C 155.94 163.62 156.68 164.36 157.59 164.36 C 158.49 164.37 159.23 163.63 159.24 162.73 L 159.24 161.73 C 159.25 160.82 158.51 160.08 157.60 160.08 C 156.69 160.08 155.96 160.81 155.95 161.72 Z M 155.95 162.70 L 155.94 163.69 C 155.93 164.60 156.66 165.34 157.56 165.35 C 158.47 165.36 159.21 164.64 159.22 163.73 L 159.23 162.74 C 159.24 161.83 158.52 161.09 157.61 161.08 C 156.71 161.07 155.96 161.79 155.95 162.70 Z M 155.94 163.68 L 155.92 164.67 C 155.90 165.58 156.62 166.33 157.52 166.35 C 158.43 166.37 159.18 165.65 159.20 164.75 L 159.22 163.75 C 159.24 162.85 158.52 162.10 157.62 162.08 C 156.71 162.06 155.96 162.77 155.94 163.68 Z M 155.93 164.65 L 155.89 165.66 C 155.86 166.56 156.56 167.31 157.46 167.35 C 158.36 167.38 159.12 166.68 159.15 165.78 L 159.19 164.77 C 159.22 163.87 158.52 163.11 157.62 163.08 C 156.72 163.05 155.96 163.75 155.93 164.65 Z M 155.89 165.63 L 155.84 166.63 C 155.79 167.53 156.48 168.30 157.38 168.35 C 158.28 168.39 159.04 167.71 159.09 166.81 L 159.15 165.81 C 159.20 164.91 158.51 164.14 157.61 164.09 C 156.71 164.04 155.94 164.73 155.89 165.63 Z M 155.85 166.60 L 155.77 167.58 C 155.71 168.48 156.38 169.26 157.28 169.32 C 158.17 169.39 158.95 168.72 159.02 167.82 L 159.09 166.84 C 159.15 165.94 158.48 165.16 157.59 165.10 C 156.69 165.03 155.91 165.70 155.85 166.60 Z M 155.78 167.56 L 155.69 168.55 C 155.61 169.44 156.27 170.23 157.16 170.31 C 158.05 170.39 158.84 169.73 158.92 168.84 L 159.01 167.85 C 159.09 166.96 158.43 166.17 157.54 166.09 C 156.65 166.01 155.86 166.67 155.78 167.56 Z M 155.70 168.52 L 155.59 169.52 C 155.50 170.41 156.14 171.21 157.03 171.30 C 157.92 171.40 158.71 170.75 158.81 169.87 L 158.91 168.87 C 159.01 167.98 158.36 167.18 157.48 167.09 C 156.59 166.99 155.79 167.64 155.70 168.52 Z M 155.60 169.50 L 155.47 170.50 C 155.37 171.38 156.00 172.19 156.88 172.30 C 157.77 172.40 158.57 171.77 158.68 170.89 L 158.80 169.89 C 158.91 169.00 158.28 168.20 157.39 168.09 C 156.51 167.98 155.70 168.61 155.60 169.50 Z M 155.48 170.48 L 155.35 171.48 C 155.22 172.36 155.84 173.17 156.72 173.29 C 157.60 173.41 158.42 172.79 158.54 171.91 L 158.67 170.91 C 158.79 170.03 158.18 169.22 157.29 169.10 C 156.41 168.98 155.60 169.60 155.48 170.48 Z M 155.35 171.45 L 155.21 172.39 C 155.08 173.27 155.68 174.08 156.56 174.21 C 157.44 174.35 158.26 173.74 158.39 172.86 L 158.53 171.93 C 158.66 171.05 158.06 170.24 157.18 170.10 C 156.30 169.97 155.48 170.58 155.35 171.45 Z M 155.22 172.37 L 155.08 173.23 C 154.94 174.11 155.53 174.93 156.41 175.07 C 157.28 175.22 158.10 174.62 158.24 173.75 L 158.38 172.88 C 158.53 172.01 157.93 171.18 157.06 171.04 C 156.18 170.90 155.36 171.50 155.22 172.37 Z M 155.08 173.22 L 154.93 174.11 C 154.78 174.98 155.37 175.81 156.24 175.96 C 157.11 176.10 157.94 175.52 158.09 174.65 L 158.24 173.76 C 158.39 172.89 157.80 172.06 156.93 171.91 C 156.06 171.76 155.23 172.35 155.08 173.22 Z M 154.94 174.10 L 154.77 175.03 C 154.62 175.90 155.20 176.72 156.07 176.88 C 156.94 177.03 157.76 176.45 157.92 175.58 L 158.08 174.66 C 158.24 173.79 157.66 172.96 156.79 172.80 C 155.92 172.65 155.09 173.23 154.94 174.10 Z M 154.78 175.02 L 154.60 176.01 C 154.44 176.87 155.01 177.70 155.88 177.86 C 156.75 178.02 157.58 177.44 157.74 176.58 L 157.91 175.59 C 158.07 174.72 157.50 173.89 156.63 173.74 C 155.76 173.58 154.93 174.15 154.78 175.02 Z M 154.60 176.00 L 154.41 177.07 C 154.25 177.93 154.82 178.76 155.68 178.92 C 156.55 179.08 157.38 178.51 157.54 177.64 L 157.73 176.58 C 157.89 175.71 157.32 174.88 156.45 174.72 C 155.59 174.57 154.76 175.14 154.60 176.00 Z M 154.41 177.07 L 154.20 178.23 C 154.04 179.09 154.61 179.92 155.47 180.08 C 156.34 180.23 157.17 179.66 157.32 178.80 L 157.54 177.64 C 157.69 176.78 157.12 175.95 156.26 175.79 C 155.39 175.63 154.57 176.20 154.41 177.07 Z M 154.20 178.23 L 154.02 179.18 C 153.87 180.04 154.44 180.87 155.30 181.03 C 156.17 181.18 156.99 180.61 157.15 179.75 L 157.32 178.80 C 157.48 177.93 156.91 177.11 156.04 176.95 C 155.18 176.79 154.35 177.37 154.20 178.23 Z M 154.03 179.18 L 153.87 180.04 C 153.72 180.90 154.29 181.73 155.15 181.88 C 156.01 182.04 156.84 181.47 156.99 180.60 L 157.15 179.75 C 157.30 178.89 156.73 178.06 155.87 177.91 C 155.01 177.75 154.18 178.32 154.03 179.18 Z M 153.87 180.04 L 153.71 180.94 C 153.55 181.80 154.13 182.63 154.99 182.78 C 155.85 182.94 156.67 182.36 156.83 181.50 L 156.99 180.60 C 157.15 179.74 156.57 178.92 155.71 178.76 C 154.85 178.61 154.03 179.18 153.87 180.04 Z M 153.71 180.94 L 153.54 181.88 C 153.39 182.74 153.96 183.56 154.82 183.72 C 155.68 183.87 156.50 183.30 156.66 182.44 L 156.83 181.50 C 156.98 180.64 156.41 179.82 155.55 179.66 C 154.69 179.51 153.87 180.08 153.71 180.94 Z M 153.54 181.87 L 153.37 182.84 C 153.21 183.70 153.78 184.53 154.64 184.68 C 155.50 184.84 156.32 184.27 156.48 183.41 L 156.66 182.44 C 156.81 181.58 156.24 180.76 155.38 180.60 C 154.52 180.45 153.70 181.01 153.54 181.87 Z M 153.37 182.84 L 153.18 183.84 C 153.03 184.70 153.59 185.52 154.45 185.68 C 155.31 185.84 156.13 185.27 156.29 184.41 L 156.48 183.41 C 156.63 182.56 156.07 181.73 155.21 181.57 C 154.35 181.42 153.53 181.98 153.37 182.84 Z M 153.19 183.84 L 152.99 184.86 C 152.83 185.72 153.40 186.55 154.26 186.71 C 155.11 186.86 155.94 186.30 156.10 185.44 L 156.29 184.42 C 156.45 183.56 155.88 182.74 155.03 182.58 C 154.17 182.42 153.34 182.98 153.19 183.84 Z M 153.00 184.86 L 152.80 185.90 C 152.64 186.76 153.20 187.59 154.06 187.75 C 154.91 187.91 155.74 187.35 155.90 186.49 L 156.10 185.45 C 156.26 184.59 155.70 183.76 154.84 183.60 C 153.98 183.44 153.16 184.00 153.00 184.86 Z M 152.80 185.90 L 152.60 186.96 C 152.43 187.82 152.99 188.64 153.85 188.81 C 154.70 188.97 155.53 188.41 155.69 187.56 L 155.90 186.50 C 156.06 185.64 155.50 184.81 154.65 184.65 C 153.79 184.48 152.97 185.04 152.80 185.90 Z M 152.60 186.96 L 152.39 188.03 C 152.22 188.88 152.78 189.71 153.63 189.88 C 154.49 190.05 155.31 189.49 155.48 188.64 L 155.69 187.56 C 155.86 186.71 155.30 185.88 154.45 185.71 C 153.59 185.55 152.77 186.10 152.60 186.96 Z M 152.39 188.02 L 152.18 189.09 C 152.01 189.95 152.56 190.78 153.41 190.95 C 154.26 191.12 155.09 190.56 155.26 189.71 L 155.48 188.64 C 155.65 187.79 155.10 186.96 154.24 186.79 C 153.39 186.62 152.56 187.17 152.39 188.02 Z M 152.18 189.09 L 151.98 190.05 C 151.81 190.91 152.36 191.74 153.21 191.91 C 154.06 192.08 154.89 191.54 155.06 190.68 L 155.26 189.72 C 155.44 188.87 154.89 188.04 154.04 187.86 C 153.18 187.69 152.35 188.24 152.18 189.09 Z M 151.98 190.05 L 151.78 191.02 C 151.61 191.87 152.15 192.70 153.00 192.88 C 153.85 193.05 154.68 192.51 154.86 191.66 L 155.06 190.69 C 155.24 189.84 154.69 189.01 153.84 188.83 C 152.99 188.65 152.16 189.20 151.98 190.05 Z M 151.78 191.01 L 151.58 191.99 C 151.40 192.83 151.94 193.67 152.79 193.85 C 153.64 194.03 154.47 193.48 154.65 192.64 L 154.86 191.66 C 155.04 190.82 154.50 189.98 153.65 189.80 C 152.80 189.62 151.96 190.16 151.78 191.01 Z M 151.58 191.98 L 151.37 192.96 C 151.19 193.80 151.73 194.64 152.58 194.82 C 153.43 195.00 154.26 194.46 154.44 193.61 L 154.65 192.64 C 154.83 191.79 154.29 190.96 153.45 190.78 C 152.60 190.59 151.76 191.13 151.58 191.98 Z M 151.37 192.95 L 151.16 193.93 C 150.98 194.77 151.51 195.61 152.36 195.79 C 153.21 195.98 154.04 195.44 154.23 194.59 L 154.44 193.62 C 154.62 192.77 154.09 191.94 153.24 191.75 C 152.39 191.57 151.56 192.10 151.37 192.95 Z M 151.16 193.92 L 150.95 194.90 C 150.76 195.75 151.30 196.58 152.14 196.77 C 152.99 196.96 153.83 196.42 154.01 195.58 L 154.23 194.60 C 154.41 193.75 153.88 192.92 153.03 192.73 C 152.19 192.54 151.35 193.08 151.16 193.92 Z M 150.95 194.90 L 150.73 195.88 C 150.55 196.72 151.08 197.56 151.92 197.75 C 152.77 197.94 153.61 197.40 153.79 196.56 L 154.01 195.58 C 154.20 194.73 153.66 193.90 152.82 193.71 C 151.97 193.52 151.14 194.05 150.95 194.90 Z M 150.73 195.88 L 150.52 196.86 C 150.33 197.70 150.86 198.54 151.70 198.73 C 152.55 198.92 153.38 198.38 153.57 197.54 L 153.79 196.56 C 153.98 195.72 153.45 194.88 152.60 194.69 C 151.76 194.50 150.92 195.03 150.73 195.88 Z M 150.52 196.86 L 150.30 197.84 C 150.11 198.68 150.64 199.52 151.48 199.71 C 152.32 199.90 153.16 199.37 153.35 198.52 L 153.57 197.54 C 153.76 196.70 153.23 195.86 152.39 195.67 C 151.54 195.48 150.71 196.01 150.52 196.86 Z M 150.30 197.84 L 150.08 198.82 C 149.89 199.66 150.42 200.50 151.26 200.69 C 152.10 200.88 152.94 200.35 153.13 199.51 L 153.35 198.52 C 153.54 197.68 153.01 196.84 152.17 196.65 C 151.33 196.46 150.49 196.99 150.30 197.84 Z M 150.08 198.82 L 149.86 199.80 C 149.66 200.64 150.19 201.48 151.04 201.67 C 151.88 201.86 152.71 201.33 152.90 200.49 L 153.13 199.51 C 153.32 198.67 152.79 197.83 151.95 197.64 C 151.10 197.45 150.27 197.98 150.08 198.82 Z M 149.86 199.80 L 149.68 200.58 C 149.49 201.42 150.02 202.26 150.86 202.45 C 151.70 202.64 152.54 202.11 152.73 201.27 L 152.90 200.49 C 153.09 199.65 152.57 198.81 151.72 198.62 C 150.88 198.43 150.05 198.96 149.86 199.80 Z"
      fill="black"
      fill-rule="nonzero" /><path d="M 177.55 154.00 L 177.82 154.95 C 178.08 155.86 179.04 156.39 179.95 156.13 C 180.87 155.86 181.40 154.91 181.13 153.99 L 180.86 153.05 C 180.60 152.13 179.64 151.60 178.73 151.87 C 177.81 152.13 177.28 153.08 177.55 154.00 Z M 177.82 154.96 L 178.10 155.91 C 178.37 156.82 179.33 157.35 180.25 157.07 C 181.17 156.80 181.69 155.84 181.42 154.92 L 181.14 153.98 C 180.86 153.06 179.90 152.54 178.98 152.81 C 178.07 153.08 177.55 154.05 177.82 154.96 Z M 178.10 155.94 L 178.40 156.88 C 178.69 157.80 179.66 158.30 180.58 158.02 C 181.49 157.73 182.00 156.75 181.71 155.84 L 181.41 154.89 C 181.13 153.98 180.15 153.47 179.23 153.76 C 178.32 154.05 177.81 155.02 178.10 155.94 Z M 178.41 156.93 L 178.73 157.87 C 179.05 158.78 180.04 159.26 180.95 158.95 C 181.86 158.64 182.34 157.64 182.03 156.73 L 181.70 155.79 C 181.39 154.88 180.40 154.40 179.49 154.71 C 178.58 155.02 178.09 156.02 178.41 156.93 Z M 178.75 157.93 L 179.11 158.87 C 179.45 159.77 180.46 160.22 181.37 159.87 C 182.27 159.53 182.72 158.52 182.37 157.61 L 182.01 156.68 C 181.67 155.77 180.66 155.32 179.75 155.67 C 178.85 156.01 178.40 157.02 178.75 157.93 Z M 179.13 158.94 L 179.53 159.87 C 179.91 160.76 180.95 161.17 181.84 160.79 C 182.73 160.40 183.14 159.37 182.76 158.48 L 182.35 157.54 C 181.97 156.65 180.93 156.24 180.04 156.63 C 179.15 157.01 178.74 158.05 179.13 158.94 Z M 179.57 159.95 L 180.01 160.86 C 180.44 161.74 181.49 162.10 182.36 161.67 C 183.23 161.24 183.60 160.19 183.17 159.32 L 182.72 158.40 C 182.29 157.53 181.24 157.17 180.37 157.60 C 179.50 158.02 179.14 159.08 179.57 159.95 Z M 180.06 160.93 L 180.55 161.82 C 181.01 162.67 182.07 162.98 182.91 162.52 C 183.76 162.06 184.07 161.00 183.61 160.16 L 183.13 159.26 C 182.66 158.41 181.61 158.10 180.76 158.56 C 179.91 159.02 179.60 160.08 180.06 160.93 Z M 180.59 161.86 L 181.10 162.75 C 181.58 163.57 182.64 163.85 183.47 163.37 C 184.29 162.89 184.57 161.83 184.09 161.01 L 183.57 160.12 C 183.09 159.30 182.04 159.02 181.21 159.50 C 180.39 159.98 180.11 161.03 180.59 161.86 Z M 181.13 162.76 L 181.66 163.64 C 182.15 164.45 183.20 164.71 184.01 164.22 C 184.82 163.73 185.08 162.68 184.59 161.87 L 184.06 160.99 C 183.57 160.19 182.52 159.93 181.71 160.41 C 180.90 160.90 180.64 161.95 181.13 162.76 Z M 181.68 163.64 L 182.20 164.50 C 182.69 165.29 183.73 165.55 184.53 165.06 C 185.33 164.58 185.58 163.53 185.10 162.73 L 184.57 161.87 C 184.08 161.08 183.04 160.82 182.24 161.31 C 181.45 161.79 181.19 162.84 181.68 163.64 Z M 182.21 164.47 L 182.71 165.32 C 183.19 166.11 184.22 166.37 185.01 165.90 C 185.81 165.42 186.07 164.39 185.59 163.60 L 185.09 162.76 C 184.61 161.96 183.59 161.70 182.79 162.18 C 182.00 162.65 181.74 163.68 182.21 164.47 Z M 182.71 165.27 L 183.17 166.10 C 183.62 166.89 184.64 167.18 185.43 166.72 C 186.23 166.27 186.51 165.26 186.06 164.46 L 185.60 163.64 C 185.15 162.85 184.13 162.56 183.34 163.02 C 182.54 163.47 182.26 164.48 182.71 165.27 Z M 183.16 166.03 L 183.64 166.97 C 184.05 167.78 185.04 168.10 185.85 167.69 C 186.65 167.27 186.97 166.28 186.56 165.48 L 186.08 164.53 C 185.67 163.73 184.68 163.41 183.87 163.82 C 183.06 164.23 182.74 165.22 183.16 166.03 Z M 183.62 166.89 L 184.04 167.84 C 184.41 168.66 185.37 169.03 186.19 168.66 C 187.01 168.29 187.38 167.33 187.01 166.51 L 186.58 165.56 C 186.22 164.74 185.25 164.37 184.43 164.74 C 183.61 165.11 183.25 166.07 183.62 166.89 Z M 184.03 167.77 L 184.40 168.70 C 184.72 169.53 185.66 169.93 186.49 169.61 C 187.32 169.28 187.72 168.34 187.39 167.51 L 187.03 166.59 C 186.70 165.76 185.76 165.35 184.93 165.68 C 184.11 166.01 183.70 166.94 184.03 167.77 Z M 184.39 168.64 L 184.72 169.55 C 185.01 170.38 185.92 170.82 186.75 170.52 C 187.58 170.23 188.02 169.31 187.72 168.48 L 187.40 167.57 C 187.10 166.74 186.19 166.31 185.36 166.60 C 184.53 166.90 184.10 167.81 184.39 168.64 Z M 184.72 169.51 L 185.01 170.41 C 185.29 171.24 186.18 171.69 187.01 171.42 C 187.84 171.15 188.29 170.25 188.02 169.42 L 187.72 168.52 C 187.45 167.69 186.55 167.24 185.72 167.52 C 184.90 167.79 184.44 168.68 184.72 169.51 Z M 185.02 170.39 L 185.21 170.98 C 185.47 171.80 186.35 172.26 187.18 171.99 C 188.00 171.73 188.46 170.85 188.20 170.02 L 188.01 169.44 C 187.75 168.62 186.86 168.16 186.04 168.42 C 185.21 168.69 184.76 169.57 185.02 170.39 Z"
      fill="black"
      fill-rule="nonzero" /><path d="M 82.82 219.41 L 83.74 218.89 C 84.58 218.42 84.87 217.37 84.40 216.54 C 83.94 215.71 82.89 215.41 82.06 215.88 L 81.13 216.40 C 80.29 216.87 80.00 217.92 80.47 218.75 C 80.93 219.58 81.98 219.88 82.82 219.41 Z M 83.75 218.91 L 84.67 218.40 C 85.52 217.93 85.82 216.86 85.35 216.02 C 84.88 215.18 83.82 214.87 82.98 215.34 L 82.05 215.86 C 81.21 216.32 80.90 217.39 81.37 218.23 C 81.84 219.07 82.91 219.38 83.75 218.91 Z M 84.67 218.42 L 85.59 217.92 C 86.45 217.46 86.76 216.38 86.30 215.52 C 85.83 214.67 84.76 214.35 83.90 214.82 L 82.98 215.31 C 82.12 215.78 81.80 216.86 82.27 217.71 C 82.74 218.57 83.81 218.89 84.67 218.42 Z M 85.58 217.95 L 86.48 217.48 C 87.36 217.02 87.69 215.93 87.23 215.06 C 86.77 214.18 85.69 213.85 84.81 214.31 L 83.91 214.78 C 83.03 215.25 82.70 216.33 83.16 217.20 C 83.62 218.08 84.70 218.41 85.58 217.95 Z M 86.46 217.51 L 87.35 217.07 C 88.24 216.62 88.61 215.53 88.16 214.63 C 87.71 213.74 86.62 213.38 85.72 213.83 L 84.84 214.27 C 83.94 214.72 83.58 215.81 84.03 216.71 C 84.48 217.60 85.57 217.96 86.46 217.51 Z M 87.32 217.11 L 88.19 216.70 C 89.10 216.27 89.50 215.17 89.07 214.26 C 88.63 213.34 87.54 212.95 86.63 213.38 L 85.76 213.79 C 84.84 214.22 84.45 215.31 84.88 216.23 C 85.31 217.14 86.40 217.54 87.32 217.11 Z M 88.14 216.74 L 88.98 216.38 C 89.92 215.98 90.36 214.88 89.96 213.94 C 89.55 213.00 88.46 212.57 87.52 212.97 L 86.67 213.33 C 85.73 213.74 85.30 214.83 85.70 215.77 C 86.11 216.71 87.20 217.15 88.14 216.74 Z M 88.91 216.43 L 89.82 216.09 C 90.79 215.72 91.27 214.64 90.91 213.67 C 90.55 212.71 89.47 212.22 88.50 212.58 L 87.59 212.92 C 86.62 213.29 86.13 214.37 86.50 215.34 C 86.86 216.30 87.94 216.79 88.91 216.43 Z M 89.72 216.13 L 90.71 215.82 C 91.71 215.51 92.26 214.45 91.95 213.46 C 91.64 212.47 90.59 211.92 89.60 212.23 L 88.60 212.54 C 87.61 212.85 87.05 213.90 87.36 214.89 C 87.67 215.88 88.73 216.44 89.72 216.13 Z M 90.61 215.85 L 91.58 215.61 C 92.59 215.36 93.20 214.33 92.95 213.33 C 92.70 212.32 91.68 211.70 90.67 211.96 L 89.70 212.20 C 88.69 212.45 88.08 213.47 88.33 214.48 C 88.58 215.49 89.60 216.10 90.61 215.85 Z M 91.49 215.63 L 92.44 215.44 C 93.46 215.24 94.13 214.25 93.92 213.23 C 93.72 212.21 92.73 211.54 91.71 211.75 L 90.76 211.93 C 89.74 212.14 89.08 213.13 89.28 214.15 C 89.48 215.17 90.47 215.83 91.49 215.63 Z M 92.37 215.45 L 93.33 215.30 C 94.36 215.14 95.06 214.17 94.89 213.14 C 94.73 212.12 93.76 211.42 92.73 211.58 L 91.78 211.73 C 90.75 211.90 90.05 212.86 90.22 213.89 C 90.38 214.92 91.35 215.62 92.37 215.45 Z M 93.29 215.31 L 94.26 215.17 C 95.29 215.03 96.01 214.08 95.87 213.05 C 95.73 212.02 94.78 211.30 93.74 211.44 L 92.78 211.57 C 91.74 211.71 91.02 212.66 91.16 213.70 C 91.31 214.73 92.26 215.45 93.29 215.31 Z M 94.24 215.18 L 95.19 215.05 C 96.23 214.92 96.96 213.97 96.82 212.94 C 96.69 211.91 95.74 211.18 94.71 211.31 L 93.76 211.44 C 92.72 211.57 92.00 212.52 92.13 213.55 C 92.26 214.58 93.21 215.31 94.24 215.18 Z M 95.20 215.05 L 96.12 214.93 C 97.15 214.80 97.88 213.85 97.75 212.82 C 97.61 211.78 96.67 211.06 95.63 211.19 L 94.71 211.31 C 93.67 211.45 92.95 212.40 93.08 213.43 C 93.22 214.46 94.16 215.19 95.20 215.05 Z M 96.12 214.93 L 97.08 214.81 C 98.11 214.67 98.84 213.72 98.70 212.69 C 98.57 211.66 97.62 210.93 96.58 211.07 L 95.63 211.19 C 94.60 211.33 93.87 212.28 94.01 213.31 C 94.14 214.34 95.09 215.07 96.12 214.93 Z M 97.08 214.81 L 98.06 214.68 C 99.10 214.54 99.82 213.59 99.68 212.56 C 99.55 211.52 98.60 210.80 97.56 210.93 L 96.58 211.07 C 95.55 211.20 94.82 212.15 94.96 213.19 C 95.10 214.22 96.05 214.95 97.08 214.81 Z M 98.07 214.68 L 99.08 214.54 C 100.11 214.40 100.83 213.45 100.70 212.42 C 100.56 211.38 99.60 210.66 98.57 210.80 L 97.56 210.93 C 96.53 211.07 95.80 212.02 95.94 213.06 C 96.08 214.09 97.03 214.82 98.07 214.68 Z M 99.08 214.54 L 100.11 214.40 C 101.15 214.26 101.87 213.31 101.73 212.27 C 101.59 211.24 100.64 210.52 99.61 210.66 L 98.57 210.80 C 97.53 210.94 96.81 211.89 96.95 212.92 C 97.09 213.96 98.04 214.68 99.08 214.54 Z M 100.12 214.40 L 101.18 214.25 C 102.21 214.11 102.94 213.16 102.79 212.13 C 102.65 211.09 101.70 210.37 100.66 210.51 L 99.60 210.66 C 98.57 210.80 97.85 211.75 97.99 212.79 C 98.13 213.82 99.08 214.54 100.12 214.40 Z M 101.18 214.26 L 102.13 214.12 C 103.17 213.98 103.89 213.02 103.75 211.99 C 103.60 210.96 102.65 210.23 101.61 210.38 L 100.66 210.51 C 99.63 210.65 98.91 211.61 99.05 212.64 C 99.19 213.68 100.15 214.40 101.18 214.26 Z M 102.13 214.12 L 103.07 213.99 C 104.11 213.85 104.83 212.89 104.69 211.86 C 104.54 210.82 103.59 210.10 102.55 210.25 L 101.61 210.38 C 100.58 210.52 99.86 211.48 100.00 212.51 C 100.14 213.55 101.10 214.27 102.13 214.12 Z M 103.07 213.99 L 104.03 213.86 C 105.07 213.71 105.79 212.76 105.64 211.72 C 105.50 210.69 104.54 209.97 103.51 210.11 L 102.55 210.25 C 101.52 210.39 100.80 211.35 100.94 212.38 C 101.08 213.42 102.04 214.14 103.07 213.99 Z M 104.03 213.86 L 105.01 213.72 C 106.04 213.58 106.77 212.62 106.62 211.59 C 106.48 210.55 105.52 209.83 104.49 209.98 L 103.51 210.11 C 102.48 210.26 101.75 211.21 101.90 212.25 C 102.04 213.28 103.00 214.00 104.03 213.86 Z M 105.01 213.72 L 106.01 213.58 C 107.04 213.44 107.76 212.49 107.62 211.45 C 107.48 210.42 106.52 209.69 105.49 209.84 L 104.49 209.98 C 103.46 210.12 102.73 211.07 102.88 212.11 C 103.02 213.14 103.97 213.87 105.01 213.72 Z M 106.00 213.59 L 107.02 213.45 C 108.06 213.30 108.78 212.35 108.64 211.32 C 108.50 210.28 107.54 209.56 106.51 209.70 L 105.49 209.84 C 104.46 209.98 103.73 210.93 103.87 211.97 C 104.01 213.00 104.97 213.73 106.00 213.59 Z M 107.02 213.45 L 108.06 213.31 C 109.09 213.17 109.82 212.21 109.68 211.18 C 109.54 210.14 108.59 209.42 107.55 209.56 L 106.51 209.70 C 105.48 209.84 104.75 210.79 104.89 211.83 C 105.03 212.86 105.98 213.59 107.02 213.45 Z M 108.05 213.31 L 109.11 213.17 C 110.15 213.03 110.88 212.08 110.74 211.04 C 110.60 210.01 109.65 209.28 108.61 209.42 L 107.55 209.56 C 106.52 209.69 105.79 210.65 105.93 211.68 C 106.07 212.72 107.02 213.44 108.05 213.31 Z M 109.11 213.17 L 110.05 213.04 C 111.08 212.91 111.81 211.96 111.68 210.92 C 111.54 209.89 110.59 209.16 109.56 209.29 L 108.62 209.41 C 107.58 209.55 106.85 210.50 106.99 211.54 C 107.12 212.57 108.07 213.30 109.11 213.17 Z M 110.04 213.04 L 111.00 212.92 C 112.03 212.79 112.77 211.84 112.63 210.80 C 112.50 209.77 111.55 209.04 110.52 209.17 L 109.56 209.29 C 108.53 209.42 107.79 210.37 107.93 211.41 C 108.06 212.45 109.01 213.18 110.04 213.04 Z M 110.99 212.92 L 111.96 212.80 C 113.00 212.67 113.73 211.72 113.60 210.69 C 113.47 209.65 112.53 208.91 111.49 209.05 L 110.52 209.17 C 109.48 209.30 108.75 210.25 108.88 211.28 C 109.01 212.32 109.96 213.05 110.99 212.92 Z M 111.96 212.80 L 112.94 212.68 C 113.98 212.55 114.72 211.60 114.59 210.57 C 114.46 209.53 113.51 208.79 112.48 208.92 L 111.49 209.05 C 110.46 209.17 109.72 210.12 109.85 211.16 C 109.98 212.19 110.92 212.93 111.96 212.80 Z M 112.94 212.68 L 113.94 212.56 C 114.97 212.43 115.71 211.48 115.58 210.45 C 115.46 209.41 114.51 208.67 113.47 208.80 L 112.48 208.92 C 111.44 209.05 110.70 209.99 110.83 211.03 C 110.96 212.07 111.90 212.81 112.94 212.68 Z M 113.93 212.56 L 114.94 212.43 C 115.98 212.31 116.72 211.36 116.59 210.33 C 116.46 209.29 115.52 208.55 114.48 208.68 L 113.48 208.80 C 112.44 208.93 111.70 209.87 111.83 210.91 C 111.95 211.94 112.90 212.68 113.93 212.56 Z M 114.94 212.43 L 115.96 212.31 C 116.99 212.19 117.73 211.24 117.61 210.21 C 117.48 209.17 116.54 208.43 115.50 208.55 L 114.49 208.68 C 113.45 208.80 112.71 209.74 112.83 210.78 C 112.96 211.82 113.90 212.56 114.94 212.43 Z M 115.95 212.31 L 116.98 212.19 C 118.02 212.07 118.76 211.12 118.64 210.09 C 118.51 209.05 117.57 208.31 116.53 208.43 L 115.51 208.55 C 114.47 208.68 113.73 209.62 113.85 210.66 C 113.97 211.69 114.92 212.44 115.95 212.31 Z M 116.98 212.19 L 118.02 212.07 C 119.06 211.94 119.80 211.00 119.67 209.97 C 119.55 208.93 118.61 208.19 117.57 208.31 L 116.54 208.43 C 115.50 208.55 114.76 209.49 114.88 210.53 C 115.00 211.57 115.94 212.31 116.98 212.19 Z M 118.02 212.07 L 118.98 211.95 C 120.02 211.83 120.76 210.89 120.64 209.85 C 120.52 208.82 119.58 208.07 118.54 208.20 L 117.57 208.31 C 116.54 208.43 115.79 209.37 115.92 210.41 C 116.04 211.45 116.98 212.19 118.02 212.07 Z M 118.98 211.95 L 119.95 211.84 C 120.99 211.72 121.73 210.78 121.61 209.74 C 121.49 208.70 120.55 207.96 119.51 208.08 L 118.54 208.20 C 117.50 208.32 116.76 209.26 116.88 210.29 C 117.00 211.33 117.94 212.08 118.98 211.95 Z M 119.95 211.84 L 120.92 211.73 C 121.96 211.61 122.70 210.67 122.58 209.63 C 122.46 208.59 121.52 207.85 120.49 207.97 L 119.51 208.08 C 118.47 208.20 117.73 209.14 117.85 210.18 C 117.97 211.22 118.91 211.96 119.95 211.84 Z M 120.92 211.73 L 121.91 211.61 C 122.94 211.49 123.69 210.55 123.57 209.52 C 123.45 208.48 122.51 207.73 121.47 207.85 L 120.49 207.97 C 119.45 208.09 118.70 209.03 118.83 210.07 C 118.95 211.10 119.89 211.85 120.92 211.73 Z M 121.91 211.61 L 122.90 211.50 C 123.94 211.38 124.68 210.44 124.56 209.40 C 124.44 208.36 123.50 207.62 122.46 207.74 L 121.47 207.86 C 120.43 207.98 119.69 208.92 119.81 209.95 C 119.93 210.99 120.87 211.73 121.91 211.61 Z M 122.90 211.50 L 123.90 211.38 C 124.93 211.26 125.68 210.32 125.55 209.28 C 125.43 208.25 124.49 207.50 123.46 207.62 L 122.46 207.74 C 121.42 207.86 120.68 208.80 120.80 209.84 C 120.92 210.88 121.86 211.62 122.90 211.50 Z M 123.90 211.38 L 124.90 211.26 C 125.94 211.14 126.68 210.20 126.56 209.16 C 126.44 208.13 125.50 207.38 124.46 207.51 L 123.46 207.62 C 122.42 207.75 121.68 208.69 121.80 209.72 C 121.92 210.76 122.86 211.50 123.90 211.38 Z M 124.90 211.26 L 125.91 211.14 C 126.95 211.02 127.69 210.08 127.57 209.04 C 127.45 208.01 126.51 207.26 125.47 207.39 L 124.46 207.51 C 123.42 207.63 122.68 208.57 122.80 209.61 C 122.93 210.64 123.87 211.38 124.90 211.26 Z M 125.92 211.14 L 126.93 211.02 C 127.97 210.90 128.71 209.96 128.59 208.92 C 128.46 207.88 127.52 207.14 126.49 207.27 L 125.47 207.39 C 124.43 207.51 123.69 208.45 123.81 209.49 C 123.94 210.53 124.88 211.27 125.92 211.14 Z M 126.94 211.02 L 127.96 210.90 C 128.99 210.77 129.73 209.83 129.61 208.79 C 129.48 207.76 128.54 207.02 127.50 207.14 L 126.48 207.27 C 125.45 207.39 124.71 208.33 124.83 209.37 C 124.96 210.41 125.90 211.15 126.94 211.02 Z M 127.96 210.90 L 128.96 210.77 C 130.00 210.65 130.74 209.71 130.61 208.67 C 130.48 207.63 129.54 206.90 128.50 207.02 L 127.50 207.14 C 126.46 207.27 125.73 208.21 125.85 209.25 C 125.98 210.29 126.92 211.02 127.96 210.90 Z M 128.96 210.77 L 129.97 210.65 C 131.01 210.52 131.74 209.58 131.62 208.54 C 131.49 207.51 130.55 206.77 129.51 206.90 L 128.50 207.02 C 127.47 207.15 126.73 208.09 126.86 209.13 C 126.98 210.16 127.93 210.90 128.96 210.77 Z M 129.97 210.65 L 130.98 210.53 C 132.02 210.40 132.75 209.45 132.62 208.42 C 132.50 207.38 131.55 206.65 130.52 206.78 L 129.51 206.90 C 128.47 207.03 127.74 207.97 127.87 209.01 C 127.99 210.04 128.94 210.78 129.97 210.65 Z M 130.98 210.53 L 131.99 210.40 C 133.02 210.27 133.76 209.33 133.63 208.29 C 133.50 207.26 132.56 206.52 131.53 206.65 L 130.52 206.78 C 129.48 206.90 128.75 207.85 128.87 208.88 C 129.00 209.92 129.95 210.65 130.98 210.53 Z M 131.99 210.40 L 132.99 210.28 C 134.03 210.15 134.76 209.21 134.64 208.17 C 134.51 207.14 133.57 206.40 132.53 206.53 L 131.53 206.65 C 130.49 206.78 129.75 207.72 129.88 208.76 C 130.01 209.79 130.95 210.53 131.99 210.40 Z M 132.99 210.28 L 133.99 210.15 C 135.02 210.03 135.76 209.08 135.63 208.05 C 135.51 207.01 134.56 206.28 133.53 206.41 L 132.53 206.53 C 131.50 206.66 130.76 207.60 130.89 208.63 C 131.01 209.67 131.96 210.40 132.99 210.28 Z M 133.99 210.15 L 134.98 210.03 C 136.01 209.91 136.75 208.97 136.62 207.93 C 136.50 206.89 135.56 206.16 134.52 206.28 L 133.53 206.41 C 132.50 206.53 131.76 207.47 131.89 208.51 C 132.01 209.54 132.95 210.28 133.99 210.15 Z M 134.98 210.03 L 135.95 209.91 C 136.99 209.79 137.73 208.85 137.60 207.81 C 137.48 206.78 136.54 206.04 135.50 206.17 L 134.52 206.28 C 133.49 206.41 132.75 207.35 132.88 208.39 C 133.00 209.42 133.94 210.16 134.98 210.03 Z M 135.95 209.91 L 136.92 209.80 C 137.95 209.68 138.69 208.74 138.57 207.70 C 138.44 206.67 137.51 205.93 136.47 206.05 L 135.50 206.17 C 134.47 206.29 133.73 207.23 133.85 208.26 C 133.98 209.30 134.92 210.04 135.95 209.91 Z M 136.91 209.80 L 137.89 209.69 C 138.92 209.56 139.66 208.63 139.54 207.59 C 139.42 206.56 138.49 205.82 137.45 205.94 L 136.47 206.05 C 135.44 206.17 134.70 207.11 134.82 208.14 C 134.94 209.18 135.88 209.92 136.91 209.80 Z M 137.88 209.69 L 138.94 209.56 C 139.98 209.45 140.72 208.51 140.60 207.48 C 140.48 206.44 139.55 205.70 138.51 205.82 L 137.45 205.94 C 136.42 206.06 135.68 206.99 135.79 208.03 C 135.91 209.06 136.85 209.80 137.88 209.69 Z M 138.94 209.56 L 139.97 209.45 C 141.01 209.33 141.75 208.40 141.64 207.37 C 141.52 206.33 140.59 205.59 139.56 205.70 L 138.52 205.82 C 137.48 205.93 136.74 206.86 136.85 207.90 C 136.97 208.93 137.90 209.68 138.94 209.56 Z M 139.97 209.45 L 140.99 209.34 C 142.02 209.23 142.77 208.30 142.66 207.26 C 142.54 206.23 141.61 205.48 140.58 205.59 L 139.56 205.70 C 138.53 205.81 137.78 206.74 137.89 207.78 C 138.00 208.81 138.93 209.56 139.97 209.45 Z M 140.98 209.34 L 141.98 209.23 C 143.02 209.12 143.77 208.19 143.66 207.16 C 143.55 206.12 142.62 205.37 141.59 205.48 L 140.58 205.59 C 139.55 205.70 138.80 206.63 138.91 207.66 C 139.02 208.70 139.95 209.45 140.98 209.34 Z M 141.98 209.23 L 142.96 209.13 C 144.00 209.02 144.75 208.10 144.64 207.06 C 144.54 206.03 143.61 205.28 142.58 205.38 L 141.59 205.48 C 140.56 205.59 139.80 206.52 139.91 207.55 C 140.02 208.59 140.94 209.34 141.98 209.23 Z M 142.96 209.13 L 143.93 209.03 C 144.96 208.93 145.72 208.00 145.61 206.97 C 145.51 205.93 144.59 205.18 143.55 205.28 L 142.58 205.38 C 141.55 205.49 140.79 206.41 140.90 207.44 C 141.00 208.48 141.92 209.23 142.96 209.13 Z M 143.92 209.03 L 144.88 208.94 C 145.92 208.84 146.67 207.91 146.57 206.88 C 146.47 205.85 145.55 205.09 144.51 205.19 L 143.56 205.29 C 142.52 205.39 141.77 206.31 141.87 207.34 C 141.97 208.38 142.89 209.13 143.92 209.03 Z M 144.88 208.94 L 145.83 208.85 C 146.86 208.75 147.62 207.83 147.52 206.79 C 147.42 205.76 146.50 205.00 145.47 205.10 L 144.52 205.19 C 143.48 205.29 142.73 206.21 142.83 207.24 C 142.93 208.28 143.84 209.04 144.88 208.94 Z M 145.82 208.85 L 146.79 208.75 C 147.83 208.66 148.59 207.74 148.49 206.71 C 148.39 205.67 147.48 204.91 146.44 205.01 L 145.47 205.10 C 144.44 205.20 143.68 206.11 143.77 207.15 C 143.87 208.18 144.79 208.94 145.82 208.85 Z M 146.79 208.75 L 147.81 208.66 C 148.84 208.57 149.60 207.65 149.51 206.62 C 149.41 205.58 148.50 204.82 147.47 204.92 L 146.45 205.01 C 145.41 205.10 144.65 206.02 144.75 207.05 C 144.84 208.09 145.75 208.85 146.79 208.75 Z M 147.80 208.66 L 148.81 208.57 C 149.85 208.48 150.61 207.57 150.52 206.53 C 150.43 205.50 149.52 204.74 148.48 204.83 L 147.47 204.92 C 146.44 205.01 145.67 205.92 145.77 206.96 C 145.86 207.99 146.77 208.75 147.80 208.66 Z M 148.81 208.57 L 149.81 208.48 C 150.84 208.39 151.61 207.49 151.52 206.45 C 151.43 205.42 150.52 204.65 149.49 204.74 L 148.49 204.83 C 147.45 204.92 146.69 205.83 146.78 206.86 C 146.87 207.89 147.78 208.66 148.81 208.57 Z M 149.81 208.48 L 150.80 208.40 C 151.83 208.31 152.60 207.41 152.52 206.37 C 152.43 205.34 151.52 204.57 150.49 204.66 L 149.50 204.74 C 148.46 204.83 147.69 205.74 147.78 206.77 C 147.87 207.80 148.77 208.57 149.81 208.48 Z M 150.80 208.40 L 151.79 208.32 C 152.82 208.24 153.59 207.33 153.50 206.30 C 153.42 205.27 152.52 204.50 151.48 204.58 L 150.50 204.66 C 149.46 204.74 148.69 205.65 148.78 206.68 C 148.86 207.71 149.76 208.48 150.80 208.40 Z M 151.78 208.32 L 152.76 208.24 C 153.79 208.16 154.57 207.26 154.49 206.23 C 154.41 205.20 153.51 204.43 152.47 204.51 L 151.49 204.58 C 150.46 204.66 149.69 205.56 149.77 206.60 C 149.85 207.63 150.75 208.40 151.78 208.32 Z M 152.76 208.24 L 153.74 208.17 C 154.77 208.09 155.54 207.20 155.46 206.16 C 155.39 205.13 154.49 204.36 153.46 204.43 L 152.48 204.51 C 151.45 204.58 150.67 205.48 150.75 206.51 C 150.83 207.55 151.72 208.32 152.76 208.24 Z M 153.73 208.17 L 154.72 208.10 C 155.75 208.03 156.53 207.13 156.45 206.10 C 156.38 205.07 155.48 204.29 154.45 204.36 L 153.46 204.44 C 152.43 204.51 151.66 205.40 151.73 206.44 C 151.80 207.47 152.70 208.24 153.73 208.17 Z M 154.71 208.10 L 155.73 208.03 C 156.76 207.96 157.54 207.07 157.47 206.04 C 157.40 205.01 156.50 204.23 155.47 204.30 L 154.46 204.37 C 153.43 204.44 152.65 205.33 152.72 206.36 C 152.79 207.39 153.68 208.17 154.71 208.10 Z M 155.72 208.03 L 156.73 207.96 C 157.76 207.90 158.54 207.01 158.47 205.98 C 158.41 204.95 157.52 204.17 156.49 204.23 L 155.48 204.30 C 154.45 204.36 153.67 205.25 153.73 206.28 C 153.80 207.31 154.69 208.10 155.72 208.03 Z M 156.72 207.96 L 157.73 207.90 C 158.76 207.84 159.54 206.95 159.48 205.92 C 159.42 204.89 158.53 204.11 157.50 204.17 L 156.50 204.23 C 155.47 204.30 154.68 205.18 154.74 206.21 C 154.81 207.24 155.69 208.03 156.72 207.96 Z M 157.72 207.90 L 158.72 207.84 C 159.75 207.78 160.54 206.90 160.48 205.87 C 160.42 204.84 159.54 204.06 158.51 204.12 L 157.51 204.17 C 156.48 204.23 155.69 205.12 155.75 206.14 C 155.81 207.17 156.69 207.96 157.72 207.90 Z M 158.71 207.84 L 159.71 207.79 C 160.74 207.73 161.52 206.85 161.47 205.83 C 161.41 204.80 160.54 204.01 159.51 204.06 L 158.51 204.12 C 157.48 204.17 156.70 205.05 156.75 206.08 C 156.81 207.11 157.69 207.90 158.71 207.84 Z M 159.70 207.79 L 160.69 207.74 C 161.72 207.69 162.51 206.81 162.46 205.78 C 162.40 204.75 161.53 203.96 160.50 204.02 L 159.51 204.07 C 158.49 204.12 157.69 204.99 157.75 206.02 C 157.80 207.05 158.67 207.84 159.70 207.79 Z M 160.68 207.74 L 161.66 207.69 C 162.69 207.64 163.48 206.77 163.44 205.74 C 163.39 204.72 162.52 203.92 161.49 203.97 L 160.51 204.02 C 159.48 204.07 158.69 204.94 158.74 205.96 C 158.78 206.99 159.66 207.78 160.68 207.74 Z M 161.66 207.69 L 162.66 207.65 C 163.69 207.60 164.48 206.73 164.44 205.71 C 164.39 204.68 163.53 203.88 162.50 203.93 L 161.49 203.97 C 160.47 204.02 159.67 204.89 159.72 205.91 C 159.76 206.94 160.63 207.73 161.66 207.69 Z M 162.65 207.64 L 163.67 207.60 C 164.70 207.56 165.49 206.70 165.45 205.67 C 165.41 204.65 164.55 203.85 163.52 203.89 L 162.51 203.93 C 161.48 203.97 160.68 204.84 160.72 205.86 C 160.76 206.89 161.63 207.68 162.65 207.64 Z M 163.66 207.60 L 164.67 207.57 C 165.70 207.53 166.50 206.67 166.46 205.64 C 166.42 204.62 165.56 203.82 164.54 203.85 L 163.53 203.89 C 162.50 203.93 161.70 204.79 161.74 205.81 C 161.78 206.84 162.64 207.64 163.66 207.60 Z M 164.66 207.56 L 165.67 207.53 C 166.69 207.50 167.49 206.64 167.46 205.62 C 167.43 204.59 166.57 203.79 165.55 203.82 L 164.54 203.86 C 163.52 203.89 162.72 204.75 162.75 205.77 C 162.78 206.79 163.64 207.60 164.66 207.56 Z M 165.66 207.53 L 166.65 207.50 C 167.68 207.47 168.48 206.62 168.45 205.60 C 168.42 204.57 167.57 203.77 166.55 203.80 L 165.55 203.83 C 164.53 203.85 163.73 204.71 163.75 205.73 C 163.78 206.75 164.64 207.56 165.66 207.53 Z M 166.65 207.50 L 167.64 207.48 C 168.66 207.45 169.47 206.60 169.44 205.58 C 169.42 204.56 168.57 203.75 167.55 203.77 L 166.56 203.80 C 165.53 203.82 164.73 204.67 164.75 205.69 C 164.78 206.72 165.62 207.52 166.65 207.50 Z M 167.63 207.47 L 168.61 207.45 C 169.63 207.43 170.45 206.59 170.43 205.57 C 170.40 204.55 169.56 203.74 168.54 203.76 L 167.55 203.78 C 166.53 203.80 165.72 204.64 165.74 205.66 C 165.76 206.68 166.61 207.49 167.63 207.47 Z M 168.61 207.45 L 169.59 207.44 C 170.61 207.42 171.43 206.58 171.41 205.56 C 171.39 204.54 170.55 203.73 169.53 203.74 L 168.55 203.76 C 167.53 203.77 166.71 204.61 166.73 205.64 C 166.75 206.66 167.59 207.47 168.61 207.45 Z M 169.58 207.44 L 170.58 207.42 C 171.60 207.41 172.41 206.57 172.40 205.55 C 172.39 204.54 171.55 203.72 170.53 203.73 L 169.54 203.74 C 168.52 203.76 167.70 204.59 167.72 205.61 C 167.73 206.63 168.56 207.45 169.58 207.44 Z M 170.57 207.42 L 171.56 207.41 C 172.58 207.40 173.40 206.57 173.39 205.55 C 173.38 204.53 172.55 203.72 171.53 203.72 L 170.54 203.73 C 169.52 203.74 168.70 204.57 168.71 205.59 C 168.72 206.61 169.55 207.43 170.57 207.42 Z M 171.56 207.41 L 172.55 207.41 C 173.57 207.40 174.39 206.57 174.38 205.55 C 174.37 204.53 173.54 203.71 172.53 203.72 L 171.53 203.73 C 170.52 203.73 169.70 204.56 169.70 205.58 C 169.71 206.60 170.54 207.42 171.56 207.41 Z M 172.54 207.40 L 173.54 207.40 C 174.56 207.40 175.38 206.57 175.37 205.55 C 175.37 204.54 174.54 203.71 173.53 203.72 L 172.53 203.72 C 171.51 203.72 170.69 204.55 170.70 205.57 C 170.70 206.59 171.53 207.41 172.54 207.40 Z M 173.54 207.40 L 174.54 207.40 C 175.55 207.40 176.38 206.57 176.38 205.55 C 176.37 204.54 175.55 203.72 174.53 203.72 L 173.53 203.72 C 172.51 203.72 171.69 204.55 171.69 205.56 C 171.69 206.58 172.52 207.40 173.54 207.40 Z M 174.54 207.40 L 175.55 207.40 C 176.56 207.40 177.38 206.57 177.38 205.56 C 177.38 204.54 176.56 203.72 175.54 203.72 L 174.53 203.72 C 173.52 203.72 172.70 204.54 172.70 205.56 C 172.70 206.57 173.52 207.40 174.54 207.40 Z M 175.55 207.39 L 176.56 207.39 C 177.58 207.39 178.40 206.57 178.40 205.56 C 178.40 204.54 177.58 203.72 176.56 203.72 L 175.55 203.72 C 174.53 203.72 173.71 204.54 173.71 205.56 C 173.71 206.57 174.53 207.39 175.55 207.39 Z M 176.56 207.39 L 177.58 207.39 C 178.59 207.39 179.42 206.57 179.42 205.56 C 179.42 204.54 178.59 203.72 177.58 203.72 L 176.56 203.72 C 175.55 203.72 174.73 204.54 174.73 205.56 C 174.73 206.57 175.55 207.39 176.56 207.39 Z M 177.58 207.39 L 178.60 207.39 C 179.61 207.39 180.44 206.57 180.44 205.56 C 180.44 204.55 179.62 203.72 178.60 203.72 L 177.58 203.72 C 176.57 203.72 175.75 204.54 175.75 205.56 C 175.75 206.57 176.57 207.39 177.58 207.39 Z M 178.60 207.39 L 179.62 207.39 C 180.63 207.40 181.45 206.58 181.46 205.56 C 181.46 204.55 180.64 203.73 179.63 203.73 L 178.61 203.72 C 177.59 203.72 176.77 204.54 176.77 205.55 C 176.77 206.57 177.59 207.39 178.60 207.39 Z M 179.62 207.39 L 180.63 207.40 C 181.64 207.40 182.47 206.58 182.47 205.57 C 182.47 204.56 181.66 203.74 180.64 203.73 L 179.63 203.73 C 178.62 203.72 177.79 204.54 177.79 205.55 C 177.79 206.57 178.60 207.39 179.62 207.39 Z M 180.63 207.39 L 181.63 207.40 C 182.64 207.41 183.46 206.59 183.47 205.58 C 183.47 204.57 182.66 203.75 181.65 203.74 L 180.65 203.73 C 179.64 203.73 178.81 204.54 178.81 205.55 C 178.80 206.56 179.61 207.39 180.63 207.39 Z M 181.62 207.40 L 182.60 207.41 C 183.61 207.42 184.44 206.61 184.45 205.60 C 184.46 204.59 183.65 203.76 182.64 203.75 L 181.65 203.74 C 180.64 203.73 179.82 204.54 179.81 205.55 C 179.80 206.56 180.61 207.39 181.62 207.40 Z M 182.60 207.41 L 183.55 207.42 C 184.56 207.43 185.39 206.62 185.40 205.61 C 185.42 204.61 184.61 203.78 183.60 203.76 L 182.64 203.75 C 181.63 203.74 180.80 204.55 180.79 205.56 C 180.78 206.56 181.59 207.39 182.60 207.41 Z M 183.54 207.42 L 184.60 207.44 C 185.61 207.46 186.44 206.65 186.46 205.64 C 186.48 204.63 185.67 203.80 184.67 203.78 L 183.61 203.76 C 182.60 203.75 181.77 204.55 181.75 205.56 C 181.73 206.57 182.53 207.40 183.54 207.42 Z M 184.58 207.44 L 185.63 207.46 C 186.64 207.49 187.48 206.69 187.51 205.69 C 187.53 204.68 186.74 203.84 185.73 203.81 L 184.68 203.79 C 183.67 203.76 182.83 204.55 182.81 205.56 C 182.78 206.57 183.58 207.41 184.58 207.44 Z M 185.61 207.46 L 186.63 207.50 C 187.63 207.54 188.48 206.75 188.52 205.75 C 188.56 204.74 187.77 203.89 186.77 203.85 L 185.75 203.81 C 184.74 203.78 183.90 204.56 183.86 205.57 C 183.82 206.58 184.61 207.42 185.61 207.46 Z M 186.60 207.50 L 187.58 207.55 C 188.59 207.60 189.45 206.83 189.50 205.83 C 189.56 204.82 188.78 203.96 187.78 203.91 L 186.79 203.86 C 185.79 203.80 184.93 204.57 184.88 205.58 C 184.82 206.59 185.59 207.44 186.60 207.50 Z M 187.55 207.55 L 188.51 207.62 C 189.51 207.69 190.39 206.93 190.46 205.93 C 190.53 204.92 189.77 204.05 188.77 203.98 L 187.81 203.91 C 186.81 203.84 185.93 204.59 185.86 205.60 C 185.79 206.60 186.55 207.48 187.55 207.55 Z M 188.47 207.61 L 189.41 207.70 C 190.41 207.79 191.30 207.06 191.39 206.05 C 191.49 205.05 190.75 204.16 189.75 204.07 L 188.81 203.98 C 187.81 203.89 186.92 204.63 186.82 205.63 C 186.73 206.63 187.47 207.52 188.47 207.61 Z M 189.36 207.69 L 190.28 207.80 C 191.28 207.92 192.18 207.21 192.30 206.21 C 192.42 205.21 191.70 204.30 190.71 204.18 L 189.79 204.08 C 188.79 203.96 187.89 204.67 187.77 205.67 C 187.65 206.67 188.37 207.58 189.36 207.69 Z M 190.23 207.80 L 191.14 207.93 C 192.13 208.07 193.06 207.38 193.20 206.38 C 193.34 205.39 192.65 204.47 191.66 204.32 L 190.75 204.19 C 189.76 204.05 188.83 204.74 188.69 205.73 C 188.55 206.73 189.24 207.65 190.23 207.80 Z M 191.09 207.92 L 192.02 208.07 C 193.01 208.24 193.95 207.57 194.11 206.58 C 194.28 205.59 193.61 204.65 192.62 204.48 L 191.70 204.33 C 190.71 204.16 189.77 204.83 189.60 205.82 C 189.44 206.81 190.10 207.75 191.09 207.92 Z M 191.98 208.07 L 192.93 208.25 C 193.92 208.44 194.87 207.79 195.06 206.80 C 195.25 205.81 194.60 204.86 193.61 204.67 L 192.66 204.49 C 191.67 204.30 190.72 204.95 190.53 205.94 C 190.34 206.92 190.99 207.88 191.98 208.07 Z M 192.90 208.24 L 193.90 208.45 C 194.88 208.66 195.85 208.03 196.05 207.04 C 196.26 206.06 195.63 205.10 194.65 204.89 L 193.64 204.68 C 192.66 204.48 191.70 205.10 191.49 206.09 C 191.29 207.07 191.92 208.03 192.90 208.24 Z M 193.87 208.44 L 194.94 208.68 C 195.92 208.90 196.89 208.29 197.11 207.31 C 197.33 206.33 196.72 205.36 195.74 205.14 L 194.67 204.90 C 193.69 204.68 192.72 205.29 192.50 206.27 C 192.28 207.25 192.89 208.22 193.87 208.44 Z M 194.92 208.68 L 195.98 208.93 C 196.96 209.16 197.93 208.56 198.16 207.58 C 198.40 206.60 197.79 205.62 196.81 205.39 L 195.76 205.14 C 194.78 204.91 193.80 205.52 193.57 206.49 C 193.34 207.47 193.95 208.45 194.92 208.68 Z M 195.97 208.93 L 196.86 209.14 C 197.83 209.38 198.82 208.78 199.05 207.81 C 199.29 206.83 198.69 205.85 197.72 205.61 L 196.83 205.40 C 195.85 205.16 194.87 205.76 194.63 206.73 C 194.40 207.71 194.99 208.69 195.97 208.93 Z M 196.85 209.14 L 197.78 209.37 C 198.75 209.62 199.74 209.02 199.98 208.05 C 200.23 207.08 199.63 206.09 198.66 205.85 L 197.73 205.62 C 196.76 205.37 195.77 205.97 195.53 206.94 C 195.29 207.91 195.88 208.90 196.85 209.14 Z M 197.77 209.37 L 198.74 209.62 C 199.71 209.86 200.69 209.28 200.94 208.31 C 201.19 207.34 200.60 206.35 199.63 206.10 L 198.67 205.85 C 197.70 205.61 196.71 206.19 196.46 207.16 C 196.22 208.13 196.80 209.12 197.77 209.37 Z M 198.73 209.61 L 199.71 209.87 C 200.68 210.12 201.67 209.54 201.92 208.57 C 202.18 207.60 201.60 206.61 200.63 206.36 L 199.64 206.10 C 198.67 205.85 197.68 206.43 197.43 207.40 C 197.18 208.37 197.76 209.36 198.73 209.61 Z M 199.70 209.87 L 200.70 210.13 C 201.67 210.39 202.66 209.81 202.92 208.85 C 203.18 207.88 202.60 206.89 201.63 206.63 L 200.64 206.36 C 199.67 206.11 198.68 206.68 198.42 207.65 C 198.16 208.62 198.74 209.61 199.70 209.87 Z M 200.69 210.13 L 201.70 210.40 C 202.66 210.66 203.66 210.09 203.92 209.13 C 204.18 208.16 203.61 207.17 202.65 206.90 L 201.64 206.63 C 200.68 206.37 199.68 206.94 199.42 207.90 C 199.16 208.87 199.73 209.87 200.69 210.13 Z M 201.69 210.40 L 202.69 210.68 C 203.65 210.94 204.65 210.38 204.92 209.41 C 205.18 208.45 204.62 207.45 203.66 207.19 L 202.66 206.91 C 201.69 206.64 200.69 207.20 200.43 208.17 C 200.16 209.13 200.72 210.13 201.69 210.40 Z M 202.68 210.67 L 203.66 210.95 C 204.63 211.23 205.63 210.67 205.90 209.71 C 206.17 208.74 205.61 207.74 204.65 207.47 L 203.67 207.19 C 202.70 206.92 201.70 207.47 201.43 208.44 C 201.16 209.40 201.71 210.40 202.68 210.67 Z M 203.65 210.95 L 204.62 211.23 C 205.58 211.51 206.58 210.96 206.86 210.00 C 207.14 209.04 206.59 208.03 205.63 207.75 L 204.66 207.47 C 203.70 207.19 202.70 207.75 202.42 208.71 C 202.14 209.67 202.69 210.67 203.65 210.95 Z M 204.61 211.22 L 205.55 211.51 C 206.51 211.79 207.52 211.25 207.80 210.29 C 208.09 209.34 207.55 208.33 206.59 208.04 L 205.64 207.76 C 204.69 207.47 203.68 208.02 203.39 208.97 C 203.11 209.93 203.65 210.94 204.61 211.22 Z M 205.54 211.50 L 206.47 211.79 C 207.42 212.09 208.43 211.55 208.73 210.60 C 209.03 209.65 208.49 208.63 207.54 208.34 L 206.61 208.05 C 205.65 207.75 204.64 208.29 204.35 209.24 C 204.05 210.19 204.58 211.20 205.54 211.50 Z M 206.45 211.78 L 207.37 212.08 C 208.32 212.39 209.34 211.87 209.65 210.92 C 209.96 209.97 209.44 208.95 208.49 208.65 L 207.56 208.35 C 206.61 208.04 205.59 208.56 205.29 209.51 C 204.98 210.46 205.50 211.48 206.45 211.78 Z M 207.35 212.07 L 208.28 212.39 C 209.22 212.71 210.24 212.20 210.56 211.26 C 210.88 210.31 210.38 209.29 209.43 208.97 L 208.51 208.66 C 207.57 208.34 206.54 208.84 206.22 209.79 C 205.90 210.73 206.41 211.75 207.35 212.07 Z M 208.25 212.38 L 209.18 212.71 C 210.12 213.04 211.15 212.55 211.48 211.61 C 211.82 210.68 211.33 209.64 210.39 209.31 L 209.46 208.98 C 208.52 208.65 207.49 209.14 207.16 210.07 C 206.82 211.01 207.31 212.04 208.25 212.38 Z M 209.15 212.70 L 210.10 213.05 C 211.03 213.40 212.06 212.92 212.41 211.99 C 212.76 211.06 212.29 210.02 211.36 209.67 L 210.42 209.32 C 209.49 208.97 208.45 209.45 208.10 210.38 C 207.75 211.31 208.22 212.35 209.15 212.70 Z M 210.07 213.04 L 211.03 213.41 C 211.95 213.78 213.00 213.32 213.36 212.40 C 213.72 211.47 213.27 210.43 212.34 210.06 L 211.39 209.69 C 210.46 209.32 209.42 209.78 209.05 210.70 C 208.69 211.63 209.14 212.67 210.07 213.04 Z M 211.00 213.40 L 211.98 213.80 C 212.89 214.18 213.95 213.75 214.33 212.83 C 214.71 211.91 214.27 210.86 213.35 210.48 L 212.37 210.08 C 211.45 209.70 210.40 210.13 210.02 211.05 C 209.64 211.97 210.08 213.02 211.00 213.40 Z M 211.95 213.79 L 212.82 214.17 C 213.73 214.56 214.79 214.14 215.18 213.23 C 215.58 212.32 215.16 211.26 214.24 210.87 L 213.38 210.49 C 212.46 210.10 211.41 210.52 211.01 211.43 C 210.62 212.34 211.04 213.40 211.95 213.79 Z M 212.80 214.16 L 213.69 214.55 C 214.60 214.96 215.66 214.55 216.06 213.64 C 216.47 212.73 216.06 211.67 215.15 211.27 L 214.26 210.88 C 213.36 210.47 212.29 210.88 211.89 211.79 C 211.49 212.70 211.90 213.76 212.80 214.16 Z M 213.68 214.55 L 214.58 214.96 C 215.49 215.37 216.55 214.97 216.96 214.06 C 217.37 213.16 216.97 212.09 216.06 211.69 L 215.16 211.28 C 214.26 210.87 213.19 211.27 212.78 212.17 C 212.38 213.07 212.78 214.14 213.68 214.55 Z M 214.58 214.95 L 215.49 215.37 C 216.39 215.79 217.46 215.39 217.87 214.49 C 218.28 213.59 217.89 212.52 216.99 212.11 L 216.07 211.69 C 215.17 211.28 214.10 211.67 213.69 212.57 C 213.28 213.47 213.67 214.54 214.58 214.95 Z M 215.49 215.37 L 216.41 215.80 C 217.31 216.21 218.38 215.82 218.79 214.92 C 219.21 214.02 218.81 212.95 217.91 212.54 L 216.99 212.11 C 216.09 211.70 215.02 212.09 214.61 212.99 C 214.19 213.89 214.59 214.96 215.49 215.37 Z M 216.41 215.80 L 217.34 216.22 C 218.24 216.64 219.31 216.24 219.72 215.34 C 220.13 214.44 219.74 213.37 218.84 212.96 L 217.91 212.54 C 217.01 212.12 215.94 212.52 215.53 213.42 C 215.12 214.32 215.51 215.38 216.41 215.80 Z M 217.35 216.22 L 218.28 216.65 C 219.18 217.06 220.25 216.66 220.66 215.76 C 221.06 214.85 220.66 213.79 219.76 213.38 L 218.83 212.96 C 217.93 212.55 216.87 212.95 216.46 213.85 C 216.05 214.75 216.45 215.82 217.35 216.22 Z M 218.29 216.65 L 219.22 217.07 C 220.13 217.47 221.19 217.06 221.59 216.16 C 221.99 215.25 221.59 214.19 220.68 213.79 L 219.75 213.38 C 218.85 212.97 217.79 213.38 217.39 214.29 C 216.98 215.19 217.39 216.25 218.29 216.65 Z M 219.24 217.07 L 220.17 217.47 C 221.07 217.87 222.13 217.45 222.52 216.54 C 222.92 215.64 222.50 214.58 221.59 214.19 L 220.67 213.79 C 219.76 213.39 218.70 213.81 218.31 214.72 C 217.92 215.62 218.33 216.68 219.24 217.07 Z M 220.19 217.48 L 221.10 217.87 C 222.02 218.25 223.07 217.82 223.45 216.91 C 223.83 215.99 223.40 214.94 222.49 214.56 L 221.57 214.18 C 220.66 213.80 219.61 214.23 219.23 215.14 C 218.84 216.05 219.27 217.10 220.19 217.48 Z M 221.13 217.87 L 222.11 218.26 C 223.03 218.63 224.07 218.18 224.43 217.27 C 224.80 216.35 224.35 215.31 223.44 214.95 L 222.46 214.56 C 221.54 214.19 220.50 214.64 220.14 215.55 C 219.77 216.47 220.22 217.51 221.13 217.87 Z M 222.14 218.26 L 223.11 218.63 C 224.03 218.98 225.05 218.52 225.40 217.60 C 225.75 216.69 225.29 215.67 224.37 215.32 L 223.41 214.95 C 222.49 214.60 221.47 215.06 221.12 215.97 C 220.77 216.89 221.23 217.91 222.14 218.26 Z M 223.14 218.63 L 224.10 218.98 C 225.01 219.31 226.02 218.84 226.36 217.92 C 226.69 217.01 226.22 216.00 225.30 215.67 L 224.34 215.32 C 223.43 214.99 222.42 215.46 222.09 216.37 C 221.75 217.29 222.23 218.30 223.14 218.63 Z M 224.12 218.97 L 225.07 219.31 C 225.98 219.62 226.98 219.14 227.30 218.23 C 227.62 217.32 227.14 216.32 226.23 216.00 L 225.28 215.67 C 224.36 215.35 223.37 215.83 223.05 216.75 C 222.73 217.66 223.21 218.66 224.12 218.97 Z M 225.09 219.30 L 226.04 219.62 C 226.95 219.92 227.93 219.43 228.24 218.52 C 228.54 217.61 228.05 216.63 227.14 216.32 L 226.20 216.01 C 225.29 215.70 224.31 216.19 224.00 217.10 C 223.70 218.01 224.18 219.00 225.09 219.30 Z M 226.06 219.61 L 226.99 219.92 C 227.90 220.21 228.87 219.72 229.17 218.81 C 229.46 217.90 228.97 216.93 228.06 216.63 L 227.12 216.33 C 226.22 216.03 225.24 216.53 224.95 217.44 C 224.65 218.34 225.15 219.32 226.06 219.61 Z M 227.01 219.91 L 227.94 220.20 C 228.84 220.49 229.80 219.99 230.09 219.09 C 230.38 218.19 229.88 217.22 228.98 216.94 L 228.04 216.64 C 227.14 216.35 226.18 216.85 225.89 217.76 C 225.60 218.66 226.10 219.62 227.01 219.91 Z M 227.95 220.20 L 228.88 220.49 C 229.78 220.77 230.73 220.26 231.01 219.37 C 231.29 218.47 230.79 217.51 229.89 217.23 L 228.96 216.94 C 228.07 216.66 227.11 217.16 226.83 218.06 C 226.55 218.96 227.05 219.92 227.95 220.20 Z M 228.89 220.48 L 229.81 220.76 C 230.70 221.04 231.65 220.54 231.93 219.64 C 232.20 218.75 231.70 217.80 230.81 217.53 L 229.88 217.24 C 228.99 216.97 228.04 217.47 227.77 218.36 C 227.49 219.25 227.99 220.20 228.89 220.48 Z M 229.82 220.76 L 230.08 220.84 C 230.97 221.11 231.91 220.61 232.19 219.72 C 232.46 218.83 231.96 217.89 231.07 217.62 L 230.81 217.54 C 229.92 217.26 228.97 217.76 228.70 218.65 C 228.43 219.54 228.93 220.48 229.82 220.76 Z"
      fill="black"
      fill-rule="nonzero" /></svg>