<svg xmlns="http://www.w3.org/2000/svg" width="300" height="300" viewBox="0 0 300 300">
<path d="M 209.70 71.23 L 209.34 69.93 C 209.10 69.04 208.18 68.52 207.29 68.76 C 206.40 69.00 205.87 69.92 206.12 70.81 L 206.48 72.12 C 206.72 73.01 207.64 73.53 208.53 73.29 C 209.42 73.04 209.94 72.12 209.70 71.23 Z M 209.36 69.90 L 209.01 68.68 C 208.75 67.77 207.81 67.25 206.91 67.51 C 206.01 67.77 205.49 68.71 205.75 69.61 L 206.10 70.84 C 206.36 71.74 207.30 72.26 208.20 72.00 C 209.10 71.75 209.62 70.81 209.36 69.90 Z M 209.02 68.63 L 208.68 67.55 C 208.40 66.64 207.43 66.14 206.52 66.42 C 205.61 66.71 205.11 67.67 205.40 68.58 L 205.73 69.66 C 206.02 70.57 206.99 71.07 207.90 70.79 C 208.80 70.50 209.31 69.53 209.02 68.63 Z M 208.68 67.45 L 208.36 66.60 C 208.02 65.70 207.01 65.24 206.11 65.58 C 205.20 65.92 204.74 66.93 205.08 67.83 L 205.40 68.68 C 205.74 69.58 206.75 70.04 207.65 69.70 C 208.56 69.36 209.02 68.35 208.68 67.45 Z M 208.28 66.38 L 207.99 65.83 C 207.53 64.97 206.45 64.64 205.59 65.11 C 204.72 65.57 204.40 66.65 204.86 67.51 L 205.16 68.06 C 205.62 68.92 206.70 69.24 207.56 68.78 C 208.42 68.32 208.75 67.24 208.28 66.38 Z M 207.29 65.09 L 207.00 64.93 C 206.12 64.46 205.03 64.78 204.56 65.65 C 204.08 66.52 204.40 67.61 205.27 68.09 L 205.57 68.25 C 206.44 68.72 207.53 68.40 208.01 67.53 C 208.48 66.66 208.16 65.57 207.29 65.09 Z M 204.67 65.45 L 204.38 65.84 C 203.79 66.65 203.97 67.79 204.78 68.38 C 205.59 68.96 206.72 68.78 207.31 67.97 L 207.60 67.58 C 208.19 66.77 208.01 65.63 207.20 65.04 C 206.39 64.46 205.26 64.64 204.67 65.45 Z M 204.10 66.37 L 203.83 67.26 C 203.53 68.22 204.07 69.24 205.03 69.54 C 205.99 69.84 207.01 69.30 207.31 68.34 L 207.59 67.45 C 207.88 66.49 207.35 65.47 206.38 65.17 C 205.42 64.87 204.40 65.41 204.10 66.37 Z M 203.79 67.38 L 203.50 68.63 C 203.27 69.62 203.88 70.60 204.87 70.83 C 205.85 71.06 206.84 70.45 207.07 69.46 L 207.36 68.21 C 207.59 67.23 206.97 66.24 205.99 66.01 C 205.00 65.78 204.02 66.40 203.79 67.38 Z M 203.48 68.64 L 203.17 70.02 C 202.95 71.01 203.57 72.00 204.56 72.22 C 205.55 72.45 206.54 71.83 206.76 70.83 L 207.08 69.45 C 207.30 68.46 206.68 67.47 205.69 67.25 C 204.70 67.02 203.71 67.65 203.48 68.64 Z M 203.17 69.99 L 202.94 70.94 C 202.70 71.93 203.31 72.93 204.30 73.17 C 205.29 73.41 206.29 72.81 206.53 71.82 L 206.76 70.86 C 207.00 69.87 206.40 68.87 205.41 68.63 C 204.41 68.39 203.41 69.00 203.17 69.99 Z M 202.95 70.92 L 202.69 71.90 C 202.44 72.88 203.03 73.89 204.02 74.15 C 205.01 74.40 206.02 73.81 206.27 72.82 L 206.53 71.84 C 206.78 70.85 206.19 69.84 205.20 69.59 C 204.21 69.33 203.20 69.93 202.95 70.92 Z M 202.70 71.87 L 202.43 72.87 C 202.16 73.85 202.75 74.87 203.73 75.13 C 204.72 75.40 205.73 74.82 206.00 73.83 L 206.27 72.84 C 206.53 71.85 205.95 70.84 204.97 70.57 C 203.98 70.31 202.96 70.89 202.70 71.87 Z M 202.43 72.85 L 202.15 73.84 C 201.88 74.82 202.45 75.85 203.44 76.12 C 204.42 76.40 205.44 75.83 205.72 74.84 L 206.00 73.85 C 206.27 72.87 205.70 71.84 204.72 71.57 C 203.73 71.29 202.71 71.86 202.43 72.85 Z M 202.16 73.82 L 201.87 74.80 C 201.59 75.78 202.15 76.81 203.13 77.10 C 204.12 77.38 205.14 76.82 205.43 75.84 L 205.71 74.86 C 206.00 73.88 205.44 72.85 204.45 72.56 C 203.47 72.28 202.44 72.84 202.16 73.82 Z M 201.88 74.78 L 201.59 75.73 C 201.30 76.71 201.85 77.75 202.83 78.04 C 203.81 78.34 204.85 77.78 205.14 76.80 L 205.43 75.85 C 205.72 74.87 205.17 73.84 204.19 73.54 C 203.21 73.25 202.17 73.80 201.88 74.78 Z M 201.60 75.72 L 201.31 76.63 C 201.01 77.60 201.56 78.64 202.53 78.95 C 203.51 79.25 204.55 78.70 204.85 77.73 L 205.14 76.82 C 205.44 75.84 204.89 74.80 203.92 74.50 C 202.94 74.19 201.90 74.74 201.60 75.72 Z M 201.32 76.61 L 200.98 77.65 C 200.67 78.62 201.20 79.67 202.18 79.98 C 203.15 80.30 204.20 79.76 204.51 78.79 L 204.85 77.75 C 205.16 76.77 204.63 75.73 203.65 75.41 C 202.68 75.10 201.63 75.63 201.32 76.61 Z M 200.99 77.63 L 200.66 78.61 C 200.34 79.58 200.86 80.63 201.83 80.95 C 202.80 81.28 203.85 80.76 204.18 79.78 L 204.51 78.81 C 204.83 77.84 204.31 76.79 203.34 76.46 C 202.37 76.13 201.32 76.66 200.99 77.63 Z M 200.67 78.59 L 200.34 79.52 C 200.01 80.48 200.52 81.54 201.49 81.88 C 202.45 82.21 203.51 81.70 203.85 80.73 L 204.17 79.80 C 204.51 78.84 204.00 77.78 203.03 77.44 C 202.06 77.11 201.00 77.62 200.67 78.59 Z M 200.35 79.50 L 200.03 80.40 C 199.68 81.37 200.18 82.43 201.15 82.77 C 202.11 83.12 203.17 82.62 203.52 81.66 L 203.84 80.75 C 204.19 79.79 203.69 78.73 202.72 78.38 C 201.76 78.03 200.70 78.54 200.35 79.50 Z M 200.03 80.39 L 199.70 81.28 C 199.35 82.25 199.84 83.31 200.80 83.66 C 201.76 84.02 202.83 83.53 203.18 82.56 L 203.51 81.67 C 203.87 80.71 203.37 79.64 202.41 79.29 C 201.45 78.93 200.39 79.43 200.03 80.39 Z M 199.71 81.28 L 199.38 82.15 C 199.02 83.11 199.51 84.18 200.47 84.54 C 201.43 84.89 202.49 84.41 202.85 83.45 L 203.18 82.57 C 203.54 81.61 203.05 80.55 202.09 80.19 C 201.13 79.83 200.06 80.32 199.71 81.28 Z M 199.38 82.14 L 199.08 82.93 C 198.72 83.89 199.20 84.96 200.16 85.32 C 201.12 85.68 202.19 85.20 202.55 84.24 L 202.85 83.46 C 203.21 82.50 202.73 81.43 201.77 81.06 C 200.81 80.70 199.74 81.19 199.38 82.14 Z M 199.09 82.92 L 198.77 83.74 C 198.40 84.70 198.88 85.77 199.84 86.14 C 200.79 86.51 201.86 86.03 202.23 85.07 L 202.55 84.25 C 202.92 83.30 202.44 82.22 201.48 81.86 C 200.53 81.49 199.45 81.97 199.09 82.92 Z M 198.78 83.73 L 198.44 84.60 C 198.06 85.55 198.53 86.63 199.48 87.00 C 200.44 87.38 201.51 86.91 201.89 85.95 L 202.23 85.09 C 202.60 84.13 202.13 83.06 201.18 82.68 C 200.23 82.31 199.15 82.78 198.78 83.73 Z M 198.44 84.58 L 198.07 85.50 C 197.69 86.45 198.15 87.53 199.10 87.92 C 200.05 88.30 201.13 87.84 201.51 86.89 L 201.88 85.97 C 202.26 85.02 201.80 83.94 200.85 83.56 C 199.90 83.17 198.82 83.63 198.44 84.58 Z M 198.08 85.49 L 197.67 86.48 C 197.27 87.42 197.72 88.51 198.67 88.90 C 199.62 89.29 200.70 88.84 201.09 87.90 L 201.50 86.91 C 201.89 85.96 201.44 84.88 200.50 84.48 C 199.55 84.09 198.47 84.54 198.08 85.49 Z M 197.67 86.46 L 197.22 87.53 C 196.82 88.47 197.26 89.56 198.20 89.96 C 199.14 90.36 200.23 89.92 200.63 88.98 L 201.09 87.91 C 201.49 86.97 201.05 85.88 200.11 85.48 C 199.16 85.08 198.07 85.52 197.67 86.46 Z M 197.23 87.52 L 196.78 88.53 C 196.37 89.47 196.80 90.56 197.74 90.97 C 198.68 91.38 199.77 90.95 200.18 90.02 L 200.62 89.00 C 201.03 88.06 200.60 86.97 199.67 86.56 C 198.73 86.15 197.63 86.58 197.23 87.52 Z M 196.79 88.52 L 196.42 89.35 C 196.00 90.28 196.43 91.38 197.36 91.79 C 198.30 92.21 199.39 91.79 199.81 90.85 L 200.17 90.03 C 200.59 89.09 200.17 88.00 199.23 87.58 C 198.30 87.16 197.20 87.59 196.79 88.52 Z M 196.42 89.34 L 196.04 90.20 C 195.62 91.13 196.03 92.23 196.96 92.65 C 197.90 93.07 198.99 92.66 199.41 91.72 L 199.80 90.86 C 200.22 89.93 199.81 88.83 198.88 88.41 C 197.94 87.99 196.85 88.40 196.42 89.34 Z M 196.04 90.19 L 195.63 91.08 C 195.21 92.01 195.62 93.11 196.55 93.54 C 197.48 93.96 198.58 93.55 199.00 92.62 L 199.41 91.73 C 199.84 90.80 199.43 89.70 198.50 89.28 C 197.56 88.85 196.47 89.26 196.04 90.19 Z M 195.64 91.07 L 195.21 91.99 C 194.78 92.91 195.19 94.02 196.12 94.45 C 197.05 94.88 198.15 94.47 198.58 93.54 L 199.00 92.63 C 199.43 91.70 199.03 90.60 198.10 90.17 C 197.17 89.74 196.07 90.14 195.64 91.07 Z M 195.22 91.98 L 194.78 92.91 C 194.35 93.83 194.75 94.94 195.67 95.37 C 196.60 95.81 197.70 95.41 198.14 94.48 L 198.57 93.55 C 199.01 92.62 198.61 91.52 197.68 91.09 C 196.76 90.65 195.65 91.05 195.22 91.98 Z M 194.79 92.90 L 194.34 93.84 C 193.90 94.77 194.30 95.87 195.22 96.31 C 196.15 96.75 197.25 96.35 197.69 95.43 L 198.13 94.49 C 198.57 93.56 198.18 92.46 197.25 92.02 C 196.33 91.58 195.22 91.98 194.79 92.90 Z M 194.35 93.83 L 193.89 94.78 C 193.45 95.70 193.84 96.80 194.76 97.25 C 195.69 97.69 196.79 97.30 197.23 96.38 L 197.69 95.43 C 198.13 94.51 197.74 93.41 196.82 92.96 C 195.89 92.52 194.79 92.91 194.35 93.83 Z M 193.90 94.77 L 193.44 95.71 C 192.99 96.63 193.38 97.74 194.30 98.18 C 195.22 98.63 196.33 98.25 196.77 97.33 L 197.23 96.38 C 197.68 95.46 197.29 94.36 196.37 93.91 C 195.45 93.46 194.34 93.85 193.90 94.77 Z M 193.45 95.70 L 192.99 96.63 C 192.54 97.55 192.92 98.66 193.83 99.11 C 194.75 99.56 195.86 99.18 196.31 98.26 L 196.77 97.33 C 197.22 96.42 196.84 95.31 195.92 94.86 C 195.01 94.40 193.90 94.78 193.45 95.70 Z M 192.99 96.62 L 192.53 97.56 C 192.07 98.47 192.44 99.59 193.36 100.04 C 194.27 100.50 195.39 100.12 195.84 99.21 L 196.31 98.27 C 196.76 97.36 196.39 96.25 195.47 95.79 C 194.56 95.33 193.45 95.71 192.99 96.62 Z M 192.53 97.55 L 192.02 98.57 C 191.56 99.48 191.92 100.59 192.83 101.05 C 193.75 101.52 194.86 101.15 195.32 100.24 L 195.84 99.22 C 196.30 98.31 195.93 97.19 195.02 96.73 C 194.11 96.27 192.99 96.64 192.53 97.55 Z M 192.02 98.56 L 191.52 99.55 C 191.05 100.46 191.41 101.57 192.32 102.04 C 193.23 102.50 194.34 102.14 194.81 101.23 L 195.32 100.25 C 195.78 99.34 195.42 98.22 194.51 97.76 C 193.60 97.29 192.49 97.65 192.02 98.56 Z M 191.52 99.54 L 191.03 100.49 C 190.55 101.40 190.91 102.52 191.81 102.99 C 192.72 103.46 193.84 103.11 194.31 102.20 L 194.80 101.24 C 195.28 100.34 194.92 99.22 194.02 98.75 C 193.11 98.28 191.99 98.63 191.52 99.54 Z M 191.03 100.49 L 190.55 101.41 C 190.07 102.31 190.42 103.43 191.32 103.90 C 192.23 104.38 193.35 104.03 193.82 103.13 L 194.30 102.21 C 194.78 101.30 194.43 100.18 193.53 99.71 C 192.62 99.23 191.50 99.58 191.03 100.49 Z M 190.55 101.40 L 190.08 102.29 C 189.60 103.19 189.95 104.31 190.85 104.79 C 191.75 105.26 192.87 104.92 193.35 104.02 L 193.82 103.13 C 194.29 102.23 193.95 101.11 193.05 100.63 C 192.15 100.16 191.03 100.50 190.55 101.40 Z M 190.08 102.28 L 189.63 103.13 C 189.15 104.03 189.49 105.15 190.39 105.63 C 191.29 106.11 192.41 105.77 192.89 104.87 L 193.34 104.02 C 193.83 103.12 193.49 102.00 192.59 101.52 C 191.69 101.04 190.57 101.38 190.08 102.28 Z M 189.63 103.12 L 189.20 103.93 C 188.72 104.82 189.05 105.95 189.95 106.43 C 190.85 106.91 191.97 106.58 192.45 105.68 L 192.89 104.87 C 193.37 103.98 193.04 102.86 192.14 102.37 C 191.24 101.89 190.12 102.22 189.63 103.12 Z M 189.20 103.92 L 188.79 104.68 C 188.31 105.58 188.64 106.70 189.54 107.19 C 190.43 107.67 191.55 107.34 192.04 106.44 L 192.45 105.68 C 192.94 104.79 192.61 103.66 191.71 103.18 C 190.81 102.69 189.69 103.03 189.20 103.92 Z M 188.79 104.68 L 188.35 105.49 C 187.87 106.38 188.20 107.51 189.10 107.99 C 189.99 108.48 191.11 108.15 191.60 107.25 L 192.04 106.45 C 192.53 105.55 192.19 104.43 191.30 103.94 C 190.40 103.45 189.28 103.79 188.79 104.68 Z M 188.36 105.49 L 187.81 106.50 C 187.32 107.39 187.65 108.51 188.54 109.00 C 189.44 109.49 190.56 109.16 191.05 108.26 L 191.60 107.25 C 192.09 106.36 191.76 105.24 190.86 104.75 C 189.97 104.26 188.84 104.59 188.36 105.49 Z M 187.81 106.49 L 187.30 107.42 C 186.81 108.31 187.14 109.43 188.04 109.92 C 188.93 110.41 190.05 110.08 190.54 109.19 L 191.05 108.27 C 191.54 107.37 191.21 106.25 190.31 105.76 C 189.42 105.27 188.30 105.60 187.81 106.49 Z M 187.30 107.41 L 186.83 108.27 C 186.34 109.16 186.67 110.28 187.56 110.78 C 188.45 111.27 189.58 110.94 190.07 110.05 L 190.54 109.19 C 191.03 108.30 190.71 107.18 189.81 106.68 C 188.92 106.19 187.80 106.52 187.30 107.41 Z M 186.84 108.26 L 186.39 109.08 C 185.89 109.97 186.22 111.09 187.11 111.58 C 188.00 112.08 189.12 111.75 189.62 110.86 L 190.07 110.05 C 190.56 109.16 190.24 108.04 189.34 107.54 C 188.45 107.05 187.33 107.37 186.84 108.26 Z M 186.39 109.07 L 185.95 109.86 C 185.46 110.75 185.78 111.87 186.67 112.37 C 187.56 112.86 188.68 112.54 189.18 111.65 L 189.61 110.87 C 190.11 109.98 189.79 108.85 188.90 108.36 C 188.01 107.86 186.89 108.18 186.39 109.07 Z M 185.96 109.85 L 185.50 110.67 C 185.00 111.56 185.31 112.68 186.20 113.18 C 187.09 113.68 188.22 113.36 188.71 112.48 L 189.17 111.66 C 189.67 110.77 189.36 109.64 188.47 109.15 C 187.58 108.65 186.45 108.96 185.96 109.85 Z M 185.50 110.67 L 185.01 111.54 C 184.51 112.42 184.82 113.55 185.71 114.05 C 186.60 114.55 187.72 114.24 188.22 113.35 L 188.71 112.48 C 189.21 111.59 188.90 110.47 188.01 109.97 C 187.12 109.47 186.00 109.78 185.50 110.67 Z M 185.01 111.54 L 184.52 112.41 C 184.01 113.30 184.33 114.42 185.21 114.92 C 186.10 115.42 187.22 115.11 187.73 114.23 L 188.22 113.35 C 188.72 112.47 188.41 111.34 187.52 110.84 C 186.64 110.34 185.51 110.65 185.01 111.54 Z M 184.52 112.41 L 184.02 113.28 C 183.52 114.17 183.83 115.29 184.72 115.80 C 185.60 116.30 186.73 115.99 187.23 115.10 L 187.72 114.23 C 188.23 113.34 187.91 112.21 187.03 111.71 C 186.14 111.21 185.02 111.52 184.52 112.41 Z M 184.02 113.28 L 183.53 114.16 C 183.03 115.04 183.34 116.17 184.23 116.67 C 185.11 117.17 186.24 116.86 186.74 115.97 L 187.23 115.10 C 187.73 114.21 187.42 113.09 186.53 112.59 C 185.65 112.09 184.52 112.40 184.02 113.28 Z M 183.53 114.16 L 183.04 115.03 C 182.54 115.91 182.86 117.04 183.74 117.54 C 184.63 118.04 185.75 117.72 186.25 116.83 L 186.74 115.97 C 187.24 115.08 186.92 113.95 186.04 113.46 C 185.15 112.96 184.03 113.27 183.53 114.16 Z M 183.04 115.03 L 182.55 115.90 C 182.06 116.79 182.37 117.91 183.26 118.41 C 184.15 118.90 185.27 118.58 185.77 117.70 L 186.25 116.83 C 186.75 115.94 186.43 114.82 185.54 114.32 C 184.66 113.83 183.53 114.14 183.04 115.03 Z M 182.55 115.90 L 182.07 116.77 C 181.57 117.65 181.89 118.78 182.78 119.27 C 183.67 119.77 184.79 119.45 185.29 118.56 L 185.77 117.69 C 186.26 116.81 185.95 115.68 185.06 115.19 C 184.17 114.69 183.05 115.01 182.55 115.90 Z M 182.07 116.77 L 181.59 117.63 C 181.09 118.52 181.41 119.64 182.30 120.14 C 183.18 120.63 184.31 120.32 184.80 119.43 L 185.29 118.56 C 185.78 117.67 185.46 116.55 184.58 116.06 C 183.69 115.56 182.57 115.88 182.07 116.77 Z M 181.59 117.63 L 181.10 118.50 C 180.60 119.39 180.91 120.51 181.80 121.01 C 182.69 121.51 183.81 121.19 184.31 120.31 L 184.80 119.43 C 185.30 118.55 184.98 117.42 184.10 116.93 C 183.21 116.43 182.09 116.74 181.59 117.63 Z M 181.10 118.50 L 180.60 119.38 C 180.10 120.26 180.41 121.38 181.29 121.89 C 182.18 122.39 183.30 122.08 183.80 121.20 L 184.30 120.31 C 184.80 119.43 184.49 118.31 183.61 117.81 C 182.73 117.30 181.60 117.61 181.10 118.50 Z M 180.61 119.37 L 180.16 120.15 C 179.65 121.03 179.96 122.16 180.84 122.66 C 181.72 123.17 182.84 122.86 183.35 121.98 L 183.80 121.20 C 184.30 120.32 184.00 119.20 183.12 118.69 C 182.24 118.19 181.11 118.49 180.61 119.37 Z M 180.16 120.15 L 179.70 120.95 C 179.19 121.83 179.49 122.95 180.37 123.46 C 181.24 123.97 182.37 123.67 182.88 122.79 L 183.34 121.99 C 183.85 121.11 183.55 119.99 182.67 119.48 C 181.80 118.97 180.67 119.27 180.16 120.15 Z M 179.70 120.95 L 179.21 121.78 C 178.70 122.66 179.00 123.78 179.88 124.29 C 180.75 124.80 181.88 124.51 182.39 123.63 L 182.87 122.80 C 183.39 121.92 183.09 120.79 182.21 120.28 C 181.34 119.77 180.21 120.07 179.70 120.95 Z M 179.22 121.78 L 178.70 122.65 C 178.19 123.53 178.49 124.65 179.36 125.16 C 180.24 125.68 181.36 125.38 181.88 124.50 L 182.39 123.63 C 182.90 122.76 182.60 121.63 181.73 121.12 C 180.85 120.61 179.73 120.90 179.22 121.78 Z M 178.71 122.65 L 178.17 123.58 C 177.65 124.45 177.95 125.58 178.82 126.09 C 179.70 126.60 180.82 126.30 181.34 125.43 L 181.88 124.50 C 182.39 123.63 182.09 122.50 181.22 121.99 C 180.34 121.48 179.22 121.78 178.71 122.65 Z M 178.17 123.58 L 177.60 124.55 C 177.09 125.42 177.39 126.55 178.26 127.06 C 179.14 127.57 180.26 127.27 180.77 126.40 L 181.34 125.43 C 181.85 124.55 181.55 123.43 180.67 122.92 C 179.80 122.41 178.68 122.70 178.17 123.58 Z M 177.60 124.55 L 177.15 125.32 C 176.64 126.20 176.94 127.32 177.82 127.83 C 178.69 128.34 179.82 128.04 180.33 127.16 L 180.77 126.39 C 181.28 125.52 180.98 124.40 180.11 123.89 C 179.23 123.38 178.11 123.68 177.60 124.55 Z M 177.15 125.32 L 176.69 126.12 C 176.18 127.00 176.48 128.12 177.36 128.63 C 178.23 129.14 179.35 128.84 179.86 127.96 L 180.32 127.16 C 180.83 126.28 180.53 125.16 179.66 124.65 C 178.78 124.15 177.66 124.45 177.15 125.32 Z M 176.69 126.13 L 176.21 126.96 C 175.70 127.84 176.00 128.96 176.88 129.46 C 177.75 129.97 178.87 129.67 179.38 128.79 L 179.86 127.96 C 180.37 127.08 180.07 125.96 179.19 125.46 C 178.31 124.95 177.19 125.25 176.69 126.13 Z M 176.21 126.96 L 175.71 127.82 C 175.21 128.70 175.51 129.82 176.38 130.32 C 177.26 130.83 178.38 130.53 178.88 129.65 L 179.38 128.79 C 179.88 127.91 179.58 126.80 178.71 126.29 C 177.83 125.79 176.71 126.09 176.21 126.96 Z M 175.71 127.83 L 175.20 128.71 C 174.70 129.59 175.00 130.70 175.88 131.21 C 176.75 131.71 177.87 131.41 178.37 130.54 L 178.88 129.65 C 179.38 128.77 179.08 127.66 178.21 127.15 C 177.33 126.65 176.22 126.95 175.71 127.83 Z M 175.20 128.71 L 174.68 129.62 C 174.18 130.50 174.48 131.61 175.36 132.12 C 176.23 132.62 177.35 132.32 177.85 131.44 L 178.37 130.53 C 178.87 129.66 178.57 128.54 177.70 128.04 C 176.82 127.54 175.70 127.84 175.20 128.71 Z M 174.68 129.62 L 174.15 130.55 C 173.65 131.43 173.95 132.54 174.83 133.04 C 175.70 133.55 176.82 133.24 177.32 132.37 L 177.85 131.44 C 178.35 130.57 178.05 129.45 177.17 128.95 C 176.30 128.45 175.18 128.75 174.68 129.62 Z M 174.15 130.56 L 173.61 131.50 C 173.11 132.37 173.41 133.49 174.29 133.99 C 175.16 134.49 176.28 134.19 176.78 133.31 L 177.32 132.37 C 177.82 131.49 177.51 130.38 176.64 129.88 C 175.76 129.38 174.65 129.68 174.15 130.56 Z M 173.61 131.50 L 173.12 132.36 C 172.62 133.24 172.92 134.35 173.80 134.85 C 174.67 135.35 175.78 135.04 176.28 134.17 L 176.78 133.31 C 177.27 132.43 176.97 131.32 176.10 130.82 C 175.22 130.32 174.11 130.63 173.61 131.50 Z M 173.12 132.36 L 172.63 133.23 C 172.13 134.10 172.43 135.22 173.31 135.71 C 174.18 136.21 175.29 135.91 175.79 135.03 L 176.28 134.17 C 176.78 133.29 176.48 132.18 175.60 131.68 C 174.73 131.19 173.62 131.49 173.12 132.36 Z M 172.63 133.23 L 172.13 134.10 C 171.63 134.98 171.94 136.09 172.81 136.59 C 173.69 137.08 174.80 136.78 175.30 135.90 L 175.79 135.03 C 176.29 134.16 175.98 133.04 175.11 132.55 C 174.23 132.05 173.12 132.36 172.63 133.23 Z M 172.13 134.11 L 171.63 134.98 C 171.14 135.86 171.45 136.97 172.32 137.46 C 173.19 137.96 174.31 137.65 174.80 136.77 L 175.30 135.90 C 175.79 135.02 175.49 133.91 174.61 133.42 C 173.74 132.92 172.63 133.23 172.13 134.11 Z M 171.63 134.98 L 171.14 135.86 C 170.64 136.74 170.95 137.85 171.83 138.34 C 172.70 138.83 173.81 138.53 174.31 137.65 L 174.80 136.77 C 175.30 135.90 174.99 134.79 174.11 134.29 C 173.24 133.80 172.13 134.11 171.63 134.98 Z M 171.14 135.87 L 170.64 136.74 C 170.15 137.62 170.46 138.73 171.34 139.22 C 172.21 139.71 173.32 139.40 173.81 138.53 L 174.31 137.65 C 174.80 136.77 174.49 135.66 173.61 135.17 C 172.74 134.68 171.63 134.99 171.14 135.87 Z M 170.64 136.75 L 170.15 137.63 C 169.66 138.50 169.98 139.61 170.85 140.10 C 171.73 140.59 172.83 140.28 173.32 139.40 L 173.81 138.52 C 174.30 137.65 173.99 136.54 173.11 136.05 C 172.24 135.56 171.13 135.87 170.64 136.75 Z M 170.15 137.63 L 169.66 138.50 C 169.18 139.38 169.49 140.49 170.37 140.97 C 171.25 141.46 172.35 141.15 172.84 140.27 L 173.33 139.39 C 173.81 138.52 173.50 137.41 172.62 136.92 C 171.74 136.44 170.64 136.75 170.15 137.63 Z M 169.66 138.51 L 169.18 139.38 C 168.70 140.25 169.02 141.36 169.90 141.84 C 170.77 142.33 171.88 142.01 172.36 141.13 L 172.84 140.26 C 173.33 139.39 173.01 138.28 172.13 137.80 C 171.25 137.31 170.15 137.63 169.66 138.51 Z M 169.18 139.38 L 168.67 140.32 C 168.19 141.20 168.51 142.30 169.39 142.79 C 170.27 143.27 171.37 142.95 171.85 142.07 L 172.36 141.13 C 172.85 140.25 172.52 139.14 171.65 138.66 C 170.77 138.18 169.66 138.50 169.18 139.38 Z M 168.67 140.33 L 168.16 141.27 C 167.68 142.15 168.00 143.25 168.88 143.72 C 169.76 144.20 170.86 143.88 171.34 143.00 L 171.85 142.06 C 172.33 141.18 172.00 140.08 171.13 139.61 C 170.25 139.13 169.15 139.45 168.67 140.33 Z M 168.16 141.27 L 167.66 142.19 C 167.18 143.07 167.50 144.16 168.38 144.64 C 169.25 145.12 170.35 144.80 170.83 143.92 L 171.33 143.00 C 171.81 142.12 171.49 141.03 170.61 140.55 C 169.74 140.07 168.64 140.39 168.16 141.27 Z M 167.66 142.19 L 167.17 143.09 C 166.69 143.96 167.01 145.06 167.88 145.54 C 168.75 146.02 169.85 145.70 170.33 144.83 L 170.82 143.93 C 171.30 143.05 170.98 141.95 170.11 141.48 C 169.24 141.00 168.14 141.31 167.66 142.19 Z M 167.17 143.08 L 166.69 143.96 C 166.20 144.83 166.52 145.92 167.39 146.41 C 168.26 146.89 169.35 146.58 169.84 145.71 L 170.32 144.83 C 170.80 143.96 170.49 142.87 169.62 142.38 C 168.75 141.90 167.66 142.21 167.17 143.08 Z M 166.70 143.95 L 166.22 144.79 C 165.73 145.66 166.03 146.75 166.90 147.24 C 167.76 147.73 168.86 147.43 169.35 146.56 L 169.83 145.72 C 170.31 144.85 170.01 143.76 169.15 143.27 C 168.28 142.78 167.19 143.08 166.70 143.95 Z M 166.23 144.78 L 165.76 145.59 C 165.26 146.45 165.55 147.54 166.41 148.04 C 167.27 148.54 168.37 148.25 168.86 147.39 L 169.34 146.58 C 169.83 145.72 169.54 144.62 168.68 144.13 C 167.83 143.63 166.73 143.92 166.23 144.78 Z M 165.78 145.57 L 165.31 146.34 C 164.80 147.19 165.08 148.29 165.93 148.80 C 166.78 149.31 167.88 149.03 168.38 148.18 L 168.85 147.41 C 169.36 146.56 169.08 145.46 168.23 144.95 C 167.38 144.44 166.28 144.72 165.78 145.57 Z M 165.33 146.31 L 164.77 147.21 C 164.25 148.05 164.50 149.15 165.34 149.68 C 166.17 150.20 167.28 149.95 167.80 149.11 L 168.36 148.21 C 168.89 147.38 168.63 146.27 167.80 145.75 C 166.96 145.22 165.86 145.48 165.33 146.31 Z M 164.80 147.18 L 164.20 148.09 C 163.66 148.91 163.88 150.01 164.70 150.56 C 165.53 151.10 166.63 150.87 167.17 150.05 L 167.77 149.14 C 168.31 148.32 168.09 147.22 167.27 146.68 C 166.45 146.13 165.34 146.36 164.80 147.18 Z M 164.23 148.06 L 163.64 148.90 C 163.08 149.71 163.28 150.82 164.09 151.37 C 164.89 151.93 166.00 151.73 166.56 150.93 L 167.15 150.08 C 167.71 149.27 167.51 148.17 166.70 147.61 C 165.89 147.05 164.79 147.25 164.23 148.06 Z M 163.66 148.88 L 163.09 149.67 C 162.52 150.47 162.70 151.57 163.49 152.15 C 164.28 152.72 165.39 152.54 165.96 151.75 L 166.54 150.95 C 167.11 150.16 166.93 149.05 166.14 148.48 C 165.34 147.91 164.24 148.08 163.66 148.88 Z M 163.11 149.65 L 162.55 150.41 C 161.96 151.19 162.13 152.30 162.91 152.88 C 163.69 153.46 164.79 153.30 165.38 152.52 L 165.94 151.77 C 166.52 150.98 166.36 149.88 165.58 149.30 C 164.80 148.71 163.69 148.87 163.11 149.65 Z M 162.56 150.40 L 162.01 151.12 C 161.42 151.89 161.57 153.00 162.34 153.59 C 163.12 154.18 164.22 154.03 164.81 153.25 L 165.36 152.53 C 165.95 151.76 165.80 150.65 165.03 150.06 C 164.26 149.48 163.15 149.62 162.56 150.40 Z M 162.02 151.12 L 161.44 151.87 C 160.85 152.64 161.00 153.74 161.77 154.33 C 162.53 154.92 163.64 154.77 164.23 154.01 L 164.80 153.26 C 165.39 152.49 165.25 151.39 164.48 150.80 C 163.71 150.21 162.61 150.35 162.02 151.12 Z M 161.44 151.88 L 160.85 152.65 C 160.27 153.42 160.42 154.52 161.19 155.10 C 161.96 155.69 163.06 155.54 163.64 154.77 L 164.23 154.00 C 164.81 153.23 164.66 152.13 163.90 151.54 C 163.13 150.96 162.03 151.11 161.44 151.88 Z M 160.84 152.68 L 160.27 153.46 C 159.70 154.24 159.87 155.33 160.64 155.90 C 161.42 156.47 162.52 156.30 163.08 155.52 L 163.66 154.74 C 164.23 153.96 164.06 152.87 163.28 152.30 C 162.50 151.73 161.41 151.90 160.84 152.68 Z M 160.24 153.51 L 159.68 154.32 C 159.14 155.11 159.34 156.20 160.13 156.74 C 160.92 157.28 162.01 157.08 162.55 156.29 L 163.11 155.48 C 163.66 154.69 163.45 153.60 162.66 153.06 C 161.87 152.51 160.78 152.71 160.24 153.51 Z M 159.65 154.38 L 159.10 155.24 C 158.59 156.05 158.84 157.13 159.65 157.64 C 160.46 158.15 161.53 157.91 162.04 157.09 L 162.59 156.23 C 163.10 155.42 162.86 154.35 162.04 153.83 C 161.23 153.32 160.16 153.57 159.65 154.38 Z M 159.07 155.31 L 158.54 156.23 C 158.07 157.07 158.36 158.12 159.20 158.60 C 160.03 159.07 161.09 158.78 161.56 157.94 L 162.08 157.02 C 162.56 156.19 162.26 155.13 161.43 154.66 C 160.60 154.19 159.54 154.48 159.07 155.31 Z M 158.50 156.30 L 158.05 157.19 C 157.61 158.05 157.95 159.10 158.81 159.53 C 159.67 159.97 160.72 159.62 161.16 158.76 L 161.61 157.88 C 162.04 157.02 161.70 155.97 160.84 155.53 C 159.98 155.10 158.93 155.44 158.50 156.30 Z M 157.99 157.26 L 157.57 158.20 C 157.18 159.09 157.58 160.13 158.47 160.53 C 159.37 160.92 160.41 160.52 160.80 159.63 L 161.22 158.69 C 161.61 157.80 161.21 156.76 160.32 156.36 C 159.42 155.97 158.38 156.37 157.99 157.26 Z M 157.51 158.29 L 157.15 159.26 C 156.81 160.19 157.29 161.21 158.21 161.56 C 159.14 161.90 160.17 161.42 160.51 160.50 L 160.86 159.53 C 161.21 158.61 160.73 157.58 159.81 157.24 C 158.88 156.89 157.85 157.37 157.51 158.29 Z M 157.09 159.39 L 156.81 160.37 C 156.54 161.33 157.10 162.33 158.06 162.60 C 159.02 162.87 160.02 162.31 160.30 161.35 L 160.57 160.37 C 160.84 159.41 160.28 158.41 159.32 158.14 C 158.36 157.87 157.36 158.43 157.09 159.39 Z M 156.75 160.53 L 156.58 161.50 C 156.40 162.50 157.06 163.45 158.06 163.63 C 159.05 163.81 160.00 163.15 160.18 162.15 L 160.36 161.18 C 160.54 160.19 159.87 159.24 158.88 159.06 C 157.88 158.88 156.93 159.54 156.75 160.53 Z M 156.53 161.73 L 156.48 162.68 C 156.42 163.70 157.21 164.57 158.23 164.62 C 159.25 164.68 160.12 163.90 160.18 162.88 L 160.23 161.93 C 160.28 160.91 159.50 160.04 158.48 159.98 C 157.46 159.92 156.59 160.71 156.53 161.73 Z M 156.47 162.97 L 156.57 163.93 C 156.68 164.95 157.60 165.70 158.62 165.59 C 159.65 165.48 160.39 164.57 160.28 163.54 L 160.18 162.58 C 160.08 161.56 159.16 160.81 158.14 160.92 C 157.11 161.03 156.37 161.94 156.47 162.97 Z M 156.62 164.22 L 156.87 165.14 C 157.14 166.14 158.16 166.73 159.16 166.47 C 160.16 166.20 160.75 165.17 160.48 164.18 L 160.23 163.25 C 159.97 162.25 158.94 161.66 157.95 161.93 C 156.95 162.19 156.36 163.22 156.62 164.22 Z M 156.94 165.37 L 157.31 166.27 C 157.71 167.23 158.80 167.68 159.76 167.29 C 160.72 166.89 161.17 165.80 160.78 164.84 L 160.41 163.94 C 160.01 162.99 158.92 162.53 157.96 162.93 C 157.00 163.32 156.55 164.42 156.94 165.37 Z M 157.39 166.44 L 157.86 167.32 C 158.34 168.23 159.48 168.58 160.40 168.09 C 161.31 167.60 161.66 166.47 161.17 165.55 L 160.70 164.67 C 160.22 163.76 159.08 163.41 158.16 163.90 C 157.25 164.38 156.90 165.52 157.39 166.44 Z M 157.91 167.42 L 158.46 168.30 C 159.00 169.18 160.16 169.46 161.05 168.91 C 161.93 168.36 162.20 167.20 161.65 166.32 L 161.11 165.44 C 160.57 164.56 159.41 164.29 158.52 164.83 C 157.64 165.38 157.37 166.54 157.91 167.42 Z M 158.49 168.36 L 159.08 169.23 C 159.65 170.10 160.83 170.33 161.69 169.75 C 162.56 169.17 162.79 168.00 162.21 167.14 L 161.62 166.26 C 161.04 165.40 159.87 165.16 159.01 165.74 C 158.14 166.32 157.91 167.49 158.49 168.36 Z M 159.09 169.25 L 159.64 170.05 C 160.23 170.91 161.40 171.13 162.26 170.54 C 163.12 169.95 163.34 168.78 162.75 167.92 L 162.20 167.12 C 161.61 166.26 160.43 166.04 159.57 166.63 C 158.71 167.22 158.50 168.40 159.09 169.25 Z M 159.64 170.06 L 160.21 170.88 C 160.80 171.73 161.98 171.94 162.83 171.35 C 163.69 170.75 163.90 169.57 163.31 168.72 L 162.74 167.91 C 162.14 167.05 160.97 166.84 160.11 167.44 C 159.26 168.03 159.05 169.21 159.64 170.06 Z M 160.21 170.88 L 160.79 171.70 C 161.39 172.55 162.56 172.76 163.42 172.16 C 164.27 171.56 164.48 170.39 163.88 169.53 L 163.30 168.71 C 162.70 167.86 161.53 167.65 160.67 168.25 C 159.82 168.85 159.61 170.03 160.21 170.88 Z M 160.79 171.70 L 161.37 172.53 C 161.97 173.38 163.15 173.59 164.00 172.99 C 164.85 172.39 165.06 171.21 164.46 170.36 L 163.88 169.53 C 163.28 168.68 162.10 168.48 161.25 169.08 C 160.39 169.68 160.19 170.85 160.79 171.70 Z M 161.37 172.53 L 161.96 173.36 C 162.56 174.21 163.73 174.42 164.58 173.82 C 165.44 173.22 165.64 172.04 165.04 171.19 L 164.46 170.36 C 163.86 169.51 162.68 169.30 161.83 169.90 C 160.98 170.50 160.77 171.68 161.37 172.53 Z M 161.95 173.36 L 162.53 174.18 C 163.13 175.04 164.31 175.25 165.16 174.65 C 166.01 174.05 166.22 172.87 165.62 172.02 L 165.04 171.19 C 164.45 170.34 163.27 170.13 162.42 170.73 C 161.56 171.33 161.36 172.50 161.95 173.36 Z M 162.53 174.18 L 163.09 174.99 C 163.69 175.85 164.86 176.06 165.72 175.46 C 166.57 174.87 166.79 173.69 166.19 172.84 L 165.63 172.03 C 165.04 171.17 163.86 170.96 163.00 171.55 C 162.15 172.15 161.94 173.32 162.53 174.18 Z M 163.09 174.98 L 163.63 175.78 C 164.22 176.64 165.40 176.85 166.26 176.26 C 167.11 175.68 167.33 174.50 166.74 173.64 L 166.20 172.85 C 165.61 171.99 164.43 171.77 163.57 172.36 C 162.72 172.95 162.50 174.12 163.09 174.98 Z M 163.63 175.77 L 164.17 176.57 C 164.76 177.43 165.93 177.66 166.79 177.07 C 167.65 176.48 167.88 175.31 167.29 174.45 L 166.75 173.65 C 166.16 172.79 164.99 172.56 164.13 173.15 C 163.27 173.73 163.04 174.91 163.63 175.77 Z M 164.17 176.56 L 164.71 177.38 C 165.30 178.24 166.47 178.47 167.33 177.89 C 168.20 177.30 168.43 176.13 167.84 175.27 L 167.30 174.46 C 166.71 173.59 165.54 173.36 164.68 173.95 C 163.81 174.53 163.58 175.70 164.17 176.56 Z M 164.71 177.37 L 165.26 178.20 C 165.84 179.07 167.02 179.30 167.88 178.72 C 168.75 178.14 168.98 176.97 168.40 176.10 L 167.85 175.27 C 167.27 174.41 166.10 174.17 165.23 174.75 C 164.36 175.33 164.13 176.50 164.71 177.37 Z M 165.26 178.20 L 165.83 179.05 C 166.41 179.92 167.58 180.15 168.44 179.57 C 169.31 179.00 169.55 177.83 168.97 176.96 L 168.40 176.11 C 167.83 175.24 166.66 175.00 165.79 175.58 C 164.92 176.16 164.69 177.33 165.26 178.20 Z M 165.83 179.05 L 166.41 179.93 C 166.99 180.80 168.16 181.04 169.03 180.46 C 169.90 179.89 170.13 178.71 169.56 177.85 L 168.97 176.96 C 168.40 176.09 167.23 175.86 166.36 176.43 C 165.49 177.01 165.25 178.18 165.83 179.05 Z M 166.41 179.93 L 166.97 180.78 C 167.55 181.65 168.72 181.89 169.59 181.31 C 170.46 180.74 170.70 179.57 170.12 178.70 L 169.56 177.85 C 168.99 176.98 167.82 176.74 166.95 177.31 C 166.08 177.89 165.84 179.06 166.41 179.93 Z M 166.97 180.78 L 167.53 181.63 C 168.11 182.49 169.28 182.73 170.15 182.16 C 171.01 181.59 171.25 180.42 170.68 179.55 L 170.12 178.70 C 169.55 177.83 168.38 177.59 167.51 178.16 C 166.64 178.74 166.40 179.91 166.97 180.78 Z M 167.53 181.62 L 168.10 182.49 C 168.67 183.36 169.84 183.60 170.71 183.02 C 171.58 182.45 171.82 181.28 171.25 180.41 L 170.68 179.55 C 170.11 178.68 168.94 178.44 168.07 179.01 C 167.20 179.59 166.96 180.76 167.53 181.62 Z M 168.10 182.49 L 168.67 183.35 C 169.24 184.22 170.41 184.46 171.28 183.89 C 172.15 183.31 172.39 182.14 171.82 181.27 L 171.25 180.41 C 170.68 179.54 169.51 179.30 168.64 179.87 C 167.77 180.45 167.53 181.62 168.10 182.49 Z M 168.67 183.35 L 169.23 184.20 C 169.81 185.07 170.98 185.31 171.85 184.74 C 172.71 184.17 172.95 183.00 172.38 182.13 L 171.82 181.27 C 171.24 180.40 170.07 180.17 169.21 180.74 C 168.34 181.31 168.10 182.48 168.67 183.35 Z M 169.24 184.20 L 169.79 185.04 C 170.36 185.91 171.53 186.15 172.40 185.57 C 173.27 185.00 173.50 183.83 172.93 182.96 L 172.38 182.13 C 171.81 181.26 170.64 181.02 169.77 181.59 C 168.90 182.17 168.66 183.34 169.24 184.20 Z M 169.79 185.04 L 170.32 185.84 C 170.90 186.71 172.06 186.95 172.93 186.37 C 173.80 185.80 174.04 184.63 173.46 183.76 L 172.93 182.96 C 172.35 182.09 171.18 181.85 170.32 182.43 C 169.45 183.00 169.21 184.17 169.79 185.04 Z M 170.32 185.85 L 170.85 186.63 C 171.42 187.50 172.59 187.73 173.46 187.16 C 174.32 186.58 174.56 185.41 173.98 184.54 L 173.46 183.76 C 172.88 182.89 171.71 182.66 170.85 183.23 C 169.98 183.81 169.75 184.98 170.32 185.85 Z M 170.85 186.64 L 171.41 187.47 C 171.99 188.33 173.16 188.56 174.02 187.99 C 174.88 187.41 175.12 186.24 174.54 185.37 L 173.98 184.54 C 173.40 183.68 172.23 183.44 171.37 184.02 C 170.50 184.60 170.27 185.77 170.85 186.64 Z M 171.41 187.47 L 171.94 188.27 C 172.53 189.13 173.70 189.36 174.56 188.78 C 175.42 188.20 175.65 187.03 175.07 186.16 L 174.53 185.37 C 173.95 184.51 172.78 184.28 171.92 184.86 C 171.06 185.44 170.83 186.61 171.41 187.47 Z M 171.95 188.27 L 172.48 189.05 C 173.06 189.91 174.23 190.14 175.09 189.56 C 175.95 188.97 176.18 187.80 175.59 186.94 L 175.07 186.16 C 174.48 185.30 173.31 185.07 172.45 185.66 C 171.59 186.24 171.37 187.41 171.95 188.27 Z M 172.48 189.05 L 173.02 189.85 C 173.60 190.71 174.77 190.93 175.63 190.35 C 176.49 189.77 176.71 188.60 176.13 187.74 L 175.59 186.94 C 175.01 186.08 173.84 185.86 172.98 186.44 C 172.12 187.02 171.90 188.19 172.48 189.05 Z M 173.02 189.85 L 173.59 190.68 C 174.17 191.54 175.34 191.76 176.20 191.18 C 177.06 190.60 177.28 189.43 176.70 188.57 L 176.13 187.73 C 175.55 186.88 174.38 186.65 173.52 187.24 C 172.66 187.82 172.44 188.99 173.02 189.85 Z M 173.59 190.68 L 174.20 191.58 C 174.78 192.44 175.95 192.66 176.81 192.08 C 177.67 191.50 177.89 190.33 177.31 189.47 L 176.70 188.57 C 176.11 187.71 174.94 187.49 174.08 188.07 C 173.23 188.65 173.00 189.82 173.59 190.68 Z M 174.20 191.58 L 174.71 192.34 C 175.29 193.19 176.46 193.42 177.32 192.84 C 178.18 192.25 178.40 191.08 177.82 190.23 L 177.31 189.47 C 176.72 188.61 175.55 188.39 174.70 188.97 C 173.84 189.55 173.61 190.72 174.20 191.58 Z M 174.71 192.33 L 175.21 193.07 C 175.79 193.93 176.96 194.16 177.82 193.57 C 178.68 192.99 178.90 191.82 178.32 190.97 L 177.82 190.23 C 177.24 189.37 176.07 189.14 175.21 189.73 C 174.35 190.31 174.13 191.48 174.71 192.33 Z M 175.21 193.07 L 175.74 193.85 C 176.32 194.71 177.49 194.93 178.35 194.35 C 179.20 193.77 179.43 192.60 178.85 191.74 L 178.32 190.97 C 177.74 190.11 176.57 189.88 175.71 190.46 C 174.85 191.05 174.63 192.21 175.21 193.07 Z M 175.74 193.85 L 176.29 194.66 C 176.87 195.52 178.03 195.75 178.89 195.16 C 179.75 194.58 179.98 193.42 179.40 192.56 L 178.85 191.75 C 178.27 190.89 177.10 190.66 176.24 191.24 C 175.38 191.82 175.16 192.99 175.74 193.85 Z M 176.29 194.66 L 176.86 195.50 C 177.44 196.36 178.60 196.58 179.46 196.00 C 180.32 195.42 180.54 194.26 179.96 193.40 L 179.40 192.56 C 178.82 191.70 177.65 191.47 176.79 192.06 C 175.93 192.64 175.71 193.80 176.29 194.66 Z M 176.86 195.50 L 177.44 196.36 C 178.02 197.22 179.19 197.45 180.04 196.87 C 180.90 196.29 181.13 195.12 180.55 194.26 L 179.96 193.40 C 179.38 192.54 178.22 192.32 177.36 192.90 C 176.50 193.48 176.28 194.64 176.86 195.50 Z M 177.44 196.36 L 178.03 197.24 C 178.61 198.10 179.78 198.33 180.64 197.75 C 181.50 197.17 181.72 196.00 181.14 195.14 L 180.55 194.26 C 179.97 193.40 178.80 193.18 177.94 193.76 C 177.09 194.34 176.86 195.50 177.44 196.36 Z M 178.04 197.24 L 178.64 198.14 C 179.22 198.99 180.38 199.22 181.24 198.64 C 182.10 198.06 182.32 196.89 181.74 196.04 L 181.14 195.14 C 180.56 194.29 179.40 194.06 178.54 194.64 C 177.68 195.22 177.46 196.38 178.04 197.24 Z M 178.64 198.13 L 179.25 199.03 C 179.83 199.89 180.99 200.12 181.85 199.54 C 182.71 198.96 182.93 197.79 182.35 196.94 L 181.74 196.04 C 181.16 195.18 180.00 194.95 179.14 195.53 C 178.29 196.11 178.06 197.28 178.64 198.13 Z M 179.25 199.03 L 179.82 199.88 C 180.40 200.74 181.56 200.96 182.42 200.39 C 183.28 199.81 183.50 198.64 182.92 197.79 L 182.35 196.94 C 181.77 196.08 180.61 195.85 179.75 196.43 C 178.89 197.01 178.67 198.18 179.25 199.03 Z M 179.82 199.88 L 180.38 200.71 C 180.96 201.57 182.12 201.79 182.98 201.21 C 183.84 200.63 184.06 199.47 183.48 198.61 L 182.92 197.79 C 182.35 196.93 181.18 196.70 180.32 197.28 C 179.47 197.86 179.24 199.03 179.82 199.88 Z M 180.38 200.71 L 180.94 201.54 C 181.52 202.40 182.68 202.62 183.54 202.04 C 184.40 201.46 184.62 200.30 184.04 199.44 L 183.48 198.61 C 182.90 197.76 181.74 197.53 180.88 198.11 C 180.03 198.69 179.80 199.85 180.38 200.71 Z M 180.94 201.54 L 181.50 202.37 C 182.08 203.22 183.24 203.45 184.10 202.87 C 184.96 202.29 185.18 201.13 184.60 200.27 L 184.04 199.44 C 183.46 198.59 182.30 198.36 181.45 198.94 C 180.59 199.52 180.36 200.68 180.94 201.54 Z M 181.50 202.37 L 182.06 203.20 C 182.64 204.05 183.80 204.28 184.66 203.70 C 185.51 203.12 185.74 201.96 185.16 201.10 L 184.60 200.27 C 184.02 199.42 182.86 199.19 182.01 199.77 C 181.15 200.35 180.92 201.51 181.50 202.37 Z M 182.06 203.19 L 182.62 204.02 C 183.20 204.88 184.36 205.10 185.22 204.53 C 186.07 203.95 186.30 202.79 185.72 201.93 L 185.16 201.10 C 184.58 200.25 183.42 200.02 182.57 200.60 C 181.71 201.18 181.49 202.34 182.06 203.19 Z M 182.62 204.02 L 183.18 204.85 C 183.76 205.71 184.92 205.93 185.78 205.35 C 186.63 204.78 186.86 203.61 186.28 202.76 L 185.72 201.93 C 185.14 201.08 183.98 200.85 183.13 201.43 C 182.27 202.01 182.05 203.17 182.62 204.02 Z M 183.18 204.85 L 183.74 205.68 C 184.32 206.53 185.48 206.76 186.34 206.18 C 187.19 205.60 187.42 204.44 186.84 203.59 L 186.28 202.76 C 185.70 201.91 184.54 201.68 183.69 202.26 C 182.83 202.84 182.61 204.00 183.18 204.85 Z M 183.74 205.68 L 184.30 206.51 C 184.88 207.36 186.04 207.59 186.90 207.01 C 187.75 206.43 187.98 205.27 187.40 204.42 L 186.84 203.59 C 186.26 202.73 185.10 202.51 184.25 203.09 C 183.39 203.66 183.17 204.83 183.74 205.68 Z M 184.31 206.51 L 184.87 207.34 C 185.44 208.19 186.60 208.41 187.46 207.84 C 188.31 207.26 188.53 206.10 187.96 205.25 L 187.40 204.42 C 186.82 203.56 185.66 203.34 184.81 203.92 C 183.95 204.49 183.73 205.65 184.31 206.51 Z M 184.87 207.34 L 185.44 208.19 C 186.02 209.04 187.18 209.26 188.03 208.69 C 188.88 208.11 189.11 206.95 188.53 206.10 L 187.96 205.25 C 187.38 204.39 186.22 204.17 185.37 204.75 C 184.51 205.32 184.29 206.48 184.87 207.34 Z M 185.44 208.18 L 186.02 209.04 C 186.59 209.89 187.75 210.11 188.60 209.54 C 189.46 208.96 189.68 207.80 189.11 206.95 L 188.53 206.10 C 187.95 205.24 186.80 205.02 185.94 205.60 C 185.09 206.17 184.86 207.33 185.44 208.18 Z M 186.02 209.04 L 186.59 209.88 C 187.17 210.74 188.32 210.96 189.18 210.39 C 190.03 209.81 190.25 208.65 189.68 207.80 L 189.11 206.95 C 188.53 206.10 187.37 205.87 186.52 206.45 C 185.67 207.02 185.44 208.18 186.02 209.04 Z M 186.59 209.88 L 187.16 210.73 C 187.73 211.58 188.89 211.81 189.74 211.23 C 190.60 210.66 190.82 209.50 190.25 208.65 L 189.68 207.80 C 189.10 206.95 187.95 206.72 187.09 207.30 C 186.24 207.87 186.01 209.03 186.59 209.88 Z M 187.16 210.73 L 187.72 211.57 C 188.30 212.42 189.45 212.64 190.31 212.07 C 191.16 211.50 191.39 210.34 190.81 209.49 L 190.25 208.65 C 189.67 207.79 188.52 207.57 187.66 208.14 C 186.81 208.72 186.58 209.87 187.16 210.73 Z M 187.72 211.56 L 188.28 212.39 C 188.85 213.25 190.01 213.48 190.86 212.90 C 191.72 212.33 191.94 211.17 191.37 210.32 L 190.81 209.49 C 190.24 208.63 189.08 208.41 188.23 208.98 C 187.38 209.55 187.15 210.71 187.72 211.56 Z M 188.28 212.39 L 188.83 213.21 C 189.40 214.07 190.56 214.30 191.41 213.73 C 192.27 213.15 192.49 212.00 191.92 211.14 L 191.37 210.32 C 190.80 209.47 189.64 209.24 188.79 209.81 C 187.94 210.38 187.71 211.54 188.28 212.39 Z M 188.83 213.21 L 189.37 214.02 C 189.94 214.88 191.10 215.11 191.95 214.54 C 192.81 213.97 193.04 212.81 192.47 211.96 L 191.92 211.15 C 191.35 210.29 190.20 210.06 189.34 210.63 C 188.49 211.20 188.26 212.36 188.83 213.21 Z M 189.37 214.02 L 189.90 214.82 C 190.47 215.68 191.63 215.91 192.48 215.34 C 193.34 214.77 193.57 213.62 193.00 212.76 L 192.47 211.96 C 191.90 211.11 190.74 210.88 189.89 211.44 C 189.04 212.01 188.80 213.17 189.37 214.02 Z M 189.90 214.82 L 190.45 215.65 C 191.02 216.50 192.17 216.74 193.03 216.17 C 193.88 215.60 194.12 214.45 193.55 213.60 L 193.00 212.77 C 192.43 211.91 191.28 211.68 190.43 212.24 C 189.57 212.81 189.34 213.96 189.90 214.82 Z M 190.45 215.64 L 191.05 216.55 C 191.61 217.40 192.76 217.64 193.62 217.08 C 194.47 216.51 194.71 215.36 194.15 214.51 L 193.55 213.60 C 192.99 212.74 191.84 212.51 190.98 213.07 C 190.12 213.64 189.89 214.79 190.45 215.64 Z M 191.05 216.54 L 191.62 217.43 C 192.19 218.29 193.34 218.53 194.19 217.96 C 195.05 217.40 195.29 216.25 194.73 215.40 L 194.15 214.51 C 193.59 213.65 192.44 213.41 191.58 213.97 C 190.72 214.54 190.48 215.69 191.05 216.54 Z M 191.62 217.42 L 192.19 218.29 C 192.74 219.15 193.89 219.39 194.75 218.83 C 195.61 218.27 195.85 217.12 195.29 216.27 L 194.73 215.40 C 194.17 214.54 193.02 214.30 192.17 214.86 C 191.31 215.42 191.06 216.56 191.62 217.42 Z M 192.18 218.28 L 192.73 219.13 C 193.29 219.99 194.43 220.23 195.29 219.68 C 196.15 219.12 196.40 217.98 195.84 217.12 L 195.30 216.27 C 194.74 215.41 193.59 215.17 192.73 215.72 C 191.88 216.28 191.63 217.42 192.18 218.28 Z M 192.73 219.12 L 193.26 219.95 C 193.81 220.81 194.96 221.06 195.82 220.51 C 196.68 219.95 196.93 218.81 196.37 217.95 L 195.84 217.12 C 195.29 216.26 194.15 216.01 193.29 216.56 C 192.43 217.12 192.18 218.26 192.73 219.12 Z M 193.26 219.94 L 193.77 220.75 C 194.32 221.61 195.46 221.86 196.32 221.31 C 197.18 220.76 197.44 219.62 196.89 218.76 L 196.38 217.95 C 195.83 217.09 194.68 216.84 193.82 217.39 C 192.96 217.94 192.71 219.08 193.26 219.94 Z M 193.77 220.74 L 194.26 221.53 C 194.81 222.39 195.95 222.65 196.81 222.10 C 197.68 221.56 197.93 220.41 197.39 219.55 L 196.89 218.77 C 196.35 217.90 195.20 217.65 194.34 218.19 C 193.48 218.74 193.22 219.88 193.77 220.74 Z M 194.26 221.52 L 194.76 222.32 C 195.30 223.18 196.44 223.44 197.31 222.90 C 198.17 222.36 198.43 221.22 197.89 220.36 L 197.39 219.56 C 196.85 218.69 195.71 218.43 194.84 218.97 C 193.98 219.52 193.72 220.66 194.26 221.52 Z M 194.76 222.31 L 195.33 223.23 C 195.87 224.10 197.00 224.36 197.87 223.82 C 198.74 223.29 199.00 222.15 198.46 221.28 L 197.89 220.36 C 197.36 219.50 196.22 219.23 195.35 219.77 C 194.49 220.31 194.22 221.44 194.76 222.31 Z M 195.33 223.22 L 195.88 224.11 C 196.41 224.98 197.55 225.25 198.41 224.72 C 199.28 224.18 199.55 223.05 199.01 222.18 L 198.47 221.29 C 197.93 220.42 196.80 220.15 195.93 220.69 C 195.06 221.22 194.79 222.36 195.33 223.22 Z M 195.88 224.11 L 196.41 224.97 C 196.94 225.84 198.07 226.11 198.94 225.58 C 199.81 225.05 200.08 223.91 199.54 223.05 L 199.01 222.18 C 198.48 221.32 197.35 221.05 196.48 221.58 C 195.62 222.11 195.34 223.24 195.88 224.11 Z M 196.41 224.97 L 196.92 225.81 C 197.45 226.68 198.59 226.95 199.45 226.42 C 200.32 225.88 200.59 224.75 200.06 223.89 L 199.54 223.05 C 199.01 222.18 197.88 221.91 197.01 222.44 C 196.15 222.98 195.88 224.11 196.41 224.97 Z M 196.93 225.81 L 197.43 226.63 C 197.96 227.49 199.09 227.76 199.96 227.22 C 200.82 226.69 201.09 225.56 200.56 224.70 L 200.05 223.88 C 199.52 223.02 198.39 222.75 197.53 223.28 C 196.66 223.82 196.39 224.95 196.93 225.81 Z M 197.43 226.63 L 197.93 227.42 C 198.46 228.28 199.59 228.55 200.46 228.01 C 201.32 227.47 201.58 226.34 201.04 225.48 L 200.55 224.69 C 200.01 223.83 198.88 223.57 198.02 224.10 C 197.16 224.64 196.90 225.77 197.43 226.63 Z M 197.94 227.43 L 198.44 228.23 C 198.98 229.09 200.11 229.34 200.97 228.80 C 201.82 228.26 202.08 227.13 201.54 226.27 L 201.03 225.47 C 200.49 224.62 199.36 224.36 198.51 224.90 C 197.65 225.44 197.39 226.58 197.94 227.43 Z M 198.45 228.24 L 198.97 229.05 C 199.52 229.90 200.65 230.14 201.50 229.59 C 202.35 229.04 202.59 227.91 202.05 227.06 L 201.53 226.26 C 200.98 225.41 199.85 225.16 199.00 225.71 C 198.15 226.26 197.90 227.39 198.45 228.24 Z M 198.98 229.06 L 199.51 229.86 C 200.07 230.70 201.20 230.94 202.04 230.38 C 202.89 229.82 203.12 228.69 202.56 227.84 L 202.03 227.04 C 201.48 226.20 200.34 225.97 199.50 226.53 C 198.65 227.08 198.42 228.22 198.98 229.06 Z M 199.52 229.88 L 200.07 230.69 C 200.64 231.52 201.78 231.74 202.61 231.17 C 203.45 230.60 203.66 229.47 203.09 228.63 L 202.55 227.82 C 201.98 226.99 200.84 226.77 200.01 227.34 C 199.17 227.91 198.96 229.04 199.52 229.88 Z M 200.09 230.71 L 200.67 231.53 C 201.25 232.36 202.39 232.56 203.21 231.98 C 204.04 231.40 204.24 230.26 203.66 229.44 L 203.08 228.61 C 202.50 227.78 201.36 227.58 200.53 228.16 C 199.71 228.74 199.51 229.88 200.09 230.71 Z M 200.68 231.55 L 201.31 232.41 C 201.90 233.23 203.04 233.42 203.85 232.83 C 204.67 232.24 204.85 231.09 204.26 230.28 L 203.64 229.42 C 203.05 228.60 201.91 228.42 201.09 229.01 C 200.28 229.60 200.09 230.74 200.68 231.55 Z M 201.32 232.43 L 201.93 233.25 C 202.53 234.06 203.67 234.23 204.48 233.63 C 205.29 233.03 205.45 231.88 204.85 231.08 L 204.25 230.26 C 203.65 229.45 202.51 229.28 201.70 229.88 C 200.89 230.48 200.72 231.62 201.32 232.43 Z M 201.94 233.26 L 202.49 233.99 C 203.10 234.80 204.24 234.95 205.05 234.34 C 205.85 233.74 206.00 232.59 205.40 231.79 L 204.84 231.06 C 204.23 230.26 203.09 230.10 202.29 230.71 C 201.49 231.32 201.33 232.46 201.94 233.26 Z M 202.50 234.00 L 203.09 234.76 C 203.70 235.56 204.84 235.71 205.64 235.09 C 206.44 234.48 206.58 233.34 205.97 232.54 L 205.39 231.78 C 204.77 230.99 203.63 230.84 202.83 231.45 C 202.04 232.07 201.89 233.21 202.50 234.00 Z M 203.09 234.77 L 203.70 235.55 C 204.32 236.34 205.46 236.48 206.25 235.86 C 207.05 235.25 207.19 234.10 206.57 233.31 L 205.96 232.53 C 205.34 231.74 204.20 231.60 203.41 232.22 C 202.62 232.83 202.48 233.98 203.09 234.77 Z M 203.71 235.55 L 204.33 236.35 C 204.96 237.14 206.10 237.27 206.89 236.65 C 207.67 236.03 207.81 234.89 207.19 234.10 L 206.56 233.30 C 205.94 232.52 204.80 232.38 204.01 233.00 C 203.22 233.62 203.09 234.76 203.71 235.55 Z M 204.34 236.35 L 204.98 237.16 C 205.61 237.95 206.75 238.08 207.53 237.46 C 208.32 236.83 208.45 235.69 207.83 234.91 L 207.19 234.10 C 206.56 233.31 205.42 233.18 204.63 233.80 C 203.85 234.43 203.72 235.57 204.34 236.35 Z M 204.99 237.17 L 205.64 237.99 C 206.26 238.77 207.41 238.90 208.19 238.27 C 208.97 237.65 209.10 236.51 208.48 235.72 L 207.82 234.90 C 207.20 234.12 206.06 233.99 205.27 234.62 C 204.49 235.24 204.36 236.38 204.99 237.17 Z M 205.64 237.99 L 206.30 238.81 C 206.93 239.59 208.07 239.72 208.85 239.10 C 209.63 238.47 209.76 237.33 209.13 236.55 L 208.47 235.72 C 207.85 234.94 206.71 234.81 205.93 235.44 C 205.14 236.06 205.02 237.20 205.64 237.99 Z M 206.30 238.81 L 206.67 239.28 C 207.30 240.06 208.44 240.18 209.22 239.56 C 210.00 238.93 210.13 237.79 209.50 237.01 L 209.13 236.55 C 208.51 235.77 207.37 235.64 206.59 236.27 C 205.81 236.89 205.68 238.03 206.30 238.81 Z"
      fill="black"
      fill-rule="nonzero" /><path d="M 230.71 70.36 L 230.45 71.32 C 230.21 72.22 230.74 73.15 231.64 73.39 C 232.55 73.63 233.47 73.10 233.72 72.20 L 233.98 71.24 C 234.22 70.33 233.68 69.40 232.78 69.16 C 231.88 68.92 230.95 69.45 230.71 70.36 Z M 230.44 71.31 L 230.18 72.27 C 229.94 73.18 230.48 74.11 231.38 74.36 C 232.29 74.60 233.22 74.06 233.47 73.16 L 233.73 72.20 C 233.97 71.29 233.43 70.36 232.53 70.11 C 231.62 69.87 230.69 70.41 230.44 71.31 Z M 230.17 72.27 L 229.92 73.24 C 229.67 74.15 230.21 75.09 231.12 75.33 C 232.04 75.57 232.97 75.03 233.22 74.12 L 233.48 73.16 C 233.72 72.25 233.18 71.31 232.27 71.07 C 231.36 70.82 230.42 71.36 230.17 72.27 Z M 229.91 73.24 L 229.65 74.20 C 229.40 75.12 229.95 76.06 230.86 76.30 C 231.78 76.55 232.72 76.01 232.97 75.09 L 233.23 74.12 C 233.47 73.21 232.93 72.27 232.01 72.02 C 231.09 71.78 230.15 72.32 229.91 73.24 Z M 229.64 74.20 L 229.38 75.17 C 229.14 76.09 229.69 77.04 230.61 77.28 C 231.53 77.53 232.47 76.98 232.72 76.06 L 232.98 75.09 C 233.22 74.17 232.67 73.22 231.75 72.98 C 230.83 72.73 229.89 73.28 229.64 74.20 Z M 229.37 75.17 L 229.12 76.15 C 228.87 77.07 229.42 78.02 230.35 78.27 C 231.27 78.51 232.22 77.96 232.47 77.04 L 232.73 76.06 C 232.97 75.13 232.42 74.19 231.49 73.94 C 230.57 73.70 229.62 74.25 229.37 75.17 Z M 229.11 76.15 L 228.85 77.13 C 228.61 78.06 229.16 79.01 230.09 79.25 C 231.02 79.50 231.97 78.94 232.21 78.02 L 232.47 77.03 C 232.72 76.11 232.16 75.16 231.23 74.91 C 230.31 74.67 229.36 75.22 229.11 76.15 Z M 228.85 77.13 L 228.59 78.12 C 228.35 79.04 228.91 79.99 229.83 80.24 C 230.76 80.48 231.71 79.93 231.96 79.00 L 232.21 78.01 C 232.46 77.09 231.90 76.14 230.97 75.89 C 230.04 75.65 229.10 76.21 228.85 77.13 Z M 228.59 78.12 L 228.34 79.10 C 228.10 80.03 228.65 80.98 229.58 81.22 C 230.51 81.46 231.46 80.90 231.70 79.97 L 231.96 79.00 C 232.20 78.07 231.64 77.12 230.71 76.88 C 229.79 76.63 228.84 77.19 228.59 78.12 Z M 228.34 79.10 L 228.08 80.07 C 227.84 81.00 228.40 81.95 229.33 82.19 C 230.26 82.43 231.21 81.87 231.45 80.94 L 231.70 79.97 C 231.94 79.04 231.39 78.09 230.46 77.85 C 229.53 77.61 228.58 78.17 228.34 79.10 Z M 228.08 80.07 L 227.84 81.02 C 227.59 81.95 228.15 82.90 229.08 83.14 C 230.01 83.38 230.96 82.83 231.20 81.90 L 231.45 80.94 C 231.69 80.01 231.13 79.06 230.21 78.82 C 229.28 78.58 228.33 79.14 228.08 80.07 Z M 227.84 81.02 L 227.59 81.96 C 227.35 82.89 227.91 83.83 228.84 84.08 C 229.77 84.32 230.72 83.76 230.96 82.83 L 231.20 81.90 C 231.45 80.97 230.89 80.02 229.96 79.78 C 229.03 79.53 228.08 80.09 227.84 81.02 Z M 227.59 81.95 L 227.36 82.85 C 227.12 83.78 227.68 84.73 228.61 84.98 C 229.54 85.22 230.49 84.66 230.73 83.73 L 230.96 82.83 C 231.20 81.90 230.64 80.95 229.71 80.71 C 228.78 80.47 227.83 81.02 227.59 81.95 Z M 227.36 82.85 L 227.13 83.75 C 226.88 84.68 227.44 85.63 228.37 85.87 C 229.30 86.12 230.25 85.56 230.49 84.63 L 230.73 83.73 C 230.97 82.80 230.41 81.85 229.48 81.61 C 228.55 81.37 227.60 81.92 227.36 82.85 Z M 227.13 83.76 L 226.89 84.67 C 226.65 85.60 227.21 86.55 228.14 86.79 C 229.07 87.03 230.02 86.47 230.26 85.54 L 230.49 84.62 C 230.74 83.69 230.18 82.75 229.24 82.51 C 228.31 82.26 227.37 82.82 227.13 83.76 Z M 226.89 84.68 L 226.64 85.64 C 226.40 86.57 226.96 87.52 227.89 87.76 C 228.83 87.99 229.77 87.43 230.01 86.50 L 230.26 85.54 C 230.50 84.61 229.94 83.66 229.00 83.42 C 228.07 83.18 227.13 83.75 226.89 84.68 Z M 226.64 85.64 L 226.38 86.67 C 226.14 87.60 226.71 88.55 227.64 88.78 C 228.57 89.02 229.52 88.46 229.75 87.52 L 230.01 86.50 C 230.25 85.57 229.69 84.62 228.75 84.38 C 227.82 84.15 226.88 84.71 226.64 85.64 Z M 226.38 86.67 L 226.10 87.78 C 225.86 88.72 226.43 89.66 227.36 89.90 C 228.29 90.13 229.24 89.56 229.47 88.63 L 229.75 87.52 C 229.99 86.59 229.42 85.64 228.49 85.41 C 227.56 85.17 226.61 85.74 226.38 86.67 Z M 226.10 87.79 L 225.88 88.68 C 225.64 89.61 226.21 90.55 227.14 90.79 C 228.08 91.02 229.02 90.45 229.25 89.52 L 229.48 88.63 C 229.71 87.70 229.14 86.75 228.21 86.52 C 227.28 86.29 226.33 86.85 226.10 87.79 Z M 225.88 88.68 L 225.64 89.61 C 225.41 90.55 225.98 91.49 226.91 91.72 C 227.84 91.95 228.79 91.39 229.02 90.45 L 229.25 89.52 C 229.49 88.59 228.92 87.64 227.98 87.41 C 227.05 87.18 226.11 87.75 225.88 88.68 Z M 225.64 89.61 L 225.40 90.58 C 225.17 91.52 225.74 92.46 226.67 92.69 C 227.60 92.93 228.55 92.36 228.78 91.43 L 229.02 90.45 C 229.25 89.52 228.69 88.58 227.75 88.35 C 226.82 88.11 225.88 88.68 225.64 89.61 Z M 225.40 90.58 L 225.15 91.58 C 224.92 92.51 225.49 93.45 226.42 93.69 C 227.35 93.92 228.30 93.35 228.53 92.42 L 228.78 91.43 C 229.01 90.50 228.45 89.55 227.51 89.32 C 226.58 89.08 225.64 89.65 225.40 90.58 Z M 225.15 91.57 L 224.90 92.58 C 224.66 93.51 225.23 94.46 226.16 94.69 C 227.09 94.93 228.04 94.36 228.27 93.43 L 228.53 92.43 C 228.76 91.49 228.20 90.55 227.27 90.31 C 226.34 90.08 225.39 90.64 225.15 91.57 Z M 224.90 92.57 L 224.64 93.58 C 224.41 94.51 224.97 95.46 225.90 95.69 C 226.83 95.93 227.78 95.37 228.02 94.44 L 228.27 93.44 C 228.51 92.51 227.95 91.56 227.02 91.32 C 226.09 91.08 225.14 91.64 224.90 92.57 Z M 224.65 93.57 L 224.39 94.56 C 224.15 95.49 224.70 96.44 225.63 96.68 C 226.56 96.93 227.51 96.37 227.76 95.44 L 228.01 94.45 C 228.26 93.52 227.70 92.57 226.77 92.32 C 225.84 92.08 224.89 92.64 224.65 93.57 Z M 224.39 94.55 L 224.13 95.52 C 223.89 96.45 224.44 97.40 225.37 97.65 C 226.29 97.89 227.25 97.34 227.50 96.41 L 227.75 95.45 C 228.00 94.52 227.45 93.57 226.52 93.32 C 225.59 93.07 224.64 93.62 224.39 94.55 Z M 224.14 95.51 L 223.85 96.55 C 223.60 97.47 224.14 98.43 225.07 98.68 C 226.00 98.94 226.95 98.39 227.21 97.47 L 227.49 96.43 C 227.75 95.50 227.20 94.54 226.27 94.29 C 225.35 94.03 224.39 94.58 224.14 95.51 Z M 223.85 96.53 L 223.57 97.56 C 223.31 98.48 223.84 99.44 224.77 99.70 C 225.69 99.96 226.65 99.43 226.91 98.50 L 227.20 97.48 C 227.46 96.55 226.93 95.59 226.00 95.33 C 225.08 95.07 224.12 95.61 223.85 96.53 Z M 223.57 97.55 L 223.29 98.53 C 223.02 99.45 223.55 100.42 224.47 100.68 C 225.40 100.95 226.36 100.42 226.63 99.50 L 226.91 98.51 C 227.18 97.59 226.65 96.63 225.72 96.36 C 224.80 96.09 223.84 96.62 223.57 97.55 Z M 223.29 98.52 L 223.01 99.47 C 222.74 100.40 223.26 101.36 224.19 101.63 C 225.11 101.90 226.07 101.38 226.34 100.46 L 226.62 99.50 C 226.89 98.58 226.37 97.62 225.45 97.34 C 224.53 97.07 223.56 97.60 223.29 98.52 Z M 223.01 99.47 L 222.73 100.40 C 222.46 101.32 222.99 102.29 223.91 102.56 C 224.83 102.83 225.79 102.31 226.07 101.39 L 226.34 100.46 C 226.62 99.54 226.09 98.57 225.17 98.30 C 224.25 98.03 223.28 98.55 223.01 99.47 Z M 222.74 100.40 L 222.46 101.31 C 222.19 102.23 222.71 103.19 223.63 103.47 C 224.55 103.74 225.52 103.22 225.79 102.30 L 226.07 101.39 C 226.34 100.47 225.82 99.50 224.90 99.23 C 223.98 98.95 223.01 99.48 222.74 100.40 Z M 222.46 101.31 L 222.20 102.21 C 221.92 103.13 222.45 104.10 223.37 104.37 C 224.29 104.64 225.26 104.12 225.53 103.20 L 225.80 102.30 C 226.07 101.38 225.54 100.41 224.62 100.14 C 223.70 99.87 222.74 100.39 222.46 101.31 Z M 222.20 102.22 L 221.92 103.17 C 221.65 104.09 222.18 105.05 223.10 105.32 C 224.02 105.59 224.98 105.06 225.25 104.14 L 225.53 103.19 C 225.80 102.27 225.27 101.31 224.35 101.04 C 223.43 100.77 222.46 101.30 222.20 102.22 Z M 221.92 103.17 L 221.64 104.14 C 221.37 105.06 221.90 106.03 222.82 106.29 C 223.75 106.56 224.71 106.03 224.97 105.10 L 225.25 104.13 C 225.52 103.21 224.99 102.25 224.07 101.98 C 223.15 101.72 222.18 102.25 221.92 103.17 Z M 221.64 104.14 L 221.36 105.11 C 221.10 106.03 221.63 107.00 222.55 107.26 C 223.47 107.52 224.43 106.99 224.70 106.07 L 224.97 105.10 C 225.24 104.18 224.71 103.22 223.78 102.95 C 222.86 102.69 221.90 103.22 221.64 104.14 Z M 221.36 105.11 L 221.08 106.08 C 220.82 107.00 221.35 107.96 222.27 108.22 C 223.19 108.49 224.16 107.95 224.42 107.03 L 224.70 106.07 C 224.96 105.15 224.43 104.19 223.51 103.92 C 222.59 103.66 221.62 104.19 221.36 105.11 Z M 221.09 106.07 L 220.81 107.03 C 220.54 107.95 221.07 108.91 221.99 109.18 C 222.91 109.44 223.87 108.91 224.14 107.99 L 224.42 107.04 C 224.68 106.12 224.15 105.15 223.23 104.89 C 222.31 104.62 221.35 105.15 221.09 106.07 Z M 220.81 107.02 L 220.53 107.97 C 220.26 108.89 220.79 109.86 221.71 110.13 C 222.63 110.40 223.59 109.87 223.86 108.95 L 224.14 108.00 C 224.41 107.08 223.88 106.12 222.96 105.85 C 222.04 105.58 221.08 106.10 220.81 107.02 Z M 220.54 107.96 L 220.25 108.91 C 219.98 109.83 220.50 110.79 221.41 111.07 C 222.33 111.34 223.30 110.82 223.57 109.91 L 223.86 108.96 C 224.13 108.04 223.61 107.08 222.69 106.80 C 221.78 106.53 220.81 107.05 220.54 107.96 Z M 220.26 108.90 L 219.96 109.86 C 219.68 110.77 220.19 111.74 221.10 112.03 C 222.02 112.31 222.99 111.80 223.27 110.88 L 223.57 109.92 C 223.85 109.00 223.34 108.03 222.42 107.75 C 221.51 107.47 220.54 107.98 220.26 108.90 Z M 219.96 109.85 L 219.66 110.80 C 219.37 111.72 219.88 112.69 220.79 112.98 C 221.70 113.27 222.68 112.76 222.96 111.85 L 223.27 110.89 C 223.55 109.98 223.05 109.01 222.14 108.72 C 221.22 108.43 220.25 108.94 219.96 109.85 Z M 219.66 110.80 L 219.36 111.75 C 219.07 112.66 219.57 113.63 220.48 113.92 C 221.39 114.22 222.36 113.72 222.66 112.81 L 222.96 111.86 C 223.25 110.95 222.75 109.97 221.84 109.68 C 220.93 109.39 219.96 109.89 219.66 110.80 Z M 219.36 111.74 L 219.05 112.69 C 218.76 113.60 219.25 114.57 220.16 114.87 C 221.07 115.16 222.05 114.67 222.34 113.76 L 222.65 112.81 C 222.95 111.90 222.45 110.93 221.54 110.63 C 220.63 110.34 219.66 110.83 219.36 111.74 Z M 219.06 112.68 L 218.75 113.63 C 218.45 114.54 218.94 115.52 219.85 115.81 C 220.76 116.11 221.73 115.62 222.03 114.71 L 222.34 113.76 C 222.64 112.85 222.15 111.88 221.24 111.58 C 220.33 111.28 219.35 111.78 219.06 112.68 Z M 218.75 113.63 L 218.43 114.58 C 218.14 115.49 218.63 116.46 219.54 116.76 C 220.45 117.06 221.42 116.56 221.72 115.66 L 222.03 114.71 C 222.33 113.80 221.83 112.82 220.93 112.53 C 220.02 112.23 219.04 112.72 218.75 113.63 Z M 218.44 114.58 L 218.12 115.54 C 217.83 116.45 218.32 117.42 219.23 117.72 C 220.13 118.01 221.11 117.52 221.41 116.61 L 221.72 115.66 C 222.02 114.75 221.52 113.77 220.61 113.48 C 219.71 113.18 218.73 113.67 218.44 114.58 Z M 218.12 115.54 L 217.81 116.50 C 217.51 117.41 218.01 118.38 218.92 118.68 C 219.82 118.97 220.80 118.48 221.09 117.57 L 221.41 116.61 C 221.70 115.70 221.21 114.73 220.30 114.43 C 219.39 114.14 218.42 114.63 218.12 115.54 Z M 217.81 116.50 L 217.50 117.47 C 217.20 118.37 217.70 119.35 218.61 119.64 C 219.52 119.93 220.49 119.44 220.78 118.53 L 221.09 117.57 C 221.39 116.66 220.89 115.69 219.98 115.39 C 219.08 115.10 218.10 115.60 217.81 116.50 Z M 217.50 117.47 L 217.19 118.42 C 216.90 119.33 217.40 120.30 218.30 120.60 C 219.21 120.89 220.18 120.39 220.47 119.48 L 220.78 118.53 C 221.08 117.62 220.58 116.65 219.67 116.36 C 218.76 116.06 217.79 116.56 217.50 117.47 Z M 217.19 118.43 L 216.89 119.38 C 216.59 120.28 217.09 121.25 218.00 121.55 C 218.90 121.84 219.88 121.34 220.17 120.43 L 220.47 119.48 C 220.77 118.58 220.27 117.60 219.36 117.31 C 218.45 117.02 217.48 117.52 217.19 118.43 Z M 216.89 119.38 L 216.58 120.32 C 216.29 121.22 216.79 122.19 217.70 122.48 C 218.60 122.77 219.58 122.28 219.87 121.37 L 220.17 120.43 C 220.46 119.52 219.96 118.55 219.05 118.26 C 218.15 117.97 217.18 118.47 216.89 119.38 Z M 216.58 120.32 L 216.28 121.27 C 215.99 122.18 216.49 123.15 217.39 123.44 C 218.30 123.73 219.27 123.23 219.56 122.32 L 219.87 121.37 C 220.16 120.46 219.66 119.49 218.75 119.20 C 217.85 118.91 216.88 119.41 216.58 120.32 Z M 216.28 121.27 L 215.97 122.25 C 215.68 123.15 216.17 124.12 217.08 124.41 C 217.99 124.70 218.95 124.21 219.25 123.30 L 219.56 122.32 C 219.85 121.42 219.35 120.45 218.45 120.16 C 217.54 119.86 216.57 120.36 216.28 121.27 Z M 215.97 122.25 L 215.66 123.21 C 215.37 124.12 215.86 125.09 216.77 125.38 C 217.68 125.67 218.64 125.17 218.94 124.26 L 219.24 123.30 C 219.54 122.40 219.04 121.43 218.13 121.14 C 217.23 120.84 216.26 121.34 215.97 122.25 Z M 215.66 123.21 L 215.35 124.16 C 215.06 125.06 215.56 126.03 216.46 126.32 C 217.37 126.62 218.34 126.12 218.63 125.21 L 218.93 124.26 C 219.23 123.36 218.73 122.39 217.82 122.10 C 216.92 121.81 215.95 122.31 215.66 123.21 Z M 215.35 124.16 L 215.05 125.10 C 214.76 126.00 215.26 126.97 216.16 127.26 C 217.06 127.55 218.03 127.06 218.33 126.15 L 218.63 125.22 C 218.92 124.31 218.42 123.34 217.52 123.05 C 216.62 122.76 215.65 123.25 215.35 124.16 Z M 215.05 125.09 L 214.75 126.02 C 214.46 126.92 214.95 127.89 215.86 128.19 C 216.76 128.48 217.73 127.99 218.02 127.08 L 218.32 126.16 C 218.62 125.25 218.12 124.28 217.22 123.99 C 216.32 123.70 215.35 124.19 215.05 125.09 Z M 214.75 126.02 L 214.44 126.96 C 214.15 127.87 214.64 128.84 215.54 129.13 C 216.45 129.43 217.42 128.93 217.71 128.03 L 218.02 127.09 C 218.32 126.18 217.82 125.21 216.92 124.92 C 216.02 124.62 215.05 125.12 214.75 126.02 Z M 214.45 126.96 L 214.13 127.92 C 213.83 128.82 214.32 129.79 215.22 130.09 C 216.13 130.39 217.10 129.90 217.39 129.00 L 217.71 128.03 C 218.01 127.13 217.52 126.16 216.62 125.87 C 215.71 125.57 214.74 126.06 214.45 126.96 Z M 214.13 127.92 L 213.82 128.87 C 213.52 129.77 214.00 130.74 214.91 131.04 C 215.81 131.34 216.78 130.85 217.08 129.95 L 217.39 129.00 C 217.69 128.10 217.20 127.13 216.30 126.83 C 215.40 126.53 214.43 127.02 214.13 127.92 Z M 213.82 128.87 L 213.50 129.82 C 213.20 130.72 213.69 131.69 214.59 131.99 C 215.48 132.29 216.46 131.80 216.76 130.90 L 217.07 129.96 C 217.37 129.06 216.89 128.08 215.99 127.78 C 215.09 127.48 214.12 127.97 213.82 128.87 Z M 213.50 129.81 L 213.19 130.75 C 212.88 131.65 213.37 132.62 214.27 132.93 C 215.16 133.23 216.14 132.75 216.44 131.85 L 216.76 130.91 C 217.06 130.01 216.57 129.04 215.68 128.73 C 214.78 128.43 213.81 128.91 213.50 129.81 Z M 213.19 130.75 L 212.87 131.68 C 212.57 132.58 213.05 133.55 213.95 133.86 C 214.84 134.16 215.82 133.68 216.12 132.78 L 216.44 131.85 C 216.74 130.95 216.26 129.98 215.36 129.68 C 214.47 129.37 213.49 129.85 213.19 130.75 Z M 212.87 131.68 L 212.56 132.61 C 212.25 133.51 212.73 134.48 213.62 134.79 C 214.52 135.09 215.49 134.61 215.80 133.72 L 216.12 132.79 C 216.43 131.89 215.95 130.92 215.05 130.61 C 214.16 130.30 213.18 130.78 212.87 131.68 Z M 212.56 132.60 L 212.24 133.53 C 211.93 134.43 212.40 135.40 213.29 135.71 C 214.19 136.02 215.16 135.55 215.47 134.66 L 215.80 133.73 C 216.11 132.83 215.63 131.86 214.74 131.55 C 213.85 131.24 212.87 131.71 212.56 132.60 Z M 212.24 133.52 L 211.91 134.46 C 211.60 135.35 212.06 136.33 212.95 136.64 C 213.85 136.96 214.82 136.49 215.14 135.60 L 215.47 134.66 C 215.79 133.77 215.32 132.79 214.43 132.48 C 213.54 132.16 212.56 132.63 212.24 133.52 Z M 211.92 134.44 L 211.58 135.38 C 211.25 136.27 211.71 137.25 212.60 137.58 C 213.49 137.90 214.47 137.44 214.79 136.55 L 215.13 135.61 C 215.46 134.72 215.00 133.74 214.11 133.42 C 213.22 133.10 212.24 133.55 211.92 134.44 Z M 211.58 135.37 L 211.23 136.32 C 210.90 137.21 211.34 138.19 212.23 138.52 C 213.11 138.85 214.10 138.40 214.43 137.52 L 214.79 136.57 C 215.12 135.68 214.67 134.70 213.78 134.37 C 212.90 134.03 211.91 134.48 211.58 135.37 Z M 211.23 136.31 L 210.87 137.24 C 210.53 138.12 210.97 139.11 211.85 139.45 C 212.73 139.79 213.72 139.36 214.06 138.47 L 214.42 137.54 C 214.76 136.66 214.32 135.67 213.44 135.33 C 212.56 134.99 211.57 135.42 211.23 136.31 Z M 210.88 137.22 L 210.52 138.13 C 210.17 139.00 210.59 140.00 211.47 140.35 C 212.35 140.70 213.34 140.27 213.69 139.40 L 214.05 138.49 C 214.40 137.62 213.98 136.62 213.10 136.27 C 212.22 135.92 211.23 136.35 210.88 137.22 Z M 210.53 138.11 L 210.15 139.02 C 209.78 139.89 210.20 140.89 211.07 141.25 C 211.94 141.61 212.94 141.20 213.30 140.33 L 213.68 139.42 C 214.04 138.55 213.63 137.55 212.76 137.19 C 211.89 136.82 210.89 137.24 210.53 138.11 Z M 210.16 138.99 L 209.76 139.92 C 209.38 140.78 209.78 141.78 210.64 142.16 C 211.50 142.54 212.51 142.14 212.89 141.28 L 213.29 140.36 C 213.66 139.49 213.27 138.49 212.40 138.11 C 211.54 137.74 210.54 138.13 210.16 138.99 Z M 209.77 139.89 L 209.35 140.81 C 208.96 141.66 209.33 142.68 210.19 143.07 C 211.04 143.46 212.06 143.08 212.45 142.23 L 212.87 141.31 C 213.26 140.45 212.89 139.44 212.03 139.05 C 211.18 138.65 210.16 139.03 209.77 139.89 Z M 209.37 140.78 L 208.92 141.69 C 208.51 142.54 208.86 143.56 209.71 143.97 C 210.56 144.38 211.58 144.03 211.99 143.18 L 212.43 142.26 C 212.84 141.41 212.49 140.40 211.64 139.99 C 210.80 139.57 209.78 139.93 209.37 140.78 Z M 208.94 141.66 L 208.48 142.55 C 208.05 143.39 208.38 144.41 209.22 144.84 C 210.05 145.28 211.08 144.95 211.51 144.11 L 211.97 143.22 C 212.40 142.38 212.07 141.35 211.23 140.92 C 210.40 140.49 209.37 140.82 208.94 141.66 Z M 208.50 142.51 L 208.03 143.36 C 207.58 144.19 207.88 145.22 208.70 145.68 C 209.53 146.13 210.56 145.83 211.02 145.01 L 211.49 144.15 C 211.94 143.33 211.64 142.29 210.82 141.84 C 209.99 141.39 208.96 141.69 208.50 142.51 Z M 208.06 143.31 L 207.56 144.15 C 207.08 144.96 207.34 146.00 208.15 146.49 C 208.96 146.97 210.00 146.70 210.48 145.90 L 210.99 145.06 C 211.47 144.25 211.20 143.20 210.40 142.72 C 209.59 142.24 208.54 142.50 208.06 143.31 Z M 207.60 144.09 L 207.06 144.92 C 206.54 145.70 206.76 146.76 207.55 147.27 C 208.33 147.79 209.39 147.57 209.90 146.78 L 210.45 145.96 C 210.96 145.17 210.74 144.12 209.96 143.60 C 209.17 143.09 208.11 143.31 207.60 144.09 Z M 207.11 144.85 L 206.52 145.66 C 205.96 146.42 206.13 147.48 206.89 148.04 C 207.65 148.59 208.72 148.42 209.27 147.66 L 209.86 146.85 C 210.41 146.09 210.24 145.03 209.48 144.47 C 208.72 143.92 207.66 144.09 207.11 144.85 Z M 206.57 145.59 L 205.93 146.38 C 205.34 147.11 205.45 148.18 206.18 148.77 C 206.91 149.36 207.98 149.25 208.57 148.52 L 209.21 147.73 C 209.81 147.00 209.70 145.93 208.97 145.34 C 208.24 144.75 207.17 144.86 206.57 145.59 Z M 206.00 146.30 L 205.29 147.07 C 204.66 147.77 204.70 148.84 205.40 149.48 C 206.09 150.11 207.17 150.06 207.80 149.37 L 208.51 148.60 C 209.14 147.90 209.09 146.83 208.40 146.19 C 207.71 145.56 206.63 145.61 206.00 146.30 Z M 205.36 147.01 L 204.64 147.71 C 203.97 148.36 203.96 149.44 204.61 150.11 C 205.27 150.78 206.34 150.79 207.02 150.14 L 207.73 149.44 C 208.40 148.78 208.42 147.70 207.76 147.03 C 207.10 146.36 206.03 146.35 205.36 147.01 Z M 204.69 147.67 L 203.93 148.35 C 203.24 148.98 203.19 150.05 203.82 150.75 C 204.44 151.44 205.52 151.49 206.21 150.86 L 206.97 150.18 C 207.66 149.55 207.71 148.48 207.08 147.78 C 206.45 147.09 205.38 147.04 204.69 147.67 Z M 203.96 148.33 L 203.18 149.01 C 202.48 149.63 202.41 150.69 203.02 151.40 C 203.64 152.10 204.71 152.17 205.41 151.56 L 206.18 150.88 C 206.89 150.27 206.96 149.20 206.35 148.50 C 205.73 147.79 204.66 147.72 203.96 148.33 Z M 203.19 149.01 L 202.42 149.68 C 201.71 150.30 201.64 151.36 202.25 152.07 C 202.87 152.77 203.93 152.84 204.64 152.23 L 205.41 151.56 C 206.11 150.95 206.18 149.88 205.57 149.18 C 204.96 148.47 203.89 148.40 203.19 149.01 Z M 202.40 149.71 L 201.65 150.38 C 200.96 151.00 200.91 152.07 201.53 152.76 C 202.15 153.45 203.22 153.50 203.91 152.88 L 204.65 152.21 C 205.35 151.58 205.40 150.52 204.78 149.83 C 204.15 149.14 203.09 149.08 202.40 149.71 Z M 201.61 150.42 L 200.91 151.10 C 200.25 151.74 200.23 152.81 200.88 153.47 C 201.52 154.14 202.59 154.16 203.25 153.51 L 203.95 152.83 C 204.62 152.19 204.63 151.12 203.99 150.46 C 203.34 149.79 202.28 149.78 201.61 150.42 Z M 200.85 151.17 L 200.20 151.87 C 199.58 152.56 199.63 153.62 200.31 154.24 C 200.99 154.87 202.06 154.82 202.68 154.14 L 203.32 153.44 C 203.95 152.75 203.90 151.69 203.22 151.07 C 202.53 150.44 201.47 150.49 200.85 151.17 Z M 200.10 151.98 L 199.45 152.83 C 198.88 153.57 199.02 154.63 199.76 155.20 C 200.50 155.77 201.56 155.63 202.13 154.89 L 202.78 154.03 C 203.35 153.29 203.21 152.23 202.47 151.67 C 201.73 151.10 200.67 151.24 200.10 151.98 Z M 199.36 152.93 L 198.79 153.79 C 198.28 154.58 198.50 155.64 199.29 156.15 C 200.08 156.67 201.14 156.45 201.65 155.66 L 202.22 154.80 C 202.73 154.01 202.51 152.95 201.72 152.43 C 200.93 151.91 199.87 152.14 199.36 152.93 Z M 198.74 153.84 L 198.23 154.69 C 197.74 155.52 198.01 156.58 198.84 157.06 C 199.66 157.55 200.72 157.28 201.21 156.46 L 201.71 155.60 C 202.20 154.78 201.93 153.72 201.11 153.23 C 200.28 152.75 199.22 153.02 198.74 153.84 Z M 198.20 154.69 L 197.72 155.53 C 197.23 156.36 197.52 157.43 198.35 157.92 C 199.19 158.41 200.26 158.13 200.75 157.29 L 201.23 156.46 C 201.72 155.62 201.44 154.55 200.60 154.06 C 199.76 153.58 198.69 153.86 198.20 154.69 Z M 197.73 155.47 L 197.23 156.26 C 196.71 157.09 196.96 158.19 197.79 158.71 C 198.62 159.23 199.72 158.98 200.24 158.15 L 200.74 157.35 C 201.26 156.52 201.01 155.43 200.18 154.91 C 199.35 154.39 198.25 154.64 197.73 155.47 Z M 197.29 156.14 L 196.70 156.94 C 196.11 157.74 196.28 158.86 197.07 159.45 C 197.87 160.04 198.99 159.87 199.58 159.07 L 200.17 158.27 C 200.76 157.47 200.60 156.35 199.80 155.76 C 199.00 155.17 197.88 155.34 197.29 156.14 Z M 196.77 156.83 L 196.08 157.64 C 195.43 158.39 195.51 159.54 196.27 160.19 C 197.03 160.84 198.17 160.75 198.82 159.99 L 199.51 159.18 C 200.16 158.43 200.07 157.29 199.32 156.63 C 198.56 155.98 197.42 156.07 196.77 156.83 Z M 196.07 157.62 L 195.40 158.39 C 194.74 159.15 194.82 160.30 195.57 160.96 C 196.33 161.62 197.48 161.55 198.15 160.79 L 198.82 160.01 C 199.48 159.25 199.41 158.10 198.65 157.44 C 197.89 156.78 196.74 156.86 196.07 157.62 Z M 195.31 158.48 L 194.72 159.25 C 194.11 160.06 194.27 161.21 195.08 161.82 C 195.88 162.44 197.04 162.28 197.65 161.47 L 198.24 160.70 C 198.85 159.89 198.69 158.74 197.88 158.12 C 197.08 157.51 195.92 157.67 195.31 158.48 Z M 194.55 159.49 L 194.13 160.29 C 193.65 161.20 193.99 162.32 194.90 162.79 C 195.80 163.27 196.92 162.93 197.40 162.02 L 197.82 161.23 C 198.30 160.32 197.96 159.20 197.05 158.72 C 196.15 158.24 195.03 158.59 194.55 159.49 Z M 193.95 160.74 L 193.76 161.55 C 193.53 162.55 194.16 163.55 195.16 163.79 C 196.16 164.02 197.16 163.39 197.39 162.39 L 197.58 161.58 C 197.81 160.57 197.18 159.57 196.18 159.34 C 195.18 159.11 194.18 159.74 193.95 160.74 Z M 193.71 162.04 L 193.74 162.89 C 193.78 163.92 194.64 164.72 195.68 164.69 C 196.71 164.65 197.51 163.78 197.48 162.75 L 197.44 161.90 C 197.41 160.87 196.54 160.07 195.51 160.10 C 194.48 160.14 193.67 161.01 193.71 162.04 Z M 193.79 163.25 L 194.00 164.16 C 194.24 165.17 195.25 165.79 196.25 165.55 C 197.26 165.31 197.88 164.30 197.65 163.30 L 197.43 162.39 C 197.19 161.38 196.18 160.76 195.18 161.00 C 194.17 161.23 193.55 162.24 193.79 163.25 Z M 194.07 164.40 L 194.44 165.37 C 194.81 166.34 195.90 166.82 196.87 166.45 C 197.83 166.08 198.32 164.99 197.95 164.03 L 197.57 163.06 C 197.20 162.09 196.12 161.60 195.15 161.98 C 194.18 162.35 193.70 163.43 194.07 164.40 Z M 194.50 165.52 L 195.01 166.55 C 195.46 167.49 196.59 167.88 197.52 167.42 C 198.45 166.97 198.84 165.84 198.39 164.91 L 197.89 163.87 C 197.43 162.94 196.31 162.55 195.37 163.01 C 194.44 163.46 194.05 164.59 194.50 165.52 Z M 195.05 166.64 L 195.55 167.56 C 196.05 168.47 197.20 168.80 198.11 168.30 C 199.02 167.80 199.36 166.66 198.85 165.74 L 198.35 164.82 C 197.85 163.91 196.70 163.58 195.79 164.08 C 194.88 164.58 194.55 165.73 195.05 166.64 Z M 195.58 167.60 L 196.00 168.34 C 196.53 169.23 197.68 169.54 198.58 169.01 C 199.48 168.49 199.78 167.33 199.26 166.43 L 198.83 165.70 C 198.31 164.80 197.15 164.50 196.25 165.02 C 195.35 165.55 195.05 166.70 195.58 167.60 Z M 196.02 168.36 L 196.48 169.13 C 197.02 170.02 198.18 170.30 199.07 169.76 C 199.96 169.22 200.25 168.06 199.71 167.17 L 199.24 166.41 C 198.70 165.52 197.55 165.23 196.66 165.77 C 195.76 166.31 195.48 167.47 196.02 168.36 Z M 196.50 169.15 L 196.99 169.94 C 197.54 170.83 198.71 171.10 199.59 170.55 C 200.47 170.00 200.74 168.84 200.19 167.95 L 199.70 167.15 C 199.15 166.27 197.98 166.00 197.10 166.55 C 196.22 167.10 195.95 168.26 196.50 169.15 Z M 197.00 169.96 L 197.53 170.79 C 198.09 171.67 199.25 171.93 200.13 171.38 C 201.01 170.82 201.27 169.65 200.71 168.77 L 200.18 167.94 C 199.63 167.06 198.46 166.80 197.58 167.36 C 196.70 167.91 196.44 169.08 197.00 169.96 Z M 197.54 170.80 L 198.10 171.68 C 198.66 172.55 199.83 172.81 200.70 172.24 C 201.58 171.68 201.83 170.52 201.27 169.64 L 200.71 168.77 C 200.15 167.89 198.98 167.63 198.10 168.20 C 197.23 168.76 196.97 169.93 197.54 170.80 Z M 198.10 171.68 L 198.69 172.60 C 199.26 173.47 200.42 173.72 201.30 173.16 C 202.17 172.60 202.42 171.43 201.86 170.55 L 201.27 169.64 C 200.70 168.76 199.54 168.51 198.66 169.07 C 197.79 169.64 197.54 170.80 198.10 171.68 Z M 198.69 172.60 L 199.31 173.56 C 199.88 174.43 201.04 174.69 201.92 174.12 C 202.79 173.56 203.04 172.39 202.48 171.52 L 201.86 170.56 C 201.30 169.68 200.13 169.43 199.25 169.99 C 198.38 170.56 198.13 171.72 198.69 172.60 Z M 199.31 173.56 L 199.90 174.48 C 200.47 175.36 201.63 175.62 202.51 175.05 C 203.38 174.49 203.64 173.33 203.08 172.45 L 202.48 171.52 C 201.92 170.65 200.76 170.39 199.88 170.95 C 199.00 171.51 198.75 172.68 199.31 173.56 Z M 199.90 174.48 L 200.41 175.27 C 200.97 176.15 202.13 176.41 203.01 175.85 C 203.89 175.29 204.15 174.13 203.59 173.25 L 203.08 172.46 C 202.52 171.58 201.36 171.32 200.48 171.88 C 199.60 172.44 199.34 173.60 199.90 174.48 Z M 200.41 175.27 L 200.92 176.09 C 201.48 176.97 202.64 177.23 203.52 176.67 C 204.40 176.12 204.66 174.95 204.11 174.07 L 203.59 173.25 C 203.03 172.38 201.87 172.11 200.99 172.67 C 200.11 173.23 199.85 174.39 200.41 175.27 Z M 200.92 176.08 L 201.45 176.92 C 202.00 177.80 203.16 178.07 204.04 177.51 C 204.92 176.96 205.19 175.80 204.64 174.92 L 204.11 174.08 C 203.55 173.20 202.39 172.93 201.51 173.49 C 200.63 174.04 200.37 175.20 200.92 176.08 Z M 201.45 176.91 L 201.98 177.77 C 202.53 178.65 203.69 178.92 204.57 178.37 C 205.45 177.82 205.72 176.66 205.17 175.77 L 204.64 174.92 C 204.09 174.04 202.93 173.77 202.04 174.32 C 201.16 174.87 200.89 176.03 201.45 176.91 Z M 201.98 177.76 L 202.51 178.63 C 203.06 179.51 204.22 179.78 205.10 179.23 C 205.99 178.69 206.26 177.53 205.71 176.64 L 205.17 175.78 C 204.63 174.90 203.47 174.62 202.58 175.17 C 201.70 175.72 201.43 176.88 201.98 177.76 Z M 202.51 178.62 L 203.05 179.50 C 203.59 180.38 204.75 180.66 205.64 180.11 C 206.52 179.57 206.80 178.41 206.25 177.52 L 205.71 176.65 C 205.17 175.77 204.01 175.49 203.12 176.04 C 202.24 176.58 201.97 177.74 202.51 178.62 Z M 203.05 179.49 L 203.58 180.37 C 204.12 181.25 205.28 181.53 206.17 180.99 C 207.05 180.45 207.33 179.29 206.79 178.41 L 206.25 177.53 C 205.71 176.64 204.55 176.36 203.67 176.91 C 202.78 177.45 202.50 178.60 203.05 179.49 Z M 203.58 180.36 L 204.11 181.24 C 204.65 182.12 205.80 182.41 206.69 181.87 C 207.58 181.33 207.86 180.18 207.32 179.29 L 206.79 178.41 C 206.25 177.52 205.10 177.24 204.21 177.78 C 203.32 178.32 203.04 179.47 203.58 180.36 Z M 204.11 181.23 L 204.63 182.10 C 205.17 182.99 206.32 183.28 207.21 182.74 C 208.10 182.21 208.39 181.06 207.85 180.17 L 207.33 179.29 C 206.79 178.41 205.64 178.12 204.75 178.65 C 203.86 179.19 203.57 180.34 204.11 181.23 Z M 204.63 182.10 L 205.14 182.96 C 205.68 183.85 206.83 184.14 207.72 183.61 C 208.61 183.08 208.90 181.93 208.37 181.04 L 207.86 180.17 C 207.32 179.28 206.17 178.99 205.28 179.52 C 204.39 180.05 204.10 181.21 204.63 182.10 Z M 205.14 182.95 L 205.67 183.85 C 206.20 184.74 207.35 185.04 208.24 184.51 C 209.13 183.99 209.43 182.84 208.90 181.94 L 208.37 181.05 C 207.85 180.15 206.70 179.86 205.80 180.38 C 204.91 180.91 204.61 182.06 205.14 182.95 Z M 205.67 183.84 L 206.20 184.75 C 206.72 185.64 207.86 185.95 208.76 185.42 C 209.65 184.90 209.96 183.75 209.43 182.86 L 208.91 181.95 C 208.38 181.06 207.24 180.76 206.34 181.28 C 205.45 181.80 205.14 182.95 205.67 183.84 Z M 206.19 184.74 L 206.71 185.64 C 207.23 186.53 208.37 186.84 209.27 186.32 C 210.16 185.80 210.47 184.66 209.95 183.76 L 209.44 182.87 C 208.92 181.97 207.78 181.67 206.88 182.18 C 205.98 182.70 205.68 183.84 206.19 184.74 Z M 206.71 185.63 L 207.21 186.51 C 207.73 187.41 208.87 187.72 209.76 187.21 C 210.66 186.69 210.97 185.55 210.46 184.65 L 209.96 183.77 C 209.44 182.87 208.30 182.56 207.40 183.08 C 206.51 183.59 206.19 184.73 206.71 185.63 Z M 207.21 186.50 L 207.71 187.38 C 208.22 188.27 209.36 188.59 210.25 188.08 C 211.15 187.57 211.47 186.43 210.96 185.53 L 210.46 184.66 C 209.95 183.76 208.81 183.45 207.91 183.96 C 207.02 184.47 206.70 185.61 207.21 186.50 Z M 207.71 187.37 L 208.19 188.23 C 208.70 189.13 209.84 189.45 210.73 188.94 C 211.63 188.43 211.95 187.30 211.44 186.40 L 210.96 185.54 C 210.45 184.64 209.31 184.32 208.41 184.83 C 207.52 185.33 207.20 186.47 207.71 187.37 Z M 208.19 188.23 L 208.67 189.08 C 209.18 189.98 210.31 190.30 211.21 189.80 C 212.11 189.29 212.43 188.16 211.92 187.26 L 211.44 186.40 C 210.94 185.51 209.80 185.19 208.90 185.69 C 208.01 186.19 207.69 187.33 208.19 188.23 Z M 208.67 189.08 L 209.15 189.93 C 209.65 190.82 210.78 191.14 211.68 190.64 C 212.58 190.14 212.90 189.01 212.40 188.11 L 211.92 187.26 C 211.42 186.36 210.28 186.04 209.39 186.54 C 208.49 187.05 208.17 188.18 208.67 189.08 Z M 209.15 189.92 L 209.62 190.77 C 210.12 191.66 211.25 191.98 212.15 191.48 C 213.05 190.98 213.37 189.85 212.87 188.95 L 212.39 188.11 C 211.89 187.21 210.76 186.89 209.86 187.39 C 208.97 187.89 208.65 189.03 209.15 189.92 Z M 209.62 190.77 L 210.09 191.60 C 210.59 192.50 211.72 192.82 212.62 192.32 C 213.51 191.82 213.83 190.69 213.33 189.79 L 212.86 188.95 C 212.36 188.06 211.23 187.74 210.33 188.24 C 209.44 188.74 209.12 189.87 209.62 190.77 Z M 210.09 191.60 L 210.58 192.48 C 211.08 193.37 212.21 193.69 213.11 193.19 C 214.00 192.69 214.32 191.56 213.82 190.66 L 213.33 189.79 C 212.83 188.90 211.70 188.58 210.80 189.08 C 209.91 189.58 209.59 190.71 210.09 191.60 Z M 210.58 192.48 L 211.08 193.37 C 211.58 194.26 212.71 194.58 213.61 194.08 C 214.50 193.57 214.82 192.44 214.32 191.55 L 213.82 190.66 C 213.32 189.77 212.19 189.45 211.29 189.95 C 210.40 190.46 210.08 191.59 210.58 192.48 Z M 211.08 193.37 L 211.58 194.25 C 212.08 195.14 213.21 195.46 214.10 194.96 C 214.99 194.46 215.31 193.33 214.81 192.43 L 214.31 191.55 C 213.81 190.66 212.68 190.34 211.79 190.84 C 210.90 191.34 210.58 192.47 211.08 193.37 Z M 211.58 194.25 L 212.07 195.13 C 212.57 196.02 213.70 196.34 214.59 195.84 C 215.49 195.34 215.80 194.21 215.30 193.32 L 214.81 192.44 C 214.31 191.54 213.18 191.23 212.29 191.73 C 211.40 192.23 211.08 193.36 211.58 194.25 Z M 212.07 195.13 L 212.56 196.00 C 213.06 196.89 214.19 197.21 215.08 196.71 C 215.97 196.21 216.29 195.09 215.79 194.19 L 215.30 193.32 C 214.80 192.43 213.68 192.11 212.78 192.61 C 211.89 193.11 211.57 194.23 212.07 195.13 Z M 212.56 196.00 L 213.05 196.87 C 213.55 197.76 214.67 198.08 215.57 197.58 C 216.46 197.09 216.78 195.96 216.28 195.07 L 215.79 194.20 C 215.30 193.31 214.17 192.99 213.28 193.48 C 212.39 193.98 212.07 195.11 212.56 196.00 Z M 213.05 196.87 L 213.53 197.73 C 214.03 198.63 215.15 198.95 216.04 198.45 C 216.94 197.96 217.26 196.83 216.76 195.94 L 216.28 195.07 C 215.78 194.18 214.66 193.86 213.77 194.36 C 212.88 194.85 212.56 195.97 213.05 196.87 Z M 213.53 197.73 L 214.01 198.59 C 214.50 199.49 215.62 199.81 216.52 199.32 C 217.41 198.83 217.73 197.70 217.24 196.81 L 216.76 195.95 C 216.27 195.06 215.15 194.73 214.26 195.22 C 213.36 195.72 213.04 196.84 213.53 197.73 Z M 214.01 198.59 L 214.48 199.45 C 214.97 200.34 216.09 200.67 216.98 200.18 C 217.87 199.69 218.20 198.57 217.71 197.68 L 217.24 196.82 C 216.75 195.92 215.63 195.60 214.74 196.09 C 213.85 196.57 213.52 197.69 214.01 198.59 Z M 214.48 199.44 L 214.95 200.32 C 215.44 201.21 216.55 201.54 217.45 201.06 C 218.34 200.57 218.67 199.46 218.19 198.56 L 217.71 197.68 C 217.23 196.79 216.11 196.46 215.22 196.94 C 214.32 197.43 213.99 198.54 214.48 199.44 Z M 214.95 200.31 L 215.43 201.21 C 215.91 202.11 217.03 202.44 217.92 201.96 C 218.82 201.49 219.16 200.37 218.68 199.48 L 218.19 198.57 C 217.71 197.68 216.60 197.34 215.70 197.82 C 214.81 198.30 214.47 199.41 214.95 200.31 Z M 215.43 201.20 L 215.91 202.10 C 216.38 203.00 217.50 203.34 218.39 202.87 C 219.29 202.39 219.63 201.28 219.15 200.38 L 218.68 199.48 C 218.20 198.59 217.09 198.25 216.20 198.72 C 215.30 199.20 214.96 200.31 215.43 201.20 Z M 215.91 202.09 L 216.38 202.99 C 216.85 203.88 217.95 204.23 218.85 203.76 C 219.75 203.29 220.09 202.18 219.62 201.29 L 219.16 200.39 C 218.69 199.50 217.58 199.15 216.68 199.62 C 215.78 200.09 215.44 201.20 215.91 202.09 Z M 216.38 202.98 L 216.84 203.87 C 217.30 204.77 218.41 205.12 219.30 204.65 C 220.20 204.19 220.55 203.08 220.09 202.18 L 219.62 201.29 C 219.16 200.40 218.06 200.05 217.16 200.51 C 216.26 200.98 215.91 202.08 216.38 202.98 Z M 216.84 203.86 L 217.29 204.74 C 217.75 205.64 218.85 206.00 219.75 205.54 C 220.65 205.08 221.00 203.98 220.54 203.08 L 220.09 202.19 C 219.63 201.29 218.53 200.94 217.63 201.40 C 216.73 201.86 216.38 202.96 216.84 203.86 Z M 217.29 204.74 L 217.74 205.62 C 218.19 206.52 219.29 206.87 220.19 206.42 C 221.09 205.96 221.44 204.87 220.99 203.97 L 220.54 203.09 C 220.09 202.19 218.99 201.83 218.09 202.28 C 217.19 202.74 216.83 203.84 217.29 204.74 Z M 217.73 205.61 L 218.17 206.49 C 218.63 207.39 219.72 207.75 220.62 207.30 C 221.52 206.85 221.88 205.75 221.43 204.85 L 220.99 203.98 C 220.54 203.08 219.44 202.71 218.54 203.16 C 217.65 203.62 217.28 204.71 217.73 205.61 Z M 218.17 206.48 L 218.61 207.35 C 219.06 208.25 220.15 208.62 221.05 208.17 C 221.94 207.72 222.31 206.63 221.86 205.73 L 221.43 204.86 C 220.98 203.96 219.89 203.59 218.99 204.04 C 218.09 204.49 217.73 205.58 218.17 206.48 Z M 218.61 207.34 L 219.07 208.28 C 219.51 209.18 220.60 209.55 221.50 209.11 C 222.40 208.67 222.77 207.58 222.33 206.68 L 221.87 205.74 C 221.42 204.84 220.34 204.47 219.44 204.91 C 218.54 205.36 218.16 206.44 218.61 207.34 Z M 219.07 208.27 L 219.53 209.23 C 219.97 210.13 221.05 210.50 221.95 210.06 C 222.85 209.62 223.23 208.54 222.79 207.64 L 222.33 206.68 C 221.89 205.78 220.80 205.41 219.90 205.85 C 219.00 206.29 218.63 207.37 219.07 208.27 Z M 219.53 209.22 L 219.98 210.16 C 220.42 211.06 221.50 211.44 222.40 211.01 C 223.30 210.57 223.68 209.49 223.25 208.59 L 222.79 207.65 C 222.36 206.74 221.27 206.37 220.37 206.80 C 219.47 207.24 219.09 208.32 219.53 209.22 Z M 219.98 210.16 L 220.43 211.09 C 220.86 211.99 221.94 212.37 222.84 211.93 C 223.74 211.50 224.12 210.42 223.69 209.52 L 223.25 208.59 C 222.82 207.69 221.74 207.31 220.83 207.74 C 219.93 208.18 219.55 209.26 219.98 210.16 Z M 220.43 211.08 L 220.86 211.99 C 221.29 212.89 222.37 213.27 223.27 212.84 C 224.17 212.41 224.55 211.33 224.12 210.43 L 223.69 209.53 C 223.26 208.63 222.18 208.24 221.28 208.67 C 220.38 209.10 220.00 210.18 220.43 211.08 Z M 220.86 211.99 L 221.28 212.87 C 221.71 213.77 222.79 214.15 223.69 213.72 C 224.59 213.30 224.97 212.22 224.54 211.32 L 224.12 210.44 C 223.70 209.54 222.62 209.15 221.72 209.58 C 220.82 210.01 220.43 211.08 220.86 211.99 Z M 221.28 212.87 L 221.69 213.72 C 222.11 214.62 223.19 215.00 224.09 214.58 C 224.99 214.15 225.37 213.08 224.95 212.18 L 224.54 211.32 C 224.12 210.42 223.04 210.04 222.14 210.46 C 221.24 210.89 220.86 211.97 221.28 212.87 Z M 221.69 213.72 L 222.08 214.54 C 222.50 215.44 223.58 215.82 224.48 215.40 C 225.37 214.97 225.76 213.90 225.33 213.00 L 224.94 212.18 C 224.52 211.28 223.44 210.90 222.55 211.32 C 221.65 211.75 221.26 212.82 221.69 213.72 Z M 222.08 214.54 L 222.53 215.49 C 222.96 216.39 224.03 216.77 224.93 216.35 C 225.82 215.92 226.21 214.85 225.78 213.95 L 225.33 213.00 C 224.90 212.10 223.83 211.72 222.93 212.14 C 222.04 212.57 221.65 213.64 222.08 214.54 Z M 222.53 215.49 L 222.98 216.43 C 223.40 217.33 224.48 217.71 225.37 217.29 C 226.27 216.86 226.65 215.79 226.23 214.90 L 225.78 213.95 C 225.36 213.06 224.28 212.67 223.39 213.10 C 222.49 213.52 222.11 214.59 222.53 215.49 Z M 222.98 216.43 L 223.41 217.34 C 223.83 218.23 224.90 218.62 225.79 218.19 C 226.69 217.77 227.08 216.70 226.65 215.81 L 226.23 214.90 C 225.80 214.00 224.73 213.62 223.84 214.04 C 222.94 214.46 222.56 215.53 222.98 216.43 Z M 223.40 217.33 L 223.82 218.21 C 224.23 219.11 225.30 219.50 226.20 219.08 C 227.09 218.66 227.48 217.59 227.07 216.70 L 226.65 215.81 C 226.24 214.92 225.17 214.53 224.27 214.95 C 223.38 215.36 222.99 216.43 223.40 217.33 Z M 223.81 218.20 L 224.21 219.07 C 224.63 219.97 225.69 220.36 226.59 219.95 C 227.49 219.54 227.88 218.48 227.47 217.58 L 227.07 216.71 C 226.66 215.81 225.59 215.41 224.69 215.83 C 223.80 216.24 223.40 217.30 223.81 218.20 Z M 224.21 219.06 L 224.60 219.93 C 225.01 220.83 226.07 221.23 226.97 220.83 C 227.87 220.42 228.27 219.37 227.86 218.47 L 227.47 217.59 C 227.07 216.69 226.01 216.29 225.11 216.69 C 224.21 217.10 223.80 218.16 224.21 219.06 Z M 224.60 219.92 L 224.99 220.81 C 225.39 221.72 226.44 222.13 227.35 221.73 C 228.25 221.34 228.66 220.28 228.26 219.38 L 227.87 218.48 C 227.47 217.58 226.42 217.17 225.52 217.56 C 224.61 217.96 224.20 219.01 224.60 219.92 Z M 224.99 220.80 L 225.38 221.72 C 225.77 222.63 226.82 223.04 227.72 222.66 C 228.63 222.27 229.05 221.22 228.66 220.31 L 228.27 219.39 C 227.88 218.49 226.83 218.07 225.92 218.46 C 225.02 218.84 224.60 219.89 224.99 220.80 Z M 225.38 221.71 L 225.77 222.64 C 226.15 223.55 227.20 223.97 228.10 223.59 C 229.01 223.21 229.44 222.17 229.06 221.26 L 228.67 220.33 C 228.28 219.42 227.24 218.99 226.33 219.37 C 225.42 219.75 225.00 220.80 225.38 221.71 Z M 225.77 222.63 L 226.15 223.56 C 226.53 224.47 227.57 224.90 228.48 224.53 C 229.39 224.15 229.82 223.11 229.45 222.20 L 229.06 221.27 C 228.68 220.36 227.64 219.93 226.73 220.30 C 225.82 220.68 225.39 221.72 225.77 222.63 Z M 226.15 223.55 L 226.53 224.49 C 226.90 225.40 227.94 225.83 228.85 225.46 C 229.76 225.09 230.20 224.05 229.83 223.14 L 229.45 222.21 C 229.08 221.30 228.04 220.87 227.13 221.24 C 226.22 221.61 225.78 222.64 226.15 223.55 Z M 226.53 224.48 L 226.90 225.40 C 227.27 226.31 228.30 226.75 229.21 226.38 C 230.12 226.01 230.57 224.98 230.20 224.07 L 229.83 223.15 C 229.46 222.24 228.42 221.80 227.51 222.17 C 226.60 222.53 226.16 223.57 226.53 224.48 Z M 226.90 225.39 L 227.27 226.32 C 227.64 227.23 228.67 227.68 229.58 227.31 C 230.49 226.95 230.93 225.91 230.57 225.00 L 230.20 224.07 C 229.83 223.16 228.80 222.72 227.89 223.09 C 226.98 223.45 226.54 224.48 226.90 225.39 Z M 227.27 226.31 L 227.64 227.25 C 228.00 228.17 229.03 228.61 229.94 228.26 C 230.85 227.90 231.30 226.87 230.94 225.96 L 230.57 225.01 C 230.21 224.10 229.18 223.65 228.27 224.01 C 227.36 224.37 226.91 225.40 227.27 226.31 Z M 227.64 227.23 L 227.99 228.16 C 228.33 229.08 229.35 229.54 230.27 229.19 C 231.18 228.85 231.65 227.83 231.30 226.91 L 230.95 225.98 C 230.60 225.06 229.58 224.60 228.67 224.95 C 227.75 225.29 227.29 226.32 227.64 227.23 Z M 227.98 228.13 L 228.31 229.06 C 228.63 229.98 229.64 230.46 230.56 230.13 C 231.49 229.81 231.97 228.80 231.64 227.88 L 231.31 226.95 C 230.99 226.02 229.97 225.54 229.05 225.87 C 228.13 226.19 227.65 227.21 227.98 228.13 Z M 228.29 229.01 L 228.60 229.95 C 228.90 230.88 229.89 231.39 230.82 231.09 C 231.75 230.79 232.26 229.79 231.96 228.86 L 231.66 227.92 C 231.36 226.99 230.36 226.49 229.43 226.79 C 228.50 227.09 227.99 228.08 228.29 229.01 Z M 228.58 229.89 L 228.85 230.85 C 229.12 231.79 230.10 232.33 231.04 232.07 C 231.97 231.80 232.52 230.82 232.25 229.88 L 231.97 228.92 C 231.71 227.98 230.73 227.44 229.79 227.71 C 228.85 227.98 228.31 228.95 228.58 229.89 Z M 228.84 230.79 L 229.07 231.73 C 229.30 232.68 230.26 233.26 231.20 233.03 C 232.15 232.79 232.73 231.84 232.50 230.89 L 232.26 229.95 C 232.03 229.00 231.08 228.42 230.13 228.65 C 229.18 228.89 228.61 229.84 228.84 230.79 Z M 229.06 231.68 L 229.26 232.63 C 229.46 233.59 230.40 234.20 231.35 233.99 C 232.30 233.79 232.91 232.86 232.71 231.91 L 232.51 230.95 C 232.31 230.00 231.37 229.39 230.42 229.59 C 229.47 229.79 228.86 230.72 229.06 231.68 Z M 229.25 232.59 L 229.43 233.57 C 229.61 234.53 230.53 235.16 231.49 234.98 C 232.44 234.80 233.08 233.88 232.90 232.93 L 232.72 231.95 C 232.54 230.99 231.62 230.36 230.67 230.54 C 229.71 230.71 229.08 231.63 229.25 232.59 Z M 229.43 233.54 L 229.59 234.53 C 229.75 235.49 230.66 236.14 231.62 235.98 C 232.58 235.82 233.23 234.91 233.07 233.95 L 232.90 232.96 C 232.75 232.00 231.84 231.35 230.88 231.51 C 229.92 231.67 229.27 232.58 229.43 233.54 Z M 229.59 234.51 L 229.74 235.51 C 229.89 236.47 230.79 237.13 231.75 236.99 C 232.71 236.84 233.37 235.94 233.23 234.98 L 233.07 233.98 C 232.93 233.01 232.03 232.35 231.07 232.50 C 230.10 232.65 229.44 233.55 229.59 234.51 Z M 229.74 235.50 L 229.89 236.51 C 230.03 237.47 230.92 238.14 231.88 238.00 C 232.85 237.86 233.51 236.97 233.37 236.01 L 233.23 234.99 C 233.09 234.03 232.19 233.37 231.23 233.51 C 230.27 233.65 229.60 234.54 229.74 235.50 Z M 229.89 236.51 L 229.94 236.85 C 230.08 237.81 230.97 238.48 231.93 238.34 C 232.89 238.21 233.56 237.31 233.42 236.35 L 233.37 236.01 C 233.24 235.05 232.34 234.38 231.38 234.52 C 230.42 234.66 229.75 235.55 229.89 236.51 Z"
      fill="black"
      fill-rule="nonzero" /></svg>