<svg xmlns="http://www.w3.org/2000/svg" width="300" height="300" viewBox="0 0 300 300">
<path d="M 146.36 77.27 L 145.99 78.18 C 145.64 79.03 146.05 80.00 146.90 80.34 C 147.75 80.69 148.72 80.28 149.07 79.43 L 149.43 78.52 C 149.78 77.67 149.37 76.70 148.52 76.36 C 147.67 76.01 146.70 76.42 146.36 77.27 Z M 145.96 78.19 L 145.60 79.10 C 145.26 79.97 145.68 80.95 146.55 81.29 C 147.42 81.63 148.40 81.21 148.74 80.34 L 149.10 79.42 C 149.44 78.56 149.01 77.58 148.14 77.24 C 147.28 76.89 146.30 77.32 145.96 78.19 Z M 145.56 79.13 L 145.22 80.05 C 144.89 80.94 145.34 81.93 146.23 82.26 C 147.12 82.58 148.10 82.13 148.43 81.24 L 148.77 80.32 C 149.10 79.43 148.65 78.44 147.76 78.11 C 146.87 77.79 145.89 78.24 145.56 79.13 Z M 145.17 80.09 L 144.86 81.04 C 144.55 81.95 145.04 82.94 145.95 83.24 C 146.86 83.55 147.85 83.06 148.16 82.15 L 148.47 81.20 C 148.78 80.29 148.29 79.30 147.38 79.00 C 146.47 78.69 145.48 79.18 145.17 80.09 Z M 144.81 81.09 L 144.53 82.06 C 144.25 83.00 144.79 83.98 145.73 84.25 C 146.66 84.53 147.65 83.99 147.92 83.05 L 148.20 82.09 C 148.48 81.15 147.94 80.17 147.00 79.89 C 146.07 79.62 145.08 80.16 144.81 81.09 Z M 144.48 82.14 L 144.24 83.13 C 144.01 84.09 144.60 85.06 145.56 85.29 C 146.53 85.53 147.50 84.93 147.73 83.97 L 147.97 82.98 C 148.20 82.01 147.61 81.04 146.64 80.81 C 145.68 80.58 144.71 81.17 144.48 82.14 Z M 144.20 83.22 L 144.01 84.22 C 143.83 85.21 144.48 86.16 145.47 86.34 C 146.46 86.52 147.41 85.87 147.59 84.88 L 147.77 83.88 C 147.95 82.89 147.30 81.94 146.31 81.76 C 145.33 81.58 144.38 82.23 144.20 83.22 Z M 143.99 84.31 L 143.86 85.32 C 143.73 86.32 144.43 87.23 145.43 87.36 C 146.43 87.49 147.35 86.79 147.48 85.79 L 147.61 84.79 C 147.74 83.79 147.04 82.87 146.04 82.74 C 145.04 82.61 144.12 83.31 143.99 84.31 Z M 143.85 85.39 L 143.76 86.41 C 143.67 87.41 144.41 88.30 145.42 88.39 C 146.43 88.48 147.31 87.74 147.40 86.73 L 147.49 85.71 C 147.58 84.71 146.84 83.82 145.83 83.73 C 144.82 83.64 143.93 84.38 143.85 85.39 Z M 143.75 86.47 L 143.69 87.49 C 143.64 88.50 144.42 89.37 145.43 89.42 C 146.44 89.47 147.30 88.70 147.36 87.69 L 147.41 86.67 C 147.47 85.66 146.69 84.79 145.68 84.74 C 144.67 84.68 143.80 85.46 143.75 86.47 Z M 143.69 87.54 L 143.66 88.55 C 143.63 89.57 144.44 90.41 145.45 90.44 C 146.46 90.47 147.31 89.67 147.34 88.65 L 147.36 87.64 C 147.39 86.62 146.59 85.78 145.57 85.75 C 144.56 85.73 143.72 86.53 143.69 87.54 Z M 143.66 88.59 L 143.65 89.59 C 143.65 90.60 144.46 91.43 145.48 91.44 C 146.50 91.45 147.33 90.63 147.33 89.61 L 147.34 88.61 C 147.35 87.60 146.53 86.77 145.51 86.76 C 144.49 86.76 143.66 87.58 143.66 88.59 Z M 143.65 89.61 L 143.66 90.58 C 143.67 91.60 144.50 92.42 145.52 92.41 C 146.54 92.40 147.35 91.57 147.35 90.55 L 147.34 89.58 C 147.33 88.56 146.50 87.75 145.48 87.75 C 144.46 87.76 143.64 88.60 143.65 89.61 Z M 143.65 90.60 L 143.67 91.63 C 143.69 92.65 144.53 93.46 145.55 93.44 C 146.57 93.42 147.38 92.58 147.37 91.56 L 147.35 90.53 C 147.33 89.51 146.49 88.70 145.47 88.72 C 144.45 88.73 143.64 89.58 143.65 90.60 Z M 143.67 91.64 L 143.70 92.70 C 143.72 93.72 144.57 94.53 145.59 94.50 C 146.61 94.48 147.42 93.63 147.39 92.61 L 147.37 91.55 C 147.34 90.53 146.50 89.72 145.47 89.74 C 144.45 89.77 143.64 90.62 143.67 91.64 Z M 143.69 92.71 L 143.72 93.72 C 143.75 94.74 144.61 95.55 145.63 95.51 C 146.65 95.48 147.46 94.63 147.43 93.61 L 147.40 92.60 C 147.37 91.57 146.51 90.77 145.49 90.80 C 144.47 90.83 143.66 91.69 143.69 92.71 Z M 143.72 93.73 L 143.76 94.70 C 143.79 95.73 144.65 96.53 145.68 96.49 C 146.70 96.46 147.50 95.60 147.46 94.57 L 147.43 93.60 C 147.39 92.57 146.53 91.77 145.51 91.81 C 144.49 91.84 143.69 92.70 143.72 93.73 Z M 143.75 94.71 L 143.79 95.67 C 143.83 96.69 144.69 97.49 145.72 97.45 C 146.74 97.41 147.54 96.55 147.50 95.52 L 147.47 94.57 C 147.43 93.54 146.56 92.74 145.54 92.78 C 144.51 92.82 143.71 93.69 143.75 94.71 Z M 143.79 95.67 L 143.83 96.62 C 143.87 97.64 144.73 98.44 145.76 98.40 C 146.79 98.36 147.59 97.49 147.54 96.46 L 147.51 95.52 C 147.46 94.49 146.60 93.69 145.57 93.74 C 144.55 93.78 143.75 94.64 143.79 95.67 Z M 143.82 96.62 L 143.86 97.57 C 143.91 98.60 144.77 99.40 145.80 99.36 C 146.83 99.31 147.63 98.45 147.58 97.42 L 147.55 96.46 C 147.50 95.44 146.64 94.64 145.61 94.68 C 144.58 94.72 143.78 95.59 143.82 96.62 Z M 143.86 97.57 L 143.90 98.54 C 143.94 99.57 144.81 100.37 145.84 100.33 C 146.87 100.29 147.67 99.42 147.63 98.39 L 147.59 97.42 C 147.55 96.39 146.68 95.59 145.65 95.63 C 144.62 95.67 143.82 96.54 143.86 97.57 Z M 143.90 98.54 L 143.94 99.52 C 143.98 100.55 144.85 101.35 145.88 101.31 C 146.91 101.27 147.71 100.40 147.67 99.37 L 147.63 98.39 C 147.59 97.36 146.72 96.56 145.69 96.60 C 144.66 96.64 143.86 97.51 143.90 98.54 Z M 143.94 99.52 L 143.97 100.52 C 144.01 101.56 144.88 102.36 145.91 102.32 C 146.94 102.28 147.75 101.41 147.71 100.38 L 147.67 99.38 C 147.63 98.34 146.76 97.54 145.73 97.58 C 144.70 97.62 143.90 98.49 143.94 99.52 Z M 143.97 100.52 L 144.01 101.55 C 144.05 102.59 144.92 103.39 145.95 103.35 C 146.98 103.31 147.79 102.44 147.75 101.41 L 147.71 100.38 C 147.67 99.35 146.80 98.54 145.77 98.58 C 144.74 98.62 143.93 99.49 143.97 100.52 Z M 144.01 101.55 L 144.05 102.58 C 144.08 103.62 144.95 104.43 145.99 104.39 C 147.02 104.35 147.83 103.48 147.79 102.45 L 147.75 101.41 C 147.71 100.38 146.85 99.57 145.81 99.61 C 144.78 99.65 143.97 100.52 144.01 101.55 Z M 144.04 102.58 L 144.08 103.53 C 144.12 104.57 144.98 105.38 146.02 105.34 C 147.05 105.30 147.86 104.43 147.83 103.40 L 147.79 102.45 C 147.76 101.41 146.89 100.60 145.85 100.64 C 144.82 100.68 144.01 101.55 144.04 102.58 Z M 144.08 103.53 L 144.11 104.50 C 144.15 105.54 145.02 106.35 146.05 106.31 C 147.09 106.28 147.90 105.41 147.86 104.37 L 147.83 103.40 C 147.79 102.36 146.92 101.55 145.89 101.59 C 144.85 101.62 144.04 102.49 144.08 103.53 Z M 144.11 104.50 L 144.14 105.49 C 144.18 106.53 145.05 107.34 146.08 107.31 C 147.12 107.27 147.93 106.40 147.90 105.37 L 147.86 104.37 C 147.83 103.34 146.96 102.52 145.92 102.56 C 144.88 102.59 144.07 103.46 144.11 104.50 Z M 144.14 105.49 L 144.17 106.50 C 144.21 107.54 145.08 108.36 146.12 108.32 C 147.16 108.29 147.97 107.42 147.93 106.38 L 147.90 105.37 C 147.87 104.33 147.00 103.51 145.96 103.55 C 144.92 103.58 144.10 104.45 144.14 105.49 Z M 144.17 106.50 L 144.20 107.53 C 144.24 108.57 145.11 109.39 146.15 109.35 C 147.19 109.32 148.01 108.45 147.97 107.41 L 147.94 106.38 C 147.90 105.34 147.03 104.52 145.99 104.56 C 144.95 104.59 144.14 105.46 144.17 106.50 Z M 144.20 107.53 L 144.24 108.57 C 144.27 109.61 145.14 110.43 146.18 110.40 C 147.22 110.36 148.04 109.49 148.01 108.45 L 147.97 107.41 C 147.94 106.37 147.07 105.55 146.03 105.58 C 144.98 105.62 144.17 106.49 144.20 107.53 Z M 144.23 108.57 L 144.27 109.57 C 144.30 110.61 145.17 111.43 146.21 111.39 C 147.26 111.36 148.07 110.49 148.04 109.44 L 148.01 108.45 C 147.98 107.41 147.10 106.59 146.06 106.62 C 145.02 106.66 144.20 107.53 144.23 108.57 Z M 144.26 109.56 L 144.29 110.54 C 144.33 111.59 145.20 112.41 146.24 112.37 C 147.29 112.34 148.11 111.47 148.07 110.42 L 148.04 109.45 C 148.01 108.40 147.14 107.58 146.09 107.62 C 145.05 107.65 144.23 108.52 144.26 109.56 Z M 144.29 110.54 L 144.32 111.53 C 144.35 112.57 145.23 113.40 146.27 113.36 C 147.32 113.33 148.14 112.46 148.11 111.42 L 148.08 110.43 C 148.04 109.38 147.17 108.56 146.13 108.59 C 145.08 108.62 144.26 109.50 144.29 110.54 Z M 144.32 111.53 L 144.35 112.52 C 144.38 113.57 145.25 114.39 146.30 114.36 C 147.34 114.33 148.17 113.46 148.14 112.42 L 148.11 111.42 C 148.08 110.37 147.21 109.55 146.16 109.58 C 145.11 109.61 144.29 110.48 144.32 111.53 Z M 144.35 112.52 L 144.37 113.52 C 144.40 114.57 145.27 115.40 146.32 115.37 C 147.36 115.34 148.19 114.47 148.16 113.43 L 148.14 112.42 C 148.11 111.37 147.24 110.55 146.19 110.57 C 145.15 110.60 144.32 111.47 144.35 112.52 Z M 144.37 113.52 L 144.39 114.53 C 144.42 115.58 145.28 116.41 146.33 116.39 C 147.38 116.36 148.21 115.49 148.19 114.45 L 148.17 113.43 C 148.14 112.38 147.27 111.55 146.23 111.58 C 145.18 111.60 144.35 112.47 144.37 113.52 Z M 144.39 114.52 L 144.41 115.55 C 144.43 116.60 145.30 117.43 146.35 117.41 C 147.39 117.39 148.23 116.53 148.21 115.48 L 148.19 114.45 C 148.17 113.40 147.30 112.57 146.25 112.59 C 145.21 112.61 144.37 113.47 144.39 114.52 Z M 144.41 115.54 L 144.42 116.54 C 144.44 117.59 145.30 118.43 146.35 118.41 C 147.40 118.40 148.24 117.53 148.23 116.48 L 148.21 115.48 C 148.20 114.43 147.33 113.59 146.28 113.61 C 145.23 113.62 144.39 114.49 144.41 115.54 Z M 144.42 116.53 L 144.43 117.51 C 144.44 118.56 145.30 119.41 146.36 119.40 C 147.41 119.38 148.25 118.52 148.24 117.47 L 148.23 116.49 C 148.22 115.44 147.35 114.59 146.30 114.60 C 145.25 114.62 144.41 115.48 144.42 116.53 Z M 144.43 117.51 L 144.44 118.50 C 144.45 119.55 145.30 120.40 146.36 120.39 C 147.41 120.38 148.26 119.52 148.25 118.47 L 148.24 117.48 C 148.23 116.43 147.37 115.58 146.32 115.59 C 145.27 115.60 144.42 116.45 144.43 117.51 Z M 144.44 118.49 L 144.44 119.49 C 144.45 120.54 145.30 121.39 146.36 121.39 C 147.41 121.38 148.26 120.52 148.25 119.47 L 148.25 118.47 C 148.24 117.42 147.39 116.57 146.33 116.58 C 145.28 116.58 144.43 117.44 144.44 118.49 Z M 144.44 119.49 L 144.44 120.49 C 144.45 121.54 145.30 122.40 146.36 122.39 C 147.41 122.39 148.26 121.53 148.26 120.48 L 148.26 119.48 C 148.25 118.42 147.40 117.57 146.34 117.57 C 145.29 117.58 144.44 118.43 144.44 119.49 Z M 144.44 120.49 L 144.44 121.50 C 144.44 122.55 145.30 123.40 146.35 123.40 C 147.41 123.40 148.26 122.55 148.26 121.49 L 148.26 120.48 C 148.26 119.43 147.40 118.57 146.35 118.58 C 145.29 118.58 144.44 119.43 144.44 120.49 Z M 144.44 121.49 L 144.44 122.51 C 144.44 123.56 145.30 124.42 146.35 124.42 C 147.41 124.42 148.26 123.56 148.26 122.51 L 148.26 121.49 C 148.26 120.44 147.41 119.58 146.35 119.58 C 145.30 119.58 144.44 120.44 144.44 121.49 Z M 144.44 122.51 L 144.44 123.52 C 144.44 124.57 145.30 125.43 146.35 125.43 C 147.41 125.43 148.26 124.57 148.26 123.52 L 148.26 122.51 C 148.26 121.45 147.41 120.60 146.35 120.60 C 145.30 120.60 144.44 121.45 144.44 122.51 Z M 144.44 123.52 L 144.44 124.50 C 144.44 125.55 145.30 126.41 146.35 126.41 C 147.41 126.41 148.27 125.55 148.27 124.50 L 148.27 123.52 C 148.27 122.46 147.41 121.60 146.35 121.60 C 145.30 121.60 144.44 122.46 144.44 123.52 Z M 144.44 124.50 L 144.44 125.48 C 144.44 126.54 145.29 127.40 146.35 127.40 C 147.41 127.40 148.27 126.54 148.27 125.48 L 148.27 124.50 C 148.27 123.44 147.41 122.58 146.35 122.58 C 145.29 122.58 144.44 123.44 144.44 124.50 Z M 144.44 125.48 L 144.44 126.47 C 144.44 127.53 145.29 128.39 146.35 128.39 C 147.41 128.39 148.27 127.53 148.27 126.47 L 148.27 125.48 C 148.27 124.42 147.41 123.57 146.35 123.57 C 145.29 123.57 144.44 124.42 144.44 125.48 Z M 144.44 126.47 L 144.44 127.47 C 144.44 128.53 145.29 129.38 146.35 129.38 C 147.41 129.38 148.27 128.53 148.27 127.47 L 148.27 126.47 C 148.27 125.41 147.41 124.55 146.35 124.55 C 145.29 124.55 144.44 125.41 144.44 126.47 Z M 144.43 127.47 L 144.43 128.47 C 144.43 129.53 145.29 130.39 146.35 130.39 C 147.41 130.39 148.27 129.53 148.27 128.47 L 148.27 127.47 C 148.27 126.41 147.41 125.55 146.35 125.55 C 145.29 125.55 144.43 126.41 144.43 127.47 Z M 144.43 128.47 L 144.43 129.48 C 144.43 130.54 145.29 131.40 146.35 131.40 C 147.41 131.40 148.27 130.54 148.27 129.48 L 148.27 128.47 C 148.27 127.41 147.41 126.55 146.35 126.55 C 145.29 126.55 144.43 127.41 144.43 128.47 Z M 144.43 129.48 L 144.43 130.50 C 144.43 131.56 145.29 132.42 146.35 132.42 C 147.41 132.42 148.27 131.56 148.27 130.50 L 148.27 129.48 C 148.27 128.42 147.41 127.56 146.35 127.56 C 145.29 127.56 144.43 128.42 144.43 129.48 Z M 144.43 130.50 L 144.43 131.52 C 144.43 132.58 145.29 133.44 146.35 133.44 C 147.41 133.44 148.27 132.58 148.27 131.52 L 148.27 130.50 C 148.27 129.44 147.41 128.58 146.35 128.58 C 145.29 128.58 144.43 129.44 144.43 130.50 Z M 144.43 131.52 L 144.43 132.53 C 144.43 133.59 145.29 134.45 146.35 134.45 C 147.41 134.45 148.28 133.59 148.28 132.53 L 148.28 131.52 C 148.28 130.46 147.41 129.60 146.35 129.60 C 145.29 129.60 144.43 130.46 144.43 131.52 Z M 144.43 132.53 L 144.43 133.54 C 144.43 134.60 145.29 135.47 146.35 135.47 C 147.41 135.47 148.28 134.60 148.28 133.54 L 148.28 132.53 C 148.28 131.47 147.41 130.61 146.35 130.61 C 145.29 130.61 144.43 131.47 144.43 132.53 Z M 144.43 133.54 L 144.43 134.56 C 144.43 135.62 145.29 136.48 146.35 136.48 C 147.42 136.48 148.28 135.62 148.28 134.56 L 148.28 133.54 C 148.28 132.48 147.42 131.62 146.35 131.62 C 145.29 131.62 144.43 132.48 144.43 133.54 Z M 144.43 134.56 L 144.43 135.57 C 144.43 136.63 145.29 137.49 146.35 137.49 C 147.42 137.49 148.28 136.63 148.28 135.57 L 148.28 134.56 C 148.28 133.49 147.42 132.63 146.35 132.63 C 145.29 132.63 144.43 133.49 144.43 134.56 Z M 144.43 135.57 L 144.43 136.57 C 144.43 137.63 145.29 138.50 146.35 138.50 C 147.42 138.50 148.28 137.63 148.28 136.57 L 148.28 135.57 C 148.28 134.50 147.42 133.64 146.35 133.64 C 145.29 133.64 144.43 134.50 144.43 135.57 Z M 144.43 136.57 L 144.43 137.57 C 144.43 138.63 145.29 139.49 146.35 139.49 C 147.42 139.49 148.28 138.63 148.28 137.57 L 148.28 136.57 C 148.28 135.51 147.42 134.64 146.35 134.64 C 145.29 134.64 144.43 135.51 144.43 136.57 Z M 144.42 137.57 L 144.42 138.55 C 144.42 139.61 145.29 140.47 146.35 140.47 C 147.42 140.47 148.28 139.61 148.28 138.55 L 148.28 137.57 C 148.28 136.50 147.42 135.64 146.35 135.64 C 145.29 135.64 144.42 136.50 144.42 137.57 Z M 144.42 138.55 L 144.42 139.54 C 144.42 140.61 145.29 141.47 146.35 141.47 C 147.42 141.47 148.28 140.61 148.28 139.54 L 148.28 138.55 C 148.28 137.48 147.42 136.62 146.35 136.62 C 145.29 136.62 144.42 137.48 144.42 138.55 Z M 144.42 139.54 L 144.42 140.59 C 144.42 141.65 145.29 142.52 146.35 142.52 C 147.42 142.52 148.28 141.65 148.28 140.59 L 148.28 139.54 C 148.28 138.48 147.42 137.61 146.35 137.61 C 145.29 137.61 144.42 138.48 144.42 139.54 Z M 144.42 140.59 L 144.42 141.61 C 144.42 142.68 145.29 143.54 146.35 143.54 C 147.42 143.54 148.28 142.68 148.28 141.61 L 148.28 140.59 C 148.28 139.52 147.42 138.66 146.35 138.66 C 145.29 138.66 144.42 139.52 144.42 140.59 Z M 144.42 141.61 L 144.42 142.62 C 144.42 143.69 145.29 144.55 146.35 144.55 C 147.42 144.55 148.28 143.69 148.28 142.62 L 148.28 141.61 C 148.28 140.55 147.42 139.68 146.35 139.68 C 145.29 139.68 144.42 140.55 144.42 141.61 Z M 144.42 142.62 L 144.42 143.61 C 144.42 144.68 145.29 145.54 146.35 145.54 C 147.42 145.54 148.28 144.68 148.28 143.61 L 148.28 142.62 C 148.28 141.55 147.42 140.69 146.35 140.69 C 145.29 140.69 144.42 141.55 144.42 142.62 Z M 144.42 143.61 L 144.42 144.59 C 144.42 145.66 145.28 146.52 146.35 146.52 C 147.42 146.52 148.29 145.66 148.29 144.59 L 148.29 143.61 C 148.29 142.54 147.42 141.68 146.35 141.68 C 145.28 141.68 144.42 142.54 144.42 143.61 Z M 144.42 144.59 L 144.42 145.56 C 144.42 146.62 145.28 147.49 146.35 147.49 C 147.42 147.49 148.29 146.62 148.29 145.56 L 148.29 144.59 C 148.29 143.52 147.42 142.65 146.35 142.65 C 145.28 142.65 144.42 143.52 144.42 144.59 Z M 144.42 145.56 L 144.42 146.52 C 144.42 147.59 145.28 148.46 146.35 148.46 C 147.42 148.46 148.29 147.59 148.29 146.52 L 148.29 145.56 C 148.29 144.49 147.42 143.62 146.35 143.62 C 145.28 143.62 144.42 144.49 144.42 145.56 Z M 144.42 146.52 L 144.42 147.55 C 144.42 148.62 145.28 149.48 146.35 149.48 C 147.42 149.48 148.29 148.62 148.29 147.55 L 148.29 146.52 C 148.29 145.46 147.42 144.59 146.35 144.59 C 145.28 144.59 144.42 145.46 144.42 146.52 Z M 144.42 147.55 L 144.42 148.57 C 144.42 149.64 145.28 150.50 146.35 150.50 C 147.42 150.50 148.29 149.64 148.29 148.57 L 148.29 147.55 C 148.29 146.48 147.42 145.61 146.35 145.61 C 145.28 145.61 144.42 146.48 144.42 147.55 Z M 144.42 148.57 L 144.42 149.58 C 144.42 150.65 145.28 151.51 146.35 151.51 C 147.42 151.51 148.29 150.65 148.29 149.58 L 148.29 148.57 C 148.29 147.50 147.42 146.63 146.35 146.63 C 145.28 146.63 144.42 147.50 144.42 148.57 Z M 144.42 149.58 L 144.42 150.58 C 144.42 151.65 145.28 152.51 146.35 152.51 C 147.42 152.51 148.29 151.65 148.29 150.58 L 148.29 149.58 C 148.29 148.51 147.42 147.64 146.35 147.64 C 145.28 147.64 144.42 148.51 144.42 149.58 Z M 144.42 150.58 L 144.42 151.57 C 144.42 152.64 145.28 153.50 146.35 153.50 C 147.42 153.50 148.29 152.64 148.29 151.57 L 148.29 150.58 C 148.29 149.51 147.42 148.64 146.35 148.64 C 145.28 148.64 144.42 149.51 144.42 150.58 Z M 144.42 151.57 L 144.42 152.54 C 144.42 153.61 145.28 154.48 146.35 154.48 C 147.42 154.48 148.29 153.61 148.29 152.54 L 148.29 151.57 C 148.29 150.50 147.42 149.63 146.35 149.63 C 145.28 149.63 144.42 150.50 144.42 151.57 Z M 144.42 152.54 L 144.42 153.54 C 144.42 154.61 145.28 155.47 146.35 155.47 C 147.42 155.47 148.29 154.61 148.29 153.54 L 148.29 152.54 C 148.29 151.48 147.42 150.61 146.35 150.61 C 145.28 150.61 144.42 151.48 144.42 152.54 Z M 144.42 153.54 L 144.42 154.57 C 144.42 155.64 145.28 156.51 146.35 156.51 C 147.42 156.51 148.29 155.64 148.29 154.57 L 148.29 153.54 C 148.29 152.47 147.42 151.60 146.35 151.60 C 145.28 151.60 144.42 152.47 144.42 153.54 Z M 144.42 154.57 L 144.42 155.59 C 144.42 156.66 145.28 157.52 146.35 157.52 C 147.42 157.52 148.29 156.66 148.29 155.59 L 148.29 154.57 C 148.29 153.50 147.42 152.63 146.35 152.63 C 145.28 152.63 144.42 153.50 144.42 154.57 Z M 144.42 155.59 L 144.42 156.59 C 144.42 157.66 145.28 158.53 146.35 158.53 C 147.42 158.53 148.29 157.66 148.29 156.59 L 148.29 155.59 C 148.29 154.52 147.42 153.65 146.35 153.65 C 145.28 153.65 144.42 154.52 144.42 155.59 Z M 144.42 156.59 L 144.42 157.58 C 144.42 158.65 145.28 159.52 146.35 159.52 C 147.42 159.52 148.29 158.65 148.29 157.58 L 148.29 156.59 C 148.29 155.52 147.42 154.65 146.35 154.65 C 145.28 154.65 144.42 155.52 144.42 156.59 Z M 144.41 157.58 L 144.41 158.55 C 144.41 159.62 145.28 160.49 146.35 160.49 C 147.42 160.49 148.29 159.62 148.29 158.55 L 148.29 157.58 C 148.29 156.51 147.42 155.64 146.35 155.64 C 145.28 155.64 144.41 156.51 144.41 157.58 Z M 144.41 158.55 L 144.41 159.53 C 144.41 160.60 145.28 161.46 146.35 161.46 C 147.42 161.46 148.29 160.60 148.29 159.53 L 148.29 158.55 C 148.29 157.48 147.42 156.62 146.35 156.62 C 145.28 156.62 144.41 157.48 144.41 158.55 Z M 144.41 159.53 L 144.41 160.56 C 144.41 161.63 145.28 162.50 146.35 162.50 C 147.42 162.50 148.29 161.63 148.29 160.56 L 148.29 159.53 C 148.29 158.46 147.42 157.59 146.35 157.59 C 145.28 157.59 144.41 158.46 144.41 159.53 Z M 144.41 160.56 L 144.41 161.59 C 144.41 162.66 145.28 163.52 146.35 163.52 C 147.42 163.52 148.29 162.66 148.29 161.59 L 148.29 160.56 C 148.29 159.49 147.42 158.63 146.35 158.63 C 145.28 158.63 144.41 159.49 144.41 160.56 Z M 144.41 161.59 L 144.41 162.59 C 144.41 163.66 145.28 164.53 146.35 164.53 C 147.42 164.53 148.29 163.66 148.29 162.59 L 148.29 161.59 C 148.29 160.52 147.42 159.65 146.35 159.65 C 145.28 159.65 144.41 160.52 144.41 161.59 Z M 144.41 162.59 L 144.41 163.58 C 144.41 164.65 145.28 165.52 146.35 165.52 C 147.42 165.52 148.29 164.65 148.29 163.58 L 148.29 162.59 C 148.29 161.52 147.42 160.65 146.35 160.65 C 145.28 160.65 144.41 161.52 144.41 162.59 Z M 144.41 163.58 L 144.41 164.55 C 144.41 165.62 145.28 166.49 146.35 166.49 C 147.42 166.49 148.29 165.62 148.29 164.55 L 148.29 163.58 C 148.29 162.51 147.42 161.64 146.35 161.64 C 145.28 161.64 144.41 162.51 144.41 163.58 Z M 144.41 164.55 L 144.41 165.53 C 144.41 166.61 145.28 167.47 146.35 167.47 C 147.42 167.47 148.29 166.61 148.29 165.53 L 148.29 164.55 C 148.29 163.48 147.42 162.61 146.35 162.61 C 145.28 162.61 144.41 163.48 144.41 164.55 Z M 144.41 165.53 L 144.41 166.55 C 144.41 167.62 145.28 168.49 146.35 168.49 C 147.42 168.49 148.29 167.62 148.29 166.55 L 148.29 165.53 C 148.29 164.46 147.42 163.60 146.35 163.60 C 145.28 163.60 144.41 164.46 144.41 165.53 Z M 144.41 166.55 L 144.41 167.55 C 144.41 168.62 145.28 169.49 146.35 169.49 C 147.42 169.49 148.29 168.62 148.29 167.55 L 148.29 166.55 C 148.29 165.48 147.42 164.61 146.35 164.61 C 145.28 164.61 144.41 165.48 144.41 166.55 Z M 144.41 167.55 L 144.41 168.54 C 144.41 169.61 145.28 170.48 146.35 170.48 C 147.42 170.48 148.29 169.61 148.29 168.54 L 148.29 167.55 C 148.29 166.48 147.42 165.61 146.35 165.61 C 145.28 165.61 144.41 166.48 144.41 167.55 Z M 144.41 168.54 L 144.41 169.53 C 144.41 170.60 145.28 171.47 146.35 171.47 C 147.42 171.47 148.29 170.60 148.29 169.53 L 148.29 168.54 C 148.29 167.47 147.42 166.60 146.35 166.60 C 145.28 166.60 144.41 167.47 144.41 168.54 Z M 144.42 169.53 L 144.42 170.51 C 144.42 171.58 145.28 172.45 146.35 172.45 C 147.42 172.45 148.29 171.58 148.29 170.51 L 148.29 169.53 C 148.29 168.46 147.42 167.59 146.35 167.59 C 145.28 167.59 144.42 168.46 144.42 169.53 Z M 144.42 170.51 L 144.42 171.48 C 144.42 172.55 145.28 173.42 146.35 173.42 C 147.42 173.42 148.29 172.55 148.29 171.48 L 148.29 170.51 C 148.29 169.44 147.42 168.58 146.35 168.58 C 145.28 168.58 144.42 169.44 144.42 170.51 Z M 144.42 171.48 L 144.42 172.46 C 144.42 173.53 145.28 174.39 146.35 174.39 C 147.42 174.39 148.29 173.53 148.29 172.46 L 148.29 171.48 C 148.29 170.41 147.42 169.54 146.35 169.54 C 145.28 169.54 144.42 170.41 144.42 171.48 Z M 144.42 172.46 L 144.42 173.45 C 144.42 174.52 145.28 175.39 146.35 175.39 C 147.42 175.39 148.29 174.52 148.29 173.45 L 148.29 172.46 C 148.29 171.39 147.42 170.52 146.35 170.52 C 145.28 170.52 144.42 171.39 144.42 172.46 Z M 144.42 173.45 L 144.42 174.47 C 144.42 175.54 145.28 176.41 146.35 176.41 C 147.42 176.41 148.29 175.54 148.29 174.47 L 148.29 173.45 C 148.29 172.38 147.42 171.52 146.35 171.52 C 145.28 171.52 144.42 172.38 144.42 173.45 Z M 144.42 174.47 L 144.42 175.51 C 144.42 176.58 145.28 177.45 146.35 177.45 C 147.42 177.45 148.29 176.58 148.29 175.51 L 148.29 174.47 C 148.29 173.40 147.42 172.53 146.35 172.53 C 145.28 172.53 144.42 173.40 144.42 174.47 Z M 144.42 175.51 L 144.42 176.49 C 144.42 177.56 145.28 178.43 146.35 178.43 C 147.42 178.43 148.29 177.56 148.29 176.50 L 148.29 175.51 C 148.29 174.44 147.42 173.58 146.35 173.58 C 145.28 173.57 144.42 174.44 144.42 175.51 Z M 144.42 176.49 L 144.41 177.47 C 144.41 178.54 145.27 179.41 146.34 179.41 C 147.41 179.42 148.28 178.56 148.28 177.49 L 148.29 176.50 C 148.29 175.43 147.43 174.56 146.36 174.56 C 145.29 174.55 144.42 175.42 144.42 176.49 Z M 144.41 177.45 L 144.40 178.45 C 144.39 179.52 145.24 180.40 146.31 180.41 C 147.37 180.43 148.25 179.57 148.27 178.50 L 148.28 177.50 C 148.30 176.44 147.44 175.56 146.37 175.54 C 145.31 175.53 144.43 176.38 144.41 177.45 Z M 144.40 178.42 L 144.37 179.43 C 144.34 180.50 145.18 181.39 146.25 181.42 C 147.32 181.45 148.21 180.61 148.24 179.54 L 148.27 178.53 C 148.30 177.46 147.45 176.57 146.39 176.54 C 145.32 176.52 144.43 177.36 144.40 178.42 Z M 144.38 179.40 L 144.33 180.41 C 144.28 181.48 145.10 182.38 146.17 182.43 C 147.23 182.48 148.14 181.66 148.19 180.59 L 148.24 179.58 C 148.29 178.51 147.46 177.61 146.40 177.56 C 145.33 177.51 144.43 178.33 144.38 179.40 Z M 144.33 180.36 L 144.26 181.38 C 144.18 182.44 144.98 183.36 146.05 183.44 C 147.11 183.52 148.04 182.72 148.11 181.65 L 148.18 180.64 C 148.26 179.57 147.46 178.65 146.39 178.57 C 145.33 178.50 144.41 179.30 144.33 180.36 Z M 144.27 181.31 L 144.14 182.47 C 144.03 183.53 144.80 184.48 145.86 184.59 C 146.92 184.70 147.87 183.93 147.98 182.87 L 148.11 181.72 C 148.22 180.66 147.45 179.71 146.39 179.59 C 145.33 179.48 144.38 180.25 144.27 181.31 Z M 144.16 182.36 L 143.98 183.50 C 143.81 184.55 144.52 185.54 145.57 185.71 C 146.62 185.88 147.61 185.17 147.78 184.11 L 147.97 182.98 C 148.14 181.93 147.43 180.94 146.37 180.77 C 145.32 180.60 144.33 181.31 144.16 182.36 Z M 144.01 183.32 L 143.75 184.33 C 143.48 185.36 144.10 186.42 145.13 186.68 C 146.16 186.95 147.21 186.34 147.48 185.30 L 147.75 184.29 C 148.01 183.26 147.40 182.21 146.37 181.94 C 145.34 181.67 144.28 182.29 144.01 183.32 Z M 143.85 184.04 L 143.49 184.88 C 143.06 185.85 143.50 186.99 144.48 187.41 C 145.45 187.84 146.59 187.40 147.01 186.43 L 147.38 185.59 C 147.81 184.62 147.36 183.48 146.39 183.05 C 145.42 182.63 144.28 183.07 143.85 184.04 Z M 143.77 184.42 L 143.28 185.01 C 142.60 185.83 142.72 187.05 143.54 187.72 C 144.36 188.40 145.57 188.29 146.25 187.47 L 146.73 186.88 C 147.41 186.06 147.30 184.84 146.48 184.17 C 145.66 183.49 144.44 183.60 143.77 184.42 Z M 143.99 184.48 L 143.29 184.78 C 142.32 185.21 141.88 186.34 142.30 187.32 C 142.73 188.29 143.86 188.73 144.84 188.31 L 145.54 188.00 C 146.51 187.58 146.95 186.44 146.53 185.47 C 146.10 184.49 144.97 184.05 143.99 184.48 Z M 144.16 184.62 L 143.29 184.58 C 142.23 184.54 141.33 185.36 141.28 186.42 C 141.24 187.48 142.06 188.38 143.12 188.42 L 143.98 188.46 C 145.04 188.51 145.94 187.69 145.99 186.63 C 146.04 185.57 145.22 184.67 144.16 184.62 Z M 143.83 184.69 L 142.89 184.36 C 141.88 184.01 140.79 184.54 140.44 185.55 C 140.09 186.55 140.62 187.64 141.63 187.99 L 142.58 188.32 C 143.58 188.67 144.67 188.14 145.02 187.13 C 145.37 186.13 144.84 185.04 143.83 184.69 Z M 143.19 184.50 L 142.21 183.95 C 141.29 183.43 140.12 183.76 139.60 184.69 C 139.08 185.61 139.41 186.78 140.34 187.30 L 141.32 187.85 C 142.24 188.37 143.41 188.04 143.93 187.11 C 144.45 186.19 144.12 185.02 143.19 184.50 Z M 142.40 184.08 L 141.51 183.43 C 140.65 182.81 139.46 182.99 138.83 183.85 C 138.21 184.71 138.40 185.90 139.26 186.53 L 140.15 187.18 C 141.00 187.80 142.20 187.61 142.82 186.75 C 143.45 185.90 143.26 184.70 142.40 184.08 Z M 141.64 183.53 L 140.92 182.91 C 140.12 182.22 138.92 182.30 138.22 183.10 C 137.53 183.90 137.61 185.10 138.41 185.80 L 139.13 186.42 C 139.93 187.11 141.13 187.03 141.83 186.23 C 142.52 185.43 142.44 184.23 141.64 183.53 Z M 141.02 183.01 L 140.34 182.32 C 139.59 181.58 138.38 181.57 137.64 182.32 C 136.89 183.06 136.89 184.27 137.63 185.02 L 138.32 185.70 C 139.06 186.45 140.27 186.45 141.02 185.71 C 141.76 184.96 141.76 183.75 141.02 183.01 Z M 140.42 182.41 L 139.76 181.67 C 139.07 180.88 137.86 180.80 137.07 181.49 C 136.28 182.19 136.20 183.39 136.90 184.18 L 137.55 184.93 C 138.25 185.72 139.45 185.80 140.24 185.10 C 141.03 184.41 141.11 183.20 140.42 182.41 Z M 139.82 181.75 L 139.19 180.94 C 138.54 180.12 137.34 179.98 136.52 180.63 C 135.69 181.28 135.55 182.47 136.20 183.30 L 136.84 184.10 C 137.49 184.93 138.68 185.07 139.51 184.42 C 140.33 183.77 140.47 182.57 139.82 181.75 Z M 139.24 181.01 L 138.62 180.15 C 138.01 179.30 136.82 179.10 135.97 179.72 C 135.12 180.33 134.92 181.51 135.54 182.36 L 136.15 183.23 C 136.76 184.08 137.95 184.27 138.80 183.66 C 139.65 183.05 139.85 181.87 139.24 181.01 Z M 138.65 180.21 L 138.10 179.37 C 137.52 178.50 136.34 178.27 135.47 178.85 C 134.60 179.43 134.37 180.60 134.95 181.47 L 135.50 182.31 C 136.08 183.18 137.26 183.41 138.13 182.83 C 139.00 182.26 139.23 181.08 138.65 180.21 Z M 138.12 179.42 L 137.59 178.58 C 137.04 177.70 135.87 177.43 134.99 177.98 C 134.11 178.54 133.84 179.70 134.40 180.59 L 134.92 181.43 C 135.48 182.31 136.64 182.58 137.53 182.02 C 138.41 181.47 138.68 180.30 138.12 179.42 Z M 137.61 178.62 L 137.09 177.75 C 136.56 176.86 135.40 176.57 134.51 177.10 C 133.62 177.64 133.33 178.79 133.86 179.68 L 134.38 180.55 C 134.91 181.44 136.07 181.73 136.96 181.20 C 137.85 180.67 138.14 179.51 137.61 178.62 Z M 137.10 177.79 L 136.60 176.90 C 136.08 176.00 134.94 175.69 134.04 176.21 C 133.14 176.72 132.83 177.87 133.35 178.77 L 133.85 179.65 C 134.37 180.55 135.51 180.86 136.41 180.34 C 137.31 179.83 137.62 178.68 137.10 177.79 Z M 136.61 176.93 L 136.12 176.04 C 135.62 175.14 134.48 174.81 133.58 175.31 C 132.67 175.81 132.35 176.95 132.85 177.85 L 133.34 178.74 C 133.84 179.64 134.97 179.97 135.88 179.47 C 136.78 178.97 137.11 177.83 136.61 176.93 Z M 136.12 176.07 L 135.65 175.19 C 135.16 174.28 134.04 173.94 133.13 174.42 C 132.22 174.91 131.88 176.04 132.37 176.95 L 132.84 177.83 C 133.33 178.73 134.45 179.08 135.36 178.59 C 136.27 178.10 136.61 176.98 136.12 176.07 Z M 135.65 175.21 L 135.19 174.31 C 134.71 173.40 133.59 173.05 132.68 173.52 C 131.78 174.00 131.42 175.12 131.90 176.03 L 132.36 176.92 C 132.84 177.83 133.96 178.18 134.87 177.71 C 135.78 177.24 136.13 176.12 135.65 175.21 Z M 135.18 174.33 L 134.71 173.40 C 134.25 172.50 133.14 172.14 132.23 172.60 C 131.33 173.06 130.96 174.17 131.43 175.08 L 131.90 176.00 C 132.36 176.91 133.47 177.27 134.38 176.81 C 135.28 176.35 135.64 175.24 135.18 174.33 Z M 134.71 173.43 L 134.25 172.52 C 133.80 171.61 132.71 171.24 131.80 171.69 C 130.90 172.14 130.53 173.24 130.98 174.14 L 131.43 175.05 C 131.88 175.96 132.98 176.33 133.88 175.88 C 134.79 175.43 135.15 174.33 134.71 173.43 Z M 134.25 172.54 L 133.82 171.65 C 133.38 170.74 132.29 170.37 131.39 170.80 C 130.49 171.24 130.11 172.33 130.55 173.23 L 130.98 174.12 C 131.42 175.02 132.51 175.40 133.41 174.96 C 134.31 174.53 134.69 173.44 134.25 172.54 Z M 133.81 171.67 L 133.39 170.78 C 132.96 169.89 131.89 169.50 130.99 169.93 C 130.10 170.35 129.71 171.43 130.14 172.32 L 130.56 173.21 C 130.98 174.10 132.06 174.49 132.95 174.06 C 133.85 173.64 134.23 172.56 133.81 171.67 Z M 133.38 170.80 L 132.98 169.93 C 132.56 169.03 131.50 168.64 130.61 169.06 C 129.71 169.47 129.32 170.53 129.74 171.43 L 130.15 172.30 C 130.56 173.20 131.62 173.59 132.52 173.17 C 133.41 172.76 133.80 171.70 133.38 170.80 Z M 132.97 169.94 L 132.56 169.05 C 132.15 168.16 131.10 167.77 130.22 168.17 C 129.33 168.58 128.93 169.63 129.34 170.52 L 129.75 171.41 C 130.15 172.30 131.20 172.69 132.09 172.29 C 132.98 171.88 133.37 170.83 132.97 169.94 Z M 132.55 169.06 L 132.14 168.15 C 131.75 167.27 130.71 166.87 129.82 167.27 C 128.94 167.66 128.54 168.70 128.94 169.59 L 129.35 170.50 C 129.74 171.38 130.78 171.78 131.67 171.38 C 132.55 170.99 132.95 169.95 132.55 169.06 Z M 132.14 168.17 L 131.73 167.26 C 131.35 166.38 130.32 165.98 129.44 166.36 C 128.56 166.75 128.16 167.78 128.55 168.66 L 128.95 169.57 C 129.33 170.45 130.36 170.85 131.24 170.46 C 132.12 170.08 132.52 169.05 132.14 168.17 Z M 131.73 167.27 L 131.33 166.36 C 130.96 165.48 129.94 165.08 129.06 165.45 C 128.19 165.83 127.78 166.84 128.16 167.72 L 128.55 168.64 C 128.93 169.51 129.95 169.92 130.82 169.54 C 131.70 169.17 132.10 168.15 131.73 167.27 Z M 131.32 166.38 L 130.94 165.45 C 130.57 164.58 129.57 164.17 128.69 164.54 C 127.82 164.90 127.41 165.91 127.78 166.78 L 128.17 167.70 C 128.53 168.57 129.54 168.98 130.41 168.62 C 131.28 168.25 131.69 167.25 131.32 166.38 Z M 130.93 165.47 L 130.55 164.54 C 130.19 163.68 129.20 163.26 128.33 163.62 C 127.47 163.97 127.05 164.96 127.41 165.83 L 127.79 166.76 C 128.14 167.63 129.13 168.04 130.00 167.69 C 130.87 167.33 131.29 166.34 130.93 165.47 Z M 130.54 164.56 L 130.19 163.69 C 129.85 162.83 128.87 162.41 128.00 162.75 C 127.14 163.10 126.72 164.08 127.07 164.94 L 127.41 165.81 C 127.76 166.68 128.74 167.10 129.60 166.75 C 130.47 166.41 130.89 165.43 130.54 164.56 Z M 130.19 163.71 L 129.84 162.83 C 129.50 161.97 128.53 161.54 127.67 161.88 C 126.81 162.22 126.39 163.19 126.73 164.05 L 127.07 164.93 C 127.41 165.79 128.38 166.21 129.24 165.87 C 130.10 165.54 130.52 164.57 130.19 163.71 Z M 129.83 162.84 L 129.48 161.93 C 129.15 161.08 128.19 160.65 127.34 160.98 C 126.48 161.31 126.06 162.27 126.39 163.13 L 126.74 164.03 C 127.07 164.89 128.03 165.31 128.88 164.98 C 129.73 164.65 130.16 163.69 129.83 162.84 Z M 129.47 161.94 L 129.11 161.00 C 128.78 160.16 127.83 159.73 126.98 160.06 C 126.14 160.39 125.71 161.34 126.04 162.18 L 126.40 163.12 C 126.72 163.97 127.68 164.39 128.52 164.06 C 129.37 163.74 129.79 162.79 129.47 161.94 Z M 129.10 161.01 L 128.72 160.04 C 128.40 159.20 127.46 158.78 126.62 159.10 C 125.78 159.42 125.36 160.36 125.68 161.20 L 126.05 162.18 C 126.37 163.02 127.32 163.44 128.16 163.12 C 129.00 162.79 129.42 161.85 129.10 161.01 Z M 128.71 160.04 L 128.31 159.02 C 127.99 158.18 127.06 157.77 126.23 158.09 C 125.39 158.41 124.98 159.34 125.30 160.18 L 125.69 161.20 C 126.01 162.03 126.95 162.45 127.78 162.13 C 128.61 161.81 129.03 160.87 128.71 160.04 Z M 128.30 159.02 L 127.97 158.16 C 127.65 157.33 126.72 156.92 125.89 157.24 C 125.07 157.56 124.66 158.49 124.98 159.32 L 125.31 160.18 C 125.63 161.00 126.56 161.41 127.39 161.09 C 128.21 160.77 128.62 159.84 128.30 159.02 Z M 127.96 158.16 L 127.62 157.27 C 127.30 156.44 126.37 156.03 125.55 156.35 C 124.72 156.68 124.32 157.60 124.64 158.43 L 124.98 159.32 C 125.30 160.14 126.23 160.55 127.05 160.23 C 127.88 159.91 128.28 158.98 127.96 158.16 Z M 127.61 157.27 L 127.25 156.35 C 126.93 155.53 126.01 155.12 125.19 155.45 C 124.37 155.77 123.96 156.69 124.28 157.51 L 124.64 158.43 C 124.96 159.25 125.89 159.65 126.71 159.33 C 127.53 159.01 127.93 158.09 127.61 157.27 Z M 127.25 156.35 L 126.88 155.41 C 126.56 154.60 125.64 154.19 124.82 154.51 C 124.01 154.83 123.60 155.75 123.92 156.57 L 124.29 157.51 C 124.61 158.32 125.53 158.73 126.35 158.41 C 127.16 158.09 127.57 157.17 127.25 156.35 Z M 126.87 155.41 L 126.50 154.46 C 126.18 153.65 125.26 153.25 124.45 153.57 C 123.64 153.88 123.24 154.80 123.56 155.62 L 123.93 156.57 C 124.25 157.38 125.17 157.78 125.98 157.46 C 126.79 157.14 127.19 156.23 126.87 155.41 Z M 126.49 154.46 L 126.11 153.49 C 125.79 152.69 124.88 152.29 124.07 152.61 C 123.26 152.92 122.86 153.84 123.18 154.65 L 123.56 155.61 C 123.88 156.42 124.79 156.82 125.60 156.50 C 126.41 156.18 126.81 155.27 126.49 154.46 Z M 126.11 153.50 L 125.72 152.52 C 125.41 151.72 124.49 151.32 123.69 151.64 C 122.88 151.96 122.49 152.87 122.80 153.67 L 123.19 154.65 C 123.50 155.45 124.42 155.85 125.22 155.53 C 126.03 155.21 126.42 154.30 126.11 153.50 Z M 125.72 152.52 L 125.54 152.07 C 125.22 151.26 124.31 150.87 123.51 151.19 C 122.71 151.50 122.31 152.41 122.63 153.21 L 122.81 153.67 C 123.12 154.48 124.03 154.87 124.84 154.55 C 125.64 154.24 126.04 153.33 125.72 152.52 Z"
      fill="black"
      fill-rule="nonzero" /><path d="M 97.55 136.42 L 98.21 135.73 C 98.87 135.04 98.85 133.95 98.16 133.29 C 97.47 132.63 96.38 132.65 95.72 133.34 L 95.06 134.03 C 94.40 134.72 94.42 135.81 95.11 136.47 C 95.80 137.13 96.89 137.10 97.55 136.42 Z M 98.20 135.73 L 98.87 135.04 C 99.53 134.36 99.51 133.27 98.83 132.61 C 98.15 131.95 97.06 131.96 96.40 132.64 L 95.73 133.33 C 95.07 134.01 95.08 135.10 95.76 135.77 C 96.44 136.43 97.53 136.41 98.20 135.73 Z M 98.85 135.06 L 99.53 134.37 C 100.20 133.71 100.20 132.62 99.54 131.95 C 98.87 131.28 97.78 131.27 97.11 131.94 L 96.42 132.63 C 95.75 133.30 95.75 134.39 96.42 135.06 C 97.09 135.73 98.17 135.73 98.85 135.06 Z M 99.50 134.40 L 100.21 133.72 C 100.90 133.06 100.92 131.98 100.27 131.30 C 99.62 130.61 98.53 130.59 97.85 131.24 L 97.14 131.92 C 96.45 132.57 96.43 133.66 97.08 134.34 C 97.74 135.03 98.82 135.05 99.50 134.40 Z M 100.18 133.75 L 100.92 133.07 C 101.62 132.44 101.68 131.36 101.04 130.66 C 100.41 129.96 99.33 129.91 98.63 130.54 L 97.89 131.21 C 97.19 131.84 97.13 132.92 97.76 133.62 C 98.40 134.32 99.48 134.38 100.18 133.75 Z M 100.88 133.11 L 101.66 132.44 C 102.38 131.84 102.47 130.76 101.86 130.04 C 101.26 129.32 100.18 129.23 99.46 129.84 L 98.68 130.50 C 97.96 131.11 97.87 132.19 98.48 132.91 C 99.08 133.63 100.16 133.72 100.88 133.11 Z M 101.61 132.48 L 102.45 131.83 C 103.19 131.25 103.32 130.18 102.74 129.44 C 102.16 128.70 101.09 128.57 100.35 129.15 L 99.52 129.80 C 98.78 130.38 98.65 131.45 99.22 132.19 C 99.80 132.93 100.87 133.06 101.61 132.48 Z M 102.39 131.86 L 103.18 131.30 C 103.94 130.75 104.11 129.69 103.56 128.93 C 103.01 128.17 101.95 128.00 101.19 128.55 L 100.41 129.11 C 99.65 129.66 99.48 130.72 100.02 131.48 C 100.57 132.24 101.63 132.41 102.39 131.86 Z M 103.13 131.33 L 103.90 130.81 C 104.67 130.29 104.88 129.23 104.35 128.46 C 103.83 127.68 102.78 127.48 102.00 128.00 L 101.23 128.52 C 100.46 129.04 100.25 130.09 100.78 130.87 C 101.30 131.65 102.35 131.85 103.13 131.33 Z M 103.86 130.84 L 104.66 130.33 C 105.45 129.82 105.68 128.78 105.18 127.99 C 104.68 127.20 103.63 126.96 102.84 127.47 L 102.04 127.97 C 101.25 128.48 101.01 129.52 101.52 130.31 C 102.02 131.10 103.07 131.34 103.86 130.84 Z M 104.62 130.35 L 105.46 129.85 C 106.26 129.36 106.52 128.32 106.03 127.52 C 105.55 126.72 104.51 126.46 103.71 126.94 L 102.87 127.44 C 102.07 127.93 101.81 128.97 102.30 129.77 C 102.78 130.57 103.82 130.83 104.62 130.35 Z M 105.43 129.86 L 106.29 129.37 C 107.10 128.90 107.38 127.87 106.92 127.05 C 106.45 126.24 105.42 125.96 104.60 126.43 L 103.74 126.92 C 102.93 127.39 102.65 128.43 103.11 129.24 C 103.58 130.05 104.61 130.33 105.43 129.86 Z M 106.26 129.38 L 107.16 128.89 C 107.98 128.44 108.27 127.41 107.82 126.59 C 107.37 125.77 106.34 125.47 105.53 125.92 L 104.63 126.41 C 103.81 126.86 103.51 127.89 103.96 128.71 C 104.41 129.53 105.44 129.83 106.26 129.38 Z M 107.13 128.90 L 108.05 128.42 C 108.88 127.98 109.19 126.95 108.75 126.13 C 108.32 125.30 107.29 124.99 106.47 125.42 L 105.55 125.91 C 104.72 126.35 104.41 127.37 104.85 128.20 C 105.28 129.02 106.31 129.34 107.13 128.90 Z M 108.03 128.43 L 108.97 127.94 C 109.80 127.52 110.13 126.50 109.71 125.67 C 109.28 124.84 108.26 124.51 107.43 124.93 L 106.49 125.41 C 105.66 125.84 105.33 126.86 105.75 127.69 C 106.18 128.52 107.20 128.85 108.03 128.43 Z M 108.95 127.95 L 109.92 127.47 C 110.75 127.06 111.09 126.04 110.67 125.21 C 110.26 124.37 109.24 124.03 108.41 124.45 L 107.45 124.92 C 106.61 125.34 106.27 126.36 106.69 127.19 C 107.10 128.03 108.12 128.37 108.95 127.95 Z M 109.90 127.48 L 110.86 127.02 C 111.70 126.61 112.05 125.60 111.64 124.76 C 111.23 123.92 110.22 123.57 109.38 123.97 L 108.42 124.44 C 107.58 124.85 107.23 125.86 107.64 126.70 C 108.05 127.54 109.06 127.89 109.90 127.48 Z M 110.84 127.02 L 111.79 126.57 C 112.64 126.17 113.00 125.16 112.60 124.32 C 112.20 123.47 111.19 123.11 110.34 123.51 L 109.39 123.97 C 108.54 124.37 108.19 125.38 108.59 126.22 C 108.99 127.07 110.00 127.43 110.84 127.02 Z M 111.78 126.58 L 112.74 126.14 C 113.59 125.74 113.96 124.73 113.56 123.88 C 113.17 123.04 112.16 122.67 111.31 123.06 L 110.35 123.50 C 109.50 123.90 109.14 124.91 109.53 125.76 C 109.92 126.61 110.93 126.97 111.78 126.58 Z M 112.72 126.15 L 113.68 125.71 C 114.53 125.33 114.91 124.32 114.53 123.47 C 114.14 122.61 113.14 122.23 112.28 122.62 L 111.33 123.05 C 110.47 123.44 110.09 124.44 110.48 125.30 C 110.86 126.15 111.87 126.53 112.72 126.15 Z M 113.66 125.72 L 114.61 125.31 C 115.47 124.93 115.86 123.93 115.49 123.07 C 115.11 122.21 114.11 121.82 113.25 122.19 L 112.30 122.61 C 111.44 122.99 111.05 123.99 111.42 124.85 C 111.80 125.71 112.80 126.10 113.66 125.72 Z M 114.59 125.32 L 115.53 124.92 C 116.39 124.56 116.80 123.56 116.43 122.69 C 116.07 121.83 115.07 121.42 114.20 121.79 L 113.27 122.18 C 112.40 122.55 111.99 123.55 112.36 124.41 C 112.73 125.28 113.73 125.69 114.59 125.32 Z M 115.51 124.93 L 116.42 124.56 C 117.30 124.21 117.71 123.21 117.36 122.34 C 117.01 121.47 116.01 121.05 115.14 121.40 L 114.22 121.78 C 113.35 122.13 112.93 123.13 113.28 124.00 C 113.64 124.87 114.63 125.29 115.51 124.93 Z M 116.40 124.57 L 117.29 124.23 C 118.17 123.89 118.60 122.90 118.26 122.02 C 117.92 121.14 116.93 120.70 116.05 121.04 L 115.16 121.39 C 114.28 121.73 113.85 122.72 114.19 123.60 C 114.53 124.48 115.52 124.92 116.40 124.57 Z M 117.26 124.24 L 118.12 123.93 C 119.00 123.60 119.46 122.62 119.14 121.73 C 118.81 120.85 117.83 120.39 116.94 120.72 L 116.08 121.03 C 115.20 121.36 114.74 122.34 115.06 123.23 C 115.39 124.11 116.37 124.57 117.26 124.24 Z M 118.08 123.95 L 119.02 123.63 C 119.92 123.32 120.40 122.35 120.10 121.45 C 119.79 120.56 118.82 120.07 117.92 120.38 L 116.98 120.70 C 116.08 121.00 115.60 121.98 115.91 122.87 C 116.21 123.77 117.18 124.25 118.08 123.95 Z M 118.96 123.66 L 120.23 123.29 C 121.14 123.02 121.67 122.06 121.40 121.15 C 121.13 120.23 120.17 119.71 119.26 119.97 L 117.99 120.34 C 117.07 120.61 116.55 121.57 116.81 122.49 C 117.08 123.40 118.04 123.93 118.96 123.66 Z M 120.11 123.34 L 121.24 123.10 C 122.18 122.90 122.79 121.97 122.58 121.03 C 122.38 120.08 121.45 119.48 120.51 119.68 L 119.38 119.92 C 118.43 120.12 117.83 121.05 118.03 122.00 C 118.23 122.94 119.16 123.55 120.11 123.34 Z M 121.04 123.15 L 122.03 123.06 C 123.00 122.97 123.71 122.10 123.62 121.13 C 123.53 120.15 122.66 119.44 121.69 119.53 L 120.70 119.63 C 119.73 119.72 119.02 120.59 119.11 121.56 C 119.20 122.53 120.07 123.25 121.04 123.15 Z M 121.70 123.08 L 122.53 123.15 C 123.51 123.24 124.38 122.51 124.47 121.52 C 124.55 120.54 123.82 119.67 122.84 119.58 L 122.01 119.51 C 121.03 119.42 120.16 120.16 120.07 121.14 C 119.99 122.13 120.72 123.00 121.70 123.08 Z M 122.02 123.06 L 122.67 123.31 C 123.60 123.68 124.66 123.22 125.02 122.29 C 125.39 121.36 124.93 120.30 124.00 119.94 L 123.35 119.68 C 122.41 119.31 121.36 119.77 120.99 120.70 C 120.63 121.64 121.09 122.69 122.02 123.06 Z M 122.03 122.91 L 122.53 123.42 C 123.24 124.14 124.40 124.15 125.12 123.43 C 125.84 122.72 125.85 121.56 125.14 120.84 L 124.64 120.34 C 123.93 119.62 122.77 119.61 122.05 120.32 C 121.33 121.03 121.32 122.19 122.03 122.91 Z M 122.12 122.80 L 122.41 123.56 C 122.78 124.51 123.85 124.98 124.80 124.61 C 125.75 124.24 126.22 123.17 125.85 122.22 L 125.55 121.46 C 125.18 120.51 124.11 120.04 123.17 120.41 C 122.22 120.78 121.75 121.85 122.12 122.80 Z M 122.29 123.06 L 122.37 124.01 C 122.46 125.03 123.36 125.78 124.38 125.69 C 125.40 125.59 126.15 124.69 126.06 123.67 L 125.98 122.73 C 125.89 121.71 124.99 120.96 123.97 121.05 C 122.95 121.14 122.19 122.04 122.29 123.06 Z M 122.36 123.66 L 122.26 124.74 C 122.16 125.76 122.90 126.67 123.93 126.77 C 124.95 126.87 125.86 126.13 125.96 125.10 L 126.07 124.02 C 126.17 123.00 125.42 122.09 124.40 121.99 C 123.38 121.89 122.46 122.63 122.36 123.66 Z M 122.29 124.48 L 122.01 125.64 C 121.77 126.65 122.39 127.66 123.39 127.90 C 124.40 128.14 125.41 127.52 125.65 126.51 L 125.93 125.36 C 126.17 124.35 125.55 123.34 124.55 123.10 C 123.54 122.86 122.53 123.48 122.29 124.48 Z M 122.06 125.46 L 121.73 126.39 C 121.39 127.37 121.90 128.44 122.88 128.79 C 123.86 129.13 124.94 128.61 125.28 127.63 L 125.61 126.70 C 125.95 125.72 125.43 124.65 124.45 124.30 C 123.47 123.96 122.40 124.48 122.06 125.46 Z M 121.78 126.27 L 121.42 127.10 C 121.01 128.05 121.45 129.16 122.40 129.57 C 123.36 129.98 124.46 129.54 124.87 128.59 L 125.23 127.76 C 125.65 126.80 125.21 125.70 124.25 125.28 C 123.30 124.87 122.19 125.31 121.78 126.27 Z M 121.46 127.01 L 121.04 127.85 C 120.58 128.78 120.96 129.91 121.89 130.38 C 122.82 130.84 123.95 130.46 124.42 129.53 L 124.83 128.68 C 125.30 127.75 124.92 126.62 123.98 126.16 C 123.05 125.69 121.92 126.08 121.46 127.01 Z M 121.07 127.78 L 120.60 128.64 C 120.10 129.55 120.44 130.70 121.35 131.20 C 122.26 131.70 123.41 131.37 123.91 130.46 L 124.38 129.60 C 124.88 128.68 124.55 127.54 123.64 127.04 C 122.72 126.53 121.58 126.87 121.07 127.78 Z M 120.63 128.59 L 120.11 129.47 C 119.58 130.37 119.88 131.53 120.78 132.06 C 121.68 132.58 122.83 132.29 123.36 131.39 L 123.88 130.51 C 124.41 129.61 124.11 128.45 123.21 127.92 C 122.32 127.39 121.16 127.69 120.63 128.59 Z M 120.13 129.43 L 119.57 130.34 C 119.02 131.23 119.29 132.39 120.18 132.94 C 121.07 133.49 122.23 133.22 122.78 132.33 L 123.34 131.42 C 123.89 130.54 123.62 129.37 122.73 128.82 C 121.84 128.27 120.68 128.55 120.13 129.43 Z M 119.58 130.32 L 118.99 131.25 C 118.42 132.13 118.68 133.30 119.56 133.86 C 120.44 134.42 121.61 134.17 122.18 133.29 L 122.77 132.35 C 123.33 131.47 123.07 130.30 122.19 129.74 C 121.31 129.18 120.14 129.44 119.58 130.32 Z M 118.99 131.24 L 118.45 132.08 C 117.88 132.96 118.14 134.13 119.01 134.70 C 119.89 135.26 121.06 135.01 121.63 134.13 L 122.17 133.29 C 122.74 132.42 122.48 131.25 121.61 130.68 C 120.73 130.11 119.56 130.37 118.99 131.24 Z M 118.45 132.08 L 117.95 132.85 C 117.38 133.73 117.63 134.90 118.51 135.47 C 119.38 136.04 120.56 135.79 121.12 134.91 L 121.63 134.14 C 122.20 133.26 121.95 132.09 121.07 131.52 C 120.19 130.95 119.02 131.20 118.45 132.08 Z M 117.95 132.85 L 117.43 133.65 C 116.86 134.52 117.11 135.69 117.98 136.27 C 118.86 136.84 120.03 136.59 120.60 135.71 L 121.12 134.92 C 121.69 134.04 121.45 132.87 120.57 132.30 C 119.69 131.73 118.52 131.97 117.95 132.85 Z M 117.43 133.64 L 116.90 134.46 C 116.33 135.33 116.57 136.50 117.45 137.08 C 118.32 137.65 119.50 137.40 120.07 136.53 L 120.60 135.72 C 121.17 134.84 120.93 133.67 120.05 133.10 C 119.18 132.52 118.01 132.77 117.43 133.64 Z M 116.90 134.45 L 116.36 135.28 C 115.78 136.16 116.02 137.33 116.90 137.91 C 117.77 138.48 118.94 138.24 119.52 137.37 L 120.07 136.53 C 120.64 135.66 120.40 134.49 119.52 133.91 C 118.65 133.34 117.48 133.58 116.90 134.45 Z M 116.36 135.28 L 115.80 136.13 C 115.22 137.00 115.46 138.17 116.33 138.75 C 117.20 139.33 118.38 139.09 118.96 138.22 L 119.52 137.37 C 120.09 136.50 119.85 135.32 118.98 134.75 C 118.11 134.17 116.94 134.41 116.36 135.28 Z M 115.80 136.12 L 115.23 136.99 C 114.65 137.86 114.89 139.03 115.76 139.61 C 116.63 140.19 117.80 139.95 118.38 139.08 L 118.95 138.22 C 119.53 137.35 119.30 136.17 118.42 135.60 C 117.55 135.02 116.38 135.25 115.80 136.12 Z M 115.23 136.98 L 114.64 137.86 C 114.06 138.73 114.30 139.90 115.17 140.48 C 116.04 141.07 117.21 140.83 117.79 139.96 L 118.38 139.09 C 118.96 138.22 118.73 137.04 117.86 136.46 C 116.99 135.88 115.81 136.11 115.23 136.98 Z M 114.65 137.85 L 114.05 138.74 C 113.47 139.61 113.70 140.79 114.57 141.37 C 115.43 141.95 116.61 141.72 117.19 140.85 L 117.79 139.97 C 118.37 139.10 118.14 137.92 117.27 137.34 C 116.41 136.76 115.23 136.99 114.65 137.85 Z M 114.05 138.74 L 113.46 139.62 C 112.87 140.49 113.10 141.67 113.96 142.25 C 114.83 142.84 116.01 142.61 116.59 141.74 L 117.19 140.86 C 117.78 139.99 117.55 138.82 116.68 138.23 C 115.82 137.64 114.64 137.87 114.05 138.74 Z M 113.46 139.62 L 112.86 140.50 C 112.28 141.36 112.50 142.54 113.36 143.13 C 114.23 143.71 115.41 143.49 115.99 142.62 L 116.59 141.75 C 117.18 140.88 116.95 139.70 116.09 139.12 C 115.22 138.53 114.05 138.75 113.46 139.62 Z M 112.87 140.49 L 112.27 141.37 C 111.68 142.23 111.90 143.41 112.76 144.00 C 113.63 144.59 114.80 144.37 115.39 143.50 L 115.99 142.63 C 116.58 141.76 116.36 140.59 115.50 140.00 C 114.63 139.41 113.46 139.63 112.87 140.49 Z M 112.27 141.37 L 111.67 142.24 C 111.08 143.10 111.30 144.28 112.16 144.87 C 113.02 145.46 114.20 145.24 114.79 144.38 L 115.39 143.51 C 115.98 142.64 115.76 141.47 114.90 140.88 C 114.04 140.28 112.86 140.50 112.27 141.37 Z M 111.68 142.23 L 111.08 143.09 C 110.49 143.95 110.71 145.13 111.57 145.72 C 112.43 146.32 113.61 146.10 114.20 145.24 L 114.79 144.38 C 115.38 143.52 115.17 142.34 114.31 141.75 C 113.45 141.16 112.27 141.37 111.68 142.23 Z M 111.09 143.09 L 110.51 143.93 C 109.91 144.79 110.13 145.96 110.99 146.56 C 111.84 147.15 113.02 146.94 113.62 146.08 L 114.20 145.24 C 114.79 144.38 114.58 143.20 113.72 142.61 C 112.86 142.02 111.68 142.23 111.09 143.09 Z M 110.51 143.92 L 109.94 144.74 C 109.35 145.60 109.56 146.77 110.42 147.37 C 111.27 147.97 112.45 147.75 113.05 146.90 L 113.61 146.08 C 114.21 145.23 114.00 144.05 113.14 143.45 C 112.28 142.85 111.10 143.07 110.51 143.92 Z M 109.95 144.73 L 109.40 145.52 C 108.80 146.37 109.01 147.55 109.87 148.15 C 110.72 148.75 111.90 148.54 112.50 147.68 L 113.05 146.90 C 113.64 146.04 113.43 144.86 112.58 144.27 C 111.72 143.67 110.54 143.88 109.95 144.73 Z M 109.40 145.51 L 108.88 146.26 C 108.28 147.11 108.49 148.29 109.34 148.89 C 110.20 149.49 111.38 149.28 111.98 148.43 L 112.50 147.68 C 113.10 146.83 112.89 145.65 112.04 145.05 C 111.18 144.45 110.00 144.66 109.40 145.51 Z M 108.89 146.25 L 108.35 147.01 C 107.75 147.86 107.95 149.04 108.81 149.64 C 109.66 150.24 110.84 150.04 111.44 149.19 L 111.97 148.43 C 112.57 147.58 112.37 146.40 111.52 145.80 C 110.67 145.20 109.49 145.40 108.89 146.25 Z M 108.36 147.00 L 107.66 147.99 C 107.05 148.84 107.25 150.01 108.10 150.62 C 108.95 151.22 110.13 151.02 110.73 150.17 L 111.43 149.19 C 112.04 148.34 111.84 147.16 110.99 146.56 C 110.14 145.95 108.96 146.15 108.36 147.00 Z M 107.67 147.98 L 107.03 148.86 C 106.42 149.71 106.62 150.89 107.46 151.49 C 108.31 152.10 109.48 151.91 110.09 151.06 L 110.73 150.18 C 111.33 149.34 111.14 148.16 110.30 147.55 C 109.45 146.94 108.27 147.13 107.67 147.98 Z M 107.04 148.86 L 106.45 149.66 C 105.84 150.50 106.03 151.68 106.87 152.29 C 107.71 152.90 108.89 152.72 109.50 151.88 L 110.08 151.07 C 110.69 150.23 110.51 149.05 109.67 148.44 C 108.83 147.83 107.65 148.02 107.04 148.86 Z M 106.46 149.65 L 105.91 150.40 C 105.30 151.23 105.48 152.41 106.31 153.03 C 107.15 153.64 108.32 153.46 108.94 152.63 L 109.49 151.88 C 110.10 151.05 109.93 149.87 109.09 149.26 C 108.25 148.64 107.08 148.82 106.46 149.65 Z M 105.92 150.39 L 105.40 151.09 C 104.78 151.92 104.95 153.10 105.78 153.72 C 106.61 154.34 107.79 154.17 108.41 153.34 L 108.93 152.64 C 109.55 151.80 109.38 150.63 108.55 150.01 C 107.72 149.39 106.54 149.56 105.92 150.39 Z M 105.41 151.09 L 104.89 151.78 C 104.26 152.60 104.43 153.78 105.25 154.40 C 106.08 155.03 107.26 154.86 107.88 154.04 L 108.40 153.34 C 109.02 152.52 108.86 151.34 108.03 150.72 C 107.21 150.10 106.03 150.26 105.41 151.09 Z M 104.89 151.77 L 104.29 152.57 C 103.66 153.39 103.82 154.56 104.64 155.19 C 105.47 155.82 106.64 155.66 107.27 154.83 L 107.87 154.04 C 108.50 153.22 108.34 152.04 107.52 151.42 C 106.69 150.79 105.52 150.95 104.89 151.77 Z M 104.30 152.56 L 103.69 153.35 C 103.06 154.17 103.21 155.34 104.03 155.97 C 104.85 156.60 106.02 156.45 106.65 155.63 L 107.26 154.84 C 107.89 154.02 107.73 152.85 106.92 152.22 C 106.10 151.59 104.92 151.74 104.30 152.56 Z M 103.70 153.35 L 103.09 154.14 C 102.45 154.95 102.60 156.12 103.42 156.75 C 104.23 157.38 105.41 157.24 106.04 156.42 L 106.65 155.63 C 107.28 154.82 107.13 153.65 106.31 153.01 C 105.50 152.38 104.33 152.53 103.70 153.35 Z M 103.09 154.13 L 102.48 154.92 C 101.84 155.73 101.99 156.91 102.80 157.54 C 103.61 158.17 104.78 158.02 105.42 157.21 L 106.03 156.42 C 106.66 155.61 106.52 154.44 105.71 153.81 C 104.89 153.17 103.72 153.32 103.09 154.13 Z M 102.48 154.92 L 101.86 155.72 C 101.23 156.52 101.37 157.69 102.18 158.33 C 102.99 158.96 104.16 158.82 104.79 158.01 L 105.41 157.21 C 106.05 156.40 105.90 155.24 105.09 154.60 C 104.28 153.97 103.11 154.11 102.48 154.92 Z M 101.86 155.71 L 101.40 156.31 C 100.76 157.12 100.90 158.28 101.71 158.92 C 102.52 159.55 103.69 159.41 104.32 158.60 L 104.79 158.01 C 105.42 157.20 105.28 156.03 104.47 155.40 C 103.66 154.77 102.50 154.91 101.86 155.71 Z M 101.40 156.31 L 100.91 156.93 C 100.28 157.73 100.42 158.90 101.22 159.53 C 102.03 160.17 103.19 160.03 103.83 159.22 L 104.32 158.60 C 104.95 157.80 104.81 156.63 104.01 156.00 C 103.20 155.36 102.03 155.50 101.40 156.31 Z M 100.92 156.92 L 100.39 157.59 C 99.75 158.39 99.89 159.56 100.69 160.20 C 101.49 160.83 102.66 160.70 103.30 159.89 L 103.82 159.23 C 104.46 158.42 104.32 157.26 103.52 156.62 C 102.72 155.99 101.55 156.12 100.92 156.92 Z M 100.39 157.59 L 99.81 158.33 C 99.17 159.13 99.30 160.29 100.10 160.93 C 100.90 161.57 102.07 161.43 102.70 160.63 L 103.29 159.90 C 103.93 159.10 103.79 157.93 102.99 157.29 C 102.19 156.66 101.03 156.79 100.39 157.59 Z M 99.81 158.33 L 99.14 159.16 C 98.51 159.96 98.64 161.12 99.43 161.76 C 100.23 162.40 101.39 162.27 102.03 161.47 L 102.70 160.64 C 103.34 159.84 103.21 158.68 102.41 158.04 C 101.61 157.40 100.45 157.53 99.81 158.33 Z M 99.15 159.16 L 98.39 160.11 C 97.75 160.90 97.87 162.06 98.67 162.70 C 99.46 163.34 100.63 163.21 101.26 162.42 L 102.03 161.47 C 102.67 160.68 102.54 159.51 101.74 158.88 C 100.95 158.24 99.79 158.36 99.15 159.16 Z M 98.39 160.11 L 97.53 161.17 C 96.89 161.97 97.01 163.13 97.81 163.77 C 98.60 164.40 99.76 164.28 100.40 163.49 L 101.26 162.42 C 101.90 161.63 101.78 160.47 100.98 159.83 C 100.19 159.19 99.03 159.31 98.39 160.11 Z M 97.53 161.17 L 96.99 161.85 C 96.35 162.64 96.47 163.80 97.26 164.44 C 98.05 165.08 99.21 164.95 99.85 164.16 L 100.40 163.49 C 101.04 162.70 100.91 161.54 100.12 160.90 C 99.33 160.26 98.17 160.38 97.53 161.17 Z M 96.99 161.84 L 96.41 162.56 C 95.77 163.35 95.89 164.51 96.68 165.15 C 97.47 165.79 98.63 165.67 99.27 164.88 L 99.85 164.16 C 100.49 163.37 100.37 162.21 99.58 161.57 C 98.79 160.93 97.63 161.06 96.99 161.84 Z M 96.41 162.56 L 95.80 163.31 C 95.16 164.10 95.28 165.26 96.07 165.90 C 96.86 166.54 98.02 166.42 98.66 165.63 L 99.27 164.88 C 99.91 164.09 99.79 162.93 99.00 162.29 C 98.21 161.65 97.05 161.77 96.41 162.56 Z M 95.81 163.31 L 95.17 164.09 C 94.53 164.88 94.65 166.03 95.43 166.67 C 96.22 167.31 97.38 167.20 98.02 166.41 L 98.65 165.63 C 99.29 164.84 99.18 163.69 98.39 163.05 C 97.60 162.41 96.45 162.52 95.81 163.31 Z M 95.17 164.09 L 94.52 164.89 C 93.88 165.67 94.00 166.83 94.78 167.47 C 95.57 168.11 96.72 167.99 97.36 167.21 L 98.02 166.41 C 98.66 165.62 98.54 164.47 97.76 163.83 C 96.97 163.19 95.81 163.30 95.17 164.09 Z M 94.52 164.89 L 93.86 165.70 C 93.22 166.48 93.33 167.64 94.11 168.28 C 94.90 168.92 96.05 168.81 96.69 168.02 L 97.36 167.21 C 98.00 166.43 97.89 165.27 97.10 164.63 C 96.32 163.99 95.17 164.10 94.52 164.89 Z M 93.86 165.70 L 93.19 166.52 C 92.54 167.30 92.66 168.45 93.44 169.10 C 94.22 169.74 95.37 169.63 96.02 168.84 L 96.69 168.02 C 97.33 167.24 97.22 166.09 96.44 165.45 C 95.66 164.80 94.50 164.92 93.86 165.70 Z M 93.19 166.52 L 92.52 167.33 C 91.87 168.11 91.98 169.27 92.76 169.91 C 93.54 170.55 94.69 170.44 95.34 169.66 L 96.01 168.85 C 96.66 168.07 96.55 166.91 95.77 166.27 C 94.99 165.63 93.83 165.74 93.19 166.52 Z M 92.52 167.33 L 91.85 168.14 C 91.20 168.92 91.31 170.07 92.09 170.72 C 92.87 171.36 94.02 171.25 94.66 170.48 L 95.33 169.67 C 95.98 168.89 95.87 167.74 95.09 167.09 C 94.32 166.45 93.16 166.56 92.52 167.33 Z M 91.85 168.14 L 91.19 168.93 C 90.54 169.71 90.65 170.86 91.42 171.51 C 92.20 172.15 93.35 172.05 94.00 171.27 L 94.66 170.48 C 95.30 169.70 95.20 168.55 94.42 167.91 C 93.65 167.26 92.50 167.37 91.85 168.14 Z M 91.19 168.93 L 90.55 169.70 C 89.90 170.48 90.00 171.63 90.77 172.28 C 91.55 172.92 92.70 172.82 93.34 172.05 L 93.99 171.28 C 94.64 170.50 94.54 169.35 93.77 168.71 C 92.99 168.06 91.84 168.16 91.19 168.93 Z M 90.55 169.70 L 89.93 170.44 C 89.28 171.21 89.37 172.36 90.14 173.01 C 90.91 173.66 92.06 173.56 92.71 172.79 L 93.34 172.05 C 93.99 171.28 93.89 170.13 93.12 169.48 C 92.35 168.83 91.20 168.93 90.55 169.70 Z M 89.93 170.44 L 89.18 171.32 C 88.53 172.09 88.62 173.24 89.39 173.89 C 90.15 174.54 91.30 174.45 91.95 173.68 L 92.71 172.80 C 93.36 172.03 93.26 170.88 92.50 170.23 C 91.73 169.58 90.59 169.67 89.93 170.44 Z M 89.19 171.32 L 88.39 172.25 C 87.74 173.00 87.82 174.15 88.58 174.80 C 89.34 175.46 90.48 175.37 91.14 174.61 L 91.94 173.69 C 92.59 172.93 92.51 171.78 91.75 171.13 C 90.99 170.48 89.85 170.56 89.19 171.32 Z M 88.41 172.24 L 87.66 173.10 C 87.00 173.85 87.08 174.99 87.83 175.64 C 88.58 176.30 89.71 176.22 90.37 175.48 L 91.12 174.62 C 91.78 173.87 91.70 172.73 90.95 172.07 C 90.21 171.42 89.07 171.49 88.41 172.24 Z M 87.68 173.09 L 86.97 173.89 C 86.31 174.62 86.38 175.76 87.12 176.42 C 87.86 177.08 88.99 177.01 89.65 176.27 L 90.35 175.48 C 91.01 174.74 90.95 173.61 90.21 172.95 C 89.47 172.29 88.34 172.35 87.68 173.09 Z M 86.99 173.88 L 86.32 174.61 C 85.66 175.34 85.71 176.47 86.44 177.13 C 87.17 177.80 88.30 177.74 88.97 177.01 L 89.63 176.28 C 90.29 175.55 90.24 174.42 89.51 173.76 C 88.78 173.09 87.65 173.15 86.99 173.88 Z M 86.34 174.61 L 85.71 175.29 C 85.05 176.01 85.09 177.13 85.81 177.80 C 86.53 178.46 87.65 178.42 88.32 177.70 L 88.95 177.02 C 89.61 176.30 89.57 175.18 88.85 174.51 C 88.13 173.84 87.01 173.89 86.34 174.61 Z M 85.73 175.28 L 85.13 175.91 C 84.46 176.62 84.49 177.74 85.20 178.41 C 85.91 179.08 87.03 179.05 87.70 178.34 L 88.30 177.71 C 88.97 177.00 88.94 175.88 88.23 175.21 C 87.52 174.54 86.40 174.57 85.73 175.28 Z M 85.15 175.91 L 84.58 176.50 C 83.90 177.20 83.92 178.31 84.62 178.99 C 85.32 179.66 86.43 179.64 87.10 178.94 L 87.68 178.35 C 88.35 177.65 88.33 176.54 87.64 175.86 C 86.94 175.19 85.82 175.21 85.15 175.91 Z M 84.60 176.49 L 84.04 177.06 C 83.36 177.74 83.37 178.85 84.06 179.53 C 84.74 180.21 85.85 180.20 86.53 179.51 L 87.08 178.95 C 87.76 178.26 87.75 177.16 87.07 176.48 C 86.38 175.80 85.27 175.81 84.60 176.49 Z M 84.06 177.05 L 83.30 177.80 C 82.62 178.47 82.61 179.57 83.28 180.25 C 83.96 180.94 85.06 180.95 85.74 180.27 L 86.50 179.52 C 87.19 178.85 87.20 177.75 86.52 177.06 C 85.85 176.38 84.75 176.37 84.06 177.05 Z M 83.34 177.78 L 82.58 178.49 C 81.88 179.15 81.85 180.24 82.50 180.93 C 83.15 181.63 84.25 181.66 84.94 181.01 L 85.70 180.29 C 86.40 179.64 86.43 178.55 85.78 177.85 C 85.13 177.16 84.03 177.12 83.34 177.78 Z M 82.63 178.46 L 81.87 179.13 C 81.16 179.75 81.09 180.84 81.72 181.55 C 82.34 182.26 83.43 182.33 84.14 181.70 L 84.89 181.04 C 85.60 180.41 85.67 179.33 85.05 178.62 C 84.42 177.91 83.34 177.84 82.63 178.46 Z M 81.94 179.09 L 81.18 179.70 C 80.45 180.29 80.33 181.36 80.92 182.09 C 81.52 182.83 82.59 182.94 83.32 182.35 L 84.08 181.74 C 84.81 181.15 84.92 180.08 84.33 179.34 C 83.74 178.61 82.67 178.50 81.94 179.09 Z M 81.26 179.65 L 80.49 180.21 C 79.73 180.76 79.56 181.82 80.11 182.58 C 80.66 183.33 81.72 183.50 82.48 182.95 L 83.24 182.39 C 84.00 181.84 84.17 180.79 83.62 180.03 C 83.07 179.27 82.01 179.10 81.26 179.65 Z M 80.58 180.16 L 79.78 180.67 C 79.00 181.17 78.77 182.21 79.27 182.99 C 79.77 183.78 80.81 184.01 81.59 183.51 L 82.39 183.00 C 83.17 182.50 83.40 181.46 82.90 180.68 C 82.40 179.89 81.36 179.66 80.58 180.16 Z M 79.88 180.63 L 79.02 181.10 C 78.21 181.55 77.92 182.56 78.37 183.37 C 78.81 184.18 79.83 184.47 80.64 184.02 L 81.50 183.55 C 82.30 183.10 82.60 182.09 82.15 181.28 C 81.70 180.47 80.69 180.18 79.88 180.63 Z M 79.11 181.07 L 78.22 181.50 C 77.39 181.90 77.05 182.89 77.45 183.71 C 77.84 184.54 78.84 184.88 79.66 184.49 L 80.55 184.06 C 81.38 183.66 81.72 182.67 81.33 181.84 C 80.93 181.02 79.93 180.67 79.11 181.07 Z M 78.29 181.48 L 77.37 181.87 C 76.54 182.23 76.15 183.20 76.51 184.04 C 76.87 184.87 77.84 185.26 78.68 184.90 L 79.59 184.51 C 80.43 184.15 80.81 183.18 80.45 182.34 C 80.09 181.50 79.12 181.12 78.29 181.48 Z M 77.42 181.86 L 76.49 182.23 C 75.65 182.56 75.23 183.51 75.57 184.36 C 75.90 185.20 76.85 185.61 77.69 185.28 L 78.62 184.91 C 79.46 184.58 79.88 183.63 79.55 182.79 C 79.21 181.95 78.26 181.53 77.42 181.86 Z M 76.52 182.23 L 75.57 182.58 C 74.73 182.90 74.30 183.83 74.62 184.67 C 74.93 185.51 75.86 185.94 76.70 185.63 L 77.65 185.28 C 78.49 184.97 78.92 184.03 78.61 183.19 C 78.30 182.35 77.36 181.92 76.52 182.23 Z M 75.59 182.59 L 74.81 182.87 C 73.97 183.18 73.53 184.10 73.84 184.94 C 74.14 185.78 75.07 186.21 75.90 185.91 L 76.69 185.63 C 77.53 185.32 77.96 184.40 77.66 183.56 C 77.35 182.72 76.43 182.29 75.59 182.59 Z"
      fill="black"
      fill-rule="nonzero" /><path d="M 180.87 88.88 L 180.50 89.75 C 180.11 90.66 180.53 91.71 181.44 92.09 C 182.34 92.48 183.39 92.06 183.78 91.16 L 184.15 90.28 C 184.54 89.38 184.12 88.33 183.21 87.94 C 182.31 87.55 181.26 87.98 180.87 88.88 Z M 180.50 89.76 L 180.12 90.65 C 179.74 91.56 180.16 92.60 181.07 92.98 C 181.98 93.37 183.02 92.94 183.41 92.03 L 183.78 91.15 C 184.16 90.24 183.74 89.20 182.83 88.81 C 181.92 88.43 180.88 88.86 180.50 89.76 Z M 180.12 90.66 L 179.74 91.57 C 179.37 92.48 179.80 93.53 180.71 93.90 C 181.62 94.27 182.67 93.84 183.04 92.93 L 183.41 92.02 C 183.79 91.11 183.35 90.07 182.44 89.69 C 181.53 89.32 180.49 89.75 180.12 90.66 Z M 179.73 91.59 L 179.36 92.54 C 179.00 93.45 179.45 94.49 180.36 94.85 C 181.28 95.22 182.31 94.77 182.68 93.85 L 183.05 92.91 C 183.41 91.99 182.96 90.95 182.05 90.59 C 181.13 90.23 180.10 90.68 179.73 91.59 Z M 179.35 92.57 L 178.98 93.56 C 178.63 94.48 179.09 95.51 180.01 95.86 C 180.94 96.20 181.96 95.74 182.31 94.82 L 182.69 93.82 C 183.03 92.90 182.57 91.87 181.65 91.53 C 180.72 91.18 179.70 91.64 179.35 92.57 Z M 178.96 93.59 L 178.64 94.49 C 178.31 95.42 178.79 96.44 179.72 96.77 C 180.65 97.10 181.67 96.62 182.00 95.69 L 182.32 94.79 C 182.65 93.86 182.17 92.84 181.24 92.51 C 180.32 92.18 179.30 92.66 178.96 93.59 Z M 178.64 94.51 L 178.33 95.39 C 178.01 96.32 178.50 97.34 179.43 97.66 C 180.36 97.98 181.37 97.49 181.70 96.56 L 182.00 95.68 C 182.33 94.75 181.83 93.73 180.90 93.41 C 179.97 93.09 178.96 93.58 178.64 94.51 Z M 178.33 95.39 L 178.01 96.31 C 177.69 97.24 178.18 98.25 179.11 98.57 C 180.04 98.90 181.06 98.40 181.38 97.47 L 181.70 96.56 C 182.02 95.63 181.53 94.61 180.60 94.29 C 179.67 93.97 178.65 94.46 178.33 95.39 Z M 178.02 96.30 L 177.68 97.24 C 177.36 98.17 177.84 99.19 178.77 99.51 C 179.70 99.84 180.72 99.35 181.04 98.43 L 181.38 97.48 C 181.70 96.56 181.22 95.54 180.29 95.21 C 179.36 94.88 178.35 95.37 178.02 96.30 Z M 177.69 97.22 L 177.34 98.18 C 177.00 99.11 177.47 100.13 178.39 100.47 C 179.32 100.81 180.34 100.34 180.68 99.41 L 181.03 98.45 C 181.37 97.53 180.90 96.50 179.98 96.16 C 179.06 95.82 178.03 96.30 177.69 97.22 Z M 177.35 98.15 L 176.97 99.14 C 176.61 100.05 177.06 101.09 177.98 101.44 C 178.89 101.80 179.92 101.35 180.28 100.43 L 180.67 99.45 C 181.02 98.53 180.57 97.50 179.66 97.14 C 178.74 96.78 177.71 97.24 177.35 98.15 Z M 176.98 99.10 L 176.57 100.09 C 176.19 100.99 176.61 102.04 177.52 102.42 C 178.42 102.80 179.47 102.37 179.85 101.47 L 180.26 100.47 C 180.64 99.57 180.22 98.53 179.31 98.15 C 178.41 97.77 177.36 98.19 176.98 99.10 Z M 176.59 100.04 L 176.17 100.97 C 175.77 101.86 176.16 102.91 177.06 103.32 C 177.95 103.72 179.00 103.33 179.41 102.43 L 179.83 101.51 C 180.23 100.62 179.83 99.56 178.94 99.16 C 178.05 98.75 176.99 99.15 176.59 100.04 Z M 176.19 100.93 L 175.75 101.85 C 175.32 102.74 175.69 103.80 176.57 104.22 C 177.46 104.65 178.52 104.28 178.94 103.39 L 179.39 102.47 C 179.81 101.59 179.44 100.53 178.56 100.10 C 177.68 99.68 176.62 100.05 176.19 100.93 Z M 175.77 101.82 L 175.30 102.74 C 174.86 103.61 175.20 104.68 176.08 105.12 C 176.95 105.56 178.02 105.21 178.46 104.34 L 178.92 103.43 C 179.37 102.55 179.02 101.49 178.15 101.04 C 177.27 100.60 176.21 100.95 175.77 101.82 Z M 175.32 102.71 L 174.84 103.61 C 174.38 104.47 174.71 105.54 175.57 106.00 C 176.43 106.46 177.50 106.13 177.96 105.27 L 178.44 104.37 C 178.90 103.51 178.57 102.44 177.71 101.98 C 176.85 101.52 175.78 101.85 175.32 102.71 Z M 174.86 103.58 L 174.37 104.46 C 173.90 105.31 174.20 106.39 175.06 106.86 C 175.91 107.33 176.98 107.03 177.46 106.17 L 177.94 105.30 C 178.42 104.44 178.11 103.37 177.26 102.90 C 176.40 102.42 175.33 102.73 174.86 103.58 Z M 174.39 104.44 L 173.90 105.28 C 173.41 106.13 173.70 107.21 174.55 107.69 C 175.39 108.18 176.47 107.89 176.95 107.04 L 177.44 106.20 C 177.93 105.35 177.64 104.28 176.79 103.79 C 175.95 103.30 174.87 103.59 174.39 104.44 Z M 173.92 105.26 L 173.43 106.07 C 172.94 106.91 173.21 107.99 174.04 108.48 C 174.88 108.98 175.96 108.71 176.46 107.87 L 176.94 107.06 C 177.44 106.23 177.16 105.15 176.33 104.65 C 175.49 104.16 174.41 104.43 173.92 105.26 Z M 173.45 106.05 L 172.92 106.91 C 172.41 107.74 172.66 108.82 173.49 109.33 C 174.31 109.84 175.40 109.58 175.91 108.76 L 176.44 107.89 C 176.95 107.07 176.69 105.99 175.87 105.48 C 175.04 104.97 173.96 105.22 173.45 106.05 Z M 172.94 106.88 L 172.41 107.71 C 171.88 108.52 172.12 109.61 172.93 110.13 C 173.74 110.66 174.83 110.42 175.35 109.61 L 175.88 108.78 C 176.41 107.97 176.18 106.89 175.36 106.36 C 174.55 105.84 173.46 106.07 172.94 106.88 Z M 172.43 107.68 L 171.89 108.48 C 171.35 109.28 171.56 110.37 172.36 110.91 C 173.16 111.45 174.25 111.24 174.79 110.44 L 175.33 109.64 C 175.87 108.84 175.66 107.75 174.86 107.21 C 174.06 106.67 172.97 106.88 172.43 107.68 Z M 171.92 108.45 L 171.36 109.24 C 170.80 110.02 170.98 111.11 171.77 111.67 C 172.56 112.23 173.64 112.04 174.20 111.26 L 174.76 110.47 C 175.32 109.68 175.13 108.59 174.35 108.04 C 173.56 107.48 172.47 107.66 171.92 108.45 Z M 171.38 109.21 L 170.79 110.01 C 170.22 110.78 170.38 111.87 171.15 112.44 C 171.92 113.02 173.01 112.86 173.59 112.08 L 174.18 111.29 C 174.75 110.51 174.59 109.42 173.82 108.85 C 173.04 108.28 171.95 108.44 171.38 109.21 Z M 170.81 109.98 L 170.18 110.81 C 169.59 111.57 169.73 112.66 170.49 113.24 C 171.25 113.83 172.34 113.69 172.93 112.93 L 173.56 112.11 C 174.15 111.35 174.01 110.26 173.25 109.67 C 172.49 109.08 171.40 109.22 170.81 109.98 Z M 170.20 110.79 L 169.59 111.55 C 168.99 112.30 169.11 113.39 169.86 113.99 C 170.61 114.58 171.70 114.46 172.30 113.71 L 172.91 112.95 C 173.50 112.20 173.38 111.11 172.63 110.51 C 171.88 109.92 170.79 110.04 170.20 110.79 Z M 169.60 111.53 L 169.00 112.27 C 168.40 113.01 168.51 114.10 169.25 114.70 C 169.99 115.31 171.08 115.20 171.68 114.46 L 172.28 113.73 C 172.89 112.99 172.78 111.90 172.04 111.29 C 171.30 110.69 170.21 110.79 169.60 111.53 Z M 169.02 112.25 L 168.39 113.01 C 167.77 113.74 167.87 114.83 168.60 115.44 C 169.33 116.06 170.43 115.96 171.04 115.23 L 171.67 114.47 C 172.28 113.74 172.19 112.65 171.45 112.04 C 170.72 111.43 169.63 111.52 169.02 112.25 Z M 168.40 112.99 L 167.74 113.76 C 167.12 114.49 167.21 115.58 167.93 116.20 C 168.66 116.82 169.75 116.73 170.37 116.01 L 171.02 115.24 C 171.64 114.52 171.56 113.43 170.84 112.81 C 170.11 112.19 169.02 112.27 168.40 112.99 Z M 167.76 113.75 L 167.08 114.52 C 166.46 115.24 166.53 116.33 167.24 116.95 C 167.96 117.58 169.05 117.51 169.68 116.79 L 170.35 116.02 C 170.98 115.30 170.91 114.22 170.19 113.59 C 169.48 112.96 168.39 113.03 167.76 113.75 Z M 167.10 114.51 L 166.41 115.28 C 165.77 115.99 165.83 117.07 166.54 117.71 C 167.25 118.34 168.34 118.28 168.97 117.58 L 169.66 116.81 C 170.30 116.10 170.24 115.01 169.53 114.38 C 168.82 113.74 167.73 113.80 167.10 114.51 Z M 166.42 115.26 L 165.72 116.02 C 165.08 116.72 165.13 117.81 165.83 118.45 C 166.53 119.09 167.61 119.05 168.25 118.35 L 168.95 117.59 C 169.60 116.89 169.55 115.80 168.85 115.16 C 168.15 114.52 167.07 114.57 166.42 115.26 Z M 165.74 116.01 L 165.04 116.75 C 164.39 117.44 164.42 118.53 165.11 119.18 C 165.80 119.83 166.88 119.80 167.54 119.11 L 168.24 118.37 C 168.89 117.68 168.86 116.59 168.17 115.94 C 167.48 115.29 166.39 115.32 165.74 116.01 Z M 165.06 116.73 L 164.32 117.50 C 163.66 118.18 163.67 119.26 164.35 119.92 C 165.02 120.58 166.11 120.57 166.77 119.89 L 167.51 119.13 C 168.18 118.45 168.16 117.36 167.48 116.70 C 166.81 116.04 165.72 116.06 165.06 116.73 Z M 164.34 117.48 L 163.60 118.21 C 162.92 118.87 162.91 119.95 163.58 120.63 C 164.24 121.30 165.32 121.31 165.99 120.65 L 166.74 119.91 C 167.41 119.25 167.42 118.17 166.76 117.50 C 166.10 116.82 165.02 116.81 164.34 117.48 Z M 163.63 118.18 L 162.88 118.88 C 162.19 119.52 162.16 120.60 162.80 121.29 C 163.44 121.98 164.52 122.02 165.21 121.38 L 165.96 120.68 C 166.65 120.03 166.68 118.96 166.04 118.27 C 165.40 117.58 164.32 117.54 163.63 118.18 Z M 162.93 118.85 L 162.17 119.51 C 161.47 120.12 161.39 121.20 162.01 121.91 C 162.63 122.61 163.70 122.69 164.41 122.07 L 165.16 121.41 C 165.87 120.79 165.94 119.72 165.33 119.01 C 164.71 118.30 163.63 118.23 162.93 118.85 Z M 162.23 119.47 L 161.46 120.08 C 160.74 120.67 160.62 121.74 161.21 122.47 C 161.80 123.20 162.87 123.31 163.60 122.72 L 164.36 122.11 C 165.09 121.52 165.20 120.45 164.61 119.72 C 164.02 118.99 162.95 118.88 162.23 119.47 Z M 161.53 120.04 L 160.76 120.61 C 160.00 121.16 159.84 122.22 160.40 122.97 C 160.95 123.73 162.01 123.89 162.76 123.33 L 163.53 122.77 C 164.29 122.21 164.45 121.15 163.89 120.40 C 163.34 119.65 162.28 119.49 161.53 120.04 Z M 160.83 120.56 L 160.05 121.08 C 159.27 121.59 159.05 122.64 159.56 123.41 C 160.08 124.19 161.12 124.41 161.90 123.90 L 162.69 123.38 C 163.47 122.87 163.68 121.82 163.17 121.04 C 162.66 120.26 161.61 120.05 160.83 120.56 Z M 160.14 121.03 L 159.15 121.59 C 158.35 122.05 158.07 123.08 158.53 123.89 C 158.99 124.69 160.02 124.97 160.83 124.51 L 161.81 123.95 C 162.62 123.48 162.90 122.46 162.43 121.65 C 161.97 120.84 160.94 120.56 160.14 121.03 Z M 159.21 121.56 L 158.18 122.10 C 157.36 122.53 157.04 123.55 157.47 124.37 C 157.90 125.19 158.92 125.51 159.74 125.08 L 160.77 124.54 C 161.59 124.11 161.91 123.09 161.48 122.27 C 161.05 121.45 160.03 121.14 159.21 121.56 Z M 158.16 122.12 L 157.22 122.63 C 156.41 123.08 156.11 124.09 156.55 124.90 C 156.99 125.71 158.01 126.01 158.82 125.57 L 159.76 125.06 C 160.57 124.62 160.87 123.60 160.43 122.79 C 159.98 121.98 158.97 121.68 158.16 122.12 Z M 157.09 122.72 L 156.31 123.24 C 155.55 123.76 155.35 124.79 155.86 125.55 C 156.38 126.32 157.41 126.52 158.17 126.00 L 158.95 125.48 C 159.71 124.97 159.91 123.93 159.40 123.17 C 158.89 122.41 157.85 122.21 157.09 122.72 Z M 156.04 123.48 L 155.50 124.06 C 154.87 124.72 154.90 125.77 155.56 126.40 C 156.23 127.03 157.28 127.00 157.91 126.34 L 158.45 125.76 C 159.08 125.10 159.05 124.05 158.38 123.42 C 157.72 122.79 156.67 122.82 156.04 123.48 Z M 155.15 124.63 L 154.91 125.27 C 154.60 126.13 155.04 127.08 155.89 127.40 C 156.75 127.71 157.71 127.27 158.02 126.41 L 158.26 125.77 C 158.57 124.91 158.13 123.96 157.27 123.64 C 156.41 123.33 155.46 123.77 155.15 124.63 Z M 154.80 126.00 L 154.86 126.69 C 154.95 127.61 155.76 128.29 156.68 128.21 C 157.60 128.12 158.28 127.31 158.20 126.39 L 158.13 125.69 C 158.05 124.77 157.23 124.09 156.31 124.18 C 155.39 124.26 154.71 125.08 154.80 126.00 Z M 154.94 127.15 L 155.24 127.93 C 155.58 128.81 156.56 129.25 157.44 128.91 C 158.32 128.58 158.76 127.59 158.42 126.71 L 158.12 125.93 C 157.78 125.05 156.80 124.61 155.92 124.95 C 155.04 125.29 154.60 126.27 154.94 127.15 Z M 155.33 128.18 L 155.81 129.04 C 156.29 129.87 157.35 130.16 158.18 129.68 C 159.01 129.21 159.30 128.15 158.82 127.32 L 158.33 126.47 C 157.86 125.64 156.80 125.35 155.97 125.82 C 155.14 126.29 154.85 127.35 155.33 128.18 Z M 155.87 129.17 L 156.50 130.09 C 157.05 130.89 158.14 131.10 158.94 130.55 C 159.74 130.00 159.95 128.90 159.40 128.10 L 158.77 127.18 C 158.22 126.38 157.12 126.18 156.32 126.73 C 155.52 127.28 155.32 128.37 155.87 129.17 Z M 156.51 130.17 L 157.24 131.13 C 157.83 131.93 158.95 132.09 159.74 131.50 C 160.53 130.91 160.69 129.78 160.10 128.99 L 159.38 128.03 C 158.79 127.23 157.67 127.07 156.88 127.66 C 156.08 128.25 155.92 129.37 156.51 130.17 Z M 157.23 131.16 L 157.95 132.11 C 158.56 132.91 159.70 133.06 160.49 132.45 C 161.29 131.84 161.44 130.70 160.83 129.91 L 160.11 128.96 C 159.50 128.17 158.36 128.01 157.57 128.62 C 156.77 129.23 156.62 130.37 157.23 131.16 Z M 157.94 132.11 L 158.55 132.93 C 159.16 133.73 160.31 133.89 161.11 133.28 C 161.92 132.67 162.07 131.53 161.47 130.72 L 160.85 129.91 C 160.24 129.10 159.09 128.94 158.29 129.55 C 157.49 130.16 157.33 131.31 157.94 132.11 Z M 158.55 132.92 L 159.17 133.75 C 159.77 134.56 160.92 134.72 161.73 134.11 C 162.53 133.51 162.70 132.36 162.09 131.55 L 161.47 130.73 C 160.87 129.92 159.72 129.76 158.91 130.36 C 158.11 130.97 157.94 132.11 158.55 132.92 Z M 159.16 133.74 L 159.78 134.57 C 160.38 135.38 161.53 135.55 162.34 134.95 C 163.15 134.35 163.32 133.20 162.71 132.39 L 162.10 131.56 C 161.50 130.75 160.35 130.58 159.54 131.18 C 158.73 131.79 158.56 132.93 159.16 133.74 Z M 159.77 134.57 L 160.38 135.39 C 160.98 136.20 162.12 136.38 162.94 135.78 C 163.75 135.17 163.93 134.03 163.33 133.21 L 162.72 132.39 C 162.12 131.58 160.97 131.40 160.16 132.00 C 159.34 132.61 159.17 133.75 159.77 134.57 Z M 160.37 135.39 L 160.96 136.19 C 161.56 137.01 162.71 137.19 163.53 136.59 C 164.34 135.99 164.52 134.84 163.92 134.02 L 163.33 133.22 C 162.73 132.40 161.58 132.22 160.77 132.82 C 159.95 133.42 159.77 134.57 160.37 135.39 Z M 160.96 136.19 L 161.53 136.98 C 162.13 137.80 163.28 137.98 164.10 137.38 C 164.92 136.78 165.10 135.64 164.50 134.81 L 163.93 134.03 C 163.33 133.21 162.18 133.03 161.36 133.62 C 160.54 134.22 160.36 135.37 160.96 136.19 Z M 161.53 136.97 L 162.07 137.73 C 162.67 138.55 163.82 138.74 164.64 138.14 C 165.46 137.55 165.65 136.40 165.05 135.58 L 164.51 134.82 C 163.91 134.00 162.76 133.81 161.94 134.41 C 161.11 135.00 160.93 136.15 161.53 136.97 Z M 162.07 137.73 L 162.69 138.59 C 163.28 139.42 164.43 139.61 165.26 139.01 C 166.08 138.42 166.27 137.27 165.68 136.44 L 165.06 135.58 C 164.46 134.75 163.31 134.57 162.49 135.16 C 161.66 135.75 161.48 136.90 162.07 137.73 Z M 162.69 138.59 L 163.30 139.45 C 163.89 140.28 165.04 140.47 165.87 139.88 C 166.70 139.29 166.89 138.14 166.30 137.31 L 165.68 136.45 C 165.09 135.62 163.94 135.43 163.11 136.02 C 162.29 136.61 162.10 137.76 162.69 138.59 Z M 163.30 139.45 L 163.89 140.27 C 164.48 141.10 165.63 141.29 166.45 140.70 C 167.28 140.11 167.47 138.96 166.88 138.13 L 166.30 137.31 C 165.71 136.48 164.56 136.29 163.73 136.88 C 162.90 137.47 162.71 138.62 163.30 139.45 Z M 163.89 140.27 L 164.45 141.06 C 165.04 141.88 166.19 142.08 167.02 141.49 C 167.85 140.89 168.04 139.74 167.45 138.92 L 166.88 138.13 C 166.29 137.30 165.14 137.11 164.31 137.70 C 163.49 138.29 163.29 139.44 163.89 140.27 Z M 164.45 141.06 L 165.00 141.83 C 165.60 142.66 166.75 142.85 167.57 142.25 C 168.40 141.66 168.59 140.51 168.00 139.68 L 167.44 138.91 C 166.85 138.09 165.70 137.90 164.87 138.49 C 164.05 139.08 163.86 140.24 164.45 141.06 Z M 165.01 141.84 L 165.56 142.60 C 166.16 143.42 167.31 143.61 168.13 143.01 C 168.96 142.41 169.14 141.26 168.54 140.44 L 167.99 139.67 C 167.39 138.85 166.24 138.67 165.42 139.26 C 164.59 139.86 164.41 141.01 165.01 141.84 Z M 165.57 142.61 L 166.14 143.39 C 166.74 144.21 167.89 144.38 168.71 143.78 C 169.53 143.18 169.71 142.02 169.11 141.20 L 168.54 140.43 C 167.93 139.61 166.78 139.43 165.96 140.03 C 165.14 140.64 164.97 141.79 165.57 142.61 Z M 166.15 143.40 L 166.73 144.18 C 167.34 145.00 168.49 145.16 169.31 144.56 C 170.13 143.95 170.29 142.79 169.69 141.98 L 169.10 141.19 C 168.49 140.38 167.34 140.21 166.52 140.82 C 165.71 141.43 165.54 142.58 166.15 143.40 Z M 166.74 144.19 L 167.34 144.98 C 167.95 145.79 169.11 145.95 169.92 145.34 C 170.73 144.73 170.89 143.57 170.28 142.76 L 169.68 141.97 C 169.06 141.16 167.91 141.00 167.10 141.61 C 166.29 142.22 166.13 143.38 166.74 144.19 Z M 167.34 144.99 L 167.96 145.79 C 168.57 146.60 169.73 146.75 170.54 146.13 C 171.35 145.51 171.50 144.36 170.88 143.55 L 170.27 142.75 C 169.65 141.94 168.49 141.79 167.69 142.41 C 166.88 143.03 166.73 144.18 167.34 144.99 Z M 167.96 145.80 L 168.59 146.60 C 169.21 147.41 170.37 147.55 171.17 146.93 C 171.98 146.30 172.12 145.15 171.50 144.34 L 170.87 143.54 C 170.25 142.74 169.09 142.59 168.29 143.21 C 167.48 143.84 167.34 144.99 167.96 145.80 Z M 168.59 146.61 L 169.23 147.42 C 169.86 148.22 171.02 148.36 171.82 147.73 C 172.62 147.10 172.76 145.95 172.13 145.15 L 171.49 144.33 C 170.86 143.53 169.70 143.40 168.90 144.02 C 168.10 144.65 167.97 145.81 168.59 146.61 Z M 169.24 147.43 L 169.84 148.19 C 170.47 148.98 171.63 149.11 172.43 148.48 C 173.22 147.85 173.36 146.69 172.72 145.89 L 172.12 145.14 C 171.49 144.34 170.33 144.21 169.53 144.84 C 168.74 145.48 168.61 146.63 169.24 147.43 Z M 169.85 148.19 L 170.46 148.95 C 171.09 149.75 172.25 149.87 173.05 149.24 C 173.84 148.60 173.96 147.44 173.33 146.65 L 172.72 145.89 C 172.08 145.10 170.92 144.97 170.13 145.61 C 169.34 146.24 169.21 147.40 169.85 148.19 Z M 170.46 148.96 L 171.09 149.73 C 171.73 150.52 172.88 150.64 173.67 150.00 C 174.46 149.36 174.58 148.20 173.95 147.41 L 173.32 146.65 C 172.68 145.86 171.53 145.73 170.74 146.37 C 169.95 147.01 169.83 148.17 170.46 148.96 Z M 171.09 149.73 L 171.73 150.51 C 172.37 151.30 173.53 151.41 174.31 150.77 C 175.10 150.13 175.22 148.98 174.57 148.19 L 173.94 147.41 C 173.30 146.62 172.14 146.51 171.36 147.15 C 170.57 147.79 170.45 148.95 171.09 149.73 Z M 171.73 150.51 L 172.38 151.30 C 173.02 152.08 174.18 152.20 174.96 151.56 C 175.74 150.91 175.86 149.76 175.22 148.97 L 174.57 148.19 C 173.93 147.40 172.77 147.29 171.99 147.93 C 171.20 148.57 171.09 149.73 171.73 150.51 Z M 172.38 151.30 L 173.04 152.10 C 173.68 152.88 174.84 152.99 175.62 152.35 C 176.40 151.71 176.51 150.55 175.87 149.77 L 175.21 148.97 C 174.57 148.19 173.41 148.08 172.63 148.72 C 171.85 149.37 171.74 150.52 172.38 151.30 Z M 173.04 152.10 L 173.67 152.86 C 174.31 153.64 175.47 153.75 176.25 153.10 C 177.03 152.46 177.14 151.31 176.49 150.53 L 175.86 149.77 C 175.22 148.99 174.07 148.88 173.29 149.52 C 172.51 150.17 172.40 151.32 173.04 152.10 Z M 173.67 152.86 L 174.29 153.61 C 174.94 154.39 176.09 154.49 176.87 153.85 C 177.65 153.20 177.75 152.05 177.11 151.27 L 176.49 150.52 C 175.84 149.75 174.69 149.64 173.91 150.28 C 173.13 150.93 173.03 152.08 173.67 152.86 Z M 174.30 153.61 L 174.93 154.37 C 175.57 155.14 176.73 155.25 177.50 154.60 C 178.28 153.95 178.38 152.80 177.73 152.02 L 177.10 151.27 C 176.46 150.49 175.30 150.39 174.53 151.04 C 173.75 151.68 173.65 152.84 174.30 153.61 Z M 174.93 154.37 L 175.57 155.13 C 176.22 155.91 177.38 156.01 178.15 155.36 C 178.92 154.71 179.02 153.55 178.37 152.78 L 177.73 152.02 C 177.08 151.25 175.93 151.15 175.15 151.80 C 174.38 152.45 174.28 153.60 174.93 154.37 Z M 175.58 155.14 L 176.24 155.91 C 176.89 156.68 178.04 156.77 178.81 156.12 C 179.58 155.47 179.67 154.32 179.02 153.55 L 178.36 152.78 C 177.71 152.01 176.56 151.92 175.79 152.57 C 175.02 153.22 174.93 154.37 175.58 155.14 Z M 176.24 155.92 L 176.91 156.69 C 177.56 157.46 178.72 157.54 179.48 156.89 C 180.24 156.23 180.33 155.08 179.68 154.32 L 179.01 153.54 C 178.35 152.78 177.20 152.69 176.44 153.34 C 175.67 154.00 175.59 155.15 176.24 155.92 Z M 176.92 156.70 L 177.60 157.48 C 178.26 158.24 179.41 158.32 180.17 157.66 C 180.93 157.00 181.01 155.85 180.35 155.09 L 179.67 154.31 C 179.01 153.55 177.86 153.47 177.10 154.13 C 176.34 154.79 176.26 155.94 176.92 156.70 Z M 177.61 157.49 L 178.25 158.22 C 178.92 158.98 180.07 159.05 180.82 158.39 C 181.58 157.72 181.65 156.57 180.98 155.82 L 180.34 155.08 C 179.67 154.33 178.52 154.26 177.77 154.92 C 177.02 155.58 176.94 156.73 177.61 157.49 Z M 178.26 158.23 L 178.91 158.96 C 179.58 159.71 180.73 159.77 181.48 159.11 C 182.23 158.44 182.29 157.29 181.63 156.54 L 180.98 155.81 C 180.31 155.06 179.16 155.00 178.41 155.66 C 177.66 156.33 177.60 157.48 178.26 158.23 Z M 178.92 158.96 L 179.58 159.70 C 180.25 160.44 181.40 160.50 182.14 159.83 C 182.89 159.16 182.95 158.02 182.28 157.27 L 181.62 156.54 C 180.95 155.79 179.80 155.73 179.06 156.40 C 178.31 157.07 178.25 158.22 178.92 158.96 Z M 179.58 159.70 L 180.25 160.44 C 180.92 161.18 182.07 161.24 182.81 160.57 C 183.56 159.90 183.61 158.75 182.94 158.01 L 182.27 157.27 C 181.60 156.52 180.46 156.47 179.71 157.14 C 178.97 157.81 178.91 158.96 179.58 159.70 Z M 180.25 160.44 L 180.93 161.19 C 181.60 161.93 182.75 161.98 183.49 161.31 C 184.23 160.64 184.29 159.49 183.62 158.75 L 182.94 158.01 C 182.27 157.26 181.12 157.21 180.38 157.88 C 179.64 158.55 179.58 159.70 180.25 160.44 Z M 180.93 161.19 L 181.62 161.94 C 182.29 162.68 183.43 162.73 184.17 162.06 C 184.91 161.39 184.97 160.24 184.30 159.50 L 183.61 158.75 C 182.94 158.01 181.80 157.96 181.06 158.63 C 180.32 159.30 180.26 160.45 180.93 161.19 Z M 181.62 161.94 L 182.30 162.69 C 182.98 163.43 184.12 163.49 184.86 162.82 C 185.60 162.15 185.66 161.00 184.98 160.26 L 184.30 159.51 C 183.62 158.77 182.48 158.71 181.74 159.38 C 181.00 160.05 180.95 161.20 181.62 161.94 Z M 182.30 162.69 L 182.98 163.44 C 183.65 164.18 184.79 164.24 185.53 163.57 C 186.27 162.90 186.33 161.75 185.66 161.01 L 184.98 160.27 C 184.32 159.53 183.17 159.47 182.43 160.14 C 181.69 160.81 181.64 161.95 182.30 162.69 Z M 182.98 163.43 L 183.62 164.15 C 184.29 164.89 185.43 164.95 186.17 164.28 C 186.91 163.62 186.97 162.47 186.31 161.73 L 185.66 161.02 C 184.99 160.28 183.85 160.22 183.11 160.89 C 182.37 161.55 182.31 162.69 182.98 163.43 Z M 183.62 164.15 L 184.27 164.87 C 184.94 165.61 186.08 165.67 186.82 165.01 C 187.56 164.34 187.62 163.20 186.96 162.46 L 186.31 161.74 C 185.64 161.00 184.50 160.94 183.76 161.60 C 183.02 162.27 182.96 163.41 183.62 164.15 Z M 184.28 164.87 L 184.93 165.60 C 185.60 166.34 186.74 166.40 187.48 165.74 C 188.22 165.07 188.28 163.93 187.61 163.19 L 186.96 162.46 C 186.29 161.72 185.15 161.66 184.41 162.33 C 183.67 162.99 183.61 164.13 184.28 164.87 Z M 184.93 165.60 L 185.60 166.34 C 186.26 167.08 187.40 167.14 188.14 166.48 C 188.88 165.81 188.94 164.67 188.28 163.94 L 187.61 163.20 C 186.95 162.46 185.81 162.40 185.07 163.06 C 184.33 163.72 184.27 164.86 184.93 165.60 Z M 185.60 166.34 L 186.28 167.09 C 186.94 167.83 188.08 167.89 188.81 167.22 C 189.55 166.56 189.61 165.42 188.95 164.68 L 188.27 163.94 C 187.61 163.20 186.47 163.14 185.74 163.80 C 185.00 164.47 184.94 165.60 185.60 166.34 Z M 186.28 167.09 L 186.96 167.85 C 187.63 168.58 188.76 168.64 189.50 167.98 C 190.24 167.31 190.29 166.18 189.63 165.44 L 188.95 164.68 C 188.28 163.95 187.14 163.89 186.41 164.55 C 185.67 165.22 185.61 166.35 186.28 167.09 Z M 186.97 167.85 L 187.66 168.62 C 188.33 169.35 189.46 169.41 190.20 168.74 C 190.93 168.08 190.99 166.94 190.32 166.21 L 189.63 165.44 C 188.96 164.70 187.82 164.65 187.09 165.31 C 186.36 165.98 186.30 167.12 186.97 167.85 Z M 187.67 168.62 L 188.36 169.38 C 189.03 170.11 190.16 170.17 190.89 169.50 C 191.62 168.83 191.68 167.70 191.01 166.97 L 190.32 166.20 C 189.65 165.47 188.52 165.42 187.78 166.09 C 187.05 166.75 187.00 167.89 187.67 168.62 Z M 188.36 169.38 L 189.03 170.12 C 189.70 170.84 190.84 170.89 191.57 170.23 C 192.29 169.56 192.34 168.42 191.68 167.69 L 191.01 166.96 C 190.34 166.23 189.20 166.18 188.47 166.85 C 187.74 167.52 187.70 168.65 188.36 169.38 Z M 189.04 170.12 L 189.72 170.85 C 190.39 171.58 191.52 171.63 192.25 170.96 C 192.97 170.29 193.02 169.16 192.35 168.43 L 191.67 167.69 C 191.00 166.97 189.87 166.92 189.14 167.59 C 188.42 168.26 188.37 169.39 189.04 170.12 Z M 189.72 170.86 L 190.40 171.60 C 191.07 172.32 192.21 172.37 192.93 171.70 C 193.66 171.03 193.70 169.90 193.03 169.17 L 192.35 168.43 C 191.68 167.70 190.55 167.66 189.82 168.33 C 189.09 169.00 189.05 170.13 189.72 170.86 Z M 190.41 171.60 L 191.09 172.34 C 191.76 173.06 192.89 173.11 193.62 172.44 C 194.34 171.77 194.39 170.64 193.72 169.91 L 193.03 169.17 C 192.36 168.44 191.23 168.40 190.50 169.07 C 189.78 169.74 189.74 170.87 190.41 171.60 Z M 191.10 172.34 L 191.78 173.08 C 192.45 173.80 193.58 173.85 194.31 173.18 C 195.03 172.50 195.07 171.37 194.40 170.65 L 193.71 169.91 C 193.04 169.19 191.91 169.15 191.19 169.82 C 190.47 170.49 190.42 171.62 191.10 172.34 Z M 191.78 173.08 L 192.47 173.82 C 193.14 174.54 194.27 174.58 194.99 173.91 C 195.71 173.24 195.75 172.11 195.08 171.39 L 194.40 170.65 C 193.73 169.93 192.60 169.89 191.88 170.56 C 191.16 171.23 191.11 172.36 191.78 173.08 Z M 192.47 173.82 L 193.15 174.55 C 193.82 175.27 194.95 175.31 195.67 174.64 C 196.39 173.97 196.43 172.84 195.76 172.12 L 195.08 171.39 C 194.41 170.67 193.28 170.63 192.56 171.30 C 191.84 171.97 191.80 173.10 192.47 173.82 Z M 193.15 174.55 L 193.82 175.27 C 194.49 175.99 195.62 176.03 196.34 175.36 C 197.06 174.69 197.10 173.56 196.43 172.84 L 195.76 172.12 C 195.09 171.40 193.96 171.36 193.24 172.03 C 192.52 172.70 192.48 173.83 193.15 174.55 Z M 193.82 175.27 L 194.52 176.02 C 195.19 176.74 196.32 176.78 197.04 176.11 C 197.76 175.44 197.80 174.32 197.13 173.60 L 196.43 172.84 C 195.76 172.12 194.64 172.08 193.92 172.75 C 193.19 173.42 193.15 174.55 193.82 175.27 Z M 194.52 176.02 L 195.23 176.78 C 195.90 177.50 197.02 177.54 197.74 176.87 C 198.46 176.21 198.51 175.08 197.84 174.36 L 197.13 173.60 C 196.46 172.88 195.33 172.84 194.61 173.50 C 193.89 174.17 193.85 175.30 194.52 176.02 Z M 195.23 176.78 L 195.93 177.53 C 196.60 178.25 197.72 178.29 198.44 177.62 C 199.16 176.95 199.20 175.83 198.53 175.11 L 197.83 174.36 C 197.17 173.64 196.04 173.60 195.32 174.27 C 194.60 174.94 194.56 176.06 195.23 176.78 Z M 195.93 177.53 L 196.62 178.27 C 197.29 178.99 198.41 179.02 199.13 178.36 C 199.85 177.69 199.89 176.56 199.22 175.85 L 198.53 175.11 C 197.86 174.39 196.74 174.35 196.02 175.02 C 195.30 175.69 195.26 176.82 195.93 177.53 Z M 196.63 178.27 L 197.31 179.00 C 197.98 179.71 199.10 179.75 199.81 179.08 C 200.53 178.40 200.56 177.28 199.89 176.57 L 199.21 175.84 C 198.54 175.13 197.42 175.09 196.70 175.76 C 195.99 176.43 195.95 177.56 196.63 178.27 Z M 197.31 179.00 L 197.99 179.71 C 198.66 180.42 199.78 180.45 200.49 179.78 C 201.20 179.11 201.23 177.99 200.56 177.28 L 199.89 176.56 C 199.21 175.85 198.09 175.82 197.38 176.49 C 196.67 177.17 196.64 178.29 197.31 179.00 Z M 197.99 179.72 L 198.66 180.42 C 199.34 181.13 200.46 181.15 201.17 180.48 C 201.87 179.80 201.90 178.68 201.22 177.97 L 200.55 177.27 C 199.88 176.56 198.76 176.54 198.05 177.21 C 197.34 177.89 197.32 179.01 197.99 179.72 Z M 198.67 180.43 L 199.34 181.12 C 200.02 181.82 201.14 181.84 201.84 181.16 C 202.54 180.48 202.56 179.36 201.88 178.65 L 201.21 177.96 C 200.53 177.26 199.41 177.24 198.71 177.92 C 198.01 178.60 197.99 179.72 198.67 180.43 Z M 199.35 181.12 L 200.06 181.84 C 200.74 182.54 201.86 182.55 202.56 181.86 C 203.25 181.18 203.26 180.06 202.58 179.36 L 201.87 178.65 C 201.19 177.95 200.07 177.94 199.37 178.62 C 198.68 179.31 198.67 180.43 199.35 181.12 Z M 200.07 181.85 L 200.79 182.57 C 201.48 183.26 202.59 183.27 203.29 182.58 C 203.98 181.89 203.98 180.77 203.29 180.08 L 202.57 179.36 C 201.88 178.67 200.76 178.66 200.07 179.35 C 199.38 180.04 199.38 181.16 200.07 181.85 Z M 200.80 182.58 L 201.52 183.29 C 202.21 183.98 203.32 183.97 204.01 183.28 C 204.70 182.59 204.69 181.47 204.00 180.79 L 203.28 180.07 C 202.59 179.39 201.47 179.39 200.78 180.08 C 200.10 180.78 200.10 181.89 200.80 182.58 Z M 201.52 183.30 L 202.24 184.00 C 202.93 184.68 204.05 184.67 204.73 183.98 C 205.41 183.28 205.40 182.17 204.71 181.49 L 203.99 180.78 C 203.30 180.10 202.18 180.11 201.50 180.80 C 200.82 181.50 200.83 182.61 201.52 183.30 Z M 202.24 184.00 L 202.96 184.70 C 203.65 185.38 204.77 185.36 205.45 184.67 C 206.13 183.97 206.11 182.86 205.42 182.18 L 204.70 181.48 C 204.01 180.80 202.89 180.82 202.21 181.51 C 201.53 182.21 201.55 183.32 202.24 184.00 Z M 202.96 184.70 L 203.67 185.39 C 204.36 186.06 205.48 186.05 206.15 185.35 C 206.83 184.66 206.82 183.54 206.12 182.87 L 205.41 182.18 C 204.72 181.50 203.60 181.51 202.93 182.21 C 202.25 182.91 202.26 184.02 202.96 184.70 Z M 203.67 185.39 L 204.37 186.07 C 205.06 186.74 206.18 186.73 206.85 186.04 C 207.53 185.34 207.52 184.23 206.82 183.55 L 206.12 182.87 C 205.42 182.19 204.31 182.20 203.63 182.90 C 202.96 183.60 202.97 184.71 203.67 185.39 Z M 204.37 186.06 L 205.08 186.76 C 205.77 187.44 206.89 187.43 207.56 186.73 C 208.24 186.04 208.23 184.93 207.54 184.25 L 206.82 183.55 C 206.13 182.88 205.02 182.89 204.34 183.58 C 203.66 184.27 203.67 185.39 204.37 186.06 Z M 205.08 186.76 L 205.82 187.49 C 206.51 188.17 207.62 188.16 208.30 187.47 C 208.98 186.78 208.97 185.66 208.28 184.99 L 207.54 184.26 C 206.85 183.58 205.74 183.59 205.06 184.28 C 204.38 184.97 204.39 186.08 205.08 186.76 Z M 205.82 187.48 L 206.55 188.21 C 207.24 188.88 208.35 188.88 209.03 188.19 C 209.71 187.50 209.70 186.39 209.01 185.71 L 208.28 184.99 C 207.59 184.31 206.48 184.32 205.80 185.01 C 205.12 185.70 205.13 186.80 205.82 187.48 Z M 206.55 188.20 L 207.27 188.91 C 207.96 189.59 209.07 189.59 209.75 188.90 C 210.43 188.21 210.42 187.10 209.73 186.42 L 209.01 185.71 C 208.32 185.03 207.22 185.04 206.54 185.73 C 205.86 186.42 205.86 187.52 206.55 188.20 Z M 207.27 188.91 L 207.98 189.61 C 208.67 190.29 209.77 190.28 210.45 189.60 C 211.13 188.91 211.12 187.80 210.44 187.13 L 209.73 186.43 C 209.04 185.75 207.94 185.75 207.26 186.44 C 206.58 187.13 206.59 188.23 207.27 188.91 Z M 207.98 189.61 L 208.68 190.30 C 209.36 190.97 210.47 190.97 211.15 190.28 C 211.82 189.59 211.82 188.49 211.13 187.81 L 210.43 187.13 C 209.75 186.45 208.64 186.46 207.97 187.14 C 207.29 187.83 207.30 188.94 207.98 189.61 Z M 208.68 190.30 L 209.36 190.97 C 210.05 191.64 211.16 191.63 211.83 190.94 C 212.51 190.26 212.49 189.15 211.81 188.48 L 211.13 187.81 C 210.44 187.13 209.33 187.14 208.66 187.83 C 207.98 188.52 207.99 189.62 208.68 190.30 Z M 209.37 190.97 L 210.10 191.68 C 210.79 192.35 211.89 192.34 212.56 191.65 C 213.24 190.96 213.22 189.86 212.53 189.19 L 211.80 188.48 C 211.11 187.80 210.01 187.82 209.34 188.51 C 208.67 189.20 208.68 190.30 209.37 190.97 Z M 210.11 191.69 L 210.86 192.41 C 211.55 193.08 212.65 193.06 213.32 192.37 C 213.99 191.68 213.97 190.58 213.28 189.91 L 212.53 189.18 C 211.83 188.52 210.73 188.53 210.06 189.23 C 209.40 189.92 209.42 191.02 210.11 191.69 Z M 210.86 192.42 L 211.60 193.12 C 212.29 193.79 213.39 193.76 214.06 193.07 C 214.72 192.38 214.70 191.28 214.01 190.61 L 213.27 189.91 C 212.58 189.24 211.48 189.27 210.81 189.96 C 210.15 190.65 210.17 191.75 210.86 192.42 Z M 211.60 193.12 L 212.32 193.81 C 213.02 194.47 214.12 194.44 214.78 193.75 C 215.44 193.05 215.41 191.96 214.72 191.29 L 214.00 190.61 C 213.31 189.95 212.21 189.97 211.55 190.67 C 210.88 191.36 210.91 192.46 211.60 193.12 Z M 212.33 193.81 L 213.03 194.48 C 213.72 195.13 214.82 195.11 215.48 194.41 C 216.14 193.72 216.11 192.62 215.42 191.96 L 214.71 191.29 C 214.02 190.63 212.92 190.66 212.26 191.36 C 211.60 192.05 211.63 193.15 212.33 193.81 Z M 213.03 194.48 L 213.72 195.13 C 214.42 195.78 215.51 195.75 216.17 195.06 C 216.83 194.36 216.80 193.27 216.10 192.61 L 215.41 191.96 C 214.72 191.30 213.62 191.33 212.96 192.03 C 212.31 192.72 212.34 193.82 213.03 194.48 Z M 213.72 195.13 L 214.46 195.82 C 215.15 196.48 216.25 196.44 216.90 195.75 C 217.56 195.05 217.53 193.96 216.83 193.30 L 216.10 192.61 C 215.40 191.95 214.31 191.99 213.65 192.68 C 213.00 193.38 213.03 194.47 213.72 195.13 Z M 214.46 195.82 L 215.20 196.51 C 215.89 197.17 216.99 197.14 217.64 196.44 C 218.30 195.75 218.26 194.65 217.57 194.00 L 216.83 193.30 C 216.14 192.65 215.04 192.68 214.39 193.38 C 213.73 194.07 213.77 195.16 214.46 195.82 Z M 215.20 196.51 L 215.93 197.20 C 216.62 197.85 217.71 197.82 218.37 197.13 C 219.02 196.43 218.99 195.34 218.29 194.69 L 217.57 194.00 C 216.87 193.35 215.78 193.38 215.13 194.07 C 214.47 194.77 214.51 195.86 215.20 196.51 Z M 215.93 197.20 L 216.65 197.88 C 217.34 198.53 218.43 198.49 219.09 197.80 C 219.74 197.11 219.71 196.02 219.01 195.37 L 218.29 194.69 C 217.60 194.04 216.51 194.07 215.86 194.76 C 215.20 195.45 215.24 196.54 215.93 197.20 Z M 216.65 197.87 L 217.37 198.55 C 218.06 199.20 219.15 199.17 219.80 198.47 C 220.45 197.78 220.42 196.69 219.73 196.04 L 219.01 195.37 C 218.32 194.72 217.23 194.75 216.58 195.44 C 215.93 196.13 215.96 197.22 216.65 197.87 Z M 217.37 198.55 L 218.06 199.20 C 218.75 199.85 219.84 199.82 220.49 199.12 C 221.14 198.43 221.11 197.35 220.42 196.69 L 219.72 196.04 C 219.03 195.39 217.95 195.42 217.29 196.12 C 216.64 196.81 216.68 197.90 217.37 198.55 Z M 218.06 199.20 L 218.74 199.84 C 219.44 200.49 220.52 200.45 221.17 199.76 C 221.82 199.07 221.79 197.98 221.10 197.33 L 220.42 196.70 C 219.72 196.05 218.64 196.08 217.99 196.77 C 217.34 197.46 217.37 198.55 218.06 199.20 Z M 218.75 199.84 L 219.45 200.49 C 220.14 201.14 221.22 201.10 221.87 200.41 C 222.52 199.72 222.48 198.63 221.79 197.99 L 221.09 197.33 C 220.40 196.69 219.31 196.72 218.67 197.41 C 218.02 198.11 218.06 199.19 218.75 199.84 Z M 219.45 200.49 L 220.18 201.17 C 220.87 201.81 221.95 201.77 222.60 201.08 C 223.24 200.39 223.20 199.30 222.51 198.66 L 221.78 197.98 C 221.09 197.34 220.01 197.38 219.36 198.07 C 218.72 198.77 218.76 199.85 219.45 200.49 Z M 220.19 201.17 L 220.95 201.88 C 221.65 202.52 222.73 202.47 223.37 201.78 C 224.01 201.08 223.96 200.00 223.27 199.36 L 222.50 198.66 C 221.81 198.02 220.73 198.06 220.09 198.75 C 219.45 199.45 219.49 200.53 220.19 201.17 Z M 220.96 201.88 L 221.78 202.63 C 222.48 203.26 223.55 203.21 224.19 202.52 C 224.83 201.82 224.78 200.74 224.08 200.11 L 223.26 199.36 C 222.56 198.72 221.48 198.77 220.85 199.47 C 220.21 200.17 220.26 201.25 220.96 201.88 Z M 221.79 202.63 L 222.50 203.27 C 223.19 203.90 224.27 203.85 224.90 203.15 C 225.53 202.45 225.48 201.37 224.78 200.74 L 224.07 200.10 C 223.37 199.47 222.30 199.53 221.66 200.22 C 221.03 200.92 221.09 202.00 221.79 202.63 Z M 222.50 203.28 L 223.24 203.93 C 223.94 204.56 225.02 204.50 225.64 203.80 C 226.27 203.10 226.21 202.02 225.51 201.39 L 224.77 200.74 C 224.07 200.11 223.00 200.17 222.37 200.87 C 221.74 201.57 221.80 202.65 222.50 203.28 Z M 223.25 203.94 L 224.01 204.61 C 224.71 205.23 225.79 205.16 226.41 204.46 C 227.03 203.75 226.96 202.68 226.26 202.06 L 225.50 201.39 C 224.79 200.77 223.72 200.83 223.10 201.54 C 222.48 202.24 222.54 203.32 223.25 203.94 Z M 224.02 204.62 L 224.79 205.29 C 225.50 205.90 226.58 205.82 227.19 205.12 C 227.80 204.41 227.73 203.33 227.02 202.72 L 226.24 202.05 C 225.54 201.43 224.46 201.51 223.85 202.22 C 223.23 202.93 223.31 204.00 224.02 204.62 Z M 224.81 205.30 L 225.59 205.96 C 226.30 206.57 227.37 206.48 227.98 205.77 C 228.59 205.05 228.50 203.98 227.79 203.37 L 227.00 202.71 C 226.29 202.10 225.22 202.19 224.61 202.90 C 224.01 203.62 224.09 204.69 224.81 205.30 Z M 225.61 205.97 L 226.39 206.62 C 227.11 207.22 228.18 207.12 228.77 206.40 C 229.37 205.68 229.27 204.61 228.55 204.01 L 227.77 203.36 C 227.05 202.77 225.98 202.87 225.38 203.59 C 224.79 204.31 224.89 205.37 225.61 205.97 Z M 226.41 206.63 L 227.18 207.25 C 227.91 207.84 228.97 207.73 229.56 207.00 C 230.14 206.27 230.03 205.20 229.30 204.62 L 228.53 204.00 C 227.80 203.41 226.74 203.53 226.15 204.25 C 225.56 204.98 225.68 206.05 226.41 206.63 Z M 227.21 207.27 L 228.00 207.89 C 228.74 208.46 229.80 208.32 230.37 207.59 C 230.94 206.85 230.81 205.79 230.07 205.22 L 229.27 204.60 C 228.54 204.03 227.48 204.17 226.91 204.90 C 226.34 205.64 226.47 206.70 227.21 207.27 Z M 228.04 207.90 L 228.83 208.48 C 229.57 209.03 230.62 208.88 231.17 208.13 C 231.72 207.39 231.57 206.34 230.82 205.79 L 230.03 205.20 C 229.29 204.65 228.24 204.81 227.69 205.56 C 227.14 206.30 227.29 207.35 228.04 207.90 Z M 228.87 208.50 L 229.66 209.06 C 230.42 209.59 231.46 209.40 231.99 208.65 C 232.51 207.89 232.33 206.85 231.58 206.33 L 230.78 205.77 C 230.03 205.24 228.99 205.43 228.46 206.18 C 227.93 206.93 228.11 207.97 228.87 208.50 Z M 229.71 209.08 L 230.52 209.61 C 231.29 210.12 232.31 209.90 232.82 209.14 C 233.32 208.38 233.11 207.35 232.35 206.84 L 231.53 206.31 C 230.77 205.80 229.74 206.02 229.24 206.78 C 228.73 207.54 228.94 208.57 229.71 209.08 Z M 230.57 209.63 L 231.41 210.15 C 232.19 210.63 233.20 210.39 233.68 209.62 C 234.16 208.85 233.92 207.83 233.15 207.35 L 232.30 206.83 C 231.53 206.35 230.51 206.59 230.03 207.36 C 229.55 208.14 229.79 209.15 230.57 209.63 Z M 231.46 210.17 L 232.35 210.69 C 233.13 211.14 234.13 210.88 234.59 210.09 C 235.04 209.31 234.78 208.31 234.00 207.85 L 233.10 207.34 C 232.32 206.88 231.32 207.15 230.86 207.93 C 230.41 208.71 230.68 209.71 231.46 210.17 Z M 232.39 210.70 L 233.26 211.18 C 234.05 211.61 235.04 211.32 235.47 210.53 C 235.91 209.74 235.62 208.75 234.83 208.32 L 233.95 207.84 C 233.17 207.41 232.18 207.70 231.74 208.49 C 231.31 209.28 231.60 210.27 232.39 210.70 Z M 233.30 211.19 L 234.12 211.61 C 234.91 212.03 235.89 211.72 236.30 210.93 C 236.72 210.13 236.41 209.15 235.62 208.74 L 234.80 208.31 C 234.00 207.90 233.02 208.20 232.61 209.00 C 232.19 209.79 232.50 210.77 233.30 211.19 Z M 234.14 211.62 L 235.00 212.05 C 235.79 212.45 236.76 212.13 237.17 211.33 C 237.57 210.54 237.24 209.57 236.45 209.17 L 235.59 208.73 C 234.80 208.33 233.82 208.65 233.42 209.45 C 233.02 210.25 233.34 211.22 234.14 211.62 Z M 235.02 212.05 L 235.91 212.48 C 236.70 212.87 237.67 212.54 238.06 211.75 C 238.44 210.95 238.11 209.99 237.32 209.60 L 236.43 209.16 C 235.63 208.77 234.67 209.10 234.28 209.90 C 233.89 210.70 234.22 211.66 235.02 212.05 Z M 235.92 212.48 L 236.84 212.92 C 237.63 213.30 238.59 212.96 238.97 212.16 C 239.35 211.37 239.01 210.41 238.21 210.03 L 237.30 209.60 C 236.50 209.22 235.55 209.55 235.17 210.35 C 234.79 211.15 235.13 212.10 235.92 212.48 Z M 236.85 212.92 L 237.78 213.35 C 238.58 213.73 239.53 213.38 239.90 212.59 C 240.27 211.79 239.93 210.84 239.13 210.47 L 238.20 210.03 C 237.40 209.66 236.45 210.00 236.08 210.80 C 235.71 211.60 236.05 212.55 236.85 212.92 Z M 237.79 213.35 L 238.74 213.79 C 239.53 214.16 240.48 213.81 240.84 213.02 C 241.21 212.22 240.87 211.28 240.07 210.91 L 239.12 210.47 C 238.33 210.11 237.39 210.45 237.02 211.25 C 236.65 212.04 237.00 212.98 237.79 213.35 Z M 238.75 213.78 L 239.70 214.22 C 240.50 214.59 241.43 214.24 241.80 213.45 C 242.16 212.65 241.81 211.72 241.02 211.35 L 240.06 210.92 C 239.27 210.55 238.33 210.90 237.97 211.69 C 237.61 212.48 237.95 213.42 238.75 213.78 Z M 239.71 214.22 L 240.29 214.48 C 241.08 214.85 242.01 214.50 242.37 213.71 C 242.73 212.92 242.38 211.98 241.60 211.62 L 241.02 211.36 C 240.23 211.00 239.29 211.34 238.93 212.13 C 238.57 212.92 238.92 213.86 239.71 214.22 Z"
      fill="black"
      fill-rule="nonzero" /></svg>