<svg xmlns="http://www.w3.org/2000/svg" width="300" height="300" viewBox="0 0 300 300">
<path d="M 111.92 111.04 L 110.63 111.40 C 109.70 111.66 109.15 112.63 109.41 113.57 C 109.67 114.51 110.65 115.05 111.58 114.79 L 112.87 114.43 C 113.81 114.17 114.36 113.19 114.09 112.26 C 113.83 111.32 112.86 110.77 111.92 111.04 Z M 110.53 111.36 L 109.44 111.73 C 108.48 112.05 107.96 113.08 108.28 114.04 C 108.60 115.00 109.64 115.51 110.59 115.19 L 111.69 114.82 C 112.64 114.50 113.16 113.47 112.84 112.51 C 112.52 111.56 111.48 111.04 110.53 111.36 Z M 109.12 111.80 L 108.42 112.17 C 107.50 112.66 107.16 113.81 107.65 114.73 C 108.14 115.64 109.29 115.99 110.21 115.50 L 110.91 115.12 C 111.83 114.63 112.17 113.49 111.68 112.57 C 111.19 111.65 110.04 111.30 109.12 111.80 Z M 107.46 113.26 L 107.34 113.64 C 107.03 114.66 107.60 115.75 108.62 116.07 C 109.64 116.39 110.73 115.81 111.05 114.79 L 111.17 114.41 C 111.49 113.39 110.92 112.30 109.89 111.98 C 108.87 111.66 107.78 112.23 107.46 113.26 Z M 107.99 115.76 L 108.46 116.13 C 109.31 116.79 110.54 116.64 111.21 115.79 C 111.88 114.94 111.73 113.70 110.88 113.03 L 110.41 112.67 C 109.55 112.00 108.32 112.15 107.65 113.00 C 106.98 113.86 107.13 115.09 107.99 115.76 Z M 108.96 116.42 L 109.88 116.77 C 110.90 117.16 112.03 116.65 112.42 115.64 C 112.81 114.62 112.30 113.49 111.29 113.10 L 110.37 112.75 C 109.36 112.36 108.22 112.86 107.83 113.88 C 107.44 114.89 107.95 116.03 108.96 116.42 Z M 110.10 116.84 L 111.35 117.15 C 112.40 117.42 113.47 116.79 113.74 115.73 C 114.00 114.68 113.37 113.61 112.32 113.34 L 111.07 113.03 C 110.02 112.76 108.95 113.40 108.68 114.45 C 108.41 115.50 109.05 116.57 110.10 116.84 Z M 111.47 117.18 L 112.64 117.40 C 113.71 117.60 114.73 116.89 114.93 115.83 C 115.13 114.76 114.43 113.73 113.36 113.53 L 112.19 113.31 C 111.12 113.12 110.09 113.82 109.90 114.89 C 109.70 115.96 110.40 116.99 111.47 117.18 Z M 112.72 117.41 L 113.53 117.53 C 114.60 117.69 115.60 116.94 115.76 115.86 C 115.91 114.79 115.17 113.79 114.09 113.64 L 113.28 113.52 C 112.20 113.36 111.21 114.11 111.05 115.18 C 110.89 116.26 111.64 117.26 112.72 117.41 Z M 113.58 117.54 L 114.44 117.64 C 115.52 117.76 116.50 116.99 116.62 115.91 C 116.75 114.83 115.97 113.85 114.89 113.73 L 114.03 113.63 C 112.95 113.50 111.98 114.28 111.85 115.36 C 111.73 116.44 112.50 117.41 113.58 117.54 Z M 114.49 117.64 L 115.41 117.73 C 116.49 117.82 117.45 117.03 117.54 115.94 C 117.64 114.86 116.84 113.90 115.76 113.81 L 114.84 113.72 C 113.76 113.62 112.80 114.42 112.71 115.51 C 112.61 116.59 113.41 117.54 114.49 117.64 Z M 115.45 117.73 L 116.43 117.80 C 117.52 117.87 118.46 117.05 118.53 115.97 C 118.61 114.89 117.79 113.95 116.71 113.87 L 115.72 113.80 C 114.64 113.73 113.70 114.55 113.62 115.63 C 113.55 116.71 114.36 117.65 115.45 117.73 Z M 116.47 117.80 L 117.54 117.85 C 118.62 117.91 119.55 117.08 119.60 115.99 C 119.66 114.91 118.83 113.98 117.74 113.92 L 116.67 113.87 C 115.59 113.81 114.66 114.65 114.61 115.73 C 114.55 116.82 115.38 117.74 116.47 117.80 Z M 117.56 117.86 L 118.72 117.90 C 119.81 117.94 120.72 117.09 120.76 116.01 C 120.80 114.92 119.96 114.01 118.87 113.97 L 117.71 113.92 C 116.63 113.88 115.71 114.73 115.67 115.81 C 115.63 116.90 116.48 117.81 117.56 117.86 Z M 118.74 117.90 L 120.00 117.93 C 121.09 117.96 121.99 117.11 122.02 116.02 C 122.05 114.93 121.19 114.03 120.11 114.00 L 118.85 113.97 C 117.76 113.94 116.86 114.79 116.83 115.88 C 116.80 116.97 117.66 117.87 118.74 117.90 Z M 120.01 117.93 L 120.91 117.95 C 122.00 117.97 122.90 117.11 122.92 116.02 C 122.94 114.94 122.08 114.04 120.99 114.02 L 120.09 114.00 C 119.01 113.98 118.11 114.84 118.09 115.93 C 118.06 117.01 118.93 117.91 120.01 117.93 Z M 120.93 117.95 L 121.87 117.96 C 122.96 117.98 123.85 117.11 123.86 116.02 C 123.88 114.94 123.01 114.04 121.92 114.03 L 120.98 114.02 C 119.89 114.00 119.00 114.87 118.99 115.96 C 118.97 117.04 119.84 117.94 120.93 117.95 Z M 121.88 117.96 L 122.86 117.97 C 123.95 117.98 124.83 117.10 124.84 116.01 C 124.85 114.93 123.97 114.04 122.89 114.04 L 121.91 114.03 C 120.82 114.02 119.93 114.90 119.93 115.99 C 119.92 117.07 120.80 117.96 121.88 117.96 Z M 122.88 117.97 L 123.88 117.97 C 124.97 117.96 125.85 117.08 125.85 115.99 C 125.84 114.91 124.96 114.03 123.87 114.03 L 122.87 114.04 C 121.78 114.04 120.90 114.92 120.91 116.01 C 120.91 117.09 121.79 117.97 122.88 117.97 Z M 123.90 117.97 L 124.93 117.95 C 126.01 117.94 126.88 117.05 126.87 115.96 C 126.86 114.88 125.96 114.01 124.88 114.02 L 123.85 114.03 C 122.77 114.05 121.90 114.94 121.91 116.02 C 121.93 117.11 122.82 117.98 123.90 117.97 Z M 124.95 117.95 L 125.99 117.93 C 127.07 117.90 127.93 117.00 127.91 115.92 C 127.88 114.83 126.98 113.97 125.89 114.00 L 124.86 114.02 C 123.77 114.05 122.91 114.95 122.94 116.03 C 122.96 117.12 123.86 117.98 124.95 117.95 Z M 126.01 117.93 L 127.05 117.89 C 128.14 117.85 128.99 116.94 128.95 115.85 C 128.91 114.77 128.00 113.92 126.91 113.96 L 125.87 114.00 C 124.78 114.04 123.94 114.95 123.98 116.03 C 124.01 117.12 124.93 117.97 126.01 117.93 Z M 127.08 117.89 L 128.12 117.84 C 129.20 117.78 130.04 116.86 129.98 115.77 C 129.93 114.69 129.00 113.85 127.92 113.91 L 126.88 113.96 C 125.80 114.02 124.96 114.94 125.02 116.02 C 125.07 117.11 126.00 117.94 127.08 117.89 Z M 128.15 117.83 L 129.18 117.76 C 130.26 117.69 131.08 116.75 131.01 115.67 C 130.94 114.59 130.00 113.77 128.91 113.84 L 127.89 113.91 C 126.80 113.98 125.99 114.92 126.06 116.00 C 126.13 117.09 127.07 117.91 128.15 117.83 Z M 129.22 117.76 L 130.23 117.67 C 131.31 117.58 132.11 116.63 132.02 115.54 C 131.92 114.46 130.97 113.66 129.89 113.76 L 128.88 113.84 C 127.80 113.94 126.99 114.89 127.09 115.97 C 127.18 117.05 128.14 117.85 129.22 117.76 Z M 130.27 117.67 L 131.25 117.56 C 132.33 117.44 133.11 116.47 132.99 115.39 C 132.88 114.31 131.90 113.53 130.83 113.65 L 129.84 113.76 C 128.76 113.88 127.98 114.85 128.10 115.93 C 128.22 117.01 129.19 117.79 130.27 117.67 Z M 131.31 117.55 L 132.33 117.41 C 133.40 117.27 134.15 116.28 134.01 115.20 C 133.86 114.13 132.87 113.37 131.80 113.52 L 130.77 113.66 C 129.70 113.81 128.95 114.80 129.09 115.87 C 129.24 116.95 130.23 117.70 131.31 117.55 Z M 132.38 117.40 L 133.38 117.23 C 134.45 117.06 135.17 116.05 134.99 114.98 C 134.81 113.91 133.80 113.19 132.74 113.37 L 131.74 113.53 C 130.67 113.71 129.95 114.72 130.13 115.79 C 130.31 116.86 131.32 117.58 132.38 117.40 Z M 133.44 117.22 L 134.40 117.03 C 135.46 116.82 136.15 115.79 135.94 114.73 C 135.73 113.67 134.71 112.98 133.65 113.19 L 132.68 113.38 C 131.62 113.59 130.93 114.62 131.14 115.68 C 131.35 116.74 132.38 117.43 133.44 117.22 Z M 134.46 117.01 L 135.41 116.79 C 136.46 116.55 137.12 115.51 136.88 114.46 C 136.64 113.41 135.59 112.75 134.54 112.99 L 133.59 113.21 C 132.54 113.45 131.88 114.50 132.12 115.55 C 132.36 116.60 133.41 117.25 134.46 117.01 Z M 135.46 116.78 L 136.40 116.53 C 137.44 116.26 138.06 115.20 137.79 114.16 C 137.52 113.12 136.46 112.50 135.42 112.77 L 134.48 113.01 C 133.44 113.28 132.82 114.34 133.09 115.38 C 133.36 116.42 134.42 117.05 135.46 116.78 Z M 136.45 116.51 L 137.38 116.25 C 138.41 115.95 139.00 114.87 138.71 113.84 C 138.41 112.81 137.33 112.22 136.30 112.52 L 135.37 112.78 C 134.34 113.08 133.75 114.16 134.05 115.19 C 134.34 116.22 135.42 116.81 136.45 116.51 Z M 137.43 116.23 L 138.36 115.93 C 139.38 115.61 139.94 114.52 139.62 113.50 C 139.30 112.48 138.21 111.91 137.19 112.24 L 136.25 112.53 C 135.24 112.86 134.67 113.95 134.99 114.97 C 135.32 115.99 136.41 116.55 137.43 116.23 Z M 138.40 115.91 L 139.34 115.59 C 140.35 115.24 140.89 114.14 140.54 113.13 C 140.20 112.12 139.10 111.59 138.09 111.93 L 137.15 112.26 C 136.14 112.60 135.60 113.70 135.94 114.71 C 136.29 115.72 137.39 116.26 138.40 115.91 Z M 139.38 115.57 L 140.33 115.22 C 141.33 114.86 141.85 113.75 141.48 112.75 C 141.12 111.75 140.01 111.24 139.01 111.60 L 138.05 111.95 C 137.05 112.32 136.54 113.42 136.90 114.42 C 137.27 115.42 138.38 115.94 139.38 115.57 Z M 140.36 115.21 L 141.34 114.83 C 142.33 114.45 142.83 113.34 142.44 112.34 C 142.06 111.35 140.95 110.86 139.96 111.24 L 138.98 111.62 C 137.99 112.00 137.49 113.11 137.87 114.10 C 138.26 115.10 139.37 115.59 140.36 115.21 Z M 141.36 114.82 L 142.26 114.46 C 143.24 114.07 143.72 112.95 143.33 111.96 C 142.94 110.98 141.82 110.50 140.83 110.89 L 139.94 111.25 C 138.95 111.65 138.47 112.76 138.87 113.75 C 139.26 114.73 140.38 115.21 141.36 114.82 Z M 142.28 114.45 L 143.15 114.09 C 144.13 113.68 144.59 112.56 144.19 111.59 C 143.79 110.61 142.67 110.14 141.69 110.55 L 140.82 110.91 C 139.84 111.31 139.37 112.43 139.78 113.41 C 140.18 114.38 141.30 114.85 142.28 114.45 Z M 143.17 114.08 L 144.06 113.70 C 145.03 113.29 145.48 112.17 145.07 111.19 C 144.66 110.22 143.54 109.77 142.56 110.18 L 141.67 110.56 C 140.70 110.97 140.25 112.09 140.66 113.06 C 141.07 114.03 142.19 114.49 143.17 114.08 Z M 144.07 113.69 L 144.97 113.30 C 145.94 112.88 146.38 111.75 145.96 110.79 C 145.54 109.82 144.42 109.38 143.45 109.80 L 142.55 110.19 C 141.58 110.61 141.14 111.73 141.56 112.70 C 141.98 113.67 143.10 114.11 144.07 113.69 Z M 144.99 113.28 L 145.90 112.88 C 146.86 112.45 147.29 111.32 146.87 110.36 C 146.44 109.40 145.31 108.97 144.35 109.40 L 143.44 109.81 C 142.48 110.24 142.05 111.36 142.48 112.32 C 142.90 113.28 144.03 113.71 144.99 113.28 Z M 145.92 112.87 L 146.84 112.44 C 147.79 112.01 148.21 110.88 147.78 109.93 C 147.34 108.98 146.21 108.56 145.26 108.99 L 144.34 109.41 C 143.39 109.85 142.97 110.97 143.40 111.93 C 143.84 112.88 144.96 113.30 145.92 112.87 Z M 146.85 112.43 L 147.78 112.00 C 148.72 111.56 149.13 110.43 148.69 109.48 C 148.25 108.54 147.12 108.13 146.17 108.57 L 145.25 109.00 C 144.30 109.45 143.89 110.57 144.33 111.52 C 144.78 112.47 145.90 112.88 146.85 112.43 Z M 147.79 111.99 L 148.72 111.55 C 149.66 111.10 150.06 109.97 149.61 109.03 C 149.16 108.09 148.03 107.69 147.09 108.14 L 146.16 108.58 C 145.22 109.03 144.82 110.16 145.27 111.10 C 145.72 112.04 146.85 112.44 147.79 111.99 Z M 148.73 111.54 L 149.65 111.08 C 150.59 110.63 150.98 109.50 150.52 108.56 C 150.06 107.63 148.93 107.24 148.00 107.70 L 147.07 108.15 C 146.14 108.61 145.75 109.74 146.21 110.67 C 146.67 111.61 147.79 111.99 148.73 111.54 Z M 149.67 111.07 L 150.59 110.61 C 151.52 110.15 151.89 109.02 151.43 108.09 C 150.96 107.16 149.83 106.78 148.90 107.25 L 147.98 107.71 C 147.06 108.17 146.68 109.30 147.14 110.23 C 147.61 111.16 148.74 111.54 149.67 111.07 Z M 150.60 110.60 L 151.51 110.14 C 152.43 109.66 152.80 108.53 152.33 107.61 C 151.85 106.69 150.72 106.32 149.80 106.80 L 148.89 107.26 C 147.97 107.73 147.60 108.86 148.08 109.79 C 148.55 110.71 149.68 111.07 150.60 110.60 Z M 151.52 110.12 L 152.42 109.65 C 153.34 109.17 153.69 108.04 153.21 107.12 C 152.73 106.21 151.60 105.86 150.68 106.34 L 149.79 106.81 C 148.87 107.29 148.52 108.42 149.00 109.33 C 149.48 110.25 150.61 110.60 151.52 110.12 Z M 152.44 109.64 L 153.39 109.13 C 154.30 108.64 154.64 107.51 154.15 106.60 C 153.66 105.69 152.53 105.35 151.62 105.84 L 150.67 106.35 C 149.76 106.84 149.42 107.97 149.91 108.88 C 150.40 109.79 151.53 110.13 152.44 109.64 Z M 153.40 109.11 L 154.38 108.57 C 155.27 108.08 155.60 106.95 155.10 106.05 C 154.61 105.15 153.48 104.82 152.58 105.32 L 151.61 105.86 C 150.71 106.35 150.38 107.48 150.88 108.38 C 151.37 109.28 152.50 109.60 153.40 109.11 Z M 154.39 108.55 L 155.34 108.02 C 156.23 107.51 156.54 106.39 156.04 105.50 C 155.54 104.61 154.41 104.30 153.52 104.80 L 152.57 105.34 C 151.68 105.84 151.37 106.97 151.87 107.85 C 152.37 108.74 153.50 109.06 154.39 108.55 Z M 155.35 108.00 L 156.28 107.46 C 157.16 106.96 157.46 105.83 156.95 104.95 C 156.44 104.07 155.32 103.77 154.44 104.28 L 153.51 104.81 C 152.63 105.32 152.33 106.45 152.84 107.33 C 153.34 108.21 154.47 108.51 155.35 108.00 Z M 156.28 107.45 L 157.18 106.92 C 158.06 106.41 158.35 105.29 157.83 104.42 C 157.32 103.54 156.20 103.25 155.33 103.77 L 154.43 104.29 C 153.56 104.81 153.27 105.93 153.78 106.80 C 154.29 107.67 155.41 107.96 156.28 107.45 Z M 157.19 106.91 L 158.06 106.38 C 158.93 105.87 159.21 104.75 158.69 103.89 C 158.18 103.02 157.06 102.74 156.20 103.26 L 155.32 103.78 C 154.46 104.29 154.18 105.41 154.69 106.28 C 155.21 107.14 156.33 107.42 157.19 106.91 Z M 158.07 106.37 L 158.91 105.86 C 159.77 105.34 160.04 104.23 159.53 103.37 C 159.01 102.52 157.89 102.24 157.04 102.76 L 156.19 103.27 C 155.34 103.79 155.06 104.90 155.58 105.76 C 156.10 106.61 157.21 106.89 158.07 106.37 Z M 158.92 105.85 L 159.73 105.35 C 160.58 104.83 160.85 103.72 160.33 102.87 C 159.81 102.02 158.70 101.75 157.85 102.27 L 157.04 102.77 C 156.19 103.29 155.92 104.40 156.44 105.25 C 156.96 106.10 158.07 106.37 158.92 105.85 Z M 159.73 105.34 L 160.52 104.85 C 161.36 104.33 161.62 103.23 161.11 102.39 C 160.59 101.54 159.48 101.28 158.64 101.80 L 157.85 102.28 C 157.01 102.80 156.75 103.91 157.27 104.75 C 157.79 105.59 158.89 105.86 159.73 105.34 Z M 160.52 104.84 L 161.27 104.38 C 162.11 103.86 162.37 102.76 161.85 101.92 C 161.33 101.08 160.23 100.83 159.39 101.34 L 158.64 101.81 C 157.80 102.33 157.54 103.43 158.06 104.26 C 158.58 105.10 159.68 105.36 160.52 104.84 Z M 161.27 104.37 L 161.99 103.92 C 162.82 103.41 163.08 102.31 162.56 101.48 C 162.05 100.65 160.95 100.39 160.12 100.91 L 159.40 101.35 C 158.57 101.87 158.31 102.96 158.82 103.79 C 159.34 104.63 160.43 104.88 161.27 104.37 Z M 161.98 103.92 L 162.97 103.30 C 163.80 102.79 164.06 101.71 163.55 100.88 C 163.04 100.05 161.95 99.79 161.12 100.30 L 160.13 100.91 C 159.30 101.42 159.04 102.51 159.55 103.34 C 160.06 104.17 161.15 104.43 161.98 103.92 Z M 162.96 103.30 L 163.92 102.71 C 164.74 102.21 165.01 101.13 164.51 100.31 C 164.00 99.48 162.93 99.22 162.10 99.72 L 161.14 100.31 C 160.32 100.81 160.05 101.88 160.55 102.71 C 161.06 103.53 162.13 103.80 162.96 103.30 Z M 163.90 102.71 L 164.80 102.17 C 165.62 101.68 165.89 100.62 165.40 99.79 C 164.92 98.97 163.85 98.70 163.03 99.19 L 162.13 99.73 C 161.30 100.22 161.03 101.28 161.52 102.10 C 162.01 102.92 163.07 103.20 163.90 102.71 Z M 164.77 102.17 L 165.63 101.68 C 166.45 101.21 166.73 100.16 166.26 99.33 C 165.79 98.51 164.74 98.23 163.91 98.70 L 163.06 99.19 C 162.24 99.66 161.95 100.71 162.42 101.54 C 162.90 102.36 163.95 102.64 164.77 102.17 Z M 165.59 101.68 L 166.40 101.24 C 167.23 100.78 167.53 99.75 167.08 98.92 C 166.63 98.10 165.59 97.80 164.77 98.25 L 163.95 98.69 C 163.13 99.15 162.82 100.18 163.27 101.01 C 163.73 101.83 164.76 102.14 165.59 101.68 Z M 166.36 101.24 L 167.15 100.84 C 167.98 100.41 168.30 99.39 167.88 98.56 C 167.45 97.73 166.43 97.41 165.60 97.83 L 164.81 98.24 C 163.98 98.67 163.66 99.69 164.08 100.52 C 164.51 101.34 165.53 101.67 166.36 101.24 Z M 167.09 100.85 L 167.87 100.48 C 168.70 100.08 169.06 99.08 168.66 98.25 C 168.26 97.41 167.26 97.06 166.43 97.46 L 165.65 97.82 C 164.82 98.22 164.46 99.22 164.86 100.06 C 165.26 100.89 166.26 101.25 167.09 100.85 Z M 167.79 100.50 L 168.89 100.04 C 169.73 99.68 170.13 98.71 169.78 97.86 C 169.42 97.02 168.45 96.62 167.60 96.97 L 166.50 97.44 C 165.66 97.79 165.26 98.77 165.62 99.61 C 165.97 100.46 166.95 100.85 167.79 100.50 Z M 168.75 100.07 L 169.85 99.72 C 170.72 99.43 171.19 98.50 170.91 97.64 C 170.63 96.77 169.70 96.30 168.83 96.58 L 167.73 96.94 C 166.87 97.22 166.39 98.15 166.68 99.02 C 166.96 99.88 167.89 100.36 168.75 100.07 Z M 169.62 99.76 L 170.60 99.59 C 171.49 99.44 172.09 98.59 171.94 97.70 C 171.79 96.81 170.94 96.21 170.05 96.37 L 169.07 96.53 C 168.17 96.69 167.58 97.53 167.73 98.43 C 167.88 99.32 168.73 99.92 169.62 99.76 Z M 170.17 99.60 L 170.97 99.68 C 171.87 99.76 172.66 99.11 172.75 98.22 C 172.84 97.32 172.18 96.53 171.29 96.44 L 170.48 96.36 C 169.59 96.27 168.79 96.93 168.71 97.82 C 168.62 98.72 169.27 99.51 170.17 99.60 Z M 170.24 99.40 L 170.80 99.78 C 171.55 100.27 172.55 100.07 173.04 99.33 C 173.54 98.59 173.33 97.58 172.59 97.09 L 172.02 96.71 C 171.28 96.22 170.28 96.42 169.78 97.16 C 169.29 97.91 169.49 98.91 170.24 99.40 Z M 170.25 99.12 L 170.55 99.78 C 170.93 100.58 171.89 100.92 172.69 100.55 C 173.49 100.17 173.84 99.22 173.46 98.41 L 173.15 97.75 C 172.77 96.95 171.82 96.61 171.02 96.98 C 170.21 97.36 169.87 98.32 170.25 99.12 Z M 170.43 99.31 L 170.55 100.20 C 170.67 101.08 171.47 101.69 172.34 101.57 C 173.22 101.45 173.83 100.65 173.71 99.77 L 173.59 98.88 C 173.47 98.01 172.66 97.40 171.79 97.51 C 170.92 97.63 170.31 98.44 170.43 99.31 Z M 170.54 99.97 L 170.53 101.03 C 170.52 101.91 171.22 102.63 172.09 102.64 C 172.97 102.65 173.69 101.95 173.70 101.07 L 173.71 100.01 C 173.72 99.13 173.02 98.42 172.15 98.40 C 171.27 98.39 170.56 99.09 170.54 99.97 Z M 170.55 100.92 L 170.45 102.09 C 170.37 102.96 171.02 103.72 171.88 103.79 C 172.75 103.87 173.51 103.22 173.58 102.36 L 173.68 101.19 C 173.76 100.32 173.11 99.56 172.25 99.48 C 171.38 99.41 170.62 100.05 170.55 100.92 Z M 170.46 102.06 L 170.37 102.86 C 170.28 103.72 170.90 104.49 171.76 104.59 C 172.62 104.68 173.39 104.06 173.49 103.20 L 173.57 102.39 C 173.67 101.53 173.04 100.76 172.19 100.67 C 171.33 100.58 170.55 101.20 170.46 102.06 Z"
      fill="black"
      fill-rule="nonzero" /><path d="M 112.61 157.90 L 111.40 157.40 C 110.53 157.03 109.53 157.44 109.17 158.31 C 108.81 159.18 109.22 160.18 110.09 160.55 L 111.30 161.05 C 112.17 161.41 113.17 161.00 113.53 160.13 C 113.89 159.26 113.48 158.26 112.61 157.90 Z M 111.50 157.37 L 110.45 156.87 C 109.57 156.46 108.52 156.83 108.10 157.71 C 107.68 158.60 108.05 159.65 108.94 160.07 L 109.99 160.57 C 110.87 160.99 111.93 160.61 112.34 159.73 C 112.76 158.85 112.39 157.79 111.50 157.37 Z M 110.71 156.95 L 109.98 156.46 C 109.14 155.90 108.00 156.13 107.44 156.98 C 106.88 157.82 107.11 158.96 107.95 159.52 L 108.68 160.00 C 109.53 160.56 110.66 160.33 111.22 159.49 C 111.78 158.64 111.55 157.51 110.71 156.95 Z M 110.64 157.10 L 110.40 156.64 C 109.91 155.72 108.76 155.37 107.84 155.86 C 106.92 156.34 106.56 157.49 107.05 158.41 L 107.30 158.88 C 107.78 159.80 108.93 160.15 109.85 159.66 C 110.78 159.17 111.13 158.03 110.64 157.10 Z M 110.25 158.71 L 110.58 158.28 C 111.24 157.44 111.08 156.23 110.24 155.57 C 109.40 154.92 108.18 155.08 107.53 155.92 L 107.20 156.35 C 106.55 157.19 106.70 158.40 107.54 159.06 C 108.39 159.71 109.60 159.55 110.25 158.71 Z M 109.91 158.85 L 110.71 158.46 C 111.68 157.99 112.08 156.82 111.61 155.86 C 111.14 154.89 109.98 154.49 109.01 154.96 L 108.20 155.35 C 107.24 155.82 106.83 156.99 107.31 157.95 C 107.78 158.92 108.94 159.32 109.91 158.85 Z M 110.44 158.59 L 111.58 158.24 C 112.62 157.92 113.20 156.82 112.88 155.79 C 112.57 154.75 111.47 154.16 110.43 154.48 L 109.29 154.83 C 108.25 155.15 107.67 156.24 107.98 157.28 C 108.30 158.32 109.40 158.90 110.44 158.59 Z M 111.44 158.29 L 112.72 158.01 C 113.79 157.77 114.46 156.71 114.22 155.64 C 113.98 154.57 112.92 153.90 111.86 154.14 L 110.57 154.43 C 109.51 154.67 108.83 155.72 109.07 156.79 C 109.31 157.86 110.37 158.53 111.44 158.29 Z M 112.64 158.03 L 113.55 157.87 C 114.63 157.67 115.34 156.64 115.15 155.56 C 114.96 154.48 113.92 153.76 112.84 153.95 L 111.94 154.12 C 110.86 154.31 110.14 155.35 110.33 156.43 C 110.53 157.51 111.56 158.22 112.64 158.03 Z M 113.49 157.87 L 114.44 157.73 C 115.52 157.56 116.27 156.55 116.10 155.47 C 115.93 154.38 114.92 153.64 113.84 153.80 L 112.89 153.95 C 111.81 154.11 111.06 155.13 111.23 156.21 C 111.40 157.29 112.41 158.04 113.49 157.87 Z M 114.39 157.74 L 115.37 157.61 C 116.45 157.47 117.22 156.47 117.08 155.38 C 116.94 154.29 115.94 153.53 114.85 153.67 L 113.88 153.80 C 112.79 153.94 112.02 154.93 112.17 156.02 C 112.31 157.11 113.30 157.88 114.39 157.74 Z M 115.33 157.61 L 116.34 157.50 C 117.43 157.38 118.22 156.40 118.09 155.31 C 117.97 154.22 116.99 153.43 115.90 153.55 L 114.89 153.66 C 113.80 153.79 113.01 154.77 113.14 155.86 C 113.26 156.95 114.24 157.73 115.33 157.61 Z M 116.31 157.50 L 117.35 157.40 C 118.45 157.30 119.25 156.32 119.14 155.23 C 119.03 154.14 118.06 153.34 116.97 153.45 L 115.93 153.55 C 114.84 153.66 114.04 154.63 114.14 155.72 C 114.25 156.81 115.22 157.61 116.31 157.50 Z M 117.33 157.40 L 118.41 157.31 C 119.50 157.22 120.31 156.25 120.22 155.16 C 120.12 154.07 119.16 153.26 118.07 153.35 L 116.99 153.45 C 115.90 153.54 115.09 154.50 115.18 155.59 C 115.28 156.69 116.24 157.50 117.33 157.40 Z M 118.40 157.31 L 119.34 157.24 C 120.43 157.15 121.25 156.20 121.16 155.10 C 121.08 154.01 120.12 153.19 119.03 153.28 L 118.09 153.35 C 116.99 153.44 116.18 154.39 116.26 155.49 C 116.35 156.58 117.30 157.40 118.40 157.31 Z M 119.33 157.24 L 120.28 157.17 C 121.37 157.09 122.19 156.14 122.11 155.04 C 122.03 153.95 121.08 153.13 119.99 153.21 L 119.04 153.28 C 117.95 153.36 117.13 154.31 117.21 155.40 C 117.29 156.49 118.24 157.32 119.33 157.24 Z M 120.27 157.16 L 121.25 157.10 C 122.34 157.02 123.16 156.07 123.09 154.98 C 123.01 153.89 122.06 153.07 120.97 153.14 L 120.00 153.21 C 118.91 153.29 118.09 154.23 118.16 155.33 C 118.24 156.42 119.18 157.24 120.27 157.16 Z M 121.24 157.10 L 122.24 157.03 C 123.33 156.96 124.15 156.01 124.08 154.92 C 124.00 153.83 123.06 153.01 121.97 153.08 L 120.98 153.15 C 119.89 153.22 119.06 154.16 119.14 155.25 C 119.21 156.34 120.15 157.17 121.24 157.10 Z M 122.23 157.03 L 123.25 156.96 C 124.34 156.89 125.16 155.95 125.09 154.86 C 125.02 153.77 124.08 152.94 122.99 153.01 L 121.97 153.08 C 120.88 153.15 120.06 154.10 120.13 155.18 C 120.20 156.27 121.14 157.10 122.23 157.03 Z M 123.25 156.96 L 124.28 156.89 C 125.37 156.82 126.19 155.88 126.12 154.79 C 126.05 153.70 125.11 152.88 124.02 152.95 L 122.99 153.02 C 121.90 153.09 121.07 154.03 121.15 155.12 C 121.22 156.21 122.16 157.03 123.25 156.96 Z M 124.28 156.89 L 125.33 156.82 C 126.42 156.74 127.24 155.80 127.17 154.72 C 127.09 153.63 126.15 152.81 125.07 152.88 L 124.02 152.95 C 122.93 153.02 122.11 153.96 122.18 155.05 C 122.25 156.14 123.19 156.96 124.28 156.89 Z M 125.33 156.81 L 126.33 156.74 C 127.41 156.67 128.23 155.73 128.16 154.64 C 128.08 153.56 127.14 152.74 126.06 152.81 L 125.06 152.88 C 123.98 152.96 123.16 153.90 123.23 154.98 C 123.31 156.07 124.25 156.89 125.33 156.81 Z M 126.33 156.74 L 127.26 156.67 C 128.34 156.60 129.16 155.66 129.08 154.57 C 129.00 153.49 128.06 152.67 126.98 152.75 L 126.05 152.82 C 124.97 152.90 124.15 153.84 124.23 154.92 C 124.31 156.00 125.25 156.82 126.33 156.74 Z M 127.26 156.67 L 128.20 156.60 C 129.28 156.52 130.09 155.58 130.01 154.50 C 129.93 153.42 128.99 152.61 127.91 152.69 L 126.97 152.76 C 125.89 152.84 125.08 153.78 125.16 154.86 C 125.24 155.94 126.18 156.75 127.26 156.67 Z M 128.21 156.59 L 129.17 156.52 C 130.25 156.43 131.05 155.49 130.97 154.42 C 130.88 153.34 129.94 152.53 128.86 152.62 L 127.90 152.69 C 126.83 152.78 126.02 153.72 126.11 154.80 C 126.19 155.87 127.13 156.68 128.21 156.59 Z M 129.17 156.51 L 130.15 156.43 C 131.23 156.35 132.03 155.40 131.94 154.33 C 131.85 153.25 130.91 152.45 129.84 152.54 L 128.86 152.62 C 127.78 152.71 126.98 153.65 127.07 154.73 C 127.16 155.80 128.10 156.60 129.17 156.51 Z M 130.16 156.43 L 131.16 156.34 C 132.24 156.25 133.03 155.31 132.94 154.24 C 132.85 153.16 131.90 152.37 130.83 152.46 L 129.83 152.55 C 128.76 152.64 127.96 153.58 128.05 154.65 C 128.15 155.73 129.09 156.52 130.16 156.43 Z M 131.17 156.34 L 132.20 156.24 C 133.27 156.15 134.06 155.20 133.96 154.13 C 133.87 153.07 132.92 152.28 131.85 152.37 L 130.82 152.47 C 129.75 152.56 128.97 153.51 129.06 154.58 C 129.16 155.64 130.10 156.43 131.17 156.34 Z M 132.21 156.24 L 133.27 156.14 C 134.33 156.04 135.11 155.09 135.01 154.03 C 134.91 152.96 133.97 152.18 132.90 152.28 L 131.84 152.38 C 130.78 152.48 130.00 153.43 130.10 154.49 C 130.20 155.56 131.14 156.34 132.21 156.24 Z M 133.27 156.13 L 134.36 156.03 C 135.43 155.92 136.20 154.97 136.10 153.91 C 135.99 152.85 135.05 152.07 133.98 152.18 L 132.89 152.28 C 131.83 152.39 131.05 153.34 131.16 154.40 C 131.26 155.46 132.21 156.24 133.27 156.13 Z M 134.37 156.02 L 135.38 155.92 C 136.44 155.81 137.21 154.86 137.10 153.80 C 136.99 152.74 136.05 151.97 134.99 152.08 L 133.98 152.18 C 132.92 152.29 132.15 153.24 132.25 154.30 C 132.36 155.36 133.31 156.13 134.37 156.02 Z M 135.39 155.91 L 136.39 155.80 C 137.44 155.69 138.21 154.74 138.09 153.68 C 137.98 152.63 137.03 151.86 135.98 151.98 L 134.98 152.09 C 133.92 152.20 133.16 153.15 133.27 154.20 C 133.39 155.26 134.33 156.02 135.39 155.91 Z M 136.40 155.79 L 137.41 155.68 C 138.46 155.56 139.22 154.62 139.10 153.56 C 138.98 152.51 138.03 151.76 136.98 151.87 L 135.97 151.99 C 134.92 152.10 134.16 153.05 134.28 154.10 C 134.40 155.15 135.34 155.91 136.40 155.79 Z M 137.42 155.67 L 138.44 155.56 C 139.48 155.43 140.23 154.49 140.11 153.44 C 139.99 152.39 139.04 151.64 138.00 151.76 L 136.98 151.88 C 135.93 152.00 135.18 152.95 135.30 154.00 C 135.42 155.04 136.37 155.80 137.42 155.67 Z M 138.44 155.55 L 139.47 155.42 C 140.51 155.30 141.25 154.35 141.13 153.31 C 141.00 152.26 140.05 151.52 139.01 151.65 L 137.99 151.77 C 136.94 151.90 136.20 152.84 136.33 153.89 C 136.45 154.93 137.40 155.67 138.44 155.55 Z M 139.47 155.42 L 140.49 155.29 C 141.53 155.16 142.27 154.21 142.14 153.17 C 142.01 152.13 141.06 151.40 140.02 151.53 L 139.00 151.65 C 137.96 151.78 137.23 152.73 137.36 153.77 C 137.49 154.81 138.44 155.55 139.47 155.42 Z M 140.50 155.28 L 141.51 155.15 C 142.54 155.01 143.27 154.06 143.14 153.03 C 143.00 151.99 142.05 151.27 141.02 151.40 L 140.01 151.53 C 138.98 151.67 138.25 152.62 138.38 153.65 C 138.52 154.69 139.47 155.42 140.50 155.28 Z M 141.52 155.14 L 142.51 155.01 C 143.54 154.86 144.26 153.91 144.12 152.88 C 143.97 151.85 143.02 151.13 141.99 151.27 L 141.01 151.41 C 139.98 151.55 139.25 152.50 139.40 153.53 C 139.54 154.56 140.49 155.28 141.52 155.14 Z M 142.52 155.00 L 143.48 154.86 C 144.51 154.71 145.22 153.76 145.07 152.73 C 144.92 151.71 143.97 151.00 142.94 151.14 L 141.98 151.28 C 140.96 151.43 140.24 152.38 140.39 153.41 C 140.54 154.43 141.49 155.15 142.52 155.00 Z M 143.49 154.85 L 144.42 154.71 C 145.45 154.55 146.15 153.60 145.99 152.58 C 145.84 151.56 144.88 150.86 143.86 151.01 L 142.93 151.15 C 141.91 151.31 141.21 152.26 141.36 153.28 C 141.52 154.30 142.47 155.01 143.49 154.85 Z M 144.44 154.70 L 145.54 154.52 C 146.55 154.35 147.24 153.40 147.07 152.39 C 146.91 151.37 145.95 150.68 144.94 150.85 L 143.85 151.02 C 142.83 151.19 142.14 152.14 142.31 153.16 C 142.47 154.17 143.43 154.86 144.44 154.70 Z M 145.55 154.50 L 146.66 154.31 C 147.66 154.13 148.33 153.18 148.16 152.17 C 147.98 151.17 147.03 150.50 146.02 150.67 L 144.92 150.87 C 143.92 151.04 143.25 152.00 143.42 153.00 C 143.60 154.00 144.55 154.67 145.55 154.50 Z M 146.68 154.29 L 147.72 154.09 C 148.71 153.91 149.36 152.95 149.18 151.96 C 148.99 150.97 148.04 150.31 147.05 150.50 L 146.00 150.69 C 145.01 150.88 144.36 151.84 144.54 152.83 C 144.73 153.82 145.68 154.47 146.68 154.29 Z M 147.74 154.07 L 148.73 153.87 C 149.71 153.67 150.35 152.72 150.15 151.74 C 149.95 150.76 149.00 150.12 148.02 150.32 L 147.03 150.52 C 146.04 150.72 145.41 151.67 145.61 152.65 C 145.80 153.63 146.76 154.27 147.74 154.07 Z M 148.75 153.85 L 149.70 153.65 C 150.67 153.44 151.28 152.48 151.08 151.52 C 150.87 150.55 149.91 149.93 148.94 150.14 L 148.00 150.34 C 147.03 150.55 146.41 151.50 146.62 152.47 C 146.83 153.44 147.78 154.06 148.75 153.85 Z M 149.72 153.63 L 150.62 153.42 C 151.58 153.20 152.18 152.25 151.96 151.29 C 151.74 150.33 150.79 149.73 149.83 149.95 L 148.92 150.16 C 147.97 150.38 147.37 151.33 147.59 152.29 C 147.81 153.25 148.76 153.84 149.72 153.63 Z M 150.64 153.40 L 151.51 153.19 C 152.46 152.96 153.04 152.01 152.81 151.06 C 152.58 150.12 151.63 149.53 150.69 149.76 L 149.81 149.97 C 148.87 150.20 148.29 151.15 148.51 152.10 C 148.74 153.04 149.69 153.63 150.64 153.40 Z M 151.53 153.17 L 152.39 152.95 C 153.33 152.71 153.89 151.76 153.66 150.83 C 153.42 149.89 152.47 149.33 151.54 149.56 L 150.67 149.78 C 149.74 150.02 149.17 150.97 149.41 151.90 C 149.65 152.84 150.60 153.40 151.53 153.17 Z M 152.41 152.93 L 153.44 152.65 C 154.37 152.40 154.91 151.46 154.67 150.53 C 154.42 149.61 153.47 149.06 152.55 149.31 L 151.52 149.58 C 150.59 149.83 150.05 150.78 150.29 151.70 C 150.54 152.63 151.49 153.17 152.41 152.93 Z M 153.46 152.63 L 154.46 152.35 C 155.37 152.09 155.90 151.14 155.64 150.23 C 155.39 149.32 154.44 148.79 153.52 149.04 L 152.53 149.33 C 151.62 149.59 151.09 150.54 151.34 151.45 C 151.60 152.36 152.55 152.89 153.46 152.63 Z M 154.48 152.33 L 155.45 152.04 C 156.35 151.77 156.86 150.82 156.59 149.91 C 156.32 149.01 155.37 148.50 154.47 148.78 L 153.50 149.07 C 152.60 149.34 152.09 150.29 152.36 151.19 C 152.63 152.09 153.58 152.60 154.48 152.33 Z M 155.47 152.01 L 156.41 151.71 C 157.30 151.43 157.79 150.48 157.50 149.59 C 157.22 148.70 156.27 148.21 155.38 148.50 L 154.44 148.80 C 153.55 149.08 153.06 150.03 153.35 150.92 C 153.63 151.81 154.58 152.30 155.47 152.01 Z M 156.43 151.69 L 157.34 151.38 C 158.22 151.08 158.69 150.13 158.39 149.26 C 158.09 148.38 157.14 147.91 156.26 148.21 L 155.35 148.52 C 154.48 148.82 154.01 149.77 154.31 150.65 C 154.61 151.52 155.56 151.99 156.43 151.69 Z M 157.37 151.36 L 158.25 151.04 C 159.12 150.72 159.56 149.77 159.25 148.91 C 158.93 148.04 157.98 147.60 157.12 147.91 L 156.23 148.23 C 155.37 148.55 154.93 149.50 155.24 150.36 C 155.55 151.23 156.51 151.67 157.37 151.36 Z M 158.28 151.01 L 159.25 150.64 C 160.10 150.31 160.52 149.35 160.19 148.50 C 159.86 147.65 158.90 147.23 158.05 147.56 L 157.09 147.94 C 156.24 148.27 155.82 149.22 156.15 150.07 C 156.48 150.92 157.43 151.34 158.28 151.01 Z M 159.28 150.61 L 160.22 150.22 C 161.06 149.88 161.45 148.92 161.11 148.08 C 160.76 147.24 159.80 146.85 158.96 147.20 L 158.02 147.59 C 157.19 147.93 156.79 148.89 157.14 149.73 C 157.49 150.56 158.44 150.96 159.28 150.61 Z M 160.25 150.20 L 161.16 149.80 C 161.99 149.44 162.36 148.47 162.00 147.65 C 161.64 146.83 160.68 146.45 159.85 146.82 L 158.94 147.22 C 158.11 147.58 157.74 148.54 158.10 149.36 C 158.46 150.19 159.42 150.56 160.25 150.20 Z M 161.19 149.77 L 162.08 149.36 C 162.89 148.99 163.25 148.03 162.87 147.21 C 162.50 146.40 161.53 146.05 160.72 146.43 L 159.83 146.84 C 159.02 147.21 158.67 148.17 159.04 148.99 C 159.42 149.80 160.38 150.15 161.19 149.77 Z M 162.10 149.34 L 162.98 148.92 C 163.77 148.53 164.11 147.57 163.72 146.77 C 163.34 145.97 162.38 145.64 161.58 146.02 L 160.70 146.45 C 159.90 146.83 159.57 147.79 159.96 148.59 C 160.34 149.39 161.30 149.73 162.10 149.34 Z M 162.99 148.90 L 163.88 148.45 C 164.67 148.05 164.99 147.09 164.59 146.31 C 164.19 145.52 163.23 145.20 162.45 145.60 L 161.56 146.04 C 160.77 146.44 160.45 147.40 160.85 148.19 C 161.25 148.98 162.21 149.29 162.99 148.90 Z M 163.91 148.43 L 164.80 147.96 C 165.57 147.54 165.87 146.58 165.45 145.80 C 165.04 145.03 164.07 144.73 163.30 145.15 L 162.41 145.62 C 161.64 146.03 161.35 147.00 161.76 147.77 C 162.17 148.55 163.14 148.84 163.91 148.43 Z M 164.85 147.92 L 165.71 147.42 C 166.46 146.98 166.72 146.01 166.28 145.25 C 165.84 144.49 164.86 144.24 164.11 144.68 L 163.25 145.18 C 162.49 145.62 162.24 146.60 162.68 147.35 C 163.12 148.11 164.09 148.36 164.85 147.92 Z M 165.78 147.37 L 166.61 146.82 C 167.34 146.34 167.54 145.36 167.06 144.64 C 166.58 143.91 165.60 143.70 164.87 144.18 L 164.04 144.73 C 163.31 145.21 163.11 146.19 163.59 146.92 C 164.07 147.65 165.05 147.85 165.78 147.37 Z M 166.69 146.76 L 167.48 146.16 C 168.18 145.63 168.31 144.64 167.79 143.95 C 167.26 143.26 166.27 143.12 165.58 143.65 L 164.79 144.25 C 164.09 144.77 163.96 145.76 164.48 146.46 C 165.01 147.15 166.00 147.28 166.69 146.76 Z M 167.57 146.08 L 168.31 145.42 C 168.96 144.85 169.02 143.86 168.44 143.21 C 167.87 142.56 166.87 142.50 166.22 143.07 L 165.49 143.73 C 164.84 144.30 164.78 145.30 165.36 145.94 C 165.93 146.59 166.93 146.65 167.57 146.08 Z M 168.39 145.34 L 169.07 144.65 C 169.68 144.03 169.66 143.03 169.04 142.43 C 168.43 141.82 167.43 141.84 166.83 142.45 L 166.15 143.15 C 165.54 143.77 165.55 144.77 166.17 145.37 C 166.79 145.98 167.78 145.96 168.39 145.34 Z M 169.13 144.58 L 169.78 143.84 C 170.35 143.18 170.29 142.20 169.64 141.62 C 168.99 141.05 168.00 141.12 167.43 141.77 L 166.77 142.52 C 166.20 143.17 166.27 144.16 166.92 144.73 C 167.57 145.30 168.56 145.23 169.13 144.58 Z M 169.82 143.79 L 170.45 143.00 C 171.00 142.33 170.90 141.35 170.22 140.80 C 169.55 140.26 168.57 140.36 168.02 141.03 L 167.39 141.82 C 166.84 142.49 166.95 143.48 167.62 144.02 C 168.29 144.56 169.28 144.46 169.82 143.79 Z M 170.48 142.97 L 171.10 142.17 C 171.63 141.48 171.50 140.50 170.81 139.97 C 170.13 139.45 169.15 139.57 168.62 140.26 L 168.00 141.07 C 167.47 141.75 167.60 142.73 168.28 143.26 C 168.97 143.79 169.95 143.66 170.48 142.97 Z M 171.11 142.15 L 171.63 141.45 C 172.15 140.76 172.01 139.78 171.32 139.27 C 170.64 138.75 169.66 138.89 169.14 139.57 L 168.61 140.27 C 168.09 140.96 168.23 141.94 168.92 142.46 C 169.61 142.98 170.59 142.84 171.11 142.15 Z"
      fill="black"
      fill-rule="nonzero" /><path d="M 154.43 127.78 L 153.38 127.82 C 152.43 127.87 151.70 128.67 151.74 129.62 C 151.79 130.57 152.59 131.30 153.54 131.25 L 154.59 131.20 C 155.54 131.16 156.27 130.36 156.22 129.41 C 156.18 128.46 155.38 127.73 154.43 127.78 Z M 153.31 127.82 L 152.28 127.90 C 151.32 127.99 150.62 128.83 150.70 129.78 C 150.79 130.73 151.62 131.43 152.58 131.35 L 153.61 131.26 C 154.56 131.18 155.26 130.34 155.18 129.39 C 155.10 128.44 154.26 127.73 153.31 127.82 Z M 152.13 127.91 L 151.14 128.08 C 150.20 128.24 149.56 129.15 149.72 130.10 C 149.89 131.05 150.79 131.68 151.74 131.52 L 152.72 131.35 C 153.67 131.18 154.31 130.28 154.14 129.33 C 153.98 128.38 153.08 127.74 152.13 127.91 Z M 150.91 128.12 L 149.99 128.42 C 149.07 128.71 148.56 129.70 148.85 130.63 C 149.15 131.55 150.14 132.06 151.06 131.77 L 151.98 131.47 C 152.90 131.18 153.41 130.19 153.12 129.26 C 152.82 128.34 151.83 127.83 150.91 128.12 Z M 149.67 128.54 L 148.85 128.99 C 147.99 129.47 147.68 130.55 148.16 131.40 C 148.63 132.26 149.71 132.57 150.57 132.10 L 151.39 131.64 C 152.24 131.17 152.55 130.09 152.08 129.23 C 151.61 128.38 150.53 128.07 149.67 128.54 Z M 148.52 129.22 L 147.87 129.81 C 147.14 130.46 147.08 131.59 147.74 132.32 C 148.40 133.05 149.52 133.11 150.25 132.45 L 150.90 131.87 C 151.63 131.21 151.69 130.08 151.03 129.35 C 150.37 128.62 149.25 128.56 148.52 129.22 Z M 147.64 130.05 L 147.10 130.77 C 146.50 131.55 146.66 132.67 147.44 133.27 C 148.22 133.86 149.34 133.71 149.94 132.92 L 150.48 132.21 C 151.08 131.42 150.92 130.30 150.14 129.71 C 149.35 129.11 148.24 129.27 147.64 130.05 Z M 146.96 130.97 L 146.49 131.81 C 146.01 132.67 146.31 133.76 147.17 134.24 C 148.03 134.72 149.12 134.42 149.60 133.56 L 150.07 132.72 C 150.55 131.86 150.25 130.77 149.39 130.29 C 148.53 129.81 147.44 130.11 146.96 130.97 Z M 146.41 131.97 L 146.00 132.91 C 145.60 133.81 146.01 134.86 146.92 135.26 C 147.82 135.65 148.87 135.24 149.27 134.34 L 149.68 133.40 C 150.07 132.50 149.66 131.45 148.76 131.05 C 147.86 130.66 146.81 131.07 146.41 131.97 Z M 145.96 133.02 L 145.59 134.03 C 145.26 134.96 145.74 135.98 146.66 136.32 C 147.59 136.65 148.61 136.17 148.94 135.24 L 149.31 134.23 C 149.64 133.30 149.16 132.28 148.24 131.95 C 147.31 131.61 146.29 132.09 145.96 133.02 Z M 145.57 134.11 L 145.23 135.17 C 144.94 136.11 145.46 137.11 146.40 137.41 C 147.34 137.70 148.34 137.18 148.64 136.24 L 148.97 135.17 C 149.26 134.23 148.74 133.23 147.80 132.94 C 146.86 132.64 145.86 133.17 145.57 134.11 Z M 145.22 135.22 L 144.94 136.20 C 144.67 137.15 145.22 138.13 146.17 138.40 C 147.11 138.67 148.10 138.12 148.37 137.17 L 148.65 136.19 C 148.92 135.25 148.37 134.26 147.42 133.99 C 146.48 133.72 145.49 134.27 145.22 135.22 Z M 144.94 136.23 L 144.68 137.22 C 144.43 138.16 144.99 139.13 145.94 139.38 C 146.89 139.64 147.86 139.07 148.11 138.12 L 148.37 137.14 C 148.62 136.19 148.06 135.22 147.11 134.97 C 146.16 134.72 145.19 135.29 144.94 136.23 Z M 144.68 137.25 L 144.43 138.23 C 144.20 139.18 144.78 140.14 145.73 140.37 C 146.68 140.61 147.63 140.03 147.87 139.08 L 148.11 138.09 C 148.35 137.15 147.77 136.19 146.82 135.95 C 145.87 135.72 144.91 136.30 144.68 137.25 Z M 144.43 138.26 L 144.21 139.25 C 143.99 140.20 144.58 141.14 145.53 141.36 C 146.48 141.58 147.42 140.99 147.64 140.04 L 147.87 139.05 C 148.09 138.10 147.49 137.16 146.55 136.94 C 145.60 136.72 144.65 137.32 144.43 138.26 Z M 144.21 139.28 L 144.00 140.26 C 143.80 141.20 144.40 142.14 145.35 142.34 C 146.30 142.54 147.23 141.94 147.43 140.99 L 147.64 140.01 C 147.84 139.06 147.24 138.13 146.29 137.93 C 145.34 137.73 144.41 138.33 144.21 139.28 Z M 144.00 140.28 L 143.81 141.24 C 143.62 142.19 144.24 143.11 145.19 143.30 C 146.13 143.49 147.05 142.87 147.24 141.92 L 147.43 140.96 C 147.62 140.01 147.00 139.09 146.06 138.91 C 145.11 138.72 144.19 139.33 144.00 140.28 Z M 143.81 141.27 L 143.64 142.21 C 143.47 143.16 144.09 144.07 145.04 144.24 C 145.99 144.41 146.89 143.79 147.07 142.84 L 147.24 141.89 C 147.41 140.95 146.78 140.04 145.84 139.87 C 144.89 139.70 143.98 140.32 143.81 141.27 Z M 143.64 142.24 L 143.49 143.19 C 143.33 144.13 143.97 145.02 144.91 145.18 C 145.86 145.34 146.75 144.70 146.91 143.76 L 147.06 142.81 C 147.22 141.87 146.58 140.97 145.64 140.82 C 144.69 140.66 143.80 141.30 143.64 142.24 Z M 143.49 143.21 L 143.35 144.15 C 143.21 145.09 143.86 145.97 144.80 146.11 C 145.74 146.25 146.62 145.61 146.76 144.66 L 146.90 143.73 C 147.04 142.79 146.39 141.91 145.45 141.77 C 144.51 141.62 143.63 142.27 143.49 143.21 Z M 143.36 144.18 L 143.23 145.12 C 143.10 146.06 143.76 146.93 144.70 147.05 C 145.63 147.18 146.50 146.52 146.63 145.59 L 146.75 144.64 C 146.88 143.70 146.22 142.84 145.29 142.71 C 144.35 142.58 143.48 143.24 143.36 144.18 Z M 143.24 145.15 L 143.11 146.12 C 143.00 147.06 143.66 147.91 144.60 148.02 C 145.53 148.14 146.38 147.48 146.50 146.54 L 146.62 145.56 C 146.73 144.63 146.07 143.78 145.14 143.66 C 144.20 143.55 143.35 144.21 143.24 145.15 Z M 143.12 146.14 L 143.00 147.17 C 142.90 148.10 143.57 148.94 144.50 149.04 C 145.43 149.15 146.27 148.48 146.37 147.55 L 146.49 146.53 C 146.60 145.60 145.93 144.76 145.00 144.65 C 144.07 144.54 143.23 145.21 143.12 146.14 Z M 143.01 147.18 L 142.90 148.28 C 142.80 149.20 143.47 150.03 144.39 150.13 C 145.32 150.23 146.15 149.56 146.25 148.64 L 146.36 147.54 C 146.46 146.62 145.79 145.79 144.87 145.69 C 143.94 145.59 143.11 146.26 143.01 147.18 Z M 142.90 148.28 L 142.80 149.24 C 142.71 150.16 143.38 150.99 144.30 151.08 C 145.22 151.18 146.04 150.51 146.14 149.59 L 146.24 148.63 C 146.33 147.71 145.66 146.89 144.74 146.79 C 143.82 146.69 143.00 147.36 142.90 148.28 Z M 142.81 149.25 L 142.71 150.21 C 142.62 151.13 143.29 151.95 144.20 152.04 C 145.12 152.13 145.94 151.47 146.03 150.55 L 146.13 149.58 C 146.23 148.67 145.56 147.85 144.64 147.75 C 143.72 147.66 142.90 148.33 142.81 149.25 Z M 142.72 150.21 L 142.62 151.21 C 142.52 152.12 143.19 152.94 144.11 153.03 C 145.02 153.12 145.84 152.46 145.93 151.54 L 146.03 150.55 C 146.12 149.63 145.45 148.82 144.54 148.72 C 143.63 148.63 142.81 149.30 142.72 150.21 Z M 142.62 151.21 L 142.52 152.23 C 142.43 153.14 143.09 153.95 144.00 154.05 C 144.91 154.14 145.73 153.47 145.82 152.56 L 145.92 151.54 C 146.01 150.63 145.35 149.82 144.44 149.73 C 143.53 149.64 142.71 150.30 142.62 151.21 Z M 142.53 152.23 L 142.42 153.26 C 142.33 154.17 142.99 154.98 143.90 155.07 C 144.81 155.16 145.62 154.50 145.71 153.59 L 145.81 152.56 C 145.91 151.66 145.24 150.84 144.34 150.75 C 143.43 150.66 142.62 151.32 142.53 152.23 Z M 142.43 153.26 L 142.32 154.28 C 142.23 155.19 142.89 156.00 143.79 156.09 C 144.69 156.18 145.50 155.52 145.60 154.62 L 145.70 153.59 C 145.80 152.69 145.14 151.88 144.23 151.79 C 143.33 151.69 142.52 152.35 142.43 153.26 Z M 142.33 154.28 L 142.22 155.29 C 142.13 156.19 142.78 157.00 143.68 157.09 C 144.58 157.19 145.39 156.54 145.48 155.64 L 145.59 154.62 C 145.68 153.72 145.03 152.92 144.13 152.82 C 143.23 152.73 142.42 153.38 142.33 154.28 Z M 142.23 155.29 L 142.12 156.27 C 142.02 157.17 142.67 157.98 143.57 158.07 C 144.47 158.17 145.27 157.52 145.37 156.63 L 145.48 155.64 C 145.57 154.74 144.93 153.94 144.03 153.84 C 143.13 153.74 142.33 154.39 142.23 155.29 Z M 142.13 156.27 L 142.02 157.26 C 141.91 158.16 142.56 158.96 143.45 159.06 C 144.34 159.17 145.15 158.52 145.25 157.63 L 145.36 156.63 C 145.46 155.74 144.82 154.93 143.93 154.83 C 143.04 154.73 142.23 155.37 142.13 156.27 Z M 142.02 157.25 L 141.91 158.24 C 141.80 159.13 142.43 159.94 143.32 160.04 C 144.21 160.15 145.01 159.52 145.12 158.63 L 145.24 157.64 C 145.35 156.75 144.71 155.95 143.82 155.84 C 142.94 155.73 142.13 156.37 142.02 157.25 Z M 141.91 158.23 L 141.79 159.19 C 141.68 160.07 142.30 160.88 143.18 160.99 C 144.07 161.11 144.87 160.48 144.99 159.60 L 145.11 158.64 C 145.22 157.76 144.60 156.95 143.72 156.84 C 142.84 156.72 142.03 157.35 141.91 158.23 Z M 141.80 159.18 L 141.67 160.13 C 141.55 161.00 142.16 161.81 143.04 161.94 C 143.92 162.06 144.73 161.44 144.85 160.57 L 144.98 159.61 C 145.10 158.74 144.49 157.93 143.61 157.81 C 142.73 157.69 141.92 158.30 141.80 159.18 Z M 141.68 160.11 L 141.54 161.07 C 141.41 161.94 142.01 162.75 142.88 162.88 C 143.75 163.01 144.56 162.41 144.69 161.54 L 144.84 160.58 C 144.97 159.71 144.37 158.90 143.49 158.77 C 142.62 158.64 141.81 159.24 141.68 160.11 Z M 141.55 161.05 L 141.39 162.03 C 141.25 162.90 141.84 163.71 142.71 163.85 C 143.57 163.99 144.39 163.40 144.53 162.53 L 144.68 161.56 C 144.82 160.69 144.23 159.87 143.37 159.74 C 142.50 159.60 141.69 160.19 141.55 161.05 Z M 141.40 162.01 L 141.23 163.03 C 141.08 163.89 141.66 164.70 142.52 164.85 C 143.38 165.00 144.19 164.42 144.34 163.56 L 144.52 162.55 C 144.66 161.69 144.09 160.87 143.23 160.72 C 142.37 160.58 141.55 161.15 141.40 162.01 Z M 141.24 163.01 L 141.05 164.06 C 140.89 164.92 141.46 165.74 142.31 165.89 C 143.17 166.05 143.99 165.48 144.14 164.63 L 144.33 163.58 C 144.49 162.72 143.92 161.90 143.07 161.75 C 142.21 161.59 141.39 162.16 141.24 163.01 Z M 141.05 164.05 L 140.89 164.92 C 140.72 165.77 141.28 166.59 142.13 166.76 C 142.98 166.92 143.81 166.36 143.97 165.51 L 144.13 164.64 C 144.30 163.79 143.74 162.97 142.89 162.80 C 142.04 162.64 141.22 163.20 141.05 164.05 Z M 140.89 164.91 L 140.71 165.82 C 140.54 166.67 141.10 167.49 141.95 167.66 C 142.80 167.83 143.62 167.28 143.79 166.43 L 143.97 165.52 C 144.13 164.67 143.58 163.85 142.73 163.68 C 141.88 163.51 141.06 164.06 140.89 164.91 Z M 140.71 165.81 L 140.52 166.75 C 140.35 167.60 140.90 168.43 141.75 168.60 C 142.60 168.77 143.42 168.22 143.59 167.37 L 143.78 166.43 C 143.96 165.59 143.41 164.76 142.56 164.59 C 141.71 164.42 140.88 164.96 140.71 165.81 Z M 140.53 166.75 L 140.33 167.71 C 140.15 168.56 140.70 169.39 141.54 169.56 C 142.39 169.74 143.22 169.19 143.39 168.34 L 143.59 167.38 C 143.77 166.53 143.22 165.70 142.38 165.53 C 141.53 165.35 140.70 165.90 140.53 166.75 Z M 140.33 167.71 L 140.12 168.69 C 139.94 169.54 140.48 170.37 141.33 170.55 C 142.18 170.73 143.01 170.18 143.18 169.34 L 143.39 168.35 C 143.57 167.50 143.03 166.67 142.18 166.50 C 141.34 166.32 140.51 166.86 140.33 167.71 Z M 140.12 168.69 L 139.91 169.70 C 139.73 170.54 140.27 171.37 141.11 171.55 C 141.96 171.73 142.79 171.19 142.97 170.35 L 143.18 169.34 C 143.36 168.50 142.82 167.67 141.98 167.49 C 141.13 167.31 140.30 167.85 140.12 168.69 Z M 139.91 169.70 L 139.69 170.72 C 139.51 171.56 140.05 172.39 140.89 172.58 C 141.73 172.76 142.57 172.22 142.75 171.37 L 142.97 170.35 C 143.15 169.51 142.61 168.68 141.77 168.50 C 140.92 168.31 140.09 168.85 139.91 169.70 Z M 139.69 170.72 L 139.47 171.75 C 139.28 172.59 139.82 173.43 140.66 173.61 C 141.51 173.79 142.34 173.25 142.52 172.41 L 142.75 171.38 C 142.93 170.53 142.39 169.70 141.55 169.52 C 140.70 169.34 139.87 169.87 139.69 170.72 Z M 139.47 171.75 L 139.24 172.79 C 139.06 173.63 139.59 174.46 140.44 174.65 C 141.28 174.83 142.11 174.29 142.30 173.45 L 142.52 172.41 C 142.70 171.57 142.17 170.74 141.33 170.55 C 140.48 170.37 139.65 170.91 139.47 171.75 Z M 139.24 172.79 L 139.09 173.48 C 138.91 174.32 139.45 175.15 140.29 175.33 C 141.13 175.52 141.96 174.98 142.15 174.14 L 142.30 173.45 C 142.48 172.61 141.94 171.78 141.10 171.59 C 140.26 171.41 139.43 171.95 139.24 172.79 Z"
      fill="black"
      fill-rule="nonzero" /><path d="M 86.16 204.95 L 84.83 204.95 C 83.89 204.95 83.12 205.71 83.12 206.66 C 83.12 207.60 83.89 208.37 84.83 208.37 L 86.16 208.37 C 87.11 208.37 87.87 207.61 87.87 206.66 C 87.87 205.71 87.11 204.95 86.16 204.95 Z M 84.84 204.90 L 83.55 204.90 C 82.58 204.90 81.79 205.68 81.78 206.65 C 81.78 207.62 82.57 208.41 83.54 208.41 L 84.83 208.42 C 85.80 208.42 86.59 207.63 86.59 206.66 C 86.59 205.69 85.81 204.91 84.84 204.90 Z M 83.56 204.86 L 82.34 204.85 C 81.34 204.84 80.53 205.64 80.52 206.63 C 80.51 207.62 81.31 208.44 82.31 208.45 L 83.53 208.46 C 84.52 208.46 85.33 207.66 85.34 206.67 C 85.35 205.68 84.55 204.86 83.56 204.86 Z M 82.36 204.80 L 81.25 204.78 C 80.23 204.76 79.39 205.57 79.37 206.59 C 79.35 207.61 80.16 208.45 81.18 208.47 L 82.29 208.49 C 83.31 208.51 84.15 207.70 84.17 206.68 C 84.18 205.66 83.37 204.82 82.36 204.80 Z M 81.28 204.74 L 80.31 204.71 C 79.27 204.67 78.40 205.49 78.36 206.53 C 78.33 207.57 79.14 208.44 80.19 208.48 L 81.15 208.51 C 82.19 208.55 83.06 207.73 83.10 206.69 C 83.14 205.65 82.32 204.77 81.28 204.74 Z M 80.37 204.67 L 79.59 204.62 C 78.52 204.55 77.61 205.36 77.54 206.42 C 77.47 207.49 78.28 208.41 79.35 208.47 L 80.13 208.52 C 81.19 208.59 82.11 207.78 82.18 206.71 C 82.24 205.65 81.43 204.73 80.37 204.67 Z M 79.71 204.58 L 79.14 204.52 C 78.06 204.38 77.08 205.16 76.95 206.24 C 76.81 207.32 77.59 208.31 78.67 208.44 L 79.23 208.50 C 80.31 208.64 81.30 207.86 81.43 206.78 C 81.56 205.70 80.79 204.71 79.71 204.58 Z M 79.65 204.61 L 79.28 204.46 C 78.25 204.05 77.08 204.56 76.67 205.59 C 76.26 206.62 76.76 207.79 77.79 208.20 L 78.16 208.34 C 79.20 208.75 80.36 208.25 80.77 207.22 C 81.18 206.19 80.68 205.02 79.65 204.61 Z M 79.86 207.87 L 80.16 207.61 C 81.01 206.88 81.11 205.59 80.38 204.75 C 79.64 203.90 78.36 203.80 77.51 204.53 L 77.21 204.79 C 76.36 205.52 76.27 206.80 77.00 207.65 C 77.73 208.50 79.01 208.60 79.86 207.87 Z M 79.51 208.00 L 80.46 207.66 C 81.52 207.29 82.08 206.13 81.71 205.06 C 81.34 204.00 80.17 203.44 79.11 203.81 L 78.16 204.14 C 77.10 204.52 76.54 205.68 76.91 206.74 C 77.28 207.81 78.45 208.37 79.51 208.00 Z M 80.35 207.71 L 81.71 207.32 C 82.80 207.00 83.43 205.87 83.11 204.78 C 82.80 203.69 81.66 203.06 80.57 203.37 L 79.22 203.77 C 78.13 204.08 77.50 205.22 77.81 206.31 C 78.13 207.40 79.26 208.02 80.35 207.71 Z M 81.70 207.33 L 82.64 207.06 C 83.73 206.75 84.37 205.61 84.06 204.52 C 83.75 203.42 82.61 202.79 81.52 203.10 L 80.58 203.36 C 79.48 203.67 78.85 204.81 79.16 205.91 C 79.47 207.00 80.61 207.64 81.70 207.33 Z M 82.64 207.07 L 83.39 206.85 C 84.48 206.54 85.12 205.40 84.81 204.30 C 84.49 203.21 83.35 202.57 82.25 202.88 L 81.51 203.10 C 80.41 203.41 79.78 204.55 80.09 205.65 C 80.41 206.74 81.55 207.38 82.64 207.07 Z M 83.39 206.86 L 84.18 206.63 C 85.28 206.32 85.91 205.18 85.60 204.08 C 85.29 202.98 84.15 202.34 83.05 202.66 L 82.26 202.88 C 81.16 203.19 80.52 204.34 80.83 205.43 C 81.15 206.53 82.29 207.17 83.39 206.86 Z M 84.17 206.64 L 85.02 206.40 C 86.12 206.09 86.77 204.95 86.46 203.85 C 86.15 202.75 85.01 202.11 83.91 202.41 L 83.06 202.65 C 81.96 202.96 81.31 204.10 81.62 205.20 C 81.93 206.30 83.07 206.94 84.17 206.64 Z M 85.01 206.40 L 85.94 206.15 C 87.05 205.85 87.70 204.71 87.39 203.61 C 87.09 202.50 85.96 201.85 84.85 202.15 L 83.92 202.41 C 82.82 202.71 82.17 203.85 82.47 204.95 C 82.77 206.05 83.91 206.70 85.01 206.40 Z M 85.93 206.16 L 86.95 205.88 C 88.06 205.59 88.72 204.46 88.42 203.35 C 88.13 202.24 87.00 201.58 85.89 201.88 L 84.87 202.15 C 83.76 202.44 83.10 203.58 83.39 204.68 C 83.69 205.79 84.82 206.45 85.93 206.16 Z M 86.93 205.89 L 88.06 205.60 C 89.17 205.32 89.84 204.19 89.56 203.08 C 89.27 201.97 88.14 201.30 87.03 201.58 L 85.90 201.87 C 84.79 202.16 84.13 203.29 84.41 204.40 C 84.69 205.51 85.82 206.18 86.93 205.89 Z M 88.05 205.61 L 89.30 205.30 C 90.41 205.02 91.09 203.90 90.81 202.78 C 90.54 201.67 89.41 200.99 88.30 201.27 L 87.05 201.58 C 85.94 201.85 85.26 202.98 85.53 204.09 C 85.81 205.20 86.93 205.88 88.05 205.61 Z M 89.28 205.30 L 90.43 205.03 C 91.55 204.76 92.23 203.64 91.97 202.52 C 91.70 201.41 90.58 200.72 89.46 200.99 L 88.31 201.26 C 87.20 201.53 86.51 202.65 86.78 203.77 C 87.04 204.88 88.17 205.57 89.28 205.30 Z M 90.42 205.03 L 91.32 204.82 C 92.44 204.56 93.13 203.44 92.87 202.32 C 92.61 201.21 91.49 200.51 90.37 200.77 L 89.47 200.98 C 88.35 201.24 87.66 202.36 87.92 203.48 C 88.18 204.60 89.30 205.29 90.42 205.03 Z M 91.31 204.83 L 92.25 204.61 C 93.37 204.35 94.07 203.24 93.81 202.12 C 93.56 201.00 92.44 200.30 91.32 200.55 L 90.38 200.77 C 89.26 201.03 88.56 202.14 88.82 203.26 C 89.07 204.38 90.19 205.08 91.31 204.83 Z M 92.24 204.61 L 93.22 204.39 C 94.34 204.14 95.04 203.02 94.79 201.90 C 94.54 200.78 93.42 200.08 92.30 200.33 L 91.32 200.55 C 90.20 200.81 89.50 201.92 89.75 203.04 C 90.01 204.16 91.12 204.87 92.24 204.61 Z M 93.21 204.39 L 94.22 204.17 C 95.34 203.92 96.05 202.80 95.80 201.68 C 95.54 200.56 94.43 199.85 93.31 200.10 L 92.31 200.33 C 91.18 200.58 90.48 201.69 90.73 202.82 C 90.98 203.94 92.09 204.64 93.21 204.39 Z M 94.21 204.17 L 95.23 203.94 C 96.36 203.70 97.07 202.58 96.82 201.46 C 96.57 200.34 95.46 199.63 94.34 199.88 L 93.31 200.10 C 92.19 200.35 91.48 201.46 91.73 202.59 C 91.98 203.71 93.09 204.42 94.21 204.17 Z M 95.23 203.95 L 96.26 203.72 C 97.39 203.47 98.10 202.36 97.85 201.24 C 97.61 200.11 96.50 199.40 95.37 199.65 L 94.34 199.87 C 93.22 200.12 92.50 201.23 92.75 202.36 C 93.00 203.48 94.11 204.19 95.23 203.95 Z M 96.26 203.72 L 97.30 203.50 C 98.42 203.25 99.14 202.14 98.89 201.02 C 98.65 199.89 97.54 199.18 96.41 199.42 L 95.38 199.65 C 94.25 199.89 93.54 201.00 93.78 202.13 C 94.03 203.25 95.14 203.97 96.26 203.72 Z M 97.29 203.50 L 98.33 203.28 C 99.45 203.03 100.17 201.92 99.93 200.80 C 99.68 199.67 98.57 198.96 97.45 199.20 L 96.42 199.42 C 95.29 199.66 94.57 200.77 94.82 201.90 C 95.06 203.02 96.17 203.74 97.29 203.50 Z M 98.32 203.28 L 99.34 203.06 C 100.47 202.82 101.19 201.71 100.95 200.58 C 100.71 199.46 99.60 198.74 98.47 198.98 L 97.45 199.20 C 96.32 199.44 95.61 200.55 95.85 201.67 C 96.09 202.80 97.20 203.52 98.32 203.28 Z M 99.34 203.06 L 100.34 202.85 C 101.47 202.61 102.19 201.50 101.95 200.37 C 101.71 199.25 100.60 198.53 99.47 198.77 L 98.47 198.98 C 97.35 199.22 96.63 200.33 96.87 201.45 C 97.10 202.58 98.21 203.30 99.34 203.06 Z M 100.34 202.85 L 101.31 202.65 C 102.44 202.41 103.16 201.30 102.92 200.17 C 102.69 199.04 101.58 198.32 100.45 198.56 L 99.48 198.76 C 98.35 199.00 97.63 200.11 97.86 201.24 C 98.10 202.37 99.21 203.09 100.34 202.85 Z M 101.31 202.65 L 102.24 202.45 C 103.37 202.21 104.10 201.11 103.86 199.98 C 103.62 198.85 102.52 198.12 101.39 198.36 L 100.45 198.56 C 99.32 198.79 98.60 199.90 98.84 201.03 C 99.07 202.16 100.18 202.88 101.31 202.65 Z M 102.24 202.45 L 103.14 202.27 C 104.27 202.03 104.99 200.92 104.76 199.79 C 104.52 198.66 103.41 197.94 102.28 198.17 L 101.39 198.36 C 100.26 198.60 99.53 199.70 99.77 200.83 C 100.01 201.96 101.11 202.69 102.24 202.45 Z M 103.13 202.27 L 104.36 202.01 C 105.49 201.78 106.22 200.67 105.99 199.54 C 105.75 198.41 104.65 197.68 103.52 197.92 L 102.29 198.17 C 101.16 198.41 100.43 199.51 100.66 200.64 C 100.90 201.77 102.00 202.50 103.13 202.27 Z M 104.36 202.01 L 105.55 201.77 C 106.68 201.54 107.41 200.43 107.18 199.30 C 106.95 198.17 105.84 197.44 104.71 197.67 L 103.52 197.92 C 102.39 198.15 101.66 199.25 101.89 200.38 C 102.12 201.52 103.23 202.24 104.36 202.01 Z M 105.55 201.77 L 106.63 201.55 C 107.77 201.32 108.50 200.22 108.27 199.09 C 108.04 197.96 106.94 197.22 105.81 197.45 L 104.72 197.67 C 103.59 197.90 102.85 199.00 103.08 200.14 C 103.31 201.27 104.41 202.00 105.55 201.77 Z M 106.63 201.55 L 107.63 201.35 C 108.76 201.13 109.50 200.03 109.28 198.90 C 109.05 197.76 107.95 197.03 106.82 197.25 L 105.81 197.45 C 104.68 197.68 103.95 198.78 104.17 199.91 C 104.40 201.04 105.50 201.78 106.63 201.55 Z M 107.62 201.36 L 108.56 201.17 C 109.69 200.95 110.43 199.86 110.21 198.72 C 109.99 197.59 108.89 196.85 107.76 197.07 L 106.83 197.25 C 105.69 197.47 104.95 198.57 105.17 199.70 C 105.39 200.84 106.49 201.58 107.62 201.36 Z M 108.55 201.18 L 109.43 201.01 C 110.56 200.79 111.31 199.70 111.09 198.56 C 110.87 197.43 109.78 196.68 108.65 196.90 L 107.77 197.07 C 106.63 197.28 105.89 198.38 106.10 199.51 C 106.32 200.65 107.41 201.39 108.55 201.18 Z M 109.42 201.01 L 110.25 200.86 C 111.39 200.64 112.14 199.55 111.93 198.42 C 111.72 197.28 110.63 196.53 109.49 196.74 L 108.65 196.90 C 107.52 197.11 106.77 198.20 106.98 199.34 C 107.19 200.47 108.28 201.22 109.42 201.01 Z M 110.25 200.86 L 111.06 200.71 C 112.19 200.50 112.95 199.42 112.74 198.28 C 112.54 197.14 111.45 196.39 110.31 196.59 L 109.50 196.74 C 108.37 196.95 107.61 198.03 107.82 199.17 C 108.02 200.31 109.11 201.06 110.25 200.86 Z M 111.05 200.71 L 111.89 200.56 C 113.02 200.36 113.78 199.28 113.58 198.14 C 113.38 197.01 112.30 196.25 111.16 196.45 L 110.32 196.59 C 109.19 196.79 108.43 197.88 108.63 199.01 C 108.83 200.15 109.91 200.91 111.05 200.71 Z M 111.88 200.57 L 112.85 200.40 C 113.99 200.20 114.75 199.12 114.56 197.99 C 114.36 196.85 113.28 196.08 112.15 196.28 L 111.17 196.44 C 110.03 196.64 109.27 197.72 109.46 198.86 C 109.66 200.00 110.74 200.76 111.88 200.57 Z M 112.84 200.40 L 113.82 200.24 C 114.96 200.05 115.73 198.97 115.54 197.83 C 115.35 196.69 114.27 195.92 113.13 196.11 L 112.15 196.28 C 111.01 196.47 110.25 197.54 110.44 198.68 C 110.63 199.82 111.70 200.59 112.84 200.40 Z M 113.81 200.24 L 114.80 200.08 C 115.94 199.89 116.71 198.82 116.52 197.68 C 116.34 196.54 115.26 195.77 114.12 195.95 L 113.14 196.11 C 112.00 196.30 111.23 197.37 111.41 198.51 C 111.60 199.65 112.67 200.42 113.81 200.24 Z M 114.79 200.08 L 115.78 199.92 C 116.92 199.74 117.69 198.67 117.51 197.53 C 117.33 196.39 116.26 195.61 115.12 195.79 L 114.13 195.95 C 112.99 196.13 112.21 197.20 112.40 198.34 C 112.58 199.49 113.65 200.26 114.79 200.08 Z M 115.77 199.92 L 116.76 199.77 C 117.91 199.59 118.68 198.52 118.51 197.38 C 118.33 196.24 117.26 195.46 116.12 195.64 L 115.12 195.79 C 113.98 195.97 113.20 197.04 113.38 198.18 C 113.56 199.32 114.63 200.10 115.77 199.92 Z M 116.76 199.77 L 117.76 199.61 C 118.90 199.43 119.68 198.37 119.50 197.22 C 119.32 196.08 118.26 195.30 117.12 195.48 L 116.12 195.64 C 114.98 195.81 114.20 196.88 114.37 198.02 C 114.55 199.16 115.62 199.94 116.76 199.77 Z M 117.76 199.61 L 118.75 199.46 C 119.90 199.28 120.68 198.21 120.50 197.07 C 120.33 195.93 119.26 195.15 118.12 195.33 L 117.12 195.48 C 115.98 195.66 115.19 196.72 115.37 197.86 C 115.55 199.01 116.61 199.79 117.76 199.61 Z M 118.75 199.46 L 119.74 199.31 C 120.88 199.13 121.66 198.06 121.49 196.92 C 121.31 195.78 120.25 195.00 119.10 195.17 L 118.12 195.33 C 116.98 195.50 116.20 196.57 116.37 197.71 C 116.55 198.85 117.61 199.63 118.75 199.46 Z M 119.74 199.31 L 120.73 199.16 C 121.87 198.98 122.65 197.91 122.48 196.77 C 122.30 195.63 121.23 194.85 120.09 195.02 L 119.11 195.17 C 117.96 195.35 117.18 196.42 117.36 197.56 C 117.53 198.70 118.60 199.48 119.74 199.31 Z M 120.73 199.16 L 121.72 199.00 C 122.86 198.83 123.64 197.76 123.47 196.62 C 123.29 195.48 122.23 194.70 121.08 194.87 L 120.09 195.02 C 118.95 195.20 118.17 196.26 118.34 197.40 C 118.52 198.55 119.58 199.33 120.73 199.16 Z M 121.72 199.00 L 122.71 198.85 C 123.85 198.68 124.63 197.61 124.46 196.47 C 124.28 195.33 123.22 194.55 122.08 194.72 L 121.09 194.87 C 119.94 195.05 119.16 196.11 119.33 197.25 C 119.51 198.39 120.57 199.18 121.72 199.00 Z M 122.71 198.85 L 123.70 198.70 C 124.84 198.53 125.62 197.46 125.45 196.32 C 125.27 195.18 124.21 194.40 123.07 194.57 L 122.08 194.72 C 120.94 194.90 120.15 195.96 120.33 197.10 C 120.50 198.24 121.57 199.03 122.71 198.85 Z M 123.70 198.70 L 124.69 198.55 C 125.83 198.37 126.61 197.31 126.44 196.17 C 126.26 195.03 125.20 194.24 124.05 194.42 L 123.07 194.57 C 121.93 194.74 121.14 195.81 121.32 196.95 C 121.49 198.09 122.56 198.88 123.70 198.70 Z M 124.69 198.55 L 125.67 198.40 C 126.81 198.22 127.60 197.16 127.42 196.02 C 127.25 194.88 126.18 194.09 125.04 194.27 L 124.05 194.42 C 122.91 194.59 122.13 195.66 122.31 196.80 C 122.48 197.94 123.55 198.72 124.69 198.55 Z M 125.67 198.40 L 126.65 198.25 C 127.79 198.07 128.58 197.00 128.40 195.86 C 128.22 194.72 127.16 193.94 126.02 194.12 L 125.04 194.27 C 123.90 194.44 123.12 195.51 123.29 196.65 C 123.47 197.79 124.53 198.57 125.67 198.40 Z M 126.65 198.25 L 127.63 198.09 C 128.77 197.92 129.55 196.85 129.37 195.71 C 129.20 194.57 128.13 193.79 126.99 193.97 L 126.02 194.12 C 124.88 194.29 124.10 195.36 124.27 196.50 C 124.45 197.64 125.51 198.42 126.65 198.25 Z M 127.63 198.09 L 128.61 197.94 C 129.75 197.77 130.53 196.70 130.35 195.56 C 130.17 194.42 129.11 193.64 127.97 193.82 L 126.99 193.97 C 125.85 194.14 125.07 195.21 125.25 196.35 C 125.42 197.49 126.49 198.27 127.63 198.09 Z M 128.60 197.94 L 129.58 197.79 C 130.72 197.62 131.50 196.55 131.33 195.41 C 131.16 194.28 130.09 193.49 128.95 193.67 L 127.97 193.82 C 126.83 193.99 126.05 195.06 126.23 196.20 C 126.40 197.34 127.47 198.12 128.60 197.94 Z M 129.58 197.79 L 130.57 197.64 C 131.71 197.47 132.49 196.40 132.32 195.27 C 132.14 194.13 131.08 193.34 129.94 193.52 L 128.95 193.67 C 127.82 193.84 127.03 194.91 127.21 196.04 C 127.38 197.18 128.44 197.97 129.58 197.79 Z M 130.57 197.64 L 131.56 197.49 C 132.70 197.32 133.48 196.26 133.31 195.12 C 133.14 193.98 132.08 193.20 130.94 193.37 L 129.94 193.52 C 128.81 193.69 128.02 194.75 128.19 195.89 C 128.37 197.03 129.43 197.81 130.57 197.64 Z M 131.56 197.49 L 132.57 197.34 C 133.70 197.17 134.49 196.11 134.32 194.97 C 134.15 193.83 133.09 193.05 131.95 193.22 L 130.94 193.37 C 129.81 193.54 129.02 194.60 129.19 195.74 C 129.36 196.87 130.42 197.66 131.56 197.49 Z M 132.56 197.34 L 133.57 197.19 C 134.71 197.02 135.49 195.97 135.32 194.83 C 135.16 193.69 134.10 192.90 132.96 193.07 L 131.96 193.22 C 130.82 193.39 130.03 194.44 130.20 195.58 C 130.37 196.72 131.42 197.51 132.56 197.34 Z M 133.56 197.19 L 134.56 197.05 C 135.70 196.88 136.49 195.83 136.32 194.69 C 136.16 193.55 135.10 192.76 133.96 192.93 L 132.97 193.07 C 131.83 193.24 131.04 194.29 131.20 195.43 C 131.37 196.57 132.43 197.36 133.56 197.19 Z M 134.56 197.05 L 135.56 196.90 C 136.70 196.74 137.49 195.69 137.33 194.55 C 137.17 193.41 136.11 192.62 134.97 192.78 L 133.97 192.93 C 132.83 193.09 132.04 194.14 132.20 195.28 C 132.36 196.42 133.42 197.21 134.56 197.05 Z M 135.56 196.90 L 136.56 196.76 C 137.70 196.60 138.49 195.55 138.33 194.41 C 138.17 193.28 137.12 192.48 135.99 192.64 L 134.98 192.78 C 133.84 192.94 133.05 193.99 133.21 195.13 C 133.37 196.27 134.42 197.06 135.56 196.90 Z M 136.56 196.76 L 137.56 196.62 C 138.70 196.47 139.49 195.42 139.34 194.28 C 139.18 193.15 138.13 192.35 137.00 192.51 L 135.99 192.64 C 134.86 192.80 134.06 193.85 134.21 194.98 C 134.37 196.12 135.42 196.92 136.56 196.76 Z M 137.55 196.62 L 138.55 196.49 C 139.68 196.34 140.48 195.29 140.33 194.16 C 140.18 193.02 139.13 192.22 138.00 192.37 L 137.00 192.51 C 135.86 192.66 135.07 193.70 135.22 194.84 C 135.37 195.98 136.41 196.78 137.55 196.62 Z M 138.54 196.49 L 139.52 196.36 C 140.65 196.22 141.46 195.18 141.31 194.04 C 141.16 192.90 140.12 192.10 138.98 192.25 L 138.00 192.37 C 136.87 192.52 136.06 193.56 136.21 194.70 C 136.36 195.84 137.40 196.64 138.54 196.49 Z M 139.51 196.36 L 140.47 196.24 C 141.61 196.10 142.41 195.06 142.27 193.93 C 142.12 192.79 141.09 191.98 139.95 192.13 L 138.99 192.25 C 137.85 192.39 137.05 193.43 137.19 194.56 C 137.33 195.70 138.37 196.51 139.51 196.36 Z M 140.46 196.24 L 141.50 196.12 C 142.64 195.98 143.45 194.95 143.31 193.81 C 143.17 192.67 142.14 191.86 141.00 192.00 L 139.96 192.12 C 138.82 192.26 138.01 193.30 138.15 194.43 C 138.29 195.57 139.32 196.38 140.46 196.24 Z M 141.49 196.12 L 142.53 196.00 C 143.66 195.87 144.48 194.84 144.35 193.70 C 144.22 192.56 143.19 191.75 142.05 191.88 L 141.02 192.00 C 139.88 192.13 139.06 193.16 139.19 194.30 C 139.32 195.43 140.35 196.25 141.49 196.12 Z M 142.51 196.00 L 143.52 195.89 C 144.66 195.77 145.48 194.74 145.36 193.61 C 145.23 192.47 144.21 191.64 143.07 191.77 L 142.06 191.88 C 140.93 192.00 140.10 193.02 140.23 194.16 C 140.35 195.30 141.37 196.12 142.51 196.00 Z M 143.50 195.89 L 144.49 195.79 C 145.63 195.68 146.46 194.66 146.35 193.52 C 146.23 192.38 145.21 191.55 144.08 191.67 L 143.09 191.77 C 141.95 191.88 141.12 192.90 141.23 194.04 C 141.35 195.18 142.37 196.01 143.50 195.89 Z M 144.47 195.79 L 145.44 195.70 C 146.58 195.60 147.42 194.59 147.32 193.45 C 147.21 192.31 146.20 191.47 145.06 191.58 L 144.09 191.67 C 142.95 191.77 142.12 192.78 142.22 193.92 C 142.33 195.06 143.33 195.90 144.47 195.79 Z M 145.42 195.70 L 146.38 195.62 C 147.52 195.53 148.37 194.53 148.27 193.39 C 148.18 192.25 147.18 191.40 146.04 191.50 L 145.08 191.58 C 143.94 191.67 143.09 192.67 143.19 193.81 C 143.28 194.95 144.28 195.80 145.42 195.70 Z M 146.36 195.63 L 147.32 195.56 C 148.46 195.47 149.32 194.48 149.23 193.34 C 149.15 192.20 148.16 191.34 147.02 191.43 L 146.06 191.50 C 144.92 191.58 144.06 192.57 144.14 193.71 C 144.23 194.85 145.22 195.71 146.36 195.63 Z M 147.30 195.56 L 148.31 195.49 C 149.45 195.42 150.32 194.44 150.25 193.30 C 150.17 192.16 149.19 191.29 148.05 191.36 L 147.04 191.43 C 145.90 191.50 145.03 192.48 145.10 193.62 C 145.18 194.76 146.16 195.63 147.30 195.56 Z M 148.29 195.49 L 149.30 195.44 C 150.44 195.38 151.32 194.40 151.25 193.26 C 151.19 192.12 150.22 191.25 149.08 191.31 L 148.07 191.36 C 146.93 191.42 146.05 192.40 146.12 193.54 C 146.18 194.68 147.15 195.55 148.29 195.49 Z M 149.29 195.44 L 150.29 195.39 C 151.43 195.34 152.31 194.37 152.25 193.23 C 152.20 192.09 151.23 191.21 150.09 191.26 L 149.09 191.31 C 147.95 191.36 147.07 192.33 147.12 193.47 C 147.18 194.61 148.15 195.49 149.29 195.44 Z M 150.28 195.39 L 151.27 195.35 C 152.41 195.30 153.30 194.34 153.25 193.20 C 153.20 192.06 152.24 191.17 151.10 191.22 L 150.10 191.26 C 148.96 191.31 148.08 192.27 148.13 193.41 C 148.17 194.55 149.14 195.44 150.28 195.39 Z M 151.26 195.35 L 152.25 195.31 C 153.39 195.27 154.28 194.31 154.24 193.17 C 154.19 192.03 153.24 191.14 152.10 191.18 L 151.11 191.22 C 149.97 191.26 149.08 192.22 149.12 193.36 C 149.16 194.50 150.12 195.39 151.26 195.35 Z M 152.25 195.31 L 153.23 195.27 C 154.37 195.23 155.26 194.27 155.22 193.13 C 155.18 191.99 154.22 191.11 153.08 191.15 L 152.10 191.18 C 150.96 191.22 150.07 192.18 150.11 193.32 C 150.15 194.46 151.11 195.35 152.25 195.31 Z M 153.23 195.27 L 154.25 195.23 C 155.39 195.19 156.28 194.24 156.24 193.10 C 156.20 191.96 155.24 191.07 154.10 191.11 L 153.08 191.15 C 151.94 191.19 151.06 192.15 151.10 193.28 C 151.14 194.42 152.09 195.31 153.23 195.27 Z M 154.25 195.23 L 155.27 195.20 C 156.40 195.16 157.29 194.20 157.25 193.06 C 157.21 191.93 156.26 191.03 155.12 191.08 L 154.11 191.11 C 152.97 191.15 152.08 192.11 152.12 193.25 C 152.16 194.38 153.11 195.27 154.25 195.23 Z M 155.26 195.20 L 156.27 195.16 C 157.41 195.13 158.30 194.17 158.26 193.03 C 158.22 191.90 157.27 191.00 156.13 191.04 L 155.12 191.08 C 153.99 191.11 153.09 192.07 153.13 193.21 C 153.17 194.34 154.12 195.24 155.26 195.20 Z M 156.26 195.16 L 157.26 195.13 C 158.40 195.10 159.29 194.15 159.25 193.01 C 159.22 191.87 158.27 190.98 157.13 191.01 L 156.13 191.04 C 155.00 191.08 154.10 192.03 154.14 193.17 C 154.17 194.30 155.12 195.20 156.26 195.16 Z M 157.25 195.13 L 158.23 195.11 C 159.37 195.07 160.27 194.13 160.24 192.99 C 160.21 191.85 159.26 190.96 158.12 190.99 L 157.14 191.01 C 156.00 191.04 155.10 191.99 155.13 193.13 C 155.16 194.26 156.11 195.16 157.25 195.13 Z M 158.22 195.10 L 159.20 195.08 C 160.34 195.06 161.24 194.12 161.22 192.98 C 161.19 191.84 160.25 190.94 159.11 190.97 L 158.13 190.99 C 157.00 191.01 156.10 191.95 156.12 193.09 C 156.14 194.23 157.09 195.13 158.22 195.10 Z M 159.19 195.08 L 160.21 195.07 C 161.34 195.05 162.25 194.11 162.23 192.98 C 162.22 191.84 161.28 190.93 160.14 190.95 L 159.13 190.97 C 157.99 190.98 157.08 191.92 157.10 193.06 C 157.12 194.19 158.05 195.10 159.19 195.08 Z M 160.20 195.07 L 161.20 195.06 C 162.34 195.04 163.25 194.11 163.24 192.98 C 163.23 191.84 162.30 190.93 161.16 190.94 L 160.16 190.95 C 159.02 190.96 158.11 191.89 158.12 193.03 C 158.13 194.17 159.06 195.08 160.20 195.07 Z M 161.20 195.06 L 162.19 195.05 C 163.33 195.04 164.24 194.12 164.24 192.98 C 164.23 191.85 163.31 190.93 162.17 190.94 L 161.17 190.94 C 160.04 190.95 159.12 191.87 159.13 193.01 C 159.13 194.15 160.06 195.06 161.20 195.06 Z M 162.19 195.05 L 163.18 195.05 C 164.31 195.04 165.23 194.12 165.23 192.98 C 165.23 191.85 164.30 190.93 163.17 190.93 L 162.18 190.94 C 161.04 190.94 160.12 191.86 160.13 193.00 C 160.13 194.13 161.05 195.05 162.19 195.05 Z M 163.17 195.05 L 164.16 195.04 C 165.30 195.04 166.22 194.12 166.22 192.99 C 166.22 191.85 165.30 190.93 164.16 190.93 L 163.17 190.94 C 162.04 190.94 161.12 191.86 161.12 192.99 C 161.12 194.13 162.04 195.05 163.17 195.05 Z M 164.16 195.04 L 165.14 195.04 C 166.28 195.04 167.20 194.12 167.20 192.99 C 167.20 191.85 166.28 190.94 165.14 190.94 L 164.16 190.94 C 163.03 190.94 162.11 191.86 162.11 192.99 C 162.11 194.12 163.03 195.04 164.16 195.04 Z M 165.14 195.04 L 166.12 195.04 C 167.25 195.04 168.17 194.12 168.17 192.99 C 168.17 191.86 167.25 190.94 166.12 190.94 L 165.14 190.94 C 164.01 190.94 163.09 191.86 163.09 192.99 C 163.09 194.12 164.01 195.04 165.14 195.04 Z M 166.12 195.04 L 167.10 195.04 C 168.24 195.04 169.16 194.12 169.16 192.99 C 169.16 191.86 168.24 190.94 167.10 190.94 L 166.12 190.94 C 164.99 190.94 164.07 191.86 164.07 192.99 C 164.07 194.12 164.99 195.04 166.12 195.04 Z M 167.10 195.04 L 168.10 195.04 C 169.23 195.04 170.15 194.12 170.15 192.99 C 170.15 191.86 169.23 190.94 168.10 190.94 L 167.10 190.94 C 165.97 190.94 165.05 191.86 165.05 192.99 C 165.05 194.12 165.97 195.04 167.10 195.04 Z M 168.10 195.04 L 169.11 195.04 C 170.24 195.04 171.16 194.12 171.16 192.99 C 171.16 191.86 170.24 190.94 169.11 190.94 L 168.10 190.94 C 166.97 190.94 166.05 191.86 166.05 192.99 C 166.05 194.12 166.97 195.04 168.10 195.04 Z M 169.11 195.04 L 170.15 195.04 C 171.28 195.04 172.20 194.12 172.20 192.99 C 172.20 191.86 171.28 190.94 170.15 190.94 L 169.11 190.94 C 167.98 190.94 167.06 191.86 167.06 192.99 C 167.06 194.12 167.98 195.04 169.11 195.04 Z M 170.15 195.04 L 171.05 195.04 C 172.19 195.04 173.10 194.12 173.11 192.99 C 173.11 191.86 172.19 190.94 171.06 190.94 L 170.15 190.94 C 169.02 190.94 168.10 191.86 168.10 192.99 C 168.10 194.12 169.01 195.04 170.15 195.04 Z M 171.04 195.04 L 171.95 195.05 C 173.08 195.05 174.00 194.14 174.01 193.01 C 174.02 191.88 173.11 190.96 171.98 190.95 L 171.07 190.94 C 169.94 190.93 169.02 191.84 169.01 192.98 C 169.00 194.11 169.91 195.03 171.04 195.04 Z M 171.92 195.04 L 172.86 195.06 C 173.99 195.09 174.93 194.19 174.95 193.06 C 174.97 191.93 174.07 190.99 172.94 190.97 L 172.00 190.95 C 170.87 190.93 169.94 191.82 169.91 192.95 C 169.89 194.09 170.79 195.02 171.92 195.04 Z M 172.82 195.06 L 173.80 195.10 C 174.93 195.15 175.88 194.27 175.93 193.14 C 175.97 192.01 175.09 191.05 173.96 191.01 L 172.98 190.97 C 171.85 190.93 170.90 191.80 170.86 192.93 C 170.81 194.06 171.69 195.02 172.82 195.06 Z M 173.75 195.10 L 174.78 195.16 C 175.91 195.24 176.88 194.38 176.95 193.25 C 177.02 192.12 176.17 191.15 175.04 191.08 L 174.01 191.01 C 172.88 190.94 171.91 191.80 171.84 192.92 C 171.77 194.05 172.62 195.03 173.75 195.10 Z M 174.72 195.16 L 175.81 195.26 C 176.93 195.36 177.93 194.53 178.03 193.41 C 178.14 192.28 177.31 191.29 176.18 191.18 L 175.10 191.08 C 173.97 190.98 172.98 191.81 172.87 192.93 C 172.77 194.06 173.60 195.06 174.72 195.16 Z M 175.75 195.25 L 176.88 195.39 C 178.00 195.53 179.02 194.73 179.16 193.61 C 179.30 192.49 178.50 191.47 177.38 191.33 L 176.24 191.19 C 175.12 191.05 174.10 191.85 173.96 192.97 C 173.83 194.09 174.63 195.11 175.75 195.25 Z M 176.83 195.38 L 177.56 195.49 C 178.67 195.65 179.71 194.88 179.88 193.76 C 180.04 192.65 179.27 191.61 178.15 191.44 L 177.43 191.34 C 176.31 191.17 175.27 191.95 175.11 193.06 C 174.94 194.18 175.72 195.22 176.83 195.38 Z M 177.52 195.48 L 178.27 195.61 C 179.39 195.79 180.44 195.04 180.62 193.92 C 180.81 192.81 180.05 191.76 178.94 191.57 L 178.18 191.45 C 177.07 191.27 176.02 192.02 175.84 193.13 C 175.65 194.25 176.41 195.30 177.52 195.48 Z M 178.24 195.60 L 179.03 195.74 C 180.14 195.94 181.21 195.21 181.41 194.10 C 181.61 192.99 180.87 191.92 179.76 191.72 L 178.97 191.58 C 177.86 191.38 176.80 192.12 176.60 193.23 C 176.40 194.34 177.13 195.40 178.24 195.60 Z M 179.01 195.74 L 179.84 195.90 C 180.95 196.12 182.02 195.39 182.24 194.29 C 182.45 193.18 181.73 192.11 180.62 191.89 L 179.79 191.73 C 178.68 191.51 177.61 192.23 177.39 193.34 C 177.18 194.45 177.90 195.52 179.01 195.74 Z M 179.82 195.89 L 180.70 196.08 C 181.80 196.31 182.88 195.60 183.11 194.50 C 183.34 193.39 182.63 192.31 181.53 192.08 L 180.65 191.90 C 179.54 191.67 178.46 192.38 178.23 193.48 C 178.00 194.58 178.71 195.67 179.82 195.89 Z M 180.68 196.07 L 181.62 196.28 C 182.72 196.52 183.80 195.82 184.04 194.72 C 184.29 193.62 183.59 192.53 182.49 192.29 L 181.55 192.09 C 180.45 191.85 179.36 192.54 179.12 193.64 C 178.88 194.74 179.58 195.83 180.68 196.07 Z M 181.60 196.27 L 182.59 196.50 C 183.69 196.75 184.79 196.06 185.04 194.97 C 185.29 193.87 184.60 192.77 183.50 192.52 L 182.51 192.30 C 181.41 192.05 180.31 192.73 180.06 193.83 C 179.81 194.93 180.50 196.02 181.60 196.27 Z M 182.58 196.50 L 183.64 196.75 C 184.74 197.01 185.84 196.33 186.10 195.23 C 186.35 194.14 185.68 193.04 184.58 192.78 L 183.52 192.53 C 182.42 192.27 181.32 192.95 181.06 194.04 C 180.81 195.14 181.48 196.24 182.58 196.50 Z M 183.63 196.74 L 184.76 197.02 C 185.86 197.28 186.96 196.61 187.23 195.52 C 187.49 194.43 186.82 193.32 185.73 193.06 L 184.59 192.78 C 183.50 192.52 182.40 193.19 182.13 194.28 C 181.87 195.38 182.54 196.48 183.63 196.74 Z M 184.75 197.02 L 185.97 197.32 C 187.06 197.59 188.16 196.92 188.43 195.83 C 188.70 194.74 188.04 193.63 186.95 193.36 L 185.74 193.06 C 184.64 192.79 183.54 193.46 183.27 194.55 C 183.00 195.64 183.66 196.75 184.75 197.02 Z M 185.96 197.31 L 187.25 197.64 C 188.34 197.92 189.45 197.25 189.73 196.16 C 190.00 195.07 189.34 193.97 188.25 193.69 L 186.95 193.36 C 185.86 193.09 184.76 193.75 184.48 194.84 C 184.21 195.93 184.87 197.04 185.96 197.31 Z M 187.25 197.64 L 188.30 197.91 C 189.39 198.19 190.50 197.53 190.78 196.44 C 191.06 195.35 190.40 194.24 189.31 193.96 L 188.25 193.69 C 187.17 193.42 186.06 194.07 185.78 195.16 C 185.50 196.25 186.16 197.36 187.25 197.64 Z M 188.30 197.91 L 189.23 198.15 C 190.32 198.43 191.43 197.77 191.71 196.68 C 191.99 195.60 191.34 194.49 190.25 194.21 L 189.31 193.97 C 188.23 193.69 187.12 194.34 186.84 195.43 C 186.56 196.52 187.21 197.63 188.30 197.91 Z M 189.23 198.15 L 190.20 198.39 C 191.28 198.68 192.39 198.02 192.67 196.94 C 192.96 195.85 192.30 194.74 191.22 194.46 L 190.25 194.21 C 189.16 193.93 188.05 194.58 187.77 195.67 C 187.49 196.75 188.14 197.86 189.23 198.15 Z M 190.19 198.39 L 191.18 198.65 C 192.27 198.93 193.38 198.28 193.66 197.20 C 193.94 196.11 193.29 195.00 192.21 194.72 L 191.22 194.46 C 190.13 194.18 189.02 194.83 188.74 195.91 C 188.45 197.00 189.11 198.11 190.19 198.39 Z M 191.18 198.65 L 192.19 198.91 C 193.27 199.20 194.38 198.55 194.67 197.46 C 194.95 196.38 194.30 195.26 193.22 194.98 L 192.21 194.72 C 191.12 194.43 190.01 195.08 189.73 196.17 C 189.44 197.25 190.09 198.37 191.18 198.65 Z M 192.19 198.91 L 193.21 199.18 C 194.29 199.47 195.40 198.82 195.69 197.73 C 195.97 196.65 195.33 195.54 194.24 195.25 L 193.22 194.98 C 192.13 194.70 191.02 195.35 190.74 196.43 C 190.45 197.52 191.10 198.63 192.19 198.91 Z M 193.21 199.18 L 194.24 199.45 C 195.32 199.74 196.43 199.09 196.72 198.00 C 197.01 196.92 196.36 195.81 195.27 195.52 L 194.24 195.25 C 193.16 194.97 192.05 195.61 191.76 196.70 C 191.48 197.78 192.12 198.89 193.21 199.18 Z M 194.24 199.45 L 195.27 199.72 C 196.36 200.01 197.47 199.36 197.76 198.28 C 198.04 197.20 197.40 196.09 196.31 195.80 L 195.28 195.52 C 194.19 195.24 193.08 195.88 192.79 196.97 C 192.51 198.05 193.15 199.16 194.24 199.45 Z M 195.27 199.72 L 196.31 200.00 C 197.39 200.28 198.50 199.64 198.79 198.56 C 199.08 197.47 198.43 196.36 197.35 196.07 L 196.31 195.80 C 195.23 195.51 194.12 196.16 193.83 197.24 C 193.54 198.32 194.19 199.44 195.27 199.72 Z M 196.31 200.00 L 197.34 200.27 C 198.42 200.56 199.53 199.91 199.82 198.83 C 200.10 197.75 199.46 196.64 198.38 196.35 L 197.35 196.08 C 196.27 195.79 195.16 196.43 194.87 197.51 C 194.58 198.60 195.22 199.71 196.31 200.00 Z M 197.33 200.27 L 198.35 200.54 C 199.43 200.83 200.54 200.18 200.83 199.10 C 201.12 198.02 200.48 196.91 199.39 196.62 L 198.38 196.35 C 197.30 196.06 196.19 196.71 195.90 197.79 C 195.61 198.87 196.25 199.98 197.33 200.27 Z M 198.35 200.54 L 199.35 200.80 C 200.43 201.09 201.54 200.45 201.83 199.37 C 202.12 198.29 201.48 197.18 200.40 196.89 L 199.40 196.62 C 198.31 196.33 197.20 196.98 196.92 198.06 C 196.63 199.14 197.27 200.25 198.35 200.54 Z M 199.35 200.80 L 200.33 201.06 C 201.41 201.35 202.52 200.71 202.81 199.63 C 203.10 198.55 202.46 197.44 201.37 197.15 L 200.40 196.89 C 199.32 196.60 198.21 197.24 197.92 198.32 C 197.63 199.40 198.27 200.51 199.35 200.80 Z M 200.33 201.06 L 201.28 201.32 C 202.36 201.61 203.47 200.97 203.76 199.88 C 204.05 198.80 203.41 197.69 202.33 197.41 L 201.38 197.15 C 200.29 196.86 199.18 197.50 198.90 198.58 C 198.61 199.66 199.25 200.77 200.33 201.06 Z M 201.28 201.32 L 202.20 201.56 C 203.28 201.85 204.39 201.21 204.68 200.13 C 204.97 199.05 204.33 197.94 203.25 197.65 L 202.33 197.41 C 201.25 197.12 200.14 197.76 199.85 198.84 C 199.56 199.92 200.20 201.03 201.28 201.32 Z M 202.20 201.56 L 203.08 201.80 C 204.16 202.09 205.27 201.45 205.56 200.37 C 205.85 199.29 205.21 198.18 204.13 197.89 L 203.25 197.65 C 202.17 197.36 201.06 198.00 200.77 199.08 C 200.48 200.16 201.12 201.27 202.20 201.56 Z M 203.08 201.80 L 203.92 202.02 C 205.00 202.31 206.11 201.67 206.40 200.59 C 206.69 199.51 206.05 198.41 204.97 198.12 L 204.13 197.89 C 203.05 197.60 201.94 198.24 201.65 199.32 C 201.36 200.40 202.00 201.51 203.08 201.80 Z M 203.92 202.02 L 204.90 202.28 C 205.98 202.57 207.09 201.93 207.38 200.86 C 207.67 199.78 207.03 198.67 205.95 198.38 L 204.97 198.12 C 203.89 197.83 202.78 198.47 202.49 199.55 C 202.20 200.62 202.84 201.73 203.92 202.02 Z M 204.90 202.28 L 206.31 202.66 C 207.39 202.95 208.49 202.31 208.78 201.23 C 209.07 200.16 208.43 199.05 207.36 198.76 L 205.95 198.39 C 204.87 198.10 203.77 198.74 203.48 199.81 C 203.19 200.89 203.83 201.99 204.90 202.28 Z M 206.32 202.65 L 207.55 202.98 C 208.62 203.27 209.72 202.63 210.01 201.56 C 210.30 200.49 209.66 199.38 208.59 199.10 L 207.35 198.77 C 206.28 198.48 205.18 199.12 204.89 200.19 C 204.61 201.26 205.24 202.37 206.32 202.65 Z M 207.56 202.98 L 208.64 203.26 C 209.71 203.55 210.81 202.91 211.09 201.84 C 211.37 200.77 210.73 199.67 209.66 199.39 L 208.58 199.10 C 207.51 198.82 206.41 199.46 206.13 200.53 C 205.85 201.60 206.49 202.69 207.56 202.98 Z M 208.65 203.26 L 209.61 203.51 C 210.67 203.78 211.76 203.14 212.04 202.08 C 212.32 201.01 211.68 199.92 210.61 199.64 L 209.65 199.39 C 208.58 199.11 207.49 199.76 207.22 200.82 C 206.94 201.89 207.58 202.98 208.65 203.26 Z M 209.62 203.50 L 210.48 203.72 C 211.54 203.99 212.62 203.34 212.89 202.28 C 213.16 201.21 212.52 200.13 211.45 199.86 L 210.59 199.64 C 209.53 199.37 208.44 200.02 208.18 201.09 C 207.91 202.15 208.55 203.24 209.62 203.50 Z M 210.50 203.72 L 211.27 203.91 C 212.34 204.17 213.41 203.51 213.67 202.44 C 213.93 201.38 213.27 200.31 212.21 200.05 L 211.43 199.86 C 210.36 199.60 209.29 200.26 209.03 201.32 C 208.77 202.39 209.43 203.46 210.50 203.72 Z M 211.30 203.91 L 212.03 204.07 C 213.09 204.32 214.15 203.65 214.40 202.59 C 214.64 201.52 213.98 200.46 212.91 200.22 L 212.18 200.05 C 211.12 199.80 210.06 200.47 209.81 201.54 C 209.57 202.60 210.23 203.66 211.30 203.91 Z M 212.05 204.07 L 212.75 204.22 C 213.82 204.45 214.87 203.77 215.10 202.71 C 215.33 201.64 214.65 200.59 213.58 200.37 L 212.88 200.22 C 211.82 199.99 210.77 200.66 210.54 201.73 C 210.31 202.80 210.99 203.84 212.05 204.07 Z M 212.79 204.22 L 213.63 204.39 C 214.70 204.60 215.73 203.91 215.94 202.84 C 216.15 201.78 215.46 200.74 214.39 200.53 L 213.55 200.37 C 212.48 200.15 211.45 200.85 211.24 201.91 C 211.03 202.98 211.72 204.01 212.79 204.22 Z M 213.67 204.39 L 214.66 204.57 C 215.72 204.75 216.74 204.04 216.93 202.97 C 217.11 201.91 216.40 200.89 215.34 200.70 L 214.35 200.53 C 213.29 200.34 212.27 201.06 212.08 202.12 C 211.89 203.19 212.61 204.20 213.67 204.39 Z M 214.71 204.57 L 215.70 204.72 C 216.77 204.88 217.76 204.14 217.92 203.07 C 218.08 202.00 217.34 201.01 216.28 200.85 L 215.28 200.70 C 214.22 200.54 213.22 201.28 213.06 202.35 C 212.90 203.41 213.64 204.41 214.71 204.57 Z M 215.76 204.72 L 216.76 204.84 C 217.83 204.96 218.80 204.20 218.92 203.13 C 219.05 202.06 218.28 201.09 217.22 200.96 L 216.22 200.85 C 215.15 200.72 214.18 201.49 214.05 202.56 C 213.93 203.62 214.69 204.59 215.76 204.72 Z M 216.83 204.84 L 217.83 204.92 C 218.90 205.01 219.84 204.21 219.93 203.14 C 220.01 202.07 219.22 201.13 218.15 201.05 L 217.15 200.96 C 216.08 200.88 215.14 201.67 215.05 202.74 C 214.96 203.81 215.76 204.75 216.83 204.84 Z M 217.91 204.92 L 218.91 204.96 C 219.98 205.00 220.88 204.17 220.92 203.10 C 220.96 202.03 220.13 201.13 219.06 201.09 L 218.07 201.05 C 217.00 201.00 216.10 201.83 216.05 202.90 C 216.01 203.97 216.84 204.87 217.91 204.92 Z M 219.00 204.95 L 220.00 204.94 C 221.06 204.94 221.92 204.07 221.91 203.00 C 221.90 201.94 221.03 201.08 219.97 201.08 L 218.97 201.09 C 217.91 201.10 217.05 201.97 217.06 203.03 C 217.06 204.10 217.93 204.96 219.00 204.95 Z M 220.09 204.93 L 221.10 204.87 C 222.15 204.81 222.96 203.91 222.90 202.85 C 222.84 201.79 221.94 200.98 220.88 201.04 L 219.87 201.10 C 218.82 201.16 218.01 202.06 218.07 203.12 C 218.13 204.18 219.03 204.99 220.09 204.93 Z M 221.18 204.85 L 222.17 204.76 C 223.22 204.65 223.99 203.72 223.88 202.67 C 223.78 201.62 222.84 200.86 221.80 200.96 L 220.80 201.06 C 219.75 201.17 218.99 202.10 219.09 203.15 C 219.19 204.19 220.13 204.96 221.18 204.85 Z M 222.24 204.74 L 223.22 204.60 C 224.26 204.46 224.99 203.51 224.85 202.47 C 224.71 201.44 223.76 200.71 222.72 200.85 L 221.73 200.98 C 220.70 201.12 219.97 202.07 220.11 203.11 C 220.25 204.15 221.20 204.87 222.24 204.74 Z M 223.27 204.58 L 224.25 204.43 C 225.28 204.26 225.98 203.30 225.81 202.27 C 225.65 201.25 224.69 200.55 223.66 200.71 L 222.68 200.87 C 221.65 201.03 220.95 202.00 221.12 203.02 C 221.28 204.05 222.25 204.75 223.27 204.58 Z M 224.28 204.41 L 225.26 204.23 C 226.28 204.05 226.95 203.09 226.78 202.07 C 226.60 201.06 225.63 200.38 224.61 200.56 L 223.63 200.73 C 222.62 200.91 221.94 201.88 222.12 202.89 C 222.30 203.91 223.27 204.59 224.28 204.41 Z M 225.27 204.22 L 226.06 204.07 C 227.07 203.89 227.74 202.92 227.55 201.91 C 227.37 200.91 226.40 200.24 225.39 200.43 L 224.60 200.57 C 223.59 200.76 222.93 201.72 223.11 202.73 C 223.30 203.74 224.27 204.41 225.27 204.22 Z"
      fill="black"
      fill-rule="nonzero" /></svg>