<svg xmlns="http://www.w3.org/2000/svg" width="300" height="300" viewBox="0 0 300 300">
<path d="M 149.79 151.56 L 149.54 150.56 C 149.31 149.64 148.37 149.07 147.45 149.31 C 146.52 149.54 145.96 150.48 146.19 151.40 L 146.44 152.40 C 146.67 153.33 147.61 153.89 148.54 153.66 C 149.46 153.42 150.02 152.48 149.79 151.56 Z M 149.56 150.55 L 149.31 149.56 C 149.07 148.62 148.11 148.06 147.18 148.30 C 146.24 148.54 145.68 149.49 145.92 150.43 L 146.17 151.42 C 146.41 152.35 147.36 152.92 148.30 152.68 C 149.24 152.44 149.80 151.48 149.56 150.55 Z M 149.32 149.54 L 149.06 148.56 C 148.81 147.61 147.84 147.05 146.90 147.30 C 145.95 147.56 145.39 148.52 145.64 149.47 L 145.90 150.45 C 146.16 151.39 147.12 151.95 148.07 151.70 C 149.01 151.45 149.57 150.48 149.32 149.54 Z M 149.07 148.53 L 148.80 147.56 C 148.53 146.61 147.54 146.06 146.59 146.33 C 145.64 146.60 145.09 147.59 145.36 148.54 L 145.63 149.50 C 145.90 150.45 146.89 151.00 147.84 150.73 C 148.79 150.47 149.34 149.48 149.07 148.53 Z M 148.81 147.52 L 148.52 146.58 C 148.23 145.63 147.22 145.09 146.26 145.38 C 145.31 145.67 144.77 146.68 145.06 147.64 L 145.35 148.58 C 145.64 149.53 146.65 150.07 147.61 149.78 C 148.56 149.49 149.10 148.48 148.81 147.52 Z M 148.53 146.53 L 148.22 145.62 C 147.90 144.66 146.86 144.14 145.91 144.46 C 144.95 144.78 144.43 145.82 144.75 146.78 L 145.06 147.69 C 145.38 148.65 146.42 149.17 147.37 148.84 C 148.33 148.52 148.85 147.49 148.53 146.53 Z M 148.22 145.55 L 147.86 144.59 C 147.50 143.64 146.44 143.15 145.48 143.51 C 144.52 143.87 144.04 144.93 144.40 145.89 L 144.76 146.85 C 145.11 147.80 146.18 148.29 147.14 147.93 C 148.09 147.57 148.58 146.50 148.22 145.55 Z M 147.84 144.51 L 147.45 143.58 C 147.04 142.63 145.95 142.19 145.00 142.59 C 144.05 142.99 143.61 144.09 144.02 145.04 L 144.41 145.97 C 144.82 146.92 145.91 147.36 146.86 146.96 C 147.81 146.55 148.25 145.46 147.84 144.51 Z M 147.42 143.49 L 146.99 142.59 C 146.54 141.65 145.41 141.26 144.48 141.72 C 143.54 142.17 143.15 143.29 143.60 144.23 L 144.04 145.13 C 144.49 146.06 145.62 146.45 146.55 146.00 C 147.49 145.55 147.88 144.42 147.42 143.49 Z M 146.96 142.49 L 146.48 141.63 C 145.97 140.71 144.82 140.38 143.90 140.89 C 142.98 141.40 142.65 142.55 143.16 143.47 L 143.64 144.33 C 144.14 145.25 145.30 145.58 146.22 145.07 C 147.13 144.56 147.46 143.41 146.96 142.49 Z M 146.43 141.52 L 145.91 140.69 C 145.34 139.80 144.16 139.54 143.27 140.10 C 142.38 140.67 142.11 141.85 142.68 142.74 L 143.20 143.57 C 143.77 144.46 144.95 144.73 145.84 144.16 C 146.74 143.60 147.00 142.42 146.43 141.52 Z M 145.86 140.59 L 145.27 139.78 C 144.65 138.92 143.44 138.73 142.58 139.35 C 141.72 139.98 141.52 141.18 142.15 142.05 L 142.73 142.85 C 143.36 143.71 144.56 143.91 145.42 143.28 C 146.29 142.66 146.48 141.45 145.86 140.59 Z M 145.20 139.67 L 144.55 138.89 C 143.87 138.06 142.64 137.95 141.82 138.64 C 140.99 139.32 140.88 140.55 141.57 141.37 L 142.22 142.16 C 142.90 142.98 144.13 143.09 144.95 142.41 C 145.78 141.72 145.89 140.50 145.20 139.67 Z M 144.46 138.78 L 143.76 138.04 C 143.01 137.27 141.77 137.24 141.00 137.99 C 140.22 138.74 140.20 139.98 140.95 140.75 L 141.65 141.48 C 142.40 142.26 143.64 142.28 144.41 141.54 C 145.19 140.79 145.21 139.55 144.46 138.78 Z M 143.65 137.92 L 142.89 137.26 C 142.07 136.54 140.83 136.63 140.12 137.44 C 139.41 138.26 139.49 139.50 140.30 140.21 L 141.06 140.87 C 141.88 141.59 143.12 141.51 143.83 140.69 C 144.54 139.87 144.46 138.63 143.65 137.92 Z M 142.74 137.13 L 141.94 136.55 C 141.05 135.92 139.82 136.12 139.19 137.01 C 138.55 137.90 138.76 139.13 139.64 139.76 L 140.45 140.34 C 141.33 140.97 142.57 140.77 143.20 139.88 C 143.83 139.00 143.63 137.76 142.74 137.13 Z M 141.75 136.42 L 140.91 135.96 C 139.95 135.42 138.74 135.77 138.21 136.73 C 137.68 137.68 138.03 138.89 138.98 139.42 L 139.83 139.89 C 140.79 140.42 141.99 140.08 142.53 139.12 C 143.06 138.16 142.71 136.96 141.75 136.42 Z M 140.67 135.83 L 139.71 135.46 C 138.69 135.07 137.53 135.58 137.14 136.60 C 136.74 137.63 137.25 138.78 138.28 139.18 L 139.23 139.55 C 140.25 139.94 141.41 139.43 141.80 138.41 C 142.20 137.38 141.69 136.23 140.67 135.83 Z M 139.43 135.37 L 138.43 135.15 C 137.35 134.91 136.29 135.59 136.05 136.67 C 135.81 137.75 136.49 138.82 137.57 139.05 L 138.56 139.27 C 139.64 139.51 140.71 138.83 140.95 137.75 C 141.18 136.67 140.50 135.61 139.43 135.37 Z M 138.12 135.10 L 137.12 135.04 C 136.02 134.98 135.07 135.83 135.00 136.93 C 134.94 138.04 135.79 138.98 136.89 139.05 L 137.89 139.10 C 138.99 139.17 139.94 138.32 140.00 137.22 C 140.07 136.11 139.22 135.16 138.12 135.10 Z M 136.78 135.05 L 135.80 135.16 C 134.70 135.28 133.91 136.28 134.03 137.38 C 134.16 138.49 135.15 139.28 136.26 139.15 L 137.23 139.04 C 138.34 138.92 139.13 137.92 139.00 136.82 C 138.88 135.71 137.88 134.92 136.78 135.05 Z M 135.44 135.23 L 134.51 135.51 C 133.45 135.84 132.85 136.96 133.17 138.03 C 133.50 139.09 134.62 139.69 135.69 139.37 L 136.62 139.09 C 137.69 138.76 138.29 137.63 137.96 136.57 C 137.64 135.50 136.51 134.90 135.44 135.23 Z M 134.16 135.65 L 133.31 136.10 C 132.32 136.62 131.94 137.85 132.46 138.83 C 132.99 139.82 134.21 140.20 135.20 139.68 L 136.05 139.23 C 137.03 138.71 137.41 137.48 136.89 136.49 C 136.37 135.51 135.14 135.13 134.16 135.65 Z M 133.01 136.29 L 132.24 136.88 C 131.36 137.57 131.19 138.84 131.88 139.72 C 132.56 140.61 133.83 140.77 134.72 140.09 L 135.49 139.49 C 136.37 138.81 136.54 137.54 135.85 136.65 C 135.17 135.77 133.90 135.60 133.01 136.29 Z M 132.02 137.08 L 131.33 137.80 C 130.55 138.60 130.57 139.88 131.37 140.66 C 132.18 141.44 133.46 141.42 134.24 140.61 L 134.93 139.90 C 135.71 139.09 135.69 137.81 134.89 137.03 C 134.08 136.25 132.80 136.27 132.02 137.08 Z M 131.16 137.99 L 130.55 138.80 C 129.88 139.69 130.06 140.97 130.95 141.64 C 131.85 142.31 133.12 142.13 133.79 141.24 L 134.40 140.42 C 135.08 139.53 134.90 138.26 134.00 137.58 C 133.11 136.91 131.84 137.09 131.16 137.99 Z M 130.42 138.98 L 129.90 139.86 C 129.33 140.83 129.65 142.07 130.61 142.65 C 131.57 143.22 132.82 142.90 133.39 141.94 L 133.92 141.06 C 134.49 140.09 134.17 138.85 133.21 138.27 C 132.24 137.70 131.00 138.02 130.42 138.98 Z M 129.81 140.04 L 129.39 140.92 C 128.91 141.94 129.35 143.15 130.37 143.62 C 131.38 144.10 132.59 143.66 133.07 142.65 L 133.49 141.76 C 133.96 140.75 133.53 139.54 132.51 139.06 C 131.49 138.58 130.28 139.02 129.81 140.04 Z M 129.32 141.09 L 128.99 141.99 C 128.60 143.05 129.14 144.21 130.20 144.60 C 131.25 144.99 132.42 144.45 132.81 143.39 L 133.14 142.49 C 133.53 141.43 132.99 140.26 131.93 139.88 C 130.88 139.49 129.71 140.03 129.32 141.09 Z M 128.94 142.14 L 128.68 143.08 C 128.37 144.16 129.00 145.29 130.08 145.59 C 131.16 145.90 132.28 145.27 132.59 144.19 L 132.85 143.24 C 133.16 142.16 132.53 141.04 131.45 140.74 C 130.37 140.43 129.25 141.06 128.94 142.14 Z M 128.64 143.21 L 128.43 144.19 C 128.20 145.29 128.90 146.37 130.00 146.61 C 131.10 146.84 132.18 146.14 132.41 145.04 L 132.62 144.06 C 132.85 142.96 132.15 141.88 131.06 141.65 C 129.96 141.41 128.88 142.11 128.64 143.21 Z M 128.41 144.30 L 128.25 145.32 C 128.08 146.43 128.83 147.47 129.94 147.65 C 131.05 147.83 132.09 147.07 132.27 145.96 L 132.43 144.94 C 132.61 143.83 131.85 142.79 130.74 142.61 C 129.63 142.43 128.59 143.19 128.41 144.30 Z M 128.24 145.40 L 128.13 146.36 C 127.99 147.48 128.79 148.49 129.90 148.62 C 131.02 148.76 132.03 147.96 132.16 146.85 L 132.28 145.88 C 132.41 144.77 131.62 143.76 130.50 143.62 C 129.39 143.49 128.37 144.29 128.24 145.40 Z M 128.12 146.42 L 128.04 147.28 C 127.94 148.39 128.76 149.38 129.88 149.49 C 131.00 149.59 131.99 148.77 132.09 147.65 L 132.17 146.79 C 132.27 145.67 131.45 144.68 130.33 144.58 C 129.21 144.48 128.22 145.30 128.12 146.42 Z M 128.04 147.32 L 127.98 148.22 C 127.90 149.34 128.74 150.31 129.86 150.39 C 130.98 150.47 131.95 149.62 132.03 148.50 L 132.09 147.60 C 132.17 146.48 131.33 145.51 130.21 145.44 C 129.09 145.36 128.12 146.20 128.04 147.32 Z M 127.97 148.26 L 127.93 149.21 C 127.87 150.33 128.73 151.29 129.85 151.34 C 130.97 151.40 131.93 150.53 131.98 149.41 L 132.03 148.46 C 132.09 147.34 131.22 146.39 130.10 146.33 C 128.98 146.28 128.03 147.14 127.97 148.26 Z M 127.93 149.24 L 127.89 150.25 C 127.85 151.38 128.73 152.31 129.85 152.35 C 130.97 152.39 131.91 151.51 131.95 150.39 L 131.98 149.38 C 132.02 148.26 131.14 147.32 130.02 147.28 C 128.90 147.25 127.96 148.12 127.93 149.24 Z M 127.89 150.28 L 127.87 151.36 C 127.85 152.48 128.74 153.41 129.86 153.43 C 130.98 153.45 131.91 152.56 131.93 151.44 L 131.95 150.36 C 131.97 149.24 131.08 148.31 129.96 148.29 C 128.84 148.27 127.91 149.16 127.89 150.28 Z M 127.87 151.38 L 127.86 152.54 C 127.85 153.66 128.75 154.58 129.87 154.59 C 130.99 154.60 131.91 153.70 131.92 152.57 L 131.93 151.42 C 131.94 150.30 131.04 149.38 129.92 149.37 C 128.80 149.36 127.88 150.26 127.87 151.38 Z M 127.86 152.56 L 127.86 153.63 C 127.86 154.75 128.77 155.66 129.89 155.66 C 131.01 155.66 131.92 154.75 131.92 153.63 L 131.92 152.56 C 131.92 151.44 131.01 150.53 129.89 150.53 C 128.77 150.53 127.86 151.44 127.86 152.56 Z M 127.86 153.65 L 127.87 154.61 C 127.88 155.73 128.79 156.63 129.91 156.63 C 131.03 156.62 131.93 155.71 131.92 154.59 L 131.92 153.62 C 131.91 152.50 131.00 151.60 129.88 151.60 C 128.76 151.61 127.85 152.53 127.86 153.65 Z M 127.87 154.63 L 127.88 155.63 C 127.90 156.75 128.82 157.64 129.94 157.63 C 131.06 157.61 131.96 156.69 131.94 155.57 L 131.92 154.57 C 131.91 153.45 130.99 152.55 129.87 152.57 C 128.75 152.59 127.85 153.51 127.87 154.63 Z M 127.89 155.65 L 127.91 156.68 C 127.94 157.79 128.87 158.68 129.99 158.65 C 131.11 158.62 131.99 157.69 131.96 156.57 L 131.94 155.55 C 131.91 154.43 130.98 153.55 129.86 153.57 C 128.74 153.60 127.86 154.53 127.89 155.65 Z M 127.91 156.70 L 127.95 157.74 C 128.00 158.85 128.94 159.73 130.06 159.68 C 131.17 159.64 132.05 158.70 132.00 157.58 L 131.96 156.55 C 131.92 155.43 130.98 154.56 129.86 154.60 C 128.74 154.64 127.87 155.58 127.91 156.70 Z M 127.96 157.77 L 128.01 158.80 C 128.07 159.92 129.03 160.78 130.14 160.72 C 131.26 160.66 132.12 159.70 132.06 158.58 L 132.00 157.55 C 131.94 156.43 130.99 155.58 129.87 155.64 C 128.75 155.70 127.90 156.65 127.96 157.77 Z M 128.02 158.84 L 128.09 159.87 C 128.17 160.98 129.14 161.82 130.26 161.74 C 131.37 161.66 132.21 160.69 132.13 159.57 L 132.05 158.55 C 131.97 157.43 131.00 156.60 129.89 156.68 C 128.77 156.76 127.94 157.73 128.02 158.84 Z M 128.10 159.91 L 128.19 160.91 C 128.30 162.03 129.29 162.84 130.40 162.74 C 131.51 162.63 132.32 161.64 132.22 160.53 L 132.12 159.53 C 132.02 158.42 131.03 157.60 129.92 157.71 C 128.81 157.81 127.99 158.80 128.10 159.91 Z M 128.20 160.97 L 128.32 161.94 C 128.45 163.05 129.46 163.84 130.57 163.70 C 131.68 163.56 132.47 162.55 132.33 161.45 L 132.21 160.48 C 132.08 159.37 131.07 158.58 129.96 158.72 C 128.85 158.85 128.06 159.86 128.20 160.97 Z M 128.33 162.01 L 128.48 162.98 C 128.66 164.08 129.69 164.84 130.79 164.66 C 131.89 164.49 132.65 163.45 132.47 162.35 L 132.32 161.38 C 132.15 160.28 131.11 159.52 130.01 159.70 C 128.91 159.87 128.15 160.91 128.33 162.01 Z M 128.50 163.07 L 128.73 164.18 C 128.95 165.27 130.02 165.98 131.11 165.75 C 132.20 165.53 132.91 164.46 132.68 163.37 L 132.45 162.26 C 132.23 161.17 131.16 160.47 130.07 160.69 C 128.98 160.91 128.28 161.98 128.50 163.07 Z M 128.75 164.28 L 129.02 165.32 C 129.30 166.39 130.40 167.04 131.48 166.76 C 132.56 166.48 133.20 165.38 132.92 164.30 L 132.66 163.27 C 132.38 162.19 131.28 161.55 130.20 161.83 C 129.12 162.10 128.48 163.20 128.75 164.28 Z M 129.06 165.41 L 129.36 166.38 C 129.69 167.44 130.82 168.03 131.88 167.70 C 132.94 167.36 133.53 166.23 133.20 165.18 L 132.89 164.21 C 132.56 163.15 131.43 162.56 130.37 162.89 C 129.31 163.23 128.72 164.35 129.06 165.41 Z M 129.40 166.48 L 129.73 167.39 C 130.12 168.43 131.27 168.96 132.31 168.58 C 133.35 168.19 133.88 167.04 133.50 166.00 L 133.16 165.08 C 132.78 164.04 131.62 163.51 130.58 163.90 C 129.54 164.28 129.01 165.44 129.40 166.48 Z M 129.77 167.47 L 130.14 168.34 C 130.57 169.36 131.74 169.84 132.76 169.41 C 133.78 168.98 134.26 167.80 133.83 166.79 L 133.46 165.91 C 133.03 164.89 131.86 164.42 130.84 164.85 C 129.82 165.28 129.34 166.45 129.77 167.47 Z M 130.17 168.41 L 130.57 169.25 C 131.04 170.25 132.23 170.68 133.23 170.21 C 134.23 169.74 134.66 168.55 134.19 167.55 L 133.80 166.71 C 133.33 165.71 132.13 165.28 131.13 165.75 C 130.13 166.22 129.70 167.41 130.17 168.41 Z M 130.60 169.31 L 131.01 170.12 C 131.51 171.10 132.71 171.49 133.70 170.99 C 134.68 170.49 135.07 169.29 134.57 168.31 L 134.16 167.50 C 133.66 166.51 132.45 166.12 131.47 166.62 C 130.49 167.12 130.10 168.32 130.60 169.31 Z M 131.04 170.17 L 131.52 171.05 C 132.04 172.02 133.25 172.37 134.22 171.85 C 135.19 171.32 135.55 170.11 135.02 169.14 L 134.54 168.26 C 134.02 167.29 132.81 166.94 131.84 167.46 C 130.87 167.99 130.51 169.20 131.04 170.17 Z M 131.55 171.11 L 132.06 171.98 C 132.62 172.92 133.84 173.24 134.79 172.68 C 135.74 172.12 136.06 170.90 135.50 169.95 L 134.99 169.09 C 134.43 168.14 133.21 167.82 132.26 168.38 C 131.31 168.94 131.00 170.16 131.55 171.11 Z M 132.11 172.05 L 132.66 172.89 C 133.26 173.81 134.49 174.07 135.41 173.47 C 136.33 172.87 136.59 171.64 135.99 170.72 L 135.45 169.88 C 134.85 168.96 133.62 168.70 132.70 169.30 C 131.78 169.90 131.52 171.13 132.11 172.05 Z M 132.72 172.98 L 133.31 173.78 C 133.96 174.67 135.20 174.86 136.09 174.21 C 136.97 173.56 137.17 172.32 136.52 171.43 L 135.93 170.63 C 135.28 169.75 134.04 169.55 133.15 170.20 C 132.27 170.85 132.08 172.09 132.72 172.98 Z M 133.40 173.88 L 134.03 174.64 C 134.74 175.48 135.99 175.59 136.83 174.89 C 137.67 174.18 137.78 172.93 137.07 172.09 L 136.43 171.33 C 135.73 170.49 134.48 170.38 133.64 171.09 C 132.80 171.79 132.69 173.04 133.40 173.88 Z M 134.14 174.75 L 134.83 175.46 C 135.59 176.24 136.85 176.25 137.63 175.49 C 138.41 174.72 138.43 173.47 137.66 172.69 L 136.97 171.98 C 136.20 171.20 134.95 171.19 134.17 171.95 C 133.38 172.72 133.37 173.97 134.14 174.75 Z M 134.96 175.57 L 135.71 176.22 C 136.54 176.93 137.78 176.84 138.50 176.01 C 139.21 175.18 139.11 173.93 138.29 173.22 L 137.53 172.57 C 136.71 171.86 135.46 171.96 134.74 172.78 C 134.03 173.61 134.13 174.86 134.96 175.57 Z M 135.85 176.33 L 136.65 176.90 C 137.54 177.54 138.78 177.33 139.41 176.44 C 140.05 175.56 139.84 174.32 138.95 173.69 L 138.15 173.11 C 137.26 172.48 136.02 172.68 135.39 173.57 C 134.75 174.46 134.96 175.69 135.85 176.33 Z M 136.80 177.00 L 137.66 177.50 C 138.60 178.06 139.81 177.74 140.37 176.80 C 140.92 175.86 140.60 174.65 139.66 174.10 L 138.80 173.59 C 137.86 173.04 136.65 173.35 136.10 174.29 C 135.55 175.23 135.86 176.45 136.80 177.00 Z M 137.82 177.59 L 138.72 178.01 C 139.71 178.48 140.89 178.06 141.35 177.08 C 141.82 176.09 141.40 174.91 140.41 174.45 L 139.51 174.02 C 138.52 173.55 137.34 173.97 136.88 174.96 C 136.41 175.94 136.83 177.12 137.82 177.59 Z M 138.89 178.08 L 139.83 178.43 C 140.86 178.80 141.99 178.28 142.36 177.25 C 142.74 176.23 142.21 175.10 141.19 174.72 L 140.25 174.38 C 139.22 174.00 138.09 174.53 137.71 175.55 C 137.34 176.58 137.87 177.71 138.89 178.08 Z M 140.01 178.48 L 140.98 178.74 C 142.04 179.01 143.11 178.38 143.39 177.33 C 143.67 176.27 143.03 175.20 141.98 174.92 L 141.01 174.67 C 139.96 174.39 138.88 175.02 138.60 176.08 C 138.33 177.13 138.96 178.21 140.01 178.48 Z M 141.18 178.78 L 142.17 178.93 C 143.24 179.10 144.25 178.37 144.42 177.29 C 144.59 176.22 143.86 175.21 142.78 175.04 L 141.79 174.88 C 140.71 174.71 139.70 175.45 139.53 176.52 C 139.36 177.60 140.10 178.61 141.18 178.78 Z M 142.37 178.95 L 143.37 179.01 C 144.46 179.06 145.39 178.23 145.45 177.14 C 145.50 176.05 144.67 175.13 143.58 175.07 L 142.58 175.02 C 141.49 174.96 140.56 175.80 140.50 176.88 C 140.45 177.97 141.28 178.90 142.37 178.95 Z M 143.58 179.01 L 144.58 178.96 C 145.67 178.90 146.51 177.97 146.45 176.89 C 146.40 175.80 145.47 174.96 144.38 175.02 L 143.38 175.07 C 142.29 175.12 141.45 176.05 141.51 177.14 C 141.56 178.22 142.49 179.06 143.58 179.01 Z M 144.78 178.94 L 145.77 178.79 C 146.85 178.62 147.59 177.62 147.43 176.54 C 147.27 175.46 146.26 174.72 145.18 174.89 L 144.19 175.04 C 143.11 175.20 142.37 176.20 142.53 177.28 C 142.70 178.36 143.70 179.10 144.78 178.94 Z M 145.96 178.75 L 146.93 178.50 C 147.99 178.24 148.63 177.16 148.36 176.11 C 148.10 175.05 147.02 174.41 145.97 174.68 L 144.99 174.92 C 143.94 175.19 143.30 176.26 143.56 177.32 C 143.83 178.38 144.91 179.02 145.96 178.75 Z M 147.12 178.45 L 148.06 178.11 C 149.08 177.74 149.62 176.61 149.25 175.58 C 148.88 174.56 147.75 174.03 146.72 174.40 L 145.78 174.73 C 144.76 175.10 144.22 176.23 144.59 177.26 C 144.96 178.28 146.09 178.82 147.12 178.45 Z M 148.24 178.04 L 149.13 177.61 C 150.12 177.14 150.54 175.96 150.07 174.98 C 149.60 173.99 148.42 173.58 147.44 174.04 L 146.54 174.47 C 145.56 174.94 145.14 176.12 145.61 177.10 C 146.08 178.09 147.25 178.50 148.24 178.04 Z M 149.31 177.51 L 150.15 177.00 C 151.08 176.44 151.38 175.22 150.81 174.29 C 150.24 173.36 149.03 173.06 148.10 173.63 L 147.26 174.14 C 146.33 174.71 146.03 175.92 146.60 176.85 C 147.16 177.79 148.38 178.08 149.31 177.51 Z M 150.32 176.89 L 151.10 176.30 C 151.97 175.64 152.13 174.40 151.47 173.53 C 150.81 172.66 149.57 172.49 148.70 173.15 L 147.92 173.74 C 147.06 174.40 146.89 175.65 147.55 176.51 C 148.21 177.38 149.45 177.55 150.32 176.89 Z M 151.24 176.18 L 151.96 175.52 C 152.76 174.77 152.81 173.52 152.07 172.72 C 151.32 171.91 150.07 171.87 149.27 172.61 L 148.55 173.27 C 147.75 174.02 147.70 175.27 148.44 176.07 C 149.19 176.88 150.44 176.92 151.24 176.18 Z M 152.08 175.40 L 152.75 174.67 C 153.48 173.86 153.42 172.60 152.61 171.86 C 151.80 171.13 150.54 171.19 149.81 172.00 L 149.14 172.73 C 148.41 173.54 148.47 174.80 149.28 175.53 C 150.09 176.27 151.35 176.21 152.08 175.40 Z M 152.84 174.55 L 153.46 173.77 C 154.13 172.90 153.98 171.65 153.11 170.98 C 152.24 170.30 150.99 170.46 150.32 171.33 L 149.71 172.11 C 149.03 172.98 149.19 174.23 150.06 174.90 C 150.92 175.58 152.17 175.42 152.84 174.55 Z M 153.54 173.66 L 154.11 172.82 C 154.72 171.91 154.49 170.67 153.57 170.06 C 152.66 169.44 151.43 169.68 150.81 170.59 L 150.24 171.43 C 149.62 172.34 149.86 173.58 150.77 174.19 C 151.68 174.81 152.92 174.57 153.54 173.66 Z M 154.17 172.73 L 154.70 171.85 C 155.27 170.90 154.96 169.68 154.02 169.11 C 153.07 168.54 151.85 168.85 151.28 169.79 L 150.75 170.68 C 150.18 171.62 150.49 172.85 151.43 173.42 C 152.38 173.98 153.60 173.68 154.17 172.73 Z M 154.75 171.77 L 155.22 170.90 C 155.74 169.93 155.38 168.72 154.41 168.19 C 153.44 167.66 152.23 168.03 151.70 169.00 L 151.23 169.87 C 150.71 170.84 151.07 172.05 152.04 172.58 C 153.01 173.10 154.22 172.74 154.75 171.77 Z M 155.26 170.83 L 155.69 169.97 C 156.18 168.98 155.77 167.78 154.78 167.29 C 153.79 166.79 152.59 167.20 152.10 168.19 L 151.67 169.06 C 151.18 170.05 151.58 171.25 152.57 171.74 C 153.56 172.23 154.77 171.83 155.26 170.83 Z M 155.72 169.91 L 156.12 169.02 C 156.58 168.01 156.14 166.82 155.13 166.36 C 154.12 165.90 152.93 166.35 152.47 167.35 L 152.07 168.25 C 151.61 169.26 152.05 170.44 153.06 170.90 C 154.07 171.36 155.26 170.92 155.72 169.91 Z M 156.15 168.97 L 156.54 168.05 C 156.97 167.03 156.49 165.85 155.47 165.42 C 154.44 164.99 153.26 165.47 152.83 166.49 L 152.45 167.40 C 152.02 168.43 152.50 169.61 153.52 170.04 C 154.54 170.47 155.72 169.99 156.15 168.97 Z M 156.56 168.00 L 156.93 167.06 C 157.33 166.03 156.82 164.86 155.79 164.46 C 154.75 164.05 153.58 164.56 153.18 165.60 L 152.81 166.53 C 152.41 167.57 152.92 168.74 153.95 169.14 C 154.99 169.55 156.15 169.04 156.56 168.00 Z M 156.95 167.02 L 157.30 166.07 C 157.68 165.02 157.14 163.86 156.10 163.48 C 155.05 163.10 153.89 163.63 153.51 164.68 L 153.16 165.64 C 152.78 166.68 153.31 167.84 154.36 168.22 C 155.40 168.61 156.56 168.07 156.95 167.02 Z M 157.31 166.03 L 157.65 165.06 C 158.01 164.00 157.45 162.85 156.40 162.49 C 155.34 162.13 154.19 162.69 153.83 163.74 L 153.49 164.72 C 153.13 165.77 153.69 166.92 154.75 167.28 C 155.80 167.65 156.95 167.09 157.31 166.03 Z M 157.66 165.03 L 157.97 164.07 C 158.32 163.01 157.74 161.87 156.68 161.52 C 155.61 161.18 154.47 161.76 154.13 162.82 L 153.81 163.77 C 153.47 164.84 154.05 165.98 155.11 166.32 C 156.17 166.67 157.32 166.09 157.66 165.03 Z M 157.99 164.04 L 158.27 163.13 C 158.60 162.06 158.00 160.93 156.93 160.60 C 155.86 160.27 154.72 160.87 154.39 161.94 L 154.11 162.85 C 153.78 163.92 154.38 165.05 155.45 165.38 C 156.52 165.71 157.66 165.11 157.99 164.04 Z M 158.28 163.10 L 158.55 162.18 C 158.86 161.10 158.24 159.97 157.16 159.66 C 156.08 159.35 154.96 159.97 154.65 161.05 L 154.38 161.97 C 154.07 163.05 154.69 164.17 155.77 164.49 C 156.84 164.80 157.97 164.18 158.28 163.10 Z M 158.56 162.14 L 158.81 161.20 C 159.10 160.11 158.46 159.00 157.37 158.71 C 156.29 158.42 155.17 159.06 154.88 160.15 L 154.63 161.09 C 154.34 162.17 154.99 163.29 156.07 163.58 C 157.16 163.87 158.27 163.22 158.56 162.14 Z M 158.83 161.15 L 159.06 160.19 C 159.33 159.10 158.65 158.00 157.56 157.73 C 156.47 157.47 155.37 158.14 155.10 159.23 L 154.87 160.19 C 154.61 161.28 155.28 162.38 156.37 162.65 C 157.46 162.91 158.56 162.24 158.83 161.15 Z M 159.07 160.14 L 159.29 159.16 C 159.53 158.06 158.83 156.97 157.73 156.73 C 156.63 156.49 155.54 157.19 155.30 158.29 L 155.09 159.28 C 154.85 160.38 155.55 161.46 156.65 161.70 C 157.75 161.94 158.84 161.24 159.07 160.14 Z M 159.30 159.10 L 159.49 158.09 C 159.70 156.98 158.98 155.92 157.87 155.71 C 156.76 155.50 155.69 156.22 155.48 157.33 L 155.29 158.34 C 155.08 159.45 155.81 160.52 156.92 160.73 C 158.02 160.94 159.09 160.21 159.30 159.10 Z M 159.51 158.04 L 159.67 156.99 C 159.85 155.88 159.09 154.83 157.98 154.65 C 156.87 154.47 155.82 155.23 155.64 156.35 L 155.47 157.39 C 155.29 158.50 156.05 159.55 157.16 159.73 C 158.28 159.91 159.33 159.15 159.51 158.04 Z M 159.68 156.94 L 159.82 155.89 C 159.97 154.77 159.18 153.74 158.06 153.60 C 156.94 153.45 155.91 154.24 155.76 155.36 L 155.63 156.40 C 155.48 157.52 156.27 158.55 157.39 158.70 C 158.51 158.85 159.54 158.06 159.68 156.94 Z M 159.83 155.84 L 159.94 154.81 C 160.06 153.69 159.24 152.68 158.11 152.56 C 156.99 152.45 155.98 153.26 155.86 154.39 L 155.76 155.41 C 155.64 156.54 156.45 157.54 157.58 157.66 C 158.70 157.78 159.71 156.96 159.83 155.84 Z M 159.94 154.77 L 160.03 153.73 C 160.12 152.60 159.28 151.61 158.15 151.52 C 157.03 151.43 156.04 152.26 155.94 153.39 L 155.86 154.43 C 155.76 155.56 156.60 156.55 157.73 156.64 C 158.86 156.74 159.85 155.90 159.94 154.77 Z M 160.03 153.69 L 160.10 152.65 C 160.17 151.52 159.31 150.54 158.18 150.47 C 157.05 150.40 156.07 151.26 156.00 152.39 L 155.94 153.43 C 155.87 154.56 156.73 155.54 157.86 155.61 C 158.99 155.68 159.96 154.82 160.03 153.69 Z M 160.10 152.61 L 160.15 151.57 C 160.20 150.44 159.32 149.48 158.19 149.43 C 157.06 149.38 156.10 150.26 156.05 151.39 L 156.00 152.43 C 155.95 153.56 156.83 154.52 157.96 154.57 C 159.09 154.62 160.05 153.74 160.10 152.61 Z M 160.15 151.54 L 160.18 150.52 C 160.21 149.39 159.32 148.44 158.18 148.41 C 157.05 148.38 156.10 149.27 156.07 150.41 L 156.04 151.43 C 156.01 152.56 156.91 153.50 158.04 153.54 C 159.18 153.57 160.12 152.67 160.15 151.54 Z M 160.18 150.49 L 160.19 149.50 C 160.21 148.36 159.30 147.43 158.16 147.42 C 157.03 147.40 156.09 148.31 156.08 149.45 L 156.07 150.44 C 156.06 151.57 156.97 152.51 158.10 152.52 C 159.24 152.53 160.17 151.62 160.18 150.49 Z M 160.19 149.46 L 160.19 148.51 C 160.19 147.38 159.26 146.46 158.13 146.46 C 156.99 146.47 156.07 147.39 156.08 148.53 L 156.08 149.48 C 156.08 150.62 157.01 151.53 158.14 151.53 C 159.28 151.53 160.20 150.60 160.19 149.46 Z M 160.19 148.48 L 160.18 147.58 C 160.15 146.44 159.21 145.54 158.08 145.56 C 156.94 145.58 156.04 146.52 156.06 147.66 L 156.07 148.56 C 156.10 149.70 157.04 150.60 158.17 150.58 C 159.31 150.56 160.21 149.62 160.19 148.48 Z M 160.17 147.54 L 160.13 146.39 C 160.09 145.25 159.13 144.36 157.99 144.41 C 156.85 144.45 155.97 145.41 156.01 146.55 L 156.06 147.70 C 156.10 148.84 157.06 149.72 158.20 149.68 C 159.33 149.63 160.22 148.68 160.17 147.54 Z M 160.13 146.32 L 160.05 145.21 C 159.96 144.08 158.98 143.22 157.84 143.30 C 156.71 143.39 155.85 144.37 155.94 145.51 L 156.02 146.62 C 156.10 147.75 157.09 148.61 158.22 148.52 C 159.36 148.44 160.21 147.45 160.13 146.32 Z M 160.04 145.11 L 159.91 144.10 C 159.78 142.97 158.75 142.17 157.62 142.31 C 156.49 142.45 155.69 143.47 155.82 144.60 L 155.95 145.61 C 156.08 146.74 157.11 147.54 158.24 147.40 C 159.37 147.27 160.17 146.24 160.04 145.11 Z M 159.89 143.97 L 159.72 143.05 C 159.51 141.93 158.43 141.20 157.31 141.41 C 156.19 141.62 155.46 142.70 155.67 143.81 L 155.84 144.74 C 156.05 145.85 157.13 146.59 158.25 146.38 C 159.37 146.17 160.10 145.09 159.89 143.97 Z M 159.68 142.89 L 159.45 142.03 C 159.15 140.93 158.01 140.29 156.92 140.59 C 155.82 140.89 155.17 142.02 155.47 143.12 L 155.71 143.98 C 156.01 145.07 157.14 145.72 158.24 145.42 C 159.34 145.12 159.98 143.99 159.68 142.89 Z M 159.39 141.85 L 159.08 141.04 C 158.69 139.97 157.50 139.43 156.43 139.83 C 155.37 140.23 154.83 141.42 155.23 142.48 L 155.53 143.30 C 155.93 144.36 157.12 144.90 158.18 144.50 C 159.25 144.10 159.79 142.92 159.39 141.85 Z M 159.00 140.85 L 158.56 139.96 C 158.06 138.94 156.83 138.52 155.81 139.02 C 154.79 139.53 154.37 140.76 154.87 141.78 L 155.31 142.67 C 155.81 143.69 157.05 144.11 158.07 143.61 C 159.09 143.10 159.51 141.87 159.00 140.85 Z M 158.46 139.78 L 157.93 138.93 C 157.33 137.97 156.06 137.68 155.10 138.28 C 154.13 138.88 153.84 140.15 154.44 141.12 L 154.97 141.96 C 155.57 142.93 156.85 143.22 157.81 142.62 C 158.77 142.01 159.07 140.74 158.46 139.78 Z M 157.82 138.77 L 157.21 137.98 C 156.52 137.08 155.22 136.91 154.32 137.60 C 153.42 138.29 153.25 139.58 153.94 140.48 L 154.56 141.28 C 155.25 142.18 156.54 142.35 157.44 141.66 C 158.34 140.97 158.51 139.67 157.82 138.77 Z M 157.09 137.83 L 156.40 137.10 C 155.63 136.26 154.33 136.21 153.50 136.98 C 152.66 137.76 152.61 139.06 153.39 139.89 L 154.07 140.63 C 154.84 141.46 156.14 141.51 156.97 140.74 C 157.81 139.97 157.86 138.67 157.09 137.83 Z M 156.27 136.97 L 155.53 136.30 C 154.68 135.54 153.38 135.60 152.62 136.45 C 151.86 137.29 151.93 138.59 152.77 139.35 L 153.52 140.02 C 154.36 140.78 155.66 140.71 156.42 139.87 C 157.18 139.03 157.11 137.73 156.27 136.97 Z M 155.38 136.18 L 154.65 135.63 C 153.75 134.95 152.46 135.13 151.78 136.04 C 151.10 136.94 151.28 138.23 152.18 138.91 L 152.91 139.46 C 153.82 140.15 155.11 139.96 155.79 139.06 C 156.47 138.15 156.29 136.86 155.38 136.18 Z M 154.51 135.54 L 153.73 135.05 C 152.77 134.45 151.51 134.74 150.91 135.69 C 150.30 136.65 150.59 137.92 151.55 138.52 L 152.33 139.01 C 153.29 139.61 154.55 139.32 155.15 138.36 C 155.76 137.40 155.47 136.14 154.51 135.54 Z M 153.59 134.97 L 152.74 134.53 C 151.74 134.01 150.50 134.40 149.98 135.40 C 149.46 136.40 149.85 137.64 150.85 138.16 L 151.70 138.60 C 152.70 139.12 153.93 138.73 154.46 137.73 C 154.98 136.73 154.59 135.49 153.59 134.97 Z M 152.60 134.47 L 151.68 134.07 C 150.64 133.63 149.44 134.10 148.99 135.14 C 148.55 136.18 149.03 137.38 150.06 137.82 L 150.99 138.22 C 152.03 138.67 153.23 138.19 153.67 137.15 C 154.12 136.12 153.64 134.92 152.60 134.47 Z M 151.56 134.03 L 150.53 133.66 C 149.47 133.28 148.31 133.84 147.93 134.90 C 147.55 135.96 148.10 137.12 149.16 137.50 L 150.18 137.87 C 151.24 138.24 152.41 137.69 152.79 136.63 C 153.17 135.57 152.61 134.41 151.56 134.03 Z M 150.43 133.63 L 149.38 133.32 C 148.31 132.99 147.17 133.60 146.85 134.68 C 146.53 135.75 147.13 136.89 148.21 137.21 L 149.26 137.53 C 150.34 137.85 151.47 137.24 151.80 136.17 C 152.12 135.09 151.51 133.96 150.43 133.63 Z M 149.31 133.30 L 148.39 133.06 C 147.30 132.78 146.20 133.42 145.91 134.51 C 145.63 135.59 146.27 136.70 147.36 136.98 L 148.28 137.23 C 149.36 137.51 150.47 136.86 150.76 135.78 C 151.04 134.70 150.39 133.59 149.31 133.30 Z M 148.33 133.06 L 147.36 132.83 C 146.28 132.57 145.19 133.25 144.93 134.33 C 144.68 135.42 145.35 136.51 146.44 136.76 L 147.41 136.99 C 148.50 137.24 149.58 136.57 149.84 135.48 C 150.09 134.40 149.42 133.31 148.33 133.06 Z M 147.31 132.83 L 146.31 132.61 C 145.22 132.39 144.16 133.08 143.93 134.17 C 143.70 135.26 144.40 136.32 145.48 136.55 L 146.49 136.76 C 147.57 136.99 148.64 136.30 148.87 135.21 C 149.10 134.12 148.40 133.05 147.31 132.83 Z M 146.27 132.61 L 145.25 132.42 C 144.16 132.22 143.12 132.93 142.91 134.02 C 142.71 135.11 143.42 136.16 144.51 136.36 L 145.53 136.55 C 146.61 136.76 147.66 136.04 147.87 134.95 C 148.07 133.87 147.36 132.82 146.27 132.61 Z M 145.21 132.42 L 144.19 132.25 C 143.11 132.07 142.08 132.80 141.89 133.89 C 141.71 134.98 142.45 136.01 143.53 136.19 L 144.55 136.36 C 145.64 136.54 146.67 135.81 146.85 134.72 C 147.03 133.63 146.30 132.60 145.21 132.42 Z M 144.15 132.25 L 143.15 132.11 C 142.07 131.95 141.06 132.70 140.90 133.78 C 140.74 134.87 141.49 135.88 142.57 136.04 L 143.57 136.19 C 144.66 136.35 145.67 135.60 145.83 134.51 C 145.99 133.42 145.24 132.41 144.15 132.25 Z M 143.11 132.11 L 142.15 131.99 C 141.06 131.85 140.07 132.62 139.93 133.70 C 139.80 134.79 140.56 135.78 141.65 135.92 L 142.62 136.04 C 143.70 136.18 144.69 135.41 144.83 134.32 C 144.97 133.24 144.20 132.24 143.11 132.11 Z M 142.09 132.00 L 141.00 131.89 C 139.92 131.78 138.95 132.57 138.85 133.65 C 138.74 134.72 139.52 135.69 140.60 135.80 L 141.70 135.91 C 142.78 136.01 143.74 135.23 143.85 134.15 C 143.96 133.07 143.17 132.11 142.09 132.00 Z M 140.94 131.91 L 139.87 131.84 C 138.81 131.76 137.88 132.56 137.81 133.63 C 137.73 134.70 138.53 135.62 139.60 135.70 L 140.66 135.77 C 141.73 135.85 142.65 135.05 142.73 133.98 C 142.81 132.91 142.00 131.99 140.94 131.91 Z M 139.82 131.86 L 138.81 131.82 C 137.76 131.78 136.87 132.59 136.82 133.64 C 136.78 134.70 137.60 135.58 138.65 135.63 L 139.66 135.67 C 140.71 135.71 141.60 134.90 141.64 133.85 C 141.68 132.79 140.87 131.91 139.82 131.86 Z M 138.76 131.85 L 137.79 131.83 C 136.75 131.82 135.90 132.65 135.89 133.68 C 135.87 134.72 136.70 135.57 137.74 135.59 L 138.70 135.60 C 139.74 135.61 140.59 134.79 140.61 133.75 C 140.62 132.71 139.79 131.86 138.76 131.85 Z M 137.74 131.86 L 136.81 131.87 C 135.79 131.88 134.97 132.72 134.98 133.74 C 134.99 134.76 135.82 135.58 136.84 135.57 L 137.78 135.56 C 138.80 135.55 139.62 134.71 139.61 133.69 C 139.60 132.67 138.76 131.85 137.74 131.86 Z M 136.77 131.90 L 135.85 131.93 C 134.85 131.96 134.06 132.80 134.09 133.80 C 134.12 134.80 134.96 135.59 135.96 135.56 L 136.88 135.54 C 137.88 135.51 138.67 134.67 138.64 133.67 C 138.61 132.66 137.77 131.87 136.77 131.90 Z M 135.82 131.96 L 134.87 132.00 C 133.89 132.05 133.12 132.89 133.17 133.87 C 133.22 134.86 134.05 135.62 135.04 135.58 L 135.99 135.53 C 136.97 135.49 137.74 134.65 137.69 133.66 C 137.64 132.68 136.81 131.91 135.82 131.96 Z M 134.83 132.03 L 133.87 132.10 C 132.90 132.17 132.17 133.02 132.24 133.99 C 132.31 134.96 133.16 135.69 134.13 135.62 L 135.09 135.55 C 136.06 135.48 136.79 134.63 136.72 133.66 C 136.65 132.69 135.80 131.96 134.83 132.03 Z M 133.80 132.13 L 132.84 132.24 C 131.88 132.35 131.20 133.21 131.30 134.17 C 131.41 135.12 132.28 135.81 133.23 135.70 L 134.20 135.59 C 135.15 135.48 135.84 134.62 135.73 133.66 C 135.62 132.71 134.76 132.02 133.80 132.13 Z M 132.75 132.28 L 131.76 132.45 C 130.83 132.60 130.20 133.49 130.36 134.42 C 130.52 135.36 131.40 135.99 132.33 135.83 L 133.32 135.66 C 134.25 135.51 134.88 134.62 134.72 133.69 C 134.57 132.75 133.68 132.12 132.75 132.28 Z M 131.66 132.49 L 130.66 132.73 C 129.75 132.94 129.18 133.85 129.40 134.76 C 129.61 135.67 130.52 136.23 131.43 136.02 L 132.44 135.78 C 133.34 135.57 133.91 134.66 133.70 133.75 C 133.48 132.84 132.57 132.28 131.66 132.49 Z M 130.55 132.78 L 129.53 133.10 C 128.65 133.37 128.16 134.30 128.43 135.18 C 128.70 136.06 129.64 136.55 130.52 136.28 L 131.54 135.97 C 132.42 135.69 132.91 134.76 132.64 133.88 C 132.37 133.00 131.43 132.51 130.55 132.78 Z M 129.44 133.15 L 128.58 133.47 C 127.73 133.80 127.30 134.75 127.63 135.60 C 127.95 136.45 128.91 136.88 129.76 136.56 L 130.61 136.23 C 131.46 135.91 131.89 134.95 131.57 134.10 C 131.24 133.25 130.29 132.82 129.44 133.15 Z M 128.52 133.51 L 127.64 133.89 C 126.81 134.25 126.43 135.22 126.80 136.05 C 127.16 136.88 128.12 137.26 128.95 136.89 L 129.82 136.52 C 130.65 136.15 131.03 135.19 130.67 134.36 C 130.31 133.53 129.35 133.15 128.52 133.51 Z M 127.59 133.93 L 126.71 134.35 C 125.90 134.74 125.55 135.71 125.94 136.52 C 126.33 137.33 127.30 137.67 128.11 137.29 L 129.00 136.86 C 129.81 136.47 130.15 135.50 129.76 134.69 C 129.38 133.88 128.40 133.54 127.59 133.93 Z M 126.67 134.38 L 125.77 134.84 C 124.98 135.25 124.67 136.22 125.07 137.02 C 125.48 137.81 126.45 138.12 127.25 137.72 L 128.15 137.25 C 128.94 136.85 129.25 135.87 128.85 135.08 C 128.44 134.29 127.47 133.97 126.67 134.38 Z M 125.75 134.87 L 124.84 135.36 C 124.06 135.78 123.77 136.75 124.19 137.53 C 124.61 138.31 125.58 138.60 126.36 138.18 L 127.27 137.69 C 128.05 137.27 128.34 136.30 127.92 135.52 C 127.50 134.74 126.53 134.45 125.75 134.87 Z M 124.83 135.38 L 123.91 135.89 C 123.14 136.31 122.87 137.28 123.29 138.05 C 123.72 138.82 124.69 139.10 125.46 138.67 L 126.37 138.16 C 127.14 137.73 127.42 136.76 126.99 136.00 C 126.57 135.23 125.60 134.95 124.83 135.38 Z M 123.91 135.90 L 122.99 136.42 C 122.23 136.85 121.96 137.81 122.39 138.57 C 122.82 139.33 123.78 139.60 124.54 139.17 L 125.46 138.65 C 126.22 138.23 126.49 137.26 126.06 136.50 C 125.63 135.74 124.67 135.47 123.91 135.90 Z M 122.99 136.43 L 122.87 136.50 C 122.11 136.93 121.84 137.89 122.27 138.64 C 122.70 139.40 123.66 139.67 124.42 139.24 L 124.54 139.17 C 125.30 138.74 125.57 137.78 125.14 137.02 C 124.71 136.26 123.75 136.00 122.99 136.43 Z"
      fill="black"
      fill-rule="nonzero" /></svg>