<svg xmlns="http://www.w3.org/2000/svg" width="300" height="300" viewBox="0 0 300 300">
<path d="M 152.00 141.11 L 151.24 140.56 C 150.47 140.00 149.40 140.17 148.84 140.93 C 148.28 141.70 148.45 142.77 149.21 143.33 L 149.97 143.89 C 150.74 144.45 151.81 144.28 152.37 143.51 C 152.93 142.74 152.76 141.67 152.00 141.11 Z M 151.21 140.52 L 150.43 139.99 C 149.64 139.45 148.57 139.64 148.02 140.43 C 147.48 141.22 147.68 142.29 148.47 142.83 L 149.25 143.37 C 150.03 143.91 151.11 143.71 151.65 142.93 C 152.19 142.14 151.99 141.06 151.21 140.52 Z M 150.36 139.93 L 149.53 139.42 C 148.71 138.92 147.64 139.18 147.14 140.00 C 146.64 140.81 146.90 141.88 147.71 142.39 L 148.54 142.89 C 149.36 143.39 150.43 143.14 150.93 142.32 C 151.43 141.50 151.17 140.43 150.36 139.93 Z M 149.42 139.35 L 148.53 138.89 C 147.67 138.45 146.62 138.79 146.17 139.65 C 145.73 140.50 146.07 141.56 146.93 142.00 L 147.82 142.46 C 148.68 142.90 149.73 142.56 150.18 141.70 C 150.62 140.84 150.28 139.79 149.42 139.35 Z M 148.39 138.82 L 147.40 138.42 C 146.50 138.05 145.48 138.49 145.11 139.39 C 144.75 140.29 145.18 141.31 146.08 141.67 L 147.07 142.07 C 147.97 142.44 148.99 142.00 149.36 141.10 C 149.72 140.20 149.29 139.18 148.39 138.82 Z M 147.24 138.35 L 146.25 138.06 C 145.31 137.78 144.33 138.31 144.05 139.25 C 143.77 140.18 144.31 141.16 145.24 141.44 L 146.24 141.74 C 147.17 142.02 148.16 141.48 148.43 140.55 C 148.71 139.61 148.18 138.63 147.24 138.35 Z M 146.11 138.01 L 145.16 137.82 C 144.20 137.61 143.26 138.23 143.06 139.19 C 142.86 140.15 143.48 141.09 144.43 141.29 L 145.38 141.48 C 146.34 141.68 147.28 141.07 147.48 140.11 C 147.68 139.15 147.07 138.21 146.11 138.01 Z M 145.04 137.79 L 144.04 137.65 C 143.07 137.52 142.17 138.21 142.04 139.18 C 141.91 140.15 142.59 141.05 143.56 141.18 L 144.56 141.31 C 145.53 141.44 146.43 140.76 146.56 139.79 C 146.69 138.81 146.01 137.92 145.04 137.79 Z M 143.91 137.63 L 142.89 137.57 C 141.90 137.51 141.06 138.26 141.00 139.24 C 140.94 140.23 141.68 141.07 142.67 141.14 L 143.69 141.20 C 144.68 141.26 145.52 140.51 145.58 139.53 C 145.64 138.54 144.90 137.70 143.91 137.63 Z M 142.75 137.56 L 141.72 137.58 C 140.73 137.59 139.94 138.41 139.96 139.39 C 139.97 140.38 140.79 141.17 141.78 141.16 L 142.80 141.14 C 143.79 141.13 144.58 140.32 144.57 139.33 C 144.55 138.34 143.74 137.55 142.75 137.56 Z M 141.57 137.58 L 140.56 137.68 C 139.57 137.78 138.85 138.66 138.95 139.65 C 139.04 140.63 139.92 141.35 140.91 141.26 L 141.93 141.16 C 142.91 141.06 143.63 140.18 143.54 139.19 C 143.44 138.20 142.56 137.48 141.57 137.58 Z M 140.39 137.70 L 139.41 137.89 C 138.43 138.08 137.80 139.03 137.99 140.01 C 138.18 140.99 139.13 141.62 140.11 141.43 L 141.08 141.24 C 142.06 141.05 142.70 140.10 142.50 139.12 C 142.31 138.14 141.36 137.51 140.39 137.70 Z M 139.21 137.94 L 138.25 138.25 C 137.30 138.55 136.78 139.57 137.08 140.52 C 137.39 141.47 138.40 141.99 139.35 141.69 L 140.31 141.38 C 141.26 141.08 141.79 140.06 141.48 139.11 C 141.18 138.16 140.16 137.63 139.21 137.94 Z M 138.03 138.33 L 137.10 138.77 C 136.19 139.19 135.81 140.27 136.23 141.18 C 136.66 142.08 137.74 142.47 138.64 142.04 L 139.58 141.61 C 140.48 141.18 140.87 140.10 140.44 139.19 C 140.01 138.29 138.93 137.90 138.03 138.33 Z M 136.90 138.87 L 136.05 139.41 C 135.20 139.95 134.95 141.07 135.49 141.92 C 136.02 142.76 137.14 143.01 137.99 142.48 L 138.84 141.94 C 139.69 141.40 139.94 140.28 139.40 139.44 C 138.87 138.59 137.75 138.34 136.90 138.87 Z M 135.89 139.53 L 135.11 140.15 C 134.32 140.77 134.20 141.92 134.82 142.70 C 135.45 143.48 136.59 143.61 137.38 142.99 L 138.15 142.37 C 138.94 141.74 139.07 140.60 138.44 139.81 C 137.81 139.03 136.67 138.90 135.89 139.53 Z M 134.98 140.26 L 134.27 140.94 C 133.54 141.64 133.52 142.79 134.22 143.51 C 134.92 144.24 136.07 144.26 136.79 143.56 L 137.50 142.88 C 138.23 142.18 138.25 141.03 137.55 140.30 C 136.85 139.58 135.70 139.56 134.98 140.26 Z M 134.17 141.04 L 133.52 141.77 C 132.85 142.52 132.92 143.68 133.67 144.34 C 134.42 145.01 135.57 144.95 136.24 144.19 L 136.89 143.46 C 137.56 142.71 137.49 141.56 136.74 140.89 C 135.99 140.22 134.84 140.29 134.17 141.04 Z M 133.45 141.86 L 132.85 142.62 C 132.22 143.41 132.36 144.56 133.16 145.18 C 133.95 145.81 135.09 145.67 135.72 144.87 L 136.32 144.11 C 136.94 143.32 136.80 142.17 136.01 141.55 C 135.21 140.93 134.07 141.06 133.45 141.86 Z M 132.79 142.70 L 132.20 143.54 C 131.62 144.36 131.82 145.50 132.64 146.08 C 133.47 146.66 134.61 146.46 135.19 145.64 L 135.78 144.80 C 136.36 143.97 136.16 142.83 135.33 142.25 C 134.51 141.67 133.37 141.87 132.79 142.70 Z M 132.14 143.62 L 131.61 144.48 C 131.07 145.33 131.34 146.46 132.19 146.99 C 133.05 147.53 134.18 147.27 134.71 146.41 L 135.24 145.55 C 135.77 144.70 135.51 143.57 134.66 143.04 C 133.80 142.50 132.67 142.77 132.14 143.62 Z M 131.55 144.57 L 131.08 145.44 C 130.59 146.33 130.92 147.44 131.81 147.92 C 132.69 148.40 133.80 148.08 134.29 147.19 L 134.76 146.32 C 135.25 145.43 134.92 144.32 134.03 143.84 C 133.15 143.36 132.04 143.68 131.55 144.57 Z M 131.03 145.54 L 130.61 146.43 C 130.18 147.34 130.57 148.43 131.48 148.86 C 132.39 149.29 133.48 148.90 133.91 147.99 L 134.33 147.10 C 134.77 146.18 134.37 145.10 133.46 144.66 C 132.55 144.23 131.46 144.62 131.03 145.54 Z M 130.56 146.53 L 130.20 147.44 C 129.82 148.38 130.27 149.44 131.21 149.82 C 132.15 150.20 133.21 149.74 133.59 148.81 L 133.96 147.89 C 134.33 146.96 133.88 145.89 132.94 145.51 C 132.01 145.14 130.94 145.59 130.56 146.53 Z M 130.16 147.54 L 129.85 148.47 C 129.53 149.43 130.04 150.47 131.00 150.79 C 131.96 151.11 132.99 150.59 133.31 149.64 L 133.63 148.71 C 133.95 147.75 133.43 146.71 132.47 146.39 C 131.52 146.07 130.48 146.59 130.16 147.54 Z M 129.82 148.57 L 129.56 149.49 C 129.29 150.47 129.87 151.47 130.84 151.74 C 131.81 152.01 132.82 151.44 133.09 150.46 L 133.34 149.54 C 133.61 148.57 133.04 147.56 132.07 147.29 C 131.09 147.02 130.08 147.60 129.82 148.57 Z M 129.54 149.58 L 129.33 150.53 C 129.11 151.52 129.74 152.50 130.72 152.71 C 131.71 152.93 132.68 152.31 132.90 151.32 L 133.11 150.37 C 133.33 149.39 132.71 148.41 131.72 148.19 C 130.73 147.98 129.76 148.60 129.54 149.58 Z M 129.31 150.62 L 129.15 151.60 C 128.98 152.59 129.65 153.54 130.64 153.71 C 131.64 153.88 132.58 153.21 132.75 152.21 L 132.92 151.23 C 133.09 150.24 132.42 149.29 131.42 149.12 C 130.43 148.96 129.48 149.63 129.31 150.62 Z M 129.14 151.68 L 129.01 152.68 C 128.89 153.68 129.60 154.60 130.60 154.72 C 131.60 154.84 132.52 154.13 132.64 153.13 L 132.77 152.13 C 132.89 151.13 132.18 150.21 131.18 150.09 C 130.17 149.96 129.26 150.67 129.14 151.68 Z M 129.00 152.75 L 128.92 153.78 C 128.83 154.79 129.58 155.67 130.59 155.76 C 131.60 155.84 132.48 155.09 132.56 154.09 L 132.65 153.06 C 132.73 152.05 131.98 151.17 130.98 151.08 C 129.97 151.00 129.09 151.75 129.00 152.75 Z M 128.91 153.85 L 128.87 154.90 C 128.82 155.91 129.60 156.77 130.61 156.81 C 131.62 156.86 132.47 156.08 132.52 155.07 L 132.57 154.02 C 132.61 153.01 131.83 152.15 130.82 152.11 C 129.81 152.06 128.96 152.84 128.91 153.85 Z M 128.86 154.97 L 128.85 155.99 C 128.84 157.00 129.66 157.82 130.66 157.83 C 131.67 157.84 132.50 157.03 132.51 156.02 L 132.52 155.00 C 132.53 153.99 131.72 153.17 130.71 153.16 C 129.70 153.15 128.87 153.96 128.86 154.97 Z M 128.86 156.07 L 128.89 157.10 C 128.92 158.11 129.77 158.90 130.78 158.86 C 131.79 158.83 132.58 157.98 132.54 156.97 L 132.51 155.94 C 132.48 154.94 131.63 154.15 130.62 154.18 C 129.61 154.21 128.82 155.06 128.86 156.07 Z M 128.90 157.19 L 128.99 158.21 C 129.07 159.22 129.96 159.96 130.97 159.88 C 131.97 159.79 132.72 158.90 132.63 157.89 L 132.54 156.88 C 132.45 155.87 131.56 155.13 130.56 155.21 C 129.55 155.30 128.81 156.19 128.90 157.19 Z M 129.00 158.34 L 129.16 159.33 C 129.31 160.33 130.25 161.01 131.24 160.85 C 132.24 160.70 132.92 159.76 132.77 158.77 L 132.61 157.77 C 132.46 156.78 131.52 156.09 130.52 156.25 C 129.53 156.40 128.85 157.34 129.00 158.34 Z M 129.19 159.48 L 129.42 160.43 C 129.66 161.41 130.64 162.01 131.62 161.78 C 132.60 161.54 133.21 160.55 132.97 159.57 L 132.74 158.62 C 132.50 157.64 131.51 157.04 130.53 157.27 C 129.55 157.51 128.95 158.50 129.19 159.48 Z M 129.47 160.61 L 129.79 161.51 C 130.13 162.46 131.17 162.95 132.12 162.61 C 133.07 162.28 133.57 161.23 133.23 160.28 L 132.91 159.39 C 132.57 158.44 131.53 157.94 130.58 158.28 C 129.63 158.62 129.13 159.66 129.47 160.61 Z M 129.89 161.73 L 130.34 162.62 C 130.80 163.51 131.90 163.87 132.80 163.41 C 133.70 162.94 134.05 161.85 133.59 160.95 L 133.13 160.06 C 132.67 159.16 131.57 158.81 130.68 159.27 C 129.78 159.73 129.43 160.83 129.89 161.73 Z M 130.49 162.84 L 131.07 163.66 C 131.65 164.48 132.79 164.67 133.61 164.08 C 134.43 163.50 134.62 162.36 134.03 161.54 L 133.45 160.72 C 132.87 159.91 131.73 159.72 130.91 160.30 C 130.09 160.88 129.90 162.02 130.49 162.84 Z M 131.23 163.85 L 131.92 164.57 C 132.61 165.30 133.76 165.33 134.49 164.64 C 135.21 163.95 135.24 162.79 134.55 162.07 L 133.87 161.35 C 133.18 160.62 132.03 160.59 131.30 161.28 C 130.57 161.97 130.54 163.12 131.23 163.85 Z M 132.10 164.73 L 132.87 165.35 C 133.64 165.98 134.78 165.86 135.41 165.08 C 136.04 164.30 135.92 163.16 135.15 162.53 L 134.38 161.91 C 133.60 161.28 132.46 161.40 131.83 162.18 C 131.20 162.96 131.32 164.10 132.10 164.73 Z M 133.04 165.47 L 133.88 166.00 C 134.73 166.53 135.85 166.28 136.38 165.43 C 136.91 164.59 136.65 163.47 135.81 162.94 L 134.97 162.41 C 134.12 161.88 133.00 162.14 132.47 162.98 C 131.94 163.83 132.20 164.94 133.04 165.47 Z M 134.06 166.09 L 134.96 166.53 C 135.85 166.96 136.93 166.59 137.37 165.69 C 137.80 164.79 137.42 163.71 136.53 163.28 L 135.63 162.85 C 134.73 162.41 133.65 162.79 133.22 163.69 C 132.79 164.58 133.16 165.66 134.06 166.09 Z M 135.12 166.60 L 136.04 166.93 C 136.98 167.27 138.01 166.79 138.35 165.86 C 138.69 164.92 138.21 163.88 137.28 163.54 L 136.36 163.21 C 135.42 162.87 134.39 163.35 134.05 164.29 C 133.71 165.22 134.19 166.26 135.12 166.60 Z M 136.19 166.98 L 137.14 167.24 C 138.11 167.49 139.10 166.92 139.35 165.96 C 139.61 164.99 139.04 164.00 138.07 163.75 L 137.12 163.49 C 136.16 163.23 135.17 163.81 134.91 164.77 C 134.66 165.74 135.23 166.73 136.19 166.98 Z M 137.28 167.27 L 138.25 167.45 C 139.24 167.63 140.18 166.98 140.36 166.00 C 140.54 165.02 139.90 164.08 138.91 163.89 L 137.94 163.71 C 136.96 163.53 136.01 164.18 135.83 165.16 C 135.65 166.14 136.29 167.09 137.28 167.27 Z M 138.37 167.47 L 139.37 167.59 C 140.36 167.71 141.26 167.00 141.38 166.00 C 141.50 165.01 140.79 164.11 139.79 163.99 L 138.80 163.87 C 137.80 163.76 136.90 164.47 136.78 165.46 C 136.67 166.45 137.38 167.35 138.37 167.47 Z M 139.47 167.60 L 140.48 167.66 C 141.48 167.73 142.35 166.97 142.41 165.97 C 142.47 164.97 141.71 164.10 140.71 164.04 L 139.69 163.98 C 138.69 163.92 137.83 164.68 137.77 165.68 C 137.71 166.68 138.47 167.54 139.47 167.60 Z M 140.57 167.67 L 141.59 167.69 C 142.59 167.70 143.42 166.90 143.44 165.90 C 143.45 164.90 142.65 164.07 141.65 164.05 L 140.63 164.04 C 139.62 164.02 138.80 164.82 138.78 165.82 C 138.76 166.83 139.56 167.65 140.57 167.67 Z M 141.66 167.69 L 142.66 167.67 C 143.66 167.64 144.46 166.81 144.43 165.80 C 144.41 164.80 143.58 164.00 142.57 164.03 L 141.58 164.05 C 140.57 164.07 139.78 164.91 139.80 165.91 C 139.82 166.92 140.66 167.71 141.66 167.69 Z M 142.75 167.67 L 143.74 167.59 C 144.74 167.52 145.50 166.65 145.42 165.64 C 145.35 164.64 144.48 163.88 143.47 163.96 L 142.48 164.03 C 141.48 164.10 140.72 164.97 140.79 165.98 C 140.87 166.98 141.74 167.74 142.75 167.67 Z M 143.85 167.59 L 144.84 167.45 C 145.84 167.32 146.54 166.40 146.40 165.40 C 146.27 164.40 145.35 163.69 144.35 163.83 L 143.36 163.96 C 142.36 164.10 141.66 165.02 141.79 166.02 C 141.93 167.02 142.85 167.72 143.85 167.59 Z M 144.97 167.43 L 145.95 167.23 C 146.94 167.02 147.57 166.04 147.36 165.05 C 147.15 164.06 146.18 163.43 145.19 163.64 L 144.21 163.85 C 143.22 164.06 142.59 165.03 142.80 166.02 C 143.01 167.01 143.98 167.64 144.97 167.43 Z M 146.11 167.19 L 147.06 166.90 C 148.03 166.60 148.58 165.57 148.28 164.60 C 147.98 163.63 146.95 163.09 145.98 163.38 L 145.03 163.68 C 144.06 163.98 143.51 165.00 143.81 165.97 C 144.11 166.94 145.14 167.49 146.11 167.19 Z M 147.24 166.84 L 148.17 166.44 C 149.11 166.05 149.55 164.97 149.15 164.03 C 148.76 163.10 147.68 162.66 146.74 163.05 L 145.81 163.44 C 144.87 163.84 144.43 164.92 144.83 165.85 C 145.22 166.79 146.30 167.23 147.24 166.84 Z M 148.34 166.37 L 149.12 165.94 C 150.02 165.45 150.35 164.33 149.86 163.44 C 149.38 162.54 148.26 162.21 147.36 162.70 L 146.58 163.13 C 145.68 163.61 145.35 164.73 145.84 165.63 C 146.32 166.52 147.44 166.85 148.34 166.37 Z M 149.27 165.86 L 150.03 165.35 C 150.88 164.79 151.11 163.64 150.55 162.79 C 149.98 161.94 148.83 161.71 147.98 162.27 L 147.22 162.78 C 146.37 163.34 146.14 164.49 146.70 165.34 C 147.27 166.19 148.41 166.43 149.27 165.86 Z M 150.15 165.27 L 150.89 164.69 C 151.70 164.06 151.84 162.89 151.21 162.09 C 150.58 161.28 149.41 161.14 148.61 161.77 L 147.86 162.35 C 147.06 162.98 146.91 164.15 147.54 164.96 C 148.18 165.76 149.34 165.90 150.15 165.27 Z M 150.99 164.61 L 151.73 163.95 C 152.49 163.27 152.55 162.09 151.87 161.33 C 151.18 160.57 150.01 160.50 149.24 161.19 L 148.51 161.85 C 147.75 162.53 147.68 163.71 148.37 164.47 C 149.05 165.24 150.23 165.30 150.99 164.61 Z M 151.81 163.88 L 152.53 163.15 C 153.26 162.42 153.25 161.24 152.52 160.51 C 151.79 159.79 150.61 159.80 149.88 160.53 L 149.16 161.26 C 148.44 161.99 148.44 163.17 149.17 163.90 C 149.91 164.62 151.09 164.61 151.81 163.88 Z M 152.60 163.08 L 153.32 162.28 C 154.00 161.51 153.94 160.33 153.17 159.64 C 152.40 158.96 151.22 159.02 150.53 159.79 L 149.82 160.59 C 149.13 161.36 149.20 162.54 149.96 163.23 C 150.73 163.92 151.91 163.85 152.60 163.08 Z M 153.37 162.22 L 154.09 161.35 C 154.74 160.55 154.62 159.37 153.82 158.72 C 153.03 158.06 151.85 158.18 151.19 158.98 L 150.48 159.85 C 149.82 160.65 149.94 161.83 150.74 162.48 C 151.54 163.14 152.72 163.02 153.37 162.22 Z M 154.13 161.30 L 154.75 160.50 C 155.37 159.68 155.22 158.50 154.39 157.87 C 153.57 157.24 152.39 157.40 151.76 158.22 L 151.15 159.02 C 150.52 159.85 150.68 161.03 151.50 161.66 C 152.32 162.29 153.50 162.13 154.13 161.30 Z M 154.78 160.46 L 155.37 159.64 C 155.98 158.80 155.79 157.62 154.95 157.01 C 154.11 156.40 152.93 156.59 152.32 157.44 L 151.73 158.26 C 151.12 159.10 151.31 160.28 152.15 160.89 C 153.00 161.49 154.17 161.30 154.78 160.46 Z M 155.41 159.60 L 155.99 158.75 C 156.58 157.89 156.35 156.72 155.49 156.13 C 154.63 155.54 153.46 155.76 152.87 156.62 L 152.29 157.47 C 151.70 158.33 151.92 159.51 152.78 160.10 C 153.64 160.69 154.82 160.46 155.41 159.60 Z M 156.02 158.72 L 156.58 157.85 C 157.15 156.97 156.90 155.79 156.02 155.23 C 155.14 154.66 153.97 154.91 153.40 155.79 L 152.84 156.66 C 152.27 157.54 152.52 158.71 153.40 159.28 C 154.28 159.85 155.45 159.60 156.02 158.72 Z M 156.61 157.81 L 157.15 156.93 C 157.70 156.03 157.41 154.86 156.52 154.32 C 155.62 153.77 154.45 154.05 153.90 154.95 L 153.37 155.83 C 152.82 156.72 153.10 157.89 154.00 158.44 C 154.90 158.99 156.07 158.71 156.61 157.81 Z M 157.18 156.89 L 157.69 156.01 C 158.21 155.10 157.90 153.93 156.98 153.40 C 156.07 152.88 154.90 153.19 154.38 154.11 L 153.87 154.99 C 153.35 155.90 153.66 157.07 154.58 157.59 C 155.49 158.12 156.66 157.80 157.18 156.89 Z M 157.72 155.96 L 158.19 155.09 C 158.69 154.16 158.34 153.00 157.40 152.50 C 156.47 152.00 155.31 152.35 154.81 153.28 L 154.35 154.15 C 153.85 155.09 154.20 156.25 155.13 156.75 C 156.06 157.25 157.22 156.89 157.72 155.96 Z M 158.22 155.04 L 158.64 154.19 C 159.11 153.24 158.72 152.09 157.77 151.62 C 156.82 151.14 155.67 151.53 155.20 152.48 L 154.78 153.34 C 154.31 154.29 154.70 155.44 155.65 155.91 C 156.60 156.38 157.75 155.99 158.22 155.04 Z M 158.68 154.12 L 159.09 153.20 C 159.53 152.23 159.09 151.09 158.12 150.65 C 157.15 150.22 156.01 150.65 155.58 151.63 L 155.16 152.55 C 154.73 153.52 155.16 154.66 156.14 155.09 C 157.11 155.53 158.25 155.09 158.68 154.12 Z M 159.14 153.11 L 159.54 152.07 C 159.92 151.08 159.43 149.96 158.43 149.57 C 157.44 149.19 156.32 149.68 155.93 150.68 L 155.53 151.72 C 155.15 152.71 155.64 153.83 156.64 154.21 C 157.63 154.60 158.75 154.10 159.14 153.11 Z M 159.58 151.97 L 159.90 150.97 C 160.22 149.96 159.66 148.87 158.64 148.54 C 157.63 148.21 156.54 148.77 156.21 149.79 L 155.89 150.78 C 155.57 151.80 156.13 152.89 157.14 153.22 C 158.16 153.55 159.25 152.98 159.58 151.97 Z M 159.93 150.86 L 160.18 149.91 C 160.45 148.87 159.82 147.81 158.78 147.54 C 157.74 147.28 156.68 147.90 156.42 148.94 L 156.17 149.90 C 155.91 150.94 156.53 152.00 157.57 152.26 C 158.61 152.53 159.67 151.90 159.93 150.86 Z M 160.21 149.80 L 160.39 148.87 C 160.60 147.81 159.91 146.79 158.86 146.58 C 157.80 146.38 156.78 147.06 156.57 148.12 L 156.39 149.05 C 156.18 150.11 156.87 151.13 157.92 151.34 C 158.98 151.54 160.00 150.85 160.21 149.80 Z M 160.41 148.77 L 160.54 147.85 C 160.69 146.78 159.95 145.80 158.88 145.64 C 157.82 145.49 156.83 146.24 156.68 147.30 L 156.55 148.22 C 156.40 149.29 157.14 150.27 158.21 150.42 C 159.27 150.58 160.26 149.83 160.41 148.77 Z M 160.56 147.76 L 160.65 146.85 C 160.75 145.78 159.96 144.82 158.89 144.72 C 157.81 144.61 156.85 145.40 156.75 146.48 L 156.66 147.39 C 156.56 148.47 157.35 149.42 158.43 149.52 C 159.50 149.63 160.46 148.84 160.56 147.76 Z M 160.66 146.76 L 160.71 145.76 C 160.76 144.68 159.93 143.76 158.85 143.70 C 157.77 143.65 156.85 144.48 156.79 145.56 L 156.74 146.56 C 156.69 147.64 157.52 148.56 158.60 148.62 C 159.68 148.68 160.60 147.85 160.66 146.76 Z M 160.71 145.63 L 160.69 144.63 C 160.67 143.55 159.78 142.68 158.70 142.70 C 157.61 142.72 156.75 143.62 156.77 144.70 L 156.79 145.70 C 156.81 146.78 157.70 147.64 158.79 147.62 C 159.87 147.60 160.73 146.71 160.71 145.63 Z M 160.68 144.43 L 160.56 143.45 C 160.43 142.37 159.45 141.61 158.38 141.74 C 157.30 141.87 156.54 142.85 156.67 143.92 L 156.79 144.90 C 156.92 145.98 157.89 146.74 158.97 146.61 C 160.05 146.48 160.81 145.50 160.68 144.43 Z M 160.51 143.18 L 160.26 142.24 C 159.98 141.19 158.91 140.57 157.86 140.85 C 156.81 141.12 156.19 142.20 156.47 143.25 L 156.72 144.19 C 157.00 145.24 158.07 145.86 159.12 145.58 C 160.17 145.31 160.79 144.23 160.51 143.18 Z M 160.15 141.92 L 159.73 141.02 C 159.28 140.04 158.11 139.61 157.12 140.06 C 156.14 140.52 155.71 141.69 156.16 142.67 L 156.58 143.57 C 157.03 144.55 158.20 144.98 159.19 144.53 C 160.17 144.07 160.60 142.90 160.15 141.92 Z M 159.54 140.69 L 158.95 139.88 C 158.32 139.00 157.09 138.81 156.21 139.44 C 155.33 140.08 155.13 141.31 155.77 142.19 L 156.35 143.00 C 156.99 143.88 158.22 144.08 159.10 143.44 C 159.98 142.80 160.18 141.57 159.54 140.69 Z M 158.73 139.63 L 158.10 139.00 C 157.32 138.25 156.07 138.26 155.32 139.04 C 154.56 139.81 154.57 141.06 155.35 141.82 L 155.99 142.44 C 156.76 143.20 158.01 143.18 158.77 142.41 C 159.53 141.63 159.51 140.39 158.73 139.63 Z M 157.90 138.84 L 157.14 138.27 C 156.28 137.62 155.05 137.79 154.39 138.66 C 153.74 139.53 153.92 140.76 154.78 141.41 L 155.54 141.98 C 156.41 142.63 157.64 142.46 158.29 141.59 C 158.94 140.72 158.77 139.49 157.90 138.84 Z M 156.97 138.15 L 156.11 137.64 C 155.18 137.09 153.97 137.40 153.42 138.33 C 152.87 139.26 153.17 140.47 154.11 141.02 L 154.96 141.53 C 155.89 142.08 157.10 141.78 157.65 140.84 C 158.21 139.91 157.90 138.71 156.97 138.15 Z M 155.95 137.56 L 155.02 137.12 C 154.04 136.66 152.87 137.08 152.40 138.06 C 151.94 139.04 152.36 140.21 153.34 140.67 L 154.27 141.11 C 155.25 141.57 156.42 141.15 156.89 140.17 C 157.35 139.19 156.93 138.02 155.95 137.56 Z M 154.86 137.05 L 153.88 136.69 C 152.86 136.31 151.73 136.83 151.35 137.85 C 150.98 138.87 151.50 140.00 152.52 140.37 L 153.50 140.74 C 154.52 141.11 155.65 140.59 156.02 139.57 C 156.40 138.56 155.88 137.43 154.86 137.05 Z M 153.72 136.64 L 152.70 136.36 C 151.66 136.07 150.58 136.68 150.29 137.73 C 150.00 138.77 150.61 139.85 151.66 140.14 L 152.67 140.42 C 153.72 140.71 154.80 140.10 155.09 139.05 C 155.38 138.01 154.76 136.93 153.72 136.64 Z M 152.54 136.32 L 151.51 136.13 C 150.45 135.93 149.42 136.64 149.23 137.70 C 149.03 138.77 149.73 139.79 150.80 139.99 L 151.82 140.18 C 152.89 140.38 153.91 139.67 154.11 138.61 C 154.31 137.54 153.60 136.52 152.54 136.32 Z M 151.34 136.12 L 150.33 136.02 C 149.25 135.92 148.30 136.71 148.20 137.78 C 148.10 138.85 148.89 139.80 149.96 139.90 L 150.97 140.00 C 152.04 140.10 152.99 139.32 153.10 138.24 C 153.20 137.17 152.41 136.22 151.34 136.12 Z M 150.16 136.04 L 149.16 136.03 C 148.10 136.01 147.23 136.87 147.21 137.93 C 147.20 138.99 148.05 139.86 149.11 139.88 L 150.12 139.89 C 151.18 139.90 152.05 139.05 152.07 137.99 C 152.08 136.92 151.23 136.05 150.16 136.04 Z M 149.03 136.06 L 148.03 136.11 C 146.99 136.18 146.19 137.07 146.25 138.12 C 146.31 139.17 147.21 139.97 148.26 139.91 L 149.25 139.85 C 150.30 139.79 151.10 138.89 151.03 137.84 C 150.97 136.79 150.07 135.99 149.03 136.06 Z M 147.93 136.15 L 146.94 136.27 C 145.91 136.39 145.18 137.32 145.30 138.34 C 145.42 139.37 146.35 140.11 147.38 139.99 L 148.36 139.87 C 149.39 139.75 150.13 138.82 150.01 137.79 C 149.88 136.76 148.95 136.03 147.93 136.15 Z M 146.86 136.30 L 145.88 136.46 C 144.87 136.63 144.19 137.58 144.36 138.58 C 144.52 139.59 145.47 140.27 146.48 140.11 L 147.46 139.95 C 148.46 139.79 149.15 138.84 148.98 137.83 C 148.82 136.82 147.87 136.14 146.86 136.30 Z M 145.83 136.50 L 144.85 136.69 C 143.87 136.88 143.22 137.84 143.41 138.83 C 143.61 139.81 144.56 140.46 145.55 140.26 L 146.53 140.07 C 147.52 139.88 148.16 138.92 147.97 137.94 C 147.77 136.95 146.82 136.30 145.83 136.50 Z M 144.83 136.72 L 143.85 136.93 C 142.88 137.13 142.26 138.09 142.47 139.06 C 142.68 140.03 143.63 140.65 144.60 140.44 L 145.58 140.23 C 146.55 140.03 147.17 139.07 146.96 138.10 C 146.75 137.13 145.80 136.51 144.83 136.72 Z M 143.85 136.95 L 143.55 137.01 C 142.59 137.22 141.98 138.17 142.19 139.13 C 142.40 140.09 143.35 140.70 144.31 140.49 L 144.61 140.42 C 145.57 140.21 146.18 139.26 145.97 138.30 C 145.76 137.34 144.81 136.74 143.85 136.95 Z"
      fill="black"
      fill-rule="nonzero" /></svg>