<svg xmlns="http://www.w3.org/2000/svg" width="300" height="300" viewBox="0 0 300 300">
<path d="M 141.65 124.73 L 140.69 124.77 C 139.76 124.81 139.04 125.59 139.08 126.51 C 139.12 127.44 139.90 128.16 140.83 128.12 L 141.79 128.08 C 142.72 128.04 143.44 127.26 143.40 126.33 C 143.36 125.41 142.58 124.69 141.65 124.73 Z M 140.67 124.76 L 139.70 124.81 C 138.77 124.86 138.06 125.65 138.11 126.58 C 138.16 127.51 138.95 128.22 139.87 128.17 L 140.84 128.12 C 141.77 128.08 142.49 127.29 142.44 126.36 C 142.39 125.43 141.60 124.71 140.67 124.76 Z M 139.67 124.81 L 138.69 124.88 C 137.76 124.94 137.06 125.75 137.12 126.68 C 137.19 127.61 137.99 128.31 138.92 128.25 L 139.91 128.18 C 140.84 128.11 141.54 127.31 141.47 126.38 C 141.41 125.44 140.60 124.74 139.67 124.81 Z M 138.64 124.87 L 137.65 124.97 C 136.71 125.06 136.03 125.89 136.12 126.82 C 136.21 127.75 137.04 128.44 137.97 128.35 L 138.97 128.25 C 139.90 128.16 140.59 127.33 140.50 126.40 C 140.41 125.47 139.58 124.78 138.64 124.87 Z M 137.59 124.97 L 136.57 125.10 C 135.63 125.23 134.98 126.08 135.10 127.01 C 135.22 127.94 136.08 128.60 137.01 128.48 L 138.03 128.34 C 138.96 128.22 139.62 127.37 139.50 126.44 C 139.37 125.50 138.52 124.85 137.59 124.97 Z M 136.50 125.11 L 135.48 125.28 C 134.55 125.44 133.92 126.32 134.08 127.26 C 134.24 128.19 135.12 128.81 136.05 128.65 L 137.08 128.48 C 138.01 128.32 138.63 127.43 138.47 126.50 C 138.31 125.57 137.43 124.95 136.50 125.11 Z M 135.41 125.28 L 134.44 125.49 C 133.51 125.68 132.92 126.60 133.11 127.53 C 133.31 128.46 134.23 129.05 135.16 128.86 L 136.12 128.65 C 137.05 128.45 137.65 127.54 137.45 126.61 C 137.25 125.68 136.34 125.08 135.41 125.28 Z M 134.38 125.49 L 133.40 125.73 C 132.47 125.96 131.90 126.90 132.13 127.84 C 132.37 128.77 133.31 129.33 134.24 129.10 L 135.22 128.86 C 136.15 128.63 136.72 127.68 136.48 126.75 C 136.25 125.82 135.31 125.25 134.38 125.49 Z M 133.34 125.73 L 132.36 126.01 C 131.43 126.28 130.89 127.25 131.16 128.18 C 131.42 129.11 132.39 129.65 133.32 129.38 L 134.30 129.10 C 135.23 128.84 135.77 127.86 135.51 126.93 C 135.24 126.00 134.27 125.46 133.34 125.73 Z M 132.30 126.01 L 131.33 126.32 C 130.40 126.62 129.89 127.62 130.19 128.55 C 130.49 129.48 131.49 129.99 132.42 129.69 L 133.38 129.38 C 134.31 129.08 134.82 128.08 134.52 127.15 C 134.22 126.22 133.23 125.71 132.30 126.01 Z M 131.27 126.33 L 130.32 126.67 C 129.40 127.00 128.92 128.03 129.25 128.95 C 129.59 129.88 130.61 130.36 131.54 130.03 L 132.48 129.68 C 133.41 129.35 133.89 128.33 133.55 127.40 C 133.22 126.47 132.19 125.99 131.27 126.33 Z M 130.26 126.68 L 129.35 127.04 C 128.43 127.42 127.98 128.46 128.35 129.39 C 128.73 130.31 129.77 130.75 130.70 130.38 L 131.60 130.02 C 132.53 129.64 132.97 128.60 132.60 127.67 C 132.23 126.75 131.18 126.31 130.26 126.68 Z M 129.27 127.06 L 128.31 127.50 C 127.40 127.92 126.99 128.99 127.41 129.90 C 127.82 130.81 128.89 131.21 129.80 130.80 L 130.77 130.36 C 131.68 129.95 132.08 128.88 131.67 127.96 C 131.26 127.05 130.19 126.65 129.27 127.06 Z M 128.22 127.54 L 127.30 128.01 C 126.41 128.47 126.06 129.57 126.52 130.46 C 126.98 131.35 128.07 131.70 128.96 131.24 L 129.89 130.77 C 130.78 130.31 131.13 129.21 130.67 128.32 C 130.21 127.43 129.11 127.08 128.22 127.54 Z M 127.21 128.06 L 126.35 128.56 C 125.48 129.07 125.19 130.18 125.69 131.05 C 126.20 131.92 127.32 132.21 128.18 131.71 L 129.05 131.20 C 129.92 130.69 130.21 129.58 129.70 128.71 C 129.20 127.84 128.08 127.55 127.21 128.06 Z M 126.26 128.61 L 125.44 129.15 C 124.60 129.71 124.37 130.84 124.93 131.68 C 125.49 132.52 126.62 132.75 127.46 132.19 L 128.27 131.66 C 129.11 131.10 129.34 129.97 128.79 129.13 C 128.23 128.29 127.10 128.06 126.26 128.61 Z M 125.36 129.21 L 124.59 129.78 C 123.78 130.38 123.62 131.53 124.22 132.34 C 124.83 133.15 125.97 133.31 126.78 132.71 L 127.55 132.14 C 128.36 131.53 128.52 130.39 127.92 129.58 C 127.31 128.77 126.17 128.60 125.36 129.21 Z M 124.50 129.84 L 123.78 130.45 C 123.00 131.11 122.90 132.26 123.56 133.04 C 124.21 133.81 125.37 133.91 126.14 133.26 L 126.87 132.65 C 127.64 131.99 127.74 130.84 127.09 130.06 C 126.44 129.29 125.28 129.19 124.50 129.84 Z M 123.69 130.53 L 122.99 131.20 C 122.26 131.90 122.23 133.06 122.93 133.80 C 123.63 134.53 124.80 134.56 125.53 133.85 L 126.23 133.18 C 126.96 132.48 126.99 131.32 126.29 130.59 C 125.59 129.85 124.42 129.83 123.69 130.53 Z M 122.89 131.29 L 122.24 132.01 C 121.56 132.76 121.62 133.93 122.37 134.61 C 123.13 135.29 124.29 135.24 124.97 134.48 L 125.63 133.76 C 126.31 133.01 126.25 131.84 125.50 131.16 C 124.74 130.48 123.58 130.54 122.89 131.29 Z M 122.15 132.12 L 121.54 132.90 C 120.92 133.71 121.07 134.86 121.88 135.49 C 122.68 136.11 123.84 135.96 124.47 135.16 L 125.07 134.37 C 125.69 133.57 125.54 132.41 124.74 131.79 C 123.93 131.16 122.77 131.31 122.15 132.12 Z M 121.45 133.02 L 120.90 133.87 C 120.34 134.73 120.59 135.87 121.44 136.43 C 122.30 136.99 123.45 136.74 124.00 135.89 L 124.56 135.03 C 125.11 134.18 124.87 133.03 124.01 132.48 C 123.15 131.92 122.01 132.16 121.45 133.02 Z M 120.82 134.00 L 120.32 134.93 C 119.83 135.84 120.17 136.96 121.07 137.44 C 121.97 137.93 123.10 137.59 123.58 136.69 L 124.08 135.76 C 124.57 134.85 124.23 133.73 123.33 133.25 C 122.43 132.76 121.30 133.10 120.82 134.00 Z M 120.25 135.06 L 119.87 135.93 C 119.45 136.87 119.87 137.96 120.81 138.38 C 121.74 138.80 122.84 138.38 123.26 137.44 L 123.65 136.57 C 124.06 135.63 123.64 134.53 122.71 134.12 C 121.77 133.70 120.67 134.12 120.25 135.06 Z M 119.82 136.04 L 119.48 136.95 C 119.12 137.92 119.61 138.99 120.58 139.34 C 121.54 139.70 122.61 139.21 122.96 138.25 L 123.30 137.33 C 123.66 136.37 123.17 135.30 122.21 134.94 C 121.25 134.58 120.18 135.08 119.82 136.04 Z M 119.44 137.06 L 119.15 138.02 C 118.85 139.00 119.41 140.04 120.39 140.34 C 121.37 140.64 122.41 140.09 122.71 139.10 L 123.00 138.14 C 123.30 137.16 122.75 136.12 121.76 135.82 C 120.78 135.52 119.74 136.08 119.44 137.06 Z M 119.12 138.13 L 118.88 139.12 C 118.64 140.12 119.26 141.12 120.26 141.36 C 121.26 141.60 122.26 140.99 122.50 139.99 L 122.74 139.00 C 122.98 138.00 122.37 136.99 121.37 136.75 C 120.36 136.51 119.36 137.12 119.12 138.13 Z M 118.85 139.22 L 118.68 140.23 C 118.50 141.25 119.17 142.22 120.19 142.40 C 121.20 142.58 122.17 141.90 122.35 140.88 L 122.53 139.88 C 122.71 138.86 122.03 137.89 121.02 137.71 C 120.00 137.53 119.03 138.21 118.85 139.22 Z M 118.66 140.35 L 118.54 141.36 C 118.43 142.39 119.16 143.31 120.19 143.43 C 121.21 143.55 122.14 142.81 122.26 141.78 L 122.37 140.77 C 122.49 139.74 121.75 138.82 120.72 138.70 C 119.70 138.59 118.77 139.32 118.66 140.35 Z M 118.53 141.49 L 118.48 142.55 C 118.44 143.58 119.24 144.45 120.27 144.50 C 121.30 144.54 122.18 143.74 122.22 142.71 L 122.27 141.65 C 122.31 140.62 121.51 139.75 120.48 139.70 C 119.45 139.66 118.57 140.46 118.53 141.49 Z M 118.48 142.69 L 118.52 143.75 C 118.55 144.79 119.42 145.60 120.45 145.56 C 121.49 145.53 122.30 144.66 122.26 143.63 L 122.23 142.56 C 122.19 141.53 121.32 140.72 120.29 140.75 C 119.25 140.79 118.45 141.66 118.48 142.69 Z M 118.53 143.92 L 118.65 144.94 C 118.78 145.97 119.71 146.70 120.74 146.58 C 121.77 146.45 122.50 145.52 122.38 144.49 L 122.25 143.46 C 122.13 142.44 121.19 141.70 120.16 141.83 C 119.14 141.95 118.40 142.89 118.53 143.92 Z M 118.68 145.12 L 118.90 146.10 C 119.12 147.11 120.12 147.75 121.14 147.52 C 122.15 147.30 122.79 146.30 122.56 145.28 L 122.35 144.31 C 122.12 143.30 121.12 142.66 120.11 142.88 C 119.10 143.11 118.46 144.11 118.68 145.12 Z M 118.95 146.30 L 119.26 147.21 C 119.60 148.19 120.67 148.71 121.65 148.38 C 122.63 148.04 123.15 146.97 122.82 145.99 L 122.51 145.08 C 122.17 144.10 121.10 143.58 120.12 143.91 C 119.14 144.25 118.62 145.32 118.95 146.30 Z M 119.35 147.43 L 119.76 148.26 C 120.22 149.19 121.35 149.57 122.28 149.11 C 123.21 148.65 123.60 147.52 123.13 146.59 L 122.73 145.76 C 122.27 144.83 121.14 144.45 120.21 144.91 C 119.27 145.37 118.89 146.50 119.35 147.43 Z M 119.91 148.51 L 120.46 149.29 C 121.06 150.14 122.23 150.34 123.08 149.74 C 123.93 149.14 124.14 147.96 123.54 147.11 L 122.99 146.34 C 122.39 145.49 121.21 145.28 120.36 145.88 C 119.51 146.48 119.31 147.66 119.91 148.51 Z M 120.65 149.53 L 121.33 150.21 C 122.06 150.95 123.26 150.96 124.00 150.23 C 124.74 149.50 124.75 148.30 124.02 147.56 L 123.34 146.88 C 122.61 146.13 121.41 146.13 120.67 146.86 C 119.93 147.59 119.92 148.78 120.65 149.53 Z M 121.54 150.40 L 122.32 150.98 C 123.15 151.61 124.34 151.44 124.96 150.61 C 125.59 149.77 125.42 148.59 124.59 147.96 L 123.81 147.38 C 122.97 146.75 121.79 146.92 121.16 147.75 C 120.54 148.59 120.71 149.77 121.54 150.40 Z M 122.51 151.11 L 123.38 151.61 C 124.29 152.13 125.45 151.82 125.96 150.91 C 126.48 150.00 126.17 148.85 125.26 148.33 L 124.39 147.83 C 123.49 147.31 122.33 147.63 121.81 148.53 C 121.29 149.44 121.61 150.60 122.51 151.11 Z M 123.55 151.70 L 124.49 152.12 C 125.45 152.55 126.57 152.12 127.00 151.16 C 127.42 150.21 126.99 149.09 126.04 148.66 L 125.09 148.24 C 124.14 147.81 123.02 148.24 122.59 149.20 C 122.16 150.15 122.59 151.27 123.55 151.70 Z M 124.62 152.18 L 125.56 152.51 C 126.54 152.86 127.63 152.35 127.98 151.37 C 128.34 150.38 127.82 149.29 126.84 148.94 L 125.91 148.60 C 124.92 148.25 123.83 148.76 123.48 149.75 C 123.13 150.73 123.64 151.82 124.62 152.18 Z M 125.66 152.55 L 126.51 152.80 C 127.52 153.10 128.57 152.52 128.87 151.52 C 129.17 150.51 128.60 149.46 127.59 149.16 L 126.74 148.90 C 125.73 148.61 124.67 149.18 124.38 150.18 C 124.08 151.19 124.65 152.25 125.66 152.55 Z M 126.60 152.83 L 127.50 153.04 C 128.52 153.29 129.55 152.66 129.80 151.64 C 130.04 150.62 129.42 149.60 128.40 149.35 L 127.50 149.13 C 126.48 148.88 125.45 149.51 125.20 150.53 C 124.96 151.55 125.58 152.58 126.60 152.83 Z M 127.59 153.06 L 128.54 153.25 C 129.57 153.44 130.57 152.77 130.77 151.74 C 130.96 150.70 130.29 149.71 129.26 149.51 L 128.31 149.33 C 127.28 149.13 126.28 149.81 126.08 150.84 C 125.88 151.87 126.56 152.87 127.59 153.06 Z M 128.62 153.26 L 129.63 153.41 C 130.67 153.56 131.64 152.84 131.79 151.80 C 131.94 150.76 131.22 149.79 130.18 149.64 L 129.17 149.49 C 128.13 149.34 127.17 150.06 127.01 151.10 C 126.86 152.14 127.58 153.11 128.62 153.26 Z M 129.71 153.42 L 130.77 153.53 C 131.82 153.64 132.76 152.88 132.87 151.83 C 132.98 150.79 132.21 149.85 131.17 149.74 L 130.10 149.63 C 129.05 149.52 128.12 150.28 128.01 151.33 C 127.90 152.37 128.66 153.31 129.71 153.42 Z M 130.85 153.54 L 131.98 153.61 C 133.03 153.68 133.94 152.89 134.01 151.84 C 134.08 150.79 133.28 149.88 132.23 149.81 L 131.10 149.73 C 130.05 149.66 129.14 150.46 129.07 151.51 C 129.00 152.56 129.79 153.47 130.85 153.54 Z M 132.04 153.62 L 133.04 153.65 C 134.09 153.69 134.97 152.87 135.01 151.81 C 135.05 150.76 134.23 149.88 133.17 149.84 L 132.18 149.80 C 131.12 149.77 130.24 150.59 130.20 151.64 C 130.16 152.70 130.99 153.58 132.04 153.62 Z M 133.09 153.65 L 134.07 153.66 C 135.12 153.67 135.99 152.83 136.00 151.77 C 136.00 150.72 135.16 149.86 134.10 149.85 L 133.12 149.84 C 132.07 149.83 131.21 150.68 131.20 151.73 C 131.19 152.78 132.03 153.64 133.09 153.65 Z M 134.12 153.66 L 135.13 153.64 C 136.18 153.63 137.02 152.76 137.00 151.70 C 136.98 150.65 136.12 149.81 135.06 149.83 L 134.05 149.85 C 133.00 149.87 132.16 150.73 132.18 151.79 C 132.20 152.84 133.07 153.68 134.12 153.66 Z M 135.18 153.64 L 136.21 153.60 C 137.26 153.55 138.07 152.66 138.03 151.60 C 137.98 150.55 137.08 149.74 136.03 149.78 L 135.01 149.83 C 133.96 149.88 133.14 150.77 133.19 151.82 C 133.24 152.88 134.13 153.69 135.18 153.64 Z M 136.26 153.59 L 137.29 153.51 C 138.34 153.43 139.13 152.52 139.05 151.47 C 138.97 150.41 138.05 149.63 137.00 149.71 L 135.97 149.79 C 134.92 149.87 134.14 150.79 134.22 151.84 C 134.30 152.89 135.21 153.67 136.26 153.59 Z M 137.36 153.51 L 138.37 153.40 C 139.42 153.28 140.18 152.34 140.06 151.29 C 139.94 150.24 139.00 149.49 137.95 149.60 L 136.93 149.71 C 135.89 149.83 135.13 150.77 135.25 151.82 C 135.36 152.87 136.31 153.63 137.36 153.51 Z M 138.45 153.39 L 139.44 153.24 C 140.49 153.08 141.21 152.11 141.05 151.07 C 140.89 150.02 139.92 149.30 138.88 149.46 L 137.88 149.61 C 136.84 149.77 136.12 150.74 136.27 151.78 C 136.43 152.82 137.40 153.54 138.45 153.39 Z M 139.53 153.22 L 140.49 153.03 C 141.53 152.83 142.20 151.83 142.00 150.79 C 141.80 149.76 140.79 149.08 139.76 149.29 L 138.79 149.48 C 137.76 149.68 137.08 150.68 137.29 151.72 C 137.49 152.75 138.49 153.43 139.53 153.22 Z M 140.59 153.01 L 141.58 152.76 C 142.60 152.50 143.22 151.47 142.96 150.44 C 142.70 149.42 141.66 148.80 140.64 149.06 L 139.66 149.31 C 138.64 149.57 138.02 150.60 138.28 151.63 C 138.53 152.65 139.57 153.27 140.59 153.01 Z M 141.69 152.73 L 142.70 152.40 C 143.71 152.08 144.26 151.01 143.94 150.00 C 143.61 149.00 142.54 148.45 141.54 148.77 L 140.52 149.09 C 139.52 149.42 138.97 150.49 139.29 151.49 C 139.61 152.50 140.69 153.05 141.69 152.73 Z M 142.82 152.36 L 143.77 151.99 C 144.75 151.60 145.24 150.50 144.85 149.51 C 144.47 148.53 143.36 148.05 142.38 148.44 L 141.42 148.81 C 140.44 149.19 139.96 150.30 140.34 151.28 C 140.73 152.27 141.84 152.75 142.82 152.36 Z M 143.87 151.94 L 144.78 151.53 C 145.74 151.08 146.16 149.95 145.71 148.99 C 145.27 148.04 144.14 147.62 143.18 148.06 L 142.28 148.48 C 141.32 148.92 140.90 150.05 141.34 151.01 C 141.78 151.97 142.92 152.39 143.87 151.94 Z M 144.87 151.48 L 145.74 151.03 C 146.67 150.54 147.03 149.38 146.54 148.45 C 146.05 147.52 144.89 147.16 143.96 147.65 L 143.09 148.10 C 142.16 148.59 141.80 149.75 142.29 150.68 C 142.78 151.61 143.94 151.97 144.87 151.48 Z M 145.81 150.99 L 146.64 150.50 C 147.55 149.97 147.86 148.80 147.33 147.89 C 146.80 146.98 145.64 146.67 144.73 147.20 L 143.89 147.69 C 142.98 148.22 142.67 149.39 143.20 150.30 C 143.73 151.21 144.90 151.52 145.81 150.99 Z M 146.70 150.46 L 147.51 149.95 C 148.40 149.39 148.67 148.21 148.11 147.32 C 147.55 146.43 146.37 146.16 145.48 146.73 L 144.67 147.24 C 143.78 147.80 143.51 148.97 144.07 149.87 C 144.63 150.76 145.81 151.02 146.70 150.46 Z M 147.55 149.93 L 148.35 149.40 C 149.23 148.81 149.47 147.63 148.88 146.75 C 148.30 145.88 147.12 145.64 146.24 146.22 L 145.44 146.75 C 144.57 147.33 144.33 148.52 144.91 149.39 C 145.49 150.27 146.67 150.51 147.55 149.93 Z M 148.38 149.38 L 149.17 148.83 C 150.04 148.23 150.26 147.04 149.66 146.18 C 149.06 145.31 147.88 145.09 147.01 145.69 L 146.21 146.24 C 145.35 146.84 145.13 148.03 145.73 148.89 C 146.33 149.76 147.51 149.97 148.38 149.38 Z M 149.21 148.80 L 149.99 148.23 C 150.85 147.62 151.04 146.43 150.43 145.58 C 149.81 144.72 148.62 144.53 147.77 145.15 L 146.98 145.71 C 146.13 146.33 145.93 147.52 146.55 148.37 C 147.16 149.22 148.35 149.42 149.21 148.80 Z M 150.03 148.21 L 150.81 147.61 C 151.65 146.98 151.81 145.79 151.18 144.95 C 150.54 144.11 149.35 143.95 148.51 144.58 L 147.73 145.17 C 146.90 145.81 146.73 147.00 147.37 147.84 C 148.00 148.68 149.19 148.84 150.03 148.21 Z M 150.85 147.58 L 151.63 146.96 C 152.45 146.31 152.58 145.11 151.92 144.29 C 151.27 143.47 150.07 143.34 149.25 143.99 L 148.47 144.61 C 147.66 145.27 147.52 146.47 148.18 147.29 C 148.84 148.11 150.03 148.24 150.85 147.58 Z M 151.67 146.93 L 152.44 146.27 C 153.24 145.59 153.33 144.39 152.65 143.59 C 151.97 142.80 150.77 142.70 149.98 143.38 L 149.21 144.03 C 148.41 144.71 148.31 145.91 148.99 146.71 C 149.67 147.51 150.87 147.61 151.67 146.93 Z M 152.48 146.23 L 153.24 145.54 C 154.02 144.84 154.08 143.64 153.38 142.86 C 152.67 142.08 151.47 142.02 150.69 142.73 L 149.93 143.42 C 149.15 144.12 149.10 145.32 149.80 146.10 C 150.50 146.88 151.70 146.94 152.48 146.23 Z M 153.29 145.50 L 154.05 144.76 C 154.80 144.04 154.82 142.83 154.09 142.08 C 153.36 141.33 152.16 141.31 151.41 142.04 L 150.65 142.77 C 149.90 143.50 149.88 144.70 150.61 145.45 C 151.33 146.21 152.54 146.23 153.29 145.50 Z M 154.09 144.72 L 154.78 144.01 C 155.50 143.26 155.49 142.06 154.73 141.33 C 153.98 140.60 152.78 140.62 152.05 141.37 L 151.36 142.08 C 150.63 142.83 150.65 144.04 151.41 144.76 C 152.16 145.49 153.36 145.47 154.09 144.72 Z M 154.82 143.97 L 155.49 143.23 C 156.20 142.46 156.15 141.25 155.37 140.55 C 154.60 139.84 153.40 139.89 152.69 140.67 L 152.01 141.41 C 151.30 142.18 151.36 143.39 152.13 144.09 C 152.91 144.80 154.11 144.75 154.82 143.97 Z M 155.53 143.19 L 156.19 142.42 C 156.88 141.63 156.79 140.43 156.00 139.74 C 155.20 139.06 154.00 139.14 153.32 139.94 L 152.65 140.71 C 151.97 141.50 152.05 142.70 152.85 143.39 C 153.64 144.08 154.84 143.99 155.53 143.19 Z M 156.23 142.39 L 156.87 141.60 C 157.54 140.78 157.42 139.58 156.61 138.92 C 155.79 138.25 154.59 138.37 153.93 139.19 L 153.28 139.98 C 152.62 140.79 152.74 141.99 153.55 142.65 C 154.36 143.32 155.56 143.20 156.23 142.39 Z M 156.91 141.56 L 157.53 140.76 C 158.17 139.92 158.02 138.73 157.19 138.08 C 156.36 137.44 155.16 137.59 154.52 138.42 L 153.89 139.22 C 153.25 140.06 153.40 141.25 154.23 141.90 C 155.07 142.54 156.26 142.39 156.91 141.56 Z M 157.56 140.72 L 158.15 139.91 C 158.78 139.06 158.59 137.86 157.74 137.24 C 156.89 136.62 155.70 136.80 155.08 137.65 L 154.48 138.46 C 153.86 139.31 154.04 140.51 154.90 141.13 C 155.75 141.75 156.94 141.57 157.56 140.72 Z M 158.19 139.86 L 158.75 139.05 C 159.35 138.18 159.13 136.99 158.26 136.40 C 157.39 135.80 156.20 136.02 155.60 136.89 L 155.04 137.70 C 154.44 138.56 154.66 139.75 155.53 140.35 C 156.40 140.95 157.59 140.73 158.19 139.86 Z M 158.78 139.01 L 159.32 138.17 C 159.89 137.28 159.64 136.10 158.75 135.53 C 157.86 134.95 156.68 135.21 156.10 136.10 L 155.57 136.93 C 154.99 137.82 155.25 139.00 156.14 139.58 C 157.03 140.15 158.21 139.89 158.78 139.01 Z M 159.36 138.11 L 159.92 137.16 C 160.46 136.25 160.16 135.08 159.25 134.54 C 158.34 134.00 157.17 134.30 156.62 135.21 L 156.06 136.16 C 155.52 137.07 155.82 138.24 156.73 138.78 C 157.64 139.32 158.82 139.02 159.36 138.11 Z M 159.97 137.09 L 160.47 136.16 C 160.97 135.22 160.62 134.06 159.68 133.56 C 158.74 133.05 157.58 133.41 157.08 134.35 L 156.58 135.28 C 156.08 136.22 156.43 137.38 157.37 137.88 C 158.30 138.38 159.47 138.03 159.97 137.09 Z M 160.52 136.08 L 160.95 135.16 C 161.41 134.19 161.00 133.04 160.03 132.59 C 159.07 132.13 157.92 132.54 157.46 133.51 L 157.03 134.43 C 156.57 135.39 156.98 136.54 157.95 137.00 C 158.91 137.45 160.06 137.04 160.52 136.08 Z M 161.00 135.06 L 161.37 134.15 C 161.77 133.16 161.29 132.03 160.30 131.63 C 159.31 131.23 158.18 131.71 157.78 132.70 L 157.41 133.61 C 157.01 134.60 157.49 135.73 158.48 136.13 C 159.47 136.53 160.60 136.05 161.00 135.06 Z M 161.42 134.04 L 161.72 133.15 C 162.06 132.13 161.51 131.03 160.49 130.69 C 159.47 130.35 158.37 130.90 158.03 131.91 L 157.73 132.81 C 157.39 133.83 157.94 134.93 158.96 135.27 C 159.98 135.61 161.08 135.06 161.42 134.04 Z M 161.76 133.02 L 161.99 132.14 C 162.26 131.10 161.64 130.03 160.59 129.76 C 159.55 129.49 158.49 130.11 158.22 131.16 L 157.99 132.04 C 157.71 133.08 158.34 134.15 159.38 134.42 C 160.43 134.69 161.49 134.06 161.76 133.02 Z M 162.03 131.98 L 162.21 130.97 C 162.39 129.91 161.68 128.90 160.62 128.71 C 159.55 128.52 158.54 129.24 158.35 130.30 L 158.18 131.31 C 157.99 132.38 158.70 133.39 159.77 133.58 C 160.83 133.76 161.84 133.05 162.03 131.98 Z M 162.24 130.77 L 162.31 129.71 C 162.39 128.63 161.57 127.69 160.49 127.62 C 159.41 127.54 158.47 128.36 158.40 129.44 L 158.32 130.50 C 158.25 131.58 159.06 132.52 160.14 132.60 C 161.22 132.67 162.16 131.86 162.24 130.77 Z M 162.32 129.46 L 162.26 128.45 C 162.20 127.36 161.27 126.53 160.18 126.60 C 159.10 126.66 158.27 127.59 158.33 128.67 L 158.39 129.69 C 158.45 130.77 159.38 131.60 160.47 131.54 C 161.55 131.48 162.38 130.55 162.32 129.46 Z M 162.23 128.15 L 162.02 127.20 C 161.80 126.14 160.75 125.46 159.68 125.69 C 158.61 125.91 157.93 126.96 158.16 128.03 L 158.37 128.98 C 158.59 130.04 159.64 130.72 160.71 130.49 C 161.78 130.26 162.46 129.21 162.23 128.15 Z M 161.92 126.85 L 161.56 125.99 C 161.14 124.98 159.98 124.51 158.97 124.93 C 157.96 125.36 157.48 126.52 157.91 127.53 L 158.27 128.38 C 158.69 129.39 159.85 129.87 160.86 129.44 C 161.87 129.02 162.34 127.86 161.92 126.85 Z M 161.36 125.62 L 160.84 124.89 C 160.21 123.99 158.98 123.77 158.08 124.40 C 157.18 125.03 156.96 126.27 157.59 127.17 L 158.11 127.90 C 158.74 128.80 159.98 129.01 160.88 128.38 C 161.77 127.75 161.99 126.52 161.36 125.62 Z M 160.57 124.57 L 159.92 123.97 C 159.12 123.22 157.86 123.27 157.11 124.07 C 156.37 124.88 156.41 126.14 157.22 126.88 L 157.87 127.48 C 158.67 128.23 159.93 128.18 160.68 127.38 C 161.42 126.57 161.38 125.32 160.57 124.57 Z M 159.65 123.76 L 158.87 123.25 C 157.95 122.65 156.72 122.92 156.12 123.84 C 155.52 124.76 155.79 125.99 156.71 126.59 L 157.49 127.09 C 158.41 127.69 159.64 127.43 160.24 126.51 C 160.84 125.58 160.57 124.35 159.65 123.76 Z M 158.63 123.12 L 157.73 122.69 C 156.73 122.23 155.55 122.66 155.08 123.65 C 154.62 124.65 155.05 125.83 156.04 126.30 L 156.95 126.72 C 157.94 127.18 159.12 126.75 159.59 125.76 C 160.05 124.76 159.62 123.58 158.63 123.12 Z M 157.53 122.62 L 156.52 122.27 C 155.48 121.91 154.35 122.47 154.00 123.51 C 153.64 124.54 154.19 125.67 155.23 126.03 L 156.24 126.38 C 157.28 126.73 158.41 126.18 158.76 125.14 C 159.12 124.10 158.57 122.97 157.53 122.62 Z M 156.36 122.22 L 155.27 121.94 C 154.20 121.67 153.12 122.32 152.85 123.38 C 152.58 124.45 153.23 125.53 154.29 125.80 L 155.39 126.08 C 156.45 126.35 157.53 125.70 157.80 124.64 C 158.07 123.57 157.43 122.49 156.36 122.22 Z M 155.16 121.92 L 154.24 121.74 C 153.17 121.53 152.12 122.24 151.91 123.32 C 151.71 124.40 152.41 125.44 153.49 125.65 L 154.40 125.82 C 155.48 126.03 156.52 125.33 156.73 124.25 C 156.94 123.17 156.23 122.13 155.16 121.92 Z M 154.17 121.73 L 153.27 121.59 C 152.18 121.43 151.17 122.17 151.00 123.26 C 150.84 124.34 151.58 125.36 152.67 125.52 L 153.57 125.66 C 154.65 125.83 155.67 125.08 155.83 123.99 C 156.00 122.91 155.25 121.90 154.17 121.73 Z M 153.20 121.59 L 152.26 121.47 C 151.17 121.34 150.19 122.12 150.06 123.21 C 149.93 124.30 150.70 125.29 151.79 125.42 L 152.73 125.53 C 153.82 125.66 154.81 124.88 154.94 123.79 C 155.07 122.70 154.29 121.72 153.20 121.59 Z M 152.21 121.47 L 151.23 121.38 C 150.14 121.28 149.17 122.08 149.07 123.18 C 148.97 124.27 149.78 125.23 150.87 125.33 L 151.85 125.42 C 152.94 125.52 153.90 124.72 154.00 123.63 C 154.10 122.54 153.30 121.57 152.21 121.47 Z M 151.19 121.38 L 150.17 121.31 C 149.08 121.23 148.13 122.06 148.05 123.15 C 147.98 124.24 148.80 125.19 149.90 125.27 L 150.91 125.34 C 152.01 125.41 152.95 124.59 153.03 123.49 C 153.10 122.40 152.28 121.45 151.19 121.38 Z M 150.13 121.31 L 149.08 121.25 C 147.99 121.20 147.05 122.04 147.00 123.13 C 146.94 124.23 147.78 125.16 148.88 125.21 L 149.93 125.27 C 151.03 125.32 151.96 124.48 152.01 123.39 C 152.07 122.29 151.23 121.36 150.13 121.31 Z M 149.05 121.25 L 147.96 121.21 C 146.86 121.17 145.94 122.02 145.90 123.12 C 145.86 124.21 146.72 125.13 147.81 125.17 L 148.90 125.21 C 150.00 125.25 150.92 124.40 150.96 123.31 C 151.00 122.21 150.15 121.29 149.05 121.25 Z M 147.94 121.21 L 146.85 121.18 C 145.76 121.15 144.85 122.01 144.82 123.11 C 144.79 124.20 145.65 125.11 146.74 125.14 L 147.83 125.17 C 148.92 125.20 149.83 124.34 149.86 123.25 C 149.89 122.15 149.03 121.24 147.94 121.21 Z M 146.84 121.19 L 145.84 121.17 C 144.75 121.15 143.85 122.01 143.83 123.10 C 143.80 124.19 144.67 125.09 145.76 125.11 L 146.76 125.13 C 147.85 125.16 148.75 124.29 148.77 123.20 C 148.79 122.11 147.93 121.21 146.84 121.19 Z M 145.83 121.18 L 144.81 121.16 C 143.73 121.14 142.84 122.01 142.82 123.09 C 142.80 124.18 143.67 125.07 144.75 125.09 L 145.77 125.11 C 146.85 125.12 147.75 124.26 147.76 123.17 C 147.78 122.09 146.92 121.19 145.83 121.18 Z M 144.81 121.17 L 143.78 121.16 C 142.70 121.15 141.81 122.01 141.80 123.09 C 141.79 124.17 142.65 125.06 143.73 125.07 L 144.76 125.08 C 145.84 125.09 146.73 124.23 146.74 123.15 C 146.75 122.07 145.89 121.18 144.81 121.17 Z M 143.77 121.17 L 142.74 121.16 C 141.67 121.15 140.79 122.01 140.78 123.09 C 140.77 124.17 141.64 125.04 142.71 125.05 L 143.74 125.06 C 144.82 125.07 145.70 124.20 145.70 123.13 C 145.71 122.05 144.85 121.17 143.77 121.17 Z M 142.74 121.17 L 141.72 121.16 C 140.64 121.16 139.77 122.02 139.77 123.09 C 139.76 124.16 140.63 125.03 141.70 125.04 L 142.72 125.04 C 143.79 125.05 144.66 124.19 144.67 123.12 C 144.67 122.04 143.81 121.17 142.74 121.17 Z M 141.71 121.17 L 140.70 121.17 C 139.64 121.16 138.77 122.03 138.77 123.09 C 138.76 124.16 139.63 125.02 140.69 125.03 L 141.70 125.03 C 142.77 125.03 143.63 124.17 143.64 123.11 C 143.64 122.04 142.78 121.17 141.71 121.17 Z M 140.70 121.18 L 139.72 121.17 C 138.65 121.17 137.79 122.03 137.79 123.09 C 137.79 124.15 138.65 125.02 139.71 125.02 L 140.70 125.02 C 141.76 125.02 142.62 124.16 142.62 123.10 C 142.62 122.04 141.76 121.18 140.70 121.18 Z M 139.71 121.18 L 138.76 121.18 C 137.70 121.18 136.85 122.04 136.85 123.09 C 136.85 124.15 137.70 125.01 138.76 125.01 L 139.71 125.01 C 140.77 125.01 141.63 124.15 141.63 123.10 C 141.63 122.04 140.77 121.18 139.71 121.18 Z M 138.76 121.20 L 137.72 121.20 C 136.67 121.20 135.83 122.05 135.83 123.10 C 135.83 124.14 136.67 124.99 137.72 124.99 L 138.76 124.99 C 139.81 124.99 140.66 124.14 140.66 123.10 C 140.66 122.05 139.81 121.20 138.76 121.20 Z M 137.72 121.23 L 136.63 121.23 C 135.60 121.23 134.76 122.06 134.76 123.10 C 134.76 124.13 135.60 124.96 136.63 124.96 L 137.72 124.96 C 138.75 124.96 139.59 124.13 139.59 123.10 C 139.59 122.06 138.75 121.23 137.72 121.23 Z M 136.63 121.26 L 135.59 121.26 C 134.57 121.26 133.75 122.08 133.75 123.10 C 133.75 124.11 134.57 124.93 135.59 124.93 L 136.63 124.93 C 137.64 124.93 138.46 124.11 138.46 123.10 C 138.46 122.08 137.64 121.26 136.63 121.26 Z M 135.59 121.30 L 134.59 121.30 C 133.60 121.30 132.79 122.10 132.79 123.10 C 132.79 124.09 133.60 124.89 134.59 124.89 L 135.59 124.89 C 136.58 124.89 137.38 124.09 137.38 123.10 C 137.38 122.10 136.58 121.30 135.59 121.30 Z M 134.59 121.33 L 133.63 121.33 C 132.65 121.33 131.86 122.12 131.86 123.10 C 131.86 124.07 132.65 124.86 133.63 124.86 L 134.59 124.86 C 135.56 124.86 136.35 124.07 136.35 123.10 C 136.35 122.12 135.56 121.33 134.59 121.33 Z M 133.63 121.37 L 132.69 121.37 C 131.73 121.37 130.96 122.14 130.96 123.10 C 130.96 124.05 131.73 124.82 132.69 124.82 L 133.63 124.82 C 134.58 124.82 135.35 124.05 135.35 123.10 C 135.35 122.14 134.58 121.37 133.63 121.37 Z M 132.69 121.40 L 131.76 121.40 C 130.82 121.40 130.07 122.16 130.07 123.10 C 130.07 124.03 130.82 124.79 131.76 124.79 L 132.69 124.79 C 133.62 124.79 134.38 124.03 134.38 123.10 C 134.38 122.16 133.62 121.40 132.69 121.40 Z M 131.76 121.43 L 131.36 121.43 C 130.44 121.43 129.69 122.17 129.69 123.10 C 129.69 124.02 130.44 124.76 131.36 124.76 L 131.76 124.76 C 132.68 124.76 133.43 124.02 133.43 123.10 C 133.43 122.17 132.68 121.43 131.76 121.43 Z"
      fill="black"
      fill-rule="nonzero" /></svg>