<svg xmlns="http://www.w3.org/2000/svg" width="300" height="300" viewBox="0 0 300 300">
<path d="M 147.68 154.47 L 147.45 153.50 C 147.24 152.65 146.38 152.12 145.53 152.32 C 144.67 152.53 144.15 153.39 144.35 154.24 L 144.58 155.22 C 144.79 156.07 145.65 156.60 146.50 156.39 C 147.36 156.19 147.88 155.33 147.68 154.47 Z M 147.45 153.50 L 147.22 152.53 C 147.01 151.67 146.15 151.14 145.30 151.35 C 144.44 151.55 143.91 152.41 144.11 153.27 L 144.35 154.24 C 144.55 155.10 145.41 155.63 146.27 155.42 C 147.13 155.22 147.66 154.36 147.45 153.50 Z M 147.22 152.53 L 146.99 151.56 C 146.79 150.70 145.93 150.16 145.07 150.37 C 144.21 150.57 143.68 151.43 143.88 152.29 L 144.11 153.27 C 144.31 154.13 145.17 154.66 146.03 154.46 C 146.89 154.25 147.43 153.39 147.22 152.53 Z M 147.00 151.56 L 146.77 150.59 C 146.57 149.72 145.71 149.19 144.85 149.39 C 143.98 149.59 143.45 150.45 143.65 151.31 L 143.87 152.29 C 144.07 153.15 144.94 153.69 145.80 153.49 C 146.66 153.29 147.20 152.42 147.00 151.56 Z M 146.78 150.59 L 146.56 149.62 C 146.36 148.75 145.50 148.21 144.63 148.41 C 143.76 148.60 143.22 149.47 143.42 150.33 L 143.64 151.31 C 143.84 152.17 144.70 152.72 145.57 152.52 C 146.43 152.32 146.98 151.46 146.78 150.59 Z M 146.57 149.63 L 146.35 148.67 C 146.16 147.80 145.30 147.25 144.43 147.44 C 143.56 147.63 143.01 148.50 143.20 149.37 L 143.41 150.33 C 143.60 151.20 144.47 151.75 145.34 151.55 C 146.21 151.36 146.76 150.50 146.57 149.63 Z M 146.36 148.68 L 146.16 147.75 C 145.97 146.88 145.11 146.32 144.24 146.51 C 143.37 146.69 142.81 147.55 143.00 148.43 L 143.19 149.36 C 143.38 150.23 144.24 150.79 145.11 150.60 C 145.99 150.41 146.55 149.55 146.36 148.68 Z M 146.17 147.76 L 145.97 146.82 C 145.80 145.94 144.94 145.38 144.06 145.56 C 143.18 145.73 142.62 146.59 142.80 147.47 L 142.99 148.41 C 143.17 149.29 144.02 149.86 144.90 149.68 C 145.78 149.50 146.35 148.64 146.17 147.76 Z M 145.98 146.84 L 145.80 145.87 C 145.63 144.99 144.77 144.41 143.89 144.58 C 143.01 144.75 142.43 145.61 142.60 146.49 L 142.79 147.45 C 142.96 148.33 143.81 148.91 144.69 148.74 C 145.57 148.57 146.15 147.72 145.98 146.84 Z M 145.80 145.89 L 145.62 144.89 C 145.46 144.01 144.62 143.42 143.73 143.58 C 142.85 143.74 142.26 144.59 142.42 145.47 L 142.60 146.47 C 142.76 147.35 143.60 147.94 144.49 147.78 C 145.37 147.62 145.96 146.78 145.80 145.89 Z M 145.63 144.91 L 145.46 143.88 C 145.31 142.99 144.47 142.39 143.58 142.54 C 142.69 142.68 142.09 143.53 142.24 144.41 L 142.41 145.45 C 142.56 146.34 143.40 146.94 144.29 146.79 C 145.18 146.64 145.78 145.80 145.63 144.91 Z M 145.46 143.90 L 145.31 142.87 C 145.17 141.98 144.33 141.37 143.44 141.51 C 142.55 141.64 141.93 142.48 142.07 143.37 L 142.23 144.39 C 142.37 145.29 143.20 145.90 144.10 145.76 C 144.99 145.62 145.60 144.79 145.46 143.90 Z M 145.31 142.89 L 145.17 141.93 C 145.04 141.03 144.21 140.41 143.31 140.54 C 142.42 140.67 141.79 141.50 141.92 142.40 L 142.06 143.36 C 142.19 144.25 143.03 144.88 143.92 144.75 C 144.82 144.62 145.44 143.78 145.31 142.89 Z M 145.18 141.93 L 145.04 140.94 C 144.91 140.04 144.08 139.41 143.18 139.54 C 142.28 139.67 141.65 140.50 141.78 141.40 L 141.92 142.39 C 142.04 143.29 142.88 143.92 143.78 143.79 C 144.68 143.67 145.31 142.83 145.18 141.93 Z M 145.05 140.94 L 144.90 139.94 C 144.78 139.03 143.94 138.40 143.03 138.53 C 142.13 138.66 141.50 139.50 141.63 140.40 L 141.77 141.40 C 141.90 142.31 142.74 142.94 143.64 142.81 C 144.55 142.68 145.18 141.84 145.05 140.94 Z M 144.91 139.93 L 144.76 138.92 C 144.63 138.01 143.78 137.38 142.88 137.52 C 141.97 137.65 141.34 138.49 141.47 139.40 L 141.62 140.41 C 141.76 141.32 142.60 141.95 143.51 141.81 C 144.42 141.68 145.04 140.83 144.91 139.93 Z M 144.76 138.90 L 144.61 137.89 C 144.46 136.98 143.61 136.36 142.70 136.51 C 141.79 136.65 141.17 137.50 141.31 138.41 L 141.47 139.42 C 141.61 140.33 142.47 140.95 143.38 140.81 C 144.29 140.66 144.91 139.81 144.76 138.90 Z M 144.61 137.87 L 144.44 136.88 C 144.28 135.97 143.41 135.36 142.50 135.51 C 141.59 135.67 140.98 136.54 141.14 137.45 L 141.31 138.44 C 141.47 139.35 142.33 139.96 143.25 139.80 C 144.16 139.65 144.77 138.78 144.61 137.87 Z M 144.44 136.84 L 144.24 135.81 C 144.06 134.90 143.18 134.31 142.26 134.49 C 141.35 134.67 140.76 135.55 140.94 136.46 L 141.14 137.49 C 141.32 138.40 142.20 138.99 143.11 138.81 C 144.02 138.64 144.62 137.75 144.44 136.84 Z M 144.24 135.76 L 143.99 134.68 C 143.78 133.77 142.87 133.20 141.96 133.41 C 141.05 133.62 140.48 134.53 140.69 135.44 L 140.94 136.52 C 141.15 137.43 142.06 138.00 142.97 137.79 C 143.88 137.58 144.45 136.67 144.24 135.76 Z M 143.98 134.59 L 143.69 133.58 C 143.43 132.67 142.48 132.15 141.58 132.41 C 140.67 132.67 140.15 133.61 140.41 134.52 L 140.70 135.53 C 140.96 136.44 141.90 136.96 142.81 136.70 C 143.71 136.44 144.24 135.50 143.98 134.59 Z M 143.66 133.45 L 143.31 132.51 C 142.98 131.62 141.99 131.17 141.11 131.50 C 140.22 131.83 139.76 132.81 140.09 133.70 L 140.44 134.64 C 140.77 135.53 141.75 135.99 142.64 135.66 C 143.53 135.33 143.99 134.34 143.66 133.45 Z M 143.25 132.35 L 142.84 131.50 C 142.42 130.64 141.38 130.28 140.52 130.70 C 139.67 131.12 139.31 132.16 139.73 133.02 L 140.15 133.87 C 140.57 134.73 141.60 135.08 142.46 134.66 C 143.32 134.24 143.67 133.21 143.25 132.35 Z M 142.73 131.29 L 142.23 130.54 C 141.70 129.74 140.62 129.52 139.82 130.06 C 139.02 130.59 138.80 131.67 139.33 132.47 L 139.83 133.22 C 140.37 134.02 141.45 134.24 142.25 133.71 C 143.05 133.17 143.27 132.09 142.73 131.29 Z M 142.06 130.30 L 141.42 129.62 C 140.75 128.92 139.64 128.89 138.94 129.56 C 138.23 130.22 138.20 131.33 138.87 132.04 L 139.51 132.71 C 140.18 133.42 141.29 133.45 141.99 132.78 C 142.69 132.11 142.73 131.00 142.06 130.30 Z M 141.16 129.38 L 140.34 128.80 C 139.54 128.24 138.43 128.44 137.87 129.24 C 137.31 130.04 137.51 131.14 138.31 131.70 L 139.13 132.28 C 139.93 132.84 141.03 132.65 141.60 131.85 C 142.16 131.05 141.96 129.94 141.16 129.38 Z M 140.03 128.61 L 139.11 128.22 C 138.21 127.83 137.16 128.25 136.77 129.16 C 136.38 130.07 136.80 131.12 137.70 131.51 L 138.62 131.90 C 139.53 132.29 140.58 131.87 140.97 130.96 C 141.36 130.05 140.94 129.00 140.03 128.61 Z M 138.77 128.09 L 137.80 127.90 C 136.82 127.70 135.87 128.33 135.67 129.31 C 135.47 130.28 136.10 131.24 137.08 131.43 L 138.05 131.63 C 139.03 131.83 139.98 131.20 140.18 130.22 C 140.38 129.24 139.74 128.29 138.77 128.09 Z M 137.42 127.84 L 136.43 127.85 C 135.42 127.87 134.62 128.69 134.63 129.69 C 134.64 130.70 135.46 131.51 136.47 131.50 L 137.46 131.49 C 138.46 131.48 139.27 130.65 139.26 129.65 C 139.25 128.64 138.43 127.83 137.42 127.84 Z M 136.03 127.89 L 135.09 128.11 C 134.10 128.33 133.48 129.32 133.71 130.31 C 133.94 131.30 134.92 131.91 135.91 131.68 L 136.86 131.46 C 137.85 131.24 138.46 130.25 138.24 129.26 C 138.01 128.28 137.02 127.66 136.03 127.89 Z M 134.74 128.21 L 133.90 128.59 C 132.97 129.01 132.56 130.11 132.98 131.03 C 133.40 131.96 134.49 132.37 135.42 131.95 L 136.26 131.58 C 137.19 131.16 137.60 130.06 137.18 129.13 C 136.76 128.21 135.67 127.79 134.74 128.21 Z M 133.65 128.72 L 132.85 129.25 C 131.99 129.81 131.75 130.95 132.31 131.81 C 132.86 132.66 134.01 132.90 134.87 132.35 L 135.67 131.82 C 136.53 131.27 136.77 130.12 136.21 129.26 C 135.65 128.41 134.51 128.17 133.65 128.72 Z M 132.67 129.37 L 131.90 130.01 C 131.11 130.67 131.01 131.84 131.66 132.62 C 132.31 133.41 133.48 133.52 134.27 132.86 L 135.04 132.22 C 135.83 131.57 135.94 130.40 135.28 129.61 C 134.63 128.83 133.46 128.72 132.67 129.37 Z M 131.78 130.12 L 131.04 130.85 C 130.31 131.57 130.31 132.75 131.03 133.48 C 131.75 134.21 132.93 134.21 133.65 133.49 L 134.39 132.76 C 135.12 132.04 135.13 130.86 134.41 130.13 C 133.68 129.40 132.51 129.40 131.78 130.12 Z M 130.96 130.93 L 130.25 131.72 C 129.57 132.49 129.64 133.67 130.41 134.35 C 131.17 135.04 132.35 134.97 133.03 134.20 L 133.74 133.41 C 134.42 132.64 134.35 131.46 133.58 130.78 C 132.82 130.10 131.64 130.16 130.96 130.93 Z M 130.20 131.78 L 129.55 132.58 C 128.90 133.38 129.02 134.56 129.82 135.21 C 130.62 135.86 131.79 135.73 132.44 134.94 L 133.09 134.14 C 133.74 133.34 133.62 132.17 132.82 131.52 C 132.02 130.87 130.85 130.99 130.20 131.78 Z M 129.51 132.63 L 128.91 133.42 C 128.28 134.24 128.44 135.42 129.27 136.04 C 130.09 136.66 131.26 136.50 131.88 135.68 L 132.48 134.89 C 133.10 134.07 132.94 132.89 132.12 132.27 C 131.30 131.65 130.13 131.81 129.51 132.63 Z M 128.87 133.47 L 128.30 134.28 C 127.70 135.12 127.90 136.29 128.74 136.89 C 129.58 137.48 130.75 137.28 131.35 136.44 L 131.92 135.63 C 132.52 134.79 132.32 133.62 131.47 133.03 C 130.63 132.43 129.47 132.63 128.87 133.47 Z M 128.26 134.33 L 127.71 135.16 C 127.14 136.02 127.38 137.18 128.24 137.75 C 129.10 138.32 130.26 138.08 130.83 137.22 L 131.38 136.39 C 131.95 135.53 131.71 134.37 130.85 133.80 C 129.99 133.23 128.83 133.47 128.26 134.33 Z M 127.68 135.21 L 127.15 136.06 C 126.61 136.94 126.88 138.09 127.76 138.63 C 128.64 139.18 129.79 138.91 130.34 138.03 L 130.86 137.18 C 131.41 136.30 131.13 135.14 130.26 134.60 C 129.38 134.06 128.22 134.33 127.68 135.21 Z M 127.12 136.10 L 126.62 136.98 C 126.10 137.87 126.41 139.02 127.30 139.54 C 128.20 140.05 129.34 139.75 129.86 138.85 L 130.37 137.98 C 130.88 137.09 130.58 135.94 129.68 135.42 C 128.79 134.90 127.64 135.21 127.12 136.10 Z M 126.59 137.02 L 126.13 137.87 C 125.64 138.77 125.97 139.91 126.88 140.41 C 127.79 140.90 128.93 140.57 129.42 139.66 L 129.88 138.81 C 130.38 137.90 130.04 136.77 129.14 136.27 C 128.23 135.78 127.09 136.11 126.59 137.02 Z M 126.11 137.91 L 125.70 138.70 C 125.23 139.62 125.60 140.75 126.52 141.22 C 127.44 141.69 128.57 141.33 129.04 140.41 L 129.45 139.62 C 129.92 138.70 129.56 137.57 128.63 137.09 C 127.71 136.62 126.58 136.99 126.11 137.91 Z M 125.68 138.74 L 125.29 139.56 C 124.84 140.50 125.23 141.62 126.17 142.07 C 127.10 142.52 128.22 142.12 128.67 141.19 L 129.06 140.37 C 129.51 139.43 129.12 138.31 128.18 137.86 C 127.25 137.41 126.13 137.81 125.68 138.74 Z M 125.26 139.61 L 124.88 140.48 C 124.45 141.42 124.88 142.53 125.82 142.95 C 126.77 143.38 127.88 142.95 128.30 142.01 L 128.69 141.14 C 129.11 140.20 128.69 139.09 127.74 138.66 C 126.80 138.24 125.69 138.67 125.26 139.61 Z M 124.86 140.52 L 124.48 141.44 C 124.08 142.40 124.53 143.50 125.49 143.89 C 126.45 144.29 127.55 143.84 127.94 142.88 L 128.32 141.96 C 128.72 141.00 128.27 139.91 127.31 139.51 C 126.35 139.11 125.25 139.57 124.86 140.52 Z M 124.46 141.49 L 124.08 142.47 C 123.71 143.44 124.20 144.52 125.16 144.89 C 126.13 145.26 127.22 144.78 127.59 143.81 L 127.96 142.83 C 128.33 141.86 127.85 140.78 126.88 140.41 C 125.91 140.04 124.83 140.52 124.46 141.49 Z M 124.06 142.51 L 123.69 143.57 C 123.35 144.54 123.86 145.62 124.84 145.96 C 125.82 146.31 126.89 145.80 127.23 144.82 L 127.61 143.77 C 127.95 142.79 127.44 141.71 126.46 141.37 C 125.48 141.02 124.41 141.54 124.06 142.51 Z M 123.68 143.61 L 123.33 144.67 C 123.01 145.66 123.54 146.72 124.53 147.04 C 125.52 147.37 126.58 146.83 126.90 145.84 L 127.25 144.78 C 127.57 143.79 127.03 142.73 126.05 142.41 C 125.06 142.08 124.00 142.62 123.68 143.61 Z M 123.32 144.71 L 123.04 145.63 C 122.73 146.62 123.29 147.67 124.28 147.97 C 125.27 148.28 126.33 147.72 126.63 146.73 L 126.91 145.81 C 127.21 144.82 126.66 143.77 125.67 143.46 C 124.67 143.16 123.62 143.72 123.32 144.71 Z M 123.03 145.65 L 122.75 146.61 C 122.46 147.61 123.03 148.65 124.03 148.94 C 125.03 149.23 126.07 148.66 126.36 147.66 L 126.64 146.70 C 126.93 145.70 126.35 144.66 125.36 144.37 C 124.36 144.08 123.32 144.66 123.03 145.65 Z M 122.74 146.64 L 122.47 147.63 C 122.20 148.63 122.78 149.66 123.79 149.94 C 124.79 150.21 125.82 149.62 126.09 148.62 L 126.37 147.63 C 126.64 146.63 126.05 145.60 125.05 145.32 C 124.05 145.05 123.02 145.64 122.74 146.64 Z M 122.47 147.65 L 122.20 148.65 C 121.94 149.66 122.54 150.68 123.55 150.95 C 124.55 151.21 125.58 150.61 125.84 149.60 L 126.10 148.60 C 126.36 147.59 125.76 146.57 124.76 146.31 C 123.75 146.04 122.73 146.65 122.47 147.65 Z M 122.20 148.68 L 121.95 149.69 C 121.70 150.69 122.31 151.71 123.32 151.96 C 124.33 152.21 125.35 151.60 125.60 150.59 L 125.85 149.58 C 126.09 148.57 125.48 147.55 124.47 147.30 C 123.46 147.05 122.45 147.67 122.20 148.68 Z M 121.94 149.71 L 121.71 150.72 C 121.47 151.73 122.10 152.74 123.11 152.97 C 124.12 153.21 125.13 152.58 125.37 151.57 L 125.60 150.56 C 125.84 149.55 125.21 148.54 124.20 148.31 C 123.19 148.07 122.18 148.70 121.94 149.71 Z M 121.70 150.74 L 121.49 151.73 C 121.27 152.75 121.91 153.75 122.92 153.97 C 123.94 154.19 124.94 153.54 125.16 152.53 L 125.37 151.54 C 125.60 150.53 124.95 149.53 123.94 149.31 C 122.92 149.09 121.92 149.73 121.70 150.74 Z M 121.48 151.76 L 121.29 152.72 C 121.08 153.74 121.74 154.73 122.76 154.94 C 123.78 155.14 124.77 154.48 124.97 153.46 L 125.17 152.50 C 125.37 151.48 124.71 150.49 123.69 150.29 C 122.68 150.08 121.69 150.74 121.48 151.76 Z M 121.28 152.75 L 121.11 153.68 C 120.92 154.70 121.60 155.68 122.62 155.87 C 123.64 156.05 124.62 155.38 124.81 154.36 L 124.98 153.43 C 125.17 152.41 124.49 151.43 123.47 151.24 C 122.45 151.06 121.47 151.73 121.28 152.75 Z M 121.10 153.72 L 120.92 154.88 C 120.76 155.90 121.46 156.86 122.48 157.03 C 123.51 157.19 124.47 156.49 124.63 155.47 L 124.82 154.31 C 124.98 153.29 124.28 152.32 123.26 152.16 C 122.23 152.00 121.27 152.70 121.10 153.72 Z M 120.91 154.93 L 120.77 156.04 C 120.63 157.06 121.36 158.01 122.39 158.14 C 123.42 158.28 124.36 157.55 124.50 156.52 L 124.64 155.41 C 124.77 154.39 124.05 153.44 123.02 153.31 C 121.99 153.17 121.05 153.90 120.91 154.93 Z M 120.76 156.09 L 120.66 157.12 C 120.55 158.15 121.30 159.08 122.34 159.18 C 123.37 159.29 124.29 158.54 124.40 157.50 L 124.50 156.47 C 124.61 155.44 123.86 154.51 122.82 154.41 C 121.79 154.30 120.87 155.05 120.76 156.09 Z M 120.65 157.17 L 120.58 158.14 C 120.50 159.18 121.28 160.08 122.31 160.16 C 123.35 160.24 124.25 159.46 124.33 158.43 L 124.40 157.45 C 124.48 156.42 123.70 155.52 122.67 155.44 C 121.63 155.36 120.73 156.14 120.65 157.17 Z M 120.58 158.19 L 120.53 159.11 C 120.47 160.15 121.27 161.03 122.31 161.09 C 123.34 161.14 124.23 160.35 124.28 159.31 L 124.33 158.38 C 124.38 157.35 123.59 156.46 122.55 156.41 C 121.51 156.36 120.63 157.15 120.58 158.19 Z M 120.53 159.15 L 120.50 160.04 C 120.46 161.07 121.27 161.94 122.31 161.98 C 123.35 162.01 124.22 161.20 124.25 160.16 L 124.28 159.28 C 124.32 158.24 123.51 157.37 122.47 157.33 C 121.43 157.30 120.56 158.11 120.53 159.15 Z M 120.50 160.06 L 120.48 160.93 C 120.45 161.97 121.28 162.83 122.31 162.85 C 123.35 162.88 124.21 162.05 124.23 161.02 L 124.25 160.14 C 124.28 159.10 123.45 158.24 122.42 158.22 C 121.38 158.20 120.52 159.02 120.50 160.06 Z M 120.48 160.95 L 120.46 162.00 C 120.45 163.03 121.28 163.89 122.31 163.90 C 123.35 163.92 124.21 163.09 124.22 162.05 L 124.23 161.00 C 124.25 159.96 123.42 159.11 122.38 159.10 C 121.34 159.08 120.49 159.91 120.48 160.95 Z M 120.46 162.02 L 120.46 163.05 C 120.46 164.08 121.30 164.93 122.34 164.93 C 123.38 164.93 124.22 164.08 124.22 163.05 L 124.22 162.02 C 124.22 160.98 123.38 160.14 122.34 160.14 C 121.30 160.14 120.46 160.98 120.46 162.02 Z M 120.46 163.08 L 120.48 164.09 C 120.50 165.12 121.36 165.95 122.40 165.93 C 123.44 165.91 124.26 165.05 124.24 164.01 L 124.22 163.01 C 124.20 161.97 123.34 161.15 122.30 161.17 C 121.26 161.19 120.44 162.05 120.46 163.08 Z M 120.48 164.14 L 120.53 165.12 C 120.58 166.16 121.46 166.96 122.50 166.91 C 123.54 166.86 124.34 165.98 124.29 164.94 L 124.24 163.96 C 124.19 162.92 123.31 162.12 122.27 162.17 C 121.23 162.22 120.43 163.10 120.48 164.14 Z M 120.54 165.19 L 120.62 166.15 C 120.70 167.18 121.61 167.95 122.65 167.86 C 123.68 167.77 124.45 166.86 124.36 165.83 L 124.28 164.87 C 124.19 163.84 123.28 163.07 122.25 163.16 C 121.21 163.24 120.45 164.15 120.54 165.19 Z M 120.63 166.23 L 120.76 167.21 C 120.89 168.24 121.83 168.97 122.86 168.83 C 123.89 168.70 124.62 167.75 124.48 166.72 L 124.35 165.74 C 124.22 164.71 123.27 163.99 122.24 164.13 C 121.22 164.26 120.49 165.21 120.63 166.23 Z M 120.78 167.34 L 120.97 168.32 C 121.18 169.34 122.17 170.00 123.19 169.80 C 124.20 169.59 124.86 168.60 124.66 167.58 L 124.46 166.60 C 124.26 165.58 123.27 164.92 122.25 165.13 C 121.23 165.33 120.57 166.32 120.78 167.34 Z M 121.02 168.50 L 121.31 169.45 C 121.61 170.44 122.66 171.00 123.65 170.70 C 124.64 170.39 125.20 169.34 124.90 168.35 L 124.61 167.41 C 124.31 166.41 123.26 165.85 122.27 166.16 C 121.28 166.46 120.72 167.51 121.02 168.50 Z M 121.39 169.67 L 121.79 170.56 C 122.22 171.51 123.33 171.93 124.28 171.51 C 125.22 171.08 125.65 169.97 125.22 169.02 L 124.82 168.13 C 124.39 167.18 123.28 166.76 122.33 167.19 C 121.39 167.61 120.96 168.72 121.39 169.67 Z M 121.93 170.82 L 122.47 171.65 C 123.04 172.52 124.20 172.77 125.07 172.20 C 125.94 171.63 126.19 170.47 125.62 169.60 L 125.08 168.77 C 124.51 167.90 123.35 167.65 122.48 168.22 C 121.61 168.78 121.36 169.95 121.93 170.82 Z M 122.66 171.89 L 123.31 172.60 C 124.01 173.36 125.19 173.41 125.96 172.71 C 126.73 172.01 126.78 170.82 126.08 170.06 L 125.44 169.36 C 124.73 168.59 123.55 168.54 122.78 169.24 C 122.01 169.94 121.96 171.13 122.66 171.89 Z M 123.50 172.78 L 124.20 173.35 C 125.00 174.01 126.18 173.89 126.84 173.09 C 127.50 172.29 127.38 171.10 126.58 170.45 L 125.88 169.87 C 125.08 169.22 123.90 169.33 123.24 170.14 C 122.58 170.94 122.70 172.12 123.50 172.78 Z M 124.37 173.48 L 125.17 173.99 C 126.05 174.55 127.21 174.30 127.77 173.43 C 128.33 172.55 128.08 171.39 127.20 170.83 L 126.40 170.32 C 125.53 169.76 124.37 170.01 123.81 170.88 C 123.25 171.76 123.50 172.92 124.37 173.48 Z M 125.34 174.09 L 126.23 174.54 C 127.16 175.01 128.29 174.64 128.76 173.71 C 129.22 172.78 128.85 171.65 127.93 171.18 L 127.03 170.73 C 126.11 170.27 124.98 170.64 124.51 171.56 C 124.04 172.49 124.41 173.62 125.34 174.09 Z M 126.39 174.61 L 127.36 174.99 C 128.32 175.37 129.42 174.90 129.80 173.93 C 130.18 172.97 129.70 171.88 128.74 171.50 L 127.77 171.11 C 126.80 170.73 125.71 171.21 125.33 172.17 C 124.95 173.14 125.42 174.23 126.39 174.61 Z M 127.51 175.04 L 128.55 175.35 C 129.54 175.65 130.59 175.09 130.89 174.09 C 131.18 173.10 130.62 172.05 129.62 171.75 L 128.59 171.44 C 127.59 171.15 126.54 171.71 126.25 172.71 C 125.95 173.70 126.52 174.75 127.51 175.04 Z M 128.69 175.39 L 129.75 175.62 C 130.76 175.84 131.76 175.19 131.98 174.17 C 132.20 173.16 131.55 172.16 130.54 171.94 L 129.48 171.72 C 128.46 171.50 127.46 172.14 127.25 173.16 C 127.03 174.17 127.68 175.17 128.69 175.39 Z M 129.88 175.64 L 130.88 175.78 C 131.90 175.93 132.85 175.21 133.00 174.18 C 133.14 173.16 132.43 172.20 131.40 172.06 L 130.40 171.92 C 129.38 171.77 128.43 172.49 128.28 173.52 C 128.14 174.55 128.85 175.50 129.88 175.64 Z M 131.00 175.80 L 132.01 175.87 C 133.05 175.95 133.95 175.17 134.03 174.14 C 134.11 173.10 133.33 172.20 132.29 172.12 L 131.28 172.05 C 130.24 171.97 129.34 172.74 129.26 173.78 C 129.19 174.82 129.96 175.72 131.00 175.80 Z M 132.13 175.88 L 133.15 175.89 C 134.19 175.90 135.04 175.07 135.05 174.03 C 135.06 172.99 134.23 172.14 133.19 172.13 L 132.17 172.12 C 131.14 172.11 130.28 172.94 130.27 173.98 C 130.26 175.02 131.10 175.87 132.13 175.88 Z M 133.28 175.88 L 134.29 175.83 C 135.33 175.77 136.12 174.88 136.06 173.85 C 136.01 172.81 135.12 172.02 134.08 172.08 L 133.07 172.13 C 132.03 172.19 131.24 173.08 131.30 174.11 C 131.35 175.15 132.24 175.94 133.28 175.88 Z M 134.42 175.82 L 135.41 175.69 C 136.44 175.56 137.17 174.62 137.04 173.59 C 136.92 172.56 135.98 171.83 134.95 171.96 L 133.95 172.09 C 132.92 172.22 132.19 173.16 132.32 174.19 C 132.45 175.22 133.39 175.95 134.42 175.82 Z M 135.55 175.67 L 136.51 175.48 C 137.53 175.27 138.18 174.28 137.98 173.26 C 137.77 172.25 136.78 171.59 135.76 171.79 L 134.81 171.99 C 133.79 172.19 133.13 173.18 133.34 174.20 C 133.54 175.22 134.53 175.88 135.55 175.67 Z M 136.66 175.44 L 137.60 175.17 C 138.59 174.88 139.16 173.83 138.87 172.84 C 138.58 171.84 137.54 171.27 136.54 171.56 L 135.61 171.83 C 134.61 172.12 134.04 173.16 134.33 174.16 C 134.62 175.16 135.67 175.73 136.66 175.44 Z M 137.77 175.11 L 138.72 174.73 C 139.68 174.34 140.15 173.25 139.77 172.29 C 139.38 171.32 138.29 170.85 137.32 171.24 L 136.37 171.62 C 135.41 172.00 134.94 173.10 135.32 174.06 C 135.71 175.02 136.80 175.49 137.77 175.11 Z M 138.88 174.65 L 139.77 174.20 C 140.69 173.72 141.05 172.59 140.58 171.67 C 140.10 170.74 138.97 170.38 138.05 170.86 L 137.16 171.31 C 136.24 171.79 135.87 172.92 136.35 173.84 C 136.82 174.77 137.96 175.13 138.88 174.65 Z M 139.91 174.12 L 140.75 173.59 C 141.62 173.03 141.89 171.87 141.33 171.00 C 140.78 170.12 139.62 169.86 138.74 170.41 L 137.90 170.94 C 137.03 171.49 136.76 172.65 137.32 173.53 C 137.87 174.41 139.03 174.67 139.91 174.12 Z M 140.86 173.51 L 141.65 172.92 C 142.49 172.30 142.66 171.12 142.04 170.29 C 141.42 169.46 140.25 169.28 139.41 169.90 L 138.62 170.49 C 137.79 171.11 137.61 172.29 138.23 173.12 C 138.85 173.95 140.03 174.13 140.86 173.51 Z M 141.75 172.85 L 142.50 172.21 C 143.30 171.54 143.40 170.35 142.73 169.56 C 142.06 168.77 140.87 168.67 140.08 169.34 L 139.32 169.98 C 138.53 170.65 138.43 171.83 139.10 172.62 C 139.77 173.42 140.95 173.52 141.75 172.85 Z M 142.57 172.15 L 143.30 171.46 C 144.06 170.76 144.10 169.57 143.39 168.81 C 142.69 168.05 141.50 168.01 140.74 168.72 L 140.01 169.40 C 139.25 170.11 139.21 171.30 139.92 172.06 C 140.63 172.81 141.82 172.85 142.57 172.15 Z M 143.35 171.42 L 144.05 170.71 C 144.78 169.98 144.78 168.79 144.04 168.06 C 143.31 167.32 142.12 167.33 141.38 168.06 L 140.69 168.76 C 139.96 169.50 139.96 170.69 140.70 171.42 C 141.43 172.16 142.62 172.15 143.35 171.42 Z M 144.10 170.67 L 144.77 169.94 C 145.48 169.18 145.44 167.99 144.68 167.28 C 143.92 166.57 142.73 166.62 142.02 167.38 L 141.34 168.11 C 140.63 168.87 140.68 170.06 141.44 170.77 C 142.20 171.47 143.39 171.43 144.10 170.67 Z M 144.81 169.90 L 145.47 169.14 C 146.16 168.36 146.08 167.17 145.29 166.49 C 144.51 165.80 143.32 165.88 142.64 166.67 L 141.98 167.42 C 141.29 168.21 141.37 169.39 142.16 170.08 C 142.94 170.76 144.13 170.68 144.81 169.90 Z M 145.51 169.10 L 146.15 168.32 C 146.81 167.52 146.69 166.33 145.89 165.67 C 145.08 165.01 143.90 165.13 143.24 165.93 L 142.60 166.71 C 141.94 167.51 142.05 168.70 142.86 169.36 C 143.66 170.02 144.85 169.91 145.51 169.10 Z M 146.18 168.28 L 146.80 167.49 C 147.44 166.66 147.28 165.48 146.46 164.84 C 145.64 164.21 144.45 164.36 143.82 165.18 L 143.20 165.98 C 142.56 166.80 142.72 167.98 143.54 168.62 C 144.36 169.26 145.55 169.11 146.18 168.28 Z M 146.83 167.44 L 147.42 166.63 C 148.04 165.79 147.85 164.61 147.01 164.00 C 146.17 163.38 144.99 163.57 144.37 164.41 L 143.78 165.22 C 143.17 166.06 143.35 167.24 144.20 167.86 C 145.04 168.47 146.22 168.29 146.83 167.44 Z M 147.45 166.59 L 148.01 165.78 C 148.60 164.92 148.38 163.74 147.52 163.15 C 146.67 162.56 145.49 162.78 144.90 163.64 L 144.34 164.45 C 143.75 165.31 143.97 166.49 144.83 167.08 C 145.69 167.67 146.86 167.45 147.45 166.59 Z M 148.05 165.73 L 148.57 164.92 C 149.14 164.04 148.88 162.87 148.01 162.30 C 147.13 161.74 145.96 161.99 145.39 162.87 L 144.87 163.69 C 144.30 164.56 144.56 165.73 145.43 166.30 C 146.31 166.86 147.48 166.61 148.05 165.73 Z M 148.61 164.86 L 149.11 164.03 C 149.64 163.13 149.35 161.97 148.45 161.43 C 147.56 160.90 146.40 161.19 145.86 162.08 L 145.36 162.92 C 144.82 163.82 145.11 164.98 146.01 165.52 C 146.91 166.05 148.07 165.76 148.61 164.86 Z M 149.14 163.97 L 149.62 163.11 C 150.12 162.19 149.79 161.04 148.87 160.53 C 147.96 160.03 146.80 160.36 146.30 161.28 L 145.82 162.14 C 145.32 163.06 145.65 164.21 146.57 164.72 C 147.48 165.22 148.64 164.89 149.14 163.97 Z M 149.65 163.05 L 150.10 162.15 C 150.57 161.22 150.20 160.08 149.26 159.61 C 148.32 159.13 147.18 159.51 146.71 160.45 L 146.26 161.34 C 145.79 162.28 146.17 163.42 147.11 163.89 C 148.04 164.36 149.18 163.98 149.65 163.05 Z M 150.14 162.09 L 150.56 161.16 C 151.00 160.20 150.57 159.07 149.62 158.64 C 148.66 158.20 147.54 158.63 147.10 159.58 L 146.68 160.51 C 146.24 161.47 146.67 162.60 147.62 163.03 C 148.58 163.46 149.70 163.04 150.14 162.09 Z M 150.59 161.09 L 150.99 160.11 C 151.39 159.14 150.92 158.03 149.95 157.63 C 148.98 157.23 147.87 157.70 147.47 158.67 L 147.07 159.65 C 146.67 160.62 147.14 161.73 148.11 162.13 C 149.08 162.53 150.20 162.06 150.59 161.09 Z M 151.02 160.05 L 151.34 159.18 C 151.70 158.19 151.20 157.09 150.21 156.73 C 149.22 156.37 148.13 156.88 147.76 157.86 L 147.44 158.74 C 147.08 159.72 147.59 160.82 148.57 161.18 C 149.56 161.54 150.66 161.04 151.02 160.05 Z M 151.36 159.12 L 151.66 158.22 C 151.99 157.22 151.45 156.14 150.45 155.81 C 149.45 155.48 148.37 156.02 148.04 157.02 L 147.74 157.92 C 147.41 158.92 147.95 160.00 148.95 160.33 C 149.95 160.66 151.03 160.12 151.36 159.12 Z M 151.68 158.17 L 151.96 157.24 C 152.26 156.22 151.68 155.16 150.67 154.86 C 149.65 154.56 148.59 155.14 148.29 156.15 L 148.01 157.08 C 147.71 158.09 148.29 159.16 149.31 159.46 C 150.32 159.76 151.38 159.18 151.68 158.17 Z M 151.98 157.18 L 152.23 156.22 C 152.50 155.20 151.88 154.15 150.86 153.88 C 149.84 153.61 148.79 154.22 148.52 155.25 L 148.27 156.21 C 148.00 157.23 148.61 158.28 149.64 158.55 C 150.66 158.82 151.71 158.20 151.98 157.18 Z M 152.25 156.16 L 152.47 155.17 C 152.71 154.14 152.06 153.11 151.03 152.87 C 149.99 152.64 148.96 153.28 148.73 154.32 L 148.50 155.31 C 148.27 156.34 148.91 157.37 149.95 157.61 C 150.98 157.84 152.01 157.20 152.25 156.16 Z M 152.49 155.11 L 152.69 154.10 C 152.89 153.06 152.21 152.04 151.17 151.84 C 150.13 151.64 149.12 152.32 148.91 153.36 L 148.71 154.37 C 148.51 155.42 149.19 156.43 150.23 156.63 C 151.27 156.84 152.29 156.16 152.49 155.11 Z M 152.70 154.04 L 152.87 153.00 C 153.04 151.95 152.33 150.96 151.28 150.78 C 150.23 150.61 149.24 151.33 149.07 152.38 L 148.90 153.42 C 148.73 154.47 149.44 155.46 150.49 155.63 C 151.54 155.80 152.53 155.09 152.70 154.04 Z M 152.89 152.94 L 153.02 151.88 C 153.16 150.82 152.42 149.85 151.36 149.71 C 150.30 149.57 149.33 150.32 149.19 151.38 L 149.05 152.44 C 148.92 153.50 149.66 154.46 150.72 154.60 C 151.78 154.74 152.75 154.00 152.89 152.94 Z M 153.03 151.82 L 153.14 150.77 C 153.24 149.71 152.46 148.76 151.40 148.66 C 150.34 148.55 149.39 149.33 149.28 150.39 L 149.18 151.44 C 149.08 152.50 149.86 153.45 150.92 153.55 C 151.98 153.66 152.93 152.88 153.03 151.82 Z M 153.14 150.70 L 153.21 149.65 C 153.28 148.58 152.47 147.66 151.40 147.60 C 150.33 147.53 149.41 148.34 149.34 149.41 L 149.28 150.46 C 149.21 151.53 150.02 152.45 151.09 152.52 C 152.16 152.58 153.08 151.77 153.14 150.70 Z M 153.22 149.58 L 153.24 148.53 C 153.27 147.46 152.42 146.57 151.35 146.54 C 150.28 146.52 149.39 147.36 149.36 148.43 L 149.34 149.48 C 149.31 150.55 150.16 151.44 151.23 151.47 C 152.30 151.49 153.19 150.65 153.22 149.58 Z M 153.24 148.44 L 153.22 147.41 C 153.20 146.34 152.32 145.49 151.24 145.51 C 150.17 145.53 149.32 146.42 149.34 147.49 L 149.36 148.52 C 149.38 149.59 150.27 150.44 151.34 150.42 C 152.41 150.40 153.27 149.52 153.24 148.44 Z M 153.22 147.31 L 153.15 146.31 C 153.07 145.24 152.14 144.43 151.07 144.51 C 150.00 144.58 149.20 145.51 149.27 146.58 L 149.34 147.59 C 149.42 148.66 150.35 149.47 151.42 149.39 C 152.49 149.31 153.30 148.38 153.22 147.31 Z M 153.14 146.19 L 153.01 145.23 C 152.87 144.16 151.90 143.41 150.83 143.55 C 149.76 143.69 149.01 144.67 149.15 145.74 L 149.28 146.70 C 149.42 147.77 150.40 148.52 151.47 148.38 C 152.53 148.24 153.28 147.26 153.14 146.19 Z M 152.99 145.09 L 152.80 144.18 C 152.59 143.12 151.56 142.44 150.50 142.66 C 149.45 142.88 148.77 143.91 148.99 144.96 L 149.18 145.88 C 149.39 146.93 150.42 147.61 151.48 147.39 C 152.53 147.17 153.21 146.14 152.99 145.09 Z M 152.76 144.01 L 152.51 143.15 C 152.20 142.12 151.11 141.53 150.08 141.84 C 149.05 142.15 148.46 143.24 148.77 144.27 L 149.03 145.13 C 149.34 146.16 150.42 146.75 151.46 146.44 C 152.49 146.13 153.07 145.04 152.76 144.01 Z M 152.43 142.94 L 152.01 141.96 C 151.58 140.97 150.43 140.52 149.44 140.94 C 148.45 141.37 148.00 142.52 148.43 143.51 L 148.85 144.49 C 149.28 145.48 150.42 145.93 151.41 145.50 C 152.40 145.08 152.86 143.93 152.43 142.94 Z M 151.89 141.73 L 151.36 140.86 C 150.80 139.94 149.60 139.64 148.68 140.20 C 147.76 140.76 147.46 141.96 148.02 142.88 L 148.55 143.75 C 149.11 144.67 150.31 144.96 151.23 144.41 C 152.15 143.85 152.44 142.65 151.89 141.73 Z M 151.21 140.65 L 150.60 139.88 C 149.92 139.04 148.70 138.90 147.86 139.58 C 147.01 140.25 146.88 141.48 147.55 142.32 L 148.17 143.09 C 148.84 143.93 150.07 144.07 150.91 143.39 C 151.75 142.72 151.89 141.49 151.21 140.65 Z M 150.44 139.70 L 149.74 139.02 C 148.97 138.27 147.74 138.29 146.98 139.06 C 146.23 139.83 146.24 141.06 147.02 141.82 L 147.71 142.50 C 148.48 143.25 149.72 143.23 150.47 142.46 C 151.23 141.69 151.21 140.46 150.44 139.70 Z M 149.58 138.89 L 148.82 138.28 C 147.97 137.62 146.74 137.76 146.08 138.61 C 145.41 139.46 145.56 140.69 146.41 141.35 L 147.17 141.95 C 148.02 142.62 149.25 142.47 149.91 141.63 C 150.58 140.78 150.43 139.55 149.58 138.89 Z M 148.67 138.18 L 147.85 137.65 C 146.94 137.06 145.74 137.32 145.15 138.22 C 144.56 139.13 144.82 140.34 145.73 140.92 L 146.55 141.46 C 147.46 142.04 148.67 141.78 149.25 140.88 C 149.84 139.97 149.58 138.77 148.67 138.18 Z M 147.72 137.57 L 146.86 137.10 C 145.91 136.58 144.73 136.93 144.21 137.88 C 143.69 138.82 144.04 140.01 144.99 140.52 L 145.85 141.00 C 146.80 141.51 147.98 141.16 148.50 140.22 C 149.02 139.27 148.67 138.09 147.72 137.57 Z M 146.75 137.04 L 145.85 136.63 C 144.87 136.17 143.71 136.59 143.26 137.57 C 142.80 138.55 143.22 139.70 144.20 140.16 L 145.10 140.58 C 146.08 141.03 147.24 140.61 147.69 139.63 C 148.15 138.66 147.72 137.50 146.75 137.04 Z M 145.74 136.58 L 144.81 136.21 C 143.81 135.81 142.68 136.30 142.28 137.30 C 141.89 138.30 142.37 139.43 143.37 139.83 L 144.30 140.20 C 145.30 140.60 146.44 140.11 146.83 139.11 C 147.23 138.11 146.74 136.98 145.74 136.58 Z M 144.72 136.18 L 143.77 135.86 C 142.75 135.51 141.64 136.05 141.30 137.07 C 140.95 138.09 141.50 139.20 142.52 139.54 L 143.47 139.87 C 144.49 140.21 145.59 139.67 145.94 138.65 C 146.28 137.63 145.74 136.53 144.72 136.18 Z M 143.68 135.83 L 142.71 135.55 C 141.68 135.25 140.60 135.85 140.31 136.88 C 140.01 137.91 140.60 138.99 141.63 139.29 L 142.60 139.57 C 143.63 139.86 144.71 139.27 145.01 138.24 C 145.31 137.21 144.71 136.13 143.68 135.83 Z M 142.63 135.53 L 141.66 135.29 C 140.62 135.04 139.56 135.68 139.31 136.72 C 139.06 137.76 139.70 138.81 140.74 139.07 L 141.71 139.31 C 142.76 139.56 143.81 138.92 144.06 137.88 C 144.32 136.84 143.68 135.79 142.63 135.53 Z M 141.58 135.28 L 140.60 135.08 C 139.55 134.87 138.52 135.54 138.31 136.59 C 138.10 137.64 138.77 138.67 139.82 138.88 L 140.81 139.08 C 141.86 139.30 142.89 138.62 143.10 137.57 C 143.31 136.52 142.63 135.49 141.58 135.28 Z M 140.53 135.08 L 139.50 134.91 C 138.45 134.73 137.46 135.44 137.28 136.49 C 137.11 137.55 137.82 138.54 138.87 138.71 L 139.89 138.88 C 140.95 139.06 141.94 138.35 142.11 137.30 C 142.29 136.24 141.58 135.25 140.53 135.08 Z M 139.44 134.91 L 138.42 134.77 C 137.37 134.64 136.41 135.37 136.27 136.42 C 136.13 137.47 136.87 138.44 137.92 138.58 L 138.93 138.71 C 139.98 138.85 140.95 138.11 141.09 137.06 C 141.22 136.01 140.49 135.05 139.44 134.91 Z M 138.37 134.78 L 137.36 134.68 C 136.32 134.57 135.38 135.33 135.27 136.37 C 135.17 137.42 135.92 138.36 136.97 138.46 L 137.97 138.57 C 139.02 138.68 139.95 137.92 140.06 136.87 C 140.17 135.83 139.41 134.89 138.37 134.78 Z M 137.32 134.69 L 136.33 134.61 C 135.29 134.53 134.38 135.30 134.30 136.34 C 134.21 137.38 134.99 138.29 136.03 138.38 L 137.02 138.45 C 138.06 138.54 138.97 137.76 139.05 136.72 C 139.13 135.68 138.36 134.77 137.32 134.69 Z M 136.29 134.62 L 135.32 134.56 C 134.29 134.50 133.40 135.29 133.34 136.32 C 133.28 137.36 134.07 138.25 135.10 138.31 L 136.07 138.37 C 137.10 138.43 137.99 137.64 138.05 136.60 C 138.11 135.57 137.32 134.68 136.29 134.62 Z M 135.29 134.58 L 134.33 134.53 C 133.30 134.49 132.43 135.29 132.39 136.31 C 132.34 137.34 133.14 138.21 134.17 138.25 L 135.13 138.29 C 136.16 138.34 137.02 137.54 137.07 136.52 C 137.11 135.49 136.32 134.62 135.29 134.58 Z M 134.31 134.56 L 133.27 134.53 C 132.26 134.50 131.41 135.29 131.38 136.31 C 131.35 137.32 132.14 138.16 133.16 138.20 L 134.19 138.23 C 135.21 138.26 136.05 137.46 136.08 136.45 C 136.11 135.44 135.32 134.59 134.31 134.56 Z M 133.25 134.56 L 132.23 134.54 C 131.24 134.52 130.42 135.31 130.40 136.31 C 130.38 137.30 131.17 138.12 132.16 138.14 L 133.18 138.16 C 134.17 138.18 134.99 137.39 135.01 136.40 C 135.03 135.40 134.24 134.58 133.25 134.56 Z M 132.22 134.58 L 131.22 134.57 C 130.25 134.56 129.45 135.34 129.44 136.31 C 129.43 137.28 130.21 138.08 131.18 138.09 L 132.18 138.10 C 133.15 138.11 133.95 137.33 133.96 136.36 C 133.97 135.39 133.19 134.59 132.22 134.58 Z M 131.21 134.60 L 130.23 134.60 C 129.28 134.59 128.50 135.36 128.50 136.32 C 128.49 137.27 129.26 138.05 130.21 138.05 L 131.20 138.06 C 132.15 138.06 132.93 137.29 132.93 136.34 C 132.94 135.39 132.17 134.61 131.21 134.60 Z M 130.22 134.64 L 129.25 134.63 C 128.32 134.63 127.56 135.39 127.56 136.32 C 127.56 137.26 128.31 138.01 129.25 138.02 L 130.22 138.02 C 131.15 138.02 131.91 137.26 131.91 136.33 C 131.91 135.39 131.16 134.64 130.22 134.64 Z M 129.25 134.66 L 128.93 134.66 C 128.01 134.66 127.27 135.40 127.27 136.32 C 127.27 137.25 128.01 137.99 128.93 137.99 L 129.25 137.99 C 130.17 137.99 130.91 137.25 130.91 136.32 C 130.91 135.40 130.17 134.66 129.25 134.66 Z"
      fill="black"
      fill-rule="nonzero" /></svg>