<svg xmlns="http://www.w3.org/2000/svg" width="300" height="300" viewBox="0 0 300 300">
<path d="M 150.20 128.81 L 149.25 128.11 C 148.51 127.57 147.47 127.73 146.93 128.47 C 146.39 129.21 146.54 130.25 147.28 130.79 L 148.23 131.49 C 148.97 132.03 150.01 131.88 150.56 131.14 C 151.10 130.40 150.94 129.36 150.20 128.81 Z M 149.24 128.09 L 148.30 127.42 C 147.54 126.89 146.50 127.07 145.97 127.82 C 145.43 128.58 145.61 129.62 146.37 130.16 L 147.30 130.82 C 148.06 131.35 149.10 131.17 149.64 130.42 C 150.17 129.66 149.99 128.62 149.24 128.09 Z M 148.25 127.38 L 147.34 126.79 C 146.56 126.28 145.51 126.51 145.01 127.29 C 144.50 128.07 144.73 129.11 145.51 129.62 L 146.42 130.20 C 147.20 130.71 148.24 130.49 148.75 129.70 C 149.25 128.92 149.03 127.88 148.25 127.38 Z M 147.24 126.72 L 146.37 126.24 C 145.55 125.79 144.52 126.09 144.07 126.91 C 143.62 127.73 143.92 128.76 144.74 129.21 L 145.61 129.69 C 146.43 130.14 147.46 129.84 147.91 129.02 C 148.36 128.20 148.06 127.17 147.24 126.72 Z M 146.19 126.14 L 145.38 125.81 C 144.51 125.46 143.51 125.88 143.16 126.76 C 142.80 127.63 143.23 128.62 144.10 128.98 L 144.91 129.31 C 145.79 129.66 146.78 129.24 147.14 128.36 C 147.49 127.49 147.07 126.50 146.19 126.14 Z M 145.07 125.71 L 144.32 125.56 C 143.39 125.38 142.49 125.99 142.31 126.92 C 142.13 127.86 142.74 128.76 143.67 128.94 L 144.41 129.08 C 145.35 129.26 146.25 128.65 146.43 127.72 C 146.61 126.79 146.00 125.89 145.07 125.71 Z M 143.74 125.54 L 142.93 125.66 C 141.98 125.80 141.33 126.68 141.47 127.63 C 141.61 128.57 142.49 129.22 143.44 129.08 L 144.25 128.96 C 145.19 128.82 145.85 127.94 145.71 127.00 C 145.57 126.05 144.68 125.40 143.74 125.54 Z M 142.25 125.89 L 141.52 126.35 C 140.71 126.87 140.46 127.95 140.98 128.76 C 141.49 129.58 142.57 129.82 143.38 129.31 L 144.11 128.85 C 144.93 128.33 145.18 127.26 144.66 126.44 C 144.15 125.62 143.07 125.38 142.25 125.89 Z M 141.10 126.71 L 140.49 127.44 C 139.87 128.19 139.97 129.30 140.72 129.92 C 141.47 130.54 142.58 130.44 143.20 129.69 L 143.81 128.96 C 144.43 128.21 144.33 127.10 143.58 126.48 C 142.83 125.85 141.72 125.96 141.10 126.71 Z M 140.28 127.73 L 139.77 128.67 C 139.31 129.54 139.64 130.61 140.50 131.08 C 141.37 131.54 142.44 131.21 142.91 130.35 L 143.41 129.41 C 143.87 128.54 143.55 127.46 142.68 127.00 C 141.82 126.54 140.74 126.86 140.28 127.73 Z M 139.67 128.87 L 139.25 129.95 C 138.90 130.88 139.36 131.91 140.29 132.26 C 141.21 132.62 142.25 132.15 142.60 131.23 L 143.01 130.15 C 143.37 129.22 142.90 128.19 141.98 127.84 C 141.05 127.48 140.02 127.95 139.67 128.87 Z M 139.20 130.08 L 138.92 131.03 C 138.64 131.99 139.18 132.99 140.14 133.27 C 141.09 133.55 142.09 133.01 142.37 132.05 L 142.65 131.10 C 142.94 130.15 142.39 129.15 141.44 128.86 C 140.48 128.58 139.48 129.13 139.20 130.08 Z M 138.89 131.13 L 138.66 132.10 C 138.43 133.07 139.03 134.05 140.00 134.28 C 140.97 134.51 141.94 133.90 142.17 132.93 L 142.40 131.96 C 142.63 130.99 142.03 130.02 141.06 129.79 C 140.09 129.56 139.12 130.16 138.89 131.13 Z M 138.64 132.18 L 138.45 133.18 C 138.26 134.16 138.91 135.11 139.89 135.29 C 140.87 135.48 141.82 134.83 142.00 133.85 L 142.19 132.85 C 142.38 131.87 141.73 130.93 140.75 130.74 C 139.77 130.56 138.82 131.20 138.64 132.18 Z M 138.43 133.25 L 138.28 134.25 C 138.14 135.24 138.82 136.16 139.81 136.31 C 140.80 136.46 141.72 135.77 141.87 134.78 L 142.02 133.78 C 142.17 132.79 141.48 131.87 140.49 131.72 C 139.50 131.58 138.58 132.26 138.43 133.25 Z M 138.27 134.31 L 138.16 135.30 C 138.04 136.30 138.76 137.20 139.75 137.31 C 140.75 137.43 141.65 136.72 141.76 135.72 L 141.88 134.73 C 142.00 133.73 141.28 132.83 140.29 132.71 C 139.29 132.60 138.39 133.31 138.27 134.31 Z M 138.15 135.35 L 138.06 136.34 C 137.97 137.34 138.71 138.22 139.72 138.31 C 140.72 138.40 141.60 137.66 141.69 136.66 L 141.77 135.67 C 141.86 134.67 141.12 133.79 140.12 133.70 C 139.12 133.61 138.24 134.35 138.15 135.35 Z M 138.06 136.38 L 137.99 137.43 C 137.93 138.43 138.69 139.30 139.70 139.36 C 140.70 139.42 141.56 138.66 141.63 137.66 L 141.69 136.61 C 141.75 135.61 140.99 134.74 139.99 134.68 C 138.98 134.62 138.12 135.38 138.06 136.38 Z M 137.99 137.47 L 137.95 138.49 C 137.91 139.49 138.69 140.34 139.70 140.38 C 140.70 140.42 141.55 139.64 141.59 138.63 L 141.63 137.62 C 141.67 136.61 140.89 135.76 139.88 135.72 C 138.88 135.68 138.03 136.47 137.99 137.47 Z M 137.95 138.52 L 137.93 139.51 C 137.90 140.52 138.70 141.35 139.71 141.37 C 140.71 141.39 141.55 140.59 141.57 139.59 L 141.59 138.60 C 141.61 137.59 140.81 136.76 139.81 136.74 C 138.80 136.72 137.97 137.51 137.95 138.52 Z M 137.93 139.53 L 137.92 140.51 C 137.91 141.51 138.72 142.34 139.72 142.35 C 140.73 142.35 141.55 141.55 141.56 140.54 L 141.57 139.56 C 141.58 138.56 140.77 137.74 139.76 137.73 C 138.76 137.72 137.93 138.53 137.93 139.53 Z M 137.92 140.52 L 137.92 141.49 C 137.91 142.49 138.73 143.31 139.74 143.31 C 140.74 143.31 141.56 142.50 141.56 141.49 L 141.56 140.53 C 141.56 139.52 140.75 138.70 139.74 138.70 C 138.74 138.70 137.92 139.51 137.92 140.52 Z M 137.92 141.49 L 137.92 142.49 C 137.92 143.49 138.73 144.31 139.74 144.31 C 140.75 144.31 141.56 143.49 141.56 142.48 L 141.56 141.49 C 141.56 140.48 140.74 139.67 139.74 139.67 C 138.73 139.67 137.91 140.49 137.92 141.49 Z M 137.92 142.50 L 137.93 143.50 C 137.93 144.50 138.76 145.31 139.76 145.31 C 140.77 145.30 141.58 144.47 141.57 143.47 L 141.56 142.47 C 141.55 141.46 140.73 140.65 139.72 140.66 C 138.72 140.67 137.91 141.49 137.92 142.50 Z M 137.93 143.53 L 137.95 144.53 C 137.97 145.53 138.81 146.33 139.81 146.30 C 140.82 146.28 141.62 145.44 141.59 144.44 L 141.57 143.44 C 141.54 142.43 140.71 141.64 139.70 141.66 C 138.70 141.69 137.90 142.52 137.93 143.53 Z M 137.95 144.57 L 138.00 145.57 C 138.05 146.57 138.90 147.35 139.91 147.30 C 140.91 147.25 141.69 146.40 141.64 145.39 L 141.59 144.39 C 141.54 143.39 140.69 142.61 139.68 142.66 C 138.68 142.71 137.90 143.57 137.95 144.57 Z M 138.00 145.63 L 138.09 146.63 C 138.17 147.63 139.04 148.37 140.05 148.29 C 141.05 148.21 141.79 147.33 141.71 146.33 L 141.63 145.33 C 141.55 144.33 140.67 143.59 139.67 143.67 C 138.67 143.75 137.92 144.63 138.00 145.63 Z M 138.09 146.70 L 138.21 147.64 C 138.33 148.64 139.23 149.35 140.23 149.23 C 141.23 149.11 141.94 148.20 141.82 147.20 L 141.71 146.26 C 141.59 145.26 140.68 144.55 139.68 144.67 C 138.68 144.79 137.97 145.70 138.09 146.70 Z M 138.22 147.72 L 138.38 148.65 C 138.54 149.64 139.48 150.31 140.47 150.15 C 141.46 149.98 142.13 149.05 141.96 148.06 L 141.81 147.12 C 141.64 146.13 140.71 145.46 139.72 145.63 C 138.73 145.79 138.06 146.73 138.22 147.72 Z M 138.40 148.74 L 138.60 149.69 C 138.82 150.67 139.78 151.29 140.76 151.08 C 141.74 150.86 142.36 149.90 142.15 148.92 L 141.94 147.97 C 141.73 146.99 140.76 146.37 139.78 146.58 C 138.80 146.80 138.18 147.76 138.40 148.74 Z M 138.63 149.78 L 138.89 150.75 C 139.16 151.72 140.15 152.29 141.12 152.02 C 142.09 151.76 142.65 150.76 142.39 149.80 L 142.12 148.82 C 141.86 147.86 140.86 147.29 139.90 147.56 C 138.93 147.82 138.36 148.82 138.63 149.78 Z M 138.92 150.85 L 139.26 151.85 C 139.57 152.80 140.60 153.31 141.55 152.99 C 142.49 152.68 143.01 151.65 142.69 150.70 L 142.36 149.70 C 142.04 148.75 141.02 148.24 140.07 148.56 C 139.12 148.87 138.61 149.90 138.92 150.85 Z M 139.29 151.93 L 139.67 152.91 C 140.04 153.84 141.08 154.29 142.01 153.93 C 142.94 153.57 143.40 152.52 143.04 151.59 L 142.66 150.62 C 142.29 149.69 141.25 149.23 140.32 149.59 C 139.39 149.96 138.93 151.00 139.29 151.93 Z M 139.71 152.98 L 140.09 153.84 C 140.49 154.75 141.56 155.16 142.47 154.75 C 143.38 154.35 143.79 153.28 143.39 152.37 L 143.00 151.51 C 142.60 150.60 141.53 150.19 140.62 150.60 C 139.71 151.00 139.30 152.07 139.71 152.98 Z M 140.12 153.91 L 140.56 154.78 C 141.00 155.67 142.09 156.03 142.98 155.59 C 143.87 155.14 144.23 154.06 143.78 153.17 L 143.35 152.30 C 142.90 151.41 141.82 151.05 140.93 151.49 C 140.04 151.94 139.68 153.02 140.12 153.91 Z M 140.60 154.86 L 141.09 155.73 C 141.58 156.59 142.68 156.90 143.54 156.41 C 144.41 155.93 144.72 154.83 144.23 153.96 L 143.74 153.09 C 143.25 152.22 142.15 151.92 141.29 152.40 C 140.42 152.89 140.11 153.99 140.60 154.86 Z M 141.14 155.81 L 141.69 156.67 C 142.22 157.51 143.33 157.75 144.17 157.22 C 145.01 156.69 145.26 155.58 144.73 154.74 L 144.18 153.88 C 143.65 153.04 142.53 152.79 141.70 153.32 C 140.86 153.86 140.61 154.97 141.14 155.81 Z M 141.75 156.75 L 142.35 157.59 C 142.93 158.40 144.06 158.58 144.86 158.00 C 145.67 157.42 145.85 156.29 145.27 155.49 L 144.66 154.65 C 144.08 153.85 142.96 153.66 142.16 154.25 C 141.35 154.83 141.17 155.95 141.75 156.75 Z M 142.43 157.68 L 143.09 158.49 C 143.72 159.25 144.85 159.36 145.62 158.73 C 146.38 158.10 146.49 156.97 145.86 156.20 L 145.20 155.40 C 144.56 154.63 143.43 154.52 142.67 155.16 C 141.90 155.79 141.79 156.92 142.43 157.68 Z M 143.18 158.58 L 143.90 159.34 C 144.58 160.05 145.72 160.08 146.43 159.40 C 147.15 158.71 147.18 157.58 146.49 156.86 L 145.77 156.11 C 145.09 155.39 143.95 155.36 143.24 156.05 C 142.52 156.73 142.49 157.87 143.18 158.58 Z M 143.99 159.43 L 144.77 160.13 C 145.50 160.79 146.63 160.73 147.30 160.00 C 147.96 159.27 147.90 158.14 147.17 157.47 L 146.40 156.77 C 145.66 156.11 144.53 156.17 143.87 156.90 C 143.21 157.63 143.26 158.76 143.99 159.43 Z M 144.87 160.21 L 145.68 160.85 C 146.46 161.46 147.58 161.32 148.19 160.55 C 148.80 159.77 148.66 158.65 147.89 158.04 L 147.07 157.40 C 146.30 156.79 145.17 156.92 144.57 157.70 C 143.96 158.47 144.09 159.60 144.87 160.21 Z M 145.78 160.91 L 146.63 161.49 C 147.44 162.05 148.55 161.83 149.11 161.02 C 149.66 160.21 149.45 159.10 148.64 158.55 L 147.79 157.97 C 146.97 157.42 145.87 157.63 145.31 158.44 C 144.76 159.25 144.97 160.36 145.78 160.91 Z M 146.74 161.55 L 147.60 162.06 C 148.45 162.56 149.54 162.27 150.03 161.42 C 150.53 160.58 150.24 159.49 149.40 158.99 L 148.53 158.49 C 147.68 157.99 146.60 158.27 146.10 159.12 C 145.60 159.97 145.89 161.06 146.74 161.55 Z M 147.71 162.12 L 148.58 162.55 C 149.46 162.98 150.53 162.62 150.96 161.74 C 151.39 160.86 151.03 159.80 150.16 159.37 L 149.28 158.94 C 148.41 158.50 147.34 158.86 146.91 159.74 C 146.47 160.62 146.83 161.68 147.71 162.12 Z M 148.71 162.60 L 149.57 162.95 C 150.48 163.31 151.51 162.88 151.87 161.97 C 152.24 161.06 151.80 160.03 150.90 159.67 L 150.03 159.32 C 149.13 158.95 148.10 159.39 147.73 160.29 C 147.36 161.20 147.80 162.23 148.71 162.60 Z M 149.72 163.00 L 150.67 163.29 C 151.60 163.57 152.59 163.05 152.88 162.11 C 153.16 161.18 152.64 160.19 151.70 159.91 L 150.75 159.62 C 149.82 159.33 148.83 159.86 148.55 160.79 C 148.26 161.72 148.79 162.71 149.72 163.00 Z M 150.87 163.33 L 151.86 163.51 C 152.82 163.69 153.74 163.05 153.92 162.09 C 154.09 161.14 153.46 160.22 152.50 160.04 L 151.50 159.86 C 150.54 159.69 149.63 160.32 149.45 161.28 C 149.28 162.24 149.91 163.16 150.87 163.33 Z M 152.12 163.54 L 153.08 163.58 C 154.06 163.61 154.88 162.85 154.91 161.88 C 154.95 160.91 154.19 160.09 153.22 160.05 L 152.25 160.01 C 151.27 159.98 150.45 160.74 150.42 161.71 C 150.38 162.69 151.14 163.50 152.12 163.54 Z M 153.37 163.56 L 154.32 163.45 C 155.29 163.33 155.97 162.45 155.85 161.48 C 155.73 160.51 154.85 159.83 153.88 159.95 L 152.93 160.06 C 151.97 160.18 151.28 161.07 151.40 162.03 C 151.52 163.00 152.40 163.68 153.37 163.56 Z M 154.61 163.38 L 155.55 163.10 C 156.48 162.82 157.01 161.84 156.73 160.91 C 156.45 159.97 155.46 159.44 154.53 159.72 L 153.59 160.01 C 152.66 160.29 152.13 161.27 152.41 162.20 C 152.69 163.14 153.68 163.67 154.61 163.38 Z M 155.82 163.00 L 156.75 162.54 C 157.62 162.11 157.98 161.06 157.56 160.18 C 157.13 159.31 156.07 158.95 155.20 159.37 L 154.27 159.83 C 153.39 160.26 153.03 161.31 153.46 162.19 C 153.88 163.06 154.94 163.43 155.82 163.00 Z M 156.95 162.43 L 157.72 161.92 C 158.53 161.38 158.75 160.28 158.21 159.47 C 157.67 158.66 156.57 158.44 155.76 158.98 L 154.99 159.49 C 154.18 160.03 153.96 161.12 154.50 161.94 C 155.04 162.75 156.14 162.97 156.95 162.43 Z M 157.85 161.82 L 158.59 161.22 C 159.35 160.60 159.47 159.49 158.85 158.73 C 158.24 157.97 157.12 157.86 156.37 158.47 L 155.62 159.08 C 154.87 159.69 154.75 160.80 155.37 161.56 C 155.98 162.32 157.09 162.43 157.85 161.82 Z M 158.70 161.13 L 159.42 160.44 C 160.13 159.77 160.16 158.65 159.49 157.94 C 158.82 157.23 157.70 157.20 156.99 157.87 L 156.26 158.56 C 155.55 159.23 155.52 160.35 156.19 161.06 C 156.87 161.77 157.99 161.80 158.70 161.13 Z M 159.50 160.37 L 160.20 159.62 C 160.87 158.90 160.83 157.78 160.12 157.11 C 159.40 156.44 158.28 156.48 157.62 157.20 L 156.91 157.95 C 156.24 158.66 156.28 159.78 157.00 160.45 C 157.71 161.12 158.83 161.08 159.50 160.37 Z M 160.27 159.55 L 160.94 158.75 C 161.57 158.00 161.47 156.88 160.72 156.25 C 159.97 155.62 158.85 155.72 158.22 156.47 L 157.55 157.26 C 156.92 158.01 157.02 159.13 157.77 159.76 C 158.52 160.39 159.64 160.30 160.27 159.55 Z M 160.99 158.69 L 161.62 157.86 C 162.22 157.08 162.07 155.97 161.29 155.37 C 160.51 154.78 159.39 154.92 158.80 155.70 L 158.17 156.53 C 157.57 157.31 157.72 158.42 158.50 159.02 C 159.28 159.62 160.40 159.47 160.99 158.69 Z M 161.67 157.80 L 162.25 156.97 C 162.81 156.16 162.62 155.06 161.81 154.49 C 161.01 153.93 159.90 154.13 159.33 154.93 L 158.75 155.76 C 158.19 156.57 158.39 157.68 159.19 158.24 C 160.00 158.81 161.11 158.61 161.67 157.80 Z M 162.30 156.91 L 162.87 156.01 C 163.40 155.18 163.15 154.08 162.32 153.55 C 161.49 153.02 160.39 153.26 159.86 154.09 L 159.29 154.99 C 158.76 155.82 159.00 156.93 159.84 157.45 C 160.67 157.98 161.77 157.74 162.30 156.91 Z M 162.91 155.94 L 163.43 155.04 C 163.92 154.19 163.63 153.10 162.77 152.60 C 161.92 152.11 160.82 152.41 160.33 153.26 L 159.82 154.16 C 159.32 155.02 159.62 156.11 160.47 156.60 C 161.33 157.09 162.42 156.80 162.91 155.94 Z M 163.47 154.97 L 163.93 154.08 C 164.39 153.20 164.04 152.12 163.16 151.67 C 162.28 151.22 161.20 151.56 160.75 152.44 L 160.29 153.33 C 159.84 154.21 160.18 155.29 161.06 155.75 C 161.94 156.20 163.02 155.85 163.47 154.97 Z M 163.97 154.01 L 164.38 153.12 C 164.80 152.22 164.41 151.16 163.51 150.74 C 162.61 150.33 161.54 150.72 161.12 151.62 L 160.71 152.51 C 160.30 153.41 160.69 154.48 161.59 154.89 C 162.49 155.31 163.55 154.91 163.97 154.01 Z M 164.41 153.06 L 164.79 152.17 C 165.17 151.25 164.73 150.20 163.81 149.82 C 162.89 149.44 161.84 149.87 161.46 150.79 L 161.09 151.68 C 160.71 152.60 161.15 153.65 162.06 154.03 C 162.98 154.41 164.03 153.98 164.41 153.06 Z M 164.81 152.11 L 165.15 151.21 C 165.50 150.27 165.02 149.24 164.09 148.89 C 163.16 148.54 162.12 149.01 161.77 149.94 L 161.43 150.85 C 161.08 151.78 161.56 152.82 162.49 153.17 C 163.42 153.52 164.46 153.04 164.81 152.11 Z M 165.17 151.16 L 165.49 150.23 C 165.81 149.29 165.30 148.26 164.36 147.94 C 163.41 147.62 162.38 148.12 162.06 149.07 L 161.75 149.99 C 161.43 150.94 161.93 151.97 162.88 152.29 C 163.82 152.61 164.85 152.10 165.17 151.16 Z M 165.51 150.19 L 165.80 149.24 C 166.10 148.28 165.56 147.27 164.61 146.97 C 163.65 146.67 162.63 147.21 162.34 148.16 L 162.04 149.11 C 161.75 150.07 162.28 151.09 163.24 151.38 C 164.19 151.68 165.21 151.14 165.51 150.19 Z M 165.82 149.19 L 166.09 148.23 C 166.36 147.27 165.80 146.26 164.83 145.99 C 163.87 145.72 162.86 146.28 162.59 147.25 L 162.32 148.21 C 162.05 149.18 162.61 150.18 163.58 150.45 C 164.54 150.72 165.55 150.16 165.82 149.19 Z M 166.11 148.19 L 166.35 147.21 C 166.60 146.24 166.01 145.25 165.03 145.00 C 164.06 144.75 163.07 145.34 162.82 146.32 L 162.57 147.29 C 162.33 148.27 162.92 149.26 163.89 149.51 C 164.87 149.75 165.86 149.16 166.11 148.19 Z M 166.37 147.17 L 166.59 146.19 C 166.81 145.20 166.19 144.23 165.21 144.00 C 164.22 143.78 163.24 144.40 163.02 145.39 L 162.80 146.37 C 162.58 147.35 163.20 148.33 164.19 148.55 C 165.17 148.77 166.15 148.15 166.37 147.17 Z M 166.60 146.14 L 166.80 145.16 C 166.99 144.16 166.35 143.20 165.35 143.00 C 164.36 142.81 163.40 143.46 163.20 144.45 L 163.01 145.43 C 162.81 146.43 163.46 147.39 164.45 147.59 C 165.45 147.78 166.41 147.13 166.60 146.14 Z M 166.81 145.11 L 166.98 144.13 C 167.15 143.12 166.47 142.18 165.47 142.01 C 164.47 141.84 163.52 142.51 163.35 143.51 L 163.19 144.50 C 163.02 145.50 163.69 146.45 164.69 146.62 C 165.70 146.78 166.64 146.11 166.81 145.11 Z M 166.99 144.08 L 167.13 143.11 C 167.27 142.10 166.57 141.17 165.56 141.03 C 164.55 140.88 163.62 141.59 163.48 142.59 L 163.34 143.56 C 163.20 144.57 163.90 145.50 164.91 145.65 C 165.92 145.79 166.85 145.09 166.99 144.08 Z M 167.14 143.06 L 167.25 142.09 C 167.37 141.08 166.64 140.16 165.63 140.04 C 164.61 139.93 163.70 140.65 163.58 141.67 L 163.47 142.64 C 163.35 143.65 164.08 144.57 165.09 144.69 C 166.10 144.81 167.02 144.08 167.14 143.06 Z M 167.26 142.05 L 167.35 141.07 C 167.45 140.05 166.70 139.14 165.68 139.05 C 164.66 138.96 163.75 139.71 163.66 140.72 L 163.57 141.71 C 163.47 142.73 164.22 143.63 165.24 143.73 C 166.26 143.82 167.17 143.07 167.26 142.05 Z M 167.36 141.03 L 167.43 140.03 C 167.51 139.01 166.74 138.12 165.71 138.05 C 164.69 137.97 163.80 138.74 163.72 139.77 L 163.65 140.76 C 163.58 141.79 164.35 142.68 165.37 142.75 C 166.40 142.83 167.29 142.06 167.36 141.03 Z M 167.44 140.00 L 167.50 138.99 C 167.55 137.96 166.77 137.08 165.74 137.02 C 164.71 136.97 163.83 137.75 163.77 138.78 L 163.72 139.80 C 163.66 140.83 164.45 141.70 165.48 141.76 C 166.50 141.82 167.38 141.03 167.44 140.00 Z M 167.50 138.96 L 167.54 137.93 C 167.59 136.89 166.78 136.02 165.75 135.98 C 164.72 135.94 163.85 136.74 163.81 137.77 L 163.77 138.81 C 163.72 139.84 164.53 140.71 165.56 140.75 C 166.59 140.80 167.46 139.99 167.50 138.96 Z M 167.55 137.90 L 167.58 136.91 C 167.61 135.87 166.79 135.01 165.76 134.98 C 164.72 134.95 163.86 135.77 163.83 136.80 L 163.80 137.80 C 163.77 138.83 164.59 139.69 165.62 139.72 C 166.66 139.75 167.52 138.94 167.55 137.90 Z M 167.59 136.88 L 167.60 135.88 C 167.61 134.84 166.78 133.99 165.74 133.98 C 164.70 133.97 163.85 134.80 163.83 135.84 L 163.82 136.84 C 163.81 137.87 164.64 138.73 165.68 138.74 C 166.72 138.75 167.57 137.92 167.59 136.88 Z M 167.60 135.83 L 167.59 134.83 C 167.57 133.79 166.72 132.95 165.68 132.97 C 164.63 132.98 163.80 133.84 163.81 134.88 L 163.83 135.89 C 163.84 136.93 164.70 137.76 165.74 137.75 C 166.78 137.73 167.62 136.88 167.60 135.83 Z M 167.59 134.76 L 167.55 133.76 C 167.50 132.71 166.61 131.90 165.56 131.95 C 164.52 132.00 163.71 132.89 163.76 133.94 L 163.81 134.94 C 163.86 135.99 164.75 136.79 165.79 136.75 C 166.84 136.70 167.64 135.81 167.59 134.76 Z M 167.55 133.68 L 167.46 132.67 C 167.36 131.63 166.44 130.86 165.39 130.95 C 164.35 131.04 163.58 131.97 163.67 133.01 L 163.76 134.02 C 163.86 135.06 164.78 135.83 165.82 135.74 C 166.87 135.64 167.64 134.72 167.55 133.68 Z M 167.45 132.57 L 167.31 131.58 C 167.16 130.54 166.19 129.82 165.15 129.97 C 164.11 130.11 163.39 131.08 163.54 132.12 L 163.68 133.11 C 163.83 134.15 164.79 134.88 165.83 134.73 C 166.87 134.58 167.60 133.61 167.45 132.57 Z M 167.29 131.46 L 167.09 130.49 C 166.88 129.46 165.87 128.80 164.83 129.01 C 163.80 129.22 163.14 130.24 163.35 131.27 L 163.55 132.24 C 163.77 133.27 164.78 133.94 165.81 133.72 C 166.84 133.51 167.51 132.50 167.29 131.46 Z M 167.06 130.35 L 166.78 129.37 C 166.49 128.35 165.43 127.76 164.41 128.05 C 163.40 128.35 162.81 129.41 163.10 130.42 L 163.38 131.41 C 163.67 132.42 164.73 133.01 165.75 132.72 C 166.76 132.43 167.35 131.37 167.06 130.35 Z M 166.74 129.23 L 166.39 128.28 C 166.02 127.28 164.91 126.77 163.92 127.14 C 162.92 127.51 162.42 128.62 162.79 129.61 L 163.14 130.56 C 163.51 131.56 164.61 132.07 165.61 131.70 C 166.60 131.33 167.11 130.22 166.74 129.23 Z M 166.33 128.14 L 165.91 127.23 C 165.47 126.26 164.33 125.84 163.36 126.28 C 162.40 126.72 161.97 127.86 162.42 128.83 L 162.84 129.75 C 163.28 130.71 164.42 131.13 165.39 130.69 C 166.35 130.25 166.78 129.11 166.33 128.14 Z M 165.85 127.10 L 165.37 126.22 C 164.86 125.29 163.68 124.95 162.75 125.47 C 161.82 125.98 161.48 127.15 162.00 128.08 L 162.48 128.96 C 162.99 129.89 164.17 130.23 165.10 129.71 C 166.03 129.20 166.37 128.03 165.85 127.10 Z M 165.30 126.10 L 164.76 125.27 C 164.18 124.38 162.98 124.12 162.09 124.71 C 161.20 125.29 160.94 126.49 161.53 127.38 L 162.07 128.21 C 162.65 129.10 163.84 129.35 164.74 128.77 C 165.63 128.19 165.88 126.99 165.30 126.10 Z M 164.68 125.15 L 164.09 124.37 C 163.44 123.52 162.23 123.36 161.38 124.00 C 160.53 124.65 160.36 125.87 161.01 126.72 L 161.60 127.50 C 162.25 128.35 163.46 128.51 164.31 127.86 C 165.16 127.22 165.33 126.00 164.68 125.15 Z M 164.00 124.26 L 163.35 123.52 C 162.64 122.72 161.42 122.65 160.61 123.35 C 159.81 124.06 159.74 125.29 160.44 126.09 L 161.10 126.83 C 161.81 127.63 163.03 127.70 163.83 127.00 C 164.63 126.29 164.71 125.06 164.00 124.26 Z M 163.25 123.42 L 162.53 122.71 C 161.76 121.96 160.53 121.98 159.79 122.75 C 159.04 123.51 159.05 124.74 159.82 125.49 L 160.54 126.19 C 161.31 126.94 162.54 126.93 163.28 126.16 C 164.03 125.39 164.02 124.17 163.25 123.42 Z M 162.43 122.62 L 161.67 121.97 C 160.85 121.28 159.63 121.38 158.93 122.19 C 158.24 123.01 158.34 124.24 159.15 124.93 L 159.92 125.58 C 160.73 126.27 161.96 126.17 162.65 125.36 C 163.35 124.54 163.25 123.32 162.43 122.62 Z M 161.57 121.90 L 160.77 121.30 C 159.91 120.66 158.70 120.83 158.06 121.69 C 157.41 122.55 157.59 123.76 158.45 124.41 L 159.25 125.01 C 160.11 125.65 161.32 125.47 161.96 124.61 C 162.61 123.76 162.43 122.54 161.57 121.90 Z M 160.69 121.24 L 159.86 120.68 C 158.96 120.09 157.76 120.33 157.16 121.22 C 156.57 122.12 156.81 123.32 157.70 123.92 L 158.53 124.47 C 159.43 125.06 160.63 124.82 161.23 123.93 C 161.82 123.04 161.58 121.83 160.69 121.24 Z M 159.78 120.63 L 158.92 120.12 C 158.00 119.57 156.81 119.87 156.26 120.79 C 155.71 121.71 156.01 122.91 156.93 123.46 L 157.78 123.97 C 158.70 124.52 159.90 124.22 160.45 123.30 C 161.00 122.38 160.70 121.18 159.78 120.63 Z M 158.85 120.08 L 157.98 119.61 C 157.04 119.10 155.86 119.45 155.35 120.39 C 154.84 121.34 155.19 122.51 156.13 123.03 L 157.00 123.50 C 157.94 124.01 159.12 123.66 159.64 122.72 C 160.15 121.77 159.80 120.59 158.85 120.08 Z M 157.92 119.58 L 157.07 119.15 C 156.11 118.68 154.94 119.07 154.46 120.03 C 153.99 120.99 154.38 122.16 155.34 122.64 L 156.19 123.06 C 157.16 123.54 158.32 123.14 158.80 122.18 C 159.28 121.22 158.88 120.05 157.92 119.58 Z M 157.00 119.12 L 156.13 118.73 C 155.15 118.29 154.00 118.73 153.56 119.71 C 153.12 120.69 153.56 121.84 154.54 122.28 L 155.41 122.67 C 156.39 123.11 157.54 122.67 157.98 121.69 C 158.42 120.71 157.98 119.56 157.00 119.12 Z M 156.05 118.70 L 155.15 118.34 C 154.15 117.95 153.02 118.44 152.63 119.44 C 152.23 120.43 152.72 121.56 153.72 121.96 L 154.62 122.31 C 155.62 122.71 156.75 122.22 157.14 121.22 C 157.54 120.22 157.05 119.09 156.05 118.70 Z M 155.06 118.31 L 154.13 117.99 C 153.11 117.64 152.01 118.19 151.66 119.20 C 151.31 120.22 151.85 121.32 152.87 121.67 L 153.81 121.99 C 154.82 122.34 155.93 121.79 156.27 120.78 C 156.62 119.76 156.08 118.66 155.06 118.31 Z M 154.03 117.96 L 153.05 117.68 C 152.02 117.38 150.94 117.98 150.65 119.01 C 150.35 120.04 150.95 121.12 151.98 121.42 L 152.96 121.70 C 153.99 121.99 155.07 121.40 155.36 120.37 C 155.66 119.34 155.07 118.26 154.03 117.96 Z M 152.96 117.66 L 151.92 117.41 C 150.88 117.17 149.83 117.82 149.59 118.86 C 149.34 119.91 149.99 120.95 151.04 121.20 L 152.07 121.44 C 153.12 121.68 154.16 121.04 154.41 119.99 C 154.65 118.95 154.00 117.90 152.96 117.66 Z M 151.83 117.40 L 150.81 117.21 C 149.75 117.01 148.74 117.71 148.54 118.76 C 148.35 119.81 149.04 120.83 150.10 121.02 L 151.12 121.21 C 152.18 121.41 153.19 120.71 153.39 119.66 C 153.58 118.61 152.89 117.59 151.83 117.40 Z M 150.73 117.20 L 149.72 117.05 C 148.66 116.90 147.68 117.64 147.53 118.70 C 147.38 119.76 148.12 120.74 149.18 120.89 L 150.18 121.03 C 151.24 121.18 152.22 120.45 152.37 119.39 C 152.52 118.33 151.79 117.35 150.73 117.20 Z M 149.65 117.05 L 148.62 116.94 C 147.56 116.83 146.61 117.61 146.50 118.67 C 146.39 119.73 147.16 120.68 148.23 120.79 L 149.25 120.90 C 150.32 121.00 151.27 120.23 151.37 119.17 C 151.48 118.11 150.71 117.16 149.65 117.05 Z M 148.54 116.94 L 147.50 116.88 C 146.44 116.81 145.52 117.62 145.46 118.69 C 145.39 119.75 146.21 120.67 147.27 120.73 L 148.31 120.79 C 149.37 120.86 150.28 120.05 150.35 118.98 C 150.41 117.92 149.60 117.00 148.54 116.94 Z M 147.42 116.88 L 146.39 116.86 C 145.32 116.85 144.45 117.69 144.43 118.76 C 144.41 119.82 145.26 120.70 146.33 120.71 L 147.36 120.73 C 148.42 120.75 149.29 119.90 149.31 118.83 C 149.33 117.77 148.48 116.89 147.42 116.88 Z M 146.29 116.87 L 145.29 116.90 C 144.23 116.94 143.40 117.83 143.43 118.89 C 143.47 119.95 144.36 120.78 145.42 120.74 L 146.42 120.71 C 147.48 120.67 148.31 119.78 148.28 118.72 C 148.24 117.66 147.35 116.83 146.29 116.87 Z M 145.18 116.91 L 144.21 117.00 C 143.16 117.10 142.38 118.03 142.48 119.09 C 142.58 120.14 143.51 120.92 144.57 120.82 L 145.53 120.73 C 146.59 120.63 147.36 119.70 147.26 118.64 C 147.16 117.59 146.23 116.81 145.18 116.91 Z M 144.08 117.02 L 143.17 117.18 C 142.12 117.35 141.42 118.33 141.59 119.37 C 141.76 120.42 142.75 121.12 143.79 120.95 L 144.70 120.80 C 145.75 120.63 146.45 119.64 146.28 118.60 C 146.11 117.56 145.12 116.85 144.08 117.02 Z M 142.98 117.24 L 141.89 117.53 C 140.89 117.80 140.29 118.84 140.56 119.85 C 140.83 120.86 141.87 121.46 142.88 121.18 L 143.97 120.89 C 144.98 120.62 145.58 119.58 145.30 118.57 C 145.03 117.56 143.99 116.96 142.98 117.24 Z M 141.69 117.64 L 140.72 118.04 C 139.77 118.42 139.32 119.51 139.70 120.45 C 140.09 121.40 141.17 121.86 142.12 121.47 L 143.09 121.07 C 144.04 120.69 144.49 119.60 144.10 118.65 C 143.72 117.71 142.63 117.25 141.69 117.64 Z M 140.52 118.17 L 139.67 118.66 C 138.79 119.16 138.49 120.26 138.98 121.14 C 139.48 122.01 140.59 122.32 141.46 121.82 L 142.32 121.33 C 143.19 120.84 143.50 119.73 143.00 118.85 C 142.51 117.98 141.40 117.68 140.52 118.17 Z M 139.50 118.82 L 138.74 119.38 C 137.95 119.97 137.79 121.09 138.38 121.88 C 138.97 122.66 140.09 122.82 140.87 122.23 L 141.63 121.66 C 142.42 121.07 142.58 119.96 141.99 119.17 C 141.40 118.39 140.28 118.23 139.50 118.82 Z M 138.60 119.55 L 137.93 120.19 C 137.23 120.85 137.21 121.96 137.87 122.65 C 138.54 123.35 139.64 123.37 140.34 122.71 L 141.01 122.07 C 141.70 121.40 141.73 120.30 141.07 119.61 C 140.40 118.91 139.30 118.88 138.60 119.55 Z M 137.83 120.35 L 137.22 121.07 C 136.61 121.79 136.70 122.87 137.42 123.48 C 138.14 124.09 139.22 123.99 139.83 123.27 L 140.44 122.55 C 141.05 121.83 140.96 120.75 140.24 120.14 C 139.52 119.54 138.44 119.63 137.83 120.35 Z M 137.14 121.21 L 136.58 122.02 C 136.05 122.78 136.24 123.83 137.00 124.36 C 137.76 124.89 138.81 124.70 139.34 123.94 L 139.90 123.13 C 140.43 122.37 140.24 121.32 139.48 120.79 C 138.72 120.27 137.67 120.45 137.14 121.21 Z M 136.54 122.14 L 136.03 123.00 C 135.57 123.78 135.83 124.80 136.62 125.26 C 137.40 125.72 138.41 125.46 138.88 124.68 L 139.38 123.82 C 139.85 123.03 139.58 122.02 138.80 121.56 C 138.01 121.09 137.00 121.36 136.54 122.14 Z M 136.01 123.09 L 135.55 123.98 C 135.14 124.77 135.45 125.76 136.24 126.17 C 137.04 126.58 138.02 126.27 138.44 125.48 L 138.90 124.59 C 139.31 123.79 139.00 122.81 138.20 122.39 C 137.41 121.98 136.43 122.29 136.01 123.09 Z M 135.55 124.04 L 135.11 124.95 C 134.74 125.75 135.07 126.70 135.87 127.08 C 136.67 127.46 137.62 127.12 138.00 126.33 L 138.44 125.41 C 138.82 124.62 138.48 123.66 137.68 123.28 C 136.88 122.90 135.93 123.24 135.55 124.04 Z M 135.13 124.98 L 134.78 125.75 C 134.42 126.54 134.76 127.47 135.55 127.84 C 136.35 128.20 137.28 127.85 137.64 127.06 L 137.99 126.29 C 138.35 125.50 138.01 124.57 137.21 124.21 C 136.42 123.84 135.49 124.19 135.13 124.98 Z"
      fill="black"
      fill-rule="nonzero" /></svg>