<svg xmlns="http://www.w3.org/2000/svg" width="300" height="300" viewBox="0 0 300 300">
<path d="M 158.17 166.26 L 157.88 165.29 C 157.61 164.40 156.67 163.89 155.78 164.16 C 154.89 164.43 154.38 165.37 154.65 166.26 L 154.95 167.24 C 155.22 168.13 156.16 168.63 157.05 168.36 C 157.94 168.09 158.44 167.15 158.17 166.26 Z M 157.89 165.28 L 157.59 164.31 C 157.32 163.41 156.38 162.91 155.48 163.18 C 154.58 163.45 154.08 164.39 154.35 165.29 L 154.64 166.27 C 154.91 167.16 155.86 167.67 156.76 167.40 C 157.65 167.13 158.16 166.18 157.89 165.28 Z M 157.61 164.31 L 157.31 163.33 C 157.04 162.43 156.09 161.92 155.18 162.19 C 154.28 162.46 153.77 163.42 154.04 164.32 L 154.34 165.29 C 154.61 166.20 155.56 166.71 156.46 166.44 C 157.37 166.16 157.88 165.21 157.61 164.31 Z M 157.32 163.33 L 157.03 162.36 C 156.76 161.45 155.80 160.94 154.89 161.21 C 153.98 161.48 153.46 162.44 153.74 163.35 L 154.03 164.32 C 154.30 165.23 155.26 165.75 156.17 165.48 C 157.08 165.20 157.60 164.24 157.32 163.33 Z M 157.04 162.36 L 156.75 161.39 C 156.48 160.48 155.51 159.96 154.59 160.23 C 153.68 160.51 153.16 161.48 153.43 162.39 L 153.72 163.36 C 154.00 164.27 154.97 164.79 155.88 164.52 C 156.80 164.24 157.32 163.28 157.04 162.36 Z M 156.77 161.39 L 156.48 160.43 C 156.20 159.51 155.23 158.99 154.30 159.26 C 153.38 159.54 152.86 160.51 153.13 161.44 L 153.42 162.40 C 153.70 163.32 154.67 163.84 155.60 163.57 C 156.52 163.29 157.04 162.31 156.77 161.39 Z M 156.49 160.43 L 156.21 159.48 C 155.93 158.55 154.95 158.02 154.02 158.30 C 153.09 158.58 152.56 159.56 152.84 160.49 L 153.12 161.44 C 153.40 162.37 154.38 162.90 155.31 162.62 C 156.24 162.34 156.77 161.36 156.49 160.43 Z M 156.22 159.48 L 155.94 158.53 C 155.66 157.60 154.67 157.06 153.73 157.34 C 152.80 157.62 152.26 158.61 152.54 159.55 L 152.82 160.49 C 153.10 161.43 154.09 161.96 155.03 161.68 C 155.97 161.40 156.50 160.41 156.22 159.48 Z M 155.95 158.53 L 155.67 157.60 C 155.39 156.66 154.40 156.12 153.45 156.40 C 152.51 156.68 151.97 157.67 152.25 158.62 L 152.53 159.55 C 152.81 160.49 153.80 161.03 154.75 160.75 C 155.69 160.47 156.23 159.48 155.95 158.53 Z M 155.68 157.60 L 155.40 156.63 C 155.12 155.68 154.12 155.14 153.17 155.42 C 152.21 155.70 151.67 156.70 151.95 157.65 L 152.24 158.62 C 152.52 159.57 153.52 160.11 154.47 159.83 C 155.42 159.55 155.97 158.55 155.68 157.60 Z M 155.41 156.63 L 155.10 155.58 C 154.82 154.62 153.81 154.07 152.85 154.35 C 151.89 154.64 151.35 155.64 151.63 156.60 L 151.94 157.66 C 152.22 158.61 153.23 159.16 154.19 158.88 C 155.15 158.60 155.69 157.59 155.41 156.63 Z M 155.11 155.57 L 154.81 154.54 C 154.52 153.58 153.51 153.02 152.54 153.31 C 151.58 153.59 151.03 154.61 151.31 155.57 L 151.62 156.61 C 151.90 157.57 152.92 158.12 153.88 157.84 C 154.85 157.55 155.40 156.54 155.11 155.57 Z M 154.82 154.54 L 154.52 153.53 C 154.23 152.56 153.21 152.00 152.24 152.29 C 151.27 152.58 150.71 153.60 151.00 154.57 L 151.30 155.58 C 151.59 156.55 152.61 157.11 153.58 156.82 C 154.55 156.53 155.11 155.51 154.82 154.54 Z M 154.53 153.52 L 154.24 152.54 C 153.95 151.56 152.92 151.00 151.94 151.30 C 150.96 151.59 150.40 152.62 150.70 153.60 L 150.99 154.58 C 151.28 155.56 152.31 156.12 153.29 155.82 C 154.27 155.53 154.83 154.50 154.53 153.52 Z M 154.25 152.53 L 153.97 151.58 C 153.67 150.60 152.63 150.04 151.65 150.34 C 150.66 150.63 150.10 151.67 150.40 152.66 L 150.68 153.61 C 150.98 154.59 152.02 155.15 153.01 154.85 C 153.99 154.56 154.55 153.52 154.25 152.53 Z M 153.98 151.57 L 153.70 150.66 C 153.39 149.67 152.34 149.11 151.35 149.41 C 150.36 149.72 149.80 150.77 150.11 151.76 L 150.39 152.67 C 150.69 153.66 151.74 154.22 152.73 153.92 C 153.72 153.61 154.28 152.56 153.98 151.57 Z M 153.71 150.64 L 153.44 149.77 C 153.12 148.77 152.06 148.22 151.07 148.53 C 150.07 148.84 149.51 149.90 149.83 150.90 L 150.10 151.77 C 150.41 152.77 151.47 153.33 152.47 153.01 C 153.47 152.70 154.02 151.64 153.71 150.64 Z M 153.44 149.75 L 153.18 148.92 C 152.85 147.92 151.78 147.37 150.78 147.69 C 149.78 148.02 149.23 149.09 149.55 150.09 L 149.82 150.92 C 150.14 151.92 151.21 152.47 152.21 152.15 C 153.22 151.83 153.77 150.75 153.44 149.75 Z M 153.18 148.89 L 152.81 147.80 C 152.47 146.79 151.38 146.26 150.38 146.59 C 149.38 146.93 148.84 148.02 149.18 149.02 L 149.55 150.12 C 149.89 151.12 150.97 151.66 151.98 151.32 C 152.98 150.98 153.52 149.90 153.18 148.89 Z M 152.79 147.74 L 152.41 146.71 C 152.04 145.72 150.94 145.21 149.94 145.58 C 148.95 145.95 148.44 147.06 148.81 148.05 L 149.19 149.08 C 149.56 150.07 150.67 150.58 151.66 150.21 C 152.66 149.84 153.16 148.73 152.79 147.74 Z M 152.38 146.62 L 151.98 145.69 C 151.56 144.71 150.42 144.26 149.44 144.68 C 148.46 145.10 148.01 146.24 148.44 147.22 L 148.84 148.15 C 149.26 149.13 150.40 149.58 151.38 149.15 C 152.35 148.73 152.80 147.59 152.38 146.62 Z M 151.92 145.55 L 151.48 144.71 C 150.98 143.77 149.81 143.41 148.87 143.91 C 147.92 144.40 147.56 145.58 148.06 146.52 L 148.50 147.35 C 148.99 148.30 150.17 148.66 151.11 148.16 C 152.06 147.67 152.42 146.49 151.92 145.55 Z M 151.38 144.54 L 150.89 143.80 C 150.29 142.91 149.08 142.67 148.19 143.27 C 147.30 143.86 147.06 145.07 147.66 145.96 L 148.15 146.70 C 148.75 147.59 149.96 147.83 150.85 147.23 C 151.74 146.64 151.98 145.43 151.38 144.54 Z M 150.73 143.59 L 150.14 142.92 C 149.43 142.11 148.19 142.04 147.39 142.75 C 146.58 143.46 146.51 144.69 147.22 145.50 L 147.81 146.17 C 148.53 146.98 149.76 147.05 150.57 146.34 C 151.37 145.63 151.45 144.39 150.73 143.59 Z M 149.90 142.68 L 149.07 142.01 C 148.22 141.34 146.99 141.47 146.32 142.31 C 145.64 143.16 145.78 144.39 146.62 145.06 L 147.46 145.73 C 148.30 146.41 149.53 146.27 150.20 145.43 C 150.88 144.59 150.74 143.36 149.90 142.68 Z M 148.75 141.80 L 147.83 141.32 C 146.87 140.82 145.69 141.19 145.19 142.15 C 144.69 143.11 145.06 144.30 146.02 144.80 L 146.94 145.27 C 147.90 145.77 149.08 145.40 149.58 144.44 C 150.08 143.48 149.71 142.30 148.75 141.80 Z M 147.43 141.16 L 146.48 140.91 C 145.43 140.64 144.36 141.26 144.09 142.31 C 143.81 143.36 144.44 144.43 145.48 144.71 L 146.43 144.96 C 147.47 145.23 148.55 144.61 148.82 143.56 C 149.10 142.51 148.47 141.44 147.43 141.16 Z M 145.95 140.85 L 145.03 140.86 C 143.94 140.88 143.08 141.78 143.10 142.87 C 143.12 143.95 144.02 144.81 145.10 144.79 L 146.02 144.78 C 147.11 144.75 147.97 143.86 147.95 142.77 C 147.93 141.69 147.03 140.83 145.95 140.85 Z M 144.40 140.98 L 143.63 141.25 C 142.60 141.62 142.07 142.75 142.44 143.77 C 142.81 144.79 143.93 145.33 144.96 144.96 L 145.73 144.68 C 146.75 144.31 147.29 143.19 146.92 142.16 C 146.55 141.14 145.42 140.61 144.40 140.98 Z M 143.12 141.52 L 142.45 142.02 C 141.58 142.66 141.39 143.89 142.03 144.77 C 142.68 145.64 143.91 145.83 144.79 145.19 L 145.46 144.69 C 146.33 144.05 146.52 142.81 145.87 141.94 C 145.23 141.06 144.00 140.88 143.12 141.52 Z M 142.15 142.29 L 141.53 142.99 C 140.81 143.80 140.88 145.04 141.69 145.77 C 142.50 146.49 143.74 146.42 144.46 145.61 L 145.09 144.91 C 145.81 144.10 145.74 142.86 144.93 142.13 C 144.12 141.41 142.87 141.48 142.15 142.29 Z M 141.36 143.20 L 140.78 144.07 C 140.17 144.98 140.41 146.20 141.32 146.80 C 142.22 147.41 143.44 147.17 144.04 146.27 L 144.63 145.39 C 145.24 144.49 144.99 143.27 144.09 142.67 C 143.19 142.06 141.97 142.30 141.36 143.20 Z M 140.69 144.22 L 140.12 145.25 C 139.60 146.20 139.95 147.40 140.90 147.92 C 141.85 148.44 143.05 148.09 143.57 147.14 L 144.13 146.12 C 144.66 145.17 144.31 143.97 143.36 143.45 C 142.41 142.92 141.21 143.27 140.69 144.22 Z M 140.08 145.34 L 139.60 146.33 C 139.12 147.31 139.53 148.48 140.51 148.96 C 141.48 149.43 142.66 149.02 143.13 148.05 L 143.62 147.05 C 144.09 146.08 143.68 144.90 142.71 144.43 C 141.73 143.95 140.55 144.36 140.08 145.34 Z M 139.58 146.38 L 139.17 147.28 C 138.73 148.27 139.17 149.43 140.15 149.87 C 141.14 150.32 142.31 149.88 142.75 148.89 L 143.16 147.99 C 143.60 147.01 143.16 145.84 142.17 145.40 C 141.18 144.95 140.02 145.39 139.58 146.38 Z M 139.16 147.31 L 138.76 148.25 C 138.33 149.24 138.80 150.40 139.79 150.82 C 140.79 151.25 141.94 150.78 142.37 149.79 L 142.77 148.85 C 143.19 147.86 142.73 146.70 141.73 146.28 C 140.74 145.85 139.58 146.32 139.16 147.31 Z M 138.75 148.28 L 138.36 149.23 C 137.95 150.24 138.43 151.38 139.43 151.79 C 140.44 152.20 141.58 151.72 141.99 150.71 L 142.38 149.76 C 142.79 148.75 142.31 147.61 141.30 147.20 C 140.30 146.79 139.16 147.27 138.75 148.28 Z M 138.35 149.26 L 137.97 150.22 C 137.58 151.23 138.08 152.36 139.08 152.76 C 140.09 153.15 141.23 152.65 141.62 151.65 L 142.00 150.69 C 142.39 149.68 141.90 148.54 140.89 148.15 C 139.88 147.75 138.74 148.25 138.35 149.26 Z M 137.97 150.24 L 137.61 151.19 C 137.23 152.20 137.74 153.33 138.75 153.71 C 139.76 154.10 140.89 153.59 141.27 152.57 L 141.63 151.63 C 142.01 150.61 141.50 149.48 140.49 149.10 C 139.48 148.72 138.35 149.23 137.97 150.24 Z M 137.60 151.21 L 137.26 152.13 C 136.89 153.14 137.41 154.27 138.43 154.64 C 139.44 155.01 140.57 154.49 140.94 153.48 L 141.28 152.56 C 141.65 151.54 141.13 150.42 140.11 150.04 C 139.10 149.67 137.98 150.19 137.60 151.21 Z M 137.26 152.14 L 136.91 153.11 C 136.55 154.13 137.08 155.25 138.10 155.61 C 139.11 155.98 140.23 155.45 140.60 154.43 L 140.94 153.46 C 141.31 152.44 140.78 151.32 139.76 150.96 C 138.74 150.60 137.62 151.13 137.26 152.14 Z M 136.91 153.13 L 136.56 154.15 C 136.20 155.17 136.74 156.28 137.76 156.64 C 138.78 156.99 139.90 156.45 140.25 155.43 L 140.60 154.41 C 140.95 153.39 140.41 152.28 139.39 151.92 C 138.38 151.57 137.26 152.11 136.91 153.13 Z M 136.55 154.17 L 136.23 155.14 C 135.89 156.16 136.44 157.27 137.47 157.61 C 138.49 157.95 139.59 157.39 139.93 156.37 L 140.25 155.41 C 140.59 154.38 140.04 153.28 139.02 152.94 C 138.00 152.60 136.89 153.15 136.55 154.17 Z M 136.22 155.16 L 135.93 156.09 C 135.60 157.12 136.17 158.21 137.20 158.54 C 138.22 158.86 139.32 158.30 139.65 157.27 L 139.94 156.34 C 140.27 155.32 139.70 154.22 138.67 153.90 C 137.65 153.57 136.55 154.14 136.22 155.16 Z M 135.92 156.12 L 135.65 157.02 C 135.34 158.05 135.92 159.14 136.95 159.45 C 137.98 159.76 139.07 159.18 139.38 158.15 L 139.65 157.24 C 139.96 156.21 139.38 155.13 138.35 154.82 C 137.32 154.51 136.24 155.09 135.92 156.12 Z M 135.64 157.05 L 135.38 157.95 C 135.09 158.99 135.69 160.06 136.72 160.36 C 137.75 160.66 138.83 160.06 139.12 159.03 L 139.38 158.12 C 139.68 157.09 139.08 156.01 138.05 155.72 C 137.02 155.42 135.94 156.02 135.64 157.05 Z M 135.38 157.98 L 135.12 158.92 C 134.84 159.95 135.45 161.02 136.49 161.30 C 137.52 161.59 138.59 160.98 138.87 159.94 L 139.13 159.00 C 139.41 157.97 138.80 156.90 137.77 156.61 C 136.73 156.33 135.66 156.94 135.38 157.98 Z M 135.12 158.94 L 134.87 159.90 C 134.60 160.94 135.22 162.00 136.26 162.27 C 137.30 162.54 138.36 161.92 138.63 160.88 L 138.88 159.92 C 139.15 158.88 138.52 157.82 137.49 157.55 C 136.45 157.28 135.39 157.90 135.12 158.94 Z M 134.86 159.93 L 134.62 160.90 C 134.37 161.94 135.00 162.99 136.04 163.25 C 137.09 163.51 138.14 162.87 138.39 161.83 L 138.63 160.85 C 138.89 159.81 138.25 158.76 137.21 158.50 C 136.17 158.25 135.12 158.88 134.86 159.93 Z M 134.62 160.92 L 134.39 161.91 C 134.15 162.95 134.79 163.99 135.84 164.24 C 136.88 164.48 137.93 163.83 138.17 162.79 L 138.40 161.81 C 138.64 160.76 137.99 159.72 136.95 159.47 C 135.91 159.23 134.86 159.88 134.62 160.92 Z M 134.38 161.93 L 134.17 162.91 C 133.94 163.96 134.60 164.99 135.65 165.23 C 136.69 165.46 137.73 164.79 137.96 163.75 L 138.18 162.76 C 138.41 161.72 137.74 160.68 136.70 160.45 C 135.65 160.22 134.62 160.88 134.38 161.93 Z M 134.16 162.94 L 133.96 163.92 C 133.74 164.97 134.42 166.00 135.46 166.22 C 136.51 166.43 137.54 165.76 137.76 164.71 L 137.96 163.72 C 138.18 162.67 137.51 161.65 136.46 161.43 C 135.41 161.21 134.38 161.89 134.16 162.94 Z M 133.95 163.95 L 133.76 164.94 C 133.56 165.99 134.24 167.01 135.30 167.22 C 136.35 167.42 137.37 166.73 137.57 165.68 L 137.76 164.68 C 137.97 163.63 137.28 162.61 136.23 162.41 C 135.18 162.21 134.16 162.89 133.95 163.95 Z M 133.76 164.97 L 133.58 165.96 C 133.39 167.01 134.09 168.02 135.15 168.21 C 136.20 168.40 137.21 167.70 137.40 166.64 L 137.58 165.65 C 137.76 164.60 137.06 163.59 136.01 163.40 C 134.95 163.21 133.95 163.91 133.76 164.97 Z M 133.57 165.98 L 133.41 166.97 C 133.24 168.02 133.95 169.02 135.01 169.20 C 136.07 169.37 137.06 168.66 137.24 167.60 L 137.40 166.62 C 137.58 165.56 136.86 164.56 135.80 164.39 C 134.75 164.21 133.75 164.93 133.57 165.98 Z M 133.41 167.00 L 133.26 167.98 C 133.10 169.04 133.83 170.02 134.89 170.18 C 135.95 170.34 136.94 169.61 137.10 168.55 L 137.24 167.57 C 137.40 166.51 136.67 165.53 135.61 165.37 C 134.55 165.21 133.57 165.94 133.41 167.00 Z M 133.26 168.01 L 133.12 168.99 C 132.98 170.05 133.73 171.02 134.79 171.17 C 135.85 171.31 136.82 170.57 136.97 169.50 L 137.10 168.52 C 137.24 167.46 136.50 166.49 135.44 166.34 C 134.38 166.20 133.40 166.94 133.26 168.01 Z M 133.12 169.01 L 133.01 169.92 C 132.89 170.98 133.64 171.95 134.71 172.08 C 135.77 172.20 136.73 171.45 136.86 170.38 L 136.97 169.48 C 137.10 168.41 136.34 167.45 135.28 167.32 C 134.21 167.19 133.25 167.95 133.12 169.01 Z M 133.01 169.95 L 132.91 170.86 C 132.80 171.92 133.57 172.88 134.64 172.99 C 135.70 173.10 136.66 172.33 136.77 171.26 L 136.86 170.35 C 136.98 169.29 136.20 168.34 135.14 168.22 C 134.08 168.11 133.12 168.88 133.01 169.95 Z M 132.91 170.89 L 132.83 171.83 C 132.73 172.89 133.52 173.83 134.58 173.93 C 135.65 174.03 136.59 173.24 136.69 172.18 L 136.77 171.23 C 136.87 170.17 136.08 169.23 135.02 169.13 C 133.95 169.03 133.01 169.82 132.91 170.89 Z M 132.82 171.85 L 132.75 172.85 C 132.67 173.91 133.47 174.84 134.53 174.93 C 135.60 175.01 136.53 174.21 136.61 173.14 L 136.69 172.15 C 136.77 171.08 135.97 170.15 134.90 170.07 C 133.84 169.99 132.91 170.79 132.82 171.85 Z M 132.75 172.87 L 132.68 173.93 C 132.61 175.00 133.42 175.92 134.49 175.99 C 135.56 176.06 136.48 175.24 136.55 174.18 L 136.61 173.12 C 136.68 172.05 135.87 171.13 134.80 171.06 C 133.74 170.99 132.82 171.80 132.75 172.87 Z M 132.68 173.95 L 132.62 175.10 C 132.56 176.17 133.39 177.08 134.45 177.14 C 135.52 177.19 136.43 176.37 136.49 175.30 L 136.55 174.16 C 136.60 173.09 135.78 172.18 134.71 172.12 C 133.65 172.07 132.74 172.89 132.68 173.95 Z M 132.62 175.12 L 132.58 176.04 C 132.53 177.11 133.36 178.02 134.43 178.06 C 135.50 178.11 136.40 177.28 136.45 176.21 L 136.49 175.29 C 136.53 174.22 135.71 173.31 134.64 173.27 C 133.57 173.22 132.67 174.05 132.62 175.12 Z M 132.58 176.06 L 132.55 177.00 C 132.51 178.07 133.34 178.97 134.41 179.01 C 135.48 179.04 136.38 178.21 136.41 177.14 L 136.45 176.20 C 136.49 175.13 135.65 174.23 134.58 174.19 C 133.52 174.16 132.62 174.99 132.58 176.06 Z M 132.55 177.02 L 132.52 178.00 C 132.49 179.07 133.33 179.96 134.40 179.99 C 135.47 180.02 136.36 179.18 136.39 178.11 L 136.41 177.13 C 136.44 176.06 135.60 175.17 134.53 175.14 C 133.47 175.11 132.58 175.95 132.55 177.02 Z M 132.52 178.02 L 132.50 179.03 C 132.48 180.09 133.33 180.98 134.39 181.00 C 135.46 181.02 136.35 180.17 136.37 179.10 L 136.39 178.09 C 136.41 177.02 135.56 176.14 134.49 176.12 C 133.42 176.10 132.54 176.95 132.52 178.02 Z M 132.50 179.04 L 132.49 180.07 C 132.48 181.14 133.33 182.02 134.40 182.03 C 135.47 182.04 136.34 181.18 136.36 180.11 L 136.37 179.08 C 136.38 178.02 135.52 177.14 134.45 177.13 C 133.38 177.12 132.51 177.98 132.50 179.04 Z M 132.49 180.10 L 132.49 181.14 C 132.49 182.20 133.36 183.07 134.42 183.07 C 135.49 183.07 136.36 182.20 136.36 181.13 L 136.35 180.09 C 136.35 179.02 135.49 178.16 134.42 178.16 C 133.35 178.16 132.49 179.03 132.49 180.10 Z M 132.49 181.16 L 132.50 182.20 C 132.52 183.27 133.39 184.12 134.46 184.11 C 135.53 184.09 136.38 183.22 136.37 182.15 L 136.35 181.11 C 136.34 180.04 135.46 179.19 134.40 179.20 C 133.33 179.22 132.48 180.09 132.49 181.16 Z M 132.51 182.23 L 132.53 183.26 C 132.56 184.33 133.45 185.17 134.52 185.14 C 135.58 185.11 136.42 184.23 136.40 183.16 L 136.37 182.12 C 136.34 181.06 135.45 180.22 134.38 180.25 C 133.32 180.27 132.48 181.16 132.51 182.23 Z M 132.54 183.30 L 132.58 184.38 C 132.63 185.45 133.53 186.27 134.60 186.23 C 135.66 186.18 136.49 185.28 136.44 184.21 L 136.39 183.13 C 136.35 182.06 135.45 181.24 134.38 181.28 C 133.31 181.33 132.49 182.23 132.54 183.30 Z M 132.59 184.43 L 132.66 185.51 C 132.73 186.58 133.65 187.38 134.71 187.31 C 135.78 187.24 136.58 186.32 136.51 185.26 L 136.44 184.17 C 136.37 183.11 135.45 182.30 134.38 182.37 C 133.32 182.44 132.51 183.36 132.59 184.43 Z M 132.66 185.57 L 132.77 186.63 C 132.87 187.69 133.81 188.46 134.87 188.36 C 135.93 188.26 136.71 187.32 136.61 186.25 L 136.51 185.20 C 136.40 184.14 135.46 183.36 134.40 183.46 C 133.34 183.57 132.56 184.51 132.66 185.57 Z M 132.77 186.70 L 132.91 187.71 C 133.05 188.77 134.03 189.51 135.08 189.37 C 136.14 189.22 136.88 188.25 136.74 187.20 L 136.60 186.18 C 136.46 185.12 135.48 184.38 134.43 184.53 C 133.37 184.67 132.63 185.64 132.77 186.70 Z M 132.93 187.81 L 133.11 188.78 C 133.30 189.82 134.31 190.52 135.35 190.32 C 136.40 190.13 137.10 189.12 136.90 188.07 L 136.72 187.10 C 136.53 186.06 135.52 185.36 134.47 185.56 C 133.43 185.75 132.73 186.76 132.93 187.81 Z M 133.13 188.89 L 133.36 189.80 C 133.61 190.84 134.66 191.47 135.69 191.22 C 136.73 190.96 137.36 189.92 137.10 188.88 L 136.88 187.96 C 136.62 186.93 135.58 186.30 134.54 186.55 C 133.51 186.80 132.87 187.85 133.13 188.89 Z M 133.39 189.94 L 133.67 190.80 C 134.00 191.81 135.09 192.37 136.10 192.04 C 137.12 191.71 137.67 190.62 137.35 189.61 L 137.07 188.75 C 136.74 187.73 135.65 187.18 134.64 187.51 C 133.62 187.84 133.06 188.92 133.39 189.94 Z M 133.73 190.96 L 134.09 191.81 C 134.51 192.79 135.64 193.24 136.63 192.83 C 137.61 192.41 138.06 191.27 137.65 190.29 L 137.29 189.45 C 136.87 188.47 135.73 188.01 134.75 188.43 C 133.77 188.85 133.31 189.98 133.73 190.96 Z M 134.19 192.01 L 134.71 192.91 C 135.23 193.84 136.41 194.16 137.34 193.63 C 138.27 193.10 138.59 191.93 138.06 191.00 L 137.55 190.09 C 137.02 189.17 135.84 188.84 134.91 189.37 C 133.99 189.90 133.66 191.08 134.19 192.01 Z M 134.84 193.12 L 135.45 193.92 C 136.09 194.77 137.30 194.94 138.15 194.30 C 139.01 193.66 139.18 192.44 138.53 191.59 L 137.93 190.79 C 137.28 189.94 136.07 189.77 135.22 190.41 C 134.37 191.05 134.20 192.27 134.84 193.12 Z M 135.61 194.11 L 136.30 194.81 C 137.04 195.58 138.27 195.59 139.03 194.84 C 139.80 194.10 139.81 192.87 139.06 192.11 L 138.37 191.40 C 137.63 190.64 136.40 190.63 135.64 191.37 C 134.87 192.12 134.86 193.35 135.61 194.11 Z M 136.47 194.98 L 137.24 195.58 C 138.08 196.25 139.29 196.11 139.96 195.27 C 140.62 194.44 140.49 193.22 139.65 192.55 L 138.88 191.95 C 138.05 191.28 136.83 191.42 136.16 192.26 C 135.50 193.09 135.64 194.31 136.47 194.98 Z M 137.42 195.72 L 138.26 196.23 C 139.17 196.79 140.36 196.51 140.92 195.60 C 141.49 194.69 141.21 193.50 140.30 192.94 L 139.46 192.42 C 138.55 191.86 137.36 192.14 136.80 193.05 C 136.23 193.96 136.51 195.15 137.42 195.72 Z M 138.44 196.33 L 139.32 196.75 C 140.28 197.21 141.44 196.81 141.90 195.84 C 142.36 194.87 141.95 193.72 140.99 193.25 L 140.11 192.84 C 139.15 192.37 137.99 192.78 137.53 193.75 C 137.07 194.71 137.47 195.87 138.44 196.33 Z M 139.49 196.83 L 140.36 197.15 C 141.37 197.51 142.49 197.00 142.85 195.99 C 143.22 194.98 142.70 193.87 141.70 193.50 L 140.82 193.18 C 139.81 192.81 138.70 193.33 138.33 194.34 C 137.96 195.35 138.48 196.46 139.49 196.83 Z M 140.52 197.20 L 141.44 197.45 C 142.48 197.73 143.55 197.12 143.83 196.08 C 144.11 195.05 143.50 193.98 142.46 193.70 L 141.54 193.45 C 140.50 193.17 139.43 193.78 139.15 194.82 C 138.87 195.85 139.49 196.92 140.52 197.20 Z M 141.59 197.49 L 142.56 197.67 C 143.61 197.87 144.63 197.17 144.83 196.12 C 145.03 195.06 144.34 194.04 143.28 193.84 L 142.31 193.66 C 141.26 193.46 140.24 194.16 140.04 195.21 C 139.84 196.27 140.53 197.29 141.59 197.49 Z M 142.69 197.69 L 143.69 197.81 C 144.76 197.94 145.73 197.17 145.86 196.10 C 145.98 195.03 145.22 194.07 144.15 193.94 L 143.15 193.82 C 142.08 193.69 141.11 194.46 140.98 195.53 C 140.86 196.60 141.62 197.57 142.69 197.69 Z M 143.81 197.82 L 144.86 197.88 C 145.93 197.94 146.85 197.12 146.91 196.04 C 146.97 194.97 146.15 194.04 145.07 193.98 L 144.03 193.93 C 142.95 193.87 142.03 194.69 141.97 195.77 C 141.91 196.84 142.74 197.76 143.81 197.82 Z M 144.96 197.89 L 146.04 197.89 C 147.12 197.89 148.00 197.01 148.00 195.94 C 148.00 194.86 147.12 193.98 146.04 193.98 L 144.97 193.98 C 143.89 193.98 143.01 194.85 143.01 195.93 C 143.01 197.01 143.88 197.89 144.96 197.89 Z M 146.13 197.89 L 147.09 197.85 C 148.17 197.80 149.01 196.88 148.96 195.80 C 148.91 194.72 147.99 193.88 146.91 193.93 L 145.95 193.98 C 144.87 194.03 144.04 194.94 144.09 196.02 C 144.14 197.10 145.05 197.94 146.13 197.89 Z M 147.18 197.84 L 148.13 197.75 C 149.21 197.66 150.01 196.70 149.91 195.62 C 149.81 194.55 148.86 193.75 147.78 193.85 L 146.82 193.94 C 145.75 194.04 144.95 194.99 145.05 196.07 C 145.15 197.15 146.10 197.94 147.18 197.84 Z M 148.23 197.75 L 149.20 197.61 C 150.27 197.46 151.02 196.46 150.86 195.39 C 150.71 194.32 149.72 193.57 148.65 193.72 L 147.68 193.86 C 146.61 194.01 145.86 195.01 146.01 196.08 C 146.17 197.15 147.16 197.90 148.23 197.75 Z M 149.31 197.59 L 150.28 197.40 C 151.34 197.19 152.03 196.15 151.82 195.09 C 151.61 194.02 150.58 193.33 149.51 193.54 L 148.54 193.74 C 147.47 193.95 146.78 194.99 147.00 196.05 C 147.21 197.11 148.24 197.80 149.31 197.59 Z M 150.40 197.37 L 151.37 197.12 C 152.42 196.84 153.05 195.76 152.77 194.71 C 152.49 193.66 151.42 193.04 150.37 193.31 L 149.39 193.57 C 148.34 193.85 147.72 194.92 147.99 195.97 C 148.27 197.02 149.35 197.65 150.40 197.37 Z M 151.50 197.08 L 152.47 196.75 C 153.50 196.41 154.05 195.29 153.71 194.26 C 153.36 193.23 152.24 192.67 151.21 193.02 L 150.24 193.35 C 149.21 193.70 148.66 194.81 149.00 195.84 C 149.35 196.87 150.47 197.43 151.50 197.08 Z M 152.60 196.70 L 153.57 196.30 C 154.57 195.88 155.04 194.72 154.62 193.72 C 154.20 192.72 153.04 192.24 152.04 192.67 L 151.08 193.07 C 150.08 193.49 149.60 194.65 150.02 195.65 C 150.45 196.65 151.60 197.13 152.60 196.70 Z M 153.70 196.24 L 154.64 195.76 C 155.61 195.26 155.99 194.07 155.49 193.10 C 154.99 192.14 153.80 191.75 152.83 192.25 L 151.90 192.73 C 150.93 193.22 150.55 194.41 151.05 195.38 C 151.54 196.35 152.73 196.74 153.70 196.24 Z M 154.76 195.69 L 155.63 195.16 C 156.56 194.60 156.86 193.38 156.29 192.45 C 155.72 191.52 154.51 191.22 153.58 191.79 L 152.71 192.32 C 151.78 192.89 151.48 194.10 152.05 195.03 C 152.62 195.96 153.83 196.26 154.76 195.69 Z M 155.73 195.10 L 156.58 194.51 C 157.48 193.89 157.70 192.65 157.08 191.76 C 156.45 190.86 155.22 190.64 154.32 191.26 L 153.48 191.85 C 152.58 192.48 152.36 193.71 152.98 194.60 C 153.61 195.50 154.84 195.72 155.73 195.10 Z M 156.66 194.45 L 157.48 193.82 C 158.35 193.15 158.51 191.91 157.84 191.04 C 157.17 190.18 155.93 190.02 155.06 190.69 L 154.24 191.32 C 153.38 191.99 153.22 193.23 153.89 194.10 C 154.56 194.96 155.80 195.12 156.66 194.45 Z M 157.55 193.76 L 158.34 193.10 C 159.17 192.39 159.28 191.14 158.57 190.31 C 157.87 189.47 156.62 189.37 155.78 190.07 L 155.00 190.74 C 154.16 191.44 154.06 192.69 154.76 193.53 C 155.47 194.36 156.71 194.47 157.55 193.76 Z M 158.39 193.05 L 159.15 192.37 C 159.96 191.63 160.02 190.38 159.28 189.57 C 158.55 188.76 157.29 188.70 156.48 189.44 L 155.73 190.12 C 154.92 190.85 154.86 192.11 155.60 192.92 C 156.33 193.73 157.58 193.79 158.39 193.05 Z M 159.19 192.33 L 159.90 191.64 C 160.69 190.88 160.71 189.63 159.95 188.84 C 159.19 188.05 157.94 188.03 157.15 188.79 L 156.44 189.48 C 155.65 190.24 155.63 191.49 156.39 192.28 C 157.15 193.07 158.40 193.09 159.19 192.33 Z M 159.94 191.61 L 160.61 190.93 C 161.37 190.15 161.37 188.90 160.59 188.13 C 159.81 187.36 158.55 187.37 157.78 188.15 L 157.11 188.82 C 156.35 189.60 156.35 190.86 157.13 191.63 C 157.91 192.40 159.17 192.39 159.94 191.61 Z M 160.63 190.90 L 161.29 190.21 C 162.04 189.42 162.01 188.16 161.21 187.41 C 160.41 186.66 159.16 186.69 158.41 187.49 L 157.75 188.18 C 157.00 188.97 157.03 190.23 157.83 190.98 C 158.62 191.73 159.88 191.70 160.63 190.90 Z M 161.32 190.18 L 162.10 189.32 C 162.83 188.51 162.77 187.26 161.96 186.52 C 161.15 185.78 159.89 185.84 159.16 186.66 L 158.38 187.52 C 157.64 188.33 157.70 189.58 158.51 190.32 C 159.32 191.06 160.58 191.00 161.32 190.18 Z M 162.13 189.28 L 162.82 188.48 C 163.54 187.65 163.44 186.39 162.61 185.68 C 161.78 184.96 160.52 185.06 159.81 185.89 L 159.12 186.70 C 158.40 187.53 158.50 188.78 159.33 189.50 C 160.17 190.21 161.42 190.12 162.13 189.28 Z M 162.87 188.43 L 163.48 187.66 C 164.17 186.81 164.03 185.56 163.18 184.87 C 162.32 184.18 161.07 184.32 160.38 185.17 L 159.77 185.94 C 159.08 186.80 159.22 188.05 160.07 188.74 C 160.93 189.42 162.18 189.29 162.87 188.43 Z M 163.52 187.61 L 164.08 186.87 C 164.74 185.99 164.56 184.74 163.68 184.08 C 162.80 183.42 161.55 183.60 160.89 184.48 L 160.34 185.23 C 159.68 186.11 159.86 187.35 160.74 188.01 C 161.62 188.67 162.87 188.49 163.52 187.61 Z M 164.12 186.81 L 164.64 186.07 C 165.26 185.17 165.04 183.93 164.13 183.30 C 163.23 182.68 161.99 182.90 161.36 183.80 L 160.85 184.54 C 160.23 185.44 160.45 186.68 161.35 187.31 C 162.26 187.94 163.50 187.71 164.12 186.81 Z M 164.67 186.02 L 165.18 185.24 C 165.77 184.31 165.50 183.08 164.58 182.49 C 163.66 181.89 162.42 182.16 161.83 183.08 L 161.33 183.86 C 160.73 184.78 161.00 186.02 161.92 186.61 C 162.85 187.21 164.08 186.94 164.67 186.02 Z M 165.21 185.18 L 165.72 184.34 C 166.28 183.40 165.98 182.17 165.03 181.61 C 164.09 181.04 162.87 181.35 162.30 182.29 L 161.79 183.13 C 161.23 184.08 161.53 185.30 162.48 185.87 C 163.42 186.43 164.64 186.13 165.21 185.18 Z M 165.74 184.29 L 166.23 183.43 C 166.77 182.47 166.43 181.25 165.47 180.71 C 164.51 180.17 163.30 180.51 162.76 181.47 L 162.27 182.34 C 161.73 183.30 162.07 184.51 163.03 185.05 C 163.99 185.59 165.21 185.25 165.74 184.29 Z M 166.26 183.39 L 166.73 182.50 C 167.24 181.53 166.87 180.32 165.90 179.80 C 164.92 179.29 163.72 179.66 163.20 180.63 L 162.73 181.52 C 162.22 182.49 162.59 183.70 163.56 184.21 C 164.53 184.73 165.74 184.36 166.26 183.39 Z M 166.75 182.46 L 167.20 181.56 C 167.70 180.58 167.30 179.38 166.32 178.88 C 165.33 178.38 164.13 178.78 163.64 179.76 L 163.18 180.67 C 162.69 181.65 163.08 182.85 164.07 183.35 C 165.05 183.84 166.25 183.45 166.75 182.46 Z M 167.22 181.53 L 167.66 180.62 C 168.14 179.62 167.72 178.43 166.73 177.95 C 165.74 177.47 164.54 177.89 164.06 178.88 L 163.62 179.79 C 163.14 180.79 163.56 181.98 164.55 182.46 C 165.54 182.94 166.74 182.52 167.22 181.53 Z M 167.67 180.59 L 168.09 179.70 C 168.55 178.70 168.12 177.52 167.12 177.05 C 166.12 176.58 164.93 177.01 164.47 178.01 L 164.05 178.90 C 163.58 179.90 164.02 181.09 165.02 181.56 C 166.01 182.02 167.20 181.59 167.67 180.59 Z M 168.10 179.68 L 168.50 178.78 C 168.96 177.78 168.52 176.59 167.51 176.14 C 166.51 175.68 165.32 176.13 164.87 177.13 L 164.46 178.03 C 164.00 179.04 164.45 180.22 165.45 180.68 C 166.45 181.13 167.64 180.69 168.10 179.68 Z M 168.51 178.77 L 168.92 177.85 C 169.37 176.84 168.91 175.66 167.90 175.21 C 166.89 174.77 165.71 175.22 165.26 176.23 L 164.86 177.15 C 164.41 178.15 164.87 179.34 165.88 179.78 C 166.88 180.23 168.07 179.77 168.51 178.77 Z M 168.92 177.84 L 169.33 176.91 C 169.77 175.90 169.30 174.72 168.29 174.28 C 167.28 173.84 166.10 174.31 165.66 175.32 L 165.26 176.24 C 164.82 177.26 165.28 178.43 166.29 178.87 C 167.31 179.32 168.48 178.85 168.92 177.84 Z M 169.33 176.91 L 169.73 175.97 C 170.17 174.96 169.70 173.78 168.68 173.35 C 167.67 172.91 166.49 173.38 166.06 174.39 L 165.66 175.33 C 165.22 176.34 165.69 177.52 166.70 177.95 C 167.72 178.39 168.90 177.92 169.33 176.91 Z M 169.74 175.97 L 170.10 175.10 C 170.53 174.08 170.06 172.91 169.04 172.48 C 168.03 172.05 166.85 172.52 166.42 173.54 L 166.05 174.40 C 165.62 175.42 166.09 176.59 167.11 177.02 C 168.13 177.46 169.30 176.98 169.74 175.97 Z M 170.11 175.09 L 170.46 174.24 C 170.88 173.22 170.40 172.05 169.38 171.63 C 168.35 171.21 167.18 171.69 166.76 172.71 L 166.41 173.55 C 165.99 174.57 166.47 175.74 167.49 176.17 C 168.52 176.59 169.69 176.11 170.11 175.09 Z M 170.47 174.21 L 170.82 173.34 C 171.22 172.31 170.72 171.15 169.69 170.74 C 168.66 170.34 167.50 170.84 167.09 171.87 L 166.75 172.74 C 166.34 173.77 166.85 174.93 167.87 175.34 C 168.90 175.74 170.07 175.24 170.47 174.21 Z M 170.83 173.29 L 171.17 172.38 C 171.55 171.34 171.02 170.19 169.98 169.81 C 168.94 169.43 167.79 169.96 167.41 171.00 L 167.07 171.91 C 166.69 172.95 167.23 174.10 168.26 174.48 C 169.30 174.86 170.45 174.33 170.83 173.29 Z M 171.19 172.32 L 171.52 171.34 C 171.87 170.29 171.30 169.16 170.25 168.81 C 169.21 168.46 168.07 169.02 167.72 170.07 L 167.39 171.05 C 167.04 172.10 167.61 173.23 168.66 173.58 C 169.71 173.94 170.84 173.37 171.19 172.32 Z M 171.54 171.28 L 171.85 170.22 C 172.17 169.16 171.57 168.05 170.51 167.73 C 169.45 167.41 168.33 168.02 168.01 169.08 L 167.70 170.13 C 167.38 171.19 167.99 172.31 169.05 172.63 C 170.11 172.94 171.22 172.34 171.54 171.28 Z M 171.87 170.16 L 172.14 169.15 C 172.42 168.08 171.78 166.99 170.71 166.71 C 169.64 166.42 168.54 167.06 168.26 168.13 L 168.00 169.14 C 167.71 170.21 168.35 171.31 169.42 171.59 C 170.49 171.87 171.59 171.23 171.87 170.16 Z M 172.15 169.10 L 172.35 168.26 C 172.60 167.18 171.94 166.10 170.86 165.85 C 169.78 165.59 168.70 166.26 168.45 167.34 L 168.25 168.18 C 167.99 169.26 168.66 170.34 169.74 170.59 C 170.82 170.85 171.90 170.18 172.15 169.10 Z M 172.36 168.22 L 172.55 167.32 C 172.78 166.24 172.09 165.18 171.01 164.95 C 169.92 164.72 168.86 165.41 168.63 166.49 L 168.44 167.38 C 168.21 168.46 168.90 169.53 169.98 169.76 C 171.06 169.99 172.13 169.30 172.36 168.22 Z M 172.56 167.28 L 172.74 166.35 C 172.95 165.26 172.23 164.21 171.15 164.00 C 170.06 163.80 169.01 164.51 168.80 165.60 L 168.62 166.53 C 168.41 167.62 169.12 168.67 170.21 168.88 C 171.30 169.09 172.35 168.37 172.56 167.28 Z M 172.75 166.31 L 172.91 165.34 C 173.10 164.25 172.37 163.21 171.27 163.03 C 170.18 162.84 169.14 163.57 168.96 164.66 L 168.79 165.64 C 168.60 166.73 169.34 167.76 170.43 167.95 C 171.52 168.14 172.56 167.41 172.75 166.31 Z M 172.92 165.30 L 173.07 164.30 C 173.24 163.20 172.49 162.18 171.39 162.01 C 170.29 161.84 169.27 162.60 169.10 163.69 L 168.95 164.70 C 168.78 165.80 169.54 166.82 170.63 166.99 C 171.73 167.15 172.75 166.40 172.92 165.30 Z M 173.08 164.26 L 173.22 163.22 C 173.36 162.12 172.59 161.11 171.49 160.96 C 170.39 160.81 169.38 161.59 169.24 162.69 L 169.10 163.73 C 168.95 164.83 169.72 165.84 170.82 165.98 C 171.92 166.13 172.93 165.36 173.08 164.26 Z M 173.22 163.18 L 173.35 162.11 C 173.47 161.00 172.68 160.01 171.58 159.88 C 170.48 159.76 169.48 160.55 169.35 161.65 L 169.23 162.72 C 169.10 163.82 169.90 164.82 171.00 164.95 C 172.10 165.07 173.10 164.28 173.22 163.18 Z M 173.35 162.07 L 173.46 160.97 C 173.56 159.86 172.75 158.88 171.65 158.77 C 170.54 158.67 169.56 159.48 169.46 160.58 L 169.35 161.68 C 169.24 162.79 170.05 163.77 171.16 163.88 C 172.26 163.98 173.24 163.17 173.35 162.07 Z M 173.46 160.93 L 173.55 159.84 C 173.63 158.73 172.81 157.76 171.70 157.68 C 170.59 157.59 169.63 158.42 169.54 159.52 L 169.45 160.62 C 169.37 161.72 170.19 162.69 171.30 162.78 C 172.41 162.86 173.37 162.04 173.46 160.93 Z M 173.55 159.80 L 173.61 158.75 C 173.68 157.65 172.84 156.69 171.73 156.63 C 170.62 156.56 169.67 157.40 169.60 158.51 L 169.54 159.56 C 169.47 160.66 170.31 161.62 171.42 161.69 C 172.53 161.75 173.48 160.91 173.55 159.80 Z M 173.61 158.72 L 173.66 157.66 C 173.71 156.55 172.85 155.62 171.74 155.57 C 170.63 155.52 169.69 156.38 169.64 157.49 L 169.60 158.54 C 169.55 159.65 170.41 160.59 171.52 160.64 C 172.63 160.69 173.57 159.83 173.61 158.72 Z M 173.66 157.63 L 173.69 156.57 C 173.72 155.46 172.84 154.54 171.73 154.51 C 170.62 154.48 169.70 155.36 169.67 156.47 L 169.64 157.53 C 169.61 158.64 170.49 159.56 171.60 159.59 C 172.71 159.61 173.63 158.74 173.66 157.63 Z M 173.69 156.53 L 173.69 155.48 C 173.70 154.37 172.80 153.46 171.69 153.46 C 170.58 153.45 169.68 154.35 169.67 155.46 L 169.67 156.51 C 169.66 157.62 170.56 158.53 171.67 158.53 C 172.78 158.53 173.68 157.64 173.69 156.53 Z M 173.69 155.43 L 173.67 154.40 C 173.65 153.29 172.74 152.41 171.63 152.43 C 170.52 152.45 169.63 153.36 169.65 154.47 L 169.67 155.51 C 169.69 156.62 170.61 157.50 171.72 157.48 C 172.83 157.46 173.71 156.54 173.69 155.43 Z M 173.67 154.35 L 173.63 153.34 C 173.58 152.23 172.64 151.37 171.53 151.42 C 170.42 151.47 169.56 152.41 169.61 153.52 L 169.65 154.53 C 169.70 155.64 170.64 156.50 171.75 156.45 C 172.86 156.40 173.72 155.46 173.67 154.35 Z M 173.62 153.28 L 173.55 152.31 C 173.47 151.20 172.51 150.36 171.40 150.45 C 170.29 150.53 169.46 151.49 169.54 152.60 L 169.61 153.58 C 169.69 154.68 170.66 155.52 171.77 155.43 C 172.87 155.35 173.71 154.39 173.62 153.28 Z M 173.55 152.24 L 173.45 151.30 C 173.33 150.20 172.34 149.40 171.23 149.52 C 170.13 149.64 169.33 150.63 169.45 151.73 L 169.55 152.67 C 169.67 153.77 170.66 154.57 171.76 154.45 C 172.87 154.33 173.67 153.34 173.55 152.24 Z M 173.44 151.22 L 173.31 150.34 C 173.14 149.24 172.12 148.48 171.02 148.64 C 169.92 148.81 169.16 149.83 169.32 150.93 L 169.46 151.81 C 169.62 152.91 170.64 153.67 171.74 153.51 C 172.84 153.35 173.60 152.32 173.44 151.22 Z M 173.29 150.23 L 173.08 149.23 C 172.86 148.14 171.80 147.44 170.71 147.66 C 169.62 147.89 168.92 148.95 169.14 150.04 L 169.34 151.04 C 169.57 152.12 170.63 152.83 171.72 152.60 C 172.81 152.38 173.51 151.32 173.29 150.23 Z M 173.05 149.08 L 172.72 147.96 C 172.42 146.89 171.30 146.27 170.24 146.58 C 169.17 146.89 168.55 148.00 168.86 149.07 L 169.18 150.19 C 169.48 151.26 170.60 151.88 171.67 151.57 C 172.73 151.26 173.35 150.15 173.05 149.08 Z M 172.66 147.78 L 172.27 146.78 C 171.86 145.75 170.69 145.24 169.66 145.65 C 168.63 146.06 168.12 147.23 168.53 148.26 L 168.92 149.25 C 169.33 150.29 170.50 150.80 171.53 150.39 C 172.56 149.98 173.07 148.81 172.66 147.78 Z M 172.18 146.59 L 171.72 145.71 C 171.21 144.73 169.99 144.35 169.01 144.86 C 168.02 145.38 167.64 146.59 168.16 147.58 L 168.61 148.45 C 169.13 149.44 170.34 149.82 171.33 149.31 C 172.31 148.79 172.70 147.58 172.18 146.59 Z M 171.61 145.52 L 171.09 144.75 C 170.47 143.83 169.22 143.58 168.30 144.20 C 167.38 144.82 167.13 146.07 167.75 146.99 L 168.27 147.77 C 168.89 148.69 170.14 148.94 171.06 148.32 C 171.98 147.70 172.23 146.45 171.61 145.52 Z M 170.96 144.57 L 170.38 143.89 C 169.67 143.04 168.40 142.94 167.55 143.65 C 166.70 144.37 166.59 145.64 167.31 146.49 L 167.88 147.17 C 168.60 148.02 169.87 148.13 170.72 147.41 C 171.57 146.69 171.68 145.42 170.96 144.57 Z M 170.24 143.74 L 169.61 143.14 C 168.81 142.37 167.53 142.40 166.77 143.20 C 166.00 144.00 166.02 145.27 166.83 146.04 L 167.45 146.64 C 168.26 147.41 169.53 147.39 170.30 146.58 C 171.07 145.78 171.04 144.51 170.24 143.74 Z M 169.46 143.00 L 168.69 142.41 C 167.82 141.73 166.55 141.88 165.87 142.76 C 165.19 143.64 165.34 144.90 166.22 145.58 L 166.98 146.18 C 167.86 146.86 169.12 146.70 169.81 145.83 C 170.49 144.95 170.33 143.69 169.46 143.00 Z M 168.53 142.30 L 167.69 141.77 C 166.76 141.18 165.52 141.46 164.92 142.40 C 164.33 143.34 164.61 144.58 165.55 145.17 L 166.38 145.69 C 167.32 146.29 168.56 146.00 169.16 145.07 C 169.75 144.13 169.46 142.89 168.53 142.30 Z M 167.53 141.68 L 166.65 141.24 C 165.67 140.73 164.46 141.12 163.96 142.11 C 163.45 143.10 163.84 144.31 164.83 144.81 L 165.71 145.26 C 166.70 145.76 167.91 145.37 168.41 144.38 C 168.91 143.40 168.52 142.19 167.53 141.68 Z M 166.51 141.17 L 165.58 140.79 C 164.56 140.37 163.39 140.85 162.97 141.88 C 162.54 142.90 163.03 144.07 164.05 144.49 L 164.98 144.88 C 166.00 145.30 167.17 144.81 167.60 143.79 C 168.02 142.76 167.53 141.59 166.51 141.17 Z M 165.45 140.74 L 164.49 140.42 C 163.44 140.07 162.31 140.64 161.96 141.69 C 161.61 142.74 162.17 143.87 163.22 144.22 L 164.19 144.54 C 165.23 144.89 166.37 144.32 166.72 143.27 C 167.07 142.23 166.50 141.09 165.45 140.74 Z M 164.37 140.39 L 163.39 140.13 C 162.33 139.84 161.23 140.47 160.94 141.54 C 160.66 142.60 161.29 143.70 162.35 143.99 L 163.34 144.25 C 164.40 144.54 165.50 143.91 165.78 142.84 C 166.07 141.77 165.44 140.68 164.37 140.39 Z M 163.30 140.11 L 162.35 139.90 C 161.28 139.67 160.21 140.35 159.98 141.42 C 159.74 142.50 160.43 143.56 161.50 143.80 L 162.45 144.00 C 163.52 144.24 164.58 143.56 164.82 142.48 C 165.05 141.41 164.37 140.34 163.30 140.11 Z M 162.27 139.89 L 161.31 139.72 C 160.23 139.53 159.19 140.25 159.00 141.33 C 158.81 142.42 159.54 143.45 160.62 143.64 L 161.58 143.81 C 162.66 144.00 163.69 143.27 163.88 142.19 C 164.07 141.11 163.35 140.08 162.27 139.89 Z M 161.24 139.72 L 160.25 139.58 C 159.17 139.43 158.17 140.18 158.01 141.27 C 157.86 142.35 158.62 143.35 159.70 143.50 L 160.69 143.64 C 161.77 143.79 162.77 143.04 162.92 141.95 C 163.07 140.87 162.32 139.87 161.24 139.72 Z M 160.19 139.58 L 159.19 139.47 C 158.10 139.35 157.13 140.14 157.01 141.22 C 156.89 142.30 157.68 143.28 158.76 143.39 L 159.76 143.50 C 160.85 143.62 161.82 142.84 161.94 141.75 C 162.06 140.67 161.27 139.70 160.19 139.58 Z M 159.14 139.47 L 158.12 139.39 C 157.03 139.30 156.08 140.10 155.99 141.19 C 155.91 142.27 156.71 143.22 157.79 143.31 L 158.81 143.39 C 159.89 143.48 160.84 142.68 160.93 141.59 C 161.02 140.51 160.22 139.56 159.14 139.47 Z M 158.07 139.39 L 157.04 139.33 C 155.96 139.26 155.03 140.09 154.97 141.17 C 154.90 142.25 155.72 143.18 156.80 143.24 L 157.84 143.31 C 158.92 143.37 159.85 142.55 159.91 141.47 C 159.98 140.39 159.16 139.46 158.07 139.39 Z M 157.01 139.34 L 156.00 139.29 C 154.92 139.24 154.01 140.08 153.96 141.16 C 153.92 142.23 154.75 143.14 155.83 143.19 L 156.84 143.24 C 157.92 143.28 158.83 142.45 158.87 141.37 C 158.92 140.29 158.09 139.38 157.01 139.34 Z M 155.97 139.30 L 154.96 139.27 C 153.88 139.24 152.99 140.08 152.96 141.16 C 152.93 142.23 153.77 143.12 154.84 143.15 L 155.86 143.18 C 156.93 143.21 157.82 142.37 157.85 141.30 C 157.88 140.23 157.04 139.33 155.97 139.30 Z M 154.93 139.28 L 153.92 139.27 C 152.85 139.25 151.98 140.10 151.96 141.16 C 151.94 142.23 152.79 143.11 153.85 143.12 L 154.87 143.14 C 155.93 143.16 156.81 142.31 156.83 141.24 C 156.84 140.18 156.00 139.30 154.93 139.28 Z M 153.90 139.28 L 152.89 139.27 C 151.83 139.27 150.97 140.12 150.96 141.18 C 150.96 142.24 151.81 143.10 152.87 143.11 L 153.88 143.11 C 154.93 143.12 155.80 142.26 155.80 141.21 C 155.81 140.15 154.95 139.28 153.90 139.28 Z M 152.87 139.29 L 151.88 139.29 C 150.83 139.29 149.98 140.15 149.98 141.20 C 149.99 142.25 150.84 143.10 151.89 143.10 L 152.89 143.10 C 153.94 143.09 154.79 142.23 154.78 141.18 C 154.78 140.13 153.92 139.28 152.87 139.29 Z M 151.86 139.30 L 150.89 139.31 C 149.84 139.33 149.01 140.18 149.02 141.23 C 149.03 142.28 149.89 143.11 150.93 143.10 L 151.91 143.09 C 152.95 143.07 153.79 142.22 153.78 141.17 C 153.77 140.13 152.91 139.29 151.86 139.30 Z M 150.87 139.33 L 149.91 139.35 C 148.87 139.37 148.05 140.22 148.07 141.26 C 148.09 142.30 148.95 143.12 149.98 143.10 L 150.95 143.08 C 151.99 143.06 152.81 142.21 152.79 141.17 C 152.77 140.13 151.91 139.31 150.87 139.33 Z M 149.88 139.37 L 148.93 139.40 C 147.90 139.44 147.09 140.30 147.13 141.32 C 147.17 142.35 148.03 143.15 149.05 143.12 L 150.01 143.08 C 151.04 143.05 151.84 142.19 151.81 141.16 C 151.77 140.13 150.91 139.33 149.88 139.37 Z M 148.87 139.42 L 147.92 139.48 C 146.91 139.55 146.14 140.42 146.20 141.44 C 146.26 142.45 147.14 143.22 148.15 143.16 L 149.11 143.10 C 150.12 143.03 150.89 142.16 150.83 141.14 C 150.76 140.13 149.89 139.36 148.87 139.42 Z M 147.85 139.51 L 146.88 139.61 C 145.88 139.71 145.16 140.61 145.26 141.61 C 145.36 142.61 146.26 143.33 147.26 143.23 L 148.23 143.13 C 149.23 143.03 149.95 142.13 149.85 141.13 C 149.74 140.13 148.85 139.40 147.85 139.51 Z M 146.80 139.64 L 145.80 139.79 C 144.82 139.94 144.15 140.86 144.30 141.85 C 144.45 142.83 145.37 143.50 146.35 143.35 L 147.35 143.20 C 148.33 143.05 149.00 142.13 148.85 141.15 C 148.70 140.16 147.78 139.49 146.80 139.64 Z M 145.71 139.83 L 144.67 140.05 C 143.71 140.25 143.09 141.20 143.30 142.16 C 143.50 143.12 144.44 143.74 145.41 143.53 L 146.44 143.32 C 147.41 143.11 148.02 142.17 147.82 141.21 C 147.62 140.24 146.67 139.63 145.71 139.83 Z M 144.58 140.09 L 143.61 140.35 C 142.67 140.60 142.11 141.57 142.36 142.51 C 142.61 143.45 143.58 144.01 144.52 143.75 L 145.49 143.49 C 146.43 143.24 146.99 142.28 146.74 141.34 C 146.49 140.40 145.52 139.84 144.58 140.09 Z M 143.54 140.39 L 142.68 140.66 C 141.76 140.94 141.25 141.92 141.54 142.84 C 141.83 143.76 142.81 144.27 143.73 143.99 L 144.59 143.72 C 145.51 143.43 146.02 142.45 145.73 141.53 C 145.44 140.61 144.46 140.10 143.54 140.39 Z M 142.64 140.69 L 141.75 140.99 C 140.84 141.31 140.37 142.29 140.68 143.20 C 140.99 144.10 141.98 144.58 142.88 144.27 L 143.77 143.96 C 144.67 143.64 145.15 142.66 144.84 141.75 C 144.53 140.85 143.54 140.37 142.64 140.69 Z M 141.71 141.02 L 140.79 141.37 C 139.91 141.70 139.46 142.68 139.79 143.57 C 140.12 144.46 141.11 144.91 141.99 144.58 L 142.91 144.24 C 143.80 143.91 144.25 142.92 143.92 142.03 C 143.59 141.14 142.60 140.69 141.71 141.02 Z M 140.77 141.39 L 139.83 141.76 C 138.96 142.11 138.53 143.09 138.87 143.97 C 139.22 144.84 140.20 145.27 141.08 144.93 L 142.02 144.55 C 142.89 144.21 143.32 143.22 142.98 142.35 C 142.63 141.48 141.64 141.05 140.77 141.39 Z M 139.81 141.78 L 138.85 142.18 C 137.99 142.53 137.58 143.52 137.93 144.38 C 138.29 145.24 139.27 145.65 140.13 145.30 L 141.09 144.90 C 141.95 144.55 142.37 143.57 142.01 142.70 C 141.66 141.84 140.67 141.43 139.81 141.78 Z M 138.85 142.20 L 137.87 142.61 C 137.02 142.97 136.62 143.95 136.98 144.80 C 137.34 145.65 138.32 146.04 139.17 145.69 L 140.14 145.28 C 140.99 144.92 141.39 143.94 141.03 143.09 C 140.68 142.24 139.70 141.84 138.85 142.20 Z M 137.87 142.63 L 136.89 143.05 C 136.05 143.41 135.66 144.38 136.02 145.22 C 136.38 146.06 137.35 146.45 138.19 146.09 L 139.17 145.67 C 140.01 145.31 140.40 144.34 140.04 143.49 C 139.68 142.65 138.71 142.27 137.87 142.63 Z M 136.89 143.06 L 136.07 143.42 C 135.23 143.78 134.85 144.74 135.21 145.57 C 135.57 146.41 136.54 146.79 137.37 146.43 L 138.19 146.07 C 139.02 145.72 139.41 144.75 139.05 143.92 C 138.69 143.08 137.72 142.70 136.89 143.06 Z"
      fill="black"
      fill-rule="nonzero" /></svg>