<svg xmlns="http://www.w3.org/2000/svg" width="300" height="300" viewBox="0 0 300 300">
<path d="M 165.84 153.22 L 165.37 152.29 C 164.95 151.48 163.96 151.16 163.15 151.57 C 162.35 151.99 162.03 152.98 162.44 153.79 L 162.92 154.72 C 163.33 155.52 164.33 155.84 165.13 155.43 C 165.94 155.01 166.26 154.02 165.84 153.22 Z M 165.37 152.29 L 164.90 151.37 C 164.48 150.56 163.49 150.25 162.68 150.66 C 161.88 151.07 161.56 152.06 161.97 152.87 L 162.44 153.79 C 162.86 154.59 163.85 154.91 164.66 154.50 C 165.46 154.08 165.78 153.09 165.37 152.29 Z M 164.89 151.37 L 164.44 150.48 C 164.02 149.67 163.03 149.36 162.23 149.77 C 161.42 150.19 161.10 151.18 161.52 151.98 L 161.97 152.87 C 162.39 153.68 163.38 153.99 164.18 153.58 C 164.99 153.17 165.31 152.18 164.89 151.37 Z M 164.43 150.48 L 164.00 149.63 C 163.58 148.83 162.59 148.51 161.79 148.92 C 160.98 149.34 160.67 150.33 161.08 151.13 L 161.52 151.98 C 161.93 152.79 162.92 153.10 163.73 152.69 C 164.53 152.27 164.85 151.29 164.43 150.48 Z M 164.00 149.63 L 163.53 148.71 C 163.11 147.91 162.12 147.59 161.31 148.01 C 160.51 148.42 160.19 149.41 160.61 150.22 L 161.08 151.13 C 161.49 151.94 162.49 152.26 163.29 151.84 C 164.10 151.43 164.42 150.43 164.00 149.63 Z M 163.54 148.71 L 163.07 147.79 C 162.65 146.98 161.65 146.66 160.84 147.08 C 160.02 147.50 159.71 148.50 160.13 149.31 L 160.60 150.23 C 161.02 151.04 162.01 151.36 162.83 150.94 C 163.64 150.52 163.96 149.52 163.54 148.71 Z M 163.08 147.79 L 162.64 146.93 C 162.21 146.11 161.21 145.78 160.39 146.21 C 159.57 146.63 159.25 147.64 159.67 148.45 L 160.11 149.32 C 160.53 150.14 161.54 150.46 162.36 150.04 C 163.18 149.62 163.50 148.61 163.08 147.79 Z M 162.65 146.92 L 162.22 146.08 C 161.80 145.26 160.78 144.93 159.96 145.35 C 159.13 145.78 158.80 146.79 159.22 147.62 L 159.65 148.46 C 160.08 149.29 161.09 149.61 161.92 149.19 C 162.75 148.77 163.08 147.75 162.65 146.92 Z M 162.24 146.08 L 161.78 145.19 C 161.36 144.35 160.33 144.02 159.50 144.45 C 158.66 144.87 158.33 145.89 158.76 146.73 L 159.21 147.62 C 159.63 148.46 160.66 148.79 161.49 148.36 C 162.33 147.94 162.66 146.92 162.24 146.08 Z M 161.79 145.17 L 161.33 144.29 C 160.90 143.45 159.87 143.12 159.03 143.55 C 158.19 143.99 157.86 145.02 158.29 145.86 L 158.75 146.74 C 159.18 147.58 160.21 147.91 161.05 147.48 C 161.89 147.05 162.22 146.01 161.79 145.17 Z M 161.33 144.26 L 160.86 143.38 C 160.41 142.54 159.36 142.22 158.52 142.68 C 157.68 143.13 157.37 144.17 157.82 145.01 L 158.29 145.89 C 158.74 146.73 159.79 147.04 160.63 146.59 C 161.47 146.14 161.78 145.10 161.33 144.26 Z M 160.85 143.33 L 160.39 142.52 C 159.91 141.69 158.85 141.40 158.02 141.87 C 157.18 142.35 156.89 143.41 157.37 144.24 L 157.83 145.05 C 158.30 145.89 159.36 146.18 160.20 145.70 C 161.03 145.23 161.32 144.17 160.85 143.33 Z M 160.37 142.47 L 159.87 141.65 C 159.36 140.83 158.28 140.57 157.46 141.08 C 156.64 141.59 156.38 142.66 156.89 143.49 L 157.39 144.30 C 157.89 145.12 158.97 145.38 159.79 144.87 C 160.62 144.37 160.88 143.29 160.37 142.47 Z M 159.84 141.59 L 159.27 140.74 C 158.73 139.93 157.63 139.71 156.82 140.25 C 156.01 140.80 155.80 141.90 156.34 142.71 L 156.91 143.56 C 157.46 144.37 158.55 144.58 159.36 144.04 C 160.17 143.49 160.39 142.40 159.84 141.59 Z M 159.24 140.67 L 158.60 139.79 C 158.02 139.00 156.90 138.83 156.11 139.41 C 155.32 139.99 155.15 141.11 155.73 141.90 L 156.37 142.78 C 156.95 143.57 158.07 143.74 158.86 143.16 C 159.65 142.57 159.82 141.46 159.24 140.67 Z M 158.57 139.73 L 157.95 138.94 C 157.33 138.16 156.20 138.03 155.42 138.65 C 154.64 139.27 154.51 140.40 155.13 141.18 L 155.75 141.96 C 156.37 142.74 157.50 142.87 158.28 142.26 C 159.06 141.64 159.19 140.51 158.57 139.73 Z M 157.92 138.88 L 157.25 138.09 C 156.60 137.33 155.46 137.24 154.69 137.88 C 153.93 138.53 153.83 139.68 154.48 140.44 L 155.15 141.23 C 155.80 142.00 156.95 142.09 157.71 141.44 C 158.48 140.79 158.57 139.65 157.92 138.88 Z M 157.22 138.03 L 156.53 137.28 C 155.85 136.53 154.69 136.48 153.94 137.16 C 153.19 137.85 153.14 139.01 153.83 139.76 L 154.52 140.51 C 155.20 141.25 156.36 141.31 157.11 140.62 C 157.85 139.94 157.90 138.78 157.22 138.03 Z M 156.48 137.20 L 155.80 136.52 C 155.07 135.80 153.90 135.81 153.18 136.54 C 152.46 137.26 152.47 138.44 153.19 139.16 L 153.88 139.83 C 154.60 140.55 155.78 140.54 156.49 139.82 C 157.21 139.09 157.21 137.92 156.48 137.20 Z M 155.70 136.41 L 154.86 135.71 C 154.07 135.04 152.90 135.14 152.23 135.93 C 151.57 136.72 151.67 137.89 152.45 138.56 L 153.29 139.27 C 154.08 139.93 155.26 139.83 155.92 139.04 C 156.58 138.26 156.49 137.08 155.70 136.41 Z M 154.69 135.57 L 153.85 135.01 C 152.98 134.45 151.82 134.69 151.25 135.55 C 150.68 136.41 150.92 137.58 151.79 138.15 L 152.63 138.70 C 153.49 139.27 154.65 139.03 155.22 138.16 C 155.79 137.30 155.55 136.14 154.69 135.57 Z M 153.63 134.88 L 152.80 134.48 C 151.86 134.04 150.74 134.43 150.29 135.37 C 149.84 136.31 150.24 137.43 151.17 137.88 L 152.01 138.28 C 152.94 138.73 154.07 138.33 154.52 137.39 C 154.96 136.45 154.57 135.33 153.63 134.88 Z M 152.58 134.39 L 151.68 134.09 C 150.69 133.77 149.62 134.31 149.30 135.30 C 148.97 136.29 149.51 137.36 150.50 137.69 L 151.40 137.98 C 152.39 138.30 153.46 137.76 153.78 136.77 C 154.11 135.78 153.57 134.71 152.58 134.39 Z M 151.47 134.03 L 150.50 133.84 C 149.48 133.63 148.48 134.29 148.27 135.32 C 148.06 136.34 148.72 137.34 149.75 137.55 L 150.72 137.75 C 151.74 137.96 152.74 137.29 152.95 136.27 C 153.16 135.24 152.50 134.24 151.47 134.03 Z M 150.30 133.80 L 149.29 133.71 C 148.24 133.61 147.32 134.38 147.22 135.43 C 147.13 136.47 147.90 137.40 148.94 137.50 L 149.95 137.59 C 151.00 137.68 151.92 136.91 152.02 135.87 C 152.12 134.82 151.35 133.90 150.30 133.80 Z M 149.11 133.69 L 148.16 133.70 C 147.10 133.70 146.25 134.56 146.25 135.61 C 146.26 136.67 147.12 137.52 148.17 137.51 L 149.12 137.51 C 150.18 137.51 151.03 136.65 151.03 135.59 C 151.02 134.54 150.16 133.69 149.11 133.69 Z M 147.96 133.70 L 147.04 133.80 C 145.99 133.91 145.22 134.85 145.34 135.91 C 145.45 136.96 146.39 137.72 147.44 137.61 L 148.37 137.51 C 149.42 137.40 150.18 136.45 150.07 135.40 C 149.96 134.35 149.01 133.59 147.96 133.70 Z M 146.80 133.83 L 145.82 134.06 C 144.79 134.30 144.15 135.34 144.39 136.37 C 144.63 137.41 145.67 138.05 146.70 137.81 L 147.68 137.58 C 148.71 137.33 149.36 136.30 149.11 135.26 C 148.87 134.23 147.84 133.59 146.80 133.83 Z M 145.58 134.13 L 144.53 134.53 C 143.53 134.90 143.03 136.02 143.40 137.01 C 143.78 138.01 144.90 138.51 145.89 138.14 L 146.95 137.74 C 147.94 137.36 148.44 136.25 148.07 135.25 C 147.69 134.25 146.58 133.75 145.58 134.13 Z M 144.34 134.60 L 143.48 135.03 C 142.53 135.51 142.14 136.68 142.63 137.63 C 143.11 138.59 144.27 138.97 145.23 138.49 L 146.08 138.06 C 147.04 137.58 147.42 136.42 146.94 135.46 C 146.46 134.51 145.29 134.12 144.34 134.60 Z M 143.37 135.09 L 142.50 135.60 C 141.57 136.14 141.26 137.33 141.80 138.26 C 142.34 139.18 143.53 139.49 144.46 138.95 L 145.34 138.44 C 146.26 137.90 146.57 136.71 146.03 135.78 C 145.49 134.85 144.30 134.54 143.37 135.09 Z M 142.42 135.64 L 141.55 136.20 C 140.65 136.79 140.39 137.99 140.97 138.90 C 141.55 139.80 142.76 140.06 143.66 139.47 L 144.53 138.91 C 145.44 138.33 145.70 137.12 145.11 136.22 C 144.53 135.32 143.32 135.06 142.42 135.64 Z M 141.49 136.23 L 140.66 136.81 C 139.77 137.43 139.55 138.64 140.17 139.53 C 140.78 140.41 142.00 140.63 142.88 140.02 L 143.72 139.44 C 144.60 138.83 144.82 137.61 144.21 136.73 C 143.60 135.84 142.38 135.62 141.49 136.23 Z M 140.62 136.84 L 139.80 137.43 C 138.93 138.07 138.73 139.29 139.37 140.17 C 140.01 141.04 141.23 141.23 142.10 140.60 L 142.92 140.00 C 143.80 139.36 143.99 138.14 143.35 137.26 C 142.72 136.39 141.49 136.20 140.62 136.84 Z M 139.76 137.46 L 138.92 138.10 C 138.06 138.76 137.90 139.99 138.55 140.85 C 139.21 141.71 140.44 141.87 141.30 141.21 L 142.14 140.57 C 143.00 139.92 143.17 138.69 142.51 137.82 C 141.85 136.96 140.62 136.80 139.76 137.46 Z M 138.88 138.13 L 138.12 138.74 C 137.28 139.41 137.14 140.65 137.82 141.49 C 138.50 142.34 139.73 142.47 140.58 141.80 L 141.34 141.19 C 142.18 140.51 142.32 139.27 141.64 138.43 C 140.96 137.58 139.73 137.45 138.88 138.13 Z M 138.09 138.76 L 137.37 139.37 C 136.53 140.06 136.42 141.30 137.12 142.13 C 137.82 142.97 139.05 143.08 139.89 142.38 L 140.61 141.77 C 141.44 141.08 141.55 139.84 140.86 139.01 C 140.16 138.17 138.92 138.06 138.09 138.76 Z M 137.34 139.38 L 136.62 140.01 C 135.79 140.72 135.70 141.96 136.41 142.78 C 137.12 143.61 138.36 143.70 139.18 142.99 L 139.91 142.36 C 140.73 141.66 140.82 140.41 140.12 139.59 C 139.41 138.77 138.17 138.68 137.34 139.38 Z M 136.60 140.02 L 135.85 140.68 C 135.04 141.40 134.96 142.64 135.67 143.45 C 136.39 144.27 137.64 144.35 138.45 143.63 L 139.20 142.98 C 140.01 142.26 140.09 141.02 139.37 140.20 C 138.66 139.39 137.41 139.31 136.60 140.02 Z M 135.83 140.69 L 135.08 141.37 C 134.27 142.10 134.21 143.35 134.94 144.15 C 135.67 144.96 136.91 145.02 137.72 144.29 L 138.47 143.62 C 139.28 142.89 139.34 141.64 138.61 140.84 C 137.88 140.03 136.64 139.97 135.83 140.69 Z M 135.06 141.39 L 134.32 142.08 C 133.52 142.82 133.48 144.07 134.22 144.87 C 134.96 145.66 136.21 145.71 137.00 144.97 L 137.74 144.27 C 138.54 143.53 138.58 142.29 137.84 141.49 C 137.10 140.69 135.85 140.65 135.06 141.39 Z M 134.29 142.11 L 133.56 142.81 C 132.78 143.57 132.76 144.82 133.52 145.60 C 134.28 146.38 135.52 146.40 136.31 145.64 L 137.03 144.94 C 137.81 144.18 137.83 142.93 137.08 142.15 C 136.32 141.37 135.07 141.35 134.29 142.11 Z M 133.53 142.84 L 132.83 143.55 C 132.06 144.33 132.07 145.58 132.85 146.34 C 133.62 147.11 134.87 147.10 135.64 146.33 L 136.34 145.61 C 137.10 144.84 137.10 143.59 136.32 142.82 C 135.54 142.06 134.30 142.07 133.53 142.84 Z M 132.80 143.59 L 132.11 144.31 C 131.37 145.10 131.40 146.35 132.20 147.10 C 132.99 147.85 134.24 147.81 134.98 147.02 L 135.67 146.29 C 136.41 145.50 136.38 144.25 135.59 143.50 C 134.79 142.76 133.54 142.79 132.80 143.59 Z M 132.08 144.34 L 131.42 145.08 C 130.69 145.89 130.75 147.14 131.56 147.87 C 132.37 148.60 133.62 148.53 134.35 147.72 L 135.02 146.99 C 135.75 146.18 135.68 144.93 134.87 144.20 C 134.06 143.47 132.81 143.53 132.08 144.34 Z M 131.39 145.11 L 130.74 145.86 C 130.03 146.69 130.12 147.93 130.94 148.65 C 131.77 149.36 133.02 149.27 133.73 148.44 L 134.38 147.69 C 135.09 146.87 135.00 145.62 134.17 144.91 C 133.35 144.19 132.10 144.29 131.39 145.11 Z M 130.71 145.89 L 130.07 146.67 C 129.38 147.51 129.50 148.75 130.34 149.45 C 131.18 150.14 132.43 150.02 133.12 149.18 L 133.76 148.41 C 134.45 147.57 134.33 146.32 133.49 145.63 C 132.65 144.93 131.40 145.05 130.71 145.89 Z M 130.04 146.70 L 129.42 147.49 C 128.75 148.35 128.90 149.59 129.76 150.27 C 130.61 150.94 131.86 150.79 132.53 149.93 L 133.15 149.14 C 133.83 148.29 133.68 147.04 132.82 146.37 C 131.96 145.69 130.72 145.84 130.04 146.70 Z M 129.39 147.53 L 128.79 148.34 C 128.14 149.21 128.32 150.45 129.19 151.10 C 130.07 151.76 131.31 151.58 131.96 150.70 L 132.56 149.89 C 133.21 149.02 133.03 147.78 132.16 147.13 C 131.28 146.47 130.04 146.66 129.39 147.53 Z M 128.76 148.38 L 128.18 149.20 C 127.55 150.10 127.76 151.33 128.66 151.96 C 129.55 152.59 130.79 152.37 131.41 151.48 L 131.99 150.66 C 132.62 149.76 132.41 148.53 131.51 147.90 C 130.62 147.27 129.39 147.49 128.76 148.38 Z M 128.15 149.25 L 127.59 150.08 C 126.99 151.00 127.24 152.22 128.15 152.83 C 129.06 153.43 130.29 153.18 130.89 152.27 L 131.45 151.43 C 132.05 150.52 131.80 149.30 130.89 148.69 C 129.98 148.09 128.75 148.34 128.15 149.25 Z M 127.56 150.13 L 127.04 150.98 C 126.46 151.91 126.74 153.13 127.67 153.70 C 128.60 154.28 129.82 154.00 130.40 153.07 L 130.92 152.22 C 131.50 151.29 131.22 150.07 130.29 149.50 C 129.36 148.92 128.14 149.20 127.56 150.13 Z M 127.00 151.03 L 126.50 151.89 C 125.96 152.84 126.28 154.05 127.22 154.60 C 128.17 155.15 129.38 154.82 129.93 153.88 L 130.43 153.02 C 130.98 152.07 130.66 150.86 129.71 150.31 C 128.77 149.76 127.55 150.08 127.00 151.03 Z M 126.47 151.94 L 126.00 152.82 C 125.48 153.79 125.84 154.99 126.80 155.51 C 127.77 156.03 128.97 155.67 129.49 154.70 L 129.96 153.82 C 130.48 152.86 130.12 151.66 129.16 151.14 C 128.19 150.62 126.99 150.98 126.47 151.94 Z M 125.97 152.89 L 125.52 153.78 C 125.04 154.76 125.44 155.95 126.42 156.43 C 127.40 156.92 128.59 156.52 129.08 155.54 L 129.52 154.64 C 130.00 153.66 129.60 152.47 128.62 151.99 C 127.64 151.50 126.45 151.90 125.97 152.89 Z M 125.49 153.84 L 125.08 154.76 C 124.63 155.75 125.08 156.93 126.08 157.38 C 127.07 157.83 128.25 157.38 128.70 156.38 L 129.11 155.47 C 129.56 154.47 129.11 153.30 128.11 152.85 C 127.12 152.40 125.94 152.85 125.49 153.84 Z M 125.05 154.82 L 124.68 155.73 C 124.27 156.74 124.76 157.90 125.77 158.31 C 126.79 158.73 127.94 158.24 128.36 157.22 L 128.73 156.32 C 129.14 155.30 128.65 154.15 127.64 153.73 C 126.62 153.32 125.47 153.81 125.05 154.82 Z M 124.66 155.79 L 124.32 156.71 C 123.94 157.74 124.47 158.88 125.50 159.25 C 126.53 159.63 127.67 159.11 128.04 158.08 L 128.38 157.16 C 128.76 156.13 128.23 154.99 127.20 154.62 C 126.18 154.24 125.04 154.76 124.66 155.79 Z M 124.30 156.76 L 123.99 157.71 C 123.64 158.75 124.20 159.87 125.24 160.22 C 126.27 160.57 127.40 160.01 127.74 158.97 L 128.06 158.02 C 128.41 156.99 127.85 155.86 126.81 155.51 C 125.77 155.17 124.65 155.73 124.30 156.76 Z M 123.97 157.76 L 123.67 158.74 C 123.34 159.79 123.93 160.90 124.98 161.22 C 126.02 161.54 127.13 160.96 127.46 159.91 L 127.76 158.93 C 128.08 157.88 127.50 156.77 126.45 156.45 C 125.40 156.13 124.29 156.71 123.97 157.76 Z M 123.66 158.78 L 123.38 159.75 C 123.08 160.80 123.68 161.90 124.74 162.20 C 125.79 162.50 126.89 161.90 127.19 160.84 L 127.47 159.87 C 127.77 158.82 127.16 157.72 126.11 157.42 C 125.06 157.12 123.96 157.73 123.66 158.78 Z M 123.37 159.79 L 123.11 160.76 C 122.83 161.82 123.46 162.91 124.52 163.19 C 125.57 163.47 126.66 162.84 126.94 161.78 L 127.20 160.80 C 127.48 159.75 126.85 158.66 125.79 158.38 C 124.73 158.10 123.65 158.73 123.37 159.79 Z M 123.10 160.81 L 122.86 161.80 C 122.61 162.86 123.27 163.93 124.33 164.18 C 125.40 164.44 126.46 163.78 126.72 162.71 L 126.95 161.73 C 127.21 160.67 126.55 159.60 125.48 159.34 C 124.42 159.09 123.35 159.75 123.10 160.81 Z M 122.85 161.86 L 122.65 162.83 C 122.43 163.91 123.12 164.95 124.19 165.17 C 125.27 165.39 126.31 164.70 126.53 163.63 L 126.73 162.65 C 126.95 161.58 126.26 160.53 125.19 160.31 C 124.12 160.09 123.07 160.78 122.85 161.86 Z M 122.63 162.91 L 122.47 163.92 C 122.30 165.00 123.03 166.02 124.11 166.19 C 125.19 166.37 126.21 165.63 126.38 164.55 L 126.55 163.55 C 126.72 162.47 125.99 161.45 124.91 161.27 C 123.83 161.10 122.81 161.83 122.63 162.91 Z M 122.46 164.01 L 122.34 165.03 C 122.21 166.11 122.99 167.10 124.08 167.22 C 125.17 167.35 126.15 166.57 126.28 165.48 L 126.40 164.46 C 126.52 163.38 125.74 162.39 124.66 162.27 C 123.57 162.14 122.58 162.92 122.46 164.01 Z M 122.33 165.10 L 122.26 166.09 C 122.17 167.18 122.99 168.14 124.08 168.22 C 125.18 168.30 126.13 167.49 126.21 166.39 L 126.29 165.40 C 126.37 164.31 125.55 163.36 124.46 163.28 C 123.37 163.19 122.42 164.01 122.33 165.10 Z M 122.25 166.15 L 122.21 167.12 C 122.16 168.21 123.00 169.14 124.10 169.19 C 125.19 169.24 126.12 168.40 126.17 167.30 L 126.21 166.34 C 126.27 165.24 125.42 164.31 124.33 164.26 C 123.23 164.21 122.30 165.06 122.25 166.15 Z M 122.21 167.16 L 122.18 168.16 C 122.15 169.25 123.02 170.16 124.11 170.19 C 125.20 170.22 126.12 169.36 126.14 168.26 L 126.17 167.26 C 126.20 166.17 125.34 165.26 124.24 165.23 C 123.15 165.20 122.24 166.06 122.21 167.16 Z M 122.18 168.19 L 122.17 169.20 C 122.16 170.30 123.04 171.19 124.14 171.20 C 125.23 171.21 126.13 170.33 126.14 169.23 L 126.14 168.23 C 126.15 167.13 125.27 166.24 124.18 166.23 C 123.08 166.22 122.19 167.10 122.18 168.19 Z M 122.17 169.24 L 122.19 170.24 C 122.20 171.33 123.10 172.21 124.20 172.19 C 125.29 172.18 126.17 171.28 126.15 170.18 L 126.14 169.19 C 126.12 168.09 125.22 167.22 124.13 167.23 C 123.03 167.25 122.16 168.15 122.17 169.24 Z M 122.19 170.29 L 122.23 171.27 C 122.27 172.37 123.19 173.22 124.28 173.18 C 125.38 173.14 126.23 172.21 126.19 171.12 L 126.15 170.13 C 126.11 169.04 125.19 168.19 124.09 168.23 C 123.00 168.27 122.15 169.19 122.19 170.29 Z M 122.23 171.34 L 122.30 172.35 C 122.38 173.44 123.33 174.26 124.42 174.18 C 125.51 174.10 126.34 173.15 126.26 172.06 L 126.18 171.05 C 126.10 169.96 125.16 169.14 124.06 169.22 C 122.97 169.30 122.15 170.25 122.23 171.34 Z M 122.31 172.45 L 122.44 173.45 C 122.58 174.53 123.57 175.30 124.66 175.16 C 125.74 175.02 126.51 174.03 126.37 172.94 L 126.25 171.95 C 126.11 170.87 125.11 170.10 124.03 170.24 C 122.94 170.38 122.17 171.37 122.31 172.45 Z M 122.47 173.60 L 122.67 174.57 C 122.89 175.64 123.94 176.33 125.01 176.11 C 126.08 175.88 126.77 174.83 126.55 173.76 L 126.35 172.79 C 126.12 171.72 125.07 171.03 124.00 171.25 C 122.93 171.48 122.24 172.53 122.47 173.60 Z M 122.72 174.76 L 123.02 175.71 C 123.35 176.75 124.46 177.33 125.50 177.00 C 126.55 176.67 127.13 175.56 126.80 174.52 L 126.50 173.57 C 126.17 172.53 125.06 171.95 124.01 172.28 C 122.97 172.60 122.39 173.72 122.72 174.76 Z M 123.08 175.89 L 123.48 176.81 C 123.91 177.82 125.07 178.28 126.08 177.85 C 127.08 177.43 127.55 176.26 127.12 175.26 L 126.73 174.34 C 126.30 173.33 125.14 172.86 124.13 173.29 C 123.12 173.72 122.65 174.88 123.08 175.89 Z M 123.55 176.96 L 124.01 177.84 C 124.53 178.81 125.72 179.18 126.69 178.67 C 127.66 178.16 128.03 176.96 127.52 175.99 L 127.05 175.11 C 126.54 174.14 125.34 173.77 124.37 174.28 C 123.41 174.79 123.04 175.99 123.55 176.96 Z M 124.08 177.96 L 124.61 178.81 C 125.18 179.74 126.40 180.02 127.33 179.45 C 128.26 178.87 128.55 177.65 127.97 176.72 L 127.45 175.87 C 126.87 174.94 125.65 174.66 124.72 175.23 C 123.79 175.81 123.51 177.03 124.08 177.96 Z M 124.67 178.91 L 125.24 179.71 C 125.87 180.61 127.11 180.82 128.00 180.19 C 128.89 179.56 129.11 178.33 128.48 177.43 L 127.91 176.62 C 127.28 175.73 126.04 175.52 125.15 176.15 C 124.26 176.78 124.04 178.01 124.67 178.91 Z M 125.30 179.79 L 125.92 180.58 C 126.59 181.44 127.84 181.59 128.70 180.91 C 129.56 180.24 129.71 178.99 129.03 178.13 L 128.42 177.35 C 127.74 176.49 126.50 176.34 125.64 177.01 C 124.78 177.69 124.63 178.93 125.30 179.79 Z M 125.97 180.64 L 126.63 181.42 C 127.34 182.25 128.59 182.34 129.42 181.63 C 130.26 180.92 130.35 179.67 129.64 178.84 L 128.98 178.07 C 128.27 177.24 127.02 177.14 126.19 177.85 C 125.35 178.56 125.26 179.81 125.97 180.64 Z M 126.68 181.47 L 127.36 182.21 C 128.10 183.01 129.36 183.06 130.16 182.32 C 130.96 181.58 131.01 180.33 130.27 179.52 L 129.59 178.78 C 128.85 177.98 127.60 177.93 126.79 178.67 C 125.99 179.41 125.94 180.67 126.68 181.47 Z M 127.43 182.28 L 128.15 182.99 C 128.92 183.75 130.18 183.74 130.95 182.97 C 131.71 182.19 131.71 180.93 130.93 180.16 L 130.21 179.46 C 129.43 178.69 128.17 178.70 127.41 179.48 C 126.64 180.25 126.65 181.51 127.43 182.28 Z M 128.24 183.07 L 129.00 183.73 C 129.83 184.44 131.08 184.35 131.79 183.52 C 132.51 182.70 132.42 181.44 131.59 180.73 L 130.83 180.08 C 130.00 179.36 128.75 179.45 128.04 180.28 C 127.32 181.11 127.41 182.36 128.24 183.07 Z M 129.14 183.84 L 129.94 184.42 C 130.83 185.05 132.07 184.85 132.71 183.96 C 133.35 183.08 133.14 181.84 132.26 181.20 L 131.45 180.62 C 130.56 179.98 129.32 180.18 128.68 181.07 C 128.05 181.96 128.25 183.20 129.14 183.84 Z M 130.12 184.53 L 130.99 185.02 C 131.94 185.57 133.15 185.24 133.69 184.29 C 134.23 183.34 133.90 182.13 132.95 181.59 L 132.08 181.09 C 131.13 180.55 129.92 180.88 129.38 181.83 C 128.84 182.78 129.17 183.98 130.12 184.53 Z M 131.15 185.11 L 132.05 185.52 C 133.04 185.97 134.22 185.54 134.67 184.54 C 135.13 183.54 134.69 182.37 133.69 181.92 L 132.79 181.50 C 131.80 181.05 130.62 181.49 130.17 182.48 C 129.71 183.48 130.15 184.65 131.15 185.11 Z M 132.18 185.57 L 133.11 185.92 C 134.14 186.31 135.28 185.79 135.66 184.76 C 136.05 183.74 135.53 182.60 134.50 182.21 L 133.57 181.86 C 132.54 181.48 131.40 182.00 131.02 183.02 C 130.63 184.05 131.15 185.19 132.18 185.57 Z M 133.20 185.95 L 134.15 186.26 C 135.19 186.59 136.30 186.01 136.64 184.97 C 136.97 183.93 136.40 182.82 135.35 182.48 L 134.41 182.18 C 133.37 181.85 132.25 182.42 131.92 183.46 C 131.59 184.51 132.16 185.62 133.20 185.95 Z M 134.23 186.28 L 135.19 186.54 C 136.25 186.83 137.34 186.21 137.63 185.15 C 137.91 184.10 137.29 183.01 136.23 182.72 L 135.27 182.46 C 134.22 182.17 133.13 182.79 132.84 183.85 C 132.55 184.90 133.18 185.99 134.23 186.28 Z M 135.28 186.56 L 136.26 186.78 C 137.33 187.03 138.39 186.36 138.63 185.29 C 138.87 184.22 138.20 183.16 137.13 182.92 L 136.15 182.70 C 135.08 182.46 134.02 183.13 133.78 184.20 C 133.54 185.26 134.21 186.32 135.28 186.56 Z M 136.35 186.80 L 137.34 186.98 C 138.41 187.17 139.44 186.46 139.63 185.38 C 139.83 184.30 139.11 183.27 138.03 183.08 L 137.04 182.90 C 135.97 182.71 134.94 183.43 134.75 184.50 C 134.55 185.58 135.27 186.61 136.35 186.80 Z M 137.42 186.99 L 138.41 187.13 C 139.49 187.27 140.49 186.51 140.64 185.43 C 140.78 184.34 140.02 183.35 138.94 183.20 L 137.95 183.07 C 136.87 182.92 135.87 183.68 135.72 184.76 C 135.58 185.85 136.34 186.85 137.42 186.99 Z M 138.48 187.13 L 139.48 187.23 C 140.57 187.34 141.54 186.54 141.64 185.45 C 141.75 184.36 140.95 183.39 139.86 183.29 L 138.87 183.19 C 137.78 183.09 136.81 183.88 136.70 184.97 C 136.60 186.06 137.39 187.03 138.48 187.13 Z M 139.54 187.24 L 140.54 187.30 C 141.63 187.37 142.58 186.54 142.65 185.45 C 142.72 184.36 141.89 183.42 140.80 183.35 L 139.80 183.28 C 138.71 183.21 137.76 184.04 137.69 185.13 C 137.62 186.22 138.45 187.17 139.54 187.24 Z M 140.59 187.30 L 141.61 187.34 C 142.70 187.38 143.62 186.53 143.66 185.44 C 143.70 184.34 142.85 183.42 141.76 183.38 L 140.74 183.35 C 139.65 183.30 138.73 184.16 138.69 185.25 C 138.65 186.34 139.50 187.26 140.59 187.30 Z M 141.65 187.34 L 142.65 187.36 C 143.75 187.38 144.65 186.51 144.67 185.41 C 144.69 184.32 143.82 183.42 142.72 183.40 L 141.72 183.38 C 140.62 183.36 139.72 184.23 139.70 185.33 C 139.68 186.42 140.55 187.32 141.65 187.34 Z M 142.68 187.36 L 143.67 187.37 C 144.77 187.37 145.66 186.49 145.66 185.40 C 145.67 184.30 144.79 183.41 143.69 183.40 L 142.70 183.40 C 141.61 183.39 140.71 184.28 140.71 185.37 C 140.70 186.46 141.59 187.36 142.68 187.36 Z M 143.68 187.37 L 144.67 187.37 C 145.77 187.37 146.65 186.48 146.65 185.39 C 146.65 184.29 145.77 183.40 144.67 183.40 L 143.68 183.40 C 142.59 183.40 141.70 184.29 141.70 185.38 C 141.70 186.48 142.59 187.37 143.68 187.37 Z M 144.68 187.37 L 145.68 187.36 C 146.77 187.36 147.65 186.47 147.65 185.37 C 147.65 184.28 146.76 183.40 145.66 183.40 L 144.66 183.40 C 143.57 183.41 142.69 184.30 142.69 185.39 C 142.70 186.49 143.59 187.37 144.68 187.37 Z M 145.70 187.36 L 146.70 187.34 C 147.79 187.33 148.66 186.42 148.64 185.33 C 148.62 184.24 147.72 183.37 146.63 183.38 L 145.64 183.40 C 144.54 183.42 143.67 184.32 143.69 185.41 C 143.71 186.51 144.61 187.38 145.70 187.36 Z M 146.74 187.34 L 147.74 187.30 C 148.84 187.26 149.69 186.34 149.65 185.25 C 149.60 184.16 148.68 183.30 147.59 183.35 L 146.59 183.39 C 145.49 183.43 144.64 184.35 144.68 185.44 C 144.73 186.53 145.65 187.39 146.74 187.34 Z M 147.80 187.30 L 148.82 187.23 C 149.91 187.16 150.73 186.21 150.66 185.12 C 150.58 184.03 149.64 183.21 148.54 183.28 L 147.53 183.35 C 146.44 183.42 145.62 184.37 145.69 185.46 C 145.77 186.55 146.71 187.38 147.80 187.30 Z M 148.90 187.22 L 149.91 187.11 C 150.99 186.99 151.78 186.01 151.65 184.93 C 151.53 183.84 150.56 183.06 149.47 183.18 L 148.46 183.29 C 147.38 183.41 146.59 184.39 146.71 185.47 C 146.83 186.56 147.81 187.34 148.90 187.22 Z M 150.02 187.10 L 150.99 186.93 C 152.07 186.75 152.79 185.72 152.61 184.65 C 152.42 183.57 151.40 182.84 150.32 183.03 L 149.35 183.19 C 148.28 183.38 147.55 184.40 147.74 185.48 C 147.92 186.56 148.94 187.28 150.02 187.10 Z M 151.15 186.90 L 152.13 186.64 C 153.19 186.37 153.83 185.29 153.55 184.23 C 153.28 183.17 152.20 182.54 151.14 182.81 L 150.16 183.06 C 149.10 183.34 148.47 184.42 148.74 185.47 C 149.01 186.53 150.09 187.17 151.15 186.90 Z M 152.31 186.59 L 153.24 186.25 C 154.27 185.88 154.81 184.75 154.44 183.72 C 154.07 182.69 152.93 182.16 151.90 182.53 L 150.97 182.86 C 149.94 183.23 149.40 184.37 149.77 185.40 C 150.14 186.42 151.28 186.96 152.31 186.59 Z M 153.38 186.19 L 154.28 185.79 C 155.28 185.35 155.72 184.17 155.27 183.18 C 154.83 182.18 153.66 181.73 152.66 182.18 L 151.76 182.58 C 150.77 183.03 150.32 184.20 150.77 185.20 C 151.21 186.20 152.39 186.64 153.38 186.19 Z M 154.37 185.75 L 155.24 185.30 C 156.21 184.80 156.60 183.61 156.10 182.64 C 155.60 181.67 154.41 181.28 153.44 181.78 L 152.57 182.23 C 151.59 182.72 151.21 183.92 151.71 184.89 C 152.21 185.86 153.40 186.25 154.37 185.75 Z M 155.30 185.27 L 156.17 184.78 C 157.13 184.25 157.47 183.05 156.93 182.09 C 156.40 181.14 155.19 180.80 154.24 181.33 L 153.37 181.81 C 152.42 182.35 152.08 183.55 152.61 184.51 C 153.14 185.46 154.35 185.80 155.30 185.27 Z M 156.22 184.76 L 157.09 184.24 C 158.03 183.68 158.34 182.47 157.78 181.53 C 157.23 180.59 156.01 180.28 155.07 180.84 L 154.20 181.35 C 153.26 181.91 152.95 183.13 153.50 184.07 C 154.06 185.01 155.28 185.32 156.22 184.76 Z M 157.12 184.22 L 157.96 183.70 C 158.89 183.13 159.18 181.91 158.61 180.98 C 158.04 180.05 156.82 179.76 155.89 180.33 L 155.04 180.85 C 154.11 181.43 153.82 182.65 154.39 183.58 C 154.97 184.51 156.19 184.80 157.12 184.22 Z M 157.99 183.69 L 158.82 183.15 C 159.75 182.56 160.01 181.34 159.43 180.42 C 158.84 179.50 157.61 179.23 156.69 179.82 L 155.86 180.35 C 154.94 180.94 154.67 182.16 155.26 183.09 C 155.85 184.01 157.07 184.28 157.99 183.69 Z M 158.86 183.13 L 159.70 182.56 C 160.61 181.95 160.85 180.72 160.24 179.81 C 159.63 178.91 158.40 178.67 157.49 179.28 L 156.65 179.84 C 155.74 180.45 155.50 181.68 156.12 182.59 C 156.73 183.50 157.96 183.74 158.86 183.13 Z M 159.75 182.53 L 160.56 181.95 C 161.45 181.31 161.66 180.07 161.02 179.18 C 160.39 178.29 159.15 178.09 158.26 178.73 L 157.44 179.31 C 156.55 179.95 156.35 181.18 156.99 182.07 C 157.62 182.96 158.86 183.17 159.75 182.53 Z M 160.61 181.91 L 161.39 181.32 C 162.26 180.66 162.43 179.41 161.77 178.54 C 161.11 177.67 159.86 177.50 158.99 178.17 L 158.21 178.76 C 157.34 179.42 157.17 180.67 157.84 181.54 C 158.50 182.41 159.74 182.58 160.61 181.91 Z M 161.44 181.28 L 162.22 180.65 C 163.07 179.97 163.20 178.72 162.52 177.87 C 161.83 177.02 160.58 176.88 159.73 177.57 L 158.95 178.20 C 158.10 178.89 157.96 180.13 158.65 180.99 C 159.34 181.84 160.59 181.97 161.44 181.28 Z M 162.26 180.62 L 163.04 179.96 C 163.87 179.25 163.97 178.00 163.26 177.16 C 162.55 176.33 161.30 176.23 160.47 176.94 L 159.69 177.60 C 158.86 178.31 158.76 179.56 159.47 180.40 C 160.18 181.23 161.43 181.33 162.26 180.62 Z M 163.08 179.93 L 163.80 179.28 C 164.61 178.55 164.68 177.30 163.95 176.48 C 163.22 175.66 161.97 175.59 161.16 176.32 L 160.43 176.97 C 159.62 177.70 159.55 178.95 160.28 179.77 C 161.01 180.58 162.26 180.65 163.08 179.93 Z M 163.82 179.26 L 164.54 178.59 C 165.35 177.85 165.40 176.59 164.65 175.79 C 163.91 174.98 162.66 174.93 161.85 175.68 L 161.13 176.35 C 160.33 177.09 160.28 178.34 161.02 179.15 C 161.76 179.95 163.02 180.00 163.82 179.26 Z M 164.56 178.58 L 165.29 177.89 C 166.09 177.13 166.13 175.88 165.38 175.08 C 164.63 174.28 163.37 174.25 162.57 175.00 L 161.84 175.69 C 161.04 176.44 161.00 177.70 161.75 178.50 C 162.50 179.29 163.76 179.33 164.56 178.58 Z M 165.30 177.88 L 166.05 177.17 C 166.85 176.41 166.89 175.16 166.13 174.36 C 165.38 173.56 164.12 173.53 163.33 174.28 L 162.57 175.00 C 161.77 175.75 161.74 177.01 162.49 177.81 C 163.25 178.60 164.50 178.64 165.30 177.88 Z M 166.05 177.17 L 166.77 176.49 C 167.57 175.74 167.61 174.48 166.85 173.69 C 166.10 172.89 164.84 172.85 164.04 173.60 L 163.33 174.28 C 162.53 175.03 162.49 176.29 163.25 177.09 C 164.00 177.89 165.26 177.92 166.05 177.17 Z M 166.78 176.49 L 167.51 175.80 C 168.30 175.04 168.33 173.78 167.57 172.99 C 166.82 172.19 165.56 172.16 164.76 172.92 L 164.04 173.61 C 163.24 174.37 163.21 175.62 163.97 176.42 C 164.73 177.21 165.98 177.25 166.78 176.49 Z M 167.52 175.78 L 168.25 175.07 C 169.03 174.31 169.05 173.05 168.28 172.26 C 167.51 171.48 166.25 171.46 165.47 172.23 L 164.74 172.93 C 163.96 173.70 163.94 174.96 164.71 175.75 C 165.48 176.53 166.74 176.55 167.52 175.78 Z M 168.28 175.05 L 168.98 174.33 C 169.75 173.55 169.74 172.29 168.95 171.52 C 168.17 170.75 166.91 170.76 166.14 171.54 L 165.44 172.26 C 164.67 173.04 164.68 174.30 165.46 175.07 C 166.25 175.84 167.51 175.83 168.28 175.05 Z M 169.02 174.29 L 169.71 173.54 C 170.46 172.74 170.41 171.48 169.60 170.73 C 168.80 169.98 167.54 170.03 166.79 170.84 L 166.10 171.58 C 165.35 172.39 165.40 173.65 166.21 174.40 C 167.01 175.14 168.27 175.10 169.02 174.29 Z M 169.75 173.50 L 170.42 172.74 C 171.14 171.91 171.05 170.65 170.22 169.93 C 169.39 169.20 168.13 169.29 167.41 170.12 L 166.75 170.88 C 166.02 171.71 166.11 172.97 166.94 173.69 C 167.77 174.42 169.03 174.33 169.75 173.50 Z M 170.45 172.71 L 171.08 171.94 C 171.79 171.09 171.67 169.83 170.82 169.13 C 169.97 168.42 168.71 168.54 168.01 169.39 L 167.37 170.16 C 166.67 171.01 166.79 172.27 167.64 172.97 C 168.49 173.67 169.75 173.55 170.45 172.71 Z M 171.11 171.91 L 171.73 171.14 C 172.41 170.27 172.27 169.01 171.40 168.33 C 170.53 167.64 169.28 167.79 168.59 168.65 L 167.98 169.42 C 167.29 170.29 167.44 171.55 168.30 172.23 C 169.17 172.92 170.43 172.77 171.11 171.91 Z M 171.75 171.11 L 172.36 170.32 C 173.03 169.44 172.86 168.18 171.98 167.51 C 171.10 166.84 169.85 167.00 169.18 167.88 L 168.57 168.68 C 167.90 169.56 168.06 170.81 168.94 171.48 C 169.82 172.16 171.08 171.99 171.75 171.11 Z M 172.38 170.29 L 172.97 169.48 C 173.63 168.59 173.44 167.34 172.55 166.68 C 171.66 166.02 170.41 166.21 169.75 167.10 L 169.15 167.91 C 168.50 168.80 168.68 170.05 169.57 170.71 C 170.46 171.37 171.72 171.18 172.38 170.29 Z M 173.00 169.45 L 173.58 168.64 C 174.22 167.74 174.01 166.49 173.10 165.84 C 172.20 165.20 170.95 165.41 170.31 166.32 L 169.73 167.13 C 169.09 168.03 169.30 169.28 170.20 169.93 C 171.10 170.57 172.35 170.36 173.00 169.45 Z M 173.60 168.61 L 174.16 167.79 C 174.78 166.87 174.55 165.62 173.63 165.00 C 172.72 164.37 171.47 164.61 170.84 165.53 L 170.28 166.35 C 169.66 167.26 169.89 168.51 170.81 169.14 C 171.73 169.76 172.98 169.53 173.60 168.61 Z M 174.19 167.75 L 174.74 166.90 C 175.34 165.97 175.08 164.73 174.15 164.12 C 173.22 163.52 171.97 163.78 171.37 164.71 L 170.82 165.56 C 170.21 166.49 170.48 167.74 171.41 168.34 C 172.34 168.95 173.58 168.68 174.19 167.75 Z M 174.77 166.86 L 175.30 166.00 C 175.88 165.06 175.59 163.82 174.64 163.23 C 173.70 162.65 172.46 162.94 171.87 163.89 L 171.34 164.75 C 170.76 165.70 171.05 166.94 172.00 167.52 C 172.94 168.10 174.18 167.81 174.77 166.86 Z M 175.33 165.96 L 175.83 165.10 C 176.39 164.14 176.06 162.90 175.10 162.34 C 174.14 161.78 172.90 162.11 172.34 163.07 L 171.84 163.93 C 171.28 164.89 171.61 166.13 172.57 166.69 C 173.53 167.25 174.77 166.92 175.33 165.96 Z M 175.86 165.05 L 176.32 164.19 C 176.86 163.21 176.49 161.99 175.52 161.45 C 174.54 160.92 173.31 161.28 172.78 162.26 L 172.31 163.12 C 171.78 164.10 172.14 165.32 173.12 165.86 C 174.10 166.39 175.32 166.03 175.86 165.05 Z M 176.36 164.13 L 176.82 163.21 C 177.32 162.21 176.92 161.00 175.93 160.50 C 174.93 159.99 173.72 160.39 173.22 161.39 L 172.75 162.32 C 172.25 163.31 172.65 164.53 173.64 165.03 C 174.64 165.53 175.85 165.13 176.36 164.13 Z M 176.85 163.16 L 177.28 162.24 C 177.75 161.23 177.32 160.03 176.30 159.56 C 175.29 159.08 174.09 159.52 173.62 160.53 L 173.19 161.44 C 172.72 162.45 173.15 163.66 174.16 164.13 C 175.17 164.60 176.38 164.17 176.85 163.16 Z M 177.30 162.20 L 177.69 161.31 C 178.14 160.28 177.68 159.09 176.65 158.64 C 175.63 158.19 174.44 158.66 173.99 159.68 L 173.60 160.57 C 173.15 161.59 173.61 162.79 174.63 163.24 C 175.66 163.69 176.85 163.22 177.30 162.20 Z M 177.71 161.27 L 178.09 160.36 C 178.52 159.32 178.03 158.14 177.00 157.71 C 175.97 157.28 174.78 157.77 174.35 158.80 L 173.97 159.71 C 173.54 160.75 174.03 161.93 175.06 162.36 C 176.09 162.79 177.28 162.30 177.71 161.27 Z M 178.11 160.32 L 178.48 159.39 C 178.89 158.35 178.38 157.17 177.33 156.76 C 176.29 156.35 175.12 156.86 174.70 157.90 L 174.34 158.83 C 173.93 159.87 174.44 161.05 175.48 161.46 C 176.52 161.87 177.70 161.36 178.11 160.32 Z M 178.49 159.34 L 178.84 158.42 C 179.22 157.36 178.68 156.20 177.63 155.81 C 176.58 155.43 175.41 155.96 175.03 157.02 L 174.69 157.94 C 174.30 159.00 174.84 160.16 175.89 160.55 C 176.94 160.93 178.11 160.39 178.49 159.34 Z M 178.85 158.36 L 179.17 157.44 C 179.52 156.38 178.95 155.23 177.89 154.87 C 176.83 154.51 175.68 155.08 175.32 156.15 L 175.01 157.07 C 174.65 158.13 175.22 159.28 176.28 159.64 C 177.34 160.00 178.50 159.43 178.85 158.36 Z M 179.19 157.37 L 179.46 156.44 C 179.78 155.37 179.16 154.24 178.09 153.92 C 177.01 153.61 175.88 154.22 175.56 155.30 L 175.29 156.22 C 174.98 157.30 175.59 158.43 176.67 158.74 C 177.75 159.06 178.87 158.44 179.19 157.37 Z M 179.50 156.31 L 179.71 155.34 C 179.96 154.24 179.27 153.16 178.18 152.91 C 177.08 152.67 175.99 153.36 175.75 154.45 L 175.53 155.43 C 175.28 156.52 175.97 157.61 177.07 157.85 C 178.16 158.10 179.25 157.41 179.50 156.31 Z M 179.75 155.17 L 179.89 154.12 C 180.04 153.01 179.26 151.99 178.14 151.84 C 177.03 151.69 176.01 152.47 175.86 153.58 L 175.72 154.62 C 175.57 155.74 176.35 156.76 177.46 156.91 C 178.57 157.06 179.60 156.28 179.75 155.17 Z M 179.91 153.93 L 179.95 152.96 C 179.99 151.84 179.12 150.89 178.00 150.85 C 176.87 150.80 175.93 151.67 175.88 152.80 L 175.84 153.77 C 175.79 154.89 176.67 155.84 177.79 155.88 C 178.91 155.93 179.86 155.06 179.91 153.93 Z M 179.94 152.75 L 179.88 151.75 C 179.81 150.63 178.84 149.78 177.72 149.85 C 176.60 149.92 175.75 150.88 175.82 152.01 L 175.88 153.01 C 175.95 154.13 176.92 154.98 178.04 154.91 C 179.16 154.84 180.01 153.88 179.94 152.75 Z M 179.85 151.49 L 179.65 150.49 C 179.44 149.39 178.37 148.67 177.27 148.89 C 176.16 149.10 175.44 150.17 175.66 151.27 L 175.85 152.27 C 176.07 153.37 177.14 154.09 178.24 153.88 C 179.34 153.66 180.06 152.59 179.85 151.49 Z M 179.56 150.17 L 179.22 149.24 C 178.83 148.19 177.65 147.65 176.60 148.04 C 175.54 148.43 175.01 149.61 175.40 150.66 L 175.75 151.59 C 176.14 152.65 177.31 153.19 178.37 152.79 C 179.42 152.40 179.96 151.23 179.56 150.17 Z M 179.06 148.91 L 178.58 148.11 C 178.01 147.14 176.76 146.82 175.79 147.39 C 174.82 147.96 174.50 149.21 175.08 150.18 L 175.55 150.99 C 176.13 151.96 177.38 152.28 178.35 151.70 C 179.31 151.13 179.63 149.88 179.06 148.91 Z M 178.41 147.86 L 177.80 147.11 C 177.09 146.23 175.80 146.10 174.93 146.81 C 174.06 147.52 173.93 148.81 174.64 149.68 L 175.25 150.43 C 175.96 151.30 177.25 151.43 178.12 150.72 C 178.99 150.01 179.12 148.73 178.41 147.86 Z M 177.64 146.93 L 176.90 146.22 C 176.10 145.44 174.81 145.46 174.02 146.27 C 173.24 147.07 173.26 148.36 174.07 149.15 L 174.80 149.86 C 175.61 150.64 176.90 150.62 177.68 149.81 C 178.47 149.00 178.44 147.71 177.64 146.93 Z M 176.77 146.10 L 175.94 145.42 C 175.06 144.71 173.78 144.85 173.07 145.72 C 172.36 146.60 172.49 147.88 173.37 148.59 L 174.20 149.27 C 175.08 149.98 176.36 149.84 177.07 148.97 C 177.78 148.09 177.64 146.81 176.77 146.10 Z M 175.84 145.35 L 174.99 144.74 C 174.07 144.09 172.80 144.30 172.15 145.21 C 171.49 146.13 171.70 147.40 172.62 148.06 L 173.47 148.66 C 174.38 149.32 175.65 149.11 176.31 148.19 C 176.96 147.28 176.75 146.00 175.84 145.35 Z M 174.91 144.69 L 174.03 144.12 C 173.09 143.51 171.83 143.77 171.21 144.72 C 170.60 145.66 170.87 146.92 171.81 147.54 L 172.69 148.11 C 173.64 148.72 174.90 148.45 175.51 147.51 C 176.12 146.57 175.86 145.30 174.91 144.69 Z M 173.97 144.08 L 173.08 143.55 C 172.12 142.98 170.87 143.29 170.29 144.26 C 169.71 145.22 170.03 146.47 171.00 147.05 L 171.88 147.58 C 172.84 148.15 174.10 147.84 174.67 146.87 C 175.25 145.90 174.93 144.65 173.97 144.08 Z M 173.02 143.52 L 172.18 143.05 C 171.19 142.51 169.95 142.87 169.41 143.86 C 168.87 144.84 169.23 146.08 170.22 146.62 L 171.06 147.09 C 172.05 147.63 173.29 147.27 173.83 146.28 C 174.37 145.29 174.01 144.06 173.02 143.52 Z M 172.10 143.01 L 171.20 142.57 C 170.19 142.07 168.97 142.48 168.47 143.49 C 167.97 144.50 168.39 145.72 169.39 146.22 L 170.29 146.66 C 171.30 147.16 172.52 146.75 173.02 145.74 C 173.52 144.73 173.11 143.51 172.10 143.01 Z M 171.09 142.52 L 170.10 142.10 C 169.07 141.66 167.87 142.15 167.43 143.18 C 167.00 144.21 167.48 145.41 168.51 145.85 L 169.50 146.26 C 170.54 146.70 171.73 146.22 172.17 145.18 C 172.61 144.15 172.12 142.96 171.09 142.52 Z M 169.98 142.06 L 169.10 141.75 C 168.05 141.38 166.89 141.94 166.52 143.00 C 166.15 144.06 166.71 145.21 167.76 145.58 L 168.64 145.89 C 169.70 146.26 170.85 145.70 171.22 144.64 C 171.59 143.58 171.04 142.43 169.98 142.06 Z M 169.03 141.73 L 168.16 141.46 C 167.09 141.13 165.95 141.73 165.62 142.80 C 165.29 143.87 165.89 145.01 166.96 145.33 L 167.84 145.60 C 168.91 145.93 170.04 145.33 170.37 144.26 C 170.70 143.19 170.10 142.06 169.03 141.73 Z M 168.13 141.46 L 167.18 141.18 C 166.11 140.86 164.98 141.47 164.66 142.54 C 164.35 143.61 164.96 144.74 166.03 145.05 L 166.99 145.34 C 168.06 145.65 169.18 145.04 169.50 143.97 C 169.82 142.90 169.21 141.78 168.13 141.46 Z M 167.16 141.17 L 166.19 140.90 C 165.12 140.59 164.00 141.21 163.70 142.28 C 163.39 143.35 164.01 144.47 165.08 144.78 L 166.05 145.05 C 167.12 145.36 168.24 144.74 168.54 143.67 C 168.85 142.60 168.23 141.48 167.16 141.17 Z M 166.17 140.90 L 165.34 140.67 C 164.27 140.37 163.16 141.00 162.87 142.08 C 162.57 143.15 163.20 144.26 164.27 144.55 L 165.10 144.78 C 166.17 145.07 167.28 144.44 167.58 143.37 C 167.87 142.30 167.24 141.19 166.17 140.90 Z M 165.31 140.67 L 164.50 140.46 C 163.42 140.18 162.33 140.82 162.05 141.89 C 161.77 142.97 162.41 144.06 163.49 144.34 L 164.30 144.55 C 165.38 144.83 166.47 144.19 166.75 143.11 C 167.03 142.04 166.38 140.95 165.31 140.67 Z M 164.46 140.45 L 163.46 140.21 C 162.38 139.95 161.30 140.62 161.04 141.69 C 160.78 142.77 161.45 143.85 162.52 144.10 L 163.52 144.34 C 164.60 144.60 165.68 143.94 165.94 142.87 C 166.20 141.79 165.53 140.71 164.46 140.45 Z M 163.43 140.21 L 162.21 139.94 C 161.14 139.70 160.07 140.37 159.83 141.45 C 159.59 142.52 160.26 143.59 161.34 143.83 L 162.55 144.11 C 163.63 144.35 164.69 143.67 164.94 142.60 C 165.18 141.52 164.50 140.45 163.43 140.21 Z M 162.20 139.94 L 161.30 139.75 C 160.22 139.51 159.16 140.20 158.93 141.27 C 158.70 142.35 159.38 143.41 160.46 143.64 L 161.36 143.83 C 162.43 144.06 163.49 143.38 163.72 142.31 C 163.95 141.23 163.27 140.17 162.20 139.94 Z M 161.29 139.75 L 160.30 139.54 C 159.23 139.31 158.17 140.00 157.95 141.08 C 157.72 142.15 158.41 143.20 159.48 143.43 L 160.47 143.64 C 161.54 143.86 162.60 143.17 162.82 142.10 C 163.05 141.03 162.36 139.97 161.29 139.75 Z M 160.29 139.54 L 159.26 139.33 C 158.19 139.11 157.14 139.80 156.92 140.87 C 156.70 141.95 157.39 142.99 158.46 143.21 L 159.49 143.43 C 160.57 143.65 161.62 142.96 161.84 141.88 C 162.06 140.81 161.37 139.76 160.29 139.54 Z M 159.25 139.33 L 158.21 139.12 C 157.14 138.91 156.10 139.60 155.88 140.68 C 155.67 141.75 156.36 142.79 157.43 143.00 L 158.47 143.21 C 159.54 143.43 160.59 142.73 160.80 141.66 C 161.02 140.59 160.32 139.55 159.25 139.33 Z M 158.20 139.13 L 157.19 138.93 C 156.12 138.72 155.08 139.42 154.87 140.49 C 154.67 141.56 155.37 142.60 156.44 142.81 L 157.45 143.00 C 158.52 143.21 159.55 142.51 159.76 141.44 C 159.97 140.37 159.27 139.33 158.20 139.13 Z M 157.17 138.93 L 156.22 138.75 C 155.15 138.56 154.12 139.26 153.92 140.33 C 153.72 141.40 154.43 142.43 155.50 142.63 L 156.45 142.80 C 157.52 143.00 158.55 142.30 158.75 141.23 C 158.95 140.16 158.24 139.13 157.17 138.93 Z M 156.19 138.77 L 155.00 138.57 C 153.94 138.38 152.93 139.09 152.75 140.15 C 152.57 141.22 153.28 142.22 154.34 142.41 L 155.53 142.61 C 156.59 142.79 157.60 142.08 157.78 141.02 C 157.96 139.96 157.25 138.95 156.19 138.77 Z M 154.96 138.59 L 153.94 138.44 C 152.89 138.28 151.92 139.00 151.76 140.05 C 151.61 141.09 152.33 142.07 153.37 142.22 L 154.39 142.38 C 155.43 142.53 156.41 141.81 156.56 140.77 C 156.72 139.73 156.00 138.75 154.96 138.59 Z M 153.88 138.47 L 152.98 138.36 C 151.95 138.23 151.01 138.96 150.88 139.99 C 150.76 141.02 151.49 141.96 152.52 142.08 L 153.43 142.20 C 154.45 142.32 155.39 141.59 155.52 140.56 C 155.64 139.53 154.91 138.60 153.88 138.47 Z M 152.92 138.39 L 152.06 138.31 C 151.05 138.21 150.15 138.96 150.06 139.97 C 149.96 140.98 150.71 141.88 151.72 141.97 L 152.57 142.05 C 153.59 142.15 154.48 141.41 154.58 140.39 C 154.67 139.38 153.93 138.48 152.92 138.39 Z M 152.01 138.34 L 151.05 138.28 C 150.06 138.21 149.20 138.96 149.13 139.95 C 149.06 140.95 149.81 141.81 150.81 141.87 L 151.77 141.94 C 152.76 142.01 153.62 141.26 153.69 140.26 C 153.76 139.27 153.01 138.41 152.01 138.34 Z M 151.02 138.31 L 150.02 138.26 C 149.05 138.22 148.22 138.97 148.17 139.94 C 148.12 140.92 148.88 141.74 149.85 141.79 L 150.85 141.84 C 151.82 141.89 152.65 141.14 152.69 140.16 C 152.74 139.19 151.99 138.36 151.02 138.31 Z M 150.00 138.30 L 148.99 138.26 C 148.04 138.23 147.23 138.98 147.20 139.93 C 147.17 140.88 147.91 141.68 148.87 141.72 L 149.87 141.75 C 150.83 141.79 151.63 141.04 151.66 140.09 C 151.70 139.14 150.95 138.33 150.00 138.30 Z M 148.98 138.30 L 148.12 138.27 C 147.18 138.24 146.40 138.98 146.37 139.91 C 146.35 140.85 147.08 141.63 148.01 141.66 L 148.88 141.68 C 149.81 141.71 150.59 140.98 150.62 140.04 C 150.65 139.11 149.91 138.33 148.98 138.30 Z"
      fill="black"
      fill-rule="nonzero" /></svg>