<svg xmlns="http://www.w3.org/2000/svg" width="300" height="300" viewBox="0 0 300 300">
<path d="M 159.27 147.42 L 158.50 146.79 C 157.80 146.23 156.79 146.34 156.23 147.04 C 155.67 147.73 155.78 148.75 156.47 149.31 L 157.25 149.93 C 157.95 150.49 158.96 150.38 159.52 149.69 C 160.08 148.99 159.97 147.98 159.27 147.42 Z M 158.52 146.80 L 157.76 146.16 C 157.07 145.59 156.04 145.68 155.47 146.37 C 154.90 147.06 154.99 148.08 155.68 148.66 L 156.45 149.30 C 157.14 149.87 158.16 149.78 158.73 149.09 C 159.31 148.40 159.21 147.38 158.52 146.80 Z M 157.80 146.19 L 157.06 145.53 C 156.38 144.93 155.35 144.99 154.75 145.66 C 154.15 146.33 154.21 147.36 154.89 147.96 L 155.63 148.63 C 156.30 149.23 157.34 149.17 157.93 148.49 C 158.53 147.82 158.47 146.79 157.80 146.19 Z M 157.12 145.57 L 156.41 144.88 C 155.77 144.24 154.73 144.25 154.09 144.90 C 153.46 145.54 153.47 146.58 154.11 147.22 L 154.82 147.91 C 155.47 148.55 156.50 148.54 157.14 147.89 C 157.77 147.25 157.77 146.21 157.12 145.57 Z M 156.48 144.93 L 155.81 144.20 C 155.19 143.53 154.15 143.48 153.48 144.10 C 152.81 144.71 152.76 145.76 153.37 146.43 L 154.05 147.16 C 154.66 147.83 155.71 147.88 156.38 147.26 C 157.05 146.65 157.10 145.60 156.48 144.93 Z M 155.87 144.25 L 155.23 143.48 C 154.64 142.77 153.59 142.68 152.89 143.27 C 152.18 143.85 152.08 144.90 152.67 145.61 L 153.32 146.38 C 153.90 147.09 154.95 147.18 155.66 146.59 C 156.36 146.00 156.46 144.96 155.87 144.25 Z M 155.28 143.53 L 154.67 142.73 C 154.11 141.99 153.05 141.85 152.32 142.42 C 151.59 142.98 151.45 144.03 152.01 144.77 L 152.62 145.56 C 153.18 146.30 154.23 146.44 154.97 145.87 C 155.70 145.31 155.84 144.26 155.28 143.53 Z M 154.71 142.77 L 154.16 142.00 C 153.62 141.24 152.57 141.07 151.81 141.61 C 151.05 142.15 150.88 143.20 151.42 143.96 L 151.97 144.73 C 152.51 145.49 153.56 145.66 154.32 145.12 C 155.08 144.58 155.25 143.52 154.71 142.77 Z M 154.19 142.02 L 153.64 141.21 C 153.11 140.44 152.05 140.25 151.28 140.78 C 150.50 141.31 150.31 142.36 150.84 143.13 L 151.39 143.94 C 151.92 144.71 152.98 144.91 153.75 144.38 C 154.52 143.85 154.72 142.79 154.19 142.02 Z M 153.65 141.22 L 153.08 140.37 C 152.55 139.59 151.49 139.38 150.71 139.91 C 149.93 140.43 149.72 141.49 150.25 142.28 L 150.82 143.13 C 151.35 143.91 152.41 144.12 153.19 143.59 C 153.97 143.06 154.18 142.00 153.65 141.22 Z M 153.08 140.36 L 152.49 139.49 C 151.96 138.70 150.89 138.50 150.11 139.03 C 149.32 139.56 149.12 140.63 149.65 141.42 L 150.24 142.28 C 150.77 143.07 151.84 143.27 152.62 142.74 C 153.41 142.21 153.61 141.14 153.08 140.36 Z M 152.49 139.47 L 151.92 138.65 C 151.38 137.86 150.30 137.67 149.52 138.21 C 148.74 138.75 148.54 139.83 149.08 140.61 L 149.65 141.43 C 150.20 142.22 151.27 142.41 152.05 141.87 C 152.84 141.33 153.03 140.25 152.49 139.47 Z M 151.91 138.62 L 151.31 137.79 C 150.75 137.01 149.67 136.83 148.89 137.39 C 148.12 137.95 147.94 139.03 148.50 139.81 L 149.10 140.64 C 149.65 141.42 150.74 141.59 151.51 141.03 C 152.29 140.48 152.47 139.39 151.91 138.62 Z M 151.29 137.74 L 150.68 136.94 C 150.09 136.17 149.00 136.02 148.24 136.61 C 147.47 137.19 147.32 138.28 147.91 139.04 L 148.52 139.85 C 149.10 140.61 150.19 140.76 150.96 140.18 C 151.72 139.60 151.87 138.51 151.29 137.74 Z M 150.64 136.88 L 150.02 136.13 C 149.41 135.38 148.31 135.28 147.56 135.89 C 146.82 136.50 146.71 137.60 147.32 138.35 L 147.94 139.10 C 148.55 139.85 149.66 139.95 150.40 139.34 C 151.15 138.73 151.25 137.63 150.64 136.88 Z M 149.95 136.04 L 149.24 135.28 C 148.58 134.57 147.47 134.53 146.77 135.20 C 146.06 135.86 146.02 136.96 146.68 137.67 L 147.39 138.43 C 148.05 139.14 149.16 139.18 149.87 138.52 C 150.58 137.86 150.61 136.75 149.95 136.04 Z M 149.11 135.15 L 148.37 134.50 C 147.64 133.87 146.53 133.94 145.89 134.68 C 145.25 135.41 145.33 136.52 146.06 137.15 L 146.81 137.80 C 147.54 138.44 148.65 138.36 149.29 137.63 C 149.92 136.90 149.85 135.79 149.11 135.15 Z M 148.17 134.35 L 147.36 133.83 C 146.54 133.30 145.45 133.54 144.92 134.35 C 144.40 135.17 144.63 136.26 145.45 136.78 L 146.26 137.31 C 147.08 137.83 148.17 137.60 148.69 136.78 C 149.22 135.96 148.98 134.88 148.17 134.35 Z M 147.10 133.69 L 146.20 133.30 C 145.31 132.91 144.27 133.32 143.88 134.21 C 143.50 135.11 143.91 136.15 144.80 136.53 L 145.70 136.92 C 146.60 137.31 147.63 136.90 148.02 136.00 C 148.41 135.11 148.00 134.07 147.10 133.69 Z M 145.95 133.21 L 145.02 132.96 C 144.07 132.72 143.11 133.28 142.86 134.22 C 142.61 135.16 143.18 136.13 144.12 136.38 L 145.05 136.62 C 145.99 136.87 146.96 136.30 147.21 135.36 C 147.45 134.42 146.89 133.46 145.95 133.21 Z M 144.79 132.92 L 143.79 132.79 C 142.83 132.67 141.94 133.35 141.82 134.32 C 141.70 135.29 142.38 136.17 143.35 136.29 L 144.34 136.42 C 145.31 136.54 146.20 135.86 146.32 134.89 C 146.44 133.92 145.76 133.04 144.79 132.92 Z M 143.57 132.78 L 142.54 132.78 C 141.57 132.78 140.78 133.57 140.78 134.55 C 140.78 135.52 141.58 136.31 142.55 136.31 L 143.57 136.31 C 144.55 136.31 145.34 135.51 145.34 134.54 C 145.33 133.56 144.54 132.77 143.57 132.78 Z M 142.30 132.80 L 141.30 132.94 C 140.33 133.07 139.66 133.97 139.79 134.93 C 139.93 135.90 140.82 136.57 141.79 136.44 L 142.80 136.29 C 143.76 136.16 144.43 135.26 144.30 134.30 C 144.16 133.33 143.27 132.66 142.30 132.80 Z M 141.04 132.99 L 140.13 133.26 C 139.19 133.54 138.66 134.53 138.94 135.46 C 139.22 136.40 140.20 136.93 141.14 136.65 L 142.05 136.38 C 142.98 136.10 143.52 135.12 143.24 134.18 C 142.96 133.25 141.97 132.71 141.04 132.99 Z M 139.91 133.35 L 139.03 133.74 C 138.14 134.14 137.75 135.19 138.15 136.08 C 138.55 136.97 139.60 137.36 140.49 136.96 L 141.36 136.57 C 142.25 136.17 142.65 135.12 142.24 134.23 C 141.84 133.34 140.80 132.95 139.91 133.35 Z M 138.87 133.83 L 138.01 134.33 C 137.17 134.82 136.88 135.91 137.38 136.75 C 137.87 137.59 138.95 137.87 139.80 137.38 L 140.65 136.88 C 141.50 136.38 141.78 135.30 141.29 134.46 C 140.79 133.62 139.71 133.33 138.87 133.83 Z M 137.90 134.40 L 137.03 135.00 C 136.23 135.56 136.03 136.66 136.59 137.46 C 137.14 138.26 138.24 138.46 139.04 137.91 L 139.91 137.31 C 140.71 136.75 140.91 135.65 140.35 134.85 C 139.80 134.05 138.70 133.85 137.90 134.40 Z M 136.97 135.05 L 136.14 135.68 C 135.36 136.27 135.21 137.38 135.81 138.16 C 136.40 138.93 137.51 139.08 138.28 138.49 L 139.11 137.86 C 139.89 137.27 140.04 136.16 139.44 135.38 C 138.85 134.60 137.74 134.46 136.97 135.05 Z M 136.10 135.71 L 135.30 136.35 C 134.54 136.97 134.43 138.08 135.04 138.84 C 135.65 139.60 136.76 139.72 137.52 139.10 L 138.32 138.46 C 139.08 137.85 139.20 136.73 138.59 135.97 C 137.97 135.22 136.86 135.10 136.10 135.71 Z M 135.28 136.38 L 134.48 137.04 C 133.74 137.67 133.64 138.78 134.27 139.53 C 134.90 140.28 136.01 140.37 136.76 139.75 L 137.55 139.08 C 138.30 138.45 138.39 137.34 137.76 136.59 C 137.14 135.85 136.02 135.75 135.28 136.38 Z M 134.47 137.06 L 133.70 137.72 C 132.96 138.36 132.88 139.48 133.52 140.21 C 134.16 140.95 135.27 141.03 136.01 140.39 L 136.78 139.73 C 137.51 139.09 137.59 137.98 136.95 137.24 C 136.32 136.50 135.20 136.42 134.47 137.06 Z M 133.68 137.74 L 132.96 138.38 C 132.23 139.02 132.16 140.14 132.81 140.87 C 133.46 141.60 134.57 141.66 135.30 141.02 L 136.02 140.38 C 136.75 139.73 136.82 138.62 136.17 137.89 C 135.53 137.16 134.41 137.09 133.68 137.74 Z M 132.95 138.39 L 132.17 139.09 C 131.45 139.74 131.39 140.86 132.05 141.58 C 132.70 142.30 133.81 142.36 134.54 141.71 L 135.31 141.01 C 136.03 140.35 136.09 139.24 135.44 138.52 C 134.79 137.79 133.67 137.74 132.95 138.39 Z M 132.16 139.10 L 131.39 139.81 C 130.68 140.47 130.63 141.58 131.29 142.30 C 131.95 143.01 133.06 143.06 133.78 142.40 L 134.55 141.69 C 135.26 141.03 135.31 139.92 134.65 139.20 C 133.99 138.49 132.88 138.44 132.16 139.10 Z M 131.38 139.83 L 130.68 140.49 C 129.98 141.16 129.95 142.27 130.62 142.98 C 131.28 143.68 132.40 143.71 133.10 143.04 L 133.79 142.38 C 134.50 141.71 134.53 140.60 133.86 139.90 C 133.19 139.19 132.08 139.16 131.38 139.83 Z M 130.66 140.51 L 130.00 141.16 C 129.31 141.84 129.30 142.95 129.98 143.64 C 130.66 144.33 131.77 144.34 132.46 143.67 L 133.12 143.02 C 133.81 142.34 133.82 141.23 133.14 140.54 C 132.47 139.85 131.35 139.84 130.66 140.51 Z M 129.99 141.18 L 129.31 141.87 C 128.63 142.55 128.63 143.66 129.32 144.34 C 130.01 145.02 131.11 145.02 131.80 144.33 L 132.47 143.65 C 133.15 142.96 133.15 141.85 132.46 141.17 C 131.78 140.49 130.67 140.49 129.99 141.18 Z M 129.29 141.88 L 128.60 142.60 C 127.93 143.29 127.95 144.40 128.65 145.07 C 129.34 145.74 130.45 145.72 131.12 145.03 L 131.81 144.31 C 132.48 143.62 132.46 142.51 131.77 141.84 C 131.07 141.17 129.96 141.19 129.29 141.88 Z M 128.59 142.61 L 127.90 143.35 C 127.24 144.05 127.27 145.15 127.97 145.82 C 128.67 146.48 129.77 146.45 130.43 145.75 L 131.13 145.01 C 131.79 144.31 131.76 143.21 131.06 142.55 C 130.36 141.88 129.26 141.91 128.59 142.61 Z M 127.89 143.36 L 127.20 144.10 C 126.54 144.81 126.58 145.91 127.29 146.57 C 127.99 147.22 129.10 147.18 129.75 146.48 L 130.44 145.74 C 131.10 145.03 131.06 143.93 130.35 143.27 C 129.65 142.62 128.55 142.66 127.89 143.36 Z M 127.19 144.11 L 126.53 144.84 C 125.88 145.54 125.93 146.65 126.64 147.30 C 127.34 147.95 128.45 147.90 129.10 147.19 L 129.76 146.47 C 130.41 145.76 130.36 144.66 129.65 144.01 C 128.94 143.36 127.84 143.40 127.19 144.11 Z M 126.52 144.85 L 125.86 145.59 C 125.21 146.30 125.27 147.40 125.98 148.04 C 126.69 148.68 127.79 148.63 128.44 147.92 L 129.10 147.18 C 129.75 146.46 129.69 145.36 128.98 144.72 C 128.27 144.08 127.17 144.13 126.52 144.85 Z M 125.85 145.60 L 125.18 146.36 C 124.54 147.07 124.61 148.17 125.32 148.81 C 126.04 149.44 127.14 149.38 127.78 148.66 L 128.45 147.90 C 129.08 147.18 129.02 146.09 128.30 145.45 C 127.58 144.81 126.48 144.88 125.85 145.60 Z M 125.17 146.37 L 124.50 147.14 C 123.87 147.86 123.95 148.96 124.67 149.59 C 125.40 150.21 126.49 150.14 127.12 149.41 L 127.79 148.65 C 128.41 147.92 128.34 146.83 127.61 146.20 C 126.89 145.57 125.79 145.65 125.17 146.37 Z M 124.49 147.15 L 123.84 147.92 C 123.22 148.65 123.31 149.74 124.04 150.36 C 124.77 150.98 125.86 150.89 126.48 150.16 L 127.13 149.40 C 127.75 148.67 127.66 147.57 126.93 146.96 C 126.20 146.34 125.11 146.42 124.49 147.15 Z M 123.83 147.94 L 123.18 148.71 C 122.57 149.45 122.67 150.54 123.41 151.15 C 124.14 151.76 125.24 151.66 125.85 150.92 L 126.49 150.15 C 127.10 149.41 127.00 148.32 126.26 147.71 C 125.53 147.10 124.44 147.20 123.83 147.94 Z M 123.17 148.73 L 122.54 149.51 C 121.94 150.25 122.06 151.34 122.80 151.94 C 123.54 152.54 124.63 152.42 125.23 151.68 L 125.86 150.90 C 126.46 150.16 126.34 149.07 125.60 148.47 C 124.86 147.87 123.77 147.99 123.17 148.73 Z M 122.53 149.53 L 121.91 150.33 C 121.32 151.08 121.45 152.16 122.20 152.75 C 122.95 153.34 124.03 153.20 124.62 152.45 L 125.25 151.66 C 125.83 150.91 125.70 149.82 124.95 149.24 C 124.20 148.65 123.12 148.78 122.53 149.53 Z M 121.89 150.35 L 121.27 151.17 C 120.70 151.93 120.85 153.01 121.61 153.58 C 122.37 154.15 123.45 154.00 124.02 153.24 L 124.64 152.43 C 125.21 151.67 125.06 150.59 124.30 150.01 C 123.54 149.44 122.46 149.59 121.89 150.35 Z M 121.26 151.19 L 120.67 152.00 C 120.11 152.76 120.28 153.84 121.05 154.40 C 121.82 154.96 122.90 154.79 123.46 154.02 L 124.04 153.22 C 124.60 152.45 124.43 151.37 123.66 150.81 C 122.89 150.25 121.81 150.42 121.26 151.19 Z M 120.66 152.02 L 120.10 152.82 C 119.55 153.60 119.74 154.67 120.52 155.21 C 121.30 155.76 122.37 155.57 122.92 154.79 L 123.47 153.99 C 124.02 153.22 123.83 152.14 123.05 151.60 C 122.27 151.05 121.20 151.24 120.66 152.02 Z M 120.08 152.84 L 119.52 153.67 C 118.99 154.46 119.20 155.53 119.99 156.06 C 120.78 156.59 121.84 156.38 122.37 155.59 L 122.93 154.76 C 123.46 153.98 123.25 152.91 122.47 152.38 C 121.68 151.85 120.61 152.06 120.08 152.84 Z M 119.51 153.70 L 118.97 154.54 C 118.45 155.33 118.68 156.40 119.47 156.91 C 120.27 157.43 121.33 157.20 121.84 156.41 L 122.39 155.57 C 122.90 154.77 122.68 153.71 121.88 153.19 C 121.09 152.68 120.03 152.90 119.51 153.70 Z M 118.95 154.56 L 118.42 155.41 C 117.92 156.21 118.16 157.27 118.97 157.77 C 119.77 158.27 120.83 158.03 121.33 157.23 L 121.86 156.38 C 122.36 155.58 122.12 154.52 121.31 154.02 C 120.51 153.52 119.45 153.76 118.95 154.56 Z M 118.41 155.43 L 117.89 156.29 C 117.41 157.10 117.67 158.15 118.48 158.64 C 119.28 159.13 120.34 158.87 120.83 158.06 L 121.34 157.20 C 121.83 156.39 121.57 155.34 120.76 154.85 C 119.95 154.36 118.90 154.62 118.41 155.43 Z M 117.88 156.31 L 117.38 157.18 C 116.90 158.00 117.18 159.04 118.00 159.52 C 118.81 159.99 119.86 159.72 120.33 158.90 L 120.84 158.03 C 121.31 157.21 121.04 156.17 120.22 155.69 C 119.40 155.22 118.36 155.50 117.88 156.31 Z M 117.36 157.21 L 116.88 158.09 C 116.42 158.91 116.72 159.95 117.54 160.41 C 118.37 160.87 119.40 160.57 119.86 159.75 L 120.35 158.87 C 120.81 158.04 120.51 157.00 119.68 156.55 C 118.86 156.09 117.82 156.39 117.36 157.21 Z M 116.86 158.13 L 116.40 159.01 C 115.96 159.84 116.28 160.87 117.12 161.31 C 117.95 161.74 118.98 161.42 119.42 160.59 L 119.88 159.71 C 120.32 158.87 119.99 157.84 119.16 157.41 C 118.32 156.97 117.29 157.29 116.86 158.13 Z M 116.38 159.05 L 115.93 159.96 C 115.52 160.81 115.88 161.83 116.72 162.24 C 117.57 162.65 118.59 162.30 119.00 161.45 L 119.44 160.54 C 119.85 159.69 119.50 158.68 118.65 158.26 C 117.81 157.85 116.79 158.21 116.38 159.05 Z M 115.91 160.01 L 115.50 160.93 C 115.12 161.79 115.51 162.80 116.36 163.18 C 117.22 163.56 118.23 163.18 118.61 162.32 L 119.02 161.40 C 119.40 160.54 119.02 159.54 118.16 159.15 C 117.30 158.77 116.30 159.16 115.91 160.01 Z M 115.48 160.98 L 115.11 161.90 C 114.76 162.77 115.17 163.76 116.04 164.12 C 116.91 164.47 117.90 164.05 118.26 163.18 L 118.63 162.27 C 118.98 161.40 118.57 160.41 117.70 160.05 C 116.83 159.70 115.84 160.12 115.48 160.98 Z M 115.09 161.96 L 114.75 162.89 C 114.42 163.77 114.87 164.74 115.75 165.07 C 116.63 165.39 117.61 164.94 117.93 164.06 L 118.28 163.13 C 118.60 162.25 118.15 161.27 117.27 160.95 C 116.39 160.62 115.41 161.08 115.09 161.96 Z M 114.73 162.94 L 114.42 163.89 C 114.12 164.78 114.60 165.74 115.49 166.03 C 116.38 166.33 117.34 165.85 117.64 164.96 L 117.95 164.01 C 118.25 163.12 117.76 162.16 116.87 161.86 C 115.98 161.57 115.03 162.05 114.73 162.94 Z M 114.40 163.93 L 114.12 164.89 C 113.84 165.78 114.35 166.73 115.25 167.00 C 116.14 167.27 117.09 166.76 117.36 165.87 L 117.65 164.91 C 117.92 164.02 117.41 163.07 116.52 162.80 C 115.62 162.53 114.67 163.04 114.40 163.93 Z M 114.11 164.92 L 113.85 165.85 C 113.60 166.75 114.12 167.68 115.02 167.93 C 115.92 168.19 116.86 167.66 117.11 166.76 L 117.37 165.83 C 117.62 164.93 117.10 164.00 116.19 163.75 C 115.29 163.49 114.36 164.02 114.11 164.92 Z M 113.84 165.89 L 113.62 166.77 C 113.39 167.67 113.94 168.59 114.85 168.82 C 115.76 169.05 116.68 168.49 116.90 167.59 L 117.12 166.71 C 117.35 165.80 116.80 164.89 115.89 164.66 C 114.98 164.43 114.06 164.99 113.84 165.89 Z M 113.60 166.86 L 113.42 167.82 C 113.25 168.74 113.85 169.62 114.77 169.79 C 115.69 169.97 116.57 169.36 116.74 168.44 L 116.92 167.49 C 117.10 166.57 116.49 165.69 115.57 165.51 C 114.66 165.34 113.77 165.94 113.60 166.86 Z M 113.40 167.94 L 113.28 169.03 C 113.18 169.96 113.85 170.80 114.78 170.90 C 115.70 171.00 116.54 170.33 116.64 169.40 L 116.76 168.32 C 116.87 167.39 116.20 166.55 115.27 166.45 C 114.34 166.35 113.50 167.02 113.40 167.94 Z M 113.27 169.15 L 113.23 170.21 C 113.20 171.15 113.93 171.93 114.86 171.97 C 115.79 172.00 116.58 171.27 116.61 170.34 L 116.65 169.28 C 116.69 168.35 115.96 167.56 115.02 167.53 C 114.09 167.49 113.31 168.22 113.27 169.15 Z M 113.23 170.32 L 113.26 171.36 C 113.28 172.29 114.06 173.03 114.99 173.00 C 115.93 172.98 116.66 172.20 116.64 171.27 L 116.61 170.23 C 116.59 169.30 115.81 168.56 114.88 168.59 C 113.94 168.61 113.21 169.39 113.23 170.32 Z M 113.26 171.47 L 113.36 172.52 C 113.45 173.45 114.28 174.14 115.21 174.05 C 116.14 173.96 116.82 173.13 116.73 172.20 L 116.63 171.15 C 116.55 170.22 115.72 169.54 114.79 169.63 C 113.86 169.72 113.18 170.54 113.26 171.47 Z M 113.38 172.67 L 113.57 173.67 C 113.74 174.59 114.62 175.20 115.54 175.03 C 116.46 174.86 117.07 173.97 116.90 173.05 L 116.71 172.06 C 116.54 171.14 115.66 170.53 114.74 170.70 C 113.82 170.87 113.21 171.75 113.38 172.67 Z M 113.62 173.88 L 113.90 174.76 C 114.19 175.65 115.14 176.14 116.03 175.85 C 116.92 175.57 117.41 174.61 117.13 173.72 L 116.84 172.84 C 116.56 171.95 115.60 171.46 114.71 171.75 C 113.82 172.03 113.33 172.99 113.62 173.88 Z M 114.06 175.11 L 114.57 175.97 C 115.05 176.78 116.09 177.05 116.89 176.57 C 117.70 176.09 117.96 175.05 117.49 174.25 L 116.97 173.38 C 116.49 172.57 115.45 172.31 114.65 172.78 C 113.84 173.26 113.58 174.30 114.06 175.11 Z M 114.90 176.38 L 115.62 177.01 C 116.32 177.64 117.39 177.57 118.01 176.87 C 118.63 176.17 118.57 175.10 117.87 174.48 L 117.16 173.84 C 116.46 173.22 115.38 173.28 114.76 173.98 C 114.14 174.68 114.20 175.76 114.90 176.38 Z M 116.00 177.27 L 116.87 177.70 C 117.71 178.11 118.73 177.76 119.14 176.92 C 119.55 176.07 119.20 175.06 118.36 174.64 L 117.49 174.22 C 116.65 173.81 115.63 174.16 115.22 175.00 C 114.80 175.84 115.15 176.86 116.00 177.27 Z M 117.14 177.80 L 118.10 178.08 C 119.01 178.34 119.95 177.82 120.21 176.92 C 120.47 176.02 119.95 175.07 119.05 174.81 L 118.08 174.54 C 117.18 174.27 116.24 174.80 115.98 175.70 C 115.72 176.60 116.24 177.54 117.14 177.80 Z M 118.26 178.12 L 119.15 178.29 C 120.08 178.47 120.97 177.86 121.14 176.93 C 121.32 176.01 120.71 175.12 119.79 174.94 L 118.89 174.77 C 117.97 174.60 117.08 175.21 116.90 176.13 C 116.73 177.06 117.34 177.95 118.26 178.12 Z M 119.28 178.31 L 120.24 178.42 C 121.18 178.52 122.02 177.85 122.13 176.91 C 122.23 175.98 121.56 175.13 120.62 175.03 L 119.66 174.92 C 118.72 174.82 117.88 175.49 117.77 176.43 C 117.67 177.36 118.35 178.21 119.28 178.31 Z M 120.37 178.43 L 121.39 178.47 C 122.34 178.50 123.13 177.77 123.16 176.83 C 123.20 175.88 122.46 175.09 121.52 175.06 L 120.49 175.02 C 119.55 174.98 118.76 175.72 118.72 176.66 C 118.69 177.60 119.43 178.40 120.37 178.43 Z M 121.52 178.47 L 122.60 178.43 C 123.55 178.40 124.28 177.61 124.25 176.66 C 124.22 175.72 123.42 174.98 122.48 175.01 L 121.40 175.05 C 120.45 175.09 119.71 175.88 119.75 176.82 C 119.78 177.77 120.57 178.51 121.52 178.47 Z M 122.72 178.43 L 123.75 178.32 C 124.69 178.22 125.38 177.38 125.28 176.44 C 125.18 175.50 124.34 174.81 123.40 174.91 L 122.36 175.02 C 121.42 175.12 120.74 175.96 120.84 176.90 C 120.94 177.84 121.78 178.52 122.72 178.43 Z M 123.85 178.31 L 124.86 178.15 C 125.80 178.00 126.44 177.12 126.29 176.18 C 126.14 175.25 125.26 174.61 124.32 174.76 L 123.31 174.92 C 122.37 175.07 121.73 175.95 121.88 176.89 C 122.03 177.82 122.91 178.46 123.85 178.31 Z M 124.94 178.14 L 125.95 177.93 C 126.88 177.74 127.48 176.83 127.29 175.90 C 127.10 174.97 126.19 174.38 125.26 174.56 L 124.25 174.77 C 123.32 174.96 122.72 175.87 122.91 176.80 C 123.10 177.72 124.01 178.32 124.94 178.14 Z M 126.01 177.92 L 126.99 177.68 C 127.91 177.46 128.48 176.53 128.26 175.60 C 128.03 174.68 127.11 174.12 126.18 174.34 L 125.20 174.58 C 124.28 174.80 123.71 175.73 123.94 176.65 C 124.16 177.57 125.09 178.14 126.01 177.92 Z M 127.05 177.67 L 127.97 177.41 C 128.88 177.16 129.42 176.21 129.16 175.29 C 128.91 174.38 127.96 173.84 127.05 174.10 L 126.13 174.35 C 125.21 174.61 124.67 175.55 124.93 176.47 C 125.18 177.39 126.13 177.92 127.05 177.67 Z M 128.03 177.40 L 129.04 177.07 C 129.95 176.79 130.45 175.82 130.16 174.91 C 129.88 174.01 128.91 173.50 128.00 173.79 L 126.99 174.11 C 126.08 174.40 125.58 175.37 125.86 176.27 C 126.15 177.18 127.12 177.68 128.03 177.40 Z M 129.11 177.05 L 130.09 176.69 C 130.99 176.37 131.45 175.38 131.12 174.48 C 130.79 173.59 129.80 173.13 128.91 173.45 L 127.93 173.81 C 127.04 174.14 126.58 175.13 126.90 176.02 C 127.23 176.92 128.22 177.38 129.11 177.05 Z M 130.17 176.67 L 131.05 176.30 C 131.93 175.93 132.34 174.92 131.97 174.04 C 131.61 173.16 130.60 172.75 129.72 173.11 L 128.84 173.48 C 127.96 173.85 127.54 174.86 127.91 175.74 C 128.28 176.62 129.29 177.03 130.17 176.67 Z M 131.10 176.27 L 131.93 175.89 C 132.80 175.50 133.18 174.47 132.78 173.60 C 132.38 172.74 131.35 172.36 130.49 172.76 L 129.66 173.14 C 128.79 173.54 128.42 174.56 128.81 175.43 C 129.21 176.29 130.24 176.67 131.10 176.27 Z M 131.97 175.88 L 132.84 175.45 C 133.70 175.03 134.05 174.00 133.63 173.14 C 133.21 172.29 132.18 171.93 131.32 172.35 L 130.45 172.77 C 129.59 173.19 129.24 174.23 129.66 175.08 C 130.08 175.94 131.11 176.30 131.97 175.88 Z M 132.87 175.44 L 133.75 174.99 C 134.60 174.56 134.94 173.51 134.50 172.66 C 134.07 171.81 133.03 171.48 132.18 171.91 L 131.30 172.36 C 130.45 172.79 130.11 173.83 130.54 174.68 C 130.98 175.53 132.02 175.87 132.87 175.44 Z M 133.77 174.98 L 134.67 174.51 C 135.51 174.06 135.83 173.02 135.39 172.17 C 134.94 171.33 133.90 171.00 133.05 171.45 L 132.16 171.92 C 131.31 172.37 130.99 173.41 131.44 174.26 C 131.88 175.10 132.93 175.42 133.77 174.98 Z M 134.68 174.50 L 135.57 174.02 C 136.41 173.56 136.73 172.51 136.27 171.67 C 135.82 170.83 134.77 170.52 133.93 170.97 L 133.04 171.46 C 132.20 171.91 131.88 172.96 132.34 173.80 C 132.79 174.64 133.84 174.95 134.68 174.50 Z M 135.59 174.01 L 136.47 173.52 C 137.31 173.06 137.61 172.01 137.15 171.17 C 136.68 170.33 135.63 170.03 134.79 170.49 L 133.91 170.98 C 133.08 171.44 132.78 172.50 133.24 173.33 C 133.70 174.17 134.75 174.47 135.59 174.01 Z M 136.49 173.51 L 137.36 173.01 C 138.19 172.54 138.48 171.48 138.01 170.65 C 137.54 169.82 136.48 169.53 135.65 170.01 L 134.78 170.50 C 133.95 170.98 133.66 172.03 134.13 172.86 C 134.60 173.69 135.66 173.98 136.49 173.51 Z M 137.39 173.00 L 138.24 172.49 C 139.07 172.01 139.34 170.95 138.85 170.12 C 138.37 169.30 137.31 169.03 136.48 169.51 L 135.63 170.02 C 134.80 170.50 134.53 171.57 135.02 172.39 C 135.50 173.21 136.56 173.49 137.39 173.00 Z M 138.27 172.48 L 139.15 171.94 C 139.96 171.44 140.21 170.37 139.71 169.55 C 139.21 168.74 138.14 168.49 137.32 168.99 L 136.45 169.53 C 135.64 170.03 135.39 171.10 135.89 171.91 C 136.39 172.73 137.46 172.98 138.27 172.48 Z M 139.18 171.92 L 140.02 171.37 C 140.83 170.85 141.05 169.77 140.53 168.97 C 140.01 168.17 138.94 167.94 138.13 168.46 L 137.29 169.01 C 136.49 169.54 136.26 170.61 136.78 171.41 C 137.31 172.21 138.38 172.44 139.18 171.92 Z M 140.06 171.35 L 140.87 170.79 C 141.66 170.25 141.86 169.17 141.32 168.38 C 140.78 167.59 139.70 167.39 138.91 167.93 L 138.10 168.49 C 137.31 169.03 137.11 170.11 137.65 170.90 C 138.19 171.69 139.27 171.89 140.06 171.35 Z M 140.90 170.77 L 141.70 170.19 C 142.48 169.63 142.66 168.54 142.10 167.77 C 141.53 166.99 140.45 166.82 139.67 167.38 L 138.87 167.95 C 138.10 168.51 137.92 169.60 138.48 170.37 C 139.04 171.15 140.13 171.33 140.90 170.77 Z M 141.74 170.16 L 142.54 169.56 C 143.30 168.98 143.45 167.89 142.87 167.13 C 142.29 166.36 141.20 166.21 140.44 166.79 L 139.64 167.40 C 138.88 167.98 138.73 169.07 139.31 169.83 C 139.89 170.59 140.97 170.74 141.74 170.16 Z M 142.57 169.53 L 143.35 168.91 C 144.10 168.32 144.22 167.23 143.63 166.48 C 143.03 165.73 141.94 165.60 141.19 166.20 L 140.41 166.82 C 139.66 167.41 139.53 168.50 140.13 169.26 C 140.73 170.01 141.82 170.13 142.57 169.53 Z M 143.38 168.89 L 144.14 168.26 C 144.88 167.65 144.98 166.55 144.37 165.81 C 143.76 165.08 142.67 164.97 141.93 165.58 L 141.16 166.22 C 140.42 166.83 140.32 167.92 140.93 168.66 C 141.54 169.40 142.64 169.50 143.38 168.89 Z M 144.17 168.24 L 144.93 167.58 C 145.66 166.96 145.74 165.86 145.12 165.14 C 144.49 164.41 143.40 164.32 142.67 164.95 L 141.91 165.60 C 141.18 166.23 141.09 167.32 141.72 168.05 C 142.34 168.78 143.44 168.86 144.17 168.24 Z M 144.95 167.57 L 145.70 166.91 C 146.42 166.27 146.49 165.17 145.85 164.45 C 145.21 163.73 144.12 163.67 143.40 164.30 L 142.65 164.97 C 141.93 165.60 141.86 166.70 142.50 167.42 C 143.13 168.14 144.23 168.20 144.95 167.57 Z M 145.71 166.89 L 146.45 166.23 C 147.16 165.58 147.22 164.48 146.57 163.77 C 145.93 163.06 144.83 163.01 144.12 163.65 L 143.38 164.32 C 142.67 164.96 142.62 166.06 143.26 166.77 C 143.90 167.48 145.00 167.54 145.71 166.89 Z M 146.46 166.21 L 147.10 165.62 C 147.81 164.97 147.85 163.87 147.20 163.17 C 146.55 162.46 145.45 162.42 144.74 163.07 L 144.10 163.66 C 143.40 164.31 143.36 165.41 144.01 166.12 C 144.66 166.82 145.76 166.87 146.46 166.21 Z M 147.13 165.60 L 147.80 164.96 C 148.49 164.30 148.52 163.19 147.85 162.50 C 147.19 161.81 146.09 161.78 145.40 162.45 L 144.72 163.09 C 144.03 163.75 144.00 164.85 144.67 165.55 C 145.33 166.24 146.43 166.27 147.13 165.60 Z M 147.83 164.94 L 148.58 164.19 C 149.26 163.51 149.26 162.41 148.58 161.72 C 147.91 161.04 146.80 161.04 146.12 161.72 L 145.37 162.47 C 144.69 163.15 144.69 164.25 145.36 164.93 C 146.04 165.61 147.14 165.61 147.83 164.94 Z M 148.60 164.16 L 149.36 163.38 C 150.02 162.69 150.01 161.59 149.31 160.92 C 148.62 160.25 147.52 160.27 146.85 160.96 L 146.10 161.74 C 145.43 162.43 145.45 163.54 146.14 164.20 C 146.83 164.87 147.93 164.85 148.60 164.16 Z M 149.37 163.37 L 150.01 162.69 C 150.67 161.99 150.63 160.89 149.93 160.23 C 149.23 159.57 148.13 159.60 147.47 160.30 L 146.84 160.98 C 146.18 161.68 146.21 162.78 146.91 163.44 C 147.61 164.10 148.72 164.07 149.37 163.37 Z M 150.03 162.67 L 150.70 161.94 C 151.35 161.23 151.30 160.12 150.59 159.47 C 149.88 158.83 148.77 158.88 148.12 159.59 L 147.45 160.32 C 146.80 161.03 146.85 162.13 147.57 162.78 C 148.28 163.43 149.38 163.38 150.03 162.67 Z M 150.72 161.92 L 151.40 161.14 C 152.04 160.42 151.97 159.32 151.25 158.68 C 150.53 158.04 149.43 158.11 148.79 158.83 L 148.10 159.61 C 147.47 160.33 147.54 161.43 148.26 162.07 C 148.98 162.71 150.08 162.64 150.72 161.92 Z M 151.43 161.11 L 152.11 160.31 C 152.73 159.58 152.64 158.48 151.91 157.85 C 151.17 157.23 150.07 157.32 149.45 158.06 L 148.77 158.86 C 148.14 159.59 148.23 160.69 148.97 161.31 C 149.70 161.94 150.80 161.85 151.43 161.11 Z M 152.14 160.28 L 152.79 159.47 C 153.39 158.72 153.27 157.62 152.52 157.02 C 151.77 156.41 150.68 156.53 150.07 157.28 L 149.42 158.09 C 148.81 158.84 148.93 159.94 149.68 160.54 C 150.43 161.15 151.53 161.03 152.14 160.28 Z M 152.82 159.43 L 153.47 158.57 C 154.05 157.81 153.90 156.71 153.13 156.13 C 152.36 155.55 151.26 155.70 150.68 156.47 L 150.04 157.32 C 149.45 158.09 149.61 159.19 150.38 159.77 C 151.15 160.35 152.24 160.20 152.82 159.43 Z M 153.51 158.52 L 154.10 157.67 C 154.66 156.88 154.46 155.79 153.67 155.24 C 152.88 154.69 151.79 154.88 151.24 155.67 L 150.64 156.52 C 150.09 157.31 150.28 158.40 151.07 158.95 C 151.86 159.51 152.95 159.32 153.51 158.52 Z M 154.14 157.62 L 154.68 156.78 C 155.21 155.97 154.98 154.89 154.17 154.37 C 153.36 153.84 152.28 154.07 151.75 154.88 L 151.21 155.72 C 150.68 156.53 150.91 157.61 151.72 158.14 C 152.53 158.66 153.61 158.43 154.14 157.62 Z M 154.72 156.73 L 155.21 155.90 C 155.71 155.07 155.44 154.00 154.61 153.50 C 153.79 153.01 152.71 153.27 152.21 154.10 L 151.72 154.93 C 151.22 155.76 151.49 156.83 152.32 157.33 C 153.14 157.83 154.22 157.56 154.72 156.73 Z M 155.24 155.85 L 155.70 155.03 C 156.17 154.18 155.86 153.12 155.02 152.65 C 154.17 152.18 153.11 152.49 152.64 153.33 L 152.18 154.15 C 151.72 155.00 152.02 156.06 152.87 156.53 C 153.71 157.00 154.78 156.70 155.24 155.85 Z M 155.73 154.98 L 156.19 154.07 C 156.63 153.21 156.29 152.16 155.43 151.72 C 154.57 151.28 153.51 151.62 153.07 152.48 L 152.61 153.38 C 152.17 154.24 152.51 155.30 153.37 155.74 C 154.23 156.18 155.29 155.84 155.73 154.98 Z M 156.22 154.02 L 156.65 153.09 C 157.06 152.22 156.68 151.18 155.80 150.77 C 154.92 150.36 153.88 150.74 153.47 151.62 L 153.04 152.54 C 152.64 153.41 153.02 154.46 153.89 154.86 C 154.77 155.27 155.81 154.89 156.22 154.02 Z M 156.68 153.03 L 157.06 152.12 C 157.44 151.22 157.02 150.20 156.13 149.82 C 155.24 149.45 154.21 149.87 153.83 150.76 L 153.45 151.68 C 153.07 152.57 153.49 153.59 154.38 153.97 C 155.27 154.34 156.30 153.93 156.68 153.03 Z M 157.09 152.05 L 157.43 151.14 C 157.77 150.23 157.31 149.22 156.41 148.88 C 155.50 148.54 154.49 149.00 154.15 149.90 L 153.81 150.82 C 153.47 151.73 153.93 152.74 154.83 153.08 C 155.74 153.42 156.75 152.96 157.09 152.05 Z M 157.46 151.07 L 157.76 150.15 C 158.07 149.23 157.57 148.23 156.65 147.93 C 155.73 147.62 154.74 148.12 154.44 149.04 L 154.13 149.97 C 153.82 150.89 154.32 151.88 155.24 152.18 C 156.16 152.49 157.15 151.99 157.46 151.07 Z M 157.79 150.08 L 158.06 149.12 C 158.33 148.19 157.79 147.22 156.86 146.95 C 155.92 146.68 154.95 147.22 154.69 148.15 L 154.41 149.11 C 154.15 150.04 154.69 151.01 155.62 151.28 C 156.55 151.55 157.52 151.01 157.79 150.08 Z M 158.08 149.04 L 158.31 148.07 C 158.53 147.13 157.95 146.19 157.01 145.96 C 156.06 145.74 155.12 146.32 154.90 147.27 L 154.67 148.23 C 154.44 149.17 155.03 150.12 155.97 150.34 C 156.91 150.57 157.86 149.98 158.08 149.04 Z M 158.33 147.99 L 158.51 147.01 C 158.68 146.05 158.06 145.14 157.10 144.96 C 156.15 144.79 155.23 145.42 155.06 146.37 L 154.88 147.35 C 154.70 148.30 155.33 149.22 156.28 149.39 C 157.24 149.57 158.15 148.94 158.33 147.99 Z M 158.52 146.92 L 158.66 145.92 C 158.78 144.95 158.11 144.07 157.15 143.95 C 156.19 143.82 155.30 144.49 155.18 145.45 L 155.04 146.46 C 154.92 147.42 155.59 148.30 156.55 148.43 C 157.51 148.56 158.40 147.88 158.52 146.92 Z M 158.67 145.82 L 158.75 144.81 C 158.82 143.84 158.10 143.00 157.13 142.92 C 156.17 142.85 155.32 143.57 155.25 144.53 L 155.17 145.55 C 155.09 146.51 155.81 147.36 156.78 147.43 C 157.74 147.51 158.59 146.79 158.67 145.82 Z M 158.75 144.70 L 158.77 143.68 C 158.78 142.71 158.01 141.91 157.04 141.90 C 156.07 141.88 155.27 142.65 155.26 143.62 L 155.24 144.64 C 155.23 145.61 156.00 146.41 156.97 146.43 C 157.94 146.44 158.74 145.67 158.75 144.70 Z M 158.77 143.55 L 158.70 142.54 C 158.65 141.58 157.81 140.84 156.85 140.90 C 155.88 140.96 155.14 141.79 155.20 142.76 L 155.26 143.76 C 155.32 144.73 156.15 145.46 157.12 145.40 C 158.09 145.35 158.82 144.51 158.77 143.55 Z M 158.69 142.37 L 158.53 141.41 C 158.38 140.45 157.48 139.80 156.52 139.95 C 155.57 140.11 154.91 141.00 155.07 141.96 L 155.22 142.93 C 155.37 143.88 156.27 144.54 157.23 144.38 C 158.19 144.23 158.84 143.33 158.69 142.37 Z M 158.48 141.19 L 158.20 140.22 C 157.93 139.29 156.95 138.76 156.02 139.03 C 155.09 139.30 154.56 140.27 154.83 141.20 L 155.12 142.18 C 155.39 143.11 156.36 143.64 157.29 143.37 C 158.22 143.10 158.76 142.12 158.48 141.19 Z M 158.11 139.98 L 157.68 139.05 C 157.27 138.17 156.23 137.79 155.35 138.19 C 154.47 138.60 154.09 139.64 154.49 140.52 L 154.92 141.45 C 155.33 142.33 156.37 142.71 157.25 142.30 C 158.13 141.90 158.51 140.86 158.11 139.98 Z M 157.55 138.82 L 157.01 138.00 C 156.47 137.19 155.39 136.97 154.58 137.50 C 153.77 138.03 153.55 139.12 154.08 139.93 L 154.62 140.75 C 155.16 141.56 156.24 141.78 157.05 141.25 C 157.86 140.72 158.08 139.63 157.55 138.82 Z M 156.84 137.79 L 156.20 137.07 C 155.55 136.35 154.45 136.30 153.73 136.94 C 153.01 137.59 152.95 138.70 153.60 139.41 L 154.24 140.13 C 154.89 140.85 155.99 140.91 156.71 140.26 C 157.43 139.62 157.49 138.51 156.84 137.79 Z M 156.01 136.90 L 155.26 136.28 C 154.52 135.66 153.42 135.77 152.80 136.51 C 152.19 137.26 152.29 138.36 153.04 138.97 L 153.79 139.59 C 154.53 140.21 155.63 140.10 156.25 139.36 C 156.86 138.61 156.76 137.51 156.01 136.90 Z M 155.07 136.15 L 154.24 135.63 C 153.42 135.12 152.34 135.37 151.84 136.19 C 151.33 137.01 151.58 138.08 152.40 138.59 L 153.23 139.11 C 154.05 139.61 155.12 139.36 155.63 138.54 C 156.14 137.73 155.89 136.65 155.07 136.15 Z M 154.07 135.55 L 153.16 135.11 C 152.30 134.70 151.26 135.06 150.85 135.93 C 150.44 136.79 150.80 137.83 151.66 138.24 L 152.57 138.67 C 153.43 139.09 154.47 138.72 154.88 137.86 C 155.30 137.00 154.93 135.96 154.07 135.55 Z M 153.04 135.07 L 152.07 134.69 C 151.19 134.35 150.19 134.79 149.84 135.68 C 149.50 136.57 149.94 137.57 150.83 137.91 L 151.79 138.29 C 152.68 138.63 153.68 138.19 154.02 137.30 C 154.37 136.41 153.93 135.41 153.04 135.07 Z M 151.99 134.67 L 151.07 134.37 C 150.17 134.07 149.20 134.57 148.90 135.47 C 148.60 136.37 149.09 137.34 150.00 137.63 L 150.92 137.94 C 151.82 138.23 152.79 137.74 153.08 136.84 C 153.38 135.94 152.89 134.97 151.99 134.67 Z M 151.00 134.36 L 150.04 134.09 C 149.13 133.83 148.19 134.36 147.93 135.27 C 147.68 136.17 148.20 137.11 149.11 137.37 L 150.07 137.64 C 150.97 137.90 151.91 137.37 152.17 136.47 C 152.43 135.56 151.90 134.62 151.00 134.36 Z M 149.97 134.09 L 148.99 133.85 C 148.08 133.63 147.17 134.18 146.95 135.09 C 146.73 136.00 147.28 136.91 148.19 137.13 L 149.17 137.37 C 150.08 137.59 150.99 137.04 151.22 136.13 C 151.44 135.22 150.88 134.31 149.97 134.09 Z M 148.93 133.85 L 147.93 133.64 C 147.02 133.45 146.14 134.03 145.95 134.94 C 145.76 135.84 146.34 136.73 147.24 136.92 L 148.25 137.13 C 149.15 137.32 150.04 136.74 150.23 135.83 C 150.42 134.93 149.84 134.04 148.93 133.85 Z M 147.88 133.64 L 146.86 133.46 C 145.95 133.30 145.09 133.91 144.93 134.81 C 144.77 135.71 145.38 136.58 146.28 136.74 L 147.30 136.92 C 148.20 137.08 149.06 136.47 149.22 135.57 C 149.38 134.67 148.78 133.80 147.88 133.64 Z M 146.81 133.47 L 145.80 133.32 C 144.90 133.19 144.06 133.81 143.93 134.71 C 143.80 135.61 144.42 136.44 145.31 136.58 L 146.33 136.73 C 147.23 136.86 148.06 136.24 148.19 135.34 C 148.33 134.44 147.71 133.61 146.81 133.47 Z M 145.76 133.34 L 144.77 133.21 C 143.88 133.10 143.06 133.74 142.95 134.63 C 142.84 135.52 143.48 136.33 144.37 136.44 L 145.36 136.56 C 146.25 136.67 147.06 136.04 147.17 135.15 C 147.28 134.26 146.65 133.45 145.76 133.34 Z M 144.73 133.23 L 143.78 133.13 C 142.89 133.04 142.10 133.68 142.01 134.57 C 141.92 135.45 142.57 136.24 143.45 136.33 L 144.40 136.43 C 145.29 136.52 146.08 135.87 146.17 134.99 C 146.26 134.11 145.61 133.32 144.73 133.23 Z M 143.74 133.14 L 142.70 133.06 C 141.83 132.99 141.06 133.64 140.99 134.52 C 140.92 135.40 141.57 136.17 142.45 136.24 L 143.49 136.32 C 144.36 136.39 145.13 135.73 145.20 134.86 C 145.27 133.98 144.62 133.21 143.74 133.14 Z M 142.67 133.07 L 141.67 133.01 C 140.79 132.96 140.04 133.62 139.99 134.49 C 139.94 135.37 140.61 136.12 141.48 136.17 L 142.48 136.23 C 143.36 136.28 144.10 135.61 144.16 134.74 C 144.21 133.87 143.54 133.12 142.67 133.07 Z M 141.64 133.02 L 140.68 132.97 C 139.81 132.93 139.07 133.60 139.03 134.47 C 138.99 135.34 139.66 136.07 140.53 136.11 L 141.50 136.16 C 142.37 136.20 143.10 135.53 143.14 134.66 C 143.18 133.79 142.51 133.06 141.64 133.02 Z M 140.67 132.98 L 140.07 132.96 C 139.21 132.92 138.48 133.59 138.44 134.46 C 138.41 135.32 139.08 136.05 139.94 136.08 L 140.54 136.11 C 141.40 136.14 142.13 135.47 142.17 134.61 C 142.20 133.74 141.53 133.02 140.67 132.98 Z"
      fill="black"
      fill-rule="nonzero" /></svg>