<svg xmlns="http://www.w3.org/2000/svg" width="300" height="300" viewBox="0 0 300 300">
<path d="M 129.91 145.90 L 129.01 146.38 C 128.21 146.82 127.91 147.82 128.35 148.63 C 128.79 149.43 129.79 149.73 130.59 149.29 L 131.49 148.80 C 132.29 148.36 132.59 147.36 132.15 146.56 C 131.71 145.76 130.71 145.46 129.91 145.90 Z M 128.99 146.39 L 128.10 146.88 C 127.30 147.33 127.02 148.34 127.47 149.14 C 127.92 149.94 128.93 150.23 129.73 149.78 L 130.61 149.29 C 131.41 148.84 131.70 147.83 131.25 147.02 C 130.80 146.22 129.79 145.94 128.99 146.39 Z M 128.07 146.90 L 127.20 147.41 C 126.41 147.88 126.14 148.90 126.61 149.70 C 127.08 150.49 128.11 150.75 128.90 150.28 L 129.77 149.77 C 130.56 149.30 130.82 148.28 130.35 147.48 C 129.88 146.69 128.86 146.43 128.07 146.90 Z M 127.14 147.43 L 126.30 147.97 C 125.53 148.48 125.30 149.51 125.80 150.29 C 126.30 151.07 127.34 151.30 128.12 150.80 L 128.96 150.26 C 129.74 149.76 129.96 148.72 129.46 147.94 C 128.96 147.16 127.92 146.93 127.14 147.43 Z M 126.23 148.02 L 125.43 148.59 C 124.67 149.13 124.50 150.18 125.04 150.94 C 125.59 151.70 126.64 151.87 127.40 151.33 L 128.20 150.75 C 128.95 150.21 129.12 149.16 128.58 148.40 C 128.04 147.65 126.99 147.47 126.23 148.02 Z M 125.34 148.65 L 124.59 149.27 C 123.86 149.86 123.76 150.93 124.35 151.65 C 124.95 152.37 126.01 152.48 126.74 151.88 L 127.49 151.27 C 128.21 150.67 128.32 149.61 127.72 148.88 C 127.13 148.16 126.06 148.05 125.34 148.65 Z M 124.48 149.35 L 123.78 150.02 C 123.10 150.67 123.08 151.75 123.73 152.43 C 124.38 153.11 125.46 153.13 126.14 152.48 L 126.84 151.80 C 127.52 151.15 127.54 150.07 126.89 149.40 C 126.24 148.72 125.16 148.69 124.48 149.35 Z M 123.68 150.11 L 123.03 150.84 C 122.40 151.55 122.47 152.63 123.18 153.26 C 123.88 153.89 124.97 153.82 125.60 153.11 L 126.24 152.39 C 126.87 151.68 126.81 150.60 126.10 149.97 C 125.39 149.34 124.31 149.40 123.68 150.11 Z M 122.94 150.94 L 122.35 151.72 C 121.77 152.48 121.92 153.56 122.68 154.14 C 123.44 154.71 124.52 154.56 125.10 153.80 L 125.69 153.02 C 126.26 152.26 126.11 151.17 125.35 150.60 C 124.59 150.03 123.51 150.18 122.94 150.94 Z M 122.26 151.82 L 121.72 152.67 C 121.20 153.47 121.44 154.54 122.24 155.06 C 123.05 155.58 124.12 155.35 124.64 154.54 L 125.18 153.70 C 125.70 152.89 125.46 151.82 124.66 151.30 C 123.85 150.78 122.78 151.02 122.26 151.82 Z M 121.65 152.77 L 121.16 153.67 C 120.70 154.52 121.01 155.58 121.85 156.04 C 122.70 156.50 123.76 156.19 124.22 155.34 L 124.71 154.44 C 125.17 153.59 124.86 152.53 124.02 152.07 C 123.17 151.61 122.11 151.92 121.65 152.77 Z M 121.10 153.77 L 120.66 154.71 C 120.26 155.59 120.64 156.63 121.52 157.04 C 122.40 157.45 123.44 157.06 123.85 156.18 L 124.28 155.24 C 124.69 154.36 124.30 153.32 123.42 152.91 C 122.54 152.51 121.50 152.89 121.10 153.77 Z M 120.62 154.80 L 120.25 155.73 C 119.89 156.63 120.34 157.66 121.24 158.01 C 122.15 158.37 123.17 157.93 123.53 157.02 L 123.89 156.09 C 124.25 155.19 123.81 154.17 122.90 153.81 C 122.00 153.45 120.97 153.90 120.62 154.80 Z M 120.21 155.81 L 119.89 156.77 C 119.57 157.69 120.07 158.70 120.99 159.01 C 121.92 159.33 122.92 158.83 123.23 157.91 L 123.56 156.95 C 123.88 156.02 123.38 155.02 122.46 154.70 C 121.53 154.39 120.53 154.88 120.21 155.81 Z M 119.86 156.84 L 119.57 157.82 C 119.29 158.76 119.83 159.75 120.77 160.02 C 121.71 160.30 122.70 159.76 122.98 158.82 L 123.26 157.84 C 123.54 156.90 123.00 155.91 122.06 155.64 C 121.12 155.36 120.13 155.90 119.86 156.84 Z M 119.55 157.88 L 119.30 158.87 C 119.06 159.82 119.64 160.79 120.59 161.03 C 121.54 161.27 122.51 160.69 122.75 159.74 L 123.00 158.75 C 123.24 157.80 122.66 156.83 121.71 156.59 C 120.75 156.35 119.79 156.93 119.55 157.88 Z M 119.28 158.93 L 119.07 159.91 C 118.87 160.87 119.48 161.82 120.45 162.03 C 121.41 162.23 122.36 161.62 122.57 160.65 L 122.77 159.68 C 122.98 158.71 122.36 157.76 121.40 157.56 C 120.43 157.35 119.48 157.97 119.28 158.93 Z M 119.05 159.97 L 118.89 160.92 C 118.72 161.90 119.37 162.83 120.35 163.00 C 121.32 163.17 122.25 162.51 122.42 161.54 L 122.58 160.59 C 122.75 159.61 122.10 158.68 121.13 158.51 C 120.15 158.34 119.22 159.00 119.05 159.97 Z M 118.87 161.00 L 118.73 162.04 C 118.60 163.02 119.29 163.93 120.28 164.06 C 121.26 164.19 122.17 163.50 122.30 162.51 L 122.43 161.47 C 122.56 160.48 121.87 159.58 120.89 159.45 C 119.90 159.32 119.00 160.01 118.87 161.00 Z M 118.72 162.12 L 118.63 163.15 C 118.55 164.14 119.28 165.01 120.27 165.09 C 121.26 165.18 122.13 164.45 122.22 163.46 L 122.31 162.43 C 122.39 161.44 121.66 160.57 120.67 160.48 C 119.68 160.40 118.81 161.13 118.72 162.12 Z M 118.63 163.23 L 118.58 164.22 C 118.54 165.21 119.31 166.05 120.31 166.09 C 121.30 166.13 122.14 165.36 122.18 164.37 L 122.22 163.38 C 122.27 162.38 121.50 161.55 120.50 161.50 C 119.51 161.46 118.67 162.23 118.63 163.23 Z M 118.58 164.29 L 118.58 165.26 C 118.58 166.25 119.38 167.06 120.38 167.06 C 121.37 167.07 122.18 166.26 122.18 165.27 L 122.18 164.30 C 122.19 163.30 121.38 162.49 120.39 162.49 C 119.39 162.49 118.58 163.29 118.58 164.29 Z M 118.58 165.32 L 118.61 166.28 C 118.64 167.28 119.48 168.06 120.47 168.03 C 121.47 168.00 122.25 167.16 122.21 166.17 L 122.18 165.20 C 122.15 164.21 121.32 163.43 120.32 163.46 C 119.33 163.49 118.55 164.33 118.58 165.32 Z M 118.61 166.33 L 118.67 167.28 C 118.73 168.28 119.58 169.04 120.58 168.98 C 121.57 168.92 122.33 168.06 122.27 167.07 L 122.21 166.12 C 122.15 165.12 121.30 164.37 120.31 164.43 C 119.31 164.48 118.55 165.34 118.61 166.33 Z M 118.67 167.34 L 118.76 168.28 C 118.85 169.27 119.73 170.00 120.72 169.91 C 121.71 169.82 122.44 168.94 122.35 167.95 L 122.27 167.01 C 122.17 166.02 121.30 165.29 120.30 165.38 C 119.31 165.47 118.58 166.35 118.67 167.34 Z M 118.77 168.38 L 118.91 169.32 C 119.06 170.31 119.97 170.99 120.96 170.84 C 121.94 170.70 122.63 169.78 122.48 168.80 L 122.34 167.85 C 122.19 166.86 121.28 166.18 120.29 166.33 C 119.31 166.47 118.62 167.39 118.77 168.38 Z M 118.94 169.46 L 119.16 170.42 C 119.38 171.39 120.35 172.00 121.32 171.78 C 122.29 171.55 122.89 170.59 122.67 169.62 L 122.45 168.66 C 122.23 167.69 121.26 167.08 120.29 167.30 C 119.32 167.52 118.72 168.49 118.94 169.46 Z M 119.20 170.59 L 119.53 171.56 C 119.84 172.50 120.86 173.01 121.81 172.70 C 122.75 172.38 123.26 171.36 122.95 170.41 L 122.63 169.45 C 122.31 168.50 121.29 167.99 120.34 168.31 C 119.40 168.62 118.89 169.64 119.20 170.59 Z M 119.60 171.74 L 120.05 172.72 C 120.47 173.62 121.54 174.02 122.44 173.60 C 123.35 173.18 123.74 172.11 123.33 171.20 L 122.87 170.23 C 122.46 169.32 121.38 168.93 120.48 169.35 C 119.58 169.77 119.18 170.84 119.60 171.74 Z M 120.14 172.89 L 120.66 173.75 C 121.17 174.60 122.28 174.88 123.13 174.36 C 123.99 173.85 124.26 172.74 123.75 171.89 L 123.23 171.03 C 122.72 170.18 121.61 169.90 120.76 170.42 C 119.90 170.93 119.63 172.04 120.14 172.89 Z M 120.75 173.88 L 121.32 174.67 C 121.91 175.47 123.03 175.65 123.84 175.06 C 124.64 174.47 124.82 173.35 124.23 172.54 L 123.66 171.75 C 123.07 170.95 121.95 170.77 121.14 171.36 C 120.34 171.95 120.16 173.07 120.75 173.88 Z M 121.40 174.77 L 122.05 175.54 C 122.69 176.30 123.83 176.40 124.59 175.75 C 125.35 175.11 125.45 173.97 124.81 173.21 L 124.16 172.44 C 123.51 171.68 122.38 171.58 121.61 172.22 C 120.85 172.87 120.76 174.00 121.40 174.77 Z M 122.12 175.62 L 122.83 176.36 C 123.52 177.08 124.66 177.11 125.38 176.42 C 126.10 175.74 126.13 174.59 125.44 173.87 L 124.73 173.13 C 124.04 172.41 122.90 172.38 122.18 173.07 C 121.46 173.76 121.43 174.90 122.12 175.62 Z M 122.90 176.44 L 123.66 177.14 C 124.39 177.82 125.53 177.79 126.21 177.06 C 126.89 176.33 126.85 175.19 126.12 174.51 L 125.37 173.80 C 124.64 173.12 123.50 173.16 122.82 173.89 C 122.14 174.61 122.18 175.75 122.90 176.44 Z M 123.73 177.21 L 124.51 177.86 C 125.28 178.50 126.41 178.41 127.05 177.64 C 127.70 176.88 127.60 175.74 126.83 175.10 L 126.05 174.44 C 125.29 173.80 124.15 173.90 123.51 174.67 C 122.87 175.43 122.97 176.57 123.73 177.21 Z M 124.59 177.92 L 125.38 178.52 C 126.18 179.12 127.31 178.96 127.91 178.16 C 128.51 177.37 128.35 176.24 127.55 175.64 L 126.76 175.04 C 125.96 174.44 124.83 174.60 124.23 175.40 C 123.63 176.20 123.79 177.33 124.59 177.92 Z M 125.47 178.58 L 126.31 179.14 C 127.14 179.69 128.26 179.46 128.81 178.63 C 129.36 177.80 129.13 176.68 128.30 176.13 L 127.46 175.57 C 126.63 175.02 125.51 175.25 124.96 176.08 C 124.41 176.91 124.64 178.03 125.47 178.58 Z M 126.42 179.20 L 127.30 179.70 C 128.16 180.19 129.26 179.88 129.75 179.01 C 130.24 178.15 129.93 177.05 129.07 176.56 L 128.19 176.06 C 127.32 175.57 126.22 175.88 125.73 176.75 C 125.25 177.62 125.55 178.72 126.42 179.20 Z M 127.42 179.76 L 128.30 180.17 C 129.21 180.59 130.28 180.20 130.70 179.30 C 131.12 178.40 130.73 177.32 129.82 176.90 L 128.94 176.49 C 128.04 176.07 126.97 176.46 126.55 177.37 C 126.13 178.27 126.52 179.34 127.42 179.76 Z M 128.43 180.23 L 129.34 180.56 C 130.27 180.91 131.31 180.44 131.66 179.50 C 132.00 178.57 131.53 177.53 130.59 177.18 L 129.69 176.85 C 128.76 176.50 127.72 176.97 127.37 177.91 C 127.03 178.84 127.50 179.88 128.43 180.23 Z M 129.46 180.61 L 130.40 180.88 C 131.36 181.15 132.36 180.60 132.64 179.65 C 132.91 178.69 132.36 177.69 131.40 177.41 L 130.47 177.14 C 129.51 176.86 128.51 177.42 128.23 178.37 C 127.96 179.33 128.51 180.33 129.46 180.61 Z M 130.52 180.91 L 131.51 181.12 C 132.48 181.33 133.44 180.72 133.65 179.74 C 133.86 178.77 133.25 177.81 132.27 177.60 L 131.29 177.38 C 130.31 177.17 129.35 177.79 129.14 178.76 C 128.93 179.73 129.54 180.69 130.52 180.91 Z M 131.60 181.14 L 132.63 181.31 C 133.61 181.47 134.54 180.80 134.70 179.81 C 134.86 178.83 134.19 177.90 133.20 177.75 L 132.18 177.58 C 131.19 177.42 130.27 178.09 130.11 179.07 C 129.95 180.06 130.62 180.98 131.60 181.14 Z M 132.70 181.32 L 133.67 181.43 C 134.66 181.55 135.55 180.84 135.67 179.85 C 135.79 178.86 135.08 177.97 134.09 177.85 L 133.13 177.73 C 132.14 177.62 131.24 178.32 131.12 179.31 C 131.01 180.30 131.71 181.20 132.70 181.32 Z M 133.74 181.44 L 134.74 181.52 C 135.73 181.60 136.60 180.86 136.68 179.86 C 136.76 178.87 136.02 178.00 135.02 177.92 L 134.02 177.84 C 133.03 177.76 132.16 178.50 132.08 179.50 C 132.00 180.49 132.74 181.36 133.74 181.44 Z M 134.81 181.52 L 135.83 181.56 C 136.83 181.60 137.67 180.83 137.71 179.83 C 137.75 178.84 136.97 178.00 135.98 177.96 L 134.95 177.92 C 133.96 177.88 133.12 178.65 133.08 179.65 C 133.04 180.64 133.81 181.48 134.81 181.52 Z M 135.91 181.56 L 136.94 181.56 C 137.94 181.56 138.74 180.75 138.74 179.75 C 138.73 178.75 137.92 177.95 136.93 177.95 L 135.90 177.96 C 134.90 177.96 134.10 178.77 134.10 179.77 C 134.10 180.76 134.92 181.57 135.91 181.56 Z M 137.03 181.56 L 138.05 181.51 C 139.04 181.45 139.81 180.61 139.76 179.61 C 139.70 178.62 138.86 177.85 137.86 177.90 L 136.84 177.96 C 135.85 178.01 135.08 178.86 135.13 179.85 C 135.19 180.85 136.03 181.61 137.03 181.56 Z M 138.15 181.50 L 139.14 181.39 C 140.13 181.28 140.85 180.39 140.74 179.40 C 140.63 178.41 139.74 177.70 138.75 177.80 L 137.76 177.91 C 136.77 178.02 136.05 178.91 136.16 179.90 C 136.27 180.89 137.16 181.60 138.15 181.50 Z M 139.26 181.37 L 140.21 181.21 C 141.19 181.04 141.85 180.10 141.68 179.12 C 141.50 178.14 140.57 177.48 139.59 177.65 L 138.64 177.82 C 137.66 177.99 137.00 178.93 137.17 179.91 C 137.34 180.89 138.28 181.55 139.26 181.37 Z M 140.36 181.17 L 141.36 180.91 C 142.33 180.66 142.90 179.67 142.65 178.71 C 142.40 177.75 141.41 177.17 140.45 177.42 L 139.44 177.69 C 138.48 177.94 137.90 178.92 138.16 179.89 C 138.41 180.85 139.39 181.43 140.36 181.17 Z M 141.52 180.86 L 142.48 180.51 C 143.42 180.17 143.90 179.13 143.56 178.20 C 143.22 177.26 142.18 176.78 141.25 177.12 L 140.29 177.47 C 139.35 177.81 138.87 178.85 139.21 179.79 C 139.55 180.72 140.59 181.20 141.52 180.86 Z M 142.63 180.45 L 143.53 180.02 C 144.43 179.60 144.82 178.52 144.39 177.62 C 143.97 176.72 142.89 176.34 141.99 176.76 L 141.10 177.18 C 140.19 177.61 139.81 178.68 140.23 179.59 C 140.66 180.49 141.73 180.87 142.63 180.45 Z M 143.66 179.96 L 144.51 179.47 C 145.37 178.97 145.67 177.87 145.17 177.00 C 144.67 176.14 143.57 175.84 142.71 176.34 L 141.86 176.83 C 141.00 177.33 140.70 178.43 141.20 179.29 C 141.70 180.16 142.80 180.45 143.66 179.96 Z M 144.62 179.40 L 145.43 178.85 C 146.25 178.29 146.47 177.17 145.91 176.35 C 145.35 175.52 144.23 175.31 143.41 175.86 L 142.60 176.41 C 141.77 176.97 141.56 178.09 142.12 178.91 C 142.67 179.74 143.80 179.96 144.62 179.40 Z M 145.51 178.79 L 146.29 178.19 C 147.09 177.59 147.24 176.46 146.63 175.67 C 146.03 174.87 144.89 174.72 144.10 175.33 L 143.32 175.92 C 142.53 176.53 142.38 177.66 142.99 178.45 C 143.59 179.24 144.72 179.40 145.51 178.79 Z M 146.36 178.14 L 147.11 177.51 C 147.87 176.87 147.98 175.74 147.34 174.97 C 146.70 174.21 145.56 174.11 144.80 174.75 L 144.04 175.38 C 143.28 176.02 143.18 177.15 143.82 177.92 C 144.45 178.68 145.59 178.78 146.36 178.14 Z M 147.16 177.47 L 147.89 176.81 C 148.63 176.15 148.69 175.01 148.03 174.27 C 147.36 173.53 146.22 173.47 145.48 174.13 L 144.75 174.79 C 144.01 175.45 143.95 176.59 144.61 177.34 C 145.28 178.08 146.42 178.14 147.16 177.47 Z M 147.93 176.77 L 148.65 176.09 C 149.37 175.40 149.39 174.25 148.70 173.54 C 148.01 172.82 146.87 172.79 146.15 173.48 L 145.43 174.17 C 144.72 174.86 144.69 176.00 145.38 176.72 C 146.07 177.44 147.21 177.46 147.93 176.77 Z M 148.69 176.05 L 149.39 175.33 C 150.09 174.62 150.08 173.47 149.36 172.78 C 148.65 172.08 147.51 172.09 146.81 172.81 L 146.11 173.52 C 145.42 174.24 145.43 175.38 146.14 176.07 C 146.85 176.77 147.99 176.76 148.69 176.05 Z M 149.43 175.29 L 150.11 174.55 C 150.79 173.81 150.74 172.67 150.01 172.00 C 149.27 171.32 148.13 171.37 147.46 172.10 L 146.78 172.85 C 146.10 173.58 146.15 174.72 146.88 175.39 C 147.61 176.07 148.76 176.02 149.43 175.29 Z M 150.15 174.51 L 150.81 173.74 C 151.46 172.99 151.38 171.85 150.63 171.20 C 149.88 170.54 148.74 170.63 148.08 171.38 L 147.42 172.14 C 146.77 172.90 146.85 174.04 147.60 174.69 C 148.36 175.34 149.50 175.26 150.15 174.51 Z M 150.85 173.70 L 151.48 172.92 C 152.11 172.15 152.00 171.01 151.23 170.38 C 150.45 169.75 149.32 169.87 148.69 170.64 L 148.05 171.42 C 147.42 172.19 147.54 173.33 148.31 173.96 C 149.08 174.59 150.22 174.47 150.85 173.70 Z M 151.52 172.88 L 152.10 172.12 C 152.71 171.33 152.56 170.20 151.77 169.59 C 150.98 168.98 149.84 169.13 149.24 169.92 L 148.66 170.68 C 148.05 171.47 148.20 172.60 148.99 173.21 C 149.78 173.82 150.91 173.67 151.52 172.88 Z M 152.13 172.08 L 152.69 171.31 C 153.27 170.50 153.09 169.37 152.28 168.79 C 151.47 168.20 150.35 168.38 149.76 169.19 L 149.20 169.96 C 148.62 170.77 148.80 171.90 149.61 172.48 C 150.42 173.07 151.55 172.89 152.13 172.08 Z M 152.72 171.26 L 153.26 170.46 C 153.82 169.64 153.60 168.51 152.78 167.95 C 151.95 167.40 150.83 167.61 150.27 168.44 L 149.73 169.24 C 149.17 170.06 149.39 171.19 150.21 171.74 C 151.04 172.30 152.16 172.09 152.72 171.26 Z M 153.29 170.41 L 153.82 169.58 C 154.35 168.74 154.10 167.62 153.25 167.09 C 152.41 166.56 151.29 166.81 150.76 167.66 L 150.24 168.49 C 149.71 169.33 149.96 170.45 150.80 170.98 C 151.64 171.51 152.76 171.26 153.29 170.41 Z M 153.85 169.53 L 154.36 168.66 C 154.86 167.80 154.58 166.70 153.72 166.19 C 152.86 165.69 151.75 165.97 151.24 166.83 L 150.73 167.70 C 150.23 168.56 150.51 169.67 151.37 170.18 C 152.23 170.68 153.34 170.39 153.85 169.53 Z M 154.39 168.62 L 154.89 167.70 C 155.37 166.82 155.05 165.73 154.17 165.25 C 153.30 164.77 152.20 165.09 151.72 165.96 L 151.22 166.88 C 150.74 167.76 151.06 168.85 151.93 169.33 C 152.81 169.81 153.91 169.49 154.39 168.62 Z M 154.91 167.65 L 155.41 166.68 C 155.86 165.79 155.51 164.71 154.62 164.25 C 153.73 163.80 152.64 164.15 152.19 165.04 L 151.69 166.01 C 151.24 166.90 151.59 167.99 152.48 168.44 C 153.37 168.89 154.46 168.54 154.91 167.65 Z M 155.43 166.64 L 155.84 165.78 C 156.27 164.88 155.89 163.80 154.99 163.37 C 154.09 162.94 153.01 163.32 152.58 164.22 L 152.17 165.08 C 151.74 165.98 152.12 167.06 153.02 167.49 C 153.92 167.92 155.00 167.54 155.43 166.64 Z M 155.86 165.75 L 156.26 164.86 C 156.67 163.95 156.27 162.88 155.36 162.47 C 154.45 162.05 153.38 162.46 152.96 163.37 L 152.56 164.26 C 152.15 165.17 152.55 166.24 153.46 166.65 C 154.37 167.06 155.45 166.66 155.86 165.75 Z M 156.28 164.83 L 156.67 163.91 C 157.06 162.99 156.64 161.93 155.72 161.53 C 154.80 161.14 153.73 161.57 153.34 162.48 L 152.95 163.40 C 152.55 164.32 152.98 165.39 153.90 165.78 C 154.82 166.17 155.88 165.75 156.28 164.83 Z M 156.69 163.88 L 157.06 162.94 C 157.44 162.01 156.99 160.95 156.06 160.58 C 155.13 160.20 154.08 160.65 153.70 161.58 L 153.32 162.52 C 152.95 163.45 153.40 164.50 154.33 164.88 C 155.25 165.25 156.31 164.80 156.69 163.88 Z M 157.08 162.90 L 157.44 161.95 C 157.80 161.01 157.33 159.96 156.39 159.61 C 155.45 159.25 154.40 159.72 154.05 160.66 L 153.69 161.61 C 153.33 162.55 153.80 163.60 154.74 163.95 C 155.68 164.31 156.72 163.84 157.08 162.90 Z M 157.46 161.91 L 157.80 160.95 C 158.13 160.00 157.64 158.96 156.69 158.63 C 155.75 158.29 154.71 158.79 154.38 159.73 L 154.03 160.70 C 153.70 161.64 154.19 162.68 155.14 163.01 C 156.08 163.35 157.12 162.85 157.46 161.91 Z M 157.81 160.91 L 158.13 159.94 C 158.45 158.99 157.93 157.96 156.97 157.65 C 156.02 157.33 154.99 157.85 154.68 158.80 L 154.36 159.77 C 154.05 160.72 154.57 161.75 155.52 162.07 C 156.47 162.38 157.50 161.86 157.81 160.91 Z M 158.15 159.90 L 158.44 158.94 C 158.73 157.97 158.18 156.96 157.22 156.67 C 156.26 156.38 155.24 156.92 154.95 157.88 L 154.66 158.85 C 154.37 159.81 154.92 160.82 155.88 161.11 C 156.84 161.40 157.86 160.86 158.15 159.90 Z M 158.45 158.89 L 158.73 157.88 C 158.99 156.91 158.42 155.91 157.45 155.64 C 156.48 155.38 155.48 155.95 155.21 156.92 L 154.94 157.93 C 154.67 158.90 155.25 159.90 156.22 160.17 C 157.19 160.43 158.19 159.86 158.45 158.89 Z M 158.74 157.82 L 158.99 156.80 C 159.22 155.82 158.62 154.83 157.64 154.60 C 156.66 154.37 155.68 154.97 155.44 155.95 L 155.20 156.97 C 154.96 157.95 155.57 158.94 156.55 159.17 C 157.52 159.41 158.51 158.80 158.74 157.82 Z M 159.00 156.74 L 159.21 155.73 C 159.41 154.74 158.78 153.78 157.79 153.57 C 156.80 153.37 155.84 154.01 155.64 154.99 L 155.43 156.01 C 155.23 156.99 155.86 157.96 156.85 158.16 C 157.84 158.36 158.80 157.73 159.00 156.74 Z M 159.22 155.67 L 159.39 154.67 C 159.56 153.68 158.89 152.73 157.90 152.56 C 156.91 152.40 155.96 153.06 155.79 154.06 L 155.62 155.05 C 155.46 156.05 156.12 156.99 157.12 157.16 C 158.11 157.33 159.05 156.66 159.22 155.67 Z M 159.41 154.61 L 159.54 153.63 C 159.67 152.63 158.97 151.71 157.97 151.57 C 156.97 151.44 156.05 152.14 155.91 153.14 L 155.78 154.12 C 155.65 155.12 156.35 156.04 157.35 156.18 C 158.35 156.31 159.27 155.61 159.41 154.61 Z M 159.55 153.56 L 159.64 152.59 C 159.74 151.59 159.00 150.70 158.00 150.60 C 156.99 150.50 156.10 151.24 156.00 152.24 L 155.91 153.21 C 155.81 154.21 156.54 155.11 157.55 155.20 C 158.56 155.30 159.45 154.56 159.55 153.56 Z M 159.65 152.52 L 159.70 151.57 C 159.76 150.56 158.99 149.70 157.98 149.64 C 156.97 149.58 156.11 150.35 156.05 151.36 L 155.99 152.31 C 155.93 153.32 156.70 154.19 157.71 154.25 C 158.72 154.30 159.59 153.53 159.65 152.52 Z M 159.71 151.50 L 159.72 150.55 C 159.74 149.54 158.94 148.71 157.92 148.69 C 156.91 148.67 156.08 149.48 156.06 150.49 L 156.04 151.43 C 156.02 152.45 156.83 153.28 157.84 153.30 C 158.85 153.32 159.69 152.51 159.71 151.50 Z M 159.72 150.47 L 159.69 149.35 C 159.66 148.34 158.81 147.55 157.80 147.58 C 156.79 147.61 156.00 148.45 156.03 149.46 L 156.06 150.58 C 156.09 151.59 156.94 152.38 157.95 152.35 C 158.96 152.32 159.75 151.48 159.72 150.47 Z M 159.68 149.23 L 159.58 148.16 C 159.48 147.15 158.59 146.42 157.58 146.51 C 156.57 146.61 155.83 147.51 155.93 148.51 L 156.03 149.59 C 156.13 150.59 157.03 151.33 158.03 151.23 C 159.04 151.14 159.78 150.24 159.68 149.23 Z M 159.56 148.01 L 159.37 147.00 C 159.19 146.00 158.23 145.34 157.24 145.52 C 156.24 145.71 155.58 146.66 155.76 147.66 L 155.95 148.67 C 156.13 149.67 157.09 150.33 158.09 150.14 C 159.08 149.96 159.74 149.00 159.56 148.01 Z M 159.33 146.80 L 159.04 145.87 C 158.75 144.90 157.73 144.35 156.76 144.64 C 155.79 144.93 155.24 145.95 155.53 146.92 L 155.81 147.86 C 156.10 148.83 157.13 149.38 158.10 149.08 C 159.07 148.79 159.62 147.77 159.33 146.80 Z M 158.95 145.62 L 158.56 144.78 C 158.14 143.86 157.05 143.46 156.13 143.89 C 155.21 144.32 154.81 145.41 155.23 146.33 L 155.62 147.17 C 156.05 148.08 157.14 148.48 158.06 148.06 C 158.98 147.63 159.38 146.54 158.95 145.62 Z M 158.40 144.50 L 157.89 143.78 C 157.31 142.95 156.17 142.75 155.34 143.33 C 154.51 143.91 154.31 145.06 154.89 145.89 L 155.40 146.61 C 155.98 147.44 157.12 147.64 157.95 147.06 C 158.78 146.48 158.98 145.33 158.40 144.50 Z M 157.64 143.48 L 156.97 142.87 C 156.22 142.18 155.06 142.22 154.37 142.97 C 153.69 143.71 153.73 144.87 154.48 145.56 L 155.14 146.18 C 155.89 146.87 157.05 146.82 157.74 146.08 C 158.43 145.33 158.38 144.17 157.64 143.48 Z M 156.67 142.64 L 155.87 142.16 C 155.00 141.63 153.88 141.91 153.35 142.78 C 152.82 143.64 153.10 144.77 153.97 145.30 L 154.77 145.78 C 155.64 146.31 156.77 146.03 157.29 145.17 C 157.82 144.30 157.54 143.17 156.67 142.64 Z M 155.61 142.03 L 154.70 141.66 C 153.76 141.28 152.69 141.74 152.31 142.68 C 151.93 143.62 152.39 144.68 153.33 145.06 L 154.23 145.43 C 155.17 145.81 156.24 145.35 156.62 144.41 C 157.00 143.47 156.55 142.40 155.61 142.03 Z M 154.48 141.59 L 153.50 141.33 C 152.52 141.07 151.52 141.65 151.26 142.63 C 151.00 143.61 151.58 144.62 152.56 144.88 L 153.55 145.14 C 154.53 145.40 155.53 144.81 155.79 143.83 C 156.05 142.85 155.46 141.85 154.48 141.59 Z M 153.33 141.29 L 152.30 141.12 C 151.30 140.96 150.35 141.63 150.19 142.63 C 150.03 143.64 150.70 144.58 151.70 144.74 L 152.73 144.91 C 153.73 145.08 154.68 144.40 154.84 143.40 C 155.01 142.40 154.33 141.46 153.33 141.29 Z M 152.17 141.11 L 151.11 141.01 C 150.10 140.92 149.21 141.66 149.12 142.67 C 149.03 143.68 149.77 144.57 150.78 144.66 L 151.84 144.76 C 152.85 144.85 153.74 144.11 153.83 143.10 C 153.92 142.09 153.18 141.20 152.17 141.11 Z M 151.01 141.01 L 150.03 140.97 C 149.01 140.94 148.17 141.73 148.13 142.74 C 148.10 143.75 148.89 144.60 149.90 144.63 L 150.88 144.67 C 151.89 144.70 152.74 143.91 152.78 142.90 C 152.81 141.89 152.02 141.04 151.01 141.01 Z M 149.92 140.98 L 148.95 141.00 C 147.94 141.02 147.14 141.85 147.17 142.86 C 147.19 143.87 148.02 144.67 149.03 144.65 L 150.00 144.63 C 151.01 144.61 151.81 143.77 151.79 142.76 C 151.77 141.76 150.93 140.96 149.92 140.98 Z M 148.84 141.01 L 147.87 141.09 C 146.87 141.18 146.12 142.06 146.21 143.06 C 146.29 144.06 147.17 144.81 148.18 144.72 L 149.15 144.64 C 150.15 144.55 150.89 143.67 150.81 142.67 C 150.72 141.67 149.84 140.92 148.84 141.01 Z M 147.74 141.11 L 146.77 141.26 C 145.78 141.42 145.10 142.34 145.25 143.34 C 145.41 144.33 146.33 145.00 147.32 144.85 L 148.30 144.70 C 149.29 144.55 149.97 143.62 149.82 142.63 C 149.66 141.64 148.73 140.96 147.74 141.11 Z M 146.64 141.29 L 145.66 141.52 C 144.68 141.75 144.08 142.72 144.30 143.69 C 144.53 144.67 145.50 145.27 146.47 145.05 L 147.45 144.82 C 148.43 144.60 149.04 143.62 148.81 142.65 C 148.58 141.68 147.61 141.07 146.64 141.29 Z M 145.53 141.56 L 144.53 141.87 C 143.58 142.17 143.05 143.18 143.35 144.13 C 143.65 145.08 144.66 145.61 145.61 145.32 L 146.60 145.01 C 147.55 144.71 148.08 143.70 147.79 142.75 C 147.49 141.79 146.48 141.26 145.53 141.56 Z M 144.41 141.92 L 143.45 142.30 C 142.53 142.67 142.08 143.71 142.45 144.64 C 142.81 145.56 143.86 146.01 144.78 145.64 L 145.73 145.27 C 146.66 144.90 147.11 143.86 146.74 142.93 C 146.38 142.01 145.33 141.56 144.41 141.92 Z M 143.35 142.36 L 142.47 142.78 C 141.57 143.20 141.19 144.26 141.61 145.16 C 142.03 146.05 143.10 146.43 143.99 146.01 L 144.88 145.59 C 145.77 145.17 146.16 144.10 145.73 143.21 C 145.31 142.32 144.25 141.93 143.35 142.36 Z M 142.39 142.82 L 141.50 143.30 C 140.64 143.76 140.31 144.84 140.77 145.71 C 141.23 146.57 142.31 146.90 143.18 146.44 L 144.07 145.96 C 144.93 145.50 145.26 144.42 144.80 143.56 C 144.33 142.69 143.26 142.36 142.39 142.82 Z M 141.44 143.35 L 140.56 143.86 C 139.72 144.36 139.44 145.44 139.93 146.28 C 140.43 147.13 141.51 147.41 142.35 146.91 L 143.24 146.39 C 144.08 145.90 144.36 144.81 143.86 143.97 C 143.37 143.13 142.28 142.85 141.44 143.35 Z M 140.51 143.91 L 139.65 144.46 C 138.83 144.98 138.59 146.06 139.11 146.88 C 139.63 147.70 140.72 147.94 141.53 147.42 L 142.40 146.87 C 143.22 146.35 143.46 145.26 142.94 144.44 C 142.42 143.63 141.33 143.38 140.51 143.91 Z M 139.61 144.49 L 138.77 145.06 C 137.97 145.60 137.76 146.69 138.30 147.49 C 138.85 148.29 139.93 148.50 140.73 147.95 L 141.57 147.38 C 142.37 146.84 142.58 145.76 142.04 144.96 C 141.50 144.16 140.41 143.95 139.61 144.49 Z M 138.74 145.10 L 137.93 145.67 C 137.15 146.23 136.97 147.32 137.53 148.10 C 138.08 148.88 139.17 149.06 139.95 148.50 L 140.76 147.92 C 141.54 147.36 141.72 146.28 141.16 145.50 C 140.60 144.72 139.52 144.54 138.74 145.10 Z M 137.91 145.70 L 137.13 146.28 C 136.37 146.85 136.21 147.93 136.78 148.70 C 137.35 149.46 138.43 149.62 139.20 149.05 L 139.97 148.47 C 140.74 147.90 140.89 146.82 140.32 146.06 C 139.75 145.29 138.67 145.13 137.91 145.70 Z M 137.12 146.32 L 136.24 147.00 C 135.50 147.57 135.36 148.65 135.94 149.39 C 136.52 150.14 137.60 150.27 138.34 149.69 L 139.22 149.01 C 139.96 148.43 140.09 147.36 139.52 146.62 C 138.94 145.87 137.86 145.74 137.12 146.32 Z M 136.23 147.03 L 135.42 147.69 C 134.69 148.28 134.58 149.34 135.17 150.07 C 135.75 150.79 136.82 150.90 137.54 150.32 L 138.35 149.66 C 139.08 149.07 139.19 148.01 138.60 147.28 C 138.02 146.56 136.95 146.45 136.23 147.03 Z M 135.41 147.73 L 134.64 148.37 C 133.94 148.97 133.84 150.02 134.44 150.72 C 135.03 151.42 136.08 151.52 136.78 150.92 L 137.55 150.28 C 138.25 149.69 138.34 148.64 137.75 147.93 C 137.16 147.23 136.11 147.14 135.41 147.73 Z M 134.64 148.41 L 133.90 149.04 C 133.22 149.63 133.14 150.67 133.74 151.36 C 134.33 152.04 135.37 152.12 136.06 151.52 L 136.79 150.89 C 137.47 150.30 137.55 149.26 136.95 148.57 C 136.36 147.89 135.32 147.81 134.64 148.41 Z M 133.91 149.06 L 133.20 149.69 C 132.53 150.28 132.47 151.31 133.06 151.98 C 133.65 152.65 134.68 152.71 135.35 152.12 L 136.05 151.50 C 136.73 150.90 136.79 149.88 136.20 149.21 C 135.60 148.54 134.58 148.47 133.91 149.06 Z M 133.21 149.71 L 132.51 150.33 C 131.85 150.92 131.80 151.93 132.39 152.59 C 132.97 153.25 133.99 153.31 134.65 152.72 L 135.34 152.10 C 136.00 151.51 136.06 150.50 135.47 149.84 C 134.88 149.18 133.87 149.12 133.21 149.71 Z"
      fill="black"
      fill-rule="nonzero" /></svg>