<svg xmlns="http://www.w3.org/2000/svg" width="300" height="300" viewBox="0 0 300 300">
<path d="M 69.42 164.49 L 70.32 164.46 C 71.39 164.42 72.22 163.53 72.19 162.47 C 72.15 161.41 71.26 160.57 70.20 160.61 L 69.30 160.63 C 68.23 160.67 67.40 161.56 67.43 162.62 C 67.47 163.69 68.36 164.52 69.42 164.49 Z M 70.32 164.48 L 71.24 164.45 C 72.31 164.42 73.16 163.52 73.12 162.44 C 73.09 161.37 72.19 160.52 71.12 160.56 L 70.20 160.58 C 69.13 160.62 68.28 161.52 68.31 162.59 C 68.35 163.67 69.25 164.51 70.32 164.48 Z M 71.23 164.47 L 72.17 164.44 C 73.26 164.41 74.11 163.51 74.08 162.42 C 74.05 161.33 73.14 160.47 72.05 160.51 L 71.12 160.53 C 70.03 160.57 69.18 161.47 69.21 162.56 C 69.24 163.65 70.15 164.50 71.23 164.47 Z M 72.16 164.47 L 73.13 164.44 C 74.23 164.41 75.10 163.50 75.07 162.40 C 75.04 161.30 74.12 160.43 73.02 160.46 L 72.06 160.49 C 70.96 160.51 70.09 161.43 70.12 162.53 C 70.15 163.63 71.07 164.50 72.16 164.47 Z M 73.12 164.46 L 74.13 164.44 C 75.24 164.41 76.12 163.49 76.09 162.38 C 76.07 161.27 75.15 160.39 74.03 160.41 L 73.03 160.44 C 71.92 160.46 71.04 161.39 71.06 162.50 C 71.09 163.61 72.01 164.49 73.12 164.46 Z M 74.12 164.46 L 75.18 164.44 C 76.30 164.42 77.20 163.49 77.17 162.36 C 77.15 161.24 76.22 160.35 75.10 160.37 L 74.04 160.39 C 72.92 160.41 72.03 161.34 72.05 162.47 C 72.07 163.59 73.00 164.48 74.12 164.46 Z M 75.17 164.46 L 76.29 164.44 C 77.43 164.42 78.33 163.49 78.31 162.35 C 78.29 161.22 77.36 160.31 76.22 160.33 L 75.11 160.35 C 73.97 160.37 73.07 161.30 73.08 162.44 C 73.10 163.57 74.04 164.48 75.17 164.46 Z M 76.28 164.46 L 77.34 164.45 C 78.49 164.43 79.41 163.49 79.39 162.35 C 79.38 161.20 78.44 160.28 77.29 160.30 L 76.23 160.31 C 75.09 160.33 74.17 161.27 74.18 162.41 C 74.20 163.56 75.14 164.47 76.28 164.46 Z M 77.34 164.46 L 78.28 164.45 C 79.43 164.44 80.36 163.49 80.34 162.34 C 80.33 161.19 79.39 160.27 78.24 160.28 L 77.30 160.29 C 76.15 160.30 75.22 161.24 75.23 162.39 C 75.25 163.54 76.19 164.47 77.34 164.46 Z M 78.28 164.45 L 79.25 164.45 C 80.41 164.44 81.34 163.49 81.33 162.34 C 81.32 161.18 80.37 160.25 79.22 160.26 L 78.24 160.27 C 77.09 160.28 76.16 161.23 76.17 162.38 C 76.18 163.54 77.12 164.46 78.28 164.45 Z M 79.25 164.45 L 80.25 164.45 C 81.41 164.44 82.34 163.49 82.33 162.33 C 82.32 161.17 81.38 160.24 80.22 160.25 L 79.22 160.26 C 78.06 160.27 77.13 161.21 77.14 162.37 C 77.15 163.53 78.09 164.46 79.25 164.45 Z M 80.25 164.45 L 81.27 164.44 C 82.43 164.44 83.37 163.49 83.36 162.32 C 83.35 161.16 82.40 160.23 81.24 160.24 L 80.22 160.24 C 79.06 160.25 78.12 161.20 78.13 162.36 C 78.14 163.53 79.09 164.46 80.25 164.45 Z M 81.27 164.45 L 82.30 164.44 C 83.47 164.43 84.41 163.48 84.40 162.32 C 84.39 161.15 83.43 160.21 82.27 160.22 L 81.24 160.23 C 80.07 160.24 79.14 161.19 79.15 162.36 C 79.15 163.52 80.11 164.46 81.27 164.45 Z M 82.31 164.45 L 83.34 164.44 C 84.51 164.43 85.45 163.47 85.44 162.30 C 85.43 161.13 84.47 160.19 83.30 160.21 L 82.27 160.21 C 81.10 160.23 80.16 161.18 80.17 162.35 C 80.18 163.52 81.14 164.46 82.31 164.45 Z M 83.34 164.45 L 84.37 164.43 C 85.55 164.42 86.49 163.46 86.47 162.29 C 86.46 161.11 85.50 160.17 84.33 160.19 L 83.30 160.20 C 82.12 160.21 81.18 161.17 81.20 162.35 C 81.21 163.52 82.17 164.46 83.34 164.45 Z M 84.38 164.44 L 85.40 164.43 C 86.57 164.41 87.51 163.44 87.50 162.27 C 87.48 161.09 86.51 160.15 85.34 160.17 L 84.32 160.18 C 83.14 160.20 82.20 161.16 82.22 162.34 C 82.24 163.52 83.20 164.46 84.38 164.44 Z M 85.41 164.43 L 86.40 164.42 C 87.58 164.39 88.52 163.42 88.50 162.24 C 88.48 161.06 87.51 160.12 86.33 160.14 L 85.33 160.16 C 84.15 160.18 83.21 161.15 83.23 162.33 C 83.25 163.51 84.23 164.45 85.41 164.43 Z M 86.41 164.42 L 87.47 164.40 C 88.66 164.37 89.59 163.39 89.57 162.21 C 89.54 161.02 88.56 160.09 87.38 160.11 L 86.32 160.14 C 85.13 160.16 84.20 161.14 84.22 162.33 C 84.25 163.51 85.23 164.45 86.41 164.42 Z M 87.49 164.40 L 88.62 164.37 C 89.80 164.34 90.74 163.35 90.70 162.16 C 90.67 160.98 89.68 160.04 88.50 160.08 L 87.36 160.11 C 86.18 160.14 85.25 161.13 85.28 162.32 C 85.31 163.50 86.30 164.43 87.49 164.40 Z M 88.63 164.37 L 89.71 164.34 C 90.90 164.30 91.83 163.30 91.79 162.12 C 91.75 160.93 90.76 160.00 89.57 160.04 L 88.48 160.07 C 87.30 160.11 86.37 161.11 86.41 162.29 C 86.45 163.48 87.44 164.41 88.63 164.37 Z M 89.72 164.34 L 90.77 164.30 C 91.96 164.26 92.88 163.26 92.84 162.07 C 92.80 160.88 91.80 159.95 90.61 160.00 L 89.56 160.03 C 88.38 160.08 87.45 161.08 87.49 162.27 C 87.54 163.45 88.53 164.38 89.72 164.34 Z M 90.77 164.30 L 91.78 164.26 C 92.97 164.22 93.90 163.21 93.85 162.02 C 93.80 160.83 92.80 159.91 91.61 159.95 L 90.60 159.99 C 89.41 160.04 88.49 161.04 88.53 162.23 C 88.58 163.42 89.58 164.35 90.77 164.30 Z M 91.78 164.27 L 92.75 164.23 C 93.94 164.18 94.86 163.17 94.82 161.98 C 94.77 160.79 93.76 159.86 92.57 159.91 L 91.61 159.95 C 90.41 160.00 89.49 161.00 89.54 162.20 C 89.58 163.39 90.59 164.31 91.78 164.27 Z M 92.74 164.23 L 93.67 164.19 C 94.86 164.14 95.79 163.14 95.74 161.94 C 95.70 160.75 94.69 159.82 93.50 159.87 L 92.57 159.91 C 91.38 159.96 90.45 160.96 90.50 162.16 C 90.55 163.35 91.55 164.28 92.74 164.23 Z M 93.67 164.20 L 94.55 164.16 C 95.75 164.12 96.68 163.11 96.64 161.91 C 96.59 160.72 95.58 159.79 94.39 159.83 L 93.50 159.87 C 92.31 159.91 91.37 160.92 91.42 162.11 C 91.46 163.31 92.47 164.24 93.67 164.20 Z M 94.54 164.16 L 95.44 164.13 C 96.64 164.09 97.57 163.09 97.53 161.89 C 97.49 160.70 96.49 159.76 95.29 159.80 L 94.40 159.83 C 93.20 159.87 92.26 160.87 92.30 162.07 C 92.34 163.27 93.35 164.21 94.54 164.16 Z M 95.42 164.14 L 96.50 164.11 C 97.70 164.08 98.64 163.08 98.61 161.88 C 98.58 160.68 97.58 159.74 96.38 159.77 L 95.31 159.80 C 94.11 159.83 93.16 160.83 93.19 162.02 C 93.23 163.22 94.22 164.17 95.42 164.14 Z M 96.48 164.11 L 97.51 164.09 C 98.71 164.07 99.66 163.08 99.64 161.88 C 99.62 160.67 98.62 159.72 97.42 159.74 L 96.40 159.76 C 95.20 159.79 94.24 160.78 94.26 161.98 C 94.29 163.18 95.28 164.14 96.48 164.11 Z M 97.50 164.10 L 98.49 164.08 C 99.69 164.06 100.65 163.07 100.64 161.87 C 100.62 160.67 99.63 159.71 98.42 159.73 L 97.43 159.74 C 96.23 159.76 95.27 160.75 95.29 161.95 C 95.31 163.15 96.30 164.11 97.50 164.10 Z M 98.49 164.08 L 99.45 164.07 C 100.66 164.06 101.62 163.07 101.61 161.86 C 101.59 160.66 100.60 159.69 99.40 159.71 L 98.43 159.72 C 97.23 159.74 96.26 160.73 96.28 161.93 C 96.29 163.14 97.28 164.10 98.49 164.08 Z M 99.45 164.08 L 100.41 164.06 C 101.62 164.05 102.59 163.06 102.57 161.85 C 102.56 160.64 101.57 159.68 100.36 159.69 L 99.40 159.71 C 98.19 159.72 97.23 160.71 97.24 161.92 C 97.26 163.13 98.25 164.09 99.45 164.08 Z M 100.42 164.07 L 101.38 164.05 C 102.59 164.03 103.56 163.04 103.54 161.83 C 103.52 160.62 102.52 159.66 101.32 159.68 L 100.35 159.69 C 99.15 159.71 98.18 160.70 98.20 161.91 C 98.22 163.12 99.21 164.09 100.42 164.07 Z M 101.39 164.05 L 102.37 164.03 C 103.58 164.01 104.54 163.01 104.51 161.80 C 104.49 160.59 103.49 159.63 102.28 159.65 L 101.31 159.67 C 100.10 159.70 99.14 160.70 99.16 161.91 C 99.18 163.12 100.18 164.08 101.39 164.05 Z M 102.37 164.04 L 103.36 164.01 C 104.57 163.98 105.53 162.98 105.50 161.77 C 105.47 160.56 104.47 159.60 103.26 159.63 L 102.27 159.65 C 101.06 159.68 100.10 160.69 100.13 161.90 C 100.16 163.11 101.16 164.07 102.37 164.04 Z M 103.36 164.02 L 104.36 163.99 C 105.57 163.96 106.53 162.95 106.50 161.74 C 106.47 160.53 105.46 159.57 104.25 159.60 L 103.25 159.63 C 102.04 159.66 101.08 160.67 101.11 161.88 C 101.14 163.09 102.15 164.05 103.36 164.02 Z M 104.36 163.99 L 105.37 163.97 C 106.58 163.93 107.54 162.93 107.51 161.71 C 107.48 160.50 106.47 159.54 105.25 159.57 L 104.25 159.60 C 103.03 159.63 102.08 160.64 102.11 161.85 C 102.14 163.07 103.15 164.02 104.36 163.99 Z M 105.36 163.97 L 106.38 163.94 C 107.59 163.91 108.55 162.91 108.52 161.69 C 108.49 160.48 107.48 159.51 106.27 159.54 L 105.26 159.57 C 104.04 159.60 103.08 160.61 103.11 161.82 C 103.14 163.04 104.15 164.00 105.36 163.97 Z M 106.37 163.95 L 107.39 163.92 C 108.60 163.90 109.57 162.89 109.54 161.68 C 109.52 160.46 108.51 159.49 107.29 159.52 L 106.28 159.54 C 105.06 159.57 104.10 160.57 104.12 161.79 C 104.15 163.01 105.15 163.97 106.37 163.95 Z M 107.38 163.93 L 108.38 163.91 C 109.60 163.89 110.57 162.89 110.55 161.67 C 110.53 160.45 109.53 159.48 108.31 159.50 L 107.30 159.52 C 106.09 159.54 105.11 160.54 105.13 161.76 C 105.15 162.98 106.16 163.95 107.38 163.93 Z M 108.37 163.91 L 109.37 163.90 C 110.59 163.89 111.57 162.89 111.55 161.67 C 111.54 160.45 110.54 159.47 109.32 159.49 L 108.32 159.50 C 107.10 159.51 106.12 160.51 106.14 161.73 C 106.15 162.95 107.15 163.93 108.37 163.91 Z M 109.36 163.90 L 110.36 163.90 C 111.58 163.89 112.56 162.89 112.56 161.67 C 112.55 160.45 111.55 159.47 110.33 159.48 L 109.33 159.48 C 108.11 159.49 107.13 160.49 107.14 161.71 C 107.15 162.93 108.14 163.91 109.36 163.90 Z M 110.36 163.90 L 111.36 163.89 C 112.58 163.89 113.56 162.89 113.56 161.67 C 113.55 160.45 112.56 159.46 111.34 159.47 L 110.34 159.47 C 109.11 159.48 108.13 160.47 108.13 161.70 C 108.14 162.92 109.13 163.90 110.36 163.90 Z M 111.35 163.90 L 112.35 163.89 C 113.57 163.89 114.56 162.90 114.56 161.67 C 114.56 160.45 113.56 159.46 112.34 159.47 L 111.34 159.47 C 110.12 159.47 109.13 160.46 109.13 161.69 C 109.13 162.91 110.13 163.90 111.35 163.90 Z M 112.35 163.90 L 113.35 163.90 C 114.57 163.90 115.56 162.90 115.56 161.68 C 115.56 160.45 114.57 159.46 113.34 159.46 L 112.34 159.46 C 111.12 159.46 110.13 160.46 110.13 161.68 C 110.13 162.91 111.12 163.90 112.35 163.90 Z M 113.35 163.90 L 114.33 163.90 C 115.55 163.90 116.54 162.90 116.54 161.68 C 116.54 160.45 115.55 159.46 114.33 159.46 L 113.35 159.46 C 112.12 159.46 111.13 160.45 111.13 161.68 C 111.13 162.90 112.12 163.90 113.35 163.90 Z M 114.33 163.90 L 115.24 163.90 C 116.47 163.90 117.46 162.91 117.46 161.68 C 117.46 160.45 116.47 159.46 115.24 159.46 L 114.33 159.46 C 113.10 159.46 112.10 160.45 112.10 161.68 C 112.10 162.91 113.10 163.90 114.33 163.90 Z M 115.24 163.90 L 116.17 163.90 C 117.40 163.90 118.39 162.91 118.39 161.68 C 118.39 160.45 117.40 159.45 116.17 159.45 L 115.24 159.45 C 114.01 159.45 113.01 160.45 113.01 161.68 C 113.01 162.91 114.01 163.90 115.24 163.90 Z M 116.17 163.91 L 117.12 163.91 C 118.35 163.91 119.35 162.91 119.35 161.68 C 119.35 160.45 118.35 159.45 117.12 159.45 L 116.17 159.45 C 114.94 159.45 113.94 160.45 113.94 161.68 C 113.94 162.91 114.94 163.91 116.17 163.91 Z M 117.12 163.91 L 118.11 163.91 C 119.34 163.91 120.34 162.91 120.34 161.68 C 120.34 160.45 119.34 159.45 118.11 159.45 L 117.12 159.45 C 115.89 159.45 114.89 160.45 114.89 161.68 C 114.89 162.91 115.89 163.91 117.12 163.91 Z M 118.11 163.91 L 119.14 163.91 C 120.37 163.91 121.37 162.91 121.37 161.68 C 121.37 160.45 120.37 159.45 119.14 159.45 L 118.11 159.45 C 116.87 159.45 115.87 160.45 115.87 161.68 C 115.87 162.91 116.87 163.91 118.11 163.91 Z M 119.14 163.91 L 120.23 163.91 C 121.46 163.91 122.46 162.91 122.46 161.68 C 122.46 160.44 121.46 159.44 120.23 159.44 L 119.14 159.44 C 117.90 159.44 116.90 160.44 116.90 161.68 C 116.90 162.91 117.90 163.91 119.14 163.91 Z M 120.23 163.92 L 121.33 163.92 C 122.57 163.92 123.57 162.91 123.57 161.68 C 123.57 160.44 122.57 159.44 121.33 159.44 L 120.23 159.44 C 118.99 159.44 117.99 160.44 117.99 161.68 C 117.99 162.91 118.99 163.92 120.23 163.92 Z M 121.33 163.92 L 122.31 163.92 C 123.54 163.92 124.55 162.92 124.55 161.68 C 124.55 160.44 123.54 159.44 122.31 159.44 L 121.33 159.44 C 120.10 159.44 119.09 160.44 119.09 161.68 C 119.09 162.92 120.10 163.92 121.33 163.92 Z M 122.31 163.92 L 123.31 163.92 C 124.55 163.92 125.55 162.92 125.55 161.68 C 125.55 160.44 124.55 159.44 123.31 159.44 L 122.31 159.44 C 121.07 159.44 120.07 160.44 120.07 161.68 C 120.07 162.92 121.07 163.92 122.31 163.92 Z M 123.31 163.92 L 124.34 163.92 C 125.58 163.92 126.58 162.92 126.58 161.68 C 126.58 160.44 125.58 159.44 124.34 159.44 L 123.31 159.44 C 122.07 159.44 121.07 160.44 121.07 161.68 C 121.07 162.92 122.07 163.92 123.31 163.92 Z M 124.34 163.92 L 125.38 163.92 C 126.62 163.92 127.62 162.92 127.62 161.68 C 127.62 160.44 126.62 159.43 125.38 159.43 L 124.34 159.43 C 123.10 159.43 122.10 160.44 122.10 161.68 C 122.10 162.92 123.10 163.92 124.34 163.92 Z M 125.38 163.93 L 126.42 163.93 C 127.66 163.93 128.66 162.92 128.66 161.68 C 128.66 160.44 127.66 159.43 126.42 159.43 L 125.38 159.43 C 124.14 159.43 123.13 160.44 123.13 161.68 C 123.13 162.92 124.14 163.93 125.38 163.93 Z M 126.42 163.93 L 127.44 163.93 C 128.68 163.93 129.69 162.92 129.69 161.68 C 129.69 160.44 128.68 159.43 127.44 159.43 L 126.42 159.43 C 125.17 159.43 124.17 160.44 124.17 161.68 C 124.17 162.92 125.17 163.93 126.42 163.93 Z M 127.44 163.93 L 128.43 163.93 C 129.68 163.93 130.68 162.92 130.68 161.68 C 130.68 160.44 129.68 159.43 128.43 159.43 L 127.44 159.43 C 126.20 159.43 125.19 160.44 125.19 161.68 C 125.19 162.92 126.20 163.93 127.44 163.93 Z M 128.43 163.93 L 129.39 163.93 C 130.63 163.93 131.64 162.92 131.64 161.68 C 131.64 160.44 130.63 159.43 129.39 159.43 L 128.43 159.43 C 127.19 159.43 126.18 160.44 126.18 161.68 C 126.18 162.92 127.19 163.93 128.43 163.93 Z M 129.39 163.93 L 130.44 163.93 C 131.68 163.93 132.69 162.92 132.69 161.68 C 132.69 160.43 131.68 159.43 130.44 159.43 L 129.39 159.43 C 128.15 159.43 127.14 160.43 127.14 161.68 C 127.14 162.92 128.15 163.93 129.39 163.93 Z M 130.44 163.93 L 131.58 163.93 C 132.82 163.93 133.83 162.92 133.83 161.68 C 133.83 160.43 132.82 159.42 131.58 159.42 L 130.44 159.42 C 129.19 159.42 128.18 160.43 128.18 161.68 C 128.18 162.92 129.19 163.93 130.44 163.93 Z M 131.58 163.93 L 132.64 163.93 C 133.88 163.93 134.89 162.92 134.89 161.68 C 134.89 160.43 133.88 159.42 132.64 159.42 L 131.58 159.42 C 130.33 159.42 129.32 160.43 129.32 161.68 C 129.32 162.92 130.33 163.93 131.58 163.93 Z M 132.64 163.94 L 133.63 163.94 C 134.87 163.94 135.88 162.93 135.88 161.68 C 135.88 160.43 134.87 159.42 133.63 159.42 L 132.64 159.42 C 131.39 159.42 130.38 160.43 130.38 161.68 C 130.38 162.93 131.39 163.94 132.64 163.94 Z M 133.63 163.94 L 134.57 163.94 C 135.81 163.94 136.82 162.93 136.82 161.68 C 136.82 160.43 135.81 159.42 134.57 159.42 L 133.63 159.42 C 132.38 159.42 131.37 160.43 131.37 161.68 C 131.37 162.93 132.38 163.94 133.63 163.94 Z M 134.57 163.94 L 135.47 163.94 C 136.71 163.94 137.73 162.93 137.73 161.68 C 137.73 160.43 136.71 159.42 135.47 159.42 L 134.57 159.42 C 133.32 159.42 132.31 160.43 132.31 161.68 C 132.31 162.93 133.32 163.94 134.57 163.94 Z M 135.47 163.94 L 136.35 163.94 C 137.59 163.94 138.61 162.93 138.61 161.68 C 138.61 160.43 137.59 159.42 136.35 159.42 L 135.47 159.42 C 134.22 159.42 133.21 160.43 133.21 161.68 C 133.21 162.93 134.22 163.94 135.47 163.94 Z M 136.35 163.94 L 137.29 163.94 C 138.54 163.94 139.55 162.93 139.55 161.68 C 139.55 160.43 138.54 159.42 137.29 159.42 L 136.35 159.42 C 135.10 159.42 134.08 160.43 134.08 161.68 C 134.08 162.93 135.10 163.94 136.35 163.94 Z M 137.29 163.94 L 138.24 163.94 C 139.49 163.94 140.50 162.93 140.50 161.68 C 140.50 160.43 139.49 159.42 138.24 159.42 L 137.29 159.42 C 136.04 159.42 135.03 160.43 135.03 161.68 C 135.03 162.93 136.04 163.94 137.29 163.94 Z M 138.24 163.94 L 139.21 163.94 C 140.46 163.94 141.47 162.93 141.47 161.68 C 141.47 160.43 140.46 159.42 139.21 159.42 L 138.24 159.42 C 136.99 159.42 135.98 160.43 135.98 161.68 C 135.98 162.93 136.99 163.94 138.24 163.94 Z M 139.21 163.94 L 140.21 163.94 C 141.46 163.94 142.47 162.93 142.47 161.68 C 142.47 160.43 141.46 159.41 140.21 159.41 L 139.21 159.41 C 137.96 159.41 136.94 160.43 136.94 161.68 C 136.94 162.93 137.96 163.94 139.21 163.94 Z M 140.21 163.94 L 141.25 163.94 C 142.50 163.94 143.52 162.93 143.52 161.68 C 143.52 160.43 142.50 159.41 141.25 159.41 L 140.21 159.41 C 138.96 159.41 137.94 160.43 137.94 161.68 C 137.94 162.93 138.96 163.94 140.21 163.94 Z M 141.25 163.95 L 142.34 163.95 C 143.59 163.95 144.61 162.93 144.61 161.68 C 144.61 160.43 143.59 159.41 142.34 159.41 L 141.25 159.41 C 140.00 159.41 138.98 160.43 138.98 161.68 C 138.98 162.93 140.00 163.95 141.25 163.95 Z M 142.34 163.95 L 143.28 163.95 C 144.54 163.95 145.55 162.93 145.55 161.68 C 145.55 160.43 144.54 159.41 143.28 159.41 L 142.34 159.41 C 141.09 159.41 140.07 160.43 140.07 161.68 C 140.07 162.93 141.09 163.95 142.34 163.95 Z M 143.28 163.95 L 144.26 163.95 C 145.52 163.95 146.53 162.93 146.53 161.68 C 146.53 160.43 145.52 159.41 144.26 159.41 L 143.28 159.41 C 142.03 159.41 141.02 160.43 141.02 161.68 C 141.02 162.93 142.03 163.95 143.28 163.95 Z M 144.26 163.95 L 145.27 163.95 C 146.52 163.95 147.53 162.93 147.53 161.68 C 147.53 160.43 146.52 159.41 145.27 159.41 L 144.26 159.41 C 143.01 159.41 141.99 160.43 141.99 161.68 C 141.99 162.93 143.01 163.95 144.26 163.95 Z M 145.27 163.95 L 146.29 163.95 C 147.54 163.95 148.56 162.93 148.56 161.68 C 148.56 160.43 147.54 159.41 146.29 159.41 L 145.27 159.41 C 144.01 159.41 143.00 160.43 143.00 161.68 C 143.00 162.93 144.01 163.95 145.27 163.95 Z M 146.29 163.95 L 147.31 163.95 C 148.57 163.95 149.58 162.93 149.58 161.68 C 149.58 160.42 148.57 159.41 147.31 159.41 L 146.29 159.41 C 145.03 159.41 144.01 160.42 144.01 161.68 C 144.01 162.93 145.03 163.95 146.29 163.95 Z M 147.31 163.95 L 148.34 163.95 C 149.59 163.95 150.61 162.93 150.61 161.68 C 150.61 160.42 149.59 159.41 148.34 159.41 L 147.31 159.41 C 146.06 159.41 145.04 160.42 145.04 161.68 C 145.04 162.93 146.06 163.95 147.31 163.95 Z M 148.34 163.95 L 149.35 163.95 C 150.60 163.95 151.62 162.93 151.62 161.68 C 151.62 160.42 150.60 159.41 149.35 159.41 L 148.34 159.41 C 147.08 159.41 146.06 160.42 146.06 161.68 C 146.06 162.93 147.08 163.95 148.34 163.95 Z M 149.35 163.95 L 150.39 163.95 C 151.64 163.95 152.66 162.93 152.66 161.68 C 152.66 160.42 151.64 159.41 150.39 159.41 L 149.35 159.41 C 148.09 159.41 147.07 160.42 147.07 161.68 C 147.07 162.93 148.09 163.95 149.35 163.95 Z M 150.39 163.95 L 151.42 163.95 C 152.67 163.95 153.69 162.93 153.69 161.68 C 153.69 160.42 152.67 159.41 151.42 159.41 L 150.39 159.41 C 149.13 159.41 148.11 160.42 148.11 161.68 C 148.11 162.93 149.13 163.95 150.39 163.95 Z M 151.42 163.95 L 152.43 163.95 C 153.69 163.95 154.70 162.93 154.70 161.68 C 154.70 160.42 153.69 159.40 152.43 159.40 L 151.42 159.40 C 150.16 159.40 149.14 160.42 149.14 161.68 C 149.14 162.93 150.16 163.95 151.42 163.95 Z M 152.43 163.95 L 153.43 163.95 C 154.68 163.95 155.70 162.94 155.70 161.68 C 155.70 160.42 154.68 159.40 153.43 159.40 L 152.43 159.40 C 151.17 159.40 150.16 160.42 150.16 161.68 C 150.16 162.94 151.17 163.95 152.43 163.95 Z M 153.43 163.95 L 154.41 163.95 C 155.66 163.95 156.68 162.94 156.68 161.68 C 156.68 160.42 155.66 159.40 154.41 159.40 L 153.43 159.40 C 152.17 159.40 151.15 160.42 151.15 161.68 C 151.15 162.94 152.17 163.95 153.43 163.95 Z M 154.41 163.95 L 155.38 163.95 C 156.64 163.95 157.66 162.94 157.66 161.68 C 157.66 160.42 156.64 159.40 155.38 159.40 L 154.41 159.40 C 153.15 159.40 152.13 160.42 152.13 161.68 C 152.13 162.94 153.15 163.95 154.41 163.95 Z M 155.38 163.96 L 156.35 163.96 C 157.61 163.96 158.63 162.94 158.63 161.68 C 158.63 160.42 157.61 159.40 156.35 159.40 L 155.38 159.40 C 154.12 159.40 153.10 160.42 153.10 161.68 C 153.10 162.94 154.12 163.96 155.38 163.96 Z M 156.35 163.96 L 157.36 163.96 C 158.61 163.96 159.63 162.94 159.63 161.68 C 159.63 160.42 158.61 159.40 157.36 159.40 L 156.35 159.40 C 155.09 159.40 154.07 160.42 154.07 161.68 C 154.07 162.94 155.09 163.96 156.35 163.96 Z M 157.36 163.96 L 158.37 163.96 C 159.62 163.96 160.64 162.94 160.64 161.68 C 160.64 160.42 159.62 159.40 158.37 159.40 L 157.36 159.40 C 156.10 159.40 155.08 160.42 155.08 161.68 C 155.08 162.94 156.10 163.96 157.36 163.96 Z M 158.37 163.96 L 159.37 163.96 C 160.63 163.96 161.65 162.94 161.65 161.68 C 161.65 160.42 160.63 159.40 159.37 159.40 L 158.37 159.40 C 157.11 159.40 156.09 160.42 156.09 161.68 C 156.09 162.94 157.11 163.96 158.37 163.96 Z M 159.37 163.96 L 160.37 163.96 C 161.63 163.96 162.65 162.94 162.65 161.68 C 162.65 160.42 161.63 159.40 160.37 159.40 L 159.37 159.40 C 158.11 159.40 157.09 160.42 157.09 161.68 C 157.09 162.94 158.11 163.96 159.37 163.96 Z M 160.37 163.96 L 161.37 163.96 C 162.63 163.96 163.65 162.94 163.65 161.68 C 163.65 160.42 162.63 159.40 161.37 159.40 L 160.37 159.40 C 159.12 159.40 158.10 160.42 158.10 161.68 C 158.10 162.94 159.12 163.96 160.37 163.96 Z M 161.37 163.96 L 162.36 163.96 C 163.62 163.96 164.64 162.94 164.64 161.68 C 164.64 160.42 163.62 159.40 162.36 159.40 L 161.37 159.40 C 160.11 159.40 159.09 160.42 159.09 161.68 C 159.09 162.94 160.11 163.96 161.37 163.96 Z M 162.36 163.96 L 163.35 163.96 C 164.61 163.96 165.63 162.94 165.63 161.68 C 165.63 160.42 164.61 159.40 163.35 159.40 L 162.36 159.40 C 161.10 159.40 160.08 160.42 160.08 161.68 C 160.08 162.94 161.10 163.96 162.36 163.96 Z M 163.35 163.96 L 164.35 163.96 C 165.61 163.96 166.63 162.94 166.63 161.68 C 166.63 160.42 165.61 159.40 164.34 159.40 L 163.35 159.40 C 162.09 159.40 161.06 160.42 161.06 161.68 C 161.06 162.94 162.09 163.96 163.35 163.96 Z M 164.35 163.97 L 165.34 163.97 C 166.61 163.96 167.63 162.94 167.63 161.67 C 167.63 160.41 166.60 159.39 165.33 159.39 L 164.34 159.39 C 163.08 159.39 162.05 160.42 162.06 161.68 C 162.06 162.95 163.08 163.97 164.35 163.97 Z M 165.35 163.97 L 166.34 163.97 C 167.61 163.97 168.63 162.93 168.63 161.67 C 168.62 160.40 167.59 159.37 166.32 159.38 L 165.33 159.38 C 164.06 159.39 163.04 160.42 163.04 161.69 C 163.05 162.95 164.08 163.98 165.35 163.97 Z M 166.35 163.98 L 167.34 163.97 C 168.61 163.96 169.64 162.92 169.63 161.65 C 169.62 160.38 168.58 159.36 167.31 159.36 L 166.32 159.37 C 165.04 159.38 164.02 160.42 164.03 161.69 C 164.04 162.96 165.07 163.98 166.35 163.98 Z M 167.35 163.98 L 168.35 163.97 C 169.63 163.95 170.65 162.91 170.64 161.63 C 170.63 160.36 169.58 159.33 168.31 159.35 L 167.30 159.36 C 166.03 159.37 165.00 160.42 165.02 161.69 C 165.03 162.97 166.07 163.99 167.35 163.98 Z M 168.36 163.97 L 169.38 163.96 C 170.66 163.94 171.68 162.89 171.66 161.61 C 171.64 160.33 170.59 159.31 169.31 159.33 L 168.30 159.34 C 167.02 159.36 166.00 160.41 166.01 161.69 C 166.03 162.97 167.08 163.99 168.36 163.97 Z M 169.39 163.96 L 170.36 163.94 C 171.64 163.92 172.66 162.86 172.63 161.58 C 172.60 160.30 171.54 159.28 170.26 159.30 L 169.30 159.32 C 168.02 159.35 167.00 160.41 167.03 161.69 C 167.05 162.97 168.11 163.99 169.39 163.96 Z M 170.38 163.94 L 171.36 163.91 C 172.64 163.87 173.64 162.80 173.61 161.52 C 173.57 160.24 172.50 159.24 171.22 159.28 L 170.24 159.31 C 168.96 159.34 167.96 160.41 167.99 161.69 C 168.03 162.97 169.10 163.98 170.38 163.94 Z M 171.39 163.91 L 172.38 163.87 C 173.66 163.81 174.65 162.73 174.59 161.45 C 174.54 160.17 173.46 159.18 172.18 159.23 L 171.19 159.28 C 169.91 159.33 168.92 160.42 168.97 161.70 C 169.03 162.97 170.11 163.97 171.39 163.91 Z M 172.43 163.86 L 173.43 163.80 C 174.70 163.72 175.67 162.62 175.59 161.34 C 175.51 160.06 174.41 159.09 173.13 159.17 L 172.13 159.24 C 170.86 159.32 169.89 160.42 169.97 161.70 C 170.05 162.97 171.15 163.94 172.43 163.86 Z M 173.48 163.79 L 174.49 163.71 C 175.76 163.60 176.71 162.47 176.60 161.20 C 176.49 159.92 175.36 158.98 174.09 159.09 L 173.08 159.18 C 171.80 159.29 170.86 160.41 170.97 161.69 C 171.08 162.96 172.21 163.91 173.48 163.79 Z M 174.55 163.70 L 175.57 163.58 C 176.84 163.43 177.75 162.29 177.61 161.01 C 177.46 159.74 176.31 158.83 175.04 158.98 L 174.02 159.10 C 172.75 159.24 171.84 160.39 171.99 161.66 C 172.13 162.93 173.28 163.85 174.55 163.70 Z M 175.64 163.57 L 176.64 163.42 C 177.91 163.24 178.78 162.06 178.59 160.79 C 178.41 159.53 177.23 158.65 175.96 158.84 L 174.97 158.99 C 173.70 159.18 172.83 160.36 173.01 161.62 C 173.20 162.89 174.38 163.76 175.64 163.57 Z M 176.72 163.41 L 177.63 163.25 C 178.89 163.02 179.72 161.81 179.49 160.55 C 179.27 159.30 178.06 158.46 176.80 158.69 L 175.89 158.85 C 174.63 159.08 173.80 160.29 174.02 161.55 C 174.25 162.80 175.46 163.64 176.72 163.41 Z M 177.69 163.23 L 178.62 163.04 C 179.87 162.78 180.67 161.55 180.41 160.29 C 180.14 159.04 178.91 158.24 177.66 158.51 L 176.74 158.70 C 175.49 158.96 174.69 160.19 174.95 161.45 C 175.21 162.70 176.44 163.50 177.69 163.23 Z M 178.67 163.03 L 179.61 162.80 C 180.86 162.51 181.63 161.26 181.33 160.01 C 181.03 158.77 179.78 158.00 178.54 158.30 L 177.60 158.52 C 176.36 158.81 175.59 160.06 175.88 161.31 C 176.18 162.55 177.43 163.32 178.67 163.03 Z M 179.66 162.79 L 180.62 162.54 C 181.85 162.22 182.60 160.95 182.27 159.71 C 181.95 158.48 180.68 157.73 179.44 158.06 L 178.49 158.31 C 177.25 158.63 176.51 159.90 176.83 161.14 C 177.16 162.38 178.42 163.12 179.66 162.79 Z M 180.66 162.53 L 181.64 162.26 C 182.87 161.91 183.58 160.63 183.24 159.39 C 182.89 158.16 181.61 157.45 180.38 157.79 L 179.40 158.07 C 178.17 158.42 177.45 159.70 177.80 160.93 C 178.15 162.16 179.43 162.88 180.66 162.53 Z M 181.67 162.25 L 182.68 161.95 C 183.90 161.58 184.60 160.28 184.23 159.06 C 183.86 157.83 182.57 157.13 181.34 157.50 L 180.34 157.80 C 179.11 158.17 178.42 159.46 178.78 160.69 C 179.15 161.92 180.44 162.61 181.67 162.25 Z M 182.70 161.94 L 183.74 161.61 C 184.96 161.23 185.64 159.93 185.26 158.70 C 184.87 157.48 183.57 156.80 182.35 157.19 L 181.31 157.51 C 180.09 157.89 179.41 159.20 179.80 160.42 C 180.18 161.64 181.48 162.32 182.70 161.94 Z M 183.76 161.61 L 184.72 161.29 C 185.94 160.90 186.61 159.59 186.22 158.37 C 185.82 157.15 184.51 156.48 183.29 156.88 L 182.33 157.19 C 181.11 157.59 180.44 158.90 180.84 160.12 C 181.23 161.33 182.54 162.00 183.76 161.61 Z M 184.74 161.29 L 185.65 160.99 C 186.86 160.59 187.53 159.27 187.12 158.06 C 186.72 156.84 185.40 156.18 184.19 156.58 L 183.28 156.88 C 182.06 157.28 181.40 158.60 181.80 159.82 C 182.21 161.03 183.52 161.69 184.74 161.29 Z M 185.65 160.99 L 186.58 160.68 C 187.80 160.27 188.46 158.95 188.05 157.74 C 187.64 156.52 186.33 155.86 185.11 156.27 L 184.18 156.58 C 182.96 156.99 182.31 158.30 182.71 159.52 C 183.12 160.74 184.44 161.40 185.65 160.99 Z M 186.59 160.68 L 187.53 160.36 C 188.75 159.96 189.41 158.64 189.00 157.42 C 188.59 156.20 187.27 155.54 186.05 155.95 L 185.11 156.27 C 183.89 156.68 183.23 158.00 183.64 159.21 C 184.05 160.43 185.37 161.09 186.59 160.68 Z M 187.53 160.37 L 188.49 160.05 C 189.71 159.64 190.37 158.32 189.96 157.10 C 189.55 155.88 188.24 155.22 187.02 155.63 L 186.06 155.95 C 184.84 156.35 184.18 157.67 184.58 158.89 C 184.99 160.11 186.31 160.77 187.53 160.37 Z M 188.48 160.05 L 189.45 159.73 C 190.67 159.33 191.34 158.01 190.93 156.79 C 190.53 155.57 189.22 154.90 187.99 155.31 L 187.02 155.62 C 185.80 156.03 185.14 157.34 185.54 158.57 C 185.94 159.79 187.26 160.45 188.48 160.05 Z M 189.44 159.74 L 190.41 159.43 C 191.64 159.03 192.31 157.72 191.91 156.49 C 191.52 155.26 190.21 154.59 188.98 154.98 L 188.01 155.30 C 186.78 155.69 186.10 157.01 186.50 158.23 C 186.89 159.46 188.21 160.14 189.44 159.74 Z M 190.39 159.43 L 191.37 159.13 C 192.60 158.74 193.28 157.43 192.90 156.20 C 192.51 154.97 191.20 154.29 189.97 154.67 L 189.00 154.98 C 187.77 155.36 187.08 156.67 187.47 157.90 C 187.85 159.13 189.16 159.82 190.39 159.43 Z M 191.34 159.14 L 192.32 158.85 C 193.55 158.47 194.25 157.17 193.88 155.93 C 193.51 154.70 192.21 154.00 190.97 154.37 L 190.00 154.66 C 188.76 155.03 188.06 156.34 188.43 157.57 C 188.80 158.81 190.11 159.51 191.34 159.14 Z M 192.29 158.86 L 193.29 158.57 C 194.53 158.21 195.25 156.92 194.90 155.68 C 194.54 154.43 193.24 153.72 192.00 154.07 L 191.00 154.36 C 189.76 154.71 189.04 156.01 189.39 157.25 C 189.75 158.49 191.04 159.21 192.29 158.86 Z M 193.25 158.58 L 194.31 158.30 C 195.56 157.96 196.30 156.68 195.96 155.43 C 195.63 154.18 194.34 153.44 193.09 153.77 L 192.04 154.06 C 190.79 154.39 190.05 155.68 190.38 156.93 C 190.72 158.18 192.00 158.92 193.25 158.58 Z M 194.27 158.31 L 195.31 158.05 C 196.57 157.74 197.33 156.46 197.02 155.20 C 196.70 153.95 195.43 153.18 194.17 153.50 L 193.13 153.76 C 191.87 154.08 191.11 155.35 191.43 156.61 C 191.74 157.87 193.02 158.63 194.27 158.31 Z M 195.28 158.06 L 196.30 157.83 C 197.56 157.53 198.35 156.27 198.05 155.00 C 197.76 153.74 196.49 152.95 195.23 153.25 L 194.21 153.49 C 192.94 153.78 192.16 155.05 192.45 156.31 C 192.75 157.57 194.01 158.36 195.28 158.06 Z M 196.26 157.84 L 197.26 157.62 C 198.53 157.35 199.34 156.10 199.06 154.83 C 198.79 153.56 197.54 152.75 196.27 153.02 L 195.27 153.24 C 194.00 153.51 193.19 154.76 193.46 156.03 C 193.74 157.30 194.99 158.11 196.26 157.84 Z M 197.22 157.63 L 198.19 157.44 C 199.47 157.19 200.30 155.95 200.05 154.67 C 199.79 153.40 198.55 152.57 197.28 152.82 L 196.31 153.01 C 195.03 153.26 194.20 154.50 194.45 155.78 C 194.70 157.06 195.94 157.89 197.22 157.63 Z M 198.15 157.45 L 199.09 157.29 C 200.37 157.06 201.23 155.83 201.00 154.55 C 200.77 153.26 199.54 152.41 198.26 152.64 L 197.32 152.81 C 196.04 153.04 195.18 154.26 195.41 155.54 C 195.64 156.83 196.86 157.68 198.15 157.45 Z M 199.04 157.30 L 199.95 157.15 C 201.24 156.95 202.12 155.74 201.91 154.45 C 201.71 153.16 200.50 152.28 199.21 152.48 L 198.30 152.63 C 197.01 152.83 196.13 154.04 196.34 155.33 C 196.54 156.62 197.75 157.50 199.04 157.30 Z M 199.90 157.16 L 200.76 157.05 C 202.06 156.87 202.97 155.67 202.79 154.38 C 202.61 153.08 201.42 152.18 200.12 152.36 L 199.26 152.47 C 197.96 152.65 197.05 153.85 197.23 155.14 C 197.41 156.44 198.60 157.34 199.90 157.16 Z M 200.70 157.06 L 201.80 156.94 C 203.10 156.79 204.04 155.63 203.89 154.32 C 203.75 153.02 202.58 152.08 201.28 152.23 L 200.19 152.35 C 198.88 152.49 197.94 153.66 198.09 154.96 C 198.23 156.26 199.40 157.20 200.70 157.06 Z M 201.70 156.95 L 202.74 156.87 C 204.05 156.79 205.03 155.65 204.95 154.35 C 204.86 153.04 203.73 152.06 202.42 152.15 L 201.38 152.22 C 200.07 152.31 199.09 153.44 199.17 154.74 C 199.26 156.05 200.39 157.03 201.70 156.95 Z M 202.62 156.88 L 203.62 156.86 C 204.92 156.84 205.97 155.76 205.94 154.45 C 205.92 153.14 204.84 152.10 203.53 152.12 L 202.54 152.14 C 201.23 152.16 200.19 153.24 200.21 154.55 C 200.23 155.86 201.31 156.90 202.62 156.88 Z M 203.47 156.86 L 204.43 156.90 C 205.74 156.96 206.85 155.94 206.90 154.63 C 206.96 153.32 205.94 152.22 204.63 152.16 L 203.67 152.12 C 202.36 152.07 201.26 153.08 201.20 154.39 C 201.15 155.70 202.17 156.81 203.47 156.86 Z M 204.28 156.89 L 205.22 156.99 C 206.52 157.13 207.69 156.19 207.83 154.89 C 207.97 153.59 207.03 152.42 205.73 152.28 L 204.79 152.17 C 203.48 152.03 202.31 152.98 202.17 154.28 C 202.03 155.58 202.98 156.75 204.28 156.89 Z M 205.06 156.97 L 206.00 157.14 C 207.29 157.37 208.52 156.50 208.75 155.21 C 208.98 153.92 208.12 152.69 206.83 152.46 L 205.89 152.30 C 204.60 152.07 203.37 152.93 203.14 154.22 C 202.91 155.51 203.77 156.74 205.06 156.97 Z M 205.85 157.11 L 206.75 157.32 C 208.02 157.63 209.30 156.85 209.61 155.58 C 209.92 154.30 209.14 153.02 207.86 152.71 L 206.97 152.49 C 205.70 152.18 204.42 152.97 204.11 154.24 C 203.80 155.51 204.58 156.80 205.85 157.11 Z M 206.64 157.30 L 207.54 157.56 C 208.80 157.92 210.12 157.20 210.48 155.94 C 210.85 154.68 210.12 153.36 208.86 153.00 L 207.97 152.74 C 206.71 152.37 205.39 153.10 205.03 154.36 C 204.66 155.62 205.39 156.93 206.64 157.30 Z M 207.49 157.54 L 208.41 157.83 C 209.66 158.22 210.99 157.53 211.38 156.28 C 211.78 155.03 211.08 153.70 209.83 153.30 L 208.91 153.01 C 207.66 152.62 206.33 153.31 205.94 154.56 C 205.54 155.81 206.24 157.15 207.49 157.54 Z M 208.40 157.83 L 209.34 158.13 C 210.59 158.53 211.93 157.84 212.33 156.59 C 212.73 155.34 212.04 154.01 210.79 153.61 L 209.84 153.30 C 208.59 152.91 207.26 153.59 206.86 154.84 C 206.46 156.09 207.15 157.43 208.40 157.83 Z M 209.37 158.14 L 210.35 158.44 C 211.61 158.82 212.94 158.12 213.32 156.87 C 213.70 155.61 213.00 154.29 211.75 153.90 L 210.76 153.60 C 209.51 153.22 208.18 153.92 207.80 155.17 C 207.41 156.43 208.12 157.75 209.37 158.14 Z M 210.42 158.46 L 211.44 158.74 C 212.70 159.09 214.01 158.35 214.36 157.09 C 214.71 155.82 213.97 154.52 212.71 154.17 L 211.68 153.88 C 210.42 153.53 209.11 154.27 208.76 155.54 C 208.41 156.80 209.15 158.11 210.42 158.46 Z M 211.53 158.76 L 212.58 159.01 C 213.86 159.31 215.14 158.51 215.43 157.24 C 215.73 155.96 214.94 154.68 213.66 154.39 L 212.61 154.14 C 211.34 153.84 210.06 154.64 209.76 155.91 C 209.46 157.19 210.26 158.47 211.53 158.76 Z M 212.69 159.03 L 213.61 159.20 C 214.90 159.44 216.13 158.59 216.38 157.31 C 216.62 156.02 215.77 154.78 214.48 154.54 L 213.56 154.37 C 212.27 154.13 211.03 154.97 210.79 156.26 C 210.55 157.55 211.40 158.79 212.69 159.03 Z M 213.69 159.22 L 214.64 159.36 C 215.94 159.55 217.14 158.66 217.34 157.37 C 217.53 156.07 216.64 154.86 215.35 154.67 L 214.40 154.53 C 213.10 154.33 211.89 155.22 211.70 156.52 C 211.50 157.81 212.40 159.02 213.69 159.22 Z M 214.71 159.37 L 215.69 159.48 C 216.99 159.64 218.17 158.71 218.32 157.42 C 218.48 156.12 217.55 154.94 216.25 154.78 L 215.28 154.66 C 213.98 154.50 212.80 155.43 212.64 156.73 C 212.49 158.03 213.41 159.21 214.71 159.37 Z M 215.74 159.49 L 216.74 159.58 C 218.04 159.71 219.20 158.76 219.32 157.46 C 219.45 156.16 218.50 155.00 217.20 154.87 L 216.20 154.77 C 214.90 154.65 213.74 155.60 213.61 156.90 C 213.49 158.20 214.44 159.36 215.74 159.49 Z M 216.78 159.59 L 217.79 159.67 C 219.10 159.77 220.24 158.80 220.34 157.50 C 220.44 156.19 219.47 155.05 218.17 154.95 L 217.15 154.87 C 215.85 154.77 214.71 155.74 214.61 157.04 C 214.51 158.34 215.48 159.48 216.78 159.59 Z M 217.83 159.67 L 218.85 159.74 C 220.15 159.82 221.28 158.83 221.37 157.53 C 221.45 156.23 220.47 155.10 219.16 155.02 L 218.14 154.95 C 216.83 154.86 215.71 155.85 215.62 157.15 C 215.54 158.46 216.52 159.58 217.83 159.67 Z M 218.87 159.73 L 219.91 159.79 C 221.21 159.87 222.33 158.87 222.40 157.57 C 222.48 156.27 221.48 155.15 220.18 155.08 L 219.14 155.02 C 217.84 154.94 216.72 155.94 216.65 157.24 C 216.57 158.54 217.57 159.66 218.87 159.73 Z M 219.92 159.79 L 220.93 159.85 C 222.23 159.92 223.34 158.92 223.41 157.61 C 223.48 156.31 222.48 155.20 221.18 155.13 L 220.17 155.08 C 218.87 155.01 217.75 156.01 217.68 157.31 C 217.62 158.61 218.61 159.72 219.92 159.79 Z"
      fill="black"
      fill-rule="nonzero" /></svg>